<?xml version="1.0" standalone="no"?>
<!DOCTYPE svg PUBLIC "-//W3C//DTD SVG 1.1//EN" "http://www.w3.org/Graphics/SVG/1.1/DTD/svg11.dtd" >
<svg xmlns="http://www.w3.org/2000/svg" xmlns:xlink="http://www.w3.org/1999/xlink" version="1.1">
<metadata>
Created by FontForge 20170731 at Sat Feb  4 01:37:05 2012
 By Aleksey,,,
Copyright (c) 2011 Natanael Gama (exo@ndiscovered.com), with Reserved Font Name "Exo"
</metadata>
<defs>
<font id="Exo-Light" horiz-adv-x="546" >
  <font-face 
    font-family="Exo"
    font-weight="300"
    font-stretch="normal"
    units-per-em="1000"
    panose-1="2 0 3 3 0 0 0 0 0 0"
    ascent="800"
    descent="-200"
    x-height="531"
    cap-height="732"
    bbox="-101 -273 1334 1002"
    underline-thickness="50"
    underline-position="-150"
    unicode-range="U+000D-FB06"
  />
<missing-glyph horiz-adv-x="771" 
d="M651 506l-252 -240l252 -241v481zM134 13h507l-253 243zM121 22l256 244l-256 241v-485zM642 518h-511l257 -242zM107 0v531h558v-531h-558z" />
    <glyph glyph-name="fi" unicode="fi" horiz-adv-x="603" 
d="M22 472v43l98 14v55q0 90 51 146t140 56q80 0 185 -29v-37l-172 10h-11q-55 0 -95.5 -33t-40.5 -113v-55l365 -9v-520h-58v472h-307v-472h-57v472h-98z" />
    <glyph glyph-name="fl" unicode="fl" horiz-adv-x="718" 
d="M22 474v42l99 15v53q0 85 36 141q40 61 127 61h259v-596q0 -89 28 -113q15 -13 41 -19q77 -18 84 -18v-39h-81q-69 0 -99 43.5t-30 145.5v540h-189q-58 0 -88.5 -32.5t-30.5 -113.5v-53h146v-57h-147v-474h-57v474h-98z" />
    <glyph glyph-name=".notdef" horiz-adv-x="771" 
d="M651 506l-252 -240l252 -241v481zM134 13h507l-253 243zM121 22l256 244l-256 241v-485zM642 518h-511l257 -242zM107 0v531h558v-531h-558z" />
    <glyph glyph-name=".notdef" horiz-adv-x="771" 
d="M651 506l-252 -240l252 -241v481zM134 13h507l-253 243zM121 22l256 244l-256 241v-485zM642 518h-511l257 -242zM107 0v531h558v-531h-558z" />
    <glyph glyph-name=".null" horiz-adv-x="0" 
 />
    <glyph glyph-name="uni000D" unicode="&#xd;" horiz-adv-x="969" 
 />
    <glyph glyph-name="space" unicode=" " horiz-adv-x="260" 
 />
    <glyph glyph-name="exclam" unicode="!" horiz-adv-x="265" 
d="M92 19v59q0 21 20 21h40q19 0 19 -21v-59q0 -19 -19 -19h-40q-9 0 -14.5 5.5t-5.5 13.5zM98 731h66l-6 -535h-54z" />
    <glyph glyph-name="quotedbl" unicode="&#x22;" horiz-adv-x="339" 
d="M138 732v-67l-9 -134h-40l-9 134v67h58zM261 732v-67l-9 -134h-40l-9 134v67h58z" />
    <glyph glyph-name="numbersign" unicode="#" horiz-adv-x="675" 
d="M22 238l6 39h166l28 178h-166l7 39h165l38 238h39l-38 -238h172l38 238h38l-37 -238h177l-7 -39h-177l-28 -179h177l-6 -39h-177l-38 -237h-38l37 237l-172 1l-38 -238h-38l37 238h-165zM233 277l171 -1l28 179h-171z" />
    <glyph glyph-name="dollar" unicode="$" horiz-adv-x="578" 
d="M257 824h45v-88q40 -3 186 -20v-43l-230 9h-14q-58 0 -92 -24t-34 -98v-66q0 -60 32 -83t87 -23h121q98 0 131 -52q28 -44 28 -112v-68q0 -164 -194 -164h-21v-81h-45v85q-123 10 -174 18v41q182 -6 234 -6q143 0 143 107v68q0 70 -41 93q-23 13 -61 13h-120
q-120 0 -157 74q-20 37 -20 90v66q1 105 57 143q50 35 139 35v86z" />
    <glyph glyph-name="percent" unicode="%" horiz-adv-x="954" 
d="M47 474v133q0 66 28 95.5t101 29.5h101q71 0 99 -29.5t28 -95.5v-133q0 -66 -28 -95.5t-101 -29.5h-101q-71 0 -99 29.5t-28 95.5zM95 474q0 -45 17.5 -61t61.5 -16h101q48 0 64.5 16t16.5 61v133q0 57 -31 70q-17 7 -48 7h-101q-61 0 -74 -30q-7 -16 -7 -47v-133zM232 0
l438 732h54l-438 -732h-54zM551 127v133q0 67 28 96t101 29h101q71 0 99 -29.5t28 -95.5v-133q0 -66 -28 -95.5t-101 -29.5h-101q-71 0 -99 29.5t-28 95.5zM599 127q0 -45 17.5 -61t61.5 -16h101q48 0 64.5 16t16.5 61v133q0 57 -32 70q-16 7 -47 7h-101q-49 0 -65 -15.5
t-16 -61.5v-133z" />
    <glyph glyph-name="ampersand" unicode="&#x26;" horiz-adv-x="642" 
d="M37 206q0 91 81 160l86 73l-63 85q-33 47 -33 86q0 50 32.5 81.5t71 36.5t102 5t163.5 -18v-38h-203q-99 0 -107 -59v-6q0 -30 33 -74l254 -343l127 129l19 -19l-58 -99l-53 -55l109 -151h-69l-82 111l-72 -67q-53 -49 -126 -49q-38 0 -84 18.5t-87 74t-41 118.5zM252 51
q44 0 82 32l78 73l-175 236l-78 -65q-66 -55 -66 -119q0 -46 37.5 -94.5t96.5 -60.5q13 -2 25 -2z" />
    <glyph glyph-name="quotesingle" unicode="'" horiz-adv-x="160" 
d="M109 732v-67l-8 -134h-40l-10 134v67h58z" />
    <glyph glyph-name="parenleft" unicode="(" horiz-adv-x="328" 
d="M101 149q-17 89 -17 161t8.5 131.5t22.5 110.5t31 99t34 85q36 77 54 109l9 15h62q-22 -36 -53.5 -102.5t-53.5 -126.5t-39.5 -144.5t-17.5 -164.5t17 -166t41 -149q50 -130 90 -191l17 -26h-63q-22 31 -52.5 91.5t-51.5 119.5t-38 148z" />
    <glyph glyph-name="parenright" unicode=")" horiz-adv-x="327" 
d="M169 154.5q18 87.5 18 167.5t-17 163t-41 147q-50 133 -90 199l-17 29h63q22 -36 52.5 -102t51.5 -126t38 -144.5t17 -167t-16.5 -170.5t-39.5 -150q-48 -128 -87 -185l-16 -25h-63q23 33 54.5 96t53 122t39.5 146.5z" />
    <glyph glyph-name="asterisk" unicode="*" horiz-adv-x="449" 
d="M56 575v31l140 20l3 -56zM128 412l27 135l57 -13l-55 -131zM186 719l30 12l73 -120l-53 -24zM219 482l31 49l112 -88l-16 -25zM262 565l117 78l15 -27l-94 -95z" />
    <glyph glyph-name="plus" unicode="+" horiz-adv-x="517" 
d="M56 328v56h174v175h57v-175h175v-56h-175v-175h-57v175h-174z" />
    <glyph glyph-name="comma" unicode="," horiz-adv-x="236" 
d="M131 -75q-11 -5 -19.5 -6.5t-13 -1.5t-14.5 2v23h1q24 0 24 26v32h-9q-20 0 -20 21v57q0 22 20 22h37q20 0 20 -22v-98q0 -43 -26 -55z" />
    <glyph glyph-name="hyphen" unicode="-" horiz-adv-x="348" 
d="M22 262v56h304v-56h-304z" />
    <glyph glyph-name="period" unicode="." horiz-adv-x="238" 
d="M80 19v59q0 21 19 21h39q21 0 21 -21v-59q0 -19 -21 -19h-39q-8 0 -13.5 5.5t-5.5 13.5z" />
    <glyph glyph-name="slash" unicode="/" horiz-adv-x="384" 
d="M22 -72l281 842h59l-281 -842h-59z" />
    <glyph glyph-name="zero" unicode="0" horiz-adv-x="649" 
d="M78 162v408q0 78 48.5 120t123.5 42h154q126 0 158 -99q9 -29 9 -63v-408q0 -162 -167 -162h-154q-72 0 -120 36q-52 39 -52 126zM135 162q0 -53 32 -79t83 -26h154q110 0 110 105v408q0 105 -110 105h-154q-56 0 -85.5 -28.5t-29.5 -76.5v-408z" />
    <glyph glyph-name="one" unicode="1" horiz-adv-x="359" 
d="M270 732v-732h-57v667l-168 -59v39l168 85h57z" />
    <glyph glyph-name="two" unicode="2" horiz-adv-x="597" 
d="M45 684v41q130 17 294 17q150 0 191 -131q12 -36 12 -84.5t-34.5 -113t-80.5 -117.5t-106 -107q-86 -79 -162 -132h383v-57h-490v53q128 92 190 147t104.5 98.5t70.5 80.5q67 89 67 155q0 110 -83 140q-27 10 -64 10h-292z" />
    <glyph glyph-name="three" unicode="3" horiz-adv-x="596" 
d="M33 712q53 16 113.5 19.5t109 3.5t85.5 -1q82 -1 127 -47t45 -118v-69q0 -39 -14 -70q-24 -51 -71 -66q85 -42 85 -144v-59q0 -168 -178 -168q-141 0 -201.5 5.5t-94.5 16.5l2 36h289q90 0 113 53q11 23 11 57v59q0 59 -35.5 86t-83.5 29l-234 7v43l234 9q55 1 88 28.5
t33 77.5v69q0 54 -34.5 81t-85.5 27h-303v35z" />
    <glyph glyph-name="four" unicode="4" horiz-adv-x="593" 
d="M424 255v217l28 75h29v-292h90v-44l-90 -15v-194h-57v194h-375l-27 32l317 504h67l-298 -477h316z" />
    <glyph glyph-name="five" unicode="5" horiz-adv-x="618" 
d="M302 443l87 -2q85 0 124.5 -44.5t39.5 -121.5v-109q0 -108 -80 -149q-39 -21 -84 -21q-107 0 -166.5 3t-137.5 16v41h304q51 0 79 31.5t28 80.5v105q0 57 -25 83q-27 28 -82 28h-154q-37 0 -66.5 -25.5t-29.5 -66.5h-52l22 440h422v-57h-369l-14 -276q11 14 35.5 27
t50.5 15q33 2 68 2z" />
    <glyph glyph-name="six" unicode="6" horiz-adv-x="627" 
d="M73 386q0 93 14.5 163.5t39.5 110.5q49 78 118 78q173 0 292 -16v-41h-283q-29 0 -52 -20.5t-36 -50.5t-21 -69q-14 -65 -15 -138q149 17 270 17q97 0 131 -45q30 -38 30 -103v-124q0 -149 -161 -149h-139q-111 1 -154 115q-34 92 -34 272zM130 363q0 -134 20 -197
q23 -73 59 -96q23 -14 52 -14h139q49 0 77 19.5t28 75.5v121q0 52 -28 71.5t-77 19.5h-270z" />
    <glyph glyph-name="seven" unicode="7" horiz-adv-x="542" 
d="M33 675v57h452l24 -40l-256 -692h-68l251 675h-403z" />
    <glyph glyph-name="eight" unicode="8" horiz-adv-x="641" 
d="M84 499v65q0 95 46 134t130 39h136q108 0 143 -74q19 -38 19 -99v-65q0 -31 -12 -58q-22 -51 -69 -59q41 -9 61 -48t20 -82v-98q0 -102 -79 -137q-37 -17 -84 -17h-135q-123 0 -161 76q-12 25 -13.5 45.5t-1.5 32.5v98q0 90 90 109q-49 14 -69.5 52.5t-20.5 85.5z
M141 151q0 -94 119 -94h135q42 0 74 23.5t32 70.5v105q0 70 -68 86q-16 4 -35 4h-149q-42 0 -75 -21.5t-33 -68.5v-105zM141 494q0 -56 37 -76q32 -16 71 -16h149q55 0 79 28t24 64v68q0 63 -25.5 90.5t-79.5 27.5h-136q-63 0 -91 -25t-28 -93v-68z" />
    <glyph glyph-name="nine" unicode="9" horiz-adv-x="627" 
d="M228 736h139q111 0 153 -115q35 -92 35 -270q0 -265 -109 -335q-29 -19 -63 -19q-206 0 -292 16v41h282q37 0 63 29.5t38 76.5q23 85 24 173q-150 -18 -270 -18q-97 0 -131 45q-30 39 -30 103v124q0 149 161 149zM123 463q0 -52 28 -71.5t77 -19.5h270q0 134 -20 198
q-23 73 -59 95q-23 14 -52 14h-139q-49 0 -77 -19.5t-28 -75.5v-121z" />
    <glyph glyph-name="colon" unicode=":" horiz-adv-x="239" 
d="M80 19v59q0 21 19 21h39q21 0 21 -21v-59q0 -19 -21 -19h-39q-8 0 -13.5 5.5t-5.5 13.5zM80 452v59q0 20 19 20h39q21 0 21 -20v-59q0 -19 -21 -19h-39q-8 0 -13.5 5t-5.5 14z" />
    <glyph glyph-name="semicolon" unicode=";" horiz-adv-x="239" 
d="M131 -75q-11 -5 -19.5 -6.5t-13 -1.5t-14.5 2v23h1q24 0 24 26v32h-9q-8 0 -14 6.5t-6 14.5v57q0 13 7 17.5t13 4.5h37q20 0 20 -22v-98q0 -43 -26 -55zM81 452v59q0 21 20 21h39q20 0 20 -21v-59q0 -19 -20 -19h-39q-9 0 -14.5 5.5t-5.5 13.5z" />
    <glyph glyph-name="less" unicode="&#x3c;" horiz-adv-x="476" 
d="M56 325v59l365 172v-62l-289 -140l289 -150v-64z" />
    <glyph glyph-name="equal" unicode="=" horiz-adv-x="471" 
d="M22 212v57h427v-57h-427zM22 438v57h427v-57h-427z" />
    <glyph glyph-name="greater" unicode="&#x3e;" horiz-adv-x="476" 
d="M56 140v64l289 150l-289 140v62l365 -172v-59z" />
    <glyph glyph-name="question" unicode="?" horiz-adv-x="537" 
d="M261 740q17 0 26 -0.5t10 -0.5q196 0 196 -185v-101q0 -162 -182 -162q-31 0 -69 5v-101h-58v148h129q56 1 90 27.5t34 82.5v101q0 69 -35 98t-115 29h-265v41q138 18 239 18zM173 19v59q0 21 20 21h41q19 0 19 -21v-59q0 -19 -19 -19h-41q-8 0 -14 5.5t-6 13.5z" />
    <glyph glyph-name="at" unicode="@" horiz-adv-x="851" 
d="M241 512h210q59 0 102 -28q51 -33 51 -112v-372h-43l-11 64l-12 -7.5t-31.5 -18t-43.5 -21.5q-57 -26 -107 -26h-5q-52 0 -88 33t-35 84v53q0 61 33.5 97t95.5 36h191q1 38 1 57t-1 19q0 47 -25 66t-75 19h-207q-52 0 -81.5 -23t-29.5 -84v-348q0 -71 37 -98
q32 -22 74 -22h339q65 0 92.5 29t27.5 91v512q0 95 -70 122q-22 9 -50 9h-399v36q102 21 267 21h21h111q111 -2 154 -84q23 -43 23 -104v-512q0 -178 -177 -178h-339q-78 0 -123 46t-45 132v348q0 48 10 71t22.5 39.5t29.5 27.5q40 26 106 26zM361 48h2h2q64 0 183 57v150
l-186 -14q-34 -3 -56 -23t-21 -59q-1 -1 -1 -22.5t1 -22.5q0 -26 22 -46t54 -20z" />
    <glyph glyph-name="A" unicode="A" horiz-adv-x="666" 
d="M50 0l271 732h61l258 -732h-67l-72 221h-306l-76 -221h-69zM216 278h265l-130 371z" />
    <glyph glyph-name="B" unicode="B" horiz-adv-x="597" 
d="M90 0v732h272q144 0 180 -120q10 -31 10 -68q0 -62 -27.5 -106t-77.5 -57q40 -9 74 -54.5t34 -122.5q0 -83 -38 -140q-44 -64 -155 -64h-272zM147 57h215q136 0 136 149q0 63 -36.5 106t-98.5 43h-1h-215v-298zM495 548q0 127 -133 127h-215v-263h215q62 0 97.5 34.5
t35.5 101.5z" />
    <glyph glyph-name="C" unicode="C" horiz-adv-x="575" 
d="M61 368q0 230 72 309q58 63 172 63q39 0 110.5 -7.5t123.5 -17.5v-43l-8.5 0.5t-22.5 1.5t-32.5 2t-40.5 2.5t-43 2.5q-49 2 -87 2q-69 0 -108 -26q-79 -52 -79 -291q0 -315 187 -315q99 0 220 8l14 1v-44q-50 -9 -121 -15.5t-113 -6.5q-244 0 -244 374z" />
    <glyph glyph-name="D" unicode="D" horiz-adv-x="661" 
d="M90 0v732h265q83 0 136 -37q54 -38 78 -91q28 -61 35 -107q11 -74 11 -130t-8.5 -105.5t-28.5 -97.5t-49 -84t-74 -58t-100 -22h-265zM147 59h208q52 0 92 26t64 70q47 88 47 209q0 311 -203 311h-208v-616z" />
    <glyph glyph-name="E" unicode="E" horiz-adv-x="572" 
d="M90 123v479q0 69 34.5 99.5t83.5 30.5h8l309 -14v-43h-309q-39 0 -54 -18.5t-15 -54.5v-209l338 -8v-44l-338 -8v-210q0 -47 26 -60q20 -9 53 -9h299v-42l-299 -15h-21t-32 3.5t-40 15.5q-43 26 -43 107z" />
    <glyph glyph-name="F" unicode="F" horiz-adv-x="572" 
d="M90 0v602q0 69 34.5 99.5t83.5 30.5h8l309 -14v-43h-309q-39 0 -54 -18.5t-15 -54.5v-209l338 -8v-44l-338 -8v-333h-57z" />
    <glyph glyph-name="G" unicode="G" horiz-adv-x="616" 
d="M63 283q-2 38 -2 95.5t4.5 107.5t19 100t39 82t66.5 52t90.5 20t129 -8.5t132.5 -18.5v-45q-1 0 -18.5 1.5t-45 3.5t-58.5 5q-76 5 -124.5 5t-78.5 -13.5t-49.5 -37.5t-29.5 -64q-20 -70 -20 -222.5t38 -223.5q39 -71 140 -71q34 0 85 12t86 24l35 12v232h-184v38
q74 20 173 20q32 0 68 -3v-386h-42l-13 51q-53 -29 -110.5 -42.5t-99.5 -13.5h-23t-55.5 9.5t-58 26.5t-42 44.5t-27.5 57.5t-16.5 71t-8.5 79z" />
    <glyph glyph-name="H" unicode="H" horiz-adv-x="646" 
d="M90 0v732h57v-350h380v350h57v-732h-57v326h-380v-326h-57z" />
    <glyph glyph-name="I" unicode="I" horiz-adv-x="209" 
d="M90 0v732h57v-732h-57z" />
    <glyph glyph-name="J" unicode="J" horiz-adv-x="355" 
d="M43 61q62 -16 77.5 -16t23.5 0.5t24.5 3t27.5 11.5t20 22q20 26 20 83v567h57v-567q0 -112 -52 -147q-36 -24 -98.5 -24t-103.5 27z" />
    <glyph glyph-name="K" unicode="K" horiz-adv-x="591" 
d="M90 0v732h57v-336h105l234 336h69l-250 -365l250 -367h-69l-234 338h-104v-338h-58z" />
    <glyph glyph-name="L" unicode="L" horiz-adv-x="557" 
d="M90 126v606h57v-606q0 -47 26 -60q20 -9 53 -9h295v-57h-295q-100 0 -125 59q-11 27 -11 67z" />
    <glyph glyph-name="M" unicode="M" horiz-adv-x="799" 
d="M61 0l60 732h79l201 -637l196 637h80l65 -732h-57l-57 634l-196 -634h-59l-202 634l-53 -634h-57z" />
    <glyph glyph-name="N" unicode="N" horiz-adv-x="674" 
d="M90 0v732h58l407 -625v625h57v-732h-57l-408 625v-625h-57z" />
    <glyph glyph-name="O" unicode="O" horiz-adv-x="675" 
d="M73 362q0 71 7 127.5t18.5 96t31 67.5t40.5 44t52 25q51 15 111 15t89 -3t60 -12t51.5 -25t40 -44t30.5 -67q25 -87 25 -196t-8 -168t-25 -99t-38 -65.5t-55 -38.5q-57 -23 -152 -23q-135 0 -185 39q-51 39 -70 108q-23 84 -23 219zM136 493q-6 -55 -6 -123t3.5 -111.5
t11 -77t21 -55.5t29.5 -37t40 -22q44 -14 106 -14t95.5 6.5t61.5 25t43 53.5q31 72 31 223q0 157 -26 219q-9 24 -18.5 40.5t-25.5 27.5t-29.5 17.5t-35.5 9.5q-34 5 -81 5t-70 -2t-53 -11t-45 -29.5t-30.5 -55t-21.5 -89.5z" />
    <glyph glyph-name="P" unicode="P" horiz-adv-x="582" 
d="M67 0v732h293q93 0 136 -57q39 -51 39 -151q0 -184 -109 -211q-28 -7 -62 -7t-135 7.5t-105 9.5v-323h-57zM124 364h236q50 0 81 26q36 32 36 131q0 111 -56 140q-25 13 -61 13h-236v-310z" />
    <glyph glyph-name="Q" unicode="Q" horiz-adv-x="675" 
d="M73 366.5q0 67.5 6.5 123.5t18 95.5t31 67.5t40 44t51.5 25q51 15 111 15t89 -3t60.5 -12t52 -25t40.5 -44t31 -67q25 -87 25 -196t-8 -168t-25 -99t-38.5 -65.5t-55.5 -38.5q-58 -23 -152 -23q-120 0 -167 28q-50 29 -70 75q-28 64 -34 132t-6 135.5zM136 493
q-6 -55 -6 -128t4.5 -121t16 -83t27 -55.5t42.5 -32.5q44 -20 113 -20t102.5 6.5t61.5 25t43 53.5q32 72 32 223q0 157 -26 219q-10 24 -19 40.5t-25.5 27.5t-30 17.5t-35.5 9.5q-34 5 -81 5t-70 -2t-53 -11t-45 -29.5t-30 -55t-21 -89.5zM470 -80q31 0 67 12v-61
q-23 -10 -39.5 -10t-35.5 1t-50 10.5t-54.5 34.5t-29.5 60h39q42 -47 103 -47z" />
    <glyph glyph-name="R" unicode="R" horiz-adv-x="586" 
d="M67 0v732h300q171 0 171 -213q0 -54 -10.5 -94t-25 -61t-35.5 -34q-30 -18 -67 -21l157 -309h-62l-156 307q-14 0 -114 6t-101 7v-320h-57zM480 523q0 45 -9.5 78t-26.5 48q-31 25 -77 25h-243v-306h243q68 0 90 36q23 37 23 119z" />
    <glyph glyph-name="S" unicode="S" horiz-adv-x="584" 
d="M264 738q41 0 123 -8t123 -14v-44l-241 9h-14q-59 0 -92 -23t-33 -98v-66q0 -48 11 -65t20.5 -24t23.5 -11q25 -6 62 -6h133q95 0 129 -52q29 -44 29 -112v-68q0 -114 -87 -147q-45 -17 -97 -17t-138.5 7.5t-122.5 14.5v44q97 -9 181.5 -9t101 1.5t37.5 8t35 17.5
q33 26 33 80v68q0 53 -23 79.5t-78 26.5h-131q-127 0 -160 71q-16 36 -16 93v66q0 105 56 144q51 34 135 34z" />
    <glyph glyph-name="T" unicode="T" horiz-adv-x="586" 
d="M46 675v57h511v-57h-230v-675h-57v675h-224z" />
    <glyph glyph-name="U" unicode="U" horiz-adv-x="679" 
d="M355 -5h-11q-118 0 -155 25q-17 12 -39 35.5t-33 57.5q-27 85 -27 207v412h57v-412q0 -169 43 -218q16 -19 29 -29q23 -18 82 -20q16 -1 49 -1h5q73 0 93.5 8t36 17.5t25 23t20 34t16.5 46.5q13 60 13 139v412h57v-412q0 -196 -65 -263q-23 -24 -41.5 -36t-50.5 -18
q-41 -8 -104 -8z" />
    <glyph glyph-name="V" unicode="V" horiz-adv-x="666" 
d="M50 732h63l227 -646l238 646h62l-270 -732h-61z" />
    <glyph glyph-name="W" unicode="W" horiz-adv-x="965" 
d="M50 732h63l226 -639l203 639h64l-80 -257l144 -386l207 643h62l-237 -732h-61l-145 381l-126 -381h-61z" />
    <glyph glyph-name="X" unicode="X" horiz-adv-x="585" 
d="M50 732h64l189 -320l192 320h64l-218 -364l213 -368h-64l-187 318l-186 -318h-64l213 368z" />
    <glyph glyph-name="Y" unicode="Y" horiz-adv-x="626" 
d="M344 0h-57v260l-237 472h63l202 -403l223 403h62l-256 -472v-260z" />
    <glyph glyph-name="Z" unicode="Z" horiz-adv-x="558" 
d="M39 0v57l409 618h-409v57h483v-57l-409 -618h409v-57h-483z" />
    <glyph glyph-name="bracketleft" unicode="[" horiz-adv-x="323" 
d="M95 -38v708q0 70 23 109q37 63 113 63h70v-57h-70q-36 0 -57.5 -30t-21.5 -85v-708q0 -52 20.5 -83.5t58.5 -31.5h70v-57h-70q-136 0 -136 172z" />
    <glyph glyph-name="backslash" unicode="\" horiz-adv-x="384" 
d="M22 770h59l281 -842h-59z" />
    <glyph glyph-name="bracketright" unicode="]" horiz-adv-x="323" 
d="M22 -153h70q39 0 59 31.5t20 83.5v708q0 55 -21 85t-58 30h-70v57h70q35 0 61 -12.5t39.5 -30.5t22.5 -43q13 -39 13 -86v-708q0 -123 -75 -160q-26 -12 -61 -12h-70v57z" />
    <glyph glyph-name="asciicircum" unicode="^" horiz-adv-x="397" 
d="M56 531l122 130h54l109 -130h-53l-84 86l-94 -86h-54z" />
    <glyph glyph-name="underscore" unicode="_" horiz-adv-x="668" 
d="M22 -1v57h624v-57h-624z" />
    <glyph glyph-name="grave" unicode="`" horiz-adv-x="228" 
d="M22 664h72l112 -133h-51z" />
    <glyph glyph-name="a" unicode="a" horiz-adv-x="519" 
d="M62 511q112 30 251 30q66 0 108.5 -38t42.5 -116v-387h-42l-15 64q-1 0 -16 -7t-39.5 -17.5t-53.5 -20.5q-68 -25 -122.5 -25t-92.5 35t-38 97v61q0 84 62 117q30 16 71 16h171.5h57.5v50v17q0 99 -103 99q-83 0 -242 -16v41zM102 131q0 -42 21 -61q22 -19 50 -19
t59.5 5.5t60.5 13.5q61 16 98 29l16 6v172l-229 -14q-76 -5 -76 -80v-52z" />
    <glyph glyph-name="b" unicode="b" horiz-adv-x="553" 
d="M67 0v785h55v-286q45 18 102.5 29t94.5 11t66 -10.5t48 -31t32 -45.5t20 -57q13 -60 13 -116t-4.5 -91.5t-17 -72t-32 -62.5t-51.5 -42.5t-76 -16.5t-107 23t-87 42l-16 -59h-40zM319 51q56 0 89 53.5t33 158.5q0 129 -35 176q-31 43 -87 43q-91 0 -196 -27v-355
q111 -49 196 -49z" />
    <glyph glyph-name="c" unicode="c" horiz-adv-x="500" 
d="M56 266q0 68 9 117t23 78.5t37.5 46.5t47.5 22.5t58 5.5q86 0 218 -26v-40q-129 9 -182 9t-65 -1.5t-25 -7t-22 -14.5t-17.5 -25t-13.5 -39q-11 -50 -11 -131.5t14 -128.5t38.5 -63.5t65.5 -16.5q82 0 189 11l36 3v-42q-97 -27 -225 -29q-105 0 -142 75q-33 65 -33 196z
" />
    <glyph glyph-name="d" unicode="d" horiz-adv-x="553" 
d="M60.5 187.5q-4.5 35.5 -4.5 78t4 79t15.5 74t30.5 62.5q43 58 128 58q37 0 94.5 -11t102.5 -29v286h55v-785h-39l-17 59q-23 -19 -86.5 -42t-107.5 -23t-76 16.5t-51.5 42.5t-31.5 62.5t-16.5 72zM145.5 103.5q32.5 -52.5 88.5 -52.5q85 0 196 49v355q-105 27 -196 27
q-72 0 -99 -65q-22 -52 -22 -156.5t32.5 -157z" />
    <glyph glyph-name="e" unicode="e" horiz-adv-x="525" 
d="M71.5 105.5q-15.5 57.5 -15.5 139.5t5 124.5t17.5 72.5t28.5 48t43 28q45 17 128 17q97 0 132 -19q38 -20 52 -55q19 -44 19 -98.5t-15 -79.5q-30 -49 -122 -49h-231q0 -140 51 -168q23 -14 67 -14q148 0 240 13v-42q-99 -28 -235 -28q-73 0 -111 26.5t-53.5 84zM113 290
h231q39 0 59.5 12.5t20.5 51.5t-6.5 64.5t-25.5 39t-43 17t-64.5 3.5t-61 -1.5t-41.5 -8t-32 -18.5t-21 -33q-16 -36 -16 -127z" />
    <glyph glyph-name="f" unicode="f" horiz-adv-x="394" 
d="M22 474v42l94 15v99q0 82 25 117q12 16 34 27.5t54 11.5q78 0 143 -20v-36h-129h-12.5t-26 -6.5t-21.5 -21.5q-10 -25 -10 -72v-99h158v-57h-158v-474h-57v474h-94z" />
    <glyph glyph-name="g" unicode="g" horiz-adv-x="560" 
d="M53 117q0 27 18 50t50 28q-68 36 -68 149q0 189 173 189h312v-42l-91 -15q0 -1 6 -8.5t8 -11t7.5 -12.5t8 -17.5t5.5 -21.5q6 -22 6 -52t-3.5 -51.5t-14 -48.5t-27.5 -47.5t-48 -34.5t-72 -14h-156q-28 0 -42.5 -11.5t-14.5 -30t16.5 -29t37.5 -10.5h211q64 0 99 -36.5
t35 -99.5v-59q0 -64 -26 -98q-26 -35 -59 -44t-65 -9h-150q-99 0 -138 69q-21 35 -21 85v88l31 79q-28 21 -28 66zM165 20q-34 0 -57 15v-151q0 -61 37 -81q30 -16 64 -16h150q93 0 93 94v56q0 41 -18.5 62t-67.5 21h-201zM135 440q-25 -36 -25 -94.5t26.5 -95t82.5 -36.5
h99q87 0 108 86q5 19 5 40q0 136 -99 136h-109q-63 0 -88 -36z" />
    <glyph glyph-name="h" unicode="h" 
d="M124 784v-315q38 23 63 35q69 36 130 36t99 -24q75 -48 75 -146v-370h-57v370q0 53 -29 83t-73.5 30t-78.5 -7.5t-59 -18t-70 -32.5v-425h-57v784h57z" />
    <glyph glyph-name="i" unicode="i" horiz-adv-x="187" 
d="M56 619v56q0 21 20 21h37q19 0 19 -21v-56q0 -20 -19 -20h-37q-12 0 -16 7t-4 13zM64 0v531h57v-531h-57z" />
    <glyph glyph-name="j" unicode="j" horiz-adv-x="210" 
d="M67 619v56q0 21 20 21h37q19 0 19 -21v-56q0 -20 -19 -20h-37q-12 0 -16 7t-4 13zM76 -270v801h57v-535q1 -14 1 -28q0 -153 -21 -238h-37z" />
    <glyph glyph-name="k" unicode="k" horiz-adv-x="499" 
d="M67 0v782h57v-448h47l225 197h81l-252 -226l252 -305h-73l-233 276h-47v-276h-57z" />
    <glyph glyph-name="l" unicode="l" horiz-adv-x="299" 
d="M67 189v594h57v-594q0 -79 23 -105q18 -21 46 -27q77 -18 84 -18v-39h-81q-129 0 -129 189z" />
    <glyph glyph-name="m" unicode="m" horiz-adv-x="909" 
d="M247 526.5q38 11.5 81.5 11.5t82.5 -21.5t57 -57.5q42 34 101.5 56.5t125.5 22.5t112 -48.5t46 -122.5v-367h-57v367q0 50 -29.5 82t-73.5 32t-79 -7q-64 -12 -132 -54q5 -13 5 -51v-369h-57v367q0 50 -30 82t-73.5 32t-76.5 -7.5t-57 -17.5t-69 -33v-423h-57v531h39
l18 -63q39 23 62 35t61 23.5z" />
    <glyph glyph-name="n" unicode="n" 
d="M250.5 528.5q38.5 11.5 83 11.5t82.5 -24q75 -48 75 -146v-370h-57v370q0 52 -29.5 82.5t-73.5 30.5t-78 -7.5t-59 -18t-70 -32.5v-425h-57v531h39l18 -62q38 23 63 35.5t63.5 24z" />
    <glyph glyph-name="o" unicode="o" horiz-adv-x="569" 
d="M66.5 136q-10.5 48 -10.5 139.5t22.5 151.5t71 84.5t135.5 24.5q130 0 179.5 -61.5t49.5 -213t-49.5 -209t-179.5 -57.5q-68 0 -111.5 14t-70 46.5t-37 80.5zM117.5 345.5q-4.5 -36.5 -4.5 -79.5t2.5 -71t8.5 -49t13.5 -36t19.5 -25.5t24 -17t30 -9.5q30 -6 67.5 -6
t59 2.5t42.5 10t34 21.5t23 37q20 42 20 113.5t-4.5 107t-14.5 60t-22.5 39.5t-34 23t-43 10.5t-54 2.5t-53 -2t-42 -9.5t-34 -22t-23 -39t-15 -61z" />
    <glyph glyph-name="p" unicode="p" horiz-adv-x="553" 
d="M324.5 537q36.5 0 68.5 -16.5t51.5 -42.5t31.5 -63q22 -63 22 -127.5t-4 -101t-16 -74t-31 -62.5q-43 -58 -128 -58q-53 0 -109.5 14t-87.5 26v-301h-55v800h40l16 -59q36 29 100.5 47t101 18zM319 49q56 0 87 43q35 47 35 164t-33 170.5t-89 53.5q-85 0 -196 -49v-355
q105 -27 196 -27z" />
    <glyph glyph-name="q" unicode="q" horiz-adv-x="556" 
d="M102 467q46 70 138 70q90 0 167 -9.5t82 -9.5v-788h-57v299q-45 -18 -100 -28.5t-96 -10.5t-74 14t-53 38t-32 60q-21 63 -21 179t46 186zM113 268q0 -131 32 -176q31 -45 90 -45t96 5.5t101 21.5v406h-192q-127 0 -127 -212z" />
    <glyph glyph-name="r" unicode="r" horiz-adv-x="425" 
d="M67 0v531h39l18 -67q2 1 18 10t19.5 11l17.5 10t19.5 10t19 8.5t21 8.5t20 6t22.5 5q29 4 66 4t56 -8v-56q-28 6 -57 6t-41 -1t-21 -1.5t-21.5 -4t-18.5 -4t-20 -6t-18 -7t-20 -8.5t-18.5 -8.5t-21.5 -10.5t-22 -10v-418h-57z" />
    <glyph glyph-name="s" unicode="s" horiz-adv-x="505" 
d="M45 360v46q0 64 31.5 97t106.5 33q37 0 123 -5t128 -9v-42h-251q-50 0 -65.5 -17.5t-15.5 -56.5v-46q0 -48 22 -59q19 -8 59 -8h148q61 0 95.5 -33.5t34.5 -90.5v-49q0 -79 -42 -104q-35 -21 -78.5 -21t-142 6t-131.5 10v41h264q38 0 48 10q25 21 25 58v49q0 67 -73 67
h-148q-75 0 -106.5 25t-31.5 99z" />
    <glyph glyph-name="t" unicode="t" horiz-adv-x="368" 
d="M22 475v42l94 15l15 148h42v-148h162v-57h-162v-286q0 -79 23 -105q18 -21 46 -27q77 -17 84 -17v-40h-81q-129 0 -129 189v286h-94z" />
    <glyph glyph-name="u" unicode="u" 
d="M113 531v-370q0 -52 29.5 -82.5t77.5 -30.5q60 0 95 12q48 17 108 47v424h57v-531h-39l-18 62q-38 -22 -63 -35q-69 -36 -142.5 -36t-117.5 50t-44 120v370h57z" />
    <glyph glyph-name="v" unicode="v" horiz-adv-x="530" 
d="M22 531h62l180 -448l183 448h61l-216 -531h-58z" />
    <glyph glyph-name="w" unicode="w" horiz-adv-x="793" 
d="M22 531h63l170 -448l155 448h62l-61 -180l123 -268l175 448h62l-206 -531h-58l-124 275l-97 -275h-62z" />
    <glyph glyph-name="x" unicode="x" horiz-adv-x="509" 
d="M27 0l192 266l-192 265h71l155 -217l158 217h71l-193 -267l188 -264h-66l-156 216l-157 -216h-71z" />
    <glyph glyph-name="y" unicode="y" horiz-adv-x="545" 
d="M286 58q3 0 13 1l159 472h63l-234 -699l-65 -102h-34l91 270q-86 1 -119 110l-137 421h63l135 -415q20 -58 65 -58z" />
    <glyph glyph-name="z" unicode="z" horiz-adv-x="462" 
d="M429 531v-57l-306 -416h306v-57h-380v57l309 416h-325v57h396z" />
    <glyph glyph-name="braceleft" unicode="{" horiz-adv-x="314" 
d="M168 -38q0 -115 116 -115h8v-57q-98 0 -146 57q-35 40 -35 115v285q0 31 -25.5 45.5t-54.5 14.5h-9v53q53 5 65 14q25 19 25 46v236q0 76 40 129q44 57 140 57v-57q-91 0 -114 -66q-9 -26 -9 -63v-236q0 -35 -23 -57.5t-60 -28.5q35 -5 58.5 -28.5t23.5 -54.5v-289z" />
    <glyph glyph-name="bar" unicode="|" horiz-adv-x="248" 
d="M96 -72v842h57v-842h-57z" />
    <glyph glyph-name="braceright" unicode="}" horiz-adv-x="314" 
d="M30 -153q116 0 116 115v289q0 31 23.5 54.5t58.5 28.5q-36 6 -59.5 28.5t-23.5 57.5v236q0 71 -32 100t-91 29v57q135 0 170 -116q10 -32 10 -70v-236q0 -50 67 -58q7 0 23 -2v-53h-9q-28 0 -54 -14.5t-26 -45.5v-285q0 -66 -34 -115q-40 -57 -147 -57v57h8z" />
    <glyph glyph-name="asciitilde" unicode="~" horiz-adv-x="449" 
d="M146.5 634q11.5 3 28 3t53 -24t51 -24t25.5 2.5t22.5 8.5t17.5 9.5t18.5 12.5t15.5 11l16 -30l-14.5 -14.5t-17 -16l-16.5 -13.5t-20 -13q-23 -12 -45 -12t-59 24t-54.5 24t-31.5 -5t-34.5 -17.5t-30.5 -17.5l-15 30q6 5 18 15.5t18 16t16.5 13t18.5 11t19.5 6.5z" />
    <glyph glyph-name="exclamdown" unicode="&#xa1;" horiz-adv-x="268" 
d="M93 386v56q0 18 20 19h36q8 -1 14 -6.5t6 -14.5v-54q-2 -22 -19 -22h-37q-20 0 -20 22zM99 -270l5 533h54l7 -533h-66z" />
    <glyph glyph-name="cent" unicode="&#xa2;" horiz-adv-x="489" 
d="M54 144.5q-9 50.5 -9 121t9 120.5t24 80q29 56 93 67q22 5 40 5t25 -1v92h46v-95q78 -8 156 -24v-40q-129 10 -185.5 10t-72.5 -3.5t-32 -16t-25 -35.5q-21 -53 -21 -149.5t14 -144t38.5 -64t65.5 -16.5q82 0 189 10l36 4v-42q-78 -23 -163 -27v-87h-46v85h-21.5
t-43.5 4.5t-51 20.5t-41.5 45.5t-24.5 80z" />
    <glyph glyph-name="sterling" unicode="&#xa3;" horiz-adv-x="597" 
d="M56 0v44l72 13v280h-72v34l72 14v120q0 82 13.5 115.5t24 50.5t27.5 28t33 17.5t39 10.5q39 5 78 5q64 0 165 -10l34 -4v-42h-184q-108 0 -134 -25q-29 -27 -35 -77q-4 -28 -4 -69v-120l278 -14v-34h-278v-280h356v-57h-485z" />
    <glyph glyph-name="currency" unicode="&#xa4;" horiz-adv-x="461" 
d="M129 440q43 34 99.5 34t100.5 -35l47 46l27 -30l-46 -46q31 -41 31 -96t-32 -99l48 -48l-32 -28l-44 45q-44 -37 -100 -37t-98 36l-45 -44l-27 31l43 42q-33 45 -33 101.5t33 99.5l-44 45l30 27zM144.5 396.5q-34.5 -34.5 -34.5 -75.5t15 -69.5t42.5 -45.5t60 -17t60 17
t43 45.5t15.5 61.5t-16 60t-43 42.5t-67.5 15.5t-75 -34.5z" />
    <glyph glyph-name="yen" unicode="&#xa5;" horiz-adv-x="594" 
d="M506 321v-44h-190v-65h190v-44h-190v-168h-57v168h-180v44h180v65h-180v44h179l-236 411h64l201 -354l220 354h65l-255 -411h189z" />
    <glyph glyph-name="brokenbar" unicode="&#xa6;" horiz-adv-x="249" 
d="M96 -72v328h57v-328h-57zM96 429v341h57v-341h-57z" />
    <glyph glyph-name="section" unicode="&#xa7;" horiz-adv-x="554" 
d="M61 590v70q0 96 83 118q22 6 51.5 6t128 -6t131.5 -10v-41h-264q-37 0 -54.5 -16t-18.5 -51v-70q0 -32 19 -44t54 -12h169q80 0 107 -28.5t26 -89.5v-62q0 -83 -45 -89q30 -5 38 -32q6 -21 6 -50v-73q0 -86 -62 -108q-30 -10 -69.5 -10t-134 6t-128.5 10v41h256
q40 0 60.5 12.5t20.5 48.5v73q0 24 -6.5 35.5t-21.5 15.5t-47 4h-169q-63 0 -87.5 15.5t-33 39t-8.5 60.5v62q0 40 10.5 63t37.5 30q-49 12 -49 82zM118 353q0 -39 15 -48.5t58 -9.5h169q64 0 72 24q3 11 3 35v62q0 36 -13.5 49t-61.5 13h-169q-43 0 -58 -11t-15 -53v-61z
" />
    <glyph glyph-name="dieresis" unicode="&#xa8;" horiz-adv-x="445" 
d="M67.5 554q-11.5 12 -11.5 25.5t5 22.5q12 19 31.5 19t30.5 -11.5t11 -25t-5 -22.5q-11 -20 -30.5 -20t-31 12zM311 582q0 16 11.5 27.5t28 11.5t27.5 -11.5t11 -28t-11 -28t-27.5 -11.5t-28 12t-11.5 28z" />
    <glyph glyph-name="copyright" unicode="&#xa9;" horiz-adv-x="829" 
d="M67.5 278q-6.5 46 -6.5 95t5.5 96t21.5 97t40.5 85.5t67 58t97.5 22.5h265q210 0 210 -364q0 -194 -71 -294q-51 -74 -139 -74h-265q-52 0 -94 25.5t-67 65t-41.5 90.5t-23 97zM108 365q0 -117 44 -212q22 -48 58.5 -77t82.5 -29h265q71 1 117 84t46 237q0 317 -163 317
h-265q-185 0 -185 -320zM248 257q-11 44 -11 105.5t11 104.5t31 68q39 48 99 48t181 -22v-37q-84 12 -178 12q-97 0 -97 -174q0 -53 8 -88t30.5 -57.5t58.5 -22.5q96 0 184 16v-37q-91 -26 -184 -26q-105 0 -133 110z" />
    <glyph glyph-name="ordfeminine" unicode="&#xaa;" horiz-adv-x="362" 
d="M33 276v43h296v-43h-296zM33 463v46q0 56 47 79q23 11 53 11h111h37v24v8q0 64 -77 64q-46 0 -159 -10v31q9 2 35.5 7.5t40.5 7.5q46 8 94 8t80 -25.5t32 -77.5v-258h-30l-15 49q-1 0 -10.5 -5.5t-25.5 -13t-34 -15.5q-45 -19 -82.5 -19t-67 23.5t-29.5 65.5zM80 473
q0 -53 59 -53q27 0 62.5 9.5t57.5 18.5l22 10v108l-142 -8q-59 -4 -59 -55v-30z" />
    <glyph glyph-name="guillemotleft" unicode="&#xab;" horiz-adv-x="548" 
d="M56 354l205 203l41 -40l-166 -163l171 -168l-40 -40zM241 354l206 203l40 -40l-166 -163l172 -168l-41 -40z" />
    <glyph glyph-name="logicalnot" unicode="&#xac;" horiz-adv-x="528" 
d="M56 264v58h417v-163h-57v105h-360z" />
    <glyph glyph-name="uni00AD" unicode="&#xad;" horiz-adv-x="358" 
d="M22 262v56h314v-56h-314z" />
    <glyph glyph-name="registered" unicode="&#xae;" horiz-adv-x="829" 
d="M67.5 278q-6.5 46 -6.5 95t5.5 96t21.5 97t40.5 85.5t67 58t97.5 22.5h265q210 0 210 -364q0 -194 -71 -294q-51 -74 -139 -74h-265q-52 0 -94 25.5t-67 65t-41.5 90.5t-23 97zM108 365q0 -117 44 -212q22 -48 58.5 -77t82.5 -29h265q71 1 117 84t46 237q0 317 -163 317
h-265q-185 0 -185 -320zM446 580q94 0 120 -63q11 -26 11 -53.5t-2.5 -42t-5 -25.5t-8.5 -20l-10 -15t-12.5 -11t-12.5 -8t-14 -5.5t-12.5 -3t-13 -2t-10.5 -2.5l97 -176h-53l-98 177l-106 10v-187h-47v427h177zM316 372h136q45 0 61.5 16t16.5 64t-21 64.5t-57 16.5h-136
v-161z" />
    <glyph glyph-name="macron" unicode="&#xaf;" horiz-adv-x="390" 
d="M56 531v47h279v-47h-279z" />
    <glyph glyph-name="degree" unicode="&#xb0;" horiz-adv-x="314" 
d="M56 632q0 28 14 51.5t37.5 37.5t51 14t50.5 -14t36.5 -37.5t13.5 -59t-29.5 -65t-64 -29.5t-58 13.5t-37.5 37t-14 51.5zM92 632q0 -27 19.5 -46t46.5 -19t46 19t19 46t-19 46.5t-46 19.5t-46.5 -19.5t-19.5 -46.5z" />
    <glyph glyph-name="plusminus" unicode="&#xb1;" horiz-adv-x="529" 
d="M63 104v57h406v-57h-406zM63 395v57h174v175h57v-175h175v-57h-175v-174h-57v174h-174z" />
    <glyph glyph-name="twosuperior" unicode="&#xb2;" horiz-adv-x="395" 
d="M35 824q-1 0 -1 18t1 17q102 12 183 12q130 0 130 -136q0 -118 -216 -293q-5 -4 -7 -6h222v-47h-309v43q8 6 35.5 27.5t46.5 37t48.5 41t49.5 47.5t40 48q41 52 41 99t-19.5 69.5t-70.5 22.5h-174z" />
    <glyph glyph-name="threesuperior" unicode="&#xb3;" horiz-adv-x="416" 
d="M33 851q48 15 156 15h40q61 0 91 -32.5t30 -82.5v-35q0 -34 -19.5 -58t-41.5 -31q61 -30 61 -95v-28q0 -89 -65 -111q-25 -8 -63 -8h-53.5t-44.5 2q-49 2 -87 14l1 30l177 1q48 0 67.5 17t19.5 59v23q0 38 -24 56.5t-59 19.5l-142 5v34l142 6q39 2 62 20.5t23 50.5v26
q0 71 -82 71h-189v31z" />
    <glyph glyph-name="acute" unicode="&#xb4;" horiz-adv-x="228" 
d="M22 531l112 133h72l-133 -133h-51z" />
    <glyph glyph-name="uni00B5" unicode="&#xb5;" horiz-adv-x="602" 
d="M158 531v-370q0 -52 29 -82.5t82 -30.5t93 13t106 46v424h57v-531h-39l-18 62q-91 -54 -147 -65q-27 -6 -56 -6q-66 0 -107 43v-304h-57v431v370h57z" />
    <glyph glyph-name="paragraph" unicode="&#xb6;" horiz-adv-x="577" 
d="M45 499v93q0 67 46.5 103.5t109.5 36.5h355v-59h-69v-673h-57v675h-118v-945h-57v640l-5 -3t-9 -4.5t-10 -3.5q-14 -5 -30 -4q-74 0 -115 41t-41 103zM102 501q0 -27 11 -46.5t28 -27.5q31 -15 60 -15h54v263h-54q-34 0 -57 -13q-42 -24 -42 -72v-89z" />
    <glyph glyph-name="periodcentered" unicode="&#xb7;" horiz-adv-x="269" 
d="M95 361v42q0 21 20 21h39q20 0 20 -21v-42q0 -19 -20 -19h-39q-14 0 -18 12q-2 3 -2 7z" />
    <glyph glyph-name="cedilla" unicode="&#xb8;" horiz-adv-x="257" 
d="M201 -37q0 -76 -20 -106q-21 -30 -81 -30h-44v27l46 11q27 8 38 30t11 68h50z" />
    <glyph glyph-name="onesuperior" unicode="&#xb9;" horiz-adv-x="265" 
d="M193 865v-476h-47v424l-128 -38v35l128 55h47z" />
    <glyph glyph-name="ordmasculine" unicode="&#xba;" horiz-adv-x="386" 
d="M67 412.5q-34 39.5 -34 142.5t33.5 142.5t128 39.5t126.5 -39.5t32 -143t-33 -142.5t-126 -39t-127 39.5zM45 278v42h298v-42h-298zM85.5 627.5q-5.5 -28.5 -5.5 -74.5t6 -72.5t22 -40t35 -17.5t52 -4t51 3.5t33.5 16.5t21.5 39q6 29 6 75.5t-5 73.5t-20.5 41t-34 18.5
t-53.5 4.5t-53 -3.5t-34 -17.5t-21.5 -42.5z" />
    <glyph glyph-name="guillemotright" unicode="&#xbb;" horiz-adv-x="548" 
d="M56 186l172 168l-167 163l40 40l206 -203l-210 -208zM241 186l172 168l-166 163l40 40l206 -203l-211 -208z" />
    <glyph glyph-name="onequarter" unicode="&#xbc;" horiz-adv-x="893" 
d="M193 732v-476h-47v424l-128 -38v35l128 55h47zM217 0l361 745h49l-361 -745h-49zM765 185v121l21 48h26v-169h59v-37l-59 -13v-135h-47v135h-258l-16 20l202 319h54l-182 -289h200z" />
    <glyph glyph-name="onehalf" unicode="&#xbd;" horiz-adv-x="963" 
d="M193 732v-476h-47v424l-128 -38v35l128 55h47zM210 0l360 745h49l-360 -745h-49zM605 435q-1 0 -1 18t1 17q102 12 183 12q130 0 130 -136q0 -117 -216 -293q-5 -4 -7 -6h222v-47h-309v43q5 4 42 33t57 45.5t55.5 49.5t55.5 58q51 66 51 113.5t-19.5 70t-70.5 22.5h-174z
" />
    <glyph glyph-name="threequarters" unicode="&#xbe;" horiz-adv-x="1012" 
d="M229 733q61 0 91 -32.5t30 -82.5v-35q0 -34 -19.5 -58t-41.5 -31q61 -30 61 -95v-28q0 -89 -65 -111q-25 -8 -63 -8h-53.5t-44.5 2q-49 2 -87 14l1 30l177 1q48 0 67.5 17t19.5 59v23q0 38 -24 56.5t-59 19.5l-142 5v34l142 6q39 2 62 20.5t23 50.5v26q0 71 -82 71h-189
v31q20 6 34.5 8t22.5 3.5t22 2t21 1t23.5 0.5h22.5h25.5h24.5zM323 0l361 745h49l-361 -745h-49zM851 183v123l20 48h25v-171h59v-35l-59 -12v-136h-45v136h-260l-16 19l202 319h51l-182 -291h205z" />
    <glyph glyph-name="questiondown" unicode="&#xbf;" horiz-adv-x="538" 
d="M517 -210q-2 0 -1.5 -20t-0.5 -21q-138 -18 -238 -18q-17 0 -26.5 0.5t-11.5 0.5q-115 0 -157 57q-38 51 -38 130v102q-1 90 66 130q48 28 122 28q29 0 62 -4v101h60l1 -148h-76.5h-54.5q-51 -1 -81.5 -31t-32.5 -81q-1 -87 -1 -101q0 -59 33.5 -92.5t102.5 -33.5h6z
M362 451v-56q-2 -20 -18 -21h-41q-16 4 -17 21v54q0 9 5.5 15t13.5 7h37q20 -1 20 -20z" />
    <glyph glyph-name="Agrave" unicode="&#xc0;" horiz-adv-x="666" 
d="M193 930h72l111 -133h-50zM50 0l271 732h61l258 -732h-67l-72 221h-306l-76 -221h-69zM216 278h265l-130 371z" />
    <glyph glyph-name="Aacute" unicode="&#xc1;" horiz-adv-x="666" 
d="M326 797l112 133h71l-133 -133h-50zM50 0l271 732h61l258 -732h-67l-72 221h-306l-76 -221h-69zM216 278h265l-130 371z" />
    <glyph glyph-name="Acircumflex" unicode="&#xc2;" horiz-adv-x="666" 
d="M209 797l122 130h53l110 -130h-53l-85 86l-94 -86h-53zM50 0l271 732h61l258 -732h-67l-72 221h-306l-76 -221h-69zM216 278h265l-130 371z" />
    <glyph glyph-name="Atilde" unicode="&#xc3;" horiz-adv-x="666" 
d="M444 805q-42 -20 -98 17q-35 23 -52 23t-32 -5.5t-34.5 -17.5t-29.5 -17l-16 30q47 39 62 47q31 15 51.5 14.5t42.5 -12.5t41 -23.5t28 -11.5t15.5 1t14 4t13 5t14.5 7.5t13 8t14 8.5t13 7l16 -30q-2 -2 -13.5 -11.5t-16 -13t-14.5 -11.5q-12 -9 -32 -19zM50 0l271 732
h61l258 -732h-67l-72 221h-306l-76 -221h-69zM216 278h265l-130 371z" />
    <glyph glyph-name="Adieresis" unicode="&#xc4;" horiz-adv-x="666" 
d="M185 836.5q0 16.5 11.5 28t28 11.5t27.5 -11.5t11 -25t-5 -22.5q-11 -20 -30.5 -20t-31 11.5t-11.5 28zM451 808.5q-12 11.5 -12 25.5t6 22q11 20 31 20t31 -11.5t11 -28t-11.5 -28t-27.5 -11.5t-28 11.5zM50 0l271 732h61l258 -732h-67l-72 221h-306l-76 -221h-69z
M216 278h265l-130 371z" />
    <glyph glyph-name="Aring" unicode="&#xc5;" horiz-adv-x="666" 
d="M263.5 780.5q13.5 -23.5 37 -37t58.5 -13.5t64.5 29.5t29.5 65t-13.5 59.5t-36.5 37.5t-58 13.5t-65 -30t-30 -65.5t13.5 -59zM286 832q0 27 19.5 46.5t46.5 19.5t46 -19.5t19 -46.5t-19 -46t-46 -19t-46.5 19t-19.5 46zM50 0l271 732h61l258 -732h-67l-72 221h-306
l-76 -221h-69zM216 278h265l-130 371z" />
    <glyph glyph-name="AE" unicode="&#xc6;" horiz-adv-x="925" 
d="M552 732h24l302 -14v-44h-302q-48 0 -59 -19q-8 -15 -8.5 -33.5t-0.5 -21.5v-210l330 -9v-43l-330 -9v-207q0 -34 9.5 -44t15.5 -14t17 -6q16 -2 37 -2l290 -1v-45l-290 -14q-7 -1 -20 -1t-32 3.5t-40 15.5q-44 26 -44 107v115h-226l-128 -236h-64l325 599q37 70 79 103
q39 30 115 30zM451 293v361l-196 -361h196z" />
    <glyph glyph-name="Ccedilla" unicode="&#xc7;" horiz-adv-x="575" 
d="M361 -36q0 -78 -20.5 -107t-80.5 -29h-44v27l46 11q28 8 39 30t10 68h50zM61 368q0 230 72 309q58 63 172 63q39 0 110.5 -7.5t123.5 -17.5v-43l-8.5 0.5t-22.5 1.5t-32.5 2t-40.5 2.5t-43 2.5q-49 2 -87 2q-69 0 -108 -26q-79 -52 -79 -291q0 -315 187 -315q99 0 220 8
l14 1v-44q-50 -9 -121 -15.5t-113 -6.5q-244 0 -244 374z" />
    <glyph glyph-name="Egrave" unicode="&#xc8;" horiz-adv-x="572" 
d="M184 925h72l111 -133h-50zM90 123v479q0 69 34.5 99.5t83.5 30.5h8l309 -14v-43h-309q-39 0 -54 -18.5t-15 -54.5v-209l338 -8v-44l-338 -8v-210q0 -47 26 -60q20 -9 53 -9h299v-42l-299 -15h-21t-32 3.5t-40 15.5q-43 26 -43 107z" />
    <glyph glyph-name="Eacute" unicode="&#xc9;" horiz-adv-x="572" 
d="M302 792l112 133h72l-133 -133h-51zM90 123v479q0 69 34.5 99.5t83.5 30.5h8l309 -14v-43h-309q-39 0 -54 -18.5t-15 -54.5v-209l338 -8v-44l-338 -8v-210q0 -47 26 -60q20 -9 53 -9h299v-42l-299 -15h-21t-32 3.5t-40 15.5q-43 26 -43 107z" />
    <glyph glyph-name="Ecircumflex" unicode="&#xca;" horiz-adv-x="572" 
d="M180 797l122 130h54l109 -130h-53l-85 86l-93 -86h-54zM90 123v479q0 69 34.5 99.5t83.5 30.5h8l309 -14v-43h-309q-39 0 -54 -18.5t-15 -54.5v-209l338 -8v-44l-338 -8v-210q0 -47 26 -60q20 -9 53 -9h299v-42l-299 -15h-21t-32 3.5t-40 15.5q-43 26 -43 107z" />
    <glyph glyph-name="Edieresis" unicode="&#xcb;" horiz-adv-x="572" 
d="M164.5 815q-11.5 12 -11.5 25.5t5 22.5q11 19 30.5 19t31 -11.5t11.5 -28t-11.5 -28t-27.5 -11.5t-27.5 12zM407 843q0 16 12 27.5t28 11.5t27.5 -11.5t11.5 -28t-11.5 -28t-27.5 -11.5t-28 12t-12 28zM90 123v479q0 69 34.5 99.5t83.5 30.5h8l309 -14v-43h-309
q-39 0 -54 -18.5t-15 -54.5v-209l338 -8v-44l-338 -8v-210q0 -47 26 -60q20 -9 53 -9h299v-42l-299 -15h-21t-32 3.5t-40 15.5q-43 26 -43 107z" />
    <glyph glyph-name="Igrave" unicode="&#xcc;" horiz-adv-x="209" 
d="M-40 930h71l112 -133h-50zM90 0v732h57v-732h-57z" />
    <glyph glyph-name="Iacute" unicode="&#xcd;" horiz-adv-x="209" 
d="M93 797l112 133h71l-133 -133h-50zM90 0v732h57v-732h-57z" />
    <glyph glyph-name="Icircumflex" unicode="&#xce;" horiz-adv-x="209" 
d="M-25 797l123 130h53l110 -130h-53l-85 86l-94 -86h-54zM90 0v732h57v-732h-57z" />
    <glyph glyph-name="Idieresis" unicode="&#xcf;" horiz-adv-x="209" 
d="M-49 836.5q0 16.5 11.5 28t28 11.5t28 -11.5t11.5 -28t-11.5 -28t-28 -11.5t-28 11.5t-11.5 28zM206 836.5q0 16.5 11.5 28t28 11.5t28 -11.5t11.5 -28t-11.5 -28t-28 -11.5t-28 11.5t-11.5 28zM90 0v732h57v-732h-57z" />
    <glyph glyph-name="Eth" unicode="&#xd0;" horiz-adv-x="661" 
d="M25 353v40h65v338q0 1 262 1q132 0 197 -98q62 -96 62 -271q0 -86 -24.5 -168t-82.5 -138q-59 -57 -152 -57h-262v353h-65zM552 364q0 158 -52 233t-148 75l-205 -1v-278h145v-40h-145v-294h205q52 0 92 26t63 70q45 88 45 209z" />
    <glyph glyph-name="Ntilde" unicode="&#xd1;" horiz-adv-x="674" 
d="M365 810q-21 12 -38.5 23.5t-24.5 11.5h-14.5t-21 -4t-22 -9t-23 -13.5t-24.5 -13.5l-15 30q25 21 39 31q40 31 70 30t67.5 -24t47 -23t16 1t14 4t13.5 5t15 7.5t13 8t14 8.5t12 7l17 -30q-3 -2 -14 -11.5t-15.5 -13t-15 -11.5t-17 -11.5t-15.5 -7.5q-37 -18 -78 5zM90 0
v732h58l407 -625v625h57v-732h-57l-408 625v-625h-57z" />
    <glyph glyph-name="Ograve" unicode="&#xd2;" horiz-adv-x="675" 
d="M193 930h72l112 -133h-51zM73 362q0 71 7 127.5t18.5 96t31 67.5t40.5 44t52 25q51 15 111 15t89 -3t60 -12t51.5 -25t40 -44t30.5 -67q25 -87 25 -196t-8 -168t-25 -99t-38 -65.5t-55 -38.5q-57 -23 -152 -23q-135 0 -185 39q-51 39 -70 108q-23 84 -23 219zM136 493
q-6 -55 -6 -123t3.5 -111.5t11 -77t21 -55.5t29.5 -37t40 -22q44 -14 106 -14t95.5 6.5t61.5 25t43 53.5q31 72 31 223q0 157 -26 219q-9 24 -18.5 40.5t-25.5 27.5t-29.5 17.5t-35.5 9.5q-34 5 -81 5t-70 -2t-53 -11t-45 -29.5t-30.5 -55t-21.5 -89.5z" />
    <glyph glyph-name="Oacute" unicode="&#xd3;" horiz-adv-x="675" 
d="M326 797l112 133h72l-133 -133h-51zM73 362q0 71 7 127.5t18.5 96t31 67.5t40.5 44t52 25q51 15 111 15t89 -3t60 -12t51.5 -25t40 -44t30.5 -67q25 -87 25 -196t-8 -168t-25 -99t-38 -65.5t-55 -38.5q-57 -23 -152 -23q-135 0 -185 39q-51 39 -70 108q-23 84 -23 219z
M136 493q-6 -55 -6 -123t3.5 -111.5t11 -77t21 -55.5t29.5 -37t40 -22q44 -14 106 -14t95.5 6.5t61.5 25t43 53.5q31 72 31 223q0 157 -26 219q-9 24 -18.5 40.5t-25.5 27.5t-29.5 17.5t-35.5 9.5q-34 5 -81 5t-70 -2t-53 -11t-45 -29.5t-30.5 -55t-21.5 -89.5z" />
    <glyph glyph-name="Ocircumflex" unicode="&#xd4;" horiz-adv-x="675" 
d="M209 797l122 130h54l109 -130h-53l-85 86l-94 -86h-53zM73 362q0 71 7 127.5t18.5 96t31 67.5t40.5 44t52 25q51 15 111 15t89 -3t60 -12t51.5 -25t40 -44t30.5 -67q25 -87 25 -196t-8 -168t-25 -99t-38 -65.5t-55 -38.5q-57 -23 -152 -23q-135 0 -185 39q-51 39 -70 108
q-23 84 -23 219zM136 493q-6 -55 -6 -123t3.5 -111.5t11 -77t21 -55.5t29.5 -37t40 -22q44 -14 106 -14t95.5 6.5t61.5 25t43 53.5q31 72 31 223q0 157 -26 219q-9 24 -18.5 40.5t-25.5 27.5t-29.5 17.5t-35.5 9.5q-34 5 -81 5t-70 -2t-53 -11t-45 -29.5t-30.5 -55
t-21.5 -89.5z" />
    <glyph glyph-name="Otilde" unicode="&#xd5;" horiz-adv-x="675" 
d="M182 835q25 21 39 31q40 31 67.5 30.5t49.5 -12.5t41 -23.5t28 -11.5t15.5 1t14 4t13 5t14.5 7.5t13 8t14 8.5t13 7l16 -30q-2 -2 -13.5 -11.5t-16 -13t-14.5 -11.5t-16.5 -11.5t-15.5 -7.5q-47 -22 -98 17q-31 23 -50.5 23t-34 -5.5t-34 -17.5t-29.5 -17zM73 362
q0 71 7 127.5t18.5 96t31 67.5t40.5 44t52 25q51 15 111 15t89 -3t60 -12t51.5 -25t40 -44t30.5 -67q25 -87 25 -196t-8 -168t-25 -99t-38 -65.5t-55 -38.5q-57 -23 -152 -23q-135 0 -185 39q-51 39 -70 108q-23 84 -23 219zM136 493q-6 -55 -6 -123t3.5 -111.5t11 -77
t21 -55.5t29.5 -37t40 -22q44 -14 106 -14t95.5 6.5t61.5 25t43 53.5q31 72 31 223q0 157 -26 219q-9 24 -18.5 40.5t-25.5 27.5t-29.5 17.5t-35.5 9.5q-34 5 -81 5t-70 -2t-53 -11t-45 -29.5t-30.5 -55t-21.5 -89.5z" />
    <glyph glyph-name="Odieresis" unicode="&#xd6;" horiz-adv-x="675" 
d="M185 836.5q0 16.5 11.5 28t28 11.5t27.5 -11.5t11 -25t-5 -22.5q-11 -20 -30.5 -20t-31 11.5t-11.5 28zM451 808.5q-12 11.5 -12 25.5t6 22q11 20 31 20t31 -11.5t11 -28t-11 -28t-27.5 -11.5t-28.5 11.5zM73 362q0 71 7 127.5t18.5 96t31 67.5t40.5 44t52 25
q51 15 111 15t89 -3t60 -12t51.5 -25t40 -44t30.5 -67q25 -87 25 -196t-8 -168t-25 -99t-38 -65.5t-55 -38.5q-57 -23 -152 -23q-135 0 -185 39q-51 39 -70 108q-23 84 -23 219zM136 493q-6 -55 -6 -123t3.5 -111.5t11 -77t21 -55.5t29.5 -37t40 -22q44 -14 106 -14
t95.5 6.5t61.5 25t43 53.5q31 72 31 223q0 157 -26 219q-9 24 -18.5 40.5t-25.5 27.5t-29.5 17.5t-35.5 9.5q-34 5 -81 5t-70 -2t-53 -11t-45 -29.5t-30.5 -55t-21.5 -89.5z" />
    <glyph glyph-name="multiply" unicode="&#xd7;" horiz-adv-x="451" 
d="M63 233l123 122l-123 124l40 40l123 -123l124 123l40 -40l-124 -124l124 -122l-40 -41l-124 123l-122 -122z" />
    <glyph glyph-name="Oslash" unicode="&#xd8;" horiz-adv-x="675" 
d="M73 361q0 131 19 204q22 81 56 113q40 38 87 49q48 10 114.5 10t110.5 -8.5t76 -34.5l25 38h46l-43 -66q65 -83 65 -305q0 -162 -33 -238q-17 -40 -38.5 -65.5t-55.5 -38.5q-57 -23 -138 -23t-125.5 8.5t-76.5 33.5l-25 -38h-47l43 67q-60 79 -60 294zM168 122l337 523
q-25 22 -60 28.5t-86 6.5t-73.5 -2t-52.5 -11t-45 -29.5t-31 -55.5q-27 -61 -27 -228.5t38 -231.5zM194 90q44 -37 157 -37q51 0 85 6.5t62 25t43 53.5q31 72 31 239.5t-41 235.5z" />
    <glyph glyph-name="Ugrave" unicode="&#xd9;" horiz-adv-x="679" 
d="M195 930h71l112 -133h-50zM355 -5h-11q-118 0 -155 25q-17 12 -39 35.5t-33 57.5q-27 85 -27 207v412h57v-412q0 -169 43 -218q16 -19 29 -29q23 -18 82 -20q16 -1 49 -1h5q73 0 93.5 8t36 17.5t25 23t20 34t16.5 46.5q13 60 13 139v412h57v-412q0 -196 -65 -263
q-23 -24 -41.5 -36t-50.5 -18q-41 -8 -104 -8z" />
    <glyph glyph-name="Uacute" unicode="&#xda;" horiz-adv-x="679" 
d="M328 797l112 133h71l-133 -133h-50zM355 -5h-11q-118 0 -155 25q-17 12 -39 35.5t-33 57.5q-27 85 -27 207v412h57v-412q0 -169 43 -218q16 -19 29 -29q23 -18 82 -20q16 -1 49 -1h5q73 0 93.5 8t36 17.5t25 23t20 34t16.5 46.5q13 60 13 139v412h57v-412
q0 -196 -65 -263q-23 -24 -41.5 -36t-50.5 -18q-41 -8 -104 -8z" />
    <glyph glyph-name="Ucircumflex" unicode="&#xdb;" horiz-adv-x="679" 
d="M210 797l122 130h54l110 -130h-53l-85 86l-94 -86h-54zM355 -5h-11q-118 0 -155 25q-17 12 -39 35.5t-33 57.5q-27 85 -27 207v412h57v-412q0 -169 43 -218q16 -19 29 -29q23 -18 82 -20q16 -1 49 -1h5q73 0 93.5 8t36 17.5t25 23t20 34t16.5 46.5q13 60 13 139v412h57
v-412q0 -196 -65 -263q-23 -24 -41.5 -36t-50.5 -18q-41 -8 -104 -8z" />
    <glyph glyph-name="Udieresis" unicode="&#xdc;" horiz-adv-x="679" 
d="M186 836.5q0 16.5 11.5 28t28 11.5t28 -11.5t11.5 -28t-11.5 -28t-28 -11.5t-28 11.5t-11.5 28zM452.5 808.5q-11.5 11.5 -11.5 25.5t5 22q12 20 31.5 20t31 -11.5t11.5 -28t-11.5 -28t-28 -11.5t-28 11.5zM355 -5h-11q-118 0 -155 25q-17 12 -39 35.5t-33 57.5
q-27 85 -27 207v412h57v-412q0 -169 43 -218q16 -19 29 -29q23 -18 82 -20q16 -1 49 -1h5q73 0 93.5 8t36 17.5t25 23t20 34t16.5 46.5q13 60 13 139v412h57v-412q0 -196 -65 -263q-23 -24 -41.5 -36t-50.5 -18q-41 -8 -104 -8z" />
    <glyph glyph-name="Yacute" unicode="&#xdd;" horiz-adv-x="626" 
d="M300 797l112 133h71l-133 -133h-50zM344 0h-57v260l-237 472h63l202 -403l223 403h62l-256 -472v-260z" />
    <glyph glyph-name="Thorn" unicode="&#xde;" horiz-adv-x="555" 
d="M67 0v729h57v-141h204q176 -1 176 -213q0 -160 -83 -205q-38 -21 -93 -21h-21h-24.5t-24 0.5t-29.5 1.5t-30 3q-32 3 -75 11v-165h-57zM124 206h204h14.5t33 7t36.5 25q34 37 34 139q-1 110 -57 140q-26 13 -61 13h-204v-324z" />
    <glyph glyph-name="germandbls" unicode="&#xdf;" horiz-adv-x="568" 
d="M216 54l176 -5q45 0 71 24.5t27 58.5v47q0 44 -80 58q-33 6 -66 14.5t-56.5 32t-23.5 66t23 70t102 85.5q61 44 61 116q0 49 -44 74t-118.5 25t-119 -38.5t-44.5 -115.5v-566h-57v566q0 91 57.5 151t160.5 60q71 0 120 -18t71 -47q32 -41 32 -93q0 -53 -37 -109
q-21 -31 -48 -50q-13 -10 -34 -25.5t-29.5 -23t-19.5 -18.5q-19 -19 -19 -41.5t16.5 -34.5t42 -16.5t54.5 -12t54 -17.5t42 -33.5t17 -58.5v-47q1 -103 -102 -132q-27 -8 -53.5 -8t-54.5 2t-45 4.5t-44 6.5t-32 5v44z" />
    <glyph glyph-name="agrave" unicode="&#xe0;" horiz-adv-x="519" 
d="M110 734h71l112 -133h-50zM62 511q112 30 251 30q66 0 108.5 -38t42.5 -116v-387h-42l-15 64q-1 0 -16 -7t-39.5 -17.5t-53.5 -20.5q-68 -25 -122.5 -25t-92.5 35t-38 97v61q0 84 62 117q30 16 71 16h171.5h57.5v50v17q0 99 -103 99q-83 0 -242 -16v41zM102 131
q0 -42 21 -61q22 -19 50 -19t59.5 5.5t60.5 13.5q61 16 98 29l16 6v172l-229 -14q-76 -5 -76 -80v-52z" />
    <glyph glyph-name="aacute" unicode="&#xe1;" horiz-adv-x="519" 
d="M238 601l111 133h72l-133 -133h-50zM62 511q112 30 251 30q66 0 108.5 -38t42.5 -116v-387h-42l-15 64q-1 0 -16 -7t-39.5 -17.5t-53.5 -20.5q-68 -25 -122.5 -25t-92.5 35t-38 97v61q0 84 62 117q30 16 71 16h171.5h57.5v50v17q0 99 -103 99q-83 0 -242 -16v41zM102 131
q0 -42 21 -61q22 -19 50 -19t59.5 5.5t60.5 13.5q61 16 98 29l16 6v172l-229 -14q-76 -5 -76 -80v-52z" />
    <glyph glyph-name="acircumflex" unicode="&#xe2;" horiz-adv-x="519" 
d="M122 601l123 130h53l110 -130h-53l-85 86l-94 -86h-54zM62 511q112 30 251 30q66 0 108.5 -38t42.5 -116v-387h-42l-15 64q-1 0 -16 -7t-39.5 -17.5t-53.5 -20.5q-68 -25 -122.5 -25t-92.5 35t-38 97v61q0 84 62 117q30 16 71 16h171.5h57.5v50v17q0 99 -103 99
q-83 0 -242 -16v41zM102 131q0 -42 21 -61q22 -19 50 -19t59.5 5.5t60.5 13.5q61 16 98 29l16 6v172l-229 -14q-76 -5 -76 -80v-52z" />
    <glyph glyph-name="atilde" unicode="&#xe3;" horiz-adv-x="519" 
d="M352 612q-41 -20 -97 17q-35 23 -52 23t-32 -5t-35 -17.5t-30 -17.5l-15 30q25 21 39 31q40 31 70 30.5t68 -24t47 -23.5t15.5 1t14.5 4t13.5 5.5t14.5 7.5t13 7.5t14 8.5t12 8l17 -30q-3 -3 -14 -12.5t-15.5 -13t-14.5 -11.5q-12 -9 -33 -19zM62 511q112 30 251 30
q66 0 108.5 -38t42.5 -116v-387h-42l-15 64q-1 0 -16 -7t-39.5 -17.5t-53.5 -20.5q-68 -25 -122.5 -25t-92.5 35t-38 97v61q0 84 62 117q30 16 71 16h171.5h57.5v50v17q0 99 -103 99q-83 0 -242 -16v41zM102 131q0 -42 21 -61q22 -19 50 -19t59.5 5.5t60.5 13.5q61 16 98 29
l16 6v172l-229 -14q-76 -5 -76 -80v-52z" />
    <glyph glyph-name="adieresis" unicode="&#xe4;" horiz-adv-x="519" 
d="M97 652q0 16 11.5 27.5t28 11.5t27.5 -11.5t11 -27.5t-11 -28t-27.5 -12t-28 12t-11.5 28zM352 652q0 16 11.5 27.5t28 11.5t27.5 -11.5t11 -27.5t-11 -28t-27.5 -12t-28 12t-11.5 28zM62 511q112 30 251 30q66 0 108.5 -38t42.5 -116v-387h-42l-15 64q-1 0 -16 -7
t-39.5 -17.5t-53.5 -20.5q-68 -25 -122.5 -25t-92.5 35t-38 97v61q0 84 62 117q30 16 71 16h171.5h57.5v50v17q0 99 -103 99q-83 0 -242 -16v41zM102 131q0 -42 21 -61q22 -19 50 -19t59.5 5.5t60.5 13.5q61 16 98 29l16 6v172l-229 -14q-76 -5 -76 -80v-52z" />
    <glyph glyph-name="aring" unicode="&#xe5;" horiz-adv-x="519" 
d="M162 677q0 24 13.5 47.5t37 37.5t51 14t51 -14t36.5 -37.5t13 -59t-29 -65t-71.5 -29.5t-72 29.5t-29.5 76.5zM197 673q0 -27 19.5 -46t47 -19t46.5 19t19 46t-19 46.5t-46 19.5t-47 -19.5t-20 -46.5zM62 511q112 30 251 30q66 0 108.5 -38t42.5 -116v-387h-42l-15 64
q-1 0 -16 -7t-39.5 -17.5t-53.5 -20.5q-68 -25 -122.5 -25t-92.5 35t-38 97v61q0 84 62 117q30 16 71 16h171.5h57.5v50v17q0 99 -103 99q-83 0 -242 -16v41zM102 131q0 -42 21 -61q22 -19 50 -19t59.5 5.5t60.5 13.5q61 16 98 29l16 6v172l-229 -14q-76 -5 -76 -80v-52z
" />
    <glyph glyph-name="ae" unicode="&#xe6;" horiz-adv-x="877" 
d="M62 515q99 30 253 30q95 0 130 -74q22 39 65.5 53.5t97 14.5t72.5 -1t43 -5t38.5 -11.5t29.5 -20.5t23 -33q18 -44 18 -107.5t-33.5 -91t-103.5 -27.5h-230v-28t2 -50t8.5 -50.5t20.5 -34.5q28 -23 97 -23q138 0 229 13v-42q-98 -28 -239 -28q-73 0 -107 22
q-18 12 -27 21t-23 26l-17 -7t-44.5 -17.5t-59.5 -20.5q-75 -25 -129.5 -25t-92.5 35t-38 97v36q0 84 62 117q30 16 71 16h171.5h57.5v68.5v23.5q0 99 -102 99q-80 0 -243 -16v41zM179 55q77 0 228 56v148l-229 -13q-76 -4 -76 -80v-31q0 -42 21 -61q22 -19 56 -19zM695 298
q41 0 60.5 12.5t19.5 44t-2.5 52t-10 35t-16.5 22t-28 11.5q-28 7 -75.5 7t-68.5 -2t-42 -8.5t-31.5 -18t-20.5 -32.5q-15 -35 -15 -123h230z" />
    <glyph glyph-name="ccedilla" unicode="&#xe7;" horiz-adv-x="500" 
d="M56 266q0 68 8.5 117t23 78.5t38.5 47.5q38 28 111.5 28t211.5 -27v-40q-129 10 -185.5 10t-72.5 -3.5t-32 -16t-25 -35.5q-21 -53 -21 -150t14 -144t38.5 -63.5t65.5 -16.5q82 0 189 10l36 4v-42q-97 -28 -225 -29q-104 0 -142 75q-33 66 -33 197zM315 -36
q0 -78 -21 -107t-80 -29h-44v26l46 12q27 8 38 30t11 68h50z" />
    <glyph glyph-name="egrave" unicode="&#xe8;" horiz-adv-x="525" 
d="M125 727h71l112 -133h-50zM71.5 105.5q-15.5 57.5 -15.5 139.5t5 124.5t17.5 72.5t28.5 48t43 28q45 17 128 17q97 0 132 -19q38 -20 52 -55q19 -44 19 -108t-33.5 -91.5t-103.5 -27.5h-231q0 -140 51 -168q23 -14 67 -14q148 0 240 13v-42q-99 -28 -235 -28
q-73 0 -111 26.5t-53.5 84zM113 290h231q39 0 59.5 12.5t20.5 51.5t-6.5 64.5t-25.5 39t-43 17t-64.5 3.5t-61 -1.5t-41.5 -8t-32 -18.5t-21 -33q-16 -36 -16 -127z" />
    <glyph glyph-name="eacute" unicode="&#xe9;" horiz-adv-x="525" 
d="M249 594l112 133h72l-133 -133h-51zM71.5 105.5q-15.5 57.5 -15.5 139.5t5 124.5t17.5 72.5t28.5 48t43 28q45 17 128 17q97 0 132 -19q38 -20 52 -55q19 -44 19 -108t-33.5 -91.5t-103.5 -27.5h-231q0 -140 51 -168q23 -14 67 -14q148 0 240 13v-42q-99 -28 -235 -28
q-73 0 -111 26.5t-53.5 84zM113 290h231q39 0 59.5 12.5t20.5 51.5t-6.5 64.5t-25.5 39t-43 17t-64.5 3.5t-61 -1.5t-41.5 -8t-32 -18.5t-21 -33q-16 -36 -16 -127z" />
    <glyph glyph-name="ecircumflex" unicode="&#xea;" horiz-adv-x="525" 
d="M130 594l122 130h54l110 -130h-53l-85 86l-94 -86h-54zM71.5 105.5q-15.5 57.5 -15.5 139.5t5 124.5t17.5 72.5t28.5 48t43 28q45 17 128 17q97 0 132 -19q38 -20 52 -55q19 -44 19 -108t-33.5 -91.5t-103.5 -27.5h-231q0 -140 51 -168q23 -14 67 -14q148 0 240 13v-42
q-99 -28 -235 -28q-73 0 -111 26.5t-53.5 84zM113 290h231q39 0 59.5 12.5t20.5 51.5t-6.5 64.5t-25.5 39t-43 17t-64.5 3.5t-61 -1.5t-41.5 -8t-32 -18.5t-21 -33q-16 -36 -16 -127z" />
    <glyph glyph-name="edieresis" unicode="&#xeb;" horiz-adv-x="525" 
d="M118.5 617.5q-11.5 11.5 -11.5 25t5 22.5q11 19 30.5 19t31 -11t11.5 -27.5t-11.5 -28t-27.5 -11.5t-27.5 11.5zM361 645.5q0 16.5 12 27.5t28 11t27.5 -11t11.5 -27.5t-11.5 -28t-27.5 -11.5t-28 11.5t-12 28zM71.5 105.5q-15.5 57.5 -15.5 139.5t5 124.5t17.5 72.5
t28.5 48t43 28q45 17 128 17q97 0 132 -19q38 -20 52 -55q19 -44 19 -108t-33.5 -91.5t-103.5 -27.5h-231q0 -140 51 -168q23 -14 67 -14q148 0 240 13v-42q-99 -28 -235 -28q-73 0 -111 26.5t-53.5 84zM113 290h231q39 0 59.5 12.5t20.5 51.5t-6.5 64.5t-25.5 39t-43 17
t-64.5 3.5t-61 -1.5t-41.5 -8t-32 -18.5t-21 -33q-16 -36 -16 -127z" />
    <glyph glyph-name="igrave" unicode="&#xec;" horiz-adv-x="191" 
d="M-63 729h72l112 -133h-51zM67 0v531h57v-531h-57z" />
    <glyph glyph-name="iacute" unicode="&#xed;" horiz-adv-x="191" 
d="M70 596l112 133h72l-133 -133h-51zM67 0v531h57v-531h-57z" />
    <glyph glyph-name="icircumflex" unicode="&#xee;" horiz-adv-x="191" 
d="M-47 596l122 130h54l109 -130h-53l-85 86l-93 -86h-54zM67 0v531h57v-531h-57z" />
    <glyph glyph-name="idieresis" unicode="&#xef;" horiz-adv-x="191" 
d="M-71 635.5q0 16.5 11.5 28t28 11.5t27.5 -11.5t11 -28t-11 -28t-27.5 -11.5t-28 11.5t-11.5 28zM184 635.5q0 16.5 11.5 28t28 11.5t27.5 -11.5t11 -28t-11 -28t-27.5 -11.5t-28 11.5t-11.5 28zM67 0v531h57v-531h-57z" />
    <glyph glyph-name="eth" unicode="&#xf0;" horiz-adv-x="538" 
d="M84 62.5q-39 62.5 -39 199t40 203t138 66.5h90q25 0 54.5 -10t38.5 -22q-27 105 -83 161l-151 -60l-17 45l124 49q-60 39 -144 39h-6v50q130 0 210 -66l122 49l18 -45l-101 -40q115 -135 115 -417q0 -142 -47 -203t-133 -61h-90q-100 0 -139 62.5zM110 371.5
q-8 -42.5 -8 -102.5t6 -98t15.5 -60t26 -33.5t33 -15t40.5 -3.5h90q69 0 96 52t27 158t-25 155.5t-98 49.5h-90q-30 0 -50.5 -8t-37.5 -30t-25 -64.5z" />
    <glyph glyph-name="ntilde" unicode="&#xf1;" 
d="M371 608q-41 -20 -97 17q-35 23 -52 23t-32 -5.5t-35 -17.5t-30 -17l-15 30q25 21 39 31q40 31 70 30t68 -24t47 -23t15.5 1t14.5 4t13.5 5t14.5 7.5t13 8t14 8.5t12 7l17 -30q-3 -2 -14 -11.5t-15.5 -13t-14.5 -11.5q-12 -9 -33 -19zM67 0v531h39l18 -62q90 54 147 66
q27 5 67 5t78 -24q75 -48 75 -146v-370h-57v370q0 52 -29.5 82.5t-82 30.5t-92.5 -13t-106 -45v-425h-57z" />
    <glyph glyph-name="ograve" unicode="&#xf2;" horiz-adv-x="569" 
d="M133 729h72l111 -133h-50zM56 258q0 82 11.5 135t39.5 85t70 45t108 13q130 0 179.5 -61.5t49.5 -213t-49.5 -209t-180 -57.5t-179.5 58.5t-49 204.5zM117.5 345.5q-4.5 -36.5 -4.5 -79.5t2.5 -71t8.5 -49t13.5 -36t19.5 -25.5t24 -17t30 -9.5q30 -6 71 -6t65.5 3.5
t47 15.5t35.5 35q27 49 27 152q0 101 -19 146q-10 24 -22.5 39t-34 23t-43 10.5t-54 2.5t-53 -2t-42 -9.5t-34 -22t-23 -39t-15 -61z" />
    <glyph glyph-name="oacute" unicode="&#xf3;" horiz-adv-x="569" 
d="M260 596l111 133h72l-133 -133h-50zM56 258q0 82 11.5 135t39.5 85t70 45t108 13q130 0 179.5 -61.5t49.5 -213t-49.5 -209t-180 -57.5t-179.5 58.5t-49 204.5zM117.5 345.5q-4.5 -36.5 -4.5 -79.5t2.5 -71t8.5 -49t13.5 -36t19.5 -25.5t24 -17t30 -9.5q30 -6 71 -6
t65.5 3.5t47 15.5t35.5 35q27 49 27 152q0 101 -19 146q-10 24 -22.5 39t-34 23t-43 10.5t-54 2.5t-53 -2t-42 -9.5t-34 -22t-23 -39t-15 -61z" />
    <glyph glyph-name="ocircumflex" unicode="&#xf4;" horiz-adv-x="569" 
d="M145 596l122 130h54l110 -130h-53l-85 86l-94 -86h-54zM56 258q0 82 11.5 135t39.5 85t70 45t108 13q130 0 179.5 -61.5t49.5 -213t-49.5 -209t-180 -57.5t-179.5 58.5t-49 204.5zM117.5 345.5q-4.5 -36.5 -4.5 -79.5t2.5 -71t8.5 -49t13.5 -36t19.5 -25.5t24 -17
t30 -9.5q30 -6 71 -6t65.5 3.5t47 15.5t35.5 35q27 49 27 152q0 101 -19 146q-10 24 -22.5 39t-34 23t-43 10.5t-54 2.5t-53 -2t-42 -9.5t-34 -22t-23 -39t-15 -61z" />
    <glyph glyph-name="otilde" unicode="&#xf5;" horiz-adv-x="569" 
d="M383 604q-42 -20 -97 17q-35 23 -52.5 23t-32.5 -5.5t-34.5 -17.5t-29.5 -17l-15 30q25 21 38 31q41 31 71 30t67.5 -24t46.5 -23t14 0.5t10.5 2t10.5 3.5t11 5t10.5 5.5t11 6t10.5 6t10.5 6.5t9.5 6l17 -30q-3 -2 -14.5 -11.5t-15.5 -13t-15 -11.5q-11 -9 -32 -19z
M56 258q0 82 11.5 135t39.5 85t70 45t108 13q130 0 179.5 -61.5t49.5 -213t-49.5 -209t-180 -57.5t-179.5 58.5t-49 204.5zM117.5 345.5q-4.5 -36.5 -4.5 -79.5t2.5 -71t8.5 -49t13.5 -36t19.5 -25.5t24 -17t30 -9.5q30 -6 71 -6t65.5 3.5t47 15.5t35.5 35q27 49 27 152
q0 101 -19 146q-10 24 -22.5 39t-34 23t-43 10.5t-54 2.5t-53 -2t-42 -9.5t-34 -22t-23 -39t-15 -61z" />
    <glyph glyph-name="odieresis" unicode="&#xf6;" horiz-adv-x="569" 
d="M119 635.5q0 16.5 11.5 28t28 11.5t27.5 -11.5t11 -28t-11.5 -28t-27.5 -11.5t-27.5 11.5t-11.5 28zM385 607.5q-12 11.5 -12 25.5t6 22q11 20 31 20t31 -11.5t11 -28t-11.5 -28t-27.5 -11.5t-28 11.5zM56 258q0 82 11.5 135t39.5 85t70 45t108 13q130 0 179.5 -61.5
t49.5 -213t-49.5 -209t-180 -57.5t-179.5 58.5t-49 204.5zM117.5 345.5q-4.5 -36.5 -4.5 -79.5t2.5 -71t8.5 -49t13.5 -36t19.5 -25.5t24 -17t30 -9.5q30 -6 71 -6t65.5 3.5t47 15.5t35.5 35q27 49 27 152q0 101 -19 146q-10 24 -22.5 39t-34 23t-43 10.5t-54 2.5t-53 -2
t-42 -9.5t-34 -22t-23 -39t-15 -61z" />
    <glyph glyph-name="divide" unicode="&#xf7;" horiz-adv-x="527" 
d="M56 324v58h416v-58h-416zM229 168v50q0 21 20 21h37q19 0 19 -21v-50q0 -19 -19 -19h-37q-12 0 -16 7t-4 12zM229 479v51q0 20 20 20h37q19 0 19 -20v-51q0 -18 -19 -18h-37q-14 0 -19 11q-1 3 -1 7z" />
    <glyph glyph-name="oslash" unicode="&#xf8;" horiz-adv-x="569" 
d="M56 258q0 109 22.5 169t71 84.5t140 24.5t140.5 -32l21 27h50l-39 -53q52 -60 52 -214t-49.5 -211.5t-179.5 -57.5q-104 0 -155 36l-23 -31h-47l42 57q-46 57 -46 201zM113 258q0 -104 27 -150l257 349q-33 22 -112 22q-101 0 -129 -34q-31 -36 -39 -100q-4 -36 -4 -87z
M452 178q5 34 5 80q0 124 -32 172l-261 -352q33 -26 126 -26t123.5 33t38.5 93z" />
    <glyph glyph-name="ugrave" unicode="&#xf9;" 
d="M116 729h72l112 -133h-51zM56 161v370h57v-370q0 -52 29.5 -82.5t82 -30.5t92.5 13t106 46v424h57v-531h-39l-18 62q-38 -22 -63 -35q-69 -36 -142.5 -36t-117.5 50t-44 120z" />
    <glyph glyph-name="uacute" unicode="&#xfa;" 
d="M243 596l112 133h71l-133 -133h-50zM56 161v370h57v-370q0 -52 29.5 -82.5t82 -30.5t92.5 13t106 46v424h57v-531h-39l-18 62q-38 -22 -63 -35q-69 -36 -142.5 -36t-117.5 50t-44 120z" />
    <glyph glyph-name="ucircumflex" unicode="&#xfb;" 
d="M125 596l123 130h53l110 -130h-53l-85 86l-94 -86h-54zM56 161v370h57v-370q0 -52 29.5 -82.5t82 -30.5t92.5 13t106 46v424h57v-531h-39l-18 62q-38 -22 -63 -35q-69 -36 -142.5 -36t-117.5 50t-44 120z" />
    <glyph glyph-name="udieresis" unicode="&#xfc;" 
d="M101 635.5q0 16.5 11.5 28t28 11.5t28 -11.5t11.5 -28t-11.5 -28t-28 -11.5t-28 11.5t-11.5 28zM356 635.5q0 16.5 11.5 28t28 11.5t28 -11.5t11.5 -25t-5 -22.5q-11 -20 -31 -20t-31.5 11.5t-11.5 28zM56 161v370h57v-370q0 -52 29.5 -82.5t82 -30.5t92.5 13t106 46v424
h57v-531h-39l-18 62q-38 -22 -63 -35q-69 -36 -142.5 -36t-117.5 50t-44 120z" />
    <glyph glyph-name="yacute" unicode="&#xfd;" horiz-adv-x="545" 
d="M247 596l112 133h71l-133 -133h-50zM286 58q3 0 13 1l159 472h63l-234 -699l-65 -102h-34l91 270q-86 1 -119 110l-137 421h63l135 -415q20 -58 65 -58z" />
    <glyph glyph-name="thorn" unicode="&#xfe;" horiz-adv-x="556" 
d="M78 -270v1052h57v-311q26 19 91.5 44t112.5 25t82.5 -23t54.5 -63q36 -77 36 -187q0 -155 -47 -219q-18 -25 -50.5 -41.5t-74 -16.5t-101.5 10.5t-104 28.5v-299h-57zM426.5 97q28.5 50 28.5 163t-31.5 168t-86.5 55q-72 -3 -202 -53v-357q81 -22 202 -26q61 0 89.5 50z
" />
    <glyph glyph-name="ydieresis" unicode="&#xff;" horiz-adv-x="545" 
d="M110.5 616q-5.5 9 -5.5 22.5t11.5 25t28 11.5t28 -11.5t11.5 -28t-11.5 -28t-25 -11.5t-22.5 5.5t-14.5 14.5zM372 607.5q-12 11.5 -12 25.5t5 22q12 20 31.5 20t31 -11.5t11.5 -28t-11.5 -28t-27.5 -11.5t-28 11.5zM286 58q3 0 13 1l159 472h63l-234 -699l-65 -102h-34
l91 270q-86 1 -119 110l-137 421h63l135 -415q20 -58 65 -58z" />
    <glyph glyph-name="Amacron" unicode="&#x100;" horiz-adv-x="666" 
d="M212 797v47h279v-47h-279zM50 0l271 732h61l258 -732h-67l-72 221h-306l-76 -221h-69zM216 278h265l-130 371z" />
    <glyph glyph-name="amacron" unicode="&#x101;" horiz-adv-x="519" 
d="M131 601v47h279v-47h-279zM62 511q112 30 251 30q66 0 108.5 -38t42.5 -116v-387h-42l-15 64q-1 0 -16 -7t-39.5 -17.5t-53.5 -20.5q-68 -25 -122.5 -25t-92.5 35t-38 97v61q0 84 62 117q30 16 71 16h171.5h57.5v50v17q0 99 -103 99q-83 0 -242 -16v41zM102 131
q0 -42 21 -61q22 -19 50 -19t59.5 5.5t60.5 13.5q61 16 98 29l16 6v172l-229 -14q-76 -5 -76 -80v-52z" />
    <glyph glyph-name="Abreve" unicode="&#x102;" horiz-adv-x="666" 
d="M239 911h36q0 -33 23.5 -55.5t53.5 -22.5q35 0 58 21.5t23 56.5h36q0 -55 -37 -86q-35 -28 -79 -28t-79 31.5t-35 82.5zM50 0l271 732h61l258 -732h-67l-72 221h-306l-76 -221h-69zM216 278h265l-130 371z" />
    <glyph glyph-name="abreve" unicode="&#x103;" horiz-adv-x="519" 
d="M157 715h36q0 -33 23.5 -55.5t53.5 -22.5q35 0 58 21.5t23 56.5h36q0 -53 -35 -83.5t-80 -30.5t-80 31.5t-35 82.5zM62 511q112 30 251 30q66 0 108.5 -38t42.5 -116v-387h-42l-15 64q-1 0 -16 -7t-39.5 -17.5t-53.5 -20.5q-68 -25 -122.5 -25t-92.5 35t-38 97v61
q0 84 62 117q30 16 71 16h171.5h57.5v50v17q0 99 -103 99q-83 0 -242 -16v41zM102 131q0 -42 21 -61q22 -19 50 -19t59.5 5.5t60.5 13.5q61 16 98 29l16 6v172l-229 -14q-76 -5 -76 -80v-52z" />
    <glyph glyph-name="Aogonek" unicode="&#x104;" horiz-adv-x="666" 
d="M624 0q-65 -43 -65 -87q0 -16 11 -28q20 -21 67 -22v-44q-10 -1 -26 -1t-41.5 9t-40.5 30q-18 26 -18 50t20 49.5t63 43.5h30zM50 0l271 732h61l258 -732h-67l-72 221h-306l-76 -221h-69zM216 278h265l-130 371z" />
    <glyph glyph-name="aogonek" unicode="&#x105;" horiz-adv-x="533" 
d="M465 0q-65 -43 -65 -87q0 -16 11 -28q20 -21 67 -22v-44q-10 -1 -26 -1t-41.5 9t-40.5 30q-18 26 -18 50t20.5 49.5t62.5 43.5h30zM68 511q112 30 252 30q65 0 107.5 -38t42.5 -116v-387h-41l-16 64l-15 -7t-39.5 -17.5t-53.5 -20.5q-69 -25 -123.5 -25t-92.5 35t-38 97
v61q0 84 62 117q30 16 71 16h172h57q1 33 1 50t-1 17q0 99 -102 99q-83 0 -243 -16v41zM108 131q0 -29 11 -47q20 -33 67 -33q44 0 94 13q80 22 117 35l16 6v172l-229 -14q-76 -5 -76 -80v-52z" />
    <glyph glyph-name="Cacute" unicode="&#x106;" horiz-adv-x="575" 
d="M302 800l112 133h71l-133 -133h-50zM61 368q0 230 72 309q58 63 172 63q39 0 110.5 -7.5t123.5 -17.5v-43l-8.5 0.5t-22.5 1.5t-32.5 2t-40.5 2.5t-43 2.5q-49 2 -87 2q-69 0 -108 -26q-79 -52 -79 -291q0 -315 187 -315q99 0 220 8l14 1v-44q-50 -9 -121 -15.5
t-113 -6.5q-244 0 -244 374z" />
    <glyph glyph-name="cacute" unicode="&#x107;" horiz-adv-x="500" 
d="M245 597l111 133h72l-133 -133h-50zM56 266q0 68 9 117t23 78.5t37.5 46.5t47.5 22.5t58 5.5q86 0 218 -26v-40q-129 9 -182 9t-65 -1.5t-25 -7t-22 -14.5t-17.5 -25t-13.5 -39q-11 -50 -11 -131.5t14 -128.5t38.5 -63.5t65.5 -16.5q82 0 189 11l36 3v-42
q-97 -27 -225 -29q-105 0 -142 75q-33 65 -33 196z" />
    <glyph glyph-name="Ccircumflex" unicode="&#x108;" horiz-adv-x="575" 
d="M188 800l122 130h54l109 -130h-53l-85 86l-93 -86h-54zM61 368q0 230 72 309q58 63 172 63q39 0 110.5 -7.5t123.5 -17.5v-43l-8.5 0.5t-22.5 1.5t-32.5 2t-40.5 2.5t-43 2.5q-49 2 -87 2q-69 0 -108 -26q-79 -52 -79 -291q0 -315 187 -315q99 0 220 8l14 1v-44
q-50 -9 -121 -15.5t-113 -6.5q-244 0 -244 374z" />
    <glyph glyph-name="ccircumflex" unicode="&#x109;" horiz-adv-x="500" 
d="M136 597l122 130h53l110 -130h-53l-85 86l-94 -86h-53zM56 266q0 68 9 117t23 78.5t37.5 46.5t47.5 22.5t58 5.5q86 0 218 -26v-40q-129 9 -182 9t-65 -1.5t-25 -7t-22 -14.5t-17.5 -25t-13.5 -39q-11 -50 -11 -131.5t14 -128.5t38.5 -63.5t65.5 -16.5q82 0 189 11l36 3
v-42q-97 -27 -225 -29q-105 0 -142 75q-33 65 -33 196z" />
    <glyph glyph-name="Cdotaccent" unicode="&#x10a;" horiz-adv-x="575" 
d="M303 821v56q0 21 20 21h37q19 0 19 -21v-56q0 -20 -19 -20h-37q-8 0 -14 5.5t-6 14.5zM61 368q0 230 72 309q58 63 172 63q39 0 110.5 -7.5t123.5 -17.5v-43l-8.5 0.5t-22.5 1.5t-32.5 2t-40.5 2.5t-43 2.5q-49 2 -87 2q-69 0 -108 -26q-79 -52 -79 -291q0 -315 187 -315
q99 0 220 8l14 1v-44q-50 -9 -121 -15.5t-113 -6.5q-244 0 -244 374z" />
    <glyph glyph-name="cdotaccent" unicode="&#x10b;" horiz-adv-x="500" 
d="M250 618v57q0 20 20 20h36q20 0 20 -20v-57q0 -19 -20 -19h-36q-9 0 -14.5 5t-5.5 14zM56 266q0 68 9 117t23 78.5t37.5 46.5t47.5 22.5t58 5.5q86 0 218 -26v-40q-129 9 -182 9t-65 -1.5t-25 -7t-22 -14.5t-17.5 -25t-13.5 -39q-11 -50 -11 -131.5t14 -128.5t38.5 -63.5
t65.5 -16.5q82 0 189 11l36 3v-42q-97 -27 -225 -29q-105 0 -142 75q-33 65 -33 196z" />
    <glyph glyph-name="Ccaron" unicode="&#x10c;" horiz-adv-x="575" 
d="M193 930h53l91 -86l88 86h53l-113 -130h-55zM61 368q0 230 72 309q58 63 172 63q39 0 110.5 -7.5t123.5 -17.5v-43l-8.5 0.5t-22.5 1.5t-32.5 2t-40.5 2.5t-43 2.5q-49 2 -87 2q-69 0 -108 -26q-79 -52 -79 -291q0 -315 187 -315q99 0 220 8l14 1v-44q-50 -9 -121 -15.5
t-113 -6.5q-244 0 -244 374z" />
    <glyph glyph-name="ccaron" unicode="&#x10d;" horiz-adv-x="500" 
d="M131 727h53l91 -86l88 86h53l-113 -130h-54zM56 266q0 68 9 117t23 78.5t37.5 46.5t47.5 22.5t58 5.5q86 0 218 -26v-40q-129 9 -182 9t-65 -1.5t-25 -7t-22 -14.5t-17.5 -25t-13.5 -39q-11 -50 -11 -131.5t14 -128.5t38.5 -63.5t65.5 -16.5q82 0 189 11l36 3v-42
q-97 -27 -225 -29q-105 0 -142 75q-33 65 -33 196z" />
    <glyph glyph-name="Dcaron" unicode="&#x10e;" horiz-adv-x="661" 
d="M189 922h53l91 -86l88 86h53l-114 -130h-54zM90 0v732h265q83 0 136 -37q54 -38 78 -91q28 -61 35 -107q11 -74 11 -130t-8.5 -105.5t-28.5 -97.5t-49 -84t-74 -58t-100 -22h-265zM147 59h208q52 0 92 26t64 70q47 88 47 209q0 311 -203 311h-208v-616z" />
    <glyph glyph-name="dcaron" unicode="&#x10f;" horiz-adv-x="553" 
d="M60.5 187.5q-4.5 35.5 -4.5 78t4 79t15.5 74t30.5 62.5q43 58 128 58q37 0 94.5 -11t102.5 -29v286h55v-785h-39l-17 59q-23 -19 -86.5 -42t-107.5 -23t-76 16.5t-51.5 42.5t-31.5 62.5t-16.5 72zM145.5 103.5q32.5 -52.5 88.5 -52.5q85 0 196 49v355q-105 27 -196 27
q-72 0 -99 -65q-22 -52 -22 -156.5t32.5 -157zM539 758l49 23l9 -45l-7 -111l-37 -45l-11 88z" />
    <glyph glyph-name="Dcroat" unicode="&#x110;" horiz-adv-x="661" 
d="M25 353v40h65v338q0 1 262 1q132 0 197 -98q62 -96 62 -271q0 -110 -36 -199q-42 -102 -123 -142q-45 -22 -100 -22h-262v353h-65zM147 59h205q52 0 92 26t63 70q45 88 45 209q0 158 -52 233t-148 75l-205 -1v-278h145v-40h-145v-294z" />
    <glyph glyph-name="dcroat" unicode="&#x111;" horiz-adv-x="553" 
d="M60.5 187.5q-4.5 35.5 -4.5 78t4 79t15.5 74t30.5 62.5q44 58 129 58q37 0 94 -11t102 -29v125h-126v41h126v120h56v-120h75v-41h-75v-624h-40l-16 59q-24 -19 -87 -42t-107 -23t-76.5 16.5t-51.5 42.5t-31.5 62.5t-17 72zM113 263q0 -105 33 -158.5t89 -53.5
q84 0 196 49v355q-105 27 -196 27q-61 0 -88 -43q-23 -36 -28.5 -84t-5.5 -92z" />
    <glyph glyph-name="Emacron" unicode="&#x112;" horiz-adv-x="572" 
d="M185 795v47h278v-47h-278zM90 123v479q0 69 34.5 99.5t83.5 30.5h8l309 -14v-43h-309q-39 0 -54 -18.5t-15 -54.5v-209l338 -8v-44l-338 -8v-210q0 -47 26 -60q20 -9 53 -9h299v-42l-299 -15h-21t-32 3.5t-40 15.5q-43 26 -43 107z" />
    <glyph glyph-name="emacron" unicode="&#x113;" horiz-adv-x="525" 
d="M134 595v47h278v-47h-278zM71.5 105.5q-15.5 57.5 -15.5 139.5t5 124.5t17.5 72.5t28.5 48t43 28q45 17 128 17q97 0 132 -19q38 -20 52 -55q19 -44 19 -108t-33.5 -91.5t-103.5 -27.5h-231q0 -140 51 -168q23 -14 67 -14q148 0 240 13v-42q-99 -28 -235 -28
q-73 0 -111 26.5t-53.5 84zM113 290h231q39 0 59.5 12.5t20.5 51.5t-6.5 64.5t-25.5 39t-43 17t-64.5 3.5t-61 -1.5t-41.5 -8t-32 -18.5t-21 -33q-16 -36 -16 -127z" />
    <glyph glyph-name="Edotaccent" unicode="&#x116;" horiz-adv-x="572" 
d="M287 814v57q0 21 20 21h37q19 0 19 -21v-57q0 -19 -19 -19h-37q-9 0 -14.5 5.5t-5.5 13.5zM90 123v479q0 69 34.5 99.5t83.5 30.5h8l309 -14v-43h-309q-39 0 -54 -18.5t-15 -54.5v-209l338 -8v-44l-338 -8v-210q0 -47 26 -60q20 -9 53 -9h299v-42l-299 -15h-21t-32 3.5
t-40 15.5q-43 26 -43 107z" />
    <glyph glyph-name="edotaccent" unicode="&#x117;" horiz-adv-x="525" 
d="M241 615v57q0 21 20 21h36q20 0 20 -21v-57q0 -19 -20 -19h-36q-12 0 -16 7t-4 12zM71.5 105.5q-15.5 57.5 -15.5 139.5t5 124.5t17.5 72.5t28.5 48t43 28q45 17 128 17q97 0 132 -19q38 -20 52 -55q19 -44 19 -108t-33.5 -91.5t-103.5 -27.5h-231q0 -140 51 -168
q23 -14 67 -14q148 0 240 13v-42q-99 -28 -235 -28q-73 0 -111 26.5t-53.5 84zM113 290h231q39 0 59.5 12.5t20.5 51.5t-6.5 64.5t-25.5 39t-43 17t-64.5 3.5t-61 -1.5t-41.5 -8t-32 -18.5t-21 -33q-16 -36 -16 -127z" />
    <glyph glyph-name="Eogonek" unicode="&#x118;" horiz-adv-x="572" 
d="M525 12q-65 -43 -65 -89q0 -20 21.5 -34t56.5 -14v-44q-10 -2 -26 -2t-41.5 9.5t-40.5 30.5q-18 25 -18 49.5t20 49.5t63 44h30zM90 123v479q0 69 34.5 99.5t83.5 30.5h8l309 -14v-43h-309q-39 0 -54 -18.5t-15 -54.5v-209l338 -8v-44l-338 -8v-210q0 -47 26 -60
q20 -9 53 -9h299v-42l-299 -15h-21t-32 3.5t-40 15.5q-43 26 -43 107z" />
    <glyph glyph-name="eogonek" unicode="&#x119;" horiz-adv-x="525" 
d="M471 23q-66 -42 -66 -89q0 -20 21.5 -34t56.5 -14v-44q-10 -1 -26 -1t-41 9t-40 30q-18 26 -18 50t20 49.5t63 43.5h30zM71.5 105.5q-15.5 57.5 -15.5 139.5t5 124.5t17.5 72.5t28.5 48t43 28q45 17 128 17q97 0 132 -19q38 -20 52 -55q19 -44 19 -108t-33.5 -91.5
t-103.5 -27.5h-231q0 -140 51 -168q23 -14 67 -14q148 0 240 13v-42q-99 -28 -235 -28q-73 0 -111 26.5t-53.5 84zM113 290h231q39 0 59.5 12.5t20.5 51.5t-6.5 64.5t-25.5 39t-43 17t-64.5 3.5t-61 -1.5t-41.5 -8t-32 -18.5t-21 -33q-16 -36 -16 -127z" />
    <glyph glyph-name="Ecaron" unicode="&#x11a;" horiz-adv-x="572" 
d="M181 922h53l91 -86l88 86h53l-113 -130h-54zM90 123v479q0 69 34.5 99.5t83.5 30.5h8l309 -14v-43h-309q-39 0 -54 -18.5t-15 -54.5v-209l338 -8v-44l-338 -8v-210q0 -47 26 -60q20 -9 53 -9h299v-42l-299 -15h-21t-32 3.5t-40 15.5q-43 26 -43 107z" />
    <glyph glyph-name="ecaron" unicode="&#x11b;" horiz-adv-x="525" 
d="M138 723h53l91 -86l88 86h53l-113 -130h-55zM71.5 105.5q-15.5 57.5 -15.5 139.5t5 124.5t17.5 72.5t28.5 48t43 28q45 17 128 17q97 0 132 -19q38 -20 52 -55q19 -44 19 -108t-33.5 -91.5t-103.5 -27.5h-231q0 -140 51 -168q23 -14 67 -14q148 0 240 13v-42
q-99 -28 -235 -28q-73 0 -111 26.5t-53.5 84zM113 290h231q39 0 59.5 12.5t20.5 51.5t-6.5 64.5t-25.5 39t-43 17t-64.5 3.5t-61 -1.5t-41.5 -8t-32 -18.5t-21 -33q-16 -36 -16 -127z" />
    <glyph glyph-name="Gcircumflex" unicode="&#x11c;" horiz-adv-x="616" 
d="M190 800l122 130h54l110 -130h-53l-85 86l-94 -86h-54zM63 283q-2 38 -2 95.5t4.5 107.5t19 100t39 82t66.5 52t90.5 20t129 -8.5t132.5 -18.5v-45q-1 0 -18.5 1.5t-45 3.5t-58.5 5q-76 5 -124.5 5t-78.5 -13.5t-49.5 -37.5t-29.5 -64q-20 -70 -20 -222.5t38 -223.5
q39 -71 140 -71q34 0 85 12t86 24l35 12v232h-184v38q74 20 173 20q32 0 68 -3v-386h-42l-13 51q-53 -29 -110.5 -42.5t-99.5 -13.5h-23t-55.5 9.5t-58 26.5t-42 44.5t-27.5 57.5t-16.5 71t-8.5 79z" />
    <glyph glyph-name="gcircumflex" unicode="&#x11d;" horiz-adv-x="560" 
d="M135 597l122 130h54l109 -130h-53l-85 86l-93 -86h-54zM53 117q0 27 18 50t50 28q-68 36 -68 149q0 189 173 189h312v-42l-91 -15q0 -1 6 -8.5t8 -11t7.5 -12.5t8 -17.5t5.5 -21.5q6 -22 6 -52t-3.5 -51.5t-14 -48.5t-27.5 -47.5t-48 -34.5t-72 -14h-156
q-28 0 -42.5 -11.5t-14.5 -30t16.5 -29t37.5 -10.5h211q86 0 119 -64q15 -31 15 -72v-59q0 -64 -26 -98q-26 -35 -59 -44t-65 -9h-150q-99 0 -138 69q-21 35 -21 85v88l31 79q-28 21 -28 66zM165 20q-34 0 -57 15v-151q0 -61 37 -81q30 -16 64 -16h150q93 0 93 94v56
q0 41 -18.5 62t-67.5 21h-201zM135 440q-25 -36 -25 -94.5t26.5 -95t82.5 -36.5h99q87 0 108 86q5 19 5 40q0 136 -99 136h-109q-63 0 -88 -36z" />
    <glyph glyph-name="Gbreve" unicode="&#x11e;" horiz-adv-x="616" 
d="M223 914h36q0 -33 23.5 -55.5t53.5 -22.5q35 0 58 21.5t23 56.5h36q0 -55 -37 -86q-35 -28 -79 -28t-79 31.5t-35 82.5zM63 283q-2 38 -2 95.5t4.5 107.5t19 100t39 82t66.5 52t90.5 20t129 -8.5t132.5 -18.5v-45q-1 0 -18.5 1.5t-45 3.5t-58.5 5q-76 5 -124.5 5
t-78.5 -13.5t-49.5 -37.5t-29.5 -64q-20 -70 -20 -222.5t38 -223.5q39 -71 140 -71q34 0 85 12t86 24l35 12v232h-184v38q74 20 173 20q32 0 68 -3v-386h-42l-13 51q-53 -29 -110.5 -42.5t-99.5 -13.5h-23t-55.5 9.5t-58 26.5t-42 44.5t-27.5 57.5t-16.5 71t-8.5 79z" />
    <glyph glyph-name="gbreve" unicode="&#x11f;" horiz-adv-x="560" 
d="M161 711h35q0 -33 24 -56t54 -23q48 0 70 38q11 17 11 41h36q0 -54 -35.5 -84t-80.5 -30q-43 0 -78 29q-36 32 -36 85zM53 117q0 27 18 50t50 28q-68 36 -68 149q0 189 173 189h312v-42l-91 -15q0 -1 6 -8.5t8 -11t7.5 -12.5t8 -17.5t5.5 -21.5q6 -22 6 -52t-3.5 -51.5
t-14 -48.5t-27.5 -47.5t-48 -34.5t-72 -14h-156q-28 0 -42.5 -11.5t-14.5 -30t16.5 -29t37.5 -10.5h211q86 0 119 -64q15 -31 15 -72v-59q0 -64 -26 -98q-26 -35 -59 -44t-65 -9h-150q-99 0 -138 69q-21 35 -21 85v88l31 79q-28 21 -28 66zM165 20q-34 0 -57 15v-151
q0 -61 37 -81q30 -16 64 -16h150q93 0 93 94v56q0 41 -18.5 62t-67.5 21h-201zM135 440q-25 -36 -25 -94.5t26.5 -95t82.5 -36.5h99q87 0 108 86q5 19 5 40q0 136 -99 136h-109q-63 0 -88 -36z" />
    <glyph glyph-name="Gdotaccent" unicode="&#x120;" horiz-adv-x="616" 
d="M294 819v57q0 21 20 21h37q19 0 19 -21v-57q0 -19 -19 -19h-37q-12 0 -16 7t-4 12zM63 283q-2 38 -2 95.5t4.5 107.5t19 100t39 82t66.5 52t90.5 20t129 -8.5t132.5 -18.5v-45q-1 0 -18.5 1.5t-45 3.5t-58.5 5q-76 5 -124.5 5t-78.5 -13.5t-49.5 -37.5t-29.5 -64
q-20 -70 -20 -222.5t38 -223.5q39 -71 140 -71q34 0 85 12t86 24l35 12v232h-184v38q74 20 173 20q32 0 68 -3v-386h-42l-13 51q-53 -29 -110.5 -42.5t-99.5 -13.5h-23t-55.5 9.5t-58 26.5t-42 44.5t-27.5 57.5t-16.5 71t-8.5 79z" />
    <glyph glyph-name="gdotaccent" unicode="&#x121;" horiz-adv-x="560" 
d="M243 617v57q0 21 20 21h37q19 0 19 -21v-57q0 -19 -19 -19h-37q-12 0 -16 7t-4 12zM53 117q0 27 18 50t50 28q-68 36 -68 149q0 189 173 189h312v-42l-91 -15q0 -1 6 -8.5t8 -11t7.5 -12.5t8 -17.5t5.5 -21.5q6 -22 6 -52t-3.5 -51.5t-14 -48.5t-27.5 -47.5t-48 -34.5
t-72 -14h-156q-28 0 -42.5 -11.5t-14.5 -30t16.5 -29t37.5 -10.5h211q86 0 119 -64q15 -31 15 -72v-59q0 -64 -26 -98q-26 -35 -59 -44t-65 -9h-150q-99 0 -138 69q-21 35 -21 85v88l31 79q-28 21 -28 66zM165 20q-34 0 -57 15v-151q0 -61 37 -81q30 -16 64 -16h150
q93 0 93 94v56q0 41 -18.5 62t-67.5 21h-201zM135 440q-25 -36 -25 -94.5t26.5 -95t82.5 -36.5h99q87 0 108 86q5 19 5 40q0 136 -99 136h-109q-63 0 -88 -36z" />
    <glyph glyph-name="Gcommaaccent" unicode="&#x122;" horiz-adv-x="616" 
d="M318 -233q-8 -1 -12 -1t-13 1v21h1q23 0 23 23v29h-9q-18 0 -18 19v51q0 20 18 20h34q17 0 17 -20v-88q0 -47 -41 -55zM63 283q-2 38 -2 95.5t4.5 107.5t19 100t39 82t66.5 52t90.5 20t129 -8.5t132.5 -18.5v-45q-1 0 -18.5 1.5t-45 3.5t-58.5 5q-76 5 -124.5 5
t-78.5 -13.5t-49.5 -37.5t-29.5 -64q-20 -70 -20 -222.5t38 -223.5q39 -71 140 -71q34 0 85 12t86 24l35 12v232h-184v38q74 20 173 20q32 0 68 -3v-386h-42l-13 51q-53 -29 -110.5 -42.5t-99.5 -13.5h-23t-55.5 9.5t-58 26.5t-42 44.5t-27.5 57.5t-16.5 71t-8.5 79z" />
    <glyph glyph-name="gcommaaccent" unicode="&#x123;" horiz-adv-x="560" 
d="M284 755q8 2 12 2t13 -2v-20h-1q-22 0 -22 -23v-30h8q19 0 19 -18v-51q0 -20 -19 -20h-33q-18 0 -18 20v87q0 48 41 55zM81 50q-28 22 -28 58t17.5 59.5t50.5 27.5q-68 36 -68 149q0 189 173 189h312v-42l-91 -15q0 -1 6 -8.5t8 -11t7.5 -12.5t8 -17.5t5.5 -21.5
q6 -22 6 -52t-3.5 -51.5t-14 -48.5t-27.5 -47.5t-48 -34.5t-72 -14h-156q-28 0 -42.5 -11.5t-14.5 -27.5q0 -35 57 -43l197 -25q65 -8 105 -42t40 -91v-33q0 -77 -40 -117q-37 -37 -110 -37h-150q-99 0 -138 69q-21 35 -21 85v88zM108 -116q0 -61 37 -81q30 -16 64 -16h150
q93 0 93 97v28q0 70 -98 83l-182 24q-28 4 -64 16v-151zM135 440q-25 -36 -25 -94.5t26.5 -94.5t82.5 -36h99q87 0 108 85q5 19 5 40q0 136 -99 136h-109q-63 0 -88 -36z" />
    <glyph glyph-name="Hcircumflex" unicode="&#x124;" horiz-adv-x="646" 
d="M194 797l122 130h54l109 -130h-53l-84 86l-94 -86h-54zM90 0v732h57v-350h380v350h57v-732h-57v326h-380v-326h-57z" />
    <glyph glyph-name="hcircumflex" unicode="&#x125;" 
d="M-43 844l122 130h54l109 -130h-53l-85 86l-93 -86h-54zM74 0v784h57v-315q38 23 63 35q69 36 130 36t99 -24q75 -48 75 -146v-370h-57v370q0 53 -29 83t-73.5 30t-79 -7.5t-59 -18t-69.5 -32.5v-425h-57z" />
    <glyph glyph-name="Hbar" unicode="&#x126;" horiz-adv-x="660" 
d="M27 523v41h63v168h57v-168h380v168h57v-168h61v-41h-61v-523h-57v326h-380v-326h-57v523h-63zM147 382h380v141h-380v-141z" />
    <glyph glyph-name="hbar" unicode="&#x127;" 
d="M67 658v126h59v-126h138v-41h-138v-148q118 71 205 71h3h4q70 0 111.5 -49t41.5 -120v-371h-59v369q-2 54 -28.5 84.5t-77.5 30t-95.5 -14.5t-104.5 -44v-425h-59v617h-74v41h74z" />
    <glyph glyph-name="Itilde" unicode="&#x128;" horiz-adv-x="209" 
d="M210 805q-41 -20 -97 17q-35 23 -52.5 23t-32 -5.5t-34.5 -17.5t-30 -17l-15 30q25 21 39 31q40 31 70 30t68 -24t46.5 -23t13.5 0.5t10.5 2t10.5 3.5t11 5t10.5 5.5t11 6t10.5 6t10.5 6.5t9.5 6l17 -30q-3 -2 -14 -11.5t-15.5 -13t-14.5 -11.5q-12 -9 -33 -19zM90 0v732
h57v-732h-57z" />
    <glyph glyph-name="itilde" unicode="&#x129;" horiz-adv-x="191" 
d="M188 604q-42 -20 -97 17q-35 23 -52.5 23t-32 -5.5t-34.5 -17.5t-30 -17l-15 30q57 48 78 55t41 6t57.5 -24t46.5 -23t15 1t11.5 2.5t12.5 4.5t12 5.5t12.5 7t11.5 7t12 7t11 6.5l17 -30q-3 -2 -14.5 -11.5t-15.5 -13t-15 -11.5q-11 -9 -32 -19zM67 0v531h57v-531h-57z
" />
    <glyph glyph-name="Imacron" unicode="&#x12a;" horiz-adv-x="209" 
d="M-21 797v47h278v-47h-278zM90 0v732h57v-732h-57z" />
    <glyph glyph-name="imacron" unicode="&#x12b;" horiz-adv-x="191" 
d="M-44 596v47h279v-47h-279zM67 0v531h57v-531h-57z" />
    <glyph glyph-name="Iogonek" unicode="&#x12e;" horiz-adv-x="209" 
d="M135 0q-65 -43 -65 -87q0 -16 11 -28q20 -21 67 -22v-44q-10 -1 -26 -1t-41.5 9t-40.5 30q-18 26 -18 50t20 49.5t63 43.5h30zM90 0v732h57v-732h-57z" />
    <glyph glyph-name="iogonek" unicode="&#x12f;" horiz-adv-x="187" 
d="M118 0q-66 -43 -66 -87q0 -16 12 -28q19 -21 66 -22v-44q-10 -1 -26 -1t-41 9t-40 30q-18 26 -18 50t20 49.5t63 43.5h30zM63 619v56q0 21 19 21h37q19 0 19 -21v-56q0 -20 -19 -20h-37q-12 0 -15.5 7t-3.5 13zM71 0v531h57v-531h-57z" />
    <glyph glyph-name="Idotaccent" unicode="&#x130;" horiz-adv-x="209" 
d="M80 816v57q0 21 20 21h37q19 0 19 -21v-57q0 -19 -19 -19h-37q-9 0 -14.5 5.5t-5.5 13.5zM90 0v732h57v-732h-57z" />
    <glyph glyph-name="dotlessi" unicode="&#x131;" horiz-adv-x="191" 
d="M67 0v531h57v-531h-57z" />
    <glyph glyph-name="Jcircumflex" unicode="&#x134;" horiz-adv-x="355" 
d="M122 797l122 130h54l109 -130h-53l-85 86l-94 -86h-53zM43 61q62 -16 82.5 -16t31 1t27.5 8t28 21q24 31 24 90v567h57v-567q0 -112 -52 -147q-36 -24 -98.5 -24t-103.5 27z" />
    <glyph glyph-name="jcircumflex" unicode="&#x135;" horiz-adv-x="201" 
d="M-47 598l122 150h54l109 -150h-45l-93 99l-100 -99h-47zM69 -270v801h61v-535v-23q0 -141 -21 -243h-40z" />
    <glyph glyph-name="Kcommaaccent" unicode="&#x136;" horiz-adv-x="591" 
d="M305 -228q-8 -2 -12 -2t-13 2v21h1q22 0 22 23v29h-8q-19 0 -19 19v51q0 20 19 20h33q18 0 18 -20v-88q0 -48 -41 -55zM90 0v732h57v-336h105l234 336h69l-250 -365l250 -367h-69l-234 338h-104v-338h-58z" />
    <glyph glyph-name="kcommaaccent" unicode="&#x137;" horiz-adv-x="499" 
d="M259 -228q-8 -1 -12 -1t-13 1v21h1q22 0 22 23v29h-8q-19 0 -19 19v51q0 20 19 20h33q18 0 18 -20v-88q0 -47 -41 -55zM67 0v782h57v-448h47l225 197h81l-252 -226l252 -305h-73l-233 276h-47v-276h-57z" />
    <glyph glyph-name="kgreenlandic" unicode="&#x138;" horiz-adv-x="502" 
d="M124 531v-238h95l191 238h70l-210 -266l196 -265h-71l-178 236h-92l-1 -236h-57v531h57z" />
    <glyph glyph-name="Lacute" unicode="&#x139;" horiz-adv-x="557" 
d="M94 795l112 133h72l-133 -133h-51zM90 126v606h57v-606q0 -47 26 -60q20 -9 53 -9h295v-57h-295q-100 0 -125 59q-11 27 -11 67z" />
    <glyph glyph-name="lacute" unicode="&#x13a;" horiz-adv-x="299" 
d="M91 843l112 133h72l-133 -133h-51zM67 189v594h57v-594q0 -79 23 -105q18 -21 46 -27q77 -18 84 -18v-39h-81q-129 0 -129 189z" />
    <glyph glyph-name="Lcommaaccent" unicode="&#x13b;" horiz-adv-x="557" 
d="M308 -228q-7 -1 -10.5 -1h-6.5t-9 1v21h1q22 0 22 23v29h-8q-19 0 -19 19v51q0 20 19 20h33q18 0 18 -20v-88q0 -28 -9.5 -37t-16.5 -13t-14 -5zM90 126v606h57v-606q0 -47 26 -60q20 -9 53 -9h295v-57h-295q-100 0 -125 59q-11 27 -11 67z" />
    <glyph glyph-name="lcommaaccent" unicode="&#x13c;" horiz-adv-x="299" 
d="M152 -228q-8 -1 -12 -1t-13 1v21h1q22 0 22 23v29h-8q-19 0 -19 19v51q0 20 19 20h33q18 0 18 -20v-88q0 -47 -41 -55zM67 189v594h57v-594q0 -79 23 -105q18 -21 46 -27q77 -18 84 -18v-39h-81q-129 0 -129 189z" />
    <glyph glyph-name="Lcaron" unicode="&#x13d;" horiz-adv-x="557" 
d="M90 126v606h57v-606q0 -47 26 -60q20 -9 53 -9h295v-57h-295q-100 0 -125 59q-11 27 -11 67zM284 772v-67l-9 -134h-39l-10 134v67h58z" />
    <glyph glyph-name="lcaron" unicode="&#x13e;" horiz-adv-x="299" 
d="M124 783v-594q0 -93 30 -116q13 -10 64.5 -22t58.5 -12v-39h-83q-67 0 -97 42.5t-30 146.5v594h57zM266 781v-67l-9 -134h-39l-10 134v67h58z" />
    <glyph glyph-name="Lslash" unicode="&#x141;" horiz-adv-x="557" 
d="M90 732h57v-290l133 57l-1 -47l-132 -58v-268q0 -47 26 -60q20 -9 53 -9h295v-57h-295q-100 0 -125 59q-11 27 -11 67v244l-83 -36v47l83 36v315z" />
    <glyph glyph-name="lslash" unicode="&#x142;" horiz-adv-x="319" 
d="M87 783h57v-296l140 64l-1 -46l-139 -65v-251q0 -93 32 -117q14 -10 64 -21.5t57 -11.5v-39h-83q-61 0 -94 44t-33 145v226l-77 -36v48l77 34v322z" />
    <glyph glyph-name="Nacute" unicode="&#x143;" horiz-adv-x="674" 
d="M335 797l111 133h72l-133 -133h-50zM90 0v732h58l407 -625v625h57v-732h-57l-408 625v-625h-57z" />
    <glyph glyph-name="nacute" unicode="&#x144;" 
d="M252 600l111 133h72l-133 -133h-50zM67 0v531h39l18 -62q90 54 147 66q27 5 67 5t78 -24q75 -48 75 -146v-370h-57v370q0 52 -29.5 82.5t-82 30.5t-92.5 -13t-106 -45v-425h-57z" />
    <glyph glyph-name="Ncommaaccent" unicode="&#x145;" horiz-adv-x="674" 
d="M345 -229q-8 -2 -12 -2t-13 1v21h1q22 0 22 23v30h-9q-18 0 -18 18v51q0 20 18 20h34q18 0 18 -20v-87q0 -48 -41 -55zM90 0v732h58l407 -625v625h57v-732h-57l-408 625v-625h-57z" />
    <glyph glyph-name="ncommaaccent" unicode="&#x146;" 
d="M274 -228q-8 -1 -12 -1t-13 1v21h1q22 0 22 23v29h-8q-19 0 -19 19v51q0 20 19 20h33q18 0 18 -20v-88q0 -47 -41 -55zM67 0v531h39l18 -62q90 54 147 66q27 5 67 5t78 -24q75 -48 75 -146v-370h-57v370q0 52 -29.5 82.5t-82 30.5t-92.5 -13t-106 -45v-425h-57z" />
    <glyph glyph-name="Ncaron" unicode="&#x147;" horiz-adv-x="674" 
d="M215 927h53l91 -86l88 86h53l-113 -130h-55zM90 0v732h58l407 -625v625h57v-732h-57l-408 625v-625h-57z" />
    <glyph glyph-name="ncaron" unicode="&#x148;" 
d="M144 730h53l91 -86l88 86h53l-114 -130h-54zM67 0v531h39l18 -62q90 54 147 66q27 5 67 5t78 -24q75 -48 75 -146v-370h-57v370q0 52 -29.5 82.5t-82 30.5t-92.5 -13t-106 -45v-425h-57z" />
    <glyph glyph-name="Eng" unicode="&#x14a;" horiz-adv-x="673" 
d="M90 0v732h58l406 -618v618h57v-816q0 -125 -77 -156q-43 -17 -120 -17v44q8 1 25 4t25.5 5t23 6.5t22 10t17.5 15t15 22.5q12 31 12 75v75l-406 625l-1 -625h-57z" />
    <glyph glyph-name="eng" unicode="&#x14b;" horiz-adv-x="558" 
d="M271 535q25 5 64.5 5t77.5 -24q78 -49 78 -146v-370l-1 -90q-3 -80 -46 -118q-34 -31 -85 -45q-9 -3 -28 -7l-24 30q91 34 115 83q11 24 12 55v462q0 50 -31 81.5t-74.5 31.5t-79 -8.5t-58 -18.5t-67.5 -32v-424h-57v531h39l18 -62q4 2 21.5 12.5t33.5 18.5t41.5 19
t50.5 16z" />
    <glyph glyph-name="Omacron" unicode="&#x14c;" horiz-adv-x="675" 
d="M212 797v47h279v-47h-279zM73 362q0 71 7 127.5t18.5 96t31 67.5t40.5 44t52 25q51 15 111 15t89 -3t60 -12t51.5 -25t40 -44t30.5 -67q25 -87 25 -196t-8 -168t-25 -99t-38 -65.5t-55 -38.5q-57 -23 -152 -23q-135 0 -185 39q-51 39 -70 108q-23 84 -23 219zM136 493
q-6 -55 -6 -123t3.5 -111.5t11 -77t21 -55.5t29.5 -37t40 -22q44 -14 106 -14t95.5 6.5t61.5 25t43 53.5q31 72 31 223q0 157 -26 219q-9 24 -18.5 40.5t-25.5 27.5t-29.5 17.5t-35.5 9.5q-34 5 -81 5t-70 -2t-53 -11t-45 -29.5t-30.5 -55t-21.5 -89.5z" />
    <glyph glyph-name="omacron" unicode="&#x14d;" horiz-adv-x="569" 
d="M145 596v47h279v-47h-279zM56 258q0 82 11.5 135t39.5 85t70 45t108 13q130 0 179.5 -61.5t49.5 -213t-49.5 -209t-180 -57.5t-179.5 58.5t-49 204.5zM117.5 345.5q-4.5 -36.5 -4.5 -79.5t2.5 -71t8.5 -49t13.5 -36t19.5 -25.5t24 -17t30 -9.5q30 -6 71 -6t65.5 3.5
t47 15.5t35.5 35q27 49 27 152q0 101 -19 146q-10 24 -22.5 39t-34 23t-43 10.5t-54 2.5t-53 -2t-42 -9.5t-34 -22t-23 -39t-15 -61z" />
    <glyph glyph-name="Ohungarumlaut" unicode="&#x150;" horiz-adv-x="675" 
d="M258 797l112 133h71l-133 -133h-50zM394 797l112 133h72l-133 -133h-51zM73 362q0 71 7 127.5t18.5 96t31 67.5t40.5 44t52 25q51 15 111 15t89 -3t60 -12t51.5 -25t40 -44t30.5 -67q25 -87 25 -196t-8 -168t-25 -99t-38 -65.5t-55 -38.5q-57 -23 -152 -23
q-135 0 -185 39q-51 39 -70 108q-23 84 -23 219zM136 493q-6 -55 -6 -123t3.5 -111.5t11 -77t21 -55.5t29.5 -37t40 -22q44 -14 106 -14t95.5 6.5t61.5 25t43 53.5q31 72 31 223q0 157 -26 219q-9 24 -18.5 40.5t-25.5 27.5t-29.5 17.5t-35.5 9.5q-34 5 -81 5t-70 -2
t-53 -11t-45 -29.5t-30.5 -55t-21.5 -89.5z" />
    <glyph glyph-name="ohungarumlaut" unicode="&#x151;" horiz-adv-x="569" 
d="M191 596l112 133h72l-133 -133h-51zM328 596l111 133h72l-133 -133h-50zM56 258q0 82 11.5 135t39.5 85t70 45t108 13q130 0 179.5 -61.5t49.5 -213t-49.5 -209t-180 -57.5t-179.5 58.5t-49 204.5zM117.5 345.5q-4.5 -36.5 -4.5 -79.5t2.5 -71t8.5 -49t13.5 -36
t19.5 -25.5t24 -17t30 -9.5q30 -6 71 -6t65.5 3.5t47 15.5t35.5 35q27 49 27 152q0 101 -19 146q-10 24 -22.5 39t-34 23t-43 10.5t-54 2.5t-53 -2t-42 -9.5t-34 -22t-23 -39t-15 -61z" />
    <glyph glyph-name="OE" unicode="&#x152;" horiz-adv-x="1054" 
d="M136 493q-6 -55 -6 -123t3.5 -111.5t11 -77t20.5 -55.5t29 -37t41 -22q44 -14 102 -14t88.5 4.5t56.5 17.5t42 34.5t27 57.5q20 63 20 197q0 95 -7 136.5t-12.5 64.5t-15.5 40t-19.5 29.5t-25 21t-28.5 13.5t-33 7q-32 4 -77 4t-67.5 -2t-52.5 -11t-45 -29.5t-30.5 -55
t-21.5 -89.5zM79 236q-6 54 -6 125.5t7 128t18 96t31 67.5t41 44t52 25q50 15 111 15t91 -3.5t61 -13.5q60 -19 93 -81q9 50 40 71.5t71 21.5h8l300 -14v-43h-300q-51 0 -63 -34q-6 -16 -6 -39q0 -184 1 -209l328 -8v-44l-328 -8l-1 -210q1 -47 26 -60q21 -9 53 -9h290v-42
l-290 -15h-12q-45 0 -77 18t-41 75q-32 -56 -85.5 -75t-118.5 -19t-94.5 2.5t-61 11.5t-52 25t-39.5 42.5t-30 65.5t-17 93z" />
    <glyph glyph-name="oe" unicode="&#x153;" horiz-adv-x="924" 
d="M66.5 136q-10.5 48 -10.5 139.5t22.5 151.5t71 84.5t131.5 24.5t130 -22t71 -71q27 72 106 86q36 6 78 6t62 -1t43.5 -5.5t38 -12t29.5 -21.5t23 -34q18 -44 18 -108t-33.5 -91.5t-103.5 -27.5h-230v-13q0 -124 49 -154q25 -15 68 -15q149 0 240 13v-42q-99 -28 -234 -28
q-65 0 -101 21t-54 67q-23 -47 -70 -67.5t-120.5 -20.5t-117 14t-70 46.5t-37 80.5zM117.5 345.5q-4.5 -36.5 -4.5 -85.5t4.5 -83t15.5 -56.5t24 -36.5t34 -21q35 -11 90.5 -11t87 8.5t52 32.5t28 64t7.5 107.5t-9 109.5t-31.5 65.5t-52 31.5t-70.5 8t-61.5 -2t-42 -9.5
t-34 -22t-23 -39t-15 -61zM743 290q40 0 60 12.5t20 51.5t-6 64.5t-25.5 39t-43 17t-64 3.5t-62 -2t-42.5 -9t-32 -19q-27 -29 -33 -85q-2 -23 -2 -43v-30h230z" />
    <glyph glyph-name="Racute" unicode="&#x154;" horiz-adv-x="586" 
d="M264 792l112 133h72l-133 -133h-51zM67 0v732h300q171 0 171 -213q0 -54 -10.5 -94t-25 -61t-35.5 -34q-30 -18 -67 -21l157 -309h-62l-156 307q-14 0 -114 6t-101 7v-320h-57zM124 368h243q68 0 90 36q23 37 23 100.5t-9.5 96.5t-26.5 48q-31 25 -77 25h-243v-306z" />
    <glyph glyph-name="racute" unicode="&#x155;" horiz-adv-x="425" 
d="M223 598l112 133h71l-133 -133h-50zM67 0v531h39l18 -67q2 1 18 10t19.5 11l17.5 10t19.5 10t19 8.5t21 8.5t20 6t22.5 5q29 4 66 4t56 -8v-56q-28 6 -57 6t-41 -1t-21 -1.5t-21.5 -4t-18.5 -4t-20 -6t-18 -7t-20 -8.5t-18.5 -8.5t-21.5 -10.5t-22 -10v-418h-57z" />
    <glyph glyph-name="Rcommaaccent" unicode="&#x156;" horiz-adv-x="586" 
d="M290 -228q-8 -1 -12 -1t-13 1v21h1q22 0 22 23v29h-8q-18 0 -18 19v51q0 20 18 20h33q18 0 18 -20v-88q0 -47 -41 -55zM67 0v732h300q171 0 171 -213q0 -54 -10.5 -94t-25 -61t-35.5 -34q-30 -18 -67 -21l157 -309h-62l-156 307q-14 0 -114 6t-101 7v-320h-57zM124 368
h243q68 0 90 36q23 37 23 100.5t-9.5 96.5t-26.5 48q-31 25 -77 25h-243v-306z" />
    <glyph glyph-name="rcommaaccent" unicode="&#x157;" horiz-adv-x="425" 
d="M89 -228q-7 -1 -10.5 -1h-6t-9.5 1v21h1q22 0 22 23v29h-8q-18 0 -18 19v51q0 20 18 20h33q18 0 18 -20v-88q0 -28 -9.5 -37t-16.5 -13t-14 -5zM66 0v531h38l19 -67q2 1 17.5 10t19 11t18 10t19.5 10t18.5 8.5t21 8.5t20.5 6t23 5q29 4 66 4t56 -8v-56q-28 6 -57.5 6
t-41.5 -1t-21 -1.5t-21.5 -4t-18.5 -4t-19.5 -6t-17.5 -7t-20 -8.5t-18.5 -8.5t-22 -10.5t-21.5 -10v-418h-57z" />
    <glyph glyph-name="Rcaron" unicode="&#x158;" horiz-adv-x="586" 
d="M148 925h53l91 -86l88 86h53l-113 -130h-55zM67 0v732h300q171 0 171 -213q0 -54 -10.5 -94t-25 -61t-35.5 -34q-30 -18 -67 -21l157 -309h-62l-156 307q-14 0 -114 6t-101 7v-320h-57zM124 368h243q68 0 90 36q23 37 23 100.5t-9.5 96.5t-26.5 48q-31 25 -77 25h-243
v-306z" />
    <glyph glyph-name="rcaron" unicode="&#x159;" horiz-adv-x="425" 
d="M92 727h53l92 -86l88 86h53l-114 -130h-54zM67 0v531h39l18 -67q2 1 18 10t19.5 11l17.5 10t19.5 10t19 8.5t21 8.5t20 6t22.5 5q29 4 66 4t56 -8v-56q-28 6 -57 6t-41 -1t-21 -1.5t-21.5 -4t-18.5 -4t-20 -6t-18 -7t-20 -8.5t-18.5 -8.5t-21.5 -10.5t-22 -10v-418h-57z
" />
    <glyph glyph-name="Sacute" unicode="&#x15a;" horiz-adv-x="584" 
d="M283 798l111 133h72l-133 -133h-50zM73 494v66q0 105 56 144q51 34 140 34q36 0 118 -8t123 -14v-44l-241 9h-14q-59 0 -92 -23t-33 -98v-66q0 -48 11 -65t20.5 -24t23.5 -11q25 -6 62 -6h133q95 0 129 -52q29 -44 29 -112v-68q0 -114 -87 -147q-45 -17 -97 -17
t-138.5 7.5t-122.5 14.5v44q97 -9 181.5 -9t101 1.5t37.5 8t35 17.5q33 26 33 80v68q0 53 -23 79.5t-78 26.5h-131q-127 0 -160 71q-16 36 -16 93z" />
    <glyph glyph-name="sacute" unicode="&#x15b;" horiz-adv-x="505" 
d="M228 601l112 133h71l-133 -133h-50zM45 360v46q0 64 31.5 97t106.5 33q37 0 123 -5t128 -9v-42h-251q-50 0 -65.5 -17.5t-15.5 -56.5v-46q0 -48 22 -59q19 -9 59 -9h148q61 0 95.5 -33t34.5 -90v-49q0 -79 -42 -104q-35 -21 -78.5 -21t-142 6t-131.5 10v41h264
q38 0 48 10q25 21 25 58v49q0 67 -73 67h-148q-75 0 -106.5 25t-31.5 99z" />
    <glyph glyph-name="Scircumflex" unicode="&#x15c;" horiz-adv-x="584" 
d="M168 798l122 130h54l109 -130h-53l-85 86l-93 -86h-54zM73 494v66q0 105 56 144q51 34 140 34q36 0 118 -8t123 -14v-44l-241 9h-14q-59 0 -92 -23t-33 -98v-66q0 -48 11 -65t20.5 -24t23.5 -11q25 -6 62 -6h133q95 0 129 -52q29 -44 29 -112v-68q0 -114 -87 -147
q-45 -17 -97 -17t-138.5 7.5t-122.5 14.5v44q97 -9 181.5 -9t101 1.5t37.5 8t35 17.5q33 26 33 80v68q0 53 -23 79.5t-78 26.5h-131q-127 0 -160 71q-16 36 -16 93z" />
    <glyph glyph-name="scircumflex" unicode="&#x15d;" horiz-adv-x="505" 
d="M109 596l122 130h54l109 -130h-53l-85 86l-93 -86h-54zM45 360v46q0 64 31.5 97t106.5 33q37 0 123 -5t128 -9v-42h-251q-50 0 -65.5 -17.5t-15.5 -56.5v-46q0 -48 22 -59q19 -9 59 -9h148q61 0 95.5 -33t34.5 -90v-49q0 -79 -42 -104q-35 -21 -78.5 -21t-142 6
t-131.5 10v41h264q38 0 48 10q25 21 25 58v49q0 67 -73 67h-148q-75 0 -106.5 25t-31.5 99z" />
    <glyph glyph-name="Scedilla" unicode="&#x15e;" horiz-adv-x="584" 
d="M345 -45q0 -78 -20.5 -107t-80.5 -29h-44v27l46 11q27 8 38 30t11 68h50zM73 494v66q0 105 56 144q51 34 140 34q36 0 118 -8t123 -14v-44l-241 9h-14q-59 0 -92 -23t-33 -98v-66q0 -48 11 -65t20.5 -24t23.5 -11q25 -6 62 -6h133q95 0 129 -52q29 -44 29 -112v-68
q0 -114 -87 -147q-45 -17 -97 -17t-138.5 7.5t-122.5 14.5v44q97 -9 181.5 -9t101 1.5t37.5 8t35 17.5q33 26 33 80v68q0 53 -23 79.5t-78 26.5h-131q-127 0 -160 71q-16 36 -16 93z" />
    <glyph glyph-name="scedilla" unicode="&#x15f;" horiz-adv-x="505" 
d="M293 -39q0 -78 -21 -107t-80 -29h-44v27l46 11q27 8 38 30t11 68h50zM45 360v46q0 64 31.5 97t106.5 33q37 0 123 -5t128 -9v-42h-251q-50 0 -65.5 -17.5t-15.5 -56.5v-46q0 -48 22 -59q19 -9 59 -9h148q61 0 95.5 -33t34.5 -90v-49q0 -79 -42 -104q-35 -21 -78.5 -21
t-142 6t-131.5 10v41h264q38 0 48 10q25 21 25 58v49q0 67 -73 67h-148q-75 0 -106.5 25t-31.5 99z" />
    <glyph glyph-name="Scaron" unicode="&#x160;" horiz-adv-x="584" 
d="M168 928h53l91 -86l88 86h53l-113 -130h-54zM73 494v66q0 105 56 144q51 34 140 34q36 0 118 -8t123 -14v-44l-241 9h-14q-59 0 -92 -23t-33 -98v-66q0 -48 11 -65t20.5 -24t23.5 -11q25 -6 62 -6h133q95 0 129 -52q29 -44 29 -112v-68q0 -114 -87 -147q-45 -17 -97 -17
t-138.5 7.5t-122.5 14.5v44q97 -9 181.5 -9t101 1.5t37.5 8t35 17.5q33 26 33 80v68q0 53 -23 79.5t-78 26.5h-131q-127 0 -160 71q-16 36 -16 93z" />
    <glyph glyph-name="scaron" unicode="&#x161;" horiz-adv-x="505" 
d="M115 731h53l91 -86l88 86h53l-113 -130h-55zM45 360v46q0 64 31.5 97t106.5 33q37 0 123 -5t128 -9v-42h-251q-50 0 -65.5 -17.5t-15.5 -56.5v-46q0 -48 22 -59q19 -9 59 -9h148q61 0 95.5 -33t34.5 -90v-49q0 -79 -42 -104q-35 -21 -78.5 -21t-142 6t-131.5 10v41h264
q38 0 48 10q25 21 25 58v49q0 67 -73 67h-148q-75 0 -106.5 25t-31.5 99z" />
    <glyph glyph-name="Tcommaaccent" unicode="&#x162;" horiz-adv-x="586" 
d="M322 -48q0 -77 -20.5 -106.5t-80.5 -29.5h-44v27l46 12q28 8 39 29.5t10 67.5h50zM46 675v57h511v-57h-230v-675h-57v675h-224z" />
    <glyph glyph-name="tcommaaccent" unicode="&#x163;" horiz-adv-x="368" 
d="M233 -51q0 -78 -20.5 -107t-80.5 -29h-43v27l45 11q28 8 39 30t10 68h50zM22 475v42l94 15l15 148h42v-148h162v-57h-162v-286q0 -79 23 -105q18 -21 46 -27q77 -17 84 -17v-40h-81q-129 0 -129 189v286h-94z" />
    <glyph glyph-name="Tcaron" unicode="&#x164;" horiz-adv-x="586" 
d="M152 927h53l91 -86l88 86h53l-113 -130h-54zM46 675v57h511v-57h-230v-675h-57v675h-224z" />
    <glyph glyph-name="tcaron" unicode="&#x165;" horiz-adv-x="357" 
d="M22 475v42l94 15l15 148h42v-148h162v-57h-162v-285q0 -79 22 -105q17 -21 47 -27q77 -18 84 -18v-39h-83q-40 0 -67 17q-60 38 -60 172v285h-94zM243 777l49 22l9 -44l-8 -111l-37 -46l-10 89z" />
    <glyph glyph-name="Tbar" unicode="&#x166;" horiz-adv-x="586" 
d="M39 675v57h511v-57h-230v-238h130v-40h-130v-397h-57v397h-123v40h123v238h-224z" />
    <glyph glyph-name="tbar" unicode="&#x167;" horiz-adv-x="357" 
d="M22 475v42l94 15l15 148h42v-148h162v-57h-162v-150h112v-40h-112v-95q1 -96 28 -116q14 -10 65 -21t54 -11v-41h-76q-68 0 -98 42.5t-30 146.5v95h-81v40h81v150h-94z" />
    <glyph glyph-name="Utilde" unicode="&#x168;" horiz-adv-x="679" 
d="M455 806q-48 -27 -107 13q-35 23 -52.5 23t-32.5 -5.5t-34.5 -18t-29.5 -16.5l-15 29q25 21 38 32q41 30 71 29.5t67.5 -23.5t47 -23.5t16 0.5t14 4t13 5.5t14.5 7.5l13.5 7.5t14 9t12.5 7.5l17 -30q-4 -3 -13 -10.5t-13 -11t-13 -10.5q-12 -10 -28 -19zM355 -5h-11
q-118 0 -155 25q-17 12 -39 35.5t-33 57.5q-27 85 -27 207v412h57v-412q0 -169 43 -218q16 -19 29 -29q23 -18 82 -20q16 -1 49 -1h5q73 0 93.5 8t36 17.5t25 23t20 34t16.5 46.5q13 60 13 139v412h57v-412q0 -196 -65 -263q-23 -24 -41.5 -36t-50.5 -18q-41 -8 -104 -8z
" />
    <glyph glyph-name="utilde" unicode="&#x169;" 
d="M360 604q-41 -20 -97 17q-35 23 -52.5 23t-32 -5.5t-34.5 -17.5t-30 -17l-15 30q25 21 39 31q40 31 70 30t68 -24t47 -23t15.5 1t14.5 4t13.5 5t14.5 7.5t13 8t14 8.5t12 7l17 -30q-3 -2 -14 -11.5t-15.5 -13t-14.5 -11.5q-12 -9 -33 -19zM56 161v370h57v-370
q0 -52 29.5 -82.5t82 -30.5t92.5 13t106 46v424h57v-531h-39l-18 62q-38 -22 -63 -35q-69 -36 -142.5 -36t-117.5 50t-44 120z" />
    <glyph glyph-name="Umacron" unicode="&#x16a;" horiz-adv-x="679" 
d="M214 797v47h278v-47h-278zM355 -5h-11q-118 0 -155 25q-17 12 -39 35.5t-33 57.5q-27 85 -27 207v412h57v-412q0 -169 43 -218q16 -19 29 -29q23 -18 82 -20q16 -1 49 -1h5q73 0 93.5 8t36 17.5t25 23t20 34t16.5 46.5q13 60 13 139v412h57v-412q0 -196 -65 -263
q-23 -24 -41.5 -36t-50.5 -18q-41 -8 -104 -8z" />
    <glyph glyph-name="umacron" unicode="&#x16b;" 
d="M129 596v47h278v-47h-278zM56 161v370h57v-370q0 -52 29.5 -82.5t82 -30.5t92.5 13t106 46v424h57v-531h-39l-18 62q-38 -22 -63 -35q-69 -36 -142.5 -36t-117.5 50t-44 120z" />
    <glyph glyph-name="Ubreve" unicode="&#x16c;" horiz-adv-x="679" 
d="M238 911h36q0 -33 23.5 -55.5t53.5 -22.5q35 0 58 21.5t23 56.5h36q0 -55 -38 -86q-34 -28 -78 -28t-79 31.5t-35 82.5zM355 -5h-11q-118 0 -155 25q-17 12 -39 35.5t-33 57.5q-27 85 -27 207v412h57v-412q0 -169 43 -218q16 -19 29 -29q23 -18 82 -20q16 -1 49 -1h5
q73 0 93.5 8t36 17.5t25 23t20 34t16.5 46.5q13 60 13 139v412h57v-412q0 -196 -65 -263q-23 -24 -41.5 -36t-50.5 -18q-41 -8 -104 -8z" />
    <glyph glyph-name="ubreve" unicode="&#x16d;" 
d="M158 710h36q0 -33 23.5 -55.5t54.5 -22.5q35 0 58 21.5t23 56.5h35q0 -55 -37 -86q-35 -28 -79 -28q-43 0 -77 30q-37 31 -37 84zM56 161v370h57v-370q0 -52 29.5 -82.5t82 -30.5t92.5 13t106 46v424h57v-531h-39l-18 62q-38 -22 -63 -35q-69 -36 -142.5 -36t-117.5 50
t-44 120z" />
    <glyph glyph-name="Uring" unicode="&#x16e;" horiz-adv-x="679" 
d="M252 899q0 28 13.5 51.5t37 37.5t51 14t50.5 -14t36.5 -37.5t13.5 -59t-29 -65t-64 -29.5t-58.5 13.5t-37 37t-13.5 51.5zM306.5 945.5q-19.5 -19.5 -19.5 -42t9 -37.5q20 -32 52.5 -32t51 19t18.5 46t-18.5 46.5t-46 19.5t-47 -19.5zM355 -5h-11q-118 0 -155 25
q-17 12 -39 35.5t-33 57.5q-27 85 -27 207v412h57v-412q0 -169 43 -218q16 -19 29 -29q23 -18 82 -20q16 -1 49 -1h5q73 0 93.5 8t36 17.5t25 23t20 34t16.5 46.5q13 60 13 139v412h57v-412q0 -196 -65 -263q-23 -24 -41.5 -36t-50.5 -18q-41 -8 -104 -8z" />
    <glyph glyph-name="uring" unicode="&#x16f;" 
d="M167 702q0 24 13.5 47.5t37 37.5t58.5 14t64 -30t29 -73t-29 -72.5t-71.5 -29.5t-72 29.5t-29.5 76.5zM202 698q0 -27 20 -46t42 -19t37 8q33 19 33 57q0 33 -27 53q-17 13 -41 13t-44 -19.5t-20 -46.5zM56 161v370h57v-370q0 -52 29.5 -82.5t82 -30.5t92.5 13t106 46
v424h57v-531h-39l-18 62q-38 -22 -63 -35q-69 -36 -142.5 -36t-117.5 50t-44 120z" />
    <glyph glyph-name="Uhungarumlaut" unicode="&#x170;" horiz-adv-x="679" 
d="M260 797l111 133h72l-133 -133h-50zM396 797l112 133h71l-133 -133h-50zM355 -5h-11q-118 0 -155 25q-17 12 -39 35.5t-33 57.5q-27 85 -27 207v412h57v-412q0 -169 43 -218q16 -19 29 -29q23 -18 82 -20q16 -1 49 -1h5q73 0 93.5 8t36 17.5t25 23t20 34t16.5 46.5
q13 60 13 139v412h57v-412q0 -196 -65 -263q-23 -24 -41.5 -36t-50.5 -18q-41 -8 -104 -8z" />
    <glyph glyph-name="uhungarumlaut" unicode="&#x171;" 
d="M175 596l111 133h72l-133 -133h-50zM311 596l112 133h71l-133 -133h-50zM56 161v370h57v-370q0 -52 29.5 -82.5t82 -30.5t92.5 13t106 46v424h57v-531h-39l-18 62q-38 -22 -63 -35q-69 -36 -142.5 -36t-117.5 50t-44 120z" />
    <glyph glyph-name="Uogonek" unicode="&#x172;" horiz-adv-x="679" 
d="M366 -4q-65 -43 -65 -87q0 -16 11 -28q20 -21 67 -22v-44q-10 -1 -26 -1t-41 9t-41 30q-18 26 -18 50t20.5 49.5t63.5 43.5h29zM355 -5h-11q-118 0 -155 25q-17 12 -39 35.5t-33 57.5q-27 85 -27 207v412h57v-412q0 -169 43 -218q16 -19 29 -29q23 -18 82 -20
q16 -1 49 -1h5q73 0 93.5 8t36 17.5t25 23t20 34t16.5 46.5q13 60 13 139v412h57v-412q0 -196 -65 -263q-23 -24 -41.5 -36t-50.5 -18q-41 -8 -104 -8z" />
    <glyph glyph-name="uogonek" unicode="&#x173;" horiz-adv-x="574" 
d="M484 0q-65 -42 -65 -86q0 -16 11 -29q20 -21 67 -21v-45q-10 -1 -26 -1t-41.5 9.5t-40.5 30.5q-18 25 -18 49.5t20 49.5t63 43h30zM64 161v370h57v-370q0 -52 29.5 -82.5t82 -30.5t92.5 13t106 46v424h57v-531h-39l-18 62q-38 -22 -63 -35q-69 -36 -142.5 -36t-117.5 50
t-44 120z" />
    <glyph glyph-name="Wcircumflex" unicode="&#x174;" horiz-adv-x="965" 
d="M359 794l122 130h53l110 -130h-53l-85 86l-94 -86h-53zM50 732h63l226 -639l203 639h64l-80 -257l144 -386l207 643h62l-237 -732h-61l-145 381l-126 -381h-61z" />
    <glyph glyph-name="wcircumflex" unicode="&#x175;" horiz-adv-x="793" 
d="M261 593l122 130h54l109 -130h-53l-85 86l-94 -86h-53zM22 531h63l170 -448l155 448h62l-61 -180l123 -268l175 448h62l-206 -531h-58l-124 275l-97 -275h-62z" />
    <glyph glyph-name="Ycircumflex" unicode="&#x176;" horiz-adv-x="626" 
d="M176 794l122 130h54l109 -130h-53l-85 86l-93 -86h-54zM344 0h-57v260l-237 472h63l202 -403l223 403h62l-256 -472v-260z" />
    <glyph glyph-name="ycircumflex" unicode="&#x177;" horiz-adv-x="545" 
d="M130 596l122 130h54l109 -130h-53l-85 86l-94 -86h-53zM286 58q3 0 13 1l159 472h63l-234 -699l-65 -102h-34l91 270q-86 1 -119 110l-137 421h63l135 -415q20 -58 65 -58z" />
    <glyph glyph-name="Ydieresis" unicode="&#x178;" horiz-adv-x="626" 
d="M159 836.5q0 16.5 11.5 28t28 11.5t27.5 -11.5t11 -28t-11.5 -28t-27.5 -11.5t-27.5 11.5t-11.5 28zM425 808.5q-12 11.5 -12 25.5t6 22q11 20 31 20t31 -11.5t11 -28t-11.5 -28t-27.5 -11.5t-28 11.5zM344 0h-57v260l-237 472h63l202 -403l223 403h62l-256 -472v-260z
" />
    <glyph glyph-name="Zacute" unicode="&#x179;" horiz-adv-x="558" 
d="M262 797l112 133h71l-133 -133h-50zM39 0v57l409 618h-409v57h483v-57l-409 -618h409v-57h-483z" />
    <glyph glyph-name="zacute" unicode="&#x17a;" horiz-adv-x="462" 
d="M207 594l111 133h72l-133 -133h-50zM33 474v57h396v-57l-306 -416h306v-57h-380v57l309 416h-325z" />
    <glyph glyph-name="Zdotaccent" unicode="&#x17b;" horiz-adv-x="558" 
d="M243 816v57q0 21 19 21h37q19 0 19 -21v-57q0 -19 -19 -19h-37q-8 0 -13.5 5.5t-5.5 13.5zM39 0v57l409 618h-409v57h483v-57l-409 -618h409v-57h-483z" />
    <glyph glyph-name="zdotaccent" unicode="&#x17c;" horiz-adv-x="462" 
d="M193 615v57q0 21 20 21h37q19 0 19 -21v-57q0 -19 -19 -19h-37q-8 0 -14 5.5t-6 13.5zM33 474v57h396v-57l-306 -416h306v-57h-380v57l309 416h-325z" />
    <glyph glyph-name="Zcaron" unicode="&#x17d;" horiz-adv-x="558" 
d="M138 927h53l91 -86l88 86h53l-113 -130h-55zM39 0v57l409 618h-409v57h483v-57l-409 -618h409v-57h-483z" />
    <glyph glyph-name="zcaron" unicode="&#x17e;" horiz-adv-x="462" 
d="M96 726h53l91 -86l88 86h53l-113 -130h-54zM33 474v57h396v-57l-306 -416h306v-57h-380v57l309 416h-325z" />
    <glyph glyph-name="florin" unicode="&#x192;" horiz-adv-x="595" 
d="M113 -147q41 0 66 40q25 41 34 81q14 58 23 114l49 317h-102l10 58h102l7 43q27 173 71 236q41 58 106 58q43 0 87 -18l7 -3l-6 -36h-88q-31 0 -50 -22q-10 -13 -17.5 -24t-14.5 -32.5t-11.5 -35t-10.5 -41.5q-7 -37 -14 -82l-7 -44h142l-10 -57h-142l-49 -317
q-20 -127 -34 -162.5t-28 -59.5t-30 -38q-39 -32 -90 -32q-26 0 -54.5 8t-36.5 13l6 36h85z" />
    <glyph glyph-name="circumflex" unicode="&#x2c6;" horiz-adv-x="397" 
d="M56 531l122 130h54l109 -130h-53l-85 86l-93 -86h-54z" />
    <glyph glyph-name="caron" unicode="&#x2c7;" horiz-adv-x="397" 
d="M56 661h53l91 -86l88 86h53l-113 -130h-55z" />
    <glyph glyph-name="breve" unicode="&#x2d8;" horiz-adv-x="340" 
d="M56 644h36q0 -33 23.5 -55.5t53.5 -22.5q35 0 58 21.5t23 56.5h36q0 -55 -37 -86q-35 -28 -79 -28t-79 31.5t-35 82.5z" />
    <glyph glyph-name="dotaccent" unicode="&#x2d9;" horiz-adv-x="187" 
d="M54 563v57q0 21 20 21h37q19 0 19 -21v-57q0 -19 -19 -19h-37q-9 0 -14.5 5.5t-5.5 13.5z" />
    <glyph glyph-name="ring" unicode="&#x2da;" horiz-adv-x="314" 
d="M56 632q0 28 14 51.5t37.5 37.5t51 14t50.5 -14t36.5 -37.5t13.5 -59t-29.5 -65t-64 -29.5t-58 13.5t-37.5 37t-14 51.5zM92 632q0 -27 19.5 -46t46.5 -19t46 19t19 46t-19 46.5t-46 19.5t-46.5 -19.5t-19.5 -46.5z" />
    <glyph glyph-name="ogonek" unicode="&#x2db;" horiz-adv-x="235" 
d="M167 0q-65 -43 -65 -87q0 -16 11 -28q20 -21 67 -22v-44q-10 -1 -26 -1t-41.5 9t-40.5 30q-18 26 -18 50t20 49.5t63 43.5h30z" />
    <glyph glyph-name="tilde" unicode="&#x2dc;" horiz-adv-x="449" 
d="M317.5 542.5q-9.5 -4.5 -17.5 -6t-12 -1.5q-31 0 -67 23.5t-53 23.5t-32 -5t-35 -17.5t-30 -17.5l-15 30q25 21 39 31q40 31 70 30.5t68 -24t47.5 -23.5t16 1t14 4t13 5.5t14.5 7.5t13 7.5t14 8.5t13 8l16 -30q-3 -3 -14 -12.5t-15.5 -13t-14.5 -11.5t-16.5 -11t-16 -7.5
z" />
    <glyph glyph-name="hungarumlaut" unicode="&#x2dd;" horiz-adv-x="367" 
d="M22 531l112 133h72l-133 -133h-51zM159 531l111 133h72l-133 -133h-50z" />
    <glyph glyph-name="uni0338" unicode="&#x338;" horiz-adv-x="648" 
d="M78 162v408q0 78 48.5 120t123.5 42h154q86 0 126.5 -45t40.5 -117v-408q0 -162 -167 -162h-154q-72 0 -120 36q-52 39 -52 126zM135 162q0 -34 15 -58l305 557q-18 14 -51 14h-154q-56 0 -85.5 -28.5t-29.5 -76.5v-408zM250 57h154q110 0 110 105v408q0 45 -19 69
l-308 -564q26 -18 63 -18z" />
    <glyph glyph-name="Omega" unicode="&#x3a9;" horiz-adv-x="783" 
d="M73 331q-1 21 -1 64t8 89t29.5 94t56 82.5t93 56.5t119 22t99.5 -7.5t69 -22.5t54.5 -34.5t41.5 -45t29.5 -53.5t20.5 -61q14 -62 14 -121.5t-5.5 -99.5t-20.5 -84q-29 -89 -117 -151l148 -11v-48h-228v60q103 68 136 149q30 71 30 176q0 165 -76 237q-62 60 -181 60
q-263 0 -263 -302q0 -56 5.5 -92.5t23.5 -75t51 -74t89 -78.5v-60h-220v49l150 11q-77 53 -108 107q-17 29 -27 53t-14.5 57t-5.5 54z" />
    <glyph glyph-name="pi" unicode="&#x3c0;" horiz-adv-x="626" 
d="M22 474v57h533v-57h-129v-308q0 -90 43 -107q15 -6 35 -6h99v-34q-56 -24 -99 -24q-68 0 -101.5 38t-33.5 133v308h-204v-474h-57v474h-86z" />
    <glyph glyph-name="uni1E02" unicode="&#x1e02;" horiz-adv-x="597" 
d="M273 814v56q0 21 20 21h36q20 0 20 -21v-56q0 -20 -20 -20h-36q-9 0 -14.5 5.5t-5.5 14.5zM90 0v732h272q144 0 180 -120q10 -31 10 -68q0 -62 -27.5 -106t-77.5 -57q40 -9 74 -54.5t34 -122.5q0 -83 -38 -140q-44 -64 -155 -64h-272zM147 57h215q136 0 136 149
q0 63 -36.5 106t-98.5 43q-1 0 -1 -1h-215v-297zM147 412h215q62 0 97.5 34.5t35.5 101.5q0 127 -133 127h-215v-263z" />
    <glyph glyph-name="uni1E03" unicode="&#x1e03;" horiz-adv-x="553" 
d="M59 870v57q0 21 20 21h36q20 0 20 -21v-57q0 -19 -20 -19h-36q-12 0 -16 6.5t-4 12.5zM67 0v785h55v-286q45 18 102.5 29t94.5 11t66 -10.5t48 -31t32 -45.5t20 -57q13 -60 13 -116t-4.5 -91.5t-17 -72t-32 -62.5t-51.5 -42.5t-76 -16.5t-107 23t-87 42l-16 -59h-40z
M319 51q56 0 89 53.5t33 158.5q0 129 -35 176q-31 43 -87 43q-91 0 -196 -27v-355q111 -49 196 -49z" />
    <glyph glyph-name="uni1E0A" unicode="&#x1e0a;" horiz-adv-x="661" 
d="M288 820v56q0 21 20 21h37q19 0 19 -21v-56q0 -20 -19 -20h-37q-12 0 -16 7t-4 13zM90 0v732h265q83 0 136 -37q54 -38 78 -91q28 -61 35 -107q11 -74 11 -130t-8.5 -105.5t-28.5 -97.5t-49 -84t-74 -58t-100 -22h-265zM147 59h208q52 0 92 26t64 70q47 88 47 209
q0 311 -203 311h-208v-616z" />
    <glyph glyph-name="uni1E0B" unicode="&#x1e0b;" horiz-adv-x="553" 
d="M419 865v57q0 20 20 20h37q19 0 19 -20v-57q0 -19 -19 -19h-37q-9 0 -14.5 5t-5.5 14zM60.5 187.5q-4.5 35.5 -4.5 78t4 79t15.5 74t30.5 62.5q43 58 128 58q37 0 94.5 -11t102.5 -29v286h55v-785h-39l-17 59q-23 -19 -86.5 -42t-107.5 -23t-76 16.5t-51.5 42.5
t-31.5 62.5t-16.5 72zM145.5 103.5q32.5 -52.5 88.5 -52.5q85 0 196 49v355q-105 27 -196 27q-72 0 -99 -65q-22 -52 -22 -156.5t32.5 -157z" />
    <glyph glyph-name="uni1E1E" unicode="&#x1e1e;" horiz-adv-x="572" 
d="M275 823v57q0 21 20 21h36q20 0 20 -21v-57q0 -19 -20 -19h-36q-9 0 -14.5 5.5t-5.5 13.5zM90 0v602q0 69 34.5 99.5t83.5 30.5h8l309 -14v-43h-309q-39 0 -54 -18.5t-15 -54.5v-209l338 -8v-44l-338 -8v-333h-57z" />
    <glyph glyph-name="uni1E1F" unicode="&#x1e1f;" horiz-adv-x="394" 
d="M215 879v57q0 20 20 20h36q20 0 20 -20v-57q0 -19 -20 -19h-36q-9 0 -14.5 5t-5.5 14zM22 474v42l94 15v99q0 82 25 117q12 16 34 27.5t54 11.5q78 0 143 -20v-36h-129h-12.5t-26 -6.5t-21.5 -21.5q-10 -25 -10 -72v-99h158v-57h-158v-474h-57v474h-94z" />
    <glyph glyph-name="uni1E40" unicode="&#x1e40;" horiz-adv-x="799" 
d="M361 816v57q0 21 20 21h36q20 0 20 -21v-57q0 -19 -20 -19h-36q-12 0 -16 7t-4 12zM61 0l60 732h79l201 -637l196 637h80l65 -732h-57l-57 634l-196 -634h-59l-202 634l-53 -634h-57z" />
    <glyph glyph-name="uni1E41" unicode="&#x1e41;" horiz-adv-x="909" 
d="M445 617v57q0 21 20 21h37q19 0 19 -21v-57q0 -19 -19 -19h-37q-8 0 -14 5.5t-6 13.5zM67 0v531h39l18 -63q91 54 143 65q27 5 66 5t78 -21.5t57 -57.5q58 46 138 68q42 11 83 11q72 0 118 -48.5t46 -122.5v-367h-57v367q0 50 -29.5 82t-82.5 32q-103 0 -202 -61
q5 -13 5 -51v-369h-57v367q0 50 -30 82t-81.5 32t-90 -12.5t-104.5 -45.5v-423h-57z" />
    <glyph glyph-name="uni1E56" unicode="&#x1e56;" horiz-adv-x="582" 
d="M258 834v57q0 21 20 21h37q19 0 19 -21v-57q0 -19 -19 -19h-37q-9 0 -14.5 5.5t-5.5 13.5zM67 0v732h293q78 0 117 -37q58 -54 58 -171q0 -184 -109 -211q-28 -7 -62 -7t-135 7.5t-105 9.5v-323h-57zM124 364h236q50 0 81 26q36 32 36 131q0 111 -56 140q-25 13 -61 13
h-236v-310z" />
    <glyph glyph-name="uni1E57" unicode="&#x1e57;" horiz-adv-x="553" 
d="M256 624v57q0 20 20 20h36q20 0 20 -20v-57q0 -19 -20 -19h-36q-13 0 -16.5 6.5t-3.5 12.5zM67 -269v800h40l16 -59q23 19 86.5 42t107.5 23t76 -16.5t51.5 -42.5t31.5 -63q22 -63 22 -127.5t-4 -101t-16 -74t-31 -62.5q-43 -58 -128 -58q-37 0 -94.5 11t-102.5 29v-301
h-55zM319 49q56 0 87 43q35 47 35 164t-33 170.5t-89 53.5q-85 0 -196 -49v-355q105 -27 196 -27z" />
    <glyph glyph-name="uni1E60" unicode="&#x1e60;" horiz-adv-x="584" 
d="M267 824v57q0 20 20 20h37q19 0 19 -20v-57q0 -19 -19 -19h-37q-8 0 -14 5t-6 14zM73 494v66q0 105 56 144q51 34 140 34q36 0 118 -8t123 -14v-44l-241 9h-14q-59 0 -92 -23t-33 -98v-66q0 -48 11 -65t20.5 -24t23.5 -11q25 -6 62 -6h133q95 0 129 -52q29 -44 29 -112
v-68q0 -114 -87 -147q-45 -17 -97 -17t-138.5 7.5t-122.5 14.5v44q97 -9 181.5 -9t101 1.5t37.5 8t35 17.5q33 26 33 80v68q0 53 -23 79.5t-78 26.5h-131q-127 0 -160 71q-16 36 -16 93z" />
    <glyph glyph-name="uni1E61" unicode="&#x1e61;" horiz-adv-x="505" 
d="M230 623v57q0 20 20 20h37q19 0 19 -20v-57q0 -19 -19 -19h-37q-12 0 -16 6.5t-4 12.5zM45 360v46q0 64 31.5 97t106.5 33q37 0 123 -5t128 -9v-42h-251q-50 0 -65.5 -17.5t-15.5 -56.5v-46q0 -48 22 -59q19 -9 59 -9h148q61 0 95.5 -33t34.5 -90v-49q0 -79 -42 -104
q-35 -21 -78.5 -21t-142 6t-131.5 10v41h264q38 0 48 10q25 21 25 58v49q0 67 -73 67h-148q-75 0 -106.5 25t-31.5 99z" />
    <glyph glyph-name="uni1E6A" unicode="&#x1e6a;" horiz-adv-x="586" 
d="M256 816v57q0 21 20 21h37q19 0 19 -21v-57q0 -19 -19 -19h-37q-12 0 -16 7t-4 12zM46 675v57h511v-57h-230v-675h-57v675h-224z" />
    <glyph glyph-name="uni1E6B" unicode="&#x1e6b;" horiz-adv-x="368" 
d="M114 760v57q0 20 20 20h37q19 0 19 -20v-57q0 -19 -19 -19h-37q-9 0 -14.5 5t-5.5 14zM22 475v42l94 15l15 148h42v-148h162v-57h-162v-286q0 -79 23 -105q18 -21 46 -27q77 -17 84 -17v-40h-81q-129 0 -129 189v286h-94z" />
    <glyph glyph-name="Wgrave" unicode="&#x1e80;" horiz-adv-x="965" 
d="M343 927h71l112 -133h-50zM50 732h63l226 -639l203 639h64l-80 -257l144 -386l207 643h62l-237 -732h-61l-145 381l-126 -381h-61z" />
    <glyph glyph-name="wgrave" unicode="&#x1e81;" horiz-adv-x="793" 
d="M245 726h72l111 -133h-50zM22 531h63l170 -448l155 448h62l-61 -180l123 -268l175 448h62l-206 -531h-58l-124 275l-97 -275h-62z" />
    <glyph glyph-name="Wacute" unicode="&#x1e82;" horiz-adv-x="965" 
d="M477 794l111 133h72l-133 -133h-50zM50 732h63l226 -639l203 639h64l-80 -257l144 -386l207 643h62l-237 -732h-61l-145 381l-126 -381h-61z" />
    <glyph glyph-name="wacute" unicode="&#x1e83;" horiz-adv-x="793" 
d="M379 593l111 133h72l-133 -133h-50zM22 531h63l170 -448l155 448h62l-61 -180l123 -268l175 448h62l-206 -531h-58l-124 275l-97 -275h-62z" />
    <glyph glyph-name="Wdieresis" unicode="&#x1e84;" horiz-adv-x="965" 
d="M338 818q-3 7 -3 19.5t11.5 23.5t28 11t27.5 -11t11 -27.5t-11.5 -28t-23.5 -11.5t-19.5 3t-12.5 8.5t-8 12.5zM594.5 813.5q-5.5 9.5 -5.5 23t12 24.5t28.5 11t27.5 -11t11 -27.5t-11.5 -28t-25 -11.5t-22.5 5t-14.5 14.5zM50 732h63l226 -639l203 639h64l-80 -257
l144 -386l207 643h62l-237 -732h-61l-145 381l-126 -381h-61z" />
    <glyph glyph-name="wdieresis" unicode="&#x1e85;" horiz-adv-x="793" 
d="M237 632.5q0 16.5 11.5 27.5t28 11t27.5 -11t11 -27.5t-11 -28t-27.5 -11.5t-28 11.5t-11.5 28zM497 612.5q-5 9.5 -5 23t11.5 24.5t28 11t27.5 -11t11 -27.5t-11 -28t-24.5 -11.5t-23 5t-14.5 14.5zM22 531h63l170 -448l155 448h62l-61 -180l123 -268l175 448h62
l-206 -531h-58l-124 275l-97 -275h-62z" />
    <glyph glyph-name="Ygrave" unicode="&#x1ef2;" horiz-adv-x="626" 
d="M167 930h72l111 -133h-50zM344 0h-57v260l-237 472h63l202 -403l223 403h62l-256 -472v-260z" />
    <glyph glyph-name="ygrave" unicode="&#x1ef3;" horiz-adv-x="545" 
d="M121 729h71l112 -133h-50zM286 58q3 0 13 1l159 472h63l-234 -699l-65 -102h-34l91 270q-86 1 -119 110l-137 421h63l135 -415q20 -58 65 -58z" />
    <glyph glyph-name="endash" unicode="&#x2013;" horiz-adv-x="517" 
d="M22 258v58h473v-58h-473z" />
    <glyph glyph-name="emdash" unicode="&#x2014;" horiz-adv-x="740" 
d="M22 260v58h696v-58h-696z" />
    <glyph glyph-name="quoteleft" unicode="&#x2018;" horiz-adv-x="235" 
d="M104 729.5q12 5.5 21.5 7.5t14.5 2t16 -2v-26q-18 1 -23.5 -7.5t-5.5 -20.5v-31h11q14 0 18.5 -8t4.5 -16v-60q0 -25 -23 -25h-41q-22 0 -22 25v101q0 23 8.5 39t20.5 21.5z" />
    <glyph glyph-name="quoteright" unicode="&#x2019;" horiz-adv-x="235" 
d="M132 551.5q-12 -5.5 -21.5 -7.5t-14.5 -2t-16 2v25h1q28 0 28 29v31h-11q-23 0 -23 24v60q0 26 24 26h40q23 0 23 -26l-1 -101q0 -24 -8.5 -39.5t-20.5 -21z" />
    <glyph glyph-name="quotesinglbase" unicode="&#x201a;" horiz-adv-x="235" 
d="M133 -79q-12 -6 -22 -7.5t-15 -1.5t-16 2v25h2q27 0 27 30v30h-11q-10 0 -16.5 6.5t-6.5 17.5v60q0 26 23 26h41q22 0 22 -26v-100q0 -24 -8 -40t-20 -22z" />
    <glyph glyph-name="quotedblleft" unicode="&#x201c;" horiz-adv-x="362" 
d="M237 729.5q12 5.5 22 7.5t15 2t16 -2v-26h-2q-27 0 -27 -28v-31h11q22 0 22 -24v-60q0 -25 -22 -25h-41q-23 0 -23 25v101q0 23 8.5 39t20.5 21.5zM97 729.5q12 5.5 21.5 7.5t14.5 2t17 -2v-26h-2q-27 0 -27 -28v-31h10q24 0 24 -24v-60q0 -25 -24 -25h-41q-22 0 -22 25
v101q0 23 8.5 39t20.5 21.5z" />
    <glyph glyph-name="quotedblright" unicode="&#x201d;" horiz-adv-x="362" 
d="M126 551.5q-12 -5.5 -22 -7.5t-15 -2t-16 2v25h2q26 0 26 29v31h-10q-10 0 -16.5 6t-6.5 18v60q0 26 23 26h41q23 0 23 -26v-101q0 -24 -8.5 -39.5t-20.5 -21zM266 551.5q-12 -5.5 -22 -7.5t-15 -2t-16 2v25h2q27 0 27 29v31h-10q-24 0 -24 24v60q0 26 24 26h41
q21 0 21 -26v-101q0 -24 -8 -39.5t-20 -21z" />
    <glyph glyph-name="quotedblbase" unicode="&#x201e;" horiz-adv-x="362" 
d="M126 -78.5q-12 -5.5 -22 -7t-15 -1.5t-16 1v26h2q26 0 26 29v31h-10q-10 0 -16.5 6t-6.5 18v60q0 26 23 26h41q23 0 23 -26v-101q0 -24 -8.5 -40t-20.5 -21.5zM266 -78.5q-12 -5.5 -22 -7t-15 -1.5t-16 1v26h2q27 0 27 29v31h-10q-24 0 -24 24v60q0 26 24 26h41
q21 0 21 -26v-101q0 -24 -8 -40t-20 -21.5z" />
    <glyph glyph-name="dagger" unicode="&#x2020;" horiz-adv-x="388" 
d="M22 497v44l143 7l7 222h46l7 -222l141 -7v-44l-141 -8l-8 -561h-46l-6 561z" />
    <glyph glyph-name="daggerdbl" unicode="&#x2021;" horiz-adv-x="411" 
d="M22 181v43l144 8l-1 257l-143 8v44l143 7l7 222h46l7 -222l141 -7v-44l-141 -8l-3 -257l144 -8v-43l-145 -9l-4 -244h-46l-4 244z" />
    <glyph glyph-name="bullet" unicode="&#x2022;" horiz-adv-x="315" 
d="M95 350v62q0 36 33 36h57q35 0 35 -36v-62q0 -32 -35 -32h-57q-15 0 -24 8.5t-9 23.5z" />
    <glyph glyph-name="ellipsis" unicode="&#x2026;" horiz-adv-x="813" 
d="M637 19v59q0 21 20 21h39q20 0 20 -21v-59q0 -19 -20 -19h-39q-9 0 -14.5 5.5t-5.5 13.5zM365 19v59q0 21 20 21h39q20 0 20 -21v-59q0 -19 -20 -19h-39q-9 0 -14.5 5.5t-5.5 13.5zM93 19v59q0 21 20 21h39q20 0 20 -21v-59q0 -19 -20 -19h-39q-9 0 -14.5 5.5t-5.5 13.5z
" />
    <glyph glyph-name="perthousand" unicode="&#x2030;" horiz-adv-x="1380" 
d="M47 474v133q0 66 28 95.5t101 29.5h101q71 0 99 -29.5t28 -95.5v-133q0 -66 -28 -95.5t-101 -29.5h-101q-71 0 -99 29.5t-28 95.5zM95 474q0 -45 17.5 -61t61.5 -16h101q48 0 64.5 16t16.5 61v133q0 57 -31 70q-17 7 -48 7h-101q-61 0 -74 -30q-7 -16 -7 -47v-133zM232 0
l438 732h54l-438 -732h-54zM551 127v133q0 67 28 96t101 29h101q71 0 99 -29.5t28 -95.5v-133q0 -66 -28 -95.5t-101 -29.5h-101q-71 0 -99 29.5t-28 95.5zM599 127q0 -45 17.5 -61t61.5 -16h101q48 0 64.5 16t16.5 61v133q0 57 -32 70q-16 7 -47 7h-101q-49 0 -65 -15.5
t-16 -61.5v-133zM977 127v133q0 45 11 71q22 54 118 54h101q71 0 99 -29.5t28 -95.5v-133q0 -44 -11 -70q-23 -55 -118 -55h-101q-72 0 -99.5 29.5t-27.5 95.5zM1025 127q0 -45 17 -61t62 -16h101q48 0 64.5 16t16.5 61v133q0 44 -17 60.5t-62 16.5h-101q-49 0 -65 -15.5
t-16 -61.5v-133z" />
    <glyph glyph-name="guilsinglleft" unicode="&#x2039;" horiz-adv-x="355" 
d="M56 354l206 203l40 -40l-167 -163l172 -168l-40 -40z" />
    <glyph glyph-name="guilsinglright" unicode="&#x203a;" horiz-adv-x="355" 
d="M56 186l172 168l-167 163l40 40l206 -203l-211 -208z" />
    <glyph glyph-name="fraction" unicode="&#x2044;" horiz-adv-x="208" 
d="M-101 0l361 745h49l-361 -745h-49z" />
    <glyph glyph-name="zerosuperior" unicode="&#x2070;" horiz-adv-x="482" 
d="M67 498v255q0 79 55 100q25 10 62 10h117q113 0 113 -110v-255q0 -66 -28.5 -88t-84.5 -22h-117q-49 0 -80 17q-37 21 -37 93zM115 502q0 -51 29 -61q15 -6 44 -6h109q44 0 57.5 15t13.5 52v247q0 35 -15 51t-56 16h-109q-42 0 -57.5 -16t-15.5 -51v-247z" />
    <glyph glyph-name="foursuperior" unicode="&#x2074;" horiz-adv-x="414" 
d="M292 574v121l21 48h26v-169h59v-37l-59 -12v-136h-47v136h-258l-16 19l202 319h54l-182 -289h200z" />
    <glyph glyph-name="fivesuperior" unicode="&#x2075;" horiz-adv-x="430" 
d="M217 677l59 -2q109 0 109 -113v-64q0 -40 -14 -66q-27 -48 -95 -48q-147 0 -215 12v36h211q66 0 66 70v56q0 53 -27 64q-15 6 -37 6h-113q-25 0 -42 -15.5t-17 -41.5h-41l15 292h295v-47h-251l-9 -170q22 31 106 31z" />
    <glyph glyph-name="sixsuperior" unicode="&#x2076;" horiz-adv-x="450" 
d="M147 863q15 5 38.5 6t73 1t130.5 -11v-37h-203q-67 0 -76 -125q-1 -21 -2 -48q107 11 180 11t95 -24.5t22 -68.5v-73q0 -52 -28.5 -78.5t-76.5 -26.5h-107q-77 0 -107 69q-25 58 -25 171q0 207 86 234zM108 613q0 -123 42 -162q17 -15 41 -15h106q61 0 61 63v65
q0 30 -14.5 39.5t-46.5 9.5h-189z" />
    <glyph glyph-name="sevensuperior" unicode="&#x2077;" horiz-adv-x="370" 
d="M17 818v47h321l15 -26l-182 -450h-53l175 429h-276z" />
    <glyph glyph-name="eightsuperior" unicode="&#x2078;" horiz-adv-x="480" 
d="M74 711v40q0 65 30.5 91t85.5 26h110q54 0 81 -27t27 -90v-40q1 -23 -12 -47t-44 -30q24 -4 40 -30.5t16 -54.5v-58q0 -104 -105 -104h-120q-63 0 -86 28t-23 76v58q0 32 18.5 50t42.5 23q-22 6 -36 22q-25 26 -25 67zM299 435q62 0 62 60v50q0 44 -36 56q-11 4 -22 4
h-118q-30 0 -47 -15t-17 -44v-51q0 -43 26 -54q14 -6 40 -6h112zM121 715q0 -22 9 -37q16 -25 51 -25h118q32 0 47 17.5t15 44.5v32q0 43 -16.5 58.5t-53.5 15.5h-97q-52 0 -66 -29q-7 -16 -7 -45v-32z" />
    <glyph glyph-name="ninesuperior" unicode="&#x2079;" horiz-adv-x="450" 
d="M50 691v73q0 52 29 78.5t76 26.5h107q78 0 108 -70q24 -58 24 -170q0 -168 -51 -214q-27 -23 -65.5 -25.5t-93 -2.5t-118.5 12v37h203q48 0 64 58q14 48 14 115q-106 -12 -179 -12t-95.5 25t-22.5 69zM97 694q0 -30 14.5 -39.5t46.5 -9.5h189q0 177 -81 177h-108
q-61 0 -61 -63v-65z" />
    <glyph glyph-name="zeroinferior" unicode="&#x2080;" horiz-adv-x="482" 
d="M67 -90v255q0 60 30 85t87 25h117q113 0 113 -110v-255q0 -66 -28.5 -88t-84.5 -22h-117q-49 0 -80 17q-37 21 -37 93zM115 -86q0 -40 15.5 -53.5t57.5 -13.5h109q44 0 57.5 15t13.5 52v247q0 35 -15 51t-56 16h-109q-42 0 -57.5 -16t-15.5 -51v-247z" />
    <glyph glyph-name="oneinferior" unicode="&#x2081;" horiz-adv-x="265" 
d="M193 277v-476h-47v424l-128 -38v35l128 55h47z" />
    <glyph glyph-name="twoinferior" unicode="&#x2082;" horiz-adv-x="395" 
d="M35 236q-1 0 -1 18t1 17q102 12 183 12q130 0 130 -136q0 -118 -216 -293q-5 -4 -7 -6h222v-47h-309v43q5 4 42 32.5t57 45.5t55.5 50t55.5 58q51 65 51 113t-19.5 70.5t-70.5 22.5h-174z" />
    <glyph glyph-name="threeinferior" unicode="&#x2083;" horiz-adv-x="416" 
d="M33 263q48 15 156 15h40q61 0 91 -32.5t30 -82.5v-35q0 -34 -19.5 -58t-41.5 -31q61 -30 61 -95v-28q0 -58 -28.5 -88.5t-88.5 -30.5h-82q-69 2 -114 16l1 30l177 1q48 0 67.5 17t19.5 59v23q0 38 -24 56.5t-59 19.5l-142 5v34l142 6q39 2 62 20.5t23 50.5v26
q0 71 -82 71h-189v31z" />
    <glyph glyph-name="fourinferior" unicode="&#x2084;" horiz-adv-x="414" 
d="M292 -14v121l21 48h26v-169h59v-37l-59 -12v-136h-47v136h-258l-16 19l202 319h54l-182 -289h200z" />
    <glyph glyph-name="fiveinferior" unicode="&#x2085;" horiz-adv-x="430" 
d="M217 89l59 -2q109 0 109 -113v-64q0 -40 -14 -66q-27 -48 -95 -48q-147 0 -215 12v36h211q66 0 66 70v56q0 53 -27 64q-15 6 -37 6h-113q-25 0 -42 -15.5t-17 -41.5h-41l15 292h295v-47h-251l-9 -170q22 31 106 31z" />
    <glyph glyph-name="sixinferior" unicode="&#x2086;" horiz-adv-x="450" 
d="M147 275q15 5 41.5 6t81 1t119.5 -11v-37h-203q-67 0 -76 -125q-1 -21 -2 -48q107 11 180 11t95 -24.5t22 -68.5v-73q0 -52 -28.5 -78.5t-76.5 -26.5h-107q-77 0 -107 69q-25 58 -25 171q0 207 86 234zM108 25q0 -131 49 -166q15 -11 34 -11h106q61 0 61 63v65
q0 30 -14.5 39.5t-46.5 9.5h-189z" />
    <glyph glyph-name="seveninferior" unicode="&#x2087;" horiz-adv-x="370" 
d="M17 230v47h321l15 -26l-182 -450h-53l175 429h-276z" />
    <glyph glyph-name="eightinferior" unicode="&#x2088;" horiz-adv-x="480" 
d="M74 -39q0 32 18.5 50t42.5 23q-22 6 -36 22q-25 26 -25 67v40q0 65 30.5 91t85.5 26h110q54 0 81 -27t27 -90v-40q1 -23 -12 -47t-44 -30q24 -4 40 -30.5t16 -54.5v-58q0 -104 -105 -104h-120q-63 0 -86 28t-23 76v58zM299 -153q62 0 62 60v50q0 30 -17 45t-41 15h-118
q-30 0 -47 -15t-17 -44v-51q0 -33 14 -46.5t52 -13.5h112zM121 127q0 -22 9 -37q16 -25 51 -25h118q32 0 47 17.5t15 44.5v32q0 56 -31 68q-14 6 -39 6h-97q-52 0 -66 -29q-7 -16 -7 -45v-32z" />
    <glyph glyph-name="nineinferior" unicode="&#x2089;" horiz-adv-x="450" 
d="M50 103v73q0 52 29 78.5t76 26.5h107q78 0 108 -70q24 -58 24 -170q0 -168 -51 -214q-27 -23 -65.5 -25.5t-92 -2.5t-119.5 12v37h203q48 0 64 58q14 48 14 115q-106 -12 -179 -12t-95.5 25t-22.5 69zM97 106q0 -30 14.5 -39.5t46.5 -9.5h189q0 177 -81 177h-108
q-61 0 -61 -63v-65z" />
    <glyph glyph-name="Euro" unicode="&#x20ac;" horiz-adv-x="605" 
d="M110 463v16q0 31 1.5 53t13.5 66t34.5 71t70.5 49t100 22q106 0 249 -27v-43q-149 13 -191 13h-44q-89 0 -132 -41q-35 -34 -42 -108q-3 -28 -3 -71l251 -5v-36l-251 -5v-115l251 -6v-36q-148 -2 -215 -4l-36 -1q0 -99 47 -151q48 -53 140 -53q88 0 192 11l37 4v-42
q-113 -30 -239 -30q-61 0 -105 22t-69 49t-42.5 76t-17.5 114l-88 6v36l88 5v115l-88 6v33z" />
    <glyph glyph-name="afii61289" unicode="&#x2113;" horiz-adv-x="396" 
d="M123.5 710q32.5 29 75.5 29t72 -20q56 -39 56 -115.5t-50 -157t-130 -152.5v-105q1 -99 30 -118q13 -9 26.5 -12t33.5 -7q60 -14 64 -13v-39q0 -1 -20.5 -1t-41.5 1h-21q-68 0 -97.5 43.5t-29.5 145.5v59q-14 -13 -38 -25l-20 25q28 25 58 56v328q0 49 32.5 78z
M254.5 537q5.5 17 9.5 33.5t4 33.5q0 49 -30 68q-19 11 -29 11q-30 0 -46 -15t-16 -42v-254q52 63 66.5 87t25 42.5t16 35.5z" />
    <glyph glyph-name="afii61352" unicode="&#x2116;" horiz-adv-x="1074" 
d="M80 651q0 37 23.5 62t65.5 25q14 0 39.5 -13.5t38.5 -44.5l256 -606q8 -21 25 -21q3 0 7 1q22 5 23 32v482q0 87 40 127t111 40l189 -1q74 -2 103 -44.5t29 -132.5t-29.5 -133t-102.5 -43h-66q-77 0 -104.5 50.5t-27.5 183.5h47q0 -149 39 -175q17 -12 50 -12h58
q45 0 67 26.5t22 98.5q0 99 -36 119q-19 11 -55 12q-113 1 -185 1q-45 0 -68.5 -30.5t-23.5 -84.5v-491q0 -32 -20 -55q-28 -31 -65 -31q-18 0 -41.5 11t-37.5 45l-258 608q-8 22 -25 22q-4 0 -8 -1q-22 -6 -22 -33v-645h-58v651z" />
    <glyph glyph-name="trademark" unicode="&#x2122;" horiz-adv-x="696" 
d="M22 685v47h259v-47h-105v-302h-47v302h-107zM320 383l27 349h46l110 -268l98 268h47l31 -349h-46l-21 241l-88 -241h-39l-100 242l-18 -242h-47z" />
    <glyph glyph-name="estimated" unicode="&#x212e;" horiz-adv-x="736" 
d="M368 0q-138 0 -219.5 75.5t-81.5 189.5t84 193q43 38 94.5 56.5t120 18.5t117.5 -16t93 -50q87 -67 93 -209h-479h-3.5h-4.5q-4 -1 -4 -11v-133q0 -23 52 -57q24 -15 61 -25.5t75.5 -10.5t75.5 11q71 22 117 73h56q-58 -61 -114.5 -83t-132.5 -22zM544 275h9q2 0 3 0.5
t1 6.5v133q0 32 -63 65.5t-127 33.5q-38 0 -74.5 -11t-60.5 -26.5t-39 -31t-15 -24.5v-137q0 -6 2 -7.5t7 -1.5h357z" />
    <glyph glyph-name="partialdiff" unicode="&#x2202;" horiz-adv-x="655" 
d="M64 227q0 113 65 171.5t183.5 58.5t193.5 -57q-5 153 -53 218t-158 65q-50 0 -98 -16t-82 -37l-17 35q41 28 64 40q62 35 136 35q140 0 203 -91.5t63 -261.5q0 -200 -87 -311q-29 -37 -72.5 -59t-103.5 -22t-114.5 24.5t-88.5 78t-34 129.5zM121 229q0 -57 26 -99
q51 -78 159 -78q47 0 84 24t58 59t35 79q23 73 24 144q-29 16 -82 29t-106 13q-198 0 -198 -171z" />
    <glyph glyph-name="uni2206" unicode="&#x2206;" horiz-adv-x="728" 
d="M22 0l321 732h55l308 -732h-684zM111 57h510l-250 597z" />
    <glyph glyph-name="product" unicode="&#x220f;" horiz-adv-x="624" 
d="M22 675v57h581v-57h-87v-675h-57v675h-294v-675h-57v675h-86z" />
    <glyph glyph-name="summation" unicode="&#x2211;" horiz-adv-x="579" 
d="M45 732h512v-57h-444l213 -405l-213 -410h444v-60h-512v60l214 410l-214 405v57z" />
    <glyph glyph-name="minus" unicode="&#x2212;" horiz-adv-x="450" 
d="M22 328v56h406v-56h-406z" />
    <glyph glyph-name="radical" unicode="&#x221a;" horiz-adv-x="615" 
d="M22 301v57h123l133 -276l258 718h57l-285 -800h-51l-147 301h-88z" />
    <glyph glyph-name="infinity" unicode="&#x221e;" horiz-adv-x="797" 
d="M56 341q0 97 44 137q38 36 115 36q53 0 102.5 -35.5t81.5 -84.5q31 48 81 84t96.5 36t76 -10.5t46.5 -26t27 -39.5q16 -39 16 -97q0 -172 -159 -172q-59 0 -106 33t-79 90q-67 -123 -183 -123q-159 0 -159 172zM113 341q0 -88 52 -107q20 -8 50 -8q84 0 159 116
q-31 47 -75 81t-84 34q-63 0 -82.5 -27.5t-19.5 -88.5zM583 226q58 0 80 30t22 85q0 54 -13 77t-34.5 31t-51.5 8t-61 -18q-60 -34 -101 -97q72 -116 159 -116z" />
    <glyph glyph-name="integral" unicode="&#x222b;" horiz-adv-x="445" 
d="M22 -147h92q32 0 46 20q8 11 14 21t9.5 30.5t5.5 34t3 41.5q2 37 2 88v418q0 149 21 207q22 59 59 77q22 10 47 10t42 -2.5t25 -4.5t19.5 -7t15.5 -6v-37h-91q-31 0 -46 -21q-19 -27 -23.5 -51t-6.5 -39.5t-3 -40.5q-2 -38 -2 -85v-418q0 -155 -19 -206q-22 -60 -58 -76
q-21 -10 -51 -10q-71 0 -101 20v37z" />
    <glyph glyph-name="approxequal" unicode="&#x2248;" horiz-adv-x="511" 
d="M137 305.5q26 11.5 52.5 11.5t71 -24.5t67 -24.5t39.5 6t39 19t33 18l17 -30q-7 -5 -22 -17.5t-24 -19t-23 -15.5q-27 -16 -56 -16t-73.5 25t-67.5 25t-40.5 -5.5t-42 -18.5t-36.5 -18l-15 29q27 23 41 33.5t40 22zM137 482q26 12 52.5 12t71 -25t67 -25t39.5 6.5
t39 19.5t33 18l17 -30q-7 -5 -22 -18t-24 -19.5t-23 -14.5q-27 -17 -56 -17t-73.5 25t-65 25t-36.5 -4t-27 -9.5t-28 -14.5t-30 -14l-15 30q27 22 41 32.5t40 22.5z" />
    <glyph glyph-name="notequal" unicode="&#x2260;" horiz-adv-x="471" 
d="M22 212v60h143l99 163h-242v60h278l46 75h47l-46 -75h102v-60h-139l-99 -163h238v-60h-274l-52 -86h-47l52 86h-106z" />
    <glyph glyph-name="lessequal" unicode="&#x2264;" horiz-adv-x="487" 
d="M56 112v57h377v-57h-377zM56 405v59l365 172v-62l-289 -140l289 -150v-64z" />
    <glyph glyph-name="greaterequal" unicode="&#x2265;" horiz-adv-x="487" 
d="M56 112v57h377v-57h-377zM68 220v64l289 150l-289 140v62l365 -172v-59z" />
    <glyph glyph-name="lozenge" unicode="&#x25ca;" horiz-adv-x="526" 
d="M22 373l216 359h57l209 -359l-209 -373h-57zM90 373l176 -299l171 299l-171 290z" />
    <glyph glyph-name="f_f" unicode="&#xfb00;" horiz-adv-x="772" 
d="M22 474v42l99 15v89q0 82 28 117q12 16 36.5 27.5t67 11.5t121.5 -22v-37l-117 3h-5q-42 0 -58 -23.5t-16 -76.5v-89h316v99q0 82 25 117q12 16 34 27.5t72.5 11.5t124.5 -22v-37l-129 3h-11.5t-22 -5t-19.5 -13t-11 -23q-6 -21 -6 -59v-99h157v-57h-158v-475h-57v475
h-317v-474h-57v474h-97z" />
    <glyph glyph-name="f_f_i" unicode="&#xfb03;" horiz-adv-x="968" 
d="M22 474v42l99 15v89q0 82 28 117q12 16 36.5 27.5t67 11.5t121.5 -22v-37l-117 3h-5q-55 0 -68 -44q-6 -21 -6 -56l-2 -89h305v53q0 90 50.5 146t139.5 56q32 0 87.5 -8.5t97.5 -20.5v-37l-172 10h-11q-55 0 -95 -33t-40 -113v-53l363 -9v-522h-58v474h-306v-474h-57v474
h-304v-474h-57v474h-97z" />
    <glyph glyph-name="ffl" unicode="&#xfb04;" horiz-adv-x="1076" 
d="M121 620q0 82 28 117q12 16 36.5 27.5t67 11.5t121.5 -22v-37l-117 3h-5q-42 0 -58 -23.5t-16 -76.5l-2 -89h304v53q0 85 36 141q40 60 127 60h259v-595q0 -80 20 -104q11 -14 21 -19t57.5 -16t54.5 -11v-39h-81q-46 0 -74 19q-55 36 -55 170v541h-188q-59 0 -89.5 -33
t-30.5 -114v-53h146v-57h-148v-474h-57v474h-302v-474h-57v474h-97v42l99 15v89z" />
    <glyph glyph-name="s_t" unicode="&#xfb06;" horiz-adv-x="872" 
d="M183 532h442l14 148h43v-148h162v-56h-162v-287q0 -61 7.5 -80t12.5 -27.5t15 -13.5q13 -7 61 -17t51 -10v-41h-75q-69 0 -99 43.5t-30 145.5v287h-442q-50 0 -65.5 -18t-15.5 -58v-47q0 -34 13 -51q10 -12 29.5 -13t38.5 -1h148q61 0 95.5 -32.5t34.5 -88.5v-45
q0 -78 -42 -105q-35 -23 -78.5 -23t-142 6t-131.5 10v41h264q73 0 73 71v45q0 64 -73 64h-148q-75 0 -106.5 24t-31.5 98v47q0 43 12 71q28 61 126 61z" />
    <glyph glyph-name="exclamdown.alt" horiz-adv-x="265" 
d="M92 653v59q0 19 19 19h40q12 0 16 -7t4 -12v-59q0 -21 -20 -21h-40q-19 0 -19 21zM99 0l6 535h54l6 -535h-66z" />
    <glyph glyph-name="zero.oldstyle" horiz-adv-x="649" 
d="M78 162v307q0 78 48.5 120t123.5 42h154q87 0 127 -44t40 -118v-307q0 -162 -167 -162h-154q-72 0 -120 36q-52 39 -52 126zM135 162q0 -53 32 -79t83 -26h154q110 0 110 105v307q0 105 -110 105h-154q-56 0 -85.5 -28.5t-29.5 -76.5v-307z" />
    <glyph glyph-name="one.oldstyle" horiz-adv-x="353" 
d="M258 632v-632h-57v567l-168 -59v39l168 85h57z" />
    <glyph glyph-name="two.oldstyle" horiz-adv-x="597" 
d="M280 639q29 0 58 -1q102 0 152.5 -49.5t50.5 -137.5q0 -48 -33.5 -103t-80 -100t-102.5 -88q-92 -71 -155 -103h366v-57h-485v53q300 164 398 307q35 51 35 93q0 128 -143 128h-7h-288v40q122 18 234 18z" />
    <glyph glyph-name="three.oldstyle" horiz-adv-x="618" 
d="M56 615q53 16 113.5 19.5t109 3.5t85.5 -1q82 -1 126.5 -47t44.5 -118v-69q0 -39 -14 -70q-24 -51 -71 -66q85 -42 85 -144v-59q0 -168 -178 -168q-141 0 -201.5 5.5t-93.5 16.5l1 36h290q88 0 112 54q11 23 11 56v59q0 58 -35.5 85.5t-83.5 29.5l-233 7v43l233 8
q86 3 112 62q9 19 9 45v69q0 54 -34 81t-85 27h-303v35z" />
    <glyph glyph-name="four.oldstyle" horiz-adv-x="593" 
d="M424 155v217l28 75h29v-292h90v-44l-90 -16v-193h-57v193h-375l-27 33l317 504h67l-298 -477h316z" />
    <glyph glyph-name="five.oldstyle" horiz-adv-x="637" 
d="M302 343l87 -2q85 0 124.5 -44.5t39.5 -121.5v-109q0 -108 -80 -150q-39 -20 -84 -20q-107 0 -166.5 3t-137.5 16v41h304q51 0 79 31.5t28 80.5v105q0 57 -25 83q-27 28 -82 28h-154q-37 0 -66.5 -25.5t-29.5 -66.5h-52l22 440h422v-57h-369l-14 -277q11 15 35.5 28
t50.5 14q33 3 68 3z" />
    <glyph glyph-name="six.oldstyle" horiz-adv-x="627" 
d="M83 386q0 93 14.5 163.5t39.5 110.5q49 78 118 78q173 0 292 -16v-41h-283q-29 0 -52 -20.5t-36 -50.5t-21 -69q-14 -65 -15 -138q149 17 270 17q97 0 131 -45q30 -38 30 -103v-124q0 -149 -161 -149h-139q-111 1 -154 115q-34 92 -34 272zM140 363q0 -134 20 -197
q23 -73 59 -96q23 -14 52 -14h139q49 0 77 19.5t28 75.5v121q0 52 -28 71.5t-77 19.5h-270z" />
    <glyph glyph-name="seven.oldstyle" horiz-adv-x="542" 
d="M33 575v57h452l24 -40l-256 -692h-68l251 675h-403z" />
    <glyph glyph-name="eight.oldstyle" horiz-adv-x="641" 
d="M84 499v65q0 95 46 134t130 39h136q108 0 143 -74q19 -38 19 -99v-65q0 -31 -12 -58q-22 -51 -69 -59q41 -9 61 -48t20 -82v-98q0 -102 -79 -137q-37 -17 -84 -17h-135q-123 0 -161 76q-12 25 -13.5 45.5t-1.5 32.5v98q0 90 90 109q-49 14 -69.5 52.5t-20.5 85.5z
M141 151q0 -94 119 -94h135q42 0 74 23.5t32 70.5v105q0 70 -68 86q-16 4 -35 4h-149q-42 0 -75 -21.5t-33 -68.5v-105zM141 494q0 -56 37 -76q32 -16 71 -16h149q55 0 79 28t24 64v68q0 63 -25.5 90.5t-79.5 27.5h-136q-63 0 -91 -25t-28 -93v-68z" />
    <glyph glyph-name="nine.oldstyle" horiz-adv-x="627" 
d="M228 632h139q111 -1 153 -115q35 -92 35 -270q0 -265 -109 -335q-29 -19 -63 -19q-199 0 -292 16v41h282q37 0 63 29t38 76q23 85 24 173q-150 -17 -270 -17q-97 0 -131 45q-30 38 -30 103v124q0 149 161 149zM123 359q0 -52 28 -71.5t77 -19.5h270q0 134 -20 197
q-23 73 -59 96q-23 14 -52 14h-139q-49 0 -77 -19.5t-28 -75.5v-121z" />
    <glyph glyph-name="questiondown.alt" horiz-adv-x="537" 
d="M227 442q31 0 69 -5v101h58v-148h-75.5h-54.5q-55 -1 -89 -27.5t-34 -82.5v-101q0 -83 52 -110q35 -18 98 -18l265 1v-41q-138 -18 -239 -18q-17 0 -26 0.5t-10 0.5q-196 0 -196 185v101q0 162 182 162zM287 655v58q0 20 19 20h41q8 0 14 -5.5t6 -14.5v-58q0 -21 -20 -21
h-41q-19 0 -19 21z" />
    <glyph glyph-name="at.alt" horiz-adv-x="853" 
d="M241 597h210q59 0 103 -28q50 -32 50 -112v-372h-42l-12 64l-11.5 -7.5t-31.5 -18t-43 -21.5q-57 -26 -111 -26t-89.5 33t-35.5 84v53q0 62 34 97.5t95 35.5h192v57v19q0 47 -25.5 66t-75.5 19h-207q-52 0 -81.5 -23t-29.5 -84v-348q0 -71 38 -97q31 -23 73 -23h339
q65 0 92.5 29.5t27.5 90.5v512q0 95 -69 123q-23 8 -51 8h-399v36q103 22 267 22q11 0 21 -1h111q82 -2 129.5 -49t47.5 -139v-512q0 -178 -177 -178h-339q-77 0 -122.5 46.5t-45.5 131.5v348q0 76 37 118q16 18 50.5 32t80.5 14zM285 199q0 -26 22.5 -46t54.5 -20h2h2
q64 0 183 58v149l-187 -14q-33 -2 -55 -22t-22 -60v-45z" />
    <glyph glyph-name="g.salt" horiz-adv-x="557" 
d="M102 467q46 70 138 70q82 0 161.5 -9.5t89.5 -10.5v-621q0 -44 -15 -79q-27 -62 -90 -83q-21 -7 -34.5 -7t-19.5 1l-248 24v37l248 -5h3q41 0 70 28t29 84v133q-45 -18 -100.5 -28.5t-97 -10.5t-74.5 14t-53 38t-32 60q-21 63 -21 179t46 186zM113 268q0 -131 33 -178
q31 -43 94 -43t97 7q46 9 97 21v405h-194q-127 0 -127 -212z" />
    <glyph glyph-name="ampersand.salt" horiz-adv-x="943" 
d="M49 286v89q0 77 35 114q30 32 102 40q30 3 74 3h448l15 148h42v-149h155v-39l-155 -17v-288q0 -124 -107 -166q-54 -21 -126 -21h-154q-46 0 -77 5.5t-58 22.5q-53 32 -53 134q-50 0 -93 26q-48 30 -48 98zM106 286q0 -52 55 -65q13 -3 29 -3q0 89 39 131.5t122 42.5h129
q68 0 90 -16q30 -21 37 -47t7 -53q0 -69 -29.5 -92t-104.5 -23h-233q1 -63 30 -83q27 -18 71 -20q9 0 30 -1h154q176 0 176 130v288h-448q-109 0 -131 -24q-23 -25 -23 -76v-89zM542.5 227.5q14.5 9.5 14.5 48t-14.5 49t-62.5 10.5h-129q-66 0 -86 -31q-18 -28 -18 -86h233
q48 0 62.5 9.5z" />
    <glyph glyph-name="a.superior" horiz-adv-x="369" 
d="M47 719q80 20 168 20q47 0 79.5 -25.5t32.5 -77.5v-258h-31l-16 52l-9.5 -5.5t-25 -14t-33.5 -16.5q-43 -20 -81 -20t-67 23.5t-29 65.5v46q0 56 46 79q23 11 54 11q145 0 145 1v31q0 64 -73.5 64t-159.5 -7v31zM82 471q0 -50 57 -50q26 0 61.5 10.5t57.5 21.5l22 11v104
l-142 -11q-56 -4 -56 -52v-34z" />
    <glyph glyph-name="b.superior" horiz-adv-x="392" 
d="M89 902v-193q72 30 135 30q114 0 127 -130q2 -24 2 -55q0 -180 -130 -180q-63 0 -134 52l-16 -48h-31v524h47zM219 421q87 0 87 133q0 80 -20 109t-67 29q-48 0 -84.5 -9t-45.5 -10v-214q6 -2 27 -12t31 -14q33 -12 72 -12z" />
    <glyph glyph-name="c.superior" horiz-adv-x="360" 
d="M102 448.5q20 -28.5 78 -28.5t143 10v-35q-69 -21 -157 -22q-60 0 -93 32q-38 37 -38 150q0 112 37 149q19 19 40.5 26t63 7t142.5 -20v-35q-89 8 -130 8t-54.5 -3.5t-26.5 -16.5q-25 -24 -25 -108.5t20 -113z" />
    <glyph glyph-name="d.superior" horiz-adv-x="390" 
d="M35 555q0 105 33 146q31 39 94.5 39t135.5 -30v193h46v-525h-31l-16 48q-70 -52 -133 -52q-129 0 -129 181zM82 555q0 -134 87 -134q38 0 60 8t42.5 17.5t25.5 12.5v214q-5 2 -21.5 5.5t-21 5t-17.5 4t-21 2.5q-25 3 -48 3q-46 0 -66 -29t-20 -109z" />
    <glyph glyph-name="e.superior" horiz-adv-x="390" 
d="M65.5 412q-30.5 39 -30.5 139t33.5 142t127.5 42t125 -31t31 -97q0 -78 -106 -78h-164q0 -85 38 -101q19 -8 53 -8q110 0 171 10v-34q-83 -23 -177 -23q-71 0 -101.5 39zM304 612q0 31 -9.5 47t-32 22.5t-60 6.5t-57 -4t-34.5 -16q-29 -22 -29 -91h161q61 0 61 35z" />
    <glyph glyph-name="f.superior" horiz-adv-x="327" 
d="M29 679v36l75 10v73q0 105 96 105q41 0 98 -13v-33l-84 2h-11t-22.5 -4.5t-18.5 -13.5q-11 -16 -11 -48v-67h115v-47h-117v-301h-47v301h-73z" />
    <glyph glyph-name="g.superior" horiz-adv-x="415" 
d="M37 291v42l20 52q-21 17 -21 46q0 62 56 67q-24 11 -38.5 41t-14.5 64q0 63 32.5 96t88.5 33h221v-28l-63 -17q11 -8 22 -32t11 -49t-5.5 -46t-18.5 -42q-29 -46 -98 -46h-103q-28 0 -39 -15q-3 -6 -3 -17q-1 -23 32 -26l147 -17q46 -6 72 -30t26 -64v-8
q0 -109 -101 -109h-114q-50 0 -79.5 26.5t-29.5 78.5zM83 300q0 -39 19 -53.5t53 -14.5h97q34 0 49 15.5t15 47.5v5q0 27 -18 38t-50 15l-133 16l-32 6v-75zM87 601q0 -34 19.5 -58t60.5 -24h58q27 0 46 12q33 23 33 72t-33 72q-16 11 -40 11h-62q-82 0 -82 -85z" />
    <glyph glyph-name="h.superior" horiz-adv-x="398" 
d="M42 378v523h47v-216q3 1 15 8.5t23.5 14t30.5 15.5q36 16 76 16t68 -16q53 -32 53 -98v-247h-47v240q0 35 -22 54.5t-52 19.5t-56.5 -6.5t-38.5 -11.5t-50 -22v-274h-47z" />
    <glyph glyph-name="i.superior" horiz-adv-x="136" 
d="M54 851h27q16 0 16 -16v-40q0 -15 -16 -15h-27q-16 0 -16 15v40q0 16 16 16zM43 378v356h47v-356h-47z" />
    <glyph glyph-name="j.superior" horiz-adv-x="139" 
d="M55 854h28q15 0 15 -17v-39q0 -16 -15 -16h-28q-16 0 -16 16v39q0 17 16 17zM43 196v537h49v-358v-17q0 -88 -17 -162h-32z" />
    <glyph glyph-name="k.superior" horiz-adv-x="373" 
d="M89 899v-301h38l147 133h67l-171 -155l172 -198h-62l-148 173h-43v-173h-47v521h47z" />
    <glyph glyph-name="l.superior" horiz-adv-x="238" 
d="M41 504v396h47v-391q0 -47 12 -64t42 -23q62 -12 65 -12v-32h-67q-53 0 -76 29.5t-23 96.5z" />
    <glyph glyph-name="m.superior" horiz-adv-x="660" 
d="M42 378v354h35l12 -48q32 19 45 26.5t42 17t61 9.5t60.5 -15t40.5 -41q72 56 158 56q36 0 63 -15q58 -31 58 -99v-245h-47v238q0 46 -38 65q-17 9 -38 9q-71 0 -141 -38q3 -8 3 -34v-240h-47v238q0 34 -22.5 54t-52.5 20t-56 -6.5t-38.5 -11.5t-50.5 -22v-272h-47z" />
    <glyph glyph-name="n.superior" horiz-adv-x="398" 
d="M42 378v354h32l15 -46q69 42 97 47.5t58 5.5t58 -16q53 -32 53 -98v-247h-47v240q0 49 -38 67q-17 8 -33 8t-26.5 -1t-17.5 -2t-18.5 -4.5t-15.5 -4.5t-17 -6t-15.5 -6t-18.5 -8.5t-19 -8.5v-274h-47z" />
    <glyph glyph-name="o.superior" horiz-adv-x="395" 
d="M70 418q-35 43 -35 135t34.5 137t127 45t126.5 -48q32 -44 32 -137q0 -85 -32 -128q-34 -47 -126 -47t-127 43zM106 658.5q-24 -29.5 -24 -107.5t26 -103.5t88.5 -25.5t87 26.5t24.5 105.5t-24.5 106.5t-89 27.5t-88.5 -29.5z" />
    <glyph glyph-name="p.superior" horiz-adv-x="390" 
d="M148 720q40 18 76.5 18t63 -16t39.5 -45q24 -51 24 -121q0 -104 -34 -147q-31 -39 -91 -39q-27 0 -66.5 8t-72.5 22v-206h-45v539h31l14 -47q21 16 61 34zM87 436q76 -19 126.5 -19t70.5 29t20 110q0 135 -85 135q-49 0 -117 -32q-12 -5 -15 -7v-216z" />
    <glyph glyph-name="q.superior" horiz-adv-x="393" 
d="M35 556q0 117 61 161q31 22 72 22t75 -3t64.5 -7t39.5 -5v-530h-47v203q-72 -30 -126 -30q-139 0 -139 189zM82 556q0 -68 16 -98q17 -30 39 -37t41 -7t30 0.5t21.5 2t17.5 3.5t23 5.5t30 7.5v259h-119q-99 0 -99 -136z" />
    <glyph glyph-name="r.superior" horiz-adv-x="332" 
d="M218 735q9 1 35 1t39 -6v-45q-18 4 -51 4t-59.5 -6t-40 -12t-52.5 -22v-271h-47v354h33l14 -51q5 2 13.5 7.5t13 8t13 7.5t13.5 7.5t13.5 6.5t15 6t15 4.5t16 4t16.5 2.5z" />
    <glyph glyph-name="s.superior" horiz-adv-x="375" 
d="M35 616v35q0 45 22 68t82 23t177 -13v-35l-177 1h-2q-35 0 -45 -12t-10 -40v-24q0 -29 11.5 -35.5t42.5 -6.5h113q65 0 82 -50q6 -16 6 -36v-37q0 -87 -89 -87q-58 0 -196 16v34l185 -2l5 -0.5t7.5 -0.5t8.5 1t9.5 2.5t8 5t7.5 8.5q7 13 7 32v25q0 29 -21 37q-10 4 -29 4
h-112q-34 0 -53 7q-40 14 -40 80z" />
    <glyph glyph-name="t.superior" horiz-adv-x="310" 
d="M30 687v34l74 11l14 101h33v-99h112v-47h-112v-180q0 -60 21 -74q11 -7 50.5 -14t40.5 -7v-33h-59q-54 0 -77 28t-23 96v184h-74z" />
    <glyph glyph-name="u.superior" horiz-adv-x="394" 
d="M87 734v-240q0 -34 22.5 -54t51.5 -20t54 6.5t36 11t49 21.5v275h48v-354h-33l-15 47q-3 -3 -16.5 -11t-18.5 -11t-17 -9.5t-20 -9.5t-20 -6q-20 -7 -47 -7q-57 0 -89 35t-32 83v243h47z" />
    <glyph glyph-name="v.superior" horiz-adv-x="416" 
d="M28 732h53l129 -285l125 285h52l-157 -354h-41z" />
    <glyph glyph-name="w.superior" horiz-adv-x="616" 
d="M28 732h53l129 -285l125 285h52l-53 -118l76 -167l124 285h53l-157 -354h-41l-81 176l-78 -176h-41z" />
    <glyph glyph-name="x.superior" horiz-adv-x="393" 
d="M29 378l140 179l-140 175h58l110 -137l105 137h59l-136 -175l138 -179h-58l-108 142l-110 -142h-58z" />
    <glyph glyph-name="y.superior" horiz-adv-x="429" 
d="M28 733h52l109 -272q16 -37 42 -37l116 309h52l-173 -469l-52 -68h-32l71 180q-23 3 -40.5 22t-27.5 44z" />
    <glyph glyph-name="z.superior" horiz-adv-x="375" 
d="M35 686v46h300v-40l-227 -267h226v-46h-288v46l224 261h-235z" />
    <glyph glyph-name="zero.tnum" horiz-adv-x="623" 
d="M65 162v408q0 78 48.5 120t123.5 42h154q125 0 158 -99q9 -29 9 -63v-408q0 -162 -167 -162h-154q-72 0 -120 36q-52 39 -52 126zM122 162q0 -53 32 -79t83 -26h154q110 0 110 105v408q0 105 -110 105h-154q-56 0 -85.5 -28.5t-29.5 -76.5v-408z" />
    <glyph glyph-name="one.tnum" horiz-adv-x="623" 
d="M393 732v-674h169v-58h-404v58h177v609l-177 -61v39l177 87h58z" />
    <glyph glyph-name="two.tnum" horiz-adv-x="623" 
d="M63 684v41q130 17 294 17q150 0 191 -131q12 -36 12 -74.5t-13.5 -77.5t-37.5 -76t-53 -73t-63.5 -70t-65.5 -62.5t-63 -54.5q-55 -44 -87 -66h383v-57h-490v53q128 92 190 147t104.5 98.5t70.5 80.5q67 89 67 155q0 110 -83 140q-27 10 -64 10h-292z" />
    <glyph glyph-name="three.tnum" horiz-adv-x="623" 
d="M74 712q53 16 113 19.5t109 3.5t86 -1q82 -1 126 -47t44 -118v-69q0 -39 -14 -70q-24 -51 -70 -66q84 -42 84 -144v-59q0 -168 -178 -168q-141 0 -201 5.5t-93 16.5v36h290q90 0 113 53q10 23 10 57v59q0 59 -35 86t-84 29l-232 7v43l232 9q56 1 88.5 28.5t32.5 77.5v69
q0 79 -74 102q-21 6 -45 6h-302v35z" />
    <glyph glyph-name="four.tnum" horiz-adv-x="623" 
d="M434 255v217l27 75h30v-292h90v-44l-90 -15v-194h-57v194h-376l-27 32l317 504h68l-298 -477h316z" />
    <glyph glyph-name="five.tnum" horiz-adv-x="623" 
d="M303 442l86 -1q85 0 124.5 -44.5t39.5 -121.5v-109q0 -108 -80 -149q-39 -21 -84 -21q-107 0 -166.5 3t-137.5 16v41h304q51 0 79 31.5t28 80.5v105q0 57 -25 83q-27 28 -82 28h-154q-37 0 -66.5 -25.5t-29.5 -66.5h-52l22 440h422v-57h-369l-14 -276q11 14 34.5 26.5
t52.5 14.5q32 2 68 2z" />
    <glyph glyph-name="six.tnum" horiz-adv-x="623" 
d="M68 386q0 93 14.5 163.5t39.5 110.5q49 78 118 78q169 0 292 -16v-41h-282q-37 0 -63 -29t-38 -76q-23 -85 -24 -173q150 17 270 17q98 0 132 -45q29 -38 29 -103v-124q0 -149 -161 -149h-139q-110 1 -153 115q-35 92 -35 272zM125 363q0 -134 20 -197q23 -73 59 -96
q23 -14 52 -14h139q49 0 77 19.5t28 75.5v121q0 52 -28 71.5t-77 19.5h-270z" />
    <glyph glyph-name="seven.tnum" horiz-adv-x="623" 
d="M75 675v57h452l23 -40l-256 -692h-67l251 675h-403z" />
    <glyph glyph-name="eight.tnum" horiz-adv-x="623" 
d="M76 499v65q0 95 46 134t130 39h136q82 0 122 -41t40 -132v-65q1 -31 -11 -58q-23 -51 -70 -59q41 -9 61.5 -48t19.5 -82v-98q0 -102 -78 -137q-38 -17 -85 -17h-135q-123 0 -161 76q-12 25 -13.5 45.5t-1.5 32.5v98q0 90 90 109q-49 14 -69.5 52.5t-20.5 85.5zM133 151
q0 -94 119 -94h135q42 0 74 23.5t32 70.5v105q0 70 -67 86q-17 4 -36 4h-149q-42 0 -75 -21.5t-33 -68.5v-105zM133 494q0 -56 38 -76q31 -16 70 -16h149q55 0 79 28t24 64v68q0 63 -25.5 90.5t-79.5 27.5h-136q-63 0 -91 -25t-28 -93v-68z" />
    <glyph glyph-name="nine.tnum" horiz-adv-x="623" 
d="M68 463v124q0 149 161 149h139q111 0 153 -115q35 -92 35 -270q0 -265 -109 -335q-29 -19 -63 -19q-196 0 -292 16v41h282q37 0 63 29.5t38 76.5q23 85 24 173q-150 -18 -270 -18q-97 0 -131 45q-30 39 -30 103zM124 463q0 -52 28 -71.5t77 -19.5h270q0 134 -20 198
q-23 73 -59 95q-23 14 -52 14h-139q-49 0 -77 -19.5t-28 -75.5v-121z" />
    <glyph glyph-name="zero.tosf" horiz-adv-x="623" 
d="M65 162v307q0 78 48.5 120t123.5 42h154q86 0 126.5 -44t40.5 -118v-307q0 -162 -167 -162h-154q-72 0 -120 36q-52 39 -52 126zM122 162q0 -53 32 -79t83 -26h154q110 0 110 105v307q0 105 -110 105h-154q-56 0 -85.5 -28.5t-29.5 -76.5v-307z" />
    <glyph glyph-name="one.tosf" horiz-adv-x="623" 
d="M386 632v-574h163v-58h-390v58h170v509l-168 -59v39l168 85h57z" />
    <glyph glyph-name="two.tosf" horiz-adv-x="623" 
d="M297 639q29 0 58 -1q102 0 152.5 -49.5t50.5 -137.5q0 -48 -33 -103t-80 -100t-102 -88q-93 -71 -156 -103h366v-57h-485v53q163 89 260 168q113 91 149 155q24 41 24 77q0 128 -143 128h-7h-288v40q122 18 234 18z" />
    <glyph glyph-name="three.tosf" horiz-adv-x="623" 
d="M74 614q53 17 113 20t109 3t86 -1q82 -1 126 -47t44 -118v-69q0 -57 -25.5 -91t-58.5 -44q84 -42 84 -145v-59q0 -168 -178 -168q-141 0 -201 6t-93 17v35h290q90 0 113 53q10 23 10 57v59q0 59 -35 86t-84 29l-232 7v43l232 9q56 2 88.5 29t32.5 77v69q0 80 -74 102
q-21 6 -45 6h-302v35z" />
    <glyph glyph-name="four.tosf" horiz-adv-x="623" 
d="M434 155v217l27 75h30v-292h90v-44l-90 -16v-193h-57v193h-376l-27 33l317 504h68l-298 -477h316z" />
    <glyph glyph-name="five.tosf" horiz-adv-x="623" 
d="M302 343l87 -2q85 0 124.5 -44.5t39.5 -121.5v-109q0 -108 -80 -150q-39 -20 -84 -20q-107 0 -166.5 3t-137.5 16v41h304q51 0 79 31.5t28 80.5v105q0 57 -25 83q-27 28 -82 28h-154q-37 0 -66.5 -25.5t-29.5 -66.5h-52l22 440h422v-57h-369l-14 -277q11 15 35.5 28
t50.5 14q33 3 68 3z" />
    <glyph glyph-name="six.tosf" horiz-adv-x="623" 
d="M68 386q0 93 14.5 163.5t39.5 110.5q49 78 118 78q169 0 292 -16v-41h-282q-37 0 -63 -29t-38 -76q-23 -85 -24 -173q150 17 270 17q98 0 132 -45q29 -38 29 -103v-124q0 -149 -161 -149h-139q-110 1 -153 115q-35 92 -35 272zM125 363q0 -134 20 -197q23 -73 59 -96
q23 -14 52 -14h139q49 0 77 19.5t28 75.5v121q0 52 -28 71.5t-77 19.5h-270z" />
    <glyph glyph-name="seven.tosf" horiz-adv-x="623" 
d="M75 575v57h452l23 -40l-256 -692h-67l251 675h-403z" />
    <glyph glyph-name="eight.tosf" horiz-adv-x="623" 
d="M76 499v65q0 95 46 134t130 39h136q82 0 122 -41t40 -132v-65q1 -31 -11 -58q-23 -51 -70 -59q41 -9 61.5 -48t19.5 -82v-98q0 -102 -78 -137q-38 -17 -85 -17h-135q-123 0 -161 76q-12 25 -13.5 45.5t-1.5 32.5v98q0 90 90 109q-49 14 -69.5 52.5t-20.5 85.5zM133 151
q0 -94 119 -94h135q42 0 74 23.5t32 70.5v105q0 70 -67 86q-17 4 -36 4h-149q-42 0 -75 -21.5t-33 -68.5v-105zM133 494q0 -56 38 -76q31 -16 70 -16h149q55 0 79 28t24 64v68q0 63 -25.5 90.5t-79.5 27.5h-136q-63 0 -91 -25t-28 -93v-68z" />
    <glyph glyph-name="nine.tosf" horiz-adv-x="623" 
d="M229 632h139q111 -1 153 -115q35 -92 35 -270q0 -265 -109 -335q-29 -19 -63 -19q-199 0 -292 16v41h282q37 0 63 29t38 76q23 85 24 173q-150 -17 -270 -17q-97 0 -131 45q-30 38 -30 103v124q0 149 161 149zM124 359q0 -52 28 -71.5t77 -19.5h270q0 106 -9.5 150.5
t-19 71.5t-23.5 45q-30 40 -79 40h-139q-49 0 -77 -19.5t-28 -75.5v-121z" />
    <glyph glyph-name="gbreve.salt" horiz-adv-x="557" 
d="M177 707h36q0 -33 23.5 -55.5t53.5 -22.5q48 0 71 37q10 18 10 41h36q0 -55 -38 -86q-34 -28 -78 -28q-43 0 -78 30q-36 31 -36 84zM102 467q46 70 138 70q82 0 161.5 -9.5t89.5 -10.5v-621q0 -44 -15 -79q-27 -62 -90 -83q-21 -7 -34.5 -7t-19.5 1l-248 24v37l248 -5h3
q41 0 70 28t29 84v133q-45 -18 -100.5 -28.5t-97 -10.5t-74.5 14t-53 38t-32 60q-21 63 -21 179t46 186zM113 268q0 -131 33 -178q31 -43 94 -43t97 7q46 9 97 21v405h-194q-127 0 -127 -212z" />
    <glyph glyph-name="gdotaccent.salt" horiz-adv-x="557" 
d="M256 615v57q0 20 20 20h37q19 0 19 -20v-57q0 -19 -19 -19h-37q-8 0 -14 5t-6 14zM102 467q46 70 138 70q82 0 161.5 -9.5t89.5 -10.5v-621q0 -44 -15 -79q-27 -62 -90 -83q-21 -7 -34.5 -7t-19.5 1l-248 24v37l248 -5h3q41 0 70 28t29 84v133q-45 -18 -100.5 -28.5
t-97 -10.5t-74.5 14t-53 38t-32 60q-21 63 -21 179t46 186zM113 268q0 -131 33 -178q31 -43 94 -43t97 7q46 9 97 21v405h-194q-127 0 -127 -212z" />
    <glyph glyph-name="gcircumflex.salt" horiz-adv-x="557" 
d="M155 594l122 130h53l110 -130h-53l-85 86l-94 -86h-53zM102 467q46 70 138 70q82 0 161.5 -9.5t89.5 -10.5v-621q0 -44 -15 -79q-27 -62 -90 -83q-21 -7 -34.5 -7t-19.5 1l-248 24v37l248 -5h3q41 0 70 28t29 84v133q-45 -18 -100.5 -28.5t-97 -10.5t-74.5 14t-53 38
t-32 60q-21 63 -21 179t46 186zM113 268q0 -131 33 -178q31 -43 94 -43t97 7q46 9 97 21v405h-194q-127 0 -127 -212z" />
    <glyph glyph-name="c_t" horiz-adv-x="836" 
d="M54 144.5q-9 49.5 -9 117.5t8.5 117t23.5 78t38 46q39 29 105 29h376l14 147h43v-148h162v-57h-162v-286q0 -95 29 -116q14 -10 64.5 -20.5t53.5 -10.5v-42h-74q-69 0 -99.5 43.5t-30.5 145.5v285h-376q-48 0 -68 -17q-22 -17 -29.5 -38.5t-11.5 -43.5q-9 -42 -9 -120.5
t14 -125t38.5 -62.5t65.5 -16q82 0 189 11l36 3v-42q-97 -27 -225 -29q-33 0 -57 5.5t-47.5 22.5t-38 45.5t-23.5 78z" />
    <glyph glyph-name="t_t" horiz-adv-x="727" 
d="M173 680v-148h314l14 148h43v-148h161v-57h-161v-285q0 -96 29 -116q14 -10 64 -21t53 -11v-41h-74q-69 0 -99 43.5t-30 145.5v285h-314v-286q1 -95 29 -116q14 -10 64.5 -20.5t53.5 -10.5v-42h-74q-69 0 -99.5 43.5t-30.5 145.5v286h-94v42l94 15l15 148h42z" />
    <glyph glyph-name="f_t" horiz-adv-x="756" 
d="M117 630q0 82 26 117q11 16 33.5 27.5t53.5 11.5q78 0 143 -20v-36h-129h-12.5t-26 -6.5t-20.5 -21.5q-11 -25 -11 -72v-98h341l15 148h42v-148h162v-57h-162l1 -286q0 -95 29 -116q14 -10 64 -20.5t53 -10.5v-42h-74q-69 0 -99 43.5t-30 145.5l-1 286h-342v-475h-57v474
h-94v42l95 15v99z" />
    <glyph glyph-name="t_y" horiz-adv-x="930" 
d="M173 680v-148h159q43 0 70 -5.5t45 -20.5t28 -33t22 -52l112 -304q20 -57 70 -57q1 0 8 1l158 471h64l-233 -699l-66 -102h-38l97 270q-24 1 -49 14q-47 26 -72 96l-107 290q-15 43 -37 58.5t-72 15.5h-159v-286q1 -95 29 -116q14 -10 64.5 -20.5t53.5 -10.5v-42h-74
q-69 0 -99.5 43.5t-30.5 145.5v286h-94v42l94 15l15 148h42z" />
    <glyph glyph-name="f_y" horiz-adv-x="954" 
d="M117 630q0 82 26 117q11 16 33.5 27.5t66 11.5t130.5 -26v-37l-129 7q-4 1 -13 1t-21 -4.5t-19 -12.5t-11 -23q-6 -22 -6 -61v-99h175q85 0 116 -25q19 -15 29 -33t23 -52l115 -303q20 -57 75 -57h3l157 472h64l-233 -699l-66 -102h-37l97 270q-25 0 -50 14
q-47 25 -72 96l-109 289q-11 29 -24 44q-24 29 -88 29h-176v-474h-57v474h-94v42l95 15v99z" />
    <glyph glyph-name="gcommaaccent.salt" horiz-adv-x="557" 
d="M298 755q8 2 12 2t14 -2v-20h-2q-22 0 -22 -23v-30h9q18 0 18 -18v-51q0 -20 -18 -20h-34q-18 0 -18 20v87q0 48 41 55zM102 467q46 70 138 70q82 0 161.5 -9.5t89.5 -10.5v-621q0 -44 -15 -79q-27 -62 -90 -83q-21 -7 -34.5 -7t-19.5 1l-248 24v37l248 -5h3q41 0 70 28
t29 84v133q-45 -18 -100.5 -28.5t-97 -10.5t-74.5 14t-53 38t-32 60q-21 63 -21 179t46 186zM113 268q0 -131 33 -178q31 -43 94 -43t97 7q46 9 97 21v405h-194q-127 0 -127 -212z" />
    <glyph glyph-name="exclam.smcp" horiz-adv-x="265" 
d="M92 19v59q0 21 20 21h40q19 0 19 -21v-59q0 -19 -19 -19h-40q-9 0 -14.5 5.5t-5.5 13.5zM98 570h66l-6 -403h-54z" />
    <glyph glyph-name="quotedbl.smcp" horiz-adv-x="339" 
d="M137 622v-67l-9 -134h-39l-9 134v67h57zM260 622v-67l-9 -134h-39l-9 134v67h57z" />
    <glyph glyph-name="numbersign.smcp" horiz-adv-x="567" 
d="M22 180l6 38h129l23 132h-131l5 37h132l31 183h39l-31 -183h137l30 183h39l-31 -183h146l-5 -37h-146l-23 -132h148l-6 -38h-148l-30 -181h-39l30 181h-136l-31 -181h-39l31 181h-130zM196 218h138l21 132h-136z" />
    <glyph glyph-name="dollar.smcp" horiz-adv-x="514" 
d="M74 52l219 1q35 0 59 12q45 23 45 72v38q0 37 -27 60t-70 23h-82q-84 0 -123 36.5t-39 98.5v31q0 66 28 98q28 34 67 43q38 10 85 10v65h48v-67q71 -4 151 -14v-42h-207q-60 0 -87.5 -20.5t-27.5 -72.5v-31q0 -41 28.5 -60.5t76.5 -19.5h82q74 0 114.5 -42t40.5 -96v-38
q0 -50 -27 -84q-46 -59 -132 -59h-12v-63h-48v66l-162 14v41z" />
    <glyph glyph-name="percent.smcp" horiz-adv-x="799" 
d="M32 383v63q0 66 28 95.5t101 29.5h46q71 0 99 -29.5t28 -95.5v-63q0 -66 -28 -95.5t-101 -29.5h-46q-92 0 -115 55q-12 26 -12 70zM80 383q0 -45 17.5 -61t61.5 -16h46q61 0 74 30q7 16 7 47v63q0 44 -17 60.5t-62 16.5h-46q-61 0 -74 -30q-7 -16 -7 -47v-63zM200 0
l343 570h54l-343 -570h-54zM465 125v62q0 66 28 95.5t101 29.5h46q71 0 99 -29.5t28 -95.5v-62q0 -67 -28 -96t-101 -29h-46q-71 0 -99 29.5t-28 95.5zM513 125q0 -45 17.5 -61t61.5 -16h46q48 0 64.5 15.5t16.5 61.5v62q0 44 -17 60.5t-62 16.5h-46q-48 0 -64.5 -16
t-16.5 -61v-62z" />
    <glyph glyph-name="ampersand.smcp" horiz-adv-x="550" 
d="M36 160q0 70 67 125l71 58l-44 56q-31 42 -31 78.5t24 61.5t54.5 29.5t82.5 4.5t147 -16v-39h-178q-39 0 -55 -12t-16 -28q0 -24 26 -56l192 -242l93 87l18 -20l-49 -85l-27 -27l104 -135h-67l-78 98l-67 -64q-44 -41 -102 -41q-28 0 -63.5 13.5t-68.5 59t-33 94.5z
M158 62q22 -11 36.5 -11h20.5q30 3 54 27l66 63l-124 158l-68 -56q-48 -39 -48 -87q0 -30 20.5 -56.5t42.5 -37.5z" />
    <glyph glyph-name="quotesingle.smcp" horiz-adv-x="216" 
d="M137 622v-67l-9 -134h-39l-9 134v67h57z" />
    <glyph glyph-name="asterisk.smcp" horiz-adv-x="448" 
d="M56 423v31l140 21l3 -57zM128 260l27 135l57 -13l-56 -131zM186 567l30 12l73 -120l-53 -23zM219 331l31 49l112 -89l-16 -25zM262 413l117 78l15 -27l-94 -95z" />
    <glyph glyph-name="zero.smcp" horiz-adv-x="589" 
d="M78 162v246q0 54 24 91q44 71 148 71h94q44 0 76.5 -12.5t49 -30t27.5 -42.5q14 -36 14 -77v-246q0 -162 -167 -162h-94q-72 0 -120 36q-52 39 -52 126zM135 162q0 -55 33.5 -80t81.5 -25h94q58 0 84 28.5t26 76.5v246q0 105 -110 105h-94q-58 0 -86.5 -28t-28.5 -77
v-246z" />
    <glyph glyph-name="one.smcp" horiz-adv-x="340" 
d="M251 579v-579h-57v514l-149 -60v40l149 85h57z" />
    <glyph glyph-name="two.smcp" horiz-adv-x="518" 
d="M269 571q193 0 193 -187q0 -164 -299 -327h294v-57h-406v53q20 14 62 40t76.5 47.5t76 52.5t70 59t47.5 63.5t19 69.5q0 64 -32 96.5t-102 32.5h-8l-215 -1v37q27 4 60.5 9t49.5 7q42 5 114 5z" />
    <glyph glyph-name="three.smcp" horiz-adv-x="519" 
d="M298 -5h-24q-185 0 -235 18v39h241q46 0 71.5 18.5t25.5 68.5v28q0 47 -26.5 67t-63.5 21l-200 5v48l200 4q92 1 92 83v35q0 42 -24 64t-70 22h-252v38q56 19 222 19q23 0 56.5 -0.5t64.5 -20.5q60 -39 60 -122v-35q0 -46 -19 -75t-43 -36q26 -13 44 -43t18 -74v-28
q0 -144 -138 -144z" />
    <glyph glyph-name="four.smcp" horiz-adv-x="538" 
d="M369 208v173l28 75h29v-248h90v-44l-90 -16v-146h-57v146h-318l-29 32l223 390h67l-204 -362h261z" />
    <glyph glyph-name="five.smcp" horiz-adv-x="556" 
d="M332 60q55 0 78 24t23 69v54q0 66 -43 80q-21 7 -54 7h-101q-55 0 -82 -38q-14 -19 -14 -45h-53l17 359h361v-57h-305l-10 -205q13 18 36 30.5t50 12.5h101q84 0 119 -37t35 -105v-58q0 -79 -43.5 -115t-114.5 -37h-23q-150 0 -224 20v41h247z" />
    <glyph glyph-name="six.smcp" horiz-adv-x="560" 
d="M73 301q0 63 9.5 112.5t24.5 79t36 49.5q37 34 84 34h24q112 0 224 -13v-44h-248q-29 0 -50 -22t-30 -57q-17 -62 -17 -117q90 11 228 11q75 0 105 -30.5t30 -85.5v-92q0 -65 -37.5 -96t-97.5 -31h-125q-77 0 -112 56q-48 77 -48 246zM130 277q0 -221 103 -221h125
q36 0 57 16t21 58v88q0 34 -18.5 46.5t-59.5 12.5h-228z" />
    <glyph glyph-name="seven.smcp" horiz-adv-x="479" 
d="M33 513v57h390l24 -40l-200 -530h-63l193 513h-344z" />
    <glyph glyph-name="eight.smcp" horiz-adv-x="591" 
d="M84 132v58q0 49 26 69q21 15 48 22q-24 7 -42 26q-32 35 -32 89v38q0 77 33 109t103 32h162q126 0 126 -141v-38q0 -31 -11 -53q-21 -40 -57 -47q31 -5 49.5 -38t18.5 -69v-57q0 -70 -37 -101t-90 -31h-162q-38 0 -65 10.5t-40 23.5t-21 34q-9 28 -9 64zM141 130
q0 -38 19 -55t65 -17h150q35 0 55.5 18t20.5 54v53q0 78 -78 78h-152q-80 0 -80 -76v-55zM141 394q0 -75 80 -75h152q29 0 48 11q31 19 31 64v38q0 49 -17 67t-59 18h-150q-46 0 -61 -10.5t-19.5 -27.5t-4.5 -47v-38z" />
    <glyph glyph-name="nine.smcp" horiz-adv-x="560" 
d="M202 574h126q91 -1 128 -86q32 -73 32 -215q0 -176 -71 -242q-36 -33 -83 -34h-35q-130 0 -214 13v44h248q30 0 51 22t30 57q17 62 17 117q-91 -11 -229 -11q-74 0 -104.5 30.5t-30.5 85.5v92q0 44 19 73q35 54 116 54zM124 355q0 -34 18.5 -46.5t59.5 -12.5h229
q0 221 -103 221h-126q-35 0 -56.5 -15.5t-21.5 -58.5v-88z" />
    <glyph glyph-name="question.smcp" horiz-adv-x="465" 
d="M22 515v43q114 14 159 14h57q92 0 137 -41t45 -114v-47q0 -76 -58 -111q-44 -26 -102 -26q-19 0 -41 3v-70h-59v121q31 -1 54 -1t41 0.5t36 5t35 13.5q37 19 37 65v47q0 52 -31 75t-98 23h-212zM150 19v59q0 21 20 21h39q20 0 20 -21v-59q0 -19 -20 -19h-39
q-9 0 -14.5 5.5t-5.5 13.5z" />
    <glyph glyph-name="at.smcp" horiz-adv-x="851" 
d="M241 554h210q59 0 102 -28q51 -33 51 -112v-372h-43l-11 64l-12 -7.5t-31.5 -18t-43.5 -21.5q-57 -26 -107 -26h-5q-52 0 -88 33t-35 84v53q0 61 33.5 97t95.5 36h191q1 38 1 57t-1 19q0 47 -25 66t-75 19h-207q-52 0 -81.5 -23t-29.5 -84v-348q0 -71 37 -98
q32 -22 74 -22h339q65 0 92.5 29t27.5 91v512q0 95 -70 122q-22 9 -50 9h-399v36q102 21 267 21h21h111q111 -2 154 -84q23 -43 23 -104v-512q0 -178 -177 -178h-339q-78 0 -123 46t-45 132v348q0 48 10 71t22.5 39.5t29.5 27.5q40 26 106 26zM361 90h2h2q64 0 183 57v150
l-186 -14q-34 -3 -56 -23t-21 -59q-1 -1 -1 -22.5t1 -22.5q0 -26 22 -46t54 -20z" />
    <glyph glyph-name="a.smcp" horiz-adv-x="586" 
d="M39 0l236 570h57l218 -570h-62l-64 162h-254l-69 -162h-62zM193 219h211l-101 271z" />
    <glyph glyph-name="b.smcp" horiz-adv-x="547" 
d="M90 0v571h253q89 0 124 -51q30 -44 30 -99.5t-20.5 -84.5t-54.5 -45q27 -9 52.5 -42.5t25.5 -88.5q0 -160 -157 -160h-253zM147 58h196q72 0 91 47q9 22 9 62.5t-26 69.5t-74 29q-86 -1 -135.5 -1t-60.5 1v-208zM440 420q0 94 -97 94h-196v-191h196q49 0 73 23t24 74z
" />
    <glyph glyph-name="c.smcp" horiz-adv-x="524" 
d="M61 295q0 47 5 85.5t18.5 76.5t35.5 64q49 57 145 57q36 0 111.5 -7.5t111.5 -15.5v-44q-12 2 -94 6t-129 4q-79 0 -113 -56.5t-34 -169.5q0 -179 74 -224q30 -18 73 -18l223 10v-42q-130 -25 -223 -25q-52 0 -90 18.5t-59.5 46.5t-34 70t-16.5 79.5t-4 84.5z" />
    <glyph glyph-name="d.smcp" horiz-adv-x="606" 
d="M90 0v572h240q50 -1 89.5 -19.5t63.5 -47.5t39 -68q27 -68 27 -140t-9.5 -118.5t-23 -75.5t-35.5 -50t-39.5 -31t-42.5 -15q-32 -7 -69 -7h-240zM147 57h183q94 0 130 67q32 61 32 169t-45.5 165t-116.5 57h-183v-458z" />
    <glyph glyph-name="e.smcp" horiz-adv-x="520" 
d="M90 83v398q0 44 27.5 67t76.5 23l280 -11v-45h-278q-31 0 -40 -10.5t-9 -33.5v-157l296 -7v-45l-296 -6v-158q0 -43 44 -43h283v-44l-300 -13q-38 0 -61 23t-23 62z" />
    <glyph glyph-name="f.smcp" horiz-adv-x="520" 
d="M90 0v481q0 44 27.5 67t76.5 23l280 -11v-45h-278q-30 0 -39 -11t-10 -33v-158l296 -8v-45l-296 -6v-254h-57z" />
    <glyph glyph-name="g.smcp" horiz-adv-x="576" 
d="M62 258.5q-1 13.5 -1 57t9.5 94.5t32.5 91q46 78 171 78q51 0 126.5 -9.5t104.5 -15.5v-46q-141 14 -215 14t-107 -20q-65 -40 -65 -214q0 -91 34 -161q18 -35 49.5 -56.5t79.5 -21.5t103.5 19.5t77.5 35.5v150h-185v37q5 1 21.5 4t22.5 4t20.5 3.5t24.5 3.5t25 3
q25 2 58.5 2t69.5 -3v-308h-41l-14 47q-39 -25 -91.5 -39.5t-98.5 -14.5h-18.5t-49.5 10t-52 28.5t-37.5 40t-26 49t-16 50.5t-9 48.5t-3.5 39z" />
    <glyph glyph-name="h.smcp" horiz-adv-x="601" 
d="M90 -1v571h57v-266h334v266h57v-571h-57v247h-334v-247h-57z" />
    <glyph glyph-name="i.smcp" horiz-adv-x="209" 
d="M90 0v570h57v-570h-57z" />
    <glyph glyph-name="j.smcp" horiz-adv-x="332" 
d="M43 61q49 -10 66 -10t28.5 0.5t25 7t26.5 19.5q23 24 24 88v404h57v-404q0 -112 -56 -148q-40 -22 -85.5 -22t-89.5 25z" />
    <glyph glyph-name="k.smcp" horiz-adv-x="550" 
d="M90 -1v571h57v-262h93l203 262h71l-224 -290l224 -281h-71l-204 251h-92v-251h-57z" />
    <glyph glyph-name="l.smcp" horiz-adv-x="504" 
d="M90 86v484h57v-472q-1 -24 11 -32.5t37 -8.5h273v-57h-292q-41 0 -63.5 22.5t-22.5 63.5z" />
    <glyph glyph-name="m.smcp" horiz-adv-x="735" 
d="M61 0l61 571h67l183 -474l184 474h64l58 -571h-55l-47 464l-179 -464h-47l-181 468l-54 -468h-54z" />
    <glyph glyph-name="n.smcp" horiz-adv-x="608" 
d="M90 0v571h54l346 -466v466h56v-571h-53l-346 469v-469h-57z" />
    <glyph glyph-name="o.smcp" horiz-adv-x="607" 
d="M68 172q-7 46 -7 122.5t14.5 134.5t46.5 90t74.5 44t94.5 12t79.5 -2.5t54.5 -10t45.5 -20.5t34.5 -34t26 -52q19 -65 19 -153.5t-9.5 -140t-27.5 -84t-49 -51.5q-55 -32 -159 -32q-136 0 -182 49q-43 45 -55 128zM135.5 428q-7.5 -25 -12.5 -61t-5 -90t7.5 -95.5
t20 -67.5t37 -39.5t52 -18t69 -4.5t67.5 4t52 18t40 39q30 54 30 167q0 116 -20 163q-11 26 -24 41t-37 22q-36 12 -85.5 12t-68 -1.5t-40 -6.5t-35 -14.5t-27 -26t-21 -41.5z" />
    <glyph glyph-name="p.smcp" horiz-adv-x="530" 
d="M67 0v569h264q57 0 102 -35q50 -40 50 -124q0 -104 -41 -143q-25 -24 -49 -29q-30 -6 -64 -6l-204 11v-243h-58zM426 409q0 50 -27 76.5t-68 26.5h-206v-224h206q42 0 61.5 14.5t26.5 39t7 45v22.5z" />
    <glyph glyph-name="q.smcp" horiz-adv-x="607" 
d="M68 172q-7 46 -7 122.5t14.5 134.5t46.5 90t74.5 44t94.5 12t79.5 -2.5t54.5 -10t45.5 -20.5t34.5 -34t26 -52q19 -65 19 -153.5t-9.5 -140t-27.5 -84t-49 -51.5q-55 -32 -159 -32q-136 0 -182 49q-43 45 -55 128zM121 351.5q-3 -29.5 -3 -79t7.5 -91t20 -67.5t37 -39.5
t52 -18t69 -4.5t67.5 4t51.5 18t39.5 39q31 56 31 174q0 85 -8.5 118.5t-16 50.5t-20.5 28.5t-25.5 18t-33.5 10.5q-32 5 -69 5t-51.5 -0.5t-32.5 -3t-30 -7.5t-25.5 -13.5t-22 -20.5t-17 -29.5t-13 -40t-7.5 -52zM430 -80q31 0 68 12v-61q-24 -10 -40.5 -10t-35.5 1
t-49.5 10.5t-54.5 34.5t-30 60h39q43 -47 103 -47z" />
    <glyph glyph-name="r.smcp" horiz-adv-x="537" 
d="M67 0v571h264q83 0 127 -60q26 -37 26 -105t-31.5 -115t-88.5 -51l138 -240h-66l-131 234q-180 12 -181 14v-248h-57zM124 291h210q32 0 53 16q40 30 40 101q0 84 -67 102q-15 4 -29 4h-207v-223z" />
    <glyph glyph-name="s.smcp" horiz-adv-x="543" 
d="M199 573q59 0 143.5 -7t116.5 -11v-43q-162 5 -260 5q-81 0 -81 -81v-62q0 -44 18 -54q7 -5 10.5 -7t16.5 -3q14 -2 36 -2h157q64 0 97 -31.5t33 -88.5v-70q0 -78 -45 -105q-37 -23 -86.5 -23t-148 6t-123.5 14v41q177 -4 273 -4q36 0 54.5 25.5t18.5 45.5v70
q0 33 -17 48.5t-56 15.5h-157q-49 0 -78 10q-60 22 -60 112v62q0 137 138 137z" />
    <glyph glyph-name="t.smcp" horiz-adv-x="524" 
d="M39 513v57h449v-57h-196v-513h-57v513h-196z" />
    <glyph glyph-name="u.smcp" horiz-adv-x="618" 
d="M147 570v-310q0 -148 61 -184q40 -24 100.5 -24t90.5 9t53 31q45 44 45 168v310h58v-310q0 -188 -98 -239q-31 -16 -61.5 -21t-66.5 -5t-59.5 2t-49.5 8.5t-44.5 18.5t-36 31.5t-27.5 47.5q-23 61 -23 157v310h58z" />
    <glyph glyph-name="v.smcp" horiz-adv-x="594" 
d="M39 570h63l199 -484l195 484h62l-229 -570h-55z" />
    <glyph glyph-name="w.smcp" horiz-adv-x="842" 
d="M39 570h63l181 -485l173 485h62l-65 -186l118 -299l176 485h59l-207 -570h-57l-119 306l-109 -306h-59z" />
    <glyph glyph-name="x.smcp" horiz-adv-x="557" 
d="M39 0l205 286l-203 284h74l165 -233l167 233h75l-206 -284l204 -286h-72l-168 234l-169 -234h-72z" />
    <glyph glyph-name="y.smcp" horiz-adv-x="564" 
d="M313 -1h-57v191l-217 380h63l183 -320l180 320h63l-215 -380v-191z" />
    <glyph glyph-name="z.smcp" horiz-adv-x="498" 
d="M39 0v57l348 456h-348v57h423v-57l-345 -456h345v-57h-423z" />
    <glyph glyph-name="grave.smcp" horiz-adv-x="228" 
d="M22 664h72l112 -133h-51z" />
    <glyph glyph-name="aogonek.smcp" horiz-adv-x="608" 
d="M542 0q-66 -43 -66 -87q0 -16 12 -28q20 -21 67 -22v-44q-10 -1 -26.5 -1t-41.5 9t-40 30q-18 26 -18 50t20 49.5t63 43.5h30zM45 0l236 570h57l218 -570h-63l-64 162h-253l-69 -162h-62zM199 219h211l-101 271z" />
    <glyph glyph-name="rcommaaccent.smcp" horiz-adv-x="537" 
d="M268 -228q-8 -1 -11.5 -1t-13.5 1v21h1q23 0 23 23v29h-9q-18 0 -18 19v51q0 20 18 20h34q17 0 17 -20v-88q0 -47 -41 -55zM67 0v571h264q83 0 127 -60q26 -37 26 -92.5t-13.5 -92.5t-41 -60t-65.5 -26l138 -240h-66l-131 234q-180 12 -181 14v-248h-57zM124 291h210
q32 0 53 16q40 30 40 101q0 84 -67 102q-15 4 -29 4h-207v-223z" />
    <glyph glyph-name="itilde.smcp" horiz-adv-x="209" 
d="M204 638q-41 -20 -97 17q-35 23 -52 23t-32 -5.5t-35 -17.5t-30 -17l-15 30q25 21 39 31q40 31 70 30t68 -24t47.5 -23t16 1t14 4t13 5t14.5 7.5t13 8t14 8.5t13 7l16 -30q-3 -2 -14 -11.5t-15.5 -13t-14.5 -11.5q-12 -9 -33 -19zM90 0v570h57v-570h-57z" />
    <glyph glyph-name="lcommaaccent.smcp" horiz-adv-x="504" 
d="M283 -228q-8 -1 -12 -1t-13 1v21h1q22 0 22 23v29h-9q-18 0 -18 19v51q0 20 18 20h34q18 0 18 -20v-88q0 -47 -41 -55zM90 86v484h57v-472q-1 -24 11 -32.5t37 -8.5h273v-57h-292q-41 0 -63.5 22.5t-22.5 63.5z" />
    <glyph glyph-name="dieresis.smcp" horiz-adv-x="445" 
d="M56 581.5q0 16.5 11.5 28t25 11.5t22.5 -5q20 -12 20 -31.5t-11.5 -31t-28 -11.5t-28 11.5t-11.5 28zM311 581.5q0 16.5 11.5 28t28 11.5t27.5 -11.5t11 -28t-11 -28t-27.5 -11.5t-28 11.5t-11.5 28z" />
    <glyph glyph-name="scaron.smcp" horiz-adv-x="543" 
d="M132 763h53l91 -86l88 86h53l-113 -130h-55zM61 374v62q0 137 138 137q59 0 143.5 -7t116.5 -11v-43q-162 5 -260 5q-81 0 -81 -81v-62q0 -44 18 -54q7 -5 10.5 -7t16.5 -3q14 -2 36 -2h157q64 0 97 -31.5t33 -88.5v-70q0 -78 -45 -105q-37 -23 -86.5 -23t-148 6
t-123.5 14v41q177 -4 273 -4q36 0 54.5 25.5t18.5 45.5v70q0 33 -17 48.5t-56 15.5h-157q-49 0 -78 10q-60 22 -60 112z" />
    <glyph glyph-name="emacron.smcp" horiz-adv-x="520" 
d="M155 632v47h278v-47h-278zM90 83v398q0 44 27.5 67t76.5 23l280 -11v-45h-278q-31 0 -40 -10.5t-9 -33.5v-157l296 -7v-45l-296 -6v-158q0 -43 44 -43h283v-44l-300 -13q-38 0 -61 23t-23 62z" />
    <glyph glyph-name="gcommaaccent.smcp" horiz-adv-x="576" 
d="M516 0h-42l-14 41q-74 -48 -182 -48q-101 0 -153 65q-32 40 -42.5 76t-14 53.5t-5.5 41.5q-2 28 -2 79t10 102t35 91q49 78 177 78q34 0 104 -8t115 -17v-45q-22 2 -109 8t-106 6q-62 0 -97 -20q-71 -39 -71 -215q0 -114 39 -174q40 -64 139 -64q51 0 94 12.5t68 31.5
v159h-192v38q106 20 159.5 20t89.5 -3v-308zM295 -229q-8 -2 -12 -2t-13 2v21h1q22 0 22 23v29h-8q-18 0 -18 19v51q0 20 18 20h33q18 0 18 -20v-88q0 -48 -41 -55z" />
    <glyph glyph-name="tbar.smcp" horiz-adv-x="494" 
d="M22 513v57h450v-57h-196v-168h105v-40h-105v-305h-57v305h-109v40h109v168h-197z" />
    <glyph glyph-name="zcaron.smcp" horiz-adv-x="498" 
d="M108 760h53l91 -86l88 86h53l-114 -130h-54zM39 0v57l348 456h-348v57h423v-57l-345 -456h345v-57h-423z" />
    <glyph glyph-name="macron.smcp" horiz-adv-x="403" 
d="M56 530v47h292v-47h-292z" />
    <glyph glyph-name="degree.smcp" horiz-adv-x="314" 
d="M56 468.5q0 42.5 29.5 73t71.5 30.5t71.5 -30t29.5 -73t-29.5 -73t-71.5 -30t-71.5 30t-29.5 72.5zM92 469q0 -27 19 -46.5t46.5 -19.5t46 19.5t18.5 46.5t-19 46t-46 19t-46 -19t-19 -46z" />
    <glyph glyph-name="acute.smcp" horiz-adv-x="228" 
d="M22 531l112 133h72l-133 -133h-51z" />
    <glyph glyph-name="caron.smcp" horiz-adv-x="397" 
d="M56 681h45l93 -99l100 99h47l-122 -150h-54z" />
    <glyph glyph-name="eng.smcp" horiz-adv-x="608" 
d="M490 571h56v-627q-3 -158 -178 -158v47q88 5 112 58q10 22 10 55v56l-343 467v-469h-57v571h54l346 -467v467z" />
    <glyph glyph-name="amacron.smcp" horiz-adv-x="586" 
d="M165 630v47h278v-47h-278zM39 0l236 570h57l218 -570h-62l-64 162h-254l-69 -162h-62zM193 219h211l-101 271z" />
    <glyph glyph-name="aacute.smcp" horiz-adv-x="586" 
d="M279 630l112 133h71l-133 -133h-50zM39 0l236 570h57l218 -570h-62l-64 162h-254l-69 -162h-62zM193 219h211l-101 271z" />
    <glyph glyph-name="acircumflex.smcp" horiz-adv-x="586" 
d="M161 630l122 130h54l110 -130h-53l-85 86l-94 -86h-54zM39 0l236 570h57l218 -570h-62l-64 162h-254l-69 -162h-62zM193 219h211l-101 271z" />
    <glyph glyph-name="atilde.smcp" horiz-adv-x="586" 
d="M396 638q-41 -20 -97 17q-35 23 -52.5 23t-32 -5.5t-34.5 -17.5t-30 -17l-15 30q25 21 39 31q40 31 70 30t68 -24t47 -23t15.5 1t14.5 4t13.5 5t14.5 7.5t13 8t14 8.5t12 7l17 -30q-3 -2 -14 -11.5t-15.5 -13t-14.5 -11.5q-12 -9 -33 -19zM39 0l236 570h57l218 -570h-62
l-64 162h-254l-69 -162h-62zM193 219h211l-101 271z" />
    <glyph glyph-name="adieresis.smcp" horiz-adv-x="586" 
d="M137 669.5q0 16.5 11.5 28t28 11.5t28 -11.5t11.5 -28t-11.5 -28t-28 -11.5t-28 11.5t-11.5 28zM392 669.5q0 16.5 11.5 28t28 11.5t28 -11.5t11.5 -25t-5 -22.5q-12 -20 -31.5 -20t-31 11.5t-11.5 28zM39 0l236 570h57l218 -570h-62l-64 162h-254l-69 -162h-62zM193 219
h211l-101 271z" />
    <glyph glyph-name="aring.smcp" horiz-adv-x="586" 
d="M204 668q0 -28 13.5 -51.5t37 -37t58.5 -13.5t64 29.5t29 65t-13 59.5t-36.5 37.5t-51 13.5t-51 -13.5t-37 -37.5t-13.5 -52zM239 668q0 27 20 46.5t47 19.5t46 -19.5t19 -46.5t-19 -46t-46.5 -19t-47 19t-19.5 46zM39 0l236 570h57l218 -570h-62l-64 162h-254l-69 -162
h-62zM193 219h211l-101 271z" />
    <glyph glyph-name="ae.smcp" horiz-adv-x="794" 
d="M749 513h-269q-32 0 -41 -9t-10 -35v-159l289 -7v-45l-289 -8v-155q0 -26 13 -34t33 -8h274v-44l-288 -13h-15.5t-33.5 10q-40 20 -40 74v96h-180l-102 -176h-64l271 482q30 53 67 69t114 18l271 -11v-45zM372 233v265l-151 -265h151z" />
    <glyph glyph-name="iogonek.smcp" horiz-adv-x="209" 
d="M140 0q-66 -43 -66 -87q0 -16 12 -28q19 -21 66 -22v-44q-9 -1 -25.5 -1t-41.5 9t-40 30q-18 26 -18 50t20 49.5t63 43.5h30zM92 0v570h57v-570h-57z" />
    <glyph glyph-name="ccaron.smcp" horiz-adv-x="524" 
d="M157 773h53l91 -86l88 86h53l-113 -130h-55zM61 295q0 47 5 85.5t18.5 76.5t35.5 64q49 57 145 57q36 0 111.5 -7.5t111.5 -15.5v-44q-12 2 -94 6t-129 4q-79 0 -113 -56.5t-34 -169.5q0 -179 74 -224q30 -18 73 -18l223 10v-42q-130 -25 -223 -25q-52 0 -90 18.5
t-59.5 46.5t-34 70t-16.5 79.5t-4 84.5z" />
    <glyph glyph-name="eacute.smcp" horiz-adv-x="520" 
d="M270 632l112 133h71l-133 -133h-50zM90 83v398q0 44 27.5 67t76.5 23l280 -11v-45h-278q-31 0 -40 -10.5t-9 -33.5v-157l296 -7v-45l-296 -6v-158q0 -43 44 -43h283v-44l-300 -13q-38 0 -61 23t-23 62z" />
    <glyph glyph-name="eogonek.smcp" horiz-adv-x="520" 
d="M474 11q-66 -43 -66 -87q0 -16 12 -28q20 -22 67 -22v-44q-10 -1 -26.5 -1t-41.5 9t-40 30q-18 26 -18 50t20 49.5t63 43.5h30zM90 83v398q0 44 27.5 67t76.5 23l280 -11v-45h-278q-31 0 -40 -10.5t-9 -33.5v-157l296 -7v-45l-296 -6v-158q0 -43 44 -43h283v-44l-300 -13
q-38 0 -61 23t-23 62z" />
    <glyph glyph-name="edieresis.smcp" horiz-adv-x="520" 
d="M124 683q0 16 11.5 27.5t28 11.5t27.5 -11.5t11 -28t-11 -28t-27.5 -11.5t-28 12t-11.5 28zM379 683q0 16 11.5 27.5t28 11.5t28 -11.5t11.5 -28t-11.5 -28t-28 -11.5t-28 12t-11.5 28zM90 83v398q0 44 27.5 67t76.5 23l280 -11v-45h-278q-31 0 -40 -10.5t-9 -33.5v-157
l296 -7v-45l-296 -6v-158q0 -43 44 -43h283v-44l-300 -13q-38 0 -61 23t-23 62z" />
    <glyph glyph-name="edotaccent.smcp" horiz-adv-x="520" 
d="M262 651v57q0 20 20 20h36q20 0 20 -20v-57q0 -19 -20 -19h-36q-9 0 -14.5 5t-5.5 14zM90 83v398q0 44 27.5 67t76.5 23l280 -11v-45h-278q-31 0 -40 -10.5t-9 -33.5v-157l296 -7v-45l-296 -6v-158q0 -43 44 -43h283v-44l-300 -13q-38 0 -61 23t-23 62z" />
    <glyph glyph-name="iacute.smcp" horiz-adv-x="209" 
d="M99 630l112 133h71l-133 -133h-50zM90 0v570h57v-570h-57z" />
    <glyph glyph-name="icircumflex.smcp" horiz-adv-x="209" 
d="M-20 630l122 130h53l110 -130h-53l-85 86l-94 -86h-53zM90 0v570h57v-570h-57z" />
    <glyph glyph-name="imacron.smcp" horiz-adv-x="209" 
d="M-13 630v47h279v-47h-279zM93 0v570h57v-570h-57z" />
    <glyph glyph-name="dcroat.smcp" horiz-adv-x="598" 
d="M111 572l209 -1q48 0 86.5 -18.5t61.5 -47.5t38 -68q25 -68 25 -140t-9.5 -118.5t-23.5 -75.5t-36 -50t-39.5 -31t-42.5 -15q-30 -7 -64 -7h-227v270h-67v40h67v262h22zM426 457q-44 55 -116 55h-162v-202h108v-40h-108v-212h158q94 0 131 66q33 59 33 168.5t-44 164.5z
" />
    <glyph glyph-name="ncommaaccent.smcp" horiz-adv-x="608" 
d="M314 -228q-7 -1 -10.5 -1h-6t-9.5 1v21h1q23 0 23 23v29h-9q-18 0 -18 19v51q0 20 18 20h34q17 0 17 -20v-88q0 -28 -9 -37.5t-16.5 -13t-14.5 -4.5zM90 0v571h54l346 -466v466h56v-571h-53l-346 469v-469h-57z" />
    <glyph glyph-name="omacron.smcp" horiz-adv-x="607" 
d="M167 642v47h279v-47h-279zM68 172q-7 46 -7 122.5t14.5 134.5t46.5 90t74.5 44t94.5 12t79.5 -2.5t54.5 -10t45.5 -20.5t34.5 -34t26 -52q19 -65 19 -153.5t-9.5 -140t-27.5 -84t-49 -51.5q-55 -32 -159 -32q-136 0 -182 49q-43 45 -55 128zM135.5 428
q-7.5 -25 -12.5 -61t-5 -90t7.5 -95.5t20 -67.5t37 -39.5t52 -18t69 -4.5t67.5 4t52 18t40 39q30 54 30 167q0 89 -9 123.5t-16 51.5t-20 28.5t-25 18.5t-33 10q-32 6 -72.5 6t-59 -1.5t-40 -6.5t-35 -14.5t-27 -26t-21 -41.5z" />
    <glyph glyph-name="kcommaaccent.smcp" horiz-adv-x="550" 
d="M281 -228.5q-7 -0.5 -10.5 -1t-6.5 -0.5t-9 1v21h1q22 0 22 23v30h-8q-19 0 -19 18v51q0 20 19 20h33q18 0 18 -20v-87q0 -28 -9.5 -37.5t-16.5 -13.5t-14 -4.5zM90 -1v571h57v-262h93l203 262h71l-224 -290l224 -281h-71l-204 251h-92v-251h-57z" />
    <glyph glyph-name="ocircumflex.smcp" horiz-adv-x="607" 
d="M161 632l122 130h54l109 -130h-53l-85 86l-94 -86h-53zM68 172q-7 46 -7 122.5t14.5 134.5t46.5 90t74.5 44t94.5 12t79.5 -2.5t54.5 -10t45.5 -20.5t34.5 -34t26 -52q19 -65 19 -153.5t-9.5 -140t-27.5 -84t-49 -51.5q-55 -32 -159 -32q-136 0 -182 49q-43 45 -55 128z
M135.5 428q-7.5 -25 -12.5 -61t-5 -90t7.5 -95.5t20 -67.5t37 -39.5t52 -18t69 -4.5t67.5 4t52 18t40 39q30 54 30 167q0 89 -9 123.5t-16 51.5t-20 28.5t-25 18.5t-33 10q-32 6 -72.5 6t-59 -1.5t-40 -6.5t-35 -14.5t-27 -26t-21 -41.5z" />
    <glyph glyph-name="otilde.smcp" horiz-adv-x="607" 
d="M407 643q-41 -20 -97 17q-35 23 -52 23t-32 -5.5t-35 -17.5t-30 -17l-15 30q25 21 39 31q40 31 70 30t68 -24t47.5 -23t16 1t14 4t13 5t14.5 7.5t13 8t14 8.5t13 7l16 -30q-2 -2 -13.5 -11.5t-16 -13t-14.5 -11.5q-12 -9 -33 -19zM68 172q-7 46 -7 122.5t14.5 134.5
t46.5 90t74.5 44t94.5 12t79.5 -2.5t54.5 -10t45.5 -20.5t34.5 -34t26 -52q19 -65 19 -153.5t-9.5 -140t-27.5 -84t-49 -51.5q-55 -32 -159 -32q-136 0 -182 49q-43 45 -55 128zM135.5 428q-7.5 -25 -12.5 -61t-5 -90t7.5 -95.5t20 -67.5t37 -39.5t52 -18t69 -4.5t67.5 4
t52 18t40 39q30 54 30 167q0 89 -9 123.5t-16 51.5t-20 28.5t-25 18.5t-33 10q-32 6 -72.5 6t-59 -1.5t-40 -6.5t-35 -14.5t-27 -26t-21 -41.5z" />
    <glyph glyph-name="odieresis.smcp" horiz-adv-x="607" 
d="M137 674.5q0 16.5 11.5 28t28 11.5t27.5 -11.5t11 -28t-11 -28t-27.5 -11.5t-28 11.5t-11.5 28zM403 646.5q-12 11.5 -12 25.5t6 22q11 20 31 20t31 -11.5t11 -28t-11 -28t-27.5 -11.5t-28.5 11.5zM68 172q-7 46 -7 122.5t14.5 134.5t46.5 90t74.5 44t94.5 12t79.5 -2.5
t54.5 -10t45.5 -20.5t34.5 -34t26 -52q19 -65 19 -153.5t-9.5 -140t-27.5 -84t-49 -51.5q-55 -32 -159 -32q-136 0 -182 49q-43 45 -55 128zM135.5 428q-7.5 -25 -12.5 -61t-5 -90t7.5 -95.5t20 -67.5t37 -39.5t52 -18t69 -4.5t67.5 4t52 18t40 39q30 54 30 167
q0 89 -9 123.5t-16 51.5t-20 28.5t-25 18.5t-33 10q-32 6 -72.5 6t-59 -1.5t-40 -6.5t-35 -14.5t-27 -26t-21 -41.5z" />
    <glyph glyph-name="oslash.smcp" horiz-adv-x="597" 
d="M534 570l-41 -54q51 -60 51 -229q0 -123 -26 -185q-27 -64 -79 -86q-50 -21 -124.5 -21t-116 9.5t-70.5 34.5q-18 -24 -28 -39h-46q49 65 49 67q-42 64 -42 213q0 91 14 149t45.5 90t73.5 44t108 12q117 0 164 -33l21 28h47zM143 119l287 376q-20 14 -49.5 18.5t-68 4.5
t-57 -1.5t-40 -6.5t-34.5 -14.5t-26 -26.5t-21 -42q-16 -55 -16 -157t25 -151zM165 87q37 -35 131 -35q46 0 71.5 4t50.5 17.5t38 38.5q31 57 31 181.5t-33 173.5q-28 -36 -289 -380z" />
    <glyph glyph-name="uogonek.smcp" horiz-adv-x="567" 
d="M355 -2q-65 -42 -65 -86q0 -16 11 -29q20 -21 67 -21v-45q-10 -1 -26 -1t-41.5 9.5t-40.5 30.5q-18 25 -18 49.5t20.5 49.5t62.5 43h30zM102 570h58v-310q-1 -126 42 -168q22 -23 53.5 -31.5t78.5 -8.5t77.5 9t53.5 31q45 44 45 168v310h58v-310q0 -188 -98 -239
q-32 -16 -62 -21t-66 -5t-60 2t-50 8.5t-44 18.5t-35.5 31.5t-28.5 47.5q-23 61 -22 157v310z" />
    <glyph glyph-name="uacute.smcp" horiz-adv-x="618" 
d="M297 630l112 133h71l-133 -133h-50zM89 570h58v-310q0 -126 42 -168q23 -23 54.5 -31.5t78.5 -8.5t77 9t53 31q45 44 45 168v310h58v-310q0 -188 -98 -239q-31 -16 -61.5 -21t-66.5 -5t-59.5 2t-49.5 8.5t-44.5 18.5t-36 31.5t-27.5 47.5q-23 61 -23 157v310z" />
    <glyph glyph-name="ucircumflex.smcp" horiz-adv-x="618" 
d="M178 630l122 130h54l109 -130h-53l-85 86l-93 -86h-54zM89 570h58v-310q0 -126 42 -168q23 -23 54.5 -31.5t78.5 -8.5t77 9t53 31q45 44 45 168v310h58v-310q0 -188 -98 -239q-31 -16 -61.5 -21t-66.5 -5t-59.5 2t-49.5 8.5t-44.5 18.5t-36 31.5t-27.5 47.5
q-23 61 -23 157v310z" />
    <glyph glyph-name="udieresis.smcp" horiz-adv-x="618" 
d="M153 669.5q0 16.5 11.5 28t28 11.5t28 -11.5t11.5 -28t-11.5 -28t-28 -11.5t-28 11.5t-11.5 28zM408 669.5q0 16.5 11.5 28t28 11.5t28 -11.5t11.5 -28t-11.5 -28t-28 -11.5t-28 11.5t-11.5 28zM89 570h58v-310q0 -126 42 -168q23 -23 54.5 -31.5t78.5 -8.5t77 9t53 31
q45 44 45 168v310h58v-310q0 -188 -98 -239q-31 -16 -61.5 -21t-66.5 -5t-59.5 2t-49.5 8.5t-44.5 18.5t-36 31.5t-27.5 47.5q-23 61 -23 157v310z" />
    <glyph glyph-name="utilde.smcp" horiz-adv-x="618" 
d="M335 643q-21 12 -38.5 23.5t-24.5 11.5h-13.5t-17 -2.5t-19.5 -7t-16.5 -9t-18.5 -11t-20 -10.5l-15 30q25 21 38 31q41 31 68 30.5t49.5 -12.5t41 -23.5t27.5 -11.5t15.5 1t14 4t13 5t14.5 7.5t13.5 8t14 8.5t12.5 7l17 -30q-3 -2 -14.5 -11.5t-15.5 -13t-14.5 -11.5
t-17 -11.5t-15.5 -7.5q-37 -18 -78 5zM89 570h58v-310q0 -126 42 -168q23 -23 54.5 -31.5t78.5 -8.5t77 9t53 31q45 44 45 168v310h58v-310q0 -188 -98 -239q-31 -16 -61.5 -21t-66.5 -5t-59.5 2t-49.5 8.5t-44.5 18.5t-36 31.5t-27.5 47.5q-23 61 -23 157v310z" />
    <glyph glyph-name="umacron.smcp" horiz-adv-x="618" 
d="M181 630v47h279v-47h-279zM89 570h58v-310q0 -126 42 -168q23 -23 54.5 -31.5t78.5 -8.5t77 9t53 31q45 44 45 168v310h58v-310q0 -188 -98 -239q-31 -16 -61.5 -21t-66.5 -5t-59.5 2t-49.5 8.5t-44.5 18.5t-36 31.5t-27.5 47.5q-23 61 -23 157v310z" />
    <glyph glyph-name="germandbls.smcp" horiz-adv-x="1007" 
d="M41 374v67q0 65 32 98.5t106 33.5q26 0 104.5 -4.5t148.5 -13.5v-43l-253 5q-43 0 -62 -19t-19 -57v-67q0 -21 8 -43q2 -7 9.5 -11.5t13 -8t50.5 -3.5h150q32 0 57 -8q73 -24 73 -112v-70q0 -78 -45 -105q-20 -13 -40.5 -18t-57.5 -5t-132.5 6t-120.5 14v41l266 -4
q39 0 56 20t17 51v70q0 22 -7 36q-14 28 -66 28h-150q-73 0 -105.5 26t-32.5 96zM672 308h6h150q86 0 116 -55q14 -27 14 -65v-70q0 -78 -45 -105q-37 -23 -86 -23t-144.5 6t-120.5 14v41q170 -4 266 -4q38 0 55.5 20t17.5 51v70q0 33 -17 48.5t-56 15.5h-150
q-73 0 -105.5 26t-32.5 96v67q0 65 32 98.5t106 33.5q40 0 122 -6t131 -12v-43q-155 5 -253 5q-44 0 -62.5 -19t-18.5 -57v-67q0 -47 22 -58q17 -8 53 -8z" />
    <glyph glyph-name="agrave.smcp" horiz-adv-x="586" 
d="M128 763h72l111 -133h-50zM39 0l236 570h57l218 -570h-62l-64 162h-254l-69 -162h-62zM193 219h211l-101 271z" />
    <glyph glyph-name="ccedilla.smcp" horiz-adv-x="524" 
d="M332 -38q0 -78 -20.5 -107t-80.5 -29h-43v27l45 11q28 8 39 30t10 68h50zM61 295q0 47 5 85.5t18.5 76.5t35.5 64q49 57 145 57q36 0 111.5 -7.5t111.5 -15.5v-44q-12 2 -94 6t-129 4q-79 0 -113 -56.5t-34 -169.5q0 -179 74 -224q30 -18 73 -18l223 10v-42
q-130 -25 -223 -25q-52 0 -90 18.5t-59.5 46.5t-34 70t-16.5 79.5t-4 84.5z" />
    <glyph glyph-name="eth.smcp" horiz-adv-x="600" 
d="M117 572l208 -1q49 0 87 -18.5t61 -47.5t38 -68q26 -68 26 -140t-10 -118.5t-24 -75.5t-36 -50t-39.5 -31t-41.5 -15q-31 -7 -64 -7h-228v270h-66v40h66v262h23zM431 457q-44 55 -115 55h-162v-202h108v-40h-108v-212h158q94 0 130 66q33 59 33 168.5t-44 164.5z" />
    <glyph glyph-name="egrave.smcp" horiz-adv-x="520" 
d="M150 765h71l112 -133h-50zM90 83v398q0 44 27.5 67t76.5 23l280 -11v-45h-278q-31 0 -40 -10.5t-9 -33.5v-157l296 -7v-45l-296 -6v-158q0 -43 44 -43h283v-44l-300 -13q-38 0 -61 23t-23 62z" />
    <glyph glyph-name="ecircumflex.smcp" horiz-adv-x="520" 
d="M153 632l122 130h54l109 -130h-53l-85 86l-94 -86h-53zM90 83v398q0 44 27.5 67t76.5 23l280 -11v-45h-278q-31 0 -40 -10.5t-9 -33.5v-157l296 -7v-45l-296 -6v-158q0 -43 44 -43h283v-44l-300 -13q-38 0 -61 23t-23 62z" />
    <glyph glyph-name="igrave.smcp" horiz-adv-x="209" 
d="M-33 763h72l112 -133h-51zM90 0v570h57v-570h-57z" />
    <glyph glyph-name="idieresis.smcp" horiz-adv-x="209" 
d="M-40 650q-5 9 -5 22.5t11.5 25t27.5 11.5t27.5 -11.5t11.5 -25t-5 -22.5t-14 -14.5t-20 -5.5t-20 5.5t-14 14.5zM209 669.5q0 16.5 12 28t28 11.5t27.5 -11.5t11.5 -25t-5 -22.5q-11 -20 -30.5 -20t-31.5 11.5t-12 28zM90 0v570h57v-570h-57z" />
    <glyph glyph-name="ntilde.smcp" horiz-adv-x="608" 
d="M325 644q-21 12 -38.5 23.5t-24.5 11.5h-17t-24 -5.5t-34 -17.5t-30 -17l-15 30q25 21 38 31q41 31 71 30t67.5 -24t47 -23t16 1t14 4t13 5t14.5 7.5t13.5 8t14 8.5t12.5 7l17 -30q-3 -2 -14.5 -11.5t-15.5 -13t-14.5 -11.5t-17 -11.5t-15.5 -7.5q-37 -18 -78 5zM90 0
v571h54l346 -466v466h56v-571h-53l-346 469v-469h-57z" />
    <glyph glyph-name="ograve.smcp" horiz-adv-x="607" 
d="M157 768h72l112 -133h-51zM68 172q-7 46 -7 122.5t14.5 134.5t46.5 90t74.5 44t94.5 12t79.5 -2.5t54.5 -10t45.5 -20.5t34.5 -34t26 -52q19 -65 19 -153.5t-9.5 -140t-27.5 -84t-49 -51.5q-55 -32 -159 -32q-136 0 -182 49q-43 45 -55 128zM135.5 428
q-7.5 -25 -12.5 -61t-5 -90t7.5 -95.5t20 -67.5t37 -39.5t52 -18t69 -4.5t67.5 4t52 18t40 39q30 54 30 167q0 89 -9 123.5t-16 51.5t-20 28.5t-25 18.5t-33 10q-32 6 -72.5 6t-59 -1.5t-40 -6.5t-35 -14.5t-27 -26t-21 -41.5z" />
    <glyph glyph-name="oacute.smcp" horiz-adv-x="607" 
d="M290 635l112 133h71l-133 -133h-50zM68 172q-7 46 -7 122.5t14.5 134.5t46.5 90t74.5 44t94.5 12t79.5 -2.5t54.5 -10t45.5 -20.5t34.5 -34t26 -52q19 -65 19 -153.5t-9.5 -140t-27.5 -84t-49 -51.5q-55 -32 -159 -32q-136 0 -182 49q-43 45 -55 128zM135.5 428
q-7.5 -25 -12.5 -61t-5 -90t7.5 -95.5t20 -67.5t37 -39.5t52 -18t69 -4.5t67.5 4t52 18t40 39q30 54 30 167q0 89 -9 123.5t-16 51.5t-20 28.5t-25 18.5t-33 10q-32 6 -72.5 6t-59 -1.5t-40 -6.5t-35 -14.5t-27 -26t-21 -41.5z" />
    <glyph glyph-name="ugrave.smcp" horiz-adv-x="618" 
d="M171 763h71l112 -133h-50zM89 570h58v-310q0 -126 42 -168q23 -23 54.5 -31.5t78.5 -8.5t77 9t53 31q45 44 45 168v310h58v-310q0 -188 -98 -239q-31 -16 -61.5 -21t-66.5 -5t-59.5 2t-49.5 8.5t-44.5 18.5t-36 31.5t-27.5 47.5q-23 61 -23 157v310z" />
    <glyph glyph-name="yacute.smcp" horiz-adv-x="564" 
d="M249 630l112 133h71l-133 -133h-50zM313 -1h-57v191l-217 380h63l183 -320l180 320h63l-215 -380v-191z" />
    <glyph glyph-name="thorn.smcp" 
d="M84 0v569h56v-103h187q68 0 109 -47q37 -42 37 -125q0 -134 -68 -169q-32 -16 -78 -16q-136 0 -187 14v-123h-56zM140 169h187q31 0 49 10q40 21 40 116q0 109 -89 114h-187v-240z" />
    <glyph glyph-name="quotesinglbase.smcp" horiz-adv-x="232" 
d="M99 -1q-25 0 -25 25v65q0 28 25 28h45q24 0 24 -28v-107q0 -26 -9 -43q-18 -34 -64 -34q-4 0 -16 2v27h2q29 0 29 32v33h-11z" />
    <glyph glyph-name="quotedblleft.smcp" horiz-adv-x="373" 
d="M244.5 568q13.5 6 24 8t16 2t18.5 -2v-28h-2q-31 0 -31 -31v-33h13q10 0 17 -6.5t7 -18.5v-65q0 -27 -24 -27h-46q-25 0 -25 27v107q0 26 9.5 43.5t23 23.5zM99 568q13 6 23.5 8t15.5 2t18 -2v-28h-2q-29 0 -29 -31v-33h11q11 0 18.5 -6.5t7.5 -18.5v-65q0 -27 -26 -27
h-44q-25 0 -25 27v107q0 26 9.5 43.5t22.5 23.5z" />
    <glyph glyph-name="quotedblright.smcp" horiz-adv-x="373" 
d="M130 376q-13 -6 -24 -8t-16.5 -2t-17.5 2v27h2q30 0 30 31v34h-12q-25 0 -25 25v65q0 27 25 27h45q25 0 25 -27v-108q0 -26 -9.5 -43t-22.5 -23zM276 376q-13 -6 -24 -8t-16 -2t-18 2v27h2q29 0 29 31v34h-11q-11 0 -18.5 6.5t-7.5 18.5v65q0 27 26 27h45q24 0 24 -27
v-108q0 -26 -9 -43t-22 -23z" />
    <glyph glyph-name="quotedblbase.smcp" horiz-adv-x="373" 
d="M130 -84.5q-13 -6.5 -24 -8t-16.5 -1.5t-17.5 1v28h2q30 0 30 31v33h-12q-25 0 -25 25v66q0 27 25 27h45q25 0 25 -27v-108q0 -26 -9.5 -43t-22.5 -23.5zM276 -84.5q-13 -6.5 -24 -8t-16 -1.5t-18 1v28h2q29 0 29 31v33h-11q-11 0 -18.5 6.5t-7.5 18.5v66q0 27 26 27h45
q24 0 24 -27v-108q0 -26 -9 -43t-22 -23.5z" />
    <glyph glyph-name="exclamdown.smcp" horiz-adv-x="265" 
d="M92 492v59q0 19 19 19h40q9 0 14.5 -5.5t5.5 -13.5v-59q0 -21 -20 -21h-40q-19 0 -19 21zM99 0l6 403h54l6 -403h-66z" />
    <glyph glyph-name="ordmasculine.smcp" horiz-adv-x="424" 
d="M85 257.5q-35 39.5 -35 142t34.5 142.5t128.5 40t127.5 -39.5t33.5 -142.5t-34 -142.5t-127 -39.5t-128 39.5zM61 145v44h301v-44h-301zM103 470.5q-6 -27.5 -6 -73t7 -72.5t23.5 -39.5t35 -16.5t48 -4t45 2t31 9.5t22.5 21.5q18 32 18 89.5t-6 85t-21.5 41t-34 17.5
t-53 4t-53.5 -4t-34.5 -18.5t-21.5 -42z" />
    <glyph glyph-name="ordfeminine.smcp" horiz-adv-x="416" 
d="M67 147v44h317v-44h-317zM71 225l135 346h57l119 -346h-45l-34 99h-147l-37 -99h-48zM172 365h116l-53 161z" />
    <glyph glyph-name="Euro.smcp" horiz-adv-x="513" 
d="M144 199q0 -145 142 -145q70 0 190 14v-45q-98 -28 -197 -28q-51 0 -87.5 19t-57 40.5t-34.5 59t-14 85.5l-68 6v34l68 6v71l-68 6v32l68 7q0 216 193 216q68 0 194 -23v-45q-130 11 -180 11t-76 -10t-40 -24.5t-22 -37.5q-11 -34 -11 -87l185 -6v-34l-185 -5v-71l185 -5
v-35q-187 -4 -185 -6z" />
    <glyph glyph-name="lcaron.smcp" horiz-adv-x="504" 
d="M90 86v484h57v-472q-1 -24 11 -32.5t37 -8.5h273v-57h-292q-41 0 -63.5 22.5t-22.5 63.5zM280 611v-67l-8 -134h-39l-10 134v67h57z" />
    <glyph glyph-name="sacute.smcp" horiz-adv-x="543" 
d="M239 639l112 133h72l-133 -133h-51zM61 374v62q0 137 138 137q59 0 143.5 -7t116.5 -11v-43q-162 5 -260 5q-81 0 -81 -81v-62q0 -44 18 -54q7 -5 10.5 -7t16.5 -3q14 -2 36 -2h157q64 0 97 -31.5t33 -88.5v-70q0 -78 -45 -105q-37 -23 -86.5 -23t-148 6t-123.5 14v41
q177 -4 273 -4q36 0 54.5 25.5t18.5 45.5v70q0 33 -17 48.5t-56 15.5h-157q-49 0 -78 10q-60 22 -60 112z" />
    <glyph glyph-name="scedilla.smcp" horiz-adv-x="543" 
d="M298 -40q0 -78 -20.5 -107t-80.5 -29h-44v26l46 12q28 8 39 30t10 68h50zM61 374v62q0 137 138 137q59 0 143.5 -7t116.5 -11v-43q-162 5 -260 5q-81 0 -81 -81v-62q0 -44 18 -54q7 -5 10.5 -7t16.5 -3q14 -2 36 -2h157q64 0 97 -31.5t33 -88.5v-70q0 -78 -45 -105
q-37 -23 -86.5 -23t-148 6t-123.5 14v41q177 -4 273 -4q36 0 54.5 25.5t18.5 45.5v70q0 33 -17 48.5t-56 15.5h-157q-49 0 -78 10q-60 22 -60 112z" />
    <glyph glyph-name="tcaron.smcp" horiz-adv-x="584" 
d="M176 773h53l92 -86l88 86h53l-114 -130h-54zM93 513v57h449v-57h-196v-513h-57v513h-196z" />
    <glyph glyph-name="zacute.smcp" horiz-adv-x="498" 
d="M227 630l112 133h71l-133 -133h-50zM39 0v57l348 456h-348v57h423v-57l-345 -456h345v-57h-423z" />
    <glyph glyph-name="zdotaccent.smcp" horiz-adv-x="498" 
d="M212 649v57q0 21 20 21h37q19 0 19 -21v-57q0 -19 -19 -19h-37q-12 0 -16 7t-4 12zM39 0v57l348 456h-348v57h423v-57l-345 -456h345v-57h-423z" />
    <glyph glyph-name="racute.smcp" horiz-adv-x="537" 
d="M243 631l112 133h72l-133 -133h-51zM67 0v571h264q83 0 127 -60q26 -37 26 -92.5t-13.5 -92.5t-41 -60t-65.5 -26l138 -240h-66l-131 234q-180 12 -181 14v-248h-57zM124 291h210q32 0 53 16q40 30 40 101q0 84 -67 102q-15 4 -29 4h-207v-223z" />
    <glyph glyph-name="abreve.smcp" horiz-adv-x="586" 
d="M189 744h36q0 -22 11 -40q23 -38 66 -38q48 0 71 37q10 18 10 41h36q0 -55 -37 -86q-35 -28 -79 -28q-43 0 -78 30q-36 31 -36 84zM39 0l236 570h57l218 -570h-62l-64 162h-254l-69 -162h-62zM193 219h211l-101 271z" />
    <glyph glyph-name="lacute.smcp" horiz-adv-x="504" 
d="M99 630l112 133h71l-133 -133h-50zM90 86v484h57v-472q-1 -24 11 -32.5t37 -8.5h273v-57h-292q-41 0 -63.5 22.5t-22.5 63.5z" />
    <glyph glyph-name="cacute.smcp" horiz-adv-x="524" 
d="M256 643l112 133h71l-133 -133h-50zM61 295q0 47 5 85.5t18.5 76.5t35.5 64q49 57 145 57q36 0 111.5 -7.5t111.5 -15.5v-44q-12 2 -94 6t-129 4q-79 0 -113 -56.5t-34 -169.5q0 -179 74 -224q30 -18 73 -18l223 10v-42q-130 -25 -223 -25q-52 0 -90 18.5t-59.5 46.5
t-34 70t-16.5 79.5t-4 84.5z" />
    <glyph glyph-name="ecaron.smcp" horiz-adv-x="520" 
d="M146 761h53l91 -86l88 86h53l-113 -130h-55zM90 83v398q0 44 27.5 67t76.5 23l280 -11v-45h-278q-31 0 -40 -10.5t-9 -33.5v-157l296 -7v-45l-296 -6v-158q0 -43 44 -43h283v-44l-300 -13q-38 0 -61 23t-23 62z" />
    <glyph glyph-name="dcaron.smcp" horiz-adv-x="603" 
d="M197 762h53l91 -86l88 86h53l-114 -130h-54zM128 0v572h240q63 -1 108 -28t68 -72q43 -84 43 -189q0 -165 -68 -230q-22 -21 -39.5 -31t-42.5 -16q-30 -6 -69 -6h-240zM185 57h183q162 0 162 226q0 118 -45.5 175t-116.5 57h-183v-458z" />
    <glyph glyph-name="nacute.smcp" horiz-adv-x="608" 
d="M304 631l111 133h72l-133 -133h-50zM90 0v571h54l346 -466v466h56v-571h-53l-346 469v-469h-57z" />
    <glyph glyph-name="ncaron.smcp" horiz-adv-x="608" 
d="M177 761h53l92 -86l88 86h53l-114 -130h-54zM90 0v571h54l346 -466v466h56v-571h-53l-346 469v-469h-57z" />
    <glyph glyph-name="ohungarumlaut.smcp" horiz-adv-x="607" 
d="M213 635l111 133h72l-133 -133h-50zM349 635l112 133h71l-133 -133h-50zM68 172q-7 46 -7 122.5t14.5 134.5t46.5 90t74.5 44t94.5 12t79.5 -2.5t54.5 -10t45.5 -20.5t34.5 -34t26 -52q19 -65 19 -153.5t-9.5 -140t-27.5 -84t-49 -51.5q-55 -32 -159 -32q-136 0 -182 49
q-43 45 -55 128zM135.5 428q-7.5 -25 -12.5 -61t-5 -90t7.5 -95.5t20 -67.5t37 -39.5t52 -18t69 -4.5t67.5 4t52 18t40 39q30 54 30 167q0 89 -9 123.5t-16 51.5t-20 28.5t-25 18.5t-33 10q-32 6 -72.5 6t-59 -1.5t-40 -6.5t-35 -14.5t-27 -26t-21 -41.5z" />
    <glyph glyph-name="rcaron.smcp" horiz-adv-x="537" 
d="M123 761h53l91 -86l88 86h53l-113 -130h-55zM67 0v571h264q83 0 127 -60q26 -37 26 -92.5t-13.5 -92.5t-41 -60t-65.5 -26l138 -240h-66l-131 234q-180 12 -181 14v-248h-57zM124 291h210q32 0 53 16q40 30 40 101q0 84 -67 102q-15 4 -29 4h-207v-223z" />
    <glyph glyph-name="uring.smcp" horiz-adv-x="618" 
d="M221 712q0 28 13.5 52t37 37.5t51 13.5t51 -13.5t37 -37.5t13.5 -59.5t-29.5 -65t-64.5 -29.5t-58.5 13.5t-37 37t-13.5 51.5zM276.5 758.5q-19.5 -19.5 -19.5 -42t9 -37.5q19 -32 51.5 -32t51.5 19t19 46t-19 46.5t-46 19.5t-46.5 -19.5zM89 570h58v-310q0 -126 42 -168
q23 -23 54.5 -31.5t78.5 -8.5t77 9t53 31q45 44 45 168v310h58v-310q0 -188 -98 -239q-31 -16 -61.5 -21t-66.5 -5t-59.5 2t-49.5 8.5t-44.5 18.5t-36 31.5t-27.5 47.5q-23 61 -23 157v310z" />
    <glyph glyph-name="uhungarumlaut.smcp" horiz-adv-x="618" 
d="M226 630l112 133h71l-133 -133h-50zM362 630l112 133h72l-133 -133h-51zM89 570h58v-310q0 -126 42 -168q23 -23 54.5 -31.5t78.5 -8.5t77 9t53 31q45 44 45 168v310h58v-310q0 -188 -98 -239q-31 -16 -61.5 -21t-66.5 -5t-59.5 2t-49.5 8.5t-44.5 18.5t-36 31.5
t-27.5 47.5q-23 61 -23 157v310z" />
    <glyph glyph-name="tcommaaccent.smcp" horiz-adv-x="524" 
d="M279 -47q0 -78 -21 -107t-80 -29h-44v27l46 11q27 8 38 30t11 68h50zM39 513v57h449v-57h-196v-513h-57v513h-196z" />
    <glyph glyph-name="lslash.smcp" horiz-adv-x="498" 
d="M93 570h57v-230l118 48l-1 -49l-117 -48v-193q0 -24 12 -32.5t37 -8.5h273v-57h-293q-40 0 -63 22.5t-23 63.5v182l-63 -27v50l63 26v253z" />
    <glyph glyph-name="questiondown.smcp" horiz-adv-x="499" 
d="M63 152v48q0 77 58 111q44 26 102 26q20 0 41 -3v70h59v-120h-54t-41 -0.5t-36 -4.5t-35 -13q-37 -20 -37 -66v-48q0 -51 31 -74t98 -23h212v-44q-114 -14 -159 -14h-57q-92 0 -137 41.5t-45 113.5zM274 570h39q9 0 14.5 -5.5t5.5 -13.5v-59q0 -21 -20 -21h-39
q-20 0 -20 21v59q0 19 20 19z" />
    <glyph glyph-name="oe.smcp" horiz-adv-x="898" 
d="M50 186q-5 41 -5 113t14 130t46 90t75 44t91 12t70.5 -1.5t44.5 -6t39 -11.5q36 -17 57 -49q15 64 99 64l276 -11v-45h-274q-39 0 -46 -20q-3 -9 -3 -24v-157l292 -7v-45l-292 -6v-158q0 -43 44 -43h279v-44l-296 -13q-34 0 -55 18.5t-25 49.5q-26 -39 -72.5 -55
t-101.5 -16t-82.5 2.5t-54.5 10t-45.5 21t-34.5 35t-25.5 51.5t-14.5 71zM104.5 351.5q-2.5 -29.5 -2.5 -79t7 -91t20 -67.5t37 -39.5t51.5 -18t69.5 -4.5t67.5 4t51 18t39.5 39q32 56 32 174q0 85 -9 118.5t-16.5 50.5t-20.5 28.5t-25.5 18t-32.5 10.5q-32 5 -69 5
t-52 -0.5t-33 -3t-30 -7.5t-25.5 -13.5t-22 -20.5t-16.5 -29.5t-13 -40t-7.5 -52z" />
    <glyph glyph-name="ydieresis.smcp" horiz-adv-x="564" 
d="M117 669.5q0 16.5 11.5 28t28 11.5t27.5 -11.5t11 -28t-11 -28t-27.5 -11.5t-28 11.5t-11.5 28zM372 669.5q0 16.5 11.5 28t28 11.5t27.5 -11.5t11 -28t-11 -28t-27.5 -11.5t-28 11.5t-11.5 28zM313 -1h-57v191l-217 380h63l183 -320l180 320h63l-215 -380v-191z" />
    <glyph glyph-name="sterling.smcp" horiz-adv-x="527" 
d="M56 0v36l56 16v206h-56v32l57 12v89q0 180 196 180l164 -12v-43h-163q-79 0 -110 -31.5t-31 -95.5v-84l242 -13v-36h-242v-200h303v-56h-416z" />
    <glyph glyph-name="yen.smcp" horiz-adv-x="509" 
d="M448 258v-44h-165v-45h165v-44h-165v-125h-57v125h-156v44h156v45h-156v44h145l-193 313h65l168 -269l165 269h67l-194 -313h155z" />
    <glyph glyph-name="perthousand.smcp" horiz-adv-x="1168" 
d="M32 383v63q0 66 28 95.5t101 29.5h46q71 0 99 -29.5t28 -95.5v-63q0 -66 -28 -95.5t-101 -29.5h-46q-92 0 -115 55q-12 26 -12 70zM80 383q0 -45 17.5 -61t61.5 -16h46q61 0 74 30q7 16 7 47v63q0 44 -17 60.5t-62 16.5h-46q-61 0 -74 -30q-7 -16 -7 -47v-63zM200 0
l343 570h54l-343 -570h-54zM467 125v62q0 66 27.5 95.5t101.5 29.5h45q71 0 99 -29.5t28 -95.5v-62q0 -67 -28 -96t-101 -29h-45q-72 0 -99.5 29.5t-27.5 95.5zM515 125q0 -45 17 -61t62 -16h45q48 0 64.5 15.5t16.5 61.5v62q0 57 -32 70q-16 7 -47 7h-45q-49 0 -65 -16
t-16 -61v-62zM823 125v62q0 66 28 95.5t101 29.5h45q72 0 99.5 -29.5t27.5 -95.5v-62q0 -67 -28 -96t-101 -29h-45q-71 0 -99 29.5t-28 95.5zM871 125q0 -45 17.5 -61t61.5 -16h45q48 0 64.5 15.5t16.5 61.5v62q0 44 -17 60.5t-62 16.5h-45q-49 0 -65 -16t-16 -61v-62z" />
    <glyph glyph-name="circumflex.smcp" horiz-adv-x="397" 
d="M56 531l122 130h54l109 -130h-53l-85 86l-93 -86h-54z" />
    <glyph glyph-name="tilde.smcp" horiz-adv-x="449" 
d="M317.5 542.5q-9.5 -4.5 -17.5 -6t-12 -1.5q-31 0 -67 23.5t-53 23.5t-32 -5t-35 -17.5t-30 -17.5l-15 30q25 21 39 31q40 31 70 30.5t68 -24t47.5 -23.5t16 1t14 4t13 5.5t14.5 7.5t13 7.5t14 8.5t13 8l16 -30q-3 -3 -14 -12.5t-15.5 -13t-14.5 -11.5t-16.5 -11t-16 -7.5
z" />
    <glyph glyph-name="ring.smcp" horiz-adv-x="314" 
d="M56 632q0 43 29.5 73t64.5 30t58 -14t36.5 -37.5t13.5 -59t-29.5 -65.5t-71.5 -30t-71.5 30t-29.5 73zM92 632q0 -27 19 -46t46.5 -19t46 19t18.5 46t-19 46.5t-46 19.5t-46 -19.5t-19 -46.5z" />
    <glyph glyph-name="hbar.smcp" horiz-adv-x="601" 
d="M41 406v37h49v127h57v-127h334v127h57v-127h49v-37h-49v-407h-57v248h-334v-248h-57v407h-49zM147 304h334v102h-334v-102z" />
    <glyph glyph-name="hcircumflex.smcp" horiz-adv-x="601" 
d="M168 630l122 130h53l110 -130h-53l-85 86l-94 -86h-53zM90 -1v571h57v-266h334v266h57v-571h-57v247h-334v-247h-57z" />
    <glyph glyph-name="gbreve.smcp" horiz-adv-x="576" 
d="M194 753h36q0 -33 23.5 -55.5t53.5 -22.5q35 0 58 21.5t23 56.5h36q0 -53 -35.5 -83.5t-80.5 -30.5q-43 0 -78 30q-36 31 -36 84zM62 258.5q-1 13.5 -1 57t9.5 94.5t32.5 91q46 78 171 78q51 0 126.5 -9.5t104.5 -15.5v-46q-141 14 -215 14t-107 -20q-65 -40 -65 -214
q0 -91 34 -161q18 -35 49.5 -56.5t79.5 -21.5t103.5 19.5t77.5 35.5v150h-185v37q5 1 21.5 4t22.5 4t20.5 3.5t24.5 3.5t25 3q25 2 58.5 2t69.5 -3v-308h-41l-14 47q-39 -25 -91.5 -39.5t-98.5 -14.5h-18.5t-49.5 10t-52 28.5t-37.5 40t-26 49t-16 50.5t-9 48.5t-3.5 39z
" />
    <glyph glyph-name="jcircumflex.smcp" horiz-adv-x="332" 
d="M87 630l122 130h54l109 -130h-53l-85 86l-93 -86h-54zM43 61q49 -10 67 -10t37 2.5t33 14.5q32 27 33 98v404h57v-404q0 -112 -56 -148q-40 -22 -85.5 -22t-89.5 25z" />
    <glyph glyph-name="cdotaccent.smcp" horiz-adv-x="524" 
d="M267 662v57q0 21 20 21h37q19 0 19 -21v-57q0 -19 -19 -19h-37q-9 0 -14.5 5.5t-5.5 13.5zM61 295q0 47 5 85.5t18.5 76.5t35.5 64q49 57 145 57q36 0 111.5 -7.5t111.5 -15.5v-44q-12 2 -94 6t-129 4q-79 0 -113 -56.5t-34 -169.5q0 -179 74 -224q30 -18 73 -18l223 10
v-42q-130 -25 -223 -25q-52 0 -90 18.5t-59.5 46.5t-34 70t-16.5 79.5t-4 84.5z" />
    <glyph glyph-name="ccircumflex.smcp" horiz-adv-x="524" 
d="M165 643l122 130h54l110 -130h-53l-85 86l-94 -86h-54zM61 295q0 47 5 85.5t18.5 76.5t35.5 64q49 57 145 57q36 0 111.5 -7.5t111.5 -15.5v-44q-12 2 -94 6t-129 4q-79 0 -113 -56.5t-34 -169.5q0 -179 74 -224q30 -18 73 -18l223 10v-42q-130 -25 -223 -25
q-52 0 -90 18.5t-59.5 46.5t-34 70t-16.5 79.5t-4 84.5z" />
    <glyph glyph-name="gdotaccent.smcp" horiz-adv-x="576" 
d="M275 658v57q0 21 20 21h37q19 0 19 -21v-57q0 -19 -19 -19h-37q-9 0 -14.5 5.5t-5.5 13.5zM62 258.5q-1 13.5 -1 57t9.5 94.5t32.5 91q46 78 171 78q51 0 126.5 -9.5t104.5 -15.5v-46q-141 14 -215 14t-107 -20q-65 -40 -65 -214q0 -91 34 -161q18 -35 49.5 -56.5
t79.5 -21.5t103.5 19.5t77.5 35.5v150h-185v37q5 1 21.5 4t22.5 4t20.5 3.5t24.5 3.5t25 3q25 2 58.5 2t69.5 -3v-308h-41l-14 47q-39 -25 -91.5 -39.5t-98.5 -14.5h-18.5t-49.5 10t-52 28.5t-37.5 40t-26 49t-16 50.5t-9 48.5t-3.5 39z" />
    <glyph glyph-name="gcircumflex.smcp" horiz-adv-x="576" 
d="M172 638l122 130h54l110 -130h-53l-85 86l-94 -86h-54zM62 258.5q-1 13.5 -1 57t9.5 94.5t32.5 91q46 78 171 78q51 0 126.5 -9.5t104.5 -15.5v-46q-141 14 -215 14t-107 -20q-65 -40 -65 -214q0 -91 34 -161q18 -35 49.5 -56.5t79.5 -21.5t103.5 19.5t77.5 35.5v150
h-185v37q5 1 21.5 4t22.5 4t20.5 3.5t24.5 3.5t25 3q25 2 58.5 2t69.5 -3v-308h-41l-14 47q-39 -25 -91.5 -39.5t-98.5 -14.5h-18.5t-49.5 10t-52 28.5t-37.5 40t-26 49t-16 50.5t-9 48.5t-3.5 39z" />
    <glyph glyph-name="ubreve.smcp" horiz-adv-x="618" 
d="M208 744h35q0 -33 23.5 -55.5t54.5 -22.5q48 0 70 37q11 18 11 41h36q0 -55 -38 -86q-35 -28 -78 -28t-78 30q-36 31 -36 84zM89 570h58v-310q0 -126 42 -168q23 -23 54.5 -31.5t78.5 -8.5t77 9t53 31q45 44 45 168v310h58v-310q0 -188 -98 -239q-31 -16 -61.5 -21
t-66.5 -5t-59.5 2t-49.5 8.5t-44.5 18.5t-36 31.5t-27.5 47.5q-23 61 -23 157v310z" />
    <glyph glyph-name="scircumflex.smcp" horiz-adv-x="543" 
d="M115 637l123 130h53l110 -130h-53l-85 86l-94 -86h-54zM61 374v62q0 137 138 137q59 0 143.5 -7t116.5 -11v-43q-162 5 -260 5q-81 0 -81 -81v-62q0 -44 18 -54q7 -5 10.5 -7t16.5 -3q14 -2 36 -2h157q64 0 97 -31.5t33 -88.5v-70q0 -78 -45 -105q-37 -23 -86.5 -23
t-148 6t-123.5 14v41q177 -4 273 -4q36 0 54.5 25.5t18.5 45.5v70q0 33 -17 48.5t-56 15.5h-157q-49 0 -78 10q-60 22 -60 112z" />
    <glyph glyph-name="Idotaccent.smcp" horiz-adv-x="198" 
d="M78 0v570h57v-570h-57zM70 669v57q0 21 20 21h37q19 0 19 -21v-57q0 -19 -19 -19h-37q-9 0 -14.5 5.5t-5.5 13.5z" />
    <glyph glyph-name="periodcentered.smcp" horiz-adv-x="269" 
d="M119 346h40q20 0 20 -21v-41q0 -20 -20 -20h-40q-8 0 -13.5 5.5t-5.5 14.5v41q0 21 19 21z" />
    <glyph glyph-name="bullet.smcp" horiz-adv-x="315" 
d="M95 291v63q0 35 33 35h57q35 0 35 -35v-63q0 -32 -35 -32h-57q-20 0 -29 15q-4 8 -4 17z" />
    <glyph glyph-name="quoteleft.smcp" horiz-adv-x="242" 
d="M105.5 568q13.5 6 24 8t16 2t18.5 -2v-28h-2q-30 0 -30 -31v-33h12q24 0 24 -25v-65q0 -27 -24 -27h-45q-25 0 -25 27v107q0 26 9 43.5t22.5 23.5z" />
    <glyph glyph-name="quoteright.smcp" horiz-adv-x="242" 
d="M99 460q-25 0 -25 25v65q0 27 25 27h45q24 0 24 -27v-108q0 -26 -9 -43q-17 -33 -63 -33q-4 0 -17 2v27h2q29 0 29 31v34h-11z" />
    <glyph glyph-name="uni1E03.smcp" horiz-adv-x="547" 
d="M245 650v57q0 21 20 21h36q20 0 20 -21v-57q0 -19 -20 -19h-36q-12 0 -16 7t-4 12zM90 0v571h253q89 0 124 -51q30 -44 30 -99.5t-20.5 -84.5t-54.5 -45q27 -9 52.5 -42.5t25.5 -88.5q0 -160 -157 -160h-253zM147 58h196q72 0 91 47q9 22 9 62.5t-26 69.5t-74 29
q-86 -1 -135.5 -1t-60.5 1v-208zM147 323h196q49 0 73 23t24 74q0 94 -97 94h-196v-191z" />
    <glyph glyph-name="uni1E0B.smcp" horiz-adv-x="606" 
d="M249 651v57q0 21 20 21h37q19 0 19 -21v-57q0 -19 -19 -19h-37q-12 0 -16 7t-4 12zM90 0v572h240q50 -1 89.5 -19.5t63.5 -47.5t39 -68q27 -68 27 -140t-9.5 -118.5t-23 -75.5t-35.5 -50t-39.5 -31t-42.5 -15q-32 -7 -69 -7h-240zM147 57h183q94 0 130 67q32 61 32 169
t-45.5 165t-116.5 57h-183v-458z" />
    <glyph glyph-name="uni1E1F.smcp" horiz-adv-x="520" 
d="M251 651v57q0 20 19 20h37q19 0 19 -20v-57q0 -19 -19 -19h-37q-8 0 -13.5 5t-5.5 14zM90 0v481q0 44 27.5 67t76.5 23l280 -11v-45h-278q-30 0 -39 -11t-10 -33v-158l296 -8v-45l-296 -6v-254h-57z" />
    <glyph glyph-name="uni1E41.smcp" horiz-adv-x="735" 
d="M343 650v57q0 21 20 21h37q19 0 19 -21v-57q0 -19 -19 -19h-37q-9 0 -14.5 5.5t-5.5 13.5zM61 0l61 571h67l183 -474l184 474h64l58 -571h-55l-47 464l-179 -464h-47l-181 468l-54 -468h-54z" />
    <glyph glyph-name="wgrave.smcp" horiz-adv-x="842" 
d="M268 764h72l112 -133h-51zM39 570h63l181 -485l173 485h62l-65 -186l118 -299l176 485h59l-207 -570h-57l-119 306l-109 -306h-59z" />
    <glyph glyph-name="uni1E57.smcp" horiz-adv-x="530" 
d="M235 648v57q0 21 20 21h37q19 0 19 -21v-57q0 -19 -19 -19h-37q-12 0 -16 7t-4 12zM67 0v569h264q57 0 102 -35q50 -39 50 -124q0 -104 -41 -143q-25 -24 -49 -29q-30 -6 -64 -6l-204 11v-243h-58zM125 288h206q42 0 61.5 14.5t26.5 39t7 45v22.5q0 50 -27 76.5t-68 26.5
h-206v-224z" />
    <glyph glyph-name="wacute.smcp" horiz-adv-x="842" 
d="M401 631l112 133h72l-133 -133h-51zM39 570h63l181 -485l173 485h62l-65 -186l118 -299l176 485h59l-207 -570h-57l-119 306l-109 -306h-59z" />
    <glyph glyph-name="ygrave.smcp" horiz-adv-x="564" 
d="M129 763h72l111 -133h-50zM313 -1h-57v191l-217 380h63l183 -320l180 320h63l-215 -380v-191z" />
    <glyph glyph-name="wdieresis.smcp" horiz-adv-x="842" 
d="M259 670.5q0 16.5 11.5 27.5t28 11t28 -11t11.5 -27.5t-11.5 -28t-27.5 -11.5t-28 11.5t-12 28zM525.5 642.5q-11.5 11.5 -11.5 25t5 22.5q12 19 31.5 19t31 -11t11.5 -27.5t-11.5 -28t-28 -11.5t-28 11.5zM39 570h63l181 -485l173 485h62l-65 -186l118 -299l176 485h59
l-207 -570h-57l-119 306l-109 -306h-59z" />
    <glyph glyph-name="uni1E61.smcp" horiz-adv-x="543" 
d="M229 652v57q0 21 20 21h37q19 0 19 -21v-57q0 -19 -19 -19h-37q-12 0 -16 7t-4 12zM61 374v62q0 137 138 137q59 0 143.5 -7t116.5 -11v-43q-162 5 -260 5q-81 0 -81 -81v-62q0 -44 18 -54q7 -5 10.5 -7t16.5 -3q14 -2 36 -2h157q64 0 97 -31.5t33 -88.5v-70
q0 -78 -45 -105q-37 -23 -86.5 -23t-148 6t-123.5 14v41q177 -4 273 -4q36 0 54.5 25.5t18.5 45.5v70q0 33 -17 48.5t-56 15.5h-157q-49 0 -78 10q-60 22 -60 112z" />
    <glyph glyph-name="wcircumflex.smcp" horiz-adv-x="842" 
d="M284 631l122 130h54l109 -130h-53l-85 86l-93 -86h-54zM39 570h63l181 -485l173 485h62l-65 -186l118 -299l176 485h59l-207 -570h-57l-119 306l-109 -306h-59z" />
    <glyph glyph-name="uni1E6B.smcp" horiz-adv-x="524" 
d="M225 649v57q0 21 20 21h37q19 0 19 -21v-57q0 -19 -19 -19h-37q-12 0 -16 7t-4 12zM39 513v57h449v-57h-196v-513h-57v513h-196z" />
    <glyph glyph-name="ycircumflex.smcp" horiz-adv-x="564" 
d="M141 630l122 130h54l109 -130h-53l-85 86l-93 -86h-54zM313 -1h-57v191l-217 380h63l183 -320l180 320h63l-215 -380v-191z" />
    <glyph glyph-name="c_k" horiz-adv-x="1005" 
d="M45 266q0 68 8.5 117t23 78.5t37.5 47.5q39 28 112.5 28t211.5 -27v-40q-129 10 -185.5 10t-72.5 -3.5t-32 -16t-25 -35.5q-21 -53 -21 -163q0 -180 106 -206q23 -5 51 -5q109 0 315 190v541h57v-491l268 241l81 -1l-253 -230l255 -301h-70l-227 264l-54 -50v-214h-57
v164q-99 -87 -175.5 -128.5t-138.5 -41.5q-115 0 -169 75q-46 67 -46 197z" />
    <glyph glyph-name="N.salt" horiz-adv-x="683" 
d="M90 0v652q0 36 20 59q25 27 53 27q68 0 92 -58l254 -605q6 -17 19.5 -21t24.5 4.5t11 24.5v649h57v-653q0 -32 -20 -55q-28 -31 -64 -31q-19 0 -42.5 11.5t-36.5 45.5l-256 609q-6 15 -19.5 19t-24.5 -5t-11 -26v-647h-57z" />
    <glyph glyph-name="M.salt" horiz-adv-x="803" 
d="M101 652q0 36 24 61.5t66 25.5q14 0 38 -13.5t34 -45.5l123 -410q6 -20 19.5 -19t18.5 19l111 411q9 32 33 45.5t38 13.5q42 0 66 -25.5t25 -61.5l49 -653h-57l-50 651q-1 12 -8 20t-15 9t-16.5 -4t-11.5 -16l-110 -410q-7 -26 -28 -40q-21 -15 -44 -15t-44 14t-29 41
l-124 409q-6 21 -22 21q-3 0 -6 -1q-20 -4 -22 -28l-42 -651h-56z" />
    <glyph glyph-name="uni1E40.salt" horiz-adv-x="803" 
d="M374 819v57q0 20 20 20h37q19 0 19 -20v-57q0 -19 -19 -19h-37q-9 0 -14.5 5t-5.5 14zM101 652q0 36 24 61.5t66 25.5q14 0 38 -13.5t34 -45.5l123 -410q6 -20 19.5 -19t18.5 19l111 411q9 32 33 45.5t38 13.5q42 0 66 -25.5t25 -61.5l49 -653h-57l-50 651q-1 16 -12 24
t-23 4t-16 -19l-110 -410q-11 -39 -48 -51q-36 -12 -68 9q-21 15 -29 42l-124 409q-6 21 -22 21q-3 0 -6 -1q-20 -4 -22 -28l-42 -651h-56z" />
    <glyph glyph-name="Ntilde.salt" horiz-adv-x="683" 
d="M197 838q25 21 39 31q40 31 75 31q29 -1 63 -24.5t45.5 -23.5t18 1t14 4t13 5.5t14.5 7.5t13 7.5t14 8.5t13 8l16 -30q-3 -3 -14 -12.5t-15.5 -13t-14.5 -11.5t-16.5 -11t-16.5 -8q-46 -22 -98 18q-30 23 -49.5 22.5t-34 -5.5t-34.5 -17.5t-30 -17.5zM90 0v652
q0 36 20 59q25 27 53 27q68 0 92 -58l254 -605q6 -17 19.5 -21t24.5 4.5t11 24.5v649h57v-653q0 -32 -20 -55q-28 -31 -64 -31q-19 0 -42.5 11.5t-36.5 45.5l-256 609q-6 15 -19.5 19t-24.5 -5t-11 -26v-647h-57z" />
    <glyph glyph-name="Nacute.salt" horiz-adv-x="683" 
d="M349 797l112 133h71l-133 -133h-50zM90 0v652q0 36 20 59q25 27 53 27q68 0 92 -58l254 -605q6 -17 19.5 -21t24.5 4.5t11 24.5v649h57v-653q0 -32 -20 -55q-28 -31 -64 -31q-19 0 -42.5 11.5t-36.5 45.5l-256 609q-6 15 -19.5 19t-24.5 -5t-11 -26v-647h-57z" />
    <glyph glyph-name="Ncaron.salt" horiz-adv-x="683" 
d="M229 927h53l91 -86l88 86h53l-113 -130h-55zM90 0v652q0 36 20 59q25 27 53 27q68 0 92 -58l254 -605q6 -17 19.5 -21t24.5 4.5t11 24.5v649h57v-653q0 -32 -20 -55q-28 -31 -64 -31q-19 0 -42.5 11.5t-36.5 45.5l-256 609q-6 15 -19.5 19t-24.5 -5t-11 -26v-647h-57z
" />
    <glyph glyph-name="Ncommaaccent.salt" horiz-adv-x="683" 
d="M334 -234q-8 -2 -12 -2t-13 1v21h1q22 0 22 23v30h-8q-19 0 -19 18v51q0 20 19 20h33q18 0 18 -20v-87q0 -48 -41 -55zM90 0v652q0 36 20 59q25 27 53 27q68 0 92 -58l254 -605q6 -17 19.5 -21t24.5 4.5t11 24.5v649h57v-653q0 -32 -20 -55q-28 -31 -64 -31
q-19 0 -42.5 11.5t-36.5 45.5l-256 609q-6 15 -19.5 19t-24.5 -5t-11 -26v-647h-57z" />
    <glyph glyph-name="zero.numerator" horiz-adv-x="482" 
d="M67 365v255q0 60 30 85t87 25h117q113 0 113 -110v-255q0 -66 -28.5 -88t-84.5 -22h-117q-49 0 -80 17q-37 21 -37 93zM115 369q0 -40 15.5 -53.5t57.5 -13.5h109q44 0 57.5 15t13.5 52v247q0 35 -15 51t-56 16h-109q-42 0 -57.5 -16t-15.5 -51v-247z" />
    <glyph glyph-name="one.numerator" horiz-adv-x="265" 
d="M193 732v-476h-47v424l-128 -38v35l128 55h47z" />
    <glyph glyph-name="two.numerator" horiz-adv-x="395" 
d="M35 691q-1 0 -1 18t1 17q102 12 183 12q130 0 130 -136q0 -118 -216 -293q-5 -4 -7 -6h222v-47h-309v43q8 6 35.5 27.5t46.5 37t48.5 41t49.5 47.5t40 48q41 52 41 99t-19.5 69.5t-70.5 22.5h-174z" />
    <glyph glyph-name="three.numerator" horiz-adv-x="416" 
d="M33 718q48 15 156 15h40q61 0 91 -32.5t30 -82.5v-35q0 -34 -19.5 -58t-41.5 -31q61 -30 61 -95v-28q0 -89 -65 -111q-25 -8 -63 -8h-53.5t-44.5 2q-49 2 -87 14l1 30l177 1q48 0 67.5 17t19.5 59v23q0 38 -24 56.5t-59 19.5l-142 5v34l142 6q39 2 62 20.5t23 50.5v26
q0 71 -82 71h-189v31z" />
    <glyph glyph-name="four.numerator" horiz-adv-x="414" 
d="M292 441v121l21 48h26v-169h59v-37l-59 -12v-136h-47v136h-258l-16 19l202 319h54l-182 -289h200z" />
    <glyph glyph-name="five.numerator" horiz-adv-x="430" 
d="M217 544l59 -2q109 0 109 -113v-64q0 -40 -14 -66q-27 -48 -95 -48q-147 0 -215 12v36h211q66 0 66 70v56q0 53 -27 64q-15 6 -37 6h-113q-25 0 -42 -15.5t-17 -41.5h-41l15 292h295v-47h-251l-9 -170q22 31 106 31z" />
    <glyph glyph-name="six.numerator" horiz-adv-x="450" 
d="M147 730q15 5 38.5 6t74.5 1t129 -11v-37h-203q-67 0 -76 -125q-1 -21 -2 -48q107 11 180 11t95 -24.5t22 -68.5v-73q0 -52 -28.5 -78.5t-76.5 -26.5h-107q-77 0 -107 69q-25 58 -25 171q0 207 86 234zM108 480q0 -123 42 -162q17 -15 41 -15h106q61 0 61 63v65
q0 30 -14.5 39.5t-46.5 9.5h-189z" />
    <glyph glyph-name="seven.numerator" horiz-adv-x="370" 
d="M17 685v47h321l15 -26l-182 -450h-53l175 429h-276z" />
    <glyph glyph-name="eight.numerator" horiz-adv-x="480" 
d="M74 578v40q0 65 30.5 91t85.5 26h110q54 0 81 -27t27 -90v-40q1 -23 -12 -47t-44 -30q24 -4 40 -30.5t16 -54.5v-58q0 -104 -105 -104h-120q-63 0 -86 28t-23 76v58q0 32 18.5 50t42.5 23q-46 13 -58 62q-3 13 -3 27zM299 302q62 0 62 60v50q0 30 -17 45t-41 15h-118
q-30 0 -47 -15t-17 -44v-51q0 -43 26 -54q14 -6 40 -6h112zM121 582q0 -22 9 -37q16 -25 51 -25h118q32 0 47 17.5t15 44.5v32q0 43 -16.5 58.5t-53.5 15.5h-97q-52 0 -66 -29q-7 -16 -7 -45v-32z" />
    <glyph glyph-name="nine.numerator" horiz-adv-x="450" 
d="M50 558v73q0 52 29 78.5t76 26.5h107q78 0 108 -70q24 -58 24 -170q0 -168 -51 -214q-27 -23 -67 -25.5t-95.5 -2.5t-114.5 12v37h203q48 0 64 58q14 48 14 115q-106 -12 -179 -12t-95.5 25t-22.5 69zM97 561q0 -30 14.5 -39.5t46.5 -9.5h189q0 177 -81 177h-108
q-61 0 -61 -63v-65z" />
    <glyph glyph-name="zero.denominator" horiz-adv-x="482" 
d="M67 110v255q0 60 30 85t87 25h117q113 0 113 -110v-255q0 -66 -28.5 -88t-84.5 -22h-117q-49 0 -80 17q-37 21 -37 93zM115 114q0 -40 15.5 -53.5t57.5 -13.5h109q44 0 57.5 15t13.5 52v247q0 35 -15 51t-56 16h-109q-42 0 -57.5 -16t-15.5 -51v-247z" />
    <glyph glyph-name="one.denominator" horiz-adv-x="265" 
d="M193 477v-476h-47v424l-128 -38v35l128 55h47z" />
    <glyph glyph-name="two.denominator" horiz-adv-x="395" 
d="M35 436q-1 0 -1 18t1 17q102 12 183 12q130 0 130 -136q0 -118 -216 -293q-5 -4 -7 -6h222v-47h-309v43q5 4 42 32.5t57 45.5t55.5 50t55.5 58q51 65 51 113t-19.5 70.5t-70.5 22.5h-174z" />
    </font>
</defs>
</svg>
