<svg xmlns="http://www.w3.org/2000/svg">
<defs>
<font id="CaviarDreams-BoldItalic" horiz-adv-x="548" >
  <font-face 
    font-family="Caviar Dreams"
    font-weight="700"
    font-style="italic"
    font-stretch="normal"
    units-per-em="2048"
    panose-1="2 11 8 2 2 2 4 9 5 4"
    ascent="1638"
    descent="-410"
    x-height="1029"
    cap-height="1600"
    bbox="-365 -584 2450 2009"
    underline-thickness="150"
    underline-position="-442"
    slope="-10"
    unicode-range="U+0020-FB05"
  />
<missing-glyph horiz-adv-x="1835" 
d="M942 291q0 22 -4 22h-21v-32h19v10h6zM1481 819q0 23 -6 23h-21v-31h19v8h8zM1104 1268q8 0 14 10q10 14 10 39q-2 22 -10 37q-8 10 -16 10q-10 0 -17 -10q-10 -13 -10 -37q2 -25 10 -37q9 -12 19 -12zM1456 930q12 0 19 10q8 12 8 39q0 22 -10 37q-7 10 -17 10t-16 -10
q-8 -15 -8 -37q0 -25 10 -39q6 -10 14 -10zM377 557q12 0 18 10q8 15 8 39q0 25 -10 37q-6 10 -16 10q-12 0 -19 -10q-8 -10 -8 -37q0 -24 10 -37q7 -12 17 -12zM754 229q10 15 10 39q0 25 -8 37q-8 10 -19 10q-10 0 -18 -10q-8 -12 -8 -37q0 -26 8 -39q6 -10 16 -10t19 10z
M401 811q0 20 -6 20h-20v-30h18v10h8zM958 291v-41h-22v10h-19v-35q0 -8 15 -8v-16h-64v16q13 0 13 4v92q0 4 -13 4v17h101v-43h-11zM1294 315h-8v19h49v-19q-10 0 -12 -6l-29 -51v-37q0 -4 13 -4v-16h-60v16q13 0 13 4v37l-29 51q-4 6 -12 6v19h57v-19h-8l12 -26zM580 1366
h-7v18h45v-18q-8 0 -12 -6l-24 -53v-37q0 -4 12 -4v-17h-64v17q15 0 15 4v37l-31 53q-2 6 -8 6v18h53v-18h-8l16 -29zM395 1196h-8v18h47v-18q-8 0 -10 -6l-29 -51v-37q0 -4 13 -4v-19h-62v19q12 0 12 4v37l-26 51q-4 6 -13 6v18h56v-18h-8l14 -29zM1497 819v-39h-24v8h-19
v-32q0 -8 14 -8v-19h-61v19q12 0 12 4v90q0 4 -12 4v18h100v-45h-10zM1475 485h-9v19h50v-19q-11 0 -13 -6l-28 -51v-37q0 -4 12 -4v-16h-60v16q13 0 13 4v37l-29 51q-4 6 -12 6v19h55v-19h-6l12 -26zM350 1319v-47q0 -4 19 -4v-19h-56v19q11 0 11 4v82q0 12 -11 12v18h29

<glyph glyph-name=".notdef" horiz-adv-x="1835" 
d="M942 291q0 22 -4 22h-21v-32h19v10h6zM1481 819q0 23 -6 23h-21v-31h19v8h8zM1104 1268q8 0 14 10q10 14 10 39q-2 22 -10 37q-8 10 -16 10q-10 0 -17 -10q-10 -13 -10 -37q2 -25 10 -37q9 -12 19 -12zM1456 930q12 0 19 10q8 12 8 39q0 22 -10 37q-7 10 -17 10t-16 -10
q-8 -15 -8 -37q0 -25 10 -39q6 -10 14 -10zM377 557q12 0 18 10q8 15 8 39q0 25 -10 37q-6 10 -16 10q-12 0 -19 -10q-8 -10 -8 -37q0 -24 10 -37q7 -12 17 -12zM754 229q10 15 10 39q0 25 -8 37q-8 10 -19 10q-10 0 -18 -10q-8 -12 -8 -37q0 -26 8 -39q6 -10 16 -10t19 10z
M401 811q0 20 -6 20h-20v-30h18v10h8zM958 291v-41h-22v10h-19v-35q0 -8 15 -8v-16h-64v16q13 0 13 4v92q0 4 -13 4v17h101v-43h-11zM1294 315h-8v19h49v-19q-10 0 -12 -6l-29 -51v-37q0 -4 13 -4v-16h-60v16q13 0 13 4v37l-29 51q-4 6 -12 6v19h57v-19h-8l12 -26zM580 1366
h-7v18h45v-18q-8 0 -12 -6l-24 -53v-37q0 -4 12 -4v-17h-64v17q15 0 15 4v37l-31 53q-2 6 -8 6v18h53v-18h-8l16 -29zM395 1196h-8v18h47v-18q-8 0 -10 -6l-29 -51v-37q0 -4 13 -4v-19h-62v19q12 0 12 4v37l-26 51q-4 6 -13 6v18h56v-18h-8l14 -29zM1497 819v-39h-24v8h-19
v-32q0 -8 14 -8v-19h-61v19q12 0 12 4v90q0 4 -12 4v18h100v-45h-10zM1475 485h-9v19h50v-19q-11 0 -13 -6l-28 -51v-37q0 -4 12 -4v-16h-60v16q13 0 13 4v37l-29 51q-4 6 -12 6v19h55v-19h-6l12 -26zM350 1319v-47q0 -4 19 -4v-19h-56v19q11 0 11 4v82q0 12 -11 12v18h29
l59 -69v47q0 4 -16 4v18h55v-18q-10 0 -10 -4v-113h-18zM696 1384l43 -86l35 86h41v-18q-10 0 -10 -12v-82q0 -4 10 -4v-19h-53v19q6 0 6 2v30l-20 -51h-25l-27 54v-31q0 -4 9 -4v-19h-46v19q9 0 9 4v82q0 12 -9 12v18h37zM1167 1317q0 -29 -16 -49q-16 -21 -47 -21
q-35 0 -51 21q-17 20 -17 49t17 47q16 20 49 20t49 -20q16 -18 16 -47zM1251 1319v-47q0 -4 19 -4v-19h-58v19q9 0 9 4v82q0 12 -9 12v18h31l57 -69v47q0 4 -16 4v18h55v-18q-8 0 -8 -4v-113h-22zM1511 1384v-45h-26q0 23 -6 23h-4v-90q0 -4 12 -4v-19h-60v19q13 0 13 4v90
h-4q-7 0 -7 -23h-26v45h108zM917 1309v-33q0 -8 15 -8v-19h-64v19q13 0 13 4v90q0 4 -13 4v18h101v-45h-27q0 23 -4 23h-21v-33h19v8h22v-37h-22v9h-19zM1432 268v-47q0 -4 18 -4v-16h-57v16q10 0 10 4v82q0 12 -10 12v19h30l58 -70v47q0 4 -17 4v19h58v-19q-11 0 -11 -4
v-110h-20zM1417 684l41 -86l37 86h41v-18q-8 0 -8 -13v-82q0 -4 8 -4v-16h-55v16q10 0 10 2v29l-25 -47h-22l-27 51v-31q0 -4 8 -4v-16h-47v16q8 0 8 4v82q0 13 -8 13v18h39zM1522 977q0 -29 -15 -47q-16 -21 -51 -21q-33 0 -47 19q-16 20 -16 49q0 31 14 49q16 21 47 21
q37 0 53 -21q15 -18 15 -49zM1432 1157v-45q0 -4 18 -4v-18h-57v18q10 0 10 4v82q0 12 -10 12v19h30l58 -72v49q0 4 -17 4v19h58v-19q-11 0 -11 -4v-112h-20zM430 336v-43h-25q0 20 -6 20h-4v-90q0 -4 13 -4v-16h-62v16q12 0 12 4v90h-4q-6 0 -6 -20h-24v43h106zM338 1034
l41 -84l37 84h39v-16q-9 0 -9 -14v-82q0 -4 9 -4v-19h-54v19q11 0 11 4v28l-25 -51h-25l-24 53v-30q0 -4 6 -4v-19h-45v19q8 0 8 4v82q0 14 -8 14v16h39zM440 606q0 -31 -12 -49q-16 -18 -51 -18t-47 18q-17 18 -17 49t15 47q14 21 47 21q37 0 53 -21q12 -16 12 -47z
M350 428v-45q0 -4 19 -4v-19h-56v19q11 0 11 4v82q0 10 -11 10v19h29l59 -70v47q0 4 -16 4v19h55v-19q-10 0 -10 -4v-111h-18zM1061 334l43 -84l37 84h39v-17q-9 0 -9 -14v-82q0 -4 9 -4v-16h-54v16q9 0 9 4v29l-23 -49h-22l-27 51v-31q0 -4 8 -4v-16h-47v16q8 0 8 4v82
q0 14 -8 14v17h37zM686 315q16 21 51 21q31 0 49 -21q15 -16 15 -49q0 -28 -17 -49q-16 -16 -49 -16t-49 18q-14 19 -14 47q0 33 14 49zM537 268v-47q0 -4 18 -4v-16h-55v16q8 0 8 4v82q0 14 -8 14v17h28l60 -70v49q0 4 -19 4v17h56v-17q-11 0 -11 -4v-112h-18zM418 811v-41
h-25v8h-18v-33q0 -8 14 -8v-16h-61v16q12 0 12 4v90q0 5 -12 5v18h100v-43h-10z" />
    <glyph glyph-name=".null" horiz-adv-x="200" 
 />
    <glyph glyph-name="nonmarkingreturn" horiz-adv-x="708" 
 />
    <glyph glyph-name="space" unicode=" " horiz-adv-x="708" 
 />
    <glyph glyph-name="space" unicode="&#xa0;" horiz-adv-x="708" 
 />
    <glyph glyph-name="exclam" unicode="!" horiz-adv-x="541" 
d="M414.5 235q35.5 -42 24.5 -102q-11 -62 -61 -104t-110 -42q-59 0 -94.5 42t-24.5 104q11 60 61 102t109 42q60 0 95.5 -42zM655 1600l-202 -1145h-207l202 1145h207z" />
    <glyph glyph-name="quotedbl" unicode="&#x22;" horiz-adv-x="574" 
d="M187 920l119 677h207l-119 -677h-207zM504 920l119 677h207l-119 -677h-207z" />
    <glyph glyph-name="numbersign" unicode="#" horiz-adv-x="1705" 
d="M1056 1033h84l174 410h211l-174 -410h411l-90 -207h-410l-38 -88h411l-89 -207h-410l-174 -411h-211l174 411h-84l-174 -411h-212l175 411h-411l89 207h410l38 88h-411l90 207h410l174 410h211zM1051 826h-84l-38 -88h84z" />
    <glyph glyph-name="dollar" unicode="$" horiz-adv-x="958" 
d="M591 117l-20 -117h-184l20 117q-115 22 -192 103q-83 88 -82 255l224 68q-8 -146 36 -192q22 -23 49 -37l73 414q-108 43 -187 126q-105 109 -77 263q27 154 171 265q105 80 226 102l21 116h184l-21 -116q115 -22 192 -103q84 -88 82 -255l-224 -68q9 146 -35 192
q-22 23 -49 37l-73 -414q107 -43 186 -126q105 -109 78 -263t-171 -264q-105 -81 -227 -103zM554 946l60 341q-32 -13 -61 -35q-71 -55 -85 -135q-14 -78 36 -132q20 -20 50 -39zM686 655l-60 -341q32 13 61 36q71 54 85 134q14 78 -37 132q-19 20 -49 39z" />
    <glyph glyph-name="percent" unicode="%" horiz-adv-x="1263" 
d="M1403 1290l-1149 -1311l-149 118l1148 1310zM754.5 1164.5q66.5 -80.5 46.5 -194.5t-115 -194.5t-209 -80.5t-180 80.5t-46 194.5t114.5 194.5t208.5 80.5t180.5 -80.5zM538 1040q-29 0 -53 -20.5t-29 -49.5q-5 -30 11.5 -50.5t45.5 -20.5t54 20.5t30 50.5
q5 29 -12.5 49.5t-46.5 20.5zM1211.5 611.5q66.5 -80.5 45.5 -194.5q-20 -115 -114.5 -195.5t-209.5 -80.5q-114 0 -180.5 80.5t-46.5 195.5q21 114 115.5 194.5t208.5 80.5q115 0 181.5 -80.5zM994 487q-29 0 -53 -20.5t-30 -49.5q-5 -30 12 -50.5t46 -20.5t53.5 20.5
t29.5 50.5q6 29 -11.5 49.5t-46.5 20.5z" />
    <glyph glyph-name="ampersand" unicode="&#x26;" horiz-adv-x="1340" 
d="M1350 621q3 -36 -3 -70q-11 -67 -57 -127q-71 -95 -199 -131q-35 -73 -141 -163q-172 -147 -379 -147q-206 0 -326.5 146.5t-84.5 353.5q37 205 207 358q100 84 174 93q-127 156 -100 311q27 153 156 263t284 110t245 -109q52 -60 71 -191l-201 -74q-18 92 -41 120
q-41 48 -111 48q-69 0 -126.5 -48.5t-69.5 -118.5q-13 -71 29 -126t82.5 -72t174.5 -18l-35 -199l-122 -1q-184 -35 -287 -129.5t-125 -216.5q-21 -122 50 -208t193 -86q121 0 285 142q-24 23 -82 97q-22 24 -35 34q-13 9 -22 9h-1q-10 -1 -16 -11q-2 -4 -3 -8q-1 -7 1 -15
l-190 -115q-15 31 -20 70q-2 31 3 61q10 57 50 110q61 81 154 105q33 9 64 9q57 0 103 -30q40 -25 84.5 -93.5t92.5 -74.5q7 -1 13 -1q38 0 60 35q5 9 7 19q6 32 -34 70l134 177q83 -54 94 -158z" />
    <glyph glyph-name="quotesingle" unicode="'" horiz-adv-x="458" 
d="M287 920l119 677h207l-119 -677h-207z" />
    <glyph glyph-name="parenleft" unicode="(" horiz-adv-x="788" 
d="M957 1524q-159 -68 -270 -182q-188 -194 -250 -542q-61 -349 59 -542q70 -115 205 -186l-36 -205q-239 88 -341 254q-158 252 -83 679q76 427 322 679q161 166 431 254z" />
    <glyph glyph-name="parenright" unicode=")" horiz-adv-x="788" 
d="M406 1733q239 -88 341 -254q158 -252 83 -679q-76 -427 -322 -679q-161 -166 -431 -254l36 205q160 71 271 186q188 193 250 542q61 348 -59 542q-71 114 -206 182z" />
    <glyph glyph-name="asterisk" unicode="*" horiz-adv-x="932" 
d="M821 1428l163 110l89 -170l-210 -140l161 -139l-149 -170l-125 110l-29 -169h-207l30 170l-165 -111l-89 170l211 139l-162 140l149 170l126 -111l30 170h207z" />
    <glyph glyph-name="plus" unicode="+" horiz-adv-x="1112" 
d="M452 505h-327v207h327v327h208v-327h327v-207h-327v-328h-208v328z" />
    <glyph glyph-name="comma" unicode="," horiz-adv-x="537" 
d="M487 278l-316 -480h-197l213 480h300z" />
    <glyph glyph-name="hyphen" unicode="-" horiz-adv-x="919" 
d="M250 712h668l-36 -207h-668z" />
    <glyph glyph-name="hyphen" unicode="&#xad;" horiz-adv-x="919" 
d="M250 712h668l-36 -207h-668z" />
    <glyph glyph-name="period" unicode="." horiz-adv-x="490" 
d="M389.5 235q35.5 -42 24.5 -102q-11 -62 -61 -104t-110 -42q-59 0 -94.5 42t-24.5 104q11 60 61 102t109 42q60 0 95.5 -42z" />
    <glyph glyph-name="slash" unicode="/" horiz-adv-x="855" 
d="M956 1600h231l-1007 -1600h-230z" />
    <glyph glyph-name="zero" unicode="0" horiz-adv-x="1289" 
d="M1183 1032q26 147 -60.5 251t-234.5 104q-147 0 -269.5 -104t-148.5 -251l-87 -489q-26 -148 60.5 -252t233.5 -104q148 0 270.5 104t148.5 252zM1308 543q-41 -235 -237 -401.5t-432 -166.5q-235 0 -372 166.5t-96 401.5l87 489q41 235 237 401.5t431 166.5
q236 0 373 -166.5t96 -401.5z" />
    <glyph glyph-name="one" unicode="1" horiz-adv-x="1427" 
d="M1175 1600l-282 -1600h-207l235 1330h-153l257 270h150z" />
    <glyph glyph-name="two" unicode="2" horiz-adv-x="1308" 
d="M461 504.5q184 121.5 314.5 207.5t238.5 185t129 220t-49.5 206t-191.5 85q-119 0 -220 -85q-86 -73 -135 -252l-194 75q69 208 207 326q173 148 380 148q209 0 329.5 -147t83.5 -356q-36 -206 -205 -359q-107 -97 -242.5 -186.5t-300.5 -199.5q-145 -95 -172 -164h760
l-37 -208h-1003q124 383 308 504.5z" />
    <glyph glyph-name="three" unicode="3" horiz-adv-x="1308" 
d="M744 824l-125 3l37 205q136 2 182 18.5t106.5 70.5t72.5 124q12 69 -27.5 116.5t-108.5 47.5q-68 0 -124 -47q-32 -28 -84 -122l-179 76q66 135 139 194q130 110 285 110q158 0 248.5 -111t63.5 -264q-27 -156 -238 -301q88 -6 169 -101q116 -154 80 -360
q-37 -208 -209.5 -355.5t-381.5 -147.5q-207 0 -328 148q-96 118 -91 327l220 75q-14 -180 46 -253q71 -85 190 -85q121 0 221.5 85t122.5 206q21 122 -48 215t-239 126z" />
    <glyph glyph-name="four" unicode="4" horiz-adv-x="1350" 
d="M1136 1600h181l-170 -961h141l-36 -207h-141l-76 -432h-207l76 432h-655zM1028 1133l-383 -494h295z" />
    <glyph glyph-name="five" unicode="5" horiz-adv-x="1314" 
d="M656 1168q58 12 119 12q112 0 209 -36q217 -79 292 -292q48 -132 23 -272q-15 -87 -57 -174q-112 -232 -345 -347q-143 -69 -282 -69q-88 0 -173 28q-176 57 -279 242l175 162q82 -164 202 -202q55 -18 110 -18q88 0 180 44q149 73 221 222q28 57 38 113q15 87 -15 172
q-50 138 -191 190q-61 23 -140 23q-107 0 -283 -53l-106 109l268 497l14 81h586l-36 -207h-411z" />
    <glyph glyph-name="six" unicode="6" horiz-adv-x="1291" 
d="M387 543q-26 -148 60.5 -252t234.5 -104q147 0 269.5 104t148.5 252q27 148 -59.5 252t-233.5 104q-148 0 -270.5 -104t-149.5 -252zM586 987q106 96 312 96q207 0 320 -137q136 -167 94 -403q-41 -235 -236.5 -401.5t-431.5 -166.5q-235 0 -372 166q-132 161 -83 447
l1 3q50 283 241 498q192 216 506 511h272q-429 -376 -623 -613z" />
    <glyph glyph-name="seven" unicode="7" horiz-adv-x="1304" 
d="M1070 995.5q-298 -278.5 -468 -471.5t-238 -524h-211q84 409 276 624.5t447 454t285 314.5h-760l36 207h995q-64 -326 -362 -604.5z" />
    <glyph glyph-name="eight" unicode="8" horiz-adv-x="1294" 
d="M680 192q158 0 258.5 85t122.5 206q21 122 -48 213q-68 92 -222 125q-167 -33 -267 -125q-100 -91 -121 -213q-22 -121 48 -206t229 -85zM643 -20q-246 0 -367 147.5t-84 355.5q45 256 362 461q-109 145 -82 301q27 153 156 264t287 111h33q158 0 248.5 -111t63.5 -264
q-27 -156 -199 -298q256 -208 211 -464q-37 -208 -210 -355.5t-419 -147.5zM890 1408q-7 1 -12 1q-68 0 -124.5 -47.5t-68.5 -116.5q-12 -70 29 -124t79 -70q20 -8 37 -11q17 3 41 11q43 16 103.5 70t72.5 124q12 69 -27.5 116.5t-108.5 47.5q-4 0 -11 -1h-10z" />
    <glyph glyph-name="nine" unicode="9" horiz-adv-x="1291" 
d="M1199 1057q26 148 -60.5 252t-234.5 104q-147 0 -269.5 -104t-148.5 -252t60 -252t233 -104q148 0 271 104t149 252zM1000 613q-106 -96 -312 -96q-207 0 -319 137q-137 167 -95 403q41 235 236.5 401.5t431.5 166.5q235 0 372 -166q132 -161 83 -447l-1 -3
q-50 -283 -241 -498q-192 -216 -506 -511h-272q430 376 623 613z" />
    <glyph glyph-name="colon" unicode=":" horiz-adv-x="541" 
d="M414.5 235q35.5 -42 24.5 -102q-11 -62 -61 -104t-110 -42q-59 0 -94.5 42t-24.5 104q11 60 61 102t109 42q60 0 95.5 -42zM515 804q35 -42 24 -102q-11 -62 -60.5 -104t-109.5 -42q-59 0 -95 42t-25 104q11 60 61.5 102t109.5 42q60 0 95 -42z" />
    <glyph glyph-name="semicolon" unicode=";" horiz-adv-x="635" 
d="M560 278l-316 -480h-197l213 480h300zM529.5 804q35.5 -42 24.5 -102q-11 -62 -61 -104t-109 -42q-60 0 -95.5 42t-24.5 104q11 60 61 102t110 42q59 0 94.5 -42z" />
    <glyph glyph-name="semicolon" unicode="&#x37e;" horiz-adv-x="635" 
d="M560 278l-316 -480h-197l213 480h300zM529.5 804q35.5 -42 24.5 -102q-11 -62 -61 -104t-109 -42q-60 0 -95.5 42t-24.5 104q11 60 61 102t110 42q59 0 94.5 -42z" />
    <glyph glyph-name="less" unicode="&#x3c;" horiz-adv-x="1504" 
d="M1403 107l-1303 475l1303 474v-221l-697 -253l697 -254v-221z" />
    <glyph glyph-name="equal" unicode="=" horiz-adv-x="1112" 
d="M125 860h862v-208h-862v208zM125 564h862v-207h-862v207z" />
    <glyph glyph-name="greater" unicode="&#x3e;" horiz-adv-x="1504" 
d="M100 328l697 254l-697 253v221l1303 -474l-1303 -475v221z" />
    <glyph glyph-name="question" unicode="?" horiz-adv-x="1028" 
d="M337 1186q13 74 61 146q93 140 248 191q68 22 130 22q82 0 154 -38q128 -67 154 -212q10 -63 -1 -125q-15 -83 -67 -162q-86 -130 -246 -239q-111 -85 -179 -190q-41 -62 -53 -123h-206q20 108 89 212q110 167 289 286q89 75 135 144q24 37 30 73q5 27 1 55
q-13 66 -69 96q-33 17 -69 17q-27 0 -58 -10q-70 -23 -111 -85q-13 -19 -23 -57l-221 -68zM542 133q-11 -62 -61.5 -104t-109.5 -42q-60 0 -95 42t-24 104q11 60 60.5 102t109.5 42q59 0 95 -42t25 -102z" />
    <glyph glyph-name="at" unicode="@" horiz-adv-x="1643" 
d="M1103 515l19 108q-2 45 -35 85q-47 58 -128 58t-148.5 -58t-81.5 -139q-15 -82 32 -139t128 -57q82 0 149 57q48 40 65 85zM859 212q-164 0 -263.5 97t-70.5 261q29 163 163.5 265t298.5 102q146 0 176 -74l9 52h199l-90 -498v-3q-10 -52 6 -52q14 0 47 36q71 81 101 248
q29 167 -75.5 293t-350.5 126q-245 0 -392.5 -126t-187.5 -352t80 -371.5t325 -145.5q141 0 253 63l116 -149q-213 -113 -404 -113q-287 0 -456 204.5t-118 492.5q50 287 291.5 491.5t528.5 204.5q289 0 456 -205t130 -416t-169 -342q-109 -107 -218 -107q-24 0 -48 6
q-134 29 -134 94q-67 -82 -203 -82z" />
    <glyph glyph-name="A" unicode="A" horiz-adv-x="1376" 
d="M961 773l-71 375l-202 -375h273zM1026 1600l300 -1600h-220l-106 566h-424l-305 -566h-221l864 1600h112z" />
    <glyph glyph-name="B" unicode="B" horiz-adv-x="1126" 
d="M756 1600q139 0 220.5 -98.5t57.5 -237.5q-25 -143 -175 -177q101 -15 210 -148t68 -368q-42 -235 -237 -406q-183 -161 -340 -163v-2h-410l282 1600h324zM520 927l-126 -719h203v3q65 4 177 103q124 108 151 257q26 147 -60.5 251.5t-233.5 104.5h-111zM603 1393
l-45 -253h135q47 4 85 35q42 33 52 89t-21 92.5t-89 36.5h-117z" />
    <glyph glyph-name="C" unicode="C" horiz-adv-x="1642" 
d="M1455 381l130 -139q-329 -259 -646 -259q-339 0 -536 239t-137 578q59 338 340.5 578t620.5 240q317 0 555 -259l-180 -141q-180 190 -412 190q-251 0 -461 -178t-254 -430q-45 -253 102 -431t398 -178q232 0 480 190z" />
    <glyph glyph-name="D" unicode="D" horiz-adv-x="1250" 
d="M602 1389l-208 -1179q247 0 433 159q209 178 254 431q44 252 -102 431q-130 158 -377 158zM584 1600q390 -2 569 -221q197 -241 137 -579q-60 -339 -341 -579q-257 -219 -647 -221h-152l282 1600h152z" />
    <glyph glyph-name="E" unicode="E" horiz-adv-x="1137" 
d="M1294 1600l-36 -207h-655l-87 -489h655l-36 -207h-655l-86 -489h655l-37 -208h-862l282 1600h862z" />
    <glyph glyph-name="F" unicode="F" horiz-adv-x="1045" 
d="M1202 1600l-36 -207h-563l-87 -489h563l-36 -207h-563l-123 -697h-207l282 1600h770z" />
    <glyph glyph-name="G" unicode="G" horiz-adv-x="1668" 
d="M1545 219q-288 -236 -606 -236q-339 0 -536 239t-137 578q59 338 340.5 578t620.5 240q317 0 555 -259l-180 -141q-180 190 -412 190q-251 0 -461 -178t-254 -430q-45 -253 102 -431t398 -178q216 0 378 114l86 483h207z" />
    <glyph glyph-name="H" unicode="H" horiz-adv-x="1208" 
d="M474 662l-117 -662h-207l282 1600h207l-129 -731h494l129 731h207l-282 -1600h-207l117 662h-494z" />
    <glyph glyph-name="I" unicode="I" 
d="M659 1600l-282 -1600h-207l282 1600h207z" />
    <glyph glyph-name="J" unicode="J" horiz-adv-x="937" 
d="M841 343q-29 -166 -136 -258q-114 -98 -252 -98q-137 0 -216.5 97.5t-50.5 259.5l175 64q1 -152 38 -187q27 -27 81 -27h4q57 1 101 37q35 31 51 121l220 1248h207z" />
    <glyph glyph-name="K" unicode="K" horiz-adv-x="1206" 
d="M490 755l-133 -755h-207l282 1600h207l-89 -504l467 504h262l-607 -658l445 -942h-251l-359 772z" />
    <glyph glyph-name="L" unicode="L" horiz-adv-x="1019" 
d="M150 0l282 1600h207l-245 -1392h572l-37 -208h-779z" />
    <glyph glyph-name="M" unicode="M" horiz-adv-x="1812" 
d="M670 1600l361 -897l675 897h189l-282 -1600h-207l204 1156l-652 -864l-348 864l-204 -1156h-207l282 1600h189z" />
    <glyph glyph-name="N" unicode="N" horiz-adv-x="1357" 
d="M432 1600h189l459 -1142l201 1142h208l-282 -1600h-181l-465 1156l-204 -1156h-207z" />
    <glyph glyph-name="O" unicode="O" horiz-adv-x="1889" 
d="M1767 1381q198 -240 138 -579t-342.5 -579t-621.5 -240t-536.5 240t-137.5 579t342 579t621 240t537 -240zM1193 1412q-253 0 -463 -178.5t-254 -431.5q-45 -253 102.5 -432t399.5 -179q253 0 463 179t255 432q44 253 -103 431.5t-400 178.5z" />
    <glyph glyph-name="P" unicode="P" horiz-adv-x="1145" 
d="M447 512l-90 -512h-207l282 1600h454q189 -26 298 -159q131 -160 91 -384q-39 -226 -226.5 -385.5t-412.5 -159.5h-189zM602 1392l-118 -672h189q138 0 254 98.5t140 238.5q25 139 -56.5 237t-219.5 98h-189z" />
    <glyph glyph-name="Q" unicode="Q" horiz-adv-x="1889" 
d="M1193 1412q-253 0 -463 -178.5t-254 -431.5q-45 -253 102.5 -432t399.5 -179q253 0 463 179t255 432q44 253 -103 431.5t-400 178.5zM1296 55q21 -14 42 -32q64 -37 87 -45q11 -3 21 -3q17 0 36 10q28 15 41 44q5 9 21 74h209q-25 -98 -39 -130q-52 -111 -163 -167
q-70 -37 -140 -37q-39 0 -76 11q-61 17 -156 86q-78 45 -110 55q-18 5 -35 5q-30 0 -61 -16q-50 -26 -73 -78q-3 -5 -19 -66h-209q25 95 38 124q28 61 71 108q-228 45 -376 225q-198 240 -138 579t342 579t621 240t537 -240t138 -579t-342 -579q-127 -108 -267 -168z" />
    <glyph glyph-name="R" unicode="R" horiz-adv-x="1171" 
d="M602 1392l-118 -672h189q138 0 254 98.5t140 238.5q25 139 -56.5 237t-219.5 98h-189zM636 512h-189l-90 -512h-207l282 1600h454q189 -26 298 -159q131 -160 91 -384q-39 -226 -227 -386q-129 -110 -190 -124l259 -547h-251z" />
    <glyph glyph-name="S" unicode="S" horiz-adv-x="1101" 
d="M702 821q-160 57 -247 162.5t-59 261.5q27 153 156 263t285 110q154 0 245 -109q51 -60 70 -191l-201 -74q-18 92 -41 120q-41 48 -110 48q-70 0 -127.5 -48.5t-69.5 -118.5t28 -119q45 -54 135 -99q177 -61 285 -192q121 -145 85 -352q-37 -207 -209.5 -353.5
t-378.5 -146.5q-207 0 -327 147q-96 117 -91 323l214 73q-12 -177 49 -251q71 -86 192 -86t222 86t123 208q21 121 -50 207q-67 82 -178 131z" />
    <glyph glyph-name="T" unicode="T" horiz-adv-x="1054" 
d="M877 1393l-246 -1393h-208l246 1393h-373l36 207h954l-36 -207h-373z" />
    <glyph glyph-name="U" unicode="U" horiz-adv-x="1388" 
d="M1312 1600h208l-199 -1127q-61 -193 -216 -326q-188 -160 -413 -160t-356.5 159.5t-91.5 384.5l188 1069h208l-188 -1069q-25 -138 56.5 -236.5t220.5 -98.5q140 0 255 98t140 237z" />
    <glyph glyph-name="V" unicode="V" horiz-adv-x="1376" 
d="M631 0l-299 1600h220l215 -1147l620 1147h221l-865 -1600h-112z" />
    <glyph glyph-name="W" unicode="W" horiz-adv-x="1686" 
d="M792 299l229 1301h207l-229 -1301q7 -17 26 -42q54 -62 143 -62t165.5 63.5t91.5 152.5l210 1189h208l-211 -1197q-34 -169 -176 -290q-147 -126 -324 -126q-176 0 -270 124q-137 -124 -313 -124q-177 0 -279 126q-101 120 -74 290l211 1197h207l-210 -1189
q-15 -89 38.5 -152.5t142.5 -63.5q90 0 165 62q30 25 42 42z" />
    <glyph glyph-name="X" unicode="X" horiz-adv-x="1347" 
d="M50 0l657 873l-291 727h238l208 -521l394 521h238l-549 -727l351 -873h-238l-268 667l-502 -667h-238z" />
    <glyph glyph-name="Y" unicode="Y" horiz-adv-x="1414" 
d="M716 642l-384 958h238l290 -724l547 724h239l-723 -958l-113 -642h-207z" />
    <glyph glyph-name="Z" unicode="Z" horiz-adv-x="1463" 
d="M1200 1393h-758l36 207h1116l-1050 -1392h760l-37 -208h-1117z" />
    <glyph glyph-name="bracketleft" unicode="[" horiz-adv-x="659" 
d="M307 -138h202l-36 -207h-409l342 1941h409l-36 -207h-202z" />
    <glyph glyph-name="backslash" unicode="\" horiz-adv-x="853" 
d="M903 0h-230l-442 1596h231z" />
    <glyph glyph-name="bracketright" unicode="]" horiz-adv-x="659" 
d="M572 1389h-202l36 207h409l-342 -1941h-409l36 207h202z" />
    <glyph glyph-name="asciicircum" unicode="^" horiz-adv-x="1078" 
d="M623 1596l355 -615h-239l-199 345l-200 -345h-240l356 615h167z" />
    <glyph glyph-name="underscore" unicode="_" horiz-adv-x="1094" 
d="M42 96h1044l-36 -206h-1044z" />
    <glyph glyph-name="grave" unicode="`" horiz-adv-x="669" 
d="M768 1128h-197l-223 279h252z" />
    <glyph glyph-name="a" unicode="a" horiz-adv-x="1401" 
d="M1124 466l27 152q-1 97 -65 176q-87 104 -234 104q-148 0 -270.5 -104t-148.5 -252q-26 -147 60 -251.5t234 -104.5q147 0 270 104q92 79 127 176zM1211 957l12 72h208l-181 -1030h-208l23 129q-178 -155 -376 -155q-236 0 -373 166.5t-95 402.5q41 236 237 402.5
t432 166.5q198 0 321 -154z" />
    <glyph glyph-name="b" unicode="b" horiz-adv-x="1400" 
d="M467 623l-29 -161q3 -94 66 -171q87 -104 235 -104t271 104t149 252q26 147 -60 252t-234 105t-272 -105q-90 -77 -126 -172zM380 128l-23 -128h-207l282 1600h207l-113 -642q177 155 376 155q236 0 373 -167t96 -403q-42 -236 -238 -403t-432 -167q-199 0 -321 155z" />
    <glyph glyph-name="c" unicode="c" horiz-adv-x="1262" 
d="M1027 353l194 -74q-94 -105 -134 -139q-197 -167 -433 -167q-235 0 -372.5 167t-95.5 403q41 236 237.5 403t431.5 167q236 0 374 -167q28 -34 86 -137l-221 -76q-31 49 -43 63q-85 104 -233 104q-147 0 -270 -104.5t-149 -252.5q-26 -147 60 -251.5t233 -104.5
q148 0 271 104q16 14 64 62z" />
    <glyph glyph-name="d" unicode="d" horiz-adv-x="1401" 
d="M1125 466l27 153q-1 97 -66 176q-85 105 -233 105t-271 -105t-149 -252q-26 -148 60 -252t234 -104t270 104q93 79 128 175zM1212 958l113 642h208l-282 -1600h-208l22 128q-177 -155 -376 -155q-236 0 -373 167t-95 403q41 236 237 403t432 167q199 0 322 -155z" />
    <glyph glyph-name="e" unicode="e" horiz-adv-x="1262" 
d="M511 233q44 -46 181 -46q148 0 271 104q16 14 64 62l194 -74q-94 -105 -134 -139q-197 -167 -433 -167q-235 0 -372.5 167t-95.5 403q41 236 237.5 403t431.5 167q202 0 333 -122q21 -21 41 -45q8 -10 46 -63l-123 -105zM970 873q-30 27 -152 27q-147 0 -270 -104.5
t-149 -252.5q-22 -121 -1 -157z" />
    <glyph glyph-name="f" unicode="f" horiz-adv-x="626" 
d="M535 823l-145 -824h-208l145 824h-92l37 207h92l32 185q30 128 137 220q110 88 234 88q62 0 180 -43l-103 -196q-82 37 -105 37q-42 0 -87 -35q-39 -33 -49 -79l-31 -177h185l-37 -207h-185z" />
    <glyph glyph-name="g" unicode="g" horiz-adv-x="1405" 
d="M1152 623q-3 95 -66 172q-86 105 -234 105t-271 -105t-148 -252q-27 -148 59.5 -252.5t234.5 -104.5t270 104q90 77 126 170zM1212 958l12 71h208l-135 -765q-53 -300 -244 -463q-193 -147 -429 -147t-377 147q-28 34 -85 138l219 74q32 -48 43 -62q87 -104 234 -104
q247 0 399 324q-130 -188 -366 -188t-374 162t-96 398q41 236 237 402.5t432 166.5q199 0 322 -154z" />
    <glyph glyph-name="h" unicode="h" horiz-adv-x="1125" 
d="M432 1600h208l-120 -682q116 167 281 167t243 -118.5t49 -297.5l-118 -669h-207l117 661q15 89 -24 152.5t-148 63.5q-129 0 -225 -138l-130 -739h-208z" />
    <glyph glyph-name="i" unicode="i" horiz-adv-x="541" 
d="M555 1029l-181 -1029h-207l181 1029h207zM621.5 1410q35.5 -42 24.5 -103q-10 -61 -60.5 -103t-110.5 -42q-59 0 -94.5 42t-25.5 103q11 61 61.5 103t109.5 42q60 0 95.5 -42z" />
    <glyph glyph-name="j" unicode="j" horiz-adv-x="561" 
d="M47 -10q114 12 125 70l171 969h207l-171 -967q-45 -253 -368 -278zM615.5 1410q35.5 -42 25.5 -103q-11 -61 -61.5 -103t-110.5 -42q-59 0 -94.5 42t-24.5 103q10 61 60.5 103t109.5 42q60 0 95.5 -42z" />
    <glyph glyph-name="k" unicode="k" horiz-adv-x="944" 
d="M966 1029l-339 -344l267 -685h-247l-190 513l-10 -11l-89 -502h-208l250 1415h208l-103 -582l194 196h267z" />
    <glyph glyph-name="l" unicode="l" horiz-adv-x="508" 
d="M640 1601l-282 -1601h-208l282 1601h208z" />
    <glyph glyph-name="m" unicode="m" horiz-adv-x="1418" 
d="M331 1029h207l-16 -96q86 151 257 151q170 0 161 -172q79 172 300 172q218 0 171 -265l-144 -819h-208l128 724q26 152 -97 152q-51 0 -94 -36t-80 -242l-105 -598h-207l129 724q26 152 -98 152q-51 0 -94 -36q-37 -31 -65 -164l-119 -676h-207z" />
    <glyph glyph-name="n" unicode="n" horiz-adv-x="1139" 
d="M491 753l-133 -753h-208l181 1029h208l-21 -120q96 176 292 176q167 0 245 -118.5t49 -297.5l-118 -669h-207l117 661q15 89 -38.5 152.5t-143.5 63.5q-89 0 -165 -62q-43 -37 -58 -62z" />
    <glyph glyph-name="o" unicode="o" horiz-adv-x="1318" 
d="M855 1113q236 0 373 -167t96 -403q-42 -236 -238 -403t-432 -167q-235 0 -372.5 167t-95.5 403q41 236 237.5 403t431.5 167zM547 795q-123 -105 -149 -252q-26 -148 60 -252t234 -104t271 104t149 252q26 147 -60 252t-234 105t-271 -105z" />
    <glyph glyph-name="p" unicode="p" horiz-adv-x="1375" 
d="M467 623l-29 -161q3 -95 67 -172q86 -104 234 -104t271 104.5t149 252.5q26 147 -60 252t-234 105t-271 -105q-91 -77 -127 -172zM380 128l-84 -474h-207l242 1375h207l-16 -93q181 176 380 176q236 0 373 -166.5t96 -402.5q-42 -236 -238 -403t-432 -167
q-199 0 -321 155z" />
    <glyph glyph-name="q" unicode="q" horiz-adv-x="1376" 
d="M1100 466l27 153q-1 97 -66 176q-85 105 -233 105t-271 -105t-149 -252q-26 -148 60 -252.5t234 -104.5t270 104q93 79 128 176zM1187 958l12 71h208l-242 -1375h-208l83 474q-177 -155 -376 -155q-236 0 -373 167t-95 403q41 236 237 402.5t432 166.5q199 0 322 -154z
" />
    <glyph glyph-name="r" unicode="r" horiz-adv-x="693" 
d="M514 890q144 157 314 165l-38 -215q-114 -6 -193 -73q-118 -100 -147 -238l-93 -529h-207l181 1029h207z" />
    <glyph glyph-name="s" unicode="s" horiz-adv-x="882" 
d="M397 221q31 -36 82 -36t94 36t52 89q9 51 -21 87q-20 25 -93 77q-101 61 -140 108q-68 82 -47 197q20 116 116.5 198.5t212.5 82.5t179 -78q46 -55 49 -123l-211 -58q-3 25 -9 33q-14 18 -44 18t-55.5 -21.5t-30.5 -51.5q-6 -30 12 -51q16 -18 75 -61q112 -68 158 -124
q80 -98 56 -233q-24 -138 -138 -235.5t-252 -97.5q-137 0 -216 98q-56 67 -59 167l214 44q1 -46 16 -65z" />
    <glyph glyph-name="t" unicode="t" horiz-adv-x="758" 
d="M456 1029l69 386h207l-69 -386h185l-36 -207h-185l-145 -822h-207l145 822h-185l36 207h185z" />
    <glyph glyph-name="u" unicode="u" horiz-adv-x="1162" 
d="M583 -14q-195 0 -293 119t-69 298l110 626h208l-109 -618q-16 -89 38 -153t151 -64q89 0 165.5 63.5t92.5 153.5l109 618h207l-110 -626q-35 -179 -174 -298q-140 -119 -326 -119z" />
    <glyph glyph-name="v" unicode="v" horiz-adv-x="1188" 
d="M541 0l-310 1029h234l191 -668l428 668h234l-673 -1029h-104z" />
    <glyph glyph-name="w" unicode="w" horiz-adv-x="1418" 
d="M658 305l127 724h207l-124 -707q-10 -55 20.5 -91.5t81.5 -36.5q123 0 150 153l120 682h208l-127 -721q-28 -132 -136 -224q-115 -98 -252 -98q-138 0 -210 96q-108 -96 -245 -96q-138 0 -217 98q-76 92 -57 224l127 721h207l-120 -682q-27 -153 97 -153q51 0 95 36
q36 31 48 75z" />
    <glyph glyph-name="x" unicode="x" horiz-adv-x="1031" 
d="M1087 1029l-354 -470l223 -559h-239l-140 346l-261 -346h-241l422 559l-189 470h239l105 -257l194 257h241z" />
    <glyph glyph-name="y" unicode="y" horiz-adv-x="1139" 
d="M342 -346h-219l375 575l-242 800h233l162 -563l360 563h232z" />
    <glyph glyph-name="z" unicode="z" horiz-adv-x="1125" 
d="M763 822h-423l36 207h780l-613 -821h459l-37 -208h-815z" />
    <glyph glyph-name="braceleft" unicode="{" horiz-adv-x="941" 
d="M258 749h163q92 53 135 147q26 58 37 124q7 36 8 73q0 70 11 134q12 70 39 132q58 128 186 194q82 43 164 43q22 0 95 -12l-35 -195q-81 14 -92 14q-32 0 -66 -17q-51 -26 -74 -78q-18 -43 -28 -99q-5 -25 -7 -49q2 -73 -11 -147q-15 -86 -51 -168q-77 -170 -156 -222
q61 -47 79 -217q7 -82 -9 -168q-13 -74 -40 -147q-7 -24 -11 -49q-10 -56 -7 -99q5 -51 47 -77q30 -18 62 -18q11 0 94 10l-33 -191q-77 -12 -99 -12q-82 0 -149 43q-105 66 -117 195q-5 62 7 132q11 64 36 133q12 37 18 73q12 66 7 124q-10 94 -84 147h-163z" />
    <glyph glyph-name="bar" unicode="|" horiz-adv-x="507" 
d="M638 1596l-342 -1941h-207l342 1941h207z" />
    <glyph glyph-name="braceright" unicode="}" horiz-adv-x="941" 
d="M904 502h-163q-93 -53 -136 -147q-25 -58 -37 -124q-6 -36 -8 -73q1 -69 -10 -133q-12 -70 -40 -132q-57 -129 -186 -195q-81 -43 -163 -43q-22 0 -95 12l34 191q79 -10 90 -10q33 0 69 18q51 26 73 77q19 43 29 99q5 25 7 49q-2 73 11 147q15 86 50 168q77 170 156 217
q-61 52 -78 222q-7 82 8 168q13 74 41 147q6 24 11 49q10 56 5 99q-3 52 -45 78q-28 17 -60 17q-11 0 -97 -14l34 195q77 12 99 12q82 0 149 -43q105 -66 116 -194q6 -62 -6 -132q-11 -64 -37 -134q-11 -37 -17 -73q-12 -66 -7 -124q9 -94 84 -147h163z" />
    <glyph glyph-name="asciitilde" unicode="~" horiz-adv-x="1326" 
d="M692 908q159 -92 220 -92h9q41 13 58 56q9 23 9 120l213 -33q-10 -111 -31 -165q-53 -129 -181 -172q-33 -10 -71 -10q-113 0 -287 99q-160 92 -221 92h-7q-41 -13 -59 -55q-9 -26 -12 -121l-207 33q5 110 27 165q53 129 183 172q32 10 70 10q114 0 287 -99z" />
    <glyph glyph-name="exclamdown" unicode="&#xa1;" horiz-adv-x="541" 
d="M305 781q-35 42 -24 102q11 62 60.5 104t109.5 42q59 0 95 -42t25 -104q-11 -60 -61.5 -102t-109.5 -42q-60 0 -95 42zM65 -584l202 1145h207l-202 -1145h-207z" />
    <glyph glyph-name="cent" unicode="&#xa2;" horiz-adv-x="1110" 
d="M776 773q43 1 133 78q12 10 61 58l186 -73q-94 -102 -126 -130q-161 -137 -291 -139l-25 -142h-207l28 158q-86 16 -172 122q-115 138 -80 334q34 195 197 334q124 105 216 122l28 158h207l-25 -142q128 -2 241 -139q22 -28 82 -128l-213 -75q-32 49 -40 60
q-63 75 -107 76zM659 1278q-144 -88 -170 -239q-25 -140 84 -242z" />
    <glyph glyph-name="sterling" unicode="&#xa3;" horiz-adv-x="1214" 
d="M664 509q-40 -227 -184 -352q91 52 188 52q26 0 53 -4q125 -18 199 -18q66 0 193 31l3 -204q-145 -34 -233 -34q-89 0 -177 21q-81 18 -143 18q-52 0 -89 -12q-98 -33 -240 -99l-119 179q180 138 212 170q103 101 132 254h-219l36 206h173q0 3 -26 82q-78 176 -64 340
q2 20 6 41q26 150 146 269q134 132 314 149q21 1 40 1q150 0 252 -99q113 -114 99 -287q-1 -24 -5 -47q-12 -71 -80 -182l-181 65q46 89 53 126q2 11 3 21q7 87 -51 144q-51 50 -126 50q-11 0 -21 -1q-90 -7 -159 -75q-60 -60 -73 -134q-2 -12 -3 -23q-9 -92 26 -211
q60 -132 67 -229h194l-36 -206z" />
    <glyph glyph-name="currency" unicode="&#xa4;" horiz-adv-x="1214" 
d="M641 1491q84 60 239 60q156 0 219 -60l155 132l120 -147l-155 -132q48 -73 20 -229q-27 -155 -101 -228l109 -132l-172 -147l-109 132q-83 -60 -239 -60q-155 0 -219 60l-154 -132l-121 147l155 132q-47 73 -20 228q28 156 101 229l-109 132l173 147zM973 1299
q-51 45 -129 45t-144 -45q-16 -10 -29 -21q-14 -12 -26 -26q-57 -59 -71 -137q-13 -78 22 -136q7 -13 18 -25q10 -13 21 -22q50 -45 128 -45t145 45q15 10 29 22q14 11 25 25q57 58 70 136q14 78 -21 137q-8 14 -17 26q-9 10 -21 21z" />
    <glyph glyph-name="yen" unicode="&#xa5;" horiz-adv-x="1414" 
d="M669 760l-337 840h238l290 -724l547 724h239l-634 -840h260l-37 -208h-328l-16 -88h328l-36 -207h-328l-45 -257h-207l45 257h-327l36 207h327l16 88h-327l37 208h259z" />
    <glyph glyph-name="brokenbar" unicode="&#xa6;" horiz-adv-x="507" 
d="M638 1596l-159 -905h-207l159 905h207zM456 560l-160 -905h-207l160 905h207z" />
    <glyph glyph-name="section" unicode="&#xa7;" horiz-adv-x="1205" 
d="M982 497h1q5 0 25 114q21 121 -49 207q-68 82 -179 131q-159 56 -242 158l-28 13h-1q-6 0 -27 -115q-21 -121 50 -206q67 -83 178 -131q159 -57 243 -158zM475 1371q27 153 155.5 262.5t283.5 109.5t245 -109q52 -59 71 -190l-201 -74q-18 92 -40 120q-41 48 -111 48
q-69 0 -126.5 -48.5t-69.5 -118.5q-12 -69 28 -118q46 -54 135 -99q176 -61 284 -192q120 -145 84 -351q-37 -207 -198 -366q-26 -152 -154.5 -262t-284.5 -110q-154 0 -245 109q-52 59 -70 190l200 74q18 -92 41 -120q41 -48 110 -48t126.5 48.5t69.5 118.5q12 69 -28 118
q-44 54 -134 99q-177 61 -285 192q-120 145 -84 351q37 207 198 366z" />
    <glyph glyph-name="dieresis" unicode="&#xa8;" horiz-adv-x="716" 
d="M517.5 1396q35.5 -42 25.5 -102q-11 -61 -61.5 -103t-109.5 -42q-60 0 -95 42t-24 103q10 60 60 102t110 42q59 0 94.5 -42zM893.5 1396q35.5 -42 25.5 -102q-11 -61 -61.5 -103t-109.5 -42q-60 0 -95 42t-24 103q10 60 60 102t110 42q59 0 94.5 -42z" />
    <glyph glyph-name="copyright" unicode="&#xa9;" horiz-adv-x="1433" 
d="M893 542l181 -66q-69 -96 -91 -118q-107 -108 -259 -108t-259 107.5t-107 259.5q0 151 107 258.5t259 107.5t259 -107q22 -22 91 -118l-181 -67q-37 47 -44 54q-51 51 -125 51t-126.5 -52.5t-52.5 -126.5t52.5 -126.5t126.5 -52.5t126 52q7 7 43 52zM1148 1052
q180 -180 180 -435t-180 -435t-434 -180q-255 0 -435 180t-180 435t180 435t435 180q254 0 434 -180zM714 1042q-177 0 -301.5 -124.5t-124.5 -300.5t124.5 -301t301.5 -125q176 0 300.5 125t124.5 301t-124.5 300.5t-300.5 124.5z" />
    <glyph glyph-name="ordfeminine" unicode="&#xaa;" horiz-adv-x="1019" 
d="M944 1213l16 91q-1 58 -45 106q-58 62 -155 62q-98 0 -177.5 -62.5t-95.5 -150.5q-16 -89 42 -151.5t156 -62.5q97 0 177 62q60 48 82 106zM996 1508l8 43h137l-109 -618h-137l13 77q-115 -93 -246 -93q-155 0 -247.5 100t-67.5 242q25 141 152.5 241t283.5 100
q130 0 213 -92zM1194 1347h157l-125 -707h-779l28 157h622z" />
    <glyph glyph-name="guillemotleft" unicode="&#xab;" horiz-adv-x="1222" 
d="M186 489l645 581l-49 -278l-336 -303l229 -304l-49 -280zM664 489l645 581l-49 -278l-336 -303l229 -304l-49 -280z" />
    <glyph glyph-name="registered" unicode="&#xae;" horiz-adv-x="1208" 
d="M809 831q4 6 27 28q96 97 96 232q0 137 -96 233l-14 14q71 -80 71 -189q0 -120 -84 -204q-44 -44 -44 -52q0 -1 3 -1h2zM562 1261v-223h44q46 0 79 32.5t33 78.5q0 47 -33 79.5t-79 32.5h-44zM562 765q21 -2 43 -2q29 0 40 -1l-64 99h-19v-96zM387 1338q-8 -7 -15 -14
q-96 -96 -96 -233q0 -135 96 -232q7 -7 15 -14v493zM605 587q-210 0 -357.5 148t-147.5 356q0 209 147.5 357t357.5 148q207 0 355 -148t148 -357q0 -208 -148 -356q-52 -52 -144 -100t-211 -48z" />
    <glyph glyph-name="macron" unicode="&#xaf;" horiz-adv-x="717" 
d="M328 1437h567l-36 -207h-567z" />
    <glyph glyph-name="degree" unicode="&#xb0;" horiz-adv-x="849" 
d="M619 1515.5q80 -80.5 80 -194.5t-80 -194t-194 -80t-194.5 80t-80.5 194t80.5 194.5t194.5 80.5t194 -80.5zM425 1407q-36 0 -61 -25t-25 -61q0 -35 25 -60t61 -25q35 0 60 25t25 60q0 36 -25 61t-60 25z" />
    <glyph glyph-name="plusminus" unicode="&#xb1;" horiz-adv-x="1110" 
d="M488 207l53 296h-327l36 207h327l58 327h206l-58 -327h327l-36 -207h-327l-53 -296h327l-36 -207h-860l36 207h327z" />
    <glyph glyph-name="uni00B2" unicode="&#xb2;" horiz-adv-x="979" 
d="M419.5 907q153.5 107 235.5 158t144 104t72 112q10 58 -27 99t-100 41t-116 -41q-44 -35 -84 -173l-193 69q56 163 154 241q123 99 273 99t238.5 -98t64.5 -237q-24 -137 -145 -238q-71 -61 -243 -135t-187 -137h485l-34 -193h-730q39 222 192.5 329z" />
    <glyph glyph-name="uni00B3" unicode="&#xb3;" horiz-adv-x="979" 
d="M650 1122l-113 2l16 90l118 1q45 15 74.5 39.5t42.5 102.5q5 28 -12 46.5t-47 18.5q-79 0 -115 -112l-178 70q61 119 116 161q96 75 211 75q118 0 186.5 -76.5t49.5 -182.5q-24 -136 -165 -166q93 -21 148 -87t31 -203q-24 -138 -147.5 -236.5t-273.5 -98.5
q-149 0 -239 99q-70 78 -68 242l218 69q-8 -139 23 -174q38 -41 100 -41q64 0 115.5 41t61.5 99q10 60 -23 131.5t-130 89.5z" />
    <glyph glyph-name="acute" unicode="&#xb4;" horiz-adv-x="669" 
d="M565 1407h252l-321 -279h-197z" />
    <glyph glyph-name="mu" unicode="&#xb5;" horiz-adv-x="1110" 
d="M770 81q-106 -87 -224 -87q-172 0 -178 67l-71 -404h-207l242 1372h207l-127 -720q5 -18 28 -46q54 -62 143 -62t165 64q49 41 69 84l120 680h205l-181 -1027h-205z" />
    <glyph glyph-name="paragraph" unicode="&#xb6;" horiz-adv-x="1222" 
d="M1138 1474l-317 -1799h-207l162 919h-78q-224 0 -355 159t-91 384q39 225 226 384q156 132 354 159h15l1 1h646l-37 -207h-41l-317 -1799h-207l317 1799h-71z" />
    <glyph glyph-name="periodcentered" unicode="&#xb7;" horiz-adv-x="708" 
d="M467 887.5q30 -35.5 21 -86.5q-9 -53 -51.5 -88.5t-93.5 -35.5q-50 0 -80.5 35.5t-21.5 88.5q9 51 52 86.5t93 35.5q51 0 81 -35.5z" />
    <glyph glyph-name="periodcentered" unicode="&#x2219;" horiz-adv-x="708" 
d="M467 887.5q30 -35.5 21 -86.5q-9 -53 -51.5 -88.5t-93.5 -35.5q-50 0 -80.5 35.5t-21.5 88.5q9 51 52 86.5t93 35.5q51 0 81 -35.5z" />
    <glyph glyph-name="cedilla" unicode="&#xb8;" horiz-adv-x="418" 
d="M314 17l-34 -61q67 -38 79 -89q2 -14 3 -27q0 -13 -2 -26q-8 -43 -45 -81q-60 -59 -157 -73q-20 -3 -45 -3q-58 0 -146 15l57 126q53 -26 89 -26q6 0 11 1q32 4 46 35q4 7 6 15v8q-1 28 -82 56l71 130h149z" />
    <glyph glyph-name="uni00B9" unicode="&#xb9;" horiz-adv-x="1081" 
d="M995 1596l-181 -1026h-208l140 796h-137l235 230h151z" />
    <glyph glyph-name="ordmasculine" unicode="&#xba;" horiz-adv-x="931" 
d="M748 1600q156 0 248 -100t67 -242t-152.5 -242t-283.5 -100q-155 0 -247.5 100t-67.5 242t153 242t283 100zM547.5 1409q-80.5 -63 -95.5 -151q-16 -89 42 -151.5t156 -62.5t177.5 62.5t95.5 151.5q16 88 -42 151t-156 63q-97 0 -177.5 -63zM1194 1347h157l-125 -707
h-779l28 157h622z" />
    <glyph glyph-name="guillemotright" unicode="&#xbb;" horiz-adv-x="1222" 
d="M83 -95l49 280l337 304l-230 303l49 278l441 -581zM561 -95l49 280l337 304l-230 303l49 278l441 -581z" />
    <glyph glyph-name="questiondown" unicode="&#xbf;" horiz-adv-x="1028" 
d="M846 -170q-13 -74 -62 -146q-92 -140 -247 -191q-68 -22 -130 -22q-82 0 -154 38q-129 67 -154 212q-10 63 1 125q15 83 66 162q86 130 247 239q111 85 179 190q41 62 53 123h206q-20 -108 -90 -212q-109 -167 -288 -286q-89 -75 -135 -144q-24 -37 -30 -73
q-5 -27 -1 -55q12 -66 69 -96q33 -17 69 -17q27 0 58 10q70 23 111 85q12 19 23 57l221 68zM641 883q11 62 61.5 104t109.5 42q60 0 95 -42t24 -104q-11 -60 -61 -102t-110 -42q-59 0 -94.5 42t-24.5 102z" />
    <glyph glyph-name="Agrave" unicode="&#xc0;" horiz-adv-x="1376" 
d="M961 773l-71 375l-202 -375h273zM1026 1600l300 -1600h-220l-106 566h-424l-305 -566h-221l864 1600h112zM1144 1699h-197l-223 279h252z" />
    <glyph glyph-name="Aacute" unicode="&#xc1;" horiz-adv-x="1376" 
d="M961 773l-71 375l-202 -375h273zM1026 1600l300 -1600h-220l-106 566h-424l-305 -566h-221l864 1600h112zM1097 1978h252l-321 -279h-197z" />
    <glyph glyph-name="Acircumflex" unicode="&#xc2;" horiz-adv-x="1376" 
d="M961 773l-71 375l-202 -375h273zM1026 1600l300 -1600h-220l-106 566h-424l-305 -566h-221l864 1600h112zM1086 1749l-78 82l-103 -82h-219l275 238h147l199 -238h-221z" />
    <glyph glyph-name="Atilde" unicode="&#xc3;" horiz-adv-x="1376" 
d="M961 773l-71 375l-202 -375h273zM1026 1600l300 -1600h-220l-106 566h-424l-305 -566h-221l864 1600h112zM1133 1888v-1q30 0 37 39q5 26 -1 69h186q-77 -220 -191 -252q-30 -8 -58 -8q-74 0 -123 57t-77 57h-4q-31 -2 -37 -39q-5 -25 2 -66h-187q78 220 193 252
q30 8 58 8q73 0 124.5 -58t77.5 -58z" />
    <glyph glyph-name="Adieresis" unicode="&#xc4;" horiz-adv-x="1376" 
d="M961 773l-71 375l-202 -375h273zM1026 1600l300 -1600h-220l-106 566h-424l-305 -566h-221l864 1600h112zM948.5 1967q35.5 -42 25.5 -102q-11 -61 -61.5 -103t-109.5 -42q-60 0 -95 42t-24 103q10 60 60 102t110 42q59 0 94.5 -42zM1324.5 1967q35.5 -42 25.5 -102
q-11 -61 -61.5 -103t-109.5 -42q-60 0 -95 42t-24 103q10 60 60 102t110 42q59 0 94.5 -42z" />
    <glyph glyph-name="Aring" unicode="&#xc5;" horiz-adv-x="1376" 
d="M961 773l-71 375l-202 -375h273zM997 1738q22 0 41 15.5t23 38.5q5 28 -8.5 43.5t-35.5 15.5q-28 0 -46 -15.5t-23 -43.5q-4 -23 8.5 -38.5t40.5 -15.5zM1028 1592l298 -1592h-220l-106 566h-424l-305 -566h-221l860 1592q-48 14 -80 54q-51 62 -36 148q16 87 88.5 149
t160.5 62q87 0 137.5 -62t34.5 -149q-15 -86 -87 -148q-47 -40 -100 -54z" />
    <glyph glyph-name="AE" unicode="&#xc6;" horiz-adv-x="1715" 
d="M1873 1600l-36 -207h-655l-87 -489h655l-36 -207h-655l-86 -489h655l-37 -208h-862l100 566h-194l-342 -566h-253l962 1548l9 52h862zM910 1028l-155 -255h110z" />
    <glyph glyph-name="Ccedilla" unicode="&#xc7;" horiz-adv-x="1642" 
d="M779 -2q-228 44 -376 224q-197 239 -137 578q59 338 340.5 578t620.5 240q317 0 555 -259l-180 -141q-180 190 -412 190q-251 0 -461 -178t-254 -430q-45 -253 102 -431t398 -178q232 0 480 190l130 -139q-329 -259 -646 -259h-19l-15 -27q67 -38 79 -89q2 -14 3 -27
q0 -13 -2 -26q-8 -43 -45 -81q-60 -59 -157 -73q-20 -3 -45 -3q-58 0 -146 15l57 126q53 -26 89 -26q6 0 11 1q31 4 46 35q4 7 6 15v8q-1 28 -82 56z" />
    <glyph glyph-name="Egrave" unicode="&#xc8;" horiz-adv-x="1137" 
d="M1294 1600l-36 -207h-655l-87 -489h655l-36 -207h-655l-86 -489h655l-37 -208h-862l282 1600h862zM1037 1699h-197l-223 279h252z" />
    <glyph glyph-name="Eacute" unicode="&#xc9;" horiz-adv-x="1137" 
d="M1294 1600l-36 -207h-655l-87 -489h655l-36 -207h-655l-86 -489h655l-37 -208h-862l282 1600h862zM990 1978h252l-321 -279h-197z" />
    <glyph glyph-name="Ecircumflex" unicode="&#xca;" horiz-adv-x="1137" 
d="M1294 1600l-36 -207h-655l-87 -489h655l-36 -207h-655l-86 -489h655l-37 -208h-862l282 1600h862zM979 1749l-78 82l-103 -82h-219l275 238h147l199 -238h-221z" />
    <glyph glyph-name="Edieresis" unicode="&#xcb;" horiz-adv-x="1137" 
d="M1294 1600l-36 -207h-655l-87 -489h655l-36 -207h-655l-86 -489h655l-37 -208h-862l282 1600h862zM841.5 1967q35.5 -42 25.5 -102q-11 -61 -61.5 -103t-109.5 -42q-60 0 -95 42t-24 103q10 60 60 102t110 42q59 0 94.5 -42zM1217.5 1967q35.5 -42 25.5 -102
q-11 -61 -61.5 -103t-109.5 -42q-60 0 -95 42t-24 103q10 60 60 102t110 42q59 0 94.5 -42z" />
    <glyph glyph-name="Igrave" unicode="&#xcc;" 
d="M659 1600l-282 -1600h-207l282 1600h207zM729 1699h-197l-222 279h252z" />
    <glyph glyph-name="Iacute" unicode="&#xcd;" 
d="M659 1600l-282 -1600h-207l282 1600h207zM683 1978h252l-321 -279h-197z" />
    <glyph glyph-name="Icircumflex" unicode="&#xce;" 
d="M659 1600l-282 -1600h-207l282 1600h207zM671 1749l-77 82l-104 -82h-219l275 238h147l199 -238h-221z" />
    <glyph glyph-name="Idieresis" unicode="&#xcf;" 
d="M660 1600l-282 -1600h-207l282 1600h207zM535.5 1967q35.5 -42 24.5 -102q-10 -61 -60.5 -103t-109.5 -42q-60 0 -95 42t-25 103q11 60 61 102t110 42q59 0 94.5 -42zM911.5 1967q35.5 -42 24.5 -102q-10 -61 -60.5 -103t-109.5 -42q-60 0 -95 42t-25 103q11 60 61 102
t110 42q59 0 94.5 -42z" />
    <glyph glyph-name="Eth" unicode="&#xd0;" horiz-adv-x="1250" 
d="M309 903l123 697h152q390 -2 569 -221q197 -241 137 -579q-60 -339 -341 -579q-257 -219 -647 -221h-152l123 697h-190l36 206h190zM516 903h347l-36 -206h-347l-86 -487q247 0 433 159q210 178 254 431q45 252 -102 431q-130 158 -377 158z" />
    <glyph glyph-name="Ntilde" unicode="&#xd1;" horiz-adv-x="1357" 
d="M432 1600h189l459 -1142l201 1142h208l-282 -1600h-181l-465 1156l-204 -1156h-207zM1124 1888v-1q30 0 37 39q4 26 -1 69h186q-77 -220 -192 -252q-29 -8 -57 -8q-74 0 -123.5 57t-77.5 57h-4q-30 -2 -37 -39q-4 -25 3 -66h-187q77 220 193 252q29 8 57 8q73 0 125 -58
t78 -58z" />
    <glyph glyph-name="Ograve" unicode="&#xd2;" horiz-adv-x="1889" 
d="M1767 1381q198 -240 138 -579t-342.5 -579t-621.5 -240t-536.5 240t-137.5 579t342 579t621 240t537 -240zM1193 1412q-253 0 -463 -178.5t-254 -431.5q-45 -253 102.5 -432t399.5 -179q253 0 463 179t255 432q44 253 -103 431.5t-400 178.5zM1400 1699h-197l-223 279
h252z" />
    <glyph glyph-name="Oacute" unicode="&#xd3;" horiz-adv-x="1889" 
d="M1767 1381q198 -240 138 -579t-342.5 -579t-621.5 -240t-536.5 240t-137.5 579t342 579t621 240t537 -240zM1193 1412q-253 0 -463 -178.5t-254 -431.5q-45 -253 102.5 -432t399.5 -179q253 0 463 179t255 432q44 253 -103 431.5t-400 178.5zM1354 1978h252l-321 -279
h-197z" />
    <glyph glyph-name="Ocircumflex" unicode="&#xd4;" horiz-adv-x="1889" 
d="M1767 1381q198 -240 138 -579t-342.5 -579t-621.5 -240t-536.5 240t-137.5 579t342 579t621 240t537 -240zM1193 1412q-253 0 -463 -178.5t-254 -431.5q-45 -253 102.5 -432t399.5 -179q253 0 463 179t255 432q44 253 -103 431.5t-400 178.5zM1342 1749l-77 82l-104 -82
h-219l275 238h147l199 -238h-221z" />
    <glyph glyph-name="Otilde" unicode="&#xd5;" horiz-adv-x="1889" 
d="M1767 1381q198 -240 138 -579t-342.5 -579t-621.5 -240t-536.5 240t-137.5 579t342 579t621 240t537 -240zM1193 1412q-253 0 -463 -178.5t-254 -431.5q-45 -253 102.5 -432t399.5 -179q253 0 463 179t255 432q44 253 -103 431.5t-400 178.5zM1390 1888v-1q30 0 36 39
q5 26 0 69h186q-77 -220 -192 -252q-29 -8 -57 -8q-74 0 -123.5 57t-77.5 57h-4q-30 -2 -37 -39q-4 -25 2 -66h-187q78 220 194 252q29 8 57 8q73 0 125 -58t78 -58z" />
    <glyph glyph-name="Odieresis" unicode="&#xd6;" horiz-adv-x="1889" 
d="M1767 1381q198 -240 138 -579t-342.5 -579t-621.5 -240t-536.5 240t-137.5 579t342 579t621 240t537 -240zM1193 1412q-253 0 -463 -178.5t-254 -431.5q-45 -253 102.5 -432t399.5 -179q253 0 463 179t255 432q44 253 -103 431.5t-400 178.5zM1205.5 1967
q35.5 -42 24.5 -102q-11 -61 -61 -103t-109 -42q-60 0 -95.5 42t-24.5 103q11 60 61 102t110 42q59 0 94.5 -42zM1581.5 1967q35.5 -42 24.5 -102q-11 -61 -61 -103t-109 -42q-60 0 -95.5 42t-24.5 103q11 60 61 102t110 42q59 0 94.5 -42z" />
    <glyph glyph-name="multiply" unicode="&#xd7;" horiz-adv-x="1177" 
d="M588 461l-231 -231l-147 147l231 231l-231 232l147 147l231 -232l232 232l145 -148l-231 -231l231 -231l-145 -147z" />
    <glyph glyph-name="Oslash" unicode="&#xd8;" horiz-adv-x="1889" 
d="M1106 1396q-41 16 -162 16q-253 0 -431.5 -178.5t-178.5 -431.5t179 -432q65 -65 81 -74zM781 208q42 -17 163 -17q253 0 431.5 179t178.5 432t-178 432q-65 65 -82 74zM1383 1498q51 -28 141 -116q239 -241 239 -580t-240 -579t-579 -240q-164 0 -251 35l-80 -173
l-189 88l81 173q-51 28 -140 117q-240 240 -240 579t240 579t579 240q164 0 251 -35l81 173l188 -88z" />
    <glyph glyph-name="Ugrave" unicode="&#xd9;" horiz-adv-x="1388" 
d="M1312 1600h208l-199 -1127q-61 -193 -216 -326q-188 -160 -413 -160t-356.5 159.5t-91.5 384.5l188 1069h208l-188 -1069q-25 -138 56.5 -236.5t220.5 -98.5q140 0 255 98t140 237zM1150 1699h-197l-223 279h252z" />
    <glyph glyph-name="Uacute" unicode="&#xda;" horiz-adv-x="1388" 
d="M1312 1600h208l-199 -1127q-61 -193 -216 -326q-188 -160 -413 -160t-356.5 159.5t-91.5 384.5l188 1069h208l-188 -1069q-25 -138 56.5 -236.5t220.5 -98.5q140 0 255 98t140 237zM1103 1978h252l-321 -279h-197z" />
    <glyph glyph-name="Ucircumflex" unicode="&#xdb;" horiz-adv-x="1388" 
d="M1312 1600h208l-199 -1127q-61 -193 -216 -326q-188 -160 -413 -160t-356.5 159.5t-91.5 384.5l188 1069h208l-188 -1069q-25 -138 56.5 -236.5t220.5 -98.5q140 0 255 98t140 237zM1092 1749l-78 82l-103 -82h-219l275 238h147l199 -238h-221z" />
    <glyph glyph-name="Udieresis" unicode="&#xdc;" horiz-adv-x="1388" 
d="M1312 1600h208l-199 -1127q-61 -193 -216 -326q-188 -160 -413 -160t-356.5 159.5t-91.5 384.5l188 1069h208l-188 -1069q-25 -138 56.5 -236.5t220.5 -98.5q140 0 255 98t140 237zM954.5 1967q35.5 -42 25.5 -102q-11 -61 -61.5 -103t-109.5 -42q-60 0 -95 42t-24 103
q10 60 60 102t110 42q59 0 94.5 -42zM1330.5 1967q35.5 -42 25.5 -102q-11 -61 -61.5 -103t-109.5 -42q-60 0 -95 42t-24 103q10 60 60 102t110 42q59 0 94.5 -42z" />
    <glyph glyph-name="Yacute" unicode="&#xdd;" horiz-adv-x="1414" 
d="M716 642l-384 958h238l290 -724l547 724h239l-723 -958l-113 -642h-207zM1116 1978h252l-321 -279h-197z" />
    <glyph glyph-name="Thorn" unicode="&#xde;" horiz-adv-x="1180" 
d="M594 1345h247q188 -27 298 -160q131 -159 91 -384q-40 -226 -227 -385t-412 -159h-189l-45 -257h-207l282 1600h207zM439 465h189q138 0 254 98.5t140 237.5q25 139 -56.5 237t-219.5 98h-189z" />
    <glyph glyph-name="germandbls" unicode="&#xdf;" horiz-adv-x="1142" 
d="M752 1607h16q134 0 217 -78q89 -87 68 -256l-3 -17q-28 -164 -79 -192q237 -102 182 -492q-42 -236 -237 -407q-184 -161 -340 -163v-2h-78l37 208h78v3q65 4 177 103q124 108 151 257q26 147 -60.5 251.5t-227.5 104.5l37 210q67 8 106.5 39.5t49.5 86.5q10 58 -19 99
q-24 34 -87 34h-9q-69 -2 -108 -40.5t-59 -127.5l-217 -1228h-207l220 1246q41 173 142.5 264.5t249.5 96.5z" />
    <glyph glyph-name="agrave" unicode="&#xe0;" horiz-adv-x="1401" 
d="M1124 466l27 152q-1 97 -65 176q-87 104 -234 104q-148 0 -270.5 -104t-148.5 -252q-26 -147 60 -251.5t234 -104.5q147 0 270 104q92 79 127 176zM1211 957l12 72h208l-181 -1030h-208l23 129q-178 -155 -376 -155q-236 0 -373 166.5t-95 402.5q41 236 237 402.5
t432 166.5q198 0 321 -154zM1043 1128h-197l-223 279h252z" />
    <glyph glyph-name="aacute" unicode="&#xe1;" horiz-adv-x="1401" 
d="M1124 466l27 152q-1 97 -65 176q-87 104 -234 104q-148 0 -270.5 -104t-148.5 -252q-26 -147 60 -251.5t234 -104.5q147 0 270 104q92 79 127 176zM1211 957l12 72h208l-181 -1030h-208l23 129q-178 -155 -376 -155q-236 0 -373 166.5t-95 402.5q41 236 237 402.5
t432 166.5q198 0 321 -154zM996 1407h252l-321 -279h-197z" />
    <glyph glyph-name="acircumflex" unicode="&#xe2;" horiz-adv-x="1401" 
d="M1124 466l27 152q-1 97 -65 176q-87 104 -234 104q-148 0 -270.5 -104t-148.5 -252q-26 -147 60 -251.5t234 -104.5q147 0 270 104q92 79 127 176zM1211 957l12 72h208l-181 -1030h-208l23 129q-178 -155 -376 -155q-236 0 -373 166.5t-95 402.5q41 236 237 402.5
t432 166.5q198 0 321 -154zM985 1178l-78 82l-103 -82h-219l275 238h147l199 -238h-221z" />
    <glyph glyph-name="atilde" unicode="&#xe3;" horiz-adv-x="1401" 
d="M1124 466l27 152q-1 97 -65 176q-87 104 -234 104q-148 0 -270.5 -104t-148.5 -252q-26 -147 60 -251.5t234 -104.5q147 0 270 104q92 79 127 176zM1211 957l12 72h208l-181 -1030h-208l23 129q-178 -155 -376 -155q-236 0 -373 166.5t-95 402.5q41 236 237 402.5
t432 166.5q198 0 321 -154zM1032 1317v-1q30 0 37 39q5 26 -1 69h186q-77 -220 -191 -252q-30 -8 -58 -8q-74 0 -123.5 57t-77.5 57h-4q-30 -2 -36 -39q-5 -25 2 -66h-187q78 220 193 252q30 8 58 8q73 0 124.5 -58t77.5 -58z" />
    <glyph glyph-name="adieresis" unicode="&#xe4;" horiz-adv-x="1401" 
d="M1124 466l27 152q-1 97 -65 176q-87 104 -234 104q-148 0 -270.5 -104t-148.5 -252q-26 -147 60 -251.5t234 -104.5q147 0 270 104q92 79 127 176zM1211 957l12 72h208l-181 -1030h-208l23 129q-178 -155 -376 -155q-236 0 -373 166.5t-95 402.5q41 236 237 402.5
t432 166.5q198 0 321 -154zM847.5 1396q35.5 -42 25.5 -102q-11 -61 -61.5 -103t-109.5 -42q-60 0 -95 42t-24 103q10 60 60 102t110 42q59 0 94.5 -42zM1223.5 1396q35.5 -42 25.5 -102q-11 -61 -61.5 -103t-109.5 -42q-60 0 -95 42t-24 103q10 60 60 102t110 42
q59 0 94.5 -42z" />
    <glyph glyph-name="aring" unicode="&#xe5;" horiz-adv-x="1401" 
d="M1124 466l27 152q-1 97 -65 176q-87 104 -234 104q-148 0 -270.5 -104t-148.5 -252q-26 -147 60 -251.5t234 -104.5q147 0 270 104q92 79 127 176zM901 1199q22 0 41 15.5t23 38.5q5 28 -8.5 43.5t-35.5 15.5q-28 0 -46 -15.5t-23 -43.5q-4 -23 8.5 -38.5t40.5 -15.5z
M1015 1094q114 -35 196 -137l12 72h208l-181 -1030h-208l23 129q-178 -155 -376 -155q-236 0 -373 166.5t-95 402.5q41 236 237 403q134 113 287 149q-6 6 -11 13q-51 62 -36 148q16 87 88.5 149t160.5 62q87 0 137.5 -62t34.5 -149q-15 -86 -87 -148q-9 -7 -17 -13z" />
    <glyph glyph-name="ae" unicode="&#xe6;" horiz-adv-x="2142" 
d="M1098 714q-17 43 -48 81q-86 104 -234 104q-147 0 -269.5 -104t-149.5 -252q-26 -148 60.5 -252t233.5 -104q148 0 270 105q46 38 76 80q36 47 53 95l27 152q-1 48 -19 95zM1933 736l-48 59q-86 104 -234 104t-270 -104q-26 -22 -31 -28l-6 -31h589zM1183 992l6 38h207
q71 82 293 82q236 0 373 -167q122 -149 83 -417l-837 1l-37 -210q3 -6 20 -27q87 -105 235 -105t270 105q23 19 76 73l190 -71q-77 -98 -141 -153q-197 -166 -433 -166q-222 0 -269 52l-4 -27h-207l16 95q-171 -120 -371 -120q-235 0 -372 166.5t-96 401.5q42 236 238 402.5
t431 166.5q199 0 329 -120z" />
    <glyph glyph-name="ccedilla" unicode="&#xe7;" horiz-adv-x="1262" 
d="M566 -21q-174 27 -284 161q-138 167 -96 403q41 236 237.5 403t431.5 167q236 0 374 -167q28 -34 86 -137l-221 -76q-31 49 -43 63q-85 104 -233 104q-147 0 -270 -104.5t-149 -252.5q-26 -147 60 -251.5t233 -104.5q148 0 271 104q16 14 64 62l194 -74
q-94 -105 -134 -139q-172 -146 -374 -164l-11 -20q67 -38 79 -89q2 -14 3 -27q0 -13 -2 -26q-8 -43 -45 -81q-60 -59 -157 -73q-20 -3 -45 -3q-58 0 -146 15l57 126q53 -26 89 -26q6 0 11 1q32 4 46 35q4 7 6 15v8q-1 28 -82 56z" />
    <glyph glyph-name="egrave" unicode="&#xe8;" horiz-adv-x="1262" 
d="M511 233q44 -46 181 -46q148 0 271 104q16 14 64 62l194 -74q-94 -105 -134 -139q-197 -167 -433 -167q-235 0 -372.5 167t-95.5 403q41 236 237.5 403t431.5 167q202 0 333 -122q21 -21 41 -45q8 -10 46 -63l-123 -105zM970 873q-30 27 -152 27q-147 0 -270 -104.5
t-149 -252.5q-22 -121 -1 -157zM986 1128h-197l-223 279h252z" />
    <glyph glyph-name="eacute" unicode="&#xe9;" horiz-adv-x="1262" 
d="M511 233q44 -46 181 -46q148 0 271 104q16 14 64 62l194 -74q-94 -105 -134 -139q-197 -167 -433 -167q-235 0 -372.5 167t-95.5 403q41 236 237.5 403t431.5 167q202 0 333 -122q21 -21 41 -45q8 -10 46 -63l-123 -105zM970 873q-30 27 -152 27q-147 0 -270 -104.5
t-149 -252.5q-22 -121 -1 -157zM940 1407h252l-322 -279h-197z" />
    <glyph glyph-name="ecircumflex" unicode="&#xea;" horiz-adv-x="1262" 
d="M511 233q44 -46 181 -46q148 0 271 104q16 14 64 62l194 -74q-94 -105 -134 -139q-197 -167 -433 -167q-235 0 -372.5 167t-95.5 403q41 236 237.5 403t431.5 167q202 0 333 -122q21 -21 41 -45q8 -10 46 -63l-123 -105zM970 873q-30 27 -152 27q-147 0 -270 -104.5
t-149 -252.5q-22 -121 -1 -157zM928 1178l-77 82l-104 -82h-219l275 238h147l199 -238h-221z" />
    <glyph glyph-name="edieresis" unicode="&#xeb;" horiz-adv-x="1262" 
d="M511 233q44 -46 181 -46q148 0 271 104q16 14 64 62l194 -74q-94 -105 -134 -139q-197 -167 -433 -167q-235 0 -372.5 167t-95.5 403q41 236 237.5 403t431.5 167q202 0 333 -122q21 -21 41 -45q8 -10 46 -63l-123 -105zM970 873q-30 27 -152 27q-147 0 -270 -104.5
t-149 -252.5q-22 -121 -1 -157zM791 1396q36 -42 25 -102q-11 -61 -61.5 -103t-109.5 -42q-60 0 -95 42t-24 103q11 60 60.5 102t109.5 42q59 0 95 -42zM1167 1396q36 -42 25 -102q-11 -61 -61.5 -103t-109.5 -42q-60 0 -95 42t-24 103q11 60 60.5 102t109.5 42q59 0 95 -42
z" />
    <glyph glyph-name="igrave" unicode="&#xec;" 
d="M559 1030l-182 -1030h-207l182 1030h207zM629 1128h-197l-223 279h252z" />
    <glyph glyph-name="iacute" unicode="&#xed;" 
d="M559 1030l-182 -1030h-207l182 1030h207zM582 1407h252l-321 -279h-197z" />
    <glyph glyph-name="icircumflex" unicode="&#xee;" 
d="M559 1030l-182 -1030h-207l182 1030h207zM571 1178l-78 82l-103 -82h-219l275 238h147l199 -238h-221z" />
    <glyph glyph-name="idieresis" unicode="&#xef;" 
d="M559 1030l-182 -1030h-207l182 1030h207zM433.5 1396q35.5 -42 25.5 -102q-11 -61 -61.5 -103t-109.5 -42q-60 0 -95 42t-24 103q10 60 60 102t110 42q59 0 94.5 -42zM809.5 1396q35.5 -42 25.5 -102q-11 -61 -61.5 -103t-109.5 -42q-60 0 -95 42t-24 103q10 60 60 102
t110 42q59 0 94.5 -42z" />
    <glyph glyph-name="eth" unicode="&#xf0;" horiz-adv-x="1318" 
d="M398 543q-26 -148 60 -252t234 -104t271 104t149 252q26 147 -60 252t-234 105t-271 -105t-149 -252zM1324 543q-42 -236 -238 -403t-432 -167q-235 0 -372.5 167t-95.5 403q41 236 237.5 403t431.5 167q17 0 34 -1l-134 184l-139 -88h-257l316 198l-147 194h252l64 -88
l151 88h252l-329 -201l270 -409q21 -21 40 -44q52 -63 78 -137l1 -1q42 -119 17 -265z" />
    <glyph glyph-name="ntilde" unicode="&#xf1;" horiz-adv-x="1139" 
d="M491 753l-133 -753h-208l181 1029h208l-21 -120q96 176 292 176q167 0 245 -118.5t49 -297.5l-118 -669h-207l117 661q15 89 -38.5 152.5t-143.5 63.5q-89 0 -165 -62q-43 -37 -58 -62zM913 1317v-1q30 0 36 39q5 26 0 69h186q-77 -220 -192 -252q-29 -8 -57 -8
q-74 0 -123.5 57t-77.5 57h-4q-31 -2 -37 -39q-4 -25 2 -66h-187q78 220 194 252q29 8 57 8q73 0 125 -58t78 -58z" />
    <glyph glyph-name="ograve" unicode="&#xf2;" horiz-adv-x="1318" 
d="M855 1113q236 0 373 -167t96 -403q-42 -236 -238 -403t-432 -167q-235 0 -372.5 167t-95.5 403q41 236 237.5 403t431.5 167zM547 795q-123 -105 -149 -252q-26 -148 60 -252t234 -104t271 104t149 252q26 147 -60 252t-234 105t-271 -105zM1014 1128h-197l-223 279h252z
" />
    <glyph glyph-name="oacute" unicode="&#xf3;" horiz-adv-x="1318" 
d="M855 1113q236 0 373 -167t96 -403q-42 -236 -238 -403t-432 -167q-235 0 -372.5 167t-95.5 403q41 236 237.5 403t431.5 167zM547 795q-123 -105 -149 -252q-26 -148 60 -252t234 -104t271 104t149 252q26 147 -60 252t-234 105t-271 -105zM968 1407h252l-322 -279h-197z
" />
    <glyph glyph-name="ocircumflex" unicode="&#xf4;" horiz-adv-x="1318" 
d="M855 1113q236 0 373 -167t96 -403q-42 -236 -238 -403t-432 -167q-235 0 -372.5 167t-95.5 403q41 236 237.5 403t431.5 167zM547 795q-123 -105 -149 -252q-26 -148 60 -252t234 -104t271 104t149 252q26 147 -60 252t-234 105t-271 -105zM956 1178l-77 82l-104 -82
h-219l275 238h147l199 -238h-221z" />
    <glyph glyph-name="otilde" unicode="&#xf5;" horiz-adv-x="1318" 
d="M855 1113q236 0 373 -167t96 -403q-42 -236 -238 -403t-432 -167q-235 0 -372.5 167t-95.5 403q41 236 237.5 403t431.5 167zM547 795q-123 -105 -149 -252q-26 -148 60 -252t234 -104t271 104t149 252q26 147 -60 252t-234 105t-271 -105zM1004 1317l-1 -1q30 0 37 39
q5 26 -1 69h186q-76 -220 -191 -252q-29 -8 -57 -8q-74 0 -123.5 57t-77.5 57h-4q-31 -2 -37 -39q-5 -25 2 -66h-187q78 220 194 252q29 8 57 8q73 0 125 -58t78 -58z" />
    <glyph glyph-name="odieresis" unicode="&#xf6;" horiz-adv-x="1318" 
d="M855 1113q236 0 373 -167t96 -403q-42 -236 -238 -403t-432 -167q-235 0 -372.5 167t-95.5 403q41 236 237.5 403t431.5 167zM547 795q-123 -105 -149 -252q-26 -148 60 -252t234 -104t271 104t149 252q26 147 -60 252t-234 105t-271 -105zM819 1396q36 -42 25 -102
q-11 -61 -61.5 -103t-109.5 -42q-60 0 -95 42t-24 103q11 60 60.5 102t109.5 42q59 0 95 -42zM1195 1396q36 -42 25 -102q-11 -61 -61.5 -103t-109.5 -42q-60 0 -95 42t-24 103q11 60 60.5 102t109.5 42q59 0 95 -42z" />
    <glyph glyph-name="divide" unicode="&#xf7;" horiz-adv-x="1112" 
d="M125 732h862v-207h-862v207zM658.5 1015q42.5 -42 42.5 -102q0 -61 -42.5 -103t-102.5 -42t-102.5 42t-42.5 103q0 60 42.5 102t102.5 42t102.5 -42zM658.5 446q42.5 -42 42.5 -102q0 -61 -42.5 -103t-102.5 -42t-102.5 42t-42.5 103q0 60 42.5 102t102.5 42t102.5 -42z
" />
    <glyph glyph-name="oslash" unicode="&#xf8;" horiz-adv-x="1317" 
d="M902 898q-5 2 -86 2q-147 0 -270 -104.5t-149 -251.5q-26 -148 49 -251zM606 190q5 -2 85 -2q148 0 270.5 104t148.5 252q26 147 -60 252zM312 105l-30 37q-138 167 -97 402q42 236 238 402.5t431 166.5q134 0 189 -29l147 197l168 -95l-161 -202l30 -38
q137 -166 95 -402q-41 -235 -237 -402t-432 -167q-133 0 -187 29l-148 -196l-170 89z" />
    <glyph glyph-name="ugrave" unicode="&#xf9;" horiz-adv-x="1162" 
d="M583 -14q-195 0 -293 119t-69 298l110 626h208l-109 -618q-16 -89 38 -153t151 -64q89 0 165.5 63.5t92.5 153.5l109 618h207l-110 -626q-35 -179 -174 -298q-140 -119 -326 -119zM936 1128h-197l-223 279h252z" />
    <glyph glyph-name="uacute" unicode="&#xfa;" horiz-adv-x="1162" 
d="M583 -14q-195 0 -293 119t-69 298l110 626h208l-109 -618q-16 -89 38 -153t151 -64q89 0 165.5 63.5t92.5 153.5l109 618h207l-110 -626q-35 -179 -174 -298q-140 -119 -326 -119zM889 1407h252l-321 -279h-197z" />
    <glyph glyph-name="ucircumflex" unicode="&#xfb;" horiz-adv-x="1162" 
d="M583 -14q-195 0 -293 119t-69 298l110 626h208l-109 -618q-16 -89 38 -153t151 -64q89 0 165.5 63.5t92.5 153.5l109 618h207l-110 -626q-35 -179 -174 -298q-140 -119 -326 -119zM878 1178l-78 82l-103 -82h-219l275 238h147l199 -238h-221z" />
    <glyph glyph-name="udieresis" unicode="&#xfc;" horiz-adv-x="1162" 
d="M583 -14q-195 0 -293 119t-69 298l110 626h208l-109 -618q-16 -89 38 -153t151 -64q89 0 165.5 63.5t92.5 153.5l109 618h207l-110 -626q-35 -179 -174 -298q-140 -119 -326 -119zM740.5 1396q35.5 -42 25.5 -102q-11 -61 -61.5 -103t-109.5 -42q-60 0 -95 42t-24 103
q10 60 60 102t110 42q59 0 94.5 -42zM1116.5 1396q35.5 -42 25.5 -102q-11 -61 -61.5 -103t-109.5 -42q-60 0 -95 42t-24 103q10 60 60 102t110 42q59 0 94.5 -42z" />
    <glyph glyph-name="yacute" unicode="&#xfd;" horiz-adv-x="1139" 
d="M342 -346h-219l375 575l-242 800h233l162 -563l360 563h232zM877 1407h252l-321 -279h-197z" />
    <glyph glyph-name="thorn" unicode="&#xfe;" horiz-adv-x="1374" 
d="M438 462q3 -94 66 -171q87 -105 234 -105q148 0 270.5 104.5t149.5 252.5q26 148 -60.5 252t-234.5 104q-147 0 -270 -104q-91 -77 -126 -172zM385 158l-89 -503h-207l343 1945h207l-120 -679q184 190 382 190q236 0 373 -166t96 -402q-42 -235 -237.5 -401.5
t-432.5 -166.5q-198 0 -315 183z" />
    <glyph glyph-name="ydieresis" unicode="&#xff;" horiz-adv-x="1139" 
d="M342 -346h-219l375 575l-242 800h233l162 -563l360 563h232zM728.5 1396q35.5 -42 25.5 -102q-11 -61 -61.5 -103t-109.5 -42q-60 0 -95 42t-24 103q10 60 60 102t110 42q59 0 94.5 -42zM1104.5 1396q35.5 -42 25.5 -102q-11 -61 -61.5 -103t-109.5 -42q-60 0 -95 42
t-24 103q10 60 60 102t110 42q59 0 94.5 -42z" />
    <glyph glyph-name="Amacron" unicode="&#x100;" horiz-adv-x="1376" 
d="M961 773l-71 375l-202 -375h273zM1026 1600l300 -1600h-220l-106 566h-424l-305 -566h-221l864 1600h112zM759 2008h567l-37 -207h-567z" />
    <glyph glyph-name="amacron" unicode="&#x101;" horiz-adv-x="1401" 
d="M1124 466l27 152q-1 97 -65 176q-87 104 -234 104q-148 0 -270.5 -104t-148.5 -252q-26 -147 60 -251.5t234 -104.5q147 0 270 104q92 79 127 176zM1211 957l12 72h208l-181 -1030h-208l23 129q-178 -155 -376 -155q-236 0 -373 166.5t-95 402.5q41 236 237 402.5
t432 166.5q198 0 321 -154zM657 1437h567l-36 -207h-567z" />
    <glyph glyph-name="Abreve" unicode="&#x102;" horiz-adv-x="1376" 
d="M961 773l-71 375l-202 -375h273zM1026 1600l300 -1600h-220l-106 566h-424l-305 -566h-221l864 1600h112zM949 1984q0 -62 13 -77q21 -26 58 -26q36 0 67 27q17 14 38 76h190q-43 -123 -112 -182q-95 -82 -211 -82q-117 0 -184 82q-52 63 -48 182h189z" />
    <glyph glyph-name="abreve" unicode="&#x103;" horiz-adv-x="1401" 
d="M1124 466l27 152q-1 97 -65 176q-87 104 -234 104q-148 0 -270.5 -104t-148.5 -252q-26 -147 60 -251.5t234 -104.5q147 0 270 104q92 79 127 176zM1211 957l12 72h208l-181 -1030h-208l23 129q-178 -155 -376 -155q-236 0 -373 166.5t-95 402.5q41 236 237 402.5
t432 166.5q198 0 321 -154zM848 1413q0 -62 13 -77q21 -26 58 -26q36 0 67 27q17 14 38 76h190q-43 -123 -112 -182q-95 -82 -211 -82q-117 0 -184 82q-52 63 -48 182h189z" />
    <glyph glyph-name="Aogonek" unicode="&#x104;" horiz-adv-x="1376" 
d="M961 773l-71 375l-202 -375h273zM1092 75l-92 491h-424l-305 -566h-221l864 1600h112l300 -1600h-155q-64 -71 -72 -119q-3 -16 1 -29q8 -37 39 -37q37 0 105 51l31 -153q-130 -50 -193 -50q-95 0 -143 66q-38 54 -25 130q3 17 8 35q31 96 170 181z" />
    <glyph glyph-name="aogonek" unicode="&#x105;" horiz-adv-x="1401" 
d="M1124 466l27 152q-1 97 -65 176q-87 104 -234 104q-148 0 -270.5 -104t-148.5 -252q-26 -147 60 -251.5t234 -104.5q147 0 270 104q92 79 127 176zM1053 60l12 68q-178 -155 -376 -155q-236 0 -373 166.5t-95 402.5q41 236 237 402.5t432 166.5q198 0 321 -154l12 72h208
l-181 -1030h-96q-63 -71 -71 -118q-3 -16 1 -29q8 -37 39 -37q37 0 105 51l31 -153q-130 -50 -193 -50q-95 0 -143 66q-38 54 -25 130q3 17 8 35q29 88 147 166z" />
    <glyph glyph-name="Cacute" unicode="&#x106;" horiz-adv-x="1642" 
d="M1455 381l130 -139q-329 -259 -646 -259q-339 0 -536 239t-137 578q59 338 340.5 578t620.5 240q317 0 555 -259l-180 -141q-180 190 -412 190q-251 0 -461 -178t-254 -430q-45 -253 102 -431t398 -178q232 0 480 190zM1243 1978h252l-321 -279h-197z" />
    <glyph glyph-name="cacute" unicode="&#x107;" horiz-adv-x="1262" 
d="M1027 353l194 -74q-94 -105 -134 -139q-197 -167 -433 -167q-235 0 -372.5 167t-95.5 403q41 236 237.5 403t431.5 167q236 0 374 -167q28 -34 86 -137l-221 -76q-31 49 -43 63q-85 104 -233 104q-147 0 -270 -104.5t-149 -252.5q-26 -147 60 -251.5t233 -104.5
q148 0 271 104q16 14 64 62zM940 1407h252l-322 -279h-197z" />
    <glyph glyph-name="Ccircumflex" unicode="&#x108;" horiz-adv-x="1642" 
d="M1455 381l130 -139q-329 -259 -646 -259q-339 0 -536 239t-137 578q59 338 340.5 578t620.5 240q317 0 555 -259l-180 -141q-180 190 -412 190q-251 0 -461 -178t-254 -430q-45 -253 102 -431t398 -178q232 0 480 190zM1232 1749l-78 82l-103 -82h-219l275 238h147
l199 -238h-221z" />
    <glyph glyph-name="ccircumflex" unicode="&#x109;" horiz-adv-x="1262" 
d="M1027 353l194 -74q-94 -105 -134 -139q-197 -167 -433 -167q-235 0 -372.5 167t-95.5 403q41 236 237.5 403t431.5 167q236 0 374 -167q28 -34 86 -137l-221 -76q-31 49 -43 63q-85 104 -233 104q-147 0 -270 -104.5t-149 -252.5q-26 -147 60 -251.5t233 -104.5
q148 0 271 104q16 14 64 62zM928 1178l-77 82l-104 -82h-219l275 238h147l199 -238h-221z" />
    <glyph glyph-name="Cdotaccent" unicode="&#x10a;" horiz-adv-x="1642" 
d="M1455 381l130 -139q-329 -259 -646 -259q-339 0 -536 239t-137 578q59 338 340.5 578t620.5 240q317 0 555 -259l-180 -141q-180 190 -412 190q-251 0 -461 -178t-254 -430q-45 -253 102 -431t398 -178q232 0 480 190zM1274.5 1969q32.5 -38 22.5 -94t-55.5 -94
t-99.5 -38q-55 0 -87.5 38t-22.5 94t55.5 94t100.5 38q54 0 86.5 -38z" />
    <glyph glyph-name="cdotaccent" unicode="&#x10b;" horiz-adv-x="1262" 
d="M1027 353l194 -74q-94 -105 -134 -139q-197 -167 -433 -167q-235 0 -372.5 167t-95.5 403q41 236 237.5 403t431.5 167q236 0 374 -167q28 -34 86 -137l-221 -76q-31 49 -43 63q-85 104 -233 104q-147 0 -270 -104.5t-149 -252.5q-26 -147 60 -251.5t233 -104.5
q148 0 271 104q16 14 64 62zM971 1398q32 -38 22 -94t-55.5 -94t-99.5 -38q-55 0 -87.5 38t-22.5 94t56 94t101 38q54 0 86 -38z" />
    <glyph glyph-name="Ccaron" unicode="&#x10c;" horiz-adv-x="1642" 
d="M1455 381l130 -139q-329 -259 -646 -259q-339 0 -536 239t-137 578q59 338 340.5 578t620.5 240q317 0 555 -259l-180 -141q-180 190 -412 190q-251 0 -461 -178t-254 -430q-45 -253 102 -431t398 -178q232 0 480 190zM1495 1987l-283 -238h-147l-191 238h219l74 -82
l107 82h221z" />
    <glyph glyph-name="ccaron" unicode="&#x10d;" horiz-adv-x="1262" 
d="M1027 353l194 -74q-94 -105 -134 -139q-197 -167 -433 -167q-235 0 -372.5 167t-95.5 403q41 236 237.5 403t431.5 167q236 0 374 -167q28 -34 86 -137l-221 -76q-31 49 -43 63q-85 104 -233 104q-147 0 -270 -104.5t-149 -252.5q-26 -147 60 -251.5t233 -104.5
q148 0 271 104q16 14 64 62zM1191 1416l-283 -238h-147l-191 238h219l75 -82l106 82h221z" />
    <glyph glyph-name="Dcaron" unicode="&#x10e;" horiz-adv-x="1250" 
d="M602 1389l-208 -1179q247 0 433 159q209 178 254 431q44 252 -102 431q-130 158 -377 158zM584 1600q390 -2 569 -221q197 -241 137 -579q-60 -339 -341 -579q-257 -219 -647 -221h-152l282 1600h152zM1310 1987l-283 -238h-147l-191 238h219l75 -82l106 82h221z" />
    <glyph glyph-name="dcaron" unicode="&#x10f;" horiz-adv-x="1619" 
d="M1125 466l27 153q-1 97 -66 176q-85 105 -233 105t-271 -105t-149 -252q-26 -148 60 -252t234 -104t270 104q93 79 128 175zM1212 958l113 642h208l-282 -1600h-208l22 128q-177 -155 -376 -155q-236 0 -373 167t-95 403q41 236 237 403t432 167q199 0 322 -155z
M1601 1363q-34 42 -24 103q11 60 61 102t110 42q59 0 94.5 -42t24.5 -102q-5 -32 -23 -62l-146 -219h-189z" />
    <glyph glyph-name="Dcroat" unicode="&#x110;" horiz-adv-x="1250" 
d="M309 903l123 697h152q390 -2 569 -221q197 -241 137 -579q-60 -339 -341 -579q-257 -219 -647 -221h-152l123 697h-190l36 206h190zM516 903h347l-36 -206h-347l-86 -487q247 0 433 159q210 178 254 431q45 252 -102 431q-130 158 -377 158z" />
    <glyph glyph-name="dcroat" unicode="&#x111;" horiz-adv-x="1401" 
d="M1125 466l27 153q-1 97 -66 176q-85 105 -233 105t-271 -105t-149 -252q-26 -148 60 -252t234 -104t270 104q93 79 128 175zM1467 1225l-216 -1225h-208l22 128q-177 -155 -376 -155q-236 0 -373 167t-95 403q41 236 237 403t432 167q199 0 322 -155l47 267h-466l36 206
h466l30 169h208l-30 -169h170l-36 -206h-170z" />
    <glyph glyph-name="Emacron" unicode="&#x112;" horiz-adv-x="1137" 
d="M1294 1600l-36 -207h-655l-87 -489h655l-36 -207h-655l-86 -489h655l-37 -208h-862l282 1600h862zM652 2008h567l-37 -207h-567z" />
    <glyph glyph-name="emacron" unicode="&#x113;" horiz-adv-x="1262" 
d="M511 233q44 -46 181 -46q148 0 271 104q16 14 64 62l194 -74q-94 -105 -134 -139q-197 -167 -433 -167q-235 0 -372.5 167t-95.5 403q41 236 237.5 403t431.5 167q202 0 333 -122q21 -21 41 -45q8 -10 46 -63l-123 -105zM970 873q-30 27 -152 27q-147 0 -270 -104.5
t-149 -252.5q-22 -121 -1 -157zM601 1437h567l-37 -207h-567z" />
    <glyph glyph-name="Ebreve" unicode="&#x114;" horiz-adv-x="1137" 
d="M1294 1600l-36 -207h-655l-87 -489h655l-36 -207h-655l-86 -489h655l-37 -208h-862l282 1600h862zM842 1984q0 -62 13 -77q21 -26 58 -26q36 0 67 27q17 14 38 76h190q-43 -123 -112 -182q-95 -82 -211 -82q-117 0 -184 82q-52 63 -48 182h189z" />
    <glyph glyph-name="ebreve" unicode="&#x115;" horiz-adv-x="1262" 
d="M511 233q44 -46 181 -46q148 0 271 104q16 14 64 62l194 -74q-94 -105 -134 -139q-197 -167 -433 -167q-235 0 -372.5 167t-95.5 403q41 236 237.5 403t431.5 167q202 0 333 -122q21 -21 41 -45q8 -10 46 -63l-123 -105zM970 873q-30 27 -152 27q-147 0 -270 -104.5
t-149 -252.5q-22 -121 -1 -157zM792 1413q0 -62 12 -77q21 -26 58 -26q36 0 67 27q18 14 39 76h190q-44 -123 -113 -182q-95 -82 -211 -82q-117 0 -184 82q-51 63 -47 182h189z" />
    <glyph glyph-name="Edotaccent" unicode="&#x116;" horiz-adv-x="1137" 
d="M1294 1600l-36 -207h-655l-87 -489h655l-36 -207h-655l-86 -489h655l-37 -208h-862l282 1600h862zM1021.5 1969q32.5 -38 22.5 -94t-55.5 -94t-99.5 -38q-55 0 -87.5 38t-22.5 94t55.5 94t100.5 38q54 0 86.5 -38z" />
    <glyph glyph-name="edotaccent" unicode="&#x117;" horiz-adv-x="1262" 
d="M511 233q44 -46 181 -46q148 0 271 104q16 14 64 62l194 -74q-94 -105 -134 -139q-197 -167 -433 -167q-235 0 -372.5 167t-95.5 403q41 236 237.5 403t431.5 167q202 0 333 -122q21 -21 41 -45q8 -10 46 -63l-123 -105zM970 873q-30 27 -152 27q-147 0 -270 -104.5
t-149 -252.5q-22 -121 -1 -157zM971 1398q32 -38 22 -94t-55.5 -94t-99.5 -38q-55 0 -87.5 38t-22.5 94t56 94t101 38q54 0 86 -38z" />
    <glyph glyph-name="Eogonek" unicode="&#x118;" horiz-adv-x="1137" 
d="M679 0h-529l282 1600h862l-36 -207h-655l-87 -489h655l-36 -207h-655l-86 -489h655l-37 -208h-155q-64 -71 -72 -119q-3 -16 1 -29q8 -37 39 -37q37 0 105 51l31 -153q-130 -50 -193 -50q-95 0 -143 66q-38 54 -25 130q3 17 8 35q18 55 71 106z" />
    <glyph glyph-name="eogonek" unicode="&#x119;" horiz-adv-x="1262" 
d="M970 873q-30 27 -152 27q-147 0 -270 -104.5t-149 -252.5q-22 -121 -1 -157zM728 -23q-37 -4 -74 -4q-235 0 -372.5 167t-95.5 403q41 236 237.5 403t431.5 167q202 0 333 -122q21 -21 41 -45q8 -10 46 -63l-123 -105l-641 -545q44 -46 181 -46q148 0 271 104
q16 14 64 62l194 -74q-94 -105 -134 -139q-35 -30 -71 -54q-148 -132 -161 -206q-3 -16 1 -29q8 -37 39 -37q37 0 105 51l31 -153q-131 -50 -194 -50q-95 0 -142 66q-39 54 -25 130q3 17 8 35q14 43 50 84z" />
    <glyph glyph-name="Ecaron" unicode="&#x11a;" horiz-adv-x="1137" 
d="M1294 1600l-36 -207h-655l-87 -489h655l-36 -207h-655l-86 -489h655l-37 -208h-862l282 1600h862zM1242 1987l-283 -238h-147l-191 238h219l74 -82l107 82h221z" />
    <glyph glyph-name="ecaron" unicode="&#x11b;" horiz-adv-x="1262" 
d="M511 233q44 -46 181 -46q148 0 271 104q16 14 64 62l194 -74q-94 -105 -134 -139q-197 -167 -433 -167q-235 0 -372.5 167t-95.5 403q41 236 237.5 403t431.5 167q202 0 333 -122q21 -21 41 -45q8 -10 46 -63l-123 -105zM970 873q-30 27 -152 27q-147 0 -270 -104.5
t-149 -252.5q-22 -121 -1 -157zM1191 1416l-283 -238h-147l-191 238h219l75 -82l106 82h221z" />
    <glyph glyph-name="Gcircumflex" unicode="&#x11c;" horiz-adv-x="1668" 
d="M1545 219q-288 -236 -606 -236q-339 0 -536 239t-137 578q59 338 340.5 578t620.5 240q317 0 555 -259l-180 -141q-180 190 -412 190q-251 0 -461 -178t-254 -430q-45 -253 102 -431t398 -178q216 0 378 114l86 483h207zM1232 1749l-78 82l-103 -82h-219l275 238h147
l199 -238h-221z" />
    <glyph glyph-name="gcircumflex" unicode="&#x11d;" horiz-adv-x="1405" 
d="M1152 623q-3 95 -66 172q-86 105 -234 105t-271 -105t-148 -252q-27 -148 59.5 -252.5t234.5 -104.5t270 104q90 77 126 170zM1212 958l12 71h208l-135 -765q-53 -300 -244 -463q-193 -147 -429 -147t-377 147q-28 34 -85 138l219 74q32 -48 43 -62q87 -104 234 -104
q247 0 399 324q-130 -188 -366 -188t-374 162t-96 398q41 236 237 402.5t432 166.5q199 0 322 -154zM985 1178l-78 82l-103 -82h-219l275 238h147l199 -238h-221z" />
    <glyph glyph-name="Gbreve" unicode="&#x11e;" horiz-adv-x="1668" 
d="M1545 219q-288 -236 -606 -236q-339 0 -536 239t-137 578q59 338 340.5 578t620.5 240q317 0 555 -259l-180 -141q-180 190 -412 190q-251 0 -461 -178t-254 -430q-45 -253 102 -431t398 -178q216 0 378 114l86 483h207zM1095 1984q0 -62 12 -77q22 -26 59 -26
q36 0 67 27q17 14 38 76h190q-44 -123 -112 -182q-96 -82 -212 -82q-117 0 -183 82q-52 63 -48 182h189z" />
    <glyph glyph-name="gbreve" unicode="&#x11f;" horiz-adv-x="1405" 
d="M1152 623q-3 95 -66 172q-86 105 -234 105t-271 -105t-148 -252q-27 -148 59.5 -252.5t234.5 -104.5t270 104q90 77 126 170zM1212 958l12 71h208l-135 -765q-53 -300 -244 -463q-193 -147 -429 -147t-377 147q-28 34 -85 138l219 74q32 -48 43 -62q87 -104 234 -104
q247 0 399 324q-130 -188 -366 -188t-374 162t-96 398q41 236 237 402.5t432 166.5q199 0 322 -154zM848 1413q0 -62 13 -77q21 -26 58 -26q36 0 67 27q17 14 38 76h190q-43 -123 -112 -182q-95 -82 -211 -82q-117 0 -184 82q-52 63 -48 182h189z" />
    <glyph glyph-name="Gdotaccent" unicode="&#x120;" horiz-adv-x="1668" 
d="M1545 219q-288 -236 -606 -236q-339 0 -536 239t-137 578q59 338 340.5 578t620.5 240q317 0 555 -259l-180 -141q-180 190 -412 190q-251 0 -461 -178t-254 -430q-45 -253 102 -431t398 -178q216 0 378 114l86 483h207zM1274.5 1969q32.5 -38 22.5 -94t-55.5 -94
t-99.5 -38q-55 0 -87.5 38t-22.5 94t55.5 94t100.5 38q54 0 86.5 -38z" />
    <glyph glyph-name="gdotaccent" unicode="&#x121;" horiz-adv-x="1405" 
d="M1152 623q-3 95 -66 172q-86 105 -234 105t-271 -105t-148 -252q-27 -148 59.5 -252.5t234.5 -104.5t270 104q90 77 126 170zM1212 958l12 71h208l-135 -765q-53 -300 -244 -463q-193 -147 -429 -147t-377 147q-28 34 -85 138l219 74q32 -48 43 -62q87 -104 234 -104
q247 0 399 324q-130 -188 -366 -188t-374 162t-96 398q41 236 237 402.5t432 166.5q199 0 322 -154zM1027.5 1398q32.5 -38 22.5 -94t-55.5 -94t-99.5 -38q-55 0 -87.5 38t-22.5 94t55.5 94t100.5 38q54 0 86.5 -38z" />
    <glyph glyph-name="Gcommaaccent" unicode="&#x122;" horiz-adv-x="1668" 
d="M779 -2q-228 44 -376 224q-197 239 -137 578q59 338 340.5 578t620.5 240q317 0 555 -259l-180 -141q-180 190 -412 190q-251 0 -461 -178t-254 -430q-45 -253 102 -431t398 -178q216 0 378 114l86 483h207l-101 -569q-288 -236 -606 -236h-19l-15 -27q67 -38 79 -89
q2 -14 3 -27q0 -13 -2 -26q-8 -43 -45 -81q-60 -59 -157 -73q-20 -3 -45 -3q-58 0 -146 15l57 126q53 -26 89 -26q6 0 11 1q31 4 46 35q4 7 6 15v8q-1 28 -82 56z" />
    <glyph glyph-name="gcommaaccent" unicode="&#x123;" horiz-adv-x="1405" 
d="M1152 623q-3 95 -66 172q-86 105 -234 105t-271 -105t-148 -252q-27 -148 59.5 -252.5t234.5 -104.5t270 104q90 77 126 170zM1212 958l12 71h208l-135 -765q-53 -300 -244 -463q-193 -147 -429 -147t-377 147q-28 34 -85 138l219 74q32 -48 43 -62q87 -104 234 -104
q247 0 399 324q-130 -188 -366 -188t-374 162t-96 398q41 236 237 402.5t432 166.5q199 0 322 -154zM1040 1432q35 -42 24 -103q-10 -60 -60 -102t-110 -42q-59 0 -94.5 42t-25.5 102q6 32 23 62l147 219h189z" />
    <glyph glyph-name="Hcircumflex" unicode="&#x124;" horiz-adv-x="1208" 
d="M474 662l-117 -662h-207l282 1600h207l-129 -731h494l129 731h207l-282 -1600h-207l117 662h-494zM1002 1749l-78 82l-103 -82h-219l275 238h147l199 -238h-221z" />
    <glyph glyph-name="hcircumflex" unicode="&#x125;" horiz-adv-x="1125" 
d="M432 1600h208l-120 -682q116 167 281 167t243 -118.5t49 -297.5l-118 -669h-207l117 661q15 89 -24 152.5t-148 63.5q-129 0 -225 -138l-130 -739h-208zM1002 1749l-78 82l-103 -82h-219l275 238h147l199 -238h-221z" />
    <glyph glyph-name="Hbar" unicode="&#x126;" horiz-adv-x="1208" 
d="M1269 1194l-211 -1194h-207l117 662h-494l-117 -662h-207l211 1194h-138l36 206h138l35 200h207l-35 -200h494l35 200h207l-35 -200h138l-36 -206h-138zM568 1194l-58 -325h494l58 325h-494z" />
    <glyph glyph-name="hbar" unicode="&#x127;" horiz-adv-x="1125" 
d="M402 1431l30 169h208l-30 -169h446l-36 -206h-446l-54 -307q116 167 281 167t243 -118.5t49 -297.5l-118 -669h-207l117 661q15 89 -24 152.5t-148 63.5q-129 0 -225 -138l-130 -739h-208l216 1225h-140l36 206h140z" />
    <glyph glyph-name="Itilde" unicode="&#x128;" 
d="M659 1600l-282 -1600h-207l282 1600h207zM719 1888v-1q30 0 37 39q4 26 -1 69h186q-77 -220 -192 -252q-29 -8 -57 -8q-74 0 -123.5 57t-77.5 57h-4q-30 -2 -37 -39q-4 -25 3 -66h-187q77 220 193 252q29 8 57 8q73 0 125 -58t78 -58z" />
    <glyph glyph-name="itilde" unicode="&#x129;" 
d="M559 1030l-182 -1030h-207l182 1030h207zM618 1317v-1q30 0 37 39q5 26 -1 69h186q-77 -220 -191 -252q-30 -8 -58 -8q-74 0 -123 57t-77 57h-4q-31 -2 -37 -39q-5 -25 2 -66h-187q78 220 193 252q30 8 58 8q73 0 124.5 -58t77.5 -58z" />
    <glyph glyph-name="Imacron" unicode="&#x12a;" 
d="M659 1600l-282 -1600h-207l282 1600h207zM344 2008h567l-36 -207h-567z" />
    <glyph glyph-name="imacron" unicode="&#x12b;" 
d="M559 1030l-182 -1030h-207l182 1030h207zM243 1437h567l-36 -207h-567z" />
    <glyph glyph-name="Ibreve" unicode="&#x12c;" 
d="M659 1600l-282 -1600h-207l282 1600h207zM535 1984q0 -62 12 -77q22 -26 59 -26q36 0 66 27q18 14 39 76h190q-44 -123 -112 -182q-96 -82 -212 -82q-117 0 -183 82q-52 63 -48 182h189z" />
    <glyph glyph-name="ibreve" unicode="&#x12d;" 
d="M559 1030l-182 -1030h-207l182 1030h207zM434 1413q0 -62 13 -77q21 -26 58 -26q36 0 67 27q17 14 38 76h190q-44 -123 -112 -182q-95 -82 -211 -82q-117 0 -184 82q-52 63 -48 182h189z" />
    <glyph glyph-name="Iogonek" unicode="&#x12e;" 
d="M188 100l264 1500h207l-282 -1600h-154q-64 -71 -73 -119q-3 -16 1 -29q9 -37 40 -37q37 0 105 51l31 -153q-131 -50 -194 -50q-95 0 -143 66q-38 54 -25 130q3 17 9 35q35 111 214 206z" />
    <glyph glyph-name="iogonek" unicode="&#x12f;" horiz-adv-x="541" 
d="M621.5 1410q35.5 -42 25.5 -103q-11 -61 -61.5 -103t-110.5 -42q-59 0 -94.5 42t-24.5 103q10 61 60.5 103t109.5 42q60 0 95.5 -42zM180 73l169 956h207l-182 -1029h-112q-64 -71 -73 -119q-3 -16 1 -29q9 -37 40 -37q37 0 105 51l31 -153q-131 -50 -194 -50
q-95 0 -143 66q-38 54 -25 130q3 17 9 35q30 95 167 179z" />
    <glyph glyph-name="dotlessi" unicode="&#x131;" 
d="M559 1030l-182 -1030h-207l182 1030h207z" />
    <glyph glyph-name="IJ" unicode="&#x132;" horiz-adv-x="1485" 
d="M659 1600l-282 -1600h-207l282 1600h207zM1389 343q-29 -166 -136 -258q-114 -98 -252 -98q-137 0 -216.5 97.5t-50.5 259.5l175 64q1 -152 38 -187q27 -27 81 -27h4q57 1 101 37q35 31 51 121l220 1248h207z" />
    <glyph glyph-name="ij" unicode="&#x133;" horiz-adv-x="1102" 
d="M555 1029l-181 -1029h-207l181 1029h207zM621.5 1410q35.5 -42 24.5 -103q-10 -61 -60.5 -103t-110.5 -42q-59 0 -94.5 42t-25.5 103q11 61 61.5 103t109.5 42q60 0 95.5 -42zM588 -10q114 12 125 70l170 969h207l-170 -967q-45 -253 -368 -278zM1156.5 1410
q35.5 -42 24.5 -103q-10 -61 -60.5 -103t-110.5 -42q-59 0 -94.5 42t-25.5 103q11 61 61.5 103t109.5 42q60 0 95.5 -42z" />
    <glyph glyph-name="Jcircumflex" unicode="&#x134;" horiz-adv-x="937" 
d="M841 343q-29 -166 -136 -258q-114 -98 -252 -98q-137 0 -216.5 97.5t-50.5 259.5l175 64q1 -152 38 -187q27 -27 81 -27h4q57 1 101 37q35 31 51 121l220 1248h207zM1051 1749l-78 82l-103 -82h-219l275 238h147l199 -238h-221z" />
    <glyph glyph-name="jcircumflex" unicode="&#x135;" horiz-adv-x="685" 
d="M148 -10q114 12 125 70l171 969h207l-171 -967q-45 -253 -368 -278zM645 1149l-77 82l-104 -82h-219l275 238h147l199 -238h-221z" />
    <glyph glyph-name="Kcommaaccent" unicode="&#x136;" horiz-adv-x="1206" 
d="M490 755l-133 -755h-207l282 1600h207l-89 -504l467 504h262l-607 -658l445 -942h-251l-359 772zM673 17l-34 -61q68 -38 80 -89q1 -14 2 -27q0 -13 -2 -26q-7 -43 -45 -81q-59 -59 -157 -73q-19 -3 -44 -3q-58 0 -147 15l57 126q53 -26 89 -26q6 0 11 1q32 4 46 35
q4 7 6 15v8q-1 28 -82 56l71 130h149z" />
    <glyph glyph-name="kcommaaccent" unicode="&#x137;" horiz-adv-x="944" 
d="M966 1029l-339 -344l267 -685h-247l-190 513l-10 -11l-89 -502h-208l250 1415h208l-103 -582l194 196h267zM627 17l-34 -61q68 -38 80 -89q1 -14 2 -27q0 -13 -2 -26q-7 -43 -45 -81q-59 -59 -157 -73q-19 -3 -44 -3q-58 0 -147 15l57 126q53 -26 89 -26q6 0 11 1
q32 4 46 35q4 7 6 15v8q-1 28 -82 56l71 130h149z" />
    <glyph glyph-name="kgreenlandic" unicode="&#x138;" horiz-adv-x="943" 
d="M966 1030l-339 -345l266 -685h-247l-189 514l-11 -11l-89 -503h-207l182 1030h207l-35 -197l195 197h267z" />
    <glyph glyph-name="Lacute" unicode="&#x139;" horiz-adv-x="1019" 
d="M150 0l282 1600h207l-245 -1392h572l-37 -208h-779zM941 1937h190l-254 -279h-148z" />
    <glyph glyph-name="lacute" unicode="&#x13a;" horiz-adv-x="508" 
d="M641 1601l-282 -1601h-208l282 1601h208zM642 1937h189l-253 -279h-148z" />
    <glyph glyph-name="Lcommaaccent" unicode="&#x13b;" horiz-adv-x="1019" 
d="M487 0h-337l282 1600h207l-245 -1392h572l-37 -208h-293l-25 -44q68 -38 80 -89q1 -14 2 -27q0 -13 -2 -26q-7 -43 -45 -81q-59 -59 -157 -73q-19 -3 -44 -3q-58 0 -147 15l57 126q53 -26 89 -26q6 0 11 1q32 4 46 35q4 7 6 15v8q-1 28 -82 56z" />
    <glyph glyph-name="lcommaaccent" unicode="&#x13c;" horiz-adv-x="508" 
d="M187 0h-36l282 1601h208l-282 -1601h-24l-24 -44q67 -38 79 -89q2 -14 3 -27q0 -13 -2 -26q-8 -43 -45 -81q-60 -59 -157 -73q-20 -3 -45 -3q-58 0 -146 15l57 126q53 -26 89 -26q6 0 11 1q32 4 46 35q4 7 6 15v8q-1 28 -82 56z" />
    <glyph glyph-name="Lcaron" unicode="&#x13d;" horiz-adv-x="956" 
d="M127 0l282 1600h208l-245 -1392h562l-37 -208h-770zM851 1363q-34 42 -24 103q11 60 61 102t110 42q59 0 94.5 -42t24.5 -102q-5 -32 -22 -62l-147 -219h-189z" />
    <glyph glyph-name="lcaron" unicode="&#x13e;" horiz-adv-x="679" 
d="M617 1600l-282 -1600h-208l282 1600h208zM651 1363q-34 42 -24 103q11 60 61 102t110 42q59 0 94.5 -42t24.5 -102q-5 -32 -22 -62l-147 -219h-189z" />
    <glyph glyph-name="Ldot" unicode="&#x13f;" horiz-adv-x="956" 
d="M127 0l282 1600h208l-245 -1392h562l-37 -208h-770zM973.5 893.5q32.5 -38.5 22.5 -93.5t-55.5 -93.5t-99.5 -38.5t-87 38.5t-23 93.5t56 93.5t100 38.5t86.5 -38.5z" />
    <glyph glyph-name="ldot" unicode="&#x140;" horiz-adv-x="595" 
d="M602 1600l-282 -1600h-208l282 1600h208zM763 893.5q33 -38.5 23 -93.5t-56 -93.5t-99 -38.5q-55 0 -87.5 38.5t-22.5 93.5t55.5 93.5t100.5 38.5q53 0 86 -38.5z" />
    <glyph glyph-name="Lslash" unicode="&#x141;" horiz-adv-x="1038" 
d="M581 919l479 341l-46 -258l-479 -341l-80 -453h562l-36 -208h-770l86 491l-241 -171l45 258l242 171l150 851h208z" />
    <glyph glyph-name="lslash" unicode="&#x142;" horiz-adv-x="517" 
d="M301 835l135 765h208l-105 -596l177 126l-46 -258l-177 -127l-131 -745h-208l101 576l-176 -126l45 258z" />
    <glyph glyph-name="Nacute" unicode="&#x143;" horiz-adv-x="1357" 
d="M432 1600h189l459 -1142l201 1142h208l-282 -1600h-181l-465 1156l-204 -1156h-207zM1088 1978h252l-321 -279h-197z" />
    <glyph glyph-name="nacute" unicode="&#x144;" horiz-adv-x="1139" 
d="M491 753l-133 -753h-208l181 1029h208l-21 -120q96 176 292 176q167 0 245 -118.5t49 -297.5l-118 -669h-207l117 661q15 89 -38.5 152.5t-143.5 63.5q-89 0 -165 -62q-43 -37 -58 -62zM877 1407h252l-321 -279h-197z" />
    <glyph glyph-name="Ncommaaccent" unicode="&#x145;" horiz-adv-x="1357" 
d="M432 1600h189l459 -1142l201 1142h208l-282 -1600h-181l-465 1156l-204 -1156h-207zM783 17l-33 -61q67 -38 79 -89q2 -14 2 -27q1 -13 -1 -26q-8 -43 -46 -81q-59 -59 -156 -73q-20 -3 -45 -3q-58 0 -146 15l57 126q52 -26 88 -26q6 0 11 1q32 4 47 35q4 7 5 15q1 4 1 8
q-1 28 -82 56l70 130h149z" />
    <glyph glyph-name="ncommaaccent" unicode="&#x146;" horiz-adv-x="1139" 
d="M491 753l-133 -753h-208l181 1029h208l-21 -120q96 176 292 176q167 0 245 -118.5t49 -297.5l-118 -669h-207l117 661q15 89 -38.5 152.5t-143.5 63.5q-89 0 -165 -62q-43 -37 -58 -62zM673 17l-34 -61q68 -38 80 -89q1 -14 2 -27q0 -13 -2 -26q-7 -43 -45 -81
q-59 -59 -157 -73q-19 -3 -44 -3q-58 0 -147 15l57 126q53 -26 89 -26q6 0 11 1q32 4 46 35q4 7 6 15v8q-1 28 -82 56l71 130h149z" />
    <glyph glyph-name="Ncaron" unicode="&#x147;" horiz-adv-x="1357" 
d="M432 1600h189l459 -1142l201 1142h208l-282 -1600h-181l-465 1156l-204 -1156h-207zM1339 1987l-283 -238h-147l-191 238h219l75 -82l106 82h221z" />
    <glyph glyph-name="ncaron" unicode="&#x148;" horiz-adv-x="1139" 
d="M491 753l-133 -753h-208l181 1029h208l-21 -120q96 176 292 176q167 0 245 -118.5t49 -297.5l-118 -669h-207l117 661q15 89 -38.5 152.5t-143.5 63.5q-89 0 -165 -62q-43 -37 -58 -62zM1128 1416l-283 -238h-147l-191 238h219l75 -82l106 82h221z" />
    <glyph glyph-name="napostrophe" unicode="&#x149;" horiz-adv-x="1139" 
d="M491 753l-133 -753h-208l181 1029h208l-21 -120q96 176 292 176q167 0 245 -118.5t49 -297.5l-118 -669h-207l117 661q15 89 -38.5 152.5t-143.5 63.5q-89 0 -165 -62q-43 -37 -58 -62zM151 1363q-34 42 -23 103q10 60 60 102t110 42q59 0 94.5 -42t25.5 -102
q-6 -32 -23 -62l-147 -219h-189z" />
    <glyph glyph-name="Eng" unicode="&#x14a;" horiz-adv-x="1357" 
d="M1008 45l-447 1111l-204 -1156h-207l282 1600h189l458 -1141l94 536h1l107 605h208l-282 -1600h-4q-49 -232 -272 -333l-90 122q142 111 163 226q3 20 4 30z" />
    <glyph glyph-name="eng" unicode="&#x14b;" horiz-adv-x="1136" 
d="M888 626l7 35q15 89 -38.5 152.5t-142.5 63.5t-165 -62q-44 -37 -59 -62l-133 -753h-207l182 1030h207l-22 -121q87 176 273 176q146 0 244 -118.5t69 -297.5l-118 -669h-5q-52 -200 -263 -338l-104 127q126 78 169 239l105 598h1z" />
    <glyph glyph-name="Omacron" unicode="&#x14c;" horiz-adv-x="1889" 
d="M1767 1381q198 -240 138 -579t-342.5 -579t-621.5 -240t-536.5 240t-137.5 579t342 579t621 240t537 -240zM1193 1412q-253 0 -463 -178.5t-254 -431.5q-45 -253 102.5 -432t399.5 -179q253 0 463 179t255 432q44 253 -103 431.5t-400 178.5zM1015 2008h567l-37 -207
h-567z" />
    <glyph glyph-name="omacron" unicode="&#x14d;" horiz-adv-x="1318" 
d="M855 1113q236 0 373 -167t96 -403q-42 -236 -238 -403t-432 -167q-235 0 -372.5 167t-95.5 403q41 236 237.5 403t431.5 167zM547 795q-123 -105 -149 -252q-26 -148 60 -252t234 -104t271 104t149 252q26 147 -60 252t-234 105t-271 -105zM629 1437h567l-37 -207h-567z
" />
    <glyph glyph-name="Obreve" unicode="&#x14e;" horiz-adv-x="1889" 
d="M1767 1381q198 -240 138 -579t-342.5 -579t-621.5 -240t-536.5 240t-137.5 579t342 579t621 240t537 -240zM1193 1412q-253 0 -463 -178.5t-254 -431.5q-45 -253 102.5 -432t399.5 -179q253 0 463 179t255 432q44 253 -103 431.5t-400 178.5zM1206 1984q0 -62 12 -77
q22 -26 59 -26q36 0 66 27q18 14 39 76h190q-44 -123 -112 -182q-96 -82 -212 -82q-117 0 -183 82q-52 63 -48 182h189z" />
    <glyph glyph-name="obreve" unicode="&#x14f;" horiz-adv-x="1318" 
d="M855 1113q236 0 373 -167t96 -403q-42 -236 -238 -403t-432 -167q-235 0 -372.5 167t-95.5 403q41 236 237.5 403t431.5 167zM547 795q-123 -105 -149 -252q-26 -148 60 -252t234 -104t271 104t149 252q26 147 -60 252t-234 105t-271 -105zM820 1413q0 -62 12 -77
q21 -26 58 -26q36 0 67 27q18 14 39 76h190q-44 -123 -113 -182q-95 -82 -211 -82q-117 0 -184 82q-51 63 -47 182h189z" />
    <glyph glyph-name="Ohungarumlaut" unicode="&#x150;" horiz-adv-x="1889" 
d="M1767 1381q198 -240 138 -579t-342.5 -579t-621.5 -240t-536.5 240t-137.5 579t342 579t621 240t537 -240zM1193 1412q-253 0 -463 -178.5t-254 -431.5q-45 -253 102.5 -432t399.5 -179q253 0 463 179t255 432q44 253 -103 431.5t-400 178.5zM1320 2003l-269 -271h-185
l139 271h315zM1681 2003l-269 -271h-185l139 271h315z" />
    <glyph glyph-name="ohungarumlaut" unicode="&#x151;" horiz-adv-x="1318" 
d="M855 1113q236 0 373 -167t96 -403q-42 -236 -238 -403t-432 -167q-235 0 -372.5 167t-95.5 403q41 236 237.5 403t431.5 167zM547 795q-123 -105 -149 -252q-26 -148 60 -252t234 -104t271 104t149 252q26 147 -60 252t-234 105t-271 -105zM934 1432l-269 -271h-185
l139 271h315zM1295 1432l-269 -271h-185l139 271h315z" />
    <glyph glyph-name="OE" unicode="&#x152;" horiz-adv-x="2258" 
d="M1734 1393q183 -237 151 -489h407l-37 -207h-408q-57 -251 -324 -489h646l-37 -208h-979q-115 -17 -247 -17q-339 0 -536.5 240t-137.5 579t342 579t621 240q133 0 241 -21h978l-36 -207h-644zM1666 839q30 228 -107 395q-54 65 -121 106q-34 20 -69 35q-94 37 -211 37
q-253 0 -463 -178.5t-254 -431.5q-45 -253 102.5 -432t399.5 -179q117 0 224 37q40 15 81 36q81 40 159 106q193 165 246 392q4 19 8 40q3 19 5 37z" />
    <glyph glyph-name="oe" unicode="&#x153;" horiz-adv-x="2184" 
d="M1329 582q-2 -19 -5 -39q-5 -24 -11 -48q-9 -81 7 -109l572 487q-30 27 -152 27q-147 0 -270 -104q-107 -91 -141 -214zM1101 498q3 22 7 45q4 22 9 44q7 119 -65 208q-86 105 -234 105t-271 -105t-149 -252q-26 -148 60 -252t234 -104t271 104q104 88 138 207zM1157 208
q-33 -35 -71 -68q-196 -167 -432 -167q-235 0 -372.5 167t-95.5 403q41 236 237.5 403t431.5 167q236 0 373 -167q27 -33 47 -68q32 35 71 68q196 167 431 167q202 0 333 -122q21 -21 41 -45q8 -10 46 -63l-123 -105l-641 -545q44 -46 181 -46q148 0 271 104q16 14 64 62
l194 -74q-94 -105 -134 -139q-197 -167 -433 -167q-235 0 -372 167q-27 33 -47 68z" />
    <glyph glyph-name="Racute" unicode="&#x154;" horiz-adv-x="1171" 
d="M602 1392l-118 -672h189q138 0 254 98.5t140 238.5q25 139 -56.5 237t-219.5 98h-189zM636 512h-189l-90 -512h-207l282 1600h454q189 -26 298 -159q131 -160 91 -384q-39 -226 -227 -386q-129 -110 -190 -124l259 -547h-251zM1043 1978h252l-321 -279h-197z" />
    <glyph glyph-name="racute" unicode="&#x155;" horiz-adv-x="693" 
d="M514 890q144 157 314 165l-38 -215q-114 -6 -193 -73q-118 -100 -147 -238l-93 -529h-207l181 1029h207zM705 1407h252l-321 -279h-197z" />
    <glyph glyph-name="Rcommaaccent" unicode="&#x156;" horiz-adv-x="1171" 
d="M602 1392l-118 -672h189q138 0 254 98.5t140 238.5q25 139 -56.5 237t-219.5 98h-189zM636 512h-189l-90 -512h-207l282 1600h454q189 -26 298 -159q131 -160 91 -384q-39 -226 -227 -386q-129 -110 -190 -124l259 -547h-251zM729 -133q2 -14 2 -27q1 -13 -1 -26
q-8 -43 -46 -81q-59 -59 -156 -73q-20 -3 -45 -3q-58 0 -146 15l57 126q52 -26 88 -26q6 0 11 1q32 4 47 35q4 7 5 15q1 4 1 8q-1 28 -82 56l70 130q180 -59 195 -150z" />
    <glyph glyph-name="rcommaaccent" unicode="&#x157;" horiz-adv-x="693" 
d="M515 890q144 157 314 165l-38 -215q-114 -6 -193 -73q-118 -100 -147 -238l-93 -529h-207l181 1029h207zM580 -133q1 -14 2 -27q0 -13 -2 -26q-7 -43 -45 -81q-59 -59 -157 -73q-19 -3 -44 -3q-58 0 -147 15l57 126q53 -26 89 -26q6 0 11 1q32 4 46 35q4 7 6 15v8
q-1 28 -82 56l71 130q180 -59 195 -150z" />
    <glyph glyph-name="Rcaron" unicode="&#x158;" horiz-adv-x="1171" 
d="M602 1392l-118 -672h189q138 0 254 98.5t140 238.5q25 139 -56.5 237t-219.5 98h-189zM636 512h-189l-90 -512h-207l282 1600h454q189 -26 298 -159q131 -160 91 -384q-39 -226 -227 -386q-129 -110 -190 -124l259 -547h-251zM1294 1987l-283 -238h-147l-191 238h219
l75 -82l106 82h221z" />
    <glyph glyph-name="rcaron" unicode="&#x159;" horiz-adv-x="693" 
d="M515 890q144 157 314 165l-38 -215q-114 -6 -193 -73q-118 -100 -147 -238l-93 -529h-207l181 1029h207zM957 1416l-283 -238h-147l-191 238h219l75 -82l106 82h221z" />
    <glyph glyph-name="Sacute" unicode="&#x15a;" horiz-adv-x="1101" 
d="M702 821q-160 57 -247 162.5t-59 261.5q27 153 156 263t285 110q154 0 245 -109q51 -60 70 -191l-201 -74q-18 92 -41 120q-41 48 -110 48q-70 0 -127.5 -48.5t-69.5 -118.5t28 -119q45 -54 135 -99q177 -61 285 -192q121 -145 85 -352q-37 -207 -209.5 -353.5
t-378.5 -146.5q-207 0 -327 147q-96 117 -91 323l214 73q-12 -177 49 -251q71 -86 192 -86t222 86t123 208q21 121 -50 207q-67 82 -178 131zM960 1978h252l-321 -279h-197z" />
    <glyph glyph-name="sacute" unicode="&#x15b;" horiz-adv-x="882" 
d="M397 221q31 -36 82 -36t94 36t52 89q9 51 -21 87q-20 25 -93 77q-101 61 -140 108q-68 82 -47 197q20 116 116.5 198.5t212.5 82.5t179 -78q46 -55 49 -123l-211 -58q-3 25 -9 33q-14 18 -44 18t-55.5 -21.5t-30.5 -51.5q-6 -30 12 -51q16 -18 75 -61q112 -68 158 -124
q80 -98 56 -233q-24 -138 -138 -235.5t-252 -97.5q-137 0 -216 98q-56 67 -59 167l214 44q1 -46 16 -65zM760 1407h252l-322 -279h-197z" />
    <glyph glyph-name="Scircumflex" unicode="&#x15c;" horiz-adv-x="1101" 
d="M702 821q-160 57 -247 162.5t-59 261.5q27 153 156 263t285 110q154 0 245 -109q51 -60 70 -191l-201 -74q-18 92 -41 120q-41 48 -110 48q-70 0 -127.5 -48.5t-69.5 -118.5t28 -119q45 -54 135 -99q177 -61 285 -192q121 -145 85 -352q-37 -207 -209.5 -353.5
t-378.5 -146.5q-207 0 -327 147q-96 117 -91 323l214 73q-12 -177 49 -251q71 -86 192 -86t222 86t123 208q21 121 -50 207q-67 82 -178 131zM948 1749l-77 82l-104 -82h-219l275 238h147l199 -238h-221z" />
    <glyph glyph-name="scircumflex" unicode="&#x15d;" horiz-adv-x="882" 
d="M397 221q31 -36 82 -36t94 36t52 89q9 51 -21 87q-20 25 -93 77q-101 61 -140 108q-68 82 -47 197q20 116 116.5 198.5t212.5 82.5t179 -78q46 -55 49 -123l-211 -58q-3 25 -9 33q-14 18 -44 18t-55.5 -21.5t-30.5 -51.5q-6 -30 12 -51q16 -18 75 -61q112 -68 158 -124
q80 -98 56 -233q-24 -138 -138 -235.5t-252 -97.5q-137 0 -216 98q-56 67 -59 167l214 44q1 -46 16 -65zM748 1178l-77 82l-104 -82h-219l275 238h147l199 -238h-221z" />
    <glyph glyph-name="Scedilla" unicode="&#x15e;" horiz-adv-x="1101" 
d="M490 -14q-166 19 -269 144q-96 117 -91 323l214 73q-12 -177 49 -251q71 -86 192 -86t222 86t123 208q21 121 -50 207q-67 82 -178 131q-160 57 -247 162.5t-59 261.5q27 153 156 263t285 110q154 0 245 -109q51 -60 70 -191l-201 -74q-18 92 -41 120q-41 48 -110 48
q-70 0 -127.5 -48.5t-69.5 -118.5t28 -119q45 -54 135 -99q177 -61 285 -192q121 -145 85 -352q-37 -207 -209 -353q-133 -114 -286 -139l-19 -35q67 -38 79 -89q2 -14 2 -27q1 -13 -1 -26q-8 -43 -46 -81q-59 -59 -157 -73q-19 -3 -44 -3q-58 0 -146 15l57 126
q52 -26 88 -26q6 0 11 1q32 4 47 35q4 7 5 15q1 4 1 8q-1 28 -82 56z" />
    <glyph glyph-name="scedilla" unicode="&#x15f;" horiz-adv-x="882" 
d="M388 -19q-99 16 -162 94q-56 67 -59 167l214 44q1 -46 16 -65q31 -36 82 -36t94 36t52 89q9 51 -21 87q-20 25 -93 77q-101 61 -140 108q-68 82 -47 197q20 116 116.5 198.5t212.5 82.5t179 -78q46 -55 49 -123l-211 -58q-3 25 -9 33q-14 18 -44 18t-55.5 -21.5
t-30.5 -51.5q-6 -30 12 -51q16 -18 75 -61q112 -68 158 -124q80 -98 56 -233q-24 -138 -138 -235q-71 -62 -152 -84l-19 -35q67 -38 79 -89q1 -14 2 -27t-1 -26q-8 -43 -46 -81q-59 -59 -157 -73q-19 -3 -44 -3q-58 0 -147 15l58 126q52 -26 88 -26q6 0 11 1q32 4 46 35
q5 7 6 15q1 4 1 8q-2 28 -83 56z" />
    <glyph glyph-name="Scaron" unicode="&#x160;" horiz-adv-x="1101" 
d="M702 821q-160 57 -247 162.5t-59 261.5q27 153 156 263t285 110q154 0 245 -109q51 -60 70 -191l-201 -74q-18 92 -41 120q-41 48 -110 48q-70 0 -127.5 -48.5t-69.5 -118.5t28 -119q45 -54 135 -99q177 -61 285 -192q121 -145 85 -352q-37 -207 -209.5 -353.5
t-378.5 -146.5q-207 0 -327 147q-96 117 -91 323l214 73q-12 -177 49 -251q71 -86 192 -86t222 86t123 208q21 121 -50 207q-67 82 -178 131zM1211 1987l-283 -238h-147l-191 238h219l75 -82l106 82h221z" />
    <glyph glyph-name="scaron" unicode="&#x161;" horiz-adv-x="882" 
d="M397 221q31 -36 82 -36t94 36t52 89q9 51 -21 87q-20 25 -93 77q-101 61 -140 108q-68 82 -47 197q20 116 116.5 198.5t212.5 82.5t179 -78q46 -55 49 -123l-211 -58q-3 25 -9 33q-14 18 -44 18t-55.5 -21.5t-30.5 -51.5q-6 -30 12 -51q16 -18 75 -61q112 -68 158 -124
q80 -98 56 -233q-24 -138 -138 -235.5t-252 -97.5q-137 0 -216 98q-56 67 -59 167l214 44q1 -46 16 -65zM1011 1416l-283 -238h-147l-191 238h219l75 -82l106 82h221z" />
    <glyph glyph-name="Tcommaaccent" unicode="&#x162;" horiz-adv-x="1054" 
d="M474 0h-51l245 1393h-373l37 207h954l-37 -207h-373l-245 -1393h-9l-24 -44q67 -38 79 -89q2 -14 3 -27q0 -13 -2 -26q-8 -43 -45 -81q-60 -59 -157 -73q-20 -3 -45 -3q-58 0 -146 15l57 126q53 -26 89 -26q6 0 11 1q32 4 46 35q4 7 6 15v8q-1 28 -82 56z" />
    <glyph glyph-name="tcommaaccent" unicode="&#x163;" horiz-adv-x="758" 
d="M326 0h-51l145 822h-185l36 207h185l68 386h207l-68 -386h185l-36 -207h-185l-145 -822h-8l-24 -44q67 -38 79 -89q2 -14 3 -27q0 -13 -2 -26q-8 -43 -45 -81q-60 -59 -157 -73q-20 -3 -45 -3q-58 0 -146 15l57 126q53 -26 89 -26q6 0 11 1q32 4 46 35q4 7 6 15v8
q-1 28 -82 56z" />
    <glyph glyph-name="Tcaron" unicode="&#x164;" horiz-adv-x="1054" 
d="M877 1393l-246 -1393h-208l246 1393h-373l36 207h954l-36 -207h-373zM1188 1987l-283 -238h-147l-191 238h219l75 -82l106 82h221z" />
    <glyph glyph-name="tcaron" unicode="&#x165;" horiz-adv-x="758" 
d="M456 1029l69 386h207l-69 -386h185l-36 -207h-185l-145 -822h-207l145 822h-185l36 207h185zM851 1363q-34 42 -23 103q10 60 60 102t110 42q59 0 94.5 -42t25.5 -102q-6 -32 -23 -62l-147 -219h-189z" />
    <glyph glyph-name="Tbar" unicode="&#x166;" horiz-adv-x="1054" 
d="M583 903l86 490h-373l36 207h954l-36 -207h-373l-86 -490h218l-37 -206h-218l-123 -697h-208l123 697h-218l37 206h218z" />
    <glyph glyph-name="tbar" unicode="&#x167;" horiz-adv-x="637" 
d="M333 669l27 153h-185l37 207h185l68 386h207l-68 -386h185l-37 -207h-185l-27 -153h185l-36 -206h-185l-82 -463h-207l82 463h-185l36 206h185z" />
    <glyph glyph-name="Utilde" unicode="&#x168;" horiz-adv-x="1388" 
d="M1312 1600h208l-199 -1127q-61 -193 -216 -326q-188 -160 -413 -160t-356.5 159.5t-91.5 384.5l188 1069h208l-188 -1069q-25 -138 56.5 -236.5t220.5 -98.5q140 0 255 98t140 237zM1139 1888v-1q30 0 37 39q5 26 -1 69h186q-76 -220 -191 -252q-30 -8 -58 -8
q-74 0 -123 57t-77 57h-4q-31 -2 -37 -39q-5 -25 2 -66h-187q78 220 193 252q30 8 58 8q73 0 124.5 -58t77.5 -58z" />
    <glyph glyph-name="utilde" unicode="&#x169;" horiz-adv-x="1162" 
d="M583 -14q-195 0 -293 119t-69 298l110 626h208l-109 -618q-16 -89 38 -153t151 -64q89 0 165.5 63.5t92.5 153.5l109 618h207l-110 -626q-35 -179 -174 -298q-140 -119 -326 -119zM925 1317v-1q30 0 37 39q5 26 -1 69h186q-77 -220 -191 -252q-30 -8 -58 -8
q-74 0 -123.5 57t-77.5 57h-4q-30 -2 -37 -39q-4 -25 3 -66h-187q78 220 193 252q30 8 58 8q73 0 124.5 -58t77.5 -58z" />
    <glyph glyph-name="Umacron" unicode="&#x16a;" horiz-adv-x="1388" 
d="M1312 1600h208l-199 -1127q-61 -193 -216 -326q-188 -160 -413 -160t-356.5 159.5t-91.5 384.5l188 1069h208l-188 -1069q-25 -138 56.5 -236.5t220.5 -98.5q140 0 255 98t140 237zM765 2008h567l-37 -207h-567z" />
    <glyph glyph-name="umacron" unicode="&#x16b;" horiz-adv-x="1162" 
d="M583 -14q-195 0 -293 119t-69 298l110 626h208l-109 -618q-16 -89 38 -153t151 -64q89 0 165.5 63.5t92.5 153.5l109 618h207l-110 -626q-35 -179 -174 -298q-140 -119 -326 -119zM550 1437h567l-36 -207h-567z" />
    <glyph glyph-name="Ubreve" unicode="&#x16c;" horiz-adv-x="1388" 
d="M1312 1600h208l-199 -1127q-61 -193 -216 -326q-188 -160 -413 -160t-356.5 159.5t-91.5 384.5l188 1069h208l-188 -1069q-25 -138 56.5 -236.5t220.5 -98.5q140 0 255 98t140 237zM955 1984q0 -62 13 -77q21 -26 58 -26q36 0 67 27q17 14 38 76h190q-43 -123 -112 -182
q-95 -82 -211 -82q-117 0 -184 82q-52 63 -48 182h189z" />
    <glyph glyph-name="ubreve" unicode="&#x16d;" horiz-adv-x="1162" 
d="M583 -14q-195 0 -293 119t-69 298l110 626h208l-109 -618q-16 -89 38 -153t151 -64q89 0 165.5 63.5t92.5 153.5l109 618h207l-110 -626q-35 -179 -174 -298q-140 -119 -326 -119zM741 1413q0 -62 13 -77q21 -26 58 -26q36 0 67 27q17 14 38 76h190q-44 -123 -112 -182
q-95 -82 -211 -82q-117 0 -184 82q-52 63 -48 182h189z" />
    <glyph glyph-name="Uring" unicode="&#x16e;" horiz-adv-x="1388" 
d="M1312 1600h208l-199 -1127q-61 -193 -216 -326q-188 -160 -413 -160t-356.5 159.5t-91.5 384.5l188 1069h208l-188 -1069q-25 -138 56.5 -236.5t220.5 -98.5q140 0 255 98t140 237zM1151 1907q41 -50 28 -121q-12 -70 -70.5 -120t-129.5 -50t-112 50t-29 120
q13 71 71.5 121t130.5 50q70 0 111 -50zM1002 1730q22 0 40.5 15.5t22.5 38.5q5 28 -8 43.5t-35 15.5q-28 0 -46.5 -15.5t-23.5 -43.5q-4 -23 9 -38.5t41 -15.5z" />
    <glyph glyph-name="uring" unicode="&#x16f;" horiz-adv-x="1162" 
d="M583 -14q-195 0 -293 119t-69 298l110 626h208l-109 -618q-16 -89 38 -153t151 -64q89 0 165.5 63.5t92.5 153.5l109 618h207l-110 -626q-35 -179 -174 -298q-140 -119 -326 -119zM937 1336q41 -50 28 -121q-12 -70 -70.5 -120t-129.5 -50t-112 50t-29 120
q13 71 71.5 121t129.5 50t112 -50zM787 1159q22 0 41 15.5t23 38.5q5 28 -8.5 43.5t-35.5 15.5q-28 0 -46 -15.5t-23 -43.5q-4 -23 8.5 -38.5t40.5 -15.5z" />
    <glyph glyph-name="Uhungarumlaut" unicode="&#x170;" horiz-adv-x="1388" 
d="M1312 1600h208l-199 -1127q-61 -193 -216 -326q-188 -160 -413 -160t-356.5 159.5t-91.5 384.5l188 1069h208l-188 -1069q-25 -138 56.5 -236.5t220.5 -98.5q140 0 255 98t140 237zM1070 2003l-269 -271h-185l139 271h315zM1431 2003l-269 -271h-185l139 271h315z" />
    <glyph glyph-name="uhungarumlaut" unicode="&#x171;" horiz-adv-x="1162" 
d="M583 -14q-195 0 -293 119t-69 298l110 626h208l-109 -618q-16 -89 38 -153t151 -64q89 0 165.5 63.5t92.5 153.5l109 618h207l-110 -626q-35 -179 -174 -298q-140 -119 -326 -119zM856 1432l-269 -271h-185l139 271h315zM1217 1432l-269 -271h-185l139 271h315z" />
    <glyph glyph-name="Uogonek" unicode="&#x172;" horiz-adv-x="1388" 
d="M666 -12q-207 8 -331 159q-131 159 -91 384l188 1069h208l-188 -1069q-25 -138 56.5 -236.5t220.5 -98.5q140 0 255 98t140 237l188 1069h208l-199 -1127q-61 -193 -216 -326q-111 -95 -236 -133q-82 -86 -91 -140q-3 -16 1 -29q8 -37 39 -37q37 0 105 51l31 -153
q-131 -50 -194 -50q-95 0 -142 66q-38 54 -25 130q3 17 8 35q17 52 65 101z" />
    <glyph glyph-name="uogonek" unicode="&#x173;" horiz-adv-x="1162" 
d="M605 -14h-22q-195 0 -293 119t-69 298l110 626h208l-109 -618q-16 -89 38 -153t151 -64q89 0 165.5 63.5t92.5 153.5l109 618h207l-110 -626q-35 -179 -174 -298l-30 -24q-142 -127 -154 -200q-3 -16 0 -29q9 -37 40 -37q37 0 105 51l31 -153q-131 -50 -194 -50
q-95 0 -142 66q-39 54 -25 130q3 17 8 35q15 48 57 92z" />
    <glyph glyph-name="Wcircumflex" unicode="&#x174;" horiz-adv-x="1686" 
d="M792 299l229 1301h207l-229 -1301q7 -17 26 -42q54 -62 143 -62t165.5 63.5t91.5 152.5l210 1189h208l-211 -1197q-34 -169 -176 -290q-147 -126 -324 -126q-176 0 -270 124q-137 -124 -313 -124q-177 0 -279 126q-101 120 -74 290l211 1197h207l-210 -1189
q-15 -89 38.5 -152.5t142.5 -63.5q90 0 165 62q30 25 42 42zM1241 1749l-78 82l-103 -82h-219l275 238h147l199 -238h-221z" />
    <glyph glyph-name="wcircumflex" unicode="&#x175;" horiz-adv-x="1418" 
d="M658 305l127 724h207l-124 -707q-10 -55 20.5 -91.5t81.5 -36.5q123 0 150 153l120 682h208l-127 -721q-28 -132 -136 -224q-115 -98 -252 -98q-138 0 -210 96q-108 -96 -245 -96q-138 0 -217 98q-76 92 -57 224l127 721h207l-120 -682q-27 -153 97 -153q51 0 95 36
q36 31 48 75zM1006 1178l-78 82l-103 -82h-219l275 238h147l199 -238h-221z" />
    <glyph glyph-name="Ycircumflex" unicode="&#x176;" horiz-adv-x="1414" 
d="M716 642l-384 958h238l290 -724l547 724h239l-723 -958l-113 -642h-207zM1105 1749l-78 82l-103 -82h-219l275 238h147l199 -238h-221z" />
    <glyph glyph-name="ycircumflex" unicode="&#x177;" horiz-adv-x="1139" 
d="M342 -346h-219l375 575l-242 800h233l162 -563l360 563h232zM866 1178l-78 82l-103 -82h-219l275 238h147l199 -238h-221z" />
    <glyph glyph-name="Ydieresis" unicode="&#x178;" horiz-adv-x="1414" 
d="M716 642l-384 958h238l290 -724l547 724h239l-723 -958l-113 -642h-207zM967.5 1967q35.5 -42 25.5 -102q-11 -61 -61.5 -103t-109.5 -42q-60 0 -95 42t-24 103q10 60 60 102t110 42q59 0 94.5 -42zM1343.5 1967q35.5 -42 25.5 -102q-11 -61 -61.5 -103t-109.5 -42
q-60 0 -95 42t-24 103q10 60 60 102t110 42q59 0 94.5 -42z" />
    <glyph glyph-name="Zacute" unicode="&#x179;" horiz-adv-x="1463" 
d="M1200 1393h-758l36 207h1116l-1050 -1392h760l-37 -208h-1117zM1140 1978h252l-321 -279h-197z" />
    <glyph glyph-name="zacute" unicode="&#x17a;" horiz-adv-x="1125" 
d="M763 822h-423l36 207h780l-613 -821h459l-37 -208h-815zM871 1407h252l-321 -279h-197z" />
    <glyph glyph-name="Zdotaccent" unicode="&#x17b;" horiz-adv-x="1463" 
d="M1200 1393h-758l36 207h1116l-1050 -1392h760l-37 -208h-1117zM1171.5 1969q32.5 -38 22.5 -94t-55.5 -94t-99.5 -38q-55 0 -87.5 38t-22.5 94t55.5 94t100.5 38q54 0 86.5 -38z" />
    <glyph glyph-name="zdotaccent" unicode="&#x17c;" horiz-adv-x="1125" 
d="M763 822h-423l36 207h780l-613 -821h459l-37 -208h-815zM902.5 1398q32.5 -38 22.5 -94t-55.5 -94t-99.5 -38q-55 0 -87.5 38t-22.5 94t55.5 94t100.5 38q54 0 86.5 -38z" />
    <glyph glyph-name="Zcaron" unicode="&#x17d;" horiz-adv-x="1463" 
d="M1200 1393h-758l36 207h1116l-1050 -1392h760l-37 -208h-1117zM1392 1987l-283 -238h-147l-191 238h219l74 -82l107 82h221z" />
    <glyph glyph-name="zcaron" unicode="&#x17e;" horiz-adv-x="1125" 
d="M763 822h-423l36 207h780l-613 -821h459l-37 -208h-815zM1123 1416l-283 -238h-147l-191 238h219l74 -82l107 82h221z" />
    <glyph glyph-name="longs" unicode="&#x17f;" horiz-adv-x="543" 
d="M332 0h-208l214 1215q31 127 136 219q110 88 233 88q62 0 182 -44l-104 -196q-81 38 -105 38q-41 0 -86 -35q-39 -33 -49 -79z" />
    <glyph glyph-name="florin" unicode="&#x192;" horiz-adv-x="541" 
d="M330 0h-1l-2 -12q-69 -323 -448 -323l36 202q178 0 206 122l147 832h-92l37 208h92l32 186q30 127 136 219q110 88 232 88q63 0 182 -44l-104 -196q-81 38 -104 38q-41 0 -87 -35q-39 -33 -49 -79l-31 -177h185l-37 -208h-185z" />
    <glyph glyph-name="Aringacute" unicode="&#x1fa;" horiz-adv-x="1346" 
d="M957 783l-78 382l-213 -382h291zM945 1522q15 0 29.5 13t17.5 28q5 25 -5.5 38t-25.5 13q-26 0 -41 -13t-19 -38q-3 -15 7.5 -28t36.5 -13zM916 1734l129 146h359l-310 -188q42 -53 29 -125q-12 -72 -74 -138l293 -1429h-220l-124 576h-446l-332 -576h-221l803 1428
q-42 67 -30 139q13 73 74 124q43 37 70 43z" />
    <glyph glyph-name="aringacute" unicode="&#x1fb;" horiz-adv-x="1401" 
d="M1124 466l27 152q-1 97 -65 176q-87 104 -234 104q-148 0 -270.5 -104t-148.5 -252q-26 -147 60 -251.5t234 -104.5q147 0 270 104q92 79 127 176zM894 1159q22 0 41 15.5t23 38.5q5 28 -8.5 43.5t-35.5 15.5q-28 0 -46 -15.5t-23 -43.5q-4 -23 8.5 -38.5t40.5 -15.5z
M1003 1097q122 -33 208 -140l12 72h208l-181 -1030h-208l23 129q-178 -155 -376 -155q-236 0 -373 166.5t-95 402.5q41 236 237 403q140 118 300 152q-39 50 -27 118q13 71 72 121q32 28 68 40h-72l266 279h252l-321 -279h-7q32 -12 55 -40q41 -50 28 -121q-12 -69 -69 -118
z" />
    <glyph glyph-name="AEacute" unicode="&#x1fc;" horiz-adv-x="1715" 
d="M1873 1600l-36 -207h-655l-87 -489h655l-36 -207h-655l-86 -489h655l-37 -208h-862l100 566h-194l-342 -566h-253l962 1548l9 52h862zM910 1028l-155 -255h110zM1225 1978h252l-321 -279h-197z" />
    <glyph glyph-name="aeacute" unicode="&#x1fd;" horiz-adv-x="2142" 
d="M1098 714q-17 43 -48 81q-86 104 -234 104q-147 0 -269.5 -104t-149.5 -252q-26 -148 60.5 -252t233.5 -104q148 0 270 105q46 38 76 80q36 47 53 95l27 152q-1 48 -19 95zM1933 736l-48 59q-86 104 -234 104t-270 -104q-26 -22 -31 -28l-6 -31h589zM1183 992l6 38h207
q71 82 293 82q236 0 373 -167q122 -149 83 -417l-837 1l-37 -210q3 -6 20 -27q87 -105 235 -105t270 105q23 19 76 73l190 -71q-77 -98 -141 -153q-197 -166 -433 -166q-222 0 -269 52l-4 -27h-207l16 95q-171 -120 -371 -120q-235 0 -372 166.5t-96 401.5q42 236 238 402.5
t431 166.5q199 0 329 -120zM1379 1407h252l-321 -279h-197z" />
    <glyph glyph-name="Oslashacute" unicode="&#x1fe;" horiz-adv-x="1889" 
d="M1353 1396q-39 16 -160 16q-253 0 -463 -178.5t-254 -431.5q-45 -253 103 -432q53 -65 68 -74zM818 208q39 -17 160 -17q253 0 463 179t255 432q44 253 -102 432q-54 65 -69 74zM1647 1498q47 -28 121 -116q197 -241 137 -580t-342.5 -579t-621.5 -240q-164 0 -244 35
l-111 -173l-173 88l111 173q-46 28 -119 117q-198 240 -138 579t342 579t621 240q164 0 245 -35l112 173l172 -88zM1354 1978h252l-321 -279h-197z" />
    <glyph glyph-name="oslashacute" unicode="&#x1ff;" horiz-adv-x="1317" 
d="M902 898q-5 2 -86 2q-147 0 -270 -104.5t-149 -251.5q-26 -148 49 -251zM606 190q5 -2 85 -2q148 0 270.5 104t148.5 252q26 147 -60 252zM312 105l-30 37q-138 167 -97 402q42 236 238 402.5t431 166.5q134 0 189 -29l147 197l168 -95l-161 -202l30 -38
q137 -166 95 -402q-41 -235 -237 -402t-432 -167q-133 0 -187 29l-148 -196l-170 89zM967 1407h252l-321 -279h-197z" />
    <glyph glyph-name="circumflex" unicode="&#x2c6;" horiz-adv-x="1066" 
d="M829 1178l-78 82l-103 -82h-219l275 238h147l199 -238h-221z" />
    <glyph glyph-name="caron" unicode="&#x2c7;" horiz-adv-x="1066" 
d="M1092 1416l-283 -238h-147l-191 238h219l75 -82l106 82h221z" />
    <glyph glyph-name="uni02C9" unicode="&#x2c9;" horiz-adv-x="717" 
d="M328 1437h567l-36 -207h-567z" />
    <glyph glyph-name="breve" unicode="&#x2d8;" horiz-adv-x="978" 
d="M648 1413q0 -62 12 -77q22 -26 59 -26q36 0 67 27q17 14 38 76h190q-44 -123 -112 -182q-96 -82 -212 -82q-117 0 -183 82q-52 63 -48 182h189z" />
    <glyph glyph-name="dotaccent" unicode="&#x2d9;" horiz-adv-x="516" 
d="M597.5 1398q32.5 -38 22.5 -94t-55.5 -94t-99.5 -38q-55 0 -87.5 38t-22.5 94t55.5 94t100.5 38q54 0 86.5 -38z" />
    <glyph glyph-name="ring" unicode="&#x2da;" horiz-adv-x="869" 
d="M792 1336q41 -50 28 -121q-12 -70 -70.5 -120t-129.5 -50t-112 50t-29 120q13 71 71.5 121t129.5 50t112 -50zM642 1159q22 0 41 15.5t23 38.5q5 28 -8.5 43.5t-35.5 15.5q-28 0 -46 -15.5t-23 -43.5q-4 -23 8.5 -38.5t40.5 -15.5z" />
    <glyph glyph-name="ogonek" unicode="&#x2db;" horiz-adv-x="437" 
d="M366 104q-167 -144 -181 -223q-3 -16 1 -29q9 -37 40 -37q37 0 105 51l31 -153q-131 -50 -194 -50q-95 0 -143 66q-38 54 -25 130q3 17 9 35q41 129 276 237z" />
    <glyph glyph-name="tilde" unicode="&#x2dc;" horiz-adv-x="931" 
d="M810 1317v-1q30 0 37 39q5 26 -1 69h186q-77 -220 -191 -252q-30 -8 -58 -8q-74 0 -123 57t-77 57h-4q-31 -2 -37 -39q-5 -25 2 -66h-187q78 220 193 252q30 8 58 8q73 0 124.5 -58t77.5 -58z" />
    <glyph glyph-name="hungarumlaut" unicode="&#x2dd;" horiz-adv-x="817" 
d="M684 1432l-269 -271h-185l139 271h315zM1045 1432l-269 -271h-185l139 271h315z" />
    <glyph glyph-name="tonos" unicode="&#x384;" horiz-adv-x="669" 
d="M565 1407h252l-321 -279h-197z" />
    <glyph glyph-name="dieresistonos" unicode="&#x385;" horiz-adv-x="887" 
d="M1053 1406.5q30 -34.5 21 -83.5q-9 -51 -51 -86t-90 -35q-49 0 -79 35t-21 86q9 49 51 83.5t91 34.5q48 0 78 -34.5zM526.5 1406.5q29.5 -34.5 20.5 -83.5q-9 -51 -50.5 -86t-89.5 -35q-50 0 -79.5 35t-20.5 86q9 49 50.5 83.5t91.5 34.5q48 0 77.5 -34.5zM714 1516h203
l-236 -338h-159z" />
    <glyph glyph-name="Alphatonos" unicode="&#x386;" horiz-adv-x="1376" 
d="M625 1407h252l-321 -279h-197zM1061 773l-71 375l-202 -375h273zM1126 1600l300 -1600h-220l-106 566h-424l-305 -566h-221l864 1600h112z" />
    <glyph glyph-name="anoteleia" unicode="&#x387;" horiz-adv-x="389" 
d="M487.5 1131.5q32.5 -38.5 22.5 -93.5q-10 -56 -55.5 -94t-99.5 -38t-87 38t-23 94q10 55 56 93.5t100 38.5t86.5 -38.5z" />
    <glyph glyph-name="Epsilontonos" unicode="&#x388;" horiz-adv-x="1556" 
d="M565 1407h252l-321 -279h-197zM2098 1600l-37 -207h-655l-86 -489h655l-36 -207h-655l-87 -489h655l-36 -208h-862l282 1600h862z" />
    <glyph glyph-name="Etatonos" unicode="&#x389;" horiz-adv-x="1627" 
d="M565 1407h252l-321 -279h-197zM1277 662l-116 -662h-207l282 1600h207l-129 -731h494l129 731h207l-282 -1600h-207l116 662h-494z" />
    <glyph glyph-name="Iotatonos" unicode="&#x38a;" horiz-adv-x="1150" 
d="M565 1407h252l-321 -279h-197zM1294 1600l-282 -1600h-208l282 1600h208z" />
    <glyph glyph-name="Omicrontonos" unicode="&#x38c;" horiz-adv-x="2333" 
d="M565 1407h252l-321 -279h-197zM2101 1381q198 -240 138 -579t-342 -579t-621 -240t-537 240t-138 579t342 579t621 240t537 -240zM1528 1412q-253 0 -463 -178.5t-255 -431.5t102.5 -432t399.5 -179q253 0 463 179t255 432t-102 431.5t-400 178.5z" />
    <glyph glyph-name="Upsilontonos" unicode="&#x38e;" horiz-adv-x="1933" 
d="M565 1407h252l-321 -279h-197zM1520 642l-384 958h238l290 -724l547 724h239l-723 -958l-113 -642h-207z" />
    <glyph glyph-name="Omegatonos" unicode="&#x38f;" horiz-adv-x="1910" 
d="M515 1407h252l-321 -279h-197zM699 207q-45 32 -106 101q-171 190 -121 470q65 371 298 596.5t553 225.5h15q319 0 472.5 -225.5t88.5 -596.5q-50 -280 -287 -470q-85 -69 -142 -101h234l-36 -207h-518l34 194q139 53 301.5 198.5t205.5 385.5q51 292 -56.5 460
t-336.5 168h-4q-229 0 -396.5 -168t-218.5 -460q-43 -240 69 -385.5t233 -198.5l-34 -194h-519l36 207h235z" />
    <glyph glyph-name="iotadieresistonos" unicode="&#x390;" horiz-adv-x="535" 
d="M552 1030l-181 -1030h-207l181 1030h207zM863 1406.5q30 -34.5 21 -83.5q-9 -51 -51 -86t-90 -35q-49 0 -79 35t-21 86q9 49 51 83.5t91 34.5q48 0 78 -34.5zM336.5 1406.5q29.5 -34.5 20.5 -83.5q-9 -51 -50.5 -86t-89.5 -35q-50 0 -79.5 35t-20.5 86q9 49 50.5 83.5
t91.5 34.5q48 0 77.5 -34.5zM524 1516h203l-236 -338h-159z" />
    <glyph glyph-name="Alpha" unicode="&#x391;" horiz-adv-x="1376" 
d="M961 773l-71 375l-202 -375h273zM1026 1600l300 -1600h-220l-106 566h-424l-305 -566h-221l864 1600h112z" />
    <glyph glyph-name="Beta" unicode="&#x392;" horiz-adv-x="1126" 
d="M756 1600q139 0 220.5 -98.5t57.5 -237.5q-25 -143 -175 -177q101 -15 210 -148t68 -368q-42 -235 -237 -406q-183 -161 -340 -163v-2h-410l282 1600h324zM520 927l-126 -719h203v3q65 4 177 103q124 108 151 257q26 147 -60.5 251.5t-233.5 104.5h-111zM603 1393
l-45 -253h135q47 4 85 35q42 33 52 89t-21 92.5t-89 36.5h-117z" />
    <glyph glyph-name="Gamma" unicode="&#x393;" horiz-adv-x="922" 
d="M1179 1600l-37 -208h-562l-245 -1392h-208l282 1600h770z" />
    <glyph glyph-name="uni0394" unicode="&#x394;" horiz-adv-x="1326" 
d="M55 1h-89l865 1599h188l307 -1600h-1271v1zM1065 208l-201 1045l-567 -1045h768z" />
    <glyph glyph-name="Epsilon" unicode="&#x395;" horiz-adv-x="1137" 
d="M1294 1600l-36 -207h-655l-87 -489h655l-36 -207h-655l-86 -489h655l-37 -208h-862l282 1600h862z" />
    <glyph glyph-name="Zeta" unicode="&#x396;" horiz-adv-x="1463" 
d="M1200 1393h-758l36 207h1116l-1050 -1392h760l-37 -208h-1117z" />
    <glyph glyph-name="Eta" unicode="&#x397;" horiz-adv-x="1208" 
d="M474 662l-117 -662h-207l282 1600h207l-129 -731h494l129 731h207l-282 -1600h-207l117 662h-494z" />
    <glyph glyph-name="Theta" unicode="&#x398;" horiz-adv-x="1778" 
d="M1711 1381q198 -240 138 -579q-60 -340 -342.5 -580t-621.5 -240t-536.5 240t-137.5 580q60 339 342 579t621 240t537 -240zM1138 1412q-252 0 -463 -179t-255 -431q-45 -253 102.5 -432t399.5 -179t462.5 179t255.5 432q44 252 -103 431t-399 179zM569 906h959l-36 -208
h-959z" />
    <glyph glyph-name="Iota" unicode="&#x399;" horiz-adv-x="484" 
d="M628 1600l-282 -1600h-208l282 1600h208z" />
    <glyph glyph-name="Kappa" unicode="&#x39a;" horiz-adv-x="1206" 
d="M490 755l-133 -755h-207l282 1600h207l-89 -504l467 504h262l-607 -658l445 -942h-251l-359 772z" />
    <glyph glyph-name="Lambda" unicode="&#x39b;" horiz-adv-x="1360" 
d="M1053 1600l307 -1600h-220l-242 1253l-678 -1252h-220l865 1599h188z" />
    <glyph glyph-name="Mu" unicode="&#x39c;" horiz-adv-x="1812" 
d="M670 1600l361 -897l675 897h189l-282 -1600h-207l204 1156l-652 -864l-348 864l-204 -1156h-207l282 1600h189z" />
    <glyph glyph-name="Nu" unicode="&#x39d;" horiz-adv-x="1357" 
d="M432 1600h189l459 -1142l201 1142h208l-282 -1600h-181l-465 1156l-204 -1156h-207z" />
    <glyph glyph-name="Xi" unicode="&#x39e;" horiz-adv-x="1282" 
d="M320 906h959l-37 -208h-959zM339 1600h1168l-37 -208h-1168zM94 208h1168l-37 -208h-1168z" />
    <glyph glyph-name="Omicron" unicode="&#x39f;" horiz-adv-x="1889" 
d="M1767 1381q198 -240 138 -579t-342.5 -579t-621.5 -240t-536.5 240t-137.5 579t342 579t621 240t537 -240zM1193 1412q-253 0 -463 -178.5t-254 -431.5q-45 -253 102.5 -432t399.5 -179q253 0 463 179t255 432q44 253 -103 431.5t-400 178.5z" />
    <glyph glyph-name="Pi" unicode="&#x3a0;" horiz-adv-x="1260" 
d="M559 1392l-245 -1392h-208l282 1600h1047l-282 -1600h-208l245 1392h-631z" />
    <glyph glyph-name="Rho" unicode="&#x3a1;" horiz-adv-x="1145" 
d="M447 512l-90 -512h-207l282 1600h454q189 -26 298 -159q131 -160 91 -384q-39 -226 -226.5 -385.5t-412.5 -159.5h-189zM602 1392l-118 -672h189q138 0 254 98.5t140 238.5q25 139 -56.5 237t-219.5 98h-189z" />
    <glyph glyph-name="Sigma" unicode="&#x3a3;" horiz-adv-x="1236" 
d="M309 1600h1182l-37 -208h-898l384 -593l-592 -591h898l-37 -208h-1182l36 206l607 593l-397 595z" />
    <glyph glyph-name="Tau" unicode="&#x3a4;" horiz-adv-x="1054" 
d="M877 1393l-246 -1393h-208l246 1393h-373l36 207h954l-36 -207h-373z" />
    <glyph glyph-name="Upsilon" unicode="&#x3a5;" horiz-adv-x="1414" 
d="M716 642l-384 958h238l290 -724l547 724h239l-723 -958l-113 -642h-207z" />
    <glyph glyph-name="Phi" unicode="&#x3a6;" horiz-adv-x="1784" 
d="M863 434l125 707q-201 -5 -366 -108q-167 -105 -192 -246q-24 -140 105 -244t328 -109zM1034 222l-39 -222h-208l39 222q-277 7 -453 159q-198 166 -155 408q42 241 298 407q230 150 509 157l44 247h208l-44 -247q278 -7 456 -157q197 -166 155 -407q-43 -242 -298 -408
q-231 -152 -512 -159zM1196 1141l-125 -707q202 5 368 109q167 104 191 244q25 141 -104 246q-129 103 -330 108z" />
    <glyph glyph-name="Chi" unicode="&#x3a7;" horiz-adv-x="1347" 
d="M50 0l657 873l-291 727h238l208 -521l394 521h238l-549 -727l351 -873h-238l-268 667l-502 -667h-238z" />
    <glyph glyph-name="Psi" unicode="&#x3a8;" horiz-adv-x="1824" 
d="M1071 326l-58 -326h-208l58 326q-277 8 -454 160q-186 166 -149 409l124 705h208l-125 -708q-25 -141 105 -245q129 -104 328 -109l187 1062h208l-187 -1062q202 5 368 109t203 311h5l113 642h207l-125 -709q-43 -240 -296 -406q-232 -151 -512 -159z" />
    <glyph glyph-name="uni03A9" unicode="&#x3a9;" horiz-adv-x="1723" 
d="M513 207q-46 32 -107 101q-170 190 -121 470q66 371 298.5 596.5t552.5 225.5h15q319 0 473 -225.5t88 -596.5q-49 -280 -287 -470q-85 -69 -142 -101h235l-37 -207h-518l34 194q140 53 302.5 198.5t204.5 385.5q52 292 -56 460t-337 168h-4q-229 0 -396 -168t-219 -460
q-42 -240 70 -385.5t232 -198.5l-34 -194h-519l37 207h235z" />
    <glyph glyph-name="Iotadieresis" unicode="&#x3aa;" horiz-adv-x="484" 
d="M628 1600l-282 -1600h-208l282 1600h208zM502.5 1967q35.5 -42 25.5 -102q-11 -61 -61.5 -103t-109.5 -42q-60 0 -95 42t-24 103q10 60 60 102t110 42q59 0 94.5 -42zM878.5 1967q35.5 -42 25.5 -102q-11 -61 -61.5 -103t-109.5 -42q-60 0 -95 42t-24 103q10 60 60 102
t110 42q59 0 94.5 -42z" />
    <glyph glyph-name="Upsilondieresis" unicode="&#x3ab;" horiz-adv-x="1414" 
d="M716 642l-384 958h238l290 -724l547 724h239l-723 -958l-113 -642h-207zM967.5 1967q35.5 -42 25.5 -102q-11 -61 -61.5 -103t-109.5 -42q-60 0 -95 42t-24 103q10 60 60 102t110 42q59 0 94.5 -42zM1343.5 1967q35.5 -42 25.5 -102q-11 -61 -61.5 -103t-109.5 -42
q-60 0 -95 42t-24 103q10 60 60 102t110 42q59 0 94.5 -42z" />
    <glyph glyph-name="alphatonos" unicode="&#x3ac;" horiz-adv-x="1364" 
d="M1051 795q-86 105 -234 105q-147 0 -270 -105t-149 -253q-26 -147 60.5 -251t233.5 -104q148 0 271 104q89 76 118 229q34 193 -30 275zM1231 941l62 88h206l-229 -514l48 -515h-206l-25 144v-2q-196 -168 -433 -168q-234 0 -371.5 167t-96.5 401q42 237 238.5 403.5
t430.5 166.5q237 0 373 -167q2 -2 3 -4zM1013 1407h252l-321 -279h-197z" />
    <glyph glyph-name="epsilontonos" unicode="&#x3ad;" horiz-adv-x="930" 
d="M635 833q-96 0 -144.5 -22t-53.5 -53q-12 -68 25 -98t51 -34h282l-36 -206h-284q-15 -3 -62 -33t-57 -88q-7 -37 34 -71.5t130 -34.5q104 4 195 67l134 -118q-187 -161 -364 -161q-158 0 -257 86t-71 244q28 159 128 214q-81 54 -51 224q29 162 156.5 229t281.5 67
q172 0 309 -152l-181 -106q-67 46 -165 46zM772 1407h252l-321 -279h-197z" />
    <glyph glyph-name="etatonos" unicode="&#x3ae;" horiz-adv-x="1016" 
d="M443 753l-133 -753h-208l182 1030h208l-23 -130q107 184 308 184t253.5 -118.5t24.5 -296.5l-179 -1014h-207l177 1005q16 90 -37.5 153.5t-142.5 63.5t-165 -63q-43 -36 -58 -61zM828 1407h252l-321 -279h-197z" />
    <glyph glyph-name="iotatonos" unicode="&#x3af;" horiz-adv-x="535" 
d="M553 1030l-182 -1030h-207l182 1030h207zM576 1407h252l-321 -279h-197z" />
    <glyph glyph-name="upsilondieresistonos" unicode="&#x3b0;" horiz-adv-x="1161" 
d="M583 -13q-196 0 -293.5 118.5t-68.5 297.5l110 626h207l-109 -618q-16 -89 38 -152q55 -64 152 -64q89 0 165 63.5t92 152.5l109 618h207l-110 -626q-35 -179 -174 -297q-140 -119 -325 -119zM1175.5 1406.5q29.5 -34.5 21.5 -83.5q-9 -51 -51.5 -86t-90.5 -35
q-49 0 -78.5 35t-20.5 86q8 49 50.5 83.5t91.5 34.5q48 0 77.5 -34.5zM649 1406.5q29 -34.5 21 -83.5q-9 -51 -51 -86t-90 -35q-50 0 -79 35t-20 86q8 49 50 83.5t92 34.5q48 0 77 -34.5zM837 1516h203l-236 -338h-159z" />
    <glyph glyph-name="alpha" unicode="&#x3b1;" horiz-adv-x="1364" 
d="M1051 795q-86 105 -234 105q-147 0 -270 -105t-149 -253q-26 -147 60.5 -251t233.5 -104q148 0 271 104q89 76 118 229q34 193 -30 275zM1231 941l62 88h206l-229 -514l48 -515h-206l-25 144v-2q-196 -168 -433 -168q-234 0 -371.5 167t-96.5 401q42 237 238.5 403.5
t430.5 166.5q237 0 373 -167q2 -2 3 -4z" />
    <glyph glyph-name="beta" unicode="&#x3b2;" horiz-adv-x="1091" 
d="M526 1031q133 2 178 19q46 17 106.5 71t73.5 123q12 70 -27.5 117.5t-107.5 47.5q-66 0 -120 -50.5t-71 -144.5zM490 827l-206 -1169h-208l276 1567q31 173 153.5 284t280.5 111q157 0 247.5 -111t63.5 -265q-33 -185 -290 -304q140 -2 222 -98q116 -153 79 -359
q-36 -209 -209 -356t-381 -147q-68 0 -106 25l123 188q10 -1 20 -1q121 0 221 85t121 206q22 122 -47 215t-239 126z" />
    <glyph glyph-name="gamma" unicode="&#x3b3;" horiz-adv-x="1127" 
d="M464 50l-238 979h232l165 -677l408 677h232l-586 -974l-70 -399h-212z" />
    <glyph glyph-name="delta" unicode="&#x3b4;" horiz-adv-x="1299" 
d="M388 542q-26 -147 60.5 -251t233.5 -104q148 0 270 104t148 251q26 148 -59.5 253t-233.5 105q-147 0 -270 -105t-149 -253zM1240 918q114 -139 72 -376q-41 -234 -236 -401t-432 -167q-234 0 -371.5 167t-96.5 401q42 237 238 403q172 146 322 162l-317 493h851
l-37 -208h-400q135 -251 214 -293t193 -181z" />
    <glyph glyph-name="epsilon" unicode="&#x3b5;" horiz-adv-x="930" 
d="M635 833q-96 0 -144.5 -22t-53.5 -53q-12 -68 25 -98t51 -34h282l-36 -206h-284q-15 -3 -62 -33t-57 -88q-7 -37 34 -71.5t130 -34.5q104 4 195 67l134 -118q-187 -161 -364 -161q-158 0 -257 86t-71 244q28 159 128 214q-81 54 -51 224q29 162 156.5 229t281.5 67
q172 0 309 -152l-181 -106q-67 46 -165 46z" />
    <glyph glyph-name="zeta" unicode="&#x3b6;" horiz-adv-x="956" 
d="M1239 1485q-673 -575 -816 -956q-21 -57 -30 -105q-39 -225 254 -235q316 -10 271 -267q-80 -222 -353 -231l38 213q102 0 110 37l1 3q6 36 -100 36q-503 11 -429 430q8 47 25 99q144 468 653 883h-466l37 208h826z" />
    <glyph glyph-name="eta" unicode="&#x3b7;" horiz-adv-x="1016" 
d="M443 753l-133 -753h-208l182 1030h208l-23 -130q107 184 308 184t253.5 -118.5t24.5 -296.5l-179 -1014h-207l177 1005q16 90 -37.5 153.5t-142.5 63.5t-165 -63q-43 -36 -58 -61z" />
    <glyph glyph-name="theta" unicode="&#x3b8;" horiz-adv-x="1318" 
d="M1154 787q52 294 -28.5 447t-221.5 153t-275.5 -153t-186.5 -447t28.5 -447t221.5 -153t275.5 153t186.5 447zM1366 787q-65 -369 -267 -591t-443 -222t-366 221.5t-60 591.5q65 369 268.5 591t444.5 222t364.5 -222t58.5 -591zM512 891h611l-37 -207h-611z" />
    <glyph glyph-name="iota" unicode="&#x3b9;" horiz-adv-x="535" 
d="M553 1030l-182 -1030h-207l182 1030h207z" />
    <glyph glyph-name="kappa" unicode="&#x3ba;" horiz-adv-x="947" 
d="M1033 1030l-340 -345l267 -685h-246l-192 518l-131 -122l-70 -396h-208l182 1030h208l-55 -309l320 309h265z" />
    <glyph glyph-name="lambda" unicode="&#x3bb;" horiz-adv-x="1092" 
d="M1034 0h-230l-162 549l-355 -549h-230l514 800l-180 616h231z" />
    <glyph glyph-name="uni03BC" unicode="&#x3bc;" horiz-adv-x="1110" 
d="M770 81q-106 -87 -224 -87q-172 0 -178 67l-71 -404h-207l242 1372h207l-127 -720q5 -18 28 -46q54 -62 143 -62t165 64q49 41 69 84l120 680h205l-181 -1027h-205z" />
    <glyph glyph-name="nu" unicode="&#x3bd;" horiz-adv-x="1188" 
d="M541 0l-310 1029h234l191 -668l428 668h234l-673 -1029h-104z" />
    <glyph glyph-name="xi" unicode="&#x3be;" horiz-adv-x="1063" 
d="M263.5 143q-124.5 129 -87.5 340q56 316 380 461q-131 121 -103 281q86 375 530 375h288l-35 -201h-258q-271 0 -301 -168l-1 -7q-12 -68 25.5 -112.5t118.5 -78.5l344 -1l-36 -207l-333 3q-182 -37 -284 -130t-124 -215q-21 -118 51.5 -190t367.5 -106t250 -291l-5 -28
q-75 -175 -356 -202l40 228q111 0 115 16l1 3q11 62 -226 81.5t-361.5 148.5z" />
    <glyph glyph-name="omicron" unicode="&#x3bf;" horiz-adv-x="1318" 
d="M855 1113q236 0 373 -167t96 -403q-42 -236 -238 -403t-432 -167q-235 0 -372.5 167t-95.5 403q41 236 237.5 403t431.5 167zM547 795q-123 -105 -149 -252q-26 -148 60 -252t234 -104t271 104t149 252q26 147 -60 252t-234 105t-271 -105z" />
    <glyph glyph-name="pi" unicode="&#x3c0;" horiz-adv-x="1299" 
d="M689 822l-145 -822h-207l145 822h-269l37 208h1162l-37 -208h-269l-145 -822h-206l145 822h-211z" />
    <glyph glyph-name="rho" unicode="&#x3c1;" horiz-adv-x="1296" 
d="M422 623l-29 -161q2 -95 65 -171q87 -105 235 -105q147 0 269.5 104.5t148.5 251.5q26 148 -59.5 253t-232.5 105q-148 0 -272 -105q-91 -78 -125 -172zM328 93l-77 -438h-208l180 1018q77 176 237.5 306.5t395.5 130.5t372 -165.5t95 -402.5q-41 -234 -237 -401
t-431 -167q-199 0 -327 119z" />
    <glyph glyph-name="sigma1" unicode="&#x3c2;" horiz-adv-x="1083" 
d="M306.5 147q-146.5 121 -108.5 336q36 206 206 359q184 171 518 187h263l-36 -203h-213q-260 -8 -383 -115t-144 -228q-20 -114 73 -183.5t312.5 -121t184.5 -250.5l-5 -28q-78 -197 -360 -223l40 227q111 0 119 37l1 3q3 16 -159 49t-308.5 154z" />
    <glyph glyph-name="sigma" unicode="&#x3c3;" horiz-adv-x="1388" 
d="M400 542q-26 -147 60.5 -251t233.5 -104q148 0 270 104t148 251q26 148 -59.5 253t-233.5 105q-147 0 -270 -105t-149 -253zM1322 822q42 -56 2 -280q-41 -234 -236 -401t-432 -167q-234 0 -371.5 167t-96.5 401q42 237 238.5 403.5t430.5 166.5q176 0 282 -83h350
l-36 -207h-131z" />
    <glyph glyph-name="tau" unicode="&#x3c4;" horiz-adv-x="1094" 
d="M795 821l-145 -821h-206l145 821h-374l37 208h954l-37 -208h-374z" />
    <glyph glyph-name="upsilon" unicode="&#x3c5;" horiz-adv-x="1161" 
d="M583 -13q-196 0 -293.5 118.5t-68.5 297.5l110 626h207l-109 -618q-16 -89 38 -152q55 -64 152 -64q89 0 165 63.5t92 152.5l109 618h207l-110 -626q-35 -179 -174 -297q-140 -119 -325 -119z" />
    <glyph glyph-name="phi" unicode="&#x3c6;" horiz-adv-x="1319" 
d="M921 861l-113 -634q88 14 157 72q122 105 148 253q32 179 -103 265q-58 37 -89 44zM597 206l126 711q51 155 200 155q80 0 190 -52q271 -134 212 -468q-41 -235 -236 -401q-171 -146 -315 -160l-59 -331h-208l58 328q-154 8 -280 163q-138 166 -97 401q42 236 238 402
q65 56 174 115l35 -202q-62 -44 -84 -63q-124 -105 -150 -252q-26 -148 60 -252q62 -75 136 -94z" />
    <glyph glyph-name="chi" unicode="&#x3c7;" horiz-adv-x="1241" 
d="M654 191l-418 -531h-239l571 728l-278 641h241l192 -443l348 443h240l-503 -641l315 -728h-240z" />
    <glyph glyph-name="psi" unicode="&#x3c8;" horiz-adv-x="1356" 
d="M822 206q81 19 169 94q122 104 148 252l85 477h213l-85 -477q-41 -235 -237 -401q-178 -152 -331 -162l-56 -319h-214l56 319q-150 10 -274 162q-138 166 -97 401l85 477h213l-85 -477q-26 -148 60 -252q62 -75 136 -94l146 823h214z" />
    <glyph glyph-name="omega" unicode="&#x3c9;" horiz-adv-x="1556" 
d="M1064 176q110 0 186 88t115 304q34 197 -29 461h179q100 -243 62 -461q-50 -281 -188 -437.5t-348 -156.5q-212 0 -250 90q-71 -90 -282 -90t-295 156.5t-34 437.5q39 222 233 461h180q-164 -247 -201 -461q-39 -216 6.5 -304t154.5 -88q102 0 172 103l95 539h206
l-96 -541q11 -101 134 -101z" />
    <glyph glyph-name="iotadieresis" unicode="&#x3ca;" horiz-adv-x="535" 
d="M553 1030l-182 -1030h-207l182 1030h207zM427.5 1396q35.5 -42 25.5 -102q-11 -61 -61.5 -103t-109.5 -42q-60 0 -95 42t-24 103q10 60 60 102t110 42q59 0 94.5 -42zM803.5 1396q35.5 -42 25.5 -102q-11 -61 -61.5 -103t-109.5 -42q-60 0 -95 42t-24 103q10 60 60 102
t110 42q59 0 94.5 -42z" />
    <glyph glyph-name="upsilondieresis" unicode="&#x3cb;" horiz-adv-x="1161" 
d="M583 -13q-196 0 -293.5 118.5t-68.5 297.5l110 626h207l-109 -618q-16 -89 38 -152q55 -64 152 -64q89 0 165 63.5t92 152.5l109 618h207l-110 -626q-35 -179 -174 -297q-140 -119 -325 -119zM740.5 1396q35.5 -42 24.5 -102q-11 -61 -61 -103t-109 -42q-60 0 -95.5 42
t-24.5 103q11 60 61 102t110 42q59 0 94.5 -42zM1116.5 1396q35.5 -42 24.5 -102q-11 -61 -61 -103t-109 -42q-60 0 -95.5 42t-24.5 103q11 60 61 102t110 42q59 0 94.5 -42z" />
    <glyph glyph-name="omicrontonos" unicode="&#x3cc;" horiz-adv-x="1318" 
d="M855 1113q236 0 373 -167t96 -403q-42 -236 -238 -403t-432 -167q-235 0 -372.5 167t-95.5 403q41 236 237.5 403t431.5 167zM547 795q-123 -105 -149 -252q-26 -148 60 -252t234 -104t271 104t149 252q26 147 -60 252t-234 105t-271 -105zM968 1407h252l-322 -279h-197z
" />
    <glyph glyph-name="upsilontonos" unicode="&#x3cd;" horiz-adv-x="1161" 
d="M583 -13q-196 0 -293.5 118.5t-68.5 297.5l110 626h207l-109 -618q-16 -89 38 -152q55 -64 152 -64q89 0 165 63.5t92 152.5l109 618h207l-110 -626q-35 -179 -174 -297q-140 -119 -325 -119zM889 1407h252l-321 -279h-197z" />
    <glyph glyph-name="omegatonos" unicode="&#x3ce;" horiz-adv-x="1556" 
d="M1064 176q110 0 186 88t115 304q34 197 -29 461h179q100 -243 62 -461q-50 -281 -188 -437.5t-348 -156.5q-212 0 -250 90q-71 -90 -282 -90t-295 156.5t-34 437.5q39 222 233 461h180q-164 -247 -201 -461q-39 -216 6.5 -304t154.5 -88q102 0 172 103l95 539h206
l-96 -541q11 -101 134 -101zM1087 1407h252l-322 -279h-197z" />
    <glyph glyph-name="afii10023" unicode="&#x401;" horiz-adv-x="1137" 
d="M1294 1600l-36 -207h-655l-87 -489h655l-36 -207h-655l-86 -489h655l-37 -208h-862l282 1600h862zM841.5 1967q35.5 -42 25.5 -102q-11 -61 -61.5 -103t-109.5 -42q-60 0 -95 42t-24 103q10 60 60 102t110 42q59 0 94.5 -42zM1217.5 1967q35.5 -42 25.5 -102
q-11 -61 -61.5 -103t-109.5 -42q-60 0 -95 42t-24 103q10 60 60 102t110 42q59 0 94.5 -42z" />
    <glyph glyph-name="afii10051" unicode="&#x402;" horiz-adv-x="1646" 
d="M803 883q176 175 380 175q239 0 374 -141q139 -121 86 -421q-53 -299 -235 -430q-50 -38 -151 -92l-114 153q105 58 137 82q118 89 153 277q31 186 -55 276q-91 94 -240 94t-261 -93q-101 -82 -128 -185l-101 -578h-206l245 1392h-374l37 208h954l-37 -208h-374z" />
    <glyph glyph-name="afii10052" unicode="&#x403;" horiz-adv-x="956" 
d="M1179 1600l-37 -208h-562l-245 -1392h-208l282 1600h770zM921 1978h252l-321 -279h-197z" />
    <glyph glyph-name="afii10053" unicode="&#x404;" horiz-adv-x="1781" 
d="M1388 906l-36 -208h-906q-20 -162 117 -328q147 -179 399 -179t463 179q113 96 200 253h220q-131 -259 -297 -400q-284 -241 -623 -241t-536.5 240t-137.5 580q60 339 342 579t621 240t538 -240q58 -71 134 -244h-245q-35 61 -64 96q-147 179 -399 179t-463 -179
q-195 -166 -233 -327h906z" />
    <glyph glyph-name="afii10054" unicode="&#x405;" horiz-adv-x="1101" 
d="M702 821q-160 57 -247 162.5t-59 261.5q27 153 156 263t285 110q154 0 245 -109q51 -60 70 -191l-201 -74q-18 92 -41 120q-41 48 -110 48q-70 0 -127.5 -48.5t-69.5 -118.5t28 -119q45 -54 135 -99q177 -61 285 -192q121 -145 85 -352q-37 -207 -209.5 -353.5
t-378.5 -146.5q-207 0 -327 147q-96 117 -91 323l214 73q-12 -177 49 -251q71 -86 192 -86t222 86t123 208q21 121 -50 207q-67 82 -178 131z" />
    <glyph glyph-name="afii10055" unicode="&#x406;" 
d="M659 1600l-282 -1600h-207l282 1600h207z" />
    <glyph glyph-name="afii10056" unicode="&#x407;" 
d="M660 1600l-282 -1600h-207l282 1600h207zM535.5 1967q35.5 -42 24.5 -102q-10 -61 -60.5 -103t-109.5 -42q-60 0 -95 42t-25 103q11 60 61 102t110 42q59 0 94.5 -42zM911.5 1967q35.5 -42 24.5 -102q-10 -61 -60.5 -103t-109.5 -42q-60 0 -95 42t-25 103q11 60 61 102
t110 42q59 0 94.5 -42z" />
    <glyph glyph-name="afii10057" unicode="&#x408;" horiz-adv-x="937" 
d="M841 343q-29 -166 -136 -258q-114 -98 -252 -98q-137 0 -216.5 97.5t-50.5 259.5l175 64q1 -152 38 -187q27 -27 81 -27h4q57 1 101 37q35 31 51 121l220 1248h207z" />
    <glyph glyph-name="afii10058" unicode="&#x409;" horiz-adv-x="2209" 
d="M1076 0l245 1392h-631l-188 -1069q-24 -138 -135 -233t-311 -95l37 208q113 0 154 34q38 33 50 97l223 1266h1046l-123 -698h422q179 -4 274 -133t62 -312q-34 -194 -173.5 -323.5t-321.5 -133.5h-630zM1406 694l-85 -486h414q86 0 164 74t95 174q16 91 -36 164.5
t-138 73.5h-414z" />
    <glyph glyph-name="afii10059" unicode="&#x40a;" horiz-adv-x="2085" 
d="M952 0l123 696h-631l-123 -696h-208l282 1600h208l-123 -696h631l123 696h208l-123 -698h431q179 -4 274 -133t63 -312q-35 -194 -175 -323.5t-321 -133.5h-639zM1282 694l-85 -486h423q86 0 164 74t95 174q16 91 -36 164.5t-138 73.5h-423z" />
    <glyph glyph-name="afii10060" unicode="&#x40b;" horiz-adv-x="1646" 
d="M792 872q178 186 382 186q240 0 368 -144q125 -146 72 -444l-82 -470h-215l85 479q34 194 -45 291q-76 91 -213 91h-13q-149 -4 -263 -98q-100 -82 -128 -186l-101 -577h-206l245 1392h-374l37 208h954l-37 -208h-374z" />
    <glyph glyph-name="afii10061" unicode="&#x40c;" horiz-adv-x="1206" 
d="M641 755l-133 -755h-207l282 1600h207l-89 -504l467 504h262l-607 -658l445 -942h-251l-359 772zM560 1978h252l-321 -279h-197z" />
    <glyph glyph-name="afii10062" unicode="&#x40e;" horiz-adv-x="1388" 
d="M501 73q-123 -84 -223 -84q-69 0 -170 70l131 178q78 -47 104 -47q10 0 20 3q35 10 212 223l141 178l-479 1006h243l386 -808l615 808h236q-1034 -1403 -1216 -1527zM956 1984q0 -62 12 -77q22 -26 59 -26q36 0 67 27q17 14 38 76h190q-44 -123 -112 -182
q-96 -82 -212 -82q-117 0 -183 82q-52 63 -48 182h189z" />
    <glyph glyph-name="afii10145" unicode="&#x40f;" horiz-adv-x="1316" 
d="M551 0h-449l282 1600h208l-245 -1391h697l245 1391h207l-282 -1600h-457l-61 -345h-206z" />
    <glyph glyph-name="afii10017" unicode="&#x410;" horiz-adv-x="1376" 
d="M961 773l-71 375l-202 -375h273zM1026 1600l300 -1600h-220l-106 566h-424l-305 -566h-221l864 1600h112z" />
    <glyph glyph-name="afii10018" unicode="&#x411;" horiz-adv-x="1213" 
d="M395 1600h770l-37 -208h-562l-86 -488h415q181 -4 275 -133t62 -312q-34 -194 -174.5 -326.5t-321.5 -132.5h-623zM444 696l-86 -486h407q87 0 165 74t96 174q16 91 -36 164.5t-139 73.5h-407z" />
    <glyph glyph-name="afii10019" unicode="&#x412;" horiz-adv-x="1126" 
d="M756 1600q139 0 220.5 -98.5t57.5 -237.5q-25 -143 -175 -177q101 -15 210 -148t68 -368q-42 -235 -237 -406q-183 -161 -340 -163v-2h-410l282 1600h324zM520 927l-126 -719h203v3q65 4 177 103q124 108 151 257q26 147 -60.5 251.5t-233.5 104.5h-111zM603 1393
l-45 -253h135q47 4 85 35q42 33 52 89t-21 92.5t-89 36.5h-117z" />
    <glyph glyph-name="afii10020" unicode="&#x413;" horiz-adv-x="956" 
d="M1179 1600l-37 -208h-562l-245 -1392h-208l282 1600h770z" />
    <glyph glyph-name="afii10021" unicode="&#x414;" horiz-adv-x="1354" 
d="M1000 215l207 1177h-395q2 -81 -29 -259q-116 -653 -409 -918h626zM1209 215h81l-99 -560h-206l61 345h-816l-61 -345h-207l99 560h43q373 356 472 918q29 166 13 467h863z" />
    <glyph glyph-name="afii10022" unicode="&#x415;" horiz-adv-x="1137" 
d="M1294 1600l-36 -207h-655l-87 -489h655l-36 -207h-655l-86 -489h655l-37 -208h-862l282 1600h862z" />
    <glyph glyph-name="afii10024" unicode="&#x416;" horiz-adv-x="2002" 
d="M1288 1030l497 570h253l-534 -616l514 -984h-253l-422 806l-119 -137l-118 -669h-209l118 669l-72 137l-706 -806h-253l862 984l-317 616h252l298 -570l100 570h209z" />
    <glyph glyph-name="afii10025" unicode="&#x417;" horiz-adv-x="1103" 
d="M702 701h-410l36 207h410q112 0 184.5 69t92.5 187q20 113 -47.5 177.5t-176.5 64.5q-195 0 -473 -182l41 235q225 148 446 148q211 0 335 -117t90 -314q-53 -295 -178 -365q103 -57 47 -376q-35 -198 -200.5 -316t-376.5 -118q-225 0 -392 157l53 299q170 -244 377 -244
q112 0 210.5 61t117.5 170q21 119 -26.5 188t-159.5 69z" />
    <glyph glyph-name="afii10026" unicode="&#x418;" horiz-adv-x="1541" 
d="M1699 1600l-282 -1600h-208l213 1210l-1077 -1210h-222l282 1600h208l-219 -1242l1105 1242h200z" />
    <glyph glyph-name="afii10027" unicode="&#x419;" horiz-adv-x="1541" 
d="M1699 1600l-282 -1600h-208l213 1210l-1077 -1210h-222l282 1600h208l-219 -1242l1105 1242h200zM1031 1984q0 -62 13 -77q21 -26 58 -26q36 0 67 27q17 14 38 76h190q-43 -123 -112 -182q-95 -82 -211 -82q-117 0 -184 82q-52 63 -48 182h189z" />
    <glyph glyph-name="afii10028" unicode="&#x41a;" horiz-adv-x="1206" 
d="M490 755l-133 -755h-207l282 1600h207l-89 -504l467 504h262l-607 -658l445 -942h-251l-359 772z" />
    <glyph glyph-name="afii10029" unicode="&#x41b;" horiz-adv-x="1390" 
d="M502 323q-24 -138 -135 -233t-311 -95l37 208q113 0 154 34q38 33 50 97l223 1266h1046l-282 -1600h-208l245 1392h-631z" />
    <glyph glyph-name="afii10030" unicode="&#x41c;" horiz-adv-x="1812" 
d="M670 1600l361 -897l675 897h189l-282 -1600h-207l204 1156l-652 -864l-348 864l-204 -1156h-207l282 1600h189z" />
    <glyph glyph-name="afii10031" unicode="&#x41d;" horiz-adv-x="1208" 
d="M474 662l-117 -662h-207l282 1600h207l-129 -731h494l129 731h207l-282 -1600h-207l117 662h-494z" />
    <glyph glyph-name="afii10032" unicode="&#x41e;" horiz-adv-x="1889" 
d="M1767 1381q198 -240 138 -579t-342.5 -579t-621.5 -240t-536.5 240t-137.5 579t342 579t621 240t537 -240zM1193 1412q-253 0 -463 -178.5t-254 -431.5q-45 -253 102.5 -432t399.5 -179q253 0 463 179t255 432q44 253 -103 431.5t-400 178.5z" />
    <glyph glyph-name="afii10033" unicode="&#x41f;" horiz-adv-x="1260" 
d="M559 1392l-245 -1392h-208l282 1600h1047l-282 -1600h-208l245 1392h-631z" />
    <glyph glyph-name="afii10034" unicode="&#x420;" horiz-adv-x="1145" 
d="M447 512l-90 -512h-207l282 1600h454q189 -26 298 -159q131 -160 91 -384q-39 -226 -226.5 -385.5t-412.5 -159.5h-189zM602 1392l-118 -672h189q138 0 254 98.5t140 238.5q25 139 -56.5 237t-219.5 98h-189z" />
    <glyph glyph-name="afii10035" unicode="&#x421;" horiz-adv-x="1642" 
d="M1455 381l130 -139q-329 -259 -646 -259q-339 0 -536 239t-137 578q59 338 340.5 578t620.5 240q317 0 555 -259l-180 -141q-180 190 -412 190q-251 0 -461 -178t-254 -430q-45 -253 102 -431t398 -178q232 0 480 190z" />
    <glyph glyph-name="afii10036" unicode="&#x422;" horiz-adv-x="1054" 
d="M877 1393l-246 -1393h-208l246 1393h-373l36 207h954l-36 -207h-373z" />
    <glyph glyph-name="afii10037" unicode="&#x423;" horiz-adv-x="1388" 
d="M501 73q-123 -84 -223 -84q-69 0 -170 70l131 178q78 -47 104 -47q10 0 20 3q35 10 212 223l141 178l-479 1006h243l386 -808l615 808h236q-1034 -1403 -1216 -1527z" />
    <glyph glyph-name="afii10038" unicode="&#x424;" horiz-adv-x="1784" 
d="M863 434l125 707q-201 -5 -366 -108q-167 -105 -192 -246q-24 -140 105 -244t328 -109zM1034 222l-39 -222h-208l39 222q-277 7 -453 159q-198 166 -155 408q42 241 298 407q230 150 509 157l44 247h208l-44 -247q278 -7 456 -157q197 -166 155 -407q-43 -242 -298 -408
q-231 -152 -512 -159zM1196 1141l-125 -707q202 5 368 109q167 104 191 244q25 141 -104 246q-129 103 -330 108z" />
    <glyph glyph-name="afii10039" unicode="&#x425;" horiz-adv-x="1347" 
d="M50 0l657 873l-291 727h238l208 -521l394 521h238l-549 -727l351 -873h-238l-268 667l-502 -667h-238z" />
    <glyph glyph-name="afii10040" unicode="&#x426;" horiz-adv-x="1327" 
d="M1097 0h-984l282 1600h208l-245 -1392h697l245 1392h207l-244 -1386h79l-99 -559h-207z" />
    <glyph glyph-name="afii10041" unicode="&#x427;" horiz-adv-x="1284" 
d="M1108 700q-172 -157 -376 -157q-240 0 -366 145q-127 145 -74 443l82 469h215l-85 -478q-34 -194 46 -291q75 -91 212 -91h15q147 5 262 98q100 82 127 186l101 576h207l-282 -1600h-207z" />
    <glyph glyph-name="afii10042" unicode="&#x428;" horiz-adv-x="1826" 
d="M395 1600h208l-245 -1391h488l245 1391h208l-245 -1391h488l245 1391h208l-282 -1600h-1600z" />
    <glyph glyph-name="afii10043" unicode="&#x429;" horiz-adv-x="1821" 
d="M1584 0h-1471l282 1600h208l-245 -1391h488l245 1391h208l-245 -1391h488l245 1391h208l-244 -1385h78l-99 -560h-207z" />
    <glyph glyph-name="afii10044" unicode="&#x42a;" horiz-adv-x="1526" 
d="M622 1392h-354l37 208h561l-123 -698h420q180 -4 274 -133t62 -312q-34 -194 -174 -323.5t-321 -133.5h-627zM706 694l-86 -486h412q87 0 164.5 74t95.5 174q16 91 -35.5 164.5t-138.5 73.5h-412z" />
    <glyph glyph-name="afii10045" unicode="&#x42b;" horiz-adv-x="1597" 
d="M1776 1600l-282 -1600h-208l282 1600h208zM105 0l282 1600h208l-123 -698h429q179 -4 274 -133t63 -312q-35 -194 -175 -323.5t-321 -133.5h-637zM435 694l-85 -486h421q86 0 164 74t95 174q16 91 -36 164.5t-138 73.5h-421z" />
    <glyph glyph-name="afii10046" unicode="&#x42c;" horiz-adv-x="1213" 
d="M105 0l282 1600h208l-123 -698h429q179 -4 274 -133t63 -312q-35 -194 -175 -323.5t-321 -133.5h-637zM435 694l-85 -486h421q86 0 164 74t95 174q16 91 -36 164.5t-138 73.5h-421z" />
    <glyph glyph-name="afii10047" unicode="&#x42d;" horiz-adv-x="1797" 
d="M1642 906q19 161 -117 327q-148 179 -400 179t-462 -179q-42 -35 -98 -96h-248q141 174 223 244q283 240 622 240t536.5 -240t138.5 -579q-60 -340 -342.5 -580t-621.5 -240t-538 241q-117 141 -155 400h218q32 -157 112 -253q148 -179 400 -179t462 179q196 166 233 328
h-906l37 208h906z" />
    <glyph glyph-name="afii10048" unicode="&#x42e;" horiz-adv-x="2268" 
d="M1627 1412q-252 0 -462.5 -179t-255.5 -431q-44 -253 103.5 -432t399.5 -179q253 0 463.5 179t254.5 432q45 252 -102.5 431t-400.5 179zM687 696h-243l-123 -696h-208l282 1600h208l-123 -696h242q57 253 322 477q281 240 620 240q340 0 537.5 -240t137.5 -579
q-60 -340 -342 -580t-622 -240q-339 0 -536 241q-184 222 -152 473z" />
    <glyph glyph-name="afii10049" unicode="&#x42f;" horiz-adv-x="1171" 
d="M906 1391q-138 0 -253.5 -97.5t-140.5 -236.5q-24 -140 57 -238.5t219 -98.5h189l118 671h-189zM342 0h-251l451 547q-55 14 -147 125q-130 159 -91 385q40 224 227 384q156 132 355 159h453l-282 -1600h-207l90 511h-182z" />
    <glyph glyph-name="afii10065" unicode="&#x430;" horiz-adv-x="1401" 
d="M1124 466l27 152q-1 97 -65 176q-87 104 -234 104q-148 0 -270.5 -104t-148.5 -252q-26 -147 60 -251.5t234 -104.5q147 0 270 104q92 79 127 176zM1211 957l12 72h208l-181 -1030h-208l23 129q-178 -155 -376 -155q-236 0 -373 166.5t-95 402.5q41 236 237 402.5
t432 166.5q198 0 321 -154z" />
    <glyph glyph-name="afii10066" unicode="&#x431;" horiz-adv-x="1368" 
d="M459 542q-26 -147 59.5 -251t233.5 -104q147 0 270 104t149 251q26 148 -60 253t-233 105q-148 0 -270.5 -105t-148.5 -253zM498 956q190 156 417 156q236 0 372.5 -166.5t95.5 -403.5q-42 -234 -237 -401t-432 -167q-235 0 -371 168q-123 147 -119.5 335t30.5 342
q56 314 243 517q235 257 491 257q53 0 105 -11q119 -25 193 -25q163 0 192 46l-30 -171q-69 -80 -193 -80q-82 0 -208 28q-41 9 -79 9q-176 0 -335 -187q-88 -103 -135 -246z" />
    <glyph glyph-name="afii10067" unicode="&#x432;" horiz-adv-x="927" 
d="M430 624h133v-2q126 6 162.5 37t42.5 66q6 34 -19.5 64.5t-149.5 36.5l-1 -2h-133zM392 408l-35 -200h133l-1 -2q126 6 162.5 37t42.5 65t-19.5 65t-149.5 37v-2h-133zM294 1029h468q84 0 163 -73.5t51 -230.5v-1q-26 -148 -199 -209q151 -59 125 -206v-1
q-28 -158 -132.5 -233t-188.5 -75h-468z" />
    <glyph glyph-name="afii10068" unicode="&#x433;" horiz-adv-x="773" 
d="M465 821l-145 -821h-207l181 1029h580l-36 -208h-373z" />
    <glyph glyph-name="afii10069" unicode="&#x434;" horiz-adv-x="1123" 
d="M1032 215h73l-99 -560h-207l61 345h-596l-61 -345h-207l99 560h110q-8 -7 -9 -8h1q200 171 263 528q14 75 18 142q3 40 -2 152h699zM470 208h354l108 614h-247l-16 -87q-69 -395 -199 -527z" />
    <glyph glyph-name="afii10070" unicode="&#x435;" horiz-adv-x="1262" 
d="M511 233q44 -46 181 -46q148 0 271 104q16 14 64 62l194 -74q-94 -105 -134 -139q-197 -167 -433 -167q-235 0 -372.5 167t-95.5 403q41 236 237.5 403t431.5 167q202 0 333 -122q21 -21 41 -45q8 -10 46 -63l-123 -105zM970 873q-30 27 -152 27q-147 0 -270 -104.5
t-149 -252.5q-22 -121 -1 -157z" />
    <glyph glyph-name="afii10072" unicode="&#x436;" horiz-adv-x="1458" 
d="M960 722l318 307h265l-338 -344l266 -685h-246l-192 518l-130 -121l-70 -397h-209l70 397l-88 121l-374 -518h-246l508 685l-218 344h265l210 -307l54 307h209z" />
    <glyph glyph-name="afii10073" unicode="&#x437;" horiz-adv-x="930" 
d="M765 518q168 -45 139 -208q-23 -133 -155 -222t-288 -89q-157 0 -258 89t-78 222l13 71h213l-13 -71q-7 -45 35 -82t121 -37q78 0 134 37t63 82q8 44 -30 78q-28 23 -55 52h-233l30 166h258q20 27 45 43q51 34 59 78t-34.5 81t-120.5 37q-79 0 -139 -39q-46 -31 -74 -122
h-211q50 185 173 268q128 85 285 85q156 0 256.5 -88.5t77.5 -221.5q-29 -163 -213 -209z" />
    <glyph glyph-name="afii10074" unicode="&#x438;" horiz-adv-x="1078" 
d="M283 1029h207l-113 -642l599 642h181l-181 -1029h-206l115 651l-568 -608l-8 -43h-207z" />
    <glyph glyph-name="afii10075" unicode="&#x439;" horiz-adv-x="1078" 
d="M283 1029h207l-113 -642l599 642h181l-181 -1029h-206l115 651l-568 -608l-8 -43h-207zM700 1413q0 -62 12 -77q21 -26 58 -26q36 0 67 27q18 14 39 76h190q-44 -123 -112 -182q-96 -82 -212 -82q-117 0 -183 82q-52 63 -48 182h189z" />
    <glyph glyph-name="afii10076" unicode="&#x43a;" horiz-adv-x="947" 
d="M1032 1029l-339 -344l267 -685h-246l-192 518l-131 -122l-70 -396h-208l181 1029h208l-54 -308l319 308h265z" />
    <glyph glyph-name="afii10077" unicode="&#x43b;" horiz-adv-x="1164" 
d="M1243 1029l-181 -1029h-207l145 821h-480l-97 -550q-44 -251 -367 -277l36 205q114 13 124 70l134 760h893z" />
    <glyph glyph-name="afii10078" unicode="&#x43c;" horiz-adv-x="1160" 
d="M641 343l418 686h192l-181 -1029h-207l82 464l-283 -464h-164l-118 464l-82 -464h-207l181 1029h192z" />
    <glyph glyph-name="afii10079" unicode="&#x43d;" horiz-adv-x="1074" 
d="M984 0h-206l79 449h-480l-79 -449h-207l181 1029h207l-65 -372h480l65 372h206z" />
    <glyph glyph-name="afii10080" unicode="&#x43e;" horiz-adv-x="1318" 
d="M855 1113q236 0 373 -167t96 -403q-42 -236 -238 -403t-432 -167q-235 0 -372.5 167t-95.5 403q41 236 237.5 403t431.5 167zM547 795q-123 -105 -149 -252q-26 -148 60 -252t234 -104t271 104t149 252q26 147 -60 252t-234 105t-271 -105z" />
    <glyph glyph-name="afii10081" unicode="&#x43f;" horiz-adv-x="1097" 
d="M454 821l-145 -821h-207l181 1029h893l-181 -1029h-206l145 821h-480z" />
    <glyph glyph-name="afii10082" unicode="&#x440;" horiz-adv-x="1375" 
d="M467 623l-29 -161q3 -95 67 -172q86 -104 234 -104t271 104.5t149 252.5q26 147 -60 252t-234 105t-271 -105q-91 -77 -127 -172zM380 128l-84 -474h-207l242 1375h207l-16 -93q181 176 380 176q236 0 373 -166.5t96 -402.5q-42 -236 -238 -403t-432 -167
q-199 0 -321 155z" />
    <glyph glyph-name="afii10083" unicode="&#x441;" horiz-adv-x="1262" 
d="M1027 353l194 -74q-94 -105 -134 -139q-197 -167 -433 -167q-235 0 -372.5 167t-95.5 403q41 236 237.5 403t431.5 167q236 0 374 -167q28 -34 86 -137l-221 -76q-31 49 -43 63q-85 104 -233 104q-147 0 -270 -104.5t-149 -252.5q-26 -147 60 -251.5t233 -104.5
q148 0 271 104q16 14 64 62z" />
    <glyph glyph-name="afii10084" unicode="&#x442;" horiz-adv-x="1135" 
d="M816 821l-145 -821h-206l145 821h-374l37 208h954l-37 -208h-374z" />
    <glyph glyph-name="afii10085" unicode="&#x443;" horiz-adv-x="1139" 
d="M342 -346h-219l375 575l-242 800h233l162 -563l360 563h232z" />
    <glyph glyph-name="afii10086" unicode="&#x444;" horiz-adv-x="2191" 
d="M1311 638l-34 -192q6 -84 65 -155q85 -105 232 -105q148 0 271 104.5t149 251.5q26 148 -60 253t-234 105q-147 0 -269 -105q-85 -72 -120 -157zM1069 446l34 192q-5 85 -64 157q-87 105 -234 105t-270 -105t-149 -253q-26 -147 60 -251.5t233 -104.5t271 105
q85 71 119 155zM1166 996l74 419h208l-74 -419q169 114 363 114q237 0 374 -165.5t95 -402.5q-41 -234 -236.5 -401t-432.5 -167q-195 0 -322 116l-74 -420h-208l74 420q-169 -116 -365 -116q-236 0 -372.5 167t-95.5 401q42 237 237 402.5t431 165.5q195 0 324 -114z" />
    <glyph glyph-name="afii10087" unicode="&#x445;" horiz-adv-x="1031" 
d="M1087 1029l-354 -470l223 -559h-239l-140 346l-261 -346h-241l422 559l-189 470h239l105 -257l194 257h241z" />
    <glyph glyph-name="afii10088" unicode="&#x446;" horiz-adv-x="1127" 
d="M873 0h-760l182 1030h207l-145 -822h480l145 822h206l-144 -815h73l-99 -560h-206z" />
    <glyph glyph-name="afii10089" unicode="&#x447;" horiz-adv-x="1241" 
d="M1017 488q-161 -161 -356 -161q-241 0 -357 147q-115 145 -63 441l20 114h216l-23 -123q-35 -195 36 -292q66 -90 200 -90h15q147 5 249 96q94 82 119 187l39 222h207l-181 -1029h-207z" />
    <glyph glyph-name="afii10090" unicode="&#x448;" horiz-adv-x="1387" 
d="M283 1029h208l-144 -820h279l144 820h208l-144 -820h280l144 820h207l-181 -1029h-1182z" />
    <glyph glyph-name="afii10091" unicode="&#x449;" horiz-adv-x="1430" 
d="M1178 0h-1054l181 1029h208l-144 -820h279l144 820h208l-144 -820h280l144 820h207l-143 -814h79l-99 -560h-207z" />
    <glyph glyph-name="afii10092" unicode="&#x44a;" horiz-adv-x="1242" 
d="M268 0l145 821h-234l37 208h440l-66 -371h389v-4q81 -4 166 -91q89 -93 64 -234v-1q-25 -140 -147 -233q-116 -88 -199 -95h-595zM511 208h261v-2q129 6 179 42q41 29 50 80q9 53 -21 83q-37 35 -165 41v-2h-261z" />
    <glyph glyph-name="afii10093" unicode="&#x44b;" horiz-adv-x="1476" 
d="M357 208h365l-1 -2q129 6 180 42q40 29 49 80q9 53 -21 83q-37 35 -164 41l-1 -2h-365zM1363 0h-207l181 1029h207zM113 0l181 1029h207l-65 -371h492l-1 -4q83 -4 166 -91q90 -93 65 -234v-1q-25 -140 -147 -233q-116 -95 -199 -95h-699z" />
    <glyph glyph-name="afii10094" unicode="&#x44c;" horiz-adv-x="1075" 
d="M357 208h260l-1 -2q130 6 180 42q41 29 50 80q9 53 -22 83q-36 35 -164 41l-1 -2h-260zM113 0l181 1029h207l-65 -371h388l-1 -4q82 -4 166 -91q90 -93 65 -234v-1q-25 -140 -147 -233q-117 -95 -199 -95h-595z" />
    <glyph glyph-name="afii10095" unicode="&#x44d;" horiz-adv-x="1288" 
d="M1083 527h-568l36 209h526q-6 4 -50 59q-86 105 -234 105q-147 0 -270 -105q-51 -43 -107 -131h-218q95 191 200 281q197 167 433 167q234 0 371.5 -166.5t95.5 -403.5q-41 -234 -237 -401t-431 -167q-237 0 -373 167q-25 30 -110 156h282q100 -110 239 -110
q148 0 270 104q116 99 145 236z" />
    <glyph glyph-name="afii10096" unicode="&#x44e;" horiz-adv-x="1725" 
d="M816 542q-26 -147 60 -251t234 -104q147 0 270 104t149 251q26 148 -60 253t-233 105q-148 0 -271 -105t-149 -253zM592 449h-193l-79 -449h-207l181 1029h207l-65 -372h196q39 143 211 288q195 167 430 167q236 0 372.5 -166.5t95.5 -403.5q-42 -234 -237.5 -401
t-431.5 -167q-235 0 -371 168q-128 153 -109 307z" />
    <glyph glyph-name="afii10097" unicode="&#x44f;" horiz-adv-x="972" 
d="M796 822h-157v2q-129 -6 -177 -41q-42 -30 -51 -81q-9 -52 22 -81q36 -36 163 -42v1h157zM1038 1029l-181 -1029h-206l66 373h-121l-4 -7l-74 -114l-161 -252h-229l248 386q-35 4 -109 81q-89 93 -64 234v1q25 141 147 233q115 88 198 94h490z" />
    <glyph glyph-name="afii10071" unicode="&#x451;" horiz-adv-x="1262" 
d="M511 233q44 -46 181 -46q148 0 271 104q16 14 64 62l194 -74q-94 -105 -134 -139q-197 -167 -433 -167q-235 0 -372.5 167t-95.5 403q41 236 237.5 403t431.5 167q202 0 333 -122q21 -21 41 -45q8 -10 46 -63l-123 -105zM970 873q-30 27 -152 27q-147 0 -270 -104.5
t-149 -252.5q-22 -121 -1 -157zM791 1396q36 -42 25 -102q-11 -61 -61.5 -103t-109.5 -42q-60 0 -95 42t-24 103q11 60 60.5 102t109.5 42q59 0 95 -42zM1167 1396q36 -42 25 -102q-11 -61 -61.5 -103t-109.5 -42q-60 0 -95 42t-24 103q11 60 60.5 102t109.5 42q59 0 95 -42
z" />
    <glyph glyph-name="afii10099" unicode="&#x452;" horiz-adv-x="1066" 
d="M860 660q16 90 -37.5 153.5t-142.5 63.5t-164 -63q-34 -28 -45 -45l-136 -769h-208l209 1183h-104l36 207h104l37 210h208l-37 -210h203l-36 -207h-203l-38 -215q87 116 240 116q156 0 253.5 -118.5t70.5 -296.5l-116 -659q-25 -138 -136 -233t-311 -95l37 208
q113 0 154 34q38 33 50 97z" />
    <glyph glyph-name="afii10100" unicode="&#x453;" horiz-adv-x="773" 
d="M465 821l-145 -821h-207l181 1029h580l-36 -208h-373zM712 1407h252l-321 -279h-197z" />
    <glyph glyph-name="afii10101" unicode="&#x454;" horiz-adv-x="1288" 
d="M466 736h526l-36 -209h-570q-19 -137 63 -236q86 -104 233 -104q140 0 278 110h281q-128 -126 -164 -156q-196 -167 -433 -167q-234 0 -371.5 167t-96.5 401q42 237 238.5 403.5t430.5 166.5q237 0 373 -167q73 -90 102 -281h-218q-26 88 -60 131q-87 105 -235 105
q-147 0 -270 -105q-64 -55 -71 -59z" />
    <glyph glyph-name="afii10102" unicode="&#x455;" horiz-adv-x="882" 
d="M397 221q31 -36 82 -36t94 36t52 89q9 51 -21 87q-20 25 -93 77q-101 61 -140 108q-68 82 -47 197q20 116 116.5 198.5t212.5 82.5t179 -78q46 -55 49 -123l-211 -58q-3 25 -9 33q-14 18 -44 18t-55.5 -21.5t-30.5 -51.5q-6 -30 12 -51q16 -18 75 -61q112 -68 158 -124
q80 -98 56 -233q-24 -138 -138 -235.5t-252 -97.5q-137 0 -216 98q-56 67 -59 167l214 44q1 -46 16 -65z" />
    <glyph glyph-name="afii10103" unicode="&#x456;" horiz-adv-x="541" 
d="M555 1029l-181 -1029h-207l181 1029h207zM621.5 1410q35.5 -42 24.5 -103q-10 -61 -60.5 -103t-110.5 -42q-59 0 -94.5 42t-25.5 103q11 61 61.5 103t109.5 42q60 0 95.5 -42z" />
    <glyph glyph-name="afii10104" unicode="&#x457;" 
d="M559 1030l-182 -1030h-207l182 1030h207zM433.5 1396q35.5 -42 25.5 -102q-11 -61 -61.5 -103t-109.5 -42q-60 0 -95 42t-24 103q10 60 60 102t110 42q59 0 94.5 -42zM809.5 1396q35.5 -42 25.5 -102q-11 -61 -61.5 -103t-109.5 -42q-60 0 -95 42t-24 103q10 60 60 102
t110 42q59 0 94.5 -42z" />
    <glyph glyph-name="afii10105" unicode="&#x458;" horiz-adv-x="561" 
d="M47 -10q114 12 125 70l171 969h207l-171 -967q-45 -253 -368 -278zM615.5 1410q35.5 -42 25.5 -103q-11 -61 -61.5 -103t-110.5 -42q-59 0 -94.5 42t-24.5 103q10 61 60.5 103t109.5 42q60 0 95.5 -42z" />
    <glyph glyph-name="afii10106" unicode="&#x459;" horiz-adv-x="1821" 
d="M1103 208h260l-1 -3q130 7 180 43q41 29 50 80q9 53 -21 83q-37 35 -165 40l-1 -1h-260zM1003 821h-481l-97 -550q-44 -251 -367 -277l36 205q114 13 124 70l134 760h893l-65 -370l390 -2l-1 -3q82 -4 166 -91q90 -92 65 -234v-1q-25 -141 -147 -233q-116 -87 -199 -95
h-596z" />
    <glyph glyph-name="afii10107" unicode="&#x45a;" horiz-adv-x="1751" 
d="M1032 208h261l-1 -2q129 6 180 42q41 29 50 80q9 53 -22 83q-36 35 -164 41l-1 -2h-261zM789 0l79 449h-480l-79 -449h-207l181 1029h207l-65 -372h480l65 372h206l-65 -371h388l-1 -4q83 -4 167 -91q89 -93 64 -234v-1q-25 -140 -146 -233q-116 -88 -200 -95h-594z" />
    <glyph glyph-name="afii10108" unicode="&#x45b;" horiz-adv-x="1066" 
d="M372 1390l37 210h208l-37 -210h203l-36 -207h-203l-38 -215q67 116 240 116q156 0 253.5 -118.5t70.5 -296.5l-118 -669h-208l116 660q16 90 -37.5 153.5t-142.5 63.5t-164 -63q-34 -28 -45 -45l-136 -769h-208l209 1183h-104l36 207h104z" />
    <glyph glyph-name="afii10109" unicode="&#x45c;" horiz-adv-x="947" 
d="M1032 1029l-339 -344l267 -685h-246l-192 518l-131 -122l-70 -396h-208l181 1029h208l-54 -308l319 308h265zM845 1407h252l-321 -279h-197z" />
    <glyph glyph-name="afii10110" unicode="&#x45e;" horiz-adv-x="1139" 
d="M342 -346h-219l375 575l-242 800h233l162 -563l360 563h232zM729 1413q0 -62 13 -77q21 -26 58 -26q36 0 67 27q17 14 38 76h190q-44 -123 -112 -182q-95 -82 -211 -82q-117 0 -184 82q-52 63 -48 182h189z" />
    <glyph glyph-name="afii10193" unicode="&#x45f;" horiz-adv-x="1097" 
d="M445 0h-343l181 1029h207l-144 -821h480l144 821h206l-181 -1029h-343l-61 -345h-207z" />
    <glyph glyph-name="afii10050" unicode="&#x490;" horiz-adv-x="1012" 
d="M1143 1394l-1 -2h-562l-245 -1392h-208l282 1600h622l44 250h207l-80 -456h-59z" />
    <glyph glyph-name="afii10098" unicode="&#x491;" horiz-adv-x="806" 
d="M465 821l-145 -821h-207l181 1029h430l45 250h207l-81 -458h-430z" />
    <glyph glyph-name="Wgrave" unicode="&#x1e80;" horiz-adv-x="1686" 
d="M792 299l229 1301h207l-229 -1301q7 -17 26 -42q54 -62 143 -62t165.5 63.5t91.5 152.5l210 1189h208l-211 -1197q-34 -169 -176 -290q-147 -126 -324 -126q-176 0 -270 124q-137 -124 -313 -124q-177 0 -279 126q-101 120 -74 290l211 1197h207l-210 -1189
q-15 -89 38.5 -152.5t142.5 -63.5q90 0 165 62q30 25 42 42zM1299 1699h-197l-223 279h252z" />
    <glyph glyph-name="wgrave" unicode="&#x1e81;" horiz-adv-x="1418" 
d="M658 305l127 724h207l-124 -707q-10 -55 20.5 -91.5t81.5 -36.5q123 0 150 153l120 682h208l-127 -721q-28 -132 -136 -224q-115 -98 -252 -98q-138 0 -210 96q-108 -96 -245 -96q-138 0 -217 98q-76 92 -57 224l127 721h207l-120 -682q-27 -153 97 -153q51 0 95 36
q36 31 48 75zM1064 1128h-197l-223 279h252z" />
    <glyph glyph-name="Wacute" unicode="&#x1e82;" horiz-adv-x="1686" 
d="M792 299l229 1301h207l-229 -1301q7 -17 26 -42q54 -62 143 -62t165.5 63.5t91.5 152.5l210 1189h208l-211 -1197q-34 -169 -176 -290q-147 -126 -324 -126q-176 0 -270 124q-137 -124 -313 -124q-177 0 -279 126q-101 120 -74 290l211 1197h207l-210 -1189
q-15 -89 38.5 -152.5t142.5 -63.5q90 0 165 62q30 25 42 42zM1252 1978h252l-321 -279h-197z" />
    <glyph glyph-name="wacute" unicode="&#x1e83;" horiz-adv-x="1418" 
d="M658 305l127 724h207l-124 -707q-10 -55 20.5 -91.5t81.5 -36.5q123 0 150 153l120 682h208l-127 -721q-28 -132 -136 -224q-115 -98 -252 -98q-138 0 -210 96q-108 -96 -245 -96q-138 0 -217 98q-76 92 -57 224l127 721h207l-120 -682q-27 -153 97 -153q51 0 95 36
q36 31 48 75zM1017 1407h252l-321 -279h-197z" />
    <glyph glyph-name="Wdieresis" unicode="&#x1e84;" horiz-adv-x="1686" 
d="M792 299l229 1301h207l-229 -1301q7 -17 26 -42q54 -62 143 -62t165.5 63.5t91.5 152.5l210 1189h208l-211 -1197q-34 -169 -176 -290q-147 -126 -324 -126q-176 0 -270 124q-137 -124 -313 -124q-177 0 -279 126q-101 120 -74 290l211 1197h207l-210 -1189
q-15 -89 38.5 -152.5t142.5 -63.5q90 0 165 62q30 25 42 42zM1103.5 1967q35.5 -42 25.5 -102q-11 -61 -61.5 -103t-109.5 -42q-60 0 -95 42t-24 103q10 60 60 102t110 42q59 0 94.5 -42zM1479.5 1967q35.5 -42 25.5 -102q-11 -61 -61.5 -103t-109.5 -42q-60 0 -95 42
t-24 103q10 60 60 102t110 42q59 0 94.5 -42z" />
    <glyph glyph-name="wdieresis" unicode="&#x1e85;" horiz-adv-x="1418" 
d="M658 305l127 724h207l-124 -707q-10 -55 20.5 -91.5t81.5 -36.5q123 0 150 153l120 682h208l-127 -721q-28 -132 -136 -224q-115 -98 -252 -98q-138 0 -210 96q-108 -96 -245 -96q-138 0 -217 98q-76 92 -57 224l127 721h207l-120 -682q-27 -153 97 -153q51 0 95 36
q36 31 48 75zM868.5 1396q35.5 -42 25.5 -102q-11 -61 -61.5 -103t-109.5 -42q-60 0 -95 42t-24 103q10 60 60 102t110 42q59 0 94.5 -42zM1244.5 1396q35.5 -42 25.5 -102q-11 -61 -61.5 -103t-109.5 -42q-60 0 -95 42t-24 103q10 60 60 102t110 42q59 0 94.5 -42z" />
    <glyph glyph-name="Ygrave" unicode="&#x1ef2;" horiz-adv-x="1414" 
d="M716 642l-384 958h238l290 -724l547 724h239l-723 -958l-113 -642h-207zM1163 1699h-197l-223 279h252z" />
    <glyph glyph-name="ygrave" unicode="&#x1ef3;" horiz-adv-x="1139" 
d="M342 -346h-219l375 575l-242 800h233l162 -563l360 563h232zM924 1128h-197l-223 279h252z" />
    <glyph glyph-name="endash" unicode="&#x2013;" horiz-adv-x="935" 
d="M175 712h835l-36 -207h-835z" />
    <glyph glyph-name="emdash" unicode="&#x2014;" horiz-adv-x="1522" 
d="M175 712h1422l-36 -207h-1422z" />
    <glyph glyph-name="afii00208" unicode="&#x2015;" horiz-adv-x="3034" 
d="M50 712h2071l-36 -207h-2071z" />
    <glyph glyph-name="underscoredbl" unicode="&#x2017;" horiz-adv-x="1096" 
d="M5 -111h1046l-36 -207h-1046zM42 97h1046l-36 -207h-1046z" />
    <glyph glyph-name="quoteleft" unicode="&#x2018;" horiz-adv-x="410" 
d="M551 1432q34 -42 24 -103q-11 -60 -61 -102t-110 -42q-59 0 -94.5 42t-24.5 102q5 32 23 62l146 219h189z" />
    <glyph glyph-name="quoteright" unicode="&#x2019;" horiz-adv-x="410" 
d="M351 1363q-34 42 -23 103q10 60 60 102t110 42q59 0 94.5 -42t25.5 -102q-6 -32 -23 -62l-147 -219h-189z" />
    <glyph glyph-name="quotesinglbase" unicode="&#x201a;" horiz-adv-x="410" 
d="M115 23q-34 42 -23 103q10 60 60 102t110 42q59 0 94.5 -42t25.5 -102q-6 -32 -23 -62l-147 -219h-189z" />
    <glyph glyph-name="quotereversed" unicode="&#x201b;" horiz-adv-x="410" 
d="M568 1185h-189l-69 219q-7 30 -1 62q10 60 60.5 102t109.5 42q60 0 95 -42t25 -102q-11 -61 -61 -103z" />
    <glyph glyph-name="quotedblleft" unicode="&#x201c;" horiz-adv-x="744" 
d="M552 1432q34 -42 24 -103q-11 -60 -61 -102t-110 -42q-59 0 -94.5 42t-24.5 102q5 32 23 62l146 219h189zM884 1432q35 -42 24 -103q-10 -60 -60 -102t-110 -42q-59 0 -94.5 42t-25.5 102q6 32 23 62l147 219h189z" />
    <glyph glyph-name="quotedblright" unicode="&#x201d;" horiz-adv-x="744" 
d="M685 1363q-35 42 -24 103q11 60 61 102t110 42q59 0 94.5 -42t24.5 -102q-5 -32 -23 -62l-146 -219h-189zM352 1363q-34 42 -23 103q10 60 60 102t110 42q59 0 94.5 -42t25.5 -102q-6 -32 -23 -62l-147 -219h-189z" />
    <glyph glyph-name="quotedblbase" unicode="&#x201e;" horiz-adv-x="743" 
d="M105 -34q-34 42 -23 103q10 60 60 102t110 42q59 0 94.5 -42t25.5 -102q-6 -32 -23 -62l-147 -219h-189zM438 -34q-35 42 -24 103q11 60 61 102t110 42q59 0 94.5 -42t24.5 -102q-5 -32 -23 -62l-146 -219h-189z" />
    <glyph glyph-name="dagger" unicode="&#x2020;" horiz-adv-x="839" 
d="M612 1596l36 201h177l-36 -201h231l-31 -177h-231l-222 -1259h-177l222 1259h-231l31 177h231z" />
    <glyph glyph-name="daggerdbl" unicode="&#x2021;" horiz-adv-x="839" 
d="M581 1419h-231l32 177h231l35 201h177l-35 -201h231l-32 -177h-231l-57 -323h231l-31 -178h-231l-134 -758h-177l134 758h-231l31 178h231z" />
    <glyph glyph-name="bullet" unicode="&#x2022;" horiz-adv-x="860" 
d="M730.5 891q49.5 -59 34.5 -143q-15 -85 -85.5 -143.5t-152.5 -58.5q-84 0 -133.5 58.5t-34.5 143.5q15 84 85.5 143t154.5 59q82 0 131.5 -59z" />
    <glyph glyph-name="ellipsis" unicode="&#x2026;" horiz-adv-x="2048" 
d="M389.5 235q35.5 -42 24.5 -102q-11 -62 -61 -104t-110 -42q-59 0 -94.5 42t-24.5 104q11 60 61 102t109 42q60 0 95.5 -42zM1072.5 235q35.5 -42 24.5 -102q-11 -62 -61 -104t-110 -42q-59 0 -94.5 42t-24.5 104q11 60 61 102t109 42q60 0 95.5 -42zM1755.5 235
q35.5 -42 24.5 -102q-11 -62 -61 -104t-110 -42q-59 0 -94.5 42t-24.5 104q11 60 61 102t109 42q60 0 95.5 -42z" />
    <glyph glyph-name="perthousand" unicode="&#x2030;" horiz-adv-x="1771" 
d="M538 1040q-29 0 -53 -20.5t-29 -49.5q-5 -30 11.5 -50.5t45.5 -20.5t54 20.5t30 50.5q5 29 -12.5 49.5t-46.5 20.5zM1502 487q-30 0 -54 -20.5t-30 -49.5q-5 -30 12 -50.5t47 -20.5q28 0 52.5 20.5t29.5 50.5q6 29 -11.5 49.5t-45.5 20.5zM994 487q-29 0 -53 -20.5
t-30 -49.5q-5 -30 12 -50.5t46 -20.5t53.5 20.5t29.5 50.5q6 29 -11.5 49.5t-46.5 20.5zM1403 1290l-1149 -1311l-149 118l1148 1310zM1216 306q-28 -46 -74 -84q-94 -81 -209 -81q-114 0 -180.5 80.5t-46.5 195.5q21 114 115.5 194.5t208.5 80.5q115 0 181 -80
q32 -39 44 -85q28 46 73 85q95 80 210 80q114 0 180.5 -80.5t45.5 -194.5q-20 -115 -114.5 -195.5t-208.5 -80.5q-115 0 -182 81q-31 38 -43 84zM801 970q-20 -114 -115 -194.5t-209 -80.5t-180 80.5t-46 194.5t114.5 194.5t208.5 80.5t180.5 -80.5t46.5 -194.5z" />
    <glyph glyph-name="minute" unicode="&#x2032;" horiz-adv-x="458" 
d="M125 920v677h207v-677h-207z" />
    <glyph glyph-name="second" unicode="&#x2033;" horiz-adv-x="624" 
d="M55 920v677h207v-677h-207zM361 920v677h207v-677h-207z" />
    <glyph glyph-name="guilsinglleft" unicode="&#x2039;" horiz-adv-x="744" 
d="M186 489l645 581l-49 -278l-336 -303l229 -304l-49 -280z" />
    <glyph glyph-name="guilsinglright" unicode="&#x203a;" horiz-adv-x="744" 
d="M83 -95l49 280l337 304l-230 303l49 278l441 -581z" />
    <glyph glyph-name="exclamdbl" unicode="&#x203c;" horiz-adv-x="1082" 
d="M414.5 235q35.5 -42 24.5 -102q-11 -62 -61 -104t-110 -42q-59 0 -94.5 42t-24.5 104q11 60 61 102t109 42q60 0 95.5 -42zM655 1600l-202 -1145h-207l202 1145h207zM955.5 235q35.5 -42 24.5 -102q-11 -62 -61 -104t-110 -42q-59 0 -94.5 42t-24.5 104q11 60 61 102
t109 42q60 0 95.5 -42zM1196 1600l-202 -1145h-207l202 1145h207z" />
    <glyph glyph-name="uni203E" unicode="&#x203e;" horiz-adv-x="1096" 
d="M342 1794h1046l-37 -208h-1046z" />
    <glyph glyph-name="fraction" unicode="&#x2044;" horiz-adv-x="185" 
d="M932 1396l-1147 -1310l-150 118l1149 1311z" />
    <glyph glyph-name="fraction" unicode="&#x2215;" horiz-adv-x="185" 
d="M932 1396l-1147 -1310l-150 118l1149 1311z" />
    <glyph glyph-name="uni207F" unicode="&#x207f;" horiz-adv-x="1136" 
d="M581 1268l-133 -752h-207l182 1030h207l-20 -111q95 165 271 165q146 0 243.5 -118.5t69.5 -297.5l-118 -668h-207l116 660q16 90 -37.5 153.5t-142.5 63.5t-165 -63q-44 -36 -59 -62z" />
    <glyph glyph-name="franc" unicode="&#x20a3;" horiz-adv-x="1069" 
d="M297 556l185 1044h770l-37 -207h-562l-86 -489h562l-37 -207h-562l-25 -141h265l-36 -207h-265l-62 -349h-208l62 349h-149l36 207h149z" />
    <glyph glyph-name="lira" unicode="&#x20a4;" horiz-adv-x="1214" 
d="M664 509q-40 -227 -184 -352q91 52 188 52q26 0 53 -4q125 -18 199 -18q66 0 193 31l3 -204q-145 -34 -233 -34q-89 0 -177 21q-81 18 -143 18q-52 0 -89 -12q-98 -33 -240 -99l-119 179q180 138 212 170q103 101 132 254h-219l36 206h173q0 3 -26 82q-78 176 -64 340
q2 20 6 41q26 150 146 269q134 132 314 149q21 1 40 1q150 0 252 -99q113 -114 99 -287q-1 -24 -5 -47q-12 -71 -80 -182l-181 65q46 89 53 126q2 11 3 21q7 87 -51 144q-51 50 -126 50q-11 0 -21 -1q-90 -7 -159 -75q-60 -60 -73 -134q-2 -12 -3 -23q-9 -92 26 -211
q60 -132 67 -229h194l-36 -206z" />
    <glyph glyph-name="peseta" unicode="&#x20a7;" horiz-adv-x="2023" 
d="M581 1392l-118 -672h170q125 0 231 98.5t130 238.5q25 139 -46.5 237t-196.5 98h-170zM1094 822q-50 -81 -124 -150q-171 -160 -374 -160h-170l-90 -512h-186l282 1600h409q169 -26 265 -159q115 -160 75 -384q-2 -14 -5 -28h41l69 386h207l-69 -386h185l-6 -34
q88 65 191 65q116 0 179 -78q45 -55 48 -123l-211 -58q-2 25 -8 33q-15 18 -45 18t-55 -21.5t-31 -51.5q-5 -30 12 -51q16 -18 76 -61q112 -68 158 -124q79 -98 56 -233q-25 -138 -138.5 -235.5t-251.5 -97.5q-137 0 -217 98q-55 67 -58 167l213 44q1 -46 17 -65
q31 -36 82 -36t93.5 36t52.5 89q9 51 -21 87q-21 25 -93 77q-102 61 -140 108q-68 82 -48 197q4 22 11 43h-87l-145 -822h-207l145 822h-87z" />
    <glyph glyph-name="Euro" unicode="&#x20ac;" horiz-adv-x="1507" 
d="M440 971l11 61q41 235 237 401.5t431 166.5q236 0 408 -211l-176 -149q-122 147 -270 147t-270.5 -104t-148.5 -251l-11 -61h620l-75 -188h-578l-10 -56h581l-74 -187l-539 3q-27 -148 59.5 -252t234.5 -104t270 105q77 65 137 189h215q-94 -225 -228 -340
q-196 -166 -432 -166q-235 0 -372 166.5t-95 401.5l-1 -3h-169l74 187h128l10 56h-130l74 188h89z" />
    <glyph glyph-name="afii61248" unicode="&#x2105;" horiz-adv-x="1962" 
d="M938 1034l173 -66q-86 -96 -117 -123q-153 -129 -336 -129t-289.5 129.5t-74.5 312.5q33 183 185 312.5t335 129.5t290 -130q22 -26 75 -120l-197 -68q-29 44 -37 55q-60 72 -164 72t-190.5 -73.5t-105.5 -177.5q-18 -104 42.5 -178t164.5 -74t191 74q12 10 55 54z
M1781 1396l-1147 -1310l-150 118l1149 1311zM1583 865q183 0 289.5 -129.5t74.5 -312.5q-33 -183 -185 -312.5t-335 -129.5t-290 129.5t-74 312.5q32 183 184.5 312.5t335.5 129.5zM1357.5 601q-86.5 -74 -104.5 -178q-19 -104 41.5 -177.5t165.5 -73.5q104 0 191 73.5
t106 177.5q18 104 -43 178t-165 74q-105 0 -191.5 -74z" />
    <glyph glyph-name="afii61352" unicode="&#x2116;" horiz-adv-x="2162" 
d="M2211 1447h157l-125 -707h-779l28 157h622zM1763 1168q66 3 105 35q41 35 50 85t-20 85q-27 32 -93 35q-67 -3 -105 -35q-41 -35 -50 -85t20 -85q26 -32 93 -35zM1714 972q-132 0 -207.5 92.5t-52.5 223.5t131.5 223.5t240.5 92.5h27q132 0 207.5 -92.5t52.5 -223.5
t-131.5 -223.5t-240.5 -92.5h-27zM407 1600h189l459 -1142l201 1142h208l-282 -1600h-181l-465 1156l-204 -1156h-207z" />
    <glyph glyph-name="trademark" unicode="&#x2122;" horiz-adv-x="1255" 
d="M486 1428h-91v-557h-177v557h-168v172h584l212 -325l212 325h147v-729h-176v365l-183 -282l-184 283v-366h-176v557z" />
    <glyph glyph-name="Omega" unicode="&#x2126;" horiz-adv-x="1723" 
d="M513 207q-46 32 -107 101q-170 190 -121 470q66 371 298.5 596.5t552.5 225.5h15q319 0 473 -225.5t88 -596.5q-49 -280 -287 -470q-85 -69 -142 -101h235l-37 -207h-518l34 194q140 53 302.5 198.5t204.5 385.5q52 292 -56 460t-337 168h-4q-229 0 -396 -168t-219 -460
q-42 -240 70 -385.5t232 -198.5l-34 -194h-519l37 207h235z" />
    <glyph glyph-name="arrowleft" unicode="&#x2190;" horiz-adv-x="1834" 
d="M420 1101v-205h1301v-208h-1301v-207l-307 311z" />
    <glyph glyph-name="arrowup" unicode="&#x2191;" horiz-adv-x="1300" 
d="M960 1304h-207v-1301h-208v1301h-205l309 308z" />
    <glyph glyph-name="arrowright" unicode="&#x2192;" horiz-adv-x="1834" 
d="M1721 792l-307 -311v207h-1301v208h1301v205z" />
    <glyph glyph-name="arrowdown" unicode="&#x2193;" horiz-adv-x="1300" 
d="M649 -22l-309 307h205v1301h208v-1301h207z" />
    <glyph glyph-name="arrowboth" unicode="&#x2194;" horiz-adv-x="1861" 
d="M1439 896v205l308 -309l-308 -311v207h-1019v-207l-307 311l307 309v-205h1019z" />
    <glyph glyph-name="arrowupdn" unicode="&#x2195;" horiz-adv-x="2087" 
d="M1149 285h205l-309 -307l-311 307h207v1019h-207l311 308l309 -308h-205v-1019z" />
    <glyph glyph-name="arrowupdnbse" unicode="&#x21a8;" horiz-adv-x="2087" 
d="M1042 1608h-218v208h443v-208h-217l305 -304h-205v-1019h205l-303 -301h215v-207h-443v207h216l-305 301h207v1019h-207z" />
    <glyph glyph-name="partialdiff" unicode="&#x2202;" horiz-adv-x="1046" 
d="M884 696q-391 -48 -548 -323q-16 -37 -21 -68q-18 -101 139 -102q254 26 430 493zM942 900q9 37 23 111q62 352 -78 379q-32 5 -64 5q-149 0 -351 -234l-67 208q218 217 444 217q72 0 149 -19q256 -69 175 -532q-23 -127 -72 -287q-242 -728 -681 -738q-361 0 -310 290
q9 53 36 119q202 410 796 481z" />
    <glyph glyph-name="Delta" unicode="&#x2206;" horiz-adv-x="1326" 
d="M55 1h-89l865 1599h188l307 -1600h-1271v1zM1065 208l-201 1045l-567 -1045h768z" />
    <glyph glyph-name="product" unicode="&#x220f;" horiz-adv-x="1364" 
d="M559 1392l-306 -1736h-208l343 1944h1151l-343 -1944h-208l306 1736h-735z" />
    <glyph glyph-name="summation" unicode="&#x2211;" horiz-adv-x="1265" 
d="M1444 1600l-37 -208h-785l222 -764l-491 -764h785l-37 -208h-1105l617 972l-274 972h1105z" />
    <glyph glyph-name="minus" unicode="&#x2212;" horiz-adv-x="1112" 
d="M125 712h862v-207h-862v207z" />
    <glyph glyph-name="radical" unicode="&#x221a;" horiz-adv-x="1604" 
d="M878 453l505 1276h221l-719 -1863l-621 782l-89 -40l-118 147l382 215z" />
    <glyph glyph-name="infinity" unicode="&#x221e;" horiz-adv-x="1253" 
d="M980 814q0 64 -45 109t-109 45q-66 0 -116 -45q-51 -47 -68 -133q17 -87 68 -134q50 -45 116 -45q64 0 109 45t45 158zM1069 522.5q-101 -100.5 -243 -100.5q-212 0 -296 192q-76 -100 -184 -100q-109 0 -187 77t-78 209q0 111 77.5 189t187.5 78q109 0 184 -102
q94 192 296 192q142 0 243 -100.5t101 -242.5q0 -191 -101 -291.5zM270 791q0 -43 22 -65t54 -22t59 25t38 61q-11 35 -38 60.5t-59 25.5t-54 -22t-22 -63z" />
    <glyph glyph-name="integral" unicode="&#x222b;" horiz-adv-x="649" 
d="M427 -12q-12 -323 -391 -323v202q178 0 185 122v1397q25 321 391 321v-189q-171 -5 -185 -136v-1394z" />
    <glyph glyph-name="approxequal" unicode="&#x2248;" horiz-adv-x="1328" 
d="M272 823l-147 23q5 111 27 166q54 129 183 172q33 10 70 10q114 0 288 -99q160 -92 221 -92h9q41 12 58 55q9 24 9 121l213 -33q-9 -111 -30 -165q-40 -95 -120 -144l150 -23q-9 -111 -30 -165q-54 -129 -182 -173q-33 -10 -71 -10q-114 0 -288 100q-160 92 -221 92
q-6 0 -8 -1q-41 -12 -58 -55q-10 -25 -12 -120l-208 32q5 111 27 166q40 95 120 143zM990 809q-33 -11 -70 -11q-114 0 -288 100q-160 92 -221 92q-6 0 -8 -1q-41 -12 -58 -55q-8 -20 -11 -82h1q33 10 70 10q114 0 288 -99q160 -92 221 -92h9q41 12 58 55q7 19 9 83z" />
    <glyph glyph-name="notequal" unicode="&#x2260;" horiz-adv-x="1267" 
d="M542 652h-340v208h528l162 179h263l-162 -179h71v-208h-260l-79 -88h339v-207h-527l-163 -180h-262l163 180h-73v207h260z" />
    <glyph glyph-name="equivalence" unicode="&#x2261;" horiz-adv-x="1112" 
d="M125 712h862v-207h-862v207zM125 426h862v-207h-862v207zM125 988h862v-207h-862v207z" />
    <glyph glyph-name="lessequal" unicode="&#x2264;" horiz-adv-x="1504" 
d="M1126 208l-1026 374l1303 474v-221l-697 -253l697 -254v-328h-1138v208h861z" />
    <glyph glyph-name="greaterequal" unicode="&#x2265;" horiz-adv-x="1504" 
d="M1238 208v-208h-1138v328l697 254l-697 253v221l1303 -474l-1026 -374h861z" />
    <glyph glyph-name="integraltp" unicode="&#x2320;" horiz-adv-x="735" 
d="M434 -334h-207v1720q26 321 391 321l2 -189q-172 -5 -186 -136v-1716z" />
    <glyph glyph-name="integralbt" unicode="&#x2321;" horiz-adv-x="733" 
d="M300 1707h206v-1719q-25 -322 -393 -322v189q173 6 187 137v1715z" />
    <glyph glyph-name="uniEEC9" unicode="&#xeec9;" horiz-adv-x="1045" 
d="M1082.5 1309q35.5 -42 25.5 -102q-11 -61 -61.5 -103t-109.5 -42q-60 0 -95 42t-24 103q10 60 60 102t110 42q59 0 94.5 -42zM791 823h-257l-145 -823h-207l145 823h-92l37 207h92l32 185q30 128 136 219q110 88 233 88q62 0 181 -43l-103 -196q-81 38 -105 38
q-41 0 -87 -36q-39 -32 -49 -78l-31 -177h464l-171 -968q-44 -251 -368 -277l36 206q115 13 125 70z" />
    <glyph glyph-name="uniEECA" unicode="&#xeeca;" horiz-adv-x="1170" 
d="M992 890q143 157 314 164l-38 -214q-115 -6 -194 -73q-117 -99 -146 -238l-93 -529h-207l145 823h-239l-145 -823h-207l145 823h-92l37 207h92l32 185q30 128 136 219q110 88 233 88q62 0 181 -43l-103 -196q-81 38 -105 38q-41 0 -87 -36q-39 -32 -49 -78l-31 -177h446z
" />
    <glyph glyph-name="uniEECB" unicode="&#xeecb;" horiz-adv-x="999" 
d="M501 1030h239l50 287q-11 4 -76 4q-87 0 -133 -36q-39 -32 -49 -78zM294 1030l32 185q30 128 136 219q110 88 279 88q150 0 279 -76l-73 -416h184l-37 -207h-184l-145 -823h-207l145 823h-239l-145 -823h-207l145 823h-92l37 207h92z" />
    <glyph glyph-name="uniEECD" unicode="&#xeecd;" horiz-adv-x="1583" 
d="M766 823h-232l-145 -823h-207l145 823h-92l37 207h92l32 185q30 128 136 219q110 88 233 88q62 0 181 -43l-103 -196q-81 38 -105 38q-41 0 -87 -36q-39 -32 -49 -78l-31 -177h365l161 -563l361 563h231l-759 -1162v2l-141 -215h-219l375 574z" />
    <glyph glyph-name="uniEECE" unicode="&#xeece;" horiz-adv-x="1721" 
d="M534 823l-145 -823h-207l145 823h-92l37 207h92l32 185q30 128 136 219q110 88 233 88q62 0 181 -43l-103 -196q-81 38 -105 38q-41 0 -87 -36q-39 -32 -49 -78l-31 -177h275l32 185q30 128 137 219q109 88 232 88q62 0 181 -43l-103 -196q-81 38 -104 38q-42 0 -87 -36
q-39 -32 -49 -78l-31 -177h367l68 386h207l-68 -386h185l-37 -207h-185l-145 -823h-207l145 823h-367l-145 -823h-208l145 823h-275z" />
    <glyph glyph-name="uniEECF" unicode="&#xeecf;" horiz-adv-x="2065" 
d="M534 823l-145 -823h-207l145 823h-92l37 207h92l32 185q30 128 136 219q110 88 233 88q62 0 181 -43l-103 -196q-81 38 -105 38q-41 0 -87 -36q-39 -32 -49 -78l-31 -177h275l32 185q30 128 137 219q109 88 232 88q62 0 181 -43l-103 -196q-81 38 -104 38q-42 0 -87 -36
q-39 -32 -49 -78l-31 -177h365l161 -563l360 563h232l-760 -1162v2l-141 -215h-219l375 574l-179 594h-231l-145 -823h-208l145 823h-275z" />
    <glyph glyph-name="uniEED0" unicode="&#xeed0;" horiz-adv-x="2199" 
d="M534 823l-145 -823h-207l145 823h-92l37 207h92l32 185q30 128 136 219q110 88 233 88q62 0 181 -43l-103 -196q-81 38 -105 38q-41 0 -87 -36q-39 -32 -49 -78l-31 -177h368l68 386h207l-68 -386h408l161 -563l361 563h231l-759 -1162v2l-142 -215h-218l375 574
l-179 594h-275l-145 -823h-207l145 823h-368z" />
    <glyph glyph-name="uniEED9" unicode="&#xeed9;" horiz-adv-x="1305" 
d="M1135 938q136 109 306 116l-38 -214q-114 -6 -193 -73q-118 -99 -147 -238l-93 -529h-207l145 823h-281l-145 -823h-208l145 823h-184l36 207h184l69 386h208l-69 -386h488z" />
    <glyph glyph-name="uniEEDA" unicode="&#xeeda;" horiz-adv-x="1374" 
d="M627 823l-145 -823h-208l145 823h-184l36 207h184l69 386h208l-69 -386h410l69 386h208l-69 -386h184l-36 -207h-184l-145 -823h-208l145 823h-410z" />
    <glyph glyph-name="uniEEDB" unicode="&#xeedb;" horiz-adv-x="1718" 
d="M902 823h-275l-145 -823h-208l145 823h-184l36 207h184l69 386h208l-69 -386h433l-9 -54l146 -509l360 563h231l-758 -1162v2l-142 -215h-219l375 574z" />
    <glyph glyph-name="uniEEDC" unicode="&#xeedc;" horiz-adv-x="1693" 
d="M627 823l-145 -823h-208l145 823h-184l36 207h184l69 386h208l-69 -386h1070l-619 -821h464l-37 -209h-823l619 823h-710z" />
    <glyph glyph-name="uniF001" unicode="&#xf001;" horiz-adv-x="1020" 
d="M389 0h-207l145 823h-92l37 207h92l32 185q30 128 136 219q110 88 233 88q62 0 181 -43l-103 -196q-81 38 -105 38q-41 0 -87 -36q-39 -32 -49 -78zM1035 1030l-182 -1030h-207l182 1030h207zM1082.5 1309q35.5 -42 25.5 -102q-11 -61 -61.5 -103t-109.5 -42
q-60 0 -95 42t-24 103q10 60 60 102t110 42q59 0 94.5 -42z" />
    <glyph glyph-name="uniF002" unicode="&#xf002;" horiz-adv-x="985" 
d="M860 1317q-11 4 -76 4q-87 0 -133 -36q-39 -32 -49 -78l-213 -1207h-207l145 823h-92l37 207h92l32 185q30 128 136 219q110 88 279 88q150 0 279 -76l-255 -1446h-207z" />
    <glyph glyph-name="uniFB00" unicode="&#xfb00;" horiz-adv-x="1108" 
d="M534 823l-145 -823h-207l145 823h-92l37 207h92l32 185q30 128 136 219q110 88 233 88q62 0 181 -43l-103 -196q-81 38 -105 38q-41 0 -87 -36q-39 -32 -49 -78l-31 -177h275l32 185q30 128 137 219q109 88 232 88q62 0 181 -43l-103 -196q-81 38 -104 38q-42 0 -87 -36
q-39 -32 -49 -78l-31 -177h184l-37 -207h-184l-145 -823h-208l145 823h-275z" />
    <glyph glyph-name="uniFB01" unicode="&#xfb01;" horiz-adv-x="1020" 
d="M1082.5 1309q35.5 -42 25.5 -102q-11 -61 -61.5 -103t-109.5 -42q-60 0 -95 42t-24 103q10 60 60 102t110 42q59 0 94.5 -42zM791 823h-257l-145 -823h-207l145 823h-92l37 207h92l32 185q30 128 136 219q110 88 233 88q62 0 181 -43l-103 -196q-81 38 -105 38
q-41 0 -87 -36q-39 -32 -49 -78l-31 -177h464l-182 -1030h-207z" />
    <glyph glyph-name="uniFB02" unicode="&#xfb02;" horiz-adv-x="985" 
d="M860 1317q-11 4 -76 4q-87 0 -133 -36q-39 -32 -49 -78l-31 -177h185l-37 -207h-185l-145 -823h-207l145 823h-92l37 207h92l32 185q30 128 136 219q110 88 279 88q150 0 279 -76l-255 -1446h-207z" />
    <glyph glyph-name="uniFB03" unicode="&#xfb03;" horiz-adv-x="1502" 
d="M1564.5 1309q35.5 -42 25.5 -102q-11 -61 -61.5 -103t-109.5 -42q-60 0 -95 42t-24 103q10 60 60 102t110 42q59 0 94.5 -42zM534 823l-145 -823h-207l145 823h-92l37 207h92l32 185q30 128 136 219q110 88 233 88q62 0 181 -43l-103 -196q-81 38 -105 38q-41 0 -87 -36
q-39 -32 -49 -78l-31 -177h275l32 185q30 128 137 219q109 88 232 88q62 0 181 -43l-103 -196q-81 38 -104 38q-42 0 -87 -36q-39 -32 -49 -78l-31 -177h464l-182 -1030h-208l145 823h-256l-145 -823h-208l145 823h-275z" />
    <glyph glyph-name="uniFB04" unicode="&#xfb04;" horiz-adv-x="1467" 
d="M534 823l-145 -823h-207l145 823h-92l37 207h92l32 185q30 128 136 219q110 88 233 88q62 0 181 -43l-103 -196q-81 38 -105 38q-41 0 -87 -36q-39 -32 -49 -78l-31 -177h275l32 185q30 128 137 219q109 88 278 88q151 0 279 -76l-255 -1446h-207l232 1317q-11 4 -75 4
q-88 0 -133 -36q-39 -32 -49 -78l-31 -177h184l-37 -207h-184l-145 -823h-208l145 823h-275z" />
    <glyph glyph-name="uniFB05" unicode="&#xfb05;" horiz-adv-x="999" 
d="M703 823h-185l37 207h185l50 287q-11 4 -76 4q-87 0 -133 -36q-39 -32 -49 -78l-213 -1207h-207l145 823h-92l37 207h92l32 185q30 128 136 219q110 88 279 88q150 0 279 -76l-73 -416h184l-37 -207h-184l-145 -823h-207z" />
    </font>
</defs>
</svg>
