<?xml version="1.0" standalone="no"?>
<!DOCTYPE svg PUBLIC "-//W3C//DTD SVG 1.1//EN" "http://www.w3.org/Graphics/SVG/1.1/DTD/svg11.dtd" >
<svg xmlns="http://www.w3.org/2000/svg" xmlns:xlink="http://www.w3.org/1999/xlink" version="1.1">
<metadata></metadata>
<defs>
<font id="calibrushregular" horiz-adv-x="20" >
<font-face units-per-em="2048" ascent="1638" descent="-410" />
<missing-glyph horiz-adv-x="409" />
<glyph unicode="&#xd;" />
<glyph />
<glyph />
<glyph unicode=" "  horiz-adv-x="409" />
<glyph unicode="&#x09;" horiz-adv-x="409" />
<glyph unicode="&#xa0;" horiz-adv-x="409" />
<glyph unicode="!" horiz-adv-x="340" d="M10 130v64q0 22 4 89h1q7 0 116 -96q2 0 48 -39h2q-7 -96 -7 -114v-34h-7q-149 126 -157 130zM21 461v2q0 112 70 604q36 216 76 393h7q147 -124 156 -130v-11q0 -6 -39 -205q-47 -234 -92 -642l-13 -148h-3q-138 113 -162 137z" />
<glyph unicode="&#x22;" horiz-adv-x="606" d="M100 1721h4q9 0 81 -65q3 0 81 -67l-30 -431h-6q-91 124 -100 135zM340 1721h4q9 0 81 -65q3 0 81 -67l-30 -431h-6q-91 124 -100 135z" />
<glyph unicode="#" horiz-adv-x="1762" d="M100 454v5q3 15 56 151q169 2 246 2h9q5 0 76 223q11 27 47 135h-2q-312 -2 -432 -2v6q3 16 56 151q218 2 315 2h115l135 403h4q7 0 41 -31q86 -71 86 -73l-99 -297h2q238 1 385 1h31q28 0 85 2l131 398h9q115 -95 122 -104v-2l-97 -292h2q180 2 239 2v-9 q-48 -133 -57 -148q-13 -1 -20 -1h-214q-9 -12 -33 -92q-1 -2 -90 -267h33q132 0 381 2v-9q0 -3 -55 -147q-63 -2 -90 -2h-166q-59 0 -157 -2q0 -3 -153 -459h-3q-7 0 -42 31q-85 71 -86 73l119 355l-502 -4l-152 -455h-9q-114 95 -122 104v2q56 169 117 349q-75 -1 -112 -1 h-149zM581 614h5q165 0 495 2l121 358h-2q-498 -2 -501 -4z" />
<glyph unicode="$" horiz-adv-x="1709" d="M100 293v37q0 71 119 144q53 30 262 61q112 13 152 13q90 -78 111 -93q43 126 88 263h-2q-113 25 -178 55q-31 15 -191 152q-33 32 -33 57v23q0 80 140 158q59 35 200 76q84 26 257 51l80 240h8q133 -108 141 -119q-34 -108 -38 -115h2q196 0 266 -80q100 -81 119 -100 q6 -13 6 -21v-47q0 -60 -180 -135q-29 -13 -35 -13q-140 119 -144 119v7q207 81 207 137q-58 10 -172 10q-115 -4 -115 -12l-125 -375h2q159 -21 207 -43q38 -10 228 -177q53 -54 53 -121v-8q0 -88 -127 -199q-90 -74 -215 -129q-174 -66 -219 -66q-149 -30 -189 -30 q-72 -219 -76 -226h-8q-127 106 -140 115v4q0 8 31 96h-2q-147 0 -258 52q-37 22 -132 104q-100 73 -100 135zM246 193q0 -41 18 -41q91 -25 209 -25q166 4 166 15q93 275 93 279h-2q-182 -19 -265 -41q-38 -3 -105 -33q-114 -72 -114 -154zM576 874h2q104 -35 287 -62 l104 316q-175 -45 -260 -92q-57 -28 -113 -92q-20 -38 -20 -70zM838 170h2q249 54 425 195q123 111 123 197q-6 59 -21 66q-65 18 -332 53q0 2 -25 2z" />
<glyph unicode="%" horiz-adv-x="1503" d="M100 1134v65q0 71 59 153q70 75 155 75q89 0 180 -90q84 -55 121 -173q12 -44 12 -88q0 -166 -131 -243q-46 -20 -85 -20q-88 0 -171 80q-95 69 -127 172q-13 42 -13 69zM192 1110q0 -100 68 -183q48 -24 87 -24q75 0 135 71q50 64 50 160q0 85 -56 165q0 12 -54 31 q-20 5 -43 7q-90 0 -153 -95q-34 -62 -34 -132zM447 84l477 1426h9q108 -90 123 -104l-477 -1426h-9q-108 90 -123 104zM876 416q0 157 124 235q48 26 92 26q92 0 185 -94q78 -50 115 -164q11 -36 11 -61v-68q0 -74 -63 -157q-67 -70 -149 -70q-91 0 -173 81 q-142 105 -142 272zM971 358q0 -97 67 -182q51 -23 88 -23q65 0 122 56q63 70 63 172q0 96 -66 180q-42 23 -87 26q-88 0 -151 -92q-36 -60 -36 -137z" />
<glyph unicode="&#x26;" horiz-adv-x="1599" d="M47 4l318 1494h884l-318 -1494h-884zM120 58h756l308 1385h-756zM243 560v1q69 16 126 16h13q51 0 84 -33q2 -1 35 -29q19 -22 19 -41v-5q0 -25 -36 -52q-16 -11 -38 -21q-44 -16 -73 -16q-4 5 -16 14q-6 -118 -14 -180h-2l-40 33q10 71 18 250q2 28 2 36h-1l-37 -7h-1z M347 963v23q0 23 14 58q26 56 98 86q40 15 69 15h27q22 -1 24 -4q38 -31 38 -32v-1q-19 3 -33 3h-5q-82 0 -145 -58q-25 -26 -35 -52q-12 -32 -12 -59q0 -44 23 -94q9 -17 15 -22q22 -9 41 -9q34 0 75 34q26 27 31 38q9 14 17 34q11 32 11 48q-96 -10 -120 -10 q-37 32 -40 33v2q29 0 167 15q8 -7 39 -33q-1 -39 -5 -49q-6 -47 -12 -149q-1 -15 -1 -34v-4q0 -14 1 -31q-2 0 -13 10l-28 24q-2 14 -2 33q0 12 1 44q-41 -40 -82 -40t-76 35q-1 0 -31 25q-20 20 -26 33q-9 13 -18 44q-7 29 -7 44zM359 418q13 1 52 16q68 33 68 72 q0 11 -8 27q-24 9 -52 9h-4q-27 0 -56 -3q4 -4 4 -5q0 -24 -4 -116zM553 247q1 22 13 251h1q38 -31 41 -33l-2 -36q8 19 33 46q23 18 37 22q37 -31 40 -34q-1 -1 -15 -8q-49 -28 -80 -124q-10 -30 -27 -117h-2zM655 851q0 73 51 126q33 28 61 28q13 0 21 -8q38 -31 41 -35 q5 -7 5 -18q0 -21 -17 -52q-30 -47 -94 -70q-11 -4 -15 -4l-12 9v-12q0 -39 15 -67q5 -2 12 -2h1q30 0 52 34q8 14 17 40v2h2q38 -31 40 -34q-9 -28 -20 -46q-23 -31 -49 -31h-4q-22 0 -45 24q-1 0 -32 26q-30 28 -30 90zM703 865q13 6 30 17q25 19 41 42q11 17 16 37 q0 2 2 7q-36 -11 -61 -45q-19 -25 -28 -58zM737 345q0 64 29 106q19 25 41 25q32 0 55 -51q15 -38 15 -81q0 -61 -28 -105q-21 -25 -37 -25h-11q-14 0 -32 21q-32 42 -32 110zM778 305q0 -23 7 -52q27 14 42 61q9 30 9 64q0 29 -7 59q-23 -12 -39 -52q-12 -34 -12 -68v-12z M844 954v1l57 11q6 43 15 84l3 12h1l40 -34q-6 -27 -11 -54h1q31 6 62 10q0 -1 16 -15q21 -17 23 -18v-3q-53 -6 -109 -17q-11 -86 -11 -128q32 40 58 53q2 1 3 1q12 -9 41 -34v-1q-18 -7 -47 -38q-28 -34 -53 -73h-2l-40 34q-2 29 -2 56v4q0 57 7 117h-1l-10 -2 q-10 8 -41 34z" />
<glyph unicode="'" horiz-adv-x="366" d="M100 1721h4q9 0 81 -65q3 0 81 -67l-30 -431h-6q-91 124 -100 135z" />
<glyph unicode="(" horiz-adv-x="623" d="M10 777v98q0 136 79 325q37 80 108 184q45 69 193 223q13 10 57 52h9q146 -122 157 -129v-9q-151 -145 -169 -175q-270 -310 -270 -662q0 -320 237 -699q78 -117 128 -183v-2h-2q-7 0 -39 29q-117 96 -133 115q-134 183 -202 313q-81 152 -122 317q-31 114 -31 203z" />
<glyph unicode=")" horiz-adv-x="627" d="M10 -61q443 396 443 831q0 400 -369 888v1h7l160 -135q165 -222 238 -376q128 -275 128 -468v-93q0 -143 -85 -337q-36 -80 -130 -211q-62 -80 -167 -185l-59 -54h-9q-148 124 -157 130v9z" />
<glyph unicode="*" horiz-adv-x="1750" d="M100 949v3h2l687 -218v2q0 126 4 718h5q134 -110 161 -135q1 -370 1 -534h2q487 156 528 167q129 -106 160 -135v-5q-4 0 -628 -207v-2l331 -466v-2q-31 -29 -160 -135h-6q-326 446 -326 450h-1q-7 -12 -287 -392q-40 -54 -41 -58h-4q-9 0 -82 67q-7 3 -80 64l-1 4v2 l372 518l-479 159z" />
<glyph unicode="+" horiz-adv-x="1066" d="M10 518v9q176 4 295 4h133q9 124 38 391h4q7 0 30 -22q129 -107 134 -113l-27 -258h1q81 0 279 -2q12 -11 159 -135v-7l-22 2q-41 0 -430 4q-16 -223 -25 -391h-7q-140 114 -161 135q9 152 17 256q-27 0 -242 -4l-18 -2q0 3 -66 58q-85 71 -92 75z" />
<glyph unicode="," horiz-adv-x="366" d="M100 -122v328h4q9 0 81 -65q3 0 81 -67v-331h-6q-151 124 -160 135z" />
<glyph unicode="-" horiz-adv-x="1069" d="M10 773v8q180 3 266 3h384q71 0 241 -3q0 -3 158 -135v-4h-7q-314 4 -351 4h-133q-47 0 -389 -4h-12q-157 130 -157 131z" />
<glyph unicode="." horiz-adv-x="367" d="M100 133v63q0 30 4 81h7q45 -36 156 -131v-24q-3 -82 -3 -91v-31h-7q-143 119 -157 133z" />
<glyph unicode="/" horiz-adv-x="888" d="M10 130v10l760 1725h9q87 -84 96 -90v-9q-7 -27 -383 -875t-376 -851h-9q-88 84 -97 90z" />
<glyph unicode="0" horiz-adv-x="1599" d="M47 4l318 1494h884l-318 -1494h-884zM120 58h756l308 1385h-756zM243 560v1q69 16 126 16h13q51 0 84 -33q2 -1 35 -29q19 -22 19 -41v-5q0 -25 -36 -52q-16 -11 -38 -21q-44 -16 -73 -16q-4 5 -16 14q-6 -118 -14 -180h-2l-40 33q10 71 18 250q2 28 2 36h-1l-37 -7h-1z M347 963v23q0 23 14 58q26 56 98 86q40 15 69 15h27q22 -1 24 -4q38 -31 38 -32v-1q-19 3 -33 3h-5q-82 0 -145 -58q-25 -26 -35 -52q-12 -32 -12 -59q0 -44 23 -94q9 -17 15 -22q22 -9 41 -9q34 0 75 34q26 27 31 38q9 14 17 34q11 32 11 48q-96 -10 -120 -10 q-37 32 -40 33v2q29 0 167 15q8 -7 39 -33q-1 -39 -5 -49q-6 -47 -12 -149q-1 -15 -1 -34v-4q0 -14 1 -31q-2 0 -13 10l-28 24q-2 14 -2 33q0 12 1 44q-41 -40 -82 -40t-76 35q-1 0 -31 25q-20 20 -26 33q-9 13 -18 44q-7 29 -7 44zM359 418q13 1 52 16q68 33 68 72 q0 11 -8 27q-24 9 -52 9h-4q-27 0 -56 -3q4 -4 4 -5q0 -24 -4 -116zM553 247q1 22 13 251h1q38 -31 41 -33l-2 -36q8 19 33 46q23 18 37 22q37 -31 40 -34q-1 -1 -15 -8q-49 -28 -80 -124q-10 -30 -27 -117h-2zM655 851q0 73 51 126q33 28 61 28q13 0 21 -8q38 -31 41 -35 q5 -7 5 -18q0 -21 -17 -52q-30 -47 -94 -70q-11 -4 -15 -4l-12 9v-12q0 -39 15 -67q5 -2 12 -2h1q30 0 52 34q8 14 17 40v2h2q38 -31 40 -34q-9 -28 -20 -46q-23 -31 -49 -31h-4q-22 0 -45 24q-1 0 -32 26q-30 28 -30 90zM703 865q13 6 30 17q25 19 41 42q11 17 16 37 q0 2 2 7q-36 -11 -61 -45q-19 -25 -28 -58zM737 345q0 64 29 106q19 25 41 25q32 0 55 -51q15 -38 15 -81q0 -61 -28 -105q-21 -25 -37 -25h-11q-14 0 -32 21q-32 42 -32 110zM778 305q0 -23 7 -52q27 14 42 61q9 30 9 64q0 29 -7 59q-23 -12 -39 -52q-12 -34 -12 -68v-12z M844 954v1l57 11q6 43 15 84l3 12h1l40 -34q-6 -27 -11 -54h1q31 6 62 10q0 -1 16 -15q21 -17 23 -18v-3q-53 -6 -109 -17q-11 -86 -11 -128q32 40 58 53q2 1 3 1q12 -9 41 -34v-1q-18 -7 -47 -38q-28 -34 -53 -73h-2l-40 34q-2 29 -2 56v4q0 57 7 117h-1l-10 -2 q-10 8 -41 34z" />
<glyph unicode="1" horiz-adv-x="1599" d="M47 4l318 1494h884l-318 -1494h-884zM120 58h756l308 1385h-756zM243 560v1q69 16 126 16h13q51 0 84 -33q2 -1 35 -29q19 -22 19 -41v-5q0 -25 -36 -52q-16 -11 -38 -21q-44 -16 -73 -16q-4 5 -16 14q-6 -118 -14 -180h-2l-40 33q10 71 18 250q2 28 2 36h-1l-37 -7h-1z M347 963v23q0 23 14 58q26 56 98 86q40 15 69 15h27q22 -1 24 -4q38 -31 38 -32v-1q-19 3 -33 3h-5q-82 0 -145 -58q-25 -26 -35 -52q-12 -32 -12 -59q0 -44 23 -94q9 -17 15 -22q22 -9 41 -9q34 0 75 34q26 27 31 38q9 14 17 34q11 32 11 48q-96 -10 -120 -10 q-37 32 -40 33v2q29 0 167 15q8 -7 39 -33q-1 -39 -5 -49q-6 -47 -12 -149q-1 -15 -1 -34v-4q0 -14 1 -31q-2 0 -13 10l-28 24q-2 14 -2 33q0 12 1 44q-41 -40 -82 -40t-76 35q-1 0 -31 25q-20 20 -26 33q-9 13 -18 44q-7 29 -7 44zM359 418q13 1 52 16q68 33 68 72 q0 11 -8 27q-24 9 -52 9h-4q-27 0 -56 -3q4 -4 4 -5q0 -24 -4 -116zM553 247q1 22 13 251h1q38 -31 41 -33l-2 -36q8 19 33 46q23 18 37 22q37 -31 40 -34q-1 -1 -15 -8q-49 -28 -80 -124q-10 -30 -27 -117h-2zM655 851q0 73 51 126q33 28 61 28q13 0 21 -8q38 -31 41 -35 q5 -7 5 -18q0 -21 -17 -52q-30 -47 -94 -70q-11 -4 -15 -4l-12 9v-12q0 -39 15 -67q5 -2 12 -2h1q30 0 52 34q8 14 17 40v2h2q38 -31 40 -34q-9 -28 -20 -46q-23 -31 -49 -31h-4q-22 0 -45 24q-1 0 -32 26q-30 28 -30 90zM703 865q13 6 30 17q25 19 41 42q11 17 16 37 q0 2 2 7q-36 -11 -61 -45q-19 -25 -28 -58zM737 345q0 64 29 106q19 25 41 25q32 0 55 -51q15 -38 15 -81q0 -61 -28 -105q-21 -25 -37 -25h-11q-14 0 -32 21q-32 42 -32 110zM778 305q0 -23 7 -52q27 14 42 61q9 30 9 64q0 29 -7 59q-23 -12 -39 -52q-12 -34 -12 -68v-12z M844 954v1l57 11q6 43 15 84l3 12h1l40 -34q-6 -27 -11 -54h1q31 6 62 10q0 -1 16 -15q21 -17 23 -18v-3q-53 -6 -109 -17q-11 -86 -11 -128q32 40 58 53q2 1 3 1q12 -9 41 -34v-1q-18 -7 -47 -38q-28 -34 -53 -73h-2l-40 34q-2 29 -2 56v4q0 57 7 117h-1l-10 -2 q-10 8 -41 34z" />
<glyph unicode="2" horiz-adv-x="1599" d="M47 4l318 1494h884l-318 -1494h-884zM120 58h756l308 1385h-756zM243 560v1q69 16 126 16h13q51 0 84 -33q2 -1 35 -29q19 -22 19 -41v-5q0 -25 -36 -52q-16 -11 -38 -21q-44 -16 -73 -16q-4 5 -16 14q-6 -118 -14 -180h-2l-40 33q10 71 18 250q2 28 2 36h-1l-37 -7h-1z M347 963v23q0 23 14 58q26 56 98 86q40 15 69 15h27q22 -1 24 -4q38 -31 38 -32v-1q-19 3 -33 3h-5q-82 0 -145 -58q-25 -26 -35 -52q-12 -32 -12 -59q0 -44 23 -94q9 -17 15 -22q22 -9 41 -9q34 0 75 34q26 27 31 38q9 14 17 34q11 32 11 48q-96 -10 -120 -10 q-37 32 -40 33v2q29 0 167 15q8 -7 39 -33q-1 -39 -5 -49q-6 -47 -12 -149q-1 -15 -1 -34v-4q0 -14 1 -31q-2 0 -13 10l-28 24q-2 14 -2 33q0 12 1 44q-41 -40 -82 -40t-76 35q-1 0 -31 25q-20 20 -26 33q-9 13 -18 44q-7 29 -7 44zM359 418q13 1 52 16q68 33 68 72 q0 11 -8 27q-24 9 -52 9h-4q-27 0 -56 -3q4 -4 4 -5q0 -24 -4 -116zM553 247q1 22 13 251h1q38 -31 41 -33l-2 -36q8 19 33 46q23 18 37 22q37 -31 40 -34q-1 -1 -15 -8q-49 -28 -80 -124q-10 -30 -27 -117h-2zM655 851q0 73 51 126q33 28 61 28q13 0 21 -8q38 -31 41 -35 q5 -7 5 -18q0 -21 -17 -52q-30 -47 -94 -70q-11 -4 -15 -4l-12 9v-12q0 -39 15 -67q5 -2 12 -2h1q30 0 52 34q8 14 17 40v2h2q38 -31 40 -34q-9 -28 -20 -46q-23 -31 -49 -31h-4q-22 0 -45 24q-1 0 -32 26q-30 28 -30 90zM703 865q13 6 30 17q25 19 41 42q11 17 16 37 q0 2 2 7q-36 -11 -61 -45q-19 -25 -28 -58zM737 345q0 64 29 106q19 25 41 25q32 0 55 -51q15 -38 15 -81q0 -61 -28 -105q-21 -25 -37 -25h-11q-14 0 -32 21q-32 42 -32 110zM778 305q0 -23 7 -52q27 14 42 61q9 30 9 64q0 29 -7 59q-23 -12 -39 -52q-12 -34 -12 -68v-12z M844 954v1l57 11q6 43 15 84l3 12h1l40 -34q-6 -27 -11 -54h1q31 6 62 10q0 -1 16 -15q21 -17 23 -18v-3q-53 -6 -109 -17q-11 -86 -11 -128q32 40 58 53q2 1 3 1q12 -9 41 -34v-1q-18 -7 -47 -38q-28 -34 -53 -73h-2l-40 34q-2 29 -2 56v4q0 57 7 117h-1l-10 -2 q-10 8 -41 34z" />
<glyph unicode="3" horiz-adv-x="1599" d="M47 4l318 1494h884l-318 -1494h-884zM120 58h756l308 1385h-756zM243 560v1q69 16 126 16h13q51 0 84 -33q2 -1 35 -29q19 -22 19 -41v-5q0 -25 -36 -52q-16 -11 -38 -21q-44 -16 -73 -16q-4 5 -16 14q-6 -118 -14 -180h-2l-40 33q10 71 18 250q2 28 2 36h-1l-37 -7h-1z M347 963v23q0 23 14 58q26 56 98 86q40 15 69 15h27q22 -1 24 -4q38 -31 38 -32v-1q-19 3 -33 3h-5q-82 0 -145 -58q-25 -26 -35 -52q-12 -32 -12 -59q0 -44 23 -94q9 -17 15 -22q22 -9 41 -9q34 0 75 34q26 27 31 38q9 14 17 34q11 32 11 48q-96 -10 -120 -10 q-37 32 -40 33v2q29 0 167 15q8 -7 39 -33q-1 -39 -5 -49q-6 -47 -12 -149q-1 -15 -1 -34v-4q0 -14 1 -31q-2 0 -13 10l-28 24q-2 14 -2 33q0 12 1 44q-41 -40 -82 -40t-76 35q-1 0 -31 25q-20 20 -26 33q-9 13 -18 44q-7 29 -7 44zM359 418q13 1 52 16q68 33 68 72 q0 11 -8 27q-24 9 -52 9h-4q-27 0 -56 -3q4 -4 4 -5q0 -24 -4 -116zM553 247q1 22 13 251h1q38 -31 41 -33l-2 -36q8 19 33 46q23 18 37 22q37 -31 40 -34q-1 -1 -15 -8q-49 -28 -80 -124q-10 -30 -27 -117h-2zM655 851q0 73 51 126q33 28 61 28q13 0 21 -8q38 -31 41 -35 q5 -7 5 -18q0 -21 -17 -52q-30 -47 -94 -70q-11 -4 -15 -4l-12 9v-12q0 -39 15 -67q5 -2 12 -2h1q30 0 52 34q8 14 17 40v2h2q38 -31 40 -34q-9 -28 -20 -46q-23 -31 -49 -31h-4q-22 0 -45 24q-1 0 -32 26q-30 28 -30 90zM703 865q13 6 30 17q25 19 41 42q11 17 16 37 q0 2 2 7q-36 -11 -61 -45q-19 -25 -28 -58zM737 345q0 64 29 106q19 25 41 25q32 0 55 -51q15 -38 15 -81q0 -61 -28 -105q-21 -25 -37 -25h-11q-14 0 -32 21q-32 42 -32 110zM778 305q0 -23 7 -52q27 14 42 61q9 30 9 64q0 29 -7 59q-23 -12 -39 -52q-12 -34 -12 -68v-12z M844 954v1l57 11q6 43 15 84l3 12h1l40 -34q-6 -27 -11 -54h1q31 6 62 10q0 -1 16 -15q21 -17 23 -18v-3q-53 -6 -109 -17q-11 -86 -11 -128q32 40 58 53q2 1 3 1q12 -9 41 -34v-1q-18 -7 -47 -38q-28 -34 -53 -73h-2l-40 34q-2 29 -2 56v4q0 57 7 117h-1l-10 -2 q-10 8 -41 34z" />
<glyph unicode="4" horiz-adv-x="1599" d="M47 4l318 1494h884l-318 -1494h-884zM120 58h756l308 1385h-756zM243 560v1q69 16 126 16h13q51 0 84 -33q2 -1 35 -29q19 -22 19 -41v-5q0 -25 -36 -52q-16 -11 -38 -21q-44 -16 -73 -16q-4 5 -16 14q-6 -118 -14 -180h-2l-40 33q10 71 18 250q2 28 2 36h-1l-37 -7h-1z M347 963v23q0 23 14 58q26 56 98 86q40 15 69 15h27q22 -1 24 -4q38 -31 38 -32v-1q-19 3 -33 3h-5q-82 0 -145 -58q-25 -26 -35 -52q-12 -32 -12 -59q0 -44 23 -94q9 -17 15 -22q22 -9 41 -9q34 0 75 34q26 27 31 38q9 14 17 34q11 32 11 48q-96 -10 -120 -10 q-37 32 -40 33v2q29 0 167 15q8 -7 39 -33q-1 -39 -5 -49q-6 -47 -12 -149q-1 -15 -1 -34v-4q0 -14 1 -31q-2 0 -13 10l-28 24q-2 14 -2 33q0 12 1 44q-41 -40 -82 -40t-76 35q-1 0 -31 25q-20 20 -26 33q-9 13 -18 44q-7 29 -7 44zM359 418q13 1 52 16q68 33 68 72 q0 11 -8 27q-24 9 -52 9h-4q-27 0 -56 -3q4 -4 4 -5q0 -24 -4 -116zM553 247q1 22 13 251h1q38 -31 41 -33l-2 -36q8 19 33 46q23 18 37 22q37 -31 40 -34q-1 -1 -15 -8q-49 -28 -80 -124q-10 -30 -27 -117h-2zM655 851q0 73 51 126q33 28 61 28q13 0 21 -8q38 -31 41 -35 q5 -7 5 -18q0 -21 -17 -52q-30 -47 -94 -70q-11 -4 -15 -4l-12 9v-12q0 -39 15 -67q5 -2 12 -2h1q30 0 52 34q8 14 17 40v2h2q38 -31 40 -34q-9 -28 -20 -46q-23 -31 -49 -31h-4q-22 0 -45 24q-1 0 -32 26q-30 28 -30 90zM703 865q13 6 30 17q25 19 41 42q11 17 16 37 q0 2 2 7q-36 -11 -61 -45q-19 -25 -28 -58zM737 345q0 64 29 106q19 25 41 25q32 0 55 -51q15 -38 15 -81q0 -61 -28 -105q-21 -25 -37 -25h-11q-14 0 -32 21q-32 42 -32 110zM778 305q0 -23 7 -52q27 14 42 61q9 30 9 64q0 29 -7 59q-23 -12 -39 -52q-12 -34 -12 -68v-12z M844 954v1l57 11q6 43 15 84l3 12h1l40 -34q-6 -27 -11 -54h1q31 6 62 10q0 -1 16 -15q21 -17 23 -18v-3q-53 -6 -109 -17q-11 -86 -11 -128q32 40 58 53q2 1 3 1q12 -9 41 -34v-1q-18 -7 -47 -38q-28 -34 -53 -73h-2l-40 34q-2 29 -2 56v4q0 57 7 117h-1l-10 -2 q-10 8 -41 34z" />
<glyph unicode="5" horiz-adv-x="1599" d="M47 4l318 1494h884l-318 -1494h-884zM120 58h756l308 1385h-756zM243 560v1q69 16 126 16h13q51 0 84 -33q2 -1 35 -29q19 -22 19 -41v-5q0 -25 -36 -52q-16 -11 -38 -21q-44 -16 -73 -16q-4 5 -16 14q-6 -118 -14 -180h-2l-40 33q10 71 18 250q2 28 2 36h-1l-37 -7h-1z M347 963v23q0 23 14 58q26 56 98 86q40 15 69 15h27q22 -1 24 -4q38 -31 38 -32v-1q-19 3 -33 3h-5q-82 0 -145 -58q-25 -26 -35 -52q-12 -32 -12 -59q0 -44 23 -94q9 -17 15 -22q22 -9 41 -9q34 0 75 34q26 27 31 38q9 14 17 34q11 32 11 48q-96 -10 -120 -10 q-37 32 -40 33v2q29 0 167 15q8 -7 39 -33q-1 -39 -5 -49q-6 -47 -12 -149q-1 -15 -1 -34v-4q0 -14 1 -31q-2 0 -13 10l-28 24q-2 14 -2 33q0 12 1 44q-41 -40 -82 -40t-76 35q-1 0 -31 25q-20 20 -26 33q-9 13 -18 44q-7 29 -7 44zM359 418q13 1 52 16q68 33 68 72 q0 11 -8 27q-24 9 -52 9h-4q-27 0 -56 -3q4 -4 4 -5q0 -24 -4 -116zM553 247q1 22 13 251h1q38 -31 41 -33l-2 -36q8 19 33 46q23 18 37 22q37 -31 40 -34q-1 -1 -15 -8q-49 -28 -80 -124q-10 -30 -27 -117h-2zM655 851q0 73 51 126q33 28 61 28q13 0 21 -8q38 -31 41 -35 q5 -7 5 -18q0 -21 -17 -52q-30 -47 -94 -70q-11 -4 -15 -4l-12 9v-12q0 -39 15 -67q5 -2 12 -2h1q30 0 52 34q8 14 17 40v2h2q38 -31 40 -34q-9 -28 -20 -46q-23 -31 -49 -31h-4q-22 0 -45 24q-1 0 -32 26q-30 28 -30 90zM703 865q13 6 30 17q25 19 41 42q11 17 16 37 q0 2 2 7q-36 -11 -61 -45q-19 -25 -28 -58zM737 345q0 64 29 106q19 25 41 25q32 0 55 -51q15 -38 15 -81q0 -61 -28 -105q-21 -25 -37 -25h-11q-14 0 -32 21q-32 42 -32 110zM778 305q0 -23 7 -52q27 14 42 61q9 30 9 64q0 29 -7 59q-23 -12 -39 -52q-12 -34 -12 -68v-12z M844 954v1l57 11q6 43 15 84l3 12h1l40 -34q-6 -27 -11 -54h1q31 6 62 10q0 -1 16 -15q21 -17 23 -18v-3q-53 -6 -109 -17q-11 -86 -11 -128q32 40 58 53q2 1 3 1q12 -9 41 -34v-1q-18 -7 -47 -38q-28 -34 -53 -73h-2l-40 34q-2 29 -2 56v4q0 57 7 117h-1l-10 -2 q-10 8 -41 34z" />
<glyph unicode="6" horiz-adv-x="1599" d="M47 4l318 1494h884l-318 -1494h-884zM120 58h756l308 1385h-756zM243 560v1q69 16 126 16h13q51 0 84 -33q2 -1 35 -29q19 -22 19 -41v-5q0 -25 -36 -52q-16 -11 -38 -21q-44 -16 -73 -16q-4 5 -16 14q-6 -118 -14 -180h-2l-40 33q10 71 18 250q2 28 2 36h-1l-37 -7h-1z M347 963v23q0 23 14 58q26 56 98 86q40 15 69 15h27q22 -1 24 -4q38 -31 38 -32v-1q-19 3 -33 3h-5q-82 0 -145 -58q-25 -26 -35 -52q-12 -32 -12 -59q0 -44 23 -94q9 -17 15 -22q22 -9 41 -9q34 0 75 34q26 27 31 38q9 14 17 34q11 32 11 48q-96 -10 -120 -10 q-37 32 -40 33v2q29 0 167 15q8 -7 39 -33q-1 -39 -5 -49q-6 -47 -12 -149q-1 -15 -1 -34v-4q0 -14 1 -31q-2 0 -13 10l-28 24q-2 14 -2 33q0 12 1 44q-41 -40 -82 -40t-76 35q-1 0 -31 25q-20 20 -26 33q-9 13 -18 44q-7 29 -7 44zM359 418q13 1 52 16q68 33 68 72 q0 11 -8 27q-24 9 -52 9h-4q-27 0 -56 -3q4 -4 4 -5q0 -24 -4 -116zM553 247q1 22 13 251h1q38 -31 41 -33l-2 -36q8 19 33 46q23 18 37 22q37 -31 40 -34q-1 -1 -15 -8q-49 -28 -80 -124q-10 -30 -27 -117h-2zM655 851q0 73 51 126q33 28 61 28q13 0 21 -8q38 -31 41 -35 q5 -7 5 -18q0 -21 -17 -52q-30 -47 -94 -70q-11 -4 -15 -4l-12 9v-12q0 -39 15 -67q5 -2 12 -2h1q30 0 52 34q8 14 17 40v2h2q38 -31 40 -34q-9 -28 -20 -46q-23 -31 -49 -31h-4q-22 0 -45 24q-1 0 -32 26q-30 28 -30 90zM703 865q13 6 30 17q25 19 41 42q11 17 16 37 q0 2 2 7q-36 -11 -61 -45q-19 -25 -28 -58zM737 345q0 64 29 106q19 25 41 25q32 0 55 -51q15 -38 15 -81q0 -61 -28 -105q-21 -25 -37 -25h-11q-14 0 -32 21q-32 42 -32 110zM778 305q0 -23 7 -52q27 14 42 61q9 30 9 64q0 29 -7 59q-23 -12 -39 -52q-12 -34 -12 -68v-12z M844 954v1l57 11q6 43 15 84l3 12h1l40 -34q-6 -27 -11 -54h1q31 6 62 10q0 -1 16 -15q21 -17 23 -18v-3q-53 -6 -109 -17q-11 -86 -11 -128q32 40 58 53q2 1 3 1q12 -9 41 -34v-1q-18 -7 -47 -38q-28 -34 -53 -73h-2l-40 34q-2 29 -2 56v4q0 57 7 117h-1l-10 -2 q-10 8 -41 34z" />
<glyph unicode="7" horiz-adv-x="1599" d="M47 4l318 1494h884l-318 -1494h-884zM120 58h756l308 1385h-756zM243 560v1q69 16 126 16h13q51 0 84 -33q2 -1 35 -29q19 -22 19 -41v-5q0 -25 -36 -52q-16 -11 -38 -21q-44 -16 -73 -16q-4 5 -16 14q-6 -118 -14 -180h-2l-40 33q10 71 18 250q2 28 2 36h-1l-37 -7h-1z M347 963v23q0 23 14 58q26 56 98 86q40 15 69 15h27q22 -1 24 -4q38 -31 38 -32v-1q-19 3 -33 3h-5q-82 0 -145 -58q-25 -26 -35 -52q-12 -32 -12 -59q0 -44 23 -94q9 -17 15 -22q22 -9 41 -9q34 0 75 34q26 27 31 38q9 14 17 34q11 32 11 48q-96 -10 -120 -10 q-37 32 -40 33v2q29 0 167 15q8 -7 39 -33q-1 -39 -5 -49q-6 -47 -12 -149q-1 -15 -1 -34v-4q0 -14 1 -31q-2 0 -13 10l-28 24q-2 14 -2 33q0 12 1 44q-41 -40 -82 -40t-76 35q-1 0 -31 25q-20 20 -26 33q-9 13 -18 44q-7 29 -7 44zM359 418q13 1 52 16q68 33 68 72 q0 11 -8 27q-24 9 -52 9h-4q-27 0 -56 -3q4 -4 4 -5q0 -24 -4 -116zM553 247q1 22 13 251h1q38 -31 41 -33l-2 -36q8 19 33 46q23 18 37 22q37 -31 40 -34q-1 -1 -15 -8q-49 -28 -80 -124q-10 -30 -27 -117h-2zM655 851q0 73 51 126q33 28 61 28q13 0 21 -8q38 -31 41 -35 q5 -7 5 -18q0 -21 -17 -52q-30 -47 -94 -70q-11 -4 -15 -4l-12 9v-12q0 -39 15 -67q5 -2 12 -2h1q30 0 52 34q8 14 17 40v2h2q38 -31 40 -34q-9 -28 -20 -46q-23 -31 -49 -31h-4q-22 0 -45 24q-1 0 -32 26q-30 28 -30 90zM703 865q13 6 30 17q25 19 41 42q11 17 16 37 q0 2 2 7q-36 -11 -61 -45q-19 -25 -28 -58zM737 345q0 64 29 106q19 25 41 25q32 0 55 -51q15 -38 15 -81q0 -61 -28 -105q-21 -25 -37 -25h-11q-14 0 -32 21q-32 42 -32 110zM778 305q0 -23 7 -52q27 14 42 61q9 30 9 64q0 29 -7 59q-23 -12 -39 -52q-12 -34 -12 -68v-12z M844 954v1l57 11q6 43 15 84l3 12h1l40 -34q-6 -27 -11 -54h1q31 6 62 10q0 -1 16 -15q21 -17 23 -18v-3q-53 -6 -109 -17q-11 -86 -11 -128q32 40 58 53q2 1 3 1q12 -9 41 -34v-1q-18 -7 -47 -38q-28 -34 -53 -73h-2l-40 34q-2 29 -2 56v4q0 57 7 117h-1l-10 -2 q-10 8 -41 34z" />
<glyph unicode="8" horiz-adv-x="1599" d="M47 4l318 1494h884l-318 -1494h-884zM120 58h756l308 1385h-756zM243 560v1q69 16 126 16h13q51 0 84 -33q2 -1 35 -29q19 -22 19 -41v-5q0 -25 -36 -52q-16 -11 -38 -21q-44 -16 -73 -16q-4 5 -16 14q-6 -118 -14 -180h-2l-40 33q10 71 18 250q2 28 2 36h-1l-37 -7h-1z M347 963v23q0 23 14 58q26 56 98 86q40 15 69 15h27q22 -1 24 -4q38 -31 38 -32v-1q-19 3 -33 3h-5q-82 0 -145 -58q-25 -26 -35 -52q-12 -32 -12 -59q0 -44 23 -94q9 -17 15 -22q22 -9 41 -9q34 0 75 34q26 27 31 38q9 14 17 34q11 32 11 48q-96 -10 -120 -10 q-37 32 -40 33v2q29 0 167 15q8 -7 39 -33q-1 -39 -5 -49q-6 -47 -12 -149q-1 -15 -1 -34v-4q0 -14 1 -31q-2 0 -13 10l-28 24q-2 14 -2 33q0 12 1 44q-41 -40 -82 -40t-76 35q-1 0 -31 25q-20 20 -26 33q-9 13 -18 44q-7 29 -7 44zM359 418q13 1 52 16q68 33 68 72 q0 11 -8 27q-24 9 -52 9h-4q-27 0 -56 -3q4 -4 4 -5q0 -24 -4 -116zM553 247q1 22 13 251h1q38 -31 41 -33l-2 -36q8 19 33 46q23 18 37 22q37 -31 40 -34q-1 -1 -15 -8q-49 -28 -80 -124q-10 -30 -27 -117h-2zM655 851q0 73 51 126q33 28 61 28q13 0 21 -8q38 -31 41 -35 q5 -7 5 -18q0 -21 -17 -52q-30 -47 -94 -70q-11 -4 -15 -4l-12 9v-12q0 -39 15 -67q5 -2 12 -2h1q30 0 52 34q8 14 17 40v2h2q38 -31 40 -34q-9 -28 -20 -46q-23 -31 -49 -31h-4q-22 0 -45 24q-1 0 -32 26q-30 28 -30 90zM703 865q13 6 30 17q25 19 41 42q11 17 16 37 q0 2 2 7q-36 -11 -61 -45q-19 -25 -28 -58zM737 345q0 64 29 106q19 25 41 25q32 0 55 -51q15 -38 15 -81q0 -61 -28 -105q-21 -25 -37 -25h-11q-14 0 -32 21q-32 42 -32 110zM778 305q0 -23 7 -52q27 14 42 61q9 30 9 64q0 29 -7 59q-23 -12 -39 -52q-12 -34 -12 -68v-12z M844 954v1l57 11q6 43 15 84l3 12h1l40 -34q-6 -27 -11 -54h1q31 6 62 10q0 -1 16 -15q21 -17 23 -18v-3q-53 -6 -109 -17q-11 -86 -11 -128q32 40 58 53q2 1 3 1q12 -9 41 -34v-1q-18 -7 -47 -38q-28 -34 -53 -73h-2l-40 34q-2 29 -2 56v4q0 57 7 117h-1l-10 -2 q-10 8 -41 34z" />
<glyph unicode="9" horiz-adv-x="1599" d="M47 4l318 1494h884l-318 -1494h-884zM120 58h756l308 1385h-756zM243 560v1q69 16 126 16h13q51 0 84 -33q2 -1 35 -29q19 -22 19 -41v-5q0 -25 -36 -52q-16 -11 -38 -21q-44 -16 -73 -16q-4 5 -16 14q-6 -118 -14 -180h-2l-40 33q10 71 18 250q2 28 2 36h-1l-37 -7h-1z M347 963v23q0 23 14 58q26 56 98 86q40 15 69 15h27q22 -1 24 -4q38 -31 38 -32v-1q-19 3 -33 3h-5q-82 0 -145 -58q-25 -26 -35 -52q-12 -32 -12 -59q0 -44 23 -94q9 -17 15 -22q22 -9 41 -9q34 0 75 34q26 27 31 38q9 14 17 34q11 32 11 48q-96 -10 -120 -10 q-37 32 -40 33v2q29 0 167 15q8 -7 39 -33q-1 -39 -5 -49q-6 -47 -12 -149q-1 -15 -1 -34v-4q0 -14 1 -31q-2 0 -13 10l-28 24q-2 14 -2 33q0 12 1 44q-41 -40 -82 -40t-76 35q-1 0 -31 25q-20 20 -26 33q-9 13 -18 44q-7 29 -7 44zM359 418q13 1 52 16q68 33 68 72 q0 11 -8 27q-24 9 -52 9h-4q-27 0 -56 -3q4 -4 4 -5q0 -24 -4 -116zM553 247q1 22 13 251h1q38 -31 41 -33l-2 -36q8 19 33 46q23 18 37 22q37 -31 40 -34q-1 -1 -15 -8q-49 -28 -80 -124q-10 -30 -27 -117h-2zM655 851q0 73 51 126q33 28 61 28q13 0 21 -8q38 -31 41 -35 q5 -7 5 -18q0 -21 -17 -52q-30 -47 -94 -70q-11 -4 -15 -4l-12 9v-12q0 -39 15 -67q5 -2 12 -2h1q30 0 52 34q8 14 17 40v2h2q38 -31 40 -34q-9 -28 -20 -46q-23 -31 -49 -31h-4q-22 0 -45 24q-1 0 -32 26q-30 28 -30 90zM703 865q13 6 30 17q25 19 41 42q11 17 16 37 q0 2 2 7q-36 -11 -61 -45q-19 -25 -28 -58zM737 345q0 64 29 106q19 25 41 25q32 0 55 -51q15 -38 15 -81q0 -61 -28 -105q-21 -25 -37 -25h-11q-14 0 -32 21q-32 42 -32 110zM778 305q0 -23 7 -52q27 14 42 61q9 30 9 64q0 29 -7 59q-23 -12 -39 -52q-12 -34 -12 -68v-12z M844 954v1l57 11q6 43 15 84l3 12h1l40 -34q-6 -27 -11 -54h1q31 6 62 10q0 -1 16 -15q21 -17 23 -18v-3q-53 -6 -109 -17q-11 -86 -11 -128q32 40 58 53q2 1 3 1q12 -9 41 -34v-1q-18 -7 -47 -38q-28 -34 -53 -73h-2l-40 34q-2 29 -2 56v4q0 57 7 117h-1l-10 -2 q-10 8 -41 34z" />
<glyph unicode=":" horiz-adv-x="367" d="M100 133v63q0 30 4 81h7q45 -36 156 -131v-24q-3 -82 -3 -91v-31h-7q-143 119 -157 133zM100 1022v63q0 30 4 81h7q45 -36 156 -131v-24q-3 -82 -3 -91v-31h-7q-143 119 -157 133z" />
<glyph unicode=";" horiz-adv-x="367" d="M100 -122v328h4q9 0 81 -65q3 0 81 -67v-331h-6q-151 124 -160 135zM100 1022v63q0 30 4 81h7q45 -36 156 -131v-24q-3 -82 -3 -91v-31h-7q-143 119 -157 133z" />
<glyph unicode="&#x3c;" horiz-adv-x="872" d="M0 785v7q653 607 677 626h9q144 -123 155 -127v-4l-661 -599q513 -515 682 -684v-4h-2q-15 5 -171 95q-336 335 -689 690z" />
<glyph unicode="=" horiz-adv-x="941" d="M10 573v8q180 3 266 3h384q71 0 241 -3q0 -3 158 -135v-4h-7q-314 4 -351 4h-133q-47 0 -389 -4h-12q-157 130 -157 131zM10 973v8q180 3 266 3h384q71 0 241 -3q0 -3 158 -135v-4h-7q-314 4 -351 4h-133q-47 0 -389 -4h-12q-157 130 -157 131z" />
<glyph unicode="&#x3e;" horiz-adv-x="881" d="M0 1415v3h2q15 -5 171 -95q337 -334 689 -689v-8q-653 -606 -677 -626h-9q-144 123 -154 128v3l660 600q-513 514 -682 684z" />
<glyph unicode="?" horiz-adv-x="718" d="M10 1228v9q0 50 61 153q75 105 193 142q29 11 61 11h59q61 0 143 -81q3 0 46 -38q103 -83 103 -103q18 -23 29 -81q3 -14 3 -30v-65q0 -50 -64 -144q-116 -196 -173 -308q-103 -215 -105 -266q-1 0 -1 -4h-4q-159 132 -162 137q25 158 281 583q61 93 61 133q4 13 4 36 q0 35 -13 92h-22q-147 0 -261 -139q-61 -85 -75 -172h-4q-158 131 -160 135zM183 167q7 100 7 114h4q148 -126 163 -135l-7 -114v-32h-7q-153 129 -158 131q-2 27 -2 36z" />
<glyph unicode="@" horiz-adv-x="1599" d="M47 4l318 1494h884l-318 -1494h-884zM120 58h756l308 1385h-756zM243 560v1q69 16 126 16h13q51 0 84 -33q2 -1 35 -29q19 -22 19 -41v-5q0 -25 -36 -52q-16 -11 -38 -21q-44 -16 -73 -16q-4 5 -16 14q-6 -118 -14 -180h-2l-40 33q10 71 18 250q2 28 2 36h-1l-37 -7h-1z M347 963v23q0 23 14 58q26 56 98 86q40 15 69 15h27q22 -1 24 -4q38 -31 38 -32v-1q-19 3 -33 3h-5q-82 0 -145 -58q-25 -26 -35 -52q-12 -32 -12 -59q0 -44 23 -94q9 -17 15 -22q22 -9 41 -9q34 0 75 34q26 27 31 38q9 14 17 34q11 32 11 48q-96 -10 -120 -10 q-37 32 -40 33v2q29 0 167 15q8 -7 39 -33q-1 -39 -5 -49q-6 -47 -12 -149q-1 -15 -1 -34v-4q0 -14 1 -31q-2 0 -13 10l-28 24q-2 14 -2 33q0 12 1 44q-41 -40 -82 -40t-76 35q-1 0 -31 25q-20 20 -26 33q-9 13 -18 44q-7 29 -7 44zM359 418q13 1 52 16q68 33 68 72 q0 11 -8 27q-24 9 -52 9h-4q-27 0 -56 -3q4 -4 4 -5q0 -24 -4 -116zM553 247q1 22 13 251h1q38 -31 41 -33l-2 -36q8 19 33 46q23 18 37 22q37 -31 40 -34q-1 -1 -15 -8q-49 -28 -80 -124q-10 -30 -27 -117h-2zM655 851q0 73 51 126q33 28 61 28q13 0 21 -8q38 -31 41 -35 q5 -7 5 -18q0 -21 -17 -52q-30 -47 -94 -70q-11 -4 -15 -4l-12 9v-12q0 -39 15 -67q5 -2 12 -2h1q30 0 52 34q8 14 17 40v2h2q38 -31 40 -34q-9 -28 -20 -46q-23 -31 -49 -31h-4q-22 0 -45 24q-1 0 -32 26q-30 28 -30 90zM703 865q13 6 30 17q25 19 41 42q11 17 16 37 q0 2 2 7q-36 -11 -61 -45q-19 -25 -28 -58zM737 345q0 64 29 106q19 25 41 25q32 0 55 -51q15 -38 15 -81q0 -61 -28 -105q-21 -25 -37 -25h-11q-14 0 -32 21q-32 42 -32 110zM778 305q0 -23 7 -52q27 14 42 61q9 30 9 64q0 29 -7 59q-23 -12 -39 -52q-12 -34 -12 -68v-12z M844 954v1l57 11q6 43 15 84l3 12h1l40 -34q-6 -27 -11 -54h1q31 6 62 10q0 -1 16 -15q21 -17 23 -18v-3q-53 -6 -109 -17q-11 -86 -11 -128q32 40 58 53q2 1 3 1q12 -9 41 -34v-1q-18 -7 -47 -38q-28 -34 -53 -73h-2l-40 34q-2 29 -2 56v4q0 57 7 117h-1l-10 -2 q-10 8 -41 34z" />
<glyph unicode="A" horiz-adv-x="1320" d="M10 130v7q0 5 45 77q111 192 202 371q-159 131 -161 135v4q18 1 240 9q129 247 347 693h9q160 -133 160 -135l179 -521q18 2 27 2h5l162 -137v-3q-131 -9 -142 -9q122 -353 227 -618v-5q-8 0 -42 31q-117 97 -124 106q-65 155 -178 479q-287 -17 -465 -24 q-182 -354 -320 -585l-7 -7h-7q-148 124 -157 130zM581 745h1q145 6 330 18q-115 336 -130 382q-1 0 -164 -326q-14 -23 -37 -74z" />
<glyph unicode="B" horiz-adv-x="1456" d="M10 1381v3q0 4 63 16q196 51 326 51h111q105 0 224 -58q38 -23 178 -144q113 -90 113 -183q0 -95 -126 -171v-2q81 -21 191 -115q119 -97 175 -153q34 -47 34 -49q57 -105 57 -180v-58q0 -86 -99 -180q-88 -77 -268 -120q-171 -38 -300 -38h-476q-153 127 -162 137v3 q57 -1 85 -1h104q-25 25 -30 25q34 360 34 524q14 418 22 579q-90 -21 -96 -21q-148 121 -160 135zM388 139h77q294 0 515 90q213 103 213 275q0 104 -72 223q-142 65 -324 65q-113 0 -247 -25q0 4 -103 88q-22 20 -23 20h-2q-14 -509 -32 -722q-2 0 -2 -14zM406 1296 q16 -16 34 -29q-16 -263 -16 -351h2q161 42 255 88q177 90 177 197v7q-10 75 -38 75q-92 29 -189 29h-22q-93 0 -203 -16z" />
<glyph unicode="C" horiz-adv-x="1139" d="M10 666v81q0 158 124 347q100 132 218 209q183 117 358 135q9 4 42 4h36q7 0 30 -22q129 -107 133 -113v-4h-1q-235 0 -474 -169q-128 -101 -194 -209q-108 -171 -108 -351q0 -193 117 -378q16 -20 25 -20q81 -37 173 -37h9q169 0 313 122q124 123 124 266h4l160 -135 v-27q0 -96 -88 -208q-73 -76 -121 -98q-112 -59 -200 -59h-79q-85 0 -205 72q-172 139 -238 202q0 3 -36 43q-48 73 -72 131q-50 133 -50 218z" />
<glyph unicode="D" horiz-adv-x="1365" d="M10 1442v7q141 18 205 18h137q174 0 371 -67q88 -35 144 -81q25 -11 169 -135q149 -112 200 -279q29 -109 29 -192v-83q0 -174 -139 -338q-134 -147 -416 -225q-113 -31 -300 -54q-117 -13 -161 -13h-36q-148 125 -158 131v8q24 0 142 9v1q-16 12 -23 17q25 222 52 939 q5 136 5 195l2 16l-65 -9zM354 167q176 31 288 69q459 168 459 572q0 171 -65 315q-27 53 -63 92q-59 34 -151 65q-179 48 -364 48h-59q-12 0 -36 -1l39 -36q-16 -583 -39 -987q-2 0 -9 -137z" />
<glyph unicode="E" horiz-adv-x="1222" d="M10 130v9q111 14 113 14q26 276 44 740v11q-105 85 -114 95v4q109 9 119 9q9 285 9 336q-35 27 -112 94v3q340 9 479 9h207q158 -131 160 -135v-3h-12q-290 0 -551 -9q-4 -88 -9 -283q418 29 511 29q158 -135 162 -135v-5l-12 -2h-2q-128 0 -664 -40v-2q0 -108 -35 -702 h2q397 22 715 22q53 0 164 -2q12 -3 81 -65q71 -57 84 -72v-5q-88 4 -174 4q-434 0 -886 -36v-4l-9 2q-87 -11 -104 -11h-9q-148 124 -157 130z" />
<glyph unicode="F" horiz-adv-x="1005" d="M10 997v6q128 9 212 9q2 0 15 1q7 248 7 279h-31q-9 0 -27 -1q-1 3 -160 136v6q171 3 346 3h466q147 -124 157 -129v-9h-252q-114 0 -328 -2l-7 -281h2q99 0 351 -3q2 -5 153 -130q7 -5 7 -7v-4q-65 0 -310 4q-115 -2 -196 -2l-13 -2q-19 -540 -45 -821q-2 0 -5 -50h-4 q-7 0 -30 22q-127 105 -133 113q23 208 45 720v11h-2q-39 -4 -60 -4q-158 133 -158 135z" />
<glyph unicode="G" horiz-adv-x="1370" d="M10 722v93q0 100 63 243q117 227 385 337q160 61 283 61h111q90 0 105 -25q22 -17 144 -121v-3h-2q-78 10 -133 10h-18q-292 0 -531 -181q-70 -58 -114 -116q-129 -174 -129 -385q0 -177 90 -374q23 -45 56 -87q85 -39 169 -39q89 0 205 65q207 130 297 378 q40 108 40 176q1 0 1 2q-385 -42 -482 -42q-30 23 -164 137v4q119 0 670 63l158 -135v-18q0 -99 -23 -222q-51 -489 -51 -703q0 -31 6 -130h-2q-8 0 -58 45q-96 78 -106 90q-5 49 -5 112v41q0 82 5 157q-170 -161 -331 -161q-136 0 -250 89q-166 136 -211 181 q-113 118 -162 337q-16 80 -16 121z" />
<glyph unicode="H" horiz-adv-x="1334" d="M10 932v6h175q16 295 21 489h7l161 -133q-4 -122 -15 -354h2q170 0 689 19q20 346 20 468h7q149 -123 157 -133v-90q0 -201 -59 -1015l-20 -189h-4q-9 0 -83 67q-3 0 -37 30q-39 31 -44 38q31 265 54 677q-416 -15 -687 -15h-2q-27 -470 -63 -797h-4q-7 0 -30 22 q-120 99 -133 113q30 265 54 662h-2q-8 0 -88 72q-5 0 -76 63z" />
<glyph unicode="I" horiz-adv-x="643" d="M200 130v12l25 283q54 760 54 1004h7q148 -124 157 -129v-76q0 -265 -65 -1103l-14 -121h-7q-146 122 -157 130z" />
<glyph unicode="J" horiz-adv-x="783" d="M-40 63v8q74 -19 132 -19h11q116 0 209 86q70 78 93 201q25 185 72 934l174 153l-8 -148q-34 -629 -75 -1046q-11 -83 -47 -154q-9 -28 -63 -84q-61 -51 -112 -62q-40 -12 -58 -12h-72q-113 10 -113 26q-9 4 -131 108q-9 9 -12 9z" />
<glyph unicode="K" horiz-adv-x="1078" d="M10 140v11q0 13 20 211q59 816 59 1067v11h4q155 -128 164 -139q0 -99 -13 -322q166 124 455 362q78 63 126 110h9q129 -108 159 -134v-3q-56 -56 -196 -169q-260 -212 -416 -328q79 -122 192 -266q138 -176 409 -467l265 -280v-4h-2q-6 0 -142 83q-80 47 -92 59 q-204 225 -328 389q-271 354 -347 450h-2q-78 -58 -99 -68h-2l-3 1v-1q-29 -496 -56 -708h-4z" />
<glyph unicode="L" horiz-adv-x="893" d="M10 130v16q0 12 49 457q41 355 82 826h8l158 -133v-2q0 -88 -115 -1145h2q251 13 363 13h47q42 0 121 -2q6 -8 154 -131q0 -2 4 -2v-9q-6 0 -9 2q-86 2 -133 2h-2q-143 0 -547 -22h-25q-148 124 -157 130z" />
<glyph unicode="M" horiz-adv-x="1917" d="M10 169v9q130 411 212 740q98 393 98 554h7l158 -133q139 -392 380 -1064h2q0 4 140 317q164 386 252 641q67 194 67 239h3q10 0 74 -59q30 -21 90 -76q209 -713 351 -1146q47 -130 63 -157v-9h-2q-20 15 -163 137q-63 129 -245 734l-63 216h-2q-77 -227 -191 -495 q-82 -202 -270 -617h-9q-148 123 -160 135q-90 228 -344 945h-2q-100 -476 -246 -934l-36 -112h-4z" />
<glyph unicode="N" horiz-adv-x="1252" d="M10 158v17q0 15 29 361q63 804 63 974h7q157 -129 162 -137q76 -185 319 -579q168 -273 354 -547v3q0 356 94 1244h3l161 -135v-14q0 -11 -35 -342q-57 -639 -57 -974v-29h-2q-9 0 -56 43q-107 87 -113 97q-361 522 -618 954q-54 95 -61 103v-4q0 -150 -86 -1170h-4z" />
<glyph unicode="O" horiz-adv-x="1367" d="M10 817v99q0 89 54 222q29 61 76 124q84 92 115 106q117 85 261 104q24 4 47 4h93q98 0 223 -79q181 -144 245 -209q75 -86 101 -146q62 -106 90 -302q2 -21 2 -40v-101q0 -79 -49 -243q-81 -217 -241 -293q-127 -63 -254 -63h-84q-126 0 -260 112q-143 115 -217 189 q-71 87 -101 149q-33 59 -65 162q-36 126 -36 205zM174 731q0 -227 128 -457q59 -94 77 -94q83 -41 180 -41h9q391 0 524 331q61 177 61 313q0 253 -142 473q-26 35 -34 35q-91 46 -197 46h-10q-269 0 -450 -199q-146 -178 -146 -407z" />
<glyph unicode="P" horiz-adv-x="1174" d="M10 1393v6q278 61 441 61h140q187 0 328 -141q4 0 130 -108q64 -71 75 -144v-59q-6 -49 -59 -115q-78 -77 -139 -108q-66 -41 -189 -81q-129 -34 -203 -34q0 2 -65 55v-1q-27 -488 -58 -724h-7l-158 133q36 305 68 958q7 151 7 189l2 9l-153 -31q-124 101 -160 135z M474 823h2q37 0 196 57q104 45 177 106q72 60 92 112q19 42 19 72q0 52 -34 113q-96 38 -207 38h-29q-100 0 -216 -11q18 -14 18 -18q0 -116 -18 -469z" />
<glyph unicode="Q" horiz-adv-x="1451" d="M10 810v104q0 111 74 261q31 64 119 152q80 66 151 99q121 48 207 48h93q96 0 216 -74q46 -31 222 -181q67 -65 90 -105q51 -73 92 -185q46 -149 46 -276q0 -173 -79 -365q-29 -64 -95 -140v-2q96 -113 408 -423q82 -77 83 -79v-4h-3q-5 0 -146 77q-139 141 -281 312 q-72 81 -88 95q-147 -128 -380 -128h-31q-161 0 -311 141q-7 4 -68 56q-119 95 -168 169q-69 97 -111 234q-40 141 -40 214zM174 727q0 -216 117 -439q27 -49 74 -104q97 -47 192 -47h9q259 0 407 146v1q-112 127 -207 245q-187 242 -194 270q9 0 63 -50q4 -1 108 -90 q73 -114 163 -229q49 -61 94 -115v-2q62 71 95 166q58 170 58 302q0 277 -164 502q-102 53 -210 53h-11q-289 0 -475 -233q-119 -171 -119 -376z" />
<glyph unicode="R" horiz-adv-x="1448" d="M10 1374v7q286 49 286 52v2l9 -2q138 24 218 24h95q135 0 261 -69q36 -23 182 -147q78 -60 78 -128q0 -121 -220 -239q-201 -114 -331 -134q164 -150 511 -453q330 -285 457 -378q9 -11 135 -114v-5h-2q-3 0 -54 27q-159 70 -219 128q-212 162 -760 668q-8 4 -160 140 q-3 0 -27 22q-26 23 -29 23v-2q-34 -601 -61 -794h-4l-162 137v2q36 294 78 1120q-77 -15 -123 -22zM446 899h1q158 40 243 83q82 37 170 99q111 87 111 160v9q0 34 -14 34q-96 34 -223 34h-18q-214 -12 -254 -29q0 -121 -16 -390z" />
<glyph unicode="S" horiz-adv-x="1599" d="M10 351v52q0 55 74 114q32 25 110 57h3l160 -137v-1q-2 -3 -91 -47q-92 -61 -92 -148q6 -63 25 -63q110 -39 283 -39q245 0 495 73q103 35 210 105q191 140 191 288q-15 90 -45 90q-48 29 -344 63q-286 38 -453 88q-102 31 -175 99q-120 97 -158 139q-18 35 -18 70v7 q0 104 201 196q103 41 196 65q199 41 265 41h149q109 0 216 -36q29 -8 103 -73q106 -87 119 -105q20 -36 20 -72q0 -80 -195 -160h-2q-127 104 -162 137v3q75 30 135 72q56 47 56 81h-2q-91 15 -194 15h-43q-137 0 -382 -67q-142 -46 -218 -97q-97 -72 -97 -140 q0 -29 15 -29q151 -56 651 -117q101 -15 168 -42q66 -29 126 -82q130 -105 183 -161q49 -63 49 -108v-46q-4 -59 -65 -144q-76 -84 -106 -101q-77 -56 -159 -92q-68 -31 -198 -61q-200 -38 -302 -38h-140q-123 0 -258 54q-38 13 -191 148q-82 66 -95 102q-18 31 -18 47z" />
<glyph unicode="T" horiz-adv-x="1071" d="M10 1420v6q761 34 929 63q8 3 29 3h7q147 -124 156 -129v-9q-78 -20 -414 -42q-54 -2 -63 -2q0 -1 8 -7q0 -248 -80 -1168q-1 -5 -16 -135h-7q-128 105 -160 135q45 352 92 1166l-321 -16q-148 121 -160 135z" />
<glyph unicode="U" horiz-adv-x="1132" d="M10 175v84l27 567q14 424 14 646h4l164 -136q0 -406 -38 -1109q40 37 112 131q222 266 298 430q138 243 276 708v2h9q147 -124 156 -130v-9q0 -59 -54 -727q-23 -364 -50 -618q-8 0 -41 31q-118 99 -125 103q27 295 49 601v2h-2q-50 -112 -131 -242q-71 -115 -297 -387 q-17 -23 -74 -72q-69 -50 -88 -50h-18q-11 0 -101 81q-63 48 -86 76q-4 14 -4 18z" />
<glyph unicode="V" horiz-adv-x="1244" d="M10 1469v7h4l160 -135q369 -750 498 -1028h4q40 201 97 403q141 483 295 814h9q148 -124 157 -130v-9q0 -3 -52 -115q-168 -400 -303 -930q-63 -275 -63 -346h-3q-9 0 -56 43q-92 73 -113 99q-96 222 -292 627q-86 173 -342 700z" />
<glyph unicode="W" horiz-adv-x="1971" d="M10 1474v6h2q156 -129 164 -139q252 -526 459 -1003h1q36 269 92 533q83 363 144 573l9 48h6q161 -135 162 -137q122 -396 324 -950q4 0 10 63q56 279 128 491q99 282 227 540l58 121h9q147 -124 156 -130v-9q-14 -32 -104 -221q-129 -262 -241 -643q-92 -338 -92 -599 l-2 -13h-5q0 5 -141 119q-21 19 -21 24q-164 413 -360 991h-2q-105 -383 -182 -876q-20 -142 -31 -263h-3q-8 0 -54 41q-100 83 -112 96q-209 498 -533 1193q-60 120 -68 144z" />
<glyph unicode="X" horiz-adv-x="1395" d="M10 1531v7h2q11 -7 160 -133q176 -236 360 -466v-2h4q229 408 334 625h4q8 0 41 -31q117 -97 123 -104v-2q-103 -214 -358 -666q94 -110 255 -279q287 -280 466 -429q111 -94 260 -217v-4h-67q-152 107 -355 290q-200 188 -367 369q-107 116 -196 216q-16 18 -18 18 q-161 -286 -401 -697q-13 -21 -15 -21h-3q-161 133 -162 136v2q243 415 433 753q-271 323 -496 631q-4 0 -4 4z" />
<glyph unicode="Y" horiz-adv-x="821" d="M10 859v55q0 23 59 454l21 156h6l135 -112q-72 -540 -76 -559q48 44 108 118q112 137 400 533h1l135 -113v-8q0 -6 -30 -154q-64 -353 -149 -1133q-1 0 -13 -101h-8l-133 112q80 690 121 984v1h-2q-113 -161 -251 -317q-86 -93 -135 -93h-1q-20 0 -44 24l-126 106 q-18 23 -18 47z" />
<glyph unicode="Z" horiz-adv-x="1152" d="M-15 1426v3v2v2l351 9l175 4q176 5 265 5h43q138 -115 160 -135v-4q-4 0 -92 -106l-591 -1051h2q232 0 705 -16q9 -11 159 -134v-5h-56l-495 13h-200q-84 0 -232 -2q-2 -2 -11 -2q-2 4 -66 58q-85 71 -92 75v6q0 9 49 61l628 1098q-2 0 -18 -2l-504 -13h-8l-4 -1h-6h-1 h-1l-4 4l-2 3q-2 2 -76 64l-38 31l-37 31v1q0 1 -2 1h-1z" />
<glyph unicode="[" horiz-adv-x="1004" d="M10 -52q25 91 527 1791h467q142 -117 163 -139v-5h-457q-23 -82 -486 -1651h322q146 -120 170 -142v-2h-542q-142 117 -164 139v9z" />
<glyph unicode="\" horiz-adv-x="902" d="M10 1766v9q9 6 97 90h9l759 -1725v-10q-9 -6 -96 -90h-9q0 3 -376.5 851t-383.5 875z" />
<glyph unicode="]" horiz-adv-x="1098" d="M-159 -56h457q23 82 486 1651h-322q-145 120 -169 142v2h542q142 -117 163 -139v-9q-25 -91 -527 -1791h-466q-142 117 -164 139v5z" />
<glyph unicode="^" horiz-adv-x="1503" d="M100 845v13l511 291h14q22 -7 341 -193q180 -101 207 -125l230 -196v-7h-3q-12 0 -379 213l-252 162q-490 -275 -502 -275h-13q-143 102 -154 117z" />
<glyph unicode="_" horiz-adv-x="726" d="M-160 -15q180 3 266 3h384q71 0 241 -3q0 -3 158 -135v-4h-7q-314 4 -351 4h-133q-47 0 -389 -4h-12q-157 130 -157 131v8z" />
<glyph unicode="`" horiz-adv-x="1151" d="M532 1541l90 38l214 -244l-175 -73z" />
<glyph unicode="a" horiz-adv-x="917" d="M50 338v69q0 134 119 313q53 91 138 196q134 143 198 191q44 40 53 40q8 0 55 -44q78 -65 112 -90q141 -117 142 -120v-13q0 -34 -61 -596q-7 -94 -18 -273h-4l-163 137q-73 -105 -186 -144q-22 -4 -34 -4h-45q-52 0 -117 59q-125 104 -142 123q-47 72 -47 156zM214 238 q2 -53 11 -99q90 0 192 100q0 3 25 31q64 85 99 171q85 213 153 545q-66 -47 -207 -194q-109 -131 -192 -277q-81 -139 -81 -277z" />
<glyph unicode="b" horiz-adv-x="959" d="M50 130v12q0 17 74 596q54 467 99 767h9l158 -133q-36 -247 -61 -454q98 114 137 128q56 36 117 36q62 0 119 -51q144 -118 171 -147q36 -47 36 -90v-51q0 -96 -121 -271q-80 -126 -200 -260q-118 -120 -185 -174q-27 -23 -27 -25h-4l-128 106l-30 -119h-7 q-146 122 -157 130zM268 205q152 132 227 231q209 270 239 388q11 55 11 80l-4 37q-112 0 -228 -144q-99 -107 -168 -334q-27 -76 -77 -258z" />
<glyph unicode="c" horiz-adv-x="829" d="M50 475v99q1 115 67 295q23 62 95 153q57 61 104 85q55 28 99 31h35q53 0 100 -36q173 -146 180 -155q49 -75 49 -180v-2h-2q-13 10 -162 135h-2q-7 99 -18 99q-80 0 -176 -76q-72 -69 -97 -120q-18 -22 -43 -87q-65 -173 -65 -331q0 -135 52 -246h16q137 0 225 54 q71 50 103 154q3 17 7 17h4q151 -128 158 -132v-11q-28 -105 -88 -153q-39 -39 -130 -59q-57 -9 -90 -9h-48q-52 0 -146 88q-99 78 -144 126q-56 74 -78 202q-5 33 -5 59z" />
<glyph unicode="d" horiz-adv-x="869" d="M50 360v86q0 89 63 265q148 348 389 463h2l81 -67v2q14 286 36 354q3 22 16 67h9q158 -132 158 -133v-2q-56 -201 -56 -581q0 -457 67 -789q4 0 4 -21v-4q-8 0 -42 31q-117 97 -124 106q-27 129 -27 144h-2q-99 -259 -245 -259q-70 0 -136 66q-122 100 -143 123 q-50 70 -50 149zM214 259q0 -47 12 -97q74 0 155 104q53 82 92 191q42 108 85 339q21 138 21 187q-75 -52 -169 -173q-84 -120 -139 -257q-57 -166 -57 -294z" />
<glyph unicode="e" horiz-adv-x="820" d="M50 506v99q0 144 92 320q31 56 93 124q90 85 146 105q62 25 90 25h54q29 0 92 -58q116 -95 131 -113q20 -27 20 -68v-4q0 -120 -108 -265q-88 -97 -117 -111q-85 -68 -219 -117q-45 -15 -62 -18q-5 7 -46 39q-2 -24 -2 -34q0 -176 61 -286q28 -5 47 -5h9q101 0 189 115 q44 71 74 155q11 36 14 36h2q150 -124 160 -135v-8q-3 -32 -68 -163q-57 -99 -162 -135q-17 -4 -27 -4h-53q-69 0 -189 113q-4 0 -111 94q-76 86 -88 160q-22 84 -22 139zM241 617q93 39 201 137q82 84 108 144q27 50 45 119q0 5 2 14q-136 -39 -243 -176 q-92 -134 -113 -238z" />
<glyph unicode="f" horiz-adv-x="803" d="M-10 1208v7q272 43 324 43q20 137 47 234q39 123 108 232q35 45 77 45h51q37 0 126 -83q89 -71 109 -106q14 -26 14 -93q0 -21 -1 -45v-5h-2q-109 131 -116 140l8 54h-5q-76 0 -108 -69q-67 -107 -106 -252q0 -5 -8 -34l195 16q29 -21 164 -137v-3q-318 -27 -387 -34 q-24 -152 -44 -454q-14 -230 -28 -864h-8l-160 133q20 879 52 1163q-3 0 -144 -23q-1 3 -158 135z" />
<glyph unicode="g" horiz-adv-x="834" d="M50 -66h2q150 -126 164 -139q6 -41 72 -144q36 -12 66 -12h6q100 0 194 115q67 103 67 219q0 17 -20 206h-2q-22 -53 -59 -103q-65 -70 -119 -70h-16q-75 0 -171 92q-103 82 -128 109q-49 61 -49 153v24q0 199 204 502q53 81 183 212q42 37 83 67h9q160 -133 160 -135v-4 q-5 0 -20 -14q70 -61 74 -61q7 -917 24 -970q10 -90 10 -107v-75q0 -73 -57 -175q-63 -90 -155 -119q-17 -5 -29 -5h-48q-69 0 -188 108q-106 86 -163 146q-82 109 -94 173v7zM223 234q0 -39 12 -88h13q86 0 155 114q42 71 77 189q42 142 79 428q4 25 4 34 q-112 -120 -185 -237q-155 -261 -155 -440z" />
<glyph unicode="h" horiz-adv-x="856" d="M50 133v139q1 263 85 889q41 267 73 380h9l159 -133v-4q-65 -243 -124 -776h1q113 216 299 468q41 51 60 51q12 0 28 -17q152 -126 155 -131q11 -14 11 -32v-35q0 -229 -54 -914q-2 0 -2 -11h-3l-164 137q16 137 38 509q9 141 9 177q1 3 1 5q-166 -243 -282 -484 q-61 -132 -97 -234q-22 -64 -36 -117h-4q-7 0 -31 22q-116 96 -131 111z" />
<glyph unicode="i" horiz-adv-x="393" d="M50 130v25q0 142 99 920l7 68h4q53 -43 164 -137q-107 -855 -107 -972q-1 0 -3 -34h-7q-149 125 -157 130zM167 1348q13 69 13 81h7q148 -125 156 -129v-33l-9 -56h-5q-148 123 -162 137z" />
<glyph unicode="j" horiz-adv-x="539" d="M-510 -154h2q52 -26 104 -79q130 -117 223 -140q45 -18 94 -18q128 0 158 45q37 40 53 102q21 51 54 324q43 316 81 931l5 131h4q133 -110 162 -137v-1q0 -201 -62 -863q-49 -456 -86 -550q-31 -81 -81 -105q-31 -16 -90 -16h-67q-50 0 -169 59q-78 41 -250 182 q-67 52 -135 130v5zM268 1355q12 54 12 81h7q148 -124 157 -130v-40l-9 -48h-5q-152 126 -162 137z" />
<glyph unicode="k" horiz-adv-x="736" d="M50 306v87q0 251 95 1156h6q135 -111 142 -119q-45 -429 -45 -446q175 128 301 198q18 13 38 19q7 -8 138 -117q0 -1 3 -1v-4q0 -2 -61 -36q-139 -82 -303 -205q-66 -52 -94 -79q6 -4 35 -47q140 -196 344 -450q108 -133 219 -259v-3q-8 0 -52 41q-68 51 -126 113 q-217 251 -456 569q-11 -7 -11 -10q-29 -341 -29 -526h-3q-134 112 -141 119z" />
<glyph unicode="l" horiz-adv-x="347" d="M50 133v326q0 378 49 857q14 102 34 171h7q148 -124 157 -130v-9l-24 -120q-20 -112 -38 -396q-21 -348 -21 -679v-153h-2q-8 0 -31 22q-131 109 -131 111z" />
<glyph unicode="m" horiz-adv-x="1452" d="M50 164v18q0 77 63 608q43 290 63 369h5q162 -135 162 -137v-1q-25 -104 -63 -366v-2h2q73 132 229 360q55 78 120 148h20q12 0 96 -76q5 -2 46 -37q42 -33 42 -44v-10q-27 -295 -36 -436v-2h2q114 213 295 472q60 87 102 128q4 1 8 1h5q16 0 76 -55q11 -8 59 -49 q56 -44 56 -54v-32q-60 -224 -115 -641q-20 -151 -20 -241v-36q0 -14 3 -49h-7l-158 133q-6 23 -6 70q0 183 62 533v2h-2q-258 -401 -344 -646q-3 -3 -25 -70h-6q0 3 -77 66l-83 70q-9 63 -9 146q0 187 25 513v2h-1q-325 -491 -425 -790h-4z" />
<glyph unicode="n" horiz-adv-x="883" d="M50 185v18q0 92 70 659q37 244 58 319h3q141 -118 162 -137v-2q-19 -67 -61 -362v-1h2q99 178 256 396q47 59 91 108h20q11 0 74 -56q106 -88 108 -94v-38q-77 -664 -77 -829q0 -15 -2 -65q2 -73 7 -101h-7q-150 122 -160 135q-6 31 -6 77v31q0 196 43 583v2h-1 q-192 -289 -317 -542q-61 -128 -99 -234v-2h-4q-158 132 -160 135z" />
<glyph unicode="o" horiz-adv-x="660" d="M50 475v103q0 159 79 324q24 49 87 111q55 40 88 40h47q60 0 136 -90q46 -62 71 -124q52 -146 52 -265v-99q0 -157 -81 -327q-29 -52 -76 -99q-61 -49 -101 -49h-45q-71 0 -151 108q-45 70 -74 162q-32 120 -32 205zM212 391q0 -117 31 -234q100 50 163 234 q42 129 42 268q0 112 -31 239q-106 -58 -167 -245q-38 -128 -38 -262z" />
<glyph unicode="p" horiz-adv-x="915" d="M50 -354q0 40 81 680q74 642 74 747q-2 16 -2 24h7q158 -132 160 -135v-44q117 148 211 148h9q45 0 99 -52q124 -102 148 -128q28 -51 28 -99v-81q0 -91 -73 -274q-47 -105 -125 -212q-45 -62 -127 -142q-85 -74 -126 -94q-9 5 -126 105q-5 0 -11 -74q-24 -175 -63 -515 h-7q-148 124 -157 130v16zM293 153q37 19 140 125q91 104 137 185q132 240 132 428q0 3 -2 26q-142 -54 -283 -337q-53 -110 -101 -268q-9 -21 -23 -159z" />
<glyph unicode="q" horiz-adv-x="1015" d="M50 227v52q0 94 117 260q34 45 103 120q148 153 190 182q136 113 238 176q93 58 144 80h7q126 -104 151 -128v-2q0 -3 -61 -32l-36 -24q7 -3 101 -83v-3q-43 -145 -153 -433l-104 -1002l-166 139l83 713q-259 -261 -358 -261h-9q-34 0 -96 61q-121 94 -131 124 q-20 37 -20 61zM207 130h1q130 62 330 340q96 131 230 353v2q-86 -57 -243 -200q-129 -127 -182 -196q-136 -179 -136 -297v-2z" />
<glyph unicode="r" horiz-adv-x="659" d="M50 131v24q0 45 52 986h7l161 -133q-8 -104 -8 -137l-1 -3v-2h1q36 76 126 174q93 82 157 101q2 -3 158 -135v-5q-2 -3 -59 -31q-142 -84 -248 -306q-57 -121 -108 -324q-38 -159 -74 -340h-7z" />
<glyph unicode="s" horiz-adv-x="963" d="M30 276v42q0 50 47 107q29 31 80 46q116 35 161 35q25 -18 164 -137v-3h-2q-61 -1 -192 -46q-42 -20 -72 -69q-23 -47 -23 -88v-12l2 -12q35 -2 39 -2q142 0 285 76q50 28 112 93q99 118 99 214q0 53 -14 53q-206 42 -283 86q-165 133 -206 176q-19 29 -19 61 q0 145 223 232q97 36 144 36h68q81 0 131 -50q131 -108 152 -130q7 -16 7 -23v-51q0 -51 -114 -124h-2q-158 132 -161 137v2q60 38 96 82q7 13 7 20q-76 0 -210 -57q-176 -85 -176 -212l256 -64q20 -4 199 -160q67 -55 67 -149v-2q0 -90 -86 -202q-74 -80 -116 -100 q-60 -43 -167 -67q-57 -14 -95 -14h-72q-86 0 -167 83q-5 1 -115 95q-47 44 -47 98z" />
<glyph unicode="t" horiz-adv-x="796" d="M50 976v5q216 40 227 43q30 213 70 384h9q150 -127 158 -132v-2q0 -6 -36 -169l-7 -47q131 22 250 36q148 -120 161 -135v-5q-189 -25 -438 -70q-45 -340 -45 -519q46 64 141 152q55 46 100 70q8 0 53 -40q107 -91 115 -95v-6q-56 -23 -155 -118q-103 -113 -191 -245 q-50 -75 -57 -83h-8q-158 132 -158 133q-9 113 -9 236q0 209 25 479q-38 -7 -45 -7q-149 122 -160 135z" />
<glyph unicode="u" horiz-adv-x="852" d="M50 182v119q0 105 108 851h4q7 0 30 -22q126 -104 133 -113q-48 -321 -90 -661q62 80 161 240q203 347 243 552h3l160 -135v-12q-70 -415 -70 -864v-137h-2q-8 0 -52 40q-105 88 -111 91q-2 66 -2 94q0 118 3 239q-116 -190 -275 -396q-4 -1 -36 -45q-13 -9 -18 -9h-7 q-153 125 -177 150q-5 9 -5 18z" />
<glyph unicode="v" horiz-adv-x="793" d="M10 1141v6q6 0 41 -40q81 -83 92 -101q90 -280 211 -691q3 0 30 113q116 432 233 656q29 52 37 63h5q116 -123 125 -130v-11q-74 -124 -132 -281q-105 -283 -207 -725h-5q-121 125 -129 137q0 30 -301 1004z" />
<glyph unicode="w" horiz-adv-x="1504" d="M10 1139v8h2q148 -122 164 -139q100 -275 194 -603h2q68 236 223 695q7 19 16 52h7q159 -131 161 -135q54 -217 189 -664q3 0 23 83q86 295 187 480q43 88 160 232h2l160 -135v-9q-86 -105 -136 -192q-92 -156 -180 -427q-29 -99 -105 -385h-3q-8 0 -40 29 q-118 98 -126 108q-128 406 -202 659h-1q-116 -338 -202 -645q-25 -105 -34 -149h-6q0 3 -45 39q-117 98 -117 101q0 46 -133 511q-72 238 -160 486z" />
<glyph unicode="x" horiz-adv-x="944" d="M-40 1162v4h5q185 -134 206 -151q3 -7 115 -139q58 -76 127 -217h1q113 284 178 496h3l162 -137v-1q-14 -64 -93 -283l-102 -278q398 -488 585 -672v-4h-2q-101 36 -119 45q-158 160 -478 597q-108 -255 -214 -419h-3l-162 137v4q101 150 229 479q-317 393 -438 539z" />
<glyph unicode="y" horiz-adv-x="851" d="M50 168v121q0 115 108 853h4q9 0 68 -54q2 0 95 -79q-37 -254 -91 -665v-1h1q176 254 260 423q79 151 124 297q11 39 18 75h3q154 -130 161 -133v-13q0 -8 -24 -162q-38 -261 -77 -1006q-11 -252 -11 -394h-2q-8 0 -52 40q-105 88 -112 91v35q0 318 38 847v2h-2 q-100 -168 -255 -372q-52 -69 -67 -69h-3q-10 0 -72 58q-3 0 -58 47q-54 40 -54 59z" />
<glyph unicode="z" horiz-adv-x="898" d="M0 140v11l588 844q-3 0 -21 -1q-71 0 -272 -9q-162 136 -162 138v4q461 12 540 12h47q160 -133 160 -135v-3q-4 0 -40 -45q-457 -688 -556 -807h2q96 0 450 -10q9 -11 158 -134v-5h-67l-562 9h-85l-22 -2q0 3 -66 58q-84 71 -92 75z" />
<glyph unicode="{" horiz-adv-x="881" d="M10 864v7q144 31 227 106q84 78 106 123q50 72 101 207q34 98 72 248q34 84 115 124q43 15 61 15h187q129 -105 161 -135v-6h-152q-135 0 -199 -131q-74 -288 -146 -416q-30 -56 -90 -126q-85 -83 -126 -99q-56 -33 -135 -50v-2q96 -72 131 -133q45 -82 45 -180v-22 q0 -116 -74 -340q-3 -18 -3 -36v-11q0 -35 12 -63q10 -4 38 -4h92q53 -42 166 -138v-2h-126q-61 0 -143 74q-122 100 -156 137q-51 63 -51 109q-1 0 -3 24q0 48 38 160q41 140 41 234v14q0 120 -70 213q-4 0 -119 99z" />
<glyph unicode="|" horiz-adv-x="757" d="M300 -224v1910h157v-1910h-157z" />
<glyph unicode="}" horiz-adv-x="880" d="M-160 -60h151q136 0 200 132q74 288 146 416q30 55 90 126q85 83 126 99q55 32 135 50v2q-96 71 -132 133q-45 82 -45 180v22q0 116 74 340q4 18 4 36v11q0 34 -13 63q-9 3 -38 3h-91q-53 42 -166 139v2h126q61 0 142 -74q122 -100 157 -137q50 -63 50 -110q2 0 4 -23 q0 -49 -38 -160q-41 -140 -41 -234v-15q0 -120 70 -212q4 0 119 -99v-7q-144 -31 -227 -107q-84 -77 -106 -122q-51 -72 -101 -207q-34 -99 -72 -248q-34 -84 -115 -125q-44 -14 -62 -14h-187q-128 105 -160 135v5z" />
<glyph unicode="~" horiz-adv-x="1498" d="M300 798v6q42 37 95 52q33 14 65 14h52q77 0 177 -92q69 -64 149 -64q106 0 218 91h2q122 -100 140 -118v-6q-68 -61 -140 -79q-28 -9 -45 -9h-60q-67 0 -167 92q-57 52 -122 61q-24 2 -27 4q-104 0 -195 -71h-2q-131 110 -140 119z" />
<glyph unicode="&#xa1;" horiz-adv-x="340" d="M10 -295q0 6 39 205q47 234 92 642l13 148h3q138 -113 162 -137v-2q0 -112 -70 -604q-36 -216 -76 -393h-7q-147 124 -156 130v11zM159 876q7 96 7 114v34h7q149 -126 157 -130v-64q0 -22 -4 -89h-1q-7 0 -116 96q-2 0 -48 39h-2z" />
<glyph unicode="&#xa2;" horiz-adv-x="1291" d="M161 -185l760 1725h9q87 -84 96 -90v-9q-7 -27 -383 -875t-376 -851h-9q-88 84 -97 90v10zM190 475v99q1 115 67 295q23 62 95 153q57 61 104 85q55 28 99 31h35q53 0 100 -36q173 -146 180 -155q49 -75 49 -180v-2h-2q-13 10 -162 135h-2q-7 99 -18 99q-80 0 -176 -76 q-72 -69 -97 -120q-18 -22 -43 -87q-65 -173 -65 -331q0 -135 52 -246h16q137 0 225 54q71 50 103 154q3 17 7 17h4q151 -128 158 -132v-11q-28 -105 -88 -153q-39 -39 -130 -59q-57 -9 -90 -9h-48q-52 0 -146 88q-99 78 -144 126q-56 74 -78 202q-5 33 -5 59z" />
<glyph unicode="&#xa3;" horiz-adv-x="1282" d="M81 127q165 87 257 296q45 77 57 136q13 58 0 165h-196l36 90h142q-11 142 12 250l4 19q45 177 209 285q144 92 314 92q174 0 270 -99q90 -93 84 -288l-56 -10q-14 107 -59 190q-73 136 -252 118q-127 -22 -206 -86q-79 -63 -101 -169l-6 -30q-10 -75 4 -272h302l-36 -90 h-261q8 -112 -6 -176t-150 -259q-144 -139 -157 -150l-15 -16q747 -140 794 73l26 -185q-136 -52 -249 -52q-18 0 -35 1q-65 3 -217 36q-116 24 -192 24h-15q-117 -5 -266 -84z" />
<glyph unicode="&#xa4;" horiz-adv-x="1014" d="M210 413l143 117q-23 46 -26 103q-4 42 5 84q10 44 32 87q28 55 68 99l-93 118l97 81l93 -118q51 30 109 46q47 14 92 14q41 0 80 -12q54 -17 92 -48l143 118l63 -81l-142 -117q21 -46 26 -102q4 -42 -6 -85q-9 -42 -30 -85q-29 -56 -69 -102l92 -117l-97 -81l-93 118 q-52 -32 -112 -48q-44 -12 -87 -12q-42 0 -83 12q-53 16 -91 48l-143 -118zM433 660q4 -59 36 -100q33 -40 87 -57q27 -8 56 -8t60 8q62 17 111 57q49 41 78 99q15 29 21 58q7 29 4 58q-5 58 -36 99q-33 40 -88 57q-27 8 -56 8t-60 -9q-62 -17 -110 -56q-48 -40 -77 -98 q-16 -30 -23 -60q-6 -28 -3 -56z" />
<glyph unicode="&#xa5;" horiz-adv-x="1291" d="M170 352v8q90 3 133 3h192q35 0 121 -3q0 -3 78 -135v-4h-3q-157 4 -175 4h-67q-23 0 -195 -4h-6q-78 130 -78 131zM170 636v8q90 3 133 3h192q35 0 121 -3q0 -3 78 -135v-4h-3q-157 4 -175 4h-67q-23 0 -195 -4h-6q-78 130 -78 131zM170 859v55q0 23 51 454l17 156h6 l114 -112q-61 -540 -64 -559q41 44 92 118q95 137 340 533v0l115 -113v-8q0 -6 -25 -154q-55 -353 -127 -1133q-1 0 -11 -101h-7l-113 112q68 690 103 984v1h-2q-96 -161 -213 -317q-73 -93 -115 -93h-1q-17 0 -37 24l-107 106q-16 23 -16 47z" />
<glyph unicode="&#xa6;" horiz-adv-x="757" d="M300 250v821h157v-821h-157zM300 -270v821h157v-821h-157z" />
<glyph unicode="&#xa7;" horiz-adv-x="1145" d="M107 50h190q-9 -79 23 -115q33 -35 86 -35h288q84 0 133 64q26 34 35 76q13 63 -16 101q-29 39 -93 39h-52q-10 -1 -23 -1h-136q-120 0 -206 67q-85 64 -111 170q-10 39 -9 86t9 84q40 190 177 286q-29 21 -53 92q-26 76 -6 167q30 141 142 235q113 94 254 94h228 q131 0 207 -89q77 -89 52 -250h-188q7 78 -24 114q-33 36 -87 36h-228q-84 0 -132 -64q-26 -35 -34 -76q-14 -64 14 -102q30 -38 93 -38h211q121 0 207 -66q85 -65 111 -172q9 -37 8 -84.5t-6 -74.5l-2 -9q-40 -191 -176 -287q28 -20 52 -92q26 -76 7 -166 q-30 -141 -143 -235q-113 -95 -256 -95h-288q-129 0 -206 90q-76 89 -52 250zM415 586q-19 -90 30 -153q49 -64 138 -64h151q85 6 156 68q71 63 89 148q19 89 -30 153q-49 63 -139 63h-152q-83 -5 -154 -67q-71 -64 -89 -148z" />
<glyph unicode="&#xa8;" horiz-adv-x="1109" d="M300 1414v63q0 30 4 81h7q45 -36 156 -131v-24q-3 -82 -3 -91v-31h-7q-143 119 -157 133zM642 1414v63q0 30 4 81h7q45 -36 156 -131v-24q-3 -82 -3 -91v-31h-7q-143 119 -157 133z" />
<glyph unicode="&#xa9;" horiz-adv-x="1600" d="M249 700q61 290 310 495t539 205t451 -205t100 -495q-62 -290 -310 -495q-249 -205 -539 -205t-451 205q-162 205 -100 495zM398 700q-49 -228 78 -390q128 -161 356 -161t424 161q195 162 244 390q48 228 -78 390q-128 161 -356 161t-424 -161q-196 -162 -244 -390z M597 579l52 242q24 116 125 199q100 83 216 83h110q156 0 212 -133l10 -24l-131 -41l-6 12q-35 61 -111 61h-110q-65 0 -121 -46t-69 -111l-52 -242q-14 -65 22 -111q37 -46 102 -46h110q76 0 137 61l11 12l114 -41l-21 -24q-112 -133 -268 -133h-110q-117 0 -181 83 q-66 83 -41 199z" />
<glyph unicode="&#xaa;" horiz-adv-x="639" d="M44 690v41q0 81 79 188q35 55 91 118q88 85 130 114q29 24 35 24t37 -26q51 -39 73 -54q94 -70 94 -72v-8q0 -20 -40 -358q-5 -56 -12 -163h-3l-107 82q-48 -63 -123 -87q-14 -2 -22 -2h-30q-34 0 -77 35q-83 63 -94 74q-31 43 -31 94zM152 630q2 -32 7 -60q60 0 127 60 q0 2 17 19q42 51 65 103q56 127 101 327q-44 -29 -137 -117q-72 -78 -126 -166q-54 -83 -54 -166z" />
<glyph unicode="&#xab;" horiz-adv-x="1172" d="M150 704v9q7 15 196 229q103 120 127 138l200 154h7v-2q0 -8 -217 -254l-165 -168q280 -328 280 -336v-9q-104 -96 -118 -103h-14zM493 704v9q6 15 196 229q103 120 127 138l199 154h7v-2q0 -8 -216 -254l-165 -168q280 -328 280 -336v-9q-104 -96 -119 -103h-14z" />
<glyph unicode="&#xac;" horiz-adv-x="1074" d="M229 667l34 160h900l-117 -552h-160l84 392h-741z" />
<glyph unicode="&#xad;" horiz-adv-x="1069" d="M10 773v8q180 3 266 3h384q71 0 241 -3q0 -3 158 -135v-4h-7q-314 4 -351 4h-133q-47 0 -389 -4h-12q-157 130 -157 131z" />
<glyph unicode="&#xae;" horiz-adv-x="1600" d="M249 700q61 290 310 495t539 205t451 -205t100 -495q-62 -290 -310 -495q-249 -205 -539 -205t-451 205q-162 205 -100 495zM398 700q-49 -228 78 -390q128 -161 356 -161q221 0 413 152h-120l-147 381h-164l-81 -381h-125l170 798h373q85 0 125 -56q36 -49 26 -126 q-2 -13 -4 -25q-13 -61 -52 -113q-52 -67 -125 -88l143 -374q188 160 236 383q48 228 -78 390q-128 161 -356 161t-424 -161q-196 -162 -244 -390zM841 807h248q33 0 57 26q23 23 30 57t-5 58q-14 26 -47 26h-248z" />
<glyph unicode="&#xaf;" horiz-adv-x="1064" d="M10 1450v8q180 3 266 3h384q71 0 241 -3q0 -3 158 -135v-4h-7q-314 4 -351 4h-133q-47 0 -389 -4h-12q-157 130 -157 131z" />
<glyph unicode="&#xb0;" horiz-adv-x="1262" d="M300 1161v77q0 76 90 165q78 56 131 56h74q81 0 194 -106q101 -78 139 -133q34 -63 34 -101v-78q0 -76 -90 -165q-78 -55 -130 -55h-75q-81 0 -194 106q-101 77 -138 133q-31 52 -35 101zM446 1076q13 -125 51 -125q43 -8 61 -8q143 0 226 133q32 59 32 122v6 q-12 125 -51 125q-43 8 -61 8q-143 0 -226 -133q-32 -60 -32 -123v-5z" />
<glyph unicode="&#xb1;" horiz-adv-x="1066" d="M10 133v8q180 3 266 3h384q71 0 241 -3q0 -3 158 -135v-4h-7q-314 4 -351 4h-133q-47 0 -389 -4h-12q-157 130 -157 131zM10 788v9q176 4 295 4h133q9 124 38 391h4q7 0 30 -22q129 -107 134 -113l-27 -258h1q81 0 279 -2q12 -11 159 -135v-7l-22 2q-41 0 -430 4 q-16 -223 -25 -391h-7q-140 114 -161 135q9 152 17 256q-27 0 -242 -4l-18 -2q0 3 -66 58q-85 71 -92 75z" />
<glyph unicode="&#xb2;" horiz-adv-x="524" d="M10 1274v4q22 17 80 76q43 44 82 90q129 152 171 217q37 51 37 93q0 21 -10 51q-14 1 -21 1h-3q-102 0 -154 -103q-9 -23 -14 -46h-2q-69 58 -73 62v1q3 21 24 64q33 53 83 74q30 10 47 10h35q32 0 69 -37q2 -1 31 -25q35 -28 43 -44q20 -30 20 -71q0 -47 -46 -105 q-58 -85 -185 -231q-35 -39 -60 -65q97 7 163 7h22q60 0 94 -10q2 -2 69 -58q0 -1 2 -1v-3q-42 9 -98 9h-9q-87 0 -316 -18h-11q-66 56 -70 58z" />
<glyph unicode="&#xb3;" horiz-adv-x="559" d="M10 1809v4h45q203 0 268 18h6q68 -56 72 -61v-2q-3 -1 -59 -51q-93 -80 -95 -83q18 0 73 -15q48 -15 93 -55q58 -48 80 -69q39 -45 53 -107q3 -14 3 -20v-31q0 -47 -44 -94q-44 -40 -118 -56q-48 -10 -79 -10h-52q-54 0 -155 21q-72 61 -72 62v1q107 -22 171 -22h18 q90 0 166 35q91 49 91 140q0 54 -39 117q-9 13 -16 13q-59 28 -144 28h-6q-46 0 -108 -10q-66 56 -73 61v1q0 1 145 126v1q-2 0 -4 -1h-88h-58q-4 0 -24 17q-47 41 -50 42z" />
<glyph unicode="&#xb4;" horiz-adv-x="951" d="M331 1307l167 279l95 -21l-77 -298z" />
<glyph unicode="&#xb5;" horiz-adv-x="1413" d="M18 -388l392 1848h206l-132 -622q-37 -203 59 -345q95 -140 268 -140q166 0 296 138q128 134 178 345l132 624h206l-305 -1438h-206l59 278q-137 -153 -404 -153q-299 0 -389 191l-154 -726h-206z" />
<glyph unicode="&#xb6;" horiz-adv-x="1084" d="M330 1116q36 170 175 274.5t329 104.5h473l-28 -130h-127l-290 -1365h-142l290 1365h-106l-290 -1365h-144l157 739q-155 8 -243.5 110.5t-53.5 266.5z" />
<glyph unicode="&#xb7;" />
<glyph unicode="&#xb8;" horiz-adv-x="1124" d="M320 -299h2q143 -120 149 -127v-5h6q54 0 117 54q49 51 49 105q0 7 -7 38h-11l-149 124l42 133h6q136 -112 146 -120v-1q0 -7 -32 -104q7 -4 112 -92q0 -3 19 -25q23 -35 23 -58v-39q0 -49 -70 -109q-54 -32 -86 -32h-44q-40 0 -100 57q-116 96 -123 104q-40 44 -49 89v8 z" />
<glyph unicode="&#xb9;" horiz-adv-x="243" d="M10 1638v3q59 55 75 78q49 64 72 108q1 3 1 4h4q67 -56 71 -58v-10q0 -13 -36 -583h-2q-3 0 -13 10q-60 50 -60 51l25 400q-14 -17 -46 -48q-16 -15 -19 -15q-60 49 -72 60z" />
<glyph unicode="&#xba;" horiz-adv-x="592" d="M10 1534v47q0 69 45 148q13 23 47 56q47 39 89 49q22 6 34 6h38q34 0 92 -30q33 -21 99 -78q48 -41 65 -69q28 -39 47 -92q16 -54 16 -86v-49q0 -77 -50 -159q-48 -69 -122 -92q-24 -8 -41 -8h-34q-80 0 -167 82q-34 25 -72 64q-56 63 -76 146q-10 42 -10 65zM84 1498 q0 -101 56 -194q19 -29 30 -37q52 -28 103 -28h8q71 0 135 55q92 86 92 230q0 120 -82 223q-57 30 -107 30h-5q-88 0 -160 -78q-70 -85 -70 -201z" />
<glyph unicode="&#xbb;" horiz-adv-x="1172" d="M150 362v2q0 8 217 254l165 168q-280 328 -280 336v9q103 96 118 103h14l296 -342v-9q-7 -15 -196 -229q-104 -120 -128 -138l-199 -154h-7zM493 362v2q0 8 216 254l165 168q-280 328 -280 336v9q104 96 119 103h13l296 -342v-9q-7 -15 -196 -229q-103 -120 -127 -138 l-200 -154h-6z" />
<glyph unicode="&#xbc;" />
<glyph unicode="&#xbd;" />
<glyph unicode="&#xbe;" />
<glyph unicode="&#xbf;" horiz-adv-x="718" d="M10 21q0 50 64 144q116 196 173 308q103 215 105 266q1 0 1 4h4q159 -132 162 -137q-25 -158 -281 -583q-61 -93 -61 -133q-4 -13 -4 -36q0 -35 13 -92h22q147 0 261 139q61 85 75 172h4q158 -131 160 -135v-9q0 -50 -61 -153q-75 -105 -193 -142q-29 -11 -61 -11h-59 q-61 0 -143 81q-3 0 -46 38q-103 83 -103 103q-18 23 -29 81q-3 14 -3 30v65zM361 1020l7 114v32h7q153 -129 158 -131q2 -27 2 -36q-7 -100 -7 -114h-4q-148 126 -163 135z" />
<glyph unicode="&#xc0;" horiz-adv-x="1320" d="M10 130v7q0 5 45 77q111 192 202 371q-159 131 -161 135v4q18 1 240 9q129 247 347 693h9q160 -133 160 -135l179 -521q18 2 27 2h5l162 -137v-3q-131 -9 -142 -9q122 -353 227 -618v-5q-8 0 -42 31q-117 97 -124 106q-65 155 -178 479q-287 -17 -465 -24 q-182 -354 -320 -585l-7 -7h-7q-148 124 -157 130zM457 1875l90 38l214 -244l-175 -73zM581 745h1q145 6 330 18q-115 336 -130 382q-1 0 -164 -326q-14 -23 -37 -74z" />
<glyph unicode="&#xc1;" horiz-adv-x="1320" d="M10 130v7q0 5 45 77q111 192 202 371q-159 131 -161 135v4q18 1 240 9q129 247 347 693h9q160 -133 160 -135l179 -521q18 2 27 2h5l162 -137v-3q-131 -9 -142 -9q122 -353 227 -618v-5q-8 0 -42 31q-117 97 -124 106q-65 155 -178 479q-287 -17 -465 -24 q-182 -354 -320 -585l-7 -7h-7q-148 124 -157 130zM572 1641l167 279l95 -21l-77 -298zM581 745h1q145 6 330 18q-115 336 -130 382q-1 0 -164 -326q-14 -23 -37 -74z" />
<glyph unicode="&#xc2;" horiz-adv-x="1320" d="M10 130v7q0 5 45 77q111 192 202 371q-159 131 -161 135v4q18 1 240 9q129 247 347 693h9q160 -133 160 -135l179 -521q18 2 27 2h5l162 -137v-3q-131 -9 -142 -9q122 -353 227 -618v-5q-8 0 -42 31q-117 97 -124 106q-65 155 -178 479q-287 -17 -465 -24 q-182 -354 -320 -585l-7 -7h-7q-148 124 -157 130zM313 1727v7l272 155h7q12 -3 182 -102q95 -54 110 -67l122 -104v-4h-2q-6 0 -201 113q-72 42 -72 44q-270 -157 -276 -157h-7q-129 108 -135 115zM581 745h1q145 6 330 18q-115 336 -130 382q-1 0 -164 -326 q-14 -23 -37 -74z" />
<glyph unicode="&#xc3;" horiz-adv-x="1320" d="M10 130v7q0 5 45 77q111 192 202 371q-159 131 -161 135v4q18 1 240 9q129 247 347 693h9q160 -133 160 -135l179 -521q18 2 27 2h5l162 -137v-3q-131 -9 -142 -9q122 -353 227 -618v-5q-8 0 -42 31q-117 97 -124 106q-65 155 -178 479q-287 -17 -465 -24 q-182 -354 -320 -585l-7 -7h-7q-148 124 -157 130zM211 1808v6q42 37 95 52q33 14 65 14h52q77 0 177 -92q69 -64 149 -64q106 0 218 91h2q122 -100 140 -118v-6q-68 -61 -140 -79q-28 -9 -45 -9h-60q-67 0 -167 92q-57 52 -122 61q-24 2 -27 4q-104 0 -195 -71h-2 q-131 110 -140 119zM581 745h1q145 6 330 18q-115 336 -130 382q-1 0 -164 -326q-14 -23 -37 -74z" />
<glyph unicode="&#xc4;" horiz-adv-x="1320" d="M10 130v7q0 5 45 77q111 192 202 371q-159 131 -161 135v4q18 1 240 9q129 247 347 693h9q160 -133 160 -135l179 -521q18 2 27 2h5l162 -137v-3q-131 -9 -142 -9q122 -353 227 -618v-5q-8 0 -42 31q-117 97 -124 106q-65 155 -178 479q-287 -17 -465 -24 q-182 -354 -320 -585l-7 -7h-7q-148 124 -157 130zM405 1748v63q0 30 4 81h7q45 -36 156 -131v-24q-3 -82 -3 -91v-31h-7q-143 119 -157 133zM581 745h1q145 6 330 18q-115 336 -130 382q-1 0 -164 -326q-14 -23 -37 -74zM747 1748v63q0 30 4 81h7q45 -36 156 -131v-24 q-3 -82 -3 -91v-31h-7q-143 119 -157 133z" />
<glyph unicode="&#xc5;" horiz-adv-x="1320" d="M10 130v7q0 5 45 77q111 192 202 371q-159 131 -161 135v4q18 1 240 9q129 247 347 693h9q160 -133 160 -135l179 -521q18 2 27 2h5l162 -137v-3q-131 -9 -142 -9q122 -353 227 -618v-5q-8 0 -42 31q-117 97 -124 106q-65 155 -178 479q-287 -17 -465 -24 q-182 -354 -320 -585l-7 -7h-7q-148 124 -157 130zM536 1591v53q0 51 61 111q53 38 88 38h51q54 0 131 -72q68 -52 94 -90q23 -42 23 -68v-53q0 -51 -61 -111q-53 -38 -88 -38h-51q-54 0 -131 72q-68 52 -94 90q-21 35 -23 68zM581 745h1q145 6 330 18q-115 336 -130 382 q-1 0 -164 -326q-14 -23 -37 -74zM635 1534q8 -85 34 -85q29 -5 42 -5q96 0 153 90q21 40 21 83v3q-8 85 -34 85q-29 5 -41 5q-97 0 -153 -90q-22 -40 -22 -83v-3z" />
<glyph unicode="&#xc6;" horiz-adv-x="2328" d="M10 130v7q0 5 45 77q111 192 202 371q-159 131 -161 135v4q18 1 240 9q129 247 347 693h9q160 -133 160 -135l179 -521q18 2 27 2h5l162 -137v-3q-131 -9 -142 -9q122 -353 227 -618v-5q-8 0 -42 31q-117 97 -124 106q-65 155 -178 479q-287 -17 -465 -24 q-182 -354 -320 -585l-7 -7h-7q-148 124 -157 130zM581 745h1q145 6 330 18q-115 336 -130 382q-1 0 -164 -326q-14 -23 -37 -74zM1151 130v9q111 14 113 14q26 276 44 740v11q-105 85 -114 95v4q109 9 119 9q9 285 9 336q-35 27 -112 94v3q340 9 479 9h207 q158 -131 160 -135v-3h-12q-290 0 -551 -9q-4 -88 -9 -283q418 29 511 29q158 -135 162 -135v-5l-12 -2h-2q-128 0 -664 -40v-2q0 -108 -35 -702h2q397 22 715 22q53 0 164 -2q12 -3 81 -65q71 -57 84 -72v-5q-88 4 -174 4q-434 0 -886 -36v-4l-9 2q-87 -11 -104 -11h-9 q-148 124 -157 130z" />
<glyph unicode="&#xc7;" horiz-adv-x="1599" d="M47 4l318 1494h884l-318 -1494h-884zM120 58h756l308 1385h-756zM243 560v1q69 16 126 16h13q51 0 84 -33q2 -1 35 -29q19 -22 19 -41v-5q0 -25 -36 -52q-16 -11 -38 -21q-44 -16 -73 -16q-4 5 -16 14q-6 -118 -14 -180h-2l-40 33q10 71 18 250q2 28 2 36h-1l-37 -7h-1z M347 963v23q0 23 14 58q26 56 98 86q40 15 69 15h27q22 -1 24 -4q38 -31 38 -32v-1q-19 3 -33 3h-5q-82 0 -145 -58q-25 -26 -35 -52q-12 -32 -12 -59q0 -44 23 -94q9 -17 15 -22q22 -9 41 -9q34 0 75 34q26 27 31 38q9 14 17 34q11 32 11 48q-96 -10 -120 -10 q-37 32 -40 33v2q29 0 167 15q8 -7 39 -33q-1 -39 -5 -49q-6 -47 -12 -149q-1 -15 -1 -34v-4q0 -14 1 -31q-2 0 -13 10l-28 24q-2 14 -2 33q0 12 1 44q-41 -40 -82 -40t-76 35q-1 0 -31 25q-20 20 -26 33q-9 13 -18 44q-7 29 -7 44zM359 418q13 1 52 16q68 33 68 72 q0 11 -8 27q-24 9 -52 9h-4q-27 0 -56 -3q4 -4 4 -5q0 -24 -4 -116zM553 247q1 22 13 251h1q38 -31 41 -33l-2 -36q8 19 33 46q23 18 37 22q37 -31 40 -34q-1 -1 -15 -8q-49 -28 -80 -124q-10 -30 -27 -117h-2zM655 851q0 73 51 126q33 28 61 28q13 0 21 -8q38 -31 41 -35 q5 -7 5 -18q0 -21 -17 -52q-30 -47 -94 -70q-11 -4 -15 -4l-12 9v-12q0 -39 15 -67q5 -2 12 -2h1q30 0 52 34q8 14 17 40v2h2q38 -31 40 -34q-9 -28 -20 -46q-23 -31 -49 -31h-4q-22 0 -45 24q-1 0 -32 26q-30 28 -30 90zM703 865q13 6 30 17q25 19 41 42q11 17 16 37 q0 2 2 7q-36 -11 -61 -45q-19 -25 -28 -58zM737 345q0 64 29 106q19 25 41 25q32 0 55 -51q15 -38 15 -81q0 -61 -28 -105q-21 -25 -37 -25h-11q-14 0 -32 21q-32 42 -32 110zM778 305q0 -23 7 -52q27 14 42 61q9 30 9 64q0 29 -7 59q-23 -12 -39 -52q-12 -34 -12 -68v-12z M844 954v1l57 11q6 43 15 84l3 12h1l40 -34q-6 -27 -11 -54h1q31 6 62 10q0 -1 16 -15q21 -17 23 -18v-3q-53 -6 -109 -17q-11 -86 -11 -128q32 40 58 53q2 1 3 1q12 -9 41 -34v-1q-18 -7 -47 -38q-28 -34 -53 -73h-2l-40 34q-2 29 -2 56v4q0 57 7 117h-1l-10 -2 q-10 8 -41 34z" />
<glyph unicode="&#xc8;" horiz-adv-x="1359" d="M10 130v9q111 14 113 14q26 276 44 740v11q-105 85 -114 95v4q109 9 119 9q9 285 9 336q-35 27 -112 94v3q340 9 479 9h207q158 -131 160 -135v-3h-12q-290 0 -551 -9q-4 -88 -9 -283q418 29 511 29q158 -135 162 -135v-5l-12 -2h-2q-128 0 -664 -40v-2q0 -108 -35 -702 h2q397 22 715 22q53 0 164 -2q12 -3 81 -65q71 -57 84 -72v-5q-88 4 -174 4q-434 0 -886 -36v-4l-9 2q-87 -11 -104 -11h-9q-148 124 -157 130zM477 1875l90 38l214 -244l-175 -73z" />
<glyph unicode="&#xc9;" horiz-adv-x="1359" d="M10 130v9q111 14 113 14q26 276 44 740v11q-105 85 -114 95v4q109 9 119 9q9 285 9 336q-35 27 -112 94v3q340 9 479 9h207q158 -131 160 -135v-3h-12q-290 0 -551 -9q-4 -88 -9 -283q418 29 511 29q158 -135 162 -135v-5l-12 -2h-2q-128 0 -664 -40v-2q0 -108 -35 -702 h2q397 22 715 22q53 0 164 -2q12 -3 81 -65q71 -57 84 -72v-5q-88 4 -174 4q-434 0 -886 -36v-4l-9 2q-87 -11 -104 -11h-9q-148 124 -157 130zM592 1641l167 279l95 -21l-77 -298z" />
<glyph unicode="&#xca;" horiz-adv-x="1359" d="M10 130v9q111 14 113 14q26 276 44 740v11q-105 85 -114 95v4q109 9 119 9q9 285 9 336q-35 27 -112 94v3q340 9 479 9h207q158 -131 160 -135v-3h-12q-290 0 -551 -9q-4 -88 -9 -283q418 29 511 29q158 -135 162 -135v-5l-12 -2h-2q-128 0 -664 -40v-2q0 -108 -35 -702 h2q397 22 715 22q53 0 164 -2q12 -3 81 -65q71 -57 84 -72v-5q-88 4 -174 4q-434 0 -886 -36v-4l-9 2q-87 -11 -104 -11h-9q-148 124 -157 130zM333 1727v7l272 155h7q12 -3 182 -102q95 -54 110 -67l122 -104v-4h-2q-6 0 -201 113q-72 42 -72 44q-270 -157 -276 -157h-7 q-129 108 -135 115z" />
<glyph unicode="&#xcb;" horiz-adv-x="1359" d="M10 130v9q111 14 113 14q26 276 44 740v11q-105 85 -114 95v4q109 9 119 9q9 285 9 336q-35 27 -112 94v3q340 9 479 9h207q158 -131 160 -135v-3h-12q-290 0 -551 -9q-4 -88 -9 -283q418 29 511 29q158 -135 162 -135v-5l-12 -2h-2q-128 0 -664 -40v-2q0 -108 -35 -702 h2q397 22 715 22q53 0 164 -2q12 -3 81 -65q71 -57 84 -72v-5q-88 4 -174 4q-434 0 -886 -36v-4l-9 2q-87 -11 -104 -11h-9q-148 124 -157 130zM425 1748v63q0 30 4 81h7q45 -36 156 -131v-24q-3 -82 -3 -91v-31h-7q-143 119 -157 133zM767 1748v63q0 30 4 81h7 q45 -36 156 -131v-24q-3 -82 -3 -91v-31h-7q-143 119 -157 133z" />
<glyph unicode="&#xcc;" horiz-adv-x="643" d="M119 1875l90 38l214 -244l-175 -73zM200 130v12l25 283q54 760 54 1004h7q148 -124 157 -129v-76q0 -265 -65 -1103l-14 -121h-7q-146 122 -157 130z" />
<glyph unicode="&#xcd;" horiz-adv-x="643" d="M200 130v12l25 283q54 760 54 1004h7q148 -124 157 -129v-76q0 -265 -65 -1103l-14 -121h-7q-146 122 -157 130zM234 1641l167 279l95 -21l-77 -298z" />
<glyph unicode="&#xce;" horiz-adv-x="643" d="M-25 1727v7l272 155h7q12 -3 182 -102q95 -54 110 -67l122 -104v-4h-2q-6 0 -201 113q-72 42 -72 44q-270 -157 -276 -157h-7q-129 108 -135 115zM200 130v12l25 283q54 760 54 1004h7q148 -124 157 -129v-76q0 -265 -65 -1103l-14 -121h-7q-146 122 -157 130z" />
<glyph unicode="&#xcf;" horiz-adv-x="643" d="M67 1748v63q0 30 4 81h7q45 -36 156 -131v-24q-3 -82 -3 -91v-31h-7q-143 119 -157 133zM200 130v12l25 283q54 760 54 1004h7q148 -124 157 -129v-76q0 -265 -65 -1103l-14 -121h-7q-146 122 -157 130zM409 1748v63q0 30 4 81h7q45 -36 156 -131v-24q-3 -82 -3 -91v-31 h-7q-143 119 -157 133z" />
<glyph unicode="&#xd0;" horiz-adv-x="1365" d="M-30 793v8q90 3 133 3h192q35 0 121 -3q0 -3 78 -135v-4h-3q-157 4 -175 4h-67q-23 0 -195 -4h-6q-78 130 -78 131zM10 1442v7q141 18 205 18h137q174 0 371 -67q88 -35 144 -81q25 -11 169 -135q149 -112 200 -279q29 -109 29 -192v-83q0 -174 -139 -338 q-134 -147 -416 -225q-113 -31 -300 -54q-117 -13 -161 -13h-36q-148 125 -158 131v8q24 0 142 9v1q-16 12 -23 17q25 222 52 939q5 136 5 195l2 16l-65 -9zM354 167q176 31 288 69q459 168 459 572q0 171 -65 315q-27 53 -63 92q-59 34 -151 65q-179 48 -364 48h-59 q-12 0 -36 -1l39 -36q-16 -583 -39 -987q-2 0 -9 -137z" />
<glyph unicode="&#xd1;" horiz-adv-x="1212" d="M10 158v17q0 15 29 361q63 804 63 974h7q157 -129 162 -137q76 -185 319 -579q168 -273 354 -547v3q0 356 94 1244h3l161 -135v-14q0 -11 -35 -342q-57 -639 -57 -974v-29h-2q-9 0 -56 43q-107 87 -113 97q-361 522 -618 954q-54 95 -61 103v-4q0 -150 -86 -1170h-4z M157 1808v6q42 37 95 52q33 14 65 14h52q77 0 177 -92q69 -64 149 -64q106 0 218 91h2q122 -100 140 -118v-6q-68 -61 -140 -79q-28 -9 -45 -9h-60q-67 0 -167 92q-57 52 -122 61q-24 2 -27 4q-104 0 -195 -71h-2q-131 110 -140 119z" />
<glyph unicode="&#xd2;" horiz-adv-x="1327" d="M10 817v99q0 89 54 222q29 61 76 124q84 92 115 106q117 85 261 104q24 4 47 4h93q98 0 223 -79q181 -144 245 -209q75 -86 101 -146q62 -106 90 -302q2 -21 2 -40v-101q0 -79 -49 -243q-81 -217 -241 -293q-127 -63 -254 -63h-84q-126 0 -260 112q-143 115 -217 189 q-71 87 -101 149q-33 59 -65 162q-36 126 -36 205zM174 731q0 -227 128 -457q59 -94 77 -94q83 -41 180 -41h9q391 0 524 331q61 177 61 313q0 253 -142 473q-26 35 -34 35q-91 46 -197 46h-10q-269 0 -450 -199q-146 -178 -146 -407zM461 1875l90 38l214 -244l-175 -73z " />
<glyph unicode="&#xd3;" horiz-adv-x="1327" d="M10 817v99q0 89 54 222q29 61 76 124q84 92 115 106q117 85 261 104q24 4 47 4h93q98 0 223 -79q181 -144 245 -209q75 -86 101 -146q62 -106 90 -302q2 -21 2 -40v-101q0 -79 -49 -243q-81 -217 -241 -293q-127 -63 -254 -63h-84q-126 0 -260 112q-143 115 -217 189 q-71 87 -101 149q-33 59 -65 162q-36 126 -36 205zM174 731q0 -227 128 -457q59 -94 77 -94q83 -41 180 -41h9q391 0 524 331q61 177 61 313q0 253 -142 473q-26 35 -34 35q-91 46 -197 46h-10q-269 0 -450 -199q-146 -178 -146 -407zM576 1641l167 279l95 -21l-77 -298z " />
<glyph unicode="&#xd4;" horiz-adv-x="1327" d="M10 817v99q0 89 54 222q29 61 76 124q84 92 115 106q117 85 261 104q24 4 47 4h93q98 0 223 -79q181 -144 245 -209q75 -86 101 -146q62 -106 90 -302q2 -21 2 -40v-101q0 -79 -49 -243q-81 -217 -241 -293q-127 -63 -254 -63h-84q-126 0 -260 112q-143 115 -217 189 q-71 87 -101 149q-33 59 -65 162q-36 126 -36 205zM174 731q0 -227 128 -457q59 -94 77 -94q83 -41 180 -41h9q391 0 524 331q61 177 61 313q0 253 -142 473q-26 35 -34 35q-91 46 -197 46h-10q-269 0 -450 -199q-146 -178 -146 -407zM317 1727v7l272 155h7q12 -3 182 -102 q95 -54 110 -67l122 -104v-4h-2q-6 0 -201 113q-72 42 -72 44q-270 -157 -276 -157h-7q-129 108 -135 115z" />
<glyph unicode="&#xd5;" horiz-adv-x="1327" d="M10 817v99q0 89 54 222q29 61 76 124q84 92 115 106q117 85 261 104q24 4 47 4h93q98 0 223 -79q181 -144 245 -209q75 -86 101 -146q62 -106 90 -302q2 -21 2 -40v-101q0 -79 -49 -243q-81 -217 -241 -293q-127 -63 -254 -63h-84q-126 0 -260 112q-143 115 -217 189 q-71 87 -101 149q-33 59 -65 162q-36 126 -36 205zM174 731q0 -227 128 -457q59 -94 77 -94q83 -41 180 -41h9q391 0 524 331q61 177 61 313q0 253 -142 473q-26 35 -34 35q-91 46 -197 46h-10q-269 0 -450 -199q-146 -178 -146 -407zM214 1808v6q42 37 95 52q33 14 65 14 h52q77 0 177 -92q69 -64 149 -64q106 0 218 91h2q122 -100 140 -118v-6q-68 -61 -140 -79q-28 -9 -45 -9h-60q-67 0 -167 92q-57 52 -122 61q-24 2 -27 4q-104 0 -195 -71h-2q-131 110 -140 119z" />
<glyph unicode="&#xd6;" horiz-adv-x="1327" d="M10 817v99q0 89 54 222q29 61 76 124q84 92 115 106q117 85 261 104q24 4 47 4h93q98 0 223 -79q181 -144 245 -209q75 -86 101 -146q62 -106 90 -302q2 -21 2 -40v-101q0 -79 -49 -243q-81 -217 -241 -293q-127 -63 -254 -63h-84q-126 0 -260 112q-143 115 -217 189 q-71 87 -101 149q-33 59 -65 162q-36 126 -36 205zM174 731q0 -227 128 -457q59 -94 77 -94q83 -41 180 -41h9q391 0 524 331q61 177 61 313q0 253 -142 473q-26 35 -34 35q-91 46 -197 46h-10q-269 0 -450 -199q-146 -178 -146 -407zM409 1748v63q0 30 4 81h7 q45 -36 156 -131v-24q-3 -82 -3 -91v-31h-7q-143 119 -157 133zM751 1748v63q0 30 4 81h7q45 -36 156 -131v-24q-3 -82 -3 -91v-31h-7q-143 119 -157 133z" />
<glyph unicode="&#xd7;" horiz-adv-x="1066" d="M127 278q122 127 206 211l94 94q-81 94 -249 304l2 2q5 5 37 6q167 16 175 15l163 -202l1 1q57 57 199 196q16 1 208 17l4 -5l-17 -14q-29 -29 -306 -301q146 -169 258 -295l-5 -5q-179 -18 -209 -18q-101 114 -169 193q-19 -19 -168 -174l-11 -14q-3 2 -88 -6 q-110 -10 -118 -12z" />
<glyph unicode="&#xd8;" horiz-adv-x="1327" d="M10 817v99q0 89 54 222q29 61 76 124q84 92 115 106q117 85 261 104q24 4 47 4h93q98 0 223 -79q181 -144 245 -209q75 -86 101 -146q62 -106 90 -302q2 -21 2 -40v-101q0 -79 -49 -243q-81 -217 -241 -293q-127 -63 -254 -63h-84q-126 0 -260 112q-143 115 -217 189 q-71 87 -101 149q-33 59 -65 162q-36 126 -36 205zM174 731q0 -227 128 -457q59 -94 77 -94q83 -41 180 -41h9q391 0 524 331q61 177 61 313q0 253 -142 473q-26 35 -34 35q-91 46 -197 46h-10q-269 0 -450 -199q-146 -178 -146 -407zM223 -64l760 1725h9q87 -84 96 -90v-9 q-7 -27 -383 -875t-376 -851h-9q-88 84 -97 90v10z" />
<glyph unicode="&#xd9;" horiz-adv-x="1042" d="M10 175v84l27 567q14 424 14 646h4l164 -136q0 -406 -38 -1109q40 37 112 131q222 266 298 430q138 243 276 708v2h9q147 -124 156 -130v-9q0 -59 -54 -727q-23 -364 -50 -618q-8 0 -41 31q-118 99 -125 103q27 295 49 601v2h-2q-50 -112 -131 -242q-71 -115 -297 -387 q-17 -23 -74 -72q-69 -50 -88 -50h-18q-11 0 -101 81q-63 48 -86 76q-4 14 -4 18zM319 1875l90 38l214 -244l-175 -73z" />
<glyph unicode="&#xda;" horiz-adv-x="1042" d="M10 175v84l27 567q14 424 14 646h4l164 -136q0 -406 -38 -1109q40 37 112 131q222 266 298 430q138 243 276 708v2h9q147 -124 156 -130v-9q0 -59 -54 -727q-23 -364 -50 -618q-8 0 -41 31q-118 99 -125 103q27 295 49 601v2h-2q-50 -112 -131 -242q-71 -115 -297 -387 q-17 -23 -74 -72q-69 -50 -88 -50h-18q-11 0 -101 81q-63 48 -86 76q-4 14 -4 18zM434 1641l167 279l95 -21l-77 -298z" />
<glyph unicode="&#xdb;" horiz-adv-x="1042" d="M10 175v84l27 567q14 424 14 646h4l164 -136q0 -406 -38 -1109q40 37 112 131q222 266 298 430q138 243 276 708v2h9q147 -124 156 -130v-9q0 -59 -54 -727q-23 -364 -50 -618q-8 0 -41 31q-118 99 -125 103q27 295 49 601v2h-2q-50 -112 -131 -242q-71 -115 -297 -387 q-17 -23 -74 -72q-69 -50 -88 -50h-18q-11 0 -101 81q-63 48 -86 76q-4 14 -4 18zM175 1727v7l272 155h7q12 -3 182 -102q95 -54 110 -67l122 -104v-4h-2q-6 0 -201 113q-72 42 -72 44q-270 -157 -276 -157h-7q-129 108 -135 115z" />
<glyph unicode="&#xdc;" horiz-adv-x="1042" d="M10 175v84l27 567q14 424 14 646h4l164 -136q0 -406 -38 -1109q40 37 112 131q222 266 298 430q138 243 276 708v2h9q147 -124 156 -130v-9q0 -59 -54 -727q-23 -364 -50 -618q-8 0 -41 31q-118 99 -125 103q27 295 49 601v2h-2q-50 -112 -131 -242q-71 -115 -297 -387 q-17 -23 -74 -72q-69 -50 -88 -50h-18q-11 0 -101 81q-63 48 -86 76q-4 14 -4 18zM267 1748v63q0 30 4 81h7q45 -36 156 -131v-24q-3 -82 -3 -91v-31h-7q-143 119 -157 133zM609 1748v63q0 30 4 81h7q45 -36 156 -131v-24q-3 -82 -3 -91v-31h-7q-143 119 -157 133z" />
<glyph unicode="&#xdd;" horiz-adv-x="958" d="M10 859v55q0 23 59 454l21 156h6l135 -112q-72 -540 -76 -559q48 44 108 118q112 137 400 533h1l135 -113v-8q0 -6 -30 -154q-64 -353 -149 -1133q-1 0 -13 -101h-8l-133 112q80 690 121 984v1h-2q-113 -161 -251 -317q-86 -93 -135 -93h-1q-20 0 -44 24l-126 106 q-18 23 -18 47zM392 1641l167 279l95 -21l-77 -298z" />
<glyph unicode="&#xde;" />
<glyph unicode="&#xdf;" />
<glyph unicode="&#xe0;" horiz-adv-x="837" d="M10 338v69q0 134 119 313q53 91 138 196q134 143 198 191q44 40 53 40q8 0 55 -44q78 -65 112 -90q141 -117 142 -120v-13q0 -34 -61 -596q-7 -94 -18 -273h-4l-163 137q-73 -105 -186 -144q-22 -4 -34 -4h-45q-52 0 -117 59q-125 104 -142 123q-47 72 -47 156zM174 238 q2 -53 11 -99q90 0 192 100q0 3 25 31q64 85 99 171q85 213 153 545q-66 -47 -207 -194q-109 -131 -192 -277q-81 -139 -81 -277zM216 1541l90 38l214 -244l-175 -73z" />
<glyph unicode="&#xe1;" horiz-adv-x="837" d="M10 338v69q0 134 119 313q53 91 138 196q134 143 198 191q44 40 53 40q8 0 55 -44q78 -65 112 -90q141 -117 142 -120v-13q0 -34 -61 -596q-7 -94 -18 -273h-4l-163 137q-73 -105 -186 -144q-22 -4 -34 -4h-45q-52 0 -117 59q-125 104 -142 123q-47 72 -47 156zM174 238 q2 -53 11 -99q90 0 192 100q0 3 25 31q64 85 99 171q85 213 153 545q-66 -47 -207 -194q-109 -131 -192 -277q-81 -139 -81 -277zM331 1307l167 279l95 -21l-77 -298z" />
<glyph unicode="&#xe2;" horiz-adv-x="837" d="M10 338v69q0 134 119 313q53 91 138 196q134 143 198 191q44 40 53 40q8 0 55 -44q78 -65 112 -90q141 -117 142 -120v-13q0 -34 -61 -596q-7 -94 -18 -273h-4l-163 137q-73 -105 -186 -144q-22 -4 -34 -4h-45q-52 0 -117 59q-125 104 -142 123q-47 72 -47 156zM72 1393 v7l272 155h7q12 -3 182 -102q95 -54 110 -67l122 -104v-4h-2q-6 0 -201 113q-72 42 -72 44q-270 -157 -276 -157h-7q-129 108 -135 115zM174 238q2 -53 11 -99q90 0 192 100q0 3 25 31q64 85 99 171q85 213 153 545q-66 -47 -207 -194q-109 -131 -192 -277 q-81 -139 -81 -277z" />
<glyph unicode="&#xe3;" horiz-adv-x="837" d="M-30 1474v6q42 37 95 52q33 14 65 14h52q77 0 177 -92q69 -64 149 -64q106 0 218 91h2q122 -100 140 -118v-6q-68 -61 -140 -79q-28 -9 -45 -9h-60q-67 0 -167 92q-57 52 -122 61q-24 2 -27 4q-104 0 -195 -71h-2q-131 110 -140 119zM10 338v69q0 134 119 313 q53 91 138 196q134 143 198 191q44 40 53 40q8 0 55 -44q78 -65 112 -90q141 -117 142 -120v-13q0 -34 -61 -596q-7 -94 -18 -273h-4l-163 137q-73 -105 -186 -144q-22 -4 -34 -4h-45q-52 0 -117 59q-125 104 -142 123q-47 72 -47 156zM174 238q2 -53 11 -99q90 0 192 100 q0 3 25 31q64 85 99 171q85 213 153 545q-66 -47 -207 -194q-109 -131 -192 -277q-81 -139 -81 -277z" />
<glyph unicode="&#xe4;" horiz-adv-x="837" d="M10 338v69q0 134 119 313q53 91 138 196q134 143 198 191q44 40 53 40q8 0 55 -44q78 -65 112 -90q141 -117 142 -120v-13q0 -34 -61 -596q-7 -94 -18 -273h-4l-163 137q-73 -105 -186 -144q-22 -4 -34 -4h-45q-52 0 -117 59q-125 104 -142 123q-47 72 -47 156zM164 1414 v63q0 30 4 81h7q45 -36 156 -131v-24q-3 -82 -3 -91v-31h-7q-143 119 -157 133zM174 238q2 -53 11 -99q90 0 192 100q0 3 25 31q64 85 99 171q85 213 153 545q-66 -47 -207 -194q-109 -131 -192 -277q-81 -139 -81 -277zM506 1414v63q0 30 4 81h7q45 -36 156 -131v-24 q-3 -82 -3 -91v-31h-7q-143 119 -157 133z" />
<glyph unicode="&#xe5;" horiz-adv-x="837" d="M10 338v69q0 134 119 313q53 91 138 196q134 143 198 191q44 40 53 40q8 0 55 -44q78 -65 112 -90q141 -117 142 -120v-13q0 -34 -61 -596q-7 -94 -18 -273h-4l-163 137q-73 -105 -186 -144q-22 -4 -34 -4h-45q-52 0 -117 59q-125 104 -142 123q-47 72 -47 156zM174 238 q2 -53 11 -99q90 0 192 100q0 3 25 31q64 85 99 171q85 213 153 545q-66 -47 -207 -194q-109 -131 -192 -277q-81 -139 -81 -277zM195 1257v53q0 51 61 111q53 38 88 38h51q54 0 131 -72q68 -52 94 -90q23 -42 23 -68v-53q0 -51 -61 -111q-53 -38 -88 -38h-51q-54 0 -131 72 q-68 52 -94 90q-21 35 -23 68zM294 1200q8 -85 34 -85q29 -5 42 -5q96 0 153 90q21 40 21 83v3q-8 85 -34 85q-29 5 -41 5q-97 0 -153 -90q-22 -40 -22 -83v-3z" />
<glyph unicode="&#xe6;" horiz-adv-x="1305" d="M10 338v69q0 134 119 313q53 91 138 196q134 143 198 191q44 40 53 40q8 0 55 -44q78 -65 112 -90q141 -117 142 -120v-13q0 -34 -61 -596q-7 -94 -18 -273h-4l-163 137q-73 -105 -186 -144q-22 -4 -34 -4h-45q-52 0 -117 59q-125 104 -142 123q-47 72 -47 156zM174 238 q2 -53 11 -99q90 0 192 100q0 3 25 31q64 85 99 171q85 213 153 545q-66 -47 -207 -194q-109 -131 -192 -277q-81 -139 -81 -277zM625 506v99q0 144 92 320q31 56 93 124q90 85 146 105q62 25 90 25h54q29 0 92 -58q116 -95 131 -113q20 -27 20 -68v-4q0 -120 -108 -265 q-88 -97 -117 -111q-85 -68 -219 -117q-45 -15 -62 -18q-5 7 -46 39q-2 -24 -2 -34q0 -176 61 -286q28 -5 47 -5h9q101 0 189 115q44 71 74 155q11 36 14 36h2q150 -124 160 -135v-8q-3 -32 -68 -163q-57 -99 -162 -135q-17 -4 -27 -4h-53q-69 0 -189 113q-4 0 -111 94 q-76 86 -88 160q-22 84 -22 139zM816 617q93 39 201 137q82 84 108 144q27 50 45 119q0 5 2 14q-136 -39 -243 -176q-92 -134 -113 -238z" />
<glyph unicode="&#xe7;" horiz-adv-x="1599" d="M47 4l318 1494h884l-318 -1494h-884zM120 58h756l308 1385h-756zM243 560v1q69 16 126 16h13q51 0 84 -33q2 -1 35 -29q19 -22 19 -41v-5q0 -25 -36 -52q-16 -11 -38 -21q-44 -16 -73 -16q-4 5 -16 14q-6 -118 -14 -180h-2l-40 33q10 71 18 250q2 28 2 36h-1l-37 -7h-1z M347 963v23q0 23 14 58q26 56 98 86q40 15 69 15h27q22 -1 24 -4q38 -31 38 -32v-1q-19 3 -33 3h-5q-82 0 -145 -58q-25 -26 -35 -52q-12 -32 -12 -59q0 -44 23 -94q9 -17 15 -22q22 -9 41 -9q34 0 75 34q26 27 31 38q9 14 17 34q11 32 11 48q-96 -10 -120 -10 q-37 32 -40 33v2q29 0 167 15q8 -7 39 -33q-1 -39 -5 -49q-6 -47 -12 -149q-1 -15 -1 -34v-4q0 -14 1 -31q-2 0 -13 10l-28 24q-2 14 -2 33q0 12 1 44q-41 -40 -82 -40t-76 35q-1 0 -31 25q-20 20 -26 33q-9 13 -18 44q-7 29 -7 44zM359 418q13 1 52 16q68 33 68 72 q0 11 -8 27q-24 9 -52 9h-4q-27 0 -56 -3q4 -4 4 -5q0 -24 -4 -116zM553 247q1 22 13 251h1q38 -31 41 -33l-2 -36q8 19 33 46q23 18 37 22q37 -31 40 -34q-1 -1 -15 -8q-49 -28 -80 -124q-10 -30 -27 -117h-2zM655 851q0 73 51 126q33 28 61 28q13 0 21 -8q38 -31 41 -35 q5 -7 5 -18q0 -21 -17 -52q-30 -47 -94 -70q-11 -4 -15 -4l-12 9v-12q0 -39 15 -67q5 -2 12 -2h1q30 0 52 34q8 14 17 40v2h2q38 -31 40 -34q-9 -28 -20 -46q-23 -31 -49 -31h-4q-22 0 -45 24q-1 0 -32 26q-30 28 -30 90zM703 865q13 6 30 17q25 19 41 42q11 17 16 37 q0 2 2 7q-36 -11 -61 -45q-19 -25 -28 -58zM737 345q0 64 29 106q19 25 41 25q32 0 55 -51q15 -38 15 -81q0 -61 -28 -105q-21 -25 -37 -25h-11q-14 0 -32 21q-32 42 -32 110zM778 305q0 -23 7 -52q27 14 42 61q9 30 9 64q0 29 -7 59q-23 -12 -39 -52q-12 -34 -12 -68v-12z M844 954v1l57 11q6 43 15 84l3 12h1l40 -34q-6 -27 -11 -54h1q31 6 62 10q0 -1 16 -15q21 -17 23 -18v-3q-53 -6 -109 -17q-11 -86 -11 -128q32 40 58 53q2 1 3 1q12 -9 41 -34v-1q-18 -7 -47 -38q-28 -34 -53 -73h-2l-40 34q-2 29 -2 56v4q0 57 7 117h-1l-10 -2 q-10 8 -41 34z" />
<glyph unicode="&#xe8;" horiz-adv-x="740" d="M10 506v99q0 144 92 320q31 56 93 124q90 85 146 105q62 25 90 25h54q29 0 92 -58q116 -95 131 -113q20 -27 20 -68v-4q0 -120 -108 -265q-88 -97 -117 -111q-85 -68 -219 -117q-45 -15 -62 -18q-5 7 -46 39q-2 -24 -2 -34q0 -176 61 -286q28 -5 47 -5h9q101 0 189 115 q44 71 74 155q11 36 14 36h2q150 -124 160 -135v-8q-3 -32 -68 -163q-57 -99 -162 -135q-17 -4 -27 -4h-53q-69 0 -189 113q-4 0 -111 94q-76 86 -88 160q-22 84 -22 139zM168 1541l90 38l214 -244l-175 -73zM201 617q93 39 201 137q82 84 108 144q27 50 45 119q0 5 2 14 q-136 -39 -243 -176q-92 -134 -113 -238z" />
<glyph unicode="&#xe9;" horiz-adv-x="740" d="M10 506v99q0 144 92 320q31 56 93 124q90 85 146 105q62 25 90 25h54q29 0 92 -58q116 -95 131 -113q20 -27 20 -68v-4q0 -120 -108 -265q-88 -97 -117 -111q-85 -68 -219 -117q-45 -15 -62 -18q-5 7 -46 39q-2 -24 -2 -34q0 -176 61 -286q28 -5 47 -5h9q101 0 189 115 q44 71 74 155q11 36 14 36h2q150 -124 160 -135v-8q-3 -32 -68 -163q-57 -99 -162 -135q-17 -4 -27 -4h-53q-69 0 -189 113q-4 0 -111 94q-76 86 -88 160q-22 84 -22 139zM201 617q93 39 201 137q82 84 108 144q27 50 45 119q0 5 2 14q-136 -39 -243 -176 q-92 -134 -113 -238zM384 1307l167 279l95 -21l-77 -298z" />
<glyph unicode="&#xea;" horiz-adv-x="740" d="M10 506v99q0 144 92 320q31 56 93 124q90 85 146 105q62 25 90 25h54q29 0 92 -58q116 -95 131 -113q20 -27 20 -68v-4q0 -120 -108 -265q-88 -97 -117 -111q-85 -68 -219 -117q-45 -15 -62 -18q-5 7 -46 39q-2 -24 -2 -34q0 -176 61 -286q28 -5 47 -5h9q101 0 189 115 q44 71 74 155q11 36 14 36h2q150 -124 160 -135v-8q-3 -32 -68 -163q-57 -99 -162 -135q-17 -4 -27 -4h-53q-69 0 -189 113q-4 0 -111 94q-76 86 -88 160q-22 84 -22 139zM24 1393v7l272 155h7q12 -3 182 -102q95 -54 110 -67l122 -104v-4h-2q-6 0 -201 113q-72 42 -72 44 q-270 -157 -276 -157h-7q-129 108 -135 115zM201 617q93 39 201 137q82 84 108 144q27 50 45 119q0 5 2 14q-136 -39 -243 -176q-92 -134 -113 -238z" />
<glyph unicode="&#xeb;" horiz-adv-x="740" d="M10 506v99q0 144 92 320q31 56 93 124q90 85 146 105q62 25 90 25h54q29 0 92 -58q116 -95 131 -113q20 -27 20 -68v-4q0 -120 -108 -265q-88 -97 -117 -111q-85 -68 -219 -117q-45 -15 -62 -18q-5 7 -46 39q-2 -24 -2 -34q0 -176 61 -286q28 -5 47 -5h9q101 0 189 115 q44 71 74 155q11 36 14 36h2q150 -124 160 -135v-8q-3 -32 -68 -163q-57 -99 -162 -135q-17 -4 -27 -4h-53q-69 0 -189 113q-4 0 -111 94q-76 86 -88 160q-22 84 -22 139zM115 1414v63q0 30 4 81h7q45 -36 156 -131v-24q-3 -82 -3 -91v-31h-7q-143 119 -157 133zM201 617 q93 39 201 137q82 84 108 144q27 50 45 119q0 5 2 14q-136 -39 -243 -176q-92 -134 -113 -238zM457 1414v63q0 30 4 81h7q45 -36 156 -131v-24q-3 -82 -3 -91v-31h-7q-143 119 -157 133z" />
<glyph unicode="&#xec;" horiz-adv-x="593" d="M134 1541l90 38l214 -244l-175 -73zM200 130v25q0 142 99 920l7 68h4q53 -43 164 -137q-107 -855 -107 -972q-1 0 -3 -34h-7q-149 125 -157 130z" />
<glyph unicode="&#xed;" horiz-adv-x="593" d="M200 130v25q0 142 99 920l7 68h4q53 -43 164 -137q-107 -855 -107 -972q-1 0 -3 -34h-7q-149 125 -157 130zM349 1307l167 279l95 -21l-77 -298z" />
<glyph unicode="&#xee;" horiz-adv-x="593" d="M-10 1393v7l272 155h7q12 -3 182 -102q95 -54 110 -67l122 -104v-4h-2q-6 0 -201 113q-72 42 -72 44q-270 -157 -276 -157h-7q-129 108 -135 115zM200 130v25q0 142 99 920l7 68h4q53 -43 164 -137q-107 -855 -107 -972q-1 0 -3 -34h-7q-149 125 -157 130z" />
<glyph unicode="&#xef;" horiz-adv-x="593" d="M82 1414v63q0 30 4 81h7q45 -36 156 -131v-24q-3 -82 -3 -91v-31h-7q-143 119 -157 133zM200 130v25q0 142 99 920l7 68h4q53 -43 164 -137q-107 -855 -107 -972q-1 0 -3 -34h-7q-149 125 -157 130zM424 1414v63q0 30 4 81h7q45 -36 156 -131v-24q-3 -82 -3 -91v-31h-7 q-143 119 -157 133z" />
<glyph unicode="&#xf0;" />
<glyph unicode="&#xf1;" horiz-adv-x="803" d="M-48 1474v6q42 37 95 52q33 14 65 14h52q77 0 177 -92q69 -64 149 -64q106 0 218 91h2q122 -100 140 -118v-6q-68 -61 -140 -79q-28 -9 -45 -9h-60q-67 0 -167 92q-57 52 -122 61q-24 2 -27 4q-104 0 -195 -71h-2q-131 110 -140 119zM10 185v18q0 92 70 659 q37 244 58 319h3q141 -118 162 -137v-2q-19 -67 -61 -362v-1h2q99 178 256 396q47 59 91 108h20q11 0 74 -56q106 -88 108 -94v-38q-77 -664 -77 -829q0 -15 -2 -65q2 -73 7 -101h-7q-150 122 -160 135q-6 31 -6 77v31q0 196 43 583v2h-1q-192 -289 -317 -542 q-61 -128 -99 -234v-2h-4q-158 132 -160 135z" />
<glyph unicode="&#xf2;" horiz-adv-x="580" d="M10 475v103q0 159 79 324q24 49 87 111q55 40 88 40h47q60 0 136 -90q46 -62 71 -124q52 -146 52 -265v-99q0 -157 -81 -327q-29 -52 -76 -99q-61 -49 -101 -49h-45q-71 0 -151 108q-45 70 -74 162q-32 120 -32 205zM88 1541l90 38l214 -244l-175 -73zM172 391 q0 -117 31 -234q100 50 163 234q42 129 42 268q0 112 -31 239q-106 -58 -167 -245q-38 -128 -38 -262z" />
<glyph unicode="&#xf3;" horiz-adv-x="580" d="M10 475v103q0 159 79 324q24 49 87 111q55 40 88 40h47q60 0 136 -90q46 -62 71 -124q52 -146 52 -265v-99q0 -157 -81 -327q-29 -52 -76 -99q-61 -49 -101 -49h-45q-71 0 -151 108q-45 70 -74 162q-32 120 -32 205zM172 391q0 -117 31 -234q100 50 163 234 q42 129 42 268q0 112 -31 239q-106 -58 -167 -245q-38 -128 -38 -262zM303 1307l167 279l95 -21l-77 -298z" />
<glyph unicode="&#xf4;" horiz-adv-x="580" d="M-57 1393v7l272 155h7q12 -3 182 -102q95 -54 110 -67l122 -104v-4h-2q-6 0 -201 113q-72 42 -72 44q-270 -157 -276 -157h-7q-129 108 -135 115zM10 475v103q0 159 79 324q24 49 87 111q55 40 88 40h47q60 0 136 -90q46 -62 71 -124q52 -146 52 -265v-99 q0 -157 -81 -327q-29 -52 -76 -99q-61 -49 -101 -49h-45q-71 0 -151 108q-45 70 -74 162q-32 120 -32 205zM172 391q0 -117 31 -234q100 50 163 234q42 129 42 268q0 112 -31 239q-106 -58 -167 -245q-38 -128 -38 -262z" />
<glyph unicode="&#xf5;" horiz-adv-x="580" d="M-159 1474v6q42 37 95 52q33 14 65 14h52q77 0 177 -92q69 -64 149 -64q106 0 218 91h2q122 -100 140 -118v-6q-68 -61 -140 -79q-28 -9 -45 -9h-60q-67 0 -167 92q-57 52 -122 61q-24 2 -27 4q-104 0 -195 -71h-2q-131 110 -140 119zM10 475v103q0 159 79 324 q24 49 87 111q55 40 88 40h47q60 0 136 -90q46 -62 71 -124q52 -146 52 -265v-99q0 -157 -81 -327q-29 -52 -76 -99q-61 -49 -101 -49h-45q-71 0 -151 108q-45 70 -74 162q-32 120 -32 205zM172 391q0 -117 31 -234q100 50 163 234q42 129 42 268q0 112 -31 239 q-106 -58 -167 -245q-38 -128 -38 -262z" />
<glyph unicode="&#xf6;" horiz-adv-x="580" d="M10 475v103q0 159 79 324q24 49 87 111q55 40 88 40h47q60 0 136 -90q46 -62 71 -124q52 -146 52 -265v-99q0 -157 -81 -327q-29 -52 -76 -99q-61 -49 -101 -49h-45q-71 0 -151 108q-45 70 -74 162q-32 120 -32 205zM35 1414v63q0 30 4 81h7q45 -36 156 -131v-24 q-3 -82 -3 -91v-31h-7q-143 119 -157 133zM172 391q0 -117 31 -234q100 50 163 234q42 129 42 268q0 112 -31 239q-106 -58 -167 -245q-38 -128 -38 -262zM377 1414v63q0 30 4 81h7q45 -36 156 -131v-24q-3 -82 -3 -91v-31h-7q-143 119 -157 133z" />
<glyph unicode="&#xf7;" horiz-adv-x="1069" d="M10 773v8q180 3 266 3h384q71 0 241 -3q0 -3 158 -135v-4h-7q-314 4 -351 4h-133q-47 0 -389 -4h-12q-157 130 -157 131zM466 221v63q0 30 4 81h7q45 -36 156 -131v-24q-3 -82 -3 -91v-31h-7q-143 119 -157 133zM466 1127v63q0 30 4 81h7q45 -36 156 -131v-24 q-3 -82 -3 -91v-31h-7q-143 119 -157 133z" />
<glyph unicode="&#xf8;" horiz-adv-x="580" d="M-155 -315l760 1725h9q87 -84 96 -90v-9q-7 -27 -383 -875t-376 -851h-9q-88 84 -97 90v10zM10 475v103q0 159 79 324q24 49 87 111q55 40 88 40h47q60 0 136 -90q46 -62 71 -124q52 -146 52 -265v-99q0 -157 -81 -327q-29 -52 -76 -99q-61 -49 -101 -49h-45 q-71 0 -151 108q-45 70 -74 162q-32 120 -32 205zM172 391q0 -117 31 -234q100 50 163 234q42 129 42 268q0 112 -31 239q-106 -58 -167 -245q-38 -128 -38 -262z" />
<glyph unicode="&#xf9;" horiz-adv-x="772" d="M10 182v119q0 105 108 851h4q7 0 30 -22q126 -104 133 -113q-48 -321 -90 -661q62 80 161 240q203 347 243 552h3l160 -135v-12q-70 -415 -70 -864v-137h-2q-8 0 -52 40q-105 88 -111 91q-2 66 -2 94q0 118 3 239q-116 -190 -275 -396q-4 -1 -36 -45q-13 -9 -18 -9h-7 q-153 125 -177 150q-5 9 -5 18zM184 1541l90 38l214 -244l-175 -73z" />
<glyph unicode="&#xfa;" horiz-adv-x="772" d="M10 182v119q0 105 108 851h4q7 0 30 -22q126 -104 133 -113q-48 -321 -90 -661q62 80 161 240q203 347 243 552h3l160 -135v-12q-70 -415 -70 -864v-137h-2q-8 0 -52 40q-105 88 -111 91q-2 66 -2 94q0 118 3 239q-116 -190 -275 -396q-4 -1 -36 -45q-13 -9 -18 -9h-7 q-153 125 -177 150q-5 9 -5 18zM299 1307l167 279l95 -21l-77 -298z" />
<glyph unicode="&#xfb;" horiz-adv-x="772" d="M10 182v119q0 105 108 851h4q7 0 30 -22q126 -104 133 -113q-48 -321 -90 -661q62 80 161 240q203 347 243 552h3l160 -135v-12q-70 -415 -70 -864v-137h-2q-8 0 -52 40q-105 88 -111 91q-2 66 -2 94q0 118 3 239q-116 -190 -275 -396q-4 -1 -36 -45q-13 -9 -18 -9h-7 q-153 125 -177 150q-5 9 -5 18zM40 1393v7l272 155h7q12 -3 182 -102q95 -54 110 -67l122 -104v-4h-2q-6 0 -201 113q-72 42 -72 44q-270 -157 -276 -157h-7q-129 108 -135 115z" />
<glyph unicode="&#xfc;" horiz-adv-x="772" d="M10 182v119q0 105 108 851h4q7 0 30 -22q126 -104 133 -113q-48 -321 -90 -661q62 80 161 240q203 347 243 552h3l160 -135v-12q-70 -415 -70 -864v-137h-2q-8 0 -52 40q-105 88 -111 91q-2 66 -2 94q0 118 3 239q-116 -190 -275 -396q-4 -1 -36 -45q-13 -9 -18 -9h-7 q-153 125 -177 150q-5 9 -5 18zM132 1414v63q0 30 4 81h7q45 -36 156 -131v-24q-3 -82 -3 -91v-31h-7q-143 119 -157 133zM474 1414v63q0 30 4 81h7q45 -36 156 -131v-24q-3 -82 -3 -91v-31h-7q-143 119 -157 133z" />
<glyph unicode="&#xfd;" horiz-adv-x="771" d="M10 168v121q0 115 108 853h4q9 0 68 -54q2 0 95 -79q-37 -254 -91 -665v-1h1q176 254 260 423q79 151 124 297q11 39 18 75h3q154 -130 161 -133v-13q0 -8 -24 -162q-38 -261 -77 -1006q-11 -252 -11 -394h-2q-8 0 -52 40q-105 88 -112 91v35q0 318 38 847v2h-2 q-100 -168 -255 -372q-52 -69 -67 -69h-3q-10 0 -72 58q-3 0 -58 47q-54 40 -54 59zM399 1307l167 279l95 -21l-77 -298z" />
<glyph unicode="&#xfe;" />
<glyph unicode="&#xff;" horiz-adv-x="771" d="M10 168v121q0 115 108 853h4q9 0 68 -54q2 0 95 -79q-37 -254 -91 -665v-1h1q176 254 260 423q79 151 124 297q11 39 18 75h3q154 -130 161 -133v-13q0 -8 -24 -162q-38 -261 -77 -1006q-11 -252 -11 -394h-2q-8 0 -52 40q-105 88 -112 91v35q0 318 38 847v2h-2 q-100 -168 -255 -372q-52 -69 -67 -69h-3q-10 0 -72 58q-3 0 -58 47q-54 40 -54 59zM131 1414v63q0 30 4 81h7q45 -36 156 -131v-24q-3 -82 -3 -91v-31h-7q-143 119 -157 133zM473 1414v63q0 30 4 81h7q45 -36 156 -131v-24q-3 -82 -3 -91v-31h-7q-143 119 -157 133z" />
<glyph unicode="&#x2c6;" horiz-adv-x="1293" d="M300 1393v7l272 155h7q12 -3 182 -102q95 -54 110 -67l122 -104v-4h-2q-6 0 -201 113q-72 42 -72 44q-270 -157 -276 -157h-7q-129 108 -135 115z" />
<glyph unicode="&#x2dc;" horiz-adv-x="1498" d="M300 1474v6q42 37 95 52q33 14 65 14h52q77 0 177 -92q69 -64 149 -64q106 0 218 91h2q122 -100 140 -118v-6q-68 -61 -140 -79q-28 -9 -45 -9h-60q-67 0 -167 92q-57 52 -122 61q-24 2 -27 4q-104 0 -195 -71h-2q-131 110 -140 119z" />
<glyph unicode="&#x2000;" horiz-adv-x="960" />
<glyph unicode="&#x2001;" horiz-adv-x="1920" />
<glyph unicode="&#x2002;" horiz-adv-x="960" />
<glyph unicode="&#x2003;" horiz-adv-x="1920" />
<glyph unicode="&#x2004;" horiz-adv-x="640" />
<glyph unicode="&#x2005;" horiz-adv-x="480" />
<glyph unicode="&#x2006;" horiz-adv-x="320" />
<glyph unicode="&#x2007;" horiz-adv-x="320" />
<glyph unicode="&#x2008;" horiz-adv-x="240" />
<glyph unicode="&#x2009;" horiz-adv-x="384" />
<glyph unicode="&#x200a;" horiz-adv-x="106" />
<glyph unicode="&#x2010;" horiz-adv-x="1069" d="M10 773v8q180 3 266 3h384q71 0 241 -3q0 -3 158 -135v-4h-7q-314 4 -351 4h-133q-47 0 -389 -4h-12q-157 130 -157 131z" />
<glyph unicode="&#x2011;" horiz-adv-x="1069" d="M10 773v8q180 3 266 3h384q71 0 241 -3q0 -3 158 -135v-4h-7q-314 4 -351 4h-133q-47 0 -389 -4h-12q-157 130 -157 131z" />
<glyph unicode="&#x2012;" horiz-adv-x="1069" d="M10 773v8q180 3 266 3h384q71 0 241 -3q0 -3 158 -135v-4h-7q-314 4 -351 4h-133q-47 0 -389 -4h-12q-157 130 -157 131z" />
<glyph unicode="&#x2013;" />
<glyph unicode="&#x2014;" />
<glyph unicode="&#x2018;" />
<glyph unicode="&#x2019;" />
<glyph unicode="&#x201a;" />
<glyph unicode="&#x201c;" />
<glyph unicode="&#x201d;" />
<glyph unicode="&#x201e;" />
<glyph unicode="&#x2022;" horiz-adv-x="1084" d="M375 748q29 136 145 230.5t251 94.5q134 0 209.5 -95.5t46.5 -229.5t-145.5 -230.5t-251.5 -96.5t-209.5 96t-45.5 231z" />
<glyph unicode="&#x2026;" horiz-adv-x="2048" d="M100 133v63q0 30 4 81h7q45 -36 156 -131v-24q-3 -82 -3 -91v-31h-7q-143 119 -157 133zM783 133v63q0 30 4 81h7q45 -36 156 -131v-24q-3 -82 -3 -91v-31h-7q-143 119 -157 133zM1466 133v63q0 30 4 81h7q45 -36 156 -131v-24q-3 -82 -3 -91v-31h-7q-143 119 -157 133z " />
<glyph unicode="&#x202f;" horiz-adv-x="384" />
<glyph unicode="&#x2039;" horiz-adv-x="638" d="M194 442l34 158l505 319l-36 -173l-315 -227l218 -228l-36 -167z" />
<glyph unicode="&#x203a;" horiz-adv-x="638" d="M126 124l36 167l315 228l-218 227l36 173l371 -319l-34 -158z" />
<glyph unicode="&#x205f;" horiz-adv-x="480" />
<glyph unicode="&#x20ac;" horiz-adv-x="1539" d="M50 533l144 126h973l-144 -126h-973zM50 783l144 126h973l-144 -126h-973zM320 817v99q0 89 54 222q29 61 76 124q84 92 115 106q117 85 261 104q24 4 47 4h93q98 0 223 -79q147 -117 217 -182h-60q-12 21 -25 41q-26 35 -34 35q-91 46 -197 46h-10q-269 0 -450 -199 q-146 -178 -146 -407q0 -227 128 -457q59 -94 77 -94q83 -41 180 -41h9q185 0 312 74h316q-69 -103 -169 -150q-127 -63 -254 -63h-84q-126 0 -260 112q-143 115 -217 189q-71 87 -101 149q-33 59 -65 162q-36 126 -36 205z" />
<glyph unicode="&#x2122;" horiz-adv-x="1378" d="M8 941v2q342 14 418 26q3 1 13 1h3q66 -50 70 -52v-3q-35 -8 -186 -17q-25 -1 -29 -1l4 -3q0 -99 -36 -467q-1 -2 -7 -54h-3q-58 42 -72 54q20 141 41 466l-144 -6q-67 48 -72 54zM234 441v3q59 165 96 296q44 157 44 222h3l71 -53q63 -157 171 -426h1q0 2 63 127 q74 154 114 256q30 78 30 96h1q5 0 33 -24q14 -8 41 -30q94 -285 158 -459q21 -52 28 -62v-4h-1q-9 6 -73 55q-28 51 -110 293l-29 87h-1q-34 -91 -86 -198q-36 -81 -121 -247h-4q-67 49 -72 54q-41 91 -155 378h-1q-45 -190 -110 -374l-17 -44h-1z" />
<glyph unicode="&#x25fc;" horiz-adv-x="1165" d="M0 0v1165h1165v-1165h-1165z" />
</font>
</defs>
</svg>
