<?xml version="1.0" standalone="no"?>
<!DOCTYPE svg PUBLIC "-//W3C//DTD SVG 1.1//EN" "http://www.w3.org/Graphics/SVG/1.1/DTD/svg11.dtd" >
<svg xmlns="http://www.w3.org/2000/svg" xmlns:xlink="http://www.w3.org/1999/xlink" version="1.1">
<metadata>
Created by FontForge 20170731 at Mon Jan 14 16:03:22 2013
 By Aleksey,,,
2011 Iconian Fonts - www.iconian.com
</metadata>
<defs>
<font id="CrixusLaserItalic" horiz-adv-x="606" >
  <font-face 
    font-family="Crixus Laser Italic"
    font-weight="400"
    font-style="italic"
    font-stretch="normal"
    units-per-em="1000"
    panose-1="0 0 0 0 0 0 0 0 0 0"
    ascent="800"
    descent="-200"
    x-height="762"
    cap-height="762"
    bbox="-49.5455 -169 1495.44 1015"
    underline-thickness="50"
    underline-position="-175"
    slope="-12"
    unicode-range="U+0020-2122"
  />
<missing-glyph horiz-adv-x="500" 
 />
    <glyph glyph-name=".notdef" horiz-adv-x="500" 
 />
    <glyph glyph-name=".null" horiz-adv-x="0" 
 />
    <glyph glyph-name="nonmarkingreturn" horiz-adv-x="500" 
 />
    <glyph glyph-name="space" unicode=" " horiz-adv-x="374" 
 />
    <glyph glyph-name="space" unicode="&#xa0;" horiz-adv-x="374" 
 />
    <glyph glyph-name="FL0021h" unicode="!" horiz-adv-x="300" 
d="M128 213l130 399h129l-130 -399h-129zM122 0h-5q-16 0 -26.5 6.5t-16 17t-5.5 22.5q0 13 4 25t14 24.5t23 23t28 17t30 6.5l13 1q13 0 23 -7t15.5 -17.5t6.5 -23t-3 -24.5q-3 -11 -12 -23.5t-22.5 -23t-30.5 -17.5t-36 -7zM269 645l38 118h129l-38 -118h-129z" />
    <glyph glyph-name="FL0022h" unicode="&#x22;" horiz-adv-x="496" 
d="M469 468h-4q-16 0 -26.5 6.5t-16 16.5t-6 22t3.5 24l25 75h150l-24 -73q-3 -11 -12 -23.5t-22.5 -23t-31 -17.5t-36.5 -7zM273 469h-4q-16 0 -26.5 6.5t-15.5 16.5t-5.5 22t3.5 24l24 74h149l-24 -72q-3 -11 -12 -23.5t-22.5 -23t-30.5 -17.5t-36 -7zM260 645l15 47
q4 12 14 24.5t23 23t28 17t30 6.5l13 1q27 0 38 -23t3 -47l-15 -49h-149zM456 645l15 46q4 12 14 25t23 23t28 16.5t30 6.5l14 1q13 0 22.5 -6.5t15 -16.5t6.5 -22.5t-3 -24.5l-15 -48h-150z" />
    <glyph glyph-name="FL0023h" unicode="#" horiz-adv-x="697" 
d="M224 535h94l25 77h129l-25 -77h99l25 77h129l-25 -77h96l-38 -116h-96l-21 -64h96l-38 -117h-96l-77 -238h-129l77 238h-99l-77 -238h-129l77 238h-94l38 117h94l21 64h-94zM749 763l-38 -118h-129l38 118h129zM521 763l-38 -118h-129l38 118h129zM508 419h-99l-21 -64
h99z" />
    <glyph glyph-name="FL0024h" unicode="$" horiz-adv-x="663" 
d="M241 0l31 94h-191l38 117h191l38 117h-118q-11 0 -21 7t-17.5 18t-11 23.5t-0.5 23.5l65 200q1 6 6 12h511l-19 -57h-194l-37 -115h119q10 0 20.5 -7t18 -18t11 -24t-0.5 -24l-65 -202q-4 -13 -16 -25.5t-27 -22.5t-30.5 -16.5t-25.5 -6.5h-116l-31 -94h-128zM284 645
q16 11 33 18.5t29 7.5h113l30 92h128l-30 -92h194l-8 -26h-489zM540 328h-64l-38 -117h64zM360 555l-37 -115h61l37 115h-61z" />
    <glyph glyph-name="FL0025h" unicode="%" horiz-adv-x="803" 
d="M471 1q-11 3 -17 14.5t-1 25.5l98 300q5 14 21.5 27t31.5 13h183q12 0 22.5 -11.5t5.5 -24.5l-101 -310q-2 -6 -7.5 -12t-12 -11t-13.5 -8.5t-13 -3.5h-191q-1 0 -2.5 0.5t-3.5 0.5zM228 0h-109l537 612h107zM205 382q-12 3 -17.5 14.5t-0.5 25.5l62 190h65l-56 -173h135
l56 173h63l-64 -196q-2 -6 -7.5 -12t-12 -11t-13.5 -8.5t-13 -3.5h-191q-1 0 -2.5 0.5t-3.5 0.5zM610 323l-86 -265h135l86 265h-135zM344 704l-19 -59h-65l25 77q5 14 21.5 27t31.5 13h183q12 0 22 -11.5t6 -24.5l-26 -81h-63l19 59h-135zM788 762h107l-103 -117h-107z" />
    <glyph glyph-name="FL0026h" unicode="&#x26;" horiz-adv-x="699" 
d="M324 444h419l-37 -115h-93l-85 -260q-4 -12 -16 -25t-27 -23t-30.5 -16.5t-26.5 -6.5h-311q-26 11 -38 33t-1 55l171 526h130zM753 760l-37 -115h-456l8 27q5 15 16.5 31t26.5 28.5t32 20.5t34 8h376zM415 114l70 215h-198l-70 -215h198z" />
    <glyph glyph-name="FL0027h" unicode="'" horiz-adv-x="299" 
d="M273 468h-4q-16 0 -26.5 6.5t-16 16.5t-6 22t3.5 24l25 75h149l-24 -73q-3 -11 -12 -23.5t-22.5 -23t-30.5 -17.5t-36 -7zM260 645l15 46q4 12 14 25t23 23t28 16.5t30 6.5l13 1q27 0 38 -23t3 -47l-15 -48h-149z" />
    <glyph glyph-name="FL0028h" unicode="(" horiz-adv-x="411" 
d="M109 4q-23 12 -31.5 33.5t1.5 50.5l170 524h130l-162 -497h131l-37 -115h-189q-2 0 -6.5 1t-6.5 3zM559 762l-38 -116h-131v-1h-130l9 29q5 15 16.5 31t26.5 28.5t32 20.5t34 8h181z" />
    <glyph glyph-name="FL0029h" unicode=")" horiz-adv-x="411" 
d="M340 88q-10 -29 -33 -50.5t-54 -33.5q-3 -2 -7.5 -3t-6.5 -1h-189l37 115h131l162 497h130zM298 762h181q16 0 28 -8t19 -20.5t8 -28.5t-4 -31l-9 -29h-130v1h-131z" />
    <glyph glyph-name="FL002Ah" unicode="*" horiz-adv-x="445" 
d="M544 612l-2 -5q-5 -15 -15.5 -27.5t-23 -21t-26 -13t-25.5 -4.5h-4l-1 -2q-3 -11 -12 -23.5t-22.5 -23t-30.5 -17.5t-36 -7h-5q-15 0 -25 6.5t-15.5 16.5t-6.5 22t3 24l2 4h-1q-12 0 -23 5.5t-18 15.5t-9.5 22.5t2.5 27.5h294zM263 645q14 20 37.5 32.5t43.5 12.5h3l1 1
q4 12 14 25t23 23t28 16.5t30 6.5l13 1q13 0 22.5 -6.5t15 -16.5t6.5 -22.5t-3 -24.5l-1 -3h2q17 0 32 -11.5t18 -33.5h-285z" />
    <glyph glyph-name="FL002Bh" unicode="+" horiz-adv-x="651" 
d="M540 544l-32 -98h188l-38 -118h-188l-34 -103h-116l34 104h-197l38 116h197l32 99h116z" />
    <glyph glyph-name="FL002Ch" unicode="," horiz-adv-x="299" 
d="M72 -152h-4q-16 0 -26.5 6.5t-16 16.5t-6 22t3.5 24l50 154q4 12 14 24.5t23 23t28 17t30 6.5l13 1q27 0 38 -23t4 -47l-50 -154q-4 -11 -13 -23.5t-22 -23t-30 -17.5t-36 -7z" />
    <glyph glyph-name="FL002Dh" unicode="-" horiz-adv-x="469" 
d="M195 445h319l-38 -116h-319z" />
    <glyph glyph-name="FL002Eh" unicode="." horiz-adv-x="300" 
d="M122 0h-5q-16 0 -26.5 6.5t-16 17t-5.5 22.5q0 13 4 25t14 24.5t23 23t28 17t30 6.5l13 1q13 0 23 -7t15.5 -17.5t6.5 -23t-3 -24.5q-3 -11 -12 -23.5t-22.5 -23t-30.5 -17.5t-36 -7z" />
    <glyph glyph-name="FL002Fh" unicode="/" horiz-adv-x="717" 
d="M50 0l535 612h151l-526 -612h-160zM614 645l103 117h148l-101 -117h-150z" />
    <glyph glyph-name="FL0030h" unicode="0" horiz-adv-x="677" 
d="M114 2q-25 6 -35.5 30t-1.5 50l172 530h130l-161 -495h270l161 495h127l-176 -541q-3 -11 -14 -23.5t-25.5 -23t-29.5 -17.5t-25 -7h-382q-1 0 -4.5 1t-5.5 1zM660 646h-270v-1h-130l12 37q4 15 15.5 29t27 25.5t32.5 18.5t31 7h367q12 0 24 -6.5t20.5 -16.5t12.5 -23
t0 -25l-15 -46h-127v1zM416 311h-4q-16 0 -26.5 6.5t-16 17t-6 23t3.5 24.5t14.5 25t24 23.5t28.5 17t29 6.5h14q13 0 23 -6.5t15 -17t6 -23.5t-3 -25q-3 -11 -12 -23.5t-22.5 -23t-31 -17.5t-36.5 -7z" />
    <glyph glyph-name="FL0031h" unicode="1" horiz-adv-x="386" 
d="M157 0l199 612h129l-199 -612h-129zM260 645l38 118h236l-38 -118h-236z" />
    <glyph glyph-name="FL0032h" unicode="2" horiz-adv-x="663" 
d="M688 389q-3 -11 -14.5 -24t-26 -24t-30 -18t-25.5 -7h-309l-66 -201h383l-37 -115h-512l115 355q4 11 15.5 24t26 24t29.5 18t26 7h309l60 184h129zM297 761h435q10 0 21.5 -6.5t20 -16.5t12.5 -22.5t0 -25.5l-14 -45h-512z" />
    <glyph glyph-name="FL0033h" unicode="3" horiz-adv-x="663" 
d="M705 442q-2 -4 -7.5 -12.5t-12.5 -17.5t-14 -16t-11 -8q1 -3 3.5 -9.5t5 -14.5t4 -15t0.5 -10l-87 -268q-4 -12 -16.5 -25t-27.5 -23t-30.5 -16.5t-25.5 -6.5h-436l38 116h387l70 217h-387l36 111h386l55 168h125zM647 648h-386l37 114h435q10 0 21 -6.5t19.5 -16.5
t12.5 -23t0 -25l-15 -46h-125z" />
    <glyph glyph-name="FL0034h" unicode="4" horiz-adv-x="647" 
d="M321 438h239l57 174h129l-199 -612h-129l104 319h-368l95 293h129zM427 763l-38 -118h-129l38 118h129zM628 645l38 118h129l-38 -118h-129z" />
    <glyph glyph-name="FL0035h" unicode="5" horiz-adv-x="663" 
d="M50 0l38 116h383l70 217h-309q-10 0 -20.5 7t-18 18t-11 24t0.5 24l67 206h129l-54 -167h309q10 0 20.5 -7t18 -18t11 -23.5t-0.5 -23.5l-98 -302q-4 -12 -16.5 -25t-27.5 -23t-30.5 -16.5t-25.5 -6.5h-435zM390 646v-1h-129l37 116h512l-37 -115h-383z" />
    <glyph glyph-name="FL0036h" unicode="6" 
d="M118 0q-26 11 -38 33t-1 55l170 524h130l-55 -168h253q10 0 20.5 -7.5t18 -18.5t11 -24t0.5 -23l-98 -300q-4 -12 -16 -25t-27 -23t-30.5 -16.5t-26.5 -6.5h-311zM260 645l8 27q5 15 16.5 31t26.5 28.5t32 20.5t34 8h376l-37 -115h-456zM485 329h-198l-69 -213h198z" />
    <glyph glyph-name="FL0037h" unicode="7" horiz-adv-x="607" 
d="M50 0l509 612h129l-512 -612h-126zM587 645l1 1h-327l38 116h456l-38 -116l-1 -1h-129z" />
    <glyph glyph-name="FL0038h" unicode="8" horiz-adv-x="663" 
d="M705 442q-2 -4 -7.5 -12.5t-12.5 -17.5t-14 -16t-11 -8q1 -3 3.5 -9.5t5 -14.5t4 -15t0.5 -10l-87 -268q-4 -12 -16.5 -25t-27.5 -23t-30.5 -16.5t-25.5 -6.5h-359q-11 0 -22 6.5t-19.5 16.5t-12.5 23t0 25l87 268q1 3 7.5 10t14 14.5l14.5 14.5t9 10q-3 1 -5.5 8t-4 16
t-1.5 17q0 9 2 13l55 170h126l-55 -168h257l55 168h126zM284 333l-70 -217h261l70 217h-261zM376 762h357q10 0 21 -6.5t19.5 -16.5t12.5 -23t0 -25l-15 -46h-126v1h-257v-1h-126l15 46q4 12 16 25t27 23t30 16.5t26 6.5z" />
    <glyph glyph-name="FL0039h" unicode="9" 
d="M319 430h198l59 182h129l-171 -525q-5 -15 -16 -30.5t-26 -28.5t-32 -21t-34 -8h-376l37 116h327l66 201h-254q-11 0 -21 7t-17.5 18t-11 24t-0.5 24l73 223h129zM685 761q26 -11 38.5 -33t1.5 -55l-9 -28h-456l14 45q4 13 16 25.5t27.5 22.5t31 16.5t25.5 6.5h311z" />
    <glyph glyph-name="FL003Ah" unicode=":" horiz-adv-x="301" 
d="M221 302h-5q-16 0 -26.5 6.5t-16 17t-5.5 22.5q0 13 4 25t14 25t23.5 23.5t28.5 17t30 6.5h13q13 0 23 -6.5t15 -17t6 -23.5t-3 -25q-3 -11 -12 -23.5t-22.5 -23t-30.5 -17.5t-36 -7zM122 0h-5q-16 0 -26.5 6.5t-16 17t-5.5 22.5q0 13 4 25t14 24.5t23 23t28 17t30 6.5
l13 1q13 0 23 -7t15.5 -17.5t6.5 -23t-3 -24.5q-3 -11 -12 -23.5t-22.5 -23t-30.5 -17.5t-36 -7z" />
    <glyph glyph-name="FL003Bh" unicode=";" horiz-adv-x="301" 
d="M72 -152h-4q-16 0 -26.5 6.5t-16 16.5t-6 22t3.5 24l50 154q4 12 14 24.5t23 23t28 17t30 6.5l13 1q27 0 38 -23t4 -47l-50 -154q-4 -11 -13 -23.5t-22 -23t-30 -17.5t-36 -7zM221 302h-5q-16 0 -26.5 6.5t-16 17t-5.5 22.5q0 13 4 25t14 25t23.5 23.5t28.5 17t30 6.5h13
q13 0 23 -6.5t15 -17t6 -23.5t-3 -25q-3 -11 -12 -23.5t-22.5 -23t-30.5 -17.5t-36 -7z" />
    <glyph glyph-name="FL003Ch" unicode="&#x3c;" horiz-adv-x="599" 
d="M338 0l-165 379l257 233h151l-250 -230l-2 -6l169 -376h-160zM748 766l-131 -121h-151l134 121h148z" />
    <glyph glyph-name="FL003Dh" unicode="=" horiz-adv-x="469" 
d="M165 355h319l-38 -117h-319zM224 535h319l-38 -116h-319z" />
    <glyph glyph-name="FL003Eh" unicode="&#x3e;" horiz-adv-x="599" 
d="M211 0h-160l414 376l2 6l-101 230h150l106 -233zM299 766h148l55 -121h-150z" />
    <glyph glyph-name="FL003Fh" unicode="?" horiz-adv-x="662" 
d="M688 389q-3 -11 -14.5 -24t-26 -24t-30 -18t-25.5 -7h-309l-34 -103h-129l46 142q4 11 15.5 24t26 24t29.5 18t26 7h309l60 184h129zM297 761h435q10 0 21.5 -6.5t20 -16.5t12.5 -22.5t0 -25.5l-14 -45h-512zM122 0h-5q-16 0 -26.5 6.5t-16 17t-5.5 22.5q0 13 4 25
t14 24.5t23 23t28 17t30 6.5l13 1q13 0 23 -7t15.5 -17.5t6.5 -23t-3 -24.5q-3 -11 -12 -23.5t-22.5 -23t-30.5 -17.5t-36 -7z" />
    <glyph glyph-name="FL0040h" unicode="@" 
d="M218 116h326l-38 -116h-376q-17 0 -29 8t-18.5 20.5t-7.5 28.5t4 31l170 524h130zM338 235q-11 2 -15 13t0 23l88 270q4 13 17.5 24t26.5 11h110l12 36h129l-112 -345q-3 -10 -17.5 -21t-23.5 -11h-215zM588 645v1h-198v-1h-130l9 29q11 33 37.5 55t59.5 33h311
q11 0 22.5 -6.5t20 -16.5t12.5 -23t0 -25l-15 -46h-129zM464 344h26q2 0 6 4t6 8l35 109q3 12 -4 12h-24q-3 0 -7.5 -4.5t-6.5 -9.5l-34 -105q-5 -12 3 -14z" />
    <glyph glyph-name="FL0041h" unicode="A" horiz-adv-x="675" 
d="M286 330l-107 -330h-129l199 612h129l-54 -166h269l54 166h127l-199 -612h-127l107 330h-269zM658 646h-269v-1h-129l15 47q3 11 14 23.5t25.5 23t29 17.5t25.5 7h383q1 0 4 -1t5 -1q23 -8 34 -29t3 -46l-13 -41h-127v1z" />
    <glyph glyph-name="FL0042h" unicode="B" horiz-adv-x="663" 
d="M57 21l192 591h129l-55 -168h256l55 168h126l-55 -170q-2 -4 -7.5 -12.5t-12.5 -17.5t-14 -16t-11 -8q1 -3 3.5 -9.5t5 -14.5t4 -15t0.5 -10l-87 -268q-4 -12 -16.5 -25t-27.5 -23t-30.5 -16.5t-25.5 -6.5h-435l7 21h-1zM389 646v-1h-129l38 117h435q10 0 21 -6.5
t19.5 -16.5t12.5 -23t0 -25l-15 -46h-126v1h-256zM545 331h-257l-70 -215h257z" />
    <glyph glyph-name="FL0043h" unicode="C" 
d="M109 4q-23 12 -31.5 33.5t1.5 50.5l170 524h130l-162 -497h326l-37 -115h-384q-2 0 -6.5 1t-6.5 3zM754 762l-38 -116h-326v-1h-130l9 29q5 15 16.5 31t26.5 28.5t32 20.5t34 8h376z" />
    <glyph glyph-name="FL0044h" unicode="D" horiz-adv-x="677" 
d="M506 0h-456l199 612h130l-161 -495h270l161 495h127l-176 -541q-3 -11 -14 -23.5t-25.5 -23t-29.5 -17.5t-25 -7zM390 646v-1h-130l38 118h447q12 0 24 -6.5t20.5 -17t12.5 -23t0 -25.5l-15 -46h-127v1h-270z" />
    <glyph glyph-name="FL0065h" unicode="E" 
d="M518 430l59 182h128l-73 -223q-3 -11 -14.5 -24t-26 -24t-30 -18t-25.5 -7h-253l-66 -201h326l-37 -116h-376q-17 0 -29 8t-19 21t-8 28.5t4 30.5l171 525h130l-59 -182h198zM365 761h311q11 0 22.5 -6.5t19.5 -16.5t12 -22.5t0 -25.5l-14 -45h-456l9 28q11 33 37 55
t59 33z" />
    <glyph glyph-name="FL0046h" unicode="F" horiz-adv-x="605" 
d="M175 0h-125l199 612h125l-54 -167h320l-38 -116h-320zM753 762l-38 -116h-330v-1h-125l15 47q4 13 15.5 26t26 22.5t30 15.5t28.5 6h378z" />
    <glyph glyph-name="FL0047h" unicode="G" 
d="M118 0q-26 11 -38 33t-1 55l170 524h130l-161 -496h198l70 216h-94l37 113h149q10 0 20.5 -7t18 -18t11 -23.5t-0.5 -23.5l-98 -302q-4 -12 -16 -25t-27 -23t-30.5 -16.5t-26.5 -6.5h-311zM260 645l9 29q5 15 16.5 31t26.5 28.5t32 20.5t34 8h376l-38 -116h-326v-1h-130z
" />
    <glyph glyph-name="FL0048h" unicode="H" horiz-adv-x="647" 
d="M321 438h239l57 174h129l-199 -612h-129l104 319h-239l-104 -319h-129l199 612h129zM427 763l-38 -118h-129l38 118h129zM628 645l38 118h129l-38 -118h-129z" />
    <glyph glyph-name="FL0049h" unicode="I" horiz-adv-x="607" 
d="M89 117h162l161 495h129l-161 -495h165l-38 -117h-456zM552 646v-1h-129v1h-163l38 116h456l-38 -116h-164z" />
    <glyph glyph-name="FL004Ah" unicode="J" 
d="M438 0h-311q-11 0 -22 6.5t-19.5 16.5t-12.5 23t0 25l85 261h129l-70 -216h198l161 496h129l-170 -524q-11 -33 -37 -55t-60 -33zM754 763l-38 -118h-129v1h-327l38 117h456z" />
    <glyph glyph-name="FL004Bh" unicode="K" horiz-adv-x="730" 
d="M470 0l-152 400l215 212h150l-208 -208l-2 -6l157 -398h-160zM50 0l199 612h128l-199 -612h-128zM833 762l-117 -117h-149l119 117h147zM426 762l-38 -117h-128l38 117h128z" />
    <glyph glyph-name="FL004Ch" unicode="L" horiz-adv-x="605" 
d="M505 -1h-378q-14 0 -25.5 6t-19.5 15.5t-11 22t1 26.5l177 543h125l-162 -497h330zM260 645l37 116h125l-37 -116h-125z" />
    <glyph glyph-name="FL004Dh" unicode="M" horiz-adv-x="886" 
d="M451 612l50 -351l279 351h205l-199 -612h-129l162 499l-401 -499l-77 499l-162 -499h-129l199 612h202zM807 645l94 118h133l-38 -118h-189zM430 762l16 -117h-186l38 117h132z" />
    <glyph glyph-name="FL00CBh" unicode="N" horiz-adv-x="675" 
d="M179 0h-129l199 612h129zM449 0l199 612h126l-199 -612h-126zM659 645v1h-270v-1h-129l38 117h455l8 -1q23 -8 34 -29t3 -46l-13 -41h-126z" />
    <glyph glyph-name="FL004Fh" unicode="O" horiz-adv-x="677" 
d="M114 2q-25 6 -35.5 30t-1.5 50l172 530h130l-161 -495h270l161 495h127l-176 -541q-3 -11 -14 -23.5t-25.5 -23t-29.5 -17.5t-25 -7h-382q-1 0 -4.5 1t-5.5 1zM390 646v-1h-130l12 37q4 15 15.5 29t27 25.5t32.5 18.5t31 7h367q12 0 24 -6.5t20.5 -16.5t12.5 -23t0 -25
l-15 -46h-127v1h-270z" />
    <glyph glyph-name="FL0050h" unicode="P" horiz-adv-x="662" 
d="M694 406q-4 -11 -15.5 -24t-25.5 -24t-29 -18.5t-25 -7.5h-312l-108 -332h-129l199 612h129l-54 -167h256l54 167h127zM298 762h435q10 0 21.5 -6.5t20 -16.5t12.5 -23t0 -25l-15 -46h-127v1h-256v-1h-129z" />
    <glyph glyph-name="FL0051h" unicode="Q" horiz-adv-x="700" 
d="M550 -154h-141l-35 154h-250q-1 0 -4.5 1t-5.5 1q-25 6 -35.5 30t-1.5 50l172 530h130l-161 -495h129l-39 175h144l37 -171l160 491h127l-176 -541q-3 -10 -12.5 -21t-22 -21t-26 -17.5t-24.5 -10.5zM390 646v-1h-130l12 37q4 15 15.5 29t27 25.5t32.5 18.5t31 7h367
q12 0 24 -6.5t20.5 -16.5t12.5 -23t0 -25l-15 -46h-127v1h-270z" />
    <glyph glyph-name="R" unicode="R" horiz-adv-x="708" 
d="M366 445h214l54 167h127l-67 -206q-4 -11 -15.5 -24t-25.5 -24t-29 -18t-25 -7h-67l76 -333h-140zM179 0h-129l199 612h129zM298 762h435q10 0 21.5 -6.5t20 -16.5t12.5 -23t0 -25l-15 -46h-127v1h-256v-1h-129z" />
    <glyph glyph-name="FL0053h" unicode="S" horiz-adv-x="663" 
d="M50 0l38 116h383l70 217h-309q-10 0 -20.5 7t-18 18t-11 24t0.5 24l67 206h129l-54 -167h309q10 0 20.5 -7t18 -18t11 -23.5t-0.5 -23.5l-98 -302q-4 -12 -16.5 -25t-27.5 -23t-30.5 -16.5t-25.5 -6.5h-435zM390 646v-1h-129l15 46q4 12 16 25t27 23t30.5 16.5t26.5 6.5
h435l-38 -116h-383z" />
    <glyph glyph-name="FL0054h" unicode="T" 
d="M213 0l199 612h129l-199 -612h-129zM423 645v1h-163l38 116h456l-38 -116h-164v-1h-129z" />
    <glyph glyph-name="FL0055h" unicode="U" horiz-adv-x="675" 
d="M214 117h270l161 495h129l-176 -541q-3 -11 -14 -23.5t-25.5 -23t-29.5 -17.5t-25 -7h-383q-1 0 -4.5 1t-5.5 1q-22 8 -33 29t-3 46l174 535h126zM656 645l38 118h129l-38 -118h-129zM424 763l-38 -118h-126l38 118h126z" />
    <glyph glyph-name="FL0056h" unicode="V" horiz-adv-x="647" 
d="M409 612l-53 -443l231 443h129l-319 -612h-195l77 612h130zM427 763l-14 -118h-130l15 118h129zM605 645l61 118h129l-61 -118h-129z" />
    <glyph glyph-name="FL0057h" unicode="W" horiz-adv-x="1015" 
d="M777 612l-53 -443l231 443h129l-319 -612h-195l55 437l-228 -437h-195l77 612h130l-53 -443l231 443h190zM795 763l-14 -118h-176l61 118h129zM298 763h129l-14 -118h-130zM973 645l61 118h129l-61 -118h-129z" />
    <glyph glyph-name="FL0058h" unicode="X" horiz-adv-x="762" 
d="M50 0l357 400l2 7l-38 205h150l13 -63l54 63h151l-172 -205l-2 -7l97 -400h-160l-61 263l-231 -263h-160zM343 762h148l24 -117h-150zM617 645l100 117h148l-98 -117h-150z" />
    <glyph glyph-name="FL0059h" unicode="Y" horiz-adv-x="647" 
d="M118 115h339l67 204h-287q-13 0 -25.5 6.5t-21.5 17t-13 23.5t1 27l71 219h126l-57 -174h242l57 174h129l-175 -538q-4 -12 -15.5 -25t-25.5 -24t-28.5 -18t-25.5 -7h-395zM795 763l-38 -118h-129l38 118h129zM424 762l-38 -117h-126l38 117h126z" />
    <glyph glyph-name="FL005Ah" unicode="Z" horiz-adv-x="607" 
d="M88 116l468 496h129l-465 -496h324l-38 -116h-456zM587 645l1 1h-327l38 116h456l-38 -116l-1 -1h-129z" />
    <glyph glyph-name="FL005Bh" unicode="[" horiz-adv-x="411" 
d="M311 0h-261l199 612h130l-162 -497h131zM559 762l-38 -116h-131v-1h-130l38 117h261z" />
    <glyph glyph-name="FL005Ch" unicode="\" horiz-adv-x="717" 
d="M617 0h-160l-128 612h150zM298 762h148l26 -117h-150z" />
    <glyph glyph-name="FL005Dh" unicode="]" horiz-adv-x="411" 
d="M311 0h-261l37 115h131l162 497h130zM298 762h261l-38 -117h-130v1h-131z" />
    <glyph glyph-name="FL005Eh" unicode="^" horiz-adv-x="399" 
d="M395 677l-23 -32h-79l82 117h98l4 -117h-79zM305 555h-75l40 57h77zM405 555l-5 57h77l2 -57h-74z" />
    <glyph glyph-name="FL005Fh" unicode="_" 
d="M88 117h456l-38 -117h-456z" />
    <glyph glyph-name="FL0060h" unicode="`" horiz-adv-x="360" 
d="M269 645q-6 12 2 35q11 32 38 52l11 11q25 19 54 19q27 0 37 -16l50 -81q2 -4 4 -9t2 -11h-198zM419 566l-5 -3q-15 -11 -26.5 -13t-23.5 -2q-26 0 -35 16l-36 48h165q-14 -27 -39 -46z" />
    <glyph glyph-name="a" unicode="a" horiz-adv-x="658" 
d="M576 445l54 167h127l-199 -612h-436q-13 0 -23 8t-16.5 20t-8.5 26t2 26l93 285q4 12 15.5 26t26 26t30 20t28.5 8h307zM782 689l-14 -44h-127v1h-366l38 116h413q12 0 24 -6.5t20.5 -16.5t12 -23.5t-0.5 -26.5zM287 328l-69 -211h251l69 211h-251z" />
    <glyph glyph-name="FL0062h" unicode="b" horiz-adv-x="663" 
d="M57 21l192 591h129l-55 -168h256l55 168h126l-55 -170q-2 -4 -7.5 -12.5t-12.5 -17.5t-14 -16t-11 -8q1 -3 3.5 -9.5t5 -14.5t4 -15t0.5 -10l-87 -268q-4 -12 -16.5 -25t-27.5 -23t-30.5 -16.5t-25.5 -6.5h-435l7 21h-1zM389 646v-1h-129l38 117h435q10 0 21 -6.5
t19.5 -16.5t12.5 -23t0 -25l-15 -46h-126v1h-256zM545 331h-257l-70 -215h257z" />
    <glyph glyph-name="c" unicode="c" 
d="M109 4q-23 12 -31.5 33.5t1.5 50.5l170 524h130l-162 -497h326l-37 -115h-384q-2 0 -6.5 1t-6.5 3zM754 762l-38 -116h-326v-1h-130l9 29q5 15 16.5 31t26.5 28.5t32 20.5t34 8h376z" />
    <glyph glyph-name="FL0064h" unicode="d" horiz-adv-x="677" 
d="M506 0h-456l199 612h130l-161 -495h270l161 495h127l-176 -541q-3 -11 -14 -23.5t-25.5 -23t-29.5 -17.5t-25 -7zM390 646v-1h-130l38 118h447q12 0 24 -6.5t20.5 -17t12.5 -23t0 -25.5l-15 -46h-127v1h-270z" />
    <glyph glyph-name="FL0045h" unicode="e" horiz-adv-x="608" 
d="M122 0q-11 0 -21 7t-17.5 17.5t-10.5 23t0 23.5l176 541h128l-54 -167h319l-38 -116h-319l-70 -214h330l-37 -115h-386zM756 762l-38 -116h-330v-1h-128l14 44q4 13 16 26.5t27 23.5t31.5 16.5t29.5 6.5h378z" />
    <glyph glyph-name="FL0066h" unicode="f" horiz-adv-x="605" 
d="M175 0h-125l199 612h125l-54 -167h320l-38 -116h-320zM753 762l-38 -116h-330v-1h-125l15 47q4 13 15.5 26t26 22.5t30 15.5t28.5 6h378z" />
    <glyph glyph-name="FL0067h" unicode="g" 
d="M118 0q-26 11 -38 33t-1 55l170 524h130l-161 -496h198l83 257h128l-98 -302q-4 -12 -16 -25t-27 -23t-30.5 -16.5t-26.5 -6.5h-311zM260 645l9 29q5 15 16.5 31t26.5 28.5t32 20.5t34 8h376l-38 -116h-326v-1h-130z" />
    <glyph glyph-name="FL0068h" unicode="h" horiz-adv-x="647" 
d="M321 438h239l57 174h129l-199 -612h-129l104 319h-239l-104 -319h-129l199 612h129zM427 763l-38 -118h-129l38 118h129zM628 645l38 118h129l-38 -118h-129z" />
    <glyph glyph-name="FL0069h" unicode="i" horiz-adv-x="279" 
d="M50 0l199 612h129l-199 -612h-129zM260 645l38 118h129l-38 -118h-129z" />
    <glyph glyph-name="FL006Ah" unicode="j" 
d="M438 0h-311q-11 0 -22 6.5t-19.5 16.5t-12.5 23t0 25l85 261h129l-70 -216h198l161 496h129l-170 -524q-11 -33 -37 -55t-60 -33zM754 763l-38 -118h-129l38 118h129z" />
    <glyph glyph-name="k" unicode="k" horiz-adv-x="688" 
d="M470 0l-152 400l215 212h150l-208 -208l-2 -6l157 -398h-160zM50 0l199 612h128l-199 -612h-128zM567 645l119 117h147l-117 -117h-149zM260 645l38 117h128l-38 -117h-128z" />
    <glyph glyph-name="FL006Ch" unicode="l" horiz-adv-x="605" 
d="M505 -1h-378q-14 0 -25.5 6t-19.5 15.5t-11 22t1 26.5l177 543h125l-162 -497h330zM260 645l37 116h125l-37 -116h-125z" />
    <glyph glyph-name="FL006Dh" unicode="m" horiz-adv-x="886" 
d="M458 612l43 -351l279 351h205l-199 -612h-129l162 499l-401 -499l-77 499l-162 -499h-129l199 612h209zM439 763l15 -118h-194l38 117zM807 645l94 118h133l-38 -118h-189z" />
    <glyph glyph-name="FL006Eh" unicode="n" horiz-adv-x="647" 
d="M449 612l53 -355l115 355h129l-199 -612h-129l-73 511l-166 -511h-129l199 612h200zM427 763l17 -118h-184l38 118h129zM628 645l38 118h129l-38 -118h-129z" />
    <glyph glyph-name="o" unicode="o" horiz-adv-x="677" 
d="M114 2q-25 6 -35.5 30t-1.5 50l172 530h130l-161 -495h270l161 495h127l-176 -541q-3 -11 -14 -23.5t-25.5 -23t-29.5 -17.5t-25 -7h-382q-1 0 -4.5 1t-5.5 1zM390 646v-1h-130l12 37q4 15 15.5 29t27 25.5t32.5 18.5t31 7h367q12 0 24 -6.5t20.5 -16.5t12.5 -23t0 -25
l-15 -46h-127v1h-270z" />
    <glyph glyph-name="FL0070h" unicode="p" horiz-adv-x="662" 
d="M694 406q-4 -11 -15.5 -24t-25.5 -24t-29 -18.5t-25 -7.5h-312l-108 -332h-129l199 612h129l-54 -167h256l54 167h127zM298 762h435q10 0 21.5 -6.5t20 -16.5t12.5 -23t0 -25l-15 -46h-127v1h-256v-1h-129z" />
    <glyph glyph-name="FL0071h" unicode="q" horiz-adv-x="688" 
d="M549 -120h-140l-35 120h-250q-1 0 -4.5 1t-5.5 1q-25 6 -35.5 30t-1.5 50l172 530h130l-161 -495h129l-36 142h144l34 -138l160 491h127l-176 -541q-3 -10 -12.5 -21t-22 -21t-26 -17.5t-24.5 -10.5zM390 646v-1h-130l12 37q4 15 15.5 29t27 25.5t32.5 18.5t31 7h367
q12 0 24 -6.5t20.5 -16.5t12.5 -23t0 -25l-15 -46h-127v1h-270z" />
    <glyph glyph-name="FL0072h" unicode="r" horiz-adv-x="708" 
d="M366 445h214l54 167h127l-67 -206q-4 -11 -15.5 -24t-25.5 -24t-29 -18t-25 -7h-67l76 -333h-140zM179 0h-129l199 612h129zM298 762h435q10 0 21.5 -6.5t20 -16.5t12.5 -23t0 -25l-15 -46h-127v1h-256v-1h-129z" />
    <glyph glyph-name="FL0073h" unicode="s" horiz-adv-x="663" 
d="M50 0l38 116h383l70 217h-309q-10 0 -20.5 7t-18 18t-11 24t0.5 24l67 206h129l-54 -167h309q10 0 20.5 -7t18 -18t11 -23.5t-0.5 -23.5l-98 -302q-4 -12 -16.5 -25t-27.5 -23t-30.5 -16.5t-25.5 -6.5h-435zM390 646v-1h-129l15 46q4 12 16 25t27 23t30.5 16.5t26.5 6.5
h435l-38 -116h-383z" />
    <glyph glyph-name="FL0074h" unicode="t" 
d="M213 0l199 612h129l-199 -612h-129zM423 645v1h-163l38 116h456l-38 -116h-164v-1h-129z" />
    <glyph glyph-name="FL0075h" unicode="u" horiz-adv-x="675" 
d="M214 117h270l161 495h129l-176 -541q-3 -11 -14 -23.5t-25.5 -23t-29.5 -17.5t-25 -7h-383q-1 0 -4.5 1t-5.5 1q-22 8 -33 29t-3 46l174 535h126zM656 645l38 118h129l-38 -118h-129zM424 763l-38 -118h-126l38 118h126z" />
    <glyph glyph-name="FL0076h" unicode="v" horiz-adv-x="647" 
d="M409 612l-53 -443l231 443h129l-319 -612h-195l77 612h130zM427 763l-14 -118h-130l15 118h129zM605 645l61 118h129l-61 -118h-129z" />
    <glyph glyph-name="FL0077h" unicode="w" horiz-adv-x="1015" 
d="M777 612l-53 -443l231 443h129l-319 -612h-195l55 437l-228 -437h-195l77 612h130l-53 -443l231 443h190zM795 763l-14 -118h-176l61 118h129zM298 763h129l-14 -118h-130zM973 645l61 118h129l-61 -118h-129z" />
    <glyph glyph-name="FL0078h" unicode="x" horiz-adv-x="708" 
d="M35 0l357 400l2 7l-38 205h150l13 -63l54 63h151l-172 -205l-2 -7l97 -400h-160l-61 263l-231 -263h-160zM850 762l-98 -117h-150l100 117h148zM328 762h148l24 -117h-150z" />
    <glyph glyph-name="y" unicode="y" horiz-adv-x="647" 
d="M118 115h339l67 204h-287q-13 0 -25.5 6.5t-21.5 17t-13 23.5t1 27l71 219h126l-57 -174h242l57 174h129l-175 -538q-4 -12 -15.5 -25t-25.5 -24t-28.5 -18t-25.5 -7h-395zM795 763l-38 -118h-129l38 118h129zM424 762l-38 -117h-126l38 117h126z" />
    <glyph glyph-name="FL007Ah" unicode="z" horiz-adv-x="607" 
d="M88 116l468 496h129l-465 -496h324l-38 -116h-456zM587 645l1 1h-327l38 116h456l-38 -116l-1 -1h-129z" />
    <glyph glyph-name="FL007Bh" unicode="{" horiz-adv-x="411" 
d="M63 -138q-23 12 -32 33t1 51l217 666h129l-208 -639h132l-37 -115h-189q-2 0 -6.5 1t-6.5 3zM605 905l-38 -116h-132l-46 -144h-129l55 172q5 15 16.5 31t26.5 28.5t32 20.5t34 8h181z" />
    <glyph glyph-name="FL007Ch" unicode="|" horiz-adv-x="281" 
d="M4 -142l245 754h131l-245 -754h-131zM260 645l83 258h131l-83 -258h-131z" />
    <glyph glyph-name="FL007Dh" unicode="}" horiz-adv-x="411" 
d="M293 -54q-10 -30 -33 -51t-53 -33q-3 -2 -7.5 -3t-6.5 -1h-189l37 115h131l208 639h130zM344 905h181q16 0 28 -8t19 -20.5t8 -28.5t-4 -31l-55 -172h-130l46 144h-131z" />
    <glyph glyph-name="FL007Eh" unicode="~" horiz-adv-x="500" 
d="M315 276l-10 125l-89 -122h-75l144 207h98l9 -125l90 122h75l-144 -207h-98z" />
    <glyph glyph-name="FL007Fh" horiz-adv-x="148" 
 />
    <glyph glyph-name="FL00A1h" unicode="&#xa1;" horiz-adv-x="300" 
d="M370 550l-179 -550h-128l179 550h128zM376 763h5q24 -1 35.5 -14.5t12.5 -31.5t-9.5 -38t-30.5 -34h-111q-11 21 -3 47q3 11 12 23.5t22.5 23t30.5 17.5t36 7z" />
    <glyph glyph-name="FL00A2h" unicode="&#xa2;" 
d="M253 0l52 159h-131q-2 0 -6.5 1.5t-6.5 3.5q-23 11 -31.5 32.5t0.5 50.5l84 259q5 15 16.5 30.5t26.5 28.5t32 21t34 8h123l6 18h129l-6 -18h124l-38 -116h-124l-66 -204h124l-37 -115h-124l-52 -159h-129zM630 763l-38 -118h-129l38 118h129zM408 478h-73l-66 -204h73z
" />
    <glyph glyph-name="FL0579h" unicode="&#xa3;" horiz-adv-x="735" 
d="M88 116h130l65 200h-130l37 116h130l59 180h125l-58 -179h320l-38 -117h-320l-65 -200h330l-38 -116h-585zM390 645l38 117h125l-38 -117h-125z" />
    <glyph glyph-name="FL00A4h" unicode="&#xa4;" horiz-adv-x="762" 
d="M613 201l49 -201h-160l-34 146h-130l-128 -146h-160l175 196l135 416h387zM362 234h133q9 0 23 11t17 21l91 279q4 11 -4.5 21t-18.5 10h-123q-13 0 -27 -11.5t-19 -24.5l-87 -270q-4 -12 0 -23t15 -13zM343 762h148l18 -93h127l81 93h148l-98 -117h-403z" />
    <glyph glyph-name="FL00A5h" unicode="&#xa5;" horiz-adv-x="809" 
d="M118 115h339l67 204h-287q-13 0 -25.5 6.5t-21.5 17t-13 23.5t1 27l71 219h126l-57 -174h242l57 174h129l-25 -78h154l-38 -116h-154l-21 -64h154l-38 -117h-154l-53 -163q-4 -12 -15.5 -25t-25.5 -24t-28.5 -18t-25.5 -7h-395zM628 645l38 118h129l-38 -118h-129z
M260 645l38 117h126l-38 -117h-126z" />
    <glyph glyph-name="FL00A6h" unicode="&#xa6;" horiz-adv-x="1434" 
d="M1436 315l-117 -9q49 -72 41 -98q-2 -2 -5 -8l-110 17l-46 -114l-103 34l-120 -98l-66 48l-203 -80l20 32l-17 32l-234 -40l44 56l-245 9l87 47l-199 42l110 41l-126 72l116 8l-37 73l2 33l112 -8l54 113q47 -35 76 -35q15 0 22 4l127 96l55 -49l184 73l16 -7l-8 -49
l241 32l-36 -57h239l-87 -48l191 -41l4 -16h-10l-96 -24l120 -66zM676 325q1 48 -49 48h-9q1 0 -1 -0.5t-7 -0.5q-70 -33 -100 -125q3 -24 46 -24q6 0 12.5 0.5t13.5 1.5q46 0 94 100zM1007 231l32 107q4 45 -26 45q-14 0 -22 -4q-39 -35 -67 -71t-43 -71h32q30 33 51 33
q20 0 25 -33zM784 225l46 141l-25 8l-37 -99l-61 91l-44 -144l25 4l23 69q34 -70 73 -70zM1155 230l46 142l-25 8l-38 -100l-59 91l-44 -142l24 2l23 70q36 -71 73 -71zM541 377q-120 -16 -141 -83q-2 -5 -2.5 -8.5t-2.5 -10.5q-5 -63 41 -63q5 0 13.5 2t20.5 4l6 25
q-12 -4 -31 -4q-34 0 -25 28q10 31 43 58q29 20 48 20q5 0 8 -0.5t8 -2.5zM640 305q-8 -23 -28 -43q-29 -12 -45 -12q-26 0 -14 35q3 9 4 10q34 45 60 45q20 0 23 -19q3 -5 0 -16zM909 380l-31 -6l-64 -145l42 10zM410 374l-31 -6l-63 -146l40 11zM1282 371l-36 9l-41 -110
l23 -4zM1001 301h-51l47 48zM1219 222l-21 9l-26 -15l14 -16z" />
    <glyph glyph-name="FL00A7h" unicode="&#xa7;" horiz-adv-x="762" 
d="M595 146h-257l-128 -146h-160l176 196l135 416h386zM362 234h163l101 311q4 11 -4.5 21t-17.5 12h-157l-100 -308q-4 -12 0 -23t15 -13zM379 668l257 1l81 93h148l-98 -117h-395z" />
    <glyph glyph-name="FL00A8h" unicode="&#xa8;" horiz-adv-x="500" 
d="M275 645q-9 19 -1 45q4 12 14 24.5t23 23t28 17t30 6.5l14 1q13 0 22.5 -7t15 -17.5t6.5 -23t-3 -24.5q-3 -11 -12 -22.5t-21 -22.5h-116zM475 645q-9 19 -1 45q4 12 14 24.5t23 23t28 17t30 6.5l14 1q13 0 22.5 -7t15 -17.5t6.5 -23t-3 -24.5q-3 -11 -12 -22.5
t-21 -22.5h-116z" />
    <glyph glyph-name="FL00A9h" unicode="&#xa9;" horiz-adv-x="413" 
d="M205 383q-11 3 -17 14.5t-1 25.5l62 189h62l-46 -142q-8 -20 9 -28l1.5 -0.5t12.5 -0.5h102l13 38h-96l43 133h162l-64 -195q-4 -11 -19 -23t-27 -12h-191q-1 0 -2.5 0.5t-3.5 0.5zM475 703h-113q-7 0 -17.5 -10t-14.5 -21l-8 -27h-62l25 78q5 14 21.5 27t31.5 13h183
q12 0 22.5 -11.5t5.5 -24.5l-26 -82h-162l5 17h96z" />
    <glyph glyph-name="FL00AAh" unicode="&#xaa;" horiz-adv-x="404" 
d="M436 604l3 8h64l-75 -230h-218q-13 0 -20 14t-3 26l46 142q4 12 20.5 26t29.5 14h153zM540 726l-26 -81h-64l19 60h-183l19 58h207q12 0 22.5 -11.5t5.5 -25.5zM292 546l-34 -106h125l34 106h-125z" />
    <glyph glyph-name="FL00ABh" unicode="&#xab;" horiz-adv-x="613" 
d="M622 336l-24 -74l-183 74l32 98l232 77l-24 -75l-139 -50zM366 336l-24 -74l-183 74l32 98l232 77l-24 -75l-139 -50z" />
    <glyph glyph-name="FL00ACh" unicode="&#xac;" horiz-adv-x="651" 
d="M195 445l502 1l-79 -242h-117l41 125h-385z" />
    <glyph glyph-name="FL00ADh" unicode="&#xad;" horiz-adv-x="397" 
d="M195 446h247l-38 -117h-247z" />
    <glyph glyph-name="FL00AEh" unicode="&#xae;" horiz-adv-x="413" 
d="M205 383q-11 3 -17 14.5t-1 25.5l62 189h62l-56 -173h39l56 173h162l-64 -195q-4 -11 -19 -23t-27 -12h-191q-1 0 -2.5 0.5t-3.5 0.5zM475 703h-113q-7 0 -17.5 -10t-14.5 -21l-8 -27h-62l25 78q5 14 21.5 27t31.5 13h183q12 0 22.5 -11.5t5.5 -24.5l-26 -82h-162l5 17
h96z" />
    <glyph glyph-name="FL00AFh" unicode="&#xaf;" 
d="M298 763h456l-38 -117h-456z" />
    <glyph glyph-name="FL00B0h" unicode="&#xb0;" horiz-adv-x="300" 
d="M276 645q-11 21 -1 46q4 12 14 24.5t23 23t28 17t30 6.5l13 1q13 0 23 -7t15.5 -17.5t6.5 -23t-3 -24.5q-7 -23 -35 -46h-114z" />
    <glyph glyph-name="FL00B1h" unicode="&#xb1;" horiz-adv-x="651" 
d="M540 544l-32 -98h188l-38 -118h-188l-34 -103h-116l34 104h-197l38 116h197l32 99h116zM88 116h501l-38 -116h-501z" />
    <glyph glyph-name="FL00B2h" unicode="&#xb2;" horiz-adv-x="406" 
d="M493 577q-2 -6 -7.5 -12t-13 -11.5t-15 -9t-12.5 -3.5h-154l-33 -101h191l-19 -57h-256l58 177q2 6 8 12.5t13.5 12t15 9t12.5 3.5h154l5 15h65zM298 763h217q11 0 21.5 -11t6.5 -24l-27 -83h-65l19 60h-191z" />
    <glyph glyph-name="FL00B3h" unicode="&#xb3;" horiz-adv-x="406" 
d="M501 602q-2 -4 -10.5 -15t-11.5 -12q2 -3 4.5 -12.5t1.5 -12.5l-44 -134q-4 -12 -20.5 -23.5t-28.5 -11.5h-218l19 58h193l35 108h-193l18 56h193l3 9h62zM472 705h-193l19 57h217q11 0 20.5 -11.5t5.5 -24.5l-26 -81h-62z" />
    <glyph glyph-name="FL00B4h" unicode="&#xb4;" horiz-adv-x="360" 
d="M481 680q-8 -23 -21 -35h-198q4 7 9 11.5t10 8.5l102 81q22 16 49 16q28 0 40 -19l5 -11q14 -23 4 -52zM259 566q-8 11 -9.5 22.5t0.5 23.5h165l-68 -48q-16 -16 -45 -16q-12 0 -22 2t-18 13z" />
    <glyph glyph-name="FL00B5h" unicode="&#xb5;" horiz-adv-x="647" 
d="M553 115l-37 -115h-395q-11 0 -21 7t-17 18t-10 24t1 25l175 538h129l-57 -174h242l57 174h126l-71 -219q-5 -14 -17.5 -27t-28 -23.5t-32 -17t-29.5 -6.5h-287l-67 -204h339zM260 645l38 118h129l-38 -118h-129zM631 645l38 117h126l-38 -117h-126z" />
    <glyph glyph-name="FL00B6h" unicode="&#xb6;" horiz-adv-x="662" 
d="M392 0h-119l108 333h-152q-11 0 -21 7t-17 18t-10 24t1 24l67 206h342zM562 0h-129l199 612h129zM810 762l-38 -117h-129v1h-41v-1h-342l15 46q4 12 16 25t27 23t30.5 16.5t26.5 6.5h435z" />
    <glyph glyph-name="FL00B7h" unicode="&#xb7;" horiz-adv-x="301" 
d="M221 302h-5q-16 0 -26.5 6.5t-16 17t-5.5 22.5q0 13 4 25t14 25t23.5 23.5t28.5 17t30 6.5h13q13 0 23 -6.5t15 -17t6 -23.5t-3 -25q-3 -11 -12 -23.5t-22.5 -23t-30.5 -17.5t-36 -7z" />
    <glyph glyph-name="FL00B8h" unicode="&#xb8;" horiz-adv-x="351" 
d="M-39 -151q-10 14 -10.5 29.5t4.5 29.5q10 27 28 40l66 52h205l-205 -153q-16 -16 -45 -16q-12 0 -22 2t-18 13z" />
    <glyph glyph-name="FL00B9h" unicode="&#xb9;" horiz-adv-x="268" 
d="M227 382l75 230h65l-75 -230h-65zM313 645l19 59h-53l19 59h118l-38 -118h-65z" />
    <glyph glyph-name="FL00BAh" unicode="&#xba;" horiz-adv-x="413" 
d="M205 383q-11 3 -17 14.5t-1 25.5l62 189h65l-56 -172h135l56 172h63l-64 -195q-4 -11 -19 -23t-27 -12h-191q-1 0 -2.5 0.5t-3.5 0.5zM344 705l-19 -60h-65l25 78q5 14 21.5 27t31.5 13h183q12 0 22.5 -11.5t5.5 -24.5l-26 -82h-63l19 60h-135z" />
    <glyph glyph-name="FL00BBh" unicode="&#xbb;" horiz-adv-x="613" 
d="M158 336l138 50l-105 50l24 75l182 -77l-32 -98l-231 -74zM414 336l138 50l-105 50l24 75l182 -77l-32 -98l-231 -74z" />
    <glyph glyph-name="FL00BCh" unicode="&#xbc;" horiz-adv-x="753" 
d="M50 0l537 612h107l-535 -612h-109zM593 381l-53 -162h120l53 162h64l-124 -381h-64l52 159h-184l72 222h64zM261 383l75 229h72l-75 -229h-72zM616 645l103 117h107l-103 -117h-107zM347 645l19 59h-46l19 59h118l-38 -118h-72z" />
    <glyph glyph-name="FL00BDh" unicode="&#xbd;" horiz-adv-x="760" 
d="M50 0l537 612h107l-535 -612h-109zM527 380h217q11 0 22 -11t6 -24l-49 -151q-2 -6 -8 -12t-13.5 -11.5t-15 -9t-12.5 -3.5h-154l-32 -101h191l-19 -57h-256l58 177q2 6 8 12.5t13.5 12t15 9t12.5 3.5h154l35 108h-191zM261 383l75 229h72l-75 -229h-72zM616 645l103 117
h107l-103 -117h-107zM347 645l19 59h-46l19 59h118l-38 -118h-72z" />
    <glyph glyph-name="FL00BEh" unicode="&#xbe;" horiz-adv-x="829" 
d="M126 0l537 612h107l-535 -612h-109zM669 381l-53 -162h120l53 162h64l-124 -381h-64l52 159h-184l72 222h64zM501 603q-2 -4 -10.5 -15t-11.5 -12q2 -3 4.5 -12.5t1.5 -12.5l-44 -134q-4 -12 -20.5 -23.5t-28.5 -11.5h-218l19 58h193l35 108h-193l18 56h193l3 8h62z
M472 706h-193l19 57h217q11 0 21 -11.5t5 -24.5l-26 -82h-62zM692 645l103 117h107l-103 -117h-107z" />
    <glyph glyph-name="FL00BFh" unicode="&#xbf;" horiz-adv-x="662" 
d="M562 0h-435q-11 0 -22 6.5t-19.5 16.5t-12.5 23t0 25l98 302q4 11 15.5 23.5t26 23.5t29.5 18t26 7h309l33 103h129l-46 -142q-4 -11 -15.5 -24t-26 -24t-29.5 -18t-26 -7h-309l-70 -217h383zM737 761h5q16 0 26.5 -6.5t15.5 -17t5.5 -23t-3.5 -24.5q-4 -11 -13 -23
t-20 -22h-115q-10 20 -2 45q4 11 13 23.5t22 23t29.5 17.5t36.5 7z" />
    <glyph glyph-name="FL00C0h" unicode="&#xc0;" horiz-adv-x="675" 
d="M445 0l107 330h-269l-107 -330h-127l199 612h127l-54 -166h269l54 166h129l-199 -612h-129zM655 646h-269v-1h-127l13 41q8 25 33 46t52 29q2 0 6 1t5 1h383q11 0 21 -7t17 -17.5t10 -23t0 -23.5l-15 -47h-129v1zM655 814l-4 -3q-15 -11 -26.5 -13t-23.5 -2q-28 0 -35 16
l-57 75q-11 15 -1 41q9 30 37 52l12 11q25 19 53 19t38 -16l50 -81q10 -12 2 -40q-5 -14 -15 -29.5t-30 -29.5z" />
    <glyph glyph-name="FL00C1h" unicode="&#xc1;" horiz-adv-x="675" 
d="M179 0h-129l199 612h129l-54 -166h269l54 166h127l-199 -612h-127l107 330h-269zM389 646v-1h-129l15 47q3 11 14 23.5t25.5 23t29 17.5t25.5 7h383q1 0 4 -1t5 -1q23 -8 34 -29t3 -46l-13 -41h-127v1h-269zM497 814q-9 14 -9.5 29.5t4.5 29.5q8 26 28 40l102 81
q22 16 48 16q28 0 41 -19l4 -11q14 -20 5 -52q-10 -28 -29 -41l-105 -75q-19 -16 -45 -16q-12 0 -22 2t-18 13z" />
    <glyph glyph-name="FL00C2h" unicode="&#xc2;" horiz-adv-x="675" 
d="M286 330l-107 -330h-129l199 612h129l-54 -166h269l54 166h127l-199 -612h-127l107 330h-269zM658 646h-269v-1h-129l15 47q3 11 14 23.5t25.5 23t29 17.5t25.5 7h383q1 0 4 -1t5 -1q23 -8 34 -29t3 -46l-13 -41h-127v1zM621 798l-10 122l-90 -122h-75l145 207h98l6 -207
h-74z" />
    <glyph glyph-name="FL00C3h" unicode="&#xc3;" horiz-adv-x="675" 
d="M179 0h-129l199 612h129l-54 -166h269l54 166h127l-199 -612h-127l107 330h-269zM389 646v-1h-129l15 47q3 11 14 23.5t25.5 23t29 17.5t25.5 7h383q1 0 4 -1t5 -1q23 -8 34 -29t3 -46l-13 -41h-127v1h-269zM579 795l-9 125l-90 -122h-75l145 207h98l9 -125l90 122h75
l-145 -207h-98z" />
    <glyph glyph-name="FL00C4h" unicode="&#xc4;" horiz-adv-x="675" 
d="M286 330l-107 -330h-129l199 612h129l-54 -166h269l54 166h127l-199 -612h-127l107 330h-269zM658 646h-269v-1h-129l15 47q3 11 14 23.5t25.5 23t29 17.5t25.5 7h383q1 0 4 -1t5 -1q23 -8 34 -29t3 -46l-13 -41h-127v1zM676 815h-5q-24 0 -36 14t-12 32q-2 14 6 31
t22.5 31t33 24t37.5 10l13 1q13 0 23 -7t15.5 -17.5t6.5 -23t-3 -24.5q-4 -11 -13 -23.5t-22 -23t-30 -17.5t-36 -7zM476 815h-5q-24 0 -36 14t-12 32q-2 14 6 31t22.5 31t33 24t37.5 10l13 1q13 0 23 -7t15.5 -17.5t6.5 -23t-3 -24.5q-4 -11 -13 -23.5t-22 -23t-30 -17.5
t-36 -7z" />
    <glyph glyph-name="FL00C5h" unicode="&#xc5;" horiz-adv-x="675" 
d="M286 330l-107 -330h-129l199 612h129l-54 -166h269l54 166h127l-199 -612h-127l107 330h-269zM658 646h-269v-1h-129l15 47q3 11 14 23.5t25.5 23t29 17.5t25.5 7h383q1 0 4 -1t5 -1q23 -8 34 -29t3 -46l-13 -41h-127v1zM578 812h-5q-16 0 -26.5 6.5t-16 17t-5.5 22.5
q0 13 4 25t14 24.5t23 23t28 17t30 6.5l13 1q13 0 23 -7t15.5 -17.5t6.5 -23t-3 -24.5q-4 -11 -13 -23.5t-22 -23t-30 -17.5t-36 -7z" />
    <glyph glyph-name="FL00C6h" unicode="&#xc6;" horiz-adv-x="1004" 
d="M286 330l-107 -330h-129l199 612h129l-54 -166h269l54 166h130l-59 -182h198l59 182h128l-73 -223q-3 -11 -14.5 -24t-26 -24t-30 -18t-25.5 -7h-253l-66 -201h326l-37 -115h-456l107 330h-269zM658 646h-269v-1h-129l15 47q3 11 13.5 23t24 22.5t28 17t25.5 6.5h708
q11 0 22.5 -6.5t19.5 -16.5t12 -22.5t0 -25.5l-14 -45h-456v1z" />
    <glyph glyph-name="FL00C7h" unicode="&#xc7;" 
d="M119 -151q-10 14 -10.5 29.5t4.5 29.5q10 27 28 40l66 52h-85q-2 0 -6.5 1t-6.5 3q-23 12 -31.5 33.5t1.5 50.5l170 524h130l-162 -497h326l-37 -115h-94l-205 -153q-16 -16 -45 -16q-12 0 -22 2t-18 13zM260 645l9 29q5 15 16.5 31t26.5 28.5t32 20.5t34 8h376l-38 -116
h-326v-1h-130z" />
    <glyph glyph-name="FL00C8h" unicode="&#xc8;" 
d="M320 430h198l59 182h128l-73 -223q-3 -11 -14.5 -24t-26 -24t-30 -18t-25.5 -7h-253l-66 -201h326l-37 -116h-376q-17 0 -29 8t-19 21t-8 28.5t4 30.5l171 525h130zM365 761h311q11 0 22.5 -6.5t19.5 -16.5t12 -22.5t0 -25.5l-14 -45h-456l9 28q11 33 37 55t59 33z
M657 814l-4 -3q-15 -11 -26.5 -13t-23.5 -2q-28 0 -35 16l-57 75q-11 15 -1 41q9 30 37 52l12 11q25 19 53 19t38 -16l50 -81q10 -12 2 -40q-5 -14 -15 -29.5t-30 -29.5z" />
    <glyph glyph-name="FL00C9h" unicode="&#xc9;" 
d="M518 430l59 182h128l-73 -223q-3 -11 -14.5 -24t-26 -24t-30 -18t-25.5 -7h-253l-66 -201h326l-37 -116h-376q-17 0 -29 8t-19 21t-8 28.5t4 30.5l171 525h130l-59 -182h198zM365 761h311q11 0 22.5 -6.5t19.5 -16.5t12 -22.5t0 -25.5l-14 -45h-456l9 28q11 33 37 55
t59 33zM497 814q-9 14 -9.5 29.5t4.5 29.5q8 26 28 40l102 81q22 16 48 16q28 0 41 -19l4 -11q14 -20 5 -52q-10 -28 -29 -41l-105 -75q-19 -16 -45 -16q-12 0 -22 2t-18 13z" />
    <glyph glyph-name="FL00CAh" unicode="&#xca;" 
d="M320 430h198l59 182h128l-73 -223q-3 -11 -14.5 -24t-26 -24t-30 -18t-25.5 -7h-253l-66 -201h326l-37 -116h-376q-17 0 -29 8t-19 21t-8 28.5t4 30.5l171 525h130zM365 761h311q11 0 22.5 -6.5t19.5 -16.5t12 -22.5t0 -25.5l-14 -45h-456l9 28q11 33 37 55t59 33z
M590 801l-10 122l-90 -122h-75l145 207h98l6 -207h-74z" />
    <glyph glyph-name="FL00CEh" unicode="&#xcb;" 
d="M320 430h198l59 182h128l-73 -223q-3 -11 -14.5 -24t-26 -24t-30 -18t-25.5 -7h-253l-66 -201h326l-37 -116h-376q-17 0 -29 8t-19 21t-8 28.5t4 30.5l171 525h130zM365 761h311q11 0 22.5 -6.5t19.5 -16.5t12 -22.5t0 -25.5l-14 -45h-456l9 28q11 33 37 55t59 33z
M460 814h-5q-24 0 -35.5 14t-11.5 32q-2 14 6 31t22.5 31t33 24t37.5 10l13 1q13 0 23 -7t15.5 -17.5t6.5 -23t-3 -24.5q-4 -11 -13 -23.5t-22.5 -23t-30.5 -17.5t-36 -7zM660 814h-5q-24 0 -35.5 14t-11.5 32q-2 14 6 31t22.5 31t33 24t37.5 10l13 1q13 0 23 -7t15.5 -17.5
t6.5 -23t-3 -24.5q-4 -11 -13 -23.5t-22.5 -23t-30.5 -17.5t-36 -7z" />
    <glyph glyph-name="FL00CCh" unicode="&#xcc;" horiz-adv-x="607" 
d="M543 117l-38 -117h-456l38 117h165l161 495h129l-161 -495h162zM424 645v1h-164l38 116h456l-38 -116h-163v-1h-129zM628 819l-5 -3q-15 -11 -26.5 -13t-23.5 -2q-26 0 -35 16l-56 75q-11 14 -2 41q11 32 38 52l12 11q25 19 53 19q26 0 38 -16l49 -81q11 -14 2 -40
q-5 -14 -15 -29.5t-29 -29.5z" />
    <glyph glyph-name="FL00CDh" unicode="&#xcd;" horiz-adv-x="607" 
d="M89 117h162l161 495h129l-161 -495h165l-38 -117h-456zM552 646v-1h-129v1h-163l38 116h456l-38 -116h-164zM460 819q-10 14 -10.5 29.5t4.5 29.5q10 27 28 40l103 81q19 16 48 16q28 0 41 -19l4 -11q14 -23 4 -52q-9 -28 -28 -41l-106 -75q-16 -16 -45 -16q-12 0 -22 2
t-18 13z" />
    <glyph glyph-name="FL00D7h" unicode="&#xce;" horiz-adv-x="607" 
d="M51 0l38 117h162l161 495h129l-161 -495h165l-38 -117h-456zM423 645v1h-163l38 116h456l-38 -116h-164v-1h-129zM589 800l-10 122l-90 -122h-75l144 207h98l7 -207h-74z" />
    <glyph glyph-name="FL00CFh" unicode="&#xcf;" horiz-adv-x="607" 
d="M251 117l161 495h129l-161 -495h165l-38 -117h-456l38 117h162zM423 645v1h-163l38 116h456l-38 -116h-164v-1h-129zM647 814h-5q-24 0 -35.5 14t-11.5 32q-2 14 6 31t22.5 31t33 24t37.5 10l13 1q13 0 23 -7t15.5 -17.5t6.5 -23t-3 -24.5q-4 -11 -13 -23.5t-22.5 -23
t-30.5 -17.5t-36 -7zM447 814h-5q-24 0 -35.5 14t-11.5 32q-2 14 6 31t22.5 31t33 24t37.5 10l13 1q13 0 23 -7t15.5 -17.5t6.5 -23t-3 -24.5q-4 -11 -13 -23.5t-22.5 -23t-30.5 -17.5t-36 -7z" />
    <glyph glyph-name="FL00D0h" unicode="&#xd0;" horiz-adv-x="769" 
d="M194 444h92l55 168h130l-55 -168h97l-37 -116h-97l-69 -211h270l161 495h127l-176 -541q-3 -11 -14 -23.5t-25.5 -23t-29.5 -17.5t-25 -7h-456l107 328h-92zM482 646v-1h-130l38 118h447q12 0 24 -6.5t20.5 -17t12.5 -23t0 -25.5l-15 -46h-127v1h-270z" />
    <glyph glyph-name="FL00D1h" unicode="&#xd1;" horiz-adv-x="675" 
d="M179 0h-129l199 612h129zM575 0h-126l199 612h126zM798 686l-13 -41h-126v1h-270v-1h-129l38 117h455l8 -1q23 -8 34 -29t3 -46zM575 795l-9 125l-90 -122h-75l145 207h98l9 -125l90 122h75l-145 -207h-98z" />
    <glyph glyph-name="FL00D2h" unicode="&#xd2;" horiz-adv-x="677" 
d="M218 117h270l161 495h127l-176 -541q-3 -11 -14 -23.5t-25.5 -23t-29.5 -17.5t-25 -7h-382q-1 0 -4.5 1t-5.5 1q-25 6 -35.5 30t-1.5 50l172 530h130zM660 645v1h-270v-1h-130l12 37q4 15 15.5 29t27 25.5t32.5 18.5t31 7h367q12 0 24 -6.5t20.5 -16.5t12.5 -23t0 -25
l-15 -46h-127zM657 814l-4 -3q-15 -11 -26.5 -13t-23.5 -2q-28 0 -35 16l-57 75q-11 15 -1 41q9 30 37 52l12 11q25 19 53 19t38 -16l50 -81q10 -12 2 -40q-5 -14 -15 -29.5t-30 -29.5z" />
    <glyph glyph-name="FL00D3h" unicode="&#xd3;" horiz-adv-x="677" 
d="M514 2q-2 0 -6.5 -1t-5.5 -1h-382q-11 0 -21 7t-17 17.5t-10 23t0 23.5l176 541h127l-161 -495h270l161 495h130l-172 -530q-10 -26 -35 -50t-54 -30zM386 646v-1h-127l15 46q4 12 16 25t27.5 23t31.5 16.5t28 6.5h367q15 0 27 -7t19 -18.5t9.5 -25.5t-1.5 -29l-12 -37
h-130v1h-270zM497 814q-9 14 -9.5 29.5t4.5 29.5q8 26 28 40l102 81q22 16 48 16q28 0 41 -19l4 -11q14 -20 5 -52q-10 -28 -29 -41l-105 -75q-19 -16 -45 -16q-12 0 -22 2t-18 13z" />
    <glyph glyph-name="FL00D4h" unicode="&#xd4;" horiz-adv-x="677" 
d="M218 117h270l161 495h127l-176 -541q-3 -11 -14 -23.5t-25.5 -23t-29.5 -17.5t-25 -7h-382q-1 0 -4.5 1t-5.5 1q-25 6 -35.5 30t-1.5 50l172 530h130zM660 645v1h-270v-1h-130l12 37q4 15 15.5 29t27 25.5t32.5 18.5t31 7h367q12 0 24 -6.5t20.5 -16.5t12.5 -23t0 -25
l-15 -46h-127zM621 798l-10 122l-90 -122h-75l145 207h98l6 -207h-74z" />
    <glyph glyph-name="FL00D5h" unicode="&#xd5;" horiz-adv-x="677" 
d="M218 117h270l161 495h127l-176 -541q-3 -11 -14 -23.5t-25.5 -23t-29.5 -17.5t-25 -7h-382q-1 0 -4.5 1t-5.5 1q-25 6 -35.5 30t-1.5 50l172 530h130zM802 691l-15 -46h-127v1h-270v-1h-130l12 37q4 15 15.5 29t27 25.5t32.5 18.5t31 7h367q12 0 24 -6.5t20.5 -16.5
t12.5 -23t0 -25zM583 796l-10 125l-89 -122h-75l144 207h98l9 -125l90 122h75l-144 -207h-98z" />
    <glyph glyph-name="FL00D6h" unicode="&#xd6;" horiz-adv-x="677" 
d="M218 117h270l161 495h127l-176 -541q-3 -11 -14 -23.5t-25.5 -23t-29.5 -17.5t-25 -7h-382q-1 0 -4.5 1t-5.5 1q-25 6 -35.5 30t-1.5 50l172 530h130zM660 645v1h-270v-1h-130l12 37q4 15 15.5 29t27 25.5t32.5 18.5t31 7h367q12 0 24 -6.5t20.5 -16.5t12.5 -23t0 -25
l-15 -46h-127zM676 815h-5q-24 0 -36 14t-12 32q-2 14 6 31t22.5 31t33 24t37.5 10l13 1q13 0 23 -7t15.5 -17.5t6.5 -23t-3 -24.5q-4 -11 -13 -23.5t-22 -23t-30 -17.5t-36 -7zM476 815h-5q-24 0 -36 14t-12 32q-2 14 6 31t22.5 31t33 24t37.5 10l13 1q13 0 23 -7
t15.5 -17.5t6.5 -23t-3 -24.5q-4 -11 -13 -23.5t-22 -23t-30 -17.5t-36 -7z" />
    <glyph glyph-name="FL0302h" unicode="&#xd7;" horiz-adv-x="456" 
d="M115 199l178 200l1 3l-34 178h74l23 -107l90 107h74l-148 -178l-1 -3l49 -200h-80l-31 131l-115 -131h-80z" />
    <glyph glyph-name="FL00D8h" unicode="&#xd8;" horiz-adv-x="677" 
d="M114 2q-25 6 -35.5 30t-1.5 50l172 530h130l-110 -337l286 337h221l-176 -541q-3 -11 -14 -23.5t-25.5 -23t-29.5 -17.5t-25 -7h-382q-1 0 -4.5 1t-5.5 1zM584 646h-194v-1h-130l12 37q4 15 15.5 29t27 25.5t32.5 18.5t31 7h367q12 0 24 -6.5t20.5 -16.5t12.5 -23t0 -25
l-15 -46h-204zM629 550l-369 -433h228z" />
    <glyph glyph-name="FL00D9h" unicode="&#xd9;" horiz-adv-x="675" 
d="M214 117h270l161 495h129l-176 -541q-3 -11 -14 -23.5t-25.5 -23t-29.5 -17.5t-25 -7h-383q-1 0 -4.5 1t-5.5 1q-22 8 -33 29t-3 46l174 535h126zM657 814l-4 -3q-15 -11 -26.5 -13t-23.5 -2q-28 0 -35 16l-57 75q-11 15 -1 41q9 30 37 52l12 11q25 19 53 19t38 -16
l50 -81q10 -12 2 -40q-5 -14 -15 -29.5t-30 -29.5zM656 645l38 118h129l-38 -118h-129zM424 763l-38 -118h-126l38 118h126z" />
    <glyph glyph-name="FL00DAh" unicode="&#xda;" horiz-adv-x="675" 
d="M111 2q-22 8 -33 29t-3 46l174 535h126l-161 -495h270l161 495h129l-176 -541q-3 -11 -14 -23.5t-25.5 -23t-29.5 -17.5t-25 -7h-383q-1 0 -4.5 1t-5.5 1zM497 814q-9 14 -9.5 29.5t4.5 29.5q8 26 28 40l102 81q22 16 48 16q28 0 41 -19l4 -11q14 -20 5 -52
q-10 -28 -29 -41l-105 -75q-19 -16 -45 -16q-12 0 -22 2t-18 13zM823 763l-38 -118h-129l38 118h129zM298 763h126l-38 -118h-126z" />
    <glyph glyph-name="FL00DBh" unicode="&#xdb;" horiz-adv-x="675" 
d="M214 117h270l161 495h129l-176 -541q-3 -11 -14 -23.5t-25.5 -23t-29.5 -17.5t-25 -7h-383q-1 0 -4.5 1t-5.5 1q-22 8 -33 29t-3 46l174 535h126zM621 798l-10 122l-90 -122h-75l145 207h98l6 -207h-74zM656 645l38 118h129l-38 -118h-129zM424 763l-38 -118h-126l38 118
h126z" />
    <glyph glyph-name="FL00DCh" unicode="&#xdc;" horiz-adv-x="675" 
d="M214 117h270l161 495h129l-176 -541q-3 -11 -14 -23.5t-25.5 -23t-29.5 -17.5t-25 -7h-383q-1 0 -4.5 1t-5.5 1q-22 8 -33 29t-3 46l174 535h126zM476 815h-5q-24 0 -36 14t-12 32q-2 14 6 31t22.5 31t33 24t37.5 10l13 1q13 0 23 -7t15.5 -17.5t6.5 -23t-3 -24.5
q-4 -11 -13 -23.5t-22 -23t-30 -17.5t-36 -7zM676 815h-5q-24 0 -36 14t-12 32q-2 14 6 31t22.5 31t33 24t37.5 10l13 1q13 0 23 -7t15.5 -17.5t6.5 -23t-3 -24.5q-4 -11 -13 -23.5t-22 -23t-30 -17.5t-36 -7zM656 645l38 118h129l-38 -118h-129zM424 763l-38 -118h-126
l38 118h126z" />
    <glyph glyph-name="FL00DDh" unicode="&#xdd;" horiz-adv-x="647" 
d="M118 115h339l67 204h-287q-13 0 -25.5 6.5t-21.5 17t-13 23.5t1 27l71 219h126l-57 -174h242l57 174h129l-175 -538q-4 -12 -15.5 -25t-25.5 -24t-28.5 -18t-25.5 -7h-395zM497 814q-9 14 -9.5 29.5t4.5 29.5q8 26 28 40l102 81q22 16 48 16q28 0 41 -19l4 -11
q14 -20 5 -52q-10 -28 -29 -41l-105 -75q-19 -16 -45 -16q-12 0 -22 2t-18 13zM795 763l-38 -118h-129l38 118h129zM424 762l-38 -117h-126l38 117h126z" />
    <glyph glyph-name="FL00DEh" unicode="&#xde;" horiz-adv-x="662" 
d="M50 0l199 612h129l-3 -8h306q10 0 21.5 -6.5t20 -16.5t12.5 -23t0 -25l-92 -285q-4 -11 -15.5 -24t-25.5 -24t-29 -18.5t-25 -7.5h-312l-57 -174h-129zM338 488l-66 -201h256l66 201h-256zM260 645l38 118h129l-38 -118h-129z" />
    <glyph glyph-name="FL00DFh" unicode="&#xdf;" horiz-adv-x="663" 
d="M705 442q-2 -4 -7.5 -12.5t-12.5 -17.5t-14 -16t-11 -8q1 -3 3.5 -9.5t5 -14.5t4 -15t0.5 -10l-87 -268q-4 -12 -16.5 -25t-27.5 -23t-30.5 -16.5t-25.5 -6.5h-246l38 116h197l70 217h-197l36 111h195l55 168h126zM4 -142l245 754h131l-245 -754h-131zM260 645l38 117
h435q10 0 21 -6.5t19.5 -16.5t12.5 -23t0 -25l-15 -46h-126v1h-254v-1h-131z" />
    <glyph glyph-name="FL00E0h" unicode="&#xe0;" horiz-adv-x="658" 
d="M269 445h307l54 167h127l-199 -612h-436q-13 0 -23 8t-16.5 20t-8.5 26t2 26l93 285q4 12 15.5 26t26 26t30 20t28.5 8zM641 645v1h-366l38 116h413q12 0 24 -6.5t20.5 -16.5t12 -23.5t-0.5 -26.5l-14 -44h-127zM538 328h-251l-69 -211h251zM657 814l-4 -3
q-15 -11 -26.5 -13t-23.5 -2q-28 0 -35 16l-57 75q-11 15 -1 41q9 30 37 52l12 11q25 19 53 19t38 -16l50 -81q10 -12 2 -40q-5 -14 -15 -29.5t-30 -29.5z" />
    <glyph glyph-name="FL00E1h" unicode="&#xe1;" horiz-adv-x="658" 
d="M576 445l54 167h127l-199 -612h-436q-13 0 -23 8t-16.5 20t-8.5 26t2 26l93 285q4 12 15.5 26t26 26t30 20t28.5 8h307zM782 689l-14 -44h-127v1h-366l38 116h413q12 0 24 -6.5t20.5 -16.5t12 -23.5t-0.5 -26.5zM287 328l-69 -211h251l69 211h-251zM497 814
q-9 14 -9.5 29.5t4.5 29.5q8 26 28 40l102 81q22 16 48 16q28 0 41 -19l4 -11q14 -20 5 -52q-10 -28 -29 -41l-105 -75q-19 -16 -45 -16q-12 0 -22 2t-18 13z" />
    <glyph glyph-name="FL00E2h" unicode="&#xe2;" horiz-adv-x="658" 
d="M269 445h307l54 167h127l-199 -612h-436q-13 0 -23 8t-16.5 20t-8.5 26t2 26l93 285q4 12 15.5 26t26 26t30 20t28.5 8zM641 645v1h-366l38 116h413q12 0 24 -6.5t20.5 -16.5t12 -23.5t-0.5 -26.5l-14 -44h-127zM538 328h-251l-69 -211h251zM617 800l-10 122l-90 -122
h-75l144 207h98l7 -207h-74z" />
    <glyph glyph-name="FL00E3h" unicode="&#xe3;" horiz-adv-x="658" 
d="M576 445l54 167h127l-199 -612h-436q-13 0 -23 8t-16.5 20t-8.5 26t2 26l93 285q4 12 15.5 26t26 26t30 20t28.5 8h307zM782 689l-14 -44h-127v1h-366l38 116h413q12 0 24 -6.5t20.5 -16.5t12 -23.5t-0.5 -26.5zM287 328l-69 -211h251l69 211h-251zM575 795l-9 125
l-90 -122h-75l145 207h98l9 -125l90 122h75l-145 -207h-98z" />
    <glyph glyph-name="FL00E4h" unicode="&#xe4;" horiz-adv-x="658" 
d="M269 445h307l54 167h127l-199 -612h-436q-13 0 -23 8t-16.5 20t-8.5 26t2 26l93 285q4 12 15.5 26t26 26t30 20t28.5 8zM641 645v1h-366l38 116h413q12 0 24 -6.5t20.5 -16.5t12 -23.5t-0.5 -26.5l-14 -44h-127zM538 328h-251l-69 -211h251zM668 814h-5q-24 0 -35.5 14
t-11.5 32q-2 14 6 31t22.5 31t33 24t37.5 10l13 1q13 0 23 -7t15.5 -17.5t6.5 -23t-3 -24.5q-4 -11 -13 -23.5t-22.5 -23t-30.5 -17.5t-36 -7zM468 814h-5q-24 0 -35.5 14t-11.5 32q-2 14 6 31t22.5 31t33 24t37.5 10l13 1q13 0 23 -7t15.5 -17.5t6.5 -23t-3 -24.5
q-4 -11 -13 -23.5t-22.5 -23t-30.5 -17.5t-36 -7z" />
    <glyph glyph-name="FL00E5h" unicode="&#xe5;" horiz-adv-x="658" 
d="M269 445h307l54 167h127l-199 -612h-436q-13 0 -23 8t-16.5 20t-8.5 26t2 26l93 285q4 12 15.5 26t26 26t30 20t28.5 8zM641 645v1h-366l38 116h413q12 0 24 -6.5t20.5 -16.5t12 -23.5t-0.5 -26.5l-14 -44h-127zM538 328h-251l-69 -211h251zM570 812h-5q-16 0 -26.5 6.5
t-16 17t-5.5 22.5q0 13 4 25t14 24.5t23 23t28 17t30 6.5l13 1q13 0 23 -7t15.5 -17.5t6.5 -23t-3 -24.5q-4 -11 -13 -23.5t-22 -23t-30 -17.5t-36 -7z" />
    <glyph glyph-name="FL00E6h" unicode="&#xe6;" horiz-adv-x="987" 
d="M269 445h305l54 167h129l-54 -167h318l-38 -116h-318l-70 -214h329l-37 -115h-765q-13 0 -23 8t-16.5 20t-8.5 26t2 26l93 285q4 12 15.5 26t26 26t30 20t28.5 8zM1135 762l-38 -116h-329v-1h-129v1h-364l38 116h822zM287 328l-69 -211h249l69 211h-249z" />
    <glyph glyph-name="FL00E7h" unicode="&#xe7;" 
d="M119 -151q-10 14 -10.5 29.5t4.5 29.5q10 27 28 40l66 52h-85q-2 0 -6.5 1t-6.5 3q-23 12 -31.5 33.5t1.5 50.5l170 524h130l-162 -497h326l-37 -115h-94l-205 -153q-16 -16 -45 -16q-12 0 -22 2t-18 13zM260 645l9 29q5 15 16.5 31t26.5 28.5t32 20.5t34 8h376l-38 -116
h-326v-1h-130z" />
    <glyph glyph-name="FL00E8h" unicode="&#xe8;" horiz-adv-x="608" 
d="M323 445h319l-38 -116h-319l-70 -214h330l-37 -115h-386q-11 0 -21 7t-17.5 17.5t-10.5 23t0 23.5l176 541h128zM378 762h378l-38 -116h-330v-1h-128l14 44q4 13 16 26.5t27 23.5t31.5 16.5t29.5 6.5zM657 814l-4 -3q-15 -11 -26.5 -13t-23.5 -2q-28 0 -35 16l-57 75
q-11 15 -1 41q9 30 37 52l12 11q25 19 53 19t38 -16l50 -81q10 -12 2 -40q-5 -14 -15 -29.5t-30 -29.5z" />
    <glyph glyph-name="FL00E9h" unicode="&#xe9;" horiz-adv-x="608" 
d="M122 0q-11 0 -21 7t-17.5 17.5t-10.5 23t0 23.5l176 541h128l-54 -167h319l-38 -116h-319l-70 -214h330l-37 -115h-386zM388 646v-1h-128l14 44q4 13 16 26.5t27 23.5t31.5 16.5t29.5 6.5h378l-38 -116h-330zM497 814q-9 14 -9.5 29.5t4.5 29.5q8 26 28 40l102 81
q22 16 48 16q28 0 41 -19l4 -11q14 -20 5 -52q-10 -28 -29 -41l-105 -75q-19 -16 -45 -16q-12 0 -22 2t-18 13z" />
    <glyph glyph-name="FL00EAh" unicode="&#xea;" horiz-adv-x="608" 
d="M323 445h319l-38 -116h-319l-70 -214h330l-37 -115h-386q-11 0 -21 7t-17.5 17.5t-10.5 23t0 23.5l176 541h128zM378 762h378l-38 -116h-330v-1h-128l14 44q4 13 16 26.5t27 23.5t31.5 16.5t29.5 6.5zM605 799l-11 122l-89 -122h-75l144 207h98l7 -207h-74z" />
    <glyph glyph-name="FL00EBh" unicode="&#xeb;" horiz-adv-x="608" 
d="M323 445h319l-38 -116h-319l-70 -214h330l-37 -115h-386q-11 0 -21 7t-17.5 17.5t-10.5 23t0 23.5l176 541h128zM718 646h-330v-1h-128l14 44q4 13 16 26.5t27 23.5t31.5 16.5t29.5 6.5h378zM666 813h-5q-16 0 -26.5 6.5t-16 17t-5.5 22.5q0 13 4 25t14 24.5t23 23t28 17
t30 6.5l14 1q13 0 22.5 -7t15 -17.5t6.5 -23t-3 -24.5q-3 -11 -12 -23.5t-22.5 -23t-30.5 -17.5t-36 -7zM466 813h-5q-16 0 -26.5 6.5t-16 17t-5.5 22.5q0 13 4 25t14 24.5t23 23t28 17t30 6.5l14 1q13 0 22.5 -7t15 -17.5t6.5 -23t-3 -24.5q-3 -11 -12 -23.5t-22.5 -23
t-30.5 -17.5t-36 -7z" />
    <glyph glyph-name="FL00ECh" unicode="&#xec;" horiz-adv-x="279" 
d="M176 0h-129l199 612h129zM457 814l-4 -3q-15 -11 -26.5 -13t-23.5 -2q-28 0 -35 16l-57 75q-11 15 -1 41q9 30 37 52l12 11q25 19 53 19t38 -16l50 -81q10 -12 2 -40q-5 -14 -15 -29.5t-30 -29.5zM424 763l-38 -118h-129l38 118h129z" />
    <glyph glyph-name="FL00EDh" unicode="&#xed;" horiz-adv-x="279" 
d="M179 0h-129l199 612h129zM297 814q-9 14 -9.5 29.5t4.5 29.5q8 26 28 40l102 81q22 16 48 16q28 0 41 -19l4 -11q14 -20 5 -52q-10 -28 -29 -41l-105 -75q-19 -16 -45 -16q-12 0 -22 2t-18 13zM298 763h129l-38 -118h-129z" />
    <glyph glyph-name="FL00EEh" unicode="&#xee;" horiz-adv-x="279" 
d="M50 0l199 612h129l-199 -612h-129zM423 801l-10 122l-90 -122h-75l145 207h98l6 -207h-74zM260 645l38 118h129l-38 -118h-129z" />
    <glyph glyph-name="FL00EFh" unicode="&#xef;" horiz-adv-x="279" 
d="M50 0l199 612h129l-199 -612h-129zM481 814h-5q-24 0 -35.5 14t-11.5 32q-2 14 6 31t22.5 31t33 24t37.5 10l13 1q13 0 23 -7t15.5 -17.5t6.5 -23t-3 -24.5q-4 -11 -13 -23.5t-22.5 -23t-30.5 -17.5t-36 -7zM281 814h-5q-24 0 -35.5 14t-11.5 32q-2 14 6 31t22.5 31
t33 24t37.5 10l13 1q13 0 23 -7t15.5 -17.5t6.5 -23t-3 -24.5q-4 -11 -13 -23.5t-22.5 -23t-30.5 -17.5t-36 -7zM260 645l38 118h129l-38 -118h-129z" />
    <glyph glyph-name="FL00F0h" unicode="&#xf0;" horiz-adv-x="700" 
d="M476 599h95l4 13h131l-4 -13h93l-38 -116h-94l-128 -395q-11 -33 -37.5 -55t-59.5 -33h-311q-11 0 -22.5 6.5t-19.5 16.5t-12 23t0 25l98 300q3 10 14.5 23t26 24t29.5 18.5t26 7.5h254l13 39h-96zM260 645l37 115h376q16 0 28.5 -8t19.5 -20.5t8 -28.5t-4 -31l-8 -27
h-457zM285 329l-69 -213h198l69 213h-198z" />
    <glyph glyph-name="FL00F1h" unicode="&#xf1;" horiz-adv-x="647" 
d="M179 0h-129l199 612h200l53 -355l115 355h129l-199 -612h-129l-73 511zM571 796l-10 125l-89 -122h-75l144 207h98l9 -125l90 122h75l-144 -207h-98zM298 763h129l17 -118h-184zM795 763l-38 -118h-129l38 118h129z" />
    <glyph glyph-name="FL00F2h" unicode="&#xf2;" horiz-adv-x="677" 
d="M218 117h270l161 495h127l-176 -541q-3 -11 -14 -23.5t-25.5 -23t-29.5 -17.5t-25 -7h-382q-1 0 -4.5 1t-5.5 1q-25 6 -35.5 30t-1.5 50l172 530h130zM660 645v1h-270v-1h-130l12 37q4 15 15.5 29t27 25.5t32.5 18.5t31 7h367q12 0 24 -6.5t20.5 -16.5t12.5 -23t0 -25
l-15 -46h-127zM657 814l-4 -3q-15 -11 -26.5 -13t-23.5 -2q-28 0 -35 16l-57 75q-11 15 -1 41q9 30 37 52l12 11q25 19 53 19t38 -16l50 -81q10 -12 2 -40q-5 -14 -15 -29.5t-30 -29.5z" />
    <glyph glyph-name="FL00F3h" unicode="&#xf3;" horiz-adv-x="677" 
d="M514 2q-2 0 -6.5 -1t-5.5 -1h-382q-11 0 -21 7t-17 17.5t-10 23t0 23.5l176 541h127l-161 -495h270l161 495h130l-172 -530q-10 -26 -35 -50t-54 -30zM386 646v-1h-127l15 46q4 12 16 25t27.5 23t31.5 16.5t28 6.5h367q15 0 27 -7t19 -18.5t9.5 -25.5t-1.5 -29l-12 -37
h-130v1h-270zM497 814q-9 14 -9.5 29.5t4.5 29.5q8 26 28 40l102 81q22 16 48 16q28 0 41 -19l4 -11q14 -20 5 -52q-10 -28 -29 -41l-105 -75q-19 -16 -45 -16q-12 0 -22 2t-18 13z" />
    <glyph glyph-name="FL00F4h" unicode="&#xf4;" horiz-adv-x="677" 
d="M218 117h270l161 495h127l-176 -541q-3 -11 -14 -23.5t-25.5 -23t-29.5 -17.5t-25 -7h-382q-1 0 -4.5 1t-5.5 1q-25 6 -35.5 30t-1.5 50l172 530h130zM660 645v1h-270v-1h-130l12 37q4 15 15.5 29t27 25.5t32.5 18.5t31 7h367q12 0 24 -6.5t20.5 -16.5t12.5 -23t0 -25
l-15 -46h-127zM621 798l-10 122l-90 -122h-75l145 207h98l6 -207h-74z" />
    <glyph glyph-name="FL00F5h" unicode="&#xf5;" horiz-adv-x="677" 
d="M218 117h270l161 495h127l-176 -541q-3 -11 -14 -23.5t-25.5 -23t-29.5 -17.5t-25 -7h-382q-1 0 -4.5 1t-5.5 1q-25 6 -35.5 30t-1.5 50l172 530h130zM802 691l-15 -46h-127v1h-270v-1h-130l12 37q4 15 15.5 29t27 25.5t32.5 18.5t31 7h367q12 0 24 -6.5t20.5 -16.5
t12.5 -23t0 -25zM583 796l-10 125l-89 -122h-75l144 207h98l9 -125l90 122h75l-144 -207h-98z" />
    <glyph glyph-name="FL00F6h" unicode="&#xf6;" horiz-adv-x="677" 
d="M218 117h270l161 495h127l-176 -541q-3 -11 -14 -23.5t-25.5 -23t-29.5 -17.5t-25 -7h-382q-1 0 -4.5 1t-5.5 1q-25 6 -35.5 30t-1.5 50l172 530h130zM660 645v1h-270v-1h-130l12 37q4 15 15.5 29t27 25.5t32.5 18.5t31 7h367q12 0 24 -6.5t20.5 -16.5t12.5 -23t0 -25
l-15 -46h-127zM676 815h-5q-24 0 -36 14t-12 32q-2 14 6 31t22.5 31t33 24t37.5 10l13 1q13 0 23 -7t15.5 -17.5t6.5 -23t-3 -24.5q-4 -11 -13 -23.5t-22 -23t-30 -17.5t-36 -7zM476 815h-5q-24 0 -36 14t-12 32q-2 14 6 31t22.5 31t33 24t37.5 10l13 1q13 0 23 -7
t15.5 -17.5t6.5 -23t-3 -24.5q-4 -11 -13 -23.5t-22 -23t-30 -17.5t-36 -7z" />
    <glyph glyph-name="FL00F7h" unicode="&#xf7;" horiz-adv-x="651" 
d="M157 329l38 117h501l-38 -117h-501zM457 464h-5q-24 0 -36 14t-12 32q-2 14 6 31t22.5 31.5t33 24.5t37.5 10h13q13 0 23 -6.5t15.5 -17t6.5 -23.5t-3 -25q-4 -11 -13 -23.5t-22 -23t-30 -17.5t-36 -7zM358 162h-5q-24 0 -36 14t-12 32q-2 14 6 31t22.5 31t33 24t37.5 10
l13 1q13 0 23 -7t15.5 -17.5t6.5 -23t-3 -24.5q-4 -11 -13 -23.5t-22 -23t-30 -17.5t-36 -7z" />
    <glyph glyph-name="FL00F8h" unicode="&#xf8;" horiz-adv-x="677" 
d="M114 2q-25 6 -35.5 30t-1.5 50l172 530h130l-110 -337l286 337h221l-176 -541q-3 -11 -14 -23.5t-25.5 -23t-29.5 -17.5t-25 -7h-382q-1 0 -4.5 1t-5.5 1zM584 646h-194v-1h-130l12 37q4 15 15.5 29t27 25.5t32.5 18.5t31 7h367q12 0 24 -6.5t20.5 -16.5t12.5 -23t0 -25
l-15 -46h-204zM629 550l-369 -433h228z" />
    <glyph glyph-name="FL00F9h" unicode="&#xf9;" horiz-adv-x="675" 
d="M214 117h270l161 495h129l-176 -541q-3 -11 -14 -23.5t-25.5 -23t-29.5 -17.5t-25 -7h-383q-1 0 -4.5 1t-5.5 1q-22 8 -33 29t-3 46l174 535h126zM657 814l-4 -3q-15 -11 -26.5 -13t-23.5 -2q-28 0 -35 16l-57 75q-11 15 -1 41q9 30 37 52l12 11q25 19 53 19t38 -16
l50 -81q10 -12 2 -40q-5 -14 -15 -29.5t-30 -29.5zM656 645l38 118h129l-38 -118h-129zM424 763l-38 -118h-126l38 118h126z" />
    <glyph glyph-name="FL00FAh" unicode="&#xfa;" horiz-adv-x="675" 
d="M111 2q-22 8 -33 29t-3 46l174 535h126l-161 -495h270l161 495h129l-176 -541q-3 -11 -14 -23.5t-25.5 -23t-29.5 -17.5t-25 -7h-383q-1 0 -4.5 1t-5.5 1zM497 814q-9 14 -9.5 29.5t4.5 29.5q8 26 28 40l102 81q22 16 48 16q28 0 41 -19l4 -11q14 -20 5 -52
q-10 -28 -29 -41l-105 -75q-19 -16 -45 -16q-12 0 -22 2t-18 13zM823 763l-38 -118h-129l38 118h129zM298 763h126l-38 -118h-126z" />
    <glyph glyph-name="FL00FBh" unicode="&#xfb;" horiz-adv-x="675" 
d="M214 117h270l161 495h129l-176 -541q-3 -11 -14 -23.5t-25.5 -23t-29.5 -17.5t-25 -7h-383q-1 0 -4.5 1t-5.5 1q-22 8 -33 29t-3 46l174 535h126zM621 798l-10 122l-90 -122h-75l145 207h98l6 -207h-74zM656 645l38 118h129l-38 -118h-129zM424 763l-38 -118h-126l38 118
h126z" />
    <glyph glyph-name="FL00FCh" unicode="&#xfc;" horiz-adv-x="675" 
d="M214 117h270l161 495h129l-176 -541q-3 -11 -14 -23.5t-25.5 -23t-29.5 -17.5t-25 -7h-383q-1 0 -4.5 1t-5.5 1q-22 8 -33 29t-3 46l174 535h126zM476 815h-5q-24 0 -36 14t-12 32q-2 14 6 31t22.5 31t33 24t37.5 10l13 1q13 0 23 -7t15.5 -17.5t6.5 -23t-3 -24.5
q-4 -11 -13 -23.5t-22 -23t-30 -17.5t-36 -7zM676 815h-5q-24 0 -36 14t-12 32q-2 14 6 31t22.5 31t33 24t37.5 10l13 1q13 0 23 -7t15.5 -17.5t6.5 -23t-3 -24.5q-4 -11 -13 -23.5t-22 -23t-30 -17.5t-36 -7zM656 645l38 118h129l-38 -118h-129zM424 763l-38 -118h-126
l38 118h126z" />
    <glyph glyph-name="FL00FDh" unicode="&#xfd;" horiz-adv-x="647" 
d="M118 115h339l67 204h-287q-13 0 -25.5 6.5t-21.5 17t-13 23.5t1 27l71 219h126l-57 -174h242l57 174h129l-175 -538q-4 -12 -15.5 -25t-25.5 -24t-28.5 -18t-25.5 -7h-395zM497 814q-9 14 -9.5 29.5t4.5 29.5q8 26 28 40l102 81q22 16 48 16q28 0 41 -19l4 -11
q14 -20 5 -52q-10 -28 -29 -41l-105 -75q-19 -16 -45 -16q-12 0 -22 2t-18 13zM795 763l-38 -118h-129l38 118h129zM424 762l-38 -117h-126l38 117h126z" />
    <glyph glyph-name="FL00FEh" unicode="&#xfe;" horiz-adv-x="662" 
d="M50 0l199 612h129l-3 -8h306q10 0 21.5 -6.5t20 -16.5t12.5 -23t0 -25l-92 -285q-4 -11 -15.5 -24t-25.5 -24t-29 -18.5t-25 -7.5h-312l-57 -174h-129zM338 488l-66 -201h256l66 201h-256zM260 645l38 118h129l-38 -118h-129z" />
    <glyph glyph-name="FL00FFh" unicode="&#xff;" horiz-adv-x="647" 
d="M457 115l67 204h-287q-13 0 -25.5 6.5t-21.5 17t-13 23.5t1 27l71 219h126l-57 -174h242l57 174h129l-175 -538q-4 -12 -15.5 -25t-25.5 -24t-28.5 -18t-25.5 -7h-395l37 115h339zM462 818h-5q-24 0 -36 14t-12 32q-2 14 6 31t22.5 31t33 24t37.5 10l13 1q13 0 23 -7
t15.5 -17.5t6.5 -23t-3 -24.5q-4 -11 -13 -23.5t-22 -23t-30 -17.5t-36 -7zM662 818h-5q-24 0 -36 14t-12 32q-2 14 6 31t22.5 31t33 24t37.5 10l13 1q13 0 23 -7t15.5 -17.5t6.5 -23t-3 -24.5q-4 -11 -13 -23.5t-22 -23t-30 -17.5t-36 -7zM628 645l38 118h129l-38 -118
h-129zM260 645l38 117h126l-38 -117h-126z" />
    <glyph glyph-name="FL0152h" unicode="&#x152;" horiz-adv-x="938" 
d="M109 4q-23 12 -31.5 33.5t1.5 50.5l170 524h130l-162 -497h200l162 497h128l-54 -167h319l-38 -116h-319l-70 -214h330l-37 -115h-716q-2 0 -6.5 1t-6.5 3zM390 646v-1h-130l9 29q5 15 16.5 31t26.5 28.5t32 20.5t34 8h708l-38 -116h-330v-1h-128v1h-200z" />
    <glyph glyph-name="FL0153h" unicode="&#x153;" horiz-adv-x="938" 
d="M109 4q-23 12 -31.5 33.5t1.5 50.5l170 524h130l-162 -497h200l162 497h128l-54 -167h319l-38 -116h-319l-70 -214h330l-37 -115h-716q-2 0 -6.5 1t-6.5 3zM390 646v-1h-130l9 29q5 15 16.5 31t26.5 28.5t32 20.5t34 8h708l-38 -116h-330v-1h-128v1h-200z" />
    <glyph glyph-name="FL0160h" unicode="&#x160;" horiz-adv-x="663" 
d="M88 116h383l70 217h-309q-10 0 -20.5 7t-18 18t-11 24t0.5 24l67 206h129l-54 -167h309q10 0 20.5 -7t18 -18t11 -23.5t-0.5 -23.5l-98 -302q-4 -12 -16.5 -25t-27.5 -23t-30.5 -16.5t-25.5 -6.5h-435zM261 645l15 46q4 12 16 25t27 23t30.5 16.5t26.5 6.5h435l-38 -116
h-383v-1h-129zM585 1004l12 -122l88 122h75l-142 -207h-98l-13 207h78z" />
    <glyph glyph-name="FL0161h" unicode="&#x161;" horiz-adv-x="663" 
d="M88 116h383l70 217h-309q-10 0 -20.5 7t-18 18t-11 24t0.5 24l67 206h129l-54 -167h309q10 0 20.5 -7t18 -18t11 -23.5t-0.5 -23.5l-98 -302q-4 -12 -16.5 -25t-27.5 -23t-30.5 -16.5t-25.5 -6.5h-435zM261 645l15 46q4 12 16 25t27 23t30.5 16.5t26.5 6.5h435l-38 -116
h-383v-1h-129zM585 1004l12 -122l88 122h75l-142 -207h-98l-16 206z" />
    <glyph glyph-name="FL0178h" unicode="&#x178;" horiz-adv-x="647" 
d="M457 115l67 204h-287q-13 0 -25.5 6.5t-21.5 17t-13 23.5t1 27l71 219h126l-57 -174h242l57 174h129l-175 -538q-4 -12 -15.5 -25t-25.5 -24t-28.5 -18t-25.5 -7h-395l37 115h339zM462 818h-5q-24 0 -36 14t-12 32q-2 14 6 31t22.5 31t33 24t37.5 10l13 1q13 0 23 -7
t15.5 -17.5t6.5 -23t-3 -24.5q-4 -11 -13 -23.5t-22 -23t-30 -17.5t-36 -7zM662 818h-5q-24 0 -36 14t-12 32q-2 14 6 31t22.5 31t33 24t37.5 10l13 1q13 0 23 -7t15.5 -17.5t6.5 -23t-3 -24.5q-4 -11 -13 -23.5t-22 -23t-30 -17.5t-36 -7zM628 645l38 118h129l-38 -118
h-129zM260 645l38 117h126l-38 -117h-126z" />
    <glyph glyph-name="FL017Dh" unicode="&#x17d;" horiz-adv-x="607" 
d="M88 116l468 496h129l-465 -496h324l-38 -116h-456zM587 645l1 1h-327l38 116h456l-38 -116l-1 -1h-129zM570 1005l11 -122l89 122h75l-143 -207h-98l-17 207h83z" />
    <glyph glyph-name="FL017Eh" unicode="&#x17e;" horiz-adv-x="607" 
d="M88 116l468 496h129l-465 -496h324l-38 -116h-456zM587 645l1 1h-327l38 116h456l-38 -116l-1 -1h-129zM570 1005l11 -122l89 122h75l-143 -207h-98l-17 207h83z" />
    <glyph glyph-name="FL00A3h" unicode="&#x192;" horiz-adv-x="1489" 
d="M1495 326l-3 -3l-28 -33h-80l33 -64q1 -1 -1 -9l-2 -6q-10 -28 -40 -35l-83 16l-40 -96q-17 -18 -41 -18q-17 0 -36 8.5t-43 24.5l-117 -88l-46 -9l-39 49l-194 -81l-24 8l16 49l-232 -32l-23 16l22 40l-224 17l10 31l36 26l-134 23q-26 0 -17 32l68 41l-85 42l4 40
l102 15l-34 57l25 49l102 -9q37 115 77 115h5l89 -32q87 80 136 96l64 -48l136 54h68l7 -6l-16 -24l6 -8l187 32l60 -7l-24 -49h212l12 -17q-14 -41 -51 -47l164 -42l-3 -10q-14 -40 -78 -47q104 -37 97 -61zM1463 315l-4 15l-120 66l96 24h10l-4 16l-191 41l87 48h-239
l36 57l-241 -32l8 49l-16 7l-184 -73l-55 49l-127 -96q-7 -4 -22 -4q-29 0 -76 35l-54 -113l-112 8l-2 -33l37 -73l-116 -8l126 -72l-110 -41l199 -42l-87 -47l245 -9l-44 -56l234 40l17 -32l-20 -32l203 80l66 -48l120 98l103 -34l46 114l110 -17q3 6 5 8q8 26 -41 98z
M703 325q-48 -100 -94 -100q-7 -1 -13.5 -1.5t-12.5 -0.5q-43 0 -46 24q30 92 100 125q5 0 7 0.5t1 0.5h9q50 0 49 -48zM1034 231l-18 6q-5 33 -25 33q-21 0 -51 -33h-32q15 35 43 71t67 71q8 4 22 4q30 0 26 -45zM811 225q-39 0 -73 70l-23 -69l-25 -4l44 144l61 -91l37 99
l25 -8zM1182 230q-37 0 -73 71l-23 -70l-24 -2l44 142l59 -91l38 100l25 -8zM568 377l-14 -35q-5 2 -8 2.5t-8 0.5q-19 0 -48 -20q-33 -27 -43 -58q-9 -28 25 -28q19 0 31 4l-6 -25q-12 -2 -20.5 -4t-13.5 -2q-46 0 -41 63q2 7 2.5 10.5t2.5 8.5q21 67 141 83zM667 305
q3 11 0 16q-3 19 -23 19q-26 0 -60 -45q-1 -1 -4 -10q-12 -35 14 -35q16 0 45 12q20 20 28 43zM936 380l-53 -141l-42 -10l64 145zM437 374l-54 -141l-40 -11l63 146zM1309 371l-54 -105l-23 4l41 110zM1028 301l-4 48l-47 -48h51zM1246 222l-33 -22l-14 16l26 15z" />
    <glyph glyph-name="FL02C6h" unicode="&#x2c6;" horiz-adv-x="399" 
d="M395 677l-23 -32h-79l82 117h98l4 -117h-79zM305 555h-75l40 57h77zM405 555l-5 57h77l2 -57h-74z" />
    <glyph glyph-name="FL02DCh" unicode="&#x2dc;" horiz-adv-x="500" 
d="M376 765h98l9 -120h-84l-3 35l-26 -35h-78zM648 762l-82 -117h-79l86 117h75zM405 555l-4 57h142l-40 -57h-98zM306 558h-75l38 54h77z" />
    <glyph glyph-name="FL2013h" unicode="&#x2013;" horiz-adv-x="469" 
d="M195 445h319l-38 -116h-319z" />
    <glyph glyph-name="FL2014h" unicode="&#x2014;" horiz-adv-x="651" 
d="M195 446h501l-38 -117h-501z" />
    <glyph glyph-name="FL2018h" unicode="&#x2018;" horiz-adv-x="299" 
d="M273 468h-4q-16 0 -26.5 6.5t-16 16.5t-6 22t3.5 24l25 75h149l-24 -73q-3 -11 -12 -23.5t-22.5 -23t-30.5 -17.5t-36 -7zM260 645l15 46q4 12 14 25t23 23t28 16.5t30 6.5l13 1q27 0 38 -23t3 -47l-15 -48h-149z" />
    <glyph glyph-name="FL2019h" unicode="&#x2019;" horiz-adv-x="299" 
d="M273 468h-4q-16 0 -26.5 6.5t-16 16.5t-6 22t3.5 24l25 75h149l-24 -73q-3 -11 -12 -23.5t-22.5 -23t-30.5 -17.5t-36 -7zM260 645l15 46q4 12 14 25t23 23t28 16.5t30 6.5l13 1q27 0 38 -23t3 -47l-15 -48h-149z" />
    <glyph glyph-name="FL201Ah" unicode="&#x201a;" horiz-adv-x="299" 
d="M72 -152h-4q-16 0 -26.5 6.5t-16 16.5t-6 22t3.5 24l50 154q4 12 14 24.5t23 23t28 17t30 6.5l13 1q27 0 38 -23t4 -47l-50 -154q-4 -11 -13 -23.5t-22 -23t-30 -17.5t-36 -7z" />
    <glyph glyph-name="FL201Ch" unicode="&#x201c;" horiz-adv-x="496" 
d="M469 468h-4q-16 0 -26.5 6.5t-16 16.5t-6 22t3.5 24l25 75h150l-24 -73q-3 -11 -12 -23.5t-22.5 -23t-31 -17.5t-36.5 -7zM273 469h-4q-16 0 -26.5 6.5t-15.5 16.5t-5.5 22t3.5 24l24 74h149l-24 -72q-3 -11 -12 -23.5t-22.5 -23t-30.5 -17.5t-36 -7zM260 645l15 47
q4 12 14 24.5t23 23t28 17t30 6.5l13 1q27 0 38 -23t3 -47l-15 -49h-149zM456 645l15 46q4 12 14 25t23 23t28 16.5t30 6.5l14 1q13 0 22.5 -6.5t15 -16.5t6.5 -22.5t-3 -24.5l-15 -48h-150z" />
    <glyph glyph-name="FL201Dh" unicode="&#x201d;" horiz-adv-x="496" 
d="M469 468h-4q-16 0 -26.5 6.5t-16 16.5t-6 22t3.5 24l25 75h150l-24 -73q-3 -11 -12 -23.5t-22.5 -23t-31 -17.5t-36.5 -7zM273 469h-4q-16 0 -26.5 6.5t-15.5 16.5t-5.5 22t3.5 24l24 74h149l-24 -72q-3 -11 -12 -23.5t-22.5 -23t-30.5 -17.5t-36 -7zM260 645l15 47
q4 12 14 24.5t23 23t28 17t30 6.5l13 1q27 0 38 -23t3 -47l-15 -49h-149zM456 645l15 46q4 12 14 25t23 23t28 16.5t30 6.5l14 1q13 0 22.5 -6.5t15 -16.5t6.5 -22.5t-3 -24.5l-15 -48h-150z" />
    <glyph glyph-name="FL201Eh" unicode="&#x201e;" horiz-adv-x="494" 
d="M266 -152h-4q-15 0 -25.5 6.5t-16 16.5t-6.5 22t3 24l50 154q4 12 14 24.5t23.5 23t28.5 17t29 6.5l14 1q13 0 22.5 -6.5t15.5 -16.5t7 -22.5t-3 -24.5l-50 -154q-4 -11 -13 -23.5t-22.5 -23t-30.5 -17.5t-36 -7zM72 -152h-4q-16 0 -26.5 6.5t-16 16.5t-6 22t3.5 24
l50 154q4 12 14 24.5t23 23t28 17t30 6.5l13 1q27 0 38 -23t4 -47l-50 -154q-4 -11 -13 -23.5t-22 -23t-30 -17.5t-36 -7z" />
    <glyph glyph-name="FL2020h" unicode="&#x2020;" horiz-adv-x="469" 
d="M224 535h94l25 77h129l-25 -77h96l-38 -116h-96l-136 -419h-129l136 419h-94zM521 763l-38 -118h-129l38 118h129z" />
    <glyph glyph-name="FL2021h" unicode="&#x2021;" horiz-adv-x="469" 
d="M224 535h94l25 77h129l-25 -77h96l-38 -116h-96l-21 -64h96l-38 -117h-96l-77 -238h-129l77 238h-94l38 117h94l21 64h-94zM521 763l-38 -118h-129l38 118h129z" />
    <glyph glyph-name="FL2022h" unicode="&#x2022;" horiz-adv-x="420" 
d="M358 117h-270l161 495h270zM260 646h270v-1h-270v1z" />
    <glyph glyph-name="FL2026h" unicode="&#x2026;" horiz-adv-x="700" 
d="M122 0h-5q-16 0 -26.5 6.5t-16 17t-5.5 22.5q0 13 4 25t14 24.5t23 23t28 17t30 6.5l13 1q13 0 23 -7t15.5 -17.5t6.5 -23t-3 -24.5q-3 -11 -12 -23.5t-22.5 -23t-30.5 -17.5t-36 -7zM322 0h-5q-16 0 -26.5 6.5t-16 17t-5.5 22.5q0 13 4 25t14 24.5t23 23t28 17t30 6.5
l13 1q13 0 23 -7t15.5 -17.5t6.5 -23t-3 -24.5q-3 -11 -12 -23.5t-22.5 -23t-30.5 -17.5t-36 -7zM522 0h-5q-16 0 -26.5 6.5t-16 17t-5.5 22.5q0 13 4 25t14 24.5t23 23t28 17t30 6.5l13 1q13 0 23 -7t15.5 -17.5t6.5 -23t-3 -24.5q-3 -11 -12 -23.5t-22.5 -23t-30.5 -17.5
t-36 -7z" />
    <glyph glyph-name="FL2030h" unicode="&#x2030;" horiz-adv-x="1102" 
d="M471 1q-11 3 -17 14.5t-1 25.5l98 300q5 14 21.5 27t31.5 13h183q12 0 22.5 -11.5t5.5 -24.5l-101 -310q-2 -6 -7.5 -12t-12 -11t-13.5 -8.5t-13 -3.5h-191q-1 0 -2.5 0.5t-3.5 0.5zM770 1q-11 3 -17 14.5t-1 25.5l98 300q5 14 21.5 27t31.5 13h183q12 0 22.5 -11.5
t5.5 -24.5l-101 -310q-2 -6 -7.5 -12t-12 -11t-13.5 -8.5t-13 -3.5h-191q-1 0 -2.5 0.5t-3.5 0.5zM228 0h-109l537 612h107zM205 382q-12 3 -17.5 14.5t-0.5 25.5l62 190h65l-56 -173h135l56 173h63l-64 -196q-2 -6 -7.5 -12t-12 -11t-13.5 -8.5t-13 -3.5h-191
q-1 0 -2.5 0.5t-3.5 0.5zM909 323l-86 -265h135l86 265h-135zM610 323l-86 -265h135l86 265h-135zM344 704l-19 -59h-65l25 77q5 14 21.5 27t31.5 13h183q12 0 22 -11.5t6 -24.5l-26 -81h-63l19 59h-135zM788 762h107l-103 -117h-107z" />
    <glyph glyph-name="FL2039h" unicode="&#x2039;" horiz-adv-x="357" 
d="M365 336l-24 -74l-183 74l32 98l232 77l-24 -75l-139 -50z" />
    <glyph glyph-name="FL203Ah" unicode="&#x203a;" horiz-adv-x="357" 
d="M159 336l138 50l-105 50l24 75l182 -77l-32 -98l-231 -74z" />
    <glyph glyph-name="FL20ACh" unicode="&#x20ac;" horiz-adv-x="712" 
d="M221 527h105l28 85h130l-28 -85h216l-37 -116h-216l-22 -65h216l-37 -116h-216l-38 -115h327l-37 -115h-385q-2 0 -6 1t-6 3q-23 12 -32 33.5t1 50.5l46 142h-105l37 116h105l22 65h-105zM495 646v-1h-130l9 29q5 15 16.5 31t26.5 28.5t32 20.5t34 8h377l-38 -116h-327z
" />
    <glyph glyph-name="FL04E5h" unicode="&#x2122;" horiz-adv-x="1182" 
d="M509 284q-59 -131 -110 -131q-10 -1 -16.5 -2t-13.5 -1q-50 0 -50 33q39 120 119 162q7 4 11 4h8q58 0 52 -65zM875 161l-17 8q-6 42 -28 42t-58 -42h-36q34 92 133 186q13 7 25 7q34 0 25 -60zM626 153q-46 0 -78 92l-30 -92l-30 -5l58 190l64 -119l48 131l28 -11z
M1043 159q-44 0 -78 94l-30 -92l-27 -4l57 188l64 -118l49 129l25 -11zM362 353l-20 -46q-4 4 -18 4q-25 0 -55 -27q-38 -35 -51 -75q-12 -37 26 -37q28 0 35 4l-9 -32q-12 -6 -20.5 -7t-17.5 -1q-53 0 -41 83l3 13.5t3 11.5q28 88 165 109zM469 257q4 11 2 23q-6 24 -25 24
q-31 0 -72 -59l-5 -13q-15 -47 13 -47q17 0 54 19q14 13 21 26.5t12 26.5zM776 356l-70 -186l-46 -13l81 193zM213 350l-69 -186l-46 -16l80 194zM1194 345l-67 -138l-25 4l54 145zM874 253l-2 62l-55 -62h57zM1114 148l-38 -28l-15 23l31 18z" />
  </font>
</defs>
</svg>
