<?xml version="1.0" standalone="no"?>
<!DOCTYPE svg PUBLIC "-//W3C//DTD SVG 1.1//EN" "http://www.w3.org/Graphics/SVG/1.1/DTD/svg11.dtd" >
<svg xmlns="http://www.w3.org/2000/svg" xmlns:xlink="http://www.w3.org/1999/xlink" version="1.1">
<metadata></metadata>
<defs>
<font id="eternal_knight_expandexpanded" horiz-adv-x="1771" >
<font-face units-per-em="2048" ascent="1638" descent="-410" />
<missing-glyph horiz-adv-x="792" />
<glyph horiz-adv-x="0" />
<glyph unicode="&#xd;" horiz-adv-x="1024" />
<glyph unicode=" "  horiz-adv-x="792" />
<glyph unicode="&#x09;" horiz-adv-x="792" />
<glyph unicode="&#xa0;" horiz-adv-x="792" />
<glyph unicode="!" horiz-adv-x="851" d="M68 1290h716q-8 -16 -25.5 -37.5t-35.5 -42t-31.5 -38t-13.5 -25.5v-604l-88 -142h-344l-72 142v604q-39 49 -60.5 76.5t-31.5 42t-12 18.5t-2 6zM242 0v254h346v-254h-346z" />
<glyph unicode="&#x22;" horiz-adv-x="921" d="M80 823h121l229 215v254h-350v-469zM492 821h120l230 215v254h-350v-469z" />
<glyph unicode="#" horiz-adv-x="1769" d="M80 598h174v-475q0 -4 -9 -19.5t-16 -21.5l-73 -82h598v598h260v-598h600l-74 82q-6 6 -16.5 21.5t-10.5 19.5v475h177v123h-177v100h177v123h-177v203q6 6 21.5 23.5t31 36t29 36t17.5 25.5l2 2l5 10t3 10h-608v-346h-260v346h-607q0 -10 9 -20l2 -2q4 -8 17 -25.5 t28.5 -37t30 -36t20.5 -22.5v-203h-174v-123h174v-100h-174v-123zM754 721v100h260v-100h-260z" />
<glyph unicode="$" horiz-adv-x="1484" d="M70 899q0 -10 2 -21.5t22 -29.5q25 -18 75 -56t112.5 -84t131 -98.5t131 -98.5t113 -82t74.5 -52q43 -47 43 -105q0 -47 -30.5 -87t-104.5 -58q-14 -6 -36.5 -13.5t-45 -12.5t-39.5 -8l-18 -3l-19 10l-227 363l-23 12q-4 -20 -11 -61t-16 -91.5t-19.5 -105.5 t-18.5 -106.5t-14.5 -92.5t-8.5 -61q-4 -8 -5 -25.5t-1 -23.5h49l498 139v-295h121v328l424 119q86 23 137 54.5t51 80.5q0 16 -3 34.5t-25 34.5l-703 519q-20 18 -23.5 37.5t-3.5 35.5q0 53 51.5 94t155.5 62h27q16 0 18 -14l295 -326l23 -10l92 555v37l-92 -23l-424 -141 v307h-121v-346l-408 -135q-39 -12 -75.5 -26.5t-66.5 -33t-47 -40t-17 -48.5v-8z" />
<glyph unicode="%" horiz-adv-x="1781" d="M80 0h491l-137 80l1194 1171q10 10 26.5 16.5t47.5 16.5v8h-502l154 -80l-1198 -1169q-10 -10 -28.5 -20.5t-47.5 -14.5v-8zM104 776q0 -39 14.5 -63.5t33 -39t39 -20.5t32.5 -6h439q12 0 32.5 6t39 20.5t32.5 39t14 63.5v385q0 39 -14 64.5t-32.5 40t-39 20.5t-32.5 6 h-439q-12 0 -32.5 -6t-39 -20.5t-33 -40t-14.5 -64.5v-385zM342 778v381q14 51 31.5 63.5t32.5 14.5h73q14 -4 31.5 -16.5t32.5 -61.5v-381q-14 -49 -31.5 -61t-32.5 -15h-73q-14 2 -32 14.5t-32 61.5zM997 129q0 -39 13.5 -63.5t33 -39t39 -20.5t31.5 -6h440q12 0 32 6 t39.5 20.5t32.5 39t13 63.5v385q0 39 -13 64.5t-32.5 40t-39 20.5t-32.5 6h-440q-12 0 -31.5 -6t-39 -20.5t-33 -40t-13.5 -64.5v-385zM1235 131v381q12 51 30.5 63.5t30.5 14.5h76q12 -4 30.5 -16.5t31.5 -61.5v-381q-12 -49 -31 -61.5t-31 -14.5h-76q-12 2 -30.5 14.5 t-30.5 61.5z" />
<glyph unicode="&#x26;" horiz-adv-x="1980" d="M68 664v32q0 39 17 63.5t46 38t65.5 17.5t77.5 4h170v21q-12 14 -44.5 52t-68.5 80t-68 80t-44 54q-20 25 -23 35t-3 37q0 31 25.5 69.5t76.5 44.5h1212v-192l-159 106h-727l366 -387l928 2l-125 -123h-139v-34q0 -14 -15.5 -57.5t-40 -100.5t-53.5 -119.5t-53.5 -114 t-40.5 -86.5l-16 -34q-23 -23 -52.5 -49.5t-65.5 -49t-75 -38t-82 -15.5h-387q-41 0 -85 17.5t-84 42t-74.5 53t-57.5 51.5q-10 12 -58.5 67.5t-108.5 124t-118.5 135t-89.5 103.5q-20 23 -23 37t-3 33zM520 696l443 -510l237 510h-680z" />
<glyph unicode="'" horiz-adv-x="509" d="M80 821h121l229 215v254h-350v-469z" />
<glyph unicode="(" horiz-adv-x="1114" d="M80 260q0 -78 27.5 -128t65.5 -79.5t77 -41t61 -11.5h736l-175 123h-233q-23 10 -45.5 42t-38.5 99v762q10 49 26.5 79t35 46t35 21.5t28.5 7.5h194l168 110h-731q-23 0 -61.5 -11t-76.5 -41t-65.5 -80t-27.5 -128v-770z" />
<glyph unicode=")" horiz-adv-x="1116" d="M68 0l174 123h233q23 10 46.5 42t37.5 99v762q-10 49 -26.5 79t-35 46t-35 21.5t-28.5 7.5h-194l-168 110h731q23 0 61.5 -11t76.5 -41t65.5 -80t27.5 -128v-770q0 -78 -27.5 -128t-65.5 -79.5t-77 -41t-61 -11.5h-735z" />
<glyph unicode="*" horiz-adv-x="591" d="M68 1147l139 -14l-117 -68l148 -100l59 100l65 -100l138 98l-115 70l139 12l-49 135l-127 -63l41 118h-192l43 -118l-127 61z" />
<glyph unicode="+" horiz-adv-x="708" d="M80 707h201v-164h149v164h199v122h-199v164h-149v-164h-201v-122z" />
<glyph unicode="," horiz-adv-x="509" d="M80 -215h121l229 215v254h-350v-469z" />
<glyph unicode="-" horiz-adv-x="696" d="M80 707v122h549l-125 -122h-424z" />
<glyph unicode="." horiz-adv-x="509" d="M80 0v254h350v-254h-350z" />
<glyph unicode="/" horiz-adv-x="1761" d="M68 0v8q29 4 47 14.5t28 20.5l1198 1169l-155 78h508l-4 -6q-23 -10 -43.5 -16.5t-30.5 -16.5l-1206 -1171l149 -80h-491z" />
<glyph unicode="0" horiz-adv-x="1521" d="M84 260q0 -78 27.5 -128t65.5 -79.5t77 -41t63 -11.5h883q23 0 61.5 11.5t76.5 41t66 79.5t28 128v770q0 78 -28 128t-66 80t-76.5 41t-61.5 11h-883q-25 0 -63.5 -11t-76.5 -41t-65.5 -80t-27.5 -128v-770zM559 264v762q10 49 27.5 79t35 45t35 21.5t27.5 8.5h147 q12 -2 32 -8.5t39.5 -21.5t34.5 -45t19 -79v-762q-12 -49 -28.5 -78.5t-33.5 -45t-33.5 -21.5t-29.5 -8h-147q-10 2 -27.5 8t-35 21.5t-35 45t-27.5 78.5z" />
<glyph unicode="1" horiz-adv-x="843" d="M68 1290q0 -10 8 -20l2 -2q4 -8 17.5 -25.5t28.5 -37t29.5 -36t20.5 -22.5v-1024q0 -4 -9 -19.5t-15 -21.5l-74 -82h700l-74 82q-6 6 -15 21.5t-9 19.5v1167h-610z" />
<glyph unicode="2" horiz-adv-x="1484" d="M68 1290l4 -35l170 -477l20 13l246 372q12 14 47 21.5t70 9.5h59q16 0 30.5 -1t26.5 -3q37 -16 46.5 -26.5t15.5 -16.5l2 -4l2 -35q0 -10 -2 -20.5t-14 -20.5l-689 -922q-10 -10 -12 -21t-2 -22l2 -28q6 -45 33 -59.5t78 -14.5h1173l43 150l-377 -62h-166 q-74 0 -100 26.5t-33 67.5l-2 27q0 43 31 80q23 20 67 74.5t97 126t110.5 150.5t109.5 149.5t92 125t59 74.5l2 35q0 43 -10.5 90t-38 86t-76.5 64.5t-125 25.5h-989z" />
<glyph unicode="3" horiz-adv-x="1542" d="M68 1290h1177q25 0 43.5 -12t32.5 -29.5t21.5 -38t7.5 -34.5q0 -27 -3.5 -37.5t-25.5 -34.5q-12 -16 -44 -54t-67.5 -80t-67.5 -79t-44 -51v-21h170q39 0 76.5 -4t66.5 -17.5t46.5 -38t17.5 -63.5v-32q0 -18 -3.5 -33t-25.5 -37q-31 -37 -88.5 -104.5t-117.5 -135 t-108.5 -123t-60.5 -67.5q-23 -23 -56.5 -51.5t-73.5 -53t-83 -42t-86 -17.5h-643v123h393l500 573h-637q14 16 55 54t92.5 84.5t106.5 97.5t102 95t77 76t30 42v20h-653z" />
<glyph unicode="4" horiz-adv-x="1794" d="M68 377h837v-377h598l-73 82q-6 6 -15.5 21.5t-9.5 19.5v254h197l124 123h-321v649q8 8 24.5 27.5t34 40t30.5 41t17 32.5h-606zM643 500l262 288v-288h-262z" />
<glyph unicode="5" horiz-adv-x="1454" d="M68 45q0 -14 30 -39l39 -6h1002q12 0 22 12q90 25 123 85.5t33 131.5l-2 35q-16 20 -57 77.5t-94.5 132.5t-113 160t-114.5 159.5t-99 131t-67 76.5q-31 37 -31 80l2 27q6 41 37 67.5t105 26.5h336l155 -104v192h-1206q-51 0 -61.5 -14t-16.5 -59l-2 -29q0 -10 2 -21.5 t12 -21.5l689 -922q12 -10 14 -20t2 -21l-2 -35l-2 -4q-6 -6 -12.5 -13t-28.5 -19h-252q-29 18 -53.5 42.5t-38.5 43.5l-232 342l-18 12q-6 -18 -15.5 -58t-19.5 -89.5t-21.5 -103.5t-20.5 -104.5t-15 -90t-8 -60.5z" />
<glyph unicode="6" horiz-adv-x="1495" d="M80 260q0 -78 27.5 -128t65.5 -79.5t77 -41t61 -11.5h930q74 0 124 49t50 113v575q0 39 -33.5 59.5t-77.5 30t-84 11.5t-53 2h-612v186q16 68 38.5 99.5t45.5 41.5h477l176 -123v246h-981q-23 0 -61.5 -11t-76.5 -41t-65.5 -80t-27.5 -128v-770zM555 264v432h279 q14 -4 33.5 -5t36 -4t27.5 -11t11 -27v-538h-262q-12 2 -28.5 7t-35 21.5t-35 46t-26.5 78.5z" />
<glyph unicode="7" horiz-adv-x="1476" d="M68 1290h1192q82 0 111.5 -15t35.5 -65l-2 -4l3 -15t1 -3q0 -16 -20 -39q-16 -23 -66.5 -102.5t-118 -189t-145.5 -239t-147.5 -249t-124.5 -219t-78 -150.5h-580l662 1067q12 10 14 20.5t2 20.5l-2 35q-6 29 -37 40t-84 11h-39q-16 0 -37.5 -2t-42 -5t-36 -9.5 t-21.5 -14.5l-246 -372l-20 -13l-170 477z" />
<glyph unicode="8" horiz-adv-x="1927" d="M68 664q0 -18 3 -33t23 -37q31 -37 88.5 -103.5t117.5 -136t108.5 -124t60.5 -66.5q23 -23 57.5 -51.5t74.5 -53t84 -42t85 -17.5h387q43 0 86 17.5t83 42t74 53t56 51.5q12 12 60.5 67.5t109 123t117.5 135t88 104.5q23 23 26 37t3 33v32q0 39 -17.5 63.5t-46.5 38 t-66.5 17.5t-78.5 4h-170v21q14 14 46 51t67.5 80t67.5 81t44 54q23 25 26 35t3 37q0 14 -7.5 34.5t-21.5 38t-34.5 29.5t-45.5 12h-1331q-25 0 -44.5 -12t-32.5 -29.5t-19 -38t-6 -34.5q0 -27 3 -37.5t23 -34.5q12 -16 44 -54t68 -80t68.5 -80t44.5 -52v-21h-170 q-41 0 -77.5 -4t-65.5 -17.5t-46 -38t-17 -63.5v-32zM520 696h887l-444 -510zM694 1147v20h537v-20q0 -6 -24.5 -33t-62.5 -64.5t-86 -83.5t-95 -92q-47 45 -95.5 90.5t-86.5 84t-62.5 65.5t-24.5 33z" />
<glyph unicode="9" horiz-adv-x="1495" d="M80 553q0 -39 33.5 -59.5t78 -29.5t84 -11t52.5 -2h612v-187q-16 -68 -39.5 -99.5t-46.5 -41.5h-477l-174 123v-246h979q25 0 63.5 11.5t76.5 41t65.5 79.5t27.5 128v770q0 78 -27.5 128t-65.5 80t-77 41t-63 11h-930q-37 0 -67.5 -13t-54.5 -35.5t-37 -52.5t-13 -61 v-575zM553 641v539h262q10 -2 27.5 -8.5t36 -21.5t35 -45t26.5 -79v-432h-281q-14 4 -32.5 5t-35 4t-27.5 11.5t-11 26.5z" />
<glyph unicode=":" horiz-adv-x="509" d="M80 0v254h350v-254h-350zM80 573v254h350v-254h-350z" />
<glyph unicode=";" horiz-adv-x="509" d="M80 -215h121l229 215v254h-350v-469zM80 573h350v254h-350v-254z" />
<glyph unicode="&#x3c;" horiz-adv-x="1150" d="M68 559l669 653l-155 80h501v-8q-29 -10 -45 -16.5t-26 -16.5l-535 -518l604 -733h-782l53 20q4 2 19.5 10.5t32 16.5t31 16.5t18.5 10.5l1 3t1 5q0 4 -1 7l-1 3z" />
<glyph unicode="=" horiz-adv-x="759" d="M80 596v123h612l-125 -123h-487zM80 819v123h612l-125 -123h-487z" />
<glyph unicode="&#x3e;" horiz-adv-x="1148" d="M68 0v8q29 4 47 14.5t28 20.5l529 516l-602 733h782l-53 -20q-4 -4 -19.5 -12.5t-32 -17.5t-31 -16t-16.5 -9l-2 -3q-2 -4 -2 -6q0 -4 2 -7l2 -3l381 -465l-675 -655l153 -78h-491z" />
<glyph unicode="?" horiz-adv-x="1388" d="M68 1356v37l92 -23l952 -315q39 -12 76 -26.5t65.5 -33t47 -40t18.5 -48.5v-8q0 -10 -2 -21.5t-23 -29.5q-33 -23 -105.5 -61.5t-161.5 -87t-185.5 -100.5t-175 -100t-130 -89t-51.5 -66l-372 59q49 63 118.5 128t149.5 129.5t163 130t158 131.5q20 18 23.5 37.5 t3.5 35.5q0 53 -51 94t-156 62h-24q-18 0 -21 -14l-295 -326l-22 -10zM111 0v254h348v-254h-348z" />
<glyph unicode="@" horiz-adv-x="2105" d="M80 260q0 -78 27.5 -128t65.5 -79.5t77 -41t61 -11.5h1155l-174 123h-649q-23 10 -46.5 42t-39.5 99v762q10 49 26.5 79t35 46t35 21.5t28.5 7.5h745q10 -2 28 -8.5t36 -21.5t34.5 -45t26.5 -79v-416q-16 -68 -39.5 -99.5t-46.5 -41.5h-71v391q0 39 -14.5 64.5t-33 40 t-39 20.5t-32.5 6h-438q-12 0 -33 -6t-39 -20.5t-32.5 -40t-14.5 -64.5v-385q0 -39 14.5 -63.5t32.5 -39t38.5 -20.5t33.5 -6h956q23 0 61.5 11.5t76.5 41t65.5 79.5t27.5 128v424q0 78 -27.5 128t-65.5 80t-76.5 41t-61.5 11h-1483q-23 0 -61.5 -11t-76.5 -41t-65.5 -80 t-27.5 -128v-770zM954 502v332q14 51 32 63t32 14h74q14 -4 31.5 -16t31.5 -61v-332q-14 -49 -31.5 -61.5t-31.5 -14.5h-74q-14 2 -32 14.5t-32 61.5z" />
<glyph unicode="A" horiz-adv-x="1783" d="M68 0l14 14q16 10 39.5 29.5t34.5 38.5l106 240l-2 16q0 18 -9 32.5t-21.5 26t-24.5 23.5t-21 29q-4 8 -5 19l-1 11h154l297 668l-154 143h615l626 -1290h-788l51 43q4 4 18.5 19.5t32 32t31.5 31.5t18 19q0 2 1 9.5t1 11.5t-1 11t-1 9l-80 181h-503l-41 -21l-88 -211 l157 -135h-456zM512 489h428l-186 412l-25 41l-4 2t-10 2q-2 0 -1 -1l3 -3z" />
<glyph unicode="B" horiz-adv-x="1763" d="M68 1290h1398q25 0 44.5 -12t32.5 -28.5t20.5 -37t7.5 -34.5q0 -27 -3 -37.5t-24 -34.5q-12 -16 -44 -54t-67.5 -80t-68.5 -80t-45 -52v-21h170q41 0 79 -4t66.5 -17.5t45 -38t16.5 -63.5v-32q0 -18 -3 -33t-24 -37q-31 -37 -88 -104.5t-117.5 -135t-108.5 -123 t-61 -67.5q-23 -23 -56.5 -51.5t-73.5 -53t-84 -42t-85 -17.5h-776v1126q0 4 -9 19.5t-15 21.5zM719 123h26l500 573h-526v-573zM719 778q16 12 49 43t72 70t80 82t73.5 80t54 62.5t21.5 31.5v20h-350v-389z" />
<glyph unicode="C" horiz-adv-x="1462" d="M68 664q0 -18 3 -33t23 -37q31 -37 88.5 -103.5t117.5 -136t108.5 -124t60.5 -66.5q23 -23 57.5 -51.5t74.5 -53t84 -42t85 -17.5h557v246l-176 -123h-131q-154 135 -278 274.5t-222 298.5q25 111 72 225.5t117 245.5l30 2h226q55 -45 79 -75l230 -342l20 -13 q8 29 23.5 100.5t31 151.5t29 151.5t17.5 102.5q0 4 -10.5 17.5t-22.5 23.5l-43 4h-981q-12 -2 -38 -39t-55.5 -93t-61 -123.5t-57.5 -133t-42 -121t-16 -84.5v-32z" />
<glyph unicode="D" horiz-adv-x="1753" d="M68 1292l116 -125q6 -6 15.5 -21.5t9.5 -19.5v-1126h776q43 0 86 17.5t83 42t74 53t56 51.5q12 12 60.5 67.5t108.5 123t117.5 135t88.5 104.5q20 23 23.5 37t3.5 33v32q0 29 -12.5 85.5t-33 123t-45 135t-49 125t-46 92t-34.5 35.5h-1398zM709 123v1044h350 q70 -131 110.5 -245.5t65.5 -225.5l-500 -573h-26z" />
<glyph unicode="E" horiz-adv-x="1421" d="M68 1290h1249v-192l-125 82h-475v-351h551l-125 -122h-426v-584h450l174 123v-246h-1257q0 12 8 20l101 103q6 6 15 21.5t9 19.5v940q0 4 -9 18.5t-15 22.5z" />
<glyph unicode="F" horiz-adv-x="1396" d="M68 1290l161 -186v-934l-153 -170h629v707h438l125 122h-551v349h475l125 -82v194h-1249z" />
<glyph unicode="G" horiz-adv-x="1609" d="M68 664q0 -18 3 -33t23 -37q31 -37 88.5 -103.5t117.5 -136t108.5 -124t60.5 -66.5l22.5 -22.5t28.5 -24.5l2 -2q51 -41 117 -78t131 -37h225q135 111 260 272.5t254 348.5l33 47h-694q43 -35 85 -53.5t46 -22.5q2 0 12 -6t23 -14l12 -7q0 -4 -1 -7l-1 -3l-195 -236 q-35 37 -77.5 84.5t-85.5 98.5t-82 101t-64 93q25 111 72 223.5t117 243.5l30 2h226q55 -45 79 -75l230 -338l20 -13q8 29 23.5 99.5t31 150.5t29 150.5t17.5 101.5q0 4 -7.5 16.5t-21.5 22.5l-33 10h-989q-12 -2 -37.5 -39t-56.5 -92t-62.5 -123.5t-58.5 -134t-44 -121 t-17 -84.5v-32z" />
<glyph unicode="H" horiz-adv-x="1615" d="M68 1290h606v-461h268v461h606q0 -4 -2 -10t-4 -10l-2 -2q-6 -8 -20.5 -25.5t-29.5 -37t-28.5 -36t-19.5 -22.5v-1024q0 -4 9 -19.5t15 -21.5l76 -82h-600v707h-268v-707h-598l74 82q6 6 15 21.5t9 19.5v1024q-6 6 -20.5 22.5t-29.5 36t-28.5 37t-17.5 25.5l-2 2 q-8 10 -8 20z" />
<glyph unicode="I" horiz-adv-x="851" d="M68 1290q0 -10 8 -20l2 -2q4 -8 17.5 -25.5t28.5 -37t29.5 -36t20.5 -22.5v-1024q0 -4 -9 -19.5t-15 -21.5l-74 -82h700l-74 82q-6 6 -15 21.5t-9 19.5v1024q6 6 20.5 22.5t29.5 36t28.5 37t17.5 25.5l2 2q8 10 8 20h-716z" />
<glyph unicode="J" horiz-adv-x="1468" d="M68 45q2 20 8 60t15 90.5t20.5 104.5t21.5 103.5t19.5 89.5t15.5 58l18 -12l232 -342q14 -18 38.5 -43t53.5 -43h262q12 2 28.5 7t35 21.5t35 46t26.5 78.5v903h-274l-177 -123v246h926v-1030q0 -78 -27.5 -128t-65.5 -79.5t-77 -41t-63 -11.5h-1002l-39 6q-31 25 -30 39 z" />
<glyph unicode="K" horiz-adv-x="1789" d="M68 1290h632v-491q63 74 116.5 136t99 120.5t84 116t75.5 118.5h553l-332 -450h2q12 0 59.5 -3t97.5 -14.5t91 -32t41 -53.5v-594l135 -143h-610v696h-426v-696h-610q29 37 60.5 72.5t64.5 70.5v985q0 4 -10.5 19.5t-16.5 21.5l-98 101q-8 10 -8 20z" />
<glyph unicode="L" horiz-adv-x="1396" d="M68 1290l125 -123v-1044l-101 -123h1225v225l-125 -102h-512v1044q39 41 61.5 64.5t34.5 36t15.5 16.5t3.5 6h-727z" />
<glyph unicode="M" horiz-adv-x="2682" d="M61 0l17 20q29 16 42 28.5t23 33.5l471 1065l-149 143h614l269 -553l182 410l-152 143h617l620 -1290h-788l55 41l18.5 18.5l32 32t31.5 32.5t16 19q0 2 2.5 9.5t2.5 11.5t-3.5 11t-3.5 9l-323 717l-27 41l-4 2t-10 2q-2 0 -6 -2l-4 -2l-168 -391l266 -551h-791l56 41 q4 4 18 19.5t31.5 32t32 31.5t18.5 19q0 2 1 9.5t1 11.5t-2 11t-2 9l-326 717l-24 41l-5 2q-5 2 -10 2q-4 0 -7 -2l-3 -2l-340 -784l162 -158h-451z" />
<glyph unicode="N" horiz-adv-x="1650" d="M68 1290q8 -16 23 -38.5t31.5 -44t31 -38t20.5 -22.5v-1024q0 -4 -9 -19.5t-15 -21.5l-74 -82h598v707l590 -707h313l-100 123v1024q43 47 68.5 84t37.5 59h-606v-461l-393 461h-516z" />
<glyph unicode="O" horiz-adv-x="1763" d="M68 664q0 -18 3 -33t23 -37q31 -37 88.5 -103.5t117.5 -136t108.5 -124t60.5 -66.5q23 -23 57.5 -51.5t74.5 -53t84 -42t85 -17.5h225q41 0 85 17.5t84 42t74 53t56 51.5q12 12 60.5 67.5t109 123t117.5 135t88 104.5q20 23 23.5 37t3.5 33v32q0 29 -13.5 85.5t-34 122 t-46 134t-51 125t-48.5 92t-35 35.5h-1173q-14 0 -35.5 -35.5t-47.5 -92t-51.5 -125t-46 -134t-33.5 -122t-13 -85.5v-32zM520 696q25 111 65 226.5t109 246.5h375q70 -131 111 -246.5t65 -226.5l-366 -446z" />
<glyph unicode="P" horiz-adv-x="1601" d="M68 1290h1411q29 0 42 -28.5t13 -51.5l-2 -12q-10 -27 -37 -76t-64.5 -105t-84 -115.5t-93.5 -106.5t-93 -78t-83 -31h-411v-686h-596l75 82q4 6 14.5 21.5t10.5 19.5l20 33v972q-8 6 -25.5 23.5t-35.5 41.5t-35.5 49.5t-25.5 47.5zM680 799q49 20 98 61t95.5 94.5 t86 113.5t70.5 120h-350v-389z" />
<glyph unicode="Q" horiz-adv-x="1763" d="M68 664q0 -18 3 -33t23 -37q31 -37 88.5 -103.5t117.5 -136t108.5 -124t60.5 -66.5q23 -23 57.5 -51.5t74.5 -53t84 -42t85 -17.5h924q-29 20 -57.5 37.5t-34.5 21.5l-216 207q33 37 74 84t81 93t74 86t54 65q20 23 23.5 37t3.5 33v32q0 29 -13.5 85.5t-34 122t-46 134 t-51 125t-48.5 92t-35 35.5h-1173q-12 0 -33.5 -35.5t-47.5 -92t-51.5 -125t-47 -134t-34.5 -122t-13 -85.5v-32zM520 696q25 111 66 226.5t110 246.5h375q72 -131 111 -246.5t63 -226.5l-139 -157l-121 116l154 80h-502v-8q31 -10 46.5 -16.5t25.5 -16.5l278 -280 l-108 -140z" />
<glyph unicode="R" horiz-adv-x="1789" d="M68 1290h1431q14 0 24.5 -11t16.5 -25.5t9 -30t3 -23.5q0 -27 -3 -37t-25 -35q-12 -16 -44 -54t-68 -81t-68.5 -81t-45.5 -52v-20q12 0 59.5 -3t97.5 -14.5t91 -32t41 -53.5v-594l135 -143h-610v696h-426v-696h-610q29 37 60.5 72.5t64.5 70.5v985q0 4 -10.5 19.5 t-16.5 21.5l-98 101q-8 10 -8 20zM700 799l50 41q18 18 62 67t91 105.5t89 106.5t57 71h-349v-391z" />
<glyph unicode="S" horiz-adv-x="1474" d="M68 883v14q2 41 63.5 80t136.5 67q113 43 240 87.5t253 86.5t244.5 76.5t217.5 59.5l86 12l8 -27l-94 -544l-23 10l-291 313q-8 6 -9 10.5t-11 4.5h-25q-104 -20 -155.5 -60.5t-51.5 -93.5v-23q0 -10 3.5 -20t17.5 -23l706 -507q20 -16 23.5 -34t3.5 -34q0 -49 -53 -75.5 t-133 -53.5q-264 -86 -519 -159t-528 -130h-51q0 6 3 23.5t5 23.5q2 31 13.5 103.5t24.5 152.5t27.5 151.5t22.5 100.5l23 -12l213 -342l18 -10l17 3q16 3 40.5 8t49 11t39.5 12q145 37 145 131q0 53 -43 103q-25 16 -75 52t-112.5 82t-131 97.5t-132 97.5t-114.5 81.5 t-78 52.5q-14 14 -14 41z" />
<glyph unicode="T" horiz-adv-x="1409" d="M80 1100v190h1249v-190l-125 80h-231v-1074q6 -18 16 -24l76 -82h-692l73 82q6 6 16.5 21.5t10.5 19.5v1057h-268z" />
<glyph unicode="U" horiz-adv-x="1609" d="M68 1290h610v-1026q14 -66 37.5 -96.5t46 -42.5t39 -14t16.5 -9h105v1188h612q-29 -37 -60.5 -71.5t-64.5 -69.5v-985q0 -4 10.5 -19.5t14.5 -21.5l100 -103l5 -10t3 -10h-1108q-23 0 -61.5 11.5t-76.5 41t-65.5 79.5t-27.5 128v889z" />
<glyph unicode="V" d="M68 1290h788l-51 -43q-4 -4 -19.5 -18.5t-33 -30.5t-31.5 -31.5t-16 -19.5q0 -2 -1.5 -9.5t-1.5 -11.5t1.5 -11t1.5 -9l325 -717l25 -41l4 -2t10 -2q2 0 6 2l4 2l338 787l-157 155h444l-18 -24q-12 -4 -30 -20.5t-28 -37.5l-473 -1065l150 -143h-615z" />
<glyph unicode="W" horiz-adv-x="2183" d="M68 0q2 12 15 31.5t29.5 41t34 40t27.5 28.5v1026q0 4 -9 19.5t-15 21.5l-74 82h571v-751l445 751l444 -751v751h573l-75 -82q-6 -6 -15.5 -21.5t-9.5 -19.5v-1026q8 -10 24.5 -28.5t34 -39t32 -41t16.5 -32.5h-607l-419 750l-416 -750h-606z" />
<glyph unicode="X" horiz-adv-x="1789" d="M68 0l135 143v594q0 33 40 53.5t91 32t97 14.5t58 3h3l-332 450h555q35 -66 82 -132t98 -122q43 53 92 121t88 133h553l-332 -450h2q12 0 59.5 -3t97.5 -14.5t91 -32t41 -53.5v-594l135 -143h-610v696h-434v-696h-610z" />
<glyph unicode="Y" horiz-adv-x="1753" d="M68 1290l548 -665v-502q0 -4 -9 -19.5t-15 -21.5l-74 -82h574v741l522 508q10 10 26.5 16.5t45.5 16.5v8h-502l155 -80l-360 -352l-283 338l-1 3t-1 7q0 2 1 5l1 3q4 2 18.5 9.5t32 16.5t32 17.5t18.5 12.5l53 20h-782z" />
<glyph unicode="Z" horiz-adv-x="1468" d="M66 336v4q0 16 3 34.5t23 33.5l701 505q14 12 18 24.5t4 25.5v18q0 53 -50 95t-161 61h-26q-18 0 -21 -13l-283 -315l-20 -12l-98 571l120 -10l1072 -365q39 -12 48 -27.5t9 -68.5v-8q0 -10 -3 -20.5t-26 -24.5l-628 -463q-47 -51 -48 -105q0 -94 148 -131 q12 -8 33.5 -14t43 -10t39.5 -6l17 -2l23 6l213 346l20 8q8 -27 21.5 -98.5t27.5 -153.5t26.5 -155.5t16.5 -104.5q2 -4 3 -22.5t1 -24.5h-47q-297 76 -587.5 163t-596.5 179q-14 4 -21 8t-10 12.5t-4 21.5t-1 38z" />
<glyph unicode="[" horiz-adv-x="1114" d="M80 0h967l-175 123h-315v1057h317l168 110h-962v-1290z" />
<glyph unicode="\" horiz-adv-x="1761" d="M68 1290l4 -6q23 -10 43 -16.5t30 -16.5l1207 -1171l-150 -80h492v8q-29 4 -46.5 14.5t-27.5 20.5l-1200 1169l155 78h-507z" />
<glyph unicode="]" horiz-adv-x="1116" d="M68 0l174 123h315v1057h-317l-168 110h962v-1290h-966z" />
<glyph unicode="^" d="M68 0v16q33 0 49 22.5t26 43.5l473 1065l-149 143h614l623 -1290h-789l52 43l100 100q0 2 1 9.5t1 11.5t-1 11t-1 9l-326 717l-24 41l-5 2t-10 2q-2 0 -6 -2l-4 -2l-338 -786l158 -156h-444z" />
<glyph unicode="_" horiz-adv-x="931" d="M80 0v123h784l-125 -123h-659z" />
<glyph unicode="`" horiz-adv-x="665" d="M68 1290l180 -254h350l-156 254h-374z" />
<glyph unicode="a" horiz-adv-x="1783" d="M68 0h456l-157 135l88 211l41 21h503l80 -181q0 -2 1 -9t1 -11t-1 -11.5t-1 -9.5q-4 -4 -18 -19t-31.5 -31.5t-32 -32t-18.5 -19.5l-51 -43h788l-626 1290h-615l154 -143l-297 -668h-154l1 -11t5 -19q8 -16 20.5 -28.5t25 -24t21.5 -26t9 -32.5l2 -16l-106 -240 q-10 -18 -34 -37.5t-40 -30.5zM512 489l205 453l-2 2q-2 2 0 2q6 0 10 -2l4 -2l25 -41l186 -412h-428z" />
<glyph unicode="b" horiz-adv-x="1763" d="M68 1290h1398q25 0 44.5 -12t32.5 -28.5t20.5 -37t7.5 -34.5q0 -27 -3 -37.5t-24 -34.5q-12 -16 -44 -54t-67.5 -80t-68.5 -80t-45 -52v-21h170q41 0 79 -4t66.5 -17.5t45 -38t16.5 -63.5v-32q0 -18 -3 -33t-24 -37q-31 -37 -88 -104.5t-117.5 -135t-108.5 -123 t-61 -67.5q-23 -23 -56.5 -51.5t-73.5 -53t-84 -42t-85 -17.5h-776v1126q0 4 -9 19.5t-15 21.5zM719 123h26l500 573h-526v-573zM719 778q25 12 60.5 43t74.5 71t77 84t68.5 81t50 61.5t19.5 28.5v20h-350v-389z" />
<glyph unicode="c" horiz-adv-x="1462" d="M90 260v770q0 78 27.5 128t65.5 80t77 41t62 11h1003l39 -6q31 -25 31 -39q-4 -31 -17.5 -102.5t-29 -151.5t-31 -151.5t-23.5 -100.5l-20 13l-230 342q-16 18 -39.5 42.5t-52.5 43.5h-262q-12 -2 -28.5 -7.5t-35 -21.5t-35 -46t-26.5 -79v-762q14 -68 38 -99.5t46 -41.5 h477l177 123v-246h-981q-23 0 -62 11.5t-77 41t-65.5 79.5t-27.5 128z" />
<glyph unicode="d" horiz-adv-x="1781" d="M68 1290l125 -123q6 -6 15 -21.5t9 -19.5v-1126h774q41 0 85 17.5t84 42t75 53t57 51.5q6 8 31 36.5t60.5 68.5t76.5 87t80 91.5t73 83t54 63.5q20 23 23.5 37t3.5 33v626h-1626zM717 123v1044h524v-471l-500 -573h-24z" />
<glyph unicode="e" horiz-adv-x="1421" d="M68 1290l125 -145q6 -8 15 -22.5t9 -18.5v-940q0 -4 -9 -19.5t-15 -21.5l-101 -103q-8 -8 -8 -20h1257v246l-174 -123h-450v584h426l125 122h-551v351h475l125 -82v192h-1249z" />
<glyph unicode="f" horiz-adv-x="1396" d="M68 1292h1249v-194l-125 82h-475v-351h551l-125 -122h-438v-707h-476v1106z" />
<glyph unicode="g" horiz-adv-x="1499" d="M90 260v770q0 78 27.5 128t65.5 80t77 41t62 11h981v-246l-177 123h-477q-23 -10 -46 -41.5t-38 -99.5v-762q10 -49 26.5 -78.5t35 -46t35 -21.5t28.5 -7h262v585h-217v144h443q12 0 52 -2t83 -11.5t76.5 -30t33.5 -59.5v-575q0 -63 -49 -112.5t-123 -49.5h-929 q-23 0 -62 11.5t-77 41t-65.5 79.5t-27.5 128z" />
<glyph unicode="h" horiz-adv-x="1615" d="M68 1290q0 -10 8 -20l2 -2q4 -8 17.5 -25.5t28.5 -37t29.5 -36t20.5 -22.5v-1024q0 -4 -9 -19.5t-15 -21.5l-74 -82h594v707h280v-707h592l-76 82q-6 6 -15 21.5t-9 19.5v1024q6 6 19.5 22.5t28.5 36t29.5 37t20.5 25.5l2 2q2 4 4 10t2 10h-598v-461h-280v461h-602z" />
<glyph unicode="i" horiz-adv-x="737" d="M68 1290h583v-1290h-575l74 82q6 6 15 21.5t9 19.5v1024q-6 6 -20.5 22.5t-29.5 36t-28.5 37t-17.5 25.5l-2 2q-8 10 -8 20z" />
<glyph unicode="j" horiz-adv-x="1374" d="M68 -72h53l1057 256q18 4 38.5 21.5t38 41t28.5 50.5t11 49v944h-608q0 -4 3 -8t13.5 -17.5t33 -40t59.5 -75.5v-834q-4 -31 -13.5 -54t-31 -43.5t-57.5 -37t-93 -33.5q-16 -6 -43 -11t-54.5 -8t-46.5 -5l-20 -2l-20 10l-223 338l-21 12q-6 -18 -15.5 -58t-19.5 -89 t-21.5 -103.5t-20.5 -104.5t-15 -90t-8 -61q-2 -6 -3 -23.5t-1 -23.5z" />
<glyph unicode="k" horiz-adv-x="1767" d="M68 1290q0 -10 8 -20l2 -2q4 -8 17.5 -25.5t28.5 -37t29.5 -36t20.5 -22.5v-1024q0 -4 -9 -19.5t-15 -21.5l-74 -82h598v571l395 -479l1 -3t1 -7q0 -2 -1 -5l-1 -3q-4 -2 -18.5 -10.5t-30.5 -16.5t-31.5 -16t-19.5 -11l-39 -20h770l-680 791l467 460q10 10 26.5 15.5 t45.5 15.5v8h-502l155 -78l-538 -518v596h-606z" />
<glyph unicode="l" horiz-adv-x="1396" d="M68 1290l125 -123v-1044l-101 -123h1225v225l-125 -102h-512v1167h-612z" />
<glyph unicode="m" horiz-adv-x="2183" d="M68 1290q2 -12 15 -31.5t29.5 -41t34 -40t27.5 -28.5v-1026q0 -4 -9 -19.5t-15 -21.5l-74 -82h571v752l445 -752l444 752v-752h573l-75 82q-6 6 -15.5 21.5t-9.5 19.5v1026q8 8 25.5 26.5t34 40t31 42t16.5 32.5h-607l-419 -749l-416 749h-606z" />
<glyph unicode="n" horiz-adv-x="1656" d="M68 1290q8 -16 23 -38.5t31.5 -44t31 -38t20.5 -22.5v-1024q0 -4 -9 -19.5t-15 -21.5l-74 -82h594v707l807 -779v1219q6 6 21 22.5t32.5 38t35 44t27.5 38.5h-616v-481l-512 481h-397z" />
<glyph unicode="o" horiz-adv-x="1560" d="M84 260v770q0 78 27.5 128t65.5 80t77 41t63 11h928q23 0 62 -11t76.5 -41t65.5 -80t28 -128v-770q0 -78 -28 -128t-65.5 -79.5t-76.5 -41t-62 -11.5h-928q-25 0 -63.5 11.5t-76.5 41t-65.5 79.5t-27.5 128zM559 264q10 -49 27.5 -78.5t35 -45t35 -21.5t27.5 -8h193 q12 2 28.5 8t33.5 21.5t33.5 45t28.5 78.5v762q-4 49 -19 78t-35.5 45t-40 22.5t-29.5 8.5h-193q-10 -2 -27.5 -8.5t-35 -21.5t-35 -45t-27.5 -79v-762z" />
<glyph unicode="p" horiz-adv-x="1601" d="M68 1290h1411q29 0 42 -28.5t13 -51.5l-2 -12q-10 -27 -37 -76t-64.5 -105t-84 -115.5t-93.5 -106.5t-93 -78t-83 -31h-405v-686h-482v1128q-8 6 -25.5 23.5t-35.5 41.5t-35.5 49.5t-25.5 47.5zM680 799q31 14 77 55t96 95.5t97 116.5t80 122h-350v-389z" />
<glyph unicode="q" horiz-adv-x="1523" d="M92 260q0 -78 27.5 -128t65.5 -79.5t77 -41t64 -11.5h673l80 -80h480l-170 168q25 31 40 73t15 99v770q0 78 -27.5 128t-65.5 80t-77 41t-62 11h-886q-25 0 -64 -11t-77 -41t-65.5 -80t-27.5 -128v-770zM567 446v580q10 49 27.5 79t36 45t36 21.5t29.5 8.5h148 q12 -2 28.5 -8.5t34 -21.5t33.5 -45t29 -79v-580h-402zM569 264v154l310 -305h-183q-10 0 -30.5 8t-42 26.5t-38 47t-16.5 69.5z" />
<glyph unicode="r" horiz-adv-x="1789" d="M68 1290h1431q14 0 24.5 -11t16.5 -25.5t9 -30t3 -23.5q0 -12 -4 -20.5t-8 -14.5t-9 -14t-7 -23q-4 -16 -34 -55t-67 -81t-72.5 -80t-52.5 -52v-20q12 0 59.5 -3t97.5 -14.5t91 -32t41 -53.5v-594l135 -143h-610v696h-426v-696h-610q29 37 60.5 72.5t64.5 70.5v985 q0 4 -10.5 19.5t-16.5 21.5l-98 101q-8 10 -8 20zM700 799q92 76 176.5 171t172.5 220h-349v-391z" />
<glyph unicode="s" horiz-adv-x="1454" d="M68 14q20 -14 47 -14h1091q43 0 73 15.5t49.5 40t28.5 54t9 58.5q0 10 -2 21.5t-12 21.5l-668 856q-10 16 -13 26.5t-3 30.5l2 19q6 29 34.5 38t81.5 11h41q8 0 23.5 -1t33 -4t34 -8t28.5 -16l246 -372l20 -13l170 477l4 35h-1089q-31 0 -61.5 -12t-56 -38t-43 -65.5 t-21.5 -95.5q0 -6 2 -8q12 -20 57 -81.5t107.5 -142.5t133 -172t133 -171t112 -139.5t65.5 -75.5q12 -23 20.5 -40.5t8.5 -33.5l-2 -33q-4 -41 -36 -70.5t-104 -29.5h-47q-23 0 -49.5 2t-42.5 3t-18 1l-15 10l-180 394l-14 12q-12 -25 -37 -87.5t-50.5 -133t-48 -135 t-30.5 -91.5q-2 -4 -7 -20.5t-5 -22.5z" />
<glyph unicode="t" horiz-adv-x="1409" d="M80 1100l125 80h268v-1057q0 -4 -10 -19.5t-17 -21.5l-73 -82h600v1180h231l125 -80v190h-1249v-190z" />
<glyph unicode="u" horiz-adv-x="1609" d="M68 1290h610v-1026q10 -49 26.5 -78.5t35 -46t35 -21.5t28.5 -7h4q12 2 28.5 8t34 21.5t34 45t28.5 78.5v1026h610l-135 -141v-889q0 -78 -27.5 -128t-65.5 -79.5t-77 -41t-63 -11.5h-740q-23 0 -61.5 11.5t-76.5 41t-65.5 79.5t-27.5 128v889z" />
<glyph unicode="v" d="M68 1290h788l-51 -43q-4 -4 -19.5 -18.5t-33 -30.5t-31.5 -31.5t-16 -19.5q0 -2 -1.5 -9.5t-1.5 -11.5t1.5 -11t1.5 -9l325 -717l25 -41l4 -2t10 -2q2 0 6 2l4 2l338 787l-157 155h444l-35 -37q-6 -4 -18.5 -14t-22.5 -31l-473 -1065l150 -143h-615z" />
<glyph unicode="w" horiz-adv-x="2682" d="M68 1290h788l-53 -41q-4 -4 -19.5 -18t-33 -31.5t-31.5 -33t-17 -19.5q0 -2 -1 -9.5t-1 -11.5t2.5 -11t2.5 -9l325 -717l25 -41l4 -2t10 -2q2 0 6 2l4 2l168 391l-266 551h791l-56 -41q-4 -4 -19.5 -18t-32.5 -31.5t-31.5 -33t-16.5 -19.5q0 -2 -1 -9.5t-1 -11.5t3 -11 t3 -9l324 -717l24 -41l5 -2q5 -2 12 -2q2 0 6 2l4 2l334 787l-158 155h444l-2 -16q-51 -27 -71 -66l-474 -1065l136 -143h-600l-267 553l-182 -410l135 -143h-600z" />
<glyph unicode="x" horiz-adv-x="1757" d="M68 0v8q10 8 30.5 18.5t36 16.5t17.5 6l520 510l-602 733h782l-53 -20q-4 -4 -19.5 -12.5t-32 -17.5t-31 -16t-16.5 -9l-2 -3q-2 -4 -2 -6q0 -4 2 -7l2 -3l279 -340l358 338l-151 96h504v-8q-23 -8 -32 -12t-15.5 -7t-11.5 -6.5t-15 -7.5l-14 -10l-521 -508l605 -733 h-781l19 14q4 2 24.5 11.5t44 19.5t43 18.5t21.5 10.5l1 3t1 5q0 4 -1 7l-1 3l-283 344l-358 -348l143 -88h-491z" />
<glyph unicode="y" horiz-adv-x="1753" d="M68 1290h782l-55 -26q-4 -4 -18.5 -11.5t-31 -15.5t-31 -14t-18.5 -9l-1 -3t-1 -5q0 -4 1 -7l1 -3l283 -338l354 344l-149 88h502l-13 -12q-23 -16 -41 -21.5t-28 -15.5l-512 -500v-741h-476v625z" />
<glyph unicode="z" horiz-adv-x="1495" d="M68 1290l4 -35l170 -477l20 13l246 372q6 8 21.5 14.5t36 9.5t42 5t37.5 2h39q53 0 84 -11.5t37 -39.5l2 -35q0 -10 -2 -20.5t-14 -20.5l-689 -922q-10 -10 -12 -21t-2 -22l2 -28q6 -45 33 -59.5t78 -14.5h1173l53 14q0 6 -5 22.5t-7 20.5q-8 27 -31.5 91.5t-50 135 t-50.5 133t-34 87.5l-14 -12l-180 -394l-15 -10q-2 0 -18 -1t-43 -3t-49 -2q-33 0 -35 2h-12q-74 0 -104.5 28.5t-37.5 69.5l-2 27q0 43 31 80q23 20 73 85.5t112.5 153.5t133 187.5t131 188.5t106.5 155.5t63 89.5q20 23 20 39q0 -2 -1 3l-3 15l2 4q-6 49 -36 64.5 t-111 15.5h-1192z" />
<glyph unicode="{" horiz-adv-x="1378" d="M68 827h282v203q0 78 28 128t65.5 80t76.5 41t62 11h729l-166 -110h-195q-12 -2 -28.5 -7.5t-35 -21.5t-34.5 -46t-27 -79v-762q14 -68 38 -99.5t46 -41.5h234l168 -123h-729q-23 0 -62 11.5t-76.5 41t-65.5 79.5t-28 128v445h-157z" />
<glyph unicode="|" horiz-adv-x="757" d="M80 0h602l-76 82q-4 6 -14 21.5t-10 19.5v1026q6 6 21 23.5t30.5 36t29 36t17.5 25.5l2 2l5 10t3 10h-610v-1292z" />
<glyph unicode="}" horiz-adv-x="1378" d="M68 0h729q25 0 63.5 11.5t76.5 41t65.5 79.5t27.5 128v445h156l125 122h-281v203q0 78 -27.5 128t-65.5 80t-77 41t-63 11h-729l168 -110h194q10 -2 27.5 -8.5t36 -21.5t35 -45t26.5 -79v-762q-16 -68 -39.5 -99.5t-46.5 -41.5h-231z" />
<glyph unicode="~" horiz-adv-x="1101" d="M80 643h268l60 129l65 -129h426l123 252h-268l-58 -129l-69 129h-430z" />
<glyph horiz-adv-x="436" />
<glyph unicode="&#xa1;" horiz-adv-x="851" d="M68 0h716q0 2 -3 6t-13 17.5t-31.5 42t-58.5 77.5v605l-72 141h-344l-88 -141v-605q0 -8 -13.5 -25.5t-31.5 -38t-35.5 -42t-25.5 -37.5zM264 1036h346v254h-346v-254z" />
<glyph unicode="&#xa2;" horiz-adv-x="1452" d="M80 260v770q0 78 27.5 128t65.5 80t77 41t61 11h514v246h119v-246h371l39 -6q31 -25 30 -39q-4 -31 -17 -102.5t-28.5 -151.5t-31 -151.5t-23.5 -100.5l-20 13l-230 342q-16 16 -38.5 40.5t-51.5 43.5v-1055h172l176 123v-246h-348v-248h-119v248h-514q-23 0 -61.5 11.5 t-76.5 41t-65.5 79.5t-27.5 128zM555 264q16 -68 38.5 -99.5t45.5 -41.5h186v1057h-145q-12 -2 -28.5 -7.5t-35 -21.5t-35 -46t-26.5 -79v-762z" />
<glyph unicode="&#xa3;" horiz-adv-x="1581" d="M78 0h1433v123h-391l-499 573h636q-16 16 -57 53t-92 84.5t-106.5 98.5t-101.5 95t-75.5 77t-29.5 41v20h129l129 125h-656q-25 0 -44 -12t-32.5 -29.5t-20.5 -38t-7 -34.5q0 -27 3 -37.5t23 -34.5q12 -16 44 -54t69 -80t68.5 -79t44.5 -51v-21h-467v-123h90v-32 q0 -18 3 -33t24 -37q31 -37 88 -103.5t117.5 -136t108.5 -124t60 -66.5q20 -25 43 -41h-534v-123z" />
<glyph unicode="&#xa4;" horiz-adv-x="1757" d="M68 0v8q29 4 47 14.5t28 20.5l263 256q-4 4 -5 23v565l-331 405h782l-53 -20q-4 -4 -19.5 -12.5t-32 -17.5t-31 -16t-16.5 -9l-2 -3q-2 -4 -2 -6q0 -4 2 -7l2 -3l70 -86h444l23 -2l104 102l-155 80h504v-8q-31 -10 -47.5 -16t-26.5 -17l-250 -241q20 -43 20 -92v-556 l300 -362h-781l51 20q4 2 19.5 10.5t32 16.5t31 16.5t18.5 10.5l1 3t1 5q0 4 -1 7l-1 3l-49 62h-433q-14 0 -32.5 4t-40.5 14l-96 -94l153 -78h-491zM748 348q16 -72 45.5 -92t46.5 -20h110q12 0 41 20t49 92v565q-20 72 -47.5 92.5t-42.5 24.5h-110h-2q-8 -2 -20.5 -8 t-25 -18.5t-24.5 -34t-20 -56.5v-565z" />
<glyph unicode="&#xa5;" horiz-adv-x="1753" d="M68 1290h782l-53 -20q-4 -4 -18.5 -12.5t-32 -17.5t-32 -16t-18.5 -10l-1 -3t-1 -5q0 -4 1 -7l1 -3l283 -338l360 352l-155 80h502v-8q-29 -10 -45.5 -16t-26.5 -17l-522 -508v-112h407l-125 -121h-282v-102h407l-125 -121h-282v-285h-476v285h-348v121h348v102h-348v121 h344z" />
<glyph unicode="&#xa6;" horiz-adv-x="659" d="M80 0v1290h500v-1290h-500z" />
<glyph unicode="&#xa7;" horiz-adv-x="1757" d="M68 0h782l-53 20q-4 2 -19.5 10.5t-33 16.5t-32 16.5t-16.5 10.5l-1 3t-1 5q0 4 1 7l1 3l52 62h432q12 0 31.5 4t39.5 14l99 127q2 2 2 23v565l331 405h-782l53 -20q4 -4 18.5 -12.5t32 -17.5t32 -16t18.5 -9l1 -3q1 -4 1 -6q0 -4 -1 -7l-1 -3l-70 -86h-444l-23 -2 l-131 -100q-20 -43 -20 -92v-556zM715 348v565q18 72 45.5 92.5t44.5 24.5h110h3q8 -2 20 -8t24.5 -18.5t25 -34t20.5 -56.5v-565q-8 -37 -20.5 -58.5t-26 -33.5t-25.5 -16t-21 -4h-110q-8 0 -19.5 4t-23.5 16t-24.5 33.5t-22.5 58.5z" />
<glyph unicode="&#xa8;" horiz-adv-x="1030" d="M80 1036v254h350v-254h-350zM600 1036v254h350v-254h-350z" />
<glyph unicode="&#xa9;" horiz-adv-x="591" d="M80 1149q0 -51 31 -94q14 -23 34.5 -38.5t44.5 -27.5q45 -27 107 -26q66 0 111 26q45 20 79 66q31 43 31 94q0 49 -31 90q-25 43 -81 68q-54 24 -109 24q-53 0 -104 -24q-31 -12 -47.5 -28.5t-32.5 -39.5q-23 -25 -28 -48.5t-5 -41.5zM117 1149q0 29 15 57.5t40 51 t57.5 35t67.5 10.5q35 0 90 -23q39 -16 68 -55q25 -31 24 -76q0 -47 -24 -78q-49 -76 -158 -76q-78 0 -129 44t-51 110zM186 1149q0 -106 111 -107q90 0 109 68l-39 8q-6 -47 -70 -47q-70 0 -70 76q0 78 76 78q39 0 64 -39l32 8q-18 55 -96 55q-55 0 -86 -23.5t-31 -76.5z " />
<glyph unicode="&#xaa;" horiz-adv-x="1669" d="M80 260q0 -78 27.5 -128t65.5 -79.5t77 -41t61 -11.5h744q135 111 260 272.5t254 348.5l33 47h-695q53 -45 96.5 -62.5t83.5 -40.5l3 -4q0 -4 -4 -5l-3 -1l-354 -428h-90q-23 8 -45.5 39t-38.5 98v762q10 49 26.5 79t35 46t35 21.5t28.5 7.5h262q29 -18 52.5 -43 t39.5 -43l230 -342l20 -13q8 29 23.5 100.5t31 151.5t28.5 151.5t17 102.5q0 14 -30 39l-39 6h-1004q-23 0 -61.5 -11t-76.5 -41t-65.5 -80t-27.5 -128v-770z" />
<glyph unicode="&#xab;" horiz-adv-x="841" d="M80 530l309 -124v286l-158 74l158 65v287l-309 -127v-461zM453 532l309 -124v286l-158 74l158 66v286l-309 -127v-461z" />
<glyph unicode="&#xac;" horiz-adv-x="708" d="M80 707v122h549v-286h-150v164h-399z" />
<glyph unicode="&#xad;" horiz-adv-x="622" d="M80 707h350l125 122h-475v-122z" />
<glyph unicode="&#xae;" horiz-adv-x="1521" d="M68 14q0 6 5 22.5t7 20.5q8 27 30.5 91.5t48 135t50.5 133t37 87.5l14 -12l180 -394l15 -10q2 0 18 -1t43 -3t49 -2q33 0 35 2h12q72 0 104 28.5t36 69.5l2 27q0 20 -6.5 39.5t-22.5 40.5q-23 20 -71 85.5t-108.5 153.5t-127 188.5t-124.5 189.5t-102.5 155.5t-58.5 87.5 q-20 23 -20 39q0 -2 1 3l3 15l-2 4q2 25 23.5 40.5t53 24.5t71.5 12t81 3h1110l-4 -35l-170 -477l-20 13l-246 372q-4 16 -23 17l-12 6h-12q-37 4 -69 6t-60 2q-53 0 -84 -11.5t-37 -39.5l-2 -35q0 -10 2 -20.5t14 -20.5l662 -922q10 -10 12 -21t2 -22l-2 -28 q-6 -45 -59.5 -59.5t-139.5 -14.5h-1085z" />
<glyph unicode="&#xaf;" horiz-adv-x="931" d="M80 1167h659l125 123h-784v-123z" />
<glyph unicode="&#xb0;" horiz-adv-x="509" d="M80 1036v254h350v-254h-350z" />
<glyph unicode="&#xb1;" horiz-adv-x="708" d="M80 342v123h549v-123h-549zM80 707v122h201v164h149v-164h199v-122h-199v-164h-149v164h-201z" />
<glyph unicode="&#xb2;" horiz-adv-x="808" d="M68 1335h493q39 0 63.5 -12t39 -32.5t18.5 -44t4 -44.5v-18q-12 -16 -48 -67.5t-79 -110t-82 -108.5t-57 -64q-10 -10 -12 -19.5t-2 -19.5v-15q4 -20 19 -34.5t50 -14.5h25q16 0 36 1l19 1l186 31l-18 -74h-588q-29 0 -41 7.5t-14 29.5l-2 14q0 10 6 21l346 461q6 8 6 20 v19l-2 2q-2 4 -7 8t-21 12q-2 2 -29 2h-29q-16 0 -34.5 -4t-26.5 -10l-121 -187l-10 -6l-86 238z" />
<glyph unicode="&#xb3;" horiz-adv-x="841" d="M68 1335h589q25 0 38.5 -20.5t13.5 -36.5v-10q0 -12 -15 -27q-4 -8 -19.5 -27.5t-33.5 -40t-34.5 -39t-24.5 -24.5v-10h86q43 0 73.5 -10.5t30.5 -51.5v-16v-8q0 -14 -14 -27q-16 -18 -45 -52t-58.5 -67.5t-54.5 -61.5t-31 -34q-12 -12 -28.5 -26.5t-36 -26.5t-42 -20.5 t-42.5 -8.5h-320v62h195l250 286h-318q10 12 47 46t78 72t73 68.5t32 37.5v10h-324z" />
<glyph unicode="&#xb4;" horiz-adv-x="665" d="M68 1036h350l180 254h-375z" />
<glyph unicode="&#xb5;" horiz-adv-x="1665" d="M80 260v770q0 78 27.5 128t65.5 80t77 41t61 11h883q25 0 63.5 -11t76.5 -41t65.5 -80t27.5 -128v-276q27 -6 53.5 -13.5t48 -17.5t35 -24.5t13.5 -32.5v-594l135 -144h-610v72h-791q-23 0 -61.5 11.5t-76.5 41t-65.5 79.5t-27.5 128zM555 264q10 -49 26.5 -78.5t35 -46 t35 -21.5t28.5 -7h147q12 2 28.5 8t34 21.5t34 45t28.5 78.5v762q-12 49 -28.5 79t-34 45t-33.5 21.5t-29 8.5h-147q-12 -2 -28.5 -7.5t-35 -21.5t-35 -46t-26.5 -79v-762z" />
<glyph unicode="&#xb6;" horiz-adv-x="280" d="M80 -248v1784h121v-1784h-121z" />
<glyph unicode="&#xb7;" horiz-adv-x="509" d="M80 573h350v254h-350v-254z" />
<glyph unicode="&#xb8;" horiz-adv-x="1650" d="M68 1290h397l512 -461v461h606q0 -4 -2 -10t-4 -10l-2 -2q-6 -8 -20.5 -25.5t-30 -37t-28.5 -36t-19 -22.5v-1147l-803 707v-707h-598l74 82q6 6 15 21.5t9 19.5v1024q-6 6 -20.5 22.5t-29.5 36t-28.5 37t-17.5 25.5l-2 2q-8 10 -8 20z" />
<glyph unicode="&#xb9;" horiz-adv-x="489" d="M68 1335h305v-583q0 -4 5 -10.5t7 -10.5l37 -41h-350l39 41q2 4 7 10.5t5 10.5v512q-8 4 -24.5 25.5t-22.5 31.5l-4 4q-4 4 -4 10z" />
<glyph unicode="&#xba;" horiz-adv-x="833" d="M80 819v385q0 39 14.5 64.5t32.5 40t37.5 20.5t32.5 6h440q12 0 31.5 -6t39 -20.5t33 -40t13.5 -64.5v-385q0 -39 -13.5 -63.5t-33 -39t-39 -20.5t-31.5 -6h-440q-12 0 -32 6t-38 20.5t-32.5 39t-14.5 63.5zM317 821q12 -49 31 -61t31 -15h76q14 2 31.5 14.5t31.5 61.5 v381q-14 49 -31.5 61.5t-31.5 16.5h-76q-12 -2 -31 -14.5t-31 -63.5v-381z" />
<glyph unicode="&#xbb;" horiz-adv-x="841" d="M78 408v286l158 74l-158 66v286l309 -127v-461zM451 406v286l155 74l-155 65v287l309 -127v-461z" />
<glyph unicode="&#xbc;" horiz-adv-x="1767" d="M68 0h491l-137 80l1194 1171q10 10 26.5 16.5t47.5 16.5v8h-504l155 -80l-1198 -1169q-10 -10 -28.5 -20.5t-46.5 -14.5v-8zM297 1292q0 -8 6 -10l2 -4q8 -10 23.5 -31.5t23.5 -25.5v-512q0 -4 -5 -10.5t-7 -10.5l-37 -41h348l-37 41q-2 4 -7 10.5t-5 10.5v583h-305z M864 188h420v-188h299l-37 41q-12 12 -12 20v127h98l62 62h-160v323q8 10 28.5 35t24.5 37h-303zM1151 250l133 143v-143h-133z" />
<glyph unicode="&#xbd;" horiz-adv-x="1843" d="M68 0v8q29 4 47 14.5t28 20.5l1198 1169l-155 80h504v-8q-31 -10 -47.5 -16t-26.5 -17l-1194 -1171l137 -80h-491zM297 1292h305v-583q0 -4 5 -10.5t7 -10.5l37 -41h-348l37 41q2 4 7 10.5t5 10.5v512q-8 4 -23.5 25.5t-23.5 31.5l-2 4q-6 2 -6 10zM1102 645h495 q39 0 64 -12t38 -32.5t18 -44.5t5 -44v-18q-12 -16 -49 -67.5t-80 -110t-81.5 -108.5t-57.5 -65q-10 -10 -12 -19t-2 -20v-14q4 -20 19.5 -34.5t49.5 -14.5h25q16 0 36 1l19 1l187 31l-19 -74h-588q-29 0 -41 7t-14 30l-2 14q0 12 8 21l344 460q8 10 9 21v18l-5 2 q-2 4 -7 8.5t-21 12.5q-2 2 -29 2h-29q-16 0 -34.5 -4t-26.5 -10l-121 -187l-10 -6l-86 238z" />
<glyph unicode="&#xbe;" horiz-adv-x="1767" d="M68 0v8q29 4 47 14.5t28 20.5l1198 1169l-155 80h504v-8q-31 -10 -47.5 -16t-26.5 -17l-1194 -1171l137 -80h-491zM125 1294h590q25 0 39 -20.5t14 -36.5v-10q0 -10 -16 -27q-4 -8 -19.5 -27.5t-34 -40t-35 -39t-24.5 -24.5v-10h86q43 0 73.5 -10.5t30.5 -51.5v-16v-8 q0 -14 -14 -27q-16 -18 -45 -52t-58.5 -67.5t-54 -61.5t-30.5 -34q-12 -12 -28.5 -26.5t-36 -26.5t-42 -20.5t-43.5 -8.5h-319v62h194l250 286h-317q10 12 47 46t78 72t72.5 68.5t31.5 37.5v10h-324zM864 188l420 457h303q-4 -12 -24.5 -36.5t-28.5 -35.5v-323h160l-62 -62 h-98v-127q0 -8 12 -20l37 -41h-299v188h-420zM1151 250h133v143z" />
<glyph unicode="&#xbf;" horiz-adv-x="1388" d="M70 385q0 -27 17 -48.5t47 -39.5t67 -32.5t75 -26.5l953 -316l92 -22v37l-92 555l-23 -11l-295 -325q-2 -14 -18 -15h-27q-104 20 -155.5 61.5t-51.5 94.5q0 16 3.5 35.5t23.5 38.5q76 63 159 128.5t162.5 131t149.5 130.5t119 128l-371 59q0 -25 -51 -65.5t-130 -89 t-175 -100.5t-186.5 -100t-163 -87t-105.5 -62q-20 -18 -22 -29.5t-2 -21.5v-8zM930 1038h350v254h-350v-254z" />
<glyph unicode="&#xc0;" d="M68 0v16l2 2q16 10 39.5 27.5t33.5 36.5l107 240l-2 16q0 18 -9.5 32.5t-21.5 26t-24.5 23.5t-20.5 29q-4 8 -5 19l-1 11h153l297 668l-153 143h614l627 -1290h-789l52 43q4 4 18 19.5t31.5 32t32 31.5t18.5 19q0 2 1 9.5t1 11.5t-1 11t-1 9l-80 181h-506l-39 -21 l-88 -211l158 -135h-444zM500 489h428l-187 412l-24 41l-5 2t-10 2q-2 0 -1 -1l4 -3zM553 1686h375l153 -254h-350z" />
<glyph unicode="&#xc1;" d="M68 0v16l2 2q16 10 39.5 27.5t33.5 36.5l107 240l-2 16q0 18 -9.5 32.5t-21.5 26t-24.5 23.5t-20.5 29q-4 8 -5 19l-1 11h153l297 668l-153 143h614l627 -1290h-789l52 43q4 4 18 19.5t31.5 32t32 31.5t18.5 19q0 2 1 9.5t1 11.5t-1 11t-1 9l-80 181h-506l-39 -21 l-88 -211l158 -135h-444zM500 489h428l-187 412l-24 41l-5 2t-10 2q-2 0 -1 -1l4 -3zM614 1434l156 254h375l-180 -254h-351z" />
<glyph unicode="&#xc2;" d="M68 0v16l2 2q16 10 39.5 27.5t33.5 36.5l107 240l-2 16q0 18 -9.5 32.5t-21.5 26t-24.5 23.5t-20.5 29q-4 8 -5 19l-1 11h153l297 668l-153 143h614l627 -1290h-789l52 43q4 4 18 19.5t31.5 32t32 31.5t18.5 19q0 2 1 9.5t1 11.5t-1 11t-1 9l-80 181h-506l-39 -21 l-88 -211l158 -135h-444zM418 1434l153 254h564l151 -254h-350l-88 129l-80 -129h-350zM500 489h428l-187 412l-24 41l-5 2t-10 2q-2 0 -1 -1l4 -3z" />
<glyph unicode="&#xc3;" d="M68 0v16l2 2q16 10 39.5 27.5t33.5 36.5l107 240l-2 16q0 18 -9.5 32.5t-21.5 26t-24.5 23.5t-20.5 29q-4 8 -5 19l-1 11h153l297 668l-153 143h614l627 -1290h-789l52 43q4 4 18 19.5t31.5 32t32 31.5t18.5 19q0 2 1 9.5t1 11.5t-1 11t-1 9l-80 181h-506l-39 -21 l-88 -211l158 -135h-444zM377 1432l119 251h428l71 -129l58 129h266l-123 -251h-426l-65 129l-60 -129h-268zM500 489h428l-187 412l-24 41l-5 2t-10 2q-2 0 -1 -1l4 -3z" />
<glyph unicode="&#xc4;" d="M68 0v16l2 2q16 10 39.5 27.5t33.5 36.5l107 240l-2 16q0 18 -9.5 32.5t-21.5 26t-24.5 23.5t-20.5 29q-4 8 -5 19l-1 11h153l297 668l-153 143h614l627 -1290h-789l52 43q4 4 18 19.5t31.5 32t32 31.5t18.5 19q0 2 1 9.5t1 11.5t-1 11t-1 9l-80 181h-506l-39 -21 l-88 -211l158 -135h-444zM408 1434v254h350v-254h-350zM500 489h428l-187 412l-24 41l-5 2t-10 2q-2 0 -1 -1l4 -3zM928 1434v254h348v-254h-348z" />
<glyph unicode="&#xc5;" d="M68 0v16l2 2q16 10 39.5 27.5t33.5 36.5l107 240l-2 16q0 18 -9.5 32.5t-21.5 26t-24.5 23.5t-20.5 29q-4 8 -5 19l-1 11h153l297 668l-153 143h614l627 -1290h-789l52 43q4 4 18 19.5t31.5 32t32 31.5t18.5 19q0 2 1 9.5t1 11.5t-1 11t-1 9l-80 181h-506l-39 -21 l-88 -211l158 -135h-444zM500 489h428l-187 412l-24 41l-5 2t-10 2q-2 0 -1 -1l4 -3zM670 1434v254h350v-254h-350z" />
<glyph unicode="&#xc6;" horiz-adv-x="2650" d="M68 0v16q16 10 40.5 27.5t34.5 38.5l107 240l-2 16q0 18 -9.5 32.5t-21.5 26t-24.5 23.5t-20.5 29q-4 8 -5 19l-1 11h153l297 668l-153 143h614l369 -762v576q0 4 -9.5 18.5t-15.5 22.5l-125 145h1250v-192l-125 82h-475v-351h551l-125 -122h-426v-584h450l174 123v-246 h-1655l52 43q4 4 18 19.5t31.5 32t32 31.5t18.5 19q0 2 1 9.5t1 11.5t-1 11t-1 9l-80 181h-506l-39 -21l-88 -211l158 -135h-444zM500 489h428l-187 412l-24 41l-5 2t-10 2q-2 0 -1 -1l4 -3z" />
<glyph unicode="&#xc7;" horiz-adv-x="1452" d="M80 260q0 -78 27.5 -128t65.5 -79.5t77 -41t61 -11.5h424v-123h-200v-123h350v246h407v246l-176 -123h-477q-23 10 -45.5 42t-38.5 99v762q10 49 26.5 79t35 46t35 21.5t28.5 7.5h262q29 -18 52.5 -43t39.5 -43l230 -342l20 -13q8 29 23.5 100.5t31 151.5t28.5 151.5 t17 102.5q0 14 -30 39l-39 6h-1004q-23 0 -61.5 -11t-76.5 -41t-65.5 -80t-27.5 -128v-770z" />
<glyph unicode="&#xc8;" horiz-adv-x="1421" d="M68 1290h1249v-192l-125 82h-475v-351h551l-125 -122h-426v-584h450l174 123v-246h-1257q0 12 8 20l101 103q6 6 15 21.5t9 19.5v940q0 4 -9 18.5t-15 22.5zM410 1686h374l156 -254h-350z" />
<glyph unicode="&#xc9;" horiz-adv-x="1421" d="M68 1290h1249v-192l-125 82h-475v-351h551l-125 -122h-426v-584h450l174 123v-246h-1257q0 12 8 20l101 103q6 6 15 21.5t9 19.5v940q0 4 -9 18.5t-15 22.5zM457 1432l155 254h375l-180 -254h-350z" />
<glyph unicode="&#xca;" horiz-adv-x="1421" d="M68 1290h1249v-192l-125 82h-475v-351h551l-125 -122h-426v-584h450l174 123v-246h-1257q0 12 8 20l101 103q6 6 15 21.5t9 19.5v940q0 4 -9 18.5t-15 22.5zM274 1434l156 254h561l154 -254h-350l-90 129l-80 -129h-351z" />
<glyph unicode="&#xcb;" horiz-adv-x="1421" d="M68 1290h1249v-192l-125 82h-475v-351h551l-125 -122h-426v-584h450l174 123v-246h-1257q0 12 8 20l101 103q6 6 15 21.5t9 19.5v940q0 4 -9 18.5t-15 22.5zM274 1434v254h351v-254h-351zM795 1434v254h350v-254h-350z" />
<glyph unicode="&#xcc;" horiz-adv-x="851" d="M66 1290h716q0 -4 -3 -10l-5 -10l-2 -2q-4 -8 -17.5 -25.5t-28.5 -36t-30.5 -36t-21.5 -23.5v-1024q0 -4 10 -19.5t16 -21.5l74 -82h-702l75 82q6 6 15.5 21.5t9.5 19.5v1024q-6 6 -20.5 22.5t-30 36t-28.5 37t-17 25.5l-4 2q-2 4 -4 10t-2 10zM143 1688h375l154 -254 h-350z" />
<glyph unicode="&#xcd;" horiz-adv-x="851" d="M68 1290h716q0 -10 -8 -20l-2 -2q-4 -8 -17.5 -25.5t-28.5 -37t-29.5 -36t-20.5 -22.5v-1024q0 -4 9 -19.5t15 -21.5l74 -82h-700l74 82q6 6 15 21.5t9 19.5v1024q-6 6 -20.5 22.5t-29.5 36t-28.5 37t-17.5 25.5l-2 2q-8 10 -8 20zM178 1434l154 254h375l-181 -254h-348z " />
<glyph unicode="&#xce;" horiz-adv-x="851" d="M-12 1432l155 254h562l151 -254h-348l-90 129l-80 -129h-350zM68 1290h716q0 -10 -8 -20l-2 -2q-4 -8 -17.5 -25.5t-28.5 -37t-29.5 -36t-20.5 -22.5v-1024q0 -4 9 -19.5t15 -21.5l74 -82h-700l74 82q6 6 15 21.5t9 19.5v1024q-6 6 -20.5 22.5t-29.5 36t-28.5 37 t-17.5 25.5l-2 2q-8 10 -8 20z" />
<glyph unicode="&#xcf;" horiz-adv-x="851" d="M-10 1432v254h350v-254h-350zM68 1290h716q0 -10 -8 -20l-2 -2q-4 -8 -17.5 -25.5t-28.5 -37t-29.5 -36t-20.5 -22.5v-1024q0 -4 9 -19.5t15 -21.5l74 -82h-700l74 82q6 6 15 21.5t9 19.5v1024q-6 6 -20.5 22.5t-29.5 36t-28.5 37t-17.5 25.5l-2 2q-8 10 -8 20zM510 1432 v254h350v-254h-350z" />
<glyph unicode="&#xd0;" horiz-adv-x="1785" d="M80 705v124h149v297q0 4 -9 19.5t-15 21.5l-125 123h1626v-626q0 -18 -3 -33t-24 -37q-31 -37 -89 -103.5t-118.5 -135t-108.5 -124t-58 -67.5q-23 -23 -57 -51.5t-73.5 -53t-83.5 -42t-87 -17.5h-775v705h-149zM729 123h25l499 573v471h-524v-338h297l-125 -124h-172 v-582z" />
<glyph unicode="&#xd1;" horiz-adv-x="1650" d="M68 1290h516l393 -461v461h606q-12 -23 -37.5 -59.5t-68.5 -83.5v-1024l100 -123h-313l-590 707v-707h-598l74 82q6 6 15 21.5t9 19.5v1024q-6 6 -20.5 22.5t-31 38t-31.5 44t-23 38.5zM365 1434l116 252h430l70 -130l59 130h267l-123 -252h-426l-66 129l-59 -129h-268z " />
<glyph unicode="&#xd2;" horiz-adv-x="1507" d="M78 260v770q0 78 27.5 128t65.5 80t77 41t61 11h883q23 0 61.5 -11t76.5 -41t65.5 -80t27.5 -128v-770q0 -78 -27.5 -128t-65.5 -79.5t-77 -41t-61 -11.5h-883q-23 0 -61.5 11.5t-76.5 41t-65.5 79.5t-27.5 128zM457 1686h374l156 -254h-350zM553 264q12 -49 28.5 -78.5 t34 -45t34 -21.5t28.5 -8h147q10 2 27.5 8t36 21.5t35 45t26.5 78.5v762q-10 49 -26.5 79t-35 45t-35.5 21.5t-28 8.5h-147q-12 -2 -28.5 -8.5t-34 -21.5t-34 -45t-28.5 -79v-762z" />
<glyph unicode="&#xd3;" horiz-adv-x="1507" d="M80 260v770q0 78 27.5 128t65.5 80t77 41t61 11h883q25 0 63.5 -11t76.5 -41t65.5 -80t27.5 -128v-770q0 -78 -27.5 -128t-65.5 -79.5t-76.5 -41t-63.5 -11.5h-883q-23 0 -61.5 11.5t-76.5 41t-65.5 79.5t-27.5 128zM518 1432l154 254h375l-181 -254h-348zM555 264 q10 -49 26.5 -78.5t35 -46t35 -21.5t28.5 -7h147q12 2 28.5 8t34 21.5t34 45t28.5 78.5v762q-12 49 -28.5 79t-34 45t-33.5 21.5t-29 8.5h-147q-12 -2 -28.5 -7.5t-35 -21.5t-35 -46t-26.5 -79v-762z" />
<glyph unicode="&#xd4;" horiz-adv-x="1507" d="M80 260v770q0 78 27.5 128t65.5 80t77 41t61 11h883q25 0 63.5 -11t76.5 -41t65.5 -80t27.5 -128v-770q0 -78 -27.5 -128t-65.5 -79.5t-76.5 -41t-63.5 -11.5h-883q-23 0 -61.5 11.5t-76.5 41t-65.5 79.5t-27.5 128zM328 1434l153 254h563l152 -254h-348l-90 129 l-80 -129h-350zM555 264q10 -49 26.5 -78.5t35 -46t35 -21.5t28.5 -7h147q12 2 28.5 8t34 21.5t34 45t28.5 78.5v762q-12 49 -28.5 79t-34 45t-33.5 21.5t-29 8.5h-147q-12 -2 -28.5 -7.5t-35 -21.5t-35 -46t-26.5 -79v-762z" />
<glyph unicode="&#xd5;" horiz-adv-x="1507" d="M80 260v770q0 78 27.5 128t65.5 80t77 41t61 11h883q25 0 63.5 -11t76.5 -41t65.5 -80t27.5 -128v-770q0 -78 -27.5 -128t-65.5 -79.5t-76.5 -41t-63.5 -11.5h-883q-23 0 -61.5 11.5t-76.5 41t-65.5 79.5t-27.5 128zM291 1436l117 252h430l69 -129l58 129h266l-121 -252 h-428l-66 129l-59 -129h-266zM555 264q10 -49 26.5 -78.5t35 -46t35 -21.5t28.5 -7h147q12 2 28.5 8t34 21.5t34 45t28.5 78.5v762q-12 49 -28.5 79t-34 45t-33.5 21.5t-29 8.5h-147q-12 -2 -28.5 -7.5t-35 -21.5t-35 -46t-26.5 -79v-762z" />
<glyph unicode="&#xd6;" horiz-adv-x="1507" d="M80 260v770q0 78 27.5 128t65.5 80t77 41t61 11h883q25 0 63.5 -11t76.5 -41t65.5 -80t27.5 -128v-770q0 -78 -27.5 -128t-65.5 -79.5t-76.5 -41t-63.5 -11.5h-883q-23 0 -61.5 11.5t-76.5 41t-65.5 79.5t-27.5 128zM326 1432v254h348v-254h-348zM555 264 q10 -49 26.5 -78.5t35 -46t35 -21.5t28.5 -7h147q12 2 28.5 8t34 21.5t34 45t28.5 78.5v762q-12 49 -28.5 79t-34 45t-33.5 21.5t-29 8.5h-147q-12 -2 -28.5 -7.5t-35 -21.5t-35 -46t-26.5 -79v-762zM844 1432v254h350v-254h-350z" />
<glyph unicode="&#xd7;" horiz-adv-x="655" d="M80 651l143 117l-143 117l104 86l144 -117l141 117l106 -86l-143 -117l143 -117l-106 -86l-141 117l-144 -117z" />
<glyph unicode="&#xd8;" horiz-adv-x="1507" d="M80 260q0 -78 27.5 -128t65.5 -79.5t77 -41t61 -11.5h883q25 0 63.5 11.5t76.5 41t65.5 79.5t27.5 128v770q0 78 -27.5 128t-65.5 80t-76.5 41t-63.5 11h-883q-23 0 -61.5 -11t-76.5 -41t-65.5 -80t-27.5 -128v-770zM555 264v92l397 416v-508q-12 -49 -28.5 -78.5 t-34 -45t-34 -21.5t-28.5 -8h-147q-12 2 -28.5 7t-35 21.5t-35 46t-26.5 78.5zM555 539v487q10 49 26.5 79t35 46t35 21.5t28.5 7.5h147q12 -2 28.5 -8.5t34 -21.5t34 -45t28.5 -79v-86z" />
<glyph unicode="&#xd9;" horiz-adv-x="1609" d="M68 1290h610v-1026q12 -49 28.5 -78.5t34 -45t34 -21.5t28.5 -8h4q12 2 28.5 7t35 21.5t35 46t26.5 78.5v1026h610l-135 -141v-889q0 -78 -27.5 -128t-65.5 -79.5t-77 -41t-63 -11.5h-740q-23 0 -61.5 11.5t-76.5 41t-65.5 79.5t-27.5 128v889zM518 1688h375l154 -254 h-351z" />
<glyph unicode="&#xda;" horiz-adv-x="1609" d="M68 1290h610v-1026q10 -49 26.5 -78.5t35 -46t35 -21.5t28.5 -7h4q12 2 28.5 8t34 21.5t34 45t28.5 78.5v1026h610l-135 -141v-889q0 -78 -27.5 -128t-65.5 -79.5t-77 -41t-63 -11.5h-740q-23 0 -61.5 11.5t-76.5 41t-65.5 79.5t-27.5 128v889zM561 1434l156 254h375 l-181 -254h-350z" />
<glyph unicode="&#xdb;" horiz-adv-x="1609" d="M68 1290h610v-1026q10 -49 26.5 -78.5t35 -46t35 -21.5t28.5 -7h4q12 2 28.5 8t34 21.5t34 45t28.5 78.5v1026h610l-135 -141v-889q0 -78 -27.5 -128t-65.5 -79.5t-77 -41t-63 -11.5h-740q-23 0 -61.5 11.5t-76.5 41t-65.5 79.5t-27.5 128v889zM371 1434l153 254h563 l152 -254h-350l-90 129l-80 -129h-348z" />
<glyph unicode="&#xdc;" horiz-adv-x="1609" d="M68 1290h610v-1026q10 -49 26.5 -78.5t35 -46t35 -21.5t28.5 -7h4q12 2 28.5 8t34 21.5t34 45t28.5 78.5v1026h610l-135 -141v-889q0 -78 -27.5 -128t-65.5 -79.5t-77 -41t-63 -11.5h-740q-23 0 -61.5 11.5t-76.5 41t-65.5 79.5t-27.5 128v889zM371 1434v254h348v-254 h-348zM889 1434v254h350v-254h-350z" />
<glyph unicode="&#xdd;" horiz-adv-x="1753" d="M68 1290h782l-53 -20q-4 -4 -18.5 -12.5t-32 -17.5t-32 -16t-18.5 -10l-1 -3t-1 -5q0 -4 1 -7l1 -3l283 -338l360 352l-155 80h502v-8q-29 -10 -45.5 -16t-26.5 -17l-522 -508v-741h-574l74 82q6 6 15 21.5t9 19.5v502zM670 1434l155 254h375l-180 -254h-350z" />
<glyph unicode="&#xde;" horiz-adv-x="1583" d="M68 1290h579v-307h815q29 0 42.5 -28.5t13.5 -51.5l-5 -12q-10 -27 -36.5 -76t-64.5 -105.5t-83 -115.5t-92 -106.5t-93 -78t-85 -30.5h-412v-379h-571l74 82q6 4 13 14t11 19v1032q-6 6 -20.5 22.5t-29.5 36t-28.5 37t-17.5 25.5l-2 2q-8 10 -8 20zM659 492q33 14 80 54 t97.5 95t97.5 117.5t78 122.5h-353v-389z" />
<glyph unicode="&#xdf;" horiz-adv-x="1882" d="M-18 -248h600v1356l135 57h469v-20q0 -10 -30 -42t-76 -76t-101 -95t-106.5 -97.5t-92.5 -84t-55 -54.5h637l-500 -573h-135v-123h385q43 0 86 17.5t83 42t74 53t56 51.5q12 12 60.5 67.5t108.5 123t117.5 135t88.5 104.5q23 23 26 37t3 33v32q0 39 -17.5 63.5t-46.5 38 t-66.5 17.5t-78.5 4h-170v21q12 14 43.5 51t68.5 79t69 79.5t44 54.5q23 25 26 35t3 37q0 14 -7.5 34.5t-21.5 38t-33.5 29.5t-44.5 12h-1175l-326 -143v-1272q0 -4 -9.5 -19.5t-15.5 -21.5z" />
<glyph unicode="&#xe0;" d="M68 0v16l2 2q16 10 39.5 27.5t33.5 36.5l107 240l-2 16q0 18 -9.5 32.5t-21.5 26t-24.5 23.5t-20.5 29q-4 8 -5 19l-1 11h153l297 668l-153 143h614l627 -1290h-789l52 43q4 4 18 19.5t31.5 32t32 31.5t18.5 19q0 2 1 9.5t1 11.5t-1 11t-1 9l-80 181h-506l-39 -21 l-88 -211l158 -135h-444zM500 489h428l-187 412l-24 41l-5 2t-10 2q-2 0 -1 -1l4 -3zM553 1686h375l153 -254h-350z" />
<glyph unicode="&#xe1;" d="M68 0v16l2 2q16 10 39.5 27.5t33.5 36.5l107 240l-2 16q0 18 -9.5 32.5t-21.5 26t-24.5 23.5t-20.5 29q-4 8 -5 19l-1 11h153l297 668l-153 143h614l627 -1290h-789l52 43q4 4 18 19.5t31.5 32t32 31.5t18.5 19q0 2 1 9.5t1 11.5t-1 11t-1 9l-80 181h-506l-39 -21 l-88 -211l158 -135h-444zM500 489h428l-187 412l-24 41l-5 2t-10 2q-2 0 -1 -1l4 -3zM614 1434l156 254h375l-180 -254h-351z" />
<glyph unicode="&#xe2;" d="M68 0v16l2 2q16 10 39.5 27.5t33.5 36.5l107 240l-2 16q0 18 -9.5 32.5t-21.5 26t-24.5 23.5t-20.5 29q-4 8 -5 19l-1 11h153l297 668l-153 143h614l627 -1290h-789l52 43q4 4 18 19.5t31.5 32t32 31.5t18.5 19q0 2 1 9.5t1 11.5t-1 11t-1 9l-80 181h-506l-39 -21 l-88 -211l158 -135h-444zM418 1434l153 254h564l151 -254h-350l-88 129l-80 -129h-350zM500 489h428l-187 412l-24 41l-5 2t-10 2q-2 0 -1 -1l4 -3z" />
<glyph unicode="&#xe3;" d="M68 0v16l2 2q16 10 39.5 27.5t33.5 36.5l107 240l-2 16q0 18 -9.5 32.5t-21.5 26t-24.5 23.5t-20.5 29q-4 8 -5 19l-1 11h153l297 668l-153 143h614l627 -1290h-789l52 43q4 4 18 19.5t31.5 32t32 31.5t18.5 19q0 2 1 9.5t1 11.5t-1 11t-1 9l-80 181h-506l-39 -21 l-88 -211l158 -135h-444zM377 1432l119 251h428l71 -129l58 129h266l-123 -251h-426l-65 129l-60 -129h-268zM500 489h428l-187 412l-24 41l-5 2t-10 2q-2 0 -1 -1l4 -3z" />
<glyph unicode="&#xe4;" d="M68 0v16l2 2q16 10 39.5 27.5t33.5 36.5l107 240l-2 16q0 18 -9.5 32.5t-21.5 26t-24.5 23.5t-20.5 29q-4 8 -5 19l-1 11h153l297 668l-153 143h614l627 -1290h-789l52 43q4 4 18 19.5t31.5 32t32 31.5t18.5 19q0 2 1 9.5t1 11.5t-1 11t-1 9l-80 181h-506l-39 -21 l-88 -211l158 -135h-444zM408 1434v254h350v-254h-350zM500 489h428l-187 412l-24 41l-5 2t-10 2q-2 0 -1 -1l4 -3zM928 1434v254h348v-254h-348z" />
<glyph unicode="&#xe5;" d="M68 0v16l2 2q16 10 39.5 27.5t33.5 36.5l107 240l-2 16q0 18 -9.5 32.5t-21.5 26t-24.5 23.5t-20.5 29q-4 8 -5 19l-1 11h153l297 668l-153 143h614l627 -1290h-789l52 43q4 4 18 19.5t31.5 32t32 31.5t18.5 19q0 2 1 9.5t1 11.5t-1 11t-1 9l-80 181h-506l-39 -21 l-88 -211l158 -135h-444zM500 489h428l-187 412l-24 41l-5 2t-10 2q-2 0 -1 -1l4 -3zM670 1434v254h350v-254h-350z" />
<glyph unicode="&#xe6;" horiz-adv-x="2650" d="M68 0v16q16 10 40.5 27.5t34.5 38.5l107 240l-2 16q0 18 -9.5 32.5t-21.5 26t-24.5 23.5t-20.5 29q-4 8 -5 19l-1 11h153l297 668l-153 143h614l369 -762v576q0 4 -9.5 18.5t-15.5 22.5l-125 145h1250v-192l-125 82h-475v-351h551l-125 -122h-426v-584h450l174 123v-246 h-1655l52 43q4 4 18 19.5t31.5 32t32 31.5t18.5 19q0 2 1 9.5t1 11.5t-1 11t-1 9l-80 181h-506l-39 -21l-88 -211l158 -135h-444zM500 489h428l-187 412l-24 41l-5 2t-10 2q-2 0 -1 -1l4 -3z" />
<glyph unicode="&#xe7;" horiz-adv-x="1462" d="M68 664q0 -18 3 -33t23 -37q31 -37 88.5 -103.5t117.5 -136t108.5 -124t60.5 -66.5q23 -23 57.5 -51.5t74.5 -53t84 -42t85 -17.5h2v-117h-201v-123h351v240h405v246l-176 -123h-131q-154 135 -278 274.5t-222 298.5q25 111 72 225.5t117 245.5l30 2h226q55 -45 79 -75 l230 -342l20 -13q8 29 23.5 100.5t31 151.5t29 151.5t17.5 102.5q0 4 -10.5 17.5t-22.5 23.5l-43 4h-981q-12 -2 -38 -39t-55.5 -93t-61 -123.5t-57.5 -133t-42 -121t-16 -84.5v-32z" />
<glyph unicode="&#xe8;" horiz-adv-x="1421" d="M68 1290h1249v-192l-125 82h-475v-351h551l-125 -122h-426v-584h450l174 123v-246h-1257q0 12 8 20l101 103q6 6 15 21.5t9 19.5v940q0 4 -9 18.5t-15 22.5zM410 1686h374l156 -254h-350z" />
<glyph unicode="&#xe9;" horiz-adv-x="1421" d="M68 1290h1249v-192l-125 82h-475v-351h551l-125 -122h-426v-584h450l174 123v-246h-1257q0 12 8 20l101 103q6 6 15 21.5t9 19.5v940q0 4 -9 18.5t-15 22.5zM457 1432l155 254h375l-180 -254h-350z" />
<glyph unicode="&#xea;" horiz-adv-x="1421" d="M68 1290h1249v-192l-125 82h-475v-351h551l-125 -122h-426v-584h450l174 123v-246h-1257q0 12 8 20l101 103q6 6 15 21.5t9 19.5v940q0 4 -9 18.5t-15 22.5zM274 1434l156 254h561l154 -254h-350l-90 129l-80 -129h-351z" />
<glyph unicode="&#xeb;" horiz-adv-x="1421" d="M68 1290h1249v-192l-125 82h-475v-351h551l-125 -122h-426v-584h450l174 123v-246h-1257q0 12 8 20l101 103q6 6 15 21.5t9 19.5v940q0 4 -9 18.5t-15 22.5zM274 1434v254h351v-254h-351zM795 1434v254h350v-254h-350z" />
<glyph unicode="&#xec;" horiz-adv-x="768" d="M-23 1434v254h351v-254h-351zM80 1290h606v-1290h-598l74 82q6 6 15 21.5t9 19.5v1024q-6 6 -20 22.5t-29.5 36t-29 37t-17.5 25.5l-2 2q-8 10 -8 20zM498 1434v254h350v-254h-350z" />
<glyph unicode="&#xed;" horiz-adv-x="768" d="M80 1290h606v-1290h-598l74 82q6 6 15 21.5t9 19.5v1024q-6 6 -20 22.5t-29.5 36t-29 37t-17.5 25.5l-2 2q-8 10 -8 20zM178 1434l154 254h375l-181 -254h-348z" />
<glyph unicode="&#xee;" horiz-adv-x="768" d="M-20 1432l155 254h561l154 -254h-350l-90 129l-80 -129h-350zM80 1290h606v-1290h-598l74 82q6 6 15 21.5t9 19.5v1024q-6 6 -20 22.5t-29.5 36t-29 37t-17.5 25.5l-2 2q-8 10 -8 20z" />
<glyph unicode="&#xef;" horiz-adv-x="768" d="M-23 1434v254h351v-254h-351zM80 1290h606v-1290h-598l74 82q6 6 15 21.5t9 19.5v1024q-6 6 -20 22.5t-29.5 36t-29 37t-17.5 25.5l-2 2q-8 10 -8 20zM498 1434v254h350v-254h-350z" />
<glyph unicode="&#xf0;" horiz-adv-x="1609" d="M68 668l32 -47q129 -186 254 -348t260 -273h226q66 0 131 37t116 78l3 2q16 12 27 24.5t22 22.5q12 12 60 67.5t108.5 123t118 135t87.5 104.5q23 23 26 37t3 33v32q0 29 -17.5 84.5t-44 121t-59 134t-63.5 123.5t-56.5 92t-37.5 39h-990l-32 -6q-12 -10 -19.5 -22.5 t-7.5 -16.5q2 -20 8 -60t15.5 -90.5t20.5 -104.5t21.5 -103t19.5 -89t15 -59l19 13l231 342q14 18 35 36.5t45 38.5h225l29 -2q70 -131 118 -245.5t73 -225.5l-15 -28h-1007zM592 547h389q-49 -61 -103.5 -120.5t-97.5 -107.5z" />
<glyph unicode="&#xf1;" horiz-adv-x="1658" d="M68 1290h397l512 -481v481h614q0 -4 -6 -10t-8 -10l-2 -2q-6 -8 -20.5 -25.5t-30 -37t-28.5 -36t-19 -22.5v-1219l-803 779v-707h-598l74 82q6 6 15 21.5t9 19.5v1024q-6 6 -20.5 22.5t-31 38t-31.5 44t-23 38.5zM365 1434l116 252h430l70 -130l59 130h267l-123 -252 h-426l-66 129l-59 -129h-268z" />
<glyph unicode="&#xf2;" horiz-adv-x="1763" d="M68 664v32q0 29 13 85.5t33.5 122t46 134t51.5 125t48.5 92t34.5 35.5h1173q12 0 35 -35.5t48.5 -92t51 -125t46 -134t34 -122t13.5 -85.5v-32q0 -18 -3 -33t-24 -37q-31 -37 -88 -104.5t-117.5 -135t-108.5 -123t-61 -67.5q-23 -23 -56.5 -51.5t-73.5 -53t-84 -42 t-85 -17.5h-225q-41 0 -85 17.5t-84 42t-74.5 53t-57.5 51.5q-10 12 -58.5 67.5t-108.5 124t-118.5 135t-89.5 103.5q-20 23 -23 37t-3 33zM520 696l363 -415l362 415q-25 111 -65.5 226.5t-110.5 246.5h-375q-70 -131 -109.5 -246.5t-64.5 -226.5zM588 1686h375l153 -254 h-348z" />
<glyph unicode="&#xf3;" horiz-adv-x="1763" d="M68 664v32q0 29 13 85.5t33.5 122t46 134t51.5 125t48.5 92t34.5 35.5h1173q12 0 35 -35.5t48.5 -92t51 -125t46 -134t34 -122t13.5 -85.5v-32q0 -18 -3 -33t-24 -37q-31 -37 -88 -104.5t-117.5 -135t-108.5 -123t-61 -67.5q-23 -23 -56.5 -51.5t-73.5 -53t-84 -42 t-85 -17.5h-225q-41 0 -85 17.5t-84 42t-74.5 53t-57.5 51.5q-10 12 -58.5 67.5t-108.5 124t-118.5 135t-89.5 103.5q-20 23 -23 37t-3 33zM520 696l363 -415l362 415q-25 111 -65.5 226.5t-110.5 246.5h-375q-70 -131 -109.5 -246.5t-64.5 -226.5zM647 1432l156 254h375 l-181 -254h-350z" />
<glyph unicode="&#xf4;" horiz-adv-x="1763" d="M68 664v32q0 29 13 85.5t33.5 122t46 134t51.5 125t48.5 92t34.5 35.5h1173q12 0 35 -35.5t48.5 -92t51 -125t46 -134t34 -122t13.5 -85.5v-32q0 -18 -3 -33t-24 -37q-31 -37 -88 -104.5t-117.5 -135t-108.5 -123t-61 -67.5q-23 -23 -56.5 -51.5t-73.5 -53t-84 -42 t-85 -17.5h-225q-41 0 -85 17.5t-84 42t-74.5 53t-57.5 51.5q-10 12 -58.5 67.5t-108.5 124t-118.5 135t-89.5 103.5q-20 23 -23 37t-3 33zM453 1434l153 254h563l152 -254h-348l-90 129l-80 -129h-350zM520 696l363 -415l362 415q-25 111 -65.5 226.5t-110.5 246.5h-375 q-70 -131 -109.5 -246.5t-64.5 -226.5z" />
<glyph unicode="&#xf5;" horiz-adv-x="1763" d="M68 664v32q0 29 13 85.5t33.5 122t46 134t51.5 125t48.5 92t34.5 35.5h1173q12 0 35 -35.5t48.5 -92t51 -125t46 -134t34 -122t13.5 -85.5v-32q0 -18 -3 -33t-24 -37q-31 -37 -88 -104.5t-117.5 -135t-108.5 -123t-61 -67.5q-23 -23 -56.5 -51.5t-73.5 -53t-84 -42 t-85 -17.5h-225q-41 0 -85 17.5t-84 42t-74.5 53t-57.5 51.5q-10 12 -58.5 67.5t-108.5 124t-118.5 135t-89.5 103.5q-20 23 -23 37t-3 33zM432 1434l117 252h430l70 -130l57 130h268l-123 -252h-426l-65 129l-60 -129h-268zM520 696l363 -415l362 415q-25 111 -65.5 226.5 t-110.5 246.5h-375q-70 -131 -109.5 -246.5t-64.5 -226.5z" />
<glyph unicode="&#xf6;" horiz-adv-x="1763" d="M68 664v32q0 29 13 85.5t33.5 122t46 134t51.5 125t48.5 92t34.5 35.5h1173q12 0 35 -35.5t48.5 -92t51 -125t46 -134t34 -122t13.5 -85.5v-32q0 -18 -3 -33t-24 -37q-31 -37 -88 -104.5t-117.5 -135t-108.5 -123t-61 -67.5q-23 -23 -56.5 -51.5t-73.5 -53t-84 -42 t-85 -17.5h-225q-41 0 -85 17.5t-84 42t-74.5 53t-57.5 51.5q-10 12 -58.5 67.5t-108.5 124t-118.5 135t-89.5 103.5q-20 23 -23 37t-3 33zM453 1432v254h350v-254h-350zM520 696l363 -415l362 415q-25 111 -65.5 226.5t-110.5 246.5h-375q-70 -131 -109.5 -246.5 t-64.5 -226.5zM973 1432v254h348v-254h-348z" />
<glyph unicode="&#xf7;" horiz-adv-x="942" d="M68 707v122h806l-124 -122h-682zM285 899v254h350v-254h-350zM287 383v254h350v-254h-350z" />
<glyph unicode="&#xf8;" horiz-adv-x="1763" d="M68 664q0 -18 3 -33t23 -37q31 -37 88.5 -103.5t117.5 -136t108.5 -124t60.5 -66.5q23 -23 57.5 -51.5t74.5 -53t84 -42t85 -17.5h225q41 0 85 17.5t84 42t74 53t56 51.5q12 12 60.5 67.5t109 123t117.5 135t88 104.5q20 23 23.5 37t3.5 33v32q0 29 -13.5 85.5t-34 122 t-46 134t-51 125t-48 92t-35.5 35.5h-1173q-14 0 -35.5 -35.5t-47.5 -92t-51.5 -125t-46 -134t-33.5 -122t-13 -85.5v-32zM520 696q25 111 65 226.5t109 246.5h375q8 -16 15.5 -31.5t15.5 -31.5l-496 -508zM702 487l463 476q29 -72 46.5 -136.5t33.5 -130.5l-362 -415z" />
<glyph unicode="&#xf9;" horiz-adv-x="1609" d="M68 1290h610v-1026q12 -49 28.5 -78.5t34 -45t34 -21.5t28.5 -8h4q12 2 28.5 7t35 21.5t35 46t26.5 78.5v1026h610l-135 -141v-889q0 -78 -27.5 -128t-65.5 -79.5t-77 -41t-63 -11.5h-740q-23 0 -61.5 11.5t-76.5 41t-65.5 79.5t-27.5 128v889zM518 1688h375l154 -254 h-351z" />
<glyph unicode="&#xfa;" horiz-adv-x="1609" d="M68 1290h610v-1026q10 -49 26.5 -78.5t35 -46t35 -21.5t28.5 -7h4q12 2 28.5 8t34 21.5t34 45t28.5 78.5v1026h610l-135 -141v-889q0 -78 -27.5 -128t-65.5 -79.5t-77 -41t-63 -11.5h-740q-23 0 -61.5 11.5t-76.5 41t-65.5 79.5t-27.5 128v889zM561 1434l156 254h375 l-181 -254h-350z" />
<glyph unicode="&#xfb;" horiz-adv-x="1609" d="M68 1290h610v-1026q10 -49 26.5 -78.5t35 -46t35 -21.5t28.5 -7h4q12 2 28.5 8t34 21.5t34 45t28.5 78.5v1026h610l-135 -141v-889q0 -78 -27.5 -128t-65.5 -79.5t-77 -41t-63 -11.5h-740q-23 0 -61.5 11.5t-76.5 41t-65.5 79.5t-27.5 128v889zM371 1434l153 254h563 l152 -254h-350l-90 129l-80 -129h-348z" />
<glyph unicode="&#xfc;" horiz-adv-x="1609" d="M68 1290h610v-1026q10 -49 26.5 -78.5t35 -46t35 -21.5t28.5 -7h4q12 2 28.5 8t34 21.5t34 45t28.5 78.5v1026h610l-135 -141v-889q0 -78 -27.5 -128t-65.5 -79.5t-77 -41t-63 -11.5h-740q-23 0 -61.5 11.5t-76.5 41t-65.5 79.5t-27.5 128v889zM371 1434v254h348v-254 h-348zM889 1434v254h350v-254h-350z" />
<glyph unicode="&#xfd;" horiz-adv-x="1753" d="M68 1290h782l-53 -20q-4 -4 -18.5 -12.5t-32 -17.5t-32 -16t-18.5 -10l-1 -3t-1 -5q0 -4 1 -7l1 -3l283 -338l360 352l-155 80h502v-8q-29 -10 -45.5 -16t-26.5 -17l-522 -508v-741h-476v625zM670 1434l155 254h375l-180 -254h-350z" />
<glyph unicode="&#xfe;" horiz-adv-x="1583" d="M68 1290h579v-307h815q29 0 42.5 -28.5t13.5 -51.5l-5 -12q-10 -27 -36.5 -76t-64.5 -105.5t-83 -115.5t-92 -106.5t-93 -78t-85 -30.5h-412v-379h-473v1147q-6 6 -20.5 22.5t-29.5 36t-28.5 37t-17.5 25.5l-2 2q-8 10 -8 20zM659 492q33 14 80 55t98.5 96t97.5 117.5 t77 122.5h-353v-391z" />
<glyph unicode="&#xff;" horiz-adv-x="1753" d="M68 1290h782l-53 -20q-4 -4 -18.5 -12.5t-32 -17.5t-32 -16t-18.5 -10l-1 -3t-1 -5q0 -4 1 -7l1 -3l283 -338l360 352l-155 80h502v-8q-29 -10 -45.5 -16t-26.5 -17l-522 -508v-741h-476v625zM436 1434v254h350v-254h-350zM956 1434v254h351v-254h-351z" />
<glyph unicode="&#x152;" horiz-adv-x="2238" d="M80 260v770q0 78 27.5 128t65.5 80t77 41t61 11h1823v-192l-125 82h-475v-351h549l-125 -122h-424v-584h451l174 123v-246h-1848q-23 0 -61.5 11.5t-76.5 41t-65.5 79.5t-27.5 128zM555 264q16 -68 38.5 -99.5t45.5 -41.5h371q6 6 15 21.5t9 19.5v930q-16 18 -39.5 42.5 t-52.5 43.5h-262q-12 -2 -28.5 -7.5t-35 -21.5t-35 -46t-26.5 -79v-762z" />
<glyph unicode="&#x153;" horiz-adv-x="2488" d="M68 664v32q0 29 16 84.5t42 121t57.5 133t61 123.5t55.5 93t38 39h2046v-192l-125 82h-475v-351h549l-125 -122h-424v-584h450l174 123v-246h-1638q-41 0 -85 17.5t-84 42t-74.5 53t-57.5 51.5q-10 12 -58.5 67.5t-108.5 124t-118.5 135t-89.5 103.5q-20 23 -23 37t-3 33 zM520 696q98 -160 222 -299t278 -274h131l133 92v530l-10 7l-230 342q-25 31 -79 75h-226l-30 -2q-70 -131 -117 -245.5t-72 -225.5z" />
<glyph unicode="&#x178;" horiz-adv-x="1753" d="M68 1290h782l-53 -20q-4 -4 -18.5 -12.5t-32 -17.5t-32 -16t-18.5 -10l-1 -3t-1 -5q0 -4 1 -7l1 -3l283 -338l360 352l-155 80h502v-8q-29 -10 -45.5 -16t-26.5 -17l-522 -508v-741h-574l74 82q6 6 15 21.5t9 19.5v502zM436 1434v254h350v-254h-350zM956 1434v254h351 v-254h-351z" />
<glyph unicode="&#x2c6;" horiz-adv-x="1003" d="M68 1036l155 254h561l152 -254h-348l-90 129l-80 -129h-350z" />
<glyph unicode="&#x2dc;" horiz-adv-x="1077" d="M68 1038l116 252h430l70 -129l57 129h269l-123 -252h-428l-64 129l-61 -129h-266z" />
<glyph unicode="&#x2000;" horiz-adv-x="909" />
<glyph unicode="&#x2001;" horiz-adv-x="1819" />
<glyph unicode="&#x2002;" horiz-adv-x="909" />
<glyph unicode="&#x2003;" horiz-adv-x="1819" />
<glyph unicode="&#x2004;" horiz-adv-x="606" />
<glyph unicode="&#x2005;" horiz-adv-x="454" />
<glyph unicode="&#x2006;" horiz-adv-x="303" />
<glyph unicode="&#x2007;" horiz-adv-x="303" />
<glyph unicode="&#x2008;" horiz-adv-x="227" />
<glyph unicode="&#x2009;" horiz-adv-x="363" />
<glyph unicode="&#x200a;" horiz-adv-x="101" />
<glyph unicode="&#x2010;" horiz-adv-x="696" d="M80 707v122h549l-125 -122h-424z" />
<glyph unicode="&#x2011;" horiz-adv-x="696" d="M80 707v122h549l-125 -122h-424z" />
<glyph unicode="&#x2012;" horiz-adv-x="696" d="M80 707v122h549l-125 -122h-424z" />
<glyph unicode="&#x2013;" horiz-adv-x="684" d="M68 707h424l124 122h-548v-122z" />
<glyph unicode="&#x2014;" horiz-adv-x="942" d="M68 707h682l124 122h-806v-122z" />
<glyph unicode="&#x2018;" horiz-adv-x="509" d="M80 819v254l229 215h121v-469h-350z" />
<glyph unicode="&#x2019;" horiz-adv-x="509" d="M80 821v469h350v-254l-229 -215h-121z" />
<glyph unicode="&#x201a;" horiz-adv-x="509" d="M80 -215v469h350v-254l-229 -215h-121z" />
<glyph unicode="&#x201c;" horiz-adv-x="921" d="M78 823v254l229 215h121v-469h-350zM489 821v254l230 215h121v-469h-351z" />
<glyph unicode="&#x201d;" horiz-adv-x="921" d="M80 823v469h350v-254l-229 -215h-121zM492 821v469h350v-254l-230 -215h-120z" />
<glyph unicode="&#x201e;" horiz-adv-x="921" d="M80 -213v469h350v-254l-229 -215h-121zM492 -215v469h350v-254l-230 -215h-120z" />
<glyph unicode="&#x2022;" horiz-adv-x="860" d="M68 696l362 -415l363 415q-25 111 -66 226.5t-111 246.5h-374q-70 -131 -109.5 -246.5t-64.5 -226.5z" />
<glyph unicode="&#x2026;" horiz-adv-x="1458" d="M80 0h350v254h-350v-254zM555 0h350v254h-350v-254zM1030 0h348v254h-348v-254z" />
<glyph unicode="&#x202f;" horiz-adv-x="363" />
<glyph unicode="&#x2039;" horiz-adv-x="468" d="M80 532l309 -124v286l-158 74l158 66v286l-309 -127v-461z" />
<glyph unicode="&#x203a;" horiz-adv-x="468" d="M80 408v286l158 74l-158 66v286l309 -127v-461z" />
<glyph unicode="&#x205f;" horiz-adv-x="454" />
<glyph unicode="&#x20ac;" horiz-adv-x="1679" d="M80 598v123h227v100h-227v123h227v86q0 78 27.5 128t65.5 80t77 41t64 11h1001l39 -6q31 -25 31 -39q-4 -31 -17.5 -102.5t-29 -151.5t-30.5 -151.5t-24 -100.5l-20 13l-229 342q-16 18 -40 42.5t-53 43.5h-262q-12 -2 -28.5 -7.5t-35 -21.5t-34.5 -46t-27 -79v-82h320 l-125 -123h-195v-100h320l-125 -123h-195v-334q16 -68 39 -99.5t45 -41.5h477l177 123v-246h-979q-25 0 -64 11.5t-77 41t-65.5 79.5t-27.5 128v338h-227z" />
<glyph unicode="&#x2122;" horiz-adv-x="1318" d="M68 1163q0 35 15 63.5t42 52.5t58.5 43t66.5 38l840 426l79 33v-25v-25l-79 -753l-21 16l-260 443q-2 6 -18 16h-11h-10q-92 -25 -137 -82t-45 -131v-49q0 -27 22 -49l619 -705q16 -20 19 -43.5t3 -46.5q0 -70 -45 -114t-116 -74l-920 -394h-45q0 10 1 33t3 33q2 27 7 82 t13.5 124.5t16.5 146.5t16 146.5t15.5 123.5t11.5 81l20 -16l201 -491l21 -17l14 5t32.5 12.5t39 16.5t32.5 15q78 35 111 81t33 118q0 29 -2 44t-8.5 28.5t-18.5 29t-35 43.5q-18 25 -61 76t-98.5 114.5t-117 133.5t-117.5 132.5t-100 111.5t-65 71q-16 23 -19 40.5 t-3 41.5z" />
<glyph unicode="&#x25fc;" horiz-adv-x="1290" d="M0 0v1290h1290v-1290h-1290z" />
</font>
</defs>
</svg>
