<?xml version="1.0" standalone="no"?>
<!DOCTYPE svg PUBLIC "-//W3C//DTD SVG 1.1//EN" "http://www.w3.org/Graphics/SVG/1.1/DTD/svg11.dtd" >
<svg xmlns="http://www.w3.org/2000/svg" xmlns:xlink="http://www.w3.org/1999/xlink" version="1.1">
<metadata>
Created by FontForge 20170731 at Sun Aug 16 12:55:25 2015
 By Aleksey,,,
2015 Iconian Fonts - www.iconian.com
</metadata>
<defs>
<font id="GrandNational3D" horiz-adv-x="806" >
  <font-face 
    font-family="Grand National 3D"
    font-weight="400"
    font-stretch="normal"
    units-per-em="1000"
    panose-1="0 0 0 0 0 0 0 0 0 0"
    ascent="800"
    descent="-200"
    x-height="459"
    cap-height="593"
    bbox="-74 -210 1406 747"
    underline-thickness="50"
    underline-position="-175"
    unicode-range="U+0020-2122"
  />
<missing-glyph horiz-adv-x="500" 
 />
    <glyph glyph-name=".notdef" horiz-adv-x="500" 
 />
    <glyph glyph-name=".null" horiz-adv-x="0" 
 />
    <glyph glyph-name="nonmarkingreturn" horiz-adv-x="500" 
 />
    <glyph glyph-name="space" unicode=" " horiz-adv-x="366" 
 />
    <glyph glyph-name="space" unicode="&#xa0;" horiz-adv-x="366" 
 />
    <glyph glyph-name="FL0021h" unicode="!" horiz-adv-x="300" 
d="M52 2v112h190v-112h-190zM52 165v413h190v-413h-190zM257 587v6h-220v-442h6l21 -22h-27v-142h6l31 -32h215v136l-28 28h28v436z" />
    <glyph glyph-name="FL0022h" unicode="&#x22;" horiz-adv-x="428" 
d="M114 394h-62v181h132v-109q0 -27 -17.5 -49.5t-52.5 -22.5zM300 394h-62v181h132v-109q0 -27 -17.5 -49.5t-52.5 -22.5zM43 379l32 -32h74q27 0 46 12.5t28 32.5v-13h6l32 -32h74q21 0 36 7.5t25.5 19.5t15.5 27t5 30v121l-32 32v6h-162v-30l-24 24v6h-162v-211h6z" />
    <glyph glyph-name="FL0023h" unicode="#" horiz-adv-x="856" 
d="M473 -13v86h-65v-118h-221l-32 32h-6v86h-74l-32 32h-6v137h112v64h-74l-32 32h-6v138h112v117h227v-6l32 -32v-79h65v117h227v-6l32 -32v-79h81v-6l32 -32v-132h-113v-64h81v-6l32 -32v-131h-113v-118h-221l-32 32h-6zM488 120v-118h197v118h113v107h-113v126h113v108
h-113v117h-197v-117h-127v117h-197v-117h-112v-108h112v-126h-112v-107h112v-118h197v118h127zM361 227v126h127v-126h-127zM408 306v-64h65v64h-65z" />
    <glyph glyph-name="FL0024h" unicode="$" 
d="M339 698h121v-6l32 -32v-66h271v-6l32 -32v-132h-303v-65h157q28 0 52 -17t40 -41l13 -13q18 -18 29.5 -41.5t11.5 -45.5v-125q0 -20 -9 -41t-24.5 -39t-35.5 -29.5t-42 -11.5h-192v-108h-115l-32 32h-6v76h-264l-32 32h-6v138h302v65h-153q-20 0 -38 9t-32 23l-14 14
q-29 17 -47 48.5t-18 60.5v125q0 20 9.5 42t25 40t36 30t43.5 12h188v104zM445 344v127h303v108h-303v104h-91v-104h-203q-19 0 -37 -10.5t-31.5 -26t-22 -35t-8.5 -37.5v-125q0 -18 8.5 -37.5t22 -35t31.5 -26t37 -10.5h203v-126h-302v-108h302v-108h91v108h204
q19 0 37 10.5t31.5 26t22 35t8.5 37.5v124q0 18 -8.5 37.5t-22 35t-31.5 26t-37 10.5h-204zM445 236h106v-126h-106v126zM249 344v127h105v-127h-105zM492 190v-65h44v65h-44zM296 424v-65h43v65h-43z" />
    <glyph glyph-name="FL0026h" unicode="%" horiz-adv-x="1036" 
d="M446 489v-160l213 264h198l-5 -6l33 -33l-203 -250h247q17 0 32 -11t23 -27v1l19 -19q10 -10 16 -22.5t6 -25.5v-179q0 -11 -5 -22.5t-13 -21t-19.5 -16t-23.5 -6.5h-249q-21 0 -39 18l-20 20h1q-18 9 -29.5 27.5t-11.5 35.5v163l-214 -264h-189l-32 32h-11l207 257h-241
q-21 0 -39 18l-20 20h1q-18 9 -29.5 27.5t-11.5 35.5v179q0 11 5 23t14 22.5t20.5 17t24.5 6.5h249q17 0 32 -11t23 -27v1l19 -19q10 -10 16 -22.5t6 -25.5zM399 345v179q0 18 -14.5 36t-34.5 18h-249q-20 0 -34.5 -18t-14.5 -36v-179q0 -18 14.5 -36t34.5 -18h249
q20 0 34.5 18t14.5 36zM978 56v179q0 18 -14.5 36t-34.5 18h-249q-20 0 -34.5 -18t-14.5 -36v-179q0 -18 14.5 -36t34.5 -18h249q20 0 34.5 18t14.5 36zM667 578l-465 -576h158l464 576h-157zM169 367v136h113v-136h-113zM747 78v136h114v-136h-114zM216 457v-75h51v75h-51z
M794 167v-74h52v74h-52z" />
    <glyph glyph-name="FL002Ah" unicode="&#x26;" horiz-adv-x="844" 
d="M116 -12l-14 14q-29 17 -47 48.5t-18 60.5v111q0 14 13.5 34.5t24.5 34.5q-12 15 -25 35t-13 32v112q0 19 9.5 41t25 40t36 30t43.5 12h436q27 0 51 -17t40 -41l13 -13q18 -18 29.5 -41t11.5 -46v-66h-221l-32 32h-6v23h-177v-65h505v-6l32 -32v-132h-65v-234h-582
q-20 0 -38 9t-32 24zM525 110h-276v361h239v-55h197v54q0 18 -8.5 37t-22 34.5t-31 26t-36.5 10.5h-436q-19 0 -37 -10.5t-31.5 -26t-22 -34.5t-8.5 -37v-112q0 -6 5.5 -15.5t13 -20t15 -19.5t11.5 -13l-6 -6q-5 -6 -11.5 -14t-12.5 -17t-10.5 -17t-4.5 -14v-111
q0 -18 8.5 -37.5t22 -35t31.5 -26t37 -10.5h570v234h65v108h-480v-108h219v-126zM329 189l-32 32h-1v-96h214v64h-181z" />
    <glyph glyph-name="FL0027h" unicode="'" horiz-adv-x="241" 
d="M114 394h-63v181h132v-109q0 -27 -17.5 -49.5t-51.5 -22.5zM43 379l31 -32h74q21 0 36 7.5t25.5 19.5t15.5 27t5 30v121l-32 32v6h-161v-211h6z" />
    <glyph glyph-name="FL0028h" unicode="(" horiz-adv-x="465" 
d="M454 533h-158v-518h126v-6l32 -32v-132h-269q-20 0 -38 9t-32 24l-13 14q-29 18 -47 49t-18 60v578q0 19 9.5 41t25 40t36 30t42.5 12h272v-6l32 -32v-131zM150 -108h257v108h-158v580h158v107h-257q-19 0 -36.5 -10t-31 -26t-22 -35t-8.5 -37v-578q0 -18 8.5 -37.5
t22 -35t31 -26t36.5 -10.5z" />
    <glyph glyph-name="FL0029h" unicode=")" horiz-adv-x="465" 
d="M51 0h158v580h-158v107h257q19 0 36.5 -10t31 -26t22 -35t8.5 -37v-578q0 -18 -8.5 -37.5t-22 -35t-31 -26t-36.5 -10.5h-257v108zM42 565l32 -32h120v-518h-158v-138h6l32 -32h268q22 0 42 11.5t35.5 29.5t24.5 39t9 41v578q0 23 -11.5 46.5t-29.5 41.5l-13 12
q-16 24 -40 41t-51 17h-272v-137h6z" />
    <glyph glyph-name="FL0F98h" unicode="*" horiz-adv-x="280" 
d="M133 504l-25 -36l-50 36l32 33l-38 8l17 56l36 -16l-4 37h61l-2 -36l36 16l25 -57l-42 -8l25 -32l-48 -37zM50 492l24 -24l73 -53l16 25l25 -25l69 55l-22 24l38 8l-36 81l-28 26v-1l-4 12l-14 -6l-14 17l1 6h-93l3 -29l-28 13l-27 -87l8 -2h-1l12 -12l-17 -17z" />
    <glyph glyph-name="FL002Bh" unicode="+" horiz-adv-x="526" 
d="M191 513h138v-6l31 -32v-117h123v-5l32 -32v-132h-155v-154h-131l-32 32h-6v122h-116l-32 32h-6v137h154v155zM314 82v154h154v108h-154v154h-108v-154h-154v-108h154v-154h108z" />
    <glyph glyph-name="FL002Ch" unicode="," horiz-adv-x="240" 
d="M113 -69h-62v178h131v-106q0 -27 -17.5 -49.5t-51.5 -22.5zM43 -84l31 -32h73q21 0 36 7.5t25.5 19.5t15.5 27t5 30v118l-32 32v6h-160v-208h6z" />
    <glyph glyph-name="FL002Dh" unicode="-" horiz-adv-x="446" 
d="M37 219v137h366v-6l32 -32v-130h-360l-32 31h-6zM52 341v-107h336v107h-336z" />
    <glyph glyph-name="period" unicode="." horiz-adv-x="240" 
d="M51 2v107h131v-107h-131zM43 -13l31 -31h155v130l-32 32v6h-160v-137h6z" />
    <glyph glyph-name="FL002Fh" unicode="/" horiz-adv-x="523" 
d="M507 593l-3 -7l33 -31l-240 -600h-247l-32 32h-8l243 606h254zM32 2h221l231 576h-221z" />
    <glyph glyph-name="FL0030h" unicode="0" 
d="M116 -12l-14 14q-29 17 -47 48.5t-18 60.5v359q0 19 9.5 41t25 40t36 30t43.5 12h498q28 0 52 -17t40 -41l13 -13q18 -18 29.5 -41t11.5 -46v-359q0 -20 -9 -41t-24.5 -39t-35.5 -29.5t-42 -11.5h-498q-20 0 -38 9t-32 24zM748 111v359q0 18 -8.5 37t-22 34.5t-31.5 26
t-37 10.5h-498q-19 0 -37 -10.5t-31.5 -26t-22 -34.5t-8.5 -37v-359q0 -18 8.5 -37.5t22 -35t31.5 -26t37 -10.5h498q19 0 37 10.5t31.5 26t22 35t8.5 37.5zM249 110v361h302v-361h-302zM296 424v-299h240v299h-240z" />
    <glyph glyph-name="one" unicode="1" horiz-adv-x="396" 
d="M141 2v469h-89v107h286v-576h-197zM43 456l32 -32h51v-437h6l32 -32h221v600l-32 32v6h-316v-137h6z" />
    <glyph glyph-name="FL0032h" unicode="2" 
d="M649 236h-400v-126h499v-108h-696v233q0 18 8.5 37.5t22 35t31.5 26t37 10.5h400v127h-499v107h597q19 0 37 -10.5t31.5 -26t22 -34.5t8.5 -37v-125q0 -18 -8.5 -37.5t-22 -35t-31.5 -26t-37 -10.5zM43 456l32 -32h461v-65h-385q-23 0 -43.5 -12t-36 -30t-25 -40
t-9.5 -42v-248h6l32 -32h720v132l-32 32v6h-467v64h388q22 0 42 11.5t35.5 29.5t24.5 39t9 41v125q0 23 -11.5 46t-29.5 41l-13 13q-16 24 -40 41t-52 17h-612v-137h6z" />
    <glyph glyph-name="FL0033h" unicode="3" horiz-adv-x="737" 
d="M93 344h389v127h-430v107h528q19 0 37 -10.5t31.5 -26t22 -34.5t8.5 -37v-112q0 -6 -5.5 -15.5t-13 -20t-15 -19.5t-11.5 -13q1 -2 3.5 -4l2.5 -2q5 -6 11.5 -14t12.5 -17t10.5 -17t4.5 -14v-111q0 -18 -8.5 -37.5t-22 -35t-31.5 -26t-37 -10.5h-528v108h430v126h-389
v108zM78 359v-138h6l32 -32h351v-64h-430v-138h6l32 -32h540q22 0 42 11.5t35.5 29.5t24.5 39t9 41v111q0 14 -14 34.5t-25 33.5q5 6 12 15.5t13 19t10 18.5t4 15v112q0 23 -11.5 46t-29.5 41l-13 13q-16 24 -40 41t-52 17h-543v-137h6l32 -32h392v-65h-389z" />
    <glyph glyph-name="four" unicode="4" horiz-adv-x="866" 
d="M770 555v-321h53v-6l32 -32v-131h-85v-110h-221l-32 32h-6v78h-436l-32 32h-6v178l489 318h212v-6zM532 578l-480 -312v-154h474v-110h197v110h85v107h-85v359h-191zM210 219l316 206v-206h-316zM343 234h168v108z" />
    <glyph glyph-name="five" unicode="5" 
d="M37 -13v138h499v64h-461l-32 32h-6v372h699v-6l32 -32v-131h-472v-65h353q28 0 52 -17t40 -41l13 -13q18 -18 29.5 -41.5t11.5 -46.5v-124q0 -20 -9 -41t-24.5 -39t-35.5 -29.5t-42 -11.5h-609l-32 32h-6zM249 344v127h472v107h-669v-342h499v-126h-499v-108h597
q19 0 37 10.5t31.5 26t22 35t8.5 37.5v124q0 18 -8.5 37.5t-22 35t-31.5 26t-37 10.5h-400z" />
    <glyph glyph-name="FL0036h" unicode="6" 
d="M297 221l32 -32h207v-64h-240v96h1zM748 235v-124q0 -18 -8.5 -37.5t-22 -35t-31.5 -26t-37 -10.5h-498q-19 0 -37 10.5t-31.5 26t-22 35t-8.5 37.5v359q0 18 8.5 37t22 34.5t31.5 26t37 10.5h584v-107h-486v-361h302v126h-245v108h343q19 0 37 -10.5t31.5 -26t22 -35
t8.5 -37.5zM296 424h486v131l-32 32v6h-599q-23 0 -43.5 -12t-36 -30t-25 -40t-9.5 -41v-359q0 -29 18 -60.5t47 -48.5l14 -14q14 -15 32 -24t38 -9h498q22 0 42 11.5t35.5 29.5t24.5 39t9 41v124q0 23 -11.5 46.5t-29.5 41.5l-13 13q-16 24 -40 41t-52 17h-353v65z" />
    <glyph glyph-name="seven" unicode="7" horiz-adv-x="703" 
d="M201 2l219 474h-368v102h593v-95l-227 -481h-217zM43 461l32 -32h307l-203 -442h8l32 -32h242l231 492v108l-32 32v6h-623v-132h6z" />
    <glyph glyph-name="FL0038h" unicode="8" 
d="M296 359v65h240v-65h-240zM297 221l32 -32h207v-64h-240v96h1zM249 471v-361h302v126h-245v108h245v127h-302zM151 578h498q19 0 37 -10.5t31.5 -26t22 -34.5t8.5 -37v-112q0 -6 -5.5 -15.5t-13 -20t-15 -19.5t-11.5 -13q1 -2 3.5 -4l2.5 -2q5 -6 11.5 -14t12.5 -17
t10.5 -17t4.5 -14v-111q0 -18 -8.5 -37.5t-22 -35t-31.5 -26t-37 -10.5h-498q-19 0 -37 10.5t-31.5 26t-22 35t-8.5 37.5v111q0 6 4.5 14t10.5 17t12.5 17t11.5 14l6 6q-4 4 -11.5 13t-15 19.5t-13 20t-5.5 15.5v112q0 18 8.5 37t22 34.5t31.5 26t37 10.5zM649 593h-498
q-23 0 -43.5 -12t-36 -30t-25 -40t-9.5 -41v-112q0 -12 13 -32t25 -35q-11 -14 -24.5 -34.5t-13.5 -34.5v-111q0 -29 18 -60.5t47 -48.5l14 -14q14 -15 32 -24t38 -9h498q22 0 42 11.5t35.5 29.5t24.5 39t9 41v111q0 14 -14 34.5t-25 33.5q5 6 12 15.5t13 19t10 18.5t4 15
v112q0 23 -11.5 46t-29.5 41l-13 13q-16 24 -40 41t-52 17z" />
    <glyph glyph-name="FL0039h" unicode="9" 
d="M509 353v6h-213v65h240v-98zM52 345v125q0 18 8.5 37t22 34.5t31.5 26t37 10.5h498q19 0 37 -10.5t31.5 -26t22 -34.5t8.5 -37v-359q0 -18 -8.5 -37.5t-22 -35t-31.5 -26t-37 -10.5h-584v108h486v361h-302v-127h245v-108h-343q-19 0 -37 10.5t-31.5 26t-22 35t-8.5 37.5z
M37 470v-125q0 -29 18 -60.5t47 -48.5l14 -14q14 -15 32 -24t38 -9h350v-64h-486v-138h6l32 -32h596q22 0 42 11.5t35.5 29.5t24.5 39t9 41v359q0 23 -11.5 46t-29.5 41l-13 13q-16 24 -40 41t-52 17h-498q-23 0 -43.5 -12t-36 -30t-25 -40t-9.5 -41z" />
    <glyph glyph-name="FL003Ah" unicode=":" horiz-adv-x="240" 
d="M51 269v107h131v-107h-131zM51 2v107h131v-107h-131zM43 254l31 -32h155v131l-32 32v6h-160v-137h6zM43 -13l31 -32h155v132l-32 31v6h-160v-137h6z" />
    <glyph glyph-name="FL003Bh" unicode=";" horiz-adv-x="240" 
d="M51 269v108h131v-108h-131zM113 -70h-62v180h131v-107q0 -27 -17.5 -50t-51.5 -23zM43 254l31 -32h155v132l-32 31v6h-160v-137h6zM43 -85l31 -32h73q21 0 36 7.5t25.5 19.5t15.5 27.5t5 30.5v119l-32 32v6h-160v-210h6z" />
    <glyph glyph-name="FL003Ch" unicode="&#x3c;" horiz-adv-x="583" 
d="M292 -13l-282 283l369 323h206l-7 -6l33 -33l-319 -278l288 -289h-4l32 -32h-280l-32 32h-4zM387 578l-354 -309l266 -267h244l-307 308l306 268h-155z" />
    <glyph glyph-name="FL003Dh" unicode="=" horiz-adv-x="535" 
d="M37 447h455v-6l32 -31v-132h-449l-32 32h-6v137zM37 268h455v-6l32 -31v-132h-449l-32 32h-6v137zM52 254v-108h425v108h-425zM52 433v-108h425v108h-425z" />
    <glyph glyph-name="FL003Eh" unicode="&#x3e;" horiz-adv-x="582" 
d="M37 -45l-32 32h-13l325 283l-320 323h288l281 -284l-2 -2l33 -33l-365 -319h-195zM340 269l-306 -267h156l353 308l-265 268h-244z" />
    <glyph glyph-name="FL003Fh" unicode="?" horiz-adv-x="774" 
d="M129 2v112h191v-112h-191zM617 236h-297v-70h-190v69q0 18 8.5 37.5t22 35t31 26t36.5 10.5h291v127h-467v107h565q19 0 37 -10.5t31.5 -26t22 -34.5t8.5 -37v-125q0 -18 -8.5 -37.5t-22 -35t-31.5 -26t-37 -10.5zM144 129h-30v-142h6l32 -32h215v136l-29 29h29v69h285
q22 0 42 11.5t35.5 29.5t24.5 39t9 41v125q0 23 -11.5 46t-29.5 41l-13 13q-16 24 -40 41t-52 17h-580v-137h6l32 -32h429v-65h-276q-22 0 -42.5 -12t-36 -30t-25 -40t-9.5 -42v-83h6z" />
    <glyph glyph-name="FL0040h" unicode="@" horiz-adv-x="1235" 
d="M116 -122l-14 14q-29 18 -47 49t-18 60v578q0 19 9.5 41t25 40t36 30t43.5 12h927q28 0 52 -17t40 -41l13 -12q18 -18 29.5 -41.5t11.5 -46.5v-400q0 -20 -9 -41t-24.5 -39t-35.5 -29.5t-42 -11.5h-383l-32 32h-6v303h-123v-165h79v-6l32 -32v-132h-227q-34 0 -64 30
l-16 15q-28 17 -46 49.5t-18 61.5v225q0 20 9.5 42t25 40t36 30t43.5 12h383q28 0 52 -17t39 -41l13 -13q18 -18 29.5 -41.5t11.5 -46.5v-176h13v340h-667v-518h875v-6l32 -32v-132h-1018q-20 0 -38 9t-32 24zM522 178v227h185v-335h371q19 0 37 10.5t31.5 26t22 35
t8.5 37.5v400q0 18 -8.5 37t-22 35t-31.5 26t-37 10h-927q-19 0 -37 -10t-31.5 -26t-22 -35t-8.5 -37v-578q0 -18 8.5 -37.5t22 -35t31.5 -26t37 -10.5h1006v108h-907v580h729v-402h-75v226q0 18 -8 37.5t-21.5 35t-31.5 26t-37 10.5h-383q-19 0 -37 -10.5t-31.5 -26
t-22 -35t-8.5 -37.5v-225q0 -18 8 -37t21 -35t30 -26.5t35 -10.5h215v108h-111z" />
    <glyph glyph-name="FL005Eh" unicode="A" horiz-adv-x="836" 
d="M50 -45l-32 32h-8l209 525q12 26 26.5 42t32 24.5t38 11.5t45.5 3h102q49 0 80.5 -9.5t50.5 -40.5l20 -19q11 -11 22 -38l214 -531h-246l-32 32h-5l-59 138h-160l-32 32h-6v33l-94 -235h-166zM325 171h181l70 -169h221l-206 515q-16 38 -46.5 49.5t-81.5 11.5h-102
q-45 0 -75.5 -13t-52.5 -58l-201 -505h141l178 446q6 19 20 21l11 -1l78 -189h-135v-108zM393 400l-43 -106h88z" />
    <glyph glyph-name="FL0062h" unicode="B" 
d="M75 -45l-32 32h-6v606h612q28 0 52 -17t40 -41l13 -13q18 -18 29.5 -41t11.5 -46v-112q0 -6 -4 -15t-10 -18.5t-13 -19t-12 -15.5q11 -13 25 -33.5t14 -34.5v-111q0 -20 -9 -41t-24.5 -39t-35.5 -29.5t-42 -11.5h-609zM748 111v111q0 6 -4.5 14t-10.5 17t-12.5 17
t-11.5 14l-2.5 2t-3.5 4q4 4 11.5 13t15 19.5t13 20t5.5 15.5v112q0 18 -8.5 37t-22 34.5t-31.5 26t-37 10.5h-597v-576h597q19 0 37 10.5t31.5 26t22 35t8.5 37.5zM551 344h-245v-108h245v-126h-302v361h302v-127zM329 189l-32 32h-1v-96h240v64h-207zM296 424v-65h240v65
h-240z" />
    <glyph glyph-name="FL0063h" unicode="C" horiz-adv-x="737" 
d="M726 424h-430v-299h398v-6l32 -32v-132h-541q-19 0 -37 9t-32 24l-14 14q-29 17 -47 48.5t-18 60.5v359q0 19 9.5 41t25 40t36 30t43.5 12h543v-6l32 -32v-131zM151 2h528v108h-430v361h430v107h-528q-19 0 -37 -10.5t-31.5 -26t-22 -34.5t-8.5 -37v-359q0 -18 8.5 -37.5
t22 -35t31.5 -26t37 -10.5z" />
    <glyph glyph-name="FL0064h" unicode="D" 
d="M75 -45l-32 32h-6v606h612q28 0 52 -17t40 -41l13 -13q18 -18 29.5 -41t11.5 -46v-359q0 -20 -9 -41t-24.5 -39t-35.5 -29.5t-42 -11.5h-355l-32 32h-1v-32h-221zM748 111v359q0 18 -8.5 37t-22 34.5t-31.5 26t-37 10.5h-597v-576h197v469h302v-361h-245v-108h343
q19 0 37 10.5t31.5 26t22 35t8.5 37.5zM296 424v-299h240v299h-240z" />
    <glyph glyph-name="FL0065h" unicode="E" horiz-adv-x="737" 
d="M685 189h-389v-64h398v-6l32 -32v-132h-541q-19 0 -37 9t-32 24l-14 14q-29 17 -47 48.5t-18 60.5v359q0 19 9.5 41t25 40t36 30t43.5 12h543v-6l32 -32v-131h-430v-65h357v-6l32 -32v-132zM151 2h528v108h-430v126h389v108h-389v127h430v107h-528q-19 0 -37 -10.5
t-31.5 -26t-22 -34.5t-8.5 -37v-359q0 -18 8.5 -37.5t22 -35t31.5 -26t37 -10.5z" />
    <glyph glyph-name="FL0066h" unicode="F" horiz-adv-x="737" 
d="M726 424h-430v-65h357v-6l32 -32v-132h-389v-234h-221l-32 32h-6v483q0 19 9.5 41t25 40t36 30t43.5 12h543v-6l32 -32v-131zM52 470v-468h197v234h389v108h-389v127h430v107h-528q-19 0 -37 -10.5t-31.5 -26t-22 -34.5t-8.5 -37z" />
    <glyph glyph-name="g" unicode="G" 
d="M763 353v-6l32 -32v-239q0 -20 -9 -41t-24.5 -39t-35.5 -29.5t-42 -11.5h-498q-20 0 -38 9t-32 24l-14 14q-29 17 -47 48.5t-18 60.5v359q0 19 9.5 41t25 40t36 30t43.5 12h612v-6l32 -32v-131h-499v-299h240v228h227zM748 111v227h-197v-228h-302v361h499v107h-597
q-19 0 -37 -10.5t-31.5 -26t-22 -34.5t-8.5 -37v-359q0 -18 8.5 -37.5t22 -35t31.5 -26t37 -10.5h498q19 0 37 10.5t31.5 26t22 35t8.5 37.5z" />
    <glyph glyph-name="FL0068h" unicode="H" 
d="M264 593v-6l32 -32v-196h239v234h228v-6l32 -32v-600h-223l-31 32h-6v202h-239v-234h-221l-32 32h-6v606h227zM249 344v234h-197v-576h197v234h301v-234h198v576h-198v-234h-301z" />
    <glyph glyph-name="i" unicode="I" horiz-adv-x="306" 
d="M52 2v576h196v-576h-196zM43 -13l31 -32h221v600l-32 32v6h-226v-606h6z" />
    <glyph glyph-name="j" unicode="J" horiz-adv-x="675" 
d="M75 -45l-32 32h-6v138h368v468h227v-6l32 -32v-479q0 -20 -9 -41t-24.5 -39t-35.5 -29.5t-42 -11.5h-478zM617 111v467h-197v-468h-368v-108h466q19 0 37 10.5t31.5 26t22 35t8.5 37.5z" />
    <glyph glyph-name="FL006Bh" unicode="K" 
d="M814 555l-226 -196h61q28 0 52 -17t40 -41l13 -13q18 -18 29.5 -41.5t11.5 -46.5v-245h-221l-32 32h-6v202h-240v-234h-221l-32 32h-6v606h227v-6l32 -32v-149l216 188h276l-7 -6zM551 236v-234h197v233q0 18 -8.5 37.5t-22 35t-31.5 26t-37 10.5h-171l267 235h-225
l-271 -236v235h-197v-576h197v234h302z" />
    <glyph glyph-name="FL006Ch" unicode="L" horiz-adv-x="675" 
d="M51 111v467h197v-468h368v-108h-466q-19 0 -37 10.5t-31.5 26t-22 35t-8.5 37.5zM36 593v-482q0 -29 18 -60.5t47 -48.5l14 -14q14 -15 31.5 -24t37.5 -9h479v132l-32 32v6h-336v430l-32 32v6h-227z" />
    <glyph glyph-name="FL006Dh" unicode="M" horiz-adv-x="1123" 
d="M1079 593v-6l32 -32v-600h-222l-32 32h-6v317l-202 -349h-177l-32 32h-5l-204 352v-384h-157l-32 32h-6v606h308l7 -13v1l26 -25l188 -333l217 370h297zM866 452v-450h198v576h-272l-231 -397l-226 397h-284v-576h133v451l261 -451h161z" />
    <glyph glyph-name="FL006Eh" unicode="N" horiz-adv-x="816" 
d="M337 578l278 -431v431h143v-576h-281l-292 452v-452h-133v576h285zM37 593v-606h6l32 -32h156v397l237 -365h5l32 -32h300v600l-32 32v6h-173v-383l-221 345l-24 24l-9 14h-309z" />
    <glyph glyph-name="FL006Fh" unicode="O" 
d="M116 -12l-14 14q-29 17 -47 48.5t-18 60.5v359q0 19 9.5 41t25 40t36 30t43.5 12h498q28 0 52 -17t40 -41l13 -13q18 -18 29.5 -41t11.5 -46v-359q0 -20 -9 -41t-24.5 -39t-35.5 -29.5t-42 -11.5h-498q-20 0 -38 9t-32 24zM748 111v359q0 18 -8.5 37t-22 34.5t-31.5 26
t-37 10.5h-498q-19 0 -37 -10.5t-31.5 -26t-22 -34.5t-8.5 -37v-359q0 -18 8.5 -37.5t22 -35t31.5 -26t37 -10.5h498q19 0 37 10.5t31.5 26t22 35t8.5 37.5zM249 110v361h302v-361h-302zM296 424v-299h240v299h-240z" />
    <glyph glyph-name="FL00B2h" unicode="P" 
d="M75 -45l-32 32h-6v606h612q28 0 52 -17t40 -41l13 -13q18 -18 29.5 -41t11.5 -46v-125q0 -20 -9 -41t-24.5 -39t-35.5 -29.5t-42 -11.5h-355l-32 32h-1v-266h-221zM748 345v125q0 18 -8.5 37t-22 34.5t-31.5 26t-37 10.5h-597v-576h197v469h302v-127h-245v-108h343
q19 0 37 10.5t31.5 26t22 35t8.5 37.5zM296 424v-65h240v65h-240z" />
    <glyph glyph-name="FL0071h" unicode="Q" 
d="M482 -81l-24 36h-272q-20 0 -38 9t-32 24l-14 14q-29 17 -47 48.5t-18 60.5v359q0 19 9.5 41t25 40t36 30t43.5 12h498q28 0 52 -17t40 -41l13 -12q18 -18 29.5 -41.5t11.5 -46.5v-359q0 -20 -9 -41t-24.5 -39t-35.5 -29.5t-42 -11.5h-50l44 -68h-159l-32 32h-5zM447 2
l44 -68h129l-43 68h72q19 0 37 10.5t31.5 26t22 35t8.5 37.5v359q0 18 -8.5 37t-22 35t-31.5 26t-37 10h-498q-19 0 -37 -10t-31.5 -26t-22 -35t-8.5 -37v-359q0 -18 8.5 -37.5t22 -35t31.5 -26t37 -10.5h296zM249 110v361h302v-361h-43l-70 107h-131l70 -107h-128zM480 194
l45 -69h11v299h-240v-192h151l9 -14zM348 125l-52 80v-80h52z" />
    <glyph glyph-name="FL0072h" unicode="R" 
d="M75 -45l-32 32h-6v606h612q28 0 52 -17t40 -41l13 -13q18 -18 29.5 -41t11.5 -46v-125q0 -20 -9 -41t-24.5 -39t-35.5 -29.5t-42 -11.5h-63l189 -202h-2l30 -32h-264l-32 32h-4l-242 252v-284h-221zM748 345v125q0 18 -8.5 37t-22 34.5t-31.5 26t-37 10.5h-597v-576h197
v469h302v-127h-245v-93l239 -249h229l-217 234h92q19 0 37 10.5t31.5 26t22 35t8.5 37.5zM296 424v-65h240v65h-240z" />
    <glyph glyph-name="FL00B8h" unicode="S" 
d="M37 -13v138h499v64h-350q-20 0 -38 9t-32 24l-14 14q-29 17 -47 48.5t-18 60.5v125q0 19 9.5 41t25 40t36 30t43.5 12h612v-6l32 -32v-131h-499v-65h353q28 0 52 -17t40 -41l13 -13q18 -18 29.5 -41.5t11.5 -46.5v-124q0 -20 -9 -41t-24.5 -39t-35.5 -29.5t-42 -11.5
h-609l-32 32h-6zM151 236h400v-126h-499v-108h597q19 0 37 10.5t31.5 26t22 35t8.5 37.5v124q0 18 -8.5 37.5t-22 35t-31.5 26t-37 10.5h-400v127h499v107h-597q-19 0 -37 -10.5t-31.5 -26t-22 -34.5t-8.5 -37v-125q0 -18 8.5 -37.5t22 -35t31.5 -26t37 -10.5z" />
    <glyph glyph-name="t" unicode="T" horiz-adv-x="746" 
d="M37 456v137h666v-6l32 -32v-131h-219v-469h-222l-32 32h-6v437h-181l-32 32h-6zM469 2v469h219v107h-636v-107h219v-469h198z" />
    <glyph glyph-name="FL0075h" unicode="U" 
d="M763 593v-6l32 -32v-479q0 -20 -9 -41t-24.5 -39t-35.5 -29.5t-42 -11.5h-498q-20 0 -38 9t-32 24l-14 14q-29 17 -47 48.5t-18 60.5v482h227v-6l32 -32v-430h240v468h227zM748 111v467h-197v-468h-302v468h-197v-467q0 -18 8.5 -37.5t22 -35t31.5 -26t37 -10.5h498
q19 0 37 10.5t31.5 26t22 35t8.5 37.5z" />
    <glyph glyph-name="v" unicode="V" horiz-adv-x="836" 
d="M253 578l195 -465l11 -1q14 2 20 21l177 445h141l-200 -505q-22 -45 -52.5 -58t-75.5 -13h-102q-51 0 -81.5 11.5t-46.5 49.5l-207 515h221zM10 593l215 -535q13 -37 42 -52h-1l20 -20q19 -19 46.5 -25t69.5 -6h102q48 0 82 14.5t56 64.5l208 521l-33 31l3 7h-174
l-178 -449l-173 412l-29 28v-1l-3 10h-253z" />
    <glyph glyph-name="FL0077h" unicode="W" horiz-adv-x="1298" 
d="M719 578l195 -465l7 -1q14 2 20 21l177 445h141l-201 -505q-22 -45 -52.5 -58t-74.5 -13h-98q-51 0 -81.5 11.5t-46.5 49.5l-58 142l-54 -132q-22 -45 -52.5 -58t-75.5 -13h-98q-51 0 -81 11.5t-46 49.5l-208 515h222q46 -115 78 -194t53.5 -130.5t34 -80t18.5 -42t8 -16
t3 -2.5l6 -1q14 2 20 21l100 251l-78 194h222zM267 6l20 -20q19 -19 46 -25t69 -6h98q24 0 44.5 3t37.5 11.5t31 24t26 40.5l30 76l22 -52q13 -37 42 -52h-1l20 -20q19 -19 46.5 -25t69.5 -6h98q24 0 44 3t37 11.5t31 24t26 40.5l208 521l-33 31l3 7h-174l-177 -445
l-170 408l-29 28v-1l-3 10h-254l83 -209l-96 -241q-6 15 -15.5 37.5t-21.5 53.5q-21 52 -52 131t-76 191l-29 28v-1q-1 2 -1.5 3.5l-0.5 1.5q-1 1 -1 5h-255l216 -535q13 -37 42 -52h-1z" />
    <glyph glyph-name="FL00A5h" unicode="X" horiz-adv-x="877" 
d="M39 -45l-32 32h-13l317 282l-313 324h283l181 -186l213 186h202l-7 -6l33 -33l-312 -279l283 -288h-4l32 -32h-276l-32 32h-4l-152 154l-209 -186h-190zM333 269l-299 -267h155l218 193l190 -193h240l-300 308l300 268h-155l-219 -193l-189 193h-240z" />
    <glyph glyph-name="FL0025h" unicode="Y" horiz-adv-x="878" 
d="M875 593l-6 -6l33 -33l-318 -324v-275h-218l-32 32h-6v269l-331 337h284l194 -192l201 192h199zM343 263v-261h194v269l301 307h-155l-208 -198l-201 198h-240z" />
    <glyph glyph-name="z" unicode="Z" horiz-adv-x="756" 
d="M52 110l381 361h-381v107h636v-117l-371 -351h381v-108h-646v108zM423 125l312 295v135l-32 32v6h-666v-137h6l32 -32h285l-323 -307v-130h6l32 -32h670v132l-32 32v6h-290z" />
    <glyph glyph-name="FL005Bh" unicode="[" horiz-adv-x="465" 
d="M454 533h-158v-518h126v-6l32 -32v-132h-379l-32 32h-6v825h385v-6l32 -32v-131zM249 0v580h158v107h-355v-795h355v108h-158z" />
    <glyph glyph-name="FL005Ch" unicode="\" horiz-adv-x="523" 
d="M32 578h221l231 -576h-221zM10 593l243 -606h5l32 -32h247l-241 601l-29 28v-1l-3 10h-254z" />
    <glyph glyph-name="FL005Dh" unicode="]" horiz-adv-x="465" 
d="M51 0h158v580h-158v107h355v-795h-355v108zM42 565l32 -32h120v-518h-158v-138h6l32 -32h379v819l-32 32v6h-385v-137h6z" />
    <glyph glyph-name="a" unicode="^" 
d="M296 359v65h240v-65h-240zM52 2v468q0 18 8.5 37t22 34.5t31.5 26t37 10.5h498q19 0 37 -10.5t31.5 -26t22 -34.5t8.5 -37v-468h-197v234h-245v108h245v127h-302v-469h-197zM37 470v-483h6l32 -32h221v266h1l32 -32h207v-202h6l31 -32h222v480q0 23 -11.5 46t-29.5 41
l-13 13q-16 24 -40 41t-52 17h-498q-23 0 -43.5 -12t-36 -30t-25 -40t-9.5 -41z" />
    <glyph glyph-name="FL005Fh" unicode="_" horiz-adv-x="669" 
d="M37 75h589v-6l32 -32v-93h-583l-32 31h-6v100zM52 60v-70h559v70h-559z" />
    <glyph glyph-name="FL0060h" unicode="`" horiz-adv-x="269" 
d="M104 574l-71 91h150l47 -91h-126zM198 668l-5 12h-191l94 -121h4l32 -32h154l-62 117l-26 25v-1z" />
    <glyph glyph-name="FL0061h" unicode="a" horiz-adv-x="689" 
d="M392 286v4h27v-31zM52 111v57q0 18 8.5 37.5t22 35t31.5 26t37 10.5h226v-108h-128v-59h185v227h-369v107h467q19 0 37 -10.5t31.5 -26t22 -34.5t8.5 -37v-334h-480q-19 0 -37 10.5t-31.5 26t-22 35t-8.5 37.5zM37 168v-57q0 -29 18 -60.5t47 -48.5l14 -14q14 -15 32 -24
t37 -9h493v346q0 23 -11.5 46.5t-29.5 40.5l-13 13q-16 24 -40 41t-52 17h-482v-137h6l32 -32h45q-20 -5 -37.5 -18t-30.5 -30.5t-20.5 -36.5t-7.5 -37z" />
    <glyph glyph-name="FL0B3Bh" unicode="b" horiz-adv-x="689" 
d="M297 322l32 -32h90v-165h-123v197h1zM631 336v-225q0 -18 -8.5 -37.5t-22 -35t-31.5 -26t-37 -10.5h-480v576h197v-468h185v227h-128v108h226q19 0 37 -10.5t31.5 -26t22 -35t8.5 -37.5zM296 460v95l-32 32v6h-227v-606h6l32 -32h492q22 0 42 11.5t35.5 29.5t24.5 39
t9 41v225q0 23 -11.5 46.5t-29.5 41.5l-13 13q-16 24 -40 41t-52 17h-236z" />
    <glyph glyph-name="FL0069h" unicode="c" horiz-adv-x="619" 
d="M116 -12l-14 14q-29 17 -47 48.5t-18 60.5v225q0 19 9.5 41t25 40t36 30t42.5 12h426v-6l32 -32v-131h-312v-165h280v-6l32 -32v-132h-423q-20 0 -37.5 9t-31.5 24zM249 337h312v107h-411q-19 0 -36.5 -10.5t-31 -26t-22 -34.5t-8.5 -37v-225q0 -18 8.5 -37.5t22 -35
t31 -26t36.5 -10.5h411v108h-312v227z" />
    <glyph glyph-name="FL0B45h" unicode="d" horiz-adv-x="689" 
d="M37 336q0 20 9.5 42t25 40t36 30t43.5 12h241v-6l27 -27v166h227v-6l32 -32v-600h-493q-19 0 -37 9t-32 24l-14 14q-29 17 -47 48.5t-18 60.5v225zM52 336v-225q0 -18 8.5 -37.5t22 -35t31.5 -26t37 -10.5h480v576h-197v-468h-185v227h128v108h-226q-19 0 -37 -10.5
t-31.5 -26t-22 -35t-8.5 -37.5zM296 290v-165h123v165h-123z" />
    <glyph glyph-name="FL0067h" unicode="e" horiz-adv-x="689" 
d="M116 -12l-14 14q-29 17 -47 48.5t-18 60.5v225q0 19 9.5 41t25 40t36 30t43.5 12h381q28 0 52 -17t40 -41l13 -13q18 -17 29.5 -40.5t11.5 -46.5v-58q0 -18 -7.5 -37t-20 -35.5t-29.5 -29t-36 -16.5h48v-6l32 -32v-132h-480q-19 0 -37 9t-32 24zM631 278v58q0 18 -8.5 37
t-22 34.5t-31.5 26t-37 10.5h-381q-19 0 -37 -10.5t-31.5 -26t-22 -34.5t-8.5 -37v-225q0 -18 8.5 -37.5t22 -35t31.5 -26t37 -10.5h467v108h-369v227h185v-60h-128v-108h226q19 0 37 10.5t31.5 26t22 35t8.5 37.5zM296 154v-29h31l-30 29h-1z" />
    <glyph glyph-name="FL0CF3h" unicode="f" horiz-adv-x="619" 
d="M37 -13v417q0 19 9.5 41t25 40t36 30t42.5 12h426v-6l32 -32v-131h-312v-57h239v-6l32 -32v-131h-271v-177h-221l-32 32h-6zM52 404v-402h197v176h271v108h-271v119h312v107h-411q-19 0 -36.5 -10.5t-31 -26t-22 -34.5t-8.5 -37z" />
    <glyph glyph-name="FL0BD3h" unicode="g" horiz-adv-x="689" 
d="M392 119v6h-96v165h123v-198zM631 445v-492q0 -18 -8.5 -37.5t-22 -35t-31.5 -26t-37 -10.5h-401v108h303v385h-185v-227h128v-108h-226q-19 0 -37 10.5t-31.5 26t-22 35t-8.5 37.5v225q0 18 8.5 37.5t22 35t31.5 26t37 10.5h480zM646 454v6h-495q-23 0 -43.5 -12
t-36 -30t-25 -40t-9.5 -42v-225q0 -29 18 -60.5t47 -48.5l14 -14q10 -11 27 -21h-27v-137h6l32 -32h413q22 0 42 11.5t35.5 29t24.5 38.5t9 41v504z" />
    <glyph glyph-name="FL0073h" unicode="h" horiz-adv-x="689" 
d="M249 445h283q19 0 37 -10.5t31.5 -26t22 -35t8.5 -37.5v-334h-197v335h-185v-335h-197v576h197v-133zM296 460v95l-32 32v6h-227v-606h6l32 -32h221v335h123v-303h6l32 -32h221v346q0 23 -11.5 46.5t-29.5 41.5l-13 13q-16 24 -40 41t-52 17h-236z" />
    <glyph glyph-name="FL006Ah" unicode="i" horiz-adv-x="306" 
d="M52 484v94h196v-94h-196zM52 2v442h196v-442h-196zM37 459v-472h6l31 -32h221v466l-17 17h17v117l-32 32v6h-226v-123h6l11 -11h-17z" />
    <glyph glyph-name="FL0B4Fh" unicode="j" horiz-adv-x="306" 
d="M52 485v94h196v-94h-196zM248 444v-492q0 -18 -8 -37.5t-21.5 -35t-31.5 -26t-37 -10.5h-157v108h59v493h196zM37 594v-124h6l11 -11h-17v-493h-59v-138h6l32 -31h169q21 0 41 11.5t35.5 29t24.5 38.5t9 41v504l-17 17h17v118l-32 32v6h-226z" />
    <glyph glyph-name="FL0C2Dh" unicode="k" horiz-adv-x="689" 
d="M249 311l152 134h212l-151 -134h70q19 0 37 -10.5t31.5 -26t22 -35t8.5 -37.5v-200h-197v201h-185v-201h-197v576h197v-267zM37 593v-606h6l32 -32h221v202h123v-170h6l32 -32h221v212q0 23 -11.5 46.5t-29.5 41.5l-13 13q-11 16 -26.5 29.5t-33.5 21.5l118 102l-33 33
l7 6h-263l-97 -86v181l-32 32v6h-227z" />
    <glyph glyph-name="FL0070h" unicode="l" horiz-adv-x="306" 
d="M52 2v576h196v-576h-196zM43 -13l31 -32h221v600l-32 32v6h-226v-606h6z" />
    <glyph glyph-name="FL0078h" unicode="m" horiz-adv-x="954" 
d="M683 -13v303h-83v-335h-182l-32 32h-6v303h-84v-335h-221l-32 32h-6v472h358q7 0 16.5 -3t20.5 -7.5t21.5 -9.5t19.5 -10q17 10 41.5 20t38.5 10h244q28 0 52 -17t40 -41l13 -13q18 -17 29.5 -40.5t11.5 -46.5v-346h-222l-32 32h-6zM698 337v-335h198v334q0 18 -8.5 37
t-22 34.5t-31.5 26t-37 10.5h-244q-8 0 -19.5 -3.5t-23.5 -8.5t-22 -10.5t-14 -9.5q-4 4 -13.5 9.5t-21.5 10.5t-24 8.5t-20 3.5h-343v-442h197v335h146v-335h158v335h145z" />
    <glyph glyph-name="FL007Ch" unicode="n" horiz-adv-x="697" 
d="M75 -45l-32 32h-6v472h503q28 0 52 -17t40 -41l13 -13q18 -17 29.5 -40.5t11.5 -46.5v-346h-221l-32 32h-6v303h-131v-335h-221zM442 337v-335h197v334q0 18 -8.5 37t-22 34.5t-31.5 26t-37 10.5h-488v-442h197v335h193z" />
    <glyph glyph-name="FL0074h" unicode="o" horiz-adv-x="689" 
d="M116 -12l-14 14q-29 17 -47 48.5t-18 60.5v225q0 19 9.5 41t25 40t36 30t43.5 12h381q28 0 52 -17t40 -41l13 -13q18 -17 29.5 -40.5t11.5 -46.5v-225q0 -20 -9 -41t-24.5 -39t-35.5 -29.5t-42 -11.5h-382q-19 0 -37 9t-32 24zM631 111v225q0 18 -8.5 37t-22 34.5
t-31.5 26t-37 10.5h-381q-19 0 -37 -10.5t-31.5 -26t-22 -34.5t-8.5 -37v-225q0 -18 8.5 -37.5t22 -35t31.5 -26t37 -10.5h381q19 0 37 10.5t31.5 26t22 35t8.5 37.5zM249 110v227h185v-227h-185zM296 290v-165h123v165h-123z" />
    <glyph glyph-name="FL0076h" unicode="p" horiz-adv-x="689" 
d="M75 -181l-32 31h-6v610h495q28 0 52 -17t40 -41l13 -13q18 -18 29.5 -41.5t11.5 -46.5v-225q0 -20 -9 -41t-24.5 -39t-35.5 -29.5t-42 -11.5h-238l-32 32h-1v-168h-221zM631 111v225q0 18 -8.5 37.5t-22 35t-31.5 26t-37 10.5h-480v-580h197v472h185v-227h-128v-108h226
q19 0 37 10.5t31.5 26t22 35t8.5 37.5zM296 290v-165h123v165h-123z" />
    <glyph glyph-name="FL007Ah" unicode="q" horiz-adv-x="689" 
d="M392 119v6h-96v165h123v-198zM52 111v225q0 18 8.5 37.5t22 35t31.5 26t37 10.5h480v-580h-197v472h-185v-227h128v-108h-226q-19 0 -37 10.5t-31.5 26t-22 35t-8.5 37.5zM37 336v-225q0 -29 18 -60.5t47 -48.5l14 -14q14 -15 32 -24t37 -9h234v-105h6l32 -31h221v603
l-32 32v6h-495q-23 0 -43.5 -12t-36 -30t-25 -40t-9.5 -42z" />
    <glyph glyph-name="FL007Dh" unicode="r" horiz-adv-x="505" 
d="M52 2v334q0 18 8.5 37t22 34.5t31 26t36.5 10.5h297v-107h-198v-335h-197zM43 -13l32 -32h221v335h198v131l-32 32v6h-312q-22 0 -42.5 -12t-36 -30t-25 -40t-9.5 -41v-349h6z" />
    <glyph glyph-name="FL0081h" unicode="s" horiz-adv-x="689" 
d="M678 290h-129q23 -5 42 -20.5t33 -35.5l13 -13q18 -18 29.5 -41.5t11.5 -46.5v-57q0 -20 -9 -41t-24.5 -39t-35.5 -29.5t-42 -11.5h-492l-32 32h-6v138h129q-27 4 -50 30l-14 14q-29 17 -47 48.5t-18 60.5v58q0 19 9.5 41t25 40t36 30t43.5 12h495v-6l32 -32v-131z
M631 111v57q0 18 -8.5 37.5t-22 35t-31.5 26t-37 10.5h-283v60h382v107h-480q-19 0 -37 -10.5t-31.5 -26t-22 -34.5t-8.5 -37v-58q0 -18 8.5 -37.5t22 -35t31.5 -26t37 -10.5h283v-59h-382v-108h480q19 0 37 10.5t31.5 26t22 35t8.5 37.5z" />
    <glyph glyph-name="FL007Fh" unicode="t" horiz-adv-x="579" 
d="M568 290h-272v-165h240v-6l32 -32v-132h-383q-20 0 -37.5 9t-31.5 24l-14 14q-29 17 -47 48.5t-18 60.5v482h227v-6l32 -32v-95h240v-6l32 -32v-132zM150 2h371v108h-272v227h272v108h-272v133h-197v-467q0 -18 8.5 -37.5t22 -35t31 -26t36.5 -10.5z" />
    <glyph glyph-name="FL007Bh" unicode="u" horiz-adv-x="689" 
d="M532 2h-381q-19 0 -37 10.5t-31.5 26t-22 35t-8.5 37.5v333h197v-334h185v334h197v-333q0 -18 -8.5 -37.5t-22 -35t-31.5 -26t-37 -10.5zM646 459h-227v-334h-123v296l-32 32v6h-227v-348q0 -29 18 -60.5t47 -48.5l14 -14q14 -15 32 -24t37 -9h382q22 0 42 11.5
t35.5 29.5t24.5 39t9 41v345l-32 32v6z" />
    <glyph glyph-name="FL0082h" unicode="v" horiz-adv-x="702" 
d="M187 36l-177 423h254l3 -9v1l29 -29l99 -257l118 294h173l-3 -7l33 -31l-170 -409q-20 -37 -48.5 -47t-70.5 -10h-83q-39 0 -64 6.5t-42 23.5l-17 16h1q-24 14 -35 35zM383 112l-130 332h-221l166 -395v1q16 -27 41 -37.5t70 -10.5h83q38 0 65 9.5t46 44.5l160 388h-140
l-128 -318q-3 -6 -4.5 -7t-3.5 -3z" />
    <glyph glyph-name="FL0083h" unicode="w" horiz-adv-x="1068" 
d="M10 459h255l3 -9v1l28 -29l102 -261l51 110l-67 188h246l3 -9v1l29 -29l101 -257l117 294h174l-3 -7l33 -31l-170 -409q-20 -37 -48.5 -47t-70.5 -10h-85q-38 0 -62.5 5t-41.5 22l-21 20q-18 10 -28 29l-6 -15q-20 -39 -48.5 -50t-70.5 -11h-86q-38 0 -62 7.5t-42 25.5
l-18 18h1q-23 13 -36 35zM749 112l-132 332h-215l63 -173l-69 -149q-1 -3 -10 -12l-132 334h-222l167 -395v1q19 -27 43 -37.5t67 -10.5h86q38 0 63.5 9.5t44.5 44.5l27 61l32 -68q14 -29 40 -38t71 -9h85q37 0 64 9.5t46 44.5l161 388h-141l-127 -318q-3 -6 -4.5 -7
t-3.5 -3z" />
    <glyph glyph-name="FL0085h" unicode="x" horiz-adv-x="750" 
d="M38 -45l-32 32h-13l253 216l-249 256h287l119 -122l146 122h203l-7 -6l33 -33l-248 -212l217 -221h-3l31 -32h-279l-32 32h-4l-87 88l-143 -120h-192zM269 202l-235 -200h156l151 127l126 -127h243l-235 241l234 201h-153l-153 -128l-126 128h-243z" />
    <glyph glyph-name="FL0080h" unicode="y" horiz-adv-x="689" 
d="M631 445v-492q0 -18 -8.5 -37.5t-22 -35t-31.5 -26t-37 -10.5h-401v108h303v50h-283q-19 0 -37 10.5t-31.5 26t-22 35t-8.5 37.5v334h197v-335h185v335h197zM646 454v6h-227v-335h-123v297l-32 32v6h-227v-349q0 -29 18 -60.5t47 -48.5l14 -14q10 -11 27 -21h-27v-137h6
l32 -32h413q22 0 42 11.5t35.5 29t24.5 38.5t9 41v504z" />
    <glyph glyph-name="FL0084h" unicode="z" horiz-adv-x="635" 
d="M52 110l273 227h-273v107h525v-107l-279 -227h279v-108h-525v108zM592 119v6h-179l211 170v126l-32 32v6h-555v-137h6l32 -32h168l-206 -172v-131h6l32 -32h549v132z" />
    <glyph glyph-name="FL0087h" unicode="{" horiz-adv-x="465" 
d="M454 478h-158v-408h126v-6l32 -32v-132h-269q-20 0 -38 9t-32 24l-13 14q-29 18 -47 49t-18 60v468q0 19 9.5 41t25 40t36 30t42.5 12h272v-6l32 -32v-131zM150 -53h257v108h-158v470h158v107h-257q-19 0 -36.5 -10.5t-31 -26t-22 -34.5t-8.5 -37v-468q0 -18 8.5 -37.5
t22 -35t31 -26t36.5 -10.5z" />
    <glyph glyph-name="FL007Eh" unicode="|" horiz-adv-x="300" 
d="M52 -156v887h190v-887h-190zM43 -171l31 -32h215v912l-32 31v6h-220v-917h6z" />
    <glyph glyph-name="FL0088h" unicode="}" horiz-adv-x="465" 
d="M51 55h158v470h-158v107h257q19 0 36.5 -10.5t31 -26t22 -34.5t8.5 -37v-468q0 -18 -8.5 -37.5t-22 -35t-31 -26t-36.5 -10.5h-257v108zM42 510l32 -32h120v-408h-158v-138h6l32 -32h268q22 0 42 11.5t35.5 29.5t24.5 39t9 41v468q0 23 -11.5 46.5t-29.5 40.5l-13 13
q-16 24 -40 41t-51 17h-272v-137h6z" />
    <glyph glyph-name="FL0089h" unicode="~" horiz-adv-x="533" 
d="M248 219l-8 13l-26 -44h-167l-32 31h-10l83 136h191l8 -13l24 -24l7 -13l28 50h176l-4 -7l33 -32l-79 -128h-187l-32 31h-5zM98 340l-65 -106h139l41 73l45 -73h171l65 106h-140l-40 -73l-45 73h-171z" />
    <glyph glyph-name="FL0086h" horiz-adv-x="258" 
 />
    <glyph glyph-name="FL00A1h" unicode="&#xa1;" horiz-adv-x="300" 
d="M52 467v111h190v-111h-190zM52 2v414h190v-414h-190zM37 431v-444h6l31 -32h215v438l-27 27h27v135l-32 32v6h-220v-141h6l20 -21h-26z" />
    <glyph glyph-name="FL00A2h" unicode="&#xa2;" horiz-adv-x="619" 
d="M343 593h120v-6l32 -32v-28h81v-6l32 -32v-131h-113v-166h81v-6l32 -31v-132h-113v-68h-114l-32 32h-6v36h-158q-20 0 -37.5 9t-31.5 24l-14 14q-29 17 -47 48t-18 60v226q0 19 9.5 41t25 40t36 30t42.5 12h193v66zM448 177v228h113v107h-113v66h-90v-66h-208
q-19 0 -36.5 -10t-31 -26t-22 -35t-8.5 -37v-226q0 -18 8.5 -37t22 -34.5t31 -26t36.5 -10.5h208v-68h90v68h113v107h-113zM249 177v228h109v-228h-109zM296 358v-166h47v166h-47z" />
    <glyph glyph-name="FL00A3h" unicode="&#xa3;" horiz-adv-x="694" 
d="M37 358h101v112q0 19 9 41t25 40t36 30t43 12h209v-6l31 -32v-131h-94v-65h152v-6l32 -32v-132h-184v-64h254v-6l32 -32v-132h-608l-32 32h-6v138h101v64h-63l-32 32h-6v137zM158 343h-106v-107h104q-3 -8 -3 -14v-112h-101v-108h584v108h-286v126h184v108h-184v127h95
v107h-194q-20 0 -37.5 -10.5t-31 -26t-21.5 -34.5t-8 -37v-112q0 -7 5 -15z" />
    <glyph glyph-name="FL00A4h" unicode="&#xa4;" horiz-adv-x="891" 
d="M893 593l-7 -6l33 -33l-230 -201v-166l199 -200h-4l32 -32h-280l-32 32h-4l-97 97h-124l-147 -129h-195l-32 32h-13l241 210v157l-236 239h288l129 -129h123l150 129h206zM642 212v183l208 183h-156l-149 -129h-138l-129 129h-244l214 -217v-172l-214 -187h157l147 129
h140l129 -129h244zM381 214v152h128v-152h-128zM428 319v-90h66v90h-66z" />
    <glyph glyph-name="FL00A6h" unicode="&#xa5;" horiz-adv-x="896" 
d="M141 347h103l-247 246h288l200 -192l206 192h202l-6 -6l33 -33l-209 -207h28v-6l32 -32v-132h-24l24 -23v-132h-176v-67h-222l-32 32h-6v35h-156l-32 32h-6v137h24l-18 18h-6v138zM281 332h-125v-108h194v-48h-194v-107h194v-67h198v67h176v107h-176v48h176v108h-115
l247 246h-158l-213 -198l-207 198h-244z" />
    <glyph glyph-name="FL00A7h" unicode="&#xa6;" horiz-adv-x="300" 
d="M37 -171v448h26l-20 21h-6v448h220v-6l32 -31v-443h-27l27 -27v-442h-215l-31 32h-6zM52 262v-418h190v418h-190zM52 731v-418h190v418h-190z" />
    <glyph glyph-name="FL00ACh" unicode="&#xa7;" horiz-adv-x="689" 
d="M658 440h-109q23 -5 42 -20.5t33 -35.5l13 -13q18 -18 29.5 -41.5t11.5 -46.5v-58q0 -14 -7.5 -27.5t-15.5 -24.5l-3 -3q5 -3 8 -8q7 -11 12.5 -21.5t5.5 -24.5v-58q0 -20 -9 -41t-24.5 -39t-35.5 -29.5t-42 -11.5h-472l-32 32h-6v138h109q-28 6 -50 31l-14 14
q-15 8 -27 20.5t-20.5 27t-13 30t-4.5 30.5v58q0 13 6.5 25.5t14.5 26.5v-1l1 1q0 1 1 2v1q-9 12 -16 26t-7 29v58q0 19 9.5 41t25 40t36 30t43.5 12h475v-6l32 -32v-131zM631 260v58q0 18 -8.5 37.5t-22 35t-31.5 26t-37 10.5h-283v60h362v107h-460q-19 0 -37 -10.5
t-31.5 -26t-22 -34.5t-8.5 -37v-58q0 -12 6.5 -23.5t14.5 -22.5l6 -9q-2 -3 -4 -6.5t-6 -8.5q-7 -11 -12 -20.5t-5 -19.5v-58q0 -18 8.5 -37t22 -35t31.5 -26t37 -10h283v-60h-362v-108h460q19 0 37 10.5t31.5 26t22 35t8.5 37.5v58q0 10 -5 19t-12 19q-2 4 -5.5 8t-5.5 8
q2 2 3.5 5.5t3.5 5.5q8 11 14.5 22t6.5 22zM249 256v66h185v-66h-185zM296 275v-4h123v4h-123z" />
    <glyph glyph-name="FL00A8h" unicode="&#xa8;" horiz-adv-x="510" 
d="M296 574v91h156v-91h-156zM52 574v91h156v-91h-156zM43 559l32 -32h180v116l-32 31v6h-186v-121h6zM287 559l32 -32h180v116l-32 31v6h-186v-121h6z" />
    <glyph glyph-name="FL00B1h" unicode="&#xa9;" horiz-adv-x="276" 
d="M135 495q-43 0 -43 46q0 23 12 35.5t32 12.5q27 0 36 -26l-11 -2q-11 17 -25 17q-31 0 -31 -37q0 -34 29 -34q24 0 29 20l11 -4q-7 -28 -39 -28zM135 614q-29 0 -50.5 -21t-21.5 -52q0 -21 10 -34q17 -21 23 -25l8 -3q13 -7 31 -7t35 9q15 8 26 26q10 13 10 34
q0 20 -9.5 37t-27.5 26h1q-16 10 -35 10zM135 624q24 0 40 -10q23 -11 33 -34q10 -13 10 -39q0 -21 -12 -40q-5 -10 -11.5 -15.5t-17.5 -13.5l-2 -2h1q-20 -8 -30 -9.5t-11 -1.5q-6 0 -42 11h1l-3 2q-1 1 -2 1l-1 1q-8 6 -14.5 12t-13.5 20q-8 14 -8 35q0 22 10 43v-1
q15 24 31 31q29 10 42 10zM135 639q-7 0 -19 -3.5t-31 -9.5q-22 -10 -31 -25q-8 -17 -12.5 -30.5t-4.5 -29.5q0 -28 13 -48v1q6 -14 12.5 -20t15.5 -12q0 -1 1 -1q2 -2 3 -2l17 -17q7 -7 16 -13q0 -1 1 -1q0 -1 2 -1l5 -3q36 -12 47 -12q1 0 12 1.5t37 12.5l1 1h-1q3 1 5 3
q8 6 13.5 11.5t12.5 18.5h2q13 22 13 47q0 29 -13 48l-1 1v-1q-2 7 -4.5 9.5t-5.5 6.5l-3 3l-21 20q-2 2 -2 3q-1 1 -1 4q-10 15 -34 26q-21 12 -45 12z" />
    <glyph glyph-name="FL00AAh" unicode="&#xaa;" horiz-adv-x="702" 
d="M270 75v15l-54 -135h-166l-32 32h-8l171 413q21 38 51 48.5t72 10.5h83q51 0 79 -11t44 -38v-2l18 -17q4 -5 7.5 -9t5.5 -8l175 -419h-247l-32 32h-5l-22 56h-102l-32 32h-6zM366 197h-81v-107h124l33 -88h221l-165 395v-1q-16 27 -41 37.5t-70 10.5h-83q-38 0 -65 -9.5
t-46 -44.5l-161 -388h141l128 319q3 6 4.5 7t3.5 3l4 4zM331 243l-13 -31h25z" />
    <glyph glyph-name="FL00ABh" unicode="&#xab;" horiz-adv-x="353" 
d="M158 250v5l-13 8l42 26v-68zM294 334l-67 -44l67 -44v-151l-92 66v257l92 66v-150zM143 334l-67 -44l67 -44v-151l-92 66v257l92 66v-150zM50 143l24 -24l116 -82v113l10 -7l25 -24l116 -82v181l-32 32v5l-13 8l45 29v180l-32 32v10l-119 -87v45l-32 32v10l-122 -88v-273
z" />
    <glyph glyph-name="FL00ADh" unicode="&#xac;" horiz-adv-x="526" 
d="M37 358h446v-6l32 -32v-285h-132l-31 32h-6v122h-271l-32 32h-6v137zM360 236v-155h108v262h-416v-107h308z" />
    <glyph glyph-name="FL00AEh" unicode="&#xad;" horiz-adv-x="366" 
d="M37 219v137h286v-6l32 -32v-130h-280l-32 31h-6zM52 341v-107h256v107h-256z" />
    <glyph glyph-name="FL00A9h" unicode="&#xae;" horiz-adv-x="276" 
d="M112 574v-30h18q15 0 19.5 4t4.5 12q0 10 -10 14h-32zM99 585h30q18 0 24 -3q2 -2 4.5 -4t3.5 -3l1 -1q5 -8 5 -13q0 -9 -7 -16t-18 -8v-2q5 -2 8 -6t8 -12v1q1 -2 3 -4.5t3 -3.5l7 -13h-15l-6 13q-12 18 -18 21h1q-3 4 -12 4h-9v-38h-13v88zM135 614q-29 0 -50.5 -21
t-21.5 -52q2 -9 4 -14t7 -22q7 -13 22 -23l8 -3q15 -3 23 -5l8 -2v-1q20 0 36 10l2 2l12 10t11 13q10 16 10 40q0 37 -37 58h1q-16 10 -35 10zM135 624q24 0 40 -10q21 -11 31 -31q12 -20 12 -42q0 -21 -12 -40q-7 -16 -31 -31h1q-17 -8 -28.5 -9.5t-12.5 -1.5q-24 0 -41 11
q-21 15 -31.5 31.5t-10.5 39.5q0 22 10 43v-1q6 9 13 17t18 14q29 10 42 10zM135 639q-10 0 -53 -15q-22 -11 -29 -26q-8 -17 -12 -30t-4 -27q0 -29 12 -48t35 -36l2 -1l4 -2h-1l12 -12q5 -5 9.5 -9t10.5 -8q20 -13 49 -13q1 0 14.5 1.5t35.5 12.5q20 12 30 34h2
q13 22 13 47q0 29 -13 48v-1q-4 6 -7.5 11.5t-7.5 9.5l-18 18q-6 11 -15 19.5t-24 14.5q-21 12 -45 12z" />
    <glyph glyph-name="FL00AFh" unicode="&#xaf;" horiz-adv-x="669" 
d="M37 598h589v-6l32 -32v-93h-583l-32 31h-6v100zM52 583v-70h559v70h-559z" />
    <glyph glyph-name="FL00B0h" unicode="&#xb0;" horiz-adv-x="265" 
d="M74 528l-31 32h-6v121h185v-6l32 -31v-116h-180zM52 666v-92h155v92h-155zM157 607h-55v28h55v-28z" />
    <glyph glyph-name="FL00BEh" unicode="&#xb1;" horiz-adv-x="526" 
d="M37 125h182l-22 22h-6v122h-116l-32 32h-6v138h154v154h138v-6l31 -32v-116h123v-6l32 -32v-132h-155v-144h123v-6l32 -32v-132h-440l-32 32h-6v138zM314 161v155h154v108h-154v154h-108v-154h-154v-108h154v-155h108zM52 110v-108h416v108h-416z" />
    <glyph glyph-name="FL00B6h" unicode="&#xb2;" horiz-adv-x="456" 
d="M349 443h-181v-29h230v-76h-346v126q0 18 14.5 36t34.5 18h181v32h-230v74h297q20 0 34.5 -17.5t14.5 -35.5v-63q0 -9 -4 -20.5t-11 -21t-15.5 -16.5t-18.5 -7zM43 323l32 -32h370v100l-25 24q11 13 18 28.5t7 29.5v63q0 13 -6 25.5t-16 22.5l-19 19v-1q-8 15 -23 26
t-32 11h-312v-104h6l18 -19q-24 -24 -24 -52v-141h6z" />
    <glyph glyph-name="FL00B3h" unicode="&#xb3;" horiz-adv-x="421" 
d="M72 518h175v32h-195v74h262q20 0 34.5 -17.5t14.5 -35.5v-56q0 -3 -2.5 -7.5t-6.5 -9.5t-7.5 -9.5t-5.5 -6.5l3 -6t2 -3q5 -6 11 -13.5t6 -12.5v-55q0 -18 -14.5 -36t-34.5 -18h-262v76h195v29h-175v75zM57 521v-92h6l2 -2l1 2h-29v-106h6l32 -32h274q12 0 23.5 6.5
t19.5 16t13 21t5 22.5v56q0 8 -6 17t-12 16q6 8 12 17t6 17v56q0 13 -6 25.5t-16 22.5l-19 19v-1q-8 15 -23 26t-32 11h-277v-104h6z" />
    <glyph glyph-name="FL00B4h" unicode="&#xb4;" horiz-adv-x="269" 
d="M7 559l64 121h190l-5 -6l33 -32l-88 -115h-153l-32 32h-9zM79 665l-47 -91h127l70 91h-150z" />
    <glyph glyph-name="FL00B5h" unicode="&#xb5;" horiz-adv-x="689" 
d="M419 460h227v-6l32 -32v-346q0 -20 -9 -41t-24.5 -39t-35.5 -29.5t-42 -11.5h-271v-136h-221l-32 31h-6v610h227v-6l32 -32v-297h123v335zM532 2q19 0 37 10.5t31.5 26t22 35t8.5 37.5v334h-197v-335h-185v335h-197v-580h197v137h283z" />
    <glyph glyph-name="FL00BDh" unicode="&#xb6;" horiz-adv-x="748" 
d="M52 345v125q0 18 8.5 37.5t22 35t31.5 26t37 10.5h539v-727h-197v619h-86v-619h-199v384h-57q-19 0 -37 10.5t-31.5 26t-22 35t-8.5 37.5zM37 470v-125q0 -29 18 -60.5t47 -48.5l14 -14q30 -32 69 -32h8v-353h6l32 -32h223v619h24v-587h6l32 -32h221v751l-32 32v5h-554
q-23 0 -43.5 -12t-36 -30t-25 -40t-9.5 -41z" />
    <glyph glyph-name="FL00B7h" unicode="&#xb7;" horiz-adv-x="240" 
d="M51 234v107h131v-107h-131zM43 219l31 -31h155v130l-32 32v6h-160v-137h6z" />
    <glyph glyph-name="FL00B9h" unicode="&#xb8;" horiz-adv-x="222" 
d="M11 -209l-32 32h-6v135h65v58h141v-6l32 -32v-68q0 -20 -9 -41t-24 -38t-35 -28.5t-42 -11.5h-90zM165 -56v57h-112v-57h-65v-107h78q19 0 37 10t31.5 26t22 34.5t8.5 36.5z" />
    <glyph glyph-name="FL00BCh" unicode="&#xb9;" horiz-adv-x="279" 
d="M236 639v-6l32 -31v-311h-140l-32 32h-6v180h-16l-31 32h-6v104h199zM105 550v-212h116v286h-169v-74h53z" />
    <glyph glyph-name="FL00BAh" unicode="&#xba;" horiz-adv-x="456" 
d="M97 309l-20 20h1q-18 9 -29.5 27.5t-11.5 35.5v179q0 11 5 23t14 22t20.5 16.5t24.5 6.5h248q17 0 32 -11t23 -26v1l19 -19q10 -10 16 -22.5t6 -25.5v-179q0 -11 -5 -22.5t-13 -21t-19.5 -16t-23.5 -6.5h-249q-20 0 -38 18zM398 392v179q0 18 -14.5 35.5t-34.5 17.5h-248
q-20 0 -34.5 -17.5t-14.5 -35.5v-179q0 -18 14.5 -36t34.5 -18h248q20 0 34.5 18t14.5 36zM168 414v136h114v-136h-114zM215 503v-74h52v74h-52z" />
    <glyph glyph-name="FL00BBh" unicode="&#xbb;" horiz-adv-x="353" 
d="M37 65v190l46 31l-8 6l-24 23l-14 10v189l122 -88v-4l29 -29v121l122 -88v-4l32 -32v-271l-115 -82l-33 33l-6 -5v52l-112 -80l-33 33zM203 334l67 -44l-67 -44v-151l92 66v257l-92 66v-150zM52 334l67 -44l-67 -44v-151l92 66v257l-92 66v-150zM226 292l-24 24l-11 7
v-67l43 30z" />
    <glyph glyph-name="FL03A7h" unicode="&#xbc;" horiz-adv-x="822" 
d="M242 593v-6l32 -32v-255l236 293h198l-5 -6l33 -33l-298 -370l182 120h116v-6l32 -32v-117h11v-6l32 -32v-101h-43v-55h-142l-32 32h-5v23h-179l-32 32h-6v60l-119 -147h-189l-32 32h-11l207 257h-94l-32 32h-6v181h-16l-32 31h-6v105h200zM518 578l-465 -576h158
l464 576h-157zM626 289l-239 -156v-76h216v-55h118v55h43v77h-43v155h-95zM111 503v-212h116v287h-170v-75h54zM516 134l87 56v-56h-87z" />
    <glyph glyph-name="FL037Ah" unicode="&#xbd;" horiz-adv-x="910" 
d="M242 593v-6l32 -32v-255l236 293h198l-5 -6l33 -33l-202 -250h269q17 0 32 -11t23 -27v1l19 -19q10 -10 16 -22.5t6 -25.5v-62q0 -14 -7 -30t-18 -29l25 -24v-100h-371l-32 32h-6v142q0 27 24 51l-18 19h-6v48l-237 -292h-189l-32 32h-11l207 257h-94l-32 32h-6v181h-16
l-32 31h-6v105h200zM518 578l-465 -576h159l463 576h-157zM622 108h181q10 0 18.5 7t15.5 16.5t11 20.5t4 20v63q0 18 -14.5 36t-34.5 18h-298v-75h230v-32h-181q-20 0 -34.5 -17.5t-14.5 -35.5v-127h347v76h-230v30zM111 503v-212h116v287h-170v-75h54z" />
    <glyph glyph-name="FL03CFh" unicode="&#xbe;" horiz-adv-x="937" 
d="M718 190l-87 -56h87v56zM502 133l239 156h95v-155h43v-77h-43v-55h-118v55h-216v76zM72 472h175v31h-195v75h263q20 0 34.5 -18t14.5 -36v-55q0 -3 -2.5 -7.5t-6.5 -9.5t-7.5 -9.5t-5.5 -6.5l3 -6t2 -3q5 -6 11 -13.5t6 -12.5v-56q0 -18 -14.5 -36t-34.5 -18h-263v76h195
v30h-175v75zM168 2l465 576h157l-464 -576h-158zM57 475v-93h6l2 -2l1 2h-29v-106h6l32 -32h268l-207 -257h11l32 -32h189l119 147v-60h6l32 -32h178v-23h6l32 -32h142v55h43v101l-32 32v6h-11v117l-32 32v6h-116l-182 -120l298 370l-33 33l5 6h-198l-214 -266v39
q0 8 -6 17.5t-12 16.5q6 8 12 17t6 17v55q0 13 -6 25.5t-16 22.5l-19 19v-1q-8 16 -23 27t-32 11h-278v-105h6z" />
    <glyph glyph-name="FL00BFh" unicode="&#xbf;" horiz-adv-x="774" 
d="M448 467v111h191v-111h-191zM151 344h297v70h190v-69q0 -18 -8.5 -37.5t-22 -35t-31 -26t-36.5 -10.5h-291v-126h467v-108h-565q-19 0 -37 10.5t-31.5 26t-22 35t-8.5 37.5v124q0 18 8.5 37.5t22 35t31.5 26t37 10.5zM433 359h-282q-23 0 -43.5 -12t-36 -30t-25 -40
t-9.5 -42v-124q0 -29 18 -60.5t47 -48.5l14 -14q14 -15 32 -24t37 -9h578v132l-32 32v6h-435v64h278q22 0 42 11.5t35.5 29.5t24.5 39t9 41v81l-29 29h30v135l-32 32v6h-221v-141h6l23 -23h-29v-70z" />
    <glyph glyph-name="FL00C0h" unicode="&#xc0;" 
d="M361 638l-72 93h151l48 -93h-127zM296 359v65h240v-65h-240zM52 2v468q0 18 8.5 37.5t22 35t31.5 26t37 10.5h498q19 0 37 -10.5t31.5 -26t22 -35t8.5 -37.5v-468h-197v234h-245v108h245v127h-302v-469h-197zM455 734l-5 12h-192l95 -123h4l30 -30h-236q-23 0 -43.5 -12
t-36 -30t-25 -40t-9.5 -41v-483h6l32 -32h221v266h1l32 -31h207v-203h6l31 -32h222v480q0 23 -11.5 46.5t-29.5 41.5l-13 13q-16 24 -40 40.5t-52 16.5h-107l-60 116l-27 26v-1z" />
    <glyph glyph-name="FL00C1h" unicode="&#xc1;" 
d="M311 638l48 93h151l-71 -93h-128zM296 359v65h240v-65h-240zM52 2v468q0 18 8.5 37.5t22 35t31.5 26t37 10.5h498q19 0 37 -10.5t31.5 -26t22 -35t8.5 -37.5v-468h-197v234h-245v108h245v127h-302v-469h-197zM351 746l-65 -123h9l30 -30h-174q-23 0 -43.5 -12t-36 -30
t-25 -40t-9.5 -41v-483h6l32 -32h221v266h1l32 -31h207v-203h6l31 -32h222v480q0 23 -11.5 46.5t-29.5 41.5l-13 13q-16 24 -40 40.5t-52 16.5h-167l87 114l-32 33l5 6h-191z" />
    <glyph glyph-name="FL00C2h" unicode="&#xc2;" 
d="M427 636l8 -12h5l31 -30h-73zM296 359v65h240v-65h-240zM444 639l-44 68l-44 -68h-152l67 93h258l65 -93h-150zM52 2v468q0 18 8.5 37.5t22 35t31.5 26t37 10.5h498q19 0 37 -10.5t31.5 -26t22 -35t8.5 -37.5v-468h-197v234h-245v108h245v127h-302v-469h-197zM37 470
v-483h6l32 -32h221v266h1l32 -31h207v-203h6l31 -32h222v480q0 23 -11.5 46.5t-29.5 41.5l-13 13q-16 23 -39 39.5t-50 18.5l-82 115l-23 24l-10 14h-274l-87 -123h10l30 -30h-65q-23 0 -43.5 -12t-36 -30t-25 -40t-9.5 -42z" />
    <glyph glyph-name="FL00C3h" unicode="&#xc3;" 
d="M375 636l9 -12h4l31 -30h-73zM296 359v65h240v-65h-240zM346 703l-42 -64h-141l66 93h175l46 -64l42 64h140l-65 -93h-175zM52 2v468q0 18 8.5 37.5t22 35t31.5 26t37 10.5h498q19 0 37 -10.5t31.5 -26t22 -35t8.5 -37.5v-468h-197v234h-245v108h245v127h-302v-469h-197z
M37 470v-483h6l32 -32h221v266h1l32 -31h207v-203h6l31 -32h222v480q0 23 -11.5 46.5t-29.5 41.5l-13 13q-16 24 -40 41t-52 17h-41l83 114l-33 33l5 6h-180l-31 -48l-6 10l-25 24l-9 14h-191l-87 -123h10l31 -30h-24q-23 0 -43.5 -12t-36 -30t-25 -40t-9.5 -42z" />
    <glyph glyph-name="FL00C4h" unicode="&#xc4;" 
d="M444 639v93h156v-93h-156zM199 639v93h157v-93h-157zM296 359v65h240v-65h-240zM52 2v468q0 18 8.5 37.5t22 35t31.5 26t37 10.5h498q19 0 37 -10.5t31.5 -26t22 -35t8.5 -37.5v-468h-197v234h-245v108h245v127h-302v-469h-197zM37 470v-483h6l32 -32h221v266h1l32 -31
h207v-203h6l31 -32h222v480q0 23 -11.5 46.5t-29.5 41.5l-13 13q-16 24 -40 41t-52 17h-2v115l-32 32v6h-186v-123h6l31 -30h-63v115l-32 32v6h-186v-123h5l31 -30h-70q-23 0 -43.5 -12t-36 -30t-25 -40t-9.5 -42z" />
    <glyph glyph-name="FL00C5h" unicode="&#xc5;" 
d="M37 -13v483q0 20 9.5 42t25 40t36 30t43.5 12h192l-31 30h-6v123h187v-6l32 -32v-115h124q28 0 52 -17t40 -41l13 -13q18 -18 29.5 -41.5t11.5 -46.5v-480h-222l-31 32h-6v203h-207l-32 31h-1v-266h-221l-32 32h-6zM52 470v-468h197v469h302v-127h-245v-108h245v-234h197
v468q0 18 -8.5 37.5t-22 35t-31.5 26t-37 10.5h-498q-19 0 -37 -10.5t-31.5 -26t-22 -35t-8.5 -37.5zM296 424v-65h240v65h-240zM321 732v-93h157v93h-157zM427 672h-55v28h55v-28z" />
    <glyph glyph-name="FL00C6h" unicode="&#xc6;" horiz-adv-x="1237" 
d="M37 -13v483q0 19 9.5 41t25 40t36 30t43.5 12h1043v-6l32 -32v-131h-430v-65h357v-6l32 -32v-132h-389v-64h398v-6l32 -32v-132h-652l-32 32h-6v202h-207l-32 32v-266h-222l-32 32h-6zM52 470v-468h198v469h301v-127h-245v-108h245v-234h628v108h-430v126h389v108h-389
v127h430v107h-1028q-19 0 -37 -10.5t-31.5 -26t-22 -34.5t-8.5 -37zM297 424v-65h239v65h-239z" />
    <glyph glyph-name="FL00C7h" unicode="&#xc7;" horiz-adv-x="737" 
d="M726 424h-430v-299h398v-6l32 -32v-132h-207v-46q0 -20 -9 -41t-24 -38t-35 -28.5t-42 -11.5h-91l-32 31h-6v134h-95q-19 0 -37 9t-32 24l-14 14q-29 17 -47 48.5t-18 60.5v359q0 20 9.5 42t25 40t36 30t43.5 12h543v-6l32 -32v-132zM473 -56v58h206v108h-430v361h430
v108h-528q-19 0 -37 -10.5t-31.5 -26t-22 -35t-8.5 -37.5v-359q0 -18 8.5 -37.5t22 -35t31.5 -26t37 -10.5h209v-59h-65v-107h79q19 0 37 10t31.5 26t22 35t8.5 37z" />
    <glyph glyph-name="FL00C8h" unicode="&#xc8;" horiz-adv-x="737" 
d="M473 638h-127l-72 93h151zM679 2h-528q-19 0 -37 10.5t-31.5 26t-22 35t-8.5 37.5v359q0 18 8.5 37.5t22 35t31.5 26t37 10.5h528v-108h-430v-127h389v-108h-389v-126h430v-108zM440 734l-5 12h-192l95 -123h4l30 -30h-221q-23 0 -43.5 -12t-36 -30t-25 -40t-9.5 -41
v-359q0 -29 18 -60.5t47 -48.5l14 -14q14 -15 32 -24t37 -9h541v132l-32 32v6h-398v65h389v131l-32 32v6h-357v65h430v132l-32 32v5h-168l-59 116l-27 26v-1z" />
    <glyph glyph-name="FL00C9h" unicode="&#xc9;" horiz-adv-x="737" 
d="M409 638h-128l48 93h151zM679 2h-528q-19 0 -37 10.5t-31.5 26t-22 35t-8.5 37.5v359q0 18 8.5 37.5t22 35t31.5 26t37 10.5h528v-108h-430v-127h389v-108h-389v-126h430v-108zM321 746l-65 -123h9l30 -30h-144q-23 0 -43.5 -12t-36 -30t-25 -40t-9.5 -41v-359
q0 -29 18 -60.5t47 -48.5l14 -14q14 -15 32 -24t37 -9h541v132l-32 32v6h-398v65h389v131l-32 32v6h-357v65h430v132l-32 32v5h-242l87 114l-32 33l5 6h-191z" />
    <glyph glyph-name="FL00CAh" unicode="&#xca;" horiz-adv-x="737" 
d="M400 636l8 -12h5l31 -30h-73zM417 639l-44 68l-44 -68h-152l67 93h258l65 -93h-150zM679 2h-528q-19 0 -37 10.5t-31.5 26t-22 35t-8.5 37.5v359q0 18 8.5 37.5t22 35t31.5 26t37 10.5h528v-108h-430v-127h389v-108h-389v-126h430v-108zM296 190h389v131l-32 32v6h-357
v65h430v132l-32 32v6h-69l-82 115l-24 24l-9 14h-274l-87 -123h10l30 -30h-38q-23 0 -43.5 -12t-36 -30t-25 -40t-9.5 -42v-359q0 -29 18 -60.5t47 -48.5l14 -14q14 -15 32 -24t37 -9h541v132l-32 32v6h-398v65z" />
    <glyph glyph-name="FL00CBh" unicode="&#xcb;" horiz-adv-x="737" 
d="M685 190h-389v-65h398v-6l32 -32v-132h-541q-19 0 -37 9t-32 24l-14 14q-29 17 -47 48.5t-18 60.5v359q0 20 9.5 42t25 40t36 30t43.5 12h43l-30 30h-6v123h186v-6l32 -32v-115h63l-31 30h-6v123h186v-6l32 -32v-115h74v-6l32 -32v-132h-430v-65h357v-6l32 -32v-131z
M151 2h528v108h-430v126h389v108h-389v127h430v108h-528q-19 0 -37 -10.5t-31.5 -26t-22 -35t-8.5 -37.5v-359q0 -18 8.5 -37.5t22 -35t31.5 -26t37 -10.5zM172 732v-93h157v93h-157zM417 732v-93h156v93h-156z" />
    <glyph glyph-name="FL00CCh" unicode="&#xcc;" horiz-adv-x="306" 
d="M122 638l-71 93h150l47 -93h-126zM52 2v577h196v-577h-196zM215 734l-4 12h-191l94 -123h4l30 -30h-111v-606h6l31 -32h221v601l-32 32v4h41l-62 117l-27 26v-1z" />
    <glyph glyph-name="FL00CDh" unicode="&#xcd;" horiz-adv-x="306" 
d="M177 638h-127l47 93h150zM52 2v577h196v-577h-196zM89 746l-64 -123h9l30 -30h-27v-606h6l31 -32h221v601l-32 32v5h-44l88 114l-33 33l5 6h-190z" />
    <glyph glyph-name="FL00CEh" unicode="&#xce;" horiz-adv-x="307" 
d="M177 636l8 -12h5l31 -30h-73zM194 639l-44 68l-43 -68h-151l66 93h257l66 -93h-151zM52 2v577h197v-577h-197zM43 -13l32 -32h221v601l-32 32v5h139l-82 116l-24 24l-10 14h-273l-88 -123h10l32 -31h69v-606h6z" />
    <glyph glyph-name="FL00CFh" unicode="&#xcf;" horiz-adv-x="307" 
d="M194 639v93h156v-93h-156zM-50 639v93h157v-93h-157zM52 2v577h197v-577h-197zM-59 624l32 -31h64v-606h6l32 -32h221v601l-32 32v5h133v116l-32 32v6h-186v-123h6l31 -30h-63v115l-32 32v6h-186v-123h6z" />
    <glyph glyph-name="FL00D0h" unicode="&#xd0;" horiz-adv-x="923" 
d="M37 221v138h117v234h612q28 0 52 -17t40 -41l13 -13q18 -18 29.5 -41t11.5 -46v-359q0 -20 -9 -41t-24.5 -39t-35.5 -29.5t-42 -11.5h-355l-32 32h-1v-32h-221l-32 32h-6v202h-79l-32 32h-6zM169 344h-117v-108h117v-234h197v234h127v108h-127v127h301v-361h-244v-108
h343q19 0 37 10.5t31.5 26t22 35t8.5 37.5v359q0 18 -8.5 37t-22 34.5t-31.5 26t-37 10.5h-597v-234zM540 189h-127v-64h240v299h-240v-65h95v-6l32 -32v-132z" />
    <glyph glyph-name="FL00D1h" unicode="&#xd1;" horiz-adv-x="816" 
d="M37 -13v607h145l-31 30h-10l87 123h191l9 -14l25 -24l6 -10l31 48h180l-5 -6l33 -33l-83 -114h158v-6l32 -32v-601h-300l-32 32h-5l-237 365v-397h-156l-32 32h-6zM615 147l-278 432h-285v-577h133v452l292 -452h281v577h-143v-432zM391 624l-9 12l-29 -43h-7l9 -13
l24 -24l221 -346v383h-173l-32 31h-4zM311 639l42 64l46 -64h175l65 93h-140l-42 -64l-46 64h-175l-66 -93h141z" />
    <glyph glyph-name="FL00D2h" unicode="&#xd2;" 
d="M361 638l-72 93h151l48 -93h-127zM296 125v299h240v-299h-240zM551 110v361h-302v-361h302zM52 111v359q0 18 8.5 37.5t22 35t31.5 26t37 10.5h498q19 0 37 -10.5t31.5 -26t22 -35t8.5 -37.5v-359q0 -18 -8.5 -37.5t-22 -35t-31.5 -26t-37 -10.5h-498q-19 0 -37 10.5
t-31.5 26t-22 35t-8.5 37.5zM455 734l-5 12h-192l95 -123h4l30 -30h-236q-23 0 -43.5 -12t-36 -30t-25 -40t-9.5 -41v-359q0 -29 18 -60.5t47 -48.5l14 -14q14 -15 32 -24t38 -9h498q22 0 42 11.5t35.5 29.5t24.5 39t9 41v359q0 23 -11.5 46.5t-29.5 41.5l-13 13
q-16 24 -40 40.5t-52 16.5h-107l-60 116l-27 26v-1z" />
    <glyph glyph-name="FL00D3h" unicode="&#xd3;" 
d="M439 638h-128l48 93h151zM296 125v299h240v-299h-240zM249 471v-361h302v361h-302zM748 470v-359q0 -18 -8.5 -37.5t-22 -35t-31.5 -26t-37 -10.5h-498q-19 0 -37 10.5t-31.5 26t-22 35t-8.5 37.5v359q0 18 8.5 37.5t22 35t31.5 26t37 10.5h498q19 0 37 -10.5t31.5 -26
t22 -35t8.5 -37.5zM351 746l-65 -123h9l30 -30h-174q-23 0 -43.5 -12t-36 -30t-25 -40t-9.5 -41v-359q0 -29 18 -60.5t47 -48.5l14 -14q14 -15 32 -24t38 -9h498q22 0 42 11.5t35.5 29.5t24.5 39t9 41v359q0 23 -11.5 46.5t-29.5 41.5l-13 13q-16 24 -40 40.5t-52 16.5h-167
l87 114l-32 33l5 6h-191z" />
    <glyph glyph-name="FL00D4h" unicode="&#xd4;" 
d="M427 636l8 -12h5l31 -30h-73zM444 639l-44 68l-44 -68h-152l67 93h258l65 -93h-150zM296 125v299h240v-299h-240zM249 471v-361h302v361h-302zM748 470v-359q0 -18 -8.5 -37.5t-22 -35t-31.5 -26t-37 -10.5h-498q-19 0 -37 10.5t-31.5 26t-22 35t-8.5 37.5v359
q0 18 8.5 37.5t22 35t31.5 26t37 10.5h498q19 0 37 -10.5t31.5 -26t22 -35t8.5 -37.5zM102 2l14 -14q14 -15 32 -24t38 -9h498q22 0 42 11.5t35.5 29.5t24.5 39t9 41v359q0 23 -11.5 46.5t-29.5 41.5l-13 13q-16 23 -39 39.5t-50 18.5l-82 115l-23 24l-10 14h-274l-87 -123
h10l30 -30h-65q-23 0 -43.5 -12t-36 -30t-25 -40t-9.5 -42v-359q0 -29 18 -60.5t47 -48.5z" />
    <glyph glyph-name="FL00D5h" unicode="&#xd5;" 
d="M116 -12l-14 14q-29 17 -47 48.5t-18 60.5v359q0 20 9.5 42t25 40t36 30t43.5 12h24l-31 30h-10l87 123h191l9 -14l25 -24l6 -10l31 48h180l-5 -6l33 -33l-83 -114h41q28 0 52 -17t40 -41l13 -13q18 -18 29.5 -41.5t11.5 -46.5v-359q0 -20 -9 -41t-24.5 -39t-35.5 -29.5
t-42 -11.5h-498q-20 0 -38 9t-32 24zM748 111v359q0 18 -8.5 37.5t-22 35t-31.5 26t-37 10.5h-498q-19 0 -37 -10.5t-31.5 -26t-22 -35t-8.5 -37.5v-359q0 -18 8.5 -37.5t22 -35t31.5 -26t37 -10.5h498q19 0 37 10.5t31.5 26t22 35t8.5 37.5zM249 110v361h302v-361h-302z
M296 424v-299h240v299h-240zM304 639l42 64l46 -64h175l65 93h-140l-42 -64l-46 64h-175l-66 -93h141zM384 624l-9 12l-29 -42h73l-31 30h-4z" />
    <glyph glyph-name="FL00D6h" unicode="&#xd6;" 
d="M444 639v93h156v-93h-156zM199 639v93h157v-93h-157zM296 125v299h240v-299h-240zM249 471v-361h302v361h-302zM748 470v-359q0 -18 -8.5 -37.5t-22 -35t-31.5 -26t-37 -10.5h-498q-19 0 -37 10.5t-31.5 26t-22 35t-8.5 37.5v359q0 18 8.5 37.5t22 35t31.5 26t37 10.5
h498q19 0 37 -10.5t31.5 -26t22 -35t8.5 -37.5zM102 2l14 -14q14 -15 32 -24t38 -9h498q22 0 42 11.5t35.5 29.5t24.5 39t9 41v359q0 23 -11.5 46.5t-29.5 41.5l-13 13q-16 24 -40 41t-52 17h-2v115l-32 32v6h-186v-123h6l31 -30h-63v115l-32 32v6h-186v-123h5l31 -30h-70
q-23 0 -43.5 -12t-36 -30t-25 -40t-9.5 -42v-359q0 -29 18 -60.5t47 -48.5z" />
    <glyph glyph-name="FL00D7h" unicode="&#xd7;" horiz-adv-x="480" 
d="M346 496l97 -97l-2 -2l33 -33l-107 -107l76 -77l-2 -2l33 -33l-93 -92l-33 33l-2 -2l-76 75l-108 -106l-33 33l-2 -2l-96 96l108 110l-108 109l96 97l110 -109zM127 106l110 108l109 -108l75 74l-108 110l108 109l-75 75l-109 -109l-110 109l-74 -75l108 -109l-108 -110z
" />
    <glyph glyph-name="FL00D8h" unicode="&#xd8;" 
d="M116 -12l-14 14q-29 17 -47 48.5t-18 60.5v359q0 19 9.5 41t25 40t36 30t43.5 12h498q28 0 52 -17t40 -41l13 -13q18 -18 29.5 -41t11.5 -46v-359q0 -20 -9 -41t-24.5 -39t-35.5 -29.5t-42 -11.5h-498q-20 0 -38 9t-32 24zM748 111v359q0 18 -8.5 37t-22 34.5t-31.5 26
t-37 10.5h-498q-19 0 -37 -10.5t-31.5 -26t-22 -34.5t-8.5 -37v-359q0 -18 8.5 -37.5t22 -35t31.5 -26t37 -10.5h498q19 0 37 10.5t31.5 26t22 35t8.5 37.5zM249 191v280h220zM551 389v-279h-220zM411 424h-115v-148zM421 125h115v143z" />
    <glyph glyph-name="FL00D9h" unicode="&#xd9;" 
d="M763 593v-5l32 -32v-480q0 -20 -9 -41t-24.5 -39t-35.5 -29.5t-42 -11.5h-498q-20 0 -38 9t-32 24l-14 14q-29 17 -47 48.5t-18 60.5v482h227v-5l32 -32v-431h240v467h-147l-32 31h-4l-95 123h192l5 -12v1l27 -26l60 -116h221zM748 111v468h-197v-469h-302v469h-197v-468
q0 -18 8.5 -37.5t22 -35t31.5 -26t37 -10.5h498q19 0 37 10.5t31.5 26t22 35t8.5 37.5zM361 638h127l-48 93h-151z" />
    <glyph glyph-name="FL00DAh" unicode="&#xda;" 
d="M763 593v-5l32 -32v-480q0 -20 -9 -41t-24.5 -39t-35.5 -29.5t-42 -11.5h-498q-20 0 -38 9t-32 24l-14 14q-29 17 -47 48.5t-18 60.5v482h227v-5l32 -32v-431h240v468h227zM748 111v468h-197v-469h-302v469h-197v-468q0 -18 8.5 -37.5t22 -35t31.5 -26t37 -10.5h498
q19 0 37 10.5t31.5 26t22 35t8.5 37.5zM286 623l65 123h191l-5 -6l32 -33l-88 -115h-154l-32 31h-9zM359 731l-48 -93h128l71 93h-151z" />
    <glyph glyph-name="FL00DBh" unicode="&#xdb;" 
d="M763 594v-6l32 -32v-480q0 -20 -9 -41t-24.5 -39t-35.5 -29.5t-42 -11.5h-498q-20 0 -38 9t-32 24l-14 14q-29 17 -47 48.5t-18 60.5v483h179l-30 30h-10l87 123h274l10 -14l23 -24l82 -115h111zM748 111v468h-197v-469h-302v469h-197v-468q0 -18 8.5 -37.5t22 -35
t31.5 -26t37 -10.5h498q19 0 37 10.5t31.5 26t22 35t8.5 37.5zM435 624l-8 12l-29 -43h-134v-5l32 -32v-431h240v468h-64l-32 31h-5zM400 707l44 -68h150l-65 93h-258l-67 -93h152z" />
    <glyph glyph-name="FL00DCh" unicode="&#xdc;" 
d="M467 593l-32 31h-6v123h186v-6l32 -32v-115h116v-6l32 -32v-480q0 -20 -9 -41t-24.5 -39t-35.5 -29.5t-42 -11.5h-498q-20 0 -38 9t-32 24l-14 14q-29 17 -47 48.5t-18 60.5v483h184l-31 30h-5v123h186v-6l32 -32v-116h-139v-5l32 -32v-431h240v468h-69zM748 111v468
h-197v-469h-302v469h-197v-468q0 -18 8.5 -37.5t22 -35t31.5 -26t37 -10.5h498q19 0 37 10.5t31.5 26t22 35t8.5 37.5zM199 732v-93h157v93h-157zM444 732v-93h156v93h-156z" />
    <glyph glyph-name="FL00DDh" unicode="&#xdd;" horiz-adv-x="896" 
d="M517 638h-128l48 93h151zM429 746l-65 -123h9l32 -31h154l89 115l-33 33l5 6h-191zM350 2v261l-316 316h244l207 -199l213 199h158l-308 -308v-269h-198zM887 588l6 5h-202l-206 -192l-200 192h-288l338 -337v-269h6l32 -32h222v275l325 325z" />
    <glyph glyph-name="FL00DEh" unicode="&#xde;" 
d="M37 -13v606h227v-6l32 -32v-79h353q28 0 52 -17t40 -41l13 -13q18 -18 29.5 -41.5t11.5 -46.5v-125q0 -19 -9 -40t-24.5 -39t-35.5 -29.5t-42 -11.5h-355l-32 32h-1v-149h-221l-32 32h-6zM649 461h-400v117h-197v-576h197v351h302v-127h-245v-107h343q19 0 37 10t31.5 26
t22 35t8.5 37v125q0 18 -8.5 37.5t-22 35t-31.5 26t-37 10.5zM296 306v-65h240v65h-240z" />
    <glyph glyph-name="FL00DFh" unicode="&#xdf;" 
d="M151 593h498q28 0 52 -17t40 -41l13 -13q18 -18 29.5 -41t11.5 -46v-112q0 -6 -4 -15t-10 -18.5t-13 -19t-12 -15.5q11 -13 25 -33.5t14 -34.5v-111q0 -20 -9 -41t-24.5 -39t-35.5 -29.5t-42 -11.5h-305l-32 32h-6v138h195v64h-157l-32 32h-6v138h195v65h-240v-469h-221
l-32 32h-6v483q0 19 9.5 41t25 40t36 30t43.5 12zM649 578h-498q-19 0 -37 -10.5t-31.5 -26t-22 -34.5t-8.5 -37v-468h197v469h302v-127h-195v-108h195v-126h-195v-108h293q19 0 37 10.5t31.5 26t22 35t8.5 37.5v111q0 6 -4.5 14t-10.5 17t-12.5 17t-11.5 14l-2.5 2t-3.5 4
q4 4 11.5 13t15 19.5t13 20t5.5 15.5v112q0 18 -8.5 37t-22 34.5t-31.5 26t-37 10.5z" />
    <glyph glyph-name="FL00E0h" unicode="&#xe0;" horiz-adv-x="689" 
d="M392 286v4h27v-31zM304 505l-72 93h151l48 -93h-127zM52 111v57q0 18 8.5 37.5t22 35t31.5 26t37 10.5h226v-108h-128v-59h185v227h-369v108h467q19 0 37 -10.5t31.5 -26t22 -35t8.5 -37.5v-334h-480q-19 0 -37 10.5t-31.5 26t-22 35t-8.5 37.5zM398 601l-5 12h-192
l95 -122h4l31 -31h-281v-138h6l32 -32h45q-20 -5 -37.5 -18t-30.5 -30.5t-20.5 -36.5t-7.5 -37v-57q0 -29 18 -60.5t47 -48.5l14 -14q14 -15 32 -24t37 -9h493v346q0 23 -11.5 46.5t-29.5 41.5l-13 13q-16 24 -40 41t-52 17h-47l-60 116l-27 26v-1z" />
    <glyph glyph-name="FL00E1h" unicode="&#xe1;" horiz-adv-x="689" 
d="M392 286v4h27v-31zM250 505l48 93h151l-71 -93h-128zM52 111v57q0 18 8.5 37.5t22 35t31.5 26t37 10.5h226v-108h-128v-59h185v227h-369v108h467q19 0 37 -10.5t31.5 -26t22 -35t8.5 -37.5v-334h-480q-19 0 -37 10.5t-31.5 26t-22 35t-8.5 37.5zM290 613l-65 -122h9
l31 -31h-215v-138h6l32 -32h45q-20 -5 -37.5 -18t-30.5 -30.5t-20.5 -36.5t-7.5 -37v-57q0 -29 18 -60.5t47 -48.5l14 -14q14 -15 32 -24t37 -9h493v346q0 23 -11.5 46.5t-29.5 41.5l-13 13q-16 24 -40 41t-52 17h-111l87 114l-32 33l5 6h-191z" />
    <glyph glyph-name="FL00E2h" unicode="&#xe2;" horiz-adv-x="689" 
d="M392 286v4h27v-31zM368 502l8 -11h5l31 -31h-73zM385 505l-44 68l-44 -68h-151l66 93h258l65 -93h-150zM52 111v57q0 18 8.5 37.5t22 35t31.5 26t37 10.5h226v-108h-128v-59h185v227h-369v108h467q19 0 37 -10.5t31.5 -26t22 -35t8.5 -37.5v-334h-480q-19 0 -37 10.5
t-31.5 26t-22 35t-8.5 37.5zM37 168v-57q0 -29 18 -60.5t47 -48.5l14 -14q14 -15 32 -24t37 -9h493v346q0 23 -11.5 46.5t-29.5 41.5l-13 13q-14 21 -34.5 36.5t-44.5 20.5h49l-83 116l-24 24l-9 14h-274l-87 -122h10l31 -31h-108v-138h6l32 -32h45q-20 -5 -37.5 -18
t-30.5 -30.5t-20.5 -36.5t-7.5 -37z" />
    <glyph glyph-name="FL00E3h" unicode="&#xe3;" horiz-adv-x="689" 
d="M392 286v4h27v-31zM317 502l9 -11h4l31 -31h-73zM288 569l-42 -64h-141l66 93h175l46 -64l42 64h140l-66 -93h-174zM52 111v57q0 18 8.5 37.5t22 35t31.5 26t37 10.5h226v-108h-128v-59h185v227h-369v108h467q19 0 37 -10.5t31.5 -26t22 -35t8.5 -37.5v-334h-480
q-19 0 -37 10.5t-31.5 26t-22 35t-8.5 37.5zM37 168v-57q0 -29 18 -60.5t47 -48.5l14 -14q14 -15 32 -24t37 -9h493v346q0 23 -11.5 46.5t-29.5 41.5l-13 13q-14 21 -34.5 36.5t-44.5 20.5h5l83 115l-33 33l5 6h-180l-31 -48l-6 10l-25 24l-9 14h-191l-87 -122h10l31 -31
h-67v-138h6l32 -32h45q-20 -5 -37.5 -18t-30.5 -30.5t-20.5 -36.5t-7.5 -37z" />
    <glyph glyph-name="FL00E4h" unicode="&#xe4;" horiz-adv-x="689" 
d="M392 286v4h27v-31zM385 505v93h156v-93h-156zM141 505v93h156v-93h-156zM52 111v57q0 18 8.5 37.5t22 35t31.5 26t37 10.5h226v-108h-128v-59h185v227h-369v108h467q19 0 37 -10.5t31.5 -26t22 -35t8.5 -37.5v-334h-480q-19 0 -37 10.5t-31.5 26t-22 35t-8.5 37.5z
M37 168v-57q0 -29 18 -60.5t47 -48.5l14 -14q14 -15 32 -24t37 -9h493v346q0 23 -11.5 46.5t-29.5 41.5l-13 13q-14 21 -34.5 36.5t-44.5 20.5h43v116l-32 32v6h-186v-122h6l31 -31h-63v115l-32 32v6h-186v-122h6l30 -31h-112v-138h6l32 -32h45q-20 -5 -37.5 -18
t-30.5 -30.5t-20.5 -36.5t-7.5 -37z" />
    <glyph glyph-name="FL00E5h" unicode="&#xe5;" horiz-adv-x="689" 
d="M37 111v57q0 18 7.5 37t20.5 36.5t30.5 30.5t37.5 18h-45l-32 32h-6v138h235l-31 31h-6v122h187v-6l32 -32v-115h65q28 0 52 -17t40 -41l13 -13q18 -18 29.5 -41.5t11.5 -46.5v-346h-493q-19 0 -37 9t-32 24l-14 14q-29 17 -47 48.5t-18 60.5zM52 168v-57
q0 -18 8.5 -37.5t22 -35t31.5 -26t37 -10.5h480v334q0 18 -8.5 37.5t-22 35t-31.5 26t-37 10.5h-467v-108h369v-227h-185v59h128v108h-226q-19 0 -37 -10.5t-31.5 -26t-22 -35t-8.5 -37.5zM263 598v-93h157v93h-157zM369 538h-55v28h55v-28zM392 290v-4l27 -27v31h-27z" />
    <glyph glyph-name="FL00E6h" unicode="&#xe6;" horiz-adv-x="1072" 
d="M37 168q0 18 7.5 37t20.5 36.5t30.5 30.5t37.5 18h-45l-32 32h-6v137h865q28 0 52 -17t40 -41l13 -13q18 -17 29.5 -40.5t11.5 -46.5v-58q0 -18 -7.5 -37t-20 -35.5t-29.5 -29t-36 -16.5h48v-6l32 -32v-132h-862q-20 0 -38 9t-32 24l-14 14q-29 17 -47 48.5t-18 60.5v57z
M52 168v-57q0 -18 8.5 -37.5t22 -35t31.5 -26t37 -10.5h850v108h-369v227h184v-60h-127v-108h226q19 0 37 10.5t31.5 26t22 35t8.5 37.5v58q0 18 -8.5 37t-22 34.5t-31.5 26t-37 10.5h-850v-107h369v-227h-184v59h127v108h-226q-19 0 -37 -10.5t-31.5 -26t-22 -35
t-8.5 -37.5zM679 154v-29h31l-30 29h-1zM392 290v-4l27 -27v31h-27z" />
    <glyph glyph-name="FL00E7h" unicode="&#xe7;" horiz-adv-x="619" 
d="M608 290h-312v-165h280v-6l32 -32v-132h-148v-46q0 -20 -9 -41t-24 -38t-35 -28.5t-42 -11.5h-91l-32 32h-6v133h-36q-20 0 -37.5 9t-31.5 24l-14 14q-29 17 -47 48.5t-18 60.5v225q0 20 9.5 42t25 40t36 30t42.5 12h426v-6l32 -32v-132zM414 -56v58h147v108h-312v227
h312v108h-411q-19 0 -36.5 -10.5t-31 -26t-22 -35t-8.5 -37.5v-225q0 -18 8.5 -37.5t22 -35t31 -26t36.5 -10.5h151v-59h-65v-107h79q19 0 37 10t31.5 26t22 35t8.5 37z" />
    <glyph glyph-name="FL00E8h" unicode="&#xe8;" horiz-adv-x="689" 
d="M393 613l5 -12v1l27 -26l60 -116h47q28 0 52 -17t40 -41l13 -13q18 -18 29.5 -41.5t11.5 -46.5v-58q0 -18 -7.5 -37t-20 -35.5t-29.5 -29t-36 -16.5h48v-6l32 -32v-132h-480q-19 0 -37 9t-32 24l-14 14q-29 17 -47 48.5t-18 60.5v225q0 20 9.5 42t25 40t36 30t43.5 12
h180l-31 31h-4l-95 122h192zM631 278v58q0 18 -8.5 37.5t-22 35t-31.5 26t-37 10.5h-381q-19 0 -37 -10.5t-31.5 -26t-22 -35t-8.5 -37.5v-225q0 -18 8.5 -37.5t22 -35t31.5 -26t37 -10.5h467v108h-369v227h185v-60h-128v-108h226q19 0 37 10.5t31.5 26t22 35t8.5 37.5z
M304 505h127l-48 93h-151zM296 155v-30h31l-30 30h-1z" />
    <glyph glyph-name="FL00E9h" unicode="&#xe9;" horiz-adv-x="689" 
d="M225 491l65 122h191l-5 -6l32 -33l-87 -114h111q28 0 52 -17t40 -41l13 -13q18 -18 29.5 -41.5t11.5 -46.5v-58q0 -18 -7.5 -37t-20 -35.5t-29.5 -29t-36 -16.5h48v-6l32 -32v-132h-480q-19 0 -37 9t-32 24l-14 14q-29 17 -47 48.5t-18 60.5v225q0 20 9.5 42t25 40t36 30
t43.5 12h114l-31 31h-9zM631 278v58q0 18 -8.5 37.5t-22 35t-31.5 26t-37 10.5h-381q-19 0 -37 -10.5t-31.5 -26t-22 -35t-8.5 -37.5v-225q0 -18 8.5 -37.5t22 -35t31.5 -26t37 -10.5h467v108h-369v227h185v-60h-128v-108h226q19 0 37 10.5t31.5 26t22 35t8.5 37.5zM250 505
h128l71 93h-151zM296 155v-30h31l-30 30h-1z" />
    <glyph glyph-name="FL00EAh" unicode="&#xea;" horiz-adv-x="689" 
d="M116 -12l-14 14q-29 17 -47 48.5t-18 60.5v225q0 20 9.5 42t25 40t36 30t43.5 12h7l-31 31h-10l87 122h274l9 -14l24 -24l83 -116h-49q24 -5 44.5 -20.5t34.5 -36.5l13 -13q18 -18 29.5 -41.5t11.5 -46.5v-58q0 -18 -7.5 -37t-20 -35.5t-29.5 -29t-36 -16.5h48v-6l32 -32
v-132h-480q-19 0 -37 9t-32 24zM631 278v58q0 18 -8.5 37.5t-22 35t-31.5 26t-37 10.5h-381q-19 0 -37 -10.5t-31.5 -26t-22 -35t-8.5 -37.5v-225q0 -18 8.5 -37.5t22 -35t31.5 -26t37 -10.5h467v108h-369v227h185v-60h-128v-108h226q19 0 37 10.5t31.5 26t22 35t8.5 37.5z
M341 573l44 -68h150l-65 93h-258l-66 -93h151zM376 491l-8 11l-29 -42h73l-31 31h-5zM296 155v-30h31l-30 30h-1z" />
    <glyph glyph-name="FL00EBh" unicode="&#xeb;" horiz-adv-x="689" 
d="M116 -12l-14 14q-29 17 -47 48.5t-18 60.5v225q0 20 9.5 42t25 40t36 30t43.5 12h11l-30 31h-6v122h186v-6l32 -32v-115h63l-31 31h-6v122h186v-6l32 -32v-116h-43q24 -5 44.5 -20.5t34.5 -36.5l13 -13q18 -18 29.5 -41.5t11.5 -46.5v-58q0 -18 -7.5 -37t-20 -35.5
t-29.5 -29t-36 -16.5h48v-6l32 -32v-132h-480q-19 0 -37 9t-32 24zM631 278v58q0 18 -8.5 37.5t-22 35t-31.5 26t-37 10.5h-381q-19 0 -37 -10.5t-31.5 -26t-22 -35t-8.5 -37.5v-225q0 -18 8.5 -37.5t22 -35t31.5 -26t37 -10.5h467v108h-369v227h185v-60h-128v-108h226
q19 0 37 10.5t31.5 26t22 35t8.5 37.5zM141 598v-93h156v93h-156zM385 598v-93h156v93h-156zM296 155v-30h31l-30 30h-1z" />
    <glyph glyph-name="FL00ECh" unicode="&#xec;" horiz-adv-x="306" 
d="M122 505l-71 93h150l47 -93h-126zM52 2v442h196v-442h-196zM215 601l-4 12h-191l94 -122h4l32 -32h-113v-472h6l31 -32h221v466l-32 32v6h41l-62 117l-27 26v-1z" />
    <glyph glyph-name="FL00EDh" unicode="&#xed;" horiz-adv-x="306" 
d="M177 505h-127l47 93h150zM52 2v442h196v-442h-196zM89 613l-64 -122h9l32 -32h-29v-472h6l31 -32h221v466l-32 32v6h-45l89 115l-33 33l5 6h-190z" />
    <glyph glyph-name="FL00EEh" unicode="&#xee;" horiz-adv-x="307" 
d="M177 502l8 -11h5l32 -32h-74zM194 505l-44 68l-43 -68h-151l66 93h257l66 -93h-151zM52 2v442h197v-442h-197zM37 459v-472h6l32 -32h221v466l-32 32v6h139l-82 116l-24 24l-10 14h-273l-88 -122h10l32 -32h69z" />
    <glyph glyph-name="FL00EFh" unicode="&#xef;" horiz-adv-x="307" 
d="M194 485v93h156v-93h-156zM-50 485v93h157v-93h-157zM52 2v442h197v-442h-197zM37 439v-452h6l32 -32h221v466l-18 18h119v116l-32 32v6h-186v-122h6l12 -12h-44v96l-32 32v6h-186v-122h6l32 -32h64z" />
    <glyph glyph-name="FL00F0h" unicode="&#xf0;" 
d="M288 663h138v-6l32 -32v-32h191q28 0 52 -17t40 -41l13 -12q18 -18 29.5 -41.5t11.5 -46.5v-359q0 -20 -9 -41t-24.5 -39t-35.5 -29.5t-42 -11.5h-498q-20 0 -38 9t-32 24l-14 14q-29 17 -47 48.5t-18 60.5v124q0 20 9.5 42t25 40t36 30t43.5 12h171l-28 28h-6v37h-200
l-32 32h-6v137h238v70zM649 578h-238v70h-108v-70h-238v-107h238v-69h108v69h140v-361h-302v126h245v108h-343q-19 0 -37 -10.5t-31.5 -26t-22 -35t-8.5 -37.5v-124q0 -18 8.5 -37.5t22 -35t31.5 -26t37 -10.5h498q19 0 37 10.5t31.5 26t22 35t8.5 37.5v359q0 18 -8.5 37
t-22 35t-31.5 26t-37 10zM296 189v-64h240v64h-240zM509 359v-6l27 -27v98h-78v-65h51z" />
    <glyph glyph-name="FL00F1h" unicode="&#xf1;" horiz-adv-x="697" 
d="M75 -45l-32 32h-6v473h82l-31 31h-10l87 122h191l9 -14l25 -24l6 -10l31 48h180l-5 -6l33 -33l-83 -115q24 -4 45 -20t35 -37l13 -13q18 -18 29.5 -41.5t11.5 -46.5v-346h-221l-32 32h-6v303h-131v-335h-221zM442 337v-335h197v334q0 18 -8.5 37.5t-22 35t-31.5 26
t-37 10.5h-488v-443h197v335h193zM248 505l42 64l46 -64h174l66 93h-140l-42 -64l-46 64h-175l-66 -93h141zM328 491l-9 11l-29 -42h73l-31 31h-4z" />
    <glyph glyph-name="FL00F2h" unicode="&#xf2;" horiz-adv-x="689" 
d="M431 505h-127l-72 93h151zM296 125v165h123v-165h-123zM249 110h185v227h-185v-227zM631 336v-225q0 -18 -8.5 -37.5t-22 -35t-31.5 -26t-37 -10.5h-381q-19 0 -37 10.5t-31.5 26t-22 35t-8.5 37.5v225q0 18 8.5 37.5t22 35t31.5 26t37 10.5h381q19 0 37 -10.5t31.5 -26
t22 -35t8.5 -37.5zM398 601l-5 12h-192l95 -122h4l31 -31h-180q-23 0 -43.5 -12t-36 -30t-25 -40t-9.5 -42v-225q0 -29 18 -60.5t47 -48.5l14 -14q14 -15 32 -24t37 -9h382q22 0 42 11.5t35.5 29.5t24.5 39t9 41v225q0 23 -11.5 46.5t-29.5 41.5l-13 13q-16 24 -40 41
t-52 17h-47l-60 116l-27 26v-1z" />
    <glyph glyph-name="FL00F3h" unicode="&#xf3;" horiz-adv-x="689" 
d="M250 505l48 93h151l-71 -93h-128zM295 125v165h123v-165h-123zM248 110h185v227h-185v-227zM51 111v225q0 18 8.5 37.5t22 35t31.5 26t37 10.5h381q19 0 37 -10.5t31.5 -26t22 -35t8.5 -37.5v-225q0 -18 -8.5 -37.5t-22 -35t-31.5 -26t-37 -10.5h-381q-19 0 -37 10.5
t-31.5 26t-22 35t-8.5 37.5zM290 613l-65 -122h9l31 -31h-115q-23 0 -43.5 -12t-36 -30t-25 -40t-9.5 -42v-225q0 -29 18 -60.5t47 -48.5l14 -14q14 -15 32 -24t37 -9h382q22 0 42 11.5t35.5 29.5t24.5 39t9 41v225q0 23 -11.5 46.5t-29.5 41.5l-13 13q-16 24 -40 41t-52 17
h-110l87 114l-32 33l5 6h-191z" />
    <glyph glyph-name="FL00F4h" unicode="&#xf4;" horiz-adv-x="689" 
d="M368 502l8 -11h5l31 -31h-73zM296 125v165h123v-165h-123zM385 505l-44 68l-44 -68h-151l66 93h258l65 -93h-150zM249 110h185v227h-185v-227zM631 336v-225q0 -18 -8.5 -37.5t-22 -35t-31.5 -26t-37 -10.5h-381q-19 0 -37 10.5t-31.5 26t-22 35t-8.5 37.5v225
q0 18 8.5 37.5t22 35t31.5 26t37 10.5h381q19 0 37 -10.5t31.5 -26t22 -35t8.5 -37.5zM102 2l14 -14q14 -15 32 -24t37 -9h382q22 0 42 11.5t35.5 29.5t24.5 39t9 41v225q0 23 -11.5 46.5t-29.5 41.5l-13 13q-14 21 -34.5 36.5t-44.5 20.5h49l-83 116l-24 24l-9 14h-274
l-87 -122h10l31 -31h-7q-23 0 -43.5 -12t-36 -30t-25 -40t-9.5 -42v-225q0 -29 18 -60.5t47 -48.5z" />
    <glyph glyph-name="FL00F5h" unicode="&#xf5;" horiz-adv-x="689" 
d="M116 -12l-14 14q-29 17 -47 48.5t-18 60.5v225q0 19 8 39t21.5 37t32 30t38.5 17h-19l-32 32h-10l87 122h191l9 -14l25 -24l6 -10l31 48h180l-5 -6l33 -33l-83 -115h-5q24 -5 44.5 -20.5t34.5 -36.5l13 -13q18 -18 29.5 -41.5t11.5 -46.5v-225q0 -20 -9 -41t-24.5 -39
t-35.5 -29.5t-42 -11.5h-382q-19 0 -37 9t-32 24zM631 111v225q0 18 -8.5 37.5t-22 35t-31.5 26t-37 10.5h-381q-19 0 -37 -10.5t-31.5 -26t-22 -35t-8.5 -37.5v-225q0 -18 8.5 -37.5t22 -35t31.5 -26t37 -10.5h381q19 0 37 10.5t31.5 26t22 35t8.5 37.5zM434 337v-227h-185
v227h185zM246 505l42 64l46 -64h174l66 93h-140l-42 -64l-46 64h-175l-66 -93h141zM296 290v-165h123v165h-123zM326 491l-9 11l-29 -42h73l-31 31h-4z" />
    <glyph glyph-name="FL00F6h" unicode="&#xf6;" horiz-adv-x="689" 
d="M385 505v93h156v-93h-156zM141 505v93h156v-93h-156zM296 125v165h123v-165h-123zM249 337v-227h185v227h-185zM631 336v-225q0 -18 -8.5 -37.5t-22 -35t-31.5 -26t-37 -10.5h-381q-19 0 -37 10.5t-31.5 26t-22 35t-8.5 37.5v225q0 18 8.5 37.5t22 35t31.5 26t37 10.5
h381q19 0 37 -10.5t31.5 -26t22 -35t8.5 -37.5zM102 2l14 -14q14 -15 32 -24t37 -9h382q22 0 42 11.5t35.5 29.5t24.5 39t9 41v225q0 23 -11.5 46.5t-29.5 41.5l-13 13q-14 21 -34.5 36.5t-44.5 20.5h43v116l-32 32v6h-186v-122h6l31 -31h-63v115l-32 32v6h-186v-122h6
l30 -31h-11q-23 0 -43.5 -12t-36 -30t-25 -40t-9.5 -42v-225q0 -29 18 -60.5t47 -48.5z" />
    <glyph glyph-name="FL00F7h" unicode="&#xf7;" horiz-adv-x="541" 
d="M201 380v108h132v-108h-132zM201 92v107h132v-107h-132zM52 236v107h431v-107h-431zM199 358h-162v-137h6l32 -32h111v-112h6l32 -32h155v131l-12 13h163v132l-32 31v6h-119v107l-31 32v6h-162v-138h6z" />
    <glyph glyph-name="FL00F8h" unicode="&#xf8;" horiz-adv-x="689" 
d="M116 -12l-14 14q-29 17 -47 48.5t-18 60.5v225q0 19 9.5 41t25 40t36 30t43.5 12h381q28 0 52 -17t40 -41l13 -13q18 -17 29.5 -40.5t11.5 -46.5v-225q0 -20 -9 -41t-24.5 -39t-35.5 -29.5t-42 -11.5h-382q-19 0 -37 9t-32 24zM631 111v225q0 18 -8.5 37t-22 34.5
t-31.5 26t-37 10.5h-381q-19 0 -37 -10.5t-31.5 -26t-22 -34.5t-8.5 -37v-225q0 -18 8.5 -37.5t22 -35t31.5 -26t37 -10.5h381q19 0 37 10.5t31.5 26t22 35t8.5 37.5zM434 110h-121l121 173v-173zM248 337h121l-121 -174v174zM316 290h-21v-32zM397 125h22v29z" />
    <glyph glyph-name="FL00F9h" unicode="&#xf9;" horiz-adv-x="689" 
d="M304 505l-72 93h151l48 -93h-127zM532 2h-381q-19 0 -37 10.5t-31.5 26t-22 35t-8.5 37.5v334h197v-335h185v335h197v-334q0 -18 -8.5 -37.5t-22 -35t-31.5 -26t-37 -10.5zM398 601l-5 12h-192l95 -122h4l32 -32h87v-334h-123v297l-32 32v6h-227v-349q0 -29 18 -60.5
t47 -48.5l14 -14q14 -15 32 -24t37 -9h382q22 0 42 11.5t35.5 29.5t24.5 39t9 41v346l-32 32v6h-161l-60 116l-27 26v-1z" />
    <glyph glyph-name="FL00FAh" unicode="&#xfa;" horiz-adv-x="689" 
d="M250 505l48 93h151l-71 -93h-128zM532 2h-381q-19 0 -37 10.5t-31.5 26t-22 35t-8.5 37.5v334h197v-335h185v335h197v-334q0 -18 -8.5 -37.5t-22 -35t-31.5 -26t-37 -10.5zM290 613l-65 -122h9l32 -32h153v-334h-123v297l-32 32v6h-227v-349q0 -29 18 -60.5t47 -48.5
l14 -14q14 -15 32 -24t37 -9h382q22 0 42 11.5t35.5 29.5t24.5 39t9 41v346l-32 32v6h-225l87 114l-32 33l5 6h-191z" />
    <glyph glyph-name="FL00FBh" unicode="&#xfb;" horiz-adv-x="689" 
d="M385 505l-44 68l-44 -68h-151l66 93h258l65 -93h-150zM368 502l8 -11h5l32 -32h6v-334h-123v297l-32 32v5h75zM532 2h-381q-19 0 -37 10.5t-31.5 26t-22 35t-8.5 37.5v334h197v-335h185v335h197v-334q0 -18 -8.5 -37.5t-22 -35t-31.5 -26t-37 -10.5zM37 460v-349
q0 -29 18 -60.5t47 -48.5l14 -14q14 -15 32 -24t37 -9h382q22 0 42 11.5t35.5 29.5t24.5 39t9 41v346l-32 32v6h-53l-82 115l-24 24l-9 14h-274l-87 -122h10l31 -31h-121z" />
    <glyph glyph-name="FL00FCh" unicode="&#xfc;" horiz-adv-x="689" 
d="M385 505v93h156v-93h-156zM141 505v93h156v-93h-156zM532 2h-381q-19 0 -37 10.5t-31.5 26t-22 35t-8.5 37.5v334h197v-335h185v335h197v-334q0 -18 -8.5 -37.5t-22 -35t-31.5 -26t-37 -10.5zM376 491l32 -32h11v-334h-123v297l-32 32v5h80v116l-32 32v6h-186v-122h6
l30 -31h-125v-349q0 -29 18 -60.5t47 -48.5l14 -14q14 -15 32 -24t37 -9h382q22 0 42 11.5t35.5 29.5t24.5 39t9 41v346l-32 32v6h-58v115l-32 32v6h-186v-122h6z" />
    <glyph glyph-name="FL00FDh" unicode="&#xfd;" horiz-adv-x="689" 
d="M250 506l48 93h151l-71 -93h-128zM631 445v-492q0 -18 -8.5 -37.5t-22 -35t-31.5 -26t-37 -10.5h-401v108h303v50h-283q-19 0 -37 10.5t-31.5 26t-22 35t-8.5 37.5v334h197v-335h185v335h197zM290 613l-65 -122h9l32 -32h153v-334h-123v297l-32 32v6h-227v-349
q0 -29 18 -60.5t47 -48.5l14 -14q10 -11 27 -21h-27v-138h6l32 -32h413q22 0 42 11.5t35.5 29.5t24.5 39t9 41v504l-32 32v6h-225l87 115l-32 33l5 5h-191z" />
    <glyph glyph-name="FL00FEh" unicode="&#xfe;" horiz-adv-x="689" 
d="M296 556v-96h236q28 0 52 -17t40 -41l13 -13q18 -18 29.5 -41.5t11.5 -46.5v-225q0 -20 -9 -41t-24.5 -39t-35.5 -29.5t-42 -11.5h-238l-32 32h-1v-169h-221l-32 32h-6v743h227v-6zM631 111v225q0 18 -8.5 37.5t-22 35t-31.5 26t-37 10.5h-283v134h-197v-714h197v472h185
v-227h-128v-108h226q19 0 37 10.5t31.5 26t22 35t8.5 37.5zM296 290v-165h123v165h-123z" />
    <glyph glyph-name="FL00FFh" unicode="&#xff;" horiz-adv-x="689" 
d="M385 506v93h156v-93h-156zM141 506v93h156v-93h-156zM631 445v-492q0 -18 -8.5 -37.5t-22 -35t-31.5 -26t-37 -10.5h-401v108h303v50h-283q-19 0 -37 10.5t-31.5 26t-22 35t-8.5 37.5v334h197v-335h185v335h197zM376 491l32 -32h11v-334h-123v297l-32 32v5h80v117l-32 32
v5h-186v-122h6l30 -31h-125v-349q0 -29 18 -60.5t47 -48.5l14 -14q10 -11 27 -21h-27v-138h6l32 -32h413q22 0 42 11.5t35.5 29.5t24.5 39t9 41v504l-32 32v6h-58v116l-32 32v5h-186v-122h6z" />
    <glyph glyph-name="FL0152h" unicode="&#x152;" horiz-adv-x="1274" 
d="M1222 189h-389v-64h398v-6l32 -32v-132h-1077q-20 0 -38 9t-32 24l-14 14q-29 17 -47 48.5t-18 60.5v359q0 19 9.5 41t25 40t36 30t43.5 12h1080v-6l32 -32v-131h-430v-65h357v-6l32 -32v-132zM151 2h1065v108h-430v126h389v108h-389v127h430v107h-1065q-19 0 -37 -10.5
t-31.5 -26t-22 -34.5t-8.5 -37v-359q0 -18 8.5 -37.5t22 -35t31.5 -26t37 -10.5zM588 471v-361h-338v361h338zM297 424v-299h276v299h-276z" />
    <glyph glyph-name="FL0153h" unicode="&#x153;" horiz-adv-x="1104" 
d="M116 -12l-14 14q-29 17 -47 48.5t-18 60.5v225q0 19 9.5 41t25 40t36 30t43.5 12h796q28 0 52 -17t40 -41l13 -13q18 -17 29.5 -40.5t11.5 -46.5v-58q0 -18 -7.5 -37t-20 -35.5t-29.5 -29t-36 -16.5h48v-6l32 -32v-132h-894q-20 0 -38 9t-32 24zM1046 278v58
q0 18 -8.5 37t-22 34.5t-31.5 26t-37 10.5h-796q-19 0 -37 -10.5t-31.5 -26t-22 -34.5t-8.5 -37v-225q0 -18 8.5 -37.5t22 -35t31.5 -26t37 -10.5h882v108h-369v227h184v-60h-127v-108h226q19 0 37 10.5t31.5 26t22 35t8.5 37.5zM466 337v-227h-216v227h216zM296 290v-165
h155v165h-155zM711 154v-29h31l-30 29h-1z" />
    <glyph glyph-name="FL0160h" unicode="&#x160;" 
d="M358 732l44 -68l44 68h150l-65 -93h-258l-67 93h152zM551 236h-400q-19 0 -37 10.5t-31.5 26t-22 35t-8.5 37.5v125q0 18 8.5 37.5t22 35t31.5 26t37 10.5h597v-108h-499v-127h400q19 0 37 -10.5t31.5 -26t22 -35t8.5 -37.5v-124q0 -18 -8.5 -37.5t-22 -35t-31.5 -26
t-37 -10.5h-597v108h499v126zM376 733l-9 14h-189l87 -123h4l31 -30h-149q-23 0 -43.5 -12t-36 -30t-25 -40t-9.5 -42v-125q0 -29 18 -60.5t47 -48.5l14 -14q30 -32 70 -32h350v-65h-499v-138h6l32 -32h609q22 0 42 11.5t35.5 29.5t24.5 39t9 41v124q0 23 -11.5 46.5
t-29.5 41.5l-13 13q-16 24 -40 41t-52 17h-353v65h499v132l-32 32v6h-191l83 114l-33 33l5 6h-190l-31 -49l-6 11z" />
    <glyph glyph-name="FL0161h" unicode="&#x161;" horiz-adv-x="689" 
d="M298 598l44 -68l44 68h150l-65 -93h-258l-66 93h151zM631 168v-57q0 -18 -8.5 -37.5t-22 -35t-31.5 -26t-37 -10.5h-480v108h382v59h-283q-19 0 -37 10.5t-31.5 26t-22 35t-8.5 37.5v58q0 18 8.5 37.5t22 35t31.5 26t37 10.5h480v-108h-382v-60h283q19 0 37 -10.5
t31.5 -26t22 -35t8.5 -37.5zM316 599l-9 14h-189l87 -122h4l31 -31h-89q-23 0 -43.5 -12t-36 -30t-25 -40t-9.5 -42v-58q0 -29 18 -60.5t47 -48.5l14 -13q22 -25 50 -31h-129v-138h6l32 -32h492q22 0 42 11.5t35.5 29.5t24.5 39t9 41v58q0 23 -11.5 46t-29.5 41l-13 13
q-14 20 -33 35.5t-42 20.5h129v132l-32 32v6h-134l83 114l-33 33l5 6h-190l-31 -49l-6 11z" />
    <glyph glyph-name="FL0178h" unicode="&#x178;" horiz-adv-x="896" 
d="M521 593l-32 31h-6v123h187v-6l31 -32v-115h192l-6 -6l33 -33l-325 -325v-275h-222l-32 32h-6v269l-338 338h278l-31 30h-6v123h187v-6l32 -32v-116h-171l199 -192l205 192h-169zM350 263v-261h198v269l308 308h-158l-213 -199l-207 199h-244zM253 732v-93h157v93h-157z
M498 732v-93h157v93h-157z" />
    <glyph glyph-name="FL017Dh" unicode="&#x17d;" 
d="M352 732l44 -68l44 68h150l-65 -93h-258l-67 93h152zM52 110l381 361h-381v108h636v-118l-371 -351h381v-108h-646v108zM370 733l-9 14h-189l87 -123h4l31 -30h-257v-138h6l32 -32h285l-323 -307v-130h6l32 -32h670v132l-32 32v6h-290l312 295v136l-32 32v6h-137l83 114
l-33 33l5 6h-190l-31 -49l-6 11z" />
    <glyph glyph-name="FL017Eh" unicode="&#x17e;" horiz-adv-x="635" 
d="M270 598l44 -68l44 68h150l-66 -93h-257l-66 93h151zM52 110l273 227h-273v108h525v-108l-279 -227h279v-108h-525v108zM288 599l-9 14h-189l87 -122h4l31 -31h-175v-138h6l32 -32h168l-206 -172v-131h6l32 -32h549v132l-32 32v6h-179l211 170v127l-32 32v6h-108l83 114
l-33 33l5 6h-190l-31 -49l-6 11z" />
    <glyph glyph-name="FL0192h" unicode="&#x192;" horiz-adv-x="619" 
d="M37 -81v417q0 19 9.5 41t25 40t36 30t42.5 12h426v-6l32 -31v-132h-312v-57h239v-6l32 -32v-131h-271v-177h-221l-32 32h-6zM52 336v-402h197v177h271v107h-271v119h312v107h-411q-19 0 -36.5 -10t-31 -26t-22 -35t-8.5 -37z" />
    <glyph glyph-name="FL02C6h" unicode="&#x2c6;" horiz-adv-x="462" 
d="M272 574l-44 68l-44 -68h-151l67 92h256l66 -92h-150zM255 572l8 -12h5l32 -32h181l-83 116l-24 23l-10 14h-272l-88 -121h10l32 -32h180z" />
    <glyph glyph-name="FL02DCh" unicode="&#x2dc;" horiz-adv-x="542" 
d="M254 559l-9 12l-29 -44h-170l-32 32h-10l88 121h190l9 -14l25 -23l6 -10l31 47h180l-5 -6l33 -32l-83 -115h-188l-32 32h-4zM174 574l42 63l46 -63h174l66 91h-140l-42 -63l-46 63h-174l-67 -91h141z" />
    <glyph glyph-name="FL2013h" unicode="&#x2013;" horiz-adv-x="446" 
d="M37 219v137h366v-6l32 -32v-130h-360l-32 31h-6zM52 341v-107h336v107h-336z" />
    <glyph glyph-name="FL2014h" unicode="&#x2014;" horiz-adv-x="541" 
d="M37 356h461v-6l32 -32v-130h-455l-32 31h-6v137zM52 341v-107h431v107h-431z" />
    <glyph glyph-name="FL2018h" unicode="&#x2018;" horiz-adv-x="241" 
d="M120 575h62v-181h-132v109q0 27 17.5 49.5t52.5 22.5zM197 590h-77q-21 0 -37 -7.5t-26.5 -20t-15.5 -28t-5 -31.5v-124h6l31 -32h156v205l-32 32v6z" />
    <glyph glyph-name="FL2019h" unicode="&#x2019;" horiz-adv-x="241" 
d="M114 394h-63v181h132v-109q0 -27 -17.5 -49.5t-51.5 -22.5zM43 379l31 -32h74q21 0 36 7.5t25.5 19.5t15.5 27t5 30v121l-32 32v6h-161v-211h6z" />
    <glyph glyph-name="FL201Ah" unicode="&#x201a;" horiz-adv-x="240" 
d="M113 -69h-62v178h131v-106q0 -27 -17.5 -49.5t-51.5 -22.5zM43 -84l31 -32h73q21 0 36 7.5t25.5 19.5t15.5 27t5 30v118l-32 32v6h-160v-208h6z" />
    <glyph glyph-name="FL201Ch" unicode="&#x201c;" horiz-adv-x="428" 
d="M307 575h63v-181h-132v109q0 27 17.5 49.5t51.5 22.5zM121 575h63v-181h-132v109q0 27 17.5 49.5t51.5 22.5zM385 590h-78q-29 0 -48 -14.5t-28 -34.5v11l-32 32v6h-78q-21 0 -37 -7.5t-26.5 -20t-15.5 -28t-5 -31.5v-124h6l32 -32h156v30l30 -30h156v205l-32 32v6z" />
    <glyph glyph-name="FL201Dh" unicode="&#x201d;" horiz-adv-x="428" 
d="M114 394h-62v181h132v-109q0 -27 -17.5 -49.5t-52.5 -22.5zM300 394h-62v181h132v-109q0 -27 -17.5 -49.5t-52.5 -22.5zM43 379l32 -32h74q27 0 46 12.5t28 32.5v-13h6l32 -32h74q21 0 36 7.5t25.5 19.5t15.5 27t5 30v121l-32 32v6h-162v-30l-24 24v6h-162v-211h6z" />
    <glyph glyph-name="FL201Eh" unicode="&#x201e;" horiz-adv-x="426" 
d="M113 -69h-61v178h131v-106q0 -27 -17.5 -49.5t-52.5 -22.5zM298 -69h-61v178h131v-106q0 -27 -17.5 -49.5t-52.5 -22.5zM43 -84l32 -32h73q27 0 46 13.5t28 33.5v-15h6l32 -32h73q21 0 36 7.5t25.5 19.5t15.5 27t5 30v118l-32 32v6h-161v-30l-24 24v6h-161v-208h6z" />
    <glyph glyph-name="FL2020h" unicode="&#x2020;" horiz-adv-x="535" 
d="M150 -13v317h-75l-32 32h-6v138h113v119h227v-6l32 -32v-81h83v-6l32 -32v-132h-115v-349h-221l-32 32h-6zM165 351v-349h198v349h114v108h-114v119h-198v-119h-113v-108h113z" />
    <glyph glyph-name="FL2021h" unicode="&#x2021;" horiz-adv-x="535" 
d="M150 -13v88h-75l-32 32h-6v137h113v60h-75l-32 32h-6v138h113v119h227v-6l32 -32v-81h83v-6l32 -32v-132h-115v-60h83v-6l32 -32v-131h-115v-120h-221l-32 32h-6zM165 122v-120h198v120h114v107h-114v122h114v108h-114v119h-198v-119h-113v-108h113v-122h-113v-107h113z
" />
    <glyph glyph-name="FL2022h" unicode="&#x2022;" horiz-adv-x="689" 
d="M116 54l-14 14q-29 17 -47 48t-18 60v225q0 20 9.5 42t25 40t36 30t43.5 12h381q28 0 52 -17t40 -41l13 -13q18 -18 29.5 -41.5t11.5 -45.5v-226q0 -19 -9 -40t-24.5 -39t-35.5 -29.5t-42 -11.5h-382q-19 0 -37 9t-32 24zM631 176v225q0 18 -8.5 37.5t-22 35t-31.5 26
t-37 10.5h-381q-19 0 -37 -10.5t-31.5 -26t-22 -35t-8.5 -37.5v-225q0 -18 8.5 -37t22 -35t31.5 -26t37 -10h381q19 0 37 10t31.5 26t22 35t8.5 37z" />
    <glyph glyph-name="FL2026h" unicode="&#x2026;" horiz-adv-x="658" 
d="M468 2v107h132v-107h-132zM260 2v107h132v-107h-132zM52 2v107h131v-107h-131zM459 -13l32 -31h156v130l-32 32v6h-161v-137h5zM251 -13l32 -31h156v130l-32 32v6h-162v-137h6zM43 -13l32 -31h155v130l-32 32v6h-161v-137h6z" />
    <glyph glyph-name="FL2030h" unicode="&#x2030;" horiz-adv-x="1417" 
d="M446 489v-160l213 264h199l-5 -6l33 -33l-204 -250h248q17 0 32 -11t23 -27v1l14 -15q6 20 23 36t38 16h250q17 0 32 -11t23 -27v1l19 -19q10 -10 16 -22.5t6 -25.5v-179q0 -11 -5 -22.5t-13 -21t-19.5 -16t-23.5 -6.5h-250q-21 0 -39 18l-20 20h1q-9 4 -15 10
q-7 -17 -22 -32.5t-35 -15.5h-250q-21 0 -39 18l-20 20h1q-18 9 -29.5 27.5t-11.5 35.5v163l-214 -264h-189l-32 32h-11l207 257h-241q-21 0 -39 18l-20 20h1q-18 9 -29.5 27.5t-11.5 35.5v179q0 11 5 23t14 22.5t20.5 17t24.5 6.5h249q17 0 32 -11t23 -27v1l19 -19
q10 -10 16 -22.5t6 -25.5zM1359 56v179q0 18 -14.5 36t-34.5 18h-250q-20 0 -34 -18t-14 -36v-179q0 -18 14 -36t34 -18h250q20 0 34.5 18t14.5 36zM979 56v179q0 18 -14.5 36t-34.5 18h-250q-20 0 -34.5 -18t-14.5 -36v-179q0 -18 14.5 -36t34.5 -18h250q20 0 34.5 18
t14.5 36zM399 345v179q0 18 -14.5 36t-34.5 18h-249q-20 0 -34.5 -18t-14.5 -36v-179q0 -18 14.5 -36t34.5 -18h249q20 0 34.5 18t14.5 36zM667 578l-465 -576h158l465 576h-158zM169 367v136h114v-136h-114zM1128 78v136h114v-136h-114zM748 78v136h114v-136h-114zM795 167
v-74h52v74h-52zM1175 167v-74h52v74h-52zM216 457v-75h52v75h-52z" />
    <glyph glyph-name="FL2039h" unicode="&#x2039;" horiz-adv-x="200" 
d="M143 334l-67 -44l67 -44v-151l-92 66v257l92 66v-150zM50 143l24 -24l116 -82v181l-32 32v5l-13 8l45 29v180l-32 32v10l-121 -88v-273z" />
    <glyph glyph-name="FL203Ah" unicode="&#x203a;" horiz-adv-x="200" 
d="M36 65v190l46 31l-9 6l-24 23l-13 10v189l121 -88v-4l32 -32v-271l-115 -82l-33 33zM50 334l67 -44l-67 -44v-151l92 66v257l-92 66v-150z" />
    <glyph glyph-name="FL20ACh" unicode="&#x20ac;" horiz-adv-x="866" 
d="M37 437h138v33q0 19 9 41t25 40t36 30t43 12h535v-6l32 -32v-131h-214l25 -25v-132h-24l24 -24v-118h157v-6l32 -32v-132h-532q-20 0 -38 9t-32 24l-14 14q-28 17 -46 48.5t-18 60.5v1h-100l-32 32h-6v137h24l-18 18h-6v138zM190 422h-138v-108h138v-48h-138v-107h138
v-48q0 -18 8 -37.5t21.5 -35t31 -26t37.5 -10.5h520v108h-421v49h232v107h-232v48h232v108h-232v49h421v107h-520q-20 0 -37.5 -10.5t-31 -26t-21.5 -34.5t-8 -37v-48z" />
    <glyph glyph-name="FL2122h" unicode="&#x2122;" horiz-adv-x="338" 
d="M77 478v71h-3l-31 32h-6v47h127v-4h1h1v4q11 0 28.5 -12t25.5 -26l5 -6q11 26 22.5 35t28.5 9h19v-6l32 -31v-145h-35l-14 13q-3 -10 -5.5 -11.5t-13.5 -1.5q-9 0 -13 3l-18 18v-21h-34l-32 32h-6v71h-1v-103h-40l-32 32h-6zM171 609v-116h11v78l5 9l30 -80q2 -5 3.5 -6
t3.5 -1q5 0 6 1t3 6l30 82l6 -11v-78h11v120h-4q-12 0 -21.5 -9t-18.5 -35q-3 -14 -5 -22.5t-6 -19.5h-2v2q-2 8 -5 19t-8 25l-1 7q-5 11 -14 21t-14 12q0 -2 -6 -2q-2 0 -4 -2zM92 595v-102h16v102h41v18h-97v-18h40z" />
    <glyph glyph-name="FLE003h" horiz-adv-x="940" 
d="M690 0v336h-143v-336h-154v336h-143v-336h-200v446h352q6 0 16 -5.5t20.5 -13t19 -14.5t12.5 -11q4 4 12.5 11t19 14.5t20.5 13t16 5.5h252q19 0 37.5 -10.5t32 -26.5t22 -35.5t8.5 -37.5v-336h-200z" />
    </font>
</defs>
</svg>
