<?xml version="1.0" standalone="no"?>
<!DOCTYPE svg PUBLIC "-//W3C//DTD SVG 1.1//EN" "http://www.w3.org/Graphics/SVG/1.1/DTD/svg11.dtd" >
<svg xmlns="http://www.w3.org/2000/svg" xmlns:xlink="http://www.w3.org/1999/xlink" version="1.1">
<metadata>
Created by FontForge 20170731 at Sun Aug 16 12:55:59 2015
 By Aleksey,,,
2015 Iconian Fonts - www.iconian.com
</metadata>
<defs>
<font id="GrandNationalLaser" horiz-adv-x="683" >
  <font-face 
    font-family="Grand National Laser"
    font-weight="400"
    font-stretch="normal"
    units-per-em="1000"
    panose-1="0 0 0 0 0 0 0 0 0 0"
    ascent="800"
    descent="-200"
    x-height="430"
    cap-height="580"
    bbox="-52 -166 1361 734"
    underline-thickness="50"
    underline-position="-175"
    unicode-range="U+0020-2122"
  />
<missing-glyph horiz-adv-x="500" 
 />
    <glyph glyph-name=".notdef" horiz-adv-x="500" 
 />
    <glyph glyph-name=".null" horiz-adv-x="0" 
 />
    <glyph glyph-name="nonmarkingreturn" horiz-adv-x="500" 
 />
    <glyph glyph-name="space" unicode=" " horiz-adv-x="366" 
 />
    <glyph glyph-name="space" unicode="&#xa0;" horiz-adv-x="366" 
 />
    <glyph glyph-name="FL0021h" unicode="!" horiz-adv-x="294" 
d="M244 164h-194v266h194v-266zM244 114v-114h-194v114h194zM50 470v110h194v-110h-194z" />
    <glyph glyph-name="FL0022h" unicode="&#x22;" horiz-adv-x="422" 
d="M237 470v110h135v-110h-135zM50 470v110h135v-110h-135zM114 395h-64v35h125q-8 -15 -23.5 -25t-37.5 -10zM301 395h-64v35h125q-8 -15 -23.5 -25t-37.5 -10z" />
    <glyph glyph-name="FL0023h" unicode="#" horiz-adv-x="850" 
d="M487 0v118h-125v-118h-200v118h-112v110h112v124h-112v78h750v-78h-113v-124h113v-110h-113v-118h-200zM362 580v-110h-200v110h200zM687 580v-110h-200v110h200zM362 352v-124h125v124h-125z" />
    <glyph glyph-name="FL0024h" unicode="$" horiz-adv-x="800" 
d="M150 235q-20 0 -38 10.5t-31.5 26.5t-22 35.5t-8.5 37.5v85h200v-85h103v85h93v-85h204q19 0 37.5 -10.5t32 -26.5t22 -35.5t8.5 -37.5v-125q0 -18 -8.5 -37.5t-22 -35.5t-32 -26.5t-37.5 -10.5h-204v-108h-93v108h-303v110h303v125h-203zM50 470q0 18 8.5 37.5t22 35.5
t31.5 26.5t38 10.5h203v105h93v-105h304v-110h-700zM550 235h-104v-125h104v125z" />
    <glyph glyph-name="FL0026h" unicode="%" horiz-adv-x="1030" 
d="M980 235v-180q0 -9 -4 -18.5t-11 -18t-16 -13.5t-19 -5h-250q-10 0 -19 5t-16 13.5t-11 18t-4 18.5v180q0 9 4 18.5t11 18t16 13.5t19 5h250q10 0 19 -5t16 -13.5t11 -18t4 -18.5zM361 0h-162l346 430h162zM169 368h112v62h119v-85q0 -9 -4 -18.5t-11 -18t-16 -13.5
t-19 -5h-250q-10 0 -19 5t-16 13.5t-11 18t-4 18.5v85h119v-62zM400 525v-55h-119v33h-112v-33h-119v55q0 9 4 18.5t11 18t16 13.5t19 5h250q10 0 19 -5t16 -13.5t11 -18t4 -18.5zM828 580l-89 -110h-162l89 110h162zM749 213v-135h112v135h-112z" />
    <glyph glyph-name="FL002Ah" unicode="&#x26;" horiz-adv-x="838" 
d="M250 110h274v125h-219v110h483v-110h-65v-235h-573q-20 0 -38 10.5t-31.5 26.5t-22 35.5t-8.5 37.5v112q0 7 5.5 16.5t13 19.5t14.5 18.5t11 13.5q-4 4 -11 12.5t-14.5 19t-13 20.5t-5.5 16v72h200v-320zM587 580q19 0 37.5 -10.5t32 -26.5t22 -35.5t8.5 -37.5h-637
q0 18 8.5 37.5t22 35.5t31.5 26.5t38 10.5h437zM687 415h-200v15h200v-15z" />
    <glyph glyph-name="FL0027h" unicode="'" horiz-adv-x="235" 
d="M50 470v110h135v-110h-135zM114 395h-64v35h125q-8 -15 -23.5 -25t-37.5 -10z" />
    <glyph glyph-name="FL0028h" unicode="(" horiz-adv-x="459" 
d="M409 -110h-259q-20 0 -38 10.5t-31.5 26.5t-22 35.5t-8.5 37.5v430h200v-430h159v-110zM250 579v-109h-200v109q0 18 8.5 37.5t22 35.5t31.5 26.5t38 10.5h259v-110h-159z" />
    <glyph glyph-name="FL0029h" unicode=")" horiz-adv-x="459" 
d="M49 -110v110h159v430h200v-430q0 -18 -8.5 -37.5t-22 -35.5t-32 -26.5t-37.5 -10.5h-259zM208 470v109h-159v110h259q19 0 37.5 -10.5t32 -26.5t22 -35.5t8.5 -37.5v-109h-200z" />
    <glyph glyph-name="FL0F98h" unicode="*" horiz-adv-x="274" 
d="M133 505l-24 -35h-2l-52 38l33 33l-38 8l19 58l35 -16l-4 37h63l-2 -37l37 16l26 -58l-43 -9l26 -31l-50 -39h-2z" />
    <glyph glyph-name="FL002Bh" unicode="+" horiz-adv-x="520" 
d="M50 345h155v85h110v-85h155v-110h-155v-155h-110v155h-155v110zM205 500h110v-30h-110v30z" />
    <glyph glyph-name="FL002Ch" unicode="," horiz-adv-x="234" 
d="M113 -72h-63v182h134v-108q0 -27 -18 -50.5t-53 -23.5z" />
    <glyph glyph-name="FL002Dh" unicode="-" horiz-adv-x="440" 
d="M50 235v110h340v-110h-340z" />
    <glyph glyph-name="period" unicode="." horiz-adv-x="234" 
d="M50 0v110h134v-110h-134z" />
    <glyph glyph-name="FL002Fh" unicode="/" horiz-adv-x="517" 
d="M254 0h-224l172 430h224zM487 580l-45 -110h-224l45 110h224z" />
    <glyph glyph-name="FL0030h" unicode="0" horiz-adv-x="800" 
d="M150 0q-20 0 -38 10.5t-31.5 26.5t-22 35.5t-8.5 37.5v320h200v-320h300v320h200v-320q0 -18 -8.5 -37.5t-22 -35.5t-32 -26.5t-37.5 -10.5h-500zM50 470q0 18 8.5 37.5t22 35.5t31.5 26.5t38 10.5h500q19 0 37.5 -10.5t32 -26.5t22 -35.5t8.5 -37.5h-700z" />
    <glyph glyph-name="one" unicode="1" horiz-adv-x="390" 
d="M140 0v430h200v-430h-200zM50 470v110h290v-110h-290z" />
    <glyph glyph-name="FL0032h" unicode="2" horiz-adv-x="800" 
d="M250 235v-125h500v-110h-700v235q0 18 8.5 37.5t22 35.5t31.5 26.5t38 10.5h400v85h200v-85q0 -18 -8.5 -37.5t-22 -35.5t-32 -26.5t-37.5 -10.5h-400zM750 470h-700v110h600q19 0 37.5 -10.5t32 -26.5t22 -35.5t8.5 -37.5z" />
    <glyph glyph-name="FL0033h" unicode="3" horiz-adv-x="731" 
d="M91 345h390v85h200v-72q0 -6 -5.5 -16t-13 -20.5t-14.5 -19t-11 -12.5q4 -5 11 -13.5t14.5 -18.5t13 -19.5t5.5 -16.5v-112q0 -18 -8.5 -37.5t-22 -35.5t-32 -26.5t-37.5 -10.5h-531v110h431v125h-390v110zM50 470v110h531q19 0 37.5 -10.5t32 -26.5t22 -35.5t8.5 -37.5
h-631z" />
    <glyph glyph-name="four" unicode="4" horiz-adv-x="860" 
d="M525 110h-475v157l250 163h425v-210h85v-110h-85v-110h-200v110zM525 423l-311 -203h311v203zM725 580v-110h-363l169 110h194z" />
    <glyph glyph-name="five" unicode="5" horiz-adv-x="800" 
d="M550 235h-500v195h200v-85h400q19 0 37.5 -10.5t32 -26.5t22 -35.5t8.5 -37.5v-125q0 -18 -8.5 -37.5t-22 -35.5t-32 -26.5t-37.5 -10.5h-600v110h500v125zM723 470h-673v110h673v-110z" />
    <glyph glyph-name="FL0036h" unicode="6" horiz-adv-x="800" 
d="M750 235v-125q0 -18 -8.5 -37.5t-22 -35.5t-32 -26.5t-37.5 -10.5h-500q-20 0 -38 10.5t-31.5 26.5t-22 35.5t-8.5 37.5v320h200v-320h300v125h-245v110h345q19 0 37.5 -10.5t32 -26.5t22 -35.5t8.5 -37.5zM50 470q0 18 8.5 37.5t22 35.5t31.5 26.5t38 10.5h587v-110
h-687z" />
    <glyph glyph-name="seven" unicode="7" horiz-adv-x="697" 
d="M200 0l198 430h223l-202 -430h-219zM416 470l3 5h-369v105h597v-96l-7 -14h-224z" />
    <glyph glyph-name="FL0038h" unicode="8" horiz-adv-x="800" 
d="M250 110h300v125h-245v110h245v85h200v-72q0 -6 -5.5 -16t-13 -20.5t-14.5 -19t-11 -12.5q4 -5 11 -13.5t14.5 -18.5t13 -19.5t5.5 -16.5v-112q0 -18 -8.5 -37.5t-22 -35.5t-32 -26.5t-37.5 -10.5h-500q-20 0 -38 10.5t-31.5 26.5t-22 35.5t-8.5 37.5v112q0 7 5.5 16.5
t13 19.5t14.5 18.5t11 13.5q-4 4 -11 12.5t-14.5 19t-13 20.5t-5.5 16v72h200v-320zM150 580h500q19 0 37.5 -10.5t32 -26.5t22 -35.5t8.5 -37.5h-700q0 18 8.5 37.5t22 35.5t31.5 26.5t38 10.5z" />
    <glyph glyph-name="FL0039h" unicode="9" horiz-adv-x="800" 
d="M750 110q0 -18 -8.5 -37.5t-22 -35.5t-32 -26.5t-37.5 -10.5h-587v110h487v320h200v-320zM50 470q0 18 8.5 37.5t22 35.5t31.5 26.5t38 10.5h500q19 0 37.5 -10.5t32 -26.5t22 -35.5t8.5 -37.5h-700zM50 345v85h200v-85h245v-110h-345q-20 0 -38 10.5t-31.5 26.5
t-22 35.5t-8.5 37.5z" />
    <glyph glyph-name="FL003Ah" unicode=":" horiz-adv-x="234" 
d="M50 268v110h134v-110h-134zM50 0v110h134v-110h-134z" />
    <glyph glyph-name="FL003Bh" unicode=";" horiz-adv-x="234" 
d="M113 -72h-63v182h134v-108q0 -27 -18 -50.5t-53 -23.5zM50 268v110h134v-110h-134z" />
    <glyph glyph-name="FL003Ch" unicode="&#x3c;" horiz-adv-x="577" 
d="M298 0l-268 269l184 161h161l-137 -120l309 -310h-249zM547 580l-126 -110h-161l126 110h161z" />
    <glyph glyph-name="FL003Dh" unicode="=" horiz-adv-x="529" 
d="M50 255h429v-110h-429v110zM479 325h-429v105h429v-105z" />
    <glyph glyph-name="FL003Eh" unicode="&#x3e;" horiz-adv-x="576" 
d="M191 0h-161l308 269l-160 161h249l119 -120zM30 580h249l109 -110h-249z" />
    <glyph glyph-name="FL003Fh" unicode="?" horiz-adv-x="768" 
d="M321 235v-70h-193v70q0 18 8.5 37.5t22 35.5t31.5 26.5t38 10.5h290v85h200v-85q0 -18 -8.5 -37.5t-22 -35.5t-32 -26.5t-37.5 -10.5h-297zM50 470v110h568q19 0 37.5 -10.5t32 -26.5t22 -35.5t8.5 -37.5h-668zM321 114v-114h-194v114h194z" />
    <glyph glyph-name="FL0040h" unicode="@" horiz-adv-x="1229" 
d="M523 404v-226h111v-110h-216q-19 0 -36 10.5t-30 27t-21 35.5t-8 37v226q0 15 4 26h575q4 -12 4 -26v-226h73v252h200v-252q0 -18 -8.5 -37.5t-22 -35.5t-32 -26.5t-37.5 -10.5h-373v336h-183zM150 -110q-20 0 -38 10.5t-31.5 26.5t-22 35.5t-8.5 37.5v430h200v-430h909
v-110h-1009zM1179 579v-109h-200v109h-729v-109h-200v109q0 18 8.5 37.5t22 35.5t31.5 26.5t38 10.5h929q19 0 37.5 -10.5t32 -26.5t22 -35.5t8.5 -37.5zM806 514q22 0 41.5 -12.5t33.5 -31.5h-534q14 19 34 31.5t42 12.5h383z" />
    <glyph glyph-name="FL005Eh" unicode="A" horiz-adv-x="830" 
d="M459 280l-63 150h231l173 -430h-224l-71 170h-181v110h135zM173 0h-143l171 430h144zM592 518l19 -48h-394l15 38q11 23 24 37t29 22t34.5 10.5t41.5 2.5h102q51 0 82 -12t47 -50z" />
    <glyph glyph-name="FL0062h" unicode="B" horiz-adv-x="800" 
d="M305 345h245v85h200v-72q0 -6 -5.5 -16t-13 -20.5t-14.5 -19t-11 -12.5q4 -5 11 -13.5t14.5 -18.5t13 -19.5t5.5 -16.5v-112q0 -18 -8.5 -37.5t-22 -35.5t-32 -26.5t-37.5 -10.5h-600v430h200v-320h300v125h-245v110zM650 580q19 0 37.5 -10.5t32 -26.5t22 -35.5
t8.5 -37.5h-700v110h600z" />
    <glyph glyph-name="FL0063h" unicode="C" horiz-adv-x="731" 
d="M681 0h-531q-20 0 -38 10.5t-31.5 26.5t-22 35.5t-8.5 37.5v320h200v-320h431v-110zM681 580v-110h-631q0 18 8.5 37.5t22 35.5t31.5 26.5t38 10.5h531z" />
    <glyph glyph-name="FL0064h" unicode="D" horiz-adv-x="800" 
d="M750 110q0 -18 -8.5 -37.5t-22 -35.5t-32 -26.5t-37.5 -10.5h-345v110h245v320h200v-320zM250 0h-200v430h200v-430zM650 580q19 0 37.5 -10.5t32 -26.5t22 -35.5t8.5 -37.5h-700v110h600z" />
    <glyph glyph-name="FL0065h" unicode="E" horiz-adv-x="731" 
d="M681 0h-531q-20 0 -38 10.5t-31.5 26.5t-22 35.5t-8.5 37.5v320h200v-85h390v-110h-390v-125h431v-110zM681 580v-110h-631q0 18 8.5 37.5t22 35.5t31.5 26.5t38 10.5h531z" />
    <glyph glyph-name="FL0066h" unicode="F" horiz-adv-x="731" 
d="M250 0h-200v430h200v-85h390v-110h-390v-235zM681 580v-110h-631q0 18 8.5 37.5t22 35.5t31.5 26.5t38 10.5h531z" />
    <glyph glyph-name="g" unicode="G" horiz-adv-x="800" 
d="M750 339v-229q0 -18 -8.5 -37.5t-22 -35.5t-32 -26.5t-37.5 -10.5h-500q-20 0 -38 10.5t-31.5 26.5t-22 35.5t-8.5 37.5v320h200v-320h300v229h200zM750 470h-700q0 18 8.5 37.5t22 35.5t31.5 26.5t38 10.5h600v-110z" />
    <glyph glyph-name="FL0068h" unicode="H" horiz-adv-x="800" 
d="M250 0h-200v430h200v-85h299v85h201v-430h-201v235h-299v-235zM750 580v-110h-201v110h201zM250 580v-110h-200v110h200z" />
    <glyph glyph-name="i" unicode="I" horiz-adv-x="300" 
d="M50 0v430h200v-430h-200zM50 470v110h200v-110h-200z" />
    <glyph glyph-name="j" unicode="J" horiz-adv-x="669" 
d="M619 110q0 -18 -8.5 -37.5t-22 -35.5t-32 -26.5t-37.5 -10.5h-469v110h369v320h200v-320zM619 580v-110h-200v110h200z" />
    <glyph glyph-name="FL006Bh" unicode="K" horiz-adv-x="800" 
d="M750 0h-200v235h-300v-235h-200v430h200v-84l96 84h232l-97 -85h169q19 0 37.5 -10.5t32 -26.5t22 -35.5t8.5 -37.5v-235zM750 581l-127 -111h-231l127 111h231zM250 580v-110h-200v110h200z" />
    <glyph glyph-name="FL006Ch" unicode="L" horiz-adv-x="669" 
d="M49 110v320h200v-320h369v-110h-469q-20 0 -38 10.5t-31.5 26.5t-22 35.5t-8.5 37.5zM49 470v110h200v-110h-200z" />
    <glyph glyph-name="FL006Dh" unicode="M" horiz-adv-x="1117" 
d="M421 430l140 -247l143 247h151l-248 -430h-163l-249 430h226zM1066 0h-200v430h200v-430zM184 0h-135v430h135v-430zM49 580h287l62 -110h-349v110zM1066 580v-110h-339l64 110h275z" />
    <glyph glyph-name="FL006Eh" unicode="N" horiz-adv-x="810" 
d="M434 430l181 -280v280h145v-430h-284l-278 430h236zM185 0h-135v430h135v-430zM50 580h288l71 -110h-359v110zM615 470v110h145v-110h-145z" />
    <glyph glyph-name="FL006Fh" unicode="O" horiz-adv-x="800" 
d="M150 0q-20 0 -38 10.5t-31.5 26.5t-22 35.5t-8.5 37.5v320h200v-320h300v320h200v-320q0 -18 -8.5 -37.5t-22 -35.5t-32 -26.5t-37.5 -10.5h-500zM50 470q0 18 8.5 37.5t22 35.5t31.5 26.5t38 10.5h500q19 0 37.5 -10.5t32 -26.5t22 -35.5t8.5 -37.5h-700z" />
    <glyph glyph-name="FL00B2h" unicode="P" horiz-adv-x="800" 
d="M250 0h-200v430h200v-430zM650 580q19 0 37.5 -10.5t32 -26.5t22 -35.5t8.5 -37.5h-700v110h600zM750 345q0 -18 -8.5 -37.5t-22 -35.5t-32 -26.5t-37.5 -10.5h-345v110h245v85h200v-85z" />
    <glyph glyph-name="FL0071h" unicode="Q" horiz-adv-x="800" 
d="M490 -68l-44 68h-296q-20 0 -38 10.5t-31.5 26.5t-22 35.5t-8.5 37.5v320h200v-320h125l-70 108h134l70 -108h41v320h200v-320q0 -18 -8.5 -37.5t-22 -35.5t-32 -26.5t-37.5 -10.5h-70l44 -68h-134zM50 470q0 18 8.5 37.5t22 35.5t31.5 26.5t38 10.5h500q19 0 37.5 -10.5
t32 -26.5t22 -35.5t8.5 -37.5h-700z" />
    <glyph glyph-name="FL0072h" unicode="R" horiz-adv-x="800" 
d="M750 345q0 -18 -8.5 -37.5t-22 -35.5t-32 -26.5t-37.5 -10.5h-90l218 -235h-234l-239 250v95h245v85h200v-85zM250 0h-200v430h200v-430zM650 580q19 0 37.5 -10.5t32 -26.5t22 -35.5t8.5 -37.5h-700v110h600z" />
    <glyph glyph-name="FL00B8h" unicode="S" horiz-adv-x="800" 
d="M550 235h-400q-20 0 -38 10.5t-31.5 26.5t-22 35.5t-8.5 37.5v85h200v-85h400q19 0 37.5 -10.5t32 -26.5t22 -35.5t8.5 -37.5v-125q0 -18 -8.5 -37.5t-22 -35.5t-32 -26.5t-37.5 -10.5h-600v110h500v125zM750 580v-110h-700q0 18 8.5 37.5t22 35.5t31.5 26.5t38 10.5h600
z" />
    <glyph glyph-name="t" unicode="T" horiz-adv-x="740" 
d="M470 0h-200v430h200v-430zM50 470v110h640v-110h-640z" />
    <glyph glyph-name="FL0075h" unicode="U" horiz-adv-x="800" 
d="M250 110h300v320h200v-320q0 -18 -8.5 -37.5t-22 -35.5t-32 -26.5t-37.5 -10.5h-500q-20 0 -38 10.5t-31.5 26.5t-22 35.5t-8.5 37.5v320h200v-320zM750 580v-110h-200v110h200zM250 580v-110h-200v110h200z" />
    <glyph glyph-name="v" unicode="V" horiz-adv-x="830" 
d="M316 430l133 -317l10 -1q13 1 19 20l119 298h143l-142 -358q-11 -23 -24 -37t-29 -22t-35 -10.5t-41 -2.5h-102q-51 0 -82 12t-47 50l-148 368h226zM30 580h224l46 -110h-226zM613 470l44 110h143l-44 -110h-143z" />
    <glyph glyph-name="FL0077h" unicode="W" horiz-adv-x="1292" 
d="M782 430l133 -317l6 -1q13 1 19 20l119 298h143l-142 -358q-11 -23 -24 -37t-29 -22t-35 -10.5t-41 -2.5h-98q-51 0 -82 12t-47 50l-57 141l-53 -131q-11 -23 -24 -37t-29 -22t-35 -10.5t-41 -2.5h-98q-51 0 -82 12t-47 50l-148 368h224q46 -116 72.5 -180t40 -94.5
t17.5 -36.5t5 -6l6 -1q13 1 19 20l100 252l-18 46h226zM496 580h224l46 -110h-226zM30 580h224q13 -32 23 -58t21 -52h-224zM1075 470l44 110h143l-44 -110h-143z" />
    <glyph glyph-name="FL00A5h" unicode="X" horiz-adv-x="871" 
d="M189 0h-159l301 269l-156 161h246l42 -43l49 43h161l-134 -120l302 -310h-245l-189 193zM30 580h245l107 -110h-246zM841 580l-123 -110h-161l125 110h159z" />
    <glyph glyph-name="FL0025h" unicode="Y" horiz-adv-x="872" 
d="M538 270v-270h-196v262l-165 168h249l49 -48l50 48h170zM30 580h245l111 -110h-248zM842 580l-108 -110h-167l116 110h159z" />
    <glyph glyph-name="z" unicode="Z" horiz-adv-x="750" 
d="M50 0v110l338 320h270l-338 -320h380v-110h-650zM690 470h-640v110h640v-110z" />
    <glyph glyph-name="FL005Bh" unicode="[" horiz-adv-x="459" 
d="M409 -110h-359v540h200v-430h159v-110zM250 579v-109h-200v219h359v-110h-159z" />
    <glyph glyph-name="FL005Ch" unicode="\" horiz-adv-x="517" 
d="M314 430l173 -430h-224l-173 430h224zM30 580h224l44 -110h-224z" />
    <glyph glyph-name="FL005Dh" unicode="]" horiz-adv-x="459" 
d="M49 -110v110h159v430h200v-540h-359zM208 470v109h-159v110h359v-219h-200z" />
    <glyph glyph-name="a" unicode="^" horiz-adv-x="800" 
d="M750 0h-200v235h-245v110h245v85h200v-430zM250 0h-200v430h200v-430zM50 470q0 18 8.5 37.5t22 35.5t31.5 26.5t38 10.5h500q19 0 37.5 -10.5t32 -26.5t22 -35.5t8.5 -37.5h-700z" />
    <glyph glyph-name="FL005Fh" unicode="_" horiz-adv-x="663" 
d="M50 61h563v-73h-563v73z" />
    <glyph glyph-name="FL0060h" unicode="`" horiz-adv-x="263" 
d="M233 579h-130l-73 95h154z" />
    <glyph glyph-name="FL0061h" unicode="a" 
d="M50 168q0 18 8.5 37.5t22 35.5t31.5 26.5t38 10.5h228v-110h-128v-58h183v226h-370v94h516q23 -17 38.5 -43t15.5 -51v-336h-483q-20 0 -38 10.5t-31.5 26.5t-22 35.5t-8.5 37.5v58z" />
    <glyph glyph-name="FL0B3Bh" unicode="b" 
d="M633 336v-226q0 -18 -8.5 -37.5t-22 -35.5t-32 -26.5t-37.5 -10.5h-483v430h200v-320h183v226h-128v94h274q23 -17 38.5 -43t15.5 -51zM50 470v110h200v-110h-200z" />
    <glyph glyph-name="FL0069h" unicode="c" horiz-adv-x="613" 
d="M563 336h-313v-226h313v-110h-413q-20 0 -38 10.5t-31.5 26.5t-22 35.5t-8.5 37.5v226q0 25 15 51t38 43h460v-94z" />
    <glyph glyph-name="FL0B45h" unicode="d" 
d="M50 336q0 25 15 51t38 43h275v-94h-128v-226h183v320h200v-430h-483q-20 0 -38 10.5t-31.5 26.5t-22 35.5t-8.5 37.5v226zM633 580v-110h-200v110h200z" />
    <glyph glyph-name="FL0067h" unicode="e" 
d="M633 278q0 -18 -8.5 -37.5t-22 -35.5t-32 -26.5t-37.5 -10.5h-228v110h128v58h-183v-226h370v-110h-470q-20 0 -38 10.5t-31.5 26.5t-22 35.5t-8.5 37.5v226q0 25 15 51t38 43h476q23 -17 38.5 -43t15.5 -51v-58z" />
    <glyph glyph-name="FL0CF3h" unicode="f" horiz-adv-x="613" 
d="M50 0v404q0 15 4 26h509v-29h-313v-114h272v-110h-272v-177h-200zM563 514v-44h-489q14 19 34 31.5t42 12.5h413z" />
    <glyph glyph-name="FL0BD3h" unicode="g" 
d="M633 -48q0 -18 -8.5 -37.5t-22 -35.5t-32 -26.5t-37.5 -10.5h-404v110h304v384h-183v-226h128v-110h-228q-20 0 -38 10.5t-31.5 26.5t-22 35.5t-8.5 37.5v226q0 25 15 51t38 43h530v-478z" />
    <glyph glyph-name="FL0073h" unicode="h" 
d="M50 0v430h529q23 -17 38.5 -43t15.5 -51v-336h-200v336h-183v-336h-200zM50 470v110h200v-110h-200z" />
    <glyph glyph-name="FL006Ah" unicode="i" horiz-adv-x="300" 
d="M250 0h-200v430h200v-430zM50 484v96h200v-96h-200z" />
    <glyph glyph-name="FL0B4Fh" unicode="j" horiz-adv-x="300" 
d="M250 -49q0 -18 -8.5 -37.5t-22 -35.5t-32 -26.5t-37.5 -10.5h-159v110h59v479h200v-479zM50 580h200v-96h-200v96z" />
    <glyph glyph-name="FL0C2Dh" unicode="k" 
d="M465 312h68q19 0 37.5 -10.5t32 -26.5t22 -35.5t8.5 -37.5v-202h-200v202h-183v-202h-200v430h200v-116l132 116h217zM50 580h200v-110h-200v110z" />
    <glyph glyph-name="FL0070h" unicode="l" horiz-adv-x="300" 
d="M50 0v430h200v-430h-200zM50 470v110h200v-110h-200z" />
    <glyph glyph-name="FL0078h" unicode="m" horiz-adv-x="948" 
d="M698 0v336h-144v-336h-160v336h-144v-336h-200v430h398q9 -5 16 -8.5t10 -6.5q3 3 10 6.5t15 8.5h345q23 -17 38.5 -43t15.5 -51v-336h-200z" />
    <glyph glyph-name="FL007Ch" unicode="n" horiz-adv-x="691" 
d="M641 0h-200v336h-191v-336h-200v430h537q23 -17 38.5 -43t15.5 -51v-336z" />
    <glyph glyph-name="FL0074h" unicode="o" 
d="M633 336v-226q0 -18 -8.5 -37.5t-22 -35.5t-32 -26.5t-37.5 -10.5h-383q-20 0 -38 10.5t-31.5 26.5t-22 35.5t-8.5 37.5v226q0 25 15 51t38 43h476q23 -17 38.5 -43t15.5 -51zM250 336v-226h183v226h-183z" />
    <glyph glyph-name="FL0076h" unicode="p" 
d="M633 110q0 -18 -8.5 -37.5t-22 -35.5t-32 -26.5t-37.5 -10.5h-228v110h128v226h-183v-473h-200v567h529q23 -17 38.5 -43t15.5 -51v-226z" />
    <glyph glyph-name="FL007Ah" unicode="q" 
d="M50 110v226q0 25 15 51t38 43h530v-567h-200v473h-183v-226h128v-110h-228q-20 0 -38 10.5t-31.5 26.5t-22 35.5t-8.5 37.5z" />
    <glyph glyph-name="FL007Dh" unicode="r" horiz-adv-x="499" 
d="M50 0v336q0 25 15 51t38 43h346v-94h-199v-336h-200z" />
    <glyph glyph-name="FL0081h" unicode="s" 
d="M633 168v-58q0 -18 -8.5 -37.5t-22 -35.5t-32 -26.5t-37.5 -10.5h-483v110h383v58h-283q-20 0 -38 10.5t-31.5 26.5t-22 35.5t-8.5 37.5v58q0 25 15 51t38 43h530v-94h-383v-58h283q19 0 37.5 -10.5t32 -26.5t22 -35.5t8.5 -37.5z" />
    <glyph glyph-name="FL007Fh" unicode="t" horiz-adv-x="573" 
d="M523 0h-373q-20 0 -38 10.5t-31.5 26.5t-22 35.5t-8.5 37.5v320h473v-94h-273v-226h273v-110zM250 580v-110h-200v110h200z" />
    <glyph glyph-name="FL007Bh" unicode="u" 
d="M633 110q0 -18 -8.5 -37.5t-22 -35.5t-32 -26.5t-37.5 -10.5h-383q-20 0 -38 10.5t-31.5 26.5t-22 35.5t-8.5 37.5v320h200v-320h183v320h200v-320z" />
    <glyph glyph-name="FL0082h" unicode="v" horiz-adv-x="696" 
d="M197 48l-161 382h224l123 -317q3 3 6 5.5t5 6.5l122 305h143l-155 -375q-19 -35 -46.5 -45t-65.5 -10h-83q-45 0 -70.5 10.5t-41.5 37.5z" />
    <glyph glyph-name="FL0083h" unicode="w" horiz-adv-x="1062" 
d="M464 271l-57 159h217l125 -317q3 3 6 5.5t5 6.5l122 305h143l-155 -375q-19 -35 -46.5 -45t-65.5 -10h-85q-45 0 -71.5 9t-40.5 39l-31 66l-26 -59q-19 -35 -45 -45t-64 -10h-86q-44 0 -68.5 10.5t-43.5 37.5l-161 382h224l126 -319q6 6 11 14z" />
    <glyph glyph-name="FL0085h" unicode="x" horiz-adv-x="744" 
d="M190 0h-160l237 202l-222 228h248l110 -112l133 112h159l-218 -187l237 -243h-248l-125 127z" />
    <glyph glyph-name="FL0080h" unicode="y" 
d="M633 -48q0 -18 -8.5 -37.5t-22 -35.5t-32 -26.5t-37.5 -10.5h-404v110h304v48h-283q-20 0 -38 10.5t-31.5 26.5t-22 35.5t-8.5 37.5v320h200v-320h183v320h200v-478z" />
    <glyph glyph-name="FL0084h" unicode="z" horiz-adv-x="629" 
d="M579 0h-529v110l272 226h-272v94h529v-94l-278 -226h278v-110z" />
    <glyph glyph-name="FL0087h" unicode="{" horiz-adv-x="459" 
d="M409 -55h-259q-20 0 -38 10.5t-31.5 26.5t-22 35.5t-8.5 37.5v375h200v-375h159v-110zM250 524v-54h-200v54q0 18 8.5 37.5t22 35.5t31.5 26.5t38 10.5h259v-110h-159z" />
    <glyph glyph-name="FL007Eh" unicode="|" horiz-adv-x="294" 
d="M50 -158v588h194v-588h-194zM50 470v263h194v-263h-194z" />
    <glyph glyph-name="FL0088h" unicode="}" horiz-adv-x="459" 
d="M49 -55v110h159v375h200v-375q0 -18 -8.5 -37.5t-22 -35.5t-32 -26.5t-37.5 -10.5h-259zM208 470v54h-159v110h259q19 0 37.5 -10.5t32 -26.5t22 -35.5t8.5 -37.5v-54h-200z" />
    <glyph glyph-name="FL0089h" unicode="~" horiz-adv-x="527" 
d="M213 308l-40 -73h-143l66 109h174l44 -73l40 73h143l-66 -109h-174z" />
    <glyph glyph-name="FL0086h" horiz-adv-x="258" 
 />
    <glyph glyph-name="FL00A1h" unicode="&#xa1;" horiz-adv-x="294" 
d="M50 417h194v-417h-194v417zM50 470v110h194v-110h-194z" />
    <glyph glyph-name="FL00A2h" unicode="&#xa2;" horiz-adv-x="613" 
d="M50 404q0 15 4 26h509v-26h-113v-226h113v-110h-113v-68h-93v68h-207q-20 0 -38 10.5t-31.5 26.5t-22 35.5t-8.5 37.5v226zM357 580h93v-66h113v-44h-489q14 19 34 31.5t42 12.5h207v66zM250 404v-226h107v226h-107z" />
    <glyph glyph-name="FL00A3h" unicode="&#xa3;" horiz-adv-x="688" 
d="M50 344h105q-4 7 -4 14v72h200v-85h185v-110h-185v-125h287v-110h-588v110h101v112q0 5 3 13h-104v109zM446 580v-110h-295q0 18 8.5 37.5t22 35.5t31.5 26.5t38 10.5h195z" />
    <glyph glyph-name="FL00A4h" unicode="&#xa4;" horiz-adv-x="885" 
d="M643 213l212 -213h-249l-129 129h-138l-148 -129h-161l217 190v170l-69 70h506l-41 -36v-181zM30 580h249l109 -110h-250zM382 365v-150h126v150h-126zM855 580l-126 -110h-162l127 110h161z" />
    <glyph glyph-name="FL00A6h" unicode="&#xa5;" horiz-adv-x="890" 
d="M154 333h124l-98 97h255l50 -48l51 48h173l-97 -97h114v-110h-177v-46h177v-110h-177v-67h-200v67h-195v110h195v46h-195v110zM30 580h249l114 -110h-253zM860 580l-111 -110h-170l119 110h162z" />
    <glyph glyph-name="FL00A7h" unicode="&#xa6;" horiz-adv-x="294" 
d="M50 -158v421h194v-421h-194zM244 733v-263h-194v263h194zM244 312h-194v118h194v-118z" />
    <glyph glyph-name="FL00ACh" unicode="&#xa7;" 
d="M633 318v-58q0 -14 -9.5 -28t-17.5 -27q8 -14 17.5 -27.5t9.5 -27.5v-58q0 -18 -8.5 -37.5t-22 -35.5t-32 -26.5t-37.5 -10.5h-463v110h363v58h-283q-20 0 -38 10.5t-31.5 26.5t-22 35.5t-8.5 37.5v58q0 14 9 27.5t17 27.5q-8 13 -17 27t-9 28v2h200v-2h283
q19 0 37.5 -10.5t32 -26.5t22 -35.5t8.5 -37.5zM250 486v-16h-200v16q0 18 8.5 37.5t22 35.5t31.5 26.5t38 10.5h463v-110h-363zM250 321v-64h183v64h-183z" />
    <glyph glyph-name="FL00A8h" unicode="&#xa8;" horiz-adv-x="504" 
d="M50 579v95h159v-95h-159zM295 579v95h159v-95h-159z" />
    <glyph glyph-name="FL00B1h" unicode="&#xa9;" horiz-adv-x="270" 
d="M135 630q21 0 41 -11q23 -11 32 -31q12 -20 12 -43q0 -20 -12 -41q-5 -11 -12.5 -17.5t-18.5 -14.5q-6 -2 -5 -2h-73l-6 2l-3 2q-9 7 -16 13t-13 17q-11 17 -11 41q0 12 3 22t8 21q13 22 32 31q35 11 42 11zM135 617q-28 0 -49.5 -21t-21.5 -51q0 -18 10 -34
q8 -11 14.5 -17.5t10.5 -8.5l5 -2q13 -7 31 -7t35 9q15 8 26 26q10 16 10 34q0 19 -9.5 36t-27.5 26q-16 10 -34 10zM162 533l14 -5q-9 -31 -41 -31q-20 0 -32 12.5t-12 35.5q0 24 12 36.5t33 12.5q27 0 38 -27l-13 -3q-9 17 -25 17q-30 0 -30 -36q0 -34 28 -34q24 0 28 22z
" />
    <glyph glyph-name="FL00AAh" unicode="&#xaa;" horiz-adv-x="696" 
d="M284 88v110h81l-52 135q-3 -3 -6 -5.5t-5 -6.5l-129 -321h-143l162 391q13 24 34 39h242q18 -11 31 -32l167 -398h-224l-34 88h-124z" />
    <glyph glyph-name="FL00ABh" unicode="&#xab;" horiz-adv-x="347" 
d="M230 290l66 -43v-155l-95 68v260l14 10h81v-97zM78 290l66 -43v-155l-95 68v260l14 10h81v-97zM119 470l25 18v-18h-25zM271 470l25 18v-18h-25z" />
    <glyph glyph-name="FL00ADh" unicode="&#xac;" horiz-adv-x="520" 
d="M50 345h420v-265h-110v155h-310v110z" />
    <glyph glyph-name="FL00AEh" unicode="&#xad;" horiz-adv-x="360" 
d="M50 235v110h260v-110h-260z" />
    <glyph glyph-name="FL00A9h" unicode="&#xae;" horiz-adv-x="270" 
d="M135 630q21 0 41 -11q21 -11 32 -31q12 -20 12 -43q0 -20 -12 -41q-9 -19 -31 -32l-3 -1.5l-1 -0.5h-77q-1 0 -3 2q-21 15 -32 32t-11 41q0 12 3 22t8 21q6 9 13.5 17t18.5 14q35 11 42 11zM135 617q-28 0 -49.5 -21t-21.5 -51l2.5 -9t7.5 -26q9 -15 25 -25l5 -2l24 -6
l8 -2q18 0 34 10q7 5 14 11t12 14q10 19 10 40q0 36 -37 57q-16 10 -34 10zM98 499v91h31q18 0 24 -3q5 -3 7 -5l3 -3q5 -8 5 -14q0 -10 -7 -17t-19 -8q7 -3 10.5 -8l10.5 -15l12 -18h-19l-7 14q-11 20 -17 21q-3 4 -11 4h-8v-39h-15zM113 549h17q14 0 18.5 4t4.5 11
q0 8 -9 13h-31v-28z" />
    <glyph glyph-name="FL00AFh" unicode="&#xaf;" horiz-adv-x="663" 
d="M50 592h563v-73h-563v73z" />
    <glyph glyph-name="FL00B0h" unicode="&#xb0;" horiz-adv-x="259" 
d="M209 580h-159v95h159v-95zM103 615h53v26h-53v-26z" />
    <glyph glyph-name="FL00BEh" unicode="&#xb1;" horiz-adv-x="520" 
d="M50 425h155v5h110v-5h155v-110h-155v-155h-110v155h-155v110zM50 110h420v-110h-420v110zM205 580h110v-110h-110v110z" />
    <glyph glyph-name="FL00B6h" unicode="&#xb2;" horiz-adv-x="450" 
d="M50 470q2 17 16 34t34 17h181v30h-231v77h300q10 0 19 -5t16 -13.5t11 -18t4 -18.5v-63q0 -20 -14 -40h-336zM169 416h231v-78h-350v92h119v-14z" />
    <glyph glyph-name="FL00B3h" unicode="&#xb3;" horiz-adv-x="415" 
d="M70 521h176v30h-196v77h265q10 0 19 -5t16 -13.5t11 -18t4 -18.5v-56q0 -6 -9 -18t-13 -16q2 -2 4.5 -5.5t5.5 -7.5h-283v51zM365 393q0 -9 -4 -18.5t-11 -18t-16 -13.5t-19 -5h-265v78h196v14h119v-37z" />
    <glyph glyph-name="FL00B4h" unicode="&#xb4;" horiz-adv-x="263" 
d="M30 579l49 95h154l-73 -95h-130z" />
    <glyph glyph-name="FL00B5h" unicode="&#xb5;" 
d="M250 110h183v320h200v-320q0 -18 -8.5 -37.5t-22 -35.5t-32 -26.5t-37.5 -10.5h-283v-137h-200v567h200v-320z" />
    <glyph glyph-name="FL00BDh" unicode="&#xb6;" horiz-adv-x="742" 
d="M50 345v85h358v-580h-201v385h-57q-20 0 -38 10.5t-31.5 26.5t-22 35.5t-8.5 37.5zM692 -150h-200v580h200v-580zM50 470q0 18 8.5 37.5t22 35.5t31.5 26.5t38 10.5h542v-110h-642z" />
    <glyph glyph-name="FL00B7h" unicode="&#xb7;" horiz-adv-x="234" 
d="M50 235v110h134v-110h-134z" />
    <glyph glyph-name="FL00B9h" unicode="&#xb8;" horiz-adv-x="216" 
d="M166 -57q0 -18 -8.5 -37.5t-22 -35t-32 -26t-37.5 -10.5h-80v109h65v58h115v-58z" />
    <glyph glyph-name="FL00BCh" unicode="&#xb9;" horiz-adv-x="273" 
d="M223 628v-158h-119v81h-54v77h173zM223 338h-119v92h119v-92z" />
    <glyph glyph-name="FL00BAh" unicode="&#xba;" horiz-adv-x="450" 
d="M400 573v-103h-119v81h-112v-81h-119v103q0 9 4 18.5t11 18t16 13.5t19 5h250q10 0 19 -5t16 -13.5t11 -18t4 -18.5zM169 416h112v14h119v-37q0 -9 -4 -18.5t-11 -18t-16 -13.5t-19 -5h-250q-10 0 -19 5t-16 13.5t-11 18t-4 18.5v37h119v-14z" />
    <glyph glyph-name="FL00BBh" unicode="&#xbb;" horiz-adv-x="347" 
d="M116 290l-66 43v97h81l14 -10v-260l-95 -68v155zM268 290l-66 43v97h81l14 -10v-260l-95 -68v155zM202 470v18l25 -18h-25zM50 470v18l25 -18h-25z" />
    <glyph glyph-name="FL03A7h" unicode="&#xbc;" horiz-adv-x="816" 
d="M603 55h-217v78l240 157h97v-156h43v-79h-43v-55h-120v55zM212 0h-162l346 430h162zM679 580l-89 -110h-162l89 110h162zM228 580v-110h-119v33h-54v77h173zM228 290h-119v140h119v-140zM603 188l-83 -54h83v54z" />
    <glyph glyph-name="FL037Ah" unicode="&#xbd;" horiz-adv-x="904" 
d="M804 106h-181v-28h231v-78h-350v128q0 9 4 18.5t11 18t16 13.5t19 5h181v30h-231v77h300q10 0 19 -5t16 -13.5t11 -18t4 -18.5v-63q0 -9 -4 -20.5t-11 -21.5t-16 -17t-19 -7zM212 0h-162l346 430h162zM679 580l-89 -110h-162l89 110h162zM228 580v-110h-119v33h-54v77
h173zM228 290h-119v140h119v-140z" />
    <glyph glyph-name="FL03CFh" unicode="&#xbe;" horiz-adv-x="931" 
d="M501 55v78l240 157h97v-156h43v-79h-43v-55h-120v55h-217zM165 0l346 430h162l-346 -430h-162zM346 430q5 -7 12 -15.5t7 -13.5v-56q0 -9 -4 -18.5t-11 -18t-16 -13.5t-19 -5h-265v78h196v28h-176v34h276zM70 473h176v30h-196v77h265q10 0 19 -5t16 -13.5t11 -18t4 -18.5
v-55h-295v3zM543 470l89 110h162l-89 -110h-162zM635 134h83v54z" />
    <glyph glyph-name="FL00BFh" unicode="&#xbf;" horiz-adv-x="768" 
d="M447 345v70h193v-70q0 -18 -8.5 -37.5t-22 -35.5t-32 -26.5t-37.5 -10.5h-290v-125h468v-110h-568q-20 0 -38 10.5t-31.5 26.5t-22 35.5t-8.5 37.5v125q0 18 8.5 37.5t22 35.5t31.5 26.5t38 10.5h297zM447 470v110h194v-110h-194z" />
    <glyph glyph-name="FL00C0h" unicode="&#xc0;" horiz-adv-x="800" 
d="M750 0h-200v235h-245v110h245v85h200v-430zM250 0h-200v430h200v-430zM50 470q0 18 8.5 37.5t22 35.5t31.5 26.5t38 10.5h500q19 0 37.5 -10.5t32 -26.5t22 -35.5t8.5 -37.5h-700zM490 638h-130l-73 95h154z" />
    <glyph glyph-name="FL00C1h" unicode="&#xc1;" horiz-adv-x="800" 
d="M750 0h-200v235h-245v110h245v85h200v-430zM250 0h-200v430h200v-430zM50 470q0 18 8.5 37.5t22 35.5t31.5 26.5t38 10.5h500q19 0 37.5 -10.5t32 -26.5t22 -35.5t8.5 -37.5h-700zM359 733h154l-73 -95h-130z" />
    <glyph glyph-name="FL00C2h" unicode="&#xc2;" horiz-adv-x="800" 
d="M750 0h-200v235h-245v110h245v85h200v-430zM250 0h-200v430h200v-430zM50 470q0 18 8.5 37.5t22 35.5t31.5 26.5t38 10.5h500q19 0 37.5 -10.5t32 -26.5t22 -35.5t8.5 -37.5h-700zM400 705l-43 -66h-155l68 95h260l68 -95h-155z" />
    <glyph glyph-name="FL00C3h" unicode="&#xc3;" horiz-adv-x="800" 
d="M750 0h-200v235h-245v110h245v85h200v-430zM250 0h-200v430h200v-430zM50 470q0 18 8.5 37.5t22 35.5t31.5 26.5t38 10.5h500q19 0 37.5 -10.5t32 -26.5t22 -35.5t8.5 -37.5h-700zM305 639h-145l68 95h177l45 -63l41 63h145l-68 -95h-177l-45 63z" />
    <glyph glyph-name="FL00C4h" unicode="&#xc4;" horiz-adv-x="800" 
d="M750 0h-200v235h-245v110h245v85h200v-430zM250 0h-200v430h200v-430zM50 470q0 18 8.5 37.5t22 35.5t31.5 26.5t38 10.5h500q19 0 37.5 -10.5t32 -26.5t22 -35.5t8.5 -37.5h-700zM443 639v95h159v-95h-159zM198 639v95h159v-95h-159z" />
    <glyph glyph-name="FL00C5h" unicode="&#xc5;" horiz-adv-x="800" 
d="M305 345h245v85h200v-430h-200v235h-245v110zM50 0v430h200v-430h-200zM750 470h-700q0 18 8.5 37.5t22 35.5t31.5 26.5t38 10.5h500q19 0 37.5 -10.5t32 -26.5t22 -35.5t8.5 -37.5zM479 639h-159v95h159v-95zM373 674h53v26h-53v-26z" />
    <glyph glyph-name="FL00C6h" unicode="&#xc6;" horiz-adv-x="1231" 
d="M305 345h245v85h200v-85h390v-110h-390v-125h431v-110h-631v235h-245v110zM1181 580v-110h-1131q0 18 8.5 37.5t22 35.5t31.5 26.5t38 10.5h1031zM50 0v430h200v-430h-200z" />
    <glyph glyph-name="FL00C7h" unicode="&#xc7;" horiz-adv-x="731" 
d="M474 -57q0 -18 -8.5 -37.5t-22 -35t-32 -26t-37.5 -10.5h-80v109h65v57h-209q-20 0 -38 10.5t-31.5 26.5t-22 35.5t-8.5 37.5v320h200v-320h431v-110h-207v-57zM681 580v-110h-631q0 18 8.5 37.5t22 35.5t31.5 26.5t38 10.5h531z" />
    <glyph glyph-name="FL00C8h" unicode="&#xc8;" horiz-adv-x="731" 
d="M150 0q-20 0 -38 10.5t-31.5 26.5t-22 35.5t-8.5 37.5v320h200v-85h390v-110h-390v-125h431v-110h-531zM50 470q0 18 8.5 37.5t22 35.5t31.5 26.5t38 10.5h531v-110h-631zM475 638h-130l-73 95h154z" />
    <glyph glyph-name="FL00C9h" unicode="&#xc9;" horiz-adv-x="731" 
d="M150 0q-20 0 -38 10.5t-31.5 26.5t-22 35.5t-8.5 37.5v320h200v-85h390v-110h-390v-125h431v-110h-531zM50 470q0 18 8.5 37.5t22 35.5t31.5 26.5t38 10.5h531v-110h-631zM329 733h154l-73 -95h-130z" />
    <glyph glyph-name="FL00CAh" unicode="&#xca;" horiz-adv-x="731" 
d="M150 0q-20 0 -38 10.5t-31.5 26.5t-22 35.5t-8.5 37.5v320h200v-85h390v-110h-390v-125h431v-110h-531zM50 470q0 18 8.5 37.5t22 35.5t31.5 26.5t38 10.5h531v-110h-631zM373 705l-43 -66h-155l68 95h260l68 -95h-155z" />
    <glyph glyph-name="FL00CBh" unicode="&#xcb;" horiz-adv-x="731" 
d="M681 0h-531q-20 0 -38 10.5t-31.5 26.5t-22 35.5t-8.5 37.5v320h200v-85h390v-110h-390v-125h431v-110zM681 470h-631q0 18 8.5 37.5t22 35.5t31.5 26.5t38 10.5h531v-110zM330 639h-159v95h159v-95zM575 639h-159v95h159v-95z" />
    <glyph glyph-name="FL00CCh" unicode="&#xcc;" horiz-adv-x="300" 
d="M50 0v430h200v-430h-200zM50 470v110h200v-110h-200zM251 638h-130l-73 95h154z" />
    <glyph glyph-name="FL00CDh" unicode="&#xcd;" horiz-adv-x="300" 
d="M50 0v430h200v-430h-200zM50 470v110h200v-110h-200zM97 733h154l-73 -95h-130z" />
    <glyph glyph-name="FL00CEh" unicode="&#xce;" horiz-adv-x="300" 
d="M50 0v430h200v-430h-200zM150 705l-43 -66h-155l68 95h260l68 -95h-155zM50 470v110h200v-110h-200z" />
    <glyph glyph-name="FL00CFh" unicode="&#xcf;" horiz-adv-x="300" 
d="M50 0v430h200v-430h-200zM50 470v110h200v-110h-200zM193 639v95h159v-95h-159zM-52 639v95h159v-95h-159z" />
    <glyph glyph-name="FL00D0h" unicode="&#xd0;" horiz-adv-x="917" 
d="M50 235v110h117v85h200v-85h127v-110h-127v-235h-200v235h-117zM422 110h245v320h200v-320q0 -18 -8.5 -37.5t-22 -35.5t-32 -26.5t-37.5 -10.5h-345v110zM867 470h-700v110h600q19 0 37.5 -10.5t32 -26.5t22 -35.5t8.5 -37.5z" />
    <glyph glyph-name="FL00D1h" unicode="&#xd1;" horiz-adv-x="810" 
d="M476 0l-278 430h236l181 -280v280h145v-430h-284zM50 0v430h135v-430h-135zM50 580h288l71 -110h-359v110zM353 702l-41 -63h-145l68 95h177l45 -63l41 63h145l-68 -95h-177zM760 580v-110h-145v110h145z" />
    <glyph glyph-name="FL00D2h" unicode="&#xd2;" horiz-adv-x="800" 
d="M750 110q0 -18 -8.5 -37.5t-22 -35.5t-32 -26.5t-37.5 -10.5h-500q-20 0 -38 10.5t-31.5 26.5t-22 35.5t-8.5 37.5v320h200v-320h300v320h200v-320zM750 470h-700q0 18 8.5 37.5t22 35.5t31.5 26.5t38 10.5h500q19 0 37.5 -10.5t32 -26.5t22 -35.5t8.5 -37.5zM490 638
h-130l-73 95h154z" />
    <glyph glyph-name="FL00D3h" unicode="&#xd3;" horiz-adv-x="800" 
d="M250 110h300v320h200v-320q0 -18 -8.5 -37.5t-22 -35.5t-32 -26.5t-37.5 -10.5h-500q-20 0 -38 10.5t-31.5 26.5t-22 35.5t-8.5 37.5v320h200v-320zM750 470h-700q0 18 8.5 37.5t22 35.5t31.5 26.5t38 10.5h500q19 0 37.5 -10.5t32 -26.5t22 -35.5t8.5 -37.5zM359 733
h154l-73 -95h-130z" />
    <glyph glyph-name="FL00D4h" unicode="&#xd4;" horiz-adv-x="800" 
d="M250 110h300v320h200v-320q0 -18 -8.5 -37.5t-22 -35.5t-32 -26.5t-37.5 -10.5h-500q-20 0 -38 10.5t-31.5 26.5t-22 35.5t-8.5 37.5v320h200v-320zM50 470q0 18 8.5 37.5t22 35.5t31.5 26.5t38 10.5h500q19 0 37.5 -10.5t32 -26.5t22 -35.5t8.5 -37.5h-700zM400 705
l-43 -66h-155l68 95h260l68 -95h-155z" />
    <glyph glyph-name="FL00D5h" unicode="&#xd5;" horiz-adv-x="800" 
d="M150 0q-20 0 -38 10.5t-31.5 26.5t-22 35.5t-8.5 37.5v320h200v-320h300v320h200v-320q0 -18 -8.5 -37.5t-22 -35.5t-32 -26.5t-37.5 -10.5h-500zM50 470q0 18 8.5 37.5t22 35.5t31.5 26.5t38 10.5h500q19 0 37.5 -10.5t32 -26.5t22 -35.5t8.5 -37.5h-700zM346 702
l-41 -63h-145l68 95h177l45 -63l41 63h145l-68 -95h-177z" />
    <glyph glyph-name="FL00D6h" unicode="&#xd6;" horiz-adv-x="800" 
d="M250 110h300v320h200v-320q0 -18 -8.5 -37.5t-22 -35.5t-32 -26.5t-37.5 -10.5h-500q-20 0 -38 10.5t-31.5 26.5t-22 35.5t-8.5 37.5v320h200v-320zM750 470h-700q0 18 8.5 37.5t22 35.5t31.5 26.5t38 10.5h500q19 0 37.5 -10.5t32 -26.5t22 -35.5t8.5 -37.5zM443 639v95
h159v-95h-159zM198 639v95h159v-95h-159z" />
    <glyph glyph-name="FL00D7h" unicode="&#xd7;" horiz-adv-x="474" 
d="M174 430l63 -62l62 62h95l30 -30l-109 -110l109 -110l-77 -77l-110 109l-110 -109l-77 77l109 110l-109 110l30 30h94zM120 470l7 7l7 -7h-14zM347 477l7 -7h-14z" />
    <glyph glyph-name="FL00D8h" unicode="&#xd8;" horiz-adv-x="800" 
d="M150 0q-20 0 -38 10.5t-31.5 26.5t-22 35.5t-8.5 37.5v320h200v-235l184 235h316v-320q0 -18 -8.5 -37.5t-22 -35.5t-32 -26.5t-37.5 -10.5h-500zM750 470h-700q0 18 8.5 37.5t22 35.5t31.5 26.5t38 10.5h500q19 0 37.5 -10.5t32 -26.5t22 -35.5t8.5 -37.5zM550 110v275
l-216 -275h216z" />
    <glyph glyph-name="FL00D9h" unicode="&#xd9;" horiz-adv-x="800" 
d="M250 110h300v320h200v-320q0 -18 -8.5 -37.5t-22 -35.5t-32 -26.5t-37.5 -10.5h-500q-20 0 -38 10.5t-31.5 26.5t-22 35.5t-8.5 37.5v320h200v-320zM250 580v-110h-200v110h200zM750 580v-110h-200v110h200zM441 733l49 -95h-130l-73 95h154z" />
    <glyph glyph-name="FL00DAh" unicode="&#xda;" horiz-adv-x="800" 
d="M250 110h300v320h200v-320q0 -18 -8.5 -37.5t-22 -35.5t-32 -26.5t-37.5 -10.5h-500q-20 0 -38 10.5t-31.5 26.5t-22 35.5t-8.5 37.5v320h200v-320zM250 580v-110h-200v110h200zM750 580v-110h-200v110h200zM310 638l49 95h154l-73 -95h-130z" />
    <glyph glyph-name="FL00DBh" unicode="&#xdb;" horiz-adv-x="800" 
d="M250 110h300v320h200v-320q0 -18 -8.5 -37.5t-22 -35.5t-32 -26.5t-37.5 -10.5h-500q-20 0 -38 10.5t-31.5 26.5t-22 35.5t-8.5 37.5v320h200v-320zM443 639l-43 66l-43 -66h-155l68 95h260l68 -95h-155zM750 580v-110h-200v110h200zM250 580v-110h-200v110h200z" />
    <glyph glyph-name="FL00DCh" unicode="&#xdc;" horiz-adv-x="800" 
d="M250 110h300v320h200v-320q0 -18 -8.5 -37.5t-22 -35.5t-32 -26.5t-37.5 -10.5h-500q-20 0 -38 10.5t-31.5 26.5t-22 35.5t-8.5 37.5v320h200v-320zM750 580v-110h-200v110h200zM250 580v-110h-200v110h200zM357 639h-159v95h159v-95zM602 639h-159v95h159v-95z" />
    <glyph glyph-name="FL00DDh" unicode="&#xdd;" horiz-adv-x="890" 
d="M549 0h-200v262l-169 168h255l50 -48l51 48h173l-160 -160v-270zM30 580h249l114 -110h-253zM579 470l119 110h162l-111 -110h-170zM437 733h154l-73 -95h-130z" />
    <glyph glyph-name="FL00DEh" unicode="&#xde;" horiz-adv-x="800" 
d="M50 0v430h665q16 -17 25.5 -37.5t9.5 -40.5v-125q0 -18 -8.5 -37.5t-22 -35.5t-32 -26.5t-37.5 -10.5h-345v110h245v125h-300v-352h-200zM250 580v-110h-200v110h200z" />
    <glyph glyph-name="FL00DFh" unicode="&#xdf;" horiz-adv-x="800" 
d="M355 345h195v85h200v-72q0 -6 -5.5 -16t-13 -20.5t-14.5 -19t-11 -12.5q4 -5 11 -13.5t14.5 -18.5t13 -19.5t5.5 -16.5v-112q0 -18 -8.5 -37.5t-22 -35.5t-32 -26.5t-37.5 -10.5h-295v110h195v125h-195v110zM250 0h-200v430h200v-430zM150 580h500q19 0 37.5 -10.5
t32 -26.5t22 -35.5t8.5 -37.5h-700q0 18 8.5 37.5t22 35.5t31.5 26.5t38 10.5z" />
    <glyph glyph-name="FL00E0h" unicode="&#xe0;" 
d="M50 168q0 18 8.5 37.5t22 35.5t31.5 26.5t38 10.5h228v-110h-128v-58h183v226h-370v94h516q23 -17 38.5 -43t15.5 -51v-336h-483q-20 0 -38 10.5t-31.5 26.5t-22 35.5t-8.5 37.5v58zM433 505h-130l-73 95h154z" />
    <glyph glyph-name="FL00E1h" unicode="&#xe1;" 
d="M50 168q0 18 8.5 37.5t22 35.5t31.5 26.5t38 10.5h228v-110h-128v-58h183v226h-370v94h516q23 -17 38.5 -43t15.5 -51v-336h-483q-20 0 -38 10.5t-31.5 26.5t-22 35.5t-8.5 37.5v58zM298 600h154l-73 -95h-130z" />
    <glyph glyph-name="FL00E2h" unicode="&#xe2;" 
d="M50 168q0 18 8.5 37.5t22 35.5t31.5 26.5t38 10.5h228v-110h-128v-58h183v226h-370v94h516q23 -17 38.5 -43t15.5 -51v-336h-483q-20 0 -38 10.5t-31.5 26.5t-22 35.5t-8.5 37.5v58zM341 571l-43 -66h-155l68 95h260l68 -95h-155z" />
    <glyph glyph-name="FL00E3h" unicode="&#xe3;" 
d="M50 168q0 18 8.5 37.5t22 35.5t31.5 26.5t38 10.5h228v-110h-128v-58h183v226h-370v94h516q23 -17 38.5 -43t15.5 -51v-336h-483q-20 0 -38 10.5t-31.5 26.5t-22 35.5t-8.5 37.5v58zM247 505h-145l68 95h177l45 -63l41 63h145l-68 -95h-177l-45 63z" />
    <glyph glyph-name="FL00E4h" unicode="&#xe4;" 
d="M50 168q0 18 8.5 37.5t22 35.5t31.5 26.5t38 10.5h228v-110h-128v-58h183v226h-370v94h516q23 -17 38.5 -43t15.5 -51v-336h-483q-20 0 -38 10.5t-31.5 26.5t-22 35.5t-8.5 37.5v58zM139 505v95h159v-95h-159zM384 505v95h159v-95h-159z" />
    <glyph glyph-name="FL00E5h" unicode="&#xe5;" 
d="M50 110v58q0 18 8.5 37.5t22 35.5t31.5 26.5t38 10.5h228v-110h-128v-58h183v226h-370v94h516q23 -17 38.5 -43t15.5 -51v-336h-483q-20 0 -38 10.5t-31.5 26.5t-22 35.5t-8.5 37.5zM421 505h-159v95h159v-95zM315 540h53v26h-53v-26z" />
    <glyph glyph-name="FL00E6h" unicode="&#xe6;" horiz-adv-x="1066" 
d="M50 168q0 18 8.5 37.5t22 35.5t31.5 26.5t38 10.5h228v-110h-128v-58h183v226h-370v94h899q23 -17 38.5 -43t15.5 -51v-58q0 -18 -8.5 -37.5t-22 -35.5t-32 -26.5t-37.5 -10.5h-228v110h128v58h-183v-226h370v-110h-853q-20 0 -38 10.5t-31.5 26.5t-22 35.5t-8.5 37.5v58
z" />
    <glyph glyph-name="FL00E7h" unicode="&#xe7;" horiz-adv-x="613" 
d="M415 -57q0 -18 -8.5 -37.5t-22 -35t-32 -26t-37.5 -10.5h-80v109h65v57h-150q-20 0 -38 10.5t-31.5 26.5t-22 35.5t-8.5 37.5v226q0 25 15 51t38 43h460v-94h-313v-226h313v-110h-148v-57z" />
    <glyph glyph-name="FL00E8h" unicode="&#xe8;" 
d="M633 278q0 -18 -8.5 -37.5t-22 -35.5t-32 -26.5t-37.5 -10.5h-228v110h128v58h-183v-226h370v-110h-470q-20 0 -38 10.5t-31.5 26.5t-22 35.5t-8.5 37.5v226q0 25 15 51t38 43h476q23 -17 38.5 -43t15.5 -51v-58zM384 600l49 -95h-130l-73 95h154z" />
    <glyph glyph-name="FL00E9h" unicode="&#xe9;" 
d="M633 278q0 -18 -8.5 -37.5t-22 -35.5t-32 -26.5t-37.5 -10.5h-228v110h128v58h-183v-226h370v-110h-470q-20 0 -38 10.5t-31.5 26.5t-22 35.5t-8.5 37.5v226q0 25 15 51t38 43h476q23 -17 38.5 -43t15.5 -51v-58zM249 505l49 95h154l-73 -95h-130z" />
    <glyph glyph-name="FL00EAh" unicode="&#xea;" 
d="M633 278q0 -18 -8.5 -37.5t-22 -35.5t-32 -26.5t-37.5 -10.5h-228v110h128v58h-183v-226h370v-110h-470q-20 0 -38 10.5t-31.5 26.5t-22 35.5t-8.5 37.5v226q0 25 15 51t38 43h476q23 -17 38.5 -43t15.5 -51v-58zM384 505l-43 66l-43 -66h-155l68 95h260l68 -95h-155z
" />
    <glyph glyph-name="FL00EBh" unicode="&#xeb;" 
d="M633 278q0 -18 -8.5 -37.5t-22 -35.5t-32 -26.5t-37.5 -10.5h-228v110h128v58h-183v-226h370v-110h-470q-20 0 -38 10.5t-31.5 26.5t-22 35.5t-8.5 37.5v226q0 25 15 51t38 43h476q23 -17 38.5 -43t15.5 -51v-58zM543 505h-159v95h159v-95zM298 505h-159v95h159v-95z" />
    <glyph glyph-name="FL00ECh" unicode="&#xec;" horiz-adv-x="300" 
d="M250 0h-200v430h200v-430zM251 505h-130l-73 95h154z" />
    <glyph glyph-name="FL00EDh" unicode="&#xed;" horiz-adv-x="300" 
d="M250 0h-200v430h200v-430zM97 600h154l-73 -95h-130z" />
    <glyph glyph-name="FL00EEh" unicode="&#xee;" horiz-adv-x="300" 
d="M250 0h-200v430h200v-430zM150 571l-43 -66h-155l68 95h260l68 -95h-155z" />
    <glyph glyph-name="FL00EFh" unicode="&#xef;" horiz-adv-x="300" 
d="M250 0h-200v430h200v-430zM193 485v95h159v-95h-159zM-52 485v95h159v-95h-159z" />
    <glyph glyph-name="FL00F0h" unicode="&#xf0;" horiz-adv-x="800" 
d="M250 110h300v320h200v-320q0 -18 -8.5 -37.5t-22 -35.5t-32 -26.5t-37.5 -10.5h-500q-20 0 -38 10.5t-31.5 26.5t-22 35.5t-8.5 37.5v125q0 18 8.5 37.5t22 35.5t31.5 26.5t38 10.5h345v-110h-245v-125zM302 650h110v-70h238q19 0 37.5 -10.5t32 -26.5t22 -35.5
t8.5 -37.5h-687v110h239v70zM412 401h-110v29h110v-29z" />
    <glyph glyph-name="FL00F1h" unicode="&#xf1;" horiz-adv-x="691" 
d="M641 0h-200v336h-191v-336h-200v430h537q23 -17 38.5 -43t15.5 -51v-336zM290 568l-41 -63h-145l68 95h177l45 -63l41 63h145l-68 -95h-177z" />
    <glyph glyph-name="FL00F2h" unicode="&#xf2;" 
d="M633 110q0 -18 -8.5 -37.5t-22 -35.5t-32 -26.5t-37.5 -10.5h-383q-20 0 -38 10.5t-31.5 26.5t-22 35.5t-8.5 37.5v226q0 25 15 51t38 43h476q23 -17 38.5 -43t15.5 -51v-226zM433 110v226h-183v-226h183zM433 505h-130l-73 95h154z" />
    <glyph glyph-name="FL00F3h" unicode="&#xf3;" 
d="M49 336q0 25 15 51t38 43h476q23 -17 38.5 -43t15.5 -51v-226q0 -18 -8.5 -37.5t-22 -35.5t-32 -26.5t-37.5 -10.5h-383q-20 0 -38 10.5t-31.5 26.5t-22 35.5t-8.5 37.5v226zM432 110v226h-183v-226h183zM298 600h154l-73 -95h-130z" />
    <glyph glyph-name="FL00F4h" unicode="&#xf4;" 
d="M633 110q0 -18 -8.5 -37.5t-22 -35.5t-32 -26.5t-37.5 -10.5h-383q-20 0 -38 10.5t-31.5 26.5t-22 35.5t-8.5 37.5v226q0 25 15 51t38 43h476q23 -17 38.5 -43t15.5 -51v-226zM433 110v226h-183v-226h183zM341 571l-43 -66h-155l68 95h260l68 -95h-155z" />
    <glyph glyph-name="FL00F5h" unicode="&#xf5;" 
d="M633 110q0 -18 -8.5 -37.5t-22 -35.5t-32 -26.5t-37.5 -10.5h-383q-20 0 -38 10.5t-31.5 26.5t-22 35.5t-8.5 37.5v226q0 25 15 51t38 43h476q23 -17 38.5 -43t15.5 -51v-226zM433 110v226h-183v-226h183zM288 568l-41 -63h-145l68 95h177l45 -63l41 63h145l-68 -95h-177
z" />
    <glyph glyph-name="FL00F6h" unicode="&#xf6;" 
d="M633 110q0 -18 -8.5 -37.5t-22 -35.5t-32 -26.5t-37.5 -10.5h-383q-20 0 -38 10.5t-31.5 26.5t-22 35.5t-8.5 37.5v226q0 25 15 51t38 43h476q23 -17 38.5 -43t15.5 -51v-226zM250 110h183v226h-183v-226zM139 505v95h159v-95h-159zM384 505v95h159v-95h-159z" />
    <glyph glyph-name="FL00F7h" unicode="&#xf7;" horiz-adv-x="535" 
d="M485 345v-110h-435v110h435zM200 90v110h134v-110h-134zM200 380v50h134v-50h-134zM200 470v20h134v-20h-134z" />
    <glyph glyph-name="FL00F8h" unicode="&#xf8;" 
d="M633 336v-226q0 -18 -8.5 -37.5t-22 -35.5t-32 -26.5t-37.5 -10.5h-383q-20 0 -38 10.5t-31.5 26.5t-22 35.5t-8.5 37.5v226q0 25 15 51t38 43h476q23 -17 38.5 -43t15.5 -51zM315 110h118v169zM367 336h-118v-169z" />
    <glyph glyph-name="FL00F9h" unicode="&#xf9;" 
d="M633 110q0 -18 -8.5 -37.5t-22 -35.5t-32 -26.5t-37.5 -10.5h-383q-20 0 -38 10.5t-31.5 26.5t-22 35.5t-8.5 37.5v320h200v-320h183v320h200v-320zM433 505h-130l-73 95h154z" />
    <glyph glyph-name="FL00FAh" unicode="&#xfa;" 
d="M633 110q0 -18 -8.5 -37.5t-22 -35.5t-32 -26.5t-37.5 -10.5h-383q-20 0 -38 10.5t-31.5 26.5t-22 35.5t-8.5 37.5v320h200v-320h183v320h200v-320zM298 600h154l-73 -95h-130z" />
    <glyph glyph-name="FL00FBh" unicode="&#xfb;" 
d="M633 110q0 -18 -8.5 -37.5t-22 -35.5t-32 -26.5t-37.5 -10.5h-383q-20 0 -38 10.5t-31.5 26.5t-22 35.5t-8.5 37.5v320h200v-320h183v320h200v-320zM341 571l-43 -66h-155l68 95h260l68 -95h-155z" />
    <glyph glyph-name="FL00FCh" unicode="&#xfc;" 
d="M633 110q0 -18 -8.5 -37.5t-22 -35.5t-32 -26.5t-37.5 -10.5h-383q-20 0 -38 10.5t-31.5 26.5t-22 35.5t-8.5 37.5v320h200v-320h183v320h200v-320zM139 505v95h159v-95h-159zM384 505v95h159v-95h-159z" />
    <glyph glyph-name="FL00FDh" unicode="&#xfd;" 
d="M633 -48q0 -18 -8.5 -37.5t-22 -35.5t-32 -26.5t-37.5 -10.5h-404v110h304v48h-283q-20 0 -38 10.5t-31.5 26.5t-22 35.5t-8.5 37.5v320h200v-320h183v320h200v-478zM298 600h154l-73 -95h-130z" />
    <glyph glyph-name="FL00FEh" unicode="&#xfe;" 
d="M633 110q0 -18 -8.5 -37.5t-22 -35.5t-32 -26.5t-37.5 -10.5h-228v110h128v226h-183v-473h-200v567h529q23 -17 38.5 -43t15.5 -51v-226zM250 580v-110h-200v110h200z" />
    <glyph glyph-name="FL00FFh" unicode="&#xff;" 
d="M633 -48q0 -18 -8.5 -37.5t-22 -35.5t-32 -26.5t-37.5 -10.5h-404v110h304v48h-283q-20 0 -38 10.5t-31.5 26.5t-22 35.5t-8.5 37.5v320h200v-320h183v320h200v-478zM139 505v95h159v-95h-159zM384 505v95h159v-95h-159z" />
    <glyph glyph-name="FL0152h" unicode="&#x152;" horiz-adv-x="1268" 
d="M587 110v320h200v-85h390v-110h-390v-125h431v-110h-1068q-20 0 -38 10.5t-31.5 26.5t-22 35.5t-8.5 37.5v320h200v-320h337zM1218 470h-1168q0 18 8.5 37.5t22 35.5t31.5 26.5t38 10.5h1068v-110z" />
    <glyph glyph-name="FL0153h" unicode="&#x153;" horiz-adv-x="1098" 
d="M1048 278q0 -18 -8.5 -37.5t-22 -35.5t-32 -26.5t-37.5 -10.5h-228v110h128v58h-183v-226h370v-110h-885q-20 0 -38 10.5t-31.5 26.5t-22 35.5t-8.5 37.5v226q0 25 15 51t38 43h891q23 -17 38.5 -43t15.5 -51v-58zM465 110v226h-215v-226h215z" />
    <glyph glyph-name="FL0160h" unicode="&#x160;" horiz-adv-x="800" 
d="M150 235q-20 0 -38 10.5t-31.5 26.5t-22 35.5t-8.5 37.5v85h200v-85h400q19 0 37.5 -10.5t32 -26.5t22 -35.5t8.5 -37.5v-125q0 -18 -8.5 -37.5t-22 -35.5t-32 -26.5t-37.5 -10.5h-600v110h500v125h-400zM50 470q0 18 8.5 37.5t22 35.5t31.5 26.5t38 10.5h600v-110h-700z
M402 668l43 66h155l-68 -95h-260l-68 95h155z" />
    <glyph glyph-name="FL0161h" unicode="&#x161;" 
d="M633 110q0 -18 -8.5 -37.5t-22 -35.5t-32 -26.5t-37.5 -10.5h-483v110h383v58h-283q-20 0 -38 10.5t-31.5 26.5t-22 35.5t-8.5 37.5v58q0 25 15 51t38 43h530v-94h-383v-58h283q19 0 37.5 -10.5t32 -26.5t22 -35.5t8.5 -37.5v-58zM342 534l43 66h155l-68 -95h-260l-68 95
h155z" />
    <glyph glyph-name="FL0178h" unicode="&#x178;" horiz-adv-x="890" 
d="M549 270v-270h-200v262l-169 168h255l50 -48l51 48h173zM30 580h249l114 -110h-253zM860 580l-111 -110h-170l119 110h162zM411 639h-159v95h159v-95zM656 639h-159v95h159v-95z" />
    <glyph glyph-name="FL017Dh" unicode="&#x17d;" horiz-adv-x="800" 
d="M50 0v110l338 320h270l-338 -320h380v-110h-650zM50 470v110h640v-110h-640zM396 668l43 66h155l-68 -95h-260l-68 95h155z" />
    <glyph glyph-name="FL017Eh" unicode="&#x17e;" horiz-adv-x="629" 
d="M579 0h-529v110l272 226h-272v94h529v-94l-278 -226h278v-110zM314 534l43 66h155l-68 -95h-260l-68 95h155z" />
    <glyph glyph-name="FL0192h" unicode="&#x192;" horiz-adv-x="613" 
d="M50 -68v404q0 25 15 51t38 43h460v-94h-313v-117h272v-110h-272v-177h-200z" />
    <glyph glyph-name="FL02C6h" unicode="&#x2c6;" horiz-adv-x="456" 
d="M228 646l-43 -66h-155l68 95h260l68 -95h-155z" />
    <glyph glyph-name="FL02DCh" unicode="&#x2dc;" horiz-adv-x="536" 
d="M216 642l-41 -63h-145l68 95h177l45 -63l41 63h145l-68 -95h-177z" />
    <glyph glyph-name="FL2013h" unicode="&#x2013;" horiz-adv-x="440" 
d="M50 235v110h340v-110h-340z" />
    <glyph glyph-name="FL2014h" unicode="&#x2014;" horiz-adv-x="535" 
d="M50 345h435v-110h-435v110z" />
    <glyph glyph-name="FL2018h" unicode="&#x2018;" horiz-adv-x="235" 
d="M120 580h64v-110h-135v36q0 27 18 50.5t53 23.5zM184 395h-135v35h135v-35z" />
    <glyph glyph-name="FL2019h" unicode="&#x2019;" horiz-adv-x="235" 
d="M50 470v110h135v-110h-135zM114 395h-64v35h125q-8 -15 -23.5 -25t-37.5 -10z" />
    <glyph glyph-name="FL201Ah" unicode="&#x201a;" horiz-adv-x="234" 
d="M113 -72h-63v182h134v-108q0 -27 -18 -50.5t-53 -23.5z" />
    <glyph glyph-name="FL201Ch" unicode="&#x201c;" horiz-adv-x="422" 
d="M121 580h64v-110h-135v36q0 27 18 50.5t53 23.5zM308 580h64v-110h-135v36q0 27 18 50.5t53 23.5zM185 395h-135v35h135v-35zM372 395h-135v35h135v-35z" />
    <glyph glyph-name="FL201Dh" unicode="&#x201d;" horiz-adv-x="422" 
d="M237 470v110h135v-110h-135zM50 470v110h135v-110h-135zM114 395h-64v35h125q-8 -15 -23.5 -25t-37.5 -10zM301 395h-64v35h125q-8 -15 -23.5 -25t-37.5 -10z" />
    <glyph glyph-name="FL201Eh" unicode="&#x201e;" horiz-adv-x="420" 
d="M299 -72h-63v182h134v-108q0 -27 -18 -50.5t-53 -23.5zM113 -72h-63v182h134v-108q0 -27 -18 -50.5t-53 -23.5z" />
    <glyph glyph-name="FL2020h" unicode="&#x2020;" horiz-adv-x="529" 
d="M164 0v350h-114v80h429v-80h-115v-350h-200zM364 580v-110h-200v110h200z" />
    <glyph glyph-name="FL2021h" unicode="&#x2021;" horiz-adv-x="529" 
d="M164 0v120h-114v110h114v120h-114v80h429v-80h-115v-120h115v-110h-115v-120h-200zM364 580v-110h-200v110h200z" />
    <glyph glyph-name="FL2022h" unicode="&#x2022;" 
d="M633 402v-226q0 -18 -8.5 -37.5t-22 -35.5t-32 -26.5t-37.5 -10.5h-383q-20 0 -38 10.5t-31.5 26.5t-22 35.5t-8.5 37.5v226q0 16 4 28h574q5 -18 5 -28zM533 512q21 0 40 -12t33 -30h-530q14 18 33.5 30t40.5 12h383z" />
    <glyph glyph-name="FL2026h" unicode="&#x2026;" horiz-adv-x="652" 
d="M468 0v110h134v-110h-134zM50 0v110h134v-110h-134zM259 0v110h134v-110h-134z" />
    <glyph glyph-name="FL2030h" unicode="&#x2030;" horiz-adv-x="1411" 
d="M980 235v-180q0 -9 -4 -18.5t-11 -18t-16 -13.5t-19 -5h-250q-10 0 -19 5t-16 13.5t-11 18t-4 18.5v180q0 9 4 18.5t11 18t16 13.5t19 5h250q10 0 19 -5t16 -13.5t11 -18t4 -18.5zM1361 235v-180q0 -9 -4 -18.5t-11 -18t-16 -13.5t-19 -5h-250q-10 0 -19 5t-16 13.5
t-11 18t-4 18.5v180q0 9 4 18.5t11 18t16 13.5t19 5h250q10 0 19 -5t16 -13.5t11 -18t4 -18.5zM361 0h-162l346 430h162zM169 368h112v62h119v-85q0 -9 -4 -18.5t-11 -18t-16 -13.5t-19 -5h-250q-10 0 -19 5t-16 13.5t-11 18t-4 18.5v85h119v-62zM400 525v-55h-119v33h-112
v-33h-119v55q0 9 4 18.5t11 18t16 13.5t19 5h250q10 0 19 -5t16 -13.5t11 -18t4 -18.5zM828 580l-89 -110h-162l89 110h162zM1130 213v-135h112v135h-112zM749 213v-135h112v135h-112z" />
    <glyph glyph-name="FL2039h" unicode="&#x2039;" horiz-adv-x="195" 
d="M79 290l66 -43v-155l-95 68v260l14 10h81v-97zM120 470l25 18v-18h-25z" />
    <glyph glyph-name="FL203Ah" unicode="&#x203a;" horiz-adv-x="195" 
d="M115 290l-66 43v97h81l14 -10v-260l-95 -68v155zM49 470v18l25 -18h-25z" />
    <glyph glyph-name="FL20ACh" unicode="&#x20ac;" horiz-adv-x="860" 
d="M50 423h138v7h200v-7h233v-110h-233v-46h233v-110h-233v-47h422v-110h-522q-20 0 -38 10.5t-31.5 26.5t-22 35.5t-8.5 37.5v47h-138v110h138v46h-138v110zM810 470h-622q0 18 8.5 37.5t22 35.5t31.5 26.5t38 10.5h522v-110z" />
    <glyph glyph-name="FL2122h" unicode="&#x2122;" horiz-adv-x="332" 
d="M170 496v119q1 3 5 3q5 0 5 1v1q5 0 15 -11t15 -24l1 -7q5 -15 8.5 -26.5t5.5 -19.5q4 11 6 19.5t5 22.5q9 28 18.5 37t22.5 9h5v-124h-13v80l-5 9l-29 -81q-2 -6 -3.5 -7t-6.5 -1q-2 0 -4 1t-5 7l-29 79l-4 -7v-80h-13zM91 496v104h-41v20h100v-20h-41v-104h-18z" />
    <glyph glyph-name="FLE004h" 
d="M633 336v-226q0 -18 -8.5 -37.5t-22 -35.5t-32 -26.5t-37.5 -10.5h-483v430h200v-320h183v226h-128v94h274q23 -17 38.5 -43t15.5 -51zM50 470v110h200v-110h-200z" />
    <glyph glyph-name="FLE003h" horiz-adv-x="940" 
d="M690 0v336h-143v-336h-154v336h-143v-336h-200v446h352q6 0 16 -5.5t20.5 -13t19 -14.5t12.5 -11q4 4 12.5 11t19 14.5t20.5 13t16 5.5h252q19 0 37.5 -10.5t32 -26.5t22 -35.5t8.5 -37.5v-336h-200z" />
    </font>
</defs>
</svg>
