<?xml version="1.0" standalone="no"?>
<!DOCTYPE svg PUBLIC "-//W3C//DTD SVG 1.1//EN" "http://www.w3.org/Graphics/SVG/1.1/DTD/svg11.dtd" >
<svg xmlns="http://www.w3.org/2000/svg" xmlns:xlink="http://www.w3.org/1999/xlink" version="1.1">
<metadata>
Created by FontForge 20170731 at Mon Nov 12 19:41:28 2012
 By Aleksey,,,
Copyright (c) 2012, Eduardo Tunni (http://www.tipo.net.ar), with Reserved Font Name 'Croissant'
</metadata>
<defs>
<font id="CroissantOne-Regular" horiz-adv-x="707" >
  <font-face 
    font-family="Croissant One"
    font-weight="400"
    font-stretch="normal"
    units-per-em="1000"
    panose-1="2 0 5 3 8 0 0 2 0 4"
    ascent="800"
    descent="-200"
    x-height="500"
    cap-height="700"
    bbox="-67 -344 1309 1071"
    underline-thickness="3"
    underline-position="-3"
    unicode-range="U+0020-FB02"
  />
<missing-glyph horiz-adv-x="300" 
 />
    <glyph glyph-name="fi" unicode="fi" horiz-adv-x="823" 
d="M271 -132h-150v577h-82v41h82v101q0 79 45 128.5t145 49.5q49 0 93.5 -18t73.5 -48l-27 -31q-43 37 -96 37q-84 0 -84 -110v-109h83q90 0 164.5 14.5t97.5 14.5q94 0 94 -81v-323q0 -27 13 -42.5t40 -15.5t62 29l18 -24q-80 -73 -160 -73q-123 0 -123 147v335
q-88 -22 -206 -22h-83v-577zM555 670q0 33 23.5 56.5t56.5 23.5t56.5 -23.5t23.5 -56.5t-23.5 -56.5t-56.5 -23.5t-56.5 23.5t-23.5 56.5z" />
    <glyph glyph-name="fl" unicode="fl" horiz-adv-x="798" 
d="M39 445v41h82v101q0 79 45 128.5t145 49.5q79 0 140 -43q61 43 140 43q38 0 66 -17.5t28 -43.5v-593q0 -27 13 -42.5t40 -15.5t62 29l18 -24q-80 -73 -160 -73q-123 0 -123 147v585q-50 -13 -84 -49q-43 37 -96 37q-84 0 -84 -110v-109h113v-41h-113v-577h-150v577h-82z
" />
    <glyph glyph-name=".notdef" horiz-adv-x="300" 
 />
    <glyph glyph-name=".null" horiz-adv-x="0" 
 />
    <glyph glyph-name="nonmarkingreturn" horiz-adv-x="333" 
 />
    <glyph glyph-name="space" unicode=" " horiz-adv-x="300" 
 />
    <glyph glyph-name="exclam" unicode="!" horiz-adv-x="358" 
d="M102 62q0 32 22.5 54.5t54.5 22.5t54.5 -22.5t22.5 -54.5t-22.5 -54.5t-54.5 -22.5t-54.5 22.5t-22.5 54.5zM108.5 538q-8.5 69 -8.5 100.5t21.5 54t57.5 22.5t57.5 -22.5t21.5 -54t-8.5 -100.5t-22.5 -169.5t-21 -165.5h-54q-7 65 -21 165.5t-22.5 169.5z" />
    <glyph glyph-name="quotedbl" unicode="&#x22;" horiz-adv-x="512" 
d="M92.5 646.5q-7.5 35.5 -7.5 57t19 41.5t52 20t52 -20t19 -41.5t-7.5 -57t-20.5 -88.5t-19 -83h-48q-6 30 -19 83t-20.5 88.5zM292.5 646.5q-7.5 35.5 -7.5 57t19 41.5t52 20t52 -20t19 -41.5t-7.5 -57t-20.5 -88.5t-19 -83h-48q-6 30 -19 83t-20.5 88.5z" />
    <glyph glyph-name="numbersign" unicode="#" horiz-adv-x="742" 
d="M114 420l18 60h130l69 220h60l-69 -220h180l69 220h60l-69 -220h130l-19 -60h-130l-44 -140h130l-19 -60h-130l-69 -220h-60l69 220h-180l-69 -220h-60l69 220h-130l19 60h130l44 140h-129zM303 420l-44 -140h180l44 140h-180z" />
    <glyph glyph-name="dollar" unicode="$" horiz-adv-x="650" 
d="M330 800v-85q81 0 146.5 -37.5t65.5 -103.5q0 -30 -21 -51t-51 -21t-51 21.5t-21 48t14 45.5t37 26q-48 25 -119 25v-245l91 -48q145 -76 145 -200q0 -91 -66.5 -139t-169.5 -51v-85h-30v86q-87 4 -151.5 46t-64.5 114q0 30 21 51t51 21t51 -21.5t21 -51t-19.5 -49.5
t-47.5 -22q46 -38 139 -42v246l-75 40q-128 69 -128 197q0 76 50.5 132.5t152.5 65.5v87h30zM446 138q0 61 -73 101l-43 23v-230q54 4 85 32.5t31 73.5zM220 563q0 -84 80 -124v225q-40 -10 -60 -39t-20 -62z" />
    <glyph glyph-name="percent" unicode="%" horiz-adv-x="1044" 
d="M737 700l-390 -700h-40l390 700h40zM134 645q44 64 117 64t117.5 -64t44.5 -158.5t-44.5 -157.5t-117.5 -63t-117 63.5t-44 157.5t44 158zM299 620.5q-16 51.5 -47.5 51.5t-47.5 -51.5t-16 -133.5t16 -133t47.5 -51t47.5 51t16 133t-16 133.5zM675 370q44 64 117 64
t117.5 -64t44.5 -158.5t-44.5 -157.5t-117.5 -63t-117 63.5t-44 157.5t44 158zM840 345.5q-16 51.5 -47.5 51.5t-47.5 -51.5t-16 -133.5t16 -133t47.5 -51t47.5 51t16 133t-16 133.5z" />
    <glyph glyph-name="ampersand" unicode="&#x26;" horiz-adv-x="637" 
d="M69.5 30q-39.5 45 -39.5 120t46 127t131 52h12q-71 142 -71 216q0 170 224 170q70 0 132 -32t62 -76q0 -17 -11 -39l-48 -92l-35 11v84q0 45 -30.5 71t-74.5 26t-67.5 -22.5t-23.5 -52.5q0 -41 42 -125q11 -22 18.5 -38t23.5 -47.5t27 -53.5h168v-45h-146l91 -186
q22 -45 58 -45t71 29l18 -24q-80 -73 -170 -73q-48 0 -81 24t-70 104q-15 -57 -55 -92.5t-101 -35.5t-100.5 45zM168 173q0 -51 15 -84t47 -33t49.5 32t18.5 83l-56 113h-4q-35 0 -52.5 -30t-17.5 -81z" />
    <glyph glyph-name="quotesingle" unicode="'" horiz-adv-x="312" 
d="M92.5 646.5q-7.5 35.5 -7.5 57t19 41.5t52 20t52 -20t19 -41.5t-7.5 -57t-20.5 -88.5t-19 -83h-48q-6 30 -19 83t-20.5 88.5z" />
    <glyph glyph-name="parenleft" unicode="(" horiz-adv-x="414" 
d="M205 351q0 -159 49.5 -254t143.5 -121v-23q-154 0 -246 100.5t-92 297.5t92 297.5t246 100.5v-23q-94 -26 -143.5 -121t-49.5 -254z" />
    <glyph glyph-name="parenright" unicode=")" horiz-adv-x="414" 
d="M209 351q0 159 -49.5 254t-143.5 121v23q154 0 246 -100.5t92 -297.5t-92 -297.5t-246 -100.5v23q94 26 143.5 121t49.5 254z" />
    <glyph glyph-name="asterisk" unicode="*" horiz-adv-x="577" 
d="M262 562q-42 109 -42 133.5t18.5 47t50.5 22.5t50.5 -22.5t18.5 -51.5q0 -16 -19.5 -67t-23.5 -63l7 -5q14 10 34.5 26t31.5 24.5t25 17.5q26 17 48 17t44 -18t22 -51.5t-26 -51.5t-64 -18l-98 3l-3 -8q14 -10 40.5 -27.5t37 -25t24.5 -20.5q24 -22 24 -49.5t-19 -48.5
t-40 -21t-31.5 2.5t-19.5 11.5t-14 15t-12 24t-10 28q-9 30 -23 79h-9q-5 -16 -12 -41t-10.5 -36.5t-9.5 -28.5t-11.5 -24t-14.5 -15q-14 -15 -43 -15t-48 21t-19 41t4.5 32t18.5 25t23.5 20.5t36.5 25t41 27.5l-3 9l-97 -3q-38 0 -64 17.5t-26 51t22 51.5t49 18
q20 0 39 -13t29 -20.5t31 -24t34 -26.5z" />
    <glyph glyph-name="plus" unicode="+" horiz-adv-x="560" 
d="M90 320v60h160v160h60v-160h160v-60h-160v-160h-60v160h-160z" />
    <glyph glyph-name="comma" unicode="," horiz-adv-x="274" 
d="M67 -144q44 51 44 88.5t-25.5 59t-25.5 56t22.5 57t55 22.5t54.5 -25t22 -68q0 -112 -120 -215z" />
    <glyph glyph-name="hyphen" unicode="-" horiz-adv-x="400" 
d="M50 252v60h300v-60h-300z" />
    <glyph glyph-name="period" unicode="." horiz-adv-x="274" 
d="M60 62q0 32 22.5 54.5t54.5 22.5t54.5 -22.5t22.5 -54.5t-22.5 -54.5t-54.5 -22.5t-54.5 22.5t-22.5 54.5z" />
    <glyph glyph-name="slash" unicode="/" horiz-adv-x="410" 
d="M380 700l-260 -700h-90l260 700h90z" />
    <glyph glyph-name="zero" unicode="0" horiz-adv-x="600" 
d="M109 609.5q73 105.5 191 105.5t191 -105.5t73 -260.5t-73 -259.5t-191 -104.5t-191 105t-73 259.5t73 260zM300 674q-58 0 -88.5 -91.5t-30.5 -233t30.5 -232.5t88.5 -91t88.5 91t30.5 232.5t-30.5 233t-88.5 91.5z" />
    <glyph glyph-name="one" unicode="1" horiz-adv-x="472" 
d="M342 700v-660h130v-40h-430v40h150v537q-93 -39 -192 -39v40q92 0 171.5 34t126.5 88h44z" />
    <glyph glyph-name="two" unicode="2" horiz-adv-x="600" 
d="M466 0h-424v40l235 238q103 104 103 220q0 71 -40.5 118t-102.5 47q-45 0 -79 -14q23 -8 38 -28.5t15 -49.5t-24 -53t-57 -24t-56 23.5t-23 56.5q0 64 67.5 102.5t168.5 38.5t166 -53.5t65 -131.5q0 -60 -38 -112t-141 -150l-183 -176h166q64 0 93 18t39 64l7 36h39
l27 -168q0 -20 -9 -29.5t-19.5 -11t-32.5 -1.5z" />
    <glyph glyph-name="three" unicode="3" horiz-adv-x="600" 
d="M211 620.5q15 -20.5 15 -49.5t-23.5 -53t-56.5 -24t-56.5 23.5t-23.5 56.5q0 65 69.5 103t171.5 38t164 -53.5t62 -131.5q0 -58 -37 -104.5t-102 -71.5q70 -23 109.5 -67t39.5 -97q0 -87 -73.5 -146t-191.5 -59q-89 0 -155.5 37.5t-66.5 103.5q0 33 23.5 56.5t56.5 23.5
t56.5 -24t23.5 -53.5t-16.5 -51t-41.5 -28.5q27 -12 64 -12q81 0 123.5 45.5t42.5 106t-40 102.5t-116 42h-54v42h69q74 0 112.5 46t38.5 104.5t-37.5 98t-108.5 39.5q-45 0 -79 -14q23 -8 38 -28.5z" />
    <glyph glyph-name="four" unicode="4" horiz-adv-x="600" 
d="M349 700q0 -141 -81.5 -274.5t-187.5 -216.5h244v201q85 36 106 105h44v-306h60v-50h-60v-119h120v-40h-400v40h130v119h-307v50q97 91 131 241q27 121 31 250h170z" />
    <glyph glyph-name="five" unicode="5" horiz-adv-x="600" 
d="M456 700q22 0 32.5 -1.5t19.5 -11t9 -29.5l-27 -168h-39l-9 46q-10 46 -39 64t-93 18h-136l-16 -223q55 20 104 20q128 0 207 -62t79 -153t-73.5 -153t-191.5 -62q-89 0 -155.5 37.5t-66.5 103.5q0 33 23.5 56.5t56.5 23.5t56.5 -24t23.5 -53.5t-16.5 -51t-41.5 -28.5
q27 -12 64 -12q81 0 123.5 48.5t42.5 115t-42.5 114.5t-114.5 48t-113 -28l-25 29l23 336h335z" />
    <glyph glyph-name="six" unicode="6" horiz-adv-x="600" 
d="M389.5 508q-23.5 24 -23.5 53.5t16.5 51t42.5 28.5q-34 34 -87 34q-139 0 -142 -317q43 67 135.5 67t154 -63t61.5 -155t-66 -157t-177 -65q-245 0 -245 354q0 170 77 273t201 103q87 0 138 -48t51 -103q0 -33 -23.5 -56.5t-56.5 -23.5t-56.5 24zM385 325.5
q-27 48.5 -80.5 48.5t-82 -45.5t-28.5 -121.5t28 -128.5t80.5 -52.5t81 49t28.5 125.5t-27 125z" />
    <glyph glyph-name="seven" unicode="7" horiz-adv-x="518" 
d="M308.5 132.5q14.5 -48.5 14.5 -74.5t-23.5 -49.5t-57.5 -23.5t-56.5 27t-22.5 66t9.5 86.5t32 115t71 149.5t115.5 155l31 34h-185q-64 0 -93 -18t-39 -64l-9 -46h-39l-27 168q0 20 9 29.5t19.5 11t32.5 1.5h414v-40q-211 -239 -211 -435q0 -44 14.5 -92.5z" />
    <glyph glyph-name="eight" unicode="8" horiz-adv-x="600" 
d="M519 616.5q22 -37.5 22 -90t-36 -99.5t-95 -72q68 -24 109.5 -71.5t41.5 -103.5q0 -96 -77 -145.5t-184 -49.5q-95 0 -174 43q-39 22 -63 61.5t-24 92.5t41.5 101t108.5 72q-58 25 -94 72t-36 106.5t37 102.5q67 79 204 79q88 0 160 -41q37 -20 59 -57.5zM411 170
q0 114 -131 155q-91 -42 -91 -155q0 -61 30.5 -102t81 -41t80.5 41t30 102zM406 540q0 52 -28 92.5t-78.5 40.5t-78 -39.5t-27.5 -93.5q0 -129 126 -159q86 30 86 159z" />
    <glyph glyph-name="nine" unicode="9" horiz-adv-x="600" 
d="M203 192q24 -24 24 -53.5t-15.5 -50.5t-40.5 -29q37 -34 94 -34q70 0 108 68t38 207q0 7 -0.5 26t-0.5 26q-48 -77 -154 -77q-85 0 -142.5 59t-57.5 155t66 161t177 65q127 0 186 -95t59 -262t-77 -270t-201 -103q-84 0 -141.5 41t-57.5 110q0 33 23 56.5t56 23.5t57 -24
zM218 374.5q27 -48.5 80.5 -48.5t82 45.5t28.5 121.5t-28 128.5t-80.5 52.5t-81 -49t-28.5 -125.5t27 -125z" />
    <glyph glyph-name="colon" unicode=":" horiz-adv-x="274" 
d="M60 62q0 32 22.5 54.5t54.5 22.5t54.5 -22.5t22.5 -54.5t-22.5 -54.5t-54.5 -22.5t-54.5 22.5t-22.5 54.5zM60 422q0 32 22.5 54.5t54.5 22.5t54.5 -22.5t22.5 -54.5t-22.5 -54.5t-54.5 -22.5t-54.5 22.5t-22.5 54.5z" />
    <glyph glyph-name="semicolon" unicode=";" horiz-adv-x="274" 
d="M67 -144q44 51 44 88.5t-25.5 59t-25.5 56t22.5 57t55 22.5t54.5 -25t22 -68q0 -112 -120 -215zM60 422q0 32 22.5 54.5t54.5 22.5t54.5 -22.5t22.5 -54.5t-22.5 -54.5t-54.5 -22.5t-54.5 22.5t-22.5 54.5z" />
    <glyph glyph-name="less" unicode="&#x3c;" horiz-adv-x="560" 
d="M90 320v60l380 160v-60l-309 -130l309 -130v-60z" />
    <glyph glyph-name="equal" unicode="=" horiz-adv-x="560" 
d="M90 220v60h380v-60h-380zM90 420v60h380v-60h-380z" />
    <glyph glyph-name="greater" unicode="&#x3e;" horiz-adv-x="560" 
d="M470 380v-60l-380 -160v60l309 130l-309 130v60z" />
    <glyph glyph-name="question" unicode="?" horiz-adv-x="527" 
d="M309 411.5q33 48.5 33 107.5t-35 101.5t-101 42.5q-32 0 -57 -11q27 -7 44 -28.5t17 -51.5t-24 -54t-57 -24t-56 23.5t-23 56.5q0 67 63.5 104t154 37t150 -53.5t59.5 -130.5t-52 -134.5t-142 -77.5l-14 -116h-54l-17 146q78 14 111 62.5zM165 62q0 32 22.5 54.5
t54.5 22.5t54.5 -22.5t22.5 -54.5t-22.5 -54.5t-54.5 -22.5t-54.5 22.5t-22.5 54.5z" />
    <glyph glyph-name="at" unicode="@" horiz-adv-x="1054" 
d="M527 -198q-90 0 -173 35.5t-143 95.5t-95.5 143t-35.5 173t35.5 173t95.5 143t143 95.5t173 35.5t173 -35.5t143 -95.5t95.5 -143t35.5 -159.5t-19.5 -126.5t-51.5 -80q-65 -59 -145 -59q-51 0 -91 25.5t-52 70.5h-10q-52 -71 -137 -71t-133.5 65.5t-48.5 162.5
t55.5 161.5t154.5 64.5q71 0 112 -46l24 35h108v-322q0 -41 16.5 -63t46.5 -22q44 0 82 50.5t38 140.5q0 163 -116.5 279.5t-279.5 116.5t-279.5 -116.5t-116.5 -279.5t116.5 -279.5t279.5 -116.5q108 0 201 55l23 -44q-105 -62 -224 -62zM429 250q0 -76 21.5 -121t65.5 -45
q25 0 47.5 15t33.5 40v229q-11 22 -34 34.5t-47 12.5q-44 0 -65.5 -44.5t-21.5 -120.5z" />
    <glyph glyph-name="A" unicode="A" horiz-adv-x="656" 
d="M169 660v40h238l199 -660h50v-40h-258v40h58l-37 123h-272l-36 -123h58v-40h-169v40h50l187 620h-68zM282 617l-121 -409h244z" />
    <glyph glyph-name="B" unicode="B" horiz-adv-x="708" 
d="M70 660v40h240q313 0 313 -190q0 -132 -155 -172v-7q185 -28 185 -152q0 -90 -82 -134.5t-231 -44.5h-270v40h60v620h-60zM330 313h-50v-273h50q72 0 120 36t48 100.5t-48 100.5t-120 36zM309 660h-29v-309h29q71 0 117.5 42t46.5 115t-46.5 112.5t-117.5 39.5z" />
    <glyph glyph-name="C" unicode="C" horiz-adv-x="650" 
d="M382 668q-87 0 -132 -89.5t-45 -223.5t47.5 -219t136.5 -85q50 0 92 21t63.5 44t45.5 58l35 -25q-48 -77 -107.5 -120.5t-152.5 -43.5q-139 0 -227 105t-88 261t88 260t244 104q81 0 156 -32t75 -76q0 -17 -11 -39l-60 -116l-36 11l9 62q4 24 4 46q0 39 -38 68t-99 29z
" />
    <glyph glyph-name="D" unicode="D" horiz-adv-x="782" 
d="M70 700h270q180 0 291 -97.5t111 -252t-111 -252.5t-291 -98h-270v40h80v620h-80v40zM340 660h-40v-620h40q116 0 181.5 83.5t65.5 226.5t-65.5 226.5t-181.5 83.5z" />
    <glyph glyph-name="E" unicode="E" horiz-adv-x="630" 
d="M519 0h-449v40h60v620h-60v40h429q22 0 32.5 -1.5t19.5 -11t9 -29.5l-27 -168h-39l-20 99q-9 45 -33.5 58t-90.5 13h-70v-342h230v-45h-230v-233h90q65 0 89.5 13t34.5 58l20 89h39l27 -158q0 -20 -9 -29.5t-19.5 -11t-32.5 -1.5z" />
    <glyph glyph-name="F" unicode="F" horiz-adv-x="570" 
d="M350 660h-70v-342h210v-45h-210v-233h110v-40h-320v40h60v620h-60v40h429q22 0 32.5 -1.5t19.5 -11t9 -29.5l-27 -168h-39l-20 99q-9 45 -33.5 58t-90.5 13z" />
    <glyph glyph-name="G" unicode="G" horiz-adv-x="700" 
d="M350 273v45h285v-340q0 -110 -66 -162.5t-178 -52.5q-66 0 -126.5 33.5t-60.5 91.5q0 11 7 32l34 88q-88 39 -141.5 132t-53.5 209q0 158 90.5 262t251.5 104q81 0 156 -32t75 -76q0 -17 -11 -39l-56 -92l-36 12l5 37q4 24 4 46q0 39 -38 68t-99 29q-92 0 -139.5 -89.5
t-47.5 -224t51.5 -219t150.5 -84.5q40 0 78 16v206h-135zM355 -15q-35 0 -67 9v-31q0 -114 48 -141q22 -12 60.5 -12t63.5 27.5t25 82.5v91q-60 -26 -130 -26z" />
    <glyph glyph-name="H" unicode="H" horiz-adv-x="810" 
d="M680 660v-620h60v-40h-270v40h60v233h-250v-233h60v-40h-270v40h60v620h-60v40h270v-40h-60v-342h250v342h-60v40h270v-40h-60z" />
    <glyph glyph-name="I" unicode="I" horiz-adv-x="410" 
d="M60 660v40h290v-40h-70v-620h70v-40h-290v40h70v620h-70z" />
    <glyph glyph-name="J" unicode="J" horiz-adv-x="535" 
d="M415 660v-470q0 -105 -63.5 -155t-170.5 -50q-61 0 -116 32t-55 76q0 17 11 39l60 116l36 -11l-9 -62q-4 -35 -4 -66t21.5 -54t58 -23t59 25t22.5 75v528h-95v40h305v-40h-60z" />
    <glyph glyph-name="K" unicode="K" horiz-adv-x="685" 
d="M70 660v40h270v-40h-60v-305l213 345h159v-40h-55l-290 -325h65q128 0 157 -97l42 -140q7 -25 18 -35t37 -10t61 29l18 -24q-80 -73 -170 -73q-46 0 -74 16t-40 56l-59 194q-8 28 -25 39t-57 13v-263h60v-40h-270v40h60v620h-60z" />
    <glyph glyph-name="L" unicode="L" horiz-adv-x="570" 
d="M70 660v40h270v-40h-60v-620h70q66 0 90.5 13t33.5 58l20 99h39l27 -168q0 -20 -9 -29.5t-19.5 -11t-32.5 -1.5h-429v40h60v620h-60z" />
    <glyph glyph-name="M" unicode="M" horiz-adv-x="908" 
d="M48 660v40h221l182 -599l172 599h227v-40h-68l36 -620h60v-40h-268v40h57l-31 495l-154 -535h-151l-163 534l-28 -494h58v-40h-178v40h60l35 620h-67z" />
    <glyph glyph-name="N" unicode="N" horiz-adv-x="770" 
d="M60 0v40h60v620h-60v40h234l286 -563v523h-60v40h190v-40h-60v-660h-159l-301 592v-552h60v-40h-190z" />
    <glyph glyph-name="O" unicode="O" horiz-adv-x="768" 
d="M136.5 611.5q86.5 103.5 247 103.5t247.5 -103t87 -262.5t-87 -262t-247.5 -102.5t-247 102.5t-86.5 261.5t86.5 262.5zM384 668q-59 0 -100 -46q-79 -86 -79 -273q0 -186 79 -271q42 -46 100 -46q86 0 132.5 92t46.5 225.5t-46.5 226t-132.5 92.5z" />
    <glyph glyph-name="P" unicode="P" horiz-adv-x="658" 
d="M70 660v40h220q246 0 308 -118q25 -46 25 -112t-24.5 -112t-71.5 -71q-88 -47 -237 -47h-10v-200h80v-40h-290v40h60v620h-60zM290 660h-10v-380h10q79 0 131 50t52 140t-52 140t-131 50z" />
    <glyph glyph-name="Q" unicode="Q" horiz-adv-x="768" 
d="M136.5 611.5q86.5 103.5 247 103.5t247.5 -103t87 -263q0 -130 -59.5 -224.5t-170.5 -125.5l13 -70q10 -58 60 -58q27 0 70 39l27 -24q-23 -26 -40 -41t-45.5 -28.5t-58.5 -13.5q-122 0 -149 147l-7 36q-148 9 -228 110t-80 256.5t86.5 259zM384 668q-59 0 -100 -46
q-79 -86 -79 -273q0 -74 13 -133q54 45 115 45q107 0 134 -147l8 -45q43 40 65.5 115t22.5 165q0 134 -46.5 226.5t-132.5 92.5zM274 193q-21 0 -45 -18q38 -116 120 -139l-18 99q-4 27 -20 42.5t-37 15.5z" />
    <glyph glyph-name="R" unicode="R" horiz-adv-x="695" 
d="M70 660v40h220q243 0 308 -112q25 -44 25 -107q0 -146 -166 -196q63 -21 84 -87l30 -100q7 -25 18 -35t37 -10t61 29l18 -24q-80 -73 -170 -73q-46 0 -74 16t-40 56l-47 154q-9 29 -28 40t-66 12v-223h80v-40h-290v40h60v620h-60zM290 660h-10v-357h10q79 0 131 46.5
t52 131.5t-52 132t-131 47z" />
    <glyph glyph-name="S" unicode="S" horiz-adv-x="570" 
d="M139 129q0 -39 38 -68t98 -29t95 29t35 77q0 61 -73 101l-148 79q-128 69 -128 197q0 82 60 141t179 59q80 0 152 -32t72 -76q0 -17 -11 -39l-48 -92l-35 11v84q0 45 -39.5 71t-94 26t-83.5 -32t-29 -73q0 -82 74 -121l127 -67q145 -76 145 -200q0 -94 -70.5 -142
t-178.5 -48q-81 0 -156 32t-75 76q0 17 11 39l48 92l35 -11v-84z" />
    <glyph glyph-name="T" unicode="T" horiz-adv-x="620" 
d="M395 660h-10v-620h100v-40h-350v40h100v620h-10q-66 0 -90.5 -13t-33.5 -58l-20 -99h-39l-27 168q0 20 9 29.5t19.5 11t32.5 1.5h468q22 0 32.5 -1.5t19.5 -11t9 -29.5l-27 -168h-39l-20 99q-9 45 -33.5 58t-90.5 13z" />
    <glyph glyph-name="U" unicode="U" horiz-adv-x="700" 
d="M485 660v40h190v-40h-60v-419q0 -72 -21.5 -124t-59.5 -80q-71 -52 -177 -52t-179 53q-39 27 -61 79t-22 125v418h-60v40h270v-40h-60v-450q0 -78 42 -120t103.5 -42t108 42.5t46.5 119.5v450h-60z" />
    <glyph glyph-name="V" unicode="V" horiz-adv-x="685" 
d="M25 660v40h211l35 -535q7 -102 93 -102q64 0 111 48q92 94 92 279q0 103 -36 183q-18 40 -47 52.5t-77 12.5h-38l-6 37l104 35q17 5 30 5t22 -4q36 -15 71 -91.5t35 -205.5q0 -166 -71 -293q-34 -62 -92.5 -99t-133.5 -37q-110 0 -157.5 59t-55.5 181l-28 435h-62z" />
    <glyph glyph-name="W" unicode="W" horiz-adv-x="1057" 
d="M25 660v40h211l35 -535q7 -102 93 -102q93 0 148 110q-3 16 -5 52l-28 435h-62v40h211l35 -535q7 -102 93 -102q57 0 100 48q83 94 83 279q0 103 -36 183q-18 40 -47 52.5t-77 12.5h-38l-6 37l104 35q17 5 30 5t22 -4q36 -15 71 -91.5t35 -205.5q0 -168 -65 -293
q-33 -62 -87.5 -99t-124.5 -37q-145 0 -189 112q-76 -112 -203 -112q-110 0 -157.5 59t-55.5 181l-28 435h-62z" />
    <glyph glyph-name="X" unicode="X" horiz-adv-x="696" 
d="M35 0v40h50l190 281l-177 339h-53v40h199l132 -252l117 252h154v-40h-50l-187 -277l150 -285q13 -26 25.5 -35.5t30.5 -9.5q34 0 63 29l22 -24q-62 -73 -155 -73q-47 0 -79 15.5t-53 56.5l-106 201l-119 -258h-154z" />
    <glyph glyph-name="Y" unicode="Y" horiz-adv-x="607" 
d="M135 0v40h100v210l-182 410h-48v40h198l158 -392l90 392h151v-40h-47l-170 -410v-210h100v-40h-350z" />
    <glyph glyph-name="Z" unicode="Z" horiz-adv-x="590" 
d="M499 0h-469v40l363 620h-133q-66 0 -90.5 -13t-33.5 -58l-20 -99h-39l-27 168q0 20 9 29.5t19.5 11t32.5 1.5h444v-40l-356 -620h151q65 0 89.5 13t34.5 58l20 89h39l27 -158q0 -20 -9 -29.5t-19.5 -11t-32.5 -1.5z" />
    <glyph glyph-name="bracketleft" unicode="[" horiz-adv-x="434" 
d="M275 604v-508q0 -53 29 -74.5t94 -21.5l6 -23q-62 -27 -127.5 -27t-106 31.5t-40.5 92.5v552q0 61 40.5 92.5t106 31.5t127.5 -27l-6 -23q-65 0 -94 -21.5t-29 -74.5z" />
    <glyph glyph-name="backslash" unicode="\" horiz-adv-x="410" 
d="M290 0l-260 700h90l260 -700h-90z" />
    <glyph glyph-name="bracketright" unicode="]" horiz-adv-x="434" 
d="M159 96v508q0 53 -29 74.5t-94 21.5l-6 23q62 27 127.5 27t106 -31.5t40.5 -92.5v-552q0 -61 -40.5 -92.5t-106 -31.5t-127.5 27l6 23q65 0 94 21.5t29 74.5z" />
    <glyph glyph-name="asciicircum" unicode="^" horiz-adv-x="560" 
d="M245 700h70l150 -260h-65l-120 209l-120 -209h-65z" />
    <glyph glyph-name="underscore" unicode="_" horiz-adv-x="594" 
d="M75 -60v60h444v-60h-444z" />
    <glyph glyph-name="grave" unicode="`" horiz-adv-x="371" 
d="M43.5 750.5q16.5 14.5 36 14.5t33 -7t22 -15.5t25.5 -27.5l119 -132l-21 -24l-148 73q-47 23 -65 40.5t-18 40.5t16.5 37.5z" />
    <glyph glyph-name="a" unicode="a" horiz-adv-x="710" 
d="M597 500v-389q0 -27 13 -42.5t40 -15.5t62 29l18 -24q-80 -73 -160 -73q-95 0 -117 89q-52 -89 -153 -89q-115 0 -175 74.5t-60 190t64.5 190.5t180.5 75q89 0 137 -71v56h150zM220 250q0 -96 28 -152t85.5 -56t88 56.5t30.5 151.5t-30.5 151.5t-88 56.5t-85.5 -56
t-28 -152z" />
    <glyph glyph-name="b" unicode="b" horiz-adv-x="708" 
d="M261 704v-268q53 79 147 79q115 0 175 -74.5t60 -190t-64.5 -190.5t-180.5 -75q-89 0 -137 71v-56h-150v717q-55 -14 -84 -49l-27 31q29 30 73.5 48t88 18t71.5 -17.5t28 -43.5zM488 250q0 96 -28 152t-85.5 56t-88 -56.5t-30.5 -151.5t30.5 -151.5t88 -56.5t85.5 56
t28 152z" />
    <glyph glyph-name="c" unicode="c" horiz-adv-x="562" 
d="M331 -15q-119 0 -192.5 76.5t-73.5 188.5t73.5 188.5t191.5 76.5q66 0 129 -38t63 -103q0 -33 -23.5 -56.5t-56.5 -23.5t-56.5 23.5t-23.5 53.5t16 51t42 29q-28 12 -64 12q-67 0 -101.5 -59.5t-34.5 -151t34.5 -148.5t101.5 -57q90 0 153 75l28 -18q-33 -54 -86.5 -86.5
t-119.5 -32.5z" />
    <glyph glyph-name="d" unicode="d" horiz-adv-x="710" 
d="M597 704v-593q0 -27 13 -42.5t37.5 -15.5t59.5 29l23 -24q-80 -73 -160 -73q-95 0 -117 89q-52 -89 -153 -89q-115 0 -175 74.5t-60 190t64.5 190.5t180.5 75q89 0 137 -71v273q-55 -14 -84 -49l-27 31q29 30 73.5 48t88 18t71.5 -17.5t28 -43.5zM220 250q0 -96 28 -152
t85.5 -56t88 56.5t30.5 151.5t-30.5 151.5t-88 56.5t-85.5 -56t-28 -152z" />
    <glyph glyph-name="e" unicode="e" horiz-adv-x="597" 
d="M374.5 280.5q35.5 43.5 35.5 88t-19.5 68.5t-59 24t-75.5 -56t-36 -150t34 -151t97 -57q96 0 163 75l28 -18q-34 -54 -90 -86.5t-126 -32.5q-119 0 -190 78.5t-71 189.5t75.5 186.5t209.5 75.5q88 0 138 -41t50 -104t-55.5 -116.5t-146.5 -53.5q-31 0 -60 7l-2 24
q65 6 100.5 49.5z" />
    <glyph glyph-name="f" unicode="f" horiz-adv-x="424" 
d="M39 445v41h82v101q0 79 45 128.5t145 49.5q49 0 93.5 -18t73.5 -48l-27 -31q-43 37 -96 37q-84 0 -84 -110v-109h113v-41h-113v-577h-150v577h-82z" />
    <glyph glyph-name="g" unicode="g" horiz-adv-x="620" 
d="M419 -132h-185q-147 0 -147 123q0 67 74 151q-81 59 -81 163q0 89 65 149.5t170 60.5q76 0 135 -35q43 39 59 102l39 -10q-18 -70 -66 -116q68 -62 68 -151t-65 -149.5t-170 -60.5q-72 0 -125 29q-35 -49 -35 -74q0 -50 58 -50h185q147 0 147 -108q0 -77 -73 -157l-24 23
q29 35 29 59.5t-15.5 37.5t-42.5 13zM235 305q0 -74 20.5 -121t60.5 -47t60.5 47t20.5 121t-20.5 121t-60.5 47t-60.5 -47t-20.5 -121z" />
    <glyph glyph-name="h" unicode="h" horiz-adv-x="694" 
d="M261 704v-257q35 38 75.5 53t103 15t102 -39.5t39.5 -107.5v-257q0 -27 13 -42.5t40 -15.5t62 29l18 -24q-80 -73 -160 -73q-123 0 -123 147v257q0 31 -19 48t-53 17t-66 -28t-32 -73v-353h-150v717q-55 -14 -84 -49l-27 31q29 30 73.5 48t88 18t71.5 -17.5t28 -43.5z
" />
    <glyph glyph-name="i" unicode="i" horiz-adv-x="399" 
d="M131 670q0 33 23.5 56.5t56.5 23.5t56.5 -23.5t23.5 -56.5t-23.5 -56.5t-56.5 -23.5t-56.5 23.5t-23.5 56.5zM192 515q94 0 94 -81v-323q0 -27 13 -42.5t40 -15.5t62 29l18 -24q-80 -73 -160 -73q-123 0 -123 147v335q-55 -14 -84 -49l-27 31q29 30 73.5 48t93.5 18z" />
    <glyph glyph-name="j" unicode="j" horiz-adv-x="383" 
d="M290 454v-541q0 -79 -45 -128.5t-145 -49.5q-49 0 -93.5 18t-73.5 48l22 31q43 -37 101 -37q84 0 84 110v562q-55 -14 -84 -49l-27 31q29 30 73.5 48t88 18t71.5 -17.5t28 -43.5zM135 670q0 33 23.5 56.5t56.5 23.5t56.5 -23.5t23.5 -56.5t-23.5 -56.5t-56.5 -23.5
t-56.5 23.5t-23.5 56.5z" />
    <glyph glyph-name="k" unicode="k" horiz-adv-x="647" 
d="M261 704v-259q54 70 166 70q64 0 104 -32t40 -80.5t-29 -86.5t-79 -62l60 -156q10 -26 20 -35.5t28 -9.5q33 0 68 29l18 -24q-80 -73 -165.5 -73t-113.5 72l-75 192q55 13 91.5 54t36.5 79t-19 55t-48 17q-48 0 -75.5 -38.5t-27.5 -105.5v-310h-150v717q-55 -14 -84 -49
l-27 31q29 30 73.5 48t88 18t71.5 -17.5t28 -43.5z" />
    <glyph glyph-name="l" unicode="l" horiz-adv-x="374" 
d="M73.5 747q44.5 18 88 18t71.5 -17.5t28 -43.5v-593q0 -27 13 -42.5t40 -15.5t62 29l18 -24q-80 -73 -160 -73q-123 0 -123 147v585q-55 -14 -84 -49l-27 31q29 30 73.5 48z" />
    <glyph glyph-name="m" unicode="m" horiz-adv-x="1007" 
d="M30 482q43 18 92.5 18t82 -12t67.5 -38q36 36 73.5 50.5t88.5 14.5q102 0 136 -78q39 43 78.5 60.5t103 17.5t103 -39.5t39.5 -107.5v-257q0 -27 13 -42.5t40 -15.5t62 29l18 -24q-80 -73 -160 -73q-123 0 -123 147v257q0 31 -18 48t-49.5 17t-62 -27t-30.5 -70v-357
h-150v389q0 31 -18 48t-49.5 17t-62 -27t-30.5 -70v-357h-150v460q-45 0 -80 -15z" />
    <glyph glyph-name="n" unicode="n" 
d="M124 500q82 0 148 -50q38 36 78 50.5t102.5 14.5t102 -39.5t39.5 -107.5v-257q0 -27 13 -42.5t40 -15.5t62 29l18 -24q-80 -73 -160 -73q-123 0 -123 147v257q0 31 -19 48t-52.5 17t-66 -27t-32.5 -70v-357h-150v460q-45 0 -80 -15l-14 37q43 18 94 18z" />
    <glyph glyph-name="o" unicode="o" horiz-adv-x="660" 
d="M65 250q0 112 73.5 188.5t191.5 76.5t191.5 -76.5t73.5 -188.5t-73.5 -188.5t-191.5 -76.5t-191.5 76.5t-73.5 188.5zM220 250q0 -98 28 -160.5t83 -62.5t83 62.5t28 160.5t-28 160.5t-83 62.5t-83 -62.5t-28 -160.5z" />
    <glyph glyph-name="p" unicode="p" horiz-adv-x="721" 
d="M124 500q92 0 159 -51q53 66 138 66q115 0 175 -74.5t60 -190t-64.5 -190.5t-180.5 -75q-86 0 -137 77v-312h-150v710q-45 0 -80 -15l-14 37q43 18 94 18zM501 250q0 96 -28 152t-85.5 56t-88 -56.5t-30.5 -151.5t30.5 -151.5t88 -56.5t85.5 56t28 152z" />
    <glyph glyph-name="q" unicode="q" horiz-adv-x="697" 
d="M597 -250h-150v314q-53 -79 -147 -79q-115 0 -175 74.5t-60 190t64.5 190.5t180.5 75q89 0 137 -71v56h150v-750zM220 250q0 -96 28 -152t85.5 -56t88 56.5t30.5 151.5t-30.5 151.5t-88 56.5t-85.5 -56t-28 -152z" />
    <glyph glyph-name="r" unicode="r" horiz-adv-x="536" 
d="M393 515q30 0 30 -57v-347q0 -27 13 -42.5t40 -15.5t62 29l18 -24q-80 -73 -160 -73q-123 0 -123 147v281q-47 -19 -114 -26q-8 -92 -53 -184l-41 12q28 71 30 169q-38 0 -61.5 22t-23.5 54.5t22.5 55t55 22.5t54.5 -23t22 -59h19q79 0 168 44q29 15 42 15z" />
    <glyph glyph-name="s" unicode="s" horiz-adv-x="474" 
d="M175 418q-24 37 -24 66t22.5 51.5t54.5 22.5t54.5 -22.5t22.5 -53.5t-31 -66q82 -60 126 -117.5t44 -133t-57 -128t-162 -52.5q-48 0 -96.5 21t-73.5 52l23 24q44 -35 95 -35t83.5 27.5t32.5 85.5q0 92 -68 192l-151 -189l-25 22q76 123 130 233z" />
    <glyph glyph-name="t" unicode="t" horiz-adv-x="424" 
d="M39 445v41h82v144h150v-144h113v-41h-113v-334q0 -27 13 -42.5t40 -15.5t62 29l18 -24q-80 -73 -160 -73q-123 0 -123 147v313h-82z" />
    <glyph glyph-name="u" unicode="u" 
d="M274 454v-343q0 -31 19 -48t53 -17t66 28t32 73v353h150v-389q0 -27 13 -42.5t40 -15.5t62 29l18 -24q-80 -73 -163 -73t-110 74q-39 -41 -80.5 -57.5t-106 -16.5t-104 39.5t-39.5 107.5v335q-55 -14 -84 -49l-27 31q29 30 73.5 48t88 18t71.5 -17.5t28 -43.5z" />
    <glyph glyph-name="v" unicode="v" horiz-adv-x="619" 
d="M368 448q0 32 22.5 54.5t56.5 22.5t58.5 -25.5t34.5 -67.5q19 -73 19 -143t-17 -122t-44 -84.5t-60 -55.5q-62 -42 -123 -42q-85 0 -134.5 42.5t-49.5 124.5v315q-55 -14 -84 -49l-27 31q29 30 73.5 48t88 18t71.5 -17.5t28 -43.5v-333q0 -32 20 -48.5t50 -16.5
q63 0 109 65.5t46 160.5q0 48 -19 101q-18 -12 -46 -12t-50.5 22.5t-22.5 54.5z" />
    <glyph glyph-name="w" unicode="w" horiz-adv-x="944" 
d="M606 454v-333q0 -32 20 -48.5t50 -16.5q63 0 109 65.5t46 160.5q0 48 -19 101q-18 -12 -46 -12t-50.5 22.5t-22.5 54.5t22.5 54.5t56.5 22.5t58.5 -25.5t35.5 -67.5q18 -73 18 -143t-17 -122t-44 -84.5t-61 -55.5q-61 -42 -122 -42q-119 0 -164 78q-33 -38 -78 -58
t-83 -20q-85 0 -134.5 42.5t-49.5 124.5v315q-55 -14 -84 -49l-27 31q29 30 73.5 48t88 18t71.5 -17.5t28 -43.5v-333q0 -32 20 -48.5t50 -16.5q68 0 106 67q-1 9 -1 29v315q-55 -14 -84 -49l-27 31q29 30 73.5 48t88 18t71.5 -17.5t28 -43.5z" />
    <glyph glyph-name="x" unicode="x" horiz-adv-x="649" 
d="M53 62q0 32 22.5 54.5t52 22.5t50 -16.5t27.5 -41.5q43 42 67 117l-97 204q-13 26 -22.5 35.5t-26.5 9.5q-34 0 -67 -29l-19 24q77 73 161 73t118 -72l43 -91q27 72 70 117.5t98 45.5q32 0 54.5 -22.5t22.5 -54.5t-22.5 -54.5t-52.5 -22.5t-50.5 16t-26.5 42
q-44 -43 -68 -119l97 -202q13 -26 22.5 -35.5t26.5 -9.5q34 0 67 29l19 -24q-77 -73 -161 -73t-118 72l-43 89q-27 -72 -69 -116.5t-95 -44.5q-34 0 -57 22.5t-23 54.5z" />
    <glyph glyph-name="y" unicode="y" horiz-adv-x="627" 
d="M86.5 497q44.5 18 88 18t71.5 -17.5t28 -43.5v-303q0 -32 20 -48.5t50 -16.5q64 0 109.5 55t45.5 141q0 48 -19 101q-18 -12 -46 -12t-50.5 22.5t-22.5 54.5t22.5 54.5t56.5 22.5t58.5 -25.5t35.5 -67.5q18 -73 18 -161.5t-20.5 -177.5t-54 -153t-75.5 -111
q-86 -94 -175 -94q-24 0 -39.5 10.5t-35.5 38.5l-52 72l26 27q48 -8 84 -8q112 0 183 71t112 231q-62 -172 -228 -172q-64 0 -108.5 43.5t-44.5 123.5v295q-55 -14 -84 -49l-27 31q29 30 73.5 48z" />
    <glyph glyph-name="z" unicode="z" horiz-adv-x="620" 
d="M489 0h-414v40l308 420h-83q-66 0 -90.5 -13t-33.5 -58l-20 -99h-39l-27 168q0 20 9 29.5t19.5 11t32.5 1.5h394v-40l-301 -420h96q66 0 90.5 13t33.5 58l20 99h39l27 -168q0 -20 -9 -29.5t-19.5 -11t-32.5 -1.5z" />
    <glyph glyph-name="braceleft" unicode="{" horiz-adv-x="432" 
d="M273 214v-118q0 -53 29 -74.5t94 -21.5l6 -23q-62 -27 -127.5 -27t-106 31.5t-40.5 92.5q0 33 14.5 102t14.5 95t-9 38t-28 17q-23 6 -70 8v32q47 2 68 7q39 11 39 46.5t-14.5 104.5t-14.5 102q0 61 40.5 92.5t106 31.5t127.5 -27l-6 -23q-65 0 -94 -21.5t-29 -74.5v-118
q0 -52 -22 -89t-56 -47q34 -10 56 -47t22 -89z" />
    <glyph glyph-name="bar" unicode="|" horiz-adv-x="410" 
d="M260 800v-900h-110v900h110z" />
    <glyph glyph-name="braceright" unicode="}" horiz-adv-x="432" 
d="M159 486v118q0 53 -29 74.5t-94 21.5l-6 23q62 27 127.5 27t106 -31.5t40.5 -92.5q0 -33 -14.5 -102t-14.5 -95t9 -38t28 -17q23 -6 70 -8v-32q-47 -2 -68 -7q-39 -11 -39 -46.5t14.5 -104.5t14.5 -102q0 -61 -40.5 -92.5t-106 -31.5t-127.5 27l6 23q65 0 94 21.5
t29 74.5v118q0 52 22 89t56 47q-34 10 -56 47t-22 89z" />
    <glyph glyph-name="asciitilde" unicode="~" horiz-adv-x="560" 
d="M90 380q36 -18 76 -18t113.5 17.5t113 17.5t77.5 -17v-60q-37 19 -77 19t-114 -19t-114 -19t-75 19v60z" />
    <glyph glyph-name="nbspace" unicode="&#xa0;" horiz-adv-x="300" 
 />
    <glyph glyph-name="exclamdown" unicode="&#xa1;" horiz-adv-x="358" 
d="M102 438q0 32 22.5 54.5t54.5 22.5t54.5 -22.5t22.5 -54.5t-22.5 -54.5t-54.5 -22.5t-54.5 22.5t-22.5 54.5zM249.5 -38q8.5 -69 8.5 -100.5t-21.5 -54t-57.5 -22.5t-57.5 22.5t-21.5 54t8.5 100.5t22.5 169.5t21 165.5h54q7 -65 21 -165.5t22.5 -169.5z" />
    <glyph glyph-name="cent" unicode="&#xa2;" horiz-adv-x="650" 
d="M353 85v-185h-30v186q-106 11 -170 85.5t-64 178.5t64.5 178.5t169.5 84.5v187h30v-185q41 0 84 -15t76 -48.5t33 -70.5t-21 -58t-51 -21t-51 21t-21 49t15.5 47.5t40.5 24.5q-35 19 -78 19q-15 0 -27 -3v-410q12 -3 27 -3q91 0 153 75l28 -18q-33 -54 -87.5 -86.5
t-120.5 -32.5zM244 350q0 -67 20 -117.5t59 -71.5v387q-79 -45 -79 -198z" />
    <glyph glyph-name="sterling" unicode="&#xa3;" horiz-adv-x="650" 
d="M75 309v45h75q-3 10 -18 49q-27 70 -27 127q0 78 59.5 131.5t155.5 53.5q128 0 195 -60q37 -33 37 -81q0 -33 -23 -56.5t-57 -23.5t-57 21.5t-23 53.5t15.5 52.5t39.5 28.5q-33 13 -71 13q-59 0 -92.5 -40.5t-33.5 -104.5q0 -31 6.5 -88t7.5 -76h191v-45h-190
q-2 -111 -85 -217h185q63 0 93 18t39 64l7 36h39l27 -168q0 -20 -9 -29.5t-19.5 -11t-32.5 -1.5h-434v40q91 93 91 219q0 23 -5 50h-86z" />
    <glyph glyph-name="currency" unicode="&#xa4;" horiz-adv-x="650" 
d="M155 228q-36 55 -36 123t37 120l-92 92l48 48l92 -92q52 36 120 36t122 -36l92 92l48 -48l-92 -92q37 -52 37 -121t-36 -122l91 -91l-48 -48l-91 91q-53 -37 -123 -37t-121 37l-91 -91l-48 48zM228.5 444.5q-37.5 -38.5 -37.5 -95t37.5 -95.5t97 -39t96.5 39t37 95.5
t-37 95t-96.5 38.5t-97 -38.5z" />
    <glyph glyph-name="yen" unicode="&#xa5;" horiz-adv-x="650" 
d="M92 199v45h160v6l-40 89h-120v45h100l-122 276h-50v40h200l158 -390l115 245q-29 5 -49 27.5t-20 54.5t23 55t56 23t57 -23.5t24 -49.5t-26 -79l-89 -179h93v-45h-115l-47 -95h162v-45h-160v-159h100v-40h-350v40h100v159h-160z" />
    <glyph glyph-name="brokenbar" unicode="&#xa6;" horiz-adv-x="410" 
d="M260 800v-326h-110v326h110zM260 226v-326h-110v326h110z" />
    <glyph glyph-name="section" unicode="&#xa7;" horiz-adv-x="490" 
d="M308 420q132 -73 132 -169.5t-85 -137.5q65 -53 65 -134q0 -66 -48 -111t-132 -45q-120 0 -193 105l35 26q30 -44 70 -66.5t83 -22.5t77 27.5t34 71.5q0 60 -66 95l-108 59q-132 73 -132 169.5t85 136.5q-65 52 -65 135q0 66 48 111t132 45q120 0 193 -105l-35 -26
q-30 44 -70 66.5t-83 22.5t-77 -27.5t-34 -71.5q0 -60 66 -95zM103 371.5q-19 -23.5 -19 -54.5t27 -56.5t82 -54.5l107 -57q10 -5 28 -17q29 10 48.5 34t19.5 55t-27 56.5t-82 54.5l-136 73q-29 -10 -48 -33.5z" />
    <glyph glyph-name="dieresis" unicode="&#xa8;" horiz-adv-x="490" 
d="M54 670q0 32 22 54t54 22t54 -22t22 -54t-22 -54t-54 -22t-54 22t-22 54zM284 670q0 32 22 54t54 22t54 -22t22 -54t-22 -54t-54 -22t-54 22t-22 54z" />
    <glyph glyph-name="copyright" unicode="&#xa9;" horiz-adv-x="812" 
d="M415 652q-48 0 -73 -51t-25 -128t26.5 -125t71.5 -48t72 20.5t50 53.5l29 -21q-31 -49 -67.5 -76.5t-93.5 -27.5q-85 0 -138.5 63.5t-53.5 158t53.5 158t148.5 63.5q49 0 95.5 -21t46.5 -49q0 -10 -7 -26l-38 -73l-29 9l5 44q2 10 2 27.5t-21 33t-54 15.5zM106 469
q0 -124 88 -212t212 -88t212 88t88 212t-88 212t-212 88t-212 -88t-88 -212zM68 469q0 139 99 238.5t239 99.5t239 -99.5t99 -238.5t-99 -238.5t-239 -99.5t-239 99.5t-99 238.5z" />
    <glyph glyph-name="ordfeminine" unicode="&#xaa;" horiz-adv-x="577" 
d="M457 706v-272q0 -34 27 -34q21 0 47 22l19 -24q-64 -57 -117 -57q-65 0 -80 58h-8q-15 -26 -41 -42t-56 -16q-82 0 -124.5 53t-42.5 134t46 134t128 53q56 0 88 -37l20 28h94zM271 665q-71 0 -71 -136.5t71 -136.5q36 0 55.5 37.5t19.5 99.5t-19.5 99t-55.5 37z" />
    <glyph glyph-name="guillemotleft" unicode="&#xab;" horiz-adv-x="486" 
d="M30 292q0 32 28 58l144 138l24 -21l-95 -171v-8l95 -171l-24 -21l-144 138q-28 26 -28 58zM230 292q0 32 28 58l144 138l24 -21l-95 -171v-8l95 -171l-24 -21l-144 138q-28 26 -28 58z" />
    <glyph glyph-name="logicalnot" unicode="&#xac;" horiz-adv-x="560" 
d="M90 320v60h380v-213h-54v153h-326z" />
    <glyph glyph-name="registered" unicode="&#xae;" horiz-adv-x="812" 
d="M106 469q0 -124 88 -212t212 -88t212 88t88 212t-88 212t-212 88t-212 -88t-88 -212zM237 647v36h136q203 0 203 -135q0 -82 -87 -117q29 -17 38 -48l18 -59q6 -23 25 -23q15 0 38 20l18 -23q-56 -49 -111.5 -49t-69.5 46l-29 92q-4 13 -13 19t-30 7v-155h-136v35h36v354
h-36zM373 647v-198q45 0 73.5 25.5t28.5 73t-28.5 73.5t-73.5 26zM68 469q0 139 99 238.5t239 99.5t239 -99.5t99 -238.5t-99 -238.5t-239 -99.5t-239 99.5t-99 238.5z" />
    <glyph glyph-name="macron" unicode="&#xaf;" horiz-adv-x="490" 
d="M98 700h294v-88h-294v88z" />
    <glyph glyph-name="degree" unicode="&#xb0;" horiz-adv-x="536" 
d="M81 529q0 79 51.5 132.5t135.5 53.5t135.5 -53.5t51.5 -133t-51.5 -133.5t-135.5 -54t-135.5 54.5t-51.5 133.5zM168 529q0 -65 25 -106t76 -41t76 41t25 106t-25 105.5t-76 40.5t-76 -40.5t-25 -105.5z" />
    <glyph glyph-name="plusminus" unicode="&#xb1;" horiz-adv-x="560" 
d="M90 320v60h160v160h60v-160h160v-60h-160v-160h-60v160h-160zM90 0v60h380v-60h-380z" />
    <glyph glyph-name="twosuperior" unicode="&#xb2;" horiz-adv-x="440" 
d="M320 331h-257v31l141 143q59 59 59 126q0 39 -22.5 65t-56.5 26q-15 0 -31 -4q22 -15 22 -39t-16 -40.5t-37.5 -16.5t-37 16t-15.5 37q0 41 41.5 65.5t103.5 24.5t102 -33.5t40 -81.5q0 -25 -20 -57.5t-37 -50.5t-51 -51l-96 -94h82q35 0 51 9.5t21 33.5l6 27h32l17 -105
q0 -15 -6.5 -22t-13 -8t-21.5 -1z" />
    <glyph glyph-name="threesuperior" unicode="&#xb3;" horiz-adv-x="440" 
d="M159 718q22 -15 22 -39.5t-16 -40.5t-37.5 -16t-37 16t-15.5 37q0 41 42.5 65.5t105 24.5t101 -33.5t38.5 -81.5q0 -66 -72 -104q36 -14 57 -40t21 -57q0 -54 -45 -90.5t-108.5 -36.5t-104.5 24t-41 66q0 21 15.5 37t37 16t37.5 -16t16 -42t-23 -41q12 -2 20 -2
q45 0 69 25.5t24 58.5t-22.5 56.5t-64.5 23.5h-37v36h46q41 0 62.5 25.5t21.5 57.5t-21 53.5t-60 21.5q-15 0 -31 -4z" />
    <glyph glyph-name="acute" unicode="&#xb4;" horiz-adv-x="371" 
d="M258.5 758q13.5 7 33 7t36 -14.5t16.5 -37.5t-18 -40.5t-65 -40.5l-148 -73l-21 24l119 132q17 19 25.5 27.5t22 15.5z" />
    <glyph glyph-name="mu" unicode="&#xb5;" 
d="M274 454v-408q170 0 170 101v353h150v-389q0 -27 13 -42.5t40 -15.5t62 29l18 -24q-80 -73 -163 -73t-110 74q-38 -40 -78.5 -56.5t-101.5 -17.5v-235h-150v717q-55 -14 -84 -49l-27 31q29 30 73.5 48t88 18t71.5 -17.5t28 -43.5z" />
    <glyph glyph-name="paragraph" unicode="&#xb6;" horiz-adv-x="548" 
d="M108 0v40h156v267h-60q-91 0 -147.5 59t-56.5 145t56.5 145t147.5 59t147.5 -59t56.5 -145v-471h70v-40h-370z" />
    <glyph glyph-name="periodcentered" unicode="&#xb7;" horiz-adv-x="274" 
d="M60 292q0 32 22.5 54.5t54.5 22.5t54.5 -22.5t22.5 -54.5t-22.5 -54.5t-54.5 -22.5t-54.5 22.5t-22.5 54.5z" />
    <glyph glyph-name="cedilla" unicode="&#xb8;" horiz-adv-x="330" 
d="M195 -70q47 0 76 -27t29 -68t-34.5 -70.5t-83.5 -29.5t-80.5 18t-31.5 51q0 17 12 29t28.5 12t29 -12.5t12.5 -31.5t-18 -32q8 -2 15 -2q29 0 46.5 18t17.5 42.5t-19 43.5t-54 19l-22 17l44 93h30l-38 -77q17 7 41 7z" />
    <glyph glyph-name="onesuperior" unicode="&#xb9;" horiz-adv-x="363" 
d="M249 756v-390h76v-35h-265v35h88v302q-49 -19 -113 -19v35q56 0 104 20t75 52h35z" />
    <glyph glyph-name="ordmasculine" unicode="&#xba;" horiz-adv-x="536" 
d="M81 529q0 79 51.5 132.5t135.5 53.5t135.5 -53.5t51.5 -133t-51.5 -133.5t-135.5 -54t-135.5 54.5t-51.5 133.5zM199 529q0 -65 17.5 -106t52.5 -41t52.5 41t17.5 106t-17.5 105.5t-52.5 40.5t-52.5 -40.5t-17.5 -105.5z" />
    <glyph glyph-name="guillemotright" unicode="&#xbb;" horiz-adv-x="486" 
d="M456 292q0 -32 -28 -58l-144 -138l-24 21l95 171v8l-95 171l24 21l144 -138q28 -26 28 -58zM256 292q0 -32 -28 -58l-144 -138l-24 21l95 171v8l-95 171l24 21l144 -138q28 -26 28 -58z" />
    <glyph glyph-name="onequarter" unicode="&#xbc;" horiz-adv-x="1044" 
d="M732 700l-390 -700h-40l390 700h40zM284 700v-390h76v-35h-265v35h88v302q-49 -19 -113 -19v35q56 0 104 20t75 52h35zM836 425q0 -85 -43.5 -162.5t-103.5 -127.5h120v117q52 19 64 64h37v-181h35v-42h-35v-58h70v-35h-247v35h76v58h-181v38q89 82 96 294h112z" />
    <glyph glyph-name="onehalf" unicode="&#xbd;" horiz-adv-x="1044" 
d="M732 700l-390 -700h-40l390 700h40zM284 700v-390h76v-35h-265v35h88v302q-49 -19 -113 -19v35q56 0 104 20t75 52h35zM903 0h-257v31l141 143q59 59 59 126q0 39 -22.5 65t-56.5 26q-15 0 -31 -4q22 -15 22 -39t-16 -40.5t-37.5 -16.5t-37 16t-15.5 37q0 41 41.5 65.5
t103.5 24.5t102 -33.5t40 -81.5q0 -25 -20 -57.5t-37 -50.5t-51 -51l-96 -94h82q35 0 51 9.5t21 33.5l6 27h32l17 -105q0 -15 -6.5 -22t-13 -8t-21.5 -1z" />
    <glyph glyph-name="threequarters" unicode="&#xbe;" horiz-adv-x="1044" 
d="M742 700l-390 -700h-40l390 700h40zM184 662q22 -15 22 -39.5t-16 -40.5t-37.5 -16t-37 16t-15.5 37q0 41 42.5 65.5t105 24.5t101 -33.5t38.5 -81.5q0 -66 -72 -104q36 -14 57 -40t21 -57q0 -54 -45 -90.5t-108.5 -36.5t-104.5 24t-41 66q0 21 15.5 37t37 16t37.5 -16
t16 -42t-23 -41q12 -2 20 -2q45 0 69 25.5t24 58.5t-22.5 56.5t-64.5 23.5h-37v36h46q41 0 62.5 25.5t21.5 57.5t-21 53.5t-60 21.5q-15 0 -31 -4zM836 425q0 -85 -43.5 -162.5t-103.5 -127.5h120v117q52 19 64 64h37v-181h35v-42h-35v-58h70v-35h-247v35h76v58h-181v38
q89 82 96 294h112z" />
    <glyph glyph-name="questiondown" unicode="&#xbf;" horiz-adv-x="527" 
d="M218 88.5q-33 -48.5 -33 -107.5t35 -101.5t101 -42.5q32 0 57 11q-27 7 -44 28.5t-17 51.5t24 54t57 24t56 -23.5t23 -56.5q0 -67 -63.5 -104t-154 -37t-150 53.5t-59.5 130.5t52 134.5t142 77.5l14 116h54l17 -146q-78 -14 -111 -62.5zM362 438q0 -32 -22.5 -54.5
t-54.5 -22.5t-54.5 22.5t-22.5 54.5t22.5 54.5t54.5 22.5t54.5 -22.5t22.5 -54.5z" />
    <glyph glyph-name="Agrave" unicode="&#xc0;" horiz-adv-x="656" 
d="M169 660v40h238l199 -660h50v-40h-258v40h58l-37 123h-272l-36 -123h58v-40h-169v40h50l187 620h-68zM282 617l-121 -409h244zM198.5 950.5q16.5 14.5 36 14.5t33 -7t22 -15.5t25.5 -27.5l119 -132l-21 -24l-148 73q-47 23 -65 40.5t-18 40.5t16.5 37.5z" />
    <glyph glyph-name="Aacute" unicode="&#xc1;" horiz-adv-x="656" 
d="M169 660v40h238l199 -660h50v-40h-258v40h58l-37 123h-272l-36 -123h58v-40h-169v40h50l187 620h-68zM282 617l-121 -409h244zM379.5 958q13.5 7 33 7t36 -14.5t16.5 -37.5t-18 -40.5t-65 -40.5l-148 -73l-21 24l119 132q17 19 25.5 27.5t22 15.5z" />
    <glyph glyph-name="Acircumflex" unicode="&#xc2;" horiz-adv-x="656" 
d="M169 660v40h238l199 -660h50v-40h-258v40h58l-37 123h-272l-36 -123h58v-40h-169v40h50l187 620h-68zM282 617l-121 -409h244zM308 965q30 0 58 -38l108 -144l-21 -24l-141 95h-8l-141 -95l-21 24l108 144q28 38 58 38z" />
    <glyph glyph-name="Atilde" unicode="&#xc3;" horiz-adv-x="656" 
d="M169 660v40h238l199 -660h50v-40h-258v40h58l-37 123h-272l-36 -123h58v-40h-169v40h50l187 620h-68zM282 617l-121 -409h244zM452 809v15q0 39 -28 39q-12 0 -23 -7l-85 -48q-32 -19 -60 -19t-50.5 26t-22.5 60.5t8 66.5h36v-15q0 -39 28 -39q12 0 23 7l85 48
q32 19 60 19t50.5 -26t22.5 -60.5t-8 -66.5h-36z" />
    <glyph glyph-name="Adieresis" unicode="&#xc4;" horiz-adv-x="656" 
d="M169 660v40h238l199 -660h50v-40h-258v40h58l-37 123h-272l-36 -123h58v-40h-169v40h50l187 620h-68zM282 617l-121 -409h244zM128 870q0 32 22 54t54 22t54 -22t22 -54t-22 -54t-54 -22t-54 22t-22 54zM358 870q0 32 22 54t54 22t54 -22t22 -54t-22 -54t-54 -22t-54 22
t-22 54z" />
    <glyph glyph-name="Aring" unicode="&#xc5;" horiz-adv-x="656" 
d="M169 660v40h238l199 -660h50v-40h-258v40h58l-37 123h-272l-36 -123h58v-40h-169v40h50l187 620h-68zM282 617l-121 -409h244zM216 785q-37 32 -37 84.5t37 85t92 32.5t92 -32.5t37 -85t-37 -84.5t-92 -32t-92 32zM263 869q0 -83 44.5 -83t44.5 83t-44.5 83t-44.5 -83z
" />
    <glyph glyph-name="AE" unicode="&#xc6;" horiz-adv-x="912" 
d="M-20 0v40h52l213 620h-67v40h603q22 0 32.5 -1.5t19.5 -11t9 -29.5l-27 -168h-39l-20 99q-9 45 -33.5 58t-90.5 13h-70v-342h230v-45h-230v-233h90q65 0 89.5 13t34.5 58l20 89h39l27 -158q0 -20 -9 -29.5t-19.5 -11t-32.5 -1.5h-449v40h60v233h-240l-80 -233h57v-40
h-169zM412 318v342h-109l-116 -342h225z" />
    <glyph glyph-name="Ccedilla" unicode="&#xc7;" horiz-adv-x="650" 
d="M382 668q-87 0 -132 -89.5t-45 -223.5t47.5 -219t136.5 -85q50 0 92 21t63.5 44t45.5 58l35 -25q-48 -77 -107.5 -120.5t-152.5 -43.5q-14 0 -20 1l-31 -63q17 7 41 7q47 0 76 -27t29 -68t-34.5 -70.5t-83.5 -29.5t-80.5 18t-31.5 51q0 17 12 29t28.5 12t29 -12.5
t12.5 -31.5t-18 -32q8 -2 15 -2q29 0 46.5 18t17.5 42.5t-19 43.5t-54 19l-22 17l38 82q-119 19 -192.5 120t-73.5 249.5t88 252.5t244 104q81 0 156 -32t75 -76q0 -17 -11 -39l-60 -116l-36 11l9 62q4 24 4 46q0 39 -38 68t-99 29z" />
    <glyph glyph-name="Egrave" unicode="&#xc8;" horiz-adv-x="630" 
d="M519 0h-449v40h60v620h-60v40h429q22 0 32.5 -1.5t19.5 -11t9 -29.5l-27 -168h-39l-20 99q-9 45 -33.5 58t-90.5 13h-70v-342h230v-45h-230v-233h90q65 0 89.5 13t34.5 58l20 89h39l27 -158q0 -20 -9 -29.5t-19.5 -11t-32.5 -1.5zM205.5 950.5q16.5 14.5 36 14.5t33 -7
t22 -15.5t25.5 -27.5l119 -132l-21 -24l-148 73q-47 23 -65 40.5t-18 40.5t16.5 37.5z" />
    <glyph glyph-name="Eacute" unicode="&#xc9;" horiz-adv-x="630" 
d="M519 0h-449v40h60v620h-60v40h429q22 0 32.5 -1.5t19.5 -11t9 -29.5l-27 -168h-39l-20 99q-9 45 -33.5 58t-90.5 13h-70v-342h230v-45h-230v-233h90q65 0 89.5 13t34.5 58l20 89h39l27 -158q0 -20 -9 -29.5t-19.5 -11t-32.5 -1.5zM355.5 958q13.5 7 33 7t36 -14.5
t16.5 -37.5t-18 -40.5t-65 -40.5l-148 -73l-21 24l119 132q17 19 25.5 27.5t22 15.5z" />
    <glyph glyph-name="Ecircumflex" unicode="&#xca;" horiz-adv-x="630" 
d="M519 0h-449v40h60v620h-60v40h429q22 0 32.5 -1.5t19.5 -11t9 -29.5l-27 -168h-39l-20 99q-9 45 -33.5 58t-90.5 13h-70v-342h230v-45h-230v-233h90q65 0 89.5 13t34.5 58l20 89h39l27 -158q0 -20 -9 -29.5t-19.5 -11t-32.5 -1.5zM335 965q30 0 58 -38l108 -144l-21 -24
l-141 95h-8l-141 -95l-21 24l108 144q28 38 58 38z" />
    <glyph glyph-name="Edieresis" unicode="&#xcb;" horiz-adv-x="630" 
d="M519 0h-449v40h60v620h-60v40h429q22 0 32.5 -1.5t19.5 -11t9 -29.5l-27 -168h-39l-20 99q-9 45 -33.5 58t-90.5 13h-70v-342h230v-45h-230v-233h90q65 0 89.5 13t34.5 58l20 89h39l27 -158q0 -20 -9 -29.5t-19.5 -11t-32.5 -1.5zM124 870q0 32 22 54t54 22t54 -22
t22 -54t-22 -54t-54 -22t-54 22t-22 54zM354 870q0 32 22 54t54 22t54 -22t22 -54t-22 -54t-54 -22t-54 22t-22 54z" />
    <glyph glyph-name="Igrave" unicode="&#xcc;" horiz-adv-x="410" 
d="M60 660v40h290v-40h-70v-620h70v-40h-290v40h70v620h-70zM95.5 950.5q16.5 14.5 36 14.5t33 -7t22 -15.5t25.5 -27.5l119 -132l-21 -24l-148 73q-47 23 -65 40.5t-18 40.5t16.5 37.5z" />
    <glyph glyph-name="Iacute" unicode="&#xcd;" horiz-adv-x="410" 
d="M60 660v40h290v-40h-70v-620h70v-40h-290v40h70v620h-70zM265.5 958q13.5 7 33 7t36 -14.5t16.5 -37.5t-18 -40.5t-65 -40.5l-148 -73l-21 24l119 132q17 19 25.5 27.5t22 15.5z" />
    <glyph glyph-name="Icircumflex" unicode="&#xce;" horiz-adv-x="410" 
d="M60 660v40h290v-40h-70v-620h70v-40h-290v40h70v620h-70zM205 965q30 0 58 -38l108 -144l-21 -24l-141 95h-8l-141 -95l-21 24l108 144q28 38 58 38z" />
    <glyph glyph-name="Idieresis" unicode="&#xcf;" horiz-adv-x="410" 
d="M60 660v40h290v-40h-70v-620h70v-40h-290v40h70v620h-70zM4 870q0 32 22 54t54 22t54 -22t22 -54t-22 -54t-54 -22t-54 22t-22 54zM234 870q0 32 22 54t54 22t54 -22t22 -54t-22 -54t-54 -22t-54 22t-22 54z" />
    <glyph glyph-name="Eth" unicode="&#xd0;" horiz-adv-x="782" 
d="M70 273v45h80v342h-80v40h270q180 0 291 -97.5t111 -252t-111 -252.5t-291 -98h-270v40h80v233h-80zM340 660h-40v-342h150v-45h-150v-233h40q116 0 181.5 83.5t65.5 226.5t-65.5 226.5t-181.5 83.5z" />
    <glyph glyph-name="Ntilde" unicode="&#xd1;" horiz-adv-x="770" 
d="M60 0v40h60v620h-60v40h234l286 -563v523h-60v40h190v-40h-60v-660h-159l-301 592v-552h60v-40h-190zM510 809v15q0 39 -28 39q-12 0 -23 -7l-85 -48q-32 -19 -60 -19t-50.5 26t-22.5 60.5t8 66.5h36v-15q0 -39 28 -39q12 0 23 7l85 48q32 19 60 19t50.5 -26t22.5 -60.5
t-8 -66.5h-36z" />
    <glyph glyph-name="Ograve" unicode="&#xd2;" horiz-adv-x="768" 
d="M136.5 611.5q86.5 103.5 247 103.5t247.5 -103t87 -262.5t-87 -262t-247.5 -102.5t-247 102.5t-86.5 261.5t86.5 262.5zM384 668q-59 0 -100 -46q-79 -86 -79 -273q0 -186 79 -271q42 -46 100 -46q86 0 132.5 92t46.5 225.5t-46.5 226t-132.5 92.5zM254.5 950.5
q16.5 14.5 36 14.5t33 -7t22 -15.5t25.5 -27.5l119 -132l-21 -24l-148 73q-47 23 -65 40.5t-18 40.5t16.5 37.5z" />
    <glyph glyph-name="Oacute" unicode="&#xd3;" horiz-adv-x="768" 
d="M136.5 611.5q86.5 103.5 247 103.5t247.5 -103t87 -262.5t-87 -262t-247.5 -102.5t-247 102.5t-86.5 261.5t86.5 262.5zM384 668q-59 0 -100 -46q-79 -86 -79 -273q0 -186 79 -271q42 -46 100 -46q86 0 132.5 92t46.5 225.5t-46.5 226t-132.5 92.5zM424.5 958
q13.5 7 33 7t36 -14.5t16.5 -37.5t-18 -40.5t-65 -40.5l-148 -73l-21 24l119 132q17 19 25.5 27.5t22 15.5z" />
    <glyph glyph-name="Ocircumflex" unicode="&#xd4;" horiz-adv-x="768" 
d="M136.5 611.5q86.5 103.5 247 103.5t247.5 -103t87 -262.5t-87 -262t-247.5 -102.5t-247 102.5t-86.5 261.5t86.5 262.5zM384 668q-59 0 -100 -46q-79 -86 -79 -273q0 -186 79 -271q42 -46 100 -46q86 0 132.5 92t46.5 225.5t-46.5 226t-132.5 92.5zM384 965q30 0 58 -38
l108 -144l-21 -24l-141 95h-8l-141 -95l-21 24l108 144q28 38 58 38z" />
    <glyph glyph-name="Otilde" unicode="&#xd5;" horiz-adv-x="768" 
d="M136.5 611.5q86.5 103.5 247 103.5t247.5 -103t87 -262.5t-87 -262t-247.5 -102.5t-247 102.5t-86.5 261.5t86.5 262.5zM384 668q-59 0 -100 -46q-79 -86 -79 -273q0 -186 79 -271q42 -46 100 -46q86 0 132.5 92t46.5 225.5t-46.5 226t-132.5 92.5zM496 809v15
q0 39 -28 39q-12 0 -23 -7l-85 -48q-32 -19 -60 -19t-50.5 26t-22.5 60.5t8 66.5h36v-15q0 -39 28 -39q12 0 23 7l85 48q32 19 60 19t50.5 -26t22.5 -60.5t-8 -66.5h-36z" />
    <glyph glyph-name="Odieresis" unicode="&#xd6;" horiz-adv-x="768" 
d="M136.5 611.5q86.5 103.5 247 103.5t247.5 -103t87 -262.5t-87 -262t-247.5 -102.5t-247 102.5t-86.5 261.5t86.5 262.5zM384 668q-59 0 -100 -46q-79 -86 -79 -273q0 -186 79 -271q42 -46 100 -46q86 0 132.5 92t46.5 225.5t-46.5 226t-132.5 92.5zM193 870q0 32 22.5 54
t53.5 22t53.5 -22t22.5 -54t-22.5 -54t-53.5 -22t-53.5 22t-22.5 54zM423 870q0 32 22.5 54t53.5 22t53.5 -22t22.5 -54t-22.5 -54t-53.5 -22t-53.5 22t-22.5 54z" />
    <glyph glyph-name="multiply" unicode="&#xd7;" horiz-adv-x="560" 
d="M147 175l-42 42l133 133l-133 133l42 42l133 -133l133 133l42 -42l-133 -133l133 -133l-42 -42l-133 133z" />
    <glyph glyph-name="Oslash" unicode="&#xd8;" horiz-adv-x="768" 
d="M718 349q0 -159 -87 -261.5t-248 -102.5q-32 0 -72 7l-19 -72h-49l22 83q-104 34 -159.5 127.5t-55.5 218.5q0 159 86.5 262.5t246.5 103.5q33 0 73 -7l19 71h50l-23 -82q105 -35 160.5 -128.5t55.5 -219.5zM563 349q0 189 -81 275l-156 -579q25 -13 58 -13
q86 0 132.5 92t46.5 225zM384 668q-59 0 -100 -46q-79 -86 -79 -274t80 -272l156 579q-28 13 -57 13z" />
    <glyph glyph-name="Ugrave" unicode="&#xd9;" horiz-adv-x="700" 
d="M485 660v40h190v-40h-60v-419q0 -72 -21.5 -124t-59.5 -80q-71 -52 -177 -52t-179 53q-39 27 -61 79t-22 125v418h-60v40h270v-40h-60v-450q0 -78 42 -120t103.5 -42t108 42.5t46.5 119.5v450h-60zM240.5 950.5q16.5 14.5 36 14.5t33 -7t22 -15.5t25.5 -27.5l119 -132
l-21 -24l-148 73q-47 23 -65 40.5t-18 40.5t16.5 37.5z" />
    <glyph glyph-name="Uacute" unicode="&#xda;" horiz-adv-x="700" 
d="M485 660v40h190v-40h-60v-419q0 -72 -21.5 -124t-59.5 -80q-71 -52 -177 -52t-179 53q-39 27 -61 79t-22 125v418h-60v40h270v-40h-60v-450q0 -78 42 -120t103.5 -42t108 42.5t46.5 119.5v450h-60zM395.5 958q13.5 7 33 7t36 -14.5t16.5 -37.5t-18 -40.5t-65 -40.5
l-148 -73l-21 24l119 132q17 19 25.5 27.5t22 15.5z" />
    <glyph glyph-name="Ucircumflex" unicode="&#xdb;" horiz-adv-x="700" 
d="M485 660v40h190v-40h-60v-419q0 -72 -21.5 -124t-59.5 -80q-71 -52 -177 -52t-179 53q-39 27 -61 79t-22 125v418h-60v40h270v-40h-60v-450q0 -78 42 -120t103.5 -42t108 42.5t46.5 119.5v450h-60zM370 965q30 0 58 -38l108 -144l-21 -24l-141 95h-8l-141 -95l-21 24
l108 144q28 38 58 38z" />
    <glyph glyph-name="Udieresis" unicode="&#xdc;" horiz-adv-x="700" 
d="M485 660v40h190v-40h-60v-419q0 -72 -21.5 -124t-59.5 -80q-71 -52 -177 -52t-179 53q-39 27 -61 79t-22 125v418h-60v40h270v-40h-60v-450q0 -78 42 -120t103.5 -42t108 42.5t46.5 119.5v450h-60zM164 870q0 32 22 54t54 22t54 -22t22 -54t-22 -54t-54 -22t-54 22
t-22 54zM394 870q0 32 22 54t54 22t54 -22t22 -54t-22 -54t-54 -22t-54 22t-22 54z" />
    <glyph glyph-name="Yacute" unicode="&#xdd;" horiz-adv-x="607" 
d="M135 0v40h100v210l-182 410h-48v40h198l158 -392l90 392h151v-40h-47l-170 -410v-210h100v-40h-350zM377.5 958q13.5 7 33 7t36 -14.5t16.5 -37.5t-18 -40.5t-65 -40.5l-148 -73l-21 24l119 132q17 19 25.5 27.5t22 15.5z" />
    <glyph glyph-name="Thorn" unicode="&#xde;" horiz-adv-x="673" 
d="M70 660v40h270v-40h-60v-90h10q246 0 308 -113q25 -44 25 -107t-24.5 -107t-71.5 -68q-88 -45 -237 -45h-10v-90h60v-40h-270v40h60v620h-60zM290 530h-10v-360h10q79 0 131 47.5t52 132.5t-52 132.5t-131 47.5z" />
    <glyph glyph-name="germandbls" unicode="&#xdf;" horiz-adv-x="655" 
d="M552 597q0 -36 -22 -67.5t-49 -50.5q-71 -50 -71 -89q0 -47 81 -88q34 -18 68 -38t57.5 -51.5t23.5 -72.5q0 -75 -48 -115t-141 -40t-154 45l18 31q42 -24 87 -24t66.5 23t21.5 58t-15.5 63t-37.5 49.5t-45 43.5q-53 54 -53 115q0 40 40 103.5t40 99t-17 54.5t-51 19
t-57 -40.5t-23 -125.5v-499h-150v445h-82v41h82v3q0 108 62.5 167t169.5 59t153 -33t46 -85z" />
    <glyph glyph-name="agrave" unicode="&#xe0;" horiz-adv-x="710" 
d="M597 500v-389q0 -27 13 -42.5t40 -15.5t62 29l18 -24q-80 -73 -160 -73q-95 0 -117 89q-52 -89 -153 -89q-115 0 -175 74.5t-60 190t64.5 190.5t180.5 75q89 0 137 -71v56h150zM220 250q0 -96 28 -152t85.5 -56t88 56.5t30.5 151.5t-30.5 151.5t-88 56.5t-85.5 -56
t-28 -152zM223.5 750.5q16.5 14.5 36 14.5t33 -7t22 -15.5t25.5 -27.5l119 -132l-21 -24l-148 73q-47 23 -65 40.5t-18 40.5t16.5 37.5z" />
    <glyph glyph-name="aacute" unicode="&#xe1;" horiz-adv-x="695" 
d="M582 500v-389q0 -27 13 -42.5t40 -15.5t62 29l18 -24q-80 -73 -160 -73q-95 0 -117 89q-52 -89 -153 -89q-115 0 -175 74.5t-60 190t64.5 190.5t180.5 75q89 0 137 -71v56h150zM205 250q0 -96 28 -152t85.5 -56t88 56.5t30.5 151.5t-30.5 151.5t-88 56.5t-85.5 -56
t-28 -152zM425.5 758q13.5 7 33 7t36 -14.5t16.5 -37.5t-18 -40.5t-65 -40.5l-148 -73l-21 24l119 132q17 19 25.5 27.5t22 15.5z" />
    <glyph glyph-name="acircumflex" unicode="&#xe2;" horiz-adv-x="710" 
d="M597 500v-389q0 -27 13 -42.5t40 -15.5t62 29l18 -24q-80 -73 -160 -73q-95 0 -117 89q-52 -89 -153 -89q-115 0 -175 74.5t-60 190t64.5 190.5t180.5 75q89 0 137 -71v56h150zM220 250q0 -96 28 -152t85.5 -56t88 56.5t30.5 151.5t-30.5 151.5t-88 56.5t-85.5 -56
t-28 -152zM335 765q30 0 58 -38l108 -144l-21 -24l-141 95h-8l-141 -95l-21 24l108 144q28 38 58 38z" />
    <glyph glyph-name="atilde" unicode="&#xe3;" horiz-adv-x="695" 
d="M582 500v-389q0 -27 13 -42.5t40 -15.5t62 29l18 -24q-80 -73 -160 -73q-95 0 -117 89q-52 -89 -153 -89q-115 0 -175 74.5t-60 190t64.5 190.5t180.5 75q89 0 137 -71v56h150zM205 250q0 -96 28 -152t85.5 -56t88 56.5t30.5 151.5t-30.5 151.5t-88 56.5t-85.5 -56
t-28 -152zM460 609v15q0 39 -28 39q-12 0 -23 -7l-85 -48q-32 -19 -60 -19t-50.5 26t-22.5 60.5t8 66.5h36v-15q0 -39 28 -39q12 0 23 7l85 48q32 19 60 19t50.5 -26t22.5 -60.5t-8 -66.5h-36z" />
    <glyph glyph-name="adieresis" unicode="&#xe4;" horiz-adv-x="695" 
d="M582 500v-389q0 -27 13 -42.5t40 -15.5t62 29l18 -24q-80 -73 -160 -73q-95 0 -117 89q-52 -89 -153 -89q-115 0 -175 74.5t-60 190t64.5 190.5t180.5 75q89 0 137 -71v56h150zM205 250q0 -96 28 -152t85.5 -56t88 56.5t30.5 151.5t-30.5 151.5t-88 56.5t-85.5 -56
t-28 -152zM156 670q0 32 22 54t54 22t54 -22t22 -54t-22 -54t-54 -22t-54 22t-22 54zM386 670q0 32 22 54t54 22t54 -22t22 -54t-22 -54t-54 -22t-54 22t-22 54z" />
    <glyph glyph-name="aring" unicode="&#xe5;" horiz-adv-x="710" 
d="M597 500v-389q0 -27 13 -42.5t40 -15.5t62 29l18 -24q-80 -73 -160 -73q-95 0 -117 89q-52 -89 -153 -89q-115 0 -175 74.5t-60 190t64.5 190.5t180.5 75q89 0 137 -71v56h150zM220 250q0 -96 28 -152t85.5 -56t88 56.5t30.5 151.5t-30.5 151.5t-88 56.5t-85.5 -56
t-28 -152zM253 585q-37 32 -37 84.5t37 85t92 32.5t92 -32.5t37 -85t-37 -84.5t-92 -32t-92 32zM300 669q0 -83 44.5 -83t44.5 83t-44.5 83t-44.5 -83z" />
    <glyph glyph-name="ae" unicode="&#xe6;" horiz-adv-x="904" 
d="M643 180q-55 0 -112 12q9 -66 41.5 -105.5t85.5 -39.5q96 0 163 75l28 -18q-34 -54 -90 -86.5t-129 -32.5t-129 36t-88 96q-19 -58 -65.5 -95t-123.5 -37t-123 44t-46 115.5t54 116t133 44.5t148 -31q0 132 -50 163q-22 14 -56 14q-71 0 -159 -53l-20 32
q60 48 111.5 66.5t121.5 18.5q98 0 149 -49q68 49 163 49t145 -44t50 -111t-55.5 -123.5t-146.5 -56.5zM527 250v-24q33 -7 54 -7q67 0 101.5 44.5t34.5 94t-19.5 76.5t-61.5 27t-75.5 -55t-33.5 -156zM278 52q112 0 112 187q-52 19 -97.5 19t-69 -30t-23.5 -76t21 -73
t57 -27z" />
    <glyph glyph-name="ccedilla" unicode="&#xe7;" horiz-adv-x="562" 
d="M331 -15q-14 0 -20 1l-31 -63q17 7 41 7q47 0 76 -27t29 -68t-34.5 -70.5t-83.5 -29.5t-80.5 18t-31.5 51q0 17 12 29t28.5 12t29 -12.5t12.5 -31.5t-18 -32q8 -2 15 -2q29 0 46.5 18t17.5 42.5t-19 43.5t-54 19l-22 17l38 82q-99 15 -158 88t-59 179t73.5 182.5
t191.5 76.5q66 0 129 -38t63 -103q0 -33 -23.5 -56.5t-56.5 -23.5t-56.5 23.5t-23.5 53.5t16 51t42 29q-28 12 -64 12q-67 0 -101.5 -59.5t-34.5 -151t34.5 -148.5t101.5 -57q90 0 153 75l28 -18q-33 -54 -86.5 -86.5t-119.5 -32.5z" />
    <glyph glyph-name="egrave" unicode="&#xe8;" horiz-adv-x="597" 
d="M374.5 280.5q35.5 43.5 35.5 88t-19.5 68.5t-59 24t-75.5 -56t-36 -150t34 -151t97 -57q96 0 163 75l28 -18q-34 -54 -90 -86.5t-126 -32.5q-119 0 -190 78.5t-71 189.5t75.5 186.5t209.5 75.5q88 0 138 -41t50 -104t-55.5 -116.5t-146.5 -53.5q-31 0 -60 7l-2 24
q65 6 100.5 49.5zM208.5 750.5q16.5 14.5 36 14.5t33 -7t22 -15.5t25.5 -27.5l119 -132l-21 -24l-148 73q-47 23 -65 40.5t-18 40.5t16.5 37.5z" />
    <glyph glyph-name="eacute" unicode="&#xe9;" horiz-adv-x="597" 
d="M374.5 280.5q35.5 43.5 35.5 88t-19.5 68.5t-59 24t-75.5 -56t-36 -150t34 -151t97 -57q96 0 163 75l28 -18q-34 -54 -90 -86.5t-126 -32.5q-119 0 -190 78.5t-71 189.5t75.5 186.5t209.5 75.5q88 0 138 -41t50 -104t-55.5 -116.5t-146.5 -53.5q-31 0 -60 7l-2 24
q65 6 100.5 49.5zM376.5 758q13.5 7 33 7t36 -14.5t16.5 -37.5t-18 -40.5t-65 -40.5l-148 -73l-21 24l119 132q17 19 25.5 27.5t22 15.5z" />
    <glyph glyph-name="ecircumflex" unicode="&#xea;" horiz-adv-x="597" 
d="M374.5 280.5q35.5 43.5 35.5 88t-19.5 68.5t-59 24t-75.5 -56t-36 -150t34 -151t97 -57q96 0 163 75l28 -18q-34 -54 -90 -86.5t-126 -32.5q-119 0 -190 78.5t-71 189.5t75.5 186.5t209.5 75.5q88 0 138 -41t50 -104t-55.5 -116.5t-146.5 -53.5q-31 0 -60 7l-2 24
q65 6 100.5 49.5zM308 765q30 0 58 -38l108 -144l-21 -24l-141 95h-8l-141 -95l-21 24l108 144q28 38 58 38z" />
    <glyph glyph-name="edieresis" unicode="&#xeb;" horiz-adv-x="597" 
d="M374.5 280.5q35.5 43.5 35.5 88t-19.5 68.5t-59 24t-75.5 -56t-36 -150t34 -151t97 -57q96 0 163 75l28 -18q-34 -54 -90 -86.5t-126 -32.5q-119 0 -190 78.5t-71 189.5t75.5 186.5t209.5 75.5q88 0 138 -41t50 -104t-55.5 -116.5t-146.5 -53.5q-31 0 -60 7l-2 24
q65 6 100.5 49.5zM107 670q0 32 22.5 54t53.5 22t53.5 -22t22.5 -54t-22.5 -54t-53.5 -22t-53.5 22t-22.5 54zM337 670q0 32 22.5 54t53.5 22t53.5 -22t22.5 -54t-22.5 -54t-53.5 -22t-53.5 22t-22.5 54z" />
    <glyph glyph-name="igrave" unicode="&#xec;" horiz-adv-x="399" 
d="M192 515q94 0 94 -81v-323q0 -27 13 -42.5t40 -15.5t62 29l18 -24q-80 -73 -160 -73q-123 0 -123 147v335q-55 -14 -84 -49l-27 31q29 30 73.5 48t93.5 18zM89.5 750.5q16.5 14.5 36 14.5t33 -7t22 -15.5t25.5 -27.5l119 -132l-21 -24l-148 73q-47 23 -65 40.5t-18 40.5
t16.5 37.5z" />
    <glyph glyph-name="iacute" unicode="&#xed;" horiz-adv-x="399" 
d="M192 515q94 0 94 -81v-323q0 -27 13 -42.5t40 -15.5t62 29l18 -24q-80 -73 -160 -73q-123 0 -123 147v335q-55 -14 -84 -49l-27 31q29 30 73.5 48t93.5 18zM240.5 758q13.5 7 33 7t36 -14.5t16.5 -37.5t-18 -40.5t-65 -40.5l-148 -73l-21 24l119 132q17 19 25.5 27.5
t22 15.5z" />
    <glyph glyph-name="icircumflex" unicode="&#xee;" horiz-adv-x="399" 
d="M192 515q94 0 94 -81v-323q0 -27 13 -42.5t40 -15.5t62 29l18 -24q-80 -73 -160 -73q-123 0 -123 147v335q-55 -14 -84 -49l-27 31q29 30 73.5 48t93.5 18zM199 765q30 0 58 -38l108 -144l-21 -24l-141 95h-8l-141 -95l-21 24l108 144q28 38 58 38z" />
    <glyph glyph-name="idieresis" unicode="&#xef;" horiz-adv-x="399" 
d="M192 515q94 0 94 -81v-323q0 -27 13 -42.5t40 -15.5t62 29l18 -24q-80 -73 -160 -73q-123 0 -123 147v335q-55 -14 -84 -49l-27 31q29 30 73.5 48t93.5 18zM9 670q0 32 22.5 54t53.5 22t53.5 -22t22.5 -54t-22.5 -54t-53.5 -22t-53.5 22t-22.5 54zM239 670q0 32 22.5 54
t53.5 22t53.5 -22t22.5 -54t-22.5 -54t-53.5 -22t-53.5 22t-22.5 54z" />
    <glyph glyph-name="eth" unicode="&#xf0;" horiz-adv-x="673" 
d="M270 705q-76 0 -137 -58l-25 74q78 44 163 44q109 0 188 -76l120 61l19 -38l-110 -56q102 -132 102 -363q0 -147 -70 -227.5t-189.5 -80.5t-190 72t-70.5 183t67.5 178t172.5 67q86 0 128 -58l10 4q-16 112 -50 179l-124 -63l-19 38l120 61q-44 59 -105 59zM243 381
q-28 -57 -28 -147.5t28 -148.5t85.5 -58t88 58t30.5 148.5t-30.5 147.5t-88 57t-85.5 -57z" />
    <glyph glyph-name="ntilde" unicode="&#xf1;" 
d="M124 500q82 0 148 -50q38 36 78 50.5t102.5 14.5t102 -39.5t39.5 -107.5v-257q0 -27 13 -42.5t40 -15.5t62 29l18 -24q-80 -73 -160 -73q-123 0 -123 147v257q0 31 -19 48t-52.5 17t-66 -27t-32.5 -70v-357h-150v460q-45 0 -80 -15l-14 37q43 18 94 18zM466 609v15
q0 39 -28 39q-12 0 -23 -7l-85 -48q-32 -19 -60 -19t-50.5 26t-22.5 60.5t8 66.5h36v-15q0 -39 28 -39q12 0 23 7l85 48q32 19 60 19t50.5 -26t22.5 -60.5t-8 -66.5h-36z" />
    <glyph glyph-name="ograve" unicode="&#xf2;" horiz-adv-x="660" 
d="M65 250q0 112 73.5 188.5t191.5 76.5t191.5 -76.5t73.5 -188.5t-73.5 -188.5t-191.5 -76.5t-191.5 76.5t-73.5 188.5zM220 250q0 -98 28 -160.5t83 -62.5t83 62.5t28 160.5t-28 160.5t-83 62.5t-83 -62.5t-28 -160.5zM220.5 750.5q16.5 14.5 36 14.5t33 -7t22 -15.5
t25.5 -27.5l119 -132l-21 -24l-148 73q-47 23 -65 40.5t-18 40.5t16.5 37.5z" />
    <glyph glyph-name="oacute" unicode="&#xf3;" horiz-adv-x="660" 
d="M65 250q0 112 73.5 188.5t191.5 76.5t191.5 -76.5t73.5 -188.5t-73.5 -188.5t-191.5 -76.5t-191.5 76.5t-73.5 188.5zM220 250q0 -98 28 -160.5t83 -62.5t83 62.5t28 160.5t-28 160.5t-83 62.5t-83 -62.5t-28 -160.5zM408.5 758q13.5 7 33 7t36 -14.5t16.5 -37.5
t-18 -40.5t-65 -40.5l-148 -73l-21 24l119 132q17 19 25.5 27.5t22 15.5z" />
    <glyph glyph-name="ocircumflex" unicode="&#xf4;" horiz-adv-x="660" 
d="M65 250q0 112 73.5 188.5t191.5 76.5t191.5 -76.5t73.5 -188.5t-73.5 -188.5t-191.5 -76.5t-191.5 76.5t-73.5 188.5zM220 250q0 -98 28 -160.5t83 -62.5t83 62.5t28 160.5t-28 160.5t-83 62.5t-83 -62.5t-28 -160.5zM330 765q30 0 58 -38l108 -144l-21 -24l-141 95h-8
l-141 -95l-21 24l108 144q28 38 58 38z" />
    <glyph glyph-name="otilde" unicode="&#xf5;" horiz-adv-x="660" 
d="M65 250q0 112 73.5 188.5t191.5 76.5t191.5 -76.5t73.5 -188.5t-73.5 -188.5t-191.5 -76.5t-191.5 76.5t-73.5 188.5zM220 250q0 -98 28 -160.5t83 -62.5t83 62.5t28 160.5t-28 160.5t-83 62.5t-83 -62.5t-28 -160.5zM442 609v15q0 39 -28 39q-12 0 -23 -7l-85 -48
q-32 -19 -60 -19t-50.5 26t-22.5 60.5t8 66.5h36v-15q0 -39 28 -39q12 0 23 7l85 48q32 19 60 19t50.5 -26t22.5 -60.5t-8 -66.5h-36z" />
    <glyph glyph-name="odieresis" unicode="&#xf6;" horiz-adv-x="660" 
d="M65 250q0 112 73.5 188.5t191.5 76.5t191.5 -76.5t73.5 -188.5t-73.5 -188.5t-191.5 -76.5t-191.5 76.5t-73.5 188.5zM220 250q0 -98 28 -160.5t83 -62.5t83 62.5t28 160.5t-28 160.5t-83 62.5t-83 -62.5t-28 -160.5zM139 670q0 32 22.5 54t53.5 22t53.5 -22t22.5 -54
t-22.5 -54t-53.5 -22t-53.5 22t-22.5 54zM369 670q0 32 22.5 54t53.5 22t53.5 -22t22.5 -54t-22.5 -54t-53.5 -22t-53.5 22t-22.5 54z" />
    <glyph glyph-name="divide" unicode="&#xf7;" horiz-adv-x="560" 
d="M90 320v60h380v-60h-380zM218 522q0 26 18 43.5t44 17.5t43.5 -17.5t17.5 -43.5t-17.5 -44t-43.5 -18t-44 18t-18 44zM218 179q0 26 18 43.5t44 17.5t43.5 -18t17.5 -43.5t-17.5 -43.5t-43.5 -18t-44 18t-18 44z" />
    <glyph glyph-name="oslash" unicode="&#xf8;" horiz-adv-x="660" 
d="M595 250q0 -112 -73.5 -188.5t-191.5 -76.5q-16 0 -46 4l-46 -170h-49l48 181q-80 26 -126 94t-46 156q0 112 73.5 188.5t191.5 76.5q16 0 46 -4l45 167h50l-49 -178q80 -27 126.5 -95t46.5 -155zM414 89.5q28 62.5 28 172t-39 168.5l-107 -395q18 -8 35 -8q55 0 83 62.5
zM248 410.5q-28 -62.5 -28 -171.5t37 -167l106 394q-17 7 -32 7q-55 0 -83 -62.5z" />
    <glyph glyph-name="ugrave" unicode="&#xf9;" 
d="M274 454v-343q0 -31 19 -48t53 -17t66 28t32 73v353h150v-389q0 -27 13 -42.5t40 -15.5t62 29l18 -24q-80 -73 -163 -73t-110 74q-39 -41 -80.5 -57.5t-106 -16.5t-104 39.5t-39.5 107.5v335q-55 -14 -84 -49l-27 31q29 30 73.5 48t88 18t71.5 -17.5t28 -43.5z
M223.5 750.5q16.5 14.5 36 14.5t33 -7t22 -15.5t25.5 -27.5l119 -132l-21 -24l-148 73q-47 23 -65 40.5t-18 40.5t16.5 37.5z" />
    <glyph glyph-name="uacute" unicode="&#xfa;" 
d="M274 454v-343q0 -31 19 -48t53 -17t66 28t32 73v353h150v-389q0 -27 13 -42.5t40 -15.5t62 29l18 -24q-80 -73 -163 -73t-110 74q-39 -41 -80.5 -57.5t-106 -16.5t-104 39.5t-39.5 107.5v335q-55 -14 -84 -49l-27 31q29 30 73.5 48t88 18t71.5 -17.5t28 -43.5zM431.5 758
q13.5 7 33 7t36 -14.5t16.5 -37.5t-18 -40.5t-65 -40.5l-148 -73l-21 24l119 132q17 19 25.5 27.5t22 15.5z" />
    <glyph glyph-name="ucircumflex" unicode="&#xfb;" 
d="M274 454v-343q0 -31 19 -48t53 -17t66 28t32 73v353h150v-389q0 -27 13 -42.5t40 -15.5t62 29l18 -24q-80 -73 -163 -73t-110 74q-39 -41 -80.5 -57.5t-106 -16.5t-104 39.5t-39.5 107.5v335q-55 -14 -84 -49l-27 31q29 30 73.5 48t88 18t71.5 -17.5t28 -43.5zM353 765
q30 0 58 -38l108 -144l-21 -24l-141 95h-8l-141 -95l-21 24l108 144q28 38 58 38z" />
    <glyph glyph-name="udieresis" unicode="&#xfc;" 
d="M274 454v-343q0 -31 19 -48t53 -17t66 28t32 73v353h150v-389q0 -27 13 -42.5t40 -15.5t62 29l18 -24q-80 -73 -163 -73t-110 74q-39 -41 -80.5 -57.5t-106 -16.5t-104 39.5t-39.5 107.5v335q-55 -14 -84 -49l-27 31q29 30 73.5 48t88 18t71.5 -17.5t28 -43.5zM162 670
q0 32 22 54t54 22t54 -22t22 -54t-22 -54t-54 -22t-54 22t-22 54zM392 670q0 32 22 54t54 22t54 -22t22 -54t-22 -54t-54 -22t-54 22t-22 54z" />
    <glyph glyph-name="yacute" unicode="&#xfd;" horiz-adv-x="627" 
d="M86.5 497q44.5 18 88 18t71.5 -17.5t28 -43.5v-303q0 -32 20 -48.5t50 -16.5q64 0 109.5 55t45.5 141q0 48 -19 101q-18 -12 -46 -12t-50.5 22.5t-22.5 54.5t22.5 54.5t56.5 22.5t58.5 -25.5t35.5 -67.5q18 -73 18 -161.5t-20.5 -177.5t-54 -153t-75.5 -111
q-86 -94 -175 -94q-24 0 -39.5 10.5t-35.5 38.5l-52 72l26 27q48 -8 84 -8q112 0 183 71t112 231q-62 -172 -228 -172q-64 0 -108.5 43.5t-44.5 123.5v295q-55 -14 -84 -49l-27 31q29 30 73.5 48zM372.5 758q13.5 7 33 7t36 -14.5t16.5 -37.5t-18 -40.5t-65 -40.5l-148 -73
l-21 24l119 132q17 19 25.5 27.5t22 15.5z" />
    <glyph glyph-name="thorn" unicode="&#xfe;" horiz-adv-x="709" 
d="M409 515q115 0 175 -74.5t60 -190t-64.5 -190.5t-180.5 -75q-86 0 -137 77v-312h-151v968q-56 -15 -84 -50l-27 31q29 30 73.5 48t88 18t71.5 -17.5t28 -43.5l1 -268q53 79 147 79zM489 250q0 96 -28 152t-85.5 56t-88 -56.5t-30.5 -151.5t30.5 -151.5t88 -56.5t85.5 56
t28 152z" />
    <glyph glyph-name="ydieresis" unicode="&#xff;" horiz-adv-x="627" 
d="M86.5 497q44.5 18 88 18t71.5 -17.5t28 -43.5v-303q0 -32 20 -48.5t50 -16.5q64 0 109.5 55t45.5 141q0 48 -19 101q-18 -12 -46 -12t-50.5 22.5t-22.5 54.5t22.5 54.5t56.5 22.5t58.5 -25.5t35.5 -67.5q18 -73 18 -161.5t-20.5 -177.5t-54 -153t-75.5 -111
q-86 -94 -175 -94q-24 0 -39.5 10.5t-35.5 38.5l-52 72l26 27q48 -8 84 -8q112 0 183 71t112 231q-62 -172 -228 -172q-64 0 -108.5 43.5t-44.5 123.5v295q-55 -14 -84 -49l-27 31q29 30 73.5 48zM121 670q0 32 22.5 54t53.5 22t53.5 -22t22.5 -54t-22.5 -54t-53.5 -22
t-53.5 22t-22.5 54zM351 670q0 32 22.5 54t53.5 22t53.5 -22t22.5 -54t-22.5 -54t-53.5 -22t-53.5 22t-22.5 54z" />
    <glyph glyph-name="Amacron" unicode="&#x100;" horiz-adv-x="656" 
d="M169 660v40h238l199 -660h50v-40h-258v40h58l-37 123h-272l-36 -123h58v-40h-169v40h50l187 620h-68zM282 617l-121 -409h244zM181 900h294v-88h-294v88z" />
    <glyph glyph-name="amacron" unicode="&#x101;" horiz-adv-x="710" 
d="M597 500v-389q0 -27 13 -42.5t40 -15.5t62 29l18 -24q-80 -73 -160 -73q-95 0 -117 89q-52 -89 -153 -89q-115 0 -175 74.5t-60 190t64.5 190.5t180.5 75q89 0 137 -71v56h150zM220 250q0 -96 28 -152t85.5 -56t88 56.5t30.5 151.5t-30.5 151.5t-88 56.5t-85.5 -56
t-28 -152zM208 700h294v-88h-294v88z" />
    <glyph glyph-name="Abreve" unicode="&#x102;" horiz-adv-x="656" 
d="M169 660v40h238l199 -660h50v-40h-258v40h58l-37 123h-272l-36 -123h58v-40h-169v40h50l187 620h-68zM282 617l-121 -409h244zM288 878q19 -8 42.5 -8t50 18t38.5 32.5t30 39.5l45 -29q-50 -91 -87 -126.5t-79 -35.5t-79 35.5t-87 126.5l44 29q49 -67 82 -82z" />
    <glyph glyph-name="abreve" unicode="&#x103;" horiz-adv-x="710" 
d="M597 500v-389q0 -27 13 -42.5t40 -15.5t62 29l18 -24q-80 -73 -160 -73q-95 0 -117 89q-52 -89 -153 -89q-115 0 -175 74.5t-60 190t64.5 190.5t180.5 75q89 0 137 -71v56h150zM220 250q0 -96 28 -152t85.5 -56t88 56.5t30.5 151.5t-30.5 151.5t-88 56.5t-85.5 -56
t-28 -152zM315 678q19 -8 42.5 -8t50 18t38.5 32.5t30 39.5l45 -29q-50 -91 -87 -126.5t-79 -35.5t-79 35.5t-87 126.5l44 29q49 -67 82 -82z" />
    <glyph glyph-name="Aogonek" unicode="&#x104;" horiz-adv-x="656" 
d="M398 0v40h58l-37 123h-272l-36 -123h58v-40h-169v40h50l187 620h-68v40h238l199 -660h50v-40h-48l-8 -8q-38 -38 -50 -62.5t-12 -52t16.5 -42t47.5 -14.5t61 28l17 -29q-48 -58 -124 -58q-47 0 -78 23.5t-31 71.5q0 24 15 48.5t30 38t42 35.5l26 21h-162zM282 617
l-121 -409h244z" />
    <glyph glyph-name="aogonek" unicode="&#x105;" horiz-adv-x="710" 
d="M597 500v-389q0 -27 13 -42.5t40 -15.5t62 29l18 -24l-66 -66q-38 -38 -50 -62.5t-12 -52t16.5 -42t47.5 -14.5t61 28l17 -29q-48 -58 -124 -58q-47 0 -78 23.5t-31 65t20.5 70t56.5 58.5l9 8q-18 -2 -27 -2q-95 0 -117 89q-52 -89 -153 -89q-115 0 -175 74.5t-60 190
t64.5 190.5t180.5 75q89 0 137 -71v56h150zM220 250q0 -96 28 -152t85.5 -56t88 56.5t30.5 151.5t-30.5 151.5t-88 56.5t-85.5 -56t-28 -152z" />
    <glyph glyph-name="Cacute" unicode="&#x106;" horiz-adv-x="650" 
d="M382 668q-87 0 -132 -89.5t-45 -223.5t47.5 -219t136.5 -85q50 0 92 21t63.5 44t45.5 58l35 -25q-48 -77 -107.5 -120.5t-152.5 -43.5q-139 0 -227 105t-88 261t88 260t244 104q81 0 156 -32t75 -76q0 -17 -11 -39l-60 -116l-36 11l9 62q4 24 4 46q0 39 -38 68t-99 29z
M415.5 958q13.5 7 33 7t36 -14.5t16.5 -37.5t-18 -40.5t-65 -40.5l-148 -73l-21 24l119 132q17 19 25.5 27.5t22 15.5z" />
    <glyph glyph-name="cacute" unicode="&#x107;" horiz-adv-x="562" 
d="M331 -15q-119 0 -192.5 76.5t-73.5 188.5t73.5 188.5t191.5 76.5q66 0 129 -38t63 -103q0 -33 -23.5 -56.5t-56.5 -23.5t-56.5 23.5t-23.5 53.5t16 51t42 29q-28 12 -64 12q-67 0 -101.5 -59.5t-34.5 -151t34.5 -148.5t101.5 -57q90 0 153 75l28 -18q-33 -54 -86.5 -86.5
t-119.5 -32.5zM371.5 758q13.5 7 33 7t36 -14.5t16.5 -37.5t-18 -40.5t-65 -40.5l-148 -73l-21 24l119 132q17 19 25.5 27.5t22 15.5z" />
    <glyph glyph-name="Ccircumflex" unicode="&#x108;" horiz-adv-x="650" 
d="M382 668q-87 0 -132 -89.5t-45 -223.5t47.5 -219t136.5 -85q50 0 92 21t63.5 44t45.5 58l35 -25q-48 -77 -107.5 -120.5t-152.5 -43.5q-139 0 -227 105t-88 261t88 260t244 104q81 0 156 -32t75 -76q0 -17 -11 -39l-60 -116l-36 11l9 62q4 24 4 46q0 39 -38 68t-99 29z
M375 965q30 0 58 -38l108 -144l-21 -24l-141 95h-8l-141 -95l-21 24l108 144q28 38 58 38z" />
    <glyph glyph-name="ccircumflex" unicode="&#x109;" horiz-adv-x="562" 
d="M331 -15q-119 0 -192.5 76.5t-73.5 188.5t73.5 188.5t191.5 76.5q66 0 129 -38t63 -103q0 -33 -23.5 -56.5t-56.5 -23.5t-56.5 23.5t-23.5 53.5t16 51t42 29q-28 12 -64 12q-67 0 -101.5 -59.5t-34.5 -151t34.5 -148.5t101.5 -57q90 0 153 75l28 -18q-33 -54 -86.5 -86.5
t-119.5 -32.5zM311 765q30 0 58 -38l108 -144l-21 -24l-141 95h-8l-141 -95l-21 24l108 144q28 38 58 38z" />
    <glyph glyph-name="Cdotaccent" unicode="&#x10a;" horiz-adv-x="650" 
d="M382 668q-87 0 -132 -89.5t-45 -223.5t47.5 -219t136.5 -85q50 0 92 21t63.5 44t45.5 58l35 -25q-48 -77 -107.5 -120.5t-152.5 -43.5q-139 0 -227 105t-88 261t88 260t244 104q81 0 156 -32t75 -76q0 -17 -11 -39l-60 -116l-36 11l9 62q4 24 4 46q0 39 -38 68t-99 29z
M295 870q0 33 23.5 56.5t56.5 23.5t56.5 -23.5t23.5 -56.5t-23.5 -56.5t-56.5 -23.5t-56.5 23.5t-23.5 56.5z" />
    <glyph glyph-name="cdotaccent" unicode="&#x10b;" horiz-adv-x="562" 
d="M331 -15q-119 0 -192.5 76.5t-73.5 188.5t73.5 188.5t191.5 76.5q66 0 129 -38t63 -103q0 -33 -23.5 -56.5t-56.5 -23.5t-56.5 23.5t-23.5 53.5t16 51t42 29q-28 12 -64 12q-67 0 -101.5 -59.5t-34.5 -151t34.5 -148.5t101.5 -57q90 0 153 75l28 -18q-33 -54 -86.5 -86.5
t-119.5 -32.5zM251 670q0 33 23.5 56.5t56.5 23.5t56.5 -23.5t23.5 -56.5t-23.5 -56.5t-56.5 -23.5t-56.5 23.5t-23.5 56.5z" />
    <glyph glyph-name="Ccaron" unicode="&#x10c;" horiz-adv-x="650" 
d="M382 668q-87 0 -132 -89.5t-45 -223.5t47.5 -219t136.5 -85q50 0 92 21t63.5 44t45.5 58l35 -25q-48 -77 -107.5 -120.5t-152.5 -43.5q-139 0 -227 105t-88 261t88 260t244 104q81 0 156 -32t75 -76q0 -17 -11 -39l-60 -116l-36 11l9 62q4 24 4 46q0 39 -38 68t-99 29z
M375 759q-30 0 -58 38l-108 144l21 24l141 -95h8l141 95l21 -24l-108 -144q-28 -38 -58 -38z" />
    <glyph glyph-name="ccaron" unicode="&#x10d;" horiz-adv-x="562" 
d="M331 -15q-119 0 -192.5 76.5t-73.5 188.5t73.5 188.5t191.5 76.5q66 0 129 -38t63 -103q0 -33 -23.5 -56.5t-56.5 -23.5t-56.5 23.5t-23.5 53.5t16 51t42 29q-28 12 -64 12q-67 0 -101.5 -59.5t-34.5 -151t34.5 -148.5t101.5 -57q90 0 153 75l28 -18q-33 -54 -86.5 -86.5
t-119.5 -32.5zM331 559q-30 0 -58 38l-108 144l21 24l141 -95h8l141 95l21 -24l-108 -144q-28 -38 -58 -38z" />
    <glyph glyph-name="Dcaron" unicode="&#x10e;" horiz-adv-x="782" 
d="M70 700h270q180 0 291 -97.5t111 -252t-111 -252.5t-291 -98h-270v40h80v620h-80v40zM340 660h-40v-620h40q116 0 181.5 83.5t65.5 226.5t-65.5 226.5t-181.5 83.5zM391 759q-30 0 -58 38l-108 144l21 24l141 -95h8l141 95l21 -24l-108 -144q-28 -38 -58 -38z" />
    <glyph glyph-name="dcaron" unicode="&#x10f;" horiz-adv-x="710" 
d="M597 704v-593q0 -27 13 -42.5t37.5 -15.5t59.5 29l23 -24q-80 -73 -160 -73q-95 0 -117 89q-52 -89 -153 -89q-115 0 -175 74.5t-60 190t64.5 190.5t180.5 75q89 0 137 -71v273q-55 -14 -84 -49l-27 31q29 30 73.5 48t88 18t71.5 -17.5t28 -43.5zM220 250q0 -96 28 -152
t85.5 -56t88 56.5t30.5 151.5t-30.5 151.5t-88 56.5t-85.5 -56t-28 -152zM687.5 664.5q-25.5 29.5 -25.5 58t19.5 48t48 19.5t47.5 -22t19 -67t-27.5 -100.5t-77.5 -100.5l-22 22q44 51 44 90q0 23 -25.5 52.5z" />
    <glyph glyph-name="Dcroat" unicode="&#x110;" horiz-adv-x="782" 
d="M70 273v45h80v342h-80v40h270q180 0 291 -97.5t111 -252t-111 -252.5t-291 -98h-270v40h80v233h-80zM340 660h-40v-342h150v-45h-150v-233h40q116 0 181.5 83.5t65.5 226.5t-65.5 226.5t-181.5 83.5z" />
    <glyph glyph-name="dcroat" unicode="&#x111;" horiz-adv-x="710" 
d="M330 568v45h117v104q-55 -14 -84 -49l-27 31q29 30 73.5 48t88 18t71.5 -17.5t28 -43.5v-91h113v-45h-113v-457q0 -27 13 -42.5t37.5 -15.5t59.5 29l23 -24q-80 -73 -160 -73q-95 0 -117 89q-52 -89 -153 -89q-115 0 -175 74.5t-60 190t64.5 190.5t180.5 75q89 0 137 -71
v124h-117zM220 250q0 -96 28 -152t85.5 -56t88 56.5t30.5 151.5t-30.5 151.5t-88 56.5t-85.5 -56t-28 -152z" />
    <glyph glyph-name="Emacron" unicode="&#x112;" horiz-adv-x="630" 
d="M519 0h-449v40h60v620h-60v40h429q22 0 32.5 -1.5t19.5 -11t9 -29.5l-27 -168h-39l-20 99q-9 45 -33.5 58t-90.5 13h-70v-342h230v-45h-230v-233h90q65 0 89.5 13t34.5 58l20 89h39l27 -158q0 -20 -9 -29.5t-19.5 -11t-32.5 -1.5zM188 900h294v-88h-294v88z" />
    <glyph glyph-name="emacron" unicode="&#x113;" horiz-adv-x="597" 
d="M374.5 280.5q35.5 43.5 35.5 88t-19.5 68.5t-59 24t-75.5 -56t-36 -150t34 -151t97 -57q96 0 163 75l28 -18q-34 -54 -90 -86.5t-126 -32.5q-119 0 -190 78.5t-71 189.5t75.5 186.5t209.5 75.5q88 0 138 -41t50 -104t-55.5 -116.5t-146.5 -53.5q-31 0 -60 7l-2 24
q65 6 100.5 49.5zM181 700h294v-88h-294v88z" />
    <glyph glyph-name="Ebreve" unicode="&#x114;" horiz-adv-x="630" 
d="M519 0h-449v40h60v620h-60v40h429q22 0 32.5 -1.5t19.5 -11t9 -29.5l-27 -168h-39l-20 99q-9 45 -33.5 58t-90.5 13h-70v-342h230v-45h-230v-233h90q65 0 89.5 13t34.5 58l20 89h39l27 -158q0 -20 -9 -29.5t-19.5 -11t-32.5 -1.5zM295 878q19 -8 42.5 -8t50 18t38.5 32.5
t30 39.5l45 -29q-50 -91 -87 -126.5t-79 -35.5t-79 35.5t-87 126.5l44 29q49 -67 82 -82z" />
    <glyph glyph-name="ebreve" unicode="&#x115;" horiz-adv-x="597" 
d="M374.5 280.5q35.5 43.5 35.5 88t-19.5 68.5t-59 24t-75.5 -56t-36 -150t34 -151t97 -57q96 0 163 75l28 -18q-34 -54 -90 -86.5t-126 -32.5q-119 0 -190 78.5t-71 189.5t75.5 186.5t209.5 75.5q88 0 138 -41t50 -104t-55.5 -116.5t-146.5 -53.5q-31 0 -60 7l-2 24
q65 6 100.5 49.5zM288 678q19 -8 42.5 -8t50 18t38.5 32.5t30 39.5l45 -29q-50 -91 -87 -126.5t-79 -35.5t-79 35.5t-87 126.5l44 29q49 -67 82 -82z" />
    <glyph glyph-name="Edotaccent" unicode="&#x116;" horiz-adv-x="630" 
d="M519 0h-449v40h60v620h-60v40h429q22 0 32.5 -1.5t19.5 -11t9 -29.5l-27 -168h-39l-20 99q-9 45 -33.5 58t-90.5 13h-70v-342h230v-45h-230v-233h90q65 0 89.5 13t34.5 58l20 89h39l27 -158q0 -20 -9 -29.5t-19.5 -11t-32.5 -1.5zM255 870q0 33 23.5 56.5t56.5 23.5
t56.5 -23.5t23.5 -56.5t-23.5 -56.5t-56.5 -23.5t-56.5 23.5t-23.5 56.5z" />
    <glyph glyph-name="edotaccent" unicode="&#x117;" horiz-adv-x="597" 
d="M374.5 280.5q35.5 43.5 35.5 88t-19.5 68.5t-59 24t-75.5 -56t-36 -150t34 -151t97 -57q96 0 163 75l28 -18q-34 -54 -90 -86.5t-126 -32.5q-119 0 -190 78.5t-71 189.5t75.5 186.5t209.5 75.5q88 0 138 -41t50 -104t-55.5 -116.5t-146.5 -53.5q-31 0 -60 7l-2 24
q65 6 100.5 49.5zM248 670q0 33 23.5 56.5t56.5 23.5t56.5 -23.5t23.5 -56.5t-23.5 -56.5t-56.5 -23.5t-56.5 23.5t-23.5 56.5z" />
    <glyph glyph-name="Eogonek" unicode="&#x118;" horiz-adv-x="630" 
d="M519 0h-11l-8 -8q-38 -38 -50 -62.5t-12 -52t16.5 -42t47.5 -14.5t61 28l17 -29q-48 -58 -124 -58q-47 0 -78 23.5t-31 65t20.5 70t56.5 58.5l25 21h-379v40h60v620h-60v40h429q22 0 32.5 -1.5t19.5 -11t9 -29.5l-27 -168h-39l-20 99q-9 45 -33.5 58t-90.5 13h-70v-342
h230v-45h-230v-233h90q65 0 89.5 13t34.5 58l20 89h39l27 -158q0 -20 -9 -29.5t-19.5 -11t-32.5 -1.5z" />
    <glyph glyph-name="eogonek" unicode="&#x119;" horiz-adv-x="597" 
d="M374.5 280.5q35.5 43.5 35.5 88t-19.5 68.5t-59 24t-75.5 -56t-36 -150t34 -151t97 -57q96 0 163 75l28 -18q-18 -28 -43 -52l-60 -60q-38 -38 -50 -62.5t-12 -52t16.5 -42t47.5 -14.5t61 28l17 -29q-48 -58 -124 -58q-47 0 -78 23.5t-31 65t20.5 70t56.5 58.5l13 11
q-27 -5 -50 -5q-119 0 -190 78.5t-71 189.5t75.5 186.5t209.5 75.5q88 0 138 -41t50 -104t-55.5 -116.5t-146.5 -53.5q-31 0 -60 7l-2 24q65 6 100.5 49.5z" />
    <glyph glyph-name="Ecaron" unicode="&#x11a;" horiz-adv-x="630" 
d="M519 0h-449v40h60v620h-60v40h429q22 0 32.5 -1.5t19.5 -11t9 -29.5l-27 -168h-39l-20 99q-9 45 -33.5 58t-90.5 13h-70v-342h230v-45h-230v-233h90q65 0 89.5 13t34.5 58l20 89h39l27 -158q0 -20 -9 -29.5t-19.5 -11t-32.5 -1.5zM335 759q-30 0 -58 38l-108 144l21 24
l141 -95h8l141 95l21 -24l-108 -144q-28 -38 -58 -38z" />
    <glyph glyph-name="ecaron" unicode="&#x11b;" horiz-adv-x="597" 
d="M374.5 280.5q35.5 43.5 35.5 88t-19.5 68.5t-59 24t-75.5 -56t-36 -150t34 -151t97 -57q96 0 163 75l28 -18q-34 -54 -90 -86.5t-126 -32.5q-119 0 -190 78.5t-71 189.5t75.5 186.5t209.5 75.5q88 0 138 -41t50 -104t-55.5 -116.5t-146.5 -53.5q-31 0 -60 7l-2 24
q65 6 100.5 49.5zM328 559q-30 0 -58 38l-108 144l21 24l141 -95h8l141 95l21 -24l-108 -144q-28 -38 -58 -38z" />
    <glyph glyph-name="Gcircumflex" unicode="&#x11c;" horiz-adv-x="700" 
d="M350 273v45h285v-340q0 -110 -66 -162.5t-178 -52.5q-66 0 -126.5 33.5t-60.5 91.5q0 11 7 32l34 88q-88 39 -141.5 132t-53.5 209q0 158 90.5 262t251.5 104q81 0 156 -32t75 -76q0 -17 -11 -39l-56 -92l-36 12l5 37q4 24 4 46q0 39 -38 68t-99 29q-92 0 -139.5 -89.5
t-47.5 -224t51.5 -219t150.5 -84.5q40 0 78 16v206h-135zM355 -15q-35 0 -67 9v-31q0 -114 48 -141q22 -12 60.5 -12t63.5 27.5t25 82.5v91q-60 -26 -130 -26zM380 965q30 0 58 -38l108 -144l-21 -24l-141 95h-8l-141 -95l-21 24l108 144q28 38 58 38z" />
    <glyph glyph-name="gcircumflex" unicode="&#x11d;" horiz-adv-x="620" 
d="M419 -132h-185q-147 0 -147 123q0 67 74 151q-81 59 -81 163q0 89 65 149.5t170 60.5q76 0 135 -35q43 39 59 102l39 -10q-18 -70 -66 -116q68 -62 68 -151t-65 -149.5t-170 -60.5q-72 0 -125 29q-35 -49 -35 -74q0 -50 58 -50h185q147 0 147 -108q0 -77 -73 -157l-24 23
q29 35 29 59.5t-15.5 37.5t-42.5 13zM235 305q0 -74 20.5 -121t60.5 -47t60.5 47t20.5 121t-20.5 121t-60.5 47t-60.5 -47t-20.5 -121zM320 765q30 0 58 -38l108 -144l-21 -24l-141 95h-8l-141 -95l-21 24l108 144q28 38 58 38z" />
    <glyph glyph-name="Gbreve" unicode="&#x11e;" horiz-adv-x="700" 
d="M350 273v45h285v-340q0 -110 -66 -162.5t-178 -52.5q-66 0 -126.5 33.5t-60.5 91.5q0 11 7 32l34 88q-88 39 -141.5 132t-53.5 209q0 158 90.5 262t251.5 104q81 0 156 -32t75 -76q0 -17 -11 -39l-56 -92l-36 12l5 37q4 24 4 46q0 39 -38 68t-99 29q-92 0 -139.5 -89.5
t-47.5 -224t51.5 -219t150.5 -84.5q40 0 78 16v206h-135zM355 -15q-35 0 -67 9v-31q0 -114 48 -141q22 -12 60.5 -12t63.5 27.5t25 82.5v91q-60 -26 -130 -26zM340 878q19 -8 42.5 -8t50 18t38.5 32.5t30 39.5l45 -29q-50 -91 -87 -126.5t-79 -35.5t-79 35.5t-87 126.5
l44 29q49 -67 82 -82z" />
    <glyph glyph-name="gbreve" unicode="&#x11f;" horiz-adv-x="620" 
d="M419 -132h-185q-147 0 -147 123q0 67 74 151q-81 59 -81 163q0 89 65 149.5t170 60.5q76 0 135 -35q43 39 59 102l39 -10q-18 -70 -66 -116q68 -62 68 -151t-65 -149.5t-170 -60.5q-72 0 -125 29q-35 -49 -35 -74q0 -50 58 -50h185q147 0 147 -108q0 -77 -73 -157l-24 23
q29 35 29 59.5t-15.5 37.5t-42.5 13zM235 305q0 -74 20.5 -121t60.5 -47t60.5 47t20.5 121t-20.5 121t-60.5 47t-60.5 -47t-20.5 -121zM280 678q19 -8 42.5 -8t50 18t38.5 32.5t30 39.5l45 -29q-50 -91 -87 -126.5t-79 -35.5t-79 35.5t-87 126.5l44 29q49 -67 82 -82z" />
    <glyph glyph-name="Gdotaccent" unicode="&#x120;" horiz-adv-x="700" 
d="M350 273v45h285v-340q0 -110 -66 -162.5t-178 -52.5q-66 0 -126.5 33.5t-60.5 91.5q0 11 7 32l34 88q-88 39 -141.5 132t-53.5 209q0 158 90.5 262t251.5 104q81 0 156 -32t75 -76q0 -17 -11 -39l-56 -92l-36 12l5 37q4 24 4 46q0 39 -38 68t-99 29q-92 0 -139.5 -89.5
t-47.5 -224t51.5 -219t150.5 -84.5q40 0 78 16v206h-135zM355 -15q-35 0 -67 9v-31q0 -114 48 -141q22 -12 60.5 -12t63.5 27.5t25 82.5v91q-60 -26 -130 -26zM300 870q0 33 23.5 56.5t56.5 23.5t56.5 -23.5t23.5 -56.5t-23.5 -56.5t-56.5 -23.5t-56.5 23.5t-23.5 56.5z" />
    <glyph glyph-name="gdotaccent" unicode="&#x121;" horiz-adv-x="620" 
d="M419 -132h-185q-147 0 -147 123q0 67 74 151q-81 59 -81 163q0 89 65 149.5t170 60.5q76 0 135 -35q43 39 59 102l39 -10q-18 -70 -66 -116q68 -62 68 -151t-65 -149.5t-170 -60.5q-72 0 -125 29q-35 -49 -35 -74q0 -50 58 -50h185q147 0 147 -108q0 -77 -73 -157l-24 23
q29 35 29 59.5t-15.5 37.5t-42.5 13zM235 305q0 -74 20.5 -121t60.5 -47t60.5 47t20.5 121t-20.5 121t-60.5 47t-60.5 -47t-20.5 -121zM240 670q0 33 23.5 56.5t56.5 23.5t56.5 -23.5t23.5 -56.5t-23.5 -56.5t-56.5 -23.5t-56.5 23.5t-23.5 56.5z" />
    <glyph glyph-name="uni0122" unicode="&#x122;" horiz-adv-x="700" 
d="M350 273v45h285v-318h-55l-36 49q-75 -64 -189 -64q-130 0 -217.5 106t-87.5 261t90.5 259t251.5 104q81 0 156 -32t75 -76q0 -17 -11 -39l-56 -92l-36 12l5 37q4 24 4 46q0 39 -38 68t-99 29q-92 0 -139.5 -89.5t-47.5 -224t51.5 -219t150.5 -84.5q40 0 78 16v206h-135z
M308.5 -179.5q-25.5 29.5 -25.5 58t19.5 48t48 19.5t47.5 -22t19 -67t-27.5 -100.5t-77.5 -100.5l-22 22q44 51 44 90q0 23 -25.5 52.5z" />
    <glyph glyph-name="uni0123" unicode="&#x123;" horiz-adv-x="620" 
d="M419 -132h-185q-147 0 -147 123q0 67 74 151q-81 59 -81 163q0 89 65 149.5t170 60.5q76 0 135 -35q43 39 59 102l39 -10q-18 -70 -66 -116q68 -62 68 -151t-65 -149.5t-170 -60.5q-72 0 -125 29q-35 -49 -35 -74q0 -50 58 -50h185q147 0 147 -108q0 -77 -73 -157l-24 23
q29 35 29 59.5t-15.5 37.5t-42.5 13zM235 305q0 -74 20.5 -121t60.5 -47t60.5 47t20.5 121t-20.5 121t-60.5 47t-60.5 -47t-20.5 -121zM351.5 707.5q25.5 -29.5 25.5 -58t-19.5 -48t-48 -19.5t-47.5 22t-19 67t27.5 100.5t77.5 100.5l22 -22q-44 -51 -44 -90
q0 -23 25.5 -52.5z" />
    <glyph glyph-name="Hcircumflex" unicode="&#x124;" horiz-adv-x="810" 
d="M680 660v-620h60v-40h-270v40h60v233h-250v-233h60v-40h-270v40h60v620h-60v40h270v-40h-60v-342h250v342h-60v40h270v-40h-60zM405 965q30 0 58 -38l108 -144l-21 -24l-141 95h-8l-141 -95l-21 24l108 144q28 38 58 38z" />
    <glyph glyph-name="hcircumflex" unicode="&#x125;" horiz-adv-x="694" 
d="M261 704v-257q35 38 75.5 53t103 15t102 -39.5t39.5 -107.5v-257q0 -27 13 -42.5t40 -15.5t62 29l18 -24q-80 -73 -160 -73q-123 0 -123 147v257q0 31 -19 48t-53 17t-66 -28t-32 -73v-353h-150v717q-55 -14 -84 -49l-27 31q29 30 73.5 48t88 18t71.5 -17.5t28 -43.5z
M185 995q30 0 58 -38l108 -144l-21 -24l-141 95h-8l-141 -95l-21 24l108 144q28 38 58 38z" />
    <glyph glyph-name="Hbar" unicode="&#x126;" horiz-adv-x="810" 
d="M25 455v45h105v160h-60v40h270v-40h-60v-160h250v160h-60v40h270v-40h-60v-160h95v-45h-95v-415h60v-40h-270v40h60v233h-250v-233h60v-40h-270v40h60v415h-105zM280 318h250v137h-250v-137z" />
    <glyph glyph-name="hbar" unicode="&#x127;" horiz-adv-x="694" 
d="M1 568v45h110v104q-55 -14 -84 -49l-27 31q29 30 73.5 48t88 18t71.5 -17.5t28 -43.5v-91h120v-45h-120v-121q35 38 75.5 53t103 15t102 -39.5t39.5 -107.5v-257q0 -27 13 -42.5t40 -15.5t62 29l18 -24q-80 -73 -160 -73q-123 0 -123 147v257q0 31 -19 48t-53 17t-66 -28
t-32 -73v-353h-150v568h-110z" />
    <glyph glyph-name="Itilde" unicode="&#x128;" horiz-adv-x="410" 
d="M60 660v40h290v-40h-70v-620h70v-40h-290v40h70v620h-70zM318 809v15q0 39 -28 39q-12 0 -23 -7l-85 -48q-32 -19 -60 -19t-50.5 26t-22.5 60.5t8 66.5h36v-15q0 -39 28 -39q12 0 23 7l85 48q32 19 60 19t50.5 -26t22.5 -60.5t-8 -66.5h-36z" />
    <glyph glyph-name="itilde" unicode="&#x129;" horiz-adv-x="399" 
d="M192 515q94 0 94 -81v-323q0 -27 13 -42.5t40 -15.5t62 29l18 -24q-80 -73 -160 -73q-123 0 -123 147v335q-55 -14 -84 -49l-27 31q29 30 73.5 48t93.5 18zM312 609v15q0 39 -28 39q-12 0 -23 -7l-85 -48q-32 -19 -60 -19t-50.5 26t-22.5 60.5t8 66.5h36v-15
q0 -39 28 -39q12 0 23 7l85 48q32 19 60 19t50.5 -26t22.5 -60.5t-8 -66.5h-36z" />
    <glyph glyph-name="Imacron" unicode="&#x12a;" horiz-adv-x="410" 
d="M60 660v40h290v-40h-70v-620h70v-40h-290v40h70v620h-70zM58 900h294v-88h-294v88z" />
    <glyph glyph-name="imacron" unicode="&#x12b;" horiz-adv-x="246" 
d="M192 515q94 0 94 -81v-323q0 -27 13 -42.5t40 -15.5t62 29l18 -24q-80 -73 -160 -73q-123 0 -123 147v335q-55 -14 -84 -49l-27 31q29 30 73.5 48t93.5 18zM25 700h294v-88h-294v88z" />
    <glyph glyph-name="Ibreve" unicode="&#x12c;" horiz-adv-x="410" 
d="M60 660v40h290v-40h-70v-620h70v-40h-290v40h70v620h-70zM165 878q19 -8 42.5 -8t50 18t38.5 32.5t30 39.5l45 -29q-50 -91 -87 -126.5t-79 -35.5t-79 35.5t-87 126.5l44 29q49 -67 82 -82z" />
    <glyph glyph-name="ibreve" unicode="&#x12d;" horiz-adv-x="399" 
d="M192 515q94 0 94 -81v-323q0 -27 13 -42.5t40 -15.5t62 29l18 -24q-80 -73 -160 -73q-123 0 -123 147v335q-55 -14 -84 -49l-27 31q29 30 73.5 48t93.5 18zM159 678q19 -8 42.5 -8t50 18t38.5 32.5t30 39.5l45 -29q-50 -91 -87 -126.5t-79 -35.5t-79 35.5t-87 126.5
l44 29q49 -67 82 -82z" />
    <glyph glyph-name="Iogonek" unicode="&#x12e;" horiz-adv-x="410" 
d="M60 0v40h70v620h-70v40h290v-40h-70v-620h70v-40h-89l-8 -8q-38 -38 -50 -62.5t-12 -52t16.5 -42t47.5 -14.5t61 28l17 -29q-48 -58 -124 -58q-47 0 -78 23.5t-31 71.5q0 24 15 48.5t30 38t42 35.5l26 21h-153z" />
    <glyph glyph-name="iogonek" unicode="&#x12f;" horiz-adv-x="399" 
d="M192 515q94 0 94 -81v-323q0 -27 13 -42.5t40 -15.5t62 29l18 -24l-66 -66q-38 -38 -50 -62.5t-12 -52t16.5 -42t47.5 -14.5t61 28l17 -29q-48 -58 -124 -58q-47 0 -78 23.5t-31 65t20.5 70t56.5 58.5l9 8q-18 -2 -27 -2q-123 0 -123 147v335q-55 -14 -84 -49l-27 31
q29 30 73.5 48t93.5 18zM131 670q0 33 23.5 56.5t56.5 23.5t56.5 -23.5t23.5 -56.5t-23.5 -56.5t-56.5 -23.5t-56.5 23.5t-23.5 56.5z" />
    <glyph glyph-name="Idotaccent" unicode="&#x130;" horiz-adv-x="410" 
d="M60 660v40h290v-40h-70v-620h70v-40h-290v40h70v620h-70zM125 870q0 33 23.5 56.5t56.5 23.5t56.5 -23.5t23.5 -56.5t-23.5 -56.5t-56.5 -23.5t-56.5 23.5t-23.5 56.5z" />
    <glyph glyph-name="dotlessi" unicode="&#x131;" horiz-adv-x="399" 
d="M192 515q94 0 94 -81v-323q0 -27 13 -42.5t40 -15.5t62 29l18 -24q-80 -73 -160 -73q-123 0 -123 147v335q-55 -14 -84 -49l-27 31q29 30 73.5 48t93.5 18z" />
    <glyph glyph-name="IJ" unicode="&#x132;" horiz-adv-x="945" 
d="M60 660v40h290v-40h-70v-620h70v-40h-290v40h70v620h-70zM825 660v-470q0 -105 -63.5 -155t-170.5 -50q-61 0 -116 32t-55 76q0 17 11 39l60 116l36 -11l-9 -62q-4 -35 -4 -66t21.5 -54t58 -23t59 25t22.5 75v528h-95v40h305v-40h-60z" />
    <glyph glyph-name="ij" unicode="&#x133;" horiz-adv-x="782" 
d="M131 670q0 33 23.5 56.5t56.5 23.5t56.5 -23.5t23.5 -56.5t-23.5 -56.5t-56.5 -23.5t-56.5 23.5t-23.5 56.5zM192 515q94 0 94 -81v-323q0 -27 13 -42.5t40 -15.5t62 29l18 -24q-80 -73 -160 -73q-123 0 -123 147v335q-55 -14 -84 -49l-27 31q29 30 73.5 48t93.5 18z
M689 454v-541q0 -79 -45 -128.5t-145 -49.5q-49 0 -93.5 18t-73.5 48l22 31q43 -37 101 -37q84 0 84 110v562q-55 -14 -84 -49l-27 31q29 30 73.5 48t88 18t71.5 -17.5t28 -43.5zM534 670q0 33 23.5 56.5t56.5 23.5t56.5 -23.5t23.5 -56.5t-23.5 -56.5t-56.5 -23.5
t-56.5 23.5t-23.5 56.5z" />
    <glyph glyph-name="Jcircumflex" unicode="&#x134;" horiz-adv-x="535" 
d="M415 660v-470q0 -105 -63.5 -155t-170.5 -50q-61 0 -116 32t-55 76q0 17 11 39l60 116l36 -11l-9 -62q-4 -35 -4 -66t21.5 -54t58 -23t59 25t22.5 75v528h-95v40h305v-40h-60zM323 965q30 0 58 -38l108 -144l-21 -24l-141 95h-8l-141 -95l-21 24l108 144q28 38 58 38z
" />
    <glyph glyph-name="jcircumflex" unicode="&#x135;" horiz-adv-x="383" 
d="M192 765q30 0 58 -38l108 -144l-21 -24l-141 95h-8l-141 -95l-21 24l108 144q28 38 58 38zM290 454v-541q0 -79 -45 -128.5t-145 -49.5q-49 0 -93.5 18t-73.5 48l22 31q43 -37 101 -37q84 0 84 110v562q-55 -14 -84 -49l-27 31q29 30 73.5 48t88 18t71.5 -17.5t28 -43.5z
" />
    <glyph glyph-name="uni0136" unicode="&#x136;" horiz-adv-x="685" 
d="M70 660v40h270v-40h-60v-305l213 345h159v-40h-55l-290 -325h65q128 0 157 -97l42 -140q7 -25 18 -35t37 -10t61 29l18 -24q-80 -73 -170 -73q-46 0 -74 16t-40 56l-59 194q-8 28 -25 39t-57 13v-263h60v-40h-270v40h60v620h-60zM341.5 -179.5q-25.5 29.5 -25.5 58
t19.5 48t48 19.5t47.5 -22t19 -67t-27.5 -100.5t-77.5 -100.5l-22 22q44 51 44 90q0 23 -25.5 52.5z" />
    <glyph glyph-name="uni0137" unicode="&#x137;" horiz-adv-x="647" 
d="M261 704v-259q54 70 166 70q64 0 104 -32t40 -80.5t-29 -86.5t-79 -62l60 -156q10 -26 20 -35.5t28 -9.5q33 0 68 29l18 -24q-80 -73 -165.5 -73t-113.5 72l-75 192q55 13 91.5 54t36.5 79t-19 55t-48 17q-48 0 -75.5 -38.5t-27.5 -105.5v-310h-150v717q-55 -14 -84 -49
l-27 31q29 30 73.5 48t88 18t71.5 -17.5t28 -43.5zM300.5 -179.5q-25.5 29.5 -25.5 58t19.5 48t48 19.5t47.5 -22t19 -67t-27.5 -100.5t-77.5 -100.5l-22 22q44 51 44 90q0 23 -25.5 52.5z" />
    <glyph glyph-name="kgreenlandic" unicode="&#x138;" horiz-adv-x="660" 
d="M124 500q135 0 149 -94q54 109 167 109q64 0 104 -32t40 -80.5t-29 -86.5t-79 -62l60 -156q10 -26 20 -35.5t28 -9.5q33 0 68 29l18 -24q-80 -73 -165.5 -73t-113.5 72l-75 192q55 13 91.5 54t36.5 79.5t-16 55t-41 16.5q-51 0 -81 -67t-32 -182v-205h-150v460
q-45 0 -80 -15l-14 37q43 18 94 18z" />
    <glyph glyph-name="Lacute" unicode="&#x139;" horiz-adv-x="570" 
d="M70 660v40h270v-40h-60v-620h70q66 0 90.5 13t33.5 58l20 99h39l27 -168q0 -20 -9 -29.5t-19.5 -11t-32.5 -1.5h-429v40h60v620h-60zM254.5 958q13.5 7 33 7t36 -14.5t16.5 -37.5t-18 -40.5t-65 -40.5l-148 -73l-21 24l119 132q17 19 25.5 27.5t22 15.5z" />
    <glyph glyph-name="lacute" unicode="&#x13a;" horiz-adv-x="374" 
d="M73.5 747q44.5 18 88 18t71.5 -17.5t28 -43.5v-593q0 -27 13 -42.5t40 -15.5t62 29l18 -24q-80 -73 -160 -73q-123 0 -123 147v585q-55 -14 -84 -49l-27 31q29 30 73.5 48zM227.5 988q13.5 7 33 7t36 -14.5t16.5 -37.5t-18 -40.5t-65 -40.5l-148 -73l-21 24l119 132
q17 19 25.5 27.5t22 15.5z" />
    <glyph glyph-name="uni013B" unicode="&#x13b;" horiz-adv-x="570" 
d="M70 660v40h270v-40h-60v-620h70q66 0 90.5 13t33.5 58l20 99h39l27 -168q0 -20 -9 -29.5t-19.5 -11t-32.5 -1.5h-429v40h60v620h-60zM164.5 -179.5q-25.5 29.5 -25.5 58t19.5 48t48 19.5t47.5 -22t19 -67t-27.5 -100.5t-77.5 -100.5l-22 22q44 51 44 90q0 23 -25.5 52.5z
" />
    <glyph glyph-name="uni013C" unicode="&#x13c;" horiz-adv-x="374" 
d="M73.5 747q44.5 18 88 18t71.5 -17.5t28 -43.5v-593q0 -27 13 -42.5t40 -15.5t62 29l18 -24q-80 -73 -160 -73q-123 0 -123 147v585q-55 -14 -84 -49l-27 31q29 30 73.5 48zM143.5 -179.5q-25.5 29.5 -25.5 58t19.5 48t48 19.5t47.5 -22t19 -67t-27.5 -100.5t-77.5 -100.5
l-22 22q44 51 44 90q0 23 -25.5 52.5z" />
    <glyph glyph-name="Lcaron" unicode="&#x13d;" horiz-adv-x="570" 
d="M70 660v40h270v-40h-60v-620h70q66 0 90.5 13t33.5 58l20 99h39l27 -168q0 -20 -9 -29.5t-19.5 -11t-32.5 -1.5h-429v40h60v620h-60zM411.5 664.5q-25.5 29.5 -25.5 58t19.5 48t48 19.5t47.5 -22t19 -67t-27.5 -100.5t-77.5 -100.5l-22 22q44 51 44 90q0 23 -25.5 52.5z
" />
    <glyph glyph-name="lcaron" unicode="&#x13e;" horiz-adv-x="406" 
d="M73.5 747q44.5 18 88 18t71.5 -17.5t28 -43.5v-593q0 -27 13 -42.5t40 -15.5t62 29l18 -24q-80 -73 -160 -73q-123 0 -123 147v585q-55 -14 -84 -49l-27 31q29 30 73.5 48zM352.5 664.5q-25.5 29.5 -25.5 58t19.5 48t48 19.5t47.5 -22t19 -67t-27.5 -100.5t-77.5 -100.5
l-22 22q44 51 44 90q0 23 -25.5 52.5z" />
    <glyph glyph-name="Ldot" unicode="&#x13f;" horiz-adv-x="570" 
d="M70 660v40h270v-40h-60v-620h70q66 0 90.5 13t33.5 58l20 99h39l27 -168q0 -20 -9 -29.5t-19.5 -11t-32.5 -1.5h-429v40h60v620h-60zM354 412q0 32 22.5 54.5t54.5 22.5t54.5 -22.5t22.5 -54.5t-22.5 -54.5t-54.5 -22.5t-54.5 22.5t-22.5 54.5z" />
    <glyph glyph-name="ldot" unicode="&#x140;" horiz-adv-x="475" 
d="M73.5 747q44.5 18 88 18t71.5 -17.5t28 -43.5v-593q0 -27 13 -42.5t40 -15.5t62 29l18 -24q-80 -73 -160 -73q-123 0 -123 147v585q-55 -14 -84 -49l-27 31q29 30 73.5 48zM315 412q0 32 22.5 54.5t54.5 22.5t54.5 -22.5t22.5 -54.5t-22.5 -54.5t-54.5 -22.5t-54.5 22.5
t-22.5 54.5z" />
    <glyph glyph-name="Lslash" unicode="&#x141;" horiz-adv-x="570" 
d="M130 660h-60v40h270v-40h-60v-204l78 40l19 -38l-97 -50v-368h70q66 0 90.5 13t33.5 58l20 99h39l27 -168q0 -20 -9 -29.5t-19.5 -11t-32.5 -1.5h-429v40h60v292l-77 -39l-19 38l96 49v280z" />
    <glyph glyph-name="lslash" unicode="&#x142;" horiz-adv-x="374" 
d="M73.5 747q44.5 18 88 18t71.5 -17.5t28 -43.5v-248l78 40l19 -38l-97 -50v-297q0 -27 13 -42.5t40 -15.5t62 29l18 -24q-80 -73 -160 -73q-123 0 -123 147v200l-77 -39l-19 38l96 49v337q-55 -14 -84 -49l-27 31q29 30 73.5 48z" />
    <glyph glyph-name="Nacute" unicode="&#x143;" horiz-adv-x="770" 
d="M60 0v40h60v620h-60v40h234l286 -563v523h-60v40h190v-40h-60v-660h-159l-301 592v-552h60v-40h-190zM475.5 958q13.5 7 33 7t36 -14.5t16.5 -37.5t-18 -40.5t-65 -40.5l-148 -73l-21 24l119 132q17 19 25.5 27.5t22 15.5z" />
    <glyph glyph-name="nacute" unicode="&#x144;" 
d="M124 500q82 0 148 -50q38 36 78 50.5t102.5 14.5t102 -39.5t39.5 -107.5v-257q0 -27 13 -42.5t40 -15.5t62 29l18 -24q-80 -73 -160 -73q-123 0 -123 147v257q0 31 -19 48t-52.5 17t-66 -27t-32.5 -70v-357h-150v460q-45 0 -80 -15l-14 37q43 18 94 18zM418.5 758
q13.5 7 33 7t36 -14.5t16.5 -37.5t-18 -40.5t-65 -40.5l-148 -73l-21 24l119 132q17 19 25.5 27.5t22 15.5z" />
    <glyph glyph-name="uni0145" unicode="&#x145;" horiz-adv-x="770" 
d="M60 0v40h60v620h-60v40h234l286 -563v523h-60v40h190v-40h-60v-660h-159l-301 592v-552h60v-40h-190zM343.5 -179.5q-25.5 29.5 -25.5 58t19.5 48t48 19.5t47.5 -22t19 -67t-27.5 -100.5t-77.5 -100.5l-22 22q44 51 44 90q0 23 -25.5 52.5z" />
    <glyph glyph-name="uni0146" unicode="&#x146;" 
d="M124 500q82 0 148 -50q38 36 78 50.5t102.5 14.5t102 -39.5t39.5 -107.5v-257q0 -27 13 -42.5t40 -15.5t62 29l18 -24q-80 -73 -160 -73q-123 0 -123 147v257q0 31 -19 48t-52.5 17t-66 -27t-32.5 -70v-357h-150v460q-45 0 -80 -15l-14 37q43 18 94 18zM331.5 -179.5
q-25.5 29.5 -25.5 58t19.5 48t48 19.5t47.5 -22t19 -67t-27.5 -100.5t-77.5 -100.5l-22 22q44 51 44 90q0 23 -25.5 52.5z" />
    <glyph glyph-name="Ncaron" unicode="&#x147;" horiz-adv-x="770" 
d="M60 0v40h60v620h-60v40h234l286 -563v523h-60v40h190v-40h-60v-660h-159l-301 592v-552h60v-40h-190zM401 759q-30 0 -58 38l-108 144l21 24l141 -95h8l141 95l21 -24l-108 -144q-28 -38 -58 -38z" />
    <glyph glyph-name="ncaron" unicode="&#x148;" 
d="M124 500q82 0 148 -50q38 36 78 50.5t102.5 14.5t102 -39.5t39.5 -107.5v-257q0 -27 13 -42.5t40 -15.5t62 29l18 -24q-80 -73 -160 -73q-123 0 -123 147v257q0 31 -19 48t-52.5 17t-66 -27t-32.5 -70v-357h-150v460q-45 0 -80 -15l-14 37q43 18 94 18zM361 559
q-30 0 -58 38l-108 144l21 24l141 -95h8l141 95l21 -24l-108 -144q-28 -38 -58 -38z" />
    <glyph glyph-name="napostrophe" unicode="&#x149;" 
d="M124 500q82 0 148 -50q38 36 78 50.5t102.5 14.5t102 -39.5t39.5 -107.5v-257q0 -27 13 -42.5t40 -15.5t62 29l18 -24q-80 -73 -160 -73q-123 0 -123 147v257q0 31 -19 48t-52.5 17t-66 -27t-32.5 -70v-357h-150v460q-45 0 -80 -15l-14 37q43 18 94 18zM-24.5 664.5
q-25.5 29.5 -25.5 58t19.5 48t48 19.5t47.5 -22t19 -67t-27.5 -100.5t-77.5 -100.5l-22 22q44 51 44 90q0 23 -25.5 52.5z" />
    <glyph glyph-name="Eng" unicode="&#x14a;" horiz-adv-x="770" 
d="M60 0v40h60v620h-60v40h234l286 -563v523h-60v40h190v-40h-60v-747q0 -79 -45 -128.5t-145 -49.5q-49 0 -93.5 18t-73.5 48l22 31q43 -37 101 -37q103 0 103 99q0 52 -27 106l-302 592v-552h60v-40h-190z" />
    <glyph glyph-name="eng" unicode="&#x14b;" 
d="M594 368v-455q0 -79 -45 -128.5t-145 -49.5q-49 0 -93.5 18t-73.5 48l22 31q43 -37 101 -37q84 0 84 110v484q0 31 -19 48t-52.5 17t-66 -27t-32.5 -70v-357h-150v460q-45 0 -80 -15l-14 37q43 18 94 18q82 0 148 -50q38 36 78 50.5t102.5 14.5t102 -39.5t39.5 -107.5z
" />
    <glyph glyph-name="Omacron" unicode="&#x14c;" horiz-adv-x="768" 
d="M136.5 611.5q86.5 103.5 247 103.5t247.5 -103t87 -262.5t-87 -262t-247.5 -102.5t-247 102.5t-86.5 261.5t86.5 262.5zM384 668q-59 0 -100 -46q-79 -86 -79 -273q0 -186 79 -271q42 -46 100 -46q86 0 132.5 92t46.5 225.5t-46.5 226t-132.5 92.5zM237 900h294v-88h-294
v88z" />
    <glyph glyph-name="omacron" unicode="&#x14d;" horiz-adv-x="660" 
d="M65 250q0 112 73.5 188.5t191.5 76.5t191.5 -76.5t73.5 -188.5t-73.5 -188.5t-191.5 -76.5t-191.5 76.5t-73.5 188.5zM220 250q0 -98 28 -160.5t83 -62.5t83 62.5t28 160.5t-28 160.5t-83 62.5t-83 -62.5t-28 -160.5zM183 700h294v-88h-294v88z" />
    <glyph glyph-name="Obreve" unicode="&#x14e;" horiz-adv-x="768" 
d="M136.5 611.5q86.5 103.5 247 103.5t247.5 -103t87 -262.5t-87 -262t-247.5 -102.5t-247 102.5t-86.5 261.5t86.5 262.5zM384 668q-59 0 -100 -46q-79 -86 -79 -273q0 -186 79 -271q42 -46 100 -46q86 0 132.5 92t46.5 225.5t-46.5 226t-132.5 92.5zM344 878
q19 -8 42.5 -8t50 18t38.5 32.5t30 39.5l45 -29q-50 -91 -87 -126.5t-79 -35.5t-79 35.5t-87 126.5l44 29q49 -67 82 -82z" />
    <glyph glyph-name="obreve" unicode="&#x14f;" horiz-adv-x="660" 
d="M65 250q0 112 73.5 188.5t191.5 76.5t191.5 -76.5t73.5 -188.5t-73.5 -188.5t-191.5 -76.5t-191.5 76.5t-73.5 188.5zM220 250q0 -98 28 -160.5t83 -62.5t83 62.5t28 160.5t-28 160.5t-83 62.5t-83 -62.5t-28 -160.5zM290 678q19 -8 42.5 -8t50 18t38.5 32.5t30 39.5
l45 -29q-50 -91 -87 -126.5t-79 -35.5t-79 35.5t-87 126.5l44 29q49 -67 82 -82z" />
    <glyph glyph-name="Ohungarumlaut" unicode="&#x150;" horiz-adv-x="768" 
d="M136.5 611.5q86.5 103.5 247 103.5t247.5 -103t87 -262.5t-87 -262t-247.5 -102.5t-247 102.5t-86.5 261.5t86.5 262.5zM384 668q-59 0 -100 -46q-79 -86 -79 -273q0 -186 79 -271q42 -46 100 -46q86 0 132.5 92t46.5 225.5t-46.5 226t-132.5 92.5zM337.5 953
q16.5 12 38.5 12t36.5 -12.5t14.5 -33.5q0 -34 -48 -69l-125 -91l-24 23l73 128q18 31 34.5 43zM527.5 953q16.5 12 38.5 12t36.5 -12.5t14.5 -33.5q0 -34 -48 -69l-125 -91l-24 23l73 128q18 31 34.5 43z" />
    <glyph glyph-name="ohungarumlaut" unicode="&#x151;" horiz-adv-x="660" 
d="M65 250q0 112 73.5 188.5t191.5 76.5t191.5 -76.5t73.5 -188.5t-73.5 -188.5t-191.5 -76.5t-191.5 76.5t-73.5 188.5zM220 250q0 -98 28 -160.5t83 -62.5t83 62.5t28 160.5t-28 160.5t-83 62.5t-83 -62.5t-28 -160.5zM283.5 753q16.5 12 38.5 12t36.5 -12.5t14.5 -33.5
q0 -34 -48 -69l-125 -91l-24 23l73 128q18 31 34.5 43zM473.5 753q16.5 12 38.5 12t36.5 -12.5t14.5 -33.5q0 -34 -48 -69l-125 -91l-24 23l73 128q18 31 34.5 43z" />
    <glyph glyph-name="OE" unicode="&#x152;" horiz-adv-x="973" 
d="M623 273v-233h90q65 0 89.5 13t34.5 58l20 89h39l27 -158q0 -20 -9 -29.5t-19.5 -11t-32.5 -1.5h-449q-175 0 -269 98.5t-94 251t94 251.5t269 99h429q22 0 32.5 -1.5t19.5 -11t9 -29.5l-27 -168h-39l-20 99q-9 45 -33.5 58t-90.5 13h-70v-342h230v-45h-230zM413 40h60
v620h-60q-102 0 -155 -88.5t-53 -222.5q0 -183 91 -265q48 -44 117 -44z" />
    <glyph glyph-name="oe" unicode="&#x153;" horiz-adv-x="974" 
d="M751.5 280.5q35.5 43.5 35.5 88t-19.5 68.5t-60 24t-79 -56t-38.5 -150.5t36.5 -151t101.5 -56.5q96 0 163 75l28 -18q-34 -54 -90 -86.5t-126 -32.5q-112 0 -185 73q-73 -73 -189.5 -73t-190 76.5t-73.5 188.5t73.5 188.5t190 76.5t190.5 -74q77 74 208 74q88 0 138 -41
t50 -104t-55.5 -116.5t-146.5 -53.5q-31 0 -60 7l-2 24q65 6 100.5 49.5zM220 250q0 -98 28 -160.5t84 -62.5t85.5 61t29.5 162t-29.5 162t-85.5 61t-84 -62.5t-28 -160.5z" />
    <glyph glyph-name="Racute" unicode="&#x154;" horiz-adv-x="695" 
d="M70 660v40h220q243 0 308 -112q25 -44 25 -107q0 -146 -166 -196q63 -21 84 -87l30 -100q7 -25 18 -35t37 -10t61 29l18 -24q-80 -73 -170 -73q-46 0 -74 16t-40 56l-47 154q-9 29 -28 40t-66 12v-223h80v-40h-290v40h60v620h-60zM290 660h-10v-357h10q79 0 131 46.5
t52 131.5t-52 132t-131 47zM387.5 958q13.5 7 33 7t36 -14.5t16.5 -37.5t-18 -40.5t-65 -40.5l-148 -73l-21 24l119 132q17 19 25.5 27.5t22 15.5z" />
    <glyph glyph-name="racute" unicode="&#x155;" horiz-adv-x="536" 
d="M393 515q30 0 30 -57v-347q0 -27 13 -42.5t40 -15.5t62 29l18 -24q-80 -73 -160 -73q-123 0 -123 147v281q-47 -19 -114 -26q-8 -92 -53 -184l-41 12q28 71 30 169q-38 0 -61.5 22t-23.5 54.5t22.5 55t55 22.5t54.5 -23t22 -59h19q79 0 168 44q29 15 42 15zM333.5 758
q13.5 7 33 7t36 -14.5t16.5 -37.5t-18 -40.5t-65 -40.5l-148 -73l-21 24l119 132q17 19 25.5 27.5t22 15.5z" />
    <glyph glyph-name="uni0156" unicode="&#x156;" horiz-adv-x="695" 
d="M70 660v40h220q243 0 308 -112q25 -44 25 -107q0 -146 -166 -196q63 -21 84 -87l30 -100q7 -25 18 -35t37 -10t61 29l18 -24q-80 -73 -170 -73q-46 0 -74 16t-40 56l-47 154q-9 29 -28 40t-66 12v-223h80v-40h-290v40h60v620h-60zM290 660h-10v-357h10q79 0 131 46.5
t52 131.5t-52 132t-131 47zM317.5 -179.5q-25.5 29.5 -25.5 58t19.5 48t48 19.5t47.5 -22t19 -67t-27.5 -100.5t-77.5 -100.5l-22 22q44 51 44 90q0 23 -25.5 52.5z" />
    <glyph glyph-name="uni0157" unicode="&#x157;" horiz-adv-x="536" 
d="M393 515q30 0 30 -57v-347q0 -27 13 -42.5t40 -15.5t62 29l18 -24q-80 -73 -160 -73q-123 0 -123 147v281q-47 -19 -114 -26q-8 -92 -53 -184l-41 12q28 71 30 169q-38 0 -61.5 22t-23.5 54.5t22.5 55t55 22.5t54.5 -23t22 -59h19q79 0 168 44q29 15 42 15zM177.5 -179.5
q-25.5 29.5 -25.5 58t19.5 48t48 19.5t47.5 -22t19 -67t-27.5 -100.5t-77.5 -100.5l-22 22q44 51 44 90q0 23 -25.5 52.5z" />
    <glyph glyph-name="Rcaron" unicode="&#x158;" horiz-adv-x="695" 
d="M70 660v40h220q243 0 308 -112q25 -44 25 -107q0 -146 -166 -196q63 -21 84 -87l30 -100q7 -25 18 -35t37 -10t61 29l18 -24q-80 -73 -170 -73q-46 0 -74 16t-40 56l-47 154q-9 29 -28 40t-66 12v-223h80v-40h-290v40h60v620h-60zM290 660h-10v-357h10q79 0 131 46.5
t52 131.5t-52 132t-131 47zM347 759q-30 0 -58 38l-108 144l21 24l141 -95h8l141 95l21 -24l-108 -144q-28 -38 -58 -38z" />
    <glyph glyph-name="rcaron" unicode="&#x159;" horiz-adv-x="536" 
d="M393 515q30 0 30 -57v-347q0 -27 13 -42.5t40 -15.5t62 29l18 -24q-80 -73 -160 -73q-123 0 -123 147v281q-47 -19 -114 -26q-8 -92 -53 -184l-41 12q28 71 30 169q-38 0 -61.5 22t-23.5 54.5t22.5 55t55 22.5t54.5 -23t22 -59h19q79 0 168 44q29 15 42 15zM273 559
q-30 0 -58 38l-108 144l21 24l141 -95h8l141 95l21 -24l-108 -144q-28 -38 -58 -38z" />
    <glyph glyph-name="Sacute" unicode="&#x15a;" horiz-adv-x="570" 
d="M139 129q0 -39 38 -68t98 -29t95 29t35 77q0 61 -73 101l-148 79q-128 69 -128 197q0 82 60 141t179 59q80 0 152 -32t72 -76q0 -17 -11 -39l-48 -92l-35 11v84q0 45 -39.5 71t-94 26t-83.5 -32t-29 -73q0 -82 74 -121l127 -67q145 -76 145 -200q0 -94 -70.5 -142
t-178.5 -48q-81 0 -156 32t-75 76q0 17 11 39l48 92l35 -11v-84zM338.5 958q13.5 7 33 7t36 -14.5t16.5 -37.5t-18 -40.5t-65 -40.5l-148 -73l-21 24l119 132q17 19 25.5 27.5t22 15.5z" />
    <glyph glyph-name="sacute" unicode="&#x15b;" horiz-adv-x="474" 
d="M175 418q-24 37 -24 66t22.5 51.5t54.5 22.5t54.5 -22.5t22.5 -53.5t-31 -66q82 -60 126 -117.5t44 -133t-57 -128t-162 -52.5q-48 0 -96.5 21t-73.5 52l23 24q44 -35 95 -35t83.5 27.5t32.5 85.5q0 92 -68 192l-151 -189l-25 22q76 123 130 233zM275.5 758q13.5 7 33 7
t36 -14.5t16.5 -37.5t-18 -40.5t-65 -40.5l-148 -73l-21 24l119 132q17 19 25.5 27.5t22 15.5z" />
    <glyph glyph-name="Scircumflex" unicode="&#x15c;" horiz-adv-x="570" 
d="M139 129q0 -39 38 -68t98 -29t95 29t35 77q0 61 -73 101l-148 79q-128 69 -128 197q0 82 60 141t179 59q80 0 152 -32t72 -76q0 -17 -11 -39l-48 -92l-35 11v84q0 45 -39.5 71t-94 26t-83.5 -32t-29 -73q0 -82 74 -121l127 -67q145 -76 145 -200q0 -94 -70.5 -142
t-178.5 -48q-81 0 -156 32t-75 76q0 17 11 39l48 92l35 -11v-84zM295 965q30 0 58 -38l108 -144l-21 -24l-141 95h-8l-141 -95l-21 24l108 144q28 38 58 38z" />
    <glyph glyph-name="scircumflex" unicode="&#x15d;" horiz-adv-x="474" 
d="M175 418q-24 37 -24 66t22.5 51.5t54.5 22.5t54.5 -22.5t22.5 -53.5t-31 -66q82 -60 126 -117.5t44 -133t-57 -128t-162 -52.5q-48 0 -96.5 21t-73.5 52l23 24q44 -35 95 -35t83.5 27.5t32.5 85.5q0 92 -68 192l-151 -189l-25 22q76 123 130 233zM231 765q30 0 58 -38
l108 -144l-21 -24l-141 95h-8l-141 -95l-21 24l108 144q28 38 58 38z" />
    <glyph glyph-name="Scedilla" unicode="&#x15e;" horiz-adv-x="570" 
d="M139 129q0 -39 38 -68t98 -29t95 29t35 77q0 61 -73 101l-148 79q-128 69 -128 197q0 82 60 141t179 59q80 0 152 -32t72 -76q0 -17 -11 -39l-48 -92l-35 11v84q0 45 -39.5 71t-94 26t-83.5 -32t-29 -73q0 -82 74 -121l127 -67q145 -76 145 -200q0 -92 -69 -140t-175 -50
l-30 -62q17 7 41 7q47 0 76 -27t29 -68t-34.5 -70.5t-83.5 -29.5t-80.5 18t-31.5 51q0 17 12 29t28.5 12t29 -12.5t12.5 -31.5t-18 -32q8 -2 15 -2q29 0 46.5 18t17.5 42.5t-19 43.5t-54 19l-22 17l37 79q-78 6 -142.5 36t-64.5 71q0 17 11 39l48 92l35 -11v-84z" />
    <glyph glyph-name="scedilla" unicode="&#x15f;" horiz-adv-x="474" 
d="M175 418q-24 37 -24 66t22.5 51.5t54.5 22.5t54.5 -22.5t22.5 -53.5t-31 -66q82 -60 126 -117.5t44 -131.5t-54 -126t-153 -56l-30 -62q17 7 41 7q47 0 76 -27t29 -68t-34.5 -70.5t-83.5 -29.5t-80.5 18t-31.5 51q0 17 12 29t28.5 12t29 -12.5t12.5 -31.5t-18 -32
q8 -2 15 -2q29 0 46.5 18t17.5 42.5t-19 43.5t-54 19l-22 17l37 79q-45 4 -88 24t-65 48l23 24q44 -35 95 -35t83.5 27.5t32.5 85.5q0 92 -68 192l-151 -189l-25 22q76 123 130 233z" />
    <glyph glyph-name="Scaron" unicode="&#x160;" horiz-adv-x="570" 
d="M139 129q0 -39 38 -68t98 -29t95 29t35 77q0 61 -73 101l-148 79q-128 69 -128 197q0 82 60 141t179 59q80 0 152 -32t72 -76q0 -17 -11 -39l-48 -92l-35 11v84q0 45 -39.5 71t-94 26t-83.5 -32t-29 -73q0 -82 74 -121l127 -67q145 -76 145 -200q0 -94 -70.5 -142
t-178.5 -48q-81 0 -156 32t-75 76q0 17 11 39l48 92l35 -11v-84zM285 759q-30 0 -58 38l-108 144l21 24l141 -95h8l141 95l21 -24l-108 -144q-28 -38 -58 -38z" />
    <glyph glyph-name="scaron" unicode="&#x161;" horiz-adv-x="474" 
d="M175 418q-24 37 -24 66t22.5 51.5t54.5 22.5t54.5 -22.5t22.5 -53.5t-31 -66q82 -60 126 -117.5t44 -133t-57 -128t-162 -52.5q-48 0 -96.5 21t-73.5 52l23 24q44 -35 95 -35t83.5 27.5t32.5 85.5q0 92 -68 192l-151 -189l-25 22q76 123 130 233zM234 579q-30 0 -58 38
l-108 144l21 24l141 -95h8l141 95l21 -24l-108 -144q-28 -38 -58 -38z" />
    <glyph glyph-name="uni0162" unicode="&#x162;" horiz-adv-x="620" 
d="M395 660h-10v-620h100v-40h-168l-38 -77q17 7 41 7q47 0 76 -27t29 -68t-34.5 -70.5t-83.5 -29.5t-80.5 18t-31.5 51q0 17 12 29t28.5 12t29 -12.5t12.5 -31.5t-18 -32q8 -2 15 -2q29 0 46.5 18t17.5 42.5t-19 43.5t-54 19l-22 17l44 93h-152v40h100v620h-10
q-66 0 -90.5 -13t-33.5 -58l-20 -99h-39l-27 168q0 20 9 29.5t19.5 11t32.5 1.5h468q22 0 32.5 -1.5t19.5 -11t9 -29.5l-27 -168h-39l-20 99q-9 45 -33.5 58t-90.5 13z" />
    <glyph glyph-name="uni0163" unicode="&#x163;" horiz-adv-x="424" 
d="M39 445v41h82v144h150v-144h113v-41h-113v-334q0 -27 13 -42.5t40 -15.5t62 29l18 -24q-80 -73 -160 -73q-18 0 -31 3l-32 -65q17 7 41 7q47 0 76 -27t29 -68t-34.5 -70.5t-83.5 -29.5t-80.5 18t-31.5 51q0 17 12 29t28.5 12t29 -12.5t12.5 -31.5t-18 -32q8 -2 15 -2
q29 0 46.5 18t17.5 42.5t-19 43.5t-54 19l-22 17l42 89q-66 29 -66 136v313h-82z" />
    <glyph glyph-name="Tcaron" unicode="&#x164;" horiz-adv-x="620" 
d="M395 660h-10v-620h100v-40h-350v40h100v620h-10q-66 0 -90.5 -13t-33.5 -58l-20 -99h-39l-27 168q0 20 9 29.5t19.5 11t32.5 1.5h468q22 0 32.5 -1.5t19.5 -11t9 -29.5l-27 -168h-39l-20 99q-9 45 -33.5 58t-90.5 13zM310 759q-30 0 -58 38l-108 144l21 24l141 -95h8
l141 95l21 -24l-108 -144q-28 -38 -58 -38z" />
    <glyph glyph-name="tcaron" unicode="&#x165;" horiz-adv-x="424" 
d="M39 445v41h82v144h150v-144h82v-41h-82v-334q0 -27 13 -42.5t40 -15.5t62 29l18 -24q-80 -73 -160 -73q-123 0 -123 147v313h-82zM352.5 664.5q-25.5 29.5 -25.5 58t19.5 48t48 19.5t47.5 -22t19 -67t-27.5 -100.5t-77.5 -100.5l-22 22q44 51 44 90q0 23 -25.5 52.5z" />
    <glyph glyph-name="Tbar" unicode="&#x166;" horiz-adv-x="620" 
d="M123 302v45h112v313h-10q-66 0 -90.5 -13t-33.5 -58l-20 -99h-39l-27 168q0 20 9 29.5t19.5 11t32.5 1.5h468q22 0 32.5 -1.5t19.5 -11t9 -29.5l-27 -168h-39l-20 99q-9 45 -33.5 58t-90.5 13h-10v-313h113v-45h-113v-262h100v-40h-350v40h100v262h-112z" />
    <glyph glyph-name="tbar" unicode="&#x167;" horiz-adv-x="424" 
d="M6 273v45h115v127h-82v41h82v144h150v-144h113v-41h-113v-127h115v-45h-115v-162q0 -27 13 -42.5t40 -15.5t62 29l18 -24q-80 -73 -160 -73q-123 0 -123 147v141h-115z" />
    <glyph glyph-name="Utilde" unicode="&#x168;" horiz-adv-x="700" 
d="M485 660v40h190v-40h-60v-419q0 -72 -21.5 -124t-59.5 -80q-71 -52 -177 -52t-179 53q-39 27 -61 79t-22 125v418h-60v40h270v-40h-60v-450q0 -78 42 -120t103.5 -42t108 42.5t46.5 119.5v450h-60zM502 809v15q0 39 -28 39q-12 0 -23 -7l-85 -48q-32 -19 -60 -19
t-50.5 26t-22.5 60.5t8 66.5h36v-15q0 -39 28 -39q12 0 23 7l85 48q32 19 60 19t50.5 -26t22.5 -60.5t-8 -66.5h-36z" />
    <glyph glyph-name="utilde" unicode="&#x169;" 
d="M274 454v-343q0 -31 19 -48t53 -17t66 28t32 73v353h150v-389q0 -27 13 -42.5t40 -15.5t62 29l18 -24q-80 -73 -163 -73t-110 74q-39 -41 -80.5 -57.5t-106 -16.5t-104 39.5t-39.5 107.5v335q-55 -14 -84 -49l-27 31q29 30 73.5 48t88 18t71.5 -17.5t28 -43.5zM466 609
v15q0 39 -28 39q-12 0 -23 -7l-85 -48q-32 -19 -60 -19t-50.5 26t-22.5 60.5t8 66.5h36v-15q0 -39 28 -39q12 0 23 7l85 48q32 19 60 19t50.5 -26t22.5 -60.5t-8 -66.5h-36z" />
    <glyph glyph-name="Umacron" unicode="&#x16a;" horiz-adv-x="700" 
d="M485 660v40h190v-40h-60v-419q0 -72 -21.5 -124t-59.5 -80q-71 -52 -177 -52t-179 53q-39 27 -61 79t-22 125v418h-60v40h270v-40h-60v-450q0 -78 42 -120t103.5 -42t108 42.5t46.5 119.5v450h-60zM243 900h294v-88h-294v88z" />
    <glyph glyph-name="umacron" unicode="&#x16b;" 
d="M274 454v-343q0 -31 19 -48t53 -17t66 28t32 73v353h150v-389q0 -27 13 -42.5t40 -15.5t62 29l18 -24q-80 -73 -163 -73t-110 74q-39 -41 -80.5 -57.5t-106 -16.5t-104 39.5t-39.5 107.5v335q-55 -14 -84 -49l-27 31q29 30 73.5 48t88 18t71.5 -17.5t28 -43.5zM206 700
h294v-88h-294v88z" />
    <glyph glyph-name="Ubreve" unicode="&#x16c;" horiz-adv-x="700" 
d="M485 660v40h190v-40h-60v-419q0 -72 -21.5 -124t-59.5 -80q-71 -52 -177 -52t-179 53q-39 27 -61 79t-22 125v418h-60v40h270v-40h-60v-450q0 -78 42 -120t103.5 -42t108 42.5t46.5 119.5v450h-60zM350 878q19 -8 42.5 -8t50 18t38.5 32.5t30 39.5l45 -29
q-50 -91 -87 -126.5t-79 -35.5t-79 35.5t-87 126.5l44 29q49 -67 82 -82z" />
    <glyph glyph-name="ubreve" unicode="&#x16d;" 
d="M274 454v-343q0 -31 19 -48t53 -17t66 28t32 73v353h150v-389q0 -27 13 -42.5t40 -15.5t62 29l18 -24q-80 -73 -163 -73t-110 74q-39 -41 -80.5 -57.5t-106 -16.5t-104 39.5t-39.5 107.5v335q-55 -14 -84 -49l-27 31q29 30 73.5 48t88 18t71.5 -17.5t28 -43.5zM313 678
q19 -8 42.5 -8t50 18t38.5 32.5t30 39.5l45 -29q-50 -91 -87 -126.5t-79 -35.5t-79 35.5t-87 126.5l44 29q49 -67 82 -82z" />
    <glyph glyph-name="Uring" unicode="&#x16e;" horiz-adv-x="700" 
d="M485 660v40h190v-40h-60v-419q0 -72 -21.5 -124t-59.5 -80q-71 -52 -177 -52t-179 53q-39 27 -61 79t-22 125v418h-60v40h270v-40h-60v-450q0 -78 42 -120t103.5 -42t108 42.5t46.5 119.5v450h-60zM298 785q-37 32 -37 84.5t37 85t92 32.5t92 -32.5t37 -85t-37 -84.5
t-92 -32t-92 32zM345 869q0 -83 44.5 -83t44.5 83t-44.5 83t-44.5 -83z" />
    <glyph glyph-name="uring" unicode="&#x16f;" 
d="M274 454v-343q0 -31 19 -48t53 -17t66 28t32 73v353h150v-389q0 -27 13 -42.5t40 -15.5t62 29l18 -24q-80 -73 -163 -73t-110 74q-39 -41 -80.5 -57.5t-106 -16.5t-104 39.5t-39.5 107.5v335q-55 -14 -84 -49l-27 31q29 30 73.5 48t88 18t71.5 -17.5t28 -43.5zM261 585
q-37 32 -37 84.5t37 85t92 32.5t92 -32.5t37 -85t-37 -84.5t-92 -32t-92 32zM308 669q0 -83 44.5 -83t44.5 83t-44.5 83t-44.5 -83z" />
    <glyph glyph-name="Uhungarumlaut" unicode="&#x170;" horiz-adv-x="700" 
d="M485 660v40h190v-40h-60v-419q0 -72 -21.5 -124t-59.5 -80q-71 -52 -177 -52t-179 53q-39 27 -61 79t-22 125v418h-60v40h270v-40h-60v-450q0 -78 42 -120t103.5 -42t108 42.5t46.5 119.5v450h-60zM323.5 953q16.5 12 38.5 12t36.5 -12.5t14.5 -33.5q0 -34 -48 -69
l-125 -91l-24 23l73 128q18 31 34.5 43zM513.5 953q16.5 12 38.5 12t36.5 -12.5t14.5 -33.5q0 -34 -48 -69l-125 -91l-24 23l73 128q18 31 34.5 43z" />
    <glyph glyph-name="uhungarumlaut" unicode="&#x171;" 
d="M274 454v-343q0 -31 19 -48t53 -17t66 28t32 73v353h150v-389q0 -27 13 -42.5t40 -15.5t62 29l18 -24q-80 -73 -163 -73t-110 74q-39 -41 -80.5 -57.5t-106 -16.5t-104 39.5t-39.5 107.5v335q-55 -14 -84 -49l-27 31q29 30 73.5 48t88 18t71.5 -17.5t28 -43.5zM317.5 753
q16.5 12 38.5 12t36.5 -12.5t14.5 -33.5q0 -34 -48 -69l-125 -91l-24 23l73 128q18 31 34.5 43zM507.5 753q16.5 12 38.5 12t36.5 -12.5t14.5 -33.5q0 -34 -48 -69l-125 -91l-24 23l73 128q18 31 34.5 43z" />
    <glyph glyph-name="Uogonek" unicode="&#x172;" horiz-adv-x="700" 
d="M485 660v40h190v-40h-60v-419q0 -116 -52.5 -176t-138.5 -74q-36 -37 -48 -61.5t-12 -52t16.5 -42t47.5 -14.5t61 28l17 -29q-48 -58 -124 -58q-47 0 -78 23.5t-31 71.5q0 24 15 48.5t30 38.5l49 41h-10q-106 0 -179 53q-39 27 -61 79t-22 125v418h-60v40h270v-40h-60
v-450q0 -78 42 -120t103.5 -42t108 42.5t46.5 119.5v450h-60z" />
    <glyph glyph-name="uogonek" unicode="&#x173;" 
d="M274 454v-343q0 -31 19 -48t53 -17t66 28t32 73v353h150v-389q0 -27 13 -42.5t40 -15.5t62 29l18 -24l-66 -66q-38 -38 -50 -62.5t-12 -52t16.5 -42t47.5 -14.5t61 28l17 -29q-48 -58 -124 -58q-47 0 -78 23.5t-31 65t20.5 70t56.5 58.5l9 8q-18 -2 -27 -2q-86 0 -113 74
q-39 -41 -80.5 -57.5t-106 -16.5t-104 39.5t-39.5 107.5v335q-55 -14 -84 -49l-27 31q29 30 73.5 48t88 18t71.5 -17.5t28 -43.5z" />
    <glyph glyph-name="Wcircumflex" unicode="&#x174;" horiz-adv-x="1057" 
d="M25 660v40h211l35 -535q7 -102 93 -102q93 0 148 110q-3 16 -5 52l-28 435h-62v40h211l35 -535q7 -102 93 -102q57 0 100 48q83 94 83 279q0 103 -36 183q-18 40 -47 52.5t-77 12.5h-38l-6 37l104 35q17 5 30 5t22 -4q36 -15 71 -91.5t35 -205.5q0 -168 -65 -293
q-33 -62 -87.5 -99t-124.5 -37q-145 0 -189 112q-76 -112 -203 -112q-110 0 -157.5 59t-55.5 181l-28 435h-62zM538 965q30 0 58 -38l108 -144l-21 -24l-141 95h-8l-141 -95l-21 24l108 144q28 38 58 38z" />
    <glyph glyph-name="wcircumflex" unicode="&#x175;" horiz-adv-x="944" 
d="M606 454v-333q0 -32 20 -48.5t50 -16.5q63 0 109 65.5t46 160.5q0 48 -19 101q-18 -12 -46 -12t-50.5 22.5t-22.5 54.5t22.5 54.5t56.5 22.5t58.5 -25.5t35.5 -67.5q18 -73 18 -143t-17 -122t-44 -84.5t-61 -55.5q-61 -42 -122 -42q-119 0 -164 78q-33 -38 -78 -58
t-83 -20q-85 0 -134.5 42.5t-49.5 124.5v315q-55 -14 -84 -49l-27 31q29 30 73.5 48t88 18t71.5 -17.5t28 -43.5v-333q0 -32 20 -48.5t50 -16.5q68 0 106 67q-1 9 -1 29v315q-55 -14 -84 -49l-27 31q29 30 73.5 48t88 18t71.5 -17.5t28 -43.5zM492 765q30 0 58 -38l108 -144
l-21 -24l-141 95h-8l-141 -95l-21 24l108 144q28 38 58 38z" />
    <glyph glyph-name="Ycircumflex" unicode="&#x176;" horiz-adv-x="607" 
d="M135 0v40h100v210l-182 410h-48v40h198l158 -392l90 392h151v-40h-47l-170 -410v-210h100v-40h-350zM313 965q30 0 58 -38l108 -144l-21 -24l-141 95h-8l-141 -95l-21 24l108 144q28 38 58 38z" />
    <glyph glyph-name="ycircumflex" unicode="&#x177;" horiz-adv-x="627" 
d="M86.5 497q44.5 18 88 18t71.5 -17.5t28 -43.5v-303q0 -32 20 -48.5t50 -16.5q64 0 109.5 55t45.5 141q0 48 -19 101q-18 -12 -46 -12t-50.5 22.5t-22.5 54.5t22.5 54.5t56.5 22.5t58.5 -25.5t35.5 -67.5q18 -73 18 -161.5t-20.5 -177.5t-54 -153t-75.5 -111
q-86 -94 -175 -94q-24 0 -39.5 10.5t-35.5 38.5l-52 72l26 27q48 -8 84 -8q112 0 183 71t112 231q-62 -172 -228 -172q-64 0 -108.5 43.5t-44.5 123.5v295q-55 -14 -84 -49l-27 31q29 30 73.5 48zM303 765q30 0 58 -38l108 -144l-21 -24l-141 95h-8l-141 -95l-21 24l108 144
q28 38 58 38z" />
    <glyph glyph-name="Ydieresis" unicode="&#x178;" horiz-adv-x="654" 
d="M136 0v40h100v210l-172 410h-50v40h200l144 -377l127 377h151v-40h-47l-203 -413v-207h100v-40h-350zM376 870q0 32 22 54t54 22t54 -22t22 -54t-22 -54t-54 -22t-54 22t-22 54zM146 870q0 32 22 54t54 22t54 -22t22 -54t-22 -54t-54 -22t-54 22t-22 54z" />
    <glyph glyph-name="Zacute" unicode="&#x179;" horiz-adv-x="590" 
d="M499 0h-469v40l363 620h-133q-66 0 -90.5 -13t-33.5 -58l-20 -99h-39l-27 168q0 20 9 29.5t19.5 11t32.5 1.5h444v-40l-356 -620h151q65 0 89.5 13t34.5 58l20 89h39l27 -158q0 -20 -9 -29.5t-19.5 -11t-32.5 -1.5zM395.5 958q13.5 7 33 7t36 -14.5t16.5 -37.5t-18 -40.5
t-65 -40.5l-148 -73l-21 24l119 132q17 19 25.5 27.5t22 15.5z" />
    <glyph glyph-name="zacute" unicode="&#x17a;" horiz-adv-x="620" 
d="M489 0h-414v40l308 420h-83q-66 0 -90.5 -13t-33.5 -58l-20 -99h-39l-27 168q0 20 9 29.5t19.5 11t32.5 1.5h394v-40l-301 -420h96q66 0 90.5 13t33.5 58l20 99h39l27 -168q0 -20 -9 -29.5t-19.5 -11t-32.5 -1.5zM400.5 758q13.5 7 33 7t36 -14.5t16.5 -37.5t-18 -40.5
t-65 -40.5l-148 -73l-21 24l119 132q17 19 25.5 27.5t22 15.5z" />
    <glyph glyph-name="Zdotaccent" unicode="&#x17b;" horiz-adv-x="590" 
d="M499 0h-469v40l363 620h-133q-66 0 -90.5 -13t-33.5 -58l-20 -99h-39l-27 168q0 20 9 29.5t19.5 11t32.5 1.5h444v-40l-356 -620h151q65 0 89.5 13t34.5 58l20 89h39l27 -158q0 -20 -9 -29.5t-19.5 -11t-32.5 -1.5zM245 870q0 33 23.5 56.5t56.5 23.5t56.5 -23.5
t23.5 -56.5t-23.5 -56.5t-56.5 -23.5t-56.5 23.5t-23.5 56.5z" />
    <glyph glyph-name="zdotaccent" unicode="&#x17c;" horiz-adv-x="620" 
d="M489 0h-414v40l308 420h-83q-66 0 -90.5 -13t-33.5 -58l-20 -99h-39l-27 168q0 20 9 29.5t19.5 11t32.5 1.5h394v-40l-301 -420h96q66 0 90.5 13t33.5 58l20 99h39l27 -168q0 -20 -9 -29.5t-19.5 -11t-32.5 -1.5zM250 670q0 33 23.5 56.5t56.5 23.5t56.5 -23.5
t23.5 -56.5t-23.5 -56.5t-56.5 -23.5t-56.5 23.5t-23.5 56.5z" />
    <glyph glyph-name="Zcaron" unicode="&#x17d;" horiz-adv-x="590" 
d="M499 0h-469v40l363 620h-133q-66 0 -90.5 -13t-33.5 -58l-20 -99h-39l-27 168q0 20 9 29.5t19.5 11t32.5 1.5h444v-40l-356 -620h151q65 0 89.5 13t34.5 58l20 89h39l27 -158q0 -20 -9 -29.5t-19.5 -11t-32.5 -1.5zM315 759q-30 0 -58 38l-108 144l21 24l141 -95h8
l141 95l21 -24l-108 -144q-28 -38 -58 -38z" />
    <glyph glyph-name="zcaron" unicode="&#x17e;" horiz-adv-x="620" 
d="M489 0h-414v40l308 420h-83q-66 0 -90.5 -13t-33.5 -58l-20 -99h-39l-27 168q0 20 9 29.5t19.5 11t32.5 1.5h394v-40l-301 -420h96q66 0 90.5 13t33.5 58l20 99h39l27 -168q0 -20 -9 -29.5t-19.5 -11t-32.5 -1.5zM320 559q-30 0 -58 38l-108 144l21 24l141 -95h8l141 95
l21 -24l-108 -144q-28 -38 -58 -38z" />
    <glyph glyph-name="florin" unicode="&#x192;" horiz-adv-x="599" 
d="M68 309v45h94q-5 90 -5 170.5t52.5 135.5t167.5 55q76 0 138 -40t64 -98v-3q0 -33 -23 -56.5t-56 -23.5t-57 24t-24 55t18 53t47 27q-30 15 -74.5 15t-73.5 -36t-29 -109.5t5 -168.5h176v-45h-173q2 -31 7 -96.5t8 -104.5q7 -115 7 -194.5t-45 -129t-145 -49.5
q-49 0 -93.5 18t-73.5 48l22 31q43 -37 101 -37q84 0 84 110q0 104 -10 238t-12 166h-97z" />
    <glyph glyph-name="Aringacute" unicode="&#x1fa;" horiz-adv-x="656" 
d="M169 660v40h238l199 -660h50v-40h-258v40h58l-37 123h-272l-36 -123h58v-40h-169v40h50l187 620h-68zM282 617l-121 -409h244zM232 785q-37 32 -37 84.5t37 85t88 32.5t80 -22l25 48q17 33 30 45.5t32 12.5t32.5 -11t13.5 -29t-12.5 -34t-47.5 -38l-39 -25q19 -29 19 -64
q0 -53 -37 -85t-92 -32t-92 32zM279 869q0 -83 44.5 -83t44.5 83t-44.5 83t-44.5 -83z" />
    <glyph glyph-name="aringacute" unicode="&#x1fb;" horiz-adv-x="710" 
d="M597 500v-389q0 -27 13 -42.5t40 -15.5t62 29l18 -24q-80 -73 -160 -73q-95 0 -117 89q-52 -89 -153 -89q-115 0 -175 74.5t-60 190t64.5 190.5t180.5 75q89 0 137 -71v56h150zM220 250q0 -96 28 -152t85.5 -56t88 56.5t30.5 151.5t-30.5 151.5t-88 56.5t-85.5 -56
t-28 -152zM259 585q-37 32 -37 84.5t37 85t88 32.5t80 -22l25 48q17 33 30 45.5t32 12.5t32.5 -11t13.5 -29t-12.5 -34t-47.5 -38l-39 -25q19 -29 19 -64q0 -53 -37 -85t-92 -32t-92 32zM306 669q0 -83 44.5 -83t44.5 83t-44.5 83t-44.5 -83z" />
    <glyph glyph-name="AEacute" unicode="&#x1fc;" horiz-adv-x="912" 
d="M-20 0v40h52l213 620h-67v40h603q22 0 32.5 -1.5t19.5 -11t9 -29.5l-27 -168h-39l-20 99q-9 45 -33.5 58t-90.5 13h-70v-342h230v-45h-230v-233h90q65 0 89.5 13t34.5 58l20 89h39l27 -158q0 -20 -9 -29.5t-19.5 -11t-32.5 -1.5h-449v40h60v233h-240l-80 -233h57v-40
h-169zM412 318v342h-109l-116 -342h225zM571.5 958q13.5 7 33 7t36 -14.5t16.5 -37.5t-18 -40.5t-65 -40.5l-148 -73l-21 24l119 132q17 19 25.5 27.5t22 15.5z" />
    <glyph glyph-name="aeacute" unicode="&#x1fd;" horiz-adv-x="904" 
d="M643 180q-55 0 -112 12q9 -66 41.5 -105.5t85.5 -39.5q96 0 163 75l28 -18q-34 -54 -90 -86.5t-129 -32.5t-129 36t-88 96q-19 -58 -65.5 -95t-123.5 -37t-123 44t-46 115.5t54 116t133 44.5t148 -31q0 132 -50 163q-22 14 -56 14q-71 0 -159 -53l-20 32
q60 48 111.5 66.5t121.5 18.5q98 0 149 -49q68 49 163 49t145 -44t50 -111t-55.5 -123.5t-146.5 -56.5zM527 250v-24q33 -7 54 -7q67 0 101.5 44.5t34.5 94t-19.5 76.5t-61.5 27t-75.5 -55t-33.5 -156zM278 52q112 0 112 187q-52 19 -97.5 19t-69 -30t-23.5 -76t21 -73
t57 -27zM530.5 758q13.5 7 33 7t36 -14.5t16.5 -37.5t-18 -40.5t-65 -40.5l-148 -73l-21 24l119 132q17 19 25.5 27.5t22 15.5z" />
    <glyph glyph-name="Oslashacute" unicode="&#x1fe;" horiz-adv-x="768" 
d="M718 349q0 -159 -87 -261.5t-248 -102.5q-32 0 -72 7l-19 -72h-49l22 83q-104 34 -159.5 127.5t-55.5 218.5q0 159 86.5 262.5t246.5 103.5q33 0 73 -7l19 71h50l-23 -82q105 -35 160.5 -128.5t55.5 -219.5zM563 349q0 189 -81 275l-156 -579q25 -13 58 -13
q86 0 132.5 92t46.5 225zM384 668q-59 0 -100 -46q-79 -86 -79 -274t80 -272l156 579q-28 13 -57 13zM454.5 958q13.5 7 33 7t36 -14.5t16.5 -37.5t-18 -40.5t-65 -40.5l-148 -73l-21 24l119 132q17 19 25.5 27.5t22 15.5z" />
    <glyph glyph-name="oslashacute" unicode="&#x1ff;" horiz-adv-x="660" 
d="M595 250q0 -112 -73.5 -188.5t-191.5 -76.5q-34 0 -69 8l-23 -65h-49l28 79q-71 31 -111.5 96t-40.5 147q0 112 73.5 188.5t191.5 76.5q33 0 68 -8l23 65h50l-29 -79q71 -31 112 -96t41 -147zM414 89.5q28 62.5 28 161t-29 161.5l-133 -367q21 -18 51 -18q55 0 83 62.5z
M248 410.5q-28 -62.5 -28 -162.5t27 -158l132 366q-20 17 -48 17q-55 0 -83 -62.5zM380.5 758q13.5 7 33 7t36 -14.5t16.5 -37.5t-18 -40.5t-65 -40.5l-148 -73l-21 24l119 132q17 19 25.5 27.5t22 15.5z" />
    <glyph glyph-name="uni0218" unicode="&#x218;" horiz-adv-x="570" 
d="M139 129q0 -39 38 -68t98 -29t95 29t35 77q0 61 -73 101l-148 79q-128 69 -128 197q0 82 60 141t179 59q80 0 152 -32t72 -76q0 -17 -11 -39l-48 -92l-35 11v84q0 45 -39.5 71t-94 26t-83.5 -32t-29 -73q0 -82 74 -121l127 -67q145 -76 145 -200q0 -94 -70.5 -142
t-178.5 -48q-81 0 -156 32t-75 76q0 17 11 39l48 92l35 -11v-84zM243.5 -179.5q-25.5 29.5 -25.5 58t19.5 48t48 19.5t47.5 -22t19 -67t-27.5 -100.5t-77.5 -100.5l-22 22q44 51 44 90q0 23 -25.5 52.5z" />
    <glyph glyph-name="uni0219" unicode="&#x219;" horiz-adv-x="474" 
d="M175 418q-24 37 -24 66t22.5 51.5t54.5 22.5t54.5 -22.5t22.5 -53.5t-31 -66q82 -60 126 -117.5t44 -133t-57 -128t-162 -52.5q-48 0 -96.5 21t-73.5 52l23 24q44 -35 95 -35t83.5 27.5t32.5 85.5q0 92 -68 192l-151 -189l-25 22q76 123 130 233zM199.5 -179.5
q-25.5 29.5 -25.5 58t19.5 48t48 19.5t47.5 -22t19 -67t-27.5 -100.5t-77.5 -100.5l-22 22q44 51 44 90q0 23 -25.5 52.5z" />
    <glyph glyph-name="uni021A" unicode="&#x21a;" horiz-adv-x="620" 
d="M395 660h-10v-620h100v-40h-350v40h100v620h-10q-66 0 -90.5 -13t-33.5 -58l-20 -99h-39l-27 168q0 20 9 29.5t19.5 11t32.5 1.5h468q22 0 32.5 -1.5t19.5 -11t9 -29.5l-27 -168h-39l-20 99q-9 45 -33.5 58t-90.5 13zM268.5 -179.5q-25.5 29.5 -25.5 58t19.5 48t48 19.5
t47.5 -22t19 -67t-27.5 -100.5t-77.5 -100.5l-22 22q44 51 44 90q0 23 -25.5 52.5z" />
    <glyph glyph-name="uni021B" unicode="&#x21b;" horiz-adv-x="424" 
d="M39 445v41h82v144h150v-144h113v-41h-113v-334q0 -27 13 -42.5t40 -15.5t62 29l18 -24q-80 -73 -160 -73q-123 0 -123 147v313h-82zM158.5 -179.5q-25.5 29.5 -25.5 58t19.5 48t48 19.5t47.5 -22t19 -67t-27.5 -100.5t-77.5 -100.5l-22 22q44 51 44 90q0 23 -25.5 52.5z
" />
    <glyph glyph-name="circumflex" unicode="&#x2c6;" horiz-adv-x="392" 
d="M196 765q30 0 58 -38l108 -144l-21 -24l-141 95h-8l-141 -95l-21 24l108 144q28 38 58 38z" />
    <glyph glyph-name="caron" unicode="&#x2c7;" horiz-adv-x="392" 
d="M196 559q-30 0 -58 38l-108 144l21 24l141 -95h8l141 95l21 -24l-108 -144q-28 -38 -58 -38z" />
    <glyph glyph-name="breve" unicode="&#x2d8;" horiz-adv-x="392" 
d="M156 678q19 -8 42.5 -8t50 18t38.5 32.5t30 39.5l45 -29q-50 -91 -87 -126.5t-79 -35.5t-79 35.5t-87 126.5l44 29q49 -67 82 -82z" />
    <glyph glyph-name="dotaccent" unicode="&#x2d9;" horiz-adv-x="399" 
d="M131 670q0 33 23.5 56.5t56.5 23.5t56.5 -23.5t23.5 -56.5t-23.5 -56.5t-56.5 -23.5t-56.5 23.5t-23.5 56.5z" />
    <glyph glyph-name="ring" unicode="&#x2da;" horiz-adv-x="312" 
d="M64 585q-37 32 -37 84.5t37 85t92 32.5t92 -32.5t37 -85t-37 -84.5t-92 -32t-92 32zM111 669q0 -83 44.5 -83t44.5 83t-44.5 83t-44.5 -83z" />
    <glyph glyph-name="ogonek" unicode="&#x2db;" horiz-adv-x="333" 
d="M153 -70.5q-12 -24.5 -12 -52t16.5 -42t47.5 -14.5t61 28l17 -29q-48 -58 -124 -58q-47 0 -78 23.5t-31 65t20.5 70t56.5 58.5l96 79h46l-66 -66q-38 -38 -50 -62.5z" />
    <glyph glyph-name="tilde" unicode="&#x2dc;" horiz-adv-x="447" 
d="M336 609v15q0 39 -28 39q-12 0 -23 -7l-85 -48q-32 -19 -60 -19t-50.5 26t-22.5 60.5t8 66.5h36v-15q0 -39 28 -39q12 0 23 7l85 48q32 19 60 19t50.5 -26t22.5 -60.5t-8 -66.5h-36z" />
    <glyph glyph-name="hungarumlaut" unicode="&#x2dd;" horiz-adv-x="486" 
d="M179.5 753q16.5 12 38.5 12t36.5 -12.5t14.5 -33.5q0 -34 -48 -69l-125 -91l-24 23l73 128q18 31 34.5 43zM369.5 753q16.5 12 38.5 12t36.5 -12.5t14.5 -33.5q0 -34 -48 -69l-125 -91l-24 23l73 128q18 31 34.5 43z" />
    <glyph glyph-name="uni0394" unicode="&#x394;" horiz-adv-x="656" 
d="M249 700h158l211 -700h-580zM282 617l-156 -525h314z" />
    <glyph glyph-name="uni03A9" unicode="&#x3a9;" horiz-adv-x="806" 
d="M591 429q0 102 -48 170.5t-139.5 68.5t-140 -68.5t-48.5 -170.5q0 -149 91 -214v-215h-164q-22 0 -32.5 1.5t-19.5 11t-9 29.5l22 118h40l7 -36q6 -32 31.5 -42t89.5 -10v102q-98 29 -149.5 97.5t-51.5 157.5q0 124 86.5 205t246.5 81t246.5 -81t86.5 -205
q0 -88 -52 -157t-149 -98v-102q64 0 89.5 10t31.5 42l7 36h40l22 -118q0 -20 -9 -29.5t-19.5 -11t-32.5 -1.5h-164v215q91 65 91 214z" />
    <glyph glyph-name="uni03BC" unicode="&#x3bc;" 
d="M274 454v-408q170 0 170 101v353h150v-389q0 -27 13 -42.5t40 -15.5t62 29l18 -24q-80 -73 -163 -73t-110 74q-38 -40 -78.5 -56.5t-101.5 -17.5v-235h-150v717q-55 -14 -84 -49l-27 31q29 30 73.5 48t88 18t71.5 -17.5t28 -43.5z" />
    <glyph glyph-name="pi" unicode="&#x3c0;" 
d="M60 460v40h613v-41h-117q38 -40 38 -106v-242q0 -27 13 -42.5t40 -15.5t62 29l18 -24q-80 -73 -160 -73q-123 0 -123 147v263q0 31 -19 48t-48 17h-66l-37 -460h-150l37 460h-101z" />
    <glyph glyph-name="Wgrave" unicode="&#x1e80;" horiz-adv-x="1057" 
d="M25 660v40h211l35 -535q7 -102 93 -102q93 0 148 110q-3 16 -5 52l-28 435h-62v40h211l35 -535q7 -102 93 -102q57 0 100 48q83 94 83 279q0 103 -36 183q-18 40 -47 52.5t-77 12.5h-38l-6 37l104 35q17 5 30 5t22 -4q36 -15 71 -91.5t35 -205.5q0 -168 -65 -293
q-33 -62 -87.5 -99t-124.5 -37q-145 0 -189 112q-76 -112 -203 -112q-110 0 -157.5 59t-55.5 181l-28 435h-62zM418.5 950.5q16.5 14.5 36 14.5t33 -7t22 -15.5t25.5 -27.5l119 -132l-21 -24l-148 73q-47 23 -65 40.5t-18 40.5t16.5 37.5z" />
    <glyph glyph-name="wgrave" unicode="&#x1e81;" horiz-adv-x="944" 
d="M606 454v-333q0 -32 20 -48.5t50 -16.5q63 0 109 65.5t46 160.5q0 48 -19 101q-18 -12 -46 -12t-50.5 22.5t-22.5 54.5t22.5 54.5t56.5 22.5t58.5 -25.5t35.5 -67.5q18 -73 18 -143t-17 -122t-44 -84.5t-61 -55.5q-61 -42 -122 -42q-119 0 -164 78q-33 -38 -78 -58
t-83 -20q-85 0 -134.5 42.5t-49.5 124.5v315q-55 -14 -84 -49l-27 31q29 30 73.5 48t88 18t71.5 -17.5t28 -43.5v-333q0 -32 20 -48.5t50 -16.5q68 0 106 67q-1 9 -1 29v315q-55 -14 -84 -49l-27 31q29 30 73.5 48t88 18t71.5 -17.5t28 -43.5zM372.5 750.5
q16.5 14.5 36 14.5t33 -7t22 -15.5t25.5 -27.5l119 -132l-21 -24l-148 73q-47 23 -65 40.5t-18 40.5t16.5 37.5z" />
    <glyph glyph-name="Wacute" unicode="&#x1e82;" horiz-adv-x="1057" 
d="M25 660v40h211l35 -535q7 -102 93 -102q93 0 148 110q-3 16 -5 52l-28 435h-62v40h211l35 -535q7 -102 93 -102q57 0 100 48q83 94 83 279q0 103 -36 183q-18 40 -47 52.5t-77 12.5h-38l-6 37l104 35q17 5 30 5t22 -4q36 -15 71 -91.5t35 -205.5q0 -168 -65 -293
q-33 -62 -87.5 -99t-124.5 -37q-145 0 -189 112q-76 -112 -203 -112q-110 0 -157.5 59t-55.5 181l-28 435h-62zM588.5 958q13.5 7 33 7t36 -14.5t16.5 -37.5t-18 -40.5t-65 -40.5l-148 -73l-21 24l119 132q17 19 25.5 27.5t22 15.5z" />
    <glyph glyph-name="wacute" unicode="&#x1e83;" horiz-adv-x="944" 
d="M606 454v-333q0 -32 20 -48.5t50 -16.5q63 0 109 65.5t46 160.5q0 48 -19 101q-18 -12 -46 -12t-50.5 22.5t-22.5 54.5t22.5 54.5t56.5 22.5t58.5 -25.5t35.5 -67.5q18 -73 18 -143t-17 -122t-44 -84.5t-61 -55.5q-61 -42 -122 -42q-119 0 -164 78q-33 -38 -78 -58
t-83 -20q-85 0 -134.5 42.5t-49.5 124.5v315q-55 -14 -84 -49l-27 31q29 30 73.5 48t88 18t71.5 -17.5t28 -43.5v-333q0 -32 20 -48.5t50 -16.5q68 0 106 67q-1 9 -1 29v315q-55 -14 -84 -49l-27 31q29 30 73.5 48t88 18t71.5 -17.5t28 -43.5zM542.5 758q13.5 7 33 7
t36 -14.5t16.5 -37.5t-18 -40.5t-65 -40.5l-148 -73l-21 24l119 132q17 19 25.5 27.5t22 15.5z" />
    <glyph glyph-name="Wdieresis" unicode="&#x1e84;" horiz-adv-x="1057" 
d="M25 660v40h211l35 -535q7 -102 93 -102q93 0 148 110q-3 16 -5 52l-28 435h-62v40h211l35 -535q7 -102 93 -102q57 0 100 48q83 94 83 279q0 103 -36 183q-18 40 -47 52.5t-77 12.5h-38l-6 37l104 35q17 5 30 5t22 -4q36 -15 71 -91.5t35 -205.5q0 -168 -65 -293
q-33 -62 -87.5 -99t-124.5 -37q-145 0 -189 112q-76 -112 -203 -112q-110 0 -157.5 59t-55.5 181l-28 435h-62zM327 870q0 32 22.5 54t53.5 22t53.5 -22t22.5 -54t-22.5 -54t-53.5 -22t-53.5 22t-22.5 54zM557 870q0 32 22.5 54t53.5 22t53.5 -22t22.5 -54t-22.5 -54
t-53.5 -22t-53.5 22t-22.5 54z" />
    <glyph glyph-name="wdieresis" unicode="&#x1e85;" horiz-adv-x="944" 
d="M606 454v-333q0 -32 20 -48.5t50 -16.5q63 0 109 65.5t46 160.5q0 48 -19 101q-18 -12 -46 -12t-50.5 22.5t-22.5 54.5t22.5 54.5t56.5 22.5t58.5 -25.5t35.5 -67.5q18 -73 18 -143t-17 -122t-44 -84.5t-61 -55.5q-61 -42 -122 -42q-119 0 -164 78q-33 -38 -78 -58
t-83 -20q-85 0 -134.5 42.5t-49.5 124.5v315q-55 -14 -84 -49l-27 31q29 30 73.5 48t88 18t71.5 -17.5t28 -43.5v-333q0 -32 20 -48.5t50 -16.5q68 0 106 67q-1 9 -1 29v315q-55 -14 -84 -49l-27 31q29 30 73.5 48t88 18t71.5 -17.5t28 -43.5zM311 670q0 32 22.5 54t53.5 22
t53.5 -22t22.5 -54t-22.5 -54t-53.5 -22t-53.5 22t-22.5 54zM541 670q0 32 22.5 54t53.5 22t53.5 -22t22.5 -54t-22.5 -54t-53.5 -22t-53.5 22t-22.5 54z" />
    <glyph glyph-name="Ygrave" unicode="&#x1ef2;" horiz-adv-x="607" 
d="M135 0v40h100v210l-182 410h-48v40h198l158 -392l90 392h151v-40h-47l-170 -410v-210h100v-40h-350zM193.5 950.5q16.5 14.5 36 14.5t33 -7t22 -15.5t25.5 -27.5l119 -132l-21 -24l-148 73q-47 23 -65 40.5t-18 40.5t16.5 37.5z" />
    <glyph glyph-name="ygrave" unicode="&#x1ef3;" horiz-adv-x="627" 
d="M86.5 497q44.5 18 88 18t71.5 -17.5t28 -43.5v-303q0 -32 20 -48.5t50 -16.5q64 0 109.5 55t45.5 141q0 48 -19 101q-18 -12 -46 -12t-50.5 22.5t-22.5 54.5t22.5 54.5t56.5 22.5t58.5 -25.5t35.5 -67.5q18 -73 18 -161.5t-20.5 -177.5t-54 -153t-75.5 -111
q-86 -94 -175 -94q-24 0 -39.5 10.5t-35.5 38.5l-52 72l26 27q48 -8 84 -8q112 0 183 71t112 231q-62 -172 -228 -172q-64 0 -108.5 43.5t-44.5 123.5v295q-55 -14 -84 -49l-27 31q29 30 73.5 48zM193.5 750.5q16.5 14.5 36 14.5t33 -7t22 -15.5t25.5 -27.5l119 -132
l-21 -24l-148 73q-47 23 -65 40.5t-18 40.5t16.5 37.5z" />
    <glyph glyph-name="endash" unicode="&#x2013;" horiz-adv-x="500" 
d="M0 315v60h500v-60h-500z" />
    <glyph glyph-name="emdash" unicode="&#x2014;" horiz-adv-x="1000" 
d="M0 315v60h1000v-60h-1000z" />
    <glyph glyph-name="quoteleft" unicode="&#x2018;" horiz-adv-x="274" 
d="M207 740q-44 -51 -44 -88.5t25.5 -59t25.5 -56t-22.5 -57t-55 -22.5t-54.5 25t-22 68q0 112 120 215z" />
    <glyph glyph-name="quoteright" unicode="&#x2019;" horiz-adv-x="274" 
d="M67 482q44 51 44 88.5t-25.5 59t-25.5 56t22.5 57t55 22.5t54.5 -25t22 -68q0 -112 -120 -215z" />
    <glyph glyph-name="quotesinglbase" unicode="&#x201a;" horiz-adv-x="274" 
d="M67 -144q44 51 44 88.5t-25.5 59t-25.5 56t22.5 57t55 22.5t54.5 -25t22 -68q0 -112 -120 -215z" />
    <glyph glyph-name="quotedblleft" unicode="&#x201c;" horiz-adv-x="494" 
d="M207 740q-44 -51 -44 -88.5t25.5 -59t25.5 -56t-22.5 -57t-55 -22.5t-54.5 25t-22 68q0 112 120 215zM427 740q-44 -51 -44 -88.5t25.5 -59t25.5 -56t-22.5 -57t-55 -22.5t-54.5 25t-22 68q0 112 120 215z" />
    <glyph glyph-name="quotedblright" unicode="&#x201d;" horiz-adv-x="494" 
d="M287 482q44 51 44 88.5t-25.5 59t-25.5 56t22.5 57t55 22.5t54.5 -25t22 -68q0 -112 -120 -215zM67 482q44 51 44 88.5t-25.5 59t-25.5 56t22.5 57t55 22.5t54.5 -25t22 -68q0 -112 -120 -215z" />
    <glyph glyph-name="quotedblbase" unicode="&#x201e;" horiz-adv-x="494" 
d="M287 -144q44 51 44 88.5t-25.5 59t-25.5 56t22.5 57t55 22.5t54.5 -25t22 -68q0 -112 -120 -215zM67 -144q44 51 44 88.5t-25.5 59t-25.5 56t22.5 57t55 22.5t54.5 -25t22 -68q0 -112 -120 -215z" />
    <glyph glyph-name="dagger" unicode="&#x2020;" horiz-adv-x="581" 
d="M226.5 654.5q-7.5 26.5 -7.5 48t19.5 42t52 20.5t52 -20t19.5 -42t-7.5 -48.5t-20.5 -63.5t-19 -62q25 6 62 19q80 28 106.5 28t47 -19t20.5 -52t-20.5 -52t-42 -19t-47.5 7.5t-62.5 20t-59.5 18.5q6 -74 18 -188q25 -239 25 -307q0 -27 -19.5 -47t-52 -20t-52 20.5
t-19.5 54.5t6 107t18.5 193t18.5 187q-24 -6 -60 -18q-81 -28 -106 -28t-45.5 19t-20.5 52t20.5 52t42 19t48 -7.5t63.5 -20.5t62 -19q-6 25 -19 62t-20.5 63.5z" />
    <glyph glyph-name="daggerdbl" unicode="&#x2021;" horiz-adv-x="581" 
d="M226.5 654.5q-7.5 26.5 -7.5 48t19.5 42t52 20.5t52 -20t19.5 -42t-7.5 -48.5t-20.5 -63.5t-19 -62q25 6 62 19q80 28 106.5 28t47 -19t20.5 -52t-20.5 -52t-41.5 -19t-45.5 7t-60 19t-57.5 18l29 -137l-29 -136q22 6 58 18q76 26 101 26t45.5 -19t20.5 -52t-20.5 -52
t-42 -19t-48 7.5t-63.5 20.5t-62 19q6 -25 19 -62q28 -80 28 -107t-19.5 -47t-52 -20t-52 20.5t-19.5 42t7.5 48t20.5 63.5t19 62q-25 -6 -62 -19q-80 -28 -106.5 -28t-47 19t-20.5 52t20.5 52t41.5 19t45.5 -7t60 -19t57.5 -18l-29 136l29 137q-22 -6 -57 -18
q-77 -26 -102 -26t-45.5 19t-20.5 52t20.5 52t42 19t48 -7.5t63.5 -20.5t62 -19q-6 25 -19 62t-20.5 63.5z" />
    <glyph glyph-name="bullet" unicode="&#x2022;" horiz-adv-x="298" 
d="M60 365q0 37 26 63t63 26t63 -26t26 -63t-26 -63t-63 -26t-63 26t-26 63z" />
    <glyph glyph-name="ellipsis" unicode="&#x2026;" horiz-adv-x="822" 
d="M60 62q0 32 22.5 54.5t54.5 22.5t54.5 -22.5t22.5 -54.5t-22.5 -54.5t-54.5 -22.5t-54.5 22.5t-22.5 54.5zM334 62q0 32 22.5 54.5t54.5 22.5t54.5 -22.5t22.5 -54.5t-22.5 -54.5t-54.5 -22.5t-54.5 22.5t-22.5 54.5zM608 62q0 32 22.5 54.5t54.5 22.5t54.5 -22.5
t22.5 -54.5t-22.5 -54.5t-54.5 -22.5t-54.5 22.5t-22.5 54.5z" />
    <glyph glyph-name="perthousand" unicode="&#x2030;" horiz-adv-x="1399" 
d="M737 700l-390 -700h-40l390 700h40zM134 645q44 64 117 64t117.5 -64t44.5 -158.5t-44.5 -157.5t-117.5 -63t-117 63.5t-44 157.5t44 158zM299 620.5q-16 51.5 -47.5 51.5t-47.5 -51.5t-16 -133.5t16 -133t47.5 -51t47.5 51t16 133t-16 133.5zM675 370q44 64 117 64
t117.5 -64t44.5 -158.5t-44.5 -157.5t-117.5 -63t-117 63.5t-44 157.5t44 158zM840 345.5q-16 51.5 -47.5 51.5t-47.5 -51.5t-16 -133.5t16 -133t47.5 -51t47.5 51t16 133t-16 133.5zM1030 370q44 64 117 64t117.5 -64t44.5 -158.5t-44.5 -157.5t-117.5 -63t-117 63.5
t-44 157.5t44 158zM1195 345.5q-16 51.5 -47.5 51.5t-47.5 -51.5t-16 -133.5t16 -133t47.5 -51t47.5 51t16 133t-16 133.5z" />
    <glyph glyph-name="guilsinglleft" unicode="&#x2039;" horiz-adv-x="286" 
d="M30 292q0 32 28 58l144 138l24 -21l-95 -171v-8l95 -171l-24 -21l-144 138q-28 26 -28 58z" />
    <glyph glyph-name="guilsinglright" unicode="&#x203a;" horiz-adv-x="286" 
d="M256 292q0 -32 -28 -58l-144 -138l-24 21l95 171v8l-95 171l24 21l144 -138q28 -26 28 -58z" />
    <glyph glyph-name="fraction" unicode="&#x2044;" horiz-adv-x="470" 
d="M450 700l-390 -700h-40l390 700h40z" />
    <glyph glyph-name="zeroinferior" unicode="&#x2080;" horiz-adv-x="440" 
d="M101 200q44 64 117 64t117.5 -64t44.5 -158.5t-44.5 -157.5t-117.5 -63t-117 63.5t-44 157.5t44 158zM266 175.5q-16 51.5 -47.5 51.5t-47.5 -51.5t-16 -133.5t16 -133t47.5 -51t47.5 51t16 133t-16 133.5z" />
    <glyph glyph-name="oneinferior" unicode="&#x2081;" horiz-adv-x="363" 
d="M249 255v-390h76v-35h-265v35h88v302q-49 -19 -113 -19v35q56 0 104 20t75 52h35z" />
    <glyph glyph-name="twoinferior" unicode="&#x2082;" horiz-adv-x="440" 
d="M320 -170h-257v31l141 143q59 59 59 126q0 39 -22.5 65t-56.5 26q-15 0 -31 -4q22 -15 22 -39t-16 -40.5t-37.5 -16.5t-37 16t-15.5 37q0 41 41.5 65.5t103.5 24.5t102 -33.5t40 -81.5q0 -25 -20 -57.5t-37 -50.5t-51 -51l-96 -94h82q35 0 51 9.5t21 33.5l6 27h32
l17 -105q0 -15 -6.5 -22t-13 -8t-21.5 -1z" />
    <glyph glyph-name="threeinferior" unicode="&#x2083;" horiz-adv-x="440" 
d="M159 217q22 -15 22 -39.5t-16 -40.5t-37.5 -16t-37 16t-15.5 37q0 41 42.5 65.5t105 24.5t101 -33.5t38.5 -81.5q0 -66 -72 -104q36 -14 57 -40t21 -57q0 -54 -45 -90.5t-108.5 -36.5t-104.5 24t-41 66q0 21 15.5 37t37 16t37.5 -16t16 -42t-23 -41q12 -2 20 -2
q45 0 69 25.5t24 58.5t-22.5 56.5t-64.5 23.5h-37v36h46q41 0 62.5 25.5t21.5 57.5t-21 53.5t-60 21.5q-15 0 -31 -4z" />
    <glyph glyph-name="fourinferior" unicode="&#x2084;" horiz-adv-x="440" 
d="M253 255q0 -85 -43.5 -162.5t-103.5 -127.5h120v117q52 19 64 64h37v-181h35v-42h-35v-58h70v-35h-247v35h76v58h-181v38q89 82 96 294h112z" />
    <glyph glyph-name="fiveinferior" unicode="&#x2085;" horiz-adv-x="440" 
d="M308 255q15 0 22 -1t13 -8.5t6 -22.5l-16 -104h-33l-7 32q-5 25 -21 34.5t-51 9.5h-75q-3 -27 -7 -117q29 9 54 9q78 0 126.5 -38.5t48.5 -94.5t-45 -94.5t-108.5 -38.5t-104.5 24t-41 66q0 21 15.5 37t37 16t37.5 -16t16 -42t-23 -41q12 -2 20 -2q45 0 69 27t24 64
t-24 63.5t-62.5 26.5t-68.5 -17l-19 21l13 207h204z" />
    <glyph glyph-name="sixinferior" unicode="&#x2086;" horiz-adv-x="440" 
d="M250 168q0 35 29 48q-15 12 -40 12q-75 0 -78 -163q29 27 80 27t89 -38.5t38 -95.5t-40.5 -97t-108.5 -40q-150 0 -150 214q0 104 46.5 166.5t122.5 62.5q54 0 86 -30.5t32 -65.5q0 -21 -15.5 -37t-37 -16t-37.5 16t-16 37zM218 50q-28 0 -43 -25t-15 -67t15 -71
t43.5 -29t43 27t14.5 70q0 95 -58 95z" />
    <glyph glyph-name="seveninferior" unicode="&#x2087;" horiz-adv-x="391" 
d="M220 -31q0 -27 9 -53t9 -45t-16 -34.5t-38 -15.5t-37 17.5t-15 54.5t32.5 121t102.5 170l9 11h-95q-63 0 -72 -44l-6 -32h-33l-17 104q0 15 6.5 22.5t13.5 8.5t22 1h250v-32q-125 -141 -125 -254z" />
    <glyph glyph-name="eightinferior" unicode="&#x2088;" horiz-adv-x="440" 
d="M321.5 235.5q45.5 -28.5 45.5 -90t-68 -99.5q36 -16 58 -44t22 -60q0 -60 -47.5 -90.5t-112 -30.5t-113 30t-48.5 91q0 31 22.5 59.5t58.5 44.5q-69 38 -69 99t44 90t103 29t104.5 -28.5zM278 -64q0 63 -72 86q-47 -25 -47 -86q0 -33 16.5 -55.5t43.5 -22.5t43 22.5
t16 55.5zM276 154q0 29 -15.5 51t-42.5 22t-42 -22t-15 -51q0 -71 68 -87q47 18 47 87z" />
    <glyph glyph-name="nineinferior" unicode="&#x2089;" horiz-adv-x="440" 
d="M165 -46q16 -16 16 -42t-27 -44q13 -11 44 -11q80 0 80 156q0 1 -0.5 5.5t-0.5 7.5q-30 -34 -83 -34t-89 36.5t-36 96t40 99.5t113 40t109.5 -58t36.5 -159t-46.5 -163.5t-122.5 -62.5q-53 0 -88.5 26t-35.5 70q0 21 15.5 37t37 16t37.5 -16zM218 34q28 0 43 25t15 67.5
t-15 71.5t-43 29t-43 -27t-15 -70q0 -96 58 -96z" />
    <glyph glyph-name="Euro" unicode="&#x20ac;" horiz-adv-x="650" 
d="M437 668q-165 0 -185 -244h203v-45h-205v-25q0 -48 2 -70h203v-45h-197q30 -188 156 -188q61 0 100 25.5t71 67.5l35 -25q-43 -63 -95 -98.5t-135 -35.5q-110 0 -184 70t-99 184h-72v45h64q-4 28 -4 65v30h-60v45h65q17 131 95.5 211t211.5 80q78 0 140 -41t62 -100
q0 -33 -23 -56.5t-56 -23.5t-57 24t-24 54.5t17 52t44 27.5q-34 16 -73 16z" />
    <glyph glyph-name="trademark" unicode="&#x2122;" horiz-adv-x="997" 
d="M432 664v36h141l103 -337l96 337h160v-36h-34v-354h36v-35h-171v35h34l-16 252l-82 -287h-99l-88 287l-14 -252h34v-35h-117v35h37l19 354h-39zM89 700h275q15 0 22.5 -1t14 -8.5t6.5 -22.5l-17 -104h-34l-12 63q-4 24 -17.5 30.5t-49.5 6.5v-354h59v-35h-218v35h59v354
q-37 0 -49.5 -6.5t-17.5 -30.5l-13 -63h-34l-16 104q0 15 6.5 22.5t13.5 8.5t22 1z" />
    <glyph glyph-name="Omega" unicode="&#x2126;" horiz-adv-x="806" 
d="M591 429q0 102 -48 170.5t-139.5 68.5t-140 -68.5t-48.5 -170.5q0 -149 91 -214v-215h-164q-22 0 -32.5 1.5t-19.5 11t-9 29.5l22 118h40l7 -36q6 -32 31.5 -42t89.5 -10v102q-98 29 -149.5 97.5t-51.5 157.5q0 124 86.5 205t246.5 81t246.5 -81t86.5 -205
q0 -88 -52 -157t-149 -98v-102q64 0 89.5 10t31.5 42l7 36h40l22 -118q0 -20 -9 -29.5t-19.5 -11t-32.5 -1.5h-164v215q91 65 91 214z" />
    <glyph glyph-name="estimated" unicode="&#x212e;" horiz-adv-x="846" 
d="M207 106q87 -100 220.5 -100t225.5 112h52q-52 -62 -125 -97t-157 -35q-148 0 -251 98t-103 238t103 238t250 98t251 -98.5t104 -237.5v-8h-574q-4 0 -4 -4v-184q0 -6 8 -20zM203 332h440q6 0 6 6v184q0 12 -10 22q-89 94 -215 94t-217 -98q-8 -14 -8 -22v-180q0 -6 4 -6
z" />
    <glyph glyph-name="partialdiff" unicode="&#x2202;" horiz-adv-x="673" 
d="M74 186q0 116 80 207.5t201 91.5q83 0 114 -58l10 4q1 15 1 45q0 105 -28.5 172t-99 67t-137.5 -48l-14 54q81 44 165 44q120 0 179.5 -90t59.5 -236q0 -213 -87 -333.5t-237 -120.5q-97 0 -152 56t-55 145zM429 403q-22 35 -64 35t-73 -31.5t-48 -78.5q-33 -95 -33 -176
q0 -125 78 -125q69 0 115.5 85t46.5 197q0 59 -22 94z" />
    <glyph glyph-name="Delta" unicode="&#x2206;" horiz-adv-x="656" 
d="M249 700h158l211 -700h-580zM282 617l-156 -525h314z" />
    <glyph glyph-name="product" unicode="&#x220f;" horiz-adv-x="740" 
d="M70 660v40h600v-40h-60v-660h-150v660h-180v-660h-150v660h-60z" />
    <glyph glyph-name="summation" unicode="&#x2211;" horiz-adv-x="555" 
d="M310 92q64 0 93 18t39 64l7 36h39l27 -168q0 -20 -9 -29.5t-19.5 -11t-32.5 -1.5h-424v40l216 300l-211 320v40h419q22 0 32.5 -1.5t19.5 -11t9 -29.5l-27 -168h-39l-20 99q-9 45 -33.5 58t-90.5 13h-120l169 -253l-227 -315h183z" />
    <glyph glyph-name="minus" unicode="&#x2212;" horiz-adv-x="560" 
d="M90 320v60h380v-60h-380z" />
    <glyph glyph-name="radical" unicode="&#x221a;" horiz-adv-x="605" 
d="M22 250l-22 39l222 128l118 -335l166 618h61l-191 -700h-158l-110 300z" />
    <glyph glyph-name="infinity" unicode="&#x221e;" horiz-adv-x="780" 
d="M205 476q-53 0 -93 -33t-40 -93t39.5 -93t96 -33t95 30t61.5 96q-44 126 -159 126zM318 153q-47 -44 -106.5 -44t-103.5 37q-78 67 -78 204q0 88 40 160q21 37 58.5 59t90 22t99.5 -44.5t72 -116.5q25 72 72 116t106.5 44t103.5 -37q78 -67 78 -204q0 -88 -40 -161
q-21 -36 -58.5 -58t-90 -22t-99.5 44.5t-72 116.5q-25 -72 -72 -116zM575 223q53 0 93 33t40 93t-39.5 93t-96 33t-95 -30t-61.5 -96q44 -126 159 -126z" />
    <glyph glyph-name="integral" unicode="&#x222b;" horiz-adv-x="464" 
d="M307 546v-633q0 -79 -45 -128.5t-145 -49.5q-49 0 -93.5 18t-73.5 48l27 31q43 -37 96 -37q84 0 84 110v633q0 79 45 128.5t145 49.5q49 0 93.5 -18t73.5 -48l-27 -31q-43 37 -96 37q-84 0 -84 -110z" />
    <glyph glyph-name="approxequal" unicode="&#x2248;" horiz-adv-x="560" 
d="M90 480q36 -18 76 -18t113.5 17.5t113 17.5t77.5 -17v-60q-37 19 -77 19t-114 -19t-114 -19t-75 19v60zM90 280q36 -18 76 -18t113.5 17.5t113 17.5t77.5 -17v-60q-37 19 -77 19t-114 -19t-114 -19t-75 19v60z" />
    <glyph glyph-name="notequal" unicode="&#x2260;" horiz-adv-x="560" 
d="M470 480v-60h-147l-38 -140h185v-60h-201l-81 -300h-49l81 300h-130v60h146l38 140h-184v60h200l81 299h50l-81 -299h130z" />
    <glyph glyph-name="lessequal" unicode="&#x2264;" horiz-adv-x="560" 
d="M90 0v60h380v-60h-380zM90 320v60l380 160v-60l-309 -130l309 -130v-60z" />
    <glyph glyph-name="greaterequal" unicode="&#x2265;" horiz-adv-x="560" 
d="M90 0v60h380v-60h-380zM470 380v-60l-380 -160v60l309 130l-309 130v60z" />
    <glyph glyph-name="lozenge" unicode="&#x25ca;" horiz-adv-x="550" 
d="M354 0h-158l-181 310l181 390h158l181 -310zM229 645l-112 -245l204 -346l112 246z" />
    <glyph glyph-name="dieresis.case" horiz-adv-x="490" 
d="M54 870q0 32 22 54t54 22t54 -22t22 -54t-22 -54t-54 -22t-54 22t-22 54zM284 870q0 32 22 54t54 22t54 -22t22 -54t-22 -54t-54 -22t-54 22t-22 54z" />
    <glyph glyph-name="tilde.case" horiz-adv-x="447" 
d="M336 809v15q0 39 -28 39q-12 0 -23 -7l-85 -48q-32 -19 -60 -19t-50.5 26t-22.5 60.5t8 66.5h36v-15q0 -39 28 -39q12 0 23 7l85 48q32 19 60 19t50.5 -26t22.5 -60.5t-8 -66.5h-36z" />
    <glyph glyph-name="acute.case" horiz-adv-x="371" 
d="M258.5 958q13.5 7 33 7t36 -14.5t16.5 -37.5t-18 -40.5t-65 -40.5l-148 -73l-21 24l119 132q17 19 25.5 27.5t22 15.5z" />
    <glyph glyph-name="grave.case" horiz-adv-x="371" 
d="M43.5 950.5q16.5 14.5 36 14.5t33 -7t22 -15.5t25.5 -27.5l119 -132l-21 -24l-148 73q-47 23 -65 40.5t-18 40.5t16.5 37.5z" />
    <glyph glyph-name="dotaccent.case" horiz-adv-x="399" 
d="M131 870q0 33 23.5 56.5t56.5 23.5t56.5 -23.5t23.5 -56.5t-23.5 -56.5t-56.5 -23.5t-56.5 23.5t-23.5 56.5z" />
    <glyph glyph-name="thin-slash" horiz-adv-x="382" 
d="M332 779l-233 -859h-49l232 859h50z" />
    <glyph glyph-name="eslash" horiz-adv-x="359" 
d="M27 293l-19 38l324 165l19 -38z" />
    <glyph glyph-name="barra" horiz-adv-x="470" 
d="M45 273v45h380v-45h-380z" />
    <glyph glyph-name="apple" horiz-adv-x="963" 
d="M609 -89l-23 1q-14 0 -31.5 -12t-26.5 -12l-46 10q-8 0 -23.5 -6t-24 -6t-24.5 12.5t-29 12.5l-24 -2q-15 0 -33 17l-18 19q-12 6 -25 7t-22 6.5t-16 23t-12.5 22t-19.5 10t-20 14.5q-5 9 -7 23.5t-6 21t-14 13.5q-22 18 -22 38l3 25q0 9 -12.5 26.5t-12.5 26.5t6 23.5
t6 23t-6 21.5t-6 22t12.5 29.5t12.5 29.5l-1 25q0 15 16.5 29.5t19 19.5t4.5 21t6 22t19.5 12t20.5 11t12 20.5t13.5 21t25.5 9.5t24.5 7t20.5 20t29 18l26 -2q13 0 28.5 11.5t26.5 11.5l44 -12l45 12q13 0 29 -12.5t28 -12.5l28 3q16 0 29 -16.5t19.5 -20t21.5 -6.5
t22.5 -8t12.5 -19t10.5 -19t25.5 -15.5t24.5 -18.5t5 -24t3 -20.5t19.5 -19t17 -30.5l-1 -25q0 -13 12 -31.5t12 -27.5t-5.5 -22t-5.5 -20t5.5 -21.5t5 -22.5t-12.5 -20.5t-12 -26.5l2 -32q0 -16 -16 -29t-18.5 -18t-7 -24t-10 -25.5t-18 -12t-17.5 -10.5t-14 -21.5
t-16 -21.5t-24.5 -9.5t-22.5 -7.5t-18.5 -16.5t-28.5 -13.5zM482 -6l33 -7q6 0 17 7q15 10 27 10l15 -1q12 0 21 10t12.5 12t16.5 5.5t18.5 7.5t12 15.5t10 15t12.5 7.5t13 8.5t7 18.5t5.5 18t13.5 13t11 23l-1 20q0 11 8.5 20.5t9.5 15.5l-8 32l8 28q0 8 -9 22t-9 23l1 17
q0 12 -12 22t-14 14t-2.5 15.5t-3.5 17t-17.5 13t-18.5 11.5t-8 14t-9 14t-16 6t-16 4.5t-14 14.5t-21 12l-20 -2q-9 0 -20 9t-21 9l-33 -9l-32 9q-8 0 -20 -8.5t-22 -8.5l-17 1q-11 0 -21.5 -12.5t-15 -15t-17.5 -5t-18 -6.5t-10 -15t-9 -15t-14.5 -8t-14.5 -9
q-2 -4 -4 -15.5t-4 -15.5t-14 -14.5t-12 -21.5l1 -16q0 -8 -8.5 -23t-8.5 -23l8 -30l-8 -33q0 -8 8.5 -20.5t8.5 -20.5l-2 -16q0 -11 12.5 -22.5t14.5 -15.5t3.5 -14.5t5.5 -17t14 -10.5t14 -7.5t9.5 -16.5t11.5 -17t15.5 -4t15.5 -3t17.5 -15.5t22.5 -12.5l15 1
q10 0 22 -8.5t18 -9.5zM482 417q70 0 120 -49.5t50 -120.5t-50 -120.5t-120 -49.5t-120 49.5t-50 120.5t50 120.5t120 49.5zM524 292h53v68h-191v-68h53v-175h85v175z" />
    <glyph glyph-name="ring.case" horiz-adv-x="312" 
d="M64 785q-37 32 -37 84.5t37 85t92 32.5t92 -32.5t37 -85t-37 -84.5t-92 -32t-92 32zM111 869q0 -83 44.5 -83t44.5 83t-44.5 83t-44.5 -83z" />
    <glyph glyph-name="circumflex.case" horiz-adv-x="392" 
d="M196 965q30 0 58 -38l108 -144l-21 -24l-141 95h-8l-141 -95l-21 24l108 144q28 38 58 38z" />
    <glyph glyph-name="caron.case" horiz-adv-x="392" 
d="M196 759q-30 0 -58 38l-108 144l21 24l141 -95h8l141 95l21 -24l-108 -144q-28 -38 -58 -38z" />
    <glyph glyph-name="breve.case" horiz-adv-x="392" 
d="M156 878q19 -8 42.5 -8t50 18t38.5 32.5t30 39.5l45 -29q-50 -91 -87 -126.5t-79 -35.5t-79 35.5t-87 126.5l44 29q49 -67 82 -82z" />
    <glyph glyph-name="ogonek.001" horiz-adv-x="333" 
d="M153 -70.5q-12 -24.5 -12 -52t16.5 -42t47.5 -14.5t61 28l17 -29q-48 -58 -124 -58q-47 0 -78 23.5t-31 71.5q0 24 15 48.5t30 38t42 35.5l26 21h48l-8 -8q-38 -38 -50 -62.5z" />
    <glyph glyph-name="commaaccent" horiz-adv-x="300" 
d="M108.5 -179.5q-25.5 29.5 -25.5 58t19.5 48t48 19.5t47.5 -22t19 -67t-27.5 -100.5t-77.5 -100.5l-22 22q44 51 44 90q0 23 -25.5 52.5z" />
    <glyph glyph-name="G.alt" horiz-adv-x="700" 
d="M350 273v45h285v-318h-55l-36 49q-75 -64 -189 -64q-130 0 -217.5 106t-87.5 261t90.5 259t251.5 104q81 0 156 -32t75 -76q0 -17 -11 -39l-56 -92l-36 12l5 37q4 24 4 46q0 39 -38 68t-99 29q-92 0 -139.5 -89.5t-47.5 -224t51.5 -219t150.5 -84.5q40 0 78 16v206h-135z
" />
    <glyph glyph-name="macron.case" horiz-adv-x="490" 
d="M98 900h294v-88h-294v88z" />
    <glyph glyph-name="t.corta" horiz-adv-x="424" 
d="M39 445v41h82v144h150v-144h82v-41h-82v-334q0 -27 13 -42.5t40 -15.5t62 29l18 -24q-80 -73 -160 -73q-123 0 -123 147v313h-82z" />
    <glyph glyph-name="j.alt" horiz-adv-x="383" 
d="M290 454v-541q0 -79 -45 -128.5t-145 -49.5q-49 0 -93.5 18t-73.5 48l22 31q43 -37 101 -37q84 0 84 110v562q-55 -14 -84 -49l-27 31q29 30 73.5 48t88 18t71.5 -17.5t28 -43.5z" />
    <glyph glyph-name="hungarumlaut.case" horiz-adv-x="486" 
d="M179.5 953q16.5 12 38.5 12t36.5 -12.5t14.5 -33.5q0 -34 -48 -69l-125 -91l-24 23l73 128q18 31 34.5 43zM369.5 953q16.5 12 38.5 12t36.5 -12.5t14.5 -33.5q0 -34 -48 -69l-125 -91l-24 23l73 128q18 31 34.5 43z" />
    <glyph glyph-name="ringacute" horiz-adv-x="305" 
d="M64 585q-37 32 -37 84.5t37 85t88 32.5t80 -22l25 48q17 33 30 45.5t32 12.5t32.5 -11t13.5 -29t-12.5 -34t-47.5 -38l-39 -25q19 -29 19 -64q0 -53 -37 -85t-92 -32t-92 32zM111 669q0 -83 44.5 -83t44.5 83t-44.5 83t-44.5 -83z" />
    <glyph glyph-name="ringacute.case" horiz-adv-x="305" 
d="M64 785q-37 32 -37 84.5t37 85t88 32.5t80 -22l25 48q17 33 30 45.5t32 12.5t32.5 -11t13.5 -29t-12.5 -34t-47.5 -38l-39 -25q19 -28 19 -64q0 -53 -37 -85t-92 -32t-92 32zM111 869q0 -83 44.5 -83t44.5 83t-44.5 83t-44.5 -83z" />
    </font>
</defs>
</svg>
