<?xml version="1.0" standalone="no"?>
<!DOCTYPE svg PUBLIC "-//W3C//DTD SVG 1.1//EN" "http://www.w3.org/Graphics/SVG/1.1/DTD/svg11.dtd" >
<svg xmlns="http://www.w3.org/2000/svg" xmlns:xlink="http://www.w3.org/1999/xlink" version="1.1">
<metadata></metadata>
<defs>
<font id="biergrten_expanded_expandedIt" horiz-adv-x="1349" >
<font-face units-per-em="2048" ascent="1638" descent="-410" />
<missing-glyph horiz-adv-x="491" />
<glyph horiz-adv-x="0" />
<glyph unicode="&#xd;" horiz-adv-x="1024" />
<glyph unicode=" "  horiz-adv-x="491" />
<glyph unicode="&#x09;" horiz-adv-x="491" />
<glyph unicode="&#xa0;" horiz-adv-x="491" />
<glyph unicode="!" horiz-adv-x="829" d="M226.5 122q9.5 -36 34 -63.5t61 -45t79.5 -17.5q41 0 82 13.5t78 36t64.5 52t40.5 64.5q8 23 12 56.5t2 67t-12.5 63.5t-30.5 44l369 232q12 8 3.5 30.5t-20.5 34.5q-8 8 -40 20.5t-46 12.5l225 592q10 25 -4 64.5t-40.5 76.5t-60.5 64.5t-62 27.5q-23 0 -65 -14 t-92 -36.5t-102.5 -52.5t-97.5 -58.5t-75.5 -56t-39.5 -48.5q-31 -82 103 -65q-4 -20 -17.5 -71.5t-29 -109t-29.5 -108.5t-22 -72q-18 -49 -48 -77.5t-62 -48t-58.5 -39t-38.5 -50.5q-2 -4 -2 -10v-6l192 -232q-76 -37 -147.5 -84t-98.5 -114q-14 -37 -4.5 -73z" />
<glyph unicode="&#x22;" horiz-adv-x="1273" d="M504 1311l71 -197l87 -192l28 -33l5 -1t14 -1q2 0 9 1t11 1q20 2 60 23.5t81 47t75 51t44 38.5q0 2 6 14t13.5 28.5t15.5 35t14 32.5q47 119 36 207t-101 162l-324 -51zM1139 1313l71 -197l86 -192l29 -31l7 -2q7 -2 14 -2q6 0 10 2t10 2q20 2 59 22.5t81 46t76 52 t44 39.5l7 12q7 12 14 29q8 18 16 36.5t12 32.5q45 117 36 206t-99 163l-326 -53z" />
<glyph unicode="#" horiz-adv-x="1939" d="M215 512q-6 0 15.5 -7t66.5 -17.5t107.5 -19.5t138.5 -13l-84 -195q-10 -27 1 -71t34.5 -87t54.5 -73.5t59 -30.5q23 0 64 16.5t90 42t101 58t97.5 65.5t78 63.5t40.5 53.5q37 94 -96 76q-2 14 3 32.5t13 40.5q61 -4 121 -6t115 -8l-64 -166q-10 -29 1.5 -72.5t35 -87 t54 -74t59.5 -30.5q23 0 63.5 16.5t91 42t102.5 58.5t97 66.5t78 64.5t41 53q37 94 -98 76q4 12 5 28.5t11 45.5q104 12 175 21t122 30q8 2 -1 5l-9 3l-262 27q4 29 12 57.5t18 56.5q141 8 248 45t170 66q10 2 -1 5l-11 3l-352 37q20 47 51 74.5t61.5 49t56 42t38.5 53.5 q2 4 2 10v9q-20 70 -78 141.5t-140 138.5q-139 -82 -226 -132t-137 -81t-70.5 -46t-24.5 -28q-4 -10 -6 -34q-2 -27 -2 -31t10 -12q20 -10 41.5 -18.5t29.5 -8.5l-30 -80l-191 21l-51 -5q20 25 44 41.5t45.5 30.5t41 31.5t29.5 46.5q2 6 1 13l-1 7q-20 68 -76.5 139.5 t-142.5 141.5q-139 -82 -226.5 -132t-136.5 -81t-68.5 -47t-23.5 -29q-4 -8 -7 -34.5t-1 -28.5q2 -6 13 -12.5t24.5 -12.5t27 -10t19.5 -4l-41 -107l-373 -37l115 -53l217 -14l-49 -154zM1038 594q10 29 15.5 51.5t13.5 44.5l260 -16l-35 -92l-188 20z" />
<glyph unicode="$" horiz-adv-x="1099" d="M166 428q0 -10 10 -36.5t24.5 -56.5t28 -56.5t19.5 -36.5q2 -4 9 -21.5t19.5 -36t29 -34t36.5 -15.5q8 0 13.5 1t9.5 1q20 6 45.5 11.5t64.5 13.5q2 -29 8 -58.5t14.5 -52t19.5 -37t24 -14.5q18 0 54 22.5t79 57.5t85 77t72 79q41 8 68 13t43 9q29 8 68 19.5t75.5 26.5 t65.5 33.5t39 43.5l65 160l-325 217l8 -31q25 -6 45 -6q27 0 89.5 11t128 29.5t118.5 43t63 51.5q2 2 1 8l-1 6q-6 6 -18 33t-24.5 58.5t-23.5 60.5t-18 39q-6 0 -11 16.5t-14 34.5t-24.5 34.5t-40.5 16.5q-8 0 -12 -3t-12 -3q-8 -2 -25.5 -7t-42.5 -9q-23 98 -76 184 q-76 -63 -129 -108.5t-90 -76t-58.5 -49t-33.5 -30.5q-90 -12 -129 -27q-31 -6 -68.5 -18t-72.5 -27.5t-61.5 -35t-35.5 -40.5l-49 -131l338 -204l-47 -11q-16 8 -41 8t-85 -11t-125.5 -29.5t-119 -42t-63.5 -50.5q-4 -6 -4 -10v-4z" />
<glyph unicode="%" horiz-adv-x="1454" d="M295 90q0 -45 13.5 -79t39.5 -34q25 0 85.5 18.5t139 55.5t163.5 91.5t159 125.5q8 -20 29.5 -57t49 -73t57.5 -62.5t52 -26.5q8 0 15 1l8 1q2 0 19.5 9.5t39 20.5t40 21.5t24.5 12.5q92 35 143 51t82 38.5t51.5 63.5t53.5 125l8 25q8 16 13 35.5t11 35.5l8 25 q2 27 -1 57.5t-15 58t-32.5 48t-53.5 27.5q-6 -2 -26.5 -9.5t-43 -15.5t-42 -14.5t-25.5 -6.5q-14 -6 -40 -10t-56.5 -9t-64.5 -11t-66 -13q53 61 93 112.5t62 74.5q53 57 102.5 90t94.5 57.5t83 46t68 58.5q4 4 6 14l5 8q20 72 3.5 145.5t-63.5 145.5q-106 -49 -187 -86 t-142.5 -65.5t-105.5 -50t-75 -36.5l8 21q0 25 -5 55.5t-17 58t-32.5 49t-53.5 27.5q-4 -2 -24.5 -9t-43 -15t-43 -15.5t-26.5 -7.5q-23 -6 -77 -15t-110.5 -18.5t-100.5 -17.5t-46 -12l-135 -350q-33 0 -43 -29l-6 -12q-6 -16 23.5 -42t70.5 -50.5t85 -43t68 -18.5 q4 0 11 1l6 1q4 0 22.5 9.5t40 20.5t40 21.5t24.5 12.5q41 14 67.5 23t50.5 20l-485 -539q-25 -27 -38 -74t-13 -92zM666 895l108 287q14 -4 21.5 -20.5t3.5 -26.5l-101 -261q-12 0 -24 5.5t-8 15.5zM1184 258l110 287q14 -4 20.5 -19.5t2.5 -25.5l-100 -262q-14 0 -25.5 5 t-7.5 15z" />
<glyph unicode="&#x26;" horiz-adv-x="1140" d="M135 352q-20 -53 9.5 -116.5t88.5 -116.5l-55 -129q-16 -29 -16 -76t10 -92t27.5 -79t36.5 -34q23 0 77 37t112 89t107.5 106.5t63.5 91.5q55 25 129 57.5t147.5 65t134 60.5t89.5 40q31 14 51 23.5t32.5 18.5t19.5 21.5t15 32.5q10 23 4 43.5t-42 20.5 q-55 0 -112.5 -17.5t-119.5 -17.5q-25 0 -58.5 5t-66.5 14.5t-60.5 24.5t-39.5 34q2 4 5 6t3 4q72 12 164 32.5t174 41t135 38t49 21.5l-313 160l-141 -49l94 245q6 -16 10 -35.5t13.5 -37t30 -29.5t61.5 -12q29 0 89 10t123.5 30.5t116.5 48.5t68 64q2 6 3 13l1 6 q-4 8 -7 34.5t-4 58.5t-3 61.5t-5 43.5q-6 2 -12 22.5t-15 44.5t-24.5 43t-40.5 19q-6 0 -11 -1t-11 -1q-31 -8 -96.5 -25.5t-143.5 -37.5q27 25 44.5 46.5t31.5 55.5q2 6 2 15v8q-10 74 -33.5 151.5t-66.5 149.5q-106 -88 -173 -143.5t-105 -88t-53 -49t-20 -26.5 q0 -4 -3 -15.5t-6 -23.5t-5 -22l-2 -11q4 -10 21.5 -26.5t25.5 -16.5l-39 -100q-31 -10 -71.5 -25.5t-78.5 -36t-68 -45t-40 -53.5z" />
<glyph unicode="'" horiz-adv-x="638" d="M504 1311l71 -197l87 -192l28 -33l5 -1t14 -1q2 0 9 1t11 1q20 2 60 23.5t81 47t75 51t44 38.5q0 2 6 14t13.5 28.5t15.5 35t14 32.5q47 119 36 207t-101 162l-324 -51z" />
<glyph unicode="(" horiz-adv-x="624" d="M121 317q-27 -70 6 -147.5t94.5 -143t140 -108.5t144.5 -43q8 0 27.5 -1t41 2t41 11.5t29.5 26.5q-76 12 -110.5 59t-38.5 122t18.5 173.5t60 212t89 240.5t104.5 258q16 41 43 78t61 69l129 152l-59 29l-158 114l-6 1t-14 1q-2 0 -12 -1l-9 -1l-172 -118 q-35 -16 -63.5 -48t-46.5 -55zM1001 1278l9 -4z" />
<glyph unicode=")" horiz-adv-x="626" d="M-158 -86q-4 -18 8.5 -26.5t32 -11.5t40 -2t30.5 1q43 0 109.5 19.5t140 53.5t150.5 79t142.5 94t112.5 99t66 97l340 883q0 23 -5 54.5t-28 48.5l-84 118l-6 1t-8 1q-8 0 -17 -1l-10 -1l-242 -114l-79 -29l10 -152q20 -70 -13 -147q-72 -197 -140 -381t-148 -330.5 t-176.5 -241t-225.5 -112.5zM522 1274l13 4z" />
<glyph unicode="*" horiz-adv-x="700" d="M471 1165q-6 -4 23.5 6.5t81 30t116 46t129.5 55.5q16 -31 33 -35q39 -12 68.5 -23.5t55.5 -19.5t50.5 -11.5t52.5 0.5q2 0 2 5l4 6l-43 178q47 23 71 38t28 19q55 72 94 114t47 85q0 2 -4 2h-8l-268 -90l-342 147q-6 0 -1 -23.5t17 -60.5t30.5 -84t36.5 -96z" />
<glyph unicode="+" horiz-adv-x="931" d="M242 627q-4 -4 22.5 -12.5t74.5 -19.5t109.5 -24.5t126.5 -25.5l25 -297q0 -6 17.5 15.5t45 60t61.5 89t69 101.5q45 -4 61 0q98 35 159.5 51.5t104.5 50.5q6 2 1 6l-5 5l-211 63q16 29 24.5 50.5t12.5 31.5q-10 33 -14 61.5t-9.5 50t-13.5 38t-26 28.5q0 4 -7 0l-6 -4 l-159 -196z" />
<glyph unicode="," horiz-adv-x="573" d="M-98 -258q20 55 87.5 109.5t215.5 115.5q-23 14 -47.5 35t-43 47.5t-27.5 59t1 71.5q57 86 148.5 130t203.5 50l117 -26q18 -33 27.5 -56.5t11.5 -47t-5 -51t-22 -66.5q-37 -94 -112.5 -164t-169.5 -116t-195.5 -68.5t-189.5 -22.5z" />
<glyph unicode="-" horiz-adv-x="839" d="M276 713q-6 -4 26 -21.5t84 -41t117.5 -49.5t124 -45t104.5 -28.5t59 -1.5q49 27 88 47.5t70.5 39t58 39t49.5 46.5q6 2 3 8l-3 7l-326 205z" />
<glyph unicode="." horiz-adv-x="503" d="M69.5 123q-8.5 35 4.5 70q12 31 37.5 58.5t58.5 50t69.5 43t71.5 38.5q141 -16 187.5 -67.5t5.5 -155.5q-12 -33 -40 -62.5t-63.5 -51t-76.5 -35t-80 -13.5q-43 0 -80 17.5t-61.5 45t-33 62.5z" />
<glyph unicode="/" horiz-adv-x="1007" d="M31 90q0 45 13 92t38 74l637 702q-14 0 -34.5 15.5t-25.5 25.5q0 2 4.5 12.5t10.5 21.5t13 21.5t13 14.5q14 10 43 25.5t95.5 47.5t181.5 86t303 140q96 -145 61 -291l-4 -8q-4 -12 -8 -14q-31 -37 -68.5 -58.5t-82.5 -46t-94.5 -57.5t-102.5 -90q-23 -25 -73 -85.5 t-105 -129t-103.5 -130t-66.5 -85.5q76 14 86 -8.5t-33 -71.5q-23 -23 -72 -55.5t-112.5 -67.5t-135 -69.5t-135 -61.5t-114.5 -44.5t-76 -17.5q-27 0 -40 34t-13 79z" />
<glyph unicode="0" d="M121 307q-8 -23 15.5 -54.5t66.5 -65t99 -68.5t113.5 -61.5t110 -43t86.5 -16.5q10 0 22 1l13 1q8 2 45 20.5t79 41t79 42t47 23.5q127 47 212 75.5t143.5 52.5t96 50.5t68.5 72.5t61.5 119.5t75.5 188.5l17 47q14 35 26.5 72t26.5 72l21 49q2 55 -6.5 115.5t-33 114.5 t-67.5 96t-108 59q-12 -6 -52.5 -21.5t-86.5 -31t-85 -28.5t-51 -16q-33 -10 -94.5 -21t-135 -23.5t-151.5 -24.5t-142.5 -23.5t-106.5 -20.5t-44 -16l-268 -702q-35 0 -54.5 -15.5t-29.5 -37.5zM807 416l221 575q18 -14 34.5 -45t8.5 -51l-199 -518q-25 0 -49 9t-16 30z " />
<glyph unicode="1" horiz-adv-x="829" d="M244 260q-10 -27 2 -71t36.5 -87t56.5 -73.5t62 -30.5q23 0 66 16.5t93 42t104.5 58t100.5 65.5t79 63.5t41 53.5q37 94 -99 76q2 23 18.5 81t35 124.5t37 125t26.5 80.5q20 55 52 87t64 53.5t59.5 42t41.5 55.5q2 6 1 13l-1 7q-23 68 -81 139.5t-148 141.5 q-143 -82 -233.5 -133t-140.5 -82t-70.5 -46t-24.5 -28q-4 -8 -6 -34.5t0 -28.5q2 -6 13 -12.5t24.5 -12.5t28 -10t20.5 -4z" />
<glyph unicode="2" horiz-adv-x="1087" d="M115 250q-10 -25 1 -50.5t32.5 -47t48 -39t47.5 -25.5q27 -10 94.5 -22.5t142 -24.5t142 -25.5t94.5 -23.5q8 0 12 -1t8 -1q23 0 52.5 19.5t57 44t48 46t27.5 25.5q16 12 53 48t77 77t72.5 75.5t42.5 47.5l3 6q4 6 6 12q12 33 -19 64.5t-79 56.5t-98 40t-75 15 q-27 0 -53 -14l483 285l68 178q10 27 1 51.5t-28.5 43.5t-46 34.5t-51.5 25.5q-27 10 -93.5 33t-140 47.5t-138 48t-89.5 35.5q-8 0 -11 2t-11 2q-20 0 -49 -20.5t-55.5 -45t-47 -46t-25.5 -23.5q-12 -12 -47.5 -50t-76.5 -80t-77 -76.5t-48 -41.5l-5 -9q-4 -9 -6 -11 q-14 -37 17 -68.5t78 -56.5t98 -39t78 -14q39 0 77.5 24.5t73.5 57t64.5 65.5t48.5 51l27 -63l-717 -373zM510 342l274 172q-20 -18 -42.5 -49t-44 -62.5t-41 -57.5t-31.5 -34z" />
<glyph unicode="3" horiz-adv-x="1140" d="M129 298q10 -13 51 -42q20 -16 73.5 -53t115 -78t117 -77t77.5 -48q2 0 15.5 -1t23.5 -1q37 0 92.5 16.5t119 44t129 64.5t121.5 76t96 78.5t54 74.5l259 670q10 29 -2.5 53.5t-35 45t-51 35.5t-51.5 26q-20 6 -58 18t-87 27.5t-102.5 33t-102.5 33t-88 28.5t-59 19 q-2 0 -7.5 1t-7.5 1q-27 0 -56.5 -19t-56 -43t-48 -44t-29.5 -23q-16 -12 -40 -41.5t-50.5 -61.5t-50 -59.5t-37.5 -35.5l-3 -6q-4 -6 -6 -13q-14 -37 18 -64.5t81 -48t100 -30.5t80 -10q39 0 69.5 12t55 29.5t45 37t39.5 35.5l-94 -245l-105 49l-440 -160q-6 -4 36 -20.5 t107.5 -38t143 -43t143.5 -33.5q-29 -23 -69 -39t-82 -26.5t-80.5 -15.5t-65.5 -5q-31 0 -56.5 5t-48 12.5t-47 12.5t-51.5 5q-37 0 -57.5 -20.5t-30.5 -43.5q-16 -41 -6 -54z" />
<glyph unicode="4" horiz-adv-x="1146" d="M223 575q-4 -10 27 -29.5t78 -45t103 -52t105.5 -50t83 -41t35.5 -23.5q0 -10 -1 -47t-4 -79t-5 -77t-2 -41q2 -29 0 -46t-1 -26.5t10.5 -13.5t33.5 -4q43 0 85 28.5t82 73.5t75 101.5t64.5 110t51 99t33.5 70.5q8 0 20.5 2t20.5 2q18 0 28.5 -6t19 -12t16.5 -12t22 -6 q41 0 61.5 18t30.5 43l13 33q20 51 8 93t-29.5 81t-29 81t9.5 97q18 49 61 96t82 85t60.5 64.5t-1.5 35.5l-243 102q-92 -23 -166 -51.5t-133 -85.5q-4 0 -35 19.5t-71 42t-82 42t-68 19.5q-29 0 -70 -24.5t-81 -56.5t-69.5 -61.5t-33.5 -40.5zM664 662l127 331l51 31 l28 -31l-102 -270z" />
<glyph unicode="5" horiz-adv-x="1146" d="M101 205l1 -4q6 -4 21.5 -23.5t33 -41t33 -41t21.5 -25.5q2 -4 12 -15.5t25.5 -24t35 -22.5t42.5 -10q2 0 8 1t8 1q23 4 69 11t104 15.5t121.5 17.5t122 17.5t104.5 14.5t71 8q27 4 64.5 12t72.5 18.5t60.5 24t31.5 29.5l137 356q10 27 -30.5 59.5t-105 61.5t-139.5 48.5 t-132 19.5q-4 0 -19.5 -1t-17.5 -1q-23 -6 -70 -17.5t-106 -27.5q-12 16 2 24l117 289l461 -92q2 2 22.5 13t32.5 20l90 34q-8 2 -13.5 8.5t23.5 6.5q2 8 2 12v4q0 51 -35.5 104.5t-81 100.5t-88.5 84t-57 57h-10q4 4 6 7t6 10q-51 0 -141 -22.5t-195.5 -59.5t-213 -85 t-191.5 -100q-16 -51 -19.5 -73.5t-5.5 -40t-9 -43t-28 -80.5q-33 -104 -71.5 -182t-61.5 -138q-4 -14 5.5 -24.5t47.5 -10.5q6 0 12.5 -1t14.5 1q41 -25 139 -18q84 8 157 1t110 5q23 -10 36 -18t9 -21l-90 -237q-8 10 -19.5 27.5t-29 35t-45 29.5t-70.5 12q-29 0 -91.5 -8 t-128 -20.5t-117.5 -30t-59 -35.5q-2 -2 -1 -6z" />
<glyph unicode="6" horiz-adv-x="1181" d="M133 346l221 576q16 41 58.5 89t100.5 94t127 89t139.5 74.5t137 51t119.5 19.5q29 0 75 -22.5t99.5 -57t106.5 -77.5t94 -84t64.5 -76t17.5 -51q-10 -29 -36.5 -40t-61.5 -11q-37 0 -63.5 6t-51.5 12t-51.5 12t-63.5 6q-35 0 -87 -10t-103 -28.5t-93 -46t-55 -60.5 q-18 -47 11.5 -79t82 -57.5t117 -48t116.5 -50t80 -64.5t7 -90q-4 -10 -11 -25.5t-7 -17.5l-414 -352l-11 -5l-27 -9t-30.5 -10t-23.5 -7h-23q-37 0 -96 15.5t-127 42t-134.5 61.5t-116.5 73.5t-75.5 79.5t-11.5 78zM625 379q4 4 19 18.5t34.5 29.5t37 29.5t23.5 18.5 q8 6 19.5 16.5t22 20.5t17.5 18l7 9q4 8 -11.5 20t-34 21.5t-34.5 15.5t-14 6z" />
<glyph unicode="7" horiz-adv-x="1161" d="M369 954q8 2 20 8.5t-16 6.5q2 8 5 12l3 4q37 51 112.5 104.5t158.5 100.5t156 85t103 56h11q-8 6 -2 17q51 0 124.5 -22.5t150.5 -59.5t147.5 -85t115.5 -100q-53 -104 -98 -198.5t-88 -206.5l-137 -357q4 -6 9 -19t11 -29.5t12.5 -32t10.5 -21.5l-1 -6t-3 -10 q-78 -35 -150 -85t-131 -90t-106.5 -55.5t-73.5 21.5l-105 192q-2 2 1 13.5t7 19.5q10 29 35 50.5t74 15.5l266 696l-528 -92q2 2 -11.5 13.5t-19.5 19.5z" />
<glyph unicode="8" horiz-adv-x="1087" d="M145 373q-2 -10 4.5 -46t15.5 -77t18.5 -77t15.5 -48q0 -4 5 -25.5t14 -46t23.5 -44t34.5 -19.5q8 0 12.5 1t12.5 1q37 10 114 23.5t163 25.5t162.5 24.5t111.5 22.5q27 10 64.5 26.5t76.5 37t70 45t41 53.5l121 270l-160 166q43 12 93 41t97.5 64.5t82 74.5t46.5 70 q2 2 4 11l3 9q-8 6 -16.5 41t-16.5 77t-15.5 80t-9.5 50q-4 2 -8 23.5t-12 46t-21.5 45t-36.5 20.5q-4 0 -9 -2t-13 -2q-25 -8 -71 -21.5t-102 -28.5t-118.5 -32.5t-119 -33t-102.5 -27.5t-71 -21q-33 -10 -71.5 -25.5t-74.5 -34.5t-63.5 -44t-38.5 -51l-67 -178l196 -232 q-23 12 -43 12q-25 0 -76 -23.5t-105 -57t-99 -73.5t-57 -73l-4 -12zM639 311q-4 4 2 15.5t17.5 28t24.5 35t24 36.5l71 -84zM735 862l127 94q6 -12 6 -34v-48q0 -25 1 -54t5 -56z" />
<glyph unicode="9" horiz-adv-x="1181" d="M139 367q10 29 36 40t61 11q37 0 63.5 -6t51 -12.5t51 -12.5t63.5 -6q35 0 88 10t104.5 28.5t93.5 45.5t54 61q16 45 -13.5 78t-83 58.5t-118 48t-116.5 50t-80.5 63.5t-8.5 89q4 10 13.5 26.5t11.5 18.5l413 353l11 4q12 4 26 8t29.5 9t23.5 9h21q37 0 97.5 -15t128 -42 t134 -61.5t117.5 -73.5t76.5 -80t11.5 -78l-221 -575q-25 -63 -105.5 -136t-183 -135.5t-209 -104.5t-184.5 -42q-29 0 -76 22.5t-100 57.5t-106.5 78t-94.5 84t-63.5 74.5t-16.5 52.5zM827 799q-4 -10 11.5 -21.5t34 -20.5t35 -15.5t14.5 -6.5l86 223q-6 -4 -23.5 -17 t-37 -28.5t-36 -30t-22.5 -20.5t-16.5 -16t-20.5 -20.5t-18 -18.5z" />
<glyph unicode=":" horiz-adv-x="503" d="M69.5 123q-8.5 35 4.5 70q12 31 37.5 58.5t58.5 50t69.5 43t71.5 38.5q141 -16 187.5 -67.5t5.5 -155.5q-12 -33 -40 -62.5t-63.5 -51t-76.5 -35t-80 -13.5q-43 0 -80 17.5t-61.5 45t-33 62.5zM362.5 887q-8.5 35 4.5 69q12 31 37.5 58.5t58.5 50t69.5 43.5t71.5 39 q141 -16 187.5 -67.5t5.5 -155.5q-12 -33 -40 -63t-63 -51.5t-77 -34.5t-80 -13q-43 0 -80 17.5t-61.5 45t-33 62.5z" />
<glyph unicode=";" horiz-adv-x="573" d="M-98 -258q20 55 87.5 109.5t215.5 115.5q-23 14 -47.5 35t-43 47.5t-27.5 59t1 71.5q57 86 148.5 130t203.5 50l117 -26q18 -33 27.5 -56.5t11.5 -47t-5 -51t-22 -66.5q-37 -94 -112.5 -164t-169.5 -116t-195.5 -68.5t-189.5 -22.5zM362.5 887q-8.5 35 4.5 69 q12 31 37.5 58.5t58.5 50t69.5 43.5t71.5 39q141 -16 187.5 -67.5t5.5 -155.5q-12 -33 -40 -63t-63 -51.5t-77 -34.5t-80 -13q-43 0 -80 17.5t-61.5 45t-33 62.5z" />
<glyph unicode="&#x3c;" horiz-adv-x="765" d="M266 688q-12 -10 1.5 -55t40 -106.5t62.5 -130t68.5 -125t59 -91.5t32.5 -30l353 276l-262 246q18 10 74.5 44t123 73.5t127 78.5t88.5 58q20 12 14 63t-22 105.5t-37.5 95.5t-32.5 35z" />
<glyph unicode="=" horiz-adv-x="1136" d="M242 627q-6 -2 32.5 -13.5t102 -26t141.5 -29.5t147.5 -26.5t122 -17.5t66.5 0q98 35 159.5 51.5t104.5 50.5q6 2 1 6l-5 5l-407 123zM559 911q-8 -2 30 -12t101.5 -25.5t140 -31t147.5 -26.5t124 -17t67 0q49 18 89 30.5t71 22.5t56.5 21.5t48.5 27.5q4 4 0 7l-4 3 l-406 123z" />
<glyph unicode="&#x3e;" horiz-adv-x="765" d="M164 426l450 246q-12 10 -41.5 44t-64.5 73.5t-66.5 78.5t-44.5 58q-8 8 11.5 34.5t52.5 61.5t73.5 73t77.5 67.5t62.5 48t30.5 14.5l276 -537q4 -10 -44 -55t-122 -106.5t-162 -130t-163.5 -125t-129 -91.5t-57.5 -30z" />
<glyph unicode="?" horiz-adv-x="1058" d="M88 123q8 -35 32.5 -62.5t60.5 -45t79 -17.5q41 0 82 13.5t77 35t63.5 51t39.5 62.5q41 104 -5 155.5t-187 67.5q-35 -18 -72 -38.5t-69.5 -43t-58.5 -50.5t-38 -58q-12 -35 -4 -70zM274 709l140 -217l317 176q-6 0 43 21.5t116.5 52t135.5 61.5t98 49l283 172l68 178 q10 27 0.5 51.5t-29 44t-46 36t-50.5 26.5q-27 10 -92.5 31.5t-139.5 46t-138.5 48t-90.5 36.5q-8 0 -11.5 2t-11.5 2q-20 0 -49 -20.5t-55.5 -45t-47 -46t-24.5 -23.5q-12 -12 -48 -50t-77 -79t-76.5 -76t-48.5 -43l-3 -9q-3 -8 -7 -12q-12 -35 17.5 -67.5t77.5 -57 t98.5 -39t76.5 -14.5q35 0 58 14zM776 969q27 16 55.5 39.5t53 48t46.5 47.5t34 39l26 -64z" />
<glyph unicode="@" horiz-adv-x="1239" d="M104 270q6 -47 65.5 -90t141.5 -74.5t167 -46t143 -2.5q10 2 24 9l14 6q27 14 101 46t157.5 69.5t157.5 72.5t103 55q27 18 43 31.5t25 24t11.5 23t-2.5 28.5q4 23 -9 37t-52 8q-63 -16 -115.5 -43t-122.5 -43q-35 -6 -86 5t-100 33.5t-85 52.5t-38 58l266 463 q16 -14 59.5 -32.5t98.5 -38.5q-57 -43 -95 -88.5t-34 -92.5q-4 -35 25.5 -61.5t76 -44t100.5 -23.5t101 4q49 12 93 35t78 51.5t53.5 61.5t17.5 67q-2 61 17.5 101.5t44 72t46 62.5t23.5 76q-4 6 -5 10l-1 4q-8 10 -50 31.5t-91.5 46.5t-92.5 48.5t-53 35.5q-6 0 8.5 9 t30.5 19.5t23.5 19.5t-17.5 9l-196 29q-2 0 -7.5 -3t-11.5 -3q-20 -10 -65.5 -30.5t-102.5 -47.5t-121.5 -55.5t-122 -55t-103.5 -48t-69 -32.5q-25 -14 -61.5 -36.5t-70 -48t-56.5 -54t-18 -53.5z" />
<glyph unicode="A" horiz-adv-x="1294" d="M145 293q0 51 14.5 107.5t39.5 117.5l63 166l17 41q14 37 26 67.5t27 67.5l16 41q45 88 124 145.5t173 96.5t194.5 68.5t192.5 64.5q51 20 86 37.5t82 17.5q39 0 63.5 -16.5t44 -40t41 -49t54.5 -43.5q18 -14 54 -26.5t69 -28t52 -37t7 -56.5q-8 -23 -24.5 -34t-37 -18 t-42 -15.5t-39.5 -20.5q-41 -68 -60.5 -118t-44.5 -115l-32 -82l-13 -33l-35 -90l-6 -16q-2 -6 -8 -26t-8 -42.5t2 -39.5t23 -17q23 0 36 8t33 8q6 0 12.5 -8t10.5 -20.5t6 -25t0 -20.5q-6 -14 -10.5 -20t-11.5 -11.5t-19 -9.5t-33 -14q-23 -16 -71 -45t-102 -59.5 t-103.5 -59.5t-69.5 -43h-31q-49 0 -79.5 34t-52 76t-36 75.5t-28.5 33.5q-29 0 -79 -33.5t-107.5 -75.5t-115 -76t-96.5 -34q-37 0 -57 17.5t-39 37.5q-39 45 -55.5 92.5t-16.5 98.5zM649 377q-6 -10 10 -17h7h8q8 4 22.5 14.5t28.5 21t25.5 21.5t13.5 17l197 512l-7 6 q-6 6 -12 15q-10 10 -17 27.5t-16 21.5h-10h-6l-33 -58l-6 -16l-37 -96l-16 -39l-82 -217q-20 -49 -37 -101.5t-33 -111.5z" />
<glyph unicode="B" horiz-adv-x="1216" d="M151 293l1 -6q8 -18 35.5 -48t64.5 -64t79 -66.5t80 -58t67.5 -40t41.5 -10.5l643 223q2 0 25.5 23.5l40.5 40.5q10 12 29.5 36.5t32 41t14.5 18.5l184 479q3 9 3 20q0 20 -10 49q-14 44 -39.5 86t-58 72.5t-59.5 30.5q-35 0 -79 -15t-91 -36.5t-92 -43t-84 -34.5l10 29 q8 20 15.5 42.5t15.5 43.5l10 27q31 78 67 126t73.5 74.5t73.5 37.5t66.5 18.5t52 16.5t30.5 30q10 29 11 49t-15 49q-68 -8 -133.5 -14.5t-130 -15.5t-128 -24.5t-127.5 -41.5l-143 -64l-8 -1t-14 -1q-4 0 -11 1l-8 1q-6 4 -18.5 17.5t-24.5 29t-23.5 29.5t-13.5 20 l-55 -32q0 -14 5 -52t9 -82t5 -86v-9q0 -36 -7 -58l-295 -768q-8 -4 -23.5 -12.5t-30.5 -17.5t-29.5 -18t-20.5 -16l-5 -6q-5 -6 -7 -10t-1 -10zM745 383l160 416q8 20 40 29.5t54 9.5l-198 -519z" />
<glyph unicode="C" horiz-adv-x="1140" d="M135 352q-8 -21 -8 -42q-1 -34 19 -72q32 -62 87.5 -115t124 -89t121.5 -36q10 0 23.5 1t17.5 1q20 8 65.5 27.5t102.5 45t119.5 53.5t119 53.5t101.5 46t68 30.5q31 14 51 23.5t32.5 18.5t19.5 21.5t15 32.5q10 23 4 43.5t-42 20.5q-55 0 -112.5 -17.5t-119.5 -17.5 q-31 0 -75 8t-82.5 24.5t-60 41t-9.5 57.5l172 446q6 -16 10 -47.5t15.5 -64.5t34 -57.5t63.5 -24.5q18 0 55 6t81 18.5t92 29t90 35.5t73 42t39 47q2 4 3 10l1 6q-4 10 -13.5 46t-18.5 78t-17 80t-11 52q-6 2 -13 22.5t-16 44.5t-23.5 43t-39.5 19q-6 0 -11 -1t-11 -1 q-25 -6 -73 -19t-109.5 -28.5t-128 -33t-127 -33t-109.5 -27.5t-74 -18q-31 -10 -71.5 -25.5t-78.5 -36t-68 -45t-40 -53.5z" />
<glyph unicode="D" horiz-adv-x="1136" d="M98 256q-2 -6 21.5 -26.5t61.5 -49t85 -60.5t90 -58.5t77 -44t46 -17.5q18 0 76.5 18.5t135.5 47t164 63.5t161 71t125 67.5t59 51.5l221 576q8 25 0 58.5t-25.5 67.5t-42 60.5t-44.5 36.5q-20 12 -77.5 40t-122.5 58.5t-123 57t-83 37.5q0 2 1 7t1 7q8 18 34 31.5 t57.5 29t61 38t44.5 59.5q-88 0 -174 -8.5t-160 -36t-131 -77.5t-90 -132q-19 -44 -19 -84q0 -9 2 -19q6 -48 29 -85t61.5 -70t86.5 -62h-263l-213 -557q-12 -6 -32.5 -18t-42 -25.5t-38 -28t-20.5 -24.5zM705 383l184 479l57 -63l-184 -480z" />
<glyph unicode="E" horiz-adv-x="1181" d="M158 280q24 -73 78.5 -135.5t130 -104.5t155.5 -42q29 0 92.5 22.5t143.5 57.5t166 78t158.5 84t121.5 74.5t58 52.5q10 29 -7.5 40t-52.5 11q-37 0 -68.5 -6t-61.5 -12.5t-60.5 -12.5t-67.5 -6q-35 0 -80 10t-82 28.5t-56 45.5q-12 17 -12 36q0 12 5 25q16 45 70.5 78 t127 58.5t154.5 48t154.5 50t128 63.5t76.5 89q4 10 9 26.5t7 18.5l-143 353q-2 2 -29 12t-41 18h-23q-37 0 -108.5 -15t-158.5 -42t-180 -61.5t-173 -73.5t-137.5 -80t-71.5 -78l-221 -575q-13 -32 -13 -68q0 -33 11 -68zM762 735l86 223q0 -4 5 -18t11 -29.5t13.5 -30 t11.5 -18.5q6 -12 11 -36.5t5 -26.5q-4 -10 -27.5 -21.5t-49 -20.5t-47 -15.5t-19.5 -6.5z" />
<glyph unicode="F" horiz-adv-x="946" d="M100 256q-4 -8 1 -32.5t16 -30.5q18 -23 57 -56t81 -63.5t73.5 -52t33.5 -21.5h80l469 287l27 71q-55 0 -99 -19.5t-91 -19.5h-23q-10 2 -19.5 15.5t-7.5 17.5l160 414q2 8 20.5 19.5t30.5 13.5q16 2 53 7t77 11t75 10t47 4q2 6 7.5 16.5t11.5 23t10 22.5t6 16 q17 46 17 73q-1 29 -25 44q-24 14 -68.5 19.5t-111.5 9.5l24 63q23 -29 54.5 -32t76.5 -3q141 0 185 111q13 32 13 60q0 22 -8 40q-18 43 -63 80q68 23 101.5 57.5t52.5 81.5q-121 0 -211 -2t-173 -15t-169 -42t-199 -80q-29 78 -135 78q-16 -43 -17 -82v-26q0 -26 1 -52 t1 -52v-26q-1 -40 -18 -84q-14 -35 -38.5 -63.5t-52 -56t-52.5 -55t-37 -60.5q-14 -37 -7 -56.5t52 -39.5l-172 -447q-4 -2 -22.5 -15t-39 -29.5t-37 -32t-18.5 -19.5z" />
<glyph unicode="G" horiz-adv-x="1181" d="M61 -42q27 -44 85.5 -66.5t137 -29.5t156.5 -7q106 0 226 21.5t227.5 66.5t191.5 116.5t123 171.5q12 33 17.5 60.5t1.5 53.5t-16.5 55.5t-32.5 66.5l194 512q8 4 24.5 17.5t35 28.5t35 28.5t22.5 19.5l3 6t5 10.5t3 10.5l1 6q2 8 -9 16t-17 17q-14 8 -42 25.5t-63 39 t-74 46t-73.5 47t-62 40t-40.5 25.5q-2 0 -15 1t-24 1q-20 0 -75.5 -16.5t-128 -42t-150.5 -57t-144.5 -60.5t-110.5 -51.5t-48 -30.5l-231 -606q-9 -27 -9 -54v-16q4 -35 23.5 -62.5t51.5 -46t73 -18.5q49 0 80.5 7t64.5 20.5t78 32t121 40.5h16h21q4 -14 13 -50 t18.5 -76.5t17.5 -77.5t14 -52q-4 -6 -6 -15t-6 -17q-16 -41 -52 -65.5t-80 -37t-90 -16.5t-81 -4q18 49 25 94q3 15 3 28q0 29 -11 53q-15 36 -54 57.5t-113 21.5q-59 0 -98 -10.5t-66.5 -31t-47.5 -53t-36 -75.5q-15 -38 -15 -69q0 -28 13 -49zM653 555l187 487l67 -32 l-159 -416q-8 -20 -40 -29.5t-55 -9.5z" />
<glyph unicode="H" horiz-adv-x="1161" d="M190 360q-5 -13 -5 -26q1 -22 15 -46q24 -38 61.5 -71t79.5 -53.5t65 -20.5t60.5 12.5t78.5 30t81 35t66 27.5q-2 -6 -6 -20.5t-7 -30t-7 -29.5l-6 -21q-31 -82 -70 -122.5t-88 -68.5t-111.5 -56.5t-140.5 -83.5q4 -31 33.5 -35t66.5 -4q100 0 216 40t225.5 102.5 t201 141t140.5 156.5q6 14 24.5 50t42 83t50 102.5t51 106.5t45 95t30.5 71q2 8 6.5 37t9.5 62.5t10 66.5t9 51q0 10 -5 57.5t-18 96.5q-14 50 -40 82q-16 21 -40 20q-13 0 -28 -6l-328 -145q6 14 17.5 52t19.5 58q20 55 44 103.5t61 86t93 63.5t144 36q2 4 6.5 9t4.5 7 q4 6 4 15v8q-6 23 -27 37h-35q-25 0 -47 1t-49 1h-31q-78 0 -135 -6.5t-111.5 -22.5t-109.5 -45t-127 -74q-12 14 -23.5 28.5t-23.5 27t-29.5 19.5t-44.5 7q-28 -75 -28 -154v-6q1 -82 18 -141l-279 -727q-45 -12 -58 -29.5t-22 -40.5zM723 430l166 434l69 39l-182 -477z " />
<glyph unicode="I" horiz-adv-x="829" d="M229 223q-8 -23 6.5 -60.5t41 -74.5t60.5 -63.5t64 -26.5q35 0 108 29.5t149.5 70.5t138 85t71.5 73q6 15 6 27q0 39 -66 39q-18 0 -42 -3q0 18 12.5 68.5t27.5 107t30.5 106.5t23.5 71q18 47 48 73.5t60.5 46t57.5 38t37 47.5q4 6 3 12l-1 6l-193 223q35 18 72 39 t70 43.5t59.5 50t38.5 59.5q7 20 7 40q0 14 -3 28q-8 35 -32.5 62.5t-62.5 45t-81 17.5q-41 0 -82 -13t-77 -34.5t-63.5 -51.5t-39.5 -63q-8 -20 -12 -53q-3 -22 -3 -44q0 -10 1 -22q2 -34 13 -63t34 -41l-365 -223q-12 -8 -4 -30.5t20 -33.5q2 -4 14.5 -9t26 -10t28 -9 t20.5 -4z" />
<glyph unicode="J" horiz-adv-x="1161" d="M127 328v-5q0 -47 34 -99q36 -54 82 -102t89 -86t59 -56h10q-6 -2 -14 -15q51 0 142.5 22.5t196.5 59.5t213 85t191 99q27 104 54.5 198.5t70.5 207.5l27 68l82 215l29 73q8 6 24.5 19.5t34.5 30t35.5 32t25.5 21.5l5 6q4 6 4 8q4 0 -21.5 28.5t-58.5 63.5t-59.5 64.5 t-24.5 33.5q10 6 38.5 26t61.5 42.5t62.5 42t42.5 27.5l6 11q6 11 10 21q8 25 8 54q0 31 -11 56.5t-32.5 43.5t-54.5 18q-23 0 -64 -11t-80.5 -30.5t-71.5 -45t-38 -52.5q-4 -10 -5 -38.5t-1 -63.5q0 -33 2 -62.5t6 -38.5l-266 -172q-4 -2 -9.5 -13l-9.5 -19q-10 -29 -2 -50 q6 -17 41 -17q9 0 21 1l-267 -696l-458 92q-2 -4 -23 -14.5t-33 -18.5l-92 -35l4 -2t7.5 -5t0 -5t-19.5 -2l-3 -12z" />
<glyph unicode="K" horiz-adv-x="1196" d="M139 360q4 12 18.5 22.5t34 20t42 17.5t42.5 14l281 729q-13 55 -13 131v12q1 84 29 156q53 0 76 -24.5t35 -53.5q74 43 130 72t110.5 46.5t112 23.5t132.5 6q10 0 30 -2t44 -2q29 0 49.5 -1t30.5 -1q10 -2 18.5 -13.5t12.5 -21.5l-1 -9t-1 -12q-4 -4 -6.5 -8t-6.5 -12 q-88 -10 -144 -34.5t-92 -62.5t-59.5 -86t-44.5 -104l-10 -24q-6 -16 -11 -34t-11 -34l-9 -18l328 143q29 14 73 22q31 5 62 5q12 0 24 -1q42 -3 74.5 -18.5t41.5 -46.5l-572 -307q66 -16 157 -46t226 -77q31 -10 28 -49t-24.5 -91t-57.5 -112.5t-73 -114t-68.5 -92.5 t-46.5 -51q-88 -78 -182 -152.5t-192.5 -135t-197.5 -101.5t-200 -51h-34q-16 0 -32 3t-25 11.5t-7 24.5l348 377q-39 -10 -62.5 -19.5t-43 -15.5t-40 -10.5t-50.5 -4.5q-29 0 -80 20.5t-99.5 53.5t-78.5 71q-20 26 -20 50q0 11 5 22zM627 262q68 35 100.5 73t42.5 60l27 68 q23 55 29 113q1 9 1 18q0 48 -26 98z" />
<glyph unicode="L" horiz-adv-x="827" d="M111 254q8 -21 21 -41t29.5 -35.5t22.5 -17.5q8 -10 34 -34t54.5 -49.5t54 -47t35.5 -29.5q4 0 16.5 4t28 9t29 10.5t19.5 9.5l393 190q0 2 7 13.5t11 19.5q12 33 2 45t-33.5 13t-54 -3t-59.5 -4l395 1034q10 25 36 30t56.5 14.5t63.5 35t57 90.5q-92 0 -186 -21.5 t-177 -48t-149.5 -48t-105.5 -21.5q-8 0 -13 1l-6 1l-98 64q0 2 -18.5 5t-20.5 3q-4 -6 -7 -19.5t-7 -21.5l6 -94q-6 -33 -8 -77t-4 -52l-318 -830q-8 -2 -23.5 -10t-31 -18.5t-29.5 -20.5t-20 -16q-10 -12 -2 -33z" />
<glyph unicode="M" horiz-adv-x="1945" d="M170 231q4 -14 22.5 -39.5t28.5 -39.5q4 -4 14.5 -12.5t20.5 -24.5q35 -37 65.5 -72t40.5 -43l6 -1q7 -1 15 -1q41 0 85 24.5t90 55.5t94 55.5t98 24.5q43 0 65.5 -24.5t40.5 -55.5t41 -55.5t66 -24.5q37 0 94 21.5t114.5 55.5t102.5 74.5t61 81.5q12 29 13 54 q0 25 -17 57l219 571q14 37 56 37q23 0 35 -6t22 -6l-272 -707q-5 -13 -5 -28q0 -21 9 -43q16 -40 43.5 -75.5t61.5 -61t56 -25.5q35 0 101.5 28.5t135.5 67.5t123 81t64 71v20q-2 6 -9 17.5t-14 22.5t-14.5 21.5t-11.5 14.5l234 608q6 4 16 14.5t21.5 22.5t20.5 24.5 t13 18.5l7 17l8 20q0 2 -10.5 15.5t-16.5 23.5q-12 10 -37.5 42t-56.5 68.5t-58.5 69.5t-41.5 43q-2 0 -7.5 3t-7.5 3q-8 0 -17 -3l-9 -3q-18 -10 -68.5 -41t-108 -64.5t-111.5 -59t-83 -25.5q-10 0 -14 2l-5 2l-126 186l-5 3q-6 3 -10 3q-10 0 -18 -3l-8 -3 q-18 -4 -53.5 -20.5t-79.5 -39t-90 -47t-82.5 -44t-61.5 -29.5t-25 -6l-129 186h-80l-35 -21q-36 -20 -85 -49.5t-102.5 -61.5t-88.5 -54q-16 -10 -42.5 -28.5t-45 -32t-20.5 -15.5q-16 -20 -10 -40.5t20 -38t33.5 -28t31.5 -10.5l-233 -608q-14 -10 -35.5 -38t-34.5 -38 l-8 -20zM774 342l234 608l94 41l-250 -649h-78z" />
<glyph unicode="N" horiz-adv-x="1626" d="M148 263.5q2 -13.5 10 -28t19 -25.5t20 -17l204 -193h41q2 0 48.5 21.5t107.5 52t128 63.5t110 56l51 30l6 15l6 18q2 8 -4 31.5t-10 31.5l245 639l52 33l49 -33l-295 -765q-10 -25 8.5 -60t49 -66.5t65.5 -53t57 -21.5q10 0 25.5 4t19.5 4l391 193q33 16 53.5 25 t35 18.5t22.5 20.5t14 30q8 20 3 36.5t-18 26.5t-32.5 18.5t-40.5 14.5l221 575q12 4 30 16.5t35 28t31.5 30t18.5 22.5q-2 2 -19.5 26.5t-33.5 36.5l-125 96q-6 2 -24.5 20.5t-37 42t-34 43t-17.5 21.5l-6 1t-8 1q-49 0 -115.5 -28.5t-137.5 -65.5t-138.5 -74.5 t-118.5 -56.5q-10 29 -26.5 68t-41 73.5t-60.5 58t-85 23.5h-20q-55 -18 -119 -49.5t-125.5 -67.5t-117.5 -73t-97 -66q0 -2 -4 -12t-8 -18q-14 -37 7 -47.5t51 -13.5t53.5 -7t14.5 -29l-221 -575q-8 -4 -31.5 -17.5t-50 -28.5t-48 -29.5t-27.5 -20.5q-8 -10 -6 -23.5z" />
<glyph unicode="O" d="M121 307q-8 -23 15.5 -54.5t66.5 -65t99 -68.5t113.5 -61.5t110 -43t86.5 -16.5q10 0 22 1l13 1q8 2 45 20.5t79 41t79 42t47 23.5q127 47 212 75.5t143.5 52.5t96 50.5t68.5 72.5t61.5 119.5t75.5 188.5l17 47q14 35 26.5 72t26.5 72l21 49v21q-1 45 -7 95 q-8 60 -32.5 114t-67.5 96t-108 59q-12 -6 -52.5 -21.5t-86.5 -31t-85 -28.5t-51 -16q-33 -10 -94.5 -21t-135 -23.5t-151.5 -24.5t-142.5 -23.5t-106.5 -20.5t-44 -16l-268 -702q-35 0 -54.5 -15.5t-29.5 -37.5zM807 416l221 575q18 -14 34.5 -45t8.5 -51l-199 -518 q-25 0 -49 9t-16 30z" />
<glyph unicode="P" horiz-adv-x="1146" d="M154 355.5q6 -21.5 41 -21.5q31 0 57.5 21.5t60.5 21.5q8 0 19.5 -2t19.5 -2q-8 -29 -24.5 -82t-32.5 -115q-15 -62 -27 -128q-11 -60 -11 -111v-9q1 -54 19.5 -87.5t61.5 -33.5q25 0 37 5.5t22.5 17.5t22.5 32.5t37 53.5q6 8 31.5 49t57.5 88t59.5 90t37.5 56 q6 8 53 28.5t116 47t147.5 58.5t146.5 60.5t115 51t51 34.5l227 594q4 12 0 47t-17.5 72t-34 65.5t-48.5 28.5q-16 0 -49 -10t-71 -26.5t-79 -35t-73.5 -35t-55 -26.5t-24.5 -10q-14 66 -50 124t-108 87l106 71q2 18 -9 25.5t-27.5 10.5t-36 2t-33.5 -1q-131 0 -212 -62.5 t-124 -172.5q-23 -55 -25 -99q-1 -22 -1 -42q0 -22 1 -42q1 -16 1 -33q0 -27 -2 -53q-3 -46 -25 -102q-25 -63 -70 -113.5t-95 -96.5t-96 -94t-69 -108l-14 -38q-10 -29 -4 -50.5zM858 651l123 318l51 35l29 -35l-150 -387z" />
<glyph unicode="Q" horiz-adv-x="1148" d="M201 442q-2 -18 -2 -34q0 -39 10 -71q14 -46 54 -75t116 -29q41 0 78 20.5t73.5 46.5t75.5 46.5t82 20.5q4 0 7.5 -1t11.5 -1q-6 -20 -13.5 -68.5t-13.5 -109t-7 -125.5v-17q0 -56 6 -103q7 -55 25.5 -89.5t53.5 -34.5q23 0 58.5 35.5t75.5 90t81 120t76.5 126 t61.5 108.5t36 67q12 23 34.5 72.5t51.5 112t60.5 133.5t59 134.5t48 113.5t31.5 73q41 10 50 26.5t17 36.5q8 23 -11.5 50.5t-57 56t-86 55t-96.5 48t-90 34t-64 12.5h-19l-143 -66q-117 -43 -200 -70.5t-141.5 -51t-98 -49t-71.5 -65.5t-60.5 -101.5t-63.5 -153.5 q-16 -39 -36.5 -93.5t-37 -113.5t-22.5 -117zM674 588l162 422q10 0 22 -2t22.5 -7.5t16.5 -12.5t2 -17l-162 -420q-25 0 -48 8t-15 29z" />
<glyph unicode="R" horiz-adv-x="1304" d="M166 319q-20 -12 4.5 -39.5t71.5 -63.5t109.5 -75t119.5 -70.5t100 -52t54 -20.5q8 0 27.5 1t27.5 1q160 78 314.5 166t301.5 186q0 2 7.5 12.5t11.5 18.5q10 29 3 48.5t-42 19.5t-63.5 -11.5t-56.5 -24t-57.5 -23.5t-64.5 -11q-8 0 -28.5 -1t-42 1t-35 9t-6.5 26 l184 479l51 31l88 -191l27 -33l6 -1t14 -1q2 0 9.5 1t11.5 1q18 2 57 22.5t81 47.5t77 52.5t45 37.5l5 12q5 13 11 29q8 18 17.5 36.5t13.5 33.5q39 98 39 175q0 16 -2 32q-10 88 -101 161l-364 -223h-41q-29 49 -45 82t-39 56.5t-56.5 43t-95.5 41.5q-18 -10 -67 -37.5 t-104.5 -58.5t-106.5 -58.5t-72 -35.5q-39 -23 -67.5 -36t-48 -25.5t-34 -26.5t-22.5 -39q-14 -37 11.5 -52.5t60.5 -24.5t62.5 -18t19.5 -34l-172 -449z" />
<glyph unicode="S" horiz-adv-x="1087" d="M145 373l1 6t4 12q12 33 68 64.5t122 56.5t128 40t87 15q31 0 45 -14l-266 285l67 178q10 27 38 51.5t64 43.5t74.5 34.5t71.5 25.5q25 6 71 19.5t102.5 29t119 33t118.5 32.5t102 28.5t71 21.5q8 0 13 2t9 2q25 0 38.5 -20.5t20.5 -45t10 -46t9 -23.5q2 -12 9.5 -50 t15.5 -80t16 -76.5t17 -41.5l-3 -9q-2 -9 -4 -11q-14 -37 -69 -68.5t-121 -56.5t-127 -39t-88 -14q-37 0 -58.5 24.5t-31.5 57t-15.5 65.5t-11.5 51l-71 -63l434 -373l-90 -209q-10 -29 -40 -53.5t-68 -44.5t-77 -36.5t-65 -26.5q-23 -6 -69 -18.5t-102.5 -28t-120 -33 t-120.5 -32.5t-103 -27.5t-69 -18.5q-8 0 -12 -1t-13 -1q-20 0 -34.5 19.5t-23.5 44t-14 46t-5 25.5q-6 12 -15.5 48t-18.5 77t-15.5 76.5t-4.5 46.5zM631 514q25 -35 29 -77t10 -64l92 8z" />
<glyph unicode="T" horiz-adv-x="942" d="M113 287q0 -47 33.5 -87t80.5 -75t95.5 -65.5t78.5 -59.5q25 6 75 24.5t109.5 44t123 57.5t118 63.5t92 61.5t46.5 52q12 33 -11.5 43t-58.5 8t-72 -8t-49 -6l189 491q37 -6 70 -6q59 1 107 19q74 28 109 114q6 16 6 29q0 19 -13 33q-21 24 -57 37.5t-78 18.5t-67 9 l150 385l-78 64q-98 -96 -180 -172t-166 -142.5t-178 -129t-217 -132.5q-2 -2 -7.5 -13t-7.5 -19q-8 -20 -8 -37q0 -21 14 -36q24 -26 68 -54l-172 -447q-4 -10 -27.5 -21.5t-50 -21.5t-36.5 -13z" />
<glyph unicode="U" horiz-adv-x="1626" d="M166 319q0 -47 37 -96t84 -94t93 -79t62 -50h21q51 0 105.5 25.5t110.5 55.5t112.5 55.5t111.5 25.5q53 0 83 -25.5t54.5 -55.5t55 -55.5t86.5 -25.5q41 0 116.5 26.5t152.5 66.5t139.5 83t74.5 78q14 39 -7.5 49t-52 12t-55 6.5t-14.5 30.5l221 574q59 35 89 60.5 t46 68.5l9 22q-2 8 -3.5 11.5t-8.5 9.5t-21.5 20.5l-44.5 44.5q-25 20 -53.5 47t-56 52.5t-49.5 47t-30 31.5q-98 -74 -208.5 -129t-233.5 -94l-6 -16l-8 -17q0 -8 3 -25.5t8 -38t10 -37.5t11 -26l-221 -575q-4 -10 -27.5 -21.5t-50 -20.5t-47.5 -15l-20 -7q6 18 20.5 51 t30.5 74q16 43 36.5 93.5t41.5 101.5q41 104 70.5 193.5t46.5 125.5q16 43 23 109q3 26 3 51q0 39 -7 76q-11 61 -47 105t-104 44q-10 0 -22 -1t-21 -1q-18 -10 -67 -37.5t-104.5 -58.5t-106.5 -58.5t-72 -35.5q-39 -23 -67.5 -36t-48 -25.5t-34 -26.5t-22.5 -39 q-12 -35 -3 -47t31.5 -13t53.5 3t62 4l-213 -555q0 -2 -20.5 -13.5t-33.5 -19.5q-6 0 -18 -4t-26.5 -9t-28 -10.5t-19.5 -7.5l-3 -5t-3 -7q-4 -8 -5 -14z" />
<glyph unicode="V" horiz-adv-x="1382" d="M137 352q-8 -20 15.5 -54t65.5 -73t94.5 -79t102.5 -72.5t90 -53t58 -20.5l13 4l27 9t30.5 10.5t21.5 9.5l195 94q63 31 159.5 52.5t191.5 49t173 70.5t107 117l233 606q2 6 3 20.5t0 29.5t-3 28.5t-4 17.5q-10 20 -36.5 53t-54.5 64t-49.5 53.5t-23.5 22.5h-41 l-411 -172l-203 235q27 -8 54 -8q16 0 31 3q42 7 76.5 28.5t61.5 51.5t39 64q-104 0 -210.5 -8t-199 -38.5t-165 -90t-111.5 -162.5q-16 -43 -23.5 -75.5t-4.5 -61t16.5 -56.5t36.5 -63l-209 -542l-19 -6q-20 -7 -47 -17t-50.5 -21.5t-29.5 -19.5zM852 446l197 512 q8 20 41.5 29.5t54.5 9.5l-236 -614z" />
<glyph unicode="W" horiz-adv-x="1832" d="M139 258q-1 -3 -1 -7q0 -17 22 -53q28 -44 67 -90.5t79 -81t59 -34.5q8 0 22 4t23 4l309 188l13 2q13 3 22 3q63 0 108 -31t85 -67t83 -66.5t105 -30.5q18 0 81.5 22.5t147.5 58.5t179 81t176 90t139.5 87t68.5 71l230 598q6 17 6 39q1 21 -5 46q-12 52 -37.5 101t-59 85 t-64.5 36q-47 0 -95.5 -25.5t-94.5 -55.5t-90 -55.5t-87 -25.5q-2 0 -9 3l-7 3q-47 35 -64.5 63.5t-31 50t-34 34t-73.5 12.5q-47 0 -90 -12.5t-86 -34t-88 -51t-94 -62.5q-12 33 -38 59.5t-55.5 49t-60.5 41t-55 36.5l188 72l3 5q3 5 5 7q12 33 0 48.5t-36.5 20.5t-53 4 t-47.5 -1q-328 0 -446 -309q-31 -79 -31 -133v-13q4 -58 53 -114l-215 -559q-55 -23 -81 -44.5t-44 -68.5zM774 332l246 639l70 -4l-234 -609zM1366 408l201 522q12 29 43.5 39t54.5 10l-235 -614q-23 0 -48.5 7t-15.5 36z" />
<glyph unicode="X" horiz-adv-x="1226" d="M5 -108q15 -82 73.5 -134.5t154 -76t209.5 -23.5q80 0 162 10t153.5 39t130 79t89.5 132q13 34 13 59q0 80 -126 80q-61 0 -107 -20.5t-82 -55t-61.5 -79.5t-44.5 -95q-6 0 -26.5 -1t-44 -2t-44 -2t-26.5 -1q-49 0 -106.5 7.5t-102.5 29t-65 60.5q-9 18 -10 40 q0 27 14 60q25 66 75 115t134 49q39 0 70.5 -10.5t59 -23.5t57.5 -23.5t67 -10.5q20 0 69 20.5t113.5 53.5t133.5 72t128 75.5t99 67.5t46 45q2 2 2 8v8t-8 21.5t-18 15.5h-19q-47 0 -96 -20.5t-102 -20.5q-23 0 -48.5 5.5t-15.5 35.5l178 461h41v-11q0 -71 24 -105 q26 -36 97 -35q43 0 90 16t89 44t75 63.5t49 76.5q10 29 12 87q0 11 1 22q-1 46 -9 92q-10 57 -34.5 100t-63.5 43q-8 0 -14 -2l-6 -2l-324 -213q-16 27 -36.5 65t-49.5 71.5t-66.5 57t-87.5 23.5q-8 0 -22 -2l-14 -2l-431 -284q-12 -8 -8 -35t23 -33q18 -7 40 -7q12 0 24 2 q36 5 67 5t46 -13.5t-3 -58.5l-164 -426q-147 -78 -245.5 -170t-145.5 -217q-36 -90 -36 -159q0 -23 4 -43z" />
<glyph unicode="Y" horiz-adv-x="1062" d="M152 216q12 -42 39.5 -76t64.5 -56.5t74 -22.5q2 0 9 1l7 1l58 29t89.5 43.5t90.5 44t61 31.5q-4 -8 -10 -26.5t-14.5 -39t-13.5 -39t-7 -22.5q-29 -76 -60.5 -125t-76.5 -89t-106.5 -80t-151.5 -95q-4 -18 9 -26.5t32.5 -11.5t40 -2t30.5 1q43 0 110 19.5t140.5 53 t149.5 79t141.5 94.5t113.5 99t66 97l340 883q-2 23 -5 54.5t-25 47.5l-86 119l-6 1q-7 1 -11 1q-8 0 -15 -1l-7 -1l-242 -112l-94 -35l-131 182l2 8q2 8 2 10q4 12 23.5 23.5t43 22t49 20.5t42.5 22q-6 51 -26 64.5t-67 13.5q-78 0 -139 -23.5t-110.5 -64.5t-85 -95 t-60.5 -118q-25 -61 -32 -116.5t-11 -109.5t-11 -111.5t-32 -120.5q-20 -51 -45 -96.5t-50.5 -89.5t-50 -87t-42.5 -92q-9 -22 -9 -46q0 -17 5 -35zM670 385l186 485l55 37q8 -27 8 -55q0 -45 -20 -92l-55 -146l-15 -39q-10 -29 -23 -54t-24 -54l-14 -37q-43 -45 -98 -45z " />
<glyph unicode="Z" horiz-adv-x="987" d="M65 112q-2 -17 -2 -33q0 -55 21 -101q27 -58 92.5 -94t179.5 -36q129 0 242 41t203 109t156.5 155t101.5 179q27 70 30 131q1 24 1 47q0 34 -2 66q-4 52 -9 98q-1 9 -1 17q0 36 14 69q4 4 9 10l5 6l104 64l4 6l5 10q5 12 5 20q0 25 -38 25q-23 0 -49.5 -3t-42.5 -3 q10 25 29.5 69t37 95t26.5 103q5 28 5 53q0 22 -4 42q-8 43 -41 70t-100 27q-8 0 -22.5 -1t-16.5 -1q-23 -10 -71 -33t-102.5 -47.5t-102.5 -47t-66 -32.5q-14 -8 -40 -22.5t-50.5 -30t-44 -27.5t-21.5 -16q-16 -16 -10 -40t22 -24h201q6 0 10 -23.5t8 -39.5l-8 -19 q-23 -55 -75 -76.5t-110.5 -34t-109.5 -28.5t-69 -63q-4 -8 -4 -21v-14q-2 -4 -3 -19q0 -14 1.5 -29.5t2.5 -29.5t-1 -19q-4 -6 -33 -34.5t-64 -60.5t-63.5 -60.5t-30.5 -34.5q-4 -8 -22.5 -44t-32.5 -73l-15 -39q-31 -82 -39 -158zM367 41l147 385q6 14 21.5 48t38 67.5 t51 59.5t63.5 26l-223 -586q-10 -25 -5 -39t9 -21.5t1 -8.5t-30 -1q-46 1 -70 11q-12 6 -13 21q0 15 10 38z" />
<glyph unicode="[" horiz-adv-x="724" d="M86 225q-27 -70 5 -147.5t93.5 -143t140 -108.5t144.5 -43q8 0 27.5 -1t41 2t42 12.5t30.5 27.5q-94 -4 -129 60.5t-26.5 173t49.5 251t100 295.5q59 156 130 312.5t134 297.5q33 82 103 148l131 151l-62 31l-155 113l-7 1q-8 1 -14 1q-2 0 -10 -1l-8 -1l-176 -119 q-35 -16 -63.5 -48t-45.5 -54zM1102 1513l4 -4z" />
<glyph unicode="\" horiz-adv-x="1007" d="M377 1055q4 -37 25.5 -58.5t47 -45t50 -57.5t32.5 -91q2 -25 5.5 -86.5t6.5 -129t5 -129t4 -85.5q-72 14 -98.5 -8.5t-20.5 -71.5q8 -35 58.5 -88t115 -104.5t130 -87.5t102.5 -36q27 0 64.5 34t71.5 79t56.5 92t20.5 74l-97 702q14 0 47 15.5t44 25.5q2 2 4 12.5t4 21.5 t3 21.5t-1 14.5q-4 10 -20.5 25.5t-58.5 47.5t-117 86t-195 140q-209 -147 -283 -291l-4 -8q-4 -12 -2 -14z" />
<glyph unicode="]" horiz-adv-x="626" d="M-170 -176q90 -4 174 60.5t160 173t143.5 251t126.5 295.5q59 156 110.5 312.5t96.5 297.5q27 82 8 148l-8 151l78 31l246 113l7 1t15 1q2 0 11 -1l8 -1l79 -119q23 -16 28 -48t5 -54l-454 -1211q-18 -47 -66.5 -97t-114 -99t-141.5 -94.5t-150.5 -79t-140 -53 t-110.5 -19.5q-8 0 -29 -1t-40 2t-32.5 12.5t-9.5 27.5zM629 1509l12 4z" />
<glyph unicode="^" horiz-adv-x="1382" d="M102 238q0 16 2 29.5t5 19.5l233 608q29 74 106.5 117t173 70.5t190.5 49t157 50.5l198 96q6 4 20.5 9t30 10.5t27.5 9.5t15 4q18 0 58 -20.5t90 -53.5t101.5 -73t92 -80t64 -74t17.5 -52q-6 -10 -29.5 -20t-49 -20.5t-46 -16.5t-18.5 -6l-209 -543q20 -35 33.5 -63.5 t16.5 -56t-3 -60.5t-22 -76q-41 -104 -114 -163.5t-165 -90t-197.5 -39t-209.5 -8.5q12 33 37.5 64.5t60.5 52t76 29t86 -3.5l-205 235l-408 -172h-41q-2 0 -24.5 21.5t-51 52t-55 63.5t-36.5 56q-4 4 -5.5 17t-1.5 28zM674 311q23 0 54.5 9.5t41.5 31.5l197 510l-56 64z " />
<glyph unicode="_" horiz-adv-x="1292" d="M-184 -164l764 103l751 -103l7 -3q8 -3 -1 -5q-59 -29 -160.5 -44t-261.5 -44q-23 -4 -114.5 1t-217.5 15.5t-265.5 22.5t-254 24.5t-186.5 21.5t-61 11z" />
<glyph unicode="`" horiz-adv-x="540" d="M678 1765l366 160l64 -305v-6t-6 -6q-16 -25 -38 -42.5t-48.5 -31.5t-59 -28.5t-69.5 -35.5q-12 -8 -34 10.5t-46.5 50.5t-50 71.5t-45 75.5t-29.5 60.5t-4 26.5z" />
<glyph unicode="a" horiz-adv-x="1294" d="M145 293q0 51 14.5 107.5t39.5 117.5l63 166l17 41q14 37 26 67.5t27 67.5l16 41q45 88 124 145.5t173 96.5t194.5 68.5t192.5 64.5q51 20 86 37.5t82 17.5q39 0 63.5 -16.5t44 -40t41 -49t54.5 -43.5q18 -14 54 -26.5t69 -28t52 -37t7 -56.5q-8 -23 -24.5 -34t-37 -18 t-42 -15.5t-39.5 -20.5q-41 -68 -60.5 -118t-44.5 -115l-32 -82l-13 -33l-35 -90l-6 -16q-2 -6 -8 -26t-8 -42.5t2 -39.5t23 -17q23 0 36 8t33 8q6 0 12.5 -8t10.5 -20.5t6 -25t0 -20.5q-6 -14 -10.5 -20t-11.5 -11.5t-19 -9.5t-33 -14q-23 -16 -71 -45t-102 -59.5 t-103.5 -59.5t-69.5 -43h-31q-49 0 -79.5 34t-52 76t-36 75.5t-28.5 33.5q-29 0 -79 -33.5t-107.5 -75.5t-115 -76t-96.5 -34q-37 0 -57 17.5t-39 37.5q-39 45 -55.5 92.5t-16.5 98.5zM649 377q-6 -10 10 -17h7h8q8 4 22.5 14.5t28.5 21t25.5 21.5t13.5 17l197 512l-7 6 q-6 6 -12 15q-10 10 -17 27.5t-16 21.5h-10h-6l-33 -58l-6 -16l-37 -96l-16 -39l-82 -217q-20 -49 -37 -101.5t-33 -111.5z" />
<glyph unicode="b" horiz-adv-x="1216" d="M151 293l1 -6q8 -18 35.5 -48t64.5 -64t79 -66.5t80 -58t67.5 -40t41.5 -10.5l643 223q2 0 25.5 23.5l40.5 40.5q10 12 29.5 36.5t32 41t14.5 18.5l184 479q3 9 3 20q0 20 -10 49q-14 44 -39.5 86t-58 72.5t-59.5 30.5q-35 0 -79 -15t-91 -36.5t-92 -43t-84 -34.5l10 29 q8 20 15.5 42.5t15.5 43.5l10 27q31 78 67 126t73.5 74.5t73.5 37.5t66.5 18.5t52 16.5t30.5 30q10 29 11 49t-15 49q-68 -8 -133.5 -14.5t-130 -15.5t-128 -24.5t-127.5 -41.5l-143 -64l-8 -1t-14 -1q-4 0 -11 1l-8 1q-6 4 -18.5 17.5t-24.5 29t-23.5 29.5t-13.5 20 l-55 -32q0 -14 5 -52t9 -82t5 -86v-9q0 -36 -7 -58l-295 -768q-8 -4 -23.5 -12.5t-30.5 -17.5t-29.5 -18t-20.5 -16l-5 -6q-5 -6 -7 -10t-1 -10zM745 383l160 416q8 20 40 29.5t54 9.5l-198 -519z" />
<glyph unicode="c" horiz-adv-x="1140" d="M135 352q-8 -21 -8 -42q-1 -34 19 -72q32 -62 87.5 -115t124 -89t121.5 -36q10 0 23.5 1t17.5 1q20 8 65.5 27.5t102.5 45t119.5 53.5t119 53.5t101.5 46t68 30.5q31 14 51 23.5t32.5 18.5t19.5 21.5t15 32.5q10 23 4 43.5t-42 20.5q-55 0 -112.5 -17.5t-119.5 -17.5 q-31 0 -75 8t-82.5 24.5t-60 41t-9.5 57.5l172 446q6 -16 10 -47.5t15.5 -64.5t34 -57.5t63.5 -24.5q18 0 55 6t81 18.5t92 29t90 35.5t73 42t39 47q2 4 3 10l1 6q-4 10 -13.5 46t-18.5 78t-17 80t-11 52q-6 2 -13 22.5t-16 44.5t-23.5 43t-39.5 19q-6 0 -11 -1t-11 -1 q-25 -6 -73 -19t-109.5 -28.5t-128 -33t-127 -33t-109.5 -27.5t-74 -18q-31 -10 -71.5 -25.5t-78.5 -36t-68 -45t-40 -53.5z" />
<glyph unicode="d" horiz-adv-x="1136" d="M98 256q-2 -6 21.5 -26.5t61.5 -49t85 -60.5t90 -58.5t77 -44t46 -17.5q18 0 76.5 18.5t135.5 47t164 63.5t161 71t125 67.5t59 51.5l221 576q8 25 0 58.5t-25.5 67.5t-42 60.5t-44.5 36.5q-20 12 -77.5 40t-122.5 58.5t-123 57t-83 37.5q0 2 1 7t1 7q8 18 34 31.5 t57.5 29t61 38t44.5 59.5q-88 0 -174 -8.5t-160 -36t-131 -77.5t-90 -132q-19 -44 -19 -84q0 -9 2 -19q6 -48 29 -85t61.5 -70t86.5 -62h-263l-213 -557q-12 -6 -32.5 -18t-42 -25.5t-38 -28t-20.5 -24.5zM705 383l184 479l57 -63l-184 -480z" />
<glyph unicode="e" horiz-adv-x="1181" d="M158 280q24 -73 78.5 -135.5t130 -104.5t155.5 -42q29 0 92.5 22.5t143.5 57.5t166 78t158.5 84t121.5 74.5t58 52.5q10 29 -7.5 40t-52.5 11q-37 0 -68.5 -6t-61.5 -12.5t-60.5 -12.5t-67.5 -6q-35 0 -80 10t-82 28.5t-56 45.5q-12 17 -12 36q0 12 5 25q16 45 70.5 78 t127 58.5t154.5 48t154.5 50t128 63.5t76.5 89q4 10 9 26.5t7 18.5l-143 353q-2 2 -29 12t-41 18h-23q-37 0 -108.5 -15t-158.5 -42t-180 -61.5t-173 -73.5t-137.5 -80t-71.5 -78l-221 -575q-13 -32 -13 -68q0 -33 11 -68zM762 735l86 223q0 -4 5 -18t11 -29.5t13.5 -30 t11.5 -18.5q6 -12 11 -36.5t5 -26.5q-4 -10 -27.5 -21.5t-49 -20.5t-47 -15.5t-19.5 -6.5z" />
<glyph unicode="f" horiz-adv-x="946" d="M100 256q-4 -8 1 -32.5t16 -30.5q18 -23 57 -56t81 -63.5t73.5 -52t33.5 -21.5h80l469 287l27 71q-55 0 -99 -19.5t-91 -19.5h-23q-10 2 -19.5 15.5t-7.5 17.5l160 414q2 8 20.5 19.5t30.5 13.5q16 2 53 7t77 11t75 10t47 4q2 6 7.5 16.5t11.5 23t10 22.5t6 16 q17 46 17 73q0 29 -25 44q-23 14 -68 19.5t-112 9.5l24 63q23 -29 54.5 -32t76.5 -3q141 0 185 111q13 32 13 60q0 21 -8 40q-18 43 -63 80q68 23 101.5 57.5t52.5 81.5q-121 0 -211 -2t-173 -15t-169 -42t-199 -80q-29 78 -135 78q-16 -43 -17 -82v-26q0 -26 1 -52t1 -52 v-26q-1 -40 -18 -84q-14 -35 -38.5 -63.5t-52 -56t-52.5 -55t-37 -60.5q-14 -37 -7 -56.5t52 -39.5l-172 -447q-4 -2 -22.5 -15t-39 -29.5t-37 -32t-18.5 -19.5z" />
<glyph unicode="g" horiz-adv-x="1181" d="M61 -42q27 -44 85.5 -66.5t137 -29.5t156.5 -7q106 0 226 21.5t227.5 66.5t191.5 116.5t123 171.5q12 33 17.5 60.5t1.5 53.5t-16.5 55.5t-32.5 66.5l194 512q8 4 24.5 17.5t35 28.5t35 28.5t22.5 19.5l3 6t5 10.5t3 10.5l1 6q2 8 -9 16t-17 17q-14 8 -42 25.5t-63 39 t-74 46t-73.5 47t-62 40t-40.5 25.5q-2 0 -15 1t-24 1q-20 0 -75.5 -16.5t-128 -42t-150.5 -57t-144.5 -60.5t-110.5 -51.5t-48 -30.5l-231 -606q-9 -27 -9 -54v-16q4 -35 23.5 -62.5t51.5 -46t73 -18.5q49 0 80.5 7t64.5 20.5t78 32t121 40.5h16h21q4 -14 13 -50 t18.5 -76.5t17.5 -77.5t14 -52q-4 -6 -6 -15t-6 -17q-16 -41 -52 -65.5t-80 -37t-90 -16.5t-81 -4q18 49 25 94q3 15 3 28q0 29 -11 53q-15 36 -54 57.5t-113 21.5q-59 0 -98 -10.5t-66.5 -31t-47.5 -53t-36 -75.5q-15 -38 -15 -69q0 -28 13 -49zM653 555l187 487l67 -32 l-159 -416q-8 -20 -40 -29.5t-55 -9.5z" />
<glyph unicode="h" horiz-adv-x="1161" d="M190 360q-5 -13 -5 -26q1 -22 15 -46q24 -38 61.5 -71t79.5 -53.5t65 -20.5t60.5 12.5t78.5 30t81 35t66 27.5q-2 -6 -6 -20.5t-7 -30t-7 -29.5l-6 -21q-31 -82 -70 -122.5t-88 -68.5t-111.5 -56.5t-140.5 -83.5q4 -31 33.5 -35t66.5 -4q100 0 216 40t225.5 102.5 t201 141t140.5 156.5q6 14 24.5 50t42 83t50 102.5t51 106.5t45 95t30.5 71q2 8 6.5 37t9.5 62.5t10 66.5t9 51q0 10 -5 57.5t-18 96.5q-14 50 -40 82q-16 21 -40 20q-13 0 -28 -6l-328 -145q6 14 17.5 52t19.5 58q20 55 44 103.5t61 86t93 63.5t144 36q2 4 6.5 9t4.5 7 q4 6 4 15v8q-6 23 -27 37h-35q-25 0 -47 1t-49 1h-31q-78 0 -135 -6.5t-111.5 -22.5t-109.5 -45t-127 -74q-12 14 -23.5 28.5t-23.5 27t-29.5 19.5t-44.5 7q-28 -75 -28 -154v-6q1 -82 18 -141l-279 -727q-45 -12 -58 -29.5t-22 -40.5zM723 430l166 434l69 39l-182 -477z " />
<glyph unicode="i" horiz-adv-x="829" d="M229 223q-8 -23 6.5 -60.5t41 -74.5t60.5 -63.5t64 -26.5q35 0 108 29.5t149.5 70.5t138 85t71.5 73q6 15 6 27q0 39 -66 39q-18 0 -42 -3q0 18 12.5 68.5t27.5 107t30.5 106.5t23.5 71q18 47 48 73.5t60.5 46t57.5 38t37 47.5q4 6 3 12l-1 6l-193 223q35 18 72 39 t70 43.5t59.5 50t38.5 59.5q7 20 7 40q0 14 -3 28q-8 35 -32.5 62.5t-62.5 45t-81 17.5q-41 0 -82 -13t-77 -34.5t-63.5 -51.5t-39.5 -63q-8 -20 -12 -53q-3 -22 -3 -44q0 -10 1 -22q2 -34 13 -63t34 -41l-365 -223q-12 -8 -4 -30.5t20 -33.5q2 -4 14.5 -9t26 -10t28 -9 t20.5 -4z" />
<glyph unicode="j" horiz-adv-x="1161" d="M127 328v-5q0 -47 34 -99q36 -54 82 -102t89 -86t59 -56h10q-6 -2 -14 -15q51 0 142.5 22.5t196.5 59.5t213 85t191 99q27 104 54.5 198.5t70.5 207.5l27 68l82 215l29 73q8 6 24.5 19.5t34.5 30t35.5 32t25.5 21.5l5 6q4 6 4 8q4 0 -21.5 28.5t-58.5 63.5t-59.5 64.5 t-24.5 33.5q10 6 38.5 26t61.5 42.5t62.5 42t42.5 27.5l6 11q6 11 10 21q8 25 8 54q0 31 -11 56.5t-32.5 43.5t-54.5 18q-23 0 -64 -11t-80.5 -30.5t-71.5 -45t-38 -52.5q-4 -10 -5 -38.5t-1 -63.5q0 -33 2 -62.5t6 -38.5l-266 -172q-4 -2 -9.5 -13l-9.5 -19q-10 -29 -2 -50 q6 -17 41 -17q9 0 21 1l-267 -696l-458 92q-2 -4 -23 -14.5t-33 -18.5l-92 -35l4 -2t7.5 -5t0 -5t-19.5 -2l-3 -12z" />
<glyph unicode="k" horiz-adv-x="1196" d="M139 360q4 12 18.5 22.5t34 20t42 17.5t42.5 14l281 729q-13 55 -13 131v12q1 84 29 156q53 0 76 -24.5t35 -53.5q74 43 130 72t110.5 46.5t112 23.5t132.5 6q10 0 30 -2t44 -2q29 0 49.5 -1t30.5 -1q10 -2 18.5 -13.5t12.5 -21.5l-1 -9t-1 -12q-4 -4 -6.5 -8t-6.5 -12 q-88 -10 -144 -34.5t-92 -62.5t-59.5 -86t-44.5 -104l-10 -24q-6 -16 -11 -34t-11 -34l-9 -18l328 143q29 14 73 22q31 5 62 5q12 0 24 -1q42 -3 74.5 -18.5t41.5 -46.5l-572 -307q66 -16 157 -46t226 -77q31 -10 28 -49t-24.5 -91t-57.5 -112.5t-73 -114t-68.5 -92.5 t-46.5 -51q-88 -78 -182 -152.5t-192.5 -135t-197.5 -101.5t-200 -51h-34q-16 0 -32 3t-25 11.5t-7 24.5l414 364q-80 -23 -139.5 -30t-122.5 -7q-29 0 -80 20.5t-99.5 53.5t-78.5 71q-20 26 -20 50q0 11 5 22zM627 262q68 35 100.5 73t42.5 60l27 68q23 55 29 113q1 9 1 18 q0 48 -26 98z" />
<glyph unicode="l" horiz-adv-x="827" d="M111 254q8 -21 21 -41t29.5 -35.5t22.5 -17.5q8 -10 34 -34t54.5 -49.5t54 -47t35.5 -29.5q4 0 16.5 4t28 9t29 10.5t19.5 9.5l393 190q0 2 7 13.5t11 19.5q12 33 2 45t-33.5 13t-54 -3t-59.5 -4l395 1034q10 25 36 30t56.5 14.5t63.5 35t57 90.5q-92 0 -186 -21.5 t-177 -48t-149.5 -48t-105.5 -21.5q-8 0 -13 1l-6 1l-98 64q0 2 -18.5 5t-20.5 3q-4 -6 -7 -19.5t-7 -21.5l6 -94q-6 -33 -8 -77t-4 -52l-318 -830q-8 -2 -23.5 -10t-31 -18.5t-29.5 -20.5t-20 -16q-10 -12 -2 -33z" />
<glyph unicode="m" horiz-adv-x="1945" d="M170 231q4 -14 22.5 -39.5t28.5 -39.5q4 -4 14.5 -12.5t20.5 -24.5q35 -37 65.5 -72t40.5 -43l6 -1q7 -1 15 -1q41 0 85 24.5t90 55.5t94 55.5t98 24.5q43 0 65.5 -24.5t40.5 -55.5t41 -55.5t66 -24.5q37 0 94 21.5t114.5 55.5t102.5 74.5t61 81.5q12 29 13 54 q0 25 -17 57l219 571q14 37 56 37q23 0 35 -6t22 -6l-272 -707q-5 -13 -5 -28q0 -21 9 -43q16 -40 43.5 -75.5t61.5 -61t56 -25.5q35 0 101.5 28.5t135.5 67.5t123 81t64 71v20q-2 6 -9 17.5t-14 22.5t-14.5 21.5t-11.5 14.5l234 608q6 4 16 14.5t21.5 22.5t20.5 24.5 t13 18.5l7 17l8 20q0 2 -10.5 15.5t-16.5 23.5q-12 10 -37.5 42t-56.5 68.5t-58.5 69.5t-41.5 43q-2 0 -7.5 3t-7.5 3q-8 0 -17 -3l-9 -3q-18 -10 -68.5 -41t-108 -64.5t-111.5 -59t-83 -25.5q-10 0 -14 2l-5 2l-126 186l-5 3q-6 3 -10 3q-10 0 -18 -3l-8 -3 q-18 -4 -53.5 -20.5t-79.5 -39t-90 -47t-82.5 -44t-61.5 -29.5t-25 -6l-129 186h-80l-35 -21q-36 -20 -85 -49.5t-102.5 -61.5t-88.5 -54q-16 -10 -42.5 -28.5t-45 -32t-20.5 -15.5q-16 -20 -10 -40.5t20 -38t33.5 -28t31.5 -10.5l-233 -608q-14 -10 -35.5 -38t-34.5 -38 l-8 -20zM774 342l234 608l94 41l-250 -649h-78z" />
<glyph unicode="n" horiz-adv-x="1626" d="M148 263.5q2 -13.5 10 -28t19 -25.5t20 -17l204 -193h41q2 0 48.5 21.5t107.5 52t128 63.5t110 56l51 30l6 15l6 18q2 8 -4 31.5t-10 31.5l245 639l52 33l49 -33l-295 -765q-10 -25 8.5 -60t49 -66.5t65.5 -53t57 -21.5q10 0 25.5 4t19.5 4l391 193q33 16 53.5 25 t35 18.5t22.5 20.5t14 30q8 20 3 36.5t-18 26.5t-32.5 18.5t-40.5 14.5l221 575q12 4 30 16.5t35 28t31.5 30t18.5 22.5q-2 2 -19.5 26.5t-33.5 36.5l-125 96q-6 2 -24.5 20.5t-37 42t-34 43t-17.5 21.5l-6 1t-8 1q-49 0 -115.5 -28.5t-137.5 -65.5t-138.5 -74.5 t-118.5 -56.5q-10 29 -26.5 68t-41 73.5t-60.5 58t-85 23.5h-20q-55 -18 -119 -49.5t-125.5 -67.5t-117.5 -73t-97 -66q0 -2 -4 -12t-8 -18q-14 -37 7 -47.5t51 -13.5t53.5 -7t14.5 -29l-221 -575q-8 -4 -31.5 -17.5t-50 -28.5t-48 -29.5t-27.5 -20.5q-8 -10 -6 -23.5z" />
<glyph unicode="o" d="M121 307q-8 -23 15.5 -54.5t66.5 -65t99 -68.5t113.5 -61.5t110 -43t86.5 -16.5q10 0 22 1l13 1q8 2 45 20.5t79 41t79 42t47 23.5q127 47 212 75.5t143.5 52.5t96 50.5t68.5 72.5t61.5 119.5t75.5 188.5l17 47q14 35 26.5 72t26.5 72l21 49v21q-1 45 -7 95 q-8 60 -32.5 114t-67.5 96t-108 59q-12 -6 -52.5 -21.5t-86.5 -31t-85 -28.5t-51 -16q-33 -10 -94.5 -21t-135 -23.5t-151.5 -24.5t-142.5 -23.5t-106.5 -20.5t-44 -16l-268 -702q-35 0 -54.5 -15.5t-29.5 -37.5zM807 416l221 575q18 -14 34.5 -45t8.5 -51l-199 -518 q-25 0 -49 9t-16 30z" />
<glyph unicode="p" horiz-adv-x="1146" d="M154 355.5q6 -21.5 41 -21.5q31 0 57.5 21.5t60.5 21.5q8 0 19.5 -2t19.5 -2q-8 -29 -24.5 -82t-32.5 -115.5t-27 -127.5q-11 -61 -11 -111v-9q1 -53 19.5 -87t61.5 -34q25 0 37 5.5t22.5 17.5t22.5 32.5t37 53.5q6 8 31.5 49t57.5 88t59.5 90t37.5 56q6 8 53 28.5 t116 47t147.5 58.5t146.5 60.5t115 51t51 34.5l227 594q4 12 0 47t-17.5 72t-34 65.5t-48.5 28.5q-16 0 -49 -10t-71 -26.5t-79 -35t-73.5 -35t-55 -26.5t-24.5 -10q-14 66 -50 124t-108 87l106 71q2 18 -9 25.5t-27.5 10.5t-36 2t-33.5 -1q-131 0 -212 -62.5t-124 -172.5 q-23 -55 -25 -99q-1 -21 -1 -42t1 -42q1 -16 1 -33q0 -25 -2 -53q-3 -45 -25 -102q-25 -63 -70 -113.5t-95 -96.5t-96 -94t-69 -108l-14 -38q-10 -29 -4 -50.5zM858 651l123 318l51 35l29 -35l-150 -387z" />
<glyph unicode="q" horiz-adv-x="1148" d="M201 442q-2 -18 -2 -34q0 -39 10 -71q14 -46 54 -75t116 -29q41 0 78 20.5t73.5 46.5t75.5 46.5t82 20.5q4 0 7.5 -1t11.5 -1q-6 -20 -13.5 -68.5t-13.5 -109t-7 -125.5v-17q0 -56 6 -103q7 -55 25.5 -89.5t53.5 -34.5q23 0 58.5 35.5t75.5 90t81 120t76.5 126 t61.5 108.5t36 67q12 23 34.5 72.5t51.5 112t60.5 133.5t59 134.5t48 113.5t31.5 73q41 10 50 26.5t17 36.5q8 23 -11.5 50.5t-57 56t-86 55t-96.5 48t-90 34t-64 12.5h-19l-143 -66q-117 -43 -200 -70.5t-141.5 -51t-98 -49t-71.5 -65.5t-60.5 -101.5t-63.5 -153.5 q-16 -39 -36.5 -93.5t-37 -113.5t-22.5 -117zM674 588l162 422q10 0 22 -2t22.5 -7.5t16.5 -12.5t2 -17l-162 -420q-25 0 -48 8t-15 29z" />
<glyph unicode="r" horiz-adv-x="1304" d="M166 319q-20 -12 4.5 -39.5t71.5 -63.5t109.5 -75t119.5 -70.5t100 -52t54 -20.5q8 0 27.5 1t27.5 1q160 78 314.5 166t301.5 186q0 2 7.5 12.5t11.5 18.5q10 29 3 48.5t-42 19.5t-63.5 -11.5t-56.5 -24t-57.5 -23.5t-64.5 -11q-8 0 -28.5 -1t-42 1t-35 9t-6.5 26 l184 479l51 31l88 -191l27 -33l6 -1t14 -1q2 0 9.5 1t11.5 1q18 2 57 22.5t81 47.5t77 52.5t45 37.5l5 12q5 13 11 29q8 18 17.5 36.5t13.5 33.5q39 98 39 175q0 16 -2 32q-10 88 -101 161l-364 -223h-41q-29 49 -45 82t-39 56.5t-56.5 43t-95.5 41.5q-18 -10 -67 -37.5 t-104.5 -58.5t-106.5 -58.5t-72 -35.5q-39 -23 -67.5 -36t-48 -25.5t-34 -26.5t-22.5 -39q-14 -37 11.5 -52.5t60.5 -24.5t62.5 -18t19.5 -34l-172 -449z" />
<glyph unicode="s" horiz-adv-x="1087" d="M145 373l1 6t4 12q12 33 68 64.5t122 56.5t128 40t87 15q31 0 45 -14l-266 285l67 178q10 27 38 51.5t64 43.5t74.5 34.5t71.5 25.5q25 6 71 19.5t102.5 29t119 33t118.5 32.5t102 28.5t71 21.5q8 0 13 2t9 2q25 0 38.5 -20.5t20.5 -45t10 -46t9 -23.5q2 -12 9.5 -50 t15.5 -80t16 -76.5t17 -41.5l-3 -9q-2 -9 -4 -11q-14 -37 -69 -68.5t-121 -56.5t-127 -39t-88 -14q-37 0 -58.5 24.5t-31.5 57t-15.5 65.5t-11.5 51l-71 -63l434 -373l-90 -209q-10 -29 -40 -53.5t-68 -44.5t-77 -36.5t-65 -26.5q-23 -6 -69 -18.5t-102.5 -28t-120 -33 t-120.5 -32.5t-103 -27.5t-69 -18.5q-8 0 -12 -1t-13 -1q-20 0 -34.5 19.5t-23.5 44t-14 46t-5 25.5q-6 12 -15.5 48t-18.5 77t-15.5 76.5t-4.5 46.5zM631 514q25 -35 29 -77t10 -64l92 8z" />
<glyph unicode="t" horiz-adv-x="942" d="M113 287q0 -47 33.5 -87t80.5 -75t95.5 -65.5t78.5 -59.5q25 6 75 24.5t109.5 44t123 57.5t118 63.5t92 61.5t46.5 52q12 33 -11.5 43t-58.5 8t-72 -8t-49 -6l189 491q37 -6 70 -6q59 1 107 19q74 28 109 114q6 16 6 29q0 19 -13 33q-21 24 -57 37.5t-78 18.5t-67 9 l150 385l-78 64q-98 -96 -180 -172t-166 -142.5t-178 -129t-217 -132.5q-2 -2 -7.5 -13t-7.5 -19q-8 -20 -8 -37q0 -21 14 -36q24 -26 68 -54l-172 -447q-4 -10 -27.5 -21.5t-50 -21.5t-36.5 -13z" />
<glyph unicode="u" horiz-adv-x="1626" d="M166 319q0 -47 37 -96t84 -94t93 -79t62 -50h21q51 0 105.5 25.5t110.5 55.5t112.5 55.5t111.5 25.5q53 0 83 -25.5t54.5 -55.5t55 -55.5t86.5 -25.5q41 0 116.5 26.5t152.5 66.5t139.5 83t74.5 78q14 39 -7.5 49t-52 12t-55 6.5t-14.5 30.5l221 574q59 35 89 60.5 t46 68.5l9 22q-2 8 -3.5 11.5t-8.5 9.5t-21.5 20.5l-44.5 44.5q-25 20 -53.5 47t-56 52.5t-49.5 47t-30 31.5q-98 -74 -208.5 -129t-233.5 -94l-6 -16l-8 -17q0 -8 3 -25.5t8 -38t10 -37.5t11 -26l-221 -575q-4 -10 -27.5 -21.5t-50 -20.5t-47.5 -15l-20 -7q6 18 20.5 51 t30.5 74q16 43 36.5 93.5t41.5 101.5q41 104 70.5 193.5t46.5 125.5q16 43 23 109q3 26 3 51q0 39 -7 76q-11 61 -47 105t-104 44q-10 0 -22 -1t-21 -1q-18 -10 -67 -37.5t-104.5 -58.5t-106.5 -58.5t-72 -35.5q-39 -23 -67.5 -36t-48 -25.5t-34 -26.5t-22.5 -39 q-12 -35 -3 -47t31.5 -13t53.5 3t62 4l-213 -555q0 -2 -20.5 -13.5t-33.5 -19.5q-6 0 -18 -4t-26.5 -9t-28 -10.5t-19.5 -7.5l-3 -5t-3 -7q-4 -8 -5 -14z" />
<glyph unicode="v" horiz-adv-x="1382" d="M137 352q-8 -20 15.5 -54t65.5 -73t94.5 -79t102.5 -72.5t90 -53t58 -20.5l13 4l27 9t30.5 10.5t21.5 9.5l195 94q63 31 159.5 52.5t191.5 49t173 70.5t107 117l233 606q2 6 3 20.5t0 29.5t-3 28.5t-4 17.5q-10 20 -36.5 53t-54.5 64t-49.5 53.5t-23.5 22.5h-41 l-411 -172l-203 235q27 -8 54 -8q16 0 31 3q42 7 76.5 28.5t61.5 51.5t39 64q-104 0 -210.5 -8t-199 -38.5t-165 -90t-111.5 -162.5q-16 -43 -23.5 -75.5t-4.5 -61t16.5 -56.5t36.5 -63l-209 -542l-19 -6q-20 -7 -47 -17t-50.5 -21.5t-29.5 -19.5zM852 446l197 512 q8 20 41.5 29.5t54.5 9.5l-236 -614z" />
<glyph unicode="w" horiz-adv-x="1832" d="M139 258q-1 -3 -1 -7q0 -17 22 -53q28 -44 67 -90.5t79 -81t59 -34.5q8 0 22 4t23 4l309 188l13 2q13 3 22 3q63 0 108 -31t85 -67t83 -66.5t105 -30.5q18 0 81.5 22.5t147.5 58.5t179 81t176 90t139.5 87t68.5 71l230 598q6 17 6 39q1 21 -5 46q-12 52 -37.5 101t-59 85 t-64.5 36q-47 0 -95.5 -25.5t-94.5 -55.5t-90 -55.5t-87 -25.5q-2 0 -9 3l-7 3q-47 35 -64.5 63.5t-31 50t-34 34t-73.5 12.5q-47 0 -90 -12.5t-86 -34t-88 -51t-94 -62.5q-12 33 -38 59.5t-55.5 49t-60.5 41t-55 36.5l188 72l3 5q3 5 5 7q12 33 0 48.5t-36.5 20.5t-53 4 t-47.5 -1q-328 0 -446 -309q-31 -79 -31 -133v-13q4 -58 53 -114l-215 -559q-55 -23 -81 -44.5t-44 -68.5zM774 332l246 639l70 -4l-234 -609zM1366 408l201 522q12 29 43.5 39t54.5 10l-235 -614q-23 0 -48.5 7t-15.5 36z" />
<glyph unicode="x" horiz-adv-x="1226" d="M5 -108q15 -82 73.5 -134.5t154 -76t209.5 -23.5q80 0 162 10t153.5 39t130 79t89.5 132q13 34 13 59q0 80 -126 80q-61 0 -107 -20.5t-82 -55t-61.5 -79.5t-44.5 -95q-6 0 -26.5 -1t-44 -2t-44 -2t-26.5 -1q-49 0 -106.5 7.5t-102.5 29t-65 60.5q-9 18 -10 40 q0 27 14 60q25 66 75 115t134 49q39 0 70.5 -10.5t59 -23.5t57.5 -23.5t67 -10.5q20 0 69 20.5t113.5 53.5t133.5 72t128 75.5t99 67.5t46 45q2 2 2 8v8t-8 21.5t-18 15.5h-19q-47 0 -96 -20.5t-102 -20.5q-23 0 -48.5 5.5t-15.5 35.5l178 461h41v-11q0 -71 24 -105 q26 -36 97 -35q43 0 90 16t89 44t75 63.5t49 76.5q10 29 12 87q0 11 1 22q-1 46 -9 92q-10 57 -34.5 100t-63.5 43q-8 0 -14 -2l-6 -2l-324 -213q-16 27 -36.5 65t-49.5 71.5t-66.5 57t-87.5 23.5q-8 0 -22 -2l-14 -2l-431 -284q-12 -8 -8 -35t23 -33q18 -7 40 -7q12 0 24 2 q36 5 67 5t46 -13.5t-3 -58.5l-164 -426q-147 -78 -245.5 -170t-145.5 -217q-36 -90 -36 -159q0 -23 4 -43z" />
<glyph unicode="y" horiz-adv-x="1062" d="M152 216q12 -42 39.5 -76t64.5 -56.5t74 -22.5q2 0 9 1l7 1l58 29t89.5 43.5t90.5 44t61 31.5q-4 -8 -10 -26.5t-14.5 -39t-13.5 -39t-7 -22.5q-29 -76 -60.5 -125t-76.5 -89t-106.5 -80t-151.5 -95q-4 -18 9 -26.5t32.5 -11.5t40 -2t30.5 1q43 0 110 19.5t140.5 53 t149.5 79t141.5 94.5t113.5 99t66 97l340 883q-2 23 -5 54.5t-25 47.5l-86 119l-6 1q-7 1 -11 1q-8 0 -15 -1l-7 -1l-242 -112l-94 -35l-131 182l2 8q2 8 2 10q4 12 23.5 23.5t43 22t49 20.5t42.5 22q-6 51 -26 64.5t-67 13.5q-78 0 -139 -23.5t-110.5 -64.5t-85 -95 t-60.5 -118q-25 -61 -32 -116.5t-11 -109.5t-11 -111.5t-32 -120.5q-20 -51 -45 -96.5t-50.5 -89.5t-50 -87t-42.5 -92q-9 -22 -9 -46q0 -17 5 -35zM670 385l186 485l55 37q8 -27 8 -55q0 -45 -20 -92l-55 -146l-15 -39q-10 -29 -23 -54t-24 -54l-14 -37q-43 -45 -98 -45z " />
<glyph unicode="z" horiz-adv-x="987" d="M65 112q-2 -17 -2 -33q0 -55 21 -101q27 -58 92.5 -94t179.5 -36q129 0 242 41t203 109t156.5 155t101.5 179q27 70 30 131q1 24 1 47q0 34 -2 66q-4 52 -9 98q-1 9 -1 17q0 36 14 69q4 4 9 10l5 6l104 64l4 6l5 10q5 12 5 20q0 25 -38 25q-23 0 -49.5 -3t-42.5 -3 q10 25 29.5 69t37 95t26.5 103q5 28 5 53q0 22 -4 42q-8 43 -41 70t-100 27q-8 0 -22.5 -1t-16.5 -1q-23 -10 -71 -33t-102.5 -47.5t-102.5 -47t-66 -32.5q-14 -8 -40 -22.5t-50.5 -30t-44 -27.5t-21.5 -16q-16 -16 -10 -40t22 -24h201q6 0 10 -23.5t8 -39.5l-8 -19 q-23 -55 -75 -76.5t-110.5 -34t-109.5 -28.5t-69 -63q-4 -8 -4 -21v-14q-2 -4 -3 -19q0 -14 1.5 -29.5t2.5 -29.5t-1 -19q-4 -6 -33 -34.5t-64 -60.5t-63.5 -60.5t-30.5 -34.5q-4 -8 -22.5 -44t-32.5 -73l-15 -39q-31 -82 -39 -158zM367 41l147 385q6 14 21.5 48t38 67.5 t51 59.5t63.5 26l-223 -586q-10 -25 -5 -39t9 -21.5t1 -8.5t-30 -1q-46 1 -70 11q-12 6 -13 21q0 15 10 38z" />
<glyph unicode="{" horiz-adv-x="626" d="M-92 94q-2 -23 2 -55.5t27 -48.5l86 -117l6 -2t10 -2t13 2l9 2l242 113l84 28l-14 154q-20 66 12 147q74 199 143.5 382.5t148.5 327.5t176 238.5t226 114.5q2 18 -11 26.5t-32.5 11.5t-39 2t-27.5 -1q-45 0 -110.5 -19.5t-139.5 -53t-150.5 -77.5t-142.5 -93.5 t-114 -100.5t-66 -98zM387 14l10 6z" />
<glyph unicode="|" horiz-adv-x="847" d="M212 79q-7 56 5 91l328 852q-6 0 -21.5 5t-31 12.5t-26.5 16.5t-11 15l1 11q1 10 2 24t4 27.5t5 19.5q6 14 28.5 34.5t78 58.5t152.5 102.5t253 167.5q86 -86 140.5 -176.5t68.5 -176.5v-12q0 -10 -2 -16q-16 -43 -47 -69t-66 -53.5t-70.5 -67.5t-62.5 -109 q-12 -31 -35.5 -106t-48.5 -158t-45 -155.5t-27 -101.5q139 18 97 -98q-12 -29 -49 -67.5t-87.5 -81.5t-110 -84t-114.5 -74t-100 -53.5t-70 -20.5q-33 0 -62.5 39t-49 93.5t-26.5 110.5z" />
<glyph unicode="}" horiz-adv-x="626" d="M41 20l8 -6zM49 14l127 154q70 63 103 147q80 199 151.5 382.5t104 327.5t7 238.5t-138.5 114.5q10 18 30 26.5t41.5 11.5t41 2t29.5 -1q43 0 94 -19.5t99 -53t91 -77.5t71 -93.5t37 -100.5t-9 -98l-338 -881q-18 -23 -48 -55.5t-65 -48.5l-174 -117l-8 -2t-10 -2 q-8 0 -15 2l-8 2l-156 113z" />
<glyph unicode="~" horiz-adv-x="1394" d="M276 713l455 205l166 -156q41 29 92 69.5t117 77.5q14 8 59 -1t105.5 -28.5t125 -45t118 -49t85 -41t25.5 -21.5l-455 -205l-153 129q-39 -25 -99.5 -55.5t-125.5 -65.5q-14 -8 -59.5 1.5t-104 28.5t-124 45t-117.5 49.5t-84 41t-26 21.5z" />
<glyph unicode="&#xa1;" horiz-adv-x="829" d="M90 260q31 80 156 68q10 20 36.5 71.5t54.5 108.5t52.5 108.5t32.5 71.5q18 49 10 78t-23.5 48.5t-28.5 37.5t-1 49q2 6 8 13l6 6l369 231q-20 18 -42 38.5t-37 44t-19.5 52.5t8.5 64q14 37 49 72.5t81 63t96 45t95 17.5q84 0 123 -49t12 -119q-8 -23 -29.5 -55.5 t-49 -66t-61.5 -63.5t-66 -44l188 -231q6 -8 -18.5 -31t-44.5 -37q-6 -4 -22.5 -9t-35 -10.5t-35 -8.5t-22.5 -3l-227 -592q-10 -25 -54.5 -64.5t-99.5 -77.5t-109.5 -64.5t-85.5 -26.5q-35 0 -85 30.5t-94 72.5t-70.5 87t-16.5 74z" />
<glyph unicode="&#xa2;" horiz-adv-x="1140" d="M170 444q-8 -23 5 -48t41 -51t65.5 -49.5t80.5 -41.5q-8 -35 -6 -79t12.5 -83t26 -66.5t33.5 -27.5t56 22.5t82 58.5t90 79t79 84q53 16 116.5 36.5t124 40t109 36t72.5 24.5q29 10 46.5 16t28.5 12.5t16 14.5t12 22q8 16 0.5 30.5t-43.5 14.5q-59 0 -113.5 -12 t-116.5 -12q-47 0 -115.5 10t-109.5 33q16 66 42.5 140.5t47.5 123.5l20 53l2 6q12 -33 41 -65.5t91 -32.5q29 0 93 9.5t131.5 25.5t122 37.5t64.5 46.5q2 6 2 8v4q-2 8 -14 35t-27.5 55.5t-30 54t-22.5 33.5q-6 2 -14 16.5t-20.5 32t-29 31t-38.5 13.5q-4 0 -11.5 -1 t-9.5 -1q-23 -4 -61.5 -10.5t-87.5 -16.5q-14 141 -105 287q-104 -86 -169.5 -139.5t-102.5 -86t-51.5 -48t-18.5 -27.5q-2 -6 -5 -17.5t-5 -23t-3 -20.5l-1 -9q-29 -4 -68 -15.5t-75.5 -26.5t-64.5 -33.5t-36 -37.5z" />
<glyph unicode="&#xa3;" horiz-adv-x="946" d="M25 61q109 0 192 78q74 -51 138.5 -79.5t137 -42t160.5 -15.5t209 -2q18 47 11 82t-58 57q74 37 124 80t73 100q43 111 -99 111q-45 0 -78.5 -3t-80.5 -32l24 64q72 4 121 9t83 19.5t56.5 41t40.5 75.5q4 10 12.5 40t12.5 40q-12 0 -45 4t-70 9t-68.5 10.5t-43.5 7.5 q-10 2 -20.5 13t-6.5 20l160 415q0 2 19.5 15.5t31.5 15.5h22q23 0 40.5 -6t35 -13.5t36.5 -13.5t48 -6l29 72l-248 286h-80q-2 0 -51 -21.5t-113.5 -52t-130 -63.5t-98.5 -53q-8 -4 -19.5 -13.5t-21.5 -19.5t-17.5 -19.5t-7.5 -13.5q-2 -4 3.5 -19t12.5 -30.5t15 -29 t12 -15.5l-172 -448q-59 -20 -81.5 -40t-36.5 -57q-12 -33 -9.5 -60.5t9 -55t9.5 -56t-9 -63.5q-16 -43 -46 -83t-62 -79t-60.5 -78t-44.5 -82z" />
<glyph unicode="&#xa4;" horiz-adv-x="2752" d="M240 625l122 30l173 389l-95 -14zM481 774q-25 -176 111 -176q41 0 102 16l19 70q-31 -6 -53.5 -8t-38.5 -2q-100 0 -74 76q18 45 54 84.5t79 74.5q49 29 80 41.5t67 12.5q12 0 23.5 -1t26.5 -6l43 97q-352 -49 -420 -228q-6 -14 -9.5 -24t-9.5 -27zM819 696 q2 -68 129 -67q23 0 38 1t42 1q136 -1 283 278q12 133 -142 133h-22h-23q-209 -94 -305 -346zM946 801l10 26q104 123 187 123q53 0 65 -51q10 -4 7 -17.5t-9 -29.5q-12 -31 -30.5 -57.5t-59.5 -57.5q-94 -35 -135 -35q-72 0 -35 99zM1266 625l71 10l74 192 q100 -196 213 -196l150 389l-78 24l-117 -274l-174 250zM1710 641l127 31l168 387l-86 -15zM1909 668h96q53 45 86 67.5t68 22.5q51 0 73 -90l47 -17l109 293q12 125 -74 125q-16 0 -28.5 -1t-36.5 -9q-240 -193 -340 -391zM2116 840l151 135l2 -135h-153zM2363 641l72 10 l72 189q104 -191 213 -191l149 393l-73 17l-125 -273l-170 250zM2769 612l39 -49l94 62l-59 26zM2869 758l64 -10l170 288l-105 23z" />
<glyph unicode="&#xa5;" horiz-adv-x="1382" d="M152 216q12 -42 39.5 -76t64.5 -56.5t74 -22.5q2 0 9 1l7 1q14 8 55 29t89.5 43.5t92.5 44t62 31.5q-4 -8 -10 -26.5t-14.5 -39t-13.5 -39t-7 -22.5q-29 -76 -60.5 -125t-76.5 -89t-106.5 -80t-151.5 -95q-4 -18 10 -26.5t34.5 -11.5t41 -2t26.5 1q43 0 110 19.5 t140.5 53t149.5 79t141.5 94.5t113.5 99t66 97l41 107q39 -4 58.5 -5t29.5 1q98 35 161 52t104 52q4 2 1 6l-3 4l-277 82l61 160q86 -10 107 -4q49 18 89 30.5t70.5 22.5t56.5 21.5t48 27.5q4 4 0 7l-4 4l-291 88l88 227q-2 23 -5 54.5t-25 47.5l-86 119l-6 1q-7 1 -11 1 q-8 0 -15 -1l-7 -1l-242 -112l-94 -35l-131 182l2 8q2 8 2 10q4 12 23.5 23.5t43 22t49 20.5t42.5 22q-6 51 -26 64.5t-67 13.5q-78 0 -139 -23.5t-110.5 -64.5t-85 -95t-60.5 -118q-25 -61 -32 -116.5t-11 -109.5t-11 -111.5t-32 -120.5q-20 -51 -45 -96.5t-50.5 -89.5 t-50 -87t-42.5 -92q-16 -39 -4 -81zM670 385l100 258q18 -4 35.5 -7t42.5 -9l-19 -52q-10 -29 -23 -54t-24 -54l-14 -37q-43 -45 -98 -45zM786 686l70 184l55 37q20 -70 -12 -147l-18 -49z" />
<glyph unicode="&#xa6;" horiz-adv-x="847" d="M212 79q-7 56 5 91l328 852q-6 0 -21.5 5t-31 12.5t-26.5 16.5t-11 15l1 11q1 10 2 24t4 27.5t5 19.5q6 14 28.5 34.5t78 58.5t152.5 102.5t253 167.5q86 -86 140.5 -176.5t68.5 -176.5v-12q0 -10 -2 -16q-16 -43 -47 -69t-66 -53.5t-70.5 -67.5t-62.5 -109 q-12 -31 -35.5 -106t-48.5 -158t-45 -155.5t-27 -101.5q139 18 97 -98q-12 -29 -49 -67.5t-87.5 -81.5t-110 -84t-114.5 -74t-100 -53.5t-70 -20.5q-33 0 -62.5 39t-49 93.5t-26.5 110.5z" />
<glyph unicode="&#xa8;" horiz-adv-x="1239" d="M617 1550.5q8 -34.5 32.5 -62.5t61.5 -45.5t80 -17.5q39 0 80.5 13.5t76.5 35t62.5 51t40.5 62.5q41 104 -5.5 155.5t-187.5 67.5q-35 -18 -71.5 -38.5t-69.5 -43t-57.5 -50t-36.5 -58.5q-14 -35 -6 -69.5zM1368 1552.5q8 -34.5 32.5 -62.5t61.5 -45.5t80 -17.5 q39 0 80 13.5t77 35t63.5 51t39.5 62.5q41 104 -6 157t-188 69q-35 -18 -71 -39t-68.5 -44.5t-58.5 -51t-38 -58.5q-12 -35 -4 -69.5z" />
<glyph unicode="&#xa9;" d="M121 307q-8 -23 15.5 -54.5t66.5 -65t99 -68.5t113.5 -61.5t110 -43t86.5 -16.5q10 0 22 1l13 1q10 2 47 20.5t79 41t78 42t46 23.5q127 47 212 75.5t143.5 52.5t96 50.5t68.5 72.5t61.5 119.5t75.5 188.5l17 47q14 35 26.5 72t26.5 72l21 49q2 55 -7.5 115.5t-34 114.5 t-66.5 96t-107 59q-12 -8 -53.5 -23.5t-87.5 -31t-86 -27.5t-48 -15q-33 -10 -94.5 -21t-135 -23.5t-151.5 -24.5t-142.5 -23.5t-106.5 -20.5t-44 -16l-268 -702q-35 0 -54.5 -15.5t-29.5 -37.5zM600 489l129 336q6 14 20.5 26.5t34 23t39 17.5t35.5 13q18 4 62.5 14.5 t93.5 22.5t93 24.5t60 18.5h11q10 0 17 -10t12 -21.5t9.5 -21.5t8.5 -10l30 -127v-4q0 -2 -2 -7q-6 -18 -35.5 -33.5t-64.5 -27.5t-67.5 -19.5t-47.5 -7.5q-20 0 -30.5 12.5t-16.5 29t-9 32.5t-7 25l-86 -226q-6 -16 5 -28.5t29.5 -20.5t41 -12t39.5 -4q29 0 58.5 8t57.5 8 q16 0 20.5 -9t0.5 -22q-8 -20 -17.5 -25t-44.5 -22q-18 -8 -59 -26.5t-87 -39t-87 -37.5t-55 -24l-7 -2q-8 -2 -16 -2q-27 0 -60.5 18.5t-60 45t-42 57.5t-5.5 57z" />
<glyph unicode="&#xaa;" horiz-adv-x="663" d="M397 994q-2 -48 39 -93q12 -29 47 -29q20 0 48 17.5t56.5 38t53.5 38t41 17.5q8 0 15.5 -17.5t17.5 -38t25.5 -38t37.5 -17.5h17q10 8 33.5 22.5t51 30t52 30t37.5 20.5q20 14 22 14q6 0 10 17q4 8 -1 22t-13 14t-16 -5t-19 -5q-8 0 -9 8.5t0 19.5t4 21.5t5 14.5l4 8 l17 43l6 18l16 41l23 58q10 27 31 59q16 12 38.5 17.5t30.5 25.5q6 16 -4 27.5t-26.5 19.5t-34 14.5t-27.5 12.5q-14 10 -25.5 23.5t-21.5 24.5t-23.5 19.5t-31.5 8.5q-25 0 -38.5 -8.5t-43.5 -20.5q-47 -16 -97.5 -31.5t-98.5 -35t-87 -48.5t-59 -72l-8 -20l-27 -68l-8 -20 l-31 -84q-27 -66 -29 -114zM647 1036q4 16 8 28.5t11 27.5l20 53l41 108l8 21l17 45l4 10l14 27h6h2q6 0 10.5 -9.5t10.5 -15.5l6 -8l-98 -256q-4 -6 -19.5 -19.5t-25.5 -17.5h-3h-6z" />
<glyph unicode="&#xab;" horiz-adv-x="1138" d="M258 637q0 -45 6 -106.5t15.5 -130t20.5 -126t23.5 -93.5t20.5 -31l369 301l-246 200q18 10 71.5 41t115 67t119.5 70.5t89 53.5q20 12 12 69.5t-28.5 120t-44 110.5t-33.5 42l-500 -533q-10 -10 -10 -55zM815 649q0 -45 6 -106.5t16.5 -130t21.5 -126t22.5 -93 t19.5 -31.5l371 301l-248 201q18 10 71.5 40.5t116 66.5t121 71t88.5 53q20 12 11 69.5t-29.5 120t-44 110.5t-33.5 42l-500 -532q-10 -10 -10 -56z" />
<glyph unicode="&#xac;" horiz-adv-x="1271" d="M276 713q-6 -4 34 -18.5t108.5 -34t156 -42t175.5 -42t167.5 -34t131.5 -18.5l-172 -131l147 -254q4 -4 37 21.5t77 66.5t93 91.5t90 94.5t65.5 76.5t18.5 38.5q-27 25 -38 45.5t-28 36.5q47 20 84 40t68 48q4 2 0 8l-4 7l-551 205z" />
<glyph unicode="&#xad;" horiz-adv-x="708" d="M274 709l392 198l262 -198l1 -7q1 -6 -3 -10q-20 -29 -43 -47t-51.5 -35.5t-62.5 -37t-75 -46.5q-10 -8 -47 1.5t-86 27.5t-102 43t-96.5 47.5t-69 39.5t-19.5 24z" />
<glyph unicode="&#xae;" d="M121 307q-8 -23 15.5 -54.5t66.5 -65t99 -68.5t113.5 -61.5t110 -43t86.5 -16.5q10 0 22 1l13 1q10 2 47 20.5t79 41t78 42t46 23.5q127 47 212 75.5t143.5 52.5t96 50.5t68.5 72.5t61.5 119.5t75.5 188.5l17 47q14 35 26.5 72t26.5 72l21 49q2 55 -7.5 115.5t-34 114.5 t-66.5 96t-107 59q-12 -8 -53.5 -23.5t-87.5 -31t-86 -27.5t-48 -15q-33 -10 -94.5 -21t-135 -23.5t-151.5 -24.5t-142.5 -23.5t-106.5 -20.5t-44 -16l-268 -702q-35 0 -54.5 -15.5t-29.5 -37.5zM551 479l102 64l86 223q4 12 -10 17t-31.5 9.5t-31 11.5t-4.5 27q10 23 25 32 t61 32q12 6 36.5 19.5t52 28.5t52 29.5t35.5 18.5q29 -12 46 -22.5t28.5 -22.5t20.5 -28.5t21 -40.5h21l182 114q49 -37 52 -81t-19 -103q-6 -16 -14.5 -35.5t-10.5 -21.5q-6 -6 -22.5 -19.5t-37 -26t-41 -22.5t-30.5 -10l-3 -2t-7 -2t-6 2l-2 2l-15 14l-45 96l-22 -16 l-92 -240q-10 -18 18 -18h35q18 0 32.5 5t29 12t28.5 12.5t31 5.5q33 0 20 -31q-8 -16 -8 -18q-147 -96 -305 -175q-8 0 -17.5 -1t-15.5 -1q-8 0 -50 21.5t-86 50.5t-74.5 54.5t-14.5 35.5z" />
<glyph unicode="&#xaf;" horiz-adv-x="1292" d="M565 1704q-8 -2 32 -7t110.5 -14.5t165 -18.5t195.5 -19.5t200.5 -18.5t182.5 -14t140.5 -7t73.5 3q162 29 262.5 44t161.5 44q6 2 -1 5l-7 3l-748 102z" />
<glyph unicode="&#xb0;" horiz-adv-x="690" d="M397 1036l6 13q10 29 43 28l136 350q0 4 44 12.5t100 17.5t110.5 18.5t76.5 15.5q6 0 27 7t44.5 15.5t44 15.5t24.5 9q33 -6 53 -27.5t32.5 -49t17.5 -58.5t5 -55l-10 -25q-6 -16 -12 -35.5t-13 -36.5l-10 -24q-33 -86 -53.5 -127t-51 -63.5t-80.5 -38t-143 -50.5 q-6 -2 -24.5 -12t-40 -21.5t-39.5 -20.5t-22 -9l-8 -1q-7 -1 -11 -1q-25 0 -68 18.5t-84.5 43t-70.5 50t-23 41.5zM741 1092q-4 -10 8.5 -15.5t24.5 -5.5l100 260q4 10 -3 26.5t-21 20.5z" />
<glyph unicode="&#xb1;" horiz-adv-x="931" d="M111 201l464 123l408 -123l4 -3q4 -3 -2 -5q-43 -35 -104.5 -52.5t-157.5 -52.5q-12 -4 -65.5 2t-124 17.5t-148.5 27t-141.5 29.5t-102.5 24.5t-30 12.5zM309 774l463 123l158 197l7 4q7 4 7 0q18 -10 26.5 -26.5t12.5 -39t7 -51t11 -61.5q4 -18 -32 -82l213 -64l3 -4 t-1 -6q-43 -35 -103.5 -51.5t-160.5 -50.5q-12 -4 -62 0q-35 -51 -68.5 -101.5t-60.5 -89.5t-44 -60.5t-17 -15.5l-29 297q-66 12 -126 25.5t-107.5 25t-74 19.5t-22.5 12z" />
<glyph unicode="&#xb2;" horiz-adv-x="557" d="M382 942q-5 12 1 27l41 135l358 184l-12 31q-10 -8 -25.5 -24.5t-33 -33t-37 -28.5t-37.5 -12q-12 0 -38 7t-49.5 19.5t-38.5 28.5t-7 35l2 8q6 4 23.5 21.5t37 39t38 41t26.5 25.5q4 0 13 10t22.5 22.5t28 22.5t26.5 10q2 0 4 -1t6 -1q12 -4 44 -15t69 -25.5t69.5 -25.5 t47.5 -16q25 -10 49 -29.5t14 -47.5l-35 -88l-239 -144q14 8 24 8q12 0 38 -7t49.5 -19.5t38.5 -28.5t9 -35q0 -2 -2 -4l-2 -2q-2 -6 -20.5 -24.5t-40 -39t-40 -38t-22.5 -23.5q-4 -2 -14 -13t-23.5 -23.5t-28 -21.5t-24.5 -9h-12q-14 4 -47 10t-71 14t-70.5 14.5 t-47.5 10.5q-10 6 -23 13t-23.5 18.5t-15.5 23.5zM575 1012l58 -15q8 6 18.5 18.5t20.5 28t22.5 31t22.5 23.5z" />
<glyph unicode="&#xb3;" horiz-adv-x="585" d="M387 992.5q4 -5.5 27 -21.5q8 -8 34.5 -27.5t56.5 -40t57.5 -38t39.5 -21.5q2 0 7 -2t14 -2q27 0 74.5 18.5t97 45t88.5 57t49 57.5l129 336q10 29 -17.5 49t-52.5 31q-12 6 -47 18t-75 24.5t-76.5 22.5t-53.5 14h-6q-12 0 -27.5 -10t-29.5 -21.5t-25.5 -21.5t-13.5 -10 q-8 -8 -20.5 -22.5t-24.5 -30t-24.5 -28.5t-18.5 -19l-4 -9q-6 -18 10 -32.5t41 -24.5t50.5 -15t37.5 -5q45 0 65.5 21.5t36.5 37.5l-47 -123l-51 25l-219 -82q-4 -4 17.5 -12.5t55 -17.5t72.5 -19.5t70 -16.5q-14 -12 -34.5 -20t-41 -13.5t-40 -8.5t-31.5 -3 q-37 0 -55.5 8.5t-47.5 8.5q-23 0 -31 -9.5t-12 -21.5q-8 -20 -4 -25.5z" />
<glyph unicode="&#xb4;" horiz-adv-x="540" d="M621 1608q-2 -25 7 -42.5t25.5 -31.5t37 -28.5t42.5 -35.5q4 -8 39 10.5t85 50.5t106.5 71.5t103.5 75.5t77 60.5t25 26.5l-243 160l-299 -305l-5 -6q-6 -6 -1 -6z" />
<glyph unicode="&#xb5;" horiz-adv-x="1062" d="M37 98q-27 -70 5 -147.5t94.5 -143t141 -108.5t144.5 -43q8 0 27.5 -1t41 2t41 11.5t29.5 26.5q-49 55 -80.5 95t-45 80t-6.5 89t36 125q2 4 9 22.5t15.5 39t18.5 39t14 26.5q8 -10 34 -31.5t55.5 -45t55 -43t35.5 -28.5l8 -1q9 -1 11 -1q35 0 89 22.5t108.5 56.5 t98.5 76t60 81q18 49 26.5 92t15.5 87t16.5 89t29.5 97q25 63 61 120.5t73.5 111.5t72.5 109.5t60 116.5q25 63 29.5 117.5t-13.5 95.5t-63.5 64.5t-120.5 23.5q-23 0 -41.5 -3t-35 -11t-33.5 -23.5t-40 -40.5q6 -12 22.5 -22t33 -20.5t27.5 -20.5t5 -25q0 -2 -4 -10l-4 -8 l-268 -182l-68 35l-158 112l-6 1q-6 1 -14 1q-2 0 -12 -1l-9 -1l-172 -119q-35 -16 -63.5 -47.5t-46.5 -54.5zM565 430l15 37q10 29 17 54.5t17 53.5l15 39l55 146q16 41 43 77.5t61 69.5l25 -37l-186 -485q-59 0 -62 45z" />
<glyph unicode="&#xb6;" horiz-adv-x="3407" d="M270 653l213 -96l-172 -94q-29 -74 37 -74l332 -57l-86 -62l-29 -71l561 -41l-57 -95l57 -38l574 75l-45 -114l65 -19l496 191l88 -117l127 22l295 207q55 -37 105.5 -57t93.5 -20q55 0 102 43l113 227l200 -41q78 14 103 80l6 16q8 18 4 23l-76 149h199l71 80q2 2 6.5 3 t4.5 3q23 49 -234 146q160 14 197 108l4 10q6 12 2 13l-405 98q96 18 133 113l-31 36h-537l66 117l-150 13l-473 -74l-12 20l41 54l-66 61l-460 -172l-160 111q-59 -16 -147.5 -73t-206.5 -151l-218 74h-14q-51 0 -98 -63.5t-101 -204.5l-258 22l-69 -112l84 -136l-256 -34z M336 709l301 20l-92 170l4 80l285 -18l147 264q96 -82 184 -82q27 0 58 8l329 225l131 -112l465 166l43 -13l-30 -117l612 76l-96 -135h598l-219 -111l475 -96l14 -37h-29l-245 -55l299 -156l8 -34l-293 -23q113 -176 92 -227q-2 -8 -14 -21l-275 37l-120 -262l-263 76 l-307 -232l-160 117l-518 -192l52 75l-41 80l-582 -94l113 131l-619 19l225 110l-499 98l282 97zM756 530l104 27l144 330l-74 -13zM961 655q-18 -147 96 -147q23 0 40 4t46 8l16 60q-53 -6 -78 -7q-90 0 -65 64q27 66 121 137q66 45 120 45q14 0 21.5 -1t19.5 -7l39 84 q-303 -39 -360 -193l-7 -21t-9 -26zM1251 590q2 -57 111 -58q16 0 31.5 2.5t31.5 2.5q121 -1 242 237q14 113 -117 113h-22v-2h-19q-178 -86 -258 -295zM1360 678l10 24q92 106 154 107q49 0 55 -43q10 -6 7 -17.5t-7 -23.5q-18 -47 -76 -98q-35 -16 -62.5 -22.5t-49.5 -6.5 q-61 0 -31 80zM1628 530l68 11l63 161q74 -165 172 -165l127 331l-61 19l-101 -234l-145 215zM2009 545l105 24l147 332l-78 -14zM2181 567h78q76 76 129 76t59 -76l43 -14l90 250q14 106 -61 106q-14 0 -22.5 -1t-30.5 -9q-109 -86 -178.5 -168t-106.5 -164zM2353 715 l127 112l4 -112h-131zM2558 545l70 8l61 162q80 -164 174 -164l129 334l-61 16l-101 -233l-147 215zM2906 518l33 -39l84 51l-51 23zM2992 643l60 -8l141 248l-88 18z" />
<glyph unicode="&#xb7;" horiz-adv-x="503" d="M244 577.5q8 -34.5 32.5 -62.5t61.5 -45t80 -17q39 0 81 13t76.5 34.5t62.5 51.5t40 62q41 104 -5.5 156t-187.5 68q-35 -18 -71.5 -39t-69.5 -43.5t-58.5 -50t-37.5 -58.5q-12 -35 -4 -69.5z" />
<glyph unicode="&#xb8;" horiz-adv-x="337" d="M-94 -256q18 31 50 46t68.5 24.5t74.5 15.5t69 18q-29 25 -58.5 51.5t-52 53.5t-35 50.5t-6.5 41.5q80 0 160 -12.5t136.5 -41t82 -76.5t-1.5 -120q-12 -29 -24.5 -49t-29.5 -38.5t-41.5 -37t-61.5 -43.5l-123 -22q-98 4 -154.5 38.5t-52.5 100.5z" />
<glyph unicode="&#xb9;" horiz-adv-x="417" d="M437 948.5q-5 22.5 1 36.5l127 334q-8 0 -22.5 7t-18.5 13q-6 2 -3 14.5t5 18.5t12.5 13.5t36 22.5t69.5 40t116 68q45 -35 72.5 -70t44.5 -70l-1 -4q-2 -4 -2 -6q-6 -18 -20 -28.5t-29.5 -21.5t-32 -27.5t-26.5 -43.5q-4 -10 -14.5 -39.5t-20.5 -62.5t-17 -62.5 t-7 -38.5q68 6 49 -38q-6 -18 -38 -44t-71 -49.5t-77 -41t-56 -17.5q-16 0 -31.5 15.5t-28 37t-17.5 44z" />
<glyph unicode="&#xba;" horiz-adv-x="690" d="M397 1036l6 13q10 29 43 28l136 350q0 4 44 12.5t100 17.5t110.5 18.5t76.5 15.5q6 0 27 7t44.5 15.5t44 15.5t24.5 9q33 -6 53 -27.5t32.5 -49t17.5 -58.5t5 -55l-10 -25q-6 -16 -12 -35.5t-13 -36.5l-10 -24q-33 -86 -53.5 -127t-51 -63.5t-80.5 -38t-143 -50.5 q-6 -2 -24.5 -12t-40 -21.5t-39.5 -20.5t-22 -9l-8 -1q-7 -1 -11 -1q-25 0 -68 18.5t-84.5 43t-70.5 50t-23 41.5zM741 1092q-4 -10 8.5 -15.5t24.5 -5.5l100 260q4 10 -3 26.5t-21 20.5z" />
<glyph unicode="&#xbb;" horiz-adv-x="1138" d="M178 463l397 201q-12 10 -41.5 40.5t-64.5 66.5t-65.5 71t-45.5 53q-8 8 15.5 38t62.5 68.5t86 82.5t90 79t73 56.5t34 17.5l88 -532q2 -10 -32 -55.5t-87 -108t-115.5 -131t-118 -126t-94 -92t-43.5 -30.5zM725 451l399 200q-12 10 -41.5 41t-64.5 67t-66.5 70.5 t-46.5 53.5q-6 8 16.5 37.5t62.5 68.5t87 83t90 79t73 56.5t34 17.5l88 -533q2 -12 -33 -57t-87 -106.5t-114.5 -130t-117 -125t-93.5 -92.5t-45 -31z" />
<glyph unicode="&#xbc;" horiz-adv-x="1476" d="M256 90q0 -45 13.5 -79t39.5 -34q35 0 103.5 25t142.5 61.5t140.5 78.5t97.5 77q43 49 32.5 71.5t-86.5 8.5q12 16 46 57t80 92.5t97.5 109.5t98.5 109.5t83 91.5t50 56q53 57 109.5 92t109.5 59.5t99.5 48t78.5 58.5q4 6 8.5 -2t6.5 -2l4 8q35 145 -62 291 q-188 -86 -303 -140t-181.5 -86t-95 -47.5t-42.5 -25.5q-6 -4 -13.5 -14.5t-14.5 -21.5t-11 -21.5t-2 -12.5q4 -10 23.5 -25.5t33.5 -15.5l-635 -702q-25 -27 -38 -74t-13 -92zM437 948.5q5 -22.5 17.5 -44t28 -37t31.5 -15.5q18 0 56 17.5t77 41t71 49t38 44.5 q18 45 -49 38q0 8 7 38t17 63t20.5 62.5t14.5 39.5q10 27 26.5 43.5t32 27.5t29.5 21.5t20 28.5q0 2 2 6l1 4q-16 35 -44 70t-73 70q-72 -43 -116 -68t-69.5 -40t-36 -22.5t-12.5 -13.5t-5 -18.5t3 -14.5q4 -6 18.5 -13t22.5 -7l-127 -334q-6 -14 -1 -36.5zM989 281 q-4 -8 30 -26.5t75 -38t76.5 -36t37.5 -20.5t0 -23.5t-4 -41t-4 -39t0 -19.5q0 -10 1 -19.5t-3 -17.5q-2 -8 21 -8q35 0 66.5 30.5t57 71.5t44 81t28.5 58q6 0 11.5 1.5t9.5 1.5q18 0 23 -9.5t22 -9.5q35 0 45 31l8 18q8 25 2 45.5t-15.5 40t-14.5 41t5 47.5q8 25 30 48.5 t41.5 42t30.5 31.5t3 18l-127 51q-49 -12 -83 -25.5t-65 -42.5q-2 0 -18 9.5t-36.5 21.5t-41 21.5t-33.5 9.5q-14 0 -34.5 -12.5t-41 -29t-35 -31.5t-16.5 -20zM1208 322l66 167l24 15l15 -15l-53 -135z" />
<glyph unicode="&#xbd;" horiz-adv-x="1499" d="M256 90q0 45 13.5 92t37.5 74l635 702q-14 0 -33.5 15.5t-23.5 25.5q-2 2 2 12.5t11 21.5t14.5 21.5t13.5 14.5q14 10 42.5 25.5t95 47.5t181.5 86t303 140q96 -145 62 -291l-4 -8q-2 -6 -6.5 2t-8.5 2q-33 -35 -79 -58.5t-99 -48t-109.5 -59.5t-109.5 -92 q-14 -16 -50 -56t-83 -91.5t-98.5 -109.5t-97.5 -109.5t-79.5 -92.5t-46.5 -57q76 14 86.5 -8.5t-32.5 -71.5q-31 -35 -97.5 -77t-140.5 -78.5t-142.5 -61.5t-103.5 -25q-27 0 -40 34t-13 79zM437 948.5q-5 22.5 1 36.5l127 334q-8 0 -22.5 7t-18.5 13q-6 2 -3 14.5t5 18.5 t12.5 13.5t36 22.5t69.5 40t116 68q45 -35 72.5 -70t44.5 -70l-1 -4q-2 -4 -2 -6q-6 -18 -20 -28.5t-29.5 -21.5t-32 -27.5t-26.5 -43.5q-4 -10 -14.5 -39.5t-20.5 -62.5t-17 -62.5t-7 -38.5q68 6 49 -38q-6 -18 -38 -44t-71 -49.5t-77 -41t-56 -17.5q-16 0 -31.5 15.5 t-28 37t-17.5 44zM1000.5 104.5q-5.5 12.5 0.5 26.5l41 135l359 185l-15 30q-10 -8 -25 -24.5t-32.5 -32.5t-36 -28.5t-37.5 -12.5q-12 0 -36.5 7t-49 19.5t-40 29t-9.5 32.5l4 10q6 4 23.5 21.5t38 39t39 40l24.5 24.5q4 0 13.5 10.5t21.5 23.5t26.5 23.5t26.5 10.5 q6 0 7.5 -1t3.5 -1q14 -4 45.5 -15.5t68.5 -26t70 -25.5t47 -15q27 -10 50.5 -29.5t12.5 -48.5l-34 -90l-240 -141q6 6 27 6q12 0 37.5 -7.5t49 -19.5t39 -27.5t9.5 -33.5q0 -2 -4 -4l-4 -2q-2 -6 -19.5 -24.5t-38 -39l-39 -39l-24.5 -24.5q-4 -2 -14.5 -12.5t-24.5 -23 t-28.5 -21.5t-22.5 -9h-11q-14 4 -47.5 10t-70.5 14.5t-71 14.5t-48 10q-10 6 -23.5 13.5t-23.5 18.5t-15.5 23.5zM1194 174l59 -14q4 4 13.5 17t20.5 28.5t23.5 31t22.5 23.5z" />
<glyph unicode="&#xbe;" horiz-adv-x="1581" d="M358 90q0 -45 13.5 -79t40.5 -34q37 0 105.5 25t142 61.5t140 78.5t97.5 77q45 49 35 71.5t-90 8.5q12 16 46 57t80 92.5t98 109.5t99 109.5t83 91.5t50 56q53 57 109.5 92t109 59.5t98.5 48t81 58.5q6 6 9 -2t5 -2l4 8q37 143 -63 291q-186 -86 -302 -139t-183.5 -85 t-96.5 -48.5t-41 -26.5q-4 -4 -10 -15.5t-13.5 -22.5t-12.5 -20.5t-5 -11.5q4 -10 25 -25.5t35 -15.5l-637 -702q-25 -27 -38.5 -74t-13.5 -92zM389 996.5q4 -5.5 27 -21.5q10 -6 36.5 -24.5t56.5 -40t56.5 -40t38.5 -22.5q2 0 8 -1t15 -1q27 0 75 18.5t96 45t87 57t49 55.5 l129 338q10 29 -17.5 48t-54.5 30q-12 6 -46 18t-74 24.5t-76.5 24t-53.5 15.5h-6q-12 0 -27.5 -10.5t-29.5 -22.5t-25.5 -22.5t-13.5 -10.5q-8 -6 -20.5 -20.5t-24.5 -29.5t-24.5 -29.5t-18.5 -20.5l-2 -6q-8 -18 8 -33t41 -26t50.5 -16t37.5 -5q45 0 65.5 21.5t36.5 37.5 l-47 -123l-53 25l-217 -82q-6 -2 16.5 -10.5t56.5 -17.5t73.5 -19t68.5 -19q-14 -12 -34.5 -20t-41 -13.5t-40 -8.5t-31.5 -3q-37 0 -55.5 9.5t-47.5 9.5q-23 0 -31 -9.5t-12 -23.5q-8 -20 -4 -25.5zM1094 281q-4 -8 29.5 -26.5t74.5 -38t77 -36t36 -20.5q2 -4 0 -23.5 t-3 -41t-3 -39t0 -19.5q4 -23 -2 -37q-2 -8 18 -8q35 0 66.5 30.5t58.5 71.5t46.5 81t29.5 58q2 0 8 1.5t8 1.5q20 0 25.5 -9.5t23.5 -9.5q33 0 43 31l8 18q8 25 2 45.5t-15 40t-14 41t5 47.5q8 25 29.5 48.5t40 42t29.5 31.5t3 18l-125 51q-49 -12 -81.5 -25.5t-65.5 -42.5 q-2 0 -17.5 9.5t-37 21.5t-42 21.5t-32.5 9.5t-33.5 -12.5t-41 -29t-35 -31.5t-17.5 -20zM1311 322l65 167l27 15l14 -15l-53 -135z" />
<glyph unicode="&#xbf;" horiz-adv-x="1058" d="M122 269.5q9 -23.5 29.5 -44t47 -36t51.5 -25.5q27 -10 92.5 -31.5t138 -46.5t138 -48.5t90.5 -35.5q8 0 11 -2t11 -2q20 0 49 19.5t54.5 44t47 46t27.5 25.5q12 12 48 50t76 79t76 76t48 43l4 8l6 12q14 35 -16.5 68t-77.5 57.5t-97 39t-77 14.5q-35 0 -57 -15l483 250 l-141 217l-320 -176q4 0 -18.5 -10t-58 -26.5t-82 -37t-91.5 -41t-81.5 -39t-57.5 -30.5l-282 -172l-70 -178q-10 -29 -1 -52.5zM604 444l217 111q-27 -16 -54.5 -39.5t-53 -48.5t-47 -48.5t-35.5 -37.5zM1077 1364q-41 -104 5.5 -155.5t187.5 -67.5q35 18 71.5 37.5 t68.5 43t58.5 50t38.5 59.5q12 35 3 70t-33.5 62.5t-60.5 45t-79 17.5q-41 0 -82 -13.5t-75.5 -35t-62 -51t-40.5 -62.5z" />
<glyph unicode="&#xc0;" horiz-adv-x="1294" d="M145 293q0 -51 16.5 -98.5t55.5 -92.5q18 -20 38.5 -37.5t57.5 -17.5q39 0 96.5 34t115 76t107.5 75.5t79 33.5q14 0 28.5 -33.5t36 -75.5t52 -76t79.5 -34h31q20 14 69.5 43t103.5 59.5t102.5 59.5t70.5 45q20 10 32.5 14t19.5 9.5t11.5 11.5t10.5 20q2 8 0 20.5t-6 25 t-10.5 20.5t-12.5 8q-20 0 -33.5 -8t-35.5 -8q-18 0 -22.5 17t-2.5 39.5t8 42t8 26.5l6 16l35 90l13 33l32 82q25 66 44.5 116t60.5 117q18 12 39.5 20.5t42 15.5t37 18.5t24.5 33.5q12 35 -7 56.5t-52 37t-69 27.5t-54 27q-33 18 -54.5 43.5t-41 49t-44 40t-63.5 16.5 q-47 0 -82 -17.5t-86 -37.5q-92 -35 -192.5 -64.5t-194.5 -68.5t-173 -96.5t-124 -145.5l-16 -41q-14 -37 -26.5 -67.5t-26.5 -67.5l-17 -41l-63 -166q-25 -61 -39.5 -117.5t-14.5 -107.5zM649 377q16 59 32.5 111.5t37.5 101.5l82 217l16 39l37 96l6 16l33 58h6h10 q8 -4 15.5 -21.5t17.5 -27.5q6 -8 12 -15l7 -6l-197 -512q-2 -6 -13.5 -17t-25.5 -21.5t-28.5 -20.5t-22.5 -15h-8h-7q-16 7 -10 17zM1010 1765q-6 -2 3 -26.5t28.5 -60.5t45 -75.5t51 -71.5t48 -50.5t35.5 -10.5q39 20 70.5 35t57 29t47 31.5t38.5 42.5q8 0 7 6l-1 6 l-66 305z" />
<glyph unicode="&#xc1;" horiz-adv-x="1294" d="M145 293q0 -51 16.5 -98.5t55.5 -92.5q18 -20 38.5 -37.5t57.5 -17.5q39 0 96.5 34t115 76t107.5 75.5t79 33.5q14 0 28.5 -33.5t36 -75.5t52 -76t79.5 -34h31q20 14 69.5 43t103.5 59.5t102.5 59.5t70.5 45q20 10 32.5 14t19.5 9.5t11.5 11.5t10.5 20q2 8 0 20.5t-6 25 t-10.5 20.5t-12.5 8q-20 0 -33.5 -8t-35.5 -8q-18 0 -22.5 17t-2.5 39.5t8 42t8 26.5l6 16l35 90l13 33l32 82q25 66 44.5 116t60.5 117q18 12 39.5 20.5t42 15.5t37 18.5t24.5 33.5q12 35 -7 56.5t-52 37t-69 27.5t-54 27q-33 18 -54.5 43.5t-41 49t-44 40t-63.5 16.5 q-47 0 -82 -17.5t-86 -37.5q-92 -35 -192.5 -64.5t-194.5 -68.5t-173 -96.5t-124 -145.5l-16 -41q-14 -37 -26.5 -67.5t-26.5 -67.5l-17 -41l-63 -166q-25 -61 -39.5 -117.5t-14.5 -107.5zM649 377q16 59 32.5 111.5t37.5 101.5l82 217l16 39l37 96l6 16l33 58h6h10 q8 -4 15.5 -21.5t17.5 -27.5q6 -8 12 -15l7 -6l-197 -512q-2 -6 -13.5 -17t-25.5 -21.5t-28.5 -20.5t-22.5 -15h-8h-7q-16 7 -10 17zM1034 1608q-2 -25 7.5 -42.5t24.5 -31.5t36.5 -28.5t44.5 -35.5q6 -8 41 10.5t84 50.5t104.5 71.5t101.5 74.5t75.5 60.5t27.5 27.5 l-244 160l-297 -305l-6 -6t0 -6z" />
<glyph unicode="&#xc2;" horiz-adv-x="1294" d="M145 293q0 -51 16.5 -98.5t55.5 -92.5q18 -20 38.5 -37.5t57.5 -17.5q39 0 96.5 34t115 76t107.5 75.5t79 33.5q14 0 28.5 -33.5t36 -75.5t52 -76t79.5 -34h31q20 14 69.5 43t103.5 59.5t102.5 59.5t70.5 45q20 10 32.5 14t19.5 9.5t11.5 11.5t10.5 20q2 8 0 20.5t-6 25 t-10.5 20.5t-12.5 8q-20 0 -33.5 -8t-35.5 -8q-18 0 -22.5 17t-2.5 39.5t8 42t8 26.5l6 16l35 90l13 33l32 82q25 66 44.5 116t60.5 117q18 12 39.5 20.5t42 15.5t37 18.5t24.5 33.5q12 35 -7 56.5t-52 37t-69 27.5t-54 27q-33 18 -54.5 43.5t-41 49t-44 40t-63.5 16.5 q-47 0 -82 -17.5t-86 -37.5q-92 -35 -192.5 -64.5t-194.5 -68.5t-173 -96.5t-124 -145.5l-16 -41q-14 -37 -26.5 -67.5t-26.5 -67.5l-17 -41l-63 -166q-25 -61 -39.5 -117.5t-14.5 -107.5zM569 1563q-6 -4 12.5 -21.5t51.5 -40t75 -47t80.5 -44t70.5 -29t44 -1.5 q31 18 85 54t111.5 75t106.5 72t66 45l141 -258l434 205q6 4 -28.5 23.5t-92 46t-128 56.5t-135 53.5t-114 36.5t-61.5 9zM649 377q16 59 32.5 111.5t37.5 101.5l82 217l16 39l37 96l6 16l33 58h6h10q8 -4 15.5 -21.5t17.5 -27.5q6 -8 12 -15l7 -6l-197 -512 q-2 -6 -13.5 -17t-25.5 -21.5t-28.5 -20.5t-22.5 -15h-8h-7q-16 7 -10 17z" />
<glyph unicode="&#xc3;" horiz-adv-x="1294" d="M145 293q0 -51 16.5 -98.5t55.5 -92.5q18 -20 38.5 -37.5t57.5 -17.5q39 0 96.5 34t115 76t107.5 75.5t79 33.5q14 0 28.5 -33.5t36 -75.5t52 -76t79.5 -34h31q20 14 69.5 43t103.5 59.5t102.5 59.5t70.5 45q20 10 32.5 14t19.5 9.5t11.5 11.5t10.5 20q2 8 0 20.5t-6 25 t-10.5 20.5t-12.5 8q-20 0 -33.5 -8t-35.5 -8q-18 0 -22.5 17t-2.5 39.5t8 42t8 26.5l6 16l35 90l13 33l32 82q25 66 44.5 116t60.5 117q18 12 39.5 20.5t42 15.5t37 18.5t24.5 33.5q12 35 -7 56.5t-52 37t-69 27.5t-54 27q-33 18 -54.5 43.5t-41 49t-44 40t-63.5 16.5 q-47 0 -82 -17.5t-86 -37.5q-92 -35 -192.5 -64.5t-194.5 -68.5t-173 -96.5t-124 -145.5l-16 -41q-14 -37 -26.5 -67.5t-26.5 -67.5l-17 -41l-63 -166q-25 -61 -39.5 -117.5t-14.5 -107.5zM567 1612q-6 -4 26 -21.5t84 -41t117.5 -49t124 -45t103.5 -29t59 -1.5 q61 35 124 66t100 55l155 -129l453 205q6 4 -26 21.5t-84 41t-117.5 49t-124 45t-104.5 29t-58 0.5q-68 -37 -119 -77.5t-92 -69.5l-170 156zM649 377q16 59 32.5 111.5t37.5 101.5l82 217l16 39l37 96l6 16l33 58h6h10q8 -4 15.5 -21.5t17.5 -27.5q6 -8 12 -15l7 -6 l-197 -512q-2 -6 -13.5 -17t-25.5 -21.5t-28.5 -20.5t-22.5 -15h-8h-7q-16 7 -10 17z" />
<glyph unicode="&#xc4;" horiz-adv-x="1294" d="M145 293q0 -51 16.5 -98.5t55.5 -92.5q18 -20 38.5 -37.5t57.5 -17.5q39 0 96.5 34t115 76t107.5 75.5t79 33.5q14 0 28.5 -33.5t36 -75.5t52 -76t79.5 -34h31q20 14 69.5 43t103.5 59.5t102.5 59.5t70.5 45q20 10 32.5 14t19.5 9.5t11.5 11.5t10.5 20q2 8 0 20.5t-6 25 t-10.5 20.5t-12.5 8q-20 0 -33.5 -8t-35.5 -8q-18 0 -22.5 17t-2.5 39.5t8 42t8 26.5l6 16l35 90l13 33l32 82q25 66 44.5 116t60.5 117q18 12 39.5 19.5t42 15.5t37 19.5t24.5 33.5q12 35 -7 56.5t-52 37t-69 27.5t-54 27q-31 18 -52.5 43.5t-42 49t-46 40t-62.5 16.5 q-47 0 -82 -17.5t-86 -37.5q-92 -35 -192.5 -64.5t-194.5 -68.5t-173 -96.5t-124 -145.5l-16 -41q-14 -37 -26.5 -67.5t-26.5 -67.5l-17 -41l-63 -166q-25 -61 -39.5 -117.5t-14.5 -107.5zM649 377q16 59 32.5 111.5t37.5 101.5l82 217l16 39l37 96l6 16l33 58h6h10 q8 -4 15.5 -21.5t17.5 -27.5q6 -8 12 -15l7 -6l-197 -512q-2 -6 -13.5 -17t-25.5 -21.5t-28.5 -19.5t-22.5 -16h-8h-7q-16 7 -10 17zM717 1583q8 -35 32.5 -62.5t60.5 -45t79 -17.5q41 0 82 13.5t77.5 35t64.5 51t40 62.5q41 104 -6.5 155.5t-190.5 67.5 q-35 -18 -71.5 -38.5t-68.5 -43t-57.5 -50.5t-37.5 -58q-12 -35 -4 -70zM1352 1585q8 -35 32.5 -62.5t61.5 -45t80 -17.5q41 0 82 13.5t76.5 35t63.5 51t40 62.5q41 104 -5.5 155.5t-189.5 67.5q-35 -18 -71.5 -38.5t-69.5 -43t-58.5 -50t-37.5 -58.5q-12 -35 -4 -70z" />
<glyph unicode="&#xc5;" horiz-adv-x="1294" d="M145 293q0 51 14.5 107.5t39.5 117.5l63 166l17 41q14 37 26 67.5t27 67.5l16 41q45 88 124 145.5t173 96.5t194.5 68.5t192.5 64.5q51 20 86 37.5t82 17.5q39 0 63.5 -16.5t44 -40t41 -49t54.5 -43.5q18 -14 54 -26.5t69 -28t52 -37t7 -56.5q-8 -23 -24.5 -34t-37 -18 t-42 -15.5t-39.5 -20.5q-41 -68 -60.5 -118t-44.5 -115l-32 -82l-13 -33l-35 -90l-6 -16q-2 -6 -8 -26t-8 -42.5t2 -39.5t23 -17q23 0 36 8t33 8q6 0 12.5 -8t10.5 -20.5t6 -25t0 -20.5q-6 -14 -10.5 -20t-11.5 -11.5t-19 -9.5t-33 -14q-23 -16 -71 -45t-102 -59.5 t-103.5 -59.5t-69.5 -43h-31q-49 0 -79.5 34t-52 76t-36 75.5t-28.5 33.5q-29 0 -79 -33.5t-107.5 -75.5t-115 -76t-96.5 -34q-37 0 -57 17.5t-39 37.5q-39 45 -55.5 92.5t-16.5 98.5zM649 377q-6 -10 10 -17h7h8q8 4 22.5 14.5t28.5 21t25.5 21.5t13.5 17l197 512l-7 6 q-6 6 -12 15q-10 10 -17 27.5t-16 21.5h-10h-6l-33 -58l-6 -16l-37 -96l-16 -39l-82 -217q-20 -49 -37 -101.5t-33 -111.5zM893 1516l4 8q6 20 43 20l98 254q0 2 45 8t102.5 13.5t112 14.5t76.5 11q4 0 23.5 4t42 9.5t43 10.5t26.5 9q35 -6 59.5 -20.5t39 -34t21.5 -42 t9 -40.5l-6 -19q-4 -12 -9 -25.5t-9 -25.5l-8 -20q-23 -61 -39.5 -91t-44 -45.5t-76.5 -26.5t-139 -36q-8 -2 -26.5 -10t-39 -16.5t-37 -14.5t-20.5 -6l-6 -1q-7 -1 -13 -1q-29 0 -76 13.5t-92 31.5t-76.5 38t-27.5 30zM1243 1556q-4 -8 8.5 -12t26.5 -4l72 191q4 4 -5.5 15 t-23.5 15z" />
<glyph unicode="&#xc6;" horiz-adv-x="2015" d="M145 293q0 -51 16.5 -98.5t55.5 -92.5q18 -20 38.5 -37.5t57.5 -17.5q39 0 96.5 34t115 76t107.5 75.5t79 33.5q14 0 28.5 -33.5t36 -75.5t52 -76t79.5 -34h31q20 12 61 38t93 54q59 -59 130.5 -99t147.5 -40q29 0 93.5 22.5t144.5 57.5t166 78t158.5 84t121.5 74.5 t55 52.5q10 29 -6 40t-53 11t-67.5 -6t-60.5 -12.5t-60.5 -12.5t-67.5 -6t-82 10t-82 28.5t-56.5 45.5t-6.5 61q18 47 72.5 79t127 57.5t154.5 48t154.5 50.5t129 64.5t76.5 90.5q4 10 8.5 25t4.5 18l-144 352q-4 2 -29.5 13t-37.5 17h-21q-37 0 -107.5 -15t-156.5 -40.5 t-178 -59.5t-172 -71q-14 6 -25.5 11.5t-19.5 13.5q-33 18 -54.5 43.5t-41 49t-44 40t-63.5 16.5q-47 0 -82 -17.5t-86 -37.5q-92 -35 -192.5 -64.5t-194.5 -68.5t-173 -96.5t-124 -145.5l-16 -41q-14 -37 -26.5 -67.5t-26.5 -67.5l-80 -207q-25 -61 -39.5 -117.5 t-14.5 -107.5zM649 377q16 59 32.5 111.5t37.5 101.5l141 368l33 58h16q8 -4 15.5 -21.5t17.5 -27.5q6 -8 12 -15l7 -6l-197 -512q-2 -6 -13.5 -17t-25.5 -21.5t-28.5 -20.5t-22.5 -15h-15q-16 7 -10 17zM1608 737l86 224q2 -4 7 -18.5t12 -30t14.5 -30t11.5 -18.5 q4 -12 9 -36.5t5 -26.5q-4 -10 -27.5 -21.5t-50 -20.5t-47.5 -15z" />
<glyph unicode="&#xc7;" horiz-adv-x="1140" d="M135 352q-16 -41 1.5 -90t55 -96t90 -86t105.5 -60q20 -43 59 -89t80 -83q-31 -12 -68.5 -18t-72.5 -15.5t-66.5 -24.5t-50.5 -46q-4 -66 51.5 -100.5t153.5 -38.5l121 22q37 25 61.5 43.5t42 37t29.5 39t25 48.5q35 92 -9.5 152.5t-132.5 91.5q55 25 129 57.5t144.5 63 t129 57.5t83.5 39q31 14 51 23.5t32.5 18.5t19.5 21.5t15 32.5q10 23 4 43.5t-42 20.5q-55 0 -112.5 -17.5t-119.5 -17.5q-31 0 -75 8t-82.5 24.5t-60 41t-9.5 57.5l172 446q6 -16 10 -47.5t14.5 -64.5t33 -57.5t65.5 -24.5q18 0 55 6t81 18.5t92 29t90 35.5t73 42t39 47 q2 4 3 10l1 6q-4 10 -13.5 46t-18.5 78t-17 80t-11 52q-6 2 -12 22.5t-15 44.5t-24.5 43t-40.5 19q-6 0 -11 -1t-11 -1q-25 -6 -73 -19t-109.5 -28.5t-128 -33t-127 -33t-109.5 -27.5t-74 -18q-31 -10 -71.5 -25.5t-78.5 -36t-68 -45t-40 -53.5z" />
<glyph unicode="&#xc8;" horiz-adv-x="1181" d="M158.5 280q23.5 -73 78 -135.5t130 -104.5t155.5 -42q29 0 92.5 22.5t143.5 57.5t166 78t158.5 84t121.5 74.5t58 52.5q10 29 -7.5 40t-52.5 11q-37 0 -68.5 -6t-61.5 -12.5t-60.5 -12.5t-67.5 -6q-35 0 -80 10t-82 28.5t-56 45.5t-7 61q16 45 70.5 78t127 58.5t154.5 48 t154.5 50t128 63.5t76.5 89q4 10 9 26.5t7 18.5l-143 353q-2 2 -29 12t-41 18h-23q-37 0 -108.5 -15t-158.5 -42t-180 -61.5t-173 -73.5t-137.5 -80t-71.5 -78l-221 -575q-25 -63 -1.5 -136zM762 735l86 223q0 -4 5 -18t11 -29.5t13.5 -30t11.5 -18.5q6 -12 11 -36.5 t5 -26.5q-4 -10 -27.5 -21.5t-49 -20.5t-47 -15.5t-19.5 -6.5zM936 1769q-6 -2 4 -26.5t28.5 -59t44 -74.5t51.5 -72t46 -50.5t33 -11.5q78 41 129 65.5t86 71.5q8 0 6 6l-2 6l-64 305z" />
<glyph unicode="&#xc9;" horiz-adv-x="1181" d="M158.5 280q23.5 -73 78 -135.5t130 -104.5t155.5 -42q29 0 92.5 22.5t143.5 57.5t166 78t158.5 84t121.5 74.5t58 52.5q10 29 -7.5 40t-52.5 11q-37 0 -68.5 -6t-61.5 -12.5t-60.5 -12.5t-67.5 -6q-35 0 -80 10t-82 28.5t-56 45.5t-7 61q16 45 70.5 78t127 58.5t154.5 48 t154.5 50t128 63.5t76.5 89q4 10 9 26.5t7 18.5l-143 353q-2 2 -29 12t-41 18h-23q-37 0 -108.5 -15t-158.5 -42t-180 -61.5t-173 -73.5t-137.5 -80t-71.5 -78l-221 -575q-25 -63 -1.5 -136zM762 735l86 223q0 -4 5 -18t12 -30.5t13.5 -30t10.5 -17.5q6 -12 11 -36.5 t5 -26.5q-4 -10 -26.5 -20.5t-48 -20.5t-46.5 -16zM973 1608q-2 -25 7 -42.5t24.5 -31.5t37 -28.5t43.5 -35.5q4 -8 39 9.5t84 49.5t105.5 71.5t102.5 75.5t76 61.5t28 27.5l-244 160l-297 -305l-6 -6t0 -6z" />
<glyph unicode="&#xca;" horiz-adv-x="1181" d="M158.5 280q23.5 -73 78 -135.5t130 -104.5t155.5 -42q29 0 92.5 22.5t143.5 57.5t166 78t158.5 84t121.5 74.5t58 52.5q10 29 -7.5 40t-52.5 11q-37 0 -68.5 -6t-61.5 -12.5t-60.5 -12.5t-67.5 -6q-35 0 -80 10t-82 28.5t-56 45.5t-7 61q16 45 70.5 78t127 58.5t154.5 48 t154.5 50t128 63.5t76.5 89q4 10 9 26.5t7 18.5l-143 353q-2 2 -29 12t-41 18h-23q-37 0 -108.5 -15t-158.5 -42t-180 -61.5t-173 -73.5t-137.5 -80t-71.5 -78l-221 -575q-25 -63 -1.5 -136zM469 1589q-6 -4 14.5 -21.5t55 -40t80 -47t87.5 -43t74.5 -27.5t46.5 -1 q29 16 85.5 52t114.5 75t109.5 72.5t71.5 46.5l156 -258l451 202q8 4 -29 25t-97.5 47.5t-136 55t-144.5 52t-120 38t-65 10.5zM762 735l86 223q0 -4 5 -18t12 -30.5t13.5 -30t10.5 -17.5q6 -12 11 -36.5t5 -26.5q-4 -10 -26.5 -20.5t-48 -20.5t-46.5 -16z" />
<glyph unicode="&#xcb;" horiz-adv-x="1181" d="M158.5 279.5q-23.5 72.5 1.5 136.5l221 575q14 37 71.5 78t137.5 80t173 73.5t180 61.5t159 42t108 15h23q14 -8 40.5 -18t29.5 -12l143 -353q-2 -2 -7 -18t-9 -27q-20 -53 -76 -89t-128.5 -63.5t-154.5 -50t-153.5 -48t-126 -57.5t-72.5 -79q-12 -35 7 -61.5t56 -45 t82 -28.5t80 -10q37 0 67.5 6t60.5 12.5t61.5 12.5t68.5 6q35 0 52.5 -11.5t7.5 -39.5q-6 -18 -56.5 -52t-123 -75t-158.5 -84t-166 -78t-143.5 -57.5t-92.5 -22.5q-80 0 -155.5 42t-130 104.5t-78 135zM633 1589q-8 35 4 70q12 31 37.5 58.5t58.5 51t69.5 44t71.5 38.5 q141 -16 187.5 -68t5.5 -157q-12 -33 -40 -62.5t-63.5 -51t-77.5 -35t-81 -13.5q-43 0 -80 17.5t-60.5 45t-31.5 62.5zM762 735q-2 0 19.5 6.5t47 15.5t49 20t27.5 22q0 2 -5 26.5t-11 36.5q-4 4 -11.5 18.5t-13.5 30t-11 29.5t-5 18zM1313 1589q-8 35 4 70q12 31 37.5 58.5 t58.5 51t69.5 44t71.5 38.5q143 -16 189.5 -68t5.5 -157q-12 -33 -40 -62.5t-64.5 -51t-77.5 -35t-82 -13.5q-43 0 -79 17.5t-60.5 45t-32.5 62.5z" />
<glyph unicode="&#xcc;" horiz-adv-x="829" d="M229 223l222 576q-6 0 -20.5 4t-28 9t-25.5 10t-15 9q-12 10 -20 33t4 31l365 223q8 2 30.5 18.5t59.5 16.5q23 0 39 -7t32 -28l193 -223l1 -6t-3 -12q-10 -29 -37 -47.5t-57.5 -38t-60 -46t-48.5 -73.5q-8 -18 -23.5 -69.5t-30.5 -108t-26.5 -106.5t-13.5 -69 q133 16 102 -63q-10 -29 -71.5 -73t-138 -85t-149.5 -70.5t-108 -29.5q-31 0 -64.5 26.5t-60 63.5t-41 75t-6.5 60zM715 1618l366 160l66 -305v-7q0 -6 -4 -6q-18 -25 -40 -42t-48.5 -31.5t-58 -29t-70.5 -34.5q-14 -8 -36 10.5t-46.5 50t-49 71.5t-44 76t-29.5 60.5 t-6 26.5z" />
<glyph unicode="&#xcd;" horiz-adv-x="829" d="M229 223q-8 -23 6.5 -60.5t41 -74.5t60.5 -63.5t64 -26.5q35 0 108 29.5t149.5 70.5t138 85t71.5 73q31 80 -102 63q2 18 13.5 68.5t26.5 107t30.5 107.5t23.5 70q18 47 48 73.5t60.5 46t57.5 38t37 47.5q4 6 3 12l-1 6l-193 223q-16 20 -32.5 27.5t-38.5 7.5 q-37 0 -59.5 -16.5t-30.5 -18.5l-365 -223q-12 -8 -4 -30.5t20 -33.5q2 -4 14.5 -9t26 -10t28 -9t20.5 -4zM687 1472q-5 -6 1 -6q-2 -25 6 -41t23.5 -30.5t37 -29.5t44.5 -36q4 -8 39.5 10.5t85 50t106.5 71.5t104.5 76t77 60.5t23.5 26.5l-244 160l-299 -305z" />
<glyph unicode="&#xce;" horiz-adv-x="829" d="M229 223q-8 -23 6.5 -60.5t41 -74.5t60.5 -63.5t64 -26.5q35 0 108 29.5t149.5 70.5t138 85t71.5 73q31 80 -102 63q2 18 13.5 68.5t26.5 107t30.5 107.5t23.5 70q18 47 48 73.5t60.5 46t57.5 38t37 47.5q4 6 3 12l-1 6l-193 223q-16 20 -32.5 27.5t-38.5 7.5 q-37 0 -59.5 -16.5t-30.5 -18.5l-365 -223q-12 -8 -4 -30.5t20 -33.5q2 -4 14.5 -9t26 -10t28 -9t20.5 -4zM285 1438q-6 -6 33.5 -39t95 -68t108.5 -58.5t74 -10.5q27 16 79 51t106.5 71.5t100.5 69.5t62 45l129 -250l406 199q4 4 -29 23.5t-85 46t-115.5 56.5t-123 52.5 t-104.5 35.5t-59 7z" />
<glyph unicode="&#xcf;" horiz-adv-x="829" d="M229 223l222 576q-6 0 -20.5 4t-28 9t-25.5 10t-15 9q-12 10 -20 33t4 31l365 223q8 2 30.5 18.5t59.5 16.5q23 0 39 -7t32 -28l193 -223l1 -6t-3 -12q-10 -29 -37 -47.5t-57.5 -38t-60 -46t-48.5 -73.5q-8 -20 -23.5 -70.5t-30.5 -107t-27.5 -106.5t-12.5 -69 q133 16 102 -63q-10 -29 -71.5 -73t-138 -85t-149.5 -70.5t-108 -29.5q-31 0 -64.5 26.5t-60 63.5t-41 75t-6.5 60zM424 1434.5q-8 33.5 4 68.5q12 31 38 58.5t58.5 51t69.5 44.5t72 39q143 -16 189 -67.5t5 -155.5q-12 -33 -39.5 -63t-63.5 -51.5t-77 -34.5t-82 -13 q-43 0 -80 17.5t-61.5 45t-32.5 61zM1037.5 1438q-9.5 35 4.5 69q12 31 37 58.5t57.5 50t69.5 43.5t72 39q141 -16 187 -67.5t5 -155.5q-12 -33 -39.5 -63t-62.5 -51.5t-77 -34.5t-81 -13q-43 0 -78.5 17.5t-60 45t-34 62.5z" />
<glyph unicode="&#xd0;" horiz-adv-x="1581" d="M242 623q-6 -4 46 -18.5t132 -33t171 -35t161 -22.5l-62 -162q-12 -6 -33.5 -18t-42 -25.5t-37 -28t-20.5 -24.5q-2 -6 21.5 -26.5t61.5 -49t84 -60.5t89 -58.5t77 -44t46 -17.5q16 0 73.5 18.5t135.5 47t165 63.5t161.5 71t127 67.5t60.5 51.5l221 576q8 25 0 58.5 t-26.5 67.5t-42 60.5t-46.5 36.5q-20 12 -76.5 40t-121 58.5t-123 57t-82.5 37.5v14q8 18 33.5 31.5t56.5 29t60.5 38t43.5 59.5q-86 0 -171 -8.5t-158.5 -36t-131 -77.5t-89.5 -132q-23 -55 -18 -102.5t28.5 -85t62.5 -70.5t86 -62h-262l-76 -200l-120 36zM1163 383 l185 479l55 -63l-184 -480z" />
<glyph unicode="&#xd1;" horiz-adv-x="1626" d="M149 263.5q3 -13.5 12 -28t19 -25.5t17 -17l204 -193h41q2 0 48.5 21.5t107.5 52t128 63.5t110 56l51 30l6 15l6 18q2 8 -4 31.5t-10 31.5l245 639l52 33l49 -33l-295 -765q-10 -25 8.5 -60t49 -66.5t65.5 -53t57 -21.5q10 0 25.5 4t19.5 4l391 193q33 16 53.5 25 t35 18.5t22.5 20.5t14 30q8 20 3 36.5t-18 26.5t-32.5 18.5t-40.5 14.5l221 575q12 4 30 16.5t35 28t31.5 30t18.5 22.5q-2 2 -19.5 26.5t-33.5 36.5l-125 96q-6 2 -24.5 20.5t-37 42t-34 43t-17.5 21.5l-6 1t-8 1q-49 0 -115.5 -28.5t-137.5 -65.5t-138.5 -74.5 t-118.5 -56.5q-10 29 -26.5 68t-41 73.5t-60.5 58t-85 23.5h-20q-55 -18 -118 -48.5t-124.5 -66.5t-117.5 -73t-99 -68q0 -2 -4 -12t-8 -18q-14 -37 7 -47.5t51 -13.5t53.5 -7t14.5 -29l-221 -575q-8 -4 -31.5 -17.5t-50 -28.5t-48 -29.5t-27.5 -20.5q-8 -10 -5 -23.5z M688 1630q-8 -4 23.5 -22.5t84 -42t118 -48t125 -44t104.5 -29.5t57 -2q61 35 125 66.5t102 54.5l152 -127l453 202q8 4 -24 22.5t-85 42t-118.5 48.5t-125 44.5t-104.5 29.5t-57 2q-66 -37 -118 -78t-91 -70l-170 154z" />
<glyph unicode="&#xd2;" d="M121 307q-8 -23 15.5 -54.5t66.5 -65t99 -68.5t113.5 -61.5t110 -43t86.5 -16.5q10 0 22 1l13 1q8 2 45 20.5t79 41t79 42t47 23.5q127 47 212 75.5t143.5 52.5t96 50.5t68.5 72.5t61.5 119.5t75.5 188.5l17 47q14 35 26.5 72t26.5 72l21 49q2 55 -6.5 115.5t-33 114.5 t-67.5 96t-108 59q-12 -6 -52.5 -21.5t-86.5 -31t-85 -28.5t-51 -16q-33 -10 -94.5 -21t-135 -23.5t-151.5 -24.5t-142.5 -23.5t-106.5 -20.5t-44 -16l-268 -702q-35 0 -54.5 -15.5t-29.5 -37.5zM807 416l221 575q18 -14 34.5 -45t8.5 -51l-199 -518q-25 0 -49 9t-16 30z M940 1722q-6 -2 4 -26.5t29.5 -59t45 -74.5t51.5 -72t47.5 -51.5t33.5 -11.5q78 41 129 66t86 72q4 0 5 6l1 6l-65 305z" />
<glyph unicode="&#xd3;" d="M121 307q-8 -23 15.5 -54.5t66.5 -65t99 -68.5t113.5 -61.5t110 -43t86.5 -16.5q10 0 22 1l13 1q10 2 47 20.5t79 41t78 42t46 23.5q127 47 212 75.5t143.5 52.5t96 50.5t68.5 72.5t61.5 119.5t75.5 188.5l17 47q14 35 26.5 72t26.5 72l21 49q2 55 -7.5 115.5t-34 114.5 t-66.5 96t-107 59q-12 -8 -53.5 -23.5t-87.5 -31t-86 -27.5t-48 -15q-33 -10 -94.5 -21t-135 -23.5t-151.5 -24.5t-142.5 -23.5t-106.5 -20.5t-44 -16l-268 -702q-35 0 -54.5 -15.5t-29.5 -37.5zM807 416l221 575q18 -14 34.5 -45t8.5 -51l-199 -518q-25 0 -49 9t-16 30z M1014 1538q-6 -6 2 -6q-2 -25 6 -42t22.5 -31.5t35 -30t42.5 -35.5q8 -6 44 12t85 50t103.5 72t100.5 74.5t76 59.5t28 27l-242 159l-297 -303z" />
<glyph unicode="&#xd4;" d="M121 307q-8 -23 15.5 -54.5t66.5 -65t99 -68.5t113.5 -61.5t110 -43t86.5 -16.5q10 0 22 1l13 1q10 2 47 20.5t79 41t78 42t46 23.5q127 47 212 75.5t143.5 52.5t96 50.5t68.5 72.5t61.5 119.5t75.5 188.5l17 47q14 35 26.5 72t26.5 72l21 49q2 55 -7.5 115.5t-34 114.5 t-66.5 96t-107 59q-12 -8 -53.5 -23.5t-87.5 -31t-86 -27.5t-48 -15q-33 -10 -94.5 -21t-135 -23.5t-151.5 -24.5t-142.5 -23.5t-106.5 -20.5t-44 -16l-268 -702q-35 0 -54.5 -15.5t-29.5 -37.5zM598 1608q-6 -4 14.5 -21.5t55 -40t80 -48t87.5 -44t74.5 -28t46.5 -1.5 q31 18 86.5 54.5t115 75t109.5 71.5t70 45l156 -258l451 205q8 4 -29 23.5t-98.5 46t-135 56.5t-142.5 53.5t-121 36.5t-66 9zM807 416l221 575q18 -14 34.5 -45t8.5 -51l-199 -518q-25 0 -49 9t-16 30z" />
<glyph unicode="&#xd5;" d="M121 307q-8 -23 15.5 -54.5t66.5 -65t99 -68.5t113.5 -61.5t110 -43t86.5 -16.5q10 0 22 1l13 1q10 2 47 20.5t79 41t78 42t46 23.5q127 47 212 75.5t143.5 52.5t96 50.5t68.5 72.5t61.5 119.5t75.5 188.5l17 47q14 35 26.5 72t26.5 72l21 49q2 55 -7.5 115.5t-34 114.5 t-66.5 96t-107 59q-12 -8 -53.5 -23.5t-87.5 -31t-86 -27.5t-48 -15q-33 -10 -94.5 -21t-135 -23.5t-151.5 -24.5t-142.5 -23.5t-106.5 -20.5t-44 -16l-268 -702q-35 0 -54.5 -15.5t-29.5 -37.5zM598 1608q-8 -4 23.5 -22.5t85 -42t118 -48.5t124 -44t104.5 -28.5t59 -1.5 q63 35 125.5 66t101.5 53l154 -127l451 205q6 4 -26 21.5t-85 41t-117.5 48t-124 44t-104.5 29.5t-57 2q-68 -37 -118 -77.5t-91 -69.5l-170 153zM807 416l221 575q18 -14 34.5 -45t8.5 -51l-199 -518q-25 0 -49 9t-16 30z" />
<glyph unicode="&#xd6;" d="M121 307l8 23q10 23 29.5 38t54.5 15l268 702q2 6 44 15.5t106.5 21t142.5 23.5t151.5 24.5t136 23.5t93.5 21q12 2 51 15.5t85 29t86 31t53 21.5q66 -16 108.5 -58.5t67 -96.5t33 -114.5t6.5 -115.5l-21 -49q-14 -35 -26.5 -72t-26.5 -72l-17 -47q-45 -115 -75.5 -188.5 t-61.5 -119.5t-68.5 -72.5t-96 -50.5t-143.5 -52.5t-212 -75.5q-10 -4 -47 -23.5t-79 -42t-79 -41t-45 -20.5l-12 -1t-23 -1q-35 0 -87 16.5t-109.5 43t-113.5 61.5t-99 68.5t-66.5 65t-15.5 54.5zM665.5 1550.5q-8.5 34.5 6.5 69.5q12 31 36.5 58.5t57.5 50t69.5 43 t71.5 38.5q141 -16 187.5 -67t5.5 -156q-12 -33 -40 -62.5t-63.5 -51t-76.5 -35t-82 -13.5q-43 0 -79 17.5t-60.5 45.5t-33 62.5zM807 416q-8 -20 16.5 -29.5t48.5 -9.5l199 518q8 20 -8 51t-35 45zM1417 1552.5q-8 34.5 4 69.5q12 31 38 58.5t58.5 51t69.5 44.5t72 39 q141 -16 187 -68.5t5 -157.5q-12 -33 -39.5 -62.5t-63.5 -51t-77 -35t-80 -13.5q-43 0 -79.5 17.5t-61.5 45.5t-33 62.5z" />
<glyph unicode="&#xd7;" horiz-adv-x="931" d="M299 315q-4 -4 32 12.5t93 44t129 60.5t139 62q8 -31 38 -56.5t63.5 -42t66.5 -25t47 -5.5q4 0 4 4l2 4l-41 180q85 41 97 57q55 70 95 113t48 86q0 2 -4 2h-8l-334 -133l-277 190q-6 0 -1.5 -23.5t16.5 -60t30.5 -84t36.5 -96.5z" />
<glyph unicode="&#xd8;" d="M121 307q-8 -23 15.5 -54.5t66.5 -65t99 -68.5t113.5 -61.5t110 -43t86.5 -16.5q10 0 22 1l13 1q10 2 47 20.5t79 41t78 42t46 23.5q127 47 212 75.5t143.5 52.5t96 50.5t68.5 72.5t61.5 119.5t75.5 188.5l17 47q14 35 26.5 72t26.5 72l21 49q2 55 -7.5 115.5t-34 114.5 t-66.5 96t-107 59q-12 -8 -53.5 -23.5t-87.5 -31t-86 -27.5t-48 -15q-33 -10 -94.5 -21t-135 -23.5t-151.5 -24.5t-142.5 -23.5t-106.5 -20.5t-44 -16l-268 -702q-35 0 -54.5 -15.5t-29.5 -37.5zM807 416l41 108l104 64l-53 -174q-12 0 -29.5 -3t-33 -5.5t-24.5 -1t-5 11.5z M930 735l98 256q18 -14 31.5 -45t11.5 -51l-10 -59z" />
<glyph unicode="&#xd9;" horiz-adv-x="1626" d="M166 319q0 -47 37 -96t84 -94t93 -79t62 -50h21q51 0 105.5 25.5t110.5 55.5t112.5 55.5t111.5 25.5q53 0 83 -25.5t54.5 -55.5t55 -55.5t86.5 -25.5q41 0 116.5 26.5t152.5 66.5t139.5 83t74.5 78q14 39 -7.5 49t-52 12t-55 6.5t-14.5 30.5l221 574q59 35 89 60.5 t46 68.5l9 22q-2 8 -3.5 11.5t-8.5 9.5t-21.5 20.5l-44.5 44.5q-25 20 -53.5 47t-56 52.5t-49.5 47t-30 31.5q-98 -74 -208.5 -129t-233.5 -94l-6 -16l-8 -17q0 -8 3 -25.5t8 -38t10 -37.5t11 -26l-221 -575q-4 -10 -27.5 -21.5t-50 -20.5t-47.5 -15l-20 -7q6 18 20.5 51 t30.5 74q16 43 36.5 93.5t41.5 101.5q41 104 70.5 193.5t46.5 125.5q16 43 23 109t-4 127t-47 105t-104 44q-10 0 -22 -1t-21 -1q-18 -10 -67 -37.5t-104.5 -58.5t-106.5 -58.5t-72 -35.5q-39 -23 -67.5 -36t-48 -25.5t-34 -26.5t-22.5 -39q-12 -35 -3 -47t31.5 -13t53.5 3 t62 4l-213 -555q0 -2 -20.5 -13.5t-33.5 -19.5q-6 0 -18 -4t-26.5 -9t-28 -10.5t-19.5 -7.5l-3 -5t-3 -7q-4 -8 -5 -14zM1167 1753q-4 -2 5.5 -26.5t29 -60.5t44 -76t49 -71.5t46 -50t35.5 -10.5q39 20 72 34.5t58.5 29t47 32t39.5 41.5q4 0 4 7v6l-63 305z" />
<glyph unicode="&#xda;" horiz-adv-x="1626" d="M166 319q0 -47 37 -95t85 -92t93 -79t61 -53h21q51 0 105.5 25.5t110.5 55.5t112.5 55.5t111.5 25.5q53 0 83 -25.5t54.5 -55.5t55 -55.5t86.5 -25.5q41 0 116.5 26.5t152.5 66.5t139.5 83t74.5 78q14 39 -7.5 49t-52 12t-55 6.5t-14.5 30.5l221 574q59 35 89 60.5 t46 68.5l9 22q0 8 -1.5 11.5t-8.5 9.5t-23.5 20.5t-44.5 44.5q-25 20 -54.5 47t-56 53.5t-48.5 47t-30 30.5q-199 -145 -442 -223l-6 -16l-8 -17q0 -6 3 -24.5t8 -37.5t10 -37.5t11 -27.5l-221 -575q-4 -10 -26.5 -20.5t-48 -20.5t-47 -16.5t-23.5 -6.5q6 18 20.5 51 t30.5 74q16 43 36.5 93.5t41.5 101.5q41 104 70.5 193.5t46.5 125.5q16 43 23 109t-4 127t-47 105t-104 44q-10 0 -22 -1t-21 -1q-20 -10 -69 -37.5t-104.5 -58.5t-105.5 -57.5t-71 -36.5q-39 -23 -67.5 -36t-48 -25.5t-34 -26.5t-22.5 -39q-12 -35 -3 -47t31.5 -13t53.5 3 t62 4l-213 -555q0 -2 -20.5 -13.5t-33.5 -19.5q-6 0 -18 -4t-26.5 -9t-28 -10.5t-19.5 -7.5l-3 -5t-3 -7q-4 -8 -5 -14zM1206 1608q-6 -6 2 -6q-2 -25 6.5 -41.5t23.5 -30.5t35.5 -29.5t43.5 -36.5q6 -8 42 10.5t85 50t103.5 71.5t101.5 76t76.5 60.5t27.5 26.5l-244 160 l-297 -305z" />
<glyph unicode="&#xdb;" horiz-adv-x="1626" d="M166 319q0 -47 37 -95t85 -92t93 -79t61 -53h21q51 0 105.5 25.5t110.5 55.5t112.5 55.5t111.5 25.5q53 0 83 -25.5t54.5 -55.5t55 -55.5t86.5 -25.5q41 0 116.5 26.5t152.5 66.5t139.5 83t74.5 78q14 39 -7.5 49t-52 12t-55 6.5t-14.5 30.5l221 574q59 35 89 60.5 t46 68.5l9 22q0 8 -1.5 11.5t-8.5 9.5t-23.5 20.5t-44.5 44.5q-25 20 -54.5 47t-56 53.5t-48.5 47t-30 30.5q-199 -145 -442 -223l-6 -16l-8 -17q0 -6 3 -24.5t8 -37.5t10 -37.5t11 -27.5l-221 -575q-4 -10 -26.5 -20.5t-48 -20.5t-47 -16.5t-23.5 -6.5q6 18 20.5 51 t30.5 74q16 43 36.5 93.5t41.5 101.5q41 104 70.5 193.5t46.5 125.5q16 43 23 109t-4 127t-47 105t-104 44q-10 0 -22 -1t-21 -1q-20 -10 -69 -37.5t-104.5 -58.5t-105.5 -57.5t-71 -36.5q-39 -23 -67.5 -36t-48 -25.5t-34 -26.5t-22.5 -39q-12 -35 -3 -47t31.5 -13t53.5 3 t62 4l-213 -555q0 -2 -20.5 -13.5t-33.5 -19.5q-6 0 -18 -4t-26.5 -9t-28 -10.5t-19.5 -7.5l-3 -5t-3 -7q-4 -8 -5 -14zM700 1583q-6 -4 13.5 -21.5t55.5 -40t80 -48t86 -44t75.5 -27.5t48.5 -1q31 18 86 54t114.5 75t109.5 71.5t73 45.5l149 -258l455 204q6 4 -31 23.5 t-97 46.5t-135 56.5t-143.5 53t-120 37t-65.5 9.5z" />
<glyph unicode="&#xdc;" horiz-adv-x="1626" d="M166 319l1 7q1 6 5 14q0 2 3 7l3 5q6 2 19.5 7.5t28 10.5t26.5 9t18 4q12 8 33 19.5t21 13.5l213 555q-31 0 -62 -4t-53.5 -3t-31.5 13t3 47q8 25 22.5 39t34 26.5t48 25.5t67.5 36q20 8 71.5 35.5t107 58.5t104.5 58.5t67 37.5q8 0 20.5 1t22.5 1q68 0 104 -44t47 -105 t4 -127t-23 -109q-16 -37 -46 -126t-71 -193q-20 -51 -41 -101.5t-37 -93.5q-16 -41 -30.5 -73.5t-20.5 -51.5l20 7q21 6 47.5 15t50 20.5t27.5 21.5l221 575q-6 8 -11 25.5t-10 38t-8 38t-3 25.5l8 17l6 16q123 39 233.5 94.5t208.5 128.5q14 -12 47 -43.5t71 -66.5t72 -68 t48 -45q20 -18 26.5 -24.5t2.5 -16.5l-9 -22q-16 -43 -45.5 -68.5t-89.5 -60.5l-221 -574q-10 -27 14.5 -31t55 -6t52 -12t7.5 -49q-12 -35 -74.5 -78t-139.5 -83t-152.5 -66.5t-116.5 -26.5q-55 0 -86 25.5t-55.5 55.5t-54.5 55.5t-83 25.5q-55 0 -111.5 -25.5 t-112.5 -55.5t-110.5 -55.5t-105.5 -25.5h-21q-16 16 -62 50t-93 79t-84 94t-37 96zM818 1587q-9 35 5 70q12 31 37 58.5t57.5 50t69.5 43t72 38.5q141 -16 187 -67t5 -156q-12 -33 -39.5 -62.5t-62.5 -51t-77 -35t-81 -13.5q-43 0 -78.5 17.5t-60.5 45t-34 62.5zM1569 1589 q-8 35 4 70q12 31 37.5 58.5t58.5 51t69.5 44t71.5 38.5q141 -16 188.5 -68t6.5 -157q-12 -33 -40 -62.5t-64.5 -51t-77.5 -35t-82 -13.5q-43 0 -80 17.5t-60.5 45t-31.5 62.5z" />
<glyph unicode="&#xdd;" horiz-adv-x="1062" d="M152 216q12 -42 39.5 -76t64.5 -56.5t74 -22.5q2 0 9 1l7 1q14 8 55 29t89.5 43.5t92.5 44t62 31.5q-4 -8 -10 -26.5t-14.5 -39t-13.5 -39t-7 -22.5q-29 -76 -60.5 -125t-76.5 -89t-106.5 -80t-151.5 -95q-4 -18 10 -26.5t34.5 -11.5t41 -2t26.5 1q43 0 110 19.5 t140.5 53t149.5 79t141.5 94.5t113.5 99t66 97l340 883q-2 23 -5 54.5t-25 47.5l-86 119l-6 1q-7 1 -11 1q-8 0 -15 -1l-7 -1l-242 -112l-94 -35l-131 182l2 8q2 8 2 10q4 12 23.5 23.5t43 22t49 20.5t42.5 22q-6 51 -26 64.5t-67 13.5q-78 0 -139 -23.5t-110.5 -64.5 t-85 -95t-60.5 -118q-25 -61 -32 -116.5t-11 -109.5t-11 -111.5t-32 -120.5q-20 -51 -45 -96.5t-50.5 -89.5t-50 -87t-42.5 -92q-16 -39 -4 -81zM670 385l186 485l55 37q20 -70 -12 -147l-55 -146l-15 -39q-10 -29 -23 -54t-24 -54l-14 -37q-43 -45 -98 -45zM953 1608 q-5 -6 1 -6q-2 -25 7.5 -41.5t24.5 -30.5t35.5 -29.5t43.5 -36.5q6 -8 42 11.5t86 51.5t105.5 71.5t102.5 74.5t75.5 59.5t26.5 26.5l-243 160l-302 -305z" />
<glyph unicode="&#xde;" horiz-adv-x="1105" d="M150.5 355.5q-5.5 21.5 5.5 50.5l14 38q23 59 69 107.5t96 94.5t95 96.5t70 113.5q23 57 25.5 102.5t0.5 86t0 83.5t25 99q43 111 124 173t212 62q14 0 32.5 1t34 -1t26.5 -10t11 -27l-104 -71q33 -14 46 -60.5t18 -101.5t6 -109.5t8 -85.5q2 0 48 22.5t104.5 49.5 t115.5 49.5t84 22.5t48 -29t33.5 -65.5t16.5 -70.5t0 -46l-227 -596q-6 -12 -52 -36t-114 -52.5t-145.5 -58t-146 -57.5t-116 -48.5t-53.5 -28.5q-10 -12 -25.5 -31.5t-32 -40t-30.5 -39t-20 -26.5q-25 -33 -37.5 -53.5t-22.5 -32.5t-22.5 -17.5t-34.5 -5.5q-43 0 -61.5 34 t-19.5 87.5t10 119t26.5 128t32 115.5t24.5 82q-6 0 -18.5 2t-18.5 2q-37 0 -62.5 -21.5t-55.5 -21.5q-37 0 -42.5 21.5zM776 506l51 -68l148 385l-27 35l-51 -35z" />
<glyph unicode="&#xdf;" horiz-adv-x="1427" d="M72 -133q0 59 32 143l320 834q-6 0 -16.5 5t-21.5 12t-20.5 15.5t-9.5 14.5q0 2 3 17.5t7.5 35t6.5 27.5q6 14 24.5 34.5t64.5 57.5t129 99.5t216 162.5q23 2 41 2h43h90q45 0 83 3t66 13q2 0 7.5 -1t9.5 -1q29 -10 90 -34.5t129 -51t128 -50t91 -31.5q20 -10 49 -25.5 t51.5 -36t35 -45.5t1.5 -53l-196 -662q-14 -35 -54 -74.5t-96.5 -78.5t-122 -76t-130 -64.5t-120 -44t-92.5 -16.5h-22q-14 0 -17 2q-23 23 -48 45.5t-42.5 44t-19.5 38.5t24 30q59 27 122 72.5t104 93t52 87.5t-32 56l-233 84q59 53 108 101t109 102l104 -49l94 245 q-49 4 -66.5 7.5t-35.5 0t-52 -14.5t-114 -38q-37 -35 -86 -98.5t-84 -155.5q-8 -20 -21.5 -60t-28.5 -90t-32.5 -105.5t-33 -105.5t-26.5 -89t-16 -58q29 6 40.5 4t11.5 -14q0 -10 -9.5 -28.5t-19.5 -47.5q-12 -29 -44 -67.5t-76 -79.5t-93 -82t-96 -72.5t-85 -51 t-57 -19.5q-27 0 -55.5 19.5t-45.5 60t-17 102.5z" />
<glyph unicode="&#xe0;" horiz-adv-x="1294" d="M145 293q0 -51 16.5 -98.5t55.5 -92.5q18 -20 38.5 -37.5t57.5 -17.5q39 0 96.5 34t115 76t107.5 75.5t79 33.5q14 0 28.5 -33.5t36 -75.5t52 -76t79.5 -34h31q20 14 69.5 43t103.5 59.5t102.5 59.5t70.5 45q20 10 32.5 14t19.5 9.5t11.5 11.5t10.5 20q2 8 0 20.5t-6 25 t-10.5 20.5t-12.5 8q-20 0 -33.5 -8t-35.5 -8q-18 0 -22.5 17t-2.5 39.5t8 42t8 26.5l6 16l35 90l13 33l32 82q25 66 44.5 116t60.5 117q18 12 39.5 20.5t42 15.5t37 18.5t24.5 33.5q12 35 -7 56.5t-52 37t-69 27.5t-54 27q-33 18 -54.5 43.5t-41 49t-44 40t-63.5 16.5 q-47 0 -82 -17.5t-86 -37.5q-92 -35 -192.5 -64.5t-194.5 -68.5t-173 -96.5t-124 -145.5l-16 -41q-14 -37 -26.5 -67.5t-26.5 -67.5l-17 -41l-63 -166q-25 -61 -39.5 -117.5t-14.5 -107.5zM649 377q16 59 32.5 111.5t37.5 101.5l82 217l16 39l37 96l6 16l33 58h6h10 q8 -4 15.5 -21.5t17.5 -27.5q6 -8 12 -15l7 -6l-197 -512q-2 -6 -13.5 -17t-25.5 -21.5t-28.5 -20.5t-22.5 -15h-8h-7q-16 7 -10 17zM1010 1765q-6 -2 3 -26.5t28.5 -60.5t45 -75.5t51 -71.5t48 -50.5t35.5 -10.5q39 20 70.5 35t57 29t47 31.5t38.5 42.5q8 0 7 6l-1 6 l-66 305z" />
<glyph unicode="&#xe1;" horiz-adv-x="1294" d="M145 293q0 -51 16.5 -98.5t55.5 -92.5q18 -20 38.5 -37.5t57.5 -17.5q39 0 96.5 34t115 76t107.5 75.5t79 33.5q14 0 28.5 -33.5t36 -75.5t52 -76t79.5 -34h31q20 14 69.5 43t103.5 59.5t102.5 59.5t70.5 45q20 10 32.5 14t19.5 9.5t11.5 11.5t10.5 20q2 8 0 20.5t-6 25 t-10.5 20.5t-12.5 8q-20 0 -33.5 -8t-35.5 -8q-18 0 -22.5 17t-2.5 39.5t8 42t8 26.5l6 16l35 90l13 33l32 82q25 66 44.5 116t60.5 117q18 12 39.5 20.5t42 15.5t37 18.5t24.5 33.5q12 35 -7 56.5t-52 37t-69 27.5t-54 27q-33 18 -54.5 43.5t-41 49t-44 40t-63.5 16.5 q-47 0 -82 -17.5t-86 -37.5q-92 -35 -192.5 -64.5t-194.5 -68.5t-173 -96.5t-124 -145.5l-16 -41q-14 -37 -26.5 -67.5t-26.5 -67.5l-17 -41l-63 -166q-25 -61 -39.5 -117.5t-14.5 -107.5zM649 377q16 59 32.5 111.5t37.5 101.5l82 217l16 39l37 96l6 16l33 58h6h10 q8 -4 15.5 -21.5t17.5 -27.5q6 -8 12 -15l7 -6l-197 -512q-2 -6 -13.5 -17t-25.5 -21.5t-28.5 -20.5t-22.5 -15h-8h-7q-16 7 -10 17zM1034 1608q-2 -25 7.5 -42.5t24.5 -31.5t36.5 -28.5t44.5 -35.5q6 -8 41 10.5t84 50.5t104.5 71.5t101.5 74.5t75.5 60.5t27.5 27.5 l-244 160l-297 -305l-6 -6t0 -6z" />
<glyph unicode="&#xe2;" horiz-adv-x="1294" d="M145 293q0 -51 16.5 -98.5t55.5 -92.5q18 -20 38.5 -37.5t57.5 -17.5q39 0 96.5 34t115 76t107.5 75.5t79 33.5q14 0 28.5 -33.5t36 -75.5t52 -76t79.5 -34h31q20 14 69.5 43t103.5 59.5t102.5 59.5t70.5 45q20 10 32.5 14t19.5 9.5t11.5 11.5t10.5 20q2 8 0 20.5t-6 25 t-10.5 20.5t-12.5 8q-20 0 -33.5 -8t-35.5 -8q-18 0 -22.5 17t-2.5 39.5t8 42t8 26.5l6 16l35 90l13 33l32 82q25 66 44.5 116t60.5 117q18 12 39.5 20.5t42 15.5t37 18.5t24.5 33.5q12 35 -7 56.5t-52 37t-69 27.5t-54 27q-33 18 -54.5 43.5t-41 49t-44 40t-63.5 16.5 q-47 0 -82 -17.5t-86 -37.5q-92 -35 -192.5 -64.5t-194.5 -68.5t-173 -96.5t-124 -145.5l-16 -41q-14 -37 -26.5 -67.5t-26.5 -67.5l-17 -41l-63 -166q-25 -61 -39.5 -117.5t-14.5 -107.5zM569 1563q-6 -4 12.5 -21.5t51.5 -40t75 -47t80.5 -44t70.5 -29t44 -1.5 q31 18 85 54t111.5 75t106.5 72t66 45l141 -258l434 205q6 4 -28.5 23.5t-92 46t-128 56.5t-135 53.5t-114 36.5t-61.5 9zM649 377q16 59 32.5 111.5t37.5 101.5l82 217l16 39l37 96l6 16l33 58h6h10q8 -4 15.5 -21.5t17.5 -27.5q6 -8 12 -15l7 -6l-197 -512 q-2 -6 -13.5 -17t-25.5 -21.5t-28.5 -20.5t-22.5 -15h-8h-7q-16 7 -10 17z" />
<glyph unicode="&#xe3;" horiz-adv-x="1294" d="M145 293q0 -51 16.5 -98.5t55.5 -92.5q18 -20 38.5 -37.5t57.5 -17.5q39 0 96.5 34t115 76t107.5 75.5t79 33.5q14 0 28.5 -33.5t36 -75.5t52 -76t79.5 -34h31q20 14 69.5 43t103.5 59.5t102.5 59.5t70.5 45q20 10 32.5 14t19.5 9.5t11.5 11.5t10.5 20q2 8 0 20.5t-6 25 t-10.5 20.5t-12.5 8q-20 0 -33.5 -8t-35.5 -8q-18 0 -22.5 17t-2.5 39.5t8 42t8 26.5l6 16l35 90l13 33l32 82q25 66 44.5 116t60.5 117q18 12 39.5 20.5t42 15.5t37 18.5t24.5 33.5q12 35 -7 56.5t-52 37t-69 27.5t-54 27q-33 18 -54.5 43.5t-41 49t-44 40t-63.5 16.5 q-47 0 -82 -17.5t-86 -37.5q-92 -35 -192.5 -64.5t-194.5 -68.5t-173 -96.5t-124 -145.5l-16 -41q-14 -37 -26.5 -67.5t-26.5 -67.5l-17 -41l-63 -166q-25 -61 -39.5 -117.5t-14.5 -107.5zM567 1612q-6 -4 26 -21.5t84 -41t117.5 -49t124 -45t103.5 -29t59 -1.5 q61 35 124 66t100 55l155 -129l453 205q6 4 -26 21.5t-84 41t-117.5 49t-124 45t-104.5 29t-58 0.5q-68 -37 -119 -77.5t-92 -69.5l-170 156zM649 377q16 59 32.5 111.5t37.5 101.5l82 217l16 39l37 96l6 16l33 58h6h10q8 -4 15.5 -21.5t17.5 -27.5q6 -8 12 -15l7 -6 l-197 -512q-2 -6 -13.5 -17t-25.5 -21.5t-28.5 -20.5t-22.5 -15h-8h-7q-16 7 -10 17z" />
<glyph unicode="&#xe4;" horiz-adv-x="1294" d="M145 293q0 51 14.5 107.5t39.5 117.5l63 166l17 41q14 37 26 67.5t27 67.5l16 41q45 88 124 145.5t173 96.5t194.5 68.5t192.5 64.5q51 20 86 37.5t82 17.5q39 0 63.5 -16.5t44 -40t41 -49t54.5 -43.5q18 -14 54 -26.5t69 -28t52 -37t7 -56.5q-8 -23 -24.5 -34t-37 -18 t-42 -15.5t-39.5 -20.5q-41 -68 -60.5 -118t-44.5 -115l-32 -82l-13 -33l-35 -90l-6 -16q-2 -6 -8 -26t-8 -42.5t2 -39.5t23 -17q23 0 36 8t33 8q6 0 12.5 -8t10.5 -20.5t6 -25t0 -20.5q-6 -14 -10.5 -20t-11.5 -11.5t-19 -9.5t-33 -14q-23 -16 -71 -45t-102 -59.5 t-103.5 -59.5t-69.5 -43h-31q-49 0 -79.5 34t-52 76t-36 75.5t-28.5 33.5q-29 0 -79 -33.5t-107.5 -75.5t-115 -76t-96.5 -34q-37 0 -57 17.5t-39 37.5q-39 45 -55.5 92.5t-16.5 98.5zM649 377q-6 -10 10 -17h7h8q8 4 22.5 14.5t28.5 21t25.5 21.5t13.5 17l197 512l-7 6 q-6 6 -12 15q-10 10 -17 27.5t-16 21.5h-10h-6l-33 -58l-6 -16l-37 -96l-16 -39l-82 -217q-20 -49 -37 -101.5t-33 -111.5zM651 1585q-8 35 4 70q12 31 38 58.5t58.5 50t69.5 43t72 38.5q141 -16 187 -67.5t5 -155.5q-12 -33 -39.5 -62.5t-62.5 -51t-77 -35t-81 -13.5 q-43 0 -79.5 17.5t-61.5 45t-33 62.5zM1402 1587q-9 35 5 70q12 31 36.5 58.5t57.5 50t69.5 43t71.5 38.5q141 -16 187.5 -67t5.5 -156q-12 -33 -40 -62.5t-62.5 -51t-76.5 -35t-81 -13.5q-43 0 -79 17.5t-60.5 45t-33.5 62.5z" />
<glyph unicode="&#xe5;" horiz-adv-x="1294" d="M145 293q0 51 14.5 107.5t39.5 117.5l63 166l17 41q14 37 26 67.5t27 67.5l16 41q45 88 124 145.5t173 96.5t194.5 68.5t192.5 64.5q51 20 86 37.5t82 17.5q39 0 63.5 -16.5t44 -40t41 -49t54.5 -43.5q18 -14 54 -26.5t69 -28t52 -37t7 -56.5q-8 -23 -24.5 -34t-37 -18 t-42 -15.5t-39.5 -20.5q-41 -68 -60.5 -118t-44.5 -115l-32 -82l-13 -33l-35 -90l-6 -16q-2 -6 -8 -26t-8 -42.5t2 -39.5t23 -17q23 0 36 8t33 8q6 0 12.5 -8t10.5 -20.5t6 -25t0 -20.5q-6 -14 -10.5 -20t-11.5 -11.5t-19 -9.5t-33 -14q-23 -16 -71 -45t-102 -59.5 t-103.5 -59.5t-69.5 -43h-31q-49 0 -79.5 34t-52 76t-36 75.5t-28.5 33.5q-29 0 -79 -33.5t-107.5 -75.5t-115 -76t-96.5 -34q-37 0 -57 17.5t-39 37.5q-39 45 -55.5 92.5t-16.5 98.5zM649 377q-6 -10 10 -17h7h8q8 4 22.5 14.5t28.5 21t25.5 21.5t13.5 17l197 512l-7 6 q-6 6 -12 15q-10 10 -17 27.5t-16 21.5h-10h-6l-33 -58l-6 -16l-37 -96l-16 -39l-82 -217q-20 -49 -37 -101.5t-33 -111.5zM893 1516l4 8q6 20 43 20l98 254q0 2 45 8t102.5 13.5t112 14.5t76.5 11q4 0 23.5 4t42 9.5t43 10.5t26.5 9q35 -6 59.5 -20.5t39 -34t21.5 -42 t9 -40.5l-6 -19q-4 -12 -9 -25.5t-9 -25.5l-8 -20q-23 -61 -39.5 -91t-44 -45.5t-76.5 -26.5t-139 -36q-8 -2 -26.5 -10t-39 -16.5t-37 -14.5t-20.5 -6l-6 -1q-7 -1 -13 -1q-29 0 -76 13.5t-92 31.5t-76.5 38t-27.5 30zM1243 1556q-4 -8 8.5 -12t26.5 -4l72 191q4 4 -5.5 15 t-23.5 15z" />
<glyph unicode="&#xe6;" horiz-adv-x="2015" d="M145 293q0 -51 16.5 -98.5t55.5 -92.5q18 -20 38.5 -37.5t57.5 -17.5q39 0 96.5 34t115 76t107.5 75.5t79 33.5q14 0 28.5 -33.5t36 -75.5t52 -76t79.5 -34h31q20 12 61 38t93 54q59 -59 130.5 -99t147.5 -40q29 0 93.5 22.5t144.5 57.5t166 78t158.5 84t121.5 74.5 t55 52.5q10 29 -6 40t-53 11t-67.5 -6t-60.5 -12.5t-60.5 -12.5t-67.5 -6t-82 10t-82 28.5t-56.5 45.5t-6.5 61q18 47 72.5 79t127 57.5t154.5 48t154.5 50.5t129 64.5t76.5 90.5q4 10 8.5 25t4.5 18l-144 352q-4 2 -29.5 13t-37.5 17h-21q-37 0 -107.5 -15t-156.5 -40.5 t-178 -59.5t-172 -71q-14 6 -25.5 11.5t-19.5 13.5q-33 18 -54.5 43.5t-41 49t-44 40t-63.5 16.5q-47 0 -82 -17.5t-86 -37.5q-92 -35 -192.5 -64.5t-194.5 -68.5t-173 -96.5t-124 -145.5l-16 -41q-14 -37 -26.5 -67.5t-26.5 -67.5l-80 -207q-25 -61 -39.5 -117.5 t-14.5 -107.5zM649 377q16 59 32.5 111.5t37.5 101.5l141 368l33 58h16q8 -4 15.5 -21.5t17.5 -27.5q6 -8 12 -15l7 -6l-197 -512q-2 -6 -13.5 -17t-25.5 -21.5t-28.5 -20.5t-22.5 -15h-15q-16 7 -10 17zM1608 737l86 224q2 -4 7 -18.5t12 -30t14.5 -30t11.5 -18.5 q4 -12 9 -36.5t5 -26.5q-4 -10 -27.5 -21.5t-50 -20.5t-47.5 -15z" />
<glyph unicode="&#xe7;" horiz-adv-x="1140" d="M135 352q-16 -41 1.5 -90t55 -96t90 -86t105.5 -60q20 -43 59 -89t80 -83q-31 -12 -68.5 -18t-72.5 -15.5t-66.5 -24.5t-50.5 -46q-4 -66 51.5 -100.5t153.5 -38.5l121 22q37 25 61.5 43.5t42 37t29.5 39t25 48.5q35 92 -9.5 152.5t-132.5 91.5q55 25 129 57.5t144.5 63 t129 57.5t83.5 39q31 14 51 23.5t32.5 18.5t19.5 21.5t15 32.5q10 23 4 43.5t-42 20.5q-55 0 -112.5 -17.5t-119.5 -17.5q-31 0 -75 8t-82.5 24.5t-60 41t-9.5 57.5l172 446q6 -16 10 -47.5t14.5 -64.5t33 -57.5t65.5 -24.5q18 0 55 6t81 18.5t92 29t90 35.5t73 42t39 47 q2 4 3 10l1 6q-4 10 -13.5 46t-18.5 78t-17 80t-11 52q-6 2 -12 22.5t-15 44.5t-24.5 43t-40.5 19q-6 0 -11 -1t-11 -1q-25 -6 -73 -19t-109.5 -28.5t-128 -33t-127 -33t-109.5 -27.5t-74 -18q-31 -10 -71.5 -25.5t-78.5 -36t-68 -45t-40 -53.5z" />
<glyph unicode="&#xe8;" horiz-adv-x="1181" d="M158.5 280q23.5 -73 78 -135.5t130 -104.5t155.5 -42q29 0 92.5 22.5t143.5 57.5t166 78t158.5 84t121.5 74.5t58 52.5q10 29 -7.5 40t-52.5 11q-37 0 -68.5 -6t-61.5 -12.5t-60.5 -12.5t-67.5 -6q-35 0 -80 10t-82 28.5t-56 45.5t-7 61q16 45 70.5 78t127 58.5t154.5 48 t154.5 50t128 63.5t76.5 89q4 10 9 26.5t7 18.5l-143 353q-2 2 -29 12t-41 18h-23q-37 0 -108.5 -15t-158.5 -42t-180 -61.5t-173 -73.5t-137.5 -80t-71.5 -78l-221 -575q-25 -63 -1.5 -136zM762 735l86 223q0 -4 5 -18t11 -29.5t13.5 -30t11.5 -18.5q6 -12 11 -36.5 t5 -26.5q-4 -10 -27.5 -21.5t-49 -20.5t-47 -15.5t-19.5 -6.5zM936 1769q-6 -2 4 -26.5t28.5 -59t44 -74.5t51.5 -72t46 -50.5t33 -11.5q78 41 129 65.5t86 71.5q8 0 6 6l-2 6l-64 305z" />
<glyph unicode="&#xe9;" horiz-adv-x="1181" d="M158.5 280q23.5 -73 78 -135.5t130 -104.5t155.5 -42q29 0 92.5 22.5t143.5 57.5t166 78t158.5 84t121.5 74.5t58 52.5q10 29 -7.5 40t-52.5 11q-37 0 -68.5 -6t-61.5 -12.5t-60.5 -12.5t-67.5 -6q-35 0 -80 10t-82 28.5t-56 45.5t-7 61q16 45 70.5 78t127 58.5t154.5 48 t154.5 50t128 63.5t76.5 89q4 10 9 26.5t7 18.5l-143 353q-2 2 -29 12t-41 18h-23q-37 0 -108.5 -15t-158.5 -42t-180 -61.5t-173 -73.5t-137.5 -80t-71.5 -78l-221 -575q-25 -63 -1.5 -136zM762 735l86 223q0 -4 5 -18t12 -30.5t13.5 -30t10.5 -17.5q6 -12 11 -36.5 t5 -26.5q-4 -10 -26.5 -20.5t-48 -20.5t-46.5 -16zM973 1608q-2 -25 7 -42.5t24.5 -31.5t37 -28.5t43.5 -35.5q4 -8 39 9.5t84 49.5t105.5 71.5t102.5 75.5t76 61.5t28 27.5l-244 160l-297 -305l-6 -6t0 -6z" />
<glyph unicode="&#xea;" horiz-adv-x="1181" d="M158.5 280q23.5 -73 78 -135.5t130 -104.5t155.5 -42q29 0 92.5 22.5t143.5 57.5t166 78t158.5 84t121.5 74.5t58 52.5q10 29 -7.5 40t-52.5 11q-37 0 -68.5 -6t-61.5 -12.5t-60.5 -12.5t-67.5 -6q-35 0 -80 10t-82 28.5t-56 45.5t-7 61q16 45 70.5 78t127 58.5t154.5 48 t154.5 50t128 63.5t76.5 89q4 10 9 26.5t7 18.5l-143 353q-2 2 -29 12t-41 18h-23q-37 0 -108.5 -15t-158.5 -42t-180 -61.5t-173 -73.5t-137.5 -80t-71.5 -78l-221 -575q-25 -63 -1.5 -136zM469 1589q-6 -4 14.5 -21.5t55 -40t80 -47t87.5 -43t74.5 -27.5t46.5 -1 q29 16 85.5 52t114.5 75t109.5 72.5t71.5 46.5l156 -258l451 202q8 4 -29 25t-97.5 47.5t-136 55t-144.5 52t-120 38t-65 10.5zM762 735l86 223q0 -4 5 -18t12 -30.5t13.5 -30t10.5 -17.5q6 -12 11 -36.5t5 -26.5q-4 -10 -26.5 -20.5t-48 -20.5t-46.5 -16z" />
<glyph unicode="&#xeb;" horiz-adv-x="1181" d="M158.5 279.5q-23.5 72.5 1.5 136.5l221 575q14 37 71.5 78t137.5 80t173 73.5t180 61.5t159 42t108 15h23q14 -8 40.5 -18t29.5 -12l143 -353q-2 -2 -7 -18t-9 -27q-20 -53 -76 -89t-128.5 -63.5t-154.5 -50t-153.5 -48t-126 -57.5t-72.5 -79q-12 -35 7 -61.5t56 -45 t82 -28.5t80 -10q37 0 67.5 6t60.5 12.5t61.5 12.5t68.5 6q35 0 52.5 -11.5t7.5 -39.5q-6 -18 -56.5 -52t-123 -75t-158.5 -84t-166 -78t-143.5 -57.5t-92.5 -22.5q-80 0 -155.5 42t-130 104.5t-78 135zM633 1589q-8 35 4 70q12 31 37.5 58.5t58.5 51t69.5 44t71.5 38.5 q141 -16 187.5 -68t5.5 -157q-12 -33 -40 -62.5t-63.5 -51t-77.5 -35t-81 -13.5q-43 0 -80 17.5t-60.5 45t-31.5 62.5zM762 735q-2 0 19.5 6.5t47 15.5t49 20t27.5 22q0 2 -5 26.5t-11 36.5q-4 4 -11.5 18.5t-13.5 30t-11 29.5t-5 18zM1313 1589q-8 35 4 70q12 31 37.5 58.5 t58.5 51t69.5 44t71.5 38.5q143 -16 189.5 -68t5.5 -157q-12 -33 -40 -62.5t-64.5 -51t-77.5 -35t-82 -13.5q-43 0 -79 17.5t-60.5 45t-32.5 62.5z" />
<glyph unicode="&#xec;" horiz-adv-x="829" d="M229 223l222 576q-6 0 -20.5 4t-28 9t-25.5 10t-15 9q-12 10 -20 33t4 31l365 223q8 2 30.5 18.5t59.5 16.5q23 0 39 -7t32 -28l193 -223l1 -6t-3 -12q-10 -29 -37 -47.5t-57.5 -38t-60 -46t-48.5 -73.5q-8 -18 -23.5 -69.5t-30.5 -108t-26.5 -106.5t-13.5 -69 q133 16 102 -63q-10 -29 -71.5 -73t-138 -85t-149.5 -70.5t-108 -29.5q-31 0 -64.5 26.5t-60 63.5t-41 75t-6.5 60zM715 1618l366 160l66 -305v-7q0 -6 -4 -6q-18 -25 -40 -42t-48.5 -31.5t-58 -29t-70.5 -34.5q-14 -8 -36 10.5t-46.5 50t-49 71.5t-44 76t-29.5 60.5 t-6 26.5z" />
<glyph unicode="&#xed;" horiz-adv-x="829" d="M229 223q-8 -23 6.5 -60.5t41 -74.5t60.5 -63.5t64 -26.5q35 0 108 29.5t149.5 70.5t138 85t71.5 73q31 80 -102 63q2 18 13.5 68.5t26.5 107t30.5 107.5t23.5 70q18 47 48 73.5t60.5 46t57.5 38t37 47.5q4 6 3 12l-1 6l-193 223q-16 20 -32.5 27.5t-38.5 7.5 q-37 0 -59.5 -16.5t-30.5 -18.5l-365 -223q-12 -8 -4 -30.5t20 -33.5q2 -4 14.5 -9t26 -10t28 -9t20.5 -4zM687 1472q-5 -6 1 -6q-2 -25 6 -41t23.5 -30.5t37 -29.5t44.5 -36q4 -8 39.5 10.5t85 50t106.5 71.5t104.5 76t77 60.5t23.5 26.5l-244 160l-299 -305z" />
<glyph unicode="&#xee;" horiz-adv-x="829" d="M229 223q-8 -23 6.5 -60.5t41 -74.5t60.5 -63.5t64 -26.5q35 0 108 29.5t149.5 70.5t138 85t71.5 73q31 80 -102 63q2 18 13.5 68.5t26.5 107t30.5 107.5t23.5 70q18 47 48 73.5t60.5 46t57.5 38t37 47.5q4 6 3 12l-1 6l-193 223q-16 20 -32.5 27.5t-38.5 7.5 q-37 0 -59.5 -16.5t-30.5 -18.5l-365 -223q-12 -8 -4 -30.5t20 -33.5q2 -4 14.5 -9t26 -10t28 -9t20.5 -4zM285 1438q-6 -6 33.5 -39t95 -68t108.5 -58.5t74 -10.5q27 16 79 51t106.5 71.5t100.5 69.5t62 45l129 -250l406 199q4 4 -29 23.5t-85 46t-115.5 56.5t-123 52.5 t-104.5 35.5t-59 7z" />
<glyph unicode="&#xef;" horiz-adv-x="829" d="M229 223l222 576q-6 0 -20.5 4t-28 9t-25.5 10t-15 9q-12 10 -20 33t4 31l365 223q8 2 30.5 18.5t59.5 16.5q23 0 39 -7t32 -28l193 -223l1 -6t-3 -12q-10 -29 -37 -47.5t-57.5 -38t-60 -46t-48.5 -73.5q-8 -20 -23.5 -70.5t-30.5 -107t-27.5 -106.5t-12.5 -69 q133 16 102 -63q-10 -29 -71.5 -73t-138 -85t-149.5 -70.5t-108 -29.5q-31 0 -64.5 26.5t-60 63.5t-41 75t-6.5 60zM424 1434.5q-8 33.5 4 68.5q12 31 38 58.5t58.5 51t69.5 44.5t72 39q143 -16 189 -67.5t5 -155.5q-12 -33 -39.5 -63t-63.5 -51.5t-77 -34.5t-82 -13 q-43 0 -80 17.5t-61.5 45t-32.5 61zM1037.5 1438q-9.5 35 4.5 69q12 31 37 58.5t57.5 50t69.5 43.5t72 39q141 -16 187 -67.5t5 -155.5q-12 -33 -39.5 -63t-62.5 -51.5t-77 -34.5t-81 -13q-43 0 -78.5 17.5t-60 45t-34 62.5z" />
<glyph unicode="&#xf0;" horiz-adv-x="1181" d="M186 379l144 -352q2 -2 28.5 -13.5t38.5 -17.5h21q37 0 108.5 15.5t159.5 42t181.5 61.5t174 73.5t138 79.5t71.5 78l222 576q16 45 6.5 96t-35.5 100q57 53 91 88t44 70q0 4 -8 4h-4l-205 -55q-53 51 -118.5 82.5t-133.5 31.5q-29 0 -93.5 -22.5t-144 -57t-165.5 -77.5 t-159 -84t-122 -76t-55 -51q-10 -29 6 -40t51 -11q37 0 68.5 6t61.5 12t60.5 12t67.5 6t67.5 -7t65.5 -19l-98 -90q-4 -2 7 1t34.5 9t56.5 15t72 22q41 -29 22.5 -76t-73 -79t-127 -57.5t-154.5 -48t-155.5 -50t-130 -64.5t-76.5 -90q-4 -10 -7.5 -25.5t-3.5 -17.5zM727 539 q4 8 26.5 19t48 21.5t46.5 16.5l22 6l-86 -223q-2 6 -7 19.5t-12 28.5t-13.5 28.5t-12.5 19.5q-4 12 -8 37t-4 27z" />
<glyph unicode="&#xf1;" horiz-adv-x="1626" d="M149 263.5q3 -13.5 12 -28t19 -25.5t17 -17l204 -193h41q2 0 48.5 21.5t107.5 52t128 63.5t110 56l51 30l6 15l6 18q2 8 -4 31.5t-10 31.5l245 639l52 33l49 -33l-295 -765q-10 -25 8.5 -60t49 -66.5t65.5 -53t57 -21.5q10 0 25.5 4t19.5 4l391 193q33 16 53.5 25 t35 18.5t22.5 20.5t14 30q8 20 3 36.5t-18 26.5t-32.5 18.5t-40.5 14.5l221 575q12 4 30 16.5t35 28t31.5 30t18.5 22.5q-2 2 -19.5 26.5t-33.5 36.5l-125 96q-6 2 -24.5 20.5t-37 42t-34 43t-17.5 21.5l-6 1t-8 1q-49 0 -115.5 -28.5t-137.5 -65.5t-138.5 -74.5 t-118.5 -56.5q-10 29 -26.5 68t-41 73.5t-60.5 58t-85 23.5h-20q-55 -18 -118 -48.5t-124.5 -66.5t-117.5 -73t-99 -68q0 -2 -4 -12t-8 -18q-14 -37 7 -47.5t51 -13.5t53.5 -7t14.5 -29l-221 -575q-8 -4 -31.5 -17.5t-50 -28.5t-48 -29.5t-27.5 -20.5q-8 -10 -5 -23.5z M688 1630q-8 -4 23.5 -22.5t84 -42t118 -48t125 -44t104.5 -29.5t57 -2q61 35 125 66.5t102 54.5l152 -127l453 202q8 4 -24 22.5t-85 42t-118.5 48.5t-125 44.5t-104.5 29.5t-57 2q-66 -37 -118 -78t-91 -70l-170 154z" />
<glyph unicode="&#xf2;" d="M121 307q-8 -23 15.5 -54.5t66.5 -65t99 -68.5t113.5 -61.5t110 -43t86.5 -16.5q10 0 22 1l13 1q8 2 45 20.5t79 41t79 42t47 23.5q127 47 212 75.5t143.5 52.5t96 50.5t68.5 72.5t61.5 119.5t75.5 188.5l17 47q14 35 26.5 72t26.5 72l21 49q2 55 -6.5 115.5t-33 114.5 t-67.5 96t-108 59q-12 -6 -52.5 -21.5t-86.5 -31t-85 -28.5t-51 -16q-33 -10 -94.5 -21t-135 -23.5t-151.5 -24.5t-142.5 -23.5t-106.5 -20.5t-44 -16l-268 -702q-35 0 -54.5 -15.5t-29.5 -37.5zM807 416l221 575q18 -14 34.5 -45t8.5 -51l-199 -518q-25 0 -49 9t-16 30z M940 1722q-6 -2 4 -26.5t29.5 -59t45 -74.5t51.5 -72t47.5 -51.5t33.5 -11.5q78 41 129 66t86 72q4 0 5 6l1 6l-65 305z" />
<glyph unicode="&#xf3;" d="M121 307q-8 -23 15.5 -54.5t66.5 -65t99 -68.5t113.5 -61.5t110 -43t86.5 -16.5q10 0 22 1l13 1q10 2 47 20.5t79 41t78 42t46 23.5q127 47 212 75.5t143.5 52.5t96 50.5t68.5 72.5t61.5 119.5t75.5 188.5l17 47q14 35 26.5 72t26.5 72l21 49q2 55 -7.5 115.5t-34 114.5 t-66.5 96t-107 59q-12 -8 -53.5 -23.5t-87.5 -31t-86 -27.5t-48 -15q-33 -10 -94.5 -21t-135 -23.5t-151.5 -24.5t-142.5 -23.5t-106.5 -20.5t-44 -16l-268 -702q-35 0 -54.5 -15.5t-29.5 -37.5zM807 416l221 575q18 -14 34.5 -45t8.5 -51l-199 -518q-25 0 -49 9t-16 30z M1014 1538q-6 -6 2 -6q-2 -25 6 -42t22.5 -31.5t35 -30t42.5 -35.5q8 -6 44 12t85 50t103.5 72t100.5 74.5t76 59.5t28 27l-242 159l-297 -303z" />
<glyph unicode="&#xf4;" d="M121 307q-8 -23 15.5 -54.5t66.5 -65t99 -68.5t113.5 -61.5t110 -43t86.5 -16.5q10 0 22 1l13 1q10 2 47 20.5t79 41t78 42t46 23.5q127 47 212 75.5t143.5 52.5t96 50.5t68.5 72.5t61.5 119.5t75.5 188.5l17 47q14 35 26.5 72t26.5 72l21 49q2 55 -7.5 115.5t-34 114.5 t-66.5 96t-107 59q-12 -8 -53.5 -23.5t-87.5 -31t-86 -27.5t-48 -15q-33 -10 -94.5 -21t-135 -23.5t-151.5 -24.5t-142.5 -23.5t-106.5 -20.5t-44 -16l-268 -702q-35 0 -54.5 -15.5t-29.5 -37.5zM598 1608q-6 -4 14.5 -21.5t55 -40t80 -48t87.5 -44t74.5 -28t46.5 -1.5 q31 18 86.5 54.5t115 75t109.5 71.5t70 45l156 -258l451 205q8 4 -29 23.5t-98.5 46t-135 56.5t-142.5 53.5t-121 36.5t-66 9zM807 416l221 575q18 -14 34.5 -45t8.5 -51l-199 -518q-25 0 -49 9t-16 30z" />
<glyph unicode="&#xf5;" d="M121 307q-8 -23 15.5 -54.5t66.5 -65t99 -68.5t113.5 -61.5t110 -43t86.5 -16.5q10 0 22 1l13 1q10 2 47 20.5t79 41t78 42t46 23.5q127 47 212 75.5t143.5 52.5t96 50.5t68.5 72.5t61.5 119.5t75.5 188.5l17 47q14 35 26.5 72t26.5 72l21 49q2 55 -7.5 115.5t-34 114.5 t-66.5 96t-107 59q-12 -8 -53.5 -23.5t-87.5 -31t-86 -27.5t-48 -15q-33 -10 -94.5 -21t-135 -23.5t-151.5 -24.5t-142.5 -23.5t-106.5 -20.5t-44 -16l-268 -702q-35 0 -54.5 -15.5t-29.5 -37.5zM598 1608q-8 -4 23.5 -22.5t85 -42t118 -48.5t124 -44t104.5 -28.5t59 -1.5 q63 35 125.5 66t101.5 53l154 -127l451 205q6 4 -26 21.5t-85 41t-117.5 48t-124 44t-104.5 29.5t-57 2q-68 -37 -118 -77.5t-91 -69.5l-170 153zM807 416l221 575q18 -14 34.5 -45t8.5 -51l-199 -518q-25 0 -49 9t-16 30z" />
<glyph unicode="&#xf6;" d="M121 307l8 23q10 23 29.5 38t54.5 15l268 702q2 6 44 15.5t106.5 21t142.5 23.5t151.5 24.5t136 23.5t93.5 21q12 2 51 15.5t85 29t86 31t53 21.5q66 -16 108.5 -58.5t67 -96.5t33 -114.5t6.5 -115.5l-21 -49q-14 -35 -26.5 -72t-26.5 -72l-17 -47q-45 -115 -75.5 -188.5 t-61.5 -119.5t-68.5 -72.5t-96 -50.5t-143.5 -52.5t-212 -75.5q-10 -4 -47 -23.5t-79 -42t-79 -41t-45 -20.5l-12 -1t-23 -1q-35 0 -87 16.5t-109.5 43t-113.5 61.5t-99 68.5t-66.5 65t-15.5 54.5zM665.5 1550.5q-8.5 34.5 6.5 69.5q12 31 36.5 58.5t57.5 50t69.5 43 t71.5 38.5q141 -16 187.5 -67t5.5 -156q-12 -33 -40 -62.5t-63.5 -51t-76.5 -35t-82 -13.5q-43 0 -79 17.5t-60.5 45.5t-33 62.5zM807 416q-8 -20 16.5 -29.5t48.5 -9.5l199 518q8 20 -8 51t-35 45zM1417 1552.5q-8 34.5 4 69.5q12 31 38 58.5t58.5 51t69.5 44.5t72 39 q141 -16 187 -68.5t5 -157.5q-12 -33 -39.5 -62.5t-63.5 -51t-77 -35t-80 -13.5q-43 0 -79.5 17.5t-61.5 45.5t-33 62.5z" />
<glyph unicode="&#xf7;" horiz-adv-x="1079" d="M223 578l541 124l483 -124l3 -4q3 -5 -1 -7q-49 -35 -118.5 -51t-182.5 -53q-14 -4 -75.5 2t-145.5 18.5t-175 27.5t-167 29.5t-123 24.5t-39 13zM428 123q-8 35 4 70q12 31 38 58.5t58.5 50t69.5 43t72 38.5q141 -16 187 -67.5t5 -155.5q-12 -33 -39.5 -62.5t-63.5 -51 t-77 -35t-80 -13.5q-43 0 -80 17.5t-61.5 45t-32.5 62.5zM721 887q-8 35 4 69q12 31 37.5 58.5t58.5 50t70 43.5t72 39q141 -16 187 -67.5t5 -155.5q-12 -33 -40 -63t-62.5 -51.5t-76.5 -34.5t-81 -13q-43 0 -80 17.5t-61.5 45t-32.5 62.5z" />
<glyph unicode="&#xf8;" d="M121 307q-8 -23 15.5 -54.5t66.5 -65t99 -68.5t113.5 -61.5t110 -43t86.5 -16.5q10 0 22 1l13 1q10 2 47 20.5t79 41t78 42t46 23.5q127 47 212 75.5t143.5 52.5t96 50.5t68.5 72.5t61.5 119.5t75.5 188.5l17 47q14 35 26.5 72t26.5 72l21 49q2 55 -7.5 115.5t-34 114.5 t-66.5 96t-107 59q-12 -8 -53.5 -23.5t-87.5 -31t-86 -27.5t-48 -15q-33 -10 -94.5 -21t-135 -23.5t-151.5 -24.5t-142.5 -23.5t-106.5 -20.5t-44 -16l-268 -702q-35 0 -54.5 -15.5t-29.5 -37.5zM807 416l41 108l104 64l-53 -174q-12 0 -29.5 -3t-33 -5.5t-24.5 -1t-5 11.5z M930 735l98 256q18 -14 31.5 -45t11.5 -51l-10 -59z" />
<glyph unicode="&#xf9;" horiz-adv-x="1626" d="M166 319q0 -47 37 -96t84 -94t93 -79t62 -50h21q51 0 105.5 25.5t110.5 55.5t112.5 55.5t111.5 25.5q53 0 83 -25.5t54.5 -55.5t55 -55.5t86.5 -25.5q41 0 116.5 26.5t152.5 66.5t139.5 83t74.5 78q14 39 -7.5 49t-52 12t-55 6.5t-14.5 30.5l221 574q59 35 89 60.5 t46 68.5l9 22q-2 8 -3.5 11.5t-8.5 9.5t-21.5 20.5l-44.5 44.5q-25 20 -53.5 47t-56 52.5t-49.5 47t-30 31.5q-98 -74 -208.5 -129t-233.5 -94l-6 -16l-8 -17q0 -8 3 -25.5t8 -38t10 -37.5t11 -26l-221 -575q-4 -10 -27.5 -21.5t-50 -20.5t-47.5 -15l-20 -7q6 18 20.5 51 t30.5 74q16 43 36.5 93.5t41.5 101.5q41 104 70.5 193.5t46.5 125.5q16 43 23 109t-4 127t-47 105t-104 44q-10 0 -22 -1t-21 -1q-18 -10 -67 -37.5t-104.5 -58.5t-106.5 -58.5t-72 -35.5q-39 -23 -67.5 -36t-48 -25.5t-34 -26.5t-22.5 -39q-12 -35 -3 -47t31.5 -13t53.5 3 t62 4l-213 -555q0 -2 -20.5 -13.5t-33.5 -19.5q-6 0 -18 -4t-26.5 -9t-28 -10.5t-19.5 -7.5l-3 -5t-3 -7q-4 -8 -5 -14zM1167 1753q-4 -2 5.5 -26.5t29 -60.5t44 -76t49 -71.5t46 -50t35.5 -10.5q39 20 72 34.5t58.5 29t47 32t39.5 41.5q4 0 4 7v6l-63 305z" />
<glyph unicode="&#xfa;" horiz-adv-x="1626" d="M166 319q0 -47 37 -95t85 -92t93 -79t61 -53h21q51 0 105.5 25.5t110.5 55.5t112.5 55.5t111.5 25.5q53 0 83 -25.5t54.5 -55.5t55 -55.5t86.5 -25.5q41 0 116.5 26.5t152.5 66.5t139.5 83t74.5 78q14 39 -7.5 49t-52 12t-55 6.5t-14.5 30.5l221 574q59 35 89 60.5 t46 68.5l9 22q0 8 -1.5 11.5t-8.5 9.5t-23.5 20.5t-44.5 44.5q-25 20 -54.5 47t-56 53.5t-48.5 47t-30 30.5q-199 -145 -442 -223l-6 -16l-8 -17q0 -6 3 -24.5t8 -37.5t10 -37.5t11 -27.5l-221 -575q-4 -10 -26.5 -20.5t-48 -20.5t-47 -16.5t-23.5 -6.5q6 18 20.5 51 t30.5 74q16 43 36.5 93.5t41.5 101.5q41 104 70.5 193.5t46.5 125.5q16 43 23 109t-4 127t-47 105t-104 44q-10 0 -22 -1t-21 -1q-20 -10 -69 -37.5t-104.5 -58.5t-105.5 -57.5t-71 -36.5q-39 -23 -67.5 -36t-48 -25.5t-34 -26.5t-22.5 -39q-12 -35 -3 -47t31.5 -13t53.5 3 t62 4l-213 -555q0 -2 -20.5 -13.5t-33.5 -19.5q-6 0 -18 -4t-26.5 -9t-28 -10.5t-19.5 -7.5l-3 -5t-3 -7q-4 -8 -5 -14zM1206 1608q-6 -6 2 -6q-2 -25 6.5 -41.5t23.5 -30.5t35.5 -29.5t43.5 -36.5q6 -8 42 10.5t85 50t103.5 71.5t101.5 76t76.5 60.5t27.5 26.5l-244 160 l-297 -305z" />
<glyph unicode="&#xfb;" horiz-adv-x="1626" d="M166 319q0 -47 37 -95t85 -92t93 -79t61 -53h21q51 0 105.5 25.5t110.5 55.5t112.5 55.5t111.5 25.5q53 0 83 -25.5t54.5 -55.5t55 -55.5t86.5 -25.5q41 0 116.5 26.5t152.5 66.5t139.5 83t74.5 78q14 39 -7.5 49t-52 12t-55 6.5t-14.5 30.5l221 574q59 35 89 60.5 t46 68.5l9 22q0 8 -1.5 11.5t-8.5 9.5t-23.5 20.5t-44.5 44.5q-25 20 -54.5 47t-56 53.5t-48.5 47t-30 30.5q-199 -145 -442 -223l-6 -16l-8 -17q0 -6 3 -24.5t8 -37.5t10 -37.5t11 -27.5l-221 -575q-4 -10 -26.5 -20.5t-48 -20.5t-47 -16.5t-23.5 -6.5q6 18 20.5 51 t30.5 74q16 43 36.5 93.5t41.5 101.5q41 104 70.5 193.5t46.5 125.5q16 43 23 109t-4 127t-47 105t-104 44q-10 0 -22 -1t-21 -1q-20 -10 -69 -37.5t-104.5 -58.5t-105.5 -57.5t-71 -36.5q-39 -23 -67.5 -36t-48 -25.5t-34 -26.5t-22.5 -39q-12 -35 -3 -47t31.5 -13t53.5 3 t62 4l-213 -555q0 -2 -20.5 -13.5t-33.5 -19.5q-6 0 -18 -4t-26.5 -9t-28 -10.5t-19.5 -7.5l-3 -5t-3 -7q-4 -8 -5 -14zM700 1583q-6 -4 13.5 -21.5t55.5 -40t80 -48t86 -44t75.5 -27.5t48.5 -1q31 18 86 54t114.5 75t109.5 71.5t73 45.5l149 -258l455 204q6 4 -31 23.5 t-97 46.5t-135 56.5t-143.5 53t-120 37t-65.5 9.5z" />
<glyph unicode="&#xfc;" horiz-adv-x="1626" d="M166 319l1 7q1 6 5 14q0 2 3 7l3 5q6 2 19.5 7.5t28 10.5t26.5 9t18 4q12 8 33 19.5t21 13.5l213 555q-31 0 -62 -4t-53.5 -3t-31.5 13t3 47q8 25 22.5 39t34 26.5t48 25.5t67.5 36q20 8 71.5 35.5t107 58.5t104.5 58.5t67 37.5q8 0 20.5 1t22.5 1q68 0 104 -44t47 -105 t4 -127t-23 -109q-16 -37 -46 -126t-71 -193q-20 -51 -41 -101.5t-37 -93.5q-16 -41 -30.5 -73.5t-20.5 -51.5l20 7q21 6 47.5 15t50 20.5t27.5 21.5l221 575q-6 8 -11 25.5t-10 38t-8 38t-3 25.5l8 17l6 16q123 39 233.5 94.5t208.5 128.5q14 -12 47 -43.5t71 -66.5t72 -68 t48 -45q20 -18 26.5 -24.5t2.5 -16.5l-9 -22q-16 -43 -45.5 -68.5t-89.5 -60.5l-221 -574q-10 -27 14.5 -31t55 -6t52 -12t7.5 -49q-12 -35 -74.5 -78t-139.5 -83t-152.5 -66.5t-116.5 -26.5q-55 0 -86 25.5t-55.5 55.5t-54.5 55.5t-83 25.5q-55 0 -111.5 -25.5 t-112.5 -55.5t-110.5 -55.5t-105.5 -25.5h-21q-16 16 -62 50t-93 79t-84 94t-37 96zM818 1587q-9 35 5 70q12 31 37 58.5t57.5 50t69.5 43t72 38.5q141 -16 187 -67t5 -156q-12 -33 -39.5 -62.5t-62.5 -51t-77 -35t-81 -13.5q-43 0 -78.5 17.5t-60.5 45t-34 62.5zM1569 1589 q-8 35 4 70q12 31 37.5 58.5t58.5 51t69.5 44t71.5 38.5q141 -16 188.5 -68t6.5 -157q-12 -33 -40 -62.5t-64.5 -51t-77.5 -35t-82 -13.5q-43 0 -80 17.5t-60.5 45t-31.5 62.5z" />
<glyph unicode="&#xfd;" horiz-adv-x="1062" d="M152 216q12 -42 39.5 -76t64.5 -56.5t74 -22.5q2 0 9 1l7 1q14 8 55 29t89.5 43.5t92.5 44t62 31.5q-4 -8 -10 -26.5t-14.5 -39t-13.5 -39t-7 -22.5q-29 -76 -60.5 -125t-76.5 -89t-106.5 -80t-151.5 -95q-4 -18 10 -26.5t34.5 -11.5t41 -2t26.5 1q43 0 110 19.5 t140.5 53t149.5 79t141.5 94.5t113.5 99t66 97l340 883q-2 23 -5 54.5t-25 47.5l-86 119l-6 1q-7 1 -11 1q-8 0 -15 -1l-7 -1l-242 -112l-94 -35l-131 182l2 8q2 8 2 10q4 12 23.5 23.5t43 22t49 20.5t42.5 22q-6 51 -26 64.5t-67 13.5q-78 0 -139 -23.5t-110.5 -64.5 t-85 -95t-60.5 -118q-25 -61 -32 -116.5t-11 -109.5t-11 -111.5t-32 -120.5q-20 -51 -45 -96.5t-50.5 -89.5t-50 -87t-42.5 -92q-16 -39 -4 -81zM670 385l186 485l55 37q20 -70 -12 -147l-55 -146l-15 -39q-10 -29 -23 -54t-24 -54l-14 -37q-43 -45 -98 -45zM953 1608 q-5 -6 1 -6q-2 -25 7.5 -41.5t24.5 -30.5t35.5 -29.5t43.5 -36.5q6 -8 42 11.5t86 51.5t105.5 71.5t102.5 74.5t75.5 59.5t26.5 26.5l-243 160l-302 -305z" />
<glyph unicode="&#xfe;" horiz-adv-x="1105" d="M150.5 355.5q-5.5 21.5 5.5 50.5l14 38q23 59 69 107.5t96 94.5t95 96.5t70 113.5q23 57 25.5 102.5t0.5 86t0 83.5t25 99q43 111 124 173t212 62q14 0 32.5 1t34 -1t26.5 -10t11 -27l-104 -71q33 -14 46 -60.5t18 -101.5t6 -109.5t8 -85.5q2 0 48 22.5t104.5 49.5 t115.5 49.5t84 22.5t48 -29t33.5 -65.5t16.5 -70.5t0 -46l-227 -596q-6 -12 -52 -36t-114 -52.5t-145.5 -58t-146 -57.5t-116 -48.5t-53.5 -28.5q-10 -12 -25.5 -31.5t-32 -40t-30.5 -39t-20 -26.5q-25 -33 -37.5 -53.5t-22.5 -32.5t-22.5 -17.5t-34.5 -5.5q-43 0 -61.5 34 t-19.5 87.5t10 119t26.5 128t32 115.5t24.5 82q-6 0 -18.5 2t-18.5 2q-37 0 -62.5 -21.5t-55.5 -21.5q-37 0 -42.5 21.5zM776 506l51 -68l148 385l-27 35l-51 -35z" />
<glyph unicode="&#xff;" horiz-adv-x="1062" d="M152 216q12 -42 39.5 -76t64.5 -56.5t74 -22.5q2 0 9 1l7 1l58 29t89.5 43.5t90.5 44t61 31.5q-4 -8 -10 -26.5t-14.5 -39t-13.5 -39t-7 -22.5q-29 -76 -60.5 -125t-76.5 -89t-106.5 -80t-151.5 -95q-4 -18 9 -26.5t32.5 -11.5t40 -2t30.5 1q43 0 110 19.5t140.5 53 t149.5 79t141.5 94.5t113.5 99t66 97l340 883q-2 23 -5 54.5t-25 47.5l-86 119l-6 1q-7 1 -11 1q-8 0 -15 -1l-7 -1l-242 -112l-94 -35l-131 182l2 8q2 8 2 10q6 12 24.5 23.5t43 22t49 20.5t41.5 22q-6 51 -26 64.5t-67 13.5q-78 0 -139 -23.5t-110.5 -64.5t-85 -95 t-60.5 -118q-25 -61 -32 -116.5t-11 -109.5t-11 -111.5t-32 -120.5q-20 -51 -45 -96.5t-50.5 -89.5t-50 -87t-42.5 -92q-16 -39 -4 -81zM651 1591q8 -35 33 -62.5t60.5 -45t78.5 -17.5q41 0 83 13.5t78 35t63.5 51t39.5 64.5q41 104 -6 155.5t-188 67.5q-35 -18 -72 -38.5 t-69.5 -44t-58 -51t-38.5 -58.5q-12 -35 -4 -70zM670 385l186 485l55 37q20 -70 -12 -147l-55 -146l-15 -39q-10 -29 -23 -54t-24 -54l-14 -37q-43 -45 -98 -45zM1260 1591q8 -35 32.5 -62.5t61.5 -45t80 -17.5q41 0 83 13.5t76.5 35t62 51t40.5 64.5q41 104 -7.5 155.5 t-189.5 67.5q-35 -18 -70.5 -38.5t-68.5 -44t-58.5 -51t-37.5 -58.5q-12 -35 -4 -70z" />
<glyph unicode="&#x152;" horiz-adv-x="2048" d="M135 352q-20 -53 11.5 -114.5t87 -114.5t124 -89t121.5 -36q10 0 23.5 1t17.5 1q27 10 95.5 41t150.5 66.5t162 71.5t131 59q23 -47 59.5 -90.5t82.5 -76t97.5 -52t104.5 -19.5q29 0 93.5 22.5t144 57.5t165.5 78t159 84t122 74.5t55 52.5q10 29 -6 40t-51 11t-65.5 -6 t-61.5 -12.5t-62.5 -12.5t-68.5 -6q-35 0 -80 10t-82 28.5t-57.5 45.5t-8.5 61q18 47 72.5 79t127.5 57.5t155 48t155.5 50.5t130 64.5t76.5 90.5q4 10 8.5 25t4.5 18l-146 352q-2 2 -27.5 13t-39.5 17h-21q-43 0 -126 -18t-182 -49t-200.5 -72t-179.5 -86 q-10 31 -16.5 56.5t-4.5 39.5q-6 2 -12 22.5t-15 44.5t-24.5 43t-40.5 19q-6 0 -11 -1t-11 -1q-25 -6 -73 -19t-109.5 -28.5t-128 -33t-127 -33t-109.5 -27.5t-74 -18q-31 -10 -71.5 -25.5t-78.5 -36t-68 -45t-40 -53.5zM717 512l172 446q6 -16 10 -47.5t14.5 -64.5 t33 -57.5t65.5 -24.5q29 0 72 9.5t104 25.5l-148 -381l-10 -27q-35 -10 -86 -10q-31 0 -75 8t-82.5 24.5t-60 41t-9.5 57.5zM1645 737l86 221q0 -4 4 -17t11 -28.5t15 -29t13 -19.5q4 -12 8 -36.5t4 -26.5q-4 -10 -26.5 -20.5t-48 -20.5t-45.5 -16z" />
<glyph unicode="&#x153;" horiz-adv-x="2048" d="M135 352q-20 -53 11.5 -114.5t87 -114.5t124 -89t121.5 -36q10 0 23.5 1t17.5 1q27 10 95.5 41t150.5 66.5t162 71.5t131 59q23 -47 59.5 -90.5t82.5 -76t97.5 -52t104.5 -19.5q29 0 93.5 22.5t144 57.5t165.5 78t159 84t122 74.5t55 52.5q10 29 -6 40t-51 11t-65.5 -6 t-61.5 -12.5t-62.5 -12.5t-68.5 -6q-35 0 -80 10t-82 28.5t-57.5 45.5t-8.5 61q18 47 72.5 79t127.5 57.5t155 48t155.5 50.5t130 64.5t76.5 90.5q4 10 8.5 25t4.5 18l-146 352q-2 2 -27.5 13t-39.5 17h-21q-43 0 -126 -18t-182 -49t-200.5 -72t-179.5 -86 q-10 31 -16.5 56.5t-4.5 39.5q-6 2 -12 22.5t-15 44.5t-24.5 43t-40.5 19q-6 0 -11 -1t-11 -1q-25 -6 -73 -19t-109.5 -28.5t-128 -33t-127 -33t-109.5 -27.5t-74 -18q-31 -10 -71.5 -25.5t-78.5 -36t-68 -45t-40 -53.5zM717 512l172 446q6 -16 10 -47.5t14.5 -64.5 t33 -57.5t65.5 -24.5q29 0 72 9.5t104 25.5l-148 -381l-10 -27q-35 -10 -86 -10q-31 0 -75 8t-82.5 24.5t-60 41t-9.5 57.5zM1645 737l86 221q0 -4 4 -17t11 -28.5t15 -29t13 -19.5q4 -12 8 -36.5t4 -26.5q-4 -10 -26.5 -20.5t-48 -20.5t-45.5 -16z" />
<glyph unicode="&#x178;" horiz-adv-x="1062" d="M152 216q12 -42 39.5 -76t64.5 -56.5t74 -22.5q2 0 9 1l7 1l58 29t89.5 43.5t90.5 44t61 31.5q-4 -8 -10 -26.5t-14.5 -39t-13.5 -39t-7 -22.5q-29 -76 -60.5 -125t-76.5 -89t-106.5 -80t-151.5 -95q-4 -18 9 -26.5t32.5 -11.5t40 -2t30.5 1q43 0 110 19.5t140.5 53 t149.5 79t141.5 94.5t113.5 99t66 97l340 883q-2 23 -5 54.5t-25 47.5l-86 119l-6 1q-7 1 -11 1q-8 0 -15 -1l-7 -1l-242 -112l-94 -35l-131 182l2 8q2 8 2 10q6 12 24.5 23.5t43 22t49 20.5t41.5 22q-6 51 -26 64.5t-67 13.5q-78 0 -139 -23.5t-110.5 -64.5t-85 -95 t-60.5 -118q-25 -61 -32 -116.5t-11 -109.5t-11 -111.5t-32 -120.5q-20 -51 -45 -96.5t-50.5 -89.5t-50 -87t-42.5 -92q-16 -39 -4 -81zM651 1591q8 -35 33 -62.5t60.5 -45t78.5 -17.5q41 0 83 13.5t78 35t63.5 51t39.5 64.5q41 104 -6 155.5t-188 67.5q-35 -18 -72 -38.5 t-69.5 -44t-58 -51t-38.5 -58.5q-12 -35 -4 -70zM670 385l186 485l55 37q20 -70 -12 -147l-55 -146l-15 -39q-10 -29 -23 -54t-24 -54l-14 -37q-43 -45 -98 -45zM1260 1591q8 -35 32.5 -62.5t61.5 -45t80 -17.5q41 0 83 13.5t76.5 35t62 51t40.5 64.5q41 104 -7.5 155.5 t-189.5 67.5q-35 -18 -70.5 -38.5t-68.5 -44t-58.5 -51t-37.5 -58.5q-12 -35 -4 -70z" />
<glyph unicode="&#x2c6;" horiz-adv-x="1394" d="M618 1608l754 235q14 4 66.5 -9t121 -36.5t143.5 -52.5t135 -55.5t97 -46t31 -25.5l-453 -205l-153 258q-20 -12 -71.5 -45t-111 -71.5t-114.5 -74.5t-86 -55q-14 -8 -47 1.5t-75 28t-87 44t-80 48t-55.5 40t-14.5 21.5z" />
<glyph unicode="&#x2dc;" horiz-adv-x="1394" d="M629 1630l454 203l166 -154q41 29 92.5 70t116.5 78q12 8 58.5 -2t105.5 -29.5t124.5 -44.5t119 -48.5t85 -42t23.5 -22.5l-452 -202l-154 127q-39 -23 -100.5 -54.5t-126.5 -66.5q-12 -8 -57.5 2t-104.5 29.5t-123.5 44t-118 48t-85 42t-23.5 22.5z" />
<glyph unicode="&#x2000;" horiz-adv-x="964" />
<glyph unicode="&#x2001;" horiz-adv-x="1929" />
<glyph unicode="&#x2002;" horiz-adv-x="964" />
<glyph unicode="&#x2003;" horiz-adv-x="1929" />
<glyph unicode="&#x2004;" horiz-adv-x="643" />
<glyph unicode="&#x2005;" horiz-adv-x="482" />
<glyph unicode="&#x2006;" horiz-adv-x="321" />
<glyph unicode="&#x2007;" horiz-adv-x="321" />
<glyph unicode="&#x2008;" horiz-adv-x="241" />
<glyph unicode="&#x2009;" horiz-adv-x="385" />
<glyph unicode="&#x200a;" horiz-adv-x="107" />
<glyph unicode="&#x2010;" horiz-adv-x="839" d="M276 713q-6 -4 26 -21.5t84 -41t117.5 -49.5t124 -45t104.5 -28.5t59 -1.5q49 27 88 47.5t70.5 39t58 39t49.5 46.5q6 2 3 8l-3 7l-326 205z" />
<glyph unicode="&#x2011;" horiz-adv-x="839" d="M276 713q-6 -4 26 -21.5t84 -41t117.5 -49.5t124 -45t104.5 -28.5t59 -1.5q49 27 88 47.5t70.5 39t58 39t49.5 46.5q6 2 3 8l-3 7l-326 205z" />
<glyph unicode="&#x2012;" horiz-adv-x="839" d="M276 713q-6 -4 26 -21.5t84 -41t117.5 -49.5t124 -45t104.5 -28.5t59 -1.5q49 27 88 47.5t70.5 39t58 39t49.5 46.5q6 2 3 8l-3 7l-326 205z" />
<glyph unicode="&#x2013;" horiz-adv-x="839" d="M276 713q-6 -4 26 -21.5t84 -41t117.5 -49.5t124 -45t104.5 -28.5t59 -1.5q49 27 88 47.5t70.5 39t58 39t49.5 46.5q6 2 3 8l-3 7l-326 205z" />
<glyph unicode="&#x2014;" horiz-adv-x="1271" d="M276 713l660 205l551 -205l4 -7q4 -6 0 -8q-31 -29 -68 -49t-83 -38.5t-102 -38t-124 -46.5q-18 -8 -90 2.5t-168 28.5t-202.5 44t-193.5 48.5t-140.5 41t-43.5 22.5z" />
<glyph unicode="&#x2018;" horiz-adv-x="638" d="M442.5 1046q10.5 -88 100.5 -161l321 51l148 168l-70 196l-90 191l-23 33l-8 1t-16 1q-2 0 -8 -1t-9 -1q-23 -6 -61.5 -26.5t-78.5 -45.5t-74.5 -49.5t-47.5 -38.5l-6 -12q-6 -13 -12 -31q-8 -16 -16.5 -34.5t-12.5 -33.5q-47 -119 -36.5 -207z" />
<glyph unicode="&#x2019;" horiz-adv-x="638" d="M496 1305l71 -197l86 -190l27 -33l6 -1t14 -1q4 0 11.5 1t9.5 1q18 2 58 22.5t82 47t77 52t45 37.5l5 12q5 13 11 29q8 18 16.5 37t12.5 33q47 119 37 207t-98 162l-326 -51z" />
<glyph unicode="&#x201a;" horiz-adv-x="573" d="M-98 -258q20 55 87.5 109.5t215.5 115.5q-23 14 -47.5 35t-43 47.5t-27.5 59t1 71.5q57 86 148.5 130t203.5 50l117 -26q18 -33 27.5 -56.5t11.5 -47t-5 -51t-22 -66.5q-37 -94 -112.5 -164t-169.5 -116t-195.5 -68.5t-189.5 -22.5z" />
<glyph unicode="&#x201c;" horiz-adv-x="1273" d="M446.5 1048.5q10.5 -87.5 98.5 -161.5l325 51l148 168l-74 197l-84 192l-29 31l-7 1q-7 1 -13 1t-10 -1t-10 -1q-23 -6 -62 -26.5t-79 -45t-74.5 -49.5t-47.5 -39l-5 -12q-5 -13 -13 -31q-6 -16 -14.5 -34.5t-14.5 -33.5q-45 -119 -34.5 -206.5zM1083.5 1051.5 q10.5 -88.5 100.5 -162.5l325 53l146 166l-74 197l-84 192l-31 31l-5 2t-13 2q-2 0 -10 -2t-11 -2q-23 -6 -60.5 -26.5t-77.5 -45t-73.5 -49.5t-48.5 -39q-2 -2 -10 -20.5t-20.5 -45t-18.5 -45.5q-45 -117 -34.5 -205.5z" />
<glyph unicode="&#x201d;" horiz-adv-x="1273" d="M504 1311l71 -197l87 -192l28 -33l5 -1t14 -1q2 0 9 1t11 1q20 2 60 23.5t81 47t75 51t44 38.5q0 2 6 14t13.5 28.5t15.5 35t14 32.5q47 119 36 207t-101 162l-324 -51zM1139 1313l71 -197l86 -192l29 -31l7 -2q7 -2 14 -2q6 0 10 2t10 2q20 2 59 22.5t81 46t76 52 t44 39.5l7 12q7 12 14 29q8 18 16 36.5t12 32.5q45 117 36 206t-99 163l-326 -53z" />
<glyph unicode="&#x201e;" horiz-adv-x="1140" d="M-98 -258q88 0 189.5 22.5t195.5 68.5t169.5 115.5t112.5 164.5q14 39 21.5 66.5t5.5 51t-11.5 47t-27.5 56.5l-117 26q-113 -6 -204 -50t-148 -130q-10 -39 -2 -71.5t27.5 -59t44 -47t47.5 -35.5q-78 -33 -131.5 -61.5t-88 -55t-54 -53t-29.5 -55.5zM467 -260 q88 0 190.5 22.5t197.5 68.5t171 115.5t113 164.5q14 39 20 66.5t4 51t-12.5 47t-28.5 56.5l-114 26q-113 -8 -204 -51t-151 -131q-10 -39 -0.5 -71.5t27.5 -58.5t44 -46t48 -35q-78 -33 -131 -61.5t-88 -55t-55.5 -53t-30.5 -55.5z" />
<glyph unicode="&#x2022;" d="M121 307l8 23q10 23 29.5 38t54.5 15l268 702q2 6 44 15.5t106.5 21t142.5 23.5t151.5 24.5t136 23.5t93.5 21q8 2 48 14.5t86 28t87 31t54 23.5q66 -16 107.5 -58.5t66 -96.5t34 -114.5t7.5 -115.5l-21 -49q-14 -35 -26.5 -72t-26.5 -72l-17 -47q-45 -115 -75.5 -188.5 t-61.5 -119.5t-68.5 -72.5t-96 -50.5t-143.5 -52.5t-212 -75.5q-10 -4 -46 -23.5t-78 -42t-79 -41t-47 -20.5l-12 -1t-23 -1q-35 0 -87 16.5t-109.5 43t-113.5 61.5t-99 68.5t-66.5 65t-15.5 54.5z" />
<glyph unicode="&#x2026;" horiz-adv-x="1628" d="M69.5 123q-8.5 35 4.5 70q12 31 37.5 58.5t58.5 50t69.5 43t71.5 38.5q141 -16 187.5 -67.5t5.5 -155.5q-12 -33 -40 -62.5t-63.5 -51t-76.5 -35t-80 -13.5q-43 0 -80 17.5t-61.5 45t-33 62.5zM565 125q-8 35 4 70q12 31 38 58.5t58.5 50t69.5 43t72 38.5 q143 -16 189 -67.5t5 -155.5q-12 -33 -39.5 -62.5t-63.5 -51t-77 -35t-82 -13.5q-43 0 -79.5 17.5t-61.5 45t-33 62.5zM1055 125q-8 35 4 70q12 31 37.5 58.5t58.5 50t69.5 43t71.5 38.5q141 -16 187.5 -67.5t5.5 -155.5q-12 -33 -40 -62.5t-62.5 -51t-76.5 -35t-81 -13.5 q-43 0 -80 17.5t-61.5 45t-32.5 62.5z" />
<glyph unicode="&#x202f;" horiz-adv-x="385" />
<glyph unicode="&#x2039;" horiz-adv-x="585" d="M258 637q0 -45 6 -106.5t15.5 -130t20.5 -126t23.5 -93.5t20.5 -31l369 301l-246 200q18 10 71.5 41t115 67t119.5 70.5t89 53.5q20 12 12 69.5t-28.5 120t-44 110.5t-33.5 42l-500 -533q-10 -10 -10 -55z" />
<glyph unicode="&#x203a;" horiz-adv-x="585" d="M172 451l399 200q-12 10 -41.5 41t-64.5 67t-66.5 70.5t-46.5 53.5q-6 8 16.5 37.5t62.5 68.5t87 83t90 79t73 56.5t34 17.5l88 -533q2 -10 -33 -55t-87 -107.5t-115.5 -131t-118 -126t-93.5 -92.5t-43 -30z" />
<glyph unicode="&#x205f;" horiz-adv-x="482" />
<glyph unicode="&#x20ac;" horiz-adv-x="1687" d="M209 539q-6 -2 17.5 -9.5t65.5 -17.5t98 -22.5t114.5 -23.5t115 -21.5t101.5 -16.5l-29 -76q-20 -53 11.5 -114.5t88 -114.5t125 -89t121.5 -36q8 0 22.5 1t16.5 1q20 8 65.5 27.5t103 45t121 54.5t120.5 54.5t102 46t66 28.5q31 14 51 23.5t32.5 18.5t20.5 21.5t17 32.5 q10 23 4 43.5t-43 20.5q-55 0 -112.5 -17.5t-123.5 -17.5q-31 0 -75 8t-82.5 24.5t-60 41t-9.5 57.5l172 446q6 -16 10 -47.5t15.5 -64.5t34 -57.5t65.5 -24.5q27 0 93.5 14.5t137 39t129 56t72.5 68.5q2 4 3 10l1 6q-6 10 -15.5 46t-18.5 78t-17 80t-12 52q-6 2 -12.5 22.5 t-15.5 44.5t-24.5 43t-40.5 19q-2 0 -9 -1t-9 -1q-25 -6 -74 -19t-109.5 -28.5t-127 -33t-128 -33t-110.5 -27.5t-74 -18q-31 -10 -70.5 -25.5t-78.5 -36t-69.5 -45t-41.5 -53.5l-43 -109l-76 25l-466 -123q-6 -2 39 -14.5t115.5 -28.5t154.5 -32.5t157 -26.5l-34 -88 l-123 37z" />
<glyph unicode="&#x2122;" horiz-adv-x="1505" d="M379 987l11 3t24.5 8.5t25 10.5t13.5 11l86 223q-23 16 -35 28.5t-2 35.5l6 18q61 33 109.5 63.5t90.5 64.5t82.5 72t88.5 87l36 -31l-73 -192q12 -4 33.5 -7.5t40 -9.5t29.5 -17.5t3 -29.5q-16 -45 -54 -59.5t-91 -3.5l-94 -246q6 0 23.5 3t39.5 3q16 0 28.5 -5 t6.5 -21.5t-44 -40t-85 -47t-91 -41t-63 -21.5q-16 14 -41.5 28.5t-48 32t-39 36.5t-16.5 44zM924 963l4 8l4 10q10 4 18 17.5t19 19.5l116 305q-16 0 -35.5 18.5t-2.5 38.5l20 16q20 15 33 21q18 10 44.5 26.5t51.5 32t42 25.5l17 10h41l66 -94q-2 -4 23.5 9.5t59.5 31 t66.5 33.5t44.5 20l4 1q5 1 9 1l6 -2l65 -94v-2h9q16 0 42.5 13.5t54.5 30t53.5 32.5t37.5 20l3 1t5 1q6 0 7 -1l1 -1q8 -4 22.5 -20t30 -34.5t29 -35t19.5 -20.5q4 -6 7 -13l3 -8l-4 -8l-4 -10q-2 -6 -12.5 -20.5t-20.5 -18.5l-117 -305q4 -6 12.5 -19.5t14.5 -17.5l-2 -10 q-6 -14 -32.5 -36t-60.5 -41.5t-68 -33.5t-52 -14q-12 0 -28.5 12t-30 30.5t-21.5 38t-2 36.5l137 354q-8 0 -13 3t-15 3q-20 0 -27 -18l-111 -287q10 -31 0 -55q-6 -18 -29.5 -40t-51 -38.5t-57.5 -27.5t-48 -11q-20 0 -31.5 12t-20.5 27.5t-20.5 28t-31.5 12.5 q-27 0 -50.5 -12.5t-47 -28t-45 -27.5t-42.5 -12q-2 0 -6 1l-4 1q-4 6 -19.5 20.5t-35.5 36.5q-2 14 -17 19q-4 6 -12 19t-14 20zM1225 1018h41l123 323l-48 -18z" />
<glyph unicode="&#x25fc;" horiz-adv-x="1331" d="M0 0v1331h1331v-1331h-1331z" />
</font>
</defs>
</svg>
