<?xml version="1.0" standalone="no"?>
<!DOCTYPE svg PUBLIC "-//W3C//DTD SVG 1.1//EN" "http://www.w3.org/Graphics/SVG/1.1/DTD/svg11.dtd" >
<svg xmlns="http://www.w3.org/2000/svg" xmlns:xlink="http://www.w3.org/1999/xlink" version="1.1">
<metadata>
Created by FontForge 20170731 at Sat Feb 25 02:37:30 2012
 By Aleksey,,,
Copyright (c) 2012, Vicente Lamonaca (produccion.taller@gmail.com www.tipografia-montevideo.info www.tipotype.com)
</metadata>
<defs>
<font id="Economica-BoldItalic" horiz-adv-x="385" >
  <font-face 
    font-family="Economica"
    font-weight="700"
    font-style="italic"
    font-stretch="normal"
    units-per-em="1000"
    panose-1="2 0 8 6 6 0 0 9 0 4"
    ascent="800"
    descent="-200"
    x-height="537"
    cap-height="720"
    bbox="-90 -192 751 949"
    underline-thickness="24"
    underline-position="-73"
    unicode-range="U+0020-FB06"
  />
<missing-glyph horiz-adv-x="190" 
 />
    <glyph glyph-name="I_J" unicode="IJ" horiz-adv-x="415" 
d="M131 0q-31 0 -42 2q-24 3 -24 31q0 6 107 687h17q42 0 54 -4.5t12 -20t-107 -695.5h-17zM402 720q29 0 40 -1q28 -3 26 -31l-84 -542q-28 -192 -63 -246q-43 -66 -99 -82q-34 -10 -79 -10l12 77q73 0 107 110q15 52 31 149t46.5 290.5t45.5 285.5h17z" />
    <glyph glyph-name="i_j" unicode="ij" horiz-adv-x="396" 
d="M226.5 615q-17.5 -19 -41 -19t-35.5 14t-12 37.5t17.5 43t41.5 19.5q47 0 47 -50q0 -26 -17.5 -45zM211 514l-80 -518q-69 0 -77 10q-3 4 -3 11t1 10l80 510q67 0 75 -9q4 -5 4 -14zM423.5 615q-17.5 -19 -41.5 -19t-36 14t-12 38t18 43t41.5 19t35.5 -13.5t12 -38
t-17.5 -43.5zM113 -189l11 70q66 0 89.5 31.5t34.5 103.5l82 521q67 0 74 -9q4 -5 4 -13l-78 -503q-6 -40 -11 -62t-19.5 -53t-35.5 -47q-54 -39 -151 -39z" />
    <glyph glyph-name="fi" unicode="fi" horiz-adv-x="375" 
d="M352 721h99l-17 -73h-92q-72 0 -91 -13q-14 -10 -18.5 -31.5t-8.5 -45.5l-12 -21h90l-13 -80h-92l6 -21l-67 -424q-16 -95 -35 -124q-29 -43 -56 -54q-55 -23 -126 -23l11 70q66 0 89.5 31.5t34.5 103.5l65 417l10 24h-53l13 80h55l-5 27q17 105 45 125q34 25 77.5 28.5
t90.5 3.5zM418 514l-80 -518q-69 0 -76 10q-4 4 -4 11t1 10l80 510q67 0 75 -9q4 -5 4 -14z" />
    <glyph glyph-name="fl" unicode="fl" horiz-adv-x="430" 
d="M288 6q-3 4 -3 11.5t97 630.5h-53q-64 -1 -79.5 -14.5t-25.5 -75.5l-12 -21h90l-13 -80h-92l6 -21l-67 -424q-16 -95 -35 -124q-29 -43 -56 -54q-55 -23 -126 -23l11 70q66 0 89.5 31.5t34.5 103.5l65 417l10 24h-53l13 80h55l-5 27q17 105 45 125q34 25 77 28.5t90 3.5
h43q67 0 75 -11q4 -5 4 -10t-17 -114t-90 -577l-14 -13q-58 0 -64 10z" />
    <glyph glyph-name="f_f_i" unicode="ffi" horiz-adv-x="625" 
d="M563 721h92l-10 -73h-92q-71 0 -91 -13q-14 -10 -18.5 -31.5t-8.5 -45.5l-12 -21h141q66 0 74 -10q4 -5 4 -9.5t-6 -40.5l-74 -481q-69 0 -76 10q-4 4 -4 11t1 10l67 430h-142l6 -21l-67 -424q-16 -95 -35 -124q-29 -43 -56 -54q-55 -23 -126 -23l11 70q66 0 89.5 31.5
t34.5 103.5l65 417l10 24h-143l6 -21l-67 -424q-16 -95 -35 -124q-29 -43 -56 -54q-55 -23 -126 -23l11 70q66 0 89.5 31.5t34.5 103.5l65 417l10 24h-53l13 80h55l-5 27q6 36 9.5 54.5t12.5 40t21 30.5t34 18q34 14 126 14l-10 -73q-67 0 -82 -13t-26 -77l-12 -21h143
l-5 27q17 105 44 125q35 25 78.5 28.5t90.5 3.5z" />
    <glyph glyph-name="f_t" unicode="ft" horiz-adv-x="460" 
d="M255 62q0 6 54 391l2 4h-38l13 80h39l13 111q-50 0 -70 -6t-28 -22t-16 -62l-88 -546q-16 -95 -35 -124q-29 -43 -56 -54q-55 -23 -126 -23l11 70q66 0 89.5 31.5t34.5 103.5l65 417l10 24h-53l13 80h55l-5 27q11 66 21.5 91t23 33.5t34.5 17.5q38 15 110.5 15t86.5 -4.5
t14 -27.5l-7 -34l-16 -118h86q-9 -54 -19.5 -67t-51.5 -13h-28v-11q-52 -350 -52 -356q0 -18 14 -18h81l-11 -71l-78 -6q-92 0 -92 67z" />
    <glyph glyph-name="s_t" unicode="st" horiz-adv-x="575" 
d="M390.5 10.5q-18.5 15.5 -18.5 44.5t54 414l2 4h-137l-67 -4q-60 -4 -60 -60q0 -39 74 -99q28 -23 51.5 -55t23.5 -69.5t-13.5 -81t-48.5 -77.5t-85 -34l-128 12l10 77l124 -5q23 1 38 31.5t15 69.5q0 29 -71 86q-27 21 -49.5 54t-23.5 66q0 79 36 118.5t111 43.5l117 -3
h87v11l11 58q51 0 65 -4.5t14 -27.5l-7 -28l-2 -9h86q-9 -54 -18 -67t-43 -13h-28v-11q-52 -350 -52 -365t14 -15h71l-11 -71l-78 -6q-45 0 -63.5 15.5z" />
    <glyph glyph-name="f_u" unicode="fu" horiz-adv-x="585" 
d="M581 514l-79 -514q-52 0 -66 4.5t-14 26.5l1 10l-74 -48q-116 0 -116 87q0 8 52 377h-88l6 -21l-67 -424q-16 -95 -35 -124q-29 -43 -56 -54q-55 -23 -126 -23l11 70q66 0 89.5 31.5t34.5 103.5l65 417l10 24h-53l13 80h55l-5 27q17 105 45 125q34 25 77.5 28.5t90.5 3.5
l-10 -73q-72 0 -91 -13q-14 -10 -18.5 -31.5t-8.5 -45.5l-12 -21h90q44 0 59 -4t15 -20l-55 -404q0 -37 26 -37l92 56v17l63 392q67 0 75 -9q4 -5 4 -14z" />
    <glyph glyph-name="o_t" unicode="ot" horiz-adv-x="610" 
d="M578 453l-54 -363q0 -18 14 -18h81l-11 -71l-78 -6q-92 0 -92 67q0 5 56 399l2 4h-112q2 -20 2 -47t-2 -64.5t-8 -92.5t-20.5 -98.5t-35.5 -84.5q-46 -85 -139 -85q-68 0 -94.5 26t-26.5 96.5t9 141t30 138.5t63.5 108.5t102.5 40.5h245v11l9 57q51 0 65 -4.5t14 -27.5
l-5 -27l-2 -9h86q-9 -54 -19.5 -67t-51.5 -13h-28v-11zM256 465q-36 0 -63 -69q-47 -119 -47 -271q0 -28 10 -40.5t34 -12.5q33 0 57 43.5t34 106.5q19 120 19 191q0 26 -9 38.5t-30 13.5h-5z" />
    <glyph glyph-name="x_t" unicode="xt" horiz-adv-x="578" 
d="M386 62q0 6 54 391l2 4h-114l-83 -179l60 -278h-84l-39 201l-100 -201q-72 0 -72 16q0 5 137 276l-50 245q61 0 73.5 -7t22.5 -46l15 -120l80 173h168v11l11 64q51 0 65 -4.5t14 -27.5l-7 -34l-2 -9h86q-9 -54 -19.5 -67t-51.5 -13h-28v-11q-52 -350 -52 -356
q0 -18 14 -18h81l-11 -71l-78 -6q-92 0 -92 67z" />
    <glyph glyph-name="E_s" unicode="Es" horiz-adv-x="608" 
d="M252 640v-11l-30 -194l-2 -5h147l-14 -83h-147v-12l-39 -244v-2q0 -4 -1 -5l324 -7q23 1 38 31.5t15 69.5q0 29 -71 86q-27 21 -49.5 54t-23.5 66q0 79 36 118.5t111 43.5l103 -13q-8 -68 -54 -70l-53 6q-60 -4 -60 -60q0 -39 74 -99q28 -23 51.5 -55t23.5 -69.5
t-13.5 -80.5t-48.5 -76.5t-85 -33.5l-424 5l114 720h262l-13 -80h-171z" />
    <glyph glyph-name="E_S" unicode="ES" horiz-adv-x="717" 
d="M252 640v-11l-30 -194l-2 -5h167l-14 -83h-167v-12l-39 -244v-2q0 -4 -1 -5l350 1q112 6 112 151q0 17 -13 38.5t-25.5 35t-40.5 42.5v-1q-36 37 -54.5 58t-37.5 58t-19 78.5t7.5 73.5t28.5 59q39 54 164 54l113 -23q-7 -39 -19.5 -52.5t-33.5 -13.5l-67 7
q-58 -1 -79.5 -26.5t-21.5 -72.5q0 -44 67 -107q28 -27 56 -54.5t47.5 -62.5t19.5 -70q0 -262 -218 -263l-442 6l114 720h252l-13 -80h-161z" />
    <glyph glyph-name=".notdef" horiz-adv-x="190" 
 />
    <glyph glyph-name=".null" horiz-adv-x="0" 
 />
    <glyph glyph-name="nonmarkingreturn" horiz-adv-x="333" 
 />
    <glyph glyph-name="space" unicode=" " horiz-adv-x="190" 
 />
    <glyph glyph-name="exclam" unicode="!" horiz-adv-x="161" 
d="M129.5 102.5q14.5 -14.5 14.5 -38t-19.5 -42t-43.5 -18.5t-38.5 14t-14.5 36.5t20 42.5t43.5 20t38 -14.5zM121 176l-46 2l83 483q5 32 16 42t38 10l51 -2l-94 -482q-6 -33 -14 -43t-34 -10z" />
    <glyph glyph-name="quotedbl" unicode="&#x22;" horiz-adv-x="332" 
d="M153 617q0 8 -5.5 23t-5.5 24q0 22 21 40t44 18t37 -14.5t14 -33t-22 -66t-44 -89t-24 -41.5l-37 27l-5 17q27 59 27 95zM289 617l-10 47q0 22 21 40t43.5 18t36.5 -14.5t14 -33t-22 -66t-44 -89t-24 -41.5l-36 27l-5 17q26 57 26 95z" />
    <glyph glyph-name="numbersign" unicode="#" horiz-adv-x="655" 
d="M617 226h-169l-125 -226h-97l125 226h-105l-125 -226h-97l125 226h-99l13 88h136l60 107h-137l13 88h174l118 213h97l-120 -213h106l119 213h96l-119 -213h97l-14 -88h-131l-61 -107h134zM400 314l61 107h-105l-61 -107h105z" />
    <glyph glyph-name="dollar" unicode="$" horiz-adv-x="392" 
d="M144 -97.5q0 4.5 12 91.5q-51 6 -94 18l10 70q14 -1 57 -5.5t63 -4.5q67 0 67 98q0 28 -74 89q-28 23 -51 57t-23 67q0 143 127 159l14 84q44 0 56 -4.5t12 -26.5l-6 -61l59 -7q-12 -70 -56 -70q-8 0 -50 8q-71 -1 -71 -71q0 -29 78 -90q29 -22 53.5 -55t24.5 -64
q0 -67 -31.5 -119.5t-87.5 -67.5l-20 -113q-59 0 -64 6.5t-5 11z" />
    <glyph glyph-name="percent" unicode="%" horiz-adv-x="611" 
d="M205 393q-46 0 -66 19.5t-20 73.5q0 119 38 179t91.5 60t74 -16.5t20.5 -68.5q0 -109 -36.5 -178t-101.5 -69zM213 467q16 0 28 19t17 48q11 54 11 81.5t-5.5 32t-17.5 4.5q-22 0 -36 -32q-19 -46 -19 -120q0 -33 22 -33zM493.5 18q-29.5 -25 -73.5 -25t-64 19.5
t-20 73.5q0 111 33 175.5t101 64.5q48 0 68.5 -16.5t20.5 -62.5t-5 -83t-18 -79t-42.5 -67zM414 73.5q5 -6.5 18.5 -6.5t25.5 19t18 47q10 53 10 81.5t-5 33t-17 4.5q-55 0 -55 -154q0 -18 5 -24.5zM196 14h-97l403 722h97z" />
    <glyph glyph-name="ampersand" unicode="&#x26;" horiz-adv-x="536" 
d="M384 613l-45 -2h-36q-81 0 -81 -137q0 -29 17.5 -36t60.5 -7l-14 -84q-51 0 -91.5 -50.5t-40.5 -132.5q0 -89 88 -89q56 0 86.5 34t42.5 103l21 127l3 8h-49l13 79h48v12l9 54q38 0 52 -2q30 -3 30 -34q0 -13 -4 -30h74q-8 -53 -19.5 -66t-53.5 -13h-14v-12l-21 -127
q-18 -109 -71.5 -162t-148 -53t-135.5 39t-41 118q0 158 107 240q-37 35 -37 92.5t17 102t45 66.5q54 41 116 41l128 -9q-8 -48 -15 -57t-38 -13h-3z" />
    <glyph glyph-name="quotesingle" unicode="'" horiz-adv-x="165" 
d="M101 522q42 94 42 126.5t18.5 53t44 20.5t39.5 -14.5t14 -36.5t-55.5 -107.5t-61.5 -85.5l-37 27z" />
    <glyph glyph-name="parenleft" unicode="(" horiz-adv-x="248" 
d="M90 -70q-38 36 -38 112t7 160t26 186t47 185t75.5 139t106.5 56q22 0 49 -8q-10 -54 -19 -63.5t-53 -9.5q-37 0 -75 -142.5t-58.5 -293t-20.5 -217.5t37 -67t48 -5.5t11 -21.5t-8 -46q-97 0 -135 36z" />
    <glyph glyph-name="parenright" unicode=")" horiz-adv-x="249" 
d="M112 715l4 45q97 0 136 -38.5t39 -124.5q0 -111 -14.5 -232t-33.5 -197t-45 -141t-66.5 -103.5t-89.5 -38.5q-24 0 -51 9q8 54 17 63.5t54 9.5q37 0 72 135.5t53.5 284.5t18.5 224.5t-36 75.5t-47 5.5t-11 22.5z" />
    <glyph glyph-name="asterisk" unicode="*" horiz-adv-x="302" 
d="M325 501l-73 -38l-23 62l-39 -60l-64 41l44 50h-67l14 72h71l-32 61l72 38l23 -61l39 60l64 -40l-46 -53h66l-11 -72h-71z" />
    <glyph glyph-name="plus" unicode="+" horiz-adv-x="243" 
d="M278 284h-84l4 -18l-14 -70h-77l14 72l8 16h-82l12 77h83l-4 19l14 68h77l-14 -68l-8 -19h83z" />
    <glyph glyph-name="comma" unicode="," horiz-adv-x="154" 
d="M40 22l-1 33q0 23 20.5 41.5t43.5 18.5q48 0 48 -44q0 -21 -51.5 -100t-58.5 -79l-31 19l-5 19q35 59 35 92z" />
    <glyph glyph-name="hyphen" unicode="-" horiz-adv-x="336" 
d="M322 284h-231l11 77h231z" />
    <glyph glyph-name="period" unicode="." horiz-adv-x="177" 
d="M131.5 19.5q-19.5 -19.5 -43.5 -19.5t-38.5 15t-14.5 37.5t19.5 42.5t43.5 20t38.5 -14.5t14.5 -38t-19.5 -43z" />
    <glyph glyph-name="slash" unicode="/" horiz-adv-x="372" 
d="M54 -189h-91l429 911h93z" />
    <glyph glyph-name="zero" unicode="0" horiz-adv-x="410" 
d="M194 -7q-70 0 -102 34t-32 113.5t13.5 175.5t40.5 190.5t77 155t117 60.5q131 0 131 -136q0 -145 -35 -296q-42 -180 -116 -254q-43 -43 -94 -43zM205 84q36 0 71 94t53.5 204t18.5 179q0 35 -14 53t-39 18q-38 0 -73 -93.5t-53 -202t-18 -179.5q0 -35 14.5 -54t39.5 -19
z" />
    <glyph glyph-name="one" unicode="1" horiz-adv-x="410" 
d="M349 679l-92 -595h118l-13 -84h-302l14 84h94l86 545l-60 -10l11 80l73 11h6q42 0 53 -4.5t12 -26.5z" />
    <glyph glyph-name="two" unicode="2" horiz-adv-x="410" 
d="M346 598q0 21 -16 31t-59 10h-48q-37 0 -47.5 4.5t-10.5 25t8 42.5l111 11q92 0 125.5 -24.5t33.5 -76.5q0 -84 -38.5 -144.5t-123.5 -138.5t-94 -116l-21 -127l-6 -13h201l-13 -82h-288l37 233q9 49 43 91.5t82 84.5t66.5 60.5t38 54.5t19.5 74z" />
    <glyph glyph-name="three" unicode="3" horiz-adv-x="410" 
d="M195 72q31 0 53 60q41 108 41 235q0 24 -11 32.5t-40 8.5h-71l128 224h-137l13 78h264l-130 -226q42 -7 58.5 -28.5t16.5 -77t-7 -117t-25 -127t-55.5 -104.5t-91.5 -39q-16 0 -141 21l11 73q123 -13 124 -13z" />
    <glyph glyph-name="four" unicode="4" horiz-adv-x="410" 
d="M240 32l27 182l11 21h-218l276 475h96l-58 -371l-10 -26h42l-12 -78h-44l2 -21l-35 -214q-50 0 -63.5 4.5t-13.5 27.5zM292 313l-5 26l31 199l-115 -225h89z" />
    <glyph glyph-name="five" unicode="5" horiz-adv-x="410" 
d="M181 72q30 0 53 34t34 84q22 102 22 177q0 24 -11 32.5t-40 8.5h-115l48 302h256l-13 -78h-178l7 -25l-15 -101l-13 -19h60q58 0 81 -22.5t23 -73.5t-4 -98t-16.5 -103.5t-32.5 -98.5t-56 -70.5t-84 -28.5h-6q-36 4 -121 9l10 71h111z" />
    <glyph glyph-name="six" unicode="6" horiz-adv-x="410" 
d="M154.5 91.5q6.5 -12.5 29.5 -12.5t45 30.5t35 76.5q25 95 25 187q0 22 -12.5 31.5t-38.5 10.5l-52 -19q-14 -58 -25.5 -140t-12 -117t6 -47.5zM379 393q0 -393 -207 -393q-61 0 -86.5 29.5t-25.5 99t14 167t39.5 195.5t70.5 164.5t100 66.5q5 0 137 -11
q-8 -53 -17.5 -62.5t-53.5 -9.5h-66q-23 0 -39 -34t-39 -126l37 14q78 0 107 -20.5t29 -79.5z" />
    <glyph glyph-name="seven" unicode="7" horiz-adv-x="410" 
d="M182 0h-92l284 632h-190l13 78h291l-12 -67z" />
    <glyph glyph-name="eight" unicode="8" horiz-adv-x="410" 
d="M167 391q-35 40 -35 99t17 110t57.5 90t94.5 39t85.5 -31t31.5 -101.5t-24 -127.5t-59 -89q47 -49 47 -129q0 -135 -84 -215q-45 -43 -107.5 -43t-96.5 40t-34 118t30.5 140.5t76.5 99.5zM199 75q39 0 67 49t28 132q0 42 -13.5 66.5t-34.5 24.5q-36 0 -67 -54t-31 -136
t51 -82zM255 431q22 0 38 18.5t23 47.5q14 52 14 101.5t-36 49.5q-22 0 -38 -17.5t-24 -45.5q-13 -50 -13 -102t36 -52z" />
    <glyph glyph-name="nine" unicode="9" horiz-adv-x="410" 
d="M334 491.5q12 84.5 12 110t-8 33.5t-27 8q-37 0 -63 -53q-46 -92 -46 -241q0 -24 10 -32.5t37 -9.5l57 26q16 74 28 158.5zM197 82q46 0 88 165l-37 -19q-79 0 -107.5 21t-28.5 79q0 394 206 394q65 0 90 -21.5t25 -89.5t-13 -167t-38.5 -202t-71.5 -173.5t-104 -70.5
q-3 0 -42 3.5t-104 8.5l11 72h126z" />
    <glyph glyph-name="colon" unicode=":" horiz-adv-x="181" 
d="M130.5 19.5q-19.5 -19.5 -43 -19.5t-38.5 15t-15 37.5t19.5 42.5t44 20t38.5 -14.5t14 -38t-19.5 -43zM203.5 442q-19.5 -20 -43 -20t-38.5 15t-15 38t20.5 42.5t44 19.5t37.5 -14t14 -37.5t-19.5 -43.5z" />
    <glyph glyph-name="semicolon" unicode=";" horiz-adv-x="153" 
d="M197.5 442q-19.5 -20 -43.5 -20t-38.5 15t-14.5 38t20.5 42.5t44 19.5t37.5 -14t14 -37.5t-19.5 -43.5zM41 22l-1 33q0 23 20.5 41.5t43.5 18.5q48 0 48 -44q0 -21 -52 -100t-58 -79l-31 19l-5 19q35 59 35 92z" />
    <glyph glyph-name="less" unicode="&#x3c;" horiz-adv-x="237" 
d="M222 54h-83l-97 231l4 32l168 220h86l-179 -240z" />
    <glyph glyph-name="equal" unicode="=" horiz-adv-x="363" 
d="M386 332h-287l12 77h287zM363 214h-287l12 77h287z" />
    <glyph glyph-name="greater" unicode="&#x3e;" horiz-adv-x="236" 
d="M108 54h-88l180 247l-100 236h82l98 -224l-5 -31z" />
    <glyph glyph-name="question" unicode="?" horiz-adv-x="339" 
d="M151.5 19.5q-19.5 -19.5 -43.5 -19.5t-39 15t-15 37.5t20 42.5t44 20t38.5 -14.5t14.5 -38t-19.5 -43zM287.5 516q19.5 38 19.5 69t-17 42.5t-63 11.5h-38q-37 0 -47.5 4.5t-10.5 28t8 39.5l101 11q92 0 125 -24.5t33 -76.5t-33 -115t-73 -110q-107 -128 -112 -167
l-5 -41h-86l8 44q11 69 85 149q29 32 57.5 64.5t48 70.5z" />
    <glyph glyph-name="at" unicode="@" horiz-adv-x="556" 
d="M338 250l-4 7l12 74q-42 0 -45 -7l-18 -98zM188 -15q-78 0 -99 41t-21 154q0 341 186 351q247 13 252 13q74 0 74 -74q0 -128 -16 -188q-16 -65 -46 -96q-38 -37 -107.5 -37t-80.5 24l-52 -29q-43 0 -59.5 6.5t-16.5 31.5q0 8 17 136q8 49 52.5 70t102.5 21h61l-28 -181
l-1 -1q50 0 58 22q3 10 18.5 105t15.5 102t-7.5 7t-243.5 -15q-92 -6 -92 -311q0 -74 43 -74h172q37 0 48 -5.5t11 -28.5l-3 -44h-238z" />
    <glyph glyph-name="A" unicode="A" horiz-adv-x="435" 
d="M393 0q-53 0 -63 7.5t-12 50.5l-11 177h-122l-89 -235h-15q-56 0 -62 10q-3 6 -3 17t49 138l215 555h84l49 -720h-20zM303 317l-8 15v215l-74 -215l-12 -15h94z" />
    <glyph glyph-name="B" unicode="B" horiz-adv-x="421" 
d="M415.5 703.5q35.5 -28.5 35.5 -89.5t-15 -124t-39 -94q32 -28 32 -87.5t-3 -96.5t-15.5 -82t-34.5 -72.5t-62.5 -46.5t-97.5 -19q-15 0 -156 9l114 720l112 11q94 0 129.5 -28.5zM231 431q65 0 97 32q24 24 28 82q2 20 2 50t-19 41.5t-70 11.5h-19v-12l-31 -200l-2 -5h14
zM203 77q36 0 62 14.5t39.5 34.5t21.5 52q11 45 11 117q0 28 -16.5 40.5t-59.5 12.5h-58v-12l-40 -254l-2 -5h42z" />
    <glyph glyph-name="C" unicode="C" horiz-adv-x="377" 
d="M230 -7q-80 0 -112.5 43t-32.5 119t5.5 144.5t23 149.5t44.5 141t75.5 101t111.5 41l107 -23q-7 -39 -22 -53.5t-38 -14.5q-3 0 -60 7q-41 0 -73 -54.5t-49 -133.5q-34 -160 -34 -279q0 -97 65 -97q24 0 62 5t53 5l-14 -83q-10 -1 -50 -9.5t-62 -8.5z" />
    <glyph glyph-name="D" unicode="D" horiz-adv-x="472" 
d="M455 689.5q33 -42.5 33 -116.5t-6 -142.5t-23 -149.5t-43.5 -143t-73 -103.5t-105.5 -41.5q-5 0 -177 8l115 720l167 11q80 0 113 -42.5zM239 77q41 0 73.5 56.5t49.5 138.5q35 167 35 279q0 48 -14 72.5t-49 24.5h-84v-12l-87 -554l-2 -5h78z" />
    <glyph glyph-name="E" unicode="E" 
d="M252 640v-11l-30 -194l-2 -5h177l-14 -83h-177v-12l-39 -244v-2q0 -4 -1 -5h199l-13 -84h-292l114 720h282l-13 -80h-191z" />
    <glyph glyph-name="F" unicode="F" horiz-adv-x="375" 
d="M133 0q-31 0 -42 2q-24 3 -24 31q0 6 107 687h283l-14 -80h-191v-11l-30 -194l-2 -5h177l-13 -83h-178v-12l-53 -335h-20z" />
    <glyph glyph-name="G" unicode="G" horiz-adv-x="446" 
d="M422 641l-85 7q-38 0 -69.5 -56.5t-48.5 -137.5q-34 -162 -34 -278q0 -99 64 -99l65 8v13l34 213q8 51 16 59.5t51 8.5h33l-58 -368l-150 -18q-80 0 -112.5 43t-32.5 116.5t5.5 141t22 149t42.5 143.5t71.5 104t104.5 42q9 0 140 -22q-7 -40 -22 -54.5t-37 -14.5z" />
    <glyph glyph-name="H" unicode="H" horiz-adv-x="457" 
d="M368 0q-40 0 -53.5 3.5t-13.5 20.5q0 6 48 315l2 8h-149v-12l-44 -278q-7 -40 -18.5 -48.5t-58.5 -8.5h-21l115 720h16q29 0 39 -2q26 -3 26 -30q0 -10 -37 -253l-2 -5h149v12l44 278h16q55 0 61 -15q3 -7 3 -18t-105 -687h-17z" />
    <glyph glyph-name="I" unicode="I" horiz-adv-x="213" 
d="M131 0q-31 0 -42 2q-24 3 -24 31q0 6 107 687h17q42 0 54 -4.5t12 -20t-107 -695.5h-17z" />
    <glyph glyph-name="J" unicode="J" horiz-adv-x="246" 
d="M230 720q29 0 40 -1q28 -3 26 -31l-84 -542q-28 -192 -63 -246q-43 -66 -99 -82q-34 -10 -79 -10l12 77q73 0 107 110q15 52 32 149q37 221 91 576h17z" />
    <glyph glyph-name="K" unicode="K" horiz-adv-x="464" 
d="M404 0q-53 0 -68 7.5t-27 46.5l-77 310l205 356h12q27 0 37 -1q26 -2 26 -24q0 -7 -35 -70l-149 -264l98 -361h-22zM81 0h-21l114 720h17q38 0 52 -3t14 -16q0 -2 -99 -644q-6 -40 -17 -48.5t-60 -8.5z" />
    <glyph glyph-name="L" unicode="L" horiz-adv-x="361" 
d="M193 720q57 0 63 -10q3 -4 3 -9t-93 -603l-8 -14h110q42 0 53.5 -4.5t11.5 -27.5l-4 -52h-270l114 720h20z" />
    <glyph glyph-name="M" unicode="M" horiz-adv-x="584" 
d="M616 696l-108 -696h-16q-60 0 -66 10q-3 6 -3 13t73 479l-99 -162l-35 -51h-51l-35 53l-51 163l-70 -448q-6 -40 -17.5 -48.5t-59.5 -8.5h-21l114 720h17q47 0 59 -8t24 -47l76 -247l189 302h13q40 0 53.5 -3.5t13.5 -20.5z" />
    <glyph glyph-name="N" unicode="N" horiz-adv-x="455" 
d="M371 0q-50 0 -60.5 7t-18.5 49l-76 397l-63 -396q-6 -40 -17 -48.5t-59 -8.5h-21l114 720h17q49 0 60 -7t18 -49l74 -408l74 464h16q31 0 43 -2q22 -2 22 -24v-7l-106 -687h-17z" />
    <glyph glyph-name="O" unicode="O" horiz-adv-x="481" 
d="M354 46q-52 -53 -124.5 -53t-106.5 44.5t-34 139t14.5 188t43.5 178t81 137t125 52.5t107 -42.5t34 -136.5t-14.5 -188.5t-44 -180t-81.5 -138.5zM244 77q47 0 84.5 88t54 191t16.5 182q0 110 -60 110q-48 0 -85 -87.5t-53.5 -190t-16.5 -182.5q0 -111 60 -111z" />
    <glyph glyph-name="P" unicode="P" horiz-adv-x="459" 
d="M82 0h-22l115 721l141 11q99 0 135.5 -29t36.5 -85.5t-3 -91.5t-16.5 -76t-37 -65t-67.5 -40.5t-106 -16.5h-58v-11l-41 -260q-5 -40 -16.5 -48.5t-60.5 -8.5zM267 412q116 0 127 129q2 24 2 54t-18.5 41.5t-69.5 11.5h-58v-12l-33 -219l-2 -5h52z" />
    <glyph glyph-name="Q" unicode="Q" horiz-adv-x="468" 
d="M523.5 -157.5q-11.5 -7.5 -65.5 -7.5t-175.5 22t-180.5 23l-43 1q7 39 10.5 50t12.5 16l80 61q-72 31 -72 170q0 162 37 298q43 159 123 221q44 35 98 35q78 0 111.5 -43.5t33.5 -138.5q0 -146 -47 -332q-22 -90 -61 -151.5t-84 -63.5l-106 -54q219 -29 305 -31l46 -1
l-6 -35q-5 -32 -16.5 -39.5zM244 77q37 0 69 50.5t51 124.5q39 156 39 276t-64 120q-49 0 -87 -85.5t-54.5 -186.5t-16.5 -183q0 -116 63 -116z" />
    <glyph glyph-name="R" unicode="R" horiz-adv-x="453" 
d="M401 0q-57 0 -68.5 6.5t-24.5 48.5l-82 273h-26v-11l-40 -260q-6 -40 -17.5 -48.5t-59.5 -8.5h-23l114 721l122 11q89 0 122 -28t33 -86q0 -244 -135 -287l108 -331h-23zM247 412q111 0 111 191q0 25 -15 35t-55 10h-45l4 -28l-28 -191l-12 -17h40z" />
    <glyph glyph-name="S" unicode="S" horiz-adv-x="391" 
d="M301 236q0 17 -13 38.5t-25.5 35t-40.5 42.5v-1q-36 37 -54.5 58t-37.5 58t-19 78.5t7.5 73.5t27.5 59q40 54 165 54l113 -23q-7 -39 -19.5 -52.5t-33.5 -13.5l-67 7q-58 -1 -79.5 -26.5t-21.5 -72.5q0 -44 67 -107q28 -27 56 -54.5t47.5 -62.5t19.5 -70
q0 -263 -218 -264l-149 21l11 82l152 -11q112 6 112 151z" />
    <glyph glyph-name="T" unicode="T" horiz-adv-x="333" 
d="M141 0h-25l100 636l2 4h-105l13 80h302l-14 -80h-106v-11l-90 -572q-6 -40 -17.5 -48.5t-59.5 -8.5z" />
    <glyph glyph-name="U" unicode="U" horiz-adv-x="468" 
d="M261 697l-82 -572q0 -19 14 -33.5t45 -14.5q56 0 76.5 45.5t41.5 178.5l67 419h19q40 0 53 -3.5t13 -20.5q0 -1 -13.5 -89t-34 -225t-26 -166.5t-14.5 -67.5t-19 -57.5t-25.5 -41.5t-35.5 -32q-48 -24 -110 -24q-143 0 -143 103q0 18 89 624h19q57 0 63 -10q3 -4 3 -13z
" />
    <glyph glyph-name="V" unicode="V" horiz-adv-x="414" 
d="M396 720q34 0 43.5 -3.5t9.5 -10t-2 -11.5l-226 -610q-23 -64 -32.5 -74.5t-44.5 -10.5q-39 0 -57 46q-7 19 -7 44l-1 630h24q50 0 58.5 -7.5t8.5 -51.5l-8 -500l210 559h24z" />
    <glyph glyph-name="W" unicode="W" horiz-adv-x="572" 
d="M324 90v269l-97 -274q-22 -64 -32 -74.5t-45 -10.5q-39 0 -57 46q-7 19 -7 44l-1 630h26q44 0 51.5 -6.5t8.5 -45.5l5 -495l106 294l27 61h74l26 -65v-282l179 539h37.5t22.5 -1q12 -1 18 -5t6 -7l-2 -12l-205 -610q-21 -64 -31 -74.5t-46 -10.5q-39 0 -57 46
q-7 19 -7 44z" />
    <glyph glyph-name="X" unicode="X" horiz-adv-x="383" 
d="M325 0q-42 0 -50.5 7t-14.5 49l-30 209l-102 -213q-19 -39 -29.5 -45.5t-47.5 -6.5h-46l189 357l-63 363h39q40 0 48.5 -7.5t15.5 -49.5l31 -223l128 280h15q34 0 47.5 -5t13.5 -21q0 -24 -171 -340l65 -354h-38z" />
    <glyph glyph-name="Y" unicode="Y" horiz-adv-x="375" 
d="M231 0h-35t-24.5 2t-13.5 6q-10 9 -10 25.5t47 313.5l-73 373h32q43 0 53.5 -8.5t17.5 -47.5l34 -197l130 253h19q30 0 43 -2t13 -9t-180 -365z" />
    <glyph glyph-name="Z" unicode="Z" horiz-adv-x="370" 
d="M325 0h-302l12 73l301 567h-203l14 80h304l-11 -68l-305 -568h203z" />
    <glyph glyph-name="bracketleft" unicode="[" horiz-adv-x="201" 
d="M100 -66q-28 0 -38 1q-22 2 -22 29q0 7 0.5 11.5t1 11t2.5 18t5 28t8 46.5t11.5 68t16 97.5t20.5 129.5t27 170.5t33 215.5h88q39 0 50 -4.5t11 -26.5l-7 -41h-75l-107 -682h9q38 0 49 -4.5t11 -26.5l-6 -41h-88z" />
    <glyph glyph-name="backslash" unicode="\" horiz-adv-x="372" 
d="M336 -189h-89l-144 911h90z" />
    <glyph glyph-name="bracketright" unicode="]" horiz-adv-x="204" 
d="M75 -66h-91q8 54 17.5 63t55.5 9h14l107 682h-76q9 54 18.5 63t56.5 9h93l-123 -770q-5 -40 -16 -48t-56 -8z" />
    <glyph glyph-name="asciicircum" unicode="^" horiz-adv-x="411" 
d="M465 567l-161 78l-186 -79l11 86l166 70h32l148 -73z" />
    <glyph glyph-name="underscore" unicode="_" horiz-adv-x="613" 
d="M542 -1h-494l11 77h495z" />
    <glyph glyph-name="grave" unicode="`" horiz-adv-x="172" 
d="M116 695q30 27 45 27t46 -37l60 -83l-58 -52l-110 130z" />
    <glyph glyph-name="a" unicode="a" horiz-adv-x="367" 
d="M64 17q-21 24 -21 84.5t8 129t26 144t54.5 124.5t86.5 49q27 0 105 -26q28 -2 46 -16.5t18 -38.5q0 -1 -73 -467q-50 0 -63.5 5t-13.5 24v5l3 33l-88 -74q-67 0 -88 24zM227 466q-30 0 -54.5 -77.5t-34 -154t-9.5 -107t4.5 -40t18.5 -9.5l103 77v17l43 262l3 11
q-59 21 -74 21z" />
    <glyph glyph-name="b" unicode="b" horiz-adv-x="373" 
d="M224 712q8 -7 8 -21t-22 -147h54q67 0 94 -26.5t27 -89.5t-8 -131.5t-25.5 -141.5t-54 -120t-85.5 -47q-17 0 -81 49q-6 -27 -19.5 -32t-70.5 -5l113 722q36 0 49 -1.5t21 -8.5zM195 465q0 -1 1 -4l-52 -339l-5 -14l58 -36q2 -1 6 -1q39 0 67 131t28 206q0 57 -38 57h-65
z" />
    <glyph glyph-name="c" unicode="c" horiz-adv-x="313" 
d="M295 460l-50 5q-28 0 -49 -43.5t-32 -105.5q-19 -115 -19 -167.5t8.5 -64.5t30.5 -12l100 11l-10 -72l-97 -18q-66 0 -92 26t-26 86.5t7.5 127t25.5 141.5t56.5 123.5t91.5 48.5q7 0 112 -17q-12 -69 -57 -69z" />
    <glyph glyph-name="d" unicode="d" horiz-adv-x="378" 
d="M428 698q0 -1 -108 -698q-50 0 -64 4.5t-14 27.5q0 2 1 4l-62 -43q-68 0 -94.5 25.5t-26.5 87t8.5 128.5t28.5 141.5t63.5 121.5t103.5 47h58l27 178q47 0 63 -3.5t16 -20.5zM252 465q-36 0 -62 -77.5t-35 -151.5t-9 -107.5t8 -44.5t29 -12l73 37v17l52 334l2 5h-58z" />
    <glyph glyph-name="e" unicode="e" horiz-adv-x="353" 
d="M183 -7q-70 0 -97 25t-27 86q0 348 135 422q32 18 81 18t72 -24.5t23 -77.5q0 -48 -18 -108q-12 -37 -41.5 -61t-73.5 -24h-88v-11q-6 -44 -6 -78t1 -44.5t5 -22.5t14 -15.5t44 -3.5t114 17l-11 -80q-90 -18 -127 -18zM226 318q22 0 36 23q23 36 23 80t-27 44
q-43 0 -63 -31.5t-30 -99.5l-6 -16h67z" />
    <glyph glyph-name="f" unicode="f" horiz-adv-x="231" 
d="M-81 -189l11 70q66 0 89.5 31.5t34.5 103.5l65 417l10 24h-53l13 80h55l-5 27q17 105 45 125q34 25 77.5 28.5t90.5 3.5l-10 -73q-72 0 -91 -13q-14 -10 -18.5 -31.5t-8.5 -45.5l-12 -21h90l-13 -80h-92l6 -21l-67 -424q-16 -95 -35 -124q-29 -43 -56 -54
q-55 -23 -126 -23z" />
    <glyph glyph-name="g" unicode="g" horiz-adv-x="394" 
d="M161 -189h-43q-34 0 -44 3.5t-12 10t-2 19.5l4 39l103 7q45 0 55.5 12.5t19.5 63.5l10 60l-58 -33q-71 0 -98.5 28t-27.5 92.5t9 132.5q25 188 93 259q39 40 89 40q6 0 12 -1l75 -7q43 0 54.5 -4t11.5 -19q0 -4 -1 -8l-87 -558q-12 -79 -42.5 -108t-120.5 -29zM267 465
q-37 0 -65 -69.5t-38 -141t-10 -111.5t10.5 -55t34.5 -16l70 36l-2 18l52 331l3 8h-55z" />
    <glyph glyph-name="h" unicode="h" horiz-adv-x="390" 
d="M238 697l-23 -153h74q110 0 110 -85q0 -9 -64 -459q-51 0 -64.5 5t-13.5 29q54 384 54 393q0 38 -30 38h-86l6 -25l-62 -384q-5 -40 -18.5 -48t-74.5 -8l113 722q69 0 75 -10q4 -6 4 -15z" />
    <glyph glyph-name="i" unicode="i" horiz-adv-x="187" 
d="M210.5 615q-17.5 -19 -41 -19t-35.5 14t-12 37.5t17.5 43t41.5 19.5q47 0 47 -50q0 -26 -17.5 -45zM195 514l-80 -518q-69 0 -77 10q-3 4 -3 11t1 10l80 510q67 0 75 -9q4 -5 4 -14z" />
    <glyph glyph-name="j" unicode="j" horiz-adv-x="193" 
d="M220.5 615q-17.5 -19 -41.5 -19t-36 14t-12 38t18 43t41.5 19t35.5 -13.5t12 -38t-17.5 -43.5zM-90 -189l11 70q66 0 89.5 31.5t34.5 103.5l82 521q67 0 75 -9q3 -5 3 -13l-78 -503q-6 -40 -11 -62t-19.5 -53t-35.5 -47q-54 -39 -151 -39z" />
    <glyph glyph-name="k" unicode="k" horiz-adv-x="355" 
d="M384 0h-91l-88 295l158 242h92l-162 -248zM124 0q-44 0 -55.5 4t-11.5 13.5t1 13.5l107 691q47 0 61 -3.5t16 -9t2 -10.5t-1 -10l-105 -677z" />
    <glyph glyph-name="l" unicode="l" horiz-adv-x="199" 
d="M57 6q-3 4 -3 11t109 705q67 0 75 -10q4 -6 4 -11t-20 -133.5t-87 -558.5l-14 -13q-58 0 -64 10z" />
    <glyph glyph-name="m" unicode="m" horiz-adv-x="603" 
d="M258 23l57 406q0 36 -35 36l-84 -47v-17l-62 -401q-69 0 -76 10q-4 4 -4 11t80 516h18t26 -1.5t20.5 -11t9.5 -29.5v-8q9 6 28 22q40 35 52 35q44 0 68.5 -11t30.5 -23t9 -34q11 26 42.5 47t51.5 21q61 0 89 -14.5t28 -55.5q0 -7 -67 -474q-69 0 -76 10q-4 4 -4 12
q6 56 59 416q0 27 -37 27q-12 0 -83 -46v-18l-62 -401q-68 0 -75 10q-4 4 -4 13z" />
    <glyph glyph-name="n" unicode="n" horiz-adv-x="390" 
d="M256 24l58 405q0 21 -7.5 28.5t-25.5 7.5l-85 -45v-17l-65 -403q-68 0 -75 10q-4 4 -4 11t79 516h23q55 0 57 -31q8 4 22 14q31 24 53 24q59 0 87 -16t28 -58q0 -8 -65 -470q-49 0 -64.5 3.5t-15.5 20.5z" />
    <glyph glyph-name="o" unicode="o" horiz-adv-x="374" 
d="M262.5 15.5q-35.5 -22.5 -92.5 -22.5t-83.5 26t-26.5 96.5t9 141t30 138.5t63.5 108.5t106 40.5t90.5 -25.5t27 -76.5t-2 -88.5t-8 -92.5t-20.5 -98.5t-36 -84t-57 -63zM190 72q33 0 57 43.5t34 106.5q19 120 19 191q0 28 -10 40t-34 12q-36 0 -63 -69q-47 -119 -47 -271
q0 -28 10 -40.5t34 -12.5z" />
    <glyph glyph-name="p" unicode="p" horiz-adv-x="380" 
d="M20 -180q-4 5 -4 12t110 704l143 8q66 0 92.5 -30t26.5 -93.5t-8 -130.5t-26.5 -139t-55 -118t-85.5 -46q-19 0 -84 40l-34 -216q-68 0 -75 9zM205 69q41 0 68.5 122t27.5 184.5t-7.5 76t-37.5 13.5h-59v-11l-52 -333l-6 -15q61 -37 66 -37z" />
    <glyph glyph-name="q" unicode="q" 
d="M406 514l-110 -703q-68 0 -76 9q-3 5 -3 12t30 194l-59 -33q-70 0 -98 28t-28 92t9 130.5t28.5 138t59.5 117t95 45.5h12l75 -7q56 0 62 -10q3 -5 3 -13zM261 465q-37 0 -64.5 -69.5t-38 -141t-10.5 -111.5t10.5 -55t34.5 -16l70 36l-2 18l54 331l3 8h-57z" />
    <glyph glyph-name="r" unicode="r" horiz-adv-x="269" 
d="M34 10q-3 4 -3 11t80 516q52 0 65.5 -4t13.5 -23v-8q42 42 84 42q17 0 44 -14q-8 -47 -17 -56t-49 -9q-12 0 -80 -56v-20l-61 -389q-69 0 -77 10z" />
    <glyph glyph-name="s" unicode="s" horiz-adv-x="314" 
d="M225 178q0 29 -71 86q-27 21 -49.5 54t-23.5 66q0 79 36 118.5t111 43.5l103 -13q-8 -68 -54 -70l-53 6q-60 -4 -60 -60q0 -39 74 -99q28 -23 51.5 -55t23.5 -69.5t-13.5 -81t-48.5 -77.5t-85 -34l-128 12l10 77l124 -5q23 1 38 31.5t15 69.5z" />
    <glyph glyph-name="t" unicode="t" horiz-adv-x="250" 
d="M59 62q0 6 54 391l2 4h-38l13 80h39v11l11 64q51 0 65 -4.5t14 -27.5l-7 -34l-2 -9h86q-9 -54 -19.5 -67t-51.5 -13h-28v-11q-52 -350 -52 -356q0 -18 14 -18h81l-11 -71l-78 -6q-92 0 -92 67z" />
    <glyph glyph-name="u" unicode="u" 
d="M387 528q4 -5 4 -11t-79 -517q-52 0 -66 4.5t-14 26.5l1 10l-74 -48q-116 0 -116 87q0 8 64 457q48 0 63.5 -3.5t15.5 -20.5l-55 -404q0 -37 26 -37l92 56v17l63 392q67 0 75 -9z" />
    <glyph glyph-name="v" unicode="v" horiz-adv-x="327" 
d="M395 519q0 -5 -149 -434q-23 -64 -32.5 -74.5t-44.5 -10.5q-21 0 -35 14q-27 27 -29 76l-13 447q54 0 68 -11t14 -47v-363l143 421q47 0 62.5 -2.5t15.5 -15.5z" />
    <glyph glyph-name="w" unicode="w" horiz-adv-x="548" 
d="M310 90l1 229l-74 -234q-19 -61 -30 -73t-39 -12q-37 0 -55 46q-7 19 -8 44l-11 447q62 0 73.5 -7.5t11.5 -50.5l1 -327q79 230 102.5 282t49.5 52q41 0 49.5 -6t8.5 -38v-287l126 382h23t34.5 -2t14.5 -11l-15 -47q-51 -161 -125 -392q-23 -64 -32.5 -74.5t-37 -10.5
t-48 20.5t-20.5 69.5z" />
    <glyph glyph-name="x" unicode="x" horiz-adv-x="318" 
d="M10 16q0 5 137 276l-50 245q61 0 73.5 -7t22.5 -46l15 -120l80 173q69 0 69 -16q0 -4 -112 -243l60 -278h-84l-39 201l-100 -201q-72 0 -72 16z" />
    <glyph glyph-name="y" unicode="y" horiz-adv-x="317" 
d="M171 487v-8v-369l134 427q40 0 57 -3.5t17 -16.5q0 -3 -87.5 -259.5t-93.5 -272.5q-35 -87 -61 -116q-47 -54 -153 -58l10 73q52 0 81.5 35.5t29.5 86.5l-15 531q62 0 71.5 -7t9.5 -43z" />
    <glyph glyph-name="z" unicode="z" horiz-adv-x="333" 
d="M186 537h193l-13 -71l-235 -387h105q40 0 52.5 -4t12.5 -23q0 -5 -4 -52h-270l10 69l227 388h-147q10 60 19 70t50 10z" />
    <glyph glyph-name="braceleft" unicode="{" horiz-adv-x="240" 
d="M338 750q3 -4 3 -8v-6l-8 -48h-75l-29 -183l-94 -156l45 -156l-30 -187h10q38 0 49 -4.5t11 -27t-6 -40.5h-87q-28 0 -38 1q-23 2 -23 29q0 6 35 230l-44 145l4 29l90 147l40 245h88q53 0 59 -10z" />
    <glyph glyph-name="bar" unicode="|" horiz-adv-x="190" 
d="M25 -180q-3 5 -3 12t139 890q67 0 75 -10q4 -6 4 -11t-25.5 -168t-110.5 -710l-14 -12q-59 0 -65 9z" />
    <glyph glyph-name="braceright" unicode="}" horiz-adv-x="239" 
d="M87 -66h-93q10 54 19.5 63t55.5 9h13l31 193l94 156l-45 155l28 178h-76q9 54 18.5 63t55.5 9h93l-40 -250l44 -146l-4 -30l-92 -146l-30 -198q-6 -40 -16 -48t-56 -8z" />
    <glyph glyph-name="asciitilde" unicode="~" horiz-adv-x="377" 
d="M161 368l160 -10l28 3l32 -2l-6 -37q-5 -30 -14 -35t-60 -5l-162 10l-28 -2l-30 2l6 36q5 30 14 35t60 5z" />
    <glyph glyph-name="uni00A0" unicode="&#xa0;" horiz-adv-x="190" 
 />
    <glyph glyph-name="exclamdown" unicode="&#xa1;" horiz-adv-x="162" 
d="M211 492v-9q-4 -23 -23 -39.5t-41.5 -16.5t-37 15t-14.5 38t20 42.5t43.5 19.5t38 -14t14.5 -36zM-12 -169l96 482q8 41 19 47.5t72 7.5l-85 -482q-7 -36 -25 -45.5t-77 -9.5z" />
    <glyph glyph-name="cent" unicode="&#xa2;" horiz-adv-x="344" 
d="M289 542l83 -6q-9 -53 -18 -62t-54 -9h-56q-41 0 -69 -73q-45 -117 -45 -262q0 -31 11 -44.5t34 -13.5t123 10l-10 -71l-85 -14q-6 -30 -10.5 -64.5t-6.5 -44.5q-46 0 -58 4.5t-12 21t2 29t5 28t4 25.5q-46 8 -64.5 34t-18.5 74.5t3.5 98t14.5 112.5t28.5 111.5t49 82
t72.5 33.5l14 87q45 0 57.5 -4.5t12.5 -26t-7 -56.5z" />
    <glyph glyph-name="sterling" unicode="&#xa3;" horiz-adv-x="381" 
d="M240 537l-40 -260q16 -1 36.5 -1t38.5 2l31 -1l-5 -36q-4 -31 -14 -36t-61 -5h-38l-17 -114l-2 -5h102q29 0 39 -1q26 -2 26 -25q0 -5 -4 -56h-260l34 209q-12 1 -30 1t-32 -2l-30 2l5 36q4 31 14 36t43 5t41 -1l45 276q46 0 62 -3.5t16 -20.5z" />
    <glyph glyph-name="currency" unicode="&#xa4;" horiz-adv-x="486" 
d="M340.5 334q22.5 21 22.5 45.5t-14 38t-38 13.5t-47.5 -21t-23.5 -45.5t14 -38t39 -13.5t47.5 21zM283 234q-33 0 -62 15l-84 -63q-30 33 -30 46.5t10 26t31 28t24 18.5q-11 24 -11 60t32 77l-51 72q37 34 53 34t40 -30l20 -25q38 17 72 17t62 -19l82 62
q31 -33 30.5 -49.5t-66.5 -69.5q8 -21 8 -44q0 -47 -30 -88l51 -73q-38 -34 -52 -33.5t-24 9t-22.5 25.5t-15.5 20q-34 -16 -67 -16z" />
    <glyph glyph-name="yen" unicode="&#xa5;" horiz-adv-x="402" 
d="M155 23l8 60q-32 2 -42 2t-28 -2l-29 2l4 36q3 30 13.5 35.5t46 5.5t47.5 -1l2 13q-32 2 -42.5 2t-26.5 -2l-30 2l5 36q5 31 14 36t46.5 5t48.5 -1v9l-92 276h34q38 0 47 -6.5t22 -46.5l44 -134l115 187h23h6q52 0 52 -12q0 -5 -168 -267q-1 -4 -2.5 -6.5t-3.5 -8.5
q15 -1 37 -1t36 3l30 -2l-4 -36q-4 -29 -14 -34.5t-61 -5.5h-32l-2 -15q59 0 69 2l30 -2l-5 -36q-4 -30 -13.5 -35t-60.5 -5h-33l-11 -76h-17q-54 0 -60 10q-3 4 -3 13z" />
    <glyph glyph-name="brokenbar" unicode="&#xa6;" horiz-adv-x="176" 
d="M100 314q-4 5 -4 11.5t61 396.5q49 0 65.5 -4t16.5 -23q0 -1 -10.5 -70t-46.5 -308l-15 -12q-60 0 -67 9zM162 204q0 -1 -4 -25t-8 -51.5t-17 -110.5t-29 -190l-14 -13q-60 0 -68 10q-3 4 -3 13l60 394q50 0 66.5 -4t16.5 -23z" />
    <glyph glyph-name="section" unicode="&#xa7;" horiz-adv-x="326" 
d="M35 93q108 -21 126 -21t30 6t18.5 13t11.5 23q7 22 13 56q0 28 -76 92q-28 25 -51.5 61t-23.5 69q0 85 44 121q-15 27 -15 53q0 81 39 117t126 38l103 -15q-13 -71 -59 -71q-12 0 -52 7q-42 0 -56.5 -15t-14.5 -39.5t24 -51.5t52.5 -50.5t52.5 -58t24 -66.5
q0 -84 -40 -136q11 -21 11 -42q0 -81 -39.5 -135.5t-129.5 -54.5q-27 0 -129 29zM255 299q8 30 8 43t-4.5 21.5t-14 19t-18.5 19.5q-27 25 -47 45q-6 -8 -10 -39l-1 -5q0 -22 28 -49q11 -10 30.5 -28t28.5 -27z" />
    <glyph glyph-name="dieresis" unicode="&#xa8;" horiz-adv-x="341" 
d="M239.5 615.5q-19.5 -19.5 -43 -19.5t-38.5 14.5t-15 37.5t20 42.5t44 19.5t38 -14t14 -37.5t-19.5 -43zM380.5 696q14.5 -14 14.5 -37.5t-20 -43t-43.5 -19.5t-38.5 14.5t-15 37.5t20.5 42.5t44 19.5t38 -14z" />
    <glyph glyph-name="copyright" unicode="&#xa9;" horiz-adv-x="653" 
d="M247 198q0 45 5.5 89t18 92.5t40.5 78.5t67 30q5 0 95 -6q-7 -46 -14 -53.5t-39 -7.5h-41q-27 0 -44 -79.5t-17 -122t16 -43.5q57 9 102 12l-11 -69l-94 -14q-46 0 -65 24t-19 69zM319 0q-110 0 -177.5 69.5t-67.5 175.5q0 131 98 236.5t235 105.5q108 0 175.5 -70
t67.5 -176q0 -138 -99.5 -239.5t-231.5 -101.5zM326 77q100 0 173 76.5t73 180.5q0 76 -47.5 126t-125.5 50q-98 0 -172.5 -77.5t-74.5 -178.5q0 -77 48 -127t126 -50z" />
    <glyph glyph-name="ordfeminine" unicode="&#xaa;" horiz-adv-x="271" 
d="M218 460l10 61q-42 -2 -44 -14l-10 -68l1 -1zM150 681l2 31l80 11q88 0 88 -49l-44 -301q-54 0 -58 6t-5 14l-39 -25q-29 0 -41 1.5t-22 9.5t-10 21.5t13 109.5q11 80 128 84l8 53q0 8 -23 8h-51t-26 26z" />
    <glyph glyph-name="guillemotleft" unicode="&#xab;" horiz-adv-x="323" 
d="M166 128h-81l-48 160l4 30l97 156h85l-108 -177zM303 128h-81l-48 160l4 30l97 156h85l-108 -177z" />
    <glyph glyph-name="logicalnot" unicode="&#xac;" horiz-adv-x="356" 
d="M258 210l11 76h-208l13 79h281l-15 -93q-8 -47 -18 -54.5t-64 -7.5z" />
    <glyph glyph-name="registered" unicode="&#xae;" horiz-adv-x="653" 
d="M460.5 471.5q20.5 -16.5 20.5 -52t-4 -61.5t-22 -53t-51 -35l63 -145q-52 0 -65 6t-22 27l-42 92l-13 -86q-5 -29 -14.5 -34t-63.5 -5l57 357l80 6q56 0 76.5 -16.5zM360 333q29 0 39 16.5t10 57.5q0 13 -30 13h-14l-13 -87h8zM319 0q-110 0 -177.5 69.5t-67.5 175.5
q0 131 98 236.5t235 105.5q108 0 175.5 -70t67.5 -176q0 -138 -99.5 -239.5t-231.5 -101.5zM326 77q100 0 173 76.5t73 180.5q0 76 -47.5 126t-125.5 50q-98 0 -172.5 -77.5t-74.5 -178.5q0 -77 48 -127t126 -50z" />
    <glyph glyph-name="macron" unicode="&#xaf;" horiz-adv-x="336" 
d="M379 634h-232l13 76h232z" />
    <glyph glyph-name="degree" unicode="&#xb0;" horiz-adv-x="348" 
d="M368.5 687q34.5 -34 34.5 -90.5t-50 -104t-106.5 -47.5t-91.5 34.5t-35 90t48.5 103.5t107 48t93 -34zM300 544.5q23 20.5 23 45t-14.5 38.5t-39 14t-47 -21t-22.5 -45.5t14 -38t38.5 -13.5t47.5 20.5z" />
    <glyph glyph-name="plusminus" unicode="&#xb1;" horiz-adv-x="279" 
d="M231 386v-11l-14 -76h-78l16 83l2 4h-77l11 77h79v11l14 76h78l-17 -87h77l-11 -77h-80zM275 185h-232l12 76h231z" />
    <glyph glyph-name="twosuperior" unicode="&#xb2;" horiz-adv-x="270" 
d="M243 648q0 6 -15 6h-33q-23 0 -30.5 4t-7.5 23l5 38l75 6q47 -1 64.5 -16t17.5 -48.5t-15.5 -59.5t-34.5 -39q-55 -36 -66 -62l-6 -29h95l-11 -70h-169l18 108q7 39 62 77q51 35 51 62z" />
    <glyph glyph-name="threesuperior" unicode="&#xb3;" horiz-adv-x="256" 
d="M198 465q11 0 18 39.5t7 64.5q0 5 -5 5h-59l53 78h-58l10 70h170l-68 -96q18 -7 25 -18t7 -32q0 -182 -93 -182q-8 0 -90 11l9 65l73 -5h1z" />
    <glyph glyph-name="acute" unicode="&#xb4;" horiz-adv-x="173" 
d="M231 722q15 0 49 -38q3 -4 5 -6l-149 -129l-45 57l91 86q34 30 49 30z" />
    <glyph glyph-name="mu" unicode="&#xb5;" horiz-adv-x="380" 
d="M210 507q0 -6 -62 -396l-4 -8l72 -29q46 1 66.5 72t63.5 337q7 42 18.5 49t75.5 7l-43 -268q-24 -150 -43 -189q-27 -54 -54 -66q-42 -21 -97 -21l-71 30v-9l-23 -143q-5 -40 -18 -48t-74 -8l114 722q51 0 65 -4.5t14 -27.5z" />
    <glyph glyph-name="paragraph" unicode="&#xb6;" horiz-adv-x="510" 
d="M112 564q0 61 47 106.5t112 50.5h318l-13 -88h-100l-98 -633h-89l100 633h-57l-98 -633h-89l71 446q-43 8 -73.5 41.5t-30.5 76.5z" />
    <glyph glyph-name="periodcentered" unicode="&#xb7;" horiz-adv-x="176" 
d="M170.5 261.5q-19.5 -19.5 -43.5 -19.5t-38.5 14.5t-14.5 37.5t20 42.5t43.5 19.5t38 -14t14.5 -37.5t-19.5 -43z" />
    <glyph glyph-name="cedilla" unicode="&#xb8;" horiz-adv-x="177" 
d="M69 -175h-33q-48 0 -54 9q-3 4 -3 18.5t4 44.5h83l16 103h72l-18 -117q-6 -38 -17 -48t-50 -10z" />
    <glyph glyph-name="onesuperior" unicode="&#xb9;" horiz-adv-x="184" 
d="M210 723q30 0 36 -5t6 -10.5t-3 -22.5l-44 -284h-76l40 246l-43 -11l11 72l46 15h27z" />
    <glyph glyph-name="ordmasculine" unicode="&#xba;" horiz-adv-x="282" 
d="M262.5 400.5q-29.5 -30.5 -73.5 -30.5t-62.5 17t-18.5 79.5t12 120.5t43.5 96.5t79.5 38.5t66.5 -14.5t18.5 -57t-5 -83t-18 -88.5t-42.5 -78.5zM200 447q21 0 37.5 63.5t16.5 116.5q0 12 -4.5 15t-14.5 3q-19 0 -33 -39q-21 -63 -21 -136q0 -14 4 -18.5t15 -4.5z" />
    <glyph glyph-name="guillemotright" unicode="&#xbb;" horiz-adv-x="323" 
d="M240 128h-86l107 176l-49 170h79l48 -161l-4 -30zM95 128h-86l107 176l-49 170h79l48 -161l-4 -30z" />
    <glyph glyph-name="onequarter" unicode="&#xbc;" horiz-adv-x="277" 
d="M246 723q26 0 33.5 -4t7.5 -19t-42 -272h-76l36 218l-44 -10l11 74l43 13h31zM297 324h-221l11 73h220zM198 71l1 -3l-11 -68h-67l11 70v1h-124l151 217h71l-24 -163h22l-7 -54h-23zM150 126v5l17 79l-59 -84h42z" />
    <glyph glyph-name="onehalf" unicode="&#xbd;" horiz-adv-x="302" 
d="M137 162q21 10 41 25.5t20 40.5q0 6 -15 6h-33q-17 0 -23 1q-15 3 -15 25q0 6 5 38l75 6q47 -1 64.5 -16t17.5 -47t-16.5 -56.5t-51.5 -52.5t-48 -43l-6 -29h95l-9 -60h-169l16 98q-1 20 15 37t37 27zM263 723q27 0 36 -4.5t6 -23.5l-44 -267h-76l37 219l-42 -11l10 72
l46 15h27zM317 324l-221 -1l11 74h220z" />
    <glyph glyph-name="threequarters" unicode="&#xbe;" horiz-adv-x="282" 
d="M297 324h-220l10 73h221zM198 71l1 -3l-11 -68h-67l11 70v1h-124l151 217h71l-24 -163h22l-7 -54h-23zM150 126v5l17 79l-59 -84h42zM222 569q0 5 -5 5h-60l53 78h-58l11 70h169l-68 -96q19 -7 25.5 -18t6.5 -32q0 -82 -22.5 -120t-83.5 -38l-76 10l9 65l73 -5
q11 0 18.5 30.5t7.5 50.5z" />
    <glyph glyph-name="questiondown" unicode="&#xbf;" horiz-adv-x="339" 
d="M355 527q15 -15 15 -37.5t-20 -42.5t-44 -20t-38.5 14.5t-14.5 38t19.5 43t43.5 19.5t39 -15zM26 -79q0 52 33 115t73 110q107 128 112 167l5 41h86l-8 -44q-11 -69 -85 -149q-29 -32 -58 -65q-67 -76 -67 -147q0 -23 17 -34.5t63 -11.5h38q37 0 47.5 -4.5t10.5 -28
t-8 -39.5l-101 -11q-92 0 -125 24.5t-33 76.5z" />
    <glyph glyph-name="Agrave" unicode="&#xc0;" horiz-adv-x="435" 
d="M393 0q-53 0 -63 7.5t-12 50.5l-11 177h-122l-89 -235h-15q-56 0 -62 10q-3 6 -3 17t49 138l215 555h84l49 -720h-20zM303 317l-8 15v215l-74 -215l-12 -15h94zM208 890q30 27 45 27t46 -37l60 -83l-58 -52l-110 130z" />
    <glyph glyph-name="Aacute" unicode="&#xc1;" horiz-adv-x="435" 
d="M393 0q-53 0 -63 7.5t-12 50.5l-11 177h-122l-89 -235h-15q-56 0 -62 10q-3 6 -3 17t49 138l215 555h84l49 -720h-20zM303 317l-8 15v215l-74 -215l-12 -15h94zM443 917q15 0 49 -38q3 -4 5 -6l-149 -129l-45 57l91 86q34 30 49 30z" />
    <glyph glyph-name="Acircumflex" unicode="&#xc2;" horiz-adv-x="435" 
d="M393 0q-53 0 -63 7.5t-12 50.5l-11 177h-122l-89 -235h-15q-56 0 -62 10q-3 6 -3 17t49 138l215 555h84l49 -720h-20zM303 317l-8 15v215l-74 -215l-12 -15h94zM459 770l-113 69l-139 -71l14 86l118 63h32l102 -65z" />
    <glyph glyph-name="Atilde" unicode="&#xc3;" horiz-adv-x="435" 
d="M393 0q-53 0 -63 7.5t-12 50.5l-11 177h-122l-89 -235h-15q-56 0 -62 10q-3 6 -3 17t49 138l215 555h84l49 -720h-20zM303 317l-8 15v215l-74 -215l-12 -15h94zM301 837l110 -3q27 0 42 3l30 -2l-5 -36q-4 -30 -14 -35t-61 -5l-110 3q-28 0 -41 -3l-31 2l5 36
q7 30 15.5 35t59.5 5z" />
    <glyph glyph-name="Adieresis" unicode="&#xc4;" horiz-adv-x="435" 
d="M393 0q-53 0 -63 7.5t-12 50.5l-11 177h-122l-89 -235h-15q-56 0 -62 10q-3 6 -3 17t49 138l215 555h84l49 -720h-20zM303 317l-8 15v215l-74 -215l-12 -15h94zM313.5 809.5q-19.5 -19.5 -43 -19.5t-38.5 14.5t-15 37.5t20 42.5t44 19.5t38 -14t14 -37.5t-19.5 -43z
M454.5 890q14.5 -14 14.5 -37.5t-20 -43t-43.5 -19.5t-38.5 14.5t-15 37.5t20.5 42.5t44 19.5t38 -14z" />
    <glyph glyph-name="Aring" unicode="&#xc5;" horiz-adv-x="435" 
d="M393 0q-53 0 -63 7.5t-12 50.5l-11 177h-122l-89 -235h-15q-56 0 -62 10q-3 6 -3 17t49 138l215 555h84l49 -720h-20zM303 317l-8 15v215l-74 -215l-12 -15h94zM408.5 926.5q23.5 -22.5 23.5 -60t-32.5 -69t-71 -31.5t-61.5 22.5t-23 60t32 69t70.5 31.5t62 -22.5z
M363 864q0 17 -18 17q-11 0 -22 -8.5t-11 -18.5t6 -15.5t16 -5.5t19.5 9t9.5 22z" />
    <glyph glyph-name="AE" unicode="&#xc6;" horiz-adv-x="629" 
d="M107 0q-36 0 -51.5 3t-15.5 14q0 2 2 8l254 695h395l-13 -80h-201v-11l-30 -194l-2 -5h186l-13 -83h-187v-12l-41 -251h210l-14 -84h-301l35 230l2 5h-111l-89 -235h-15zM337 317v11l49 312h-37l-105 -318l-3 -5h96z" />
    <glyph glyph-name="Ccedilla" unicode="&#xc7;" horiz-adv-x="377" 
d="M173 -175h-33q-48 0 -54 9q-3 4 -3 18.5t4 44.5h83l15 101q-100 19 -100 164q0 155 23 261.5t50 166.5t75.5 101t111.5 41l107 -23q-7 -39 -22 -53.5t-38 -14.5q-3 0 -60 7q-41 0 -73 -54.5t-49 -133.5q-34 -160 -34 -279q0 -97 65 -97q24 0 62 5t53 5l-14 -83
q-15 -2 -43 -8t-42 -8l-17 -112q-6 -38 -17 -48t-50 -10z" />
    <glyph glyph-name="Egrave" unicode="&#xc8;" 
d="M252 640v-11l-30 -194l-2 -5h177l-14 -83h-177v-12l-39 -244v-2q0 -4 -1 -5h199l-13 -84h-292l114 720h282l-13 -80h-191zM265 890q30 27 45 27t46 -37l60 -83l-58 -52l-110 130z" />
    <glyph glyph-name="Eacute" unicode="&#xc9;" 
d="M252 640v-11l-30 -194l-2 -5h177l-14 -83h-177v-12l-39 -244v-2q0 -4 -1 -5h199l-13 -84h-292l114 720h282l-13 -80h-191zM385 887q35 30 49.5 30t48.5 -38q3 -4 5 -6l-149 -129l-45 57z" />
    <glyph glyph-name="Ecircumflex" unicode="&#xca;" 
d="M252 640v-11l-30 -194l-2 -5h177l-14 -83h-177v-12l-39 -244v-2q0 -4 -1 -5h199l-13 -84h-292l114 720h282l-13 -80h-191zM446 770l-113 69l-139 -71l14 86l118 63h32l102 -65z" />
    <glyph glyph-name="Edieresis" unicode="&#xcb;" 
d="M252 640v-11l-30 -194l-2 -5h177l-14 -83h-177v-12l-39 -244v-2q0 -4 -1 -5h199l-13 -84h-292l114 720h282l-13 -80h-191zM314.5 810.5q-19.5 -19.5 -43 -19.5t-38.5 14.5t-15 37.5t20 42.5t44 19.5t38 -14t14 -37.5t-19.5 -43zM455.5 891q14.5 -14 14.5 -37.5t-20 -43
t-43.5 -19.5t-38.5 14.5t-15 37.5t20.5 42.5t44 19.5t38 -14z" />
    <glyph glyph-name="Igrave" unicode="&#xcc;" horiz-adv-x="213" 
d="M131 0q-31 0 -42 2q-24 3 -24 31q0 6 107 687h17q42 0 54 -4.5t12 -20t-107 -695.5h-17zM153 890q30 27 45 27t46 -37l60 -83l-58 -52l-110 130z" />
    <glyph glyph-name="Iacute" unicode="&#xcd;" horiz-adv-x="213" 
d="M131 0q-31 0 -42 2q-24 3 -24 31q0 6 107 687h17q42 0 54 -4.5t12 -20t-107 -695.5h-17zM335 917q15 0 49 -38q3 -4 5 -6l-149 -129l-45 57l91 86q34 30 49 30z" />
    <glyph glyph-name="Icircumflex" unicode="&#xce;" horiz-adv-x="213" 
d="M131 0q-31 0 -42 2q-24 3 -24 31q0 6 107 687h17q42 0 54 -4.5t12 -20t-107 -695.5h-17zM361 770l-113 69l-139 -71l14 86l118 63h32l102 -65z" />
    <glyph glyph-name="Idieresis" unicode="&#xcf;" horiz-adv-x="213" 
d="M131 0q-31 0 -42 2q-24 3 -24 31q0 6 107 687h17q42 0 54 -4.5t12 -20t-107 -695.5h-17zM207.5 810.5q-19.5 -19.5 -43 -19.5t-38.5 14.5t-15 37.5t20 42.5t44 19.5t38 -14t14 -37.5t-19.5 -43zM348.5 891q14.5 -14 14.5 -37.5t-20 -43t-43.5 -19.5t-38.5 14.5t-15 37.5
t20.5 42.5t44 19.5t38 -14z" />
    <glyph glyph-name="Eth" unicode="&#xd0;" horiz-adv-x="463" 
d="M460 689.5q33 -42.5 33 -126t-11 -171.5t-36.5 -183.5t-78.5 -155.5t-126 -60q-5 0 -195 8l114 720l186 11q81 0 114 -42.5zM244 77q41 0 73.5 56.5t49.5 138.5q35 167 35 279q0 48 -14 72.5t-49 24.5h-107l2 -24l-27 -171l-6 -21h120l-11 -78h-122v-24l-39 -244l-3 -9
h98z" />
    <glyph glyph-name="Ntilde" unicode="&#xd1;" horiz-adv-x="455" 
d="M371 0q-50 0 -60.5 7t-18.5 49l-76 397l-63 -396q-6 -40 -17 -48.5t-59 -8.5h-21l114 720h17q49 0 60 -7t18 -49l74 -408l74 464h16q31 0 43 -2q22 -2 22 -24v-7l-106 -687h-17zM301 837l110 -3q27 0 42 3l30 -2l-5 -36q-4 -30 -14 -35t-61 -5l-110 3q-28 0 -41 -3l-31 2
l5 36q7 30 15.5 35t59.5 5z" />
    <glyph glyph-name="Ograve" unicode="&#xd2;" horiz-adv-x="481" 
d="M354 46q-52 -53 -124.5 -53t-106.5 44.5t-34 139t14.5 188t43.5 178t81 137t125 52.5t107 -42.5t34 -136.5t-14.5 -188.5t-44 -180t-81.5 -138.5zM244 77q47 0 84.5 88t54 191t16.5 182q0 110 -60 110q-48 0 -85 -87.5t-53.5 -190t-16.5 -182.5q0 -111 60 -111zM283 890
q30 27 45 27t46 -37l60 -83l-58 -52l-110 130z" />
    <glyph glyph-name="Oacute" unicode="&#xd3;" horiz-adv-x="481" 
d="M354 46q-52 -53 -124.5 -53t-106.5 44.5t-34 139t14.5 188t43.5 178t81 137t125 52.5t107 -42.5t34 -136.5t-14.5 -188.5t-44 -180t-81.5 -138.5zM244 77q47 0 84.5 88t54 191t16.5 182q0 110 -60 110q-48 0 -85 -87.5t-53.5 -190t-16.5 -182.5q0 -111 60 -111zM441 917
q15 0 49 -38q3 -4 5 -6l-149 -129l-45 57l91 86q34 30 49 30z" />
    <glyph glyph-name="Ocircumflex" unicode="&#xd4;" horiz-adv-x="481" 
d="M354 46q-52 -53 -124.5 -53t-106.5 44.5t-34 139t14.5 188t43.5 178t81 137t125 52.5t107 -42.5t34 -136.5t-14.5 -188.5t-44 -180t-81.5 -138.5zM244 77q47 0 84.5 88t54 191t16.5 182q0 110 -60 110q-48 0 -85 -87.5t-53.5 -190t-16.5 -182.5q0 -111 60 -111zM497 770
l-113 69l-139 -71l14 86l118 63h32l102 -65z" />
    <glyph glyph-name="Otilde" unicode="&#xd5;" horiz-adv-x="481" 
d="M354 46q-52 -53 -124.5 -53t-106.5 44.5t-34 139t14.5 188t43.5 178t81 137t125 52.5t107 -42.5t34 -136.5t-14.5 -188.5t-44 -180t-81.5 -138.5zM244 77q47 0 84.5 88t54 191t16.5 182q0 110 -60 110q-48 0 -85 -87.5t-53.5 -190t-16.5 -182.5q0 -111 60 -111zM324 893
l110 -3q27 0 42 3l30 -2l-5 -36q-4 -30 -14 -35t-61 -5l-110 3q-28 0 -41 -3l-31 2l5 36q7 30 16 35t59 5z" />
    <glyph glyph-name="Odieresis" unicode="&#xd6;" horiz-adv-x="481" 
d="M354 46q-52 -53 -124.5 -53t-106.5 44.5t-34 139t14.5 188t43.5 178t81 137t125 52.5t107 -42.5t34 -136.5t-14.5 -188.5t-44 -180t-81.5 -138.5zM244 77q47 0 84.5 88t54 191t16.5 182q0 110 -60 110q-48 0 -85 -87.5t-53.5 -190t-16.5 -182.5q0 -111 60 -111z
M341.5 810.5q-19.5 -19.5 -43 -19.5t-38.5 14.5t-15 37.5t20 42.5t44 19.5t38 -14t14 -37.5t-19.5 -43zM482.5 891q14.5 -14 14.5 -37.5t-20 -43t-43.5 -19.5t-38.5 14.5t-15 37.5t20.5 42.5t44 19.5t38 -14z" />
    <glyph glyph-name="multiply" unicode="&#xd7;" horiz-adv-x="271" 
d="M214 189l-41 61l-6 17l-65 -65l-46 63l66 66l-16 10l-38 58l54 55l38 -58l8 -19l66 66l46 -63l-67 -67l16 -10l40 -59z" />
    <glyph glyph-name="Oslash" unicode="&#xd8;" horiz-adv-x="476" 
d="M110 71q-15 37 -15 119t14 175t43 177.5t81 137t120 52.5q15 0 39 -4l41 71h98l-63 -114q31 -43 31 -134.5t-14.5 -185.5t-43 -180t-81 -139t-119.5 -53q-40 0 -69 13l-30 -54h-98zM250 77q37 0 68 49.5t50 122.5q39 156 39 277.5t-62 121.5q-37 0 -68.5 -49.5
t-50.5 -122.5q-40 -154 -40 -276.5t64 -122.5z" />
    <glyph glyph-name="Ugrave" unicode="&#xd9;" horiz-adv-x="468" 
d="M261 697l-82 -572q0 -19 14 -33.5t45 -14.5q56 0 76.5 45.5t41.5 178.5l67 419h19q40 0 53 -3.5t13 -20.5q0 -1 -13.5 -89t-34 -225t-26 -166.5t-14.5 -67.5t-19 -57.5t-25.5 -41.5t-35.5 -32q-48 -24 -110 -24q-143 0 -143 103q0 18 89 624h19q57 0 63 -10q3 -4 3 -13z
M286 890q30 27 45 27t46 -37l60 -83l-58 -52l-110 130z" />
    <glyph glyph-name="Uacute" unicode="&#xda;" horiz-adv-x="468" 
d="M261 697l-82 -572q0 -19 14 -33.5t45 -14.5q56 0 76.5 45.5t41.5 178.5l67 419h19q40 0 53 -3.5t13 -20.5q0 -1 -13.5 -89t-34 -225t-26 -166.5t-14.5 -67.5t-19 -57.5t-25.5 -41.5t-35.5 -32q-48 -24 -110 -24q-143 0 -143 103q0 18 89 624h19q57 0 63 -10q3 -4 3 -13z
M395 887q35 30 49.5 30t48.5 -38q3 -4 5 -6l-149 -129l-45 57z" />
    <glyph glyph-name="Ucircumflex" unicode="&#xdb;" horiz-adv-x="468" 
d="M261 697l-82 -572q0 -19 14 -33.5t45 -14.5q56 0 76.5 45.5t41.5 178.5l67 419h19q40 0 53 -3.5t13 -20.5q0 -1 -13.5 -89t-34 -225t-26 -166.5t-14.5 -67.5t-19 -57.5t-25.5 -41.5t-35.5 -32q-48 -24 -110 -24q-143 0 -143 103q0 18 89 624h19q57 0 63 -10q3 -4 3 -13z
M482 770l-113 69l-139 -71l14 86l118 63h32l102 -65z" />
    <glyph glyph-name="Udieresis" unicode="&#xdc;" horiz-adv-x="468" 
d="M261 697l-82 -572q0 -19 14 -33.5t45 -14.5q56 0 76.5 45.5t41.5 178.5l67 419h19q40 0 53 -3.5t13 -20.5q0 -1 -13.5 -89t-34 -225t-26 -166.5t-14.5 -67.5t-19 -57.5t-25.5 -41.5t-35.5 -32q-48 -24 -110 -24q-143 0 -143 103q0 18 89 624h19q57 0 63 -10q3 -4 3 -13z
M340.5 810.5q-19.5 -19.5 -43 -19.5t-38.5 14.5t-15 37.5t20 42.5t44 19.5t38 -14t14 -37.5t-19.5 -43zM481.5 891q14.5 -14 14.5 -37.5t-20 -43t-43.5 -19.5t-38.5 14.5t-15 37.5t20.5 42.5t44 19.5t38 -14z" />
    <glyph glyph-name="Yacute" unicode="&#xdd;" horiz-adv-x="375" 
d="M231 0h-35t-24.5 2t-13.5 6q-10 9 -10 25.5t47 313.5l-73 373h32q43 0 53.5 -8.5t17.5 -47.5l34 -197l130 253h19q30 0 43 -2t13 -9t-180 -365zM427 917q15 0 49 -38q3 -4 5 -6l-149 -129l-45 57l91 86q34 30 49 30z" />
    <glyph glyph-name="Thorn" unicode="&#xde;" horiz-adv-x="395" 
d="M399 579q28 -30 28 -92.5t-10.5 -143.5t-31 -164.5t-57.5 -140.5t-82 -57q-19 0 -111 50l-35 -223q-51 0 -65 4.5t-14 27.5q0 7 3 28l128 811q6 40 19 48t75 8l-24 -147l79 21q70 0 98 -30zM226 71q46 0 80 148.5t34 243.5q0 65 -45 66l-86 -21v-15l-59 -370l-4 -15
q77 -37 80 -37z" />
    <glyph glyph-name="germandbls" unicode="&#xdf;" horiz-adv-x="524" 
d="M345 79q34 0 49 26.5t15 66.5q0 29 -73 88q-28 22 -51 56t-23 64.5t6 56.5t19 50t38 38.5t59 14.5q5 0 8 4q7 11 18 79v4q0 16 -50 16h-45q-57 0 -69.5 -11.5t-22.5 -72.5l-78 -492q-7 -45 -22.5 -56t-76.5 -11l90 563q14 94 26 114q19 28 33 31.5t34 7.5q25 5 94 5h50
q75 0 108 -40q13 -16 13 -38q0 -134 -51 -167q-24 -16 -57 -16q-38 0 -38 -67q0 -30 77 -89q29 -23 53 -58.5t24 -71.5q0 -174 -169 -181l-130 8l11 78h131z" />
    <glyph glyph-name="agrave" unicode="&#xe0;" horiz-adv-x="367" 
d="M64 17q-21 24 -21 84.5t8 129t26 144t54.5 124.5t86.5 49q27 0 105 -26q28 -2 46 -16.5t18 -38.5q0 -1 -73 -467q-50 0 -63.5 5t-13.5 24v5l3 33l-88 -74q-67 0 -88 24zM227 466q-30 0 -54.5 -77.5t-34 -154t-9.5 -107t4.5 -40t18.5 -9.5l103 77v17l43 262l3 11
q-59 21 -74 21zM228 711q30 27 45 27t46 -37l60 -83l-58 -52l-110 130z" />
    <glyph glyph-name="aacute" unicode="&#xe1;" horiz-adv-x="367" 
d="M64 17q-21 24 -21 84.5t8 129t26 144t54.5 124.5t86.5 49q27 0 105 -26q28 -2 46 -16.5t18 -38.5q0 -1 -73 -467q-50 0 -63.5 5t-13.5 24v5l3 33l-88 -74q-67 0 -88 24zM227 466q-30 0 -54.5 -77.5t-34 -154t-9.5 -107t4.5 -40t18.5 -9.5l103 77v17l43 262l3 11
q-59 21 -74 21zM368 738q15 0 49 -38q3 -4 5 -6l-149 -129l-45 57l91 86q34 30 49 30z" />
    <glyph glyph-name="acircumflex" unicode="&#xe2;" horiz-adv-x="367" 
d="M64 17q-21 24 -21 84.5t8 129t26 144t54.5 124.5t86.5 49q27 0 105 -26q28 -2 46 -16.5t18 -38.5q0 -1 -73 -467q-50 0 -63.5 5t-13.5 24v5l3 33l-88 -74q-67 0 -88 24zM227 466q-30 0 -54.5 -77.5t-34 -154t-9.5 -107t4.5 -40t18.5 -9.5l103 77v17l43 262l3 11
q-59 21 -74 21zM391 585l-113 69l-139 -71l14 86l118 63h32l102 -65z" />
    <glyph glyph-name="atilde" unicode="&#xe3;" horiz-adv-x="367" 
d="M64 17q-21 24 -21 84.5t8 129t26 144t54.5 124.5t86.5 49q27 0 105 -26q28 -2 46 -16.5t18 -38.5q0 -1 -73 -467q-50 0 -63.5 5t-13.5 24v5l3 33l-88 -74q-67 0 -88 24zM227 466q-30 0 -54.5 -77.5t-34 -154t-9.5 -107t4.5 -40t18.5 -9.5l103 77v17l43 262l3 11
q-59 21 -74 21zM220 682l110 -3q27 0 42 3l30 -2l-5 -36q-4 -30 -14 -35t-61 -5l-110 3q-28 0 -41 -3l-31 2l5 36q7 30 16 35t59 5z" />
    <glyph glyph-name="adieresis" unicode="&#xe4;" horiz-adv-x="367" 
d="M64 17q-21 24 -21 84.5t8 129t26 144t54.5 124.5t86.5 49q27 0 105 -26q28 -2 46 -16.5t18 -38.5q0 -1 -73 -467q-50 0 -63.5 5t-13.5 24v5l3 33l-88 -74q-67 0 -88 24zM227 466q-30 0 -54.5 -77.5t-34 -154t-9.5 -107t4.5 -40t18.5 -9.5l103 77v17l43 262l3 11
q-59 21 -74 21zM265.5 606.5q-19.5 -19.5 -43 -19.5t-38.5 14.5t-15 37.5t20 42.5t44 19.5t38 -14t14 -37.5t-19.5 -43zM406.5 687q14.5 -14 14.5 -37.5t-20 -43t-43.5 -19.5t-38.5 14.5t-15 37.5t20.5 42.5t44 19.5t38 -14z" />
    <glyph glyph-name="aring" unicode="&#xe5;" horiz-adv-x="367" 
d="M64 17q-21 24 -21 84.5t8 129t26 144t54.5 124.5t86.5 49q27 0 105 -26q28 -2 46 -16.5t18 -38.5q0 -1 -73 -467q-50 0 -63.5 5t-13.5 24v5l3 33l-88 -74q-67 0 -88 24zM227 466q-30 0 -54.5 -77.5t-34 -154t-9.5 -107t4.5 -40t18.5 -9.5l103 77v17l43 262l3 11
q-59 21 -74 21zM341.5 716.5q23.5 -22.5 23.5 -60t-32.5 -69t-71 -31.5t-61.5 22.5t-23 60t32 69t70.5 31.5t62 -22.5zM296 654q0 17 -18 17q-11 0 -22 -8.5t-11 -18.5t6 -15.5t16 -5.5t19.5 9t9.5 22z" />
    <glyph glyph-name="ae" unicode="&#xe6;" horiz-adv-x="588" 
d="M469 422q0 23 -9.5 33t-35 10t-34.5 -22.5t-19 -93.5l-2 -8q100 2 100 81zM499 11q-98 -18 -146 -18t-65 11.5t-27 42.5l-113 -54q-47 0 -65.5 16.5t-18.5 58.5l21 161q21 110 195 114v11q3 17 6 32l4 24q1 9 2 16.5t2 11.5t1.5 7t0.5 4v2q0 14 -32 14q-60 -9 -64 -9
q-43 0 -43 43l2 27l112 18q66 0 90 -24q32 24 74 24q68 0 94 -24t26 -77q0 -19 -1.5 -34.5t-12.5 -45.5t-30.5 -50t-61.5 -36t-100 -16l-17 -147q0 -42 28 -42q46 0 149 15zM169 233q-22 -133 -22 -146t3 -15q20 8 91 41l24 146l1 2q-93 -2 -97 -28z" />
    <glyph glyph-name="ccedilla" unicode="&#xe7;" horiz-adv-x="313" 
d="M295 460l-50 5q-28 0 -49 -43.5t-32 -105.5q-19 -115 -19 -167.5t8.5 -64.5t30.5 -12l100 11l-10 -72l-75 -14l-17 -114q-6 -38 -17 -48t-50 -10h-33q-48 0 -54 9q-3 4 -3 18.5t4 44.5h83l15 101q-37 8 -52.5 33.5t-15.5 80t7.5 121t25.5 141.5t56.5 123.5t91.5 48.5
q7 0 112 -17q-12 -69 -57 -69z" />
    <glyph glyph-name="egrave" unicode="&#xe8;" horiz-adv-x="353" 
d="M183 -7q-70 0 -97 25t-27 86q0 348 135 422q32 18 81 18t72 -24.5t23 -77.5q0 -48 -18 -108q-12 -37 -41.5 -61t-73.5 -24h-88v-11q-6 -44 -6 -78t1 -44.5t5 -22.5t14 -15.5t44 -3.5t114 17l-11 -80q-90 -18 -127 -18zM226 318q22 0 36 23q23 36 23 80t-27 44
q-43 0 -63 -31.5t-30 -99.5l-6 -16h67zM204 713q30 27 45 27t46 -37l60 -83l-58 -52l-110 130z" />
    <glyph glyph-name="eacute" unicode="&#xe9;" horiz-adv-x="353" 
d="M183 -7q-70 0 -97 25t-27 86q0 348 135 422q32 18 81 18t72 -24.5t23 -77.5q0 -48 -18 -108q-12 -37 -41.5 -61t-73.5 -24h-88v-11q-6 -44 -6 -78t1 -44.5t5 -22.5t14 -15.5t44 -3.5t114 17l-11 -80q-90 -18 -127 -18zM226 318q22 0 36 23q23 36 23 80t-27 44
q-43 0 -63 -31.5t-30 -99.5l-6 -16h67zM313 710q35 30 49.5 30t48.5 -38q3 -4 5 -6l-149 -129l-45 57z" />
    <glyph glyph-name="ecircumflex" unicode="&#xea;" horiz-adv-x="353" 
d="M183 -7q-70 0 -97 25t-27 86q0 348 135 422q32 18 81 18t72 -24.5t23 -77.5q0 -48 -18 -108q-12 -37 -41.5 -61t-73.5 -24h-88v-11q-6 -44 -6 -78t1 -44.5t5 -22.5t14 -15.5t44 -3.5t114 17l-11 -80q-90 -18 -127 -18zM226 318q22 0 36 23q23 36 23 80t-27 44
q-43 0 -63 -31.5t-30 -99.5l-6 -16h67zM395 587l-113 69l-139 -71l14 86l118 63h32l102 -65z" />
    <glyph glyph-name="edieresis" unicode="&#xeb;" horiz-adv-x="353" 
d="M183 -7q-70 0 -97 25t-27 86q0 348 135 422q32 18 81 18t72 -24.5t23 -77.5q0 -48 -18 -108q-12 -37 -41.5 -61t-73.5 -24h-88v-11q-6 -44 -6 -78t1 -44.5t5 -22.5t14 -15.5t44 -3.5t114 17l-11 -80q-90 -18 -127 -18zM226 318q22 0 36 23q23 36 23 80t-27 44
q-43 0 -63 -31.5t-30 -99.5l-6 -16h67zM251.5 608.5q-19.5 -19.5 -43 -19.5t-38.5 14.5t-15 37.5t20 42.5t44 19.5t38 -14t14 -37.5t-19.5 -43zM392.5 689q14.5 -14 14.5 -37.5t-20 -43t-43.5 -19.5t-38.5 14.5t-15 37.5t20.5 42.5t44 19.5t38 -14z" />
    <glyph glyph-name="igrave" unicode="&#xec;" horiz-adv-x="211" 
d="M220 514l-80 -518q-69 0 -76 10q-4 4 -4 13l81 518q67 0 75 -9q4 -5 4 -14zM119 729q30 27 45 27t46 -37l60 -83l-58 -52l-110 130z" />
    <glyph glyph-name="iacute" unicode="&#xed;" horiz-adv-x="220" 
d="M224 514l-80 -518q-69 0 -76 10q-4 4 -4 11t80 520q68 0 76 -9q4 -5 4 -14zM282 754q15 0 49 -38q3 -4 5 -6l-149 -129l-45 57l91 86q34 30 49 30z" />
    <glyph glyph-name="icircumflex" unicode="&#xee;" horiz-adv-x="246" 
d="M238 513v-7l-80 -510q-52 0 -65.5 4t-13.5 20q0 3 1 7l79 510q52 0 65.5 -4t13.5 -20zM344 597l-113 69l-139 -71l14 86l118 63h32l102 -65z" />
    <glyph glyph-name="idieresis" unicode="&#xef;" horiz-adv-x="260" 
d="M256 513q0 -3 -1 -7l-79 -510q-53 0 -66.5 4t-13.5 20q0 3 1 7l80 510q51 0 65 -4t14 -20zM213.5 623.5q-19.5 -19.5 -43 -19.5t-38.5 14.5t-15 37.5t20 42.5t44 19.5t38 -14t14 -37.5t-19.5 -43zM354.5 704q14.5 -14 14.5 -37.5t-20 -43t-43.5 -19.5t-38.5 14.5
t-15 37.5t20.5 42.5t44 19.5t38 -14z" />
    <glyph glyph-name="eth" unicode="&#xf0;" horiz-adv-x="376" 
d="M220 418q-34 0 -56 -66q-35 -102 -35 -230q0 -25 11 -34t38.5 -9t47 25t32.5 76q20 76 39 209l-61 26q-9 3 -16 3zM305 531q0 55 -16.5 81.5t-53.5 26.5l13 83q83 0 117.5 -46.5t34.5 -135.5q0 -120 -18 -224t-41 -165.5t-66.5 -106t-101.5 -44.5q-76 0 -105 22t-29 80
t7.5 120.5t24 129.5t50 110t78.5 43q23 0 50 -12l55 -25l1 57v6z" />
    <glyph glyph-name="ntilde" unicode="&#xf1;" horiz-adv-x="390" 
d="M256 24l58 405q0 21 -7.5 28.5t-25.5 7.5l-85 -45v-17l-65 -403q-68 0 -75 10q-4 4 -4 11t79 516h23q55 0 57 -31q8 4 22 14q31 24 53 24q59 0 87 -16t28 -58q0 -8 -65 -470q-49 0 -64.5 3.5t-15.5 20.5zM248 682l110 -3q27 0 42 3l30 -2l-5 -36q-4 -30 -14 -35t-61 -5
l-110 3q-28 0 -41 -3l-31 2l5 36q7 30 16 35t59 5z" />
    <glyph glyph-name="ograve" unicode="&#xf2;" horiz-adv-x="374" 
d="M262.5 15.5q-35.5 -22.5 -92.5 -22.5t-83.5 26t-26.5 96.5t9 141t30 138.5t63.5 108.5t106 40.5t90.5 -25.5t27 -76.5t-2 -88.5t-8 -92.5t-20.5 -98.5t-36 -84t-57 -63zM190 72q33 0 57 43.5t34 106.5q19 120 19 191q0 28 -10 40t-34 12q-36 0 -63 -69q-47 -119 -47 -271
q0 -28 10 -40.5t34 -12.5zM221 717q30 27 45 27t46 -37l60 -83l-58 -52l-110 130z" />
    <glyph glyph-name="oacute" unicode="&#xf3;" horiz-adv-x="374" 
d="M262.5 15.5q-35.5 -22.5 -92.5 -22.5t-83.5 26t-26.5 96.5t9 141t30 138.5t63.5 108.5t106 40.5t90.5 -25.5t27 -76.5t-2 -88.5t-8 -92.5t-20.5 -98.5t-36 -84t-57 -63zM190 72q33 0 57 43.5t34 106.5q19 120 19 191q0 28 -10 40t-34 12q-36 0 -63 -69q-47 -119 -47 -271
q0 -28 10 -40.5t34 -12.5zM363 744q15 0 49 -38q3 -4 5 -6l-149 -129l-45 57l91 86q34 30 49 30z" />
    <glyph glyph-name="ocircumflex" unicode="&#xf4;" horiz-adv-x="374" 
d="M262.5 15.5q-35.5 -22.5 -92.5 -22.5t-83.5 26t-26.5 96.5t9 141t30 138.5t63.5 108.5t106 40.5t90.5 -25.5t27 -76.5t-2 -88.5t-8 -92.5t-20.5 -98.5t-36 -84t-57 -63zM190 72q33 0 57 43.5t34 106.5q19 120 19 191q0 28 -10 40t-34 12q-36 0 -63 -69q-47 -119 -47 -271
q0 -28 10 -40.5t34 -12.5zM400 587l-113 69l-139 -71l14 86l118 63h32l102 -65z" />
    <glyph glyph-name="otilde" unicode="&#xf5;" horiz-adv-x="374" 
d="M240 689l126 -10q12 0 24 3l30 -2l-4 -36q-4 -30 -14 -35.5t-61 -5.5l-127 10q-8 0 -24 -2l-30 2l5 36q4 30 13.5 35t61.5 5zM262.5 29.5q-35.5 -22.5 -92.5 -22.5t-83.5 26t-26.5 96.5t9 141t30 138.5t63.5 108.5t106 40.5t90.5 -25.5t27 -76.5t-2 -88.5t-8 -92.5
t-20.5 -98.5t-36 -84t-57 -63zM190 86q33 0 57 43.5t34 106.5q19 120 19 191q0 28 -10 40t-34 12q-36 0 -63 -69q-47 -119 -47 -271q0 -28 10 -40.5t34 -12.5z" />
    <glyph glyph-name="odieresis" unicode="&#xf6;" horiz-adv-x="374" 
d="M262.5 15.5q-35.5 -22.5 -92.5 -22.5t-83.5 26t-26.5 96.5t9 141t30 138.5t63.5 108.5t106 40.5t90.5 -25.5t27 -76.5t-2 -88.5t-8 -92.5t-20.5 -98.5t-36 -84t-57 -63zM190 72q33 0 57 43.5t34 106.5q19 120 19 191q0 28 -10 40t-34 12q-36 0 -63 -69q-47 -119 -47 -271
q0 -28 10 -40.5t34 -12.5zM256.5 606.5q-19.5 -19.5 -43 -19.5t-38.5 14.5t-15 37.5t20 42.5t44 19.5t38 -14t14 -37.5t-19.5 -43zM397.5 687q14.5 -14 14.5 -37.5t-20 -43t-43.5 -19.5t-38.5 14.5t-15 37.5t20.5 42.5t44 19.5t38 -14z" />
    <glyph glyph-name="divide" unicode="&#xf7;" horiz-adv-x="275" 
d="M174.5 19.5q-19.5 -19.5 -43 -19.5t-38.5 15t-15 37.5t19.5 42.5t44 20t38.5 -14.5t14 -38t-19.5 -43zM247.5 442q-19.5 -20 -43 -20t-38.5 15t-15 38t20.5 42.5t44 19.5t37.5 -14t14 -37.5t-19.5 -43.5zM288 254h-231l11 77h231z" />
    <glyph glyph-name="oslash" unicode="&#xf8;" horiz-adv-x="400" 
d="M86 33q-15 27 -15 81.5t5 110.5t19 116.5t35.5 103.5t59 71t85.5 28q21 0 30 -1l50 90h97l-72 -129q16 -25 16 -98t-10.5 -142.5t-32.5 -132.5t-63.5 -100.5t-97.5 -37.5q-21 0 -31 2l-47 -84h-96zM201 72q36 0 63 68q46 118 46 273q0 28 -9.5 40t-33.5 12q-36 0 -63 -69
q-47 -119 -47 -271q0 -29 9.5 -41t34.5 -12z" />
    <glyph glyph-name="ugrave" unicode="&#xf9;" 
d="M387 528q4 -5 4 -11t-79 -517q-52 0 -66 4.5t-14 26.5l1 10l-74 -48q-116 0 -116 87q0 8 64 457q48 0 63.5 -3.5t15.5 -20.5l-55 -404q0 -37 26 -37l92 56v17l63 392q67 0 75 -9zM199 709q30 27 45 27t46 -37l60 -83l-58 -52l-110 130z" />
    <glyph glyph-name="uacute" unicode="&#xfa;" 
d="M387 528q4 -5 4 -11t-79 -517q-52 0 -66 4.5t-14 26.5l1 10l-74 -48q-116 0 -116 87q0 8 64 457q48 0 63.5 -3.5t15.5 -20.5l-55 -404q0 -37 26 -37l92 56v17l63 392q67 0 75 -9zM347 744q15 0 49 -38q3 -4 5 -6l-149 -129l-45 57l91 86q34 30 49 30z" />
    <glyph glyph-name="ucircumflex" unicode="&#xfb;" 
d="M387 528q4 -5 4 -11t-79 -517q-52 0 -66 4.5t-14 26.5l1 10l-74 -48q-116 0 -116 87q0 8 64 457q48 0 63.5 -3.5t15.5 -20.5l-55 -404q0 -37 26 -37l92 56v17l63 392q67 0 75 -9zM387 585l-113 69l-139 -71l14 86l118 63h32l102 -65z" />
    <glyph glyph-name="udieresis" unicode="&#xfc;" 
d="M387 528q4 -5 4 -11t-79 -517q-52 0 -66 4.5t-14 26.5l1 10l-74 -48q-116 0 -116 87q0 8 64 457q48 0 63.5 -3.5t15.5 -20.5l-55 -404q0 -37 26 -37l92 56v17l63 392q67 0 75 -9zM244.5 604.5q-19.5 -19.5 -43 -19.5t-38.5 14.5t-15 37.5t20 42.5t44 19.5t38 -14
t14 -37.5t-19.5 -43zM385.5 685q14.5 -14 14.5 -37.5t-20 -43t-43.5 -19.5t-38.5 14.5t-15 37.5t20.5 42.5t44 19.5t38 -14z" />
    <glyph glyph-name="yacute" unicode="&#xfd;" horiz-adv-x="317" 
d="M171 487v-8v-369l134 427q40 0 57 -3.5t17 -16.5q0 -3 -87.5 -259.5t-93.5 -272.5q-35 -87 -61 -116q-47 -54 -153 -58l10 73q52 0 81.5 35.5t29.5 86.5l-15 531q62 0 71.5 -7t9.5 -43zM318 738q15 0 49 -38q3 -4 5 -6l-149 -129l-45 57l91 86q34 30 49 30z" />
    <glyph glyph-name="thorn" unicode="&#xfe;" horiz-adv-x="386" 
d="M215 70q29 0 67.5 131t38.5 197t-45 67l-73 2l-57 -360l64 -35q4 -2 5 -2zM238 697l-23 -153h63q73 0 101 -27.5t28 -96t-21.5 -170.5t-63.5 -187t-89 -85q-11 0 -29 11t-69 50l-26 -167q-8 -46 -19.5 -53.5t-74.5 -7.5l144 911q69 0 75 -10q4 -6 4 -15z" />
    <glyph glyph-name="ydieresis" unicode="&#xff;" horiz-adv-x="317" 
d="M171 487v-8v-369l134 427q40 0 57 -3.5t17 -16.5q0 -3 -87.5 -259.5t-93.5 -272.5q-35 -87 -61 -116q-47 -54 -153 -58l10 73q52 0 81.5 35.5t29.5 86.5l-15 531q62 0 71.5 -7t9.5 -43zM231.5 606.5q-19.5 -19.5 -43 -19.5t-38.5 14.5t-15 37.5t20 42.5t44 19.5t38 -14
t14 -37.5t-19.5 -43zM372.5 687q14.5 -14 14.5 -37.5t-20 -43t-43.5 -19.5t-38.5 14.5t-15 37.5t20.5 42.5t44 19.5t38 -14z" />
    <glyph glyph-name="dotlessi" unicode="&#x131;" horiz-adv-x="207" 
d="M132 454h92l-53 -333h-79l42 261h-77q9 54 18.5 63t56.5 9z" />
    <glyph glyph-name="Lslash" unicode="&#x141;" horiz-adv-x="361" 
d="M193 720q57 0 63 -10q3 -4 3 -9t-93 -603l-8 -14h110q42 0 53.5 -4.5t11.5 -27.5l-4 -52h-270l114 720h20zM315 284h-287l11 77h287z" />
    <glyph glyph-name="lslash" unicode="&#x142;" horiz-adv-x="287" 
d="M105 6q-3 4 -3 11t109 705q67 0 75 -10q4 -6 4 -11t-20 -133.5t-87 -558.5l-14 -13q-58 0 -64 10zM325 284h-287l11 77h287z" />
    <glyph glyph-name="OE" unicode="&#x152;" horiz-adv-x="653" 
d="M111.5 30.5q-36.5 37.5 -36.5 111t5.5 142t22.5 152t43.5 147.5t73 107.5t106.5 43.5q10 0 110 -14h289l-13 -80h-208v-11l-29 -194l-2 -5h193l-14 -83h-193v-12l-38 -240l-2 -11h215l-13 -84h-293l-90 -7q-90 0 -126.5 37.5zM328 649q-42 0 -75 -57t-50.5 -139t-26 -155
t-8.5 -123t17.5 -74t59.5 -24l78 7l88 554q-74 11 -83 11z" />
    <glyph glyph-name="oe" unicode="&#x153;" horiz-adv-x="628" 
d="M417 -7q-76 0 -103 34q-37 -34 -112 -34t-104 27.5t-29 91.5t5 121t19.5 116t37.5 100.5t62 68t90 26.5q76 0 105 -32q38 32 106 32t92.5 -25t24.5 -69.5t-8.5 -109t-10.5 -92.5h-208v-16q-14 -86 -14 -112t12 -37t55.5 -11t120.5 16l-12 -77q-86 -18 -129 -18zM407 340
l-1 -7l-2 -4l1 2q-1 -1 -1 -2h114q10 82 10 102t-7.5 27t-28.5 7q-47 0 -61 -26t-24 -96v-3zM167 86q12 -14 45.5 -14t60 38t37.5 99q17 102 17 199q0 30 -12 43.5t-41.5 13.5t-52.5 -29t-35 -69t-20 -91q-11 -78 -11 -145q0 -31 12 -45z" />
    <glyph glyph-name="Scaron" unicode="&#x160;" horiz-adv-x="391" 
d="M393 257q0 -263 -218 -264l-149 21l11 82l152 -11q112 6 112 151q0 17 -13 38.5t-25.5 35t-40.5 42.5v-1q-36 37 -54.5 58t-37.5 58t-19 78.5t7.5 73.5t27.5 59q40 54 165 54l113 -23q-7 -39 -19.5 -52.5t-33.5 -13.5l-67 7q-58 -1 -79.5 -26.5t-21.5 -71t67 -108.5
q28 -27 56 -54.5t47.5 -62.5t19.5 -70zM455 842l-117 -53h-31l-103 54l10 81l116 -59l136 60z" />
    <glyph glyph-name="scaron" unicode="&#x161;" horiz-adv-x="334" 
d="M225 178q0 29 -71 86q-27 21 -49.5 54t-23.5 66q0 79 36 118.5t111 43.5l103 -13q-8 -68 -54 -70l-53 6q-60 -4 -60 -60q0 -39 74 -99q28 -23 51.5 -55t23.5 -69.5t-13.5 -81t-48.5 -77.5t-85 -34l-128 12l10 77l124 -5q23 1 38 31.5t15 69.5zM371 647l-117 -53h-31
l-103 54l10 81l116 -59l136 60z" />
    <glyph glyph-name="Ydieresis" unicode="&#x178;" horiz-adv-x="375" 
d="M231 0h-35t-24.5 2t-13.5 6q-10 9 -10 25.5t47 313.5l-73 373h32q43 0 53.5 -8.5t17.5 -47.5l34 -197l130 253h19q30 0 43 -2t13 -9t-180 -365zM301.5 798.5q-19.5 -19.5 -43 -19.5t-38.5 14.5t-15 37.5t20 42.5t44 19.5t38 -14t14 -37.5t-19.5 -43zM442.5 879
q14.5 -14 14.5 -37.5t-20 -43t-43.5 -19.5t-38.5 14.5t-15 37.5t20.5 42.5t44 19.5t38 -14z" />
    <glyph glyph-name="Zcaron" unicode="&#x17d;" horiz-adv-x="370" 
d="M325 0h-302l12 73l301 567h-203l14 80h304l-11 -68l-305 -568h203zM452 842l-117 -53h-31l-103 54l10 81l116 -59l136 60z" />
    <glyph glyph-name="zcaron" unicode="&#x17e;" horiz-adv-x="333" 
d="M186 537h193l-13 -71l-235 -387h105q40 0 52.5 -4t12.5 -23q0 -5 -4 -52h-270l10 69l227 388h-147q10 60 19 70t50 10zM409 647l-117 -53h-31l-103 54l10 81l116 -59l136 60z" />
    <glyph glyph-name="florin" unicode="&#x192;" horiz-adv-x="281" 
d="M220 272v-12l-58 -364q-64 0 -74 14q-4 6 -4 15t52 342l2 5h-48l14 79h47v13q1 4 6 35.5t7.5 41t11.5 34t19 34.5q29 29 68 31l97 -4q-8 -49 -17 -58t-54 -10l-26 -1q-11 -12 -24 -95l-6 -21h93l-13 -79h-93z" />
    <glyph glyph-name="circumflex" unicode="&#x2c6;" horiz-adv-x="352" 
d="M387 575l-113 69l-139 -71l14 86l118 63h32l102 -65z" />
    <glyph glyph-name="caron" unicode="&#x2c7;" horiz-adv-x="347" 
d="M398 647l-117 -53h-31l-103 54l10 81l116 -59l136 60z" />
    <glyph glyph-name="breve" unicode="&#x2d8;" horiz-adv-x="352" 
d="M406 656l-139 -72h-32l-118 74l11 83l132 -80l157 81z" />
    <glyph glyph-name="dotaccent" unicode="&#x2d9;" horiz-adv-x="176" 
d="M232.5 626.5q-19.5 -19.5 -43 -19.5t-38.5 15t-15 39.5t20.5 42.5t44 18t37.5 -14t14 -38t-19.5 -43.5z" />
    <glyph glyph-name="ring" unicode="&#x2da;" horiz-adv-x="249" 
d="M290.5 698.5q23.5 -22.5 23.5 -60t-32.5 -69t-71 -31.5t-61.5 22.5t-23 60t32 69t70.5 31.5t62 -22.5zM245 636q0 17 -18 17q-11 0 -22 -8.5t-11 -18.5t6 -15.5t16 -5.5t19.5 9t9.5 22z" />
    <glyph glyph-name="ogonek" unicode="&#x2db;" horiz-adv-x="203" 
d="M180 -189h-100l-80 92v34l57 91h86l-66 -107z" />
    <glyph glyph-name="tilde" unicode="&#x2dc;" horiz-adv-x="377" 
d="M236 710l110 -3q27 0 42 3l30 -2l-5 -36q-4 -30 -14 -35t-61 -5l-110 3q-28 0 -41 -3l-31 2l5 36q7 30 16 35t59 5z" />
    <glyph glyph-name="hungarumlaut" unicode="&#x2dd;" horiz-adv-x="382" 
d="M306 678l-149 -129l-45 57l91 86q30 28 48 30q12 0 34 -22zM468 678l-149 -129l-45 57l91 86q30 28 48 30q12 0 34 -22z" />
    <glyph glyph-name="pi" unicode="&#x3c0;" horiz-adv-x="287" 
d="M290 -10h-79l42 261h-77l11 72h156zM95 323h92l-53 -333h-79l42 261h-77q9 54 18.5 63t56.5 9z" />
    <glyph glyph-name="endash" unicode="&#x2013;" horiz-adv-x="395" 
d="M379 284h-287l11 77h287z" />
    <glyph glyph-name="emdash" unicode="&#x2014;" horiz-adv-x="613" 
d="M589 284h-494l11 77h494z" />
    <glyph glyph-name="quoteleft" unicode="&#x2018;" horiz-adv-x="166" 
d="M252 678q-42 -93 -42 -126.5t-18.5 -53.5t-44 -20t-39.5 14t-14 32.5t28 66.5t56.5 89.5t31.5 41.5l37 -27z" />
    <glyph glyph-name="quoteright" unicode="&#x2019;" horiz-adv-x="164" 
d="M99 522q42 94 42 126.5t18.5 53t44 20.5t39.5 -14.5t14 -36.5t-55.5 -107.5t-61.5 -85.5l-37 27z" />
    <glyph glyph-name="quotesinglbase" unicode="&#x201a;" horiz-adv-x="164" 
d="M0 -85q42 95 42 127t19 52.5t43.5 20.5t39 -14.5t14.5 -35t-54 -107.5t-62 -87l-37 27z" />
    <glyph glyph-name="quotedblleft" unicode="&#x201c;" horiz-adv-x="343" 
d="M408 678q-42 -93 -42 -126.5t-18.5 -53.5t-44 -20t-39.5 14t-14 36t55 108t61 86l37 -27zM271 678q-41 -94 -41 -127t-18.5 -53t-44 -20t-40 14t-14.5 36t55.5 108t61.5 86l37 -27z" />
    <glyph glyph-name="quotedblright" unicode="&#x201d;" horiz-adv-x="343" 
d="M116 522q43 94 43 126.5t18 53t43.5 20.5t39.5 -14.5t14 -33t-28 -66.5t-56.5 -89t-31.5 -41l-37 27zM252 522q43 94 43 126.5t18.5 53t43.5 20.5t39.5 -14.5t14.5 -36.5t-55.5 -107.5t-61.5 -85.5l-37 27z" />
    <glyph glyph-name="quotedblbase" unicode="&#x201e;" horiz-adv-x="345" 
d="M18 -85q41 95 41 127t19.5 52.5t43.5 20.5t39 -14.5t15 -35t-54.5 -107.5t-62.5 -87l-37 27zM156 -85q42 95 42 127t19 52.5t43 20.5t39 -14.5t15 -35t-54 -107.5t-62 -87l-37 27z" />
    <glyph glyph-name="dagger" unicode="&#x2020;" horiz-adv-x="288" 
d="M161 410v11l47 301h89l-48 -307l-2 -5h100l-11 -77h-102v-11l-51 -322h-89l53 333h-98l11 77h101z" />
    <glyph glyph-name="daggerdbl" unicode="&#x2021;" horiz-adv-x="292" 
d="M179 509v11l31 202h89l-32 -209l-2 -4h101l-12 -77h-102l-6 -32l-4 -10h101l-11 -77h-102v-11l-44 -302h-89l45 306l2 7h-99l11 77h101l6 32l4 10h-100l12 77h100z" />
    <glyph glyph-name="bullet" unicode="&#x2022;" horiz-adv-x="222" 
d="M214 358.5q20 -19.5 20 -52t-28.5 -59.5t-60.5 -27t-52 20t-20 51.5t27.5 59t60.5 27.5t53 -19.5z" />
    <glyph glyph-name="ellipsis" unicode="&#x2026;" horiz-adv-x="489" 
d="M154 100.5q14 -14.5 14 -38t-20 -43t-43.5 -19.5t-38.5 15t-15 38t20 42.5t44.5 19.5t38.5 -14.5zM286.5 19.5q-19.5 -19.5 -43.5 -19.5t-39 15t-15 37.5t20 42.5t44.5 20t38.5 -14.5t14 -38t-19.5 -43zM424.5 101q14.5 -14 14.5 -38t-20 -43.5t-43.5 -19.5t-38.5 15
t-15 37.5t19.5 42.5t44 20t39 -14z" />
    <glyph glyph-name="perthousand" unicode="&#x2030;" horiz-adv-x="374" 
d="M84 0h-97l403 722h97z" />
    <glyph glyph-name="guilsinglleft" unicode="&#x2039;" horiz-adv-x="185" 
d="M178 128h-81l-48 160l4 30l97 156h85l-108 -177z" />
    <glyph glyph-name="guilsinglright" unicode="&#x203a;" horiz-adv-x="185" 
d="M124 128h-86l107 176l-50 170h80l47 -161l-3 -30z" />
    <glyph glyph-name="fraction" unicode="&#x2044;" horiz-adv-x="372" 
d="M84 0h-97l403 722h97z" />
    <glyph glyph-name="Euro" unicode="&#x20ac;" horiz-adv-x="394" 
d="M276 183l-75 3q-5 -21 -5 -54.5t8.5 -46t31.5 -12.5h109l-10 -71l-107 -8q-66 0 -91.5 26.5t-25.5 77t7 95.5h-70l5 36q5 31 14 36t61 5h2l3 17h-68l6 36q5 31 14.5 36t60.5 5v3q18 99 51 138.5t113 39.5l110 -8q-9 -53 -18 -62t-54 -9h-46q-32 0 -47 -24t-27 -84h7
q5 0 23 -2.5t26 -3.5q28 -1 49 4l31 -2l-4 -36q-4 -30 -14 -35.5t-52 -5.5t-78 3l-3 -17q39 -4 64 -4t39 3l30 -2l-4 -36q-4 -34 -36 -38q-16 -3 -30 -3z" />
    <glyph glyph-name="trademark" unicode="&#x2122;" horiz-adv-x="540" 
d="M531 352h-70l33 208l-38 -66h-66l-20 71l-34 -213h-70l58 370h64l46 -141l89 141h67zM161 352h-72l47 297h-49l10 73h171l-10 -73h-51z" />
    <glyph glyph-name="Omega" unicode="&#x2126;" horiz-adv-x="833" 
 />
    <glyph glyph-name="partialdiff" unicode="&#x2202;" horiz-adv-x="833" 
 />
    <glyph glyph-name="Delta" unicode="&#x2206;" horiz-adv-x="833" 
 />
    <glyph glyph-name="product" unicode="&#x220f;" horiz-adv-x="833" 
 />
    <glyph glyph-name="summation" unicode="&#x2211;" horiz-adv-x="833" 
 />
    <glyph glyph-name="minus" unicode="&#x2212;" horiz-adv-x="336" 
d="M322 284h-231l11 77h231z" />
    <glyph glyph-name="radical" unicode="&#x221a;" horiz-adv-x="833" 
 />
    <glyph glyph-name="infinity" unicode="&#x221e;" horiz-adv-x="833" 
 />
    <glyph glyph-name="integral" unicode="&#x222b;" horiz-adv-x="833" 
 />
    <glyph glyph-name="approxequal" unicode="&#x2248;" horiz-adv-x="364" 
d="M139 263l160 -10l28 3l32 -2l-6 -37q-5 -30 -14 -35t-60 -5l-162 10l-28 -2l-30 2l6 36q5 30 14 35t60 5zM148 397l160 -10l28 3l32 -2l-6 -37q-5 -30 -14 -35t-60 -5l-162 10l-28 -2l-30 2l6 36q5 30 14 35t60 5z" />
    <glyph glyph-name="notequal" unicode="&#x2260;" horiz-adv-x="363" 
d="M357 308h-287l12 77h287zM334 190h-287l12 77h287z" />
    <glyph glyph-name="lessequal" unicode="&#x2264;" horiz-adv-x="273" 
d="M292 155h-83l-97 181l4 32l148 150h86l-159 -170zM281 80h-231l11 75h231z" />
    <glyph glyph-name="greaterequal" unicode="&#x2265;" horiz-adv-x="232" 
d="M123 154h-88l160 188l-100 164h82l98 -152l-5 -31zM255 81h-231l11 73h231z" />
    <glyph glyph-name="lozenge" unicode="&#x25ca;" horiz-adv-x="833" 
 />
    <glyph glyph-name="ff" unicode="&#xfb00;" horiz-adv-x="462" 
d="M129 -189l11 70q66 0 89.5 31.5t34.5 103.5l65 417l10 24h-142l6 -21l-67 -424q-16 -95 -35 -124q-29 -43 -56 -54q-55 -23 -126 -23l11 70q66 0 89.5 31.5t34.5 103.5l65 417l10 24h-53l13 80h55l-5 27q6 36 9.5 54.5t12.5 40t21 30.5t34 18q34 14 126 14l-10 -73
q-63 0 -70 -5t-12 -7.5t-8 -12t-5 -15.5t-6 -22l-7 -28l-12 -21h142l-5 27q17 105 45 125q34 25 77.5 28.5t90.5 3.5l-10 -73q-72 0 -91 -13q-14 -10 -18.5 -31.5t-8.5 -45.5l-12 -21h90l-13 -80h-92l6 -21l-67 -424q-16 -95 -35 -124q-29 -43 -56 -54q-55 -23 -126 -23z
" />
    <glyph glyph-name="ffl" unicode="&#xfb04;" horiz-adv-x="642" 
d="M519 6q-3 4 -3 11.5t97 630.5h-60q-71 0 -87.5 -13t-27.5 -77l-12 -21h90l-13 -80h-92l6 -21l-67 -424q-16 -95 -35 -124q-29 -43 -56 -54q-55 -23 -126 -23l11 70q66 0 89.5 31.5t34.5 103.5l65 417l10 24h-146l6 -21l-67 -424q-16 -95 -35 -124q-29 -43 -56 -54
q-55 -23 -126 -23l11 70q66 0 89.5 31.5t34.5 103.5l65 417l10 24h-53l13 80h55l-5 27q17 105 45 125q34 25 77.5 28.5t90.5 3.5l-10 -73q-72 0 -91 -13q-14 -10 -18.5 -31.5t-8.5 -45.5l-12 -21h146l-5 27q11 66 21.5 91t23 33.5t34.5 17.5q38 15 131 15h62q67 0 75 -11
q4 -5 4 -10t-17 -114t-90 -577l-14 -13q-58 0 -64 10z" />
    <glyph glyph-name="apple" horiz-adv-x="500" 
 />
    </font>
</defs>
</svg>
