<?xml version="1.0" standalone="no"?>
<!DOCTYPE svg PUBLIC "-//W3C//DTD SVG 1.1//EN" "http://www.w3.org/Graphics/SVG/1.1/DTD/svg11.dtd" >
<svg xmlns="http://www.w3.org/2000/svg" xmlns:xlink="http://www.w3.org/1999/xlink" version="1.1">
<metadata>
Created by FontForge 20170731 at Fri Dec 13 16:21:43 2013
 By Aleksey,,,
2013 Iconian Font - www.iconian.com
</metadata>
<defs>
<font id="FederalEscortItalic" horiz-adv-x="786" >
  <font-face 
    font-family="Federal Escort Italic"
    font-weight="400"
    font-style="italic"
    font-stretch="normal"
    units-per-em="1000"
    panose-1="0 0 0 0 0 0 0 0 0 0"
    ascent="800"
    descent="-200"
    x-height="561"
    cap-height="561"
    bbox="-102 -169 1715 794"
    underline-thickness="50"
    underline-position="-175"
    unicode-range="U+0020-2122"
  />
<missing-glyph horiz-adv-x="500" 
 />
    <glyph glyph-name=".notdef" horiz-adv-x="500" 
 />
    <glyph glyph-name=".null" horiz-adv-x="0" 
 />
    <glyph glyph-name="nonmarkingreturn" horiz-adv-x="500" 
 />
    <glyph glyph-name="space" unicode=" " horiz-adv-x="384" 
 />
    <glyph glyph-name="space" unicode="&#xa0;" horiz-adv-x="384" 
 />
    <glyph glyph-name="FL0021h" unicode="!" horiz-adv-x="340" 
d="M82 92q6 19 21 36t35.5 29.5t44 19.5t47.5 7t43 -7t31 -19.5t15.5 -29.5t-2.5 -36q-6 -20 -21 -36.5t-35 -29t-43.5 -19.5t-47.5 -7t-43 7t-31 19.5t-16 29t2 36.5zM492 561l-80 -246l-51 -88h-235l6 88l80 246h280z" />
    <glyph glyph-name="FL0022h" unicode="&#x22;" horiz-adv-x="504" 
d="M385 369q-13 -38 9 -64.5t66 -26.5q21 0 42.5 7t39.5 19.5t32 29t20 35.5l33 101q6 19 3 35.5t-13 29t-27 19.5t-38 7q-22 0 -43.5 -7t-39.5 -19.5t-31.5 -29t-19.5 -35.5zM150 368q-13 -38 9 -64.5t66 -26.5q21 0 42.5 7t39.5 19.5t32 29t20 35.5l32 101q6 19 3.5 35.5
t-12.5 29t-27 19.5t-38 7q-22 0 -43.5 -7t-39.5 -19.5t-32 -29t-20 -35.5z" />
    <glyph glyph-name="FL0023h" unicode="#" horiz-adv-x="839" 
d="M459 251h85l19 59h-85zM889 453h67l-46 -143h-67l-19 -59h67l-47 -143h-67l-35 -108h-280l35 108h-85l-35 -108h-280l35 108h-67l47 143h67l19 59h-67l46 143h67l35 108h280l-35 -108h85l35 108h280z" />
    <glyph glyph-name="FL0024h" unicode="$" horiz-adv-x="768" 
d="M701 631h-224l-31 -96h-105q-28 0 -57 -11.5t-53.5 -31t-43.5 -44t-28 -50.5l-20 -61q-7 -23 -1.5 -45.5t19 -40.5t32.5 -29.5t39 -11.5h297l-4 -12q-2 -8 -10 -15t-18 -7h-406l-48 -147h241l-28 -89h224l28 89h105q28 0 57.5 13t55 33.5t44.5 45.5t27 49l28 85
q7 21 0 39t-21.5 31t-34.5 20.5t-40 7.5h-300l4 13q2 8 10 15t18 7h406l48 147h-241z" />
    <glyph glyph-name="FL0025h" unicode="%" horiz-adv-x="937" 
d="M318 391q-2 -6 3 -6h31q5 0 8 6l17 53q1 2 0.5 5t-3.5 3h-31q-5 -2 -8 -8zM741 111q-2 -6 3 -6h31q5 0 8 6l17 53q1 2 0.5 5t-3.5 3h-31q-5 -2 -8 -8zM930 280q28 0 40.5 -22.5t4.5 -48.5l-48 -148q-4 -12 -13.5 -23t-21.5 -19.5t-25 -13.5t-25 -5h-233q-22 0 -37.5 18.5
t-7.5 42.5l47 146l-255 -207h-284l345 280h-231q-22 0 -37.5 18.5t-7.5 42.5l48 148q4 13 13.5 25.5t22.5 22.5t27.5 16.5t28.5 6.5h226q28 0 40.5 -22.5t4.5 -48.5l-44 -136l256 208h283l-346 -281h229z" />
    <glyph glyph-name="FL0026h" unicode="&#x26;" horiz-adv-x="846" 
d="M363 181q-5 -14 0 -24t24 -10h111q9 0 19 11t15 26l9 27h-132q-21 0 -31 -7t-15 -23zM799 144q-10 -30 -26.5 -56.5t-37.5 -46t-45.5 -30.5t-51.5 -11h-457q-42 0 -66 16t-33.5 41t-7.5 55t11 58q11 32 29.5 63t49.5 52q-8 9 -12 21t-4 26q0 15 2.5 30t7.5 29
q9 27 28.5 57t46.5 55t60.5 41.5t70.5 16.5h481l-47 -147h-323q-19 0 -30.5 -10t-16.5 -24q-5 -17 0.5 -23.5t26.5 -6.5h475l-46 -142h-64z" />
    <glyph glyph-name="FL0027h" unicode="'" horiz-adv-x="279" 
d="M183 470q6 19 20 35.5t32.5 29t41 19.5t45.5 7q45 0 68.5 -26.5t11.5 -64.5l-33 -101q-6 -19 -20.5 -35.5t-33 -29t-41 -19.5t-44.5 -7q-23 0 -40.5 7t-28.5 19.5t-14 29t3 35.5z" />
    <glyph glyph-name="FL0028h" unicode="(" horiz-adv-x="430" 
d="M368 615q-28 0 -57.5 -12.5t-55 -33t-44.5 -46t-28 -51.5l-131 -403q-8 -24 -3 -46t18 -39t32.5 -27.5t42.5 -10.5h233l48 147h-62q-8 0 -12 6.5t0 16.5l104 322q3 8 12 19t19 11h68l48 147h-232z" />
    <glyph glyph-name="FL0029h" unicode=")" horiz-adv-x="430" 
d="M230 615l-48 -147h68q10 0 12 -11t-1 -19l-104 -322q-4 -10 -12 -16.5t-16 -6.5h-62l-48 -147h233q22 0 49 10.5t51 27.5t43 39t27 46l131 403q9 26 6 51.5t-15 46t-33 33t-49 12.5h-232z" />
    <glyph glyph-name="asterisk" unicode="*" horiz-adv-x="288" 
d="M284 444l10 -53l107 66l-29 38l64 12l-3 95l-57 -24l21 50h-107l-11 -50l-34 26l-63 -96l47 -13l-51 -37l63 -67z" />
    <glyph glyph-name="FL002Bh" unicode="+" horiz-adv-x="395" 
d="M383 351h96l-46 -143h-96l-32 -97h-143l32 97h-96l46 143h96l31 95h143z" />
    <glyph glyph-name="FL002Ch" unicode="," horiz-adv-x="295" 
d="M60 92q6 19 21 36t35.5 29.5t44 19.5t47.5 7t43 -7t31 -19.5t15.5 -29.5t-2.5 -36l-34 -103q-6 -20 -20.5 -36.5t-34.5 -29t-43.5 -19.5t-47.5 -7q-48 0 -74.5 26.5t-14.5 65.5z" />
    <glyph glyph-name="FL002Dh" unicode="-" horiz-adv-x="395" 
d="M144 351h335l-46 -143h-335z" />
    <glyph glyph-name="FL002Eh" unicode="." horiz-adv-x="295" 
d="M60 92q-6 -20 -2 -36.5t16 -29t31 -19.5t43 -7t47.5 7t43.5 19.5t35 29t21 36.5q6 19 2.5 36t-15.5 29.5t-31 19.5t-43 7t-47.5 -7t-44 -19.5t-35.5 -29.5t-21 -36z" />
    <glyph glyph-name="FL002Fh" unicode="/" horiz-adv-x="827" 
d="M345 0h-328l647 561h328z" />
    <glyph glyph-name="FL0030h" unicode="0" horiz-adv-x="767" 
d="M364 170q-1 -5 0.5 -14t14.5 -9h105q6 0 15 8.5t14 14.5l69 212q3 8 1.5 20t-12.5 12h-107q-11 -2 -19.5 -13t-11.5 -19zM782 561q28 0 49 -12.5t33 -33t14.5 -46t-5.5 -51.5l-96 -295q-8 -24 -27 -46t-43 -39t-50.5 -27.5t-49.5 -10.5h-447q-23 0 -42.5 10.5t-33 27.5
t-18 39t3.5 46l96 295q8 26 27 51.5t44.5 46t54.5 33t57 12.5h433z" />
    <glyph glyph-name="FL0031h" unicode="1" horiz-adv-x="452" 
d="M422 0l182 561h-392l-47 -147h112l-135 -414h280z" />
    <glyph glyph-name="FL0032h" unicode="2" horiz-adv-x="768" 
d="M30 0h708l48 147h-427l20 63h297q19 0 45.5 11.5t52 29.5t46 40.5t27.5 45.5l29 87q8 26 5 50.5t-15.5 44t-33.5 31t-49 11.5h-570l-47 -147h406q10 0 11.5 -11t-0.5 -19l-10 -31h-300q-20 0 -45 -7.5t-48 -20.5t-41.5 -31t-25.5 -39z" />
    <glyph glyph-name="FL0033h" unicode="3" horiz-adv-x="725" 
d="M498 350q21 0 30.5 6.5t14.5 23.5q5 14 0.5 24t-23.5 10h-355l47 147h513q37 0 59.5 -16.5t33.5 -41.5t11.5 -55t-8.5 -57q-9 -28 -28 -58.5t-46 -47.5q17 -21 15.5 -52t-12.5 -63q-9 -28 -26.5 -58t-43 -55t-60 -41t-76.5 -16h-514l48 147h356q19 0 30 10t16 24
q5 16 0 23t-26 7h-355l45 139h354z" />
    <glyph glyph-name="FL0034h" unicode="4" horiz-adv-x="926" 
d="M88 180l-32 -99h464l-26 -81h279l26 81h123l47 143h-123l109 337h-412q-10 0 -24 -6.5t-27.5 -15.5t-25 -18t-17.5 -15zM463 224l115 109q5 5 7.5 7t7.5 2q2 -2 6 -4t4 -3l-36 -111h-104z" />
    <glyph glyph-name="FL0035h" unicode="5" horiz-adv-x="768" 
d="M784 141q-8 -24 -27 -49t-44.5 -45.5t-55 -33.5t-57.5 -13h-570l48 147h406q10 0 19 11t12 19l10 33h-297q-20 0 -39 11.5t-32.5 29.5t-19 40.5t1.5 45.5l73 224h707l-47 -147h-427l-20 -61h300q20 0 40 -7.5t34.5 -20.5t21.5 -31t0 -39z" />
    <glyph glyph-name="FL0036h" unicode="6" 
d="M379 147q-11 0 -11.5 8.5t-2.5 14.5l14 41h167l-14 -41q-5 -6 -13 -14.5t-16 -8.5h-124zM838 253q7 21 0.5 40.5t-21 34t-34.5 23t-40 8.5h-316l7 23h-2l3 2q2 8 11.5 19t19.5 11h422l47 147h-586q-28 0 -57 -12.5t-54.5 -33t-44.5 -46t-27 -51.5l-96 -295q-8 -23 -3 -45
t18 -39t32.5 -28t42.5 -11h466q23 0 49.5 10.5t50.5 27.5t43 39t27 46z" />
    <glyph glyph-name="FL0037h" unicode="7" horiz-adv-x="815" 
d="M114 0l478 414h-427l47 147h755l-47 -147l-478 -414h-328z" />
    <glyph glyph-name="FL0038h" unicode="8" horiz-adv-x="769" 
d="M543 350q21 0 30.5 6.5t14.5 23.5q5 14 0.5 24t-23.5 10h-97q-17 -2 -26.5 -11.5t-14.5 -22.5q-5 -17 0.5 -23.5t26.5 -6.5h89zM362 181q-5 -14 0 -24t24 -10h98q31 4 41 34q5 14 1 21t-21 9h-103q-18 -2 -26.5 -9t-13.5 -21zM770 561q37 0 59.5 -16.5t33.5 -41.5
t11.5 -55t-8.5 -57q-9 -28 -28 -58.5t-46 -47.5q17 -21 15.5 -52t-12.5 -63q-9 -28 -26.5 -58t-43 -55t-60 -41t-76.5 -16h-409q-42 0 -66 16t-33.5 41t-7.5 55t11 58q11 32 29.5 63t49.5 52q-8 9 -12 21t-4 26q0 15 2.5 30t7.5 29q9 27 28.5 57t46.5 55t60.5 41.5
t70.5 16.5h407z" />
    <glyph glyph-name="FL0039h" unicode="9" 
d="M590 414q11 0 11.5 -8.5t1.5 -14.5l-13 -41h-167l13 41q5 6 13.5 14.5t16.5 8.5h124zM130 308q-7 -21 -0.5 -40.5t21.5 -34t35 -23t40 -8.5h316l-8 -23h2l-2 -2q-3 -8 -12 -19t-19 -11h-422l-48 -147h586q28 0 57 12.5t54 33t44.5 46t27.5 51.5l96 295q7 22 2.5 44.5
t-17.5 39.5t-33 28t-42 11h-466q-23 0 -49.5 -10.5t-50.5 -27.5t-43 -39t-27 -46z" />
    <glyph glyph-name="FL003Ah" unicode=":" horiz-adv-x="295" 
d="M60 92q-6 -20 -2 -36.5t16 -29t31 -19.5t43 -7t47.5 7t43.5 19.5t35 29t21 36.5q6 19 2.5 36t-15.5 29.5t-31 19.5t-43 7t-47.5 -7t-44 -19.5t-35.5 -29.5t-21 -36zM134 323q-6 -20 -2 -36.5t16 -29t31 -19.5t43 -7t47.5 7t43.5 19.5t35 29t21 36.5q6 19 2.5 36
t-15.5 29.5t-31 19.5t-43 7t-47.5 -7t-44 -19.5t-35.5 -29.5t-21 -36z" />
    <glyph glyph-name="FL003Bh" unicode=";" horiz-adv-x="295" 
d="M134 323q-6 -20 -2 -36.5t16 -29t31 -19.5t43 -7t47.5 7t43.5 19.5t35 29t21 36.5q6 19 2.5 36t-15.5 29.5t-31 19.5t-43 7t-47.5 -7t-44 -19.5t-35.5 -29.5t-21 -36zM26 -11q-12 -39 14.5 -65.5t74.5 -26.5q24 0 47.5 7t43.5 19.5t34.5 29t20.5 36.5l34 103q6 19 2.5 36
t-15.5 29.5t-31 19.5t-43 7t-47.5 -7t-44 -19.5t-35.5 -29.5t-21 -36z" />
    <glyph glyph-name="FL003Ch" unicode="&#x3c;" horiz-adv-x="595" 
d="M250 0h328l-142 281l323 280h-328l-323 -280z" />
    <glyph glyph-name="FL003Dh" unicode="=" horiz-adv-x="436" 
d="M177 453h376l-46 -143h-376zM112 251h376l-47 -143h-376z" />
    <glyph glyph-name="FL003Eh" unicode="&#x3e;" horiz-adv-x="595" 
d="M344 0h-328l324 281l-141 280h328l141 -280z" />
    <glyph glyph-name="FL003Fh" unicode="?" horiz-adv-x="768" 
d="M168 92q6 19 21 36t35.5 29.5t44 19.5t47.5 7t43 -7t31 -19.5t15.5 -29.5t-2.5 -36q-6 -20 -21 -36.5t-35 -29t-43.5 -19.5t-47.5 -7t-43 7t-31 19.5t-16 29t2 36.5zM221 255q7 21 25.5 39t41.5 31t48 20.5t45 7.5h192l10 31q2 8 0.5 19t-11.5 11h-406l47 147h570
q28 0 49 -11.5t33.5 -31t15.5 -44t-5 -50.5l-29 -87q-7 -23 -27 -45t-45 -39t-51.5 -28t-45.5 -11h-470z" />
    <glyph glyph-name="FL0040h" unicode="@" horiz-adv-x="1037" 
d="M542 421q-14 0 -28.5 -6.5t-27.5 -16.5t-22.5 -22.5t-13.5 -25.5l-48 -148q-8 -24 7.5 -42.5t37.5 -18.5h489q22 0 48.5 10.5t51 27.5t43.5 39t27 46l67 208q9 26 6 51.5t-15 46t-33 33t-49 12.5h-727q-28 0 -57.5 -12.5t-55 -33t-44.5 -46t-28 -51.5l-131 -403
q-8 -24 -3 -46t18 -39t32.5 -27.5t42.5 -10.5h552l48 147h-381q-8 0 -12 6.5t0 16.5l104 322q3 8 12 19t19 11h399q10 0 12 -11t-1 -19l-41 -128q-3 -10 -11.5 -16.5t-16.5 -6.5h-20l21 63q8 26 -4.5 48.5t-40.5 22.5h-226zM596 305q2 6 8 8h31q3 0 3.5 -3t-0.5 -5l-17 -53
q-3 -6 -8 -6h-31q-5 0 -3 6z" />
    <glyph glyph-name="FL0041h" unicode="A" 
d="M436 391v1q5 6 13.5 14t16.5 8h124q12 0 12 -9q0 -8 1 -14l-29 -90h-167zM756 0l142 437q7 22 2.5 44.5t-17.5 40t-32.5 28.5t-42.5 11h-466q-23 0 -49.5 -10.5t-50.5 -28t-43.5 -39.5t-26.5 -46l-142 -437h279l51 158h167l-51 -158h280z" />
    <glyph glyph-name="FL0042h" unicode="B" 
d="M423 350l21 64h137q19 0 23.5 -10t-0.5 -24q-5 -17 -14.5 -23.5t-30.5 -6.5h-136zM515 211q21 0 26 -7t0 -23q-5 -14 -16 -24t-30 -10h-138l21 64h137zM605 0q42 0 76.5 16t60 41t43 55t26.5 58q11 32 12.5 63t-15.5 52q27 17 46 47.5t28 58.5q9 27 8.5 57t-11.5 55
t-33.5 41.5t-59.5 16.5h-574l-182 -561h575z" />
    <glyph glyph-name="FL0043h" unicode="C" horiz-adv-x="703" 
d="M349 561q-28 0 -57 -12.5t-54.5 -33t-44.5 -46t-27 -51.5l-96 -295q-8 -24 -3.5 -46t18 -39t33 -27.5t42.5 -10.5h507l48 147h-336q-8 0 -12 6.5t-2 16.5l70 214q2 8 11.5 19t19.5 11h342l47 147h-506z" />
    <glyph glyph-name="FL0044h" unicode="D" horiz-adv-x="779" 
d="M441 403h117q14 0 19.5 -9t5.5 -23q0 -13 -4 -29t-8 -29l-22 -68q-5 -15 -11.5 -32t-16.5 -31t-24 -23t-35 -9h-103zM30 0h622q18 0 38.5 10.5t39.5 26.5t34 35.5t21 37.5l104 321q7 20 4.5 43t-11.5 42.5t-25 32t-36 12.5h-609z" />
    <glyph glyph-name="FL0045h" unicode="E" horiz-adv-x="703" 
d="M349 561q-28 0 -57 -12.5t-54.5 -33t-44.5 -46t-27 -51.5l-96 -295q-8 -24 -3.5 -46t18 -39t33 -27.5t42.5 -10.5h513l48 147h-342q-2 0 -7 8.5t-7 14.5q1 1 1 3t1 4q0 4 3 7q2 3 6.5 7l9 8t8.5 6.5t5 2.5h342l46 143h-335q-13 0 -18 10t-1 21q3 8 13 20t20 12h342
l47 147h-506z" />
    <glyph glyph-name="FL0046h" unicode="F" horiz-adv-x="703" 
d="M349 561q-28 0 -57 -12.5t-54.5 -33t-44.5 -46t-27 -51.5l-136 -418h280l60 184q2 3 6.5 7l9 8t8.5 6.5t5 2.5h342l46 143h-335q-13 0 -18 10t-1 21q3 8 13 20t20 12h342l47 147h-506z" />
    <glyph glyph-name="FL00B9h" unicode="G" 
d="M349 561q-28 0 -57 -12.5t-54.5 -33t-44.5 -46t-27 -51.5l-96 -295q-8 -23 -3 -45t18 -39t32.5 -28t42.5 -11h466q23 0 49.5 10.5t50.5 27.5t43 39t27 46l84 259h-279l-69 -213q-5 -6 -13 -14t-16 -8h-124q-11 0 -11.5 8.5t-2.5 14.5l69 212h-2l3 2q2 8 11.5 19t19.5 11
h342l47 147h-506z" />
    <glyph glyph-name="FL0048h" unicode="H" horiz-adv-x="756" 
d="M627 561l-68 -210h-135l68 210h-280l-182 -561h280l68 208h135l-68 -208h281l182 561h-281z" />
    <glyph glyph-name="FL0049h" unicode="I" horiz-adv-x="724" 
d="M78 147h191l87 267h-190l47 147h663l-47 -147h-193l-87 -267h192l-48 -147h-663z" />
    <glyph glyph-name="FL004Ah" unicode="J" 
d="M365 170q2 -6 2.5 -14.5t11.5 -8.5h124q8 0 16 8.5t13 14.5l127 391h279l-142 -438q-8 -24 -27 -46t-43 -39t-50.5 -27.5t-49.5 -10.5h-466q-23 0 -42.5 11t-32.5 28t-18 39t3 45l49 150h280z" />
    <glyph glyph-name="FL004Bh" unicode="K" horiz-adv-x="751" 
d="M380 97q7 -14 17.5 -31t24 -31.5t30.5 -24.5t37 -10h232l48 148h-44q-25 0 -49.5 13t-41.5 34.5t-24 49t2 56.5q6 18 24.5 37.5t41.5 36t45.5 27.5t36.5 11h95l48 148h-212q-30 -3 -57.5 -15t-50 -26t-37.5 -27t-20 -18v-2q-32 -23 -53.5 -53.5t-45.5 -60.5l65 202h-280
l-182 -561h280l53 164z" />
    <glyph glyph-name="FL004Ch" unicode="L" horiz-adv-x="703" 
d="M76 142q-10 -30 -10 -56q0 -25 8.5 -44.5t26.5 -30.5t44 -11h528l48 147h-325q-20 2 -26.5 9.5t0.5 27.5l122 377h-280z" />
    <glyph glyph-name="FL004Dh" unicode="M" horiz-adv-x="1109" 
d="M798 0h280l142 438q7 22 2.5 44.5t-17.5 39.5t-33 28t-42 11h-789q-23 0 -49.5 -10.5t-50.5 -27.5t-43 -39t-27 -46l-142 -438h279l127 391q5 6 13.5 14.5t16.5 8.5h62q11 0 11.5 -8.5t0.5 -14.5l-127 -391h281l128 393l1 2q5 5 12.5 12t14.5 7h63q11 0 11.5 -8.5
t1.5 -14.5z" />
    <glyph glyph-name="FL004Eh" unicode="N" 
d="M603 391q-1 6 -1.5 14.5t-11.5 8.5h-146l-135 -414h-279l182 561h596q22 0 42 -11t33 -28t17.5 -39.5t-2.5 -44.5l-142 -438h-280z" />
    <glyph glyph-name="FL004Fh" unicode="O" 
d="M364 170q-1 -5 0.5 -14t14.5 -9h124q6 0 15 8.5t14 14.5l69 212q3 8 1.5 20t-12.5 12h-126q-11 -2 -19.5 -13t-11.5 -19zM801 561q28 0 49 -12.5t33 -33t14.5 -46t-5.5 -51.5l-96 -295q-8 -24 -27 -46t-43 -39t-50.5 -27.5t-49.5 -10.5h-466q-23 0 -42.5 10.5t-33 27.5
t-18 39t3.5 46l96 295q8 26 27 51.5t44.5 46t54.5 33t57 12.5h452z" />
    <glyph glyph-name="FL0050h" unicode="P" 
d="M444 414h138q9 0 14 -6t6.5 -14.5t0 -17.5t-3.5 -16q-3 -8 -8.5 -18t-13.5 -18.5t-17.5 -14t-19.5 -5.5h-132zM30 0h279l51 157h297q42 0 76.5 18.5t62 48t47.5 67t32 75.5q9 27 12 61t-5 63.5t-30.5 50t-64.5 20.5h-575z" />
    <glyph glyph-name="FL0051h" unicode="Q" horiz-adv-x="788" 
d="M551 226l22 65l13 42l8 23l4 13q3 11 5 13q3 8 1.5 19t-10.5 13h-126q-11 0 -20.5 -12t-12.5 -20l-69 -212q2 -6 6 -14.5t6 -8.5h127q11 0 17 8.5t11 14.5zM157 0q-21 1 -40 12t-31.5 28t-17 38.5t3.5 44.5l96 295q8 26 27 51.5t44.5 46t54.5 33t57 12.5h452
q28 0 48.5 -12.5t33 -33t15 -46t-5.5 -51.5l-96 -295q-8 -24 -27 -46t-43.5 -39t-51 -27.5t-48.5 -10.5h-96l-35 -40q-17 -19 -40.5 -38.5t-49 -35t-52 -25.5t-50.5 -10h-390l48 149h194z" />
    <glyph glyph-name="FL0052h" unicode="R" horiz-adv-x="809" 
d="M444 414h138q9 0 14 -5.5t6.5 -14t0 -17.5t-3.5 -16q-3 -8 -8.5 -18t-13.5 -18.5t-17.5 -14.5t-19.5 -6h-132zM30 0h279l49 150q0 1 5.5 3t12.5 4h2q17 0 29 -10t19 -24l52 -123h346l-91 209q-1 1 2 8q1 7 9 13q24 0 46 16t40 40.5t31.5 52.5t21.5 52q9 28 13 58t-3.5 55
t-30 41t-65.5 16h-585z" />
    <glyph glyph-name="FL005Ah" unicode="S" horiz-adv-x="768" 
d="M784 141q-8 -24 -27 -49t-44.5 -45.5t-55 -33.5t-57.5 -13h-570l48 147h406q10 0 19 11t12 19l10 33h-297q-20 0 -39 11.5t-32.5 29.5t-19 40.5t1.5 45.5l29 87q8 26 27 50.5t43.5 44t53.5 31t57 11.5h570l-47 -147h-406q-10 0 -19.5 -11t-11.5 -19l-10 -31h300
q20 0 40 -7.5t34.5 -20.5t21.5 -31t0 -39z" />
    <glyph glyph-name="FL0055h" unicode="T" horiz-adv-x="749" 
d="M212 561l-47 -147h203l-135 -414h280l135 414h206l47 147h-689z" />
    <glyph glyph-name="FL0056h" unicode="U" 
d="M365 170q2 -6 2.5 -14.5t11.5 -8.5h146l134 414h279l-182 -561h-596q-23 0 -42.5 11t-32.5 28t-18 39t3 45l142 438h280z" />
    <glyph glyph-name="FL0057h" unicode="V" horiz-adv-x="924" 
d="M536 54q-6 -5 -17.5 -14.5t-25 -18.5t-27.5 -15.5t-24 -6.5h-412l182 561h279l-109 -335q0 -1 4 -3t6 -4q5 0 8.5 3.5t9.5 8.5l351 331h328z" />
    <glyph glyph-name="FL0059h" unicode="W" horiz-adv-x="1109" 
d="M745 561l145 -279l90 279h280l-182 -561h-360q-15 0 -32.5 23t-33.5 52.5t-27.5 57t-14.5 36.5v3h-3q-3 -4 -18 -18.5t-36 -33.5t-46.5 -40t-49 -39t-44 -29.5t-31.5 -11.5h-353l182 561h280l-90 -279l322 279h22z" />
    <glyph glyph-name="FL0058h" unicode="X" horiz-adv-x="751" 
d="M30 0l48 149h89q9 0 32.5 12t50.5 31t51.5 40.5t35.5 41.5q-11 29 -23 58t-32 56q-7 9 -19 14t-24 7.5t-22 3t-13 0.5h-40l48 148h233q27 0 44 -11.5t27.5 -27.5t16.5 -32.5t12 -26.5q1 0 12.5 12.5t31.5 29t46 33t56 23.5h212l-48 -148h-123q-8 0 -25.5 -11.5t-36.5 -28
t-35 -34t-20 -29.5q-8 -24 -1 -52.5t23 -53t39.5 -40.5t48.5 -16h44l-48 -148h-232q-20 0 -37 10t-30.5 24.5t-24 31.5t-17.5 31q-3 6 -5 9q-28 -29 -53.5 -47.5t-48.5 -31.5q-30 -17 -59 -22t-58 -5h-126z" />
    <glyph glyph-name="FL007Ch" unicode="Y" horiz-adv-x="773" 
d="M644 561l-61 -189q-5 -6 -12.5 -14t-13.5 -8h-112q-11 0 -11.5 9.5t-1.5 14.5l60 187h-280l-75 -231q-7 -23 -2.5 -45t17.5 -39t32.5 -28t42.5 -11h302l-7 -23q-7 -20 -17 -27.5t-31 -9.5h-391l-48 -147h594q26 0 50.5 11t45.5 30.5t38 46t27 56.5l135 417h-281z" />
    <glyph glyph-name="FL007Bh" unicode="Z" horiz-adv-x="932" 
d="M950 148h-174q-9 0 -17 8.5t-14 20t-9.5 23.5t-4.5 19l-54 233q-3 15 -12.5 34t-24 35.5t-33 28t-39.5 11.5h-356l-47 -147h151q9 0 16.5 -7t13.5 -17.5t10 -21.5t6 -19l55 -239q4 -20 14.5 -39.5t26 -35.5t36 -25.5t44.5 -9.5h364z" />
    <glyph glyph-name="FL005Bh" unicode="[" horiz-adv-x="430" 
d="M600 615l-48 -147h-89l-122 -375h82l-48 -147h-363l218 669h370z" />
    <glyph glyph-name="FL005Ch" unicode="\" horiz-adv-x="827" 
d="M481 0h328l-283 561h-328z" />
    <glyph glyph-name="FL005Dh" unicode="]" horiz-adv-x="430" 
d="M230 615l-48 -147h89l-122 -375h-82l-48 -147h363l218 669h-370z" />
    <glyph glyph-name="FL005Eh" unicode="^" horiz-adv-x="925" 
d="M682 506q-3 5 -8.5 14.5t-12.5 18.5t-16 15.5t-20 6.5h-413l-182 -561h279l109 335q0 1 5.5 3t9.5 4q5 0 6 -2t3 -7l137 -334h329z" />
    <glyph glyph-name="FL005Fh" unicode="_" horiz-adv-x="589" 
d="M607 147h-529l-48 -147h529z" />
    <glyph glyph-name="FL0061h" unicode="`" horiz-adv-x="1461" 
d="M854 414l47 147h-689l-47 -147h203l-135 -414h280l135 414h206zM554 0h328l355 334l7 7t7 2q2 -2 6 -4t4 -3l-109 -335h279l183 561h-412q-10 0 -24 -6.5t-27.5 -15.5t-25 -18t-17.5 -15z" />
    <glyph glyph-name="a" unicode="a" horiz-adv-x="924" 
d="M17 -1h328l354 334q5 5 7.5 7t7.5 2q2 -2 6 -4t4 -3l-109 -335h279l182 561h-412q-10 0 -24 -6.5t-27.5 -15.5t-25 -18t-17.5 -15z" />
    <glyph glyph-name="FL0062h" unicode="b" 
d="M423 350l21 64h137q19 0 23.5 -10t-0.5 -24q-5 -17 -14.5 -23.5t-30.5 -6.5h-136zM515 211q21 0 26 -7t0 -23q-5 -14 -16 -24t-30 -10h-138l21 64h137zM605 0q42 0 76.5 16t60 41t43 55t26.5 58q11 32 12.5 63t-15.5 52q27 17 46 47.5t28 58.5q9 27 8.5 57t-11.5 55
t-33.5 41.5t-59.5 16.5h-574l-182 -561h575z" />
    <glyph glyph-name="FL0063h" unicode="c" horiz-adv-x="703" 
d="M855 561l-47 -147h-342q-10 0 -19.5 -11t-11.5 -19l-70 -214q-2 -10 2 -16.5t12 -6.5h336l-48 -147h-507q-23 0 -42.5 10.5t-33 27.5t-18 39t3.5 46l96 295q8 26 27 51.5t44.5 46t54.5 33t57 12.5h506z" />
    <glyph glyph-name="d" unicode="d" horiz-adv-x="779" 
d="M441 403h117q14 0 19.5 -9t5.5 -23q0 -13 -4 -29t-8 -29l-22 -68q-5 -15 -11.5 -32t-16.5 -31t-24 -23t-35 -9h-103zM30 0h622q18 0 38.5 10.5t39.5 26.5t34 35.5t21 37.5l104 321q7 20 4.5 43t-11.5 42.5t-25 32t-36 12.5h-609z" />
    <glyph glyph-name="E" unicode="e" horiz-adv-x="703" 
d="M855 561l-47 -147h-342q-10 0 -20 -12t-13 -20q-4 -11 1 -21t18 -10h335l-46 -143h-342q-1 0 -5 -2.5t-8.5 -6.5l-9 -8t-6.5 -7q-3 -3 -3 -7q-1 -2 -1 -4t-1 -3q2 -6 7 -14.5t7 -8.5h342l-48 -147h-513q-23 0 -42.5 10.5t-33 27.5t-18 39t3.5 46l96 295q8 26 27 51.5
t44.5 46t54.5 33t57 12.5h506z" />
    <glyph glyph-name="FL0066h" unicode="f" horiz-adv-x="703" 
d="M855 561l-47 -147h-342q-10 0 -20 -12t-13 -20q-4 -11 1 -21t18 -10h335l-46 -143h-342q-1 0 -5 -2.5t-8.5 -6.5l-9 -8t-6.5 -7l-60 -184h-280l136 418q8 26 27 51.5t44.5 46t54.5 33t57 12.5h506z" />
    <glyph glyph-name="FL0067h" unicode="g" 
d="M838 253q7 21 0.5 40.5t-21 34t-34.5 23t-40 8.5h-260l-48 -148h111l-14 -41q-5 -6 -13 -14.5t-16 -8.5h-124q-11 0 -11.5 8.5t-2.5 14.5l69 212h-2l3 2q2 8 11.5 19t19.5 11h422l47 147h-586q-28 0 -57 -12.5t-54.5 -33t-44.5 -46t-27 -51.5l-96 -295q-8 -23 -3 -45
t18 -39t32.5 -28t42.5 -11h466q23 0 49.5 10.5t50.5 27.5t43 39t27 46z" />
    <glyph glyph-name="FL0068h" unicode="h" horiz-adv-x="756" 
d="M627 561l-68 -210h-135l68 210h-280l-182 -561h280l68 208h135l-68 -208h281l182 561h-281z" />
    <glyph glyph-name="FL0069h" unicode="i" horiz-adv-x="340" 
d="M212 561l-182 -561h280l182 561h-280z" />
    <glyph glyph-name="FL006Ah" unicode="j" horiz-adv-x="703" 
d="M720 144q-10 -30 -26.5 -56.5t-37.5 -46t-45.5 -30.5t-51.5 -11h-529l48 147h325q22 2 32.5 9.5t17.5 27.5l122 377h280z" />
    <glyph glyph-name="FL006Bh" unicode="k" horiz-adv-x="751" 
d="M380 97q7 -14 17.5 -31t24 -31.5t30.5 -24.5t37 -10h232l48 148h-44q-25 0 -49.5 13t-41.5 34.5t-24 49t2 56.5q6 18 24.5 37.5t41.5 36t45.5 27.5t36.5 11h95l48 148h-212q-30 -3 -57.5 -15t-50 -26t-37.5 -27t-20 -18v-2q-32 -23 -53.5 -53.5t-45.5 -60.5l65 202h-280
l-182 -561h280l53 164z" />
    <glyph glyph-name="l" unicode="l" horiz-adv-x="703" 
d="M212 561h280l-122 -377q-7 -20 -0.5 -27.5t26.5 -9.5h325l-48 -147h-528q-26 0 -44 11t-26.5 30.5t-8.5 44.5q0 26 10 56z" />
    <glyph glyph-name="FL006Dh" unicode="m" horiz-adv-x="1109" 
d="M567 0l323 279l-91 -279h280l182 561h-353q-11 0 -31.5 -11.5t-44 -29.5t-49 -39t-47 -40t-36.5 -33.5t-18 -18.5h-2q1 1 -1 3q-3 9 -14.5 36.5t-27 57t-33 52.5t-32.5 23h-360l-182 -561h280l91 279l144 -279h22z" />
    <glyph glyph-name="FL0071h" unicode="n" horiz-adv-x="919" 
d="M793 561l-93 -286l-50 185q-3 13 -12.5 30.5t-22 33t-28 26.5t-31.5 11h-344l-182 -561h280l91 279l58 -175q6 -17 15.5 -35.5t22 -33.5t30 -25t40.5 -10h322l182 561h-278z" />
    <glyph glyph-name="FL006Fh" unicode="o" 
d="M349 561q-28 0 -57 -12.5t-54.5 -33t-44.5 -46t-27 -51.5l-96 -295q-8 -24 -3.5 -46t18 -39t33 -27.5t42.5 -10.5h466q23 0 49.5 10.5t50.5 27.5t43 39t27 46l96 295q8 26 5.5 51.5t-14.5 46t-33 33t-49 12.5h-452zM433 382q3 8 11.5 19t19.5 13h126q11 0 12.5 -12
t-1.5 -20l-69 -212q-5 -6 -14 -14.5t-15 -8.5h-124q-13 0 -14.5 9t-0.5 14z" />
    <glyph glyph-name="FL0070h" unicode="p" 
d="M212 561h575q42 0 64.5 -20.5t30.5 -50t5 -63.5t-12 -61q-12 -38 -32 -75.5t-47.5 -67t-62 -48t-76.5 -18.5h-297l-51 -157h-279zM408 304h132q10 0 19.5 5.5t17.5 14t13.5 18.5t8.5 18q2 7 3.5 16t0 17.5t-6.5 14.5t-14 6h-138z" />
    <glyph glyph-name="FL0072h" unicode="q" 
d="M825 0l-48 -149h-390q-24 0 -44 10t-36 25.5t-27 35t-15 38.5l-9 40h-96q-23 0 -42.5 10.5t-33 27.5t-18 39t3.5 46l96 295q8 26 27 51.5t44.5 46t54.5 33t57 12.5h452q28 0 49 -12.5t33 -33t14.5 -46t-5.5 -51.5l-96 -295q-8 -23 -26 -44.5t-41.5 -38.5t-49.5 -28
t-48 -12h194zM365 170q2 -6 2.5 -14.5t11.5 -8.5h127q2 0 11.5 8.5t14.5 14.5l69 212q3 8 1.5 20t-12.5 12h-126q-11 -2 -19.5 -13t-11.5 -19q0 -3 -3 -13l-4 -13l-8 -23l-13 -42l-22 -65z" />
    <glyph glyph-name="r" unicode="r" horiz-adv-x="809" 
d="M444 414h138q9 0 14 -5.5t6.5 -14t0 -17.5t-3.5 -16q-3 -8 -8.5 -18t-13.5 -18.5t-17.5 -14.5t-19.5 -6h-132zM30 0h279l49 150q0 1 5.5 3t12.5 4h2q17 0 29 -10t19 -24l52 -123h346l-91 209q-1 1 2 8q1 7 9 13q24 0 46 16t40 40.5t31.5 52.5t21.5 52q9 28 13 58t-3.5 55
t-30 41t-65.5 16h-585z" />
    <glyph glyph-name="s" unicode="s" horiz-adv-x="900" 
d="M30 0h337q25 0 52 10t52.5 26t48.5 35.5t40 38.5l209 239q6 8 17 19t24.5 21.5t26.5 17.5t22 7h146l47 147h-351q-21 0 -48.5 -13.5t-53.5 -31.5t-47.5 -36.5t-29.5 -27.5l-208 -237l-19.5 -19.5t-24 -22t-24.5 -18t-21 -7.5h-147z" />
    <glyph glyph-name="FL0074h" unicode="t" horiz-adv-x="749" 
d="M901 561l-47 -147h-206l-135 -414h-280l135 414h-203l47 147h689z" />
    <glyph glyph-name="FL0075h" unicode="u" 
d="M365 170q2 -6 2.5 -14.5t11.5 -8.5h124q8 0 16 8t13 14l127 392h279l-142 -438q-8 -24 -27 -46t-43 -39t-50.5 -27.5t-49.5 -10.5h-466q-23 0 -42.5 11t-32.5 28t-18 39t3 45l142 438h280z" />
    <glyph glyph-name="FL0076h" unicode="v" horiz-adv-x="924" 
d="M199 561h328l137 -331q2 -5 3.5 -8.5t6.5 -3.5q4 2 9 4t5 3l109 335h279l-182 -561h-412q-11 0 -20.5 6.5t-17 15.5t-13 18.5t-7.5 14.5z" />
    <glyph glyph-name="FL0077h" unicode="w" horiz-adv-x="1109" 
d="M492 561h-280l-142 -438q-8 -23 -3 -45t18 -39t32.5 -28t42.5 -11h789q23 0 49.5 10.5t50.5 27.5t43 39t27 46l142 438h-279l-127 -391q-5 -6 -13 -14.5t-16 -8.5h-62q-11 0 -11.5 8.5t-1.5 14.5l127 391h-281l-127 -393l-2 -2l-12 -12t-14 -7h-63q-11 0 -11.5 8.5
t-2.5 14.5z" />
    <glyph glyph-name="x" unicode="x" horiz-adv-x="751" 
d="M156 0q29 0 58 5t59 22q23 13 48.5 31.5t53.5 47.5q2 -3 5 -9q7 -14 17.5 -31t24 -31.5t30.5 -24.5t37 -10h232l48 148h-44q-25 0 -48.5 16t-39.5 40.5t-23 53t1 52.5q4 12 20 29.5t35 34t36.5 28t25.5 11.5h123l48 148h-212q-30 -7 -56 -23.5t-46 -33t-31.5 -29
t-12.5 -12.5q-6 10 -12 26.5t-16.5 32.5t-27.5 27.5t-44 11.5h-233l-48 -148h40q3 0 13 -0.5t22 -3t24 -7.5t19 -14q20 -27 32 -56t23 -58q-11 -20 -35.5 -41.5t-51.5 -40.5t-50.5 -31t-32.5 -12h-89l-48 -149h126z" />
    <glyph glyph-name="FL0079h" unicode="y" horiz-adv-x="751" 
d="M855 413h-102q-10 -4 -31.5 -15.5t-44 -27t-41 -33.5t-24.5 -35l-98 -302h-280l92 284q1 17 -3 30t-10.5 24.5t-15 21t-16.5 20.5q-9 12 -21 18.5t-23.5 9.5t-20.5 4t-12 1h-40l48 148h226q27 0 44 -12t27.5 -28.5t17 -33.5t13.5 -27q1 0 12.5 13t31 30t45 33.5
t55.5 24.5h219z" />
    <glyph glyph-name="FL007Dh" unicode="z" horiz-adv-x="899" 
d="M869 0h-335q-24 0 -44.5 10t-36.5 26t-26.5 35.5t-14.5 38.5l-55 239q-2 8 -6 19t-10 21.5t-13.5 17.5t-17.5 7h-145l47 147h351q21 0 39.5 -13.5t33 -31.5t24 -36.5t12.5 -27.5l53 -233q2 -7 5.5 -19t9 -23.5t13.5 -20t18 -8.5h146z" />
    <glyph glyph-name="FL0060h" unicode="{" horiz-adv-x="1487" 
d="M30 0h337q25 0 52 10t52.5 26t48.5 35.5t40 38.5l209 239q6 8 17 19t24.5 21.5t26.5 17.5t22 7h146l47 147h-351q-21 0 -48.5 -13.5t-53.5 -31.5t-47.5 -36.5t-29.5 -27.5l-208 -237l-19.5 -19.5t-24 -22t-24.5 -18t-21 -7.5h-147zM617 0h337q25 0 52 10t52.5 26
t48.5 35.5t40 38.5l209 239q6 8 17 19t24.5 21.5t26.5 17.5t22 7h146l47 147h-351q-21 0 -48.5 -13.5t-53.5 -31.5t-47.5 -36.5t-29.5 -27.5l-208 -237l-19.5 -19.5t-24 -22t-24.5 -18t-21 -7.5h-147z" />
    <glyph glyph-name="FL007Eh" unicode="|" horiz-adv-x="340" 
d="M547 730l-292 -899h-280l292 899h280z" />
    <glyph glyph-name="FL0083h" unicode="}" horiz-adv-x="1537" 
d="M30 0h337q25 0 52 10t52.5 26t48.5 35.5t40 38.5l209 239q6 8 17 19t24.5 21.5t26.5 17.5t22 7h146l47 147h-351q-21 0 -48.5 -13.5t-53.5 -31.5t-47.5 -36.5t-29.5 -27.5l-208 -237l-19.5 -19.5t-24 -22t-24.5 -18t-21 -7.5h-147zM630 0h328l355 334l7 7t7 2q2 -2 6 -4
t4 -3l-109 -335h279l183 561h-412q-10 0 -24 -6.5t-27.5 -15.5t-25 -18t-17.5 -15z" />
    <glyph glyph-name="FL0082h" unicode="~" horiz-adv-x="1466" 
d="M854 414l47 147h-689l-47 -147h203l-135 -414h280l135 414h206zM596 0h337q25 0 52 10t52.5 26t48.5 35.5t40 38.5l209 239q6 8 17 19t24.5 21.5t26.5 17.5t22 7h146l47 147h-351q-21 0 -48.5 -13.5t-53.5 -31.5t-47.5 -36.5t-29.5 -27.5l-208 -237l-19.5 -19.5t-24 -22
t-24.5 -18t-21 -7.5h-147z" />
    <glyph glyph-name="FL007Fh" horiz-adv-x="236" 
 />
    <glyph glyph-name="FL20ACh" horiz-adv-x="807" 
d="M147 359l-21 -64h118l-11 -32h-118l-20 -64h118l-25 -76q-8 -24 -3.5 -46t18 -39t33 -27.5t42.5 -10.5h493l48 147h-322q-8 0 -12 6.5t-2 16.5l10 29h181l20 64h-181l11 32h181l21 64h-181l8 25q2 8 11.5 19t19.5 11h328l47 147h-492q-28 0 -57 -12.5t-54.5 -33
t-44.5 -46t-27 -51.5l-19 -59h-118z" />
    <glyph glyph-name="FL20ACh" unicode="&#x20ac;" horiz-adv-x="807" 
d="M147 359l-21 -64h118l-11 -32h-118l-20 -64h118l-25 -76q-8 -24 -3.5 -46t18 -39t33 -27.5t42.5 -10.5h493l48 147h-322q-8 0 -12 6.5t-2 16.5l10 29h181l20 64h-181l11 32h181l21 64h-181l8 25q2 8 11.5 19t19.5 11h328l47 147h-492q-28 0 -57 -12.5t-54.5 -33
t-44.5 -46t-27 -51.5l-19 -59h-118z" />
    <glyph glyph-name="FL017Fh" horiz-adv-x="1487" 
d="M1457 0h-337q-24 0 -44.5 10t-36 26t-26 35.5t-14.5 38.5l-55 239q0 8 -4 19t-10.5 21.5t-14.5 17.5t-17 7h-146l47 147h351q21 0 39.5 -13.5t33.5 -31.5t24.5 -36.5t11.5 -27.5l54 -237q2 -8 6 -19.5t10 -22t13 -18t16 -7.5h147zM870 0h-337q-24 0 -44.5 10t-36 26
t-26 35.5t-14.5 38.5l-55 239q0 8 -4 19t-10.5 21.5t-14.5 17.5t-17 7h-146l47 147h351q21 0 39.5 -13.5t33.5 -31.5t24.5 -36.5t11.5 -27.5l54 -237q2 -8 6 -19.5t10 -22t13 -18t16 -7.5h147z" />
    <glyph glyph-name="FL017Fh" unicode="&#x17d;" horiz-adv-x="1487" 
d="M1457 0h-337q-24 0 -44.5 10t-36 26t-26 35.5t-14.5 38.5l-55 239q0 8 -4 19t-10.5 21.5t-14.5 17.5t-17 7h-146l47 147h351q21 0 39.5 -13.5t33.5 -31.5t24.5 -36.5t11.5 -27.5l54 -237q2 -8 6 -19.5t10 -22t13 -18t16 -7.5h147zM870 0h-337q-24 0 -44.5 10t-36 26
t-26 35.5t-14.5 38.5l-55 239q0 8 -4 19t-10.5 21.5t-14.5 17.5t-17 7h-146l47 147h351q21 0 39.5 -13.5t33.5 -31.5t24.5 -36.5t11.5 -27.5l54 -237q2 -8 6 -19.5t10 -22t13 -18t16 -7.5h147z" />
    <glyph glyph-name="FL017Eh" horiz-adv-x="900" 
d="M870 0h-337q-24 0 -44.5 10t-36 26t-26 35.5t-14.5 38.5l-55 239q0 8 -4 19t-10.5 21.5t-14.5 17.5t-17 7h-146l47 147h351q21 0 40 -13.5t34 -31.5t24 -36t11 -28l54 -237q2 -8 6 -19.5t10 -22t13 -18t16 -7.5h147zM659 792l26 -64l66 64h169l-180 -166h-177l-73 166
h169z" />
    <glyph glyph-name="FL017Eh" unicode="&#x17e;" horiz-adv-x="900" 
d="M870 0h-337q-24 0 -44.5 10t-36 26t-26 35.5t-14.5 38.5l-55 239q0 8 -4 19t-10.5 21.5t-14.5 17.5t-17 7h-146l47 147h351q21 0 40 -13.5t34 -31.5t24 -36t11 -28l54 -237q2 -8 6 -19.5t10 -22t13 -18t16 -7.5h147zM659 792l26 -64l66 64h169l-180 -166h-177l-73 166
h169z" />
    <glyph glyph-name="FL00A1h" unicode="&#xa1;" horiz-adv-x="340" 
d="M310 0l80 246l7 88h-235l-52 -88l-80 -246h280zM440 469q6 19 2 36t-16 29.5t-31 19.5t-43 7t-47.5 -7t-43.5 -19.5t-35 -29.5t-21 -36q-6 -20 -2.5 -36.5t15.5 -29t31 -19.5t43 -7t47.5 7t44 19.5t35.5 29t21 36.5z" />
    <glyph glyph-name="FL00A2h" unicode="&#xa2;" horiz-adv-x="768" 
d="M795 176l-48 -147h-188l-28 -89h-224l28 89h-158q-28 0 -49 13t-33 33.5t-15 45.5t5 49l74 228q9 26 28 50.5t43.5 44t53.5 31t57 11.5h157l31 96h224l-31 -96h189l-48 -147h-406q-9 0 -16.5 -6t-9.5 -14l-56 -170q4 -1 4.5 -4.5t1 -7.5t2 -7t6.5 -3h406z" />
    <glyph glyph-name="FL00A3h" unicode="&#xa3;" horiz-adv-x="717" 
d="M144 351l-46 -143h103q-5 -10 -9 -19.5t-7 -18.5l-4 -12q-3 -10 -2 -11h-101l-48 -147h657l48 147h-248q-19 0 -24 10t0 24q5 16 15 23t31 7h139l45 139h-138q-21 0 -26.5 6.5t-0.5 23.5q5 14 16.5 24t30.5 10h61l47 147h-219q-37 0 -70.5 -16.5t-60.5 -41.5t-46.5 -55
t-28.5 -57q-3 -10 -5.5 -20t-3.5 -20h-105z" />
    <glyph glyph-name="FL00BDh" unicode="&#xa4;" horiz-adv-x="827" 
d="M15 0l324 281l-141 280h328l42 -82l94 82h328l-323 -280l142 -281h-328l-42 83l-96 -83h-328zM492 369q-19 0 -37 -14t-23 -30l-27 -82q-5 -14 5.5 -26t25.5 -12h94q16 0 33 12t22 26l27 82q5 16 -4 30t-27 14h-89z" />
    <glyph glyph-name="FL00A5h" unicode="&#xa5;" horiz-adv-x="751" 
d="M177 289l-21 -64h151l-22 -67h-151l-20 -64h151l-31 -94h280l31 94h148l20 64h-148l22 67h148l21 64h-148l4 13q6 17 24.5 35t41 33.5t44 27t31.5 15.5h102l48 148h-219q-30 -8 -55.5 -24.5t-45 -33.5t-31 -30t-12.5 -13q-7 10 -13.5 27t-17 33.5t-27.5 28.5t-44 12h-226
l-48 -148h40q3 0 12 -1t20.5 -4t23.5 -9.5t21 -18.5q16 -20 30 -39.5t15 -51.5h-149z" />
    <glyph glyph-name="FL00B8h" unicode="&#xa6;" horiz-adv-x="340" 
d="M533 685l-261 -803h-280l261 803h280z" />
    <glyph glyph-name="FL00A7h" unicode="&#xa7;" horiz-adv-x="827" 
d="M15 0l647 561h328l-647 -561h-328zM492 369q-19 0 -37 -14t-23 -30l-27 -82q-5 -14 5.5 -26t25.5 -12h94q16 0 33 12t22 26l27 82q5 16 -4 30t-27 14h-89z" />
    <glyph glyph-name="FL00A8h" unicode="&#xa8;" horiz-adv-x="482" 
d="M182 482q-12 -35 8.5 -58.5t62.5 -23.5q21 0 40.5 6t36.5 17t29.5 26t18.5 33q11 34 -9.5 57.5t-62.5 23.5q-21 0 -41 -6.5t-36.5 -17.5t-29 -25.5t-17.5 -31.5zM614 482q11 34 -9.5 57.5t-62.5 23.5q-21 0 -41 -6.5t-36.5 -17.5t-29 -25.5t-17.5 -31.5
q-12 -35 8.5 -58.5t62.5 -23.5q21 0 40.5 6t36.5 17t29.5 26t18.5 33z" />
    <glyph glyph-name="copyright" unicode="&#xa9;" horiz-adv-x="272" 
d="M340 629q-27 0 -58 -14q-34 -15 -55 -41q-12 -14 -20.5 -27.5t-13.5 -28.5q-9 -29 -2 -54q4 -14 10.5 -24t16.5 -18q22 -14 51 -14l59 14q17 8 30.5 18t24.5 24q23 26 32 54q10 29 4 56t-29 41q-22 14 -50 14zM335 611q25 0 41 -12q19 -12 24 -34q5 -24 -4 -47
q-8 -24 -26 -45q-24 -24 -45 -34q-27 -12 -50 -12q-24 0 -42 12q-20 16 -23 34q-5 24 2 45q10 26 28 47q20 23 46 34.5t49 11.5zM335 501q-16 -28 -46 -28q-37 0 -23 45q8 23 22.5 35t32.5 12q22 0 25 -23l18 4q2 35 -38 35q-27 0 -48 -16t-32 -47q-10 -30 1 -46.5t37 -16.5
q20 0 38 11t29 30z" />
    <glyph glyph-name="FL00AAh" unicode="&#xaa;" horiz-adv-x="423" 
d="M360 547q-4 0 -7 -6l-12 -37h68l13 40q0 3 -2 3h-60zM358 349l25 76h-68l-25 -76h-147l70 215q4 12 14 24t22.5 21t26.5 14.5t26 5.5h226q25 0 40.5 -20.5t7.5 -44.5l-70 -215h-148z" />
    <glyph glyph-name="FL00ABh" unicode="&#xab;" horiz-adv-x="562" 
d="M569 279l45 -68l-134 -101l-114 169l223 168l68 -101zM311 279l45 -68l-134 -101l-114 169l223 168l68 -101z" />
    <glyph glyph-name="FL00ACh" unicode="&#xac;" horiz-adv-x="395" 
d="M479 351l-78 -240h-143l32 97h-192l46 143h335z" />
    <glyph glyph-name="FL00ADh" unicode="&#xad;" horiz-adv-x="355" 
d="M144 351h295l-46 -143h-295z" />
    <glyph glyph-name="registered" unicode="&#xae;" horiz-adv-x="272" 
d="M340 629q-27 0 -58 -14q-34 -15 -55 -41q-12 -14 -20.5 -27.5t-13.5 -28.5q-9 -29 -2 -54q4 -14 10.5 -24t16.5 -18q22 -14 51 -14l59 14q17 8 30.5 18t24.5 24q23 26 32 54q10 29 4 56t-29 41q-22 14 -50 14zM335 611q25 0 41 -12q19 -12 24 -34q5 -24 -4 -47
q-8 -24 -26 -45q-24 -24 -45 -34q-27 -12 -50 -12q-24 0 -42 12q-20 16 -23 34q-5 24 2 45q10 26 28 47q20 23 46 34.5t49 11.5zM237 458h19l16 50h11q11 0 14 -4q6 -5 12 -28l4 -18h24l-8 23q-4 13 -7 19.5t-11 10.5q16 1 28 10.5t17 22.5q3 10 0 18q-2 6 -11 11
q-5 4 -30 4h-40zM277 524l12 36h21q19 0 20 -1q10 -5 5 -17q-2 -8 -10 -13t-25 -5h-23z" />
    <glyph glyph-name="FL00B3h" unicode="&#xaf;" horiz-adv-x="589" 
d="M741 560h-529l-48 -147h529z" />
    <glyph glyph-name="FL00B1h" unicode="&#xb0;" horiz-adv-x="246" 
d="M181 480q6 17 18 31.5t28.5 25.5t36.5 17.5t41 6.5q42 0 62.5 -23.5t9.5 -57.5q-6 -18 -18.5 -33t-29 -26t-36.5 -17t-41 -6q-42 0 -62 23.5t-9 58.5zM244 480q-3 -9 5 -15.5t22 -6.5t26 6.5t15 15.5t-5 15t-22 6t-26 -6t-15 -15z" />
    <glyph glyph-name="FL00B2h" unicode="&#xb1;" horiz-adv-x="395" 
d="M405 419h96l-46 -143h-96l-32 -97h-143l32 97h-96l46 143h96l31 95h143zM412 143l-46 -143h-335l46 143h335z" />
    <glyph glyph-name="FL00B6h" unicode="&#xb2;" horiz-adv-x="414" 
d="M143 349h354l27 82h-206l6 19h137q10 0 24 6t27.5 15t24.5 21t15 24l13 42q9 27 -5.5 49t-43.5 22h-281l-26 -82h202q2 0 2 -3t-1 -5l-3 -10h-140q-11 0 -24 -4t-25 -10.5t-21.5 -16t-13.5 -21.5z" />
    <glyph glyph-name="FL00BCh" unicode="&#xb3;" horiz-adv-x="393" 
d="M378 528q12 0 14 9q4 10 -7 10h-177l26 82h253q19 0 31.5 -8.5t18 -21t5.5 -28.5q0 -15 -4 -29q-5 -14 -13.5 -28t-19.5 -23q8 -11 6.5 -26t-6.5 -29q-5 -15 -14 -30t-22.5 -28t-32 -21t-40.5 -8h-253l27 82h177q12 0 15 10q3 9 -9 9h-177l26 78h176z" />
    <glyph glyph-name="FL00B4h" unicode="&#xb4;" horiz-adv-x="827" 
d="M343 0l96 83l42 -83h328l-142 281l323 280h-328l-94 -82l-42 82h-328l141 -280l-324 -281h328z" />
    <glyph glyph-name="FL00B5h" unicode="&#xb5;" horiz-adv-x="773" 
d="M492 561l-61 -189q0 -6 3 -14t9 -8h112q11 0 17.5 9.5t11.5 14.5l60 187h280l-75 -231q-7 -23 -26 -45t-43.5 -39t-51.5 -28t-49 -11h-302l-7 -23q-7 -20 -1.5 -27.5t25.5 -9.5h391l-48 -147h-594q-26 0 -43.5 11t-26 30.5t-8 46t10.5 56.5l135 417h281z" />
    <glyph glyph-name="FL007Ah" unicode="&#xb6;" horiz-adv-x="963" 
d="M981 148h-198q-9 0 -16.5 8.5t-13.5 20t-9.5 23.5t-5.5 19l-55 233q-3 15 -12.5 34t-23.5 35.5t-32.5 28t-39.5 11.5h-363l-47 -147h158q9 0 16.5 -7t13.5 -17.5t10 -21.5t6 -19l53 -239q4 -19 14.5 -38.5t26 -35.5t36 -26t44.5 -10h390z" />
    <glyph glyph-name="FL00B7h" unicode="&#xb7;" horiz-adv-x="295" 
d="M125 295q-6 -20 -2 -36.5t16 -29t31 -19.5t43 -7t47.5 7t43.5 19.5t35 29t21 36.5q6 19 2.5 36t-15.5 29.5t-31 19.5t-43 7t-47.5 -7t-44 -19.5t-35.5 -29.5t-21 -36z" />
    <glyph glyph-name="FL00BAh" unicode="&#xb8;" horiz-adv-x="195" 
d="M114 -157l51 157h-133l-14 -42h-83l-37 -115h216z" />
    <glyph glyph-name="FL00BEh" unicode="&#xb9;" horiz-adv-x="256" 
d="M339 348l91 280h-196l-27 -82h53l-64 -198h143z" />
    <glyph glyph-name="FL00B0h" unicode="&#xba;" horiz-adv-x="423" 
d="M358 513q2 6 7 8h31q3 0 4 -3t0 -5l-18 -53q-3 -6 -7 -6h-31q-6 0 -4 6zM303 629q-14 0 -28.5 -6.5t-27.5 -16.5t-22.5 -22.5t-13.5 -25.5l-48 -148q-4 -12 -1.5 -23t9.5 -19.5t16.5 -13.5t20.5 -5h233q12 0 25 5t25 13.5t21.5 19.5t13.5 23l48 148q8 26 -4.5 48.5
t-40.5 22.5h-226z" />
    <glyph glyph-name="FL00BBh" unicode="&#xbb;" horiz-adv-x="562" 
d="M175 279l-89 -68l68 -101l224 169l-115 168l-134 -101zM433 279l-89 -68l68 -101l224 169l-115 168l-134 -101z" />
    <glyph glyph-name="FL0763h" unicode="&#xbc;" horiz-adv-x="905" 
d="M17 0l346 281h-110l65 198h-53l26 82h196l-79 -244l301 244h283l-691 -561h-284zM673 119h33l14 44zM649 252v-1q3 3 9 8t13.5 9.5t15 8t13.5 3.5h206l-52 -161h60l-27 -81h-60l-12 -38h-148l12 38h-225l19 57z" />
    <glyph glyph-name="FL0740h" unicode="&#xbd;" horiz-adv-x="908" 
d="M301 0l304 247l-16 -49h202q2 0 2.5 -3t-0.5 -5l-4 -10h-140q-11 0 -24 -4t-25 -10.5t-21 -16t-13 -21.5l-42 -128h354l27 82h-206l6 19h137q10 0 24 6t27.5 15t24 21t14.5 24l14 42q9 27 -5.5 49t-43.5 22h-251l346 281h-283l-301 -244l79 244h-196l-26 -82h53l-65 -198
h110l-346 -281h284z" />
    <glyph glyph-name="FL077Ch" unicode="&#xbe;" horiz-adv-x="942" 
d="M355 460h-176l-25 -78h177q12 0 9 -9q-3 -10 -15 -10h-177l-27 -82h253q5 0 13 1.5t20 3.5l-353 -286h284l691 561h-283l-280 -227q5 8 9.5 16.5t7.5 17.5q5 14 6 29t-7 26q12 9 20.5 23t13.5 28q4 14 4 29q0 16 -5.5 28.5t-18 21t-31.5 8.5h-253l-26 -82h177q11 0 7 -10
q-3 -9 -15 -9zM686 252l-176 -157l-19 -57h225l-12 -38h148l12 38h60l27 81h-60l52 161h-206q-6 0 -13.5 -3.5t-15 -8t-13.5 -9.5t-9 -8v1zM710 119l47 44l-14 -44h-33z" />
    <glyph glyph-name="FL00BFh" unicode="&#xbf;" horiz-adv-x="768" 
d="M743 347h-470q-20 0 -46 -11t-51.5 -28t-45.5 -39.5t-27 -44.5l-28 -87q-9 -26 -6 -50.5t15.5 -44t33.5 -31t49 -11.5h570l48 147h-406q-10 0 -12 11t1 19l10 31h192q20 0 44.5 7.5t48 20.5t41.5 31t25 39zM782 469q6 19 2 36t-16 29.5t-31 19.5t-43 7t-47.5 -7
t-43.5 -19.5t-35 -29.5t-21 -36q-6 -20 -2.5 -36.5t15.5 -29t31 -19.5t43 -7t47.5 7t44 19.5t35.5 29t21 36.5z" />
    <glyph glyph-name="FL00C0h" unicode="&#xc0;" 
d="M667 777q-8 17 -33 17q-13 0 -24 -2.5t-26 -13.5q-16 -11 -25.5 -25t-14.5 -29q-4 -11 -2 -17.5t7 -14.5l27 -50q9 -18 34 -18t54 20q13 10 17.5 18t8.5 19l4 11q3 10 1.5 17t-6.5 15zM436 391v1q5 6 13.5 14t16.5 8h124q12 0 12 -9q0 -8 1 -14l-29 -90h-167zM756 0
l142 437q7 22 2.5 44.5t-17.5 40t-32.5 28.5t-42.5 11h-466q-23 0 -49.5 -10.5t-50.5 -28t-43.5 -39.5t-26.5 -46l-142 -437h279l51 158h167l-51 -158h280z" />
    <glyph glyph-name="FL00C1h" unicode="&#xc1;" 
d="M567 724q-9 -8 -15.5 -15t-9.5 -17l-4 -11q-4 -11 -4.5 -19t6.5 -18q17 -20 42 -20t46 18l59 50q9 8 15 14.5t10 17.5q5 15 4.5 29t-8.5 25t-17.5 13.5t-22.5 2.5q-25 0 -45 -17zM436 391v1q5 6 13.5 14t16.5 8h124q12 0 12 -9q0 -8 1 -14l-29 -90h-167zM756 0l142 437
q7 22 2.5 44.5t-17.5 40t-32.5 28.5t-42.5 11h-466q-23 0 -49.5 -10.5t-50.5 -28t-43.5 -39.5t-26.5 -46l-142 -437h279l51 158h167l-51 -158h280z" />
    <glyph glyph-name="FL00C2h" unicode="&#xc2;" 
d="M550 626l67 64l25 -64h169l-72 166h-177l-181 -166h169zM436 391v1q5 6 13.5 14t16.5 8h124q12 0 12 -9q0 -8 1 -14l-29 -90h-167zM756 0l142 437q7 22 2.5 44.5t-17.5 40t-32.5 28.5t-42.5 11h-466q-23 0 -49.5 -10.5t-50.5 -28t-43.5 -39.5t-26.5 -46l-142 -437h279
l51 158h167l-51 -158h280z" />
    <glyph glyph-name="FL00C3h" unicode="&#xc3;" 
d="M719 626l181 166h-169l-65 -63l-27 63h-111l-181 -166h169l66 63l26 -63h111zM436 391v1q5 6 13.5 14t16.5 8h124q12 0 12 -9q0 -8 1 -14l-29 -90h-167zM756 0l142 437q7 22 2.5 44.5t-17.5 40t-32.5 28.5t-42.5 11h-466q-23 0 -49.5 -10.5t-50.5 -28t-43.5 -39.5
t-26.5 -46l-142 -437h279l51 158h167l-51 -158h280z" />
    <glyph glyph-name="FL00C4h" unicode="&#xc4;" 
d="M407 709q-11 -35 9.5 -58.5t62.5 -23.5q21 0 40.5 6t36.5 17t29 26t18 33q11 34 -9 57.5t-62 23.5q-21 0 -41 -6.5t-37 -17.5t-29 -25.5t-18 -31.5zM839 709q11 34 -9 57.5t-62 23.5q-21 0 -41 -6.5t-37 -17.5t-29 -25.5t-18 -31.5q-11 -35 9.5 -58.5t62.5 -23.5
q21 0 40.5 6t36.5 17t29 26t18 33zM436 391v1q5 6 13.5 14t16.5 8h124q12 0 12 -9q0 -8 1 -14l-29 -90h-167zM756 0l142 437q7 22 2.5 44.5t-17.5 40t-32.5 28.5t-42.5 11h-466q-23 0 -49.5 -10.5t-50.5 -28t-43.5 -39.5t-26.5 -46l-142 -437h279l51 158h167l-51 -158h280z
" />
    <glyph glyph-name="FL00C5h" unicode="&#xc5;" 
d="M589 709q3 9 15 15t26 6t22 -6t5 -15t-15 -15.5t-26 -6.5t-22 6.5t-5 15.5zM526 709q-11 -35 9.5 -58.5t62.5 -23.5q21 0 40.5 6t36.5 17t29 26t18 33q11 34 -9 57.5t-62 23.5q-21 0 -41 -6.5t-37 -17.5t-29 -25.5t-18 -31.5zM436 391v1q5 6 13.5 14t16.5 8h124
q12 0 12 -9q0 -8 1 -14l-29 -90h-167zM756 0l142 437q7 22 2.5 44.5t-17.5 40t-32.5 28.5t-42.5 11h-466q-23 0 -49.5 -10.5t-50.5 -28t-43.5 -39.5t-26.5 -46l-142 -437h279l51 158h167l-51 -158h280z" />
    <glyph glyph-name="FL00C6h" unicode="&#xc6;" horiz-adv-x="1375" 
d="M756 0h-280l51 158h-167l-51 -158h-279l142 437q7 24 26.5 46t43.5 39.5t50.5 28t49.5 10.5h466q29 0 52 -17t34 -42q27 26 60.5 42.5t66.5 16.5h506l-47 -147h-342q-10 0 -20 -12t-13 -20q-4 -11 1 -21t18 -10h335l-46 -143h-342q-1 0 -5 -2.5t-8.5 -6.5l-9 -8t-6.5 -7
q-3 -3 -3 -7q-1 -2 -1 -4t-1 -3q2 -6 7 -14.5t7 -8.5h342l-48 -147h-513q-42 0 -67 28zM407 301h167l29 90q-1 6 -1 14q0 9 -12 9h-124q-8 0 -16.5 -8t-13.5 -14z" />
    <glyph glyph-name="FL00C7h" unicode="&#xc7;" horiz-adv-x="703" 
d="M419 -157l51 157h197l48 147h-336q-8 0 -12 6.5t-2 16.5l70 214q2 8 11.5 19t19.5 11h342l47 147h-506q-28 0 -57 -12.5t-54.5 -33t-44.5 -46t-27 -51.5l-96 -295q-8 -24 -3.5 -46t18 -39t33 -27.5t42.5 -10.5h177l-14 -42h-83l-37 -115h216z" />
    <glyph glyph-name="FL00C8h" unicode="&#xc8;" horiz-adv-x="703" 
d="M349 561q-28 0 -57 -12.5t-54.5 -33t-44.5 -46t-27 -51.5l-96 -295q-8 -24 -3.5 -46t18 -39t33 -27.5t42.5 -10.5h513l48 147h-342q-2 0 -7 8.5t-7 14.5q1 1 1 3t1 4q0 4 3 7q2 3 6.5 7l9 8t8.5 6.5t5 2.5h342l46 143h-335q-13 0 -18 10t-1 21q3 8 13 20t20 12h342
l47 147h-506zM624 777q-8 17 -33 17q-13 0 -24 -2.5t-26 -13.5q-16 -11 -25.5 -25t-14.5 -29q-4 -11 -2 -17.5t7 -14.5l27 -50q9 -18 34 -18t54 20q13 10 17.5 18t8.5 19l4 11q3 10 1.5 17t-6.5 15z" />
    <glyph glyph-name="FL00C9h" unicode="&#xc9;" horiz-adv-x="703" 
d="M349 561q-28 0 -57 -12.5t-54.5 -33t-44.5 -46t-27 -51.5l-96 -295q-8 -24 -3.5 -46t18 -39t33 -27.5t42.5 -10.5h513l48 147h-342q-2 0 -7 8.5t-7 14.5q1 1 1 3t1 4q0 4 3 7q2 3 6.5 7l9 8t8.5 6.5t5 2.5h342l46 143h-335q-13 0 -18 10t-1 21q3 8 13 20t20 12h342
l47 147h-506zM559 724q-9 -8 -15.5 -15t-9.5 -17l-4 -11q-4 -11 -4.5 -19t6.5 -18q17 -20 42 -20t46 18l59 50q9 8 15 14.5t10 17.5q5 15 4.5 29t-8.5 25t-17.5 13.5t-22.5 2.5q-25 0 -45 -17z" />
    <glyph glyph-name="FL00CAh" unicode="&#xca;" horiz-adv-x="703" 
d="M349 561q-28 0 -57 -12.5t-54.5 -33t-44.5 -46t-27 -51.5l-96 -295q-8 -24 -3.5 -46t18 -39t33 -27.5t42.5 -10.5h513l48 147h-342q-2 0 -7 8.5t-7 14.5q1 1 1 3t1 4q0 4 3 7q2 3 6.5 7l9 8t8.5 6.5t5 2.5h342l46 143h-335q-13 0 -18 10t-1 21q3 8 13 20t20 12h342
l47 147h-506zM512 626l67 64l25 -64h169l-72 166h-177l-181 -166h169z" />
    <glyph glyph-name="FL00CBh" unicode="&#xcb;" horiz-adv-x="703" 
d="M349 561q-28 0 -57 -12.5t-54.5 -33t-44.5 -46t-27 -51.5l-96 -295q-8 -24 -3.5 -46t18 -39t33 -27.5t42.5 -10.5h513l48 147h-342q-2 0 -7 8.5t-7 14.5q1 1 1 3t1 4q0 4 3 7q2 3 6.5 7l9 8t8.5 6.5t5 2.5h342l46 143h-335q-13 0 -18 10t-1 21q3 8 13 20t20 12h342
l47 147h-506zM369 709q-11 -35 9.5 -58.5t62.5 -23.5q21 0 40.5 6t36.5 17t29 26t18 33q11 34 -9 57.5t-62 23.5q-21 0 -41 -6.5t-37 -17.5t-29 -25.5t-18 -31.5zM801 709q11 34 -9 57.5t-62 23.5q-21 0 -41 -6.5t-37 -17.5t-29 -25.5t-18 -31.5q-11 -35 9.5 -58.5
t62.5 -23.5q21 0 40.5 6t36.5 17t29 26t18 33z" />
    <glyph glyph-name="FL00CCh" unicode="&#xcc;" horiz-adv-x="724" 
d="M635 777q-8 17 -33 17q-13 0 -24 -2.5t-26 -13.5q-16 -11 -25.5 -25t-14.5 -29q-4 -11 -2 -17.5t7 -14.5l27 -50q9 -18 34 -18t54 20q13 10 17.5 18t8.5 19l4 11q3 10 1.5 17t-6.5 15zM694 0h-663l48 147h192l87 267h-193l47 147h663l-47 -147h-190l-87 -267h191z" />
    <glyph glyph-name="FL00CDh" unicode="&#xcd;" horiz-adv-x="724" 
d="M78 147h191l87 267h-190l47 147h663l-47 -147h-193l-87 -267h192l-48 -147h-663zM537 724q-9 -8 -15.5 -15t-9.5 -17l-4 -11q-4 -11 -4.5 -19t6.5 -18q17 -20 42 -20t46 18l59 50q9 8 15 14.5t10 17.5q5 15 4.5 29t-8.5 25t-17.5 13.5t-22.5 2.5q-25 0 -45 -17z" />
    <glyph glyph-name="FL00CEh" unicode="&#xce;" horiz-adv-x="724" 
d="M78 147h191l87 267h-190l47 147h663l-47 -147h-193l-87 -267h192l-48 -147h-663zM515 626l67 64l25 -64h169l-72 166h-177l-181 -166h169z" />
    <glyph glyph-name="FL00CFh" unicode="&#xcf;" horiz-adv-x="724" 
d="M78 147h191l87 267h-190l47 147h663l-47 -147h-193l-87 -267h192l-48 -147h-663zM371 709q-11 -35 9.5 -58.5t62.5 -23.5q21 0 40.5 6t36.5 17t29 26t18 33q11 34 -9 57.5t-62 23.5q-21 0 -41 -6.5t-37 -17.5t-29 -25.5t-18 -31.5zM803 709q11 34 -9 57.5t-62 23.5
q-21 0 -41 -6.5t-37 -17.5t-29 -25.5t-18 -31.5q-11 -35 9.5 -58.5t62.5 -23.5q21 0 40.5 6t36.5 17t29 26t18 33z" />
    <glyph glyph-name="FL00D0h" unicode="&#xd0;" horiz-adv-x="840" 
d="M523 150q21 0 35 9t24 23t16.5 31t11.5 32l22 68q4 13 8 29t4 29q0 14 -5.5 23t-19.5 9h-117l-17 -52h55l-46 -143h-55l-19 -58h103zM205 351l68 210h609q20 0 36 -12.5t25 -32t11.5 -42.5t-4.5 -43l-104 -321q-6 -18 -21 -37.5t-34 -35.5t-39.5 -26.5t-38.5 -10.5h-622
l68 208h-61l46 143h61z" />
    <glyph glyph-name="FL00D1h" unicode="&#xd1;" 
d="M603 391q-1 6 -1.5 14.5t-11.5 8.5h-146l-135 -414h-279l182 561h596q22 0 42 -11t33 -28t17.5 -39.5t-2.5 -44.5l-142 -438h-280zM900 792l-181 -166h-111l-26 63l-66 -63h-169l181 166h111l27 -63l65 63h169z" />
    <glyph glyph-name="FL00D2h" unicode="&#xd2;" 
d="M349 561q-28 0 -57 -12.5t-54.5 -33t-44.5 -46t-27 -51.5l-96 -295q-8 -24 -3.5 -46t18 -39t33 -27.5t42.5 -10.5h466q23 0 49.5 10.5t50.5 27.5t43 39t27 46l96 295q8 26 5.5 51.5t-14.5 46t-33 33t-49 12.5h-452zM433 382q3 8 11.5 19t19.5 13h126q11 0 12.5 -12
t-1.5 -20l-69 -212q-5 -6 -14 -14.5t-15 -8.5h-124q-13 0 -14.5 9t-0.5 14zM667 777q-8 17 -33 17q-13 0 -24 -2.5t-26 -13.5q-16 -11 -25.5 -25t-14.5 -29q-4 -11 -2 -17.5t7 -14.5l27 -50q9 -18 34 -18t54 20q13 10 17.5 18t8.5 19l4 11q3 10 1.5 17t-6.5 15z" />
    <glyph glyph-name="FL00D3h" unicode="&#xd3;" 
d="M349 561q-28 0 -57 -12.5t-54.5 -33t-44.5 -46t-27 -51.5l-96 -295q-8 -24 -3.5 -46t18 -39t33 -27.5t42.5 -10.5h466q23 0 49.5 10.5t50.5 27.5t43 39t27 46l96 295q8 26 5.5 51.5t-14.5 46t-33 33t-49 12.5h-452zM433 382q3 8 11.5 19t19.5 13h126q11 0 12.5 -12
t-1.5 -20l-69 -212q-5 -6 -14 -14.5t-15 -8.5h-124q-13 0 -14.5 9t-0.5 14zM567 724q-9 -8 -15.5 -15t-9.5 -17l-4 -11q-4 -11 -4.5 -19t6.5 -18q17 -20 42 -20t46 18l59 50q9 8 15 14.5t10 17.5q5 15 4.5 29t-8.5 25t-17.5 13.5t-22.5 2.5q-25 0 -45 -17z" />
    <glyph glyph-name="FL00D4h" unicode="&#xd4;" 
d="M349 561q-28 0 -57 -12.5t-54.5 -33t-44.5 -46t-27 -51.5l-96 -295q-8 -24 -3.5 -46t18 -39t33 -27.5t42.5 -10.5h466q23 0 49.5 10.5t50.5 27.5t43 39t27 46l96 295q8 26 5.5 51.5t-14.5 46t-33 33t-49 12.5h-452zM433 382q3 8 11.5 19t19.5 13h126q11 0 12.5 -12
t-1.5 -20l-69 -212q-5 -6 -14 -14.5t-15 -8.5h-124q-13 0 -14.5 9t-0.5 14zM550 626l67 64l25 -64h169l-72 166h-177l-181 -166h169z" />
    <glyph glyph-name="FL00D5h" unicode="&#xd5;" 
d="M364 170q-1 -5 0.5 -14t14.5 -9h124q6 0 15 8.5t14 14.5l69 212q3 8 1.5 20t-12.5 12h-126q-11 -2 -19.5 -13t-11.5 -19zM900 792l-181 -166h-111l-26 63l-66 -63h-169l181 166h111l27 -63l65 63h169zM801 561q28 0 49 -12.5t33 -33t14.5 -46t-5.5 -51.5l-96 -295
q-8 -24 -27 -46t-43 -39t-50.5 -27.5t-49.5 -10.5h-466q-23 0 -42.5 10.5t-33 27.5t-18 39t3.5 46l96 295q8 26 27 51.5t44.5 46t54.5 33t57 12.5h452z" />
    <glyph glyph-name="FL00D6h" unicode="&#xd6;" 
d="M349 561q-28 0 -57 -12.5t-54.5 -33t-44.5 -46t-27 -51.5l-96 -295q-8 -24 -3.5 -46t18 -39t33 -27.5t42.5 -10.5h466q23 0 49.5 10.5t50.5 27.5t43 39t27 46l96 295q8 26 5.5 51.5t-14.5 46t-33 33t-49 12.5h-452zM433 382q3 8 11.5 19t19.5 13h126q11 0 12.5 -12
t-1.5 -20l-69 -212q-5 -6 -14 -14.5t-15 -8.5h-124q-13 0 -14.5 9t-0.5 14zM407 709q-11 -35 9.5 -58.5t62.5 -23.5q21 0 40.5 6t36.5 17t29 26t18 33q11 34 -9 57.5t-62 23.5q-21 0 -41 -6.5t-37 -17.5t-29 -25.5t-18 -31.5zM839 709q11 34 -9 57.5t-62 23.5
q-21 0 -41 -6.5t-37 -17.5t-29 -25.5t-18 -31.5q-11 -35 9.5 -58.5t62.5 -23.5q21 0 40.5 6t36.5 17t29 26t18 33z" />
    <glyph glyph-name="FL00D7h" unicode="&#xd7;" horiz-adv-x="398" 
d="M392 279l45 -68l-134 -101l-46 68l-91 -69l-68 101l91 69l-46 68l135 101l44 -68l90 67l68 -101z" />
    <glyph glyph-name="FL00D8h" unicode="&#xd8;" 
d="M801 561h-452q-28 0 -57 -12.5t-54.5 -33t-44.5 -46t-27 -51.5l-96 -295q-8 -24 -3.5 -46t18 -39t33 -27.5t42.5 -10.5h466q23 0 49.5 10.5t50.5 27.5t43 39t27 46l96 295q8 26 5.5 51.5t-14.5 46t-33 33t-49 12.5zM563 264l-31 -94q-5 -6 -14 -14.5t-15 -8.5h-102z
M563 414l-158 -118l28 86q3 8 11.5 19t19.5 13h99z" />
    <glyph glyph-name="FL00D9h" unicode="&#xd9;" 
d="M689 724q5 -8 6.5 -15t-1.5 -17l-4 -11q-4 -11 -8.5 -19t-17.5 -18q-29 -20 -54 -20t-34 18l-27 50q-5 8 -7 14.5t2 17.5q5 15 14.5 29t25.5 25q15 11 26 13.5t24 2.5q25 0 33 -17zM365 170q2 -6 2.5 -14.5t11.5 -8.5h146l134 414h279l-182 -561h-596q-23 0 -42.5 11
t-32.5 28t-18 39t3 45l142 438h280z" />
    <glyph glyph-name="FL00DAh" unicode="&#xda;" 
d="M623 777q20 17 45 17q13 0 22.5 -2.5t17.5 -13.5t8.5 -25t-4.5 -29q-4 -11 -10 -17.5t-15 -14.5l-59 -50q-21 -18 -46 -18t-42 20q-7 10 -6.5 18t4.5 19l4 11q3 10 9.5 17t15.5 15zM365 170q2 -6 2.5 -14.5t11.5 -8.5h146l134 414h279l-182 -561h-596q-23 0 -42.5 11
t-32.5 28t-18 39t3 45l142 438h280z" />
    <glyph glyph-name="FL00DBh" unicode="&#xdb;" 
d="M381 626l181 166h177l72 -166h-169l-25 64l-67 -64h-169zM365 170q2 -6 2.5 -14.5t11.5 -8.5h146l134 414h279l-182 -561h-596q-23 0 -42.5 11t-32.5 28t-18 39t3 45l142 438h280z" />
    <glyph glyph-name="FL00DCh" unicode="&#xdc;" 
d="M839 709q-6 -18 -18 -33t-29 -26t-36.5 -17t-40.5 -6q-42 0 -62.5 23.5t-9.5 58.5q6 17 18 31.5t29 25.5t37 17.5t41 6.5q42 0 62 -23.5t9 -57.5zM407 709q6 17 18 31.5t29 25.5t37 17.5t41 6.5q42 0 62 -23.5t9 -57.5q-6 -18 -18 -33t-29 -26t-36.5 -17t-40.5 -6
q-42 0 -62.5 23.5t-9.5 58.5zM365 170q2 -6 2.5 -14.5t11.5 -8.5h146l134 414h279l-182 -561h-596q-23 0 -42.5 11t-32.5 28t-18 39t3 45l142 438h280z" />
    <glyph glyph-name="FL00DDh" unicode="&#xdd;" horiz-adv-x="773" 
d="M925 561l-135 -417q-10 -30 -27 -56.5t-38 -46t-45.5 -30.5t-50.5 -11h-594l48 147h391q21 2 31 9.5t17 27.5l7 23h-302q-23 0 -42.5 11t-32.5 28t-17.5 39t2.5 45l75 231h280l-60 -187q1 -5 1.5 -14.5t11.5 -9.5h112q6 0 13.5 8t12.5 14l61 189h281zM611 777
q20 17 45 17q13 0 22.5 -2.5t17.5 -13.5t8.5 -25t-4.5 -29q-4 -11 -10 -17.5t-15 -14.5l-59 -50q-21 -18 -46 -18t-42 20q-7 10 -6.5 18t4.5 19l4 11q3 10 9.5 17t15.5 15z" />
    <glyph glyph-name="FL00DEh" unicode="&#xde;" 
d="M212 561l-182 -561h280l26 81h296q42 0 76.5 18.5t62 48t47.5 67t32 75.5q9 27 12.5 61t-4.5 63.5t-30.5 50t-64.5 20.5h-295l24 76h-280zM557 338q9 0 14 -6t6.5 -14.5t0 -17.5t-3.5 -16q-3 -8 -8.5 -18t-13.5 -18.5t-17.5 -14t-19.5 -5.5h-131l36 110h137z" />
    <glyph glyph-name="FL00DFh" unicode="&#xdf;" horiz-adv-x="725" 
d="M498 350h-27l-45 -139h28q21 0 26 -7t0 -23q-5 -14 -16 -24t-30 -10h-29l-48 -147h187q42 0 76.5 16t60 41t43 55t26.5 58q11 32 12.5 63t-15.5 52q27 17 46 47.5t28 58.5q9 27 8.5 57t-11.5 55t-33.5 41.5t-59.5 16.5h-513l-227 -699h280l180 552h75q19 0 23.5 -10
t-0.5 -24q-5 -17 -14.5 -23.5t-30.5 -6.5z" />
    <glyph glyph-name="FL00E0h" unicode="&#xe0;" horiz-adv-x="924" 
d="M17 -1h328l354 334q5 5 7.5 7t7.5 2q2 -2 6 -4t4 -3l-109 -335h279l182 561h-412q-10 0 -24 -6.5t-27.5 -15.5t-25 -18t-17.5 -15zM908 777q-8 17 -33 17q-13 0 -24 -2.5t-26 -13.5q-16 -11 -25.5 -25t-14.5 -29q-4 -11 -2 -17.5t7 -14.5l27 -50q9 -18 34 -18t54 20
q13 10 17.5 18t8.5 19l4 11q3 10 1.5 17t-6.5 15z" />
    <glyph glyph-name="FL00E1h" unicode="&#xe1;" horiz-adv-x="924" 
d="M17 -1h328l354 334q5 5 7.5 7t7.5 2q2 -2 6 -4t4 -3l-109 -335h279l182 561h-412q-10 0 -24 -6.5t-27.5 -15.5t-25 -18t-17.5 -15zM829 724q-9 -8 -15.5 -15t-9.5 -17l-4 -11q-4 -11 -4.5 -19t6.5 -18q17 -20 42 -20t46 18l59 50q9 8 15 14.5t10 17.5q5 15 4.5 29
t-8.5 25t-17.5 13.5t-22.5 2.5q-25 0 -45 -17z" />
    <glyph glyph-name="FL00E2h" unicode="&#xe2;" horiz-adv-x="924" 
d="M17 -1h328l354 334q5 5 7.5 7t7.5 2q2 -2 6 -4t4 -3l-109 -335h279l182 561h-412q-10 0 -24 -6.5t-27.5 -15.5t-25 -18t-17.5 -15zM805 626l67 64l25 -64h169l-72 166h-177l-181 -166h169z" />
    <glyph glyph-name="FL00E3h" unicode="&#xe3;" horiz-adv-x="924" 
d="M570 506q6 6 17.5 15t25 18t27.5 15.5t24 6.5h412l-182 -561h-279l109 335q0 1 -4 3t-6 4q-5 0 -7.5 -2t-7.5 -7l-354 -334h-328zM1125 792l-181 -166h-111l-26 63l-66 -63h-169l181 166h111l27 -63l65 63h169z" />
    <glyph glyph-name="FL00E4h" unicode="&#xe4;" horiz-adv-x="924" 
d="M17 -1h328l354 334q5 5 7.5 7t7.5 2q2 -2 6 -4t4 -3l-109 -335h279l182 561h-412q-10 0 -24 -6.5t-27.5 -15.5t-25 -18t-17.5 -15zM676 709q-11 -35 9.5 -58.5t62.5 -23.5q21 0 40.5 6t36.5 17t29 26t18 33q11 34 -9 57.5t-62 23.5q-21 0 -41 -6.5t-37 -17.5t-29 -25.5
t-18 -31.5zM1108 709q11 34 -9 57.5t-62 23.5q-21 0 -41 -6.5t-37 -17.5t-29 -25.5t-18 -31.5q-11 -35 9.5 -58.5t62.5 -23.5q21 0 40.5 6t36.5 17t29 26t18 33z" />
    <glyph glyph-name="FL00E5h" unicode="&#xe5;" horiz-adv-x="924" 
d="M570 506q6 6 17.5 15t25 18t27.5 15.5t24 6.5h412l-182 -561h-279l109 335q0 1 -4 3t-6 4q-5 0 -7.5 -2t-7.5 -7l-354 -334h-328zM784 709q6 17 18 31.5t29 25.5t37 17.5t41 6.5q42 0 62 -23.5t9 -57.5q-6 -18 -18 -33t-29 -26t-36.5 -17t-40.5 -6q-42 0 -62.5 23.5
t-9.5 58.5zM847 709q-3 -9 5 -15.5t22 -6.5t26 6.5t15 15.5t-5 15t-22 6t-26 -6t-15 -15z" />
    <glyph glyph-name="FL00E6h" unicode="&#xe6;" horiz-adv-x="1291" 
d="M17 -1h328l354 334q5 5 7.5 7t7.5 2q2 -2 6 -4t4 -3l-109 -335h646l48 147h-342q-2 0 -7 8.5t-7 14.5q1 1 1 3t1 4q0 4 3 7q2 3 6.5 7l9 8t8.5 6.5t5 2.5h342l46 143h-335q-13 0 -18 10t-1 21q3 8 13 20t20 12h342l47 147h-779q-10 0 -24 -6.5t-27.5 -15.5t-25 -18
t-17.5 -15z" />
    <glyph glyph-name="FL00E7h" unicode="&#xe7;" horiz-adv-x="703" 
d="M419 -157l51 157h197l48 147h-336q-8 0 -12 6.5t-2 16.5l70 214q2 8 11.5 19t19.5 11h342l47 147h-506q-28 0 -57 -12.5t-54.5 -33t-44.5 -46t-27 -51.5l-96 -295q-8 -24 -3.5 -46t18 -39t33 -27.5t42.5 -10.5h177l-14 -42h-83l-37 -115h216z" />
    <glyph glyph-name="FL00E8h" unicode="&#xe8;" horiz-adv-x="703" 
d="M349 561q-28 0 -57 -12.5t-54.5 -33t-44.5 -46t-27 -51.5l-96 -295q-8 -24 -3.5 -46t18 -39t33 -27.5t42.5 -10.5h513l48 147h-342q-2 0 -7 8.5t-7 14.5q1 1 1 3t1 4q0 4 3 7q2 3 6.5 7l9 8t8.5 6.5t5 2.5h342l46 143h-335q-13 0 -18 10t-1 21q3 8 13 20t20 12h342
l47 147h-506zM624 777q-8 17 -33 17q-13 0 -24 -2.5t-26 -13.5q-16 -11 -25.5 -25t-14.5 -29q-4 -11 -2 -17.5t7 -14.5l27 -50q9 -18 34 -18t54 20q13 10 17.5 18t8.5 19l4 11q3 10 1.5 17t-6.5 15z" />
    <glyph glyph-name="FL00E9h" unicode="&#xe9;" horiz-adv-x="703" 
d="M349 561q-28 0 -57 -12.5t-54.5 -33t-44.5 -46t-27 -51.5l-96 -295q-8 -24 -3.5 -46t18 -39t33 -27.5t42.5 -10.5h513l48 147h-342q-2 0 -7 8.5t-7 14.5q1 1 1 3t1 4q0 4 3 7q2 3 6.5 7l9 8t8.5 6.5t5 2.5h342l46 143h-335q-13 0 -18 10t-1 21q3 8 13 20t20 12h342
l47 147h-506zM559 724q-9 -8 -15.5 -15t-9.5 -17l-4 -11q-4 -11 -4.5 -19t6.5 -18q17 -20 42 -20t46 18l59 50q9 8 15 14.5t10 17.5q5 15 4.5 29t-8.5 25t-17.5 13.5t-22.5 2.5q-25 0 -45 -17z" />
    <glyph glyph-name="FL00EAh" unicode="&#xea;" horiz-adv-x="703" 
d="M349 561q-28 0 -57 -12.5t-54.5 -33t-44.5 -46t-27 -51.5l-96 -295q-8 -24 -3.5 -46t18 -39t33 -27.5t42.5 -10.5h513l48 147h-342q-2 0 -7 8.5t-7 14.5q1 1 1 3t1 4q0 4 3 7q2 3 6.5 7l9 8t8.5 6.5t5 2.5h342l46 143h-335q-13 0 -18 10t-1 21q3 8 13 20t20 12h342
l47 147h-506zM512 626l67 64l25 -64h169l-72 166h-177l-181 -166h169z" />
    <glyph glyph-name="FL00EBh" unicode="&#xeb;" horiz-adv-x="703" 
d="M349 561q-28 0 -57 -12.5t-54.5 -33t-44.5 -46t-27 -51.5l-96 -295q-8 -24 -3.5 -46t18 -39t33 -27.5t42.5 -10.5h513l48 147h-342q-2 0 -7 8.5t-7 14.5q1 1 1 3t1 4q0 4 3 7q2 3 6.5 7l9 8t8.5 6.5t5 2.5h342l46 143h-335q-13 0 -18 10t-1 21q3 8 13 20t20 12h342
l47 147h-506zM369 709q-11 -35 9.5 -58.5t62.5 -23.5q21 0 40.5 6t36.5 17t29 26t18 33q11 34 -9 57.5t-62 23.5q-21 0 -41 -6.5t-37 -17.5t-29 -25.5t-18 -31.5zM801 709q11 34 -9 57.5t-62 23.5q-21 0 -41 -6.5t-37 -17.5t-29 -25.5t-18 -31.5q-11 -35 9.5 -58.5
t62.5 -23.5q21 0 40.5 6t36.5 17t29 26t18 33z" />
    <glyph glyph-name="FL00ECh" unicode="&#xec;" horiz-adv-x="340" 
d="M445 777q-8 17 -33 17q-13 0 -24 -2.5t-26 -13.5q-16 -11 -25.5 -25t-14.5 -29q-4 -11 -2 -17.5t7 -14.5l27 -50q9 -18 34 -18t54 20q13 10 17.5 18t8.5 19l4 11q3 10 1.5 17t-6.5 15zM212 561l-182 -561h280l182 561h-280z" />
    <glyph glyph-name="FL00EDh" unicode="&#xed;" horiz-adv-x="340" 
d="M212 561l-182 -561h280l182 561h-280zM343 724q-9 -8 -15.5 -15t-9.5 -17l-4 -11q-4 -11 -4.5 -19t6.5 -18q17 -20 42 -20t46 18l59 50q9 8 15 14.5t10 17.5q5 15 4.5 29t-8.5 25t-17.5 13.5t-22.5 2.5q-25 0 -45 -17z" />
    <glyph glyph-name="FL00EEh" unicode="&#xee;" horiz-adv-x="340" 
d="M212 561l-182 -561h280l182 561h-280zM325 626l67 64l25 -64h169l-72 166h-177l-181 -166h169z" />
    <glyph glyph-name="FL00EFh" unicode="&#xef;" horiz-adv-x="340" 
d="M212 561l-182 -561h280l182 561h-280zM185 709q-11 -35 9.5 -58.5t62.5 -23.5q21 0 40.5 6t36.5 17t29 26t18 33q11 34 -9 57.5t-62 23.5q-21 0 -41 -6.5t-37 -17.5t-29 -25.5t-18 -31.5zM617 709q11 34 -9 57.5t-62 23.5q-21 0 -41 -6.5t-37 -17.5t-29 -25.5t-18 -31.5
q-11 -35 9.5 -58.5t62.5 -23.5q21 0 40.5 6t36.5 17t29 26t18 33z" />
    <glyph glyph-name="FL0047h" unicode="&#xf0;" 
d="M503 147q11 0 17 8.5t11 14.5l14 41h-167l-14 -41q2 -6 4.5 -14.5t10.5 -8.5h124zM112 253q7 21 26 40.5t43 34t50 23t46 8.5h316l7 23h2l-1 2q2 8 0.5 19t-11.5 11h-422l47 147h586q28 0 48.5 -12.5t33 -33t15 -46t-5.5 -51.5l-96 -295q-8 -23 -27 -45t-43 -39t-51 -28
t-49 -11h-466q-23 0 -43 10.5t-33 27.5t-17.5 39t3.5 46z" />
    <glyph glyph-name="FL00F1h" unicode="&#xf1;" horiz-adv-x="948" 
d="M1100 561l-182 -561h-340q-23 0 -40 10t-29.5 25t-21.5 33.5t-15 35.5l-71 175l-91 -279h-280l182 561h365q16 0 31 -11t27 -26.5t20.5 -33t11.5 -30.5l59 -185l93 286h281zM993 792l-181 -166h-111l-26 63l-66 -63h-169l181 166h111l27 -63l65 63h169z" />
    <glyph glyph-name="FL00F2h" unicode="&#xf2;" 
d="M349 561q-28 0 -57 -12.5t-54.5 -33t-44.5 -46t-27 -51.5l-96 -295q-8 -24 -3.5 -46t18 -39t33 -27.5t42.5 -10.5h466q23 0 49.5 10.5t50.5 27.5t43 39t27 46l96 295q8 26 5.5 51.5t-14.5 46t-33 33t-49 12.5h-452zM433 382q3 8 11.5 19t19.5 13h126q11 0 12.5 -12
t-1.5 -20l-69 -212q-5 -6 -14 -14.5t-15 -8.5h-124q-13 0 -14.5 9t-0.5 14zM667 777q-8 17 -33 17q-13 0 -24 -2.5t-26 -13.5q-16 -11 -25.5 -25t-14.5 -29q-4 -11 -2 -17.5t7 -14.5l27 -50q9 -18 34 -18t54 20q13 10 17.5 18t8.5 19l4 11q3 10 1.5 17t-6.5 15z" />
    <glyph glyph-name="FL00F3h" unicode="&#xf3;" 
d="M349 561q-28 0 -57 -12.5t-54.5 -33t-44.5 -46t-27 -51.5l-96 -295q-8 -24 -3.5 -46t18 -39t33 -27.5t42.5 -10.5h466q23 0 49.5 10.5t50.5 27.5t43 39t27 46l96 295q8 26 5.5 51.5t-14.5 46t-33 33t-49 12.5h-452zM433 382q3 8 11.5 19t19.5 13h126q11 0 12.5 -12
t-1.5 -20l-69 -212q-5 -6 -14 -14.5t-15 -8.5h-124q-13 0 -14.5 9t-0.5 14zM567 724q-9 -8 -15.5 -15t-9.5 -17l-4 -11q-4 -11 -4.5 -19t6.5 -18q17 -20 42 -20t46 18l59 50q9 8 15 14.5t10 17.5q5 15 4.5 29t-8.5 25t-17.5 13.5t-22.5 2.5q-25 0 -45 -17z" />
    <glyph glyph-name="FL00F4h" unicode="&#xf4;" 
d="M349 561q-28 0 -57 -12.5t-54.5 -33t-44.5 -46t-27 -51.5l-96 -295q-8 -24 -3.5 -46t18 -39t33 -27.5t42.5 -10.5h466q23 0 49.5 10.5t50.5 27.5t43 39t27 46l96 295q8 26 5.5 51.5t-14.5 46t-33 33t-49 12.5h-452zM433 382q3 8 11.5 19t19.5 13h126q11 0 12.5 -12
t-1.5 -20l-69 -212q-5 -6 -14 -14.5t-15 -8.5h-124q-13 0 -14.5 9t-0.5 14zM550 626l67 64l25 -64h169l-72 166h-177l-181 -166h169z" />
    <glyph glyph-name="FL00F5h" unicode="&#xf5;" 
d="M364 170q-1 -5 0.5 -14t14.5 -9h124q6 0 15 8.5t14 14.5l69 212q3 8 1.5 20t-12.5 12h-126q-11 -2 -19.5 -13t-11.5 -19zM900 792l-181 -166h-111l-26 63l-66 -63h-169l181 166h111l27 -63l65 63h169zM801 561q28 0 49 -12.5t33 -33t14.5 -46t-5.5 -51.5l-96 -295
q-8 -24 -27 -46t-43 -39t-50.5 -27.5t-49.5 -10.5h-466q-23 0 -42.5 10.5t-33 27.5t-18 39t3.5 46l96 295q8 26 27 51.5t44.5 46t54.5 33t57 12.5h452z" />
    <glyph glyph-name="FL00F6h" unicode="&#xf6;" 
d="M349 561q-28 0 -57 -12.5t-54.5 -33t-44.5 -46t-27 -51.5l-96 -295q-8 -24 -3.5 -46t18 -39t33 -27.5t42.5 -10.5h466q23 0 49.5 10.5t50.5 27.5t43 39t27 46l96 295q8 26 5.5 51.5t-14.5 46t-33 33t-49 12.5h-452zM433 382q3 8 11.5 19t19.5 13h126q11 0 12.5 -12
t-1.5 -20l-69 -212q-5 -6 -14 -14.5t-15 -8.5h-124q-13 0 -14.5 9t-0.5 14zM407 709q-11 -35 9.5 -58.5t62.5 -23.5q21 0 40.5 6t36.5 17t29 26t18 33q11 34 -9 57.5t-62 23.5q-21 0 -41 -6.5t-37 -17.5t-29 -25.5t-18 -31.5zM839 709q11 34 -9 57.5t-62 23.5
q-21 0 -41 -6.5t-37 -17.5t-29 -25.5t-18 -31.5q-11 -35 9.5 -58.5t62.5 -23.5q21 0 40.5 6t36.5 17t29 26t18 33z" />
    <glyph glyph-name="FL00F7h" unicode="&#xf7;" horiz-adv-x="457" 
d="M98 208h397l46 143h-397zM302 463q-10 -31 6 -52.5t49 -21.5q16 0 32.5 6t30.5 16t24.5 23.5t15.5 28.5q11 31 -5.5 52t-49.5 21t-62.5 -21t-40.5 -52zM185 103q-10 -31 6 -52.5t49 -21.5q16 0 32.5 6t30.5 16t24.5 23.5t15.5 28.5q11 31 -5.5 52t-49.5 21t-62.5 -21
t-40.5 -52z" />
    <glyph glyph-name="FL00F8h" unicode="&#xf8;" 
d="M801 561h-452q-28 0 -57 -12.5t-54.5 -33t-44.5 -46t-27 -51.5l-96 -295q-8 -24 -3.5 -46t18 -39t33 -27.5t42.5 -10.5h466q23 0 49.5 10.5t50.5 27.5t43 39t27 46l96 295q8 26 5.5 51.5t-14.5 46t-33 33t-49 12.5zM563 264l-31 -94q-5 -6 -14 -14.5t-15 -8.5h-102z
M563 414l-158 -118l28 86q3 8 11.5 19t19.5 13h99z" />
    <glyph glyph-name="FL00F9h" unicode="&#xf9;" 
d="M667 777q-8 17 -33 17q-13 0 -24 -2.5t-26 -13.5q-16 -11 -25.5 -25t-14.5 -29q-4 -11 -2 -17.5t7 -14.5l27 -50q9 -18 34 -18t54 20q13 10 17.5 18t8.5 19l4 11q3 10 1.5 17t-6.5 15zM531 170q-5 -6 -11 -14.5t-17 -8.5h-124q-8 0 -10.5 8.5t-4.5 14.5l127 391h-279
l-142 -438q-8 -24 -3.5 -46t17.5 -39t33 -27.5t43 -10.5h466q22 0 49 11t51 28t43 39t27 45l142 438h-280z" />
    <glyph glyph-name="FL00FAh" unicode="&#xfa;" 
d="M492 561h-280l-142 -438q-8 -23 -3 -45t18 -39t32.5 -28t42.5 -11h466q23 0 49.5 10.5t50.5 27.5t43 39t27 46l142 438h-279l-127 -391q-5 -6 -13 -14.5t-16 -8.5h-124q-11 0 -11.5 8.5t-2.5 14.5zM567 724q-9 -8 -15.5 -15t-9.5 -17l-4 -11q-4 -11 -4.5 -19t6.5 -18
q17 -20 42 -20t46 18l59 50q9 8 15 14.5t10 17.5q5 15 4.5 29t-8.5 25t-17.5 13.5t-22.5 2.5q-25 0 -45 -17z" />
    <glyph glyph-name="FL00FBh" unicode="&#xfb;" 
d="M492 561h-280l-142 -438q-8 -23 -3 -45t18 -39t32.5 -28t42.5 -11h466q23 0 49.5 10.5t50.5 27.5t43 39t27 46l142 438h-279l-127 -391q-5 -6 -13 -14.5t-16 -8.5h-124q-11 0 -11.5 8.5t-2.5 14.5zM550 626l67 64l25 -64h169l-72 166h-177l-181 -166h169z" />
    <glyph glyph-name="FL00FCh" unicode="&#xfc;" 
d="M492 561h-280l-142 -438q-8 -23 -3 -45t18 -39t32.5 -28t42.5 -11h466q23 0 49.5 10.5t50.5 27.5t43 39t27 46l142 438h-279l-127 -391q-5 -6 -13 -14.5t-16 -8.5h-124q-11 0 -11.5 8.5t-2.5 14.5zM407 709q-11 -35 9.5 -58.5t62.5 -23.5q21 0 40.5 6t36.5 17t29 26
t18 33q11 34 -9 57.5t-62 23.5q-21 0 -41 -6.5t-37 -17.5t-29 -25.5t-18 -31.5zM839 709q11 34 -9 57.5t-62 23.5q-21 0 -41 -6.5t-37 -17.5t-29 -25.5t-18 -31.5q-11 -35 9.5 -58.5t62.5 -23.5q21 0 40.5 6t36.5 17t29 26t18 33z" />
    <glyph glyph-name="FL00FDh" unicode="&#xfd;" horiz-adv-x="751" 
d="M903 561h-219q-30 -8 -55.5 -24.5t-45 -33.5t-31 -30t-12.5 -13q-7 10 -13.5 27t-17 33.5t-27.5 28.5t-44 12h-226l-48 -148h40q3 0 12 -1t20.5 -4t23.5 -9.5t21 -18.5q8 -11 16.5 -20.5t15 -21t10.5 -24.5t3 -30l-92 -284h280l98 302q6 17 24.5 35t41 33.5t44 27
t31.5 15.5h102zM564 724q-9 -8 -15.5 -15t-9.5 -17l-4 -11q-4 -11 -4.5 -19t6.5 -18q17 -20 42 -20t46 18l59 50q9 8 15 14.5t10 17.5q5 15 4.5 29t-8.5 25t-17.5 13.5t-22.5 2.5q-25 0 -45 -17z" />
    <glyph glyph-name="FL00FEh" unicode="&#xfe;" 
d="M212 561l-182 -561h280l26 81h296q42 0 76.5 18.5t62 48t47.5 67t32 75.5q9 27 12.5 61t-4.5 63.5t-30.5 50t-64.5 20.5h-295l24 76h-280zM557 338q9 0 14 -6t6.5 -14.5t0 -17.5t-3.5 -16q-3 -8 -8.5 -18t-13.5 -18.5t-17.5 -14t-19.5 -5.5h-131l36 110h137z" />
    <glyph glyph-name="FL00FFh" unicode="&#xff;" horiz-adv-x="751" 
d="M903 561h-219q-30 -8 -55.5 -24.5t-45 -33.5t-31 -30t-12.5 -13q-7 10 -13.5 27t-17 33.5t-27.5 28.5t-44 12h-226l-48 -148h40q3 0 12 -1t20.5 -4t23.5 -9.5t21 -18.5q8 -11 16.5 -20.5t15 -21t10.5 -24.5t3 -30l-92 -284h280l98 302q6 17 24.5 35t41 33.5t44 27
t31.5 15.5h102zM385 709q-11 -35 9.5 -58.5t62.5 -23.5q21 0 40.5 6t36.5 17t29 26t18 33q11 34 -9 57.5t-62 23.5q-21 0 -41 -6.5t-37 -17.5t-29 -25.5t-18 -31.5zM817 709q11 34 -9 57.5t-62 23.5q-21 0 -41 -6.5t-37 -17.5t-29 -25.5t-18 -31.5q-11 -35 9.5 -58.5
t62.5 -23.5q21 0 40.5 6t36.5 17t29 26t18 33z" />
    <glyph glyph-name="FL0152h" unicode="&#x152;" horiz-adv-x="1211" 
d="M1363 561h-1014q-28 0 -57 -12.5t-54.5 -33t-44.5 -46t-27 -51.5l-96 -295q-8 -24 -3.5 -46t18 -39t33 -27.5t42.5 -10.5h1021l48 147h-342q-2 0 -7 8.5t-7 14.5q1 1 1 3t1 4q0 4 3 7q2 3 6.5 7l9 8t8.5 6.5t5 2.5h342l46 143h-335q-13 0 -18 10t-1 21q3 8 13 20t20 12
h342zM673 414l-87 -267h-207q-8 0 -12 6.5t-2 16.5l70 214q2 8 11.5 19t19.5 11h207z" />
    <glyph glyph-name="FL0153h" unicode="&#x153;" horiz-adv-x="1211" 
d="M1363 561h-1014q-28 0 -57 -12.5t-54.5 -33t-44.5 -46t-27 -51.5l-96 -295q-8 -24 -3.5 -46t18 -39t33 -27.5t42.5 -10.5h1021l48 147h-342q-2 0 -7 8.5t-7 14.5q1 1 1 3t1 4q0 4 3 7q2 3 6.5 7l9 8t8.5 6.5t5 2.5h342l46 143h-335q-13 0 -18 10t-1 21q3 8 13 20t20 12
h342zM673 414l-87 -267h-207q-8 0 -12 6.5t-2 16.5l70 214q2 8 11.5 19t19.5 11h207z" />
    <glyph glyph-name="FL0160h" unicode="&#x160;" horiz-adv-x="768" 
d="M821 255q7 21 0 39t-21.5 31t-34.5 20.5t-40 7.5h-300l10 31q2 8 11.5 19t19.5 11h406l47 147h-570q-28 0 -57 -11.5t-53.5 -31t-43.5 -44t-27 -50.5l-29 -87q-7 -23 -1.5 -45.5t19 -40.5t32.5 -29.5t39 -11.5h297l-10 -33q-3 -8 -12 -19t-19 -11h-406l-48 -147h570
q28 0 57.5 13t55 33.5t44.5 45.5t27 49zM689 792l-66 -64l-26 64h-169l72 -166h177l181 166h-169z" />
    <glyph glyph-name="FL0161h" unicode="&#x161;" horiz-adv-x="900" 
d="M30 0h337q24 0 51 10t52.5 26t49 35.5t40.5 38.5l209 239q6 8 17 19t24.5 21.5t26.5 17.5t22 7h146l47 147h-351q-21 0 -49 -13.5t-54 -31.5t-47 -36t-29 -28l-208 -237l-19.5 -19.5t-24 -22t-24.5 -18t-21 -7.5h-147zM755 792l-66 -64l-26 64h-169l72 -166h177l181 166
h-169z" />
    <glyph glyph-name="FL0178h" unicode="&#x178;" horiz-adv-x="773" 
d="M644 561l-61 -189q-5 -6 -12.5 -14t-13.5 -8h-112q-11 0 -11.5 9.5t-1.5 14.5l60 187h-280l-75 -231q-7 -23 -2.5 -45t17.5 -39t32.5 -28t42.5 -11h302l-7 -23q-7 -20 -17 -27.5t-31 -9.5h-391l-48 -147h594q26 0 50.5 11t45.5 30.5t38 46t27 56.5l135 417h-281zM398 709
q-11 -35 9.5 -58.5t62.5 -23.5q21 0 40.5 6t36.5 17t29 26t18 33q11 34 -9 57.5t-62 23.5q-21 0 -41 -6.5t-37 -17.5t-29 -25.5t-18 -31.5zM830 709q11 34 -9 57.5t-62 23.5q-21 0 -41 -6.5t-37 -17.5t-29 -25.5t-18 -31.5q-11 -35 9.5 -58.5t62.5 -23.5q21 0 40.5 6
t36.5 17t29 26t18 33z" />
    <glyph glyph-name="FL00AFh" unicode="&#x192;" 
d="M856 308l42 130q8 24 3.5 46t-17.5 39t-33 27.5t-43 10.5h-466q-23 0 -49.5 -11t-50.5 -28t-43.5 -39.5t-26.5 -44.5l-96 -295q-8 -26 -5.5 -51.5t14.5 -46t33 -33t49 -12.5h586l48 147h-422q-10 0 -12 11t1 19l-2 2h2l8 23h316q20 0 45.5 8.5t49.5 23t43 34t26 40.5z
M466 414h124q8 0 10.5 -8.5t3.5 -14.5l-13 -41h-167l13 41q5 6 11.5 14.5t17.5 8.5z" />
    <glyph glyph-name="FL02C6h" unicode="&#x2c6;" horiz-adv-x="464" 
d="M314 394l67 64l25 -64h169l-72 166h-177l-181 -166h169z" />
    <glyph glyph-name="FL02DCh" unicode="&#x2dc;" horiz-adv-x="533" 
d="M698 561l-181 -166h-111l-26 63l-66 -63h-169l181 166h111l27 -63l65 63h169z" />
    <glyph glyph-name="FL2013h" unicode="&#x2013;" horiz-adv-x="395" 
d="M144 351h335l-46 -143h-335z" />
    <glyph glyph-name="FL2014h" unicode="&#x2014;" horiz-adv-x="457" 
d="M144 351h397l-46 -143h-397z" />
    <glyph glyph-name="FL2018h" unicode="&#x2018;" horiz-adv-x="279" 
d="M150 369q-6 -19 -3 -35.5t14 -29t28.5 -19.5t40.5 -7q22 0 44.5 7t41 19.5t33 29t20.5 35.5l33 101q12 38 -11.5 64.5t-68.5 26.5q-23 0 -45.5 -7t-41 -19.5t-32.5 -29t-20 -35.5z" />
    <glyph glyph-name="FL2019h" unicode="&#x2019;" horiz-adv-x="279" 
d="M150 369q-6 -19 -3 -35.5t14 -29t28.5 -19.5t40.5 -7q22 0 44.5 7t41 19.5t33 29t20.5 35.5l33 101q12 38 -11.5 64.5t-68.5 26.5q-23 0 -45.5 -7t-41 -19.5t-32.5 -29t-20 -35.5z" />
    <glyph glyph-name="FL201Ah" unicode="&#x201a;" horiz-adv-x="295" 
d="M26 -11q-12 -39 14.5 -65.5t74.5 -26.5q24 0 47.5 7t43.5 19.5t34.5 29t20.5 36.5l34 103q6 19 2.5 36t-15.5 29.5t-31 19.5t-43 7t-47.5 -7t-44 -19.5t-35.5 -29.5t-21 -36z" />
    <glyph glyph-name="FL201Ch" unicode="&#x201c;" horiz-adv-x="504" 
d="M385 369q-13 -38 9 -64.5t66 -26.5q21 0 42.5 7t39.5 19.5t32 29t20 35.5l33 101q6 19 3 35.5t-13 29t-27 19.5t-38 7q-22 0 -43.5 -7t-39.5 -19.5t-31.5 -29t-19.5 -35.5zM150 368q-13 -38 9 -64.5t66 -26.5q21 0 42.5 7t39.5 19.5t32 29t20 35.5l32 101q6 19 3.5 35.5
t-12.5 29t-27 19.5t-38 7q-22 0 -43.5 -7t-39.5 -19.5t-32 -29t-20 -35.5z" />
    <glyph glyph-name="FL201Dh" unicode="&#x201d;" horiz-adv-x="504" 
d="M385 369q-13 -38 9 -64.5t66 -26.5q21 0 42.5 7t39.5 19.5t32 29t20 35.5l33 101q6 19 3 35.5t-13 29t-27 19.5t-38 7q-22 0 -43.5 -7t-39.5 -19.5t-31.5 -29t-19.5 -35.5zM150 368q-13 -38 9 -64.5t66 -26.5q21 0 42.5 7t39.5 19.5t32 29t20 35.5l32 101q6 19 3.5 35.5
t-12.5 29t-27 19.5t-38 7q-22 0 -43.5 -7t-39.5 -19.5t-32 -29t-20 -35.5z" />
    <glyph glyph-name="FL201Eh" unicode="&#x201e;" horiz-adv-x="558" 
d="M289 -11q-12 -39 14.5 -65.5t74.5 -26.5q24 0 47.5 7t43.5 19.5t34.5 29t20.5 36.5l34 103q6 19 2.5 36t-15.5 29.5t-31 19.5t-43 7t-47.5 -7t-44 -19.5t-35.5 -29.5t-21 -36zM26 -11q-12 -39 14.5 -65.5t74.5 -26.5q24 0 47.5 7t43.5 19.5t34.5 29t20.5 36.5l34 103
q6 19 2.5 36t-15.5 29.5t-31 19.5t-43 7t-47.5 -7t-44 -19.5t-35.5 -29.5t-21 -36z" />
    <glyph glyph-name="FL2020h" unicode="&#x2020;" horiz-adv-x="438" 
d="M541 561h-280l-35 -108h-49l-46 -143h49l-101 -310h280l101 310h49l46 143h-49z" />
    <glyph glyph-name="FL2021h" unicode="&#x2021;" horiz-adv-x="438" 
d="M541 561h-280l-35 -108h-49l-46 -143h49l-19 -59h-49l-47 -143h49l-35 -108h280l35 108h49l47 143h-49l19 59h49l46 143h-49z" />
    <glyph glyph-name="FL2022h" unicode="&#x2022;" 
d="M801 561h-452q-28 0 -57 -12.5t-54.5 -33t-44.5 -46t-27 -51.5l-96 -295q-8 -24 -3.5 -46t18 -39t33 -27.5t42.5 -10.5h466q23 0 49.5 10.5t50.5 27.5t43 39t27 46l96 295q8 26 5.5 51.5t-14.5 46t-33 33t-49 12.5z" />
    <glyph glyph-name="FL2026h" unicode="&#x2026;" horiz-adv-x="817" 
d="M582 92q-6 -20 -2 -36.5t16 -29t31 -19.5t43 -7t47.5 7t43.5 19.5t35 29t21 36.5q6 19 2.5 36t-15.5 29.5t-31 19.5t-43 7t-47.5 -7t-44 -19.5t-35.5 -29.5t-21 -36zM321 92q-6 -20 -2 -36.5t16 -29t31 -19.5t43 -7t47.5 7t43.5 19.5t35 29t21 36.5q6 19 2.5 36
t-15.5 29.5t-31 19.5t-43 7t-47.5 -7t-44 -19.5t-35.5 -29.5t-21 -36zM60 92q-6 -20 -2 -36.5t16 -29t31 -19.5t43 -7t47.5 7t43.5 19.5t35 29t21 36.5q6 19 2.5 36t-15.5 29.5t-31 19.5t-43 7t-47.5 -7t-44 -19.5t-35.5 -29.5t-21 -36z" />
    <glyph glyph-name="FL2030h" unicode="&#x2030;" horiz-adv-x="1317" 
d="M318 391q-2 -6 3 -6h31q5 0 8 6l17 53q1 2 0.5 5t-3.5 3h-31q-5 -2 -8 -8zM741 111q-2 -6 3 -6h31q5 0 8 6l17 53q1 2 0.5 5t-3.5 3h-31q-5 -2 -8 -8zM930 280q28 0 40.5 -22.5t4.5 -48.5l-48 -148q-4 -12 -13.5 -23t-21.5 -19.5t-25 -13.5t-25 -5h-233q-22 0 -37.5 18.5
t-7.5 42.5l47 146l-255 -207h-284l345 280h-231q-22 0 -37.5 18.5t-7.5 42.5l48 148q4 13 13.5 25.5t22.5 22.5t27.5 16.5t28.5 6.5h226q28 0 40.5 -22.5t4.5 -48.5l-44 -136l256 208h283l-346 -281h229zM1310 280q28 0 40.5 -22.5t4.5 -48.5l-48 -148q-4 -12 -13.5 -23
t-21.5 -19.5t-25 -13.5t-25 -5h-233q-22 0 -37.5 18.5t-7.5 42.5l48 148q4 13 13.5 25.5t22.5 22.5t27.5 16.5t28.5 6.5h226zM1121 111q-2 -6 3 -6h31q5 0 8 6l17 53q1 2 0.5 5t-3.5 3h-31q-5 -2 -8 -8z" />
    <glyph glyph-name="FL2039h" unicode="&#x2039;" horiz-adv-x="304" 
d="M311 279l45 -68l-134 -101l-114 169l223 168l68 -101z" />
    <glyph glyph-name="FL203Ah" unicode="&#x203a;" horiz-adv-x="304" 
d="M175 279l-89 -68l68 -101l224 169l-115 168l-134 -101z" />
    <glyph glyph-name="FL2122h" unicode="&#x2122;" horiz-adv-x="1563" 
d="M444 414h138q9 0 14 -6t6.5 -14.5t0 -17.5t-3.5 -16q-3 -8 -8.5 -18t-13.5 -18.5t-17.5 -14t-19.5 -5.5h-132zM30 0h279l51 157h297q42 0 76.5 18.5t62 48t47.5 67t32 75.5q9 27 12 61t-5 63.5t-30.5 50t-64.5 20.5h-575zM693 0h337q25 0 52 10t52.5 26t48.5 35.5
t40 38.5l209 239q6 8 17 19t24.5 21.5t26.5 17.5t22 7h146l47 147h-351q-21 0 -48.5 -13.5t-53.5 -31.5t-47.5 -36.5t-29.5 -27.5l-208 -237l-19.5 -19.5t-24 -22t-24.5 -18t-21 -7.5h-147z" />
    <glyph glyph-name="FL017Dh" horiz-adv-x="894" 
d="M867 0h-337q-24 0 -47.5 10t-44.5 26t-38 35.5t-27 38.5l-132 239q-3 8 -10.5 19t-17.5 21.5t-20.5 17.5t-19.5 7h-146v147h351q21 0 44.5 -13.5t44 -31.5t35.5 -36t20 -28l131 -237q5 -8 13 -19.5t17 -22t18.5 -18t18.5 -7.5h147v-148zM399 792l46 -64l46 64h169
l-126 -166h-177l-127 166h169z" />
    </font>
</defs>
</svg>
