<?xml version="1.0" standalone="no"?>
<!DOCTYPE svg PUBLIC "-//W3C//DTD SVG 1.1//EN" "http://www.w3.org/Graphics/SVG/1.1/DTD/svg11.dtd" >
<svg xmlns="http://www.w3.org/2000/svg" xmlns:xlink="http://www.w3.org/1999/xlink" version="1.1">
<metadata>
Created by FontForge 20170731 at Fri May 29 12:53:23 2015
 By Aleksey,,,
2015 Iconian Fonts - www.iconian.com
</metadata>
<defs>
<font id="GentlemanCallerLeftalic" horiz-adv-x="509" >
  <font-face 
    font-family="Gentleman Caller Leftalic"
    font-weight="400"
    font-stretch="normal"
    units-per-em="1000"
    panose-1="2 0 0 0 0 0 0 0 0 0"
    ascent="800"
    descent="-200"
    x-height="643"
    cap-height="721"
    bbox="-108.581 -123 924 807"
    underline-thickness="50"
    underline-position="-175"
    unicode-range="U+0020-2122"
  />
<missing-glyph horiz-adv-x="500" 
 />
    <glyph glyph-name=".notdef" horiz-adv-x="500" 
 />
    <glyph glyph-name=".null" horiz-adv-x="0" 
 />
    <glyph glyph-name="nonmarkingreturn" horiz-adv-x="500" 
 />
    <glyph glyph-name="FL0020h" unicode=" " horiz-adv-x="334" 
 />
    <glyph glyph-name="FL0021h" unicode="!" horiz-adv-x="272" 
d="M182 197h-160l-68 382q-2 11 -15.5 20t-23.5 12l-5 32h225l5 -32q-8 -4 -18 -12t-8 -20zM45 71q-6 30 13.5 50.5t52.5 20.5q32 0 59.5 -20.5t33.5 -50.5q5 -30 -16 -50.5t-53 -20.5q-33 0 -59 20.5t-31 50.5z" />
    <glyph glyph-name="FL0022h" unicode="&#x22;" horiz-adv-x="429" 
d="M-54 643l29 -162q2 -14 -8 -24.5t-21 -13.5v-1h-1l6 -34h92q16 0 32.5 5.5t29.5 15.5t20.5 25t4.5 33l-27 156h-157zM135 643l29 -162q2 -14 -8 -24.5t-21 -13.5v-1h-1l6 -34h92q16 0 32.5 5.5t29.5 15.5t20.5 25t4.5 33l-27 156h-157z" />
    <glyph glyph-name="FL0023h" unicode="#" horiz-adv-x="646" 
d="M574 280l17 -96h-39q-5 30 -18 37.5t-31 7.5h-23l29 -164q2 -11 15 -20.5t23 -12.5l6 -32h-146q-11 5 -21 14.5t-18.5 20t-13.5 19t-5 11.5l-29 164h-76l29 -164q2 -11 15 -20.5t23 -12.5l6 -32h-225l-6 32q8 3 18.5 12.5t8.5 20.5l-29 164h-20q-19 0 -29 -7.5t-5 -37.5
h-39l-17 96h101l-17 93h-101l-16 96h39q3 -16 7.5 -25t11 -13.5t14.5 -6t17 -1.5h20l-28 156q-2 11 -15 20t-23 12l-5 32h121q7 0 20.5 -7.5t27 -18t23.5 -21.5t11 -17l28 -156h76l-28 156q-2 11 -15.5 20t-22.5 12l-5 32h225l5 -32q-8 -3 -18.5 -12t-8.5 -20l28 -156h23
q9 0 16.5 1.5t12 6t6 13.5t-1.5 25h39l16 -96h-103l17 -93h103zM294 373h-76l17 -93h76z" />
    <glyph glyph-name="FL0024h" unicode="$" horiz-adv-x="508" 
d="M336 0h-160l-18 99h-3q-8 0 -27.5 4.5t-40 12.5t-37.5 20.5t-20 27.5l-7 38q-2 12 -16.5 24t-25.5 15l-7 34h91q15 -1 34 -6.5t36.5 -15t30 -23.5t15.5 -33l2 -17q3 -17 17.5 -27t28.5 -10h3q35 0 29 40l-14 76q-5 16 -14 27.5t-32 16.5h-91q-12 0 -30.5 4t-36.5 12
t-31.5 19.5t-16.5 26.5l-24 134q-4 24 5 38t24.5 20.5t33 8t29.5 1.5h13l-13 76h160l13 -76h8q12 0 30 -1t35.5 -7t31.5 -19.5t19 -38.5l10 -57q2 -11 16.5 -24t26.5 -15l6 -34h-91q-15 1 -33.5 6.5t-35.5 15t-29.5 23.5t-15.5 33l-3 21q-4 16 -17 34.5t-32 18.5
q-21 -5 -26.5 -17t-4.5 -27l15 -88q4 -17 12.5 -29.5t22.5 -15.5h103q12 0 29.5 -1t35 -7.5t31.5 -20t19 -37.5l20 -116q3 -15 -6.5 -27.5t-24.5 -20.5t-32 -12.5t-29 -4.5h-9z" />
    <glyph glyph-name="FL0025h" unicode="%" horiz-adv-x="519" 
d="M-33 676h108q7 0 17.5 -1t21.5 -5t20 -12.5t12 -23.5l40 -232l95 241h92l5 -32q-8 -3 -15 -12.5t-11 -19.5l-88 -225h107q7 0 18 -1t21.5 -5t19 -13t11.5 -24l53 -305q1 -9 -4.5 -16t-14.5 -12t-19 -7.5t-17 -2.5h-109q-7 0 -18 2.5t-22 7.5t-19.5 12t-9.5 16l-41 235
l-95 -241h-93l-6 32q4 1 9 4.5t9 8t7 10t2 10.5l88 225h-106q-7 0 -18 2.5t-22 7.5t-19.5 12t-10.5 16l-53 306q-3 15 2.5 23.5t14.5 12.5t19.5 5t18.5 1zM327 292q-8 0 -9.5 -9.5t0.5 -17.5l38 -214q2 -8 4.5 -15t10.5 -7q9 0 10.5 7.5t-0.5 20.5l-37 208q-2 8 -6.5 17.5
t-10.5 9.5zM34 615q-8 0 -9 -9t1 -17l37 -215q2 -8 5 -15t11 -7q16 0 9 28l-36 209q-2 8 -7 17t-11 9z" />
    <glyph glyph-name="FL0026h" unicode="&#x26;" horiz-adv-x="482" 
d="M142 571q-10 10 -18 16.5t-20 9.5q-11 -4 -20 -9.5t-7 -16.5l27 -152q3 -20 10.5 -37.5t26.5 -19.5h183q9 0 16 1.5t11.5 6t6 13.5t-1.5 25h39l24 -136h-39l-1 5q-2 13 -5 19t-7.5 8t-10.5 3t-15 5l43 -247q3 -15 -6.5 -27.5t-24.5 -20.5t-32 -12.5t-29 -4.5h-165
q-12 0 -30.5 4.5t-36.5 12.5t-31.5 20.5t-16.5 27.5l-41 231q-5 25 4.5 41t17.5 19l1 4q-5 3 -12 8t-13.5 12t-11.5 14.5t-6 15.5l-28 157q-4 21 4 35.5t23 23.5t33.5 13t35.5 4h161q12 0 29.5 -1t35 -7t31 -19.5t17.5 -37.5l14 -80q3 -11 17.5 -24t25.5 -15l7 -34h-88
q-15 1 -34 6.5t-36.5 15t-30 23.5t-15.5 33zM158 103q5 -26 12.5 -42.5t24.5 -16.5h12q17 0 19.5 16.5t-2.5 42.5l-33 188q-8 13 -14 17.5t-28 6.5q-9 -1 -13 -2.5t-6 -4.5t-2.5 -7t-2.5 -10z" />
    <glyph glyph-name="FL0027h" unicode="'" horiz-adv-x="240" 
d="M-54 643l29 -162q2 -14 -8 -24.5t-21 -13.5v-1h-1l6 -34h92q16 0 32.5 5.5t29.5 15.5t20.5 25t4.5 33l-27 156h-157z" />
    <glyph glyph-name="FL0028h" unicode="(" horiz-adv-x="236" 
d="M16 39l-98 560q-3 19 4 33.5t20 24t29.5 15t31.5 6.5h90l6 -35q-11 -3 -21.5 -14t-8.5 -22l35 -198q0 -15 -8.5 -29.5t-16.5 -19.5l3 -4q8 -2 22.5 -19t18.5 -41l45 -257q5 -24 17.5 -31.5t26.5 -7.5l7 -35h-75q-16 0 -36.5 4t-40 13t-34 23t-17.5 34z" />
    <glyph glyph-name="FL0029h" unicode=")" horiz-adv-x="236" 
d="M205 39l-98 560q-3 19 -15.5 33.5t-29 24t-34.5 15t-33 6.5h-91l6 -35q12 -3 26 -14t16 -22l35 -198h1q5 -15 19.5 -29.5t23.5 -19.5l-1 -4q-8 -2 -17 -19t-4 -41l45 -257q5 -24 -6 -31.5t-25 -7.5l7 -35h76q16 0 34.5 4t34 13t24.5 23t6 34z" />
    <glyph glyph-name="FL002Ah" unicode="*" horiz-adv-x="249" 
d="M27 622q9 9 7 15q-1 7 -12 16l-8 7l22 26l82 -73l-20 -27q-10 10 -16 13t-9 3t-10 -7l-12 -15l16 -13q11 -8 13 -8q8 0 20 15l29 -26l-55 -72l-31 25l4 7q7 7 5 13q-3 5 -4.5 8.5t-6.5 11.5l-13 11l-9 -13q-8 -11 -7 -14q1 -8 19 -24l-20 -26l-85 73l23 27l6 -7
q11 -8 14 -8l2 1t7 3l7 5l9 11l-13 13q-13 10 -18 10q-2 0 -4 -2t-7 -6l-5 -9l-32 27l58 74l29 -27q-10 -16 -10 -23q2 -7 11 -14l14 -13z" />
    <glyph glyph-name="FL002Bh" unicode="+" horiz-adv-x="322" 
d="M72 383q-3 20 -11.5 31t-35.5 11h-5l-7 38h136l7 -38q-31 0 -38 -11.5t-2 -30.5l7 -35h35q18 0 28 7.5t5 38.5h39l23 -136h-39l-1 6q-2 14 -6 20.5t-10 9.5t-13.5 4.5t-17.5 5.5h-35l6 -36q3 -18 12 -29.5t41 -11.5l7 -39h-136l-7 39h5q14 0 20 3t8 8.5t2.5 13t3.5 16.5
l-6 36h-36q-20 0 -30.5 -6.5t-5.5 -33.5l1 -6h-39l-23 136h39q5 -31 18 -38.5t32 -7.5h36z" />
    <glyph glyph-name="FL002Ch" unicode="," horiz-adv-x="204" 
d="M11 71q-6 30 14.5 50.5t53.5 20.5q32 0 57 -20.5t31 -50.5l3 -20q2 -8 5 -23.5t7 -41.5q3 -18 -4.5 -32.5t-20.5 -24.5t-29.5 -16t-31.5 -7h-92l-7 35h1q11 4 21 14.5t7 23.5z" />
    <glyph glyph-name="FL002Dh" unicode="-" horiz-adv-x="257" 
d="M51 304q-20 0 -30.5 -6.5t-5.5 -33.5l1 -6h-39l-23 136h39q5 -31 18 -38.5t32 -7.5h49q18 0 28 7.5t5 38.5h39l23 -136h-39l-1 6q-2 14 -6 20.5t-10 9.5t-13.5 4.5t-17.5 5.5h-49z" />
    <glyph glyph-name="FL002Eh" unicode="." horiz-adv-x="204" 
d="M11 71q-6 30 14 50.5t53 20.5q32 0 58 -20.5t32 -50.5q5 -30 -14.5 -50.5t-51.5 -20.5q-33 0 -59.5 20.5t-31.5 50.5z" />
    <glyph glyph-name="FL002Fh" unicode="/" horiz-adv-x="501" 
d="M44 65l228 578h92l5 -32q-8 -3 -15 -12.5t-11 -19.5l-227 -579h-93l-6 32q4 1 9 4.5t9 8t7 10t2 10.5z" />
    <glyph glyph-name="FL0030h" unicode="0" horiz-adv-x="436" 
d="M14 643h181q12 0 30 -1.5t35.5 -8.5t32 -21.5t18.5 -39.5l90 -507q3 -15 -6.5 -27.5t-24.5 -20.5t-32 -12.5t-29 -4.5h-182q-12 0 -30.5 4.5t-36.5 12.5t-31.5 20.5t-16.5 27.5l-90 510q-4 24 5 37.5t24.5 20.5t33 8.5t29.5 1.5zM207 44q26 0 31.5 16.5t0.5 42.5l-44 248
l-42 -205l10 -55q4 -19 14.5 -33t29.5 -14zM113 599q-19 0 -26 -18t-4 -35l41 -231l41 207l-4 24q-3 17 -16 35t-32 18z" />
    <glyph glyph-name="FL0031h" unicode="1" horiz-adv-x="295" 
d="M-90 643h216l102 -578q2 -11 15 -20.5t23 -12.5l6 -32h-225l-6 32q8 3 18.5 12.5t8.5 20.5l-93 528q-17 -11 -18 -30h-33z" />
    <glyph glyph-name="FL0032h" unicode="2" horiz-adv-x="508" 
d="M149 599q23 -5 32 -16.5t14 -27.5l28 -156q2 -17 -1.5 -30t-17.5 -16h-103q-12 0 -30 -1t-33.5 -7.5t-24.5 -20t-4 -37.5l50 -287h389l-37 210q-2 11 8.5 23t21.5 15l-7 35h-91q-15 -1 -31 -6.5t-29.5 -15t-21 -24t-4.5 -33.5l28 -160h-42q-19 0 -29.5 14t-14.5 33
l-31 175q0 16 5.5 27.5t26.5 16.5h91q12 0 28.5 4t31.5 12t24.5 20t6.5 27l-35 203q-4 24 -18 37.5t-31.5 20t-35.5 8t-30 1.5h-181q-12 0 -29.5 -1t-33.5 -7t-25.5 -19.5t-5.5 -37.5l23 -127q2 -11 -8.5 -24t-20.5 -15l5 -34h91q15 1 32 6.5t30.5 15t21 23.5t4.5 33l-16 90
q-3 17 4 35t26 18z" />
    <glyph glyph-name="FL00D0h" unicode="3" horiz-adv-x="472" 
d="M149 599q-19 0 -26 -18t-4 -35l16 -90q3 -19 -4.5 -33t-21 -23.5t-30.5 -15t-32 -6.5h-91l-5 34q10 2 20.5 15t8.5 24l-23 127q-4 24 5.5 37.5t25.5 19.5t33.5 7t29.5 1h181q14 0 33 -4.5t36.5 -13.5t30.5 -23.5t16 -34.5l28 -155q2 -16 -8.5 -31t-18.5 -21l3 -4
q4 -2 10.5 -7t13.5 -13t12.5 -18.5t7.5 -23.5l41 -233q3 -14 -8.5 -25t-27.5 -19t-31.5 -12.5t-20.5 -4.5h-176q-8 0 -27.5 4.5t-40 12.5t-37.5 20.5t-20 27.5l-26 145q-2 11 -16.5 23t-25.5 15l-7 35h91q16 -1 34.5 -6.5t35.5 -15t29.5 -24t15.5 -33.5l20 -116
q3 -16 18 -30t29 -14h3q19 0 25.5 14t2.5 33l-31 175q-5 11 -9.5 19.5t-15.5 16.5q-11 -2 -15 -10.5t-1 -27.5l1 -6h-39l-23 136h39q3 -18 8 -27t14 -14h12q15 6 10 26l-31 179l-1 -3q-5 16 -14 27.5t-32 16.5z" />
    <glyph glyph-name="FL0034h" unicode="4" horiz-adv-x="501" 
d="M477 0l-6 32q-10 3 -22.5 12.5t-14.5 20.5l-91 514q-2 11 8 20t18 12l-5 32h-155q-8 0 -13 -7t-7 -17t-2.5 -21t0.5 -19l35 -203h-78l-36 209q-1 7 9 15t18 11l-5 32h-220l5 -32q9 -3 23 -12t16 -20l44 -249h233l47 -265q1 -5 -2 -10.5t-7 -10t-9 -8t-9 -4.5l6 -32h220z
" />
    <glyph glyph-name="FL0035h" unicode="5" horiz-adv-x="508" 
d="M149 599h-39l35 -200q2 -17 11 -30t24 -16h103q12 0 29.5 -1t35 -7.5t31.5 -20t19 -37.5l39 -222q3 -15 -6.5 -27.5t-24.5 -20.5t-32 -12.5t-29 -4.5h-172q-8 0 -27.5 4.5t-40 12.5t-37.5 20.5t-20 27.5l-26 145q-2 11 -16.5 23t-25.5 15l-7 35h91q16 -1 34.5 -6.5
t35.5 -15t29.5 -24t15.5 -33.5l20 -116q3 -16 18 -30t29 -14h3q19 0 25.5 14t2.5 33l-31 175q-5 16 -14 27.5t-32 16.5h-91q-13 0 -31.5 4t-36.5 12t-31.5 20t-16.5 27l-47 270h389l34 -192q1 -6 5.5 -12t11 -12t13.5 -10t13 -5l5 -34h-91q-15 1 -33.5 6.5t-35 15t-29 23.5
t-15.5 33l-16 90q-3 17 -16 35t-32 18z" />
    <glyph glyph-name="FL0036h" unicode="6" horiz-adv-x="472" 
d="M401 65q3 -15 -10 -27.5t-31 -20.5t-36 -12.5t-25 -4.5h-172q-12 0 -30.5 4.5t-36.5 12.5t-31.5 20.5t-16.5 27.5l-90 511q-4 24 5 37.5t24.5 20t33 8t29.5 1.5h181q12 0 29.5 -1t35.5 -7t32 -19.5t18 -37.5l13 -72q1 -6 5.5 -12t11 -12t13.5 -10t13 -5l5 -34h-91
q-15 1 -33.5 6.5t-35 15t-29 23.5t-15.5 33l-6 35q-3 17 -16 35t-32 18q-21 -5 -26.5 -16.5t-5.5 -27.5l22 -125q18 -27 43 -37h147q24 -12 41.5 -32t19.5 -33zM200 328q-19 28 -44 28q-11 0 -21.5 -6t-13.5 -19l42 -240q4 -19 14.5 -33t29.5 -14h3q14 0 23.5 14t8.5 30z
" />
    <glyph glyph-name="FL0037h" unicode="7" horiz-adv-x="510" 
d="M134 0l-6 32q8 3 19.5 12.5t9.5 20.5h4l88 504l-5 31h-121q-9 0 -10 -6t0 -11l24 -144q3 -19 -4.5 -33t-20.5 -23.5t-29.5 -15t-31.5 -6.5h-91l-7 34q6 1 11.5 5.5t10 10.5t6.5 12t1 11l-36 209h427l13 -75l-90 -510q7 -9 17 -16.5t19 -9.5l6 -32h-204z" />
    <glyph glyph-name="FL0038h" unicode="8" horiz-adv-x="429" 
d="M19 643h165q18 0 37.5 -4t37 -13t30.5 -23.5t17 -35.5l28 -155q2 -16 -8.5 -31t-18.5 -21l2 -4q4 -2 11 -7t13.5 -13t12.5 -18.5t8 -23.5l41 -229q3 -15 -7 -27.5t-25 -20.5t-32 -12.5t-29 -4.5h-175q-12 0 -30.5 4.5t-36.5 12.5t-31.5 20.5t-16.5 27.5l-41 229
q-5 26 6 41.5t19 20.5l1 4q-5 3 -12.5 8.5t-14.5 12.5t-12.5 15t-6.5 16l-28 155q-4 21 4 35.5t23 23.5t33.5 13t35.5 4zM158 103q5 -26 12.5 -42.5t24.5 -16.5h23q17 0 19.5 16.5t-2.5 42.5l-35 200q-8 13 -14.5 18t-28.5 7q-22 -2 -26.5 -7t-7.5 -18zM105 409
q3 -20 14 -26.5t30 -8.5q17 2 25.5 8.5t5.5 26.5l-28 162q-2 14 -15.5 22t-29.5 8h5q-14 0 -25.5 -8t-9.5 -22z" />
    <glyph glyph-name="FL0039h" unicode="9" horiz-adv-x="472" 
d="M-43 579q-3 15 10 27t31 20t36 12.5t26 4.5h172q12 0 30.5 -4.5t36 -12.5t31 -20t16.5 -27l90 -512q4 -24 -5 -37.5t-24 -20t-32.5 -8t-29.5 -1.5h-181q-12 0 -30 1t-36 7t-32 19.5t-18 38.5l-13 72q-2 10 -16.5 23t-26.5 15l-6 35h91q15 -1 33.5 -6.5t36 -15t30 -24
t15.5 -33.5l6 -35q3 -16 16 -34.5t32 -18.5q21 5 26.5 16.5t4.5 27.5l-22 125q-12 25 -42 37h-147q-13 6 -24 14.5t-19 18t-13 18t-6 14.5zM158 315q18 -27 44 -27q11 0 22 6t14 19l-43 240q-3 19 -14.5 32.5t-30.5 13.5h-3q-14 0 -23.5 -13.5t-8.5 -30.5z" />
    <glyph glyph-name="FL003Ah" unicode=":" horiz-adv-x="204" 
d="M11 71q-6 30 14 50.5t53 20.5q32 0 58 -20.5t32 -50.5q5 -30 -14.5 -50.5t-51.5 -20.5q-33 0 -59.5 20.5t-31.5 50.5zM-35 326q-5 29 14 50t52 21q16 0 31.5 -5.5t28 -15.5t20.5 -22.5t10 -27.5q6 -30 -13 -50.5t-51 -20.5q-33 0 -59.5 20.5t-32.5 50.5z" />
    <glyph glyph-name="FL003Bh" unicode=";" horiz-adv-x="204" 
d="M-35 326q-5 29 14 50t52 21q16 0 31.5 -5.5t28 -15.5t20.5 -22.5t10 -27.5q6 -30 -13 -50.5t-51 -20.5q-33 0 -59.5 20.5t-32.5 50.5zM11 71q-6 30 14.5 50.5t53.5 20.5q32 0 57 -20.5t31 -50.5l1 -7l2 -13q2 -8 5 -23.5t7 -41.5q3 -18 -4.5 -32.5t-20.5 -24.5t-29.5 -16
t-31.5 -7h-92l-7 35h1q11 4 21 14.5t7 23.5z" />
    <glyph glyph-name="FL003Ch" unicode="&#x3c;" horiz-adv-x="577" 
d="M112 583l24 -144q3 -19 -4.5 -33t-20.5 -23.5t-29.5 -15t-31.5 -6.5h-90l-7 34q11 2 21.5 15t7.5 24l-36 209h494l13 -75h-33q-4 9 -15 20.5t-22 11.5h-74q-11 -11 -10 -21l91 -514q2 -11 14.5 -20.5t22.5 -12.5l6 -32h-225l-6 32q8 3 18.5 12.5t8.5 20.5l-91 514
q-2 10 -15 21q-13 -6 -11 -17z" />
    <glyph glyph-name="FL003Dh" unicode="=" horiz-adv-x="257" 
d="M-38 348h210l-16 90h-39q5 -31 -5 -38.5t-28 -7.5h-49q-19 0 -32 7.5t-18 38.5h-39zM180 304h-210l15 -90h39q-5 31 5 38.5t29 7.5h49q18 0 31 -7.5t18 -38.5h39z" />
    <glyph glyph-name="FL0054h" unicode="&#x3e;" horiz-adv-x="577" 
d="M260 583l24 -144q3 -19 15.5 -33t30 -23.5t36.5 -15t34 -6.5h91l-7 34q-6 1 -13 5.5t-13 10t-11 12t-6 11.5l-36 209h-495l13 -75h33q1 9 8.5 20.5t18.5 11.5h74q6 -5 11 -10.5t6 -10.5l91 -514q2 -11 -9 -20.5t-19 -12.5l6 -32h225l-6 32q-10 3 -22.5 12.5t-14.5 20.5
l-91 514q-2 10 9 21q15 -6 17 -17z" />
    <glyph glyph-name="FL003Fh" unicode="?" horiz-adv-x="472" 
d="M149 599q-19 0 -26 -18t-4 -35l16 -90q3 -19 -4.5 -33t-21 -23.5t-30.5 -15t-32 -6.5h-91l-5 34q10 2 20.5 15t8.5 24l-23 127q-4 24 5.5 37.5t25.5 19.5t33.5 7t29.5 1h181q12 0 30 -1.5t35.5 -8t31.5 -20t18 -37.5l35 -203q3 -15 -6.5 -27t-24.5 -20t-31.5 -12
t-28.5 -4h-43q-21 -5 -27.5 -16.5t-4.5 -27.5l13 -69h-159l-16 90q-5 24 4 37.5t24.5 20t33 7.5t29.5 1h59q14 3 17.5 16t1.5 30l-28 156q-5 16 -14 27.5t-32 16.5zM92 71q-6 30 14.5 50.5t53.5 20.5q32 0 58.5 -20.5t32.5 -50.5q5 -30 -16 -50.5t-53 -20.5q-33 0 -59 20.5
t-31 50.5z" />
    <glyph glyph-name="FL0040h" unicode="@" horiz-adv-x="672" 
d="M194 501h109q7 0 17.5 -1t21 -5t19 -12.5t11.5 -23.5l54 -309h6q14 0 25 7.5t7 31.5l-68 383q-4 12 -18.5 23t-25.5 14h-247q-11 -3 -20.5 -14t-10.5 -23l94 -533q5 -24 17.5 -31.5t26.5 -7.5h316l7 -35h-391q-16 0 -36.5 4t-40 13t-34 23t-17.5 34l-92 526q-4 19 3 33.5
t20.5 24t30 14.5t31.5 6h428q15 -1 33 -6t34 -14.5t28.5 -24t16.5 -33.5l66 -376q3 -20 -6.5 -34t-25 -23t-34.5 -13t-34 -4h-253q-7 0 -18 2.5t-22 8t-19.5 12.5t-9.5 16l-54 306q-3 15 2.5 23t14.5 12t19.5 5t18.5 1zM258 439q-8 0 -9 -9t1 -17l37 -214q2 -9 5.5 -16
t11.5 -7q9 0 9.5 7.5t-1.5 20.5l-36 209q-2 8 -7 17t-11 9z" />
    <glyph glyph-name="FL0041h" unicode="A" horiz-adv-x="512" 
d="M31 0l-7 36q8 3 18.5 13.5t8.5 23.5l-101 575q-2 13 -16.5 23t-22.5 13l-7 37h313q8 0 30.5 -1.5t47.5 -8t46 -21.5t26 -42l118 -671q2 -13 12.5 -21.5t23.5 -13t26 -6.5t20 -2l7 -38h-115q-17 0 -38 4.5t-41 14t-35 25t-19 37.5l-69 393h-94l52 -297q2 -13 15.5 -23.5
t24.5 -13.5l7 -36h-231zM156 670h-46l44 -249h89l-34 191q-4 18 -18 38t-35 20z" />
    <glyph glyph-name="FL0042h" unicode="B" horiz-adv-x="507" 
d="M24 0l-7 36q11 3 21 13.5t8 23.5l-101 575q-2 13 -16 23t-25 13l-7 37h329q18 0 39 -4.5t39.5 -15t32.5 -27t18 -39.5l31 -173q1 -9 -1.5 -18t-7 -17.5t-10 -14.5t-9.5 -9l3 -3q4 -3 11.5 -9t15 -15t13.5 -20.5t8 -26.5l45 -256q3 -17 -7 -30.5t-25.5 -23t-33 -14.5
t-30.5 -5h-334zM286 116l-40 223q-8 19 -31.5 24t-54.5 5l51 -295q3 -14 16 -24h42q18 0 20 18.5t-3 48.5zM106 671l45 -252q7 0 20.5 1t26 4.5t21 11t6.5 21.5l-32 183q-5 20 -25 25.5t-42 5.5h-20z" />
    <glyph glyph-name="FL0043h" unicode="C" horiz-adv-x="495" 
d="M111 671q-23 -5 -28 -18t-5 -31l92 -520q4 -21 15 -37t32 -16h3q15 0 25 16t6 34l-22 130q-4 21 4 37t22 26.5t31.5 16.5t32.5 8h96l7 -39q-11 -4 -21.5 -17t-8.5 -26l28 -162q3 -17 -10 -30.5t-31 -23t-37 -14.5t-28 -5h-181q-12 0 -31.5 5t-38.5 14.5t-34 23t-18 30.5
l-100 572q-5 27 4.5 42t25.5 22.5t34 9.5t31 2h190q13 0 32 -1t38 -8t34 -22t20 -43l28 -162q1 -5 6 -12t11.5 -13.5t14 -11.5t13.5 -6l7 -39h-96q-16 1 -35.5 7t-37.5 17t-31.5 26.5t-17.5 36.5l-21 122q-2 9 -6 19.5t-10.5 19t-15 14.5t-18.5 6z" />
    <glyph glyph-name="FL0044h" unicode="D" horiz-adv-x="492" 
d="M-103 721h325q13 0 33.5 -2t41 -10t36.5 -24t21 -44l100 -568q3 -17 -7.5 -30.5t-27 -23t-35 -14.5t-31.5 -5h-329l-7 36q11 3 21 13.5t8 23.5l-101 575q-2 13 -16 23t-25 13zM145 671q-21 0 -30 -6t-6 -24l99 -562q2 -11 12.5 -20.5t30.5 -9.5q22 0 29.5 18.5t2.5 48.5
l-88 496q-2 9 -6.5 19.5t-11.5 19t-15 14.5t-17 6z" />
    <glyph glyph-name="FL0045h" unicode="E" horiz-adv-x="536" 
d="M196 653q-3 11 -18 20t-32 11q-13 -2 -24 -12.5t-9 -23.5l45 -258q19 0 29.5 8.5t4.5 43.5h41l27 -153h-41l-1 6q-5 31 -18 38.5t-33 7.5l47 -268q2 -13 17.5 -23.5t33.5 -15.5q12 2 24 10t9 23l-28 162q-4 21 4 37t22 26.5t31.5 16.5t32.5 8h95l7 -39q-11 -4 -21.5 -17
t-8.5 -26l41 -235h-449l-7 36q11 3 21 13.5t8 23.5l-101 575q-2 13 -16 23t-25 13l-7 37h449l42 -235q1 -5 6 -12t11.5 -13.5t14 -11.5t13.5 -6l7 -39h-95q-16 1 -35.5 7t-37.5 17t-31.5 27t-17.5 37z" />
    <glyph glyph-name="FL0046h" unicode="F" horiz-adv-x="536" 
d="M24 0l-7 36q11 5 21 15.5t8 21.5l-101 575q-2 13 -16 23t-25 13l-7 37h449l42 -235q1 -5 6 -12t11.5 -13.5t14 -11.5t13.5 -6l7 -39h-95q-16 1 -35.5 7t-37.5 17t-31.5 27t-17.5 37l-27 161q-3 11 -18 20t-32 11q-4 -2 -10 -5.5t-11.5 -8t-9 -10.5t-2.5 -12l47 -272
q9 0 17 1.5t13 6.5t6.5 15.5t-1.5 27.5h41l26 -152h-41l-1 6q-5 30 -18 38t-33 8l46 -258q4 -11 16.5 -20.5t22.5 -12.5l7 -36h-237z" />
    <glyph glyph-name="FL0047h" unicode="G" horiz-adv-x="495" 
d="M420 73q3 -17 -10 -30.5t-31 -23t-37 -14.5t-28 -5h-181q-12 0 -31.5 5t-38.5 14.5t-34 23t-18 30.5l-100 572q-5 27 4.5 42t25.5 22.5t34 9.5t31 2h190q13 0 32 -1t38 -8t34 -22t20 -43l13 -81q1 -5 6 -12t12 -13.5t14.5 -11.5t13.5 -6l7 -38h-96q-17 1 -36.5 7
t-37 16.5t-31 26.5t-17.5 37l-7 40q-2 9 -6 19.5t-10.5 19t-15 14.5t-18.5 6q-23 -5 -28 -18t-5 -31l92 -520q4 -21 15 -37t32 -16h3q14 0 24.5 16t8.5 34l-40 227q-2 13 -15.5 23t-23.5 13l-7 36h230l7 -36q-10 -3 -20.5 -13t-8.5 -23z" />
    <glyph glyph-name="FL0048h" unicode="H" horiz-adv-x="537" 
d="M31 0l-7 36q8 3 18.5 13.5t8.5 23.5l-101 575q-2 13 -16.5 23t-22.5 13l-7 37h162q8 0 16 -8t14.5 -19.5t11 -24t6.5 -21.5l40 -227h82l-41 234q-2 8 -16.5 16.5t-22.5 12.5l-7 37h231l7 -37q-9 -3 -19.5 -13t-8.5 -23l118 -671q2 -11 10.5 -18.5t20.5 -12t24.5 -7
t23.5 -4.5l3 -1l7 -38h-115q-17 0 -38 4.5t-41 14t-35 25t-19 37.5l-69 393h-86l52 -297q2 -13 15.5 -23.5t24.5 -13.5l7 -36h-231z" />
    <glyph glyph-name="FL0049h" unicode="I" horiz-adv-x="285" 
d="M24 0l-7 36q11 3 21 13.5t8 23.5l-101 575q-2 13 -16 23t-25 13l-7 37h237l7 -37q-10 -3 -20 -13t-8 -23l101 -575q2 -13 16 -23.5t24 -13.5l7 -36h-237z" />
    <glyph glyph-name="FL004Ah" unicode="J" horiz-adv-x="530" 
d="M290 99l-96 556q-1 4 -6 8.5t-11 8.5t-12 7l-10 5l-7 37h231l7 -37q-9 -3 -19.5 -13t-8.5 -23l101 -575q3 -17 -10 -30.5t-32 -23t-37.5 -14.5t-26.5 -5h-171q-9 0 -29.5 5t-42.5 14.5t-40 23t-21 30.5l-28 162q-2 13 -17.5 26t-28.5 17l-7 39h96q17 -2 36.5 -8t37 -16.5
t31 -26.5t17.5 -37l22 -130q4 -18 19 -34t30 -16h1q16 0 26 16t6 34z" />
    <glyph glyph-name="FL004Bh" unicode="K" horiz-adv-x="528" 
d="M141 684q-14 -5 -22.5 -13.5t-8.5 -22.5l41 -229h15q16 0 33 3t29 12l-34 199q-4 21 3.5 37t21 26.5t30.5 16.5t33 8h95l7 -39q-11 -3 -22 -15.5t-9 -25.5l32 -180h-1q1 -18 -9.5 -35t-18.5 -23l3 -3q4 -2 11 -8t14.5 -15.5t13.5 -21.5t8 -26l62 -352q2 -13 12.5 -21.5
t23.5 -13t26 -6.5t20 -2l7 -38h-115q-17 0 -38 4.5t-41 14t-35 25t-19 37.5l-64 362q-8 19 -31 24t-54 5l51 -295q2 -13 15.5 -23.5t23.5 -13.5l7 -36h-233l-7 36q11 3 21 13.5t8 23.5l-101 575q-5 10 -15.5 20.5t-25.5 15.5l-7 37h237z" />
    <glyph glyph-name="FL004Ch" unicode="L" horiz-adv-x="536" 
d="M-55 650q-8 13 -17.5 21.5t-23.5 12.5l-7 37h237l7 -37q-10 -3 -19.5 -12.5t-7.5 -22.5l101 -574q2 -13 17 -24.5t33 -16.5q11 2 17 4.5t13 10.5q4 7 3 18l-28 162q-4 21 4 37t22 26.5t31.5 16.5t32.5 8h95l7 -39q-11 -4 -21.5 -17t-8.5 -26l41 -235h-449l-7 36
q11 3 21 13.5t8 23.5z" />
    <glyph glyph-name="FL004Dh" unicode="M" horiz-adv-x="706" 
d="M360 648l-69 -297l-174 297q-9 19 -20.5 33t-22.5 23t-20.5 13t-13.5 4h-143l7 -37q11 -3 25 -13t16 -23l101 -575q2 -13 -8 -23.5t-21 -13.5l7 -36h232l-7 36q-9 3 -23.5 13.5t-16.5 23.5l-60 345l186 -315l76 316l60 -346q2 -13 -8.5 -23.5t-19.5 -13.5l7 -36h231
l-7 36q-10 3 -24 13.5t-16 23.5l-101 575q-2 13 8 23t20 13l-7 37h-142q-5 0 -12.5 -7t-16 -17.5t-15 -23.5t-8.5 -25z" />
    <glyph glyph-name="FL004Eh" unicode="N" horiz-adv-x="534" 
d="M364 647h-1l-1 1q-2 12 8.5 22.5t18.5 13.5l-7 36h-230l7 -36q9 -5 23 -12.5t16 -16.5l49 -281l-190 274q-5 12 -15.5 24.5t-21.5 23t-21 17.5t-13 7h-89l7 -36q10 -3 24.5 -13.5t16.5 -22.5l101 -575q2 -13 -8.5 -23.5t-20.5 -13.5l7 -36h232l-7 36q-9 3 -23 13.5
t-16 23.5l-45 254l189 -258q3 -10 12 -22t19.5 -22.5t21.5 -17.5t19 -7h51z" />
    <glyph glyph-name="FL004Fh" unicode="O" horiz-adv-x="457" 
d="M6 721q-13 0 -31 -2t-34 -9.5t-25.5 -23t-4.5 -42.5l100 -571q3 -17 18 -30.5t34 -23t38.5 -14.5t31.5 -5h191q12 0 30 5t33.5 14.5t25.5 23t7 30.5l-100 568q-5 28 -20 44t-34 24t-38 10t-32 2h-190zM111 671q10 0 18.5 -6t15 -14.5t10.5 -19t6 -19.5l88 -496
q5 -30 0.5 -48.5t-32.5 -18.5q-21 0 -32 16t-15 37l-90 510q-2 9 -1 19.5t5 19t10.5 14.5t16.5 6z" />
    <glyph glyph-name="FL0050h" unicode="P" horiz-adv-x="492" 
d="M24 0l-7 36q11 3 21 13.5t8 23.5l-101 575q-2 13 -16 23t-25 13l-7 37h316q9 0 30 -1.5t44 -8.5t42.5 -22.5t24.5 -42.5l36 -210q5 -26 -5 -41t-27.5 -22.5t-40 -10t-42.5 -2.5h-116l50 -287q2 -13 16.5 -23.5t23.5 -13.5l7 -36h-232zM143 670h-39l46 -259h38
q8 2 19.5 17t13.5 40l-26 144q-4 18 -18 38t-34 20z" />
    <glyph glyph-name="FL0051h" unicode="Q" horiz-adv-x="457" 
d="M133 0q-12 0 -31.5 5t-38.5 14.5t-34 23t-18 30.5l-100 572q-5 27 4.5 42t25.5 22.5t34 9.5t31 2h190q13 0 32 -2t38 -10t34 -24t20 -44l100 -568q2 -13 -3 -24t-14.5 -20t-22 -15t-25.5 -9l5 -28q2 -13 13 -21.5t24.5 -13t26.5 -6.5t19 -2l7 -38h-115q-17 0 -38 4.5
t-41 14t-35 25t-19 37.5l-4 23h-65zM111 671q-10 0 -16.5 -6t-10.5 -14.5t-5 -19t1 -19.5l90 -510q4 -21 15 -37t32 -16q28 0 32.5 18.5t-0.5 48.5l-88 496q-2 9 -6 19.5t-10.5 19t-15 14.5t-18.5 6z" />
    <glyph glyph-name="FL0052h" unicode="R" horiz-adv-x="491" 
d="M24 0l-7 36q11 3 21 13.5t8 23.5l-101 575q-2 13 -16 23t-25 13l-7 37h328q18 0 39 -4.5t39.5 -15t32.5 -27t18 -39.5l31 -173q2 -18 -9 -35t-20 -24l3 -3q4 -2 11 -8t14.5 -15.5t14 -21.5t8.5 -26l62 -352q2 -13 12.5 -21.5t23.5 -13t26 -6.5t21 -2l7 -38h-116
q-17 0 -38 4.5t-41 14t-35 25t-19 37.5l-64 362q-8 19 -31.5 24t-54.5 5l51 -295q2 -13 15.5 -23.5t23.5 -13.5l7 -36h-233zM106 671l45 -252q7 0 20 1t25.5 4.5t21 11t6.5 21.5l-32 183q-5 20 -24 25.5t-42 5.5h-20z" />
    <glyph glyph-name="FL0053h" unicode="S" horiz-adv-x="533" 
d="M148 671q-23 -5 -27.5 -18t-4.5 -31l31 -176q4 -19 12 -32.5t25 -18.5h108q13 0 32 -1.5t37.5 -8.5t33 -22t19.5 -42l44 -248q3 -17 -7 -30.5t-25.5 -23t-33.5 -14.5t-30 -5h-180q-9 0 -29.5 5t-42.5 14.5t-40 23t-21 30.5l-28 162q-2 13 -17.5 26t-28.5 17l-7 39h96
q17 -2 36.5 -8t37 -16.5t31 -26.5t17.5 -37l22 -130q4 -18 19 -34t30 -16h3q21 0 27 16t2 37l-34 197q-6 17 -15.5 30t-34.5 18h-95q-12 0 -31.5 4.5t-38.5 13.5t-33.5 22.5t-17.5 30.5l-40 227q-5 27 4.5 42t25.5 22.5t34 9.5t31 2h190q13 0 32 -1t38 -8t34 -22t20 -43
l24 -142q1 -6 6 -13t11.5 -13.5t14.5 -11t14 -5.5l7 -39h-96q-16 1 -35.5 7t-37.5 17t-31.5 27t-17.5 37l-18 101q-2 9 -6.5 19.5t-11 19t-15 14.5t-18.5 6z" />
    <glyph glyph-name="FL0055h" unicode="T" horiz-adv-x="523" 
d="M-103 720l16 -89h35q1 10 8 23.5t18 13.5h73l12.5 -12.5t7.5 -12.5l100 -570q2 -13 -9 -23.5t-20 -13.5l7 -36h236l-7 36q-9 3 -23 13.5t-16 23.5l-100 570q-2 15 7 25h72q6 0 12 -4t12 -9.5t10.5 -12t6.5 -11.5h34l-16 89h-476z" />
    <glyph glyph-name="FL0056h" unicode="U" horiz-adv-x="534" 
d="M389 682q-11 -4 -21 -17t-8 -26l99 -566q3 -17 -10 -30.5t-32 -23t-37.5 -14.5t-26.5 -5h-171q-9 0 -29.5 5t-42.5 14.5t-40 23t-21 30.5l-99 566q-2 13 -17.5 26t-28.5 17l-7 39h96q17 -2 36.5 -8t37 -16.5t31 -26.5t17.5 -37l93 -534q4 -18 19 -34t30 -16h1q16 0 26 16
t6 34l-93 534q-4 21 4 37t22 26.5t31.5 16.5t32.5 8h95z" />
    <glyph glyph-name="FL0057h" unicode="V" horiz-adv-x="534" 
d="M103 633l151 -556l-46 575q2 17 11 29t21.5 20.5t27 13t28.5 6.5h86l7 -39q-2 0 -7 -3t-10 -9t-9 -14t-3 -17l38 -566q3 -17 -9.5 -30.5t-31 -23t-37.5 -14.5t-28 -5h-52q-9 0 -29.5 5t-42 14.5t-39.5 23t-21 30.5l-158 566q-8 18 -24 30.5t-22 12.5l-7 39h87
q17 -2 36 -8t36 -16.5t30 -26.5t17 -37z" />
    <glyph glyph-name="FL0058h" unicode="W" horiz-adv-x="780" 
d="M443 632q-3 18 4.5 34t20.5 28t28.5 19.5t29.5 7.5h102l7 -39q-11 -4 -21.5 -17t-8.5 -26l99 -566q3 -17 -10 -30.5t-31.5 -23t-37 -14.5t-26.5 -5h-417q-9 0 -29.5 5t-42.5 14.5t-40 23t-21 30.5l-99 566q-2 13 -17.5 26t-28.5 17l-7 39h96q17 -2 36.5 -8t37 -16.5
t31 -26.5t17.5 -37l93 -534q4 -18 19 -34t30 -16h1q16 0 26 16t6 34l-90 511q-2 13 -15.5 23t-23.5 13l-7 36h232l7 -36q-11 -3 -21 -13t-8 -23l90 -511q4 -18 18.5 -34t30.5 -16h1q16 0 26 16t6 34z" />
    <glyph glyph-name="FL0059h" unicode="X" horiz-adv-x="528" 
d="M245 341l46 -257q4 -23 19 -39t35 -25.5t41 -14t38 -4.5h79l-7 39q-16 0 -29 9t-17 35l-44 247q-3 13 -9 25t-13 21t-14 15t-11 8l-3 4q8 6 18.5 23t9.5 35h1l-32 180q-2 13 9 25.5t22 15.5l-7 39h-95q-17 -1 -34 -7t-30.5 -17t-20.5 -27t-3 -37l34 -199q-5 -4 -17 -6
t-20 -4q-9 2 -23.5 3.5t-21.5 5.5l-34 199q-4 21 -17 37t-30 26.5t-36 16.5t-36 8h-96l7 -39q13 -3 28 -15.5t17 -25.5l32 -180h1q6 -18 22 -35t26 -23l-1 -3q-8 -4 -18 -23.5t-5 -47.5l44 -246q4 -26 -6.5 -34.5t-26.5 -8.5l7 -40h80q17 0 37 4t36.5 14t26 26t5.5 39
l-46 256q4 11 12 15t18 6l9 1q11 -4 25 -8t18 -12z" />
    <glyph glyph-name="FL005Ah" unicode="Y" horiz-adv-x="534" 
d="M389 682l-7 39h-95q-15 -2 -32.5 -8t-31.5 -16.5t-22 -26.5t-4 -37l33 -189q3 -17 -4 -30.5t-21 -18.5h-16q-29 11 -41 44l-33 194q-4 21 -17.5 37t-31 26.5t-37 16.5t-36.5 8h-96l7 -39q13 -4 28.5 -17t17.5 -26l39 -220q2 -15 17.5 -28.5t36.5 -23.5t42.5 -15.5
t35.5 -5.5h88q22 -6 31.5 -18t15.5 -29l34 -197q4 -21 -2 -37t-27 -16h-3q-15 0 -30 16t-19 34l-22 130q-4 21 -17.5 37t-31 26.5t-37 16.5t-36.5 8h-96l7 -39q13 -4 28.5 -17t17.5 -26l28 -162q3 -17 21 -30.5t39.5 -23t42.5 -14.5t30 -5h180q12 0 30 5t33.5 14.5t25.5 23
t7 30.5l-99 566q-2 13 8 26t21 17z" />
    <glyph glyph-name="FL005Bh" unicode="Z" horiz-adv-x="536" 
d="M398 636l-222 -533l9 -54h103q12 10 10 18l-28 162q-4 21 4 37t22 26.5t31.5 16.5t32.5 8h95l7 -39q-6 -1 -11.5 -6t-10 -11.5t-7 -13.5t-1.5 -12l41 -235h-448l-13 77l221 539l-9 56h-103l-7 -8q-4 -4 -2 -11l27 -161q4 -21 -3.5 -37t-21.5 -27t-31.5 -17t-33.5 -7h-96
l-7 39q5 1 11 5.5t10.5 11t7.5 13.5t2 13l-42 235h448z" />
    <glyph glyph-name="FL005Dh" unicode="[" horiz-adv-x="236" 
d="M16 39l-98 560q-3 19 4 33.5t20 24t29.5 15t31.5 6.5h90l6 -35q-11 -3 -21 -14t-10 -22l100 -568q5 -24 17.5 -31.5t26.5 -7.5l7 -35h-75q-16 0 -36.5 4t-40 13t-34 23t-17.5 34z" />
    <glyph glyph-name="FL005Ch" unicode="\" horiz-adv-x="501" 
d="M435 65l-433 578h-92l5 -32q10 -3 21 -12.5t18 -19.5l430 -579h94l-6 32q-10 3 -22.5 12.5t-14.5 20.5z" />
    <glyph glyph-name="FL005Eh" unicode="]" horiz-adv-x="236" 
d="M205 39l-98 560q-3 19 -15.5 33.5t-29 24t-34.5 15t-33 6.5h-91l6 -35q12 -3 25.5 -14t18.5 -22l100 -568q5 -24 -6 -31.5t-25 -7.5l7 -35h76q16 0 34.5 4t34 13t24.5 23t6 34z" />
    <glyph glyph-name="FL005Fh" unicode="^" horiz-adv-x="476" 
d="M453 0l-6 32q-10 3 -23 12.5t-15 20.5l-91 514q-2 11 8.5 20t18.5 12l-5 32h-299q-8 0 -29 -1t-43 -7t-37 -19t-11 -37l105 -599q2 -12 -5 -19.5t-18 -12t-23 -6t-19 -1.5l7 -35h110q16 0 35 4t35 13t25 23t5 34l-61 350h90l47 -265q2 -11 -9 -20.5t-19 -12.5l6 -32h221z
M116 598h44l38 -222h-85l-29 170q-3 17 4.5 34.5t27.5 17.5z" />
    <glyph glyph-name="FL0060h" unicode="_" horiz-adv-x="344" 
d="M23 0l-8 44h297l8 -44h-297z" />
    <glyph glyph-name="FL0067h" unicode="`" horiz-adv-x="200" 
d="M66 628h-98l-72 92h106z" />
    <glyph glyph-name="FL0061h" unicode="a" horiz-adv-x="487" 
d="M29 0l-6 32q8 3 18.5 12.5t8.5 20.5l-91 514q-2 11 -15 20t-23 12l-5 32h299q7 0 28.5 -1t45 -7t43.5 -19t24 -37l105 -599q2 -12 12 -19.5t22.5 -12t25 -6t19.5 -1.5l7 -35h-110q-15 0 -35.5 4t-39.5 13t-33.5 23t-18.5 34l-61 350h-90l47 -265q2 -11 15 -20.5t22 -12.5
l6 -32h-220zM156 598h-44l38 -222h85l-29 170q-3 17 -17 34.5t-33 17.5z" />
    <glyph glyph-name="FL0062h" unicode="b" horiz-adv-x="483" 
d="M23 0l-6 32q8 3 19 12.5t9 20.5l-91 514q-2 11 -15.5 20t-23.5 12l-5 32h313q18 0 37.5 -4t37 -13t30.5 -23.5t17 -35.5l28 -155q2 -16 -9 -31t-19 -21l3 -4q4 -2 11 -7t13.5 -13t12.5 -18.5t8 -23.5l41 -229q3 -15 -7 -27.5t-25 -20.5t-32 -12.5t-29 -4.5h-318zM274 103
l-35 200q-9 16 -32 20.5t-52 4.5l47 -263q1 -12 15 -21h40q17 0 19.5 16.5t-2.5 42.5zM108 599l39 -225q7 0 20 0.5t25 4t20.5 10.5t6.5 20l-28 162q-3 19 -22.5 23.5t-41.5 4.5h-19z" />
    <glyph glyph-name="FL0063h" unicode="c" horiz-adv-x="472" 
d="M113 599q-21 -5 -26.5 -16.5t-5.5 -27.5l82 -464q4 -19 14.5 -33t29.5 -14h3q14 0 24 14t7 30l-20 116q-3 19 4.5 33.5t21 24t29.5 15t31 6.5h91l7 -35q-11 -3 -21.5 -15t-8.5 -23l26 -145q3 -15 -10 -27.5t-31 -20.5t-36 -12.5t-25 -4.5h-172q-12 0 -30.5 4.5
t-36.5 12.5t-31.5 20.5t-16.5 27.5l-90 511q-4 24 5 37.5t24.5 20t33 8t29.5 1.5h181q12 0 29.5 -1t35.5 -7t32 -19.5t18 -37.5l25 -145q3 -11 17.5 -24t26.5 -15l6 -34h-91q-15 1 -33.5 6.5t-35.5 15t-29.5 23.5t-15.5 33l-19 108q-3 17 -16 35t-32 18z" />
    <glyph glyph-name="FL0064h" unicode="d" horiz-adv-x="468" 
d="M-90 643h310q12 0 31.5 -1.5t38.5 -8.5t34.5 -21.5t19.5 -39.5l90 -507q3 -15 -7 -27.5t-26 -20.5t-34 -12.5t-31 -4.5h-313l-6 32q8 3 19 12.5t9 20.5l-91 514q-2 11 -15.5 20t-23.5 12zM145 599q-19 0 -27.5 -5t-6.5 -22l89 -501q2 -10 11.5 -18.5t28.5 -8.5
q20 0 28 16.5t3 42.5l-78 443q-5 17 -17 35t-31 18z" />
    <glyph glyph-name="FL0065h" unicode="e" horiz-adv-x="510" 
d="M193 583q-2 9 -16 17.5t-31 10.5q-5 -1 -11 -4t-11 -7.5t-8 -9.5t-2 -11l41 -231q18 0 28 7.5t5 38.5h39l23 -136h-39l-1 6q-5 27 -16.5 33.5t-30.5 6.5l42 -239q2 -11 16 -20t31 -14q12 2 23.5 8.5t8.5 20.5l-25 144q-3 19 4.5 33.5t21 24t30 15t31.5 6.5h91l7 -35
q-11 -3 -21.5 -15t-8.5 -23l37 -210h-428l-6 32q8 3 19 12.5t9 20.5l-91 514q-2 11 -15.5 20t-23.5 12l-5 32h428l36 -209q3 -11 17.5 -24t25.5 -15l7 -34h-91q-15 1 -34 6.5t-36 15t-30 23.5t-16 33z" />
    <glyph glyph-name="FL0066h" unicode="f" horiz-adv-x="510" 
d="M23 0l-6 32q11 5 20.5 13.5t7.5 19.5l-91 514q-2 11 -15.5 20t-23.5 12l-5 32h428l36 -209q3 -11 17.5 -24t25.5 -15l7 -34h-91q-15 1 -34 6.5t-36 15t-30 23.5t-16 33l-24 144q-2 9 -16 17.5t-31 10.5l-10 -5t-11.5 -7t-8.5 -9t-2 -11l43 -243q9 0 16 1.5t11.5 6t6 13.5
t-1.5 25h39l25 -136h-39l-1 5q-5 27 -17 34t-31 7l40 -230q4 -10 16 -18.5t21 -11.5l6 -32h-225z" />
    <glyph glyph-name="FL00A7h" unicode="g" horiz-adv-x="472" 
d="M401 65q3 -15 -10 -27.5t-31 -20.5t-36 -12.5t-25 -4.5h-172q-12 0 -30.5 4.5t-36.5 12.5t-31.5 20.5t-16.5 27.5l-90 511q-4 24 5 37.5t24.5 20t33 8t29.5 1.5h181q12 0 29.5 -1t35.5 -7t32 -19.5t18 -37.5l13 -72q1 -6 5.5 -12t11 -12t13.5 -10t13 -5l5 -34h-91
q-15 1 -33.5 6.5t-35 15t-29 23.5t-15.5 33l-6 35q-3 17 -16 35t-32 18q-21 -5 -26.5 -16.5t-5.5 -27.5l82 -464q4 -19 14.5 -33t29.5 -14h3q14 0 23.5 14t8.5 30l-35 203q-2 11 -15.5 20t-22.5 12l-5 32h219l5 -32q-9 -3 -19 -12t-8 -20z" />
    <glyph glyph-name="h" unicode="h" horiz-adv-x="511" 
d="M29 0l-6 32q8 3 18.5 12.5t8.5 20.5l-91 514q-2 11 -15 20t-23 12l-5 32h155q8 0 15.5 -7t13.5 -17t10 -21t5 -19l35 -203h78l-36 209q-1 7 -14.5 15t-22.5 11l-5 32h219l5 -32q-8 -4 -18 -12t-8 -20l105 -599q2 -10 10.5 -17t20.5 -11.5t24.5 -7t23.5 -3.5l7 -35h-110
q-15 0 -35.5 4t-39.5 13t-33.5 23t-18.5 34l-61 350h-82l47 -265q2 -11 15 -20.5t22 -12.5l6 -32h-220z" />
    <glyph glyph-name="i" unicode="i" horiz-adv-x="272" 
d="M23 0l-6 32q8 3 19 12.5t9 20.5l-91 514q-2 11 -15.5 20t-23.5 12l-5 32h225l5 -32q-8 -4 -18 -12t-8 -20l91 -514q2 -11 15 -20.5t22 -12.5l6 -32h-225z" />
    <glyph glyph-name="FL006Ah" unicode="j" horiz-adv-x="505" 
d="M277 88l-86 497q-1 7 -14.5 15t-22.5 11l-5 32h220l5 -32q-8 -4 -18.5 -12t-8.5 -20l91 -514q3 -15 -10 -27.5t-31 -20.5t-36 -12.5t-25 -4.5h-163q-8 0 -27.5 4.5t-40 12.5t-37.5 20.5t-20 27.5l-26 145q-2 11 -16.5 23t-25.5 15l-7 35h91q16 -1 34.5 -6.5t35.5 -15
t29.5 -24t15.5 -33.5l20 -116q3 -16 18 -30t29 -14h1q14 0 23.5 14t6.5 30z" />
    <glyph glyph-name="FL006Bh" unicode="k" horiz-adv-x="503" 
d="M140 611q-14 -5 -20.5 -12t-8.5 -20l36 -205h15q14 0 31.5 2.5t29.5 10.5l-31 178q-4 19 3 33.5t20.5 24.5t30 15t30.5 5h91l6 -34q-11 -3 -21.5 -14t-8.5 -23l29 -161h-1q1 -15 -9.5 -30.5t-17.5 -20.5l2 -4q4 -1 10.5 -6.5t13 -13.5t12 -19t8.5 -23l55 -314
q2 -12 12 -19.5t22.5 -12t25 -6t19.5 -1.5l7 -35h-110q-15 0 -35.5 4t-39.5 13t-33.5 23t-18.5 34l-56 323q-8 16 -31 20.5t-52 4.5l47 -263q2 -11 14.5 -20.5t22.5 -12.5l6 -32h-222l-6 32q8 3 19 12.5t9 20.5l-91 514q-3 8 -13.5 17.5t-25.5 14.5l-5 32h225z" />
    <glyph glyph-name="FL006Ch" unicode="l" horiz-adv-x="510" 
d="M-46 580q-7 11 -15.5 19.5t-23.5 11.5l-5 32h225l5 -32q-8 -3 -17.5 -11.5t-7.5 -19.5l90 -513q2 -11 16 -21t31 -15q11 2 17 3.5t13 9.5q3 10 2 16l-25 144q-3 19 4.5 33.5t21 24t30 15t31.5 6.5h91l7 -35q-11 -3 -21.5 -15t-8.5 -23l37 -210h-428l-6 32q8 3 19 12.5
t9 20.5z" />
    <glyph glyph-name="FL006Dh" unicode="m" horiz-adv-x="672" 
d="M350 579l-68 -267l-163 267q-18 35 -41 49.5t-33 14.5h-135l5 -32q10 -3 23.5 -12t15.5 -20l91 -514q2 -11 -9 -20.5t-19 -12.5l6 -32h221l-6 32q-10 3 -22.5 12.5t-14.5 20.5l-56 311l174 -284l76 283l55 -310q2 -11 -9 -20.5t-19 -12.5l6 -32h221l-6 32
q-10 3 -22.5 12.5t-14.5 20.5l-91 514q-2 11 8 20t18 12l-5 32h-135q-4 0 -12 -6t-16.5 -15.5t-15 -21t-7.5 -21.5z" />
    <glyph glyph-name="FL006Eh" unicode="n" 
d="M352 578h-1v1q-2 12 8 20t18 12l-5 32h-219l5 -32q4 -2 10 -4.5t12 -6.5t10.5 -8t4.5 -7l44 -251l-178 245q-5 10 -14.5 21.5t-19.5 21t-19 15.5t-13 6h-85l5 -32q10 -3 23.5 -12t15.5 -20l91 -514q2 -11 -9 -20.5t-19 -12.5l6 -32h221l-6 32q-10 3 -22.5 12.5
t-14.5 20.5l-40 227l177 -230q3 -9 11 -20t18 -20t20.5 -15.5t18.5 -6.5h48z" />
    <glyph glyph-name="o" unicode="o" horiz-adv-x="436" 
d="M14 643q-12 0 -29.5 -1.5t-33 -8.5t-24.5 -20.5t-5 -37.5l90 -510q3 -15 16.5 -27.5t31.5 -20.5t36.5 -12.5t30.5 -4.5h182q12 0 29 4.5t32 12.5t24.5 20.5t6.5 27.5l-90 507q-4 25 -18.5 39.5t-32 21.5t-35.5 8.5t-30 1.5h-181zM113 599q19 0 32 -18t16 -35l78 -443
q5 -26 -0.5 -42.5t-31.5 -16.5q-19 0 -29.5 14t-14.5 33l-80 455q-3 17 4 35t26 18z" />
    <glyph glyph-name="FL0070h" unicode="p" horiz-adv-x="468" 
d="M23 0l-6 32q8 3 19 12.5t9 20.5l-91 514q-2 11 -15.5 20t-23.5 12l-5 32h301q8 0 28 -1t41.5 -7.5t40 -20t23.5 -37.5l32 -188q4 -23 -5.5 -36t-26.5 -20.5t-38.5 -9.5t-40.5 -2h-110l46 -256q2 -11 14.5 -20.5t22.5 -12.5l6 -32h-221zM143 598h-36l41 -231h36q8 2 19 15
t13 36l-23 128q-3 17 -16.5 34.5t-33.5 17.5z" />
    <glyph glyph-name="FL0071h" unicode="q" horiz-adv-x="436" 
d="M127 0q-12 0 -30.5 4.5t-36.5 12.5t-31.5 20.5t-16.5 27.5l-90 511q-4 24 5 37.5t24.5 20t33 8t29.5 1.5h181q12 0 30 -1.5t35.5 -8.5t32 -21.5t18.5 -39.5l90 -507q2 -12 -3 -21.5t-14 -17t-21 -13t-25 -9.5l4 -24q2 -12 12.5 -19.5t23 -12t25 -6t18.5 -1.5l7 -35h-109
q-17 0 -37 4t-39 13t-33 23t-18 34l-3 20h-62zM113 599q-19 0 -26 -18t-4 -35l80 -455q4 -19 14.5 -33t29.5 -14q26 0 31.5 16.5t0.5 42.5l-78 443q-3 17 -16 35t-32 18z" />
    <glyph glyph-name="FL0073h" unicode="r" horiz-adv-x="467" 
d="M23 0l-6 32q8 3 19 12.5t9 20.5l-91 514q-2 11 -15.5 20t-23.5 12l-5 32h312q18 0 37.5 -4t37 -13t30.5 -23.5t17 -35.5l28 -155q2 -16 -9 -31t-19 -21l3 -4q4 -1 10.5 -6.5t13 -13.5t12 -19t8.5 -23l55 -314q2 -12 12 -19.5t22.5 -12t25 -6t19.5 -1.5l7 -35h-110
q-15 0 -35.5 4t-39.5 13t-33.5 23t-18.5 34l-56 323q-9 16 -32 20.5t-52 4.5l47 -263q2 -11 14.5 -20.5t22.5 -12.5l6 -32h-222zM108 599l39 -225q7 0 19.5 0.5t24.5 4t20.5 10.5t6.5 20l-28 162q-3 19 -22 23.5t-41 4.5h-19z" />
    <glyph glyph-name="FL0074h" unicode="s" horiz-adv-x="508" 
d="M149 599q-21 -5 -26.5 -16.5t-5.5 -27.5l28 -156q2 -17 11 -30t24 -16h103q12 0 29.5 -1t35 -7.5t31.5 -20t19 -37.5l39 -222q3 -15 -6.5 -27.5t-24.5 -20.5t-32 -12.5t-29 -4.5h-172q-8 0 -27.5 4.5t-40 12.5t-37.5 20.5t-20 27.5l-26 145q-2 11 -16.5 23t-25.5 15
l-7 35h91q16 -1 34.5 -6.5t35.5 -15t29.5 -24t15.5 -33.5l20 -116q3 -16 18 -30t29 -14h3q19 0 25.5 14t2.5 33l-31 175q-5 16 -14 27.5t-32 16.5h-91q-13 0 -31.5 4t-36.5 12t-31.5 20t-16.5 27l-35 203q-4 24 5 37.5t24.5 20t33 8t29.5 1.5h181q12 0 29.5 -1t35.5 -7
t32 -19.5t18 -37.5l23 -127q1 -6 5.5 -12t11 -12t13.5 -10t13 -5l5 -34h-91q-15 1 -33.5 6.5t-35 15t-29 23.5t-15.5 33l-16 90q-3 17 -16 35t-32 18z" />
    <glyph glyph-name="FL0075h" unicode="t" horiz-adv-x="499" 
d="M-90 643l14 -80h33q1 9 8.5 21t18.5 12h69q6 -5 11 -11t6 -11l90 -509q2 -11 -9 -20.5t-19 -12.5l6 -32h225l-6 32q-10 3 -22.5 12.5t-14.5 20.5l-90 509q-2 11 9 22h68q11 0 22 -12t16 -21h32l-14 80h-453z" />
    <glyph glyph-name="u" unicode="u" 
d="M378 609q-11 -3 -21 -15t-8 -23l89 -506q3 -15 -10 -27.5t-31 -20.5t-36 -12.5t-25 -4.5h-163q-8 0 -27.5 4.5t-40 12.5t-37.5 20.5t-20 27.5l-89 506q-2 11 -17 23t-26 15l-6 34h91q15 0 33.5 -5t35 -15t29.5 -24.5t17 -33.5l83 -477q3 -16 18 -30t29 -14h1
q14 0 23.5 14t6.5 30l-83 477q-4 19 4 33t22.5 23.5t31 14.5t29.5 7h91z" />
    <glyph glyph-name="FL0076h" unicode="v" 
d="M105 565l138 -497l-38 514q1 15 9.5 26t21 18.5t27 11.5t27.5 5h82l6 -34q-2 0 -6.5 -3t-9.5 -8t-9 -12t-4 -15l32 -506q3 -15 -10 -27.5t-31 -20.5t-36.5 -12.5t-25.5 -4.5h-49q-8 0 -27.5 4.5t-40 12.5t-37.5 20.5t-20 27.5l-145 506q-3 7 -9.5 14t-13 12t-12.5 8.5
t-8 3.5l-6 34h82q15 0 33 -5t34.5 -15t29 -24.5t16.5 -33.5z" />
    <glyph glyph-name="FL0077h" unicode="w" horiz-adv-x="743" 
d="M428 564q-3 16 4.5 30.5t20 25t28 17t28.5 6.5h97l6 -34q-11 -3 -21 -15t-8 -23l89 -506q3 -15 -10 -27.5t-31 -20.5t-36 -12.5t-25 -4.5h-397q-8 0 -27.5 4.5t-40 12.5t-37.5 20.5t-20 27.5l-89 506q-2 11 -17 23t-26 15l-6 34h91q16 -1 34.5 -6t35 -14.5t29 -24
t16.5 -33.5l83 -477q3 -16 18 -30t29 -14h1q14 0 23.5 14t6.5 30l-79 456q-3 11 -16 20.5t-22 12.5l-6 32h221l6 -32q-9 -3 -19.5 -12.5t-7.5 -20.5l79 -456q3 -16 18 -30t29 -14h1q14 0 23.5 14t6.5 30z" />
    <glyph glyph-name="FL0078h" unicode="x" horiz-adv-x="503" 
d="M238 304l40 -229q4 -20 18.5 -34t33 -23t39 -13t35.5 -4h75l-7 35q-14 0 -26.5 7.5t-16.5 31.5l-39 220q-2 12 -7.5 23t-12.5 19t-14 13.5t-11 6.5l-1 4q7 5 17.5 20.5t9.5 30.5h1l-29 161q-2 12 8 23t21 14l-5 34h-91q-15 0 -31.5 -5t-29.5 -15t-20 -24.5t-4 -33.5
l32 -178q-5 -4 -18.5 -5.5t-19.5 -3.5q-8 2 -22 3t-19 5l-31 178q-4 19 -16 33.5t-27.5 24.5t-33.5 15t-35 5h-91l6 -34q11 -3 25.5 -14t16.5 -23l29 -161h1q2 -8 8 -15.5t13 -14.5t14 -12.5t11 -8.5l-1 -4q-8 -2 -18 -19.5t-6 -42.5l39 -220q4 -24 -7 -31.5t-25 -7.5l7 -35
h76q15 0 34 4t35 13t25.5 23t5.5 34l-40 229q4 11 13.5 14t19.5 5l6 -1q10 -2 22.5 -6t17.5 -11z" />
    <glyph glyph-name="FL0079h" unicode="y" 
d="M378 609l-6 34h-91q-14 -1 -31 -6t-31 -15t-21.5 -24t-3.5 -33l29 -169q2 -14 -4.5 -27t-18.5 -16h-15q-13 3 -23.5 14t-15.5 25l-30 173q-4 19 -16.5 33.5t-29 24t-35 14.5t-34.5 6h-91l6 -34q11 -3 26 -15t17 -23l34 -197q2 -14 17 -25.5t34.5 -20t40 -13.5t34.5 -5h84
q21 -6 29.5 -17t13.5 -27l31 -175q4 -19 -2 -33t-26 -14h-2q-14 0 -29 14t-18 30l-20 116q-3 19 -15.5 33.5t-29.5 24t-35.5 15t-34.5 6.5h-91l7 -35q11 -3 25.5 -15t16.5 -23l26 -145q3 -15 20 -27.5t37.5 -20.5t40 -12.5t27.5 -4.5h172q12 0 29 4.5t32 12.5t24.5 20.5
t6.5 27.5l-89 506q-2 11 8 23t21 15z" />
    <glyph glyph-name="FL007Ah" unicode="z" horiz-adv-x="510" 
d="M386 568l-218 -475l9 -50h98q11 9 9 17l-25 144q-3 19 4.5 33.5t21 24t30 15t31.5 6.5h91l7 -35q-6 -1 -11.5 -5.5t-10 -10t-7 -11.5t-1.5 -11l37 -210h-427l-12 69l217 482l-8 49h-98l-7 -8l-3 -3t0 -6l24 -144q3 -19 -4.5 -33t-20.5 -23.5t-29.5 -15t-31.5 -6.5h-91
l-7 34q6 1 11.5 5.5t10 10.5t6.5 12t1 11l-36 209h427z" />
    <glyph glyph-name="FL007Bh" unicode="{" horiz-adv-x="276" 
d="M-34 322l-9 53q6 2 19.5 5.5t18.5 6.5l-37 212q-3 19 4 33.5t19.5 24t29 15t31.5 6.5h91l6 -35q-11 -3 -21.5 -14t-8.5 -22l35 -198h-1q0 -15 -8 -29.5t-16 -19.5l3 -4q8 -2 21.5 -19t18.5 -41l45 -257q5 -24 18 -31.5t27 -7.5l7 -35h-76q-15 0 -35.5 4t-40 13t-34 23
t-17.5 34l-46 264q-8 11 -20.5 14t-23.5 5z" />
    <glyph glyph-name="FL007Ch" unicode="|" horiz-adv-x="207" 
d="M193 -53h-161l-130 741h161z" />
    <glyph glyph-name="FL007Dh" unicode="}" horiz-adv-x="276" 
d="M195 322l-9 53q-8 2 -22.5 5.5t-19.5 6.5l-37 212q-3 19 -15.5 33.5t-29 24t-34.5 15t-33 6.5h-91l6 -35q12 -3 26 -14t16 -22l35 -198h1q5 -15 19.5 -29.5t23.5 -19.5l-1 -4q-8 -2 -17 -19t-4 -41l45 -257q5 -24 -6 -31.5t-25 -7.5l7 -35h76q16 0 34.5 4t34 13t24.5 23
t6 34l-46 264q4 11 15 14t21 5z" />
    <glyph glyph-name="FL007Eh" unicode="~" horiz-adv-x="298" 
d="M109 377h99l-31 -92h-70l-25 40l-10 -40h-99l31 92h70l26 -40z" />
    <glyph glyph-name="FL007Fh" horiz-adv-x="246" 
 />
    <glyph glyph-name="FL20ACh" horiz-adv-x="550" 
d="M-38 348l-16 90h39q5 -30 17 -38t31 -8l-32 184q-4 24 5 37.5t24 20t32.5 8t29.5 1.5h181q12 0 30 -1t36 -7t32 -19.5t18 -37.5l25 -145q1 -5 6 -11.5t11.5 -12t13.5 -10t13 -5.5l6 -34h-91q-15 1 -33.5 6.5t-36 15t-30 23.5t-15.5 33l-19 108q-3 17 -16 35t-32 18
q-21 -5 -26.5 -16.5t-5.5 -27.5l82 -464q4 -19 14.5 -33t29.5 -14h3q14 0 24 14t7 30l-20 116q-3 19 4.5 33.5t21 24t30 15t31.5 6.5h91l7 -35q-11 -3 -21.5 -15t-8.5 -23l26 -145q3 -15 -10 -27.5t-31 -20.5t-36.5 -12.5t-25.5 -4.5h-172q-12 0 -30.5 4.5t-36 12.5
t-31 20.5t-16.5 27.5l-35 195q-19 -1 -28 -8t-4 -38h-39l-15 90h79l-8 44h-79z" />
    <glyph glyph-name="FL20ACh" unicode="&#x20ac;" horiz-adv-x="550" 
d="M-38 348l-16 90h39q5 -30 17 -38t31 -8l-32 184q-4 24 5 37.5t24 20t32.5 8t29.5 1.5h181q12 0 30 -1t36 -7t32 -19.5t18 -37.5l25 -145q1 -5 6 -11.5t11.5 -12t13.5 -10t13 -5.5l6 -34h-91q-15 1 -33.5 6.5t-36 15t-30 23.5t-15.5 33l-19 108q-3 17 -16 35t-32 18
q-21 -5 -26.5 -16.5t-5.5 -27.5l82 -464q4 -19 14.5 -33t29.5 -14h3q14 0 24 14t7 30l-20 116q-3 19 4.5 33.5t21 24t30 15t31.5 6.5h91l7 -35q-11 -3 -21.5 -15t-8.5 -23l26 -145q3 -15 -10 -27.5t-31 -20.5t-36.5 -12.5t-25.5 -4.5h-172q-12 0 -30.5 4.5t-36 12.5
t-31 20.5t-16.5 27.5l-35 195q-19 -1 -28 -8t-4 -38h-39l-15 90h79l-8 44h-79z" />
    <glyph glyph-name="FL017Dh" horiz-adv-x="510" 
d="M138 766h98l-33 -92h-135l-62 92h97l24 -40zM386 568l-218 -475l9 -50h98q11 9 9 17l-25 144q-3 19 4.5 33.5t21 24t30 15t31.5 6.5h91l7 -35q-6 -1 -11.5 -5.5t-10 -10t-7 -11.5t-1.5 -11l37 -210h-427l-12 69l217 482l-8 49h-98l-7 -8l-3 -3t0 -6l24 -144
q3 -19 -4.5 -33t-20.5 -23.5t-29.5 -15t-31.5 -6.5h-91l-7 34q6 1 11.5 5.5t10 10.5t6.5 12t1 11l-36 209h427z" />
    <glyph glyph-name="FL017Dh" unicode="&#x17d;" horiz-adv-x="510" 
d="M138 766h98l-33 -92h-135l-62 92h97l24 -40zM386 568l-218 -475l9 -50h98q11 9 9 17l-25 144q-3 19 4.5 33.5t21 24t30 15t31.5 6.5h91l7 -35q-6 -1 -11.5 -5.5t-10 -10t-7 -11.5t-1.5 -11l37 -210h-427l-12 69l217 482l-8 49h-98l-7 -8l-3 -3t0 -6l24 -144
q3 -19 -4.5 -33t-20.5 -23.5t-29.5 -15t-31.5 -6.5h-91l-7 34q6 1 11.5 5.5t10 10.5t6.5 12t1 11l-36 209h427z" />
    <glyph glyph-name="FL017Eh" horiz-adv-x="510" 
d="M138 766h98l-33 -92h-135l-62 92h97l24 -40zM386 568l-218 -475l9 -50h98q11 9 9 17l-25 144q-3 19 4.5 33.5t21 24t30 15t31.5 6.5h91l7 -35q-6 -1 -11.5 -5.5t-10 -10t-7 -11.5t-1.5 -11l37 -210h-427l-12 69l217 482l-8 49h-98l-6 -7l-3.5 -3.5t-0.5 -6.5l24 -144
q3 -19 -4.5 -33t-20.5 -23.5t-29.5 -15t-31.5 -6.5h-91l-7 34q6 1 11.5 5.5t10 10.5t6.5 12t1 11l-36 209h427z" />
    <glyph glyph-name="FL017Eh" unicode="&#x17e;" horiz-adv-x="510" 
d="M138 766h98l-33 -92h-135l-62 92h97l24 -40zM386 568l-218 -475l9 -50h98q11 9 9 17l-25 144q-3 19 4.5 33.5t21 24t30 15t31.5 6.5h91l7 -35q-6 -1 -11.5 -5.5t-10 -10t-7 -11.5t-1.5 -11l37 -210h-427l-12 69l217 482l-8 49h-98l-6 -7l-3.5 -3.5t-0.5 -6.5l24 -144
q3 -19 -4.5 -33t-20.5 -23.5t-29.5 -15t-31.5 -6.5h-91l-7 34q6 1 11.5 5.5t10 10.5t6.5 12t1 11l-36 209h427z" />
    <glyph glyph-name="space" unicode="&#xa0;" horiz-adv-x="395" 
 />
    <glyph glyph-name="FL00A1h" unicode="&#xa1;" horiz-adv-x="272" 
d="M-23 446h160l68 -381q2 -11 15 -20.5t22 -12.5l6 -32h-225l-6 32q8 3 19 12.5t9 20.5zM114 572q6 -29 -13 -50t-52 -21q-16 0 -31.5 5.5t-28.5 15.5t-22 22.5t-12 27.5q-5 30 16 50.5t53 20.5q33 0 59 -20.5t31 -50.5z" />
    <glyph glyph-name="FL00A2h" unicode="&#xa2;" horiz-adv-x="472" 
d="M300 0h-160l-18 99h-13q-12 0 -30.5 4.5t-36.5 12.5t-31.5 20.5t-16.5 27.5l-59 335q-4 24 5 37.5t24.5 20t33 8t29.5 1.5h13l-13 77h160l13 -77h8q12 0 30 -1t35.5 -7t31.5 -19.5t19 -38.5l14 -75q2 -11 16 -24t26 -15l6 -34h-91q-15 1 -33.5 6.5t-35.5 15t-29.5 23.5
t-15.5 33l-6 39q-4 16 -17 34.5t-32 18.5q-21 -5 -26.5 -16.5t-4.5 -27.5l51 -288q3 -19 14 -33t30 -14h3q14 0 24 14t7 30l-3 17q-3 19 4.5 33.5t21 24t29.5 15t31 6.5h91l7 -35q-11 -3 -21.5 -15t-8.5 -23l8 -46q3 -15 -9.5 -27.5t-30 -20.5t-35.5 -12.5t-26 -4.5z" />
    <glyph glyph-name="FL00A3h" unicode="&#xa3;" horiz-adv-x="582" 
d="M42 352q-20 0 -29.5 -7t-4.5 -34l1 -5h-39l-25 136h39q3 -16 7.5 -25t11 -13.5t14.5 -6t17 -1.5h1l-44 252q-2 13 -15.5 23t-24.5 13l-7 37h276l7 -36q-8 -2 -20 -4.5t-23 -7t-18.5 -10.5t-5.5 -15l45 -258q19 0 29.5 8.5t4.5 43.5h40l27 -153h-40l-1 6q-5 31 -18 38.5
t-33 7.5l47 -268q2 -13 17.5 -23.5t33.5 -15.5q12 2 23.5 10t8.5 23l-28 162q-4 21 3.5 37t22 26.5t32 16.5t33.5 8h95l7 -39q-11 -4 -21.5 -17t-8.5 -26l41 -235h-497l-7 36q4 1 17 5t26.5 9t23.5 11t9 12l-49 279h-1z" />
    <glyph glyph-name="FL00A4h" unicode="&#xa4;" horiz-adv-x="503" 
d="M278 75l-15 80h-79l15 -81q4 -20 -5.5 -34t-25.5 -23t-35 -13t-34 -4h-76l-7 35q14 0 25 7.5t7 31.5l-39 222q-5 24 4 41t17 19l1 4q-9 5 -23.5 19.5t-19.5 29.5h-1l-29 163q-2 12 -16.5 23t-25.5 14l-6 34h91q16 -1 34 -6t34 -14.5t28 -24t16 -33.5l4 -24h79l-5 25
q-3 19 4 33t20 24t29.5 15t31.5 6h91l5 -34q-11 -3 -21 -14t-8 -23l29 -163h-1q0 -15 -8 -29.5t-16 -19.5l1 -4q9 -2 23 -19t19 -41l39 -222q4 -24 16.5 -31.5t26.5 -7.5l7 -35h-75q-15 0 -35.5 4t-39 13t-33 23t-18.5 34zM169 479q-8 0 -10.5 -9t-1.5 -17l38 -215
q2 -8 6.5 -15t12.5 -7q15 0 11 28l-37 209q-1 8 -7 17t-12 9z" />
    <glyph glyph-name="mu" unicode="&#xa5;" horiz-adv-x="1005" 
d="M924 322l-2 -1l-7 -25h-56l44 -45l5 -8v-5q3 -16 -15 -25l-65 14l4 -70q-1 -13 -22 -13q-16 0 -28.5 4.5t-32.5 15.5l-8 2l-50 -63l-30 -6l-46 34l-110 -57l-21 7l-6 33l-156 -22l-20 11l3 28l-167 14l-3 21l16 19l-107 18q-19 0 -23 24l35 29l-75 30l-13 28l69 11
l-43 43l-4 34l75 -7q-14 83 17 83h3l74 -22q19 31 33 46t31 23l63 -34l107 53l25 -19l1 -17l3 -7l124 24l46 -5l1 -35h149l16 -13q6 -30 -20 -32l134 -32l2 -8q3 -26 -41 -32q88 -30 91 -46zM905 314l-7 11l-111 48l60 18h8l-10 11l-151 30l45 35h-170l5 41l-161 -23l-11 35
l-14 5l-106 -53l-56 36l-56 -68q-4 -4 -16 -4q-23 0 -66 25l2 -83l-81 7l8 -25l53 -52l-80 -5l117 -52l-66 -30l160 -32l-46 -32l176 -7l-12 -39l155 26l24 -23l-5 -22l118 58l65 -36l52 71l85 -24l-9 83l86 -13q0 5 0.5 6l0.5 1q-1 14 -66 70zM775 356l1 -76l-20 2l-9 79z
M784 247l-15 -16l-15 13l12 11zM735 254q-29 0 -75 51l9 -50l-20 -2l-18 103l74 -68l-8 73l20 -5zM630 255l-15 2q-16 25 -33 25q-12 0 -22 -25h-24q0 26 6.5 52t21.5 51q1 4 15 4q19 0 37 -34zM507 361l10 -102l-25 -6l-6 103zM472 249q-27 0 -78 51l9 -49l-18 -4l-19 105
l77 -66l-7 70l17 -4zM358 322q4 -73 -28 -73q-6 -1 -10 -1.5t-9 -0.5q-29 0 -43 17q-10 67 26 92h14q37 0 50 -34zM244 359l2 -25q-3 2 -4.5 2.5l-1.5 0.5h-6q-13 0 -28 -15q-12 -17 -8 -42q3 -21 26 -21q16 0 22 3l4 -17q-11 -2 -14 -4t-8 -2q-31 0 -51 47q-3 3 -3 6l-2 8
q-9 49 72 59zM151 356l10 -100l-21 -9l-8 107zM600 305l-21 34l-14 -34h35zM338 307l-3 12q-12 13 -24 13q-11 0 -16.5 -8t-9.5 -24l2 -8q3 -25 22 -25q12 0 27 9q4 8 4 14q0 3 -0.5 7.5t-1.5 9.5z" />
    <glyph glyph-name="FL00D3h" unicode="&#xa6;" horiz-adv-x="207" 
d="M184 0h-161l-113 643h161z" />
    <glyph glyph-name="FL00AAh" unicode="&#xa7;" horiz-adv-x="503" 
d="M348 341q7 -42 2.5 -76t-16.5 -58.5t-31 -38t-40 -13.5h-79l15 -81q4 -20 -5.5 -34t-25.5 -23t-35 -13t-34 -4h-76l-7 35q14 0 25 7.5t7 31.5l-39 222q-5 24 4 41t17 19l1 4q-9 50 -9.5 84.5t9.5 56t31 31t55 9.5h79l-5 25q-3 19 4 33t20 24t29.5 15t31.5 6h91l5 -34
q-11 -3 -21 -14t-8 -23l29 -163h-1q0 -15 -8 -29.5t-16 -19.5zM169 479q-8 0 -10.5 -9t-1.5 -17l38 -215q2 -8 6.5 -15t12.5 -7q15 0 11 28l-37 209q-1 8 -7 17t-12 9z" />
    <glyph glyph-name="FL00A8h" unicode="&#xa8;" horiz-adv-x="281" 
d="M-96 674q-3 19 9 32.5t33 13.5t37.5 -13.5t19.5 -32.5q5 -20 -7 -33.5t-33 -13.5t-37.5 13.5t-21.5 33.5zM138 674q5 -20 -7 -33.5t-33 -13.5t-37.5 13.5t-21.5 33.5q-3 19 9 32.5t33 13.5t37.5 -13.5t19.5 -32.5z" />
    <glyph glyph-name="FL00A9h" unicode="&#xa9;" horiz-adv-x="210" 
d="M-16 688q21 0 40 -10q27 -17 37 -32q15 -20 18 -39q4 -18 -5 -41q-4 -10 -9 -15.5t-11 -11.5l-4 -3q-17 -8 -27 -9l-10 -1q-24 0 -43 10q-14 8 -20 14l-16 16q-14 20 -18 41q-7 46 30 71q36 10 38 10zM-14 675q-40 0 -53 -34q-6 -18 -3 -34q4 -18 15 -33q7 -12 28 -26
l6 -1q34 -4 34 -7h-3q13 0 32 8q13 9 20 26t4 33l-1 3q-2 12 -9.5 23.5t-18.5 21t-23.5 15t-24.5 5.5h-3zM27 594l13 -4q-2 -30 -34 -30q-42 0 -51 47q-8 45 36 45q30 0 40 -25l-12 -2q-10 16 -27 16q-28 0 -22 -34q6 -33 33 -33q21 0 24 20z" />
    <glyph glyph-name="FL00AEh" unicode="&#xaa;" 
d="M290 78l-139 502l39 -519q-4 -30 -31 -44.5t-55 -16.5h-81l-6 34q1 0 6 3t10 8t9 12t4 16l-32 506q-3 15 10 27t31 20t36 12.5t26 4.5h49q8 0 27.5 -4.5t40 -12.5t37 -20t19.5 -27l145 -506q8 -17 23.5 -28t19.5 -11l6 -34h-82q-15 1 -33 6.5t-34.5 15t-29 23.5t-15.5 33
z" />
    <glyph glyph-name="FL00ABh" unicode="&#xab;" horiz-adv-x="263" 
d="M177 353l-17 98l-83 -48l24 -135l99 -48l-17 98l-42 18zM53 353l-17 98l-84 -48l24 -135l100 -48l-17 98l-42 18z" />
    <glyph glyph-name="FL00ACh" unicode="&#xac;" horiz-adv-x="367" 
d="M43 348h194l14 -80q3 -18 12 -29.5t41 -11.5l7 -39h-144l-7 39h5q14 0 21 3t11 8.5t5.5 13t4.5 16.5l-6 36h-150q-20 0 -30.5 -6.5t-5.5 -33.5l1 -6h-39l-23 136h39q5 -31 18 -38.5t32 -7.5z" />
    <glyph glyph-name="FL00ADh" unicode="&#xad;" horiz-adv-x="162" 
d="M-38 348h116l8 -44h-116z" />
    <glyph glyph-name="registered" unicode="&#xae;" horiz-adv-x="210" 
d="M-16 688q20 0 40 -11q12 -6 21 -13t16 -18q15 -20 18 -39q4 -18 -5 -41q-5 -20 -24 -30q-16 -8 -26.5 -9l-10.5 -1q-27 0 -43 10q-9 6 -18.5 13t-17.5 17q-13 19 -18 41q-2 13 -1 20t5 17l1 2q5 21 25 31q20 11 38 11zM-14 674q-39 0 -52 -33q-7 -21 -4 -34l3.5 -9
t11.5 -25q10 -12 28 -25l7 -2q16 -3 23 -4.5l7 -1.5q18 0 32 8q15 11 20 25q4 12 4 23v11l-2 3q-2 12 -9.5 23.5t-18 20.5t-23 14.5t-24.5 5.5h-3zM-29 562l-15 87h29q20 0 24 -4q4 -2 6.5 -3.5t3.5 -2.5q6 -7 8 -14q3 -23 -21 -24q8 -3 11.5 -7.5t11.5 -14.5l14 -17h-18
l-8 14q-8 9 -12.5 13.5l-5.5 5.5q-5 3 -12 3h-8l6 -36h-14zM-24 610h16q23 0 20 15q-2 8 -11 11q0 1 -14 1h-15z" />
    <glyph glyph-name="FL00AFh" unicode="&#xaf;" horiz-adv-x="344" 
d="M-96 676l-8 44h297l8 -44h-297z" />
    <glyph glyph-name="FL00B0h" unicode="&#xb0;" horiz-adv-x="146" 
d="M-96 674q5 -20 21.5 -33.5t37.5 -13.5t33 13.5t7 33.5q-3 19 -19.5 32.5t-37.5 13.5t-33 -13.5t-9 -32.5zM-35 674q1 -9 -9 -9q-12 0 -13 9q-2 9 10 9q10 0 12 -9z" />
    <glyph glyph-name="FL00B1h" unicode="&#xb1;" horiz-adv-x="322" 
d="M72 383q-3 20 -11.5 31t-35.5 11h-5l-7 38h136l7 -38q-31 0 -38 -11.5t-2 -30.5l7 -35h35q18 0 28 7.5t5 38.5h39l23 -136h-39l-1 6q-2 14 -6 20.5t-10 9.5t-13.5 4.5t-17.5 5.5h-35l6 -36q3 -18 12 -29.5t41 -11.5l7 -39h-136l-7 39h5q14 0 20 3t8 8.5t2.5 13t3.5 16.5
l-6 36h-36q-20 0 -30.5 -6.5t-5.5 -33.5l1 -6h-39l-23 136h39q5 -31 18 -38.5t32 -7.5h36zM88 90h116q9 0 16.5 1.5t12 6t6 13.5t-1.5 25h39l24 -136h-39l-1 5q-3 14 -7 20.5t-10 9.5t-13.5 5t-17.5 6h-116q-19 0 -29 -7t-5 -34l1 -5h-39l-24 136h39q3 -16 7.5 -25
t10.5 -13.5t14 -6t17 -1.5z" />
    <glyph glyph-name="FL00B2h" unicode="&#xb2;" horiz-adv-x="323" 
d="M40 694q14 -4 19.5 -10.5t7.5 -16.5l17 -94q2 -10 -1 -18t-11 -10h-61q-8 0 -18.5 -0.5t-19.5 -4.5t-14.5 -11.5t-2.5 -22.5l30 -172h233l-22 126q-2 8 5.5 14.5t13.5 8.5l-5 20h-54l-6 -2q-18 -5 -34 -14.5t-12 -30.5l17 -96h-25q-11 0 -18 8.5t-9 20.5l-18 105
q1 9 3 16.5t16 9.5h54q7 0 17 2.5t19 7t15 11.5t4 16l-22 122q-3 15 -11.5 23t-18.5 12t-21 5t-18 1h-108q-8 0 -18.5 -0.5t-20 -4.5t-15 -12t-2.5 -23l13 -75q2 -6 -3.5 -14t-13.5 -10l3 -20h55q10 1 20 4.5t18 9t12.5 13.5t2.5 19l-10 54q-2 11 2.5 22t15.5 11z" />
    <glyph glyph-name="FL00B3h" unicode="&#xb3;" horiz-adv-x="302" 
d="M40 694q-11 0 -15.5 -11t-2.5 -22l10 -54q2 -11 -2.5 -19t-12.5 -13.5t-18 -9t-20 -4.5h-55l-3 20q8 2 13.5 10t3.5 14l-13 75q-3 15 2.5 23t15 12t20 4.5t18.5 0.5h108q9 0 20.5 -2.5t22 -8.5t18 -14.5t9.5 -20.5l17 -94q2 -10 -4 -18.5t-11 -11.5l1 -2q6 -2 15 -11.5
t11 -25.5l25 -140q1 -9 -6 -15.5t-16 -11.5t-18.5 -7.5t-12.5 -2.5h-106q-5 0 -16.5 2.5t-23.5 7.5t-22.5 12.5t-12.5 16.5l-15 87q-2 8 -9.5 14.5t-15.5 8.5l-5 20h55q20 0 42.5 -12t27.5 -35l12 -69q2 -11 10.5 -19t17.5 -8h1q11 0 14.5 8.5t1.5 20.5l-18 105
q-4 16 -15 22q-5 -2 -8.5 -7t-1.5 -17l1 -3h-22l-14 82h22q3 -18 14 -26h6q8 5 7 17l-19 107l-1 -2q-2 10 -7.5 16.5t-19.5 10.5z" />
    <glyph glyph-name="FL00B4h" unicode="&#xb4;" horiz-adv-x="200" 
d="M-87 628h99l37 92h-105z" />
    <glyph glyph-name="FL00B5h" unicode="&#xb5;" 
d="M-84 609l-6 34h90q16 -1 34.5 -6t35 -14.5t29 -24t16.5 -33.5l29 -169q2 -14 14 -27t26 -16h15q11 3 18 14t7 25l-30 173q-4 19 3.5 33.5t21 24t30 14.5t31.5 6h91l6 -34q-11 -3 -21 -15t-8 -23l34 -197q2 -14 -8.5 -25.5t-26.5 -20t-34.5 -13.5t-31.5 -5h-85
q-18 -6 -23.5 -17t-5.5 -27l31 -175q4 -19 14.5 -33t29.5 -14h3q14 0 24 14t7 30l-20 116q-3 19 4.5 33.5t21 24t29.5 15t31 6.5h91l7 -35q-11 -3 -21.5 -15t-8.5 -23l26 -145q3 -15 -9.5 -27.5t-30.5 -20.5t-36 -12.5t-26 -4.5h-172q-12 0 -30.5 4.5t-36 12.5t-31 20.5
t-16.5 27.5l-89 506q-2 11 -17 23t-26 15z" />
    <glyph glyph-name="FL00B6h" unicode="&#xb6;" horiz-adv-x="503" 
d="M238 304l56 -323q3 -20 17.5 -34t34 -23t40 -13t35.5 -4h75l-7 35q-14 0 -26.5 8t-17.5 31l-55 316q-5 24 -19 41t-23 19l-1 4q8 5 16 19.5t8 29.5h1l-29 163q-2 12 8 23t21 14l-5 34h-91q-15 -1 -31.5 -6t-29.5 -15t-20 -24t-4 -33l32 -178q-5 -4 -18.5 -5.5t-19.5 -3.5
q-8 2 -22 3t-19 5l-31 178q-4 19 -16 33.5t-28 24t-34 14.5t-34 6h-91l6 -34q11 -3 25.5 -14t16.5 -23l29 -163h1q5 -15 19.5 -29.5t23.5 -19.5l-1 -4q-8 -2 -17 -19t-4 -41l39 -222q4 -24 -7 -31.5t-25 -7.5l7 -35h76q15 0 34 4t35 13t25.5 23t5.5 34l-40 229q4 11 13.5 14
t19.5 5h3q9 -2 23.5 -6t19.5 -12z" />
    <glyph glyph-name="FL00B7h" unicode="&#xb7;" horiz-adv-x="204" 
d="M-35 326q-5 29 14 50t52 21q16 0 31.5 -5.5t28 -15.5t20.5 -22.5t10 -27.5q6 -30 -13 -50.5t-51 -20.5q-33 0 -59.5 20.5t-32.5 50.5z" />
    <glyph glyph-name="FL00B8h" unicode="&#xb8;" horiz-adv-x="93" 
d="M24 0h44l7 -41q3 -18 12.5 -29.5t40.5 -11.5l7 -39h-144l-7 39h6q14 0 21 3t10.5 8.5t5 13t4.5 16.5z" />
    <glyph glyph-name="FL00B9h" unicode="&#xb9;" horiz-adv-x="196" 
d="M-104 720h130l61 -347q2 -7 10 -12t14 -7l3 -20h-135l-3 20q5 2 11 7t4 12l-55 316q-13 -4 -11 -17h-20z" />
    <glyph glyph-name="FL00BAh" unicode="&#xba;" horiz-adv-x="280" 
d="M-41 720h108q7 0 17.5 -1t21.5 -5t20 -12.5t12 -23.5l53 -305q2 -9 -4 -16.5t-15.5 -12.5t-20 -7.5t-16.5 -2.5h-108q-7 0 -18 2.5t-22 7.5t-19.5 12.5t-10.5 16.5l-54 306q-3 15 2.5 23t15 12t20 5t18.5 1zM25 658q-8 0 -10 -9t0 -17l38 -214q2 -9 5 -16t11 -7
q13 0 9 28l-37 209q-2 8 -6 17t-10 9z" />
    <glyph glyph-name="FL00BBh" unicode="&#xbb;" horiz-adv-x="263" 
d="M-39 353l-17 98l100 -48l24 -135l-84 -48l-17 98l37 18zM86 353l-17 98l99 -48l24 -135l-83 -48l-17 98l36 18z" />
    <glyph glyph-name="FL00BCh" unicode="&#xbc;" horiz-adv-x="964" 
d="M886 314l-8 11l-111 48l60 18h9l-11 11l-150 30l44 35h-170l6 41l-162 -23l-11 35l-14 5l-105 -53l-57 36l-56 -68q-4 -4 -15 -4q-13 0 -28.5 6.5t-38.5 18.5l2 -83l-81 7l8 -25l53 -52l-80 -5l117 -52l-66 -30l160 -32l-46 -32l176 -7l-11 -39l154 26l24 -23l-4 -22
l117 58l65 -36l52 71l85 -24l-9 83l86 -13q0 5 1 6l1 1q-1 14 -66 70zM755 356l2 -76l-20 2l-10 79zM764 247l-15 -16l-15 13l12 11zM716 254q-30 0 -76 51l9 -50l-20 -2l-18 103l74 -68l-8 73l21 -5zM610 255l-15 2q-16 25 -33 25q-12 0 -22 -25h-24q0 54 29 103q0 4 14 4
q19 0 37 -34zM487 361l11 -102l-25 -6l-7 103zM452 249q-28 0 -77 51l9 -49l-19 -4l-19 105l77 -66l-7 70l17 -4zM338 322q4 -73 -28 -73q-6 -1 -10 -1.5t-9 -0.5q-28 0 -43 17q-10 67 27 92h13q37 0 50 -34zM224 359l2 -25q-3 2 -4.5 2.5l-1.5 0.5h-6q-13 0 -28 -15
q-12 -17 -8 -42q3 -21 26 -21q16 0 22 3l4 -17q-11 -2 -14 -4t-8 -2q-31 0 -51 47q-3 3 -3 6l-2 8q-9 49 72 59zM132 356l9 -100l-21 -9l-7 107zM581 305l-22 34l-13 -34h35zM319 307q0 4 -4 12q-12 13 -24 13q-19 0 -25 -32l2 -8q3 -25 21 -25q12 0 27 9q4 9 4.5 14.5
t-1.5 16.5z" />
    <glyph glyph-name="FL00BDh" unicode="&#xbd;" horiz-adv-x="537" 
d="M318 327q-11 0 -15 -11t-2 -22l10 -54q3 -21 -15.5 -33t-36.5 -14h-55l-4 19l-83 -212h-94l-6 32q8 3 19 12.5t9 20.5l88 225h-92l-3 20q5 2 10.5 7t4.5 11l-55 317q-13 -4 -11 -17h-20l-9 48h130l61 -346l124 313h92l5 -32q-8 -3 -15 -12.5t-11 -19.5l-89 -226h113
q7 0 18 -1t21.5 -5t19 -12t11.5 -23l21 -122q1 -9 -4.5 -16t-14.5 -11.5t-19 -7t-18 -2.5h-54q-14 -3 -15.5 -10t-2.5 -16l19 -105q2 -12 8 -20.5t17 -8.5h25l-17 96q-2 10 1.5 17.5t11 12.5t16.5 8.5t18 6.5l6 2h54l4 -20q-6 -2 -13 -8.5t-6 -14.5l23 -126h-233l-30 172
q-3 15 2.5 22.5t15 11.5t20 4.5t17.5 0.5h62q8 2 10 10t0 18l-16 94q-2 10 -8 16.5t-20 10.5zM215 250l-14 -36q7 2 12.5 9.5t3.5 14.5z" />
    <glyph glyph-name="FL00BEh" unicode="&#xbe;" horiz-adv-x="701" 
d="M616 356l1 -76l-20 2l-9 79zM625 247l-15 -16l-16 13l13 11zM576 254q-29 0 -75 51l9 -50l-20 -2l-18 103l74 -68l-9 73l21 -5zM471 255l-16 2q-16 25 -32 25q-13 0 -22 -25h-25q1 54 29 103q1 4 14 4q20 0 38 -34zM347 361l11 -102l-25 -6l-6 103zM313 249q-27 0 -78 51
l9 -49l-19 -4l-19 105l78 -66l-8 70l18 -4zM199 322q3 -73 -29 -73q-6 -1 -10 -1.5t-9 -0.5q-28 0 -42 17q-10 66 26 92h14q35 0 50 -34zM85 359l2 -25l-5 2.5l-1 0.5h-7q-14 0 -27 -15q-14 -21 -9 -42q3 -21 27 -21q16 0 21 3l4 -17q-9 -2 -12.5 -4t-8.5 -2q-31 0 -51 47
q-3 3 -3 6l-2 8q-9 49 72 59zM-8 356l10 -100l-22 -9l-7 107zM441 305l-21 34l-14 -34h35zM179 307q0 4 -4 12q-10 13 -23 13q-20 0 -26 -32l2 -8q3 -25 21 -25q11 0 28 9q4 8 4 14q0 3 -0.5 7.5t-1.5 9.5z" />
    <glyph glyph-name="FL00BFh" unicode="&#xbf;" horiz-adv-x="472" 
d="M210 44q10 0 16 5.5t9.5 13.5t4.5 17t0 17l-16 90q-3 19 4.5 33.5t20.5 24t29.5 14.5t31.5 6h91l6 -34q-6 -1 -11.5 -5.5t-10 -10t-6.5 -11.5t-1 -11l23 -127q4 -25 -5.5 -38.5t-25 -19.5t-33 -7t-29.5 -1h-181q-12 0 -30 1.5t-35.5 8t-32 20t-18.5 37.5l-36 204
q-2 15 7.5 26.5t24.5 19.5t32 12t29 4h43q21 5 28 16.5t3 27.5l-12 69h159l17 -90q4 -24 -5.5 -37t-24.5 -19.5t-32.5 -7.5t-29.5 -1h-59q-14 -4 -18 -16.5t-1 -29.5l27 -157q5 -16 14.5 -27.5t32.5 -16.5zM267 572q6 -29 -14 -50t-53 -21q-32 0 -59 21t-33 50
q-5 30 16 50.5t53 20.5q33 0 59 -20.5t31 -50.5z" />
    <glyph glyph-name="FL00C0h" unicode="&#xc0;" horiz-adv-x="519" 
d="M29 0l-6 32q8 3 18.5 12.5t8.5 20.5l-91 514q-2 11 -15 20t-23 12l-5 32h299q7 0 28.5 -1t45 -7t43.5 -19t24 -37l105 -599q2 -12 12 -19.5t22.5 -12t25 -6t19.5 -1.5l7 -35h-110q-15 0 -35.5 4t-39.5 13t-33.5 23t-18.5 34l-61 350h-90l47 -265q2 -11 15 -20.5t22 -12.5
l6 -32h-220zM156 598h-44l38 -222h85l-29 170q-3 17 -17 34.5t-33 17.5zM205 674h-98l-70 92h105z" />
    <glyph glyph-name="FL00C1h" unicode="&#xc1;" horiz-adv-x="519" 
d="M29 0l-6 32q8 3 18.5 12.5t8.5 20.5l-91 514q-2 11 -15 20t-23 12l-5 32h299q7 0 28.5 -1t45 -7t43.5 -19t24 -37l105 -599q2 -12 12 -19.5t22.5 -12t25 -6t19.5 -1.5l7 -35h-110q-15 0 -35.5 4t-39.5 13t-33.5 23t-18.5 34l-61 350h-90l47 -265q2 -11 15 -20.5t22 -12.5
l6 -32h-220zM156 598h-44l38 -222h85l-29 170q-3 17 -17 34.5t-33 17.5zM163 674h-98l32 92h106z" />
    <glyph glyph-name="FL00C2h" unicode="&#xc2;" horiz-adv-x="519" 
d="M29 0l-6 32q8 3 18.5 12.5t8.5 20.5l-91 514q-2 11 -15 20t-23 12l-5 32h299q7 0 28.5 -1t45 -7t43.5 -19t24 -37l105 -599q2 -12 12 -19.5t22.5 -12t25 -6t19.5 -1.5l7 -35h-110q-15 0 -35.5 4t-39.5 13t-33.5 23t-18.5 34l-61 350h-90l47 -265q2 -11 15 -20.5t22 -12.5
l6 -32h-220zM156 598h-44l38 -222h85l-29 170q-3 17 -17 34.5t-33 17.5zM120 674h-99l33 92h135l63 -92h-97l-24 40z" />
    <glyph glyph-name="FL00C3h" unicode="&#xc3;" horiz-adv-x="519" 
d="M29 0l-6 32q8 3 18.5 12.5t8.5 20.5l-91 514q-2 11 -15 20t-23 12l-5 32h299q7 0 28.5 -1t45 -7t43.5 -19t24 -37l105 -599q2 -12 12 -19.5t22.5 -12t25 -6t19.5 -1.5l7 -35h-110q-15 0 -35.5 4t-39.5 13t-33.5 23t-18.5 34l-61 350h-90l47 -265q2 -11 15 -20.5t22 -12.5
l6 -32h-220zM156 598h-44l38 -222h85l-29 170q-3 17 -17 34.5t-33 17.5zM142 766h98l-32 -92h-70l-24 40l-12 -40h-98l33 92h70l24 -40z" />
    <glyph glyph-name="FL00C4h" unicode="&#xc4;" horiz-adv-x="519" 
d="M29 0l-6 32q8 3 18.5 12.5t8.5 20.5l-91 514q-2 11 -15 20t-23 12l-5 32h299q7 0 28.5 -1t45 -7t43.5 -19t24 -37l105 -599q2 -12 12 -19.5t22.5 -12t25 -6t19.5 -1.5l7 -35h-110q-15 0 -35.5 4t-39.5 13t-33.5 23t-18.5 34l-61 350h-90l47 -265q2 -11 15 -20.5t22 -12.5
l6 -32h-220zM156 598h-44l38 -222h85l-29 170q-3 17 -17 34.5t-33 17.5zM11 720q-3 19 9 32.5t33 13.5t37.5 -13.5t19.5 -32.5q4 -20 -8.5 -33.5t-33.5 -13.5t-37 13.5t-20 33.5zM245 720q4 -20 -8.5 -33.5t-33.5 -13.5t-37 13.5t-20 33.5q-3 19 9 32.5t33 13.5t37.5 -13.5
t19.5 -32.5z" />
    <glyph glyph-name="FL00C5h" unicode="&#xc5;" horiz-adv-x="519" 
d="M79 720q4 -20 20.5 -33.5t37.5 -13.5t33 13.5t8 33.5q-3 19 -19 32.5t-37 13.5t-33.5 -13.5t-9.5 -32.5zM112 598h44q19 0 33 -17.5t17 -34.5l29 -170h-85zM23 32l6 -32h220l-6 32q-9 3 -22 12.5t-15 20.5l-47 265h90l61 -350q4 -20 18.5 -34t33.5 -23t39.5 -13t35.5 -4
h110l-7 35q-7 0 -19.5 1.5t-25 6t-22.5 12t-12 19.5l-105 599q-4 24 -24 37t-43.5 19t-45 7t-28.5 1h-299l5 -32q10 -3 23 -12t15 -20l91 -514q2 -11 -8.5 -20.5t-18.5 -12.5zM139 720q3 -9 -8 -9q-10 0 -13 9q-2 9 10 9q9 0 11 -9z" />
    <glyph glyph-name="FL00C6h" unicode="&#xc6;" horiz-adv-x="810" 
d="M24 0l-7 36q11 3 21 13.5t8 23.5l-101 575q-2 13 -16 23t-25 13l-7 37h723l42 -235q1 -5 6 -12t11.5 -13.5t14 -11.5t13.5 -6l7 -39h-96q-16 1 -35.5 7t-37 17t-31 27t-17.5 37l-27 161q-3 11 -17.5 20t-31.5 11q-13 -2 -25 -12.5t-10 -23.5l45 -258q20 0 31 8.5t5 43.5
h40l27 -153h-40l-1 6q-5 31 -18.5 38.5t-34.5 7.5l47 -268q2 -13 18 -23.5t34 -15.5q14 2 25 10t8 23l-28 162q-4 21 3.5 37t21.5 26.5t31.5 16.5t32.5 8h96l7 -39q-11 -3 -21.5 -16.5t-8.5 -26.5l41 -235h-256l4 -23q2 -13 10 -21.5t18.5 -13t21 -6.5t17.5 -2l7 -38h-115
q-17 0 -38 4.5t-41 14t-35 25t-19 37.5l-69 393h-95l52 -297q2 -13 16.5 -23.5t23.5 -13.5l7 -36h-232zM150 670h-46l44 -249h89l-34 191q-4 18 -18 38t-35 20z" />
    <glyph glyph-name="FL00C7h" unicode="&#xc7;" horiz-adv-x="495" 
d="M111 671q-23 -5 -28 -18t-5 -31l92 -520q4 -21 15 -37t32 -16h3q15 0 25 16t6 34l-22 130q-4 21 4 37t22 26.5t31.5 16.5t32.5 8h96l7 -39q-11 -4 -21.5 -17t-8.5 -26l28 -162q3 -17 -10 -30.5t-31 -23t-37 -14.5t-28 -5h-64l7 -41q3 -18 12.5 -29.5t40.5 -11.5l7 -39
h-144l-7 39h6q14 0 21 3t10.5 8.5t5 13t4.5 16.5l-7 41h-73q-12 0 -31.5 5t-38.5 14.5t-34 23t-18 30.5l-100 572q-5 27 4.5 42t25.5 22.5t34 9.5t31 2h190q13 0 32 -1t38 -8t34 -22t20 -43l28 -162q1 -5 6 -12t11.5 -13.5t14 -11.5t13.5 -6l7 -39h-96q-16 1 -35.5 7
t-37.5 17t-31.5 26.5t-17.5 36.5l-21 122q-2 9 -6 19.5t-10.5 19t-15 14.5t-18.5 6z" />
    <glyph glyph-name="FL00C8h" unicode="&#xc8;" horiz-adv-x="510" 
d="M193 583q-2 9 -16 17.5t-31 10.5q-5 -1 -11 -4t-11 -7.5t-8 -9.5t-2 -11l41 -231q18 0 28 7.5t5 38.5h39l23 -136h-39l-1 6q-5 27 -16.5 33.5t-30.5 6.5l42 -239q2 -11 16 -20t31 -14q12 2 23.5 8.5t8.5 20.5l-25 144q-3 19 4.5 33.5t21 24t30 15t31.5 6.5h91l7 -35
q-11 -3 -21.5 -15t-8.5 -23l37 -210h-428l-6 32q8 3 19 12.5t9 20.5l-91 514q-2 11 -15.5 20t-23.5 12l-5 32h428l36 -209q3 -11 17.5 -24t25.5 -15l7 -34h-91q-15 1 -34 6.5t-36 15t-30 23.5t-16 33zM205 674h-98l-70 92h105z" />
    <glyph glyph-name="FL00C9h" unicode="&#xc9;" horiz-adv-x="510" 
d="M193 583q-2 9 -16 17.5t-31 10.5q-5 -1 -11 -4t-11 -7.5t-8 -9.5t-2 -11l41 -231q18 0 28 7.5t5 38.5h39l23 -136h-39l-1 6q-5 27 -16.5 33.5t-30.5 6.5l42 -239q2 -11 16 -20t31 -14q12 2 23.5 8.5t8.5 20.5l-25 144q-3 19 4.5 33.5t21 24t30 15t31.5 6.5h91l7 -35
q-11 -3 -21.5 -15t-8.5 -23l37 -210h-428l-6 32q8 3 19 12.5t9 20.5l-91 514q-2 11 -15.5 20t-23.5 12l-5 32h428l36 -209q3 -11 17.5 -24t25.5 -15l7 -34h-91q-15 1 -34 6.5t-36 15t-30 23.5t-16 33zM163 674h-98l32 92h106z" />
    <glyph glyph-name="FL00CAh" unicode="&#xca;" horiz-adv-x="510" 
d="M193 583q-2 9 -16 17.5t-31 10.5q-5 -1 -11 -4t-11 -7.5t-8 -9.5t-2 -11l41 -231q18 0 28 7.5t5 38.5h39l23 -136h-39l-1 6q-5 27 -16.5 33.5t-30.5 6.5l42 -239q2 -11 16 -20t31 -14q12 2 23.5 8.5t8.5 20.5l-25 144q-3 19 4.5 33.5t21 24t30 15t31.5 6.5h91l7 -35
q-11 -3 -21.5 -15t-8.5 -23l37 -210h-428l-6 32q8 3 19 12.5t9 20.5l-91 514q-2 11 -15.5 20t-23.5 12l-5 32h428l36 -209q3 -11 17.5 -24t25.5 -15l7 -34h-91q-15 1 -34 6.5t-36 15t-30 23.5t-16 33zM120 674h-99l33 92h135l63 -92h-97l-24 40z" />
    <glyph glyph-name="FL00CBh" unicode="&#xcb;" horiz-adv-x="510" 
d="M193 583q-2 9 -16 17.5t-31 10.5q-5 -1 -11 -4t-11 -7.5t-8 -9.5t-2 -11l41 -231q18 0 28 7.5t5 38.5h39l23 -136h-39l-1 6q-5 27 -16.5 33.5t-30.5 6.5l42 -239q2 -11 16 -20t31 -14q12 2 23.5 8.5t8.5 20.5l-25 144q-3 19 4.5 33.5t21 24t30 15t31.5 6.5h91l7 -35
q-11 -3 -21.5 -15t-8.5 -23l37 -210h-428l-6 32q8 3 19 12.5t9 20.5l-91 514q-2 11 -15.5 20t-23.5 12l-5 32h428l36 -209q3 -11 17.5 -24t25.5 -15l7 -34h-91q-15 1 -34 6.5t-36 15t-30 23.5t-16 33zM11 720q-3 19 9 32.5t33 13.5t37.5 -13.5t19.5 -32.5q4 -20 -8.5 -33.5
t-33.5 -13.5t-37 13.5t-20 33.5zM245 720q4 -20 -8.5 -33.5t-33.5 -13.5t-37 13.5t-20 33.5q-3 19 9 32.5t33 13.5t37.5 -13.5t19.5 -32.5z" />
    <glyph glyph-name="FL00CCh" unicode="&#xcc;" horiz-adv-x="272" 
d="M90 674h-98l-70 92h105zM242 32l6 -32h-225l-6 32q8 3 19 12.5t9 20.5l-91 514q-2 11 -15.5 20t-23.5 12l-5 32h225l5 -32q-8 -4 -18 -12t-8 -20l91 -514q2 -11 15 -20.5t22 -12.5z" />
    <glyph glyph-name="FL00CDh" unicode="&#xcd;" horiz-adv-x="272" 
d="M23 0l-6 32q8 3 19 12.5t9 20.5l-91 514q-2 11 -15.5 20t-23.5 12l-5 32h225l5 -32q-8 -4 -18 -12t-8 -20l91 -514q2 -11 15 -20.5t22 -12.5l6 -32h-225zM42 674h-98l33 92h105z" />
    <glyph glyph-name="FL00CEh" unicode="&#xce;" horiz-adv-x="272" 
d="M23 0l-6 32q8 3 19 12.5t9 20.5l-91 514q-2 11 -15.5 20t-23.5 12l-5 32h225l5 -32q-8 -4 -18 -12t-8 -20l91 -514q2 -11 15 -20.5t22 -12.5l6 -32h-225zM1 674h-98l32 92h135l63 -92h-97l-24 40z" />
    <glyph glyph-name="FL00CFh" unicode="&#xcf;" horiz-adv-x="272" 
d="M23 0l-6 32q8 3 19 12.5t9 20.5l-91 514q-2 11 -15.5 20t-23.5 12l-5 32h225l5 -32q-8 -4 -18 -12t-8 -20l91 -514q2 -11 15 -20.5t22 -12.5l6 -32h-225zM-108 720q-3 19 9.5 32.5t32.5 13.5q21 0 37.5 -13.5t19.5 -32.5q4 -20 -8.5 -33.5t-33.5 -13.5q-20 0 -36.5 13.5
t-20.5 33.5zM126 720q4 -20 -8.5 -33.5t-33.5 -13.5q-20 0 -36.5 13.5t-20.5 33.5q-3 19 9.5 32.5t32.5 13.5q21 0 37.5 -13.5t19.5 -32.5z" />
    <glyph glyph-name="FL0115h" unicode="&#xd0;" horiz-adv-x="514" 
d="M-44 643h310q12 0 31.5 -1.5t38.5 -8.5t34.5 -21.5t19.5 -39.5l90 -507q3 -15 -7 -27.5t-26 -20.5t-34 -12.5t-31 -4.5h-313l-6 32q8 3 19 12.5t9 20.5l-42 239q-19 -1 -28.5 -7.5t-5.5 -32.5l1 -6h-39l-23 136h39q5 -30 17 -38t31 -8l-41 231q-2 11 -15.5 20t-23.5 12z
M191 599q-19 0 -28 -5t-7 -22l89 -501q2 -10 12 -18.5t28 -8.5q21 0 29 16.5t3 42.5l-78 443q-5 17 -17 35t-31 18z" />
    <glyph glyph-name="FL00D1h" unicode="&#xd1;" horiz-adv-x="504" 
d="M237 766h-98l-11 -40l-24 40h-71l-32 -92h98l11 40l24 -40h70zM352 578h-1v1q-2 12 8 20t18 12l-5 32h-219l5 -32q4 -2 10 -4.5t12 -6.5t10.5 -8t4.5 -7l44 -251l-178 245q-5 10 -14.5 21.5t-19.5 21t-19 15.5t-13 6h-85l5 -32q10 -3 23.5 -12t15.5 -20l91 -514
q2 -11 -9 -20.5t-19 -12.5l6 -32h221l-6 32q-10 3 -22.5 12.5t-14.5 20.5l-40 227l177 -230q3 -9 11 -20t18 -20t20.5 -15.5t18.5 -6.5h48z" />
    <glyph glyph-name="FL00D2h" unicode="&#xd2;" horiz-adv-x="436" 
d="M113 599q-19 0 -26 -18t-4 -35l80 -455q4 -19 14.5 -33t29.5 -14q26 0 31.5 16.5t0.5 42.5l-78 443q-3 17 -16 35t-32 18zM14 643h181q12 0 30 -1.5t35.5 -8.5t32 -21.5t18.5 -39.5l90 -507q3 -15 -6.5 -27.5t-24.5 -20.5t-32 -12.5t-29 -4.5h-182q-12 0 -30.5 4.5
t-36.5 12.5t-31.5 20.5t-16.5 27.5l-90 510q-4 24 5 37.5t24.5 20.5t33 8.5t29.5 1.5zM171 674h-98l-70 92h105z" />
    <glyph glyph-name="FL00D4h" unicode="&#xd3;" horiz-adv-x="436" 
d="M113 599q-19 0 -26 -18t-4 -35l80 -455q4 -19 14.5 -33t29.5 -14q26 0 31.5 16.5t0.5 42.5l-78 443q-3 17 -16 35t-32 18zM14 643h181q12 0 30 -1.5t35.5 -8.5t32 -21.5t18.5 -39.5l90 -507q3 -15 -6.5 -27.5t-24.5 -20.5t-32 -12.5t-29 -4.5h-182q-12 0 -30.5 4.5
t-36.5 12.5t-31.5 20.5t-16.5 27.5l-90 510q-4 24 5 37.5t24.5 20.5t33 8.5t29.5 1.5zM125 674h-98l33 92h105z" />
    <glyph glyph-name="FL00D5h" unicode="&#xd4;" horiz-adv-x="436" 
d="M14 643h181q12 0 30 -1.5t35.5 -8.5t32 -21.5t18.5 -39.5l90 -507q3 -15 -6.5 -27.5t-24.5 -20.5t-32 -12.5t-29 -4.5h-182q-12 0 -30.5 4.5t-36.5 12.5t-31.5 20.5t-16.5 27.5l-90 510q-4 24 5 37.5t24.5 20.5t33 8.5t29.5 1.5zM113 599q-19 0 -26 -18t-4 -35l80 -455
q4 -19 14.5 -33t29.5 -14q26 0 31.5 16.5t0.5 42.5l-78 443q-3 17 -16 35t-32 18zM82 674h-98l32 92h135l63 -92h-97l-24 40z" />
    <glyph glyph-name="FL00D6h" unicode="&#xd5;" horiz-adv-x="436" 
d="M14 643h181q12 0 30 -1.5t35.5 -8.5t32 -21.5t18.5 -39.5l90 -507q3 -15 -6.5 -27.5t-24.5 -20.5t-32 -12.5t-29 -4.5h-182q-12 0 -30.5 4.5t-36.5 12.5t-31.5 20.5t-16.5 27.5l-90 510q-4 24 5 37.5t24.5 20.5t33 8.5t29.5 1.5zM113 599q-19 0 -26 -18t-4 -35l80 -455
q4 -19 14.5 -33t29.5 -14q26 0 31.5 16.5t0.5 42.5l-78 443q-3 17 -16 35t-32 18zM107 766h98l-32 -92h-71l-24 40l-11 -40h-98l33 92h70l24 -40z" />
    <glyph glyph-name="FL00D8h" unicode="&#xd6;" horiz-adv-x="436" 
d="M113 599q-19 0 -26 -18t-4 -35l80 -455q4 -19 14.5 -33t29.5 -14q26 0 31.5 16.5t0.5 42.5l-78 443q-3 17 -16 35t-32 18zM14 643h181q12 0 30 -1.5t35.5 -8.5t32 -21.5t18.5 -39.5l90 -507q3 -15 -6.5 -27.5t-24.5 -20.5t-32 -12.5t-29 -4.5h-182q-12 0 -30.5 4.5
t-36.5 12.5t-31.5 20.5t-16.5 27.5l-90 510q-4 24 5 37.5t24.5 20.5t33 8.5t29.5 1.5zM-26 720q-3 19 9 32.5t33 13.5t37.5 -13.5t19.5 -32.5q4 -20 -8.5 -33.5t-33.5 -13.5t-37 13.5t-20 33.5zM208 720q4 -20 -8.5 -33.5t-33.5 -13.5t-37 13.5t-20 33.5q-3 19 9 32.5
t33 13.5t37.5 -13.5t19.5 -32.5z" />
    <glyph glyph-name="FL00D7h" unicode="&#xd7;" horiz-adv-x="338" 
d="M126 382q6 7 10.5 13.5t2.5 14.5q-2 14 -23 30l-3 4l22 27l113 -97l-22 -27q-13 11 -21 15.5t-16 4.5t-13 -4t-13 -12l-21 -25l30 -25q10 -8 16.5 -12.5t14.5 -4.5q14 0 31 20l31 -27l-79 -96l-32 27l3 3q12 15 9 26q-1 8 -6.5 15t-13.5 18l-29 24l-22 -25
q-7 -8 -9.5 -14t-0.5 -14q2 -15 25 -34l-22 -27l-114 96l23 27l4 -3q17 -14 28 -14q8 0 14 5t17 10l20 25l-29 25q-9 8 -16 12.5t-15 4.5q-13 0 -28 -16l-3 -4l-32 27l80 97l32 -27q-17 -20 -14 -35q2 -8 6.5 -14t13.5 -14l31 -25z" />
    <glyph glyph-name="FL00DFh" unicode="&#xd8;" horiz-adv-x="436" 
d="M196 643h-181q-12 0 -29.5 -1.5t-33 -8.5t-25 -21.5t-5.5 -39.5l90 -507q3 -15 16.5 -27.5t31.5 -20.5t36.5 -12.5t30.5 -4.5h182q12 0 29 4.5t32 12.5t24.5 20.5t6.5 27.5l-90 510q-4 24 -18 37.5t-31.5 20.5t-35.5 8.5t-30 1.5zM213 44q-27 0 -37 16.5t-15 42.5
l-44 248l114 -205l10 -55q4 -19 -2.5 -33t-25.5 -14zM113 599q19 0 32 -18t16 -35l41 -231l-115 207l-4 24q-3 17 4 35t26 18z" />
    <glyph glyph-name="FL00D9h" unicode="&#xd9;" 
d="M378 609q-11 -3 -21 -15t-8 -23l89 -506q3 -15 -10 -27.5t-31 -20.5t-36 -12.5t-25 -4.5h-163q-8 0 -27.5 4.5t-40 12.5t-37.5 20.5t-20 27.5l-89 506q-2 11 -17 23t-26 15l-6 34h91q16 -1 34.5 -6t35 -14.5t29 -24t16.5 -33.5l83 -477q3 -16 18 -30t29 -14h1
q14 0 23.5 14t6.5 30l-83 477q-4 19 3.5 33t21.5 24t31 15t31 6h91zM205 674h-98l-70 92h105z" />
    <glyph glyph-name="FL00DAh" unicode="&#xda;" 
d="M378 609q-11 -3 -21 -15t-8 -23l89 -506q3 -15 -10 -27.5t-31 -20.5t-36 -12.5t-25 -4.5h-163q-8 0 -27.5 4.5t-40 12.5t-37.5 20.5t-20 27.5l-89 506q-2 11 -17 23t-26 15l-6 34h91q16 -1 34.5 -6t35 -14.5t29 -24t16.5 -33.5l83 -477q3 -16 18 -30t29 -14h1
q14 0 23.5 14t6.5 30l-83 477q-4 19 3.5 33t21.5 24t31 15t31 6h91zM163 674h-98l32 92h106z" />
    <glyph glyph-name="FL00DBh" unicode="&#xdb;" 
d="M378 609q-11 -3 -21 -15t-8 -23l89 -506q3 -15 -10 -27.5t-31 -20.5t-36 -12.5t-25 -4.5h-163q-8 0 -27.5 4.5t-40 12.5t-37.5 20.5t-20 27.5l-89 506q-2 11 -17 23t-26 15l-6 34h91q16 -1 34.5 -6t35 -14.5t29 -24t16.5 -33.5l83 -477q3 -16 18 -30t29 -14h1
q14 0 23.5 14t6.5 30l-83 477q-4 19 3.5 33t21.5 24t31 15t31 6h91zM120 674h-99l33 92h135l63 -92h-97l-24 40z" />
    <glyph glyph-name="FL00DCh" unicode="&#xdc;" 
d="M378 609q-11 -3 -21 -15t-8 -23l89 -506q3 -15 -10 -27.5t-31 -20.5t-36 -12.5t-25 -4.5h-163q-8 0 -27.5 4.5t-40 12.5t-37.5 20.5t-20 27.5l-89 506q-2 11 -17 23t-26 15l-6 34h91q16 -1 34.5 -6t35 -14.5t29 -24t16.5 -33.5l83 -477q3 -16 18 -30t29 -14h1
q14 0 23.5 14t6.5 30l-83 477q-4 19 3.5 33t21.5 24t31 15t31 6h91zM11 720q-3 19 9 32.5t33 13.5t37.5 -13.5t19.5 -32.5q4 -20 -8.5 -33.5t-33.5 -13.5t-37 13.5t-20 33.5zM245 720q4 -20 -8.5 -33.5t-33.5 -13.5t-37 13.5t-20 33.5q-3 19 9 32.5t33 13.5t37.5 -13.5
t19.5 -32.5z" />
    <glyph glyph-name="FL00DDh" unicode="&#xdd;" 
d="M372 643l6 -34q-11 -3 -21 -15t-8 -23l89 -506q3 -15 -6.5 -27.5t-24.5 -20.5t-32 -12.5t-29 -4.5h-172q-8 0 -27.5 4.5t-40 12.5t-37.5 20.5t-20 27.5l-26 145q-2 11 -16.5 23t-25.5 15l-7 35h91q16 -1 34.5 -6.5t35.5 -15t29.5 -24t15.5 -33.5l20 -116q3 -16 18 -30
t29 -14h2q20 0 26 14t2 33l-31 175q-5 16 -13.5 27t-29.5 17h-84q-14 0 -34.5 5t-40 13.5t-34.5 20t-17 25.5l-34 197q-2 11 -17 23t-26 15l-6 34h91q16 -1 34.5 -6t35 -14.5t29 -24t16.5 -33.5l30 -173q5 -14 15.5 -25t23.5 -14h15q12 3 18.5 16t4.5 27l-29 169
q-4 19 3.5 33t21.5 24t31 15t31 6h91zM163 674h-98l32 92h106z" />
    <glyph glyph-name="FL00DEh" unicode="&#xde;" horiz-adv-x="492" 
d="M24 0l-7 36q11 3 21 13.5t8 23.5l-101 575q-2 13 -16 23t-25 13l-7 37h232l7 -37q-9 -3 -19.5 -13t-8.5 -23l19 -104h118q9 0 30 -1.5t44 -8.5t42 -22t24 -42l36 -211q5 -25 -5 -40t-28 -22.5t-40 -10t-42 -2.5h-116l19 -111q2 -13 16.5 -23.5t23.5 -13.5l7 -36h-232z
M174 494h-39l46 -259h38q8 2 20 16.5t13 40.5l-26 144q-4 18 -18 38t-34 20z" />
    <glyph glyph-name="FL00E7h" unicode="&#xdf;" horiz-adv-x="438" 
d="M115 599q-10 0 -16.5 -5t-10.5 -13t-4.5 -17.5t1.5 -17.5l104 -591q3 -19 -4.5 -33t-21 -24t-30.5 -15t-32 -6h-91l-5 34q6 1 11.5 5.5t10 10.5t6.5 12t1 11l-111 628q-4 24 5.5 37.5t25.5 19.5t33.5 7t29.5 1h181q14 0 33 -4.5t36.5 -13.5t30.5 -23.5t16 -34.5l28 -157
q2 -16 -7 -30t-17 -20l3 -4q7 -3 21.5 -19t19.5 -41l41 -235q3 -14 -8.5 -25t-27.5 -19t-31.5 -12.5t-20.5 -4.5h-95l-8 44h2q20 0 26 14t2 33l-31 175q-5 11 -8.5 19.5t-16.5 16.5h-20l-9 51h26q15 6 10 26l-31 179l-2 -3q-5 16 -14 27.5t-31 16.5z" />
    <glyph glyph-name="FL00E0h" unicode="&#xe0;" horiz-adv-x="519" 
d="M29 0l-6 32q8 3 18.5 12.5t8.5 20.5l-91 514q-2 11 -15 20t-23 12l-5 32h299q7 0 28.5 -1t45 -7t43.5 -19t24 -37l105 -599q2 -12 12 -19.5t22.5 -12t25 -6t19.5 -1.5l7 -35h-110q-15 0 -35.5 4t-39.5 13t-33.5 23t-18.5 34l-61 350h-90l47 -265q2 -11 15 -20.5t22 -12.5
l6 -32h-220zM156 598h-44l38 -222h85l-29 170q-3 17 -17 34.5t-33 17.5zM205 674h-98l-70 92h105z" />
    <glyph glyph-name="FL00E1h" unicode="&#xe1;" horiz-adv-x="519" 
d="M29 0l-6 32q8 3 18.5 12.5t8.5 20.5l-91 514q-2 11 -15 20t-23 12l-5 32h299q7 0 28.5 -1t45 -7t43.5 -19t24 -37l105 -599q2 -12 12 -19.5t22.5 -12t25 -6t19.5 -1.5l7 -35h-110q-15 0 -35.5 4t-39.5 13t-33.5 23t-18.5 34l-61 350h-90l47 -265q2 -11 15 -20.5t22 -12.5
l6 -32h-220zM156 598h-44l38 -222h85l-29 170q-3 17 -17 34.5t-33 17.5zM163 674h-98l32 92h106z" />
    <glyph glyph-name="FL00E2h" unicode="&#xe2;" horiz-adv-x="519" 
d="M29 0l-6 32q8 3 18.5 12.5t8.5 20.5l-91 514q-2 11 -15 20t-23 12l-5 32h299q7 0 28.5 -1t45 -7t43.5 -19t24 -37l105 -599q2 -12 12 -19.5t22.5 -12t25 -6t19.5 -1.5l7 -35h-110q-15 0 -35.5 4t-39.5 13t-33.5 23t-18.5 34l-61 350h-90l47 -265q2 -11 15 -20.5t22 -12.5
l6 -32h-220zM156 598h-44l38 -222h85l-29 170q-3 17 -17 34.5t-33 17.5zM120 674h-99l33 92h135l63 -92h-97l-24 40z" />
    <glyph glyph-name="FL00E3h" unicode="&#xe3;" horiz-adv-x="519" 
d="M29 0l-6 32q8 3 18.5 12.5t8.5 20.5l-91 514q-2 11 -15 20t-23 12l-5 32h299q7 0 28.5 -1t45 -7t43.5 -19t24 -37l105 -599q2 -12 12 -19.5t22.5 -12t25 -6t19.5 -1.5l7 -35h-110q-15 0 -35.5 4t-39.5 13t-33.5 23t-18.5 34l-61 350h-90l47 -265q2 -11 15 -20.5t22 -12.5
l6 -32h-220zM156 598h-44l38 -222h85l-29 170q-3 17 -17 34.5t-33 17.5zM142 766h98l-32 -92h-70l-24 40l-12 -40h-98l33 92h70l24 -40z" />
    <glyph glyph-name="FL00E4h" unicode="&#xe4;" horiz-adv-x="519" 
d="M29 0l-6 32q8 3 18.5 12.5t8.5 20.5l-91 514q-2 11 -15 20t-23 12l-5 32h299q7 0 28.5 -1t45 -7t43.5 -19t24 -37l105 -599q2 -12 12 -19.5t22.5 -12t25 -6t19.5 -1.5l7 -35h-110q-15 0 -35.5 4t-39.5 13t-33.5 23t-18.5 34l-61 350h-90l47 -265q2 -11 15 -20.5t22 -12.5
l6 -32h-220zM156 598h-44l38 -222h85l-29 170q-3 17 -17 34.5t-33 17.5zM11 720q-3 19 9 32.5t33 13.5t37.5 -13.5t19.5 -32.5q4 -20 -8.5 -33.5t-33.5 -13.5t-37 13.5t-20 33.5zM245 720q4 -20 -8.5 -33.5t-33.5 -13.5t-37 13.5t-20 33.5q-3 19 9 32.5t33 13.5t37.5 -13.5
t19.5 -32.5z" />
    <glyph glyph-name="FL00E5h" unicode="&#xe5;" horiz-adv-x="519" 
d="M79 720q4 -20 20.5 -33.5t37.5 -13.5t33 13.5t8 33.5q-3 19 -19 32.5t-37 13.5t-33.5 -13.5t-9.5 -32.5zM112 598h44q19 0 33 -17.5t17 -34.5l29 -170h-85zM23 32l6 -32h220l-6 32q-9 3 -22 12.5t-15 20.5l-47 265h90l61 -350q4 -20 18.5 -34t33.5 -23t39.5 -13t35.5 -4
h110l-7 35q-7 0 -19.5 1.5t-25 6t-22.5 12t-12 19.5l-105 599q-4 24 -24 37t-43.5 19t-45 7t-28.5 1h-299l5 -32q10 -3 23 -12t15 -20l91 -514q2 -11 -8.5 -20.5t-18.5 -12.5zM139 720q3 -9 -8 -9q-10 0 -13 9q-2 9 10 9q9 0 11 -9z" />
    <glyph glyph-name="FL00E6h" unicode="&#xe6;" horiz-adv-x="771" 
d="M23 0l-6 32q8 3 19 12.5t9 20.5l-91 514q-2 11 -15.5 20t-23.5 12l-5 32h689l36 -209q3 -11 17.5 -24t25.5 -15l7 -34h-91q-15 1 -34 6.5t-36 15t-30 23.5t-16 33l-24 144q-2 9 -16 17.5t-31 10.5q-5 -1 -11 -4t-11 -7.5t-8 -9.5t-2 -11l41 -231q18 0 28 7.5t5 38.5h39
l23 -136h-39l-1 6q-5 27 -16.5 33.5t-30.5 6.5l42 -239q2 -11 16 -20t31 -14q12 2 23.5 8.5t8.5 20.5l-25 144q-3 19 4.5 33.5t21 24t30 15t31.5 6.5h91l7 -35q-11 -3 -21.5 -15t-8.5 -23l37 -210h-244l3 -20q2 -12 9.5 -19.5t17.5 -12t20 -6t17 -1.5l7 -35h-110
q-15 0 -35.5 4t-39.5 13t-33.5 23t-18.5 34l-61 350h-90l47 -265q2 -11 14.5 -20.5t22.5 -12.5l6 -32h-221zM151 598h-44l38 -222h84l-29 170q-3 17 -16.5 34.5t-32.5 17.5z" />
    <glyph glyph-name="FL00ECh" unicode="&#xe7;" horiz-adv-x="472" 
d="M113 599q-21 -5 -26.5 -16.5t-5.5 -27.5l82 -464q4 -19 14.5 -33t29.5 -14h3q14 0 24 14t7 30l-20 116q-3 19 4.5 33.5t21 24t29.5 15t31 6.5h91l7 -35q-11 -3 -21.5 -15t-8.5 -23l26 -145q3 -15 -10 -27.5t-31 -20.5t-36 -12.5t-25 -4.5h-63l7 -41q3 -18 12 -29.5
t41 -11.5l7 -39h-144l-7 39h5q14 0 21 3t11 8.5t5.5 13t4.5 16.5l-7 41h-65q-12 0 -30.5 4.5t-36.5 12.5t-31.5 20.5t-16.5 27.5l-90 511q-4 24 5 37.5t24.5 20t33 8t29.5 1.5h181q12 0 29.5 -1t35.5 -7t32 -19.5t18 -37.5l25 -145q3 -11 17.5 -24t26.5 -15l6 -34h-91
q-15 1 -33.5 6.5t-35.5 15t-29.5 23.5t-15.5 33l-19 108q-3 17 -16 35t-32 18z" />
    <glyph glyph-name="FL00E8h" unicode="&#xe8;" horiz-adv-x="510" 
d="M193 583q-2 9 -16 17.5t-31 10.5q-5 -1 -11 -4t-11 -7.5t-8 -9.5t-2 -11l41 -231q18 0 28 7.5t5 38.5h39l23 -136h-39l-1 6q-5 27 -16.5 33.5t-30.5 6.5l42 -239q2 -11 16 -20t31 -14q12 2 23.5 8.5t8.5 20.5l-25 144q-3 19 4.5 33.5t21 24t30 15t31.5 6.5h91l7 -35
q-11 -3 -21.5 -15t-8.5 -23l37 -210h-428l-6 32q8 3 19 12.5t9 20.5l-91 514q-2 11 -15.5 20t-23.5 12l-5 32h428l36 -209q3 -11 17.5 -24t25.5 -15l7 -34h-91q-15 1 -34 6.5t-36 15t-30 23.5t-16 33zM205 674h-98l-70 92h105z" />
    <glyph glyph-name="FL00E9h" unicode="&#xe9;" horiz-adv-x="510" 
d="M193 583q-2 9 -16 17.5t-31 10.5q-5 -1 -11 -4t-11 -7.5t-8 -9.5t-2 -11l41 -231q18 0 28 7.5t5 38.5h39l23 -136h-39l-1 6q-5 27 -16.5 33.5t-30.5 6.5l42 -239q2 -11 16 -20t31 -14q12 2 23.5 8.5t8.5 20.5l-25 144q-3 19 4.5 33.5t21 24t30 15t31.5 6.5h91l7 -35
q-11 -3 -21.5 -15t-8.5 -23l37 -210h-428l-6 32q8 3 19 12.5t9 20.5l-91 514q-2 11 -15.5 20t-23.5 12l-5 32h428l36 -209q3 -11 17.5 -24t25.5 -15l7 -34h-91q-15 1 -34 6.5t-36 15t-30 23.5t-16 33zM163 674h-98l32 92h106z" />
    <glyph glyph-name="FL00EAh" unicode="&#xea;" horiz-adv-x="510" 
d="M193 583q-2 9 -16 17.5t-31 10.5q-5 -1 -11 -4t-11 -7.5t-8 -9.5t-2 -11l41 -231q18 0 28 7.5t5 38.5h39l23 -136h-39l-1 6q-5 27 -16.5 33.5t-30.5 6.5l42 -239q2 -11 16 -20t31 -14q12 2 23.5 8.5t8.5 20.5l-25 144q-3 19 4.5 33.5t21 24t30 15t31.5 6.5h91l7 -35
q-11 -3 -21.5 -15t-8.5 -23l37 -210h-428l-6 32q8 3 19 12.5t9 20.5l-91 514q-2 11 -15.5 20t-23.5 12l-5 32h428l36 -209q3 -11 17.5 -24t25.5 -15l7 -34h-91q-15 1 -34 6.5t-36 15t-30 23.5t-16 33zM120 674h-99l33 92h135l63 -92h-97l-24 40z" />
    <glyph glyph-name="FL00EBh" unicode="&#xeb;" horiz-adv-x="510" 
d="M193 583q-2 9 -16 17.5t-31 10.5q-5 -1 -11 -4t-11 -7.5t-8 -9.5t-2 -11l41 -231q18 0 28 7.5t5 38.5h39l23 -136h-39l-1 6q-5 27 -16.5 33.5t-30.5 6.5l42 -239q2 -11 16 -20t31 -14q12 2 23.5 8.5t8.5 20.5l-25 144q-3 19 4.5 33.5t21 24t30 15t31.5 6.5h91l7 -35
q-11 -3 -21.5 -15t-8.5 -23l37 -210h-428l-6 32q8 3 19 12.5t9 20.5l-91 514q-2 11 -15.5 20t-23.5 12l-5 32h428l36 -209q3 -11 17.5 -24t25.5 -15l7 -34h-91q-15 1 -34 6.5t-36 15t-30 23.5t-16 33zM11 720q-3 19 9 32.5t33 13.5t37.5 -13.5t19.5 -32.5q4 -20 -8.5 -33.5
t-33.5 -13.5t-37 13.5t-20 33.5zM245 720q4 -20 -8.5 -33.5t-33.5 -13.5t-37 13.5t-20 33.5q-3 19 9 32.5t33 13.5t37.5 -13.5t19.5 -32.5z" />
    <glyph glyph-name="FL00F7h" unicode="&#xec;" horiz-adv-x="272" 
d="M90 674h-98l-70 92h105zM242 32l6 -32h-225l-6 32q8 3 19 12.5t9 20.5l-91 514q-2 11 -15.5 20t-23.5 12l-5 32h225l5 -32q-8 -4 -18 -12t-8 -20l91 -514q2 -11 15 -20.5t22 -12.5z" />
    <glyph glyph-name="FL00EDh" unicode="&#xed;" horiz-adv-x="272" 
d="M23 0l-6 32q8 3 19 12.5t9 20.5l-91 514q-2 11 -15.5 20t-23.5 12l-5 32h225l5 -32q-8 -4 -18 -12t-8 -20l91 -514q2 -11 15 -20.5t22 -12.5l6 -32h-225zM42 674h-98l33 92h105z" />
    <glyph glyph-name="FL00EEh" unicode="&#xee;" horiz-adv-x="272" 
d="M23 0l-6 32q8 3 19 12.5t9 20.5l-91 514q-2 11 -15.5 20t-23.5 12l-5 32h225l5 -32q-8 -4 -18 -12t-8 -20l91 -514q2 -11 15 -20.5t22 -12.5l6 -32h-225zM1 674h-98l32 92h135l63 -92h-97l-24 40z" />
    <glyph glyph-name="FL00EFh" unicode="&#xef;" horiz-adv-x="272" 
d="M23 0l-6 32q8 3 19 12.5t9 20.5l-91 514q-2 11 -15.5 20t-23.5 12l-5 32h225l5 -32q-8 -4 -18 -12t-8 -20l91 -514q2 -11 15 -20.5t22 -12.5l6 -32h-225zM-108 720q-3 19 9.5 32.5t32.5 13.5q21 0 37.5 -13.5t19.5 -32.5q4 -20 -8.5 -33.5t-33.5 -13.5q-20 0 -36.5 13.5
t-20.5 33.5zM126 720q4 -20 -8.5 -33.5t-33.5 -13.5q-20 0 -36.5 13.5t-20.5 33.5q-3 19 9.5 32.5t32.5 13.5q21 0 37.5 -13.5t19.5 -32.5z" />
    <glyph glyph-name="FL00F0h" unicode="&#xf0;" horiz-adv-x="472" 
d="M48 65q3 -15 20 -27.5t37.5 -20.5t40 -12.5t27.5 -4.5h172q12 0 29 4.5t32 12.5t24.5 20.5t6.5 27.5l-90 511q-4 24 -18 37.5t-31.5 20t-35.5 8t-30 1.5h-181q-12 0 -29.5 -1t-33.5 -7t-25.5 -19.5t-5.5 -37.5l13 -72q1 -5 -1 -11t-6.5 -12t-10 -10.5t-11.5 -5.5l5 -34
h91q15 1 32 6.5t30.5 15t21 23.5t4.5 33l-6 35q-3 17 4 35t26 18q23 -5 32 -16.5t14 -27.5l22 -125q-3 -23 -29 -37h-147q-22 -11 -32 -32t-8 -33zM155 328q10 28 37 28q11 0 23 -6t20 -19l42 -240q4 -19 -2.5 -33t-25.5 -14h-3q-14 0 -29 14t-20 30z" />
    <glyph glyph-name="FL00F1h" unicode="&#xf1;" horiz-adv-x="504" 
d="M237 766h-98l-11 -40l-24 40h-71l-32 -92h98l11 40l24 -40h70zM352 578h-1v1q-2 12 8 20t18 12l-5 32h-219l5 -32q4 -2 10 -4.5t12 -6.5t10.5 -8t4.5 -7l44 -251l-178 245q-5 10 -14.5 21.5t-19.5 21t-19 15.5t-13 6h-85l5 -32q10 -3 23.5 -12t15.5 -20l91 -514
q2 -11 -9 -20.5t-19 -12.5l6 -32h221l-6 32q-10 3 -22.5 12.5t-14.5 20.5l-40 227l177 -230q3 -9 11 -20t18 -20t20.5 -15.5t18.5 -6.5h48z" />
    <glyph glyph-name="FL00F2h" unicode="&#xf2;" horiz-adv-x="436" 
d="M113 599q-19 0 -26 -18t-4 -35l80 -455q4 -19 14.5 -33t29.5 -14q26 0 31.5 16.5t0.5 42.5l-78 443q-3 17 -16 35t-32 18zM14 643h181q12 0 30 -1.5t35.5 -8.5t32 -21.5t18.5 -39.5l90 -507q3 -15 -6.5 -27.5t-24.5 -20.5t-32 -12.5t-29 -4.5h-182q-12 0 -30.5 4.5
t-36.5 12.5t-31.5 20.5t-16.5 27.5l-90 510q-4 24 5 37.5t24.5 20.5t33 8.5t29.5 1.5zM171 674h-98l-70 92h105z" />
    <glyph glyph-name="FL00F3h" unicode="&#xf3;" horiz-adv-x="436" 
d="M113 599q-19 0 -26 -18t-4 -35l80 -455q4 -19 14.5 -33t29.5 -14q26 0 31.5 16.5t0.5 42.5l-78 443q-3 17 -16 35t-32 18zM14 643h181q12 0 30 -1.5t35.5 -8.5t32 -21.5t18.5 -39.5l90 -507q3 -15 -6.5 -27.5t-24.5 -20.5t-32 -12.5t-29 -4.5h-182q-12 0 -30.5 4.5
t-36.5 12.5t-31.5 20.5t-16.5 27.5l-90 510q-4 24 5 37.5t24.5 20.5t33 8.5t29.5 1.5zM125 674h-98l33 92h105z" />
    <glyph glyph-name="FL00F4h" unicode="&#xf4;" horiz-adv-x="436" 
d="M14 643h181q12 0 30 -1.5t35.5 -8.5t32 -21.5t18.5 -39.5l90 -507q3 -15 -6.5 -27.5t-24.5 -20.5t-32 -12.5t-29 -4.5h-182q-12 0 -30.5 4.5t-36.5 12.5t-31.5 20.5t-16.5 27.5l-90 510q-4 24 5 37.5t24.5 20.5t33 8.5t29.5 1.5zM113 599q-19 0 -26 -18t-4 -35l80 -455
q4 -19 14.5 -33t29.5 -14q26 0 31.5 16.5t0.5 42.5l-78 443q-3 17 -16 35t-32 18zM82 674h-98l32 92h135l63 -92h-97l-24 40z" />
    <glyph glyph-name="FL00F5h" unicode="&#xf5;" horiz-adv-x="436" 
d="M14 643h181q12 0 30 -1.5t35.5 -8.5t32 -21.5t18.5 -39.5l90 -507q3 -15 -6.5 -27.5t-24.5 -20.5t-32 -12.5t-29 -4.5h-182q-12 0 -30.5 4.5t-36.5 12.5t-31.5 20.5t-16.5 27.5l-90 510q-4 24 5 37.5t24.5 20.5t33 8.5t29.5 1.5zM113 599q-19 0 -26 -18t-4 -35l80 -455
q4 -19 14.5 -33t29.5 -14q26 0 31.5 16.5t0.5 42.5l-78 443q-3 17 -16 35t-32 18zM107 766h98l-32 -92h-71l-24 40l-11 -40h-98l33 92h70l24 -40z" />
    <glyph glyph-name="FL00F6h" unicode="&#xf6;" horiz-adv-x="436" 
d="M113 599q-19 0 -26 -18t-4 -35l80 -455q4 -19 14.5 -33t29.5 -14q26 0 31.5 16.5t0.5 42.5l-78 443q-3 17 -16 35t-32 18zM14 643h181q12 0 30 -1.5t35.5 -8.5t32 -21.5t18.5 -39.5l90 -507q3 -15 -6.5 -27.5t-24.5 -20.5t-32 -12.5t-29 -4.5h-182q-12 0 -30.5 4.5
t-36.5 12.5t-31.5 20.5t-16.5 27.5l-90 510q-4 24 5 37.5t24.5 20.5t33 8.5t29.5 1.5zM-26 720q-3 19 9 32.5t33 13.5t37.5 -13.5t19.5 -32.5q4 -20 -8.5 -33.5t-33.5 -13.5t-37 13.5t-20 33.5zM208 720q4 -20 -8.5 -33.5t-33.5 -13.5t-37 13.5t-20 33.5q-3 19 9 32.5
t33 13.5t37.5 -13.5t19.5 -32.5z" />
    <glyph glyph-name="FL0100h" unicode="&#xf7;" horiz-adv-x="322" 
d="M43 348h115q18 0 28 7.5t5 38.5h39l23 -136h-39l-1 6q-2 14 -6 20.5t-10 9.5t-13.5 4.5t-17.5 5.5h-115q-20 0 -30.5 -6.5t-5.5 -33.5l1 -6h-39l-23 136h39q5 -31 18 -38.5t32 -7.5zM35 442q-3 19 8.5 32.5t32.5 13.5t38 -13.5t20 -32.5q4 -20 -8.5 -33.5t-33.5 -13.5
t-37 13.5t-20 33.5zM175 211q4 -20 -8.5 -33t-33.5 -13t-37 13t-20 33t8 33t33 13t37.5 -13t20.5 -33z" />
    <glyph glyph-name="FL00F8h" unicode="&#xf8;" horiz-adv-x="436" 
d="M14 643h181q12 0 30 -1.5t35.5 -8.5t32 -21.5t18.5 -39.5l90 -507q3 -15 -6.5 -27.5t-24.5 -20.5t-32 -12.5t-29 -4.5h-182q-12 0 -30.5 4.5t-36.5 12.5t-31.5 20.5t-16.5 27.5l-90 510q-4 24 5 37.5t24.5 20.5t33 8.5t29.5 1.5zM207 44q26 0 31.5 16.5t0.5 42.5l-44 248
l-42 -205l10 -55q4 -19 14.5 -33t29.5 -14zM113 599q-19 0 -26 -18t-4 -35l41 -231l41 207l-4 24q-3 17 -16 35t-32 18z" />
    <glyph glyph-name="FL00F9h" unicode="&#xf9;" 
d="M378 609q-11 -3 -21 -15t-8 -23l89 -506q3 -15 -10 -27.5t-31 -20.5t-36 -12.5t-25 -4.5h-163q-8 0 -27.5 4.5t-40 12.5t-37.5 20.5t-20 27.5l-89 506q-2 11 -17 23t-26 15l-6 34h91q16 -1 34.5 -6t35 -14.5t29 -24t16.5 -33.5l83 -477q3 -16 18 -30t29 -14h1
q14 0 23.5 14t6.5 30l-83 477q-4 19 3.5 33t21.5 24t31 15t31 6h91zM205 674h-98l-70 92h105z" />
    <glyph glyph-name="FL00FAh" unicode="&#xfa;" 
d="M378 609q-11 -3 -21 -15t-8 -23l89 -506q3 -15 -10 -27.5t-31 -20.5t-36 -12.5t-25 -4.5h-163q-8 0 -27.5 4.5t-40 12.5t-37.5 20.5t-20 27.5l-89 506q-2 11 -17 23t-26 15l-6 34h91q16 -1 34.5 -6t35 -14.5t29 -24t16.5 -33.5l83 -477q3 -16 18 -30t29 -14h1
q14 0 23.5 14t6.5 30l-83 477q-4 19 3.5 33t21.5 24t31 15t31 6h91zM163 674h-98l32 92h106z" />
    <glyph glyph-name="FL00FBh" unicode="&#xfb;" 
d="M378 609q-11 -3 -21 -15t-8 -23l89 -506q3 -15 -10 -27.5t-31 -20.5t-36 -12.5t-25 -4.5h-163q-8 0 -27.5 4.5t-40 12.5t-37.5 20.5t-20 27.5l-89 506q-2 11 -17 23t-26 15l-6 34h91q16 -1 34.5 -6t35 -14.5t29 -24t16.5 -33.5l83 -477q3 -16 18 -30t29 -14h1
q14 0 23.5 14t6.5 30l-83 477q-4 19 3.5 33t21.5 24t31 15t31 6h91zM120 674h-99l33 92h135l63 -92h-97l-24 40z" />
    <glyph glyph-name="FL00FCh" unicode="&#xfc;" 
d="M378 609q-11 -3 -21 -15t-8 -23l89 -506q3 -15 -10 -27.5t-31 -20.5t-36 -12.5t-25 -4.5h-163q-8 0 -27.5 4.5t-40 12.5t-37.5 20.5t-20 27.5l-89 506q-2 11 -17 23t-26 15l-6 34h91q16 -1 34.5 -6t35 -14.5t29 -24t16.5 -33.5l83 -477q3 -16 18 -30t29 -14h1
q14 0 23.5 14t6.5 30l-83 477q-4 19 3.5 33t21.5 24t31 15t31 6h91zM11 720q-3 19 9 32.5t33 13.5t37.5 -13.5t19.5 -32.5q4 -20 -8.5 -33.5t-33.5 -13.5t-37 13.5t-20 33.5zM245 720q4 -20 -8.5 -33.5t-33.5 -13.5t-37 13.5t-20 33.5q-3 19 9 32.5t33 13.5t37.5 -13.5
t19.5 -32.5z" />
    <glyph glyph-name="FL00FDh" unicode="&#xfd;" 
d="M372 643l6 -34q-11 -3 -21 -15t-8 -23l89 -506q3 -15 -6.5 -27.5t-24.5 -20.5t-32 -12.5t-29 -4.5h-172q-8 0 -27.5 4.5t-40 12.5t-37.5 20.5t-20 27.5l-26 145q-2 11 -16.5 23t-25.5 15l-7 35h91q16 -1 34.5 -6.5t35.5 -15t29.5 -24t15.5 -33.5l20 -116q3 -16 18 -30
t29 -14h2q20 0 26 14t2 33l-31 175q-5 16 -13.5 27t-29.5 17h-84q-14 0 -34.5 5t-40 13.5t-34.5 20t-17 25.5l-34 197q-2 11 -17 23t-26 15l-6 34h91q16 -1 34.5 -6t35 -14.5t29 -24t16.5 -33.5l30 -173q5 -14 15.5 -25t23.5 -14h15q12 3 18.5 16t4.5 27l-29 169
q-4 19 3.5 33t21.5 24t31 15t31 6h91zM163 674h-98l32 92h106z" />
    <glyph glyph-name="FL00FEh" unicode="&#xfe;" horiz-adv-x="468" 
d="M23 0l-6 32q8 3 19 12.5t9 20.5l-91 514q-2 11 -15.5 20t-23.5 12l-5 32h221l5 -32q-8 -3 -18 -12t-8 -20l17 -93h112q7 0 27.5 -1.5t42.5 -8t40.5 -20t22.5 -37.5l32 -188q4 -23 -5.5 -36t-26.5 -20t-38.5 -9t-40.5 -2h-110l18 -99q2 -11 14.5 -20.5t22.5 -12.5l6 -32
h-221zM170 441h-36l41 -231h36q8 2 19.5 14.5t12.5 35.5l-23 129q-2 16 -16 34t-34 18z" />
    <glyph glyph-name="FL00FFh" unicode="&#xff;" 
d="M372 643l6 -34q-11 -3 -21 -15t-8 -23l89 -506q3 -15 -6.5 -27.5t-24.5 -20.5t-32 -12.5t-29 -4.5h-172q-8 0 -27.5 4.5t-40 12.5t-37.5 20.5t-20 27.5l-26 145q-2 11 -16.5 23t-25.5 15l-7 35h91q16 -1 34.5 -6.5t35.5 -15t29.5 -24t15.5 -33.5l20 -116q3 -16 18 -30
t29 -14h2q20 0 26 14t2 33l-31 175q-5 16 -13.5 27t-29.5 17h-84q-14 0 -34.5 5t-40 13.5t-34.5 20t-17 25.5l-34 197q-2 11 -17 23t-26 15l-6 34h91q16 -1 34.5 -6t35 -14.5t29 -24t16.5 -33.5l30 -173q5 -14 15.5 -25t23.5 -14h15q12 3 18.5 16t4.5 27l-29 169
q-4 19 3.5 33t21.5 24t31 15t31 6h91zM11 720q-3 19 9 32.5t33 13.5t37.5 -13.5t19.5 -32.5q4 -20 -8.5 -33.5t-33.5 -13.5t-37 13.5t-20 33.5zM245 720q4 -20 -8.5 -33.5t-33.5 -13.5t-37 13.5t-20 33.5q-3 19 9 32.5t33 13.5t37.5 -13.5t19.5 -32.5z" />
    <glyph glyph-name="FL0152h" unicode="&#x152;" horiz-adv-x="905" 
d="M539 732q-2 11 -17.5 21.5t-32.5 12.5q-13 -2 -25.5 -14.5t-10.5 -26.5l51 -289q21 0 31.5 10t3.5 49h43l30 -171h-43l-1 6q-6 34 -20 43t-35 9l54 -300q2 -14 18 -25.5t35 -17.5q12 2 25 10t10 27l-32 180q-5 24 3 42t23 30t33.5 18.5t34.5 8.5h100l8 -44
q-11 -5 -22.5 -19t-9.5 -29l47 -263h-701q-13 0 -33.5 5.5t-41 16t-36 25.5t-18.5 35l-114 641q-5 31 5 48t27 25t36 9.5t33 1.5h701l47 -263q1 -6 6 -14t12 -15t14.5 -12.5t13.5 -6.5l8 -43h-100q-17 1 -37.5 7.5t-39 19t-33 30.5t-18.5 42zM107 752q-23 -6 -29 -20.5
t-4 -34.5l102 -583q5 -23 17 -40.5t33 -17.5h3q16 0 26.5 17.5t6.5 37.5l-25 145q-5 24 3 42t23 30t33.5 18.5t34.5 8.5h11l-18 97h-11q-17 1 -37.5 8t-39.5 19t-33 29.5t-18 40.5l-24 137q-2 10 -7 21.5t-12 21.5t-16 16.5t-19 6.5z" />
    <glyph glyph-name="FL0153h" unicode="&#x153;" horiz-adv-x="793" 
d="M476 583q-2 9 -16.5 17.5t-31.5 10.5q-11 -2 -22 -11.5t-9 -20.5l41 -231q18 0 28 7.5t5 38.5h39l23 -136h-39l-1 6q-5 27 -16.5 33.5t-30.5 6.5l42 -239q2 -11 15.5 -20t31.5 -14q11 2 23 8.5t9 20.5l-25 144q-3 19 4.5 33.5t21 24t30 15t31.5 6.5h91l7 -35
q-11 -3 -21.5 -15t-8.5 -23l37 -210h-607q-12 0 -30.5 4.5t-36.5 12.5t-31.5 20.5t-16.5 27.5l-90 511q-4 24 5 37.5t24.5 20t33 8t29.5 1.5h607l36 -209q1 -5 6 -11.5t11 -12t13 -10t13 -5.5l7 -34h-91q-15 1 -34 6.5t-36.5 15t-30 23.5t-15.5 33zM113 599
q-21 -5 -26.5 -16.5t-5.5 -27.5l82 -464q4 -19 14.5 -33t29.5 -14h3q14 0 24 14t7 30l-20 116q-3 16 2 29t14.5 22.5t23 15.5t28.5 9l-14 83q-16 3 -31.5 9t-28.5 15.5t-22.5 22t-12.5 28.5l-19 108q-3 17 -16 35t-32 18z" />
    <glyph glyph-name="FL0160h" unicode="&#x160;" horiz-adv-x="508" 
d="M149 599q-21 -5 -26.5 -16.5t-5.5 -27.5l28 -156q2 -17 11 -30t24 -16h103q12 0 29.5 -1t35 -7.5t31.5 -20t19 -37.5l39 -222q3 -15 -6.5 -27.5t-24.5 -20.5t-32 -12.5t-29 -4.5h-172q-8 0 -27.5 4.5t-40 12.5t-37.5 20.5t-20 27.5l-26 145q-2 11 -16.5 23t-25.5 15
l-7 35h91q16 -1 34.5 -6.5t35.5 -15t29.5 -24t15.5 -33.5l20 -116q3 -16 18 -30t29 -14h3q19 0 25.5 14t2.5 33l-31 175q-5 16 -14 27.5t-32 16.5h-91q-13 0 -31.5 4t-36.5 12t-31.5 20t-16.5 27l-35 203q-4 24 5 37.5t24.5 20t33 8t29.5 1.5h181q12 0 29.5 -1t35.5 -7
t32 -19.5t18 -37.5l23 -127q1 -6 5.5 -12t11 -12t13.5 -10t13 -5l5 -34h-91q-15 1 -33.5 6.5t-35 15t-29 23.5t-15.5 33l-16 90q-3 17 -16 35t-32 18zM138 766h98l-33 -92h-135l-62 92h97l24 -40z" />
    <glyph glyph-name="FL0161h" unicode="&#x161;" horiz-adv-x="508" 
d="M149 599q-21 -5 -26.5 -16.5t-5.5 -27.5l28 -156q2 -17 11 -30t24 -16h103q12 0 29.5 -1t35 -7.5t31.5 -20t19 -37.5l39 -222q3 -15 -6.5 -27.5t-24.5 -20.5t-32 -12.5t-29 -4.5h-172q-8 0 -27.5 4.5t-40 12.5t-37.5 20.5t-20 27.5l-26 145q-2 11 -16.5 23t-25.5 15
l-7 35h91q16 -1 34.5 -6.5t35.5 -15t29.5 -24t15.5 -33.5l20 -116q3 -16 18 -30t29 -14h3q19 0 25.5 14t2.5 33l-31 175q-5 16 -14 27.5t-32 16.5h-91q-13 0 -31.5 4t-36.5 12t-31.5 20t-16.5 27l-35 203q-4 24 5 37.5t24.5 20t33 8t29.5 1.5h181q12 0 29.5 -1t35.5 -7
t32 -19.5t18 -37.5l23 -127q1 -6 5.5 -12t11 -12t13.5 -10t13 -5l5 -34h-91q-15 1 -33.5 6.5t-35 15t-29 23.5t-15.5 33l-16 90q-3 17 -16 35t-32 18zM138 766h98l-33 -92h-135l-62 92h97l24 -40z" />
    <glyph glyph-name="FL0178h" unicode="&#x178;" 
d="M372 643l6 -34q-11 -3 -21 -15t-8 -23l89 -506q3 -15 -6.5 -27.5t-24.5 -20.5t-32 -12.5t-29 -4.5h-172q-8 0 -27.5 4.5t-40 12.5t-37.5 20.5t-20 27.5l-26 145q-2 11 -16.5 23t-25.5 15l-7 35h91q16 -1 34.5 -6.5t35.5 -15t29.5 -24t15.5 -33.5l20 -116q3 -16 18 -30
t29 -14h2q20 0 26 14t2 33l-31 175q-5 16 -13.5 27t-29.5 17h-84q-14 0 -34.5 5t-40 13.5t-34.5 20t-17 25.5l-34 197q-2 11 -17 23t-26 15l-6 34h91q16 -1 34.5 -6t35 -14.5t29 -24t16.5 -33.5l30 -173q5 -14 15.5 -25t23.5 -14h15q12 3 18.5 16t4.5 27l-29 169
q-4 19 3.5 33t21.5 24t31 15t31 6h91zM11 720q-3 19 9 32.5t33 13.5t37.5 -13.5t19.5 -32.5q4 -20 -8.5 -33.5t-33.5 -13.5t-37 13.5t-20 33.5zM245 720q4 -20 -8.5 -33.5t-33.5 -13.5t-37 13.5t-20 33.5q-3 19 9 32.5t33 13.5t37.5 -13.5t19.5 -32.5z" />
    <glyph glyph-name="FL0192h" unicode="&#x192;" 
d="M17 34q11 4 21 16t8 23l-89 506q-3 15 9.5 27t30.5 20t36 12.5t26 4.5h163q8 0 27.5 -4.5t40 -12.5t37 -20t19.5 -27l89 -506q2 -11 16.5 -23t26.5 -16l6 -34h-91q-15 1 -33.5 6.5t-35 15t-29 23.5t-15.5 33l-85 477q-3 17 -17.5 30.5t-28.5 13.5h-1q-14 0 -24.5 -13.5
t-7.5 -30.5l85 -477q3 -19 -4.5 -33t-21 -23.5t-30.5 -15t-32 -6.5h-90z" />
    <glyph glyph-name="FL02C6h" unicode="&#x2c6;" horiz-adv-x="277" 
d="M12 628h-99l31 92h135l65 -92h-97l-26 40z" />
    <glyph glyph-name="FL02DCh" unicode="&#x2dc;" horiz-adv-x="298" 
d="M49 720h99l-31 -92h-70l-26 40l-9 -40h-99l31 92h70l25 -40z" />
    <glyph glyph-name="FL2013h" unicode="&#x2013;" horiz-adv-x="257" 
d="M51 304q-20 0 -30.5 -6.5t-5.5 -33.5l1 -6h-39l-23 136h39q5 -31 18 -38.5t32 -7.5h49q18 0 28 7.5t5 38.5h39l23 -136h-39l-1 6q-2 14 -6 20.5t-10 9.5t-13.5 4.5t-17.5 5.5h-49z" />
    <glyph glyph-name="FL2014h" unicode="&#x2014;" horiz-adv-x="322" 
d="M43 348h115q18 0 28 7.5t5 38.5h39l23 -136h-39l-1 6q-2 14 -6 20.5t-10 9.5t-13.5 4.5t-17.5 5.5h-115q-20 0 -30.5 -6.5t-5.5 -33.5l1 -6h-39l-23 136h39q5 -31 18 -38.5t32 -7.5z" />
    <glyph glyph-name="FL2018h" unicode="&#x2018;" horiz-adv-x="240" 
d="M108 409l-28 162q-2 13 8 23.5t20 13.5q0 1 1 1l-6 34h-92q-15 -2 -31.5 -7.5t-30 -15t-21 -23.5t-4.5 -33l27 -156h157v1z" />
    <glyph glyph-name="FL2019h" unicode="&#x2019;" horiz-adv-x="240" 
d="M-54 643l29 -162q2 -14 -8 -24.5t-21 -13.5v-1h-1l6 -34h92q16 1 32.5 6.5t29.5 15.5t20.5 24.5t4.5 32.5l-27 156h-157z" />
    <glyph glyph-name="FL201Ah" unicode="&#x201a;" horiz-adv-x="204" 
d="M11 71q-6 30 14.5 50.5t53.5 20.5q32 0 57 -20.5t31 -50.5l1 -7l2 -13q2 -8 5 -23.5t7 -41.5q3 -18 -4.5 -32.5t-20.5 -24.5t-29.5 -16t-31.5 -7h-92l-7 35h1q11 4 21 14.5t7 23.5z" />
    <glyph glyph-name="FL201Ch" unicode="&#x201c;" horiz-adv-x="429" 
d="M297 409l-28 162q-2 13 8 23.5t20 13.5q0 1 1 1l-6 34h-92q-15 -2 -31.5 -7.5t-30 -15t-21 -23.5t-4.5 -33l27 -156h157v1zM108 409l-28 162q-2 13 8 23.5t20 13.5q0 1 1 1l-6 34h-92q-15 -2 -31.5 -7.5t-30 -15t-21 -23.5t-4.5 -33l27 -156h157v1z" />
    <glyph glyph-name="FL201Dh" unicode="&#x201d;" horiz-adv-x="429" 
d="M-54 643l29 -162q2 -14 -8 -24.5t-21 -13.5v-1h-1l6 -34h92q16 1 32.5 6.5t29.5 15.5t20.5 24.5t4.5 32.5l-27 156h-157zM135 643l29 -162q2 -14 -8 -24.5t-21 -13.5v-1h-1l6 -34h92q16 1 32.5 6.5t29.5 15.5t20.5 24.5t4.5 32.5l-27 156h-157z" />
    <glyph glyph-name="FL201Eh" unicode="&#x201e;" horiz-adv-x="399" 
d="M12 71q-6 30 14 50.5t54 20.5q32 0 57 -20.5t31 -50.5l1 -7l2 -13q2 -8 5 -23.5t7 -41.5q3 -18 -4.5 -32.5t-20.5 -24.5t-29.5 -16t-31.5 -7h-92l-7 35h1q11 4 21 14.5t7 23.5zM207 71q-6 30 14 50.5t53 20.5q32 0 57 -20.5t31 -50.5l1 -7l2 -13q2 -8 5 -23.5t7 -41.5
q3 -18 -4.5 -32.5t-20 -24.5t-29 -16t-31.5 -7h-92l-7 35h1q10 4 20.5 14.5t7.5 23.5z" />
    <glyph glyph-name="FL2020h" unicode="&#x2020;" horiz-adv-x="447" 
d="M235 379l56 -314q2 -11 15 -20.5t23 -12.5l6 -32h-225l-6 32q8 3 18.5 12.5t8.5 20.5l-56 314h-119l-15 90h39q3 -16 7.5 -25t11 -13.5t14.5 -6t17 -1.5h38l-28 156q-2 11 -15 20t-23 12l-5 32h225l5 -32q-8 -3 -18.5 -12t-8.5 -20l28 -156h41q9 0 16.5 1.5t12 6t6 13.5
t-1.5 25h39l15 -90h-121z" />
    <glyph glyph-name="FL2021h" unicode="&#x2021;" horiz-adv-x="447" 
d="M375 274l16 -90h-39q-5 30 -18 37.5t-31 7.5h-41l29 -164q2 -11 15 -20.5t23 -12.5l6 -32h-225l-6 32q8 3 18.5 12.5t8.5 20.5l-29 164h-38q-19 0 -29 -7.5t-5 -37.5h-39l-16 90h119l-19 105h-119l-15 90h39q3 -16 7.5 -25t11 -13.5t14.5 -6t17 -1.5h38l-28 156
q-2 11 -15 20t-23 12l-5 32h225l5 -32q-8 -3 -18.5 -12t-8.5 -20l28 -156h41q9 0 16.5 1.5t12 6t6 13.5t-1.5 25h39l15 -90h-121l19 -105h121z" />
    <glyph glyph-name="FL2022h" unicode="&#x2022;" horiz-adv-x="436" 
d="M14 643q-12 0 -29.5 -1.5t-33 -8.5t-24.5 -20.5t-5 -37.5l90 -510q3 -15 16.5 -27.5t31.5 -20.5t36.5 -12.5t30.5 -4.5h182q12 0 29 4.5t32 12.5t24.5 20.5t6.5 27.5l-90 507q-4 25 -18.5 39.5t-32 21.5t-35.5 8.5t-30 1.5h-181z" />
    <glyph glyph-name="FL2026h" unicode="&#x2026;" horiz-adv-x="560" 
d="M368 71q-6 30 13.5 50.5t52.5 20.5q32 0 58 -20.5t32 -50.5q5 -30 -14.5 -50.5t-51.5 -20.5q-33 0 -59 20.5t-31 50.5zM190 71q-6 30 13.5 50.5t52.5 20.5q32 0 58 -20.5t32 -50.5q5 -30 -14.5 -50.5t-51.5 -20.5q-33 0 -59 20.5t-31 50.5zM11 71q-6 30 14 50.5t53 20.5
q32 0 58 -20.5t32 -50.5q5 -30 -14.5 -50.5t-51.5 -20.5q-33 0 -59.5 20.5t-31.5 50.5z" />
    <glyph glyph-name="FL2030h" unicode="&#x2030;" horiz-adv-x="760" 
d="M-33 676h108q7 0 17.5 -1t21.5 -5t20 -12.5t12 -23.5l40 -232l95 241h92l5 -32q-8 -3 -15 -12.5t-11 -19.5l-88 -225h107q7 0 18 -1t21.5 -5t19 -13t11.5 -24l53 -305q1 -9 -4.5 -16t-14.5 -12t-19 -7.5t-17 -2.5h-109q-7 0 -18 2.5t-22 7.5t-19.5 12t-9.5 16l-41 235
l-95 -241h-93l-6 32q4 1 9 4.5t9 8t7 10t2 10.5l88 225h-106q-7 0 -18 2.5t-22 7.5t-19.5 12t-10.5 16l-53 306q-3 15 2.5 23.5t14.5 12.5t19.5 5t18.5 1zM503 354h109q7 0 18 -1t21.5 -5t19 -13t11.5 -24l53 -305q1 -9 -4.5 -16t-14.5 -12t-19 -7.5t-17 -2.5h-109
q-7 0 -18 2.5t-22 7.5t-19.5 12t-9.5 16l-53 306q-3 15 2 23.5t14 12.5t19.5 5t18.5 1zM34 615q-8 0 -9 -9t1 -17l37 -215q2 -8 5 -15t11 -7q16 0 9 28l-36 209q-2 8 -7 17t-11 9zM327 292q-8 0 -9.5 -9.5t0.5 -17.5l38 -214q2 -8 4.5 -15t10.5 -7q9 0 10.5 7.5t-0.5 20.5
l-37 208q-2 8 -6.5 17.5t-10.5 9.5zM568 292q-8 0 -9.5 -9.5t0.5 -17.5l38 -214q2 -8 4.5 -15t10.5 -7q9 0 10.5 7.5t-0.5 20.5l-37 208q-2 8 -6.5 17.5t-10.5 9.5z" />
    <glyph glyph-name="FL2039h" unicode="&#x2039;" horiz-adv-x="139" 
d="M53 353l-17 98l-84 -48l24 -135l100 -48l-17 98l-42 18z" />
    <glyph glyph-name="FL203Ah" unicode="&#x203a;" horiz-adv-x="139" 
d="M-39 353l-17 98l100 -48l24 -135l-84 -48l-17 98l37 18z" />
    <glyph glyph-name="FL2122h" unicode="&#x2122;" horiz-adv-x="281" 
d="M-53 669l18 -101h18l-18 101h41l-3 19h-101l3 -19h42zM24 684l20 -116h13l-13 78l4 6l42 -77q3 -5 5 -6t5 -1q5 0 6 1t3 6l15 79l7 -8l13 -78h13l-21 120h-5q-13 0 -21.5 -9t-11.5 -36q-1 -13 -2 -21.5t-3 -18.5q-4 8 -9 18.5t-13 26.5l-2 6q-8 12 -19.5 23t-16.5 11h-1
l1 -1q0 -1 -5 -1q-2 0 -4 -2z" />
    </font>
</defs>
</svg>
