<?xml version="1.0" standalone="no"?>
<!DOCTYPE svg PUBLIC "-//W3C//DTD SVG 1.1//EN" "http://www.w3.org/Graphics/SVG/1.1/DTD/svg11.dtd" >
<svg xmlns="http://www.w3.org/2000/svg" xmlns:xlink="http://www.w3.org/1999/xlink" version="1.1">
<metadata>
Created by FontForge 20170731 at Thu Jun  9 18:21:20 2011
 By Aleksey,,,
2011 Iconian Fonts - www.iconian.com
</metadata>
<defs>
<font id="FederalServiceLaser" horiz-adv-x="763" >
  <font-face 
    font-family="Federal Service Laser"
    font-weight="400"
    font-stretch="normal"
    units-per-em="1000"
    panose-1="0 0 0 0 0 0 0 0 0 0"
    ascent="800"
    descent="-200"
    x-height="596"
    cap-height="596"
    bbox="-47 -169 1158 874"
    underline-thickness="50"
    underline-position="-175"
    unicode-range="U+0020-2122"
  />
<missing-glyph horiz-adv-x="500" 
 />
    <glyph glyph-name=".notdef" horiz-adv-x="500" 
 />
    <glyph glyph-name=".null" horiz-adv-x="0" 
 />
    <glyph glyph-name="nonmarkingreturn" horiz-adv-x="500" 
 />
    <glyph glyph-name="space" unicode=" " horiz-adv-x="352" 
 />
    <glyph glyph-name="space" unicode="&#xa0;" horiz-adv-x="352" 
 />
    <glyph glyph-name="FL0021h" unicode="!" horiz-adv-x="261" 
d="M203 170v263h-146v-263h146zM203 593h-146v-114h146v114zM55 62q0 -26 21.5 -44.5t53.5 -18.5t54 18.5t22 44.5t-22 44.5t-54 18.5t-53.5 -18.5t-21.5 -44.5z" />
    <glyph glyph-name="FL0022h" unicode="&#x22;" horiz-adv-x="463" 
d="M408 533q0 26 -22 44.5t-54 18.5t-53.5 -18.5t-21.5 -44.5v-54h151v54zM206 532q0 26 -22 44.5t-54 18.5t-53.5 -18.5t-21.5 -44.5v-53h151v53zM55 415q0 -26 21.5 -45t53.5 -19t54 18.5t22 44.5v19h-151v-18zM257 416q0 -26 21.5 -45t53.5 -19t54 18.5t22 44.5v18h-151
v-17z" />
    <glyph glyph-name="FL0023h" unicode="#" horiz-adv-x="757" 
d="M55 354h121v-123h-121v-125h121v-106h144v106h118v-106h144v107h120v124h-120v124h120v78h-647v-79zM320 596h-144v-117h144v117zM582 479v117h-144v-117h144zM438 354v-123h-118v123h118z" />
    <glyph glyph-name="FL0024h" unicode="$" 
d="M456 -124v124q128 6 190 84t62 212v65h-252v72h-143v-72h-111q10 46 36 72h-164q-19 -57 -19 -133v-62h258v-114h-258v-124h258v-124h143zM708 596h-252v122h-143v-122q-81 -3 -135 -33t-84 -84h614v117zM561 238q-10 -51 -36.5 -76.5t-68.5 -33.5v110h105z" />
    <glyph glyph-name="FL0025h" unicode="%" horiz-adv-x="863" 
d="M808 101v99q0 25 -7.5 43.5t-26 31t-49.5 18.5t-78 6q-46 0 -77 -7t-50 -19.5t-27 -31.5t-8 -43v-98q0 -24 7.5 -42.5t26 -31t49 -19.5t75.5 -7q47 0 79 6t51 19t27 31.5t8 44.5zM251 0l366 433h-140l-370 -433h144zM378 397v36h-85v-11q0 -27 -15 -37.5t-65 -10.5
q-44 0 -59.5 12.5t-15.5 32.5v14h-83v-37q0 -24 7.5 -42.5t26 -31t49 -19.5t75.5 -7q47 0 79 6t51 19t27 31.5t8 44.5zM217 518q24 0 38.5 -3t22.5 -8.5t11.5 -12.5t3.5 -15h85v17q0 25 -7.5 43.5t-26 31t-49.5 18.5t-78 6q-46 0 -77 -7t-50 -19.5t-27 -31.5t-8 -43v-15h83
q2 18 19.5 28.5t59.5 10.5zM647 222q25 0 40 -3.5t23 -9t10.5 -13.5t2.5 -17v-53q0 -27 -15 -37.5t-65 -10.5q-44 0 -59.5 12.5t-15.5 32.5v56q0 20 17 31.5t62 11.5zM755 596h-139l-100 -117h140z" />
    <glyph glyph-name="FL0026h" unicode="&#x26;" horiz-adv-x="871" 
d="M474 361h-275q0 20 4 38.5t14 33.5h-147q-15 -59 -15 -133q0 -70 12 -125.5t38 -94.5t68.5 -59.5t103.5 -20.5h539v124h-147q19 46 25 110h122v123h-201q-2 20 -5.5 39.5t-8.5 36.5h-146q11 -15 15 -33t4 -39zM390 598h-117q-69 0 -115.5 -31t-71.5 -88h499
q-28 58 -77 88.5t-118 30.5zM553 234q-3 -111 -130 -111h-107q-117 0 -117 111h354z" />
    <glyph glyph-name="FL0027h" unicode="'" horiz-adv-x="261" 
d="M206 533q0 26 -22 44.5t-54 18.5t-53.5 -18.5t-21.5 -44.5v-54h151v54zM55 416q0 -26 21.5 -45t53.5 -19t54 18.5t22 44.5v18h-151v-17z" />
    <glyph glyph-name="FL0028h" unicode="(" horiz-adv-x="451" 
d="M393 -68v121h-67q-33 0 -56.5 17.5t-39.5 44.5t-23.5 59t-7.5 61v123q0 17 2.5 36t7.5 39h-141q-7 -32 -10 -65t-3 -68q0 -71 11.5 -137t38 -117.5t69.5 -82.5t106 -31h113zM329 540h67v119h-123q-37 0 -67.5 -13.5t-54.5 -37.5t-42 -57t-30 -72h149q15 26 39.5 43.5
t61.5 17.5z" />
    <glyph glyph-name="FL0029h" unicode=")" horiz-adv-x="451" 
d="M57 -68h113q63 0 106 31t69.5 82.5t38 117.5t11.5 137q0 35 -3.5 68t-9.5 65h-142q6 -20 8.5 -39t2.5 -36v-123q0 -29 -7.5 -61t-23.5 -59t-39.5 -44.5t-56.5 -17.5h-67v-121zM221 479h149q-12 39 -30 72t-42 57t-54 37.5t-67 13.5h-123v-119h67q36 0 60.5 -17.5
t39.5 -43.5z" />
    <glyph glyph-name="FL002Ah" unicode="*" horiz-adv-x="367" 
d="M274 579l-40 -40v56h-92v-55l-40 39l-65 -65l48 -35h188l59 41zM331 433h-296l-5 -4l55 -72l55 51v-63h92v61l51 -49l54 72z" />
    <glyph glyph-name="FL002Bh" unicode="+" horiz-adv-x="556" 
d="M55 358v-123h162v-162h123v162h161v123h-161v75h-123v-75h-162zM217 519v-40h123v40h-123z" />
    <glyph glyph-name="FL002Ch" unicode="," horiz-adv-x="261" 
d="M55 -54q0 -26 21.5 -45t53.5 -19t54 18.5t22 44.5v118q0 26 -22 44.5t-54 18.5t-53.5 -18.5t-21.5 -44.5v-117z" />
    <glyph glyph-name="FL002Dh" unicode="-" horiz-adv-x="488" 
d="M55 234h378v124h-378v-124z" />
    <glyph glyph-name="FL002Eh" unicode="." horiz-adv-x="261" 
d="M55 63q0 -26 21.5 -44.5t53.5 -18.5t54 18.5t22 44.5t-22 44.5t-54 18.5t-53.5 -18.5t-21.5 -44.5z" />
    <glyph glyph-name="FL002Fh" unicode="/" horiz-adv-x="448" 
d="M199 0l141 433h-144l-141 -433h144zM393 596h-144l-38 -117h144z" />
    <glyph glyph-name="FL0030h" unicode="0" horiz-adv-x="761" 
d="M562 358v-123q0 -114 -130 -114h-110q-123 0 -123 114v123q0 22 4 41t15 34h-148q-15 -59 -15 -133q0 -71 12 -126.5t39 -94t70.5 -59t106.5 -20.5h195q63 0 106.5 20.5t70.5 59t39 94t12 126.5q0 76 -16 133h-147q11 -15 15 -34t4 -41zM488 596h-215q-69 0 -115 -30
t-72 -87h588q-25 57 -71 87t-115 30zM306 295q0 -26 21.5 -44.5t53.5 -18.5t54 18.5t22 44.5t-22 44.5t-54 18.5t-53.5 -18.5t-21.5 -44.5z" />
    <glyph glyph-name="FL0031h" unicode="1" horiz-adv-x="325" 
d="M270 0v433h-144v-433h144zM55 597v-118h215v117z" />
    <glyph glyph-name="FL0032h" unicode="2" 
d="M708 125h-506v110h506v65q0 73 -20 133h-164q14 -14 23 -32t14 -43h-506v-358h653v125zM55 479h613q-32 57 -90 87t-143 30h-380v-117z" />
    <glyph glyph-name="FL0062h" unicode="3" horiz-adv-x="700" 
d="M55 0h362q63 0 106.5 20.5t70.5 59t39 94t12 126.5q0 76 -16 133h-147q11 -15 15 -34t4 -41h-446v-123h446q0 -114 -130 -114h-316v-121zM55 479h558q-25 57 -71 87t-115 30h-372v-117z" />
    <glyph glyph-name="FL0034h" unicode="4" horiz-adv-x="701" 
d="M646 0v433h-139v-75h-308v75h-144v-197h452v-236h139zM199 596h-144v-117h144v117zM646 596h-139v-117h139v117z" />
    <glyph glyph-name="FL0035h" unicode="5" 
d="M561 238q-12 -66 -55 -90t-106 -24h-345v-124h380q139 0 206 78.5t67 217.5v65h-506v72h-147v-195h506zM708 596h-653v-117h653v117z" />
    <glyph glyph-name="FL0036h" unicode="6" 
d="M55 327v-89h2q5 -57 20 -101t42 -74.5t67.5 -46.5t96.5 -16h152q139 0 206 78.5t67 217.5v65h-506q9 45 36 72h-166q-16 -50 -17 -106zM708 596h-380q-88 0 -146 -30.5t-90 -86.5h616v117zM561 238q-12 -66 -55 -90t-106 -24h-98v-2q-48 11 -75.5 36.5t-27.5 76.5l-1 3
h363z" />
    <glyph glyph-name="FL0037h" unicode="7" horiz-adv-x="694" 
d="M249 0l354 433h-192l-356 -433h194zM639 596h-584v-117h584v117z" />
    <glyph glyph-name="FL0038h" unicode="8" horiz-adv-x="761" 
d="M562 358h-363q0 22 4 41t15 34h-148q-15 -59 -15 -133q0 -71 12 -126.5t39 -94t70.5 -59t106.5 -20.5h195q63 0 106.5 20.5t70.5 59t39 94t12 126.5q0 76 -16 133h-147q11 -15 15 -34t4 -41zM488 596h-215q-69 0 -115 -30t-72 -87h588q-25 57 -71 87t-115 30zM432 121
h-110q-123 0 -123 113h363q-2 -113 -130 -113z" />
    <glyph glyph-name="FL0039h" unicode="9" 
d="M201 358q9 48 36 75h-164q-19 -57 -19 -133v-65h506q-7 -32 -21.5 -53.5t-35 -34.5t-47 -18t-57.5 -5h-194v-124h229q136 0 202 72t71 197v89h-2q-2 20 -4.5 39t-7.5 36h-154q11 -14 17.5 -31.5t6.5 -40.5l1 -3h-363zM479 596h-152q-86 0 -143.5 -30t-89.5 -87h583
q-25 57 -72.5 87t-125.5 30z" />
    <glyph glyph-name="FL003Ah" unicode=":" horiz-adv-x="261" 
d="M55 63q0 -26 21.5 -44.5t53.5 -18.5t54 18.5t22 44.5t-22 44.5t-54 18.5t-53.5 -18.5t-21.5 -44.5zM55 295q0 -26 21.5 -44.5t53.5 -18.5t54 18.5t22 44.5t-22 44.5t-54 18.5t-53.5 -18.5t-21.5 -44.5z" />
    <glyph glyph-name="FL003Bh" unicode=";" horiz-adv-x="261" 
d="M55 -54q0 -26 21.5 -45t53.5 -19t54 18.5t22 44.5v118q0 26 -22 44.5t-54 18.5t-53.5 -18.5t-21.5 -44.5v-117zM55 295q0 -26 21.5 -44.5t53.5 -18.5t54 18.5t22 44.5t-22 44.5t-54 18.5t-53.5 -18.5t-21.5 -44.5z" />
    <glyph glyph-name="FL003Ch" unicode="&#x3c;" horiz-adv-x="479" 
d="M55 297l219 -297h150l-219 297l99 136h-151zM424 598h-151l-86 -119h150z" />
    <glyph glyph-name="FL003Dh" unicode="=" horiz-adv-x="488" 
d="M55 109h378v124h-378v-124zM55 357h378v76h-378v-76zM433 481h-378v-2h378v2z" />
    <glyph glyph-name="FL003Eh" unicode="&#x3e;" horiz-adv-x="479" 
d="M423 297l-99 136h-150l99 -136l-219 -297h150zM54 598l86 -119h151l-86 119h-151z" />
    <glyph glyph-name="FL003Fh" unicode="?" horiz-adv-x="765" 
d="M204 233h506v65q0 75 -20 135h-166q29 -27 39 -77h-506v-186h148zM437 594h-380v-115h612q-32 56 -89.5 85.5t-142.5 29.5zM55 62q0 -26 21.5 -44.5t53.5 -18.5t54 18.5t22 44.5t-22 44.5t-54 18.5t-53.5 -18.5t-21.5 -44.5z" />
    <glyph glyph-name="FL0EEEh" unicode="@" horiz-adv-x="933" 
d="M649 326q0 33 -4.5 60t-15.5 47h-345q-11 -21 -14.5 -47.5t-3.5 -58.5v-62q2 -41 8 -73t25 -54.5t54.5 -34.5t96.5 -12q85 0 127 19l65 13q61 2 100.5 13t63.5 33t37.5 54.5t23.5 77.5v83q0 25 -3 49h-137q4 -20 5 -39t1 -36v-72q-4 -14 -6.5 -21.5t-6.5 -12t-11 -7
t-19 -5.5l-40 -6zM203 433h-135q-7 -32 -10 -65t-3 -68q0 -71 11.5 -137t38 -117.5t69.5 -82.5t106 -31h369v122h-324q-2 -1 -10 -1h-9q-40 0 -61.5 17.5t-31.5 44.5t-12 59t-2 61v123q0 20 1 39t3 36zM712 479h144q-19 81 -70 130t-126 49h-388q-36 0 -66.5 -13.5
t-54.5 -37.5t-42 -56.5t-30 -71.5h136q13 28 39.5 44.5t74.5 16.5h275q44 0 69 -17.5t39 -43.5zM459 402q31 0 48.5 -7t25 -19.5t9 -28.5t1.5 -34l3 -34q0 -29 -1.5 -48.5t-10 -31t-27 -16.5t-51.5 -5q-27 0 -43 5t-23.5 15t-9.5 25t-2 35v78q0 32 16 49t65 17zM334 479h243
q-22 9 -52 14t-72 5q-40 0 -69.5 -5t-49.5 -14z" />
    <glyph glyph-name="FL0041h" unicode="A" horiz-adv-x="738" 
d="M544 0h139v351q0 41 -15 82h-161q14 -17 22.5 -36.5t13.5 -38.5v-136h-344v211h-144v-433h143v105h346v-105zM465 596h-410v-117h593q-29 51 -76.5 84t-106.5 33z" />
    <glyph glyph-name="FL0042h" unicode="B" 
d="M708 300q0 73 -20 133h-164q14 -14 23 -32t14 -43h-364v75h-142v-433h386q58 0 107.5 15.5t84.5 51t55 92.5t20 141zM55 479h613q-32 57 -90 87t-143 30h-380v-117zM197 239h365q-5 -36 -16 -60.5t-30.5 -39t-48 -21t-67.5 -6.5h-203v127z" />
    <glyph glyph-name="FL0043h" unicode="C" horiz-adv-x="700" 
d="M645 0v121h-316q-130 0 -130 114v123q0 22 4 41t15 34h-148q-15 -59 -15 -133q0 -71 12 -126.5t39 -94t70.5 -59t106.5 -20.5h362zM645 596h-372q-69 0 -115 -30t-72 -87h559v117z" />
    <glyph glyph-name="FL0044h" unicode="D" 
d="M566 300q0 -56 -8.5 -92.5t-28 -57.5t-51.5 -29.5t-78 -8.5h-203v321h-142v-433h386q58 0 107.5 15.5t84.5 51t55 92.5t20 141q0 73 -20 133h-163q20 -20 30.5 -52.5t10.5 -80.5zM435 596h-380v-117h613q-32 57 -90 87t-143 30z" />
    <glyph glyph-name="FL0045h" unicode="E" horiz-adv-x="700" 
d="M645 0v121h-316q-66 0 -98 30t-32 87h446v120h-446q0 22 4 41t15 34h-148q-15 -59 -15 -133q0 -71 12 -126.5t39 -94t70.5 -59t106.5 -20.5h362zM86 479h559v117h-372q-69 0 -115 -30t-72 -87z" />
    <glyph glyph-name="FL0046h" unicode="F" horiz-adv-x="700" 
d="M199 0v239h446v119h-446q0 22 4 41t15 34h-148q-15 -59 -15 -133v-300h144zM86 479h559v117h-372q-69 0 -115 -30t-72 -87z" />
    <glyph glyph-name="FL0047h" unicode="G" 
d="M441 234h125v-122h-203q-47 0 -78.5 8.5t-51 29.5t-28 57.5t-8.5 92.5q0 48 10 80.5t30 52.5h-163q-19 -57 -19 -133q0 -84 20 -141t55 -92.5t84 -51t108 -15.5h386v358h-267v-124zM95 479h612v117h-379q-86 0 -143.5 -30t-89.5 -87z" />
    <glyph glyph-name="FL0048h" unicode="H" horiz-adv-x="758" 
d="M703 0v433h-139v-75h-365v75h-144v-433h144v235h365v-235h139zM199 596h-144v-117h144v117zM703 596h-139v-117h139v117z" />
    <glyph glyph-name="FL0049h" unicode="I" horiz-adv-x="694" 
d="M639 119h-225v314h-140v-314h-219v-119h584v119zM639 596h-584v-117h584v117z" />
    <glyph glyph-name="FL004Ah" unicode="J" horiz-adv-x="700" 
d="M55 0h362q63 0 106.5 20.5t70.5 59t39 94t12 126.5v133h-144v-198q0 -114 -130 -114h-316v-121zM501 479h144v118h-144v-118z" />
    <glyph glyph-name="FL004Bh" unicode="K" horiz-adv-x="734" 
d="M199 0v235l324 -235h180l-384 302l171 131h-190l-101 -75v75h-144v-433h144zM704 597h-181l-160 -118h187zM199 596h-144v-117h144v117z" />
    <glyph glyph-name="FL004Ch" unicode="L" horiz-adv-x="700" 
d="M645 0v121h-316q-130 0 -130 114v198h-144v-133q0 -71 12 -126.5t39 -94t70.5 -59t106.5 -20.5h362zM199 597h-144v-118h144v118z" />
    <glyph glyph-name="FL004Dh" unicode="M" horiz-adv-x="968" 
d="M593 596h-220q-69 0 -120 -7.5t-87.5 -22.5t-60 -37t-35.5 -50h825q-24 56 -95 86.5t-207 30.5zM410 1h146v432h-146v-432zM55 393v-393h139v363q0 20 5 38t18 32h-159q-3 -20 -3 -40zM772 363v-363h139v393q0 20 -3 40h-159q23 -27 23 -70z" />
    <glyph glyph-name="FL004Eh" unicode="N" horiz-adv-x="758" 
d="M641 518q-30 40 -70 59t-86 19h-430v-117h614q-6 10 -13 19.5t-15 19.5zM199 0v433h-144v-433h144zM703 0v351q0 43 -13 82h-153q16 -20 21.5 -46.5t5.5 -55.5v-331h139z" />
    <glyph glyph-name="FL004Fh" unicode="O" horiz-adv-x="761" 
d="M562 358v-123q0 -114 -130 -114h-110q-123 0 -123 114v123q0 22 4 41t15 34h-148q-15 -59 -15 -133q0 -71 12 -126.5t39 -94t70.5 -59t106.5 -20.5h195q63 0 106.5 20.5t70.5 59t39 94t12 126.5q0 76 -16 133h-147q11 -15 15 -34t4 -41zM488 596h-215q-69 0 -115 -30
t-72 -87h588q-25 57 -71 87t-115 30z" />
    <glyph glyph-name="FL0DB9h" unicode="P" horiz-adv-x="739" 
d="M404 224h-205v209h-144v-433h144v105h267q46 0 86 19t70 59q32 38 47 80t15 87h-2l1 1q0 44 -13 82h-157q14 -18 21 -39.5t9 -44.5q-3 -32 -11.5 -55.5t-24.5 -39t-41 -23t-62 -7.5zM622 516q-30 40 -70.5 60t-86.5 20h-410v-117h593q-11 19 -26 37z" />
    <glyph glyph-name="FL0051h" unicode="Q" horiz-adv-x="761" 
d="M321 243l89 -122h-88q-123 0 -123 114v123q0 22 4 41t15 34h-148q-15 -59 -15 -133q0 -71 12 -126.5t39 -94t70.5 -59t106.5 -20.5h216l57 -77l108 50l-49 65q49 36 70 102t21 160q0 76 -16 133h-147q11 -15 15 -34t4 -41v-123q0 -56 -30 -84l-108 146zM488 596h-215
q-69 0 -115 -30t-72 -87h588q-25 57 -71 87t-115 30z" />
    <glyph glyph-name="FL0054h" unicode="R" horiz-adv-x="739" 
d="M404 224h-205v209h-144v-433h144v105h210l78 -105h156l-93 123q39 19 73 59q32 39 46.5 81t14.5 87h-2l1 1q0 43 -13 82h-160q14 -18 20 -40.5t8 -45.5q-3 -32 -10.5 -55t-22.5 -38t-39.5 -22.5t-61.5 -7.5zM621 518q-30 40 -70 59t-86 19h-410v-117h594q-6 10 -13 19.5
t-15 19.5z" />
    <glyph glyph-name="FL0073h" unicode="S" 
d="M238 433h-164q-19 -57 -19 -133v-59h506q-12 -66 -55 -91.5t-106 -25.5h-345v-124h380q139 0 206 78.5t67 217.5v65h-506q9 45 36 72zM95 479h613v117h-380q-86 0 -143.5 -30t-89.5 -87z" />
    <glyph glyph-name="T" unicode="T" horiz-adv-x="694" 
d="M639 596h-584v-117h584v117zM414 0v433h-140v-433h140z" />
    <glyph glyph-name="FL0055h" unicode="U" horiz-adv-x="758" 
d="M194 265v168h-139v-188q0 -45 15 -87t47 -80q30 -40 70 -59t86 -19h430v433h-144v-314h-224q-44 0 -71.5 12t-43 32t-21 46.5t-5.5 55.5zM559 479h144v117h-144v-117zM55 596v-117h139v117h-139z" />
    <glyph glyph-name="FL0056h" unicode="V" horiz-adv-x="771" 
d="M287 0h208l160 433h-150l-113 -312l-122 312h-151zM55 598l46 -119h151l-46 119h-151zM716 598h-151l-44 -119h151z" />
    <glyph glyph-name="FL0057h" unicode="W" horiz-adv-x="965" 
d="M192 265v168h-139v-188q0 -45 15 -87t47 -80q30 -40 70 -59t86 -19h637v433h-144v-314h-96q-44 0 -68 12t-35.5 32t-14 46.5t-2.5 55.5v168h-139v-188q0 -66 33 -126h-91q-55 0 -86.5 12.5t-47.5 33t-20.5 47t-4.5 53.5zM764 479h144v117h-144v-117zM53 596v-117h139v117
h-139zM409 479h139v117h-139v-117z" />
    <glyph glyph-name="FL0058h" unicode="X" horiz-adv-x="701" 
d="M277 297l-219 -297h150l144 195l144 -195h150l-219 297l99 136h-150l-24 -34l-25 34h-151zM646 598h-151l-86 -119h150zM55 597l87 -118h151l-87 118h-151z" />
    <glyph glyph-name="FL0059h" unicode="Y" 
d="M284 362q-66 13 -81 71h-141q16 -94 68.5 -145t152.5 -51v1h278q-12 -66 -55 -90t-106 -24h-199v-124h234q139 0 206 78.5t67 217.5l-1 137h-147v-71h-276zM707 596h-147v-117h147v117zM201 597h-146v-64v-28q0 -13 2 -26h144v118z" />
    <glyph glyph-name="FL005Ah" unicode="Z" horiz-adv-x="694" 
d="M55 0h584v119h-394l345 314h-191l-344 -314v-119zM639 596h-584v-117h584v117z" />
    <glyph glyph-name="FL005Bh" unicode="[" horiz-adv-x="451" 
d="M393 -68v121h-193v380h-145v-502zM200 541h196v118h-341v-180h145v62z" />
    <glyph glyph-name="FL005Ch" unicode="\" horiz-adv-x="448" 
d="M249 0h144l-141 433h-144zM55 596l38 -117h144l-38 117h-144z" />
    <glyph glyph-name="FL005Dh" unicode="]" horiz-adv-x="451" 
d="M57 -68l338 -1v502h-145v-380h-193v-121zM250 479h145v180h-341v-118h196v-62z" />
    <glyph glyph-name="FL005Eh" unicode="^" horiz-adv-x="418" 
d="M159 595l-65 -116h98l19 35l18 -35h93l-66 116h-97zM155 409l13 24h-100l-13 -24h100zM363 409l-14 24h-96l13 -24h97z" />
    <glyph glyph-name="FL005Fh" unicode="_" horiz-adv-x="506" 
d="M30 63v-123h446v123h-446z" />
    <glyph glyph-name="FL0060h" unicode="`" horiz-adv-x="286" 
d="M175 563q-7 9 -19 21t-23 12q-21 0 -41 -17q-14 -11 -25.5 -21.5t-11.5 -25.5q0 -19 10 -32l19 -21h146q-2 12 -9 24zM132 425q14 -20 37 -20q11 0 20.5 3.5t19.5 12.5q8 8 11 12h-95z" />
    <glyph glyph-name="FL0061h" unicode="a" horiz-adv-x="738" 
d="M194 0v105h346v-105h143v433h-144v-211h-344v136q5 19 13 38.5t23 36.5h-162q-14 -42 -14 -82v-351h139zM683 596h-410q-60 0 -107 -33t-76 -84h593v117z" />
    <glyph glyph-name="FL0063h" unicode="b" 
d="M708 300q0 73 -20 133h-164q14 -14 23 -32t14 -43h-364v75h-142v-433h386q58 0 107.5 15.5t84.5 51t55 92.5t20 141zM55 479h613q-32 57 -90 87t-143 30h-380v-117zM197 239h365q-5 -36 -16 -60.5t-30.5 -39t-48 -21t-67.5 -6.5h-203v127z" />
    <glyph glyph-name="c" unicode="c" horiz-adv-x="700" 
d="M645 0v121h-316q-130 0 -130 114v123q0 22 4 41t15 34h-148q-15 -59 -15 -133q0 -71 12 -126.5t39 -94t70.5 -59t106.5 -20.5h362zM645 596h-372q-69 0 -115 -30t-72 -87h559v117z" />
    <glyph glyph-name="d" unicode="d" 
d="M566 300q0 -56 -8.5 -92.5t-28 -57.5t-51.5 -29.5t-78 -8.5h-203v321h-142v-433h386q58 0 107.5 15.5t84.5 51t55 92.5t20 141q0 73 -20 133h-163q20 -20 30.5 -52.5t10.5 -80.5zM435 596h-380v-117h613q-32 57 -90 87t-143 30z" />
    <glyph glyph-name="e" unicode="e" horiz-adv-x="700" 
d="M645 0v121h-316q-66 0 -98 31t-32 88h360v119h-360q0 21 4 40t15 34h-148q-15 -59 -15 -133q0 -71 12 -126.5t39 -94t70.5 -59t106.5 -20.5h362zM86 479h559v117h-372q-69 0 -115 -30t-72 -87z" />
    <glyph glyph-name="FL0066h" unicode="f" horiz-adv-x="700" 
d="M199 0v239h360v120h-360q0 21 4 40t15 34h-148q-15 -59 -15 -133v-300h144zM86 479h559v117h-372q-69 0 -115 -30t-72 -87z" />
    <glyph glyph-name="FL0067h" unicode="g" 
d="M197 300q0 48 10 80.5t30 52.5h-163q-19 -57 -19 -133q0 -84 20 -141t55 -92.5t84 -51t108 -15.5h386v358h-142v-246h-203q-47 0 -78.5 8.5t-51 29.5t-28 57.5t-8.5 92.5zM707 596h-379q-86 0 -143.5 -30t-89.5 -87h612v117z" />
    <glyph glyph-name="FL0068h" unicode="h" horiz-adv-x="758" 
d="M703 0v433h-139v-75h-365v75h-144v-433h144v235h365v-235h139zM199 596h-144v-117h144v117zM703 596h-139v-117h139v117z" />
    <glyph glyph-name="i" unicode="i" horiz-adv-x="254" 
d="M199 0v433h-144v-433h144zM199 596h-144v-117h144v117z" />
    <glyph glyph-name="FL006Ah" unicode="j" horiz-adv-x="700" 
d="M55 0h362q63 0 106.5 20.5t70.5 59t39 94t12 126.5v133h-144v-198q0 -114 -130 -114h-316v-121zM501 479h144v118h-144v-118z" />
    <glyph glyph-name="FL006Bh" unicode="k" horiz-adv-x="734" 
d="M199 0v234h169l185 -234h150l-219 297l99 136h-155l-57 -75h-172v75h-144v-433h144zM704 597h-151l-90 -118h154zM199 596h-144v-117h144v117z" />
    <glyph glyph-name="FL006Ch" unicode="l" horiz-adv-x="700" 
d="M645 0v121h-316q-130 0 -130 114v198h-144v-133q0 -71 12 -126.5t39 -94t70.5 -59t106.5 -20.5h362zM199 597h-144v-118h144v118z" />
    <glyph glyph-name="FL006Dh" unicode="m" horiz-adv-x="965" 
d="M54 479h821q-6 10 -13 19.5t-15 19.5q-30 40 -70 59t-86 19h-637v-117zM198 0v433h-144v-433h144zM909 0v351q0 43 -13 82h-152q17 -21 21.5 -47.5t4.5 -54.5v-331h139zM542 433h-146q12 -20 15 -46.5t3 -55.5v-331h139v351q0 21 -2.5 41.5t-8.5 40.5z" />
    <glyph glyph-name="n" unicode="n" horiz-adv-x="738" 
d="M621 518q-30 40 -70 59t-86 19h-410v-117h594q-6 10 -13 19.5t-15 19.5zM199 0v433h-144v-433h144zM683 0v351q0 43 -13 82h-153q16 -20 21.5 -46.5t5.5 -55.5v-331h139z" />
    <glyph glyph-name="FL006Fh" unicode="o" horiz-adv-x="758" 
d="M702 203v197q0 8 -0.5 16.5t-1.5 16.5h-157q9 -14 12.5 -29t3.5 -32v-134q0 -34 -7 -57t-27.5 -37t-57 -20t-95.5 -6q-52 0 -86.5 8t-55 23t-29 36.5t-8.5 47.5v139q0 37 21 61h-157q-1 -9 -1.5 -18t-0.5 -18v-197q0 -47 15.5 -84.5t52 -63t97.5 -39t152 -13.5
q94 0 157.5 12.5t102 38t54.5 63.5t16 89zM379 480q9 0 17 -0.5t16 -0.5h278q-11 30 -33.5 52.5t-60 37t-91 22t-126.5 7.5q-70 0 -122.5 -8t-90 -23t-61 -37.5t-35.5 -50.5h270q9 1 18 1h21z" />
    <glyph glyph-name="FL0070h" unicode="p" horiz-adv-x="739" 
d="M404 224h-205v209h-144v-433h144v105h267q46 0 86 19t70 59q32 38 47 80t15 87h-2l1 1q0 44 -13 82h-157q14 -18 21 -39.5t9 -44.5q-3 -32 -11.5 -55.5t-24.5 -39t-41 -23t-62 -7.5zM622 516q-30 40 -70.5 60t-86.5 20h-410v-117h593q-11 19 -26 37z" />
    <glyph glyph-name="FL0071h" unicode="q" horiz-adv-x="758" 
d="M702 203v197q0 8 -0.5 16.5t-1.5 16.5h-157q9 -14 12.5 -29t3.5 -32v-134q0 -32 -6 -53.5t-22 -35.5l-70 94h-140l90 -124q-5 -1 -10 -1h-9h-20q-52 0 -86.5 8t-55 23t-29 36.5t-8.5 47.5v139q0 37 21 61h-157q-1 -9 -1.5 -18t-0.5 -18v-197q0 -47 15.5 -84.5t52 -63
t97.5 -39t152 -13.5q69 0 122 6l50 -65h143l-74 99q48 25 68.5 65.5t20.5 97.5zM70 479h270q9 1 18 1h21q9 0 17 -0.5t16 -0.5h278q-11 30 -33.5 52.5t-60 37t-91 22t-126.5 7.5q-70 0 -122.5 -8t-90 -23t-61 -37.5t-35.5 -50.5z" />
    <glyph glyph-name="FL0072h" unicode="r" horiz-adv-x="739" 
d="M404 224h-205v209h-144v-433h144v105h210l78 -105h156l-93 123q39 19 73 59q32 39 46.5 81t14.5 87h-2l1 1q0 43 -13 82h-160q14 -18 20 -40.5t8 -45.5q-3 -32 -10.5 -55t-22.5 -38t-39.5 -22.5t-61.5 -7.5zM621 518q-30 40 -70 59t-86 19h-410v-117h594q-6 10 -13 19.5
t-15 19.5z" />
    <glyph glyph-name="FL0053h" unicode="s" 
d="M238 433h-164q-19 -57 -19 -133v-59h506q-12 -66 -55 -91.5t-106 -25.5h-344v-124h379q139 0 206 78.5t67 217.5v65h-506q9 45 36 72zM95 479h463v117h-230q-86 0 -143.5 -30t-89.5 -87z" />
    <glyph glyph-name="t" unicode="t" horiz-adv-x="694" 
d="M639 596h-584v-117h584v117zM414 0v433h-140v-433h140z" />
    <glyph glyph-name="u" unicode="u" horiz-adv-x="758" 
d="M703 203v230h-144v-195q0 -34 -7 -57t-27 -37t-56.5 -20t-95.5 -6q-52 0 -86.5 8t-55 23t-29 36.5t-8.5 47.5v200h-139v-230q0 -48 15.5 -85.5t52 -64t97.5 -40t153 -13.5q94 0 157.5 12.5t102 38t54.5 63.5t16 89zM703 596h-144v-117h144v117zM55 479h139v117h-139v-117
z" />
    <glyph glyph-name="FL0076h" unicode="v" horiz-adv-x="721" 
d="M241 433h-150l164 -433h208l164 433h-151l-118 -312zM690 598h-151l-45 -119h151zM29 598l45 -119h150l-44 119h-151z" />
    <glyph glyph-name="FL0077h" unicode="w" horiz-adv-x="968" 
d="M556 118v315h-146v-315h-37q-52 0 -86.5 8.5t-55 23.5t-29 36t-8.5 47v200h-139v-230q0 -48 15.5 -85.5t52 -64t97.5 -40t153 -13.5h220q91 0 152.5 13.5t98 40t52 64t15.5 85.5v230h-139v-200q0 -26 -8.5 -47t-29 -36t-55 -23.5t-86.5 -8.5h-37zM410 595v-116h146v116
h-146zM55 479h139v117h-139v-117zM772 479h139v117h-139v-117z" />
    <glyph glyph-name="FL0078h" unicode="x" horiz-adv-x="651" 
d="M252 297l-219 -297h150l144 195l144 -195h150l-219 297l99 136h-150l-24 -34l-25 34h-151zM621 598h-151l-86 -119h150zM30 597l87 -118h151l-87 118h-151z" />
    <glyph glyph-name="FL0079h" unicode="y" 
d="M707 433h-147v-71h-276q-38 3 -58.5 21.5t-24.5 49.5h-143q4 -47 17.5 -82.5t39 -60t64 -38t93.5 -14.5h289q-12 -66 -55 -90t-106 -24h-199v-124h234q139 0 206 78.5t67 217.5zM707 596h-147v-117h147v117zM55 479h146v118h-146v-103v-15z" />
    <glyph glyph-name="FL007Ah" unicode="z" horiz-adv-x="694" 
d="M55 0h584v119h-394l345 314h-191l-344 -314v-119zM639 596h-584v-117h584v117z" />
    <glyph glyph-name="FL007Bh" unicode="{" horiz-adv-x="428" 
d="M373 0v121h-44q-130 0 -130 114v123q0 22 4 41t15 34h-148q-15 -59 -15 -133q0 -71 12 -126.5t39 -94t70.5 -59t106.5 -20.5h90zM373 596h-100q-69 0 -115 -30t-72 -87h287v117z" />
    <glyph glyph-name="FL007Ch" unicode="|" horiz-adv-x="254" 
d="M198 -123v556h-143v-556h143zM198 719h-143v-240h143v240z" />
    <glyph glyph-name="FL007Dh" unicode="}" horiz-adv-x="428" 
d="M55 0h90q63 0 106.5 20.5t70.5 59t39 94t12 126.5q0 76 -16 133h-147q11 -15 15 -34t4 -41v-123q0 -114 -130 -114h-44v-121zM55 479h286q-25 57 -71 87t-115 30h-100v-117z" />
    <glyph glyph-name="FL007Eh" unicode="~" horiz-adv-x="473" 
d="M134 382l-104 -170h100l53 92l59 -93h97l104 170h-100l-54 -92l-58 93h-97z" />
    <glyph glyph-name="FL007Fh" horiz-adv-x="202" 
 />
    <glyph glyph-name="FL00A1h" unicode="&#xa1;" horiz-adv-x="261" 
d="M57 -1h146v423h-146v-423zM205 530q0 26 -21.5 44.5t-53.5 18.5t-54 -18.5t-22 -44.5q0 -34 30 -51h91q14 8 22 21.5t8 29.5z" />
    <glyph glyph-name="FL00A2h" unicode="&#xa2;" horiz-adv-x="701" 
d="M474 0v53h172v121h-172v254h171v5h-568q-11 -26 -16.5 -56t-5.5 -63v-3q0 -71 14.5 -120t43 -79.5t71.5 -44.5t100 -14h46v-53h144zM645 547h-171v49h-144v-49h-57q-57 0 -98.5 -18t-68.5 -50h539v68zM200 288v37q0 45 30 74t99 29h1v-254q-130 0 -130 114z" />
    <glyph glyph-name="FL00A3h" unicode="&#xa3;" horiz-adv-x="738" 
d="M55 231h92v-231h536v122h-392v109h217v127h-217q0 21 4 40t15 35h-148q-10 -34 -13 -78h-94v-124zM178 479h330v117h-143q-70 0 -116 -30t-71 -87z" />
    <glyph glyph-name="FL00A4h" unicode="&#xa4;" horiz-adv-x="651" 
d="M511 229v123q0 20 -4 38.5t-13 33.5l6 9h-349l11 -15q-8 -14 -11 -30.5t-3 -35.5v-123q0 -34 11 -58l-126 -171h150l85 115h118l85 -115h150l-124 167q14 26 14 62zM406 318v-53q0 -49 -57 -49h-49q-55 0 -55 49v53q0 22 12 36t46 14h46q33 0 45 -14t12 -36zM621 598
h-151l-86 -119h150zM30 597l87 -118h151l-87 118h-151z" />
    <glyph glyph-name="FL00A5h" unicode="&#xa5;" horiz-adv-x="651" 
d="M134 208h120v-34h-120v-124h120v-50h144v50h114v124h-114v34h114v124h-84l73 101h-150l-24 -34l-25 34h-151l75 -101h-92v-124zM384 479h151l86 119h-151zM30 597l87 -118h151l-87 118h-151z" />
    <glyph glyph-name="FLE004h" unicode="&#xa6;" horiz-adv-x="758" 
d="M704 0v393q0 20 -3 40h-158q9 -14 12.5 -32.5t3.5 -42.5v-128h-364v136q0 20 5 36.5t16 30.5h-158q-3 -20 -3 -40v-393h140v106h364v-106h145zM70 479h619q-12 29 -36.5 51t-62.5 36.5t-91.5 22t-125.5 7.5q-69 0 -120 -7.5t-87.5 -22.5t-60 -37t-35.5 -50z" />
    <glyph glyph-name="FL00B0h" unicode="&#xa7;" 
d="M238 433h-164q-19 -57 -19 -133v-62h506q-12 -66 -55 -90t-106 -24h-197v-124h232q139 0 206 78.5t67 217.5v65h-506q9 45 36 72zM95 479h463v117h-230q-86 0 -143.5 -30t-89.5 -87z" />
    <glyph glyph-name="FL00A8h" unicode="&#xa8;" horiz-adv-x="462" 
d="M55 532q0 -17 9 -31t24 -22h84q15 8 24.5 22t9.5 31q0 26 -22 44.5t-54 18.5t-53.5 -18.5t-21.5 -44.5zM256 532q0 -17 9 -31t24 -22h84q15 8 24.5 22t9.5 31q0 26 -22 44.5t-54 18.5t-53.5 -18.5t-21.5 -44.5z" />
    <glyph glyph-name="FL00A9h" unicode="&#xa9;" horiz-adv-x="433" 
d="M378 398v35h-64v-21q0 -18 -4 -30.5t-15 -20t-31 -10.5t-51 -3q-56 0 -76.5 16.5t-20.5 45.5v23h-61v-36q0 -24 7.5 -42.5t26 -31t49 -19.5t75.5 -7q47 0 79 6t51 19t27 31.5t8 44.5zM217 542q32 0 51 -4.5t29.5 -12.5t13.5 -18.5t3 -22.5v-5h64v18q0 25 -7.5 43.5
t-26 31t-49.5 18.5t-78 6q-46 0 -77 -7t-50 -19.5t-27 -31.5t-8 -43v-16h61v5q0 27 22 42.5t79 15.5zM280 376v28h-76q-32 0 -32 27v2h-35q2 -27 15 -42t41 -15h87zM204 487h76v28h-90q-38 0 -49 -36h37q8 8 26 8z" />
    <glyph glyph-name="FLE003h" unicode="&#xaa;" horiz-adv-x="738" 
d="M194 0v235h345v-235h144v433h-144v-75h-344q2 21 7.5 40t18.5 35h-152q-14 -42 -14 -82v-351h139zM90 479h593v117h-410q-60 0 -107 -33t-76 -84z" />
    <glyph glyph-name="FL00ABh" unicode="&#xab;" horiz-adv-x="533" 
d="M54 244l186 -104v100l-105 56l105 55v82h-26l-160 -92v-97zM291 244l186 -104v100l-105 56l105 55v82h-26l-160 -92v-97z" />
    <glyph glyph-name="FL00ADh" unicode="&#xac;" horiz-adv-x="558" 
d="M55 358v-123h325v-162h123v285h-448z" />
    <glyph glyph-name="FL00AEh" unicode="&#xad;" horiz-adv-x="407" 
d="M55 234h297v124h-297v-124z" />
    <glyph glyph-name="FL00B8h" unicode="&#xae;" horiz-adv-x="433" 
d="M378 398v35h-64v-21q0 -18 -4 -30.5t-15 -20t-31 -10.5t-51 -3q-56 0 -76.5 16.5t-20.5 45.5v23h-61v-36q0 -24 7.5 -42.5t26 -31t49 -19.5t75.5 -7q47 0 79 6t51 19t27 31.5t8 44.5zM217 542q32 0 51 -4.5t29.5 -12.5t13.5 -18.5t3 -22.5v-5h64v18q0 25 -7.5 43.5
t-26 31t-49.5 18.5t-78 6q-46 0 -77 -7t-50 -19.5t-27 -31.5t-8 -43v-16h61v5q0 27 22 42.5t79 15.5zM204 487h76v28h-90q-38 0 -49 -36h37q8 8 26 8zM137 382h35v51h-35v-51z" />
    <glyph glyph-name="FL00AFh" unicode="&#xaf;" horiz-adv-x="506" 
d="M30 660v-123h446v123h-446z" />
    <glyph glyph-name="FL0040h" unicode="&#xb0;" horiz-adv-x="700" 
d="M501 361v-362h144v297q0 77 -15 137h-149q20 -28 20 -72zM55 596v-117h559q-25 57 -72.5 87t-124.5 30h-362z" />
    <glyph glyph-name="FL00B1h" unicode="&#xb1;" horiz-adv-x="556" 
d="M217 403h-162v-123h160v-93h125v93h161v123h-163v30h-122zM502 123h-446v-123h446v123zM215 498v-19h123v19h-123z" />
    <glyph glyph-name="FL00B2h" unicode="&#xb2;" horiz-adv-x="436" 
d="M381 360h-253v55h253v18h-326v-135h326v62zM307 479h72q-7 55 -40 86t-94 31h-190v-62h172q32 0 53 -11.5t27 -43.5z" />
    <glyph glyph-name="FL00B3h" unicode="&#xb3;" horiz-adv-x="405" 
d="M55 298h181q60 0 86 35t28 100h-295v-18h223q0 -57 -65 -57h-158v-60zM278 479h70q-5 55 -31 86t-76 31h-186v-60h158q38 0 51 -15.5t14 -41.5z" />
    <glyph glyph-name="FL00B4h" unicode="&#xb4;" horiz-adv-x="286" 
d="M111 563l-46 -60q-7 -11 -10 -24h147l19 21q10 13 10 32q0 15 -11.5 25.5t-25.5 21.5q-20 17 -41 17q-11 0 -23 -12t-19 -21zM154 425l7 8h-95q2 -3 4.5 -6t6.5 -6q10 -9 19.5 -12.5t20.5 -3.5q23 0 37 20z" />
    <glyph glyph-name="FL00B5h" unicode="&#xb5;" 
d="M202 362v71h-148v-137q0 -139 67 -217.5t206 -78.5h234v124h-199q-63 0 -106 24t-55 90h278v-1q100 0 152 51t68 145h-141q-15 -57 -80 -71h-276zM55 596l-1 -117h148v117h-147zM561 479h144q1 13 1.5 26.5t0.5 27.5v64h-146v-118z" />
    <glyph glyph-name="FL00B6h" unicode="&#xb6;" horiz-adv-x="739" 
d="M55 351l1 -1h-2q0 -45 14.5 -87t46.5 -81q33 -39 73 -59v-123h133v433h-253q-13 -39 -13 -82zM683 596h-410q-46 0 -86 -19t-70 -59q-8 -10 -15 -19.5t-13 -19.5h594v117zM683 0v433h-144v-433h144z" />
    <glyph glyph-name="FL00B7h" unicode="&#xb7;" horiz-adv-x="261" 
d="M55 295q0 -26 21.5 -44.5t53.5 -18.5t54 18.5t22 44.5t-22 44.5t-54 18.5t-53.5 -18.5t-21.5 -44.5z" />
    <glyph glyph-name="FL00ACh" unicode="&#xb8;" 
d="M687 433h-164q27 -27 37 -72h-506v-65q0 -139 67 -217.5t206 -78.5h380v124h-345q-63 0 -106 24t-55 90h506v62q0 73 -20 133zM54 479h613q-32 57 -90 87t-143 30h-380v-117z" />
    <glyph glyph-name="FL00B9h" unicode="&#xb9;" horiz-adv-x="217" 
d="M55 595v-59h35v-57h72v116h-107zM162 297v136h-72v-136h72z" />
    <glyph glyph-name="FL00BAh" unicode="&#xba;" horiz-adv-x="433" 
d="M378 397v36h-71v-18q0 -17 -3.5 -28.5t-14 -18.5t-28.5 -10t-48 -3q-52 0 -70.5 15.5t-18.5 41.5v21h-69v-37q0 -24 7.5 -42.5t26 -31t49 -19.5t75.5 -7q47 0 79 6t51 19t27 31.5t8 44.5zM217 536q29 0 47 -4t27.5 -11.5t12.5 -17.5t3 -21v-3h71v17q0 25 -7.5 43.5
t-26 31t-49.5 18.5t-78 6q-46 0 -77 -7t-50 -19.5t-27 -31.5t-8 -43v-15h69v3q0 25 21 39.5t72 14.5z" />
    <glyph glyph-name="FL00BBh" unicode="&#xbb;" horiz-adv-x="533" 
d="M318 433h-26v-82l105 -55l-105 -56v-100l186 104v97zM81 433h-26v-82l105 -55l-105 -56v-100l186 104v97z" />
    <glyph glyph-name="FL0050h" unicode="&#xbc;" horiz-adv-x="738" 
d="M199 235h484v116q-2 43 -16 82h-150q12 -16 18 -35t8 -40h-344v75h-144v-433h144v235zM465 596h-410v-117h591q-29 51 -75.5 84t-105.5 33z" />
    <glyph glyph-name="FL00BDh" unicode="&#xbd;" horiz-adv-x="863" 
d="M854 0v62h-253v55h253v33q0 69 -33.5 108.5t-102.5 39.5h-190v-62h172q32 0 53.5 -12t27.5 -45h-253v-179h326zM251 0l366 433h-140l-370 -433h144zM755 596h-139l-100 -117h140zM160 596v-59h41v-58h84v117h-125zM285 298v135h-84v-135h84z" />
    <glyph glyph-name="FL0052h" unicode="&#xbe;" horiz-adv-x="738" 
d="M683 235v116q0 41 -15 82h-151q12 -16 18 -35t8 -40h-344v75h-144v-433h144v235h134l172 -235h160l-174 235h192zM465 596h-410v-117h593q-29 51 -76.5 84t-106.5 33z" />
    <glyph glyph-name="FL00BFh" unicode="&#xbf;" horiz-adv-x="765" 
d="M560 359h-506v-65q0 -139 67 -217.5t206 -78.5h380v124h-345q-63 0 -106 24t-55 90h506v186h-146zM709 530q0 26 -21.5 44.5t-53.5 18.5t-54 -18.5t-22 -44.5q0 -34 30 -51h91q14 8 22 21.5t8 29.5z" />
    <glyph glyph-name="FL00C0h" unicode="&#xc0;" horiz-adv-x="738" 
d="M194 0v235h345v-235h144v433h-144v-75h-344q2 21 7.5 40t18.5 35h-152q-14 -42 -14 -82v-351h139zM683 596h-410q-60 0 -107 -33t-76 -84h593v117zM403 839q-7 9 -19 21t-23 12q-21 0 -41 -17q-12 -13 -24.5 -22.5t-12.5 -24.5q0 -19 10 -32l67 -75q14 -20 37 -20
q11 0 20.5 3.5t19.5 12.5q12 11 17 21.5t5 25.5q0 19 -10 35z" />
    <glyph glyph-name="FL00C1h" unicode="&#xc1;" horiz-adv-x="738" 
d="M194 0v235h345v-235h144v433h-144v-75h-344q2 21 7.5 40t18.5 35h-152q-14 -42 -14 -82v-351h139zM683 596h-410q-60 0 -107 -33t-76 -84h593v117zM334 778q-10 -16 -10 -35q0 -15 5 -25.5t17 -21.5q10 -9 19.5 -12.5t20.5 -3.5q23 0 37 20l67 75q10 13 10 32
q0 15 -12.5 24.5t-24.5 22.5q-20 17 -41 17q-11 0 -23 -12t-19 -21z" />
    <glyph glyph-name="FL00C2h" unicode="&#xc2;" horiz-adv-x="738" 
d="M194 0v235h345v-235h144v433h-144v-75h-344q2 21 7.5 40t18.5 35h-152q-14 -42 -14 -82v-351h139zM683 596h-410q-60 0 -107 -33t-76 -84h593v117zM550 679l-107 186h-97l-104 -186h100l56 105l55 -105h97z" />
    <glyph glyph-name="FL00C3h" unicode="&#xc3;" horiz-adv-x="738" 
d="M194 0v235h345v-235h144v433h-144v-75h-344q2 21 7.5 40t18.5 35h-152q-14 -42 -14 -82v-351h139zM683 596h-410q-60 0 -107 -33t-76 -84h593v117zM300 842l-104 -162h100l53 87l59 -88h97l104 162h-100l-54 -88l-58 89h-97z" />
    <glyph glyph-name="FL00C4h" unicode="&#xc4;" horiz-adv-x="738" 
d="M194 0v235h345v-235h144v433h-144v-75h-344q2 21 7.5 40t18.5 35h-152q-14 -42 -14 -82v-351h139zM683 596h-410q-60 0 -107 -33t-76 -84h593v117zM199 731q0 -26 21.5 -44.5t53.5 -18.5t54 18.5t22 44.5t-22 44.5t-54 18.5t-53.5 -18.5t-21.5 -44.5zM400 731
q0 -26 21.5 -44.5t53.5 -18.5t54 18.5t22 44.5t-22 44.5t-54 18.5t-53.5 -18.5t-21.5 -44.5z" />
    <glyph glyph-name="FL00C5h" unicode="&#xc5;" horiz-adv-x="738" 
d="M194 0v235h345v-235h144v433h-144v-75h-344q2 21 7.5 40t18.5 35h-152q-14 -42 -14 -82v-351h139zM683 596h-410q-60 0 -107 -33t-76 -84h593v117zM300 730q0 -26 21.5 -44.5t53.5 -18.5t54 18.5t22 44.5t-22 44.5t-54 18.5t-53.5 -18.5t-21.5 -44.5z" />
    <glyph glyph-name="FL00C6h" unicode="&#xc6;" horiz-adv-x="1184" 
d="M194 0v105h346v-105h589v121h-316q-130 0 -130 114h360v124h-360q0 21 4 40t15 34h-163v-211h-344v136q2 21 7.5 40t18.5 35h-152q-14 -42 -14 -82v-351h139zM1129 596h-856q-60 0 -107 -33t-76 -84h1039v117z" />
    <glyph glyph-name="FL00C7h" unicode="&#xc7;" horiz-adv-x="700" 
d="M208 -169h81q104 0 157.5 38.5t67.5 130.5h131v121h-316q-130 0 -130 114v123q0 22 4 41t15 34h-148q-15 -59 -15 -133q0 -71 12 -126.5t39 -94t70.5 -59t106.5 -20.5h91q-3 -18 -11 -27.5t-20.5 -14t-30.5 -5.5t-42 -1h-62v-121zM645 596h-372q-69 0 -115 -30t-72 -87
h559v117z" />
    <glyph glyph-name="FL00C8h" unicode="&#xc8;" horiz-adv-x="700" 
d="M645 0v121h-316q-130 0 -130 114h445v125h-445q0 21 4 39.5t14 33.5h-147q-15 -59 -15 -133q0 -71 12 -126.5t39 -94t70.5 -59t106.5 -20.5h362zM645 596h-372q-69 0 -115 -30t-72 -87h559v117zM393 839q-7 9 -19 21t-23 12q-21 0 -41 -17q-12 -13 -24.5 -22.5
t-12.5 -24.5q0 -19 10 -32l67 -75q14 -20 37 -20q11 0 20.5 3.5t19.5 12.5q12 11 17 21.5t5 25.5q0 19 -10 35z" />
    <glyph glyph-name="FL00C9h" unicode="&#xc9;" horiz-adv-x="700" 
d="M645 0v121h-316q-130 0 -130 114h447v126h-447q0 20 4 38.5t14 33.5h-147q-15 -59 -15 -133q0 -71 12 -126.5t39 -94t70.5 -59t106.5 -20.5h362zM645 596h-372q-69 0 -115 -30t-72 -87h559v117zM342 780q-10 -16 -10 -35q0 -15 5 -25.5t17 -21.5q10 -9 19.5 -12.5
t20.5 -3.5q23 0 37 20l67 75q10 13 10 32q0 15 -12.5 24.5t-24.5 22.5q-20 17 -41 17q-11 0 -23 -12t-19 -21z" />
    <glyph glyph-name="FL00CAh" unicode="&#xca;" horiz-adv-x="700" 
d="M645 0v121h-316q-130 0 -130 114h446v125h-446q0 21 4 39.5t14 33.5h-147q-15 -59 -15 -133q0 -71 12 -126.5t39 -94t70.5 -59t106.5 -20.5h362zM645 596h-372q-69 0 -115 -30t-72 -87h559v117zM533 678l-107 186h-97l-104 -186h100l56 105l55 -105h97z" />
    <glyph glyph-name="FL00CBh" unicode="&#xcb;" horiz-adv-x="700" 
d="M645 0v121h-316q-130 0 -130 114h447v123h-447q0 22 4 41t15 34h-148q-15 -59 -15 -133q0 -71 12 -126.5t39 -94t70.5 -59t106.5 -20.5h362zM645 596h-372q-69 0 -115 -30t-72 -87h559v117zM414 730q0 -26 21.5 -44.5t53.5 -18.5t54 18.5t22 44.5t-22 44.5t-54 18.5
t-53.5 -18.5t-21.5 -44.5zM213 730q0 -26 21.5 -44.5t53.5 -18.5t54 18.5t22 44.5t-22 44.5t-54 18.5t-53.5 -18.5t-21.5 -44.5z" />
    <glyph glyph-name="FL00CCh" unicode="&#xcc;" horiz-adv-x="694" 
d="M55 119v-119h584v119h-219v314h-140v-314h-225zM55 479h584v117h-584v-117zM413 781l-46 60q-7 9 -19 21t-23 12q-21 0 -41 -17q-12 -13 -24.5 -22.5t-12.5 -24.5q0 -19 10 -32l67 -75q14 -20 37 -20q11 0 20.5 3.5t19.5 12.5q12 11 17 21.5t5 25.5q0 19 -10 35z" />
    <glyph glyph-name="FL00CDh" unicode="&#xcd;" horiz-adv-x="694" 
d="M639 119h-225v314h-140v-314h-219v-119h584v119zM639 596h-584v-117h584v117zM281 781q-10 -16 -10 -35q0 -15 5 -25.5t17 -21.5q10 -9 19.5 -12.5t20.5 -3.5q23 0 37 20l67 75q10 13 10 32q0 15 -12.5 24.5t-24.5 22.5q-20 17 -41 17q-11 0 -23 -12t-19 -21z" />
    <glyph glyph-name="FL00EEh" unicode="&#xce;" horiz-adv-x="694" 
d="M639 119h-225v314h-140v-314h-219v-119h584v119zM639 596h-584v-117h584v117zM499 681l-107 186h-97l-104 -186h100l56 105l55 -105h97z" />
    <glyph glyph-name="FL00CFh" unicode="&#xcf;" horiz-adv-x="694" 
d="M639 119h-225v314h-140v-314h-219v-119h584v119zM639 596h-584v-117h584v117zM370 732q0 -26 21.5 -44.5t53.5 -18.5t54 18.5t22 44.5t-22 44.5t-54 18.5t-53.5 -18.5t-21.5 -44.5zM169 732q0 -26 21.5 -44.5t53.5 -18.5t54 18.5t22 44.5t-22 44.5t-54 18.5t-53.5 -18.5
t-21.5 -44.5z" />
    <glyph glyph-name="FL00AAh" unicode="&#xd0;" horiz-adv-x="739" 
d="M683 0v433h-550q-10 -10 -17 -20q-32 -38 -47 -80t-15 -87h2l-1 -1q0 -45 14.5 -86t46.5 -79q30 -40 70.5 -60t86.5 -20h410zM334 372h205v-253h-204q-38 0 -64 11t-42.5 29t-24 41t-9.5 47q3 32 11.5 55.5t24.5 39t41 23t62 7.5zM539 596v-105h-267q-37 0 -70 -12h481
v117h-144z" />
    <glyph glyph-name="FL00D1h" unicode="&#xd1;" horiz-adv-x="758" 
d="M641 518q-30 40 -70 59t-86 19h-430v-117h614q-6 10 -13 19.5t-15 19.5zM199 0v433h-144v-433h144zM703 0v351q0 43 -13 82h-153q16 -20 21.5 -46.5t5.5 -55.5v-331h139zM284 841l-104 -162h100l53 87l59 -88h97l104 162h-100l-54 -88l-58 89h-97z" />
    <glyph glyph-name="FL00D2h" unicode="&#xd2;" horiz-adv-x="757" 
d="M702 203v193q0 19 -3 37h-156q9 -14 12.5 -32.5t3.5 -42.5v-120q0 -34 -7 -57t-27.5 -37t-57 -20t-95.5 -6q-52 0 -86.5 8t-55 23t-29 36.5t-8.5 47.5v135q0 40 22 65h-157q-3 -20 -3 -40v-193q0 -47 15.5 -84.5t52 -63t97.5 -39t152 -13.5q94 0 157.5 12.5t102 38
t54.5 63.5t16 89zM373 596q-69 0 -120 -7.5t-87.5 -22.5t-60 -37t-35.5 -50h617q-24 58 -97.5 87.5t-216.5 29.5zM403 839q-7 9 -19 21t-23 12q-21 0 -41 -17q-12 -13 -24.5 -22.5t-12.5 -24.5q0 -19 10 -32l67 -75q14 -20 37 -20q11 0 20.5 3.5t19.5 12.5q12 11 17 21.5
t5 25.5q0 19 -10 35z" />
    <glyph glyph-name="FL00D3h" unicode="&#xd3;" horiz-adv-x="757" 
d="M702 203v193q0 19 -3 37h-156q9 -14 12.5 -32.5t3.5 -42.5v-120q0 -34 -7 -57t-27.5 -37t-57 -20t-95.5 -6q-52 0 -86.5 8t-55 23t-29 36.5t-8.5 47.5v135q0 40 22 65h-157q-3 -20 -3 -40v-193q0 -47 15.5 -84.5t52 -63t97.5 -39t152 -13.5q94 0 157.5 12.5t102 38
t54.5 63.5t16 89zM373 596q-69 0 -120 -7.5t-87.5 -22.5t-60 -37t-35.5 -50h617q-24 58 -97.5 87.5t-216.5 29.5zM309 779q-10 -16 -10 -35q0 -15 5 -25.5t17 -21.5q10 -9 19.5 -12.5t20.5 -3.5q23 0 37 20l67 75q10 13 10 32q0 15 -12.5 24.5t-24.5 22.5q-20 17 -41 17
q-11 0 -23 -12t-19 -21z" />
    <glyph glyph-name="FL00D4h" unicode="&#xd4;" horiz-adv-x="757" 
d="M702 203v193q0 19 -3 37h-156q9 -14 12.5 -32.5t3.5 -42.5v-120q0 -34 -7 -57t-27.5 -37t-57 -20t-95.5 -6q-52 0 -86.5 8t-55 23t-29 36.5t-8.5 47.5v135q0 40 22 65h-157q-3 -20 -3 -40v-193q0 -47 15.5 -84.5t52 -63t97.5 -39t152 -13.5q94 0 157.5 12.5t102 38
t54.5 63.5t16 89zM373 596q-69 0 -120 -7.5t-87.5 -22.5t-60 -37t-35.5 -50h617q-24 58 -97.5 87.5t-216.5 29.5zM530 681l-107 186h-97l-104 -186h100l56 105l55 -105h97z" />
    <glyph glyph-name="FL00D5h" unicode="&#xd5;" horiz-adv-x="757" 
d="M702 203v193q0 19 -3 37h-156q9 -14 12.5 -32.5t3.5 -42.5v-120q0 -34 -7 -57t-27.5 -37t-57 -20t-95.5 -6q-52 0 -86.5 8t-55 23t-29 36.5t-8.5 47.5v135q0 40 22 65h-157q-3 -20 -3 -40v-193q0 -47 15.5 -84.5t52 -63t97.5 -39t152 -13.5q94 0 157.5 12.5t102 38
t54.5 63.5t16 89zM373 596q-69 0 -120 -7.5t-87.5 -22.5t-60 -37t-35.5 -50h617q-24 58 -97.5 87.5t-216.5 29.5zM283 843l-104 -162h100l53 87l59 -88h97l104 162h-100l-54 -88l-58 89h-97z" />
    <glyph glyph-name="FL00D6h" unicode="&#xd6;" horiz-adv-x="757" 
d="M702 203v193q0 19 -3 37h-156q9 -14 12.5 -32.5t3.5 -42.5v-120q0 -34 -7 -57t-27.5 -37t-57 -20t-95.5 -6q-52 0 -86.5 8t-55 23t-29 36.5t-8.5 47.5v135q0 40 22 65h-157q-3 -20 -3 -40v-193q0 -47 15.5 -84.5t52 -63t97.5 -39t152 -13.5q94 0 157.5 12.5t102 38
t54.5 63.5t16 89zM373 596q-69 0 -120 -7.5t-87.5 -22.5t-60 -37t-35.5 -50h617q-24 58 -97.5 87.5t-216.5 29.5zM199 731q0 -26 21.5 -44.5t53.5 -18.5t54 18.5t22 44.5t-22 44.5t-54 18.5t-53.5 -18.5t-21.5 -44.5zM400 731q0 -26 21.5 -44.5t53.5 -18.5t54 18.5t22 44.5
t-22 44.5t-54 18.5t-53.5 -18.5t-21.5 -44.5z" />
    <glyph glyph-name="FL00D7h" unicode="&#xd7;" horiz-adv-x="503" 
d="M196 274l-164 -223h112l108 146l108 -146h113l-164 223l116 159h-113l-60 -83l-61 83h-112zM473 499h-113l-15 -20h113zM30 499l15 -20h112l-14 20h-113z" />
    <glyph glyph-name="FL00D8h" unicode="&#xd8;" horiz-adv-x="757" 
d="M558 358v-123q0 -114 -130 -114h-32l99 312h-139l-96 -302q-61 24 -61 104v123q0 22 4 41t15 34h-148q-15 -59 -15 -133q0 -71 12 -126.5t39 -94t70.5 -59t106.5 -20.5h191q63 0 106.5 20.5t70.5 59t39 94t12 126.5q0 76 -16 133h-148q20 -29 20 -75zM484 596h-211
q-69 0 -115 -30t-72 -87h584q-25 57 -71 87t-115 30z" />
    <glyph glyph-name="FL00D9h" unicode="&#xd9;" horiz-adv-x="758" 
d="M703 191v242h-144v-207q0 -34 -7 -57t-27 -37t-56.5 -20t-95.5 -6q-52 0 -86.5 8t-55 23t-29 36.5t-8.5 47.5v212h-139v-242q0 -48 15.5 -85.5t52 -64t97.5 -40t153 -13.5q94 0 157.5 12.5t102 38t54.5 63.5t16 89zM403 839q-7 9 -19 21t-23 12q-21 0 -41 -17
q-12 -13 -24.5 -22.5t-12.5 -24.5q0 -19 10 -32l67 -75q14 -20 37 -20q11 0 20.5 3.5t19.5 12.5q12 11 17 21.5t5 25.5q0 19 -10 35zM703 596h-144v-117h144v117zM194 596h-139v-117h139v117z" />
    <glyph glyph-name="FL00DAh" unicode="&#xda;" horiz-adv-x="758" 
d="M703 191v242h-144v-207q0 -34 -7 -57t-27 -37t-56.5 -20t-95.5 -6q-52 0 -86.5 8t-55 23t-29 36.5t-8.5 47.5v212h-139v-242q0 -48 15.5 -85.5t52 -64t97.5 -40t153 -13.5q94 0 157.5 12.5t102 38t54.5 63.5t16 89zM309 779q-10 -16 -10 -35q0 -15 5 -25.5t17 -21.5
q10 -9 19.5 -12.5t20.5 -3.5q23 0 37 20l67 75q10 13 10 32q0 15 -12.5 24.5t-24.5 22.5q-20 17 -41 17q-11 0 -23 -12t-19 -21zM703 596h-144v-117h144v117zM194 596h-139v-117h139v117z" />
    <glyph glyph-name="FL00DBh" unicode="&#xdb;" horiz-adv-x="758" 
d="M703 191v242h-144v-207q0 -34 -7 -57t-27 -37t-56.5 -20t-95.5 -6q-52 0 -86.5 8t-55 23t-29 36.5t-8.5 47.5v212h-139v-242q0 -48 15.5 -85.5t52 -64t97.5 -40t153 -13.5q94 0 157.5 12.5t102 38t54.5 63.5t16 89zM530 681l-107 186h-97l-104 -186h100l56 105l55 -105
h97zM703 596h-144v-117h144v117zM194 596h-139v-117h139v117z" />
    <glyph glyph-name="FL00DCh" unicode="&#xdc;" horiz-adv-x="758" 
d="M703 191v242h-144v-207q0 -34 -7 -57t-27 -37t-56.5 -20t-95.5 -6q-52 0 -86.5 8t-55 23t-29 36.5t-8.5 47.5v212h-139v-242q0 -48 15.5 -85.5t52 -64t97.5 -40t153 -13.5q94 0 157.5 12.5t102 38t54.5 63.5t16 89zM703 596h-144v-117h144v117zM194 596h-139v-117h139
v117zM199 731q0 -26 21.5 -44.5t53.5 -18.5t54 18.5t22 44.5t-22 44.5t-54 18.5t-53.5 -18.5t-21.5 -44.5zM400 731q0 -26 21.5 -44.5t53.5 -18.5t54 18.5t22 44.5t-22 44.5t-54 18.5t-53.5 -18.5t-21.5 -44.5z" />
    <glyph glyph-name="FL00DDh" unicode="&#xdd;" 
d="M284 362q-66 13 -81 71h-141q16 -94 68.5 -145t152.5 -51v1h278q-12 -66 -55 -90t-106 -24h-199v-124h234q139 0 206 78.5t67 217.5l-1 137h-147v-71h-276zM331 779q-10 -16 -10 -35q0 -15 5 -25.5t17 -21.5q10 -9 19.5 -12.5t20.5 -3.5q23 0 37 20l67 75q10 13 10 32
q0 15 -12.5 24.5t-24.5 22.5q-20 17 -41 17q-11 0 -23 -12t-19 -21zM707 596h-147v-117h147v117zM201 597h-146v-64v-28q0 -13 2 -26h144v118z" />
    <glyph glyph-name="FL00DEh" unicode="&#xde;" horiz-adv-x="738" 
d="M683 121v116q0 54 -24.5 107t-66.5 89h-537v-433h144v121h484zM403 363q38 0 64 -9.5t42.5 -25.5t24 -38t9.5 -46h-344v119h204zM465 482h-266v114h-144v-117h443q-17 3 -33 3z" />
    <glyph glyph-name="FL00DFh" unicode="&#xdf;" horiz-adv-x="700" 
d="M501 358h-212v-123h212q0 -114 -130 -114h-82v-121h128q63 0 106.5 20.5t70.5 59t39 94t12 126.5q0 76 -16 133h-147q11 -15 15 -34t4 -41zM198 -123v556h-143v-556h143zM427 596h-372v-117h558q-25 57 -71 87t-115 30z" />
    <glyph glyph-name="FL00E0h" unicode="&#xe0;" horiz-adv-x="738" 
d="M194 0v105h346v-105h143v433h-144v-211h-344v136q2 21 7.5 40t18.5 35h-152q-14 -42 -14 -82v-351h139zM683 596h-410q-60 0 -107 -33t-76 -84h593v117zM403 839q-7 9 -19 21t-23 12q-21 0 -41 -17q-12 -13 -24.5 -22.5t-12.5 -24.5q0 -19 10 -32l67 -75q14 -20 37 -20
q11 0 20.5 3.5t19.5 12.5q12 11 17 21.5t5 25.5q0 19 -10 35z" />
    <glyph glyph-name="FL00E1h" unicode="&#xe1;" horiz-adv-x="738" 
d="M194 0v105h346v-105h143v433h-144v-211h-344v136q2 21 7.5 40t18.5 35h-152q-14 -42 -14 -82v-351h139zM683 596h-410q-60 0 -107 -33t-76 -84h593v117zM334 778q-10 -16 -10 -35q0 -15 5 -25.5t17 -21.5q10 -9 19.5 -12.5t20.5 -3.5q23 0 37 20l67 75q10 13 10 32
q0 15 -12.5 24.5t-24.5 22.5q-20 17 -41 17q-11 0 -23 -12t-19 -21z" />
    <glyph glyph-name="FL00E2h" unicode="&#xe2;" horiz-adv-x="738" 
d="M194 0v105h346v-105h143v433h-144v-211h-344v136q2 21 7.5 40t18.5 35h-152q-14 -42 -14 -82v-351h139zM683 596h-410q-60 0 -107 -33t-76 -84h593v117zM550 679l-107 186h-97l-104 -186h100l56 105l55 -105h97z" />
    <glyph glyph-name="FL00E3h" unicode="&#xe3;" horiz-adv-x="738" 
d="M194 0v105h346v-105h143v433h-144v-211h-344v136q2 21 7.5 40t18.5 35h-152q-14 -42 -14 -82v-351h139zM683 596h-410q-60 0 -107 -33t-76 -84h593v117zM300 842l-104 -162h100l53 87l59 -88h97l104 162h-100l-54 -88l-58 89h-97z" />
    <glyph glyph-name="FL00E4h" unicode="&#xe4;" horiz-adv-x="738" 
d="M194 0v105h346v-105h143v433h-144v-211h-344v136q2 21 7.5 40t18.5 35h-152q-14 -42 -14 -82v-351h139zM683 596h-410q-60 0 -107 -33t-76 -84h593v117zM400 731q0 -26 21.5 -44.5t53.5 -18.5t54 18.5t22 44.5t-22 44.5t-54 18.5t-53.5 -18.5t-21.5 -44.5zM199 731
q0 -26 21.5 -44.5t53.5 -18.5t54 18.5t22 44.5t-22 44.5t-54 18.5t-53.5 -18.5t-21.5 -44.5z" />
    <glyph glyph-name="FL00E5h" unicode="&#xe5;" horiz-adv-x="738" 
d="M194 0v105h346v-105h143v433h-144v-211h-344v136q2 21 7.5 40t18.5 35h-152q-14 -42 -14 -82v-351h139zM683 596h-410q-60 0 -107 -33t-76 -84h593v117zM300 730q0 -26 21.5 -44.5t53.5 -18.5t54 18.5t22 44.5t-22 44.5t-54 18.5t-53.5 -18.5t-21.5 -44.5z" />
    <glyph glyph-name="FL00E6h" unicode="&#xe6;" horiz-adv-x="1184" 
d="M194 0v105h346v-105h589v121h-316q-130 0 -130 114h360v124h-360q0 21 4 40t15 34h-163v-211h-344v136q2 21 7.5 40t18.5 35h-152q-14 -42 -14 -82v-351h139zM1129 596h-856q-60 0 -107 -33t-76 -84h1039v117z" />
    <glyph glyph-name="FL00E7h" unicode="&#xe7;" horiz-adv-x="700" 
d="M208 -169h81q104 0 157.5 38.5t67.5 130.5h131v121h-316q-130 0 -130 114v123q0 22 4 41t15 34h-148q-15 -59 -15 -133q0 -71 12 -126.5t39 -94t70.5 -59t106.5 -20.5h91q-3 -18 -11 -27.5t-20.5 -14t-30.5 -5.5t-42 -1h-62v-121zM645 596h-372q-69 0 -115 -30t-72 -87
h559v117z" />
    <glyph glyph-name="FL00E8h" unicode="&#xe8;" horiz-adv-x="700" 
d="M645 0v121h-316q-130 0 -130 114h360v124h-360q0 21 4 40t15 34h-148q-15 -59 -15 -133q0 -71 12 -126.5t39 -94t70.5 -59t106.5 -20.5h362zM645 596h-372q-69 0 -115 -30t-72 -87h559v117zM393 839q-7 9 -19 21t-23 12q-21 0 -41 -17q-12 -13 -24.5 -22.5t-12.5 -24.5
q0 -19 10 -32l67 -75q14 -20 37 -20q11 0 20.5 3.5t19.5 12.5q12 11 17 21.5t5 25.5q0 19 -10 35z" />
    <glyph glyph-name="FL00E9h" unicode="&#xe9;" horiz-adv-x="700" 
d="M645 0v121h-316q-130 0 -130 114h360v124h-360q0 21 4 40t15 34h-148q-15 -59 -15 -133q0 -71 12 -126.5t39 -94t70.5 -59t106.5 -20.5h362zM645 596h-372q-69 0 -115 -30t-72 -87h559v117zM342 780q-10 -16 -10 -35q0 -15 5 -25.5t17 -21.5q10 -9 19.5 -12.5t20.5 -3.5
q23 0 37 20l67 75q10 13 10 32q0 15 -12.5 24.5t-24.5 22.5q-20 17 -41 17q-11 0 -23 -12t-19 -21z" />
    <glyph glyph-name="FL00EAh" unicode="&#xea;" horiz-adv-x="700" 
d="M645 0v121h-316q-130 0 -130 114h360v124h-360q0 21 4 40t15 34h-148q-15 -59 -15 -133q0 -71 12 -126.5t39 -94t70.5 -59t106.5 -20.5h362zM645 596h-372q-69 0 -115 -30t-72 -87h559v117zM533 678l-107 186h-97l-104 -186h100l56 105l55 -105h97z" />
    <glyph glyph-name="FL00EBh" unicode="&#xeb;" horiz-adv-x="700" 
d="M645 0v121h-316q-130 0 -130 114h360v124h-360q0 21 4 40t15 34h-148q-15 -59 -15 -133q0 -71 12 -126.5t39 -94t70.5 -59t106.5 -20.5h362zM645 596h-372q-69 0 -115 -30t-72 -87h559v117zM414 730q0 -26 21.5 -44.5t53.5 -18.5t54 18.5t22 44.5t-22 44.5t-54 18.5
t-53.5 -18.5t-21.5 -44.5zM213 730q0 -26 21.5 -44.5t53.5 -18.5t54 18.5t22 44.5t-22 44.5t-54 18.5t-53.5 -18.5t-21.5 -44.5z" />
    <glyph glyph-name="FL00ECh" unicode="&#xec;" horiz-adv-x="261" 
d="M58 0h144v433h-144v-433zM210 781l-46 60q-7 9 -19 21t-23 12q-21 0 -41 -17q-12 -13 -24.5 -22.5t-12.5 -24.5q0 -19 10 -32l67 -75q14 -20 37 -20q11 0 20.5 3.5t19.5 12.5q12 11 17 21.5t5 25.5q0 19 -10 35zM58 479h144v117h-144v-117z" />
    <glyph glyph-name="FL00EDh" unicode="&#xed;" horiz-adv-x="254" 
d="M199 0v433h-144v-433h144zM47 781q-10 -16 -10 -35q0 -15 5 -25.5t17 -21.5q10 -9 19.5 -12.5t20.5 -3.5q23 0 37 20l67 75q10 13 10 32q0 15 -12.5 24.5t-24.5 22.5q-20 17 -41 17q-11 0 -23 -12t-19 -21zM199 596h-144v-117h144v117z" />
    <glyph glyph-name="FL00F7h" unicode="&#xee;" horiz-adv-x="254" 
d="M199 0v433h-144v-433h144zM280 678l-107 186h-97l-104 -186h100l56 105l55 -105h97zM199 596h-144v-117h144v117z" />
    <glyph glyph-name="FL00EFh" unicode="&#xef;" horiz-adv-x="254" 
d="M199 0v433h-144v-433h144zM199 596h-144v-117h144v117zM-47 726q0 -26 21.5 -44.5t53.5 -18.5t54 18.5t22 44.5t-22 44.5t-54 18.5t-53.5 -18.5t-21.5 -44.5zM154 726q0 -26 21.5 -44.5t53.5 -18.5t54 18.5t22 44.5t-22 44.5t-54 18.5t-53.5 -18.5t-21.5 -44.5z" />
    <glyph glyph-name="FL00F0h" unicode="&#xf0;" 
d="M689 433h-166q27 -27 37 -72h-506v-65q0 -139 67 -217.5t206 -78.5h152q56 0 96.5 16t67.5 46.5t42 74.5t20 101h2v89q-1 58 -18 106zM54 479h615q-32 56 -89.5 86.5t-145.5 30.5h-380v-117zM201 238h363l-1 -3q0 -51 -27.5 -76.5t-75.5 -36.5v2h-98q-63 0 -106 24
t-55 90z" />
    <glyph glyph-name="FL00F1h" unicode="&#xf1;" horiz-adv-x="758" 
d="M641 518q-30 40 -70 59t-86 19h-430v-117h614q-6 10 -13 19.5t-15 19.5zM199 0v433h-144v-433h144zM703 0v351q0 43 -13 82h-153q16 -20 21.5 -46.5t5.5 -55.5v-331h139zM284 841l-104 -162h100l53 87l59 -88h97l104 162h-100l-54 -88l-58 89h-97z" />
    <glyph glyph-name="FL00F2h" unicode="&#xf2;" horiz-adv-x="757" 
d="M702 203v193q0 19 -3 37h-156q9 -14 12.5 -32.5t3.5 -42.5v-120q0 -34 -7 -57t-27.5 -37t-57 -20t-95.5 -6q-52 0 -86.5 8t-55 23t-29 36.5t-8.5 47.5v135q0 40 22 65h-157q-3 -20 -3 -40v-193q0 -47 15.5 -84.5t52 -63t97.5 -39t152 -13.5q94 0 157.5 12.5t102 38
t54.5 63.5t16 89zM373 596q-69 0 -120 -7.5t-87.5 -22.5t-60 -37t-35.5 -50h617q-24 58 -97.5 87.5t-216.5 29.5zM403 839q-7 9 -19 21t-23 12q-21 0 -41 -17q-12 -13 -24.5 -22.5t-12.5 -24.5q0 -19 10 -32l67 -75q14 -20 37 -20q11 0 20.5 3.5t19.5 12.5q12 11 17 21.5
t5 25.5q0 19 -10 35z" />
    <glyph glyph-name="FL00F3h" unicode="&#xf3;" horiz-adv-x="757" 
d="M702 203v193q0 19 -3 37h-156q9 -14 12.5 -32.5t3.5 -42.5v-120q0 -34 -7 -57t-27.5 -37t-57 -20t-95.5 -6q-52 0 -86.5 8t-55 23t-29 36.5t-8.5 47.5v135q0 40 22 65h-157q-3 -20 -3 -40v-193q0 -47 15.5 -84.5t52 -63t97.5 -39t152 -13.5q94 0 157.5 12.5t102 38
t54.5 63.5t16 89zM373 596q-69 0 -120 -7.5t-87.5 -22.5t-60 -37t-35.5 -50h617q-24 58 -97.5 87.5t-216.5 29.5zM309 779q-10 -16 -10 -35q0 -15 5 -25.5t17 -21.5q10 -9 19.5 -12.5t20.5 -3.5q23 0 37 20l67 75q10 13 10 32q0 15 -12.5 24.5t-24.5 22.5q-20 17 -41 17
q-11 0 -23 -12t-19 -21z" />
    <glyph glyph-name="FL00F4h" unicode="&#xf4;" horiz-adv-x="757" 
d="M702 203v193q0 19 -3 37h-156q9 -14 12.5 -32.5t3.5 -42.5v-120q0 -34 -7 -57t-27.5 -37t-57 -20t-95.5 -6q-52 0 -86.5 8t-55 23t-29 36.5t-8.5 47.5v135q0 40 22 65h-157q-3 -20 -3 -40v-193q0 -47 15.5 -84.5t52 -63t97.5 -39t152 -13.5q94 0 157.5 12.5t102 38
t54.5 63.5t16 89zM373 596q-69 0 -120 -7.5t-87.5 -22.5t-60 -37t-35.5 -50h617q-24 58 -97.5 87.5t-216.5 29.5zM530 681l-107 186h-97l-104 -186h100l56 105l55 -105h97z" />
    <glyph glyph-name="FL00F5h" unicode="&#xf5;" horiz-adv-x="757" 
d="M702 203v193q0 19 -3 37h-156q9 -14 12.5 -32.5t3.5 -42.5v-120q0 -34 -7 -57t-27.5 -37t-57 -20t-95.5 -6q-52 0 -86.5 8t-55 23t-29 36.5t-8.5 47.5v135q0 40 22 65h-157q-3 -20 -3 -40v-193q0 -47 15.5 -84.5t52 -63t97.5 -39t152 -13.5q94 0 157.5 12.5t102 38
t54.5 63.5t16 89zM373 596q-69 0 -120 -7.5t-87.5 -22.5t-60 -37t-35.5 -50h617q-24 58 -97.5 87.5t-216.5 29.5zM283 843l-104 -162h100l53 87l59 -88h97l104 162h-100l-54 -88l-58 89h-97z" />
    <glyph glyph-name="FL00F6h" unicode="&#xf6;" horiz-adv-x="757" 
d="M702 203v193q0 19 -3 37h-156q9 -14 12.5 -32.5t3.5 -42.5v-120q0 -34 -7 -57t-27.5 -37t-57 -20t-95.5 -6q-52 0 -86.5 8t-55 23t-29 36.5t-8.5 47.5v135q0 40 22 65h-157q-3 -20 -3 -40v-193q0 -47 15.5 -84.5t52 -63t97.5 -39t152 -13.5q94 0 157.5 12.5t102 38
t54.5 63.5t16 89zM373 596q-69 0 -120 -7.5t-87.5 -22.5t-60 -37t-35.5 -50h617q-24 58 -97.5 87.5t-216.5 29.5zM199 731q0 -26 21.5 -44.5t53.5 -18.5t54 18.5t22 44.5t-22 44.5t-54 18.5t-53.5 -18.5t-21.5 -44.5zM400 731q0 -26 21.5 -44.5t53.5 -18.5t54 18.5t22 44.5
t-22 44.5t-54 18.5t-53.5 -18.5t-21.5 -44.5z" />
    <glyph glyph-name="FL0100h" unicode="&#xf7;" horiz-adv-x="556" 
d="M55 358v-123h446v123h-446zM207 138q0 -26 21.5 -44.5t53.5 -18.5t54 18.5t22 44.5t-22 44.5t-54 18.5t-53.5 -18.5t-21.5 -44.5zM282 519q-25 0 -44 -11.5t-27 -28.5h142q-8 17 -27 28.5t-44 11.5zM282 393q25 0 44 11t27 29h-142q8 -18 27 -29t44 -11z" />
    <glyph glyph-name="FL00F8h" unicode="&#xf8;" horiz-adv-x="757" 
d="M558 358v-123q0 -114 -130 -114h-32l99 312h-139l-96 -302q-61 24 -61 104v123q0 22 4 41t15 34h-148q-15 -59 -15 -133q0 -71 12 -126.5t39 -94t70.5 -59t106.5 -20.5h191q63 0 106.5 20.5t70.5 59t39 94t12 126.5q0 76 -16 133h-148q20 -29 20 -75zM484 596h-211
q-69 0 -115 -30t-72 -87h584q-25 57 -71 87t-115 30z" />
    <glyph glyph-name="FL00F9h" unicode="&#xf9;" horiz-adv-x="758" 
d="M703 191v242h-144v-207q0 -34 -7 -57t-27 -37t-56.5 -20t-95.5 -6q-52 0 -86.5 8t-55 23t-29 36.5t-8.5 47.5v212h-139v-242q0 -48 15.5 -85.5t52 -64t97.5 -40t153 -13.5q94 0 157.5 12.5t102 38t54.5 63.5t16 89zM403 839q-7 9 -19 21t-23 12q-21 0 -41 -17
q-12 -13 -24.5 -22.5t-12.5 -24.5q0 -19 10 -32l67 -75q14 -20 37 -20q11 0 20.5 3.5t19.5 12.5q12 11 17 21.5t5 25.5q0 19 -10 35zM703 596h-144v-117h144v117zM194 596h-139v-117h139v117z" />
    <glyph glyph-name="FL00FAh" unicode="&#xfa;" horiz-adv-x="758" 
d="M703 191v242h-144v-207q0 -34 -7 -57t-27 -37t-56.5 -20t-95.5 -6q-52 0 -86.5 8t-55 23t-29 36.5t-8.5 47.5v212h-139v-242q0 -48 15.5 -85.5t52 -64t97.5 -40t153 -13.5q94 0 157.5 12.5t102 38t54.5 63.5t16 89zM309 779q-10 -16 -10 -35q0 -15 5 -25.5t17 -21.5
q10 -9 19.5 -12.5t20.5 -3.5q23 0 37 20l67 75q10 13 10 32q0 15 -12.5 24.5t-24.5 22.5q-20 17 -41 17q-11 0 -23 -12t-19 -21zM703 596h-144v-117h144v117zM194 596h-139v-117h139v117z" />
    <glyph glyph-name="FL00FBh" unicode="&#xfb;" horiz-adv-x="758" 
d="M703 191v242h-144v-207q0 -34 -7 -57t-27 -37t-56.5 -20t-95.5 -6q-52 0 -86.5 8t-55 23t-29 36.5t-8.5 47.5v212h-139v-242q0 -48 15.5 -85.5t52 -64t97.5 -40t153 -13.5q94 0 157.5 12.5t102 38t54.5 63.5t16 89zM530 681l-107 186h-97l-104 -186h100l56 105l55 -105
h97zM703 596h-144v-117h144v117zM194 596h-139v-117h139v117z" />
    <glyph glyph-name="FL00FCh" unicode="&#xfc;" horiz-adv-x="758" 
d="M703 191v242h-144v-207q0 -34 -7 -57t-27 -37t-56.5 -20t-95.5 -6q-52 0 -86.5 8t-55 23t-29 36.5t-8.5 47.5v212h-139v-242q0 -48 15.5 -85.5t52 -64t97.5 -40t153 -13.5q94 0 157.5 12.5t102 38t54.5 63.5t16 89zM703 596h-144v-117h144v117zM194 596h-139v-117h139
v117zM199 731q0 -26 21.5 -44.5t53.5 -18.5t54 18.5t22 44.5t-22 44.5t-54 18.5t-53.5 -18.5t-21.5 -44.5zM400 731q0 -26 21.5 -44.5t53.5 -18.5t54 18.5t22 44.5t-22 44.5t-54 18.5t-53.5 -18.5t-21.5 -44.5z" />
    <glyph glyph-name="FL00FDh" unicode="&#xfd;" 
d="M284 362q-66 13 -81 71h-141q16 -94 68.5 -145t152.5 -51v1h278q-12 -66 -55 -90t-106 -24h-199v-124h234q139 0 206 78.5t67 217.5l-1 137h-147v-71h-276zM331 779q-10 -16 -10 -35q0 -15 5 -25.5t17 -21.5q10 -9 19.5 -12.5t20.5 -3.5q23 0 37 20l67 75q10 13 10 32
q0 15 -12.5 24.5t-24.5 22.5q-20 17 -41 17q-11 0 -23 -12t-19 -21zM707 596h-147v-117h147v117zM201 597h-146v-64v-28q0 -13 2 -26h144v118z" />
    <glyph glyph-name="FL00FEh" unicode="&#xfe;" horiz-adv-x="738" 
d="M683 121v116q0 54 -24.5 107t-66.5 89h-537v-433h144v121h484zM403 363q38 0 64 -9.5t42.5 -25.5t24 -38t9.5 -46h-344v119h204zM465 482h-266v114h-144v-117h443q-17 3 -33 3z" />
    <glyph glyph-name="FL00FFh" unicode="&#xff;" 
d="M284 362q-66 13 -81 71h-141q16 -94 68.5 -145t152.5 -51v1h278q-12 -66 -55 -90t-106 -24h-199v-124h234q139 0 206 78.5t67 217.5l-1 137h-147v-71h-276zM707 596h-147v-117h147v117zM201 597h-146v-64v-28q0 -13 2 -26h144v118zM199 731q0 -26 21.5 -44.5t53.5 -18.5
t54 18.5t22 44.5t-22 44.5t-54 18.5t-53.5 -18.5t-21.5 -44.5zM400 731q0 -26 21.5 -44.5t53.5 -18.5t54 18.5t22 44.5t-22 44.5t-54 18.5t-53.5 -18.5t-21.5 -44.5z" />
    <glyph glyph-name="FL0152h" unicode="&#x152;" horiz-adv-x="1148" 
d="M503 300q0 -54 6.5 -99t21.5 -80h-202q-130 0 -130 114v123q0 22 4 41t15 34h-148q-15 -59 -15 -133q0 -71 12 -126.5t39 -94t70.5 -59t106.5 -20.5h810v121h-316q-130 0 -130 114h360v124h-360q0 21 4 40t15 34h-148q-15 -59 -15 -133zM1093 596h-820q-69 0 -115 -30
t-72 -87h1007v117z" />
    <glyph glyph-name="FL0153h" unicode="&#x153;" horiz-adv-x="1148" 
d="M503 300q0 -54 6.5 -99t21.5 -80h-202q-130 0 -130 114v123q0 22 4 41t15 34h-148q-15 -59 -15 -133q0 -71 12 -126.5t39 -94t70.5 -59t106.5 -20.5h810v121h-316q-130 0 -130 114h360v124h-360q0 21 4 40t15 34h-148q-15 -59 -15 -133zM1093 596h-820q-69 0 -115 -30
t-72 -87h1007v117z" />
    <glyph glyph-name="FL0160h" unicode="&#x160;" 
d="M55 300v-62h506q-12 -66 -55 -90t-106 -24h-345v-124h380q139 0 206 78.5t67 217.5v65h-506q9 45 36 72h-164q-19 -57 -19 -133zM708 596h-380q-86 0 -143.5 -30t-89.5 -87h613v117zM230 865l105 -185h97l104 185h-100l-56 -104l-53 103z" />
    <glyph glyph-name="FL0162h" unicode="&#x161;" 
d="M238 433h-164q-19 -57 -19 -133v-62h506q-12 -66 -55 -90t-106 -24h-344v-124h379q139 0 206 78.5t67 217.5v65h-506q9 45 36 72zM95 479h463v117h-230q-86 0 -143.5 -30t-89.5 -87zM230 865l105 -185h97l104 185h-100l-56 -104l-53 103z" />
    <glyph glyph-name="FL0178h" unicode="&#x178;" 
d="M284 362q-66 13 -81 71h-141q16 -94 68.5 -145t152.5 -51v1h278q-12 -66 -55 -90t-106 -24h-199v-124h234q139 0 206 78.5t67 217.5l-1 137h-147v-71h-276zM707 596h-147v-117h147v117zM201 597h-146v-64v-28q0 -13 2 -26h144v118zM199 731q0 -26 21.5 -44.5t53.5 -18.5
t54 18.5t22 44.5t-22 44.5t-54 18.5t-53.5 -18.5t-21.5 -44.5zM400 731q0 -26 21.5 -44.5t53.5 -18.5t54 18.5t22 44.5t-22 44.5t-54 18.5t-53.5 -18.5t-21.5 -44.5z" />
    <glyph glyph-name="FL017Dh" unicode="&#x17d;" horiz-adv-x="694" 
d="M55 0h584v119h-394l345 314h-191l-344 -314v-119zM639 596h-584v-117h584v117zM192 865l105 -185h97l104 185h-100l-56 -104l-53 103z" />
    <glyph glyph-name="FL0161h" unicode="&#x17e;" horiz-adv-x="694" 
d="M55 0h584v119h-394l345 314h-191l-344 -314v-119zM639 596h-584v-117h584v117zM192 865l105 -185h97l104 185h-100l-56 -104l-53 103z" />
    <glyph glyph-name="FL0192h" unicode="&#x192;" horiz-adv-x="700" 
d="M219 433h-150q-8 -30 -11 -64.5t-3 -72.5v-297h144v362q0 46 20 72zM645 596h-362q-78 0 -125.5 -30t-72.5 -87h560v117z" />
    <glyph glyph-name="FL02C6h" unicode="&#x2c6;" horiz-adv-x="418" 
d="M159 595l-65 -116h98l19 35l18 -35h93l-66 116h-97zM155 409l13 24h-100l-13 -24h100zM363 409l-14 24h-96l13 -24h97z" />
    <glyph glyph-name="FL02DCh" unicode="&#x2dc;" horiz-adv-x="473" 
d="M134 595l-71 -116h98l22 38l24 -38h165l71 115h-100l-54 -92l-58 93h-97zM242 424h97l5 9h-108zM130 425l4 8h-99l-5 -8h100z" />
    <glyph glyph-name="FL2013h" unicode="&#x2013;" horiz-adv-x="488" 
d="M55 234h378v124h-378v-124z" />
    <glyph glyph-name="FL2014h" unicode="&#x2014;" horiz-adv-x="556" 
d="M55 358v-123h446v123h-446z" />
    <glyph glyph-name="FL2018h" unicode="&#x2018;" horiz-adv-x="261" 
d="M206 533q0 26 -22 44.5t-54 18.5t-53.5 -18.5t-21.5 -44.5v-54h151v54zM55 416q0 -26 21.5 -45t53.5 -19t54 18.5t22 44.5v18h-151v-17z" />
    <glyph glyph-name="FL2019h" unicode="&#x2019;" horiz-adv-x="261" 
d="M206 533q0 26 -22 44.5t-54 18.5t-53.5 -18.5t-21.5 -44.5v-54h151v54zM55 416q0 -26 21.5 -45t53.5 -19t54 18.5t22 44.5v18h-151v-17z" />
    <glyph glyph-name="FL201Ah" unicode="&#x201a;" horiz-adv-x="261" 
d="M55 -54q0 -26 21.5 -45t53.5 -19t54 18.5t22 44.5v118q0 26 -22 44.5t-54 18.5t-53.5 -18.5t-21.5 -44.5v-117z" />
    <glyph glyph-name="FL201Ch" unicode="&#x201c;" horiz-adv-x="463" 
d="M408 533q0 26 -22 44.5t-54 18.5t-53.5 -18.5t-21.5 -44.5v-54h151v54zM206 532q0 26 -22 44.5t-54 18.5t-53.5 -18.5t-21.5 -44.5v-53h151v53zM55 415q0 -26 21.5 -45t53.5 -19t54 18.5t22 44.5v19h-151v-18zM257 416q0 -26 21.5 -45t53.5 -19t54 18.5t22 44.5v18h-151
v-17z" />
    <glyph glyph-name="FL201Dh" unicode="&#x201d;" horiz-adv-x="463" 
d="M408 533q0 26 -22 44.5t-54 18.5t-53.5 -18.5t-21.5 -44.5v-54h151v54zM206 532q0 26 -22 44.5t-54 18.5t-53.5 -18.5t-21.5 -44.5v-53h151v53zM55 415q0 -26 21.5 -45t53.5 -19t54 18.5t22 44.5v19h-151v-18zM257 416q0 -26 21.5 -45t53.5 -19t54 18.5t22 44.5v18h-151
v-17z" />
    <glyph glyph-name="FL201Eh" unicode="&#x201e;" horiz-adv-x="463" 
d="M257 -54q0 -26 21.5 -45t53.5 -19t54 18.5t22 44.5v118q0 26 -22 44.5t-54 18.5t-53.5 -18.5t-21.5 -44.5v-117zM55 -53q0 -26 21.5 -45t53.5 -19t54 18.5t22 44.5v118q0 26 -22 44.5t-54 18.5t-53.5 -18.5t-21.5 -44.5v-117z" />
    <glyph glyph-name="FL2020h" unicode="&#x2020;" horiz-adv-x="495" 
d="M55 354h121v-354h144v355h120v78h-385v-79zM320 479v117h-144v-117h144z" />
    <glyph glyph-name="FL2021h" unicode="&#x2021;" horiz-adv-x="495" 
d="M55 354h121v-123h-121v-125h121v-106h144v107h120v124h-120v124h120v78h-385v-79zM320 596h-144v-117h144v117z" />
    <glyph glyph-name="FL2022h" unicode="&#x2022;" horiz-adv-x="473" 
d="M418 358q0 22 -4 41t-15 34h-325q-11 -15 -15 -34t-4 -41v-123q0 -114 123 -114h110q130 0 130 114v123z" />
    <glyph glyph-name="FL2026h" unicode="&#x2026;" horiz-adv-x="710" 
d="M256 63q0 -26 21.5 -44.5t53.5 -18.5t54 18.5t22 44.5t-22 44.5t-54 18.5t-53.5 -18.5t-21.5 -44.5zM55 63q0 -26 21.5 -44.5t53.5 -18.5t54 18.5t22 44.5t-22 44.5t-54 18.5t-53.5 -18.5t-21.5 -44.5zM457 63q0 -26 21.5 -44.5t53.5 -18.5t54 18.5t22 44.5t-22 44.5
t-54 18.5t-53.5 -18.5t-21.5 -44.5z" />
    <glyph glyph-name="FL2030h" unicode="&#x2030;" horiz-adv-x="1213" 
d="M808 101v99q0 25 -7.5 43.5t-26 31t-49.5 18.5t-78 6q-46 0 -77 -7t-50 -19.5t-27 -31.5t-8 -43v-98q0 -24 7.5 -42.5t26 -31t49 -19.5t75.5 -7q47 0 79 6t51 19t27 31.5t8 44.5zM1158 101v99q0 25 -7.5 43.5t-26 31t-49.5 18.5t-78 6q-46 0 -77 -7t-50 -19.5t-27 -31.5
t-8 -43v-98q0 -24 7.5 -42.5t26 -31t49 -19.5t75.5 -7q47 0 79 6t51 19t27 31.5t8 44.5zM251 0l366 433h-140l-370 -433h144zM378 397v36h-85v-11q0 -27 -15 -37.5t-65 -10.5q-44 0 -59.5 12.5t-15.5 32.5v14h-83v-37q0 -24 7.5 -42.5t26 -31t49 -19.5t75.5 -7q47 0 79 6
t51 19t27 31.5t8 44.5zM217 518q24 0 38.5 -3t22.5 -8.5t11.5 -12.5t3.5 -15h85v17q0 25 -7.5 43.5t-26 31t-49.5 18.5t-78 6q-46 0 -77 -7t-50 -19.5t-27 -31.5t-8 -43v-15h83q2 18 19.5 28.5t59.5 10.5zM997 222q25 0 40 -3.5t23 -9t10.5 -13.5t2.5 -17v-53
q0 -27 -15 -37.5t-65 -10.5q-44 0 -59.5 12.5t-15.5 32.5v56q0 20 17 31.5t62 11.5zM647 222q25 0 40 -3.5t23 -9t10.5 -13.5t2.5 -17v-53q0 -27 -15 -37.5t-65 -10.5q-44 0 -59.5 12.5t-15.5 32.5v56q0 20 17 31.5t62 11.5zM755 596h-139l-100 -117h140z" />
    <glyph glyph-name="FL2039h" unicode="&#x2039;" horiz-adv-x="296" 
d="M55 244l186 -104v100l-105 56l105 55v82h-26l-160 -92v-97z" />
    <glyph glyph-name="FL203Ah" unicode="&#x203a;" horiz-adv-x="296" 
d="M81 433h-26v-82l105 -55l-105 -56v-100l186 104v97z" />
    <glyph glyph-name="FL20ACh" unicode="&#x20ac;" horiz-adv-x="742" 
d="M55 317h110v-33h-110v-124h125q20 -78 71 -119t142 -41h294v121h-248q-77 0 -108 39h236v124h-258v33h258v116h-512v-116zM687 596h-304q-71 0 -116.5 -30t-71.5 -87h492v117z" />
    <glyph glyph-name="FL04E5h" unicode="&#x2122;" horiz-adv-x="1184" 
d="M423 296q-17 69 -77 69h-8q-6 0 -10 -4q-70 -43 -70 -170q12 -34 63 -34q8 0 14.5 1t15.5 2q54 0 72 136zM846 168l-2 147q-11 63 -46 63q-14 0 -24 -7q-35 -48 -53.5 -96.5t-22.5 -97.5h38q22 43 46 43t43 -43zM589 160v194l-34 12l-5 -137l-107 124l3 -198l30 5v96
q64 -96 113 -96zM1022 166v195l-30 11l-8 -134l-106 123l4 -197l27 4v96q69 -98 113 -98zM245 369q-135 -23 -135 -114q0 -8 0.5 -12.5l1.5 -13.5q15 -87 71 -87q9 0 17 1t19 7l-1 34q-4 -4 -35 -4q-40 0 -40 39q0 42 29 77q21 29 47 29q13 0 20 -4zM389 269q0 -14 -3.5 -28
t-12.5 -28q-31 -19 -50 -19q-30 0 -30 48v14q24 61 56 61q21 0 35 -24q2 -5 3.5 -10.5t1.5 -13.5zM676 372l-34 -6l-19 -202l44 14zM90 366l-33 -9l-18 -202l42 16zM1117 361l-44 11l-7 -152l28 -3zM814 264h-59l36 65zM1101 155l-28 13l-26 -19l23 -24z" />
    <glyph glyph-name="FL06D9h" horiz-adv-x="933" 
d="M373 190h199v-80h78l1 -1q95 3 145.5 52.5t70.5 139.5v83q0 25 -3 49h-131q1 -8 1 -16v-15v-78q-8 -58 -54 -80v189h-377q-22 -24 -34.5 -56.5t-12.5 -70.5v-196h117v80zM203 433h-135q-7 -32 -10 -65t-3 -68q0 -71 11.5 -137t38 -117.5t69.5 -82.5t106 -31h369v122h-324
q-3 -1 -10 -1h-9q-40 0 -61.5 17.5t-31.5 44.5t-12 59t-2 61v123q0 20 1 39t3 36zM723 479h133q-19 81 -70 130t-126 49h-388q-36 0 -66.5 -13.5t-54.5 -37.5t-42 -56.5t-30 -71.5h136q13 28 39.5 44.5t74.5 16.5h275q55 0 81.5 -17.5t37.5 -43.5zM572 394v-84h-199
q2 30 8.5 46.5t18.5 24.5t30.5 10t44.5 3h97zM370 479h310v16h-226q-44 0 -84 -16z" />
    <glyph glyph-name="FL0064h" horiz-adv-x="739" 
d="M465 0q46 0 86.5 20t70.5 60q32 38 46.5 79t14.5 86l-1 1h2q0 45 -15 87t-47 80q-5 5 -8.5 10t-8.5 10h-550v-433h410zM404 372q37 0 62 -7.5t41 -23t24.5 -39t11.5 -55.5q-2 -24 -9.5 -47t-24 -41t-42.5 -29t-64 -11h-204v253h205zM199 596h-144v-117h480q-33 12 -69 12
h-267v105z" />
    <glyph glyph-name="FLE005h" horiz-adv-x="739" 
d="M683 0v433h-550q-10 -10 -17 -20q-32 -38 -47 -80t-15 -87h2l-1 -1q0 -45 14.5 -86t46.5 -79q30 -40 70.5 -60t86.5 -20h410zM334 372h205v-253h-204q-38 0 -64 11t-42.5 29t-24 41t-9.5 47q3 32 11.5 55.5t24.5 39t41 23t62 7.5zM539 596v-105h-267q-37 0 -70 -12h481
v117h-144z" />
  </font>
</defs>
</svg>
