<?xml version="1.0" standalone="no"?>
<!DOCTYPE svg PUBLIC "-//W3C//DTD SVG 1.1//EN" "http://www.w3.org/Graphics/SVG/1.1/DTD/svg11.dtd" >
<svg xmlns="http://www.w3.org/2000/svg" xmlns:xlink="http://www.w3.org/1999/xlink" version="1.1">
<metadata></metadata>
<defs>
<font id="biergrten_shadowshadow" horiz-adv-x="1202" >
<font-face units-per-em="2048" ascent="1638" descent="-410" />
<missing-glyph horiz-adv-x="491" />
<glyph horiz-adv-x="0" />
<glyph unicode="&#xd;" horiz-adv-x="1024" />
<glyph unicode=" "  horiz-adv-x="491" />
<glyph unicode="&#x09;" horiz-adv-x="491" />
<glyph unicode="&#xa0;" horiz-adv-x="491" />
<glyph unicode="!" horiz-adv-x="786" d="M-29 1282q0 -68 49 -88l60 -57q0 -2 2 -4q4 -37 8 -81t8 -83t6 -70t2 -43q0 -47 -16 -71.5t-35 -45.5q-23 -23 -36 -43t-13 -55q0 -8 1 -11t7 -20l207 -215q-47 -39 -84 -87t-37 -113q0 -55 34 -107.5t81 -83.5l41 -39q31 -31 70 -50t77 -19q37 0 70 15t57.5 40.5 t39 59.5t14.5 71q0 20 -6.5 52t-17.5 64.5t-27.5 63.5t-34.5 51l209 217q6 6 7 11.5t1 9.5q0 12 -11.5 34.5t-25.5 37.5l-57 55l-3 2q-4 8 -9 14t-9 13v528q0 31 -34 83t-79 97l-20 21q-20 27 -44 51t-47.5 43.5t-45 32t-37.5 12.5q-31 0 -85 -34t-106.5 -80t-91.5 -96 t-39 -83zM-2 1282q0 31 36 76t84 87t97 72.5t78 30.5q25 0 59.5 -27.5t67.5 -64.5t56.5 -77t23.5 -64v-592q6 0 17 -4t23.5 -9t23.5 -10.5t16 -9.5q14 -12 27.5 -34.5t4.5 -30.5l-223 -232q20 -14 37.5 -44t30 -63.5t19.5 -67.5t7 -56q0 -35 -13 -64.5t-34.5 -52t-50.5 -36 t-61 -13.5q-35 0 -70 17.5t-63.5 45t-46 63.5t-17.5 73q0 68 43 114.5t90 83.5l-223 232l-2 6t-2 10q0 31 15 50.5t34.5 39t35 48t15.5 77.5q0 20 -4 71.5t-10 109t-11.5 108.5t-7.5 72q-102 -16 -102 65zM471 1427v3q2 -2 3 -4.5t5 -4.5z" />
<glyph unicode="&#x22;" horiz-adv-x="1142" d="M-31 1307l125 -209l131 -193l41 -41q8 -4 10 -4l70 -67q12 -4 14 -5h13h6q2 0 5 1.5t5 1.5q18 2 46 25.5t55.5 53t50 59t26.5 42.5q0 2 1 5t1 11q2 18 3 45t1 49v37q0 18 -4 35l33 -53l131 -193l39 -37q8 -4 10 -4l33 -32l37 -35q16 -6 19 -7t10 -1h6q6 0 10 4h4 q16 2 44 25.5t55.5 52t49 58.5t27.5 44q2 14 2 18v23q0 10 1 19t1 20v30q0 104 -28.5 189.5t-100.5 157.5l-30 30q-41 49 -99 99l-266 -58l-59 -143q-25 35 -54 65l-38 39q-37 45 -93 92l-266 -55zM0 1311l66 166l243 51q94 -74 130 -162t36 -207q0 -14 -1 -32.5t-2 -35 t-2 -28.5t-1 -14q-4 -12 -23.5 -38t-44 -51.5t-50 -47t-42.5 -23.5q-2 0 -7 -1t-7 -1q-6 0 -11 1l-5 1l-33 33l-127 192zM508 1313l67 166l244 53q94 -74 129 -163t35 -206q0 -14 -1 -32.5t-1 -36.5q0 -16 -1 -28l-1 -13q-4 -12 -24.5 -39t-45 -52.5t-50 -46t-40.5 -22.5 q-4 0 -8 -2t-8 -2t-11 2l-6 2l-32 31l-127 192z" />
<glyph unicode="#" horiz-adv-x="1675" d="M-90 805l33 -17l65 -65l174 -86l82 -8l2 -39l-260 -51h-20q0 -4 14 -15l72 -71q10 -10 62 -36t130 -44l-4 -113q0 -25 18.5 -64.5t46 -79.5t60.5 -75t61 -53l33 -33q25 -25 47.5 -40t38.5 -15q25 0 67 28.5t87 69.5t84 89t57 89q29 -53 73 -106.5t83 -77.5l35 -35 q53 -53 84 -53q29 0 80 36.5t101 88t87 105.5t37 91q0 51 -25 76l-55 55q0 2 -2 4q61 10 106 18.5t78 29.5l12 12q0 23 -4 26l-67 68q-2 14 -6 17.5t-21 7.5l-141 14v2q102 12 171.5 47t110.5 64q10 0 13.5 3t3.5 19q0 14 -4 19l-68 67q0 12 -5 16.5t-21 8.5l-181 20l25 31 q18 23 31.5 44t13.5 56q0 4 -1 8.5t-9 26.5q-23 37 -53.5 77t-71.5 81q-41 53 -99.5 108.5t-128.5 110.5q-45 -41 -89 -83t-72 -69q-53 -49 -83 -77.5t-46 -49.5q-10 12 -22.5 24.5t-24.5 27.5l-11 10q-41 51 -99 105.5t-126 107.5l-31 -31q-31 -29 -59.5 -56.5t-50.5 -47.5 q-49 -47 -80 -77t-49.5 -50.5t-24.5 -33.5t-6 -28q0 -10 8 -40.5t12 -39.5q4 -4 27 -20l45 -43v-43zM0 788l287 37v107q-6 0 -17.5 4t-24 10t-22.5 12.5t-14 12.5q-2 2 -8 28.5t-6 34.5q0 12 11 28.5t40.5 47.5t84 81t140.5 132q88 -70 156.5 -141.5t105.5 -139.5l2 -7 q2 -7 2 -13q0 -29 -9 -46.5t-22.5 -31.5t-27.5 -30.5t-23 -41.5l41 5l160 -21v80q-6 0 -26.5 8t-38.5 19q-10 8 -12.5 12t-8.5 30.5t-6 34.5q0 12 11 27.5t42 46.5t85 81t140 132q86 -68 155 -139.5t106 -140.5l2 -7q2 -8 2 -12q0 -33 -14.5 -53.5t-33 -42t-34 -49 t-17.5 -74.5l293 -37l9 -3q10 -3 3 -5q-41 -29 -114.5 -65.5t-184.5 -45.5q2 -29 3.5 -57.5t7.5 -56.5l217 -27l8 -3q8 -3 4 -5q-35 -20 -89 -29.5t-134 -21.5q2 -29 5 -45.5t5 -28.5q100 18 100 -76q0 -23 -16 -53.5t-42 -64t-57.5 -66.5t-63.5 -58.5t-59.5 -42 t-45.5 -16.5q-23 0 -56.5 30.5t-66.5 74t-55.5 87.5t-22.5 72v166q-47 6 -95 8t-99 6q2 -23 4 -41t6 -32q100 18 100 -76q0 -33 -35 -84t-82 -98t-94 -82t-74 -35q-23 0 -57.5 30.5t-66 73.5t-54 87t-22.5 71l8 195q-61 4 -114.5 13t-92.5 19.5t-59.5 17.5t-14.5 7l281 55 l-8 154l-178 14zM643 690q0 -23 2 -45t4 -51l49 8l158 -20v92zM797 344q8 -2 24 -2h8v-31zM821 885q0 2 4 10l4 -4v-6h-8z" />
<glyph unicode="$" horiz-adv-x="1003" d="M-29 442q0 -2 1 -4t1 -4q0 -4 1 -6t3 -8h3q8 -20 24 -49t34.5 -56.5t36 -51t25.5 -34.5q2 -6 12.5 -20t24 -31.5t29.5 -34t35 -26.5l43 -41q16 -16 33.5 -27.5t33.5 -11.5q4 0 6 1t5 1h10q10 6 24 10q35 -59 66 -74l57 -57q16 -16 31 -16q16 0 40.5 22.5t50.5 57 t49.5 76.5t37.5 81q4 2 8 3t9 3q18 4 31.5 8.5t23.5 8.5q12 2 22 8q23 8 49.5 20.5t49 29t38 36.5t15.5 47l4 170l-72 72v8l-133 88q35 10 72 24.5t67.5 32t50 37.5t19.5 43q0 2 -1 5t-7 22l-2 2q-4 0 -4 4q-14 16 -35 48t-41 65q-8 12 -18.5 27.5t-18.5 27.5t-13 20.5 t-3 6.5q-2 0 -6 4q0 2 -1 3t-1 5q-8 14 -18.5 29.5t-24.5 29.5l-41 41q-16 25 -40 48.5t-57 23.5q-6 0 -11 -2t-9 -4q-2 0 -15 -4q-16 25 -34.5 50t-38.5 52l-53 51q-6 10 -13.5 18.5t-13.5 18.5q-6 -14 -14.5 -25.5t-16.5 -21.5q-29 -45 -50.5 -82t-37.5 -61q-2 -4 -3 -3 t-3 -3l2 2q-23 -35 -38 -56.5t-23 -34.5q-27 -6 -47.5 -11t-34.5 -13q-25 -6 -55.5 -20.5t-56.5 -34t-43 -43t-17 -50.5v-147l26 -16l58 -58l157 -98q-35 -8 -79 -23.5t-81.5 -35t-64.5 -44t-27 -49.5v-2zM0 442q0 27 36 50.5t82 42t92 29.5t64 11q20 0 35 -8l35 11 l-334 204v131q0 20 15.5 40t38 35.5t49 27.5t49.5 18q27 14 96 27q12 25 49 81t119 183q70 -90 117 -184q18 4 31.5 9t17.5 7q6 0 9 3t9 3q20 0 37 -16.5t30 -34.5t22.5 -34.5t13.5 -16.5q8 -10 25.5 -39t38 -60.5t37.5 -58t26 -33.5l2 -6q2 -6 2 -8q0 -27 -36 -51.5 t-82 -43t-93 -29.5t-68 -11q-18 0 -37 6l-16 31l328 -217l-4 -160q0 -25 -17.5 -43.5t-43 -33.5t-53.5 -26.5t-46 -19.5q-12 -4 -32.5 -9t-49.5 -13q-12 -37 -33.5 -79t-45 -77t-46.5 -57.5t-37 -22.5q-10 0 -22.5 14.5t-26.5 37t-27.5 52t-23.5 58.5q-29 -8 -48.5 -13.5 t-33.5 -11.5q-4 0 -7 -1t-10 -1q-16 0 -34.5 15.5t-33.5 34t-26.5 36t-13.5 21.5q-8 10 -27.5 36.5t-40 56.5t-37 56.5t-18.5 36.5l-1 4t-1 10zM719 1079v2q2 0 2 -2h-2z" />
<glyph unicode="%" horiz-adv-x="1286" d="M-27 840q0 -16 21.5 -39t56.5 -47l31 -29q18 -20 49 -43t63.5 -42t63.5 -33.5t49 -18.5l-133 -322q-10 -23 -10 -63q0 -35 9 -76t24.5 -78t35 -63.5t39.5 -32.5l56 -55q18 -18 34 -19q18 0 59.5 16.5t90.5 48t100.5 80t92.5 109.5q25 -27 50 -50.5t48 -39.5l18 -16 q33 -33 61.5 -54.5t47.5 -21.5h12t8 2q10 4 24.5 15.5t31.5 27.5l2 -2q10 10 20 18t6 6q20 10 38 18.5t32 16.5h-2q43 20 67.5 35.5t37 41.5t15.5 68t3 117v25q0 8 -1 18.5t-1 20.5q-2 10 -2 16v17v28q-10 37 -31 82t-55 80l-45 45q-23 31 -52.5 53.5t-64.5 32.5 q-8 -8 -15 -10l-10 -5l-18 -9q-16 -8 -30.5 -15.5t-22.5 -7.5l-13 -6q4 10 8.5 19.5t8.5 17.5q27 59 57.5 92t58.5 57q25 20 46.5 42t35.5 57q6 8 6 26v10q-6 76 -46 155t-107 161l-41 39q-8 12 -16.5 23.5t-18.5 23.5q-98 -70 -173 -122t-126 -87q-14 25 -35 47l-35 33 q-23 35 -51 60.5t-65 35.5q-6 0 -15 -4q-6 -4 -13 -7t-13 -7q-18 -10 -38 -20.5t-24 -10.5q-10 -4 -36.5 -10t-57.5 -15q-8 -2 -14 -3t-15 -3q-10 -4 -21 -5t-22 -3q-41 -8 -71.5 -18.5t-30.5 -32.5v-332q-27 -14 -27 -47v-12zM0 840v12q0 29 27 29v350q0 4 32.5 12 t74.5 17.5t83 18.5t57 15q4 0 18.5 7.5t30 15.5t30 15t18.5 9q29 -6 51 -27.5t40.5 -49t31 -58t20.5 -55.5v-21q41 31 119 86.5t217 151.5q59 -72 95 -145.5t42 -145.5v-8q0 -12 -2 -14q-14 -37 -37.5 -58.5t-51.5 -46t-57.5 -57.5t-54.5 -90q-10 -23 -27.5 -74t-39.5 -113 q47 14 97 23.5t71 19.5q4 0 18.5 6.5t29.5 14.5t29.5 15t18.5 10q27 -6 50.5 -27t42 -48.5t30.5 -58t18 -57.5v-25q0 -16 2 -35.5t2 -35.5v-25q0 -84 -4 -125t-21.5 -63.5t-53 -38.5t-99.5 -51q-4 -2 -16 -12.5t-25.5 -21.5t-25 -20.5t-13.5 -9.5l-5 -1t-11 -1 q-18 0 -50 26.5t-64.5 62.5t-61.5 73t-41 57q-37 -72 -89 -126t-103.5 -91t-95.5 -55.5t-62 -18.5q-20 0 -41 34t-35 79t-18.5 92t8.5 74l223 539q-16 -10 -34.5 -19.5t-47.5 -23.5q-4 -2 -16.5 -12.5t-25.5 -21.5t-25.5 -20.5t-14.5 -9.5l-5 -1q-5 -1 -9 -1 q-18 0 -59.5 18.5t-82.5 43t-71.5 50t-30.5 42.5zM258 895q0 -10 11.5 -15.5t21.5 -5.5v261q0 10 -10.5 26.5t-22.5 20.5v-287zM868 258q0 -10 10.5 -15t20.5 -5v262q0 10 -9 25.5t-22 19.5v-287z" />
<glyph unicode="&#x26;" horiz-adv-x="1036" d="M-27 352q0 -57 42 -122.5t108 -123.5l-4 -116v-13q0 -33 16.5 -80t41 -92t50 -79.5t43.5 -40.5l58 -58q16 -16 28 -16q20 0 54 37t67 89t58.5 109.5t29.5 98.5q47 31 110.5 73.5t119.5 79.5q31 23 56.5 38.5t37.5 25.5q4 4 12 8q18 12 30.5 21.5t18.5 19.5t9.5 24.5 t3.5 38.5q0 18 -5.5 36t-17.5 30l-57 55q-8 20 -24.5 33.5t-45.5 13.5t-49.5 -5t-40.5 -11q-4 -2 -6 -2t-6 -2q-16 -6 -31.5 -9t-30.5 -5q49 14 96.5 31.5t84 33.5t60 29.5t23.5 19.5v15l-71 71v10l-238 127h19q25 0 72.5 12.5t96 35t85 54.5t36.5 73v8q0 4 -4 20h-2 q-12 16 -24.5 52t-24.5 73q-10 33 -17 50.5t-12 27.5l-2 2l-4 4l-6 4q-2 4 -4 8.5t-4 10.5q-10 18 -24.5 40.5t-30.5 39.5l-39 38q-16 29 -40 50.5t-52 21.5q-2 0 -3.5 -1t-3.5 -1h-16l-5 -1t-9 -3q-8 -4 -18.5 -7t-22.5 -7q-29 72 -75 150.5t-110 160.5l-45 45 q-8 10 -16 21.5t-16 21.5q-18 -29 -43 -65.5t-41 -63.5h2l-15 -18q-35 -53 -57.5 -87t-34.5 -56.5t-17 -36t-5 -25.5q0 -6 1 -14.5t3 -18.5q2 -16 3 -29.5t5 -21.5q4 -10 16.5 -19.5t26.5 -19.5l6 -4v-74q-27 -14 -55.5 -32.5t-51 -40t-38 -47t-15.5 -54.5v-670zM0 352v670 q0 29 16.5 53.5t41 45t52 35.5t50.5 26v100q-6 0 -26.5 16.5t-24.5 26.5l-3 11q-2 10 -3 22t-3 23.5t-2 15.5q0 10 7.5 26.5t28 49t57 88t94.5 143.5q57 -72 100 -149.5t72 -151.5l3 -9q3 -8 3 -14q0 -35 -8.5 -56t-22.5 -46q57 20 104.5 37.5t69.5 25.5q4 0 8 1t9 1 q20 0 37.5 -19t33 -43t25.5 -44t16 -23q6 -14 16.5 -43.5t21.5 -61.5t22.5 -58.5t17.5 -34.5l1 -6q1 -6 1 -13q0 -37 -33.5 -64.5t-79 -48t-90.5 -30.5t-67 -10q-33 0 -53.5 12t-34 29.5t-22.5 37t-19 35.5v-245l98 49l301 -160q4 -4 -34 -21.5t-96 -38t-125.5 -41 t-121.5 -32.5q0 -2 -2 -4t-2 -6q16 -18 43 -33.5t56.5 -25t57 -14.5t48.5 -5q49 0 89 17.5t85 17.5q29 0 40 -20.5t11 -43.5q0 -41 -12 -54t-53 -42q-18 -12 -59.5 -40t-89.5 -60.5t-97 -65.5t-86 -57q0 -37 -22.5 -91.5t-53.5 -106.5t-62.5 -89t-49.5 -37q-16 0 -40 34 t-46.5 79t-37 92t-10.5 76l7 129q-66 53 -109 116.5t-43 116.5zM514 791v8l10 -13l-8 7z" />
<glyph unicode="'" horiz-adv-x="634" d="M-31 1307l125 -209l131 -193l41 -41q8 -4 10 -4l70 -67q12 -4 14 -5h13h6q2 0 5 1.5t5 1.5q18 2 46 25.5t55.5 53t50 59t26.5 42.5q0 2 1 5t1 11q2 18 3 45t1 49q0 106 -28.5 189.5t-100.5 154.5l-28 27q-39 49 -103 104l-266 -55zM0 1311l66 166l243 51q94 -74 130 -162 t36 -207q0 -14 -1 -32.5t-2 -35t-2 -28.5t-1 -14q-4 -12 -23.5 -38t-44 -51.5t-50 -47t-42.5 -23.5q-2 0 -7 -1t-7 -1q-6 0 -11 1l-5 1l-33 33l-127 192z" />
<glyph unicode="(" horiz-adv-x="622" d="M-27 317q0 -43 18.5 -90t50.5 -93t74 -89t87 -80l12 -12q76 -76 161 -126t144 -50h31q29 0 57.5 9t32.5 48l-16 23l-56 55v2l-20 27q-35 6 -60 24q-51 92 -65 250t-14 346q0 82 1 167t3 173q0 35 8 66.5t22 60.5l66 182l-74 72l4 8l-8 4l-70 37l-161 117q-8 2 -13 2h-14 h-8q-2 0 -21 -4l-110 -127q-25 -20 -38 -55t-24 -62v-885zM0 317v883q8 23 21.5 54.5t35.5 48.5l103 118l6 1t8 1q6 0 12 -1l7 -1l159 -114l56 -29l-56 -152q-16 -33 -26.5 -69.5t-10.5 -77.5q-4 -197 -5 -381t18.5 -330.5t69 -241t145.5 -112.5q-2 -18 -15.5 -26.5 t-30 -11.5t-31.5 -2t-24 1q-53 0 -128.5 43t-145.5 108.5t-119 143.5t-49 147zM408 1278l8 -4z" />
<glyph unicode=")" horiz-adv-x="624" d="M-127 -86q4 -25 14.5 -38t26.5 -19l59 -60q14 -14 35 -17t39 -3h31q55 0 134 45t152.5 113.5t125 149.5t51.5 155v882q-8 25 -20.5 55.5t-33.5 53.5l-8 8l-106 123l-21 20l-55 64q-18 4 -23 4h-6h-16q-2 0 -10 -2l-162 -117l-2 -2l-47 -24l-29 -15l68 -186 q14 -29 22 -59.5t8 -65.5v-55q0 -14 1 -26.5t1 -27.5q0 -29 1 -57.5t1 -56.5v-109q0 -141 -7 -264t-29.5 -216t-63.5 -152.5t-110 -73.5zM-100 -86q98 18 146 112.5t66.5 241t17.5 330.5t-3 381q0 41 -10.5 78t-26.5 69l-55 152l55 29l160 114l6 1t12 1q2 0 8 -1l7 -1 l102 -118q23 -16 36 -48t21 -55v-883q0 -70 -49 -147.5t-118.5 -143t-145.5 -108.5t-129 -43q-8 0 -23.5 -1t-32 2t-29.5 11.5t-15 26.5zM27 1274l8 4z" />
<glyph unicode="*" horiz-adv-x="684" d="M-27 1716q0 -10 12.5 -35.5t33 -61.5t47 -79t53.5 -88l-121 -272q-2 -4 -3 -8l-1 -3q0 -12 14 -12l70 -70q10 -10 78.5 16.5t173.5 92.5l12 -10q14 -14 25 -17q18 -8 34.5 -13t32.5 -11q33 -14 57.5 -22.5t53.5 -8.5q20 0 28 2q14 0 16.5 7t2.5 18v10l-84 168 q27 20 39 35.5t14 21.5q8 23 15.5 42.5t13.5 35.5q12 33 20 58.5t8 48.5q0 10 -2 20q0 12 -6 18l-65 66q-4 16 -13.5 19.5t-17.5 3.5h-12l-180 -89l-314 146q-27 0 -31 -3t-4 -26zM2 1718l320 -147l186 90h6q4 0 4 -2q8 -43 -11 -85t-42 -114q-4 -14 -59 -57l88 -178v-6 q0 -4 -2 -5q-23 -4 -43.5 -0.5t-43 11.5t-49 19t-63.5 24q-12 4 -35 35q-43 -29 -87 -55.5t-79 -46t-55.5 -30t-16.5 -6.5l130 289q-31 49 -60 96t-50.5 84t-32.5 60.5t-5 23.5z" />
<glyph unicode="+" horiz-adv-x="868" d="M-18 637q0 6 6 12l325 119l66 190q10 16 14 18.5t15 2.5q12 0 18 -2t8 -12q18 -14 29 -31l43 -41q0 -2 1 -4t1 -6l12 -15q0 2 -2 2l6 -4q16 -16 28.5 -37.5t22.5 -50.5q8 -16 16.5 -34.5t18.5 -41.5l2 -8q0 -8 2 -12l99 -33q12 -10 16 -13t4 -11l4 -7l4 3l-2 -3l62 -61 q4 -4 4 -16q0 -23 -12 -23q-16 -23 -42 -35t-61 -28q-16 -8 -36.5 -15.5t-41.5 -21.5q-8 -4 -26 -4h-15q-4 -10 -6 -20.5t-4 -20.5q-10 -43 -19.5 -84t-19.5 -73t-21.5 -50.5t-23.5 -18.5l-74 72h-6l-14 14l-88 230q-82 23 -145.5 45t-79.5 41l-62 61q-27 16 -26 27zM2 627 q-4 -4 20.5 -12.5t66.5 -19.5t95.5 -24.5t108.5 -25.5l113 -297q2 -6 9 15.5t16 60t21.5 89t24.5 101.5q37 -4 49 0q68 35 112 51.5t67 50.5q4 2 -1 6l-4 5l-188 63q6 59 2 82q-35 68 -52.5 112t-51.5 66q-2 4 -6 0l-3 -4l-67 -196z" />
<glyph unicode="," horiz-adv-x="581" d="M-27 -285q0 70 32 132.5t120 121.5q-47 35 -87 89.5t-50 125.5q23 96 91 146.5t169 56.5l106 -29q6 -10 12.5 -17t10.5 -15l53 -52q27 -37 45.5 -63.5t27.5 -52t13 -54t4 -69.5q0 -100 -44 -174t-111.5 -122t-149.5 -71.5t-158 -23.5l-71 71h-13zM0 -258q70 0 144.5 22.5 t136 68.5t101.5 115.5t40 164.5q0 39 -3 66.5t-12.5 51t-24.5 47t-40 56.5l-100 26q-88 -6 -147.5 -50t-80.5 -130q4 -39 21.5 -71.5t40 -59t49.5 -47t49 -35.5q-100 -61 -137 -115.5t-37 -109.5z" />
<glyph unicode="-" horiz-adv-x="794" d="M-25 711q0 -4 29 -25l59 -57q8 -10 42 -28.5t79 -41t98.5 -46.5t102.5 -44t89 -32.5t61 -12.5q18 0 28 10q14 12 26.5 20.5t22.5 18.5h-2q39 33 67 59.5t44 67.5q10 0 10 23q0 8 -1 11t-9 13l-59 60q0 2 2 4l-5 -4l-2 2q-2 8 -12 24l-342 217l-328 -225v-14zM2 713 l301 205l324 -205l4 -7q4 -6 0 -8q-20 -53 -59.5 -85.5t-100.5 -86.5q-8 -8 -47 1.5t-92 28.5t-113.5 45t-110 49.5t-80 41t-26.5 21.5z" />
<glyph unicode="." horiz-adv-x="526" d="M-27 193q0 37 13.5 67.5t34 56t46 48t50.5 41.5l14 4q164 -25 217 -113l47 -45q57 -57 58 -170q0 -37 -14.5 -69.5t-39 -58.5t-57.5 -40t-70 -14q-39 0 -76.5 19.5t-68.5 49.5l-35 35q-51 31 -85 83t-34 106zM0 193q0 -35 17.5 -70t45 -62.5t62.5 -45t70 -17.5 q33 0 61.5 13.5t50 35t34.5 51t13 62.5q0 104 -53 155.5t-170 67.5q-23 -18 -46.5 -38.5t-41.5 -43t-30.5 -50.5t-12.5 -58z" />
<glyph unicode="/" horiz-adv-x="929" d="M-47 201q0 43 10 65l283 676l-10 10q-35 20 -41 39v13q0 10 4 35.5t10 39.5v2q6 12 22.5 27.5t53.5 42.5t100.5 71t165.5 115q6 4 13 10.5t18 12.5q16 10 32.5 22.5t28.5 22.5q8 -10 16.5 -21.5t16.5 -21.5l45 -43q139 -166 153 -318v-10q0 -6 -1 -13t-5 -11 q-14 -35 -35.5 -56.5t-46.5 -44.5q-29 -25 -59.5 -57.5t-56.5 -91.5q-8 -18 -24.5 -62.5t-35 -97.5t-38 -107.5t-31.5 -97.5l49 -47q14 -14 14 -43q0 -25 -14 -55q-16 -37 -75.5 -92.5t-130.5 -107.5t-136.5 -90t-95.5 -38q-18 0 -37 19l-58 57q-20 8 -39.5 34.5t-34 61.5 t-22.5 75t-8 75zM-20 182q4 -47 17 -92t33.5 -79t43.5 -34q29 0 92 36t131 87.5t124 104.5t73 88q20 49 4.5 71.5t-72.5 8.5q6 25 26.5 86t44 129.5t45 129t31.5 85.5q25 57 54.5 90t57.5 57.5t51.5 46t37.5 58.5q2 2 2 14v8q-14 143 -137 291q-123 -86 -200 -140t-120 -86 t-61 -47.5t-25 -25.5q-4 -4 -6 -14.5t-4 -21.5t-2 -21v-13q6 -10 27.5 -25.5t32.5 -15.5l-293 -702q-12 -27 -8 -74z" />
<glyph unicode="0" d="M-25 307q0 -25 28 -58.5t75 -68.5l28 -28q41 -41 105.5 -85t132.5 -81t128 -61.5t95 -24.5h15q4 0 18 2q12 4 45 30.5t64 53.5q18 16 33.5 28.5t21.5 16.5h2q45 25 81 43t66 35q80 39 123 66.5t64.5 74.5t25.5 129t4 229v47q0 16 -1 35t-1 37v127q-20 76 -60 161 t-105 150l-29 27q-39 53 -88 92t-109 55q-8 -6 -35.5 -21t-59.5 -30.5t-58.5 -29t-34.5 -15.5q-35 -16 -111 -33.5t-157 -33.5q-49 -10 -95.5 -21.5t-81 -23t-56 -22.5t-21.5 -24v-682q-29 -8 -40.5 -26.5t-11.5 -46.5v-23zM2 307v23q0 23 11.5 38t39.5 15v702q0 6 31 15.5 t79 21t106.5 23.5t113.5 24.5t100 23.5t68 21q8 2 35.5 15.5t59.5 29t59.5 31t35.5 21.5q57 -16 104.5 -58.5t83.5 -96.5t61.5 -114.5t39.5 -115.5v-49q0 -35 1 -72t1 -72v-47q0 -115 -2 -188.5t-12 -119.5t-31.5 -72.5t-61.5 -50.5t-100.5 -52.5t-146.5 -75.5 q-6 -4 -29.5 -23.5t-50.5 -42t-50.5 -41t-29.5 -20.5l-10 -1t-19 -1q-29 0 -74.5 16.5t-100 43t-109.5 61.5t-100.5 68.5t-74 65.5t-28.5 54zM518 416q0 -20 21.5 -29.5t42.5 -9.5v518q0 20 -21.5 51t-42.5 45v-575z" />
<glyph unicode="1" horiz-adv-x="786" d="M-6 1034q0 -10 8 -40.5t12 -39.5q4 -4 9.5 -9t13.5 -9l51 -47v-629q0 -25 18.5 -63.5t47 -78.5t61.5 -76t64 -54l28 -29q27 -27 50.5 -43t41.5 -16q29 0 82.5 36.5t105.5 88t90 105.5t38 89q0 51 -25 76l-57 55q-10 29 -33 39q-4 41 -7 89t-6 94t-5 82.5t-2 52.5 q0 57 16 85.5t36.5 51t34 43t13.5 57.5q0 4 -1 9t-9 28q-41 70 -115 143h-2q-90 111 -248 234q-23 -23 -33 -32t-20 -17q-82 -74 -132 -120t-78 -76t-38 -47t-10 -32zM20 1034q0 12 11.5 27.5t42 46.5t87 82t146.5 133q92 -70 162 -141.5t109 -139.5l2 -7t2 -13 q0 -35 -15.5 -55.5t-35 -42t-35 -53t-15.5 -87.5q0 -23 4 -81t9.5 -124.5t10.5 -125t9 -80.5q102 18 102 -76q0 -33 -35.5 -84t-83.5 -98t-98.5 -82t-76.5 -35q-25 0 -60 30.5t-67.5 73.5t-56 87t-23.5 71v672q-6 0 -17.5 4t-24 10t-23.5 12.5t-15 12.5q-2 2 -8.5 28.5 t-6.5 34.5z" />
<glyph unicode="2" horiz-adv-x="993" d="M-27 936q0 -35 26 -65.5t62 -57.5l37 -35q18 -23 43 -38t54 -31l-220 -177l13 -282q0 -41 33.5 -81t74.5 -69l31 -30q29 -29 58.5 -48.5t52.5 -29.5q29 -10 84 -22.5t116 -24.5q68 -14 127.5 -27.5t81.5 -21.5l8 -2q4 0 6.5 -1.5t4.5 -1.5h6q18 0 34.5 13.5t31 32 t25.5 39t19 36.5q10 20 13 23q8 12 27.5 50t39 82t36.5 83t22 51v12q0 18 -11.5 38t-27.5 36l-45 45q-18 33 -58.5 61.5t-83.5 51.5l215 207v186q0 29 -13 53.5t-34 44.5l-41 41q-23 41 -67.5 71t-81.5 48q-6 4 -15.5 6t-19.5 6q-16 6 -39 14.5t-45 18.5q-10 4 -17.5 6 t-17.5 6q-37 14 -76 28.5t-75.5 29t-66.5 28t-48 23.5q-6 0 -8 2h-8q-4 0 -6.5 1t-4.5 1q-18 0 -36.5 -14.5t-34 -36t-26.5 -44t-19 -38.5l-7 -14q-4 -6 -10 -21.5t-14 -34.5q-12 -27 -26.5 -58.5t-29 -60t-27.5 -50t-20 -25.5q-2 -14 -2 -19v-14zM0 936q0 2 1 11l1 9 q8 6 25.5 41t37 77t37 80t23.5 50q2 2 12 23.5t23.5 46t31 45t33.5 20.5q6 0 9.5 -2t9.5 -2q25 -12 83 -35.5t124.5 -48t126 -47t84.5 -33.5q23 -10 49 -25.5t48.5 -34.5t37 -44t14.5 -51v-178l-299 -285q14 14 39 14q20 0 64 -15t90.5 -40t81 -56.5t34.5 -64.5q0 -6 -1 -12 l-1 -6q-4 -12 -19.5 -47t-35 -76t-37.5 -77t-27 -48q-4 -4 -14 -25.5t-24.5 -46t-32 -44t-35.5 -19.5q-4 0 -7 1t-9 1q-25 10 -83.5 23.5t-123 25.5t-121.5 24.5t-82 22.5q-18 8 -45 25.5t-50.5 39t-41 47t-17.5 50.5l-12 270l461 373l-41 63q-10 -18 -23.5 -51t-32 -65.5 t-42 -57t-54.5 -24.5q-23 0 -66.5 14t-89.5 39t-80 56.5t-34 68.5zM303 342l103 -31q8 8 14 34t14 57.5t16.5 62.5t20.5 49z" />
<glyph unicode="3" horiz-adv-x="1036" d="M-27 352q0 -25 3.5 -40t9.5 -26.5t18 -21.5t31 -22l43 -41q8 -8 17 -14.5t24 -16.5q8 -4 12 -8q14 -10 44 -30.5t69 -47.5t82 -55.5t81.5 -54t69.5 -45t45 -27.5h13q4 0 12 -1t12 -1q45 0 114.5 37.5t133 94t110 122t46.5 120.5v670q0 27 -12.5 50.5t-32.5 43.5l-46 43 q-27 47 -78 79t-87 50q-27 8 -89.5 31t-133 47.5t-134 47t-90.5 32.5h-4l-2 2q-23 0 -42 -10t-34.5 -26.5t-28 -36t-20.5 -35.5q-10 -25 -18 -27q-6 -10 -16.5 -38t-20.5 -60q-12 -35 -24.5 -67t-24.5 -44q-2 -8 -2 -12v-17q0 -33 22.5 -59.5t56.5 -48.5l39 -39 q29 -29 72 -50.5t84 -35.5l-264 -139v-7q0 -10 30 -30l58 -56q16 -16 73.5 -45.5t129.5 -60.5q-29 -10 -54.5 -14t-44.5 -4q-16 0 -34.5 4t-36.5 10q-4 2 -7 2q-2 0 -6 2q-20 6 -40.5 11t-49.5 5q-45 0 -61.5 -28.5t-16.5 -61.5zM0 352q0 23 11.5 43.5t39.5 20.5 q45 0 85 -17.5t89 -17.5q20 0 50 5t61 15.5t57.5 26.5t40.5 39q-55 12 -123.5 33.5t-128 43t-98.5 38t-35 20.5l303 160l99 -49v245q-10 -16 -19.5 -35.5t-24 -37t-35 -29.5t-53.5 -12q-23 0 -67.5 10t-89.5 30.5t-79 48.5t-34 64q0 6 1 13l1 6q8 8 19.5 35.5t21.5 59.5 t20.5 61.5t18.5 41.5q6 2 16.5 22.5t24.5 44.5t32.5 43t39.5 19q2 0 7 -1t7 -1q27 -10 90.5 -32.5t134 -48t133 -48t89.5 -30.5q20 -10 47.5 -25.5t52 -36t42 -45t17.5 -53.5v-670q0 -53 -43 -114.5t-104.5 -114.5t-127 -89t-108.5 -36q-8 0 -18 1t-12 1q-23 12 -77.5 48 t-115.5 77t-116.5 78t-75.5 53q-41 29 -53.5 42t-12.5 54z" />
<glyph unicode="4" horiz-adv-x="1040" d="M-25 575q0 -12 15.5 -28.5t40.5 -32.5l43 -41q14 -16 45 -34.5t67.5 -39t77.5 -41t80 -41.5q16 -10 30.5 -17t31.5 -15q2 -4 2 -6t2 -7q6 -23 13 -50t13 -52q6 -20 10.5 -33.5t8.5 -23.5l4 -17q4 -12 8 -31.5t8 -42t10.5 -32.5t26.5 -15l63 -63q10 -10 52 -10q55 0 89 56 t53 133t27.5 158t12.5 130v8q4 0 7 1t7 1q10 0 17.5 -5t15.5 -11q10 -8 20.5 -14.5t26.5 -6.5q45 0 60.5 24.5t15.5 57.5v33q0 57 -22.5 100t-51.5 84l-2 2q-25 35 -45 74t-20 92q0 47 18 91t39 81q14 27 23.5 48.5t9.5 39.5t-10 29l-64 61q-2 20 -29 33l-235 105 q-66 -23 -118 -50.5t-91 -80.5q-4 2 -7 4t-7 6q-23 14 -53.5 32.5t-61.5 35t-58.5 27.5t-43.5 11q-27 0 -58 -28.5t-56.5 -65.5t-43 -70.5t-17.5 -44.5v-508zM2 575v508q0 10 14.5 40t37 62t48 56.5t48.5 24.5q20 0 59 -19.5t79 -42t69.5 -42t33.5 -19.5q31 57 81 85.5 t116 51.5l227 -102q20 -8 11 -35t-28.5 -65t-39 -85t-19.5 -96q0 -55 22.5 -97t48.5 -81t48.5 -81t22.5 -93v-33q0 -25 -11.5 -43t-44.5 -18q-23 0 -37 18t-43 18q-6 0 -16 -2t-16 -2q-2 -25 -5 -70.5t-10.5 -99t-18.5 -110t-28.5 -101.5t-42 -73.5t-59.5 -28.5 q-20 0 -28.5 4t-12.5 13.5t-7 26.5t-14 46q-2 6 -11 41t-20.5 77t-20.5 79t-13 47q-4 6 -36 23.5t-79 41l-100 50t-99.5 52t-76 45t-29.5 29.5zM328 662l63 61v270l-33 31l-30 -31v-331z" />
<glyph unicode="5" horiz-adv-x="1040" d="M-27 1092q4 -57 6.5 -79t6.5 -34q2 -4 2 -8q4 -20 7 -45t3 -84q2 -20 2 -39v-35q0 -29 -1 -55.5t-3 -53.5q0 -10 -1 -19t-1 -19v-7q-2 -25 -3 -47t-1 -43q0 -41 39 -55l59 -59q18 -18 59 -19h13q33 -20 96 -20q8 0 16.5 1t16.5 1q16 2 30.5 3t28.5 1q16 0 30.5 -1 t29.5 -1q8 0 15 -1t17 -1v-105q-23 23 -55.5 43.5t-79.5 20.5q-25 0 -77 -10.5t-105 -26.5t-93 -37.5t-40 -46.5q0 -10 1 -13t7 -16q18 -12 39.5 -35.5t44.5 -46.5l4 -4l9 -9t17.5 -18.5t12.5 -13.5l12 -12l20.5 -20.5t28.5 -22.5l4 -4q8 -8 13.5 -12t7.5 -7l10 -10 q16 -16 49 -41.5t68 -25.5h6q2 0 4 1t4 1h4q25 6 88.5 18t134 25.5t133 25t89.5 15.5q23 4 53.5 13t58 23.5t47 31t19.5 36.5v356q0 23 -29 52l-49 49q-16 31 -65.5 64.5t-109.5 62t-123.5 47t-106.5 18.5h-9q-4 0 -6 -1t-6 -1h-8q-8 0 -12 -2q-16 -4 -21 -4l2 143l398 -92 l3 12q3 13 7 17t7 6t7 6l94 54l-20 20q0 4 -4 16h2q-14 45 -48 90.5t-75 86.5l-8 6l2 -2l-6 8q-41 51 -90.5 97t-94.5 81v10l-71 72v12q-47 0 -121 -23.5t-155 -63.5t-157.5 -90t-132.5 -105zM0 1081q51 51 123 99.5t144.5 85.5t138 59.5t106.5 22.5q0 -6 -2 -9.5t-4 -7.5h8 q18 -20 63.5 -57t96.5 -84t96 -100.5t61 -104.5l1 -4q2 -4 2 -12q-23 0 -16 -6.5t13 -8.5l-61 -34q-8 -8 -21.5 -19.5t-13.5 -13.5l-395 92l-6 -289q-10 -10 6 -24q41 16 76 27.5t51 17.5q2 0 13.5 1t15.5 1q45 0 110.5 -19.5t127 -48.5t104.5 -61.5t43 -59.5v-356 q0 -16 -17.5 -29.5t-42 -24t-52.5 -18.5t-48 -12q-27 -4 -90.5 -15.5t-134 -24.5t-134 -25.5t-88.5 -18.5q-2 0 -7 -1t-7 -1q-18 0 -36.5 10t-34 22.5t-26.5 24t-16 15.5q-6 6 -24.5 25.5t-39 41t-38.5 41t-25 23.5l-2 4t-2 6q0 18 37 35.5t85 30t96.5 20.5t70.5 8 q33 0 59.5 -12t46 -29.5t33 -35t23.5 -27.5v237q0 12 -13.5 20.5t-33.5 18.5q-12 -6 -37 -6q-23 0 -50.5 1t-60 2t-63.5 -3q-80 -6 -119 18q-4 -2 -10 -1t-10 1q-31 0 -42.5 10.5t-11.5 24.5q0 59 7.5 137t1.5 183q0 55 -2.5 80.5t-6.5 43t-8 40t-8 73.5zM520 362h2l2 -2z " />
<glyph unicode="6" horiz-adv-x="1069" d="M-27 346v576q0 68 44 145.5t111 144t144.5 110.5t145.5 44q20 0 59 -19.5t87 -50t101.5 -69.5t100.5 -79t85 -78t56 -64l21 -19q31 -31 49 -55.5t18 -38.5q0 -41 -22.5 -56.5t-61.5 -15.5q-29 0 -54.5 5t-49.5 16v-2q-23 6 -45.5 12t-44.5 6q-27 0 -61.5 -8t-66.5 -24.5 t-54.5 -40t-22.5 -52.5v-18q27 -16 58.5 -29.5l66.5 -28.5q70 -31 134.5 -64.5t96.5 -86.5l43 -43q23 -23 37.5 -52.5t14.5 -66.5q0 -8 -1 -18.5t-1 -18.5v-10l-232 -365q2 2 -11 -4t-28 -12l2 -2q-8 -4 -18 -8t-15 -8h-24q-35 0 -101.5 21.5t-142.5 56t-148.5 80.5 t-121.5 96l-29 28q-53 41 -86 83t-33 83zM0 346q0 -39 33 -79t85 -78.5t116.5 -73.5t126 -61.5t114.5 -42t82 -15.5h18q12 6 37 17.5t27 13.5l223 352q0 2 1 17.5t1 25.5q0 53 -33.5 90t-83 64.5t-108.5 50t-108.5 48t-83 57.5t-33.5 79q0 33 24.5 60.5t59 46t73.5 28.5 t68 10t52.5 -6t45 -12t45 -12t52.5 -6t46 11t17 40q0 16 -29.5 51t-74.5 76t-101.5 84t-110 77.5t-97.5 57t-66 22.5q-63 0 -136 -42t-135.5 -104.5t-104.5 -135t-42 -135.5v-576zM383 379v223l15 -6q14 -6 32.5 -15.5t33.5 -21.5t15 -20q0 -2 -12 -27t-21 -37 q-4 -4 -14 -18.5t-20.5 -29.5t-18.5 -29.5t-10 -18.5zM532 676q4 -6 11 -10z" />
<glyph unicode="7" horiz-adv-x="1052" d="M-55 954q8 4 28 13q0 14 2 18h-2q12 43 44 88t72 87t83 79t76 66q12 8 16 12q8 8 16.5 14t16.5 15q-2 8 -2 28q47 0 120.5 -23.5t154.5 -63.5t158 -90t132 -105q0 -2 -1 -4.5t-1 -4.5l74 -71q-10 -104 -17.5 -199.5t-7.5 -214.5v-350q10 -12 22.5 -31.5t22.5 -36.5l-2 2 q6 -10 11.5 -20t9.5 -17h2q2 -8 2 -12v-20q-39 -27 -72 -64t-63 -72l-2 3q-39 -45 -71 -78t-69 -33q-16 0 -29.5 5t-29.5 22l-51 51q-18 8 -37 30l-141 189q-6 4 -8.5 22.5t-2.5 28.5q0 35 13.5 62.5t54.5 31.5v543l-311 -72l-64 62l-16 8h-2l-2 2l-35 23l-60 59zM0 969 q23 0 15.5 -6.5t-13.5 -8.5l61 -34q8 -8 21.5 -19.5t13.5 -13.5l396 92v-696q-41 6 -54.5 -15.5t-13.5 -50.5q0 -8 1 -19.5t3 -13.5l143 -192q33 -37 66 -21.5t68.5 55.5t76.5 90t93 85q0 4 -1 10l-2 6q-4 6 -13 21.5t-18 32t-18.5 29.5t-15.5 19v357q0 113 7 207t18 198 q-51 51 -123 99.5t-144.5 85.5t-138.5 59.5t-106 22.5q0 -10 6 -17h-9q-18 -18 -65 -56t-98.5 -85t-95.5 -100.5t-58 -104.5l-1 -4t-1 -12z" />
<glyph unicode="8" horiz-adv-x="993" d="M-27 375q0 -2 2 -10h2q4 -16 19.5 -53.5t35 -77t38 -74.5t26.5 -49q2 -2 2 -5l2 -2q6 -12 16.5 -32.5t25 -41t29.5 -38t34 -25.5l51 -51q25 -25 47 -25h8q2 0 4 1.5t7 1.5l8 2q23 8 82 21t127 28q61 12 117.5 24.5t88.5 24.5q18 10 46 26.5t53.5 39t43 51t17.5 61.5 l13 279l-72 71v8l-84 78q29 20 57.5 51t51 65t36 69.5t13.5 64.5h-2q0 4 -1.5 10t-1.5 21l-10 10q-8 12 -19.5 33.5t-23.5 48.5t-24.5 53.5t-22.5 48.5q-8 18 -14 34t-10 22q-2 0 -5 2q-2 4 -4 9t-6 13q-10 23 -24.5 49.5t-34.5 47.5l-4 2h2l-41 38q-16 27 -36 46.5 t-44 19.5q-2 0 -4 -1t-4 -1h-8q-2 -2 -7 -2q-14 -6 -43.5 -18.5t-66.5 -26.5t-79 -30.5t-81 -31.5v-2q-53 -18 -94 -34.5t-57 -22.5q-25 -12 -54.5 -28.5t-54.5 -40t-41 -51t-16 -60.5v-189l186 -190q-29 -12 -62.5 -40t-63.5 -63.5t-50.5 -73.5t-20.5 -69v-16zM0 391 q0 33 23.5 73t56.5 73.5t66.5 57t54.5 23.5q18 0 37 -12l-228 232v178q0 27 14.5 51.5t37 43.5t49 34.5t49.5 25.5q25 10 84 33t124.5 47.5t125 48t84.5 35.5q6 0 9 2t7 2q18 0 34.5 -20.5t31 -45t23.5 -46t13 -23.5q6 -12 23.5 -50t37 -80t37 -76.5t25.5 -41.5l1 -9 q1 -9 1 -11q0 -31 -17.5 -70t-43 -74.5t-57 -64.5t-62.5 -41l178 -166l-12 -270q0 -29 -17.5 -53.5t-41 -45t-50 -37t-45.5 -26.5q-25 -10 -82 -22.5t-121.5 -24.5t-122.5 -25.5t-83 -23.5q-6 0 -9.5 -1t-9.5 -1q-16 0 -33.5 19.5t-33 44t-25.5 46t-12 25.5q-8 12 -26.5 48 t-39 77t-36 76.5t-17.5 46.5l-1 6t-1 12zM324 862l141 -98q-25 53 -39 111.5t-29 80.5zM416 311l102 31l-84 84q-6 -37 -16 -72t-2 -43z" />
<glyph unicode="9" horiz-adv-x="1069" d="M-29 367q0 45 24.5 61t65.5 16q29 0 54.5 -6t50.5 -14q18 -6 39.5 -11t50.5 -5q25 0 59.5 8t65.5 23.5t52.5 37t21.5 49.5q0 16 -6 29q-25 14 -54.5 26.5t-58.5 26.5q-57 23 -110.5 48.5t-90.5 62.5l-43 43q-41 29 -65.5 64.5t-24.5 86.5q0 27 4 48v6l230 362q10 8 13 9 t13 5l7 3.5l7 3.5q10 4 17.5 9t15.5 9h27q39 0 117.5 -27.5t163.5 -70.5t163 -97.5t115 -109.5l35 -35q29 -29 46 -57.5t17 -57.5v-575q0 -66 -44 -142.5t-109.5 -142t-142 -109.5t-142.5 -44q-27 0 -80 27.5t-114.5 69.5t-124 92t-107.5 95q-66 57 -112 107.5t-46 75.5z M-2 367q0 -18 28.5 -52t74.5 -75t101.5 -84t109 -78t97.5 -57.5t68 -22.5q61 0 135 42t136.5 104.5t104.5 135t42 136.5v575q0 37 -33 78t-85 80t-116.5 73.5t-127 61.5t-115.5 42t-82 15h-17q-12 -8 -36.5 -18t-26.5 -12l-223 -353q0 -2 -2 -18t-2 -27q0 -53 33.5 -89 t84 -63.5t108.5 -50t108.5 -48t84 -58.5t33.5 -78q0 -35 -24.5 -61.5t-59.5 -45t-73.5 -28.5t-67.5 -10t-52.5 6t-45 12.5t-45 12.5t-52.5 6t-46 -11.5t-17 -39.5zM416 799q0 2 12 26.5t18 36.5q2 6 11.5 20.5t19.5 30t20.5 28.5t14.5 17v-223l-14 7q-15 6 -33.5 15 t-33.5 20t-15 22z" />
<glyph unicode=":" horiz-adv-x="526" d="M-27 193q0 37 13.5 67.5t34 56t46 48t50.5 41.5l14 4q164 -25 217 -113l47 -45q57 -57 58 -170q0 -37 -14.5 -69.5t-39 -58.5t-57.5 -40t-70 -14q-39 0 -76.5 19.5t-68.5 49.5l-35 35q-51 31 -85 83t-34 106zM-27 956q0 37 13.5 68t34 56.5t46 48t50.5 40.5l14 5 q164 -25 217 -113l47 -45q57 -57 58 -170q0 -37 -14.5 -70t-39 -58.5t-57.5 -39.5t-70 -14q-39 0 -76.5 19t-68.5 50l-35 35q-51 31 -85 83t-34 105zM0 193q0 -35 17.5 -70t45 -62.5t62.5 -45t70 -17.5q33 0 61.5 13.5t50 35t34.5 51t13 62.5q0 104 -53 155.5t-170 67.5 q-23 -18 -46.5 -38.5t-41.5 -43t-30.5 -50.5t-12.5 -58zM0 956q0 -35 17.5 -69.5t45 -62t62.5 -45t70 -17.5q33 0 61.5 13t50 34.5t34.5 51.5t13 63q0 104 -53 155.5t-170 67.5q-23 -18 -46.5 -39t-41.5 -43.5t-30.5 -50t-12.5 -58.5z" />
<glyph unicode=";" horiz-adv-x="581" d="M-27 -285q0 70 32 132.5t120 121.5q-47 35 -87 89.5t-50 125.5q23 96 91 146.5t169 56.5l106 -29q6 -10 12.5 -17t10.5 -15l53 -52q27 -37 45.5 -63.5t27.5 -52t13 -54t4 -69.5q0 -100 -44 -174t-111.5 -122t-149.5 -71.5t-158 -23.5l-71 71h-13zM-27 956q0 37 13.5 68 t34 56.5t46 48t50.5 40.5l14 5q164 -25 217 -113l47 -45q57 -57 58 -170q0 -37 -14.5 -70t-39 -58.5t-57.5 -39.5t-70 -14q-39 0 -76.5 19t-68.5 50l-35 35q-51 31 -85 83t-34 105zM0 -258q70 0 144.5 22.5t136 68.5t101.5 115.5t40 164.5q0 39 -3 66.5t-12.5 51t-24.5 47 t-40 56.5l-100 26q-88 -6 -147.5 -50t-80.5 -130q4 -39 21.5 -71.5t40 -59t49.5 -47t49 -35.5q-100 -61 -137 -115.5t-37 -109.5zM0 956q0 -35 17.5 -69.5t45 -62t62.5 -45t70 -17.5q33 0 61.5 13t50 34.5t34.5 51.5t13 63q0 104 -53 155.5t-170 67.5q-23 -18 -46.5 -39 t-41.5 -43.5t-30.5 -50t-12.5 -58.5z" />
<glyph unicode="&#x3c;" horiz-adv-x="735" d="M-27 684v4q0 2 1 4t1 4l402 555h14q4 0 17.5 -13t29.5 -36l43 -43q16 -16 44 -56t54.5 -86t46 -89t19.5 -66q0 -8 -1 -14t-9 -14h2q-14 -16 -42 -46t-61.5 -63t-66.5 -65.5t-57 -55.5l202 -174l-4 -6l74 -72l-215 -301h-12q-6 0 -23 17l-55 55q-8 0 -41 37t-78 94 t-95 124.5t-92 130t-70 111t-28 64.5zM2 688q-6 -10 18.5 -55t64.5 -106.5t89 -129t93 -125t76 -92.5t36 -30l196 276l-284 246q12 10 47 44t75 73.5t76.5 78.5t53.5 58q12 12 -7.5 63t-50 105.5t-60.5 95.5t-36 35z" />
<glyph unicode="=" horiz-adv-x="1032" d="M-23 639q0 -4 15 -10l69 -70q6 -6 40 -19.5t84.5 -29.5t109.5 -33.5t115.5 -31t103.5 -22.5t72 -9h14q8 0 14 4q35 20 48.5 25.5t27.5 11.5q35 16 60.5 28.5t42.5 34.5q12 0 12 23q0 12 -4 16l-62 61l2 3l-4 -3l-4 7q0 8 -4 11t-16 13l-377 127l-359 -131v-6zM2 627 l334 123l364 -123l4 -5q5 -4 1 -6q-23 -35 -67 -51t-112 -51q-10 -6 -53 0t-103.5 17.5t-127 26.5t-121.5 29.5t-90 26t-29 13.5zM152 930q0 -4 14 -12l72 -70q6 -6 38.5 -19.5t81 -30t105.5 -35t111.5 -32.5t101.5 -23.5t74 -9.5q18 0 26 4q47 23 84 39q35 16 60.5 31.5 t48.5 44.5v8q0 12 -4 17l-68 67q0 8 -4 11.5t-16 13.5l-375 127l-344 -125zM168 911l334 123l362 -123l4 -3t2 -7q-12 -16 -28.5 -27.5t-39 -21.5t-50 -22.5t-62.5 -30.5q-10 -6 -54 0t-103.5 17t-126 26.5t-122 31t-89 25.5t-27.5 12z" />
<glyph unicode="&#x3e;" horiz-adv-x="735" d="M-37 430l221 -307h9l71 -72h12q8 0 40 37t77 93.5t94.5 123t90 129t68.5 109.5t28 63q0 2 -1 5t-1 5l-398 551l-55 54l-20 30h-15q-10 0 -38.5 -38.5t-61.5 -90t-57.5 -103.5t-24.5 -79q0 -16 4 -22h-2q14 -16 44 -48t64.5 -67t70.5 -70t61 -59zM0 426l285 246 q-12 10 -47 44t-75 73.5t-77 78.5t-53 58q-12 12 7 63t50 105.5t60.5 95.5t35.5 35l387 -537q6 -10 -18.5 -55t-64 -106.5t-89 -129t-93.5 -125t-75.5 -92.5t-35.5 -30z" />
<glyph unicode="?" horiz-adv-x="970" d="M-35 711l213 -258l4 4l74 -74q-43 16 -111 27l-14 -4q-25 -18 -50.5 -41t-46 -48.5t-33.5 -56.5t-13 -67q0 -53 33.5 -103.5t82.5 -83.5l37 -37q31 -31 69 -50t77 -19q37 0 69.5 14t57 40t39 58.5t14.5 69.5q0 113 -57 170l-48 45q-33 55 -106 86l260 227q6 0 14.5 5.5 t22.5 15.5q25 16 50.5 33.5t50 35t44 33t31.5 27.5l180 178v186q0 29 -13 54.5t-36 48.5l-41 41q-23 39 -63.5 67.5t-75.5 44.5q-10 4 -24.5 8.5t-32.5 12.5q-35 12 -76 29v2q-41 14 -85 31.5t-85 32.5t-74 28.5t-51 23.5q-6 0 -8 2h-8q-4 0 -6.5 1t-4.5 1q-18 0 -36.5 -14 t-34 -35.5t-26.5 -44t-19 -39.5l-7 -14q-2 -4 -5 -13.5t-9 -19.5q-4 -10 -10 -21.5t-12 -25.5q-12 -25 -25.5 -52.5t-26 -52t-21.5 -42t-16 -23.5q-4 -23 -4 -27v-6q0 -35 28 -67.5t69 -59.5l28 -28q18 -23 43 -39.5t54 -30.5zM0 1122q0 4 1 12l1 9q8 8 25.5 43t37 76 t37 78.5t23.5 50.5q2 2 12 23.5t23.5 46t31 45t33.5 20.5q6 0 9.5 -2t9.5 -2q25 -12 84 -36t124.5 -48.5t125 -46t84.5 -31.5q23 -10 49 -26.5t48.5 -36t37 -44t14.5 -51.5v-178l-174 -172q-18 -18 -62.5 -49t-89.5 -61.5t-77.5 -52t-26.5 -21.5l-201 -176l-178 217l309 249 q-14 -14 -41 -14q-23 0 -66.5 14.5t-89.5 39t-80 57t-34 67.5zM14 193q0 31 12.5 58.5t31 50t41.5 43t46 38.5q119 -16 171.5 -67.5t52.5 -155.5q0 -33 -13.5 -62.5t-35 -51t-50 -35t-61.5 -13.5q-35 0 -69 17.5t-62.5 45t-46 62.5t-17.5 70zM324 969l139 110l-41 64 q-6 -16 -16.5 -39t-22.5 -47.5t-27.5 -48t-31.5 -39.5z" />
<glyph unicode="@" horiz-adv-x="1114" d="M-29 965q0 -25 6 -39l-4 -660q25 -55 101 -110l28 -29q35 -35 87.5 -66.5t109.5 -55t113.5 -38t99.5 -14.5q10 0 23.5 2t23.5 6l2 -2q10 2 14.5 4t20.5 14q10 10 36.5 26.5t59.5 39.5q35 23 74 49.5t73.5 51t61.5 46t39 35.5q0 2 2 4t4 7h2q18 23 26.5 38t8.5 33 q0 10 -2 20.5t-10 24.5q-4 12 -9.5 21.5t-11.5 19.5l-57 58q-20 45 -68 45h-8t-14 -4q-23 -10 -33 -15.5t-20 -11.5l-17 -12v2q-4 -2 -15 -9.5t-16 -9.5q-16 -10 -30.5 -18t-30.5 -12h-12q-35 0 -84 16t-90 41l41 272l4 -4q8 -29 29.5 -53.5t52.5 -44.5l39 -37 q39 -39 99 -61.5t116 -22.5q33 0 55 6q63 23 106 75t43 114q0 33 -10 55h-2q-6 25 -10 45t-4 41q0 23 6 44l12 42l-2 2q6 18 12.5 38.5t6.5 43.5q0 27 -9 57l-10 10q-2 2 -2 7l-57 57q-2 2 -2 6q-8 8 -9.5 10t-3.5 6q-14 14 -53 38t-84 46l-37 19q6 6 6 16q0 6 -8 19l-63 63 q-2 10 -10.5 18.5t-24.5 12.5l-168 29q-14 0 -17 -1t-10 -8l-6 -2q-8 -6 -22.5 -15t-30.5 -22q-20 -14 -43 -30.5t-49 -34.5q-59 -41 -116.5 -81t-94.5 -67q-10 -6 -17.5 -11t-11.5 -9q-16 -12 -36.5 -33.5t-41 -46t-34 -52.5t-13.5 -54zM0 270l4 668q-10 25 -1 53.5 t27.5 54t41 48t39.5 36.5q14 10 44.5 32t68.5 48.5t80 55t80 55.5t68 47.5t44 30.5q4 0 7 3t5 3l166 -29q18 0 16 -9t-11 -19.5t-19.5 -19.5t-4.5 -9q12 -12 53.5 -35.5t88.5 -48.5t87 -46.5t50 -31.5l2 -4t8 -10q12 -45 4 -76t-18 -62.5t-13.5 -71.5t17.5 -102 q25 -70 -16 -130t-111 -85q-35 -10 -81 -4t-87 23.5t-72.5 44.5t-40.5 61q-16 47 -0.5 92.5t47.5 88.5q-51 20 -91 38.5t-56 32.5l-70 -463q10 -29 47 -58.5t83 -52t91.5 -33.5t71.5 -5q49 16 83 43t79 43q29 6 44 -8.5t19 -36.5q8 -16 10.5 -28.5t-1.5 -23t-13.5 -23.5 t-23.5 -32q-16 -20 -64.5 -55t-103.5 -72.5t-104.5 -69.5t-67.5 -46l-10 -6q-9 -7 -17 -9q-43 -12 -115.5 2.5t-147.5 46t-136.5 74.5t-79.5 90z" />
<glyph unicode="A" horiz-adv-x="1159" d="M-27 518v305q0 10 1 18.5t1 18.5v43q8 76 40 128t77 91t100.5 67t110.5 52q4 2 7 3t7 3q23 10 49.5 23.5t55.5 29.5l-2 -2q2 2 4 2t4 3q10 6 16.5 10t10.5 8q23 16 43 26.5t53 10.5q45 0 75.5 -24.5t65.5 -59.5q18 -23 42 -43.5t52 -36.5l10 -5q11 -5 27 -11q4 -2 6 -2 t7 -2q39 -16 77.5 -38t55.5 -59l49 -49q31 -31 31 -72q0 -37 -18.5 -52t-41.5 -25h2q-10 -6 -17 -10.5t-13 -8.5q-10 -59 -11.5 -102t-1.5 -96v-252q8 -2 22.5 -17.5t26.5 -34.5l45 -45q16 -16 32 -40.5t16 -41.5q0 -33 -5.5 -41t-25.5 -18q-4 -4 -9.5 -5t-9.5 -5 q-14 -20 -49 -52t-69 -65q-31 -27 -56.5 -51.5t-42.5 -44.5h-35q-27 0 -51 14t-47 37l-37 35q-33 18 -61.5 51t-50.5 66q-14 -10 -30.5 -30t-33.5 -40q-41 -47 -82 -90t-82 -43q-33 0 -55 16.5t-43 36.5q-4 2 -5 4t-3 4l-27 25q-16 10 -29.5 23.5l-25.5 25.5 q-94 94 -123 199.5t-29 234.5zM0 518q0 -61 6 -117.5t21.5 -107.5t43 -98.5t72.5 -92.5q20 -20 42 -37.5t51 -17.5q33 0 67.5 34t68.5 76t63.5 75.5t51.5 33.5q12 0 34 -33.5t51.5 -75.5t64.5 -76t74 -34h24q12 14 42 43t63.5 59.5t64.5 59.5t43 45q14 10 22.5 14t12.5 9.5 t6 11.5t2 20q0 8 -5 20.5t-13 25t-15.5 20.5t-11.5 8q-16 0 -25.5 -8t-25.5 -8q-14 0 -23.5 17t-13.5 39.5t-6 42t-2 26.5v16v90v33v82q0 66 1 116t13 117q10 12 25.5 20.5t29 15.5t22.5 18.5t9 33.5q0 35 -22.5 56.5t-53 37t-63.5 27.5t-51 27q-31 18 -56.5 43.5l-49 49 t-48 40t-55.5 16.5q-39 0 -60.5 -17.5t-56.5 -37.5q-61 -35 -133 -64.5t-135.5 -68.5t-108.5 -96.5t-55 -145.5v-41q0 -37 -1 -67.5t-1 -67.5v-41v-166zM393 590v217v39v96v16l10 58h5h8q8 -4 19 -21.5t22 -27.5l15 -15l7 -6v-512q0 -14 -20.5 -38.5t-30.5 -35.5h-6h-6 q-13 7 -13 17q-6 59 -8 111.5t-2 101.5zM717 1237l4 -2q8 -8 14 -12l-4 4q-6 6 -14 10z" />
<glyph unicode="B" horiz-adv-x="1095" d="M-31 1444q4 -10 13.5 -37t19.5 -51q10 -27 22.5 -56.5t22.5 -58.5t16.5 -52.5t6.5 -37.5v-756q-16 -14 -35 -33.5t-25 -27.5q-6 -16 -7 -19.5t-1 -11.5q0 -10 1 -13t5 -16q14 -23 52 -57.5t85 -73.5q39 -37 91.5 -78.5t103.5 -78.5t92 -60.5t57 -23.5h9l450 225l-2 2 q10 10 23.5 32.5t21.5 39.5q6 16 9.5 25.5t6.5 18.5t7 21.5t10 32.5v485q0 18 -12.5 45t-31.5 58t-44 61.5t-49 55.5l-21 18q-39 49 -81 87t-68 38q-35 0 -71 -18.5t-71 -45.5q2 63 16.5 101.5t33 60t40 31.5t40.5 16q29 10 48 21.5t19 44.5q0 35 -8 58.5t-39 62.5l-51 51 q-6 12 -25 33q-10 -2 -22.5 -3t-22.5 -4q-25 -4 -43 -6q-88 -10 -169 -26.5t-152 -63.5l-95 -61h-2q-2 0 -2 -2l-4 2q-6 4 -24 22v2l-15 13q-18 23 -37.5 44t-23.5 31zM0 1438l33 32q4 -6 17 -20t28.5 -29.5l29 -29t19.5 -17.5l6 -1t10 -1t11 1l6 1l96 64q43 27 89 42t93 24 t97.5 15.5t103.5 14.5q23 -29 29 -49.5t6 -48.5q0 -20 -14.5 -29.5t-37 -17t-47 -18.5t-47 -37.5t-37 -75t-14.5 -125.5v-27q0 -20 1 -43t1 -43v-29q27 12 56.5 34t60.5 43.5t61.5 36.5t59.5 15q20 0 56 -30.5t70 -72.5t58.5 -86t24.5 -69v-479q0 -2 -5.5 -18.5t-13.5 -41 t-12 -36.5q-8 -16 -19.5 -40t-13.5 -24l-446 -223q-2 -1 -5 -1q-15 1 -61 29q-54 34 -119 82t-122.5 98t-75.5 79l-2 6q-2 6 -2 10t2 10l2 6q6 10 29.5 33t33.5 31v768q0 25 -13 67t-30.5 86t-33 81.5t-19.5 52.5zM479 383l64 -64v519q-16 0 -40 -9.5t-24 -29.5v-416z" />
<glyph unicode="C" horiz-adv-x="1036" d="M-27 352q0 -33 16.5 -68.5t43 -71.5t61.5 -71t74 -65l8 -8q35 -35 74 -66t77 -53.5t72.5 -35.5t61.5 -13q4 0 12 1t14 1h13q14 8 46 28.5t71.5 47t82.5 56t82 56.5q35 25 63.5 43.5t43.5 28.5q4 4 12 8q18 12 30.5 21.5t18.5 19.5t9.5 24.5t3.5 38.5q0 18 -5.5 36 t-17.5 30l-57 55q-8 20 -24.5 33.5t-45.5 13.5t-49.5 -5t-40.5 -11q-4 -2 -6 -2t-6 -2q-18 -6 -37 -10t-35 -4q-23 0 -57.5 7t-67.5 21v320q4 -6 14 -8l45 -46q16 -16 36 -26t44 -10q25 0 76 16t103.5 43t91.5 62.5t39 76.5v13q0 4 -2 12q-6 10 -26 47t-41.5 80t-39.5 82 t-25 53l-8 6q-6 8 -12 25q-10 18 -24.5 39.5t-30.5 38.5l-6 4l-29 26q-18 29 -42 54.5t-54 25.5q-2 0 -3.5 -1t-3.5 -1h-14q-27 -10 -89 -32.5t-132 -47t-132.5 -47t-88.5 -31.5q-27 -12 -58.5 -29.5t-60.5 -42t-48.5 -54t-19.5 -62.5v-670zM0 352v670q0 29 16.5 53.5t41 45 t52 35.5t50.5 26q27 8 90 30.5t134 48t133 48t89 32.5q4 0 8 1t9 1q18 0 36.5 -19t34 -43t25.5 -44t16 -23q6 -14 24.5 -52t39 -80t39 -77.5t24.5 -46.5l1 -6t1 -10q0 -37 -36.5 -68.5t-85 -56t-96.5 -39t-71 -14.5q-33 0 -58 24.5t-44.5 57.5t-33 64.5t-23.5 47.5v-446 q0 -33 25.5 -57.5t61.5 -41t73.5 -24.5t62.5 -8q49 0 89 17.5t85 17.5q29 0 40 -20.5t11 -43.5q0 -41 -12 -54t-53 -42q-23 -14 -77 -51t-114.5 -79t-115 -78t-76.5 -48q-2 0 -13.5 -1t-19.5 -1q-43 0 -108.5 36t-126 89t-104.5 114.5t-44 114.5zM745 1266l3 -2q0 2 -3 2z " />
<glyph unicode="D" horiz-adv-x="1032" d="M-27 256q0 -4 17.5 -20.5t46.5 -38.5l31 -31q20 -23 79.5 -66t124 -88t119.5 -77.5t70 -32.5q14 0 57 19.5t98.5 49t116 67.5t111.5 76t84 71.5t33 56.5v575q0 18 -10.5 44t-27 52.5t-37 53t-40.5 47.5l-21 20q-23 29 -46 54.5t-46 41.5h4q-14 8 -46 24.5t-71.5 37 t-86 43t-87.5 43.5l3 2q27 18 51 49t24 96l-71 72v12q-80 0 -156 -9t-134.5 -38.5t-93 -85t-34.5 -147.5q0 -98 46 -168t118 -125h-148v-571q-23 -18 -50.5 -50t-27.5 -59zM0 256q0 10 9 24.5t21.5 28t26 25.5t21.5 18v557h209q-94 57 -160 132t-66 188q0 82 31 132t81 77.5 t115.5 36t137.5 8.5q0 -37 -17.5 -59.5t-37 -38t-37 -29t-17.5 -31.5q0 -2 1 -7t1 -7q23 -10 78.5 -37t116.5 -57.5t114.5 -58.5t73.5 -40q20 -10 48 -36.5t52.5 -60.5t42 -67.5t17.5 -58.5v-576q0 -20 -31.5 -51.5t-80 -67.5t-106.5 -71t-111.5 -63.5t-94.5 -47t-55 -18.5 q-10 0 -43 17.5t-75 44t-89 58.5t-86 60.5t-64.5 49t-25.5 26.5zM446 383l66 -64v480l-66 63v-479z" />
<glyph unicode="E" horiz-adv-x="1069" d="M-27 416q0 -43 18.5 -90t49.5 -94.5t72 -91.5t88 -79l10 -8q66 -66 142.5 -109.5t142.5 -43.5q23 0 69.5 23.5t102 60t114 82t105.5 88.5t77.5 79.5t30.5 55.5q0 35 -16 51l-61 59q-14 45 -84 45q-29 0 -55.5 -6t-51.5 -14q-18 -6 -38.5 -11t-49.5 -5q-27 0 -61.5 8 t-65.5 24v9q0 27 17.5 49t45 41.5t63.5 36t75 32.5q45 18 90 40t81 47.5t57.5 59t21.5 81.5q0 8 -1 19t-1 19v11l-232 364l-53 51l-17 29q-10 8 -13 9t-13 5l-7 3.5t-8 3.5q-10 4 -17 9t-15 9h-29q-31 0 -86 -16.5t-119.5 -45t-132 -66.5t-122 -80t-89.5 -86t-35 -83v-575z M0 416v575q0 37 33 78t85 80t116.5 73.5t126 61.5t114.5 42t82 15h18q12 -8 37 -18t27 -12l223 -353q0 -2 1 -18t1 -27q0 -53 -33.5 -89t-83 -63.5t-108.5 -50t-108.5 -48t-83 -58.5t-33.5 -78q0 -35 24.5 -61.5t59 -45t73.5 -28.5t68 -10t52.5 6t45 12.5t45 12.5t52.5 6 t46 -11.5t17 -39.5q0 -18 -29.5 -52t-74.5 -75t-101.5 -84t-110 -78t-97.5 -57.5t-66 -22.5q-63 0 -136 42t-135.5 104.5t-104.5 135t-42 136.5zM383 735l15 7q14 6 32.5 15t33.5 20t15 22q0 2 -12 26.5t-21 36.5q-4 4 -14 18.5t-20.5 30t-18.5 29.5t-10 18v-223z" />
<glyph unicode="F" horiz-adv-x="880" d="M-27 895q0 -39 11.5 -62.5t46.5 -46.5l8 -8v-428q-4 -8 -10 -14t-13 -17q-16 -23 -28.5 -41t-12.5 -22v-2q0 -12 13.5 -39t27.5 -41q18 -23 54 -47l24 -25q2 -2 4 -3t4 -3q23 -25 67 -57.5t87 -63t77 -52t36 -21.5h71l299 299v100l-71 72v12q-47 0 -72 -7t-43 -16 q-2 -2 -4 -2v328q0 4 4 7t8 5q8 0 12.5 1t12.5 4q18 4 44.5 9t53.5 9t51.5 7t36.5 3v27q0 18 2 31q0 12 1 23t1 17q0 92 -33 125l-2 2l-30 29q98 14 98 129q0 49 -17.5 88t-50.5 74l-12 10l6 -6l-10 12q37 27 50 68t13 94l-71 72v12q-98 0 -173 -2t-140.5 -14.5t-128 -39 t-138.5 -75.5q-59 70 -164 70q0 -59 10.5 -106.5t26.5 -88.5q2 -4 2 -6t2 -6q10 -35 20.5 -69t10.5 -73q0 -31 -11 -58.5t-24 -51.5q-16 -29 -26.5 -59.5t-10.5 -65.5zM0 895q0 33 11.5 60.5t24.5 55t24.5 56.5t11.5 63q0 43 -11.5 83t-24.5 79t-24.5 78t-11.5 82 q88 0 131 -78q74 51 134.5 80t123 42t134 15t167.5 2q0 -47 -16.5 -81.5t-63.5 -57.5q47 -37 74 -80t27 -100q0 -111 -113 -111q-35 0 -61.5 3.5t-55.5 31.5v-63q55 -4 93 -9.5t61.5 -19.5t33 -41t9.5 -76q0 -10 -2 -38.5t-2 -39.5q-10 0 -37 -4t-57.5 -10t-58 -11t-40.5 -7 q-8 -2 -19 -13.5t-11 -19.5v-414q0 -4 11 -17t19 -16h19q18 0 34.5 6.5t33 13.5t33.5 13t40 6v-71l-287 -287h-63q-2 0 -35 21.5t-75 52t-84 63.5t-62 56q-10 6 -22.5 30.5t-10.5 32.5q0 4 9 19.5t19.5 32t20.5 29.5t15 15v447q-41 20 -53.5 39.5t-12.5 56.5zM471 352 l10 -12q-10 4 -10 12z" />
<glyph unicode="G" horiz-adv-x="1069" d="M-27 500q0 -55 33 -110.5t80 -86.5l35 -35q-39 -6 -62.5 -20.5t-36 -38t-16.5 -57t-4 -76.5q0 -72 26.5 -116t71.5 -73l43 -43q29 -29 68 -46t83 -26.5t91 -12.5t90 -3q90 0 182.5 22.5t168 71t122.5 123t47 181.5q0 35 -5 63.5t-16 55t-30.5 56t-46.5 66.5v498 q6 8 15.5 22.5t18.5 28.5t17 27.5t13 19.5q2 10 2 21v10q-6 16 -13.5 25.5t-13.5 15.5l-49 49q-6 12 -14.5 20.5t-12.5 14.5l-16 16q-20 12 -71.5 44t-109 68t-108.5 68.5t-70 45.5h-12q-4 0 -7 1t-7 1h-13q-16 0 -58 -18.5t-94 -47.5t-109.5 -63.5t-103.5 -65.5t-77 -56.5 t-31 -33.5v-606zM0 500v606q0 8 28.5 30.5t72.5 51.5t97.5 60.5t102.5 57t89 42t56 16.5q8 0 19.5 -1t13.5 -1q18 -12 68.5 -44t107 -68t106.5 -67.5t70 -43.5q6 -8 17.5 -16.5t13.5 -16.5l1 -6t1 -10t-1 -10l-1 -7q-4 -6 -12 -19.5t-18.5 -28.5t-19.5 -28.5t-13 -17.5v-512 q27 -37 46 -66.5t30.5 -55.5t16.5 -53.5t5 -60.5q0 -100 -46 -171.5t-117.5 -116.5t-161 -66.5t-175.5 -21.5q-61 0 -126.5 7t-119 29.5t-88 66.5t-34.5 118q0 43 5 75.5t20.5 53t44 31t75.5 10.5q57 0 96 -21.5t61.5 -57.5t32 -81t9.5 -94q27 0 62.5 4t67.5 16.5t53.5 37 t21.5 65.5q0 8 -1.5 17t-1.5 15q-8 14 -26.5 51.5t-39 78t-37.5 76.5t-26 50h-16h-14q-53 -23 -83 -41l-52.5 -31.5t-46 -20.5t-62.5 -7q-33 0 -63.5 18.5t-55 46t-39 62.5t-14.5 70zM326 213q16 4 30.5 13.5t30.5 19.5q16 8 35.5 21.5t46.5 25.5q2 -4 4 -6t4 -6 q20 -47 41 -87t31 -57v-14q0 -4 1 -5t1 -3q0 -39 -28.5 -58.5t-65.5 -29.5q-8 31 -22 58.5t-34 47.5l-51 51q-6 8 -11 15.5t-13 13.5zM352 555q16 0 40 9t24 30v416l-64 32v-487z" />
<glyph unicode="H" horiz-adv-x="1052" d="M-27 1485q0 -96 25 -187.5t59 -152.5v-701q-33 -18 -38 -38.5t-5 -45.5q0 -41 38 -87t87 -83l27 -26q25 -25 53.5 -46.5t55 -38t49 -25.5t34.5 -9q20 0 45 10.5t52 26.5q-10 -59 -35 -86t-62 -55q-4 -4 -6 -5.5t-6 -5.5q-23 -18 -49.5 -41.5t-56.5 -58.5l-2 -23 q14 -35 45 -49l57 -57q16 -16 37.5 -19.5t44.5 -3.5h10q84 0 168 41t154.5 106.5t121 146.5t66.5 161q2 20 8 88t13.5 149t12.5 158.5t5 118.5q0 10 -5 43t-13 68q-4 16 -7.5 36.5t-6.5 37t-5 25.5t-2 7l-65 64l65 -64q-2 8 -14.5 39t-30.5 70t-40.5 78t-47.5 63l-33 31 l-4 4q-23 33 -45 54.5t-45 21.5q-20 0 -35 -13l-108 -73q2 41 9 75.5t27.5 62.5t56.5 46t93 27q0 4 1 15t1 15v4v13q0 4 -2 14q-8 16 -23 31l-49 47v4q-6 14 -19 26.5t-24 22.5q-2 2 -4 3t-4 3h-96q-4 0 -9 1t-10 1h-24q-59 0 -105.5 -5t-84 -20.5t-74.5 -42t-78 -69.5 q-2 2 -2 4q-25 29 -54.5 48.5t-91.5 19.5zM0 1458q43 0 67.5 -26.5t53.5 -55.5q43 45 79 74t73.5 45t82.5 22.5t107 6.5h24q20 0 39 -1t39 -1h29q8 -6 17.5 -15.5t15.5 -21.5l1 -9q1 -8 1 -14q0 -2 -1 -7t-1 -9q-68 -10 -106 -36t-55 -63.5t-21.5 -86t-4.5 -103.5 q0 -20 3 -58t3 -52l218 145q10 6 20 6q18 0 38 -20q30 -32 56.5 -81.5t44 -97t21.5 -57.5q2 -18 8 -51t13 -66.5t12.5 -62.5t5.5 -37q0 -39 -5.5 -116t-12.5 -156.5t-13 -147t-8 -88.5q-16 -78 -64.5 -156.5t-116 -141t-148.5 -102.5t-161 -40q-29 0 -55.5 4t-36.5 35 q45 55 86 83.5t72 56.5t49 69t18 122q0 6 -1 20.5t-3 30t-3 30t-1 20.5q-18 -10 -44.5 -27.5t-54.5 -35t-54.5 -30t-44.5 -12.5t-58.5 20.5t-80.5 53.5t-70.5 71t-30.5 72q0 23 5 40.5t38 29.5v727q-33 59 -58.5 141t-25.5 160zM446 430l43 -4v477l-43 -39v-434z" />
<glyph unicode="I" horiz-adv-x="786" d="M-27 889q0 -16 14.5 -42t30.5 -36q4 -6 15 -8l55 -55v-525q0 -18 15.5 -48t39 -61.5t53 -62.5t58.5 -51l25 -23q33 -33 65.5 -55t54.5 -22q29 0 82.5 31.5t105.5 76.5t90 92t38 78q0 43 -21 64l-59 57q-8 27 -37 39q-4 35 -7 74t-6 74.5t-4 64.5t-1 43q0 47 16 70.5 t36.5 44t34 39t13.5 51.5q0 8 -1 11t-7 19l-68 66q0 2 -4 14l-133 131q43 37 81 82t38 111q0 37 -18.5 75t-49.5 68l-43 41q-33 47 -83 80t-101 33q-37 0 -71 -15.5t-59.5 -41t-41 -59.5t-15.5 -73q0 -18 5.5 -46.5t16.5 -60.5t26.5 -62.5t35.5 -53.5l-204 -205 q-8 -8 -9.5 -14t-1.5 -10zM2 895l223 223q-23 12 -40 41t-29.5 62.5t-18.5 66.5t-6 53q0 33 13.5 63t35 51.5t50 34.5t61.5 13q35 0 69.5 -17.5t63.5 -45t46 -62.5t17 -67q0 -33 -12 -60.5t-31.5 -50t-43 -43t-46.5 -39.5l224 -223l2 -6t2 -12q0 -29 -15.5 -47.5t-35 -38 t-35 -46t-15.5 -73.5q0 -20 3 -70.5t8.5 -107t11.5 -106.5t10 -69q17 3 31 3q71 0 71 -66q0 -29 -35.5 -73t-83.5 -85t-98.5 -70.5t-76.5 -29.5q-25 0 -60 26.5t-67.5 63.5t-56 75t-23.5 60v576q-6 0 -17.5 4t-24 9t-23.5 10t-15 9q-14 10 -27.5 33t-5.5 31z" />
<glyph unicode="J" horiz-adv-x="1052" d="M-27 328q10 -37 34 -74t54.5 -73t64.5 -68.5t67 -59.5q27 -27 53 -48t51 -42q-2 -6 -2 -24h12l72 -72q45 0 116.5 23.5t150.5 62.5t156 89t130 103q-10 104 -17.5 199.5t-7.5 214.5v348q10 12 22.5 31.5t22.5 38.5q6 10 11.5 20.5t9.5 14.5v6q2 2 2 12v2l-2 2 q-14 25 -51 62l-19 18v10l-6 -6l-2 4q-12 20 -36.5 45t-53.5 52q-4 2 -10 8l18 18t23 25q20 23 41.5 48t29.5 34q2 14 2 18v23q0 35 -18.5 80t-48.5 75l-43 43q-20 33 -49 55.5t-64 22.5q-20 0 -52 -13.5t-61.5 -35t-51 -50t-21.5 -59.5v-8q0 -8 6 -31.5t14 -53t18.5 -60.5 t18.5 -53l-145 -158q-6 -6 -9.5 -23.5t-3.5 -27.5q0 -31 9.5 -56.5t37.5 -35.5l21 -19v-616l-395 92q0 -20 -3 -26.5t-8 -8.5q-8 -8 -12 -10l-74 -41v-4h-2v-31t2 -12h-2zM0 344q12 0 14 2t-1 5t-7 5l-4 2l61 35q8 8 21.5 18.5t13.5 14.5l396 -92v696q-41 -6 -54.5 15.5 t-13.5 50.5q0 8 1 19t3 13l160 172q-6 8 -16.5 38t-20.5 64t-18.5 62.5t-8.5 38.5q-4 27 13.5 52.5t44 45t55.5 30.5t47 11q27 0 49.5 -18t40 -44t26.5 -55.5t9 -54.5q0 -10 -1 -21l-1 -11q-8 -8 -25.5 -27.5t-37 -42t-37 -42t-23.5 -26.5q0 -4 31 -33.5t67.5 -64.5 t65.5 -63.5t27 -28.5q0 -2 -1 -8l-2 -6q-4 -6 -13 -21.5t-18 -32t-18.5 -30t-15.5 -19.5v-73v-215v-68q0 -113 7 -207t18 -199q-51 -51 -123 -99t-144.5 -85t-138.5 -59.5t-106 -22.5q0 10 6 15h-9q-18 18 -64 56t-98.5 86t-96.5 102.5t-58 103.5l-1 4t-1 12zM117 129 l14 -14zM379 -109l10 -10l-10 8v2z" />
<glyph unicode="K" horiz-adv-x="1079" d="M-27 360q0 27 27 50.5t61 40.5v704q-31 61 -54 152.5t-23 181.5q53 0 86.5 -19.5t56.5 -46.5q43 39 80 66t74.5 42t82 21.5t101.5 6.5h6q4 0 7 -1.5t7 -1.5q10 -2 21 -2h20t16.5 -1t12.5 -1h41q12 -4 29.5 -19t27.5 -32v-6l41 -41l2 -2l11 -8q14 -14 18 -23q2 -14 2 -18 v-10v-9q0 -4 -1 -15t-1 -15q-57 -8 -92 -26.5t-55.5 -44.5t-27.5 -60.5t-9 -73.5l104 70v-2q44 32 111 32h4q45 0 88 -19.5t72 -66.5l2 -2l47 -45q16 -16 28 -41l-301 -254q41 -14 87 -31.5t102 -37.5q27 -12 43 -45l53 -54q20 -18 28.5 -52t8.5 -75q0 -53 -10.5 -116.5 t-24.5 -121t-28.5 -101.5t-22.5 -58h2q-47 -80 -100.5 -155.5t-115 -138t-132 -104.5t-150.5 -53h-20q-20 0 -40 4.5t-34 18.5l-59 59q-35 16 -43 58l98 229q-23 6 -51.5 19.5t-60 32t-61.5 41t-54 46.5l-31 31q-45 35 -76 72t-31 71zM0 360q0 -35 36 -72.5t83 -70.5 t95 -53.5t71 -20.5q25 0 40 4.5t28.5 10.5t29.5 15t45 20l-162 -377q6 -31 36 -36t54 -3q76 10 143.5 51t127 101.5t112 135t99.5 152.5q6 12 19 51t26.5 92.5t24 114t12.5 112.5v16q0 42 -8 75q-10 39 -38 49q-123 47 -204.5 77t-139.5 46l363 307q-16 31 -47 46.5 t-66 18.5q-10 1 -20 1q-24 1 -48 -5q-32 -8 -50 -22l-218 -143v18q0 16 -1 33.5t-1 34.5v24q0 55 3.5 103.5t21.5 86.5t55 62.5t105 34.5q0 8 1 12t1 8q0 2 -1 12l-1 9q-6 10 -17.5 21.5t-19.5 13.5q-8 0 -24.5 1t-39.5 1q-20 0 -36.5 2t-24.5 2q-59 0 -103.5 -6t-82 -23.5 t-74.5 -46.5t-82 -72q-20 29 -46 53.5t-67 24.5q0 -74 24.5 -156.5t53.5 -142.5v-729q-29 -12 -58.5 -31.5t-29.5 -42.5zM422 262l6 430q43 -59 55.5 -116.5t12.5 -112.5v-68q0 -23 -15.5 -60.5t-58.5 -72.5zM694 1454q2 0 2 -2z" />
<glyph unicode="L" horiz-adv-x="784" d="M-27 1427q0 -4 1 -6t1 -6v-12l33 -94q4 -29 10.5 -55.5t10.5 -41.5q2 -4 2 -6t2 -6q2 -14 6 -20v-820q-20 -16 -37.5 -34.5t-24.5 -28.5l-2 -8v-8q0 -16 12.5 -37t30 -41.5t36 -38t28.5 -25.5l13 -13t24 -20l12 -12q10 -10 19.5 -18t13.5 -13q12 -12 40.5 -35.5t60.5 -49 t60.5 -48t39.5 -30.5q6 2 36.5 15t42.5 24l265 196v12q4 16 4 31q0 43 -21 64l-57 55q-10 39 -55 45v922q0 6 7 9t17 7q14 4 31.5 12t31 25.5t22.5 50.5t9 86l-71 72v12q-115 0 -201 -31.5t-154 -62.5q-41 -18 -72.5 -31.5t-52.5 -13.5h-4l-94 61l-2 -2q-6 2 -17.5 4 t-23.5 4t-21.5 4.5t-11.5 2.5v-46zM0 1446q2 0 17.5 -3t17.5 -5l96 -64l5 -1t11 -1q31 0 78 21.5t105.5 48t127 48t142.5 21.5q0 -66 -18.5 -91t-41 -34.5t-41 -14.5t-18.5 -30v-1034q25 0 48.5 4t42 3t30.5 -13t12 -45q0 -8 -2 -19.5t-2 -13.5l-256 -190q-8 -8 -32.5 -19.5 t-30.5 -13.5q-10 8 -38 29.5t-58.5 47t-58 49.5t-38.5 34q-6 2 -23.5 17.5t-34.5 35.5t-29.5 41t-8.5 33q6 14 28.5 37.5t35.5 27.5v830q0 4 -4.5 18t-9.5 33.5t-10 40t-7 37.5l-33 94q0 8 -1 21.5t-1 19.5z" />
<glyph unicode="M" horiz-adv-x="1679" d="M-27 1053q0 -31 20.5 -57.5t49.5 -45.5l29 -26v-576q-4 -8 -13 -29q-2 -4 -3 -7t-3 -7q0 -2 -1 -4t-1 -4q-2 -4 -5 -9t-7 -12v-51q8 -16 31.5 -45.5t40.5 -46.5q4 -4 6 -4q2 -6 8 -6l47 -47q16 -16 25 -23q23 -23 46 -44t40 -34q23 -23 44 -42t33 -29q12 -4 15 -4h10 q37 0 66.5 23.5t58.5 56.5q29 29 56.5 54t62.5 25q4 0 6 -1t6 -1q16 -23 33.5 -42t40.5 -29l45 -45q18 -18 38.5 -29.5t49.5 -11.5q27 0 61.5 16t68.5 44t62.5 63.5t42.5 72.5q23 -29 48.5 -53.5t50.5 -40.5l24 -25q35 -35 67 -56t50 -21q31 0 79 30.5t94 73.5t79 88t33 76 q0 4 -1 7t-8 22q-10 12 -29.5 36.5t-31.5 38.5v594q10 16 20.5 43t12.5 41v45q-6 10 -8 12.5t-9 8.5l-8 8q-10 10 -16 23l-39 36q-4 8 -10 15q-4 4 -11.5 12t-13.5 18q-37 33 -86 86l-18 19q-35 37 -69 70.5t-62 52.5h-2l-7 6h-26l2 2l-2 -2q-23 -18 -36 -29.5t-26 -23.5 q-20 -20 -44.5 -45t-49 -46.5t-46 -36t-36.5 -16.5l-84 101l-28 28l-50 58q-12 8 -15 9t-13 1q-12 0 -16.5 -1t-12.5 -5q-20 -6 -65.5 -42t-92.5 -73q-12 -8 -16 -12q-18 -16 -36.5 -29.5t-31.5 -23.5l-77 96l-29 28l-47 56h-86q-51 -47 -81 -76t-50.5 -47.5t-34.5 -33.5 t-35 -38l-11 -11t-11.5 -13.5t-16.5 -20.5t-28 -37q-4 -10 -5.5 -16t-1.5 -10zM2 1067q2 2 12.5 15.5t25.5 32t26 28.5q20 23 53 54.5t63.5 61t53.5 49.5l22 21h64l159 -186q2 -6 35 19.5t76 60t85 67.5t60 39l7 3q6 3 14 3q2 0 7 -3l5 -3l160 -186l4 -2q4 -2 12 -2 q23 0 58.5 25.5t71.5 59t65.5 64.5t42.5 41l6 3q6 3 12 3q2 0 7 -3t8 -3q14 -10 45.5 -43t67.5 -69.5t66.5 -68.5t43.5 -42q8 -10 20.5 -23.5t12.5 -15.5v-20v-17q-2 -14 -13.5 -43t-19.5 -37v-608q10 -10 32.5 -36.5t30.5 -39.5l3 -9q3 -9 3 -11q0 -29 -30.5 -71t-72.5 -81 t-87 -67.5t-74 -28.5q-18 0 -52 25.5t-67.5 61.5t-58.5 76t-25 70v707q-8 0 -20 6t-29 6q-33 0 -32 -37v-571q23 -33 29.5 -57.5t6.5 -53.5q0 -41 -24.5 -81.5t-59 -74.5t-73.5 -55.5t-70 -21.5q-35 0 -60.5 24.5t-49 55.5t-49 55.5t-60.5 24.5q-41 0 -70.5 -24.5 t-57.5 -55.5t-55.5 -55.5t-60.5 -24.5q-6 0 -11 1l-5 1q-10 8 -46 43t-75 72q-14 16 -24.5 24t-14.5 13q-14 14 -36.5 39.5t-28.5 39.5v15v20q6 10 15 38t17 38v608q-10 0 -28.5 10.5t-36 28t-27.5 38t-4 40.5zM514 342h64v649l-64 -41v-608z" />
<glyph unicode="N" horiz-adv-x="1423" d="M-27 1055q0 -35 13.5 -52.5t29.5 -25.5l60 -57q4 -8 11 -11.5t17 -7.5v-506q-4 -2 -5 -4t-5 -6q-10 -10 -23.5 -22.5t-25.5 -24.5t-22.5 -24.5t-12.5 -18.5l-2 -6q0 -2 -1 -3t-1 -3v-4q0 -25 21.5 -52.5t40.5 -44.5l59 -53l8 -6q6 -10 21 -19l6 -6l227 -196h43 q4 0 36 22.5t74 53t86 64.5t72 56l7 6q23 -25 47 -49t51 -43l18 -18q41 -41 85 -70.5t67 -29.5q10 0 26 6q2 0 7 1l6 1l260 196q16 12 22 17q33 25 44.5 40t11.5 54t-29 67l-53 52q-6 16 -19 28v514q10 8 21.5 22.5t21 31t15.5 31t6 22.5t-1 10t-7 8l-64 64q0 8 -10 18l-8 8 q-10 10 -25.5 26.5t-30.5 27.5l-133 98q-4 2 -17 15.5t-30.5 30.5t-35 34.5t-27.5 30.5q-4 4 -6 7t-7 7l-6 6q-10 2 -12 2h-12q-57 0 -117.5 -44t-118.5 -97q-16 -16 -36.5 -33.5t-43.5 -32.5q-10 12 -21 24.5t-22 26.5l-26 27q-39 49 -87.5 88t-103.5 39h-22 q-43 -20 -87 -54t-85 -72t-77 -77t-61 -69v-17q0 -4 -1 -6t-1 -6v-12zM0 1055q0 8 1 18t1 12q25 29 57.5 66t71.5 73t80 67.5t80 49.5h16q39 0 75 -23.5t66.5 -58t55 -73.5t41.5 -68q35 18 77 56t87 75t89 65.5t85 28.5q2 0 8 -1l6 -1q2 -2 20.5 -21.5t40 -43t41 -41.5 t25.5 -21l129 -96q8 -6 19.5 -16t20.5 -20.5t17 -18.5l7 -8q0 -8 -7.5 -22.5t-16.5 -30t-20.5 -27.5t-19.5 -17v-575q37 -12 68.5 -32.5t31.5 -63.5q0 -18 -3 -29.5t-11 -21t-21.5 -18.5t-33.5 -25l-254 -193q-4 0 -14.5 -4t-18.5 -4q-18 0 -53 21.5t-69 53t-59.5 66.5 t-25.5 60v765l-49 33l-31 -33v-639q6 -8 17.5 -31.5t13.5 -31.5v-18v-15l-31 -30q-29 -23 -71.5 -56t-82.5 -63.5t-70 -52t-32 -21.5h-32l-224 193q-8 6 -20 17t-23.5 25.5t-17.5 28t-2 23.5q2 6 15 20.5t29.5 29.5t32 28.5t19.5 17.5v575q0 25 -20.5 29t-45 7t-45 13.5 t-20.5 47.5z" />
<glyph unicode="O" d="M-25 307q0 -25 28 -58.5t75 -68.5l28 -28q41 -41 105.5 -85t132.5 -81t128 -61.5t95 -24.5h15q4 0 18 2q12 4 45 30.5t64 53.5q18 16 33.5 28.5t21.5 16.5h2q45 25 81 43t66 35q80 39 123 66.5t64.5 74.5t25.5 129t4 229v47q0 16 -1 35t-1 37v127q-20 76 -60 161 t-105 150l-29 27q-39 53 -88 92t-109 55q-8 -6 -35.5 -21t-59.5 -30.5t-58.5 -29t-34.5 -15.5q-35 -16 -111 -33.5t-157 -33.5q-49 -10 -95.5 -21.5t-81 -23t-56 -22.5t-21.5 -24v-682q-29 -8 -40.5 -26.5t-11.5 -46.5v-23zM2 307v23q0 23 11.5 38t39.5 15v702q0 6 31 15.5 t79 21t106.5 23.5t113.5 24.5t100 23.5t68 21q8 2 35.5 15.5t59.5 29t59.5 31t35.5 21.5q57 -16 104.5 -58.5t83.5 -96.5t61.5 -114.5t39.5 -115.5v-49q0 -35 1 -72t1 -72v-47q0 -115 -2 -188.5t-12 -119.5t-31.5 -72.5t-61.5 -50.5t-100.5 -52.5t-146.5 -75.5 q-6 -4 -29.5 -23.5t-50.5 -42t-50.5 -41t-29.5 -20.5l-10 -1t-19 -1q-29 0 -74.5 16.5t-100 43t-109.5 61.5t-100.5 68.5t-74 65.5t-28.5 54zM518 416q0 -20 21.5 -29.5t42.5 -9.5v518q0 20 -21.5 51t-42.5 45v-575z" />
<glyph unicode="P" horiz-adv-x="1040" d="M-25 406q0 -33 10.5 -58.5t37.5 -36.5l59 -57q18 -18 49 -18q12 0 19 2q6 -63 15 -135t25.5 -136.5t42 -114t64.5 -65.5l49 -49q29 -29 62 -29q41 0 51 13.5t16 50.5q4 25 14 59q2 6 7.5 35t13.5 63q6 27 12 56.5t12.5 55.5t11.5 45t7 28h-2q4 4 50 32.5t108 63.5 q45 27 91 54.5t84 53t61.5 47t23.5 35.5v594q0 10 -10.5 36t-25.5 55.5t-35.5 59.5t-41.5 52l-39 37q-23 33 -46 55.5t-46 22.5q-18 0 -45 -13.5t-57.5 -32t-60.5 -40t-52 -37.5q-8 10 -15.5 17.5t-15.5 17.5l-24 22q-10 12 -19.5 24.5t-19.5 22.5l43 47q-6 29 -21 43 l-57 58q-12 31 -37 39t-47 8h-35q-119 0 -171 -69.5t-52 -192.5q0 -57 11 -102.5t28 -86.5q2 -4 2 -8q0 -2 2 -6q10 -37 20.5 -76t10.5 -92q0 -59 -21.5 -106.5t-46.5 -94.5q-4 -4 -6 -12t-6 -12q-23 -41 -40.5 -85t-17.5 -102v-38zM2 406v38q0 59 21.5 107.5t47 94.5 t47 96.5t21.5 113.5q0 57 -11 102.5t-25.5 86t-25.5 83.5t-11 99q0 111 46 173t150 62q12 0 26.5 1t29 -2t25.5 -10t15 -26l-63 -71q66 -29 113 -87.5t79 -123.5q2 0 32 22.5t69 49t78 49t59 22.5q23 0 48.5 -28.5t47 -65.5t35.5 -72t14 -47v-594q0 -12 -30.5 -34.5 t-75.5 -51t-98.5 -60.5t-99.5 -58.5t-77.5 -47t-33.5 -28.5q-4 -12 -13.5 -55.5t-19.5 -90.5t-19.5 -88t-11.5 -49q-10 -33 -13 -53.5t-7 -32.5t-12.5 -17.5t-28.5 -5.5q-35 0 -59.5 34t-42 87.5t-28 119t-17.5 128t-10 115.5t-5 82q-6 0 -16.5 2t-16.5 2q-14 0 -24.5 -7.5 t-18.5 -14.5t-17 -14t-22 -7q-29 0 -40 21.5t-11 50.5zM487 651l64 -69v387l-33 35l-31 -35v-318z" />
<glyph unicode="Q" horiz-adv-x="1042" d="M-25 711q0 -57 4.5 -127t18.5 -137.5t43 -124t80 -86.5l45 -46q55 -55 143 -55q41 0 66.5 21.5t50.5 50.5q12 16 25 26q12 -59 31.5 -128.5t44 -133t52 -110.5t58.5 -64l55 -55q23 -23 47 -23q23 0 43.5 37t38 93.5t32.5 124t25.5 131t17.5 112.5t9 68q2 23 5 69.5 t6.5 106t6.5 127t6 130t5 114t2 79.5q27 12 31 31t4 41v6q0 31 -43 74l-43 41q-25 39 -82.5 82t-123 80t-124.5 60.5t-86 23.5h-23l-98 -68q-31 -16 -59.5 -30.5t-50.5 -26.5q-4 -4 -14 -9l-11 -4l2 2q-53 -27 -91 -47t-64.5 -42.5t-43 -50t-25.5 -68.5t-12.5 -99.5 t-3.5 -140.5v-55zM2 766q0 92 4 153.5t17.5 101.5t37 65.5t63.5 49t97.5 51t136.5 70.5l97 66h14q29 0 95.5 -27.5t135 -66.5t120.5 -84t52 -78q0 -20 -3 -36.5t-31 -26.5q0 -25 -2 -74t-4.5 -112.5t-6.5 -134.5t-7 -133.5t-6 -112.5t-5 -72q-2 -18 -8 -66.5t-16.5 -109 t-24 -126t-28.5 -120t-32.5 -90t-35.5 -35.5q-27 0 -52.5 34.5t-48 89t-41 120t-33 126t-22.5 109t-10 68.5q-6 0 -10.5 1t-6.5 1q-35 0 -59.5 -20.5t-46 -46.5t-45 -46.5t-56.5 -20.5q-92 0 -139 61.5t-66.5 146.5t-21.5 175.5t-2 149.5zM358 588q0 -20 21.5 -28.5 t42.5 -8.5v420q0 20 -23.5 29.5t-40.5 9.5v-422z" />
<glyph unicode="R" horiz-adv-x="1167" d="M-27 1024q0 -37 16.5 -57.5t39.5 -30.5l51 -51q16 -23 55 -33v-395l-119 -119q-6 -6 -9 -11t-3 -16q0 -14 22.5 -37.5t57.5 -52.5l31 -28q37 -37 109.5 -87.5t148.5 -96.5t135 -77.5t70 -31.5h22q6 0 15.5 1t13.5 1q111 84 209 175t190 189v15q4 16 4 24q0 23 -4 40 t-16 30l-6 4h2l-56 53q-16 45 -69 45q-31 0 -54.5 -12t-46.5 -29q-16 -10 -32.5 -19t-38.5 -9h-2v370l41 -59l38 -41q4 -2 11 -2l69 -70q16 -4 19 -4h10h6q2 0 6 1t6 1q16 2 44 24.5t56.5 51.5t50 56.5t26.5 39.5q2 14 2 21v28q0 10 1 19.5t1 19.5v31q0 106 -29 189 t-102 157l-15 14v-2q2 0 2 -2l-8 9q-45 61 -113 116l-231 -231q-8 12 -17.5 22.5t-17.5 20.5l-28 26q-18 27 -37 46.5t-43.5 37t-57 35t-82.5 37.5q-8 -6 -30.5 -25.5t-42.5 -37.5q-8 -6 -25 -23q-35 -31 -71.5 -62.5t-57.5 -43.5h-4q-14 -12 -19.5 -16.5t-15.5 -14.5 q-4 -4 -9 -8t-1 -2q-35 -27 -51.5 -47.5t-16.5 -65.5zM0 1024q0 25 6 39t18.5 26.5t31 25.5t42.5 36q14 8 46 35.5t68 58.5t66.5 58.5t43.5 37.5q55 -23 88.5 -42t58.5 -42.5t48.5 -56.5t60.5 -82h32l224 223q94 -74 128.5 -161.5t34.5 -206.5q0 -14 -1 -32.5t-1 -37.5 q0 -16 -1 -29l-1 -12q-4 -12 -23.5 -37.5t-45 -52.5t-51 -47t-39.5 -23q-2 0 -7.5 -1t-7.5 -1q-6 0 -12 1l-6 1l-31 33l-129 191l-31 -31v-479q0 -18 13.5 -25.5t31 -9.5t34 -1t22.5 1q29 0 49 11t38.5 23.5t38 24t46.5 11.5q29 0 40 -19.5t11 -48.5q0 -8 -2 -18.5t-2 -12.5 q-90 -98 -185.5 -186t-199.5 -166q-6 0 -22.5 -1t-22.5 -1q-8 0 -48 20.5t-96.5 52t-118 70.5t-110.5 75t-76.5 63.5t-15.5 39.5l127 127v449q0 25 -25.5 34t-55.5 18t-55.5 24.5t-25.5 52.5z" />
<glyph unicode="S" horiz-adv-x="993" d="M-27 375v16q0 33 29 63.5t69 57.5t85 46.5t77 29.5l-249 239v189q0 33 16 60.5t41 51t54.5 40t54.5 28.5q16 6 57 22.5t94 34.5v2q39 14 81 31t79 31t66.5 26.5t43.5 18.5q4 0 7 2h8q2 0 4 1t4 1q25 0 45 -19.5t37 -43.5l43 -43q18 -18 32.5 -45t24.5 -50l12 -24 q4 -6 11.5 -22.5t15.5 -35.5q10 -23 22.5 -49t24.5 -53t23.5 -48.5t19.5 -33.5l10 -10q0 -14 1.5 -20.5t1.5 -10.5h2q0 -33 -26 -63.5t-62.5 -55t-78.5 -43t-75 -28.5l168 -136v-8l72 -71l-7 -220q0 -33 -17 -60.5t-42 -50t-51.5 -38.5t-44.5 -27q-12 -6 -38 -15 t-58.5 -21.5t-69.5 -25.5t-72 -26l2 -2q-61 -23 -114.5 -42t-75.5 -29l-8 -2q-4 0 -6.5 -1.5t-4.5 -1.5h-8q-23 0 -47 25l-51 51q-18 8 -33.5 25.5t-30 38t-25 41t-16.5 32.5l-2 2q0 2 -2 5q-8 14 -26.5 49t-38 74.5t-34.5 76.5t-20 54h-2q-2 8 -2 10zM0 391q0 -6 1 -12 l1 -6q2 -10 17.5 -46t36 -77t39 -77t26.5 -48q2 -4 12 -25.5t25.5 -46t33 -44t33.5 -19.5q6 0 9.5 1t9.5 1q25 10 84 31.5t125.5 46t125 47t83.5 33.5q18 10 43.5 26.5t50 36.5t41 45t16.5 53l6 209l-461 373l39 63q10 -18 24.5 -51t33 -65.5t42 -57t54.5 -24.5 q20 0 65.5 14t90.5 39t79.5 56.5t34.5 68.5q0 2 -1 11l-1 9q-8 6 -25.5 41t-37 77t-37 80t-23.5 50q-4 2 -13 23.5t-22.5 46t-30 45t-36.5 20.5q-4 0 -7 -2t-9 -2q-25 -12 -84.5 -35.5t-125 -48t-125 -47t-83.5 -33.5q-23 -10 -49.5 -25.5t-49 -34.5t-37 -44t-14.5 -51v-178 l299 -285q-14 14 -39 14q-20 0 -64 -15t-90 -40t-81 -56.5t-35 -64.5zM348 514l146 -133l-72 -8q-12 23 -28.5 64.5t-45.5 76.5zM514 303h2h2l-4 2v-2z" />
<glyph unicode="T" horiz-adv-x="876" d="M-27 926q0 -53 25 -82t68 -58l6 -6v-428q0 -4 -9.5 -9t-21.5 -11t-25.5 -11.5t-19.5 -7.5l2 -4l-23 -28q14 -49 50 -89t84 -75l18 -19q33 -35 73 -62.5t81 -51.5l4 -4q27 -16 49 -32t57 -46l4 -4q31 8 94.5 47t127 89t111.5 102t48 89q0 35 -16 51l-62 60 q-10 27 -31.5 36t-50.5 9h-4v348q10 -2 21 -2h20q70 0 110 37t40 117q0 49 -33 82l-4 2q2 0 2 -2h2l-51 51q-16 35 -50 52t-71 28v309l-72 72v8l-118 90q-53 -104 -98.5 -185t-94.5 -151t-106.5 -134.5t-133.5 -133.5v-17q0 -4 -1 -7t-1 -7v-12zM0 926q0 8 1 19t1 13 q76 70 132 132.5t102.5 129t89.5 142.5t92 172l82 -64v-385q20 -4 55 -9t67.5 -18.5t57.5 -37t25 -62.5q-1 -86 -53 -114q-34 -18 -80 -19q-27 0 -58 6v-491q10 0 38 6t55.5 8t49 -8t21.5 -43q0 -35 -45 -83t-104.5 -94t-119 -82t-87.5 -44q-33 29 -82.5 59.5t-96.5 65.5 t-87 75t-54 87l14 6q15 6 33.5 16t33.5 21.5t15 21.5v447q-45 29 -71.5 54.5t-26.5 72.5z" />
<glyph unicode="U" horiz-adv-x="1423" d="M-27 1024q0 -39 11.5 -57.5t29.5 -26.5l62 -59q10 -12 28 -17v-442q-4 0 -12 -8l-8 -8q-14 -6 -39 -18.5t-35 -22.5q-4 -16 -4 -19v-6v-14q0 -2 4 -19q8 -29 26.5 -56.5t44 -56t55.5 -55t61 -51.5q43 -43 90 -80t84 -65q16 -12 30.5 -23.5t22.5 -17.5h25q47 0 83.5 25.5 t73.5 56.5q35 29 70 54t76 25q27 0 49 -16q14 -14 28.5 -26.5t30.5 -22.5l31 -31q27 -29 59.5 -47t73.5 -18q35 0 91 28.5t108.5 71.5t90.5 90t38 84q0 41 -21 62l-57 57q-8 20 -23.5 29.5t-31.5 13.5v500q37 35 53 62.5t16 76.5v22q0 2 -1 4.5t-1 4.5q-6 12 -10 18t-14 16 l-50 50q-4 10 -10 17t-24 24q-2 2 -4.5 3t-4.5 3q-20 16 -51 45q-27 20 -60.5 49t-65 57.5t-58.5 53t-39 36.5q-119 -152 -289 -235q-14 27 -30.5 48t-32.5 42l-41 39q-29 41 -66 68.5t-82 27.5q-4 0 -6 -1t-4 -1h-33q-8 -6 -24.5 -21.5t-34.5 -31.5l-8 -8q-8 -6 -25 -23 q-35 -31 -71.5 -62.5t-57.5 -43.5h-4q-14 -12 -19.5 -16.5t-15.5 -14.5q-4 -4 -9 -8t-1 -2q-35 -27 -51.5 -47.5t-16.5 -65.5zM0 1024q0 25 6 39t18.5 26.5t31 25.5t42.5 36q14 8 46 35.5t68 58.5t66.5 58.5t43.5 37.5q6 0 15 1t17 1q55 0 96.5 -44t70 -105t43 -127 t14.5 -109q0 -37 2 -126t2 -193q0 -51 -1 -101.5t-1 -93.5q0 -41 -1 -73.5t-1 -51.5l14 7q14 6 32.5 15t34 20.5t15.5 21.5v575q-6 8 -16.5 25.5t-20.5 38t-17.5 38t-9.5 25.5v17v16q174 78 287 223q10 -10 33.5 -31.5t52.5 -47t60.5 -52t58.5 -47.5q33 -31 49 -45t23.5 -20 t9.5 -9.5t6 -11.5v-22q0 -43 -16.5 -68.5t-53.5 -60.5v-574q0 -27 20.5 -31t46 -6t46 -12t20.5 -49q0 -35 -35.5 -78t-85 -83t-101.5 -66.5t-85 -26.5q-45 0 -76.5 25.5t-61.5 55.5t-60.5 55.5t-73.5 25.5q-45 0 -83 -25.5t-73 -55.5t-70.5 -55.5t-76.5 -25.5h-17 q-18 16 -65 50t-99.5 79t-96.5 94t-58 96l-1 7q-1 6 -1 14q0 2 1 7l1 5q8 6 31.5 17.5t31.5 13.5q8 8 20.5 19.5t12.5 13.5v555q-25 0 -48.5 -4t-41.5 -3t-29.5 13t-11.5 47z" />
<glyph unicode="V" horiz-adv-x="1228" d="M-27 1214q0 -45 4.5 -78.5t15.5 -63.5t30.5 -59.5t48.5 -64.5v-518q-8 -4 -9 -4l3 2q-23 -10 -54.5 -29.5t-36.5 -42.5v-4q0 -25 39 -68.5t99 -93.5l8 -6q43 -43 106.5 -93t125 -92t110.5 -69.5t65 -27.5l10 4q11 4 23 10t24.5 12t18.5 11l127 94q29 20 66 34.5t77 28.5 l3 -2q49 16 98 34.5t89 46.5t65.5 68t25.5 95v606q0 6 -4 21.5t-10 32t-12.5 33t-10.5 22.5q-10 16 -29.5 36.5t-41.5 43.5l-3 2q-2 0 -2 2q-16 23 -50 56.5t-67.5 66t-61 55t-29.5 22.5h-41l-265 -166l-98 97q59 10 92 65.5t33 122.5l-72 72v12q-94 0 -185 -9t-164 -42 t-117 -98.5t-44 -176.5zM0 1214q0 102 40 162t104.5 90.5t146.5 38.5t166 8q0 -35 -11.5 -64.5t-33.5 -50.5q-22 -22 -52 -29q-11 -3 -23 -3q-21 0 -46 8l235 -235l275 172h33q2 0 26.5 -22.5t56 -53.5t62.5 -63.5t45 -53.5q4 -4 9 -17.5t10.5 -28.5t9.5 -29.5t4 -20.5v-606 q0 -74 -49.5 -117t-117 -70.5t-138 -49t-111.5 -52.5l-127 -94q-8 -8 -34.5 -20.5t-28.5 -12.5q-14 0 -53.5 20.5t-89.5 53t-103 72.5t-98.5 79t-75 73t-29.5 54q2 8 17.5 19.5t33 21.5t31.5 17l14 6v542q-29 35 -47 63t-29.5 56.5t-16.5 61t-5 75.5zM545 446l65 -63v614 q-16 0 -40.5 -9t-24.5 -30v-512z" />
<glyph unicode="W" horiz-adv-x="1589" d="M-27 1190q0 -90 20.5 -150.5t78.5 -119.5v-535q-39 -27 -52.5 -53.5t-13.5 -73.5q0 -14 20.5 -44t52.5 -64.5t69.5 -71.5t70.5 -64q25 -25 48.5 -46t45 -37.5t37 -26.5t23.5 -10q6 0 22 6q2 0 5 1t14 1l190 188q10 2 12 3t7 1q45 0 88 -30.5t84 -65.5q45 -37 90 -67.5 t100 -30.5q16 0 61.5 23.5t104.5 61.5t123.5 85t118 95t88.5 91t35 74v598q0 25 -14.5 59.5t-36 72.5t-50.5 74.5t-55 65.5l-25 25q-39 47 -76.5 80.5t-64.5 33.5q-47 0 -81 -29.5t-66 -62.5l-7 -6q-23 -25 -43 -43t-43 -20l-8 4q-8 4 -14 9t-12 9q-4 6 -9.5 13.5t-9.5 13.5 l-41 41q-4 4 -4 6q-25 33 -49.5 51t-81.5 18q-76 0 -127 -40.5t-109 -102.5q-37 43 -83 78l81 45q4 16 5 18v9q0 45 -23 67l-57 56q-14 35 -45 44t-62 9h-43q-289 0 -289 -336zM0 1190q0 309 262 309q14 0 37 1t44.5 -4t35.5 -20.5t14 -48.5q0 -2 -1 -7l-1 -5l-129 -72 q25 -18 55.5 -36.5t61.5 -41t59.5 -49t48.5 -59.5q59 66 111.5 113t126.5 47q43 0 63.5 -12.5t37 -34t39 -50t71.5 -63.5l6 -3t8 -3q33 0 61.5 25.5t56.5 55.5t58.5 55.5t67.5 25.5q25 0 63.5 -36t73.5 -85t60.5 -101.5t25.5 -84.5v-598q0 -29 -33.5 -71t-85 -87t-113 -90 t-118.5 -81t-100 -58.5t-60 -22.5q-49 0 -92 30.5t-86 66.5t-88 67t-96 31q-6 0 -17 -3l-10 -2l-190 -188q-6 0 -16.5 -4t-16.5 -4q-14 0 -57 34.5t-88.5 81t-81 90.5t-35.5 60q0 47 13 68.5t52 44.5v559q-57 57 -77.5 114.5t-20.5 145.5zM518 332l57 26v609l-57 4v-639z M969 408q0 -29 23.5 -36t39.5 -7v614q-16 0 -39.5 -10.5t-23.5 -38.5v-522z" />
<glyph unicode="X" horiz-adv-x="1103" d="M-27 94q0 -139 47.5 -231t124.5 -146l31 -30q68 -68 161 -97.5t200 -29.5q68 0 133 11t117.5 42t85 85t32.5 142q0 82 -39 121l-51 51q-33 66 -129 72q43 33 87 74t81 77.5t59.5 67.5t22.5 47v8q0 4 -4 15h-2q-2 6 -8.5 14t-14.5 19l-6 4l-2 2l-39 39v4h-2 q-4 14 -21.5 31.5t-29.5 21.5h-21q-23 0 -38 -6t-31 -13q-4 -2 -6 -2l-4 -2q-16 -10 -31 -12v309q0 -2 4 -2l51 -51q37 -37 100 -37q39 0 75 18.5t63.5 49.5t45 70.5t17.5 82.5q0 25 -11 69t-31.5 93t-46 96.5t-54.5 75.5l-41 39q-23 35 -47.5 55.5t-46.5 20.5 q-10 0 -14.5 -1t-16.5 -7l-172 -191q-8 8 -14.5 15.5t-12.5 15.5l-18 16q-23 27 -47.5 54.5t-52 49t-58.5 35t-61 13.5q-8 0 -13.5 -1l-27.5 -5l-262 -291q-8 -8 -9.5 -12t-1.5 -15q0 -20 14.5 -46.5t35.5 -37.5q4 -4 10 -4l47 -47q2 -6 8 -8q4 -8 14 -12h2q18 -8 41 -9h23 v-380q-96 -82 -145.5 -177.5t-49.5 -222.5zM0 94q0 125 50 217t145 170v426q0 45 -16.5 58.5t-41.5 13.5q-23 0 -50.5 -5t-51.5 5q-16 6 -28.5 32.5t-4.5 35.5l256 284l12 2q11 2 17 2q39 0 76.5 -23.5t71.5 -57t61.5 -71.5t48.5 -65l192 213l5 2q6 2 12 2q33 0 64.5 -43 t57 -100t42 -114.5t16.5 -86.5q0 -41 -15.5 -76.5t-40 -63.5t-57.5 -44t-67 -16q-57 0 -89 35.5t-55 115.5h-32v-461q0 -31 22.5 -36t38.5 -5q43 0 76 20.5t71 20.5h15q8 -2 19 -15t14 -22l2 -7q2 -7 2 -9q0 -14 -23.5 -45t-59.5 -67.5t-79 -75.5t-84 -72t-75 -53.5 t-50 -20.5q-29 0 -55.5 10.5t-53 23.5t-54.5 23.5t-60 10.5q-66 0 -91.5 -49.5t-25.5 -114.5q0 -61 28.5 -100t69.5 -60.5t89 -29t89 -7.5q4 0 20.5 1t35 2t35 2t20.5 1q0 49 7 94.5t24.5 80t48.5 55t80 20.5q133 0 133 -139q0 -82 -31 -132t-80 -79t-111.5 -39t-125.5 -10 q-92 0 -175 23.5t-146.5 76t-100.5 135t-37 201.5zM225 -80q0 59 21.5 101t75.5 42q31 0 56 -10t52 -22q23 -12 45.5 -21.5t46.5 -13.5q-16 -33 -24.5 -74t-10.5 -88q-8 -2 -16 -2q-6 0 -14 -2q-18 -2 -35 -2h-19q-39 0 -85 7t-85 28q-8 22 -8 57zM899 412l2 -2q0 2 -2 2z " />
<glyph unicode="Y" horiz-adv-x="972" d="M-27 1120q0 -66 10.5 -121t24.5 -108q14 -55 25.5 -111.5t11.5 -117.5q0 -47 -6 -92.5t-14 -90.5q-8 -43 -13.5 -86t-5.5 -96q0 -31 12.5 -62.5t33 -61.5t46 -56.5t54.5 -44.5l28 -29q35 -35 73 -57.5t69 -22.5h10t12 2q6 4 21.5 16.5t31.5 24.5q6 4 13.5 10.5t15.5 10.5 q-4 -53 -15.5 -91t-34 -72t-57 -69t-81.5 -84l-7 -16q4 -25 14.5 -38t26.5 -19l60 -60q14 -14 34.5 -17t39.5 -3h30q55 0 134 45t153 113.5t125 149.5t51 154v883q0 2 -1 3t-1 3q-8 25 -21.5 55.5t-31.5 49.5l-6 6h2l-109 123l-12 10l-64 74q-18 4 -22 4h-6h-17q-2 0 -8 -2 l-162 -115l-2 -2l-45 -25l-71 82v9q0 6 13 15t30 19q12 8 27.5 19.5t29.5 30.5q-20 55 -43 77l-55 54q-20 35 -42 45t-57 10q-68 0 -116 -25.5t-78.5 -69.5t-44 -103.5t-13.5 -129.5zM0 1120q0 63 12.5 117.5t39 95.5t69.5 64.5t104 23.5q37 0 56.5 -13t40.5 -65 q-10 -12 -26.5 -22t-33 -20.5t-28 -21.5t-11.5 -24q0 -2 1 -10l1 -8l160 -182l66 35l159 112l6 1q5 1 11 1q2 0 8 -1l6 -1l104 -119q23 -16 35.5 -47.5t20.5 -54.5v-883q0 -70 -49.5 -147.5t-119 -143t-145 -108.5t-129.5 -43q-8 0 -23.5 -1t-31.5 2t-29.5 11.5t-15.5 26.5 q55 55 93 95t60.5 80t33 89t10.5 125q0 4 -1 22.5t-1 38.5t-1 39t-1 27q-10 -10 -38 -31.5t-58.5 -44t-58.5 -43t-38 -29.5l-6 -1t-8 -1q-29 0 -66 22.5t-68.5 56.5t-54 76t-22.5 81q0 49 6 92t13 87t13.5 89t6.5 97q0 63 -11.5 120.5t-24.5 111.5t-24.5 109.5t-11.5 116.5z M418 385q45 0 63 45v37q0 29 3 54.5t3 53.5v39v146q0 41 -10 77.5t-26 69.5l-33 -37v-485z" />
<glyph unicode="Z" horiz-adv-x="913" d="M-27 270q0 -121 37 -227t125 -166l39 -39q41 -41 99.5 -64.5t136.5 -23.5q109 0 189.5 43t134.5 113.5t82 161t28 186.5q0 82 -21.5 151.5t-44.5 129.5q-16 41 -27.5 76.5t-11.5 70.5l4 6l64 64q4 16 4 18v8q0 33 -16 49l-60 60q-8 27 -33 35v12q0 39 -3 84t-11 87 t-24.5 80t-42.5 64l-43 43q-23 39 -61 63.5t-95 24.5h-10q-4 0 -7.5 -1t-7.5 -1h-16q-8 -6 -26.5 -20.5t-39.5 -28.5q-18 -14 -39.5 -28.5t-42.5 -28.5q-29 -18 -50 -34.5t-31 -25.5q-8 -6 -22.5 -20t-30 -29.5t-29 -31t-19.5 -25.5l-4 2q-4 -8 -4 -25q0 -23 17.5 -47 t33.5 -30l60 -58q14 -14 26 -14h86q-8 -33 -37.5 -46.5t-64.5 -23.5q-25 -6 -47.5 -14t-40 -20.5t-27.5 -32t-10 -49.5q0 -20 4 -37q0 -8 4 -11q2 -10 6 -23t8 -24q4 -8 7.5 -14t3.5 -12l2 -11l-12.5 -25t-8.5 -17.5t-9 -17.5t-13 -24v3q-20 -35 -34.5 -67t-14.5 -42 q0 -4 -2 -14q0 -4 -1.5 -9.5t-1.5 -9.5q-2 -16 -3 -36.5t-1 -47.5v-39zM0 270v39q0 37 4 73t4 44q0 6 14.5 34.5t33 60.5t32.5 60.5t14 34.5q0 4 -5 18.5t-10 30t-10 30t-5 18.5q0 2 -3 14t-3 21q0 47 35.5 63t78.5 28.5t79 34t36 76.5v19q-8 16 -18.5 39.5t-14.5 23.5h-160 q-12 0 -25.5 23.5t-4.5 40.5q0 4 11 16t27.5 27.5t32 30t25.5 22.5q12 10 43 32.5t66.5 47t67.5 47t46 33.5q2 0 13.5 1t17.5 1q53 0 88 -27t54.5 -70t27.5 -95t10 -103q1 -26 1 -49.5t-1 -45.5q-2 -44 -2 -69q12 0 33.5 3t38.5 3q41 0 41 -45q0 -4 -1 -10l-1 -6l-64 -64 l-3 -6t-3 -10q0 -41 16.5 -86t36 -97.5t35.5 -114t16 -130.5q0 -92 -25.5 -179t-77.5 -155t-130 -109t-180 -41q-92 0 -155.5 36t-102.5 94.5t-56.5 134t-17.5 157.5zM281 41q0 -49 21.5 -59.5t57.5 -10.5q20 0 22.5 1t-2.5 8.5t-13.5 21.5t-8.5 39v586q-27 0 -42 -26 t-23 -59.5t-10 -67.5t-2 -48v-385z" />
<glyph unicode="[" horiz-adv-x="702" d="M-27 225q0 -43 18.5 -90t50.5 -93t74 -89t87 -80l12 -12q76 -76 161 -126t144 -50h31q29 0 57.5 10t32.5 49l-20 23l-54 53v2q2 0 2 2l-24 26h-10q-27 0 -52 13q-25 51 -42 123.5t-26 158.5t-13.5 182.5t-4.5 198.5q0 156 7.5 311.5t15.5 297.5q4 80 33 133l65 178 l-74 72l5 8l-23 12l-57 31l-162 114l-12 3h-13h-8q-2 0 -20 -5l-113 -127q-27 -23 -40 -55.5t-19 -54.5zM0 225l8 1211q6 23 19.5 54.5t35.5 47.5l105 119l6 1t8 1q4 0 10 -1l7 -1l159 -113l58 -31l-58 -151q-35 -66 -36 -148q-8 -141 -15.5 -297.5t-7.5 -312.5 q0 -154 10 -296t38 -250.5t75 -173t121 -60.5q-2 -18 -15.5 -27.5t-30 -12.5t-31.5 -2t-24 1q-53 0 -128.5 43t-145.5 108.5t-119 143.5t-49 147zM416 1513l6 -4z" />
<glyph unicode="\" horiz-adv-x="929" d="M-51 1069q0 -10 1 -16t7 -13q16 -35 35.5 -57t46.5 -43l10 -10l31 -29q12 -12 20 -18q14 -16 28.5 -39t27.5 -51q6 -16 16 -46t23.5 -67t28 -80t28.5 -82q6 -16 11 -31.5t9 -29.5q4 -16 8.5 -29.5t8.5 -24.5q-70 0 -70 -61q0 -29 14 -59q14 -29 55.5 -72t96.5 -88 q41 -41 95.5 -84t107.5 -79t98 -58.5t70 -22.5q23 0 43 24.5t35.5 62.5t24.5 81t9 80q0 35 -8 57l-285 686q16 10 33 23.5t21 24.5v8q0 12 -5.5 38.5t-11.5 36.5h2q-4 6 -16 19l-55 55l-1 1t-1 3l2 2q-6 12 -22.5 27.5t-53.5 42.5t-100.5 71t-165.5 115q-6 4 -13.5 10.5 t-17.5 12.5q-16 10 -32.5 22.5t-28.5 22.5q-145 -172 -160 -326v-10zM-25 1069v8q14 143 138 291q123 -86 199.5 -140t119.5 -86t61.5 -47.5t24.5 -25.5q2 -4 5 -14.5t5 -21.5t2 -21v-13q-4 -10 -26.5 -25.5t-32.5 -15.5l293 -702q10 -27 6 -74t-17.5 -92t-33 -79t-41.5 -34 q-29 0 -92.5 36t-131 87.5t-124 104.5t-72.5 88q-20 49 -5 71.5t75 8.5q-8 25 -28.5 86t-44.5 128.5t-44.5 129t-30.5 86.5q-25 57 -54.5 91t-58 57.5t-52 45t-38.5 58.5q-2 2 -2 14z" />
<glyph unicode="]" horiz-adv-x="624" d="M-111 -150h37q63 0 104.5 63.5t64 168t31.5 241t9 281.5q0 156 -7 311.5t-15 296.5q-4 76 -31 127l-68 187l76 41l2 2l162 114q8 2 10 3h17h6q4 0 22 -5l56 -63l20 -21l107 -122l8 -9q20 -23 32.5 -53.5t20.5 -54.5l8 -1211q0 -74 -51 -154.5t-125 -149t-152.5 -113.5 t-134.5 -45h-28q-16 0 -36 4t-36 20l-57 58q-18 10 -32.5 29.5t-19.5 53.5zM-82 -176q2 -18 15.5 -27.5t31 -12.5t33.5 -2t22 1q53 0 129 43t146 108.5t119 143.5t49 147l-8 1211q-8 23 -21.5 54.5t-36.5 47.5l-102 119l-6 1t-8 1q-6 0 -13 -1l-6 -1l-160 -113l-55 -31 l55 -151q33 -66 37 -148q8 -141 15.5 -297.5t7.5 -312.5q0 -154 -10.5 -296t-38 -250.5t-74.5 -173t-121 -60.5zM39 1509l8 4z" />
<glyph unicode="^" horiz-adv-x="1228" d="M-29 287v608q0 57 26 97t67.5 69t93 48t102.5 36q4 2 6 2q4 0 8 2q35 12 69 24.5t54 28.5l127 96q6 4 19.5 11.5t27 13.5t23.5 10l10 4q12 0 47 -17t80 -47t96.5 -67t97.5 -74.5t84 -74.5t56 -64l25 -24q29 -29 45 -50.5t16 -37.5v-4q-2 -10 -13.5 -21.5t-26.5 -21 t-30.5 -16.5t-25.5 -13v-524q27 -35 46 -64t30.5 -57.5t16.5 -62.5t5 -79q0 -111 -43 -175t-113.5 -96t-159.5 -41t-182 -9l-71 72h-13q0 72 32 130t91 70l-98 97l-260 -164h-37q-2 0 -36 29.5t-75 68.5q-18 14 -43.5 36.5t-51 47.5t-48 47.5t-35.5 40.5q-6 8 -12 24.5 t-12 34t-10.5 34t-4.5 22.5zM-2 287q0 -6 3 -19.5t7 -29t10.5 -28.5t10.5 -17q14 -23 45.5 -56t63.5 -63.5t56.5 -52t26.5 -21.5h33l274 172l236 -235q-39 12 -69.5 3.5t-52 -29t-33 -52t-11.5 -64.5q84 0 166 8.5t146.5 39t104.5 90t40 163.5q0 43 -5.5 76t-16.5 60.5 t-30.5 56t-46.5 63.5v543l14 6q15 6 32.5 16.5t33 20.5t17.5 20q0 18 -30 52t-75 74t-98 80t-103.5 73t-89.5 53.5t-53 20.5q-2 0 -28.5 -12.5t-34.5 -20.5l-127 -96q-41 -29 -112 -50.5t-138.5 -49t-116.5 -70.5t-49 -117v-608zM444 311v615l64 -64v-510q0 -23 -23.5 -32 t-40.5 -9z" />
<glyph unicode="_" horiz-adv-x="1157" d="M-115 -145q0 8 6 8l590 102l641 -102q18 -10 23.5 -14.5t5.5 -14.5l68 -67q4 -4 4 -15q0 -23 -17 -22q-33 -20 -78 -32.5t-110 -27.5q-29 -6 -57.5 -12t-63.5 -16l-2 2q-8 -4 -31 -4q-43 0 -125 9t-180 22.5t-200.5 29.5t-187.5 31.5t-141.5 28t-60.5 16.5l-71 71z M-96 -164q-8 -2 52 -11t155.5 -21.5t211 -24.5t219 -22.5t179.5 -15.5t92 -1q119 29 194.5 44t114.5 44q6 2 0 5l-6 3l-633 103z" />
<glyph unicode="`" horiz-adv-x="555" d="M-27 1763v17l281 184l10 -25l66 -63l155 -326q4 -8 4 -16q0 -14 -6 -21q-12 -37 -35.5 -57t-52.5 -43q-6 -4 -17 -13t-28 -24h-2q-6 -6 -18 -6q-10 0 -25.5 12.5t-36.5 32.5l-35 35q-27 18 -70.5 65.5t-85.5 99.5t-73 95t-31 53zM0 1765q-4 -2 11.5 -26.5t42 -60.5 t60 -75.5t63.5 -71.5t52.5 -50.5t28.5 -10.5q47 39 83 64t48 74q4 0 2 6l-2 6l-145 305z" />
<glyph unicode="a" horiz-adv-x="1159" d="M-27 518v305q0 10 1 18.5t1 18.5v43q8 76 40 128t77 91t100.5 67t110.5 52q4 2 7 3t7 3q23 10 49.5 23.5t55.5 29.5l-2 -2q2 2 4 2t4 3q10 6 16.5 10t10.5 8q23 16 43 26.5t53 10.5q45 0 75.5 -24.5t65.5 -59.5q18 -23 42 -43.5t52 -36.5l10 -5q11 -5 27 -11q4 -2 6 -2 t7 -2q39 -16 77.5 -38t55.5 -59l49 -49q31 -31 31 -72q0 -37 -18.5 -52t-41.5 -25h2q-10 -6 -17 -10.5t-13 -8.5q-10 -59 -11.5 -102t-1.5 -96v-252q8 -2 22.5 -17.5t26.5 -34.5l45 -45q16 -16 32 -40.5t16 -41.5q0 -33 -5.5 -41t-25.5 -18q-4 -4 -9.5 -5t-9.5 -5 q-14 -20 -49 -52t-69 -65q-31 -27 -56.5 -51.5t-42.5 -44.5h-35q-27 0 -51 14t-47 37l-37 35q-33 18 -61.5 51t-50.5 66q-14 -10 -30.5 -30t-33.5 -40q-41 -47 -82 -90t-82 -43q-33 0 -55 16.5t-43 36.5q-4 2 -5 4t-3 4l-27 25q-16 10 -29.5 23.5l-25.5 25.5 q-94 94 -123 199.5t-29 234.5zM0 518q0 -61 6 -117.5t21.5 -107.5t43 -98.5t72.5 -92.5q20 -20 42 -37.5t51 -17.5q33 0 67.5 34t68.5 76t63.5 75.5t51.5 33.5q12 0 34 -33.5t51.5 -75.5t64.5 -76t74 -34h24q12 14 42 43t63.5 59.5t64.5 59.5t43 45q14 10 22.5 14t12.5 9.5 t6 11.5t2 20q0 8 -5 20.5t-13 25t-15.5 20.5t-11.5 8q-16 0 -25.5 -8t-25.5 -8q-14 0 -23.5 17t-13.5 39.5t-6 42t-2 26.5v16v90v33v82q0 66 1 116t13 117q10 12 25.5 20.5t29 15.5t22.5 18.5t9 33.5q0 35 -22.5 56.5t-53 37t-63.5 27.5t-51 27q-31 18 -56.5 43.5l-49 49 t-48 40t-55.5 16.5q-39 0 -60.5 -17.5t-56.5 -37.5q-61 -35 -133 -64.5t-135.5 -68.5t-108.5 -96.5t-55 -145.5v-41q0 -37 -1 -67.5t-1 -67.5v-41v-166zM393 590v217v39v96v16l10 58h5h8q8 -4 19 -21.5t22 -27.5l15 -15l7 -6v-512q0 -14 -20.5 -38.5t-30.5 -35.5h-6h-6 q-13 7 -13 17q-6 59 -8 111.5t-2 101.5zM717 1237l4 -2q8 -8 14 -12l-4 4q-6 6 -14 10z" />
<glyph unicode="b" horiz-adv-x="1095" d="M-31 1444q4 -10 13.5 -37t19.5 -51q10 -27 22.5 -56.5t22.5 -58.5t16.5 -52.5t6.5 -37.5v-756q-16 -14 -35 -33.5t-25 -27.5q-6 -16 -7 -19.5t-1 -11.5q0 -10 1 -13t5 -16q14 -23 52 -57.5t85 -73.5q39 -37 91.5 -78.5t103.5 -78.5t92 -60.5t57 -23.5h9l450 225l-2 2 q10 10 23.5 32.5t21.5 39.5q6 16 9.5 25.5t6.5 18.5t7 21.5t10 32.5v485q0 18 -12.5 45t-31.5 58t-44 61.5t-49 55.5l-21 18q-39 49 -81 87t-68 38q-35 0 -71 -18.5t-71 -45.5q2 63 16.5 101.5t33 60t40 31.5t40.5 16q29 10 48 21.5t19 44.5q0 35 -8 58.5t-39 62.5l-51 51 q-6 12 -25 33q-10 -2 -22.5 -3t-22.5 -4q-25 -4 -43 -6q-88 -10 -169 -26.5t-152 -63.5l-95 -61h-2q-2 0 -2 -2l-4 2q-6 4 -24 22v2l-15 13q-18 23 -37.5 44t-23.5 31zM0 1438l33 32q4 -6 17 -20t28.5 -29.5l29 -29t19.5 -17.5l6 -1t10 -1t11 1l6 1l96 64q43 27 89 42t93 24 t97.5 15.5t103.5 14.5q23 -29 29 -49.5t6 -48.5q0 -20 -14.5 -29.5t-37 -17t-47 -18.5t-47 -37.5t-37 -75t-14.5 -125.5v-27q0 -20 1 -43t1 -43v-29q27 12 56.5 34t60.5 43.5t61.5 36.5t59.5 15q20 0 56 -30.5t70 -72.5t58.5 -86t24.5 -69v-479q0 -2 -5.5 -18.5t-13.5 -41 t-12 -36.5q-8 -16 -19.5 -40t-13.5 -24l-446 -223q-2 -1 -5 -1q-15 1 -61 29q-54 34 -119 82t-122.5 98t-75.5 79l-2 6q-2 6 -2 10t2 10l2 6q6 10 29.5 33t33.5 31v768q0 25 -13 67t-30.5 86t-33 81.5t-19.5 52.5zM479 383l64 -64v519q-16 0 -40 -9.5t-24 -29.5v-416z" />
<glyph unicode="c" horiz-adv-x="1036" d="M-27 352q0 -33 16.5 -68.5t43 -71.5t61.5 -71t74 -65l8 -8q35 -35 74 -66t77 -53.5t72.5 -35.5t61.5 -13q4 0 12 1t14 1h13q14 8 46 28.5t71.5 47t82.5 56t82 56.5q35 25 63.5 43.5t43.5 28.5q4 4 12 8q18 12 30.5 21.5t18.5 19.5t9.5 24.5t3.5 38.5q0 18 -5.5 36 t-17.5 30l-57 55q-8 20 -24.5 33.5t-45.5 13.5t-49.5 -5t-40.5 -11q-4 -2 -6 -2t-6 -2q-18 -6 -37 -10t-35 -4q-23 0 -57.5 7t-67.5 21v320q4 -6 14 -8l45 -46q16 -16 36 -26t44 -10q25 0 76 16t103.5 43t91.5 62.5t39 76.5v13q0 4 -2 12q-6 10 -26 47t-41.5 80t-39.5 82 t-25 53l-8 6q-6 8 -12 25q-10 18 -24.5 39.5t-30.5 38.5l-6 4l-29 26q-18 29 -42 54.5t-54 25.5q-2 0 -3.5 -1t-3.5 -1h-14q-27 -10 -89 -32.5t-132 -47t-132.5 -47t-88.5 -31.5q-27 -12 -58.5 -29.5t-60.5 -42t-48.5 -54t-19.5 -62.5v-670zM0 352v670q0 29 16.5 53.5t41 45 t52 35.5t50.5 26q27 8 90 30.5t134 48t133 48t89 32.5q4 0 8 1t9 1q18 0 36.5 -19t34 -43t25.5 -44t16 -23q6 -14 24.5 -52t39 -80t39 -77.5t24.5 -46.5l1 -6t1 -10q0 -37 -36.5 -68.5t-85 -56t-96.5 -39t-71 -14.5q-33 0 -58 24.5t-44.5 57.5t-33 64.5t-23.5 47.5v-446 q0 -33 25.5 -57.5t61.5 -41t73.5 -24.5t62.5 -8q49 0 89 17.5t85 17.5q29 0 40 -20.5t11 -43.5q0 -41 -12 -54t-53 -42q-23 -14 -77 -51t-114.5 -79t-115 -78t-76.5 -48q-2 0 -13.5 -1t-19.5 -1q-43 0 -108.5 36t-126 89t-104.5 114.5t-44 114.5zM745 1266l3 -2q0 2 -3 2z " />
<glyph unicode="d" horiz-adv-x="1032" d="M-27 256q0 -4 17.5 -20.5t46.5 -38.5l31 -31q20 -23 79.5 -66t124 -88t119.5 -77.5t70 -32.5q14 0 57 19.5t98.5 49t116 67.5t111.5 76t84 71.5t33 56.5v575q0 18 -10.5 44t-27 52.5t-37 53t-40.5 47.5l-21 20q-23 29 -46 54.5t-46 41.5h4q-14 8 -46 24.5t-71.5 37 t-86 43t-87.5 43.5l3 2q27 18 51 49t24 96l-71 72v12q-80 0 -156 -9t-134.5 -38.5t-93 -85t-34.5 -147.5q0 -98 46 -168t118 -125h-148v-571q-23 -18 -50.5 -50t-27.5 -59zM0 256q0 10 9 24.5t21.5 28t26 25.5t21.5 18v557h209q-94 57 -160 132t-66 188q0 82 31 132t81 77.5 t115.5 36t137.5 8.5q0 -37 -17.5 -59.5t-37 -38t-37 -29t-17.5 -31.5q0 -2 1 -7t1 -7q23 -10 78.5 -37t116.5 -57.5t114.5 -58.5t73.5 -40q20 -10 48 -36.5t52.5 -60.5t42 -67.5t17.5 -58.5v-576q0 -20 -31.5 -51.5t-80 -67.5t-106.5 -71t-111.5 -63.5t-94.5 -47t-55 -18.5 q-10 0 -43 17.5t-75 44t-89 58.5t-86 60.5t-64.5 49t-25.5 26.5zM446 383l66 -64v480l-66 63v-479z" />
<glyph unicode="e" horiz-adv-x="1069" d="M-27 416q0 -43 18.5 -90t49.5 -94.5t72 -91.5t88 -79l10 -8q66 -66 142.5 -109.5t142.5 -43.5q23 0 69.5 23.5t102 60t114 82t105.5 88.5t77.5 79.5t30.5 55.5q0 35 -16 51l-61 59q-14 45 -84 45q-29 0 -55.5 -6t-51.5 -14q-18 -6 -38.5 -11t-49.5 -5q-27 0 -61.5 8 t-65.5 24v9q0 27 17.5 49t45 41.5t63.5 36t75 32.5q45 18 90 40t81 47.5t57.5 59t21.5 81.5q0 8 -1 19t-1 19v11l-232 364l-53 51l-17 29q-10 8 -13 9t-13 5l-7 3.5t-8 3.5q-10 4 -17 9t-15 9h-29q-31 0 -86 -16.5t-119.5 -45t-132 -66.5t-122 -80t-89.5 -86t-35 -83v-575z M0 416v575q0 37 33 78t85 80t116.5 73.5t126 61.5t114.5 42t82 15h18q12 -8 37 -18t27 -12l223 -353q0 -2 1 -18t1 -27q0 -53 -33.5 -89t-83 -63.5t-108.5 -50t-108.5 -48t-83 -58.5t-33.5 -78q0 -35 24.5 -61.5t59 -45t73.5 -28.5t68 -10t52.5 6t45 12.5t45 12.5t52.5 6 t46 -11.5t17 -39.5q0 -18 -29.5 -52t-74.5 -75t-101.5 -84t-110 -78t-97.5 -57.5t-66 -22.5q-63 0 -136 42t-135.5 104.5t-104.5 135t-42 136.5zM383 735l15 7q14 6 32.5 15t33.5 20t15 22q0 2 -12 26.5t-21 36.5q-4 4 -14 18.5t-20.5 30t-18.5 29.5t-10 18v-223z" />
<glyph unicode="f" horiz-adv-x="880" d="M-27 895q0 -39 11.5 -62.5t46.5 -46.5l8 -8v-428q-4 -8 -10 -14t-13 -17q-16 -23 -28.5 -41t-12.5 -22v-2q0 -12 13.5 -39t27.5 -41q18 -23 54 -47l24 -25q2 -2 4 -3t4 -3q23 -25 67 -57.5t87 -63t77 -52t36 -21.5h71l299 299v100l-71 72v12q-47 0 -72 -7t-43 -16 q-2 -2 -4 -2v328q0 4 4 7t8 5q8 0 12.5 1t12.5 4q18 4 44.5 9t53.5 9t51.5 7t36.5 3v27q0 18 2 31q0 12 1 23t1 17q0 92 -33 125l-2 2l-30 29q98 14 98 129q0 49 -17.5 88t-50.5 74l-12 10l6 -6l-10 12q37 27 50 68t13 94l-71 72v12q-98 0 -173 -2t-140.5 -14.5t-128 -39 t-138.5 -75.5q-59 70 -164 70q0 -59 10.5 -106.5t26.5 -88.5q2 -4 2 -6t2 -6q10 -35 20.5 -69t10.5 -73q0 -31 -11 -58.5t-24 -51.5q-16 -29 -26.5 -59.5t-10.5 -65.5zM0 895q0 33 11.5 60.5t24.5 55t24.5 56.5t11.5 63q0 43 -11.5 83t-24.5 79t-24.5 78t-11.5 82 q88 0 131 -78q74 51 134.5 80t123 42t134 15t167.5 2q0 -47 -16.5 -81.5t-63.5 -57.5q47 -37 74 -80t27 -100q0 -111 -113 -111q-35 0 -61.5 3.5t-55.5 31.5v-63q55 -4 93 -9.5t61.5 -19.5t33 -41t9.5 -76q0 -10 -2 -38.5t-2 -39.5q-10 0 -37 -4t-57.5 -10t-58 -11t-40.5 -7 q-8 -2 -19 -13.5t-11 -19.5v-414q0 -4 11 -17t19 -16h19q18 0 34.5 6.5t33 13.5t33.5 13t40 6v-71l-287 -287h-63q-2 0 -35 21.5t-75 52t-84 63.5t-62 56q-10 6 -22.5 30.5t-10.5 32.5q0 4 9 19.5t19.5 32t20.5 29.5t15 15v447q-41 20 -53.5 39.5t-12.5 56.5zM471 352 l10 -12q-10 4 -10 12z" />
<glyph unicode="g" horiz-adv-x="1069" d="M-27 500q0 -55 33 -110.5t80 -86.5l35 -35q-39 -6 -62.5 -20.5t-36 -38t-16.5 -57t-4 -76.5q0 -72 26.5 -116t71.5 -73l43 -43q29 -29 68 -46t83 -26.5t91 -12.5t90 -3q90 0 182.5 22.5t168 71t122.5 123t47 181.5q0 35 -5 63.5t-16 55t-30.5 56t-46.5 66.5v498 q6 8 15.5 22.5t18.5 28.5t17 27.5t13 19.5q2 10 2 21v10q-6 16 -13.5 25.5t-13.5 15.5l-49 49q-6 12 -14.5 20.5t-12.5 14.5l-16 16q-20 12 -71.5 44t-109 68t-108.5 68.5t-70 45.5h-12q-4 0 -7 1t-7 1h-13q-16 0 -58 -18.5t-94 -47.5t-109.5 -63.5t-103.5 -65.5t-77 -56.5 t-31 -33.5v-606zM0 500v606q0 8 28.5 30.5t72.5 51.5t97.5 60.5t102.5 57t89 42t56 16.5q8 0 19.5 -1t13.5 -1q18 -12 68.5 -44t107 -68t106.5 -67.5t70 -43.5q6 -8 17.5 -16.5t13.5 -16.5l1 -6t1 -10t-1 -10l-1 -7q-4 -6 -12 -19.5t-18.5 -28.5t-19.5 -28.5t-13 -17.5v-512 q27 -37 46 -66.5t30.5 -55.5t16.5 -53.5t5 -60.5q0 -100 -46 -171.5t-117.5 -116.5t-161 -66.5t-175.5 -21.5q-61 0 -126.5 7t-119 29.5t-88 66.5t-34.5 118q0 43 5 75.5t20.5 53t44 31t75.5 10.5q57 0 96 -21.5t61.5 -57.5t32 -81t9.5 -94q27 0 62.5 4t67.5 16.5t53.5 37 t21.5 65.5q0 8 -1.5 17t-1.5 15q-8 14 -26.5 51.5t-39 78t-37.5 76.5t-26 50h-16h-14q-53 -23 -83 -41l-52.5 -31.5t-46 -20.5t-62.5 -7q-33 0 -63.5 18.5t-55 46t-39 62.5t-14.5 70zM326 213q16 4 30.5 13.5t30.5 19.5q16 8 35.5 21.5t46.5 25.5q2 -4 4 -6t4 -6 q20 -47 41 -87t31 -57v-14q0 -4 1 -5t1 -3q0 -39 -28.5 -58.5t-65.5 -29.5q-8 31 -22 58.5t-34 47.5l-51 51q-6 8 -11 15.5t-13 13.5zM352 555q16 0 40 9t24 30v416l-64 32v-487z" />
<glyph unicode="h" horiz-adv-x="1052" d="M-27 1485q0 -96 25 -187.5t59 -152.5v-701q-33 -18 -38 -38.5t-5 -45.5q0 -41 38 -87t87 -83l27 -26q25 -25 53.5 -46.5t55 -38t49 -25.5t34.5 -9q20 0 45 10.5t52 26.5q-10 -59 -35 -86t-62 -55q-4 -4 -6 -5.5t-6 -5.5q-23 -18 -49.5 -41.5t-56.5 -58.5l-2 -23 q14 -35 45 -49l57 -57q16 -16 37.5 -19.5t44.5 -3.5h10q84 0 168 41t154.5 106.5t121 146.5t66.5 161q2 20 8 88t13.5 149t12.5 158.5t5 118.5q0 10 -5 43t-13 68q-4 16 -7.5 36.5t-6.5 37t-5 25.5t-2 7l-65 64l65 -64q-2 8 -14.5 39t-30.5 70t-40.5 78t-47.5 63l-33 31 l-4 4q-23 33 -45 54.5t-45 21.5q-20 0 -35 -13l-108 -73q2 41 9 75.5t27.5 62.5t56.5 46t93 27q0 4 1 15t1 15v4v13q0 4 -2 14q-8 16 -23 31l-49 47v4q-6 14 -19 26.5t-24 22.5q-2 2 -4 3t-4 3h-96q-4 0 -9 1t-10 1h-24q-59 0 -105.5 -5t-84 -20.5t-74.5 -42t-78 -69.5 q-2 2 -2 4q-25 29 -54.5 48.5t-91.5 19.5zM0 1458q43 0 67.5 -26.5t53.5 -55.5q43 45 79 74t73.5 45t82.5 22.5t107 6.5h24q20 0 39 -1t39 -1h29q8 -6 17.5 -15.5t15.5 -21.5l1 -9q1 -8 1 -14q0 -2 -1 -7t-1 -9q-68 -10 -106 -36t-55 -63.5t-21.5 -86t-4.5 -103.5 q0 -20 3 -58t3 -52l218 145q10 6 20 6q18 0 38 -20q30 -32 56.5 -81.5t44 -97t21.5 -57.5q2 -18 8 -51t13 -66.5t12.5 -62.5t5.5 -37q0 -39 -5.5 -116t-12.5 -156.5t-13 -147t-8 -88.5q-16 -78 -64.5 -156.5t-116 -141t-148.5 -102.5t-161 -40q-29 0 -55.5 4t-36.5 35 q45 55 86 83.5t72 56.5t49 69t18 122q0 6 -1 20.5t-3 30t-3 30t-1 20.5q-18 -10 -44.5 -27.5t-54.5 -35t-54.5 -30t-44.5 -12.5t-58.5 20.5t-80.5 53.5t-70.5 71t-30.5 72q0 23 5 40.5t38 29.5v727q-33 59 -58.5 141t-25.5 160zM446 430l43 -4v477l-43 -39v-434z" />
<glyph unicode="i" horiz-adv-x="786" d="M-27 889q0 -16 14.5 -42t30.5 -36q4 -6 15 -8l55 -55v-525q0 -18 15.5 -48t39 -61.5t53 -62.5t58.5 -51l25 -23q33 -33 65.5 -55t54.5 -22q29 0 82.5 31.5t105.5 76.5t90 92t38 78q0 43 -21 64l-59 57q-8 27 -37 39q-4 35 -7 74t-6 74.5t-4 64.5t-1 43q0 47 16 70.5 t36.5 44t34 39t13.5 51.5q0 8 -1 11t-7 19l-68 66q0 2 -4 14l-133 131q43 37 81 82t38 111q0 37 -18.5 75t-49.5 68l-43 41q-33 47 -83 80t-101 33q-37 0 -71 -15.5t-59.5 -41t-41 -59.5t-15.5 -73q0 -18 5.5 -46.5t16.5 -60.5t26.5 -62.5t35.5 -53.5l-204 -205 q-8 -8 -9.5 -14t-1.5 -10zM2 895l223 223q-23 12 -40 41t-29.5 62.5t-18.5 66.5t-6 53q0 33 13.5 63t35 51.5t50 34.5t61.5 13q35 0 69.5 -17.5t63.5 -45t46 -62.5t17 -67q0 -33 -12 -60.5t-31.5 -50t-43 -43t-46.5 -39.5l224 -223l2 -6t2 -12q0 -29 -15.5 -47.5t-35 -38 t-35 -46t-15.5 -73.5q0 -20 3 -70.5t8.5 -107t11.5 -106.5t10 -69q17 3 31 3q71 0 71 -66q0 -29 -35.5 -73t-83.5 -85t-98.5 -70.5t-76.5 -29.5q-25 0 -60 26.5t-67.5 63.5t-56 75t-23.5 60v576q-6 0 -17.5 4t-24 9t-23.5 10t-15 9q-14 10 -27.5 33t-5.5 31z" />
<glyph unicode="j" horiz-adv-x="1052" d="M-27 328q10 -37 34 -74t54.5 -73t64.5 -68.5t67 -59.5q27 -27 53 -48t51 -42q-2 -6 -2 -24h12l72 -72q45 0 116.5 23.5t150.5 62.5t156 89t130 103q-10 104 -17.5 199.5t-7.5 214.5v348q10 12 22.5 31.5t22.5 38.5q6 10 11.5 20.5t9.5 14.5v6q2 2 2 12v2l-2 2 q-14 25 -51 62l-19 18v10l-6 -6l-2 4q-12 20 -36.5 45t-53.5 52q-4 2 -10 8l18 18t23 25q20 23 41.5 48t29.5 34q2 14 2 18v23q0 35 -18.5 80t-48.5 75l-43 43q-20 33 -49 55.5t-64 22.5q-20 0 -52 -13.5t-61.5 -35t-51 -50t-21.5 -59.5v-8q0 -8 6 -31.5t14 -53t18.5 -60.5 t18.5 -53l-145 -158q-6 -6 -9.5 -23.5t-3.5 -27.5q0 -31 9.5 -56.5t37.5 -35.5l21 -19v-616l-395 92q0 -20 -3 -26.5t-8 -8.5q-8 -8 -12 -10l-74 -41v-4h-2v-31t2 -12h-2zM0 344q12 0 14 2t-1 5t-7 5l-4 2l61 35q8 8 21.5 18.5t13.5 14.5l396 -92v696q-41 -6 -54.5 15.5 t-13.5 50.5q0 8 1 19t3 13l160 172q-6 8 -16.5 38t-20.5 64t-18.5 62.5t-8.5 38.5q-4 27 13.5 52.5t44 45t55.5 30.5t47 11q27 0 49.5 -18t40 -44t26.5 -55.5t9 -54.5q0 -10 -1 -21l-1 -11q-8 -8 -25.5 -27.5t-37 -42t-37 -42t-23.5 -26.5q0 -4 31 -33.5t67.5 -64.5 t65.5 -63.5t27 -28.5q0 -2 -1 -8l-2 -6q-4 -6 -13 -21.5t-18 -32t-18.5 -30t-15.5 -19.5v-73v-215v-68q0 -113 7 -207t18 -199q-51 -51 -123 -99t-144.5 -85t-138.5 -59.5t-106 -22.5q0 10 6 15h-9q-18 18 -64 56t-98.5 86t-96.5 102.5t-58 103.5l-1 4t-1 12zM117 129 l14 -14zM379 -109l10 -10l-10 8v2z" />
<glyph unicode="k" horiz-adv-x="1079" d="M-27 360q0 27 27 50.5t61 40.5v704q-31 61 -54 152.5t-23 181.5q53 0 86.5 -19.5t56.5 -46.5q43 39 80 66t74.5 42t82 21.5t101.5 6.5h6q4 0 7 -1.5t7 -1.5q10 -2 21 -2h20t16.5 -1t12.5 -1h41q12 -4 29.5 -19t27.5 -32v-6l54 -51q14 -14 18 -23q2 -14 2 -18v-10v-9 q0 -4 -1 -15t-1 -15q-57 -8 -92 -26.5t-55.5 -44.5t-27.5 -60.5t-9 -73.5l104 70v-2q44 32 111 32h4q45 0 88 -19.5t72 -66.5l2 -2l47 -45q16 -16 28 -41l-301 -254q41 -14 87 -31.5t102 -37.5q27 -12 43 -45l53 -54q20 -18 28.5 -52t8.5 -75q0 -53 -10.5 -116.5t-24.5 -121 t-28.5 -101.5t-22.5 -58h2q-47 -80 -100.5 -155.5t-115 -138t-132 -104.5t-150.5 -53h-20q-20 0 -40 5.5t-34 19.5l-57 57q-39 14 -47 62l133 223h-9q-16 0 -47.5 11.5t-67.5 32t-73 45t-63 52.5l-31 31q-45 35 -76 72t-31 71zM0 360q0 -35 36 -72.5t83 -70.5t95 -53.5 t71 -20.5q51 0 96 7.5t102 29.5l-217 -364q6 -31 36 -36t54 -3q76 10 143.5 51t127 101.5t112 135t99.5 152.5q6 12 19 51t26.5 92.5t24 114t12.5 112.5v16q0 42 -8 75q-10 39 -38 49q-123 47 -204.5 77t-139.5 46l363 307q-16 31 -47 46.5t-66 18.5q-10 1 -20 1 q-24 1 -48 -5q-32 -8 -50 -22l-218 -143v18q0 16 -1 33.5t-1 34.5v24q0 55 3.5 103.5t21.5 86.5t55 62.5t105 34.5q0 8 1 12t1 8q0 2 -1 12l-1 9q-6 10 -17.5 21.5t-19.5 13.5q-8 0 -24.5 1t-39.5 1q-20 0 -36.5 2t-24.5 2q-59 0 -103.5 -6t-82 -23.5t-74.5 -46.5t-82 -72 q-20 29 -46 53.5t-67 24.5q0 -74 24.5 -156.5t53.5 -142.5v-729q-29 -12 -58.5 -31.5t-29.5 -42.5zM422 262l6 430q43 -59 55.5 -116.5t12.5 -112.5v-68q0 -23 -15.5 -60.5t-58.5 -72.5z" />
<glyph unicode="l" horiz-adv-x="784" d="M-27 1427q0 -4 1 -6t1 -6v-12l33 -94q4 -29 10.5 -55.5t10.5 -41.5q2 -4 2 -6t2 -6q2 -14 6 -20v-820q-20 -16 -37.5 -34.5t-24.5 -28.5l-2 -8v-8q0 -16 12.5 -37t30 -41.5t36 -38t28.5 -25.5l13 -13t24 -20l12 -12q10 -10 19.5 -18t13.5 -13q12 -12 40.5 -35.5t60.5 -49 t60.5 -48t39.5 -30.5q6 2 36.5 15t42.5 24l265 196v12q4 16 4 31q0 43 -21 64l-57 55q-10 39 -55 45v922q0 6 7 9t17 7q14 4 31.5 12t31 25.5t22.5 50.5t9 86l-71 72v12q-115 0 -201 -31.5t-154 -62.5q-41 -18 -72.5 -31.5t-52.5 -13.5h-4l-94 61l-2 -2q-6 2 -17.5 4 t-23.5 4t-21.5 4.5t-11.5 2.5v-46zM0 1446q2 0 17.5 -3t17.5 -5l96 -64l5 -1t11 -1q31 0 78 21.5t105.5 48t127 48t142.5 21.5q0 -66 -18.5 -91t-41 -34.5t-41 -14.5t-18.5 -30v-1034q25 0 48.5 4t42 3t30.5 -13t12 -45q0 -8 -2 -19.5t-2 -13.5l-256 -190q-8 -8 -32.5 -19.5 t-30.5 -13.5q-10 8 -38 29.5t-58.5 47t-58 49.5t-38.5 34q-6 2 -23.5 17.5t-34.5 35.5t-29.5 41t-8.5 33q6 14 28.5 37.5t35.5 27.5v830q0 4 -4.5 18t-9.5 33.5t-10 40t-7 37.5l-33 94q0 8 -1 21.5t-1 19.5z" />
<glyph unicode="m" horiz-adv-x="1679" d="M-27 1053q0 -31 20.5 -57.5t49.5 -45.5l29 -26v-576q-4 -8 -13 -29q-2 -4 -3 -7t-3 -7q0 -2 -1 -4t-1 -4q-2 -4 -5 -9t-7 -12v-51q8 -16 31.5 -45.5t40.5 -46.5q4 -4 6 -4q2 -6 8 -6l47 -47q16 -16 25 -23q23 -23 46 -44t40 -34q23 -23 44 -42t33 -29q12 -4 15 -4h10 q37 0 66.5 23.5t58.5 56.5q29 29 56.5 54t62.5 25q4 0 6 -1t6 -1q16 -23 33.5 -42t40.5 -29l45 -45q18 -18 38.5 -29.5t49.5 -11.5q27 0 61.5 16t68.5 44t62.5 63.5t42.5 72.5q23 -29 48.5 -53.5t50.5 -40.5l24 -25q35 -35 67 -56t50 -21q31 0 79 30.5t94 73.5t79 88t33 76 q0 4 -1 7t-8 22q-10 12 -29.5 36.5t-31.5 38.5v594q10 16 20.5 43t12.5 41v45q-6 10 -8 12.5t-9 8.5l-8 8q-10 10 -16 23l-39 36q-4 8 -10 15q-4 4 -11.5 12t-13.5 18q-37 33 -86 86l-18 19q-35 37 -69 70.5t-62 52.5h-2l-7 6h-26l2 2l-2 -2q-23 -18 -36 -29.5t-26 -23.5 q-20 -20 -44.5 -45t-49 -46.5t-46 -36t-36.5 -16.5l-84 101l-28 28l-50 58q-12 8 -15 9t-13 1q-12 0 -16.5 -1t-12.5 -5q-20 -6 -65.5 -42t-92.5 -73q-12 -8 -16 -12q-18 -16 -36.5 -29.5t-31.5 -23.5l-77 96l-29 28l-47 56h-86q-51 -47 -81 -76t-50.5 -47.5t-34.5 -33.5 t-35 -38l-11 -11t-11.5 -13.5t-16.5 -20.5t-28 -37q-4 -10 -5.5 -16t-1.5 -10zM2 1067q2 2 12.5 15.5t25.5 32t26 28.5q20 23 53 54.5t63.5 61t53.5 49.5l22 21h64l159 -186q2 -6 35 19.5t76 60t85 67.5t60 39l7 3q6 3 14 3q2 0 7 -3l5 -3l160 -186l4 -2q4 -2 12 -2 q23 0 58.5 25.5t71.5 59t65.5 64.5t42.5 41l6 3q6 3 12 3q2 0 7 -3t8 -3q14 -10 45.5 -43t67.5 -69.5t66.5 -68.5t43.5 -42q8 -10 20.5 -23.5t12.5 -15.5v-20v-17q-2 -14 -13.5 -43t-19.5 -37v-608q10 -10 32.5 -36.5t30.5 -39.5l3 -9q3 -9 3 -11q0 -29 -30.5 -71t-72.5 -81 t-87 -67.5t-74 -28.5q-18 0 -52 25.5t-67.5 61.5t-58.5 76t-25 70v707q-8 0 -20 6t-29 6q-33 0 -32 -37v-571q23 -33 29.5 -57.5t6.5 -53.5q0 -41 -24.5 -81.5t-59 -74.5t-73.5 -55.5t-70 -21.5q-35 0 -60.5 24.5t-49 55.5t-49 55.5t-60.5 24.5q-41 0 -70.5 -24.5 t-57.5 -55.5t-55.5 -55.5t-60.5 -24.5q-6 0 -11 1l-5 1q-10 8 -46 43t-75 72q-14 16 -24.5 24t-14.5 13q-14 14 -36.5 39.5t-28.5 39.5v15v20q6 10 15 38t17 38v608q-10 0 -28.5 10.5t-36 28t-27.5 38t-4 40.5zM514 342h64v649l-64 -41v-608z" />
<glyph unicode="n" horiz-adv-x="1423" d="M-27 1055q0 -35 13.5 -52.5t29.5 -25.5l60 -57q4 -8 11 -11.5t17 -7.5v-506q-4 -2 -5 -4t-5 -6q-10 -10 -23.5 -22.5t-25.5 -24.5t-22.5 -24.5t-12.5 -18.5l-2 -6q0 -2 -1 -3t-1 -3v-4q0 -25 21.5 -52.5t40.5 -44.5l59 -53l8 -6q6 -10 21 -19l6 -6l227 -196h43 q4 0 36 22.5t74 53t86 64.5t72 56l7 6q23 -25 47 -49t51 -43l18 -18q41 -41 85 -70.5t67 -29.5q10 0 26 6q2 0 7 1l6 1l260 196q16 12 22 17q33 25 44.5 40t11.5 54t-29 67l-53 52q-6 16 -19 28v514q10 8 21.5 22.5t21 31t15.5 31t6 22.5t-1 10t-7 8l-64 64q0 8 -10 18l-8 8 q-10 10 -25.5 26.5t-30.5 27.5l-133 98q-4 2 -17 15.5t-30.5 30.5t-35 34.5t-27.5 30.5q-4 4 -6 7t-7 7l-6 6q-10 2 -12 2h-12q-57 0 -117.5 -44t-118.5 -97q-16 -16 -36.5 -33.5t-43.5 -32.5q-10 12 -21 24.5t-22 26.5l-26 27q-39 49 -87.5 88t-103.5 39h-22 q-43 -20 -87 -54t-85 -72t-77 -77t-61 -69v-17q0 -4 -1 -6t-1 -6v-12zM0 1055q0 8 1 18t1 12q25 29 57.5 66t71.5 73t80 67.5t80 49.5h16q39 0 75 -23.5t66.5 -58t55 -73.5t41.5 -68q35 18 77 56t87 75t89 65.5t85 28.5q2 0 8 -1l6 -1q2 -2 20.5 -21.5t40 -43t41 -41.5 t25.5 -21l129 -96q8 -6 19.5 -16t20.5 -20.5t17 -18.5l7 -8q0 -8 -7.5 -22.5t-16.5 -30t-20.5 -27.5t-19.5 -17v-575q37 -12 68.5 -32.5t31.5 -63.5q0 -18 -3 -29.5t-11 -21t-21.5 -18.5t-33.5 -25l-254 -193q-4 0 -14.5 -4t-18.5 -4q-18 0 -53 21.5t-69 53t-59.5 66.5 t-25.5 60v765l-49 33l-31 -33v-639q6 -8 17.5 -31.5t13.5 -31.5v-18v-15l-31 -30q-29 -23 -71.5 -56t-82.5 -63.5t-70 -52t-32 -21.5h-32l-224 193q-8 6 -20 17t-23.5 25.5t-17.5 28t-2 23.5q2 6 15 20.5t29.5 29.5t32 28.5t19.5 17.5v575q0 25 -20.5 29t-45 7t-45 13.5 t-20.5 47.5z" />
<glyph unicode="o" d="M-25 307q0 -25 28 -58.5t75 -68.5l28 -28q41 -41 105.5 -85t132.5 -81t128 -61.5t95 -24.5h15q4 0 18 2q12 4 45 30.5t64 53.5q18 16 33.5 28.5t21.5 16.5h2q45 25 81 43t66 35q80 39 123 66.5t64.5 74.5t25.5 129t4 229v47q0 16 -1 35t-1 37v127q-20 76 -60 161 t-105 150l-29 27q-39 53 -88 92t-109 55q-8 -6 -35.5 -21t-59.5 -30.5t-58.5 -29t-34.5 -15.5q-35 -16 -111 -33.5t-157 -33.5q-49 -10 -95.5 -21.5t-81 -23t-56 -22.5t-21.5 -24v-682q-29 -8 -40.5 -26.5t-11.5 -46.5v-23zM2 307v23q0 23 11.5 38t39.5 15v702q0 6 31 15.5 t79 21t106.5 23.5t113.5 24.5t100 23.5t68 21q8 2 35.5 15.5t59.5 29t59.5 31t35.5 21.5q57 -16 104.5 -58.5t83.5 -96.5t61.5 -114.5t39.5 -115.5v-49q0 -35 1 -72t1 -72v-47q0 -115 -2 -188.5t-12 -119.5t-31.5 -72.5t-61.5 -50.5t-100.5 -52.5t-146.5 -75.5 q-6 -4 -29.5 -23.5t-50.5 -42t-50.5 -41t-29.5 -20.5l-10 -1t-19 -1q-29 0 -74.5 16.5t-100 43t-109.5 61.5t-100.5 68.5t-74 65.5t-28.5 54zM518 416q0 -20 21.5 -29.5t42.5 -9.5v518q0 20 -21.5 51t-42.5 45v-575z" />
<glyph unicode="p" horiz-adv-x="1040" d="M-25 406q0 -33 10.5 -58.5t37.5 -36.5l59 -57q18 -18 49 -18q12 0 19 2q6 -63 15 -135t25.5 -136.5t42 -114t64.5 -65.5l49 -49q29 -29 62 -29q41 0 51 13.5t16 50.5q4 25 14 59q2 6 7.5 35t13.5 63q6 27 12 56.5t12.5 55.5t11.5 45t7 28h-2q4 4 50 32.5t108 63.5 q45 27 91 54.5t84 53t61.5 47t23.5 35.5v594q0 10 -10.5 36t-25.5 55.5t-35.5 59.5t-41.5 52l-39 37q-23 33 -46 55.5t-46 22.5q-18 0 -45 -13.5t-57.5 -32t-60.5 -40t-52 -37.5q-8 10 -15.5 17.5t-15.5 17.5l-24 22q-10 12 -19.5 24.5t-19.5 22.5l43 47q-6 29 -21 43 l-57 58q-12 31 -37 39t-47 8h-35q-119 0 -171 -69.5t-52 -192.5q0 -57 11 -102.5t28 -86.5q2 -4 2 -8q0 -2 2 -6q10 -37 20.5 -76t10.5 -92q0 -59 -21.5 -106.5t-46.5 -94.5q-4 -4 -6 -12t-6 -12q-23 -41 -40.5 -85t-17.5 -102v-38zM2 406v38q0 59 21.5 107.5t47 94.5 t47 96.5t21.5 113.5q0 57 -11 102.5t-25.5 86t-25.5 83.5t-11 99q0 111 46 173t150 62q12 0 26.5 1t29 -2t25.5 -10t15 -26l-63 -71q66 -29 113 -87.5t79 -123.5q2 0 32 22.5t69 49t78 49t59 22.5q23 0 48.5 -28.5t47 -65.5t35.5 -72t14 -47v-594q0 -12 -30.5 -34.5 t-75.5 -51t-98.5 -60.5t-99.5 -58.5t-77.5 -47t-33.5 -28.5q-4 -12 -13.5 -55.5t-19.5 -90.5t-19.5 -88t-11.5 -49q-10 -33 -13 -53.5t-7 -32.5t-12.5 -17.5t-28.5 -5.5q-35 0 -59.5 34t-42 87.5t-28 119t-17.5 128t-10 115.5t-5 82q-6 0 -16.5 2t-16.5 2q-14 0 -24.5 -7.5 t-18.5 -14.5t-17 -14t-22 -7q-29 0 -40 21.5t-11 50.5zM487 651l64 -69v387l-33 35l-31 -35v-318z" />
<glyph unicode="q" horiz-adv-x="1042" d="M-25 711q0 -57 4.5 -127t18.5 -137.5t43 -124t80 -86.5l45 -46q55 -55 143 -55q41 0 66.5 21.5t50.5 50.5q12 16 25 26q12 -59 31.5 -128.5t44 -133t52 -110.5t58.5 -64l55 -55q23 -23 47 -23q23 0 43.5 37t38 93.5t32.5 124t25.5 131t17.5 112.5t9 68q2 23 5 69.5 t6.5 106t6.5 127t6 130t5 114t2 79.5q27 12 31 31t4 41v6q0 31 -43 74l-43 41q-25 39 -82.5 82t-123 80t-124.5 60.5t-86 23.5h-23l-98 -68q-31 -16 -59.5 -30.5t-50.5 -26.5q-4 -4 -14 -9l-11 -4l2 2q-53 -27 -91 -47t-64.5 -42.5t-43 -50t-25.5 -68.5t-12.5 -99.5 t-3.5 -140.5v-55zM2 766q0 92 4 153.5t17.5 101.5t37 65.5t63.5 49t97.5 51t136.5 70.5l97 66h14q29 0 95.5 -27.5t135 -66.5t120.5 -84t52 -78q0 -20 -3 -36.5t-31 -26.5q0 -25 -2 -74t-4.5 -112.5t-6.5 -134.5t-7 -133.5t-6 -112.5t-5 -72q-2 -18 -8 -66.5t-16.5 -109 t-24 -126t-28.5 -120t-32.5 -90t-35.5 -35.5q-27 0 -52.5 34.5t-48 89t-41 120t-33 126t-22.5 109t-10 68.5q-6 0 -10.5 1t-6.5 1q-35 0 -59.5 -20.5t-46 -46.5t-45 -46.5t-56.5 -20.5q-92 0 -139 61.5t-66.5 146.5t-21.5 175.5t-2 149.5zM358 588q0 -20 21.5 -28.5 t42.5 -8.5v420q0 20 -23.5 29.5t-40.5 9.5v-422z" />
<glyph unicode="r" horiz-adv-x="1167" d="M-27 1024q0 -37 16.5 -57.5t39.5 -30.5l51 -51q16 -23 55 -33v-395l-119 -119q-6 -6 -9 -11t-3 -16q0 -14 22.5 -37.5t57.5 -52.5l31 -28q37 -37 109.5 -87.5t148.5 -96.5t135 -77.5t70 -31.5h22q6 0 15.5 1t13.5 1q111 84 209 175t190 189v15q4 16 4 24q0 23 -4 40 t-16 30l-6 4h2l-56 53q-16 45 -69 45q-31 0 -54.5 -12t-46.5 -29q-16 -10 -32.5 -19t-38.5 -9h-2v370l41 -59l38 -41q4 -2 11 -2l69 -70q16 -4 19 -4h10h6q2 0 6 1t6 1q16 2 44 24.5t56.5 51.5t50 56.5t26.5 39.5q2 14 2 21v28q0 10 1 19.5t1 19.5v31q0 106 -29 189 t-102 157l-15 14v-2q2 0 2 -2l-8 9q-45 61 -113 116l-231 -231q-8 12 -17.5 22.5t-17.5 20.5l-28 26q-18 27 -37 46.5t-43.5 37t-57 35t-82.5 37.5q-8 -6 -30.5 -25.5t-42.5 -37.5q-8 -6 -25 -23q-35 -31 -71.5 -62.5t-57.5 -43.5h-4q-14 -12 -19.5 -16.5t-15.5 -14.5 q-4 -4 -9 -8t-1 -2q-35 -27 -51.5 -47.5t-16.5 -65.5zM0 1024q0 25 6 39t18.5 26.5t31 25.5t42.5 36q14 8 46 35.5t68 58.5t66.5 58.5t43.5 37.5q55 -23 88.5 -42t58.5 -42.5t48.5 -56.5t60.5 -82h32l224 223q94 -74 128.5 -161.5t34.5 -206.5q0 -14 -1 -32.5t-1 -37.5 q0 -16 -1 -29l-1 -12q-4 -12 -23.5 -37.5t-45 -52.5t-51 -47t-39.5 -23q-2 0 -7.5 -1t-7.5 -1q-6 0 -12 1l-6 1l-31 33l-129 191l-31 -31v-479q0 -18 13.5 -25.5t31 -9.5t34 -1t22.5 1q29 0 49 11t38.5 23.5t38 24t46.5 11.5q29 0 40 -19.5t11 -48.5q0 -8 -2 -18.5t-2 -12.5 q-90 -98 -185.5 -186t-199.5 -166q-6 0 -22.5 -1t-22.5 -1q-8 0 -48 20.5t-96.5 52t-118 70.5t-110.5 75t-76.5 63.5t-15.5 39.5l127 127v449q0 25 -25.5 34t-55.5 18t-55.5 24.5t-25.5 52.5z" />
<glyph unicode="s" horiz-adv-x="993" d="M-27 375v16q0 33 29 63.5t69 57.5t85 46.5t77 29.5l-249 239v189q0 33 16 60.5t41 51t54.5 40t54.5 28.5q16 6 57 22.5t94 34.5v2q39 14 81 31t79 31t66.5 26.5t43.5 18.5q4 0 7 2h8q2 0 4 1t4 1q25 0 45 -19.5t37 -43.5l43 -43q18 -18 32.5 -45t24.5 -50l12 -24 q4 -6 11.5 -22.5t15.5 -35.5q10 -23 22.5 -49t24.5 -53t23.5 -48.5t19.5 -33.5l10 -10q0 -14 1.5 -20.5t1.5 -10.5h2q0 -33 -26 -63.5t-62.5 -55t-78.5 -43t-75 -28.5l168 -136v-8l72 -71l-7 -220q0 -33 -17 -60.5t-42 -50t-51.5 -38.5t-44.5 -27q-12 -6 -38 -15 t-58.5 -21.5t-69.5 -25.5t-72 -26l2 -2q-61 -23 -114.5 -42t-75.5 -29l-8 -2q-4 0 -6.5 -1.5t-4.5 -1.5h-8q-23 0 -47 25l-51 51q-18 8 -33.5 25.5t-30 38t-25 41t-16.5 32.5l-2 2q0 2 -2 5q-8 14 -26.5 49t-38 74.5t-34.5 76.5t-20 54h-2q-2 8 -2 10zM0 391q0 -6 1 -12 l1 -6q2 -10 17.5 -46t36 -77t39 -77t26.5 -48q2 -4 12 -25.5t25.5 -46t33 -44t33.5 -19.5q6 0 9.5 1t9.5 1q25 10 84 31.5t125.5 46t125 47t83.5 33.5q18 10 43.5 26.5t50 36.5t41 45t16.5 53l6 209l-461 373l39 63q10 -18 24.5 -51t33 -65.5t42 -57t54.5 -24.5 q20 0 65.5 14t90.5 39t79.5 56.5t34.5 68.5q0 2 -1 11l-1 9q-8 6 -25.5 41t-37 77t-37 80t-23.5 50q-4 2 -13 23.5t-22.5 46t-30 45t-36.5 20.5q-4 0 -7 -2t-9 -2q-25 -12 -84.5 -35.5t-125 -48t-125 -47t-83.5 -33.5q-23 -10 -49.5 -25.5t-49 -34.5t-37 -44t-14.5 -51v-178 l299 -285q-14 14 -39 14q-20 0 -64 -15t-90 -40t-81 -56.5t-35 -64.5zM348 514l146 -133l-72 -8q-12 23 -28.5 64.5t-45.5 76.5zM514 303h2h2l-4 2v-2z" />
<glyph unicode="t" horiz-adv-x="876" d="M-27 926q0 -53 25 -82t68 -58l6 -6v-428q0 -4 -9.5 -9t-21.5 -11t-25.5 -11.5t-19.5 -7.5l2 -4l-23 -28q14 -49 50 -89t84 -75l18 -19q33 -35 73 -62.5t81 -51.5l4 -4q27 -16 49 -32t57 -46l4 -4q31 8 94.5 47t127 89t111.5 102t48 89q0 35 -16 51l-62 60 q-10 27 -31.5 36t-50.5 9h-4v348q10 -2 21 -2h20q70 0 110 37t40 117q0 49 -33 82l-4 2q2 0 2 -2h2l-51 51q-16 35 -50 52t-71 28v309l-72 72v8l-118 90q-53 -104 -98.5 -185t-94.5 -151t-106.5 -134.5t-133.5 -133.5v-17q0 -4 -1 -7t-1 -7v-12zM0 926q0 8 1 19t1 13 q76 70 132 132.5t102.5 129t89.5 142.5t92 172l82 -64v-385q20 -4 55 -9t67.5 -18.5t57.5 -37t25 -62.5q-1 -86 -53 -114q-34 -18 -80 -19q-27 0 -58 6v-491q10 0 38 6t55.5 8t49 -8t21.5 -43q0 -35 -45 -83t-104.5 -94t-119 -82t-87.5 -44q-33 29 -82.5 59.5t-96.5 65.5 t-87 75t-54 87l14 6q15 6 33.5 16t33.5 21.5t15 21.5v447q-45 29 -71.5 54.5t-26.5 72.5z" />
<glyph unicode="u" horiz-adv-x="1423" d="M-27 1024q0 -39 11.5 -57.5t29.5 -26.5l62 -59q10 -12 28 -17v-442q-4 0 -12 -8l-8 -8q-14 -6 -39 -18.5t-35 -22.5q-4 -16 -4 -19v-6v-14q0 -2 4 -19q8 -29 26.5 -56.5t44 -56t55.5 -55t61 -51.5q43 -43 90 -80t84 -65q16 -12 30.5 -23.5t22.5 -17.5h25q47 0 83.5 25.5 t73.5 56.5q35 29 70 54t76 25q27 0 49 -16q14 -14 28.5 -26.5t30.5 -22.5l31 -31q27 -29 59.5 -47t73.5 -18q35 0 91 28.5t108.5 71.5t90.5 90t38 84q0 41 -21 62l-57 57q-8 20 -23.5 29.5t-31.5 13.5v500q37 35 53 62.5t16 76.5v22q0 2 -1 4.5t-1 4.5q-6 12 -10 18t-14 16 l-50 50q-4 10 -10 17t-24 24q-2 2 -4.5 3t-4.5 3q-20 16 -51 45q-27 20 -60.5 49t-65 57.5t-58.5 53t-39 36.5q-119 -152 -289 -235q-14 27 -30.5 48t-32.5 42l-41 39q-29 41 -66 68.5t-82 27.5q-4 0 -6 -1t-4 -1h-33q-8 -6 -24.5 -21.5t-34.5 -31.5l-8 -8q-8 -6 -25 -23 q-35 -31 -71.5 -62.5t-57.5 -43.5h-4q-14 -12 -19.5 -16.5t-15.5 -14.5q-4 -4 -9 -8t-1 -2q-35 -27 -51.5 -47.5t-16.5 -65.5zM0 1024q0 25 6 39t18.5 26.5t31 25.5t42.5 36q14 8 46 35.5t68 58.5t66.5 58.5t43.5 37.5q6 0 15 1t17 1q55 0 96.5 -44t70 -105t43 -127 t14.5 -109q0 -37 2 -126t2 -193q0 -51 -1 -101.5t-1 -93.5q0 -41 -1 -73.5t-1 -51.5l14 7q14 6 32.5 15t34 20.5t15.5 21.5v575q-6 8 -16.5 25.5t-20.5 38t-17.5 38t-9.5 25.5v17v16q174 78 287 223q10 -10 33.5 -31.5t52.5 -47t60.5 -52t58.5 -47.5q33 -31 49 -45t23.5 -20 t9.5 -9.5t6 -11.5v-22q0 -43 -16.5 -68.5t-53.5 -60.5v-574q0 -27 20.5 -31t46 -6t46 -12t20.5 -49q0 -35 -35.5 -78t-85 -83t-101.5 -66.5t-85 -26.5q-45 0 -76.5 25.5t-61.5 55.5t-60.5 55.5t-73.5 25.5q-45 0 -83 -25.5t-73 -55.5t-70.5 -55.5t-76.5 -25.5h-17 q-18 16 -65 50t-99.5 79t-96.5 94t-58 96l-1 7q-1 6 -1 14q0 2 1 7l1 5q8 6 31.5 17.5t31.5 13.5q8 8 20.5 19.5t12.5 13.5v555q-25 0 -48.5 -4t-41.5 -3t-29.5 13t-11.5 47z" />
<glyph unicode="v" horiz-adv-x="1228" d="M-27 1214q0 -45 4.5 -78.5t15.5 -63.5t30.5 -59.5t48.5 -64.5v-518q-8 -4 -9 -4l3 2q-23 -10 -54.5 -29.5t-36.5 -42.5v-4q0 -25 39 -68.5t99 -93.5l8 -6q43 -43 106.5 -93t125 -92t110.5 -69.5t65 -27.5l10 4q11 4 23 10t24.5 12t18.5 11l127 94q29 20 66 34.5t77 28.5 l3 -2q49 16 98 34.5t89 46.5t65.5 68t25.5 95v606q0 6 -4 21.5t-10 32t-12.5 33t-10.5 22.5q-10 16 -29.5 36.5t-41.5 43.5l-3 2q-2 0 -2 2q-16 23 -50 56.5t-67.5 66t-61 55t-29.5 22.5h-41l-265 -166l-98 97q59 10 92 65.5t33 122.5l-72 72v12q-94 0 -185 -9t-164 -42 t-117 -98.5t-44 -176.5zM0 1214q0 102 40 162t104.5 90.5t146.5 38.5t166 8q0 -35 -11.5 -64.5t-33.5 -50.5q-22 -22 -52 -29q-11 -3 -23 -3q-21 0 -46 8l235 -235l275 172h33q2 0 26.5 -22.5t56 -53.5t62.5 -63.5t45 -53.5q4 -4 9 -17.5t10.5 -28.5t9.5 -29.5t4 -20.5v-606 q0 -74 -49.5 -117t-117 -70.5t-138 -49t-111.5 -52.5l-127 -94q-8 -8 -34.5 -20.5t-28.5 -12.5q-14 0 -53.5 20.5t-89.5 53t-103 72.5t-98.5 79t-75 73t-29.5 54q2 8 17.5 19.5t33 21.5t31.5 17l14 6v542q-29 35 -47 63t-29.5 56.5t-16.5 61t-5 75.5zM545 446l65 -63v614 q-16 0 -40.5 -9t-24.5 -30v-512z" />
<glyph unicode="w" horiz-adv-x="1589" d="M-27 1190q0 -90 20.5 -150.5t78.5 -119.5v-535q-39 -27 -52.5 -53.5t-13.5 -73.5q0 -14 20.5 -44t52.5 -64.5t69.5 -71.5t70.5 -64q25 -25 48.5 -46t45 -37.5t37 -26.5t23.5 -10q6 0 22 6q2 0 5 1t14 1l190 188q10 2 12 3t7 1q45 0 88 -30.5t84 -65.5q45 -37 90 -67.5 t100 -30.5q16 0 61.5 23.5t104.5 61.5t123.5 85t118 95t88.5 91t35 74v598q0 25 -14.5 59.5t-36 72.5t-50.5 74.5t-55 65.5l-25 25q-39 47 -76.5 80.5t-64.5 33.5q-47 0 -81 -29.5t-66 -62.5l-7 -6q-23 -25 -43 -43t-43 -20l-8 4q-8 4 -14 9t-12 9q-4 6 -9.5 13.5t-9.5 13.5 l-41 41q-4 4 -4 6q-25 33 -49.5 51t-81.5 18q-76 0 -127 -40.5t-109 -102.5q-37 43 -83 78l81 45q4 16 5 18v9q0 45 -23 67l-57 56q-14 35 -45 44t-62 9h-43q-289 0 -289 -336zM0 1190q0 309 262 309q14 0 37 1t44.5 -4t35.5 -20.5t14 -48.5q0 -2 -1 -7l-1 -5l-129 -72 q25 -18 55.5 -36.5t61.5 -41t59.5 -49t48.5 -59.5q59 66 111.5 113t126.5 47q43 0 63.5 -12.5t37 -34t39 -50t71.5 -63.5l6 -3t8 -3q33 0 61.5 25.5t56.5 55.5t58.5 55.5t67.5 25.5q25 0 63.5 -36t73.5 -85t60.5 -101.5t25.5 -84.5v-598q0 -29 -33.5 -71t-85 -87t-113 -90 t-118.5 -81t-100 -58.5t-60 -22.5q-49 0 -92 30.5t-86 66.5t-88 67t-96 31q-6 0 -17 -3l-10 -2l-190 -188q-6 0 -16.5 -4t-16.5 -4q-14 0 -57 34.5t-88.5 81t-81 90.5t-35.5 60q0 47 13 68.5t52 44.5v559q-57 57 -77.5 114.5t-20.5 145.5zM518 332l57 26v609l-57 4v-639z M969 408q0 -29 23.5 -36t39.5 -7v614q-16 0 -39.5 -10.5t-23.5 -38.5v-522z" />
<glyph unicode="x" horiz-adv-x="1103" d="M-27 94q0 -139 47.5 -231t124.5 -146l31 -30q68 -68 161 -97.5t200 -29.5q68 0 133 11t117.5 42t85 85t32.5 142q0 82 -39 121l-51 51q-33 66 -129 72q43 33 87 74t81 77.5t59.5 67.5t22.5 47v8q0 4 -4 15h-2q-2 6 -8.5 14t-14.5 19l-6 4l-2 2l-39 39v4h-2 q-4 14 -21.5 31.5t-29.5 21.5h-21q-23 0 -38 -6t-31 -13q-4 -2 -6 -2l-4 -2q-16 -10 -31 -12v309q0 -2 4 -2l51 -51q37 -37 100 -37q39 0 75 18.5t63.5 49.5t45 70.5t17.5 82.5q0 25 -11 69t-31.5 93t-46 96.5t-54.5 75.5l-41 39q-23 35 -47.5 55.5t-46.5 20.5 q-10 0 -14.5 -1t-16.5 -7l-172 -191q-8 8 -14.5 15.5t-12.5 15.5l-18 16q-23 27 -47.5 54.5t-52 49t-58.5 35t-61 13.5q-8 0 -13.5 -1l-27.5 -5l-262 -291q-8 -8 -9.5 -12t-1.5 -15q0 -20 14.5 -46.5t35.5 -37.5q4 -4 10 -4l47 -47q2 -6 8 -8q4 -8 14 -12h2q18 -8 41 -9h23 v-380q-96 -82 -145.5 -177.5t-49.5 -222.5zM0 94q0 125 50 217t145 170v426q0 45 -16.5 58.5t-41.5 13.5q-23 0 -50.5 -5t-51.5 5q-16 6 -28.5 32.5t-4.5 35.5l256 284l12 2q11 2 17 2q39 0 76.5 -23.5t71.5 -57t61.5 -71.5t48.5 -65l192 213l5 2q6 2 12 2q33 0 64.5 -43 t57 -100t42 -114.5t16.5 -86.5q0 -41 -15.5 -76.5t-40 -63.5t-57.5 -44t-67 -16q-57 0 -89 35.5t-55 115.5h-32v-461q0 -31 22.5 -36t38.5 -5q43 0 76 20.5t71 20.5h15q8 -2 19 -15t14 -22l2 -7q2 -7 2 -9q0 -14 -23.5 -45t-59.5 -67.5t-79 -75.5t-84 -72t-75 -53.5 t-50 -20.5q-29 0 -55.5 10.5t-53 23.5t-54.5 23.5t-60 10.5q-66 0 -91.5 -49.5t-25.5 -114.5q0 -61 28.5 -100t69.5 -60.5t89 -29t89 -7.5q4 0 20.5 1t35 2t35 2t20.5 1q0 49 7 94.5t24.5 80t48.5 55t80 20.5q133 0 133 -139q0 -82 -31 -132t-80 -79t-111.5 -39t-125.5 -10 q-92 0 -175 23.5t-146.5 76t-100.5 135t-37 201.5zM225 -80q0 59 21.5 101t75.5 42q31 0 56 -10t52 -22q23 -12 45.5 -21.5t46.5 -13.5q-16 -33 -24.5 -74t-10.5 -88q-8 -2 -16 -2q-6 0 -14 -2q-18 -2 -35 -2h-19q-39 0 -85 7t-85 28q-8 22 -8 57zM899 412l2 -2q0 2 -2 2z " />
<glyph unicode="y" horiz-adv-x="972" d="M-27 1120q0 -66 10.5 -121t24.5 -108q14 -55 25.5 -111.5t11.5 -117.5q0 -47 -6 -92.5t-14 -90.5q-8 -43 -13.5 -86t-5.5 -96q0 -31 12.5 -62.5t33 -61.5t46 -56.5t54.5 -44.5l28 -29q35 -35 73 -57.5t69 -22.5h10t12 2q6 4 21.5 16.5t31.5 24.5q6 4 13.5 10.5t15.5 10.5 q-4 -53 -15.5 -91t-34 -72t-57 -69t-81.5 -84l-7 -16q4 -25 14.5 -38t26.5 -19l60 -60q14 -14 34.5 -17t39.5 -3h30q55 0 134 45t153 113.5t125 149.5t51 154v883q0 2 -1 3t-1 3q-8 25 -21.5 55.5t-31.5 49.5l-6 6h2l-109 123l-12 10l-64 74q-18 4 -22 4h-6h-17q-2 0 -8 -2 l-162 -115l-2 -2l-45 -25l-71 82v9q0 6 13 15t30 19q12 8 27.5 19.5t29.5 30.5q-20 55 -43 77l-55 54q-20 35 -42 45t-57 10q-68 0 -116 -25.5t-78.5 -69.5t-44 -103.5t-13.5 -129.5zM0 1120q0 63 12.5 117.5t39 95.5t69.5 64.5t104 23.5q37 0 56.5 -13t40.5 -65 q-10 -12 -26.5 -22t-33 -20.5t-28 -21.5t-11.5 -24q0 -2 1 -10l1 -8l160 -182l66 35l159 112l6 1q5 1 11 1q2 0 8 -1l6 -1l104 -119q23 -16 35.5 -47.5t20.5 -54.5v-883q0 -70 -49.5 -147.5t-119 -143t-145 -108.5t-129.5 -43q-8 0 -23.5 -1t-31.5 2t-29.5 11.5t-15.5 26.5 q55 55 93 95t60.5 80t33 89t10.5 125q0 4 -1 22.5t-1 38.5t-1 39t-1 27q-10 -10 -38 -31.5t-58.5 -44t-58.5 -43t-38 -29.5l-6 -1t-8 -1q-29 0 -66 22.5t-68.5 56.5t-54 76t-22.5 81q0 49 6 92t13 87t13.5 89t6.5 97q0 63 -11.5 120.5t-24.5 111.5t-24.5 109.5t-11.5 116.5z M418 385q45 0 63 45v37q0 29 3 54.5t3 53.5v39v146q0 41 -10 77.5t-26 69.5l-33 -37v-485z" />
<glyph unicode="z" horiz-adv-x="913" d="M-27 270q0 -121 37 -227t125 -166l39 -39q41 -41 99.5 -64.5t136.5 -23.5q109 0 189.5 43t134.5 113.5t82 161t28 186.5q0 82 -21.5 151.5t-44.5 129.5q-16 41 -27.5 76.5t-11.5 70.5l4 6l64 64q4 16 4 18v8q0 33 -16 49l-60 60q-8 27 -33 35v12q0 39 -3 84t-11 87 t-24.5 80t-42.5 64l-43 43q-23 39 -61 63.5t-95 24.5h-10q-4 0 -7.5 -1t-7.5 -1h-16q-8 -6 -26.5 -20.5t-39.5 -28.5q-18 -14 -39.5 -28.5t-42.5 -28.5q-29 -18 -50 -34.5t-31 -25.5q-8 -6 -22.5 -20t-30 -29.5t-29 -31t-19.5 -25.5l-4 2q-4 -8 -4 -25q0 -23 17.5 -47 t33.5 -30l60 -58q14 -14 26 -14h86q-8 -33 -37.5 -46.5t-64.5 -23.5q-25 -6 -47.5 -14t-40 -20.5t-27.5 -32t-10 -49.5q0 -20 4 -37q0 -8 4 -11q2 -10 6 -23t8 -24q4 -8 7.5 -14t3.5 -12l2 -11l-12.5 -25t-8.5 -17.5t-9 -17.5t-13 -24v3q-20 -35 -34.5 -67t-14.5 -42 q0 -4 -2 -14q0 -4 -1.5 -9.5t-1.5 -9.5q-2 -16 -3 -36.5t-1 -47.5v-39zM0 270v39q0 37 4 73t4 44q0 6 14.5 34.5t33 60.5t32.5 60.5t14 34.5q0 4 -5 18.5t-10 30t-10 30t-5 18.5q0 2 -3 14t-3 21q0 47 35.5 63t78.5 28.5t79 34t36 76.5v19q-8 16 -18.5 39.5t-14.5 23.5h-160 q-12 0 -25.5 23.5t-4.5 40.5q0 4 11 16t27.5 27.5t32 30t25.5 22.5q12 10 43 32.5t66.5 47t67.5 47t46 33.5q2 0 13.5 1t17.5 1q53 0 88 -27t54.5 -70t27.5 -95t10 -103q1 -26 1 -49.5t-1 -45.5q-2 -44 -2 -69q12 0 33.5 3t38.5 3q41 0 41 -45q0 -4 -1 -10l-1 -6l-64 -64 l-3 -6t-3 -10q0 -41 16.5 -86t36 -97.5t35.5 -114t16 -130.5q0 -92 -25.5 -179t-77.5 -155t-130 -109t-180 -41q-92 0 -155.5 36t-102.5 94.5t-56.5 134t-17.5 157.5zM281 41q0 -49 21.5 -59.5t57.5 -10.5q20 0 22.5 1t-2.5 8.5t-13.5 21.5t-8.5 39v586q-27 0 -42 -26 t-23 -59.5t-10 -67.5t-2 -48v-385z" />
<glyph unicode="{" horiz-adv-x="624" d="M-129 86q6 -25 21.5 -59.5t44.5 -57.5l106 -119q4 -2 6 -2t6 -2l68 -67l21 -7t6 -1q4 0 7 1t19 7l158 110l74 37l-68 183q-14 25 -22.5 56.5t-8.5 72.5q0 23 -1 46t-1 46q0 59 -1 114.5t-1 110.5q0 143 7 269t30 222.5t66 158t114 75.5l17 25q-2 18 -17 32l-59 60 q-10 31 -40 39t-54 8h-29q-55 0 -136 -45t-155 -115t-126 -152.5t-52 -156.5v-889zM-102 94v881q0 70 49 148.5t118.5 143t145.5 107.5t129 43q6 0 21.5 1t32 -2t29.5 -11.5t17 -26.5q-96 -20 -145 -114.5t-68.5 -238.5t-18.5 -327.5t3 -382.5q0 -43 10 -79.5t27 -67.5 l57 -154l-57 -28l-160 -113l-6 -2t-10 -2q-2 0 -8 2l-7 2l-104 117q-23 16 -36 49t-19 55zM305 14l6 6z" />
<glyph unicode="|" horiz-adv-x="800" d="M-6 1153q0 16 9 34.5t31.5 48.5t63.5 75t105 116q14 16 31.5 35t35.5 41q10 12 22.5 25.5t22.5 23.5q45 -43 86 -85t78 -85q72 -76 127.5 -151.5t87.5 -147.5q4 -10 4 -14v-12q0 -43 -14 -69.5t-33 -51.5q-20 -29 -38.5 -67t-18.5 -111q0 -25 2 -76t5 -112.5t8 -126 t9 -115.5q20 -12 31 -37l58 -55q29 -29 28 -97q0 -31 -18.5 -71.5t-48 -85.5t-66.5 -88.5t-72.5 -78t-67.5 -56t-52 -21.5q-27 0 -68 41l-41 41q-31 18 -67.5 63t-67.5 97.5t-51.5 104.5t-20.5 85v813l-69 70l-7 6q-12 12 -14 22l25 -20q-4 8 -8.5 18.5t-8.5 20.5 q-8 16 -13 30.5t-5 22.5zM20 1153q0 -6 2.5 -19.5t4.5 -27.5t5 -24l3 -11q2 -6 14 -15t26.5 -16.5t28 -12.5t17.5 -5v-852q0 -35 23.5 -91t56 -110.5t68.5 -93.5t63 -39q29 0 80 43t101 104.5t87 126t37 107.5q0 117 -107 98q-4 29 -10 101.5t-11 155.5t-9 158t-4 106 q0 70 16 109.5t35.5 67t36 53.5t16.5 69q0 6 -3 17l-3 11q-39 86 -110.5 176.5t-166.5 176.5q-92 -102 -150 -167t-91 -103t-44.5 -58.5t-11.5 -34.5zM399 1460l9 -8l2 -2q0 2 -2 2zM408 1450v2l2 -2h-2z" />
<glyph unicode="}" horiz-adv-x="624" d="M-127 1378q6 45 37 55.5t59 10.5h31q37 0 85 -20.5t100.5 -55.5t101.5 -81t90 -97l8 -8q66 -66 111 -140.5t45 -144.5v-881q-10 -27 -25.5 -62.5t-38.5 -53.5l2 -2l-102 -117l-31 -10q-6 0 -9 1t-20 7l-161 112l2 -2l-58 31l-12 6l-63 64l-5 2l-18 10l68 186 q14 25 22 56.5t8 70.5v56q0 14 1 27.5t1 27.5q0 29 1 57.5t1 57.5v108q0 100 -3 193.5t-13 172.5t-28.5 142.5t-47.5 108.5q-14 8 -39 14l-69 70q-6 0 -10 2zM-100 1378q98 -20 146 -114.5t66.5 -238.5t17.5 -327.5t-3 -382.5q0 -43 -10.5 -79.5t-26.5 -67.5l-55 -154 l55 -28l160 -113l6 -2t12 -2q2 0 8 2l7 2l102 117q23 16 36 49t21 55v881q0 70 -49 148.5t-118.5 143t-145.5 107.5t-129 43q-8 0 -23.5 1t-32 -2t-29.5 -11.5t-15 -26.5zM27 20l8 -6zM55 1239l2 -2q0 2 -2 2z" />
<glyph unicode="~" horiz-adv-x="1239" d="M-25 711q0 -4 29 -25l59 -57q8 -10 42 -28.5t79 -41t98.5 -46.5t102.5 -44t89 -32.5t61 -12.5q18 0 28 10q16 14 29.5 24.5t30.5 22.5q39 31 71 60l160 -125l322 219v12l-72 72v6q0 6 -30 23.5t-76 42t-102 50t-110.5 48t-98.5 37t-66 14.5q-10 0 -19.5 -4t-13.5 -8 q-31 -29 -55.5 -59.5t-45.5 -57.5q-2 -4 -3 -5t-3 -5l-176 151l-330 -227v-14zM2 713l301 205l180 -156q23 29 52.5 69.5t70.5 77.5q8 8 47 -1t93.5 -28.5t114 -45t109.5 -49t80.5 -41t26.5 -21.5l-301 -205l-162 129q-23 -25 -62.5 -55.5t-80.5 -65.5q-8 -8 -47 1.5 t-92 28.5t-113.5 45t-110 49.5t-80 41t-26.5 21.5z" />
<glyph unicode="&#xa1;" horiz-adv-x="786" d="M-35 260q0 96 105 96h2q2 35 7 85.5t10 99.5t8 90t3 57q0 47 -16 71.5t-35 45.5q-23 23 -36 42t-13 54q0 12 1 16.5t7 14.5l209 215q-47 39 -84 87t-37 116q0 41 19.5 82t52.5 72.5t72 51t79 19.5q49 0 90.5 -24.5t65.5 -65.5l47 -45q55 -55 56 -137q0 -20 -6.5 -51 t-17.5 -64t-27.5 -63.5t-34.5 -51.5l133 -135q8 -8 8 -16l65 -66q6 -6 7.5 -11t1.5 -9q0 -14 -13.5 -37t-25.5 -39q-8 -8 -32 -18.5t-44 -14.5v-575q0 -29 -25.5 -72t-61.5 -83t-75 -69.5t-65 -29.5q-18 0 -45 12t-58 32.5t-62.5 47t-60.5 55.5l-6 6q-33 25 -62.5 54.5 t-53 57t-38 53.5t-14.5 44zM-8 260q0 -29 35.5 -74t84 -87t97.5 -72.5t78 -30.5q25 0 60.5 26.5t67 64.5t55.5 78t24 64v592q4 0 16 3t25.5 8.5t24.5 10.5t15 9q12 14 25.5 36.5t5.5 31.5l-223 231q23 14 40 44t29.5 63.5t19.5 66.5t7 55q0 35 -12 66t-33.5 53.5t-51.5 35.5 t-63 13q-35 0 -70.5 -17.5t-63 -45t-45 -63.5t-17.5 -72q0 -35 12 -64t31.5 -52.5t43 -44t46.5 -38.5l-223 -231l-3 -6q-3 -7 -3 -13q0 -31 15 -49t34.5 -37.5t35 -48.5t15.5 -78q0 -20 -4 -71.5t-9 -108.5t-10.5 -108.5t-7.5 -71.5q-104 12 -104 -68z" />
<glyph unicode="&#xa2;" horiz-adv-x="1036" d="M-27 444q0 -35 32 -74.5t81 -74.5l25 -25q18 -18 39.5 -36.5t48.5 -34.5q12 -37 29.5 -75t36 -69.5t36.5 -54.5t33 -27l55 -55q18 -18 31 -18q16 0 41.5 22.5t52.5 58t51.5 79.5t40.5 87q63 27 136 62t120 57q10 4 18.5 8.5t14.5 8.5q4 2 7 3t7 3q41 18 51.5 30.5 t10.5 47.5q0 33 -17 49l-61 59q-6 16 -22.5 28.5t-47.5 12.5q-27 0 -47 -4t-41 -8h-4q-23 -4 -43 -8t-41 -4q-20 0 -47 2t-55 10q-4 51 -3 100t1 86l6 -6q20 -20 47 -34.5t61 -14.5q25 0 77 11t104.5 29.5t92.5 44t40 54.5v12t-4 9q-4 8 -22.5 35.5t-41 58.5t-43 57.5 t-29.5 34.5l-20 20q-8 10 -15.5 19.5t-17.5 19.5l-10 9q-8 8 -12 16q-4 2 -8.5 7t-10.5 11q-18 23 -45.5 50.5t-62.5 27.5q-2 0 -2 -2h-2h-17q-6 -2 -12 -3t-16 -3q-25 -4 -35 -6q-29 49 -62.5 99t-74.5 104l-54 51q-6 10 -13 18t-13 19l-43 -66h2q-51 -78 -83 -126 t-50.5 -77.5t-24.5 -47t-6 -29.5q0 -14 10 -50q-27 -8 -55.5 -22t-51 -31.5t-38 -38t-15.5 -41.5v-465zM0 444v465q0 18 16.5 37t41 34t52 26.5t50.5 15.5l-2 9q-2 9 -4 20.5t-3 22.5t-1 18q0 12 7 27.5t26.5 48t55 86t93.5 139.5q115 -147 172 -287q35 10 64.5 16.5 t45.5 10.5q2 0 7.5 1t7.5 1q18 0 35.5 -13.5t33 -31t26.5 -32t17 -16.5q8 -8 27.5 -33.5t41 -54t39 -55.5t21.5 -35l1 -3t1 -9q0 -25 -36.5 -46.5t-86 -37.5t-97.5 -25.5t-72 -9.5q-49 0 -82 33t-54 65v-6v-53q0 -49 2.5 -124t8.5 -140q39 -23 97 -33t95 -10q49 0 89 12 t87 12q29 0 39 -14t10 -31q0 -29 -11 -37t-52 -28q-16 -8 -50 -24.5t-75 -36t-86 -40t-84 -36.5q-14 -41 -36.5 -84t-48.5 -79t-49.5 -58.5t-37.5 -22.5t-34.5 27.5t-41 66.5t-36 83t-19.5 79q-39 18 -77 41.5t-67.5 49.5t-48 51.5t-18.5 47.5z" />
<glyph unicode="&#xa3;" horiz-adv-x="880" d="M-27 35h13l71 -72q102 0 158 68q72 -47 133.5 -74t126 -39t139 -14t174.5 -2q0 47 -9 84t-36 63l-18 17q41 37 62.5 78.5t21.5 97.5q0 66 -33 98l-49 49q27 16 38 47t11 90q0 4 -1 16.5t-1 24.5q-2 12 -2 31v29l-72 71v13q-16 0 -63 6t-88 12v356l4 5q4 4 8 6h17 q14 0 27 -5.5t28 -11.5q18 -10 41.5 -16t64.5 -6v100l-71 72v8l-303 303h-74q-2 0 -37 -22.5t-80 -54t-89 -65.5t-67 -55q-8 -4 -15 -16t-13 -25.5t-10.5 -24.5t-4.5 -17v-3q0 -8 15.5 -31.5t34.5 -45.5q4 -4 7 -9.5t7 -9.5v-432q-41 -23 -53.5 -48.5t-12.5 -62.5 t10.5 -66.5t26.5 -57.5q12 -27 23.5 -54.5t11.5 -56.5q0 -41 -11 -80t-24 -74q-16 -41 -26.5 -88t-10.5 -106zM0 61q0 43 11.5 82t24.5 78t24.5 79t11.5 83q0 35 -11.5 63.5t-24.5 56t-24.5 55.5t-11.5 60q0 37 12.5 56.5t53.5 40.5v448q-4 2 -14.5 15.5t-22 29t-19.5 30.5 t-8 19q-2 8 10.5 33t22.5 33q20 20 62 53t84 63.5t75 52t35 21.5h63l287 -286v-72q-23 0 -40 6t-33.5 13.5t-33 13.5t-34.5 6h-19q-8 -2 -19 -15.5t-11 -15.5v-415q0 -8 11 -19.5t19 -13.5q10 -2 38 -7.5t59.5 -10.5t58.5 -9t37 -4q0 -10 2 -40t2 -40q0 -49 -9.5 -75.5 t-33 -41t-61 -19.5t-93.5 -9v-64q29 29 55.5 32t61.5 3q113 0 113 -111q0 -57 -27 -100t-74 -80q47 -23 63.5 -57.5t16.5 -81.5q-96 0 -167.5 2t-134 15.5t-123 42t-134.5 79.5q-43 -78 -131 -78z" />
<glyph unicode="&#xa4;" horiz-adv-x="2324" d="M-29 586l13 4l71 -72l131 45l2 51q8 -8 16.5 -15t18.5 -11l49 -49q39 -39 97 -39q18 0 43.5 7t54.5 17l-10 109l-2 2q10 -10 22 -17l51 -49q39 -39 115 -39h29q8 0 16 1t19 1q55 0 94 60l4 2l74 -72l94 19v131l37 -31l26 -25q84 -84 148 -84l20 21v2l21 -20l137 45v6 l16 -17h109q23 35 38 56.5t31 29.5q2 -4 3.5 -5t3.5 -5l14 -6l68 -66l77 -28v22l29 -28l96 16v133q16 -18 33 -26l27 -27q82 -82 141 -84l25 -27l4 4l73 -73l91 98l-74 74l6 6l-98 49v27l45 -45l92 -19l55 330l-74 72l2 10l-145 37l-4 -86l-43 45v10l-115 31l-14 -238 l-135 160l-27 26l-57 68l2 -119l-39 41q-35 63 -94 64q-16 0 -29.5 -2t-36.5 -13q-51 -72 -82 -141l4 68l-73 71l2 15l-119 -27l-10 -88l-47 49v10l-123 41l-6 -239l-138 161l-18 19l-66 76l2 -127l-14 14q-51 86 -154 86h-45q-20 -14 -35.5 -29.5l-31.5 -31.5l-64 63l2 14 q-154 -31 -237 -92l-72 72l2 14l-123 -26zM0 625l37 405l69 14l-18 -389zM145 825q0 178 269 228l-6 -97q-12 4 -21.5 5.5t-19.5 1.5q-29 0 -50.5 -12.5t-50.5 -41.5q-25 -35 -41 -74.5t-16 -84.5q0 -76 82 -76q12 0 29.5 2t39.5 8l7 -70q-43 -16 -76 -16q-109 0 -144 176 q0 16 -1 26.5t-1 24.5zM307 700q12 64 53 119q23 23 38.5 32t35.5 13q-20 -74 -20 -170q10 -29 20 -41l-49 49v17q-57 -16 -78 -19zM440 696q0 250 140 346h18h18q123 0 154 -133q-33 -279 -141 -278q-20 0 -33.5 -1t-30.5 -1q-100 0 -125 67zM512 801q0 -98 57 -99 q33 0 99 35q23 31 28.5 57.5t5.5 57.5q0 16 -1 29.5t-11 17.5q-25 51 -67 51q-66 0 -111 -123v-26zM610 739v6q27 80 66 99q-2 -23 -6 -44.5t-19 -41.5l-21 -10.5t-20 -8.5zM811 1020l217 -250l8 274l70 -24v-389q-90 0 -232 196v-192l-53 -10zM1171 641l43 403l66 15 l-16 -387zM1323 668q18 199 152 391q16 8 26 9t23 1q70 0 96 -125l4 -293l-43 17q-43 90 -86 90q-29 0 -48.5 -22.5t-47.5 -67.5h-76zM1436 840h123l-46 135zM1683 1036l213 -250l17 273l63 -17v-393q-90 0 -227 191v-189l-55 -10zM2028 612l47 39l55 -26l-57 -62zM2062 758 l13 301l90 -23l-47 -288z" />
<glyph unicode="&#xa5;" horiz-adv-x="1228" d="M-27 1120q0 -66 10.5 -121t24.5 -108q14 -55 25.5 -111.5t11.5 -117.5q0 -47 -6 -92.5t-14 -90.5q-8 -43 -13.5 -86t-5.5 -96q0 -31 12.5 -62.5t33 -61.5t46 -56.5t54.5 -44.5l28 -29q35 -35 73 -57.5t69 -22.5h10t12 2q10 10 31.5 26.5t50.5 37.5q-4 -53 -15.5 -92 t-34 -73t-57 -69t-81.5 -84l-7 -16q6 -41 41 -55l60 -60q16 -14 36.5 -18t41.5 -4h26q55 0 134 45t153 113.5t125 149.5t51 154v82q10 -2 19 -2h18q4 0 10 1t8 1q23 10 44.5 20.5t37.5 18.5q35 14 61.5 28.5t47.5 43.5q12 12 11 17.5t-19 23.5l-52 51v2q0 6 -6 12.5 t-18 18.5l-162 53v64q14 -2 25 -2h22q18 0 27 4q47 23 84 39q35 16 60.5 31.5t47.5 43.5v9q0 12 -4 16l-67 68q0 8 -4.5 11t-16.5 13l-174 60v155q0 2 -1 3t-1 3q-8 25 -21.5 56t-31.5 49l-6 6h2l-109 123l-12 10l-64 74q-18 4 -22 4h-6h-17q-2 0 -8 -2l-162 -115l-2 -2 l-45 -25l-71 82v9q0 6 13 15t30 19q12 8 27.5 19.5t29.5 30.5q-20 55 -43 77l-6 4l1 -1q1 -1 3 -1l-53 52q-20 35 -42 45t-57 10q-68 0 -116 -25.5t-78.5 -69.5t-44 -103.5t-13.5 -129.5zM0 1120q0 63 12.5 117.5t39 95.5t69.5 64.5t104 23.5q37 0 56.5 -13t40.5 -65 q-10 -12 -26.5 -22t-33 -20.5t-28 -21.5t-11.5 -24q0 -2 1 -10l1 -8l160 -182l66 35l159 112l6 1q5 1 11 1q2 0 8 -1l6 -1l104 -119q23 -16 35.5 -47.5t20.5 -54.5v-227l260 -88l4 -4q4 -3 2 -7q-12 -16 -28.5 -27.5t-39 -21.5t-50 -22.5t-62.5 -30.5q-14 -6 -86 4v-160 l246 -82l4 -4q4 -4 2 -6q-23 -35 -68 -52t-113 -52q-6 -2 -22 -1t-49 5v-107q0 -70 -49.5 -147.5t-119 -143t-145 -108.5t-129.5 -43q-6 0 -21 -1t-31.5 2t-31 11.5t-16.5 26.5q55 55 93 95t60.5 80t33 89t10.5 125q0 4 -1 22.5t-1 38.5t-1 39t-1 27q-10 -10 -39 -31.5 t-59.5 -44t-58.5 -43t-36 -29.5l-6 -1t-8 -1q-29 0 -66 22.5t-68.5 56.5t-54 76t-22.5 81q0 49 6 92t13 87t13.5 89t6.5 97q0 63 -11.5 120.5t-24.5 111.5t-24.5 109.5t-11.5 116.5zM418 385q45 0 63 45v37q0 29 3 54.5t3 53.5v52q-23 6 -38 9t-31 7v-258zM418 686l69 25v49 q0 41 -10 77.5t-26 69.5l-33 -37v-184z" />
<glyph unicode="&#xa6;" horiz-adv-x="800" d="M-6 1153q0 16 9 34.5t31.5 48.5t63.5 75t105 116q14 16 31.5 35t35.5 41q10 12 22.5 25.5t22.5 23.5q45 -43 86 -85t78 -85q72 -76 127.5 -151.5t87.5 -147.5q4 -10 4 -14v-12q0 -43 -14 -69.5t-33 -51.5q-20 -29 -38.5 -67t-18.5 -111q0 -25 2 -76t5 -112.5t8 -126 t9 -115.5q20 -12 31 -37l58 -55q29 -29 28 -97q0 -31 -18.5 -71.5t-48 -85.5t-66.5 -88.5t-72.5 -78t-67.5 -56t-52 -21.5q-27 0 -68 41l-41 41q-31 18 -67.5 63t-67.5 97.5t-51.5 104.5t-20.5 85v813l-69 70l-7 6q-12 12 -14 22l25 -20q-4 8 -8.5 18.5t-8.5 20.5 q-8 16 -13 30.5t-5 22.5zM20 1153q0 -6 2.5 -19.5t4.5 -27.5t5 -24l3 -11q2 -6 14 -15t26.5 -16.5t28 -12.5t17.5 -5v-852q0 -35 23.5 -91t56 -110.5t68.5 -93.5t63 -39q29 0 80 43t101 104.5t87 126t37 107.5q0 117 -107 98q-4 29 -10 101.5t-11 155.5t-9 158t-4 106 q0 70 16 109.5t35.5 67t36 53.5t16.5 69q0 6 -3 17l-3 11q-39 86 -110.5 176.5t-166.5 176.5q-92 -102 -150 -167t-91 -103t-44.5 -58.5t-11.5 -34.5zM399 1460l9 -8l2 -2q0 2 -2 2zM408 1450v2l2 -2h-2z" />
<glyph unicode="&#xa8;" horiz-adv-x="1114" d="M-27 1620q0 -53 34 -105.5t85 -82.5l35 -35q31 -31 68.5 -50.5t76.5 -19.5q37 0 70 14.5t57.5 40t39 58.5t14.5 69q0 113 -58 170l-47 45q-53 88 -217 113l-14 -4q-25 -18 -50.5 -41t-46 -48.5t-34 -56t-13.5 -67.5zM0 1620q0 31 12.5 58.5t30.5 50t41.5 43t46.5 38.5 q117 -16 170 -67t53 -156q0 -33 -13 -62.5t-34.5 -51t-50.5 -35t-61 -13.5q-35 0 -70 17.5t-62.5 45.5t-45 62.5t-17.5 69.5zM573 1622q0 -53 34 -105.5t85 -82.5l35 -35q31 -31 69 -50.5t76 -19.5q37 0 70 14.5t57.5 40t39 58.5t14.5 69q0 113 -58 170l-45 43 q-29 49 -82 76t-139 41l-16 -4q-23 -20 -47.5 -42.5t-45 -48.5t-34 -56.5t-13.5 -67.5zM600 1622q0 63 43 109.5t86 83.5q119 -16 172 -68.5t53 -157.5q0 -33 -13 -62.5t-34.5 -51t-50.5 -35t-61 -13.5q-35 0 -70 17.5t-62.5 45.5t-45 62.5t-17.5 69.5z" />
<glyph unicode="&#xa9;" d="M-25 307q0 -25 28 -58.5t75 -68.5l28 -28q41 -41 105.5 -85t132.5 -81t128 -61.5t95 -24.5h8q4 0 19 2q27 10 59.5 36.5t65.5 53.5l47 39q45 25 81 43t66 35q80 39 123 66.5t64.5 74.5t25.5 129t4 229v47q0 16 -1 35t-1 37v127q-20 78 -62 163t-108 150l-22 23 q-41 53 -92 94t-113 59q-8 -12 -36.5 -28.5t-60.5 -32.5t-59.5 -28.5t-33.5 -14.5q-27 -12 -101.5 -29.5t-158.5 -33.5q-49 -10 -95.5 -21.5t-81 -23t-56 -22.5t-21.5 -24v-682q-29 -8 -40.5 -26.5t-11.5 -46.5v-23zM2 307v23q0 23 11.5 38t39.5 15v702q0 6 31 15.5t79 21 t106.5 23.5t113.5 24.5t100 23.5t68 21q6 2 34.5 14.5t60.5 28t60.5 31t34.5 23.5q57 -16 103.5 -58.5t83.5 -96.5t62.5 -114.5t39.5 -115.5v-49q0 -35 1 -72t1 -72v-47q0 -115 -2 -188.5t-12 -119.5t-31.5 -72.5t-61.5 -50.5t-100.5 -52.5t-146.5 -75.5q-6 -4 -28.5 -23.5 t-49.5 -42t-50.5 -41t-31.5 -20.5l-10 -1t-19 -1q-29 0 -74.5 16.5t-100 43t-109.5 61.5t-100.5 68.5t-74 65.5t-28.5 54zM330 489q0 -27 21.5 -57.5t52 -57t62.5 -45t54 -18.5q6 0 12 2l5 2q10 6 36.5 23.5t57.5 38t57.5 39t38.5 26.5q23 16 29 21.5t6 25.5q0 12 -6 21.5 t-21 9.5q-23 0 -43 -8t-43 -8q-12 0 -31.5 4t-38 12t-30.5 20.5t-12 28.5v226q6 -8 13 -24.5t16 -33t21.5 -29t28.5 -12.5q12 0 36 7.5t48.5 19.5t43 27.5t18.5 33.5q0 4 -1 8l-1 3l-64 127q-4 0 -10 10t-13 21.5t-16.5 21.5t-17.5 10h-8q-12 -6 -43 -18.5t-67 -24.5 l-67.5 -22.5t-45.5 -14.5q-20 -10 -49 -30.5t-29 -49.5v-336zM428 412v336q0 16 22.5 32.5t41.5 26.5q4 2 8 2t10 2v-242q0 -23 13.5 -39t33.5 -26l55 -55q12 -16 39 -27q-33 -23 -71.5 -47.5t-61.5 -36.5q-33 0 -80 37q-10 21 -10 37zM551 825q33 10 70.5 25.5t66.5 26.5 l47 -93q0 -10 -11 -20t-27.5 -18.5t-34 -14.5t-31.5 -8q-10 16 -22.5 36.5t-14.5 24.5z" />
<glyph unicode="&#xaa;" horiz-adv-x="653" d="M-27 1108q0 -72 15.5 -124t64.5 -101q10 -12 18.5 -20.5t20.5 -12.5l53 -53q23 -23 52 -23q25 0 46 22.5t42 47.5l18 24q16 -12 23 -16l53 -51l-14 12q8 -8 14 -12q27 -27 53 -27h23q6 8 22.5 24.5t33.5 33t32.5 31t23.5 20.5l4 8q20 4 21 37q0 8 -7 22.5t-18 24.5 l-43 43v168q0 10 1 21.5t3 27.5q2 2 4.5 3t4.5 3h2q0 2 2 2q12 6 22 15.5t10 29.5q0 27 -18 45l-57 58q-10 27 -35 39t-47 22q-18 2 -21 8q-25 18 -39 35q-4 2 -5 4t-5 4l2 -2q-16 16 -32.5 28.5t-41.5 12.5q-16 0 -26 -4t-21 -10h2l-3 -2t-5 -4t-4 -3t-12 -8 q-35 -18 -55 -26q-31 -12 -61 -27.5t-54.5 -36t-41 -49.5t-20.5 -69v-195zM0 1108v84v20v68v20q4 43 26.5 72t54.5 48.5t68.5 34.5t67.5 32q20 12 28.5 20.5t28.5 8.5q31 0 53.5 -28t51.5 -48q10 -6 26.5 -12.5t32 -14.5t26.5 -19.5t11 -27.5q0 -20 -16.5 -25.5t-26.5 -17.5 q-6 -35 -6 -59v-58v-41v-18v-43v-8q0 -4 1 -14.5t3 -21.5t6 -19.5t10 -8.5q8 0 13.5 5t11.5 5t14.5 -14t8.5 -22q0 -16 -5 -17q-2 0 -14 -14q-8 -6 -23.5 -20.5t-33 -30t-31.5 -29.5t-20 -23h-13q-18 0 -35.5 17.5t-32 38t-25.5 38t-17 17.5q-12 0 -27.5 -17.5t-32 -38 t-33 -38t-32.5 -17.5q-25 0 -47 29q-45 45 -58.5 93t-13.5 114zM197 1092q0 -14 1 -26.5t3 -29.5l6 -6h4h2q6 4 15.5 17.5t9.5 19.5v256l-9 8q-6 6 -12 15.5t-10 9.5h-2h-4l-4 -27v-10v-45v-21v-108v-53z" />
<glyph unicode="&#xab;" horiz-adv-x="1034" d="M-25 686v12l246 553h19q4 0 18 -15t31 -40l41 -39q12 -14 34.5 -45t46 -68.5t47 -77.5t40.5 -75l166 373h18q4 0 18.5 -15.5t30.5 -40.5l41 -39q18 -18 51 -65t64 -100.5t54.5 -102.5t23.5 -72q0 -16 -11 -26q-16 -16 -42.5 -42t-57.5 -55.5t-61.5 -58.5t-53.5 -49 l170 -129l-4 -6l74 -74l-219 -326h-12q-2 0 -7 5l-67 67h-4q-8 0 -28.5 37t-49.5 93.5t-59.5 125t-56 131t-42 110.5t-16.5 66q-33 -31 -64.5 -60.5t-54.5 -51.5l168 -129l-4 -6l74 -74l-220 -326h-12q-2 0 -6 4l-68 68h-4q-8 0 -28.5 37t-49 93t-59.5 124.5t-56.5 131 t-42 111t-16.5 66.5zM2 692q-4 -10 9.5 -55t37 -106.5t53 -130t56 -126t46 -93.5t25.5 -31l203 301l-258 200q12 10 45 41t72 67t74.5 70.5t54.5 53.5q8 8 -1 37.5t-27.5 68.5t-44 83t-48.5 79t-40 56.5t-21 17.5zM444 705q-4 -10 9.5 -55.5t37 -107t53 -130t56.5 -126 t46.5 -93t25.5 -31.5l202 301l-258 201q12 10 45 40.5t72 66.5t75 71t54 53q8 8 -1 38t-27.5 68.5t-44 82.5t-48 79t-40 56.5t-21.5 17.5z" />
<glyph unicode="&#xac;" horiz-adv-x="1140" d="M-16 727q0 -4 24 -18l62 -62q10 -10 63 -33.5t129 -51t164 -56.5t168 -49l-49 -64l219 -280h8l72 -72h12q6 0 24.5 24.5t42 63.5t48 86t45 91t34 81t13.5 53q0 6 -1 12.5t-9 14.5l-60 57q0 2 -2 2v2q27 16 47.5 36t36.5 46q8 8 5 13.5t-19 27.5l-53 51q-2 4 -7.5 11.5 t-15.5 21.5l-518 211l-483 -213v-6zM2 713l465 205l504 -205l5 -7q5 -6 3 -8q-16 -29 -40 -48t-54 -40q16 -16 32.5 -36.5t45.5 -45.5q6 -6 -3.5 -38.5t-29 -76.5t-43 -94.5t-47 -91.5t-41 -66.5t-23.5 -21.5l-196 254l98 131q-43 4 -110.5 18.5t-144.5 34t-153.5 42 t-137 42t-97.5 34t-33 18.5z" />
<glyph unicode="&#xad;" horiz-adv-x="690" d="M-25 707v14l279 221l293 -217q6 -12 6 -16l65 -64l7.5 -15t1.5 -14v-8q-12 -43 -35 -68.5t-53 -54.5q-12 -10 -24.5 -22t-29.5 -29q-4 -4 -9 -7t-15 -3q-25 0 -83.5 24.5t-123 57.5t-118.5 65.5t-70 49.5l-54 51q-37 27 -37 35zM2 709q-4 -6 22.5 -23.5t67.5 -40 t91 -47.5t95.5 -43t77 -27.5t37.5 -1.5q25 27 46.5 46.5t39 37t29.5 36t20 46.5q2 4 -1 10l-3 7l-270 198z" />
<glyph unicode="&#xae;" d="M-25 307q0 -25 28 -58.5t75 -68.5l28 -28q41 -41 105.5 -85t132.5 -81t128 -61.5t95 -24.5h8q4 0 19 2q27 10 59.5 36.5t65.5 53.5l47 39q45 25 81 43t66 35q80 39 123 66.5t64.5 74.5t25.5 129t4 229v47q0 16 -1 35t-1 37v127q-20 78 -62 163t-108 150l-22 23 q-41 53 -92 94t-113 59q-8 -12 -36.5 -28.5t-60.5 -32.5t-59.5 -28.5t-33.5 -14.5q-27 -12 -101.5 -29.5t-158.5 -33.5q-49 -10 -95.5 -21.5t-81 -23t-56 -22.5t-21.5 -24v-682q-29 -8 -40.5 -26.5t-11.5 -46.5v-23zM2 307v23q0 23 11.5 38t39.5 15v702q0 6 31 15.5t79 21 t106.5 23.5t113.5 24.5t100 23.5t68 21q6 2 34.5 14.5t60.5 28t60.5 31t34.5 23.5q57 -16 103.5 -58.5t83.5 -96.5t62.5 -114.5t39.5 -115.5v-49q0 -35 1 -72t1 -72v-47q0 -115 -2 -188.5t-12 -119.5t-31.5 -72.5t-61.5 -50.5t-100.5 -52.5t-146.5 -75.5q-6 -4 -28.5 -23.5 t-49.5 -42t-50.5 -41t-31.5 -20.5l-10 -1q-10 -1 -19 -1q-29 0 -74.5 16.5t-100 43t-109.5 61.5t-100.5 68.5t-74 65.5t-28.5 54zM274 831q0 -20 12.5 -27t28 -11.5t28.5 -9.5t13 -17v-223l-63 -64q-6 -6 7 -20.5t37.5 -32.5t55.5 -36.5t58.5 -35t48 -27t24.5 -10.5t11.5 1 t13.5 1q51 39 98 83t92 92q0 2 1 7t1 11q0 31 -26 31q-14 0 -23.5 -5.5t-18.5 -12.5t-19.5 -12t-24.5 -5h-27q-23 0 -22 18v240l14 16l65 -96l17 -14l2 -2t6 -2q2 0 4 2l2 2q8 0 21.5 10t26 22.5t22.5 25.5t12 20q0 2 1 21.5t1 35.5q0 59 -16.5 103t-67.5 81l-110 -114h-17 q-18 25 -30.5 41t-24.5 28t-29.5 22.5t-44.5 22.5q-6 -4 -21.5 -18.5t-33 -29.5t-32.5 -28.5t-23 -19.5q-29 -23 -39.5 -32t-10.5 -32zM383 776q4 4 7 6t7 6l5.5 5.5t7.5 5.5h2q4 4 22.5 20.5t36.5 32.5q25 25 43 37l12 -6q0 -2 4.5 -6.5t12.5 -16.5q2 -2 4 -5t4 -5h8 l29 -31l-35 -41v-252q0 -37 29 -43l55 -55q-23 -23 -48.5 -43t-51.5 -41h-13q-6 0 -43 18.5t-78 43.5l52 51v231q0 18 -11 29zM635 778h31l77 80q2 -12 3.5 -24.5t1.5 -26.5q0 -6 -1.5 -14.5t-1.5 -16.5v-20q-6 -10 -20 -26.5t-29 -27.5l-22 37zM942 1182l8 -8z" />
<glyph unicode="&#xaf;" horiz-adv-x="1157" d="M-88 1720q0 -4 12 -6l72 -72q4 -6 58.5 -17t136 -26.5t182 -32t197 -29.5t179 -21.5t132.5 -8.5q12 0 21 -1t20 3h2q35 10 63.5 16.5t56.5 12.5q66 12 112 24.5t79 34.5q10 0 13 3.5t3 19.5q0 10 -4 14l-67 68q0 10 -5.5 14t-25.5 15l-639 102l-592 -104q-6 0 -6 -9z M-70 1704l582 102l631 -102l6 -3t2 -5q-41 -29 -117 -44.5t-194 -43.5q-16 -6 -91 -1t-179.5 14t-220.5 22.5t-211 26.5t-155.5 22.5t-52.5 11.5z" />
<glyph unicode="&#xb0;" horiz-adv-x="675" d="M-27 1036v13q0 33 27 47v331q0 23 30.5 33t71.5 19q10 2 21.5 3t21.5 5q8 2 14.5 3t14.5 3q31 8 57.5 14t36.5 11q4 0 23.5 10t38.5 20q6 4 13 7.5t13 7.5q8 4 15 4q39 -10 67.5 -36t50.5 -61l33 -32q35 -35 57.5 -80t32.5 -82v-68q0 -10 1 -18t1 -16v-25q0 -76 -2 -119 t-13 -67.5t-34.5 -39t-66.5 -34.5q-16 -8 -32.5 -17.5t-39.5 -19.5l-25 -21q-16 -14 -33.5 -28.5t-27.5 -16.5q-8 -2 -18 -2q-16 0 -48 13.5t-67 34t-70 44t-55 46.5l-31 28q-35 25 -56.5 47.5t-21.5 38.5zM0 1036q0 -16 30.5 -41.5t71.5 -50t82 -43t60 -18.5q4 0 9 1l5 1 q2 0 14.5 9t25.5 20.5t25.5 21.5t16.5 12q63 35 98 50.5t52.5 38t21.5 63.5t4 127v24q0 16 -1 36t-1 36v25q-8 25 -20.5 55.5t-31 58t-41 49t-50.5 27.5q-4 -2 -18.5 -9t-30 -15.5t-29.5 -15.5t-19 -7q-16 -6 -57 -15.5t-83 -18.5t-74.5 -17t-32.5 -13v-350q-27 0 -27 -28 v-13zM258 1092v286q12 -4 22.5 -20.5t10.5 -26.5v-260q-10 0 -21.5 5t-11.5 16z" />
<glyph unicode="&#xb1;" horiz-adv-x="868" d="M-10 784q0 -14 33 -30l57 -58q16 -18 78.5 -40.5t142.5 -45.5l86 -221q0 -23 16 -22l43 -48l-86 31l-358 -131v-6q0 -4 14 -10l70 -70q6 -6 41 -19.5t86 -29.5t111.5 -32.5t117 -31t102.5 -23.5t70 -9q6 0 13.5 1t13.5 5q20 10 37.5 17t34.5 16q35 14 60.5 28.5 t41.5 38.5q14 0 14 23q0 10 -4 14l-67 68q0 8 -4 11t-17 13l-231 76q16 16 25.5 63.5t23.5 106.5q4 23 10 46.5t13 45.5h16q16 0 24 4q23 10 42.5 19.5t35.5 17.5q37 16 64.5 30.5t50.5 49.5v6q0 6 -1 9t-9 16l-62 61l-10 21l-108 34q-4 16 -5 21q-10 23 -18 41t-16 35 q-14 31 -25.5 55.5t-28.5 40.5l-12 12q0 2 -1 3t-1 3l-70 70q-2 16 -22 16q-4 2 -5 3t-5 4l2 -7q-10 0 -14.5 -3t-14.5 -17l-63 -191l-326 -118q-6 -6 -6 -13zM10 774l332 123l66 197l4 4q4 4 6 0q18 -10 29.5 -26.5t22.5 -39t22.5 -51t27.5 -61.5q6 -18 -2 -82l191 -64 l3 -4q3 -4 1 -6q-23 -35 -67 -51.5t-114 -50.5q-10 -4 -49 0q-12 -51 -23 -101.5t-20.5 -89.5t-16.5 -60.5t-9 -15.5l-115 297q-55 12 -108.5 25.5t-94.5 25t-65.5 19.5t-20.5 12zM27 201l333 123l365 -123l4 -3t0 -5q-23 -35 -67 -52.5t-111 -52.5q-8 -4 -52 1t-103.5 17.5 t-127 28t-123 28.5t-89 24.5t-29.5 13.5z" />
<glyph unicode="&#xb2;" horiz-adv-x="569" d="M-27 1116l99 78l-37 37q-25 16 -43.5 36.5t-18.5 43.5v18q10 10 14.5 19.5t8.5 21.5q8 16 12 27q4 12 6 16q6 14 13.5 27.5t19.5 29.5l2 5q8 18 25.5 40.5t48.5 22.5l2 -2h4q18 -8 28.5 -12t18.5 -8.5t18.5 -8.5t28.5 -10l4 -2q2 0 6 -2q35 -14 68 -26.5t45 -16.5 q20 -10 45 -26.5t35 -45.5l49 -47h-2l4 -2q10 -10 18.5 -25.5t8.5 -31.5v-96l-94 -91q12 -10 20 -28l55 -53q23 -23 23 -46q0 -6 -2 -10q-4 -14 -16.5 -38.5t-22.5 -47.5q-8 -16 -17.5 -33.5t-7.5 -13.5q-4 -4 -6 -10q-10 -18 -24.5 -42t-36.5 -24h-15q-12 4 -40.5 10.5 t-61.5 14.5q-16 4 -26.5 6t-21.5 4t-24.5 6t-38.5 13q-10 6 -25.5 16t-27.5 22l-41 39q-23 12 -46 36t-25 61zM0 1104l8 -135q0 -29 27.5 -50.5t48.5 -31.5q12 -4 41 -10.5t60.5 -14.5t60 -14t41.5 -10h10q8 0 16.5 9t15.5 21.5t12 23.5t7 13q2 6 11.5 23.5t19.5 38t19.5 39 t9.5 24.5l1 2t1 4q0 18 -17.5 34.5t-40 29t-45 19.5t-33.5 7q-10 0 -18 -8l150 144v88q0 29 -27 48t-49 29q-12 4 -42 15.5t-64 26t-62.5 25.5t-40.5 15q-2 0 -4 1t-4 1q-10 0 -18.5 -10t-14.5 -22.5t-11.5 -22.5t-7.5 -10q-4 -6 -13 -25.5t-18.5 -41t-17.5 -39t-12 -21.5 v-8q0 -18 17.5 -34.5t40 -29t45 -19.5t32.5 -7q14 0 25.5 12t20.5 28.5t16.5 33t13.5 24.5l20 -31zM150 1012l86 86q-6 -8 -11.5 -23.5t-9.5 -31t-7 -27.5t-7 -19z" />
<glyph unicode="&#xb3;" horiz-adv-x="591" d="M-27 1018q0 -27 4.5 -35t26.5 -25q6 -6 10 -8l11 -10l43 -41l8 -8t12 -8q6 -6 10 -9q8 -6 34 -23t54.5 -37.5t56 -38t44.5 -25.5q8 -6 14 -7q6 -2 18 -2q25 0 61 20.5t69.5 50.5t57 64.5t23.5 63.5v336q0 31 -24 55l-55 53q-12 29 -39 46.5t-50 27.5q-14 6 -45.5 18.5 t-67.5 26t-67.5 23.5t-46.5 14h-14q-25 0 -41.5 -19.5t-26.5 -35.5q0 -2 -1 -3t-1 -3q-2 -2 -6 -2q-2 -4 -5 -13.5t-7 -19.5q-8 -20 -10 -29q-2 -4 -3 -10q-2 -10 -6 -19.5t-16 -25.5v-19q0 -23 17.5 -41t39.5 -32l47 -45q0 -2 1 -3l1 -1l-92 -52q-6 -6 -6 -10q0 -16 35 -35 l55 -55q2 -2 3 -4t5 -4q-20 0 -41 10v-2q-4 0 -6 2q-18 6 -32 6q-35 0 -43.5 -17.5t-8.5 -39.5zM0 1018q0 12 4 21.5t21 9.5q23 0 41 -8.5t47 -8.5q20 0 54 11.5t50 33.5q-27 6 -61.5 16.5t-64.5 19.5t-50.5 17.5t-15.5 12.5l149 82l49 -25v123q-8 -16 -18 -37.5t-45 -21.5 q-10 0 -33 5t-45.5 15t-39.5 24.5t-17 32.5v9q4 6 9 19t10 28.5t10 30t9 22.5q2 0 8.5 10t13.5 21.5t16.5 21.5t19.5 10h6q14 -4 47 -14t67.5 -22.5t66.5 -24.5t44 -18q23 -10 51.5 -31t28.5 -49v-336q0 -27 -21.5 -57.5t-52 -57t-63.5 -45t-53 -18.5q-6 0 -11.5 2t-7.5 2 q-10 4 -37.5 21.5t-58.5 38t-58.5 40t-35.5 27.5q-23 16 -28 21t-5 26z" />
<glyph unicode="&#xb4;" horiz-adv-x="555" d="M-29 1620q2 -4 2 -8q0 -2 2 -6q0 -10 9 -17q14 -37 33.5 -57.5t48.5 -40.5l36 -37q10 -10 23.5 -20.5t28.5 -20.5q6 -4 17 -13t28 -24v2q8 -8 20 -8q10 0 35 21.5t55.5 54.5t62 71.5t58.5 73.5t44.5 61.5t17.5 33.5v12l-72 71v11l-281 184l-159 -334l-3.5 -7t-1.5 -7z M2 1614l2 6l146 305l243 -160q4 -2 -11 -26.5t-42 -60.5t-60.5 -75.5t-63.5 -71.5t-52.5 -50.5t-28.5 -10.5q-47 39 -83 64t-48 74q-4 0 -2 6z" />
<glyph unicode="&#xb5;" horiz-adv-x="972" d="M-27 98q0 -43 18.5 -90t50.5 -93t74 -89t87 -80l12 -12q76 -76 161 -126t144 -50h31q29 0 57.5 9t32.5 48l-6 16l-33 33q-10 10 -18.5 17.5t-16.5 17.5l-4 12l-53 53q-35 47 -50.5 100.5t-15.5 141.5v12q0 10 1 22.5t1 27.5v24q27 -23 60 -48.5t61 -43.5l6 -6 q6 -4 19.5 -13.5t21.5 -15.5q10 -2 13 -2h8q31 0 72 24.5t76.5 61.5t60 82t24.5 88q0 51 -6 94t-14 86q-8 45 -14.5 90.5t-6.5 94.5q0 63 11.5 119.5t25.5 111.5q14 53 24.5 107.5t10.5 119.5q0 82 -19.5 150t-62.5 111l-41 40q-31 47 -80 76t-121 29q-47 0 -72.5 -19.5 t-51.5 -89.5q18 -27 30.5 -37t22.5 -16v2q0 -4 4 -4l37 -39l-135 -158l-48 27l-161 115q-8 2 -13 2h-14h-8q-2 0 -21 -4l-110 -127q-25 -20 -38 -55t-24 -62v-885zM0 98v883q8 23 21.5 54.5t35.5 47.5l103 119l6 1t8 1q6 0 12 -1l7 -1l159 -112l64 -35l159 182l1 8q2 8 2 10 q0 14 -12.5 24.5t-29 21t-33 20.5t-24.5 22q20 51 40 64.5t56 13.5q61 0 104.5 -23.5t70 -64.5t39 -95t12.5 -118q0 -61 -11.5 -116.5t-24.5 -109.5t-24.5 -111.5t-11.5 -120.5q0 -51 6 -96.5t14.5 -89.5t14.5 -87t6 -92q0 -39 -22.5 -81t-55.5 -76t-69.5 -56.5t-65.5 -22.5 q-2 0 -8 1l-6 1q-10 8 -37 28t-57.5 43.5t-58.5 45t-38 31.5q0 -8 -2 -26.5t-2 -39.5q0 -20 -1 -38.5t-1 -22.5q0 -76 10.5 -125t33 -89t60.5 -80t93 -95q-2 -18 -15.5 -26.5t-30 -11.5t-31.5 -2t-24 1q-53 0 -128.5 43t-145.5 108.5t-119 143.5t-49 147zM315 575 q0 -29 2 -54t2 -54v-37q18 -45 64 -45v485l-31 37q-16 -33 -26.5 -69.5t-10.5 -77.5v-146v-39z" />
<glyph unicode="&#xb6;" horiz-adv-x="2848" d="M-33 774l25 -137l20 -10l64 -64l67 -35l-63 -53q0 -98 55 -110l55 -56q14 -18 43 -18l132 -29v-88l12 -2l72 -70l360 -32l-2 -19l24 -18l60 -58l76 -51l336 60v-19l14 -4l69 -70l80 -24l322 180l35 -35l6 2l74 -73l110 26l166 199q55 -35 100 -53.5t80 -18.5q57 0 88 56 l19 208l157 -36q76 20 76 102v16q0 14 -3 22.5t-7 12.5h2l-84 117h135l35 86q10 10 10 20q0 20 -22 43l-55 54q-14 29 -72 65q41 31 41 92v11q0 25 -6 28l-66 66q-2 16 -18 22l-201 56q6 25 6 59l-72 72v8l-53 53h-327l6 31l-74 72l2 12l-156 14l-288 -59l-33 33l2 8 l-101 86l-319 -174l-160 108q-53 -20 -107.5 -75.5t-119.5 -145.5l-182 70h-15q-53 0 -76.5 -62.5t-27.5 -204.5l-209 23l-27 -145l88 -113zM0 752l195 34l-109 136l20 112l213 -22q0 141 18.5 204.5t59.5 63.5h11l196 -74q66 94 119 150.5t96 73.5l162 -111l317 172l70 -61 l-16 -54l16 -20l356 74l123 -13l-16 -117h428l37 -36q0 -94 -72 -113l354 -98q2 0 2 -13v-10q0 -94 -124 -108q233 -97 233 -146q0 -2 -3 -3t-3 -3l-33 -80h-160l107 -149q4 -4 4 -23v-16q0 -66 -57 -80l-174 41l-21 -227q-25 -43 -68 -43q-35 0 -81 20t-103 57l-172 -207 l-94 -22l-107 117l-338 -191l-57 19v114l-436 -75l-57 38l16 95l-461 41v71l51 62l-282 57q-53 0 -54 74l111 94l-201 96zM51 709l305 -168l-196 -97l428 -98l-146 -110l500 -19l-49 -131l436 94l57 -80l-18 -75l356 192l164 -117l174 232l234 -76l16 262l232 -37 q2 6 3 10.5t1 10.5q0 53 -144 227l228 23l-17 34l-288 156l180 55h22l-22 37l-410 96l141 111h-479l37 135l-467 -76l-12 117l-37 13l-322 -166l-139 112l-194 -225q-23 -8 -43 -8q-68 0 -174 82l-35 -264l-234 18l21 -80l125 -170zM244 879l202 -19l-30 -336l-10 11l10 6 l-150 80l135 14l-145 194zM393 420l72 35l33 -31l118 41v39q4 -4 8.5 -5t8.5 -5l51 -50q35 -35 84 -34q16 0 27.5 2t21.5 6q4 2 17.5 4t19.5 4l-8 96q2 0 3 -1t3 -1l51 -51q39 -35 101 -35q23 0 30 2q4 0 8.5 1t10.5 1q51 0 84 51l61 -61l92 18v101l19 -12l30 -31 q66 -66 119 -66l17 17l18 -19l121 39v6l12 -12h98q33 63 54 74l2 -2l67 -66l74 -29v13l16 -17l93 15v106q4 -4 10 -7t10 -7l29 -29q66 -66 114 -67l11 -11l2 2l69 -67l-4 -84l-217 72l-172 -230l-158 113l-286 -156l-23 33l-55 53l-21 31l-297 -64l7 13l-74 73l4 11l-301 10 l35 27l-74 73l10 8zM442 530l33 344l55 13l-12 -330zM473 901l27 207q90 -63 159 -64q20 0 58 13l184 211l133 -107l266 137l5 -28l10 2l74 -74l344 55l-11 -39h15l71 -71h260l-32 -27l24 -6l68 -68l242 -59l-115 -33l31 -18l63 -62l186 -102l-163 -16l12 69l-74 72l2 10 l-129 33l-4 -74l-31 33v10l-106 33l-6 -197l-103 121l-22 21l-62 73v-108l-26 29q-31 59 -86 59q-16 0 -25.5 -2t-32.5 -12q-14 -20 -26.5 -39t-22.5 -39l2 6l-73 72l2 14l-111 -27l-8 -71l-35 39v10l-109 35l-6 -197l-102 123l-29 29l-55 65l2 -106l-6 6q-41 72 -133 71 h-45v-6q-14 -10 -26.5 -21.5t-23.5 -25.5l-53 53l2 15q-72 -12 -123 -31.5t-86 -46.5l-57 57v15zM565 702q0 154 230 193l-4 -84q-12 6 -19.5 7t-17.5 1q-43 0 -82 -45q-53 -72 -54 -137q0 -63 72 -64q18 0 60 7l4 -60q-20 -4 -33.5 -8t-30.5 -4q-92 0 -123 147 q0 16 -1 25.5t-1 21.5zM721 602q12 39 43 80h2l19.5 19.5t19.5 13.5q-12 -59 -12 -127q2 -6 6 -15l-25 23v14q-16 -4 -29.5 -5t-23.5 -3zM819 590q0 209 117 295h14v2h19q107 0 127 -113q-25 -238 -121 -237q-12 0 -23.5 -2.5t-25.5 -2.5q-86 0 -107 58zM881 678 q0 -80 49 -80q16 0 37.5 6t44.5 23q28 53 28 98q0 12 -1 23.5t-11 17.5q-18 43 -57 43q-51 0 -90 -107v-24zM985 641q4 10 9.5 18.5t9.5 16.5q-4 -8 -7.5 -15.5t-7.5 -17.5q-2 -2 -4 -2zM1135 868l182 -215l8 234l55 -19v-331q-78 0 -188 165v-161l-51 -11zM1440 545l35 342 l57 14l-16 -332zM1571 567q10 164 125 332q16 8 23 9t18 1q61 0 82 -106l4 -250l-39 14q-27 76 -72 76q-41 0 -78 -76h-63zM1663 715h104l-36 112zM1876 883l184 -215l8 233l54 -16v-334q-76 0 -191 164v-162l-51 -8zM2167 518l41 35l49 -23l-53 -51zM2195 643l13 258 l76 -18l-37 -248zM2220 578v2l4 -5zM2341 541l29 186q135 -168 149 -215z" />
<glyph unicode="&#xb7;" horiz-adv-x="526" d="M-27 647q0 -53 34 -105.5t85 -82.5l35 -35q31 -31 68.5 -50.5t76.5 -19.5q37 0 70 14.5t57.5 40t39 58.5t14.5 70q0 113 -58 170l-47 45q-53 88 -217 112l-14 -4q-25 -18 -50.5 -40.5t-46 -48.5t-34 -56.5t-13.5 -67.5zM0 647q0 31 12.5 58.5t30.5 50t41.5 43.5t46.5 39 q117 -16 170 -67.5t53 -156.5q0 -33 -13 -62.5t-34.5 -51t-50.5 -34.5t-61 -13q-35 0 -70 17t-62.5 45t-45 62.5t-17.5 69.5z" />
<glyph unicode="&#xb8;" horiz-adv-x="393" d="M-27 72q57 0 115.5 -8.5t113 -27t98.5 -48t71 -72.5l39 -39q29 -29 47 -68.5t18 -91.5q0 -31 -4 -53t-14.5 -42.5t-25.5 -41t-40 -49.5l-100 -25q-115 6 -178 70l-43 43q-68 39 -93 125q10 57 49.5 76.5t79.5 32.5q2 0 5.5 1t7.5 1q2 2 8 2q-59 49 -106.5 105t-47.5 110z M0 45q0 -18 17.5 -41.5t43 -50.5t57.5 -53.5t62 -51.5q-20 -12 -48 -18t-54.5 -15.5t-47 -24.5t-26.5 -46q16 -66 72.5 -100.5t134.5 -38.5l92 22q20 25 34.5 43.5t23 37t12.5 39t4 48.5q0 72 -35 120t-89 76.5t-122 41t-131 12.5z" />
<glyph unicode="&#xb9;" horiz-adv-x="456" d="M-27 1372q0 16 12.5 29.5t49.5 48.5q12 12 35.5 34.5t48.5 45.5q4 4 11 10t11 10q102 -78 164 -170q2 -8 2 -14q0 -25 -8 -39t-18.5 -24.5t-16.5 -22.5t-6 -35q0 -8 1 -28.5t2 -47t3 -53t4 -47.5q55 -6 56 -65q0 -20 -20.5 -51t-49.5 -59t-57.5 -48.5t-46.5 -20.5 q-6 0 -19 4l-33 35q-27 27 -49 63t-22 58v307l-7 6v5q-4 0 -6 2l-22 22l6 -4l-2 2q-10 8 -13 23.5t-3 23.5q0 16 12 28.5t47 45.5q16 14 45 40.5t57 55.5q25 -18 45.5 -36.5t38.5 -37.5l60 -59v-2l18 -16q45 -45 74 -88q2 -8 2 -15q0 -23 -7 -36t-17.5 -23t-17.5 -24.5 t-7 -37.5q0 -16 1 -64t5 -87l45 -45h-2q0 2 -2 2l4 -2q14 -14 14 -45q0 -20 -19.5 -49t-47 -56.5t-56 -47t-45.5 -19.5q-10 0 -23.5 9t-27.5 23l-45 43q-16 8 -35.5 28t-36 43.5t-28 46t-11.5 38.5v313l-6 7q-20 8 -28 20l2 2q-8 10 -11.5 23.5t-3.5 21.5zM0 1372 q0 -6 2 -18.5t6 -14.5q4 -6 18.5 -13t20.5 -7v-334q0 -14 11.5 -36.5t27.5 -44t33.5 -37t30.5 -15.5q14 0 38.5 17.5t49 41t42 49t17.5 44.5q0 45 -51 38q-4 8 -7 38t-4.5 63t-2.5 62.5t-1 39.5q0 27 7.5 43.5t16.5 27.5t17.5 21.5t8.5 28.5q0 2 -1 6l-1 4q-47 72 -136 140 q-45 -43 -72.5 -68t-43 -40t-21.5 -22.5t-6 -13.5zM57 1288v6q0 16 12.5 28.5t47.5 45.5q16 14 44.5 41t57.5 55q10 -10 20.5 -17t20.5 -15q10 -12 19.5 -26t19.5 -26q2 -8 2 -14q0 -23 -7 -36t-17.5 -23.5t-17.5 -24.5t-7 -37v-35q0 -23 1 -50t3 -55t4 -42h-14l69 -72 q-4 -23 -25.5 -50.5t-47 -52t-52 -41t-40.5 -16.5q-8 0 -15 3q-14 20 -22.5 39.5t-8.5 33.5v318q16 -4 21 -4zM281 1413l4 -4q-4 0 -4 4z" />
<glyph unicode="&#xba;" horiz-adv-x="675" d="M-27 1036v13q0 33 27 47v331q0 23 30.5 33t71.5 19q10 2 21.5 3t21.5 5q8 2 14.5 3t14.5 3q31 8 57.5 14t36.5 11q4 0 23.5 10t38.5 20q6 4 13 7.5t13 7.5q8 4 15 4q39 -10 67.5 -36t50.5 -61l33 -32q35 -35 57.5 -80t32.5 -82v-68q0 -10 1 -18t1 -16v-25q0 -76 -2 -119 t-13 -67.5t-34.5 -39t-66.5 -34.5q-16 -8 -32.5 -17.5t-39.5 -19.5l-25 -21q-16 -14 -33.5 -28.5t-27.5 -16.5q-8 -2 -18 -2q-16 0 -48 13.5t-67 34t-70 44t-55 46.5l-31 28q-35 25 -56.5 47.5t-21.5 38.5zM0 1036q0 -16 30.5 -41.5t71.5 -50t82 -43t60 -18.5q4 0 9 1l5 1 q2 0 14.5 9t25.5 20.5t25.5 21.5t16.5 12q63 35 98 50.5t52.5 38t21.5 63.5t4 127v24q0 16 -1 36t-1 36v25q-8 25 -20.5 55.5t-31 58t-41 49t-50.5 27.5q-4 -2 -18.5 -9t-30 -15.5t-29.5 -15.5t-19 -7q-16 -6 -57 -15.5t-83 -18.5t-74.5 -17t-32.5 -13v-350q-27 0 -27 -28 v-13zM258 1092v286q12 -4 22.5 -20.5t10.5 -26.5v-260q-10 0 -21.5 5t-11.5 16z" />
<glyph unicode="&#xbb;" horiz-adv-x="1034" d="M-37 469l230 -334h8l71 -72h13q6 0 23.5 30t41 77t50 105.5t51.5 115.5l184 -268h8l72 -72h12q6 0 27.5 36t48 92.5t56.5 123t54.5 129t41 110.5t16.5 66v10l-244 549l-65 66l-9 18h-18q-6 0 -24.5 -21.5t-41 -55t-49 -74.5t-47 -81t-35 -73t-14.5 -51q0 -16 2 -21 q0 -2 4 -6l2 -2q27 -29 78 -78t98 -92q12 -10 24.5 -22t24.5 -23l-151 -116q23 63 22 86v10l-243 549l-66 65l-8 19h-18q-6 0 -24.5 -21.5t-41.5 -55.5t-49.5 -75t-47 -81t-34.5 -72.5t-14 -51.5q0 -12 4 -20h-2l6 -6q0 -2 2 -2q25 -29 76 -78t98 -92q12 -10 24.5 -22.5 t24.5 -22.5zM0 463l258 201q-12 10 -46 40.5t-73 66.5t-74.5 71t-52.5 53q-8 8 1.5 38t27.5 68.5t44 82.5t48.5 79t39.5 56.5t22 17.5l235 -532q4 -10 -9 -55.5t-37 -108t-52.5 -131t-55 -126t-47 -92t-24.5 -30.5zM20 856l27 -27q-8 6 -14.5 13.5t-12.5 13.5zM442 451 l258 200q-12 10 -45.5 41t-72.5 67t-75 70.5t-52 53.5q-8 8 1 37.5t27.5 68.5t44 83t48 79t40 56.5t21.5 17.5l235 -533q4 -10 -9 -56t-36.5 -107.5t-52.5 -130t-55.5 -125t-46 -92.5t-25.5 -31z" />
<glyph unicode="&#xbc;" horiz-adv-x="1304" d="M-27 1372q0 -8 3.5 -21.5t11.5 -23.5l-2 -2q8 -12 28 -20l6 -7v-313q0 -16 11.5 -38.5t28 -46t36 -43t35.5 -28.5l45 -43q14 -14 27.5 -23t23.5 -9q16 0 45 19.5t56.5 47t47 56t19.5 49.5q0 31 -14 45l-45 45q-4 39 -5 87t-1 64q0 23 7 37.5t17.5 24.5t17.5 23.5t7 35.5 q0 6 -2 15q-29 43 -74 88l-18 16v2l-60 59q-18 18 -38.5 37t-45.5 37q-29 -29 -57.5 -55.5t-44.5 -40.5q-35 -33 -47 -45t-12 -29q0 -8 3 -23.5t13 -23.5l2 -2l-6 4l22 -22q2 -2 6 -2v-5l7 -6v-307q0 -23 22.5 -58.5t48.5 -62.5l33 -35q12 -4 19 -4q18 0 46.5 20.5 t57.5 48.5t49.5 58.5t20.5 51.5q0 59 -56 65q-2 20 -4 47t-3 53.5t-2 47t-1 28.5q0 23 6 35t16.5 22.5t18.5 24.5t8 39q0 6 -2 14q-61 92 -164 170q-4 -4 -11 -10t-11 -10q-25 -23 -48.5 -45.5t-35.5 -34.5q-37 -35 -49.5 -48t-12.5 -30zM0 1372q0 6 6 13.5t21.5 22.5t43 40 t72.5 68q88 -68 136 -140l1 -4t1 -6q0 -18 -8.5 -28.5t-17.5 -21.5t-16.5 -27.5t-7.5 -43.5q0 -10 1 -39.5t2.5 -62.5t4.5 -62.5t7 -38.5q51 6 51 -38q0 -18 -17.5 -44t-42 -49.5t-49 -41t-38.5 -17.5q-12 0 -30 15.5t-34 37t-27.5 44t-11.5 36.5v334q-6 0 -20.5 7t-18.5 13 q-4 2 -6 14.5t-2 18.5zM57 1288l68 -67q-4 0 -21 4v-318q0 -14 8.5 -33.5t22.5 -39.5q6 -2 15 -3q14 0 40.5 16.5t52 41t47 52.5t25.5 50l-69 72h14q-2 14 -4 42t-3 55.5t-1 49.5v35q0 23 7 37t17.5 24.5t17.5 23.5t7 36q0 6 -2 14q-10 12 -19.5 25.5t-19.5 26.5 q-10 8 -20.5 15t-20.5 17q-29 -29 -57.5 -55.5t-44.5 -40.5q-35 -33 -47.5 -45t-12.5 -29v-6zM133 201q0 -35 8.5 -75t22.5 -75t33.5 -61.5t40.5 -34.5l57 -57q18 -18 37 -19q31 0 81 26.5t100 64.5t92 82t59 81q14 31 14 55q0 29 -14 43l-48 45q10 31 26.5 70t35.5 84v-149 q0 -23 47 -50l47 -47q16 -18 54 -38.5t77 -41.5l4 -16q4 -23 8.5 -40t10.5 -28q6 -12 6 -20q0 -27 24 -33l66 -65q8 -8 35 -8q31 0 49 24.5t29.5 60t15.5 75.5t6 69v12q4 -4 8 -4q6 -4 12.5 -8t18.5 -4q47 0 47 51v18q0 31 -11 52.5t-28 44.5q-12 16 -22.5 35.5t-10.5 41.5 q0 20 9.5 43t19.5 39q6 14 12.5 25.5t6.5 24.5q0 12 -7 18l-65 66q-2 10 -7 15t-16 11l-125 53q-37 -14 -62.5 -26.5t-45.5 -34.5l-4 4l-8 4h2q-25 16 -52.5 31.5t-48.5 15.5h-2q-4 0 -12 -4q27 59 35 82q27 59 64.5 94t74.5 62q27 18 49.5 35.5t38.5 44.5l27 -25v61 q-14 152 -154 318l-45 43q-8 10 -16.5 21.5t-16.5 21.5q-12 -10 -28.5 -22.5t-32.5 -22.5q-10 -6 -17.5 -12.5t-13.5 -10.5q-102 -72 -165.5 -115.5t-100.5 -70.5t-53.5 -42t-22.5 -28q-8 -12 -12 -34.5t-4 -36.5t4 -21v-2q2 -2 2 -4q4 -8 14 -15t23 -18l8 -8l-281 -676 q-10 -22 -10 -65zM160 182q-4 47 8 74l291 702q-10 0 -31.5 15.5t-26.5 25.5q-2 2 -2 13q0 10 2 21t5.5 21.5t7.5 14.5q6 10 24.5 25.5t61.5 47.5t119.5 86t199.5 140q123 -147 137 -291v-8q0 -6 -5 2t-7 2q-14 -35 -44 -58.5t-65.5 -48t-70.5 -59.5t-59 -92 q-6 -16 -22.5 -56t-38 -91.5t-45.5 -109.5t-44 -109.5t-35.5 -92.5t-19.5 -57q57 14 72.5 -8.5t-5.5 -71.5q-14 -35 -54 -77t-88 -78.5t-95 -61.5t-76 -25q-23 0 -43.5 34t-33.5 79t-17 92zM281 1413q0 -4 4 -4zM618 246h3l57 -58zM705 281v251q0 4 7 19.5t18 32t24.5 29 t23.5 12.5q8 0 28.5 -9.5t40 -21.5t35.5 -22l17 -9q16 29 40 42t58 26l117 -51q8 -4 3 -17.5t-14 -32t-19.5 -42t-10.5 -48.5q0 -27 11.5 -48t24.5 -40.5t24.5 -40t11.5 -45.5v-18q0 -31 -27 -31q-12 0 -19 9.5t-22 9.5q-4 0 -8 -1.5t-8 -1.5q-2 -18 -5 -58t-10.5 -81 t-23.5 -71.5t-43 -30.5q-20 0 -21 8q0 12 -10 37q-2 2 -6 19.5t-8 39t-9 41t-7.5 23.5t-36 20.5t-72.5 36t-71.5 37.5t-32.5 27zM868 322l31 32v135l-14 15l-17 -15v-167z" />
<glyph unicode="&#xbd;" horiz-adv-x="1323" d="M-27 1372q0 16 12.5 29.5t49.5 48.5q12 12 35.5 34.5t48.5 45.5q4 4 11 10t11 10q102 -78 164 -170q2 -8 2 -14q0 -25 -8 -39t-18.5 -24.5t-16.5 -22.5t-6 -35q0 -8 1 -28.5t2 -47t3 -53t4 -47.5q55 -6 56 -65q0 -20 -20.5 -51t-49.5 -59t-57.5 -48.5t-46.5 -20.5 q-6 0 -19 4l-33 35q-27 27 -49 63t-22 58v307l-7 6v5q-4 0 -6 2l-22 22l6 -4l-2 2q-10 8 -13 23.5t-3 23.5q0 16 12 28.5t47 45.5q16 14 45 40.5t57 55.5q25 -18 45.5 -36.5t38.5 -37.5l60 -59v-2l18 -16q45 -45 74 -88q2 -8 2 -15q0 -23 -7 -36t-17.5 -23t-17.5 -24.5 t-7 -37.5q0 -16 1 -64t5 -87l45 -45q14 -14 14 -45q0 -20 -19.5 -49t-47 -56.5t-56 -47t-45.5 -19.5q-10 0 -23.5 9t-27.5 23l-45 43q-16 8 -35.5 28t-36 43.5t-28 46t-11.5 38.5v313l-6 7q-20 8 -28 20l2 2q-8 10 -11.5 23.5t-3.5 21.5zM0 1372q0 -6 2 -18.5t6 -14.5 q4 -6 18.5 -13t20.5 -7v-334q0 -14 11.5 -36.5t27.5 -44t33.5 -37t30.5 -15.5q14 0 38.5 17.5t49 41t42 49t17.5 44.5q0 45 -51 38q-4 8 -7 38t-4.5 63t-2.5 62.5t-1 39.5q0 27 7.5 43.5t16.5 27.5t17.5 21.5t8.5 28.5q0 2 -1 6l-1 4q-47 72 -136 140q-45 -43 -72.5 -68 t-43 -40t-21.5 -22.5t-6 -13.5zM57 1288v6q0 16 12.5 28.5t47.5 45.5q16 14 44.5 41t57.5 55q10 -10 20.5 -17t20.5 -15q10 -12 19.5 -26t19.5 -26q2 -8 2 -14q0 -23 -7 -36t-17.5 -23.5t-17.5 -24.5t-7 -37v-35q0 -23 1 -50t3 -55t4 -42h-14l69 -72q-4 -23 -25.5 -50.5 t-47 -52t-52 -41t-40.5 -16.5q-8 0 -15 3q-14 20 -22.5 39.5t-8.5 33.5v318q16 -4 21 -4zM133 201q0 43 10 65l281 676l-8 8q-12 10 -22.5 17.5t-14.5 15.5q0 2 -2 4v2q-4 6 -4 21q0 14 4 36.5t12 34.5q6 12 22.5 27.5t53.5 42.5t100.5 71t165.5 115q6 4 13.5 10.5 t17.5 12.5q16 10 32.5 22.5t28.5 22.5q8 -10 16.5 -21.5t16.5 -21.5l45 -43q139 -166 154 -318v-61l-27 25q-16 -27 -38.5 -44.5t-49.5 -35.5q-37 -27 -75 -62t-64 -94q-6 -16 -21.5 -53t-36.5 -86q-16 -39 -33.5 -81t-34 -84t-31.5 -80t-28 -69l48 -45q14 -14 14 -43 q0 -25 -14 -55q-16 -37 -58.5 -81t-92.5 -82t-100.5 -64.5t-80.5 -26.5q-18 0 -37 19l-57 57q-20 8 -40 34.5t-34 61.5t-22.5 75t-8.5 75zM160 182q4 -47 17 -92t33.5 -79t43.5 -34q29 0 76 25t95 61.5t88 78.5t54 77q20 49 5 71.5t-72 8.5q4 16 19.5 57t35.5 92.5t44 109.5 t45.5 109.5t37.5 91.5t23 56q25 57 59.5 92t70 59.5t65.5 48t44 58.5q2 6 7 -2t5 -2v8q-14 143 -137 291q-123 -86 -199.5 -140t-119.5 -86t-61.5 -47.5t-24.5 -25.5q-4 -4 -7.5 -14.5t-5.5 -21.5t-2 -21t2 -13q4 -10 26 -25.5t32 -15.5l-291 -702q-12 -27 -8 -74zM281 1413 l4 -4q-4 0 -4 4zM618 246l60 -58l-57 58h-3zM725 279l98 77l-35 37q-27 16 -45 36t-18 42v21q6 6 17.5 28.5t21.5 44.5q12 33 35 66l-2 -2l4 8q8 23 24.5 43t38.5 20q4 0 6 -2h7q12 -4 43.5 -16t66.5 -27q31 -14 59.5 -24t38.5 -15q27 -12 54.5 -30.5t38.5 -46.5l53 -52 q25 -25 24 -53v-98l-92 -88q16 -18 23 -33l53 -51h-2q0 2 -2 2l4 -2q23 -23 23 -43q0 -8 -7 -17q-4 -16 -16 -40.5t-22 -47.5q-6 -14 -13 -28l-8 -13q2 2 0 -3t-6 -9q-10 -16 -27.5 -38.5t-36.5 -22.5h-12q-12 4 -41 10t-61 14q-16 4 -19 4q-2 0 -8 1t-23.5 6.5t-62.5 17.5 q-10 6 -25.5 16.5t-27.5 22.5l-41 39q-23 12 -47.5 35.5t-24.5 60.5zM752 266l8 -135q0 -29 27.5 -50.5t48.5 -31.5q12 -4 40.5 -10t61.5 -14.5t61.5 -14.5t40.5 -10h9q8 0 16 9t15 21.5t13.5 22.5t8.5 13q2 6 11 24.5t19.5 39t18.5 38.5t8 25l2 2t2 4q0 18 -17.5 33.5 t-40 27.5t-45 19.5t-32.5 7.5q-14 0 -20 -6l149 141v90q0 29 -25.5 48.5t-50.5 29.5q-12 4 -41.5 15t-62.5 25.5t-62.5 26t-42.5 15.5q-2 0 -3 1t-5 1q-10 0 -18 -10.5t-14.5 -23.5t-11.5 -23.5t-7 -10.5q-4 -6 -12 -24.5t-18.5 -40t-18.5 -39t-12 -21.5v-10q0 -16 17 -32.5 t39.5 -29t45.5 -19.5t33 -7q14 0 25.5 12.5t20.5 28.5t16 32.5t14 24.5l20 -30zM901 174l86 86q-6 -8 -11 -23.5t-9 -31t-7.5 -28.5t-5.5 -17z" />
<glyph unicode="&#xbe;" horiz-adv-x="1388" d="M-27 1022q0 -27 3.5 -35t25.5 -24h-4q4 -2 9 -6.5t13 -8.5l48 -45l8 -8t12 -8q2 -2 10 -6l2 -2q14 -10 56 -37q37 -27 81 -55.5t60 -36.5h8q4 0 7 -1t7 -1q27 0 66 23.5t76 57.5l-236 -563q-10 -22 -10 -63q0 -35 9 -76t24.5 -78t35 -63.5t40.5 -32.5l55 -55 q18 -18 35 -19q31 0 82 26.5t101 64.5t92 82t59 81q8 16 11 31.5t3 25.5q0 29 -12 41l-50 50q23 63 62 151v-151q0 -10 14.5 -23.5t36.5 -30.5l43 -41q16 -18 53 -38.5t76 -41.5l4 -18q4 -18 9.5 -33.5t9.5 -25.5q8 -20 8 -29q0 -27 24 -33l66 -65q8 -8 33 -8q31 0 50 25.5 t29.5 61t15.5 75.5t7 69v10q4 -4 8 -4q6 -4 12.5 -8t18.5 -4q47 0 47 51v18q0 31 -11 52.5t-28 44.5q-12 16 -22.5 35.5t-10.5 41.5q0 23 9.5 45.5t19.5 38.5q16 29 16 46q0 12 -10 22l-63 61q-4 16 -21 29l-123 53q-37 -14 -62.5 -26.5t-45.5 -34.5l-4 4l-8 4h2 q-25 16 -52.5 31.5t-48.5 15.5h-2q-4 0 -5 -1t-3 -1q10 29 18.5 49.5t12.5 30.5q27 59 64.5 94t74.5 62q25 16 48.5 33.5t39.5 46.5l27 -25v61q-14 150 -156 316l-45 43q-8 10 -16.5 21.5t-16.5 21.5q-31 -20 -63.5 -44t-61.5 -44q-25 -18 -43 -31q-8 -6 -15 -11t-15 -9 q-66 -47 -108 -77t-69 -50v145q0 29 -24 53l-53 51q-10 29 -39 47.5t-52 28.5q-12 6 -44.5 19.5t-68.5 26t-67.5 23.5t-46.5 15h-14q-25 0 -39 -17.5t-25 -35.5q-2 -4 -3 -5t-3 -5l-2 -2q-12 -16 -20.5 -36t-12.5 -36v-2q-4 -8 -8 -17.5t-6 -17.5q6 10 8 2q-6 -12 -6 -16h-6 v-10q0 -23 15.5 -40.5t37.5 -31.5l51 -49q0 -2 1 -3l1 -1l-86 -49q-20 -14 -20 -21q0 -16 37 -37l43 -45q-4 2 -15 2q-4 0 -6 2q-18 6 -32 6q-35 0 -43.5 -16t-8.5 -43zM0 1022q0 14 4 23.5t21 9.5q23 0 41 -9.5t47 -9.5q20 0 54 11.5t50 33.5q-27 8 -61.5 18.5t-65.5 19.5 t-50.5 17.5t-14.5 10.5l149 82l49 -25v123q-8 -16 -18 -37.5t-45 -21.5q-10 0 -33 5t-45.5 16t-39.5 25.5t-17 33.5v6q8 14 19 50t19 50q2 0 8.5 10.5t13.5 22.5t16.5 22.5t19.5 10.5h6q14 -4 47 -15.5t67.5 -24t66.5 -24.5t44 -18q23 -10 51.5 -29.5t28.5 -48.5v-338 q0 -25 -21.5 -55.5t-52 -57t-63.5 -45t-53 -18.5q-6 0 -11.5 1t-7.5 1q-10 4 -37.5 22.5t-58.5 40t-57.5 40t-36.5 24.5q-23 16 -28 21t-5 26zM242 182q-4 47 8 74l293 702q-10 0 -32 15.5t-28 25.5q0 2 1 11.5t3 20.5t4.5 22.5t4.5 15.5q6 10 24.5 26.5t62.5 48.5t119.5 85 t198.5 139q123 -145 139 -291v-8q0 -6 -5 2t-7 2q-16 -35 -46 -58.5t-64.5 -48t-69.5 -59.5t-60 -92q-6 -16 -22 -56t-37.5 -91.5t-46.5 -109.5t-45.5 -109.5t-35.5 -92.5t-19 -57q59 14 74.5 -8.5t-5.5 -71.5q-14 -35 -54 -77t-88 -78.5t-96 -61.5t-77 -25q-20 0 -41 34 t-35 79t-18 92zM788 281v251q0 4 7.5 19.5t18.5 32t24.5 29t23.5 12.5q8 0 28.5 -9.5t40 -21.5t35.5 -22l17 -9q16 29 40 42t58 26l115 -51q8 -4 4 -17.5t-14 -32t-19.5 -42t-9.5 -48.5q0 -27 11.5 -48t24.5 -40.5t24.5 -40t11.5 -45.5v-18q0 -31 -27 -31q-14 0 -20 9.5 t-23 9.5q-2 0 -7 -1.5t-7 -1.5q-2 -18 -5 -58t-11.5 -81t-25 -71.5t-42.5 -30.5q-18 0 -19 8q0 12 -10 37q-2 2 -6 19.5t-9 39t-10.5 41t-7.5 23.5t-34.5 20.5t-71.5 36t-72 37.5t-33 27zM950 322l33 32v135l-14 15l-19 -15v-167z" />
<glyph unicode="&#xbf;" horiz-adv-x="970" d="M-27 322q0 -47 29 -84t66 -62l36 -35q23 -23 51.5 -41t55.5 -28q16 -6 54 -20.5t79 -31.5h2q39 -14 82 -30.5t83 -31.5t73.5 -29.5t54.5 -24.5h4q6 -4 21 -4q16 0 31.5 13t29.5 31.5t24.5 39t18.5 36.5q10 20 12 23q4 12 15 33q12 25 27.5 58.5t31.5 66t30.5 59.5 t20.5 33q4 23 4 24v7q0 37 -41 77l-43 41q-16 33 -53 61.5t-80 51.5l223 180l-204 250l-37 37l-39 45q47 -16 106 -25l15 5q25 18 49 39.5t43.5 46t33 54.5t13.5 66q0 39 -19.5 77t-50.5 69l-34 33q-33 51 -85.5 85.5t-103.5 34.5q-37 0 -70.5 -15t-59.5 -41t-41 -59.5 t-15 -72.5q0 -143 92 -201l49 -47q25 -27 74 -47l-260 -227q-10 -2 -19 -8l-6 -7q-25 -16 -54.5 -35.5t-56 -39t-48 -36t-31.5 -26.5l-183 -180v-188zM0 322v178l174 172q18 18 62.5 49t88.5 61.5t76.5 52t28.5 21.5l201 176l178 -217l-309 -250q14 14 41 15q20 0 65 -14.5 t91 -39t80 -57.5t34 -68q0 -4 -1 -12l-1 -8q-8 -8 -25.5 -43t-37 -76t-37 -79t-23.5 -50q-4 -4 -13 -25.5t-23.5 -46t-31 -44t-32.5 -19.5q-6 0 -9.5 2t-9.5 2q-25 12 -84 35.5t-124.5 48.5t-125 46.5t-83.5 31.5q-23 10 -49.5 25.5t-49 36t-37 44t-14.5 52.5zM348 444 l41 -63q6 14 16.5 37.5t22.5 48.5t27.5 48.5t31.5 39.5zM442 1364q0 33 13.5 62.5t35 51t50 35t61.5 13.5t68 -17.5t63.5 -45t46 -62.5t17.5 -70q0 -33 -12.5 -59.5t-31 -50t-41.5 -43t-46 -37.5q-119 16 -171.5 67.5t-52.5 155.5z" />
<glyph unicode="&#xc0;" horiz-adv-x="1159" d="M-27 518q0 -129 29 -234.5t123 -199.5l25.5 -25.5t29.5 -23.5l27 -25q2 -2 3 -4t5 -4q20 -20 43 -36.5t55 -16.5q41 0 82 43t82 90q16 20 32.5 39.5t31.5 30.5q23 -33 51.5 -66t60.5 -51l37 -35q23 -23 47.5 -37t50.5 -14h35q16 20 42 44.5t57 51.5q35 33 69.5 64.5 t48.5 52.5q4 4 9.5 5t9.5 5q20 10 25.5 18.5t5.5 40.5q0 16 -15.5 41t-32.5 41l-45 45q-12 18 -26.5 34t-22.5 18v252q0 53 1 96t12 102q6 4 13 8t17 11h-2q23 10 41.5 25.5t18.5 51.5q0 41 -31 72l-49 49q-16 37 -55.5 58.5t-77.5 38.5q-4 2 -7 2q-2 0 -6 2q-16 6 -27 11 l-10 5q-29 16 -52 36.5t-42 43.5q-35 35 -65.5 59.5t-75.5 24.5q-33 0 -53.5 -10.5t-42.5 -26.5q-4 -4 -10.5 -8t-16.5 -10q-2 -2 -4 -3q-2 0 -4 -2l2 2q-29 -16 -55.5 -29.5t-49.5 -23.5q-4 -2 -7 -3t-7 -3q-55 -25 -110.5 -52.5t-100.5 -66.5t-76.5 -91t-40.5 -128v-43 q0 -10 -1 -18t-1 -19v-305zM0 518v166v41q0 37 1 67.5t1 67.5v41q10 88 55 145.5t108.5 96.5t135.5 68.5t133 64.5q35 20 56.5 37.5t60.5 17.5q31 0 55.5 -16.5t48 -40l49 -49t56.5 -43.5q18 -14 51 -26.5t63.5 -28t53 -37t22.5 -56.5q0 -23 -9 -34t-22.5 -18t-29 -15.5 t-25.5 -20.5q-12 -68 -13 -118t-1 -115v-82v-33v-90v-16q0 -6 2 -26t6 -42.5t13.5 -39.5t23.5 -17q16 0 25.5 8t25.5 8q4 0 11.5 -8t15.5 -20.5t13 -25t5 -20.5q0 -14 -2 -20t-6 -11.5t-12 -9.5t-23 -14q-12 -16 -43 -45t-64.5 -59.5t-63 -59.5t-42.5 -43h-24q-39 0 -74 34 t-64.5 76t-51 75.5t-34.5 33.5q-23 0 -52 -33.5t-63 -75.5t-69 -76t-67 -34q-29 0 -50.5 17.5t-42.5 37.5q-45 45 -72.5 92.5t-43 98.5t-21.5 107.5t-6 117.5zM240 1763q0 -10 29.5 -53t71.5 -95t85 -99.5t72 -65.5l32 -33q23 -23 39.5 -35t26.5 -12t18 6q12 10 23.5 17.5 t21.5 15.5q35 23 56.5 45.5t34.5 63.5q6 6 6 16q0 12 -8 20l-154 324l-68 66l-8 20l-278 -186v-15zM266 1765l242 160l145 -305l3 -6t-3 -6q-6 -25 -17 -42.5t-28.5 -31.5t-38 -28.5t-45.5 -35.5q-8 -8 -30.5 10.5t-53 50.5t-62.5 71.5t-58.5 75.5t-42 60.5t-11.5 26.5z M393 590q0 -49 2 -101.5t8 -111.5q0 -10 13 -17h6h6q10 10 30.5 35t20.5 39v512l-7 6q-7 6 -15 15q-10 10 -21.5 27.5t-19.5 21.5h-8h-5l-10 -58v-16v-96v-39v-217zM717 1237q4 -4 9 -7t9 -7q-6 4 -14 12z" />
<glyph unicode="&#xc1;" horiz-adv-x="1159" d="M-27 518q0 -129 29 -234.5t123 -199.5l25.5 -25.5t29.5 -23.5l27 -25q2 -2 3 -4t5 -4q20 -20 43 -36.5t55 -16.5q41 0 82 43t82 90q18 20 33.5 39.5t30.5 32.5q23 -35 51.5 -67t60.5 -50l37 -37q23 -23 47.5 -37t50.5 -14h35q16 20 42 44.5t57 51.5q35 33 69.5 64.5 t48.5 52.5q4 4 9.5 5t9.5 5q20 10 25.5 18.5t5.5 40.5q0 16 -15.5 41t-32.5 41l-45 45q-12 18 -26.5 34t-22.5 18v252q0 53 1 96t12 102q6 4 13 8t17 11h-2q23 10 41.5 25.5t18.5 51.5q0 41 -31 72l-49 49q-16 37 -55.5 58.5t-77.5 38.5q-4 2 -7 2q-2 0 -6 2q-16 6 -27 11 l-10 5q-29 16 -52 36.5t-42 43.5q-35 35 -65.5 59.5t-75.5 24.5q-33 0 -53.5 -10.5t-42.5 -26.5q-4 -4 -10.5 -8t-16.5 -10q-2 -2 -4 -3q-2 0 -4 -2l2 2q-29 -16 -55.5 -29.5t-49.5 -23.5q-4 -2 -7 -3t-7 -3q-55 -25 -110.5 -52.5t-100.5 -66.5t-76.5 -91t-40.5 -128v-43 q0 -10 -1 -18.5t-1 -18.5v-305zM0 518v166v41q0 37 1 67.5t1 67.5v41q10 88 55 145.5t108.5 96.5t135.5 68.5t133 64.5q35 20 56.5 37.5t60.5 17.5q31 0 55.5 -16.5t48 -40l49 -49t56.5 -43.5q18 -14 51 -26.5t63.5 -28t53 -37t22.5 -56.5q0 -23 -9 -34t-22.5 -18t-29 -15.5 t-25.5 -20.5q-12 -68 -13 -118t-1 -115v-82v-33v-90v-16q0 -6 2 -26t6 -42.5t13.5 -39.5t23.5 -17q16 0 25.5 8t25.5 8q4 0 11.5 -8t15.5 -20.5t13 -25t5 -20.5q0 -14 -2 -20t-6 -11.5t-12 -9.5t-23 -14q-12 -16 -43 -45t-64.5 -59.5t-63 -59.5t-42.5 -43h-24q-39 0 -74 34 t-64.5 76t-51 75.5t-34.5 33.5q-23 0 -52 -33.5t-63 -75.5t-69 -76t-67 -34q-29 0 -50.5 17.5t-42.5 37.5q-45 45 -72.5 92.5t-43 98.5t-21.5 107.5t-6 117.5zM303 1620q0 -6 2 -8q0 -18 8 -25q14 -37 34 -57.5t46 -38.5l37 -35q10 -10 22.5 -20.5t28.5 -20.5 q10 -8 22.5 -18.5t26.5 -20.5q6 -6 19 -6q12 0 36.5 21.5t55.5 55.5t62.5 73t58 73.5t43 60t16.5 32.5v12l-71 71v11l-281 184l-160 -334q-4 -6 -4 -12zM332 1614l2 6l145 305l244 -160q2 -2 -13.5 -27.5t-42 -60.5t-58 -74.5t-61.5 -71.5t-52.5 -50.5t-30.5 -10.5 q-25 20 -46.5 35t-37.5 29t-28.5 31.5t-18.5 42.5q-4 0 -2 6zM393 590q0 -49 2 -101.5t8 -111.5q0 -10 13 -17h6h6q10 10 30.5 35t20.5 39v512l-7 6t-15 15q-10 10 -21.5 27.5t-19.5 21.5h-8h-5l-10 -58v-16v-96v-39v-217zM717 1237q8 -4 14 -10l4 -4q-6 4 -14 12z" />
<glyph unicode="&#xc2;" horiz-adv-x="1159" d="M-51 1561q0 -6 14 -19.5t37 -32.5l43 -41q18 -18 63.5 -50t95.5 -63.5t96 -54t69 -22.5q14 0 24 10q14 14 38 40t50.5 55.5t53 60.5t47.5 53l125 -166l6 4l73 -73l301 217q2 2 -4 8l-67 67v5q0 6 -34 28.5t-87 52t-116.5 62.5t-123 60.5t-105.5 46t-63 18.5q-2 0 -3 -1 t-3 -1h-6l-524 -246v-18zM-27 518q0 -129 29 -234.5t123 -199.5l25.5 -25.5t29.5 -23.5l27 -25h-2l4 -4q0 -4 6 -4q20 -20 43 -36.5t55 -16.5q41 0 82 43t82 90q18 20 33.5 39.5t30.5 32.5q23 -35 51.5 -67t60.5 -50l37 -37q23 -23 47.5 -37t50.5 -14h35q16 20 42 44.5 t57 51.5q35 33 69.5 64.5t48.5 52.5q4 4 9.5 5t9.5 5q20 10 25.5 18.5t5.5 40.5q0 16 -15.5 41t-32.5 41l-45 45q-12 18 -26.5 34t-22.5 18v252q0 53 1 96t12 102q6 4 13 8t17 11h-2q23 10 41.5 25.5t18.5 51.5q0 41 -31 72l-49 49q-16 37 -55.5 58.5t-77.5 38.5q-4 2 -7 2 q-2 0 -6 2q-16 6 -27 11l-10 5q-29 16 -52 36.5t-42 43.5q-35 35 -65.5 59.5t-75.5 24.5q-33 0 -53.5 -10.5t-42.5 -26.5q-4 -4 -10.5 -8t-16.5 -10q-2 -2 -4 -3q-2 0 -4 -2l2 2q-29 -16 -55.5 -29.5t-49.5 -23.5q-4 -2 -7 -3t-7 -3q-55 -25 -110.5 -52.5t-100.5 -66.5 t-76.5 -91t-40.5 -128v-43q0 -10 -1 -18.5t-1 -18.5v-305zM-25 1563l504 235q8 4 51 -9t102.5 -36.5t125 -53.5t120 -56.5t88 -46t29.5 -23.5l-284 -205l-193 258q-10 -12 -38.5 -45t-62.5 -72t-67 -74.5t-51 -54.5q-8 -8 -35.5 1.5t-65.5 29t-79 44t-74 47t-53.5 40 t-16.5 21.5zM0 518v166v41q0 37 1 67.5t1 67.5v41q10 88 55 145.5t108.5 96.5t135.5 68.5t133 64.5q35 20 56.5 37.5t60.5 17.5q31 0 55.5 -16.5t48 -40l49 -49t56.5 -43.5q18 -14 51 -26.5t63.5 -28t53 -37t22.5 -56.5q0 -23 -9 -34t-22.5 -18t-29 -15.5t-25.5 -20.5 q-12 -68 -13 -118t-1 -115v-82v-33v-90v-16q0 -6 2 -26t6 -42.5t13.5 -39.5t23.5 -17q16 0 25.5 8t25.5 8q4 0 11.5 -8t15.5 -20.5t13 -25t5 -20.5q0 -14 -2 -20t-6 -11.5t-12 -9.5t-23 -14q-12 -16 -43 -45t-64.5 -59.5t-63 -59.5t-42.5 -43h-24q-39 0 -74 34t-64.5 76 t-51 75.5t-34.5 33.5q-23 0 -52 -33.5t-63 -75.5t-69 -76t-67 -34q-29 0 -50.5 17.5t-42.5 37.5q-45 45 -72.5 92.5t-43 98.5t-21.5 107.5t-6 117.5zM137 80l15 -14q-9 6 -15 14zM197 18l8 -8q-4 2 -5 4t-3 4zM393 590q0 -49 2 -101.5t8 -111.5q0 -10 13 -17h6h6 q10 10 30.5 35t20.5 39v512l-7 6t-15 15q-10 10 -21.5 27.5t-19.5 21.5h-8h-5l-10 -58v-16v-96v-39v-217zM717 1237q8 -4 14 -10l4 -4q-6 4 -14 12z" />
<glyph unicode="&#xc3;" horiz-adv-x="1159" d="M-68 1610q0 -4 31 -25l57 -57q12 -12 66.5 -42t124.5 -62.5t138.5 -60.5t111.5 -36l-6 -6q-4 -4 -10.5 -8t-16.5 -10q-2 -2 -4 -3q-2 0 -4 -2l2 2q-29 -16 -55.5 -29.5t-49.5 -23.5q-4 -2 -7 -3t-7 -3q-55 -25 -110.5 -52.5t-100.5 -66.5t-76.5 -91t-40.5 -128v-43 q0 -10 -1 -18.5t-1 -18.5v-305q0 -129 29 -234.5t123 -199.5l25.5 -25.5t29.5 -23.5l27 -25q2 -2 3 -4t5 -4q20 -20 43 -36.5t55 -16.5q41 0 82 43t82 90q16 20 32.5 39.5t31.5 30.5q23 -35 51.5 -67t60.5 -50l37 -35q23 -23 47.5 -37t50.5 -14h35q16 20 42 44.5t57 51.5 q35 33 69.5 64.5t48.5 52.5q4 4 9.5 5t9.5 5q20 10 25.5 18.5t5.5 40.5q0 16 -15.5 41t-32.5 41l-45 45q-12 18 -26.5 34t-22.5 18v252q0 53 1 96t12 102q6 4 13 8t17 11h-2q23 10 41.5 25.5t18.5 51.5q0 41 -31 72l-49 49q-16 37 -55.5 58.5t-77.5 38.5q-4 2 -7 2 q-2 0 -6 2q-16 6 -27 11l-10 5q-29 16 -52 36.5t-42 43.5q-35 35 -65.5 59.5t-75.5 24.5h-4q10 10 21.5 17t21.5 18q16 14 31.5 21t29.5 24l160 -123l319 219v12l-8 6q2 0 2 -2h2l-67 68v6q0 6 -30 23.5t-76 42t-102 50t-109.5 48t-97.5 37t-66 14.5q-6 0 -12.5 -2t-10.5 -4 v4q-41 -35 -65.5 -65.5t-45.5 -59.5q-4 -4 -8 -12l-176 151l-328 -227v-14zM-41 1612l299 205l182 -156q23 29 51.5 70t71.5 77q8 8 47 -1t92.5 -28.5t114 -45t109.5 -49t79.5 -41t26.5 -21.5l-299 -205l-164 129q-23 -25 -62.5 -55.5t-78.5 -65.5q-8 -8 -47 1.5t-92 29 t-113.5 45t-110 49t-80 41t-26.5 21.5zM0 518v166v41q0 37 1 67.5t1 67.5v41q10 88 55 145.5t108.5 96.5t135.5 68.5t133 64.5q35 20 56.5 37.5t60.5 17.5q31 0 55.5 -16.5t48 -40l49 -49t56.5 -43.5q18 -14 51 -26.5t63.5 -28t53 -37t22.5 -56.5q0 -23 -9 -34t-22.5 -18 t-29 -15.5t-25.5 -20.5q-12 -68 -13 -118t-1 -115v-82v-33v-90v-16q0 -6 2 -26t6 -42.5t13.5 -39.5t23.5 -17q16 0 25.5 8t25.5 8q4 0 11.5 -8t15.5 -20.5t13 -25t5 -20.5q0 -14 -2 -20t-6 -11.5t-12 -9.5t-23 -14q-12 -16 -43 -45t-64.5 -59.5t-63 -59.5t-42.5 -43h-24 q-39 0 -74 34t-64.5 76t-51 75.5t-34.5 33.5q-23 0 -52 -33.5t-63 -75.5t-69 -76t-67 -34q-29 0 -50.5 17.5t-42.5 37.5q-45 45 -72.5 92.5t-43 98.5t-21.5 107.5t-6 117.5zM393 590q0 -49 2 -101.5t8 -111.5q0 -10 13 -17h6h6q10 10 30.5 35t20.5 39v512l-7 6t-15 15 q-10 10 -21.5 27.5t-19.5 21.5h-8h-5l-10 -58v-16v-96v-39v-217zM717 1237q8 -4 14 -10l4 -4q-6 4 -14 12z" />
<glyph unicode="&#xc4;" horiz-adv-x="1159" d="M-27 518q0 -129 29 -234.5t123 -199.5l25.5 -25.5t29.5 -23.5l27 -25q2 -2 3 -4t5 -4q20 -20 43 -36.5t55 -16.5q41 0 82 43t82 90q18 20 33.5 39.5t30.5 32.5q23 -35 51.5 -67t60.5 -50l37 -37q23 -23 47.5 -37t50.5 -14h35q16 20 42 44.5t57 51.5q35 33 69.5 64.5 t48.5 52.5q4 4 9.5 5t9.5 5q20 10 25.5 18.5t5.5 40.5q0 16 -15.5 41t-32.5 41l-45 45q-12 18 -26.5 34t-22.5 18v252q0 53 1 96t12 102q6 6 13 9t15 8q23 10 41.5 25.5t18.5 53.5q0 41 -31 72l-49 49q-16 37 -55.5 58.5t-77.5 38.5q-41 12 -68 34q-23 12 -40 29.5t-34 34.5 q-33 35 -65.5 60.5t-77.5 25.5q-33 0 -53.5 -10.5t-42.5 -26.5q-4 -4 -10.5 -8t-16.5 -10q-2 -2 -4 -3q-2 0 -4 -2l2 2q-29 -16 -55.5 -29.5t-49.5 -23.5q-4 -2 -7 -3t-7 -3q-55 -25 -110.5 -52.5t-100.5 -66.5t-76.5 -91t-40.5 -128v-43q0 -10 -1 -18.5t-1 -18.5v-305z M0 518v166v41q0 37 1 67.5t1 67.5v41q10 88 55 145.5t108.5 96.5t135.5 68.5t133 64.5q35 20 56.5 37.5t60.5 17.5q31 0 55.5 -16.5t48 -40l49 -49t56.5 -43.5q18 -14 51 -26.5t63.5 -28t53 -37t22.5 -56.5q0 -23 -9 -34t-22.5 -19t-29 -15.5t-25.5 -19.5q-12 -68 -13 -118 t-1 -115v-82v-33v-90v-16q0 -6 2 -26t6 -42.5t13.5 -39.5t23.5 -17q16 0 25.5 8t25.5 8q4 0 11.5 -8t15.5 -20.5t13 -25t5 -20.5q0 -14 -2 -20t-6 -11.5t-12 -9.5t-23 -14q-12 -16 -43 -45t-64.5 -59.5t-63 -59.5t-42.5 -43h-24q-39 0 -74 34t-64.5 76t-51 75.5t-34.5 33.5 q-23 0 -52 -33.5t-63 -75.5t-69 -76t-67 -34q-29 0 -50.5 17.5t-42.5 37.5q-45 45 -72.5 92.5t-43 98.5t-21.5 107.5t-6 117.5zM43 1653q0 -53 34 -103.5t83 -83.5l37 -36q31 -31 68.5 -50.5t76.5 -19.5q37 0 69.5 14.5t57.5 40t39 58t14 69.5q0 113 -57 170l-47 45 q-53 88 -217 113l-15 -4q-25 -18 -50 -41t-45.5 -48.5t-34 -56t-13.5 -67.5zM70 1653q0 31 12 58.5t30.5 50t42 43t46.5 38.5q119 -16 171 -67.5t52 -155.5q0 -33 -13.5 -62.5t-35 -51t-50 -35t-61.5 -13.5q-35 0 -68.5 17.5t-62.5 45t-46 62.5t-17 70zM393 590 q0 -49 2 -101.5t8 -111.5q0 -10 13 -17h6h6q6 6 14.5 15.5t16.5 20t14 21.5t6 17v512l-7 6t-15 15q-10 10 -21.5 27.5t-19.5 21.5h-8h-5l-10 -58v-16v-96v-39v-217zM551 1655q0 -53 33.5 -103.5t83.5 -83.5l37 -36q31 -31 68.5 -50.5t76.5 -19.5q37 0 69.5 14.5t57 40t39 58 t14.5 69.5q0 113 -57 170l-47 45q-53 88 -217 113l-15 -4q-25 -18 -50.5 -41t-45.5 -48.5t-33.5 -56t-13.5 -67.5zM578 1655q0 31 12 58.5t30.5 50t42 43t46.5 38.5q119 -16 171 -67.5t52 -155.5q0 -33 -13.5 -62.5t-35 -51t-50 -35t-61.5 -13.5q-35 0 -68.5 17.5t-62.5 45 t-46 62.5t-17 70z" />
<glyph unicode="&#xc5;" horiz-adv-x="1159" d="M-27 518v305q0 10 1 18.5t1 18.5v43q8 76 40 128t77 91t100.5 67t110.5 52q4 2 7 3t7 3q23 10 49.5 23.5t55.5 29.5l-2 -2q2 2 4 2t4 3q10 6 16.5 10t10.5 8t8 6t8 6q-47 18 -91 43t-63 45l-51 49q-43 31 -43 46v8q0 29 29 41v237q33 12 52.5 19.5t34.5 12.5t30.5 8 t44.5 9q37 6 67.5 11.5t44.5 9.5q4 0 18.5 4t30 9t29.5 11.5t19 10.5q53 -10 91 -40t60 -65l37 -37q25 -23 40 -50t23 -52v-45q0 -6 1.5 -12.5t1.5 -12.5v-20q0 -57 -2.5 -89t-14.5 -50.5t-36.5 -28.5t-67.5 -25q-14 -4 -28.5 -9t-31.5 -11h2q2 -2 -16 -10.5t-29 -14.5 q-4 -4 -8 -6l-8 -4q14 -10 27.5 -23.5l27.5 -27.5q18 -23 42 -43.5t52 -36.5l10 -5q11 -5 27 -11q4 -2 6 -2t7 -2q39 -16 77.5 -38t55.5 -59l49 -49q31 -31 31 -72q0 -37 -18.5 -52t-41.5 -25h2q-10 -6 -17 -10.5t-13 -8.5q-10 -59 -11.5 -102t-1.5 -96v-252 q8 -2 22.5 -17.5t26.5 -34.5l45 -45q16 -16 32 -40.5t16 -41.5q0 -33 -5.5 -41t-25.5 -18q-4 -4 -9.5 -5t-9.5 -5q-14 -20 -49 -52t-69 -65q-31 -27 -56.5 -51.5t-42.5 -44.5h-35q-27 0 -51 14t-47 37l-37 35q-33 18 -61.5 51t-50.5 66q-14 -10 -30.5 -30t-33.5 -40 q-41 -47 -82 -90t-82 -43q-33 0 -55 16.5t-43 36.5q-6 0 -6 4l-4 4h2l-27 25q-16 10 -29.5 23.5l-25.5 25.5q-94 94 -123 199.5t-29 234.5zM0 518q0 -61 6 -117.5t21.5 -107.5t43 -98.5t72.5 -92.5q20 -20 42 -37.5t51 -17.5q33 0 67.5 34t68.5 76t63.5 75.5t51.5 33.5 q12 0 34 -33.5t51.5 -75.5t64.5 -76t74 -34h24q12 14 42 43t63.5 59.5t64.5 59.5t43 45q14 10 22.5 14t12.5 9.5t6 11.5t2 20q0 8 -5 20.5t-13 25t-15.5 20.5t-11.5 8q-16 0 -25.5 -8t-25.5 -8q-14 0 -23.5 17t-13.5 39.5t-6 42t-2 26.5v16v90v33v82q0 66 1 116t13 117 q10 12 25.5 20.5t29 15.5t22.5 18.5t9 33.5q0 35 -22.5 56.5t-53 37t-63.5 27.5t-51 27q-31 18 -56.5 43.5l-49 49t-48 40t-55.5 16.5q-39 0 -60.5 -17.5t-56.5 -37.5q-61 -35 -133 -64.5t-135.5 -68.5t-108.5 -96.5t-55 -145.5v-41q0 -37 -1 -67.5t-1 -67.5v-41v-166z M137 80q6 -8 15 -14zM197 18q2 -2 3 -4t5 -4zM250 1516q0 -10 30.5 -30t72.5 -38t84 -31.5t65 -13.5q4 0 9 1l5 1q2 0 14.5 6t25.5 14.5t25.5 16.5t18.5 10q66 25 101.5 36t53 26.5t20.5 45t3 91.5v20q0 12 -1 25.5t-1 25.5v19q-6 18 -18.5 40.5t-30.5 42t-41.5 34 t-54.5 20.5q-4 -4 -18.5 -9t-31 -10.5t-30.5 -9.5t-19 -4q-16 -4 -58 -11t-85 -14.5t-76.5 -13.5t-33.5 -8v-254q-29 0 -29 -20v-8zM393 590v217v39v96v16l10 58h5h8q8 -4 19 -21.5t22 -27.5l15 -15l7 -6v-512q0 -14 -20.5 -38.5t-30.5 -35.5h-6h-6q-13 7 -13 17 q-6 59 -8 111.5t-2 101.5zM516 1556v205q12 -4 22.5 -15t10.5 -15v-191q-10 0 -21.5 4t-11.5 12zM719 1235l12 -8q-4 2 -6 4t-6 4z" />
<glyph unicode="&#xc6;" horiz-adv-x="1734" d="M-27 518q0 -129 29 -234.5t123 -199.5l25.5 -25.5t29.5 -23.5l27 -25q2 -2 3 -4t5 -4q20 -20 43 -36.5t55 -16.5q41 0 82 43t82 90q18 20 33.5 39.5t30.5 32.5q23 -35 51.5 -67t60.5 -50l37 -37q23 -23 47.5 -37t50.5 -14h33q10 10 35 34.5t53 51.5q66 -59 134.5 -96 t130.5 -37q25 0 70.5 23.5t102 60.5t114 82t105.5 88t77.5 79.5t29.5 55.5q0 35 -16 51l-62 59q-14 45 -84 45q-29 0 -55 -6t-51 -14q-18 -6 -38.5 -11t-49.5 -5q-27 0 -61.5 8t-65.5 24v9q0 29 17.5 51t46 40.5t64.5 35t75 32.5q45 18 90 40t80.5 47.5t57 60.5t21.5 82 q0 20 -4 41v6l-231 364l-55 56l-29 45l-1 -6q-1 -7 -3 -5q-6 4 -13.5 6.5t-13.5 6.5t-11 7l-5 3q-12 4 -14 6h-25q-31 0 -81 -15.5t-110.5 -40t-124 -58t-118.5 -70.5q-2 2 -2 4l-6 3t-17 7h2q-27 16 -49 34.5t-39 39.5q-35 35 -65.5 59.5t-75.5 24.5q-33 0 -53.5 -10.5 t-42.5 -26.5q-4 -4 -10.5 -8t-16.5 -10q-2 -2 -4 -3q-2 0 -4 -2l2 2q-29 -16 -55.5 -29.5t-49.5 -23.5q-4 -2 -7 -3t-7 -3q-55 -25 -110.5 -52.5t-100.5 -66.5t-76.5 -91t-40.5 -128v-43q0 -10 -1 -18t-1 -19v-305zM0 518v207q0 37 1 67.5t1 67.5v41q10 88 55 145.5 t108.5 96.5t135.5 68.5t133 64.5q35 20 56.5 37.5t60.5 17.5q31 0 55.5 -16.5t48 -40l49 -49t56.5 -43.5q8 -8 19.5 -13.5t23.5 -11.5q53 37 116.5 71t124 59.5t111.5 40.5t82 15h16q12 -6 37 -17t27 -13l223 -352q0 -2 2 -17.5t2 -25.5q0 -53 -33.5 -90t-84 -65 t-108.5 -50.5t-108.5 -48t-84 -57.5t-33.5 -79q0 -35 24.5 -61.5t59 -45t73.5 -28.5t68 -10t52.5 6t45 12.5t45 12.5t51.5 6q29 0 46.5 -11.5t17.5 -39.5q0 -18 -28.5 -52t-75 -75t-101.5 -84t-108.5 -78t-97.5 -57.5t-68 -22.5q-59 0 -129 40t-136 99q-33 -29 -58 -54.5 t-38 -37.5h-24q-39 0 -74 34t-64.5 76t-51 75.5t-34.5 33.5q-23 0 -52 -33.5t-63 -75.5t-69 -76t-67 -34q-29 0 -50.5 17.5t-42.5 37.5q-45 45 -72.5 92.5t-43 98.5t-21.5 107.5t-6 117.5zM137 80l15 -14q-9 6 -15 14zM393 590q0 -49 2 -101.5t8 -111.5q0 -10 13 -17h12 q10 10 30.5 35t20.5 39v512l-7 6q-7 6 -15 15q-10 10 -21.5 27.5t-19.5 21.5h-13l-10 -58v-368zM725 1231q4 -4 6 -4q2 -2 2 -4l2 -2zM1061 737l15 7q14 6 32 15t33.5 20.5t15.5 21.5q0 2 -12 26.5t-19 36.5q-4 4 -14 18.5t-20.5 30t-19.5 29.5t-11 19v-224z" />
<glyph unicode="&#xc7;" horiz-adv-x="1036" d="M-27 352q0 -31 15.5 -67.5t42 -73.5t61.5 -72t74 -65l14 -15q33 -35 70 -61.5t74 -46.5q20 -25 42.5 -47.5t45.5 -44.5q-4 -2 -8.5 -3t-8.5 -3q-41 -12 -80 -32t-49 -77q20 -82 90 -125l45 -45q33 -33 78 -48t101 -20l98 25q25 27 41 48.5t25.5 41t13.5 43t4 53.5 q0 59 -20.5 104.5t-55.5 80.5l-37 37q-16 20 -35 41q4 2 6.5 4t6.5 2q37 25 77.5 51t77.5 51t66 44.5t41 29.5q4 4 12 8q18 12 30.5 21.5t18.5 19.5t9.5 24.5t3.5 38.5q0 18 -5.5 36t-17.5 30l-6 4h2l-53 51q-8 20 -24.5 33.5t-45.5 13.5t-49.5 -5t-40.5 -11q-4 -2 -6 -2 t-6 -2q-18 -6 -37 -10t-35 -4q-23 0 -57.5 7t-67.5 21v318q2 -2 4 -2t6 -2l47 -48q37 -37 82 -36q25 0 76 16t103.5 43t91.5 62.5t39 76.5v13q0 4 -2 12q-6 10 -26 47t-41.5 80t-39.5 82t-25 53l-6 6q-8 8 -14 23q-10 18 -24.5 40.5t-30.5 39.5l-39 38q-16 29 -40 50.5 t-52 21.5q-2 0 -3.5 -1t-3.5 -1h-14q-27 -10 -89 -32.5t-132 -47t-132.5 -47t-88.5 -31.5q-27 -12 -58.5 -29.5t-60.5 -42t-48.5 -54t-19.5 -62.5v-670zM0 352v670q0 29 16.5 53.5t41 45t52 35.5t50.5 26q27 8 90 30.5t134 48t133.5 48t88.5 32.5q4 0 8 1t9 1q20 0 37.5 -19 t33 -43t25.5 -44t16 -23q6 -14 24.5 -52t39 -80t39 -77.5t24.5 -46.5l1 -6t1 -10q0 -37 -36.5 -68.5t-85 -56t-96.5 -39t-71 -14.5q-35 0 -60.5 24.5t-43.5 57.5t-31.5 64.5t-23.5 47.5v-446q0 -33 25.5 -57.5t61.5 -41t73.5 -24.5t62.5 -8q49 0 89 17.5t85 17.5 q29 0 40 -20.5t11 -43.5q0 -41 -12 -54t-53 -42q-16 -12 -54 -39t-85.5 -57.5t-96.5 -63.5t-86 -57q78 -31 132.5 -91.5t54.5 -152.5q0 -29 -3.5 -49t-11.5 -38.5t-22.5 -37t-36.5 -43.5l-90 -22q-80 4 -135.5 38.5t-71.5 100.5q6 31 26.5 46t46 24.5t53 15.5t48.5 18 q-43 37 -89 83t-75 89q-49 20 -102.5 59.5t-98.5 86.5t-73.5 96t-28.5 90z" />
<glyph unicode="&#xc8;" horiz-adv-x="1069" d="M-27 416q0 -43 18.5 -90t49.5 -94.5t72 -91.5t88 -79l10 -8q66 -66 142.5 -109.5t142.5 -43.5q23 0 69.5 23.5t102 60t114 82t105.5 88.5t77.5 79.5t30.5 55.5q0 35 -16 51l-61 59q-14 45 -84 45q-29 0 -55.5 -6t-51.5 -14q-18 -6 -38.5 -11t-49.5 -5q-27 0 -61.5 8 t-65.5 24v9q0 27 17.5 49t45 41.5t63.5 36t75 32.5q45 18 90 40t81 47.5t57.5 59t21.5 81.5q0 8 -1 19t-1 19v11l-232 364l-53 51l-17 29q-10 8 -13 9t-13 5l-7 3.5t-8 3.5q-10 4 -17 9t-15 9h-29q-31 0 -86 -16.5t-119.5 -45t-132 -66.5t-122 -80t-89.5 -86t-35 -83v-575z M0 416v575q0 37 33 78t85 80t116.5 73.5t126 61.5t114.5 42t82 15h18q12 -8 37 -18t27 -12l223 -353q0 -2 1 -18t1 -27q0 -53 -33.5 -89t-83 -63.5t-108.5 -50t-108.5 -48t-83 -58.5t-33.5 -78q0 -35 24.5 -61.5t59 -45t73.5 -28.5t68 -10t52.5 6t45 12.5t45 12.5t52.5 6 t46 -11.5t17 -39.5q0 -18 -29.5 -52t-74.5 -75t-101.5 -84t-110 -78t-97.5 -57.5t-66 -22.5q-63 0 -136 42t-135.5 104.5t-104.5 135t-42 136.5zM178 1767q0 -10 30 -53t72 -94t85 -99t71 -67l33 -31q23 -23 40 -36t28 -13q10 0 16 6h2q16 14 27.5 23.5t15.5 13.5 q33 25 56.5 47.5t33.5 59.5q6 6 6 14q0 12 -8 21l-154 323l-67 66l-8 20l-279 -186v-15zM205 1769l241 160l146 -305l3 -6t-3 -6q-12 -47 -46 -71.5t-83 -65.5q-8 -8 -30.5 11t-52.5 51t-62.5 72t-59.5 74.5t-42 59t-11 26.5zM383 735l15 7q14 6 32.5 15t33.5 20t15 22 q0 2 -12 26.5t-21 36.5q-4 4 -14 18.5t-20.5 30t-18.5 29.5t-10 18v-223z" />
<glyph unicode="&#xc9;" horiz-adv-x="1069" d="M-27 416q0 -43 18.5 -90t49.5 -94.5t72 -91.5t88 -79l10 -8q66 -66 142.5 -109.5t142.5 -43.5q23 0 69.5 23.5t102 60t114 82t105.5 88.5t77.5 79.5t30.5 55.5q0 35 -16 51l-61 59q-14 45 -84 45q-29 0 -55.5 -6t-51.5 -14q-18 -6 -38.5 -11t-49.5 -5q-27 0 -61.5 8 t-65.5 24v9q0 27 17.5 49t45 41.5t63.5 36t75 32.5q45 18 90 40t81 47.5t57.5 59t21.5 81.5q0 8 -1 19t-1 19v11l-232 364l-53 51l-17 29q-10 8 -13 9t-13 5l-7 3.5t-8 3.5q-10 4 -17 9t-15 9h-29q-31 0 -86 -16.5t-119.5 -45t-132 -66.5t-122 -80t-89.5 -86t-35 -83v-575z M0 416v575q0 37 33 78t85 80t116.5 73.5t126 61.5t114.5 42t82 15h18q12 -8 37 -18t27 -12l223 -353q0 -2 1 -18t1 -27q0 -53 -33.5 -89t-83 -63.5t-108.5 -50t-108.5 -48t-83 -58.5t-33.5 -78q0 -35 24.5 -61.5t59 -45t73.5 -28.5t68 -10t52.5 6t45 12.5t45 12.5t52.5 6 t46 -11.5t17 -39.5q0 -18 -29.5 -52t-74.5 -75t-101.5 -84t-110 -78t-97.5 -57.5t-66 -22.5q-63 0 -136 42t-135.5 104.5t-104.5 135t-42 136.5zM254 1620q0 -6 2 -8q0 -18 8 -25q14 -37 33.5 -57.5t46.5 -38.5l37 -35q10 -10 22.5 -20.5t28.5 -20.5q10 -8 22.5 -18.5 t26.5 -20.5q6 -6 19 -6q10 0 34.5 21.5t55.5 54.5t62.5 71.5t58 73.5t44 61.5t17.5 33.5v12l-72 71v11l-280 184l-160 -334q-4 -6 -4 -12zM283 1614l2 6l145 305l244 -160q2 -4 -13.5 -28.5t-42 -60.5t-59.5 -75.5t-62.5 -71.5t-52 -49.5t-28.5 -9.5q-25 20 -46.5 35t-38 29 t-28.5 31.5t-18 42.5q-4 0 -2 6zM383 735l15 7q16 6 34.5 16t32.5 20t14 21q0 2 -12 26.5t-21 36.5q-4 4 -13 17.5t-19.5 30t-19.5 30.5t-11 18v-223z" />
<glyph unicode="&#xca;" horiz-adv-x="1069" d="M-139 1587q0 -8 43 -41l49 -49q16 -18 63 -50t100.5 -62.5t103.5 -54t75 -23.5q12 0 24 8h3q8 6 25.5 24.5t40 43t47 52t46.5 52.5q10 12 20.5 23.5t18.5 21.5l135 -170l7 4l73 -74l324 219v13q0 2 -4 6l-68 67v5q0 6 -37 27.5t-93 50t-124.5 59t-131 56.5t-112 42 t-65.5 16h-12l-551 -247v-19zM-113 1589l531 238q10 4 55 -9.5t107.5 -38t131 -53t126 -55t92.5 -47t31 -25.5l-299 -202l-203 258q-12 -12 -43 -46t-66 -73t-68.5 -75t-52.5 -52q-8 -8 -37.5 1t-68.5 27.5t-83 43t-79 47t-56.5 40t-17.5 21.5zM-27 416q0 -43 18.5 -90 t49.5 -94.5t72 -91.5t88 -79l10 -8q66 -66 142.5 -109.5t142.5 -43.5q23 0 69.5 23.5t102 60t114 82t105.5 88.5t77.5 79.5t30.5 55.5q0 35 -16 51l-61 59q-14 45 -84 45q-29 0 -55.5 -6t-51.5 -14q-18 -6 -38.5 -11t-49.5 -5q-27 0 -61.5 8t-65.5 24v9q0 27 17.5 49 t45 41.5t63.5 36t75 32.5q45 18 90 40t81 47.5t57.5 59t21.5 81.5q0 8 -1 19t-1 19v11l-232 364l-53 51l-17 29q-10 8 -13 9t-13 5l-7 3.5t-8 3.5q-10 4 -17 9t-15 9h-29q-31 0 -86 -16.5t-119.5 -45t-132 -66.5t-122 -80t-89.5 -86t-35 -83v-575zM0 416v575q0 37 33 78 t85 80t116.5 73.5t126 61.5t114.5 42t82 15h18q12 -8 37 -18t27 -12l223 -353q0 -2 1 -18t1 -27q0 -53 -33.5 -89t-83 -63.5t-108.5 -50t-108.5 -48t-83 -58.5t-33.5 -78q0 -35 24.5 -61.5t59 -45t73.5 -28.5t68 -10t52.5 6t45 12.5t45 12.5t52.5 6t46 -11.5t17 -39.5 q0 -18 -29.5 -52t-74.5 -75t-101.5 -84t-110 -78t-97.5 -57.5t-66 -22.5q-63 0 -136 42t-135.5 104.5t-104.5 135t-42 136.5zM383 735l15 7q16 6 34.5 16t32.5 20t14 21q0 2 -12 26.5t-21 36.5q-4 4 -13 17.5t-19.5 30t-19.5 30.5t-11 18v-223z" />
<glyph unicode="&#xcb;" horiz-adv-x="1069" d="M-27 416v575q0 39 35 83t89.5 86t122 80t132 66.5t119.5 45t86 16.5h29q8 -4 15 -9t17 -9q4 -2 7.5 -3t7.5 -4q10 -4 13 -5t13 -9l17 -29l53 -51l232 -364v-11q0 -8 1 -19t1 -19q0 -45 -21.5 -79t-56.5 -60.5t-80 -47t-90 -39.5q-39 -16 -75 -32.5t-64.5 -35t-46 -42 t-17.5 -51.5v-9q31 -16 65.5 -24t61.5 -8q29 0 49.5 5t38.5 11q25 8 51.5 14t55.5 6q70 0 84 -45l61 -59q16 -16 16 -51q0 -18 -30.5 -54t-77.5 -79t-105.5 -89.5t-114 -83t-101.5 -60t-70 -23.5q-66 0 -143 44t-142 109l-10 8q-47 35 -88 79t-72 91.5t-49.5 94.5t-18.5 90z M-27 1659q0 37 13.5 67.5t34 57t46 49t50.5 41.5l14 4q84 -14 137.5 -41t81.5 -76l45 -43q57 -57 58 -170q0 -37 -14.5 -69.5t-39 -58t-57.5 -40t-70 -14.5q-39 0 -76.5 19.5t-68.5 50.5l-35 34q-51 31 -85 83.5t-34 105.5zM0 416q0 -63 42 -136t104.5 -135.5t135 -104.5 t136.5 -42q23 0 66.5 22.5t97 57.5t110 78t101.5 84t74.5 75.5t29.5 51.5q0 29 -17.5 40t-45.5 11q-29 0 -52.5 -6t-45 -12.5t-45 -12.5t-52.5 -6t-68 10t-73.5 28.5t-59 45.5t-24.5 61q0 47 33.5 79t83 57.5t108.5 48t108.5 50t83 63.5t33.5 89q0 10 -1 26.5t-1 18.5 l-223 353q-2 2 -26.5 12t-37.5 18h-18q-29 0 -82 -15t-114.5 -42t-126 -61.5t-116.5 -73.5t-85 -80t-33 -78v-575zM0 1659q0 -35 17.5 -70t45 -62.5t62.5 -45t70 -17.5q33 0 61.5 13.5t50 35t34.5 51t13 62.5q0 104 -53 156.5t-170 68.5q-45 -37 -88 -83t-43 -109zM383 735 v223q2 -4 10 -18t18.5 -29.5t20.5 -30t14 -18.5q8 -12 20.5 -36.5t12.5 -26.5q0 -10 -15 -21.5t-33.5 -20.5t-32.5 -15zM518 1659q0 37 13.5 67.5t34 57t46 49t50.5 41.5l14 4q164 -25 217 -111l47 -47q57 -57 57 -172q0 -37 -14 -69.5t-38.5 -58t-57.5 -40t-70 -14.5 q-39 0 -77 19.5t-68 50.5l-37 37q-49 33 -83 83t-34 103zM545 1659q0 -35 17.5 -70t46 -62.5t62.5 -45t68 -17.5q33 0 61.5 13.5t50 35t35 51t13.5 62.5q0 104 -52 156.5t-171 68.5q-45 -37 -88 -83t-43 -109z" />
<glyph unicode="&#xcc;" horiz-adv-x="786" d="M-27 889q0 4 1 10t10 14l231 232q10 10 26.5 22.5t45.5 12.5q23 0 42 -9.5t44 -33.5l227 -228q4 -12 4 -14l68 -66q6 -16 7 -19t1 -11q0 -33 -13.5 -51.5t-34 -39t-36.5 -44t-16 -70.5q0 -12 1 -41t4 -65.5t6 -75.5t7 -74q29 -12 37 -39l59 -57q20 -20 21 -64 q0 -31 -38 -78t-90 -92t-105.5 -76.5t-82.5 -31.5q-23 0 -55.5 22.5t-64.5 54.5l-25 23q-29 20 -58.5 51t-53 62.5t-39 61.5t-15.5 48v525l-55 55q-10 2 -15 8q-16 10 -30.5 35.5t-14.5 42.5zM2 895q-8 -8 5 -30.5t28 -33.5q4 -4 15 -9t23.5 -10t24 -9t17.5 -4v-576 q0 -23 23.5 -60.5t56 -74.5t67.5 -63.5t60 -26.5q27 0 77 29.5t98 70.5t83.5 85t35.5 73q0 80 -102 63q-4 18 -9 68.5t-10.5 107t-9.5 107.5t-4 70q0 47 15.5 73.5t35 46t35 38t15.5 47.5q0 6 -2 12l-2 6l-224 223q-20 20 -35.5 27.5t-31.5 7.5q-29 0 -42.5 -16.5 t-19.5 -18.5zM49 1616v16l281 185l10 -25l66 -63l155 -326q4 -8 4 -17q0 -14 -6 -20q-10 -37 -32.5 -56.5t-53.5 -41.5q-10 -8 -22.5 -18.5t-26.5 -20.5q-8 -6 -18 -6t-27 12t-39 35l-33 33q-29 18 -73 66t-84.5 100.5t-70.5 95.5t-30 51zM76 1618q-4 -2 12 -26.5t42 -60.5 t57.5 -76t61.5 -71.5t53.5 -50t31.5 -10.5q25 20 46 34.5t37.5 29t29 32t18.5 41.5q4 0 2 6l-2 7l-146 305z" />
<glyph unicode="&#xcd;" horiz-adv-x="786" d="M-27 889q0 -16 14.5 -42t30.5 -36q4 -6 15 -8l55 -55v-525q0 -18 15.5 -48t39 -61.5t53 -62.5t58.5 -51l25 -23q33 -33 65.5 -55t54.5 -22q29 0 82.5 31.5t105.5 76.5t90 92t38 78q0 43 -21 64l-59 57q-8 27 -37 39q-4 35 -7 74t-6 75.5t-4 65.5t-1 41q0 47 16 70.5 t36.5 44t34 39t13.5 51.5q0 8 -1 11t-7 19l-68 66q0 2 -4 14l-227 228q-25 25 -44.5 34t-41.5 9q-29 0 -45.5 -12.5t-26.5 -22.5l-231 -232q-8 -8 -9.5 -14t-1.5 -10zM2 895l223 223q6 2 19.5 18.5t42.5 16.5q16 0 31.5 -7t35.5 -28l224 -223l2 -6t2 -12q0 -29 -15.5 -47.5 t-35 -38t-35 -46t-15.5 -73.5q0 -18 4 -69.5t9.5 -108t10.5 -106.5t9 -69q102 16 102 -63q0 -29 -35.5 -73t-83.5 -85t-98.5 -70.5t-76.5 -29.5q-25 0 -60 26.5t-67.5 63.5t-56 75t-23.5 60v576q-6 0 -17.5 4t-24 9t-23.5 10t-15 9q-14 10 -27.5 33t-5.5 31zM70 1475 q0 -6 2 -9q0 -12 6 -18q14 -37 36.5 -58.5t53.5 -43.5l29 -29q10 -10 23 -21.5t30 -23.5q6 -4 17.5 -13.5t27.5 -23.5v2q8 -8 18 -8t35 21.5t55.5 54t63.5 71.5t59.5 74t44 60.5t17.5 33.5v12l-72 72v10l-280 185l-160 -334q-4 -8 -4 -16zM98 1472l2 7l146 305l243 -160 q4 -2 -11 -26.5t-41.5 -60.5t-60.5 -76t-63.5 -71.5t-52 -50t-29.5 -10.5q-49 41 -83.5 65.5t-47.5 71.5q-4 0 -2 6z" />
<glyph unicode="&#xce;" horiz-adv-x="786" d="M-240 1436q0 -6 16.5 -21.5t43.5 -36.5l37 -37q18 -18 59 -48.5t87 -60.5t88 -51.5t65 -21.5q16 0 26 10q12 12 34 37t46.5 52.5t49 57.5t44.5 52l113 -156l6 5l74 -74l285 213q0 4 -5 8l-67 68q2 4 -27.5 25.5t-78 51t-106.5 63.5t-114.5 61.5t-101.5 46t-66 18.5 q-16 0 -24 -6l-484 -238v-18zM-213 1438l471 231q10 6 50 -7t94.5 -35.5t115 -52.5t110.5 -56.5t81.5 -46t29.5 -23.5l-264 -199l-180 250q-10 -12 -37 -45t-58.5 -69.5t-62.5 -71.5t-47 -51q-8 -8 -34.5 1t-60.5 26.5t-72 42t-69.5 46t-50 39t-16.5 21.5zM-27 889 q0 -16 14.5 -42t30.5 -36q4 -6 15 -8l55 -55v-525q0 -18 15.5 -48t39 -61.5t53 -62.5t58.5 -51l25 -23q33 -33 65.5 -55t54.5 -22q29 0 82.5 31.5t105.5 76.5t90 92t38 78q0 43 -21 64l-59 57q-8 27 -37 39q-4 35 -7 74t-6 75.5t-4 65.5t-1 41q0 47 16 70.5t36.5 44t34 39 t13.5 51.5q0 8 -1 11t-7 19l-68 66q0 2 -4 14l-227 228q-25 25 -44.5 34t-41.5 9q-29 0 -45.5 -12.5t-26.5 -22.5l-231 -232q-8 -8 -9.5 -14t-1.5 -10zM2 895l223 223q6 2 19.5 18.5t42.5 16.5q16 0 31.5 -7t35.5 -28l224 -223l2 -6t2 -12q0 -29 -15.5 -47.5t-35 -38 t-35 -46t-15.5 -73.5q0 -18 4 -69.5t9.5 -108t10.5 -106.5t9 -69q102 16 102 -63q0 -29 -35.5 -73t-83.5 -85t-98.5 -70.5t-76.5 -29.5q-25 0 -60 26.5t-67.5 63.5t-56 75t-23.5 60v576q-6 0 -17.5 4t-24 9t-23.5 10t-15 9q-14 10 -27.5 33t-5.5 31z" />
<glyph unicode="&#xcf;" horiz-adv-x="786" d="M-145 1503q0 37 13 68t33.5 57.5t46 49t50.5 40.5l14 4q164 -25 217 -112l47 -45q57 -57 58 -170q0 -37 -14.5 -70t-39 -58.5t-57.5 -40t-69 -14.5q-39 0 -78 19.5t-70 50.5l-41 41q-47 33 -78.5 82t-31.5 98zM-119 1503q0 -35 17.5 -68.5t46 -61t62.5 -45t69 -17.5 q33 0 61.5 13t50 34.5t35 51.5t13.5 63q0 104 -52.5 155.5t-171.5 67.5q-45 -37 -88 -83t-43 -110zM-27 889q0 4 1 10t10 14l231 232q10 10 26.5 22.5t45.5 12.5q23 0 42 -9.5t44 -33.5l227 -228q4 -12 4 -14l68 -66q6 -16 7 -19t1 -11q0 -33 -13.5 -51.5t-34 -39t-36.5 -44 t-16 -70.5q0 -14 1 -43t4 -64.5t6 -74.5t7 -74q29 -12 37 -39l59 -57q20 -20 21 -64q0 -31 -38 -78t-90 -92t-105.5 -76.5t-82.5 -31.5q-23 0 -55.5 22.5t-64.5 54.5l-25 23q-29 20 -58.5 51t-53 62.5t-39 61.5t-15.5 48v525l-55 55q-10 2 -15 8q-16 10 -30.5 35.5 t-14.5 42.5zM2 895q-8 -8 5 -30.5t28 -33.5q4 -4 15 -9t23.5 -10t24 -9t17.5 -4v-576q0 -23 23.5 -60.5t56 -74.5t67.5 -63.5t60 -26.5q27 0 77 29.5t98 70.5t83.5 85t35.5 73q0 80 -102 63q-4 18 -10 68.5t-11.5 107t-8.5 106.5t-3 71q0 47 15.5 73.5t35 46t35 38 t15.5 47.5q0 6 -2 12l-2 6l-224 223q-20 20 -35.5 27.5t-31.5 7.5q-29 0 -42.5 -16.5t-19.5 -18.5zM344 1507q0 37 13.5 68t34 56.5t46 48t49.5 40.5l15 4q164 -25 217 -112l47 -45q57 -57 57 -170q0 -37 -14 -70t-39 -58.5t-57.5 -40t-69.5 -14.5q-39 0 -77 19.5t-68 50.5 l-37 37q-49 33 -83 83t-34 103zM371 1507q0 -35 17.5 -69.5t46 -62t62 -45t68.5 -17.5q33 0 61.5 13t50 34.5t35 51.5t13.5 63q0 104 -52 155.5t-171 67.5q-23 -18 -46.5 -39t-42 -43.5t-30.5 -50t-12 -58.5z" />
<glyph unicode="&#xd0;" horiz-adv-x="1388" d="M-16 637q0 -6 24 -21l62 -59q8 -8 41.5 -23.5t83 -34t107.5 -37t116 -30.5v-67q-23 -18 -50.5 -50t-27.5 -59q0 -4 17.5 -20.5t45.5 -38.5l31 -31q20 -23 79.5 -66t124 -88t120 -77.5t69.5 -32.5q12 0 55.5 19.5t98.5 49t116.5 67.5t112 76t84 71.5t33.5 56.5v575 q0 18 -10 44t-26.5 52.5t-37 53t-41.5 47.5l-8 6l2 -2l-14 16q-23 29 -46.5 54.5t-45.5 41.5h4q-14 8 -46 24.5t-73 37t-87 43t-87 43.5l2 2q27 18 51.5 49t24.5 96l-72 72v12q-80 0 -154.5 -9t-133 -38.5t-93.5 -85t-35 -147.5q0 -98 46.5 -168t117.5 -125h-147v-193 l-82 29l-352 -129v-6zM2 623l334 122l108 -36v200h209q-94 57 -159.5 132t-65.5 188q0 82 30.5 132t81 77.5t116 36t135.5 8.5q0 -37 -16.5 -59.5t-37 -38t-37 -29t-16.5 -31.5q0 -2 1 -7t1 -7q23 -10 78 -37t116.5 -57.5t115 -58.5t73.5 -40q20 -10 48 -36.5t52.5 -60.5 t42 -67.5t17.5 -58.5v-576q0 -20 -32 -51.5t-81 -67.5t-107.5 -71t-111.5 -63.5t-94 -47t-53 -18.5q-10 0 -43 17.5t-75 44t-89 58.5t-86 60.5t-64.5 49t-25.5 26.5q0 10 9 24.5t21.5 28t25.5 25.5t21 18v162q-57 6 -135 22.5t-147.5 35t-116.5 32.5t-43 19zM813 383l64 -64 v480l-64 63v-479z" />
<glyph unicode="&#xd1;" horiz-adv-x="1423" d="M-27 1055q0 -35 13.5 -52.5t29.5 -25.5l60 -57q4 -8 11 -11.5t17 -7.5v-506q-4 -2 -5 -4t-5 -6q-10 -10 -23.5 -22.5t-25.5 -24.5t-22.5 -24.5t-12.5 -18.5l-2 -6v-8q0 -27 24.5 -55.5t41.5 -45.5l6 -8l61 -53l21 -21l227 -196h43q4 0 36 22.5t74 53t86 64.5t72 56l7 6 q23 -25 47 -49t51 -43l18 -18q41 -41 85 -70.5t67 -29.5q10 0 26 6q2 0 7 1l6 1l260 196q16 12 22 17q33 25 44.5 40t11.5 54t-29 67l-53 52q-6 16 -19 28v514q10 8 21.5 22.5t21 31t15.5 31t6 22.5t-1 10t-7 8l-64 64q0 8 -10 18l-8 8q-10 10 -25.5 26.5t-30.5 27.5 l-133 98q-4 2 -17 15.5t-30.5 30.5t-35 34.5t-27.5 30.5h-2l297 202v13l-72 71v6q0 6 -29.5 24.5t-77 43.5t-103.5 50.5t-110.5 48t-98.5 37t-64 14.5q-10 0 -18.5 -4.5t-12.5 -8.5q-31 -29 -55.5 -59.5t-44.5 -56.5q-4 -8 -9 -13l-176 152l-327 -226v-14q0 -6 32 -26 l56 -56q8 -10 41.5 -28.5t80 -42t99.5 -47t102 -44t90 -33t60 -12.5q16 0 26 11q16 16 37 31.5t41 31.5q14 12 27.5 23.5t25.5 21.5l113 -92q-51 -10 -104.5 -50t-102.5 -87q-16 -16 -36.5 -33.5t-43.5 -32.5q-10 12 -21 24.5t-22 26.5l-26 27q-39 49 -87.5 88t-103.5 39 h-22q-43 -20 -86 -53t-84 -71t-77 -78t-63 -72v-15q0 -4 -1 -6t-1 -6v-12zM0 1055q0 8 1 18t1 12q25 31 57.5 68t71.5 73t79 66.5t81 48.5h16q39 0 75 -23.5t66.5 -58t55 -73.5t41.5 -68q35 18 77 56t87 75t89 65.5t85 28.5q2 0 8 -1l6 -1q2 -2 20.5 -21.5t40 -43t41 -41.5 t25.5 -21l129 -96q8 -6 19.5 -16t20.5 -20.5t17 -18.5l7 -8q0 -8 -7.5 -22.5t-16.5 -30t-20.5 -27.5t-19.5 -17v-575q37 -12 68.5 -32.5t31.5 -63.5q0 -18 -3 -29.5t-11 -21t-21.5 -18.5t-33.5 -25l-254 -193q-4 0 -14.5 -4t-18.5 -4q-18 0 -53 21.5t-69 53t-59.5 66.5 t-25.5 60v765l-49 33l-31 -33v-639q6 -8 17.5 -31.5t13.5 -31.5v-18v-15l-31 -30q-29 -23 -71.5 -56t-82.5 -63.5t-70 -52t-32 -21.5h-32l-224 193q-6 6 -18 17t-23.5 25.5t-18.5 28t-3 23.5q2 6 15 20.5t29.5 29.5t32 28.5t19.5 17.5v575q0 25 -20.5 29t-45 7t-45 13.5 t-20.5 47.5zM49 1630l299 203l182 -154q23 29 52.5 70t70.5 78q8 8 47 -2t92.5 -29.5t114 -44.5t109.5 -48.5t79.5 -42t26.5 -22.5l-299 -202l-161 127q-23 -23 -64 -54.5t-80 -66.5q-8 -8 -47 2t-92 29.5t-113.5 44t-110 48t-80 42t-26.5 22.5zM1001 1260l17 -15q-4 4 -8 7 t-9 8zM1249 1051l7.5 -7.5l7.5 -7.5z" />
<glyph unicode="&#xd2;" d="M-25 307q0 -25 28 -58.5t75 -68.5l28 -28q41 -41 105.5 -85t132.5 -81t128 -61.5t95 -24.5h15q4 0 18 2q12 4 45 30.5t64 53.5q18 16 33.5 28.5t21.5 16.5h2q45 25 81 43t66 35q80 39 123 66.5t64.5 74.5t25.5 129t4 229v47q0 16 -1 35t-1 37v127q-20 76 -60 161 t-105 150l-29 27q-39 53 -88 92t-109 55q-8 -6 -35.5 -21t-59.5 -30.5t-58.5 -29t-34.5 -15.5q-35 -16 -111 -33.5t-157 -33.5q-49 -10 -95.5 -21.5t-81 -23t-56 -22.5t-21.5 -24v-682q-29 -8 -40.5 -26.5t-11.5 -46.5v-23zM2 307v23q0 23 11.5 38t39.5 15v702q0 6 31 15.5 t79 21t106.5 23.5t113.5 24.5t100 23.5t68 21q8 2 35.5 15.5t59.5 29t59.5 31t35.5 21.5q57 -16 104.5 -58.5t83.5 -96.5t61.5 -114.5t39.5 -115.5v-49q0 -35 1 -72t1 -72v-47q0 -115 -2 -188.5t-12 -119.5t-31.5 -72.5t-61.5 -50.5t-100.5 -52.5t-146.5 -75.5 q-6 -4 -29.5 -23.5t-50.5 -42t-50.5 -41t-29.5 -20.5l-10 -1q-10 -1 -19 -1q-29 0 -74.5 16.5t-100 43t-109.5 61.5t-100.5 68.5t-74 65.5t-28.5 54zM197 1720q0 -8 30.5 -52t73.5 -97t87 -101.5t71 -64.5l33 -31q23 -23 38 -35t25 -12t16 6h2q16 14 27.5 23.5t17.5 13.5 q33 25 55.5 46.5t35.5 56.5q4 4 4 18q0 8 -4 16l-156 326l-66 63l-10 25l-280 -184v-17zM223 1722l244 160l145 -305l2 -6t-2 -6q-12 -47 -47 -72t-84 -66q-8 -8 -30.5 11.5t-52 51.5t-62.5 72t-58.5 74.5t-42 59t-12.5 26.5zM518 416q0 -20 21.5 -29.5t42.5 -9.5v518 q0 20 -21.5 51t-42.5 45v-575zM946 1180l8 -9z" />
<glyph unicode="&#xd3;" d="M-25 307q0 -25 28 -58.5t75 -68.5l28 -28q41 -41 105.5 -85t132.5 -81t128 -61.5t95 -24.5h8q4 0 19 2q27 10 59.5 36.5t65.5 53.5l47 39q45 25 81 43t66 35q80 39 123 66.5t64.5 74.5t25.5 129t4 229v47q0 16 -1 35t-1 37v127q-20 78 -62 163t-108 150l-22 23 q-41 53 -92 94t-113 59q-8 -12 -36.5 -28.5t-60.5 -32.5t-59.5 -28.5t-33.5 -14.5q-27 -12 -101.5 -29.5t-158.5 -33.5q-49 -10 -95.5 -21.5t-81 -23t-56 -22.5t-21.5 -24v-682q-29 -8 -40.5 -26.5t-11.5 -46.5v-23zM2 307v23q0 23 11.5 38t39.5 15v702q0 6 31 15.5t79 21 t106.5 23.5t113.5 24.5t100 23.5t68 21q6 2 34.5 14.5t60.5 28t60.5 31t34.5 23.5q57 -16 103.5 -58.5t83.5 -96.5t62.5 -114.5t39.5 -115.5v-49q0 -35 1 -72t1 -72v-47q0 -115 -2 -188.5t-12 -119.5t-31.5 -72.5t-61.5 -50.5t-100.5 -52.5t-146.5 -75.5q-6 -4 -28.5 -23.5 t-49.5 -42t-50.5 -41t-31.5 -20.5l-10 -1t-19 -1q-29 0 -74.5 16.5t-100 43t-109.5 61.5t-100.5 68.5t-74 65.5t-28.5 54zM311 1536q0 -10 6 -16q14 -43 35 -64.5t51 -44.5l37 -37q10 -10 22.5 -20.5t29.5 -20.5q4 -4 13 -10t34 -29q2 0 7 -1t7 -1q12 0 37.5 21.5t55.5 55.5 t62.5 73t58.5 73.5t43 60.5t17 32v12l-71 72v8l-279 186l-158 -327q-8 -8 -8 -23zM339 1538l3 6l145 303l242 -159q2 -2 -13.5 -27t-42 -59.5t-58 -74.5t-61.5 -72t-52.5 -50.5t-30.5 -11.5q-49 41 -83 65.5t-46 73.5q-6 0 -3 6zM518 416q0 -20 21.5 -29.5t42.5 -9.5v518 q0 20 -21.5 51t-42.5 45v-575z" />
<glyph unicode="&#xd4;" d="M-41 1606q0 -4 12.5 -16.5t32.5 -28.5l47 -45q18 -18 64.5 -50t100.5 -64t103.5 -55.5t73.5 -23.5q16 0 27 10q20 20 58 62.5t77 83.5q33 39 63 69l136 -172l6 4l74 -73l323 223v12q0 2 -2 4l-70 70v4q0 6 -36.5 27.5t-93 49t-125 58.5t-131 56.5t-110.5 42t-67 16.5h-12 l-551 -246v-18zM-25 307q0 -25 28 -58.5t75 -68.5l28 -28q41 -41 105.5 -85t132.5 -81t128 -61.5t95 -24.5h8q4 0 19 2q27 10 59.5 36.5t65.5 53.5l47 39q45 25 81 43t66 35q80 39 123 66.5t64.5 74.5t25.5 129t4 229v47q0 16 -1 35t-1 37v127q-20 78 -62 163t-108 150 l-22 23q-41 53 -92 94t-113 59q-8 -12 -36.5 -28.5t-60.5 -32.5t-59.5 -28.5t-33.5 -14.5q-27 -12 -101.5 -29.5t-158.5 -33.5q-49 -10 -95.5 -21.5t-81 -23t-56 -22.5t-21.5 -24v-682q-29 -8 -40.5 -26.5t-11.5 -46.5v-23zM-14 1608l530 235q10 4 55 -9t107.5 -36.5 t131.5 -53.5t126 -56.5t92 -46t31 -23.5l-299 -205l-203 258q-12 -12 -43 -45t-65.5 -71.5t-68.5 -74.5t-52 -55q-8 -8 -38 1.5t-69 28t-83 44t-78.5 48t-56 40t-17.5 21.5zM2 307v23q0 23 11.5 38t39.5 15v702q0 6 31 15.5t79 21t106.5 23.5t113.5 24.5t100 23.5t68 21 q6 2 34.5 14.5t60.5 28t60.5 31t34.5 23.5q57 -16 103.5 -58.5t83.5 -96.5t62.5 -114.5t39.5 -115.5v-49q0 -35 1 -72t1 -72v-47q0 -115 -2 -188.5t-12 -119.5t-31.5 -72.5t-61.5 -50.5t-100.5 -52.5t-146.5 -75.5q-6 -4 -28.5 -23.5t-49.5 -42t-50.5 -41t-31.5 -20.5 l-10 -1t-19 -1q-29 0 -74.5 16.5t-100 43t-109.5 61.5t-100.5 68.5t-74 65.5t-28.5 54zM518 416q0 -20 21.5 -29.5t42.5 -9.5v518q0 20 -21.5 51t-42.5 45v-575z" />
<glyph unicode="&#xd5;" d="M-41 1606q0 -6 29 -25l59 -59q8 -10 42 -28.5t79 -41t98 -46.5t102.5 -43.5t89.5 -31.5t60 -12q18 0 29 10q16 16 35.5 31.5t42.5 32.5q16 12 26.5 20t26.5 23l160 -125l319 219v12l-72 72v6q0 6 -29.5 23.5t-76.5 42t-103.5 50t-110.5 48t-98 37t-65 14.5q-14 0 -20 -6 v4q-41 -35 -65.5 -65.5t-45.5 -59.5q-4 -4 -8 -12l-176 149l-328 -225v-14zM-25 307q0 -25 28 -58.5t75 -68.5l28 -28q41 -41 105.5 -85t132.5 -81t128 -61.5t95 -24.5h8q4 0 19 2q27 10 59.5 36.5t65.5 53.5l47 39q45 25 81 43t66 35q80 39 123 66.5t64.5 74.5t25.5 129 t4 229v47q0 16 -1 35t-1 37v127q-20 78 -62 163t-108 150l-22 23q-41 53 -92 94t-113 59q-8 -12 -36.5 -28.5t-60.5 -32.5t-59.5 -28.5t-33.5 -14.5q-27 -12 -101.5 -29.5t-158.5 -33.5q-49 -10 -95.5 -21.5t-81 -23t-56 -22.5t-21.5 -24v-682q-29 -8 -40.5 -26.5 t-11.5 -46.5v-23zM-14 1608l299 202l182 -153q23 29 51.5 69.5t71.5 77.5q8 8 47 -2t92 -29.5t112.5 -44t109.5 -48t81 -41t27 -21.5l-299 -205l-162 127q-23 -23 -63.5 -53.5t-79.5 -65.5q-8 -8 -47 1.5t-93.5 28.5t-114 44t-108.5 48.5t-79.5 42t-26.5 22.5zM2 307v23 q0 23 11.5 38t39.5 15v702q0 6 31 15.5t79 21t106.5 23.5t113.5 24.5t100 23.5t68 21q6 2 34.5 14.5t60.5 28t60.5 31t34.5 23.5q57 -16 103.5 -58.5t83.5 -96.5t62.5 -114.5t39.5 -115.5v-49q0 -35 1 -72t1 -72v-47q0 -115 -2 -188.5t-12 -119.5t-31.5 -72.5t-61.5 -50.5 t-100.5 -52.5t-146.5 -75.5q-6 -4 -28.5 -23.5t-49.5 -42t-50.5 -41t-31.5 -20.5l-10 -1t-19 -1q-29 0 -74.5 16.5t-100 43t-109.5 61.5t-100.5 68.5t-74 65.5t-28.5 54zM518 416q0 -20 21.5 -29.5t42.5 -9.5v518q0 20 -21.5 51t-42.5 45v-575z" />
<glyph unicode="&#xd6;" d="M-25 307v23q0 29 11.5 47t40.5 26v682q0 12 21.5 23.5t56 23t80.5 22.5t96 22q82 16 157.5 33.5t110.5 33.5q8 2 34.5 15.5t58.5 29t59.5 30.5t35.5 21q59 -16 108.5 -55t88.5 -92l29 -27q66 -66 105.5 -150.5t59.5 -160.5v-127q0 -18 1 -36.5t1 -35.5v-47 q0 -147 -4 -229t-25.5 -129t-64.5 -75t-123 -66q-31 -16 -66.5 -35t-80.5 -43h-2q-6 -4 -21.5 -16.5t-33.5 -28.5q-31 -27 -64 -53.5t-45 -30.5q-14 -2 -18 -2h-15q-33 0 -94 24.5t-129 61.5t-132.5 82t-105.5 86l-22 22q-47 37 -78 72t-31 59zM2 307q0 -35 60.5 -87 t142.5 -101t163 -85t121 -36q8 0 19 1l10 1q6 2 29.5 20.5t50.5 41t50.5 42t29.5 23.5q86 47 146.5 75.5t100.5 52.5t61.5 50.5t31.5 72.5t12 119.5t2 188.5v47q0 35 -1 72t-1 72v49q-14 55 -39.5 115.5t-61.5 114.5t-83 96t-105 59q-8 -6 -35.5 -21.5t-59.5 -31 t-59.5 -28.5t-35.5 -16q-23 -10 -68 -21t-100 -23.5t-113.5 -24.5t-106.5 -23.5t-79 -20.5t-31 -16v-702q-29 0 -40 -15.5t-11 -37.5v-23zM12 1620q0 37 13.5 67.5t34 56t46 48.5t50.5 41l14 4q164 -25 217 -113l47 -45q57 -57 58 -170q0 -37 -14.5 -69.5t-39 -58t-57.5 -40 t-70 -14.5q-39 0 -76.5 19.5t-68.5 50.5l-37 37q-49 33 -83 83t-34 103zM39 1620q0 -35 17.5 -69.5t46 -62.5t62.5 -45.5t68 -17.5q33 0 62 13.5t50.5 35t34.5 51t13 62.5q0 104 -52 155.5t-171 67.5q-23 -18 -46.5 -38.5t-42 -43t-30.5 -50t-12 -58.5zM518 416v575 q20 -14 42 -45t22 -51v-518q-20 0 -42 9t-22 30zM612 1622q0 37 13.5 67.5t34 57.5t46 49.5t50.5 40.5l14 4q84 -14 137.5 -40.5t81.5 -76.5l45 -43q57 -57 58 -170q0 -37 -14.5 -69.5t-39 -58t-57.5 -40t-70 -14.5q-39 0 -76.5 19.5t-68.5 50.5l-35 35q-51 31 -85 83 t-34 105zM639 1622q0 -35 17.5 -69.5t45 -62.5t62.5 -45.5t70 -17.5q33 0 61.5 13.5t50 35t34.5 51t13 62.5q0 104 -53 157t-170 69q-45 -37 -88 -83t-43 -110z" />
<glyph unicode="&#xd7;" horiz-adv-x="868" d="M96 866q0 -10 12.5 -35.5t33 -61.5t47 -79t53.5 -88l-121 -270q-10 -35 -10 -45q0 -16 14 -17h2l70 -69q8 -8 37.5 16.5t70.5 52.5q35 25 78 56.5t86 60.5l25 -25q23 -23 50 -41t55 -30t51.5 -18.5t35.5 -6.5h6q16 0 19.5 7.5t3.5 17.5v8l-84 170q47 37 55 57 q10 31 15.5 45.5t9.5 24.5q14 35 22 61.5t8 51.5q0 18 -2 26q-2 6 -6 15l-65 63v4q-4 16 -12.5 18.5t-18.5 2.5h-16l-218 -127l-270 184q-29 0 -33 -3t-4 -26zM125 868l281 -190l225 133h6q4 0 4 -2q8 -43 -11 -86t-42 -113q-2 -12 -60 -57l88 -180v-4q0 -4 -2 -4 q-10 -2 -38.5 6t-61.5 24.5t-64.5 42t-48.5 56.5q-45 -29 -91 -62t-84 -60.5t-61.5 -44t-21.5 -12.5l129 289q-31 49 -59.5 96.5t-50 84t-32.5 60t-5 23.5z" />
<glyph unicode="&#xd8;" d="M-25 307q0 -25 28 -58.5t75 -68.5l28 -28q41 -41 105.5 -85t132.5 -81t128 -61.5t95 -24.5h8q4 0 19 2q27 10 59.5 36.5t65.5 53.5l47 39q45 25 81 43t66 35q80 39 123 66.5t64.5 74.5t25.5 129t4 229v47q0 16 -1 35t-1 37v127q-20 78 -62 163t-108 150l-22 23 q-41 53 -92 94t-113 59q-8 -12 -36.5 -28.5t-60.5 -32.5t-59.5 -28.5t-33.5 -14.5q-27 -12 -101.5 -29.5t-158.5 -33.5q-49 -10 -95.5 -21.5t-81 -23t-56 -22.5t-21.5 -24v-682q-29 -8 -40.5 -26.5t-11.5 -46.5v-23zM2 307v23q0 23 11.5 38t39.5 15v702q0 6 31 15.5t79 21 t106.5 23.5t113.5 24.5t100 23.5t68 21q6 2 34.5 14.5t60.5 28t60.5 31t34.5 23.5q57 -16 103.5 -58.5t83.5 -96.5t62.5 -114.5t39.5 -115.5v-49q0 -35 1 -72t1 -72v-47q0 -115 -2 -188.5t-12 -119.5t-31.5 -72.5t-61.5 -50.5t-100.5 -52.5t-146.5 -75.5q-6 -4 -28.5 -23.5 t-49.5 -42t-50.5 -41t-31.5 -20.5l-10 -1t-19 -1q-29 0 -74.5 16.5t-100 43t-109.5 61.5t-100.5 68.5t-74 65.5t-28.5 54zM518 416q0 -10 7 -11.5t18.5 1t25 5.5t23.5 3l-10 174l-64 -64v-108zM518 735l74 101l-10 59q-4 20 -23.5 51t-40.5 45v-256z" />
<glyph unicode="&#xd9;" horiz-adv-x="1423" d="M-27 1024q0 -39 11.5 -57.5t29.5 -26.5l62 -59q10 -12 28 -17v-442q-4 0 -12 -8l-8 -8q-14 -6 -39 -18.5t-35 -22.5q-4 -16 -4 -19v-6v-14q0 -2 4 -19q8 -29 26.5 -56.5t44 -56t55.5 -55t61 -51.5q43 -43 90 -80t84 -65q16 -12 30.5 -23.5t22.5 -17.5h25q47 0 83.5 25.5 t73.5 56.5q35 29 70 54t76 25q27 0 49 -16q14 -14 28.5 -26.5t30.5 -22.5l31 -31q27 -29 59.5 -47t73.5 -18q35 0 91 28.5t108.5 71.5t90.5 90t38 84q0 41 -21 62l-4 2q2 0 2 -2h2l-57 57q-8 20 -23.5 29.5t-31.5 13.5v500q37 35 53 62.5t16 76.5v22q0 2 -1 4.5t-1 4.5 q-6 12 -10 18t-14 16l-50 50q-4 10 -10 17t-24 24q-2 2 -4.5 3t-4.5 3q-20 16 -51 45q-27 20 -60.5 49t-65 57.5t-58.5 53t-39 36.5q-119 -152 -289 -235q-14 27 -30.5 48t-32.5 42l-41 39q-29 41 -66 68.5t-82 27.5q-4 0 -6 -1t-4 -1h-33q-8 -6 -24.5 -21.5t-34.5 -31.5 l-8 -8q-8 -6 -25 -23q-35 -31 -71.5 -62.5t-57.5 -43.5h-4q-14 -12 -19.5 -16.5t-15.5 -14.5q-4 -4 -9 -8t-1 -2q-35 -27 -51.5 -47.5t-16.5 -65.5zM0 1024q0 25 6 39t18.5 26.5t31 25.5t42.5 36q14 8 46 35.5t68 58.5t66.5 58.5t43.5 37.5q6 0 15 1t17 1q55 0 96.5 -44 t70 -105t43 -127t14.5 -109q0 -37 2 -126t2 -193q0 -51 -1 -101.5t-1 -93.5q0 -41 -1 -73.5t-1 -51.5l14 7q14 6 32.5 15t34 20.5t15.5 21.5v575q-6 8 -16.5 25.5t-20.5 38t-17.5 38t-9.5 25.5v17v16q174 78 287 223q10 -10 33.5 -31.5t52.5 -47t60.5 -52t58.5 -47.5 q33 -31 49 -45t23.5 -20t9.5 -9.5t6 -11.5v-22q0 -43 -16.5 -68.5t-53.5 -60.5v-574q0 -27 20.5 -31t46 -6t46 -12t20.5 -49q0 -35 -35.5 -78t-85 -83t-101.5 -66.5t-85 -26.5q-45 0 -76.5 25.5t-61.5 55.5t-60.5 55.5t-73.5 25.5q-45 0 -83 -25.5t-73 -55.5t-70.5 -55.5 t-76.5 -25.5h-17q-18 16 -65 50t-99.5 79t-96.5 94t-58 96l-1 7q-1 6 -1 14q0 2 1 7l1 5q8 6 31.5 17.5t31.5 13.5q8 8 20.5 19.5t12.5 13.5v555q-25 0 -48.5 -4t-41.5 -3t-29.5 13t-11.5 47zM369 1751q0 -8 29.5 -51t70.5 -95.5t85 -100.5t73 -66l32 -33q23 -23 39.5 -35 t26.5 -12t18 6l2 2q12 10 24.5 19.5t23.5 17.5q31 23 53 42t33 56q6 6 6 21q0 8 -4 16l-156 326l-66 63l-10 25l-280 -185v-16zM395 1753l244 160l145 -305l2 -6q2 -7 -2 -7q-6 -25 -18 -42t-28.5 -31.5t-38 -28.5t-46.5 -35q-8 -8 -31.5 10.5t-53 50t-61.5 71.5t-57.5 76 t-41 60.5t-13.5 26.5z" />
<glyph unicode="&#xda;" horiz-adv-x="1423" d="M-27 1024q0 -39 11.5 -57.5t29.5 -26.5l62 -59q10 -12 28 -17v-442q-4 0 -12 -8l-8 -8q-14 -6 -39 -18.5t-35 -22.5q-4 -16 -4 -19v-6v-14q0 -2 4 -19q16 -53 67.5 -107.5t108.5 -101.5q41 -39 85 -73.5t81 -63.5q23 -16 42.5 -32.5t29.5 -26.5h25q47 0 83.5 25.5 t73.5 56.5q35 29 70 54t76 25q27 0 49 -16q14 -14 28.5 -26.5t30.5 -22.5l31 -31q27 -29 59.5 -47t73.5 -18q35 0 91 28.5t108.5 71.5t90.5 90t38 84q0 41 -21 62l-57 57q-8 20 -23.5 29.5t-31.5 13.5v500q37 35 53 62.5t16 76.5v22q-6 18 -9 23.5t-13 15.5l-4 2h2l-52 52 q-4 10 -7 15t-13 13q-2 2 -4 2l-2 2q-10 8 -25.5 21.5t-42.5 38.5q-27 20 -60.5 49t-66.5 58.5t-58.5 53t-37.5 35.5q-123 -154 -291 -235q-12 27 -28.5 48t-32.5 42l-8 6l-3 2l-26 27q-29 43 -67 71.5t-85 28.5q-4 0 -6 -1t-4 -1h-33q-2 -2 -6 -4q-12 -10 -32.5 -28.5 t-41.5 -35.5q-16 -14 -35.5 -29.5t-37.5 -31.5q-25 -20 -44.5 -37.5t-29.5 -27.5q-8 -4 -15.5 -11.5t-15.5 -13.5l-12 -12q-35 -27 -51.5 -47.5t-16.5 -65.5zM0 1024q0 25 6 39t18.5 26.5t31 25.5t42.5 36q14 10 46 36.5t67 57.5t66.5 58.5t44.5 37.5q6 0 15 1t17 1 q55 0 96.5 -44t70 -105t43 -127t14.5 -109q0 -37 2 -126t2 -193q0 -51 -1 -101.5t-1 -93.5q0 -41 -1 -73.5t-1 -51.5l15 7q15 6 33.5 16t33 20.5t14.5 20.5v575q-6 8 -16.5 27t-19.5 38t-17.5 37.5t-10.5 24.5v17v16q172 76 287 223q8 -10 31.5 -30.5t53.5 -47t61.5 -53 t58.5 -47.5q33 -31 50 -45t24.5 -20t9.5 -9.5t4 -11.5v-22q0 -43 -16.5 -68.5t-53.5 -60.5v-574q0 -27 20.5 -31t46 -6t46 -12t20.5 -49q0 -35 -35.5 -78t-85 -83t-101.5 -66.5t-85 -26.5q-45 0 -76.5 25.5t-61.5 55.5t-60.5 55.5t-73.5 25.5q-45 0 -83 -25.5t-73 -55.5 t-70.5 -55.5t-76.5 -25.5h-17q-18 18 -65 53t-99.5 79t-96.5 92t-58 95l-1 7q-1 6 -1 14q0 2 1 7l1 5q8 6 31.5 17.5t31.5 13.5q8 8 20.5 19.5t12.5 13.5v555q-25 0 -48.5 -4t-41.5 -3t-29.5 13t-11.5 47zM444 1606q0 -4 5 -13q16 -41 38.5 -65.5t55.5 -46.5q0 -2 6 -8 l22 -21q10 -10 23.5 -21.5t30.5 -23.5q8 -10 43 -37v2q8 -8 20 -8t38 23.5t56.5 59.5t62.5 79t57.5 78.5t40.5 61.5t13 28l-77 78l-5 2q0 4 1.5 5t1.5 3l-269 176l-155 -330q-8 -8 -9 -22zM472 1608l3 6l143 305l244 -160q2 -2 -14.5 -26.5t-42 -60.5t-57 -76t-61.5 -71.5 t-52.5 -50t-30.5 -10.5q-49 41 -83 65.5t-46 72.5q-6 0 -3 6zM532 1243l3 -2q0 2 -3 2zM760 1595q33 47 60.5 89t43.5 69l4 -2q-14 -25 -43.5 -67t-64.5 -89z" />
<glyph unicode="&#xdb;" horiz-adv-x="1423" d="M-27 1024q0 -39 11.5 -57.5t29.5 -26.5l62 -59q10 -12 28 -17v-442q-4 0 -12 -8l-8 -8q-14 -6 -39 -18.5t-35 -22.5q-4 -16 -4 -19v-6v-14q0 -2 4 -19q16 -53 67.5 -107.5t108.5 -101.5q41 -39 85 -73.5t81 -63.5q23 -16 42.5 -32.5t29.5 -26.5h25q47 0 83.5 25.5 t73.5 56.5q35 29 70 54t76 25q27 0 49 -16q14 -14 28.5 -26.5t30.5 -22.5l31 -31q27 -29 59.5 -47t73.5 -18q35 0 91 28.5t108.5 71.5t90.5 90t38 84q0 41 -21 62l-57 57q-8 20 -23.5 29.5t-31.5 13.5v500q37 35 53 62.5t16 76.5v22q-6 18 -9 23.5t-13 15.5l-4 2h2l-52 52 q-4 10 -7 15t-13 13q-2 2 -4 2l-2 2q-10 8 -25.5 21.5t-42.5 38.5q-33 25 -75 59.5t-76 69.5l278 192v13q0 2 -2 4l-69 69v4q0 6 -37 28t-93.5 49.5t-125 58t-131 56t-110.5 42t-67 16.5h-12l-551 -246v-18q0 -4 12.5 -16.5t32.5 -28.5l47 -45q18 -20 69.5 -55t108.5 -68h-6 q-2 -2 -6 -4q-12 -10 -32.5 -28.5t-41.5 -35.5q-16 -14 -35.5 -29.5t-37.5 -31.5q-25 -20 -44.5 -37.5t-29.5 -27.5q-8 -4 -15.5 -11.5t-15.5 -13.5l-12 -12q-35 -27 -51.5 -47.5t-16.5 -65.5zM0 1024q0 25 6 39t18.5 26.5t31 25.5t42.5 36q14 10 46 36.5t67 57.5t66.5 58.5 t44.5 37.5q6 0 15 1t17 1q55 0 96.5 -44t70 -105t43 -127t14.5 -109q0 -37 2 -126t2 -193q0 -51 -1 -101.5t-1 -93.5q0 -41 -1 -73.5t-1 -51.5l15 7q15 6 33.5 16t33 20.5t14.5 20.5v575q-6 8 -16.5 27t-19.5 38t-17.5 37.5t-10.5 24.5v17v16q172 76 287 223 q8 -10 31.5 -30.5t53.5 -47t61.5 -53t58.5 -47.5q33 -31 50 -45t24.5 -20t9.5 -9.5t4 -11.5v-22q0 -43 -16.5 -68.5t-53.5 -60.5v-574q0 -27 20.5 -31t46 -6t46 -12t20.5 -49q0 -35 -35.5 -78t-85 -83t-101.5 -66.5t-85 -26.5q-45 0 -76.5 25.5t-61.5 55.5t-60.5 55.5 t-73.5 25.5q-45 0 -83 -25.5t-73 -55.5t-70.5 -55.5t-76.5 -25.5h-17q-18 18 -65 53t-99.5 79t-96.5 92t-58 95l-1 7q-1 6 -1 14q0 2 1 7l1 5q8 6 31.5 17.5t31.5 13.5q8 8 20.5 19.5t12.5 13.5v555q-25 0 -48.5 -4t-41.5 -3t-29.5 13t-11.5 47zM74 1583l530 236 q10 4 55.5 -9.5t107.5 -37t131 -53t126 -56.5t92 -46.5t31 -23.5l-299 -204l-201 258q-12 -12 -43 -45t-66.5 -72t-69.5 -75t-52 -54q-8 -8 -38 1t-69 27.5t-83 44t-78.5 48t-56 40t-17.5 21.5zM483 1298q14 0 25 11q23 23 59.5 62.5t75.5 80.5q18 20 34.5 37.5t31.5 32.5 l133 -170l6 4l14 -15q-111 -127 -258 -196q-12 27 -28.5 48t-32.5 42l-4 2h2l-39 37z" />
</font>
</defs>
</svg>
