<?xml version="1.0" standalone="no"?>
<!DOCTYPE svg PUBLIC "-//W3C//DTD SVG 1.1//EN" "http://www.w3.org/Graphics/SVG/1.1/DTD/svg11.dtd" >
<svg xmlns="http://www.w3.org/2000/svg" xmlns:xlink="http://www.w3.org/1999/xlink" version="1.1">
<metadata>
Created by FontForge 20170731 at Wed Nov 17 07:20:53 2004
 By Aleksey,,,
4.1 (c)1986-92 by Richard A. Ware. All Rights Reserved.
</metadata>
<defs>
<font id="GatsbyFLF-BoldItalic" horiz-adv-x="340" >
  <font-face 
    font-family="GatsbyFLF"
    font-weight="700"
    font-style="italic"
    font-stretch="normal"
    units-per-em="1000"
    panose-1="2 0 8 6 7 0 0 9 0 3"
    ascent="800"
    descent="-200"
    x-height="325"
    cap-height="595"
    bbox="-91 -329 962 755"
    underline-thickness="40"
    underline-position="-190"
    slope="-12"
    unicode-range="U+0005-E00A"
  />
<missing-glyph horiz-adv-x="500" 
 />
    <glyph glyph-name=".notdef" horiz-adv-x="500" 
 />
    <glyph glyph-name=".null" horiz-adv-x="0" 
 />
    <glyph glyph-name="nonmarkingreturn" unicode="&#xe002;" horiz-adv-x="0" 
 />
    <glyph glyph-name="breve" horiz-adv-x="305" 
d="M82 417l-16 -16q16 -17 38 -25t46 -8q26 0 51 8t45 22l-8 19q-20 -12 -42 -19t-43 -7q-20 0 -38 6t-33 20z" />
    <glyph glyph-name="dotaccent" horiz-adv-x="185" 
d="M120 414q0 7 -4.5 14.5t-15.5 7.5q-12 0 -22.5 -10t-10.5 -27q0 -7 3.5 -16t16.5 -9q12 0 22.5 11t10.5 29z" />
    <glyph glyph-name="ring" horiz-adv-x="230" 
d="M84 413q0 -17 10.5 -29.5t33.5 -12.5q27 0 41.5 17.5t14.5 37.5q0 17 -10.5 29.5t-33.5 12.5q-27 0 -41.5 -17.5t-14.5 -37.5zM99 414q0 14 10 27t29 13q16 0 23.5 -9t7.5 -20q0 -14 -10.5 -27t-29.5 -13q-16 0 -23 8.5t-7 20.5z" />
    <glyph glyph-name="hungarumlaut" unicode="&#xa;" horiz-adv-x="231" 
d="M104 534l-64 -133l15 -10l82 124zM184 534l-64 -133l15 -10l82 124z" />
    <glyph glyph-name="ogonek" horiz-adv-x="140" 
d="M75 -69q0 23 8.5 43.5t16.5 37.5h-45q-8 -17 -15.5 -39t-7.5 -48q0 -16 4 -32t14 -33l41 16q-16 28 -16 55z" />
    <glyph glyph-name="caron" horiz-adv-x="270" 
d="M132 390l-76 44l-17 -20l89 -50l108 49l-9 21z" />
    <glyph glyph-name="dotlessi" unicode="&#xd;" horiz-adv-x="175" 
d="M67 0h45l69 325h-45z" />
    <glyph glyph-name="fraction" horiz-adv-x="440" 
d="M-25 -70l35 -2l578 700l-34 2z" />
    <glyph glyph-name="fi" horiz-adv-x="313" 
d="M122 0l60 280h88l-59 -280h45l69 325h-134l41 195q8 36 23.5 50t41.5 14l11 45q-30 0 -50.5 -7.5t-34 -20.5t-21 -30t-11.5 -36l-45 -210h-25l-9 -45h25l-60 -280h45zM345 417q0 7 -5 14.5t-16 7.5t-21.5 -10t-10.5 -27q0 -7 3.5 -16t17.5 -9q11 0 21.5 11t10.5 29z" />
    <glyph glyph-name="fl" horiz-adv-x="312" 
d="M261 0l134 629h-90q-54 0 -79.5 -26t-34.5 -68l-45 -210h-25l-9 -45h25l-60 -280h45l60 280h94l-60 -280h45zM232 523q6 29 19.5 45t40.5 16h47l-54 -259h-94z" />
    <glyph glyph-name="Lslash" horiz-adv-x="301" 
d="M109 285l-47 -47l-16 -73l48 48l-45 -213h224l11 50h-174l46 216l55 55l16 73l-56 -56l54 257h-50z" />
    <glyph glyph-name="lslash" horiz-adv-x="165" 
d="M122 291l-53 -53l-16 -73l54 54l-47 -219h45l56 263l56 56l16 73l-57 -57l63 294h-45z" />
    <glyph glyph-name="Zcaron" horiz-adv-x="335" 
d="M441 595h-281l-10 -50h205l-347 -545h301l11 50h-225zM312 655l-76 44l-17 -20l88 -51l109 50l-9 21z" />
    <glyph glyph-name="zcaron" horiz-adv-x="307" 
d="M109 325l-9 -45h154l-229 -280h257l10 45h-175l231 280h-239zM222 390l-76 44l-17 -20l88 -51l109 50l-9 21z" />
    <glyph glyph-name="space" unicode=" " horiz-adv-x="280" 
 />
    <glyph glyph-name="exclam" unicode="!" horiz-adv-x="117" 
d="M59 90h40l107 505h-40zM93 39q0 7 -4.5 14.5t-15.5 7.5q-12 0 -22.5 -10t-10.5 -27q0 -7 3.5 -16t16.5 -9q12 0 22.5 11t10.5 29z" />
    <glyph glyph-name="quotedbl" unicode="&#x22;" horiz-adv-x="174" 
d="M201 609h-35l-25 -122h35zM267 609h-35l-25 -122h35z" />
    <glyph glyph-name="numbersign" unicode="#" horiz-adv-x="310" 
d="M241 454l27 62h-35l-27 -62h-66l-16 -35h66l-19 -41h-61l-15 -35h61l-28 -62h35l28 62h42l-28 -62h35l28 62h62l15 35h-62l19 41h60l16 35h-60l27 62h-35l-27 -62h-42zM206 378l19 41h42l-19 -41h-42z" />
    <glyph glyph-name="dollar" unicode="$" horiz-adv-x="390" 
d="M445 506q-5 30 -28 56.5t-58 34.5l7 35h-20l-7 -33q-2 1 -6 1h-9h-9t-7 -1l7 33h-20l-7 -36q-27 -5 -51 -18t-41 -32.5t-27 -43.5t-10 -50q0 -22 6.5 -40t17 -32t24 -23.5t26.5 -15.5l-64 -303q-38 8 -55 33.5t-17 62.5l-45 -8q0 -29 8.5 -52t23.5 -39.5t34.5 -26.5
t41.5 -14l-10 -47h20l9 44q5 -1 15 -1q11 0 16 1l-9 -44h20l9 45q33 3 64.5 18.5t56.5 41t40.5 61t15.5 79.5q0 36 -8.5 62.5t-22.5 46t-31.5 33.5t-36.5 23l42 197q24 -6 36 -25.5t16 -37.5zM315 557q4 0 8 -0.5t7 -0.5l-40 -191l-29 13l38 178q4 0 7.5 0.5t8.5 0.5z
M204 452q0 22 7.5 40t18.5 30.5t24.5 20.5t24.5 10l-36 -167q-39 20 -39 66zM206 35h-9t-8 1l63 298l28 -13l-60 -285q-4 -1 -14 -1zM362 193q0 -33 -11 -60.5t-28.5 -48t-39.5 -33t-43 -14.5l58 274q9 -5 20 -13.5t20.5 -22t16.5 -34t7 -48.5z" />
    <glyph glyph-name="percent" unicode="%" horiz-adv-x="582" 
d="M135 140l25 -29l457 377l-24 29zM407 470q0 25 -8 48t-25 41t-42.5 28.5t-60.5 10.5q-40 0 -71 -14t-52 -37t-32 -52t-11 -58q0 -25 8 -48t25 -41t42.5 -28.5t60.5 -10.5q40 0 71 14t52 37t32 52t11 58zM143 440q0 21 8.5 42.5t24.5 39t39.5 28t53.5 10.5q52 0 76 -28
t24 -65q0 -21 -8.5 -42.5t-24.5 -39t-39.5 -28t-53.5 -10.5q-52 0 -76 28t-24 65zM610 159q0 25 -8.5 48t-25 41t-42.5 28.5t-60 10.5q-41 0 -72 -14t-52 -36.5t-32 -51.5t-11 -58q0 -25 8 -48t25 -41t43 -28.5t61 -10.5q40 0 71 14t52 36.5t32 51.5t11 58zM345 129
q0 22 8.5 43.5t24.5 38.5t39.5 27.5t54.5 10.5q51 0 75.5 -28t24.5 -64q0 -22 -8.5 -43.5t-24.5 -38.5t-39.5 -27.5t-53.5 -10.5q-53 0 -77 28t-24 64z" />
    <glyph glyph-name="ampersand" unicode="&#x26;" horiz-adv-x="476" 
d="M302 236l17 -40l100 41q0 -39 -12.5 -74.5t-34 -62.5t-51 -43.5t-63.5 -16.5q-35 0 -59.5 10t-41 27t-24 40t-7.5 50q0 38 14.5 68t38.5 51t55.5 33t66.5 15q55 5 55 36q0 28 -37 34q-29 5 -44.5 23t-15.5 44q0 41 25.5 63.5t57.5 22.5q54 0 67 -43l43 23
q-7 24 -33.5 43.5t-73.5 19.5q-28 0 -52.5 -10t-43 -27.5t-29.5 -41.5t-11 -51q0 -32 13.5 -57t48.5 -42q-40 -6 -75 -23.5t-61 -43.5t-41 -61t-15 -77q0 -35 11 -66t33 -54.5t55 -37t77 -13.5q49 0 87.5 21.5t65 57.5t40.5 83.5t14 98.5l79 33l-14 39z" />
    <glyph glyph-name="quotesingle" unicode="'" horiz-adv-x="110" 
d="M203 609h-35l-25 -122h35z" />
    <glyph glyph-name="parenleft" unicode="(" horiz-adv-x="280" 
d="M146 172q0 57 15.5 120.5t48 122t81.5 107.5t115 78l-19 44q-72 -30 -126.5 -82t-90.5 -116.5t-54 -135.5t-18 -138q0 -103 36 -173t94 -102l27 40q-20 13 -39.5 34.5t-35 50.5t-25 66.5t-9.5 83.5z" />
    <glyph glyph-name="parenright" unicode=")" horiz-adv-x="280" 
d="M266 370q0 -57 -15.5 -120.5t-48 -122t-81.5 -108t-115 -77.5l19 -44q72 30 126.5 82t90.5 116.5t54 135.5t18 138q0 103 -36 173t-94 102l-27 -40q20 -14 39.5 -35t35 -50t25 -66.5t9.5 -83.5z" />
    <glyph glyph-name="asterisk" unicode="*" horiz-adv-x="225" 
d="M128 557q0 -6 8 -12.5t19 -12.5t23.5 -10.5t20.5 -7.5q-8 -2 -21.5 -6t-26.5 -9t-22 -11.5t-9 -13.5q0 -11 11 -11q7 0 16.5 5t19.5 12t19.5 14.5t15.5 13.5q-7 -15 -14 -34.5t-7 -33.5q0 -16 12 -16t15.5 15.5t3.5 32.5q0 14 -0.5 20t-1.5 16q4 -5 11.5 -12.5
t16.5 -15.5t18.5 -13.5t17.5 -5.5q6 0 9 3.5t3 8.5q0 7 -8 13.5t-19 11.5t-23 9l-21 7q9 2 22 6t26 9.5t22 11.5t9 13q0 10 -11 10q-8 0 -17.5 -5t-19.5 -11.5t-19 -14t-15 -13.5q7 16 14 35.5t7 33.5q0 15 -11 15q-13 0 -17 -15.5t-4 -32.5q0 -9 0.5 -17t2.5 -19
q-6 6 -14.5 14t-17.5 15.5t-17.5 13t-15.5 5.5q-11 0 -11 -11z" />
    <glyph glyph-name="plus" unicode="+" horiz-adv-x="314" 
d="M212 345l-21 -100h-100l-7 -35h100l-22 -100h35l22 100h100l7 35h-100l21 100h-35z" />
    <glyph glyph-name="comma" unicode="," horiz-adv-x="90" 
d="M89 27l-22 14l-78 -110l22 -15z" />
    <glyph glyph-name="hyphen" unicode="-" horiz-adv-x="316" 
d="M326 210l7 35h-242l-7 -35h242z" />
    <glyph glyph-name="period" unicode="." horiz-adv-x="103" 
d="M85 39q0 7 -4.5 14.5t-15.5 7.5q-12 0 -22.5 -10t-10.5 -27q0 -7 3.5 -16t16.5 -9q12 0 22.5 11t10.5 29z" />
    <glyph glyph-name="slash" unicode="/" horiz-adv-x="170" 
d="M-25 -70h40l324 700h-40z" />
    <glyph glyph-name="zero" unicode="0" horiz-adv-x="666" 
d="M428 605q-73 0 -134.5 -28.5t-106.5 -75.5t-70.5 -108.5t-25.5 -128.5q0 -59 17 -108.5t50.5 -86t83 -57t113.5 -20.5q73 0 134.5 29t106.5 77t70.5 110t25.5 129q0 58 -17 107t-50.5 85t-83 56t-113.5 20zM421 554q107 0 164 -59.5t57 -158.5q0 -56 -22 -109t-60 -94
t-89 -65.5t-109 -24.5q-108 0 -164.5 59.5t-56.5 161.5q0 55 22 107.5t60 93t89 65t109 24.5z" />
    <glyph glyph-name="one" unicode="1" horiz-adv-x="222" 
d="M138 0h50l126 595l-208 -171l27 -32l107 88z" />
    <glyph glyph-name="two" unicode="2" horiz-adv-x="360" 
d="M137 507l33 -31q9 12 20.5 25t26 24t32.5 18.5t39 7.5q47 0 70.5 -22t23.5 -57q0 -65 -63 -135l-300 -337h310l11 50h-213l232 265q35 41 52.5 79.5t17.5 77.5q0 52 -35 87.5t-103 35.5q-33 0 -57.5 -9.5t-43.5 -23t-31.5 -29t-21.5 -26.5z" />
    <glyph glyph-name="three" unicode="3" 
d="M426 595h-260l-10 -50h137l-115 -92q28 -8 56.5 -23t51 -37t36.5 -50t14 -62q0 -48 -26.5 -91t-68.5 -75.5t-93.5 -51t-102.5 -18.5l-10 -45q78 0 142.5 25t111 65t72 90.5t25.5 100.5q0 42 -13 73t-32 52.5t-40 35t-37 21.5z" />
    <glyph glyph-name="four" unicode="4" horiz-adv-x="380" 
d="M308 225h-157l270 370h-56l-313 -420h245l-37 -175h50l37 175h50l11 50h-50l34 160h-50z" />
    <glyph glyph-name="five" unicode="5" 
d="M366 545l10 50h-198l-51 -140q40 0 78 -8.5t68 -27t48 -47.5t18 -70q0 -54 -22 -100t-61 -80t-92.5 -53t-116.5 -19l-12 -50q81 0 146.5 23t111.5 63.5t71 96t25 119.5q0 54 -23 89.5t-55 57.5t-66.5 31t-56.5 9l22 56h156z" />
    <glyph glyph-name="six" unicode="6" horiz-adv-x="510" 
d="M113 220q0 45 15.5 84.5t44 69t69 46t91.5 16.5q45 0 77.5 -15t53.5 -40t31 -56t10 -64q0 -44 -15.5 -84.5t-43.5 -71t-66 -48.5t-83 -18q-46 0 -80.5 14.5t-57.5 39t-34.5 57.5t-11.5 70zM417 556l-9 42q-66 -20 -128 -56.5t-110 -86t-77.5 -109.5t-29.5 -126
q0 -47 16 -88.5t45.5 -73t70.5 -49.5t91 -18q62 0 111.5 23t84.5 61t54 86.5t19 99.5q0 37 -11 76t-36.5 71t-66 52.5t-99.5 20.5q-42 0 -63.5 -6t-37.5 -14q12 12 31 25.5t42 26.5t49.5 24t53.5 19z" />
    <glyph glyph-name="seven" unicode="7" horiz-adv-x="335" 
d="M451 595h-310l-9 -45h235l-332 -550h55z" />
    <glyph glyph-name="eight" unicode="8" horiz-adv-x="417" 
d="M452 203q0 61 -32 105.5t-93 60.5q51 11 76 44t25 77q0 20 -7.5 39.5t-22 35.5t-35.5 25.5t-48 9.5q-31 0 -56.5 -11.5t-44 -29.5t-28.5 -41t-10 -46q0 -32 14 -58t46 -43q-47 -8 -81 -29t-56.5 -48.5t-33 -60.5t-10.5 -65q0 -35 11 -66t34 -55t57 -38t81 -14
q52 0 92 19.5t67 50t41 67t14 71.5zM402 203q0 -35 -13.5 -65t-36 -51.5t-51 -34t-57.5 -12.5q-71 0 -105 37.5t-34 92.5q0 31 12 60.5t33 52t51 36t66 13.5q34 0 59 -10.5t42 -28.5t25.5 -41.5t8.5 -48.5zM380 490q0 -41 -24 -63.5t-59 -22.5t-53.5 18.5t-18.5 49.5
q0 39 25.5 62t61.5 23q31 0 49.5 -20.5t18.5 -46.5z" />
    <glyph glyph-name="nine" unicode="9" horiz-adv-x="392" 
d="M432 405q0 -31 -13.5 -59t-36 -49.5t-52 -34t-62.5 -12.5q-30 0 -54 10t-41 27t-26 40t-9 50q0 37 13 67.5t35 52t49 33t56 11.5q34 0 60.5 -10.5t44.5 -29t27 -43.5t9 -53zM142 31l27 -40q55 38 110.5 89t100.5 107t73 112.5t28 105.5q0 37 -12.5 70t-36.5 57t-58.5 38
t-78.5 14q-41 0 -78 -16t-65.5 -44t-45.5 -66t-17 -81q0 -33 11.5 -64t33.5 -55t54.5 -38.5t75.5 -14.5q29 0 54.5 8.5t41.5 22.5q-18 -27 -42 -53.5t-52.5 -52.5t-60 -51t-63.5 -48z" />
    <glyph glyph-name="colon" unicode=":" horiz-adv-x="100" 
d="M140 299q0 7 -4.5 14.5t-15.5 7.5q-12 0 -22.5 -10t-10.5 -27q0 -7 3.5 -16t16.5 -9q12 0 22.5 11t10.5 29zM85 39q0 7 -4.5 14.5t-15.5 7.5q-12 0 -22.5 -10t-10.5 -27q0 -7 3.5 -16t16.5 -9q12 0 22.5 11t10.5 29z" />
    <glyph glyph-name="semicolon" unicode=";" horiz-adv-x="90" 
d="M140 299q0 7 -4.5 14.5t-15.5 7.5q-12 0 -22.5 -10t-10.5 -27q0 -7 3.5 -16t16.5 -9q12 0 22.5 11t10.5 29zM88 25l-22 15l-77 -108l22 -16z" />
    <glyph glyph-name="less" unicode="&#x3c;" horiz-adv-x="155" 
d="M91 221l111 154h-35l-107 -150l47 -150h29z" />
    <glyph glyph-name="equal" unicode="=" horiz-adv-x="315" 
d="M300 145l7 35h-210l-7 -35h210zM329 280l7 35h-210l-7 -35h210z" />
    <glyph glyph-name="greater" unicode="&#x3e;" horiz-adv-x="155" 
d="M176 227l-43 150h-35l42 -146l-109 -154h38z" />
    <glyph glyph-name="question" unicode="?" horiz-adv-x="268" 
d="M294 401q0 -37 -15.5 -73.5t-43.5 -68t-67.5 -54t-88.5 -31.5l-19 -84h40l11 51q49 12 91 38t72.5 61t47.5 76.5t17 84.5q0 33 -8.5 64.5t-28 58t-52 45.5t-80.5 27l-9 -40q36 -6 61.5 -20.5t41.5 -35.5t23 -46.5t7 -52.5zM93 39q0 7 -4.5 14.5t-15.5 7.5
q-12 0 -22.5 -10t-10.5 -27q0 -7 3.5 -16t16.5 -9q12 0 22.5 11t10.5 29z" />
    <glyph glyph-name="at" unicode="@" horiz-adv-x="390" 
d="M201 334q0 23 18 44t52 21q25 0 37 -12.5t12 -32.5q0 -25 -17.5 -46t-49.5 -21q-29 0 -40.5 12.5t-11.5 34.5zM133 326q0 27 10.5 54.5t30.5 49t48.5 35.5t65.5 14q58 0 88.5 -25.5t30.5 -81.5q0 -15 -4 -30t-12 -27t-19 -20t-25 -8q-7 0 -10 4.5t-3 10.5q0 5 1 10t3 10
l27 94h-20l-10 -34q-3 14 -18.5 25.5t-42.5 11.5q-23 0 -40 -8t-29 -20.5t-18 -27.5t-6 -29q0 -28 16.5 -47.5t51.5 -19.5q28 0 42.5 9t23.5 20q2 -12 8 -20.5t20 -8.5q21 0 36.5 10t26.5 26t16.5 34t5.5 35q0 64 -37.5 95.5t-98.5 31.5q-43 0 -76.5 -16t-56.5 -41t-35 -56
t-12 -62q0 -25 8 -47.5t25 -40t43.5 -27.5t62.5 -10q12 0 26.5 3.5t28 8.5t25 11.5t16.5 11.5l-9 15q-6 -5 -15.5 -10.5t-21.5 -10t-24.5 -7t-22.5 -2.5q-32 0 -55 9t-37.5 23.5t-21.5 34t-7 40.5z" />
    <glyph glyph-name="A" unicode="A" horiz-adv-x="440" 
d="M68 0l53 96h250l13 -96h50l-78 620l-261 -474h-43l-17 -50h32l-53 -96h54zM327 471l36 -325h-214z" />
    <glyph glyph-name="B" unicode="B" horiz-adv-x="342" 
d="M373 242q0 48 -15.5 82t-39 56.5t-50.5 35t-50 16.5q12 2 26 7t25 15t18.5 24.5t7.5 34.5q0 23 -11.5 38.5t-30.5 25.5t-43 14t-49 4l-126 -597q166 0 252 59.5t86 184.5zM95 47l74 350q21 0 47.5 -8t50 -26.5t40 -48t16.5 -72.5q0 -56 -22.5 -92.5t-57 -59t-74.5 -32.5
t-74 -11zM183 460l19 90q18 0 32 -9t14 -28q0 -15 -6.5 -25.5t-16.5 -16.5t-21 -8.5t-21 -2.5z" />
    <glyph glyph-name="C" unicode="C" horiz-adv-x="294" 
d="M90 245q0 -100 44 -165t135 -81l10 50q-70 14 -104.5 67t-34.5 128q0 57 20.5 108t54 91.5t78 67.5t92.5 37l11 50q-64 -11 -119.5 -43.5t-97 -79.5t-65.5 -106t-24 -124z" />
    <glyph glyph-name="D" unicode="D" horiz-adv-x="365" 
d="M135 596l-127 -596q74 0 148.5 15.5t134.5 53t97.5 100.5t37.5 159q0 61 -22 108t-60.5 80.5t-92 53.5t-116.5 26zM376 328q0 -57 -15.5 -99t-41 -72.5t-58.5 -50.5t-67 -32t-66.5 -17.5t-58.5 -6.5l105 494q35 -5 71 -20t65 -42t47.5 -65.5t18.5 -88.5z" />
    <glyph glyph-name="E" unicode="E" horiz-adv-x="305" 
d="M373 487h-168l12 58h168l10 50h-218l-22 -108h-19l-11 -50h19l-45 -214q-8 -38 -8 -66q0 -75 44.5 -118t132.5 -43l11 50q-72 0 -105 31.5t-33 87.5q0 13 2 27t5 30l46 215h168z" />
    <glyph glyph-name="F" unicode="F" horiz-adv-x="284" 
d="M361 487h-146l12 58h146l10 50h-196l-22 -108h-19l-11 -50h19l-93 -437h50l93 437h146z" />
    <glyph glyph-name="G" unicode="G" horiz-adv-x="351" 
d="M261 425h90l-78 -363q-26 4 -50.5 17.5t-43 36.5t-29.5 57t-11 80q0 64 21 120t59 97.5t91 65t118 23.5l9 45q-74 0 -137.5 -25.5t-110.5 -71.5t-73.5 -110.5t-26.5 -143.5q0 -110 56.5 -175.5t162.5 -80.5l102 478h-138z" />
    <glyph glyph-name="H" unicode="H" horiz-adv-x="475" 
d="M213 487l22 108h-50l-22 -108h-19l-11 -50h19l-93 -437h50l93 437h270l-93 -437h50l126 595h-50l-22 -108h-270z" />
    <glyph glyph-name="I" unicode="I" horiz-adv-x="168" 
d="M61 0h50l126 595h-50z" />
    <glyph glyph-name="J" unicode="J" horiz-adv-x="305" 
d="M22 -4q57 0 105.5 14.5t87 42.5t64 67t36.5 89l82 386h-50l-78 -373q-9 -44 -32 -77t-54.5 -55t-70 -33t-79.5 -11z" />
    <glyph glyph-name="K" unicode="K" horiz-adv-x="396" 
d="M205 501l20 94h-50l-126 -595h50l94 443l55 32l80 -475h53l-88 501l161 94h-87z" />
    <glyph glyph-name="L" unicode="L" horiz-adv-x="301" 
d="M110 50l115 545h-50l-126 -595h224l11 50h-174z" />
    <glyph glyph-name="M" unicode="M" horiz-adv-x="561" 
d="M296 602l-260 -602h54l216 500l66 -89l104 94l36 -505h48l-42 603l-136 -120z" />
    <glyph glyph-name="N" unicode="N" horiz-adv-x="462" 
d="M43 0h50l115 543q30 -2 65.5 -12.5t70.5 -27.5t67 -38.5t56 -44.5l-89 -420h50l126 595h-50l-25 -119q-23 22 -58 43t-77 37.5t-87 26.5t-88 12z" />
    <glyph glyph-name="O" unicode="O" horiz-adv-x="666" 
d="M428 605q-73 0 -134.5 -28.5t-106.5 -75.5t-70.5 -108.5t-25.5 -128.5q0 -59 17 -108.5t50.5 -86t83 -57t113.5 -20.5q73 0 134.5 29t106.5 77t70.5 110t25.5 129q0 58 -17 107t-50.5 85t-83 56t-113.5 20zM421 554q107 0 164 -59.5t57 -158.5q0 -56 -22 -109t-60 -94
t-89 -65.5t-109 -24.5q-108 0 -164.5 59.5t-56.5 161.5q0 55 22 107.5t60 93t89 65t109 24.5z" />
    <glyph glyph-name="P" unicode="P" horiz-adv-x="315" 
d="M41 0h50l39 184q42 3 86.5 16.5t81 39t60.5 65.5t24 96q0 49 -18.5 83.5t-48.5 58t-68.5 36t-78.5 17.5zM332 401q0 -48 -20 -80t-49 -50.5t-62 -27t-60 -10.5l67 306q17 -3 38.5 -11.5t40.5 -25t32 -41t13 -60.5z" />
    <glyph glyph-name="Q" unicode="Q" horiz-adv-x="670" 
d="M643 336q0 -36 -9.5 -71.5t-27 -67t-41.5 -59t-53 -47.5l-70 139l-48 -28l70 -137q-50 -22 -102 -22q-108 0 -164.5 59.5t-56.5 161.5q0 55 21.5 107.5t58 93t85.5 65t104 24.5q66 0 110.5 -18t72 -48t39 -69.5t11.5 -82.5zM355 -8q36 0 69 7t63 20l65 -129l46 31
l-63 125q36 24 65.5 56.5t49.5 70t31 79.5t11 85q0 54 -15 102.5t-48 85t-85.5 58.5t-127.5 22q-68 0 -127 -29t-103 -77t-69.5 -109.5t-25.5 -125.5q0 -59 17 -108.5t50.5 -86t83 -57t113.5 -20.5z" />
    <glyph glyph-name="R" unicode="R" horiz-adv-x="318" 
d="M40 0h50l41 182q7 -69 43 -113.5t103 -74.5l10 50q-49 27 -76.5 60.5t-33.5 86.5q39 5 75.5 22.5t65 44.5t46 62.5t17.5 77.5q0 49 -20.5 84t-52 58.5t-68.5 37t-71 18.5zM331 398q0 -44 -19 -75t-47.5 -51t-62 -29.5t-61.5 -9.5l67 303q25 -6 47.5 -16.5t39 -27.5
t26.5 -40.5t10 -53.5z" />
    <glyph glyph-name="S" unicode="S" horiz-adv-x="282" 
d="M238 341q-20 19 -34 41t-14 50q0 31 11.5 54t30 38t41.5 22t46 7l10 50q-32 0 -65.5 -11.5t-61 -33.5t-45 -54t-17.5 -72t15 -67.5t39 -49.5q23 -22 43 -47.5t20 -58.5q0 -45 -21.5 -76t-53 -50.5t-67.5 -29t-65 -12.5l-11 -51q51 2 99 17t85.5 42.5t60.5 67.5t23 92
q0 44 -21 74.5t-48 57.5z" />
    <glyph glyph-name="T" unicode="T" 
d="M426 595h-260l-10 -50h105l-116 -545h50l116 545h105z" />
    <glyph glyph-name="U" unicode="U" horiz-adv-x="371" 
d="M225 595h-50l-93 -443q-2 -10 -3 -19.5t-1 -18.5q0 -51 31 -87t91 -36q37 0 65 11.5t47.5 32t32 48.5t19.5 61l95 451h-50l-93 -443q-5 -23 -13 -43t-20.5 -35t-31 -24t-44.5 -9q-42 0 -60 23t-18 56q0 15 3 32z" />
    <glyph glyph-name="V" unicode="V" horiz-adv-x="320" 
d="M201 175l-11 420h-50l18 -621l282 621h-56z" />
    <glyph glyph-name="W" unicode="W" horiz-adv-x="560" 
d="M202 171l-10 424h-50l16 -621l211 429l29 -429l281 621h-50l-193 -432l-29 424z" />
    <glyph glyph-name="X" unicode="X" horiz-adv-x="369" 
d="M268 390l-51 205h-51l65 -262l-221 -333h54l181 274l68 -274h51l-82 330l176 265h-54z" />
    <glyph glyph-name="Y" unicode="Y" horiz-adv-x="375" 
d="M290 470l-97 125h-59l124 -160l-93 -435h50l92 430l194 165h-63z" />
    <glyph glyph-name="Z" unicode="Z" horiz-adv-x="335" 
d="M441 595h-281l-10 -50h205l-347 -545h301l11 50h-225z" />
    <glyph glyph-name="bracketleft" unicode="[" horiz-adv-x="125" 
d="M100 -60h-40l139 654h40l8 35h-80l-154 -724h80z" />
    <glyph glyph-name="backslash" unicode="\" horiz-adv-x="215" 
d="M174 630l-41 -2l27 -700l40 2z" />
    <glyph glyph-name="bracketright" unicode="]" horiz-adv-x="245" 
d="M148 594h40l-139 -654h-40l-7 -35h80l154 724h-80z" />
    <glyph glyph-name="asciicircum" unicode="^" horiz-adv-x="290" 
d="M171 507l66 -86l15 16l-79 102l-123 -106l15 -16z" />
    <glyph glyph-name="underscore" unicode="_" horiz-adv-x="298" 
d="M0 -14v-20h310v20h-310z" />
    <glyph glyph-name="grave" unicode="`" horiz-adv-x="185" 
d="M50 455l83 -89l17 14l-69 99z" />
    <glyph glyph-name="a" unicode="a" 
d="M151 306l19 -36q17 11 34 18t43 7q30 0 47 -15.5t17 -38.5q0 -8 -1 -13l-5 -24q-3 5 -8 12.5t-16.5 15t-29.5 12.5t-46 5q-30 0 -57.5 -12t-48.5 -31.5t-33.5 -45t-12.5 -52.5q0 -48 28 -81t87 -33q41 0 64.5 14t36.5 27l-7 -35h45l49 229q2 6 2 11v11q0 39 -27.5 64
t-72.5 25q-41 0 -65.5 -10t-41.5 -24zM101 108q0 19 7.5 36.5t21 31t31.5 21.5t39 8q43 0 60.5 -21t17.5 -46q0 -20 -8.5 -38.5t-22.5 -32.5t-32.5 -22t-37.5 -8q-41 0 -58.5 21t-17.5 50z" />
    <glyph glyph-name="b" unicode="b" horiz-adv-x="420" 
d="M276 332q-38 0 -67.5 -11.5t-52.5 -30.5l72 340h-45l-134 -630h45l14 68q17 -33 50.5 -54t84.5 -21q45 0 80 16.5t58.5 43.5t35.5 60.5t12 67.5q0 29 -9.5 56.5t-28 48.5t-47.5 33.5t-68 12.5zM135 148q0 25 9 50t26.5 44.5t43.5 32t59 12.5q29 0 50 -9t35 -24.5
t20.5 -35.5t6.5 -41q0 -25 -9 -50t-26.5 -44.5t-43.5 -32t-59 -12.5q-29 0 -50 9t-35 24.5t-20.5 35.5t-6.5 41z" />
    <glyph glyph-name="c" unicode="c" horiz-adv-x="197" 
d="M224 284l9 46q-38 -5 -70.5 -22t-56 -42.5t-37 -58.5t-13.5 -70q0 -24 6 -46.5t19 -41t33 -32.5t48 -20l10 45q-20 4 -33.5 14t-22 23t-12 28t-3.5 30q0 28 9.5 53t26 44.5t39 32t48.5 17.5z" />
    <glyph glyph-name="d" unicode="d" horiz-adv-x="424" 
d="M463 630l-80 -378q-17 35 -50.5 57.5t-87.5 22.5q-45 0 -80 -16.5t-58.5 -43.5t-35.5 -60.5t-12 -67.5q0 -29 9.5 -56.5t28 -48.5t47.5 -33.5t68 -12.5t70.5 12.5t54.5 33.5q-2 -11 -5 -25l-3 -14h45l134 630h-45zM104 148q0 25 9 50t26.5 44.5t43.5 32t59 12.5
q29 0 50 -9t35 -24.5t20.5 -35.5t6.5 -41q0 -25 -9 -50t-26.5 -44.5t-43.5 -32t-59 -12.5q-29 0 -50 9t-35 24.5t-20.5 35.5t-6.5 41z" />
    <glyph glyph-name="e" unicode="e" horiz-adv-x="318" 
d="M59 134q0 -23 7 -45.5t20.5 -42t34.5 -33t50 -18.5l9 45q-30 6 -49.5 26.5t-24.5 49.5l269 162q-15 21 -45 37.5t-75 16.5q-39 0 -74.5 -14.5t-62.5 -40.5t-43 -62.5t-16 -80.5zM300 280l-197 -118q6 30 21 53.5t35.5 39.5t45 24t50.5 8q24 0 45 -7z" />
    <glyph glyph-name="f" unicode="f" horiz-adv-x="220" 
d="M111 280h25l-60 -280h45l60 280h85l9 45h-85l38 184q8 35 24 53.5t48 18.5l11 45q-29 0 -50.5 -8.5t-36.5 -23t-24 -33t-13 -38.5l-42 -198h-25z" />
    <glyph glyph-name="g" unicode="g" horiz-adv-x="370" 
d="M413 285l9 40h-170q-39 0 -72.5 -12t-58 -34t-38.5 -52t-14 -66q0 -48 25 -81.5t75 -45.5q-65 -6 -116 -51l29 -33q19 17 44 29t60 12q26 0 45 -8.5t32 -22.5t19 -31.5t6 -35.5q0 -30 -10.5 -58.5t-30.5 -50.5t-49 -35t-66 -13q-72 0 -100 64l-41 -18q15 -41 50.5 -66
t89.5 -25q45 0 82.5 17t64 45t41 64.5t14.5 75.5q0 23 -6.5 45.5t-20.5 42t-35.5 33.5t-51.5 20q36 4 65.5 18.5t49.5 36t31 48t11 54.5q0 29 -9 54.5t-25 39.5h71zM237 281q26 0 44 -7.5t29 -20t16 -29t5 -33.5q0 -24 -10 -44.5t-27 -36t-39 -24.5t-47 -9q-26 0 -43.5 7
t-29 19t-16.5 27t-5 31q0 29 10 51.5t27 37.5t39 23t47 8z" />
    <glyph glyph-name="h" unicode="h" horiz-adv-x="385" 
d="M264 333q-43 0 -70 -13t-45 -30l72 340h-45l-134 -630h45l41 192q3 16 14 33t28 31t39.5 23t50.5 9q44 0 67.5 -20t23.5 -55q0 -12 -3 -24l-41 -189h45l38 183q4 19 4 39q0 55 -36 83t-94 28z" />
    <glyph glyph-name="i" unicode="i" horiz-adv-x="175" 
d="M67 0h45l69 325h-45zM201 417q0 7 -5 14.5t-16 7.5t-21.5 -10t-10.5 -27q0 -7 3.5 -16t17.5 -9q11 0 21.5 11t10.5 29z" />
    <glyph glyph-name="j" unicode="j" horiz-adv-x="155" 
d="M-91 -329q72 0 108.5 32.5t47.5 80.5l115 541h-45l-113 -530q-3 -14 -10 -28t-19 -25.5t-30 -19t-43 -7.5zM199 417q0 7 -5 14.5t-16 7.5t-21.5 -10t-10.5 -27q0 -7 3.5 -16t17.5 -9q11 0 21.5 11t10.5 29z" />
    <glyph glyph-name="k" unicode="k" horiz-adv-x="290" 
d="M278 325l-145 -125l91 430h-45l-134 -630h45l18 83q13 -23 35 -47.5t52 -47t69.5 -39.5t89.5 -24l9 45q-47 7 -85 25.5t-67.5 42t-51 50.5t-36.5 52l219 185h-64z" />
    <glyph glyph-name="l" unicode="l" horiz-adv-x="165" 
d="M60 0h45l134 630h-45z" />
    <glyph glyph-name="m" unicode="m" horiz-adv-x="589" 
d="M607 226q0 48 -33 78t-93 30q-48 0 -79.5 -17.5t-45.5 -40.5q-8 22 -33 40t-78 18q-42 0 -68 -16t-39 -33l8 40h-45l-69 -325h45l38 178q4 18 13.5 38t25 36t36.5 26.5t48 10.5q45 0 63 -16.5t18 -47.5q0 -18 -4 -35l-40 -190h45l40 190q4 19 11 36.5t20.5 31.5t34 22.5
t52.5 8.5q45 0 64 -17.5t19 -49.5q0 -8 -1 -16t-3 -16l-40 -190h45l42 195q3 16 3 31z" />
    <glyph glyph-name="n" unicode="n" horiz-adv-x="376" 
d="M264 333q-28 0 -47.5 -4t-34 -10.5t-23.5 -14t-16 -14.5l7 35h-45l-69 -325h45l41 192q3 16 14 33t28 31t39.5 23t50.5 9q44 0 67.5 -20t23.5 -54q0 -11 -3 -23l-41 -191h45l40 192q3 16 3 31q0 26 -10 46.5t-27 34.5t-40 21.5t-48 7.5z" />
    <glyph glyph-name="o" unicode="o" horiz-adv-x="399" 
d="M398 181q0 29 -9.5 56.5t-28 48.5t-47.5 33.5t-68 12.5q-45 0 -80 -16.5t-58.5 -43.5t-35.5 -60.5t-12 -67.5q0 -29 9.5 -56.5t28 -48.5t47.5 -33.5t68 -12.5q45 0 80 16.5t58.5 43.5t35.5 60.5t12 67.5zM104 148q0 25 9 50t26.5 44.5t43.5 32t59 12.5q29 0 50 -9
t35 -24.5t20.5 -35.5t6.5 -41q0 -25 -9 -50t-26.5 -44.5t-43.5 -32t-59 -12.5q-29 0 -50 9t-35 24.5t-20.5 35.5t-6.5 41z" />
    <glyph glyph-name="p" unicode="p" horiz-adv-x="425" 
d="M289 332q-42 0 -74.5 -14.5t-55.5 -37.5l9 45h-45l-134 -629h45l81 385q15 -38 49.5 -63t91.5 -25q45 0 80 16.5t58.5 43.5t35.5 60.5t12 67.5q0 29 -9.5 56.5t-28 48.5t-47.5 33.5t-68 12.5zM148 148q0 25 9 50t26.5 44.5t43.5 32t59 12.5q29 0 50 -9t35 -24.5
t20.5 -35.5t6.5 -41q0 -25 -9 -50t-26.5 -44.5t-43.5 -32t-59 -12.5q-29 0 -50 9t-35 24.5t-20.5 35.5t-6.5 41z" />
    <glyph glyph-name="q" unicode="q" horiz-adv-x="425" 
d="M399 325l-17 -72q-17 35 -50.5 57t-86.5 22q-45 0 -80 -16.5t-58.5 -43.5t-35.5 -60.5t-12 -67.5q0 -29 9.5 -56.5t28 -48.5t47.5 -33.5t68 -12.5q40 0 71.5 13t54.5 35l-73 -345h45l134 629h-45zM104 148q0 25 9 50t26.5 44.5t43.5 32t59 12.5q29 0 50 -9t35 -24.5
t20.5 -35.5t6.5 -41q0 -25 -9 -50t-26.5 -44.5t-43.5 -32t-59 -12.5q-29 0 -50 9t-35 24.5t-20.5 35.5t-6.5 41z" />
    <glyph glyph-name="r" unicode="r" horiz-adv-x="235" 
d="M269 284l9 41q-51 0 -82 -17t-47 -37l12 54h-45l-69 -325h45l39 184q1 6 9 22.5t24.5 33.5t42 30.5t62.5 13.5z" />
    <glyph glyph-name="s" unicode="s" horiz-adv-x="208" 
d="M162 188q-11 12 -19 22.5t-8 23.5q0 22 17 34.5t43 12.5l9 45q-51 0 -82.5 -27t-31.5 -65q0 -23 10.5 -40.5t25.5 -33.5q13 -13 23 -26t10 -30q0 -15 -10.5 -27.5t-27 -22t-37.5 -14.5t-41 -5l-10 -44q30 0 60.5 7t55 21t40 35t15.5 50t-13 48t-29 36z" />
    <glyph glyph-name="t" unicode="t" horiz-adv-x="212" 
d="M203 447h-45l-27 -122h-25l-9 -45h25l-39 -183q-3 -15 -3 -29q0 -32 21.5 -52t71.5 -20l9 45q-57 0 -57 37q0 7 1 11l41 191h87l9 45h-87z" />
    <glyph glyph-name="u" unicode="u" horiz-adv-x="372" 
d="M106 325l-37 -179q-4 -17 -4 -37q0 -52 34 -85t97 -33t108.5 34.5t58.5 95.5l43 204h-45l-40 -188q-11 -51 -43 -76t-77 -25q-42 0 -67 20.5t-25 57.5v11t2 12l40 188h-45z" />
    <glyph glyph-name="v" unicode="v" horiz-adv-x="279" 
d="M126 325h-47l56 -345l203 345h-48l-128 -219z" />
    <glyph glyph-name="w" unicode="w" horiz-adv-x="442" 
d="M138 -19l125 211l34 -212l203 345h-47l-129 -219l-34 212l-125 -212l-36 219h-47z" />
    <glyph glyph-name="x" unicode="x" horiz-adv-x="336" 
d="M215 207l-63 118h-49l79 -149l-171 -176h57l134 138l74 -138h49l-90 168l151 157h-56z" />
    <glyph glyph-name="y" unicode="y" horiz-adv-x="286" 
d="M138 325h-47l46 -281l-208 -352h48l373 633h-48l-128 -219z" />
    <glyph glyph-name="z" unicode="z" horiz-adv-x="307" 
d="M109 325l-9 -45h154l-229 -280h257l10 45h-175l231 280h-239z" />
    <glyph glyph-name="braceleft" unicode="{" horiz-adv-x="195" 
d="M134 223q0 -3 -0.5 -6t-1.5 -7l-44 -204q-3 -14 -3 -24q0 -37 23.5 -59.5t62.5 -28.5l8 35q-29 6 -40.5 21.5t-11.5 37.5q0 12 3 27l42 199q1 5 1 13q0 22 -13 33t-26 18q20 8 39.5 19.5t25.5 40.5l39 185q8 40 27.5 61.5t57.5 23.5l8 35q-30 0 -53 -9t-38.5 -24.5
t-25.5 -36t-14 -42.5l-40 -189q-3 -13 -11.5 -23t-19.5 -18t-23 -13.5t-21 -9.5q16 -7 32.5 -19.5t16.5 -35.5z" />
    <glyph glyph-name="bar" unicode="|" horiz-adv-x="115" 
d="M24 -75h36l148 695h-36z" />
    <glyph glyph-name="braceright" unicode="}" horiz-adv-x="210" 
d="M215 333q0 3 0.5 6t1.5 7l40 184q3 13 3 24q0 37 -23.5 59.5t-62.5 28.5l-8 -35q29 -6 40.5 -21.5t11.5 -37.5q0 -12 -3 -27l-38 -179q-1 -5 -1 -13q0 -22 13 -33t26 -18q-22 -4 -40.5 -17.5t-24.5 -42.5l-43 -205q-8 -40 -27.5 -61.5t-57.5 -23.5l-8 -35q30 0 53 9
t38.5 24.5t25 36t14.5 42.5l44 209q3 13 11 23.5t18.5 18.5t22.5 13.5t23 8.5q-16 7 -32.5 19.5t-16.5 35.5z" />
    <glyph glyph-name="asciitilde" unicode="~" horiz-adv-x="320" 
d="M99 283h30q2 10 12.5 14t24.5 4q11 0 18 -2.5t15 -6.5t17 -7t23 -3q21 0 40.5 10.5t24.5 35.5h-30q-3 -18 -32 -18q-12 0 -21 3t-17 7t-16 6.5t-20 2.5q-24 0 -43.5 -11.5t-25.5 -34.5z" />
    <glyph glyph-name="exclamdown" unicode="&#xa1;" horiz-adv-x="155" 
d="M116 375h-40l-107 -505h40zM82 426q0 -7 4.5 -14.5t15.5 -7.5q12 0 22.5 10t10.5 27q0 7 -3.5 16t-16.5 9q-12 0 -22.5 -11t-10.5 -29z" />
    <glyph glyph-name="cent" unicode="&#xa2;" horiz-adv-x="396" 
d="M81 277q0 -69 36 -117.5t108 -58.5l-10 -56h45l9 54q42 1 72 12t53 26l10 58q-26 -22 -54 -36t-72 -15l56 313q18 0 33.5 -5.5t29.5 -14t25.5 -19t20.5 -20.5l8 49q-20 19 -45.5 35t-63.5 20l8 48h-45l-9 -48q-50 0 -90 -20t-68 -52.5t-42.5 -72.5t-14.5 -80zM126 277
q0 34 11.5 66.5t32.5 58t51 41t68 15.5l-56 -312q-27 3 -47.5 15t-33.5 29.5t-19.5 40t-6.5 46.5z" />
    <glyph glyph-name="sterling" unicode="&#xa3;" horiz-adv-x="279" 
d="M251 178h-123l9 41h123l9 45h-123l31 143q9 41 27.5 68.5t44 44t57.5 23t68 6.5l11 50q-48 0 -90 -10t-76 -32.5t-57.5 -58.5t-34.5 -87l-31 -147h-19l-9 -45h19l-9 -41h-19l-10 -45h19l-28 -133h218l11 50h-168l17 83h123z" />
    <glyph glyph-name="yen" unicode="&#xa5;" horiz-adv-x="372" 
d="M288 473l-95 122h-59l124 -160l-5 -25h-76l-6 -30h75l-5 -27h-76l-6 -30h75l-69 -323h50l69 323h75l6 30h-74l5 27h75l6 30h-74l5 26l168 159h-64z" />
    <glyph glyph-name="brokenbar" unicode="&#xa6;" horiz-adv-x="133" 
d="M89 327h-35v-327h35v327zM54 436h35v319h-35v-319z" />
    <glyph glyph-name="section" unicode="&#xa7;" horiz-adv-x="200" 
d="M6 -40l13 -36q26 7 52 19.5t46.5 30t33.5 40.5t13 51q0 23 -9 42t-20 35q30 23 53 51t23 68q0 25 -13 51t-29 46q-14 18 -23 33.5t-9 34.5q0 42 35 69.5t83 37.5l-14 36q-26 -5 -52 -17.5t-46.5 -31.5t-33 -42.5t-12.5 -51.5q0 -23 9 -43t22 -36q-30 -19 -54.5 -50
t-24.5 -64q0 -29 12 -52.5t28 -43.5q13 -17 24 -34.5t11 -37.5q0 -22 -10.5 -39t-27 -29.5t-37.5 -21.5t-43 -15zM171 261q0 -30 -17.5 -51.5t-41.5 -38.5q-8 11 -15.5 24.5t-7.5 37.5q0 26 18.5 48.5t42.5 36.5q8 -11 14.5 -25t6.5 -32z" />
    <glyph glyph-name="dieresis" unicode="&#xa8;" horiz-adv-x="250" 
d="M94 416q0 7 -4.5 14.5t-15.5 7.5q-12 0 -22.5 -10t-10.5 -27q0 -7 3.5 -16t16.5 -9q12 0 22.5 11t10.5 29zM217 416q0 7 -4.5 14.5t-15.5 7.5q-12 0 -22.5 -10t-10.5 -27q0 -7 3.5 -16t16.5 -9q12 0 22.5 11t10.5 29z" />
    <glyph glyph-name="copyright" unicode="&#xa9;" horiz-adv-x="430" 
d="M188 320q0 23 17.5 42.5t50.5 19.5q19 0 33 -8t24 -19v14q-9 9 -22 16t-35 7q-39 0 -58.5 -22.5t-19.5 -49.5t19.5 -50t58.5 -23q23 0 36 7.5t21 15.5v15q-8 -11 -20.5 -19.5t-35.5 -8.5q-34 0 -51.5 20t-17.5 43zM414 317q0 33 -12.5 61.5t-34 50t-50 34t-61.5 12.5
t-61.5 -12.5t-50 -34t-34 -50t-12.5 -61.5t12.5 -61.5t34 -50t50 -34t61.5 -12.5t61.5 12.5t50 34t34 50t12.5 61.5zM108 318q0 31 11.5 58t31.5 47t47 31.5t59 11.5q31 0 58 -11.5t47 -31.5t31.5 -47t11.5 -58q0 -32 -11.5 -59t-31.5 -47t-47 -31.5t-58 -11.5
q-32 0 -59 11.5t-47 31.5t-31.5 47t-11.5 59z" />
    <glyph glyph-name="ordfeminine" unicode="&#xaa;" horiz-adv-x="225" 
d="M37 269v-30h231v30h-231zM142 507l11 -22q10 7 20.5 11t26.5 4q18 0 28.5 -9.5t10.5 -23.5q0 -5 -1 -8l-3 -14q-3 6 -15 16.5t-46 10.5q-18 0 -34.5 -7t-29.5 -19t-20.5 -27.5t-7.5 -31.5q0 -29 17.5 -49.5t52.5 -20.5q25 0 39 8.5t22 16.5l-4 -21h27l30 139q1 5 1 13
q0 24 -16.5 39t-44.5 15q-24 0 -38.5 -6t-25.5 -14zM111 387q0 23 17.5 40.5t42.5 17.5q26 0 37 -12.5t11 -27.5q0 -25 -19 -43.5t-43 -18.5t-35 13t-11 31z" />
    <glyph glyph-name="guillemotleft" unicode="&#xab;" horiz-adv-x="234" 
d="M64 185l102 150h-35l-102 -150l58 -150h35zM148 185l102 150h-35l-102 -150l58 -150h35z" />
    <glyph glyph-name="registered" unicode="&#xae;" horiz-adv-x="355" 
d="M332 532q0 17 -10 28.5t-28 11.5h-63l-20 -164h9l10 75h35l44 -75h11l-44 75h8q25 0 36.5 14t11.5 35zM323 532q0 -12 -7.5 -26t-30.5 -14h-54l8 71h54q16 0 23 -10t7 -21zM413 504q0 26 -9.5 48.5t-26.5 39.5t-40.5 26.5t-51.5 9.5q-29 0 -57 -11t-50.5 -31.5
t-36.5 -50.5t-14 -67q0 -26 9.5 -48.5t27 -39.5t41 -26.5t51.5 -9.5q33 0 61.5 12.5t49.5 34t33.5 50.5t12.5 63zM137 470q0 33 13 60.5t34 47t47.5 30t52.5 10.5q53 0 86 -33t33 -83q0 -32 -12 -59t-32.5 -47t-46.5 -31t-54 -11q-27 0 -49.5 9t-38 24.5t-24.5 36.5t-9 46z
" />
    <glyph glyph-name="macron" unicode="&#xaf;" horiz-adv-x="290" 
d="M62 388v-26h191v26h-191z" />
    <glyph glyph-name="degree" unicode="&#xb0;" horiz-adv-x="208" 
d="M167 517q0 -17 10.5 -29.5t33.5 -12.5q27 0 41.5 17.5t14.5 37.5q0 17 -10.5 29.5t-33.5 12.5q-27 0 -41.5 -17.5t-14.5 -37.5zM182 518q0 14 10 27t29 13q16 0 23.5 -9t7.5 -20q0 -14 -10.5 -27t-29.5 -13q-16 0 -23 8.5t-7 20.5z" />
    <glyph glyph-name="twosuperior" unicode="&#xb2;" horiz-adv-x="222" 
d="M137 576l15 -14q8 11 21 22.5t32 11.5q21 0 32 -10t11 -26q0 -30 -29 -60l-135 -152h140l5 22h-96l104 120q32 37 32 70q0 23 -16 39.5t-46 16.5q-29 0 -45.5 -14.5t-24.5 -25.5z" />
    <glyph glyph-name="threesuperior" unicode="&#xb3;" horiz-adv-x="222" 
d="M275 616h-117l-4 -23h61l-51 -41q26 -8 48.5 -27.5t22.5 -50.5q0 -22 -12 -41t-31 -33.5t-42.5 -23t-45.5 -8.5l-5 -20q35 0 64 11t50 29t32.5 40.5t11.5 45.5q0 19 -6 33t-14.5 23.5t-18 16t-16.5 9.5z" />
    <glyph glyph-name="acute" unicode="&#xb4;" horiz-adv-x="225" 
d="M159 483l-105 -103l11 -14l119 89z" />
    <glyph glyph-name="paragraph" unicode="&#xb6;" horiz-adv-x="408" 
d="M302 -100h50l146 695h-50zM97 363q0 -42 13.5 -73.5t36.5 -53t53 -34.5t62 -18l-59 -284h50l147 696q-62 -2 -117 -17t-96.5 -44.5t-65.5 -72t-24 -99.5zM147 363q0 43 17 75.5t44.5 55t61.5 34.5t67 14l-64 -309q-25 3 -47.5 11.5t-40 24.5t-28 39t-10.5 55z" />
    <glyph glyph-name="periodcentered" unicode="&#xb7;" horiz-adv-x="138" 
d="M152 291q0 7 -4.5 14.5t-15.5 7.5q-12 0 -22.5 -10t-10.5 -27q0 -7 3.5 -16t16.5 -9q12 0 22.5 11t10.5 29z" />
    <glyph glyph-name="periodcentered" unicode="&#x2219;" horiz-adv-x="138" 
d="M152 291q0 7 -4.5 14.5t-15.5 7.5q-12 0 -22.5 -10t-10.5 -27q0 -7 3.5 -16t16.5 -9q12 0 22.5 11t10.5 29z" />
    <glyph glyph-name="cedilla" unicode="&#xb8;" horiz-adv-x="175" 
d="M59 -160q17 17 29.5 38.5t21 45t12.5 46t4 42.5h-45q0 -17 -3 -36.5t-9.5 -40t-17 -39.5t-26.5 -34z" />
    <glyph glyph-name="onesuperior" unicode="&#xb9;" horiz-adv-x="222" 
d="M170 348h23l57 268l-94 -77l13 -15l46 37z" />
    <glyph glyph-name="ordmasculine" unicode="&#xba;" horiz-adv-x="248" 
d="M44 271v-30h231v30h-231zM281 431q0 36 -22.5 64t-70.5 28q-27 0 -48 -10t-35.5 -26.5t-21.5 -36.5t-7 -41q0 -18 5.5 -34t17 -29t28.5 -20.5t41 -7.5q27 0 48.5 10t35.5 26t21.5 36.5t7.5 40.5zM103 411q0 15 5.5 30.5t16 27.5t26 19.5t35.5 7.5q35 0 51.5 -20.5
t16.5 -46.5q0 -15 -5.5 -30t-16 -27t-26 -19.5t-35.5 -7.5q-35 0 -51.5 20t-16.5 46z" />
    <glyph glyph-name="guillemotright" unicode="&#xbb;" horiz-adv-x="235" 
d="M175 185l-49 150h-35l49 -150l-100 -150h35zM265 185l-49 150h-35l49 -150l-100 -150h35z" />
    <glyph glyph-name="onequarter" unicode="&#xbc;" horiz-adv-x="222" 
d="M230 289l5 22h-154l-5 -22h154zM160 101h-70l121 166h-25l-141 -189h110l-16 -78h22l17 78h22l5 23h-22l15 72h-22zM170 348h23l57 268l-94 -77l13 -15l46 37z" />
    <glyph glyph-name="onehalf" unicode="&#xbd;" horiz-adv-x="222" 
d="M230 289l5 22h-154l-5 -22h154zM83 228l15 -14q8 11 21 22.5t32 11.5q21 0 32 -10t11 -26q0 -30 -29 -60l-135 -152h140l5 22h-96l104 120q32 37 32 70q0 23 -16 39.5t-46 16.5q-29 0 -45.5 -14.5t-24.5 -25.5zM170 348h23l57 268l-94 -77l13 -15l46 37z" />
    <glyph glyph-name="threequarters" unicode="&#xbe;" horiz-adv-x="222" 
d="M230 289l5 22h-154l-5 -22h154zM160 101h-70l121 166h-25l-141 -189h110l-16 -78h22l17 78h22l5 23h-22l15 72h-22zM275 616h-117l-4 -23h61l-51 -41q26 -8 48.5 -27.5t22.5 -50.5q0 -22 -12 -41t-31 -33.5t-42.5 -23t-45.5 -8.5l-5 -20q35 0 64 11t50 29t32.5 40.5
t11.5 45.5q0 19 -6 33t-14.5 23.5t-18 16t-16.5 9.5z" />
    <glyph glyph-name="questiondown" unicode="&#xbf;" horiz-adv-x="355" 
d="M60 68q0 37 15.5 73.5t43.5 68t67.5 54t88.5 31.5l19 84h-40l-11 -51q-49 -12 -91 -38t-72.5 -61t-47.5 -76.5t-17 -84.5q0 -33 8.5 -64.5t28 -58t52 -46t80.5 -26.5l9 40q-36 6 -61.5 20.5t-41.5 35.5t-23 46.5t-7 52.5zM261 430q0 -7 4.5 -14.5t15.5 -7.5q12 0 22.5 10
t10.5 27q0 7 -3.5 16t-16.5 9q-12 0 -22.5 -11t-10.5 -29z" />
    <glyph glyph-name="Agrave" unicode="&#xc0;" horiz-adv-x="440" 
d="M296 697l67 -71l13 11l-55 80zM68 0l53 96h250l13 -96h50l-78 620l-261 -474h-43l-17 -50h32l-53 -96h54zM327 471l36 -325h-214z" />
    <glyph glyph-name="Aacute" unicode="&#xc1;" horiz-adv-x="422" 
d="M395 708l-87 -86l11 -12l99 75zM68 0l53 96h250l13 -96h50l-78 620l-261 -474h-43l-17 -50h32l-53 -96h54zM327 471l36 -325h-214z" />
    <glyph glyph-name="Acircumflex" unicode="&#xc2;" horiz-adv-x="440" 
d="M366 671l76 -44l17 20l-89 50l-108 -49l9 -21zM68 0l53 96h250l13 -96h50l-78 620l-261 -474h-43l-17 -50h32l-53 -96h54zM327 471l36 -325h-214z" />
    <glyph glyph-name="Atilde" unicode="&#xc3;" horiz-adv-x="440" 
d="M250 627h30q2 10 12.5 14t24.5 4q11 0 18 -2.5t15 -6.5t17 -7t23 -3q21 0 40.5 10.5t24.5 35.5h-30q-3 -18 -32 -18q-12 0 -21 3t-17 7t-16 6.5t-20 2.5q-24 0 -43.5 -11.5t-25.5 -34.5zM68 0l53 96h250l13 -96h50l-78 620l-261 -474h-43l-17 -50h32l-53 -96h54zM327 471
l36 -325h-214z" />
    <glyph glyph-name="Adieresis" unicode="&#xc4;" horiz-adv-x="440" 
d="M326 668q0 7 -4.5 14.5t-15.5 7.5q-12 0 -22.5 -10t-10.5 -27q0 -7 3.5 -16t16.5 -9q12 0 22.5 11t10.5 29zM449 668q0 7 -4.5 14.5t-15.5 7.5q-12 0 -22.5 -10t-10.5 -27q0 -7 3.5 -16t16.5 -9q12 0 22.5 11t10.5 29zM68 0l53 96h250l13 -96h50l-78 620l-261 -474h-43
l-17 -50h32l-53 -96h54zM327 471l36 -325h-214z" />
    <glyph glyph-name="Aring" unicode="&#xc5;" horiz-adv-x="440" 
d="M323 661q0 -13 8.5 -23t26.5 -10q22 0 33.5 14t11.5 30q0 13 -8.5 23t-26.5 10q-22 0 -33.5 -14t-11.5 -30zM335 662q0 11 8 21.5t23 10.5q13 0 19 -7t6 -16q0 -11 -8.5 -21.5t-23.5 -10.5q-13 0 -18.5 6.5t-5.5 16.5zM68 0l53 96h250l13 -96h50l-78 620l-261 -474h-43
l-17 -50h32l-53 -96h54zM327 471l36 -325h-214z" />
    <glyph glyph-name="AE" unicode="&#xc6;" horiz-adv-x="575" 
d="M5 0h56l315 437h52l-49 -232q-6 -29 -6 -54q0 -72 45.5 -113.5t133.5 -41.5l10 45q-68 0 -104.5 28.5t-36.5 81.5q0 19 4 35l53 251h168l11 50h-168l12 58h168l10 50h-240zM439 487h-31l43 60z" />
    <glyph glyph-name="Ccedilla" unicode="&#xc7;" horiz-adv-x="290" 
d="M90 245q0 -72 22.5 -125.5t68.5 -85.5q-2 -6 -7.5 -24t-15 -41t-24.5 -48t-34 -46l34 -22q21 19 36 43.5t25.5 47.5t17 41.5t8.5 26.5q11 -4 23 -7.5t25 -5.5l10 50q-70 14 -104.5 67t-34.5 128q0 57 20.5 108t54 91.5t78 67.5t92.5 37l11 50q-64 -11 -119.5 -43.5
t-97 -79.5t-65.5 -106t-24 -124z" />
    <glyph glyph-name="Egrave" unicode="&#xc8;" horiz-adv-x="305" 
d="M234 691l67 -71l13 11l-55 80zM373 487h-168l12 58h168l10 50h-218l-22 -108h-19l-11 -50h19l-45 -214q-8 -38 -8 -66q0 -75 44.5 -118t132.5 -43l11 50q-72 0 -105 31.5t-33 87.5q0 13 2 27t5 30l46 215h168z" />
    <glyph glyph-name="Eacute" unicode="&#xc9;" horiz-adv-x="305" 
d="M361 708l-87 -86l11 -12l99 75zM373 487h-168l12 58h168l10 50h-218l-22 -108h-19l-11 -50h19l-45 -214q-8 -38 -8 -66q0 -75 44.5 -118t132.5 -43l11 50q-72 0 -105 31.5t-33 87.5q0 13 2 27t5 30l46 215h168z" />
    <glyph glyph-name="Ecircumflex" unicode="&#xca;" horiz-adv-x="305" 
d="M302 671l76 -44l17 20l-89 50l-108 -49l9 -21zM373 487h-168l12 58h168l10 50h-218l-22 -108h-19l-11 -50h19l-45 -214q-8 -38 -8 -66q0 -75 44.5 -118t132.5 -43l11 50q-72 0 -105 31.5t-33 87.5q0 13 2 27t5 30l46 215h168z" />
    <glyph glyph-name="Edieresis" unicode="&#xcb;" horiz-adv-x="305" 
d="M270 668q0 7 -4.5 14.5t-15.5 7.5q-12 0 -22.5 -10t-10.5 -27q0 -7 3.5 -16t16.5 -9q12 0 22.5 11t10.5 29zM393 668q0 7 -4.5 14.5t-15.5 7.5q-12 0 -22.5 -10t-10.5 -27q0 -7 3.5 -16t16.5 -9q12 0 22.5 11t10.5 29zM373 487h-168l12 58h168l10 50h-218l-22 -108h-19
l-11 -50h19l-45 -214q-8 -38 -8 -66q0 -75 44.5 -118t132.5 -43l11 50q-72 0 -105 31.5t-33 87.5q0 13 2 27t5 30l46 215h168z" />
    <glyph glyph-name="Igrave" unicode="&#xcc;" horiz-adv-x="170" 
d="M132 687l67 -71l13 11l-55 80zM61 0h50l126 595h-50z" />
    <glyph glyph-name="Iacute" unicode="&#xcd;" horiz-adv-x="170" 
d="M295 708l-87 -86l11 -12l99 75zM61 0h50l126 595h-50z" />
    <glyph glyph-name="Icircumflex" unicode="&#xce;" horiz-adv-x="166" 
d="M226 671l68 -40l17 20l-81 46l-98 -45l9 -21zM61 0h50l126 595h-50z" />
    <glyph glyph-name="Idieresis" unicode="&#xcf;" horiz-adv-x="160" 
d="M188 668q0 7 -4.5 14.5t-15.5 7.5q-12 0 -22.5 -10t-10.5 -27q0 -7 3.5 -16t16.5 -9q12 0 22.5 11t10.5 29zM311 668q0 7 -4.5 14.5t-15.5 7.5q-12 0 -22.5 -10t-10.5 -27q0 -7 3.5 -16t16.5 -9q12 0 22.5 11t10.5 29zM61 0h50l126 595h-50z" />
    <glyph glyph-name="Eth" unicode="&#xd0;" horiz-adv-x="365" 
d="M135 596l-127 -596q74 0 148.5 15.5t134.5 53t97.5 100.5t37.5 159q0 61 -22 108t-60.5 80.5t-92 53.5t-116.5 26zM376 328q0 -57 -15.5 -99t-41 -72.5t-58.5 -50.5t-67 -32t-66.5 -17.5t-58.5 -6.5l105 494q35 -5 71 -20t65 -42t47.5 -65.5t18.5 -88.5z" />
    <glyph glyph-name="Ntilde" unicode="&#xd1;" horiz-adv-x="462" 
d="M265 627h30q2 10 12.5 14t24.5 4q11 0 18 -2.5t15 -6.5t17 -7t23 -3q21 0 40.5 10.5t24.5 35.5h-30q-3 -18 -32 -18q-12 0 -21 3t-17 7t-16 6.5t-20 2.5q-24 0 -43.5 -11.5t-25.5 -34.5zM43 0h50l115 543q30 -2 65.5 -12.5t70.5 -27.5t67 -38.5t56 -44.5l-89 -420h50
l126 595h-50l-25 -119q-23 22 -58 43t-77 37.5t-87 26.5t-88 12z" />
    <glyph glyph-name="Ograve" unicode="&#xd2;" horiz-adv-x="665" 
d="M394 689l67 -71l13 11l-55 80zM428 605q-73 0 -134.5 -28.5t-106.5 -75.5t-70.5 -108.5t-25.5 -128.5q0 -59 17 -108.5t50.5 -86t83 -57t113.5 -20.5q73 0 134.5 29t106.5 77t70.5 110t25.5 129q0 58 -17 107t-50.5 85t-83 56t-113.5 20zM421 554q107 0 164 -59.5
t57 -158.5q0 -56 -22 -109t-60 -94t-89 -65.5t-109 -24.5q-108 0 -164.5 59.5t-56.5 161.5q0 55 22 107.5t60 93t89 65t109 24.5z" />
    <glyph glyph-name="Oacute" unicode="&#xd3;" horiz-adv-x="665" 
d="M503 708l-87 -86l11 -12l99 75zM428 605q-73 0 -134.5 -28.5t-106.5 -75.5t-70.5 -108.5t-25.5 -128.5q0 -59 17 -108.5t50.5 -86t83 -57t113.5 -20.5q73 0 134.5 29t106.5 77t70.5 110t25.5 129q0 58 -17 107t-50.5 85t-83 56t-113.5 20zM421 554q107 0 164 -59.5
t57 -158.5q0 -56 -22 -109t-60 -94t-89 -65.5t-109 -24.5q-108 0 -164.5 59.5t-56.5 161.5q0 55 22 107.5t60 93t89 65t109 24.5z" />
    <glyph glyph-name="Ocircumflex" unicode="&#xd4;" horiz-adv-x="665" 
d="M441 671l69 -37l16 17l-81 46l-104 -47l17 -15zM428 605q-73 0 -134.5 -28.5t-106.5 -75.5t-70.5 -108.5t-25.5 -128.5q0 -59 17 -108.5t50.5 -86t83 -57t113.5 -20.5q73 0 134.5 29t106.5 77t70.5 110t25.5 129q0 58 -17 107t-50.5 85t-83 56t-113.5 20zM421 554
q107 0 164 -59.5t57 -158.5q0 -56 -22 -109t-60 -94t-89 -65.5t-109 -24.5q-108 0 -164.5 59.5t-56.5 161.5q0 55 22 107.5t60 93t89 65t109 24.5z" />
    <glyph glyph-name="Otilde" unicode="&#xd5;" horiz-adv-x="665" 
d="M328 627h30q2 10 12.5 14t24.5 4q11 0 18 -2.5t15 -6.5t17 -7t23 -3q21 0 40.5 10.5t24.5 35.5h-30q-3 -18 -32 -18q-12 0 -21 3t-17 7t-16 6.5t-20 2.5q-24 0 -43.5 -11.5t-25.5 -34.5zM428 605q-73 0 -134.5 -28.5t-106.5 -75.5t-70.5 -108.5t-25.5 -128.5
q0 -59 17 -108.5t50.5 -86t83 -57t113.5 -20.5q73 0 134.5 29t106.5 77t70.5 110t25.5 129q0 58 -17 107t-50.5 85t-83 56t-113.5 20zM421 554q107 0 164 -59.5t57 -158.5q0 -56 -22 -109t-60 -94t-89 -65.5t-109 -24.5q-108 0 -164.5 59.5t-56.5 161.5q0 55 22 107.5t60 93
t89 65t109 24.5z" />
    <glyph glyph-name="Odieresis" unicode="&#xd6;" horiz-adv-x="666" 
d="M420 668q0 7 -4.5 14.5t-15.5 7.5q-12 0 -22.5 -10t-10.5 -27q0 -7 3.5 -16t16.5 -9q12 0 22.5 11t10.5 29zM543 668q0 7 -4.5 14.5t-15.5 7.5q-12 0 -22.5 -10t-10.5 -27q0 -7 3.5 -16t16.5 -9q12 0 22.5 11t10.5 29zM428 605q-73 0 -134.5 -28.5t-106.5 -75.5
t-70.5 -108.5t-25.5 -128.5q0 -59 17 -108.5t50.5 -86t83 -57t113.5 -20.5q73 0 134.5 29t106.5 77t70.5 110t25.5 129q0 58 -17 107t-50.5 85t-83 56t-113.5 20zM421 554q107 0 164 -59.5t57 -158.5q0 -56 -22 -109t-60 -94t-89 -65.5t-109 -24.5q-108 0 -164.5 59.5
t-56.5 161.5q0 55 22 107.5t60 93t89 65t109 24.5z" />
    <glyph glyph-name="multiply" unicode="&#xd7;" horiz-adv-x="361" 
d="M67 413l-33 -22l123 -183l-125 -185l33 -23l117 173l117 -173l34 21l-126 188l123 183l-34 21l-114 -171z" />
    <glyph glyph-name="Oslash" unicode="&#xd8;" horiz-adv-x="648" 
d="M575 641l-35 -56q-54 20 -124 20q-68 0 -127 -29t-103 -77t-69.5 -109.5t-25.5 -125.5q0 -75 27.5 -134.5t81.5 -94.5l-37 -60l40 -23l38 61q49 -21 114 -21q73 0 134.5 29t106.5 77t70.5 110t25.5 129q0 71 -26 131.5t-84 95.5l34 55zM269 58l285 462q49 -31 69 -79.5
t20 -104.5t-22 -109t-60.5 -94t-89.5 -65.5t-109 -24.5q-53 0 -93 15zM410 554q31 0 56 -3.5t46 -10.5l-285 -461q-42 28 -64 75t-22 110q0 55 21.5 107.5t58 93t85.5 65t104 24.5z" />
    <glyph glyph-name="Ugrave" unicode="&#xd9;" horiz-adv-x="365" 
d="M250 687l67 -71l13 11l-55 80zM225 595h-50l-93 -443q-2 -10 -3 -19.5t-1 -18.5q0 -51 31 -87t91 -36q37 0 65 11.5t47.5 32t32 48.5t19.5 61l95 451h-50l-93 -443q-5 -23 -13 -43t-20.5 -35t-31 -24t-44.5 -9q-42 0 -60 23t-18 56q0 15 3 32z" />
    <glyph glyph-name="Uacute" unicode="&#xda;" horiz-adv-x="360" 
d="M393 708l-87 -86l11 -12l99 75zM225 595h-50l-93 -443q-2 -10 -3 -19.5t-1 -18.5q0 -51 31 -87t91 -36q37 0 65 11.5t47.5 32t32 48.5t19.5 61l95 451h-50l-93 -443q-5 -23 -13 -43t-20.5 -35t-31 -24t-44.5 -9q-42 0 -60 23t-18 56q0 15 3 32z" />
    <glyph glyph-name="Ucircumflex" unicode="&#xdb;" horiz-adv-x="360" 
d="M326 671l68 -40l17 20l-81 46l-98 -45l9 -21zM225 595h-50l-93 -443q-2 -10 -3 -19.5t-1 -18.5q0 -51 31 -87t91 -36q37 0 65 11.5t47.5 32t32 48.5t19.5 61l95 451h-50l-93 -443q-5 -23 -13 -43t-20.5 -35t-31 -24t-44.5 -9q-42 0 -60 23t-18 56q0 15 3 32z" />
    <glyph glyph-name="Udieresis" unicode="&#xdc;" horiz-adv-x="365" 
d="M295 668q0 7 -4.5 14.5t-15.5 7.5q-12 0 -22.5 -10t-10.5 -27q0 -7 3.5 -16t16.5 -9q12 0 22.5 11t10.5 29zM418 668q0 7 -4.5 14.5t-15.5 7.5q-12 0 -22.5 -10t-10.5 -27q0 -7 3.5 -16t16.5 -9q12 0 22.5 11t10.5 29zM225 595h-50l-93 -443q-2 -10 -3 -19.5t-1 -18.5
q0 -51 31 -87t91 -36q37 0 65 11.5t47.5 32t32 48.5t19.5 61l95 451h-50l-93 -443q-5 -23 -13 -43t-20.5 -35t-31 -24t-44.5 -9q-42 0 -60 23t-18 56q0 15 3 32z" />
    <glyph glyph-name="Yacute" unicode="&#xdd;" horiz-adv-x="375" 
d="M290 470l-97 125h-59l124 -160l-93 -435h50l92 430l194 165h-63zM391 708l-87 -86l11 -12l99 75z" />
    <glyph glyph-name="Thorn" unicode="&#xde;" horiz-adv-x="315" 
d="M41 0h50l23 108q42 3 86.5 16.5t81 39t60.5 65.5t24 96q0 41 -13.5 72.5t-36 54t-53 37.5t-63.5 23l18 84h-50zM316 325q0 -48 -20 -80t-49 -50.5t-62 -27t-60 -10.5l65 306q17 -3 39 -11.5t41.5 -25t32.5 -41t13 -60.5z" />
    <glyph glyph-name="germandbls" unicode="&#xdf;" horiz-adv-x="390" 
d="M307 600q-61 0 -99.5 -37.5t-50.5 -96.5l-30 -141h-25l-10 -45h25l-59 -280h45l96 455q10 46 34.5 73t70.5 27q25 0 41.5 -6.5t26.5 -18t14 -27t4 -34.5q0 -23 -9.5 -46t-29 -41.5t-48.5 -30t-68 -11.5l-9 -41q40 0 66 -8.5t41.5 -22t22 -31.5t6.5 -37q0 -36 -14 -64.5
t-39 -48.5t-59 -31t-74 -11l-9 -45q50 0 93.5 12t76 36.5t51.5 62t19 89.5q0 48 -22 79.5t-64 42.5q48 14 81 53.5t33 93.5q0 58 -31 94.5t-97 36.5z" />
    <glyph glyph-name="agrave" unicode="&#xe0;" 
d="M192 467l83 -89l17 14l-69 99zM151 306l19 -36q17 11 34 18t43 7q30 0 47 -15.5t17 -38.5q0 -8 -1 -13l-5 -24q-3 5 -8 12.5t-16.5 15t-29.5 12.5t-46 5q-30 0 -57.5 -12t-48.5 -31.5t-33.5 -45t-12.5 -52.5q0 -48 28 -81t87 -33q41 0 64.5 14t36.5 27l-7 -35h45l49 229
q2 6 2 11v11q0 39 -27.5 64t-72.5 25q-41 0 -65.5 -10t-41.5 -24zM101 108q0 19 7.5 36.5t21 31t31.5 21.5t39 8q43 0 60.5 -21t17.5 -46q0 -20 -8.5 -38.5t-22.5 -32.5t-32.5 -22t-37.5 -8q-41 0 -58.5 21t-17.5 50z" />
    <glyph glyph-name="aacute" unicode="&#xe1;" 
d="M359 483l-105 -103l11 -14l119 89zM151 306l19 -36q17 11 34 18t43 7q30 0 47 -15.5t17 -38.5q0 -8 -1 -13l-5 -24q-3 5 -8 12.5t-16.5 15t-29.5 12.5t-46 5q-30 0 -57.5 -12t-48.5 -31.5t-33.5 -45t-12.5 -52.5q0 -48 28 -81t87 -33q41 0 64.5 14t36.5 27l-7 -35h45
l49 229q2 6 2 11v11q0 39 -27.5 64t-72.5 25q-41 0 -65.5 -10t-41.5 -24zM101 108q0 19 7.5 36.5t21 31t31.5 21.5t39 8q43 0 60.5 -21t17.5 -46q0 -20 -8.5 -38.5t-22.5 -32.5t-32.5 -22t-37.5 -8q-41 0 -58.5 21t-17.5 50z" />
    <glyph glyph-name="acircumflex" unicode="&#xe2;" 
d="M284 429l76 -44l17 20l-89 50l-108 -49l9 -21zM151 306l19 -36q17 11 34 18t43 7q30 0 47 -15.5t17 -38.5q0 -8 -1 -13l-5 -24q-3 5 -8 12.5t-16.5 15t-29.5 12.5t-46 5q-30 0 -57.5 -12t-48.5 -31.5t-33.5 -45t-12.5 -52.5q0 -48 28 -81t87 -33q41 0 64.5 14t36.5 27
l-7 -35h45l49 229q2 6 2 11v11q0 39 -27.5 64t-72.5 25q-41 0 -65.5 -10t-41.5 -24zM101 108q0 19 7.5 36.5t21 31t31.5 21.5t39 8q43 0 60.5 -21t17.5 -46q0 -20 -8.5 -38.5t-22.5 -32.5t-32.5 -22t-37.5 -8q-41 0 -58.5 21t-17.5 50z" />
    <glyph glyph-name="atilde" unicode="&#xe3;" 
d="M180 392h30q2 10 12.5 14t24.5 4q11 0 18 -2.5t15 -6.5t17 -7t23 -3q21 0 40.5 10.5t24.5 35.5h-30q-3 -18 -32 -18q-12 0 -21 3t-17 7t-16 6.5t-20 2.5q-24 0 -43.5 -11.5t-25.5 -34.5zM151 306l19 -36q17 11 34 18t43 7q30 0 47 -15.5t17 -38.5q0 -8 -1 -13l-5 -24
q-3 5 -8 12.5t-16.5 15t-29.5 12.5t-46 5q-30 0 -57.5 -12t-48.5 -31.5t-33.5 -45t-12.5 -52.5q0 -48 28 -81t87 -33q41 0 64.5 14t36.5 27l-7 -35h45l49 229q2 6 2 11v11q0 39 -27.5 64t-72.5 25q-41 0 -65.5 -10t-41.5 -24zM101 108q0 19 7.5 36.5t21 31t31.5 21.5t39 8
q43 0 60.5 -21t17.5 -46q0 -20 -8.5 -38.5t-22.5 -32.5t-32.5 -22t-37.5 -8q-41 0 -58.5 21t-17.5 50z" />
    <glyph glyph-name="adieresis" unicode="&#xe4;" 
d="M248 416q0 7 -4.5 14.5t-15.5 7.5q-12 0 -22.5 -10t-10.5 -27q0 -7 3.5 -16t16.5 -9q12 0 22.5 11t10.5 29zM371 416q0 7 -4.5 14.5t-15.5 7.5q-12 0 -22.5 -10t-10.5 -27q0 -7 3.5 -16t16.5 -9q12 0 22.5 11t10.5 29zM151 306l19 -36q17 11 34 18t43 7q30 0 47 -15.5
t17 -38.5q0 -8 -1 -13l-5 -24q-3 5 -8 12.5t-16.5 15t-29.5 12.5t-46 5q-30 0 -57.5 -12t-48.5 -31.5t-33.5 -45t-12.5 -52.5q0 -48 28 -81t87 -33q41 0 64.5 14t36.5 27l-7 -35h45l49 229q2 6 2 11v11q0 39 -27.5 64t-72.5 25q-41 0 -65.5 -10t-41.5 -24zM101 108
q0 19 7.5 36.5t21 31t31.5 21.5t39 8q43 0 60.5 -21t17.5 -46q0 -20 -8.5 -38.5t-22.5 -32.5t-32.5 -22t-37.5 -8q-41 0 -58.5 21t-17.5 50z" />
    <glyph glyph-name="aring" unicode="&#xe5;" 
d="M234 413q0 -17 10.5 -29.5t33.5 -12.5q27 0 41.5 17.5t14.5 37.5q0 17 -10.5 29.5t-33.5 12.5q-27 0 -41.5 -17.5t-14.5 -37.5zM249 414q0 14 10 27t29 13q16 0 23.5 -9t7.5 -20q0 -14 -10.5 -27t-29.5 -13q-16 0 -23 8.5t-7 20.5zM151 306l19 -36q17 11 34 18t43 7
q30 0 47 -15.5t17 -38.5q0 -8 -1 -13l-5 -24q-3 5 -8 12.5t-16.5 15t-29.5 12.5t-46 5q-30 0 -57.5 -12t-48.5 -31.5t-33.5 -45t-12.5 -52.5q0 -48 28 -81t87 -33q41 0 64.5 14t36.5 27l-7 -35h45l49 229q2 6 2 11v11q0 39 -27.5 64t-72.5 25q-41 0 -65.5 -10t-41.5 -24z
M101 108q0 19 7.5 36.5t21 31t31.5 21.5t39 8q43 0 60.5 -21t17.5 -46q0 -20 -8.5 -38.5t-22.5 -32.5t-32.5 -22t-37.5 -8q-41 0 -58.5 21t-17.5 50z" />
    <glyph glyph-name="ae" unicode="&#xe6;" horiz-adv-x="542" 
d="M494 332q-40 0 -76 -15t-63 -42q-8 29 -33.5 47t-63.5 18q-41 0 -65.5 -10t-41.5 -24l19 -36q17 11 34 18t43 7q30 0 47 -15.5t17 -38.5q0 -8 -1 -13l-5 -24q-3 5 -8 12.5t-16.5 15t-29.5 12.5t-46 5q-30 0 -57.5 -12t-48.5 -31.5t-33.5 -45t-12.5 -52.5q0 -48 28 -81
t87 -33q41 0 64.5 14t36.5 27l-7 -35h45l12 57q14 -23 36.5 -40t54.5 -22l9 45q-30 6 -49.5 26.5t-24.5 49.5l269 162q-15 21 -45 37.5t-75 16.5zM101 108q0 19 7.5 36.5t21 31t31.5 21.5t39 8q43 0 60.5 -21t17.5 -46q0 -20 -8.5 -38.5t-22.5 -32.5t-32.5 -22t-37.5 -8
q-41 0 -58.5 21t-17.5 50zM539 280l-197 -118q6 30 21 53.5t35.5 39.5t45 24t50.5 8q24 0 45 -7z" />
    <glyph glyph-name="ccedilla" unicode="&#xe7;" horiz-adv-x="197" 
d="M70 -118q16 15 26 34t16.5 38t9.5 34.5t4 21.5q15 -8 36 -13l10 45q-20 4 -33.5 14t-22 23t-12 28t-3.5 30q0 28 9.5 53t26 44.5t39 32t48.5 17.5l9 46q-38 -5 -70.5 -22t-56 -42.5t-37 -58.5t-13.5 -70q0 -29 9.5 -56.5t29.5 -47.5q-1 -7 -3.5 -22t-8 -34t-15 -39
t-24.5 -36z" />
    <glyph glyph-name="egrave" unicode="&#xe8;" horiz-adv-x="318" 
d="M196 467l83 -89l17 14l-69 99zM59 134q0 -23 7 -45.5t20.5 -42t34.5 -33t50 -18.5l9 45q-30 6 -49.5 26.5t-24.5 49.5l269 162q-15 21 -45 37.5t-75 16.5q-39 0 -74.5 -14.5t-62.5 -40.5t-43 -62.5t-16 -80.5zM300 280l-197 -118q6 30 21 53.5t35.5 39.5t45 24t50.5 8
q24 0 45 -7z" />
    <glyph glyph-name="eacute" unicode="&#xe9;" horiz-adv-x="318" 
d="M351 483l-105 -103l11 -14l119 89zM59 134q0 -23 7 -45.5t20.5 -42t34.5 -33t50 -18.5l9 45q-30 6 -49.5 26.5t-24.5 49.5l269 162q-15 21 -45 37.5t-75 16.5q-39 0 -74.5 -14.5t-62.5 -40.5t-43 -62.5t-16 -80.5zM300 280l-197 -118q6 30 21 53.5t35.5 39.5t45 24
t50.5 8q24 0 45 -7z" />
    <glyph glyph-name="ecircumflex" unicode="&#xea;" horiz-adv-x="318" 
d="M280 429l76 -44l17 20l-89 50l-108 -49l9 -21zM59 134q0 -23 7 -45.5t20.5 -42t34.5 -33t50 -18.5l9 45q-30 6 -49.5 26.5t-24.5 49.5l269 162q-15 21 -45 37.5t-75 16.5q-39 0 -74.5 -14.5t-62.5 -40.5t-43 -62.5t-16 -80.5zM300 280l-197 -118q6 30 21 53.5t35.5 39.5
t45 24t50.5 8q24 0 45 -7z" />
    <glyph glyph-name="edieresis" unicode="&#xeb;" horiz-adv-x="318" 
d="M231 416q0 7 -4.5 14.5t-15.5 7.5q-12 0 -22.5 -10t-10.5 -27q0 -7 3.5 -16t16.5 -9q12 0 22.5 11t10.5 29zM354 416q0 7 -4.5 14.5t-15.5 7.5q-12 0 -22.5 -10t-10.5 -27q0 -7 3.5 -16t16.5 -9q12 0 22.5 11t10.5 29zM59 134q0 -23 7 -45.5t20.5 -42t34.5 -33t50 -18.5
l9 45q-30 6 -49.5 26.5t-24.5 49.5l269 162q-15 21 -45 37.5t-75 16.5q-39 0 -74.5 -14.5t-62.5 -40.5t-43 -62.5t-16 -80.5zM300 280l-197 -118q6 30 21 53.5t35.5 39.5t45 24t50.5 8q24 0 45 -7z" />
    <glyph glyph-name="igrave" unicode="&#xec;" horiz-adv-x="165" 
d="M76 467l83 -89l17 14l-69 99zM67 0h45l69 325h-45z" />
    <glyph glyph-name="iacute" unicode="&#xed;" horiz-adv-x="160" 
d="M255 483l-105 -103l11 -14l119 89zM67 0h45l69 325h-45z" />
    <glyph glyph-name="icircumflex" unicode="&#xee;" horiz-adv-x="164" 
d="M174 429l76 -44l17 20l-89 50l-108 -49l9 -21zM67 0h45l69 325h-45z" />
    <glyph glyph-name="idieresis" unicode="&#xef;" horiz-adv-x="166" 
d="M67 0h45l69 325h-45zM135 416q0 7 -4.5 14.5t-15.5 7.5q-12 0 -22.5 -10t-10.5 -27q0 -7 3.5 -16t16.5 -9q12 0 22.5 11t10.5 29zM258 416q0 7 -4.5 14.5t-15.5 7.5q-12 0 -22.5 -10t-10.5 -27q0 -7 3.5 -16t16.5 -9q12 0 22.5 11t10.5 29z" />
    <glyph glyph-name="eth" unicode="&#xf0;" horiz-adv-x="399" 
d="M104 148q0 25 9 50t26.5 44.5t43.5 32t59 12.5q29 0 50 -9t35 -24.5t20.5 -35.5t6.5 -41q0 -25 -9 -50t-26.5 -44.5t-43.5 -32t-59 -12.5q-29 0 -50 9t-35 24.5t-20.5 35.5t-6.5 41zM260 483q33 -38 53 -85t28 -95q-18 14 -42 21.5t-54 7.5q-45 0 -80 -16.5t-58.5 -43.5
t-35.5 -60.5t-12 -67.5q0 -29 9.5 -56.5t28 -48.5t47.5 -33.5t68 -12.5q45 0 80 16.5t58.5 43.5t35.5 60.5t12 67.5q0 106 -25 190.5t-79 145.5l56 55l-31 31l-57 -56q-32 26 -71.5 40.5t-89.5 14.5v-45q38 0 69.5 -12t57.5 -32l-53 -53l31 -31z" />
    <glyph glyph-name="ntilde" unicode="&#xf1;" horiz-adv-x="380" 
d="M164 392h30q2 10 12.5 14t24.5 4q11 0 18 -2.5t15 -6.5t17 -7t23 -3q21 0 40.5 10.5t24.5 35.5h-30q-3 -18 -32 -18q-12 0 -21 3t-17 7t-16 6.5t-20 2.5q-24 0 -43.5 -11.5t-25.5 -34.5zM264 333q-28 0 -47.5 -4t-34 -10.5t-23.5 -14t-16 -14.5l7 35h-45l-69 -325h45
l41 192q3 16 14 33t28 31t39.5 23t50.5 9q44 0 67.5 -20t23.5 -54q0 -11 -3 -23l-41 -191h45l40 192q3 16 3 31q0 26 -10 46.5t-27 34.5t-40 21.5t-48 7.5z" />
    <glyph glyph-name="ograve" unicode="&#xf2;" horiz-adv-x="395" 
d="M198 467l83 -89l17 14l-69 99zM398 181q0 29 -9.5 56.5t-28 48.5t-47.5 33.5t-68 12.5q-45 0 -80 -16.5t-58.5 -43.5t-35.5 -60.5t-12 -67.5q0 -29 9.5 -56.5t28 -48.5t47.5 -33.5t68 -12.5q45 0 80 16.5t58.5 43.5t35.5 60.5t12 67.5zM104 148q0 25 9 50t26.5 44.5
t43.5 32t59 12.5q29 0 50 -9t35 -24.5t20.5 -35.5t6.5 -41q0 -25 -9 -50t-26.5 -44.5t-43.5 -32t-59 -12.5q-29 0 -50 9t-35 24.5t-20.5 35.5t-6.5 41z" />
    <glyph glyph-name="oacute" unicode="&#xf3;" horiz-adv-x="395" 
d="M357 483l-105 -103l11 -14l119 89zM398 181q0 29 -9.5 56.5t-28 48.5t-47.5 33.5t-68 12.5q-45 0 -80 -16.5t-58.5 -43.5t-35.5 -60.5t-12 -67.5q0 -29 9.5 -56.5t28 -48.5t47.5 -33.5t68 -12.5q45 0 80 16.5t58.5 43.5t35.5 60.5t12 67.5zM104 148q0 25 9 50t26.5 44.5
t43.5 32t59 12.5q29 0 50 -9t35 -24.5t20.5 -35.5t6.5 -41q0 -25 -9 -50t-26.5 -44.5t-43.5 -32t-59 -12.5q-29 0 -50 9t-35 24.5t-20.5 35.5t-6.5 41z" />
    <glyph glyph-name="ocircumflex" unicode="&#xf4;" horiz-adv-x="400" 
d="M284 429l76 -44l17 20l-89 50l-108 -49l9 -21zM398 181q0 29 -9.5 56.5t-28 48.5t-47.5 33.5t-68 12.5q-45 0 -80 -16.5t-58.5 -43.5t-35.5 -60.5t-12 -67.5q0 -29 9.5 -56.5t28 -48.5t47.5 -33.5t68 -12.5q45 0 80 16.5t58.5 43.5t35.5 60.5t12 67.5zM104 148q0 25 9 50
t26.5 44.5t43.5 32t59 12.5q29 0 50 -9t35 -24.5t20.5 -35.5t6.5 -41q0 -25 -9 -50t-26.5 -44.5t-43.5 -32t-59 -12.5q-29 0 -50 9t-35 24.5t-20.5 35.5t-6.5 41z" />
    <glyph glyph-name="otilde" unicode="&#xf5;" horiz-adv-x="400" 
d="M182 392h30q2 10 12.5 14t24.5 4q11 0 18 -2.5t15 -6.5t17 -7t23 -3q21 0 40.5 10.5t24.5 35.5h-30q-3 -18 -32 -18q-12 0 -21 3t-17 7t-16 6.5t-20 2.5q-24 0 -43.5 -11.5t-25.5 -34.5zM398 181q0 29 -9.5 56.5t-28 48.5t-47.5 33.5t-68 12.5q-45 0 -80 -16.5
t-58.5 -43.5t-35.5 -60.5t-12 -67.5q0 -29 9.5 -56.5t28 -48.5t47.5 -33.5t68 -12.5q45 0 80 16.5t58.5 43.5t35.5 60.5t12 67.5zM104 148q0 25 9 50t26.5 44.5t43.5 32t59 12.5q29 0 50 -9t35 -24.5t20.5 -35.5t6.5 -41q0 -25 -9 -50t-26.5 -44.5t-43.5 -32t-59 -12.5
q-29 0 -50 9t-35 24.5t-20.5 35.5t-6.5 41z" />
    <glyph glyph-name="odieresis" unicode="&#xf6;" horiz-adv-x="400" 
d="M242 416q0 7 -4.5 14.5t-15.5 7.5q-12 0 -22.5 -10t-10.5 -27q0 -7 3.5 -16t16.5 -9q12 0 22.5 11t10.5 29zM365 416q0 7 -4.5 14.5t-15.5 7.5q-12 0 -22.5 -10t-10.5 -27q0 -7 3.5 -16t16.5 -9q12 0 22.5 11t10.5 29zM398 181q0 29 -9.5 56.5t-28 48.5t-47.5 33.5
t-68 12.5q-45 0 -80 -16.5t-58.5 -43.5t-35.5 -60.5t-12 -67.5q0 -29 9.5 -56.5t28 -48.5t47.5 -33.5t68 -12.5q45 0 80 16.5t58.5 43.5t35.5 60.5t12 67.5zM104 148q0 25 9 50t26.5 44.5t43.5 32t59 12.5q29 0 50 -9t35 -24.5t20.5 -35.5t6.5 -41q0 -25 -9 -50t-26.5 -44.5
t-43.5 -32t-59 -12.5q-29 0 -50 9t-35 24.5t-20.5 35.5t-6.5 41z" />
    <glyph glyph-name="divide" unicode="&#xf7;" horiz-adv-x="345" 
d="M336 210l7 35h-242l-7 -35h242zM225 121q0 7 -4.5 14.5t-15.5 7.5q-12 0 -22.5 -10t-10.5 -27q0 -7 3.5 -16t16.5 -9q12 0 22.5 11t10.5 29zM270 354q0 7 -4.5 14.5t-15.5 7.5q-12 0 -22.5 -10t-10.5 -27q0 -7 3.5 -16t16.5 -9q12 0 22.5 11t10.5 29z" />
    <glyph glyph-name="oslash" unicode="&#xf8;" horiz-adv-x="385" 
d="M242 287q22 0 40 -6l-138 -222q-20 16 -30 39.5t-10 49.5q0 25 9 50t26.5 44.5t43.5 32t59 12.5zM330 357l-22 -36q-28 11 -63 11q-45 0 -80 -16.5t-58.5 -43.5t-35.5 -60.5t-12 -67.5q0 -37 15 -70t45 -54l-23 -38l34 -18l23 38q27 -9 59 -9q45 0 80 16.5t58.5 43.5
t35.5 60.5t12 67.5q0 36 -14 68.5t-43 53.5l22 36zM179 43l137 221q20 -16 29 -38.5t9 -48.5q0 -25 -9 -50t-26.5 -44.5t-43.5 -32t-59 -12.5q-19 0 -37 5z" />
    <glyph glyph-name="ugrave" unicode="&#xf9;" horiz-adv-x="370" 
d="M178 467l83 -89l17 14l-69 99zM106 325l-37 -179q-4 -17 -4 -37q0 -52 34 -85t97 -33t108.5 34.5t58.5 95.5l43 204h-45l-40 -188q-11 -51 -43 -76t-77 -25q-42 0 -67 20.5t-25 57.5v11t2 12l40 188h-45z" />
    <glyph glyph-name="uacute" unicode="&#xfa;" horiz-adv-x="370" 
d="M345 483l-105 -103l11 -14l119 89zM106 325l-37 -179q-4 -17 -4 -37q0 -52 34 -85t97 -33t108.5 34.5t58.5 95.5l43 204h-45l-40 -188q-11 -51 -43 -76t-77 -25q-42 0 -67 20.5t-25 57.5v11t2 12l40 188h-45z" />
    <glyph glyph-name="ucircumflex" unicode="&#xfb;" horiz-adv-x="385" 
d="M270 429l76 -44l17 20l-89 50l-108 -49l9 -21zM106 325l-37 -179q-4 -17 -4 -37q0 -52 34 -85t97 -33t108.5 34.5t58.5 95.5l43 204h-45l-40 -188q-11 -51 -43 -76t-77 -25q-42 0 -67 20.5t-25 57.5v11t2 12l40 188h-45z" />
    <glyph glyph-name="udieresis" unicode="&#xfc;" horiz-adv-x="345" 
d="M232 416q0 7 -4.5 14.5t-15.5 7.5q-12 0 -22.5 -10t-10.5 -27q0 -7 3.5 -16t16.5 -9q12 0 22.5 11t10.5 29zM355 416q0 7 -4.5 14.5t-15.5 7.5q-12 0 -22.5 -10t-10.5 -27q0 -7 3.5 -16t16.5 -9q12 0 22.5 11t10.5 29zM106 325l-37 -179q-4 -17 -4 -37q0 -52 34 -85
t97 -33t108.5 34.5t58.5 95.5l43 204h-45l-40 -188q-11 -51 -43 -76t-77 -25q-42 0 -67 20.5t-25 57.5v11t2 12l40 188h-45z" />
    <glyph glyph-name="yacute" unicode="&#xfd;" horiz-adv-x="286" 
d="M138 325h-47l46 -281l-208 -352h48l373 633h-48l-128 -219zM299 483l-105 -103l11 -14l119 89z" />
    <glyph glyph-name="thorn" unicode="&#xfe;" horiz-adv-x="425" 
d="M289 332q-42 0 -74.5 -14.5t-55.5 -37.5l75 350h-45l-200 -934h45l81 385q15 -38 49.5 -63t91.5 -25q45 0 80 16.5t58.5 43.5t35.5 60.5t12 67.5q0 29 -9.5 56.5t-28 48.5t-47.5 33.5t-68 12.5zM148 148q0 25 9 50t26.5 44.5t43.5 32t59 12.5q29 0 50 -9t35 -24.5
t20.5 -35.5t6.5 -41q0 -25 -9 -50t-26.5 -44.5t-43.5 -32t-59 -12.5q-29 0 -50 9t-35 24.5t-20.5 35.5t-6.5 41z" />
    <glyph glyph-name="ydieresis" unicode="&#xff;" horiz-adv-x="285" 
d="M198 416q0 7 -4.5 14.5t-15.5 7.5q-12 0 -22.5 -10t-10.5 -27q0 -7 3.5 -16t16.5 -9q12 0 22.5 11t10.5 29zM321 416q0 7 -4.5 14.5t-15.5 7.5q-12 0 -22.5 -10t-10.5 -27q0 -7 3.5 -16t16.5 -9q12 0 22.5 11t10.5 29zM138 325h-47l46 -281l-208 -352h48l373 633h-48
l-128 -219z" />
    <glyph glyph-name="OE" unicode="&#x152;" horiz-adv-x="865" 
d="M711 437l-19 -88q-2 52 -18 98.5t-49.5 81.5t-85 55.5t-123.5 20.5q-68 0 -127 -29t-103 -77t-69.5 -109.5t-25.5 -125.5q0 -59 17 -108.5t50.5 -86t83 -57t113.5 -20.5q53 0 100 15.5t86.5 43t69.5 64.5t50 80l-2 -11q-7 -43 2.5 -77.5t33 -59t59.5 -38t82 -13.5l10 48
q-41 0 -70 12t-46 33t-22 49t2 60l51 239h168l11 50h-168l12 58h168l10 50h-218l-22 -108h-19l-11 -50h19zM141 264q0 55 21.5 107.5t58 93t85.5 65t104 24.5q66 0 110.5 -18t72 -48t39 -69.5t11.5 -82.5q0 -56 -22 -109t-60.5 -94t-89.5 -65.5t-109 -24.5
q-108 0 -164.5 59.5t-56.5 161.5z" />
    <glyph glyph-name="oe" unicode="&#x153;" horiz-adv-x="625" 
d="M553 332q-51 0 -95 -24t-71 -66q-15 38 -50 64t-92 26q-45 0 -80 -16.5t-58.5 -43.5t-35.5 -60.5t-12 -67.5q0 -29 9.5 -56.5t28 -48.5t47.5 -33.5t68 -12.5q55 0 94 24t62 60q12 -30 37 -52.5t64 -29.5l9 45q-30 6 -49.5 26.5t-24.5 49.5l269 162q-15 21 -45 37.5
t-75 16.5zM104 148q0 25 9 50t26.5 44.5t43.5 32t59 12.5q29 0 50 -9t35 -24.5t20.5 -35.5t6.5 -41q0 -25 -9 -50t-26.5 -44.5t-43.5 -32t-59 -12.5q-29 0 -50 9t-35 24.5t-20.5 35.5t-6.5 41zM598 280l-197 -118q6 30 21 53.5t35.5 39.5t45 24t50.5 8q24 0 45 -7z" />
    <glyph glyph-name="Scaron" unicode="&#x160;" horiz-adv-x="282" 
d="M238 341q-20 19 -34 41t-14 50q0 31 11.5 54t30 38t41.5 22t46 7l10 50q-32 0 -65.5 -11.5t-61 -33.5t-45 -54t-17.5 -72t15 -67.5t39 -49.5q23 -22 43 -47.5t20 -58.5q0 -45 -21.5 -76t-53 -50.5t-67.5 -29t-65 -12.5l-11 -51q51 2 99 17t85.5 42.5t60.5 67.5t23 92
q0 44 -21 74.5t-48 57.5zM282 655l-76 44l-17 -20l88 -51l109 50l-9 21z" />
    <glyph glyph-name="scaron" unicode="&#x161;" horiz-adv-x="208" 
d="M162 188q-11 12 -19 22.5t-8 23.5q0 22 17 34.5t43 12.5l9 45q-51 0 -82.5 -27t-31.5 -65q0 -23 10.5 -40.5t25.5 -33.5q13 -13 23 -26t10 -30q0 -15 -10.5 -27.5t-27 -22t-37.5 -14.5t-41 -5l-10 -44q30 0 60.5 7t55 21t40 35t15.5 50t-13 48t-29 36zM167 390l-76 44
l-17 -20l88 -51l109 50l-9 21z" />
    <glyph glyph-name="Ydieresis" unicode="&#x178;" horiz-adv-x="345" 
d="M292 668q0 7 -4.5 14.5t-15.5 7.5q-12 0 -22.5 -10t-10.5 -27q0 -7 3.5 -16t16.5 -9q12 0 22.5 11t10.5 29zM415 668q0 7 -4.5 14.5t-15.5 7.5q-12 0 -22.5 -10t-10.5 -27q0 -7 3.5 -16t16.5 -9q12 0 22.5 11t10.5 29zM290 470l-97 125h-59l124 -160l-93 -435h50l92 430
l194 165h-63z" />
    <glyph glyph-name="florin" unicode="&#x192;" horiz-adv-x="534" 
d="M566 415h-416l-88 -415h416z" />
    <glyph glyph-name="circumflex" unicode="&#x2c6;" horiz-adv-x="305" 
d="M174 429l76 -44l17 20l-89 50l-108 -49l9 -21z" />
    <glyph glyph-name="tilde" unicode="&#x2dc;" horiz-adv-x="300" 
d="M54 392h30q2 10 12.5 14t24.5 4q11 0 18 -2.5t15 -6.5t17 -7t23 -3q21 0 40.5 10.5t24.5 35.5h-30q-3 -18 -32 -18q-12 0 -21 3t-17 7t-16 6.5t-20 2.5q-24 0 -43.5 -11.5t-25.5 -34.5z" />
    <glyph glyph-name="endash" unicode="&#x2013;" horiz-adv-x="370" 
d="M386 210l7 35h-302l-7 -35h302z" />
    <glyph glyph-name="emdash" unicode="&#x2014;" horiz-adv-x="595" 
d="M591 210l7 36h-482l-7 -36h482z" />
    <glyph glyph-name="quoteleft" unicode="&#x2018;" horiz-adv-x="118" 
d="M163 621l-25 -8l41 -125l25 8z" />
    <glyph glyph-name="quoteright" unicode="&#x2019;" horiz-adv-x="118" 
d="M126 504l21 -15l83 110l-20 16z" />
    <glyph glyph-name="quotesinglbase" unicode="&#x201a;" horiz-adv-x="120" 
d="M42 1l21 -15l83 110l-20 16z" />
    <glyph glyph-name="quotedblleft" unicode="&#x201c;" horiz-adv-x="155" 
d="M122 621l-25 -8l41 -125l25 8zM189 621l-25 -8l41 -125l25 8z" />
    <glyph glyph-name="quotedblright" unicode="&#x201d;" horiz-adv-x="182" 
d="M130 511l21 -15l83 110l-20 16zM199 504l21 -15l83 110l-20 16z" />
    <glyph glyph-name="quotedblbase" unicode="&#x201e;" horiz-adv-x="218" 
d="M52 1l21 -15l83 110l-20 16zM121 -6l21 -15l83 110l-20 16z" />
    <glyph glyph-name="dagger" unicode="&#x2020;" horiz-adv-x="164" 
d="M226 623h-15l-24 -114h-36l-3 -15h36l-55 -251h15l55 251h36l3 15h-36z" />
    <glyph glyph-name="daggerdbl" unicode="&#x2021;" horiz-adv-x="160" 
d="M142 503h44l-19 -95h-44l-3 -15h44l-47 -225h15l47 225h40l3 15h-40l19 95h40l3 15h-40l22 105h-15l-22 -105h-44z" />
    <glyph glyph-name="bullet" unicode="&#x2022;" horiz-adv-x="290" 
d="M307 227q0 46 -28 75.5t-74 29.5q-24 0 -46.5 -9.5t-39 -25t-26.5 -37t-10 -45.5q0 -45 28 -74.5t76 -29.5q26 0 48 10t38 26t25 37t9 43z" />
    <glyph glyph-name="ellipsis" unicode="&#x2026;" horiz-adv-x="365" 
d="M99 39q0 7 -4.5 14.5t-15.5 7.5q-12 0 -22.5 -10t-10.5 -27q0 -7 3.5 -16t16.5 -9q12 0 22.5 11t10.5 29zM221 39q0 7 -4.5 14.5t-15.5 7.5q-12 0 -22.5 -10t-10.5 -27q0 -7 3.5 -16t16.5 -9q12 0 22.5 11t10.5 29zM341 39q0 7 -4.5 14.5t-15.5 7.5q-12 0 -22.5 -10
t-10.5 -27q0 -7 3.5 -16t16.5 -9q12 0 22.5 11t10.5 29z" />
    <glyph glyph-name="perthousand" unicode="&#x2030;" horiz-adv-x="305" 
d="M40 0h52l37 172q0 -94 42 -161.5t122 -109.5l11 50q-71 44 -101 106.5t-30 137.5q38 7 75.5 25t67.5 45.5t48.5 64t18.5 81.5q0 49 -17.5 84t-47.5 57.5t-69 33t-82 10.5zM333 411q0 -38 -16 -69.5t-43 -54.5t-61.5 -37t-71.5 -17l67 313q25 -3 47.5 -11.5t39.5 -24
t27.5 -40t10.5 -59.5z" />
    <glyph glyph-name="guilsinglleft" unicode="&#x2039;" horiz-adv-x="160" 
d="M98 185l99 150h-35l-99 -150l49 -150h35z" />
    <glyph glyph-name="guilsinglright" unicode="&#x203a;" horiz-adv-x="155" 
d="M175 185l-50 150h-35l50 -150l-98 -150h35z" />
    <glyph glyph-name="trademark" unicode="&#x2122;" horiz-adv-x="430" 
d="M277 602h-107l-1 -6h50l-32 -151h7l32 151h50zM308 604l-69 -158h7l59 134l18 -142l79 141v-133h7v158l-82 -144z" />
    <glyph glyph-name="NUL" unicode="&#xe000;" horiz-adv-x="0" 
 />
    <glyph glyph-name="HT" unicode="&#xe001;" horiz-adv-x="0" 
 />
    <glyph glyph-name="minus" unicode="&#xe003;" horiz-adv-x="464" 
d="M407 285h-350v-41h350v41z" />
    <glyph glyph-name="notequal" unicode="&#xe004;" horiz-adv-x="315" 
d="M307 180h-106l60 100h68l7 35h-54l28 47h-38l-28 -47h-118l-7 -35h104l-60 -100h-66l-7 -35h52l-28 -47h38l28 47h120z" />
    <glyph glyph-name="integral" unicode="&#xe005;" horiz-adv-x="670" 
d="M664 518h-518l-110 -518h518zM534 25h-468l102 468h468z" />
    <glyph glyph-name="radical" unicode="&#xe006;" horiz-adv-x="387" 
d="M72 234l-37 -44q13 -15 22 -40t15 -54.5t10 -60t7 -55.5q39 87 95 171.5t114.5 158.5t113 131.5t89.5 90.5l-16 49q-37 -32 -86 -86.5t-101 -121.5t-102.5 -143t-90.5 -152q0 43 -5 81t-28 75z" />
    <glyph glyph-name="approxequal" unicode="&#xe007;" horiz-adv-x="776" 
d="M359 247l30 139h140l-30 -139h-140zM370 409h-82q-46 0 -76.5 23.5t-30.5 67.5q0 24 9 46t25 38t38.5 25.5t50.5 9.5q50 0 68.5 -24t18.5 -61q0 -14 -1 -27t-5 -27zM557 409l18 83q13 57 42.5 92t80.5 35q48 0 70 -25t22 -66q0 -35 -13 -57.5t-35.5 -36.5t-52 -19.5
t-62.5 -5.5h-70zM518 224h82q45 0 76 -23t31 -68q0 -27 -9.5 -49t-25.5 -37.5t-38 -23.5t-46 -8q-46 0 -69 21t-23 59q0 28 7 59zM331 224l-17 -83q-12 -59 -46.5 -92.5t-75.5 -33.5q-45 0 -69.5 25t-24.5 65q0 36 14.5 59.5t36.5 36.5t48.5 18t50.5 5h83zM596 247h-74
l30 139h75q38 0 71.5 7.5t59 24t40.5 43.5t15 66q0 53 -29 84t-84 31q-60 0 -96.5 -40t-52.5 -111l-17 -82h-141l16 75q4 16 5.5 29t1.5 22q0 46 -25 76.5t-85 30.5q-35 0 -62.5 -12.5t-47 -32.5t-30 -45.5t-10.5 -50.5q0 -59 38 -87t98 -28h74l-30 -139h-86q-31 0 -62 -7.5
t-56 -24t-41 -44t-16 -66.5q0 -51 29.5 -82t85.5 -31q51 0 90.5 37.5t55.5 110.5l18 84h140l-14 -71q-5 -19 -6 -34.5t-1 -23.5q0 -103 113 -103q37 0 64 12t45 32t27 45t9 52q0 58 -37.5 86t-97.5 28z" />
    <glyph glyph-name="nonbreakingspace" unicode="&#xe008;" horiz-adv-x="330" 
 />
    <glyph glyph-name="lozenge" unicode="&#xe009;" horiz-adv-x="470" 
d="M290 430l-200 -200l200 -200l200 200zM452 230l-162 -162l-162 162l162 162z" />
    <glyph glyph-name="apple" unicode="&#xe00a;" horiz-adv-x="655" 
d="M232 423q-35 0 -63.5 -11.5t-48.5 -32.5t-30.5 -49.5t-10.5 -62.5q0 -56 21.5 -106.5t51.5 -88t62 -59.5t52 -22q32 0 53 25q5 7 13.5 10t17.5 3q20 0 32 -13q11 -14 26 -20t32 -6q31 0 56.5 17t45 41.5t34 52t22.5 47.5q-32 9 -57 38t-25 75q0 41 19 65t45 44
q-3 12 -13.5 21.5t-26 17t-33.5 11.5t-35 4q-42 0 -67 -20q-16 -13 -28.5 -17.5t-24.5 -4.5t-21.5 5.5t-26.5 16.5q-14 10 -33 14.5t-39 4.5zM438 534q-17 0 -34 -10t-31.5 -25.5t-23.5 -34.5t-9 -37q0 -5 2 -9.5t8 -4.5q19 0 36.5 12t31 29.5t21 37.5t7.5 35q0 7 -8 7z" />
    </font>
</defs>
</svg>
