<?xml version="1.0" standalone="no"?>
<!DOCTYPE svg PUBLIC "-//W3C//DTD SVG 1.1//EN" "http://www.w3.org/Graphics/SVG/1.1/DTD/svg11.dtd" >
<svg xmlns="http://www.w3.org/2000/svg" xmlns:xlink="http://www.w3.org/1999/xlink" version="1.1">
<metadata>
Created by FontForge 20170731 at Fri Jun 21 12:06:56 2013
 By Aleksey,,,
Copyright (c) 2013 by Adrian Candela. All rights reserved.
</metadata>
<defs>
<font id="Bowhouse-Bold" horiz-adv-x="221" >
  <font-face 
    font-family="Bowhouse Bold"
    font-weight="400"
    font-stretch="normal"
    units-per-em="1000"
    panose-1="0 0 0 0 0 0 0 0 0 0"
    ascent="682"
    descent="-318"
    x-height="352"
    cap-height="655"
    bbox="-122 -305 658.059 897"
    underline-thickness="50"
    underline-position="-199"
    unicode-range="U+000A-20AC"
  />
<missing-glyph horiz-adv-x="500" 
d="M125 63h250v557h-250v-557zM63 0v682h375v-682h-375z" />
    <glyph glyph-name=".notdef" horiz-adv-x="500" 
d="M125 63h250v557h-250v-557zM63 0v682h375v-682h-375z" />
    <glyph glyph-name=".null" horiz-adv-x="0" 
 />
    <glyph glyph-name="nonmarkingreturn" horiz-adv-x="333" 
 />
    <glyph glyph-name="uni000A" unicode="&#xa;" 
 />
    <glyph glyph-name="space" unicode=" " horiz-adv-x="250" 
 />
    <glyph glyph-name="exclam" unicode="!" horiz-adv-x="132" 
d="M26 0q-10 0 -17.5 7t-7.5 18v51q0 11 7.5 18.5t17.5 7.5t17.5 -7.5t7.5 -18.5v-51q0 -11 -7.5 -18t-17.5 -7zM26 137q-11 0 -18 7.5t-7 18.5v411q0 10 7.5 17.5t17.5 7.5t17.5 -7.5t7.5 -17.5v-411q0 -11 -7 -18.5t-18 -7.5z" />
    <glyph glyph-name="dollar" unicode="$" horiz-adv-x="426" 
d="M203 299v-244q43 9 71 43t28 79t-28 79t-71 43zM151 356v244q-42 -9 -70 -43t-28 -79t28 -79t70 -43zM177 0q-73 0 -124.5 52t-51.5 125q0 11 7.5 18.5t18.5 7.5t18.5 -7.5t7.5 -18.5q0 -45 28 -79t70 -43v248q-64 10 -107 59.5t-43 115.5q0 73 51.5 125t124.5 52
t125 -51.5t52 -125.5q0 -10 -8 -18t-18 -8t-18 8t-8 18q0 45 -28 79t-71 43v-248q65 -10 108 -59.5t43 -115.5q0 -73 -52 -125t-125 -52z" />
    <glyph glyph-name="percent" unicode="%" 
 />
    <glyph glyph-name="comma" unicode="," horiz-adv-x="155" 
d="M43 -54q-5 -4 -14 -4q-14 0 -22 12q-13 22 8 36q6 0 6 19v56q0 11 7.5 18.5t18.5 7.5t18.5 -7.5t7.5 -18.5v-56q0 -41 -30 -63z" />
    <glyph glyph-name="period" unicode="." horiz-adv-x="140" 
d="M26 0q-10 0 -18 8t-8 18v56q0 10 8 18t18 8t18 -8t8 -18v-56q0 -10 -8 -18t-18 -8z" />
    <glyph glyph-name="zero" unicode="0" horiz-adv-x="522" 
d="M386 415l-249 -249q4 -48 40 -81t84 -33q52 0 88.5 36.5t36.5 88.5v238zM261 603q-52 0 -88.5 -36.5t-36.5 -88.5v-238l249 249q-4 48 -39.5 81t-84.5 33zM261 0q-73 0 -125 52t-52 125v301q0 74 52 125.5t125 51.5t125 -52t52 -125v-301q0 -73 -52 -125t-125 -52z" />
    <glyph glyph-name="one" unicode="1" horiz-adv-x="522" 
d="M412 2q-11 0 -18.5 7.5t-7.5 18.5v538l-258 -256q-8 -8 -19 -8t-18 8t-7 18.5t7 18.5l303 300q12 12 28 5q16 -6 16 -24v-600q0 -11 -7.5 -18.5t-18.5 -7.5z" />
    <glyph glyph-name="two" unicode="2" horiz-adv-x="522" 
d="M412 1h-302q-15 0 -23 14q-7 14 1 27l297 445q-3 49 -39 83t-85 34q-52 0 -88.5 -36.5t-36.5 -88.5q0 -11 -8 -18.5t-18 -7.5t-18 7.5t-8 18.5q0 73 52 125t125 52t125 -52t52 -125q0 -7 -5 -14l-274 -412h253q11 0 18.5 -7.5t7.5 -18.5t-8 -18.5t-18 -7.5z" />
    <glyph glyph-name="three" unicode="3" horiz-adv-x="522" 
d="M261 0q-73 0 -125 52t-52 125q0 11 8 18.5t18 7.5t18 -7.5t8 -18.5q0 -52 36.5 -88.5t88.5 -36.5t88.5 36.5t36.5 88.5t-36.5 88.5t-88.5 36.5q-11 0 -18.5 7.5t-7.5 18.5t7.5 18.5t18.5 7.5q52 0 88.5 36.5t36.5 87.5q0 52 -36.5 88.5t-88.5 36.5t-88.5 -36.5
t-36.5 -88.5q0 -10 -8 -18t-18 -8t-18 8t-8 18q0 74 52 125.5t125 51.5t125 -52t52 -125q0 -47 -23 -86.5t-62 -63.5q39 -25 62 -64.5t23 -86.5q0 -73 -52 -125t-125 -52z" />
    <glyph glyph-name="four" unicode="4" horiz-adv-x="522" 
d="M386 203v340l-227 -340h227zM412 0q-11 0 -18.5 7.5t-7.5 18.5v125h-276q-15 0 -23 14q-7 14 1 26l302 453q10 15 29 10t19 -25v-603q0 -10 -8 -18t-18 -8z" />
    <glyph glyph-name="five" unicode="5" horiz-adv-x="522" 
d="M261 0q-73 0 -125 52t-52 125q0 11 8 18.5t18 7.5t18 -7.5t8 -18.5q0 -52 36.5 -88.5t88.5 -36.5t88.5 36.5t36.5 88.5v151q0 51 -36.5 87.5t-88.5 36.5t-88.5 -36.5t-36.5 -87.5q0 -11 -7.5 -18.5t-18.5 -7.5t-18.5 7.5t-7.5 18.5v323q0 11 7.5 18.5t18.5 7.5h302
q11 0 18.5 -7.5t7.5 -18.5t-8 -18.5t-18 -7.5h-276v-172q51 51 125 51q73 0 125 -51.5t52 -124.5v-151q0 -73 -52 -125t-125 -52z" />
    <glyph glyph-name="six" unicode="6" horiz-adv-x="522" 
d="M261 302q-52 0 -88.5 -36.5t-36.5 -88.5t36.5 -88.5t88.5 -36.5t88.5 36.5t36.5 88.5t-36.5 88.5t-88.5 36.5zM261 0q-73 0 -125 52t-52 125v301q0 74 52 125.5t125 51.5t125 -52t52 -125q0 -10 -8 -18t-18 -8q-11 0 -18.5 7.5t-7.5 18.5q0 52 -36.5 88.5t-88.5 36.5
t-88.5 -36.5t-36.5 -88.5v-176q52 52 125 52t125 -52t52 -125t-52 -125t-125 -52z" />
    <glyph glyph-name="seven" unicode="7" horiz-adv-x="522" 
d="M435 618l-302 -603q-6 -14 -23 -14q-6 0 -12 3q-9 5 -12.5 15t1.5 19l282 566h-259q-11 0 -18.5 7.5t-7.5 18.5q0 10 8 18t18 8h302q13 0 22 -12q7 -14 1 -26z" />
    <glyph glyph-name="eight" unicode="8" horiz-adv-x="522" 
d="M261 302q-52 0 -88.5 -36.5t-36.5 -88.5t36.5 -88.5t88.5 -36.5t88.5 36.5t36.5 88.5t-36.5 88.5t-88.5 36.5zM261 603q-52 0 -88.5 -36.5t-36.5 -88.5q0 -51 36.5 -87.5t88.5 -36.5t88.5 36.5t36.5 87.5q0 52 -36.5 88.5t-88.5 36.5zM261 0q-73 0 -125 52t-52 125
q0 47 23 86.5t62 64.5q-39 24 -62 63.5t-23 86.5q0 74 52 125.5t125 51.5t125 -52t52 -125q0 -47 -23 -86.5t-62 -63.5q39 -25 62 -64.5t23 -86.5q0 -73 -52 -125t-125 -52z" />
    <glyph glyph-name="nine" unicode="9" horiz-adv-x="522" 
d="M261 603q-52 0 -88.5 -36.5t-36.5 -88.5q0 -51 36.5 -87.5t88.5 -36.5t88.5 36.5t36.5 87.5q0 52 -36.5 88.5t-88.5 36.5zM261 0q-73 0 -125 52t-52 125q0 11 8 18.5t18 7.5t18 -7.5t8 -18.5q0 -52 36.5 -88.5t88.5 -36.5t88.5 36.5t36.5 88.5v176q-51 -51 -125 -51
q-73 0 -125 51.5t-52 124.5q0 74 52 125.5t125 51.5t125 -52t52 -125v-301q0 -73 -52 -125t-125 -52z" />
    <glyph glyph-name="colon" unicode=":" horiz-adv-x="140" 
d="M26 0q-10 0 -18 8t-8 18v56q0 10 8 18t18 8t18 -8t8 -18v-56q0 -10 -8 -18t-18 -8zM26 151q-11 0 -18.5 7.5t-7.5 18.5v56q0 11 8 18.5t18 7.5t18 -7.5t8 -18.5v-56q0 -11 -7.5 -18.5t-18.5 -7.5z" />
    <glyph glyph-name="semicolon" unicode=";" horiz-adv-x="162" 
d="M42 -54q-5 -4 -14 -4q-14 0 -22 12q-13 22 8 36q6 6 6 19v56q0 11 8 18.5t18 7.5t18 -7.5t8 -18.5v-56q0 -41 -30 -63zM46 134q-11 0 -18.5 7.5t-7.5 18.5v56q0 10 8 18t18 8t18 -8t8 -18v-56q0 -11 -7.5 -18.5t-18.5 -7.5z" />
    <glyph glyph-name="less" unicode="&#x3c;" 
 />
    <glyph glyph-name="greater" unicode="&#x3e;" 
 />
    <glyph glyph-name="question" unicode="?" horiz-adv-x="384" 
d="M25 1q-11 0 -18 7.5t-7 17.5v51q0 11 7 18t18 7t18.5 -7t7.5 -18v-51q0 -11 -7.5 -18t-18.5 -7zM163 275q-47 0 -79.5 -32.5t-32.5 -79.5q0 -11 -7.5 -18t-18.5 -7t-18 7t-7 18q0 67 48 115t115 48q46 0 78.5 32.5t32.5 78.5t-32.5 79t-78.5 33q-47 0 -79.5 -32.5
t-32.5 -79.5q0 -11 -7.5 -18t-18.5 -7t-18 7t-7 18q0 67 48 115t115 48t114.5 -48t47.5 -115t-47.5 -114.5t-114.5 -47.5z" />
    <glyph glyph-name="at" unicode="@" horiz-adv-x="430" 
d="M175 534q-23 0 -39.5 -16.5t-16.5 -39.5v-336q0 -37 26.5 -63.5t63.5 -26.5q12 0 21 3v423q0 23 -16 39.5t-39 16.5zM352 478v-336q0 -42 -23.5 -77t-61.5 -53q-29 -12 -58 -12q-59 0 -100.5 42t-41.5 100v336q0 45 31.5 76.5t76.5 31.5q44 0 75.5 -31.5t31.5 -76.5v-389
q18 25 18 54v335q0 52 -36.5 88.5t-88.5 36.5q-51 0 -87.5 -36.5t-36.5 -88.5v-452q0 -10 -7.5 -18t-18.5 -8t-18 7.5t-7 18.5v452q0 74 51 125.5t124 51.5t125 -51.5t52 -125.5z" />
    <glyph glyph-name="A" unicode="A" horiz-adv-x="433" 
d="M302 203v275q0 52 -36 88.5t-88 36.5t-88.5 -36.5t-36.5 -88.5v-275h249zM329 0q-11 0 -19 7.5t-8 18.5v125h-249v-125q0 -10 -7.5 -18t-18.5 -8t-18.5 8t-7.5 18v452q0 74 51.5 125.5t125.5 51.5q73 0 125 -52t52 -125v-452q0 -10 -7.5 -18t-18.5 -8z" />
    <glyph glyph-name="B" unicode="B" horiz-adv-x="430" 
d="M178 303q-11 0 -18.5 7.5t-7.5 18.5t7.5 18.5t18.5 7.5q51 0 87.5 36.5t36.5 87.5q0 52 -36.5 88.5t-87.5 36.5h-125v-551h125q51 0 87.5 36.5t36.5 88.5t-36.5 88.5t-87.5 36.5zM178 1h-151q-11 0 -18.5 7.5t-7.5 18.5v603q0 11 7.5 18.5t18.5 7.5h151q73 0 124.5 -52
t51.5 -125q0 -47 -22.5 -86.5t-61.5 -63.5q39 -24 61.5 -64t22.5 -87q0 -73 -51.5 -125t-124.5 -52z" />
    <glyph glyph-name="C" unicode="C" horiz-adv-x="415" 
d="M176 0q-73 0 -124.5 52t-51.5 125v301q0 73 51.5 125t124.5 52q74 0 125.5 -51.5t51.5 -125.5q0 -10 -7.5 -18t-18.5 -8t-18.5 8t-7.5 18q0 52 -36.5 88.5t-88.5 36.5t-88.5 -36.5t-36.5 -88.5v-301q0 -52 36.5 -88.5t88.5 -36.5t88.5 36.5t36.5 88.5q0 11 7.5 18.5
t18.5 7.5t18.5 -7.5t7.5 -18.5q0 -73 -51.5 -125t-125.5 -52z" />
    <glyph glyph-name="D" unicode="D" horiz-adv-x="423" 
d="M52 602v-548q105 10 177 88.5t72 185.5t-72 185.5t-177 88.5zM26 0q-11 0 -18.5 7.5t-7.5 18.5v603q0 11 7.5 18.5t18.5 7.5q135 0 231 -96t96 -231q0 -136 -96 -232t-231 -96z" />
    <glyph glyph-name="E" unicode="E" horiz-adv-x="397" 
d="M328 0h-302q-11 0 -18.5 7.5t-7.5 18.5v603q0 11 8 18.5t18 7.5h302q10 0 18 -7.5t8 -18.5t-7.5 -18.5t-18.5 -7.5h-276v-400h276q11 0 18.5 -8t7.5 -19q0 -10 -8 -18t-18 -8h-276v-98h276q10 0 18 -8t8 -18q0 -11 -7.5 -18.5t-18.5 -7.5z" />
    <glyph glyph-name="F" unicode="F" horiz-adv-x="389" 
d="M327 151h-275v-125q0 -10 -8 -18t-18 -8q-11 0 -18.5 7.5t-7.5 18.5v603q0 11 7.5 18.5t18.5 7.5h301q11 0 18.5 -7.5t7.5 -18.5t-7.5 -18.5t-18.5 -7.5h-275v-400h275q11 0 18.5 -7.5t7.5 -18.5t-7.5 -18.5t-18.5 -7.5z" />
    <glyph glyph-name="G" unicode="G" horiz-adv-x="415" 
d="M176 0q-73 0 -124.5 52t-51.5 125v301q0 73 51.5 125t124.5 52q74 0 125.5 -51.5t51.5 -125.5q0 -10 -7.5 -18t-18.5 -8t-18.5 8t-7.5 18q0 52 -36.5 88.5t-88.5 36.5t-88.5 -36.5t-36.5 -88.5v-301q0 -52 36.5 -88.5t88.5 -36.5q45 0 79 28t43 71h-122q-11 0 -18.5 7.5
t-7.5 18.5t8 18.5t18 7.5h151q11 0 18.5 -7.5t7.5 -18.5q0 -73 -51.5 -125t-125.5 -52z" />
    <glyph glyph-name="H" unicode="H" horiz-adv-x="438" 
d="M327 0q-11 0 -18.5 8t-7.5 18v125h-249v-125q0 -10 -8 -18t-18 -8q-11 0 -18.5 7.5t-7.5 18.5v603q0 11 7.5 18.5t18.5 7.5q10 0 18 -7.5t8 -18.5v-426h249v426q0 11 7.5 18.5t18.5 7.5t18.5 -7.5t7.5 -18.5v-603q0 -10 -7.5 -18t-18.5 -8z" />
    <glyph glyph-name="I" unicode="I" horiz-adv-x="137" 
d="M26 0q-10 0 -18 8t-8 18v603q0 11 8 18.5t18 7.5t18 -7.5t8 -18.5v-603q0 -10 -8 -18t-18 -8z" />
    <glyph glyph-name="J" unicode="J" horiz-adv-x="436" 
d="M176 0q-73 0 -124.5 52t-51.5 125q0 11 7.5 18.5t17.5 7.5q11 0 18.5 -7.5t7.5 -18.5q0 -52 36.5 -88.5t88.5 -36.5t88.5 36.5t36.5 88.5v452q0 11 7.5 18.5t18.5 7.5t18.5 -7.5t7.5 -18.5v-452q0 -73 -51.5 -125t-125.5 -52z" />
    <glyph glyph-name="K" unicode="K" horiz-adv-x="422" 
d="M341 4q-5 -4 -14 -4q-15 0 -22 12l-181 280l-72 -104v-162q0 -10 -8 -18t-18 -8t-18 8t-8 18v600q0 10 8 18t18 8t18 -8t8 -18v-347l254 364q14 21 36 7q9 -6 11 -17t-4 -19l-193 -276l193 -298q6 -9 3.5 -19.5t-11.5 -16.5z" />
    <glyph glyph-name="L" unicode="L" horiz-adv-x="399" 
d="M328 0h-302q-11 0 -18.5 7.5t-7.5 17.5v603q0 11 7.5 18.5t18.5 7.5t18.5 -7.5t7.5 -18.5v-577h276q11 0 18.5 -7.5t7.5 -18.5q0 -10 -7.5 -17.5t-18.5 -7.5z" />
    <glyph glyph-name="M" unicode="M" horiz-adv-x="740" 
d="M630 0q-11 0 -18.5 7.5t-7.5 18.5v517l-254 -381q-8 -11 -22 -11t-22 11l-253 381v-517q0 -10 -7.5 -18t-18.5 -8t-18.5 7.5t-7.5 18.5v603q0 20 18 25q19 5 29 -11l280 -419l280 419q10 16 29 11t19 -25v-603q0 -10 -8 -18t-18 -8z" />
    <glyph glyph-name="N" unicode="N" horiz-adv-x="438" 
d="M333 1q-2 -1 -6 -1q-17 0 -23 14l-252 505v-493q0 -10 -8 -18t-18 -8q-11 0 -18.5 7.5t-7.5 18.5v603q0 22 20 25q18 5 29 -13l252 -505v493q0 11 7.5 18.5t18.5 7.5t18.5 -7.5t7.5 -18.5v-603q0 -22 -20 -25z" />
    <glyph glyph-name="O" unicode="O" horiz-adv-x="430" 
d="M301 177v301q0 52 -36.5 88.5t-88.5 36.5t-88.5 -36.5t-36.5 -88.5v-301q0 -52 36.5 -88.5t88.5 -36.5t88.5 36.5t36.5 88.5zM176 0q-73 0 -124.5 52t-51.5 125v301q0 73 51.5 125t124.5 52q74 0 125.5 -51.5t51.5 -125.5v-301q0 -73 -51.5 -125t-125.5 -52z" />
    <glyph glyph-name="P" unicode="P" horiz-adv-x="413" 
d="M99 617h-47v-400h47q83 0 142.5 59t59.5 142q0 84 -58.5 141.5t-143.5 57.5zM99 165h-47v-139q0 -10 -8 -18t-18 -8q-11 0 -18.5 7.5t-7.5 18.5v617q0 11 7.5 18.5t18.5 7.5h73q105 0 180 -73q74 -72 74 -178q0 -105 -74.5 -179t-179.5 -74z" />
    <glyph glyph-name="Q" unicode="Q" horiz-adv-x="431" 
d="M301 177v301q0 52 -36.5 88.5t-88.5 36.5t-88.5 -36.5t-36.5 -88.5v-301q0 -52 36.5 -88.5t88.5 -36.5q37 0 68 20l-86 86q-8 8 -8 19t8 18t18.5 7t18.5 -7l86 -86q20 31 20 68zM318 72l27 -28q8 -8 8 -18t-8 -18t-18 -8t-18 8l-28 27q-46 -35 -105 -35q-73 0 -124.5 52
t-51.5 125v301q0 73 51.5 125t124.5 52q74 0 125.5 -51.5t51.5 -125.5v-301q0 -59 -35 -105z" />
    <glyph glyph-name="R" unicode="R" horiz-adv-x="431" 
d="M100 603h-48v-400h48q83 0 142 59t59 143q0 83 -58 140.5t-143 57.5zM213 177l133 -133q8 -8 8 -18t-8 -18q-10 -8 -19 -8q-10 0 -18 8l-150 150q-27 -7 -59 -7h-48v-125q0 -10 -8 -18t-18 -8t-18 8t-8 18v603q0 11 8 18.5t18 7.5h74q104 0 179 -72q75 -75 75 -178
q0 -74 -38.5 -135t-102.5 -93z" />
    <glyph glyph-name="S" unicode="S" horiz-adv-x="429" 
d="M176 0q-73 0 -124.5 52t-51.5 125q0 11 7.5 18.5t17.5 7.5q11 0 18.5 -7.5t7.5 -18.5q0 -52 36.5 -88.5t88.5 -36.5t88.5 36.5t36.5 88.5t-36.5 88.5t-88.5 36.5q-73 0 -124.5 51.5t-51.5 124.5q0 74 51.5 125.5t124.5 51.5t125 -52t52 -125q0 -10 -7.5 -18t-18.5 -8
t-18.5 7.5t-7.5 18.5q0 52 -36.5 88.5t-88.5 36.5t-88.5 -36.5t-36.5 -88.5q0 -51 36.5 -87.5t88.5 -36.5q73 0 125 -52t52 -125t-52 -125t-125 -52z" />
    <glyph glyph-name="T" unicode="T" horiz-adv-x="334" 
d="M331 603h-124v-577q0 -10 -7.5 -18t-18.5 -8t-18.5 7.5t-7.5 18.5v577h-125q-11 0 -18.5 7.5t-7.5 18.5t7.5 18.5t18.5 7.5h301q11 0 18.5 -7.5t7.5 -18.5t-7.5 -18.5t-18.5 -7.5z" />
    <glyph glyph-name="U" unicode="U" horiz-adv-x="436" 
d="M176 0q-70 0 -120.5 48t-55.5 117v4v460q0 11 7.5 18.5t17.5 7.5q11 0 18.5 -7.5t7.5 -18.5v-452q0 -52 36.5 -88.5t88.5 -36.5t88.5 36.5t36.5 88.5v452q0 11 7.5 18.5t18.5 7.5t18.5 -7.5t7.5 -18.5v-452q0 -73 -51.5 -125t-125.5 -52z" />
    <glyph glyph-name="V" unicode="V" horiz-adv-x="424" 
d="M354 623l-150 -603q-5 -20 -26 -20q-20 0 -25 20l-151 603q-4 26 19 31q10 3 19.5 -2.5t12.5 -16.5l125 -502l126 502q2 10 11.5 16t19.5 3q11 -2 16.5 -11.5t2.5 -19.5z" />
    <glyph glyph-name="W" unicode="W" horiz-adv-x="726" 
d="M657 623l-151 -603q-5 -20 -25 -20t-25 20l-126 502l-125 -502q-5 -20 -25 -20q-21 0 -26 20l-151 603q-2 11 3.5 20t15.5 11q10 3 20 -2.5t12 -16.5l126 -502l125 502q5 20 25 20q21 0 26 -20l125 -502l126 502q2 11 11.5 16.5t19.5 2.5q11 -2 16.5 -11.5t2.5 -19.5z
" />
    <glyph glyph-name="X" unicode="X" horiz-adv-x="426" 
d="M342 3q-6 -3 -12 -3q-15 0 -23 14l-127 255l-128 -255q-6 -14 -23 -14q-6 0 -12 3q-10 4 -13 14.5t2 20.5l144 290l-144 289q-5 10 -2 20.5t13 14.5q10 5 20.5 2t14.5 -13l128 -255l127 255q4 10 14.5 13t20.5 -2q10 -4 13.5 -14.5t-1.5 -20.5l-145 -289l145 -290
q5 -10 1.5 -20.5t-13.5 -14.5z" />
    <glyph glyph-name="Y" unicode="Y" horiz-adv-x="416" 
d="M354 617l-148 -296v-295q0 -10 -8 -18t-18 -8q-11 0 -19 7.5t-8 18.5v295l-148 296q-4 10 -0.5 20.5t12.5 14.5q10 5 20.5 2t14.5 -13l128 -255l127 255q4 10 14.5 13t20.5 -2q10 -4 13.5 -14.5t-1.5 -20.5z" />
    <glyph glyph-name="Z" unicode="Z" horiz-adv-x="413" 
d="M330 0h-302q-14 0 -22 13q-7 12 -1 25l283 566h-260q-11 0 -18.5 7.5t-7.5 18.5q0 10 8 18t18 8h302q14 0 22 -13q8 -11 1 -25l-283 -565h260q10 0 18 -7.5t8 -18.5t-7.5 -19t-18.5 -8z" />
    <glyph glyph-name="a" unicode="a" horiz-adv-x="443" 
d="M177 302q-52 0 -88.5 -36.5t-36.5 -88.5t36.5 -88.5t88.5 -36.5t88.5 36.5t36.5 88.5t-36.5 88.5t-88.5 36.5zM328 0q-11 0 -18.5 7.5t-7.5 18.5v26q-52 -52 -125 -52t-125 52t-52 125t52 125t125 52t125 -52t52 -125v-151q0 -10 -8 -18t-18 -8z" />
    <glyph glyph-name="b" unicode="b" horiz-adv-x="431" 
d="M177 302q-52 0 -88.5 -36.5t-36.5 -88.5t36.5 -88.5t88.5 -36.5t88.5 36.5t36.5 88.5t-36.5 88.5t-88.5 36.5zM177 0q-73 0 -125 52t-52 125v452q0 11 8 18.5t18 7.5q11 0 18.5 -7.5t7.5 -18.5v-327q52 52 125 52t125 -52t52 -125t-52 -125t-125 -52z" />
    <glyph glyph-name="c" unicode="c" horiz-adv-x="373" 
d="M264 265q-35 37 -88 37q-52 0 -88.5 -36.5t-36.5 -88.5t36.5 -88.5t88.5 -36.5q53 0 88 37q8 7 19 7t18 -7q7 -8 7 -18.5t-7 -18.5q-50 -52 -125 -52q-73 0 -124.5 52t-51.5 125t51.5 125t124.5 52t125 -52q7 -8 7 -19t-7 -18t-18 -7t-19 7z" />
    <glyph glyph-name="d" unicode="d" horiz-adv-x="436" 
d="M176 302q-52 0 -88.5 -36.5t-36.5 -88.5t36.5 -88.5t88.5 -36.5t88.5 36.5t36.5 88.5t-36.5 88.5t-88.5 36.5zM176 0q-73 0 -124.5 52t-51.5 125t51.5 125t124.5 52t125 -52v327q0 11 7.5 18.5t18.5 7.5t18.5 -7.5t7.5 -18.5v-452q0 -73 -52 -125t-125 -52z" />
    <glyph glyph-name="e" unicode="e" horiz-adv-x="423" 
d="M176 302q-44 0 -78.5 -28t-43.5 -71h244q-9 43 -43.5 71t-78.5 28zM327 151h-273q9 -43 43 -71t79 -28q53 0 88 37q8 7 19 7t18 -7q7 -8 7 -18.5t-7 -18.5q-50 -52 -125 -52q-73 0 -124.5 51.5t-51.5 125.5q0 73 51.5 125t124.5 52t125 -52t52 -125q0 -11 -7.5 -18.5
t-18.5 -7.5z" />
    <glyph glyph-name="f" unicode="f" horiz-adv-x="330" 
d="M328 454q-11 0 -19 7.5t-8 18.5q0 52 -36.5 88.5t-87.5 36.5q-52 0 -88.5 -36.5t-36.5 -88.5v-277h125q11 0 18.5 -7.5t7.5 -18.5t-7.5 -18.5t-18.5 -7.5h-125v-125q0 -10 -8 -18t-18 -8t-18 8t-8 18v454q0 74 52 126t125 52t125 -52.5t52 -125.5q0 -10 -8 -18t-18 -8z
" />
    <glyph glyph-name="g" unicode="g" horiz-adv-x="434" 
d="M176 300q-51 0 -87.5 -36.5t-36.5 -87.5t36.5 -87.5t87.5 -36.5t87.5 36.5t36.5 87.5t-36.5 87.5t-87.5 36.5zM176 -299q-73 0 -124.5 51.5t-51.5 124.5q0 11 7.5 18.5t18.5 7.5t18.5 -7.5t7.5 -18.5q0 -51 36.5 -87.5t87.5 -36.5t87.5 36.5t36.5 87.5v174
q-53 -51 -124 -51q-73 0 -124.5 51.5t-51.5 124.5t51.5 124.5t124.5 51.5t124.5 -51.5t51.5 -124.5v-299q0 -73 -51.5 -124.5t-124.5 -51.5z" />
    <glyph glyph-name="h" unicode="h" horiz-adv-x="434" 
d="M328 0q-11 0 -19 7.5t-8 18.5v151q0 52 -36 88.5t-88 36.5t-88.5 -36.5t-36.5 -88.5v-151q0 -10 -8 -18t-18 -8t-18 8t-8 18v603q0 11 8 18.5t18 7.5t18 -7.5t8 -18.5v-327q52 52 125 52t125 -52t52 -125v-151q0 -10 -8 -18t-18 -8z" />
    <glyph glyph-name="i" unicode="i" horiz-adv-x="137" 
d="M27 1q-11 0 -18.5 7.5t-7.5 18.5v302q0 11 7.5 18.5t18.5 7.5t18.5 -7.5t7.5 -18.5v-302q0 -11 -7.5 -18.5t-18.5 -7.5zM27 458q-11 0 -18.5 8t-7.5 18v146q0 11 7.5 18.5t18.5 7.5t18.5 -7.5t7.5 -18.5v-146q0 -10 -7.5 -18t-18.5 -8z" />
    <glyph glyph-name="j" unicode="j" horiz-adv-x="433" 
d="M176 -305q-73 0 -124.5 51.5t-51.5 124.5q0 11 8 18.5t18 7.5q11 0 18.5 -7.5t7.5 -18.5q0 -51 36.5 -87.5t87.5 -36.5t87.5 36.5t36.5 87.5v448q0 11 7.5 18.5t18.5 7.5t18.5 -7.5t7.5 -18.5v-448q0 -73 -51.5 -124.5t-124.5 -51.5zM326 448q-11 0 -18.5 7.5t-7.5 18.5
v145q0 11 8 18.5t18 7.5t18 -7.5t8 -18.5v-145q0 -11 -7.5 -18.5t-18.5 -7.5z" />
    <glyph glyph-name="k" unicode="k" horiz-adv-x="431" 
d="M342 2q-8 -3 -14 -3q-15 0 -22 10l-139 210l-115 -54v-139q0 -10 -8 -18t-18 -8t-18 8t-8 18v603q0 11 8 18.5t18 7.5t18 -7.5t8 -18.5v-406l263 122q10 5 20 1.5t15 -13.5q4 -10 0.5 -20t-13.5 -15l-122 -57l134 -203q14 -22 -7 -36z" />
    <glyph glyph-name="l" unicode="l" horiz-adv-x="137" 
d="M26 0q-10 0 -18 8t-8 18v603q0 11 8 18.5t18 7.5t18 -7.5t8 -18.5v-603q0 -10 -8 -18t-18 -8z" />
    <glyph glyph-name="m" unicode="m" horiz-adv-x="745" 
d="M630 0q-11 0 -19 7.5t-8 18.5v151q0 52 -36 88.5t-88 36.5t-88.5 -36.5t-36.5 -88.5v-151q0 -10 -8 -18t-18 -8t-18 8t-8 18v151q0 52 -36.5 88.5t-88.5 36.5t-88 -36.5t-36 -88.5v-151q0 -11 -8 -18.5t-19 -7.5q-10 0 -18 8t-8 18v151q0 73 52 125t125 52q47 0 87 -23
t64 -62q24 39 64 62t87 23q73 0 125 -52t52 -125v-151q0 -10 -8 -18t-18 -8z" />
    <glyph glyph-name="n" unicode="n" horiz-adv-x="442" 
d="M327 0q-11 0 -18.5 8t-7.5 18v151q0 52 -36.5 88.5t-88.5 36.5t-88 -36.5t-36 -88.5v-151q0 -11 -8 -18.5t-19 -7.5q-10 0 -17.5 7.5t-7.5 18.5v151q0 73 51.5 125t124.5 52t125 -52t52 -125v-151q0 -10 -7.5 -18t-18.5 -8z" />
    <glyph glyph-name="o" unicode="o" horiz-adv-x="439" 
d="M178 302q-52 0 -88.5 -36.5t-36.5 -88.5t36.5 -88.5t88.5 -36.5t88.5 36.5t36.5 88.5t-36.5 88.5t-88.5 36.5zM178 0q-73 0 -125 52t-52 125t52 125t125 52t125 -52t52 -125t-52 -125t-125 -52z" />
    <glyph glyph-name="p" unicode="p" horiz-adv-x="426" 
d="M176 300q-51 0 -87.5 -36.5t-36.5 -87.5t36.5 -87.5t87.5 -36.5t87.5 36.5t36.5 87.5t-36.5 87.5t-87.5 36.5zM176 0q-71 0 -124 51v-324q0 -11 -7.5 -18.5t-18.5 -7.5q-10 0 -18 7.5t-8 18.5v449q0 73 51.5 124.5t124.5 51.5t124.5 -51.5t51.5 -124.5t-51.5 -124.5
t-124.5 -51.5z" />
    <glyph glyph-name="q" unicode="q" horiz-adv-x="438" 
d="M178 300q-51 0 -87.5 -36.5t-36.5 -87.5t36.5 -87.5t87.5 -36.5t87.5 36.5t36.5 87.5t-36.5 87.5t-87.5 36.5zM328 -299q-11 0 -18.5 7.5t-7.5 18.5v117h-124q-10 0 -18 8t-8 18q0 11 7.5 18.5t18.5 7.5h124v155q-53 -51 -124 -51q-73 0 -124.5 51.5t-51.5 124.5
t51.5 124.5t124.5 51.5t124.5 -51.5t51.5 -124.5v-449q0 -11 -8 -18.5t-18 -7.5z" />
    <glyph glyph-name="r" unicode="r" horiz-adv-x="413" 
d="M328 151q-11 0 -19 7.5t-8 18.5q0 52 -36 88.5t-88 36.5t-88.5 -36.5t-36.5 -88.5v-151q0 -10 -8 -18t-18 -8t-18 8t-8 18v151q0 73 52 125t125 52t125 -52t52 -125q0 -11 -7.5 -18.5t-18.5 -7.5z" />
    <glyph glyph-name="s" unicode="s" horiz-adv-x="435" 
d="M253 0h-151q-42 0 -71.5 29.5t-29.5 71.5q0 11 7.5 18.5t18.5 7.5t18.5 -7.5t7.5 -18.5q0 -20 14.5 -34.5t34.5 -14.5h151q20 0 34.5 14.5t14.5 34.5q0 21 -14.5 35.5t-34.5 14.5h-151q-42 0 -71.5 29.5t-29.5 71.5t29.5 72t71.5 30h151q42 0 71.5 -30t29.5 -72
q0 -11 -7.5 -18.5t-18.5 -7.5q-10 0 -18 8t-8 18q0 20 -14.5 35t-34.5 15h-151q-20 0 -34.5 -15t-14.5 -35t14.5 -34.5t34.5 -14.5h151q42 0 71.5 -30t29.5 -72t-29.5 -71.5t-71.5 -29.5z" />
    <glyph glyph-name="t" unicode="t" horiz-adv-x="330" 
d="M328 452h-125v-426q0 -10 -7.5 -18t-18.5 -8t-18.5 8t-7.5 18v426h-125q-10 0 -18 8t-8 18q0 11 7.5 18.5t18.5 7.5h125v125q0 11 7.5 18.5t18.5 7.5t18.5 -7.5t7.5 -18.5v-125h125q11 0 18.5 -7.5t7.5 -18.5q0 -10 -8 -18t-18 -8z" />
    <glyph glyph-name="u" unicode="u" horiz-adv-x="440" 
d="M177 0q-73 0 -125 52t-52 125v151q0 10 8 18t18 8q11 0 18.5 -7.5t7.5 -18.5v-151q0 -52 36.5 -88.5t88.5 -36.5t88.5 36.5t36.5 88.5v151q0 11 7.5 18.5t18.5 7.5q10 0 18 -8t8 -18v-151q0 -73 -52 -125t-125 -52z" />
    <glyph glyph-name="v" unicode="v" horiz-adv-x="418" 
d="M352 316l-151 -302q-7 -14 -23 -14t-23 14l-151 302q-9 24 12 35q10 5 20 1.5t15 -13.5l127 -255l127 255q5 10 15 13.5t20 -1.5t13.5 -15t-1.5 -20z" />
    <glyph glyph-name="w" unicode="w" horiz-adv-x="718" 
d="M653 316l-151 -302q-9 -14 -23 -14q-15 0 -24 14l-127 255l-128 -255q-7 -14 -23 -14t-23 14l-151 302q-9 24 12 35q10 5 20 1.5t15 -13.5l127 -255l127 255q8 15 24 15t23 -15l128 -255l127 255q4 10 14.5 13.5t20.5 -1.5t13.5 -15t-1.5 -20z" />
    <glyph glyph-name="x" unicode="x" horiz-adv-x="435" 
d="M347 309l-132 -132l132 -133q7 -8 7 -18t-7 -18q-8 -8 -18 -8q-11 0 -19 8l-132 132l-133 -132q-8 -8 -18 -8t-18 8q-7 8 -7 18t7 18l132 133l-132 132q-7 7 -7 18t7 19t18 8t18 -8l133 -132l132 132q8 8 19 8t18 -8t7 -19t-7 -18z" />
    <glyph glyph-name="y" unicode="y" horiz-adv-x="436" 
d="M176 -299q-73 0 -124.5 51.5t-51.5 124.5q0 11 7.5 18.5t18.5 7.5t18.5 -7.5t7.5 -18.5q0 -51 36.5 -87.5t87.5 -36.5t87.5 36.5t36.5 87.5v174q-53 -51 -124 -51q-73 0 -124.5 51.5t-51.5 124.5v150q0 10 8 18t18 8q11 0 18.5 -7.5t7.5 -18.5v-150q0 -51 36.5 -87.5
t87.5 -36.5t87.5 36.5t36.5 87.5v150q0 11 7.5 18.5t18.5 7.5q10 0 18 -8t8 -18v-150v-299q0 -73 -51.5 -124.5t-124.5 -51.5z" />
    <glyph glyph-name="z" unicode="z" horiz-adv-x="423" 
d="M327 2h-301q-11 0 -18.5 7.5t-7.5 18.5q0 12 7 19l257 257h-238q-11 0 -18.5 7.5t-7.5 18.5t7.5 18.5t18.5 7.5h301q11 0 18.5 -8t7.5 -18q0 -11 -8 -19l-257 -257h239q11 0 18.5 -8t7.5 -18t-7.5 -18t-18.5 -8z" />
    <glyph glyph-name="braceleft" unicode="{" 
 />
    <glyph glyph-name="uni00A0" unicode="&#xa0;" 
 />
    <glyph glyph-name="exclamdown" unicode="&#xa1;" horiz-adv-x="131" 
d="M24 -83q-10 0 -17 7.5t-7 18.5v410q0 11 7 18.5t17 7.5q11 0 18.5 -7.5t7.5 -18.5v-410q0 -11 -7.5 -18.5t-18.5 -7.5zM24 414q-10 0 -17 7t-7 18v51q0 11 7 18.5t17 7.5q11 0 18.5 -7.5t7.5 -18.5v-51q0 -11 -7.5 -18t-18.5 -7z" />
    <glyph glyph-name="sterling" unicode="&#xa3;" horiz-adv-x="408" 
d="M328 2q-47 0 -87 23t-64 61q-24 -38 -64 -61t-87 -23q-11 0 -18.5 7.5t-7.5 18.5v452q0 73 52 125t125 52t125 -52t52 -125q0 -10 -8 -18t-18 -8q-11 0 -18.5 7.5t-7.5 18.5q0 52 -36.5 88.5t-88.5 36.5t-88.5 -36.5t-36.5 -88.5v-125h125q11 0 18.5 -7.5t7.5 -18.5
t-7.5 -18.5t-18.5 -7.5h-125v-247q42 9 70.5 43.5t28.5 78.5q0 11 7.5 18.5t18.5 7.5t18.5 -7.5t7.5 -18.5q0 -51 36.5 -87.5t88.5 -36.5q10 0 18 -8t8 -18q0 -11 -7.5 -18.5t-18.5 -7.5z" />
    <glyph glyph-name="currency" unicode="&#xa4;" 
 />
    <glyph glyph-name="yen" unicode="&#xa5;" horiz-adv-x="426" 
d="M331 151h-125v-125q0 -10 -8 -18t-18 -8t-18 8t-8 18v125h-125q-11 0 -18.5 7.5t-7.5 18.5t7.5 18.5t18.5 7.5h125v99h-125q-11 0 -18.5 7.5t-7.5 18.5q0 10 7.5 18t18.5 8h109l-132 263q-5 10 -1.5 20.5t13.5 14.5q9 5 19.5 2t15.5 -13l127 -255l127 255q5 10 15.5 13
t19.5 -2q10 -4 13.5 -14.5t-1.5 -20.5l-132 -263h109q11 0 18.5 -8t7.5 -18q0 -11 -7.5 -18.5t-18.5 -7.5h-125v-99h125q11 0 18.5 -7.5t7.5 -18.5t-7.5 -18.5t-18.5 -7.5z" />
    <glyph glyph-name="logicalnot" unicode="&#xac;" 
 />
    <glyph glyph-name="questiondown" unicode="&#xbf;" horiz-adv-x="421" 
d="M177 -89q-73 0 -125 51.5t-52 124.5t52 125t125 52q51 0 87.5 36.5t36.5 87.5q0 11 7.5 18.5t18.5 7.5t18.5 -7.5t7.5 -18.5q0 -73 -51.5 -124.5t-124.5 -51.5q-52 0 -88.5 -36.5t-36.5 -88.5t36.5 -88t88.5 -36q51 0 87.5 36t36.5 88q0 11 7.5 18.5t18.5 7.5t18.5 -7.5
t7.5 -18.5q0 -73 -51.5 -124.5t-124.5 -51.5zM327 457q-11 0 -18.5 7.5t-7.5 18.5v56q0 11 7.5 18.5t18.5 7.5t18.5 -7.5t7.5 -18.5v-56q0 -11 -7.5 -18.5t-18.5 -7.5z" />
    <glyph glyph-name="Agrave" unicode="&#xc0;" horiz-adv-x="433" 
d="M302 203v275q0 52 -36 88.5t-88 36.5t-88.5 -36.5t-36.5 -88.5v-275h249zM329 0q-11 0 -19 7.5t-8 18.5v125h-249v-125q0 -10 -7.5 -18t-18.5 -8t-18.5 8t-7.5 18v452q0 74 51.5 125.5t125.5 51.5q73 0 125 -52t52 -125v-452q0 -10 -7.5 -18t-18.5 -8zM215 709
q-7 -7 -18 -7t-19 7l-122 122q-8 7 -8 18t8 19t19 8t18 -8l122 -122q7 -8 7 -19t-7 -18z" />
    <glyph glyph-name="Aacute" unicode="&#xc1;" horiz-adv-x="433" 
d="M302 203v275q0 52 -36 88.5t-88 36.5t-88.5 -36.5t-36.5 -88.5v-275h249zM329 0q-11 0 -19 7.5t-8 18.5v125h-249v-125q0 -10 -7.5 -18t-18.5 -8t-18.5 8t-7.5 18v452q0 74 51.5 125.5t125.5 51.5q73 0 125 -52t52 -125v-452q0 -10 -7.5 -18t-18.5 -8zM305 829l-122 -122
q-7 -7 -18 -7t-19 7t-8 18t8 19l122 122q8 8 19 8t18 -8t7 -19t-7 -18z" />
    <glyph glyph-name="Acircumflex" unicode="&#xc2;" horiz-adv-x="433" 
d="M302 203v275q0 52 -36 88.5t-88 36.5t-88.5 -36.5t-36.5 -88.5v-275h249zM329 0q-11 0 -19 7.5t-8 18.5v125h-249v-125q0 -10 -7.5 -18t-18.5 -8t-18.5 8t-7.5 18v452q0 74 51.5 125.5t125.5 51.5q73 0 125 -52t52 -125v-452q0 -10 -7.5 -18t-18.5 -8zM320 705
q-8 -7 -19 -7t-18 7l-104 104l-103 -104q-8 -7 -19 -7t-18 7t-7 18t7 19l122 122q7 8 18 8t19 -8l122 -122q8 -8 8 -19t-8 -18z" />
    <glyph glyph-name="Atilde" unicode="&#xc3;" horiz-adv-x="433" 
d="M302 203v275q0 52 -36 88.5t-88 36.5t-88.5 -36.5t-36.5 -88.5v-275h249zM329 0q-11 0 -19 7.5t-8 18.5v125h-249v-125q0 -10 -7.5 -18t-18.5 -8t-18.5 8t-7.5 18v452q0 74 51.5 125.5t125.5 51.5q73 0 125 -52t52 -125v-452q0 -10 -7.5 -18t-18.5 -8zM264 697h-173
q-11 0 -18.5 7.5t-7.5 18.5t7.5 18.5t18.5 7.5h173q11 0 18.5 -7.5t7.5 -18.5t-7.5 -18.5t-18.5 -7.5z" />
    <glyph glyph-name="Adieresis" unicode="&#xc4;" horiz-adv-x="433" 
d="M302 203v275q0 52 -36 88.5t-88 36.5t-88.5 -36.5t-36.5 -88.5v-275h249zM329 0q-11 0 -19 7.5t-8 18.5v125h-249v-125q0 -10 -7.5 -18t-18.5 -8t-18.5 8t-7.5 18v452q0 74 51.5 125.5t125.5 51.5q73 0 125 -52t52 -125v-452q0 -10 -7.5 -18t-18.5 -8zM120 697
q-11 0 -18.5 7.5t-7.5 18.5v146q0 11 8 18.5t18 7.5t18 -7.5t8 -18.5v-146q0 -11 -7.5 -18.5t-18.5 -7.5zM232 697q-11 0 -18.5 7.5t-7.5 18.5v146q0 11 7.5 18.5t18.5 7.5q10 0 18 -7.5t8 -18.5v-146q0 -11 -7.5 -18.5t-18.5 -7.5z" />
    <glyph glyph-name="Aring" unicode="&#xc5;" horiz-adv-x="433" 
d="M302 203v275q0 52 -36 88.5t-88 36.5t-88.5 -36.5t-36.5 -88.5v-275h249zM178 844q-20 0 -34.5 -14.5t-14.5 -34.5t14.5 -34.5t34.5 -14.5q21 0 35.5 14.5t14.5 34.5t-14.5 34.5t-35.5 14.5zM329 0q-11 0 -19 7.5t-8 18.5v125h-249v-125q0 -10 -7.5 -18t-18.5 -8t-18.5 8
t-7.5 18v452q0 74 51.5 125.5t125.5 51.5q73 0 125 -52t52 -125v-452q0 -10 -7.5 -18t-18.5 -8zM178 694q-41 0 -71 29.5t-30 71.5t30 72t71 30q42 0 72 -30t30 -72t-30 -71.5t-72 -29.5z" />
    <glyph glyph-name="AE" unicode="&#xc6;" 
 />
    <glyph glyph-name="Ccedilla" unicode="&#xc7;" horiz-adv-x="410" 
d="M318 72l27 -28q8 -8 8 -18t-8 -18t-18 -8t-18 8l-28 27q-46 -35 -105 -35q-73 0 -124.5 52t-51.5 125v301q0 73 51.5 125t124.5 52q74 0 125.5 -51.5t51.5 -125.5q0 -10 -7.5 -18t-18.5 -8t-18.5 8t-7.5 18q0 52 -36.5 88.5t-88.5 36.5t-88.5 -36.5t-36.5 -88.5v-301
q0 -52 36.5 -88.5t88.5 -36.5q37 0 68 20l-86 86q-8 8 -8 19t8 18t18.5 7t18.5 -7l86 -86q20 31 20 68q0 11 7.5 18.5t18.5 7.5t18.5 -7.5t7.5 -18.5q0 -59 -35 -105z" />
    <glyph glyph-name="Egrave" unicode="&#xc8;" horiz-adv-x="397" 
d="M328 0h-302q-10 0 -18 8t-8 18v603q0 11 7.5 18.5t18.5 7.5h302q11 0 18.5 -7.5t7.5 -18.5t-8 -18.5t-18 -7.5h-276v-400h276q11 0 18.5 -7.5t7.5 -18.5t-8 -18.5t-18 -7.5h-276v-99h276q11 0 18.5 -7.5t7.5 -18.5q0 -10 -8 -18t-18 -8zM215 709q-7 -7 -18 -7t-19 7
l-122 122q-8 7 -8 18t8 19t19 8t18 -8l122 -122q7 -8 7 -19t-7 -18z" />
    <glyph glyph-name="Eacute" unicode="&#xc9;" horiz-adv-x="397" 
d="M328 0h-302q-10 0 -18 8t-8 18v603q0 11 7.5 18.5t18.5 7.5h302q11 0 18.5 -7.5t7.5 -18.5t-8 -18.5t-18 -7.5h-276v-400h276q11 0 18.5 -7.5t7.5 -18.5t-8 -18.5t-18 -7.5h-276v-99h276q11 0 18.5 -7.5t7.5 -18.5q0 -10 -8 -18t-18 -8zM305 829l-122 -122q-7 -7 -18 -7
t-19 7t-8 18t8 19l122 122q8 8 19 8t18 -8t7 -19t-7 -18z" />
    <glyph glyph-name="Ecircumflex" unicode="&#xca;" horiz-adv-x="397" 
d="M328 0h-302q-10 0 -18 8t-8 18v603q0 11 7.5 18.5t18.5 7.5h302q11 0 18.5 -7.5t7.5 -18.5t-8 -18.5t-18 -7.5h-276v-400h276q11 0 18.5 -7.5t7.5 -18.5t-8 -18.5t-18 -7.5h-276v-99h276q11 0 18.5 -7.5t7.5 -18.5q0 -10 -8 -18t-18 -8zM320 705q-8 -7 -19 -7t-18 7
l-104 104l-103 -104q-8 -7 -19 -7t-18 7t-7 18t7 19l122 122q7 8 18 8t19 -8l122 -122q8 -8 8 -19t-8 -18z" />
    <glyph glyph-name="Edieresis" unicode="&#xcb;" horiz-adv-x="397" 
d="M328 0h-302q-10 0 -18 8t-8 18v603q0 11 7.5 18.5t18.5 7.5h302q11 0 18.5 -7.5t7.5 -18.5t-8 -18.5t-18 -7.5h-276v-400h276q11 0 18.5 -7.5t7.5 -18.5t-8 -18.5t-18 -7.5h-276v-99h276q11 0 18.5 -7.5t7.5 -18.5q0 -10 -8 -18t-18 -8zM120 697q-11 0 -18.5 7.5
t-7.5 18.5v146q0 11 8 18.5t18 7.5t18 -7.5t8 -18.5v-146q0 -11 -7.5 -18.5t-18.5 -7.5zM232 697q-11 0 -18.5 7.5t-7.5 18.5v146q0 11 7.5 18.5t18.5 7.5q10 0 18 -7.5t8 -18.5v-146q0 -11 -7.5 -18.5t-18.5 -7.5z" />
    <glyph glyph-name="Igrave" unicode="&#xcc;" horiz-adv-x="136" 
d="M26 0q-11 0 -18.5 7.5t-7.5 18.5v603q0 11 7.5 18.5t18.5 7.5q10 0 18 -7.5t8 -18.5v-603q0 -10 -8 -18t-18 -8zM54 709q-8 -7 -18.5 -7t-18.5 7l-121 122q-8 7 -8 18t8 19t19 8t18 -8l121 -122q8 -8 8 -19t-8 -18z" />
    <glyph glyph-name="Iacute" unicode="&#xcd;" horiz-adv-x="158" 
d="M26 0q-11 0 -18.5 7.5t-7.5 18.5v603q0 11 7.5 18.5t18.5 7.5q10 0 18 -7.5t8 -18.5v-603q0 -10 -8 -18t-18 -8zM161 829l-122 -122q-7 -7 -18 -7t-19 7q-7 8 -7 18.5t7 18.5l122 122q8 8 19 8t18 -8t7 -19t-7 -18z" />
    <glyph glyph-name="Icircumflex" unicode="&#xce;" horiz-adv-x="162" 
d="M26 0q-11 0 -18.5 7.5t-7.5 18.5v603q0 11 7.5 18.5t18.5 7.5q10 0 18 -7.5t8 -18.5v-603q0 -10 -8 -18t-18 -8zM166 705q-8 -7 -19 -7t-18 7l-104 104l-102 -104q-8 -7 -18.5 -7t-18.5 7t-8 18t8 19l121 122q7 8 18 8t19 -8l122 -122q8 -8 8 -19t-8 -18z" />
    <glyph glyph-name="Idieresis" unicode="&#xcf;" horiz-adv-x="136" 
d="M26 0q-11 0 -18.5 7.5t-7.5 18.5v603q0 11 7.5 18.5t18.5 7.5q10 0 18 -7.5t8 -18.5v-603q0 -10 -8 -18t-18 -8zM-36 697q-11 0 -18.5 7.5t-7.5 18.5v146q0 11 8 18.5t18 7.5t18 -7.5t8 -18.5v-146q0 -11 -7.5 -18.5t-18.5 -7.5zM75 697q-11 0 -18.5 7.5t-7.5 18.5v146
q0 11 7.5 18.5t18.5 7.5t18.5 -7.5t7.5 -18.5v-146q0 -11 -7.5 -18.5t-18.5 -7.5z" />
    <glyph glyph-name="Eth" unicode="&#xd0;" 
 />
    <glyph glyph-name="Ntilde" unicode="&#xd1;" 
 />
    <glyph glyph-name="Ograve" unicode="&#xd2;" horiz-adv-x="430" 
d="M301 177v301q0 52 -36.5 88.5t-88.5 36.5t-88.5 -36.5t-36.5 -88.5v-301q0 -52 36.5 -88.5t88.5 -36.5t88.5 36.5t36.5 88.5zM176 0q-73 0 -124.5 52t-51.5 125v301q0 73 51.5 125t124.5 52q74 0 125.5 -51.5t51.5 -125.5v-301q0 -73 -51.5 -125t-125.5 -52zM215 709
q-7 -7 -18 -7t-19 7l-122 122q-8 7 -8 18t8 19t19 8t18 -8l122 -122q7 -8 7 -19t-7 -18z" />
    <glyph glyph-name="Oacute" unicode="&#xd3;" horiz-adv-x="430" 
d="M301 177v301q0 52 -36.5 88.5t-88.5 36.5t-88.5 -36.5t-36.5 -88.5v-301q0 -52 36.5 -88.5t88.5 -36.5t88.5 36.5t36.5 88.5zM176 0q-73 0 -124.5 52t-51.5 125v301q0 73 51.5 125t124.5 52q74 0 125.5 -51.5t51.5 -125.5v-301q0 -73 -51.5 -125t-125.5 -52zM305 829
l-122 -122q-7 -7 -18 -7t-19 7t-8 18t8 19l122 122q8 8 19 8t18 -8t7 -19t-7 -18z" />
    <glyph glyph-name="Ocircumflex" unicode="&#xd4;" horiz-adv-x="430" 
d="M301 177v301q0 52 -36.5 88.5t-88.5 36.5t-88.5 -36.5t-36.5 -88.5v-301q0 -52 36.5 -88.5t88.5 -36.5t88.5 36.5t36.5 88.5zM176 0q-73 0 -124.5 52t-51.5 125v301q0 73 51.5 125t124.5 52q74 0 125.5 -51.5t51.5 -125.5v-301q0 -73 -51.5 -125t-125.5 -52zM320 705
q-8 -7 -19 -7t-18 7l-104 104l-103 -104q-8 -7 -19 -7t-18 7t-7 18t7 19l122 122q7 8 18 8t19 -8l122 -122q8 -8 8 -19t-8 -18z" />
    <glyph glyph-name="Otilde" unicode="&#xd5;" horiz-adv-x="430" 
d="M264 717h-173q-11 0 -18.5 7.5t-7.5 18.5t7.5 18.5t18.5 7.5h173q11 0 18.5 -7.5t7.5 -18.5t-7.5 -18.5t-18.5 -7.5zM301 177v301q0 52 -36.5 88.5t-88.5 36.5t-88.5 -36.5t-36.5 -88.5v-301q0 -52 36.5 -88.5t88.5 -36.5t88.5 36.5t36.5 88.5zM176 0q-73 0 -124.5 52
t-51.5 125v301q0 73 51.5 125t124.5 52q74 0 125.5 -51.5t51.5 -125.5v-301q0 -73 -51.5 -125t-125.5 -52z" />
    <glyph glyph-name="Odieresis" unicode="&#xd6;" horiz-adv-x="430" 
d="M301 177v301q0 52 -36.5 88.5t-88.5 36.5t-88.5 -36.5t-36.5 -88.5v-301q0 -52 36.5 -88.5t88.5 -36.5t88.5 36.5t36.5 88.5zM176 0q-73 0 -124.5 52t-51.5 125v301q0 73 51.5 125t124.5 52q74 0 125.5 -51.5t51.5 -125.5v-301q0 -73 -51.5 -125t-125.5 -52zM120 697
q-11 0 -18.5 7.5t-7.5 18.5v146q0 11 8 18.5t18 7.5t18 -7.5t8 -18.5v-146q0 -11 -7.5 -18.5t-18.5 -7.5zM232 697q-11 0 -18.5 7.5t-7.5 18.5v146q0 11 7.5 18.5t18.5 7.5q10 0 18 -7.5t8 -18.5v-146q0 -11 -7.5 -18.5t-18.5 -7.5z" />
    <glyph glyph-name="Ugrave" unicode="&#xd9;" horiz-adv-x="437" 
d="M177 0q-73 0 -124.5 52t-51.5 125v452q0 11 7.5 18.5t18.5 7.5t18.5 -7.5t7.5 -18.5v-452q0 -52 36.5 -88.5t87.5 -36.5q52 0 88.5 36.5t36.5 88.5v452q0 11 8 18.5t18 7.5t18 -7.5t8 -18.5v-452q0 -73 -52 -125t-125 -52zM215 709q-7 -7 -18 -7t-19 7l-122 122
q-8 7 -8 18t8 19t19 8t18 -8l122 -122q7 -8 7 -19t-7 -18z" />
    <glyph glyph-name="Uacute" unicode="&#xda;" horiz-adv-x="437" 
d="M177 0q-73 0 -124.5 52t-51.5 125v452q0 11 7.5 18.5t18.5 7.5t18.5 -7.5t7.5 -18.5v-452q0 -52 36.5 -88.5t87.5 -36.5q52 0 88.5 36.5t36.5 88.5v452q0 11 8 18.5t18 7.5t18 -7.5t8 -18.5v-452q0 -73 -52 -125t-125 -52zM305 829l-122 -122q-7 -7 -18 -7t-19 7t-8 18
t8 19l122 122q8 8 19 8t18 -8t7 -19t-7 -18z" />
    <glyph glyph-name="Ucircumflex" unicode="&#xdb;" horiz-adv-x="437" 
d="M177 0q-73 0 -124.5 52t-51.5 125v452q0 11 7.5 18.5t18.5 7.5t18.5 -7.5t7.5 -18.5v-452q0 -52 36.5 -88.5t87.5 -36.5q52 0 88.5 36.5t36.5 88.5v452q0 11 8 18.5t18 7.5t18 -7.5t8 -18.5v-452q0 -73 -52 -125t-125 -52zM320 705q-8 -7 -19 -7t-18 7l-104 104
l-103 -104q-8 -7 -19 -7t-18 7t-7 18t7 19l122 122q7 8 18 8t19 -8l122 -122q8 -8 8 -19t-8 -18z" />
    <glyph glyph-name="Udieresis" unicode="&#xdc;" horiz-adv-x="437" 
d="M177 0q-73 0 -124.5 52t-51.5 125v452q0 11 7.5 18.5t18.5 7.5t18.5 -7.5t7.5 -18.5v-452q0 -52 36.5 -88.5t87.5 -36.5q52 0 88.5 36.5t36.5 88.5v452q0 11 8 18.5t18 7.5t18 -7.5t8 -18.5v-452q0 -73 -52 -125t-125 -52zM120 697q-11 0 -18.5 7.5t-7.5 18.5v146
q0 11 8 18.5t18 7.5t18 -7.5t8 -18.5v-146q0 -11 -7.5 -18.5t-18.5 -7.5zM232 697q-11 0 -18.5 7.5t-7.5 18.5v146q0 11 7.5 18.5t18.5 7.5q10 0 18 -7.5t8 -18.5v-146q0 -11 -7.5 -18.5t-18.5 -7.5z" />
    <glyph glyph-name="Yacute" unicode="&#xdd;" 
 />
    <glyph glyph-name="agrave" unicode="&#xe0;" horiz-adv-x="429" 
d="M172 302q-52 0 -88.5 -36.5t-36.5 -88.5t36.5 -88.5t88.5 -36.5t88.5 36.5t36.5 88.5t-36.5 88.5t-88.5 36.5zM323 0q-11 0 -18.5 7.5t-7.5 18.5v26q-52 -52 -125 -52t-124.5 51.5t-51.5 125.5q0 73 51.5 125t124.5 52t125 -52t52 -125v-151q0 -10 -7.5 -18t-18.5 -8z
M215 463q-7 -7 -18 -7t-19 7l-122 122q-8 7 -8 18t8 19t19 8t18 -8l122 -122q7 -8 7 -19t-7 -18z" />
    <glyph glyph-name="aacute" unicode="&#xe1;" horiz-adv-x="437" 
d="M177 301q-52 0 -88.5 -36.5t-36.5 -88.5t36.5 -88.5t88.5 -36.5t88.5 36.5t36.5 88.5t-36.5 88.5t-88.5 36.5zM328 0q-11 0 -18.5 7t-7.5 18v26q-51 -51 -125 -51q-73 0 -125 51.5t-52 124.5t52 125t125 52t125 -52t52 -125v-151q0 -10 -7.5 -17.5t-18.5 -7.5zM310 584
l-122 -122q-8 -8 -19 -8t-18 8t-7 19t7 18l122 122q7 7 18 7t19 -7t8 -18t-8 -19z" />
    <glyph glyph-name="acircumflex" unicode="&#xe2;" horiz-adv-x="437" 
d="M177 302q-52 0 -88.5 -36.5t-36.5 -88.5t36.5 -88.5t88.5 -36.5t88.5 36.5t36.5 88.5t-36.5 88.5t-88.5 36.5zM328 0q-11 0 -18.5 7.5t-7.5 18.5v26q-52 -52 -125 -52t-125 52t-52 125t52 125t125 52t125 -52t52 -125v-151q0 -10 -8 -18t-18 -8zM320 463q-8 -7 -19 -7
t-18 7l-104 104l-103 -104q-8 -7 -19 -7t-18 7t-7 18t7 19l122 122q7 8 18 8t19 -8l122 -122q8 -8 8 -19t-8 -18z" />
    <glyph glyph-name="atilde" unicode="&#xe3;" horiz-adv-x="434" 
d="M177 301q-52 0 -88.5 -36.5t-36.5 -88.5t36.5 -88.5t88.5 -36.5t88.5 36.5t36.5 88.5t-36.5 88.5t-88.5 36.5zM328 0q-11 0 -18.5 7t-7.5 18v26q-51 -51 -125 -51q-73 0 -125 51.5t-52 124.5t52 125t125 52t125 -52t52 -125v-151q0 -10 -7.5 -17.5t-18.5 -7.5zM268 457
h-173q-11 0 -18.5 7.5t-7.5 18.5t7.5 18.5t18.5 7.5h173q11 0 18.5 -7.5t7.5 -18.5t-7.5 -18.5t-18.5 -7.5z" />
    <glyph glyph-name="adieresis" unicode="&#xe4;" horiz-adv-x="437" 
d="M177 302q-52 0 -88.5 -36.5t-36.5 -88.5t36.5 -88.5t88.5 -36.5t88.5 36.5t36.5 88.5t-36.5 88.5t-88.5 36.5zM328 0q-11 0 -18.5 7.5t-7.5 18.5v26q-52 -52 -125 -52t-125 52t-52 125t52 125t125 52t125 -52t52 -125v-151q0 -10 -8 -18t-18 -8zM131 457q-11 0 -18.5 7.5
t-7.5 18.5v146q0 11 7.5 18.5t18.5 7.5t18.5 -7.5t7.5 -18.5v-146q0 -11 -7.5 -18.5t-18.5 -7.5zM243 457q-11 0 -18.5 7.5t-7.5 18.5v146q0 11 7.5 18.5t18.5 7.5t18.5 -7.5t7.5 -18.5v-146q0 -11 -7.5 -18.5t-18.5 -7.5z" />
    <glyph glyph-name="aring" unicode="&#xe5;" horiz-adv-x="438" 
d="M177 302q-52 0 -88.5 -36.5t-36.5 -88.5t36.5 -88.5t88.5 -36.5t88.5 36.5t36.5 88.5t-36.5 88.5t-88.5 36.5zM328 0q-11 0 -18.5 7.5t-7.5 18.5v26q-52 -52 -125 -52t-125 52t-52 125t52 125t125 52t125 -52t52 -125v-151q0 -10 -8 -18t-18 -8z" />
    <glyph glyph-name="ae" unicode="&#xe6;" 
 />
    <glyph glyph-name="ccedilla" unicode="&#xe7;" horiz-adv-x="384" 
d="M302 52l8 -8q8 -8 8 -18t-8 -18q-10 -8 -19 -8q-10 0 -18 8l-13 13q-37 -21 -83 -21q-73 0 -125 52t-52 125t52 125t125 52t125 -52q8 -8 8 -19t-8 -18t-19 -7t-18 7q-35 37 -88 37q-52 0 -88.5 -36.5t-36.5 -88.5t36.5 -88.5t88.5 -36.5q22 0 44 8l-50 49q-7 8 -7 18.5
t7 18.5t18 8t19 -8l57 -57q7 7 18 7t19 -7q8 -8 8 -18.5t-8 -18.5z" />
    <glyph glyph-name="egrave" unicode="&#xe8;" horiz-adv-x="423" 
d="M177 302q-44 0 -78.5 -28t-43.5 -71h244q-9 43 -43.5 71t-78.5 28zM328 151h-273q9 -43 43 -71t79 -28q53 0 88 37q7 7 18 7t19 -7q8 -8 8 -18.5t-8 -18.5q-50 -52 -125 -52q-73 0 -125 52t-52 125t52 125t125 52t125 -52t52 -125q0 -11 -7.5 -18.5t-18.5 -7.5zM212 463
q-8 -7 -19 -7t-18 7l-123 122q-8 7 -8 18t8 19t19 8t18 -8l123 -122q8 -8 8 -19t-8 -18z" />
    <glyph glyph-name="eacute" unicode="&#xe9;" horiz-adv-x="421" 
d="M177 302q-44 0 -78.5 -28t-43.5 -71h244q-9 43 -43.5 71t-78.5 28zM328 151h-273q9 -43 43 -71t79 -28q53 0 88 37q7 7 18 7t19 -7q8 -8 8 -18.5t-8 -18.5q-50 -52 -125 -52q-73 0 -125 52t-52 125t52 125t125 52t125 -52t52 -125q0 -11 -7.5 -18.5t-18.5 -7.5zM302 585
l-123 -122q-7 -7 -18 -7t-19 7t-8 18t8 19l123 122q7 8 18 8t19 -8t8 -19t-8 -18z" />
    <glyph glyph-name="ecircumflex" unicode="&#xea;" horiz-adv-x="421" 
d="M177 302q-44 0 -78.5 -28t-43.5 -71h244q-9 43 -43.5 71t-78.5 28zM328 151h-273q9 -43 43 -71t79 -28q53 0 88 37q7 7 18 7t19 -7q8 -8 8 -18.5t-8 -18.5q-50 -52 -125 -52q-73 0 -125 52t-52 125t52 125t125 52t125 -52t52 -125q0 -11 -7.5 -18.5t-18.5 -7.5zM316 463
q-8 -7 -19 -7t-18 7l-104 104l-104 -104q-7 -7 -18 -7t-18 7q-8 7 -8 18t8 19l122 122q7 8 18 8t19 -8l122 -122q8 -8 8 -19t-8 -18z" />
    <glyph glyph-name="edieresis" unicode="&#xeb;" horiz-adv-x="420" 
d="M177 302q-44 0 -78.5 -28t-43.5 -71h244q-9 43 -43.5 71t-78.5 28zM328 151h-273q9 -43 43 -71t79 -28q53 0 88 37q7 7 18 7t19 -7q8 -8 8 -18.5t-8 -18.5q-50 -52 -125 -52q-73 0 -125 52t-52 125t52 125t125 52t125 -52t52 -125q0 -11 -7.5 -18.5t-18.5 -7.5zM122 457
q-11 0 -18.5 7.5t-7.5 18.5v146q0 11 8 18.5t18 7.5q11 0 18.5 -7.5t7.5 -18.5v-146q0 -11 -7.5 -18.5t-18.5 -7.5zM234 457q-11 0 -18.5 7.5t-7.5 18.5v146q0 11 8 18.5t18 7.5t18 -7.5t8 -18.5v-146q0 -11 -7.5 -18.5t-18.5 -7.5z" />
    <glyph glyph-name="igrave" unicode="&#xec;" horiz-adv-x="135" 
d="M26 0q-10 0 -18 8t-8 18v302q0 10 8 18t18 8t18 -8t8 -18v-302q0 -10 -8 -18t-18 -8zM56 466q-8 -8 -18.5 -8t-18.5 8l-121 122q-8 8 -8 19t8 18t19 7t18 -7l121 -122q8 -7 8 -18t-8 -19z" />
    <glyph glyph-name="iacute" unicode="&#xed;" horiz-adv-x="224" 
d="M26 0q-10 0 -18 8t-8 18v302q0 10 8 18t18 8t18 -8t8 -18v-302q0 -10 -8 -18t-18 -8zM155 585l-122 -122q-7 -7 -18 -7t-18 7t-7 18t7 19l121 122q8 8 19 8t18 -8t7 -19t-7 -18z" />
    <glyph glyph-name="icircumflex" unicode="&#xee;" horiz-adv-x="161" 
d="M26 0q-10 0 -18 8t-8 18v302q0 10 8 18t18 8t18 -8t8 -18v-302q0 -10 -8 -18t-18 -8zM165 463q-7 -7 -18 -7t-19 7l-104 104l-102 -104q-8 -7 -19 -7t-18 7t-7 18t7 19l121 122q8 8 19 8t18 -8l122 -122q7 -8 7 -19t-7 -18z" />
    <glyph glyph-name="idieresis" unicode="&#xef;" horiz-adv-x="178" 
d="M26 0q-10 0 -18 8t-8 18v302q0 10 8 18t18 8t18 -8t8 -18v-302q0 -10 -8 -18t-18 -8zM-33 457q-11 0 -18.5 7.5t-7.5 18.5v146q0 11 7.5 18.5t18.5 7.5t18.5 -7.5t7.5 -18.5v-146q0 -11 -7.5 -18.5t-18.5 -7.5zM78 457q-11 0 -18.5 7.5t-7.5 18.5v146q0 11 7.5 18.5
t18.5 7.5q10 0 18 -7.5t8 -18.5v-146q0 -11 -7.5 -18.5t-18.5 -7.5z" />
    <glyph glyph-name="eth" unicode="&#xf0;" 
 />
    <glyph glyph-name="ntilde" unicode="&#xf1;" horiz-adv-x="434" 
d="M328 0q-11 0 -19 7.5t-8 18.5v150q0 52 -36 88t-88 36t-88.5 -36t-36.5 -88v-150q0 -10 -8 -18t-18 -8t-18 8t-8 18v150q0 73 52 124.5t125 51.5t125 -51.5t52 -124.5v-150q0 -10 -8 -18t-18 -8zM263 458h-173q-11 0 -18.5 7.5t-7.5 18.5q0 10 8 18t18 8h173
q11 0 18.5 -7.5t7.5 -18.5t-7.5 -18.5t-18.5 -7.5z" />
    <glyph glyph-name="ograve" unicode="&#xf2;" horiz-adv-x="431" 
d="M176 302q-52 0 -88.5 -36.5t-36.5 -88.5t36.5 -88.5t88.5 -36.5t88.5 36.5t36.5 88.5t-36.5 88.5t-88.5 36.5zM176 0q-73 0 -124.5 52t-51.5 125t51.5 125t124.5 52t125 -52t52 -125t-52 -125t-125 -52zM215 463q-7 -7 -18 -7t-19 7l-122 122q-8 7 -8 18t8 19t19 8t18 -8
l122 -122q7 -8 7 -19t-7 -18z" />
    <glyph glyph-name="oacute" unicode="&#xf3;" horiz-adv-x="435" 
d="M177 302q-52 0 -88.5 -36.5t-36.5 -88.5t36.5 -88.5t88.5 -36.5t88.5 36.5t36.5 88.5t-36.5 88.5t-88.5 36.5zM177 0q-73 0 -125 52t-52 125t52 125t125 52t125 -52t52 -125t-52 -125t-125 -52zM305 585l-122 -122q-7 -7 -18 -7t-19 7t-8 18t8 19l122 122q8 8 19 8t18 -8
t7 -19t-7 -18z" />
    <glyph glyph-name="ocircumflex" unicode="&#xf4;" horiz-adv-x="435" 
d="M177 302q-52 0 -88.5 -36.5t-36.5 -88.5t36.5 -88.5t88.5 -36.5t88.5 36.5t36.5 88.5t-36.5 88.5t-88.5 36.5zM177 0q-73 0 -125 52t-52 125t52 125t125 52t125 -52t52 -125t-52 -125t-125 -52zM315 463q-7 -7 -18 -7t-19 7l-104 104l-103 -104q-8 -7 -18.5 -7t-18.5 7
t-8 18t8 19l122 122q8 8 19 8t18 -8l122 -122q7 -8 7 -19t-7 -18z" />
    <glyph glyph-name="otilde" unicode="&#xf5;" horiz-adv-x="430" 
d="M177 302q-52 0 -88.5 -36.5t-36.5 -88.5t36.5 -88.5t88.5 -36.5t88.5 36.5t36.5 88.5t-36.5 88.5t-88.5 36.5zM177 0q-73 0 -125 52t-52 125t52 125t125 52t125 -52t52 -125t-52 -125t-125 -52zM263 458h-173q-11 0 -18.5 7.5t-7.5 18.5q0 10 8 18t18 8h173
q11 0 18.5 -7.5t7.5 -18.5t-7.5 -18.5t-18.5 -7.5z" />
    <glyph glyph-name="odieresis" unicode="&#xf6;" horiz-adv-x="435" 
d="M177 302q-52 0 -88.5 -36.5t-36.5 -88.5t36.5 -88.5t88.5 -36.5t88.5 36.5t36.5 88.5t-36.5 88.5t-88.5 36.5zM177 0q-73 0 -125 52t-52 125t52 125t125 52t125 -52t52 -125t-52 -125t-125 -52zM122 457q-10 0 -18 7.5t-8 18.5v146q0 11 7.5 18.5t18.5 7.5t18.5 -7.5
t7.5 -18.5v-146q0 -11 -8 -18.5t-18 -7.5zM234 457q-11 0 -18.5 7.5t-7.5 18.5v146q0 11 7.5 18.5t18.5 7.5t18.5 -7.5t7.5 -18.5v-146q0 -11 -8 -18.5t-18 -7.5z" />
    <glyph glyph-name="divide" unicode="&#xf7;" 
 />
    <glyph glyph-name="oslash" unicode="&#xf8;" 
 />
    <glyph glyph-name="ugrave" unicode="&#xf9;" horiz-adv-x="434" 
d="M177 0q-73 0 -125 52t-52 125v151q0 10 8 18t18 8q11 0 18.5 -7.5t7.5 -18.5v-151q0 -52 36.5 -88.5t88.5 -36.5t88.5 36.5t36.5 88.5v151q0 11 7.5 18.5t18.5 7.5q10 0 18 -8t8 -18v-151q0 -73 -52 -125t-125 -52zM215 463q-7 -7 -18 -7t-19 7l-122 122q-8 7 -8 18t8 19
t19 8t18 -8l122 -122q7 -8 7 -19t-7 -18z" />
    <glyph glyph-name="uacute" unicode="&#xfa;" horiz-adv-x="436" 
d="M177 0q-73 0 -125 52t-52 125v151q0 10 8 18t18 8q11 0 18.5 -7.5t7.5 -18.5v-151q0 -52 36.5 -88.5t88.5 -36.5t88.5 36.5t36.5 88.5v151q0 11 7.5 18.5t18.5 7.5q10 0 18 -8t8 -18v-151q0 -73 -52 -125t-125 -52zM305 585l-122 -122q-7 -7 -18 -7t-19 7t-8 18t8 19
l122 122q8 8 19 8t18 -8t7 -19t-7 -18z" />
    <glyph glyph-name="ucircumflex" unicode="&#xfb;" horiz-adv-x="437" 
d="M177 0q-73 0 -125 52t-52 125v151q0 10 8 18t18 8q11 0 18.5 -7.5t7.5 -18.5v-151q0 -52 36.5 -88.5t88.5 -36.5t88.5 36.5t36.5 88.5v151q0 11 7.5 18.5t18.5 7.5q10 0 18 -8t8 -18v-151q0 -73 -52 -125t-125 -52zM317 463q-7 -7 -18 -7t-19 7l-104 104l-104 -104
q-8 -7 -19 -7t-18 7t-7 18t7 19l123 122q8 8 18 8t18 -8l123 -122q7 -8 7 -19t-7 -18z" />
    <glyph glyph-name="udieresis" unicode="&#xfc;" horiz-adv-x="436" 
d="M177 0q-73 0 -125 52t-52 125v151q0 10 8 18t18 8q11 0 18.5 -7.5t7.5 -18.5v-151q0 -52 36.5 -88.5t88.5 -36.5t88.5 36.5t36.5 88.5v151q0 11 7.5 18.5t18.5 7.5q10 0 18 -8t8 -18v-151q0 -73 -52 -125t-125 -52zM126 457q-11 0 -18.5 7.5t-7.5 18.5v146q0 11 8 18.5
t18 7.5t18 -7.5t8 -18.5v-146q0 -11 -7.5 -18.5t-18.5 -7.5zM238 457q-11 0 -18.5 7.5t-7.5 18.5v146q0 11 7.5 18.5t18.5 7.5q10 0 18 -7.5t8 -18.5v-146q0 -11 -7.5 -18.5t-18.5 -7.5z" />
    <glyph glyph-name="zcaron" unicode="&#x17e;" 
 />
    <glyph glyph-name="Euro" unicode="&#x20ac;" horiz-adv-x="415" 
d="M177 0q-73 0 -124.5 52t-51.5 125v301q0 73 51.5 125t124.5 52t125 -51.5t52 -125.5q0 -10 -8 -18t-18 -8t-18 8t-8 18q0 52 -36.5 88.5t-88.5 36.5q-51 0 -87.5 -36.5t-36.5 -88.5v-124h275q10 0 18 -8t8 -18q0 -11 -7.5 -18.5t-18.5 -7.5h-275v-125q0 -52 36.5 -88.5
t87.5 -36.5q52 0 88.5 36.5t36.5 88.5q0 11 8 18.5t18 7.5t18 -7.5t8 -18.5q0 -73 -52 -125t-125 -52z" />
    <glyph glyph-name="_11" 
 />
    </font>
</defs>
</svg>
