<?xml version="1.0" standalone="no"?>
<!DOCTYPE svg PUBLIC "-//W3C//DTD SVG 1.1//EN" "http://www.w3.org/Graphics/SVG/1.1/DTD/svg11.dtd" >
<svg xmlns="http://www.w3.org/2000/svg" xmlns:xlink="http://www.w3.org/1999/xlink" version="1.1">
<metadata>
Created by FontForge 20170731 at Fri May 13 14:46:24 2011
 By Aleksey,,,
Copyright (c) 2011 by Pablo Impallari. www.impallari.com Igino Marini. www.ikern.com. All rights reserved.
</metadata>
<defs>
<font id="DancingScript-Bold" horiz-adv-x="631" >
  <font-face 
    font-family="Dancing Script"
    font-weight="700"
    font-stretch="normal"
    units-per-em="1000"
    panose-1="3 8 8 0 4 5 7 0 13 0"
    ascent="800"
    descent="-200"
    x-height="298"
    cap-height="719"
    bbox="-197 -280 1039 950"
    underline-thickness="50"
    underline-position="-150"
    unicode-range="U+0020-FB02"
  />
<missing-glyph horiz-adv-x="278" 
 />
    <glyph glyph-name="uniFB01" unicode="fi" horiz-adv-x="574" 
d="M-66 -186q0 76 43.5 227t106 302t142.5 264t144 113q42 0 42 -50q0 -83 -83 -193t-190 -182q-14 -33 -14 -34q14 -7 23 -26q27 -79 89 -79q63 0 125 62q24 55 53 90.5t58 35.5q30 0 30 -29q0 -14 -26 -56t-52 -94.5t-26 -91.5q0 -31 11 -42.5t36 -11.5q77 0 158 156
l16 -15q-34 -89 -90 -139.5t-119 -50.5q-42 0 -65.5 25.5t-23.5 64.5q0 38 17 95q-60 -39 -119 -39q-29 0 -65 12q5 -42 5 -52q0 -84 -22 -166.5t-59.5 -136t-79.5 -53.5q-24 0 -44.5 21t-20.5 73zM11 -173q0 -45 15 -45q28 0 61 99t33 190q0 71 -24 106q-85 -238 -85 -350z
M168 366q83 77 137.5 156t54.5 110q0 7 -8 7q-35 0 -84 -75.5t-100 -197.5zM478 461q0 23 26 41t55 18q41 0 41 -38q0 -22 -22 -41t-50 -19q-21 0 -35.5 10t-14.5 29z" />
    <glyph glyph-name="uniFB02" unicode="fl" horiz-adv-x="573" 
d="M-66 -186q0 76 43.5 227t106 302t142.5 264t144 113q42 0 42 -50q0 -83 -83 -193t-190 -182q-1 -3 -6 -14t-8 -19q20 -12 23 -34q16 -94 92 -94q46 0 101 31q22 103 85 236.5t127.5 226t95.5 92.5q17 0 30 -27.5t13 -52.5q0 -76 -81.5 -225t-188.5 -234q-12 -60 -12 -100
q0 -69 42 -69q37 0 78 47.5t70 112.5l25 -14q-92 -192 -203 -192q-92 0 -92 121q0 15 3 35q-54 -26 -107 -26q-34 0 -68 15q0 -13 2 -35q0 -84 -22 -166.5t-59.5 -136t-79.5 -53.5q-24 0 -44.5 21t-20.5 73zM11 -175q0 -43 15 -43q29 0 61 101t32 191q0 65 -25 98
q-83 -244 -83 -347zM168 366q83 77 137.5 156t54.5 110q0 7 -8 7q-35 0 -84 -75.5t-100 -197.5zM439 238q72 78 139.5 192.5t68.5 195.5q-13 0 -51.5 -57.5t-84 -151.5t-72.5 -179z" />
    <glyph glyph-name="b_r" unicode="br" horiz-adv-x="771" 
d="M-10 60q0 95 60 253.5t137.5 279.5t121.5 121q18 0 29 -22t11 -49q0 -75 -72.5 -201t-159.5 -176q-14 -25 -29.5 -85t-15.5 -112q0 -90 54 -90q26 0 55 20.5t48 51.5q-36 20 -55.5 55.5t-19.5 76.5q0 48 26 78.5t65 30.5q34 0 54 -25.5t20 -76.5q0 -60 -27 -120
q4 -1 11 -1q25 0 48 11t42 34t33 44t28 54.5t20 52.5l18 50q-9 9 -9 25q0 27 17 51t33 24q11 0 15.5 -11t4.5 -20q0 -6 -5.5 -20t-5.5 -18q0 -8 17 -20t37.5 -24.5t37.5 -37t17 -54.5q0 -32 -24.5 -90t-24.5 -75q0 -22 25 -22q44 0 94.5 50t74.5 101l18 -12
q-35 -76 -92.5 -132.5t-120.5 -56.5q-37 0 -60.5 20t-23.5 53q0 29 27 93.5t27 87.5q0 15 -8.5 28t-16.5 19.5t-25 17.5q-13 -42 -23.5 -70t-31 -67.5t-42 -63t-54.5 -41t-71 -17.5q-8 0 -26 2q-68 -108 -167 -108q-56 0 -86 35t-30 98zM136 329q60 55 112 154t52 138
q-21 -7 -77 -101.5t-87 -190.5zM203 177q0 -62 43 -93q18 41 18 85q0 31 -8 50.5t-21 19.5t-22.5 -18t-9.5 -44z" />
    <glyph glyph-name="e_e" unicode="ee" horiz-adv-x="682" 
d="M-17 76q0 58 38 124.5t100 113t123 46.5q71 0 71 -66q0 -71 -78 -125t-174 -64q-2 -12 -2 -25q0 -81 78 -81q50 0 101 33.5t91 87.5q18 84 90.5 155.5t151.5 71.5q72 0 72 -67q0 -71 -71 -120t-168 -59q-2 -14 -2 -24q0 -83 75 -83q62 0 126.5 52t102.5 126l18 -14
q-42 -91 -115.5 -149t-152.5 -58q-58 0 -92 31.5t-40 79.5q-92 -106 -209 -106q-63 0 -98.5 33.5t-35.5 86.5zM74 137q68 25 126 69.5t58 91.5q0 17 -18 17q-42 0 -93 -56t-73 -122zM417 137q68 24 119.5 60.5t51.5 83.5q0 21 -19 21q-41 0 -86 -50t-66 -115z" />
    <glyph glyph-name="l_l" unicode="ll" horiz-adv-x="490" 
d="M2 81q0 89 63.5 244.5t140.5 275t114 119.5q17 0 29.5 -27t12.5 -55q0 -45 -34.5 -127.5t-99.5 -176t-136 -149.5q-11 -62 -11 -100q0 -69 43 -69q32 0 67 38t64 96q18 98 75 225.5t118 216.5t93 89q18 0 30.5 -27.5t12.5 -56.5q0 -71 -70 -200t-174 -212
q-11 -49 -11 -95q0 -74 41 -74q36 0 76 47t69 112l25 -13q-90 -192 -200 -192q-44 0 -67 29t-24 79q-73 -108 -155 -108q-46 0 -69 30t-23 81zM110 241q78 83 142.5 204t64.5 171q0 10 -2 12q-13 0 -50.5 -57.5t-82.5 -151t-72 -178.5zM356 240q76 79 129.5 182.5
t53.5 153.5q0 9 -1 12q-21 0 -82 -111.5t-100 -236.5z" />
    <glyph glyph-name="o_r" unicode="or" horiz-adv-x="746" 
d="M-11 63q0 65 38 128.5t83 63.5q9 0 30 -8q6 46 33 76t71 30q79 0 79 -81q0 -78 -62 -169q18 -6 29 -6q36 0 65.5 19t50 55.5t32 65.5t25.5 73q-9 11 -9 25q0 29 17.5 51.5t30.5 22.5q22 0 22 -31q0 -4 -5.5 -18.5t-5.5 -17.5q0 -9 17 -21t37 -24t37 -36t17 -53
q0 -33 -24 -89t-24 -72q0 -24 25 -24q43 0 95.5 49.5t73.5 97.5l20 -14q-34 -73 -92.5 -128t-121.5 -55q-37 0 -60.5 19.5t-23.5 51.5q0 30 26 92t26 85q0 41 -53 69q-11 -31 -15.5 -44t-17 -43.5t-21.5 -45t-26 -37t-33.5 -33.5t-40 -19.5t-50.5 -8.5q-26 0 -48 9
q-81 -100 -157 -100q-44 0 -67 26.5t-23 68.5zM67 71q0 -53 32 -53q39 0 101 73q-59 48 -61 148q-22 -25 -47 -81t-25 -87zM194 223q0 -48 36 -95q48 70 48 138q0 22 -8 34t-18 12q-21 0 -39.5 -26t-18.5 -63z" />
    <glyph glyph-name="t_h" unicode="th" horiz-adv-x="791" 
d="M-7 58q0 85 59 244q-26 9 -36 13v31q12 -2 26 -5.5t23 -4.5q44 111 92.5 187t81.5 76q11 0 20 -8t9 -18q0 -17 -29.5 -74t-64 -116.5t-36.5 -63.5q51 -9 92 -9q52 0 129 15q56 151 130 270t119 119q19 0 30.5 -21.5t11.5 -49.5q0 -72 -67 -181.5t-155 -160.5
q-18 -43 -32 -115.5t-14 -112.5q89 233 203 233q43 0 65.5 -28.5t22.5 -68.5q0 -32 -21 -87.5t-21 -74.5q0 -32 27 -32q33 0 81 49t76 112l19 -18q-35 -80 -88.5 -131.5t-112.5 -51.5q-37 0 -58 19.5t-21 50.5q0 20 14.5 70.5t14.5 73.5q0 43 -35 43q-33 0 -62.5 -42.5
t-47 -93t-41 -93t-45.5 -42.5q-26 0 -38 44t-12 80q-41 -61 -95 -96t-112 -35q-48 0 -75 26.5t-27 77.5zM71 81q0 -42 11.5 -59.5t41.5 -17.5q50 0 100.5 43.5t87.5 119.5q13 64 31 116q-60 -12 -113 -12q-51 0 -109 11q-50 -112 -50 -201zM448 364q62 54 107.5 135
t45.5 120q-20 -6 -70 -82.5t-83 -172.5z" />
    <glyph glyph-name="v_r" unicode="vr" horiz-adv-x="776" 
d="M8 84q0 43 3 118q1 23 3 32t10 14.5t26 5.5q22 0 28 -8t6 -32q0 -19 -3 -74.5t-3 -75.5q0 -51 20 -51q31 0 76 64.5t82 142.5q1 114 50 114q22 0 33.5 -14.5t12.5 -29.5q-28 -69 -28 -114q0 -50 41 -50q31 0 58.5 33t41.5 66t31 85q-8 12 -8 26q0 26 16 49.5t34 23.5
t18 -19q0 -8 -5 -26t-5 -21q0 -9 17 -21.5t37 -25.5t37 -38t17 -55q0 -32 -24 -87t-24 -71q0 -22 25 -22q43 0 93.5 49.5t75.5 99.5l18 -11q-33 -74 -91 -131t-122 -57q-37 0 -60 20t-23 52q0 29 26.5 92t26.5 86q0 38 -50 64q-11 -32 -19.5 -53t-25 -52t-32.5 -49.5
t-40 -32t-51 -13.5q-31 0 -55.5 16t-35.5 42q-43 -77 -95 -130.5t-98 -53.5q-65 0 -65 123z" />
    <glyph glyph-name="w_r" unicode="wr" horiz-adv-x="996" 
d="M0 76q0 58 33.5 141.5t57.5 83.5q10 0 27.5 -8.5t17.5 -20.5q-21 -32 -43 -91.5t-22 -97.5q0 -60 32 -60q52 0 144 180q12 61 18 74t24 13q34 0 41 -24q-27 -106 -27 -200q0 -53 18 -53q26 0 72.5 67t83.5 145q0 52 6 76t14.5 28.5t27.5 4.5q20 0 32 -14.5t13 -30.5
q-9 -12 -18.5 -42.5t-9.5 -56.5q0 -54 43 -54q19 0 36 12t29 27t25.5 42.5t20.5 45t18 47.5q-9 13 -9 28q0 26 17 48.5t34 22.5q19 0 19 -30q0 -6 -6 -19t-6 -18q0 -9 17 -21t37.5 -24t37.5 -36t17 -54q0 -31 -24 -87t-24 -74q0 -23 24 -23q44 0 97 50t72 98l22 -14
q-31 -72 -92 -128t-124 -56q-37 0 -60 19.5t-23 52.5q0 28 26 90.5t26 86.5q0 42 -49 65q-14 -38 -27 -65t-33.5 -59.5t-47 -50t-57.5 -17.5q-60 0 -87 58q-111 -192 -195 -192q-62 0 -62 112q0 10 0.5 19t1.5 18.5t1 16.5q-40 -73 -76 -115t-78 -42q-35 0 -59 31t-24 75z
" />
    <glyph glyph-name=".notdef" horiz-adv-x="278" 
 />
    <glyph glyph-name=".null" horiz-adv-x="0" 
 />
    <glyph glyph-name="nonmarkingreturn" horiz-adv-x="332" 
 />
    <glyph glyph-name="space" unicode=" " horiz-adv-x="259" 
 />
    <glyph glyph-name="exclam" unicode="!" horiz-adv-x="295" 
d="M0 24q0 18 20.5 32.5t44.5 14.5q34 0 34 -31q0 -18 -18.5 -34t-40.5 -16q-40 0 -40 34zM61 108q0 49 54 189l39 99l38 94q24 59 41 92t37.5 69t38 52.5t32.5 16.5q11 0 19.5 -9t8.5 -21q0 -40 -118 -270.5t-178 -315.5z" />
    <glyph glyph-name="quotedbl" unicode="&#x22;" horiz-adv-x="270" 
d="M151 620q0 32 20 67t43 35q13 0 22 -10.5t9 -28.5q-21 -20 -33.5 -41.5t-32.5 -65.5q-28 14 -28 44zM266 617q0 33 19 69t43 36q14 0 22.5 -10.5t8.5 -28.5q-8 -7 -14.5 -15t-11 -14t-10.5 -18l-9 -17l-11 -21q-8 -15 -10 -22q-27 14 -27 41z" />
    <glyph glyph-name="numbersign" unicode="#" horiz-adv-x="720" 
d="M19 150q4 78 226 83l4 23q3 18 5 25q-16 0 -133 -9l-66 -5q5 77 215 82q13 63 33.5 173.5t28.5 147.5q3 13 6 21t17 17t38 14q-4 -18 -13 -70l-26 -142l-29 -159q75 -2 122 -4q17 81 39 199t23 124q2 13 6 21t18 17t38 14q-5 -19 -15 -73l-25 -144q-16 -89 -30 -161
q23 -1 70 -3.5t86 -4.5t68 -2q-25 -21 -50 -32t-39 -12.5t-36 -1.5q-23 0 -59 -0.5t-50 -0.5q-1 -7 -6 -29t-6 -32q180 -9 208 -9q-25 -21 -49.5 -32t-38 -12.5t-35.5 -1.5q-65 0 -96 -1q-35 -183 -70 -257.5t-106 -74.5q57 68 116 329h-119q-16 -77 -25.5 -119t-25 -89
t-31 -69t-39 -37t-54.5 -15q56 67 116 327q-7 0 -145 -10zM302 233q62 0 120 -3l12 56q-84 0 -122 -2z" />
    <glyph glyph-name="dollar" unicode="$" horiz-adv-x="565" 
d="M13 98q0 65 47.5 100.5t106.5 35.5q-65 -66 -65 -138q0 -45 31 -72.5t87 -34.5q29 103 66 271q-35 19 -54 31t-44 33.5t-36.5 47.5t-11.5 59q0 82 64.5 144.5t159.5 77.5q0 23 18.5 43t47.5 24q-12 -54 -14 -64q120 -3 120 -109q0 -82 -51 -166q-22 4 -34.5 18t-12.5 31
q0 16 18 69.5t18 74.5q0 43 -65 44l-54 -295q35 -18 56 -30.5t46 -34t37 -49.5t12 -63q0 -87 -67.5 -140.5t-167.5 -62.5q-40 -105 -121 -105q31 40 54 105q-82 7 -136.5 46.5t-54.5 108.5zM218 455q0 -61 88 -106q42 218 50 263q-62 -15 -100 -61t-38 -96zM286 -10
q63 8 99 42t36 84q0 38 -21.5 65t-61.5 51q-36 -190 -52 -242z" />
    <glyph glyph-name="percent" unicode="%" horiz-adv-x="740" 
d="M88 -87q73 71 232.5 344t213.5 414q6 16 36 32.5t56 16.5q-12 -49 -135.5 -284t-190.5 -339q-59 -91 -108.5 -137.5t-103.5 -46.5zM109 453q0 75 43.5 146t109.5 71q43 0 70 -30t27 -79q0 -73 -45 -147.5t-111 -74.5q-45 0 -69.5 33t-24.5 81zM180 451q0 -60 29 -60
q33 0 58 58.5t25 116.5q0 54 -28 54q-37 0 -60.5 -57.5t-23.5 -111.5zM454 112q0 76 43 146.5t110 70.5q43 0 69.5 -30t26.5 -79q0 -45 -18 -95t-55 -88t-82 -38q-46 0 -70 32.5t-24 80.5zM524 108q0 -57 29 -57q33 0 58.5 58t25.5 116q0 55 -29 55q-38 0 -61 -58.5
t-23 -113.5z" />
    <glyph glyph-name="ampersand" unicode="&#x26;" horiz-adv-x="675" 
d="M17 99q0 92 73 168.5t182 91.5q-72 64 -72 150q0 84 61.5 147t156.5 63q60 0 91.5 -28.5t31.5 -82.5q0 -57 -27 -107.5t-56 -50.5q-25 0 -48 41q86 70 86 131q0 29 -17 46t-50 17q-65 0 -102 -53.5t-37 -130.5q0 -105 73 -162q-104 -16 -170 -88.5t-66 -151.5
q0 -54 32.5 -96t97.5 -42q105 0 191 91t101 206q-33 -2 -136 -20q1 85 113 85q32 0 85 -8.5t86 -8.5q-14 -30 -26 -38t-27 -8q-13 0 -30.5 -0.5t-25.5 -0.5q-14 -138 -119.5 -242t-237.5 -104q-95 0 -154.5 54t-59.5 132z" />
    <glyph glyph-name="quotesingle" unicode="'" horiz-adv-x="156" 
d="M151 620q0 32 20 67t43 35q12 0 22 -10t10 -23l-1 -6q-30 -29 -56 -85l-10 -22q-28 14 -28 44z" />
    <glyph glyph-name="parenleft" unicode="(" horiz-adv-x="295" 
d="M77 192q0 112 35 215t85.5 169t103.5 105t92 39q-121 -94 -181.5 -239.5t-60.5 -299.5q0 -157 55 -239q-10 -20 -28 -29q-42 23 -71.5 102.5t-29.5 176.5z" />
    <glyph glyph-name="parenright" unicode=")" horiz-adv-x="315" 
d="M-34 -53q116 77 189 208t73 299q0 75 -18.5 139.5t-70.5 131.5q57 -15 106.5 -95t49.5 -197q0 -85 -23 -168.5t-58 -145t-75.5 -109.5t-77 -72.5t-61.5 -24.5q-14 0 -34 34z" />
    <glyph glyph-name="asterisk" unicode="*" horiz-adv-x="416" 
d="M127 589q89 3 115 5q-45 67 -45 102q0 13 10.5 24t10.5 13q11 -19 26.5 -48t24.5 -44.5t19 -29.5q34 104 106 120q-10 -29 -35 -78t-29 -58q95 0 145 -40l-135 -11q17 -23 24.5 -35.5t16 -40.5t9.5 -64q-39 42 -99 127q-31 -56 -57.5 -85t-62.5 -31q14 20 26 40.5
t26.5 49t19.5 38.5q-49 0 -78.5 9t-37.5 37z" />
    <glyph glyph-name="plus" unicode="+" horiz-adv-x="441" 
d="M13 136q20 60 164 63v41q0 57 39 116q12 -96 14 -157q70 -1 178 -10q-58 -41 -126 -41h-51q-1 -71 -13.5 -111t-46.5 -44q8 65 8 155q-83 0 -166 -12z" />
    <glyph glyph-name="comma" unicode="," horiz-adv-x="216" 
d="M5 -44q0 32 20 67.5t43 35.5q13 0 22.5 -10t9.5 -23q-8 -9 -15 -18.5t-11 -15.5t-11.5 -19t-9 -16.5t-10.5 -22.5t-11 -22q-27 16 -27 44z" />
    <glyph glyph-name="hyphen" unicode="-" horiz-adv-x="507" 
d="M55 142q6 21 27 34.5t49 19t46.5 7.5t36.5 2q90 0 216 -7q-10 -23 -45.5 -38.5t-76.5 -15.5q-11 0 -54 3t-71 3q-68 0 -128 -8z" />
    <glyph glyph-name="period" unicode="." horiz-adv-x="242" 
d="M28 28q0 17 21.5 35t41.5 18q33 0 33 -31q0 -16 -14.5 -38t-37.5 -22q-22 0 -33 11.5t-11 26.5z" />
    <glyph glyph-name="slash" unicode="/" horiz-adv-x="355" 
d="M-63 -162q109 105 392 833q6 17 38 32.5t68 15.5q-25 -66 -295 -695q-37 -87 -93 -136.5t-110 -49.5z" />
    <glyph glyph-name="zero" unicode="0" horiz-adv-x="660" 
d="M63 185q0 83 26.5 175.5t72.5 173t118.5 133.5t155.5 53q99 0 158 -73t59 -205q0 -91 -29 -185t-78.5 -170.5t-121.5 -125t-151 -48.5q-102 0 -156 76.5t-54 195.5zM163 168q0 -95 33 -151t91 -56q72 0 137 86.5t101.5 206t36.5 227.5q0 91 -30.5 144.5t-95.5 53.5
q-63 0 -117.5 -54t-87 -135t-50.5 -166t-18 -156z" />
    <glyph glyph-name="one" unicode="1" horiz-adv-x="392" 
d="M-34 -31q9 0 25 -1.5t27 -1.5q34 0 104 10q26 59 51 171t48.5 244.5t32.5 172.5q-86 -57 -112 -57q-29 0 -29 41q33 16 101 66.5t125 104.5q13 -12 13 -39q0 -17 -9.5 -52.5t-12.5 -55.5q-19 -122 -32 -195.5t-43.5 -189.5t-67.5 -202q24 2 35 2q91 0 107 -71
q-49 6 -92 6q-32 0 -92 -4.5t-73 -4.5q-62 0 -106 56z" />
    <glyph glyph-name="two" unicode="2" horiz-adv-x="599" 
d="M-6 7q0 53 84 53q41 0 109 -13q99 86 182 231.5t83 262.5q0 68 -29.5 103t-78.5 35q-64 0 -99 -54t-35 -124q0 -43 19 -87l-19 2q-77 8 -77 96q0 83 63.5 145.5t158.5 62.5q87 0 134.5 -55t47.5 -142q0 -118 -84 -257.5t-199 -232.5q149 -33 206 -33q24 0 41.5 6.5
t51.5 24.5q-16 -62 -43.5 -90t-71.5 -28q-23 0 -57.5 8.5t-57 16.5t-70.5 26l-61 23q-69 -41 -119 -41q-35 0 -57 17t-22 44zM39 4q2 -17 32 -17q24 0 61 21q-38 12 -63 12q-30 0 -30 -16z" />
    <glyph glyph-name="three" unicode="3" horiz-adv-x="542" 
d="M19 62q0 43 23.5 77t65.5 34q14 0 35 -4q-18 -15 -30 -42.5t-12 -54.5q0 -44 31 -78.5t77 -34.5q61 0 109.5 59t48.5 146q0 64 -31.5 115t-103.5 70q80 34 130 105.5t50 136.5q0 45 -26 66.5t-64 21.5q-44 0 -77.5 -26t-33.5 -69q0 -32 20 -69q-6 -13 -20.5 -24
t-28.5 -11q-21 0 -34 27.5t-13 60.5q0 68 60 110t139 42q69 0 119.5 -38t50.5 -103q0 -63 -45.5 -127.5t-114.5 -90.5q73 -25 107.5 -79t34.5 -113q0 -98 -82 -177t-203 -79q-91 0 -136.5 45.5t-45.5 103.5z" />
    <glyph glyph-name="four" unicode="4" horiz-adv-x="508" 
d="M3 216q0 16 8 31.5t16 24.5t26 25q291 271 400 423q25 -12 25 -35q0 -24 -20 -55q-23 -94 -66 -334q76 0 116 11q-58 -78 -128 -78q-39 -221 -39 -316q-45 3 -69.5 17.5t-24.5 36.5q0 16 44 263q-36 4 -70 4q-36 0 -121 -5.5t-97 -12.5zM119 298q39 3 90 3q37 0 97 -2
q31 147 53 220l-114 -103q-89 -81 -126 -118z" />
    <glyph glyph-name="five" unicode="5" horiz-adv-x="513" 
d="M9 61q0 44 23 78t65 34q15 0 36 -4q-42 -34 -42 -100q0 -45 26 -77.5t77 -32.5q74 0 119.5 65.5t45.5 146.5q0 66 -34 109t-102 43q-37 0 -105 -13q7 49 28 130t47 171l30 104q57 -14 115 -14q61 0 166 20q7 -28 7 -38q0 -40 -40 -58.5t-94 -18.5q-28 0 -65.5 6t-48.5 6
q-15 0 -33 -52.5t-35 -125t-21 -83.5q43 8 82 8q105 0 160.5 -53.5t55.5 -142.5q0 -108 -77.5 -182t-199.5 -74q-96 0 -141 44.5t-45 103.5z" />
    <glyph glyph-name="six" unicode="6" horiz-adv-x="592" 
d="M58 168q0 84 28 178.5t76.5 179t126 139.5t165.5 55q48 0 77.5 -16t29.5 -48q0 -40 -60 -56q2 20 2 33q0 24 -11 37t-41 13q-59 0 -113.5 -55t-91 -132.5t-58.5 -168.5q71 54 166 54q86 0 143 -50.5t57 -149.5q0 -115 -75.5 -191.5t-196.5 -76.5q-114 0 -169 69.5
t-55 185.5zM164 145q0 -31 5.5 -60t18 -59t38.5 -48.5t61 -18.5q72 0 117.5 69t45.5 157q0 74 -36.5 111t-97.5 37q-78 0 -115 -53.5t-37 -134.5z" />
    <glyph glyph-name="seven" unicode="7" horiz-adv-x="439" 
d="M68 282q0 24 14.5 40.5t41.5 24.5t55.5 11t67.5 3q17 26 69 114l89 147q-24 0 -76 -3t-75 -3q-119 0 -119 54q0 21 17 49q113 -20 194 -20q113 0 194 26q-132 -170 -225 -368q35 -4 78 -4q39 0 65 7q-51 -68 -98 -68h-75q-86 -196 -86 -268q0 -31 16 -42
q-17 -35 -43.5 -52t-46.5 -17q-17 0 -30 13.5t-13 38.5q0 71 128 327q-72 -2 -142 -10z" />
    <glyph glyph-name="eight" unicode="8" horiz-adv-x="561" 
d="M43 84q0 28 10 54.5t23.5 46t39.5 43t43.5 37t51 37t48.5 35.5q-37 37 -58 63t-40 67.5t-19 84.5q0 83 58 125t138 42q75 0 121 -38.5t46 -111.5q0 -66 -36.5 -118t-104.5 -103q45 -45 68 -70.5t44 -67.5t21 -85q0 -93 -78 -152.5t-183 -59.5q-99 0 -146 52.5t-47 118.5z
M120 85q0 -54 37.5 -86.5t87.5 -32.5q58 0 105.5 44t47.5 110q0 48 -25.5 88t-75.5 91q-43 -30 -66.5 -48t-53.5 -46.5t-43.5 -58t-13.5 -61.5zM236 564q0 -81 91 -177q105 88 105 181q0 52 -26 81t-66 29q-39 0 -71.5 -28.5t-32.5 -85.5z" />
    <glyph glyph-name="nine" unicode="9" horiz-adv-x="598" 
d="M96 460q0 115 71.5 187.5t189.5 72.5q120 0 176.5 -78t56.5 -201q0 -68 -16 -141t-48.5 -142t-76.5 -123.5t-105 -88t-129 -33.5q-49 0 -79.5 17t-30.5 49q0 40 58 57q0 -86 54 -86q59 0 111 54.5t85 132.5t52 169q-69 -53 -164 -53q-89 0 -147 54t-58 153zM199 457
q0 -77 38 -116.5t104 -39.5q71 0 106.5 45t35.5 125q0 34 -6.5 66.5t-20 64.5t-40.5 52t-63 20q-69 0 -111.5 -65.5t-42.5 -151.5z" />
    <glyph glyph-name="colon" unicode=":" horiz-adv-x="251" 
d="M32 23q0 18 20.5 32.5t44.5 14.5q33 0 33 -31q0 -17 -18 -33t-40 -16q-16 0 -28 8.5t-12 24.5zM88 261q0 18 21 32.5t44 14.5q33 0 33 -31q0 -17 -18 -33t-40 -16q-16 0 -28 8.5t-12 24.5z" />
    <glyph glyph-name="semicolon" unicode=";" horiz-adv-x="250" 
d="M23 -43q0 34 21 72t46 38q13 0 23.5 -10.5t11.5 -23.5q-39 -44 -74 -121q-28 15 -28 45zM88 263q0 18 20 32.5t44 14.5q35 0 35 -31q0 -17 -18.5 -33.5t-40.5 -16.5q-40 0 -40 34z" />
    <glyph glyph-name="less" unicode="&#x3c;" horiz-adv-x="328" 
d="M30 165q53 19 106 63t89 95q5 -4 9.5 -16t4.5 -20q0 -59 -159 -140q58 -39 164 -77q-24 -26 -42 -26q-37 0 -99.5 44.5t-72.5 76.5z" />
    <glyph glyph-name="equal" unicode="=" horiz-adv-x="517" 
d="M62 206q18 49 187 49q86 0 185 -11q-59 -40 -122 -40h-97q-81 0 -145 -10zM64 118q20 49 187 49q86 0 185 -11q-58 -40 -122 -40h-96q-81 0 -145 -10z" />
    <glyph glyph-name="greater" unicode="&#x3e;" horiz-adv-x="337" 
d="M66 287q0 16 11 33q34 -43 93 -88.5t112 -65.5q-8 -32 -68.5 -77t-97.5 -45q-20 0 -44 26q101 36 160 77q-164 81 -166 140z" />
    <glyph glyph-name="question" unicode="?" horiz-adv-x="462" 
d="M118 497q0 89 61.5 156t159.5 67q69 0 109.5 -36t40.5 -102q0 -41 -16 -77.5t-41 -65.5l-51 -57q-26 -29 -51.5 -66.5t-37.5 -78.5q-6 -21 -12 -58t-15 -60q-26 13 -34 23.5t-8 32.5q0 43 19.5 84t47.5 75l56 69q28 34 47.5 77t19.5 89q0 53 -21.5 82t-55.5 29
q-54 0 -100.5 -60t-46.5 -139q0 -32 11 -68q-46 7 -64 28t-18 56zM182 23q0 19 21 33.5t44 14.5q35 0 35 -29q0 -20 -18.5 -36t-41.5 -16q-17 0 -28.5 8.5t-11.5 24.5z" />
    <glyph glyph-name="at" unicode="@" horiz-adv-x="613" 
d="M13 92q0 118 92.5 210.5t237.5 92.5q110 0 169.5 -54.5t59.5 -130.5t-54 -140.5t-127 -64.5q-75 0 -75 74q-74 -87 -128 -87q-28 0 -47.5 19t-19.5 53q0 47 33.5 104.5t88.5 99.5t108 42q36 0 59 -18.5t23 -48.5q0 -34 -40 -39q25 -9 25 -24q0 -10 -23 -50t-23 -59
q0 -25 30 -25q46 0 85 49.5t39 107.5q0 60 -46 105t-136 45q-122 0 -201.5 -81.5t-79.5 -182.5q0 -72 46 -123t143 -51q121 0 218 88l14 -18q-97 -106 -242 -106q-112 0 -170.5 61.5t-58.5 151.5zM187 61q0 -26 15 -26q30 0 105.5 79t75.5 119q0 14 -1 22.5t-8.5 16
t-21.5 7.5q-54 0 -109.5 -80.5t-55.5 -137.5z" />
    <glyph glyph-name="A" unicode="A" 
d="M0 -25q0 74 147 300q-60 4 -147 4q24 65 116 65q20 0 74 -6q112 162 209 273t129 111q26 0 68 -39q-33 -25 -94.5 -239.5t-61.5 -335.5q0 -79 35 -79q54 0 133 149l18 -19q-32 -85 -82 -136.5t-104 -51.5q-88 0 -88 155q0 49 13 124q-51 8 -143 19q-93 -165 -176 -356
q-46 24 -46 62zM254 326q23 -5 66.5 -15t54.5 -12q36 172 106 335q-89 -70 -227 -308z" />
    <glyph glyph-name="B" unicode="B" horiz-adv-x="650" 
d="M41 -1q0 10 11 10q3 0 13.5 -2.5t32.5 -4.5t52 -2q172 0 288.5 67t116.5 155q0 119 -257 119h-2q-13 0 -38 -0.5t-36 -0.5q-16 -54 -44.5 -161.5t-42.5 -154.5q-30 0 -52 16t-22 39q0 18 10 46l4 12q2 5 20 61l36 108l43 122q25 69 52 134.5t52 113.5q-35 -8 -64 -21
t-44.5 -21.5t-21.5 -8.5q-10 0 -25 14.5t-15 24.5q46 19 74.5 28.5t77 18.5t100.5 9q33 0 63 -3t66 -13.5t61.5 -27.5t43 -47.5t17.5 -71.5q0 -139 -209 -189q113 -15 164 -61t51 -100q0 -69 -47.5 -127.5t-118.5 -93.5t-146.5 -54t-139.5 -19q-123 0 -124 86zM232 378
q60 2 111 13t96 32t70.5 57t25.5 85q0 120 -188 120q-56 -108 -115 -307z" />
    <glyph glyph-name="C" unicode="C" horiz-adv-x="570" 
d="M32 160q0 129 63 260t162.5 215t199.5 84q104 0 104 -91q0 -65 -40 -141t-83 -76q-25 0 -41 31q38 42 73.5 100t35.5 94q0 39 -45 39q-70 0 -149 -85t-131 -209t-52 -230q0 -80 36 -135t109 -55q78 0 156.5 63t120.5 151l26 -17q-57 -108 -141.5 -176.5t-185.5 -68.5
q-107 0 -162.5 72.5t-55.5 174.5z" />
    <glyph glyph-name="D" unicode="D" horiz-adv-x="687" 
d="M70 -37q8 64 75 281.5t96 292.5q7 18 15.5 36t28.5 39.5t41 21.5q17 0 38 -14q-60 -137 -120.5 -327t-92.5 -337q17 -6 50 -6q78 0 152.5 49t127 123t84.5 162t32 166q0 116 -58 172.5t-155 56.5q-98 0 -163 -51.5t-65 -128.5q0 -27 9 -48q-80 0 -80 64q0 74 99 139.5
t233 65.5q138 0 203.5 -77t65.5 -203q0 -104 -43 -202.5t-112.5 -169t-159.5 -113t-180 -42.5q-83 0 -121 50z" />
    <glyph glyph-name="E" unicode="E" horiz-adv-x="533" 
d="M-4 101q0 90 73.5 166.5t181.5 91.5q-72 63 -72 151q0 83 61.5 146t155.5 63q61 0 94 -29.5t33 -85.5q0 -57 -28.5 -105.5t-57.5 -48.5q-25 0 -48 41q88 72 88 134q0 29 -19.5 45t-52.5 16q-64 0 -100.5 -55.5t-36.5 -129.5q0 -105 74 -162q-104 -16 -170 -88.5
t-66 -151.5q0 -54 32 -97.5t98 -43.5q79 0 156.5 64t120.5 153l27 -17q-59 -111 -144 -178t-187 -67q-94 0 -153.5 54t-59.5 134z" />
    <glyph glyph-name="F" unicode="F" horiz-adv-x="522" 
d="M73 298q7 79 147 83q61 168 109 266q-16 2 -36 2q-87 0 -120 -26.5t-33 -82.5q0 -41 20 -90q-87 14 -87 87q0 77 83 127.5t207 50.5q37 0 106.5 -7t98.5 -7q46 0 101 15q-46 -51 -76.5 -70t-61.5 -19q-16 0 -65.5 7t-78.5 9q-27 -64 -90 -263q24 -2 86 -8.5t101 -7.5
q-23 -31 -55.5 -38.5t-150.5 -9.5l-41 -141q-49 -170 -49 -262q-50 3 -68 23.5t-18 57.5q0 99 93 317q-97 -9 -122 -13z" />
    <glyph glyph-name="G" unicode="G" horiz-adv-x="585" 
d="M32 164q0 94 38 194.5t97 179.5t136 130t151 51q61 0 90 -33.5t29 -84.5q0 -55 -28 -103t-66 -48q-25 0 -42 33q24 17 52 64t28 81q0 47 -54 47q-73 0 -152.5 -86t-131 -209t-51.5 -227q0 -88 38.5 -140t95.5 -52q77 0 133.5 90t65.5 195q-49 10 -107 10q-18 0 -66 -2
q17 68 80 68q34 0 100 -22t84 -26q-44 -136 -55.5 -181.5t-11.5 -91.5q0 -15 1.5 -46t1.5 -48q-68 8 -68 84q0 13 1 20q-81 -98 -183 -98q-88 0 -147 67.5t-59 183.5z" />
    <glyph glyph-name="H" unicode="H" horiz-adv-x="663" 
d="M72 -87q22 142 104 393q-55 -6 -65 -6q0 56 87 74l83 242q12 36 12 48q0 14 -13 14q-38 0 -76.5 -62t-38.5 -111q0 -16 10 -45q-79 0 -79 65q0 66 72.5 130.5t137.5 64.5q56 0 56 -54q0 -18 -8 -44l-73 -240q16 1 50 1q90 0 175 -8q60 202 98 290q24 56 72 56
q-53 -145 -105 -351q8 0 39.5 -1.5t47.5 -1.5q-46 -46 -99 -46q-58 -243 -58 -355q0 -26 5 -53q-51 5 -69.5 24.5t-18.5 68.5q0 86 72 314q-163 -1 -231 -7q-1 -3 -7 -23.5t-32 -101.5l-64 -207q-10 -33 -35.5 -50.5t-48.5 -17.5z" />
    <glyph glyph-name="I" unicode="I" horiz-adv-x="503" 
d="M-18 -88q3 31 16.5 50.5t39.5 28.5t51.5 12t64.5 3q41 88 100 346.5t72 296.5q-124 -2 -237 -24q10 50 62.5 72t159.5 22q120 0 290 -22q-49 -47 -116 -47q-76 0 -108 -1l-6 -30q-2 -12 -36.5 -201.5t-50.5 -253.5q-30 -120 -72 -160q13 -1 94 -9t132 -9
q-59 -56 -133 -56h-2q-139 0 -193.5 -3t-127.5 -15z" />
    <glyph glyph-name="J" unicode="J" horiz-adv-x="440" 
d="M-18 49q0 66 22 119t60 53q14 0 39 -11q-38 -92 -38 -161q0 -40 16.5 -63t45.5 -23q25 0 45 22t40 76q34 97 78 283t66 310q-122 -3 -214 -23q7 47 49.5 67t130.5 20q98 0 230 -22q-25 -41 -91 -41q-12 0 -33 -0.5t-25 -0.5q13 -17 13 -39q-1 -53 -43.5 -245.5
t-94.5 -306.5q-67 -149 -174 -149q-122 0 -122 135z" />
    <glyph glyph-name="K" unicode="K" horiz-adv-x="637" 
d="M43 -69q21 45 43 109l79 227l123 349q12 36 12 43q0 19 -20 19q-44 0 -81.5 -61.5t-37.5 -110.5q0 -23 10 -46q-80 0 -80 65t73 130t138 65q55 0 55 -58q0 -19 -7 -40l-74 -240q12 7 69 51q181 140 280 290q20 -19 20 -54q0 -113 -369 -349q53 -82 84 -125.5t94.5 -108.5
t149.5 -131q-9 -17 -27 -29.5t-35 -12.5q-53 0 -143.5 118.5t-156.5 243.5l-91 -294q-5 -17 -16.5 -28t-29 -15.5t-30.5 -5.5t-32 -1z" />
    <glyph glyph-name="L" unicode="L" horiz-adv-x="610" 
d="M-64 40q0 50 82 50q49 0 126 -20q16 28 33 71t28 76l30 93q20 61 28 84q-49 16 -76.5 46t-27.5 63q0 32 23.5 59t60.5 27q-20 -26 -20 -68q0 -62 52 -92q21 64 41 110.5t47 90.5t60.5 67t72.5 23q42 0 76.5 -25.5t34.5 -82.5q0 -37 -15.5 -75.5t-45.5 -74.5t-83.5 -59
t-121.5 -23q-77 -234 -137 -326q194 -58 265 -58q43 0 88 22q-38 -105 -120 -105q-21 0 -46 5t-57 16.5t-53.5 20t-61 26t-54.5 23.5q-54 -57 -116 -57q-49 0 -81 30.5t-32 62.5zM-8 -3.5q20 -12.5 47 -12.5q23 0 38.5 9.5t35.5 30.5q-71 26 -105 26q-36 0 -36 -23
q0 -18 20 -30.5zM352 413q54 4 98.5 45.5t65.5 90t21 87.5q0 45 -33 45q-21 0 -41 -20t-40 -61.5t-35 -81.5t-36 -105z" />
    <glyph glyph-name="M" unicode="M" horiz-adv-x="806" 
d="M-5 -87q6 18 43 97l120 260l158 344q9 20 9 33q0 22 -29 22q-57 0 -88.5 -50t-31.5 -111q0 -21 4 -48q-33 0 -52 28.5t-19 62.5q0 63 66.5 116t139.5 53q59 0 88 -53.5t29 -194.5q0 -72 -9.5 -196t-9.5 -159q43 129 133.5 296.5t146.5 250.5q16 25 27 34.5t28 9.5
q14 0 44 -11q-33 -71 -82 -312.5t-49 -374.5q0 -13 0.5 -23.5t1.5 -17t4 -15.5l3 -12q1 -3 5 -14l6 -15q-63 0 -83 28t-20 102q0 100 21.5 212t63.5 274q-63 -90 -138 -255t-111 -271l-7 -2q-7 -3 -14 -3q-33 0 -43.5 38t-10.5 121q0 51 4 174t4 181q0 10 -0.5 30t-0.5 29
l-62 -146l-55 -128l-44 -106q-24 -56 -39 -90l-34 -69q-18 -35 -31 -54t-28 -35.5t-29 -23t-29 -6.5z" />
    <glyph glyph-name="N" unicode="N" horiz-adv-x="674" 
d="M56 -87l212 703q7 28 7 39q0 14 -13 14q-40 0 -74 -57t-34 -105q0 -24 10 -47q-80 0 -80 65t73 130t134 65q17 0 31.5 -6t26 -20.5t20.5 -28.5t17 -40.5t13 -45.5t11.5 -54.5t9.5 -56.5t9 -61q31 -215 46 -293q12 49 36 152l40 170q16 65 37 134t38 98q30 53 81 53
q-58 -151 -127 -424.5t-69 -383.5q-39 0 -62 18.5t-34 67.5q-4 16 -103 556q-117 -425 -159 -533.5t-97 -108.5z" />
    <glyph glyph-name="O" unicode="O" horiz-adv-x="655" 
d="M32 164q0 126 62.5 255.5t165.5 214.5t210 85q41 0 68 -28q-16 2 -29 2q-84 0 -172 -84t-144.5 -210t-56.5 -241q0 -86 34.5 -141.5t106.5 -55.5q66 0 126.5 51t100.5 129.5t64 170t24 174.5q0 55 -10.5 99.5t-34.5 44.5q-32 0 -74.5 -73.5t-55.5 -137.5q-63 13 -63 58
q0 54 69 124t126 70q28 0 48 -21t29.5 -56.5t13.5 -70.5t4 -73q0 -122 -39 -226.5t-99 -170.5t-129.5 -103t-134.5 -37q-90 0 -150 68.5t-60 182.5z" />
    <glyph glyph-name="P" unicode="P" horiz-adv-x="559" 
d="M34 -30q0 17 13 56l78 239q25 76 69 191t92 221q-33 -7 -63.5 -20.5t-48 -22.5t-22.5 -9q-9 0 -23.5 14.5t-14.5 24.5q134 56 235 56q66 0 128 -21t106.5 -67.5t44.5 -107.5q0 -60 -35.5 -105.5t-84 -69t-109.5 -38.5t-101 -18.5t-70 -3.5h-6l-105 -376q-31 0 -57 16.5
t-26 40.5zM231 320q80 5 148.5 29t117 74t48.5 117q0 69 -53 106t-129 39q-60 -116 -132 -365z" />
    <glyph glyph-name="Q" unicode="Q" horiz-adv-x="728" 
d="M44 201q0 125 52.5 243.5t148.5 197t209 78.5q103 0 163 -66t60 -182q0 -123 -63.5 -257.5t-158.5 -212.5q78 -39 143 -39q16 0 26.5 2t23 6.5t21.5 6.5q-29 -97 -110 -97q-43 0 -82 21t-87 59q-52 -25 -107 -25q-36 0 -61.5 10.5t-37 26t-16 28.5t-4.5 25q0 24 20 43
t62 19q26 0 56.5 -10t50.5 -20t58 -32q81 73 130.5 214.5t49.5 255.5q0 85 -33.5 134t-103.5 49q-91 0 -168 -85t-116.5 -203.5t-39.5 -233.5q0 -54 12 -100q-98 0 -98 144zM194 19q0 -20 17.5 -36.5t53.5 -16.5q39 0 89 24q-73 60 -118 60h-1q-41 0 -41 -31z" />
    <glyph glyph-name="R" unicode="R" horiz-adv-x="616" 
d="M31 -30q0 11 14 55q77 234 120.5 351.5t124.5 302.5q-34 -7 -67 -20.5t-51.5 -23.5t-23.5 -10q-9 0 -24.5 14t-15.5 25q140 56 241 56q48 0 94 -11t87.5 -33t66.5 -60.5t25 -88.5q0 -54 -31 -95t-74 -63t-100 -36.5t-97 -18.5t-77 -5l35 -55q31 -49 38 -59l35 -51
q28 -41 45 -59l45 -51q29 -32 59 -58t66 -53q-4 -19 -23.5 -31.5t-37.5 -12.5q-37 0 -97 68.5t-110 150.5t-89 161l-98 -347q-31 0 -55.5 16.5t-24.5 41.5zM232 339q80 6 146.5 28t113.5 69t47 111q0 71 -51 103.5t-128 34.5q-56 -112 -128 -346z" />
    <glyph glyph-name="S" unicode="S" horiz-adv-x="567" 
d="M4 96q0 74 46 106.5t108 32.5q-65 -68 -65 -139q0 -54 41.5 -92t115.5 -38q73 0 129 36t56 99q0 45 -33.5 81t-80.5 61l-95 52q-47 26 -81 66.5t-34 91.5q0 57 34.5 117.5t104 105t152.5 44.5q125 0 125 -105q0 -51 -24.5 -113.5t-55.5 -110.5q-44 9 -44 51
q0 28 28.5 101.5t28.5 100.5q0 19 -11.5 28.5t-41.5 9.5q-88 0 -153.5 -70t-65.5 -136q0 -39 33 -70.5t80 -55t93.5 -50.5t79.5 -70.5t33 -100.5q0 -98 -83.5 -157t-190.5 -59q-95 0 -162 48t-67 135z" />
    <glyph glyph-name="T" unicode="T" horiz-adv-x="540" 
d="M76 615q4 40 40.5 64t90.5 32.5t134 8.5q81 0 201 -12q105 -10 154 -10q-28 -26 -78.5 -40t-89.5 -16.5t-98 -2.5q-82 -202 -162 -496q-16 -61 -22 -85t-11 -55.5t-5 -60.5q0 -14 3 -29q-96 0 -98 77q0 40 35 147q22 66 51.5 143.5t49.5 125.5l54 129l44 104
q-166 -2 -293 -24z" />
    <glyph glyph-name="U" unicode="U" horiz-adv-x="750" 
d="M33 536q0 65 60 124t142 59q116 0 116 -129q0 -75 -60 -268q-57 -181 -57 -247q0 -109 83 -109q51 0 96 45.5t70 101t39 114.5l27 107l27 106q19 71 32 110l30 83q17 45 32.5 65.5t29.5 20.5q22 0 64 -39q-19 -14 -63 -128t-83 -265t-39 -243q0 -61 20.5 -81.5
t73.5 -20.5q-11 -18 -36.5 -29.5t-48.5 -11.5q-37 0 -63.5 32.5t-26.5 79.5q0 8 2 52q-83 -153 -213 -153q-67 0 -104.5 40t-37.5 112t60 257t60 267q0 90 -54 90q-47 0 -74.5 -54t-27.5 -101q0 -31 13 -64q-89 0 -89 77z" />
    <glyph glyph-name="V" unicode="V" horiz-adv-x="669" 
d="M34 540q0 64 58 122t136 58q67 0 102.5 -49t35.5 -136q0 -78 -31 -188.5t-61.5 -208.5t-30.5 -146q0 -18 5 -26t19 -8q41 0 102 60t115.5 145.5t93 187.5t38.5 179q0 97 -67 119q13 28 33 42.5t38 14.5q29 0 52 -36t23 -94q0 -106 -74.5 -264t-183 -278.5t-192.5 -120.5
q-35 0 -65.5 20t-30.5 69q0 39 30 130.5t60 208.5t30 218q0 58 -13 88.5t-48 30.5q-47 0 -71.5 -49t-24.5 -104q0 -36 15 -65q-47 0 -70 22t-23 58z" />
    <glyph glyph-name="W" unicode="W" horiz-adv-x="953" 
d="M34 540q0 64 58 122t135 58q67 0 103 -50t36 -142q0 -100 -65 -306q-4 -14 -17 -50.5t-20 -60t-14 -57.5t-7 -62q0 -19 4.5 -26.5t17.5 -7.5q50 0 117 84t116 188.5t59 173.5q35 0 57.5 -20t22.5 -41q0 -19 -37 -105q-73 -170 -73 -242q0 -21 5.5 -29.5t20.5 -8.5
q41 0 101.5 61t114.5 147.5t93 188t39 175.5q0 88 -68 111q34 56 74 56h1q27 0 49.5 -32t22.5 -90q0 -78 -45.5 -193t-111.5 -218t-149.5 -177t-150.5 -74q-39 0 -64.5 23.5t-25.5 62.5q0 21 10 51q-109 -137 -196 -137h-1q-13 0 -26.5 3t-31 11t-28.5 27.5t-11 47.5
q0 41 44 184q4 13 15.5 49t16.5 52l13 48q9 32 13 53l9 50q5 29 7 58t2 58q0 64 -13.5 95t-47.5 31q-45 0 -70.5 -45t-25.5 -102q0 -45 15 -73q-47 0 -70 22t-23 58z" />
    <glyph glyph-name="X" unicode="X" horiz-adv-x="706" 
d="M45 -112q4 42 14.5 62t37.5 47q115 120 230 260q-9 78 -13.5 159t-6 123.5t-6 79.5t-16 51t-34.5 14q-45 0 -71 -48.5t-26 -103.5q0 -35 13 -64q-89 0 -89 76q0 65 60 122t135 57q33 0 58 -13t39.5 -37.5t23.5 -51t13 -64t5 -65.5t1.5 -66t1.5 -56q135 182 222 358
q9 -6 18.5 -22.5t9.5 -30.5q0 -39 -69.5 -143.5t-178.5 -237.5q17 -323 96 -323q30 0 71 51.5t105 159.5l22 -18q-67 -132 -115 -188t-108 -56q-41 0 -70.5 24t-46 68t-25 84.5t-13.5 94.5q-85 -100 -167 -186t-121 -117z" />
    <glyph glyph-name="Y" unicode="Y" horiz-adv-x="706" 
d="M32 536q0 65 59.5 124.5t142.5 59.5q57 0 87 -31t30 -79q0 -35 -28 -135q-36 -129 -36 -182q0 -94 70 -94h1q64 0 119 68.5t90 171.5l20 66l24 77q10 32 23.5 66.5t28.5 53t30 18.5q30 0 68 -38q-52 -80 -78 -158.5t-87 -330.5q-15 -62 -29 -107t-40 -100t-56.5 -90
t-78.5 -59t-106 -24q-64 0 -104 26t-40 73q0 32 20 56.5t56 32.5q-11 -49 -11 -68q0 -85 91 -85q56 0 96.5 33t62.5 89.5t35 109.5t23.5 117.5t18.5 89.5q-88 -142 -209 -142q-63 0 -93 35t-30 93q0 50 32 170t32 163q0 72 -54 72q-49 0 -76 -51.5t-27 -111.5q0 -24 12 -56
q-89 0 -89 77z" />
    <glyph glyph-name="Z" unicode="Z" horiz-adv-x="680" 
d="M-8 33q0 25 20 41t65 16q48 0 141 -25q85 85 188 249q-63 -3 -165 -17q4 85 158 85q16 0 46 -2q77 131 112 220q-34 10 -80 27q-140 51 -202 51q-110 0 -110 -134q4 -34 9 -43q-74 13 -74 79q0 68 52.5 104t152.5 36q78 0 195 -31.5t167 -31.5q33 0 50 4q-35 -35 -63 -49
q-48 -112 -124 -239q100 -8 114 -8q-24 -32 -49 -39.5t-99 -9.5q-108 -170 -211 -269q169 -51 239 -51q45 0 90 22q-22 -58 -50.5 -81.5t-73.5 -23.5q-24 0 -50 5t-59 17t-50 19t-56.5 25t-45.5 21q-75 -54 -133 -54q-46 0 -75 27.5t-29 59.5zM25 27q0 -17 18.5 -32.5
t44.5 -15.5q25 0 83 44q-77 30 -106 30q-40 0 -40 -26z" />
    <glyph glyph-name="bracketleft" unicode="[" horiz-adv-x="438" 
d="M48 -65q7 12 13.5 39t28.5 145l68 377q20 116 57.5 162t79.5 46q8 0 34 -1.5t42 -1.5q68 0 111 24q-2 -61 -31.5 -79.5t-83.5 -18.5q-26 0 -108 16q-32 -94 -78 -360t-56 -301q111 1 154.5 4.5t90.5 16.5q0 -47 -32.5 -68.5t-104.5 -21.5q-81 0 -185 22z" />
    <glyph glyph-name="backslash" unicode="\" horiz-adv-x="604" 
d="M173 724q26 0 50 -16.5t32 -36.5q29 -75 78 -276l92 -369q42 -168 63 -193q-30 5 -53 23t-43.5 57.5t-36 83t-36 124.5t-38.5 157l-48 204z" />
    <glyph glyph-name="bracketright" unicode="]" horiz-adv-x="457" 
d="M14 -88q6 86 118 86q20 0 64.5 -3.5t58.5 -4.5q33 94 85.5 377t55.5 296q-185 0 -271 -23q0 48 32 65t99 17q85 0 187 -21q-5 -58 -34 -252.5t-52 -312.5l-9 -46q-3 -18 -15 -52t-25 -54t-36 -36.5t-51 -16.5q-146 0 -207 -19z" />
    <glyph glyph-name="asciicircum" unicode="^" horiz-adv-x="210" 
d="M1 464q0 27 44.5 56.5t69.5 29.5t60 -38t35 -68q0 -26 -25 -38q-23 39 -71 82q-55 -18 -100 -48q-13 8 -13 24z" />
    <glyph glyph-name="underscore" unicode="_" horiz-adv-x="887" 
d="M-2 -73q8 55 86.5 74.5t231.5 19.5q105 0 251 -9t189 -10q-95 -62 -170 -62q-79 0 -198.5 5t-140.5 5q-92 0 -137 -4.5t-112 -18.5z" />
    <glyph glyph-name="grave" unicode="`" horiz-adv-x="138" 
d="M-4 519q1 19 10.5 29t21.5 10q28 0 69 -46t41 -67q0 -9 -7 -20t-18 -16q-49 58 -117 110z" />
    <glyph glyph-name="a" unicode="a" horiz-adv-x="444" 
d="M-26 41q0 58 41 129t108.5 122t133.5 51q44 0 73.5 -22.5t29.5 -57.5q0 -46 -57 -48q36 -11 36 -29q0 -12 -28.5 -60.5t-28.5 -72.5q0 -36 30 -36q28 0 71.5 39t84.5 117l19 -19q-37 -83 -92 -133.5t-111 -50.5q-40 0 -61.5 26.5t-21.5 60.5q-45 -54 -77 -79t-68 -25
q-35 0 -58.5 23t-23.5 65zM54 36q0 -32 23 -32q13 0 27.5 7.5t31.5 22.5l31 30q15 15 34 39l30 38l29 39l24 33q3 5 8 5h2l2 -1q5 16 5 37q0 52 -42 52q-66 0 -135.5 -98t-69.5 -172z" />
    <glyph glyph-name="b" unicode="b" horiz-adv-x="409" 
d="M-11 60q0 94 60 252.5t137 280t121 121.5q19 0 29.5 -21t11.5 -48q0 -48 -31.5 -123t-86.5 -148.5t-114 -107.5q-14 -26 -29.5 -85.5t-15.5 -114.5q0 -97 52 -97q26 0 56 23.5t49 58.5q-36 20 -55.5 55.5t-19.5 76.5q0 48 26 78.5t65 30.5q34 0 54 -25.5t20 -74.5
q0 -62 -30 -126q3 0 8.5 -0.5t9.5 -0.5q75 0 129 111l15 -21q-27 -62 -63.5 -91.5t-93.5 -29.5q-14 0 -21 1q-68 -108 -167 -108q-56 0 -86 35t-30 98zM135 329q60 55 112.5 153t53.5 138q-22 -8 -78.5 -101.5t-87.5 -189.5zM202 178q0 -64 43 -94q18 40 18 85q0 70 -29 70
q-13 0 -22.5 -18t-9.5 -43z" />
    <glyph glyph-name="c" unicode="c" horiz-adv-x="333" 
d="M-6 76q0 98 70 180t152 82q40 0 59.5 -20t19.5 -50t-14.5 -55.5t-35.5 -25.5q-19 0 -31 19q32 22 32 75q0 17 -19 17q-49 0 -102.5 -80t-53.5 -148q0 -75 70 -75h1q59 0 120.5 49.5t93.5 128.5l20 -18q-36 -91 -111 -151t-152 -60q-54 0 -86.5 33.5t-32.5 98.5z" />
    <glyph glyph-name="d" unicode="d" horiz-adv-x="491" 
d="M-16 60q0 56 41 127.5t109 125.5t134 54q49 0 49 -32q0 -16 -12 -23q-8 11 -35 11q-51 0 -99.5 -47t-74.5 -104.5t-26 -97.5q0 -42 32 -42q43 0 105 73t108 192l39 99l39 94q24 58 41 91.5t37.5 69.5t37.5 52.5t32 16.5q11 0 19.5 -8.5t8.5 -21.5q0 -21 -36 -96l-77 -160
q-42 -84 -78 -188t-36 -177q0 -24 4.5 -32.5t15.5 -8.5q34 0 78 40t77 108l19 -16q-33 -82 -91 -134t-115 -52q-73 0 -73 87q0 23 8 65q-49 -71 -101 -113.5t-95 -42.5q-33 0 -59 23t-26 67z" />
    <glyph glyph-name="e" unicode="e" horiz-adv-x="341" 
d="M-17 77q0 91 84.5 187.5t174.5 96.5q73 0 73 -67q0 -72 -78 -128t-174 -66q-2 -10 -2 -23q0 -10 1.5 -19t8 -24.5t24 -25t43.5 -9.5q61 0 124.5 49.5t102.5 123.5l20 -16q-40 -90 -114.5 -145t-154.5 -55q-63 0 -98 34t-35 87zM74 137q58 7 122.5 58t64.5 104
q0 19 -17 19q-44 0 -96 -58t-74 -123z" />
    <glyph glyph-name="f" unicode="f" horiz-adv-x="330" 
d="M-66 -184q0 76 43.5 226t106 301t142.5 264t144 113q42 0 42 -51q0 -83 -83.5 -193t-189.5 -180l-16 -40q21 -9 25 -35q7 -41 11.5 -61t14.5 -44t25 -33.5t37 -9.5q33 0 59.5 24t57.5 75l22 -16q-30 -61 -69.5 -92t-74.5 -31q-34 0 -71 27q-1 -81 -24 -160t-60.5 -129.5
t-76.5 -50.5q-24 0 -44.5 21t-20.5 75zM27 -218q27 0 59.5 101t32.5 177q0 50 -29 102q-79 -232 -79 -336q0 -44 16 -44zM168 366q85 79 138.5 157t53.5 108q0 8 -8 8q-35 0 -84 -75.5t-100 -197.5z" />
    <glyph glyph-name="g" unicode="g" horiz-adv-x="403" 
d="M-18 -216q0 24 14 47.5t30 39t49.5 35.5t50.5 28l57 28q25 63 40 125q-81 -102 -152 -102q-40 0 -63.5 28t-23.5 74q0 100 92 180t185 80q31 0 47.5 -11t16.5 -27q0 -10 -6 -18t-10 -9q-18 18 -43 18h-2q-74 0 -136 -75.5t-62 -141.5q0 -41 31 -41q27 0 66.5 35t78.5 90
q11 56 26 80.5t43 24.5q13 0 29 -4q0 -26 -22 -104t-53 -162q50 21 96.5 65.5t66.5 102.5l18 -18q-22 -63 -78.5 -114t-115.5 -78q-99 -240 -202 -240q-28 0 -48 16.5t-20 47.5zM27 -206q0 -28 19 -28q20 0 52 37t66 112q-65 -32 -101 -60.5t-36 -60.5z" />
    <glyph glyph-name="h" unicode="h" horiz-adv-x="494" 
d="M5 75q0 90 55.5 244t129.5 274.5t120 120.5q20 0 31.5 -22t11.5 -49q0 -74 -73.5 -200t-160.5 -177q-34 -90 -34 -170q0 -4 0.5 -11t0.5 -10q2 3 12.5 31t25.5 59t37 64.5t55 55t71 21.5q46 0 67 -29.5t21 -69.5q0 -35 -21 -87t-21 -72q0 -32 26 -32h1q33 0 81.5 48
t79.5 113l16 -17q-37 -82 -89.5 -133t-112.5 -51q-37 0 -57.5 19.5t-20.5 50.5q0 20 14.5 72t14.5 73q0 42 -36 42q-34 0 -63.5 -42.5t-47 -93t-42.5 -93t-51 -42.5q-21 0 -31 32t-10 81zM140 330q60 55 112.5 153t52.5 137q-21 -8 -76.5 -99.5t-88.5 -190.5z" />
    <glyph glyph-name="i" unicode="i" horiz-adv-x="244" 
d="M-8 59q0 40 21 105.5t57 120.5t71 55q13 0 21.5 -7.5t8.5 -21.5q0 -13 -25.5 -54.5t-51.5 -94t-26 -90.5q0 -31 11 -42t34 -11q79 0 157 153l15 -16q-35 -88 -89 -137t-116 -49q-42 0 -65 25t-23 64zM148 460q0 23 25.5 40.5t54.5 17.5q43 0 43 -37q0 -21 -23 -40.5
t-50 -19.5q-21 0 -35.5 10t-14.5 29z" />
    <glyph glyph-name="j" unicode="j" horiz-adv-x="227" 
d="M-197 -221q0 49 56 101.5t141 86.5q36 89 57 203l-17 -27q-12 -19 -18 -30l-17 27q17 31 39.5 90t40 89.5t39.5 30.5q13 0 22 -10.5t9 -26.5q0 -27 -20.5 -121t-51.5 -186q36 20 57.5 35t52.5 47.5t57 77.5l18 -12q-18 -37 -38 -65t-43.5 -48.5t-38.5 -31t-43.5 -26.5
t-37.5 -22q-39 -104 -90.5 -172.5t-110.5 -68.5q-29 0 -46 16t-17 43zM-157 -215q0 -17 12 -17q20 0 54 39t68 108q-65 -33 -99.5 -67.5t-34.5 -62.5zM89 462q0 24 26.5 42t55.5 18q41 0 41 -35q0 -25 -22 -44t-51 -19q-20 0 -35 10t-15 28z" />
    <glyph glyph-name="k" unicode="k" horiz-adv-x="462" 
d="M2 44q0 87 37.5 207.5t87.5 220.5t103 171t82 71q17 0 28.5 -21t11.5 -52q0 -71 -59 -162t-148 -143q-53 -125 -62 -241q108 248 222 248q40 0 70 -28.5t30 -69.5q0 -37 -28 -65.5t-59 -40t-57 -12.5q26 -117 79 -117q36 0 76 47.5t73 120.5l14 -17q-28 -81 -80 -140
t-106 -59q-39 0 -67.5 34.5t-40 75.5t-11.5 76q129 29 129 89q0 18 -11.5 29t-32.5 11q-96 0 -192 -257q-11 -30 -21 -40.5t-29 -10.5q-39 0 -39 75zM174 404q49 43 89.5 103.5t41.5 112.5q-16 -7 -55 -70t-76 -146z" />
    <glyph glyph-name="l" unicode="l" horiz-adv-x="245" 
d="M2 76q0 92 63.5 249.5t140.5 276t114 118.5q17 0 29 -26.5t13 -53.5q0 -46 -34.5 -130.5t-99.5 -179.5t-136 -151q-11 -59 -11 -91v-3q0 -69 43 -69q35 0 74.5 46.5t70.5 112.5l24 -13q-44 -91 -97 -141.5t-110 -50.5q-84 0 -84 106zM110 241q80 87 143 210.5t63 177.5
q-13 0 -51 -58t-83 -151.5t-72 -178.5z" />
    <glyph glyph-name="m" unicode="m" horiz-adv-x="660" 
d="M-35 0q60 241 64 256q3 11 21.5 19.5t33.5 8.5t24.5 -9t9.5 -24q0 -16 -14 -72q112 153 195 153q63 0 63 -84q0 -29 -17 -80q70 103 145 103q36 0 52.5 -21.5t16.5 -53.5q0 -28 -17 -82.5t-17 -69.5q0 -27 25 -27q63 0 135 156l17 -21q-29 -75 -74.5 -129t-104.5 -54
q-37 0 -57 22t-20 56q0 23 14 69t14 63q0 30 -23 30q-22 0 -51 -32t-78 -105q-13 -18 -31.5 -52.5t-23.5 -42.5q-18 0 -39 7t-21 19q0 7 33 95.5t33 124.5q0 30 -21 30q-41 0 -112.5 -90.5t-107.5 -189.5q-18 0 -42.5 10t-24.5 17z" />
    <glyph glyph-name="n" unicode="n" horiz-adv-x="473" 
d="M-38 14q0 1 18 45t34 99t16 93q22 24 52 24q35 0 35 -30q0 -27 -17 -89q102 136 189 136q40 0 62 -27.5t22 -65.5q0 -33 -19.5 -81.5t-19.5 -68.5q0 -29 24 -29q33 0 71.5 45.5t69.5 107.5l17 -14q-79 -179 -179 -179q-38 0 -59 19t-21 50q0 20 14 65t14 67q0 39 -35 39
q-28 0 -59.5 -22.5t-65 -66.5t-51.5 -71l-47 -75q-43 0 -65 29z" />
    <glyph glyph-name="o" unicode="o" horiz-adv-x="372" 
d="M-12 62q0 66 38 129t82 63q12 0 31 -8q6 46 32.5 76t74.5 30q40 0 59 -22.5t19 -58.5q0 -69 -66 -170q12 -6 28 -6q28 0 60 18.5t49 56.5l18 -13q-21 -48 -56.5 -73t-73.5 -25q-23 0 -50 9q-83 -100 -167 -100q-42 0 -60 27t-18 67zM68 65q0 -46 34 -46q36 0 96 71
q-57 50 -60 147q-19 -10 -44.5 -69.5t-25.5 -102.5zM195 220q0 -23 8 -52.5t21 -45.5q58 83 58 149q0 44 -28 44q-21 0 -40 -28t-19 -67z" />
    <glyph glyph-name="p" unicode="p" horiz-adv-x="413" 
d="M-96 -255q62 180 83 274t51 331q1 10 2.5 13.5t6.5 6.5t15 3q29 0 44 -15.5t15 -37.5q0 -24 -14 -94q74 114 163 114q49 0 81 -33.5t32 -86.5t-29.5 -110.5t-87.5 -99.5t-126 -42q-31 0 -50.5 8t-19.5 18t24 10q89 2 149.5 66.5t60.5 137.5q0 32 -14 53t-42 21
q-46 0 -93 -51t-70 -103q-14 -49 -31 -117l-27 -114q-11 -45 -24.5 -89t-28 -66t-30.5 -22q-12 0 -25.5 9t-14.5 16z" />
    <glyph glyph-name="q" unicode="q" horiz-adv-x="417" 
d="M-14 56q0 59 42 129.5t111.5 121t137.5 50.5q38 0 64 -16t26 -40q0 -27 -21 -38q20 -4 20 -26q0 -18 -36 -80.5t-51 -127.5q95 12 163 140l18 -16q-67 -135 -181 -154q17 -49 17 -105q0 -75 -22 -124.5t-58 -49.5q-43 0 -43 79q0 48 12.5 128.5t32.5 149.5
q-91 -113 -149 -113q-30 0 -56.5 23.5t-26.5 68.5zM69 69q0 -19 8.5 -31.5t24.5 -12.5q18 0 40.5 17t50 53t45.5 62l49 73q24 37 39 37q0 22 -15 35t-40 13q-40 0 -79 -28t-65 -68t-42 -81t-16 -69zM233 -194q0 -21 4 -21q16 0 16 115q0 28 -3 47q-17 -82 -17 -141z" />
    <glyph glyph-name="r" unicode="r" horiz-adv-x="363" 
d="M0 130q46 82 81 181q-10 10 -10 27q0 26 16 49t31 23q10 0 16.5 -12t6.5 -20q0 -4 -5.5 -19.5t-5.5 -17.5q1 -9 18 -21.5t37 -24.5t36.5 -35.5t16.5 -52.5q0 -32 -26 -88t-26 -72q0 -23 25 -23q44 0 98 49.5t76 97.5l24 -18q-31 -70 -95.5 -124.5t-128.5 -54.5
q-37 0 -60 19.5t-23 52.5q0 29 28.5 92t28.5 86q0 38 -50 64q-39 -96 -94 -187z" />
    <glyph glyph-name="s" unicode="s" horiz-adv-x="351" 
d="M-20 86q0 35 12.5 53t32 26t21.5 10q64 66 97 137v10q0 73 45 73q22 0 24 -20q0 -3 -2.5 -14.5t-2.5 -21.5q0 -27 29 -108.5t29 -129.5q0 -17 -4 -41q68 17 118 113l12 -9q-41 -119 -139 -134q-16 -40 -52 -60.5t-83 -20.5q-70 0 -103.5 40.5t-33.5 96.5zM35 84
q0 -36 20 -63.5t55 -27.5q44 0 64 39q-39 8 -72 30.5t-53 48.5q-14 -3 -14 -27zM64 147q17 -29 48 -52.5t70 -32.5q3 9 3 31q0 21 -4 46.5t-7 40t-12 49t-11 43.5q-49 -85 -87 -125z" />
    <glyph glyph-name="t" unicode="t" horiz-adv-x="288" 
d="M-7 59q0 78 55 228q-26 5 -35 9v31q24 -3 48 -5q45 113 96.5 194t83.5 81q11 0 19.5 -8t8.5 -21q0 -18 -19 -53.5t-54 -94.5t-56 -101q115 0 183 7v-33q-119 -12 -201 -12q-52 -123 -52 -201q0 -41 13 -58t41 -17q50 0 102.5 45.5t91.5 123.5l14 -10q-41 -93 -106 -151.5
t-135 -58.5q-46 0 -72 26.5t-26 78.5z" />
    <glyph glyph-name="u" unicode="u" horiz-adv-x="441" 
d="M-1 74q0 57 33 140.5t58 83.5q21 0 47 -26q-21 -31 -43.5 -89t-22.5 -100q0 -60 30 -60q26 0 64 49.5t64.5 100.5t48.5 100q60 -10 60 -34q0 -2 -16 -37.5t-31.5 -81.5t-15.5 -74q0 -35 26 -35h1q33 0 81.5 44.5t83.5 115.5l15 -12q-34 -81 -94 -135t-116 -54
q-19 0 -32.5 7.5t-20.5 17.5t-11 27t-4.5 29t-0.5 31q-22 -34 -38 -54.5t-41 -39t-48 -18.5q-33 0 -55 31t-22 73z" />
    <glyph glyph-name="v" unicode="v" horiz-adv-x="410" 
d="M8 81q0 28 4 119q1 32 7 42t31 10q23 0 28 -8.5t5 -39.5q0 -20 -2.5 -64t-2.5 -66q0 -34 3.5 -47t14.5 -13q32 0 77.5 63.5t79.5 140.5q2 64 15 89t37 25q22 0 32.5 -14t10.5 -30q0 -9 -16 -42t-16 -82q0 -70 43 -70q40 0 78 74l11 -9q-42 -99 -106 -99q-61 0 -85 93
q-105 -192 -183 -192q-66 0 -66 120z" />
    <glyph glyph-name="w" unicode="w" 
d="M-1 74q0 58 33.5 141.5t57.5 83.5q9 0 25.5 -9t20.5 -20q-21 -30 -43 -88t-22 -100q0 -59 31 -59q51 0 143 179q12 61 20 76t23 15q40 0 40 -29q0 -3 -5 -18q-22 -71 -22 -181q0 -51 18 -51q26 0 68.5 58.5t78.5 132.5q0 127 55 127q22 0 33 -14.5t11 -28.5q0 -5 -13 -34
q-20 -40 -20 -89q0 -74 44 -74q38 0 77 76l19 -15q-38 -91 -104 -91q-62 0 -92 83q-105 -183 -185 -183q-55 0 -59 100q0 5 1 31t2 37q-88 -160 -157 -160h-1q-33 0 -55.5 30.5t-22.5 73.5z" />
    <glyph glyph-name="x" unicode="x" horiz-adv-x="430" 
d="M8 144q8 14 20.5 41.5t22.5 46.5t24.5 38.5t35.5 30t48 10.5q38 0 59 -21.5t33 -63.5q106 106 133 106q8 0 18 -7t15 -19q-19 0 -62.5 -37t-95.5 -94q1 -7 3.5 -29.5t5.5 -41t8.5 -38.5t15.5 -32t24 -12q31 0 73.5 50t65.5 99l16 -15q-28 -73 -80.5 -128t-105.5 -55
q-71 0 -91 123q-61 -69 -122 -146q-8 -9 -17 -9q-8 0 -13 6.5t-5 13.5q0 39 149 197q-5 30 -7.5 44t-7.5 30t-12 21.5t-18 5.5q-13 0 -25 -8t-24 -24.5t-21.5 -32t-23 -40t-22.5 -38.5z" />
    <glyph glyph-name="y" unicode="y" horiz-adv-x="400" 
d="M-20 -215q0 24 14 47t30 39t49.5 35.5t51.5 27.5l54 27q17 43 48 156q-77 -109 -144 -109q-33 0 -59 20t-26 63q0 54 34 136t58 82q10 0 30 -10.5t24 -22.5q-19 -26 -41.5 -87t-22.5 -96q0 -37 28 -37h1q56 0 132 121q1 2 4.5 22.5t7.5 34.5t18 27.5t34 13.5q4 0 32 -4
q-1 -25 -23.5 -109t-52.5 -164q114 47 161 169l17 -14q-38 -125 -191 -193q-101 -240 -200 -240q-28 0 -48 16.5t-20 48.5zM19 -215q0 -28 19 -28q21 0 55 42.5t67 117.5q-141 -71 -141 -132z" />
    <glyph glyph-name="z" unicode="z" horiz-adv-x="331" 
d="M-55 -173.5q13 22.5 41 44.5t55 38l70 41q44 26 71 44q-3 65 -84 123q55 15 88 57t33 83q0 47 -41 47q-17 0 -34.5 -10.5t-31.5 -26t-30 -41t-28 -48.5l-27 -55l-19 16q38 104 79.5 159t105.5 55q43 0 71 -23.5t28 -66.5q0 -46 -32 -88t-81 -67q43 -34 65 -82
q81 62 111 140l13 -16q-30 -88 -114 -150q4 -18 4 -33q0 -90 -76.5 -168.5t-173.5 -78.5q-76 0 -76 57q0 27 13 49.5zM-33 -215q0 -27 27 -27q45 0 109.5 57t76.5 139q-22 -14 -59 -36l-60 -34q-22 -13 -46.5 -31t-36 -34.5t-11.5 -33.5z" />
    <glyph glyph-name="braceleft" unicode="{" horiz-adv-x="304" 
d="M62 -15q0 34 36.5 121t36.5 131q0 60 -52 100q48 4 71 45.5t27 96.5l9 111q4 54 28 92t73 38q62 0 62 -39q0 -14 -8 -29q-28 15 -39 15q-9 0 -16.5 -5.5t-13 -18t-9.5 -24t-7 -33.5l-5 -35q-2 -14 -5 -40q-7 -59 -11.5 -88.5t-18.5 -61.5t-36 -40q21 -24 21 -68
q0 -61 -36.5 -152t-36.5 -124q0 -26 30 -26q17 0 32 10q-3 -48 -54 -48q-41 0 -59.5 20.5t-18.5 51.5z" />
    <glyph glyph-name="bar" unicode="|" horiz-adv-x="294" 
d="M78 -132q27 71 44.5 256t29.5 360t24 214q40 -16 40 -88q-1 -107 -8 -290t-15 -265q-16 -187 -115 -187z" />
    <glyph glyph-name="braceright" unicode="}" horiz-adv-x="301" 
d="M4 -35q0 13 2 21q27 -18 43 -18q25 0 37 44t21 122q7 58 12 90t21 70.5t40 54.5q-23 27 -23 68q0 47 34.5 137t34.5 105q0 21 -22 21q-15 0 -31 -11q-1 3 -1 9q0 22 17 36.5t50 14.5q62 0 62 -47q0 -22 -36 -108.5t-36 -140.5q0 -67 50 -97q-50 -12 -74 -60.5t-28 -108.5
l-8 -117q-4 -58 -27 -97.5t-72 -39.5q-66 0 -66 52z" />
    <glyph glyph-name="asciitilde" unicode="~" horiz-adv-x="477" 
d="M59 159q43 49 86 49q21 0 93 -19.5t97 -19.5q11 0 59 8q-53 -54 -93 -54q-23 0 -93 21.5t-95 21.5t-54 -7z" />
    <glyph glyph-name="exclamdown" unicode="&#xa1;" horiz-adv-x="297" 
d="M-60 -219q0 40 118 270.5t178 315.5l12 -4q0 -49 -54 -189l-39 -99l-38 -94q-24 -59 -41 -92t-37.5 -69t-38 -52.5t-32.5 -16.5q-11 0 -19.5 9t-8.5 21zM210 431q0 18 18.5 34t40.5 16q40 0 40 -34q0 -18 -20.5 -32.5t-44.5 -14.5q-34 0 -34 31z" />
    <glyph glyph-name="cent" unicode="&#xa2;" horiz-adv-x="426" 
d="M60 241q0 87 63 164t143 100q16 82 28 165q2 12 5.5 20t17.5 17.5t38 14.5l-38 -210q39 0 61 -21.5t22 -61.5q0 -28 -11.5 -49.5t-33.5 -21.5q-18 0 -33 19q9 4 16 22t7 36q0 15 -10 25t-26 10q-43 -236 -57 -304q65 13 117 58l22 -24q-72 -65 -148 -83
q-33 -150 -66.5 -214.5t-101.5 -64.5q44 47 102 272q-52 2 -84.5 36.5t-32.5 94.5zM138 236q0 -63 52 -74q28 109 65 287q-50 -33 -83.5 -95.5t-33.5 -117.5z" />
    <glyph glyph-name="sterling" unicode="&#xa3;" horiz-adv-x="691" 
d="M-10 40q0 50 82 50q49 0 126 -20q28 50 44 95q-108 -13 -119 -15q4 80 143 84l9 29q-24 3 -73 3q-39 0 -67 -3q0 28 49 48.5t112 20.5l21 62q-48 16 -76 45.5t-28 62.5q0 32 23 59.5t60 27.5q-19 -25 -19 -65q0 -64 52 -95q21 65 41.5 112.5t47.5 90.5t60 65.5t72 22.5
q42 0 76 -25t34 -83q0 -36 -15.5 -75t-45.5 -75t-83.5 -59t-120.5 -23q-11 -29 -17 -51l50 -6q33 -4 60 -5.5t57 -1.5q-24 -32 -54 -39t-134 -9q-13 -32 -14 -36q11 -1 76.5 -7.5t106.5 -7.5q-24 -32 -56 -39t-152 -9q-34 -78 -60 -115q194 -58 264 -58q44 0 89 22
q-38 -105 -120 -105q-21 0 -46 5t-57 16.5t-53.5 20t-61 26t-54.5 23.5q-54 -57 -116 -57q-49 0 -81 30.5t-32 62.5zM21 31q0 -13 21.5 -31t46.5 -18q40 0 78 42q-71 26 -106 26q-40 0 -40 -19zM406 413q54 4 98.5 45.5t65.5 90t21 87.5q0 45 -33 45q-21 0 -41 -20
t-40 -61.5t-35 -81.5t-36 -105z" />
    <glyph glyph-name="currency" unicode="&#xa4;" horiz-adv-x="735" 
d="M90 47q22 20 52.5 41t56 43.5t51.5 57.5q-10 33 -10 64q0 92 43 172q-58 58 -122 112q-20 17 -22 65q0 21 10 44q48 -43 168 -166q60 72 132 72q75 0 112 -62l25 35q17 23 25.5 33t24.5 23.5t34.5 19t42.5 5.5q7 0 31 -4q-5 -8 -14.5 -20t-25.5 -30l-31 -35l-42 -47
l-49 -54q2 -18 2 -26q0 -75 -51 -170q119 -103 120 -167q0 -13 -6 -33q-14 22 -35.5 43t-57.5 52.5t-57 51.5q-59 -69 -128 -69q-55 0 -87 37q-85 -88 -192 -88zM312 245q0 -34 20.5 -57t43.5 -23q32 0 65 40.5t53.5 97.5t20.5 107q0 33 -19 56t-43 23q-38 0 -72 -44.5
t-51.5 -100t-17.5 -99.5z" />
    <glyph glyph-name="yen" unicode="&#xa5;" horiz-adv-x="868" 
d="M119 536q0 65 60 124.5t142 59.5q58 0 88 -32t30 -76q0 -31 -32 -146.5t-32 -171.5q0 -95 69 -95q44 0 87 39t71 89t53 112q65 281 126 281q12 0 32 -11t35 -27q-48 -75 -78.5 -167t-58 -212t-46.5 -181q26 -1 69 -4.5t50 -3.5q-60 -41 -132 -41l-17 -48q36 -1 121 -7
l30 -2q-60 -42 -127 -42h-46q-77 -161 -231 -161q-65 0 -109 26.5t-44 73.5q0 58 77 85q-10 -38 -10 -68q0 -35 23.5 -56.5t64.5 -21.5q94 0 156 122q-77 0 -157 -12q23 60 178 64l16 47q-121 -2 -196 -13q13 37 66 50.5t143 14.5q5 19 15 80.5t16 92.5q-93 -153 -208 -153
q-62 0 -92.5 34t-30.5 93q0 52 32 171.5t32 161.5q0 76 -55 76q-48 0 -75.5 -52.5t-27.5 -107.5q0 -33 13 -62q-90 0 -90 77z" />
    <glyph glyph-name="brokenbar" unicode="&#xa6;" horiz-adv-x="295" 
d="M79 -132q30 78 52 331q22 26 54 26q19 0 19 -30q0 -81 -5.5 -138t-19 -101.5t-38.5 -66t-62 -21.5zM137 282l8 106q5 68 7.5 105t7 83.5t8.5 75.5t9 47q40 -16 40 -72q0 -20 -3 -106.5t-3 -140.5q0 -47 -34 -70z" />
    <glyph glyph-name="section" unicode="&#xa7;" horiz-adv-x="443" 
d="M20 33q0 48 32 69.5t75 21.5q-46 -46 -46 -92q0 -33 26.5 -56.5t73.5 -23.5q46 0 80 22.5t34 60.5q0 28 -22 52t-53 43l-62 40q-31 21 -53 52t-22 69q0 58 44 100.5t123 43.5q-42 24 -65 48.5t-23 61.5q0 60 54.5 117t135.5 57q80 0 80 -70q0 -67 -51 -145q-32 5 -32 35
q0 19 18 67t18 64q0 20 -30 20q-56 0 -97.5 -44t-41.5 -86q0 -24 20 -43.5t48 -34.5t56 -33.5t48 -51.5t20 -77q0 -65 -40.5 -99.5t-106.5 -34.5q-13 0 -17 1q31 -17 51 -31t39 -41.5t19 -59.5q0 -63 -57 -102.5t-128 -39.5q-61 0 -104.5 31.5t-43.5 88.5zM148 315
q0 -12 3.5 -23.5t12 -26.5t29 -24t49.5 -9q45 0 70 21.5t25 60.5q0 36 -22 59t-65 23q-42 0 -72 -22t-30 -59z" />
    <glyph glyph-name="dieresis" unicode="&#xa8;" horiz-adv-x="230" 
d="M-4 469q0 18 22 33t45 15q36 0 36 -32q0 -18 -19 -34t-41 -16q-18 0 -30.5 8.5t-12.5 25.5zM141 449q0 19 21.5 33.5t45.5 14.5q37 0 37 -33q0 -18 -19.5 -33.5t-42.5 -15.5q-17 0 -29.5 9t-12.5 25z" />
    <glyph glyph-name="copyright" unicode="&#xa9;" horiz-adv-x="620" 
d="M88 358q0 85 40.5 146.5t97.5 88.5t120 27q46 0 92 -16.5t85 -47t63 -81.5t24 -113q0 -85 -42.5 -146.5t-101 -88.5t-122.5 -27q-99 0 -176 68t-80 190zM129 362q0 -97 59 -158.5t156 -61.5q98 0 161.5 61.5t63.5 158.5q0 94 -62.5 155t-159.5 61q-96 0 -157 -60
t-61 -156zM259 300v129q0 95 88 95q45 0 69 -25.5t24 -50.5q0 -24 -22 -24q-13 0 -19 9t-7 20.5t-11.5 20.5t-31.5 9q-46 0 -46 -54v-129q0 -29 11 -41.5t40 -12.5q21 0 31 9t11 20.5t6 20.5t16 9q24 0 24 -21q0 -33 -24 -55.5t-65 -22.5q-42 0 -68 23t-26 71z" />
    <glyph glyph-name="ordfeminine" unicode="&#xaa;" horiz-adv-x="410" 
d="M125 511q0 64 63.5 136.5t132.5 72.5q31 0 52 -16t21 -41q0 -30 -30 -34q15 -8 16 -19q0 -9 -19.5 -41.5t-19.5 -48.5q0 -23 18 -23q19 0 47.5 27.5t59.5 78.5l10 -16q-22 -57 -61 -92.5t-76 -35.5q-45 0 -47 63q-64 -75 -110 -75q-24 0 -40.5 16.5t-16.5 47.5zM187 510
q0 -20 13 -20q42 0 138 141l7 3q5 15 5 25q0 29 -30 29q-44 0 -88.5 -64t-44.5 -114z" />
    <glyph glyph-name="guillemotleft" unicode="&#xab;" horiz-adv-x="479" 
d="M27 165q54 21 108.5 64t89.5 90q2 -2 7 -14.5t5 -17.5q0 -59 -160 -140q61 -40 164 -77q-24 -26 -41 -26q-38 0 -100.5 44.5t-72.5 76.5zM180 165q54 21 108.5 64t89.5 90q2 -2 7 -14.5t5 -17.5q0 -59 -160 -140q61 -40 164 -77q-24 -26 -41 -26q-38 0 -100.5 44.5
t-72.5 76.5z" />
    <glyph glyph-name="logicalnot" unicode="&#xac;" horiz-adv-x="676" 
d="M44 170q21 38 101.5 52t212.5 14q84 0 153 -3q9 29 38 56q0 -8 8 -58q70 -2 77 -4q-25 -26 -74 -36q0 -19 2 -27q0 -39 -3.5 -62.5t-19 -45t-44.5 -30.5q15 70 15 89q0 8 -0.5 32.5t-0.5 38.5q-15 -1 -43 -1q-57 -1 -135 -2t-106 -1.5t-75.5 -3.5t-105.5 -8z" />
    <glyph glyph-name="uni00AD" unicode="&#xad;" horiz-adv-x="484" 
d="M43 142q6 21 27 34.5t49 19t46.5 7.5t36.5 2q90 0 216 -7q-10 -23 -45.5 -38.5t-76.5 -15.5q-11 0 -54 3t-71 3q-68 0 -128 -8z" />
    <glyph glyph-name="registered" unicode="&#xae;" horiz-adv-x="619" 
d="M88 358q0 85 41.5 146.5t99.5 88.5t121 27q64 0 121.5 -27.5t98 -88t40.5 -142.5q0 -84 -43 -146t-102.5 -89t-122.5 -27t-119.5 27.5t-95.5 88t-39 142.5zM129 359q0 -94 58 -155.5t155 -61.5t162 61.5t65 159.5q0 94 -60 154.5t-157 60.5t-160 -60.5t-63 -158.5z
M263 503q0 8 6 14t15 6h65q42 0 70.5 -21t28.5 -68q0 -69 -58 -84l25 -48l24 -44q10 -18 10 -20q3 -6 3 -11q0 -7 -7.5 -13.5t-15.5 -6.5q-15 0 -30 31l-55 108h-32v-118q0 -10 -7 -15.5t-15 -5.5q-9 0 -16 5.5t-7 15.5zM310 386h42q51 0 51 48q0 49 -52 49h-41v-97z" />
    <glyph glyph-name="degree" unicode="&#xb0;" horiz-adv-x="293" 
d="M112 453q0 37 37 73t87 36q41 0 61.5 -16t20.5 -41q0 -38 -38 -73.5t-89 -35.5q-39 0 -59 16t-20 41zM158 454q0 -26 37 -26q27 0 53 26t26 51q0 24 -38 24q-29 0 -53.5 -25t-24.5 -50z" />
    <glyph glyph-name="plusminus" unicode="&#xb1;" horiz-adv-x="485" 
d="M56 73q8 57 188 57q97 0 180 -9q-40 -22 -71.5 -27t-107.5 -7q-90 -2 -189 -14zM58 283q19 49 150 54v31q0 49 34 93q9 -50 14 -124q60 -1 164 -9q-59 -36 -119 -36h-45q-1 -57 -12.5 -90.5t-46.5 -45.5q11 62 11 136q-86 0 -150 -9z" />
    <glyph glyph-name="uni00B2" unicode="&#xb2;" horiz-adv-x="397" 
d="M92 353q0 32 48 32q22 0 52 -6q48 41 87 111t39 128q0 63 -46 63q-26 0 -42 -24t-16 -62q0 -20 12 -45h-19q-47 11 -47 52q0 44 34 77t86 33q42 0 69 -28t27 -69q0 -62 -38 -130t-95 -116q68 -14 88 -14q14 0 56 25q-11 -41 -26.5 -60t-41.5 -19q-49 0 -121 36
q-34 -20 -59 -20q-20 0 -33.5 10t-13.5 26zM129 352q0 -3 8 -3q6 0 14 4q-6 1 -14 1t-8 -2z" />
    <glyph glyph-name="uni00B3" unicode="&#xb3;" horiz-adv-x="334" 
d="M103 392q0 23 14 41.5t38 18.5q9 0 30 -7q-25 -19 -25 -46q0 -22 11.5 -39t31.5 -17q26 0 48 28.5t22 67.5q0 72 -78 91q45 19 72.5 54t27.5 65q0 20 -11 32t-25 12q-19 0 -33 -15t-14 -36q0 -10 10 -30q-5 -9 -15 -16t-17 -7q-13 0 -21 15.5t-8 31.5q0 37 31 59.5
t73 22.5q36 0 63 -19t27 -52q0 -30 -19 -62t-50 -48q60 -30 60 -93q0 -50 -42 -90t-105 -40q-47 0 -71.5 24t-24.5 54z" />
    <glyph glyph-name="acute" unicode="&#xb4;" horiz-adv-x="141" 
d="M93 443q0 20 37.5 67.5t65.5 47.5q26 0 30 -35q-85 -82 -109 -113q-11 5 -17.5 15.5t-6.5 17.5z" />
    <glyph glyph-name="uni00B5" unicode="&#xb5;" horiz-adv-x="615" 
d="M-29 -234q13 43 36 103l37 104q15 44 34 142.5t33 234.5q1 10 2.5 13.5t7 6.5t16.5 3q53 0 57 -52q-45 -207 -45 -261q0 -42 25 -42q18 0 38.5 19t41.5 52.5t37.5 63t36.5 69.5l27 52q59 -9 59 -33q-64 -129 -64 -199q0 -34 28 -34q34 0 83.5 44.5t84.5 116.5l24 -16
q-33 -82 -94 -135.5t-119 -53.5q-37 0 -59 22t-22 58q0 10 1 16q-61 -96 -122 -96q-24 0 -42 18q-74 -262 -102 -262q-14 0 -26 18.5t-14 27.5z" />
    <glyph glyph-name="paragraph" unicode="&#xb6;" horiz-adv-x="686" 
d="M71 336q0 70 50 125.5t120 84t149 35.5q-3 66 -12 125q20 10 37 10q16 0 26 -12.5t14 -36t5 -41t1 -43.5q2 0 19.5 -2.5t23.5 -4.5q-5 95 -10 129q16 11 34 11q36 0 47 -157q38 -11 90 -34q-4 -10 -24 -23.5t-27 -13.5q-3 0 -37 16q5 -59 5 -133q0 -370 -11 -405
q-7 -24 -31.5 -38.5t-53.5 -14.5q2 6 6.5 87t8.5 209.5t4 234.5q0 16 -0.5 46.5t-0.5 44.5q-4 1 -11 2.5t-15.5 2.5t-12.5 2q8 -140 8 -308q0 -234 -11 -267q-8 -22 -40 -38t-64 -16q6 106 17 239q-27 2 -54 5.5t-63.5 11t-67.5 21.5t-59 32.5t-44 48t-16 65.5z" />
    <glyph glyph-name="periodcentered" unicode="&#xb7;" horiz-adv-x="241" 
d="M58 152q0 16 21.5 32.5t42.5 16.5q33 0 33 -29q0 -15 -16.5 -36t-39.5 -21q-41 0 -41 37z" />
    <glyph glyph-name="cedilla" unicode="&#xb8;" horiz-adv-x="232" 
d="M13 -145q0 21 32 43q13 -45 40 -45q24 0 52.5 30t28.5 53q0 16 -16 16q-13 0 -42 -18.5t-37 -18.5t-14.5 8.5t-6.5 16.5q0 3 22 32.5t33 39.5l45 35l-47 -75q33 12 54 12q24 0 39 -13t15 -37q0 -42 -40.5 -81t-91.5 -39q-28 0 -47 13t-19 28z" />
    <glyph glyph-name="uni00B9" unicode="&#xb9;" horiz-adv-x="307" 
d="M87 352q54 0 82 3q16 38 36 147.5t22 117.5q-32 -18 -42 -18q-22 0 -22 30q36 18 121 85q10 -10 10 -23q0 -9 -40 -207l-12 -60q-10 -45 -20 -66q52 0 62 -46q-39 3 -52 3q-20 0 -46.5 -2t-39.5 -2t-29.5 10t-29.5 28z" />
    <glyph glyph-name="ordmasculine" unicode="&#xba;" horiz-adv-x="310" 
d="M127 517q0 59 55 130.5t119 71.5q23 0 34 -13q16 -1 24.5 -11t8.5 -21q0 -9 -13.5 -38t-13.5 -42q0 -11 13 -11q8 0 20 2q5 0 7 1q0 -17 -11.5 -26t-27.5 -9q-14 0 -25 8q-23 -49 -56 -78t-70 -29q-29 0 -46.5 18t-17.5 47zM183 524q0 -14 7 -23t18 -9q21 0 47.5 29.5
t42.5 67.5q-4 16 -4 37q0 36 6 51q-46 -7 -81.5 -61t-35.5 -92z" />
    <glyph glyph-name="guillemotright" unicode="&#xbb;" horiz-adv-x="491" 
d="M67 70q103 37 164 77q-160 81 -160 140q0 5 5 17.5t7 14.5q35 -47 89.5 -90t108.5 -64q-10 -32 -72.5 -76.5t-100.5 -44.5q-17 0 -41 26zM220 70q103 37 164 77q-160 81 -160 140q0 5 5 17.5t7 14.5q35 -47 89.5 -90t108.5 -64q-10 -32 -72.5 -76.5t-100.5 -44.5
q-17 0 -41 26z" />
    <glyph glyph-name="onequarter" unicode="&#xbc;" horiz-adv-x="686" 
d="M52 -87q72 70 231 343.5t214 414.5q6 14 30 27.5t50 13.5q7 0 19 -2q-19 -47 -145 -282.5t-187 -330.5q-59 -91 -109 -137.5t-103 -46.5zM75 345q62 0 84 4q16 39 37 152t22 119q-30 -18 -42 -18q-22 0 -22 26q0 1 19 15l51 36q31 22 51 38q10 -9 10 -23q0 -26 -52 -271
q-10 -49 -21 -68q53 0 63 -47q-42 3 -53 3q-18 0 -45 -2t-43 -2q-29 0 -59 38zM377 121q0 28 12 38q168 141 218 224q20 -2 21 -21q0 -4 -5.5 -23t-16.5 -64t-21 -101h10q3 0 53 8q-39 -52 -71 -52q-17 -123 -17 -157q-63 3 -63 35q0 20 21 123q-11 1 -33 1q-64 0 -108 -11z
M459 177q6 0 29.5 -0.5t40.5 -0.5q11 60 18 82l-28 -25q-17 -17 -34 -31.5t-26 -24.5z" />
    <glyph glyph-name="onehalf" unicode="&#xbd;" horiz-adv-x="743" 
d="M60 -87q72 71 232 344.5t214 413.5q6 16 36 32.5t56 16.5q-12 -48 -135 -282.5t-191 -340.5q-59 -91 -108.5 -137.5t-103.5 -46.5zM77 345q62 0 84 4q16 39 37 152t22 119q-30 -18 -42 -18q-22 0 -22 26q0 1 19 15l51 36q31 22 51 38q10 -9 10 -23q0 -26 -52 -271
q-10 -49 -21 -68q53 0 63 -47q-42 3 -53 3q-18 0 -45 -2t-43 -2q-29 0 -59 38zM376 25q0 32 48 32q22 0 52 -6q48 41 87 111t39 128q0 63 -46 63q-26 0 -42 -24t-16 -62q0 -19 12 -45h-19q-47 11 -47 52q0 44 34 77t86 33q42 0 69 -28t27 -69q0 -62 -38 -130t-95 -116
q68 -14 88 -14q14 0 56 25q-11 -41 -26.5 -60t-41.5 -19q-49 0 -121 36q-34 -20 -59 -20q-20 0 -33.5 10t-13.5 26zM413 24q0 -3 8 -3q6 0 14 4q-6 1 -14 1t-8 -2z" />
    <glyph glyph-name="threequarters" unicode="&#xbe;" horiz-adv-x="733" 
d="M96 386q0 24 13.5 42.5t38.5 18.5q8 0 31 -6q-27 -19 -27 -50q0 -20 13.5 -36t32.5 -16q27 0 49 28.5t22 67.5q0 74 -79 92q44 19 73 55.5t29 65.5q0 21 -11.5 32.5t-26.5 11.5q-18 0 -33 -14.5t-15 -33.5q0 -13 10 -33q-4 -9 -14 -16t-18 -7q-12 0 -20 15t-10 32
q0 38 32 60.5t74 22.5q37 0 64 -19t27 -54q0 -30 -19.5 -62.5t-50.5 -48.5q30 -14 45.5 -40.5t15.5 -54.5q0 -50 -42.5 -91t-106.5 -41q-49 0 -73 24t-24 55zM100 -87q64 78 121.5 161t111.5 181l80 146q26 49 78 157t54 113q8 18 37 33.5t56 15.5q-13 -50 -129.5 -271.5
t-198.5 -350.5q-59 -93 -107 -139t-103 -46zM425 121q0 28 12 38q169 142 212 221l6 3q20 -2 20 -21q0 -7 -5 -25.5t-15.5 -63t-21.5 -99.5q13 0 63 8q-39 -52 -71 -52q-17 -123 -17 -157q-63 3 -63 35q0 20 21 123q-91 0 -141 -10zM507 177q5 0 28 -0.5t42 -0.5
q11 60 18 82q-32 -31 -55.5 -51t-32.5 -30z" />
    <glyph glyph-name="questiondown" unicode="&#xbf;" horiz-adv-x="437" 
d="M-41 -142q0 36 16 66.5t41 55.5l52 49q27 24 51.5 56t36.5 68q7 22 13 58.5t14 59.5q26 -13 34 -23.5t8 -32.5q0 -38 -19.5 -73.5t-47.5 -65.5l-56 -59q-28 -30 -47.5 -68t-19.5 -78q0 -53 21.5 -82t55.5 -29q54 0 100.5 60t46.5 139q0 32 -11 68q46 -7 64 -28t18 -56
q0 -89 -61.5 -156t-159.5 -67q-69 0 -109.5 36t-40.5 102zM166 348q0 20 18.5 36t41.5 16q17 0 28.5 -8.5t11.5 -24.5q0 -19 -21 -33.5t-44 -14.5q-35 0 -35 29z" />
    <glyph glyph-name="Agrave" unicode="&#xc0;" 
d="M0 -25q0 74 147 300q-60 4 -147 4q24 65 116 65q20 0 74 -6q112 162 209 273t129 111q26 0 68 -39q-33 -25 -94.5 -239.5t-61.5 -335.5q0 -79 35 -79q54 0 133 149l18 -19q-32 -85 -82 -136.5t-104 -51.5q-88 0 -88 155q0 49 13 124q-51 8 -143 19q-93 -165 -176 -356
q-46 24 -46 62zM254 326q23 -5 66.5 -15t54.5 -12q36 172 106 335q-89 -70 -227 -308zM420 907q1 19 10.5 29t21.5 10q28 0 69 -46t41 -67q0 -9 -7 -20t-18 -16q-49 58 -117 110z" />
    <glyph glyph-name="Aacute" unicode="&#xc1;" 
d="M0 -25q0 74 147 300q-60 4 -147 4q24 65 116 65q20 0 74 -6q112 162 209 273t129 111q26 0 68 -39q-33 -25 -94.5 -239.5t-61.5 -335.5q0 -79 35 -79q54 0 133 149l18 -19q-32 -85 -82 -136.5t-104 -51.5q-88 0 -88 155q0 49 13 124q-51 8 -143 19q-93 -165 -176 -356
q-46 24 -46 62zM254 326q23 -5 66.5 -15t54.5 -12q36 172 106 335q-89 -70 -227 -308zM555 831q0 20 37.5 67.5t65.5 47.5q26 0 30 -35q-85 -82 -109 -113q-11 5 -17.5 15.5t-6.5 17.5z" />
    <glyph glyph-name="Acircumflex" unicode="&#xc2;" 
d="M0 -25q0 74 147 300q-60 4 -147 4q24 65 116 65q20 0 74 -6q112 162 209 273t129 111q26 0 68 -39q-33 -25 -94.5 -239.5t-61.5 -335.5q0 -79 35 -79q54 0 133 149l18 -19q-32 -85 -82 -136.5t-104 -51.5q-88 0 -88 155q0 49 13 124q-51 8 -143 19q-93 -165 -176 -356
q-46 24 -46 62zM254 326q23 -5 66.5 -15t54.5 -12q36 172 106 335q-89 -70 -227 -308zM465 852q0 27 45 56.5t71 29.5q25 0 60.5 -38t35.5 -68q0 -26 -25 -39q-23 39 -72 83q-46 -15 -102 -52q-13 8 -13 28z" />
    <glyph glyph-name="Atilde" unicode="&#xc3;" 
d="M0 -25q0 74 147 300q-60 4 -147 4q24 65 116 65q20 0 74 -6q112 162 209 273t129 111q26 0 68 -39q-33 -25 -94.5 -239.5t-61.5 -335.5q0 -79 35 -79q54 0 133 149l18 -19q-32 -85 -82 -136.5t-104 -51.5q-88 0 -88 155q0 49 13 124q-51 8 -143 19q-93 -165 -176 -356
q-46 24 -46 62zM254 326q23 -5 66.5 -15t54.5 -12q36 172 106 335q-89 -70 -227 -308zM378 802q19 22 45 39.5t45 17.5q29 0 91 -20t96 -20q27 0 68 7q-51 -54 -92 -54q-31 0 -96.5 19t-94.5 19q-16 0 -62 -8z" />
    <glyph glyph-name="Adieresis" unicode="&#xc4;" 
d="M0 -25q0 74 147 300q-60 4 -147 4q24 65 116 65q20 0 74 -6q112 162 209 273t129 111q26 0 68 -39q-33 -25 -94.5 -239.5t-61.5 -335.5q0 -79 35 -79q54 0 133 149l18 -19q-32 -85 -82 -136.5t-104 -51.5q-88 0 -88 155q0 49 13 124q-51 8 -143 19q-93 -165 -176 -356
q-46 24 -46 62zM254 326q23 -5 66.5 -15t54.5 -12q36 172 106 335q-89 -70 -227 -308zM436 857q0 18 22 33t45 15q36 0 36 -32q0 -18 -19 -34t-41 -16q-18 0 -30.5 8.5t-12.5 25.5zM581 837q0 19 21.5 33.5t45.5 14.5q37 0 37 -33q0 -18 -19.5 -33.5t-42.5 -15.5
q-17 0 -29.5 9t-12.5 25z" />
    <glyph glyph-name="Aring" unicode="&#xc5;" 
d="M0 -25q0 74 147 300q-60 4 -147 4q24 65 116 65q20 0 74 -6q112 162 209 273t129 111q26 0 68 -39q-33 -25 -94.5 -239.5t-61.5 -335.5q0 -79 35 -79q54 0 133 149l18 -19q-32 -85 -82 -136.5t-104 -51.5q-88 0 -88 155q0 49 13 124q-51 8 -143 19q-93 -165 -176 -356
q-46 24 -46 62zM254 326q23 -5 66.5 -15t54.5 -12q36 172 106 335q-89 -70 -227 -308zM499 841q0 37 37 73t87 36q41 0 61.5 -16t20.5 -41q0 -38 -38.5 -73.5t-89.5 -35.5q-39 0 -58.5 16t-19.5 41zM551 847q1 -11 9.5 -19.5t24.5 -8.5q25 0 47 22.5t22 44.5q0 26 -35 26
q-25 0 -46.5 -21.5t-21.5 -43.5z" />
    <glyph glyph-name="AE" unicode="&#xc6;" horiz-adv-x="790" 
d="M-1 -26q0 75 147 301q-60 4 -100 4h-47q24 65 117 65q19 0 73 -6q111 160 208 272t131 112q155 0 333 -23q-18 -49 -186 -49q-38 0 -104 2q-39 -78 -78 -229q57 -2 136.5 -13t81.5 -11q-19 -49 -186 -49q-36 0 -51 1q-35 -157 -35 -251q0 -6 3 -33q36 -5 145.5 -14
t142.5 -17q-17 -48 -185 -48q-116 0 -158 4q-37 33 -37 134q0 47 14 124q-51 8 -143 19q-93 -165 -176 -356q-46 24 -46 61zM253 326q22 -4 63.5 -14t57.5 -13q36 172 106 335q-89 -70 -227 -308z" />
    <glyph glyph-name="Ccedilla" unicode="&#xc7;" horiz-adv-x="569" 
d="M32 160q0 129 63 260t162.5 215t199.5 84q104 0 104 -91q0 -65 -40 -141t-83 -76q-25 0 -41 31q38 42 73.5 100t35.5 94q0 39 -45 39q-70 0 -149 -85t-131 -209t-52 -230q0 -80 36 -135t109 -55q78 0 156.5 63t120.5 151l26 -17q-43 -81 -102 -141t-130 -86l-23 -38
q33 12 54 12q24 0 39 -13t15 -37q0 -42 -40.5 -81t-91.5 -39q-28 0 -47 13t-19 28q0 21 32 43q13 -45 40 -45q24 0 52.5 30t28.5 53q0 16 -16 16q-13 0 -42 -18.5t-37 -18.5t-14.5 8.5t-6.5 16.5q0 2 14.5 23t27.5 36q-35 -7 -61 -7q-107 0 -162.5 72.5t-55.5 174.5z" />
    <glyph glyph-name="Egrave" unicode="&#xc8;" horiz-adv-x="533" 
d="M-4 101q0 90 73.5 166.5t181.5 91.5q-72 63 -72 151q0 83 61.5 146t155.5 63q61 0 94 -29.5t33 -85.5q0 -57 -28.5 -105.5t-57.5 -48.5q-25 0 -48 41q88 72 88 134q0 29 -19.5 45t-52.5 16q-64 0 -100.5 -55.5t-36.5 -129.5q0 -105 74 -162q-104 -16 -170 -88.5
t-66 -151.5q0 -54 32 -97.5t98 -43.5q79 0 156.5 64t120.5 153l27 -17q-59 -111 -144 -178t-187 -67q-94 0 -153.5 54t-59.5 134zM407 907q1 19 10.5 29t21.5 10q28 0 69 -46t41 -67q0 -9 -7 -20t-18 -16q-49 58 -117 110z" />
    <glyph glyph-name="Eacute" unicode="&#xc9;" horiz-adv-x="533" 
d="M-4 101q0 90 73.5 166.5t181.5 91.5q-72 63 -72 151q0 83 61.5 146t155.5 63q61 0 94 -29.5t33 -85.5q0 -57 -28.5 -105.5t-57.5 -48.5q-25 0 -48 41q88 72 88 134q0 29 -19.5 45t-52.5 16q-64 0 -100.5 -55.5t-36.5 -129.5q0 -105 74 -162q-104 -16 -170 -88.5
t-66 -151.5q0 -54 32 -97.5t98 -43.5q79 0 156.5 64t120.5 153l27 -17q-59 -111 -144 -178t-187 -67q-94 0 -153.5 54t-59.5 134zM466 831q0 20 37.5 67.5t65.5 47.5q26 0 30 -35q-85 -82 -109 -113q-11 5 -17.5 15.5t-6.5 17.5z" />
    <glyph glyph-name="Ecircumflex" unicode="&#xca;" horiz-adv-x="533" 
d="M-4 101q0 90 73.5 166.5t181.5 91.5q-72 63 -72 151q0 83 61.5 146t155.5 63q61 0 94 -29.5t33 -85.5q0 -57 -28.5 -105.5t-57.5 -48.5q-25 0 -48 41q88 72 88 134q0 29 -19.5 45t-52.5 16q-64 0 -100.5 -55.5t-36.5 -129.5q0 -105 74 -162q-104 -16 -170 -88.5
t-66 -151.5q0 -54 32 -97.5t98 -43.5q79 0 156.5 64t120.5 153l27 -17q-59 -111 -144 -178t-187 -67q-94 0 -153.5 54t-59.5 134zM382 852q0 27 45 56.5t71 29.5q25 0 60.5 -38t35.5 -68q0 -26 -25 -39q-23 39 -72 83q-46 -15 -102 -52q-13 8 -13 28z" />
    <glyph glyph-name="Edieresis" unicode="&#xcb;" horiz-adv-x="533" 
d="M-4 101q0 90 73.5 166.5t181.5 91.5q-72 63 -72 151q0 83 61.5 146t155.5 63q61 0 94 -29.5t33 -85.5q0 -57 -28.5 -105.5t-57.5 -48.5q-25 0 -48 41q88 72 88 134q0 29 -19.5 45t-52.5 16q-64 0 -100.5 -55.5t-36.5 -129.5q0 -105 74 -162q-104 -16 -170 -88.5
t-66 -151.5q0 -54 32 -97.5t98 -43.5q79 0 156.5 64t120.5 153l27 -17q-59 -111 -144 -178t-187 -67q-94 0 -153.5 54t-59.5 134zM357 857q0 18 22 33t45 15q36 0 36 -32q0 -18 -19 -34t-41 -16q-18 0 -30.5 8.5t-12.5 25.5zM502 837q0 19 21.5 33.5t45.5 14.5q37 0 37 -33
q0 -18 -19.5 -33.5t-42.5 -15.5q-17 0 -29.5 9t-12.5 25z" />
    <glyph glyph-name="Igrave" unicode="&#xcc;" horiz-adv-x="503" 
d="M-18 -88q3 31 16.5 50.5t39.5 28.5t51.5 12t64.5 3q41 88 100 346.5t72 296.5q-124 -2 -237 -24q10 50 62.5 72t159.5 22q120 0 290 -22q-49 -47 -116 -47q-76 0 -108 -1l-6 -30q-2 -12 -36.5 -201.5t-50.5 -253.5q-30 -120 -72 -160q13 -1 94 -9t132 -9
q-59 -56 -135 -56q-139 0 -193.5 -3t-127.5 -15zM287 907q1 19 10.5 29t21.5 10q28 0 69 -46t41 -67q0 -9 -7 -20t-18 -16q-49 58 -117 110z" />
    <glyph glyph-name="Iacute" unicode="&#xcd;" horiz-adv-x="503" 
d="M-18 -88q3 31 16.5 50.5t39.5 28.5t51.5 12t64.5 3q41 88 100 346.5t72 296.5q-124 -2 -237 -24q10 50 62.5 72t159.5 22q120 0 290 -22q-49 -47 -116 -47q-76 0 -108 -1l-6 -30q-2 -12 -36.5 -201.5t-50.5 -253.5q-30 -120 -72 -160q13 -1 94 -9t132 -9
q-59 -56 -135 -56q-139 0 -193.5 -3t-127.5 -15zM371 831q0 20 37.5 67.5t65.5 47.5q26 0 30 -35q-85 -82 -109 -113q-11 5 -17.5 15.5t-6.5 17.5z" />
    <glyph glyph-name="Icircumflex" unicode="&#xce;" horiz-adv-x="503" 
d="M-18 -88q3 31 16.5 50.5t39.5 28.5t51.5 12t64.5 3q41 88 100 346.5t72 296.5q-124 -2 -237 -24q10 50 62.5 72t159.5 22q120 0 290 -22q-49 -47 -116 -47q-76 0 -108 -1l-6 -30q-2 -12 -36.5 -201.5t-50.5 -253.5q-30 -120 -72 -160q13 -1 94 -9t132 -9
q-59 -56 -135 -56q-139 0 -193.5 -3t-127.5 -15zM294 852q0 27 45 56.5t71 29.5q25 0 60.5 -38t35.5 -68q0 -26 -25 -39q-23 39 -72 83q-46 -15 -102 -52q-13 8 -13 28z" />
    <glyph glyph-name="Idieresis" unicode="&#xcf;" horiz-adv-x="503" 
d="M-18 -88q3 31 16.5 50.5t39.5 28.5t51.5 12t64.5 3q41 88 100 346.5t72 296.5q-124 -2 -237 -24q10 50 62.5 72t159.5 22q120 0 290 -22q-49 -47 -116 -47q-76 0 -108 -1l-6 -30q-2 -12 -36.5 -201.5t-50.5 -253.5q-30 -120 -72 -160q13 -1 94 -9t132 -9
q-59 -56 -135 -56q-139 0 -193.5 -3t-127.5 -15zM293 857q0 18 22 33t45 15q36 0 36 -32q0 -18 -19 -34t-41 -16q-18 0 -30.5 8.5t-12.5 25.5zM438 837q0 19 21.5 33.5t45.5 14.5q37 0 37 -33q0 -18 -19.5 -33.5t-42.5 -15.5q-17 0 -29.5 9t-12.5 25z" />
    <glyph glyph-name="Eth" unicode="&#xd0;" horiz-adv-x="688" 
d="M28 265q29 56 142 63q43 138 71 209q7 18 15.5 36t28.5 39.5t41 21.5q17 0 38 -14q-57 -128 -109 -290q60 0 183 -10q-60 -41 -127 -41h-72q-57 -178 -88 -323q23 -3 38 -3q104 0 199.5 73.5t152 187.5t56.5 232q0 116 -57.5 174.5t-156.5 58.5q-98 0 -162.5 -51.5
t-64.5 -128.5q0 -27 9 -48q-80 0 -80 64q0 73 99 139t231 66q139 0 205 -79t66 -206q0 -104 -43 -202t-112.5 -167.5t-159 -111t-179.5 -41.5q-84 0 -122 50q25 124 84 315q-39 -1 -126 -13z" />
    <glyph glyph-name="Ntilde" unicode="&#xd1;" horiz-adv-x="674" 
d="M56 -87l212 703q7 28 7 39q0 14 -13 14q-40 0 -74 -57t-34 -105q0 -24 10 -47q-80 0 -80 65t73 130t134 65q17 0 31.5 -6t26 -20.5t20.5 -28.5t17 -40.5t13 -45.5t11.5 -54.5t9.5 -56.5t9 -61q31 -215 46 -293q12 49 36 152l40 170q16 65 37 134t38 98q30 53 81 53
q-58 -151 -127 -424.5t-69 -383.5q-39 0 -62 18.5t-34 67.5q-4 16 -103 556q-117 -425 -159 -533.5t-97 -108.5zM363 802q19 22 45 39.5t45 17.5q29 0 91 -20t96 -20q27 0 68 7q-51 -54 -92 -54q-31 0 -96.5 19t-94.5 19q-16 0 -62 -8z" />
    <glyph glyph-name="Ograve" unicode="&#xd2;" horiz-adv-x="655" 
d="M32 164q0 126 62.5 255.5t165.5 214.5t210 85q41 0 68 -28q-16 2 -29 2q-84 0 -172 -84t-144.5 -210t-56.5 -241q0 -86 34.5 -141.5t106.5 -55.5q66 0 126.5 51t100.5 129.5t64 170t24 174.5q0 55 -10.5 99.5t-34.5 44.5q-32 0 -74.5 -73.5t-55.5 -137.5q-63 13 -63 58
q0 54 69 124t126 70q28 0 48 -21t29.5 -56.5t13.5 -70.5t4 -73q0 -122 -39 -226.5t-99 -170.5t-129.5 -103t-134.5 -37q-90 0 -150 68.5t-60 182.5zM437 907q1 19 10.5 29t21.5 10q28 0 69 -46t41 -67q0 -9 -7 -20t-18 -16q-49 58 -117 110z" />
    <glyph glyph-name="Oacute" unicode="&#xd3;" horiz-adv-x="655" 
d="M32 164q0 126 62.5 255.5t165.5 214.5t210 85q41 0 68 -28q-16 2 -29 2q-84 0 -172 -84t-144.5 -210t-56.5 -241q0 -86 34.5 -141.5t106.5 -55.5q66 0 126.5 51t100.5 129.5t64 170t24 174.5q0 55 -10.5 99.5t-34.5 44.5q-32 0 -74.5 -73.5t-55.5 -137.5q-63 13 -63 58
q0 54 69 124t126 70q28 0 48 -21t29.5 -56.5t13.5 -70.5t4 -73q0 -122 -39 -226.5t-99 -170.5t-129.5 -103t-134.5 -37q-90 0 -150 68.5t-60 182.5zM482 831q0 20 37.5 67.5t65.5 47.5q26 0 30 -35q-85 -82 -109 -113q-11 5 -17.5 15.5t-6.5 17.5z" />
    <glyph glyph-name="Ocircumflex" unicode="&#xd4;" horiz-adv-x="655" 
d="M32 164q0 126 62.5 255.5t165.5 214.5t210 85q41 0 68 -28q-16 2 -29 2q-84 0 -172 -84t-144.5 -210t-56.5 -241q0 -86 34.5 -141.5t106.5 -55.5q66 0 126.5 51t100.5 129.5t64 170t24 174.5q0 55 -10.5 99.5t-34.5 44.5q-32 0 -74.5 -73.5t-55.5 -137.5q-63 13 -63 58
q0 54 69 124t126 70q28 0 48 -21t29.5 -56.5t13.5 -70.5t4 -73q0 -122 -39 -226.5t-99 -170.5t-129.5 -103t-134.5 -37q-90 0 -150 68.5t-60 182.5zM422 852q0 27 45 56.5t71 29.5q25 0 60.5 -38t35.5 -68q0 -26 -25 -39q-23 39 -72 83q-46 -15 -102 -52q-13 8 -13 28z" />
    <glyph glyph-name="Otilde" unicode="&#xd5;" horiz-adv-x="655" 
d="M32 164q0 126 62.5 255.5t165.5 214.5t210 85q41 0 68 -28q-16 2 -29 2q-84 0 -172 -84t-144.5 -210t-56.5 -241q0 -86 34.5 -141.5t106.5 -55.5q66 0 126.5 51t100.5 129.5t64 170t24 174.5q0 55 -10.5 99.5t-34.5 44.5q-32 0 -74.5 -73.5t-55.5 -137.5q-63 13 -63 58
q0 54 69 124t126 70q28 0 48 -21t29.5 -56.5t13.5 -70.5t4 -73q0 -122 -39 -226.5t-99 -170.5t-129.5 -103t-134.5 -37q-90 0 -150 68.5t-60 182.5zM393 802q19 22 45 39.5t45 17.5q29 0 91 -20t96 -20q27 0 68 7q-51 -54 -92 -54q-31 0 -96.5 19t-94.5 19q-16 0 -62 -8z
" />
    <glyph glyph-name="Odieresis" unicode="&#xd6;" horiz-adv-x="655" 
d="M32 164q0 126 62.5 255.5t165.5 214.5t210 85q41 0 68 -28q-16 2 -29 2q-84 0 -172 -84t-144.5 -210t-56.5 -241q0 -86 34.5 -141.5t106.5 -55.5q66 0 126.5 51t100.5 129.5t64 170t24 174.5q0 55 -10.5 99.5t-34.5 44.5q-32 0 -74.5 -73.5t-55.5 -137.5q-63 13 -63 58
q0 54 69 124t126 70q28 0 48 -21t29.5 -56.5t13.5 -70.5t4 -73q0 -122 -39 -226.5t-99 -170.5t-129.5 -103t-134.5 -37q-90 0 -150 68.5t-60 182.5zM404 857q0 18 22 33t45 15q36 0 36 -32q0 -18 -19 -34t-41 -16q-18 0 -30.5 8.5t-12.5 25.5zM549 837q0 19 21.5 33.5
t45.5 14.5q37 0 37 -33q0 -18 -19.5 -33.5t-42.5 -15.5q-17 0 -29.5 9t-12.5 25z" />
    <glyph glyph-name="multiply" unicode="&#xd7;" horiz-adv-x="405" 
d="M58 46q0 41 82 130q-68 70 -68 109q0 11 9 29q38 -48 95 -104q68 64 133 112q-4 -32 -17 -58.5t-23 -38.5t-30.5 -30t-22.5 -20l49 -45q45 -43 60 -110q-74 54 -144 117l-3 3q-64 -60 -110 -121q-10 16 -10 27z" />
    <glyph glyph-name="Oslash" unicode="&#xd8;" horiz-adv-x="654" 
d="M30 166q0 124 63.5 253.5t164.5 214t202 84.5q44 0 63 -26h-14q-85 0 -173 -84t-144.5 -209.5t-56.5 -240.5q0 -79 26 -130q152 184 411 575q-11 26 -26 26q-32 0 -75 -74.5t-56 -136.5q-62 14 -62 58q0 54 69 124t123 70q32 0 55 -28q8 11 33 20t48 9q12 0 29 -3
q-7 -9 -76 -109q10 -44 10 -103q0 -101 -25.5 -190.5t-67.5 -152.5t-95 -109.5t-107.5 -69t-105.5 -22.5q-43 0 -86 18q-47 -31 -87 -31q-13 0 -38 5q38 25 72 62q-74 71 -74 200zM211 -25q28 -15 62 -15q68 0 129 51.5t101.5 131t64 173.5t23.5 181l-320 -451
q-35 -47 -60 -71z" />
    <glyph glyph-name="Ugrave" unicode="&#xd9;" horiz-adv-x="750" 
d="M33 536q0 65 60 124t142 59q116 0 116 -129q0 -75 -60 -268q-57 -181 -57 -247q0 -109 83 -109q51 0 96 45.5t70 101t39 114.5l27 107l27 106q19 71 32 110l30 83q17 45 32.5 65.5t29.5 20.5q22 0 64 -39q-19 -14 -63 -128t-83 -265t-39 -243q0 -61 20.5 -81.5
t73.5 -20.5q-11 -18 -36.5 -29.5t-48.5 -11.5q-37 0 -63.5 32.5t-26.5 79.5q0 8 2 52q-83 -153 -213 -153q-67 0 -104.5 40t-37.5 112t60 257t60 267q0 90 -54 90q-47 0 -74.5 -54t-27.5 -101q0 -31 13 -64q-89 0 -89 77zM422 907q1 19 10.5 29t21.5 10q28 0 69 -46t41 -67
q0 -9 -7 -20t-18 -16q-49 58 -117 110z" />
    <glyph glyph-name="Uacute" unicode="&#xda;" horiz-adv-x="750" 
d="M33 536q0 65 60 124t142 59q116 0 116 -129q0 -75 -60 -268q-57 -181 -57 -247q0 -109 83 -109q51 0 96 45.5t70 101t39 114.5l27 107l27 106q19 71 32 110l30 83q17 45 32.5 65.5t29.5 20.5q22 0 64 -39q-19 -14 -63 -128t-83 -265t-39 -243q0 -61 20.5 -81.5
t73.5 -20.5q-11 -18 -36.5 -29.5t-48.5 -11.5q-37 0 -63.5 32.5t-26.5 79.5q0 8 2 52q-83 -153 -213 -153q-67 0 -104.5 40t-37.5 112t60 257t60 267q0 90 -54 90q-47 0 -74.5 -54t-27.5 -101q0 -31 13 -64q-89 0 -89 77zM527 831q0 20 37.5 67.5t65.5 47.5q26 0 30 -35
q-85 -82 -109 -113q-11 5 -17.5 15.5t-6.5 17.5z" />
    <glyph glyph-name="Ucircumflex" unicode="&#xdb;" horiz-adv-x="750" 
d="M33 536q0 65 60 124t142 59q116 0 116 -129q0 -75 -60 -268q-57 -181 -57 -247q0 -109 83 -109q51 0 96 45.5t70 101t39 114.5l27 107l27 106q19 71 32 110l30 83q17 45 32.5 65.5t29.5 20.5q22 0 64 -39q-19 -14 -63 -128t-83 -265t-39 -243q0 -61 20.5 -81.5
t73.5 -20.5q-11 -18 -36.5 -29.5t-48.5 -11.5q-37 0 -63.5 32.5t-26.5 79.5q0 8 2 52q-83 -153 -213 -153q-67 0 -104.5 40t-37.5 112t60 257t60 267q0 90 -54 90q-47 0 -74.5 -54t-27.5 -101q0 -31 13 -64q-89 0 -89 77zM447 852q0 27 45 56.5t71 29.5q25 0 60.5 -38
t35.5 -68q0 -26 -25 -39q-23 39 -72 83q-46 -15 -102 -52q-13 8 -13 28z" />
    <glyph glyph-name="Udieresis" unicode="&#xdc;" horiz-adv-x="750" 
d="M33 536q0 65 60 124t142 59q116 0 116 -129q0 -75 -60 -268q-57 -181 -57 -247q0 -109 83 -109q51 0 96 45.5t70 101t39 114.5l27 107l27 106q19 71 32 110l30 83q17 45 32.5 65.5t29.5 20.5q22 0 64 -39q-19 -14 -63 -128t-83 -265t-39 -243q0 -61 20.5 -81.5
t73.5 -20.5q-11 -18 -36.5 -29.5t-48.5 -11.5q-37 0 -63.5 32.5t-26.5 79.5q0 8 2 52q-83 -153 -213 -153q-67 0 -104.5 40t-37.5 112t60 257t60 267q0 90 -54 90q-47 0 -74.5 -54t-27.5 -101q0 -31 13 -64q-89 0 -89 77zM428 857q0 18 22 33t45 15q36 0 36 -32
q0 -18 -19 -34t-41 -16q-18 0 -30.5 8.5t-12.5 25.5zM573 837q0 19 21.5 33.5t45.5 14.5q37 0 37 -33q0 -18 -19.5 -33.5t-42.5 -15.5q-17 0 -29.5 9t-12.5 25z" />
    <glyph glyph-name="Yacute" unicode="&#xdd;" horiz-adv-x="706" 
d="M32 536q0 65 59.5 124.5t142.5 59.5q57 0 87 -31t30 -79q0 -35 -28 -135q-36 -129 -36 -182q0 -94 71 -94q64 0 119 68.5t90 171.5l20 66l24 77q10 32 23.5 66.5t28.5 53t30 18.5q30 0 68 -38q-52 -80 -78 -158.5t-87 -330.5q-15 -62 -29 -107t-40 -100t-56.5 -90
t-78.5 -59t-106 -24q-64 0 -104 26t-40 73q0 32 20 56.5t56 32.5q-11 -49 -11 -68q0 -85 91 -85q56 0 96.5 33t62.5 89.5t35 109.5t23.5 117.5t18.5 89.5q-88 -142 -209 -142q-63 0 -93 35t-30 93q0 50 32 170t32 163q0 72 -54 72q-49 0 -76 -51.5t-27 -111.5q0 -24 12 -56
q-89 0 -89 77zM508 831q0 20 37.5 67.5t65.5 47.5q26 0 30 -35q-85 -82 -109 -113q-11 5 -17.5 15.5t-6.5 17.5z" />
    <glyph glyph-name="Thorn" unicode="&#xde;" horiz-adv-x="543" 
d="M49 -30q0 17 13 56q102 318 180 516q-34 -7 -67 -20.5t-52 -23.5t-24 -10q-9 0 -24.5 14t-15.5 25q117 46 200 54q4 9 12.5 31.5t15 37.5t16.5 32t22.5 25.5t27.5 8.5q16 0 32 -18q-29 -58 -51 -117q98 -13 168.5 -63.5t70.5 -136.5q0 -52 -29 -93.5t-71 -65.5t-96.5 -40
t-97 -22.5t-80.5 -7.5q-13 -44 -34.5 -125t-31.5 -114q-32 0 -58 16.5t-26 40.5zM208 186q118 15 200.5 70.5t82.5 145.5q0 70 -49.5 105.5t-121.5 38.5q-50 -136 -112 -360z" />
    <glyph glyph-name="germandbls" unicode="&#xdf;" horiz-adv-x="471" 
d="M-43 -115q15 19 28 77.5t25 132.5l25 162q14 87 36 169.5t50.5 150t73.5 108.5t101 41q51 0 85 -31.5t34 -86.5q0 -69 -50.5 -130.5t-119.5 -101.5q70 -21 109 -80t39 -135q0 -91 -51.5 -167t-125.5 -76q-53 0 -75 39t-22 96q0 53 17 89t50 36q13 0 39 -5
q-21 -11 -36 -54t-15 -93q0 -74 32 -74q33 0 69.5 69.5t36.5 142.5q0 112 -83 181q-24 19 -24 33t27 37q34 30 54 51t40 60.5t20 81.5q0 77 -58 77q-56 0 -93 -76.5t-56 -188.5l-39 -227q-19 -115 -54.5 -203.5t-88.5 -104.5z" />
    <glyph glyph-name="agrave" unicode="&#xe0;" horiz-adv-x="444" 
d="M-26 41q0 58 41 129t108.5 122t133.5 51q44 0 73.5 -22.5t29.5 -57.5q0 -46 -57 -48q36 -11 36 -30q0 -11 -28.5 -59.5t-28.5 -72.5q0 -36 30 -36q28 0 71.5 39t84.5 117l19 -19q-37 -83 -92 -133.5t-111 -50.5q-40 0 -61.5 26.5t-21.5 60.5q-45 -54 -77 -79t-68 -25
q-35 0 -58.5 23t-23.5 65zM54 36q0 -32 23 -32q13 0 27.5 7.5t31.5 22.5l31 30q15 15 34 39l30 38l29 39l24 33q3 5 8 5h2l2 -1q5 16 5 37q0 52 -42 52q-66 0 -135.5 -98t-69.5 -172zM179 519q1 19 10.5 29t21.5 10q28 0 69 -46t41 -67q0 -9 -7 -20t-18 -16q-49 58 -117 110
z" />
    <glyph glyph-name="aacute" unicode="&#xe1;" horiz-adv-x="444" 
d="M-26 41q0 58 41 129t108.5 122t133.5 51q44 0 73.5 -22.5t29.5 -57.5q0 -46 -57 -48q36 -11 36 -30q0 -11 -28.5 -59.5t-28.5 -72.5q0 -36 30 -36q28 0 71.5 39t84.5 117l19 -19q-37 -83 -92 -133.5t-111 -50.5q-40 0 -61.5 26.5t-21.5 60.5q-45 -54 -77 -79t-68 -25
q-35 0 -58.5 23t-23.5 65zM54 36q0 -32 23 -32q13 0 27.5 7.5t31.5 22.5l31 30q15 15 34 39l30 38l29 39l24 33q3 5 8 5h2l2 -1q5 16 5 37q0 52 -42 52q-66 0 -135.5 -98t-69.5 -172zM274 443q0 20 37.5 67.5t65.5 47.5q26 0 30 -35q-85 -82 -109 -113q-11 5 -17.5 15.5
t-6.5 17.5z" />
    <glyph glyph-name="acircumflex" unicode="&#xe2;" horiz-adv-x="444" 
d="M-26 41q0 58 41 129t108.5 122t133.5 51q44 0 73.5 -22.5t29.5 -57.5q0 -46 -57 -48q36 -11 36 -30q0 -11 -28.5 -59.5t-28.5 -72.5q0 -36 30 -36q28 0 71.5 39t84.5 117l19 -19q-37 -83 -92 -133.5t-111 -50.5q-40 0 -61.5 26.5t-21.5 60.5q-45 -54 -77 -79t-68 -25
q-35 0 -58.5 23t-23.5 65zM54 36q0 -32 23 -32q13 0 27.5 7.5t31.5 22.5l31 30q15 15 34 39l30 38l29 39l24 33q3 5 8 5h2l2 -1q5 16 5 37q0 52 -42 52q-66 0 -135.5 -98t-69.5 -172zM234 464q0 27 45 56.5t71 29.5q25 0 60.5 -38t35.5 -68q0 -26 -25 -39q-23 39 -72 83
q-46 -15 -102 -52q-13 8 -13 28z" />
    <glyph glyph-name="atilde" unicode="&#xe3;" horiz-adv-x="444" 
d="M-26 41q0 58 41 129t108.5 122t133.5 51q44 0 73.5 -22.5t29.5 -57.5q0 -46 -57 -48q36 -11 36 -30q0 -11 -28.5 -59.5t-28.5 -72.5q0 -36 30 -36q28 0 71.5 39t84.5 117l19 -19q-37 -83 -92 -133.5t-111 -50.5q-40 0 -61.5 26.5t-21.5 60.5q-45 -54 -77 -79t-68 -25
q-35 0 -58.5 23t-23.5 65zM54 36q0 -32 23 -32q13 0 27.5 7.5t31.5 22.5l31 30q15 15 34 39l30 38l29 39l24 33q3 5 8 5h2l2 -1q5 16 5 37q0 52 -42 52q-66 0 -135.5 -98t-69.5 -172zM148 414q19 22 45 39.5t45 17.5q29 0 91 -20t96 -20q27 0 68 7q-51 -54 -92 -54
q-31 0 -96.5 19t-94.5 19q-16 0 -62 -8z" />
    <glyph glyph-name="adieresis" unicode="&#xe4;" horiz-adv-x="444" 
d="M-26 41q0 58 41 129t108.5 122t133.5 51q44 0 73.5 -22.5t29.5 -57.5q0 -46 -57 -48q36 -11 36 -30q0 -11 -28.5 -59.5t-28.5 -72.5q0 -36 30 -36q28 0 71.5 39t84.5 117l19 -19q-37 -83 -92 -133.5t-111 -50.5q-40 0 -61.5 26.5t-21.5 60.5q-45 -54 -77 -79t-68 -25
q-35 0 -58.5 23t-23.5 65zM54 36q0 -32 23 -32q13 0 27.5 7.5t31.5 22.5l31 30q15 15 34 39l30 38l29 39l24 33q3 5 8 5h2l2 -1q5 16 5 37q0 52 -42 52q-66 0 -135.5 -98t-69.5 -172zM216 469q0 18 22 33t45 15q36 0 36 -32q0 -18 -19 -34t-41 -16q-18 0 -30.5 8.5
t-12.5 25.5zM361 449q0 19 21.5 33.5t45.5 14.5q37 0 37 -33q0 -18 -19.5 -33.5t-42.5 -15.5q-17 0 -29.5 9t-12.5 25z" />
    <glyph glyph-name="aring" unicode="&#xe5;" horiz-adv-x="444" 
d="M-26 41q0 58 41 129t108.5 122t133.5 51q44 0 73.5 -22.5t29.5 -57.5q0 -46 -57 -48q36 -11 36 -30q0 -11 -28.5 -59.5t-28.5 -72.5q0 -36 30 -36q28 0 71.5 39t84.5 117l19 -19q-37 -83 -92 -133.5t-111 -50.5q-40 0 -61.5 26.5t-21.5 60.5q-45 -54 -77 -79t-68 -25
q-35 0 -58.5 23t-23.5 65zM54 36q0 -32 23 -32q13 0 27.5 7.5t31.5 22.5l31 30q15 15 34 39l30 38l29 39l24 33q3 5 8 5h2l2 -1q5 16 5 37q0 52 -42 52q-66 0 -135.5 -98t-69.5 -172zM258 453q0 37 37 73t87 36q41 0 61.5 -16t20.5 -41q0 -38 -38.5 -73.5t-89.5 -35.5
q-39 0 -58.5 16t-19.5 41zM310 459q1 -11 9.5 -19.5t24.5 -8.5q25 0 47 22.5t22 44.5q0 26 -35 26q-25 0 -46.5 -21.5t-21.5 -43.5z" />
    <glyph glyph-name="ae" unicode="&#xe6;" horiz-adv-x="556" 
d="M-26 41q0 58 41.5 129t109.5 122.5t134 51.5q54 0 73 -37q70 53 132 53q71 0 71 -66q0 -72 -78 -128t-174 -66q-2 -10 -2 -28q4 -73 77 -73q61 0 123 49.5t101 123.5l19 -16q-41 -91 -113.5 -145.5t-150.5 -54.5q-56 0 -90.5 28t-41.5 72q-84 -103 -147 -103
q-36 0 -60 23t-24 65zM58 39q0 -31 22 -31q46 0 124 97q14 92 95 171q-8 27 -42 27q-44 0 -92 -47t-77.5 -109t-29.5 -108zM293 137q69 26 127 70t58 94q0 14 -16 14q-44 0 -95 -55.5t-74 -122.5z" />
    <glyph glyph-name="ccedilla" unicode="&#xe7;" horiz-adv-x="333" 
d="M-6 76q0 98 70 180t152 82q40 0 59.5 -20t19.5 -50t-14.5 -55.5t-35.5 -25.5q-19 0 -31 19q32 22 32 75q0 17 -19 17q-49 0 -102.5 -80t-53.5 -148q0 -75 71 -75q59 0 120.5 49.5t93.5 128.5l20 -18q-47 -119 -150 -178l-37 -59q33 12 54 12q24 0 39 -13t15 -37
q0 -42 -40.5 -81t-91.5 -39q-28 0 -47 13t-19 28q0 21 32 43q13 -45 40 -45q24 0 52.5 30t28.5 53q0 16 -16 16q-13 0 -42 -18.5t-37 -18.5t-14.5 8.5t-6.5 16.5q0 3 22 32.5t33 39.5l6 5q-44 -19 -84 -19q-54 0 -86.5 33.5t-32.5 98.5z" />
    <glyph glyph-name="egrave" unicode="&#xe8;" horiz-adv-x="341" 
d="M-17 77q0 91 84.5 187.5t174.5 96.5q73 0 73 -67q0 -72 -78 -128t-174 -66q-2 -10 -2 -23q0 -10 1.5 -19t8 -24.5t24 -25t43.5 -9.5q61 0 124.5 49.5t102.5 123.5l20 -16q-40 -90 -114.5 -145t-154.5 -55q-63 0 -98 34t-35 87zM74 137q58 7 122.5 58t64.5 104
q0 19 -17 19q-44 0 -96 -58t-74 -123zM178 519q1 19 10.5 29t21.5 10q28 0 69 -46t41 -67q0 -9 -7 -20t-18 -16q-49 58 -117 110z" />
    <glyph glyph-name="eacute" unicode="&#xe9;" horiz-adv-x="341" 
d="M-17 77q0 91 84.5 187.5t174.5 96.5q73 0 73 -67q0 -72 -78 -128t-174 -66q-2 -10 -2 -23q0 -10 1.5 -19t8 -24.5t24 -25t43.5 -9.5q61 0 124.5 49.5t102.5 123.5l20 -16q-40 -90 -114.5 -145t-154.5 -55q-63 0 -98 34t-35 87zM74 137q58 7 122.5 58t64.5 104
q0 19 -17 19q-44 0 -96 -58t-74 -123zM273 443q0 20 37.5 67.5t65.5 47.5q26 0 30 -35q-85 -82 -109 -113q-11 5 -17.5 15.5t-6.5 17.5z" />
    <glyph glyph-name="ecircumflex" unicode="&#xea;" horiz-adv-x="341" 
d="M-17 77q0 91 84.5 187.5t174.5 96.5q73 0 73 -67q0 -72 -78 -128t-174 -66q-2 -10 -2 -23q0 -10 1.5 -19t8 -24.5t24 -25t43.5 -9.5q61 0 124.5 49.5t102.5 123.5l20 -16q-40 -90 -114.5 -145t-154.5 -55q-63 0 -98 34t-35 87zM74 137q58 7 122.5 58t64.5 104
q0 19 -17 19q-44 0 -96 -58t-74 -123zM193 464q0 27 45 56.5t71 29.5q25 0 60.5 -38t35.5 -68q0 -26 -25 -39q-23 39 -72 83q-46 -15 -102 -52q-13 8 -13 28z" />
    <glyph glyph-name="edieresis" unicode="&#xeb;" horiz-adv-x="341" 
d="M-17 77q0 91 84.5 187.5t174.5 96.5q73 0 73 -67q0 -72 -78 -128t-174 -66q-2 -10 -2 -23q0 -10 1.5 -19t8 -24.5t24 -25t43.5 -9.5q61 0 124.5 49.5t102.5 123.5l20 -16q-40 -90 -114.5 -145t-154.5 -55q-63 0 -98 34t-35 87zM74 137q58 7 122.5 58t64.5 104
q0 19 -17 19q-44 0 -96 -58t-74 -123zM174 479q0 18 22 33t45 15q36 0 36 -32q0 -18 -19 -34t-41 -16q-18 0 -30.5 8.5t-12.5 25.5zM319 459q0 19 21.5 33.5t45.5 14.5q37 0 37 -33q0 -18 -19.5 -33.5t-42.5 -15.5q-17 0 -29.5 9t-12.5 25z" />
    <glyph glyph-name="igrave" unicode="&#xec;" horiz-adv-x="244" 
d="M-8 59q0 40 21 105.5t57 120.5t71 55q13 0 21.5 -7.5t8.5 -21.5q0 -13 -25.5 -54.5t-51.5 -94t-26 -90.5q0 -31 11 -42t34 -11q79 0 157 153l15 -16q-35 -88 -89 -137t-116 -49q-42 0 -65 25t-23 64zM50 509q1 19 10.5 29t21.5 10q28 0 69 -46t41 -67q0 -9 -7 -20
t-18 -16q-49 58 -117 110z" />
    <glyph glyph-name="iacute" unicode="&#xed;" horiz-adv-x="244" 
d="M-8 59q0 40 21 105.5t57 120.5t71 55q13 0 21.5 -7.5t8.5 -21.5q0 -13 -25.5 -54.5t-51.5 -94t-26 -90.5q0 -31 11 -42t34 -11q79 0 157 153l15 -16q-35 -88 -89 -137t-116 -49q-42 0 -65 25t-23 64zM184 433q0 20 37.5 67.5t65.5 47.5q26 0 30 -35q-85 -82 -109 -113
q-11 5 -17.5 15.5t-6.5 17.5z" />
    <glyph glyph-name="icircumflex" unicode="&#xee;" horiz-adv-x="244" 
d="M-8 59q0 40 21 105.5t57 120.5t71 55q13 0 21.5 -7.5t8.5 -21.5q0 -13 -25.5 -54.5t-51.5 -94t-26 -90.5q0 -31 11 -42t34 -11q79 0 157 153l15 -16q-35 -88 -89 -137t-116 -49q-42 0 -65 25t-23 64zM73 454q0 27 45 56.5t71 29.5q25 0 60.5 -38t35.5 -68q0 -26 -25 -39
q-23 39 -72 83q-46 -15 -102 -52q-13 7 -13 28z" />
    <glyph glyph-name="idieresis" unicode="&#xef;" horiz-adv-x="244" 
d="M-8 59q0 40 21 105.5t57 120.5t71 55q13 0 21.5 -7.5t8.5 -21.5q0 -13 -25.5 -54.5t-51.5 -94t-26 -90.5q0 -31 11 -42t34 -11q79 0 157 153l15 -16q-35 -88 -89 -137t-116 -49q-42 0 -65 25t-23 64zM75 450q0 18 22 33t45 15q36 0 36 -32q0 -18 -19 -34t-41 -16
q-18 0 -30.5 8.5t-12.5 25.5zM220 430q0 19 21.5 33.5t45.5 14.5q37 0 37 -33q0 -17 -19.5 -33t-42.5 -16q-17 0 -29.5 9t-12.5 25z" />
    <glyph glyph-name="eth" unicode="&#xf0;" horiz-adv-x="488" 
d="M-19 58q0 56 41 129t106.5 126.5t126.5 53.5q29 0 45 -12t16 -29q0 -10 -8 -26q-18 23 -49 23q-47 0 -94.5 -48t-74 -107t-26.5 -99q0 -42 31 -42q40 0 103 69.5t112.5 178.5t49.5 203q0 18 -4 43q-63 -10 -124 -26q0 36 29 51t83 22q-24 69 -95 124q21 27 51 27
q45 0 79 -41t52 -101q73 7 106 17q-22 -36 -40.5 -46.5t-55.5 -15.5q4 -30 4 -43q0 -66 -54 -219t-54 -205q0 -37 24 -37q33 0 79 42.5t76 107.5l19 -12q-36 -85 -93 -138.5t-114 -53.5q-73 0 -73 88q0 24 9 74q-49 -71 -105 -118.5t-100 -47.5q-31 0 -54.5 23t-23.5 65z
" />
    <glyph glyph-name="ntilde" unicode="&#xf1;" horiz-adv-x="473" 
d="M-38 14q0 1 18 45t34 99t16 93q22 24 52 24q35 0 35 -30q0 -27 -17 -89q102 136 189 136q40 0 62 -27.5t22 -65.5q0 -33 -19.5 -81.5t-19.5 -68.5q0 -29 24 -29q33 0 71.5 45.5t69.5 107.5l17 -14q-79 -179 -179 -179q-38 0 -59 19t-21 50q0 20 14 65t14 67q0 39 -35 39
q-28 0 -59.5 -22.5t-65 -66.5t-51.5 -71l-47 -75q-43 0 -65 29zM112 370q19 22 45 39.5t45 17.5q29 0 91 -20t96 -20q27 0 68 7q-51 -54 -92 -54q-31 0 -96.5 19t-94.5 19q-16 0 -62 -8z" />
    <glyph glyph-name="ograve" unicode="&#xf2;" horiz-adv-x="372" 
d="M-12 62q0 66 38 129t82 63q12 0 31 -8q6 46 32.5 76t74.5 30q40 0 59 -22.5t19 -58.5q0 -69 -66 -170q12 -6 28 -6q28 0 60 18.5t49 56.5l18 -13q-21 -48 -56.5 -73t-73.5 -25q-23 0 -50 9q-83 -100 -167 -100q-42 0 -60 27t-18 67zM68 65q0 -46 34 -46q36 0 96 71
q-57 50 -60 147q-19 -10 -44.5 -69.5t-25.5 -102.5zM195 220q0 -23 8 -52.5t21 -45.5q58 83 58 149q0 44 -28 44q-21 0 -40 -28t-19 -67zM227 515q1 19 10.5 29t21.5 10q28 0 69 -46t41 -67q0 -9 -7 -20t-18 -16q-49 58 -117 110z" />
    <glyph glyph-name="oacute" unicode="&#xf3;" horiz-adv-x="372" 
d="M-12 62q0 66 38 129t82 63q12 0 31 -8q6 46 32.5 76t74.5 30q40 0 59 -22.5t19 -58.5q0 -69 -66 -170q12 -6 28 -6q28 0 60 18.5t49 56.5l18 -13q-21 -48 -56.5 -73t-73.5 -25q-23 0 -50 9q-83 -100 -167 -100q-42 0 -60 27t-18 67zM68 65q0 -46 34 -46q36 0 96 71
q-57 50 -60 147q-19 -10 -44.5 -69.5t-25.5 -102.5zM195 220q0 -23 8 -52.5t21 -45.5q58 83 58 149q0 44 -28 44q-21 0 -40 -28t-19 -67zM331 443q0 20 37.5 67.5t65.5 47.5q26 0 30 -35q-85 -82 -109 -113q-11 5 -17.5 15.5t-6.5 17.5z" />
    <glyph glyph-name="ocircumflex" unicode="&#xf4;" horiz-adv-x="372" 
d="M-12 62q0 66 38 129t82 63q12 0 31 -8q6 46 32.5 76t74.5 30q40 0 59 -22.5t19 -58.5q0 -69 -66 -170q12 -6 28 -6q28 0 60 18.5t49 56.5l18 -13q-21 -48 -56.5 -73t-73.5 -25q-23 0 -50 9q-83 -100 -167 -100q-42 0 -60 27t-18 67zM68 65q0 -46 34 -46q36 0 96 71
q-57 50 -60 147q-19 -10 -44.5 -69.5t-25.5 -102.5zM195 220q0 -23 8 -52.5t21 -45.5q58 83 58 149q0 44 -28 44q-21 0 -40 -28t-19 -67zM197 464q0 27 45 56.5t71 29.5q25 0 60.5 -38t35.5 -68q0 -26 -25 -39q-23 39 -72 83q-46 -15 -102 -52q-13 8 -13 28z" />
    <glyph glyph-name="otilde" unicode="&#xf5;" horiz-adv-x="372" 
d="M-12 62q0 66 38 129t82 63q12 0 31 -8q6 46 32.5 76t74.5 30q40 0 59 -22.5t19 -58.5q0 -69 -66 -170q12 -6 28 -6q28 0 60 18.5t49 56.5l18 -13q-21 -48 -56.5 -73t-73.5 -25q-23 0 -50 9q-83 -100 -167 -100q-42 0 -60 27t-18 67zM68 65q0 -46 34 -46q36 0 96 71
q-57 50 -60 147q-19 -10 -44.5 -69.5t-25.5 -102.5zM141 414q19 22 45 39.5t45 17.5q29 0 91 -20t96 -20q27 0 68 7q-51 -54 -92 -54q-31 0 -96.5 19t-94.5 19q-16 0 -62 -8zM195 220q0 -23 8 -52.5t21 -45.5q58 83 58 149q0 44 -28 44q-21 0 -40 -28t-19 -67z" />
    <glyph glyph-name="odieresis" unicode="&#xf6;" horiz-adv-x="372" 
d="M-12 62q0 66 38 129t82 63q12 0 31 -8q6 46 32.5 76t74.5 30q40 0 59 -22.5t19 -58.5q0 -69 -66 -170q12 -6 28 -6q28 0 60 18.5t49 56.5l18 -13q-21 -48 -56.5 -73t-73.5 -25q-23 0 -50 9q-83 -100 -167 -100q-42 0 -60 27t-18 67zM68 65q0 -46 34 -46q36 0 96 71
q-57 50 -60 147q-19 -10 -44.5 -69.5t-25.5 -102.5zM189 469q0 18 22 33t45 15q36 0 36 -32q0 -18 -19 -34t-41 -16q-18 0 -30.5 8.5t-12.5 25.5zM195 220q0 -23 8 -52.5t21 -45.5q58 83 58 149q0 44 -28 44q-21 0 -40 -28t-19 -67zM334 449q0 19 21.5 33.5t45.5 14.5
q37 0 37 -33q0 -18 -19.5 -33.5t-42.5 -15.5q-17 0 -29.5 9t-12.5 25z" />
    <glyph glyph-name="divide" unicode="&#xf7;" horiz-adv-x="491" 
d="M26 116q11 40 63 51.5t146 11.5q70 0 193 -10q-34 -23 -76 -32t-124 -9q-108 0 -202 -12zM144 18q0 18 21 32.5t44 14.5q34 0 34 -31q0 -17 -18.5 -33t-39.5 -16q-17 0 -29 8.5t-12 24.5zM202 267q0 18 21 32.5t44 14.5q34 0 34 -31q0 -17 -18 -33t-40 -16q-17 0 -29 8.5
t-12 24.5z" />
    <glyph glyph-name="oslash" unicode="&#xf8;" horiz-adv-x="372" 
d="M-45 -48q22 13 51 43q-18 25 -18 67q0 66 38 129t82 63q12 0 31 -8q6 46 32.5 76t74.5 30q24 0 42 -10l24 32q10 15 44 15q12 0 24 -3q-11 -16 -61 -81q5 -17 5 -34q0 -69 -66 -170q17 -10 37 -10q29 0 55.5 20.5t44.5 58.5l18 -13q-21 -48 -56.5 -73t-73.5 -25
q-23 0 -50 9q-83 -100 -167 -100q-17 0 -26 4q-35 -23 -66 -23q-10 0 -19 3zM68 62q61 72 82 100q-10 30 -12 75q-19 -10 -44.5 -70t-25.5 -105zM93 20q3 -1 9 -1q36 0 96 71q-18 16 -26 29q-64 -81 -71 -90zM195 218l71 94q-4 3 -12 3q-21 0 -40 -28.5t-19 -68.5zM205 160
q6 -24 19 -38q51 72 57 136z" />
    <glyph glyph-name="ugrave" unicode="&#xf9;" horiz-adv-x="441" 
d="M-1 74q0 57 33 140.5t58 83.5q21 0 47 -26q-21 -31 -43.5 -89t-22.5 -100q0 -60 30 -60q26 0 64 49.5t64.5 100.5t48.5 100q60 -10 60 -34q0 -2 -16 -37.5t-31.5 -81.5t-15.5 -74q0 -35 27 -35q33 0 81.5 44.5t83.5 115.5l15 -12q-34 -81 -94 -135t-116 -54
q-19 0 -32.5 7.5t-20.5 17.5t-11 27t-4.5 29t-0.5 31q-22 -34 -38 -54.5t-41 -39t-48 -18.5q-33 0 -55 31t-22 73zM118 484q1 19 10.5 29t21.5 10q28 0 69 -46t41 -67q0 -9 -7 -20t-18 -16q-49 58 -117 110z" />
    <glyph glyph-name="uacute" unicode="&#xfa;" horiz-adv-x="441" 
d="M-1 74q0 57 33 140.5t58 83.5q21 0 47 -26q-21 -31 -43.5 -89t-22.5 -100q0 -60 30 -60q26 0 64 49.5t64.5 100.5t48.5 100q60 -10 60 -34q0 -2 -16 -37.5t-31.5 -81.5t-15.5 -74q0 -35 27 -35q33 0 81.5 44.5t83.5 115.5l15 -12q-34 -81 -94 -135t-116 -54
q-19 0 -32.5 7.5t-20.5 17.5t-11 27t-4.5 29t-0.5 31q-22 -34 -38 -54.5t-41 -39t-48 -18.5q-33 0 -55 31t-22 73zM216 377q0 20 37.5 67.5t65.5 47.5q26 0 30 -35q-85 -82 -109 -113q-11 5 -17.5 15.5t-6.5 17.5z" />
    <glyph glyph-name="ucircumflex" unicode="&#xfb;" horiz-adv-x="441" 
d="M-1 74q0 57 33 140.5t58 83.5q21 0 47 -26q-21 -31 -43.5 -89t-22.5 -100q0 -60 30 -60q26 0 64 49.5t64.5 100.5t48.5 100q60 -10 60 -34q0 -2 -16 -37.5t-31.5 -81.5t-15.5 -74q0 -35 27 -35q33 0 81.5 44.5t83.5 115.5l15 -12q-34 -81 -94 -135t-116 -54
q-19 0 -32.5 7.5t-20.5 17.5t-11 27t-4.5 29t-0.5 31q-22 -34 -38 -54.5t-41 -39t-48 -18.5q-33 0 -55 31t-22 73zM145 414q0 27 45 56.5t71 29.5q25 0 60.5 -38t35.5 -68q0 -26 -25 -39q-23 39 -72 83q-45 -15 -102 -52q-13 8 -13 28z" />
    <glyph glyph-name="udieresis" unicode="&#xfc;" horiz-adv-x="441" 
d="M-1 74q0 57 33 140.5t58 83.5q21 0 47 -26q-21 -31 -43.5 -89t-22.5 -100q0 -60 30 -60q26 0 64 49.5t64.5 100.5t48.5 100q60 -10 60 -34q0 -2 -16 -37.5t-31.5 -81.5t-15.5 -74q0 -35 27 -35q33 0 81.5 44.5t83.5 115.5l15 -12q-34 -81 -94 -135t-116 -54
q-19 0 -32.5 7.5t-20.5 17.5t-11 27t-4.5 29t-0.5 31q-22 -34 -38 -54.5t-41 -39t-48 -18.5q-33 0 -55 31t-22 73zM134 420q0 18 22 33t45 15q36 0 36 -32q0 -18 -19 -34t-41 -16q-18 0 -30.5 8.5t-12.5 25.5zM279 400q0 19 21.5 33.5t45.5 14.5q37 0 37 -33
q0 -17 -19.5 -33t-42.5 -16q-17 0 -29.5 9t-12.5 25z" />
    <glyph glyph-name="yacute" unicode="&#xfd;" horiz-adv-x="400" 
d="M-20 -215q0 24 14 47t30 39t49.5 35.5t51.5 27.5l54 27q17 43 48 156q-77 -109 -144 -109q-33 0 -59 20t-26 63q0 54 34 136t58 82q10 0 30 -10.5t24 -22.5q-19 -26 -41.5 -87t-22.5 -96q0 -37 29 -37q56 0 132 121q1 2 4.5 22.5t7.5 34.5t18 27.5t34 13.5q4 0 32 -4
q-1 -25 -23.5 -109t-52.5 -164q114 47 161 169l17 -14q-38 -125 -191 -193q-101 -240 -200 -240q-28 0 -48 16.5t-20 48.5zM19 -215q0 -28 19 -28q21 0 55 42.5t67 117.5q-141 -71 -141 -132zM237 398q0 20 37.5 67.5t65.5 47.5q26 0 30 -35q-85 -82 -109 -113
q-11 5 -17.5 15.5t-6.5 17.5z" />
    <glyph glyph-name="thorn" unicode="&#xfe;" horiz-adv-x="415" 
d="M-92 -234q58 192 92 346t58 388q1 10 2.5 14t7 6.5t17.5 2.5q29 0 41.5 -12.5t12.5 -45.5q0 -49 -32 -239q74 116 164 116q49 0 81.5 -33t32.5 -87q0 -86 -72 -169.5t-174 -83.5q-31 0 -50 8t-19 18q0 11 33 11q78 0 140 65.5t62 139.5q0 71 -55 71q-47 0 -94.5 -51.5
t-68.5 -101.5q-48 -203 -82 -306t-59 -103q-12 0 -25 19t-13 27z" />
    <glyph glyph-name="ydieresis" unicode="&#xff;" horiz-adv-x="400" 
d="M-20 -215q0 24 14 47t30 39t49.5 35.5t51.5 27.5l54 27q17 43 48 156q-77 -109 -144 -109q-33 0 -59 20t-26 63q0 54 34 136t58 82q10 0 30 -10.5t24 -22.5q-19 -26 -41.5 -87t-22.5 -96q0 -37 29 -37q56 0 132 121q1 2 4.5 22.5t7.5 34.5t18 27.5t34 13.5q4 0 32 -4
q-1 -25 -23.5 -109t-52.5 -164q114 47 161 169l17 -14q-38 -125 -191 -193q-101 -240 -200 -240q-28 0 -48 16.5t-20 48.5zM19 -215q0 -28 19 -28q21 0 55 42.5t67 117.5q-141 -71 -141 -132zM138 433q0 18 22 33t45 15q36 0 36 -32q0 -18 -19 -34t-41 -16q-18 0 -30.5 8.5
t-12.5 25.5zM283 413q0 19 21.5 33.5t45.5 14.5q37 0 37 -33q0 -18 -19.5 -33.5t-42.5 -15.5q-17 0 -29.5 9t-12.5 25z" />
    <glyph glyph-name="dotlessi" unicode="&#x131;" horiz-adv-x="244" 
d="M-8 59q0 40 21 105.5t57 120.5t71 55q13 0 21.5 -7.5t8.5 -21.5q0 -13 -25.5 -54.5t-51.5 -94t-26 -90.5q0 -31 11 -42t34 -11q79 0 157 153l15 -16q-35 -88 -89 -137t-116 -49q-42 0 -65 25t-23 64z" />
    <glyph glyph-name="OE" unicode="&#x152;" horiz-adv-x="848" 
d="M32 164q0 126 63 255.5t163.5 214.5t200.5 85q47 0 66 -26q-91 0 -183 -84.5t-149 -209.5t-57 -241q0 -85 34.5 -141t103.5 -56q77 0 144.5 86t104.5 208.5t37 238.5q0 43 -4.5 72.5t-10.5 41t-14 11.5q-36 0 -115 -200q-62 14 -62 56q0 55 67 124.5t122 72.5q51 3 123 3
q152 0 212 -19q-16 -47 -185 -47q-9 0 -33.5 1t-41.5 1q10 -35 10 -85q0 -88 -8 -154q143 -2 213 -11q-23 -62 -153 -62q-32 0 -72 2q-31 -140 -60 -214t-87 -116q48 -1 152 -1q14 0 60.5 2t63.5 2q18 0 30 -3q-11 -29 -108.5 -44t-211.5 -15q-28 0 -89 0.5t-91 0.5
q-107 0 -171 63.5t-64 187.5z" />
    <glyph glyph-name="oe" unicode="&#x153;" horiz-adv-x="553" 
d="M-28 41q0 58 41.5 129t109 122.5t131.5 51.5q49 0 69 -39q73 55 140 55q70 0 70 -66q0 -72 -78 -128t-174 -66q-2 -10 -2 -24q0 -77 74 -77q61 0 124.5 50t102.5 123l17 -15q-41 -90 -114 -145.5t-153 -55.5q-57 0 -88.5 27.5t-38.5 69.5q-82 -100 -147 -100
q-36 0 -60 23t-24 65zM53 35q0 -32 21 -32q26 0 74 42t56 66q-68 25 -70 111q-34 -43 -57.5 -96.5t-23.5 -90.5zM184 207q0 -32 31 -55q29 74 81 125q-12 29 -40 29t-50 -32t-22 -67zM291 137q68 25 126.5 70t58.5 92q0 16 -17 16q-43 0 -94.5 -56.5t-73.5 -121.5z" />
    <glyph glyph-name="Scaron" unicode="&#x160;" horiz-adv-x="567" 
d="M4 96q0 74 46 106.5t108 32.5q-65 -68 -65 -139q0 -54 41.5 -92t115.5 -38q73 0 129 36t56 99q0 45 -33.5 81t-80.5 61l-95 52q-47 26 -81 66.5t-34 91.5q0 57 34.5 117.5t104 105t152.5 44.5q125 0 125 -105q0 -51 -24.5 -113.5t-55.5 -110.5q-44 9 -44 51
q0 28 28.5 101.5t28.5 100.5q0 19 -11.5 28.5t-41.5 9.5q-88 0 -153.5 -70t-65.5 -136q0 -39 33 -70.5t80 -55t93.5 -50.5t79.5 -70.5t33 -100.5q0 -98 -83.5 -157t-190.5 -59q-95 0 -162 48t-67 135zM358 906q0 27 27 40q24 -46 77 -92q66 23 102 54q21 -7 21 -24
q0 -29 -48 -61.5t-75 -32.5t-65.5 41.5t-38.5 74.5z" />
    <glyph glyph-name="scaron" unicode="&#x161;" horiz-adv-x="351" 
d="M-20 86q0 35 12.5 53t32 26t21.5 10q64 66 97 137v10q0 73 45 73q22 0 24 -20q0 -3 -2.5 -14.5t-2.5 -21.5q0 -27 29 -108.5t29 -129.5q0 -17 -4 -41q68 17 118 113l12 -9q-41 -119 -139 -134q-16 -40 -52 -60.5t-83 -20.5q-70 0 -103.5 40.5t-33.5 96.5zM35 84
q0 -36 20 -63.5t55 -27.5q44 0 64 39q-39 8 -72 30.5t-53 48.5q-14 -3 -14 -27zM64 147q17 -29 48 -52.5t70 -32.5q3 9 3 31q0 21 -4 46.5t-7 40t-12 49t-11 43.5q-49 -85 -87 -125zM121 538q0 27 27 40q24 -46 77 -92q66 23 102 54q21 -7 21 -24q0 -29 -48 -61.5t-75 -32.5
t-65.5 41.5t-38.5 74.5z" />
    <glyph glyph-name="Ydieresis" unicode="&#x178;" horiz-adv-x="706" 
d="M32 536q0 65 59.5 124.5t142.5 59.5q57 0 87 -31t30 -79q0 -35 -28 -135q-36 -129 -36 -182q0 -94 71 -94q64 0 119 68.5t90 171.5l20 66l24 77q10 32 23.5 66.5t28.5 53t30 18.5q30 0 68 -38q-52 -80 -78 -158.5t-87 -330.5q-15 -62 -29 -107t-40 -100t-56.5 -90
t-78.5 -59t-106 -24q-64 0 -104 26t-40 73q0 32 20 56.5t56 32.5q-11 -49 -11 -68q0 -85 91 -85q56 0 96.5 33t62.5 89.5t35 109.5t23.5 117.5t18.5 89.5q-88 -142 -209 -142q-63 0 -93 35t-30 93q0 50 32 170t32 163q0 72 -54 72q-49 0 -76 -51.5t-27 -111.5q0 -24 12 -56
q-89 0 -89 77zM399 857q0 18 22 33t45 15q36 0 36 -32q0 -18 -19 -34t-41 -16q-18 0 -30.5 8.5t-12.5 25.5zM544 837q0 19 21.5 33.5t45.5 14.5q37 0 37 -33q0 -18 -19.5 -33.5t-42.5 -15.5q-17 0 -29.5 9t-12.5 25z" />
    <glyph glyph-name="Zcaron" unicode="&#x17d;" horiz-adv-x="680" 
d="M-8 33q0 25 20 41t65 16q48 0 141 -25q85 85 188 249q-63 -3 -165 -17q4 85 158 85q16 0 46 -2q77 131 112 220q-34 10 -80 27q-140 51 -202 51q-110 0 -110 -134q4 -34 9 -43q-74 13 -74 79q0 68 52.5 104t152.5 36q78 0 195 -31.5t167 -31.5q33 0 50 4q-35 -35 -63 -49
q-48 -112 -124 -239q100 -8 114 -8q-24 -32 -49 -39.5t-99 -9.5q-108 -170 -211 -269q169 -51 239 -51q45 0 90 22q-22 -58 -50.5 -81.5t-73.5 -23.5q-24 0 -50 5t-59 17t-50 19t-56.5 25t-45.5 21q-75 -54 -133 -54q-46 0 -75 27.5t-29 59.5zM25 27q0 -17 18.5 -32.5
t44.5 -15.5q25 0 83 44q-77 30 -106 30q-40 0 -40 -26zM445 906q0 27 27 40q24 -46 77 -92q66 23 102 54q21 -7 21 -24q0 -29 -48 -61.5t-75 -32.5t-65.5 41.5t-38.5 74.5z" />
    <glyph glyph-name="zcaron" unicode="&#x17e;" horiz-adv-x="331" 
d="M-68 -222q0 26 13 48.5t41 44.5t55 38l70 41q44 26 71 44q-3 65 -84 123q55 15 88 57t33 83q0 47 -41 47q-17 0 -34.5 -10.5t-31.5 -26t-30 -41t-28 -48.5l-27 -55l-19 16q38 104 79.5 159t105.5 55q43 0 71 -23.5t28 -66.5q0 -46 -32 -88t-81 -67q43 -34 65 -82
q81 62 111 140l13 -16q-30 -88 -114 -150q4 -18 4 -33q0 -90 -76.5 -168.5t-173.5 -78.5q-76 0 -76 58zM-33 -215q0 -27 27 -27q45 0 109.5 57t76.5 139q-22 -14 -59 -36l-60 -34q-22 -13 -46.5 -31t-36 -34.5t-11.5 -33.5zM128 518q0 27 27 40q24 -46 77 -92q66 23 102 54
q21 -7 21 -24q0 -29 -48 -61.5t-75 -32.5t-65.5 41.5t-38.5 74.5z" />
    <glyph glyph-name="florin" unicode="&#x192;" horiz-adv-x="537" 
d="M-87 -121q0 61 78 86q-11 -34 -11 -62q0 -37 20 -62t50 -25q22 0 41 14t34 41.5t27.5 58.5t25 76.5t21.5 83.5l22 91q12 53 23 88q-7 -1 -68 -10q7 64 83 73q22 86 43 148t51.5 120.5t72 89t91.5 30.5q23 0 35.5 -10.5t12.5 -40.5q0 -72 -64.5 -166t-155.5 -169
q16 0 56 -3.5t63 -3.5q34 0 61 8q-45 -64 -89 -64q-14 0 -54.5 1t-73.5 1q-24 -104 -41 -169.5t-36.5 -127.5t-37 -95.5t-40 -60t-48 -36t-59.5 -9.5q-59 0 -96 29t-37 75zM334 364q69 60 120 138t51 118q0 20 -17 20q-35 0 -76 -73t-78 -203z" />
    <glyph glyph-name="circumflex" unicode="&#x2c6;" horiz-adv-x="210" 
d="M-1 464q0 27 45 56.5t71 29.5q25 0 60.5 -38t35.5 -68q0 -26 -25 -39q-23 39 -72 83q-45 -15 -102 -52q-13 8 -13 28z" />
    <glyph glyph-name="caron" unicode="&#x2c7;" horiz-adv-x="210" 
d="M-13 518q0 27 27 40q24 -46 77 -92q66 23 102 54q21 -7 21 -24q0 -29 -48 -61.5t-75 -32.5t-65.5 41.5t-38.5 74.5z" />
    <glyph glyph-name="ring" unicode="&#x2da;" horiz-adv-x="445" 
d="M127 453q0 37 37 73t87 36q41 0 61.5 -16t20.5 -41q0 -38 -38.5 -73.5t-89.5 -35.5q-39 0 -58.5 16t-19.5 41zM179 459q1 -11 9.5 -19.5t24.5 -8.5q25 0 47 22.5t22 44.5q0 26 -35 26q-25 0 -46.5 -21.5t-21.5 -43.5z" />
    <glyph glyph-name="tilde" unicode="&#x2dc;" horiz-adv-x="284" 
d="M-18 414q19 22 45 39.5t45 17.5q29 0 91 -20t96 -20q27 0 68 7q-51 -54 -92 -54q-31 0 -96.5 19t-94.5 19q-16 0 -62 -8z" />
    <glyph glyph-name="endash" unicode="&#x2013;" horiz-adv-x="755" 
d="M50 105q8 57 61.5 75.5t195.5 18.5q103 0 202.5 -9t148.5 -10q-92 -60 -173 -60q-79 0 -144 4t-86 4q-39 0 -62.5 -0.5t-43 -3t-28.5 -4t-31.5 -7t-39.5 -8.5z" />
    <glyph glyph-name="emdash" unicode="&#x2014;" horiz-adv-x="917" 
d="M63 105q8 55 86.5 74.5t231.5 19.5q105 0 251 -9t189 -10q-95 -62 -170 -62q-79 0 -198.5 5t-140.5 5q-92 0 -137 -4.5t-112 -18.5z" />
    <glyph glyph-name="quoteleft" unicode="&#x2018;" horiz-adv-x="183" 
d="M147 689q0 13 12 24t26 11q5 -17 37.5 -55t32.5 -55q0 -22 -34 -41q-7 11 -28.5 38t-33.5 46t-12 32z" />
    <glyph glyph-name="quoteright" unicode="&#x2019;" horiz-adv-x="164" 
d="M143 612q0 17 32.5 55t37.5 55q14 0 26 -11t12 -24t-12 -32t-33.5 -46t-28.5 -38q-34 19 -34 41z" />
    <glyph glyph-name="quotesinglbase" unicode="&#x201a;" horiz-adv-x="216" 
d="M5 -44q0 32 20 67.5t43 35.5q13 0 22.5 -10t9.5 -23q-8 -9 -15 -18.5t-11 -15.5t-11.5 -19t-9 -16.5t-10.5 -22.5t-11 -22q-27 16 -27 44z" />
    <glyph glyph-name="quotedblleft" unicode="&#x201c;" horiz-adv-x="307" 
d="M147 689q0 13 12 24t26 11q5 -17 37.5 -55t32.5 -55q0 -22 -34 -41q-7 11 -28.5 38t-33.5 46t-12 32zM271 689q0 13 12 24t26 11q5 -17 37.5 -55t32.5 -55q0 -22 -34 -41q-7 11 -28.5 38t-33.5 46t-12 32z" />
    <glyph glyph-name="quotedblright" unicode="&#x201d;" horiz-adv-x="290" 
d="M144 614q0 17 32.5 55t37.5 55q14 0 26 -11t12 -24t-12 -32t-33.5 -46t-28.5 -38q-34 20 -34 41zM268 614q0 17 32.5 55t37.5 55q14 0 26 -11t12 -24t-12 -32t-33.5 -46t-28.5 -38q-34 20 -34 41z" />
    <glyph glyph-name="quotedblbase" unicode="&#x201e;" horiz-adv-x="326" 
d="M5 -44q0 32 20 67.5t43 35.5q13 0 22.5 -10t9.5 -23q-8 -9 -15 -18.5t-11 -15.5t-11.5 -19t-9 -16.5t-10.5 -22.5t-11 -22q-27 16 -27 44zM115 -44q0 32 20 67.5t43 35.5q13 0 22.5 -10t9.5 -23q-8 -9 -15 -18.5t-11 -15.5t-11.5 -19t-9 -16.5t-10.5 -22.5t-11 -22
q-27 16 -27 44z" />
    <glyph glyph-name="dagger" unicode="&#x2020;" horiz-adv-x="405" 
d="M78 295q1 31 20.5 50.5t38.5 25t34 5.5q6 0 18 -0.5t18 -0.5q80 211 127 211q9 0 17.5 -9t8.5 -21q0 -30 -68 -187q92 -9 120 -9q-15 -21 -30 -32t-23.5 -12.5t-21.5 -1.5q-46 0 -71 -1q-104 -233 -170 -340l-12 4q1 35 12.5 82.5t23 81t32.5 90.5l29 78q-54 -5 -103 -14
z" />
    <glyph glyph-name="daggerdbl" unicode="&#x2021;" horiz-adv-x="449" 
d="M53 228q3 82 147 84l15 37q-46 -1 -97 -8l-43 -6q4 84 166 84q74 185 118 185q9 0 17 -9t8 -21q0 -31 -57 -162q90 -16 133 -16q-32 -46 -74 -46q-22 0 -48.5 -0.5t-37.5 -0.5l-20 -41q20 -2 70.5 -9.5t87.5 -8.5q-33 -46 -75 -46q-30 0 -65.5 -0.5t-46.5 -0.5
q-86 -180 -142 -270q0 48 15.5 106t50.5 163q-54 -2 -122 -14z" />
    <glyph glyph-name="bullet" unicode="&#x2022;" horiz-adv-x="272" 
d="M61 158q0 24 21 48t47 24q25 0 41.5 -15.5t16.5 -37.5q0 -21 -25.5 -42.5t-52.5 -21.5q-20 0 -34 12.5t-14 32.5z" />
    <glyph glyph-name="ellipsis" unicode="&#x2026;" horiz-adv-x="549" 
d="M28 28q0 17 21.5 35t41.5 18q33 0 33 -31q0 -16 -14.5 -38t-37.5 -22q-22 0 -33 11.5t-11 26.5zM177 28q0 17 21.5 35t41.5 18q33 0 33 -31q0 -16 -14.5 -38t-37.5 -22q-22 0 -33 11.5t-11 26.5zM335 28q0 17 21.5 35t41.5 18q33 0 33 -31q0 -16 -14.5 -38t-37.5 -22
q-22 0 -33 11.5t-11 26.5z" />
    <glyph glyph-name="perthousand" unicode="&#x2030;" horiz-adv-x="1029" 
d="M89 -87q73 71 232.5 344t213.5 414q6 16 36 32.5t56 16.5q-12 -49 -135.5 -284t-190.5 -339q-59 -91 -108.5 -137.5t-103.5 -46.5zM110 453q0 75 43.5 146t109.5 71q43 0 70 -30t27 -79q0 -73 -45 -147.5t-111 -74.5q-45 0 -69.5 33t-24.5 81zM181 451q0 -60 29 -60
q33 0 58 58.5t25 116.5q0 54 -28 54q-37 0 -60.5 -57.5t-23.5 -111.5zM455 112q0 76 43 146.5t110 70.5q43 0 69.5 -30t26.5 -79q0 -45 -18 -95t-55 -88t-82 -38q-46 0 -70 32.5t-24 80.5zM525 108q0 -57 29 -57q33 0 58.5 58t25.5 116q0 55 -29 55q-38 0 -61 -58.5
t-23 -113.5zM743 112q0 76 43 146.5t110 70.5q43 0 69.5 -30t26.5 -79q0 -45 -18 -95t-55 -88t-82 -38q-46 0 -70 32.5t-24 80.5zM813 108q0 -57 29 -57q33 0 58.5 58t25.5 116q0 55 -29 55q-38 0 -61 -58.5t-23 -113.5z" />
    <glyph glyph-name="guilsinglleft" unicode="&#x2039;" horiz-adv-x="324" 
d="M25 158q51 20 106.5 68.5t89.5 94.5q14 -17 14 -34q0 -59 -159 -140q60 -43 163 -80q-24 -26 -44 -26q-37 0 -98.5 42.5t-71.5 74.5z" />
    <glyph glyph-name="guilsinglright" unicode="&#x203a;" horiz-adv-x="338" 
d="M67 67q103 37 163 80q-159 81 -159 138q0 18 14 36q34 -46 89.5 -94.5t106.5 -68.5q-10 -32 -71.5 -74.5t-98.5 -42.5q-20 0 -44 26z" />
    <glyph glyph-name="uni2074" unicode="&#x2074;" horiz-adv-x="318" 
d="M90 458q0 28 12 38q168 141 218 224q20 -2 21 -21q0 -4 -5.5 -23t-16.5 -64t-21 -101h10q3 0 53 8q-39 -52 -71 -52q-17 -123 -17 -157q-63 3 -63 35q0 20 21 123q-11 1 -33 1q-64 0 -108 -11zM172 514q6 0 29.5 -0.5t40.5 -0.5q11 60 18 82l-28 -25q-17 -17 -34 -31.5
t-26 -24.5z" />
    <glyph glyph-name="Euro" unicode="&#x20ac;" horiz-adv-x="729" 
d="M30 153q1 72 114 79l5 33q-47 -2 -101 -13q0 69 118 79q51 157 166.5 272.5t232.5 115.5q104 0 104 -92q0 -63 -40 -139.5t-83 -76.5q-25 0 -41 31q38 42 73.5 99.5t35.5 95.5t-45 38q-79 0 -165.5 -104t-132.5 -241l74 -7q65 -7 106 -8q-24 -32 -54.5 -39t-144.5 -9
l-7 -34q27 -2 86.5 -8.5t100.5 -7.5q-24 -32 -54 -38.5t-141 -8.5q0 -44 4.5 -76.5t16.5 -65t39 -50t68 -17.5q81 0 167 64t127 150l27 -17q-56 -105 -148.5 -175t-196.5 -70q-54 0 -94 20.5t-63 56t-34.5 79t-12.5 95.5q-89 -8 -107 -11z" />
    <glyph glyph-name="trademark" unicode="&#x2122;" horiz-adv-x="581" 
d="M148 668q1 30 52 39t150 9h79q27 0 40 -22.5t13 -83.5q0 -33 -4 -81q13 22 36.5 74.5t42 80t38.5 27.5q10 0 28 -11q-50 -127 -50 -243q0 -41 9 -65q-36 0 -48 11.5t-12 43.5q0 45 18 131q-14 -29 -33.5 -75t-30 -62.5t-23.5 -16.5q-24 0 -24 59q0 11 2 58t2 69
q-61 -141 -84.5 -179.5t-55.5 -38.5l62 133q46 98 69 152q-17 1 -56 1q-44 0 -71 -3q-4 -12 -26 -71t-35 -104.5t-13 -79.5q0 -17 4 -28q-60 0 -60 34q0 22 28 102t59 146q-20 0 -106 -6z" />
    <glyph glyph-name="uniE000" unicode="&#xe000;" horiz-adv-x="330" 
d="M0 330h330v-330h-330v330z" />
    <glyph glyph-name="NULL" horiz-adv-x="0" 
 />
    <glyph glyph-name="F.salt" horiz-adv-x="493" 
d="M46 296q1 38 40.5 60.5t98.5 24.5q66 171 112 265q-88 -4 -174 -19q15 93 219 93q105 0 290 -24q-49 -47 -116 -47q-6 0 -78.5 -0.5t-76.5 -0.5q-41 -101 -91 -269q20 -2 56.5 -6t66.5 -6t61 -2q-24 -32 -56 -39.5t-147 -9.5q-90 -313 -90 -403q-100 7 -100 86q0 20 5 45
t17 62l21 61q8 23 27 73l27 71q-35 -3 -112 -15z" />
    <glyph glyph-name="M.salt" horiz-adv-x="995" 
d="M-90 -27q0 26 18 48q38 -54 98 -54q90 0 178 126q69 99 133 240.5t64 226.5q0 54 -26.5 90.5t-62.5 36.5q-38 0 -58.5 -40.5t-20.5 -88.5q0 -45 24 -83q-92 29 -92 106q0 52 40.5 95t107.5 43q95 0 143 -96.5t48 -279.5q0 -85 -7 -165q48 91 119 199.5t151.5 200.5
t122.5 92q15 0 26 -11t14 -27q-78 -68 -154.5 -247.5t-76.5 -317.5q0 -95 54 -95q48 0 108 55.5t99 147.5l17 -14q-42 -101 -108 -165.5t-128 -64.5q-51 0 -88.5 43.5t-37.5 120.5q0 67 27 166t64 182q-71 -100 -114 -173.5t-62 -116t-53 -132.5q-2 -7 -13 -21.5t-15 -14.5
q-3 0 -11 4t-17 18t-9 34q0 3 9.5 93.5t9.5 173.5q0 100 -7 170q-14 -51 -41 -119.5t-69.5 -151t-89 -150.5t-105.5 -114t-114 -46q-41 0 -68 22.5t-27 53.5z" />
    <glyph glyph-name="U.salt" horiz-adv-x="779" 
d="M33 537q0 65 60.5 124t142.5 59q58 0 87 -34t29 -94q0 -71 -59 -260t-59 -257q0 -48 20 -78t63 -30q51 0 95.5 45.5t70 101t39.5 114.5l40 163q16 61 42.5 150t50 134t44.5 45q22 0 65 -40q-33 -23 -108.5 -260t-75.5 -369q0 -77 28 -77q25 0 67 55.5t80 140.5l23 -17
q-41 -95 -96.5 -167.5t-111.5 -72.5q-37 0 -54 31t-18 69q0 18 4 64q-91 -164 -215 -164q-66 0 -104 40t-38 102q0 59 60 260.5t60 276.5q0 86 -55 86q-46 0 -73 -51t-27 -105q0 -34 14 -62q-46 0 -68.5 21t-22.5 56z" />
    <glyph glyph-name="r.init" horiz-adv-x="369" 
d="M-46 0q24 28 67 123.5t70 187.5q-10 10 -10 27q0 26 17 48.5t35 22.5t18 -25q0 -10 -5.5 -24t-5.5 -17q0 -9 27 -25.5t54 -44.5t27 -66q0 -31 -24 -87t-24 -73q0 -23 25 -23q44 0 96 49.5t73 98.5l18 -17q-32 -72 -91 -126.5t-122 -54.5q-37 0 -60 19.5t-23 52.5
q0 28 26.5 92t26.5 86q0 38 -50 64q-32 -95 -76 -186t-71 -121z" />
    <glyph glyph-name="s.salt" horiz-adv-x="311" 
d="M-23 77q0 37 13 57t33.5 29.5t22.5 11.5q65 68 97 138q7 82 45 82q22 0 24 -20q0 -3 -2.5 -14t-2.5 -21q0 -27 29 -109t29 -126q0 -67 -45 -111.5t-117 -44.5q-67 0 -96.5 37.5t-29.5 90.5zM29 64q0 -32 17.5 -55.5t49.5 -23.5q36 0 62.5 28.5t26.5 81.5q0 41 -32 172
q-44 -69 -72 -100q12 -5 22.5 -15.5t10.5 -22.5q0 -16 -20 -39q-18 22 -34 22q-13 0 -22 -12t-9 -36z" />
    <glyph glyph-name="v_a" horiz-adv-x="786" 
d="M9 75q0 36 4 126q1 15 1.5 21t2.5 14t5.5 10.5t10 4.5t17.5 2q22 0 29 -8t7 -30q0 -20 -3.5 -67.5t-3.5 -77.5q0 -33 3.5 -45t15.5 -12q57 0 177 243q29 61 65 61q13 0 26 -7q-18 -34 -23 -43l-28 -50q-22 -41 -35 -60l-37 -55q-24 -37 -42 -56.5t-41 -42t-44 -32.5
t-41 -10q-66 0 -66 114zM316 41q0 58 41 129t108.5 122t133.5 51q44 0 73.5 -22.5t29.5 -57.5q0 -46 -57 -48q36 -11 36 -30q0 -11 -28.5 -59.5t-28.5 -72.5q0 -36 30 -36q28 0 71.5 39t84.5 117l19 -19q-37 -83 -92 -133.5t-111 -50.5q-40 0 -61.5 26.5t-21.5 60.5
q-45 -54 -77 -79t-68 -25q-35 0 -58.5 23t-23.5 65zM396 36q0 -32 23 -32q13 0 27.5 7.5t31.5 23t31.5 30t33.5 38.5l30 38l29 39l24 33q3 5 8 5h2l2 -1q5 16 5 37q0 52 -42 52q-66 0 -135.5 -98t-69.5 -172z" />
    </font>
</defs>
</svg>
