<?xml version="1.0" standalone="no"?>
<!DOCTYPE svg PUBLIC "-//W3C//DTD SVG 1.1//EN" "http://www.w3.org/Graphics/SVG/1.1/DTD/svg11.dtd" >
<svg xmlns="http://www.w3.org/2000/svg" xmlns:xlink="http://www.w3.org/1999/xlink" version="1.1">
<metadata></metadata>
<defs>
<font id="biergrten_rotalicrotaliclaser" horiz-adv-x="1140" >
<font-face units-per-em="2048" ascent="1638" descent="-410" />
<missing-glyph horiz-adv-x="491" />
<glyph horiz-adv-x="0" />
<glyph unicode="&#xd;" horiz-adv-x="1024" />
<glyph unicode=" "  horiz-adv-x="491" />
<glyph unicode="&#x09;" horiz-adv-x="491" />
<glyph unicode="&#xa0;" horiz-adv-x="491" />
<glyph unicode="!" horiz-adv-x="724" d="M295 573q0 -4 2 -9l2 -5l213 -166q-55 -47 -105.5 -103.5t-60.5 -121.5q-6 -37 8.5 -67.5t42 -50t64.5 -27t74 3.5q35 8 66.5 28.5t56 48t42 59.5t23.5 64q2 20 -2 51t-13.5 61t-23.5 54.5t-35 34.5l264 281q10 10 -3 27.5t-25 27.5q-8 4 -39 8t-43 2l10 96h-383 q0 -20 -1 -35.5t-1 -25.5q-6 -49 -26.5 -80t-43 -55.5t-41 -47t-22.5 -53.5zM332 1184q-10 -78 100 -37v-168v-6h393l43 373q2 25 -18.5 56.5t-51 59t-65.5 45t-59 11.5q-29 -6 -85.5 -48.5t-112.5 -96.5t-99 -107.5t-45 -81.5z" />
<glyph unicode="&#x22;" horiz-adv-x="1081" d="M442 1180l105 -160l35 -47h276q23 25 38 45t19 31q0 2 2.5 14t4.5 27.5t5 34t5 32.5q16 117 -12.5 191.5t-120.5 121.5l-267 -112zM659 870l3 -2l30 -24h4q2 0 15 4q2 0 7 2t7 2q12 2 31 18h-97zM985 1313l102 -158l117 -154l31 -20l5 -1t11 1q4 0 8.5 3t8.5 5 q16 6 44.5 32t58.5 57.5t54.5 61t32.5 44.5l1 12q1 12 4 28.5t6.5 35t5.5 32.5q12 113 -14.5 190t-119.5 124l-268 -115z" />
<glyph unicode="#" horiz-adv-x="1613" d="M203 326q-4 -2 16.5 -4.5t59.5 -2.5q41 0 96 5.5t121 17.5l-31 -190q-4 -27 15.5 -64t48 -69.5t62.5 -53t58 -14.5q18 4 50 26.5t68 56.5t74 73.5t68.5 78.5t52 73t25.5 54q10 90 -98 47q-6 31 -4 68q53 10 104 20.5t101 16.5l-19 -160q-2 -29 17.5 -65.5t48 -69.5 t61.5 -53.5t57 -14.5q29 6 83.5 52.5t109.5 104.5t98 116.5t49 91.5q10 90 -100 47q0 10 -3 24.5t1 43.5q86 33 143.5 56.5t98.5 51.5q6 2 -3 3l-8 1l-229 -30q-4 27 -2 53t4 55q66 20 120 45t95 53h-608l-133 -16l-45 -14q6 14 18 30h-489q2 -12 4 -31.5t2 -21.5 q6 -6 36.5 -13t43.5 -3l-13 -103l-309 -110l109 -23l188 31l-8 -145zM526 973h496q4 8 8 31q2 6 0 13l-2 7q-33 55 -96.5 106.5t-151.5 96.5q-94 -96 -155.5 -156.5t-98.5 -97.5zM887 567q2 14 2 27v22t1 21.5t3 21.5l225 39l-12 -88l-166 -22zM1061 1016q0 -10 2 -19 q2 -10 2 -16q0 -4 2 -8h457q12 31 30.5 53.5t36 43t30.5 41.5t17 46q0 4 -2 11l-2 6q-31 59 -94 110t-151 94q-98 -102 -162 -164.5t-100.5 -99.5t-51 -55.5t-14.5 -30.5v-12z" />
<glyph unicode="$" horiz-adv-x="942" d="M201 328q2 -10 17 -32t33.5 -45.5t36 -44t23.5 -28.5q0 -4 10.5 -17.5t25.5 -27.5t33.5 -23.5t37.5 -5.5q6 2 8 3.5t8 3.5q16 10 37 19t53 26q18 -51 41 -93.5t47 -37.5q16 4 43 31.5t55.5 67.5t55.5 85t45 86q33 16 54.5 25.5t35.5 17.5q20 12 51 29.5t59.5 39t50 45 t23.5 46.5l21 155l-268 103q14 4 40.5 15t57.5 26.5t64.5 34t62.5 38.5h-752q-18 -18 -30.5 -36.5t-14.5 -34.5l-14 -127l332 -111l-39 -20q-10 4 -17.5 3t-19.5 -3q-23 -6 -72 -29t-100 -52.5t-91 -62t-42 -57.5q-2 -4 -2 -10v-2zM473 973h668q-8 6 -24.5 27.5t-33 46 t-32 46t-21.5 29.5q-4 0 -11 13.5t-19.5 29t-30 25.5t-37.5 4q-6 -2 -10 -5t-9 -5q-6 -4 -20 -11.5t-37 -17.5q-41 86 -102 148q-98 -141 -146.5 -207t-62.5 -90q-23 -10 -40.5 -18.5t-31.5 -14.5z" />
<glyph unicode="%" horiz-adv-x="1224" d="M240 688q-2 -16 27.5 -32.5t70.5 -30t82 -20.5t63 -3l15 6q2 0 16 12.5t29.5 28t30 27.5t18.5 14q35 23 53.5 35t38.5 29l-297 -578q-18 -29 -19 -74t9 -86t28.5 -67.5t40.5 -20.5q20 6 68.5 36t108 78t121 113.5t108.5 145.5q10 -16 35.5 -44t57.5 -54.5t62.5 -44 t51.5 -13.5q8 2 12 5l4 2q2 0 15.5 11t30 26.5t30.5 27.5t18 16q74 49 114 75t60.5 52.5t28.5 67.5t19 121l2 22q2 8 2 17v18v19q0 8 2 16l2 23q-4 25 -13.5 51t-26 48.5t-39 36t-50.5 11.5q-4 -4 -20.5 -15.5t-35 -22.5t-35 -20.5t-18.5 -9.5q-23 -16 -77 -37.5t-107 -48.5 q35 66 57.5 119t36.5 80q2 4 3 7t3 7h-516l-8 -73q-12 -4 -21.5 -1t-9.5 13l6 61h-239l-15 -135q-31 -8 -32 -35zM299 973h242l12 112q12 -2 20.5 -14t10.5 -22l-11 -76h580q47 51 91 88t71 90q0 4 1 7t1 7l2 9q2 131 -115 245q-80 -66 -141.5 -116t-107.5 -88.5 t-77.5 -65.5t-56.5 -47v20q-6 23 -15 48.5t-24.5 48t-37 37t-52.5 14.5q-4 -4 -20.5 -15.5t-35 -23.5t-34.5 -22.5t-18 -10.5q-18 -10 -62.5 -29.5t-90.5 -39t-82 -36t-38 -20.5zM1100 350l33 279q10 -2 18 -14.5t8 -22.5l-29 -252q-12 -4 -21 -2t-9 12z" />
<glyph unicode="&#x26;" horiz-adv-x="974" d="M203 252q-6 -53 31.5 -102t103.5 -84l-21 -125q-6 -29 4.5 -71t28 -81t39 -64.5t39.5 -21.5q20 4 58 48t77 102.5t69 118t34 94.5q41 33 96 77.5t110.5 88.5t102.5 81t69 54q35 29 50.5 43t23.5 32q6 14 6 35q4 23 -6 39t-43 8q-47 -12 -90 -38.5t-96 -39.5 q-20 -6 -50 -9t-60.5 -1t-58.5 9.5t-42 21.5q2 8 6 12q59 25 133 62t138.5 71.5t106.5 61t38 31.5l-303 75l-111 -71l19 161h-431zM315 973h734q37 27 64.5 56.5t31.5 57.5v17q-6 6 -15.5 28.5t-18.5 51t-17.5 54.5t-10.5 38q-6 0 -15 17.5t-22.5 36t-31 32.5t-37.5 8 q-4 0 -8 -2l-8 -4q-25 -12 -77.5 -42t-115.5 -65q16 29 27.5 51.5t15.5 57.5q2 6 0 13l-2 7q-23 63 -60.5 127t-91.5 119q-72 -100 -116.5 -162.5t-69.5 -99.5t-35 -54.5t-12 -29.5q0 -8 2 -35.5t2 -29.5q4 -10 23.5 -20.5t25.5 -8.5l-12 -96q-35 -23 -77 -54.5t-73 -68.5z M772 870q27 -12 68 -2q4 0 8 2h-76z" />
<glyph unicode="'" horiz-adv-x="573" d="M459 1245l106 -158l84 -114h162q39 39 76 82t43 59q0 2 2 14.5t5 27.5t6 33.5t5 33.5q14 117 -14.5 191.5t-120.5 121.5l-264 -113z" />
<glyph unicode="(" horiz-adv-x="561" d="M193 258q-6 -68 37.5 -130t110.5 -107.5t142.5 -67t132.5 -6.5q8 2 24.5 5t35 10t33 18.5t18.5 29.5q-94 -8 -136 59.5t-51.5 187.5t6 278.5t40.5 334.5h-322zM276 973h324q0 2 1 3t1 3q6 47 21 78q14 39 36 73l76 162l-55 13l-158 69h-6q-10 0 -12 -2q-2 0 -10 -3l-7 -3 l-120 -141q-29 -23 -46.5 -56.5t-27.5 -56.5z" />
<glyph unicode=")" horiz-adv-x="563" d="M47 -131q0 -16 13.5 -21.5t31 -4.5t34.5 6.5t24 7.5q37 10 89 41.5t108 76.5t111.5 99.5t100.5 112t76 112.5t37 100l55 471h-328q-18 -178 -37.5 -340.5t-55.5 -296t-96.5 -228.5t-162.5 -136zM346 1221l41 -131q12 -27 20.5 -54.5t4.5 -62.5h327l33 278q-6 20 -17.5 47 t-33.5 37l-96 88h-15l-20 -8l-182 -151z" />
<glyph unicode="*" horiz-adv-x="622" d="M526 1112q-4 -4 18.5 11.5t61.5 43t89 64.5t100 76q20 -25 32 -25q72 -4 116 -12t91 12l2 4v6l-73 150q65 55 71 71q33 76 56.5 120t21.5 85q0 4 -4 0h-6l-209 -135l-324 59q-6 -2 3.5 -21t27.5 -50t44 -69t52 -77z" />
<glyph unicode="+" horiz-adv-x="806" d="M211 535q-4 -4 21.5 -6.5t68.5 -2.5t98.5 1t112.5 3l86 -256q4 -6 12 16.5t25 61.5q16 41 32.5 92.5t39.5 104.5q37 6 51 12q78 53 125 79t75 67q8 4 3 7l-5 3l-192 12q6 29 8 49.5t2 30.5q-18 33 -31 61h-106l-57 -131z" />
<glyph unicode="," horiz-adv-x="520" d="M-29 -303q74 18 156 59t153.5 101.5t122 138.5t60.5 170q2 18 3 33.5t1 27.5q0 41 -14.5 67.5t-51.5 63.5h-104q-98 -29 -166 -87t-96 -146q0 -37 14 -63.5t37 -47t48.5 -33t47.5 -20.5q-115 -86 -161 -148.5t-50 -115.5z" />
<glyph unicode="-" horiz-adv-x="733" d="M258 633q-6 -6 24.5 -15.5t81 -18.5t111 -18.5t115.5 -14.5t95 -4t50 11q35 33 64.5 58.5t53.5 49.5t41 47.5t30 51.5q6 4 3 8l-3 5l-219 77h-152z" />
<glyph unicode="." horiz-adv-x="464" d="M63 147q-6 -35 8.5 -63.5t42 -49t63.5 -27.5t71 3q35 8 66.5 27.5t57 46.5t42 58.5t22.5 64.5q10 104 -40 138t-175 20q-25 -25 -51.5 -49.5t-49 -52t-38.5 -56.5t-19 -60z" />
<glyph unicode="/" horiz-adv-x="868" d="M159 97q-1 -44 8 -85t26.5 -68.5t39.5 -21.5q18 4 58.5 29.5t89.5 63.5t103.5 83t101.5 90t83 84t48 64q27 53 12.5 70.5t-76.5 -11.5q10 25 38 89.5t59.5 136t62.5 137t45 92.5q4 4 5 10t5 10h-333l-361 -700q-14 -29 -15 -73zM508 973h438q45 49 88 84t68 88q2 2 2 14 l2 8q0 68 -29.5 129.5t-83.5 116.5q-141 -117 -229 -188.5t-138.5 -113.5t-70.5 -61.5t-29 -31.5q-6 -6 -8 -17q-8 -14 -10 -28z" />
<glyph unicode="0" d="M180 186q-2 -23 24.5 -45t70.5 -44.5t99.5 -41t111 -31t103.5 -15.5t77 5q8 2 19 6l11 3q6 4 33 27.5t57.5 52t58 53t36.5 30.5q98 68 165.5 110t112.5 76t70.5 66.5t42 80.5t27 119t22.5 181l4 45v6h-467l-51 -467q-23 -4 -45.5 -0.5t-20.5 21.5l52 446h-482l-67 -598 q-33 -8 -45.5 -25.5t-16.5 -39.5zM356 973h449l2 8q4 -2 6 -4t6 -4h516q0 8 4 28l7 48q-10 49 -30 101t-52.5 96t-77.5 73t-105 29q-10 -8 -40.5 -30t-66.5 -45.5t-66.5 -44t-39.5 -24.5q-31 -18 -99.5 -49t-146 -64.5t-152.5 -65.5t-114 -52z" />
<glyph unicode="1" horiz-adv-x="724" d="M307 973h522q23 25 41.5 48t22.5 56q0 6 -2 13l-2 6q-31 57 -96.5 108t-159.5 94q-80 -78 -137.5 -133t-95.5 -93t-60.5 -61.5t-32.5 -37.5zM309 221q-4 -27 16.5 -63.5t52.5 -68.5t65.5 -52.5t58.5 -13.5q18 4 51 26.5t69.5 56t75.5 73.5t72 79t54.5 73t25.5 56 q10 92 -102 47q-2 20 -3 76q0 55 2.5 117.5t5.5 118t5 77.5q2 20 10 47h-383zM352 870q23 -4 33 0h-33z" />
<glyph unicode="2" horiz-adv-x="931" d="M197 162q-4 -25 11 -45.5t39.5 -35.5t50.5 -24.5t44 -11.5q25 -4 85 -1t128 7t128 7t85 -1q2 2 8 2q8 0 10 2q18 4 39 28t39.5 51.5t31.5 51t17 27.5q12 14 36 53t49.5 83t46 83t24.5 51l2 7q2 2 2 12q2 31 -31.5 52.5t-78.5 33.5t-91.5 15t-66.5 -3q-23 -4 -41 -18 l280 282h-329l-500 -450zM258 821q-4 -35 28.5 -57.5t78 -34.5t91.5 -14t70 4q47 10 80 57t60 94h-381q-15 -26 -21 -28l-3 -10q-3 -9 -3 -11zM346 973h768l19 135q2 27 -12.5 46.5t-36 32.5t-48 20t-47.5 12q-25 4 -86 10t-128.5 13t-127 14.5t-84.5 13.5q-6 -2 -9 -1 t-9 -1q-18 -4 -39 -27.5t-38 -51.5t-30.5 -51.5t-17.5 -25.5q-6 -14 -27.5 -54t-46.5 -85zM514 326l199 209q-14 -20 -26.5 -52t-24 -65t-22.5 -60.5t-19 -35.5z" />
<glyph unicode="3" horiz-adv-x="974" d="M193 252q-4 -41 6 -50t53 -26q20 -10 73.5 -32.5t115 -46t115.5 -44t77 -26.5q2 2 13 3t20 3q31 8 74.5 34.5t93 64.5t97.5 84t88 92t65.5 90t29.5 77l45 395h-428l-18 -153l-99 20l-340 -231q-6 -4 33 -10.5t100.5 -12.5t132 -9t130.5 1q-18 -25 -48 -47t-64 -40.5 t-66.5 -31t-55.5 -18.5q-41 -10 -71.5 -8t-65.5 2q-20 0 -45 -6q-33 -8 -45 -30t-16 -44zM317 870q6 -29 40 -44t78 -21t88 -4t67 8q33 8 55.5 24.5t38.5 36.5h-367zM362 973h807l19 149q4 27 -11.5 46.5t-39 32.5t-52 21.5t-49.5 12.5q-27 2 -91 7t-137 11.5t-137.5 11.5 t-90.5 9q-2 0 -8.5 -1t-8.5 -1q-23 -6 -43 -29.5t-37.5 -49.5t-31 -48.5t-21.5 -26.5q-12 -18 -30.5 -61t-37.5 -84z" />
<glyph unicode="4" horiz-adv-x="978" d="M211 465q-2 -8 27.5 -20.5t75.5 -24.5t100.5 -24.5t101.5 -24t80 -19.5t37 -12q2 -10 8 -43t13.5 -70t13.5 -68.5t8 -37.5q6 -25 7 -40t4 -23.5t12.5 -10.5t29.5 2q39 8 68.5 43t53 83t41 105.5t30 111.5t21.5 98.5t15 68.5q6 2 17.5 6t17.5 6q16 4 26.5 0t17.5 -8 t15.5 -7t20.5 1q35 8 49.5 28.5t18.5 45.5l4 31q4 37 -5.5 64.5t-25.5 51t-34.5 45t-30.5 47.5h-387l-21 -163l-74 -76l27 239h-336zM274 973h351l16 16l27 -16h364q8 47 35 96t51.5 90t35.5 67.5t-9 28.5l-230 41q-76 -41 -131 -80.5t-96 -103.5q-4 0 -33.5 11.5 t-68.5 23.5t-79 20.5t-61 1.5q-23 -6 -48 -29.5t-49.5 -54t-44 -61.5t-30.5 -51z" />
<glyph unicode="5" horiz-adv-x="978" d="M195 117l4 -8q4 -4 21.5 -17.5t36.5 -30t37.5 -30t24.5 -17.5q2 -4 13.5 -12t27 -16.5t34 -12.5t36.5 0q8 7 16 7q27 12 95.5 40.5t145.5 59.5t146.5 58.5t98.5 37.5q23 8 52.5 23.5t57 33t47 35t21.5 31.5l41 344q4 27 -39 47.5t-104.5 32.5t-130 13t-115.5 -11 q-4 0 -16.5 -4t-14.5 -4q-20 -10 -57 -29.5t-84 -48.5q-14 12 -4 23l30 208h-342q2 -16 4.5 -28.5t2.5 -34.5q0 -25 -7 -76q-6 -98 -21 -175t-22 -136q-2 -14 8.5 -21.5t43.5 0.5q2 2 10 2t12 5q39 -16 123 12q70 25 133.5 34t93.5 27q20 -6 32.5 -10t12.5 -16l-26 -230 q-12 6 -24.5 19.5t-31 25t-43 17.5t-61.5 -2q-25 -6 -76 -25.5t-105 -45.5t-95 -51.5t-43 -43.5zM293 973h760l24 24l70 50q-6 0 -14.5 4t18.5 10q2 8 1 11l-1 3q-14 45 -56 85t-90.5 72t-92.5 55.5t-62 39.5l-8 -2q4 6 8 18q-41 -10 -110.5 -45.5t-148.5 -88t-158 -114 t-140 -122.5z" />
<glyph unicode="6" horiz-adv-x="1007" d="M190 242q-4 -37 27 -68t82 -55.5t116.5 -42t128 -26.5t116.5 -10t85 7l21 4q6 6 18.5 13.5t22.5 14.5t19 13l10 6l278 398q-2 2 2 17t4 26q6 51 -24.5 77.5t-80.5 41t-110.5 20.5t-111 17.5t-83 34t-28.5 67.5q2 35 39 73h-445q-20 -43 -22 -73zM338 973h534q39 16 68 22 q25 8 53 9q39 0 71 -2.5t79 8.5q33 8 51 23.5t23 43.5q2 14 -26 40t-72 53.5t-99 55t-107.5 48t-97.5 31t-67 4.5q-47 -12 -102.5 -46t-111 -80t-106.5 -100.5t-90 -109.5zM604 373l23 215l15 -2t33.5 -7.5t33 -12.5t14.5 -15q0 -2 -16.5 -28.5t-26.5 -41.5 q-4 -4 -16.5 -19.5t-24.5 -33.5t-22.5 -33.5t-12.5 -21.5z" />
<glyph unicode="7" horiz-adv-x="991" d="M258 831l61 -18q10 -4 22.5 -12t10.5 -10l178 79h-264q-4 -8 -4 -10l-3 -4t-1 -12q8 2 14 2q8 0 0 -5t-14 -10zM332 973h430l22 10l-2 -10h334q10 47 20.5 95t22.5 101q-49 37 -119.5 65t-144.5 45t-141.5 21.5t-110.5 -6.5q-4 -12 4 -14l-6 -2q-16 -16 -52 -48t-81 -74 t-92 -89t-84 -94zM626 211q-1 -10 3 -12l131 -150q31 -27 67.5 -3t79.5 71t92.5 106.5t106.5 106.5q0 4 -1 9l-1 5q-8 12 -26.5 43t-30.5 39l40 346q4 27 6.5 50t6.5 48h-330l-63 -561q-43 -4 -58.5 -27.5t-19.5 -52.5q-2 -8 -3 -18z" />
<glyph unicode="8" horiz-adv-x="931" d="M197 295q0 -6 1 -13l1 -6q0 -10 12 -40.5t28.5 -65.5t33 -64.5t24.5 -37.5q0 -4 9 -21.5t22.5 -37t30 -34t32.5 -10.5q8 2 11.5 3t11.5 3q27 16 90 44t133 56.5t132 55.5t91 43q20 14 50 36.5t57.5 49.5t49 55.5t25.5 55.5l41 264l-170 114q31 16 67 50t67 75h-340 q4 -23 10 -48t16 -48l-139 60l29 36h-349l-14 -141l215 -166q-16 8 -38.5 2t-61.5 -37q-29 -23 -58.5 -52.5t-55 -62t-44 -64.5t-20.5 -54zM313 973h799q17 34 21 59v21q-8 2 -23.5 30.5t-32 64.5t-30 68.5t-17.5 43.5q-4 0 -12 17t-18.5 37.5t-26 37t-35.5 12.5 q-6 -2 -9 -4t-11 -4q-29 -18 -93.5 -56t-137.5 -79t-138.5 -78t-93.5 -53q-35 -23 -74 -52.5t-68 -64.5zM631 326q-8 4 7 40.5t28 73.5l77 -59z" />
<glyph unicode="9" horiz-adv-x="1007" d="M193 260q-2 -16 24.5 -41.5t70.5 -53.5t98 -55.5t106.5 -47t97.5 -29.5t69 -4q43 10 96.5 40.5t106.5 73.5t103.5 96.5t91.5 106.5t66.5 104.5t29.5 90.5l37 329h-397l-13 -120q-4 0 -25.5 3t-46 11t-24.5 22q2 2 16.5 29t24.5 41q0 2 8 14h-420l-18 -28q0 -2 -5 -18.5 t-5 -26.5q-6 -51 26.5 -77t82.5 -40t110.5 -20.5t111 -18.5t82 -33.5t27.5 -66.5q-4 -33 -33.5 -66t-69.5 -60.5t-82 -47t-71 -25.5q-25 -8 -55 -8q-35 0 -69 2t-81 -8q-63 -14 -71 -68zM385 973h817l15 123q4 35 -27 65.5t-82 55t-115.5 42t-127 27.5t-117.5 11t-86 -7 l-19 -4q-16 -10 -42 -27.5t-30 -19.5z" />
<glyph unicode=":" horiz-adv-x="464" d="M166 160q-4 -33 10 -61.5t41 -49t61.5 -29t71.5 2.5q35 8 67 28.5t58.5 47t43 58t20.5 62.5q10 104 -39 138t-172 20q-27 -25 -54.5 -49.5t-50 -52t-39 -56.5t-18.5 -59zM250 870q8 -57 64.5 -91t121.5 -19q45 10 85 39.5t69 70.5h-340zM276 973h351q6 92 -45 123.5 t-170 19.5q-35 -35 -73 -69.5t-63 -73.5z" />
<glyph unicode=";" horiz-adv-x="520" d="M78 -289q74 18 155.5 59.5t152.5 101.5t121 137t60 169q2 18 3 33.5t1 28.5q0 41 -14 68.5t-49 62.5h-105q-98 -29 -164.5 -86.5t-95.5 -145.5q-2 -37 12.5 -64.5t37 -48t48 -32.5t48.5 -21q-115 -84 -160 -146.5t-51 -115.5zM213 870q-2 -31 14.5 -58.5t43 -44.5 t60.5 -23.5t68 4.5q47 12 91 45.5t71 76.5h-348zM250 973h340q2 86 -48 113.5t-165 15.5q-35 -31 -69 -62.5t-58 -66.5z" />
<glyph unicode="&#x3c;" horiz-adv-x="673" d="M246 614q-8 -12 13.5 -49t58 -86t81.5 -101t86 -95t70 -70t33 -20l241 317l-276 164q8 8 29.5 27.5t48 47t56.5 59.5t58 62h-305zM520 973h320q2 4 4 5t4 5q16 16 -0.5 60t-43 89.5t-53 77t-32.5 23.5z" />
<glyph unicode="=" horiz-adv-x="970" d="M256 520q-8 -4 27.5 -6t91.5 -2q55 0 125.5 2t134 7t110 11.5t54.5 14.5q39 25 69.5 43t55 33.5t43 31t32.5 35.5q8 4 3 7l-5 3l-372 25zM463 838q-8 -4 28 -5.5t91 -1.5q57 0 126.5 2.5t131 6.5t107.5 10t59 14q2 2 4 3t4 3h-492zM707 973h467q20 18 34 37q4 4 0 6l-4 2 l-373 24z" />
<glyph unicode="&#x3e;" horiz-adv-x="673" d="M217 360l176 -215q4 -4 42 38t91.5 107.5t113.5 144.5t110.5 149.5t81 120t24.5 57.5l-92 108h-461q-2 -14 4 -18q14 -14 49 -42t73 -56.5t72 -52t46 -29.5zM352 973h326l-174 207q-4 2 -20.5 -15.5t-38 -48.5t-47.5 -68.5t-46 -74.5z" />
<glyph unicode="?" horiz-adv-x="909" d="M217 111q-4 -33 11.5 -62t42 -49t61.5 -28.5t71 1.5q35 8 67 29t58.5 47.5t43 58t20.5 62.5q10 104 -38 139t-177 19q-51 -47 -101.5 -102.5t-58.5 -114.5zM262 606l166 -164l231 222q-4 0 23 21.5t66.5 52t85 66.5t79.5 66h-356zM305 1006q-2 -18 6 -33h348q31 41 59 87 t42 75l35 -52l-125 -110h346l143 147l21 172q4 27 -9.5 46.5t-36 32.5t-49 21.5t-49.5 12.5q-25 4 -85 10t-127.5 12.5t-127 13.5t-84.5 13q-8 -2 -11 0t-9 0q-18 -4 -39 -28.5t-38 -52t-30.5 -51.5t-15.5 -26q-6 -12 -28.5 -53t-49 -87t-49.5 -84t-31 -46l-2 -8l-3 -9z" />
<glyph unicode="@" horiz-adv-x="1052" d="M199 164q12 -41 72.5 -67.5t137 -37t153.5 -5.5t122 28q10 4 20 12l9 8q20 18 76.5 61.5t120 93.5t119.5 97t75 72q16 23 27.5 37t16.5 25.5t5 21.5t-6 27q-4 20 -16.5 30.5t-47.5 -4.5q-51 -29 -90 -62.5t-92 -62.5q-29 -12 -76 -13t-93 8t-82 27.5t-44 45.5l99 364 h-422q-19 -34 -7 -61zM362 973h885q-10 66 11.5 114t35.5 89q14 33 6 73q-6 4 -8 9l-2 4q-8 6 -49 16t-89 22.5t-89 24.5t-51 21q-4 -2 1 4t14 16t18.5 20.5t11.5 14.5q4 10 -19 4l-172 -14q-2 0 -6 -4.5t-8 -6.5q-16 -12 -50 -38.5t-78 -62.5t-92 -75t-92 -74.5t-78 -64.5 t-50 -43zM808 810q-7 -29 1 -56q6 -31 37 -49.5t73 -24.5t89 1t86 26q57 29 98 72.5t57 90.5h-418q-16 -31 -23 -60z" />
<glyph unicode="A" horiz-adv-x="1097" d="M213 395q-6 -54 -6 -102q0 -58 9 -108q17 -91 103 -154q18 -14 38 -25.5t53 -3.5q37 8 77.5 50t80.5 90t75 89t59 48q12 2 32 -26t46 -59q26 -32 60 -56q24 -16 51 -16q12 0 24 3l29 6q14 16 49 51l74 74t74 75t51 54q25 23 35 29t14 16q4 16 4 21q0 8 -4 18t-11 19.5 t-14.5 15.5t-9.5 6q-20 -4 -29.5 -14.5t-27.5 -14.5q-16 -4 -23.5 10.5t-9.5 35t-1 39t1 24.5l2 16l8 86l4 33l9 78q2 18 3 34.5t5 32.5h-383l-51 -432q0 -6 -8.5 -18t-18.5 -24.5t-20.5 -24t-14.5 -17.5l-12 -4q-12 2 -12 15q-1 18 0 36q0 36 2 69q4 50 10 97l25 209l4 37 l6 57h-375q-29 -51 -41 -104l-6 -39q-4 -35 -7 -65.5t-7 -65.5l-7 -41zM379 973h317l2 8h4l9 2q8 -4 14 -10h438q4 14 8.5 28.5t8.5 30.5q12 14 29.5 25.5t32.5 23t27.5 25.5t14.5 35q2 33 -20.5 48t-53 21.5t-63.5 9.5t-51 13q-31 10 -54.5 28.5t-47 35t-48 25.5t-55.5 1 q-41 -10 -65.5 -32.5t-65.5 -51.5q-92 -63 -196.5 -124.5t-184.5 -141.5z" />
<glyph unicode="B" horiz-adv-x="1034" d="M244 198l2 -5q14 -23 70.5 -57t119.5 -64q64 -32 118 -50q35 -12 54 -12q10 0 15 4l497 330q4 2 17.5 27.5t25.5 44.5q6 8 13.5 25.5t14.5 35t12 29.5t5 10l39 354h-860l-65 -569q-12 -12 -37 -37.5t-35 -40.5l-3 -6q-3 -6 -3 -10q-2 -4 0 -9zM340 1294q2 -12 14.5 -44.5 t24.5 -70.5t21.5 -75t7.5 -62l-9 -69h858l3 6q1 4 1 8q-1 23 -19 53q-22 36 -53.5 67.5t-65 52t-56.5 14.5q-31 -6 -64.5 -29t-69.5 -52.5t-70 -58t-64 -47.5l4 29q2 18 3 40.5t5 41.5l2 26q12 113 49 170.5t79 85t76 43t40 45.5q4 29 -1 45.5t-26 38.5q-117 -41 -218 -78.5 t-200 -111.5l-110 -86l-6 -3q-7 -3 -11 -3q-4 -2 -11 -3l-7 -1q-6 2 -19.5 11t-27.5 20.5t-26.5 21.5t-16.5 16zM731 399l47 404q2 18 27.5 33.5t44.5 19.5l-57 -500z" />
<glyph unicode="C" horiz-adv-x="974" d="M193 252q-1 -6 -1 -13q0 -43 34 -85q40 -50 100 -86q58 -36 124 -54q39 -10 72 -11q22 0 41 5q8 2 19.5 6t13.5 4q27 18 88 66.5t130 104t130.5 105.5t87.5 71q37 31 52.5 44t23.5 33q2 8 3 15.5t3 17.5q4 23 -5 39t-42 8q-47 -10 -92 -37.5t-98 -40.5q-27 -6 -66 -8h-19 q-29 0 -57 4q-37 6 -61.5 23.5t-20.5 50.5l41 356h-428zM307 973h830q41 41 43 71q2 4 1 10l-1 7q-6 8 -21.5 37.5t-32 64.5t-32 67t-21.5 44q-6 0 -15 16.5t-22.5 36t-30 33.5t-36.5 10q-6 -2 -10.5 -3t-8.5 -3q-18 -10 -57 -31.5t-87 -48.5t-101.5 -56.5t-101.5 -56 t-87 -47t-59 -30.5q-35 -23 -78 -54.5t-72 -66.5zM739 870q16 -35 44 -59q19 -16 44 -16q13 0 27 4q20 6 60 24.5t87 46.5h-262z" />
<glyph unicode="D" horiz-adv-x="970" d="M201 162q0 -6 24.5 -19.5t63.5 -31t85 -36t88 -32.5t74.5 -23.5t43.5 -7.5q16 4 62 33t105.5 70t125 91t121 96t93 85t41.5 59l48 424h-609q8 -4 13 -4l-222 -53l-63 -539q-10 -10 -25.5 -24t-30 -30.5t-25.5 -32t-13 -25.5zM377 1116q-3 -18 -3 -35q0 -61 34 -108h780 l4 28q2 25 -12.5 53.5t-37 54.5t-49 44t-46.5 23q-20 6 -74.5 19t-116 26.5t-117 26t-77.5 16.5q0 2 -1.5 6t-1.5 6q2 18 21.5 34.5t43.5 37t44 47t25 61.5q-74 -18 -144.5 -44t-128 -64.5t-96.5 -95t-47 -136.5zM692 399l53 463l62 -45l-53 -463z" />
<glyph unicode="E" horiz-adv-x="1007" d="M201 309q-1 -11 -1 -22q0 -49 28 -99q36 -60 96 -104t132 -66q42 -12 81 -13q30 0 59 7q25 6 74 40t110.5 81t126 103.5t118.5 107.5t89 92t37 58q2 37 -39 36q-16 0 -38.5 -7t-43.5 -17q-39 -16 -72.5 -34.5t-80.5 -31.5q-27 -8 -72 -8q-27 0 -55.5 5t-51 15.5t-36 28 t-9.5 41.5q4 49 51.5 92t113 85t137 83t126.5 88h-370q8 -12 14 -14q8 -10 18.5 -30.5t8.5 -22.5q-2 -14 -31 -34.5t-51.5 -35t-26.5 -16.5l19 153h-398v-6zM328 973h837q4 10 6.5 19t4.5 20l4 43l-199 282q-2 2 -27.5 6.5t-38.5 8.5l-18 -4q-37 -10 -110.5 -48 t-157.5 -92.5t-167 -116t-134 -118.5z" />
<glyph unicode="F" horiz-adv-x="819" d="M213 182q-4 -8 6 -28.5t21 -24.5q20 -16 62 -36.5t84 -39t74 -31t34 -12.5l67 17l336 350l8 69q-25 -6 -44 -17t-36.5 -22.5t-35 -20.5t-37.5 -13l-21 -6q-8 0 -19.5 10t-11.5 14l48 400q2 8 14 21t20 17q14 4 41 16.5t58 24.5h-578q-8 -18 -13 -35.5t-7 -35.5 q-4 -35 6 -51.5t53 -24.5l-49 -432q-4 -2 -16.5 -17.5t-26.5 -35t-25.5 -36t-11.5 -20.5zM346 1337q-3 -19 -3 -37q0 -22 4 -40q7 -36 18.5 -69.5t18.5 -69.5q4 -19 4 -40q0 -18 -3 -37q-4 -20 -10 -37.5t-17 -33.5h646q2 6 2 14q3 21 3 37q-1 20 -5 34q-8 24 -30 30 q-15 5 -36 5q-13 1 -28 -1q-40 -4 -97 -15l6 62q29 -20 55.5 -17.5t67.5 13.5q119 31 131 137q1 8 1 16q0 90 -87 131q55 35 74.5 72t25.5 84q-102 -25 -180 -46.5t-146.5 -50t-135 -71.5t-148.5 -113q-28 48 -89 48q-19 0 -42 -5z" />
<glyph unicode="G" horiz-adv-x="1007" d="M174 -14q-2 -17 -2 -32q0 -48 24 -74q33 -34 88 -42q25 -4 53 -4q34 0 73 6q69 10 133 27q92 23 189 65.5t179 105t138.5 143.5t68.5 179q4 33 1 57.5t-12 47t-25.5 46.5t-41.5 52l35 307h-397l-33 -284q-2 -18 -27.5 -33.5t-44.5 -20.5l39 338h-364l-55 -483 q-4 -33 7 -62.5t33.5 -51t52.5 -31.5q16 -4 33 -4q16 0 33 4q41 10 66.5 23.5t51.5 31.5t59.5 44t93.5 60l16 5l18 4q6 -12 21.5 -42t33 -64t33 -64.5t21.5 -42.5q-2 -6 -1 -15.5t-1 -15.5q-6 -41 -31.5 -69.5t-59.5 -50t-72 -34t-69 -18.5q4 28 4 55q0 17 -2 34 q-4 42 -24.5 69.5t-59.5 37.5q-15 5 -36 5q-28 0 -66 -9q-49 -12 -80.5 -28.5t-51 -41t-29 -56t-13.5 -74.5zM260 973h365l4 31l63 -17l-2 -14h395l11 84q6 6 17 21.5t23.5 31.5t22.5 32.5t15 22.5l4 6q2 8 1 15.5t-1 9.5q-2 8 -12.5 13t-14.5 12q-20 6 -70.5 23.5 t-106.5 38t-106.5 37.5t-68.5 23q-2 0 -14.5 -2t-18.5 -4q-16 -4 -60 -29.5t-100.5 -63.5t-118 -83t-111.5 -84t-83 -67.5t-33 -36.5z" />
<glyph unicode="H" horiz-adv-x="991" d="M231 266v-8q0 -30 25 -54q29 -28 67.5 -48.5t78.5 -30.5t60.5 -6t49.5 22.5t59.5 43t61.5 49t53 38.5v-20q0 -12 -1 -27.5t-1 -29.5v-19q-10 -78 -33.5 -123t-59.5 -80.5t-83 -73.5t-102 -102q8 -27 35.5 -23.5t60.5 11.5q86 20 176 79.5t169 137.5t138 166t86 168 q4 20 18.5 86.5t31 146.5t30.5 155t18 114v12t-2 20h-401l-49 -424l-45 -8l49 420l12 12h-385l-61 -524q-39 -23 -45 -40t-11 -40zM311 1317q-3 -26 -3 -51q0 -48 12 -96q20 -72 49 -121l-11 -76h797q-4 18 -4 35v28q-2 6 -8 27.5t-17.5 48.5t-26 55.5t-31.5 48t-37.5 25.5 t-41.5 -10l-248 -197q0 14 1 50t6 57q6 51 15 99t31.5 89t65.5 76t117 61v9l4 8v22q-10 18 -31 27l-28 -8q-23 -4 -42.5 -8.5t-41.5 -10.5l-27 -6q-66 -16 -114 -33.5t-90 -42t-84 -61.5t-93 -92q-28 20 -50 38q-14 12 -39 13q-14 0 -30 -4z" />
<glyph unicode="I" horiz-adv-x="724" d="M287 811q-10 -10 1 -27.5t25 -25.5q10 -4 40 -9t42 -1l-63 -558q-2 -23 18.5 -52t51 -57t65.5 -44.5t59 -9.5q29 8 85.5 50t112.5 94t99 103.5t45 77.5q1 8 1 14q0 37 -36 37q-24 0 -65 -16q-2 10 -3 25.5t-1 38.5q0 33 1 73.5t2 79.5t2 70t3 45q4 57 31.5 90t54.5 61 h-516zM440 973h443l-195 145q25 25 51.5 50.5t49 52t40 56t21.5 60.5q4 33 -11.5 61.5t-43 47t-62.5 26.5q-18 4 -36 5q-17 0 -35 -4q-35 -8 -67 -29t-58.5 -47.5t-43 -58t-20.5 -62.5q-2 -20 1 -50t12.5 -59.5t24.5 -52t38 -29.5z" />
<glyph unicode="J" horiz-adv-x="991" d="M227 231q8 -43 50 -84t92.5 -74.5t96.5 -58t62 -37.5l9 3q-8 -6 -9 -17q43 10 116 48t156 92.5t163.5 120t140.5 128.5q0 98 3 187.5t17 199.5l4 64l9 67h-328l-57 -505l-410 -15q-2 -4 -16.5 -17.5t-24.5 -23.5l-70 -49l5 -1q4 -1 7 -2t1 -4t-17 -7q2 -8 1 -12z M766 1083q-4 -29 7 -46t56 -1l-8 -63h328l6 39l8 71q6 6 17.5 21.5t24 34t23.5 35t17 24.5l1 6q1 6 1 8q4 0 -24.5 20.5t-64.5 45.5t-64.5 46.5t-26.5 23.5q6 8 26.5 30.5t44 49t45 50t29.5 33.5l4 11q3 12 1 22q2 23 -4.5 49.5t-20.5 47t-36.5 31.5t-51.5 5 q-20 -4 -52 -22.5t-61.5 -44t-51 -54t-21.5 -55.5q0 -10 5 -35.5t13 -54.5t16.5 -54.5t12.5 -33.5l-191 -207q-4 -4 -5 -15t-3 -18z" />
<glyph unicode="K" horiz-adv-x="1017" d="M188 252q-1 -5 -1 -10q0 -28 29 -52q34 -28 81 -46.5t95 -26.5q27 -5 47 -5q15 0 26 3q27 6 44 14t32.5 18.5t35 23.5t50.5 30l-217 -408q4 -29 34.5 -25.5t59.5 11.5q84 31 159.5 88t144.5 131t133.5 160t123.5 172q10 12 27.5 54t37 96.5t36.5 114.5q18 59 25 111 q4 28 3 51q0 19 -2 35q-6 34 -31 39q-129 14 -212 20.5t-140 10.5l8 8h-465l-61 -524q-33 -20 -65.5 -46t-37.5 -48zM322 1319q-3 -24 -3 -48q0 -47 11 -97q16 -74 43 -125l-11 -76h566l301 278q-14 25 -45 31q-17 3 -36 3q-16 0 -32 -2q-37 -5 -72.5 -20.5t-58.5 -33.5 l-246 -195v19q4 20 4 32t5 33l2 23q6 55 14 102t31.5 87t66.5 74t117 62q-2 8 1 12.5t3 8.5q0 2 -1 10l-1 8q-4 10 -14.5 17.5t-18.5 7.5q-10 -4 -26.5 -6t-42.5 -8q-20 -6 -38 -8.5t-26 -4.5q-66 -16 -114 -34.5t-90 -44t-84 -62.5t-95 -90q-16 23 -40 40q-15 11 -38 11 q-15 0 -32 -4zM627 266l55 416q41 -46 46 -98q2 -24 2 -47q0 -29 -3 -58l-6 -65q-4 -23 -24.5 -63t-69.5 -85z" />
<glyph unicode="L" horiz-adv-x="722" d="M219 223q-6 -12 5.5 -29.5t27.5 -32t33.5 -24.5t23.5 -10q8 -8 35 -23.5t57.5 -33t57 -30.5t37.5 -17q6 6 32.5 20t38.5 27l293 249q0 2 3 13.5t5 19.5q4 33 -7 41t-31.5 4t-46 -14t-50.5 -16l58 503h-431l-65 -567q-14 -10 -39 -37t-37 -43zM346 1305l23 -84 q0 -29 10 -69t8 -48l-16 -131h432l45 393q2 25 22.5 34t45 24.5t48 44t31.5 92.5q-80 -18 -154.5 -56.5t-140 -78.5t-118 -73.5t-84.5 -41.5l-19 -4l-96 36q-2 2 -17.5 1t-17.5 -1q-2 -4 -2 -20v-18z" />
<glyph unicode="M" horiz-adv-x="1617" d="M227 68q6 -10 26.5 -30t35.5 -30q4 -4 14 -8t23 -18q37 -25 71.5 -49.5t44.5 -28.5h4q10 0 13 2q35 8 66.5 39.5t64.5 67.5t68.5 68t78.5 42q35 8 59.5 -9.5t47.5 -39.5q22 -22 46 -40q16 -12 38 -12q11 0 24 3q31 8 75 38.5t85 72.5t71.5 88t37.5 85q4 29 -1.5 50.5 t-27.5 48.5l55 462h-397l-64 -563l-67 -16l65 579h-520q-4 -4 -7 -8l-3 -4q-8 -23 1 -39t24.5 -28.5t33 -17.5t29.5 -3l-66 -586q-10 -12 -22 -41.5t-23 -40.5l-2 -20zM352 973h908q9 23 36 31q18 4 30.5 0.5t21.5 -0.5l-5 -31h412l19 145q8 10 23 41t20 45l2 17v18 q2 2 -9.5 11.5t-19.5 17.5q-12 6 -42 29.5t-63.5 49t-64.5 49t-45 29.5q-2 0 -6 2.5t-6 2.5q-6 -2 -13 -8l-8 -5q-16 -12 -51 -50t-76 -79t-81 -75.5t-66 -41.5q-10 -2 -14 -1l-3 1l-149 140l-6 2q-6 2 -9 0q-8 -2 -15 -6l-7 -4q-23 -10 -70 -52.5t-96 -87.5t-87 -78.5 t-40 -27.5l-149 137l-68 -16l-21 -22q-22 -21 -52.5 -52t-66.5 -67t-63 -64zM1268 322q-2 -29 19.5 -62t53 -58.5t64.5 -42t53 -12.5q31 8 82 47t100.5 88.5t86 97.5t38.5 75q2 2 0 10l-2 8q-8 12 -29.5 30.5t-31.5 26.5l41 340h-412z" />
<glyph unicode="N" horiz-adv-x="1361" d="M211 147q-4 -12 1 -23t14.5 -21.5t20.5 -18.5t19 -12l217 -127l35 8q2 0 36 28.5t80 68.5t95 83t82 72l37 37l2 14l2 18q-2 6 -11.5 27t-15.5 27l64 542h-631q-2 -29 19.5 -31.5t46 0.5t45 4t18.5 -22l-63 -557q-6 -4 -23.5 -20.5t-36 -36t-35 -37t-18.5 -23.5zM317 973 h607l10 10l27 -10h499l15 112q10 6 23 20.5t24.5 31t20.5 32t11 25.5q-2 2 -23.5 19.5t-37.5 25.5l-127 59q-6 0 -25.5 13.5t-40 30t-37 30.5t-18.5 17l-6 -1q-6 -2 -8 -2q-43 -10 -93.5 -49t-101.5 -87t-100 -95t-90 -74q-16 25 -38 55.5t-50.5 56.5t-63.5 39q-20 7 -42 7 q-17 0 -36 -4l-16 -4q-35 -25 -73 -55.5t-74.5 -64.5t-70.5 -69.5t-65 -68.5zM897 225q-4 -25 19.5 -51.5t57.5 -48t69 -33.5t53 -8q10 4 20 10t14 6l293 252q35 33 53.5 48.5t24.5 31.5q4 8 4 12q0 6 4 19v9q1 33 -27 43q-32 11 -71 13l39 342h-479z" />
<glyph unicode="O" d="M180 186q-2 -23 24.5 -45t70.5 -44.5t99.5 -41t111 -31t103.5 -15.5q13 -1 25 -1q31 0 52 6q8 2 19 6l11 3q6 4 33 27.5t57.5 52t58 53t36.5 30.5q98 68 165.5 110t112.5 76t70.5 66.5t42 80.5t27 119t22.5 181l4 45v6h-467l-51 -467q-23 -4 -45.5 -0.5t-20.5 21.5 l52 446h-482l-67 -598q-33 -8 -45.5 -25.5t-16.5 -39.5zM356 973h449l2 8q4 -2 6 -4t6 -4h516q0 8 4 28l7 48q-10 49 -30 101t-52.5 96t-77.5 73t-105 29q-10 -8 -40.5 -30t-66.5 -45.5t-66.5 -44t-39.5 -24.5q-31 -18 -99.5 -49t-146 -64.5t-152.5 -65.5t-114 -52z" />
<glyph unicode="P" horiz-adv-x="978" d="M190 301q-4 -29 5.5 -46t42.5 -9q12 2 22 10t21.5 18.5t22.5 19.5t28 13q2 2 14 2q16 0 19 2q-2 -27 -4.5 -78t-2.5 -110t5.5 -118.5t17.5 -105.5q13 -46 35 -73q17 -21 42 -21q7 0 15 2q20 6 29.5 13.5t15.5 20t12.5 33t22.5 54.5q2 8 16.5 50t30.5 91.5t31.5 93.5 t19.5 56q2 6 38 35t89 66.5t113.5 81.5t112 84t86 70t34.5 40l31 274h-330l-28 -258l-62 52l25 206h-375q4 -23 5 -46t-1 -52q-8 -61 -37.5 -114.5t-62.5 -105.5t-60.5 -104.5t-33.5 -109.5zM349 1034q3 -33 9 -61h416l35 39l31 -25l-2 -14h329l25 198q0 12 -11.5 42 t-29.5 60t-42 51.5t-48 14.5q-23 -6 -67 -37.5t-89 -68.5t-78.5 -65.5t-35.5 -28.5q-27 55 -69 99t-112 54l74 86q-2 16 -13.5 21.5t-25.5 3.5t-30.5 -7t-28.5 -7q-111 -27 -167.5 -97.5t-68.5 -181.5q-2 -25 -2 -46q0 -16 1 -30z" />
<glyph unicode="Q" horiz-adv-x="980" d="M196 448v-13q0 -49 6 -95q7 -53 29.5 -91t62.5 -55q20 -9 47 -9q26 0 58 8q35 8 61.5 33.5t52.5 55t54.5 56.5t67.5 37q12 0 18 2q-2 -18 1 -63.5t11.5 -100.5t21.5 -113.5t31.5 -105.5t41 -73.5t51.5 -18.5q20 4 43 43t45.5 95t43 123.5t37.5 129t29.5 109t18.5 65.5 q4 20 11.5 63t16.5 98.5t19 119t21 122.5h-420l-39 -323q-23 -4 -45.5 -2t-18.5 22l37 303h-358q-14 -41 -22.5 -94t-16.5 -129q-4 -37 -10 -90t-7 -109zM313 973h310v2q10 4 25.5 3t25.5 -5h438q6 41 11 72.5t7 48.5q33 16 37 32q9 38 9 39q0 32 -50 59q-51 29 -119.5 49.5 t-134.5 30.5q-41 5 -69 5q-17 0 -29 -2l-16 -4l-109 -89q-68 -47 -120 -81.5t-93 -62.5t-70.5 -50.5t-52.5 -46.5z" />
<glyph unicode="R" horiz-adv-x="1105" d="M223 211q-14 -14 12.5 -34.5t74.5 -42t108.5 -43t117 -38t97.5 -26t49 -7.5q6 2 23.5 7.5t25.5 7.5q119 104 230.5 213.5t218.5 226.5q0 2 3 12.5t5 18.5q4 29 -6.5 44t-42.5 7q-29 -6 -50.5 -21.5t-42 -34t-43 -33.5t-53.5 -22q-6 -2 -24.5 -7t-37 -8t-32.5 1t-10 21 l49 417h-631q2 -29 27.5 -34t55.5 -6t53.5 -4t21.5 -25l-49 -434zM317 973h981q2 4 2 6q1 2 3 4l3 13q3 12 5 28q4 18 6 35.5t4 32.5q4 35 4 67q-1 71 -19 123q-26 76 -118 123l-264 -272l-33 -9q-35 37 -57.5 61.5t-45 42t-55.5 28t-90 18.5q-16 -12 -52 -47t-76 -74 t-77 -74t-55 -47q-20 -20 -36.5 -34.5t-29.5 -24.5zM999 870l52 -67l30 -23h6q10 0 15 2q2 0 7 3t7 3q14 4 41 29t55 53h-213z" />
<glyph unicode="S" horiz-adv-x="931" d="M197 295q0 -6 1 -13l1 -6q0 -10 12 -40.5t28.5 -65.5t33 -64.5t24.5 -37.5q0 -4 9 -21.5t22.5 -37t30 -34t32.5 -10.5q8 2 11.5 3t11.5 3q27 16 91 53t138 78t139.5 78t91.5 51q20 14 50 37t58 48.5t48.5 54t24.5 57.5l28 203l-442 239h-367l-14 -141l272 -190 q-8 2 -28 -4q-23 -6 -72 -33t-100 -61.5t-91 -73.5t-44 -72zM313 973h789q27 31 31 59v21q-8 2 -23.5 30.5t-32 64.5t-30 68.5t-17.5 43.5q-4 2 -11 20t-18.5 38.5t-27 36t-35.5 9.5q-6 -2 -9 -4t-11 -4q-29 -18 -93.5 -56t-137.5 -79t-138.5 -78t-93.5 -53 q-35 -23 -74 -52.5t-68 -64.5zM582 504l139 -92l-76 -27q-10 20 -23.5 55t-39.5 64zM719 870q17 -34 43 -62q19 -20 43 -20q10 0 20 3q20 4 63.5 26t90.5 53h-260z" />
<glyph unicode="T" horiz-adv-x="815" d="M219 213q10 -41 47 -69.5t85 -50t96.5 -39t78.5 -36.5q20 10 58.5 36t83.5 62t93 76.5t88 80.5t65.5 74t27.5 56q2 31 -19.5 35t-51 -4t-59.5 -21.5t-42 -15.5l55 473h-522l-8 -8q0 -2 -4 -13t-2 -20q-1 -7 -1 -13q0 -37 22 -51q24 -17 69 -34l-49 -430 q-4 -10 -21.5 -25.5t-37 -30t-27.5 -19.5zM403 973h619q14 24 20 69q6 39 -18 56q-22 16 -56 20q-17 2 -35 2t-37 -2q-38 -4 -58 -6l45 373l-80 41q-53 -88 -98.5 -162t-92.5 -139.5t-97 -127t-112 -124.5z" />
<glyph unicode="U" horiz-adv-x="1361" d="M213 178q12 -41 54 -78t91.5 -65.5t95.5 -50t64 -31.5l19 4q43 10 84 43t82.5 72t84.5 72.5t91 45.5q19 5 36 5q21 0 39 -9q30 -16 58 -38t60 -38q19 -10 42 -9q17 0 37 5q35 8 93.5 48.5t114.5 90.5t99 101t47 84q2 37 -18.5 41t-47 0t-48 -5t-17.5 26l45 378h-463 l-53 -464q-4 -14 -32.5 -35t-51 -35t-26.5 -17q2 16 7 48t11 73q4 41 10 90.5t13 98.5q8 72 14 133t10 108h-598q-4 -12 -4 -20q-4 -33 7 -42t30.5 -6t45.5 13t50 16l-59 -534l-41 -41q-8 -4 -35 -20.5t-35 -24.5l-2 -6q-2 -6 -2 -8q-2 -4 -2 -13v-6zM348 973h516 q0 45 -11 98t-34.5 97t-60.5 68q-25 16 -56 17q-15 0 -32 -4q-8 -2 -18.5 -5t-18.5 -5q-14 -12 -50 -46t-77 -74t-78 -74.5t-53 -47.5q-18 -18 -27 -24zM913 1067q4 -10 17.5 -42t25.5 -52h476l8 71q43 45 62.5 74t25.5 70v20q-2 8 -3 10.5t-8.5 6.5t-22.5 13t-48 32 q-25 12 -55.5 29.5t-59 36t-51.5 32.5t-33 21q-68 -86 -149.5 -158t-179.5 -131z" />
<glyph unicode="V" horiz-adv-x="1167" d="M213 229q-4 -18 22.5 -43.5t70.5 -51t98.5 -50.5t104.5 -44.5t89 -28.5t53 -5q2 2 15.5 9.5t32 19.5t24.5 18l145 125q47 41 124 79t151 82t132 97t68 127l35 307h-463l-51 -452l-63 43l47 409h-494q6 -8 12.5 -15t16.5 -15l-61 -525l-16 -9q-15 -9 -34.5 -23.5 t-38 -29.5t-20.5 -24zM303 1012q0 -20 2 -39h561q12 12 32 22.5t34 14.5l-4 -37h463l20 176q0 6 -2 18.5t-6 25.5t-9 24.5t-8 17.5q-12 16 -40.5 39.5t-59.5 45t-54.5 36t-25.5 14.5l-37 -8l-309 -238l-225 168h9q34 0 64 14q34 16 58.5 41t39.5 57t19 64q-90 -23 -177 -51 t-158.5 -74.5t-121 -114t-61.5 -165.5q-4 -29 -4 -51z" />
<glyph unicode="W" horiz-adv-x="1527" d="M221 100q-4 -16 30 -50t78 -65.5t86 -55t54 -19.5q6 2 18.5 8t18.5 8l225 232l11 4q10 4 16 6q24 6 47 6q28 0 52 -10q44 -18 86 -41t84 -41q25 -11 53 -11q20 0 42 5q16 4 65.5 36.5t114 82t135 108.5t130 116.5t100.5 105.5t45 77l31 268h-400l-47 -409q-10 -2 -20 -3 t-21 -1q-23 0 -22 28l45 385h-408l-61 -532l-64 -41l66 573h-520q14 -63 76 -104l-64 -541q-23 -16 -37 -28.5t-23.5 -25.5t-14.5 -29.5t-7 -41.5zM289 973h1001l2 18q4 29 30 44.5t44 19.5l-10 -82h397l25 207q1 5 1 10q1 28 -17 64q-20 44 -54 83t-70 63q-29 20 -52 20 q-6 0 -11 -1q-41 -10 -76 -43t-67.5 -69.5t-64.5 -67.5t-69 -39q-2 0 -9 1l-7 1q-47 20 -67.5 43t-36.5 39t-36 22q-8 3 -19 3q-18 0 -46 -6q-80 -20 -141.5 -79t-130.5 -139q-18 27 -45 45.5t-57.5 32t-61.5 24.5t-55 21l147 103l1 5q1 5 1 7q4 31 -10 42t-37 11 q-20 0 -43.5 -7t-40.5 -11q-283 -68 -313 -367q-2 -6 -2 -18z" />
<glyph unicode="X" horiz-adv-x="1042" d="M115 -12q-3 -33 -3 -63q0 -73 20 -123q30 -70 91.5 -104t147.5 -36h13q80 0 171 23q68 16 135.5 42.5t122.5 66.5t93 97.5t48 135.5q2 15 2 28q0 79 -77 79q-22 0 -50 -7q-53 -12 -87.5 -41t-57 -66.5t-35 -84t-18.5 -91.5q-4 -2 -21.5 -8t-38 -12t-38 -10t-21.5 -4 q-41 -10 -92 -16q-19 -2 -38 -1q-30 0 -56 5q-43 9 -69 39q-18 21 -18 57q0 15 3 34q4 63 35.5 116.5t105.5 72.5q33 8 61.5 5t55 -8t53.5 -9.5t59 4.5q16 4 55.5 32.5t86.5 70.5t97 91t93 94t70.5 80t29.5 49q0 2 -2 8l-2 7q-2 8 -11 18t-17 10l-17 -4q-41 -12 -77.5 -38.5 t-83.5 -39.5q-20 -4 -42 -5t-18 28l41 360h-407q6 -16 4 -47l-47 -411q-111 -100 -173.5 -200.5t-76.5 -223.5zM225 870q11 -18 27 -18q18 -4 39.5 3t44.5 15h-111zM281 973h876q23 29 36 60.5t17 62.5v10q0 26 -8 68q-10 51 -30 100t-50 83q-23 27 -51 27q-7 0 -14 -2 q-8 -4 -13 -6l-4 -2l-229 -256q-18 20 -45 49t-58 53q-32 24 -70 38q-22 8 -45 8q-17 0 -34 -4q-8 -4 -19 -8l-12 -5zM899 870q21 -20 55 -20q19 0 41 6q10 2 20.5 6t20.5 8h-137z" />
<glyph unicode="Y" horiz-adv-x="911" d="M188 211q-1 -7 -1 -14q0 -33 15 -61q19 -34 50 -58.5t68 -35.5q23 -7 44 -7q12 0 23 2q2 0 8 3l6 3q12 10 44 36.5t67 57.5t66.5 58.5t44.5 40.5q2 -8 0 -25.5t-5 -38.5q-2 -10 -2 -18v-19q0 -16 -4 -20q-8 -74 -24.5 -124t-45 -95.5t-72.5 -93.5t-110 -115 q0 -16 13.5 -21.5t31 -3.5t34 6t24.5 6q37 10 89 42t108.5 77t111.5 99.5t100.5 111.5t76 112.5t36.5 100.5l74 653h-342q8 -29 8 -62q0 -16 -2 -34l-14 -139l-4 -39q-4 -29 -10.5 -52.5t-10.5 -51.5l-4 -37q-25 -47 -72 -60l56 469l4 6h-420q8 -72 22 -142q6 -35 6 -75 q0 -38 -6 -80q-6 -49 -17 -94t-23.5 -89t-23.5 -88t-18 -91zM244 973h825l12 96q-4 23 -14 49.5t-33 36.5l-96 86h-14q-8 -2 -14 -4l-7 -2l-182 -152l-72 -49l-151 133v19q0 12 13 25.5t31.5 27.5t38 29.5t31.5 27.5q-16 43 -34.5 51.5t-59.5 -1.5q-129 -33 -192.5 -128.5 t-79.5 -220.5q-2 -8 -2 -24z" />
<glyph unicode="Z" horiz-adv-x="851" d="M170 36q10 -70 45 -116t99 -64q26 -7 58 -8q46 0 103 15q111 27 198 86t149.5 139t100.5 171t48 179q3 29 3 56q0 35 -6 66q-10 54 -25 100q-15 44 -29 84q-10 30 -10 61q0 9 1 18q2 4 6 11l4 8l27 28h-399q-20 -37 -60.5 -58t-81.5 -41.5t-72.5 -44.5t-37.5 -62 q2 -8 4 -19.5t0 -13.5q-2 -4 2 -16.5t8 -27t8 -26.5t2 -14q0 -6 -18 -38t-42 -66.5t-42 -66.5t-18 -38q-2 -8 -9.5 -44t-11.5 -71l-4 -39q-5 -39 -5 -76t5 -72zM334 973h131l67 16q6 0 13 -16h336q6 45 15 115q5 37 5 73q0 31 -4 61q-8 64 -43 102q-23 24 -65 24 q-22 0 -50 -7q-6 -2 -17 -6t-13 -4q-16 -12 -53.5 -41.5t-78 -63.5t-76.5 -65t-48 -43q-10 -10 -30 -27.5t-38 -36t-31.5 -32.5t-15.5 -21q-10 -16 -4 -28zM442 37l43 371q2 14 8.5 47.5t18.5 68.5t31.5 64t48.5 35l-68 -568q-4 -25 3.5 -36t13.5 -15t4 -6t-25 -8 q-41 -10 -62.5 -5t-15.5 52z" />
<glyph unicode="[" horiz-adv-x="641" d="M203 172q-6 -68 37 -130t109.5 -108.5t141 -68t134.5 -6.5q8 2 25.5 5t33.5 10t31.5 19.5t21.5 30.5q-78 -23 -122 27.5t-61 149t-12 233.5t23 282q6 61 15.5 125t19.5 129h-311zM301 973h315q10 61 20.5 120.5t20.5 116.5q10 82 54 152l80 162l-60 14l-156 68h-6 q-8 0 -10 -2q-2 0 -10 -4l-8 -3l-123 -141q-29 -23 -44.5 -56.5t-25.5 -56.5z" />
<glyph unicode="\" horiz-adv-x="868" d="M254 973h514v2q6 0 15.5 6t20.5 15.5t19 18.5t13 13q2 4 2 33q0 27 -9 33q-6 8 -23.5 18t-60.5 29.5t-117.5 51.5t-195.5 85q-141 -172 -178 -305zM317 870q29 -18 62.5 -42.5t60.5 -79.5q6 -23 21.5 -76.5t33 -112.5t33 -113.5t21.5 -74.5q-61 -2 -79.5 -28t-2.5 -67 q12 -29 66.5 -65.5t120 -69t130 -52t95.5 -9.5q25 6 49 44t42.5 85t28 93t0.5 69l-192 499h-490z" />
<glyph unicode="]" horiz-adv-x="563" d="M76 -217q0 -18 13 -23.5t31.5 -3.5t36 7.5t23.5 7.5q37 10 88 41.5t108.5 76.5t114 99.5t102.5 112t75.5 112.5t33.5 100l60 557h-316q-6 -66 -11 -133t-13 -137q-18 -147 -45 -287.5t-68 -253t-98 -187.5t-135 -89zM403 1450l41 -133q29 -53 23 -133q-4 -51 -6 -104.5 t-6 -106.5h317l55 506q-4 23 -15 49t-34 37l-94 88l-7 -1t-9 -1q-6 -2 -14 -5l-7 -4l-182 -149z" />
<glyph unicode="^" horiz-adv-x="1167" d="M145 160q0 -6 1 -19.5t4.5 -27t7.5 -24.5t10 -13q14 -18 44 -42t60.5 -44.5t54 -34.5t25.5 -14l33 8l313 237l224 -168q-37 2 -71 -13t-59.5 -40.5t-42 -58.5t-18.5 -66q88 20 176 50t160 76t121 115t61 167q4 43 3 72.5t-10 54t-25.5 47t-42.5 49.5l47 399h-500l33 -22 l-58 -494q-2 -23 -27.5 -37t-43.5 -18l65 571h-411q-27 -29 -43.5 -58.5t-20.5 -63.5zM418 973h815l4 22q-2 0 13.5 9.5t35 22.5t38 28.5t22.5 25.5q0 18 -28 43t-71 50.5t-95 51t-101.5 44t-88 29t-55.5 6.5l-10 -5q-10 -6 -22.5 -14t-23.5 -15t-15 -14l-148 -127 q-47 -39 -121.5 -76.5t-148.5 -80.5z" />
<glyph unicode="_" horiz-adv-x="1095" d="M-199 -322q-4 -4 31 -0.5t97.5 10.5t144.5 18t170 23.5t174 26t157.5 25.5t120.5 22.5t62 16.5q135 59 216 93t124 73q8 4 1 5l-7 1l-662 -66z" />
<glyph unicode="`" horiz-adv-x="493" d="M645 1712q-6 -6 27 -46t77 -83t84.5 -72.5t53.5 -15.5q57 51 97 83t58 83q6 2 4 7l-2 5l-120 256z" />
<glyph unicode="a" horiz-adv-x="1097" d="M213 395q-6 -54 -6 -102q0 -58 9 -108q17 -91 103 -154q18 -14 38 -25.5t53 -3.5q37 8 77.5 50t80.5 90t75 89t59 48q12 2 32 -26t46 -59q26 -32 60 -56q24 -16 51 -16q12 0 24 3l29 6q14 16 49 51l74 74t74 75t51 54q25 23 35 29t14 16q4 16 4 21q0 8 -4 18t-11 19.5 t-14.5 15.5t-9.5 6q-20 -4 -29.5 -14.5t-27.5 -14.5q-16 -4 -23.5 10.5t-9.5 35t-1 39t1 24.5l2 16l8 86l4 33l9 78q2 18 3 34.5t5 32.5h-383l-51 -432q0 -6 -8.5 -18t-18.5 -24.5t-20.5 -24t-14.5 -17.5l-12 -4q-12 2 -12 15q-1 18 0 36q0 36 2 69q4 50 10 97l25 209l4 37 l6 57h-375q-29 -51 -41 -104l-6 -39q-4 -35 -7 -65.5t-7 -65.5l-7 -41zM379 973h317l2 8h4l9 2q8 -4 14 -10h438q4 14 8.5 28.5t8.5 30.5q12 14 29.5 25.5t32.5 23t27.5 25.5t14.5 35q2 33 -20.5 48t-53 21.5t-63.5 9.5t-51 13q-31 10 -54.5 28.5t-47 35t-48 25.5t-55.5 1 q-41 -10 -65.5 -32.5t-65.5 -51.5q-92 -63 -196.5 -124.5t-184.5 -141.5z" />
<glyph unicode="b" horiz-adv-x="1034" d="M244 198l2 -5q14 -23 70.5 -57t119.5 -64q64 -32 118 -50q35 -12 54 -12q10 0 15 4l497 330q4 2 17.5 27.5t25.5 44.5q6 8 13.5 25.5t14.5 35t12 29.5t5 10l39 354h-860l-65 -569q-12 -12 -37 -37.5t-35 -40.5l-3 -6q-3 -6 -3 -10q-2 -4 0 -9zM340 1294q2 -12 14.5 -44.5 t24.5 -70.5t21.5 -75t7.5 -62l-9 -69h858l3 6q1 4 1 8q-1 23 -19 53q-22 36 -53.5 67.5t-65 52t-56.5 14.5q-31 -6 -64.5 -29t-69.5 -52.5t-70 -58t-64 -47.5l4 29q2 18 3 40.5t5 41.5l2 26q12 113 49 170.5t79 85t76 43t40 45.5q4 29 -1 45.5t-26 38.5q-117 -41 -218 -78.5 t-200 -111.5l-110 -86l-6 -3q-7 -3 -11 -3q-4 -2 -11 -3l-7 -1q-6 2 -19.5 11t-27.5 20.5t-26.5 21.5t-16.5 16zM731 399l47 404q2 18 27.5 33.5t44.5 19.5l-57 -500z" />
<glyph unicode="c" horiz-adv-x="974" d="M193 252q-1 -6 -1 -13q0 -43 34 -85q40 -50 100 -86q58 -36 124 -54q39 -10 72 -11q22 0 41 5q8 2 19.5 6t13.5 4q27 18 88 66.5t130 104t130.5 105.5t87.5 71q37 31 52.5 44t23.5 33q2 8 3 15.5t3 17.5q4 23 -5 39t-42 8q-47 -10 -92 -37.5t-98 -40.5q-27 -6 -66 -8h-19 q-29 0 -57 4q-37 6 -61.5 23.5t-20.5 50.5l41 356h-428zM307 973h830q41 41 43 71q2 4 1 10l-1 7q-6 8 -21.5 37.5t-32 64.5t-32 67t-21.5 44q-6 0 -15 16.5t-22.5 36t-30 33.5t-36.5 10q-6 -2 -10.5 -3t-8.5 -3q-18 -10 -57 -31.5t-87 -48.5t-101.5 -56.5t-101.5 -56 t-87 -47t-59 -30.5q-35 -23 -78 -54.5t-72 -66.5zM739 870q16 -35 44 -59q19 -16 44 -16q13 0 27 4q20 6 60 24.5t87 46.5h-262z" />
<glyph unicode="d" horiz-adv-x="970" d="M201 162q0 -6 24.5 -19.5t63.5 -31t85 -36t88 -32.5t74.5 -23.5t43.5 -7.5q16 4 62 33t105.5 70t125 91t121 96t93 85t41.5 59l48 424h-609q8 -4 13 -4l-222 -53l-63 -539q-10 -10 -25.5 -24t-30 -30.5t-25.5 -32t-13 -25.5zM377 1116q-3 -18 -3 -35q0 -61 34 -108h780 l4 28q2 25 -12.5 53.5t-37 54.5t-49 44t-46.5 23q-20 6 -74.5 19t-116 26.5t-117 26t-77.5 16.5q0 2 -1.5 6t-1.5 6q2 18 21.5 34.5t43.5 37t44 47t25 61.5q-74 -18 -144.5 -44t-128 -64.5t-96.5 -95t-47 -136.5zM692 399l53 463l62 -45l-53 -463z" />
<glyph unicode="e" horiz-adv-x="1007" d="M201 309q-1 -11 -1 -22q0 -49 28 -99q36 -60 96 -104t132 -66q42 -12 81 -13q30 0 59 7q25 6 74 40t110.5 81t126 103.5t118.5 107.5t89 92t37 58q2 37 -39 36q-16 0 -38.5 -7t-43.5 -17q-39 -16 -72.5 -34.5t-80.5 -31.5q-27 -8 -72 -8q-27 0 -55.5 5t-51 15.5t-36 28 t-9.5 41.5q4 49 51.5 92t113 85t137 83t126.5 88h-370q8 -12 14 -14q8 -10 18.5 -30.5t8.5 -22.5q-2 -14 -31 -34.5t-51.5 -35t-26.5 -16.5l19 153h-398v-6zM328 973h837q4 10 6.5 19t4.5 20l4 43l-199 282q-2 2 -27.5 6.5t-38.5 8.5l-18 -4q-37 -10 -110.5 -48 t-157.5 -92.5t-167 -116t-134 -118.5z" />
<glyph unicode="f" horiz-adv-x="819" d="M213 182q-4 -8 6 -28.5t21 -24.5q20 -16 62 -36.5t84 -39t74 -31t34 -12.5l67 17l336 350l8 69q-25 -6 -44 -17t-36.5 -22.5t-35 -20.5t-37.5 -13l-21 -6q-8 0 -19.5 10t-11.5 14l48 400q2 8 14 21t20 17q14 4 41 16.5t58 24.5h-578q-8 -18 -13 -35.5t-7 -35.5 q-4 -35 6 -51.5t53 -24.5l-49 -432q-4 -2 -16.5 -17.5t-26.5 -35t-25.5 -36t-11.5 -20.5zM346 1337q-3 -19 -3 -37q0 -20 4 -40q7 -35 18.5 -69t18.5 -70q4 -19 4 -40q0 -18 -3 -37q-4 -20 -10 -37.5t-17 -33.5h646q2 6 2 14q3 21 3 37q0 20 -5 34q-7 23 -30 30q-15 5 -36 5 q-13 0 -28 -1q-40 -5 -97 -15l6 62q29 -20 55.5 -17.5t67.5 13.5q119 31 131 137q1 8 1 16q0 90 -87 131q55 35 74.5 72t25.5 84q-102 -25 -180 -46.5t-146.5 -50t-135 -71.5t-148.5 -113q-28 48 -89 48q-19 0 -42 -5z" />
<glyph unicode="g" horiz-adv-x="1007" d="M174 -14q-2 -17 -2 -32q0 -48 24 -74q33 -34 88 -42q25 -4 53 -4q34 0 73 6q69 10 133 27q92 23 189 65.5t179 105t138.5 143.5t68.5 179q4 33 1 57.5t-12 47t-25.5 46.5t-41.5 52l35 307h-397l-33 -284q-2 -18 -27.5 -33.5t-44.5 -20.5l39 338h-364l-55 -483 q-4 -33 7 -62.5t33.5 -51t52.5 -31.5q16 -4 33 -4q16 0 33 4q41 10 66.5 23.5t51.5 31.5t59.5 44t93.5 60l16 5l18 4q6 -12 21.5 -42t33 -64t33 -64.5t21.5 -42.5q-2 -6 -1 -15.5t-1 -15.5q-6 -41 -31.5 -69.5t-59.5 -50t-72 -34t-69 -18.5q4 28 4 55q0 17 -2 34 q-4 42 -24.5 69.5t-59.5 37.5q-15 5 -36 5q-28 0 -66 -9q-49 -12 -80.5 -28.5t-51 -41t-29 -56t-13.5 -74.5zM260 973h365l4 31l63 -17l-2 -14h395l11 84q6 6 17 21.5t23.5 31.5t22.5 32.5t15 22.5l4 6q2 8 1 15.5t-1 9.5q-2 8 -12.5 13t-14.5 12q-20 6 -70.5 23.5 t-106.5 38t-106.5 37.5t-68.5 23q-2 0 -14.5 -2t-18.5 -4q-16 -4 -60 -29.5t-100.5 -63.5t-118 -83t-111.5 -84t-83 -67.5t-33 -36.5z" />
<glyph unicode="h" horiz-adv-x="991" d="M231 266v-8q0 -30 25 -54q29 -28 67.5 -48.5t78.5 -30.5t60.5 -6t49.5 22.5t59.5 43t61.5 49t53 38.5v-20q0 -12 -1 -27.5t-1 -29.5v-19q-10 -78 -33.5 -123t-59.5 -80.5t-83 -73.5t-102 -102q8 -27 35.5 -23.5t60.5 11.5q86 20 176 79.5t169 137.5t138 166t86 168 q4 20 18.5 86.5t31 146.5t30.5 155t18 114v12t-2 20h-401l-49 -424l-45 -8l49 420l12 12h-385l-61 -524q-39 -23 -45 -40t-11 -40zM311 1317q-3 -26 -3 -51q0 -48 12 -96q20 -72 49 -121l-11 -76h797q-4 18 -4 35v28q-2 6 -8 27.5t-17.5 48.5t-26 55.5t-31.5 48t-37.5 25.5 t-41.5 -10l-248 -197q0 14 1 50t6 57q6 51 15 99t31.5 89t65.5 76t117 61v9l4 8v22q-10 18 -31 27l-28 -8q-23 -4 -42.5 -8.5t-41.5 -10.5l-27 -6q-66 -16 -114 -33.5t-90 -42t-84 -61.5t-93 -92q-28 20 -50 38q-14 12 -39 13q-14 0 -30 -4z" />
<glyph unicode="i" horiz-adv-x="724" d="M287 811q-10 -10 1 -27.5t25 -25.5q10 -4 40 -9t42 -1l-63 -558q-2 -23 18.5 -52t51 -57t65.5 -44.5t59 -9.5q29 8 85.5 50t112.5 94t99 103.5t45 77.5q1 8 1 14q0 37 -36 37q-24 0 -65 -16q-2 10 -3 25.5t-1 38.5q0 33 1 73.5t2 79.5t2 70t3 45q4 57 31.5 90t54.5 61 h-516zM440 973h443l-195 145q25 25 51.5 50.5t49 52t40 56t21.5 60.5q4 33 -11.5 61.5t-43 47t-62.5 26.5q-18 4 -36 5q-17 0 -35 -4q-35 -8 -67 -29t-58.5 -47.5t-43 -58t-20.5 -62.5q-2 -20 1 -50t12.5 -59.5t24.5 -52t38 -29.5z" />
<glyph unicode="j" horiz-adv-x="991" d="M227 231q8 -43 50 -84t92.5 -74.5t96.5 -58t62 -37.5l9 3q-8 -6 -9 -17q43 10 116 48t156 92.5t163.5 120t140.5 128.5q0 98 3 187.5t17 199.5l4 64l9 67h-328l-57 -505l-410 -15q-2 -4 -16.5 -17.5t-24.5 -23.5l-70 -49l5 -1q4 -1 7 -2t1 -4t-17 -7q2 -8 1 -12z M766 1083q-4 -29 7 -46t56 -1l-8 -63h328l6 39l8 71q6 6 17.5 21.5t24 34t23.5 35t17 24.5l1 6q1 6 1 8q4 0 -24.5 20.5t-64.5 45.5t-64.5 46.5t-26.5 23.5q6 8 26.5 30.5t44 49t45 50t29.5 33.5l4 11q3 12 1 22q2 23 -4.5 49.5t-20.5 47t-36.5 31.5t-51.5 5 q-20 -4 -52 -22.5t-61.5 -44t-51 -54t-21.5 -55.5q0 -10 5 -35.5t13 -54.5t16.5 -54.5t12.5 -33.5l-191 -207q-4 -4 -5 -15t-3 -18z" />
<glyph unicode="k" horiz-adv-x="1017" d="M188 252q-1 -5 -1 -10q0 -28 29 -52q34 -28 81 -46.5t95 -26.5q27 -5 47 -5q15 0 26 3q55 14 105.5 32.5t111.5 55.5l-272 -410q4 -29 34.5 -25.5t59.5 11.5q84 31 159.5 88t144.5 131t133.5 160t123.5 172q10 12 27.5 54t37 96.5t36.5 114.5q18 59 25 111q4 28 3 51 q0 19 -2 35q-6 34 -31 39q-129 14 -212 20.5t-140 10.5l8 8h-465l-61 -524q-33 -20 -65.5 -46t-37.5 -48zM322 1319q-3 -24 -3 -48q0 -47 11 -97q16 -74 43 -125l-11 -76h566l301 278q-14 25 -45 31q-17 3 -36 3q-16 0 -32 -2q-37 -5 -72.5 -20.5t-58.5 -33.5l-246 -195v19 q4 20 4 32t5 33l2 23q6 55 14 102t31.5 87t66.5 74t117 62q-2 8 1 12.5t3 8.5q0 2 -1 10l-1 8q-4 10 -14.5 17.5t-18.5 7.5q-10 -4 -26.5 -6t-42.5 -8q-20 -6 -38 -8.5t-26 -4.5q-66 -16 -114 -34.5t-90 -44t-84 -62.5t-95 -90q-16 23 -40 40q-15 11 -38 11q-15 0 -32 -4z M627 266l55 416q41 -46 46 -98q2 -24 2 -47q0 -29 -3 -58l-6 -65q-4 -23 -24.5 -63t-69.5 -85z" />
<glyph unicode="l" horiz-adv-x="722" d="M219 223q-6 -12 5.5 -29.5t27.5 -32t33.5 -24.5t23.5 -10q8 -8 35 -23.5t57.5 -33t57 -30.5t37.5 -17q6 6 32.5 20t38.5 27l293 249q0 2 3 13.5t5 19.5q4 33 -7 41t-31.5 4t-46 -14t-50.5 -16l58 503h-431l-65 -567q-14 -10 -39 -37t-37 -43zM346 1305l23 -84 q0 -29 10 -69t8 -48l-16 -131h432l45 393q2 25 22.5 34t45 24.5t48 44t31.5 92.5q-80 -18 -154.5 -56.5t-140 -78.5t-118 -73.5t-84.5 -41.5l-19 -4l-96 36q-2 2 -17.5 1t-17.5 -1q-2 -4 -2 -20v-18z" />
<glyph unicode="m" horiz-adv-x="1617" d="M227 68q6 -10 26.5 -30t35.5 -30q4 -4 14 -8t23 -18q37 -25 71.5 -49.5t44.5 -28.5h4q10 0 13 2q35 8 66.5 39.5t64.5 67.5t68.5 68t78.5 42q35 8 59.5 -9.5t47.5 -39.5q22 -22 46 -40q16 -12 38 -12q11 0 24 3q31 8 75 38.5t85 72.5t71.5 88t37.5 85q4 29 -1.5 50.5 t-27.5 48.5l55 462h-397l-64 -563l-67 -16l65 579h-520q-4 -4 -7 -8l-3 -4q-8 -23 1 -39t24.5 -28.5t33 -17.5t29.5 -3l-66 -586q-10 -12 -22 -41.5t-23 -40.5l-2 -20zM352 973h908q9 23 36 31q18 4 30.5 0.5t21.5 -0.5l-5 -31h412l19 145q8 10 23 41t20 45l2 17v18 q2 2 -9.5 11.5t-19.5 17.5q-12 6 -42 29.5t-63.5 49t-64.5 49t-45 29.5q-2 0 -6 2.5t-6 2.5q-6 -2 -13 -8l-8 -5q-16 -12 -51 -50t-76 -79t-81 -75.5t-66 -41.5q-10 -2 -14 -1l-3 1l-149 140l-6 2q-6 2 -9 0q-8 -2 -15 -6l-7 -4q-23 -10 -70 -52.5t-96 -87.5t-87 -78.5 t-40 -27.5l-149 137l-68 -16l-21 -22q-22 -21 -52.5 -52t-66.5 -67t-63 -64zM1268 322q-2 -29 19.5 -62t53 -58.5t64.5 -42t53 -12.5q31 8 82 47t100.5 88.5t86 97.5t38.5 75q2 2 0 10l-2 8q-8 12 -29.5 30.5t-31.5 26.5l41 340h-412z" />
<glyph unicode="n" horiz-adv-x="1361" d="M211 147q-4 -12 1 -23t14.5 -21.5t20.5 -18.5t19 -12l217 -127l35 8q2 0 36 28.5t80 68.5t95 83t82 72l37 37l2 14l2 18q-2 6 -11.5 27t-15.5 27l64 542h-631q-2 -29 19.5 -31.5t46 0.5t45 4t18.5 -22l-63 -557q-6 -4 -23.5 -20.5t-36 -36t-35 -37t-18.5 -23.5zM317 973 h607l10 10l27 -10h499l15 112q10 6 23 20.5t24.5 31t20.5 32t11 25.5q-2 2 -23.5 19.5t-37.5 25.5l-127 59q-6 0 -25.5 13.5t-40 30t-37 30.5t-18.5 17l-6 -1q-6 -2 -8 -2q-43 -10 -93.5 -49t-101.5 -87t-100 -95t-90 -74q-16 25 -38 55.5t-50.5 56.5t-63.5 39q-20 7 -42 7 q-17 0 -36 -4l-16 -4q-35 -25 -73 -55.5t-74.5 -64.5t-70.5 -69.5t-65 -68.5zM897 225q-4 -25 19.5 -51.5t57.5 -48t69 -33.5t53 -8q10 4 20 10t14 6l293 252q35 33 53.5 48.5t24.5 31.5q4 8 4 12q0 6 4 19v9q1 33 -27 43q-32 11 -71 13l39 342h-479z" />
<glyph unicode="o" d="M180 186q-2 -23 24.5 -45t70.5 -44.5t99.5 -41t111 -31t103.5 -15.5q13 -1 25 -1q31 0 52 6q8 2 19 6l11 3q6 4 33 27.5t57.5 52t58 53t36.5 30.5q98 68 165.5 110t112.5 76t70.5 66.5t42 80.5t27 119t22.5 181l4 45v6h-467l-51 -467q-23 -4 -45.5 -0.5t-20.5 21.5 l52 446h-482l-67 -598q-33 -8 -45.5 -25.5t-16.5 -39.5zM356 973h449l2 8q4 -2 6 -4t6 -4h516q0 8 4 28l7 48q-10 49 -30 101t-52.5 96t-77.5 73t-105 29q-10 -8 -40.5 -30t-66.5 -45.5t-66.5 -44t-39.5 -24.5q-31 -18 -99.5 -49t-146 -64.5t-152.5 -65.5t-114 -52z" />
<glyph unicode="p" horiz-adv-x="978" d="M190 301q-4 -29 5.5 -46t42.5 -9q12 2 22 10t21.5 18.5t22.5 19.5t28 13q2 2 14 2q16 0 19 2q-2 -27 -4.5 -78t-2.5 -110t5.5 -118.5t17.5 -105.5t35 -73q17 -21 42 -21q7 0 15 2q20 6 29.5 13.5t15.5 20t12.5 33t22.5 54.5q2 8 16.5 50t30.5 91.5t31.5 93.5t19.5 56 q2 6 38 35t89 66.5t113.5 81.5t112 84t86 70t34.5 40l31 274h-330l-28 -258l-62 52l25 206h-375q4 -23 5 -46t-1 -52q-8 -61 -37.5 -114.5t-62.5 -105.5t-60.5 -104.5t-33.5 -109.5zM349 1034q3 -33 9 -61h416l35 39l31 -25l-2 -14h329l25 198q0 12 -11.5 42t-29.5 60 t-42 51.5t-48 14.5q-23 -6 -67 -37.5t-89 -68.5t-78.5 -65.5t-35.5 -28.5q-27 55 -69 99t-112 54l74 86q-2 16 -13.5 21.5t-25.5 3.5t-30.5 -7t-28.5 -7q-111 -27 -167.5 -97.5t-68.5 -181.5q-2 -25 -2 -46q0 -16 1 -30z" />
<glyph unicode="q" horiz-adv-x="980" d="M196 448v-13q0 -49 6 -95q7 -53 29.5 -91t62.5 -55q20 -9 47 -9q26 0 58 8q35 8 61.5 33.5t52.5 55t54.5 56.5t67.5 37q12 0 18 2q-2 -18 1 -63.5t11.5 -100.5t21.5 -113.5t31.5 -105.5t41 -73.5t51.5 -18.5q20 4 43 43t45.5 95t43 123.5t37.5 129t29.5 109t18.5 65.5 q4 20 11.5 63t16.5 98.5t19 119t21 122.5h-420l-39 -323q-23 -4 -45.5 -2t-18.5 22l37 303h-358q-14 -41 -22.5 -94t-16.5 -129q-4 -37 -10 -90t-7 -109zM313 973h310v2q10 4 25.5 3t25.5 -5h438q6 41 11 72.5t7 48.5q33 16 37 32q9 38 9 39q0 32 -50 59q-51 29 -119.5 49.5 t-134.5 30.5q-41 5 -69 5q-17 0 -29 -2l-16 -4l-109 -89q-68 -47 -120 -81.5t-93 -62.5t-70.5 -50.5t-52.5 -46.5z" />
<glyph unicode="r" horiz-adv-x="1105" d="M223 211q-14 -14 12.5 -34.5t74.5 -42t108.5 -43t117 -38t97.5 -26t49 -7.5q6 2 23.5 7.5t25.5 7.5q119 104 230.5 213.5t218.5 226.5q0 2 3 12.5t5 18.5q4 29 -6.5 44t-42.5 7q-29 -6 -50.5 -21.5t-42 -34t-43 -33.5t-53.5 -22q-6 -2 -24.5 -7t-37 -8t-32.5 1t-10 21 l49 417h-631q2 -29 27.5 -34t55.5 -6t53.5 -4t21.5 -25l-49 -434zM317 973h981q2 4 2 6q1 2 3 4l3 13q3 12 5 28q4 18 6 35.5t4 32.5q4 35 4 67q-1 71 -19 123q-26 76 -118 123l-264 -272l-33 -9q-35 37 -57.5 61.5t-45 42t-55.5 28t-90 18.5q-16 -12 -52 -47t-76 -74 t-77 -74t-55 -47q-20 -20 -36.5 -34.5t-29.5 -24.5zM999 870l52 -67l30 -23h6q10 0 15 2q2 0 7 3t7 3q14 4 41 29t55 53h-213z" />
<glyph unicode="s" horiz-adv-x="931" d="M197 295q0 -6 1 -13l1 -6q0 -10 12 -40.5t28.5 -65.5t33 -64.5t24.5 -37.5q0 -4 9 -21.5t22.5 -37t30 -34t32.5 -10.5q8 2 11.5 3t11.5 3q27 16 91 53t138 78t139.5 78t91.5 51q20 14 50 37t58 48.5t48.5 54t24.5 57.5l28 203l-442 239h-367l-14 -141l272 -190 q-8 2 -28 -4q-23 -6 -72 -33t-100 -61.5t-91 -73.5t-44 -72zM313 973h789q27 31 31 59v21q-8 2 -23.5 30.5t-32 64.5t-30 68.5t-17.5 43.5q-4 2 -11 20t-18.5 38.5t-27 36t-35.5 9.5q-6 -2 -9 -4t-11 -4q-29 -18 -93.5 -56t-137.5 -79t-138.5 -78t-93.5 -53 q-35 -23 -74 -52.5t-68 -64.5zM582 504l139 -92l-76 -27q-10 20 -23.5 55t-39.5 64zM719 870q17 -34 43 -62q19 -20 43 -20q10 0 20 3q20 4 63.5 26t90.5 53h-260z" />
<glyph unicode="t" horiz-adv-x="815" d="M219 213q10 -41 47 -69.5t85 -50t96.5 -39t78.5 -36.5q20 10 58.5 36t83.5 62t93 76.5t88 80.5t65.5 74t27.5 56q2 31 -19.5 35t-51 -4t-59.5 -21.5t-42 -15.5l55 473h-522l-8 -8q0 -2 -4 -13t-2 -20q-1 -7 -1 -13q0 -37 22 -51q24 -17 69 -34l-49 -430 q-4 -10 -21.5 -25.5t-37 -30t-27.5 -19.5zM403 973h619q14 24 20 69q6 39 -18 56q-22 16 -56 20q-17 2 -35 2t-37 -2q-38 -4 -58 -6l45 373l-80 41q-53 -88 -98.5 -162t-92.5 -139.5t-97 -127t-112 -124.5z" />
<glyph unicode="u" horiz-adv-x="1361" d="M213 178q12 -41 54 -78t91.5 -65.5t95.5 -50t64 -31.5l19 4q43 10 84 43t82.5 72t84.5 72.5t91 45.5q19 5 36 5q21 0 39 -9q30 -16 58 -38t60 -38q19 -10 42 -9q17 0 37 5q35 8 93.5 48.5t114.5 90.5t99 101t47 84q2 37 -18.5 41t-47 0t-48 -5t-17.5 26l45 378h-463 l-53 -464q-4 -14 -32.5 -35t-51 -35t-26.5 -17q2 16 7 48t11 73q4 41 10 90.5t13 98.5q8 72 14 133t10 108h-598q-4 -12 -4 -20q-4 -33 7 -42t30.5 -6t45.5 13t50 16l-59 -534l-41 -41q-8 -4 -35 -20.5t-35 -24.5l-2 -6q-2 -6 -2 -8q-2 -4 -2 -13v-6zM348 973h516 q0 45 -11 98t-34.5 97t-60.5 68q-25 16 -56 17q-15 0 -32 -4q-8 -2 -18.5 -5t-18.5 -5q-14 -12 -50 -46t-77 -74t-78 -74.5t-53 -47.5q-18 -18 -27 -24zM913 1067q4 -10 17.5 -42t25.5 -52h476l8 71q43 45 62.5 74t25.5 70v20q-2 8 -3 10.5t-8.5 6.5t-22.5 13t-48 32 q-25 12 -55.5 29.5t-59 36t-51.5 32.5t-33 21q-68 -86 -149.5 -158t-179.5 -131z" />
<glyph unicode="v" horiz-adv-x="1167" d="M213 229q-4 -18 22.5 -43.5t70.5 -51t98.5 -50.5t104.5 -44.5t89 -28.5t53 -5q2 2 15.5 9.5t32 19.5t24.5 18l145 125q47 41 124 79t151 82t132 97t68 127l35 307h-463l-51 -452l-63 43l47 409h-494q6 -8 12.5 -15t16.5 -15l-61 -525l-16 -9q-15 -9 -34.5 -23.5 t-38 -29.5t-20.5 -24zM303 1012q0 -20 2 -39h561q12 12 32 22.5t34 14.5l-4 -37h463l20 176q0 6 -2 18.5t-6 25.5t-9 24.5t-8 17.5q-12 16 -40.5 39.5t-59.5 45t-54.5 36t-25.5 14.5l-37 -8l-309 -238l-225 168h9q34 0 64 14q34 16 58.5 41t39.5 57t19 64q-90 -23 -177 -51 t-158.5 -74.5t-121 -114t-61.5 -165.5q-4 -29 -4 -51z" />
<glyph unicode="w" horiz-adv-x="1527" d="M221 100q-4 -16 30 -50t78 -65.5t86 -55t54 -19.5q6 2 18.5 8t18.5 8l225 232l11 4q10 4 16 6q24 6 47 6q28 0 52 -10q44 -18 86 -41t84 -41q25 -11 53 -11q20 0 42 5q16 4 65.5 36.5t114 82t135 108.5t130 116.5t100.5 105.5t45 77l31 268h-400l-47 -409q-10 -2 -20 -3 t-21 -1q-23 0 -22 28l45 385h-408l-61 -532l-64 -41l66 573h-520q14 -63 76 -104l-64 -541q-23 -16 -37 -28.5t-23.5 -25.5t-14.5 -29.5t-7 -41.5zM289 973h1001l2 18q4 29 30 44.5t44 19.5l-10 -82h397l25 207q1 5 1 10q1 28 -17 64q-20 44 -54 83t-70 63q-29 20 -52 20 q-6 0 -11 -1q-41 -10 -76 -43t-67.5 -69.5t-64.5 -67.5t-69 -39q-2 0 -9 1l-7 1q-47 20 -67.5 43t-36.5 39t-36 22q-8 3 -19 3q-18 0 -46 -6q-80 -20 -141.5 -79t-130.5 -139q-18 27 -45 45.5t-57.5 32t-61.5 24.5t-55 21l147 103l1 5q1 5 1 7q4 31 -10 42t-37 11 q-20 0 -43.5 -7t-40.5 -11q-283 -68 -313 -367q-2 -6 -2 -18z" />
<glyph unicode="x" horiz-adv-x="1042" d="M115 -12q-3 -33 -3 -63q0 -73 20 -123q30 -70 91.5 -104t147.5 -36h13q80 0 171 23q68 16 135.5 42.5t122.5 66.5t93 97.5t48 135.5q2 15 2 28q0 79 -77 79q-22 0 -50 -7q-53 -12 -87.5 -41t-57 -66.5t-35 -84t-18.5 -91.5q-4 -2 -21.5 -8t-38 -12t-38 -10t-21.5 -4 q-41 -10 -92 -16q-19 -2 -38 -1q-30 0 -56 5q-43 9 -69 39q-18 21 -18 57q0 15 3 34q4 63 35.5 116.5t105.5 72.5q33 8 61.5 5t55 -8t53.5 -9.5t59 4.5q16 4 55.5 32.5t86.5 70.5t97 91t93 94t70.5 80t29.5 49q0 2 -2 8l-2 7q-2 8 -11 18t-17 10l-17 -4q-41 -12 -77.5 -38.5 t-83.5 -39.5q-20 -4 -42 -5t-18 28l41 360h-407q6 -16 4 -47l-47 -411q-111 -100 -173.5 -200.5t-76.5 -223.5zM225 870q11 -18 27 -18q18 -4 39.5 3t44.5 15h-111zM281 973h876q23 29 36 60.5t17 62.5v10q0 26 -8 68q-10 51 -30 100t-50 83q-23 27 -51 27q-7 0 -14 -2 q-8 -4 -13 -6l-4 -2l-229 -256q-18 20 -45 49t-58 53q-32 24 -70 38q-22 8 -45 8q-17 0 -34 -4q-8 -4 -19 -8l-12 -5zM899 870q21 -20 55 -20q19 0 41 6q10 2 20.5 6t20.5 8h-137z" />
<glyph unicode="y" horiz-adv-x="911" d="M188 211q-1 -7 -1 -14q0 -33 15 -61q19 -34 50 -58.5t68 -35.5q23 -7 44 -7q12 0 23 2q2 0 8 3l6 3q12 10 44 36.5t67 57.5t66.5 58.5t44.5 40.5q2 -8 0 -25.5t-5 -38.5q-2 -10 -2 -18v-19q0 -16 -4 -20q-8 -74 -24.5 -124t-45 -95.5t-72.5 -93.5t-110 -115 q0 -16 13.5 -21.5t31 -3.5t34 6t24.5 6q37 10 89 42t108.5 77t111.5 99.5t100.5 111.5t76 112.5t36.5 100.5l74 653h-342q8 -29 8 -62q0 -16 -2 -34l-14 -139l-4 -39q-4 -29 -10.5 -52.5t-10.5 -51.5l-4 -37q-25 -47 -72 -60l56 469l4 6h-420q8 -72 22 -142q6 -35 6 -75 q0 -38 -6 -80q-6 -49 -17 -94t-23.5 -89t-23.5 -88t-18 -91zM244 973h825l12 96q-4 23 -14 49.5t-33 36.5l-96 86h-14q-8 -2 -14 -4l-7 -2l-182 -152l-72 -49l-151 133v19q0 12 13 25.5t31.5 27.5t38 29.5t31.5 27.5q-16 43 -34.5 51.5t-59.5 -1.5q-129 -33 -192.5 -128.5 t-79.5 -220.5q-2 -8 -2 -24z" />
<glyph unicode="z" horiz-adv-x="851" d="M170 36q10 -70 45 -116t99 -64q26 -7 58 -8q46 0 103 15q111 27 198 86t149.5 139t100.5 171t48 179q3 29 3 56q0 35 -6 66q-10 54 -25 100q-15 44 -29 84q-10 30 -10 61q0 9 1 18q2 4 6 11l4 8l27 28h-399q-20 -37 -60.5 -58t-81.5 -41.5t-72.5 -44.5t-37.5 -62 q2 -8 4 -19.5t0 -13.5q-2 -4 2 -16.5t8 -27t8 -26.5t2 -14q0 -6 -18 -38t-42 -66.5t-42 -66.5t-18 -38q-2 -8 -9.5 -44t-11.5 -71l-4 -39q-5 -39 -5 -76t5 -72zM334 973h131l67 16q6 0 13 -16h336q6 45 15 115q5 37 5 73q0 31 -4 61q-8 64 -43 102q-23 24 -65 24 q-22 0 -50 -7q-6 -2 -17 -6t-13 -4q-16 -12 -53.5 -41.5t-78 -63.5t-76.5 -65t-48 -43q-10 -10 -30 -27.5t-38 -36t-31.5 -32.5t-15.5 -21q-10 -16 -4 -28zM442 37l43 371q2 14 8.5 47.5t18.5 68.5t31.5 64t48.5 35l-68 -568q-4 -25 3.5 -36t13.5 -15t4 -6t-25 -8 q-41 -10 -62.5 -5t-15.5 52z" />
<glyph unicode="{" horiz-adv-x="563" d="M66 43q4 -20 14 -48t33 -38l98 -86l5 -1t9 1q4 0 11 4l8 4l182 150l63 43l-43 133q-14 25 -20 58.5t-2 74.5q16 143 29.5 277.5t33.5 254.5h-327zM188 973h320q35 166 99 283.5t181 166.5q-2 16 -16 21.5t-30.5 3.5t-33 -6t-24.5 -6q-49 -14 -120.5 -62.5t-143.5 -114 t-135.5 -141.5t-96.5 -145z" />
<glyph unicode="|" horiz-adv-x="739" d="M309 133q-4 -33 15.5 -81t49 -92t63.5 -72.5t61 -22.5q20 6 55 33.5t74 67.5t80 89t74.5 97.5t57 90.5t27.5 70q12 111 -104 68q0 25 2 92.5t5 144t6 148t7 104.5h-387zM313 1038q0 -16 3 -36l3 -21q1 -4 9 -8h481q14 37 33.5 62.5t38 49t31 48t16.5 57.5q2 6 0 16l-2 11 q-33 72 -98.5 140t-157.5 128q-111 -123 -179.5 -200t-107.5 -123t-53.5 -68.5t-16.5 -36.5v-19z" />
<glyph unicode="}" horiz-adv-x="563" d="M203 0l55 -12l158 -68l6 -1t12 1q2 2 10 5l7 3l122 140q27 23 44.5 57t29.5 59l78 686h-330q-6 -123 -24.5 -263t-36.5 -292q-10 -82 -55 -151zM213 1284q51 2 87 -19.5t57.5 -62.5t31.5 -99.5t10 -129.5h338l8 61q8 68 -35.5 130.5t-111.5 107.5t-143.5 66.5t-130.5 9.5 q-8 -2 -25.5 -5.5t-36 -10.5t-33 -18.5t-16.5 -29.5z" />
<glyph unicode="~" horiz-adv-x="1177" d="M240 573q-4 -4 26.5 -13t80.5 -18.5t110.5 -18.5t116 -14t96.5 -4t51 11q47 45 93 84t75 70l155 -84l345 276l-11 8h-518q-31 -35 -54.5 -66.5t-45.5 -58.5l-174 105z" />
<glyph unicode="&#xa1;" horiz-adv-x="724" d="M211 197q-4 -29 28.5 -62t80 -61.5t96.5 -45t78 -10.5q27 6 67.5 41t79.5 80t67.5 89t32.5 69l68 573h-457l-22 -24l-6 -8q-5 -7 -5 -13q-4 -29 11.5 -43t34 -28.5t32 -37t6.5 -71.5q-4 -20 -14 -70.5t-22.5 -106.5t-22.5 -106.5t-12 -70.5q-115 -16 -121 -94zM449 973 h487q6 18 2 20l-211 166q25 18 47.5 52t41 71t28.5 70.5t10 52.5q8 68 -36 102.5t-113 18.5q-37 -8 -77 -34t-74 -60.5t-56.5 -73.5t-24.5 -74q-6 -35 4 -58.5t28.5 -42t42 -31.5t44.5 -26z" />
<glyph unicode="&#xa2;" horiz-adv-x="974" d="M211 340q-2 -23 14.5 -42t45 -36.5t65.5 -30t78 -20.5q0 -31 12 -70t29.5 -71.5t37 -54t34 -17.5t42 31.5t58 68.5t59.5 88t49 90q43 27 93.5 59t96.5 60.5t84 53t56 36.5q33 23 48 33t22 25q2 2 2 8q0 8 2 14q2 16 -6.5 27.5t-40.5 3.5q-53 -12 -95.5 -33.5t-95.5 -36.5 q-20 -6 -47 -10t-54.5 -5t-54 0t-45.5 7q0 61 7.5 134t13.5 120l4 51l2 6q20 -27 50 -50t83 -11q14 4 41 13.5t58.5 23.5t64.5 30.5t63 34.5h-757q-29 -23 -47.5 -44.5t-20.5 -37.5zM439 990.5q1 -7.5 1 -17.5h742q-6 8 -22.5 27.5t-35 42t-35 42t-22.5 25.5q-6 0 -17.5 10 t-24.5 22.5t-30.5 22t-38.5 4.5q-2 0 -7 -3t-7 -3q-23 -10 -52.5 -22.5t-68.5 -30.5q-23 59 -60.5 117.5t-92.5 113.5q-70 -96 -114 -156.5t-68.5 -97t-34 -54t-9.5 -29.5q-4 -6 -3 -13.5z" />
<glyph unicode="&#xa3;" horiz-adv-x="819" d="M190 -6q94 20 148 108q74 -31 135.5 -42t126 -8t139 19.5t179.5 41.5q6 47 -7.5 75.5t-60.5 38.5q53 47 87 96.5t38 102.5q12 109 -109 78q-39 -10 -65.5 -19.5t-61.5 -44.5l6 62q61 18 101.5 32.5t67 34t40 48t19.5 75.5q-2 10 2 39t2 39q-10 -4 -40 -7t-62.5 -6 t-62.5 -5t-38 -2q-8 -2 -17 6t-12 16l11 98h-398l-26 -229q-47 -29 -61.5 -51.5t-18.5 -57.5q-4 -33 5 -57t19.5 -46.5t19.5 -48.5t5 -58q-4 -20 -8 -41t-12 -41q-23 -59 -54.5 -123t-36.5 -123zM324 1149q0 -4 8 -16.5t18 -24.5t19.5 -22.5t13.5 -10.5l-12 -102h397l25 201 q0 2 13 18t23 20l19 5q18 4 34.5 2t34 -4.5t36 -3.5t42.5 6l9 67l-275 203l-67 -17q-4 0 -41 -29.5t-84.5 -70.5t-95.5 -83t-72 -66q-8 -6 -16.5 -16.5t-15.5 -22t-10 -20.5t-3 -13z" />
<glyph unicode="&#xa4;" horiz-adv-x="2263" d="M221 352l98 51l62 381l-76 -32zM395 535q16 -164 133 -134q18 4 39 13.5t43 21.5l2 66q-29 -12 -45 -18.5t-30 -10.5q-90 -23 -78 53q4 43 24.5 85t53.5 83q35 37 57 53.5t55 24.5q12 4 21.5 5t19.5 -1l21 94h-6q-285 -116 -308 -286v-25q0 -14 -2 -24zM698 535 q18 -59 125 -33q18 4 32.5 9t37.5 9q112 26 180 305q-4 12 -7 23.5t-7 21.5h-211q-125 -125 -150 -335zM784 653l4 27q63 129 134 147q47 10 65 -32q10 -4 10 -15v-12q0 -6 -2 -14q-4 -31 -13 -58.5t-36 -62.5q-80 -51 -110 -60q-57 -14 -52 80zM1096 563l57 25l23 186 q127 -151 225 -131l24 227h-75l-17 -112l-125 112h-84zM1364 973h74l6 47l-72 4zM1473 670l100 53l22 147h-77zM1540 973h72l22 129l-71 -31zM1636 735l80 21q35 49 56.5 75.5t54.5 34.5q49 12 82 -63l45 -6l6 73h-283q-29 -76 -41 -135zM1724 973h78l72 108l27 -108h69 l12 106q-18 111 -88 97q-14 -4 -24 -8.5t-29 -14.5q-35 -47 -63.5 -91t-53.5 -89zM2028 805l59 24l4 41h-57zM2042 973h61l6 39q10 -10 17.5 -19.5t17.5 -19.5h195l33 293h-66l-47 -269l-199 187zM2380 864l41 -37l39 43h-74zM2433 1014l57 4l82 291l-92 -2z" />
<glyph unicode="&#xa5;" horiz-adv-x="1167" d="M180 176q-4 -41 14.5 -74.5t48 -58.5t66.5 -36t68 -5q2 0 9 3l7 3q10 10 41 37t67 57.5t68.5 58t46.5 40.5q-2 -8 -3 -25.5t-3 -38.5q-2 -10 -3 -18t-1 -19v-22q-10 -72 -26.5 -122t-45 -95t-72.5 -93.5t-110 -115.5q0 -16 13.5 -20.5t31 -2.5t33.5 6.5t23 4.5 q57 16 142 76.5t167 141.5t142.5 168t70.5 156l10 103q39 4 54.5 7t23.5 7q74 53 125 80t80 67q2 4 -3 6l-5 3l-252 16l18 154q74 8 92 18q78 53 125 81t78 64q2 4 -2 6l-4 3l-266 18l6 55h-361q14 -27 20.5 -58.5t2.5 -72.5l-6 -47l-78 -41l20 178l39 41h-459 q2 -43 9.5 -81.5t13.5 -78.5t9 -82t-3 -91q-14 -98 -43 -184.5t-39 -176.5zM238 973h827l8 61q-4 20 -13 48t-34 38l-98 86h-15q-6 -2 -11 -4l-5 -2l-182 -151l-76 -52l-150 136v18q0 12 13.5 25.5t32 28t38 29.5t31.5 28q-18 43 -35.5 51t-58.5 -2q-63 -16 -110.5 -48 t-80 -77t-53 -99.5t-28.5 -113.5zM600 360l27 248q18 0 34.5 2t38.5 2l-6 -51q-4 -29 -9 -53.5t-9 -52.5l-4 -35q-25 -47 -72 -60z" />
<glyph unicode="&#xa6;" horiz-adv-x="739" d="M309 133q-4 -33 15.5 -81t49 -92t63.5 -72.5t61 -22.5q20 6 55 33.5t74 67.5t80 89t74.5 97.5t57 90.5t27.5 70q12 111 -104 68q0 25 2 92.5t5 144t6 148t7 104.5h-387zM313 1038q0 -16 3 -36l3 -21q1 -4 9 -8h481q14 37 33.5 62.5t38 49t31 48t16.5 57.5q2 6 0 16l-2 11 q-33 72 -98.5 140t-157.5 128q-111 -123 -179.5 -200t-107.5 -123t-53.5 -68.5t-16.5 -36.5v-19z" />
<glyph unicode="&#xa8;" horiz-adv-x="1052" d="M592 1497q-6 -35 8 -63.5t42 -49t63.5 -27.5t70.5 3q35 8 66.5 27.5t57.5 46t42 58.5t23 64q12 104 -39 138t-174 20q-27 -25 -54.5 -50.5t-50 -52t-38 -55t-17.5 -59.5zM1231 1653q-4 -33 10 -61.5t41 -48t61.5 -28t71.5 0.5q33 8 65.5 28.5t58.5 47t43 58t22 64.5 q10 100 -40 137t-175 23q-51 -47 -101.5 -103.5t-56.5 -117.5z" />
<glyph unicode="&#xa9;" d="M180 186q-2 -23 24.5 -45t70.5 -44.5t99.5 -41t111 -31t103.5 -15.5t77 5q8 2 19 6l11 3q8 4 35 27.5t57.5 52t57 53t35.5 30.5q98 68 165.5 110t112.5 76t70.5 66.5t42 80.5t27 119t22.5 181l4 45v6h-293l10 -18l1 -2t-1 -6q-2 -16 -23.5 -37t-49 -39t-53 -31.5 t-37.5 -15.5q-16 -4 -28.5 4t-21 22.5t-13.5 27.5t-11 20l-27 -217q-4 -25 23.5 -32t56.5 -7q10 0 18.5 1t16.5 3q23 6 45 18q20 14 47 20.5t27 -22.5q-4 -20 -10.5 -26.5t-34.5 -28.5q-14 -10 -45 -35t-65 -52.5t-64.5 -52t-42.5 -32.5l-6 -3q-5 -3 -11 -5q-23 -6 -55.5 3 t-62 27.5t-49 43t-15.5 48.5l37 326q4 29 35.5 54.5t56.5 41.5q2 0 2 2h-371l-67 -598q-33 -8 -45.5 -25.5t-16.5 -39.5zM356 973h518q16 10 30 17.5t22 13.5l8 2q12 4 22.5 -9.5t18.5 -23.5h360q0 8 4 28l7 48q-10 49 -32 101t-54.5 95t-76.5 72t-102 31q-8 -10 -39.5 -33 t-68.5 -45.5t-68 -42t-37 -23.5q-31 -18 -99.5 -49t-146 -64.5t-152.5 -65.5t-114 -52z" />
<glyph unicode="&#xaa;" horiz-adv-x="591" d="M428 973h227q12 12 23 16q6 2 20 -16h154q23 23 42 41t30 28q12 16 16 17q4 0 8 16q-4 8 -9 20.5t-13 10.5q-4 -2 -10.5 -8t-16.5 -8q-10 -4 -12 12t-2 28v23l6 43l2 16l4 41l6 56q0 10 5 25.5t10 31.5q12 16 29.5 25.5t19.5 27.5q2 16 -8.5 24.5t-25.5 11.5t-31.5 5 t-27.5 6q-27 12 -50 33t-54 12q-23 -4 -32 -14t-31 -27q-35 -25 -75 -48t-77 -51t-64.5 -61.5t-35.5 -76.5l-2 -19l-9 -65l-2 -21l-10 -81q-6 -47 -4 -74zM479 870q4 -4 6 -4q23 -23 47 -16q14 2 33 20h-86zM639 1030q0 16 1 27.5t1 23.5l6 54l10 104l5 18l4 46l2 10l6 26h6 q4 2 10 -5t12 -11l9 -6l-31 -248q0 -6 -11.5 -20.5t-17.5 -20.5l-4 -2h-4z" />
<glyph unicode="&#xab;" horiz-adv-x="972" d="M240 580q-6 -10 3 -50.5t27.5 -93.5t42 -112.5t45 -107.5t39 -77.5t23.5 -23.5l252 344l-252 127l285 284h-310zM451 973h233q-16 33 -37.5 66.5t-41 61t-36 43t-20.5 11.5zM711 707q-6 -10 3 -50.5t27.5 -94.5t42 -112.5t46 -106.5t40 -77.5t23.5 -23.5l250 342 l-252 127q16 14 63 60t99 99h-254zM854 973h301q6 6 12.5 13t10.5 11q10 10 4 37t-22.5 59.5t-38 68.5t-42 63.5t-37 44t-20.5 12.5z" />
<glyph unicode="&#xac;" horiz-adv-x="1079" d="M195 580q-4 -4 33.5 -8.5t99 -7.5t140.5 -5t157 -2q80 0 149.5 4t116.5 12l-119 -151l182 -195q6 -2 28 28t50.5 75t60 100t56.5 102.5t39 81t8 37.5q-29 16 -43 31.5t-31 28.5q35 27 60.5 51t50.5 57q2 2 -3 7l-5 5l-295 39h-264z" />
<glyph unicode="&#xad;" horiz-adv-x="628" d="M258 641q-4 -6 36 -20.5t98.5 -28.5t120.5 -24.5t101 -10.5q35 0 41 8q29 33 53.5 56.5t44 45t36 44t28.5 51.5q4 4 0 9l-4 5l-201 94h-94z" />
<glyph unicode="&#xae;" d="M180 186q-2 -23 24.5 -45t70.5 -44.5t99.5 -41t111 -31t103.5 -15.5t77 5q8 2 19 6l11 3q8 4 35 27.5t57.5 52t57 53t35.5 30.5q98 68 165.5 110t112.5 76t70.5 66.5t42 80.5t27 119t22.5 181l4 45v6h-266v-2q-2 -16 -5 -34.5t-3 -20.5q-2 -6 -14.5 -21.5t-28 -31 t-30.5 -28.5t-24 -15l-3 -3t-5 -3q-4 -2 -5 0l-1 2l-16 10l-60 76l-16 -21l-29 -231q0 -18 23 -12l30 8q33 8 47.5 27.5t47.5 27.5q29 6 24 -23q0 -4 -1 -6t-1 -6l-4 -6q-53 -59 -107.5 -113.5t-111.5 -103.5q-8 -2 -16.5 -5t-12.5 -3q-6 -2 -46 9t-84 26.5t-75.5 33 t-21.5 27.5l76 78l22 215q0 12 -12 13t-29 1q-14 0 -27.5 4t-9.5 23q4 23 14.5 34t45.5 42q4 4 14 13t23 19h-316l-67 -598q-33 -8 -45.5 -25.5t-16.5 -39.5zM356 973h586l47 51q41 -20 60 -51h286q0 8 4 28l7 48q-10 49 -32 101t-54.5 95t-76.5 72t-102 31 q-8 -10 -39.5 -33t-68.5 -45.5t-68 -42t-37 -23.5q-31 -18 -99.5 -49t-146 -64.5t-152.5 -65.5t-114 -52z" />
<glyph unicode="&#xaf;" horiz-adv-x="1095" d="M545 1546q-10 -4 53.5 3t163.5 20.5t222 30t231.5 34t189.5 31.5t96 23q133 59 214 93t128 72q8 4 1 5l-7 2l-659 -64z" />
<glyph unicode="&#xb0;" horiz-adv-x="614" d="M428 973h344q4 2 8 6q70 49 110 73.5t60.5 50t29.5 66.5t19 123l5 25q2 8 2 16v17v18t2 16l2 25q-6 23 -15.5 49.5t-25 49t-37 37t-51.5 11.5q-4 -2 -20.5 -13t-35 -23.5t-35 -22.5t-20.5 -12q-18 -10 -62 -29.5t-89.5 -40t-81 -36t-37.5 -19.5l-37 -338q-33 -6 -33 -35 l-2 -12v-2zM709 1096l32 276q12 -2 20.5 -14t8.5 -23l-29 -252q-10 -2 -20 0t-12 13z" />
<glyph unicode="&#xb1;" horiz-adv-x="806" d="M186 125q-6 -4 30 -5t93.5 0t127 4t132 7t108.5 9t56 12q78 53 125 79.5t76 67.5q6 4 3 6l-3 2l-377 23zM236 676q-4 -4 20.5 -6t66.5 -3t97 0t112 5l91 -258q0 -6 9 16.5t24.5 62t33 91t35.5 104.5q23 4 36 8t17 6q78 49 127 77t78 69q0 2 -3 5l-3 3l-195 12v2h-198z M643 973h139q-23 47 -35 78.5t-42 42.5q0 4 -5 -2l-6 -5z" />
<glyph unicode="&#xb2;" horiz-adv-x="507" d="M424 973h364q8 12 19.5 30.5t22 35t18.5 30.5t8 18l2 7q2 18 -14.5 29.5t-40 17.5t-46 7t-32.5 -1t-20 -12l176 176l6 84q4 29 -21.5 41t-48.5 16q-12 0 -43 4t-64.5 8t-63.5 8.5t-42 4.5h-8q-10 -4 -20.5 -16.5t-19.5 -27t-15 -24.5t-9 -10q-6 -8 -18 -28.5t-24.5 -44 t-22.5 -42t-14 -22.5v-9q-4 -18 13 -29.5t40.5 -17.5t47.5 -7t32 1q10 4 20 10l-178 -157zM475 870q12 -4 19 -4h41q25 0 50 1t52 3h-162zM578 1004l100 102q-16 -23 -26.5 -57.5t-20.5 -47.5zM614 1219q20 20 35 49.5t29 46.5l18 -25z" />
<glyph unicode="&#xb3;" horiz-adv-x="530" d="M420 973h389q59 59 70 106l39 324q2 14 -5.5 24.5t-19.5 17.5t-25.5 10t-26 5t-45 5t-69.5 6.5t-69.5 5.5t-47.5 2l-6 -2q-10 -2 -21.5 -14.5t-20.5 -26t-16 -24.5t-9 -11q-6 -10 -13.5 -24.5t-14.5 -31t-14.5 -31t-11.5 -20.5l-2 -8q-4 -29 32 -36t69 -7q16 0 36 4 q39 8 50.5 32t23.5 42l-14 -119l-51 10l-168 -118q-4 -4 40 -8.5t95 -4.5h63q-23 -27 -58.5 -46t-57.5 -25q-31 -6 -48.5 -3t-43.5 -3q-29 -8 -29 -31zM592 870q31 -12 47 -12q2 0 6 -1t12 1q10 2 27 12h-92z" />
<glyph unicode="&#xb4;" horiz-adv-x="493" d="M631 1566q-4 -7 2 -5q8 -43 42 -58.5t81 -40.5q6 -6 32.5 17.5t62.5 62.5t75 87t71.5 89t52 69t15.5 28l-242 90l-188 -332z" />
<glyph unicode="&#xb5;" horiz-adv-x="911" d="M131 10q-6 -68 38 -130t110.5 -108t142.5 -67.5t131 -7.5q8 2 24.5 5t35 10t32.5 18.5t19 29.5q-53 39 -89 68t-56.5 61.5t-26 78.5t5.5 118q0 4 3 21.5t5 37.5q4 20 8 39t4 25q10 -6 37 -19.5t56.5 -29t56 -27.5t37.5 -16l6 1t8 1q31 6 73 36.5t80.5 73.5t67.5 89.5 t33 82.5q6 45 4 86t-5 81t-5 83t4 92q6 66 24 127h-387l17 -16l-56 -469q-47 -10 -59 29l2 35q2 14 3 27t1 24q0 12 1 25.5t3 27.5l6 37l15 141q6 47 20 78q6 16 12.5 31.5t14.5 29.5h-357q0 -4 -1 -5t-1 -3zM297 973h735q20 57 39 114.5t29 116.5q6 61 -1 110.5t-31 82.5 t-67 44t-110 -3q-39 -10 -60.5 -28.5t-48.5 -72.5q8 -10 24.5 -16t32 -11t27 -12.5t11.5 -19.5q-2 -2 -3 -10l-2 -8l-192 -220l-64 19l-157 67l-21 -4q-2 0 -7 -2l-5 -2l-123 -141q-4 -4 -6 -4z" />
<glyph unicode="&#xb6;" horiz-adv-x="2787" d="M197 403l6 -90l200 -41l-129 -120q-6 -70 52 -58l292 19l-61 -74l-8 -70l485 80l-24 -94l55 -23l473 187l-12 -111l59 -4l381 272l100 -86l103 48l205 243q121 -43 188 -28q47 12 78 59l47 225l180 6q61 27 72 93v14q4 14 0 20h-74q16 -27 17 -49q-4 -12 -9 -20l-241 -25 l-47 -258l-242 12l-211 -268l-160 72l-401 -279l28 78l-53 62l-475 -203l68 139l-533 -113l170 146l-444 -17l219 144l-307 84l252 80l-115 133l-12 71l245 41l43 170h-71q-6 -29 -12.5 -61.5t-10.5 -71.5l-223 -32l-33 -115l99 -103zM623 973h301l213 246l137 -74l360 244 l37 -3l2 -108l506 192l-55 -139l510 125l-162 -143l424 12l20 -31l-22 -4l-199 -100l291 -76l12 -31l-245 -79q8 -10 15 -16.5t15 -14.5h70l-12 16l170 41l45 86q0 2 3 3t3 3q6 49 -234 80q137 49 146 137l2 11q2 6 1 9l-1 3l-367 2q78 37 88 127l-35 27l-454 -111l30 117 l-131 -21l-389 -162l-14 15l22 55l-65 43l-358 -250l-160 66q-47 -29 -107.5 -94.5t-146.5 -176.5l-201 21l-12 -4q-33 -8 -53 -43zM641 303l84 47l51 322l-61 -27zM788 457q16 -135 115 -111q18 4 31.5 11.5t36.5 17.5l4 55q-23 -8 -38 -12t-26 -8q-80 -18 -69 43 q6 63 69 145q53 53 93 66q14 4 21 5t19 -3l13 82q-250 -98 -266 -246v-21q0 -14 -3 -24zM1049 459q14 -49 108 -29q14 4 26.5 9t24.5 10q105 24 156 260q-12 102 -123 75l-18 -4v-2l-17 -4q-133 -115 -157 -315zM1124 559l2 25q57 113 109 127q39 8 57 -27q10 -4 9 -15.5 t-1 -21.5q-4 -25 -14 -50.5t-29 -51.5q-27 -23 -49 -34t-41 -15q-51 -12 -43 63zM1384 485l56 23l18 156q100 -134 184 -111l37 317h-61l-31 -221l-170 160zM1706 575l82 43l43 252h-59zM1847 631l68 16q51 84 92 94q45 12 68 -55l39 -4l18 188h-72l15 -45l-113 -26l47 71 h-67q-74 -127 -95 -239zM2009 973h117q-19 43 -64 33q-12 -4 -19 -7.5t-24 -13.5q-4 -4 -5 -6t-5 -6zM2173 690l55 21l21 157q100 -128 184 -110l12 112h-63l-2 -14l-17 14h-172zM2204 973h49l-45 43zM2396 973h62l12 108l-55 2zM2478 739l33 -28l63 63l-49 8zM2521 866 l37 4h-37v-4zM2540 973h63l39 147l-78 -2z" />
<glyph unicode="&#xb7;" horiz-adv-x="464" d="M238 602q-6 -35 8 -63.5t41.5 -49t63.5 -27.5t71 3q35 8 66.5 27.5t57 46t42 58.5t22.5 65q10 104 -40 137.5t-173 19.5q-25 -25 -52.5 -50.5t-50 -52t-38.5 -55t-18 -59.5z" />
<glyph unicode="&#xb8;" horiz-adv-x="331" d="M-84 -301q12 -59 66.5 -77.5t140.5 -2.5l98 45q25 31 42.5 52.5t28.5 41t17 39t10 47.5q8 68 -23.5 106t-86.5 52t-126 9t-138 -21q-4 -18 11 -38t42 -38t57.5 -35.5t59.5 -32.5q-23 -18 -53.5 -31.5t-60.5 -28.5t-53.5 -35.5t-31.5 -51.5z" />
<glyph unicode="&#xb9;" horiz-adv-x="395" d="M465 1317.5q-4 -19.5 6 -19.5q4 -4 18.5 -8t20.5 -2l-37 -315h221q18 23 31.5 42t15.5 34q2 43 -51 24q-4 6 -3 34t3 60.5t4 60t4 38.5q4 27 13.5 44t20.5 30.5t20.5 25.5t11.5 29q0 2 -1 5l-1 3q-33 53 -127 100l-162 -162q-4 -4 -8 -23.5zM535 870q20 -10 32 -6 q7 0 13 6h-45z" />
<glyph unicode="&#xba;" horiz-adv-x="614" d="M428 973h344q4 2 8 6q70 49 110 73.5t60.5 50t29.5 66.5t19 123l5 25q2 8 2 16v17v18t2 16l2 25q-6 23 -15.5 49.5t-25 49t-37 37t-51.5 11.5q-4 -2 -20.5 -13t-35 -23.5t-35 -22.5t-20.5 -12q-18 -10 -62 -29.5t-89.5 -40t-81 -36t-37.5 -19.5l-37 -338q-33 -6 -33 -35 l-2 -12v-2zM709 1096l32 276q12 -2 20.5 -14t8.5 -23l-29 -252q-10 -2 -20 0t-12 13z" />
<glyph unicode="&#xbb;" horiz-adv-x="972" d="M211 358l186 -237q4 -4 29 36t59.5 101t73.5 136t71 141.5t52 112.5t16 54l-71 168h-324q-20 -37 -29.5 -62.5t-1.5 -29.5q14 -14 49 -38.5t73 -49t71 -45t45 -27.5zM365 973h217l-78 182q-4 2 -17.5 -13.5t-33 -41t-42.5 -59t-46 -68.5zM680 461l186 -238q6 -2 32 38 t59.5 100.5t71.5 134t69.5 138t51 113t17.5 58.5l-28 65h-385q20 -16 53 -39.5t67.5 -46t63.5 -40t41 -23.5zM774 973h322l-121 287q-4 2 -27.5 -27t-54.5 -72t-62.5 -94t-56.5 -94z" />
<glyph unicode="&#xbc;" horiz-adv-x="1243" d="M317.5 1193.5q-4.5 -19.5 6.5 -19.5q4 -4 18 -8.5t20 -2.5l-22 -190h201q0 18 1 42.5t2 50.5t4 46.5t5 28.5q2 25 11 42t20.5 30.5t20.5 26.5t11 30v8q-37 57 -129 100q-80 -80 -114.5 -113.5t-46.5 -47.5q-4 -4 -8.5 -23.5zM326 842q-2 -14 7 -34t23.5 -36t32 -26.5 t33.5 -6.5q10 2 28.5 15.5t39 32t40 41t35.5 42.5h-237zM355.5 94q-1.5 -45 8 -85t27.5 -66.5t41 -20.5q31 6 84 42t108.5 84t102.5 99.5t68 88.5q29 53 14.5 70.5t-78.5 -11.5q6 16 27.5 59t49.5 98.5t59.5 117t60 117.5t50 99t30.5 62q4 6 6 11t6 11h-285l-362 -702 q-16 -29 -17.5 -74zM707 973h395q57 53 109 93t79 93q4 6 8.5 -1t6.5 -1v8q2 137 -115 246q-141 -117 -227 -187.5t-136.5 -112.5t-71 -61.5t-28.5 -31.5q-4 -8 -10 -20.5t-10 -24.5zM948 332q0 -6 32 -16.5t71 -19.5t72.5 -17.5t35.5 -10.5q2 -4 5 -21.5t6.5 -37t5.5 -34.5 t4 -17q4 -8 5 -16.5t1 -16.5t20 -2q29 6 49.5 40t34 76t21.5 81t12 57l8 4t8 2q16 4 21.5 -3t21.5 -3q27 6 31 37l2 16q2 25 -8 41t-22.5 31.5t-21.5 34t-5 43.5q2 25 15 49t26.5 44.5t20.5 35t-3 16.5l-119 20q-41 -23 -65.5 -40t-46.5 -52l-16 5q-17 6 -37.5 12t-40 10 t-27.5 2q-10 -2 -25.5 -17.5t-30 -34t-24.5 -35.5t-10 -22zM1128 414l17 161l18 19l15 -10l-15 -131z" />
<glyph unicode="&#xbd;" horiz-adv-x="1261" d="M317 1200q2 -4 2 -18q0 -10 5 -11q4 -4 18 -8t20 -2l-22 -188h199q0 18 1 42.5t3 49.5t4 44t4 28q2 27 11 44t20.5 30.5t21.5 25.5t14 31q-2 2 -3 5l-1 3q-35 55 -127 100q-53 -53 -85.5 -84.5t-51 -50t-26 -27t-7.5 -14.5zM326 838q-2 -14 7 -33t23.5 -35t32 -26.5 t31.5 -6.5q10 2 28.5 16.5t39 33t41 41t36.5 42.5h-235zM355.5 93q-1.5 -44 9 -85t29 -68.5t40.5 -21.5q31 8 83 44t107.5 84t102.5 99.5t68 87.5q27 53 12.5 71t-76.5 -11q6 16 26.5 59t48.5 99.5t59.5 118t60 117.5t50 98t30.5 59q4 6 7 13t7 13h-287l-360 -704 q-16 -29 -17.5 -73zM707 973h395q55 53 107.5 92t80.5 90q2 6 7.5 0t5.5 0l2 8q0 131 -115 246q-141 -117 -228.5 -188.5t-137.5 -113.5t-70.5 -61.5t-28.5 -31.5q-4 -4 -9 -16.5t-9 -24.5zM989 199q-4 -29 23.5 -42.5t48.5 -17.5h41q31 0 65.5 2t63.5 2h43l6 2 q8 2 18.5 13.5t19.5 25t16 24.5t12 15q2 6 14 26.5t25.5 43t24.5 42t11 25.5l3 4q3 3 1 5q2 16 -15 27.5t-39.5 16.5t-46.5 6t-32 -1q-16 -4 -22 -10l174 174l12 88q4 29 -20.5 40t-53.5 15q-12 0 -42.5 4t-64.5 8t-64.5 8.5t-43.5 4.5l-1 1q-1 1 -7 -1q-10 -2 -19.5 -14.5 t-16.5 -27t-13 -25.5t-10 -11q-4 -6 -15.5 -26.5t-24.5 -44t-24.5 -43t-15.5 -23.5l-2 -11q-2 -14 15.5 -25.5t41 -17.5t46 -8t32.5 2q14 4 27.5 19.5t25 33t21.5 35t18 27.5l19 -25l-269 -239zM1145 276l100 105q-8 -10 -14 -25.5t-12 -31.5l-13 -31l-6 -17h-55z" />
<glyph unicode="&#xbe;" horiz-adv-x="1327" d="M279 854q-4 -20 1 -23.5t27 -13.5q10 -4 37 -15t56.5 -23.5t56 -23t39.5 -12.5h6q10 0 14 2q29 8 76 45t86 80h-397q-2 -6 -2 -16zM317 981q-4 -4 29 -8h391l39 319q4 29 -24.5 39t-53.5 15q-12 2 -43.5 6t-68.5 7t-70 6t-47 3l-6 -2q-10 -2 -21.5 -14.5t-21.5 -26.5 t-17.5 -25.5t-9.5 -11.5q-12 -16 -26.5 -54t-26.5 -54v-6q-4 -18 13.5 -27.5t41 -13t45.5 -3.5q25 0 35 3q39 10 50.5 32.5t23.5 40.5l-12 -119l-50 11zM441.5 105q-1.5 -44 8 -83.5t27.5 -67.5t41 -22q31 6 84 42t108.5 84t102.5 99.5t68 88.5q27 53 13.5 70.5t-79.5 -11.5 q6 16 26.5 59.5t49.5 99.5t61.5 117.5t61 118t51 99.5t31.5 59l6 12h-285l-360 -692q-14 -29 -15.5 -73zM793 973h387q59 59 114 100t84 96q4 6 8.5 0t4.5 -2v9q2 137 -115 245q-139 -115 -227 -186.5t-139.5 -113.5t-72 -61.5t-26.5 -31.5l-6 -16q-4 -10 -6 -20.5t-6 -18.5 zM1034 342q0 -8 33 -17.5t73 -18.5t72.5 -16t32.5 -11t3 -21.5t7.5 -37t7.5 -35t5 -15.5q8 -18 6 -33q0 -10 18 -4q29 6 49.5 40t34 76t21.5 82t12 58q2 0 8 2t8 2q18 4 22.5 -3t20.5 -3q31 6 31 37l4 18q2 25 -8 41.5t-22.5 31.5t-21.5 32.5t-5 44.5q2 25 15.5 49.5 t25.5 45t19 33.5t-3 15l-117 21q-41 -23 -65.5 -40.5t-46.5 -49.5q0 -2 -15.5 3t-36 11t-41 10t-30.5 2q-12 -2 -26.5 -17.5t-28 -33.5t-22.5 -34.5t-11 -20.5zM1210 424l21 162l20 18l13 -10l-13 -131z" />
<glyph unicode="&#xbf;" horiz-adv-x="909" d="M215 231q-2 -29 11.5 -48t35 -32.5t47 -20.5t50 -11t85 -10.5t128 -12.5t128 -13t84.5 -13q6 2 10.5 0t10.5 0q18 4 37.5 27.5t37 51t30 51t18.5 27.5q8 14 29.5 54.5t46 85.5t47 82.5t32.5 48.5l4 8q4 10 3 12q2 33 -31 55.5t-78 35t-91 15.5t-68.5 -3.5t-35.5 -16.5 l295 266h-336l-10 -10q2 0 -34.5 -29.5t-87 -69.5t-100.5 -82t-73 -65l-202 -211zM602 440l160 144q-18 -20 -36.5 -47t-36 -54.5t-31 -52.5t-21.5 -41zM805 1354q-10 -104 39 -139t174 -19q27 23 54.5 48.5t50 53t38 56t19.5 59.5q2 33 -13.5 61.5t-41 48t-60.5 28 t-72 -0.5q-35 -8 -67.5 -27.5t-59 -47t-43 -59.5t-18.5 -62zM854 973h223l-108 108z" />
<glyph unicode="&#xc0;" horiz-adv-x="1097" d="M293 406q-14 -119 3 -210.5t103 -154.5q18 -14 39 -25.5t54 -3.5q35 8 75.5 50t80.5 90.5t76 89.5t60 47q12 2 32 -25.5t46.5 -59.5t60 -55.5t74.5 -13.5l27 6q14 16 49 51l74 74t74.5 75t52.5 54q23 23 33 28t16 17q0 14 2 21q2 8 -2 18t-11 19.5t-14.5 15.5t-9.5 6 q-20 -4 -29.5 -14t-27.5 -14q-23 -6 -30 25.5t-7 57.5v25l4 16l10 86l4 33l9 78q2 16 2 29q0 14 2 28h-381l-49 -421q0 -6 -8.5 -18.5t-19.5 -25t-21.5 -23.5t-14.5 -17l-12 -5q-12 2 -12 13q-2 57 3 107t11 98l22 208l5 37l6 47h-383q-10 -23 -19.5 -46t-13.5 -48l-4 -39 q-4 -35 -9.5 -65.5t-7.5 -65.5l-6 -41zM446 973h328l6 18h4l7 2q6 -2 12 -8t10 -12h428q4 16 9 32.5t12 36.5q12 14 28.5 25.5t31.5 23t27.5 25.5t14.5 35q4 33 -17.5 48t-53 21.5t-64.5 9.5t-51 13q-31 10 -55.5 28.5t-47 35t-47 25.5t-57.5 1q-41 -10 -66.5 -32.5 t-64.5 -51.5q-47 -33 -98.5 -64.5t-103.5 -65.5t-101.5 -69.5t-90.5 -76.5zM717 1679q-6 -4 7 -24.5t37.5 -47t55.5 -57t59.5 -53t51 -34t30.5 -1.5q27 25 51.5 44.5t44 38t34 38t24.5 45.5q8 2 4 6l-4 4l-121 258z" />
<glyph unicode="&#xc1;" horiz-adv-x="1097" d="M293 406q-14 -119 3 -210.5t103 -154.5q18 -14 39 -25.5t54 -3.5q35 8 75.5 50t80.5 90.5t76 89.5t60 47q12 2 32 -25.5t46.5 -59.5t60 -55.5t74.5 -13.5l27 6q14 16 49 51l74 74t74.5 75t52.5 54q23 23 33 28t16 17q0 14 2 21q2 8 -2 18t-11 19.5t-14.5 15.5t-9.5 6 q-20 -4 -29.5 -14t-27.5 -14q-23 -6 -30 25.5t-7 57.5v25l4 16l10 86l4 33l9 78q2 16 2 29q0 14 2 28h-381l-49 -421q0 -6 -8.5 -18.5t-19.5 -25t-21.5 -23.5t-14.5 -17l-12 -5q-12 3 -12 13q-2 57 3 107t11 98l22 208l5 37l6 47h-383q-10 -23 -19.5 -46t-13.5 -48l-4 -39 q-4 -35 -9.5 -65.5t-7.5 -65.5l-6 -41zM446 973h328l6 18h4l7 2q6 -2 12 -8t10 -12h428q4 16 9.5 32.5t11.5 36.5q12 14 28.5 25.5t31.5 23t27.5 25.5t14.5 35q4 33 -17.5 48t-53 21.5t-64.5 9.5t-51 13q-31 10 -55.5 28.5t-47 35t-47 25.5t-57.5 1q-41 -10 -66.5 -32.5 t-64.5 -51.5q-47 -33 -98.5 -64.5t-103.5 -65.5t-101.5 -69.5t-90.5 -76.5zM768 1548q-4 -10 2 -4q4 -23 15.5 -36t27.5 -22t36.5 -17.5t45.5 -22.5q8 -6 34.5 17.5t61.5 61.5t73 85t69.5 88t52 69.5t18.5 30.5l-243 90l-189 -332z" />
<glyph unicode="&#xc2;" horiz-adv-x="1097" d="M276 406q-14 -119 3.5 -210.5t103.5 -154.5q18 -14 38.5 -25.5t53.5 -3.5q37 8 78 50t81 90.5t74.5 89.5t59.5 47q12 2 31.5 -25.5t46 -59.5t60.5 -55.5t75 -13.5l27 6q14 18 49 53t73.5 74t74.5 75t52 54q29 25 40.5 32t11.5 32q2 8 -2 19.5t-11.5 20.5t-14.5 15t-9 4 q-20 -4 -29.5 -14t-28.5 -14q-23 -6 -29.5 25.5t-6.5 57.5q0 20 2 25l2 16l10 86l4 33l10 80q0 14 1 27.5t3 27.5h-383l-49 -421q0 -6 -8 -18.5t-19.5 -25t-21.5 -23.5t-14 -17l-6 -3h-7q-12 1 -12 13q2 53 5 104t10 99l22 208l6 39l4 45h-381q-23 -45 -34 -94l-5 -39 q-4 -35 -9 -65.5t-7 -65.5l-6 -39zM369 1409q-4 -6 15 -17.5t52 -24.5t74 -26.5t78 -21.5t65.5 -10t38.5 8q20 23 59.5 65.5t80 89t75.5 85t47 53.5l174 -199l328 272q4 4 -29.5 14.5t-89 22t-122 22.5t-126 19t-103.5 10.5t-54 -4.5zM432 973h326l6 18l4 2l10 2 q4 -4 8.5 -10t12.5 -12h430q6 32 18 71q12 14 28.5 25.5t32 23t27 24.5t13.5 34q4 33 -17.5 48t-53.5 22.5t-64.5 10.5t-51.5 11q-31 10 -55.5 28.5t-47 35t-47 26.5t-57.5 2q-41 -10 -64.5 -32.5t-64.5 -51.5q-49 -35 -101 -66.5t-103.5 -65.5t-100.5 -69.5t-88 -76.5z" />
<glyph unicode="&#xc3;" horiz-adv-x="1097" d="M281 403q-16 -119 2 -210t102 -154q20 -14 39.5 -25.5t52.5 -3.5q35 8 76 50t81 90.5t75.5 89.5t60.5 47q12 2 31.5 -26t46 -59.5t60.5 -55t75 -13.5l27 6q14 16 49 51t73.5 74t74.5 75t53 54q23 23 33 29t14 16q2 2 2 8q0 8 2 13q0 16 -14.5 37.5t-24.5 21.5 q-18 -4 -27.5 -14t-27.5 -15q-16 -4 -24.5 9.5t-10.5 34t-1 40t1 25.5l2 16l8 86l4 33l10 78q2 16 3 30.5t3 28.5h-383l-49 -424q0 -6 -8 -18t-18.5 -24.5t-20.5 -23.5t-16 -18l-12 -4q-15 3 -11 15q-2 55 2 105t11 97l22 209l6 37l4 49h-377q-12 -23 -22 -46t-16 -50 l-5 -39q-4 -35 -9 -65.5t-9 -65.5l-2 -41zM358 1450q-6 -6 25 -15.5t81 -19.5t110.5 -19.5t115.5 -13.5t96 -3t52 12q47 45 90 85t71 68l162 -82l342 275q4 4 -27.5 14t-80.5 19.5t-109.5 18.5t-115 14t-95.5 4t-51 -11q-51 -47 -85 -93t-62 -81l-179 102zM440 973h318l6 16 h4l10 4q6 -10 19 -20h432q6 30 18 67q12 14 28.5 25.5t32 23t27 24.5t13.5 36q4 33 -17.5 48t-52.5 21.5t-63.5 9.5t-51.5 13q-31 10 -54.5 28.5t-47 35t-48 25.5t-55.5 1q-43 -10 -67.5 -31.5t-63.5 -50.5q-47 -35 -99 -66.5t-102.5 -65.5t-98.5 -68.5t-87 -75.5z" />
<glyph unicode="&#xc4;" horiz-adv-x="1097" d="M283 403q-14 -119 3 -209t103 -153q16 -16 38 -27.5t54 -3.5q35 8 76 50t81 90.5t76 89.5t60 47q12 2 31.5 -26t46.5 -59.5t60.5 -55t74.5 -13.5l27 6q14 18 49 53l74 74t74.5 75t52.5 54q14 14 23 20.5t14.5 11.5t8.5 12t5 20q0 16 -14.5 39.5t-24.5 19.5 q-18 -4 -27.5 -14t-27.5 -15q-12 -4 -19.5 4.5t-11.5 22.5t-5 29.5t-1 27.5q0 23 2 25v16l12 88l2 31l10 80q2 16 2 29q0 14 2 28h-380l-50 -424q-2 -6 -10 -17t-17 -23.5t-19.5 -24.5t-16.5 -19l-6 -2h-6q-13 3 -13 13q0 53 4.5 104t10.5 98l22 209l4 39l6 47h-381 q-27 -49 -34 -96l-4 -39q-4 -35 -9.5 -65.5t-9.5 -65.5l-4 -39zM438 973h324l6 16l6 2l8 2q4 -4 8.5 -9t10.5 -11h432q6 28 18 69q12 16 28.5 26.5t32 21t27 23.5t13.5 36q4 33 -17.5 48t-52.5 22.5t-63.5 10.5t-51.5 11q-31 10 -54 28.5t-47 36t-49.5 26.5t-55.5 1 q-41 -10 -67 -32.5t-65 -51.5q-47 -35 -98 -66.5t-102 -64.5t-100.5 -68.5t-90.5 -76.5zM483 1518q-4 -33 11.5 -62t43 -48t62.5 -27.5t70 -0.5q33 8 65.5 29t58 47.5t43 58t21.5 64.5q10 100 -39 136t-172 22q-27 -25 -54.5 -50.5t-51 -53t-39 -56.5t-19.5 -59zM1026 1653 q-4 -35 11.5 -63.5t42 -48t61.5 -28t69 -0.5q33 8 66 29t58.5 47.5t43 58t21.5 64.5q14 104 -37 138t-176 20q-25 -25 -52.5 -50.5t-51 -52t-39 -55.5t-17.5 -59z" />
<glyph unicode="&#xc5;" horiz-adv-x="1097" d="M287 406q-14 -123 4 -212.5t104 -152.5q16 -14 37 -26.5t53 -4.5q35 8 76 50t81 91.5t76 90.5t60 47q12 2 31.5 -25.5t46.5 -60.5t60.5 -56.5t74.5 -13.5l27 8q14 16 49 51l74 74t74.5 75t52.5 54q23 18 33 25.5t14 17.5q2 2 2 8q0 8 2 15q2 16 -13.5 37.5t-23.5 21.5 q-20 -4 -29.5 -15t-27.5 -16q-12 -4 -19.5 4.5t-11.5 22.5t-5 29.5t-1 27.5q0 23 2 27l2 14l10 88l2 31l10 80q2 16 3.5 29.5t3.5 27.5h-383l-50 -421q0 -6 -8 -18.5t-18 -26t-20.5 -24.5t-16.5 -18h-6l-6 -2q-15 3 -11 13q2 55 4.5 105t8.5 97l22 211l4 37l7 47h-379 q-25 -41 -37 -94l-4 -41q-4 -35 -9.5 -64.5t-9.5 -66.5l-4 -39zM444 973h322l6 16l6 2l8 2q4 -4 8.5 -9t10.5 -11h432q6 29 18 69q12 14 28.5 25.5t32 23t27 24.5t13.5 34q6 35 -15.5 50t-53.5 21.5t-64.5 9.5t-51.5 13q-31 8 -55 26.5t-46.5 35t-47.5 26.5t-57 2 q-41 -10 -67 -32.5t-64 -51.5q-94 -66 -201 -130t-189 -146zM666 1434q-2 -10 28.5 -20.5t73.5 -19t86 -10.5t66 5q6 2 11 4l5 2q2 0 14.5 9t27.5 20.5t30.5 22.5t21.5 15q72 41 112 60.5t60.5 40t27.5 49t13 88.5l2 20q2 12 3 24.5t1 24.5l2 19q-10 33 -42.5 65.5 t-96.5 28.5q-4 -4 -19.5 -13t-34 -19.5t-34.5 -17.5t-20 -7q-18 -8 -63.5 -25.5t-92.5 -36t-84 -33t-37 -16.5l-29 -246q-31 -6 -32 -26v-8zM954 1542l23 197q12 -2 21.5 -9.5t9.5 -11.5l-21 -184q-14 -4 -24.5 -2t-8.5 10z" />
<glyph unicode="&#xc6;" horiz-adv-x="1673" d="M188 319q-14 -119 4.5 -210t104.5 -154q18 -14 37.5 -25.5t52.5 -3.5q35 8 76 50t81 90.5t75.5 89.5t60.5 47q12 2 31.5 -25.5t46 -59.5t60.5 -55.5t75 -13.5l27 6q16 16 45.5 47t68.5 68q61 -41 130 -62.5t134 -5.5q25 6 75 39t110.5 81t124 104.5t117 107.5t88 92 t36.5 58q2 20 -8 29.5t-26 9.5t-39 -7.5t-43 -19.5q-37 -16 -74 -34.5t-82 -31.5q-25 -8 -72 -8q-27 0 -55.5 5t-51 15.5t-35.5 28t-9 41.5q4 37 31.5 71t69.5 64.5t94.5 61.5t103.5 61h-217q-14 -14 -37 -29.5t-38 -23.5t-18 -10l9 63h-627q10 -4 17 -8l6 -4l-58 -496 q0 -6 -8 -18t-18.5 -24.5t-20.5 -23.5t-16 -17l-13 -5q-14 3 -10 15q-2 55 2 105t10 98l41 356l7 22h-332q-35 -39 -60.5 -83t-38.5 -97l-4 -39q-4 -35 -9 -65.5t-7 -65.5zM446 973h918l6 49q0 -6 9.5 -20.5t21.5 -28.5h397q33 29 54.5 61.5t25.5 71.5q4 10 2 23.5t0 15.5 l-199 282q-2 2 -27.5 6.5t-37.5 8.5l-17 -4q-33 -8 -89 -37t-123.5 -69t-138 -89t-132.5 -98q-10 4 -21.5 6t-21.5 6q-31 10 -54.5 28.5t-47 35t-48 25.5t-55.5 1q-43 -10 -68.5 -32.5t-62.5 -51.5q-70 -47 -145.5 -92t-145.5 -98z" />
<glyph unicode="&#xc7;" horiz-adv-x="974" d="M139 244q-4 -39 21.5 -79t67.5 -73t94.5 -57.5t101.5 -32.5q29 -35 72 -66.5t84 -56.5q-23 -18 -53.5 -31.5t-59.5 -29t-52.5 -35t-31.5 -49.5q12 -59 66.5 -79t140.5 -3l96 45q27 27 44.5 49.5t27.5 41.5t16 40.5t10 50.5q10 88 -38 132t-134 55q43 33 98.5 75.5 t109.5 85.5t97.5 79t61.5 52q35 29 51.5 43.5t24.5 34.5q2 8 3 15.5t3 17.5q4 23 -5 39t-42 8q-47 -10 -92 -37.5t-99 -40.5q-25 -6 -64.5 -8t-76.5 4t-61.5 23.5t-20.5 48.5l43 364h-430zM258 973h829q35 34 41 65q0 4 -1 10l-1 5q-6 8 -21 37.5t-32.5 64.5t-33 67.5 t-19.5 45.5q-6 0 -15.5 16t-22.5 35.5t-29.5 34t-37.5 10.5q-6 -2 -10 -4t-8 -2q-29 -16 -98.5 -55t-147.5 -82t-147.5 -81t-100.5 -53q-33 -23 -73.5 -51t-71.5 -63zM682 870q16 -35 43 -62t74 -17q23 4 66.5 26.5t92.5 52.5h-276z" />
<glyph unicode="&#xc8;" horiz-adv-x="1007" d="M279 317q-6 -61 29.5 -120.5t95 -103.5t132 -65t140.5 -5q25 6 75 39.5t110.5 80.5t125 103.5t117.5 108t88 92t37 57.5q2 37 -37 37q-16 0 -39 -7.5t-43 -17.5q-39 -16 -72.5 -34.5t-83.5 -30.5q-25 -8 -69 -9q-27 0 -55.5 5.5t-51 15.5t-36 27.5t-9.5 41.5 q4 47 49 89.5t107.5 83t133.5 80.5t126 85h-350q2 -6 6 -6q6 -10 17.5 -29.5t8.5 -21.5q-2 -14 -30.5 -34.5t-51 -35t-26.5 -16.5l16 143h-395zM397 973h842q14 25 16 49q-2 10 0 25.5t5 17.5l-199 283q-2 2 -27.5 6t-38.5 8l-20 -6q-37 -10 -113 -49t-162 -94.5 t-168.5 -119t-134.5 -120.5zM649 1679q-6 -4 26 -44t76 -83t86 -73.5t54 -18.5q57 53 96 85t57 81q4 2 2 7l-2 5l-120 258z" />
<glyph unicode="&#xc9;" horiz-adv-x="1007" d="M276 317q-6 -61 30 -120.5t96.5 -103.5t133 -65.5t140.5 -4.5q25 6 75 39.5t110.5 80.5t125 103.5t117.5 108t88 92t37 57.5q2 27 -16.5 33t-45 -0.5t-56.5 -19.5t-50 -23q-35 -18 -76 -35t-102 -17q-27 0 -55.5 5.5t-51 15.5t-36 27.5t-9.5 41.5q4 47 48 90.5t106.5 83 t133.5 80.5t126 84h-350q6 -6 8 -6q6 -10 18.5 -29.5t9.5 -21.5q-2 -10 -18 -24.5t-35.5 -27.5t-36 -23.5t-18.5 -12.5l16 145h-395zM397 973h842q14 25 16 49q-2 10 0 25.5t2 17.5l-196 283q-4 2 -28.5 6t-37.5 8l-20 -6q-37 -10 -113 -49t-162 -94.5t-168.5 -119 t-134.5 -120.5zM713 1548q-4 -10 2 -4q4 -23 15 -36t27.5 -22t37 -18.5t45.5 -23.5q6 -6 31.5 17.5t60.5 61.5t75 85t71.5 88t52 69.5t18.5 30.5l-244 92l-190 -334z" />
<glyph unicode="&#xca;" horiz-adv-x="1007" d="M268 324q-8 -61 28 -122t95.5 -105t133 -65.5t141.5 -4.5q23 6 72.5 39.5t110 81t125 103.5t118 107.5t88 92.5t37.5 57q2 20 -8.5 29.5t-26.5 9.5t-39 -7.5t-43 -19.5q-37 -16 -74 -34.5t-82 -30.5q-25 -8 -72 -9q-27 0 -55.5 5.5t-51 15.5t-35.5 27.5t-9 42.5 q4 47 47 89t104.5 82t131 79.5t126.5 82.5h-337q4 -10 16 -30.5t12 -22.5q-2 -10 -19.5 -24.5t-38 -27.5t-36.5 -23l-16 -11l16 139h-397zM281 1427q-6 -6 40 -26.5t108.5 -39t119.5 -27.5t74 7q20 20 59 63.5t81 89.5t79 87t53 57l186 -196l340 272q6 6 -28.5 16.5 t-92 21.5t-128 21.5t-134 17.5t-110.5 8t-58 -5zM383 973h842q18 29 20 55q-2 10 -1 25.5t3 17.5l-198 283q-2 0 -28 4t-38 8l-18 -4q-39 -10 -116 -50t-164 -96.5t-170 -121t-132 -121.5z" />
<glyph unicode="&#xcb;" horiz-adv-x="1007" d="M268 317q-6 -61 30 -120.5t95.5 -103.5t132 -65.5t140.5 -4.5q25 6 73.5 38.5t110 80.5t126 103.5t118 106.5t88.5 91t37 59q2 37 -37 37q-16 0 -38 -7.5t-44 -17.5q-37 -16 -73 -34.5t-83 -30.5q-29 -6 -70 -7q-29 0 -56 4.5t-51 15.5t-37 27.5t-9 40.5q4 49 49 91.5 t107.5 83t133 80.5t128.5 85h-353q2 -6 9 -6q6 -10 16 -30.5t10 -22.5q-2 -14 -30.5 -34.5t-51 -35t-26.5 -16.5l16 145h-395zM389 973h840q6 12 10 23.5t6 25.5q2 6 2 25q0 16 2 18l-198 283q-2 0 -28 4t-38 8l-20 -4q-37 -10 -113 -49t-162 -94.5t-168 -119t-133 -120.5z M407.5 1517.5q-4.5 -30.5 10 -60.5t41 -50.5t62.5 -28.5t73 2q33 8 65.5 29t58 47.5t43 58t21.5 62.5q10 104 -40 139t-173 21q-27 -25 -54.5 -51.5t-50 -53t-37.5 -55.5t-19.5 -59.5zM987 1659q-6 -35 9.5 -63.5t43 -49t63.5 -28t71 3.5q35 8 66.5 28.5t58 47t43 58.5 t20.5 62q10 104 -39 140t-174 20q-25 -23 -52.5 -48.5t-51 -53t-40 -57t-18.5 -60.5z" />
<glyph unicode="&#xcc;" horiz-adv-x="724" d="M324 815q-10 -10 2 -27.5t26 -25.5q10 -4 39 -9t41 -1l-63 -555q-2 -23 18.5 -52.5t51 -57.5t65.5 -44t59 -10q31 6 86.5 47t111.5 94t99 104.5t47 79.5q8 76 -102 35q-2 8 -2 25v39q0 33 1 73.5t2 79.5t2 70t1 45q8 53 34.5 85t51.5 60h-518zM473 973h451l-201 149 q-29 20 -52.5 18.5t-41 -12t-28.5 -23.5t-15 -15zM483 1534q-4 -2 10.5 -21.5t38 -48t53 -58.5t57.5 -54.5t50.5 -35.5t30.5 -1q31 27 55.5 46t44 36.5t33.5 37t25 46.5q4 2 2 7l-2 5l-121 258z" />
<glyph unicode="&#xcd;" horiz-adv-x="724" d="M326 815q-10 -10 1 -27.5t25 -23.5q2 -4 13.5 -6t24.5 -4t26.5 -3t17.5 1l-63 -555q-2 -23 18.5 -52.5t51 -57.5t65.5 -44t59 -10q18 4 51 24.5t70 51t76 66.5t70.5 71t52 64.5t22.5 47.5q10 76 -100 35q-2 16 -3 63.5t-1 100.5t2 101.5t6 66.5q8 53 33.5 85t52.5 60 h-518zM475 973h451l-203 149q-31 25 -68 17q-31 -8 -46 -26.5t-21 -22.5zM492 1399q-4 -6 2 -6q4 -23 15 -35t27.5 -21.5t37 -18.5t44.5 -24q4 -6 30 17.5t60.5 62.5t75.5 85t74 87t52.5 70t15.5 31l-242 90l-190 -332z" />
<glyph unicode="&#xce;" horiz-adv-x="724" d="M145 1294q-6 -6 35 -26.5t95.5 -40t105.5 -29.5t65 4q18 18 54.5 60.5t74 86.5t70.5 82.5t45 53.5l166 -195l303 260q2 4 -29.5 14.5t-82 24t-110.5 25.5t-115.5 21.5t-97.5 11.5t-54 -7zM313 825q-10 -10 1.5 -27.5t25.5 -25.5q10 -4 40 -9t42 -1l-64 -555 q-2 -23 18.5 -53.5t51.5 -57t65.5 -44t59.5 -11.5q29 8 85 50t112.5 94.5t99.5 103.5t45 78q6 78 -102 34q-2 16 -3.5 63.5t-1.5 100.5t2.5 101.5t6.5 66.5q6 49 28.5 80t44.5 57h-514zM455 973h471v2l-215 158q-31 25 -68 16q-33 -8 -47 -26.5t-21 -22.5z" />
<glyph unicode="&#xcf;" horiz-adv-x="724" d="M252 1372q-4 -33 11.5 -61.5t42 -48t61 -27.5t71.5 2q35 8 67 28.5t58.5 47t43 58.5t20.5 63q12 104 -38 137.5t-175 19.5q-51 -49 -102.5 -103t-59.5 -116zM313 815q-10 -10 2.5 -27.5t26.5 -25.5q10 -4 39 -9t41 -1l-64 -555q-2 -23 18.5 -53.5t51.5 -58.5t65.5 -44 t59.5 -10q31 8 86 50t111.5 94t99.5 103.5t47 77.5q6 74 -104 35q-2 10 -3.5 25.5t-1.5 38.5q0 33 1.5 73.5t2.5 79.5t3 70t4 45q4 53 30.5 86t53.5 61h-516zM463 973h450l-200 149q-29 20 -52.5 18.5t-41 -12t-28.5 -23.5t-16 -15zM776 1503q-6 -35 8.5 -63.5t42 -48 t63.5 -27.5t71 0q33 8 65.5 28.5t58 47t43 58.5t21.5 65q10 104 -38 137.5t-177 19.5q-53 -47 -102.5 -102t-55.5 -115z" />
<glyph unicode="&#xd0;" horiz-adv-x="1327" d="M233 469q-6 -4 42.5 -7t121 -2t154.5 5t141 12l-18 -155q-10 -10 -25.5 -24.5t-30 -31t-25.5 -32t-13 -25.5q0 -6 24.5 -19.5t63.5 -31t85 -36t88 -32.5t74.5 -23.5t42.5 -7.5q12 4 58.5 33t107 70t127 90t123 96t94 86t39.5 60l43 376h-374l8 -6l-54 -463l-59 45l47 424 h-338l-43 -10l-22 -194l-113 8zM756 1163q-8 -66 13.5 -112.5t61.5 -77.5h730l10 76q2 25 -12.5 53t-37 54t-49 44.5t-47.5 22.5q-20 6 -74.5 19t-115.5 26.5t-116.5 26t-78.5 16.5q0 2 -1 6t-1 6q2 18 21.5 34.5t42 37t43 47t24.5 61.5q-74 -18 -144.5 -43.5t-127.5 -64.5 t-95 -95.5t-46 -136.5z" />
<glyph unicode="&#xd1;" horiz-adv-x="1361" d="M276 156q-6 -10 0.5 -21.5t16.5 -23t22.5 -19.5t18.5 -12l215 -127l37 8q2 0 35.5 28.5t80 68.5t95.5 83t82 72l36 37l3 14l2 19q-2 6 -12.5 26.5t-14.5 26.5l59 534h-628q2 -25 23.5 -25.5t46 2.5t42.5 3t17 -21l-64 -557q-4 -4 -21.5 -20t-37 -35.5t-36 -37 t-18.5 -23.5zM377 973h606l18 18l48 -18h479l14 121q10 6 23.5 20t26 31.5t20.5 33t8 23.5q0 2 -21.5 19.5t-37.5 25.5l-127 60q-6 0 -25.5 13t-40 29.5t-37 31t-18.5 16.5l-7 -1q-8 -1 -10 -1q-43 -10 -93 -49t-102 -87.5t-101.5 -95.5t-88.5 -73q-16 25 -37.5 55.5t-50 56 t-63.5 38.5t-76 3l-18 -4q-72 -45 -150 -121t-139 -145zM442 1456q-8 -8 40 -20.5t119 -23.5t145.5 -19.5t121.5 -8.5q41 0 52 11q47 45 93 86t74 69l156 -82l344 275q4 6 -26.5 15t-80.5 18.5t-110.5 18.5t-116 14.5t-95.5 4t-50 -11.5q-49 -47 -84 -93t-63 -81l-179 101z M965 233q-4 -25 19.5 -51t56 -47.5t67.5 -34t53 -8.5q10 4 20.5 10.5t14.5 6.5l295 251q35 33 52.5 48.5t25.5 31.5q2 12 6 31q4 41 -27.5 52.5t-68.5 13.5l37 333h-480z" />
<glyph unicode="&#xd2;" d="M260 197q-2 -20 24.5 -44t70.5 -46.5t98.5 -41t108.5 -30.5t102.5 -16.5t76.5 4.5q10 4 21 7l12 3q6 4 34 27.5t58.5 52t58 53t33.5 31.5q98 68 166 109.5t113 75.5t71.5 66.5t42 79.5t25.5 118t23 181l4 43h-467l-51 -456q-23 -6 -45.5 -3t-20.5 23l49 436h-479 l-67 -587q-33 -8 -45.5 -25.5t-14.5 -40.5zM414 973h467l2 16q8 -4 24 -16h506q0 10 1 19t3 20l4 47q-10 49 -29.5 101t-52 95t-77.5 72t-105 29q-8 -8 -39 -29.5t-65.5 -45.5t-66.5 -43t-40 -24q-31 -23 -107.5 -56.5t-160.5 -69t-160 -67.5t-104 -48zM653 1620 q-4 -2 9.5 -21.5t38 -46t54 -57.5t58.5 -54.5t51.5 -35.5t30.5 -4q57 53 96 86t58 82q4 2 3 7l-1 5l-121 256z" />
<glyph unicode="&#xd3;" d="M252 195q-2 -23 25.5 -46.5t71.5 -44t99.5 -39t109.5 -29.5t102.5 -15.5t76.5 2.5q10 2 21 6l10 4q8 4 34.5 27.5t57.5 52t58.5 53t35.5 31.5q98 68 165 109.5t111 74.5t69.5 65.5t42 79.5t26.5 119t25 182l6 43h-469l-51 -458q-23 -4 -45.5 -1t-18.5 23l49 436h-479 l-68 -589q-33 -6 -46 -23.5t-15 -40.5zM410 973h467l2 16q8 -4 24 -16h504q2 10 3 19t3 20l4 47q-10 49 -30.5 101t-52 95t-77 72t-104.5 29q-6 -10 -39 -33t-69.5 -46.5t-68.5 -41.5t-36 -21q-20 -14 -62 -34.5t-95.5 -43t-111 -47t-108.5 -47t-92 -41t-61 -28.5zM750 1472 q-5 -8 4 -6q4 -23 14 -36t25.5 -23t36 -19.5t44.5 -23.5q8 -4 35 20.5t62 62.5t73.5 85t69.5 87t51.5 67.5t18.5 29.5l-242 92l-188 -329z" />
<glyph unicode="&#xd4;" d="M252 193q-2 -20 24.5 -44t70.5 -46.5t99.5 -41t110.5 -31t103.5 -15.5t76.5 5q10 4 21 8l12 3q8 4 34.5 27.5t57.5 52t57.5 53t32.5 31.5q98 68 166 109.5t113 75.5t70.5 66.5t42 79.5t26.5 118t23 181l6 45h-469l-51 -458q-23 -6 -45.5 -3t-18.5 23l49 438h-479 l-68 -589q-33 -8 -46 -25.5t-17 -40.5zM381 1446q-4 -6 17.5 -17.5t56 -24.5t77.5 -25.5t83 -20.5t71 -9t41 9q20 23 59 65.5t80 89t78 86t53 56.5l187 -197l342 275q4 6 -32 16t-93.5 20.5t-126 20.5t-132 16t-110.5 8.5t-59 -4.5zM410 973h467l2 14q4 -4 11 -7t13 -7h502 l6 37l6 47q-10 49 -30.5 101t-53.5 95t-78 72t-102 29q-8 -10 -40 -32t-67.5 -44.5t-67.5 -41.5t-38 -24q-20 -14 -62 -34.5t-94.5 -43t-110 -46t-109.5 -45t-93 -40t-61 -30.5z" />
<glyph unicode="&#xd5;" d="M248 193q-2 -20 24.5 -44t70.5 -46.5t99.5 -41t110.5 -31t103.5 -15.5t76.5 5q8 2 19 6l12 5q8 4 34.5 27.5t57.5 52t57.5 53t34.5 31.5q96 68 164 110.5t113 75.5t71.5 64.5t43 78.5t26.5 119t23 182l4 45h-467l-52 -460q-23 -4 -45 -1t-18 23l49 438h-479l-70 -591 q-33 -8 -45 -24.5t-16 -39.5zM377 1444q-6 -6 24.5 -15.5t80.5 -18.5t111.5 -17.5t116 -13.5t95.5 -4t51 11q47 45 91 84t73 68l160 -80l342 275q6 6 -42 17t-119 22.5t-146.5 19.5t-122.5 8q-41 0 -50 -8q-51 -47 -84.5 -94t-62.5 -82l-178 102zM408 973h464l2 14 q4 -4 10.5 -7t12.5 -7h504l6 37l6 47q-10 49 -30.5 101t-53.5 95t-78 72t-102 29q-8 -10 -40 -33t-68.5 -45.5t-68.5 -42t-38 -23.5q-23 -12 -64 -31.5t-93 -42t-108.5 -46t-107.5 -46t-92 -41t-61 -30.5z" />
<glyph unicode="&#xd6;" d="M248 195q-2 -23 24.5 -45.5t71.5 -45t100.5 -41t109.5 -31t102.5 -15.5t76.5 6q10 2 21 5l10 3q8 4 34.5 27.5t57.5 52t57.5 53t34.5 31.5q98 68 166 110.5t112 75.5t69.5 65.5t42 79.5t26.5 119t25 182l6 43h-469l-52 -458q-23 -4 -45 -1t-18 21l49 438h-479l-68 -589 q-33 -8 -46 -24.5t-15 -39.5zM406 973h466l2 16q7 -4 23 -16h504l6 37l6 49q-10 49 -29.5 101t-52.5 95t-78 72t-104 29q-10 -8 -42 -29.5t-66.5 -45.5t-66.5 -44l-40 -25q-23 -12 -65 -31.5t-94 -43t-109.5 -48t-108.5 -46t-92 -41t-59 -29.5zM436 1473q-6 -35 8.5 -64 t42 -49.5t63.5 -27.5t71 3q35 8 67.5 28.5t58 47.5t42 58.5t20.5 62.5q10 104 -37 139t-176 19q-25 -25 -52.5 -50.5t-50 -52t-39 -55.5t-18.5 -59zM1075 1630q-6 -35 8.5 -63.5t42 -48t63.5 -27.5t71 0q33 8 65.5 27.5t59 47t44 59.5t21.5 65q10 104 -40 138.5t-173 20.5 q-27 -25 -54.5 -50t-50 -53t-39 -56.5t-18.5 -59.5z" />
<glyph unicode="&#xd7;" horiz-adv-x="806" d="M324 262q-4 -4 22.5 18.5t69.5 58.5t97 80t105 83q23 -41 76.5 -58.5t93.5 -17.5q31 0 43 6l5 8l-76 152q59 49 69 72q33 72 57.5 117.5t22.5 86.5q0 4 -4 0h-6l-258 -188l-274 113q-6 -2 3 -21.5t27.5 -50.5t44 -69t52.5 -77z" />
<glyph unicode="&#xd8;" d="M180 186q-2 -23 24.5 -45t70.5 -44.5t99.5 -41t111 -31t103.5 -15.5t77 5q8 2 19 6l11 3q8 4 35 27.5t57.5 52t57 53t35.5 30.5q98 68 165.5 110t112.5 76t70.5 66.5t42 80.5t27 119t22.5 181l4 45v6h-459l2 -20l-90 -117l17 137h-484l-67 -598q-33 -8 -45.5 -25.5 t-16.5 -39.5zM356 973h449l2 8q4 -2 6 -4t6 -4h516q0 8 4 28l7 48q-10 49 -32 101t-54.5 95t-76.5 72t-102 31q-8 -10 -39.5 -33t-68.5 -45.5t-68 -42t-37 -23.5q-31 -18 -99.5 -49t-146 -64.5t-152.5 -65.5t-114 -52zM741 424l13 104l75 78l-8 -164q-12 -4 -26.5 -10 t-26.5 -10t-20 -4q-6 0 -7 6z" />
<glyph unicode="&#xd9;" horiz-adv-x="1361" d="M291 188q12 -41 54 -77.5t92 -65.5t95.5 -50.5t63.5 -33.5l18 6q43 10 84 43t82 72t85 72.5t91 46.5q45 10 75 -7.5t57.5 -39t59.5 -37t79 -2.5q37 8 95 47t114.5 90t99.5 103.5t47 84.5q4 37 -17.5 42t-48 0t-48 -6t-17.5 24l43 370h-463l-51 -456q-2 -10 -20.5 -24.5 t-39 -28t-37.5 -23.5l-16 -10q2 18 7.5 50t11.5 73t12 89t12 99q6 66 13.5 125t11.5 106h-602v-10q-4 -33 7 -42t30.5 -6t45 13.5t50.5 16.5l-61 -537q0 -2 -14.5 -15.5t-24.5 -23.5q-4 -2 -14.5 -8t-22 -13t-21.5 -14.5t-14 -11.5l-1 -5t-1 -7q-2 -6 -2 -14v-5zM416 973 h526q0 43 -10 98t-32.5 101.5t-60.5 73t-91 14.5q-8 -2 -18.5 -5.5t-18.5 -5.5q-14 -12 -50 -46t-77 -73.5t-78 -74.5t-53 -47q-10 -10 -19.5 -18.5t-17.5 -16.5zM836 1665q-2 -2 12 -21.5t37.5 -47t52.5 -58.5t56.5 -54.5t50 -34.5t32.5 -1q29 27 53.5 46t43 36.5t34 37 t25.5 46.5q6 2 4 7l-2 5l-121 258zM991 1077q0 -6 6.5 -20.5t13.5 -30.5t16 -31.5t15 -21.5h465l11 82q41 43 61 71.5t27 71.5v21q-4 6 -5.5 8t-7.5 6t-21.5 14t-47.5 33q-25 12 -55.5 29.5t-59.5 36t-51.5 33t-32.5 20.5q-133 -168 -330 -291l-2 -14z" />
<glyph unicode="&#xda;" horiz-adv-x="1361" d="M292 194l1 -6q8 -41 51 -76.5t93 -65.5t97.5 -50.5t63.5 -32.5l16 4q43 10 84 43t82 72t85 72.5t91 46.5q45 10 75 -7.5t57.5 -39t59.5 -37t79 -2.5q35 8 94 48t116.5 90t100.5 102.5t47 84.5q2 37 -19.5 42t-48 1t-48 -6t-17.5 23l43 370h-463l-51 -454 q-2 -10 -18.5 -24.5t-37 -28t-37 -23.5t-18.5 -12q0 18 5.5 50t11.5 73t13 89t11 99q8 66 14.5 125t10.5 106h-602v-10q-4 -33 7 -42t30.5 -6t45 13.5t52.5 16.5l-63 -537q0 -2 -13.5 -15.5l-23.5 -23.5q-6 -2 -16.5 -8t-20.5 -13t-20.5 -14.5t-16.5 -11.5l-1 -5t-1 -7 q-2 -8 -1 -13zM416 973h526q0 43 -10 98t-32.5 101.5t-60.5 73t-91 14.5q-8 -2 -17.5 -5.5t-17.5 -5.5q-16 -14 -53 -49t-78 -74t-78 -72.5t-51 -45.5q-10 -10 -19.5 -18.5t-17.5 -16.5zM902 1545q-5 -7 3 -5q2 -23 13.5 -35t28 -21t37 -18.5t42.5 -23.5q8 -6 34.5 17.5 t62.5 62.5t74 86t69.5 88t51 68.5t17.5 27.5l-241 92l-187 -332zM991 1077q2 -6 8.5 -20.5t13.5 -30.5t15 -31.5t14 -21.5h465l11 82q41 43 62.5 72.5t25.5 70.5l2 21q0 8 -2 10t-9.5 6t-25 13t-47.5 32q-27 12 -57.5 29.5t-58.5 36t-50.5 33t-32.5 20.5 q-139 -172 -330 -291l-2 -14z" />
<glyph unicode="&#xdb;" horiz-adv-x="1361" d="M279 186q8 -41 50 -76.5t93 -65.5t97 -50.5t65 -32.5l16 4q43 10 84 43t83 72t85 72.5t90 46.5q45 12 76 -4.5t58.5 -38t59 -38t78.5 -3.5q37 8 95.5 48t115 90t98.5 101.5t46 83.5q4 37 -17.5 41t-47 0t-47 -5t-17.5 26l43 370h-463l-51 -456q-2 -10 -19.5 -24.5 t-38 -28t-37.5 -23.5l-18 -10q8 35 18.5 122t22.5 187q6 66 12 126t11 107h-596q-2 -4 -2 -12q-4 -33 6 -42t29.5 -6t45 13.5t50.5 16.5l-60 -535q0 -2 -14 -16.5t-25 -24.5q-10 -4 -35.5 -20.5t-35.5 -26.5l-1 -5t-3 -7v-19zM403 973h527q0 43 -10.5 98t-34 101.5 t-60.5 71.5t-90 13q-10 -2 -20 -5t-17 -5q-16 -14 -52 -49t-77 -73t-77.5 -72.5t-53.5 -46.5q-10 -10 -18 -18.5t-17 -14.5zM463 1417q-6 -6 15.5 -16t56 -23.5t77.5 -27t82 -20.5t70 -9t41 8q23 25 62.5 68t80.5 89t78 85t53 55l187 -196l340 274q4 6 -32 16.5t-93.5 20.5 t-126 20.5t-132 16.5t-110.5 8t-59 -4zM979 1075q2 -6 7 -19.5t12.5 -28.5t15.5 -30.5t14 -23.5h465l10 80q43 45 63.5 73.5t24.5 69.5l2 21q0 8 -2 10t-10 6t-24.5 13t-45.5 32q-27 12 -57.5 29.5t-58 36t-50 33t-32.5 20.5q-70 -86 -152 -159t-180 -132v-14z" />
<glyph unicode="&#xdc;" horiz-adv-x="1361" d="M283 186q10 -43 52 -78.5t92 -65.5t97 -50.5t66 -30.5l14 4q43 10 85 44t83 72t85 72.5t91 47.5q45 10 75 -7.5t57.5 -39t59 -37t79.5 -2.5q37 8 95 48t114.5 90t98.5 101.5t46 83.5q4 39 -17.5 43t-47 0t-47 -6t-17.5 25l43 370h-463l-51 -456q-2 -14 -32 -35t-53.5 -35 t-27.5 -16q8 33 20.5 121t20.5 188q6 68 12.5 128t10.5 105h-596q-2 -4 -2 -12q-4 -35 6 -43t30.5 -5t46 14.5t52.5 17.5l-64 -537q0 -2 -14 -16.5t-25 -24.5q-10 -4 -35.5 -20.5t-35.5 -24.5l-1 -5t-1 -7q-2 -6 -2 -14v-7zM408 973h526q0 43 -10.5 98t-34 101.5t-60 73 t-90.5 14.5q-10 -4 -19 -6.5t-15 -4.5q-16 -12 -52.5 -47t-77 -75t-77.5 -74.5t-56 -46.5q-10 -10 -18 -18.5t-16 -14.5zM557 1509q-6 -35 8.5 -63.5t42 -48t63.5 -27.5t70 0q33 8 66 28.5t58.5 47.5t43 58.5t21.5 64.5q10 104 -37 137.5t-176 19.5q-27 -25 -54.5 -50 t-50 -52t-38 -55.5t-17.5 -59.5zM983 1075q2 -6 7 -19.5t12.5 -28.5t15.5 -30.5t14 -23.5h465l10 80q43 45 63.5 73.5t24.5 69.5l2 23q4 10 -2 14t-30 14q-16 8 -52 29.5t-75 45.5t-74 45.5t-47 29.5q-139 -174 -330 -289zM1194 1665q-4 -33 11.5 -61.5t42 -48t61 -27.5 t71.5 0q35 8 67 28.5t57.5 47t43 58.5t23.5 64q10 100 -40 137t-173 23q-27 -25 -54.5 -50.5t-51 -53t-39 -57t-19.5 -60.5z" />
<glyph unicode="&#xdd;" horiz-adv-x="911" d="M256 219q-4 -37 14.5 -71.5t48 -59.5t66.5 -37t68 -6l18 6q10 10 41 37t66.5 57.5t68.5 58t45 40.5q-2 -6 -2 -27q0 -8 -1 -17.5t-3 -19.5t-3 -18t-1 -19v-20q-10 -74 -26.5 -124t-45 -95t-72.5 -93t-110 -116q0 -16 13.5 -20.5t32 -3.5t35.5 6.5t23 7.5 q55 12 140.5 72.5t167.5 142.5t143 170t68 155l75 645h-340q4 -18 7.5 -39.5t-0.5 -46.5l-17 -141l-4 -37q-4 -29 -9 -53.5t-9 -52.5l-4 -37q-25 -47 -74 -60l55 467h-418q8 -70 20.5 -137t4.5 -151q-6 -49 -17.5 -95.5t-23.5 -89.5t-23.5 -87t-17.5 -91zM309 973h830 l12 104q-4 23 -14.5 49.5t-32.5 36.5l-98 88l-8 -1q-7 -1 -9 -1q-4 -2 -10 -4l-6 -2l-182 -151l-76 -50l-148 136l-1 7q-1 7 1 9q0 12 13.5 25.5t32 28t38 29.5t31.5 28q-16 43 -35.5 51t-58.5 -2q-131 -33 -195.5 -128.5t-81.5 -219.5q-2 -10 -2 -19v-14zM656 1546 q-3 -6 1 -6q8 -41 41 -57.5t82 -40.5q6 -6 33 17.5t62.5 62.5t74.5 87t72 89t52.5 68.5t15.5 27.5l-242 90l-189 -332z" />
<glyph unicode="&#xde;" horiz-adv-x="946" d="M190 303q-4 -29 5.5 -46t40.5 -9q14 2 24 11t20.5 19.5t20.5 19.5t27 13q4 0 16 1t16 1q0 -27 -2 -77t-2 -109t4.5 -119.5t16.5 -107.5t35.5 -73t60.5 -15q18 4 27.5 11t16.5 20.5t13.5 35t18.5 53.5q2 8 10 26.5t18.5 40t19.5 43t13 34.5q2 8 38 35.5t87 65.5t112.5 82 t113 83t87 69.5t37.5 43.5l50 415h-750q4 -23 5 -45t-3 -51q-6 -61 -34.5 -114.5t-61.5 -104.5t-61.5 -103.5t-34.5 -109.5zM348 1036.5q4 -32.5 12 -63.5h787l6 57q0 10 -11.5 40t-30.5 59.5t-43 51t-48 15.5q-23 -6 -66 -38t-87 -68.5t-77.5 -65.5t-35.5 -29 q-12 27 -24.5 74t-30 95t-39 86t-52.5 44l76 86q-6 16 -16.5 21.5t-23.5 4.5t-28.5 -6t-29.5 -7q-117 -29 -171.5 -100.5t-64.5 -178.5q-6 -45 -2 -77.5zM698 520l35 307l37 41l29 -24l-43 -373z" />
<glyph unicode="&#xdf;" horiz-adv-x="1204" d="M190 -96q-10 -80 3.5 -134.5t37 -86t52 -44t51.5 -6.5q25 6 74 57.5t98 119t88 136t45 111.5q2 29 5 47.5t1 27.5t-11 8t-34 -11q0 27 3 94.5t7 144t8.5 146.5t8.5 98q10 92 35.5 155.5t52.5 102.5h-475q-14 -23 -19.5 -36t-7.5 -23v-27q0 -18 1 -31.5t1 -15.5 q2 -6 11.5 -11t20.5 -9t21.5 -6t14.5 -2zM315 973h1031l8 155q4 27 -11.5 47.5t-40 34t-52 21.5t-48.5 12q-29 0 -86 8.5t-119.5 18.5t-120 19t-83.5 11q-2 0 -8.5 -1t-8.5 -1q-23 -16 -52.5 -25t-70.5 -20l-78 -18q-37 -10 -67 -18q-66 -84 -113 -143.5t-80 -100.5z M668 528l215 -26q39 -6 39 -45q0 -27 -15.5 -63t-41 -74.5t-58.5 -76.5t-68 -67q-18 -16 -13 -31.5t24.5 -31t46 -29.5t51.5 -29q2 -4 12 0l21 6q31 6 74.5 33t92 65t96.5 84t87 92t65.5 90t30.5 77l14 368h-417l-17 -139l-100 21q-41 -59 -69.5 -111.5t-69.5 -112.5z" />
<glyph unicode="&#xe0;" horiz-adv-x="1097" d="M293 406q-14 -119 3 -210.5t103 -154.5q18 -14 39 -25.5t54 -3.5q35 8 75.5 50t80.5 90.5t76 89.5t60 47q12 2 32 -25.5t46.5 -59.5t60 -55.5t74.5 -13.5l27 6q14 16 49 51l74 74t74.5 75t52.5 54q23 23 33 28t16 17q0 14 2 21q2 8 -2 18t-11 19.5t-14.5 15.5t-9.5 6 q-20 -4 -29.5 -14t-27.5 -14q-23 -6 -30 25.5t-7 57.5v25l4 16l10 86l4 33l9 78q2 16 2 29q0 14 2 28h-381l-49 -421q0 -6 -8.5 -18.5t-19.5 -25t-21.5 -23.5t-14.5 -17l-12 -5q-12 2 -12 13q-2 57 3 107t11 98l22 208l5 37l6 47h-383q-10 -23 -19.5 -46t-13.5 -48l-4 -39 q-4 -35 -9.5 -65.5t-7.5 -65.5l-6 -41zM446 973h328l6 18h4l7 2q6 -2 12 -8t10 -12h428q4 16 9 32.5t12 36.5q12 14 28.5 25.5t31.5 23t27.5 25.5t14.5 35q4 33 -17.5 48t-53 21.5t-64.5 9.5t-51 13q-31 10 -55.5 28.5t-47 35t-47 25.5t-57.5 1q-41 -10 -66.5 -32.5 t-64.5 -51.5q-47 -33 -98.5 -64.5t-103.5 -65.5t-101.5 -69.5t-90.5 -76.5zM717 1679q-6 -4 7 -24.5t37.5 -47t55.5 -57t59.5 -53t51 -34t30.5 -1.5q27 25 51.5 44.5t44 38t34 38t24.5 45.5q8 2 4 6l-4 4l-121 258z" />
<glyph unicode="&#xe1;" horiz-adv-x="1097" d="M293 406q-14 -119 3 -210.5t103 -154.5q18 -14 39 -25.5t54 -3.5q35 8 75.5 50t80.5 90.5t76 89.5t60 47q12 2 32 -25.5t46.5 -59.5t60 -55.5t74.5 -13.5l27 6q14 16 49 51l74 74t74.5 75t52.5 54q23 23 33 28t16 17q0 14 2 21q2 8 -2 18t-11 19.5t-14.5 15.5t-9.5 6 q-20 -4 -29.5 -14t-27.5 -14q-23 -6 -30 25.5t-7 57.5v25l4 16l10 86l4 33l9 78q2 16 2 29q0 14 2 28h-381l-49 -421q0 -6 -8.5 -18.5t-19.5 -25t-21.5 -23.5t-14.5 -17l-12 -5q-12 3 -12 13q-2 57 3 107t11 98l22 208l5 37l6 47h-383q-10 -23 -19.5 -46t-13.5 -48l-4 -39 q-4 -35 -9.5 -65.5t-7.5 -65.5l-6 -41zM446 973h328l6 18h4l7 2q6 -2 12 -8t10 -12h428q4 16 9.5 32.5t11.5 36.5q12 14 28.5 25.5t31.5 23t27.5 25.5t14.5 35q4 33 -17.5 48t-53 21.5t-64.5 9.5t-51 13q-31 10 -55.5 28.5t-47 35t-47 25.5t-57.5 1q-41 -10 -66.5 -32.5 t-64.5 -51.5q-47 -33 -98.5 -64.5t-103.5 -65.5t-101.5 -69.5t-90.5 -76.5zM768 1548q-4 -10 2 -4q4 -23 15.5 -36t27.5 -22t36.5 -17.5t45.5 -22.5q8 -6 34.5 17.5t61.5 61.5t73 85t69.5 88t52 69.5t18.5 30.5l-243 90l-189 -332z" />
<glyph unicode="&#xe2;" horiz-adv-x="1097" d="M276 406q-14 -119 3.5 -210.5t103.5 -154.5q18 -14 38.5 -25.5t53.5 -3.5q37 8 78 50t81 90.5t74.5 89.5t59.5 47q12 2 31.5 -25.5t46 -59.5t60.5 -55.5t75 -13.5l27 6q14 18 49 53t73.5 74t74.5 75t52 54q29 25 40.5 32t11.5 32q2 8 -2 19.5t-11.5 20.5t-14.5 15t-9 4 q-20 -4 -29.5 -14t-28.5 -14q-23 -6 -29.5 25.5t-6.5 57.5q0 20 2 25l2 16l10 86l4 33l10 80q0 14 1 27.5t3 27.5h-383l-49 -421q0 -6 -8 -18.5t-19.5 -25t-21.5 -23.5t-14 -17l-6 -3h-7q-12 1 -12 13q2 53 5 104t10 99l22 208l6 39l4 45h-381q-23 -45 -34 -94l-5 -39 q-4 -35 -9 -65.5t-7 -65.5l-6 -39zM369 1409q-4 -6 15 -17.5t52 -24.5t74 -26.5t78 -21.5t65.5 -10t38.5 8q20 23 59.5 65.5t80 89t75.5 85t47 53.5l174 -199l328 272q4 4 -29.5 14.5t-89 22t-122 22.5t-126 19t-103.5 10.5t-54 -4.5zM432 973h326l6 18l4 2l10 2 q4 -4 8.5 -10t12.5 -12h430q6 32 18 71q12 14 28.5 25.5t32 23t27 24.5t13.5 34q4 33 -17.5 48t-53.5 22.5t-64.5 10.5t-51.5 11q-31 10 -55.5 28.5t-47 35t-47 26.5t-57.5 2q-41 -10 -64.5 -32.5t-64.5 -51.5q-49 -35 -101 -66.5t-103.5 -65.5t-100.5 -69.5t-88 -76.5z" />
<glyph unicode="&#xe3;" horiz-adv-x="1097" d="M281 403q-16 -119 2 -210t102 -154q20 -14 39.5 -25.5t52.5 -3.5q35 8 76 50t81 90.5t75.5 89.5t60.5 47q12 2 31.5 -26t46 -59.5t60.5 -55t75 -13.5l27 6q14 16 49 51t73.5 74t74.5 75t53 54q23 23 33 29t14 16q2 2 2 8q0 8 2 13q0 16 -14.5 37.5t-24.5 21.5 q-18 -4 -27.5 -14t-27.5 -15q-16 -4 -24.5 9.5t-10.5 34t-1 40t1 25.5l2 16l8 86l4 33l10 78q2 16 3 30.5t3 28.5h-383l-49 -424q0 -6 -8 -18t-18.5 -24.5t-20.5 -23.5t-16 -18l-12 -4q-15 3 -11 15q-2 55 2 105t11 97l22 209l6 37l4 49h-377q-12 -23 -22 -46t-16 -50 l-5 -39q-4 -35 -9 -65.5t-9 -65.5l-2 -41zM358 1450q-6 -6 25 -15.5t81 -19.5t110.5 -19.5t115.5 -13.5t96 -3t52 12q47 45 90 85t71 68l162 -82l342 275q4 4 -27.5 14t-80.5 19.5t-109.5 18.5t-115 14t-95.5 4t-51 -11q-51 -47 -85 -93t-62 -81l-179 102zM440 973h318l6 16 h4l10 4q6 -10 19 -20h432q6 30 18 67q12 14 28.5 25.5t32 23t27 24.5t13.5 36q4 33 -17.5 48t-52.5 21.5t-63.5 9.5t-51.5 13q-31 10 -54.5 28.5t-47 35t-48 25.5t-55.5 1q-43 -10 -67.5 -31.5t-63.5 -50.5q-47 -35 -99 -66.5t-102.5 -65.5t-98.5 -68.5t-87 -75.5z" />
<glyph unicode="&#xe4;" horiz-adv-x="1097" d="M283 403q-14 -119 3 -209t103 -153q16 -16 38 -27.5t54 -3.5q35 8 76 50t81 90.5t76 89.5t60 47q12 2 31.5 -26t46.5 -59.5t60.5 -55t74.5 -13.5l27 6q14 18 49 53l74 74t74.5 75t52.5 54q14 14 23 20.5t14.5 11.5t8.5 12t5 20q0 16 -14.5 39.5t-24.5 19.5 q-18 -4 -27.5 -14t-27.5 -15q-12 -4 -19.5 4.5t-11.5 22.5t-5 29.5t-1 27.5q0 23 2 25v16l12 88l2 31l10 80q2 16 2 29q0 14 2 28h-380l-50 -424q-2 -6 -10 -17t-18.5 -24.5t-19.5 -24.5t-15 -18l-6 -2h-6q-12 2 -13 13q0 53 4.5 104t10.5 98l22 209l4 39l6 47h-381 q-27 -49 -34 -96l-4 -39q-4 -35 -9.5 -65.5t-9.5 -65.5l-4 -39zM428 1507q-6 -35 9.5 -63.5t43 -48t62.5 -27.5t69 0q33 8 66 27.5t59.5 47t44 59.5t21.5 65q10 104 -40 137.5t-175 19.5q-25 -25 -52.5 -50t-50 -52t-39 -55.5t-18.5 -59.5zM438 973h324l6 16l6 2l8 2 q4 -4 8.5 -9t10.5 -11h432q6 29 18 69q12 14 28.5 25.5t32 23t27 24.5t13.5 34q4 33 -17.5 48t-52.5 22.5t-63.5 10.5t-51.5 11q-31 10 -55.5 28.5t-47 35t-47 26.5t-56.5 2q-41 -10 -67 -32.5t-65 -51.5q-47 -35 -98 -66.5t-102 -64.5t-100.5 -68.5t-90.5 -76.5zM1067 1663 q-4 -33 11.5 -61.5t43 -48t62.5 -27.5t69.5 0t66.5 28.5t57.5 47t42 58.5t20.5 64q12 100 -38 136t-173 22q-27 -25 -54.5 -50.5t-50 -53t-39 -56t-18.5 -59.5z" />
<glyph unicode="&#xe5;" horiz-adv-x="1097" d="M287 406q-14 -123 4 -212.5t104 -152.5q16 -14 37 -26.5t53 -4.5q35 8 76 50t81 91.5t76 90.5t60 47q12 2 31.5 -25.5t46.5 -60.5t60.5 -56.5t74.5 -13.5l27 8q14 16 49 51l74 74t74.5 75t52.5 54q23 18 33 25.5t14 17.5q2 2 2 8q0 8 2 15q2 16 -13.5 37.5t-23.5 21.5 q-20 -4 -29.5 -15t-27.5 -16q-12 -4 -19.5 4.5t-11.5 22.5t-5 29.5t-1 27.5q0 23 2 27l2 14l10 88l2 31l10 80q2 16 3.5 29.5t3.5 27.5h-383l-50 -421q0 -6 -8 -18.5t-18 -26t-20.5 -24.5t-16.5 -18h-6l-6 -2q-15 3 -11 13q2 55 4.5 105t8.5 97l22 211l4 37l7 47h-379 q-25 -41 -37 -94l-4 -41q-4 -35 -9.5 -64.5t-9.5 -66.5l-4 -39zM444 973h322l6 16l6 2l8 2q4 -4 8.5 -9t10.5 -11h432q6 29 18 69q12 14 28.5 25.5t32 23t27 24.5t13.5 34q6 35 -15.5 50t-53.5 21.5t-64.5 9.5t-51.5 13q-31 8 -55 26.5t-46.5 35t-47.5 26.5t-57 2 q-41 -10 -67 -32.5t-64 -51.5q-94 -66 -201 -130t-189 -146zM666 1434q-2 -10 28.5 -20.5t73.5 -19t86 -10.5t66 5q6 2 11 4l5 2q2 0 14.5 9t27.5 20.5t30.5 22.5t21.5 15q72 41 112 60.5t60.5 40t27.5 49t13 88.5l2 20q2 12 3 24.5t1 24.5l2 19q-10 33 -42.5 65.5 t-96.5 28.5q-4 -4 -19.5 -13t-34 -19.5t-34.5 -17.5t-20 -7q-18 -8 -63.5 -25.5t-92.5 -36t-84 -33t-37 -16.5l-29 -246q-31 -6 -32 -26v-8zM954 1542l23 197q12 -2 21.5 -9.5t9.5 -11.5l-21 -184q-14 -4 -24.5 -2t-8.5 10z" />
<glyph unicode="&#xe6;" horiz-adv-x="1673" d="M188 319q-14 -119 4.5 -210t104.5 -154q18 -14 37.5 -25.5t52.5 -3.5q35 8 76 50t81 90.5t75.5 89.5t60.5 47q12 2 31.5 -25.5t46 -59.5t60.5 -55.5t75 -13.5l27 6q16 16 45.5 47t68.5 68q61 -41 130 -62.5t134 -5.5q25 6 75 39t110.5 81t124 104.5t117 107.5t88 92 t36.5 58q2 20 -8 29.5t-26 9.5t-39 -7.5t-43 -19.5q-37 -16 -74 -34.5t-82 -31.5q-25 -8 -72 -8q-27 0 -55.5 5t-51 15.5t-35.5 28t-9 41.5q4 37 31.5 71t69.5 64.5t94.5 61.5t103.5 61h-217q-14 -14 -37 -29.5t-38 -23.5t-18 -10l9 63h-627q10 -4 17 -8l6 -4l-58 -496 q0 -6 -8 -18t-18.5 -24.5t-20.5 -23.5t-16 -17l-13 -5q-14 3 -10 15q-2 55 2 105t10 98l41 356l7 22h-332q-35 -39 -60.5 -83t-38.5 -97l-4 -39q-4 -35 -9 -65.5t-7 -65.5zM446 973h918l6 49q0 -6 9.5 -20.5t21.5 -28.5h397q33 29 54.5 61.5t25.5 71.5q4 10 2 23.5t0 15.5 l-199 282q-2 2 -27.5 6.5t-37.5 8.5l-17 -4q-33 -8 -89 -37t-123.5 -69t-138 -89t-132.5 -98q-10 4 -21.5 6t-21.5 6q-31 10 -54.5 28.5t-47 35t-48 25.5t-55.5 1q-43 -10 -68.5 -32.5t-62.5 -51.5q-70 -47 -145.5 -92t-145.5 -98z" />
<glyph unicode="&#xe7;" horiz-adv-x="974" d="M139 244q-4 -39 21.5 -79t67.5 -73t94.5 -57.5t101.5 -32.5q29 -35 72 -66.5t84 -56.5q-23 -18 -53.5 -31.5t-59.5 -29t-52.5 -35t-31.5 -49.5q12 -59 66.5 -79t140.5 -3l96 45q27 27 44.5 49.5t27.5 41.5t16 40.5t10 50.5q10 88 -38 132t-134 55q43 33 98.5 75.5 t109.5 85.5t97.5 79t61.5 52q35 29 51.5 43.5t24.5 34.5q2 8 3 15.5t3 17.5q4 23 -5 39t-42 8q-47 -10 -92 -37.5t-99 -40.5q-25 -6 -64.5 -8t-76.5 4t-61.5 23.5t-20.5 48.5l43 364h-430zM258 973h829q35 34 41 65q0 4 -1 10l-1 5q-6 8 -21 37.5t-32.5 64.5t-33 67.5 t-19.5 45.5q-6 0 -15.5 16t-22.5 35.5t-29.5 34t-37.5 10.5q-6 -2 -10 -4t-8 -2q-29 -16 -98.5 -55t-147.5 -82t-147.5 -81t-100.5 -53q-33 -23 -73.5 -51t-71.5 -63zM682 870q16 -35 43 -62t74 -17q23 4 66.5 26.5t92.5 52.5h-276z" />
<glyph unicode="&#xe8;" horiz-adv-x="1007" d="M279 317q-6 -61 29.5 -120.5t95 -103.5t132 -65t140.5 -5q25 6 75 39.5t110.5 80.5t125 103.5t117.5 108t88 92t37 57.5q2 37 -37 37q-16 0 -39 -7.5t-43 -17.5q-39 -16 -72.5 -34.5t-83.5 -30.5q-25 -8 -69 -9q-27 0 -55.5 5.5t-51 15.5t-36 27.5t-9.5 41.5 q4 47 49 89.5t107.5 83t133.5 80.5t126 85h-350q2 -6 6 -6q6 -10 17.5 -29.5t8.5 -21.5q-2 -14 -30.5 -34.5t-51 -35t-26.5 -16.5l16 143h-395zM397 973h842q14 25 16 49q-2 10 0 25.5t5 17.5l-199 283q-2 2 -27.5 6t-38.5 8l-20 -6q-37 -10 -113 -49t-162 -94.5 t-168.5 -119t-134.5 -120.5zM649 1679q-6 -4 26 -44t76 -83t86 -73.5t54 -18.5q57 53 96 85t57 81q4 2 2 7l-2 5l-120 258z" />
<glyph unicode="&#xe9;" horiz-adv-x="1007" d="M276 317q-6 -61 30 -120.5t96.5 -103.5t133 -65.5t140.5 -4.5q25 6 75 39.5t110.5 80.5t125 103.5t117.5 108t88 92t37 57.5q2 27 -16.5 33t-45 -0.5t-56.5 -19.5t-50 -23q-35 -18 -76 -35t-102 -17q-27 0 -55.5 5.5t-51 15.5t-36 27.5t-9.5 41.5q4 47 48 90.5t106.5 83 t133.5 80.5t126 84h-350q6 -6 8 -6q6 -10 18.5 -29.5t9.5 -21.5q-2 -10 -18 -24.5t-35.5 -27.5t-36 -23.5t-18.5 -12.5l16 145h-395zM397 973h842q14 25 16 49q-2 10 0 25.5t2 17.5l-196 283q-4 2 -28.5 6t-37.5 8l-20 -6q-37 -10 -113 -49t-162 -94.5t-168.5 -119 t-134.5 -120.5zM713 1548q-4 -10 2 -4q4 -23 15 -36t27.5 -22t37 -18.5t45.5 -23.5q6 -6 31.5 17.5t60.5 61.5t75 85t71.5 88t52 69.5t18.5 30.5l-244 92l-190 -334z" />
<glyph unicode="&#xea;" horiz-adv-x="1007" d="M268 324q-8 -61 28 -122t95.5 -105t133 -65.5t141.5 -4.5q23 6 72.5 39.5t110 81t125 103.5t118 107.5t88 92.5t37.5 57q2 20 -8.5 29.5t-26.5 9.5t-39 -7.5t-43 -19.5q-37 -16 -74 -34.5t-82 -30.5q-25 -8 -72 -9q-27 0 -55.5 5.5t-51 15.5t-35.5 27.5t-9 42.5 q4 47 47 89t104.5 82t131 79.5t126.5 82.5h-337q4 -10 16 -30.5t12 -22.5q-2 -10 -19.5 -24.5t-38 -27.5t-36.5 -23l-16 -11l16 139h-397zM281 1427q-6 -6 40 -26.5t108.5 -39t119.5 -27.5t74 7q20 20 59 63.5t81 89.5t79 87t53 57l186 -196l340 272q6 6 -28.5 16.5 t-92 21.5t-128 21.5t-134 17.5t-110.5 8t-58 -5zM383 973h842q18 29 20 55q-2 10 -1 25.5t3 17.5l-198 283q-2 0 -28 4t-38 8l-18 -4q-39 -10 -116 -50t-164 -96.5t-170 -121t-132 -121.5z" />
<glyph unicode="&#xeb;" horiz-adv-x="1007" d="M268 317q-6 -61 30 -120.5t95.5 -103.5t132 -65.5t140.5 -4.5q25 6 73.5 38.5t110 80.5t126 103.5t118 106.5t88.5 91t37 59q2 37 -37 37q-16 0 -38 -7.5t-44 -17.5q-37 -16 -73 -34.5t-83 -30.5q-29 -6 -70 -7q-29 0 -56 4.5t-51 15.5t-37 27.5t-9 40.5q4 49 49 91.5 t107.5 83t133 80.5t128.5 85h-353q2 -6 9 -6q6 -10 16 -30.5t10 -22.5q-2 -14 -30.5 -34.5t-51 -35t-26.5 -16.5l16 145h-395zM389 973h840q6 12 10 23.5t6 25.5q2 6 2 25q0 16 2 18l-198 283q-2 0 -28 4t-38 8l-20 -4q-37 -10 -113 -49t-162 -94.5t-168 -119t-133 -120.5z M407.5 1517.5q-4.5 -30.5 10 -60.5t41 -50.5t62.5 -28.5t73 2q33 8 65.5 29t58 47.5t43 58t21.5 62.5q10 104 -40 139t-173 21q-27 -25 -54.5 -51.5t-50 -53t-37.5 -55.5t-19.5 -59.5zM987 1659q-6 -35 9.5 -63.5t43 -49t63.5 -28t71 3.5q35 8 66.5 28.5t58 47t43 58.5 t20.5 62q10 104 -39 140t-174 20q-25 -23 -52.5 -48.5t-51 -53t-40 -57t-18.5 -60.5z" />
<glyph unicode="&#xec;" horiz-adv-x="724" d="M324 815q-10 -10 2 -27.5t26 -25.5q10 -4 39 -9t41 -1l-63 -555q-2 -23 18.5 -52.5t51 -57.5t65.5 -44t59 -10q31 6 86.5 47t111.5 94t99 104.5t47 79.5q8 76 -102 35q-2 8 -2 25v39q0 33 1 73.5t2 79.5t2 70t1 45q8 53 34.5 85t51.5 60h-518zM473 973h451l-201 149 q-29 20 -52.5 18.5t-41 -12t-28.5 -23.5t-15 -15zM483 1534q-4 -2 10.5 -21.5t38 -48t53 -58.5t57.5 -54.5t50.5 -35.5t30.5 -1q31 27 55.5 46t44 36.5t33.5 37t25 46.5q4 2 2 7l-2 5l-121 258z" />
<glyph unicode="&#xed;" horiz-adv-x="724" d="M326 815q-10 -10 1 -27.5t25 -23.5q2 -4 13.5 -6t24.5 -4t26.5 -3t17.5 1l-63 -555q-2 -23 18.5 -52.5t51 -57.5t65.5 -44t59 -10q18 4 51 24.5t70 51t76 66.5t70.5 71t52 64.5t22.5 47.5q10 76 -100 35q-2 16 -3 63.5t-1 100.5t2 101.5t6 66.5q8 53 33.5 85t52.5 60 h-518zM475 973h451l-203 149q-31 25 -68 17q-31 -8 -46 -26.5t-21 -22.5zM492 1399q-4 -6 2 -6q4 -23 15 -35t27.5 -21.5t37 -18.5t44.5 -24q4 -6 30 17.5t60.5 62.5t75.5 85t74 87t52.5 70t15.5 31l-242 90l-190 -332z" />
<glyph unicode="&#xee;" horiz-adv-x="724" d="M145 1294q-6 -6 35 -26.5t95.5 -40t105.5 -29.5t65 4q18 18 54.5 60.5t74 86.5t70.5 82.5t45 53.5l166 -195l303 260q2 4 -29.5 14.5t-82 24t-110.5 25.5t-115.5 21.5t-97.5 11.5t-54 -7zM313 825q-10 -10 1.5 -27.5t25.5 -25.5q10 -4 40 -9t42 -1l-64 -555 q-2 -23 18.5 -53.5t51.5 -57t65.5 -44t59.5 -11.5q29 8 85 50t112.5 94.5t99.5 103.5t45 78q6 78 -102 34q-2 16 -3.5 63.5t-1.5 100.5t2.5 101.5t6.5 66.5q6 49 28.5 80t44.5 57h-514zM455 973h471v2l-215 158q-31 25 -68 16q-33 -8 -47 -26.5t-21 -22.5z" />
<glyph unicode="&#xef;" horiz-adv-x="724" d="M252 1372q-4 -33 11.5 -61.5t42 -48t61 -27.5t71.5 2q35 8 67 28.5t58.5 47t43 58.5t20.5 63q12 104 -38 137.5t-175 19.5q-51 -49 -102.5 -103t-59.5 -116zM313 815q-10 -10 2.5 -27.5t26.5 -25.5q10 -4 39 -9t41 -1l-64 -555q-2 -23 18.5 -53.5t51.5 -58.5t65.5 -44 t59.5 -10q31 8 86 50t111.5 94t99.5 103.5t47 77.5q6 74 -104 35q-2 10 -3.5 25.5t-1.5 38.5q0 33 1.5 73.5t2.5 79.5t3 70t4 45q4 53 30.5 86t53.5 61h-516zM463 973h450l-200 149q-29 20 -52.5 18.5t-41 -12t-28.5 -23.5t-16 -15zM776 1503q-6 -35 8.5 -63.5t42 -48 t63.5 -27.5t71 0q33 8 65.5 28.5t58 47t43 58.5t21.5 65q10 104 -38 137.5t-177 19.5q-53 -47 -102.5 -102t-55.5 -115z" />
<glyph unicode="&#xf0;" horiz-adv-x="1007" d="M229 283l199 -283q2 -2 26.5 -6t37.5 -8l18 4q31 8 88 36.5t127 70.5t142.5 92.5t133 101.5t100.5 98t44 84l45 397h-455q29 -23 21 -63.5t-45 -77.5q-39 -39 -94.5 -76t-120.5 -73q-47 -27 -93.5 -56.5t-83 -62.5t-61.5 -68t-29 -71q2 -10 1 -24zM258 844 q-4 -29 13.5 -35t50.5 2q35 10 67.5 26.5t67.5 32.5h-187q-12 -18 -12 -26zM362 973h840l6 55q4 43 -14 87t-51 83q37 59 57.5 96t24.5 72q-2 0 -4 1t-4 1l-5 -2l-163 -92q-53 35 -117 50t-121 1q-27 -6 -80 -43t-117.5 -88t-132 -110.5t-119.5 -110.5zM586 801q-6 -6 29 14 t92 55h-76zM655 535q2 12 30 33.5t51.5 35.5t27.5 17l-25 -215q0 4 -7 15t-17 23.5t-20.5 22.5t-14.5 14q-6 10 -15.5 30.5t-9.5 23.5z" />
<glyph unicode="&#xf1;" horiz-adv-x="1361" d="M276 156q-6 -10 0.5 -21.5t16.5 -23t22.5 -19.5t18.5 -12l215 -127l37 8q2 0 35.5 28.5t80 68.5t95.5 83t82 72l36 37l3 14l2 19q-2 6 -12.5 26.5t-14.5 26.5l59 534h-628q2 -25 23.5 -25.5t46 2.5t42.5 3t17 -21l-64 -557q-4 -4 -21.5 -20t-37 -35.5t-36 -37 t-18.5 -23.5zM377 973h606l18 18l48 -18h479l14 121q10 6 23.5 20t26 31.5t20.5 33t8 23.5q0 2 -21.5 19.5t-37.5 25.5l-127 60q-6 0 -25.5 13t-40 29.5t-37 31t-18.5 16.5l-7 -1q-8 -1 -10 -1q-43 -10 -93 -49t-102 -87.5t-101.5 -95.5t-88.5 -73q-16 25 -37.5 55.5t-50 56 t-63.5 38.5t-76 3l-18 -4q-72 -45 -150 -121t-139 -145zM442 1456q-8 -8 40 -20.5t119 -23.5t145.5 -19.5t121.5 -8.5q41 0 52 11q47 45 93 86t74 69l156 -82l344 275q4 6 -26.5 15t-80.5 18.5t-110.5 18.5t-116 14.5t-95.5 4t-50 -11.5q-49 -47 -84 -93t-63 -81l-179 101z M965 233q-4 -25 19.5 -51t56 -47.5t67.5 -34t53 -8.5q10 4 20.5 10.5t14.5 6.5l295 251q35 33 52.5 48.5t25.5 31.5q2 12 6 31q4 41 -27.5 52.5t-68.5 13.5l37 333h-480z" />
<glyph unicode="&#xf2;" d="M260 197q-2 -20 24.5 -44t70.5 -46.5t98.5 -41t108.5 -30.5t102.5 -16.5t76.5 4.5q10 4 21 7l12 3q6 4 34 27.5t58.5 52t58 53t33.5 31.5q98 68 166 109.5t113 75.5t71.5 66.5t42 79.5t25.5 118t23 181l4 43h-467l-51 -456q-23 -6 -45.5 -3t-20.5 23l49 436h-479 l-67 -587q-33 -8 -45.5 -25.5t-14.5 -40.5zM414 973h467l2 16q8 -4 24 -16h506q0 10 1 19t3 20l4 47q-10 49 -29.5 101t-52 95t-77.5 72t-105 29q-8 -8 -39 -29.5t-65.5 -45.5t-66.5 -43t-40 -24q-31 -23 -107.5 -56.5t-160.5 -69t-160 -67.5t-104 -48zM653 1620 q-4 -2 9.5 -21.5t38 -46t54 -57.5t58.5 -54.5t51.5 -35.5t30.5 -4q57 53 96 86t58 82q4 2 3 7l-1 5l-121 256z" />
<glyph unicode="&#xf3;" d="M252 195q-2 -23 25.5 -46.5t71.5 -44t99.5 -39t109.5 -29.5t102.5 -15.5t76.5 2.5q10 2 21 6l10 4q8 4 34.5 27.5t57.5 52t58.5 53t35.5 31.5q98 68 165 109.5t111 74.5t69.5 65.5t42 79.5t26.5 119t25 182l6 43h-469l-51 -458q-23 -4 -45.5 -1t-18.5 23l49 436h-479 l-68 -589q-33 -6 -46 -23.5t-15 -40.5zM410 973h467l2 16q8 -4 24 -16h504q2 10 3 19t3 20l4 47q-10 49 -30.5 101t-52 95t-77 72t-104.5 29q-6 -10 -39 -33t-69.5 -46.5t-68.5 -41.5t-36 -21q-20 -14 -62 -34.5t-95.5 -43t-111 -47t-108.5 -47t-92 -41t-61 -28.5zM750 1472 q-5 -8 4 -6q4 -23 14 -36t25.5 -23t36 -19.5t44.5 -23.5q8 -4 35 20.5t62 62.5t73.5 85t69.5 87t51.5 67.5t18.5 29.5l-242 92l-188 -329z" />
<glyph unicode="&#xf4;" d="M252 193q-2 -20 24.5 -44t70.5 -46.5t99.5 -41t110.5 -31t103.5 -15.5t76.5 5q10 4 21 8l12 3q8 4 34.5 27.5t57.5 52t57.5 53t32.5 31.5q98 68 166 109.5t113 75.5t70.5 66.5t42 79.5t26.5 118t23 181l6 45h-469l-51 -458q-23 -6 -45.5 -3t-18.5 23l49 438h-479 l-68 -589q-33 -8 -46 -25.5t-17 -40.5zM381 1446q-4 -6 17.5 -17.5t56 -24.5t77.5 -25.5t83 -20.5t71 -9t41 9q20 23 59 65.5t80 89t78 86t53 56.5l187 -197l342 275q4 6 -32 16t-93.5 20.5t-126 20.5t-132 16t-110.5 8.5t-59 -4.5zM410 973h467l2 14q4 -4 11 -7t13 -7h502 l6 37l6 47q-10 49 -30.5 101t-53.5 95t-78 72t-102 29q-8 -10 -40 -32t-67.5 -44.5t-67.5 -41.5t-38 -24q-20 -14 -62 -34.5t-94.5 -43t-110 -46t-109.5 -45t-93 -40t-61 -30.5z" />
<glyph unicode="&#xf5;" d="M248 193q-2 -20 24.5 -44t70.5 -46.5t99.5 -41t110.5 -31t103.5 -15.5t76.5 5q8 2 19 6l12 5q8 4 34.5 27.5t57.5 52t57.5 53t34.5 31.5q96 68 164 110.5t113 75.5t71.5 64.5t43 78.5t26.5 119t23 182l4 45h-467l-52 -460q-23 -4 -45 -1t-18 23l49 438h-479l-70 -591 q-33 -8 -45 -24.5t-16 -39.5zM377 1444q-6 -6 24.5 -15.5t80.5 -18.5t111.5 -17.5t116 -13.5t95.5 -4t51 11q47 45 91 84t73 68l160 -80l342 275q6 6 -42 17t-119 22.5t-146.5 19.5t-122.5 8q-41 0 -50 -8q-51 -47 -84.5 -94t-62.5 -82l-178 102zM408 973h464l2 14 q4 -4 10.5 -7t12.5 -7h504l6 37l6 47q-10 49 -30.5 101t-53.5 95t-78 72t-102 29q-8 -10 -40 -33t-68.5 -45.5t-68.5 -42t-38 -23.5q-23 -12 -64 -31.5t-93 -42t-108.5 -46t-107.5 -46t-92 -41t-61 -30.5z" />
<glyph unicode="&#xf6;" d="M248 195q-2 -23 24.5 -45.5t71.5 -45t100.5 -41t109.5 -31t102.5 -15.5t76.5 6q10 2 21 5l10 3q8 4 34.5 27.5t57.5 52t57.5 53t34.5 31.5q98 68 166 110.5t112 75.5t69.5 65.5t42 79.5t26.5 119t25 182l6 43h-469l-52 -458q-23 -4 -45 -1t-18 21l49 438h-479l-68 -589 q-33 -8 -46 -24.5t-15 -39.5zM406 973h466l2 16q7 -4 23 -16h504l6 37l6 49q-10 49 -29.5 101t-52.5 95t-78 72t-104 29q-10 -8 -42 -29.5t-66.5 -45.5t-66.5 -44l-40 -25q-23 -12 -65 -31.5t-94 -43t-109.5 -48t-108.5 -46t-92 -41t-59 -29.5zM436 1473q-6 -35 8.5 -64 t42 -49.5t63.5 -27.5t71 3q35 8 67.5 28.5t58 47.5t42 58.5t20.5 62.5q10 104 -37 139t-176 19q-25 -25 -52.5 -50.5t-50 -52t-39 -55.5t-18.5 -59zM1075 1630q-6 -35 8.5 -63.5t42 -48t63.5 -27.5t71 0q33 8 65.5 27.5t59 47t44 59.5t21.5 65q10 104 -40 138.5t-173 20.5 q-27 -25 -54.5 -50t-50 -53t-39 -56.5t-18.5 -59.5z" />
<glyph unicode="&#xf7;" horiz-adv-x="925" d="M195 471q-12 -4 34 -4q33 0 88.5 2t119 6t130 9t124 10.5t96 11.5t49.5 12q45 29 80.5 48.5t64.5 37t50.5 32.5t39.5 38q2 2 -1 5l-3 3l-438 10zM455 172q-4 -33 11 -61.5t43 -48t62.5 -27.5t69.5 0q33 8 65.5 28.5t58.5 47t43 58.5t21 64q12 100 -38 136t-175 22 q-27 -25 -54 -51.5t-50 -53t-38 -55t-19 -59.5zM543 870q6 -27 24.5 -48t44 -34.5t55 -18.5t60.5 3q41 10 77.5 36.5t65.5 61.5h-327zM559 973h356q10 104 -40 136.5t-173 18.5q-41 -35 -80.5 -73.5t-62.5 -81.5z" />
<glyph unicode="&#xf8;" d="M180 186q-2 -23 24.5 -45t70.5 -44.5t99.5 -41t111 -31t103.5 -15.5t77 5q8 2 19 6l11 3q8 4 35 27.5t57.5 52t57 53t35.5 30.5q98 68 165.5 110t112.5 76t70.5 66.5t42 80.5t27 119t22.5 181l4 45v6h-459l2 -20l-90 -117l17 137h-484l-67 -598q-33 -8 -45.5 -25.5 t-16.5 -39.5zM356 973h449l2 8q4 -2 6 -4t6 -4h516q0 8 4 28l7 48q-10 49 -32 101t-54.5 95t-76.5 72t-102 31q-8 -10 -39.5 -33t-68.5 -45.5t-68 -42t-37 -23.5q-31 -18 -99.5 -49t-146 -64.5t-152.5 -65.5t-114 -52zM741 424l13 104l75 78l-8 -164q-12 -4 -26.5 -10 t-26.5 -10t-20 -4q-6 0 -7 6z" />
<glyph unicode="&#xf9;" horiz-adv-x="1361" d="M291 188q12 -41 54 -77.5t92 -65.5t95.5 -50.5t63.5 -33.5l18 6q43 10 84 43t82 72t85 72.5t91 46.5q45 10 75 -7.5t57.5 -39t59.5 -37t79 -2.5q37 8 95 47t114.5 90t99.5 103.5t47 84.5q4 37 -17.5 42t-48 0t-48 -6t-17.5 24l43 370h-463l-51 -456q-2 -10 -20.5 -24.5 t-39 -28t-37.5 -23.5l-16 -10q2 18 7.5 50t11.5 73t12 89t12 99q6 66 13.5 125t11.5 106h-602v-10q-4 -33 7 -42t30.5 -6t45 13.5t50.5 16.5l-61 -537q0 -2 -14.5 -15.5t-24.5 -23.5q-4 -2 -14.5 -8t-22 -13t-21.5 -14.5t-14 -11.5l-1 -5t-1 -7q-2 -6 -2 -14v-5zM416 973 h526q0 43 -10 98t-32.5 101.5t-60.5 73t-91 14.5q-8 -2 -18.5 -5.5t-18.5 -5.5q-14 -12 -50 -46t-77 -73.5t-78 -74.5t-53 -47q-10 -10 -19.5 -18.5t-17.5 -16.5zM836 1665q-2 -2 12 -21.5t37.5 -47t52.5 -58.5t56.5 -54.5t50 -34.5t32.5 -1q29 27 53.5 46t43 36.5t34 37 t25.5 46.5q6 2 4 7l-2 5l-121 258zM991 1077q0 -6 6.5 -20.5t13.5 -30.5t16 -31.5t15 -21.5h465l11 82q41 43 61 71.5t27 71.5v21q-4 6 -5.5 8t-7.5 6t-21.5 14t-47.5 33q-25 12 -55.5 29.5t-59.5 36t-51.5 33t-32.5 20.5q-133 -168 -330 -291l-2 -14z" />
<glyph unicode="&#xfa;" horiz-adv-x="1361" d="M292 194l1 -6q8 -41 51 -76.5t93 -65.5t97.5 -50.5t63.5 -32.5l16 4q43 10 84 43t82 72t85 72.5t91 46.5q45 10 75 -7.5t57.5 -39t59.5 -37t79 -2.5q35 8 94 48t116.5 90t100.5 102.5t47 84.5q2 37 -19.5 42t-48 1t-48 -6t-17.5 23l43 370h-463l-51 -454 q-2 -10 -18.5 -24.5t-37 -28t-37 -23.5t-18.5 -12q0 18 5.5 50t11.5 73t13 89t11 99q8 66 14.5 125t10.5 106h-602v-10q-4 -33 7 -42t30.5 -6t45 13.5t52.5 16.5l-63 -537q0 -2 -13.5 -15.5l-23.5 -23.5q-6 -2 -16.5 -8t-20.5 -13t-20.5 -14.5t-16.5 -11.5l-1 -5t-1 -7 q-2 -8 -1 -13zM416 973h526q0 43 -10 98t-32.5 101.5t-60.5 73t-91 14.5q-8 -2 -17.5 -5.5t-17.5 -5.5q-16 -14 -53 -49t-78 -74t-78 -72.5t-51 -45.5q-10 -10 -19.5 -18.5t-17.5 -16.5zM902 1545q-5 -7 3 -5q2 -23 13.5 -35t28 -21t37 -18.5t42.5 -23.5q8 -6 34.5 17.5 t62.5 62.5t74 86t69.5 88t51 68.5t17.5 27.5l-241 92l-187 -332zM991 1077q2 -6 8.5 -20.5t13.5 -30.5t15 -31.5t14 -21.5h465l11 82q41 43 62.5 72.5t25.5 70.5l2 21q0 8 -2 10t-9.5 6t-25 13t-47.5 32q-27 12 -57.5 29.5t-58.5 36t-50.5 33t-32.5 20.5 q-139 -172 -330 -291l-2 -14z" />
<glyph unicode="&#xfb;" horiz-adv-x="1361" d="M279 186q8 -41 50 -76.5t93 -65.5t97 -50.5t65 -32.5l16 4q43 10 84 43t83 72t85 72.5t90 46.5q45 12 76 -4.5t58.5 -38t59 -38t78.5 -3.5q37 8 95.5 48t115 90t98.5 101.5t46 83.5q4 37 -17.5 41t-47 0t-47 -5t-17.5 26l43 370h-463l-51 -456q-2 -10 -19.5 -24.5 t-38 -28t-37.5 -23.5l-18 -10q8 35 18.5 122t22.5 187q6 66 12 126t11 107h-596q-2 -4 -2 -12q-4 -33 6 -42t29.5 -6t45 13.5t50.5 16.5l-60 -535q0 -2 -14 -16.5t-25 -24.5q-10 -4 -35.5 -20.5t-35.5 -26.5l-1 -5t-3 -7v-19zM403 973h527q0 43 -10.5 98t-34 101.5 t-60.5 71.5t-90 13q-10 -2 -20 -5t-17 -5q-16 -14 -52 -49t-77 -73t-77.5 -72.5t-53.5 -46.5q-10 -10 -18 -18.5t-17 -14.5zM463 1417q-6 -6 15.5 -16t56 -23.5t77.5 -27t82 -20.5t70 -9t41 8q23 25 62.5 68t80.5 89t78 85t53 55l187 -196l340 274q4 6 -32 16.5t-93.5 20.5 t-126 20.5t-132 16.5t-110.5 8t-59 -4zM979 1075q2 -6 7 -19.5t12.5 -28.5t15.5 -30.5t14 -23.5h465l10 80q43 45 63.5 73.5t24.5 69.5l2 21q0 8 -2 10t-10 6t-24.5 13t-45.5 32q-27 12 -57.5 29.5t-58 36t-50 33t-32.5 20.5q-70 -86 -152 -159t-180 -132v-14z" />
<glyph unicode="&#xfc;" horiz-adv-x="1361" d="M283 186q10 -43 52 -78.5t92 -65.5t97 -50.5t66 -30.5l14 4q43 10 85 44t83 72t85 72.5t91 47.5q45 10 75 -7.5t57.5 -39t59 -37t79.5 -2.5q37 8 95 48t114.5 90t98.5 101.5t46 83.5q4 39 -17.5 43t-47 0t-47 -6t-17.5 25l43 370h-463l-51 -456q-2 -14 -32 -35t-53.5 -35 t-27.5 -16q8 33 20.5 121t20.5 188q6 68 12.5 128t10.5 105h-596q-2 -4 -2 -12q-4 -35 6 -43t30.5 -5t46 14.5t52.5 17.5l-64 -537q0 -2 -14 -16.5t-25 -24.5q-10 -4 -35.5 -20.5t-35.5 -24.5l-1 -5t-1 -7q-2 -6 -2 -14v-7zM408 973h526q0 43 -10.5 98t-34 101.5t-60 73 t-90.5 14.5q-10 -4 -19 -6.5t-15 -4.5q-16 -12 -52.5 -47t-77 -75t-77.5 -74.5t-56 -46.5q-10 -10 -18 -18.5t-16 -14.5zM557 1509q-6 -35 8.5 -63.5t42 -48t63.5 -27.5t70 0q33 8 66 28.5t58.5 47.5t43 58.5t21.5 64.5q10 104 -37 137.5t-176 19.5q-27 -25 -54.5 -50 t-50 -52t-38 -55.5t-17.5 -59.5zM983 1075q2 -6 7 -19.5t12.5 -28.5t15.5 -30.5t14 -23.5h465l10 80q43 45 63.5 73.5t24.5 69.5l2 23q4 10 -2 14t-30 14q-16 8 -52 29.5t-75 45.5t-74 45.5t-47 29.5q-139 -174 -330 -289zM1194 1665q-4 -33 11.5 -61.5t42 -48t61 -27.5 t71.5 0q35 8 67 28.5t57.5 47t43 58.5t23.5 64q10 100 -40 137t-173 23q-27 -25 -54.5 -50.5t-51 -53t-39 -57t-19.5 -60.5z" />
<glyph unicode="&#xfd;" horiz-adv-x="911" d="M256 219q-4 -37 14.5 -71.5t48 -59.5t66.5 -37t68 -6l18 6q10 10 41 37t66.5 57.5t68.5 58t45 40.5q-2 -6 -2 -27q0 -8 -1 -17.5t-3 -19.5t-3 -18t-1 -19v-20q-10 -74 -26.5 -124t-45 -95t-72.5 -93t-110 -116q0 -16 13.5 -20.5t32 -3.5t35.5 6.5t23 7.5 q55 12 140.5 72.5t167.5 142.5t143 170t68 155l75 645h-340q4 -18 7.5 -39.5t-0.5 -46.5l-17 -141l-4 -37q-4 -29 -9 -53.5t-9 -52.5l-4 -37q-25 -47 -74 -60l55 467h-418q8 -70 20.5 -137t4.5 -151q-6 -49 -17.5 -95.5t-23.5 -89.5t-23.5 -87t-17.5 -91zM309 973h830 l12 104q-4 23 -14.5 49.5t-32.5 36.5l-98 88l-8 -1q-7 -1 -9 -1q-4 -2 -10 -4l-6 -2l-182 -151l-76 -50l-148 136l-1 7q-1 7 1 9q0 12 13.5 25.5t32 28t38 29.5t31.5 28q-16 43 -35.5 51t-58.5 -2q-131 -33 -195.5 -128.5t-81.5 -219.5q-2 -10 -2 -19v-14zM656 1546 q-3 -6 1 -6q8 -41 41 -57.5t82 -40.5q6 -6 33 17.5t62.5 62.5t74.5 87t72 89t52.5 68.5t15.5 27.5l-242 90l-189 -332z" />
<glyph unicode="&#xfe;" horiz-adv-x="946" d="M190 303q-4 -29 5.5 -46t40.5 -9q14 2 24 11t20.5 19.5t20.5 19.5t27 13q4 0 16 1t16 1q0 -27 -2 -77t-2 -109t4.5 -119.5t16.5 -107.5t35.5 -73t60.5 -15q18 4 27.5 11t16.5 20.5t13.5 35t18.5 53.5q2 8 10 26.5t18.5 40t19.5 43t13 34.5q2 8 38 35.5t87 65.5t112.5 82 t113 83t87 69.5t37.5 43.5l50 415h-750q4 -23 5 -45t-3 -51q-6 -61 -34.5 -114.5t-61.5 -104.5t-61.5 -103.5t-34.5 -109.5zM348 1036.5q4 -32.5 12 -63.5h787l6 57q0 10 -11.5 40t-30.5 59.5t-43 51t-48 15.5q-23 -6 -66 -38t-87 -68.5t-77.5 -65.5t-35.5 -29 q-12 27 -24.5 74t-30 95t-39 86t-52.5 44l76 86q-6 16 -16.5 21.5t-23.5 4.5t-28.5 -6t-29.5 -7q-117 -29 -171.5 -100.5t-64.5 -178.5q-6 -45 -2 -77.5zM698 520l35 307l37 41l29 -24l-43 -373z" />
<glyph unicode="&#xff;" horiz-adv-x="911" d="M246 211q-4 -41 14.5 -75t49 -58.5t67.5 -35.5t67 -5q2 0 8 3l7 3q12 10 44 36.5t66.5 57.5t66.5 58.5t44 40.5q4 -20 -6 -64q0 -18 -1 -35.5t-3 -21.5q-8 -74 -24.5 -124t-45.5 -95.5t-72.5 -93t-109.5 -115.5q0 -16 13 -21.5t30.5 -3.5t34 6t24.5 6q37 10 89.5 42 t108.5 77t111.5 99.5t100.5 111.5t75.5 112.5t36.5 100.5l74 653h-342q12 -43 6 -96l-14 -139l-4 -39q-6 -29 -11.5 -53.5t-9.5 -53.5l-4 -34q-25 -47 -71 -60l53 469l4 6h-420q8 -72 22.5 -141.5t2.5 -157.5q-6 -49 -17.5 -94t-24 -89t-23.5 -88t-17 -89zM299 973h827 l13 96q-4 23 -14.5 49.5t-32.5 36.5l-97 86h-14q-8 -2 -14 -4l-6 -2l-183 -152l-71 -49l-152 133v19q0 12 13.5 25.5t31.5 27.5t37.5 29.5t32.5 27.5q-16 43 -35 51.5t-60 -1.5q-129 -33 -192.5 -128.5t-79.5 -220.5q-2 -6 -2 -12t-2 -12zM379 1524q-6 -35 9 -63.5t43 -48 t62.5 -28t69.5 0t68 29t58.5 48t42 59t20.5 64.5q14 104 -37 138t-174 20q-27 -25 -54.5 -50.5t-50 -53t-39 -56.5t-18.5 -59zM897 1649q-4 -33 10.5 -61.5t41 -49t61 -29t71.5 1.5q37 8 70 29t58.5 47.5t42 59t20.5 65.5q12 100 -39 136t-176 20q-25 -23 -51.5 -48.5 t-50 -53t-40 -57.5t-18.5 -60z" />
<glyph unicode="&#x152;" horiz-adv-x="1699" d="M168 156q-4 -51 36 -99.5t98 -84t122.5 -53t112.5 -7.5q10 4 21 7t13 3q20 14 73.5 55t115 90.5t122 98.5t99.5 80q29 -37 70 -68t87 -50t94 -25.5t93 3.5q25 6 76 39t111.5 81t124 103.5t116.5 106.5t88 91t37 59q4 29 -13.5 35t-49.5 -3q-29 -6 -53.5 -17t-49 -23.5 t-51.5 -24.5t-57 -21q-31 -6 -72 -7t-76 8.5t-57.5 28t-18.5 52.5q2 37 29 70t68 63.5t92 61.5t102 61h-211q-14 -12 -35.5 -27.5t-35 -23.5t-15.5 -10l6 61h-1106q-12 -16 -20 -33.5t-10 -33.5zM395 973h998l6 51q0 -6 10 -21.5t23 -29.5h387q35 31 59.5 63.5t28.5 71.5 q-2 10 0 24.5t0 16.5l-199 283q-4 2 -25.5 6t-37.5 6l-19 -4q-35 -8 -102.5 -41t-145.5 -81t-155.5 -105.5t-132.5 -114.5q-16 27 -26.5 48t-14.5 34q-6 0 -15.5 17t-23 35.5t-29.5 33t-37 8.5q-6 -2 -10 -3t-8 -3q-29 -16 -98.5 -55t-147.5 -82.5t-147.5 -81t-100.5 -52.5z M629 418l51 432q10 -12 20.5 -40t25.5 -55.5t40 -45t63 -7.5q44 13 140 68l-43 -369l-2 -26q-18 -10 -48 -20.5t-90 -14.5q-29 -2 -57.5 1t-52 12t-37.5 24.5t-10 40.5z" />
<glyph unicode="&#x153;" horiz-adv-x="1699" d="M168 156q-4 -51 36 -99.5t98 -84t122.5 -53t112.5 -7.5q10 4 21 7t13 3q20 14 73.5 55t115 90.5t122 98.5t99.5 80q29 -37 70 -68t87 -50t94 -25.5t93 3.5q25 6 76 39t111.5 81t124 103.5t116.5 106.5t88 91t37 59q4 29 -13.5 35t-49.5 -3q-29 -6 -53.5 -17t-49 -23.5 t-51.5 -24.5t-57 -21q-31 -6 -72 -7t-76 8.5t-57.5 28t-18.5 52.5q2 37 29 70t68 63.5t92 61.5t102 61h-211q-14 -12 -35.5 -27.5t-35 -23.5t-15.5 -10l6 61h-1106q-12 -16 -20 -33.5t-10 -33.5zM395 973h998l6 51q0 -6 10 -21.5t23 -29.5h387q35 31 59.5 63.5t28.5 71.5 q-2 10 0 24.5t0 16.5l-199 283q-4 2 -25.5 6t-37.5 6l-19 -4q-35 -8 -102.5 -41t-145.5 -81t-155.5 -105.5t-132.5 -114.5q-16 27 -26.5 48t-14.5 34q-6 0 -15.5 17t-23 35.5t-29.5 33t-37 8.5q-6 -2 -10 -3t-8 -3q-29 -16 -98.5 -55t-147.5 -82.5t-147.5 -81t-100.5 -52.5z M629 418l51 432q10 -12 20.5 -40t25.5 -55.5t40 -45t63 -7.5q44 13 140 68l-43 -369l-2 -26q-18 -10 -48 -20.5t-90 -14.5q-29 -2 -57.5 1t-52 12t-37.5 24.5t-10 40.5z" />
<glyph unicode="&#x178;" horiz-adv-x="911" d="M246 211q-4 -41 14.5 -75t49 -58.5t67.5 -35.5t67 -5q2 0 8 3l7 3q12 10 44 36.5t66.5 57.5t66.5 58.5t44 40.5q4 -20 -6 -64q0 -18 -1 -35.5t-3 -21.5q-8 -74 -24.5 -124t-45.5 -95.5t-72.5 -93t-109.5 -115.5q0 -16 13 -21.5t30.5 -3.5t34 6t24.5 6q37 10 89.5 42 t108.5 77t111.5 99.5t100.5 111.5t75.5 112.5t36.5 100.5l74 653h-342q12 -43 6 -96l-14 -139l-4 -39q-6 -29 -11.5 -53.5t-9.5 -53.5l-4 -34q-25 -47 -71 -60l53 469l4 6h-420q8 -72 22.5 -141.5t2.5 -157.5q-6 -49 -17.5 -94t-24 -89t-23.5 -88t-17 -89zM299 973h827 l13 96q-4 23 -14.5 49.5t-32.5 36.5l-97 86h-14q-8 -2 -14 -4l-6 -2l-183 -152l-71 -49l-152 133v19q0 12 13.5 25.5t31.5 27.5t37.5 29.5t32.5 27.5q-16 43 -35 51.5t-60 -1.5q-129 -33 -192.5 -128.5t-79.5 -220.5q-2 -6 -2 -12t-2 -12zM379 1524q-6 -35 9 -63.5t43 -48 t62.5 -28t69.5 0t68 29t58.5 48t42 59t20.5 64.5q14 104 -37 138t-174 20q-27 -25 -54.5 -50.5t-50 -53t-39 -56.5t-18.5 -59zM897 1649q-4 -33 10.5 -61.5t41 -49t61 -29t71.5 1.5q37 8 70 29t58.5 47.5t42 59t20.5 65.5q12 100 -39 136t-176 20q-25 -23 -51.5 -48.5 t-50 -53t-40 -57.5t-18.5 -60z" />
<glyph unicode="&#x2c6;" horiz-adv-x="1177" d="M592 1470q-6 -6 14.5 -17t55 -24.5t77.5 -25.5t83 -20.5t71 -9.5t41 9q20 23 60 66t83 89t80 86t51 56l185 -196l342 274q4 6 -32 17.5t-93.5 21.5t-127 20.5t-133 16.5t-109.5 7t-58 -5z" />
<glyph unicode="&#x2dc;" horiz-adv-x="1177" d="M592 1491q-6 -6 25.5 -15.5t82 -19.5t111.5 -19.5t115.5 -13.5t95.5 -3t49 12q49 45 94 84.5t74 68.5l158 -82l344 275q6 6 -26 15t-82 18.5t-111.5 18.5t-117.5 14t-96 4t-48 -11q-49 -47 -83 -93t-65 -81l-174 102z" />
<glyph unicode="&#x2000;" horiz-adv-x="964" />
<glyph unicode="&#x2001;" horiz-adv-x="1929" />
<glyph unicode="&#x2002;" horiz-adv-x="964" />
<glyph unicode="&#x2003;" horiz-adv-x="1929" />
<glyph unicode="&#x2004;" horiz-adv-x="643" />
<glyph unicode="&#x2005;" horiz-adv-x="482" />
<glyph unicode="&#x2006;" horiz-adv-x="321" />
<glyph unicode="&#x2007;" horiz-adv-x="321" />
<glyph unicode="&#x2008;" horiz-adv-x="241" />
<glyph unicode="&#x2009;" horiz-adv-x="385" />
<glyph unicode="&#x200a;" horiz-adv-x="107" />
<glyph unicode="&#x2010;" horiz-adv-x="733" d="M258 633q-6 -6 24.5 -15.5t81 -18.5t111 -18.5t115.5 -14.5t95 -4t50 11q35 33 64.5 58.5t53.5 49.5t41 47.5t30 51.5q6 4 3 8l-3 5l-219 77h-152z" />
<glyph unicode="&#x2011;" horiz-adv-x="733" d="M258 633q-6 -6 24.5 -15.5t81 -18.5t111 -18.5t115.5 -14.5t95 -4t50 11q35 33 64.5 58.5t53.5 49.5t41 47.5t30 51.5q6 4 3 8l-3 5l-219 77h-152z" />
<glyph unicode="&#x2012;" horiz-adv-x="733" d="M258 633q-6 -6 24.5 -15.5t81 -18.5t111 -18.5t115.5 -14.5t95 -4t50 11q35 33 64.5 58.5t53.5 49.5t41 47.5t30 51.5q6 4 3 8l-3 5l-219 77h-152z" />
<glyph unicode="&#x2013;" horiz-adv-x="733" d="M258 633q-6 -6 24.5 -15.5t81 -18.5t111 -18.5t115.5 -14.5t95 -4t50 11q35 33 64.5 58.5t53.5 49.5t41 47.5t30 51.5q6 4 3 8l-3 5l-219 77h-152z" />
<glyph unicode="&#x2014;" horiz-adv-x="1079" d="M246 588q-6 -4 21.5 -8.5t76.5 -7.5t113.5 -5t132.5 -2q70 0 138.5 2t124.5 5t95 8.5t49 13.5q53 39 96.5 68.5t79 55t63.5 51.5t48 56q2 2 -2 7l-4 6l-250 32h-321z" />
<glyph unicode="&#x2018;" horiz-adv-x="573" d="M447 1067q6 -53 28 -94h334l39 16l90 180l-102 160l-117 150l-29 24l-7 -1t-13 -3q-2 0 -7.5 -2t-7.5 -2q-18 -10 -46.5 -35.5t-57.5 -56.5t-52.5 -59.5t-31.5 -45.5l-2 -12q-2 -12 -5 -28.5t-5 -35t-4 -32.5q-10 -70 -4 -123z" />
<glyph unicode="&#x2019;" horiz-adv-x="573" d="M455 1241l102 -160l82 -108h168q39 37 73.5 78t43.5 59l2 12q2 13 5 29t5 34.5t4 33.5q14 117 -13.5 191.5t-119.5 121.5l-264 -113z" />
<glyph unicode="&#x201a;" horiz-adv-x="520" d="M-29 -303q74 18 156 59t153.5 101.5t122 138.5t60.5 170q2 18 3 33.5t1 27.5q0 41 -14.5 67.5t-51.5 63.5h-104q-98 -29 -166 -87t-96 -146q0 -37 14 -63.5t37 -47t48.5 -33t47.5 -20.5q-115 -86 -161 -148.5t-50 -115.5z" />
<glyph unicode="&#x201c;" horiz-adv-x="1081" d="M436 1126q-12 -92 2 -153h422l66 133l-105 158l-112 153l-33 21h-6q-8 0 -11 -2q-4 0 -9 -2t-9 -4q-18 -10 -46 -36t-57.5 -56.5t-53 -59.5t-31.5 -43l-1 -13q-1 -12 -6 -30q-2 -16 -5 -33.5t-5 -32.5zM492 870q30 -34 77 -57l136 57h-213zM979 1260q-12 -98 6.5 -169 t83.5 -118h105l206 88l88 178l-104 160l-115 151l-30 23h-7q-8 0 -12 -2q-2 0 -7 -3t-7 -3q-18 -10 -48 -36t-58.5 -56.5t-52 -59.5t-32.5 -45q0 -2 -3 -19.5t-7 -44t-6 -44.5z" />
<glyph unicode="&#x201d;" horiz-adv-x="1081" d="M442 1180l105 -160l35 -47h276q23 25 38 45t19 31q0 2 2.5 14t4.5 27.5t5 34t5 32.5q16 117 -12.5 191.5t-120.5 121.5l-267 -112zM659 870l3 -2l30 -24h4q2 0 15 4q2 0 7 2t7 2q12 2 31 18h-97zM985 1313l102 -158l117 -154l31 -20l5 -1t11 1q4 0 8.5 3t8.5 5 q16 6 44.5 32t58.5 57.5t54.5 61t32.5 44.5l1 12q1 12 4 28.5t6.5 35t5.5 32.5q12 113 -14.5 190t-119.5 124l-268 -115z" />
<glyph unicode="&#x201e;" horiz-adv-x="974" d="M-45 -360q76 18 158 59t152.5 100.5t120.5 137t60 169.5q2 18 3.5 34t1.5 28q0 41 -16.5 67.5t-47.5 63.5h-104q-98 -29 -164 -85t-101 -148q0 -37 15.5 -65t38 -47.5t48 -31.5t48.5 -20q-88 -68 -134 -117t-63 -90q-6 -14 -9 -27.5t-7 -27.5zM440 -246q74 18 156 59.5 t152.5 101.5t121 138t60.5 168q6 39 6 64q0 41 -14.5 67.5t-51.5 63.5l-102 -2q-98 -29 -167 -85.5t-97 -148.5q0 -37 14 -63.5t35.5 -46t47.5 -32.5t48 -22q-115 -86 -160 -147.5t-49 -114.5z" />
<glyph unicode="&#x2022;" d="M180 186q-2 -23 24.5 -45t72 -44.5t100.5 -41t109.5 -30t102.5 -15.5t77 4q8 2 19 6l11 3q8 4 35 27.5t57.5 52t57 53t35.5 30.5q98 68 164.5 110t111.5 74.5t71.5 65.5t43 81t27 120t22.5 182l4 45v6h-1014l-67 -598q-33 -8 -45.5 -25.5t-16.5 -39.5zM356 973h979 q0 8 4 28l7 48q-10 49 -32 101t-54.5 95t-76.5 72t-102 31q-8 -10 -39.5 -33t-68.5 -45.5t-68 -42t-37 -23.5q-31 -18 -99.5 -49t-146 -64.5t-152.5 -65.5t-114 -52z" />
<glyph unicode="&#x2026;" horiz-adv-x="1363" d="M35 45q-4 -35 11 -64.5t42 -49t62.5 -26.5t72.5 3q35 8 67 28.5t57.5 47t42 58.5t20.5 62q12 104 -39 138t-174 20q-51 -49 -102.5 -102.5t-59.5 -114.5zM459 150q-6 -35 9 -64t43 -49.5t63.5 -27.5t70.5 3q35 8 67.5 28.5t58.5 47.5t42 58.5t21 62.5q10 104 -39 139 t-174 19q-27 -25 -54.5 -50.5t-50 -52t-38 -55.5t-19.5 -59zM877 250q-4 -33 11 -61.5t41.5 -48t61.5 -28t70 0.5q33 8 65.5 28.5t58 47t43 58.5t21.5 64q12 100 -38 136t-173 22q-27 -25 -54.5 -50.5t-50 -53t-38.5 -56t-18 -59.5z" />
<glyph unicode="&#x202f;" horiz-adv-x="385" />
<glyph unicode="&#x2039;" horiz-adv-x="530" d="M252 637q-6 -10 3 -50t27.5 -93.5t42 -111.5t46 -106.5t40 -78t23.5 -25.5l248 342l-252 127q10 8 37 33.5t59.5 59.5t68.5 70t67 66h-285zM432 973h289q-10 33 -32.5 76t-49.5 81.5t-48.5 63t-27.5 18.5z" />
<glyph unicode="&#x203a;" horiz-adv-x="530" d="M223 403l185 -237q4 -6 29.5 34t59 101t71.5 137t70 141.5t52.5 113.5t18.5 55l-54 122h-362q-16 -41 -8 -47q14 -14 48 -38.5t71.5 -49t70.5 -45t45 -26.5zM350 973h262l-96 227q-2 4 -18.5 -15.5t-41 -53t-53 -75.5t-53.5 -83z" />
<glyph unicode="&#x205f;" horiz-adv-x="482" />
<glyph unicode="&#x20ac;" horiz-adv-x="1411" d="M201 375q-6 -6 44 -7t122.5 0t154.5 5t142 10l-9 -74q-8 -51 32 -99t99.5 -84t126 -53.5t111.5 -6.5q8 2 19.5 6t13.5 4q25 18 87 67.5t132 105.5t132 105t85 68q39 33 54.5 45t23.5 33q2 8 3 15t3 17q4 23 -5 40.5t-42 9.5q-47 -12 -92 -39t-101 -41q-25 -6 -64.5 -8 t-76.5 4t-61.5 23.5t-20.5 49.5l35 299h-428l-2 -18l-74 4l-371 -205q-6 -4 36 -5t106 -1q63 0 139 3t139 9l-10 -86l-113 9zM731 973h430l4 28q4 -4 7.5 -11t7.5 -17h352q43 31 74.5 65.5t38.5 65.5v14q-10 8 -25.5 38t-33 64.5t-32 66.5t-20.5 44q-6 0 -15.5 17.5 t-21.5 37t-29.5 34t-37.5 7.5q-10 0 -19 -6q-18 -10 -57 -31.5t-87 -48t-101.5 -56.5t-101.5 -56.5t-87 -47t-59 -30.5q-23 -14 -51.5 -33.5t-56.5 -43t-49.5 -50.5t-29.5 -51zM1241 870q29 -26 72 -14q20 4 41 14h-113z" />
<glyph unicode="&#x2122;" horiz-adv-x="1265" d="M406 844q6 -20 24.5 -34.5t42 -26t47 -18.5t39.5 -15q25 10 70 45.5t86 74.5h-269q-12 -10 -25 -18t-15 -8zM442 1153q-4 -23 9.5 -31t35.5 -18l-16 -131h215l23 203q100 2 110 86q0 18 -11 25t-27.5 9t-35 1t-30.5 -1l22 187l-39 18q-31 -53 -57.5 -95t-55 -81 t-62.5 -76t-77 -78zM891 973h430q20 20 34.5 42.5t18.5 41.5q2 25 -12 49l31 276q4 16 20 23q10 2 14.5 0t10.5 0l-39 -342q-2 -16 8 -32.5t25.5 -30t33 -20.5t27.5 -5q16 4 42 23.5t50.5 44t43 49t20.5 38.5v11q-8 2 -17.5 12t-13.5 14l33 295q8 6 13 20.5t7 20.5l2 10 l-2 9l-3 6t-9 10q-6 2 -20.5 13.5t-32 24.5t-32.5 24.5t-24 13.5l-1 1q-1 1 -7 -1q-2 0 -4 -1l-2 -1q-10 -6 -27.5 -25.5t-38 -41t-40 -39t-33.5 -19.5q-6 -2 -7 -1l-1 1l-74 69h-6q-4 0 -7 -2l-4 -2q-10 -6 -34.5 -27.5t-51 -44t-45 -39t-16.5 -11.5l-76 69l-35 -8 q2 0 -11 -13.5t-31.5 -32t-38 -39t-29.5 -32.5q-10 -8 -24 -26l-13 -17q-12 -23 8.5 -35t34.5 -8l-33 -295q-10 -12 -12 -20zM956 870q10 -6 17.5 -9t11.5 -7h8q15 2 31 16h-68zM1120 1047l35 294l37 27l-35 -313z" />
<glyph unicode="&#x25fc;" horiz-adv-x="1382" d="M0 0v1382h1382v-1382h-1382z" />
</font>
</defs>
</svg>
