<?xml version="1.0" standalone="no"?>
<!DOCTYPE svg PUBLIC "-//W3C//DTD SVG 1.1//EN" "http://www.w3.org/Graphics/SVG/1.1/DTD/svg11.dtd" >
<svg xmlns="http://www.w3.org/2000/svg" xmlns:xlink="http://www.w3.org/1999/xlink" version="1.1">
<metadata>
Created by FontForge 20170731 at Wed Jan  1 14:54:50 2014
 By Aleksey,,,
Copyright (c) 2014 by Yellow Design Studio. All rights reserved.
</metadata>
<defs>
<font id="GistLight" horiz-adv-x="730" >
  <font-face 
    font-family="Gist Light"
    font-weight="300"
    font-stretch="normal"
    units-per-em="1000"
    panose-1="2 6 3 4 2 2 0 0 0 3"
    ascent="800"
    descent="-200"
    x-height="532"
    cap-height="780"
    bbox="-291.094 -380 1662 1072"
    underline-thickness="50"
    underline-position="-200"
    unicode-range="U+0020-F0118"
  />
<missing-glyph horiz-adv-x="286" 
 />
    <glyph glyph-name="f_b" unicode="fb" horiz-adv-x="1078" 
d="M513 249q0 104 77 178.5t181 74.5q92 0 153.5 -63t61.5 -155q0 -104 -76.5 -178.5t-180.5 -74.5q-92 0 -154 63t-62 155zM541 249q0 -80 54 -135.5t134 -55.5q92 0 161 67t69 159q0 80 -54 135.5t-134 55.5q-92 0 -161 -67t-69 -159zM493 1h-183l5 27h155l32 184
q13 -84 76.5 -139.5t150.5 -55.5q109 0 190 79t81 188q0 96 -66.5 164t-162.5 68q-75 0 -141 -41t-101 -107l69 397q-69 82 -172 82q-55 0 -95.5 -22.5t-65 -64.5t-38.5 -85t-24 -100l-13 -70h-140l5 27h112l9 48q8 46 18 83.5t30 78.5t45.5 68.5t66 45.5t90.5 18
q122 0 201 -101l-53 -305q85 75 197 75q109 0 183 -75t74 -184q0 -121 -89 -207.5t-210 -86.5q-69 0 -126 32t-92 86zM421 532l-5 -27h-211l12 68q10 56 23 97.5t36 81t61 60.5t89 21q92 0 158 -72l-126 -719h-140l5 27h113l119 683q-54 54 -129 54q-44 0 -76 -18
t-52.5 -53.5t-32.5 -74t-22 -92.5l-7 -36h185zM-105 -311q-91 0 -141 57.5t-43 125.5l27 -3q-7 -58 36 -105.5t121 -47.5q53 0 92.5 22.5t63.5 63.5t38 84.5t24 100.5l89 504h211l-5 -27h-184l-84 -482q-8 -47 -18.5 -84t-30 -78t-44.5 -68t-64.5 -45t-87.5 -18zM42 464
l5 27h141l-89 -502q-8 -44 -17 -78.5t-25.5 -69.5t-37.5 -58.5t-52.5 -38t-71.5 -14.5q-71 0 -110.5 43.5t-32.5 94.5l27 -3q-5 -40 26.5 -74t89.5 -34q42 0 73 18t51 53t32 74t21 92l83 470h-113z" />
    <glyph glyph-name="f_h" unicode="fh" horiz-adv-x="1046" 
d="M1000 68l-5 -27h-140l47 263q19 106 -26.5 159t-117.5 53q-57 0 -115.5 -30.5t-107.5 -81.5l64 361q-71 82 -173 82q-55 0 -95.5 -22.5t-65 -64.5t-38.5 -84.5t-24 -100.5l-13 -70h-140l5 27h112l9 48q11 60 26 105t42.5 91.5t73.5 72t108 25.5q122 0 203 -101l-53 -297
q92 67 182 67q38 0 71.5 -14t61 -42t38.5 -76.5t0 -110.5l-41 -232h112zM421 532l-5 -27h-211l12 68q10 57 23 97.5t36 80.5t61 61t89 21q92 0 159 -72l-128 -720h-140l5 27h113l120 684q-54 54 -129 54q-82 0 -122.5 -63t-59.5 -175l-7 -36h184zM616 68l-5 -27h-140l60 337
q50 58 109 91t118 33q67 0 107 -48t23 -148l-49 -279h154l-5 -27h-181l54 311q15 83 -16.5 123.5t-86.5 40.5q-104 0 -201 -109l-53 -298h112zM-104 -311q-91 0 -141 57.5t-43 125.5l27 -3q-7 -57 36 -105t121 -48q43 0 77 15.5t56.5 40.5t40 62t27 72.5t17.5 80.5l88 504
h212l-5 -27h-184l-84 -482q-8 -46 -19 -84t-30.5 -78.5t-44.5 -67.5t-64 -45t-87 -18zM155 464h-112l5 27h140l-88 -502q-10 -56 -23 -97.5t-36 -81t-59.5 -60t-85.5 -20.5q-72 0 -111 43.5t-32 94.5l27 -3q-6 -39 26 -73.5t90 -34.5q33 0 60 12.5t45.5 33t32.5 52.5
t22.5 64.5t16.5 74.5zM310 0l5 27h294l-5 -27h-294z" />
    <glyph glyph-name="f_h.alt2" unicode="f&#xe150;" horiz-adv-x="1017" 
d="M938 -118q30 0 67 30l17 -21q-44 -36 -84 -36q-17 0 -34 7t-33.5 24.5t-21.5 47.5t1 77l51 293q9 57 1 97.5t-31.5 66t-52 37t-60.5 11.5q-117 0 -224 -114l64 363q-69 82 -172 82q-55 0 -95.5 -22.5t-65 -64.5t-38.5 -85t-24 -100l-13 -70h-140l5 27h112l9 48
q8 46 18.5 83.5t30 78.5t45 68.5t66 45.5t90.5 18q121 0 202 -101l-52 -297q92 67 182 67q38 0 71.5 -14t60.5 -41.5t38 -76t0 -111.5l-51 -293q-11 -67 9.5 -96t51.5 -29zM616 68l-5 -27h-140l59 336q49 58 109 91.5t119 33.5q66 0 106 -48t23 -148l-51 -293
q-15 -89 20.5 -130.5t81.5 -41.5t93 40l18 -21q-55 -46 -111 -46q-23 0 -47 10.5t-47.5 32t-34 64t-0.5 97.5l52 293q15 84 -17 124t-86 40q-51 0 -104 -29.5t-98 -80.5l-52 -297h112zM421 532l-5 -27h-211l12 68q10 56 23 97.5t36 81t61 60.5t89 21q92 0 158 -72l-127 -720
h-140l5 27h112l121 684q-54 54 -129 54q-44 0 -76 -18t-52.5 -53.5t-32.5 -74t-22 -92.5l-7 -36h185zM-105 -311q-91 0 -141 57.5t-43 125.5l27 -3q-7 -58 36 -105.5t121 -47.5q53 0 92.5 22.5t63.5 63.5t38 84.5t24 100.5l89 504h211l-5 -27h-184l-84 -482
q-8 -47 -18.5 -84t-30 -78t-44.5 -68t-64.5 -45t-87.5 -18zM155 464h-113l5 27h141l-89 -502q-8 -44 -17 -78.5t-25.5 -69.5t-37.5 -58.5t-52.5 -38t-71.5 -14.5q-71 0 -110.5 43.5t-32.5 94.5l27 -3q-5 -40 26.5 -74t89.5 -34q42 0 73 18t51 53t32 74t21 92zM309 0l5 27
h294l-5 -27h-294z" />
    <glyph glyph-name="f_j" unicode="fj" horiz-adv-x="648" 
d="M-105 -311q-91 0 -141.5 57.5t-43.5 125.5l27 -3q-7 -58 36 -105.5t122 -47.5q43 0 77 15.5t56.5 40.5t40 62t27 72.5t17.5 80.5l89 504h337l-91 -514q-44 -245 -192 -245q-60 0 -94 39l21 18q25 -30 73 -30q38 0 68.5 21t49 57t29.5 70.5t18 74.5l86 482h-283l-85 -482
q-10 -59 -25.5 -105t-42.5 -92t-71.5 -71t-104.5 -25zM256 -309q-81 0 -126 54l22 17q35 -44 104 -44q50 0 88.5 25.5t61.5 68t35.5 81t20.5 82.5l93 530h-350l6 35q11 64 25.5 110.5t39 91t64 68t93.5 23.5q75 0 117 -49.5t36 -107.5l-27 3q5 47 -29.5 87t-96.5 40
q-46 0 -80.5 -20.5t-56.5 -60.5t-35.5 -84.5t-23.5 -105.5l-1 -3h351l-98 -562q-6 -35 -15 -67.5t-28 -73t-43 -69.5t-62 -49t-85 -20zM41 464l5 27h142l-89 -502q-10 -56 -23 -97.5t-36 -81t-59.5 -60t-85.5 -20.5q-72 0 -111 43.5t-33 94.5l27 -3q-5 -40 27 -74t90 -34
q33 0 60 12.5t45.5 33t32.5 52.5t22.5 64.5t16.5 74.5l83 470h-114zM49 505l5 27h113l3 15q12 67 28.5 118.5t45.5 102t77 78.5t112 28q96 0 148.5 -63.5t45.5 -139.5l-27 3q7 64 -38.5 118.5t-128.5 54.5q-57 0 -99.5 -25t-69 -71.5t-41.5 -95t-26 -113.5l-7 -37h-141z" />
    <glyph glyph-name="f_k" unicode="fk" horiz-adv-x="996" 
d="M50 505l5 27h112l9 48q8 46 18.5 83.5t30 78.5t45 68.5t66 45.5t90.5 18q121 0 202 -101l-54 -305q108 75 205 75q70 0 115 -41.5t45 -102.5q0 -66 -51.5 -121.5t-155.5 -89.5l67 -120h133l-5 -27h-144l-92 163q111 30 166 82t55 113q0 49 -37.5 83t-95.5 34
q-119 0 -245 -116l64 365q-69 82 -172 82q-55 0 -95.5 -22.5t-65 -64.5t-38.5 -85t-24 -100l-13 -70h-140zM421 532l-5 -27h-211l12 68q10 56 23 97.5t36 81t61 60.5t89 21q92 0 158 -72l-127 -720h-141l5 27h113l121 684q-54 54 -129 54q-44 0 -76 -18t-52.5 -53.5
t-32.5 -74t-22 -92.5l-7 -36h185zM-105 -311q-91 0 -141 57.5t-43 125.5l27 -3q-7 -58 36 -105.5t121 -47.5q53 0 92.5 22.5t63.5 63.5t38 84.5t24 100.5l89 504h211l-5 -27h-184l-84 -482q-8 -47 -18.5 -84t-30 -78t-44.5 -68t-64.5 -45t-87.5 -18zM155 464h-113l5 27h141
l-89 -502q-8 -44 -17 -78.5t-25.5 -69.5t-37.5 -58.5t-52.5 -38t-71.5 -14.5q-71 0 -110.5 43.5t-32.5 94.5l27 -3q-5 -40 26.5 -74t89.5 -34q42 0 73 18t51 53t32 74t21 92zM601 68l-5 -27h-125l59 336q128 125 249 125q54 0 86.5 -29.5t32.5 -73.5q0 -57 -53.5 -106
t-165.5 -77l-7 25q102 27 150.5 69t48.5 89q0 32 -25 54t-67 22q-104 0 -223 -109l-52 -298h97zM759 0l-107 192l23 13l100 -178h149l-5 -27h-160zM308 0l5 27h280l-5 -27h-280z" />
    <glyph glyph-name="f_k.alt2" unicode="f&#xe151;" horiz-adv-x="965" 
d="M914 -118q43 0 90 31l15 -23q-54 -36 -105 -36q-58 0 -94 37t-62 114l-67 199q112 30 167 82t55 113q0 49 -37.5 83t-95.5 34q-119 0 -245 -115l64 364q-71 82 -173 82q-55 0 -95.5 -22.5t-65 -64.5t-38.5 -84.5t-24 -100.5l-13 -70h-140l5 27h112l9 48q11 60 26 105
t42.5 91.5t73.5 72t108 25.5q122 0 203 -101l-54 -306q106 76 205 76q70 0 115 -41.5t45 -102.5q0 -67 -53.5 -123t-161.5 -90l59 -172q24 -69 53.5 -100.5t76.5 -31.5zM317 41l5 27h113l120 684q-54 54 -129 54q-43 0 -75 -18.5t-52.5 -53.5t-32.5 -73.5t-22 -92.5l-7 -36
h184l-5 -27h-211l12 68q10 57 23 97.5t36 80.5t61 61t89 21q92 0 159 -72l-128 -720h-140zM114 -13l88 504h212l-5 -27h-184l-84 -482q-8 -46 -19 -84t-30.5 -78.5t-44.5 -67.5t-64 -45t-87 -18q-91 0 -141 57.5t-43 125.5l27 -3q-7 -57 36 -105t121 -48q43 0 77 15.5
t56.5 40.5t40 62t27 72.5t17.5 80.5zM43 464l5 27h140l-88 -502q-10 -56 -23 -97.5t-36 -81t-59.5 -60t-85.5 -20.5q-72 0 -111 43.5t-32 94.5l27 -3q-6 -39 26 -73.5t90 -34.5q33 0 60 12.5t45.5 33t32.5 52.5t22.5 64.5t16.5 74.5l82 470h-112zM602 68l-5 -27h-126l60 337
q128 124 249 124q53 0 86 -29.5t33 -73.5q0 -57 -53.5 -106t-165.5 -77l-7 25q102 27 150 69t48 89q0 32 -25 54t-66 22q-106 0 -223 -110l-53 -297h98zM719 -7l-70 205l26 9l69 -206q27 -79 67.5 -120t102.5 -41q53 0 113 38l15 -22q-65 -43 -128 -43q-134 0 -195 180z
M589 0h-280l5 27h280z" />
    <glyph glyph-name="f_t" unicode="ft" horiz-adv-x="794" 
d="M-105 -311q-91 0 -141.5 57.5t-42.5 125.5l27 -3q-7 -57 36 -105t121 -48q43 0 77 15.5t56.5 40.5t40 62t27 72.5t17.5 80.5l88 504h312l-52 -298q-15 -87 22.5 -131.5t92.5 -44.5q57 0 102.5 45t45.5 141h27q0 -57 -17 -100t-44 -66.5t-56 -35t-58 -11.5
q-66 0 -113 53.5t-29 154.5l46 266h-256l-84 -482q-8 -46 -19 -84t-30.5 -78.5t-44.5 -67.5t-64 -45t-87 -18zM40 464l5 27h142l-88 -502q-10 -56 -23 -97.5t-36 -81t-59.5 -60t-85.5 -20.5q-72 0 -111 43.5t-32 94.5l27 -3q-5 -40 26.5 -74t89.5 -34q79 0 118.5 62.5
t58.5 174.5l82 470h-114zM492 532l31 175l30 12l-38 -214h-311l12 69q10 58 23 99.5t35.5 81t59.5 60.5t87 21q44 0 86 -22l-14 -24q-35 19 -72 19q-34 0 -61 -13t-45.5 -33.5t-32.5 -53t-22.5 -65t-16.5 -75.5l-7 -37h256zM576 58q43 0 74.5 34t31.5 111h28
q0 -91 -40.5 -131.5t-93.5 -40.5q-50 0 -82.5 40t-18.5 120l52 300h216l-4 -27h-189l-48 -278q-11 -64 12.5 -96t61.5 -32zM527 849l-14 -23q-43 24 -92 24q-53 0 -93 -22.5t-64 -64.5t-38 -85.5t-24 -101.5l-13 -71h-141l5 27h113l9 49q8 47 18.5 84.5t30 79t45 69
t64.5 45.5t88 18q53 0 106 -28zM751 532l-5 -27h-216l39 220l29 12l-36 -205h189z" />
    <glyph glyph-name="f_f_b" unicode="ffb" horiz-adv-x="1452" 
d="M887 249q0 104 77 178.5t181 74.5q92 0 153.5 -63t61.5 -155q0 -104 -76.5 -178.5t-180.5 -74.5q-92 0 -154 63t-62 155zM915 249q0 -80 54 -135.5t134 -55.5q92 0 161 67t69 159q0 80 -54 135.5t-134 55.5q-92 0 -161 -67t-69 -159zM576 575l-13 -70h-359q9 50 20 89.5
t30 79.5t43 66.5t60.5 43t82.5 16.5q101 0 175 -85q-25 -57 -39 -140zM867 1h-182l5 27h155l31 181q14 -83 77.5 -137.5t149.5 -54.5q109 0 190 79t81 188q0 96 -66.5 164t-162.5 68q-75 0 -140 -40t-101 -105l69 394q-71 82 -173 82q-120 0 -179 -118q-75 85 -181 85
q-60 0 -105.5 -25.5t-73 -72.5t-44 -96.5t-27.5 -114.5h-141l5 27h113q13 65 31 114t49 96.5t79.5 73t113.5 25.5q99 0 175 -68q65 101 185 101q121 0 202 -101l-53 -304q85 74 196 74q109 0 183 -75t74 -184q0 -121 -89 -207.5t-210 -86.5q-69 0 -126 32t-91 86zM-105 -311
q-91 0 -141 57.5t-43 125.5l27 -3q-7 -58 36 -105.5t121 -47.5q53 0 92.5 22.5t63.5 63.5t38 84.5t24 100.5l89 504h359l-89 -502q-8 -44 -17 -78.5t-25.5 -69.5t-37.5 -58.5t-52.5 -38t-71.5 -14.5q-66 0 -107 41l19 19q33 -33 88 -33q79 0 118.5 62.5t58.5 174.5l83 470
h-303l-85 -482q-8 -47 -18.5 -84t-30 -78t-44.5 -68t-64.5 -45t-87.5 -18zM549 580q15 81 35 130q-61 63 -144 63q-87 0 -133.5 -64t-69.5 -177h303zM794 532l-5 -27h-211l12 68q10 57 23.5 97.5t36.5 80.5t61 61t89 21q92 0 159 -72l-126 -719h-140l4 27h113l119 683
q-54 54 -129 54q-44 0 -76 -18t-52.5 -53.5t-32.5 -74t-22 -92.5l-7 -36h184zM268 -311q-82 0 -136 52l19 20q45 -45 117 -45q53 0 92.5 22.5t63.5 63.5t38 84.5t24 100.5l89 504h211l-5 -27h-183l-85 -482q-8 -46 -19 -84t-30.5 -78.5t-44.5 -67.5t-64 -45t-87 -18zM41 464
l5 27h142l-89 -502q-8 -44 -17 -78.5t-25.5 -69.5t-37.5 -58.5t-52.5 -38t-71.5 -14.5q-71 0 -110.5 43.5t-32.5 94.5l27 -3q-5 -40 26.5 -74t89.5 -34q42 0 73 18t51 53t32 74t21 92l83 470h-114z" />
    <glyph glyph-name="f_f_h" unicode="ffh" horiz-adv-x="1420" 
d="M576 575l-13 -70h-359q9 50 20 89.5t30 79.5t43 66.5t60.5 43t82.5 16.5q101 0 175 -85q-25 -57 -39 -140zM-105 -311q-91 0 -141 57.5t-43 125.5l27 -3q-7 -58 36 -105.5t121 -47.5q53 0 92.5 22.5t63.5 63.5t38 84.5t24 100.5l89 504h359l-89 -502q-8 -44 -17 -78.5
t-25.5 -69.5t-37.5 -58.5t-52.5 -38t-71.5 -14.5q-66 0 -107 41l19 19q33 -33 88 -33q79 0 118.5 62.5t58.5 174.5l83 470h-303l-85 -482q-8 -47 -18.5 -84t-30 -78t-44.5 -68t-64.5 -45t-87.5 -18zM1374 68l-5 -27h-140l47 263q8 58 0.5 98t-31 65.5t-52 37t-61.5 11.5
q-116 0 -223 -112l64 361q-71 82 -173 82q-120 0 -179 -118q-75 85 -181 85q-60 0 -105.5 -25.5t-73 -72.5t-44 -96.5t-27.5 -114.5h-141l5 27h113q13 65 31 114t49 96.5t79.5 73t113.5 25.5q99 0 175 -68q65 101 185 101q121 0 202 -101l-52 -298q91 68 182 68
q82 0 136.5 -61.5t33.5 -181.5l-41 -232h113zM549 580q15 81 35 130q-61 63 -144 63q-87 0 -133.5 -64t-69.5 -177h303zM794 532l-5 -27h-211l12 68q10 57 23.5 97.5t36.5 80.5t61 61t89 21q92 0 159 -72l-128 -720h-140l5 27h112l121 684q-54 54 -129 54q-44 0 -76 -18
t-52.5 -53.5t-32.5 -74t-22 -92.5l-7 -36h184zM990 68l-5 -27h-140l60 337q107 124 227 124q66 0 106.5 -48t23.5 -148l-49 -279h153l-5 -27h-180l54 311q15 83 -17 123.5t-86 40.5q-51 0 -104 -29.5t-98 -80.5l-52 -297h112zM268 -311q-82 0 -136 52l19 20q45 -45 117 -45
q53 0 92.5 22.5t63.5 63.5t38 84.5t24 100.5l89 504h211l-5 -27h-183l-85 -482q-8 -46 -19 -84t-30.5 -78.5t-44.5 -67.5t-64 -45t-87 -18zM155 464h-114l5 27h142l-89 -502q-8 -44 -17 -78.5t-25.5 -69.5t-37.5 -58.5t-52.5 -38t-71.5 -14.5q-71 0 -110.5 43.5t-32.5 94.5
l27 -3q-5 -40 26.5 -74t89.5 -34q42 0 73 18t51 53t32 74t21 92zM683 0l5 27h294l-5 -27h-294z" />
    <glyph glyph-name="f_f_h.alt2" unicode="ff&#xe150;" horiz-adv-x="1392" 
d="M576 575l-13 -70h-359q9 50 20 89.5t30 79.5t43 66.5t60.5 43t82.5 16.5q101 0 175 -85q-25 -57 -39 -140zM1313 -118q30 0 68 30l16 -21q-43 -36 -84 -36q-17 0 -33.5 7t-33.5 24.5t-22 47.5t1 77l51 293q8 57 0 97.5t-31.5 66t-52 37t-60.5 11.5q-118 0 -223 -113
l64 362q-71 82 -173 82q-120 0 -179 -118q-75 85 -181 85q-60 0 -105.5 -25.5t-73 -72.5t-44 -96.5t-27.5 -114.5h-141l5 27h113q13 65 31 114t49 96.5t79.5 73t113.5 25.5q99 0 175 -68q65 101 185 101q121 0 202 -101l-52 -298q91 68 182 68q38 0 71.5 -14t60.5 -41.5
t38 -76t0 -111.5l-50 -293q-11 -67 9.5 -96t51.5 -29zM-105 -311q-91 0 -141 57.5t-43 125.5l27 -3q-7 -58 36 -105.5t121 -47.5q53 0 92.5 22.5t63.5 63.5t38 84.5t24 100.5l89 504h359l-89 -502q-8 -44 -17 -78.5t-25.5 -69.5t-37.5 -58.5t-52.5 -38t-71.5 -14.5
q-66 0 -107 41l19 19q33 -33 88 -33q79 0 118.5 62.5t58.5 174.5l83 470h-303l-85 -482q-8 -47 -18.5 -84t-30 -78t-44.5 -68t-64.5 -45t-87.5 -18zM549 580q15 81 35 130q-61 63 -144 63q-87 0 -133.5 -64t-69.5 -177h303zM794 532l-5 -27h-211l12 68q10 57 23.5 97.5
t36.5 80.5t61 61t89 21q92 0 159 -72l-128 -720h-140l5 27h112l121 684q-54 54 -129 54q-44 0 -76 -18t-52.5 -53.5t-32.5 -74t-22 -92.5l-7 -36h184zM990 68l-5 -27h-140l60 337q109 124 227 124q67 0 107 -48t23 -148l-51 -293q-15 -89 21 -130.5t81 -41.5q47 0 93 40
l18 -21q-55 -46 -111 -46q-22 0 -46 10.5t-47.5 32t-34 64t-0.5 97.5l50 293q15 84 -17 124t-86 40q-51 0 -104 -29.5t-98 -80.5l-52 -297h112zM268 -311q-82 0 -136 52l19 20q45 -45 117 -45q53 0 92.5 22.5t63.5 63.5t38 84.5t24 100.5l89 504h211l-5 -27h-183l-85 -482
q-8 -46 -19 -84t-30.5 -78.5t-44.5 -67.5t-64 -45t-87 -18zM155 464h-114l5 27h142l-89 -502q-8 -44 -17 -78.5t-25.5 -69.5t-37.5 -58.5t-52.5 -38t-71.5 -14.5q-71 0 -110.5 43.5t-32.5 94.5l27 -3q-5 -40 26.5 -74t89.5 -34q42 0 73 18t51 53t32 74t21 92zM683 0l5 27
h294l-5 -27h-294z" />
    <glyph glyph-name="f_f_j" unicode="ffj" horiz-adv-x="1021" 
d="M440 800q103 0 177 -88q-29 -64 -47 -170l-7 -37h-359q9 50 20 89.5t30 79.5t43 66.5t60.5 43t82.5 16.5zM-105 -311q-91 0 -141 57.5t-43 125.5l27 -3q-7 -58 36 -105.5t121 -47.5q53 0 92.5 22.5t63.5 63.5t38 84.5t24 100.5l89 504h359l-89 -502q-8 -44 -17 -78.5
t-25.5 -69.5t-37.5 -58.5t-52.5 -38t-71.5 -14.5q-66 0 -107 41l19 19q33 -33 88 -33q79 0 118.5 62.5t58.5 174.5l83 470h-303l-85 -482q-8 -47 -18.5 -84t-30 -78t-44.5 -68t-64.5 -45t-87.5 -18zM440 773q-87 0 -133.5 -64t-69.5 -177h303l3 15q16 97 43 161
q-62 65 -146 65zM268 -311q-82 0 -136 52l19 20q45 -45 117 -45q53 0 92.5 22.5t63.5 63.5t38 84.5t24 100.5l89 504h338l-92 -514q-44 -245 -191 -245q-59 0 -95 39l22 18q25 -30 73 -30q123 0 165 223l85 482h-282l-85 -482q-8 -46 -19 -84t-30.5 -78.5t-44.5 -67.5
t-64 -45t-87 -18zM630 -309q-81 0 -126 54l21 17q37 -44 105 -44q50 0 88.5 25.5t61 68t35 81t20.5 82.5l94 530h-351l6 35q11 64 25.5 111t39 91t64.5 67.5t93 23.5q76 0 118 -49.5t35 -107.5l-27 3q6 46 -28.5 86.5t-97.5 40.5q-46 0 -80 -20.5t-56 -60.5t-35.5 -84.5
t-23.5 -105.5l-1 -3h351l-99 -562q-6 -35 -15 -67.5t-28 -73t-42.5 -69.5t-62 -49t-84.5 -20zM1000 671l-27 3q7 64 -38.5 118.5t-128.5 54.5q-121 0 -182 -121q-75 88 -184 88q-60 0 -105.5 -25.5t-73 -72.5t-44 -96.5t-27.5 -114.5h-141l5 27h113q13 65 31 114t49 96.5
t79.5 73t113.5 25.5q101 0 178 -71q67 104 188 104q96 0 149 -63.5t45 -139.5zM41 464l5 27h142l-89 -502q-8 -44 -17 -78.5t-25.5 -69.5t-37.5 -58.5t-52.5 -38t-71.5 -14.5q-71 0 -110.5 43.5t-32.5 94.5l27 -3q-5 -40 26.5 -74t89.5 -34q42 0 73 18t51 53t32 74t21 92
l83 470h-114z" />
    <glyph glyph-name="f_f_k" unicode="ffk" horiz-adv-x="1370" 
d="M576 575l-13 -70h-359q9 50 20 89.5t30 79.5t43 66.5t60.5 43t82.5 16.5q101 0 175 -85q-25 -57 -39 -140zM1306 68l-5 -27h-144l-91 163q111 30 165.5 82t54.5 113q0 49 -37 83t-95 34q-119 0 -245 -115l64 364q-71 82 -173 82q-120 0 -179 -118q-75 85 -181 85
q-60 0 -105.5 -25.5t-73 -72.5t-44 -96.5t-27.5 -114.5h-141l5 27h113q13 65 31 114t49 96.5t79.5 73t113.5 25.5q99 0 175 -68q65 101 185 101q121 0 202 -101l-54 -306q107 76 206 76q70 0 114.5 -41.5t44.5 -102.5q0 -67 -51 -122t-156 -89l67 -120h133zM-105 -311
q-91 0 -141 57.5t-43 125.5l27 -3q-7 -58 36 -105.5t121 -47.5q53 0 92.5 22.5t63.5 63.5t38 84.5t24 100.5l89 504h359l-89 -502q-8 -44 -17 -78.5t-25.5 -69.5t-37.5 -58.5t-52.5 -38t-71.5 -14.5q-66 0 -107 41l19 19q33 -33 88 -33q79 0 118.5 62.5t58.5 174.5l83 470
h-303l-85 -482q-8 -47 -18.5 -84t-30 -78t-44.5 -68t-64.5 -45t-87.5 -18zM549 580q15 81 35 130q-61 63 -144 63q-87 0 -133.5 -64t-69.5 -177h303zM794 532l-5 -27h-211l12 68q10 57 23.5 97.5t36.5 80.5t61 61t89 21q92 0 159 -72l-128 -720h-140l5 27h112l121 684
q-54 54 -129 54q-44 0 -76 -18t-52.5 -53.5t-32.5 -74t-22 -92.5l-7 -36h184zM268 -311q-82 0 -136 52l19 20q45 -45 117 -45q53 0 92.5 22.5t63.5 63.5t38 84.5t24 100.5l89 504h211l-5 -27h-183l-85 -482q-8 -46 -19 -84t-30.5 -78.5t-44.5 -67.5t-64 -45t-87 -18z
M155 464h-114l5 27h142l-89 -502q-8 -44 -17 -78.5t-25.5 -69.5t-37.5 -58.5t-52.5 -38t-71.5 -14.5q-71 0 -110.5 43.5t-32.5 94.5l27 -3q-5 -40 26.5 -74t89.5 -34q42 0 73 18t51 53t32 74t21 92zM976 68l-5 -27h-126l60 337q128 124 249 124q53 0 85.5 -29.5t32.5 -73.5
q0 -57 -53 -106t-165 -77l-7 25q102 27 150 69t48 89q0 32 -25 54t-66 22q-106 0 -224 -110l-52 -297h98zM1026 192l24 13l99 -178h149l-5 -27h-160zM683 0l5 27h280l-5 -27h-280z" />
    <glyph glyph-name="f_f_k.alt2" unicode="ff&#xe151;" horiz-adv-x="1339" 
d="M577 575l-13 -70h-360q9 50 20 89.5t30 79.5t43 66.5t60.5 43t82.5 16.5q104 0 175 -84q-23 -53 -38 -141zM1290 -118q42 0 89 31l15 -23q-53 -36 -104 -36q-58 0 -93.5 37t-62.5 114l-69 199q112 30 167 82t55 113q0 49 -37.5 83t-95.5 34q-119 0 -245 -116l64 365
q-69 82 -173 82q-120 0 -178 -117q-76 84 -182 84q-60 0 -105.5 -25.5t-73 -72.5t-44 -96.5t-27.5 -114.5h-140l5 27h113q10 50 22.5 91t34 83t50 70.5t71 46.5t94.5 18q98 0 176 -68q65 101 184 101q122 0 203 -101l-54 -305q108 75 205 75q70 0 115 -41.5t45 -102.5
q0 -68 -53 -123.5t-161 -89.5l59 -172q24 -69 54 -100.5t77 -31.5zM-104 -311q-91 0 -141 57.5t-43 125.5l27 -3q-7 -57 36 -105t121 -48q43 0 77 15.5t56.5 40.5t40 62t27 72.5t17.5 80.5l88 504h360l-89 -502q-10 -56 -23 -97.5t-36 -81t-59.5 -60t-85.5 -20.5
q-65 0 -108 41l19 19q35 -33 89 -33q33 0 60 12.5t45.5 33t32.5 52.5t22.5 64.5t16.5 74.5l83 470h-304l-84 -482q-8 -46 -19 -84t-30.5 -78.5t-44.5 -67.5t-64 -45t-87 -18zM550 580q15 82 34 130q-60 63 -144 63q-87 0 -133 -63.5t-70 -177.5h304zM692 41l5 27h112
l120 684q-52 54 -129 54q-44 0 -76 -18.5t-52.5 -53.5t-32.5 -74t-21 -92l-7 -36h183l-5 -27h-210l12 68q8 44 17 78t25.5 70t38 59t54.5 38t74 15q93 0 159 -72l-127 -720h-140zM576 491h211l-5 -27h-183l-85 -482q-8 -46 -19 -84t-30.5 -78.5t-44.5 -67.5t-64 -45t-87 -18
q-81 0 -137 52l19 20q47 -45 118 -45q43 0 77 15.5t56.5 40.5t40 62t27 72.5t17.5 80.5zM42 464l5 27h141l-88 -502q-10 -56 -23 -97.5t-36 -81t-59.5 -60t-85.5 -20.5q-72 0 -111 43.5t-32 94.5l27 -3q-6 -39 26 -73.5t90 -34.5q33 0 60 12.5t45.5 33t32.5 52.5t22.5 64.5
t16.5 74.5l83 470h-114zM977 68l-5 -27h-126l59 336q128 125 249 125q54 0 86.5 -29.5t32.5 -73.5q0 -57 -53.5 -106t-165.5 -77l-7 25q102 27 150.5 69t48.5 89q0 32 -25 54t-67 22q-104 0 -223 -109l-52 -298h98zM1094 -7l-70 205l25 8l71 -205q28 -80 68 -120.5
t102 -40.5q54 0 112 38l15 -22q-65 -43 -127 -43q-135 0 -196 180zM964 0h-280l5 27h280z" />
    <glyph glyph-name="f_f_t" unicode="fft" horiz-adv-x="1168" 
d="M576 576l-13 -71h-359q9 50 20 89.5t30 79.5t43 66.5t60.5 43t82.5 16.5q101 0 173 -83q-23 -55 -37 -141zM-105 -311q-91 0 -141 57.5t-43 125.5l27 -3q-7 -58 36 -105.5t121 -47.5q53 0 92.5 22.5t63.5 63.5t38 84.5t24 100.5l89 504h359l-89 -502q-8 -44 -17 -78.5
t-25.5 -69.5t-37.5 -58.5t-52.5 -38t-71.5 -14.5q-66 0 -107 41l19 19q33 -33 88 -33q79 0 118.5 62.5t58.5 174.5l83 470h-303l-85 -482q-8 -47 -18.5 -84t-30 -78t-44.5 -68t-64.5 -45t-87.5 -18zM549 581q15 80 34 130q-60 62 -143 62q-87 0 -133.5 -64t-69.5 -177h303z
M268 -311q-84 0 -136 52l19 20q45 -45 117 -45q53 0 92.5 22.5t63.5 63.5t38 84.5t24 100.5l89 504h312l-52 -298q-15 -87 22 -131.5t93 -44.5q57 0 102 45t45 141h28q0 -57 -17 -100t-44 -66.5t-56 -35t-58 -11.5q-66 0 -113 53.5t-29 154.5l46 266h-256l-85 -482
q-8 -46 -19 -84t-30.5 -78.5t-44.5 -67.5t-64 -45t-87 -18zM42 464l5 27h141l-89 -502q-8 -44 -17 -78.5t-25.5 -69.5t-37.5 -58.5t-52.5 -38t-71.5 -14.5q-71 0 -110.5 43.5t-32.5 94.5l27 -3q-5 -40 26.5 -74t89.5 -34q42 0 73 18t51 53t32 74t21 92l83 470h-113zM901 849
l-14 -23q-45 24 -92 24q-118 0 -175 -119q-75 83 -180 83q-60 0 -105.5 -25.5t-73 -72.5t-44 -96.5t-27.5 -114.5h-141l5 27h113q13 65 31 114t49 96.5t79.5 73t113.5 25.5q97 0 174 -66q63 102 181 102q53 0 106 -28zM866 532l31 175l30 12l-38 -214h-311l12 69
q10 57 23 99t35.5 81.5t59.5 60.5t87 21q42 0 86 -22l-14 -24q-35 19 -72 19q-42 0 -73.5 -18t-51.5 -53.5t-32 -75t-21 -93.5l-7 -37h256zM950 58q42 0 74 34.5t32 110.5h27q0 -91 -40 -131.5t-93 -40.5q-50 0 -82.5 40t-18.5 120l52 300h216l-5 -27h-188l-48 -278
q-11 -64 12.5 -96t61.5 -32zM1125 532l-5 -27h-216l39 220l29 12l-36 -205h189z" />
    <glyph glyph-name="l_s" unicode="ls" horiz-adv-x="857" 
d="M598 31q-55 0 -110.5 30.5t-124.5 93.5l210 295q16 -23 50 -62.5t56.5 -67t41.5 -68t19 -79.5q0 -60 -41.5 -101t-100.5 -41zM713 173q0 31 -15.5 65t-29.5 53t-49.5 60t-45.5 53l-174 -245q110 -101 199 -101q47 0 81 34t34 81zM53 736l5 27h140l-100 -569
q-7 -52 -1 -86.5t25.5 -54.5t38.5 -28t38 -8t34.5 5t43 28t58.5 66l19 27q70 -64 127.5 -95t116.5 -31q64 0 110 46t46 110q0 41 -19.5 84t-43 72t-58 68.5t-49.5 61.5q-31 42 -25.5 79.5t51.5 75.5l18 -21q-38 -30 -42.5 -57t20.5 -62q14 -20 49.5 -60.5t60 -70.5t45 -77
t20.5 -93q0 -76 -53.5 -129.5t-129.5 -53.5q-108 0 -239 113l-2 -3q-34 -48 -66.5 -74t-51 -31t-40.5 -5q-23 0 -47 10.5t-47 32.5t-33.5 65t-0.5 100l95 538h-113zM532 465q-47 100 53 182l17 -22q-90 -73 -38 -162l-241 -339q-29 -41 -54 -63t-38.5 -26t-31.5 -4
q-42 0 -72 37.5t-15 123.5l102 585h-154l5 27h181l-107 -617q-13 -69 8.5 -99t51.5 -30q22 0 44 15.5t58 66.5z" />
    <glyph glyph-name="l_s.alt3" unicode="l&#xe183;" horiz-adv-x="1247" 
d="M52 736l5 27h141l-100 -569q-7 -52 -0.5 -86.5t25.5 -54.5t38 -28t38 -8t35 5t43.5 28t58.5 66l237 334q16 -23 50 -62t56.5 -67t41.5 -68.5t19 -79.5q0 -60 -41.5 -101t-100.5 -41q-62 0 -102 20l-71 51l17 22l71 -51q34 -15 85 -15q48 0 81.5 34t33.5 81
q0 31 -15.5 64.5t-29.5 53.5t-48.5 60t-45.5 53l-216 -304q-34 -48 -67 -74t-51.5 -31t-40.5 -5t-46 10.5t-47.5 32.5t-34 65t-0.5 100l95 538h-114zM949 258l-4 27q90 9 146.5 -45.5t56.5 -135.5q0 -90 -67 -151.5t-174 -61.5q-159 0 -367 131q27 -5 58 -5q64 0 110 46
t46 110q0 41 -19.5 84t-42.5 72t-57.5 68.5t-49.5 61.5q-31 42 -25.5 80t51.5 76l18 -22q-38 -30 -42.5 -57t20.5 -62q11 -16 64 -76t81.5 -113t28.5 -112q0 -65 -40 -114.5t-101 -63.5q147 -77 267 -77q95 0 154.5 54t59.5 132q0 68 -48.5 114.5t-123.5 39.5zM60 777l5 27
h181l-107 -617q-12 -69 9.5 -99t50.5 -30q22 0 44 15.5t59 66.5l231 325q-47 100 52 182l17 -22q-89 -72 -37 -162l-241 -339q-29 -41 -54 -63t-38.5 -26t-32.5 -4q-17 0 -33.5 7t-33.5 25t-21.5 49t1.5 80l102 585h-154zM907 -150q-213 0 -506 219l16 21q288 -213 490 -213
q111 0 183 66.5t72 160.5q0 86 -61 145t-157 50l-4 27q109 12 179.5 -56t70.5 -166q0 -106 -80 -180t-203 -74z" />
    <glyph glyph-name="F_i.cswh" unicode="&#xe006;i" horiz-adv-x="1104" 
d="M735 410l-5 -27h-333l65 373q6 -1 46 -8.5t51.5 -9.5t46.5 -8t53 -8t47 -5.5t53.5 -4.5t48.5 -1q120 0 171 51t50 126h28q0 -38 -11.5 -72t-38.5 -65t-78 -49t-121 -18q-110 0 -323 40l-56 -314h306zM130 631l-26 6q13 57 61.5 98.5t128.5 41.5q60 0 155 -19l-126 -717
h-140l5 27h112l118 668q-84 14 -124 14q-69 0 -110.5 -35t-53.5 -84zM808 752q182 0 180 136h27q1 -71 -45.5 -117t-161.5 -46q-28 0 -60.5 2.5t-55.5 4.5t-63 8.5t-55 9t-61.5 11.5t-54.5 10q-103 20 -164 20q-84 0 -137 -45.5t-67 -104.5l-26 5q15 67 75 119.5t155 52.5
q56 0 169 -20q13 -2 54.5 -10t60 -11t55 -9t61 -8.5t56 -5t58.5 -2.5zM1043 68l-5 -27h-140l82 464h-154l5 27h182l-82 -464h112zM727 369l-5 -27h-305l-48 -274h113l-4 -27h-141l58 328h332zM745 41l5 27h111l71 396h-113l5 27h140l-80 -450h-139zM175 0l5 27h295l-5 -27
h-295zM737 0l5 27h293l-5 -27h-293z" />
    <glyph glyph-name="F_j.cswh" unicode="&#xe006;j" horiz-adv-x="1074" 
d="M827 505l5 27h181l-98 -562q-54 -279 -233 -279q-77 0 -118.5 47t-41.5 105q0 41 14 69l24 -10q-11 -29 -11 -59q0 -49 34 -87t99 -38q158 0 206 257l93 530h-154zM735 410l-5 -27h-332l65 373q8 -1 40.5 -7.5t43.5 -8.5t41 -7t45.5 -7t42.5 -5.5t46 -5t42.5 -3
t44.5 -1.5q120 0 171 51t50 126h27q0 -38 -11.5 -72t-38 -65t-77.5 -49t-121 -18q-111 0 -324 40l-55 -314h305zM130 631l-26 6q13 57 61.5 98.5t128.5 41.5q61 0 156 -19l-127 -717h-140l5 27h112l118 668q-75 14 -124 14q-69 0 -110.5 -35t-53.5 -84zM819 464l5 27h141
l-91 -514q-46 -245 -192 -245q-59 0 -89 33t-30 78q0 25 10 53l25 -11q-8 -20 -8 -42q0 -35 23 -59.5t69 -24.5q38 0 68.5 21t49 57t29.5 70.5t18 74.5l85 482h-113zM809 752q182 0 180 136h27q1 -71 -45.5 -117t-161.5 -46q-28 0 -61 2.5t-55 4.5t-64 9t-54.5 9t-62.5 11
t-53 10q-105 20 -165 20q-84 0 -137 -45.5t-67 -104.5l-26 5q16 67 75.5 119.5t154.5 52.5q55 0 170 -20q11 -2 54 -10t60 -11t54.5 -9t61.5 -8.5t55.5 -5t59.5 -2.5zM727 369l-5 -27h-304l-48 -274h113l-5 -27h-141l58 328h332zM175 0l5 27h295l-5 -27h-295z" />
    <glyph glyph-name="F_l.cswh" unicode="&#xe006;l" horiz-adv-x="1098" 
d="M735 410l-5 -27h-332l65 373q8 -1 40.5 -7.5t43.5 -8.5t41 -7t45.5 -7t42.5 -5.5t46 -5t42.5 -3t44.5 -1.5q88 0 142 31l-97 -553q-7 -51 -0.5 -84t26 -52.5t38.5 -27.5t38 -8q44 0 92 39l19 -21q-55 -45 -111 -45q-23 0 -47 10.5t-47.5 32t-34 63.5t-0.5 98l89 504
q-47 -14 -107 -14q-111 0 -324 40l-55 -314h305zM130 631l-26 6q13 57 61.5 98.5t128.5 41.5q61 0 156 -19l-127 -717h-140l5 27h112l118 668q-75 14 -124 14q-69 0 -110.5 -35t-53.5 -84zM989 888h27q1 -71 -45.5 -117t-161.5 -46q-28 0 -61 2.5t-55 4.5t-64 9t-54.5 9
t-62.5 11t-53 10q-105 20 -165 20q-84 0 -137 -45.5t-67 -104.5l-26 5q16 67 75.5 119.5t154.5 52.5q55 0 170 -20q11 -2 54 -10t60 -11t54.5 -9t61.5 -8.5t55.5 -5t59.5 -2.5q182 0 180 136zM956 58q30 0 67 30l17 -21q-44 -36 -84 -36q-41 0 -72 36.5t-16 119.5l98 565
q64 45 64 136h27q0 -98 -66 -151l-96 -554q-12 -67 9 -96t52 -29zM727 369l-5 -27h-304l-48 -274h113l-5 -27h-141l58 328h332zM470 0h-295l5 27h295z" />
    <glyph glyph-name="F_i.swsh" unicode="&#xe105;i" horiz-adv-x="1269" 
d="M340 474q25 0 50 10l10 -26q-28 -11 -60 -11q-69 0 -112 45t-43 110q0 71 52.5 123t153.5 52q93 0 223 -24l-87 -491q-28 -161 -100 -237t-172 -76q-92 0 -147.5 56t-55.5 140q0 60 28.5 106.5t69.5 69.5l14 -24q-36 -21 -60.5 -61t-24.5 -91q0 -72 48.5 -120.5
t127.5 -48.5q89 0 154 70.5t91 220.5l82 464q-114 19 -191 19q-87 0 -133 -44.5t-46 -103.5q0 -53 36 -90.5t92 -37.5zM974 752q182 0 180 136h27q1 -71 -45.5 -117t-161.5 -46q-120 0 -351 41q-139 25 -232 25q-106 0 -163 -57t-57 -132q0 -69 48 -119t121 -50q34 0 65 12
l10 -25q-35 -14 -75 -14q-86 0 -141 57.5t-55 138.5q0 86 63.5 151t183.5 65q86 0 236 -25q7 -1 39.5 -7t43 -7.5t40 -6.5t44 -7t41.5 -5t46.5 -4.5t44 -2.5t48.5 -1zM892 369l-5 -27h-304l-15 -87q-32 -176 -115 -261.5t-198 -85.5q-109 0 -176.5 68.5t-67.5 168.5
q0 70 35.5 126.5t84.5 84.5l13 -23q-44 -25 -75 -75t-31 -113q0 -88 60.5 -149t156.5 -61q104 0 180.5 80t105.5 245l19 109h332zM900 410l-5 -27h-332l64 367q227 -39 347 -39t171 51t50 126h27q0 -38 -11.5 -72t-38 -65t-77.5 -49t-121 -18q-136 0 -325 35l-54 -309h305z
M1208 68l-5 -27h-140l82 464h-154l5 27h182l-82 -464h112zM910 41l5 27h111l71 396h-113l5 27h140l-80 -450h-139zM902 0l5 27h293l-5 -27h-293z" />
    <glyph glyph-name="F_j.swsh" unicode="&#xe105;j" horiz-adv-x="1239" 
d="M340 474q25 0 50 10l10 -26q-28 -11 -60 -11q-69 0 -112 45t-43 110q0 71 52.5 123t153.5 52q93 0 223 -24l-87 -491q-28 -161 -100 -237t-172 -76q-92 0 -147.5 56t-55.5 140q0 60 28.5 106.5t69.5 69.5l14 -24q-36 -21 -60.5 -61t-24.5 -91q0 -72 48.5 -120.5
t127.5 -48.5q89 0 154 70.5t91 220.5l82 464q-114 19 -191 19q-87 0 -133 -44.5t-46 -103.5q0 -53 36 -90.5t92 -37.5zM974 752q182 0 180 136h27q1 -71 -45.5 -117t-161.5 -46q-120 0 -351 41q-139 25 -232 25q-106 0 -163 -57t-57 -132q0 -69 48 -119t121 -50q34 0 65 12
l10 -25q-35 -14 -75 -14q-86 0 -141 57.5t-55 138.5q0 86 63.5 151t183.5 65q86 0 236 -25q7 -1 39.5 -7t43 -7.5t40 -6.5t44 -7t41.5 -5t46.5 -4.5t44 -2.5t48.5 -1zM892 369l-5 -27h-304l-15 -87q-32 -176 -115 -261.5t-198 -85.5q-109 0 -176.5 68.5t-67.5 168.5
q0 70 35.5 126.5t84.5 84.5l13 -23q-44 -25 -75 -75t-31 -113q0 -88 60.5 -149t156.5 -61q104 0 180.5 80t105.5 245l19 109h332zM992 505l4 27h182l-99 -562q-6 -35 -15 -67.5t-28 -73t-42.5 -69.5t-62 -49t-84.5 -20q-77 0 -118.5 47t-41.5 105q0 39 13 69l24 -10
q-10 -22 -10 -59q0 -49 34 -87t99 -38q158 0 206 257l93 530h-154zM900 410l-5 -27h-332l64 367q227 -39 347 -39t171 51t50 126h27q0 -38 -11.5 -72t-38 -65t-77.5 -49t-121 -18q-136 0 -325 35l-54 -309h305zM984 464l5 27h141l-91 -514q-46 -245 -192 -245q-59 0 -89 33
t-30 78q0 28 9 53l26 -11q-8 -20 -8 -42q0 -35 23 -59.5t69 -24.5q123 0 165 223l85 482h-113z" />
    <glyph glyph-name="F_l.swsh" unicode="&#xe105;l" horiz-adv-x="1263" 
d="M390 484l10 -26q-28 -11 -60 -11q-69 0 -112 45t-43 110q0 71 52.5 123t153.5 52q93 0 223 -24l-87 -491q-28 -161 -100 -237t-172 -76q-92 0 -147.5 56t-55.5 140q0 60 28.5 106.5t69.5 69.5l14 -24q-36 -21 -60.5 -61t-24.5 -91q0 -72 48.5 -120.5t127.5 -48.5
q89 0 154 70.5t91 220.5l82 464q-114 19 -191 19q-87 0 -133 -44.5t-46 -103.5q0 -53 36 -90.5t92 -37.5q25 0 50 10zM900 410l-5 -27h-332l64 367q227 -39 347 -39q88 0 142 31l-97 -553q-7 -51 -0.5 -84t26 -52.5t38.5 -27.5t38 -8q44 0 92 39l19 -21q-56 -45 -111 -45
q-23 0 -47 10.5t-47.5 32t-34 63.5t-0.5 98l89 504q-47 -14 -107 -14q-136 0 -325 35l-54 -309h305zM974 752q182 0 180 136h27q1 -71 -45.5 -117t-161.5 -46q-120 0 -351 41q-139 25 -232 25q-106 0 -163 -57t-57 -132q0 -69 48 -119t121 -50q34 0 65 12l10 -25
q-35 -14 -75 -14q-86 0 -141 57.5t-55 138.5q0 86 63.5 151t183.5 65q86 0 236 -25q7 -1 39.5 -7t43 -7.5t40 -6.5t44 -7t41.5 -5t46.5 -4.5t44 -2.5t48.5 -1zM892 369l-5 -27h-304l-15 -87q-32 -176 -115 -261.5t-198 -85.5q-109 0 -176.5 68.5t-67.5 168.5
q0 70 35.5 126.5t84.5 84.5l13 -23q-44 -25 -75 -75t-31 -113q0 -88 60.5 -149t156.5 -61q104 0 180.5 80t105.5 245l19 109h332zM1121 58q30 0 67 30l17 -21q-44 -36 -84 -36q-41 0 -72 36.5t-16 119.5l98 565q64 45 64 136h27q0 -98 -66 -151l-96 -554q-12 -67 9 -96
t52 -29z" />
    <glyph glyph-name="T_h.cswh" unicode="&#xe020;h" horiz-adv-x="1440" 
d="M712 41l4 27h113l109 620q-24 -4 -60 -4q-86 0 -252 34l-114 -650h113l-5 -27h-141l124 710q187 -40 275 -40q53 0 94 11l-120 -681h-140zM1010 68l-4 -27h-140l60 338q49 57 108.5 90t117.5 33q67 0 107 -48t23 -148l-48 -279h153l-5 -27h-181l54 311q15 83 -16.5 123.5
t-86.5 40.5q-104 0 -202 -111l-52 -296h112zM1394 68l-4 -27h-140l46 263q19 106 -26.5 159t-117.5 53q-56 0 -115 -30t-107 -82l57 322q112 39 112 162h27q0 -131 -115 -181l-41 -232q91 68 182 68q38 0 71.5 -14t61 -42t38.5 -76.5t0 -110.5l-41 -232h112zM138 631h-27
q-1 70 45.5 116.5t161.5 46.5q87 0 272 -40l-125 -713h-141l5 27h113l116 665q-166 34 -240 34q-182 0 -180 -136zM878 752q182 0 180 136h27q1 -71 -45.5 -117t-161.5 -46q-88 0 -279 42q-193 41 -281 41q-120 0 -171 -51.5t-50 -125.5h-27q0 38 11.5 71.5t38.5 64.5
t77.5 49.5t120.5 18.5q97 0 288 -42q193 -41 272 -41zM612 0h-296l5 27h296zM998 0h-294l5 27h294z" />
    <glyph glyph-name="T_h.alt6" unicode="&#xe020;&#xe150;" horiz-adv-x="1412" 
d="M712 41l4 27h113l109 620q-24 -4 -60 -4q-86 0 -252 34l-114 -650h113l-5 -27h-141l124 710q187 -40 275 -40q53 0 94 11l-120 -681h-140zM1010 68l-4 -27h-140l60 338q49 57 108.5 90t117.5 33q67 0 107 -48t23 -148l-51 -293q-15 -89 20.5 -130.5t81.5 -41.5t93 40
l18 -21q-55 -46 -111 -46q-17 0 -36 6t-40 20.5t-34.5 38t-20.5 58t2 81.5l51 293q15 84 -16.5 124t-86.5 40q-104 0 -202 -111l-52 -296h112zM1333 -118q30 0 67 30l17 -21q-44 -36 -84 -36q-17 0 -34 7t-33.5 24.5t-21.5 47.5t1 77l51 293q8 57 0 97.5t-31.5 66t-52 37
t-60.5 11.5q-56 0 -115 -30t-107 -82l57 322q112 39 112 162h27q0 -131 -115 -181l-41 -232q91 68 182 68q38 0 71.5 -14t61 -41.5t38.5 -76t0 -111.5l-51 -293q-11 -67 9.5 -96t51.5 -29zM138 631h-27q-1 70 45.5 116.5t161.5 46.5q87 0 272 -40l-125 -713h-141l5 27h113
l116 665q-166 34 -240 34q-182 0 -180 -136zM878 752q182 0 180 136h27q1 -71 -45.5 -117t-161.5 -46q-88 0 -279 42q-193 41 -281 41q-120 0 -171 -51.5t-50 -125.5h-27q0 38 11.5 71.5t38.5 64.5t77.5 49.5t120.5 18.5q97 0 288 -42q193 -41 272 -41zM612 0h-296l5 27h296
zM998 0h-294l5 27h294z" />
    <glyph glyph-name="T_i.cswh" unicode="&#xe020;i" horiz-adv-x="1081" 
d="M624 68l-5 -27h-141l124 710q187 -40 275 -40q120 0 171 51t50 126h27q0 -38 -11.5 -72t-38 -65t-77.5 -49t-121 -18q-86 0 -252 34l-114 -650h113zM323 41l5 27h113l116 665q-166 34 -240 34q-182 0 -180 -136h-27q-1 70 45.5 116.5t161.5 46.5q87 0 272 -40l-125 -713
h-141zM877 752q182 0 180 136h27q1 -71 -45.5 -117t-161.5 -46q-88 0 -279 42q-193 41 -281 41q-120 0 -171 -51.5t-50 -125.5h-27q0 38 11.5 71.5t38.5 64.5t77.5 49.5t120.5 18.5q97 0 288 -42q193 -41 272 -41zM1020 68l-5 -27h-140l82 464h-154l5 27h182l-82 -464h112z
M722 41l5 27h111l71 396h-113l5 27h140l-80 -450h-139zM315 0l5 27h296l-5 -27h-296zM714 0l5 27h293l-5 -27h-293z" />
    <glyph glyph-name="T_h.swsh" unicode="&#xe115;h" horiz-adv-x="1475" 
d="M746 41l5 27h112l109 616h-20q-101 0 -252 36l-82 -465q-32 -176 -115 -261.5t-198 -85.5q-109 0 -176.5 68.5t-67.5 168.5q0 70 35.5 126.5t84.5 84.5l13 -23q-44 -25 -75 -75t-31 -113q0 -88 60.5 -149t156.5 -61q104 0 180.5 80t105.5 245l87 493q168 -42 274 -42
q29 0 53 3l-119 -673h-140zM289 519q58 0 111 46l18 -21q-62 -52 -129 -52q-69 0 -112 45t-43 109q0 71 52.5 123.5t153.5 52.5q24 0 51 -3t65 -11t58.5 -13t73 -18.5t67.5 -17.5l9 -3l-87 -494q-28 -161 -100 -237t-172 -76q-92 0 -147.5 56t-55.5 140q0 60 28.5 106.5
t69.5 69.5l14 -24q-36 -21 -60.5 -61t-24.5 -91q0 -72 48.5 -120.5t127.5 -48.5q89 0 154 70.5t91 220.5l82 470q-7 2 -46 12t-49 12.5t-41.5 10t-45.5 10t-37 6.5t-40 5.5t-33 1.5q-87 0 -133 -44.5t-46 -104.5q0 -52 36 -89.5t92 -37.5zM952 752q182 0 180 136h27
q1 -71 -45.5 -117t-161.5 -46q-103 0 -293 48l-58 14.5t-60 15.5t-52.5 12.5t-55.5 11t-46.5 6.5t-46.5 3q-106 0 -163 -57.5t-57 -132.5q0 -69 48 -118.5t121 -49.5q71 0 138 55l18 -20q-72 -62 -156 -62q-86 0 -141 57t-55 138q0 86 63.5 151.5t183.5 65.5q21 0 48 -3
t48 -6.5t57.5 -12t53 -12.5t61.5 -15.5t57 -14.5q186 -47 287 -47zM1429 68l-5 -27h-140l46 263q19 106 -26 159t-117 53q-117 0 -223 -113l55 313q83 15 119 62t35 110h27q1 -67 -36 -121t-121 -74l-39 -218q91 68 183 68q82 0 136.5 -61.5t33.5 -181.5l-41 -232h113z
M1045 68l-5 -27h-140l59 336q49 58 109 91.5t119 33.5q66 0 106.5 -48.5t22.5 -147.5l-48 -279h153l-5 -27h-180l54 311q15 83 -17 123.5t-86 40.5q-51 0 -104.5 -29.5t-97.5 -80.5l-52 -297h112zM1032 0h-294l5 27h294z" />
    <glyph glyph-name="T_h.swsh3" unicode="&#xe115;&#xe150;" horiz-adv-x="1446" 
d="M746 41l5 27h112l109 616h-20q-101 0 -252 36l-82 -465q-32 -176 -115 -261.5t-198 -85.5q-109 0 -176.5 68.5t-67.5 168.5q0 70 35.5 126.5t84.5 84.5l13 -23q-44 -25 -75 -75t-31 -113q0 -88 60.5 -149t156.5 -61q104 0 180.5 80t105.5 245l87 493q168 -42 274 -42
q29 0 53 3l-119 -673h-140zM400 565l18 -21q-62 -52 -129 -52q-69 0 -112 45t-43 109q0 71 52.5 123.5t153.5 52.5q24 0 51 -3t65 -11t58.5 -13t73 -18.5t67.5 -17.5l9 -3l-87 -494q-28 -161 -100 -237t-172 -76q-92 0 -147.5 56t-55.5 140q0 60 28.5 106.5t69.5 69.5
l14 -24q-36 -21 -60.5 -61t-24.5 -91q0 -72 48.5 -120.5t127.5 -48.5q89 0 154 70.5t91 220.5l82 470q-7 2 -46 12t-49 12.5t-41.5 10t-45.5 10t-37 6.5t-40 5.5t-33 1.5q-87 0 -133 -44.5t-46 -104.5q0 -52 36 -89.5t92 -37.5q58 0 111 46zM952 752q182 0 180 136h27
q1 -71 -45.5 -117t-161.5 -46q-103 0 -293 48l-58 14.5t-60 15.5t-52.5 12.5t-55.5 11t-46.5 6.5t-46.5 3q-106 0 -163 -57.5t-57 -132.5q0 -69 48 -118.5t121 -49.5q71 0 138 55l18 -20q-72 -62 -156 -62q-86 0 -141 57t-55 138q0 86 63.5 151.5t183.5 65.5q21 0 48 -3
t48 -6.5t57.5 -12t53 -12.5t61.5 -15.5t57 -14.5q186 -47 287 -47zM1367 -118q30 0 67 30l17 -21q-44 -36 -84 -36q-17 0 -34 7t-33.5 24.5t-21.5 47.5t1 77l51 293q19 105 -26.5 158.5t-116.5 53.5q-117 0 -223 -113l55 313q83 15 119 62t35 110h27q1 -67 -36 -121
t-121 -74l-39 -218q91 68 183 68q38 0 71.5 -14t60.5 -41.5t38 -76t0 -111.5l-51 -293q-11 -67 9.5 -96t51.5 -29zM1045 68l-5 -27h-140l59 336q49 58 109 91.5t119 33.5q67 0 107 -48t22 -148l-51 -293q-15 -89 20.5 -130.5t81.5 -41.5t93 40l18 -21q-55 -46 -111 -46
q-23 0 -47 10.5t-47.5 32t-34 64t-0.5 97.5l52 293q15 84 -17 124t-86 40q-51 0 -104.5 -29.5t-97.5 -80.5l-52 -297h112zM1032 0h-294l5 27h294z" />
    <glyph glyph-name="T_i.swsh" unicode="&#xe115;i" horiz-adv-x="1120" 
d="M289 519q58 0 111 46l18 -21q-62 -52 -129 -52q-69 0 -112 45t-43 109q0 71 52.5 123.5t153.5 52.5q24 0 51 -3t65 -11t58.5 -13t73 -18.5t67.5 -17.5l9 -3l-87 -494q-28 -161 -100 -237t-172 -76q-92 0 -147.5 56t-55.5 140q0 60 28.5 106.5t69.5 69.5l14 -24
q-36 -21 -60.5 -61t-24.5 -91q0 -72 48.5 -120.5t127.5 -48.5q89 0 154 70.5t91 220.5l82 470q-7 2 -46 12t-49 12.5t-41.5 10t-45.5 10t-37 6.5t-40 5.5t-33 1.5q-87 0 -133 -44.5t-46 -104.5q0 -52 36 -89.5t92 -37.5zM181 356l13 -23q-44 -25 -75 -75t-31 -113
q0 -88 60.5 -149t156.5 -61q104 0 180.5 80t105.5 245l87 493q168 -42 274 -42q120 0 171 51t50 126h27q0 -38 -11.5 -72t-38 -65t-77.5 -49t-121 -18q-101 0 -252 36l-82 -465q-32 -176 -115 -261.5t-198 -85.5q-109 0 -176.5 68.5t-67.5 168.5q0 70 35.5 126.5t84.5 84.5z
M952 752q182 0 180 136h27q1 -71 -45.5 -117t-161.5 -46q-103 0 -293 48l-58 14.5t-60 15.5t-52.5 12.5t-55.5 11t-46.5 6.5t-46.5 3q-106 0 -163 -57.5t-57 -132.5q0 -69 48 -118.5t121 -49.5q71 0 138 55l18 -20q-72 -62 -156 -62q-86 0 -141 57t-55 138q0 86 63.5 151.5
t183.5 65.5q21 0 48 -3t48 -6.5t57.5 -12t53 -12.5t61.5 -15.5t57 -14.5q186 -47 287 -47zM1059 68l-5 -27h-140l82 464h-154l5 27h182l-82 -464h112zM761 41l5 27h111l71 396h-113l5 27h140l-80 -450h-139zM753 0l5 27h293l-5 -27h-293z" />
    <glyph glyph-name="T_h.alt7" unicode="&#xe615;h" horiz-adv-x="1491" 
d="M762 41l5 27h112l110 620q-25 -4 -63 -4q-99 0 -252 36l-114 -652h113l-5 -27h-141l125 712q170 -42 274 -42q56 0 97 12l-121 -682h-140zM263 519q58 0 112 46l17 -21q-60 -52 -129 -52q-68 0 -111.5 45t-43.5 109q0 71 53 123.5t154 52.5q24 0 50 -3t66 -11.5t57 -12.5
t74.5 -19t66.5 -17l9 -3l-125 -715h-140l5 27h112l117 669q-7 2 -46 12t-49 12.5t-41.5 10t-45.5 10t-37 6.5t-40 5.5t-33 1.5q-87 0 -133.5 -44.5t-46.5 -104.5q0 -52 36 -89.5t92 -37.5zM926 752q182 0 180 136h27q1 -71 -45.5 -117t-161.5 -46q-101 0 -293 48
q-12 3 -57 14.5t-60.5 15.5t-52 12.5t-56 11.5t-45.5 6t-47 3q-107 0 -164 -57.5t-57 -132.5q0 -68 48 -118t121 -50q74 0 139 56l18 -21q-74 -62 -157 -62q-86 0 -141 57t-55 138q0 86 64 151.5t184 65.5q26 0 53 -3t69 -12t59.5 -13t76 -19t67.5 -17q184 -47 286 -47z
M1061 68l-5 -27h-140l59 336q49 58 109 91.5t119 33.5q66 0 106.5 -48.5t22.5 -147.5l-48 -279h153l-5 -27h-180l54 311q15 83 -17 123.5t-86 40.5q-51 0 -104.5 -29.5t-97.5 -80.5l-52 -297h112zM1445 68l-5 -27h-140l46 263q19 106 -26 159t-117 53q-117 0 -223 -113
l57 324q110 40 110 161h27q0 -130 -113 -180l-41 -233q91 68 183 68q82 0 136.5 -61.5t33.5 -181.5l-41 -232h113zM660 0h-295l5 27h295zM1048 0h-294l5 27h294z" />
    <glyph glyph-name="T_h.alt9" unicode="&#xe615;&#xe150;" horiz-adv-x="1462" 
d="M762 41l5 27h112l110 620q-25 -4 -63 -4q-99 0 -252 36l-114 -652h113l-5 -27h-141l125 712q170 -42 274 -42q56 0 97 12l-121 -682h-140zM375 565l17 -21q-60 -52 -129 -52q-68 0 -111.5 45t-43.5 109q0 71 53 123.5t154 52.5q24 0 50 -3t66 -11.5t57 -12.5t74.5 -19
t66.5 -17l9 -3l-125 -715h-140l5 27h112l117 669q-7 2 -46 12t-49 12.5t-41.5 10t-45.5 10t-37 6.5t-40 5.5t-33 1.5q-87 0 -133.5 -44.5t-46.5 -104.5q0 -52 36 -89.5t92 -37.5q58 0 112 46zM926 752q182 0 180 136h27q1 -71 -45.5 -117t-161.5 -46q-101 0 -293 48
q-12 3 -57 14.5t-60.5 15.5t-52 12.5t-56 11.5t-45.5 6t-47 3q-107 0 -164 -57.5t-57 -132.5q0 -68 48 -118t121 -50q74 0 139 56l18 -21q-74 -62 -157 -62q-86 0 -141 57t-55 138q0 86 64 151.5t184 65.5q26 0 53 -3t69 -12t59.5 -13t76 -19t67.5 -17q184 -47 286 -47z
M1061 68l-5 -27h-140l59 336q49 58 109 91.5t119 33.5q67 0 107 -48t22 -148l-51 -293q-15 -89 20.5 -130.5t81.5 -41.5q44 0 93 40l18 -22q-54 -45 -111 -45q-23 0 -47 10.5t-47.5 32t-34 64t-0.5 97.5l52 293q15 84 -17 124t-86 40q-51 0 -104.5 -29.5t-97.5 -80.5
l-52 -297h112zM1383 -118q27 0 67 30l17 -21q-46 -36 -84 -36q-17 0 -34 7t-33.5 24.5t-21.5 47.5t1 77l51 293q19 105 -26.5 158.5t-116.5 53.5q-117 0 -223 -113l57 324q110 40 110 161h27q0 -130 -113 -180l-41 -233q91 68 183 68q38 0 71.5 -14t60.5 -41.5t38 -76
t0 -111.5l-51 -293q-11 -67 9.5 -96t51.5 -29zM660 0h-295l5 27h295zM1048 0h-294l5 27h294z" />
    <glyph glyph-name="T_u" unicode="Tu" horiz-adv-x="1365" 
d="M1196 464h-113l5 27h141l-61 -338q-108 -123 -226 -123q-67 0 -107 48.5t-23 147.5l49 279h-147l44 248h-633l-28 -165h-28l34 192h687l-43 -248h146l-54 -311q-15 -83 16.5 -123.5t86.5 -40.5q50 0 103 29t98 80zM469 68l-5 -27h-141l123 698h296l-43 -241h-28l38 214
h-240l-113 -644h113zM169 41l5 27h112l114 644h-241l-20 -124h-28l26 151h294l-122 -698h-140zM700 464l5 27h140l-47 -263q-19 -106 26.5 -159t117.5 -53q56 0 114.5 30t107.5 81l-18 -100h154l-5 -27h-181l10 56q-92 -67 -182 -67q-37 0 -71 14t-61 42t-38.5 76.5
t-0.5 111.5l41 231h-112zM1307 68l-5 -27h-140l83 464h-154l4 27h182l-82 -464h112zM456 0h-295l5 27h295z" />
    <glyph glyph-name="T_w" unicode="Tw" horiz-adv-x="1618" 
d="M995 532l-5 -27h-276l44 248h-633l-29 -165h-28l35 192h687l-43 -248h248zM469 68l-5 -27h-141l123 698h296l-43 -241h-28l38 214h-240l-113 -644h113zM169 41l5 27h112l114 644h-241l-21 -124h-28l27 151h294l-122 -698h-140zM934 104l208 358l23 -14l-245 -424l-80 467
h147l-5 -27h-109zM1473 464h-107l5 27h147l-244 -467l-96 422l26 6l79 -350zM945 -13l-23 13l246 425l96 -423l-26 -5l-81 355zM1301 -12l-24 13l256 490h122l-5 -27h-101zM803 464h-104l5 27h122l83 -488l-27 -4zM456 0h-295l5 27h295zM1662 532l-5 -27h-284l5 27h284z" />
    <glyph glyph-name="f_f" unicode="ff" horiz-adv-x="784" 
d="M440 800q105 0 176 -87q-25 -54 -41 -147l-11 -61h-360q9 50 20 89.5t30 79.5t43 66.5t60.5 43t82.5 16.5zM-105 -311q-91 0 -141 57.5t-43 125.5l27 -3q-7 -58 36 -105.5t121 -47.5q53 0 92.5 22.5t63.5 63.5t38 84.5t24 100.5l89 504h359l-89 -502q-8 -44 -17 -78.5
t-25.5 -69.5t-37.5 -58.5t-52.5 -38t-71.5 -14.5q-64 0 -107 41l19 19q35 -33 88 -33q79 0 118.5 62.5t58.5 174.5l84 470h-304l-85 -482q-8 -47 -18.5 -84t-30 -78t-44.5 -68t-64.5 -45t-87.5 -18zM440 773q-87 0 -133.5 -64t-69.5 -177h304l7 39q14 83 37 138
q-61 64 -145 64zM49 505l5 27h113q13 65 31 114t49 96.5t79.5 73t113.5 25.5q102 0 178 -70q63 93 175 93q91 0 141 -57.5t43 -126.5l-27 3q7 58 -36 106t-121 48q-114 0 -170 -109q-75 86 -183 86q-60 0 -105.5 -25.5t-73 -72.5t-44 -96.5t-27.5 -114.5h-141zM132 -259
l19 20q47 -45 117 -45q53 0 92.5 22.5t63.5 63.5t38 84.5t24 100.5l90 504h210l-5 -27h-183l-85 -482q-8 -46 -19 -84t-30.5 -78.5t-44.5 -67.5t-64 -45t-87 -18q-80 0 -136 52zM155 464h-114l5 27h142l-89 -502q-8 -44 -17 -78.5t-25.5 -69.5t-37.5 -58.5t-52.5 -38
t-71.5 -14.5q-71 0 -110.5 43.5t-32.5 94.5l27 -3q-5 -40 26.5 -74t89.5 -34q42 0 73 18t51 53t32 74t21 92zM794 532l-5 -27h-211l11 59q8 44 17 78.5t25.5 69.5t37.5 58.5t52.5 38t71.5 14.5q71 0 110 -43.5t33 -94.5l-27 3q5 40 -26.5 74t-89.5 34q-42 0 -73 -18t-51 -53
t-32 -73.5t-22 -92.5l-5 -27h184z" />
    <glyph glyph-name="f_i" unicode="fi" horiz-adv-x="678" 
d="M319 41l4 27h113l70 396h-282l-85 -482q-10 -59 -25.5 -105t-42.5 -92t-71.5 -71t-104.5 -25q-91 0 -141.5 57.5t-43.5 125.5l27 -3q-7 -58 36 -105.5t122 -47.5q43 0 77 15.5t56.5 40.5t40 62t27 72.5t17.5 80.5l89 504h337l-80 -450h-140zM617 68l-4 -27h-140l82 464
h-350l6 35q11 64 25.5 110.5t39 91t64 68t93.5 23.5q75 0 117 -49.5t36 -107.5l-27 3q5 47 -29.5 87t-96.5 40q-46 0 -80.5 -20.5t-56.5 -60.5t-35.5 -84.5t-23.5 -105.5l-1 -3h351l-82 -464h112zM155 464h-114l5 27h142l-89 -502q-10 -56 -23 -97.5t-36 -81t-59.5 -60
t-85.5 -20.5q-72 0 -111 43.5t-33 94.5l27 -3q-5 -40 27 -74t90 -34q33 0 60 12.5t45.5 33t32.5 52.5t22.5 64.5t16.5 74.5zM627 671l-27 3q7 64 -38.5 118.5t-128.5 54.5q-57 0 -99.5 -25t-69 -71.5t-41.5 -95t-26 -113.5l-7 -37h-141l5 27h113l3 15q12 67 28.5 118.5
t45.5 102t77 78.5t112 28q96 0 148.5 -63.5t45.5 -139.5zM311 0l5 27h294l-5 -27h-294z" />
    <glyph glyph-name="f_l" unicode="fl" horiz-adv-x="748" 
d="M421 532l-5 -27h-211l12 68q10 57 23 97.5t37 80.5t64.5 61t95.5 21q96 0 166 -72l-99 -566q-7 -52 -1 -86.5t25.5 -54.5t38 -28.5t37.5 -8.5q45 0 93 39l18 -21q-54 -45 -111 -45q-23 0 -46.5 10.5t-47 32.5t-33.5 65.5t0 101.5l97 551q-58 55 -137 55q-48 0 -82.5 -18
t-56 -54t-33.5 -74t-22 -92l-7 -36h185zM50 505l5 27h112l9 48q10 60 25.5 105.5t44 91.5t77 71.5t114.5 25.5q127 0 210 -101l-102 -585q-13 -69 8.5 -99.5t50.5 -30.5q31 0 68 30l17 -21q-44 -36 -85 -36q-17 0 -33.5 7t-33 25.5t-21 50t1.5 79.5l100 572q-76 82 -181 82
q-59 0 -102 -22.5t-68.5 -64.5t-39.5 -85t-24 -100l-13 -70h-140zM-105 -311q-91 0 -141 57.5t-43 125.5l27 -3q-7 -58 36 -105.5t121 -47.5q53 0 92.5 22.5t63.5 63.5t38 84.5t24 100.5l89 504h211l-5 -27h-184l-84 -482q-8 -47 -18.5 -84t-30 -78t-44.5 -68t-64.5 -45
t-87.5 -18zM42 464l5 27h141l-89 -502q-8 -44 -17 -78.5t-25.5 -69.5t-37.5 -58.5t-52.5 -38t-71.5 -14.5q-71 0 -110.5 43.5t-32.5 94.5l27 -3q-5 -40 26.5 -74t89.5 -34q42 0 73 18t51 53t32 74t21 92l83 470h-113z" />
    <glyph glyph-name="f_f_i" unicode="ffi" horiz-adv-x="1052" 
d="M570 542l-7 -37h-359q9 50 20 89.5t30 79.5t43 66.5t60.5 43t82.5 16.5q103 0 177 -88q-29 -64 -47 -170zM-105 -311q-91 0 -141 57.5t-43 125.5l27 -3q-6 -58 37 -105.5t120 -47.5q53 0 92.5 22.5t63.5 63.5t38 84.5t24 100.5l89 504h359l-89 -502q-8 -44 -17 -78.5
t-25.5 -69.5t-37.5 -58.5t-52.5 -38t-71.5 -14.5q-66 0 -107 41l19 19q33 -33 88 -33q79 0 118.5 62.5t58.5 174.5l83 470h-303l-85 -482q-8 -47 -18.5 -84t-30 -78t-44.5 -68t-64.5 -45t-87.5 -18zM543 547q16 97 43 161q-62 65 -146 65q-87 0 -133.5 -64t-69.5 -177h303z
M268 -311q-82 0 -136 52l19 20q45 -45 117 -45q53 0 92.5 22.5t63.5 63.5t38 84.5t24 100.5l89 504h338l-81 -450h-140l5 27h112l71 396h-282l-85 -482q-8 -46 -19 -84t-30.5 -78.5t-44.5 -67.5t-64 -45t-87 -18zM991 68l-6 -27h-139l83 464h-351l6 35q11 64 25.5 111t39 91
t64.5 67.5t93 23.5q76 0 117.5 -49.5t35.5 -107.5l-27 3q6 46 -28.5 86.5t-97.5 40.5q-46 0 -80 -20.5t-56 -60.5t-35.5 -84.5t-23.5 -105.5l-1 -3h351l-82 -464h112zM1000 671l-27 3q7 64 -38.5 118.5t-128.5 54.5q-121 0 -182 -121q-75 88 -184 88q-60 0 -105.5 -25.5
t-73 -72.5t-44 -96.5t-27.5 -114.5h-141l5 27h113q13 65 31 114t49 96.5t79.5 73t113.5 25.5q101 0 178 -71q67 104 188 104q96 0 149 -63.5t45 -139.5zM155 464h-114l5 27h142l-89 -502q-8 -44 -17 -78.5t-25.5 -69.5t-37.5 -58.5t-52.5 -38t-71.5 -14.5q-70 0 -109.5 43.5
t-33.5 94.5l27 -3q-5 -40 26.5 -74t89.5 -34q42 0 73 18t51 53t32 74t21 92zM684 0l5 27h294l-5 -27h-294zM-248 -132l-14 2v-1zM161 -229l-10 -10zM959 676l14 -2zM986 41h-1l-2 -14z" />
    <glyph glyph-name="f_f_l" unicode="ffl" horiz-adv-x="1122" 
d="M576 575l-13 -70h-359q9 50 19.5 89.5t29.5 79.5t43 66.5t60.5 43t82.5 16.5q101 0 176 -85q-25 -57 -39 -140zM-105 -311q-91 0 -141.5 57.5t-42.5 125.5l27 -3q-7 -57 36 -105t121 -48q43 0 77 15.5t56.5 40.5t40 62t27 72.5t17.5 80.5l89 504h359l-89 -502
q-10 -56 -23 -97.5t-36 -81t-59.5 -60t-85.5 -20.5q-65 0 -108 41l19 19q35 -33 89 -33q33 0 60 12.5t45.5 33t32.5 52.5t22.5 64.5t16.5 74.5l83 470h-304l-84 -482q-8 -46 -19 -84t-30.5 -78.5t-44.5 -67.5t-64 -45t-87 -18zM549 580q12 74 34 130q-61 63 -144 63
q-87 0 -133 -63.5t-70 -177.5h304zM1045 88l17 -21q-44 -36 -84 -36q-18 0 -34.5 7t-33.5 24.5t-21.5 47.5t1.5 77l101 578q-74 82 -181 82q-128 0 -189 -118q-75 85 -182 85q-49 0 -88 -18t-64.5 -46t-45.5 -70t-31 -83t-20 -92h-141l5 27h113q10 50 22.5 91t34 83t50 70.5
t71 46.5t94.5 18q98 0 176 -68q67 101 195 101q125 0 211 -101l-104 -590q-12 -67 9 -96t52 -29q30 0 67 30zM793 532l-5 -27h-210l12 68q10 57 23 97.5t37 80.5t64.5 61t95.5 21q97 0 166 -72l-100 -572q-7 -51 -0.5 -84t26 -52.5t38.5 -27.5t38 -8q46 0 93 40l18 -22
q-55 -45 -111 -45q-23 0 -47 10.5t-47.5 32t-34 63.5t-0.5 98l98 557q-57 55 -137 55q-47 0 -81.5 -18.5t-56 -53.5t-34 -73.5t-21.5 -92.5l-7 -36h183zM268 -311q-83 0 -137 52l19 20q47 -45 118 -45q43 0 77 15.5t56.5 40.5t40 62t27 72.5t17.5 80.5l89 504h211l-5 -27
h-183l-85 -482q-8 -46 -19 -84t-30.5 -78.5t-44.5 -67.5t-64 -45t-87 -18zM155 464h-114l5 27h142l-89 -502q-10 -56 -23 -97.5t-36 -81t-59.5 -60t-85.5 -20.5q-72 0 -111 43.5t-32 94.5l27 -3q-5 -40 26.5 -74t89.5 -34q79 0 118.5 62.5t58.5 174.5z" />
    <glyph glyph-name=".notdef" horiz-adv-x="286" 
 />
    <glyph glyph-name=".null" horiz-adv-x="0" 
 />
    <glyph glyph-name="nonmarkingreturn" horiz-adv-x="333" 
 />
    <glyph glyph-name="space" unicode=" " horiz-adv-x="286" 
 />
    <glyph glyph-name="exclam" unicode="!" horiz-adv-x="289" 
d="M189 780h28l-102 -573h-28zM231 780h27l-101 -573h-28zM33 47q0 25 18 43t43 18t42.5 -18t17.5 -43t-17.5 -42.5t-42.5 -17.5t-43 17.5t-18 42.5zM59 47q0 -14 10 -24.5t25 -10.5q14 0 24 10.5t10 24.5t-10 24.5t-24 10.5q-15 0 -25 -10.5t-10 -24.5zM73 47q0 21 21 21
q8 0 14 -6t6 -15t-5.5 -15t-14.5 -6t-15 6t-6 15z" />
    <glyph glyph-name="quotedbl" unicode="&#x22;" horiz-adv-x="442" 
d="M133 471h-28l54 309h29zM175 471h-28l55 309h28zM345 471h-28l54 309h29zM387 471h-28l55 309h28z" />
    <glyph glyph-name="numbersign" unicode="#" horiz-adv-x="718" 
d="M209 256l91 260h227l-91 -260h-227zM319 489l-72 -205h170l72 205h-170zM513 557l79 223h28l-88 -250h-227l88 250h28l-78 -223h170zM347 0h-29l75 215h-170l-75 -215h-29l85 242h227zM618 284l-5 -28h-161l91 260h163l-5 -27h-138l-72 -205h127zM118 489l5 27h161
l-91 -260h-159l5 28h135l72 205h-128zM270 557l78 223h29l-88 -250h-163l5 27h139zM713 557l-5 -27h-160l88 250h29l-78 -223h126zM391 0h-28l84 242h164l-5 -27h-140zM150 215h-124l5 27h157l-85 -242h-28z" />
    <glyph glyph-name="dollar" unicode="$" horiz-adv-x="604" 
d="M308 74q-22 0 -44 3l54 310q2 -1 20 -9t22.5 -10.5t21.5 -11t23.5 -13t21 -14.5t20.5 -17t16 -18.5t14 -22.5t7.5 -24.5t3.5 -27.5q0 -62 -48 -103.5t-132 -41.5zM329 706q10 0 30 -2l-52 -297q-74 35 -111.5 69t-37.5 89q0 60 45.5 100.5t125.5 40.5zM270 -48h-28
l19 112q21 -4 47 -4q89 0 141.5 45.5t52.5 113.5q0 18 -3.5 34t-12.5 30t-16.5 25t-23 23t-23.5 18.5t-28 16.5t-25.5 13t-27 12t-22.5 10l53 302q76 -12 119 -61.5t28 -135.5l-26 5q11 64 -17 104t-82 55l-44 -252q36 -17 57.5 -29t54.5 -37t49.5 -58.5t16.5 -74.5
q0 -79 -60.5 -132.5t-160.5 -53.5q-16 0 -24 1zM353 828h28l-19 -110q-22 2 -33 2q-84 0 -134.5 -45t-50.5 -110q0 -61 41.5 -98t119.5 -73l-55 -314q-80 16 -130.5 69.5t-35.5 137.5l27 -4q-11 -64 23 -107.5t93 -62.5l46 265q-72 35 -114 78t-42 109q0 77 57.5 129.5
t154.5 52.5h9zM461 219q0 45 -33 74t-89 55l-43 -247h12q71 0 112 34t41 84zM185 565q0 -39 25 -65t76 -52l40 231q-66 -1 -103.5 -34t-37.5 -80zM215 47q-85 26 -136.5 89t-34.5 158l26 -5q-16 -90 38.5 -147.5t139.5 -75.5l-20 -114h-29zM395 828h28l-16 -92
q80 -21 125.5 -81t28.5 -156l-27 5q17 92 -30.5 145.5t-128.5 66.5z" />
    <glyph glyph-name="percent" unicode="%" horiz-adv-x="1004" 
d="M92 606q0 78 54.5 132t132.5 54t132 -54t54 -132t-54 -132.5t-132 -54.5t-132.5 54.5t-54.5 132.5zM562 175q0 78 54 132t132 54t132 -54t54 -132t-54 -132.5t-132 -54.5t-132 54.5t-54 132.5zM119 606q0 -65 47 -112t113 -47q65 0 112 47t47 112t-47 112t-112 47
q-66 0 -113 -47t-47 -112zM589 175q0 -66 47 -112.5t112 -46.5t112 46.5t47 112.5q0 65 -47 112t-112 47t-112 -47t-47 -112zM133 606q0 61 42.5 103t103.5 42t103 -42t42 -103t-42 -103t-103 -42t-103.5 42t-42.5 103zM603 175q0 61 42 103t103 42t103 -42t42 -103
t-42 -103t-103 -42t-103 42t-42 103zM160 606q0 -49 35 -83.5t84 -34.5q48 0 83 34.5t35 83.5q0 48 -35 83t-83 35q-49 0 -84 -35t-35 -83zM630 175q0 -49 34.5 -83.5t83.5 -34.5t83.5 34.5t34.5 83.5q0 48 -34.5 83t-83.5 35t-83.5 -35t-34.5 -83zM246 0h-35l621 780h36z
M193 0h-34l622 780h34z" />
    <glyph glyph-name="ampersand" unicode="&#x26;" horiz-adv-x="816" 
d="M743 241l-17 22q20 15 34.5 40.5t14.5 52.5q0 38 -29 69.5t-80 31.5q-77 0 -147 -109q-54 39 -120 39q-64 0 -100.5 -30.5t-36.5 -73.5q0 -40 28.5 -67.5t71.5 -27.5q26 0 49 10.5t43.5 33t34.5 42t35 53.5q51 -46 51 -110q0 -82 -65 -139t-157 -57q-108 0 -184 70.5
t-76 189.5q0 122 93.5 199.5t205.5 56.5q24 -18 58 -27l-6 -26q-34 9 -62 27q-99 17 -180.5 -52.5t-81.5 -177.5q0 -106 68 -169.5t165 -63.5q81 0 138 50t57 119q0 34 -21 65q-37 -57 -75.5 -89t-89.5 -32q-55 0 -91 34.5t-36 87.5q0 54 44.5 92.5t119.5 38.5q60 0 113 -29
q70 100 154 100q63 0 99.5 -41.5t36.5 -87.5q0 -34 -17.5 -65.5t-41.5 -49.5zM573 542l-19 20q34 32 42 70.5t-6.5 69.5t-46 51.5t-71.5 20.5q-58 0 -96 -40t-38 -91q0 -53 35 -89q-115 11 -204.5 -69t-89.5 -204q0 -123 81 -198.5t193 -75.5q97 0 166.5 62t69.5 148
q0 71 -58 122q33 52 63.5 78t71.5 26q46 0 70.5 -26.5t24.5 -60.5q0 -48 -43 -83l-17 22q33 26 33 61q0 24 -17.5 42t-50.5 18q-51 0 -100 -73q50 -55 50 -126q0 -99 -77.5 -168t-185.5 -69q-124 0 -212.5 82t-88.5 219q0 121 80 206t191 95q-12 28 -12 61q0 63 45 110.5
t116 47.5q48 0 87 -25.5t56.5 -62.5t8 -84.5t-50.5 -86.5zM399 373q65 0 113 -37q-41 -68 -73.5 -101t-76.5 -33q-38 0 -62 23t-24 58q0 37 32.5 63.5t90.5 26.5zM461 550l-7 -26q-51 12 -76.5 44.5t-25.5 74.5q0 47 33.5 82t86.5 35q48 0 81 -29.5t32.5 -74.5t-41.5 -84
l-18 20q47 46 26 93.5t-80 47.5q-40 0 -66.5 -27.5t-26.5 -62.5q0 -71 82 -93zM362 229q31 0 55.5 24t57.5 75q-36 18 -76 18q-46 0 -71 -19t-25 -44q0 -23 16.5 -38.5t42.5 -15.5z" />
    <glyph glyph-name="quotesingle" unicode="'" horiz-adv-x="230" 
d="M133 471h-28l54 309h29zM175 471h-28l55 309h28z" />
    <glyph glyph-name="parenleft" unicode="(" horiz-adv-x="353" 
d="M59 193q0 -140 43 -255.5t111 -178.5l-18 -20q-72 67 -117.5 187.5t-45.5 266.5q0 118 31 228t83.5 197t114 154.5t130.5 116.5l15 -22q-67 -48 -126.5 -113.5t-110.5 -149.5t-80.5 -190.5t-29.5 -220.5zM414 855l16 -22q-138 -98 -234 -265t-96 -375q0 -133 39.5 -239.5
t102.5 -164.5l-19 -20q-67 62 -108.5 174t-41.5 250q0 112 29 217t78.5 187.5t108 146.5t125.5 111z" />
    <glyph glyph-name="parenright" unicode=")" horiz-adv-x="352" 
d="M290 435q0 140 -43 255.5t-111 178.5l18 20q72 -67 117.5 -187.5t45.5 -266.5q0 -118 -31 -228t-83.5 -197t-114 -154.5t-130.5 -116.5l-15 22q67 48 126.5 113.5t110.5 149.5t80.5 190.5t29.5 220.5zM-65 -227l-16 22q138 98 234 265t96 375q0 133 -39.5 239.5
t-102.5 164.5l19 20q67 -62 108.5 -174t41.5 -250q0 -112 -29 -217t-78.5 -187.5t-108 -146.5t-125.5 -111z" />
    <glyph glyph-name="asterisk" unicode="*" horiz-adv-x="475" 
d="M330 660l130 19l3 -27l-167 -24l29 165l27 -4zM397 477l-25 -12l-74 149l167 24l4 -26l-129 -19zM156 503l-19 20l94 89l-115 63l13 24l147 -81zM185 473l-19 20l120 115l74 -149l-24 -12l-58 117zM263 672l22 128l26 -5l-28 -164l-148 80l13 24z" />
    <glyph glyph-name="plus" unicode="+" horiz-adv-x="544" 
d="M323 584h28l-32 -184h184l-5 -27h-212zM237 332h-183l5 27h211l-37 -212h-28zM284 359h212l-5 -27h-184l-32 -185h-28zM281 584h28l-37 -211h-210l4 27h183z" />
    <glyph glyph-name="comma" unicode="," horiz-adv-x="309" 
d="M27 -164l-15 20q5 4 14.5 10.5t32.5 27.5t41 42t32.5 50t14.5 54q0 20 -11 31t-26 11t-25 -10.5t-10 -24.5t8.5 -23t19.5 -10l2 14q-16 2 -16 19q0 8 6 14.5t15 6.5q10 0 16.5 -7.5t6.5 -20.5q0 -37 -32.5 -80t-64.5 -68l-33 -25l-14 20q68 48 102 104q-16 4 -28.5 19.5
t-12.5 36.5q0 25 17 42.5t43 17.5q25 0 43 -18.5t18 -49.5q0 -29 -15 -60t-36 -55.5t-42 -45t-36 -31.5z" />
    <glyph glyph-name="hyphen" unicode="-" horiz-adv-x="399" 
d="M329 346l-5 -28h-253l5 28h253zM64 277l4 27h253l-4 -27h-253z" />
    <glyph glyph-name="period" unicode="." horiz-adv-x="260" 
d="M21 47q0 25 18 43t43 18t42.5 -18t17.5 -43t-17.5 -42.5t-42.5 -17.5t-43 17.5t-18 42.5zM47 47q0 -14 10 -24.5t25 -10.5q14 0 24 10.5t10 24.5t-10 24.5t-24 10.5q-15 0 -25 -10.5t-10 -24.5zM61 47q0 21 21 21q8 0 14 -6t6 -15t-5.5 -15t-14.5 -6t-15 6t-6 15z" />
    <glyph glyph-name="slash" unicode="/" horiz-adv-x="695" 
d="M674 853h33l-741 -1081h-33zM725 853h32l-741 -1081h-32z" />
    <glyph glyph-name="zero" unicode="0" horiz-adv-x="710" 
d="M67 318q0 120 40.5 228t119 178.5t177.5 70.5q121 0 191.5 -89t70.5 -243q0 -120 -40.5 -228.5t-119 -179t-177.5 -70.5q-120 0 -191 90t-71 243zM135 318q0 -126 52.5 -195.5t141.5 -69.5q75 0 137.5 59t97 153t34.5 198q0 127 -52 195.5t-142 68.5q-75 0 -138 -59
t-97 -152.5t-34 -197.5zM94 318q0 -144 63 -225t172 -81q89 0 161 66t110.5 169t38.5 216q0 144 -62.5 224.5t-172.5 80.5q-89 0 -161.5 -66t-110.5 -168.5t-38 -215.5zM108 318q0 111 36.5 210t105.5 162.5t154 63.5q104 0 162.5 -76.5t58.5 -214.5q0 -111 -36.5 -210.5
t-105.5 -163t-154 -63.5q-103 0 -162 77t-59 215z" />
    <glyph glyph-name="one" unicode="1" horiz-adv-x="392" 
d="M15 41l5 27h112l114 648l-114 -39l-9 26l157 53l-126 -715h-139zM314 68l-5 -27h-141l128 725l27 -5l-122 -693h113zM302 0h-295l5 27h295zM110 742l169 58l8 -26l-168 -57z" />
    <glyph glyph-name="two" unicode="2" horiz-adv-x="639" 
d="M481 193l27 5q14 -77 -26 -130t-118 -53q-37 0 -117 24q-60 17 -101 17q-57 0 -108 -37q14 60 40.5 108.5t66.5 84.5t76 60t87 50q15 8 50 25t51 25.5t44.5 25t42.5 28.5t33 31t28 37.5t16 43t7 51.5q0 78 -58.5 128.5t-147.5 50.5q-85 0 -154 -55t-71 -152h-28
q3 110 81.5 172t171.5 62q101 0 167 -57.5t66 -148.5q0 -31 -7.5 -58t-17.5 -47.5t-31 -42t-36.5 -34.5t-45.5 -31t-46.5 -26.5t-52.5 -26.5l-50 -25q-89 -46 -147.5 -96.5t-89.5 -128.5q31 11 63 11q44 0 108 -20q80 -22 110 -22q65 0 96.5 43t20.5 108zM190 560l-27 1
q2 92 66 142.5t145 50.5q84 0 138 -46t54 -119q0 -25 -6.5 -48t-15 -40t-27 -35.5t-31.5 -29.5t-41.5 -27.5t-43.5 -24.5t-49.5 -25t-49.5 -25q-53 -27 -91.5 -52.5t-80.5 -65t-69.5 -93.5t-40.5 -121l-27 5q13 71 43 129t74.5 99.5t84.5 68.5t94 54q15 8 49.5 25t48.5 24.5
t40.5 23t38.5 25t29 26t24 31t13 34.5t6 42q0 60 -46 99t-118 39t-127 -44t-57 -123zM522 200l26 6q18 -96 -33 -164t-151 -68q-40 0 -129 25q-50 16 -89 16q-50 0 -96 -39l-19 21q52 45 115 45q37 0 97 -17q80 -24 121 -24q86 0 129.5 57.5t28.5 141.5z" />
    <glyph glyph-name="three" unicode="3" horiz-adv-x="598" 
d="M225 -96q-119 0 -234 71l15 23q108 -67 219 -67q108 0 184.5 67t76.5 171q0 84 -51.5 140.5t-139.5 74.5q114 18 176 79t62 136q0 65 -49 117t-138 52q-81 0 -137 -44t-73 -113l-26 6q19 77 82.5 127.5t153.5 50.5q101 0 157.5 -61t56.5 -135q0 -68 -44.5 -127
t-128.5 -92q126 -67 126 -211q0 -117 -84 -191t-204 -74zM14 10l14 22q98 -60 197 -60q92 0 156 55.5t64 141.5q0 83 -61 131t-165 51h-10l5 27q116 0 187 -56t71 -153q0 -100 -71 -162t-176 -62q-108 0 -211 65zM176 603l-26 5q16 65 68 105.5t128 40.5q84 0 128.5 -47
t44.5 -108q0 -82 -80 -144.5t-222 -62.5l5 27q127 0 198.5 54.5t71.5 125.5q0 51 -37.5 89.5t-108.5 38.5q-66 0 -111 -34.5t-59 -89.5z" />
    <glyph glyph-name="four" unicode="4" horiz-adv-x="658" 
d="M403 220l36 206h28l-42 -236q-32 2 -123.5 19t-138.5 17q-66 0 -116 -25l471 573l21 -18l-416 -506q20 3 40 3q47 0 137.5 -16t102.5 -17zM-10 197l496 603l22 -18l-496 -602zM246 -35l5 27h112l28 161q-14 2 -101 17t-127 15q-72 0 -127 -38l-15 22q61 43 142 43
q46 0 137.5 -16.5t122.5 -19.5l-37 -211h-140zM546 -8l-5 -27h-141l37 210h18q90 0 144 61l20 -17q-61 -70 -159 -71l-27 -156h113zM568 264l20 -19q-25 -28 -54.5 -42t-78.5 -14h-16l42 237h28l-37 -210q35 2 55 13.5t41 34.5zM533 -76h-295l5 27h295z" />
    <glyph glyph-name="five" unicode="5" horiz-adv-x="621" 
d="M530 592h-28l22 120h-263l-74 -269q64 26 126 26q99 0 168 -63.5t69 -173.5q0 -96 -52 -172.5t-131.5 -116.5t-167.5 -39q-117 0 -217 62l15 23q94 -58 202 -58q80 -1 154 36t122 107.5t48 157.5q0 96 -61.5 153t-148.5 57t-168 -49l94 346h317zM153 349l-16 22
q80 57 176 57q84 0 140 -52t56 -144q0 -124 -94.5 -206t-215.5 -81q-107 0 -194 56l14 23q83 -52 180 -52q110 0 196.5 74.5t86.5 185.5q0 78 -48.5 123.5t-120.5 45.5q-84 0 -160 -52zM572 592h-28l28 161h-343l-103 -374l-26 7l108 394h397z" />
    <glyph glyph-name="six" unicode="6" horiz-adv-x="664" 
d="M329 26q-76 0 -136.5 45t-80.5 138q-19 115 61.5 200.5t186.5 85.5q80 0 141.5 -55.5t61.5 -157.5q0 -112 -68.5 -184t-165.5 -72zM139 214q19 -82 71.5 -121t118.5 -39q85 0 146 64.5t61 163.5q0 89 -53.5 137.5t-122.5 48.5q-95 0 -166.5 -76t-54.5 -178zM360 509
q-86 0 -160 -55t-97 -140q2 87 26.5 176.5t67.5 167t111 127t149 49.5q117 0 167 -93l-24 -13q-44 79 -143 79q-79 0 -145.5 -54.5t-106.5 -134.5t-60 -177q42 44 99 69.5t116 25.5q42 0 84 -16t78.5 -46.5t59 -80.5t22.5 -111q0 -129 -80.5 -213t-194.5 -84
q-49 0 -94.5 17.5t-85.5 53t-63.5 98t-23.5 143.5q0 92 25.5 190.5t73 186.5t125.5 144.5t171 56.5q66 0 119.5 -29.5t82.5 -85.5l-23 -13q-54 101 -179 101q-86 0 -158.5 -53.5t-117 -137t-68.5 -178t-24 -182.5q0 -74 21 -131t56.5 -89.5t76.5 -48.5t86 -16
q101 0 174.5 76.5t73.5 193.5q0 107 -67 167t-150 60z" />
    <glyph glyph-name="seven" unicode="7" horiz-adv-x="569" 
d="M150 588h-28l27 151h442l-210 -272q-227 -293 -225 -503h-27q-1 219 231 520l176 228h-365zM197 -36h-27q-1 204 222 495l218 282l22 -16l-219 -283q-216 -281 -216 -478zM605 780v-27h-468l-29 -165h-28l34 192h491z" />
    <glyph glyph-name="eight" unicode="8" horiz-adv-x="687" 
d="M418 875q108 0 175 -59t67 -145q0 -149 -206 -234q75 -39 117.5 -89.5t42.5 -123.5q0 -114 -90.5 -179t-223.5 -65q-119 0 -193.5 60t-74.5 154q0 52 20.5 94.5t58.5 72t76 49t88 37.5q-133 80 -133 200q0 100 81 164t195 64zM546 224q0 61 -46.5 102t-136.5 78l-54 -18
t-51 -19t-51 -23t-41.5 -27t-35 -33.5t-20.5 -40t-9 -49.5q0 -63 54 -104.5t145 -41.5q107 0 176.5 47.5t69.5 128.5zM418 807q-86 0 -146.5 -46.5t-60.5 -113.5q0 -103 154 -171q45 15 80 30.5t70.5 39t55.5 55.5t20 70q0 56 -47.5 96t-125.5 40zM418 848
q-102 0 -175 -57.5t-73 -143.5q0 -127 173 -205q-48 -15 -78.5 -26.5t-74 -34t-68.5 -46t-43.5 -60.5t-18.5 -81q0 -83 65.5 -135t174.5 -52q121 0 204 58.5t83 158.5q0 76 -53 124.5t-150 91.5q48 16 85.5 33.5t78 45t63 66.5t22.5 86q0 74 -59.5 125.5t-155.5 51.5z
M74 194q0 42 20 77.5t39.5 56t70 44.5t69.5 30.5t80 26.5q7 3 11 4q102 -43 155.5 -89t53.5 -120q0 -94 -77.5 -148.5t-195.5 -54.5q-103 0 -164.5 48t-61.5 125zM418 834q91 0 146 -47t55 -116q0 -37 -17 -69.5t-41 -55t-62 -42.5t-67.5 -31.5t-68.5 -24.5
q-179 74 -179 199q0 81 68 134t166 53z" />
    <glyph glyph-name="nine" unicode="9" horiz-adv-x="664" 
d="M358 754q76 0 136.5 -45t80.5 -138q19 -115 -61.5 -200.5t-186.5 -85.5q-80 0 -141.5 55.5t-61.5 157.5q0 112 68.5 184t165.5 72zM548 566q-19 82 -71.5 121t-118.5 39q-85 0 -146 -64.5t-61 -163.5q0 -89 53.5 -137.5t122.5 -48.5q95 0 166.5 76t54.5 178zM327 271
q86 0 160 55t97 140q-2 -87 -26.5 -176.5t-67.5 -167t-111 -127t-149 -49.5q-117 0 -167 93l24 13q44 -79 143 -79q79 0 145.5 54.5t106.5 134.5t60 177q-42 -44 -99 -69.5t-116 -25.5q-42 0 -84 16t-78.5 46.5t-59 80.5t-22.5 111q0 129 80.5 213t194.5 84q49 0 94.5 -17.5
t85.5 -53t63.5 -98t23.5 -143.5q0 -92 -25.5 -190.5t-73 -186.5t-125.5 -144.5t-171 -56.5q-66 0 -119.5 29.5t-82.5 85.5l23 13q54 -101 179 -101q86 0 158.5 53.5t117 137t68.5 178t24 182.5q0 74 -21 131t-56.5 89.5t-76.5 48.5t-86 16q-101 0 -174.5 -76.5t-73.5 -193.5
q0 -107 67 -167t150 -60z" />
    <glyph glyph-name="colon" unicode=":" horiz-adv-x="268" 
d="M25 47q0 25 18 43t43 18t42.5 -18t17.5 -43t-17.5 -42.5t-42.5 -17.5t-43 17.5t-18 42.5zM51 47q0 -14 10 -24.5t25 -10.5q14 0 24 10.5t10 24.5t-10 24.5t-24 10.5q-15 0 -25 -10.5t-10 -24.5zM65 47q0 21 21 21q8 0 14 -6t6 -15t-5.5 -15t-14.5 -6t-15 6t-6 15zM87 402
q0 25 18 43t43 18t42.5 -18t17.5 -43t-17.5 -42.5t-42.5 -17.5t-43 17.5t-18 42.5zM113 402q0 -14 10 -24.5t25 -10.5q14 0 24 10.5t10 24.5t-10 24.5t-24 10.5q-15 0 -25 -10.5t-10 -24.5zM127 402q0 21 21 21q8 0 14 -6t6 -15t-5.5 -15t-14.5 -6t-15 6t-6 15z" />
    <glyph glyph-name="semicolon" unicode=";" horiz-adv-x="297" 
d="M106 402q0 25 18 43t43 18t42.5 -18t17.5 -43t-17.5 -42.5t-42.5 -17.5t-43 17.5t-18 42.5zM132 402q0 -14 10 -24.5t25 -10.5q14 0 24 10.5t10 24.5t-10 24.5t-24 10.5q-15 0 -25 -10.5t-10 -24.5zM146 402q0 21 21 21q8 0 14 -6t6 -15t-5.5 -15t-14.5 -6t-15 6t-6 15z
M21 -163l-15 20q5 4 14.5 10.5t32.5 27.5t41 42t32.5 50t14.5 54q0 20 -11 31t-26 11t-25 -10.5t-10 -24.5t8.5 -23t19.5 -10l2 14q-16 2 -16 19q0 8 6 14.5t15 6.5q10 0 16.5 -7.5t6.5 -20.5q0 -37 -32.5 -80t-64.5 -68l-33 -25l-14 20q68 48 102 104q-16 4 -28.5 19.5
t-12.5 36.5q0 26 17 43t43 17q25 0 43 -18.5t18 -49.5q0 -29 -15 -60t-36 -55.5t-42 -45t-36 -31.5z" />
    <glyph glyph-name="less" unicode="&#x3c;" horiz-adv-x="576" 
d="M466 177l-14 -24l-368 212l445 214l12 -25l-398 -191zM55 397l457 219l11 -25l-457 -219zM52 336l13 24l380 -220l-14 -23z" />
    <glyph glyph-name="equal" unicode="=" horiz-adv-x="597" 
d="M543 479l-5 -27h-438l5 27h438zM501 240l-5 -27h-438l5 27h438zM551 520l-5 -27h-438l5 27h438zM509 281l-5 -27h-438l5 27h438z" />
    <glyph glyph-name="greater" unicode="&#x3e;" horiz-adv-x="577" 
d="M125 555l14 24l368 -212l-445 -214l-12 25l398 191zM536 335l-457 -219l-11 25l457 219zM539 396l-13 -24l-380 220l14 23z" />
    <glyph glyph-name="question" unicode="?" horiz-adv-x="507" 
d="M215 241l-26 -5l-5 29q-4 21 3 40.5t15.5 32t34.5 31t38 26t48 27.5q30 17 48 29t43 32t39 38.5t24 45t10 55.5q0 61 -45 103.5t-116 42.5q-78 0 -137.5 -52t-66.5 -133l-27 3q8 90 76 149.5t155 59.5q84 0 136 -49.5t52 -123.5q0 -41 -15.5 -76.5t-45 -63t-54.5 -45
t-63 -38.5q-86 -50 -107 -72q-25 -27 -19 -57zM316 434q-86 -50 -111 -74q-45 -44 -35 -97l5 -30l-27 -5l-5 30q-6 35 4 64.5t35.5 53t49.5 40t59 36.5q7 4 11 6q36 21 56.5 34.5t43.5 34t33.5 44t10.5 51.5q0 45 -33 75t-87 30q-63 0 -110 -41t-52 -106l-28 2
q7 76 61.5 124t128.5 48q67 0 107 -37.5t40 -94.5q0 -33 -12 -61t-38.5 -52t-48 -38.5t-58.5 -36.5zM99 47q0 25 18 43t43 18t42.5 -18t17.5 -43t-17.5 -42.5t-42.5 -17.5t-43 17.5t-18 42.5zM125 47q0 -14 10 -24.5t25 -10.5q14 0 24 10.5t10 24.5t-10 24.5t-24 10.5
q-15 0 -25 -10.5t-10 -24.5zM139 47q0 21 21 21q8 0 14 -6t6 -15t-5.5 -15t-14.5 -6t-15 6t-6 15z" />
    <glyph glyph-name="at" unicode="@" horiz-adv-x="1009" 
d="M633 -95l12 -25q-107 -55 -227 -55q-166 0 -272.5 111.5t-106.5 275.5q0 134 73 251.5t191.5 186t249.5 68.5q170 0 280.5 -106t110.5 -261q0 -123 -60.5 -201t-144.5 -78q-86 0 -122 67q-70 -67 -162 -67q-76 0 -124.5 50.5t-48.5 125.5q0 90 70 156.5t161 66.5t141 -70
l18 63h27l-42 -148q-7 55 -47 91.5t-97 36.5q-79 0 -141.5 -59t-62.5 -137q0 -63 41.5 -105.5t104.5 -42.5q52 0 99.5 27.5t75.5 72.5q0 -45 30.5 -72.5t78.5 -27.5q73 0 125.5 69.5t52.5 181.5q0 144 -103 242t-261 98q-123 0 -235.5 -65t-182 -176.5t-69.5 -237.5
q0 -152 99.5 -256t252.5 -104q112 0 215 53zM323 248q0 73 58 127.5t132 54.5q58 0 95 -38.5t37 -96.5q0 -73 -57.5 -127t-132.5 -54q-59 0 -95.5 38t-36.5 96zM615 -59l12 -25q-105 -50 -209 -50q-148 0 -243 99.5t-95 246.5q0 123 67 231t176.5 171t229.5 63
q153 0 251.5 -94t98.5 -232q0 -105 -49.5 -171t-114.5 -66q-51 0 -77.5 35t-11.5 87l64 228h28l-66 -235q-11 -40 7 -64t56 -24q54 0 95.5 58t41.5 152q0 127 -91 212.5t-232 85.5q-112 0 -215.5 -59.5t-167 -161t-63.5 -216.5q0 -136 87.5 -227.5t223.5 -91.5q101 0 197 48
zM350 248q0 -46 29.5 -76.5t75.5 -30.5q62 0 112.5 46.5t50.5 107.5q0 46 -29.5 77t-75.5 31q-63 0 -113 -47t-50 -108z" />
    <glyph glyph-name="A" unicode="A" horiz-adv-x="867" 
d="M221 279l288 477l120 -477h-408zM499 688l-230 -382h325zM234 68l-5 -27h-152l135 224h420l56 -224h-151l5 27h112l-43 170h-383l-103 -170h109zM45 68l437 725l24 -14l-445 -738h-127l5 27h106zM519 777l25 7l180 -716h113l-5 -27h-129zM221 0h-295l5 27h295zM824 0
h-295l5 27h295z" />
    <glyph glyph-name="B" unicode="B" horiz-adv-x="805" 
d="M215 412h318q71 -2 119.5 -48t48.5 -115q0 -83 -70.5 -145.5t-172.5 -62.5h-308zM218 426l55 313h310q58 0 97 -39t39 -100q0 -67 -54.5 -119t-131.5 -55h-315zM237 385l-55 -317h276q89 0 152.5 55t63.5 126q0 56 -41 95t-101 41h-295zM583 712h-288l-46 -259h284
q65 2 112 47t47 100q0 48 -31.5 80t-77.5 32zM-12 0l5 27h465q106 0 181.5 67.5t75.5 154.5q0 61 -38 107.5t-98 62.5q66 17 110 68.5t44 112.5q0 65 -43.5 109t-106.5 44h-463l5 27h458q75 0 126 -51t51 -129q0 -55 -30.5 -103.5t-80.5 -78.5q43 -27 68 -71t25 -98
q0 -100 -83 -174.5t-201 -74.5h-470zM-4 41l5 27h112l113 644h-113l5 27h140l-122 -698h-140z" />
    <glyph glyph-name="C" unicode="C" horiz-adv-x="818" 
d="M745 690l16 90h28l-31 -172q-21 72 -96.5 116t-169.5 44q-165 0 -288 -120.5t-123 -284.5q0 -146 100 -248.5t247 -102.5q161 0 291 111l19 -20q-137 -118 -310 -118q-159 0 -266.5 109.5t-107.5 268.5q0 116 60.5 216t161.5 158t216 58q76 0 144 -27.5t109 -77.5z
M730 447h-28l21 122q-5 69 -72 113.5t-159 44.5q-148 0 -259 -108.5t-111 -255.5q0 -130 88 -220t218 -90q146 0 265 101l17 -20q-123 -108 -282 -108q-142 0 -237.5 97.5t-95.5 239.5q0 160 118.5 275.5t278.5 115.5q105 0 180.5 -52t78.5 -135zM772 447h-28l59 333h28z
" />
    <glyph glyph-name="D" unicode="D" horiz-adv-x="856" 
d="M383 41h-233l123 698h208q138 0 221 -74t83 -210q0 -176 -112 -295t-290 -119zM481 712h-186l-113 -644h201q165 0 270 111.5t105 275.5q0 122 -75.5 189.5t-201.5 67.5zM-12 0l5 27h390q183 0 299.5 124t116.5 304q0 140 -88 219t-230 79h-361l5 27h356q153 0 249 -86
t96 -239q0 -192 -124 -323.5t-319 -131.5h-395zM-4 41l5 27h112l113 644h-113l5 27h140l-122 -698h-140z" />
    <glyph glyph-name="E" unicode="E" 
d="M572 68l21 124h28l-27 -151h-444l62 350h342l-5 -27h-315l-52 -296h390zM561 432l-4 -27h-343l59 334h435l-28 -151h-28l23 124h-380l-49 -280h315zM-4 41l5 27h112l113 644h-113l5 27h140l-122 -698h-140zM628 0h-640l5 27h613l29 165h28zM722 588h-28l30 165h-604l5 27
h631z" />
    <glyph glyph-name="F" unicode="F" horiz-adv-x="703" 
d="M548 410l-5 -27h-333l63 356h435l-28 -151h-28l23 124h-380l-53 -302h306zM-4 41l5 27h112l113 644h-113l5 27h140l-122 -698h-140zM722 588h-28l30 165h-604l5 27h631zM295 68l-4 -27h-141l58 328h332l-5 -27h-305l-48 -274h113zM283 0h-295l5 27h295z" />
    <glyph glyph-name="G" unicode="G" horiz-adv-x="842" 
d="M737 482h-29l15 88q-5 68 -72.5 112.5t-158.5 44.5q-148 0 -259 -108.5t-111 -255.5q0 -129 86.5 -219.5t209.5 -90.5q166 0 267 133l24 131h-269l5 27h296l-29 -167q-110 -151 -294 -151q-136 0 -229.5 98t-93.5 239q0 160 118.5 275.5t278.5 115.5q105 0 180.5 -52
t78.5 -135h1zM745 690l16 90h28l-30 -173q-21 73 -96.5 117t-170.5 44q-165 0 -288 -120.5t-123 -284.5q0 -146 98.5 -248.5t238.5 -102.5q177 0 288 135l-25 -147h-29l12 68q-106 -83 -246 -83q-153 0 -258.5 110t-105.5 268q0 116 60.5 216t161.5 158t216 58
q76 0 144 -27.5t109 -77.5zM723 0h-28l29 169l33 189h-309l5 27h336zM779 482h-28l52 298h28z" />
    <glyph glyph-name="H" unicode="H" horiz-adv-x="918" 
d="M295 68l-5 -27h-140l62 350h517l-61 -350h-140l5 27h112l52 296h-463l-52 -296h113zM758 712h-113l5 27h140l-58 -334h-518l59 334h139l-5 -27h-112l-49 -280h463zM828 68l-5 -27h-141l123 698h140l-5 -27h-112l-113 -644h113zM-5 41l5 27h113l113 644h-114l5 27h141
l-122 -698h-141zM420 780l-5 -27h-295l4 27h296zM520 0l5 27h295l-5 -27h-295zM282 0h-295l5 27h295zM953 780l-5 -27h-295l5 27h295z" />
    <glyph glyph-name="I" unicode="I" horiz-adv-x="385" 
d="M295 68l-4 -27h-141l122 698h140l-5 -27h-112l-113 -644h113zM-4 41l5 27h112l112 644h-113l5 27h140l-121 -698h-140zM420 780l-5 -27h-295l4 27h296zM283 0h-295l5 27h295z" />
    <glyph glyph-name="J" unicode="J" horiz-adv-x="635" 
d="M260 753l4 27h340l-99 -568q-8 -41 -19 -78t-34.5 -81.5t-53.5 -76.5t-77.5 -54t-105.5 -22q-53 0 -94 16.5t-65 43.5t-37 61t-13 69.5t12 68.5l25 -10q-15 -36 -9.5 -75t23 -72t59.5 -54t99 -21q52 0 95 19.5t70.5 49t48.5 70.5t31.5 76.5t17.5 74.5l94 536h-312z
M215 -59q-52 0 -90.5 19.5t-55 49.5t-21.5 66t9 69l26 -9q-22 -62 12 -115t120 -53q53 0 94.5 24t66.5 65t39 81t22 86l86 488h-271l5 27h299l-92 -520q-7 -38 -17 -72.5t-30 -73.5t-46 -67t-66.5 -46.5t-89.5 -18.5z" />
    <glyph glyph-name="K" unicode="K" horiz-adv-x="808" 
d="M570 712l5 27h146l-350 -315l-182 -164l84 479h140l-5 -27h-113l-67 -381l423 381h-81zM754 68l-5 -27h-145l-216 379l355 319h128l-5 -27h-113l-330 -297l197 -347h134zM295 68l-5 -27h-140l35 197l193 173l218 -384h150l-5 -27h-160l-210 368l-162 -146l-27 -154h113z
M-4 41l5 27h112l113 644h-113l5 27h140l-122 -698h-140zM878 780l-4 -27h-296l5 27h295zM283 0h-295l5 27h295zM420 780l-4 -27h-296l5 27h295z" />
    <glyph glyph-name="L" unicode="L" horiz-adv-x="679" 
d="M547 68l22 124h28l-27 -151h-421l123 698h140l-5 -27h-112l-113 -644h365zM-5 41l5 27h112l113 644h-113l5 27h140l-122 -698h-140zM604 0h-617l5 27h590l29 165h28zM420 780l-5 -27h-295l4 27h296z" />
    <glyph glyph-name="M" unicode="M" horiz-adv-x="1069" 
d="M1103 780l-4 -27h-153l-446 -611l-228 611h-152l5 27h165l217 -582l426 582h170zM526 107l-22 16l433 593l-118 -675h-140l5 27h112l95 539zM295 68l-5 -27h-140l119 678l222 -595l-25 -9l-188 502l-96 -549h113zM979 68l-5 -27h-141l123 698h140l-5 -27h-112l-113 -644
h113zM226 712h-113l5 27h140l-122 -698h-140l5 27h112zM966 0h-295l5 27h295zM287 27l-5 -27h-294l5 27h294z" />
    <glyph glyph-name="N" unicode="N" horiz-adv-x="915" 
d="M769 712h-114l5 27h141l-125 -714l-406 728h-151l5 27h162l376 -676zM294 68l-4 -27h-141l120 684l405 -723l-24 -13l-368 657l-101 -578h113zM225 712h-114l5 27h141l-122 -698h-140l5 27h112zM713 -1l-26 5l129 735h140l-5 -27h-113zM963 780l-4 -27h-296l5 27h295z
M287 27l-5 -27h-295l5 27h295z" />
    <glyph glyph-name="O" unicode="O" horiz-adv-x="897" 
d="M54 363q0 177 130.5 304.5t307.5 127.5q159 0 266.5 -109.5t107.5 -268.5q0 -177 -130.5 -304.5t-307.5 -127.5q-159 0 -266.5 109.5t-107.5 268.5zM122 363q0 -130 88 -220t218 -90q148 0 259 108t111 256q0 130 -88 220t-218 90q-148 0 -259 -108t-111 -256zM81 363
q0 -146 100 -248.5t247 -102.5q107 0 202 54.5t152 148.5t57 202q0 146 -100 248.5t-247 102.5q-165 0 -288 -120t-123 -285zM95 363q0 160 118 275.5t279 115.5q142 0 237.5 -97.5t95.5 -239.5q0 -160 -118.5 -275.5t-278.5 -115.5q-142 0 -237.5 97.5t-95.5 239.5z" />
    <glyph glyph-name="P" unicode="P" horiz-adv-x="790" 
d="M488 323h-288l73 416h291q83 0 139.5 -51.5t56.5 -130.5q0 -94 -78.5 -164t-193.5 -70zM564 712h-269l-64 -362h257q103 0 174 62.5t71 144.5q0 66 -49 110.5t-120 44.5zM295 68l-4 -27h-141l47 268h291q119 0 202.5 74.5t83.5 173.5q0 83 -61.5 139.5t-148.5 56.5h-444
l5 27h439q99 0 168 -63.5t69 -159.5q0 -111 -91 -193t-222 -82h-269l-37 -214h113zM-4 41l5 27h112l113 644h-113l5 27h140l-122 -698h-140zM283 0h-295l5 27h295z" />
    <glyph glyph-name="Q" unicode="Q" horiz-adv-x="896" 
d="M95 363q0 160 118 275.5t279 115.5q142 0 237.5 -97.5t95.5 -239.5q0 -160 -118.5 -275.5t-278.5 -115.5q-142 0 -237.5 97.5t-95.5 239.5zM122 363q0 -130 88 -220t218 -90q148 0 259 108t111 256q0 130 -88 220t-218 90q-148 0 -259 -108t-111 -256zM81 363
q0 -146 100 -248.5t247 -102.5q14 0 28.5 -2.5t32.5 -9t29.5 -10.5t34 -15t30.5 -15t35 -18t33 -17q52 -26 88.5 -40t83 -21.5t88.5 8.5t79 55l20 -18q-34 -36 -73.5 -54t-74.5 -20.5t-78 8t-74 24t-72 34.5q-6 3 -32.5 17t-34.5 18t-29.5 14.5t-32 14t-27.5 9.5t-30 8.5
t-26 2.5q-159 1 -265.5 110.5t-106.5 267.5q0 177 130.5 304.5t307.5 127.5q159 0 266.5 -109.5t107.5 -268.5q0 -138 -82.5 -249.5t-210.5 -157.5q12 -5 96 -49q50 -25 83 -38t72 -19.5t72.5 7t63.5 45.5l19 -18q-35 -38 -74 -53t-83 -8t-79 20.5t-86 40.5q-130 66 -172 78
q148 22 251 136.5t103 264.5q0 146 -100 248.5t-247 102.5q-165 0 -288 -120t-123 -285z" />
    <glyph glyph-name="R" unicode="R" horiz-adv-x="830" 
d="M516 350h-311l68 389h314q77 0 130 -48.5t53 -121.5q0 -88 -74 -153.5t-180 -65.5zM587 712h-292l-59 -334h280q95 0 161 58t66 133q0 60 -45.5 101.5t-110.5 41.5zM764 68l-5 -27h-135l-158 295h50q111 0 189.5 70.5t78.5 162.5q0 77 -58 130.5t-139 53.5h-467l5 27h462
q93 0 158.5 -60.5t65.5 -150.5q0 -105 -86 -182.5t-209 -77.5h-4l128 -241h124zM295 68l-4 -27h-141l52 295h249l157 -295h-145l5 27h95l-129 241h-210l-42 -241h113zM-4 41l5 27h112l113 644h-113l5 27h140l-122 -698h-140zM283 0h-295l5 27h295zM456 0l5 27h295l-5 -27
h-295z" />
    <glyph glyph-name="S" unicode="S" horiz-adv-x="671" 
d="M580 475h-29l25 140q-19 44 -78.5 78t-134.5 34q-80 0 -125.5 -39t-45.5 -97q0 -54 40 -87.5t126 -73.5q4 -2 33.5 -15t43.5 -20.5t42 -24t43.5 -32.5t33.5 -38t26 -48.5t8 -57.5q0 -90 -68 -149.5t-182 -59.5q-152 0 -247 100l-15 -85h-28l27 152q36 -63 105.5 -101.5
t157.5 -38.5q103 0 163 52t60 130q0 27 -7 50t-24 43t-30.5 33.5t-40.5 28.5t-38.5 21.5t-41 19.5t-33.5 15q-89 41 -135 81t-46 105q0 70 53 116.5t145 46.5q89 0 156.5 -41.5t85.5 -96.5zM592 707l13 73h29l-25 -140q-27 53 -95 90.5t-151 37.5q-96 0 -154 -51.5
t-58 -125.5q0 -37 15 -67.5t45 -54.5t58 -40t71 -36q7 -3 33 -15t39.5 -19t38 -21t38 -27t29 -31t22.5 -39.5t7 -46.5q0 -72 -56 -120t-153 -48q-90 0 -159 41t-100 106l23 132h28l-23 -129q30 -55 91.5 -89t139.5 -34q85 0 133.5 40.5t48.5 100.5q0 24 -10.5 46t-21.5 35.5
t-38 30.5t-38 23t-45 21.5t-38 17.5q-45 21 -74.5 38t-63 44t-50.5 62.5t-17 78.5q0 86 65 145t174 59q136 0 229 -88zM6 0l54 305h28l-54 -305h-28zM622 475h-28l54 305h28z" />
    <glyph glyph-name="T" unicode="T" 
d="M469 68l-5 -27h-141l123 698h295l-27 -151h-28l23 124h-240l-113 -644h113zM169 41l4 27h113l113 644h-240l-21 -124h-29l28 151h294l-122 -698h-140zM756 588h-28l29 165h-632l-30 -165h-28l35 192h688zM456 0h-295l5 27h295z" />
    <glyph glyph-name="U" unicode="U" horiz-adv-x="889" 
d="M91 712l5 27h140l-79 -449q-20 -116 53 -197t191 -81q121 0 210 85t108 191l79 451h140l-5 -27h-112l-76 -429q-20 -113 -116.5 -205.5t-227.5 -92.5q-130 0 -211.5 91t-59.5 219l74 417h-113zM751 712h-113l5 27h140l-78 -449q-19 -103 -103 -183.5t-201 -80.5
q-111 0 -180 77t-50 185l80 451h140l-5 -27h-112l-77 -429q-16 -95 44.5 -162.5t159.5 -67.5q106 0 183.5 74t93.5 168zM946 780l-5 -27h-295l5 27h295zM99 753l5 27h295l-5 -27h-295z" />
    <glyph glyph-name="V" unicode="V" horiz-adv-x="861" 
d="M649 712l5 27h152l-431 -717l-180 717h151l-5 -27h-112l156 -619l373 619h-109zM401 -13l-23 13l445 739h126l-5 -27h-106zM159 712h-112l5 27h128l185 -737l-26 -6zM957 780l-5 -27h-295l5 27h295zM354 780l-5 -27h-294l5 27h294z" />
    <glyph glyph-name="W" unicode="W" horiz-adv-x="1213" 
d="M1113 712h-113l5 27h153l-362 -714l-124 640l27 5l108 -560zM635 681l24 -14l-350 -642l-111 714h153l-5 -27h-116l93 -603zM335 -12l-24 13l350 643l125 -641l-27 -5l-110 566zM823 -11l-24 12l374 738h126l-5 -27h-105zM160 712h-107l5 27h126l114 -736l-27 -4z
M1008 753l4 27h295l-5 -27h-294zM358 780l-5 -27h-292l4 27h293z" />
    <glyph glyph-name="X" unicode="X" horiz-adv-x="772" 
d="M206 712h-117l5 27h130l169 -334l-313 -364h-127l4 27h109l294 341zM728 68l-5 -27h-130l-184 362l288 336h129l-5 -27h-110l-269 -313l169 -331h117zM251 68l-4 -27h-149l302 351l178 -351h-150l5 27h100l-139 275l-237 -275h94zM389 739l-5 -27h-101l125 -246l212 246
h-95l5 27h149l-277 -322l-163 322h150zM425 27h296l-5 -27h-296zM397 780l-5 -27h-296l5 27h296zM833 780l-5 -27h-295l5 27h295zM239 0h-294l5 27h294z" />
    <glyph glyph-name="Y" unicode="Y" horiz-adv-x="793" 
d="M676 712h-97l5 27h150l-341 -421l-194 421h151l-5 -27h-103l157 -343zM497 68l-5 -27h-141l47 262l352 436h129l-5 -27h-109l-342 -423l-39 -221h113zM166 712h-115l5 27h129l199 -435l-47 -263h-140l5 27h112l41 232zM887 780l-5 -27h-295l4 27h296zM489 27l-5 -27h-295
l5 27h295zM357 780l-4 -27h-294l5 27h293z" />
    <glyph glyph-name="Z" unicode="Z" horiz-adv-x="723" 
d="M589 192h28l-27 -151h-567l720 700l19 -20l-672 -653h478zM176 588h-28l27 151h545l-719 -700l-17 19l671 654h-458zM631 192h28l-35 -192h-617v27h595zM738 780v-27h-575l-29 -165h-28l34 192h598z" />
    <glyph glyph-name="bracketleft" unicode="[" horiz-adv-x="362" 
d="M239 -220l-5 -27h-233l197 1119h234l-5 -27h-207l-186 -1065h205zM246 -179l-4 -27h-192l182 1037h192l-5 -27h-164l-173 -983h164z" />
    <glyph glyph-name="backslash" unicode="\" horiz-adv-x="692" 
d="M565 -237h-28l-371 1098h29zM521 -237h-27l-372 1098h28z" />
    <glyph glyph-name="bracketright" unicode="]" horiz-adv-x="361" 
d="M116 845l5 27h233l-197 -1119h-234l5 27h207l186 1065h-205zM109 804l4 27h192l-182 -1037h-192l5 27h164l173 983h-164z" />
    <glyph glyph-name="asciicircum" unicode="^" horiz-adv-x="580" 
d="M124 399l-21 17l265 342l144 -349l-24 -10l-127 307zM70 440l273 353l21 -16l-273 -353zM376 776l25 10l149 -361l-25 -10z" />
    <glyph glyph-name="underscore" unicode="_" horiz-adv-x="698" 
d="M541 -117l-5 -27h-547l5 27h547zM549 -76l-5 -27h-547l5 27h547z" />
    <glyph glyph-name="grave" unicode="`" horiz-adv-x="149" 
d="M138 612l-204 157l17 21l204 -157zM179 666l-16 -22l-204 158l16 21z" />
    <glyph glyph-name="a" unicode="a" horiz-adv-x="617" 
d="M251 315q85 0 200 -36l-31 -171q-99 -77 -212 -77q-80 0 -119 40t-39 95q0 61 48.5 105t152.5 44zM208 58q97 0 187 65l24 138q-95 27 -168 27q-90 0 -132 -36.5t-42 -85.5q0 -45 32 -76.5t99 -31.5zM560 27l-5 -27h-182l6 34q-86 -44 -171 -44q-96 0 -147.5 54
t-51.5 122q0 76 59.5 133t182.5 57q77 0 180 -28l6 30q12 66 -27 92t-105 26q-50 0 -101 -11t-77 -23l-11 25q29 13 83 25t106 12q82 0 128 -35t31 -119l-11 -57q-114 36 -202 36q-109 0 -162 -49t-53 -114q0 -59 43.5 -104t128.5 -45q109 0 209 70l-11 -60h154zM567 68
l-5 -27h-140l56 307q16 91 -36 130.5t-137 39.5q-54 0 -110 -12.5t-85 -26.5l-12 25q31 15 91 28t116 13q44 0 82 -10.5t69 -32.5t44.5 -63t3.5 -96l-49 -275h112z" />
    <glyph glyph-name="b" unicode="b" horiz-adv-x="727" 
d="M162 249q0 104 77 178.5t181 74.5q92 0 153.5 -63t61.5 -155q0 -104 -76.5 -178.5t-180.5 -74.5q-92 0 -154 63t-62 155zM190 249q0 -80 54 -135.5t134 -55.5q92 0 161 67t69 159q0 80 -54 135.5t-134 55.5q-92 0 -161 -67t-69 -159zM-40 0l5 27h154l32 184
q13 -83 76.5 -138.5t150.5 -55.5q109 0 190 79t81 188q0 96 -66.5 164t-162.5 68q-75 0 -140.5 -40.5t-101.5 -106.5l72 408h-154l5 27h182l-59 -334q86 73 196 73q109 0 183 -75t74 -184q0 -121 -89 -207.5t-210 -86.5q-69 0 -126 32t-91 86l-19 -108h-182zM-32 41l4 27
h112l117 668h-113l5 27h141l-127 -722h-139z" />
    <glyph glyph-name="c" unicode="c" horiz-adv-x="596" 
d="M489 488l8 44h28l-20 -113q-18 43 -68.5 70t-107.5 27q-109 0 -190.5 -79.5t-81.5 -188.5q0 -97 66.5 -164t169.5 -67q109 0 210 73l16 -21q-107 -79 -226 -79q-115 0 -189 74.5t-74 183.5q0 122 89 208.5t210 86.5q97 0 160 -55zM482 287h-28l17 99q-4 37 -46 63t-96 26
q-92 0 -161 -67.5t-69 -159.5q0 -81 54 -135.5t140 -54.5q97 0 186 65l15 -21q-96 -71 -201 -71q-98 0 -160 62.5t-62 154.5q0 105 77 179.5t181 74.5q66 0 117 -33.5t53 -85.5zM524 287h-28l17 96l26 149h29z" />
    <glyph glyph-name="d" unicode="d" horiz-adv-x="725" 
d="M71 249q0 104 77 178.5t181 74.5q92 0 153.5 -63t61.5 -155q0 -104 -76.5 -178.5t-180.5 -74.5q-92 0 -154 63t-62 155zM99 249q0 -80 54 -135.5t134 -55.5q92 0 161 67t69 159q0 80 -54 135.5t-134 55.5q-92 0 -161 -67t-69 -159zM57 249q0 -97 66.5 -164.5t163.5 -67.5
q76 0 142 41.5t100 108.5l-24 -140h153l-5 -27h-181l11 64q-85 -74 -196 -74q-110 0 -183.5 75t-73.5 184q0 121 89 207.5t210 86.5q69 0 126 -32.5t92 -87.5l55 313h-114l5 27h141l-79 -446q-11 85 -75 142t-151 57q-109 0 -190.5 -79t-81.5 -188zM665 68l-4 -27h-140
l129 736h-154l5 27h181l-129 -736h112z" />
    <glyph glyph-name="e" unicode="e" horiz-adv-x="573" 
d="M224 243q-75 0 -153 17q5 102 82 172t182 70q68 0 106.5 -30.5t38.5 -81.5q0 -69 -72.5 -108t-183.5 -39zM487 86l17 -21q-94 -75 -208 -75q-118 0 -192 74.5t-74 183.5q0 123 90 209t215 86q84 0 135 -42.5t51 -110.5q0 -61 -42 -104.5t-108 -63.5t-147 -20
q-57 0 -122 10q12 -68 64 -111t130 -43q88 0 166 60l17 -21q-86 -66 -183 -66q-101 0 -162.5 61.5t-62.5 153.5q80 -17 153 -17q115 0 192.5 42.5t77.5 118.5q0 57 -42.5 91.5t-116.5 34.5q-113 0 -195.5 -79t-82.5 -189q0 -97 66.5 -164t172.5 -67q103 0 191 69zM335 475
q-87 0 -153.5 -55.5t-80.5 -137.5q61 -11 123 -11q100 0 164.5 33t64.5 86q0 37 -31 61t-87 24z" />
    <glyph glyph-name="f" unicode="f" horiz-adv-x="410" 
d="M-106 -311q-91 0 -141.5 57.5t-42.5 125.5l27 -3q-7 -57 36 -105t121 -48q43 0 77 15.5t56.5 40.5t40 62t27 72.5t17.5 80.5l89 504h211l-5 -27h-183l-85 -482q-8 -46 -19 -84t-30.5 -78.5t-44.5 -67.5t-64 -45t-87 -18zM42 464l5 27h139l-88 -502q-10 -56 -23 -97.5
t-36 -81t-59.5 -60t-85.5 -20.5q-71 0 -110 43.5t-33 94.5l27 -3q-6 -39 26 -73.5t90 -34.5q79 0 118.5 62.5t58.5 174.5l84 470h-113zM603 680l-27 3q6 58 -36.5 106t-121.5 48q-43 0 -77 -15.5t-56.5 -40.5t-40 -62t-27 -72.5t-17.5 -80.5l-11 -61h-140l5 27h113l7 39
q10 59 25.5 105t42.5 92t71.5 71t104.5 25q91 0 141.5 -58t43.5 -126zM419 532l-4 -27h-212l11 59q10 56 23 97.5t36 81t59.5 60t85.5 20.5q72 0 111 -43.5t33 -94.5l-28 3q6 40 -26 74t-90 34q-33 0 -60 -12.5t-45.5 -33t-32.5 -52.5t-22.5 -64.5t-16.5 -74.5l-5 -27h183z
" />
    <glyph glyph-name="g" unicode="g" horiz-adv-x="722" 
d="M71 249q0 104 77 178.5t181 74.5q92 0 153.5 -63t61.5 -155q0 -104 -76.5 -178.5t-180.5 -74.5q-92 0 -154 63t-62 155zM99 249q0 -80 54 -135.5t134 -55.5q92 0 161 67t69 159q0 80 -54 135.5t-134 55.5q-92 0 -161 -67t-69 -159zM57 249q0 -97 66.5 -164.5t163.5 -67.5
q75 0 140 40.5t100 105.5l-36 -207q-9 -50 -24 -92.5t-43 -87.5t-75 -71.5t-109 -26.5q-83 0 -125 43t-42 99q0 30 9 55l26 -11q-8 -18 -8 -44q0 -46 35 -80.5t105 -34.5q44 0 80 16.5t59.5 42t41.5 61t27.5 67.5t15.5 69l18 101q-85 -72 -195 -72t-183.5 75t-73.5 184
q0 121 89 207.5t210 86.5q69 0 126 -32t91 -87l19 108h181l-5 -27h-154l-32 -184q-14 84 -77 139.5t-149 55.5q-109 0 -190.5 -79t-81.5 -188zM32 -180q0 41 13 71l24 -10q-10 -22 -10 -61q0 -59 46 -107.5t135 -48.5q53 0 96.5 19.5t71 49t48.5 70.5t31.5 76.5t17.5 74.5
l94 537h139l-5 -27h-111l-90 -515q-8 -41 -19 -78.5t-34.5 -82t-54 -76.5t-78.5 -53.5t-106 -21.5q-100 0 -154 57.5t-54 125.5z" />
    <glyph glyph-name="h" unicode="h" horiz-adv-x="696" 
d="M650 68l-5 -27h-140l47 263q19 106 -26.5 159t-117.5 53q-57 0 -116 -30.5t-107 -82.5l66 374h-154l5 27h181l-58 -329q95 68 183 68q38 0 71.5 -14t61 -42t38.5 -76.5t0 -110.5l-41 -232h112zM643 27l-5 -27h-181l54 311q15 83 -17 123.5t-86 40.5q-51 0 -104 -29.5
t-98 -80.5l-52 -297h112l-5 -27h-140l60 337q109 124 227 124q67 0 107 -48t23 -148l-49 -279h154zM203 736h-114l5 27h141l-128 -722h-138l4 27h112zM-34 27h293l-5 -27h-293z" />
    <glyph glyph-name="i" unicode="i" horiz-adv-x="344" 
d="M283 68l-5 -27h-140l82 464h-154l5 27h182l-82 -464h112zM-15 41l5 27h111l71 396h-113l5 27h140l-80 -450h-139zM-23 0l5 27h293l-5 -27h-293zM179 699q0 25 18 43t43 18t42.5 -18t17.5 -43t-17.5 -42.5t-42.5 -17.5t-43 17.5t-18 42.5zM205 699q0 -14 10 -24.5
t25 -10.5q14 0 24 10.5t10 24.5t-10 24.5t-24 10.5q-15 0 -25 -10.5t-10 -24.5zM219 699q0 21 21 21q8 0 14 -6t6 -15t-5.5 -15t-14.5 -6t-15 6t-6 15z" />
    <glyph glyph-name="j" unicode="j" horiz-adv-x="298" 
d="M51 505l4 27h182l-99 -562q-6 -35 -15 -67.5t-28 -73t-42.5 -69.5t-62 -49t-84.5 -20q-77 0 -118.5 47t-41.5 105q0 39 13 69l25 -10q-11 -29 -11 -59q0 -49 34 -87t99 -38q158 0 206 257l93 530h-154zM43 464l5 27h141l-91 -514q-46 -245 -192 -245q-59 0 -89 33t-30 78
q0 31 10 53l25 -11q-8 -20 -8 -42q0 -35 23 -59.5t69 -24.5q123 0 165 223l85 482h-113zM147 699q0 25 18 43t43 18t42.5 -18t17.5 -43t-17.5 -42.5t-42.5 -17.5t-43 17.5t-18 42.5zM173 699q0 -14 10 -24.5t25 -10.5q14 0 24 10.5t10 24.5t-10 24.5t-24 10.5
q-15 0 -25 -10.5t-10 -24.5zM187 699q0 21 21 21q8 0 14 -6t6 -15t-5.5 -15t-14.5 -6t-15 6t-6 15z" />
    <glyph glyph-name="k" unicode="k" horiz-adv-x="646" 
d="M582 68l-4 -27h-144l-92 163q111 30 166 82t55 113q0 49 -37.5 83t-95.5 34q-119 0 -245 -115l66 376h-154l5 27h181l-59 -338q106 77 206 77q70 0 115 -41.5t45 -102.5q0 -67 -51 -121.5t-157 -89.5l68 -120h132zM252 68l-5 -27h-126l60 337q128 124 249 124
q53 0 86 -29.5t33 -73.5q0 -57 -53.5 -106t-165.5 -77l-7 25q102 27 150 69t48 89q0 32 -25 54t-66 22q-106 0 -224 -110l-52 -297h98zM203 736h-114l5 27h141l-128 -722h-138l4 27h112zM575 27l-5 -27h-160l-107 192l23 13l100 -178h149zM-39 0l5 27h279l-5 -27h-279z" />
    <glyph glyph-name="l" unicode="l" horiz-adv-x="343" 
d="M166 736h-113l5 27h141l-102 -574q-7 -51 -0.5 -84t26 -52.5t38.5 -27.5t38 -8q46 0 93 40l18 -22q-56 -45 -111 -45q-23 0 -47 10.5t-47.5 32t-34 63.5t-0.5 98zM266 88l17 -21q-44 -36 -84 -36q-41 0 -72 36.5t-16 119.5l104 590h-155l5 27h182l-109 -621
q-12 -67 9 -96t52 -29q30 0 67 30z" />
    <glyph glyph-name="m" unicode="m" horiz-adv-x="1021" 
d="M974 68l-4 -27h-140l50 285q9 50 -1.5 89t-34 60t-50.5 31t-55 10q-105 0 -202 -122q-8 61 -51 91.5t-92 30.5q-96 0 -192 -110l17 99h-154l5 27h182l-9 -49q76 60 151 60q44 0 88.5 -24t66.5 -71q93 95 190 95q32 0 63.5 -12t60 -37t41.5 -70t3 -103l-45 -253h112z
M284 68l-5 -27h-140l58 338q99 123 197 123q26 0 50.5 -9t45.5 -28t30 -54.5t1 -82.5l-53 -301h154l-5 -27h-181l58 332q13 75 -18.5 109t-81.5 34q-84 0 -170 -107l-52 -300h112zM629 68l-5 -27h-140l51 285q4 23 4 46q95 130 200 130q26 0 50.5 -9t45.5 -28t30 -54.5
t1 -82.5l-52 -301h153l-5 -27h-181l58 332q13 75 -18.5 109t-81.5 34q-86 0 -174 -112q0 -12 -4 -42l-44 -253h112zM-14 41l5 27h111l69 396h-113l5 27h140l-18 -105l-60 -345h-139zM271 0h-293l5 27h293z" />
    <glyph glyph-name="n" unicode="n" horiz-adv-x="713" 
d="M555 306l-49 -279h154l-5 -27h-181l54 311q15 83 -17 123.5t-86 40.5q-105 0 -202 -110l-52 -297h112l-5 -27h-140l60 337q109 124 227 124q67 0 107 -48t23 -148zM667 68l-5 -27h-140l47 263q19 106 -26.5 159t-117.5 53q-57 0 -115 -30t-107 -82l18 101h-154l5 27h181
l-10 -57q91 68 182 68q38 0 71.5 -14t61 -42t38.5 -76.5t0 -110.5l-41 -232h112zM172 464h-113l5 27h141l-81 -450h-138l4 27h112zM-17 27h293l-5 -27h-293z" />
    <glyph glyph-name="o" unicode="o" horiz-adv-x="636" 
d="M30 249q0 121 89 207.5t210 86.5q109 0 183 -75t74 -184q0 -121 -89 -207.5t-210 -86.5q-110 0 -183.5 75t-73.5 184zM99 249q0 -80 54 -135.5t134 -55.5q92 0 161 67t69 159q0 80 -54 135.5t-134 55.5q-92 0 -161 -67t-69 -159zM57 249q0 -97 66.5 -164.5t163.5 -67.5
q109 0 190 79t81 188q0 96 -66.5 164t-162.5 68q-109 0 -190.5 -79t-81.5 -188zM71 249q0 104 77 178.5t181 74.5q92 0 153.5 -63t61.5 -155q0 -104 -76.5 -178.5t-180.5 -74.5q-92 0 -154 63t-62 155z" />
    <glyph glyph-name="p" unicode="p" horiz-adv-x="724" 
d="M159 249q0 104 77 178.5t181 74.5q92 0 153.5 -63t61.5 -155q0 -104 -76.5 -178.5t-180.5 -74.5q-92 0 -154 63t-62 155zM187 249q0 -80 54 -135.5t134 -55.5q92 0 161 67t69 159q0 80 -54 135.5t-134 55.5q-92 0 -161 -67t-69 -159zM215 -205l-5 -27h-140l78 444
q13 -84 76.5 -139.5t150.5 -55.5q109 0 190 79t81 188q0 96 -66.5 164t-162.5 68q-75 0 -140.5 -40.5t-101.5 -106.5l24 136h-154l5 27h181l-11 -64q85 75 197 75q109 0 183 -75t74 -184q0 -121 -89 -207.5t-210 -86.5q-69 0 -126.5 32t-91.5 87l-54 -314h112zM-84 -232
l5 27h112l118 669h-114l5 27h141l-127 -723h-140zM202 -274h-293l5 27h293z" />
    <glyph glyph-name="q" unicode="q" horiz-adv-x="717" 
d="M71 249q0 104 77 178.5t181 74.5q92 0 153.5 -63t61.5 -155q0 -104 -76.5 -178.5t-180.5 -74.5q-92 0 -154 63t-62 155zM99 249q0 -80 54 -135.5t134 -55.5q92 0 161 67t69 159q0 80 -54 135.5t-134 55.5q-92 0 -161 -67t-69 -159zM319 -232l5 27h111l47 268
q-86 -73 -195 -73q-110 0 -183.5 75t-73.5 184q0 121 89 207.5t210 86.5q68 0 125 -32.5t92 -87.5l20 109h181l-5 -27h-154l-33 -186q-12 84 -75.5 140.5t-150.5 56.5q-109 0 -190.5 -79t-81.5 -188q0 -97 66.5 -164.5t163.5 -67.5q76 0 141 40.5t100 106.5l-70 -396h-139z
M617 -205l-5 -27h-140l128 723h139l-5 -27h-112l-117 -669h112zM604 -274h-293l5 27h293z" />
    <glyph glyph-name="r" unicode="r" horiz-adv-x="525" 
d="M461 345h-28l23 127q-40 6 -80.5 -8t-72 -41t-54.5 -54t-38 -54l-43 -247h112l-5 -27h-140l50 283q14 24 33 49t48.5 54t62.5 46t74.5 26t83.5 -6zM503 345h-28l28 158q-41 17 -81.5 12.5t-73.5 -18t-64.5 -38.5t-53 -49t-39.5 -50l26 145h-154l5 27h181l-14 -78
q145 137 298 65zM169 464h-114l5 27h141l-80 -450h-140l5 27h112zM-27 0l5 27h294l-5 -27h-294z" />
    <glyph glyph-name="s" unicode="s" horiz-adv-x="598" 
d="M339 31q-56 0 -111.5 30t-123.5 93l210 296q16 -23 50 -62.5t56.5 -67t41.5 -68t19 -79.5q0 -60 -41.5 -101t-100.5 -41zM454 173q0 31 -15.5 65t-29.5 53t-49.5 60t-45.5 53l-174 -245q111 -101 199 -101q47 0 81 34t34 81zM339 -10q-110 0 -239 113l-73 -103h-117l5 27
h99l82 116q135 -126 243 -126q64 0 110 46t46 110q0 41 -19.5 84t-43 72t-58 68.5t-49.5 61.5q-31 42 -25.5 79.5t51.5 75.5l18 -21q-38 -30 -42.5 -57t20.5 -62q14 -20 49.5 -60.5t60 -70.5t45 -77t20.5 -93q0 -76 -53.5 -129.5t-129.5 -53.5zM343 625q-90 -73 -38 -162
l-299 -422h-88l4 27h70l281 397q-47 100 53 182z" />
    <glyph glyph-name="t" unicode="t" horiz-adv-x="456" 
d="M29 464l5 27h140l-52 -298q-16 -87 21.5 -131.5t93.5 -44.5t101.5 45t45.5 141h27q0 -57 -17 -100t-44 -66.5t-55.5 -35t-57.5 -11.5q-66 0 -113 53.5t-29 154.5l46 266h-112zM237 58q42 0 74 34.5t32 110.5h27q0 -90 -40 -131t-93 -41q-50 0 -82.5 40t-18.5 120l52 300
h216l-5 -27h-188l-48 -278q-11 -64 12.5 -96t61.5 -32zM412 532l-5 -27h-216l39 220l29 12l-36 -205h189zM37 505l5 27h111l31 175l30 12l-38 -214h-139z" />
    <glyph glyph-name="u" unicode="u" horiz-adv-x="690" 
d="M31 505l4 27h181l-54 -311q-15 -83 16.5 -123.5t86.5 -40.5q50 0 103 29t98 80l53 298h-113l5 27h141l-61 -338q-108 -123 -226 -123q-67 0 -107 48.5t-23 147.5l49 279h-153zM23 464l5 27h140l-47 -263q-19 -106 26.5 -159t117.5 -53q56 0 114.5 30t107.5 81l-18 -100
h154l-5 -27h-181l10 56q-92 -67 -182 -67q-37 0 -71 14t-61 42t-38.5 76.5t-0.5 111.5l41 231h-112zM630 68l-5 -27h-140l83 464h-154l4 27h182l-82 -464h112z" />
    <glyph glyph-name="v" unicode="v" horiz-adv-x="667" 
d="M516 464h-102l5 27h145l-286 -469l-122 469h146l-5 -27h-106l97 -374zM304 -13l-23 13l300 491h122l-5 -27h-102zM120 464h-106l5 27h122l127 -489l-26 -6zM710 532l-5 -27h-284l5 27h284zM310 532l-5 -27h-283l5 27h283z" />
    <glyph glyph-name="w" unicode="w" horiz-adv-x="935" 
d="M250 104l208 358l23 -14l-245 -424l-80 467h147l-5 -27h-109zM789 464h-107l5 27h147l-244 -468l-96 423l26 6l79 -351zM261 -13l-23 13l246 425l96 -424l-26 -5l-81 356zM617 -13l-24 13l256 491h122l-5 -27h-101zM119 464h-104l5 27h122l83 -488l-27 -4zM978 532
l-5 -27h-284l5 27h284zM311 532l-5 -27h-283l5 27h283z" />
    <glyph glyph-name="x" unicode="x" horiz-adv-x="640" 
d="M160 464h-104l5 27h114l127 -218l-217 -232h-112l4 27h95l196 209zM319 271l205 220h112l-4 -27h-96l-183 -197l116 -199h104l-5 -27h-115zM231 68l-5 -27h-122l205 219l128 -219h-123l5 27h71l-86 147l-137 -147h64zM443 464h-65l5 27h122l-193 -207l-121 207h124
l-5 -27h-72l79 -135zM560 0h-254l5 27h254zM322 532l-5 -27h-254l5 27h254zM644 532l-5 -27h-254l5 27h254zM218 0h-253l5 27h253z" />
    <glyph glyph-name="y" unicode="y" horiz-adv-x="679" 
d="M717 491l-5 -27h-97l-332 -545q-133 -217 -279 -217q-51 0 -101 26.5t-75 85.5l26 10q21 -51 62.5 -73t87.5 -22q132 0 256 204l341 558h116zM535 464h-107l5 27h151l-299 -490l-126 490h146l-5 -27h-107l102 -395zM123 464h-107l5 27h123l130 -507l-26 -43
q-63 -104 -121.5 -151t-122.5 -47q-101 0 -138 87l25 10q31 -70 113 -70q55 0 108.5 43.5t112.5 141.5l20 34zM312 532l-4 -27h-284l4 27h284zM725 532l-5 -27h-284l5 27h284z" />
    <glyph glyph-name="z" unicode="z" horiz-adv-x="590" 
d="M442 186h28l-26 -145h-414l528 452l17 -21l-471 -404h318zM134 346h-29l26 145h403l-527 -452l-17 21l471 404h-308zM484 186h28l-34 -186h-466v27h444zM553 532v-27h-434l-28 -159h-28l33 186h457z" />
    <glyph glyph-name="braceleft" unicode="{" horiz-adv-x="325" 
d="M377 831l-5 -27h-33q-65 0 -96.5 -39t-31.5 -95q0 -25 11 -84q22 -103 22 -127q0 -44 -23.5 -85.5t-65.5 -66.5q45 -42 45 -100q0 -21 -9 -48t-15 -39.5t-28 -49.5t-24 -41q-51 -86 -51 -130q0 -35 21.5 -56.5t68.5 -21.5h36l-5 -27h-31q-60 0 -88.5 30t-28.5 75
q0 50 55 143q4 8 19.5 33.5t21 36.5t15 30.5t13 34.5t3.5 30q0 32 -20 61.5t-57 42.5q54 15 87.5 57.5t33.5 90.5q0 25 -21 121q-12 56 -12 90q0 67 38.5 114t116.5 47h38zM385 872l-5 -27h-41q-84 0 -126.5 -53t-42.5 -122q0 -36 12 -92q21 -100 21 -119q0 -55 -43 -97.5
t-112 -42.5h-13l5 27h8q56 0 92 35t36 78q0 17 -20 113q-13 54 -13 98q0 49 19.5 93.5t65.5 76.5t111 32h46zM52 278h-25l5 27h21q51 -2 78.5 -31t27.5 -67q0 -14 -3.5 -28.5t-12 -32t-15 -29t-20 -34.5t-19.5 -34q-57 -98 -57 -150q0 -49 33 -84t98 -35h28l-5 -27h-23
q-77 0 -117.5 43.5t-40.5 102.5q0 61 60 164q7 12 20 34t19 33t14 26.5t11 27.5t3 23q0 27 -20.5 48.5t-59.5 22.5z" />
    <glyph glyph-name="bar" unicode="|" horiz-adv-x="274" 
d="M200 888h29l-201 -1151h-29zM243 888h28l-201 -1151h-28z" />
    <glyph glyph-name="braceright" unicode="}" horiz-adv-x="325" 
d="M-57 -206l5 27h33q65 0 96.5 39t31.5 95q0 25 -11 84q-22 103 -22 127q0 44 23.5 85t64.5 67q-44 40 -44 100q0 21 9 48t15 39.5t28 49.5t24 41q51 86 51 130q0 35 -21.5 56.5t-68.5 21.5h-36l5 27h31q60 0 88.5 -30t28.5 -75q0 -50 -55 -143q-4 -8 -19.5 -33.5
t-21 -36.5t-15 -30.5t-13 -34.5t-3.5 -30q0 -32 20 -62t57 -43q-54 -15 -87.5 -57t-33.5 -90q0 -25 21 -121q12 -56 12 -90q0 -67 -38.5 -114t-116.5 -47h-38zM-65 -247l5 27h41q84 0 126.5 53t42.5 122q0 36 -12 92q-21 100 -21 119q0 53 41 95.5t107 44.5h20l-5 -27h-8
q-56 0 -92 -35t-36 -78q0 -17 20 -113q13 -54 13 -98q0 -49 -19.5 -93.5t-65.5 -76.5t-111 -32h-46zM293 347l-5 -27h-22q-51 1 -78 30.5t-27 67.5q0 14 3.5 28.5t12 32t15 29t20 34.5t19.5 34q57 98 57 150q0 49 -33 84t-98 35h-28l5 27h23q77 0 117.5 -43.5t40.5 -102.5
q0 -61 -60 -164q-7 -12 -20 -34t-19 -33t-14 -26.5t-11 -27.5t-3 -23q0 -28 21.5 -49.5t62.5 -21.5h21z" />
    <glyph glyph-name="asciitilde" unicode="~" horiz-adv-x="541" 
d="M207 425q-44 0 -70 -35t-34 -83l-27 5q10 54 42 97t89 43q53 0 98 -58q27 -34 48 -34q48 0 63 84l26 -5q-19 -106 -89 -106q-20 0 -34.5 10.5t-33.5 32.5q-38 49 -78 49zM144 300l-27 5q19 106 90 106q33 0 67 -43q40 -49 79 -49q44 0 69.5 34.5t33.5 82.5l27 -4
q-10 -54 -41.5 -97t-88.5 -43q-56 0 -98 58q-27 34 -48 34q-48 0 -63 -84z" />
    <glyph glyph-name="uni00A0" unicode="&#xa0;" horiz-adv-x="286" 
 />
    <glyph glyph-name="exclamdown" unicode="&#xa1;" horiz-adv-x="290" 
d="M124 0h-28l101 573h29zM82 0h-28l101 573h28zM159 732q0 25 18 43t43 18t42.5 -18t17.5 -43t-17.5 -42.5t-42.5 -17.5t-43 17.5t-18 42.5zM185 732q0 -14 10 -24.5t25 -10.5q14 0 24 10.5t10 24.5t-10 24.5t-24 10.5q-15 0 -25 -10.5t-10 -24.5zM199 732q0 21 21 21
q8 0 14 -6t6 -15t-5.5 -15t-14.5 -6t-15 6t-6 15z" />
    <glyph glyph-name="cent" unicode="&#xa2;" horiz-adv-x="604" 
d="M347 537h9l-81 -462q-79 10 -130.5 70t-51.5 143q0 102 75.5 175.5t178.5 73.5zM120 288q0 -65 36.5 -114.5t95.5 -66.5l71 401q-83 -9 -143 -73t-60 -147zM352 671h28l-21 -120h-12q-107 0 -187.5 -78t-80.5 -185q0 -86 55 -150.5t138 -76.5l-21 -121h-28l17 100
q-84 21 -136 89.5t-52 158.5q0 116 83.5 200.5t199.5 89.5zM321 100q76 4 153 64l16 -22q-87 -69 -185 -69h-17l82 463q75 -8 119 -57t16 -119l-25 10q19 49 -7.5 85.5t-80.5 49.5zM394 671h28l-18 -100q84 -19 128.5 -80t10.5 -146l-25 10q31 78 -16.5 132t-129.5 62z
M293 -60h-28l21 120q10 -1 19 -1q101 0 193 72l17 -21q-97 -76 -206 -78z" />
    <glyph glyph-name="sterling" unicode="&#xa3;" horiz-adv-x="653" 
d="M600 602h-27q0 67 -42 113.5t-123 46.5q-96 0 -147.5 -67t-51.5 -160q0 -29 8 -97.5t9 -99.5h-125l4 28h92q-2 20 -6 56t-6.5 64t-2.5 49q0 65 23.5 121t76 94.5t126.5 38.5q93 0 142.5 -54.5t49.5 -132.5zM559 602h-27q0 52 -31.5 85.5t-92.5 33.5q-77 0 -117.5 -53
t-40.5 -133q0 -26 7 -89t8 -80h212l-5 -28h-232q-1 32 -9 101t-8 96q0 90 47 151.5t138 61.5q75 0 113 -41.5t38 -104.5zM404 48q68 0 105 61l23 -14q-46 -74 -128 -74q-35 0 -134 22.5t-154 20.5q125 76 125 247v13h228l-5 -27h-197q-4 -135 -79 -210q34 -5 109.5 -22
t106.5 -17zM19 -9l-10 24q52 19 76 32q60 10 172.5 -15t146.5 -25q90 0 141 81l23 -14q-21 -36 -62 -65t-102 -29q-40 0 -149.5 24.5t-163.5 16.5q-17 -8 -72 -30zM200 297h-107l5 27h129v-13q0 -32 -4.5 -60t-11 -49.5t-19.5 -41.5t-23.5 -33.5t-29 -27.5t-31 -22
t-35 -18.5t-34 -15.5t-35.5 -14l-10 25q40 16 61.5 25.5t53 30t47.5 43t29.5 60t14.5 84.5z" />
    <glyph glyph-name="yen" unicode="&#xa5;" horiz-adv-x="904" 
d="M730 712h-97l5 27h150l-341 -421l-194 421h151l-5 -27h-103l157 -343zM702 435l-5 -27h-160l267 331h129l-5 -27h-109l-224 -277h107zM220 712h-115l5 27h129l151 -331h-161l4 27h114zM694 394l-5 -27h-149l-63 -78l-6 -30h200l-4 -27h-228l13 71l73 91h169zM378 367
h-157l5 27h171l41 -90l-13 -72h-226l5 27h197l8 41zM389 191h-198l5 27h226l-31 -177h-140l5 27h112zM551 68l-5 -27h-141l32 177h227l-5 -27h-200l-21 -123h113zM941 780l-5 -27h-295l4 27h296zM538 0h-295l5 27h295zM411 780l-4 -27h-294l5 27h293z" />
    <glyph glyph-name="brokenbar" unicode="&#xa6;" horiz-adv-x="280" 
d="M90 243h29l-89 -506h-29zM203 888h29l-89 -506h-29zM246 888h28l-89 -506h-28zM133 243h28l-89 -506h-28z" />
    <glyph glyph-name="section" unicode="&#xa7;" horiz-adv-x="527" 
d="M289 506l2 -1q3 -1 31.5 -14.5t40 -20.5t31.5 -22.5t28.5 -34t8.5 -41.5q0 -50 -47.5 -83.5t-125.5 -33.5l-2 1q-4 2 -23 10t-27.5 12.5t-25.5 14t-26 18t-19.5 20.5t-15 26.5t-4.5 31.5q0 50 47.5 83.5t126.5 33.5zM159 644q0 -43 27 -71.5t76 -53.5q-73 -7 -117 -43.5
t-44 -86.5q0 -13 3 -25.5t7 -22t13 -19.5t14.5 -16.5t18.5 -15t18.5 -12.5t20.5 -11t19 -8.5t19 -8t16 -6.5q61 -28 92 -56t31 -72q0 -47 -35.5 -78t-97.5 -31q-72 0 -118 39t-33 116l27 -4q-11 -62 25.5 -93t98.5 -31q49 0 77.5 23.5t28.5 58.5q0 33 -25.5 54.5t-81.5 47.5
q-3 2 -20 9t-26 11.5t-26.5 14t-28 18t-24.5 22t-21.5 27t-13 31.5t-5.5 38q0 48 30.5 85.5t85.5 56.5q-59 47 -59 113q0 64 48 107.5t127 43.5q53 0 99.5 -20t75.5 -68t17 -116l-27 5q10 57 -14 97.5t-63.5 57.5t-87.5 17q-67 0 -107 -36t-40 -88zM306 754q72 0 118 -39.5
t33 -116.5l-27 4q11 63 -25.5 94t-98.5 31q-50 0 -78 -24t-28 -59q0 -33 25 -54t83 -48q4 -2 23.5 -10.5t30 -14t30.5 -16.5t31.5 -23t24.5 -28t19 -35.5t6 -42.5q0 -49 -31 -87t-86 -57q58 -47 58 -112q0 -63 -47.5 -106.5t-126.5 -43.5q-53 0 -99.5 20t-75.5 68t-17 116
l27 -5q-15 -84 37 -128t128 -44q67 0 107 36t40 87q0 42 -27 71t-76 55q73 6 117 42.5t44 87.5q0 19 -5 35t-16.5 29.5t-21 23t-28 20t-26.5 14.5t-28 13t-23 10q-30 14 -48.5 24.5t-38 26t-28.5 34.5t-9 42q0 47 35.5 78.5t97.5 31.5zM404 372q0 9 -2 18t-7.5 16.5
t-10.5 13.5t-14.5 13t-15.5 11t-18.5 10t-18 8.5t-19 8.5t-17.5 8q-64 -1 -101.5 -27.5t-37.5 -62.5q0 -20 10 -36t27.5 -28t35 -21t39.5 -18q7 -3 10 -4q65 1 102.5 27.5t37.5 62.5z" />
    <glyph glyph-name="dieresis" unicode="&#xa8;" horiz-adv-x="266" 
d="M-63 690q0 25 17.5 42.5t42.5 17.5t43 -17.5t18 -42.5t-18 -43t-43 -18t-42.5 18t-17.5 43zM-37 690q0 -14 10 -24.5t24 -10.5q15 0 25 10.5t10 24.5t-10 24.5t-25 10.5q-14 0 -24 -10.5t-10 -24.5zM-23 690q0 9 5.5 15t14.5 6t15 -6t6 -15q0 -21 -21 -21q-8 0 -14 6
t-6 15zM144 690q0 25 17.5 42.5t42.5 17.5t43 -17.5t18 -42.5t-18 -43t-43 -18t-42.5 18t-17.5 43zM169 690q0 -14 10.5 -24.5t24.5 -10.5t24.5 10.5t10.5 24.5t-10.5 24.5t-24.5 10.5t-24.5 -10.5t-10.5 -24.5zM183 690q0 8 6 14.5t15 6.5t15 -6t6 -15t-6 -15t-15 -6
q-8 0 -14.5 6t-6.5 15z" />
    <glyph glyph-name="copyright" unicode="&#xa9;" horiz-adv-x="905" 
d="M69 364q0 172 127 296t299 124q156 0 260.5 -107t104.5 -261q0 -172 -127.5 -296.5t-299.5 -124.5q-156 0 -260 107t-104 262zM96 364q0 -143 97 -242t240 -99q104 0 196.5 53t148 144t55.5 196q0 143 -97.5 242t-240.5 99q-104 0 -196.5 -53t-147.5 -144t-55 -196z
M110 364q0 155 115 267t270 112q139 0 231.5 -94.5t92.5 -232.5q0 -155 -115 -267t-271 -112q-139 0 -231 94.5t-92 232.5zM137 364q0 -126 85 -213t211 -87q144 0 251.5 104.5t107.5 247.5q0 126 -85.5 213t-211.5 87q-144 0 -251 -104.5t-107 -247.5zM590 564l4 23h28
l-15 -85q-14 30 -47.5 47.5t-73.5 17.5q-76 0 -135 -56.5t-59 -133.5q0 -68 47.5 -116.5t116.5 -48.5t135 50l17 -21q-74 -57 -152 -57q-81 0 -136 56.5t-55 136.5q0 89 66 153t155 64q60 0 104 -30zM591 409h-29l11 64q-3 22 -28 37.5t-59 15.5q-60 0 -106.5 -44.5
t-46.5 -104.5q0 -52 35.5 -88t87.5 -36q57 0 110 41l17 -21q-61 -47 -127 -47q-64 0 -107 44t-43 107q0 72 54 124t126 52q47 0 80.5 -23t34.5 -60zM633 409h-28l31 178h28z" />
    <glyph glyph-name="ordfeminine" unicode="&#xaa;" horiz-adv-x="520" 
d="M139 608q0 58 42 99t100 41q51 0 84.5 -34.5t33.5 -85.5q0 -58 -42 -98.5t-100 -40.5q-51 0 -84.5 34t-33.5 85zM163 608q0 -41 27 -68t67 -27q47 0 82.5 34t35.5 81q0 40 -27 68t-67 28q-47 0 -82.5 -35t-35.5 -81zM424 756l-16 -91q-12 43 -46.5 70t-80.5 27
q-63 0 -109.5 -45.5t-46.5 -108.5q0 -56 38 -94.5t94 -38.5q82 0 130 69l-11 -62h96l-4 -24h-121l3 19q-41 -26 -93 -26q-67 0 -111.5 45.5t-44.5 111.5q0 74 53.5 126t126.5 52q68 0 114 -49l8 43h123l-5 -24h-97zM479 520l-5 -24h-82l44 246h82l-4 -24h-58l-35 -198h58z
" />
    <glyph glyph-name="guillemotleft" unicode="&#xab;" horiz-adv-x="596" 
d="M259 131l-21 -17l-151 196l219 196l18 -20l-200 -179zM73 316l-18 21l224 200l18 -20zM51 291l21 16l154 -201l-21 -16zM503 131l-21 -17l-151 196l219 196l18 -20l-200 -179zM317 316l-18 21l224 200l18 -20zM295 291l21 16l154 -201l-21 -16z" />
    <glyph glyph-name="registered" unicode="&#xae;" horiz-adv-x="618" 
d="M92 528q0 111 82 190t192 79q100 0 167 -68.5t67 -168.5q0 -111 -81.5 -190t-192.5 -79q-99 0 -166.5 69t-67.5 168zM113 528q0 -90 61.5 -153t151.5 -63q101 0 177 73.5t76 174.5q0 90 -61.5 153t-151.5 63q-101 0 -177 -73.5t-76 -174.5zM127 528q0 96 71 165t168 69
q85 0 142 -58.5t57 -143.5q0 -96 -71 -165t-168 -69q-85 0 -142 58.5t-57 143.5zM148 528q0 -75 51.5 -128t126.5 -53q87 0 152.5 63.5t65.5 149.5q0 75 -51.5 128t-126.5 53q-87 0 -152.5 -63.5t-65.5 -149.5zM377 544h-80l17 98h83q20 0 33 -12t13 -31q0 -22 -18.5 -38.5
t-47.5 -16.5zM458 475l-4 -18h-53l-29 73h5q33 0 56.5 21t23.5 48q0 24 -17.5 40.5t-42.5 16.5h-143l4 18h139q33 0 55.5 -21t22.5 -54q0 -31 -21.5 -55t-55.5 -30l16 -39h44zM397 624h-68l-11 -62h59q20 0 34 11.5t14 25.5q0 11 -8 18t-20 7zM278 624h-30l3 18h48l-32 -185
h-47l4 18h27zM330 475l-4 -18h-45l13 73h62l30 -73h-38l4 18h8l-15 37h-36l-6 -37h27zM342 425l3 18h106l-3 -18h-106zM320 425h-106l3 18h106z" />
    <glyph glyph-name="macron" unicode="&#xaf;" horiz-adv-x="391" 
d="M350 661l-5 -27h-314l5 27h314zM358 702l-5 -27h-314l5 27h314z" />
    <glyph glyph-name="degree" unicode="&#xb0;" horiz-adv-x="437" 
d="M101 613q0 69 48 117.5t117 48.5t117.5 -48.5t48.5 -117.5t-48.5 -117t-117.5 -48q-70 0 -117.5 48t-47.5 117zM169 613q0 -41 28.5 -69t68.5 -28t68.5 28.5t28.5 68.5t-28.5 69t-68.5 29t-68.5 -29t-28.5 -69zM128 613q0 -57 40.5 -97.5t97.5 -40.5t98 40.5t41 97.5
t-41.5 98t-97.5 41q-57 0 -97.5 -41t-40.5 -98zM142 613q0 53 36 89t88 36t88.5 -36.5t36.5 -88.5t-36.5 -88t-88.5 -36t-88 35.5t-36 88.5z" />
    <glyph glyph-name="plusminus" unicode="&#xb1;" horiz-adv-x="594" 
d="M355 596h28l-32 -184h184l-5 -27h-212zM269 344h-183l5 27h211l-37 -212h-28zM316 371h212l-5 -27h-184l-32 -185h-28zM313 596h28l-37 -211h-210l4 27h183zM471 52l-5 -27h-438l5 27h438zM479 93l-5 -27h-438l5 27h438z" />
    <glyph glyph-name="twosuperior" unicode="&#xb2;" horiz-adv-x="416" 
d="M276 786q-59 0 -103.5 -37t-40.5 -110l-25 -2q-4 85 49.5 129t119.5 44q63 0 106.5 -37t43.5 -97q0 -25 -9.5 -47t-20 -36.5t-33.5 -31t-35.5 -23.5t-42.5 -22t-37 -19q-96 -49 -130 -111q14 3 28 3q29 0 69 -12q39 -12 57 -12q35 0 51.5 25t4.5 69l23 6q15 -54 -9 -89
t-70 -35q-16 0 -64 13q-35 11 -62 11q-42 0 -70 -20q16 65 56.5 103t103.5 71q8 4 32 15.5t34.5 17.5t29.5 17t28.5 21t21 23.5t16 29t4.5 33.5q0 49 -36.5 79.5t-89.5 30.5zM58 327l-24 4q8 45 27.5 82t48 63.5t53 43t56.5 32.5q11 6 36.5 18.5t36 18.5t28 17.5t24.5 20
t13.5 21.5t6.5 28q0 31 -25 51.5t-63 20.5q-46 0 -77.5 -26.5t-28.5 -81.5l-24 -1q-4 67 35.5 100t94.5 33q49 0 80.5 -26t31.5 -70q0 -16 -4 -30t-14.5 -26t-19 -21t-27.5 -20t-28.5 -16t-33 -16.5t-31.5 -15.5q-43 -22 -72.5 -43t-59.5 -63.5t-40 -97.5zM365 469l23 6
q20 -74 -15.5 -123t-100.5 -49q-28 0 -75 15q-32 9 -51 9q-34 0 -59 -23l-17 17q32 30 76 30q23 0 58 -11q48 -13 68 -13q52 0 81 40t12 102z" />
    <glyph glyph-name="threesuperior" unicode="&#xb3;" horiz-adv-x="403" 
d="M28 338l14 19q76 -56 157 -56q68 0 115 38.5t47 98.5q0 45 -29 78t-87 47q75 12 108.5 45.5t33.5 75.5q0 40 -32.5 71t-86.5 31t-91 -32t-42 -87l-24 2q7 64 51 102.5t106 38.5q65 0 104 -38t39 -88q0 -86 -91 -125q65 -43 65 -121q0 -73 -53.5 -117t-132.5 -44
q-90 0 -171 61zM323 438q0 95 -162 95l4 24h10q88 -2 130 -35t42 -84q0 -55 -41.5 -89t-106.5 -34q-78 0 -148 53l14 19q66 -48 134 -48q54 0 89 27.5t35 71.5zM173 662l-24 3q5 51 37 79t82 28t77.5 -26t27.5 -62q0 -47 -48 -80t-157 -33l5 24h10q89 1 127.5 27t38.5 62
q0 25 -22 44.5t-59 19.5q-41 0 -66 -22t-29 -64z" />
    <glyph glyph-name="acute" unicode="&#xb4;" horiz-adv-x="197" 
d="M-9 612l-14 24l258 156l15 -23zM-31 648l-14 23l259 157l14 -23z" />
    <glyph glyph-name="mu" unicode="&#xb5;" horiz-adv-x="756" 
d="M557 464h-113l5 27h141l-46 -254q-54 -99 -118 -153t-127 -54q-61 0 -100 41t-31 127l54 307h-154l5 27h181l-58 -330q-8 -74 22.5 -109.5t80.5 -35.5q54 0 112 49t107 140zM661 27l-5 -27h-181l16 90q-95 -101 -192 -101q-83 0 -130 56l-53 -305h-28l69 393
q11 -58 51 -87.5t91 -29.5q61 0 123.5 47.5t114.5 133.5l-30 -170h154zM173 464h-112l5 27h140l-132 -751h-28zM669 68l-5 -27h-141l34 191l49 273h-154l4 27h182l-82 -464h113z" />
    <glyph glyph-name="paragraph" unicode="&#xb6;" horiz-adv-x="763" 
d="M322 41l124 698h178l-123 -698h-179zM118 498q0 96 77 168.5t175 72.5h61l-74 -419h-64q-77 0 -126 50.5t-49 127.5zM468 712l-113 -644h123l114 644h-124zM145 498q0 -65 41.5 -108t106.5 -43h41l65 365h-29q-87 0 -156 -65t-69 -149zM168 41l5 27h112l37 211h-29
q-94 0 -155 63t-61 156q0 114 89 198t204 84h416l-5 -27h-411q-103 0 -184.5 -77.5t-81.5 -177.5q0 -81 53.5 -136.5t135.5 -55.5h62l-47 -265h-140zM661 68l-5 -27h-141l124 698h139l-5 -27h-112l-113 -644h113zM160 0l5 27h488l-5 -27h-488z" />
    <glyph glyph-name="periodcentered" unicode="&#xb7;" horiz-adv-x="263" 
d="M70 322q0 25 18 43t43 18t42.5 -18t17.5 -43t-17.5 -42.5t-42.5 -17.5t-43 17.5t-18 42.5zM96 322q0 -14 10 -24.5t25 -10.5q14 0 24 10.5t10 24.5t-10 24.5t-24 10.5q-15 0 -25 -10.5t-10 -24.5zM110 322q0 21 21 21q8 0 14 -6t6 -15t-5.5 -15t-14.5 -6t-15 6t-6 15z
" />
    <glyph glyph-name="cedilla" unicode="&#xb8;" horiz-adv-x="288" 
d="M85 -268l10 24q66 -28 149 -28q57 0 90.5 29.5t33.5 75.5q0 42 -34.5 72.5t-96.5 40.5l15 79l26 -4l-9 -53q61 -16 94 -51.5t33 -83.5q0 -58 -41.5 -95t-110.5 -37q-40 0 -79.5 7.5t-59.5 15.5zM101 -231l10 25q58 -24 133 -24q40 0 61.5 17t21.5 46q0 26 -26 46.5
t-76 26.5l3 27q63 -9 94.5 -35.5t31.5 -64.5q0 -41 -29 -66t-81 -25q-36 0 -72 7t-54 13zM195 -54l16 87l27 -5l-16 -87z" />
    <glyph glyph-name="onesuperior" unicode="&#xb9;" horiz-adv-x="276" 
d="M63 365l4 24h60l61 346l-56 -20l-7 23l94 34l-71 -407h-85zM250 389l-4 -24h-84l73 417l24 -5l-68 -388h59zM239 327h-183l4 24h183zM226 790l-105 -38l-8 23l106 38z" />
    <glyph glyph-name="ordmasculine" unicode="&#xba;" horiz-adv-x="438" 
d="M101 608q0 74 53.5 126t126.5 52q67 0 111.5 -45.5t44.5 -112.5q0 -74 -53.5 -125.5t-126.5 -51.5q-67 0 -111.5 45.5t-44.5 111.5zM163 608q0 -41 27 -68t67 -27q47 0 82.5 34t35.5 81q0 40 -27 68t-67 28q-47 0 -82.5 -35t-35.5 -81zM125 608q0 -56 38 -94.5t94 -38.5
q63 0 109.5 45t46.5 108q0 56 -38 95t-94 39q-63 0 -109.5 -45.5t-46.5 -108.5zM139 608q0 58 42 99t100 41q51 0 84.5 -34.5t33.5 -85.5q0 -58 -42 -98.5t-100 -40.5q-51 0 -84.5 34t-33.5 85z" />
    <glyph glyph-name="guillemotright" unicode="&#xbb;" horiz-adv-x="597" 
d="M90 494l21 17l151 -196l-219 -196l-18 20l200 179zM276 309l18 -21l-224 -200l-18 20zM298 334l-21 -16l-154 201l21 16zM334 494l21 17l151 -196l-219 -196l-18 20l200 179zM520 309l18 -21l-224 -200l-18 20zM542 334l-21 -16l-154 201l21 16z" />
    <glyph glyph-name="onequarter" unicode="&#xbc;" horiz-adv-x="961" 
d="M80 365l4 24h60l61 346l-56 -20l-7 23l94 34l-71 -407h-85zM267 389l-4 -24h-84l73 417l24 -5l-68 -388h59zM256 327h-183l4 24h183zM243 790l-105 -38l-8 23l106 38zM169 0h-31l622 780h31zM121 0h-31l622 780h31zM732 195l25 135h25l-30 -162q-19 2 -71 12t-84 10
q-36 0 -70 -14l293 341l18 -16l-247 -287h6q25 0 48 -3t48.5 -8.5t38.5 -7.5zM491 156l-18 15l319 371l18 -15zM645 38l4 24h59l13 71q-14 2 -38.5 7.5t-44.5 8.5t-41 3q-45 0 -83 -27l-14 20q43 31 97 31q31 0 83.5 -10t69.5 -12l-21 -116h-84zM832 62l-5 -24h-84l21 115
h18q59 0 98 38l17 -18q-47 -44 -113 -44l-12 -67h60zM853 219l17 -18q-35 -34 -88 -34h-16l30 163h25l-25 -139q32 3 57 28zM821 0h-183l4 24h183z" />
    <glyph glyph-name="onehalf" unicode="&#xbd;" horiz-adv-x="950" 
d="M71 365l4 24h60l61 346l-56 -20l-7 23l94 34l-71 -407h-85zM258 389l-4 -24h-84l73 417l24 -5l-68 -388h59zM247 327h-183l4 24h183zM234 790l-105 -38l-8 23l106 38zM165 0h-31l622 780h31zM117 0h-31l622 780h31zM745 465q-59 0 -103.5 -37t-40.5 -110l-25 -2
q-4 85 49.5 129t119.5 44q63 0 106.5 -37t43.5 -97q0 -25 -9.5 -47t-20 -36.5t-33.5 -31t-35.5 -23.5t-42.5 -22t-37 -19q-96 -49 -130 -111q13 3 28 3q29 0 69 -12q39 -12 57 -12q35 0 51.5 25t4.5 69l23 6q15 -54 -9 -89t-70 -35q-16 0 -64 13q-35 11 -62 11
q-42 0 -70 -20q16 65 56.5 103t103.5 71q8 4 32 15.5t34.5 17.5t29.5 17t28.5 21t21 23.5t16 29t4.5 33.5q0 49 -36.5 79.5t-89.5 30.5zM527 6l-24 4q8 45 27.5 82t48 63.5t53 43t56.5 32.5q11 6 36.5 18.5t36 18.5t28 17.5t24.5 20t13.5 21.5t6.5 28q0 31 -25 51.5
t-63 20.5q-46 0 -77.5 -26.5t-28.5 -81.5l-24 -1q-4 67 35.5 100t94.5 33q49 0 80.5 -26t31.5 -70q0 -16 -4 -30t-14.5 -26t-19 -21t-27.5 -20t-28.5 -16t-33 -16.5t-31.5 -15.5q-43 -22 -72.5 -43t-59.5 -63.5t-40 -97.5zM834 148l23 6q20 -74 -15.5 -123t-100.5 -49
q-28 0 -75 15q-32 9 -51 9q-34 0 -59 -23l-17 17q32 30 76 30q23 0 58 -11q48 -13 68 -13q52 0 81 40t12 102z" />
    <glyph glyph-name="threequarters" unicode="&#xbe;" horiz-adv-x="1088" 
d="M296 0h-31l622 780h31zM248 0h-31l622 780h31zM859 195l25 135h25l-30 -162q-19 2 -71 12t-84 10q-36 0 -70 -14l293 341l18 -16l-247 -287h6q25 0 48 -3t48.5 -8.5t38.5 -7.5zM618 156l-18 15l319 371l18 -15zM772 38l4 24h59l13 71q-14 2 -38.5 7.5t-44.5 8.5t-41 3
q-45 0 -83 -27l-14 20q43 31 97 31q31 0 83.5 -10t69.5 -12l-21 -116h-84zM959 62l-5 -24h-84l21 115h18q59 0 98 38l17 -18q-47 -44 -113 -44l-12 -67h60zM980 219l17 -18q-35 -34 -88 -34h-16l30 163h25l-25 -139q32 3 57 28zM948 0h-183l4 24h183zM55 338l14 19
q76 -56 157 -56q68 0 115 38.5t47 98.5q0 45 -29 78t-87 47q75 12 108.5 45.5t33.5 75.5q0 40 -32.5 71t-86.5 31t-91 -32t-42 -87l-24 2q7 64 51 102.5t106 38.5q65 0 104 -38t39 -88q0 -86 -91 -125q65 -43 65 -121q0 -73 -53.5 -117t-132.5 -44q-90 0 -171 61zM350 438
q0 95 -162 95l4 24h10q88 -2 130 -35t42 -84q0 -55 -41.5 -89t-106.5 -34q-78 0 -148 53l14 19q66 -48 134 -48q54 0 89 27.5t35 71.5zM200 662l-24 3q5 51 37 79t82 28t77.5 -26t27.5 -62q0 -47 -48 -80t-157 -33l5 24h10q89 1 127.5 27t38.5 62q0 25 -22 44.5t-59 19.5
q-41 0 -66 -22t-29 -64z" />
    <glyph glyph-name="questiondown" unicode="&#xbf;" horiz-adv-x="507" 
d="M321 510l-6 29l26 5l6 -29q5 -26 -3 -47t-34 -42.5t-43 -32.5t-59 -35q-30 -17 -48.5 -29t-43.5 -32t-39 -38.5t-24 -45t-10 -55.5q0 -61 45 -103.5t116 -42.5q78 0 137.5 52t66.5 132l27 -2q-7 -91 -75.5 -150t-155.5 -59q-84 0 -136 49.5t-52 123.5q0 41 15.5 76
t45.5 63t54.5 45.5t62.5 38.5q40 23 56.5 33.5t38.5 28t28.5 33t3.5 34.5zM361 517l-6 29l27 6l6 -30q6 -34 -3 -63t-37 -54.5t-48.5 -39t-59.5 -36.5q-8 -5 -12 -7q-36 -21 -56 -34.5t-43 -34t-33.5 -44t-10.5 -51.5q0 -45 32.5 -75t86.5 -30q64 0 111 41t52 106l27 -3
q-7 -75 -61.5 -123t-128.5 -48q-67 0 -107 37.5t-40 94.5q0 33 12.5 61t38.5 51.5t48 38.5t59 37q86 50 112 75q44 44 34 96zM311 732q0 25 18 43t43 18t42.5 -18t17.5 -43t-17.5 -42.5t-42.5 -17.5t-43 17.5t-18 42.5zM337 732q0 -14 10 -24.5t25 -10.5q14 0 24 10.5
t10 24.5t-10 24.5t-24 10.5q-15 0 -25 -10.5t-10 -24.5zM351 732q0 21 21 21q8 0 14 -6t6 -15t-5.5 -15t-14.5 -6t-15 6t-6 15z" />
    <glyph glyph-name="Agrave" unicode="&#xc0;" horiz-adv-x="867" 
d="M221 279l288 477l120 -477h-408zM499 688l-230 -382h325zM234 68l-5 -27h-152l135 224h420l56 -224h-151l5 27h112l-43 170h-383l-103 -170h109zM45 68l437 725l24 -14l-445 -738h-127l5 27h106zM519 777l25 7l180 -716h113l-5 -27h-129zM221 0h-295l5 27h295zM824 0
h-295l5 27h295zM618 836l-204 157l17 21l204 -157zM659 890l-16 -22l-204 158l16 21z" />
    <glyph glyph-name="Aacute" unicode="&#xc1;" horiz-adv-x="867" 
d="M221 279l288 477l120 -477h-408zM499 688l-230 -382h325zM234 68l-5 -27h-152l135 224h420l56 -224h-151l5 27h112l-43 170h-383l-103 -170h109zM45 68l437 725l24 -14l-445 -738h-127l5 27h106zM519 777l25 7l180 -716h113l-5 -27h-129zM221 0h-295l5 27h295zM824 0
h-295l5 27h295zM426 836l-14 24l258 156l15 -23zM404 872l-14 23l259 157l14 -23z" />
    <glyph glyph-name="Acircumflex" unicode="&#xc2;" horiz-adv-x="867" 
d="M221 279l288 477l120 -477h-408zM499 688l-230 -382h325zM234 68l-5 -27h-152l135 224h420l56 -224h-151l5 27h112l-43 170h-383l-103 -170h109zM45 68l437 725l24 -14l-445 -738h-127l5 27h106zM519 777l25 7l180 -716h113l-5 -27h-129zM221 0h-295l5 27h295zM824 0
h-295l5 27h295zM369 881l-14 23l194 124l153 -127l-18 -21l-137 115zM391 846l-14 23l168 108l131 -107l-18 -21l-115 95z" />
    <glyph glyph-name="Atilde" unicode="&#xc3;" horiz-adv-x="867" 
d="M221 279l288 477l120 -477h-408zM499 688l-230 -382h325zM234 68l-5 -27h-152l135 224h420l56 -224h-151l5 27h112l-43 170h-383l-103 -170h109zM45 68l437 725l24 -14l-445 -738h-127l5 27h106zM519 777l25 7l180 -716h113l-5 -27h-129zM221 0h-295l5 27h295zM824 0
h-295l5 27h295zM463 979q-44 0 -70 -35t-34 -83l-27 5q10 54 42 97t89 43q53 0 98 -58q27 -34 48 -34q48 0 63 84l26 -5q-19 -106 -89 -106q-20 0 -34.5 10.5t-33.5 32.5q-38 49 -78 49zM400 854l-27 5q19 106 90 106q33 0 67 -43q40 -49 79 -49q44 0 69.5 34.5t33.5 82.5
l27 -4q-10 -54 -41.5 -97t-88.5 -43q-56 0 -98 58q-27 34 -48 34q-48 0 -63 -84z" />
    <glyph glyph-name="Adieresis" unicode="&#xc4;" horiz-adv-x="867" 
d="M221 279l288 477l120 -477h-408zM499 688l-230 -382h325zM234 68l-5 -27h-152l135 224h420l56 -224h-151l5 27h112l-43 170h-383l-103 -170h109zM45 68l437 725l24 -14l-445 -738h-127l5 27h106zM519 777l25 7l180 -716h113l-5 -27h-129zM221 0h-295l5 27h295zM824 0
h-295l5 27h295zM370 914q0 25 17.5 42.5t42.5 17.5t43 -17.5t18 -42.5t-18 -43t-43 -18t-42.5 18t-17.5 43zM396 914q0 -14 10 -24.5t24 -10.5q15 0 25 10.5t10 24.5t-10 24.5t-25 10.5q-14 0 -24 -10.5t-10 -24.5zM410 914q0 9 5.5 15t14.5 6t15 -6t6 -15q0 -21 -21 -21
q-8 0 -14 6t-6 15zM577 914q0 25 17.5 42.5t42.5 17.5t43 -17.5t18 -42.5t-18 -43t-43 -18t-42.5 18t-17.5 43zM602 914q0 -14 10.5 -24.5t24.5 -10.5t24.5 10.5t10.5 24.5t-10.5 24.5t-24.5 10.5t-24.5 -10.5t-10.5 -24.5zM616 914q0 8 6 14.5t15 6.5t15 -6t6 -15t-6 -15
t-15 -6q-8 0 -14.5 6t-6.5 15z" />
    <glyph glyph-name="Aring" unicode="&#xc5;" horiz-adv-x="867" 
d="M221 279l288 477l120 -477h-408zM433 865q0 -32 20 -57t51 -32l-443 -735h-127l5 27h106l419 695q-58 33 -58 102q0 50 34.5 84.5t83.5 34.5q50 0 84 -34.5t34 -84.5q0 -42 -25.5 -73.5t-64.5 -41.5l172 -682h113l-5 -27h-129l-184 733h5q37 0 64 27t27 64q0 38 -27 65
t-64 27t-64 -27t-27 -65zM499 688l-230 -382h325zM234 68l-5 -27h-152l135 224h420l56 -224h-151l5 27h112l-43 170h-383l-103 -170h109zM447 865q0 33 22.5 55.5t54.5 22.5t54.5 -22.5t22.5 -55.5q0 -32 -22.5 -54.5t-54.5 -22.5t-54.5 22.5t-22.5 54.5zM221 0h-295l5 27
h295zM824 0h-295l5 27h295zM474 865q0 -20 15 -35t35 -15t35 15t15 35t-15 35.5t-35 15.5t-35 -15.5t-15 -35.5z" />
    <glyph glyph-name="AE" unicode="&#xc6;" horiz-adv-x="1195" 
d="M642 284h-350l403 455h27zM352 311h267l66 376zM1036 68l22 123h28l-27 -150h-446l62 350h343l-5 -27h-315l-52 -296h390zM1025 432l-4 -27h-343l59 334h434l-27 -151h-28l23 124h-380l-49 -280h315zM616 712h-68l5 27h123l-617 -698h-127l5 27h109zM459 41l5 27h113
l30 174h-316l-154 -174h94l-5 -27h-149l203 229h359l-40 -229h-140zM1186 588h-28l29 165h-631l4 27h660zM1093 0h-642l5 27h615l29 164h28zM218 0h-294l5 27h294z" />
    <glyph glyph-name="Ccedilla" unicode="&#xc7;" horiz-adv-x="818" 
d="M428 53q146 0 265 101l17 -20q-123 -108 -282 -108q-142 0 -237.5 97.5t-95.5 239.5q0 160 118.5 275.5t278.5 115.5q105 0 180.5 -52t78.5 -135l-21 -120h-28l21 122q-5 69 -72 113.5t-159 44.5q-148 0 -259 -108.5t-111 -255.5q0 -130 88 -220t218 -90zM745 690l16 90
h28l-31 -172q-21 72 -96.5 116t-169.5 44q-165 0 -288 -120.5t-123 -284.5q0 -130 79.5 -226.5t203.5 -119.5l-16 -85l-27 5l11 60q-123 31 -200.5 132.5t-77.5 233.5q0 116 60.5 216t161.5 158t216 58q76 0 144 -27.5t109 -77.5zM211 -277l10 24q66 -28 149 -28
q57 0 90.5 29.5t33.5 75.5q0 42 -34.5 72.5t-96.5 40.5l14 78q25 -3 51 -3q161 0 291 111l19 -20q-137 -118 -310 -118q-5 0 -14.5 0.5t-14.5 0.5l-4 -27q61 -16 94 -51.5t33 -83.5q0 -58 -41.5 -95t-110.5 -37q-40 0 -79.5 8t-59.5 16zM227 -240l10 25q58 -24 133 -24
q40 0 61.5 17t21.5 46q0 26 -26 46.5t-76 26.5l3 27q63 -9 94.5 -35.5t31.5 -64.5q0 -41 -29 -66t-81 -25q-36 0 -72 6.5t-54 13.5zM772 447h-28l59 333h28z" />
    <glyph glyph-name="Egrave" unicode="&#xc8;" 
d="M572 68l21 124h28l-27 -151h-444l62 350h342l-5 -27h-315l-52 -296h390zM561 432l-4 -27h-343l59 334h435l-28 -151h-28l23 124h-380l-49 -280h315zM-4 41l5 27h112l113 644h-113l5 27h140l-122 -698h-140zM628 0h-640l5 27h613l29 165h28zM722 588h-28l30 165h-604l5 27
h631zM574 835l-204 157l17 21l204 -157zM615 889l-16 -22l-204 158l16 21z" />
    <glyph glyph-name="Eacute" unicode="&#xc9;" 
d="M572 68l21 124h28l-27 -151h-444l62 350h342l-5 -27h-315l-52 -296h390zM561 432l-4 -27h-343l59 334h435l-28 -151h-28l23 124h-380l-49 -280h315zM-4 41l5 27h112l113 644h-113l5 27h140l-122 -698h-140zM628 0h-640l5 27h613l29 165h28zM722 588h-28l30 165h-604l5 27
h631zM382 836l-14 24l258 156l15 -23zM360 872l-14 23l259 157l14 -23z" />
    <glyph glyph-name="Ecircumflex" unicode="&#xca;" 
d="M572 68l21 124h28l-27 -151h-444l62 350h342l-5 -27h-315l-52 -296h390zM561 432l-4 -27h-343l59 334h435l-28 -151h-28l23 124h-380l-49 -280h315zM-4 41l5 27h112l113 644h-113l5 27h140l-122 -698h-140zM628 0h-640l5 27h613l29 165h28zM722 588h-28l30 165h-604l5 27
h631zM325 881l-14 23l194 124l153 -127l-18 -21l-137 115zM347 846l-14 23l168 108l131 -107l-18 -21l-115 95z" />
    <glyph glyph-name="Edieresis" unicode="&#xcb;" 
d="M572 68l21 124h28l-27 -151h-444l62 350h342l-5 -27h-315l-52 -296h390zM561 432l-4 -27h-343l59 334h435l-28 -151h-28l23 124h-380l-49 -280h315zM-4 41l5 27h112l113 644h-113l5 27h140l-122 -698h-140zM628 0h-640l5 27h613l29 165h28zM722 588h-28l30 165h-604l5 27
h631zM325 914q0 25 17.5 42.5t42.5 17.5t43 -17.5t18 -42.5t-18 -43t-43 -18t-42.5 18t-17.5 43zM351 914q0 -14 10 -24.5t24 -10.5q15 0 25 10.5t10 24.5t-10 24.5t-25 10.5q-14 0 -24 -10.5t-10 -24.5zM365 914q0 9 5.5 15t14.5 6t15 -6t6 -15q0 -21 -21 -21q-8 0 -14 6
t-6 15zM532 914q0 25 17.5 42.5t42.5 17.5t43 -17.5t18 -42.5t-18 -43t-43 -18t-42.5 18t-17.5 43zM557 914q0 -14 10.5 -24.5t24.5 -10.5t24.5 10.5t10.5 24.5t-10.5 24.5t-24.5 10.5t-24.5 -10.5t-10.5 -24.5zM571 914q0 8 6 14.5t15 6.5t15 -6t6 -15t-6 -15t-15 -6
q-8 0 -14.5 6t-6.5 15z" />
    <glyph glyph-name="Igrave" unicode="&#xcc;" horiz-adv-x="385" 
d="M295 68l-4 -27h-141l122 698h140l-5 -27h-112l-113 -644h113zM-4 41l5 27h112l112 644h-113l5 27h140l-121 -698h-140zM420 780l-5 -27h-295l4 27h296zM283 0h-295l5 27h295zM381 836l-204 157l17 21l204 -157zM422 890l-16 -22l-204 158l16 21z" />
    <glyph glyph-name="Iacute" unicode="&#xcd;" horiz-adv-x="385" 
d="M295 68l-4 -27h-141l122 698h140l-5 -27h-112l-113 -644h113zM-4 41l5 27h112l112 644h-113l5 27h140l-121 -698h-140zM420 780l-5 -27h-295l4 27h296zM283 0h-295l5 27h295zM189 836l-14 24l258 156l15 -23zM167 872l-14 23l259 157l14 -23z" />
    <glyph glyph-name="Icircumflex" unicode="&#xce;" horiz-adv-x="385" 
d="M295 68l-4 -27h-141l122 698h140l-5 -27h-112l-113 -644h113zM-4 41l5 27h112l112 644h-113l5 27h140l-121 -698h-140zM420 780l-5 -27h-295l4 27h296zM283 0h-295l5 27h295zM131 881l-14 23l194 124l153 -127l-18 -21l-137 115zM153 846l-14 23l168 108l131 -107
l-18 -21l-115 95z" />
    <glyph glyph-name="Idieresis" unicode="&#xcf;" horiz-adv-x="385" 
d="M295 68l-4 -27h-141l122 698h140l-5 -27h-112l-113 -644h113zM-4 41l5 27h112l112 644h-113l5 27h140l-121 -698h-140zM420 780l-5 -27h-295l4 27h296zM283 0h-295l5 27h295zM132 914q0 25 17.5 42.5t42.5 17.5t43 -17.5t18 -42.5t-18 -43t-43 -18t-42.5 18t-17.5 43z
M158 914q0 -14 10 -24.5t24 -10.5q15 0 25 10.5t10 24.5t-10 24.5t-25 10.5q-14 0 -24 -10.5t-10 -24.5zM172 914q0 9 5.5 15t14.5 6t15 -6t6 -15q0 -21 -21 -21q-8 0 -14 6t-6 15zM339 914q0 25 17.5 42.5t42.5 17.5t43 -17.5t18 -42.5t-18 -43t-43 -18t-42.5 18t-17.5 43z
M364 914q0 -14 10.5 -24.5t24.5 -10.5t24.5 10.5t10.5 24.5t-10.5 24.5t-24.5 10.5t-24.5 -10.5t-10.5 -24.5zM378 914q0 8 6 14.5t15 6.5t15 -6t6 -15t-6 -15t-15 -6q-8 0 -14.5 6t-6.5 15z" />
    <glyph glyph-name="Eth" unicode="&#xd0;" horiz-adv-x="856" 
d="M384 41h-233l62 351h172l-5 -27h-145l-52 -297h201q165 0 270 111.5t105 275.5q0 122 -75.5 189.5t-201.5 67.5h-186l-49 -279h146l-5 -27h-173l59 333h208q138 0 221 -74t83 -210q0 -176 -112 -295t-290 -119zM-11 0l5 27h390q183 0 299.5 124t116.5 304q0 140 -88 219
t-230 79h-361l5 27h356q153 0 249 -86t96 -239q0 -192 -124 -323.5t-319 -131.5h-395zM-3 41l5 27h112l52 297h-105l5 27h132l-61 -351h-140zM227 712h-113l5 27h140l-58 -333h-132l5 27h104z" />
    <glyph glyph-name="Ntilde" unicode="&#xd1;" horiz-adv-x="915" 
d="M769 712h-114l5 27h141l-125 -714l-406 728h-151l5 27h162l376 -676zM294 68l-4 -27h-141l120 684l405 -723l-24 -13l-368 657l-101 -578h113zM225 712h-114l5 27h141l-122 -698h-140l5 27h112zM713 -1l-26 5l129 735h140l-5 -27h-113zM963 780l-4 -27h-296l5 27h295z
M287 27l-5 -27h-295l5 27h295zM497 979q-44 0 -70 -35t-34 -83l-27 5q10 54 42 97t89 43q53 0 98 -58q27 -34 48 -34q48 0 63 84l26 -5q-19 -106 -89 -106q-20 0 -34.5 10.5t-33.5 32.5q-38 49 -78 49zM434 854l-27 5q19 106 90 106q33 0 67 -43q40 -49 79 -49
q44 0 69.5 34.5t33.5 82.5l27 -4q-10 -54 -41.5 -97t-88.5 -43q-56 0 -98 58q-27 34 -48 34q-48 0 -63 -84z" />
    <glyph glyph-name="Ograve" unicode="&#xd2;" horiz-adv-x="897" 
d="M54 363q0 177 130.5 304.5t307.5 127.5q159 0 266.5 -109.5t107.5 -268.5q0 -177 -130.5 -304.5t-307.5 -127.5q-159 0 -266.5 109.5t-107.5 268.5zM122 363q0 -130 88 -220t218 -90q148 0 259 108t111 256q0 130 -88 220t-218 90q-148 0 -259 -108t-111 -256zM81 363
q0 -146 100 -248.5t247 -102.5q107 0 202 54.5t152 148.5t57 202q0 146 -100 248.5t-247 102.5q-165 0 -288 -120t-123 -285zM95 363q0 160 118 275.5t279 115.5q142 0 237.5 -97.5t95.5 -239.5q0 -160 -118.5 -275.5t-278.5 -115.5q-142 0 -237.5 97.5t-95.5 239.5z
M638 836l-204 157l17 21l204 -157zM679 890l-16 -22l-204 158l16 21z" />
    <glyph glyph-name="Oacute" unicode="&#xd3;" horiz-adv-x="897" 
d="M54 363q0 177 130.5 304.5t307.5 127.5q159 0 266.5 -109.5t107.5 -268.5q0 -177 -130.5 -304.5t-307.5 -127.5q-159 0 -266.5 109.5t-107.5 268.5zM122 363q0 -130 88 -220t218 -90q148 0 259 108t111 256q0 130 -88 220t-218 90q-148 0 -259 -108t-111 -256zM81 363
q0 -146 100 -248.5t247 -102.5q107 0 202 54.5t152 148.5t57 202q0 146 -100 248.5t-247 102.5q-165 0 -288 -120t-123 -285zM95 363q0 160 118 275.5t279 115.5q142 0 237.5 -97.5t95.5 -239.5q0 -160 -118.5 -275.5t-278.5 -115.5q-142 0 -237.5 97.5t-95.5 239.5z
M446 836l-14 24l258 156l15 -23zM424 872l-14 23l259 157l14 -23z" />
    <glyph glyph-name="Ocircumflex" unicode="&#xd4;" horiz-adv-x="897" 
d="M54 363q0 177 130.5 304.5t307.5 127.5q159 0 266.5 -109.5t107.5 -268.5q0 -177 -130.5 -304.5t-307.5 -127.5q-159 0 -266.5 109.5t-107.5 268.5zM122 363q0 -130 88 -220t218 -90q148 0 259 108t111 256q0 130 -88 220t-218 90q-148 0 -259 -108t-111 -256zM81 363
q0 -146 100 -248.5t247 -102.5q107 0 202 54.5t152 148.5t57 202q0 146 -100 248.5t-247 102.5q-165 0 -288 -120t-123 -285zM95 363q0 160 118 275.5t279 115.5q142 0 237.5 -97.5t95.5 -239.5q0 -160 -118.5 -275.5t-278.5 -115.5q-142 0 -237.5 97.5t-95.5 239.5z
M389 881l-14 23l194 124l153 -127l-18 -21l-137 115zM411 846l-14 23l168 108l131 -107l-18 -21l-115 95z" />
    <glyph glyph-name="Otilde" unicode="&#xd5;" horiz-adv-x="897" 
d="M54 363q0 177 130.5 304.5t307.5 127.5q159 0 266.5 -109.5t107.5 -268.5q0 -177 -130.5 -304.5t-307.5 -127.5q-159 0 -266.5 109.5t-107.5 268.5zM122 363q0 -130 88 -220t218 -90q148 0 259 108t111 256q0 130 -88 220t-218 90q-148 0 -259 -108t-111 -256zM81 363
q0 -146 100 -248.5t247 -102.5q107 0 202 54.5t152 148.5t57 202q0 146 -100 248.5t-247 102.5q-165 0 -288 -120t-123 -285zM95 363q0 160 118 275.5t279 115.5q142 0 237.5 -97.5t95.5 -239.5q0 -160 -118.5 -275.5t-278.5 -115.5q-142 0 -237.5 97.5t-95.5 239.5z
M482 981q-44 0 -70 -35t-34 -83l-27 5q10 54 42 97t89 43q53 0 98 -58q27 -34 48 -34q48 0 63 84l26 -5q-19 -106 -89 -106q-20 0 -34.5 10.5t-33.5 32.5q-38 49 -78 49zM419 856l-27 5q19 106 90 106q33 0 67 -43q40 -49 79 -49q44 0 69.5 34.5t33.5 82.5l27 -4
q-10 -54 -41.5 -97t-88.5 -43q-56 0 -98 58q-27 34 -48 34q-48 0 -63 -84z" />
    <glyph glyph-name="Odieresis" unicode="&#xd6;" horiz-adv-x="897" 
d="M54 363q0 177 130.5 304.5t307.5 127.5q159 0 266.5 -109.5t107.5 -268.5q0 -177 -130.5 -304.5t-307.5 -127.5q-159 0 -266.5 109.5t-107.5 268.5zM122 363q0 -130 88 -220t218 -90q148 0 259 108t111 256q0 130 -88 220t-218 90q-148 0 -259 -108t-111 -256zM81 363
q0 -146 100 -248.5t247 -102.5q107 0 202 54.5t152 148.5t57 202q0 146 -100 248.5t-247 102.5q-165 0 -288 -120t-123 -285zM95 363q0 160 118 275.5t279 115.5q142 0 237.5 -97.5t95.5 -239.5q0 -160 -118.5 -275.5t-278.5 -115.5q-142 0 -237.5 97.5t-95.5 239.5z
M389 914q0 25 17.5 42.5t42.5 17.5t43 -17.5t18 -42.5t-18 -43t-43 -18t-42.5 18t-17.5 43zM415 914q0 -14 10 -24.5t24 -10.5q15 0 25 10.5t10 24.5t-10 24.5t-25 10.5q-14 0 -24 -10.5t-10 -24.5zM429 914q0 9 5.5 15t14.5 6t15 -6t6 -15q0 -21 -21 -21q-8 0 -14 6t-6 15z
M596 914q0 25 17.5 42.5t42.5 17.5t43 -17.5t18 -42.5t-18 -43t-43 -18t-42.5 18t-17.5 43zM621 914q0 -14 10.5 -24.5t24.5 -10.5t24.5 10.5t10.5 24.5t-10.5 24.5t-24.5 10.5t-24.5 -10.5t-10.5 -24.5zM635 914q0 8 6 14.5t15 6.5t15 -6t6 -15t-6 -15t-15 -6q-8 0 -14.5 6
t-6.5 15z" />
    <glyph glyph-name="multiply" unicode="&#xd7;" horiz-adv-x="554" 
d="M441 185l-149 179l213 181l19 -21l-192 -163l131 -158zM87 154l-18 22l213 180l149 -180l-21 -17l-131 157zM135 554l22 18l131 -158l191 162l17 -21l-213 -180zM104 528l21 17l148 -179l-213 -180l-17 20l192 163z" />
    <glyph glyph-name="Oslash" unicode="&#xd8;" horiz-adv-x="897" 
d="M95 363q0 160 118 275.5t279 115.5q116 0 203 -68l-481 -584q-56 46 -87.5 114t-31.5 147zM428 26q-115 0 -204 67l482 584q56 -46 87.5 -113.5t31.5 -146.5q0 -160 -118.5 -275.5t-278.5 -115.5zM798 417q0 130 -89 221l-445 -539q72 -46 164 -46q148 0 259 108t111 256
zM122 363q0 -132 89 -221l444 539q-75 46 -163 46q-148 0 -259 -108t-111 -256zM183 0h-36l69 83q92 -71 212 -71q107 0 202 54.5t152 148.5t57 202q0 80 -33 150.5t-91 120.5l76 92h35l-73 -89q113 -110 113 -274q0 -177 -130.5 -304.5t-307.5 -127.5q-115 0 -208 60z
M130 0h-36l73 89q-113 108 -113 274q0 177 130.5 304.5t307.5 127.5q115 0 207 -61l38 46h36l-69 -84q-93 72 -212 72q-165 0 -288 -120t-123 -285q0 -167 124 -272z" />
    <glyph glyph-name="Ugrave" unicode="&#xd9;" horiz-adv-x="889" 
d="M91 712l5 27h140l-79 -449q-20 -116 53 -197t191 -81q121 0 210 85t108 191l79 451h140l-5 -27h-112l-76 -429q-20 -113 -116.5 -205.5t-227.5 -92.5q-130 0 -211.5 91t-59.5 219l74 417h-113zM751 712h-113l5 27h140l-78 -449q-19 -103 -103 -183.5t-201 -80.5
q-111 0 -180 77t-50 185l80 451h140l-5 -27h-112l-77 -429q-16 -95 44.5 -162.5t159.5 -67.5q106 0 183.5 74t93.5 168zM946 780l-5 -27h-295l5 27h295zM99 753l5 27h295l-5 -27h-295zM633 836l-204 157l17 21l204 -157zM674 890l-16 -22l-204 158l16 21z" />
    <glyph glyph-name="Uacute" unicode="&#xda;" horiz-adv-x="889" 
d="M91 712l5 27h140l-79 -449q-20 -116 53 -197t191 -81q121 0 210 85t108 191l79 451h140l-5 -27h-112l-76 -429q-20 -113 -116.5 -205.5t-227.5 -92.5q-130 0 -211.5 91t-59.5 219l74 417h-113zM751 712h-113l5 27h140l-78 -449q-19 -103 -103 -183.5t-201 -80.5
q-111 0 -180 77t-50 185l80 451h140l-5 -27h-112l-77 -429q-16 -95 44.5 -162.5t159.5 -67.5q106 0 183.5 74t93.5 168zM946 780l-5 -27h-295l5 27h295zM99 753l5 27h295l-5 -27h-295zM441 836l-14 24l258 156l15 -23zM419 872l-14 23l259 157l14 -23z" />
    <glyph glyph-name="Ucircumflex" unicode="&#xdb;" horiz-adv-x="889" 
d="M91 712l5 27h140l-79 -449q-20 -116 53 -197t191 -81q121 0 210 85t108 191l79 451h140l-5 -27h-112l-76 -429q-20 -113 -116.5 -205.5t-227.5 -92.5q-130 0 -211.5 91t-59.5 219l74 417h-113zM751 712h-113l5 27h140l-78 -449q-19 -103 -103 -183.5t-201 -80.5
q-111 0 -180 77t-50 185l80 451h140l-5 -27h-112l-77 -429q-16 -95 44.5 -162.5t159.5 -67.5q106 0 183.5 74t93.5 168zM946 780l-5 -27h-295l5 27h295zM99 753l5 27h295l-5 -27h-295zM383 881l-14 23l194 124l153 -127l-18 -21l-137 115zM405 846l-14 23l168 108l131 -107
l-18 -21l-115 95z" />
    <glyph glyph-name="Udieresis" unicode="&#xdc;" horiz-adv-x="889" 
d="M91 712l5 27h140l-79 -449q-20 -116 53 -197t191 -81q121 0 210 85t108 191l79 451h140l-5 -27h-112l-76 -429q-20 -113 -116.5 -205.5t-227.5 -92.5q-130 0 -211.5 91t-59.5 219l74 417h-113zM751 712h-113l5 27h140l-78 -449q-19 -103 -103 -183.5t-201 -80.5
q-111 0 -180 77t-50 185l80 451h140l-5 -27h-112l-77 -429q-16 -95 44.5 -162.5t159.5 -67.5q106 0 183.5 74t93.5 168zM946 780l-5 -27h-295l5 27h295zM99 753l5 27h295l-5 -27h-295zM384 914q0 25 17.5 42.5t42.5 17.5t43 -17.5t18 -42.5t-18 -43t-43 -18t-42.5 18
t-17.5 43zM410 914q0 -14 10 -24.5t24 -10.5q15 0 25 10.5t10 24.5t-10 24.5t-25 10.5q-14 0 -24 -10.5t-10 -24.5zM424 914q0 9 5.5 15t14.5 6t15 -6t6 -15q0 -21 -21 -21q-8 0 -14 6t-6 15zM591 914q0 25 17.5 42.5t42.5 17.5t43 -17.5t18 -42.5t-18 -43t-43 -18t-42.5 18
t-17.5 43zM616 914q0 -14 10.5 -24.5t24.5 -10.5t24.5 10.5t10.5 24.5t-10.5 24.5t-24.5 10.5t-24.5 -10.5t-10.5 -24.5zM630 914q0 8 6 14.5t15 6.5t15 -6t6 -15t-6 -15t-15 -6q-8 0 -14.5 6t-6.5 15z" />
    <glyph glyph-name="Yacute" unicode="&#xdd;" horiz-adv-x="793" 
d="M676 712h-97l5 27h150l-341 -421l-194 421h151l-5 -27h-103l157 -343zM497 68l-5 -27h-141l47 262l352 436h129l-5 -27h-109l-342 -423l-39 -221h113zM166 712h-115l5 27h129l199 -435l-47 -263h-140l5 27h112l41 232zM887 780l-5 -27h-295l4 27h296zM489 27l-5 -27h-295
l5 27h295zM357 780l-4 -27h-294l5 27h293zM391 836l-14 24l258 156l15 -23zM369 872l-14 23l259 157l14 -23z" />
    <glyph glyph-name="Thorn" unicode="&#xde;" horiz-adv-x="792" 
d="M470 189h-294l71 402h298q80 0 135 -50t55 -126q0 -91 -77 -158.5t-188 -67.5zM545 564h-276l-61 -348h262q99 0 168.5 60.5t69.5 138.5q0 63 -47.5 106t-115.5 43zM295 68l-4 -27h-141l24 134h296q116 0 197.5 72.5t81.5 167.5q0 81 -60 135.5t-144 54.5h-296l24 134
h140l-5 -27h-113l-14 -80h264q96 0 163.5 -61.5t67.5 -155.5q0 -108 -89 -188t-217 -80h-274l-14 -79h113zM-4 41l5 27h112l113 644h-113l5 27h140l-122 -698h-140zM420 780l-4 -27h-296l5 27h295zM283 0h-295l5 27h295z" />
    <glyph glyph-name="germandbls" unicode="&#xdf;" horiz-adv-x="696" 
d="M158 0h-181l5 27h154l92 520q19 105 77.5 172t155.5 67q64 0 99.5 -34.5t35.5 -77.5q0 -27 -14.5 -50.5t-29.5 -36t-46 -34.5q-34 -22 -51 -35.5t-34.5 -41t-17.5 -58.5q0 -22 6.5 -39.5t24.5 -34t25.5 -22.5t33.5 -23q46 -30 71 -60.5t25 -79.5q0 -63 -46 -103t-111 -40
q-48 0 -91.5 22.5t-69.5 51.5l20 19q22 -25 61 -45.5t80 -20.5q54 0 92 33t38 83q0 40 -20.5 64.5t-62.5 52.5q-24 15 -35.5 23.5t-30.5 27t-28 41t-9 50.5q0 37 20.5 70.5t40.5 49t54 38.5q42 28 60 48t18 50q0 32 -28.5 58.5t-79.5 26.5q-85 0 -137.5 -60t-68.5 -156z
M66 504l5 27h112l4 23q21 115 91 194t183 79q84 0 130 -47.5t46 -105.5q0 -37 -19.5 -69.5t-37.5 -47.5t-51 -38q-31 -21 -45 -32t-27 -29.5t-13 -39.5q0 -18 9 -32t20.5 -23t34.5 -24q5 -3 8 -5q50 -33 82.5 -73.5t32.5 -101.5q0 -81 -59 -132.5t-140 -51.5
q-57 0 -110 27.5t-81 59.5l20 19q26 -30 73 -54.5t98 -24.5q70 0 120.5 44.5t50.5 112.5q0 52 -27.5 86.5t-74.5 65.5q-52 35 -66 53q-18 24 -18 54q0 28 16 52t32 36.5t49 34.5q24 17 36 26.5t28.5 26.5t24 36.5t7.5 43.5q0 46 -39.5 86t-109.5 40q-102 0 -165 -71.5
t-82 -179.5l-8 -45h-140zM58 463l5 27h140l-79 -449h-139l5 27h112l69 395h-113z" />
    <glyph glyph-name="agrave" unicode="&#xe0;" horiz-adv-x="617" 
d="M251 315q85 0 200 -36l-31 -171q-99 -77 -212 -77q-80 0 -119 40t-39 95q0 61 48.5 105t152.5 44zM208 58q97 0 187 65l24 138q-95 27 -168 27q-90 0 -132 -36.5t-42 -85.5q0 -45 32 -76.5t99 -31.5zM560 27l-5 -27h-182l6 34q-86 -44 -171 -44q-96 0 -147.5 54
t-51.5 122q0 76 59.5 133t182.5 57q77 0 180 -28l6 30q12 66 -27 92t-105 26q-50 0 -101 -11t-77 -23l-11 25q29 13 83 25t106 12q82 0 128 -35t31 -119l-11 -57q-114 36 -202 36q-109 0 -162 -49t-53 -114q0 -59 43.5 -104t128.5 -45q109 0 209 70l-11 -60h154zM567 68
l-5 -27h-140l56 307q16 91 -36 130.5t-137 39.5q-54 0 -110 -12.5t-85 -26.5l-12 25q31 15 91 28t116 13q44 0 82 -10.5t69 -32.5t44.5 -63t3.5 -96l-49 -275h112zM443 612l-204 157l17 21l204 -157zM484 666l-16 -22l-204 158l16 21z" />
    <glyph glyph-name="aacute" unicode="&#xe1;" horiz-adv-x="617" 
d="M251 315q85 0 200 -36l-31 -171q-99 -77 -212 -77q-80 0 -119 40t-39 95q0 61 48.5 105t152.5 44zM208 58q97 0 187 65l24 138q-95 27 -168 27q-90 0 -132 -36.5t-42 -85.5q0 -45 32 -76.5t99 -31.5zM560 27l-5 -27h-182l6 34q-86 -44 -171 -44q-96 0 -147.5 54
t-51.5 122q0 76 59.5 133t182.5 57q77 0 180 -28l6 30q12 66 -27 92t-105 26q-50 0 -101 -11t-77 -23l-11 25q29 13 83 25t106 12q82 0 128 -35t31 -119l-11 -57q-114 36 -202 36q-109 0 -162 -49t-53 -114q0 -59 43.5 -104t128.5 -45q109 0 209 70l-11 -60h154zM567 68
l-5 -27h-140l56 307q16 91 -36 130.5t-137 39.5q-54 0 -110 -12.5t-85 -26.5l-12 25q31 15 91 28t116 13q44 0 82 -10.5t69 -32.5t44.5 -63t3.5 -96l-49 -275h112zM250 612l-14 24l258 156l15 -23zM228 648l-14 23l259 157l14 -23z" />
    <glyph glyph-name="acircumflex" unicode="&#xe2;" horiz-adv-x="617" 
d="M251 315q85 0 200 -36l-31 -171q-99 -77 -212 -77q-80 0 -119 40t-39 95q0 61 48.5 105t152.5 44zM208 58q97 0 187 65l24 138q-95 27 -168 27q-90 0 -132 -36.5t-42 -85.5q0 -45 32 -76.5t99 -31.5zM560 27l-5 -27h-182l6 34q-86 -44 -171 -44q-96 0 -147.5 54
t-51.5 122q0 76 59.5 133t182.5 57q77 0 180 -28l6 30q12 66 -27 92t-105 26q-50 0 -101 -11t-77 -23l-11 25q29 13 83 25t106 12q82 0 128 -35t31 -119l-11 -57q-114 36 -202 36q-109 0 -162 -49t-53 -114q0 -59 43.5 -104t128.5 -45q109 0 209 70l-11 -60h154zM567 68
l-5 -27h-140l56 307q16 91 -36 130.5t-137 39.5q-54 0 -110 -12.5t-85 -26.5l-12 25q31 15 91 28t116 13q44 0 82 -10.5t69 -32.5t44.5 -63t3.5 -96l-49 -275h112zM193 656l-14 23l194 124l153 -127l-18 -21l-137 115zM215 621l-14 23l168 108l131 -107l-18 -21l-115 95z
" />
    <glyph glyph-name="atilde" unicode="&#xe3;" horiz-adv-x="617" 
d="M251 315q85 0 200 -36l-31 -171q-99 -77 -212 -77q-80 0 -119 40t-39 95q0 61 48.5 105t152.5 44zM208 58q97 0 187 65l24 138q-95 27 -168 27q-90 0 -132 -36.5t-42 -85.5q0 -45 32 -76.5t99 -31.5zM560 27l-5 -27h-182l6 34q-86 -44 -171 -44q-96 0 -147.5 54
t-51.5 122q0 76 59.5 133t182.5 57q77 0 180 -28l6 30q12 66 -27 92t-105 26q-50 0 -101 -11t-77 -23l-11 25q29 13 83 25t106 12q82 0 128 -35t31 -119l-11 -57q-114 36 -202 36q-109 0 -162 -49t-53 -114q0 -59 43.5 -104t128.5 -45q109 0 209 70l-11 -60h154zM567 68
l-5 -27h-140l56 307q16 91 -36 130.5t-137 39.5q-54 0 -110 -12.5t-85 -26.5l-12 25q31 15 91 28t116 13q44 0 82 -10.5t69 -32.5t44.5 -63t3.5 -96l-49 -275h112zM287 755q-44 0 -70 -35t-34 -83l-27 5q10 54 42 97t89 43q53 0 98 -58q27 -34 48 -34q48 0 63 84l26 -5
q-19 -106 -89 -106q-20 0 -34.5 10.5t-33.5 32.5q-38 49 -78 49zM224 630l-27 5q19 106 90 106q33 0 67 -43q40 -49 79 -49q44 0 69.5 34.5t33.5 82.5l27 -4q-10 -54 -41.5 -97t-88.5 -43q-56 0 -98 58q-27 34 -48 34q-48 0 -63 -84z" />
    <glyph glyph-name="adieresis" unicode="&#xe4;" horiz-adv-x="617" 
d="M251 315q85 0 200 -36l-31 -171q-99 -77 -212 -77q-80 0 -119 40t-39 95q0 61 48.5 105t152.5 44zM208 58q97 0 187 65l24 138q-95 27 -168 27q-90 0 -132 -36.5t-42 -85.5q0 -45 32 -76.5t99 -31.5zM560 27l-5 -27h-182l6 34q-86 -44 -171 -44q-96 0 -147.5 54
t-51.5 122q0 76 59.5 133t182.5 57q77 0 180 -28l6 30q12 66 -27 92t-105 26q-50 0 -101 -11t-77 -23l-11 25q29 13 83 25t106 12q82 0 128 -35t31 -119l-11 -57q-114 36 -202 36q-109 0 -162 -49t-53 -114q0 -59 43.5 -104t128.5 -45q109 0 209 70l-11 -60h154zM567 68
l-5 -27h-140l56 307q16 91 -36 130.5t-137 39.5q-54 0 -110 -12.5t-85 -26.5l-12 25q31 15 91 28t116 13q44 0 82 -10.5t69 -32.5t44.5 -63t3.5 -96l-49 -275h112zM194 690q0 25 17.5 42.5t42.5 17.5t43 -17.5t18 -42.5t-18 -43t-43 -18t-42.5 18t-17.5 43zM220 690
q0 -14 10 -24.5t24 -10.5q15 0 25 10.5t10 24.5t-10 24.5t-25 10.5q-14 0 -24 -10.5t-10 -24.5zM234 690q0 9 5.5 15t14.5 6t15 -6t6 -15q0 -21 -21 -21q-8 0 -14 6t-6 15zM401 690q0 25 17.5 42.5t42.5 17.5t43 -17.5t18 -42.5t-18 -43t-43 -18t-42.5 18t-17.5 43zM426 690
q0 -14 10.5 -24.5t24.5 -10.5t24.5 10.5t10.5 24.5t-10.5 24.5t-24.5 10.5t-24.5 -10.5t-10.5 -24.5zM440 690q0 8 6 14.5t15 6.5t15 -6t6 -15t-6 -15t-15 -6q-8 0 -14.5 6t-6.5 15z" />
    <glyph glyph-name="aring" unicode="&#xe5;" horiz-adv-x="617" 
d="M251 315q85 0 200 -36l-31 -171q-99 -77 -212 -77q-80 0 -119 40t-39 95q0 61 48.5 105t152.5 44zM208 58q97 0 187 65l24 138q-95 27 -168 27q-90 0 -132 -36.5t-42 -85.5q0 -45 32 -76.5t99 -31.5zM560 27l-5 -27h-182l6 34q-86 -44 -171 -44q-96 0 -147.5 54
t-51.5 122q0 76 59.5 133t182.5 57q77 0 180 -28l6 30q12 66 -27 92t-105 26q-50 0 -101 -11t-77 -23l-11 25q29 13 83 25t106 12q82 0 128 -35t31 -119l-11 -57q-114 36 -202 36q-109 0 -162 -49t-53 -114q0 -59 43.5 -104t128.5 -45q109 0 209 70l-11 -60h154zM567 68
l-5 -27h-140l56 307q16 91 -36 130.5t-137 39.5q-54 0 -110 -12.5t-85 -26.5l-12 25q31 15 91 28t116 13q44 0 82 -10.5t69 -32.5t44.5 -63t3.5 -96l-49 -275h112zM245 720q0 50 34.5 84.5t83.5 34.5q50 0 84 -34.5t34 -84.5t-34.5 -84t-83.5 -34t-83.5 34t-34.5 84z
M313 720q0 -20 15 -35t35 -15t35 15t15 35t-15 35.5t-35 15.5t-35 -15.5t-15 -35.5zM272 720q0 -37 27 -64t64 -27t64 27t27 64q0 38 -27 65t-64 27t-64 -27t-27 -65zM286 720q0 33 22.5 55.5t54.5 22.5t54.5 -22.5t22.5 -55.5q0 -32 -22.5 -54.5t-54.5 -22.5t-54.5 22.5
t-22.5 54.5z" />
    <glyph glyph-name="ae" unicode="&#xe6;" horiz-adv-x="965" 
d="M251 315q85 0 200 -36q-2 -20 -2 -31q0 -53 20 -99q-124 -118 -261 -118q-80 0 -119 40t-39 95q0 61 48.5 105t152.5 44zM616 243q-75 0 -153 17q5 102 82 172t182 70q68 0 106.5 -30.5t38.5 -81.5q0 -69 -72.5 -108t-183.5 -39zM208 58q119 0 229 98q-15 44 -15 92v12
q-95 28 -171 28q-90 0 -132 -36.5t-42 -85.5q0 -45 32 -76.5t99 -31.5zM879 86l17 -21q-94 -75 -208 -75q-142 0 -218 104q-123 -104 -262 -104q-96 0 -147.5 54t-51.5 122q0 76 59.5 133t182.5 57q76 0 181 -28l5 30q12 66 -27 92t-105 26q-50 0 -101 -11t-77 -23l-11 25
q29 13 83 25t106 12q38 0 68 -7t54.5 -23.5t34.5 -48t2 -75.5l-7 -40q-2 -5 -4 -17q-114 36 -202 36q-109 0 -162 -49t-53 -114q0 -59 43.5 -104t128.5 -45q141 0 268 119q29 -55 84.5 -87t127.5 -32q103 0 191 69zM305 518q-54 0 -110 -12.5t-85 -26.5l-12 25q31 15 91 28
t116 13q68 0 121 -24.5t73 -77.5q90 100 228 100q84 0 135 -42.5t51 -110.5q0 -61 -42 -104.5t-108 -63.5t-147 -20q-57 0 -122 10q12 -68 64 -111t130 -43q88 0 166 60l17 -21q-86 -66 -183 -66q-101 0 -162.5 61.5t-62.5 153.5q80 -17 153 -17q115 0 192.5 42.5
t77.5 118.5q0 57 -42.5 91.5t-116.5 34.5q-78 0 -144 -40t-102 -105q3 41 -11 70.5t-40.5 45.5t-57.5 23.5t-67 7.5zM727 475q-87 0 -153.5 -55.5t-80.5 -137.5q61 -11 123 -11q100 0 164.5 33t64.5 86q0 37 -31 61t-87 24z" />
    <glyph glyph-name="ccedilla" unicode="&#xe7;" horiz-adv-x="596" 
d="M293 58q97 0 186 65l15 -21q-96 -71 -201 -71q-98 0 -160 62.5t-62 154.5q0 105 77 179.5t181 74.5q66 0 117 -33.5t53 -85.5l-17 -96h-28l17 99q-4 37 -46 63t-96 26q-92 0 -161 -67.5t-69 -159.5q0 -81 54 -135.5t140 -54.5zM489 488l8 44h28l-20 -113q-18 43 -68.5 70
t-107.5 27q-109 0 -190.5 -79.5t-81.5 -188.5q0 -82 48.5 -144t128.5 -81l-16 -86l-27 5l11 62q-79 26 -125.5 92.5t-46.5 151.5q0 122 89 208.5t210 86.5q97 0 160 -55zM81 -272l10 24q66 -28 149 -28q57 0 90.5 29.5t33.5 75.5q0 42 -34.5 72.5t-96.5 40.5l15 78
q21 -3 45 -3q109 0 210 73l16 -21q-107 -79 -226 -79q-4 0 -12 0.5t-12 0.5l-4 -27q61 -16 94 -51.5t33 -83.5q0 -58 -41.5 -95t-110.5 -37q-40 0 -79.5 7.5t-59.5 15.5zM97 -235l10 25q58 -24 133 -24q40 0 61.5 17t21.5 46q0 26 -26 46.5t-76 26.5l3 27q63 -9 94.5 -35.5
t31.5 -64.5q0 -41 -29 -66t-81 -25q-36 0 -72 7t-54 13zM524 287h-28l17 96l26 149h29z" />
    <glyph glyph-name="egrave" unicode="&#xe8;" horiz-adv-x="573" 
d="M451 612l-204 157l17 21l204 -157zM492 666l-16 -22l-204 158l16 21zM224 243q-75 0 -153 17q5 102 82 172t182 70q68 0 106.5 -30.5t38.5 -81.5q0 -69 -72.5 -108t-183.5 -39zM487 86l17 -21q-94 -75 -208 -75q-118 0 -192 74.5t-74 183.5q0 123 90 209t215 86
q84 0 135 -42.5t51 -110.5q0 -61 -42 -104.5t-108 -63.5t-147 -20q-57 0 -122 10q12 -68 64 -111t130 -43q88 0 166 60l17 -21q-86 -66 -183 -66q-101 0 -162.5 61.5t-62.5 153.5q80 -17 153 -17q115 0 192.5 42.5t77.5 118.5q0 57 -42.5 91.5t-116.5 34.5
q-113 0 -195.5 -79t-82.5 -189q0 -97 66.5 -164t172.5 -67q103 0 191 69zM335 475q-87 0 -153.5 -55.5t-80.5 -137.5q61 -11 123 -11q100 0 164.5 33t64.5 86q0 37 -31 61t-87 24z" />
    <glyph glyph-name="eacute" unicode="&#xe9;" horiz-adv-x="573" 
d="M258 612l-14 24l258 156l15 -23zM236 648l-14 23l259 157l14 -23zM224 243q-75 0 -153 17q5 102 82 172t182 70q68 0 106.5 -30.5t38.5 -81.5q0 -69 -72.5 -108t-183.5 -39zM487 86l17 -21q-94 -75 -208 -75q-118 0 -192 74.5t-74 183.5q0 123 90 209t215 86
q84 0 135 -42.5t51 -110.5q0 -61 -42 -104.5t-108 -63.5t-147 -20q-57 0 -122 10q12 -68 64 -111t130 -43q88 0 166 60l17 -21q-86 -66 -183 -66q-101 0 -162.5 61.5t-62.5 153.5q80 -17 153 -17q115 0 192.5 42.5t77.5 118.5q0 57 -42.5 91.5t-116.5 34.5
q-113 0 -195.5 -79t-82.5 -189q0 -97 66.5 -164t172.5 -67q103 0 191 69zM335 475q-87 0 -153.5 -55.5t-80.5 -137.5q61 -11 123 -11q100 0 164.5 33t64.5 86q0 37 -31 61t-87 24z" />
    <glyph glyph-name="ecircumflex" unicode="&#xea;" horiz-adv-x="573" 
d="M224 243q-75 0 -153 17q5 102 82 172t182 70q68 0 106.5 -30.5t38.5 -81.5q0 -69 -72.5 -108t-183.5 -39zM487 86l17 -21q-94 -75 -208 -75q-118 0 -192 74.5t-74 183.5q0 123 90 209t215 86q84 0 135 -42.5t51 -110.5q0 -61 -42 -104.5t-108 -63.5t-147 -20
q-57 0 -122 10q12 -68 64 -111t130 -43q88 0 166 60l17 -21q-86 -66 -183 -66q-101 0 -162.5 61.5t-62.5 153.5q80 -17 153 -17q115 0 192.5 42.5t77.5 118.5q0 57 -42.5 91.5t-116.5 34.5q-113 0 -195.5 -79t-82.5 -189q0 -97 66.5 -164t172.5 -67q103 0 191 69zM335 475
q-87 0 -153.5 -55.5t-80.5 -137.5q61 -11 123 -11q100 0 164.5 33t64.5 86q0 37 -31 61t-87 24zM201 656l-14 23l194 124l153 -127l-18 -21l-137 115zM223 621l-14 23l168 108l131 -107l-18 -21l-115 95z" />
    <glyph glyph-name="edieresis" unicode="&#xeb;" horiz-adv-x="573" 
d="M224 243q-75 0 -153 17q5 102 82 172t182 70q68 0 106.5 -30.5t38.5 -81.5q0 -69 -72.5 -108t-183.5 -39zM487 86l17 -21q-94 -75 -208 -75q-118 0 -192 74.5t-74 183.5q0 123 90 209t215 86q84 0 135 -42.5t51 -110.5q0 -61 -42 -104.5t-108 -63.5t-147 -20
q-57 0 -122 10q12 -68 64 -111t130 -43q88 0 166 60l17 -21q-86 -66 -183 -66q-101 0 -162.5 61.5t-62.5 153.5q80 -17 153 -17q115 0 192.5 42.5t77.5 118.5q0 57 -42.5 91.5t-116.5 34.5q-113 0 -195.5 -79t-82.5 -189q0 -97 66.5 -164t172.5 -67q103 0 191 69zM335 475
q-87 0 -153.5 -55.5t-80.5 -137.5q61 -11 123 -11q100 0 164.5 33t64.5 86q0 37 -31 61t-87 24zM202 690q0 25 17.5 42.5t42.5 17.5t43 -17.5t18 -42.5t-18 -43t-43 -18t-42.5 18t-17.5 43zM228 690q0 -14 10 -24.5t24 -10.5q15 0 25 10.5t10 24.5t-10 24.5t-25 10.5
q-14 0 -24 -10.5t-10 -24.5zM242 690q0 9 5.5 15t14.5 6t15 -6t6 -15q0 -21 -21 -21q-8 0 -14 6t-6 15zM409 690q0 25 17.5 42.5t42.5 17.5t43 -17.5t18 -42.5t-18 -43t-43 -18t-42.5 18t-17.5 43zM434 690q0 -14 10.5 -24.5t24.5 -10.5t24.5 10.5t10.5 24.5t-10.5 24.5
t-24.5 10.5t-24.5 -10.5t-10.5 -24.5zM448 690q0 8 6 14.5t15 6.5t15 -6t6 -15t-6 -15t-15 -6q-8 0 -14.5 6t-6.5 15z" />
    <glyph glyph-name="igrave" unicode="&#xec;" horiz-adv-x="343" 
d="M282 68l-5 -27h-140l82 464h-154l5 27h182l-82 -464h112zM-16 41l5 27h111l71 396h-113l5 27h140l-80 -450h-139zM-24 0l5 27h293l-5 -27h-293zM304 612l-204 157l17 21l204 -157zM345 666l-16 -22l-204 158l16 21z" />
    <glyph glyph-name="iacute" unicode="&#xed;" horiz-adv-x="343" 
d="M282 68l-5 -27h-140l82 464h-154l5 27h182l-82 -464h112zM-16 41l5 27h111l71 396h-113l5 27h140l-80 -450h-139zM-24 0l5 27h293l-5 -27h-293zM112 612l-14 24l258 156l15 -23zM90 648l-14 23l259 157l14 -23z" />
    <glyph glyph-name="icircumflex" unicode="&#xee;" horiz-adv-x="343" 
d="M282 68l-5 -27h-140l82 464h-154l5 27h182l-82 -464h112zM-16 41l5 27h111l71 396h-113l5 27h140l-80 -450h-139zM-24 0l5 27h293l-5 -27h-293zM55 656l-14 23l194 124l153 -127l-18 -21l-137 115zM77 621l-14 23l168 108l131 -107l-18 -21l-115 95z" />
    <glyph glyph-name="idieresis" unicode="&#xef;" horiz-adv-x="343" 
d="M282 68l-5 -27h-140l82 464h-154l5 27h182l-82 -464h112zM-16 41l5 27h111l71 396h-113l5 27h140l-80 -450h-139zM-24 0l5 27h293l-5 -27h-293zM54 690q0 25 17.5 42.5t42.5 17.5t43 -17.5t18 -42.5t-18 -43t-43 -18t-42.5 18t-17.5 43zM80 690q0 -14 10 -24.5t24 -10.5
q15 0 25 10.5t10 24.5t-10 24.5t-25 10.5q-14 0 -24 -10.5t-10 -24.5zM94 690q0 9 5.5 15t14.5 6t15 -6t6 -15q0 -21 -21 -21q-8 0 -14 6t-6 15zM261 690q0 25 17.5 42.5t42.5 17.5t43 -17.5t18 -42.5t-18 -43t-43 -18t-42.5 18t-17.5 43zM286 690q0 -14 10.5 -24.5
t24.5 -10.5t24.5 10.5t10.5 24.5t-10.5 24.5t-24.5 10.5t-24.5 -10.5t-10.5 -24.5zM300 690q0 8 6 14.5t15 6.5t15 -6t6 -15t-6 -15t-15 -6q-8 0 -14.5 6t-6.5 15z" />
    <glyph glyph-name="eth" unicode="&#xf0;" horiz-adv-x="633" 
d="M322 490q86 0 149.5 -60t54.5 -173q-11 -63 -38 -109t-63 -70.5t-72 -35.5t-73 -11q-90 0 -149.5 61.5t-59.5 151.5q0 101 74.5 173.5t176.5 72.5zM280 58q73 0 135 46t83 149q5 53 -8.5 95t-40.5 66t-59.5 36.5t-67.5 12.5q-90 0 -157 -65.5t-67 -153.5q0 -78 52.5 -132
t129.5 -54zM254 594l-17 20l119 110q47 -29 87 -80q91 -118 91 -296v-8q-19 80 -80 122t-132 42q-106 0 -185.5 -77.5t-79.5 -182.5q0 -95 64.5 -161t158.5 -66q45 0 88.5 16t85.5 51.5t68 103.5t26 160q0 180 -93 304q-40 51 -88 82l88 80l18 -20l-63 -58q36 -27 66 -67
q99 -130 99 -321q0 -80 -19.5 -143.5t-50.5 -103t-71 -65.5t-78 -36t-76 -10q-107 0 -178.5 73.5t-71.5 180.5q0 118 87 202.5t205 84.5q103 0 173 -69q-20 97 -72 165q-29 37 -64 63zM354 742q-113 64 -260 40l-5 27q144 24 261 -34l77 70l18 -21zM344 732l-117 -108
l-19 20l88 81q-84 35 -196 16l-4 27q143 25 248 -36z" />
    <glyph glyph-name="ntilde" unicode="&#xf1;" horiz-adv-x="713" 
d="M555 306l-49 -279h154l-5 -27h-181l54 311q15 83 -17 123.5t-86 40.5q-105 0 -202 -110l-52 -297h112l-5 -27h-140l60 337q109 124 227 124q67 0 107 -48t23 -148zM667 68l-5 -27h-140l47 263q19 106 -26.5 159t-117.5 53q-57 0 -115 -30t-107 -82l18 101h-154l5 27h181
l-10 -57q91 68 182 68q38 0 71.5 -14t61 -42t38.5 -76.5t0 -110.5l-41 -232h112zM172 464h-113l5 27h141l-81 -450h-138l4 27h112zM-17 27h293l-5 -27h-293zM368 755q-44 0 -70 -35t-34 -83l-27 5q10 54 42 97t89 43q53 0 98 -58q27 -34 48 -34q48 0 63 84l26 -5
q-19 -106 -89 -106q-20 0 -34.5 10.5t-33.5 32.5q-38 49 -78 49zM305 630l-27 5q19 106 90 106q33 0 67 -43q40 -49 79 -49q44 0 69.5 34.5t33.5 82.5l27 -4q-10 -54 -41.5 -97t-88.5 -43q-56 0 -98 58q-27 34 -48 34q-48 0 -63 -84z" />
    <glyph glyph-name="ograve" unicode="&#xf2;" horiz-adv-x="636" 
d="M30 249q0 121 89 207.5t210 86.5q109 0 183 -75t74 -184q0 -121 -89 -207.5t-210 -86.5q-110 0 -183.5 75t-73.5 184zM99 249q0 -80 54 -135.5t134 -55.5q92 0 161 67t69 159q0 80 -54 135.5t-134 55.5q-92 0 -161 -67t-69 -159zM57 249q0 -97 66.5 -164.5t163.5 -67.5
q109 0 190 79t81 188q0 96 -66.5 164t-162.5 68q-109 0 -190.5 -79t-81.5 -188zM71 249q0 104 77 178.5t181 74.5q92 0 153.5 -63t61.5 -155q0 -104 -76.5 -178.5t-180.5 -74.5q-92 0 -154 63t-62 155zM468 612l-204 157l17 21l204 -157zM509 666l-16 -22l-204 158l16 21z
" />
    <glyph glyph-name="oacute" unicode="&#xf3;" horiz-adv-x="636" 
d="M30 249q0 121 89 207.5t210 86.5q109 0 183 -75t74 -184q0 -121 -89 -207.5t-210 -86.5q-110 0 -183.5 75t-73.5 184zM99 249q0 -80 54 -135.5t134 -55.5q92 0 161 67t69 159q0 80 -54 135.5t-134 55.5q-92 0 -161 -67t-69 -159zM57 249q0 -97 66.5 -164.5t163.5 -67.5
q109 0 190 79t81 188q0 96 -66.5 164t-162.5 68q-109 0 -190.5 -79t-81.5 -188zM71 249q0 104 77 178.5t181 74.5q92 0 153.5 -63t61.5 -155q0 -104 -76.5 -178.5t-180.5 -74.5q-92 0 -154 63t-62 155zM275 612l-14 24l258 156l15 -23zM253 648l-14 23l259 157l14 -23z" />
    <glyph glyph-name="ocircumflex" unicode="&#xf4;" horiz-adv-x="636" 
d="M30 249q0 121 89 207.5t210 86.5q109 0 183 -75t74 -184q0 -121 -89 -207.5t-210 -86.5q-110 0 -183.5 75t-73.5 184zM99 249q0 -80 54 -135.5t134 -55.5q92 0 161 67t69 159q0 80 -54 135.5t-134 55.5q-92 0 -161 -67t-69 -159zM57 249q0 -97 66.5 -164.5t163.5 -67.5
q109 0 190 79t81 188q0 96 -66.5 164t-162.5 68q-109 0 -190.5 -79t-81.5 -188zM71 249q0 104 77 178.5t181 74.5q92 0 153.5 -63t61.5 -155q0 -104 -76.5 -178.5t-180.5 -74.5q-92 0 -154 63t-62 155zM218 656l-14 23l194 124l153 -127l-18 -21l-137 115zM240 621l-14 23
l168 108l131 -107l-18 -21l-115 95z" />
    <glyph glyph-name="otilde" unicode="&#xf5;" horiz-adv-x="636" 
d="M30 249q0 121 89 207.5t210 86.5q109 0 183 -75t74 -184q0 -121 -89 -207.5t-210 -86.5q-110 0 -183.5 75t-73.5 184zM99 249q0 -80 54 -135.5t134 -55.5q92 0 161 67t69 159q0 80 -54 135.5t-134 55.5q-92 0 -161 -67t-69 -159zM57 249q0 -97 66.5 -164.5t163.5 -67.5
q109 0 190 79t81 188q0 96 -66.5 164t-162.5 68q-109 0 -190.5 -79t-81.5 -188zM71 249q0 104 77 178.5t181 74.5q92 0 153.5 -63t61.5 -155q0 -104 -76.5 -178.5t-180.5 -74.5q-92 0 -154 63t-62 155zM312 755q-44 0 -70 -35t-34 -83l-27 5q10 54 42 97t89 43q53 0 98 -58
q27 -34 48 -34q48 0 63 84l26 -5q-19 -106 -89 -106q-20 0 -34.5 10.5t-33.5 32.5q-38 49 -78 49zM249 630l-27 5q19 106 90 106q33 0 67 -43q40 -49 79 -49q44 0 69.5 34.5t33.5 82.5l27 -4q-10 -54 -41.5 -97t-88.5 -43q-56 0 -98 58q-27 34 -48 34q-48 0 -63 -84z" />
    <glyph glyph-name="odieresis" unicode="&#xf6;" horiz-adv-x="636" 
d="M30 249q0 121 89 207.5t210 86.5q109 0 183 -75t74 -184q0 -121 -89 -207.5t-210 -86.5q-110 0 -183.5 75t-73.5 184zM99 249q0 -80 54 -135.5t134 -55.5q92 0 161 67t69 159q0 80 -54 135.5t-134 55.5q-92 0 -161 -67t-69 -159zM57 249q0 -97 66.5 -164.5t163.5 -67.5
q109 0 190 79t81 188q0 96 -66.5 164t-162.5 68q-109 0 -190.5 -79t-81.5 -188zM71 249q0 104 77 178.5t181 74.5q92 0 153.5 -63t61.5 -155q0 -104 -76.5 -178.5t-180.5 -74.5q-92 0 -154 63t-62 155zM219 690q0 25 17.5 42.5t42.5 17.5t43 -17.5t18 -42.5t-18 -43t-43 -18
t-42.5 18t-17.5 43zM245 690q0 -14 10 -24.5t24 -10.5q15 0 25 10.5t10 24.5t-10 24.5t-25 10.5q-14 0 -24 -10.5t-10 -24.5zM259 690q0 9 5.5 15t14.5 6t15 -6t6 -15q0 -21 -21 -21q-8 0 -14 6t-6 15zM426 690q0 25 17.5 42.5t42.5 17.5t43 -17.5t18 -42.5t-18 -43t-43 -18
t-42.5 18t-17.5 43zM451 690q0 -14 10.5 -24.5t24.5 -10.5t24.5 10.5t10.5 24.5t-10.5 24.5t-24.5 10.5t-24.5 -10.5t-10.5 -24.5zM465 690q0 8 6 14.5t15 6.5t15 -6t6 -15t-6 -15t-15 -6q-8 0 -14.5 6t-6.5 15z" />
    <glyph glyph-name="divide" unicode="&#xf7;" horiz-adv-x="581" 
d="M269 550q0 25 18 43t43 18t42.5 -18t17.5 -43t-17.5 -42.5t-42.5 -17.5t-43 17.5t-18 42.5zM295 550q0 -14 10 -24.5t25 -10.5q14 0 24 10.5t10 24.5t-10 24.5t-24 10.5q-15 0 -25 -10.5t-10 -24.5zM309 550q0 21 21 21q8 0 14 -6t6 -15t-5.5 -15t-14.5 -6t-15 6t-6 15z
M204 181q0 25 18 43t43 18t42.5 -18t17.5 -43t-17.5 -42.5t-42.5 -17.5t-43 17.5t-18 42.5zM230 181q0 -14 10 -24.5t25 -10.5q14 0 24 10.5t10 24.5t-10 24.5t-24 10.5q-15 0 -25 -10.5t-10 -24.5zM244 181q0 21 21 21q8 0 14 -6t6 -15t-5.5 -15t-14.5 -6t-15 6t-6 15z
M515 359l-5 -27h-438l5 27h438zM523 400l-5 -27h-438l5 27h438z" />
    <glyph glyph-name="oslash" unicode="&#xf8;" horiz-adv-x="637" 
d="M72 249q0 104 77 178.5t181 74.5q77 0 134 -46l-321 -371q-71 63 -71 164zM288 31q-78 0 -134 45l320 371q71 -63 71 -163q0 -104 -76.5 -178.5t-180.5 -74.5zM518 284q0 71 -44 123l-280 -325q40 -24 94 -24q92 0 161 67t69 159zM100 249q0 -72 42 -123l281 325
q-43 24 -93 24q-92 0 -161 -67t-69 -159zM123 0h-35l57 66q62 -49 143 -49q109 0 190 79t81 188q0 105 -76 173l64 75h35l-62 -72q67 -73 67 -176q0 -121 -89 -207.5t-210 -86.5q-78 0 -140 39zM70 0h-36l63 73q-66 72 -66 176q0 121 89 207.5t210 86.5q76 0 138 -40l25 29
h36l-57 -66q-63 50 -142 50q-109 0 -190.5 -79t-81.5 -188q0 -107 77 -174z" />
    <glyph glyph-name="ugrave" unicode="&#xf9;" horiz-adv-x="690" 
d="M31 505l4 27h181l-54 -311q-15 -83 16.5 -123.5t86.5 -40.5q50 0 103 29t98 80l53 298h-113l5 27h141l-61 -338q-108 -123 -226 -123q-67 0 -107 48.5t-23 147.5l49 279h-153zM23 464l5 27h140l-47 -263q-19 -106 26.5 -159t117.5 -53q56 0 114.5 30t107.5 81l-18 -100
h154l-5 -27h-181l10 56q-92 -67 -182 -67q-37 0 -71 14t-61 42t-38.5 76.5t-0.5 111.5l41 231h-112zM630 68l-5 -27h-140l83 464h-154l4 27h182l-82 -464h112zM487 612l-204 157l17 21l204 -157zM528 666l-16 -22l-204 158l16 21z" />
    <glyph glyph-name="uacute" unicode="&#xfa;" horiz-adv-x="690" 
d="M31 505l4 27h181l-54 -311q-15 -83 16.5 -123.5t86.5 -40.5q50 0 103 29t98 80l53 298h-113l5 27h141l-61 -338q-108 -123 -226 -123q-67 0 -107 48.5t-23 147.5l49 279h-153zM23 464l5 27h140l-47 -263q-19 -106 26.5 -159t117.5 -53q56 0 114.5 30t107.5 81l-18 -100
h154l-5 -27h-181l10 56q-92 -67 -182 -67q-37 0 -71 14t-61 42t-38.5 76.5t-0.5 111.5l41 231h-112zM630 68l-5 -27h-140l83 464h-154l4 27h182l-82 -464h112zM294 612l-14 24l258 156l15 -23zM272 648l-14 23l259 157l14 -23z" />
    <glyph glyph-name="ucircumflex" unicode="&#xfb;" horiz-adv-x="690" 
d="M31 505l4 27h181l-54 -311q-15 -83 16.5 -123.5t86.5 -40.5q50 0 103 29t98 80l53 298h-113l5 27h141l-61 -338q-108 -123 -226 -123q-67 0 -107 48.5t-23 147.5l49 279h-153zM23 464l5 27h140l-47 -263q-19 -106 26.5 -159t117.5 -53q56 0 114.5 30t107.5 81l-18 -100
h154l-5 -27h-181l10 56q-92 -67 -182 -67q-37 0 -71 14t-61 42t-38.5 76.5t-0.5 111.5l41 231h-112zM630 68l-5 -27h-140l83 464h-154l4 27h182l-82 -464h112zM237 656l-14 23l194 124l153 -127l-18 -21l-137 115zM259 621l-14 23l168 108l131 -107l-18 -21l-115 95z" />
    <glyph glyph-name="udieresis" unicode="&#xfc;" horiz-adv-x="690" 
d="M31 505l4 27h181l-54 -311q-15 -83 16.5 -123.5t86.5 -40.5q50 0 103 29t98 80l53 298h-113l5 27h141l-61 -338q-108 -123 -226 -123q-67 0 -107 48.5t-23 147.5l49 279h-153zM23 464l5 27h140l-47 -263q-19 -106 26.5 -159t117.5 -53q56 0 114.5 30t107.5 81l-18 -100
h154l-5 -27h-181l10 56q-92 -67 -182 -67q-37 0 -71 14t-61 42t-38.5 76.5t-0.5 111.5l41 231h-112zM630 68l-5 -27h-140l83 464h-154l4 27h182l-82 -464h112zM237 690q0 25 17.5 42.5t42.5 17.5t43 -17.5t18 -42.5t-18 -43t-43 -18t-42.5 18t-17.5 43zM263 690
q0 -14 10 -24.5t24 -10.5q15 0 25 10.5t10 24.5t-10 24.5t-25 10.5q-14 0 -24 -10.5t-10 -24.5zM277 690q0 9 5.5 15t14.5 6t15 -6t6 -15q0 -21 -21 -21q-8 0 -14 6t-6 15zM444 690q0 25 17.5 42.5t42.5 17.5t43 -17.5t18 -42.5t-18 -43t-43 -18t-42.5 18t-17.5 43zM469 690
q0 -14 10.5 -24.5t24.5 -10.5t24.5 10.5t10.5 24.5t-10.5 24.5t-24.5 10.5t-24.5 -10.5t-10.5 -24.5zM483 690q0 8 6 14.5t15 6.5t15 -6t6 -15t-6 -15t-15 -6q-8 0 -14.5 6t-6.5 15z" />
    <glyph glyph-name="yacute" unicode="&#xfd;" horiz-adv-x="679" 
d="M717 491l-5 -27h-97l-332 -545q-133 -217 -279 -217q-51 0 -101 26.5t-75 85.5l26 10q21 -51 62.5 -73t87.5 -22q132 0 256 204l341 558h116zM535 464h-107l5 27h151l-299 -490l-126 490h146l-5 -27h-107l102 -395zM123 464h-107l5 27h123l130 -507l-26 -43
q-63 -104 -121.5 -151t-122.5 -47q-101 0 -138 87l25 10q31 -70 113 -70q55 0 108.5 43.5t112.5 141.5l20 34zM312 532l-4 -27h-284l4 27h284zM725 532l-5 -27h-284l5 27h284zM300 612l-14 24l258 156l15 -23zM278 648l-14 23l259 157l14 -23z" />
    <glyph glyph-name="thorn" unicode="&#xfe;" horiz-adv-x="695" 
d="M130 249q0 104 77 178.5t181 74.5q92 0 153.5 -63t61.5 -155q0 -104 -76.5 -178.5t-180.5 -74.5q-92 0 -154 63t-62 155zM158 249q0 -80 54 -135.5t134 -55.5q92 0 161 67t69 159q0 80 -54 135.5t-134 55.5q-92 0 -161 -67t-69 -159zM186 -205l-5 -27h-140l78 443
q13 -83 76.5 -138.5t150.5 -55.5q109 0 190 79t81 188q0 96 -66.5 164t-162.5 68q-75 0 -140.5 -40.5t-100.5 -105.5l67 383h-154l4 27h182l-55 -311q87 74 197 74q109 0 183 -75t74 -184q0 -121 -89 -207.5t-210 -86.5q-69 0 -126 32t-92 86l-54 -313h112zM-112 -232l5 27
h111l161 917h-113l5 27h141l-171 -971h-139zM-120 -274l5 27h293l-5 -27h-293z" />
    <glyph glyph-name="ydieresis" unicode="&#xff;" horiz-adv-x="679" 
d="M717 491l-5 -27h-97l-332 -545q-133 -217 -279 -217q-51 0 -101 26.5t-75 85.5l26 10q21 -51 62.5 -73t87.5 -22q132 0 256 204l341 558h116zM535 464h-107l5 27h151l-299 -490l-126 490h146l-5 -27h-107l102 -395zM123 464h-107l5 27h123l130 -507l-26 -43
q-63 -104 -121.5 -151t-122.5 -47q-101 0 -138 87l25 10q31 -70 113 -70q55 0 108.5 43.5t112.5 141.5l20 34zM312 532l-4 -27h-284l4 27h284zM725 532l-5 -27h-284l5 27h284zM244 690q0 25 17.5 42.5t42.5 17.5t43 -17.5t18 -42.5t-18 -43t-43 -18t-42.5 18t-17.5 43z
M270 690q0 -14 10 -24.5t24 -10.5q15 0 25 10.5t10 24.5t-10 24.5t-25 10.5q-14 0 -24 -10.5t-10 -24.5zM284 690q0 9 5.5 15t14.5 6t15 -6t6 -15q0 -21 -21 -21q-8 0 -14 6t-6 15zM451 690q0 25 17.5 42.5t42.5 17.5t43 -17.5t18 -42.5t-18 -43t-43 -18t-42.5 18t-17.5 43z
M476 690q0 -14 10.5 -24.5t24.5 -10.5t24.5 10.5t10.5 24.5t-10.5 24.5t-24.5 10.5t-24.5 -10.5t-10.5 -24.5zM490 690q0 8 6 14.5t15 6.5t15 -6t6 -15t-6 -15t-15 -6q-8 0 -14.5 6t-6.5 15z" />
    <glyph glyph-name="Amacron" unicode="&#x100;" horiz-adv-x="867" 
d="M221 279l288 477l120 -477h-408zM499 688l-230 -382h325zM234 68l-5 -27h-152l135 224h420l56 -224h-151l5 27h112l-43 170h-383l-103 -170h109zM45 68l437 725l24 -14l-445 -738h-127l5 27h106zM519 777l25 7l180 -716h113l-5 -27h-129zM221 0h-295l5 27h295zM824 0
h-295l5 27h295zM684 885l-5 -27h-314l5 27h314zM692 926l-5 -27h-314l5 27h314z" />
    <glyph glyph-name="amacron" unicode="&#x101;" horiz-adv-x="617" 
d="M251 315q85 0 200 -36l-31 -171q-99 -77 -212 -77q-80 0 -119 40t-39 95q0 61 48.5 105t152.5 44zM208 58q97 0 187 65l24 138q-95 27 -168 27q-90 0 -132 -36.5t-42 -85.5q0 -45 32 -76.5t99 -31.5zM560 27l-5 -27h-182l6 34q-86 -44 -171 -44q-96 0 -147.5 54
t-51.5 122q0 76 59.5 133t182.5 57q77 0 180 -28l6 30q12 66 -27 92t-105 26q-50 0 -101 -11t-77 -23l-11 25q29 13 83 25t106 12q82 0 128 -35t31 -119l-11 -57q-114 36 -202 36q-109 0 -162 -49t-53 -114q0 -59 43.5 -104t128.5 -45q109 0 209 70l-11 -60h154zM567 68
l-5 -27h-140l56 307q16 91 -36 130.5t-137 39.5q-54 0 -110 -12.5t-85 -26.5l-12 25q31 15 91 28t116 13q44 0 82 -10.5t69 -32.5t44.5 -63t3.5 -96l-49 -275h112zM509 661l-5 -27h-314l5 27h314zM517 702l-5 -27h-314l5 27h314z" />
    <glyph glyph-name="Abreve" unicode="&#x102;" horiz-adv-x="867" 
d="M221 279l288 477l120 -477h-408zM499 688l-230 -382h325zM234 68l-5 -27h-152l135 224h420l56 -224h-151l5 27h112l-43 170h-383l-103 -170h109zM45 68l437 725l24 -14l-445 -738h-127l5 27h106zM519 777l25 7l180 -716h113l-5 -27h-129zM221 0h-295l5 27h295zM824 0
h-295l5 27h295zM363 970l26 8q15 -50 50 -80t85 -30q100 0 169 99l23 -15q-34 -49 -85 -80t-107 -31q-59 0 -101.5 36.5t-59.5 92.5zM403 982l26 8q23 -81 95 -81q78 0 135 81l22 -15q-64 -93 -157 -93q-92 0 -121 100z" />
    <glyph glyph-name="abreve" unicode="&#x103;" horiz-adv-x="617" 
d="M251 315q85 0 200 -36l-31 -171q-99 -77 -212 -77q-80 0 -119 40t-39 95q0 61 48.5 105t152.5 44zM208 58q97 0 187 65l24 138q-95 27 -168 27q-90 0 -132 -36.5t-42 -85.5q0 -45 32 -76.5t99 -31.5zM560 27l-5 -27h-182l6 34q-86 -44 -171 -44q-96 0 -147.5 54
t-51.5 122q0 76 59.5 133t182.5 57q77 0 180 -28l6 30q12 66 -27 92t-105 26q-50 0 -101 -11t-77 -23l-11 25q29 13 83 25t106 12q82 0 128 -35t31 -119l-11 -57q-114 36 -202 36q-109 0 -162 -49t-53 -114q0 -59 43.5 -104t128.5 -45q109 0 209 70l-11 -60h154zM567 68
l-5 -27h-140l56 307q16 91 -36 130.5t-137 39.5q-54 0 -110 -12.5t-85 -26.5l-12 25q31 15 91 28t116 13q44 0 82 -10.5t69 -32.5t44.5 -63t3.5 -96l-49 -275h112zM187 746l26 8q15 -50 50 -80t85 -30q100 0 169 99l23 -15q-34 -49 -85 -80t-107 -31q-59 0 -101.5 36.5
t-59.5 92.5zM227 758l26 8q23 -81 95 -81q78 0 135 81l22 -15q-64 -93 -157 -93q-92 0 -121 100z" />
    <glyph glyph-name="Aogonek" unicode="&#x104;" horiz-adv-x="867" 
d="M221 279l288 477l120 -477h-408zM499 688l-230 -382h325zM234 68l-5 -27h-152l135 224h420l56 -224h-151l5 27h112l-43 170h-383l-103 -170h109zM45 68l437 725l24 -14l-445 -738h-127l5 27h106zM519 777l25 7l180 -716h113l-5 -27h-129zM644 0h-115l5 27h205
q-101 -33 -101 -116q0 -54 44 -83.5t110 -18.5l5 -27q-77 -13 -131.5 24.5t-54.5 104.5q0 53 33 89zM679 -89q0 -32 30 -50.5t76 -10.5l5 -27q-58 -10 -98 16.5t-40 71.5q0 56 49.5 84.5t115.5 31.5h12l-5 -27h-10q-53 -2 -94 -24.5t-41 -64.5zM221 0h-295l5 27h295z" />
    <glyph glyph-name="aogonek" unicode="&#x105;" horiz-adv-x="617" 
d="M251 315q85 0 200 -36l-31 -171q-99 -77 -212 -77q-80 0 -119 40t-39 95q0 61 48.5 105t152.5 44zM208 58q97 0 187 65l24 138q-95 27 -168 27q-90 0 -132 -36.5t-42 -85.5q0 -45 32 -76.5t99 -31.5zM127 442l-11 25q29 13 83 25t106 12q82 0 128 -35t31 -119l-11 -57
q-114 36 -202 36q-109 0 -162 -49t-53 -114q0 -59 43.5 -104t128.5 -45q109 0 209 70l-11 -60h64q-101 -33 -101 -116q0 -54 44 -83.5t110 -18.5l5 -27q-77 -13 -131.5 24.5t-54.5 104.5q0 53 33 89h-2l6 34q-86 -44 -171 -44q-96 0 -147.5 54t-51.5 122q0 76 59.5 133
t182.5 57q77 0 180 -28l6 30q12 66 -27 92t-105 26q-50 0 -101 -11t-77 -23zM567 68l-4 -27h-141l56 307q16 91 -36 130.5t-137 39.5q-54 0 -110 -12.5t-85 -26.5l-12 25q31 15 91 28t116 13q44 0 82 -10.5t69 -32.5t44.5 -63t3.5 -96l-49 -275h112zM560 27l-5 -27
q-55 0 -100 -23t-45 -66q0 -32 30 -50.5t76 -10.5l5 -27q-58 -10 -98 16.5t-40 71.5q0 40 29 67.5t67.5 38t80.5 10.5z" />
    <glyph glyph-name="Cacute" unicode="&#x106;" horiz-adv-x="818" 
d="M745 690l16 90h28l-31 -172q-21 72 -96.5 116t-169.5 44q-165 0 -288 -120.5t-123 -284.5q0 -146 100 -248.5t247 -102.5q161 0 291 111l19 -20q-137 -118 -310 -118q-159 0 -266.5 109.5t-107.5 268.5q0 116 60.5 216t161.5 158t216 58q76 0 144 -27.5t109 -77.5z
M730 447h-28l21 122q-5 69 -72 113.5t-159 44.5q-148 0 -259 -108.5t-111 -255.5q0 -130 88 -220t218 -90q146 0 265 101l17 -20q-123 -108 -282 -108q-142 0 -237.5 97.5t-95.5 239.5q0 160 118.5 275.5t278.5 115.5q105 0 180.5 -52t78.5 -135zM772 447h-28l59 333h28z
M443 836l-14 24l258 156l15 -23zM421 872l-14 23l259 157l14 -23z" />
    <glyph glyph-name="cacute" unicode="&#x107;" horiz-adv-x="596" 
d="M489 488l8 44h28l-20 -113q-18 43 -68.5 70t-107.5 27q-109 0 -190.5 -79.5t-81.5 -188.5q0 -97 66.5 -164t169.5 -67q109 0 210 73l16 -21q-107 -79 -226 -79q-115 0 -189 74.5t-74 183.5q0 122 89 208.5t210 86.5q97 0 160 -55zM482 287h-28l17 99q-4 37 -46 63t-96 26
q-92 0 -161 -67.5t-69 -159.5q0 -81 54 -135.5t140 -54.5q97 0 186 65l15 -21q-96 -71 -201 -71q-98 0 -160 62.5t-62 154.5q0 105 77 179.5t181 74.5q66 0 117 -33.5t53 -85.5zM524 287h-28l17 96l26 149h29zM275 612l-14 24l258 156l15 -23zM253 648l-14 23l259 157
l14 -23z" />
    <glyph glyph-name="Cdotaccent" unicode="&#x10a;" horiz-adv-x="818" 
d="M745 690l16 90h28l-31 -172q-21 72 -96.5 116t-169.5 44q-165 0 -288 -120.5t-123 -284.5q0 -146 100 -248.5t247 -102.5q161 0 291 111l19 -20q-137 -118 -310 -118q-159 0 -266.5 109.5t-107.5 268.5q0 116 60.5 216t161.5 158t216 58q76 0 144 -27.5t109 -77.5z
M730 447h-28l21 122q-5 69 -72 113.5t-159 44.5q-148 0 -259 -108.5t-111 -255.5q0 -130 88 -220t218 -90q146 0 265 101l17 -20q-123 -108 -282 -108q-142 0 -237.5 97.5t-95.5 239.5q0 160 118.5 275.5t278.5 115.5q105 0 180.5 -52t78.5 -135zM772 447h-28l59 333h28z
M485 917q0 25 17.5 42.5t42.5 17.5t43 -17.5t18 -42.5t-18 -43t-43 -18t-42.5 18t-17.5 43zM510 917q0 -14 10.5 -24.5t24.5 -10.5t24.5 10.5t10.5 24.5t-10.5 24.5t-24.5 10.5t-24.5 -10.5t-10.5 -24.5zM525 917q0 9 5.5 15t14.5 6t15 -6t6 -15t-6 -15t-15 -6q-8 0 -14 6
t-6 15z" />
    <glyph glyph-name="cdotaccent" unicode="&#x10b;" horiz-adv-x="596" 
d="M489 488l8 44h28l-20 -113q-18 43 -68.5 70t-107.5 27q-109 0 -190.5 -79.5t-81.5 -188.5q0 -97 66.5 -164t169.5 -67q109 0 210 73l16 -21q-107 -79 -226 -79q-115 0 -189 74.5t-74 183.5q0 122 89 208.5t210 86.5q97 0 160 -55zM482 287h-28l17 99q-4 37 -46 63t-96 26
q-92 0 -161 -67.5t-69 -159.5q0 -81 54 -135.5t140 -54.5q97 0 186 65l15 -21q-96 -71 -201 -71q-98 0 -160 62.5t-62 154.5q0 105 77 179.5t181 74.5q66 0 117 -33.5t53 -85.5zM524 287h-28l17 96l26 149h29zM321 690q0 25 17.5 42.5t42.5 17.5t43 -17.5t18 -42.5t-18 -43
t-43 -18t-42.5 18t-17.5 43zM346 690q0 -14 10.5 -24.5t24.5 -10.5t24.5 10.5t10.5 24.5t-10.5 24.5t-24.5 10.5t-24.5 -10.5t-10.5 -24.5zM361 690q0 9 5.5 15t14.5 6t15 -6t6 -15t-6 -15t-15 -6q-8 0 -14 6t-6 15z" />
    <glyph glyph-name="Ccaron" unicode="&#x10c;" horiz-adv-x="818" 
d="M745 690l16 90h28l-31 -172q-21 72 -96.5 116t-169.5 44q-165 0 -288 -120.5t-123 -284.5q0 -146 100 -248.5t247 -102.5q161 0 291 111l19 -20q-137 -118 -310 -118q-159 0 -266.5 109.5t-107.5 268.5q0 116 60.5 216t161.5 158t216 58q76 0 144 -27.5t109 -77.5z
M730 447h-28l21 122q-5 69 -72 113.5t-159 44.5q-148 0 -259 -108.5t-111 -255.5q0 -130 88 -220t218 -90q146 0 265 101l17 -20q-123 -108 -282 -108q-142 0 -237.5 97.5t-95.5 239.5q0 160 118.5 275.5t278.5 115.5q105 0 180.5 -52t78.5 -135zM772 447h-28l59 333h28z
M540 836l-153 126l18 22l136 -115l179 114l14 -23zM698 1017l14 -22l-169 -108l-130 107l18 21l114 -95z" />
    <glyph glyph-name="ccaron" unicode="&#x10d;" horiz-adv-x="596" 
d="M489 488l8 44h28l-20 -113q-18 43 -68.5 70t-107.5 27q-109 0 -190.5 -79.5t-81.5 -188.5q0 -97 66.5 -164t169.5 -67q109 0 210 73l16 -21q-107 -79 -226 -79q-115 0 -189 74.5t-74 183.5q0 122 89 208.5t210 86.5q97 0 160 -55zM482 287h-28l17 99q-4 37 -46 63t-96 26
q-92 0 -161 -67.5t-69 -159.5q0 -81 54 -135.5t140 -54.5q97 0 186 65l15 -21q-96 -71 -201 -71q-98 0 -160 62.5t-62 154.5q0 105 77 179.5t181 74.5q66 0 117 -33.5t53 -85.5zM524 287h-28l17 96l26 149h29zM371 612l-153 126l18 22l136 -115l179 114l14 -23zM529 793
l14 -22l-169 -108l-130 107l18 21l114 -95z" />
    <glyph glyph-name="Dcaron" unicode="&#x10e;" horiz-adv-x="856" 
d="M383 41h-233l123 698h208q138 0 221 -74t83 -210q0 -176 -112 -295t-290 -119zM481 712h-186l-113 -644h201q165 0 270 111.5t105 275.5q0 122 -75.5 189.5t-201.5 67.5zM-12 0l5 27h390q183 0 299.5 124t116.5 304q0 140 -88 219t-230 79h-361l5 27h356q153 0 249 -86
t96 -239q0 -192 -124 -323.5t-319 -131.5h-395zM-4 41l5 27h112l113 644h-113l5 27h140l-122 -698h-140zM499 836l-153 126l18 22l136 -115l179 114l14 -23zM657 1017l14 -22l-169 -108l-130 107l18 21l114 -95z" />
    <glyph glyph-name="dcaron" unicode="&#x10f;" horiz-adv-x="745" 
d="M712 544l-15 20q5 4 14.5 10.5t32.5 27.5t41 42t32.5 50t14.5 54q0 20 -11 31t-26 11t-25 -10.5t-10 -24.5t8.5 -23t19.5 -10l2 14q-16 2 -16 19q0 8 6 14.5t15 6.5q10 0 16.5 -7.5t6.5 -20.5q0 -37 -32.5 -80t-65.5 -68l-32 -25l-14 20q68 48 102 104q-16 4 -28.5 19.5
t-12.5 36.5q0 25 17.5 42.5t42.5 17.5t43 -18.5t18 -49.5q0 -29 -15 -60t-36 -55.5t-42 -45t-36 -31.5zM71 249q0 104 77 178.5t181 74.5q92 0 153.5 -63t61.5 -155q0 -104 -76.5 -178.5t-180.5 -74.5q-92 0 -154 63t-62 155zM99 249q0 -80 54 -135.5t134 -55.5q92 0 161 67
t69 159q0 80 -54 135.5t-134 55.5q-92 0 -161 -67t-69 -159zM57 249q0 -97 66.5 -164.5t163.5 -67.5q76 0 142 41.5t100 108.5l-24 -140h153l-5 -27h-181l11 64q-85 -74 -196 -74q-110 0 -183.5 75t-73.5 184q0 121 89 207.5t210 86.5q69 0 126 -32.5t92 -87.5l55 313h-114
l5 27h141l-79 -446q-11 85 -75 142t-151 57q-109 0 -190.5 -79t-81.5 -188zM665 68l-4 -27h-140l129 736h-154l5 27h181l-129 -736h112z" />
    <glyph glyph-name="Dcroat" unicode="&#x110;" horiz-adv-x="856" 
d="M384 41h-233l62 351h172l-5 -27h-145l-52 -297h201q165 0 270 111.5t105 275.5q0 122 -75.5 189.5t-201.5 67.5h-186l-49 -279h146l-5 -27h-173l59 333h208q138 0 221 -74t83 -210q0 -176 -112 -295t-290 -119zM-11 0l5 27h390q183 0 299.5 124t116.5 304q0 140 -88 219
t-230 79h-361l5 27h356q153 0 249 -86t96 -239q0 -192 -124 -323.5t-319 -131.5h-395zM-3 41l5 27h112l52 297h-105l5 27h132l-61 -351h-140zM227 712h-113l5 27h140l-58 -333h-132l5 27h104z" />
    <glyph glyph-name="dcroat" unicode="&#x111;" horiz-adv-x="725" 
d="M71 249q0 104 77 178.5t181 74.5q92 0 153.5 -63t61.5 -155q0 -104 -76.5 -178.5t-180.5 -74.5q-92 0 -154 63t-62 155zM99 249q0 -80 54 -135.5t134 -55.5q92 0 161 67t69 159q0 80 -54 135.5t-134 55.5q-92 0 -161 -67t-69 -159zM57 249q0 -97 66.5 -164.5t163.5 -67.5
q76 0 142 41.5t100 108.5l-24 -140h153l-5 -27h-180l11 65q-85 -75 -197 -75q-110 0 -183.5 75t-73.5 184q0 121 89 207.5t210 86.5q69 0 126 -32.5t92 -87.5l28 163h-179l5 27h206l-52 -296q-11 85 -75 142t-151 57q-109 0 -190.5 -79t-81.5 -188zM666 68l-5 -27h-140
l100 572h94l-5 -27h-66l-91 -518h113zM602 736h-114l5 27h141l-24 -136h-206l5 27h178zM723 654l-5 -27h-95l27 150h-154l5 27h181l-26 -150h67z" />
    <glyph glyph-name="Emacron" unicode="&#x112;" 
d="M572 68l21 124h28l-27 -151h-444l62 350h342l-5 -27h-315l-52 -296h390zM561 432l-4 -27h-343l59 334h435l-28 -151h-28l23 124h-380l-49 -280h315zM-4 41l5 27h112l113 644h-113l5 27h140l-122 -698h-140zM628 0h-640l5 27h613l29 165h28zM722 588h-28l30 165h-604l5 27
h631zM634 885l-5 -27h-314l5 27h314zM642 926l-5 -27h-314l5 27h314z" />
    <glyph glyph-name="emacron" unicode="&#x113;" horiz-adv-x="573" 
d="M514 661l-5 -27h-314l5 27h314zM522 702l-5 -27h-314l5 27h314zM224 243q-75 0 -153 17q5 102 82 172t182 70q68 0 106.5 -30.5t38.5 -81.5q0 -69 -72.5 -108t-183.5 -39zM487 86l17 -21q-94 -75 -208 -75q-118 0 -192 74.5t-74 183.5q0 123 90 209t215 86
q84 0 135 -42.5t51 -110.5q0 -61 -42 -104.5t-108 -63.5t-147 -20q-57 0 -122 10q12 -68 64 -111t130 -43q88 0 166 60l17 -21q-86 -66 -183 -66q-101 0 -162.5 61.5t-62.5 153.5q80 -17 153 -17q115 0 192.5 42.5t77.5 118.5q0 57 -42.5 91.5t-116.5 34.5
q-113 0 -195.5 -79t-82.5 -189q0 -97 66.5 -164t172.5 -67q103 0 191 69zM335 475q-87 0 -153.5 -55.5t-80.5 -137.5q61 -11 123 -11q100 0 164.5 33t64.5 86q0 37 -31 61t-87 24z" />
    <glyph glyph-name="Edotaccent" unicode="&#x116;" 
d="M572 68l21 124h28l-27 -151h-444l62 350h342l-5 -27h-315l-52 -296h390zM561 432l-4 -27h-343l59 334h435l-28 -151h-28l23 124h-380l-49 -280h315zM-4 41l5 27h112l113 644h-113l5 27h140l-122 -698h-140zM628 0h-640l5 27h613l29 165h28zM722 588h-28l30 165h-604l5 27
h631zM429 917q0 25 17.5 42.5t42.5 17.5t43 -17.5t18 -42.5t-18 -43t-43 -18t-42.5 18t-17.5 43zM454 917q0 -14 10.5 -24.5t24.5 -10.5t24.5 10.5t10.5 24.5t-10.5 24.5t-24.5 10.5t-24.5 -10.5t-10.5 -24.5zM469 917q0 9 5.5 15t14.5 6t15 -6t6 -15t-6 -15t-15 -6
q-8 0 -14 6t-6 15z" />
    <glyph glyph-name="edotaccent" unicode="&#x117;" horiz-adv-x="573" 
d="M224 243q-75 0 -153 17q5 102 82 172t182 70q68 0 106.5 -30.5t38.5 -81.5q0 -69 -72.5 -108t-183.5 -39zM487 86l17 -21q-94 -75 -208 -75q-118 0 -192 74.5t-74 183.5q0 123 90 209t215 86q84 0 135 -42.5t51 -110.5q0 -61 -42 -104.5t-108 -63.5t-147 -20
q-57 0 -122 10q12 -68 64 -111t130 -43q88 0 166 60l17 -21q-86 -66 -183 -66q-101 0 -162.5 61.5t-62.5 153.5q80 -17 153 -17q115 0 192.5 42.5t77.5 118.5q0 57 -42.5 91.5t-116.5 34.5q-113 0 -195.5 -79t-82.5 -189q0 -97 66.5 -164t172.5 -67q103 0 191 69zM335 475
q-87 0 -153.5 -55.5t-80.5 -137.5q61 -11 123 -11q100 0 164.5 33t64.5 86q0 37 -31 61t-87 24zM302 690q0 25 17.5 42.5t42.5 17.5t43 -17.5t18 -42.5t-18 -43t-43 -18t-42.5 18t-17.5 43zM327 690q0 -14 10.5 -24.5t24.5 -10.5t24.5 10.5t10.5 24.5t-10.5 24.5t-24.5 10.5
t-24.5 -10.5t-10.5 -24.5zM342 690q0 9 5.5 15t14.5 6t15 -6t6 -15t-6 -15t-15 -6q-8 0 -14 6t-6 15z" />
    <glyph glyph-name="Eogonek" unicode="&#x118;" 
d="M572 68l21 124h28l-27 -151h-444l62 350h342l-5 -27h-315l-52 -296h390zM561 432l-4 -27h-343l59 334h435l-28 -151h-28l23 124h-380l-49 -280h315zM-4 41l5 27h112l113 644h-113l5 27h140l-122 -698h-140zM413 0h-425l5 27h515q-101 -33 -101 -116q0 -54 44 -83.5
t110 -18.5l5 -27q-77 -13 -131.5 24.5t-54.5 104.5q0 53 33 89zM722 588h-28l30 165h-604l5 27h631zM448 -89q0 -32 30 -50.5t76 -10.5l5 -27q-58 -10 -98 16.5t-40 71.5q0 56 49.5 84.5t115.5 31.5h20l29 165h28l-35 -192h-45q-53 -2 -94 -24.5t-41 -64.5z" />
    <glyph glyph-name="eogonek" unicode="&#x119;" horiz-adv-x="573" 
d="M224 243q-75 0 -153 17q5 102 82 172t182 70q68 0 106.5 -30.5t38.5 -81.5q0 -69 -72.5 -108t-183.5 -39zM462 118l17 -21q-86 -66 -183 -66q-101 0 -162.5 61.5t-62.5 153.5q80 -17 153 -17q115 0 192.5 42.5t77.5 118.5q0 57 -42.5 91.5t-116.5 34.5q-113 0 -195.5 -79
t-82.5 -189q0 -90 58 -155t152 -75q-86 -32 -86 -107q0 -54 44.5 -83.5t109.5 -18.5l5 -27q-77 -13 -131.5 24.5t-54.5 104.5q0 57 42 96q-77 28 -121.5 93t-44.5 148q0 123 90 209t215 86q84 0 135 -42.5t51 -110.5q0 -61 -42 -104.5t-108 -63.5t-147 -20q-57 0 -122 10
q12 -68 64 -111t130 -43q88 0 166 60zM335 475q-87 0 -153.5 -55.5t-80.5 -137.5q61 -11 123 -11q100 0 164.5 33t64.5 86q0 37 -31 61t-87 24zM487 86l17 -21q-84 -67 -187 -74q-95 -21 -95 -80q0 -32 30 -50.5t76 -10.5l5 -27q-57 -10 -97.5 16.5t-40.5 71.5q0 81 117 106
q95 5 175 69z" />
    <glyph glyph-name="Ecaron" unicode="&#x11a;" 
d="M572 68l21 124h28l-27 -151h-444l62 350h342l-5 -27h-315l-52 -296h390zM561 432l-4 -27h-343l59 334h435l-28 -151h-28l23 124h-380l-49 -280h315zM-4 41l5 27h112l113 644h-113l5 27h140l-122 -698h-140zM628 0h-640l5 27h613l29 165h28zM722 588h-28l30 165h-604l5 27
h631zM479 836l-153 126l18 22l136 -115l179 114l14 -23zM637 1017l14 -22l-169 -108l-130 107l18 21l114 -95z" />
    <glyph glyph-name="ecaron" unicode="&#x11b;" horiz-adv-x="573" 
d="M353 612l-153 126l18 22l136 -115l179 114l14 -23zM511 793l14 -22l-169 -108l-130 107l18 21l114 -95zM224 243q-75 0 -153 17q5 102 82 172t182 70q68 0 106.5 -30.5t38.5 -81.5q0 -69 -72.5 -108t-183.5 -39zM487 86l17 -21q-94 -75 -208 -75q-118 0 -192 74.5
t-74 183.5q0 123 90 209t215 86q84 0 135 -42.5t51 -110.5q0 -61 -42 -104.5t-108 -63.5t-147 -20q-57 0 -122 10q12 -68 64 -111t130 -43q88 0 166 60l17 -21q-86 -66 -183 -66q-101 0 -162.5 61.5t-62.5 153.5q80 -17 153 -17q115 0 192.5 42.5t77.5 118.5
q0 57 -42.5 91.5t-116.5 34.5q-113 0 -195.5 -79t-82.5 -189q0 -97 66.5 -164t172.5 -67q103 0 191 69zM335 475q-87 0 -153.5 -55.5t-80.5 -137.5q61 -11 123 -11q100 0 164.5 33t64.5 86q0 37 -31 61t-87 24z" />
    <glyph glyph-name="Gbreve" unicode="&#x11e;" horiz-adv-x="842" 
d="M737 482h-29l15 88q-5 68 -72.5 112.5t-158.5 44.5q-148 0 -259 -108.5t-111 -255.5q0 -129 86.5 -219.5t209.5 -90.5q166 0 267 133l24 131h-269l5 27h296l-29 -167q-110 -151 -294 -151q-136 0 -229.5 98t-93.5 239q0 160 118.5 275.5t278.5 115.5q105 0 180.5 -52
t78.5 -135h1zM745 690l16 90h28l-30 -173q-21 73 -96.5 117t-170.5 44q-165 0 -288 -120.5t-123 -284.5q0 -146 98.5 -248.5t238.5 -102.5q177 0 288 135l-25 -147h-29l12 68q-106 -83 -246 -83q-153 0 -258.5 110t-105.5 268q0 116 60.5 216t161.5 158t216 58
q76 0 144 -27.5t109 -77.5zM723 0h-28l29 169l33 189h-309l5 27h336zM779 482h-28l52 298h28zM377 970l26 8q15 -50 50 -80t85 -30q100 0 169 99l23 -15q-34 -49 -85 -80t-107 -31q-59 0 -101.5 36.5t-59.5 92.5zM417 982l26 8q23 -81 95 -81q78 0 135 81l22 -15
q-64 -93 -157 -93q-92 0 -121 100z" />
    <glyph glyph-name="gbreve" unicode="&#x11f;" horiz-adv-x="722" 
d="M71 249q0 104 77 178.5t181 74.5q92 0 153.5 -63t61.5 -155q0 -104 -76.5 -178.5t-180.5 -74.5q-92 0 -154 63t-62 155zM99 249q0 -80 54 -135.5t134 -55.5q92 0 161 67t69 159q0 80 -54 135.5t-134 55.5q-92 0 -161 -67t-69 -159zM57 249q0 -97 66.5 -164.5t163.5 -67.5
q75 0 140 40.5t100 105.5l-36 -207q-9 -50 -24 -92.5t-43 -87.5t-75 -71.5t-109 -26.5q-83 0 -125 43t-42 99q0 30 9 55l26 -11q-8 -18 -8 -44q0 -46 35 -80.5t105 -34.5q44 0 80 16.5t59.5 42t41.5 61t27.5 67.5t15.5 69l18 101q-85 -72 -195 -72t-183.5 75t-73.5 184
q0 121 89 207.5t210 86.5q69 0 126 -32t91 -87l19 108h181l-5 -27h-154l-32 -184q-14 84 -77 139.5t-149 55.5q-109 0 -190.5 -79t-81.5 -188zM32 -180q0 41 13 71l24 -10q-10 -22 -10 -61q0 -59 46 -107.5t135 -48.5q53 0 96.5 19.5t71 49t48.5 70.5t31.5 76.5t17.5 74.5
l94 537h139l-5 -27h-111l-90 -515q-8 -41 -19 -78.5t-34.5 -82t-54 -76.5t-78.5 -53.5t-106 -21.5q-100 0 -154 57.5t-54 125.5zM274 746l26 8q15 -50 50 -80t85 -30q100 0 169 99l23 -15q-34 -49 -85 -80t-107 -31q-59 0 -101.5 36.5t-59.5 92.5zM314 758l26 8
q23 -81 95 -81q78 0 135 81l22 -15q-64 -93 -157 -93q-92 0 -121 100z" />
    <glyph glyph-name="Gdotaccent" unicode="&#x120;" horiz-adv-x="842" 
d="M737 482h-29l15 88q-5 68 -72.5 112.5t-158.5 44.5q-148 0 -259 -108.5t-111 -255.5q0 -129 86.5 -219.5t209.5 -90.5q166 0 267 133l24 131h-269l5 27h296l-29 -167q-110 -151 -294 -151q-136 0 -229.5 98t-93.5 239q0 160 118.5 275.5t278.5 115.5q105 0 180.5 -52
t78.5 -135h1zM745 690l16 90h28l-30 -173q-21 73 -96.5 117t-170.5 44q-165 0 -288 -120.5t-123 -284.5q0 -146 98.5 -248.5t238.5 -102.5q177 0 288 135l-25 -147h-29l12 68q-106 -83 -246 -83q-153 0 -258.5 110t-105.5 268q0 116 60.5 216t161.5 158t216 58
q76 0 144 -27.5t109 -77.5zM723 0h-28l29 169l33 189h-309l5 27h336zM779 482h-28l52 298h28zM488 917q0 25 17.5 42.5t42.5 17.5t43 -17.5t18 -42.5t-18 -43t-43 -18t-42.5 18t-17.5 43zM513 917q0 -14 10.5 -24.5t24.5 -10.5t24.5 10.5t10.5 24.5t-10.5 24.5t-24.5 10.5
t-24.5 -10.5t-10.5 -24.5zM528 917q0 9 5.5 15t14.5 6t15 -6t6 -15t-6 -15t-15 -6q-8 0 -14 6t-6 15z" />
    <glyph glyph-name="gdotaccent" unicode="&#x121;" horiz-adv-x="722" 
d="M381 690q0 25 17.5 42.5t42.5 17.5t43 -17.5t18 -42.5t-18 -43t-43 -18t-42.5 18t-17.5 43zM406 690q0 -14 10.5 -24.5t24.5 -10.5t24.5 10.5t10.5 24.5t-10.5 24.5t-24.5 10.5t-24.5 -10.5t-10.5 -24.5zM421 690q0 9 5.5 15t14.5 6t15 -6t6 -15t-6 -15t-15 -6
q-8 0 -14 6t-6 15zM71 249q0 104 77 178.5t181 74.5q92 0 153.5 -63t61.5 -155q0 -104 -76.5 -178.5t-180.5 -74.5q-92 0 -154 63t-62 155zM99 249q0 -80 54 -135.5t134 -55.5q92 0 161 67t69 159q0 80 -54 135.5t-134 55.5q-92 0 -161 -67t-69 -159zM57 249
q0 -97 66.5 -164.5t163.5 -67.5q75 0 140 40.5t100 105.5l-36 -207q-9 -50 -24 -92.5t-43 -87.5t-75 -71.5t-109 -26.5q-83 0 -125 43t-42 99q0 30 9 55l26 -11q-8 -18 -8 -44q0 -46 35 -80.5t105 -34.5q44 0 80 16.5t59.5 42t41.5 61t27.5 67.5t15.5 69l18 101
q-85 -72 -195 -72t-183.5 75t-73.5 184q0 121 89 207.5t210 86.5q69 0 126 -32t91 -87l19 108h181l-5 -27h-154l-32 -184q-14 84 -77 139.5t-149 55.5q-109 0 -190.5 -79t-81.5 -188zM32 -180q0 41 13 71l24 -10q-10 -22 -10 -61q0 -59 46 -107.5t135 -48.5q53 0 96.5 19.5
t71 49t48.5 70.5t31.5 76.5t17.5 74.5l94 537h139l-5 -27h-111l-90 -515q-8 -41 -19 -78.5t-34.5 -82t-54 -76.5t-78.5 -53.5t-106 -21.5q-100 0 -154 57.5t-54 125.5z" />
    <glyph glyph-name="Gcommaaccent" unicode="&#x122;" horiz-adv-x="842" 
d="M737 482h-29l15 88q-5 68 -72.5 112.5t-158.5 44.5q-148 0 -259 -108.5t-111 -255.5q0 -129 86.5 -219.5t209.5 -90.5q166 0 267 133l24 131h-269l5 27h296l-29 -167q-110 -151 -294 -151q-136 0 -229.5 98t-93.5 239q0 160 118.5 275.5t278.5 115.5q105 0 180.5 -52
t78.5 -135h1zM745 690l16 90h28l-30 -173q-21 73 -96.5 117t-170.5 44q-165 0 -288 -120.5t-123 -284.5q0 -146 98.5 -248.5t238.5 -102.5q177 0 288 135l-25 -147h-29l12 68q-106 -83 -246 -83q-153 0 -258.5 110t-105.5 268q0 116 60.5 216t161.5 158t216 58
q76 0 144 -27.5t109 -77.5zM723 0h-28l29 169l33 189h-309l5 27h336zM779 482h-28l52 298h28zM275 -325l-15 20q5 4 14.5 10.5t32.5 27.5t41 42t32.5 50t14.5 54q0 20 -11 31t-26 11t-25 -10.5t-10 -24.5t8.5 -23t19.5 -10l2 14q-16 2 -16 19q0 8 6 14.5t15 6.5
q10 0 16.5 -7.5t6.5 -20.5q0 -37 -32.5 -80t-64.5 -68l-33 -25l-14 20q68 48 102 104q-16 4 -28.5 19.5t-12.5 36.5q0 26 17 43t43 17q25 0 43 -18.5t18 -49.5q0 -29 -15 -60t-36 -55.5t-42 -45t-36 -31.5z" />
    <glyph glyph-name="gcommaaccent" unicode="&#x123;" horiz-adv-x="722" 
d="M406 610l-15 20q5 4 14.5 10.5t32.5 27.5t41 42t32.5 50t14.5 54q0 20 -11 31t-26 11t-25 -10.5t-10 -24.5t8.5 -23t19.5 -10l2 14q-16 2 -16 19q0 8 6 14.5t15 6.5q10 0 16.5 -7.5t6.5 -20.5q0 -37 -32.5 -80t-65.5 -68l-32 -25l-14 20q68 48 102 104q-16 4 -28.5 19.5
t-12.5 36.5q0 25 17.5 42.5t42.5 17.5t43 -18.5t18 -49.5q0 -29 -15 -60t-36 -55.5t-42 -45t-36 -31.5zM71 249q0 104 77 178.5t181 74.5q92 0 153.5 -63t61.5 -155q0 -104 -76.5 -178.5t-180.5 -74.5q-92 0 -154 63t-62 155zM99 249q0 -80 54 -135.5t134 -55.5q92 0 161 67
t69 159q0 80 -54 135.5t-134 55.5q-92 0 -161 -67t-69 -159zM57 249q0 -97 66.5 -164.5t163.5 -67.5q75 0 140 40.5t100 105.5l-36 -207q-9 -50 -24 -92.5t-43 -87.5t-75 -71.5t-109 -26.5q-83 0 -125 43t-42 99q0 30 9 55l26 -11q-8 -18 -8 -44q0 -46 35 -80.5t105 -34.5
q44 0 80 16.5t59.5 42t41.5 61t27.5 67.5t15.5 69l18 101q-85 -72 -195 -72t-183.5 75t-73.5 184q0 121 89 207.5t210 86.5q69 0 126 -32t91 -87l19 108h181l-5 -27h-154l-32 -184q-14 84 -77 139.5t-149 55.5q-109 0 -190.5 -79t-81.5 -188zM32 -180q0 41 13 71l24 -10
q-10 -22 -10 -61q0 -59 46 -107.5t135 -48.5q53 0 96.5 19.5t71 49t48.5 70.5t31.5 76.5t17.5 74.5l94 537h139l-5 -27h-111l-90 -515q-8 -41 -19 -78.5t-34.5 -82t-54 -76.5t-78.5 -53.5t-106 -21.5q-100 0 -154 57.5t-54 125.5z" />
    <glyph glyph-name="Hbar" unicode="&#x126;" horiz-adv-x="918" 
d="M295 68l-5 -27h-140l62 350h517l-61 -350h-140l5 27h112l52 296h-463l-52 -296h113zM758 712h-113l5 27h140l-58 -334h-518l59 334h139l-5 -27h-112l-49 -280h463zM828 68l-5 -27h-141l123 698h140l-5 -27h-112l-113 -644h113zM-5 41l5 27h113l113 644h-114l5 27h141
l-122 -698h-141zM420 780l-5 -27h-295l4 27h296zM520 0l5 27h295l-5 -27h-295zM282 0h-295l5 27h295zM953 780l-5 -27h-295l5 27h295zM713 885l-5 -27h-314l5 27h314zM721 926l-5 -27h-314l5 27h314z" />
    <glyph glyph-name="hbar" unicode="&#x127;" horiz-adv-x="698" 
d="M540 306l-49 -279h154l-5 -27h-181l54 311q15 83 -17 123.5t-86 40.5q-51 0 -104 -29.5t-98 -80.5l-52 -297h112l-5 -27h-140l60 337q109 124 227 124q67 0 107 -48t23 -148zM376 613l-5 -27h-125l-19 -111q95 68 183 68q38 0 71.5 -14t61 -42t38.5 -76.5t0 -110.5
l-41 -232h112l-5 -27h-140l47 263q19 106 -26.5 159t-117.5 53q-57 0 -116 -30.5t-107 -82.5l37 210h152zM178 586h-121l5 27h148l-101 -572h-138l4 27h112zM384 654l-5 -27h-153l27 150h-154l5 27h181l-27 -150h126zM205 736h-114l5 27h141l-24 -136h-148l5 27h120zM-32 27
h293l-5 -27h-293z" />
    <glyph glyph-name="Itilde" unicode="&#x128;" horiz-adv-x="385" 
d="M295 68l-4 -27h-141l122 698h140l-5 -27h-112l-113 -644h113zM-4 41l5 27h112l112 644h-113l5 27h140l-121 -698h-140zM420 780l-5 -27h-295l4 27h296zM283 0h-295l5 27h295zM225 979q-44 0 -70 -35t-34 -83l-27 5q10 54 42 97t89 43q53 0 98 -58q27 -34 48 -34
q48 0 63 84l26 -5q-19 -106 -89 -106q-20 0 -34.5 10.5t-33.5 32.5q-38 49 -78 49zM162 854l-27 5q19 106 90 106q33 0 67 -43q40 -49 79 -49q44 0 69.5 34.5t33.5 82.5l27 -4q-10 -54 -41.5 -97t-88.5 -43q-56 0 -98 58q-27 34 -48 34q-48 0 -63 -84z" />
    <glyph glyph-name="itilde" unicode="&#x129;" horiz-adv-x="343" 
d="M282 68l-5 -27h-140l82 464h-154l5 27h182l-82 -464h112zM-16 41l5 27h111l71 396h-113l5 27h140l-80 -450h-139zM-24 0l5 27h293l-5 -27h-293zM148 755q-44 0 -70 -35t-34 -83l-27 5q10 54 42 97t89 43q53 0 98 -58q27 -34 48 -34q48 0 63 84l26 -5q-19 -106 -89 -106
q-20 0 -34.5 10.5t-33.5 32.5q-38 49 -78 49zM85 630l-27 5q19 106 90 106q33 0 67 -43q40 -49 79 -49q44 0 69.5 34.5t33.5 82.5l27 -4q-10 -54 -41.5 -97t-88.5 -43q-56 0 -98 58q-27 34 -48 34q-48 0 -63 -84z" />
    <glyph glyph-name="Imacron" unicode="&#x12a;" horiz-adv-x="385" 
d="M295 68l-4 -27h-141l122 698h140l-5 -27h-112l-113 -644h113zM-4 41l5 27h112l112 644h-113l5 27h140l-121 -698h-140zM420 780l-5 -27h-295l4 27h296zM283 0h-295l5 27h295zM446 885l-5 -27h-314l5 27h314zM454 926l-5 -27h-314l5 27h314z" />
    <glyph glyph-name="imacron" unicode="&#x12b;" horiz-adv-x="343" 
d="M282 68l-5 -27h-140l82 464h-154l5 27h182l-82 -464h112zM-16 41l5 27h111l71 396h-113l5 27h140l-80 -450h-139zM-24 0l5 27h293l-5 -27h-293zM370 661l-5 -27h-314l5 27h314zM378 702l-5 -27h-314l5 27h314z" />
    <glyph glyph-name="Ibreve" unicode="&#x12c;" horiz-adv-x="385" 
d="M295 68l-4 -27h-141l122 698h140l-5 -27h-112l-113 -644h113zM-4 41l5 27h112l112 644h-113l5 27h140l-121 -698h-140zM420 780l-5 -27h-295l4 27h296zM283 0h-295l5 27h295zM126 970l26 8q15 -50 50 -80t85 -30q100 0 169 99l23 -15q-34 -49 -85 -80t-107 -31
q-59 0 -101.5 36.5t-59.5 92.5zM166 982l26 8q23 -81 95 -81q78 0 135 81l22 -15q-64 -93 -157 -93q-92 0 -121 100z" />
    <glyph glyph-name="ibreve" unicode="&#x12d;" horiz-adv-x="343" 
d="M282 68l-5 -27h-140l82 464h-154l5 27h182l-82 -464h112zM-16 41l5 27h111l71 396h-113l5 27h140l-80 -450h-139zM-24 0l5 27h293l-5 -27h-293zM51 746l26 8q15 -50 50 -80t85 -30q100 0 169 99l23 -15q-34 -49 -85 -80t-107 -31q-59 0 -101.5 36.5t-59.5 92.5zM91 758
l26 8q23 -81 95 -81q78 0 135 81l22 -15q-64 -93 -157 -93q-92 0 -121 100z" />
    <glyph glyph-name="Iogonek" unicode="&#x12e;" horiz-adv-x="385" 
d="M295 68l-4 -27h-141l122 698h140l-5 -27h-112l-113 -644h113zM-4 41l5 27h112l112 644h-113l5 27h140l-121 -698h-140zM103 0h-115l5 27h205q-101 -33 -101 -116q0 -54 44 -83.5t110 -18.5l5 -27q-77 -13 -131.5 24.5t-54.5 104.5q0 53 33 89zM138 -89q0 -32 30 -50.5
t76 -10.5l5 -27q-58 -10 -98 16.5t-40 71.5q0 56 49.5 84.5t115.5 31.5h12l-5 -27h-10q-53 -2 -94 -24.5t-41 -64.5zM420 780l-5 -27h-295l4 27h296z" />
    <glyph glyph-name="iogonek" unicode="&#x12f;" horiz-adv-x="343" 
d="M282 68l-4 -27h-141l82 464h-154l5 27h182l-82 -464h112zM-16 41l5 27h111l71 396h-113l5 27h140l-80 -450h-139zM-24 0l5 27h204q-101 -33 -101 -116q0 -54 44 -83.5t110 -18.5l5 -27q-77 -13 -131.5 24.5t-54.5 104.5q0 53 33 89h-114zM178 699q0 25 18 43t43 18
t42.5 -18t17.5 -43t-17.5 -42.5t-42.5 -17.5t-43 17.5t-18 42.5zM125 -89q0 -32 30 -50.5t76 -10.5l5 -27q-58 -10 -98 16.5t-40 71.5q0 40 29 67.5t67.5 38t80.5 10.5l-5 -27h-10q-53 -2 -94 -24.5t-41 -64.5zM204 699q0 -14 10 -24.5t25 -10.5q14 0 24 10.5t10 24.5
t-10 24.5t-24 10.5q-15 0 -25 -10.5t-10 -24.5zM218 699q0 21 21 21q8 0 14 -6t6 -15t-5.5 -15t-14.5 -6t-15 6t-6 15z" />
    <glyph glyph-name="Idotaccent" unicode="&#x130;" horiz-adv-x="385" 
d="M295 68l-4 -27h-141l122 698h140l-5 -27h-112l-113 -644h113zM-4 41l5 27h112l112 644h-113l5 27h140l-121 -698h-140zM420 780l-5 -27h-295l4 27h296zM283 0h-295l5 27h295zM236 917q0 25 17.5 42.5t42.5 17.5t43 -17.5t18 -42.5t-18 -43t-43 -18t-42.5 18t-17.5 43z
M261 917q0 -14 10.5 -24.5t24.5 -10.5t24.5 10.5t10.5 24.5t-10.5 24.5t-24.5 10.5t-24.5 -10.5t-10.5 -24.5zM276 917q0 9 5.5 15t14.5 6t15 -6t6 -15t-6 -15t-15 -6q-8 0 -14 6t-6 15z" />
    <glyph glyph-name="dotlessi" unicode="&#x131;" horiz-adv-x="344" 
d="M283 68l-5 -27h-140l82 464h-154l5 27h182l-82 -464h112zM-15 41l5 27h111l71 396h-113l5 27h140l-80 -450h-139zM-23 0l5 27h293l-5 -27h-293z" />
    <glyph glyph-name="IJ" unicode="&#x132;" horiz-adv-x="997" 
d="M295 68l-4 -27h-141l122 698h140l-5 -27h-112l-113 -644h113zM-4 41l5 27h112l112 644h-113l5 27h140l-121 -698h-140zM420 780l-5 -27h-295l4 27h296zM283 0h-295l5 27h295zM622 753l4 27h340l-99 -568q-8 -41 -19 -78t-34.5 -81.5t-53.5 -76.5t-77.5 -54t-105.5 -22
q-53 0 -94 16.5t-65 43.5t-37 61t-13 69.5t12 68.5l25 -10q-15 -36 -9.5 -75t23 -72t59.5 -54t99 -21q52 0 95 19.5t70.5 49t48.5 70.5t31.5 76.5t17.5 74.5l94 536h-312zM577 -59q-52 0 -90.5 19.5t-55 49.5t-21.5 66t9 69l26 -9q-22 -62 12 -115t120 -53q53 0 94.5 24
t66.5 65t39 81t22 86l86 488h-271l5 27h299l-92 -520q-7 -38 -17 -72.5t-30 -73.5t-46 -67t-66.5 -46.5t-89.5 -18.5z" />
    <glyph glyph-name="ij" unicode="&#x133;" horiz-adv-x="632" 
d="M378 505l5 27h188l-99 -562q-6 -35 -15 -67.5t-28 -73t-42.5 -69.5t-62 -49t-84.5 -20q-77 0 -118.5 47t-41.5 105q0 39 13 69l25 -10q-11 -29 -11 -59q0 -49 34 -87t99 -38q158 0 206 257l93 530h-161zM370 464l5 27h148l-91 -514q-46 -245 -192 -245q-59 0 -89 33
t-30 78q0 25 10 53l25 -11q-8 -20 -8 -42q0 -35 23 -59.5t69 -24.5q123 0 165 223l85 482h-120zM296 68l-4 -27h-147l82 464h-161l5 27h188l-82 -464h119zM-16 41l4 27h120l70 396h-120l5 27h148l-80 -450h-147zM-24 0l5 27h308l-5 -27h-308zM185 699q0 25 18 43t43 18
t42.5 -18t17.5 -43t-17.5 -42.5t-42.5 -17.5t-43 17.5t-18 42.5zM211 699q0 -14 10 -24.5t25 -10.5q14 0 24 10.5t10 24.5t-10 24.5t-24 10.5q-15 0 -25 -10.5t-10 -24.5zM225 699q0 21 21 21q8 0 14 -6t6 -15t-5.5 -15t-14.5 -6t-15 6t-6 15zM481 699q0 25 18 43t43 18
t42.5 -18t17.5 -43t-17.5 -42.5t-42.5 -17.5t-43 17.5t-18 42.5zM507 699q0 -14 10 -24.5t25 -10.5q14 0 24 10.5t10 24.5t-10 24.5t-24 10.5q-15 0 -25 -10.5t-10 -24.5zM521 699q0 21 21 21q8 0 14 -6t6 -15t-5.5 -15t-14.5 -6t-15 6t-6 15z" />
    <glyph glyph-name="Jcircumflex" unicode="&#x134;" horiz-adv-x="635" 
d="M260 753l4 27h340l-99 -568q-8 -41 -19 -78t-34.5 -81.5t-53.5 -76.5t-77.5 -54t-105.5 -22q-53 0 -94 16.5t-65 43.5t-37 61t-13 69.5t12 68.5l25 -10q-15 -36 -9.5 -75t23 -72t59.5 -54t99 -21q52 0 95 19.5t70.5 49t48.5 70.5t31.5 76.5t17.5 74.5l94 536h-312z
M215 -59q-52 0 -90.5 19.5t-55 49.5t-21.5 66t9 69l26 -9q-22 -62 12 -115t120 -53q53 0 94.5 24t66.5 65t39 81t22 86l86 488h-271l5 27h299l-92 -520q-7 -38 -17 -72.5t-30 -73.5t-46 -67t-66.5 -46.5t-89.5 -18.5zM293 881l-14 23l194 124l153 -127l-18 -21l-137 115z
M315 846l-14 23l168 108l131 -107l-18 -21l-115 95z" />
    <glyph glyph-name="jcircumflex" unicode="&#x135;" horiz-adv-x="299" 
d="M-253 -157q0 36 14 69l24 -10q-11 -29 -11 -59q0 -49 34.5 -87t99.5 -38q49 0 88 25.5t61.5 68t35 81t20.5 82.5l93 530h-161l5 27h189l-99 -562q-6 -35 -15 -67.5t-28 -73t-42.5 -69.5t-62 -49t-84.5 -20q-77 0 -119 47t-42 105zM38 464l5 27h147l-91 -514
q-44 -245 -191 -245q-60 0 -89.5 33t-29.5 78q0 28 9 53l25 -11q-7 -23 -7 -42q0 -35 22.5 -59.5t69.5 -24.5q50 0 86.5 39t52 84t25.5 100l86 482h-120zM8 656l-14 23l194 124l153 -127l-18 -21l-137 115zM30 621l-14 23l168 108l131 -107l-18 -21l-115 95z" />
    <glyph glyph-name="Kcommaaccent" unicode="&#x136;" horiz-adv-x="808" 
d="M570 712l5 27h146l-350 -315l-182 -164l84 479h140l-5 -27h-113l-67 -381l423 381h-81zM754 68l-5 -27h-145l-216 379l355 319h128l-5 -27h-113l-330 -297l197 -347h134zM295 68l-5 -27h-140l35 197l193 173l218 -384h150l-5 -27h-160l-210 368l-162 -146l-27 -154h113z
M-4 41l5 27h112l113 644h-113l5 27h140l-122 -698h-140zM878 780l-4 -27h-296l5 27h295zM283 0h-295l5 27h295zM420 780l-4 -27h-296l5 27h295zM276 -322l-15 20q5 4 14.5 10.5t32.5 27.5t41 42t32.5 50t14.5 54q0 20 -11 31t-26 11t-25 -10.5t-10 -24.5t8.5 -23t19.5 -10
l2 14q-16 2 -16 19q0 8 6 14.5t15 6.5q10 0 16.5 -7.5t6.5 -20.5q0 -37 -32.5 -80t-65.5 -68l-32 -25l-14 20q68 48 102 104q-16 4 -28.5 19.5t-12.5 36.5q0 25 17.5 42.5t42.5 17.5t43 -18.5t18 -49.5q0 -29 -15 -60t-36 -55.5t-42 -45t-36 -31.5z" />
    <glyph glyph-name="kcommaaccent" unicode="&#x137;" horiz-adv-x="646" 
d="M582 68l-4 -27h-144l-92 163q111 30 166 82t55 113q0 49 -37.5 83t-95.5 34q-119 0 -245 -115l66 376h-154l5 27h181l-59 -338q106 77 206 77q70 0 115 -41.5t45 -102.5q0 -67 -51 -121.5t-157 -89.5l68 -120h132zM252 68l-5 -27h-126l60 337q128 124 249 124
q53 0 86 -29.5t33 -73.5q0 -57 -53.5 -106t-165.5 -77l-7 25q102 27 150 69t48 89q0 32 -25 54t-66 22q-106 0 -224 -110l-52 -297h98zM203 736h-114l5 27h141l-128 -722h-138l4 27h112zM575 27l-5 -27h-160l-107 192l23 13l100 -178h149zM-39 0l5 27h279l-5 -27h-279z
M176 -322l-15 20q5 4 14.5 10.5t32.5 27.5t41 42t32.5 50t14.5 54q0 20 -11 31t-26 11t-25 -10.5t-10 -24.5t8.5 -23t19.5 -10l2 14q-16 2 -16 19q0 8 6 14.5t15 6.5q10 0 16.5 -7.5t6.5 -20.5q0 -37 -32.5 -80t-65.5 -68l-32 -25l-14 20q68 48 102 104q-16 4 -28.5 19.5
t-12.5 36.5q0 25 17.5 42.5t42.5 17.5t43 -18.5t18 -49.5q0 -29 -15 -60t-36 -55.5t-42 -45t-36 -31.5z" />
    <glyph glyph-name="kgreenlandic" unicode="&#x138;" horiz-adv-x="662" 
d="M598 68l-5 -27h-144l-91 163q111 30 165.5 82t54.5 113q0 49 -37 83t-95 34q-118 0 -245 -115l19 104h-154l4 27h182l-12 -65q107 76 206 76q70 0 114.5 -41.5t44.5 -102.5q0 -67 -51 -121.5t-156 -89.5l67 -120h133zM346 216l-8 25q102 27 150.5 69t48.5 89q0 32 -25 54
t-66 22q-107 0 -224 -110l-52 -297h98l-5 -27h-126l60 337q129 124 249 124q53 0 85.5 -29.5t32.5 -73.5q0 -57 -53 -106t-165 -77zM171 464h-113l5 27h141l-81 -450h-140l5 27h112zM342 205l99 -178h149l-4 -27h-161l-107 192zM-25 0l5 27h280l-5 -27h-280z" />
    <glyph glyph-name="Lacute" unicode="&#x139;" horiz-adv-x="679" 
d="M547 68l22 124h28l-27 -151h-421l123 698h140l-5 -27h-112l-113 -644h365zM-5 41l5 27h112l113 644h-113l5 27h140l-122 -698h-140zM604 0h-617l5 27h590l29 165h28zM420 780l-5 -27h-295l4 27h296zM189 836l-14 24l258 156l15 -23zM167 872l-14 23l259 157l14 -23z" />
    <glyph glyph-name="lacute" unicode="&#x13a;" horiz-adv-x="343" 
d="M166 736h-113l5 27h141l-102 -574q-7 -51 -0.5 -84t26 -52.5t38.5 -27.5t38 -8q46 0 93 40l18 -22q-56 -45 -111 -45q-23 0 -47 10.5t-47.5 32t-34 63.5t-0.5 98zM266 88l17 -21q-44 -36 -84 -36q-41 0 -72 36.5t-16 119.5l104 590h-155l5 27h182l-109 -621
q-12 -67 9 -96t52 -29q30 0 67 30zM128 845l-14 24l258 156l15 -23zM106 881l-14 23l259 157l14 -23z" />
    <glyph glyph-name="Lcommaaccent" unicode="&#x13b;" horiz-adv-x="679" 
d="M547 68l22 124h28l-27 -151h-421l123 698h140l-5 -27h-112l-113 -644h365zM-5 41l5 27h112l113 644h-113l5 27h140l-122 -698h-140zM604 0h-617l5 27h590l29 165h28zM420 780l-5 -27h-295l4 27h296zM205 -322l-15 20q5 4 14.5 10.5t32.5 27.5t41 42t32.5 50t14.5 54
q0 20 -11 31t-26 11t-25 -10.5t-10 -24.5t8.5 -23t19.5 -10l2 14q-16 2 -16 19q0 8 6 14.5t15 6.5q10 0 16.5 -7.5t6.5 -20.5q0 -37 -32.5 -80t-64.5 -68l-33 -25l-14 20q68 48 102 104q-16 4 -28.5 19.5t-12.5 36.5q0 25 17 42.5t43 17.5q25 0 43 -18.5t18 -49.5
q0 -29 -15 -60t-36 -55.5t-42 -45t-36 -31.5z" />
    <glyph glyph-name="lcommaaccent" unicode="&#x13c;" horiz-adv-x="343" 
d="M166 736h-113l5 27h141l-102 -574q-7 -51 -0.5 -84t26 -52.5t38.5 -27.5t38 -8q46 0 93 40l18 -22q-56 -45 -111 -45q-23 0 -47 10.5t-47.5 32t-34 63.5t-0.5 98zM266 88l17 -21q-44 -36 -84 -36q-41 0 -72 36.5t-16 119.5l104 590h-155l5 27h182l-109 -621
q-12 -67 9 -96t52 -29q30 0 67 30zM19 -322l-15 20q5 4 14.5 10.5t32.5 27.5t41 42t32.5 50t14.5 54q0 20 -11 31t-26 11t-25 -10.5t-10 -24.5t8.5 -23t19.5 -10l2 14q-16 2 -16 19q0 8 6 14.5t15 6.5q10 0 16.5 -7.5t6.5 -20.5q0 -37 -32.5 -80t-64.5 -68l-33 -25l-14 20
q68 48 102 104q-16 4 -28.5 19.5t-12.5 36.5q0 25 17 42.5t43 17.5q25 0 43 -18.5t18 -49.5q0 -29 -15 -60t-36 -55.5t-42 -45t-36 -31.5z" />
    <glyph glyph-name="Lcaron" unicode="&#x13d;" horiz-adv-x="679" 
d="M547 68l22 124h28l-27 -151h-421l123 698h140l-5 -27h-112l-113 -644h365zM-5 41l5 27h112l113 644h-113l5 27h140l-122 -698h-140zM604 0h-617l5 27h590l29 165h28zM420 780l-5 -27h-295l4 27h296zM441 524l-15 20q5 4 14.5 10.5t32.5 27.5t41 42t32.5 50t14.5 54
q0 20 -11 31t-26 11t-25 -10.5t-10 -24.5t8.5 -23t19.5 -10l2 14q-16 2 -16 19q0 8 6 14.5t15 6.5q10 0 16.5 -7.5t6.5 -20.5q0 -37 -32.5 -80t-64.5 -68l-33 -25l-14 20q68 48 102 104q-16 4 -28.5 19.5t-12.5 36.5q0 25 17 42.5t43 17.5q25 0 43 -18.5t18 -49.5
q0 -29 -15 -60t-36 -55.5t-42 -45t-36 -31.5z" />
    <glyph glyph-name="lcaron" unicode="&#x13e;" horiz-adv-x="363" 
d="M166 736h-113l5 27h141l-102 -574q-7 -51 -0.5 -84t26 -52.5t38.5 -27.5t38 -8q46 0 93 40l18 -22q-56 -45 -111 -45q-23 0 -47 10.5t-47.5 32t-34 63.5t-0.5 98zM266 88l17 -21q-44 -36 -84 -36q-41 0 -72 36.5t-16 119.5l104 590h-155l5 27h182l-109 -621
q-12 -67 9 -96t52 -29q30 0 67 30zM277 543l-15 20q5 4 14.5 10.5t32.5 27.5t41 42t32.5 50t14.5 54q0 20 -11 31t-26 11t-25 -10.5t-10 -24.5t8.5 -23t19.5 -10l2 14q-16 2 -16 19q0 8 6 14.5t15 6.5q10 0 16.5 -7.5t6.5 -20.5q0 -37 -32.5 -80t-64.5 -68l-33 -25l-14 20
q68 48 102 104q-16 4 -28.5 19.5t-12.5 36.5q0 26 17 43t43 17q25 0 43 -18.5t18 -49.5q0 -29 -15 -60t-36 -55.5t-42 -45t-36 -31.5z" />
    <glyph glyph-name="Ldot" unicode="&#x13f;" horiz-adv-x="679" 
d="M547 68l22 124h28l-27 -151h-421l123 698h140l-5 -27h-112l-113 -644h365zM-5 41l5 27h112l113 644h-113l5 27h140l-122 -698h-140zM604 0h-617l5 27h590l29 165h28zM420 780l-5 -27h-295l4 27h296zM419 420q0 25 18 43t43 18t42.5 -18t17.5 -43t-17.5 -42.5t-42.5 -17.5
t-43 17.5t-18 42.5zM445 420q0 -14 10 -24.5t25 -10.5q14 0 24 10.5t10 24.5t-10 24.5t-24 10.5q-15 0 -25 -10.5t-10 -24.5zM459 420q0 21 21 21q8 0 14 -6t6 -15t-5.5 -15t-14.5 -6t-15 6t-6 15z" />
    <glyph glyph-name="ldot" unicode="&#x140;" horiz-adv-x="353" 
d="M166 736h-113l5 27h141l-102 -574q-7 -51 -0.5 -84t26 -52.5t38.5 -27.5t38 -8q46 0 93 40l18 -22q-56 -45 -111 -45q-23 0 -47 10.5t-47.5 32t-34 63.5t-0.5 98zM266 88l17 -21q-44 -36 -84 -36q-41 0 -72 36.5t-16 119.5l104 590h-155l5 27h182l-109 -621
q-12 -67 9 -96t52 -29q30 0 67 30zM232 394q0 25 18 43t43 18t42.5 -18t17.5 -43t-17.5 -42.5t-42.5 -17.5t-43 17.5t-18 42.5zM258 394q0 -14 10 -24.5t25 -10.5q14 0 24 10.5t10 24.5t-10 24.5t-24 10.5q-15 0 -25 -10.5t-10 -24.5zM272 394q0 21 21 21q8 0 14 -6t6 -15
t-5.5 -15t-14.5 -6t-15 6t-6 15z" />
    <glyph glyph-name="Lslash" unicode="&#x141;" horiz-adv-x="679" 
d="M548 68l22 124h28l-27 -151h-421l60 342l236 101l11 -24l-222 -96l-52 -296h365zM605 0h-617l5 27h590l29 165h28zM249 445l181 77l11 -25l-228 -98l60 340h140l-5 -27h-112zM113 712l5 27h140l-60 -347l-148 -63l-11 26l134 57l53 300h-113zM-4 41l5 27h112l46 264
l-93 -40l-10 25l139 59l-59 -335h-140zM421 780l-5 -27h-295l4 27h296z" />
    <glyph glyph-name="lslash" unicode="&#x142;" horiz-adv-x="371" 
d="M50 294l-14 23l125 76l-36 -204q-7 -51 -0.5 -84t26 -52.5t38.5 -27.5t38 -8q43 0 92 40l19 -22q-56 -45 -111 -45q-23 0 -47 10.5t-47.5 32t-34 63.5t-0.5 98l25 144zM227 58q30 0 67 30l17 -21q-44 -36 -84 -36q-41 0 -72 36.5t-16 119.5l38 216l136 82l14 -23
l-126 -76l-35 -203q-12 -67 9 -96t52 -29zM217 476l74 45l14 -24l-125 -76l63 356h-154l4 27h182zM194 736h-113l5 27h141l-63 -352l-135 -82l-14 24l124 76z" />
    <glyph glyph-name="Nacute" unicode="&#x143;" horiz-adv-x="915" 
d="M769 712h-114l5 27h141l-125 -714l-406 728h-151l5 27h162l376 -676zM294 68l-4 -27h-141l120 684l405 -723l-24 -13l-368 657l-101 -578h113zM225 712h-114l5 27h141l-122 -698h-140l5 27h112zM713 -1l-26 5l129 735h140l-5 -27h-113zM963 780l-4 -27h-296l5 27h295z
M287 27l-5 -27h-295l5 27h295zM461 836l-14 24l258 156l15 -23zM439 872l-14 23l259 157l14 -23z" />
    <glyph glyph-name="nacute" unicode="&#x144;" horiz-adv-x="713" 
d="M555 306l-49 -279h154l-5 -27h-181l54 311q15 83 -17 123.5t-86 40.5q-105 0 -202 -110l-52 -297h112l-5 -27h-140l60 337q109 124 227 124q67 0 107 -48t23 -148zM667 68l-5 -27h-140l47 263q19 106 -26.5 159t-117.5 53q-57 0 -115 -30t-107 -82l18 101h-154l5 27h181
l-10 -57q91 68 182 68q38 0 71.5 -14t61 -42t38.5 -76.5t0 -110.5l-41 -232h112zM172 464h-113l5 27h141l-81 -450h-138l4 27h112zM-17 27h293l-5 -27h-293zM331 612l-14 24l258 156l15 -23zM309 648l-14 23l259 157l14 -23z" />
    <glyph glyph-name="Ncommaaccent" unicode="&#x145;" horiz-adv-x="915" 
d="M769 712h-114l5 27h141l-125 -714l-406 728h-151l5 27h162l376 -676zM294 68l-4 -27h-141l120 684l405 -723l-24 -13l-368 657l-101 -578h113zM225 712h-114l5 27h141l-122 -698h-140l5 27h112zM713 -1l-26 5l129 735h140l-5 -27h-113zM963 780l-4 -27h-296l5 27h295z
M287 27l-5 -27h-295l5 27h295zM317 -322l-15 20q5 4 14.5 10.5t32.5 27.5t41 42t32.5 50t14.5 54q0 20 -11 31t-26 11t-25 -10.5t-10 -24.5t8.5 -23t19.5 -10l2 14q-16 2 -16 19q0 8 6 14.5t15 6.5q10 0 16.5 -7.5t6.5 -20.5q0 -37 -32.5 -80t-64.5 -68l-33 -25l-14 20
q68 48 102 104q-16 4 -28.5 19.5t-12.5 36.5q0 25 17 42.5t43 17.5q25 0 43 -18.5t18 -49.5q0 -29 -15 -60t-36 -55.5t-42 -45t-36 -31.5z" />
    <glyph glyph-name="ncommaaccent" unicode="&#x146;" horiz-adv-x="713" 
d="M555 306l-49 -279h154l-5 -27h-181l54 311q15 83 -17 123.5t-86 40.5q-105 0 -202 -110l-52 -297h112l-5 -27h-140l60 337q109 124 227 124q67 0 107 -48t23 -148zM667 68l-5 -27h-140l47 263q19 106 -26.5 159t-117.5 53q-57 0 -115 -30t-107 -82l18 101h-154l5 27h181
l-10 -57q91 68 182 68q38 0 71.5 -14t61 -42t38.5 -76.5t0 -110.5l-41 -232h112zM172 464h-113l5 27h141l-81 -450h-138l4 27h112zM-17 27h293l-5 -27h-293zM227 -322l-15 20q5 4 14.5 10.5t32.5 27.5t41 42t32.5 50t14.5 54q0 20 -11 31t-26 11t-25 -10.5t-10 -24.5
t8.5 -23t19.5 -10l2 14q-16 2 -16 19q0 8 6 14.5t15 6.5q10 0 16.5 -7.5t6.5 -20.5q0 -37 -32.5 -80t-64.5 -68l-33 -25l-14 20q68 48 102 104q-16 4 -28.5 19.5t-12.5 36.5q0 25 17 42.5t43 17.5q25 0 43 -18.5t18 -49.5q0 -29 -15 -60t-36 -55.5t-42 -45t-36 -31.5z" />
    <glyph glyph-name="Ncaron" unicode="&#x147;" horiz-adv-x="915" 
d="M769 712h-114l5 27h141l-125 -714l-406 728h-151l5 27h162l376 -676zM294 68l-4 -27h-141l120 684l405 -723l-24 -13l-368 657l-101 -578h113zM225 712h-114l5 27h141l-122 -698h-140l5 27h112zM713 -1l-26 5l129 735h140l-5 -27h-113zM963 780l-4 -27h-296l5 27h295z
M287 27l-5 -27h-295l5 27h295zM557 836l-153 126l18 22l136 -115l179 114l14 -23zM715 1017l14 -22l-169 -108l-130 107l18 21l114 -95z" />
    <glyph glyph-name="ncaron" unicode="&#x148;" horiz-adv-x="713" 
d="M555 306l-49 -279h154l-5 -27h-181l54 311q15 83 -17 123.5t-86 40.5q-105 0 -202 -110l-52 -297h112l-5 -27h-140l60 337q109 124 227 124q67 0 107 -48t23 -148zM667 68l-5 -27h-140l47 263q19 106 -26.5 159t-117.5 53q-57 0 -115 -30t-107 -82l18 101h-154l5 27h181
l-10 -57q91 68 182 68q38 0 71.5 -14t61 -42t38.5 -76.5t0 -110.5l-41 -232h112zM172 464h-113l5 27h141l-81 -450h-138l4 27h112zM-17 27h293l-5 -27h-293zM429 612l-153 126l18 22l136 -115l179 114l14 -23zM587 793l14 -22l-169 -108l-130 107l18 21l114 -95z" />
    <glyph glyph-name="napostrophe" unicode="&#x149;" horiz-adv-x="713" 
d="M555 306l-49 -279h154l-5 -27h-181l54 311q15 83 -17 123.5t-86 40.5q-105 0 -202 -110l-52 -297h112l-5 -27h-140l60 337q109 124 227 124q67 0 107 -48t23 -148zM667 68l-5 -27h-140l47 263q19 106 -26.5 159t-117.5 53q-57 0 -115 -30t-107 -82l18 101h-154l5 27h181
l-10 -57q91 68 182 68q38 0 71.5 -14t61 -42t38.5 -76.5t0 -110.5l-41 -232h112zM172 464h-113l5 27h141l-81 -450h-138l4 27h112zM-17 27h293l-5 -27h-293zM130 599l-15 20q5 4 14.5 10.5t32.5 27.5t41 42t32.5 50t14.5 54q0 20 -11 31t-26 11t-25 -10.5t-10 -24.5t8.5 -23
t19.5 -10l2 14q-16 2 -16 19q0 8 6 14.5t15 6.5q10 0 16.5 -7.5t6.5 -20.5q0 -37 -32.5 -80t-65.5 -68l-32 -25l-14 20q68 48 102 104q-16 4 -28.5 19.5t-12.5 36.5q0 26 17.5 43t42.5 17t43 -18.5t18 -49.5q0 -29 -15 -60t-36 -55.5t-42 -45t-36 -31.5z" />
    <glyph glyph-name="Eng" unicode="&#x14a;" horiz-adv-x="918" 
d="M303 68l-5 -27h-148l120 684l403 -722l-6 -34q-8 -49 -23.5 -92t-43 -88t-74 -71.5t-107.5 -26.5q-102 0 -143.5 65.5t-14.5 138.5l25 -9q-22 -62 12 -115t121 -53q53 0 94 24t66 65t39 81t23 86l4 24l-361 647l-101 -577h120zM770 712h-120l5 27h147l-126 -715l-405 729
h-158l5 27h169l376 -676zM964 739l-5 -27h-119l-132 -750q-7 -40 -18.5 -77.5t-34.5 -82t-53 -77t-78 -54t-105 -21.5q-53 0 -94.5 16.5t-65.5 43.5t-37 61t-13 69.5t12 68.5l26 -10q-15 -36 -10 -75t23 -72t60 -54t99 -21q52 0 94.5 19.5t70 49t48.5 70.5t31.5 76.5
t17.5 74.5l136 772h147zM226 712h-120l5 27h147l-122 -698h-146l4 27h119zM972 780l-5 -27h-309l4 27h310zM290 0h-308l5 27h308z" />
    <glyph glyph-name="eng" unicode="&#x14b;" horiz-adv-x="684" 
d="M283 68l-5 -27h-140l59 336q108 125 228 125q66 0 106.5 -48t23.5 -148l-58 -329q-44 -245 -192 -245q-59 0 -89 33t-30 78q0 25 10 53l25 -11q-8 -20 -8 -42q0 -35 23 -59.5t69 -24.5q123 0 165 223l58 329q15 83 -17 123.5t-86 40.5q-51 0 -104.5 -29.5t-97.5 -80.5
l-52 -297h112zM511 -25l58 329q8 58 0.5 98t-31 65.5t-52 37t-61.5 11.5q-117 0 -223 -113l18 102h-154l5 27h182l-10 -57q91 68 182 68q82 0 136.5 -61.5t33.5 -181.5l-58 -330q-6 -35 -15 -67.5t-27.5 -73t-42.5 -69.5t-62.5 -49t-84.5 -20q-77 0 -118.5 47t-41.5 105
q0 39 13 69l25 -10q-11 -29 -11 -59q0 -49 34 -87t99 -38q158 0 206 257zM172 464h-113l5 27h140l-80 -450h-139l5 27h111zM-23 0l5 27h293l-5 -27h-293z" />
    </font>
</defs>
</svg>
