<?xml version="1.0" standalone="no"?>
<!DOCTYPE svg PUBLIC "-//W3C//DTD SVG 1.1//EN" "http://www.w3.org/Graphics/SVG/1.1/DTD/svg11.dtd" >
<svg xmlns="http://www.w3.org/2000/svg" xmlns:xlink="http://www.w3.org/1999/xlink" version="1.1">
<metadata>
Created by FontForge 20170731 at Wed Mar 18 14:28:18 2015
 By Aleksey,,,
2015 Iconian Fonts - www.iconian.com
</metadata>
<defs>
<font id="FutureForcesSemi-Italic" horiz-adv-x="634" >
  <font-face 
    font-family="Future Forces Semi-Italic"
    font-weight="400"
    font-style="italic"
    font-stretch="normal"
    units-per-em="1000"
    panose-1="0 0 0 0 0 0 0 0 0 0"
    ascent="800"
    descent="-200"
    x-height="407"
    cap-height="407"
    bbox="-60 -147 1095 547"
    underline-thickness="50"
    underline-position="-175"
    unicode-range="U+0020-2122"
  />
<missing-glyph horiz-adv-x="500" 
 />
    <glyph glyph-name=".notdef" horiz-adv-x="500" 
 />
    <glyph glyph-name=".null" horiz-adv-x="0" 
 />
    <glyph glyph-name="nonmarkingreturn" horiz-adv-x="500" 
 />
    <glyph glyph-name="FL0020h" unicode=" " horiz-adv-x="384" 
 />
    <glyph glyph-name="FL0021h" unicode="!" horiz-adv-x="205" 
d="M114 407h121l-46 -259h-121zM163 0h-121l20 111h121z" />
    <glyph glyph-name="FL0022h" unicode="&#x22;" horiz-adv-x="351" 
d="M361 296l-52 -50h-70l29 161h113zM207 296l-52 -50h-70l29 161h113z" />
    <glyph glyph-name="FL0023h" unicode="#" horiz-adv-x="685" 
d="M703 338h-112l12 69h-121l-12 -69h-135l12 69h-121l-12 -69h-112l-20 -110h112l-9 -50h-112l-19 -110h112l-12 -68h121l12 68h135l-12 -68h121l12 68h112l19 110h-112l9 50h112zM450 228l-9 -50h-135l9 50h135z" />
    <glyph glyph-name="FL0024h" unicode="$" 
d="M248 -58h119l10 58h182q11 0 24 12t15 23l33 185q1 4 -1.5 10.5t-6.5 12.5t-9.5 10.5t-9.5 4.5h-182l7 38h215l20 111h-215l9 55h-119l-9 -55h-176q-17 -3 -29.5 -13t-17.5 -26l-32 -181q-2 -10 9 -24.5t31 -14.5h169l-6 -37h-216l-20 -111h216zM310 296l-7 -38h-95l7 38
h95zM491 111h-94l6 37h94z" />
    <glyph glyph-name="FL0025h" unicode="%" horiz-adv-x="697" 
d="M653 -9l31 174q2 6 -3 11t-10 5h-237l158 226h-130l-98 -140l26 148q2 6 -3 11t-10 5h-244q-4 0 -10 -5t-8 -11l-31 -174q-1 -5 3.5 -10.5t9.5 -5.5h238l-157 -225h130l96 138l-26 -147q-1 -5 3.5 -10.5t9.5 -5.5h244q6 0 11.5 5t6.5 11zM289 300h-114l10 56h114zM583 50
h-114l10 56h114z" />
    <glyph glyph-name="FL0026h" unicode="&#x26;" 
d="M183 111l6 37h402l19 110h-402l7 38h429l20 111h-198l9 55h-119l-9 -55h-199q-11 0 -19.5 -8.5t-14.5 -21.5t-9.5 -27t-5.5 -25l-5 -31q-4 -20 -5 -33.5t0.5 -23.5t6 -17.5t10.5 -16.5q-9 -8 -15.5 -15t-11.5 -16.5t-9 -23.5t-8 -36l-6 -30q-2 -11 -3.5 -25t0 -27
t7 -21.5t16.5 -8.5h199l-10 -58h119l10 58h198l20 111h-429z" />
    <glyph glyph-name="FL0027h" unicode="'" horiz-adv-x="205" 
d="M215 296l-55 -50h-75l29 161h121z" />
    <glyph glyph-name="FL0028h" unicode="(" horiz-adv-x="344" 
d="M294 -43h-229q-11 0 -18.5 11.5t-6.5 20.5l76 428q2 11 15 21.5t21 10.5h229l-19 -111h-139l-48 -270h139z" />
    <glyph glyph-name="FL0029h" unicode=")" horiz-adv-x="344" 
d="M34 -43h229q11 0 23 11.5t14 20.5l76 428q1 11 -8.5 21.5t-17.5 10.5h-229l-19 -111h139l-48 -270h-139z" />
    <glyph glyph-name="asterisk" unicode="*" horiz-adv-x="210" 
d="M176 319l61 41l-26 21l35 7l-6 57l-36 -15l13 31h-63l1 -31l-26 14l-29 -56l33 -7l-36 -21l53 -41l17 27z" />
    <glyph glyph-name="FL002Bh" unicode="+" horiz-adv-x="464" 
d="M240 355l-18 -97h-135l-19 -110h135l-17 -97h110l17 97h135l19 110h-135l18 97h-110z" />
    <glyph glyph-name="FL002Ch" unicode="," horiz-adv-x="205" 
d="M163 0l-55 -50h-75l29 161h121z" />
    <glyph glyph-name="FL002Dh" unicode="-" horiz-adv-x="388" 
d="M68 148h304l19 110h-304z" />
    <glyph glyph-name="FL002Eh" unicode="." horiz-adv-x="205" 
d="M163 0h-121l20 111h121z" />
    <glyph glyph-name="FL002Fh" unicode="/" horiz-adv-x="392" 
d="M307 407h132l-282 -407h-132z" />
    <glyph glyph-name="FL0031h" unicode="0" 
d="M598 32l60 343q2 11 -7.5 21.5t-17.5 10.5h-488q-8 0 -21 -10.5t-16 -21.5l-60 -343q-1 -9 6.5 -20.5t18.5 -11.5h488q11 0 23 10.5t14 21.5zM353 296l-128 -185h-42l32 185h138zM491 111h-137l128 185h41z" />
    <glyph glyph-name="FL0034h" unicode="1" horiz-adv-x="247" 
d="M114 407l-20 -111h42l-52 -296h121l72 407h-163z" />
    <glyph glyph-name="FL0032h" unicode="2" 
d="M612 111l-20 -111h-517q-11 0 -20 12t-7 23l33 185q1 4 5.5 10.5t10.5 12.5t12 10.5t11 4.5h396l7 38h-429l20 111h510q15 -3 24.5 -13t8.5 -26l-32 -181q-1 -5 -5.5 -11.5t-12 -12.5t-17 -10.5t-19.5 -4.5h-382l-6 -37h429z" />
    <glyph glyph-name="FL0033h" unicode="3" 
d="M62 111l-20 -111h516q11 0 19.5 8.5t14 21.5t9 27t5.5 25l6 30q4 22 4.5 36t-1 23.5t-5.5 16.5t-10 15q9 9 15.5 17t11.5 17.5t9 22.5t8 34l5 31q2 11 3.5 25t0 27t-6.5 21.5t-16 8.5h-516l-20 -111h429l-7 -38h-402l-19 -110h402l-6 -37h-429z" />
    <glyph glyph-name="FL0037h" unicode="4" 
d="M114 407h121l-27 -149h308l27 149h121l-72 -407h-121l26 148h-429z" />
    <glyph glyph-name="FL0035h" unicode="5" 
d="M62 111l-20 -111h517q11 0 24 12t15 23l33 185q1 4 -1.5 10.5t-6.5 12.5t-9.5 10.5t-9.5 4.5h-396l7 38h429l20 111h-550l-46 -259h429l-6 -37h-429z" />
    <glyph glyph-name="FL0036h" unicode="6" 
d="M215 296h429l20 111h-517q-11 0 -23.5 -10.5t-15.5 -21.5l-60 -343q-2 -14 8.5 -23t18.5 -9h485q10 1 23 11.5t15 21.5l33 187q1 4 -1.5 10.5t-6.5 12.5t-9.5 10.5t-9.5 4.5h-396zM182 109l7 39h308l-7 -39h-308z" />
    <glyph glyph-name="FL003Bh" unicode="7" 
d="M114 407l-20 -111h375l-313 -296h160l330 306l18 101h-550z" />
    <glyph glyph-name="FL0038h" unicode="8" horiz-adv-x="646" 
d="M99 325l-5 -31q-4 -21 -4.5 -34t1 -23t5 -17.5t9.5 -16.5q-9 -8 -15 -15t-11 -16.5t-9 -23.5t-8 -36l-6 -30q-2 -11 -3 -25t1 -27t7.5 -21.5t16.5 -8.5h490q11 0 19.5 8.5t14.5 21.5t10 27t6 25l6 30q4 22 4.5 36t-1 23.5t-5 16.5t-9.5 15q9 9 15 16.5t11 17.5t9 23t8 34
l5 31q2 11 3 25t-0.5 27t-7 21.5t-16.5 8.5h-490q-11 0 -19.5 -8.5t-15 -21.5t-10.5 -27t-6 -25zM208 258l7 38h320l-7 -38h-320zM183 111l6 37h320l-6 -37h-320z" />
    <glyph glyph-name="FL0039h" unicode="9" 
d="M101 149h396l-6 -38h-429l-20 -111h519q8 0 21.5 11t15.5 21l60 342q2 11 -6.5 22t-19.5 11h-485q-5 0 -11 -3.5t-12 -8t-10.5 -10t-5.5 -11.5l-33 -187q-1 -4 1.5 -10.5t6.5 -12.5t8.5 -10.5t9.5 -4.5zM523 297l-6 -38h-308l6 38h308z" />
    <glyph glyph-name="FL003Ah" unicode=":" horiz-adv-x="205" 
d="M163 0h-121l20 111h121zM205 240h-121l20 111h121z" />
    <glyph glyph-name="FL003Ch" unicode=";" horiz-adv-x="205" 
d="M205 240h-121l20 111h121zM163 0l-55 -50h-75l29 161h121z" />
    <glyph glyph-name="FL003Dh" unicode="&#x3c;" horiz-adv-x="411" 
d="M303 407h155l-241 -204l169 -203h-156l-169 203z" />
    <glyph glyph-name="FL003Fh" unicode="=" horiz-adv-x="464" 
d="M102 338l-20 -110h380l20 110h-380zM73 178l-19 -110h380l19 110h-380z" />
    <glyph glyph-name="FL003Eh" unicode="&#x3e;" horiz-adv-x="411" 
d="M252 407h-155l169 -204l-241 -203h156l241 203z" />
    <glyph glyph-name="FL0040h" unicode="?" 
d="M172 220q1 4 5.5 10.5t10.5 12.5t12 10.5t11 4.5h305l7 38h-429l20 111h510q15 -3 24.5 -13t8.5 -26l-32 -181q-1 -5 -5.5 -11.5t-12 -12.5t-17 -10.5t-19.5 -4.5h-412zM254 0h-121l20 111h121z" />
    <glyph glyph-name="FL004Ah" unicode="@" horiz-adv-x="731" 
d="M572 290q2 6 -3 11t-10 5h-280q-4 0 -10 -5t-8 -11l-30 -173q-2 -5 2.5 -10.5t9.5 -5.5h433q11 0 22.5 11.5t13.5 20.5l51 284q1 11 -8.5 21.5t-17.5 10.5h-585q-8 0 -21 -10.5t-15 -21.5l-76 -428q-1 -9 6.5 -20.5t18.5 -11.5h616l19 108h-529l49 276h411l-29 -163h-50z
M323 178l9 51h146l-9 -51h-146z" />
    <glyph glyph-name="FL0060h" unicode="A" horiz-adv-x="614" 
d="M457 0l-26 72h-223l-51 -72h-132l290 407h128l146 -407h-132zM357 281l-71 -99h106z" />
    <glyph glyph-name="FL0042h" unicode="B" horiz-adv-x="646" 
d="M42 0l72 407h526q11 0 16.5 -8.5t7 -21.5t0.5 -27t-3 -25l-5 -32q-4 -21 -8 -34t-9 -22.5t-11 -17t-15 -16.5q5 -8 9 -14.5t5.5 -16t1 -23.5t-4.5 -36l-6 -31q-2 -11 -6 -25t-10 -27t-14.5 -21.5t-19.5 -8.5h-526zM183 111h320l6 37h-320zM215 296l-7 -38h320l7 38h-320z
" />
    <glyph glyph-name="FL0043h" unicode="C" 
d="M598 32q-2 -11 -14 -21.5t-23 -10.5h-488q-11 0 -18.5 11.5t-6.5 20.5l60 343q3 11 16 21.5t21 10.5h488q8 0 17.5 -10.5t7.5 -21.5l-21 -117h-121l7 38h-308l-32 -185h308l6 39h121z" />
    <glyph glyph-name="FL0044h" unicode="D" 
d="M600 43q-1 -6 -7 -13t-14 -14t-16 -11.5t-14 -4.5h-507l72 407h507q4 0 10.5 -4.5t12.5 -11.5t9.5 -14t2.5 -13zM491 111l32 185h-308l-32 -185h308z" />
    <glyph glyph-name="FL0045h" unicode="E" 
d="M585 149h-396l-6 -38h429l-20 -111h-519q-8 0 -17.5 11t-7.5 21l60 342q2 11 14.5 22t23.5 11h485q10 -1 19.5 -11.5t7.5 -21.5l-33 -187q-1 -4 -5.5 -10.5t-10.5 -12.5t-13 -10.5t-11 -4.5zM215 297l-6 -38h308l6 38h-308z" />
    <glyph glyph-name="FL0046h" unicode="F" 
d="M114 407l-72 -407h121l20 111h402l19 110h-402l13 75h429l20 111h-550z" />
    <glyph glyph-name="FL0047h" unicode="G" 
d="M182 109h308l7 39h-172l19 110h260q4 0 9.5 -4.5t9.5 -10.5t6.5 -12.5t1.5 -10.5l-33 -187q-2 -11 -15 -21.5t-23 -11.5h-485q-8 0 -18.5 9t-8.5 23l60 343q3 11 15.5 21.5t23.5 10.5h517l-20 -111h-429z" />
    <glyph glyph-name="FL0048h" unicode="H" 
d="M114 407h121l-27 -149h308l27 149h121l-72 -407h-121l26 148h-308l-26 -148h-121z" />
    <glyph glyph-name="FL0049h" unicode="I" 
d="M612 111h-215l32 185h215l20 111h-550l-20 -111h214l-32 -185h-214l-20 -111h550z" />
    <glyph glyph-name="FL0051h" unicode="J" 
d="M48 32q-2 -11 6 -21.5t19 -10.5h488q11 0 23 11.5t14 20.5l66 375h-429l-20 -111h308l-32 -185h-308l6 39h-121z" />
    <glyph glyph-name="FL007Ch" unicode="K" horiz-adv-x="646" 
d="M114 407l-72 -407h121l26 148h320l-26 -148h121l20 116q7 39 6.5 65t-7 42.5t-18 24.5t-26.5 10l98 149h-131l-105 -149h-233l27 149h-121z" />
    <glyph glyph-name="FL004Ch" unicode="L" 
d="M612 111l-20 -111h-516q-13 0 -21.5 11t-6.5 22l66 374h121l-52 -296h429z" />
    <glyph glyph-name="FL004Dh" unicode="M" horiz-adv-x="751" 
d="M636 277l-194 -277h-134l-96 277l-49 -277h-121l72 407h186l96 -290l199 290h186l-72 -407h-122z" />
    <glyph glyph-name="FL004Eh" unicode="N" horiz-adv-x="649" 
d="M114 407h116l282 -253l45 253h122l-72 -407h-114l-285 253l-45 -253h-121z" />
    <glyph glyph-name="FL004Fh" unicode="O" 
d="M598 32q-2 -11 -14 -21.5t-23 -10.5h-488q-11 0 -18.5 11.5t-6.5 20.5l60 343q3 11 16 21.5t21 10.5h488q8 0 17.5 -10.5t7.5 -21.5zM491 111l32 185h-308l-32 -185h308z" />
    <glyph glyph-name="FL0050h" unicode="P" horiz-adv-x="646" 
d="M42 0l72 407h526q11 0 16.5 -8.5t7 -21.5t0.5 -27t-3 -25l-6 -33q-15 -88 -44 -134.5t-60 -46.5h-368l-20 -111h-121zM215 296l-13 -75h320l13 75h-320z" />
    <glyph glyph-name="FL0071h" unicode="Q" 
d="M499 -59h148l-49 92l60 342q2 11 -7.5 21.5t-17.5 10.5h-488q-8 0 -21 -10.5t-16 -21.5l-60 -343q-1 -9 6.5 -20.5t18.5 -11.5h386zM361 165l31 -54h-209l32 185h308l-23 -131h-139z" />
    <glyph glyph-name="FL0053h" unicode="R" horiz-adv-x="646" 
d="M504 111h-321l-20 -111h-121l72 407h526q11 0 16.5 -8.5t7 -21.5t0.5 -27t-3 -25l-5 -31q-7 -38 -21.5 -67.5t-27.5 -45.5q3 -4 6.5 -14t5.5 -21.5t3.5 -22t0.5 -15.5l-19 -108h-120zM215 296l-13 -75h320l13 75h-320z" />
    <glyph glyph-name="FL0056h" unicode="S" 
d="M62 111l-20 -111h517q11 0 24 12t15 23l33 185q1 4 -1.5 10.5t-6.5 12.5t-9.5 10.5t-9.5 4.5h-396l7 38h429l20 111h-510q-17 -3 -29.5 -13t-17.5 -26l-32 -181q-2 -10 9 -24.5t31 -14.5h382l-6 -37h-429z" />
    <glyph glyph-name="FL0055h" unicode="T" 
d="M308 296l-52 -296h121l52 296h215l20 111h-550l-20 -111h214z" />
    <glyph glyph-name="FL0057h" unicode="U" 
d="M598 32q-2 -11 -14 -21.5t-23 -10.5h-488q-11 0 -18.5 11.5t-6.5 20.5l66 375h121l-52 -296h308l52 296h121z" />
    <glyph glyph-name="FL0059h" unicode="V" horiz-adv-x="614" 
d="M329 126l200 281h132l-290 -407h-128l-146 407h132z" />
    <glyph glyph-name="FL0B39h" unicode="W" horiz-adv-x="884" 
d="M601 126l197 281h133l-290 -407h-125l-50 135l-95 -135h-126l-148 407h131l99 -281l94 133l-52 148h131z" />
    <glyph glyph-name="FL0058h" unicode="X" horiz-adv-x="614" 
d="M228 407h-131l61 -204l-133 -203h131l104 148h146l52 -148h131l-61 203l133 204h-131l-105 -149h-146z" />
    <glyph glyph-name="FL0079h" unicode="Y" 
d="M42 0l20 111h429l6 37h-394q-9 3 -19 12t-10 23l40 224h121l-27 -149h308l27 149h121l-66 -372q-2 -11 -15 -23t-24 -12h-517z" />
    <glyph glyph-name="FL005Ah" unicode="Z" 
d="M612 112l-20 -112h-550l17 97l354 199h-319l20 111h550l-18 -98l-353 -197h319z" />
    <glyph glyph-name="FL005Ch" unicode="[" horiz-adv-x="344" 
d="M294 -43h-260l87 492h260l-19 -111h-139l-48 -270h139z" />
    <glyph glyph-name="FL005Eh" unicode="\" horiz-adv-x="392" 
d="M229 407h-132l138 -407h132z" />
    <glyph glyph-name="FL005Dh" unicode="]" horiz-adv-x="344" 
d="M34 -43h260l87 492h-260l-19 -111h139l-48 -270h-139z" />
    <glyph glyph-name="FL0041h" unicode="^" 
d="M523 296h-429l20 111h517q11 0 20 -10.5t7 -21.5l-60 -343q-4 -14 -17.5 -23t-21.5 -9h-485q-10 1 -19 11.5t-7 21.5l33 187q1 4 5.5 10.5t10.5 12.5t12 10.5t11 4.5h396zM490 109l7 39h-308l-7 -39h308z" />
    <glyph glyph-name="FL005Fh" unicode="_" horiz-adv-x="580" 
d="M558 111l-20 -111h-496l20 111h496z" />
    <glyph glyph-name="FL0061h" unicode="`" horiz-adv-x="221" 
d="M258 358h-106l-45 103h114z" />
    <glyph glyph-name="FL0065h" unicode="a" 
d="M658 375l-66 -375h-121l20 111h-308l-20 -111h-121l66 375q2 9 14 20.5t23 11.5h488q11 0 19 -10.5t6 -21.5zM202 221h308l13 75h-308z" />
    <glyph glyph-name="FL0062h" unicode="b" horiz-adv-x="646" 
d="M42 0l72 407h526q11 0 16.5 -8.5t7 -21.5t0.5 -27t-3 -25l-5 -32q-4 -21 -8 -34t-9 -22.5t-11 -17t-15 -16.5q5 -8 9 -14.5t5.5 -16t1 -23.5t-4.5 -36l-6 -31q-2 -11 -6 -25t-10 -27t-14.5 -21.5t-19.5 -8.5h-526zM183 111h320l6 37h-320zM215 296l-7 -38h320l7 38h-320z
" />
    <glyph glyph-name="FL0063h" unicode="c" 
d="M598 32q-2 -11 -14 -21.5t-23 -10.5h-488q-11 0 -18.5 11.5t-6.5 20.5l60 343q3 11 16 21.5t21 10.5h488q8 0 17.5 -10.5t7.5 -21.5l-21 -117h-121l7 38h-308l-32 -185h308l6 39h121z" />
    <glyph glyph-name="FL0064h" unicode="d" 
d="M600 43q-1 -6 -7 -13t-14 -14t-16 -11.5t-14 -4.5h-507l72 407h507q4 0 10.5 -4.5t12.5 -11.5t9.5 -14t2.5 -13zM491 111l32 185h-308l-32 -185h308z" />
    <glyph glyph-name="e" unicode="e" 
d="M114 407l-72 -407h550l20 111h-429l6 37h402l19 110h-402l7 38h429l20 111h-550z" />
    <glyph glyph-name="FL0066h" unicode="f" 
d="M114 407l-72 -407h121l26 148h402l19 110h-402l7 38h429l20 111h-550z" />
    <glyph glyph-name="FL0067h" unicode="g" 
d="M182 109h308l7 39h-172l19 110h260q4 0 9.5 -4.5t9.5 -10.5t6.5 -12.5t1.5 -10.5l-33 -187q-2 -11 -15 -21.5t-23 -11.5h-485q-8 0 -18.5 9t-8.5 23l60 343q3 11 15.5 21.5t23.5 10.5h517l-20 -111h-429z" />
    <glyph glyph-name="FL0068h" unicode="h" 
d="M114 407h121l-27 -149h308l27 149h121l-72 -407h-121l26 148h-308l-26 -148h-121z" />
    <glyph glyph-name="FL0069h" unicode="i" horiz-adv-x="206" 
d="M114 407h122l-72 -407h-122z" />
    <glyph glyph-name="FL006Ah" unicode="j" 
d="M48 32q-2 -11 6 -21.5t19 -10.5h488q11 0 23 11.5t14 20.5l66 375h-121l-52 -296h-308l6 39h-121z" />
    <glyph glyph-name="FL004Bh" unicode="k" horiz-adv-x="630" 
d="M235 407h-121l-72 -407h121l26 148h233l52 -148h131l-61 203l133 204h-131l-105 -149h-233z" />
    <glyph glyph-name="FL006Ch" unicode="l" 
d="M612 111l-20 -111h-550l72 407h121l-52 -296h429z" />
    <glyph glyph-name="FL006Eh" unicode="m" horiz-adv-x="750" 
d="M636 277l-194 -277h-134l-96 277l-49 -277h-121l72 407h186l96 -289l199 289h185l-72 -407h-121z" />
    <glyph glyph-name="FL00B2h" unicode="n" horiz-adv-x="649" 
d="M114 407h116l282 -253l45 253h122l-72 -407h-114l-285 253l-45 -253h-121z" />
    <glyph glyph-name="FL006Fh" unicode="o" 
d="M598 32q-2 -11 -14 -21.5t-23 -10.5h-488q-11 0 -18.5 11.5t-6.5 20.5l60 343q3 11 16 21.5t21 10.5h488q8 0 17.5 -10.5t7.5 -21.5zM491 111l32 185h-308l-32 -185h308z" />
    <glyph glyph-name="FL0073h" unicode="p" horiz-adv-x="646" 
d="M42 0l72 407h526q11 0 16.5 -8.5t7 -21.5t0.5 -27t-3 -25l-6 -33q-15 -88 -42 -134.5t-62 -46.5h-368l-20 -111h-121zM215 296l-13 -75h320l13 75h-320z" />
    <glyph glyph-name="FL0072h" unicode="q" 
d="M499 -59l-40 59h-386q-11 0 -18.5 11.5t-6.5 20.5l60 343q3 11 16 21.5t21 10.5h488q8 0 17.5 -10.5t7.5 -21.5l-60 -342l49 -92h-148zM491 111l32 185h-308l-32 -185h308z" />
    <glyph glyph-name="FL007Bh" unicode="r" horiz-adv-x="646" 
d="M42 0l72 407h526q11 0 16.5 -8.5t7 -21.5t0.5 -27t-3 -25l-6 -33q-15 -88 -43 -130.5t-61 -45.5l53 -116h-130l-62 111h-229l-20 -111h-121zM215 296l-13 -75h320l13 75h-320z" />
    <glyph glyph-name="s" unicode="s" 
d="M62 111l-20 -111h517q11 0 24 12t15 23l33 185q1 4 -1.5 10.5t-6.5 12.5t-9.5 10.5t-9.5 4.5h-396l7 38h429l20 111h-510q-17 -3 -29.5 -13t-17.5 -26l-32 -181q-2 -10 9 -24.5t31 -14.5h382l-6 -37h-429z" />
    <glyph glyph-name="t" unicode="t" 
d="M308 296l-52 -296h121l52 296h215l20 111h-550l-20 -111h214z" />
    <glyph glyph-name="FL0075h" unicode="u" 
d="M598 32q-2 -11 -14 -21.5t-23 -10.5h-488q-11 0 -18.5 11.5t-6.5 20.5l66 375h121l-52 -296h308l52 296h121z" />
    <glyph glyph-name="FL0076h" unicode="v" horiz-adv-x="614" 
d="M329 126l200 281h132l-290 -407h-128l-146 407h132z" />
    <glyph glyph-name="FL0077h" unicode="w" horiz-adv-x="779" 
d="M73 0h633q11 0 23 10t14 22l66 375h-121l-52 -296h-166l52 296h-121l-52 -296h-166l52 296h-121l-66 -375q-2 -11 7 -21.5t18 -10.5z" />
    <glyph glyph-name="FL0078h" unicode="x" horiz-adv-x="616" 
d="M507 407l-149 -125l-105 125h-156l167 -204l-239 -203h157l148 124l104 -124h157l-168 203l240 204h-156z" />
    <glyph glyph-name="FL022Bh" unicode="y" 
d="M664 407h-121l-33 -185h-308l33 185h-121l-47 -264q-1 -9 7 -20.5t19 -11.5h183l-20 -111h121l20 111h184q11 0 22.5 10.5t13.5 21.5z" />
    <glyph glyph-name="FL007Ah" unicode="z" 
d="M612 112l-20 -112h-550l17 97l354 199h-319l20 111h550l-18 -98l-353 -197h319z" />
    <glyph glyph-name="FL0080h" unicode="{" horiz-adv-x="426" 
d="M68 148h82l-28 -159q-1 -9 6.5 -20.5t18.5 -11.5h229l20 111h-139l48 270h139l19 111h-229q-8 0 -21 -10.5t-15 -21.5l-29 -159h-82z" />
    <glyph glyph-name="FL007Eh" unicode="|" horiz-adv-x="205" 
d="M32 -55l91 516h121l-91 -516h-121z" />
    <glyph glyph-name="FL0081h" unicode="}" horiz-adv-x="426" 
d="M410 148h-82l-28 -159q-2 -9 -14 -20.5t-23 -11.5h-229l20 111h139l48 270h-139l19 111h229q8 0 17.5 -10.5t8.5 -21.5l-29 -159h82z" />
    <glyph glyph-name="FL0082h" unicode="~" horiz-adv-x="449" 
d="M384 147h-149l-24 59l-42 -59h-117l85 112h149l23 -59l44 59h116z" />
    <glyph glyph-name="FL007Fh" horiz-adv-x="252" 
 />
    <glyph glyph-name="space" unicode="&#xa0;" horiz-adv-x="378" 
 />
    <glyph glyph-name="FL00A1h" unicode="&#xa1;" horiz-adv-x="205" 
d="M162 0h-121l46 259h121zM113 407h121l-20 -111h-121z" />
    <glyph glyph-name="FL00A2h" unicode="&#xa2;" 
d="M248 -58h119l10 58h184q11 0 23 10.5t14 21.5l20 118h-121l-6 -39h-94l32 185h94l-7 -38h121l21 117q2 11 -7.5 21.5t-17.5 10.5h-184l9 55h-119l-9 -55h-185q-8 0 -21 -10.5t-16 -21.5l-60 -343q-1 -9 6.5 -20.5t18.5 -11.5h185zM215 296h95l-32 -185h-95z" />
    <glyph glyph-name="FL00A3h" unicode="&#xa3;" horiz-adv-x="672" 
d="M87 258l-19 -110h89q-2 -2 -2 -8l-2 -9l-3 -19l-1 -2h-88l-19 -110h588l20 111h-379l6 37h227l19 110h-227l7 38h80l20 111h-167q-11 0 -19.5 -8.5t-14.5 -21.5t-9.5 -27t-5.5 -25l-5 -31l-4 -20q-1 -5 -1 -9v-7h-90z" />
    <glyph glyph-name="FL00A4h" unicode="&#xa4;" horiz-adv-x="649" 
d="M523 407l-119 -100h-52l-83 100h-156l120 -146l-20 -116l-172 -145h157l120 101h48l84 -101h157l-120 143l21 119l171 145h-156zM298 176l10 56h114l-10 -56h-114z" />
    <glyph glyph-name="FL00A5h" unicode="&#xa5;" 
d="M107 104l-13 -75h167l-7 -41h-167l-14 -76h167l-10 -59h121l10 59h166l14 76h-166l7 41h166l13 75h-166l8 43h184q11 0 23 10.5t14 21.5l40 228h-121l-27 -149h-308l27 149h-121l-40 -228q-2 -9 6 -20.5t19 -11.5h183l-8 -43h-167z" />
    <glyph glyph-name="FL00A6h" unicode="&#xa6;" horiz-adv-x="205" 
d="M203 228l41 233h-121l-41 -233h121zM32 -55h121l41 233h-121z" />
    <glyph glyph-name="FL00A7h" unicode="&#xa7;" 
d="M52 54l-20 -111h517q11 0 24 12t15 23l59 334q1 4 -1.5 10.5t-6.5 12.5t-9 10.5t-9 4.5h-396l6 38h429l20 111h-510q-17 -3 -29.5 -13t-17.5 -26l-58 -330q-2 -10 9 -24.5t31 -14.5h382l-6 -37h-429zM205 239h308l-6 -36h-308z" />
    <glyph glyph-name="FL00A8h" unicode="&#xa8;" horiz-adv-x="374" 
d="M281 358h114l18 103h-114zM237 461h-114l-18 -103h114z" />
    <glyph glyph-name="FL00A9h" unicode="&#xa9;" horiz-adv-x="267" 
d="M219 482q-18 0 -36 -7.5t-33 -20t-25.5 -29t-13.5 -34.5q-4 -22 5 -45q7 -12 11.5 -18t15.5 -15q11 -5 22 -8.5t22 -3.5q27 0 50.5 15.5t34.5 29.5q8 13 14 24t8 21q4 20 -6 45q-4 10 -9.5 18t-18.5 17q-20 8 -29.5 9.5t-11.5 1.5zM217 468h3q13 0 25 -6.5t20.5 -16.5
t12.5 -23.5t2 -26.5l-1 -4q-3 -17 -17 -36t-34 -29t-38 -10h-2q-5 0 -16 2t-20 8q-16 12 -21 29q-7 16 -4 36q5 24 17 39q29 38 73 38zM230 378q-12 -23 -34 -23q-31 0 -25 36q7 39 39 39q18 0 22 -19l16 4q-1 28 -36 28q-48 0 -57 -52t39 -52q34 0 49 34z" />
    <glyph glyph-name="FL00AAh" unicode="&#xaa;" 
d="M523 296h-429l20 111h517q11 0 20 -10.5t7 -21.5l-66 -375h-518q-10 1 -19 11.5t-7 21.5l33 187q1 4 5.5 10.5t10.5 12.5t12 10.5t11 4.5h396zM490 109l7 39h-308l-7 -39h308z" />
    <glyph glyph-name="FL00ABh" unicode="&#xab;" horiz-adv-x="506" 
d="M202 407h131l-134 -204l62 -203h-131l-67 203zM420 407h131l-134 -204l62 -203h-131l-67 203z" />
    <glyph glyph-name="FL00ACh" unicode="&#xac;" horiz-adv-x="464" 
d="M87 258l-19 -110h270l-17 -97h110l36 207h-380z" />
    <glyph glyph-name="FL00B1h" unicode="&#xad;" horiz-adv-x="319" 
d="M68 148h235l19 110h-235z" />
    <glyph glyph-name="FL00AEh" unicode="&#xae;" horiz-adv-x="267" 
d="M219 482h-2q-17 0 -34.5 -7t-32 -19t-25.5 -29t-14 -36q-5 -26 4 -46q21 -44 72 -44h2q7 0 18.5 3t23.5 9t23 14t17 18q9 13 15 24.5t8 21.5q4 21 -5.5 44.5t-28.5 33.5q-17 13 -41 13zM216 467h3q13 0 25 -6t20.5 -16.5t12.5 -23.5t1 -27l1 -3l-4.5 -11.5t-14.5 -25.5
q-12 -17 -32 -27.5t-38 -10.5h-3q-8 0 -18.5 4.5t-19.5 10.5t-15 12.5t-5 10.5q-4 14 -4 23q0 10 1 13v1q3 19 18 38q29 38 72 38zM154 341h15l7 41h10q7 0 11 -4q4 -2 14 -21l4 -16h20l-9 19q-6 12 -8 16.5t-10 8.5q29 2 34 28q0 6 -4 14q-2 2 -4 3.5t-5 3.5q-5 5 -26 5
h-32zM178 394l6 31h33q9 -6 7 -14q-1 -8 -7 -12.5t-20 -4.5h-19z" />
    <glyph glyph-name="FL00AFh" unicode="&#xaf;" horiz-adv-x="580" 
d="M610 407l-20 -111h-496l20 111h496z" />
    <glyph glyph-name="FL00B3h" unicode="&#xb0;" horiz-adv-x="198" 
d="M151 395h36l5 31h-36zM219 359h-114l18 103h114z" />
    <glyph glyph-name="FL00B5h" unicode="&#xb1;" horiz-adv-x="464" 
d="M249 407l-15 -83h-135l-18 -102h135l-14 -83h110l14 83h135l18 102h-135l15 83h-110zM60 102l-18 -102h380l18 102h-380z" />
    <glyph glyph-name="FL00B6h" unicode="&#xb2;" horiz-adv-x="359" 
d="M373 318l-11 -63h-259q-5 0 -9.5 6t-3.5 11l17 97q1 4 7.5 11.5t11.5 7.5h178l2 10h-194l11 63h255q17 -3 17 -19l-17 -94q-1 -5 -8.5 -12t-18.5 -7h-171l-2 -11h195z" />
    <glyph glyph-name="FL00BCh" unicode="&#xb3;" horiz-adv-x="359" 
d="M87 255h259q5 0 11.5 6t7.5 11l30 170q0 16 -17 19h-255l-11 -63h194l-2 -10h-171l-10 -59h171l-2 -11h-194z" />
    <glyph glyph-name="FL00B4h" unicode="&#xb4;" horiz-adv-x="223" 
d="M90 358h106l81 103h-114z" />
    <glyph glyph-name="FL0030h" unicode="&#xb5;" 
d="M592 0h-550l72 407h550zM491 111l32 185h-308l-32 -185h308z" />
    <glyph glyph-name="mu" unicode="&#xb6;" horiz-adv-x="906" 
d="M917 214l-2 -1l-15 -22h-50l25 -40l1 -8v-4q-3 -15 -21 -22l-54 12l-18 -62q-8 -12 -23 -12q-14 0 -24.5 4.5t-24.5 13.5l-7 2l-64 -56l-29 -5l-29 30l-116 -51l-17 6l5 30l-144 -20l-16 10l12 25l-144 12l3 19l20 17l-88 16q-18 0 -13 21l39 26l-57 27l-3 25l65 9
l-25 39l8 30l65 -6q13 73 40 73h3l59 -19q26 27 43 40.5t35 20.5l46 -30l110 47l17 -17l-4 -15l1 -6l117 21l40 -4l-11 -31h133l10 -12q-4 -28 -27 -28l109 -29l-1 -7q-4 -23 -47 -28q70 -27 68 -41zM896 207l-3 9l-82 43l58 16h7l-5 10l-125 26l50 32h-151l18 36l-151 -20
l2 31l-12 4l-110 -47l-38 32l-71 -60q-4 -4 -15 -4q-21 0 -52 22l-24 -74l-69 7l-1 -23l30 -46l-72 -4l88 -46l-68 -27l132 -29l-51 -28l155 -6l-23 -35l145 23l14 -20l-10 -20l123 52l45 -32l68 63l69 -21l17 73l73 -11q2 5 3 5.5l1 0.5q2 15 -38 62zM794 244l-23 -68
l-17 2l17 70zM768 147l-18 -14l-10 11l14 10zM726 153q-24 0 -51 46l-8 -45l-17 -2l16 92l45 -61l15 65l16 -4zM633 154l-12 2q-7 22 -22 22q-11 0 -27 -22h-21q15 46 57 91q1 4 14 4q17 0 23 -30zM557 248l-22 -90l-25 -6l27 92zM490 149q-22 0 -52 45l-7 -43l-18 -4l16 93
l48 -58l15 62l14 -4zM413 214q-20 -65 -49 -65q-5 -1 -8.5 -1.5t-8.5 -0.5q-27 0 -31 15q9 59 50 82h12q33 0 35 -30zM323 247l-6 -23q-2 2 -3.5 2.5l-1.5 0.5h-5q-12 0 -29 -13q-16 -16 -21 -38q-3 -18 18 -18q5 0 9.5 0.5t9.5 1.5l-1 -15q-10 -2 -13 -3.5t-8 -1.5
q-29 0 -32 42q-1 1 0 5l1 7q8 43 82 53zM239 244l-22 -89l-22 -8l27 95zM622 199l-7 30l-24 -30h31zM390 200l2 11q-6 12 -18 12q-15 0 -33 -29l-1 -7q-4 -22 12 -22q12 0 28 8q6 8 7 13t3 14z" />
    <glyph glyph-name="FL00B7h" unicode="&#xb7;" horiz-adv-x="205" 
d="M189 147h-121l19 111h121z" />
    <glyph glyph-name="FL00B8h" unicode="&#xb8;" horiz-adv-x="181" 
d="M41 2l-8 -50h-75l-18 -98h173l26 148h-98z" />
    <glyph glyph-name="FL00B9h" unicode="&#xb9;" horiz-adv-x="189" 
d="M228 461h-105l-13 -75h24l-23 -131h81z" />
    <glyph glyph-name="FL00BAh" unicode="&#xba;" horiz-adv-x="359" 
d="M180 330l10 56h114l-10 -56h-114zM395 445q2 6 -3 11t-10 5h-244q-4 0 -10 -5t-8 -11l-30 -174q-1 -5 3 -10.5t9 -5.5h244q6 0 11.5 5t7.5 11z" />
    <glyph glyph-name="FL00BBh" unicode="&#xbb;" horiz-adv-x="506" 
d="M448 407h-131l62 -204l-134 -203h131l139 203zM230 407h-131l62 -204l-134 -203h131l139 203z" />
    <glyph glyph-name="FL00BEh" unicode="&#xbc;" horiz-adv-x="869" 
d="M878 207l-3 9l-82 43l58 16h7l-5 10l-125 26l50 32h-151l18 36l-151 -20l2 31l-12 4l-110 -47l-38 32l-71 -60q-4 -4 -15 -4q-21 0 -52 22l-24 -74l-69 7l-1 -23l30 -46l-72 -4l88 -46l-68 -27l132 -29l-51 -28l155 -6l-23 -35l145 23l14 -20l-10 -20l123 52l45 -32
l68 63l69 -21l17 73l73 -11q2 5 3 5.5l1 0.5q2 15 -38 62zM776 244l-23 -68l-17 2l17 70zM750 147l-18 -14l-10 11l14 10zM708 153q-24 0 -51 46l-8 -45l-17 -2l16 92l45 -61l15 65l16 -4zM615 154l-12 2q-7 22 -22 22q-11 0 -27 -22h-21q15 46 57 91q1 4 14 4q17 0 23 -30z
M539 248l-22 -90l-25 -6l27 92zM472 149q-22 0 -52 45l-7 -43l-18 -4l16 93l48 -58l15 62l14 -4zM395 214q-20 -65 -49 -65q-5 -1 -8.5 -1.5t-8.5 -0.5q-27 0 -31 15q9 59 50 82h12q33 0 35 -30zM305 247l-6 -23q-2 2 -3.5 2.5l-1.5 0.5h-5q-12 0 -29 -13q-16 -16 -21 -38
q-3 -18 18 -18q5 0 9.5 0.5t9.5 1.5l-1 -15q-10 -2 -13 -3.5t-8 -1.5q-29 0 -32 42q-1 1 0 5l1 7q8 43 82 53zM221 244l-22 -89l-22 -8l27 95zM604 199l-7 30l-24 -30h31zM372 200l2 11q-6 12 -18 12q-15 0 -33 -29l-1 -7q-4 -22 12 -22q12 0 28 8q6 8 7 13t3 14z" />
    <glyph glyph-name="FL00BDh" unicode="&#xbd;" horiz-adv-x="562" 
d="M456 407h-130l-110 -157l32 181h-105l-13 -75h24l-23 -131h68l-157 -225h130l98 140l-4 -22h194l-2 -10h-178q-5 0 -11.5 -7.5t-7.5 -11.5l-17 -97q-2 -5 3 -11t10 -6h259l11 63h-195l2 11h171q11 0 18.5 7t8.5 12l17 94q0 16 -17 19h-234z" />
    <glyph glyph-name="FL0FEDh" unicode="&#xbe;" horiz-adv-x="666" 
d="M667 244l-23 -68l-17 2l17 70zM641 147l-18 -14l-10 11l14 10zM599 153q-24 0 -51 46l-8 -45l-17 -2l16 92l45 -61l15 65l16 -4zM506 154l-12 2q-7 22 -22 22q-11 0 -27 -22h-21q15 46 57 91q1 4 14 4q17 0 23 -30zM430 248l-22 -90l-25 -6l27 92zM363 149q-22 0 -52 45
l-7 -43l-18 -4l16 93l48 -58l15 62l14 -4zM286 214q-20 -65 -49 -65q-5 -1 -8.5 -1.5t-8.5 -0.5q-27 0 -31 15q9 59 50 82h12q33 0 35 -30zM196 247l-6 -23q-2 2 -3.5 2.5l-1.5 0.5h-5q-12 0 -29 -13q-16 -16 -21 -38q-3 -18 18 -18q5 0 9.5 0.5t9.5 1.5l-1 -15
q-10 -2 -13 -3.5t-8 -1.5q-29 0 -32 42q-1 1 0 5l1 7q8 43 82 53zM112 244l-22 -89l-22 -8l27 95zM495 199l-7 30l-24 -30h31zM263 200l2 11q-6 12 -18 12q-15 0 -33 -29l-1 -7q-4 -22 12 -22q12 0 28 8q6 8 7 13t3 14z" />
    <glyph glyph-name="FL00BFh" unicode="&#xbf;" 
d="M534 187q-1 -4 -5.5 -10.5t-10.5 -12.5t-13 -10.5t-11 -4.5h-305l-6 -38h429l-20 -111h-510q-15 3 -24.5 13t-8.5 26l32 181q1 5 5.5 11.5t12 12.5t17 10.5t19.5 4.5h412zM452 407h121l-20 -111h-121z" />
    <glyph glyph-name="FL00C0h" unicode="&#xc0;" 
d="M461 444h-106l-45 103h114zM523 296h-429l20 111h517q11 0 20 -10.5t7 -21.5l-60 -343q-4 -14 -17.5 -23t-21.5 -9h-485q-10 1 -19 11.5t-7 21.5l33 187q1 4 5.5 10.5t10.5 12.5t12 10.5t11 4.5h396zM490 109l7 39h-308l-7 -39h308z" />
    <glyph glyph-name="FL00C1h" unicode="&#xc1;" 
d="M402 547h114l-81 -103h-106zM523 296h-429l20 111h517q11 0 20 -10.5t7 -21.5l-60 -343q-4 -14 -17.5 -23t-21.5 -9h-485q-10 1 -19 11.5t-7 21.5l33 187q1 4 5.5 10.5t10.5 12.5t12 10.5t11 4.5h396zM490 109l7 39h-308l-7 -39h308z" />
    <glyph glyph-name="FL00C2h" unicode="&#xc2;" 
d="M250 444l81 103h164l45 -103h-113l-22 56l-42 -56h-113zM523 296h-429l20 111h517q11 0 20 -10.5t7 -21.5l-60 -343q-4 -14 -17.5 -23t-21.5 -9h-485q-10 1 -19 11.5t-7 21.5l33 187q1 4 5.5 10.5t10.5 12.5t12 10.5t11 4.5h396zM490 109l7 39h-308l-7 -39h308z" />
    <glyph glyph-name="FL00C3h" unicode="&#xc3;" 
d="M526 444h-144l-23 54l-41 -54h-113l81 103h144l24 -54l40 54h113zM523 296h-429l20 111h517q11 0 20 -10.5t7 -21.5l-60 -343q-4 -14 -17.5 -23t-21.5 -9h-485q-10 1 -19 11.5t-7 21.5l33 187q1 4 5.5 10.5t10.5 12.5t12 10.5t11 4.5h396zM490 109l7 39h-308l-7 -39h308z
" />
    <glyph glyph-name="FL00C4h" unicode="&#xc4;" 
d="M364 444h-114l18 103h114zM444 547h114l-18 -103h-114zM523 296h-429l20 111h517q11 0 20 -10.5t7 -21.5l-60 -343q-4 -14 -17.5 -23t-21.5 -9h-485q-10 1 -19 11.5t-7 21.5l33 187q1 4 5.5 10.5t10.5 12.5t12 10.5t11 4.5h396zM490 109l7 39h-308l-7 -39h308z" />
    <glyph glyph-name="FL00C5h" unicode="&#xc5;" 
d="M523 296h-429l20 111h517q11 0 20 -10.5t7 -21.5l-60 -343q-4 -14 -17.5 -23t-21.5 -9h-485q-10 1 -19 11.5t-7 21.5l33 187q1 4 5.5 10.5t10.5 12.5t12 10.5t11 4.5h396zM490 109l7 39h-308l-7 -39h308zM383 480h36l5 31h-36zM451 444h-114l18 103h114z" />
    <glyph glyph-name="FL00C6h" unicode="&#xc6;" horiz-adv-x="1066" 
d="M523 296l-7 -38h-396q-5 0 -11 -4.5t-12 -10.5t-10.5 -12.5t-5.5 -10.5l-33 -187q-2 -11 7 -21.5t19 -11.5h950l20 111h-429l6 38h396q4 0 11 4.5t13 10.5t10.5 12.5t5.5 10.5l33 187q2 11 -7.5 21.5t-19.5 11.5h-949l-20 -111h429zM490 109h-308l7 39h308zM647 297h308
l-6 -38h-308z" />
    <glyph glyph-name="FL00C7h" unicode="&#xc7;" 
d="M618 150h-121l-6 -39h-308l32 185h308l-7 -38h121l21 117q2 11 -7.5 21.5t-17.5 10.5h-488q-8 0 -21 -10.5t-16 -21.5l-60 -343q-1 -9 6.5 -20.5t18.5 -11.5h217l-8 -48h-75l-18 -98h173l26 146h173q11 0 23 10.5t14 21.5z" />
    <glyph glyph-name="FL00C8h" unicode="&#xc8;" 
d="M461 444h-106l-45 103h114zM585 149h-396l-6 -38h429l-20 -111h-519q-8 0 -17.5 11t-7.5 21l60 342q2 11 14.5 22t23.5 11h485q10 -1 19.5 -11.5t7.5 -21.5l-33 -187q-1 -4 -5.5 -10.5t-10.5 -12.5t-13 -10.5t-11 -4.5zM215 297l-6 -38h308l6 38h-308z" />
    <glyph glyph-name="FL00C9h" unicode="&#xc9;" 
d="M402 547h114l-81 -103h-106zM585 149h-396l-6 -38h429l-20 -111h-519q-8 0 -17.5 11t-7.5 21l60 342q2 11 14.5 22t23.5 11h485q10 -1 19.5 -11.5t7.5 -21.5l-33 -187q-1 -4 -5.5 -10.5t-10.5 -12.5t-13 -10.5t-11 -4.5zM215 297l-6 -38h308l6 38h-308z" />
    <glyph glyph-name="FL00CAh" unicode="&#xca;" 
d="M250 444l81 103h164l45 -103h-113l-22 56l-42 -56h-113zM585 149h-396l-6 -38h429l-20 -111h-519q-8 0 -17.5 11t-7.5 21l60 342q2 11 14.5 22t23.5 11h485q10 -1 19.5 -11.5t7.5 -21.5l-33 -187q-1 -4 -5.5 -10.5t-10.5 -12.5t-13 -10.5t-11 -4.5zM215 297l-6 -38h308
l6 38h-308z" />
    <glyph glyph-name="FL00CBh" unicode="&#xcb;" 
d="M364 444h-114l18 103h114zM444 547h114l-18 -103h-114zM585 149h-396l-6 -38h429l-20 -111h-519q-8 0 -17.5 11t-7.5 21l60 342q2 11 14.5 22t23.5 11h485q10 -1 19.5 -11.5t7.5 -21.5l-33 -187q-1 -4 -5.5 -10.5t-10.5 -12.5t-13 -10.5t-11 -4.5zM215 297l-6 -38h308
l6 38h-308z" />
    <glyph glyph-name="FL00CCh" unicode="&#xcc;" 
d="M424 547h-114l45 -103h106zM612 111h-215l32 185h215l20 111h-550l-20 -111h214l-32 -185h-214l-20 -111h550z" />
    <glyph glyph-name="FL00CDh" unicode="&#xcd;" 
d="M329 444h106l81 103h-114zM612 111h-215l32 185h215l20 111h-550l-20 -111h214l-32 -185h-214l-20 -111h550z" />
    <glyph glyph-name="FL00CEh" unicode="&#xce;" 
d="M363 444l42 56l22 -56h113l-45 103h-164l-81 -103h113zM612 111h-215l32 185h215l20 111h-550l-20 -111h214l-32 -185h-214l-20 -111h550z" />
    <glyph glyph-name="FL00CFh" unicode="&#xcf;" 
d="M426 444h114l18 103h-114zM382 547h-114l-18 -103h114zM612 111h-215l32 185h215l20 111h-550l-20 -111h214l-32 -185h-214l-20 -111h550z" />
    <glyph glyph-name="FL00D0h" unicode="&#xd0;" horiz-adv-x="728" 
d="M68 148h94l-26 -148h508q6 0 14 4.5t15.5 11t13 13.5t6.5 13l57 323q1 6 -2.5 13t-9 13.5t-12 11t-10.5 4.5h-508l-27 -149h-94zM277 111l6 37h165l19 110h-165l7 38h308l-32 -185h-308z" />
    <glyph glyph-name="FL00D1h" unicode="&#xd1;" horiz-adv-x="649" 
d="M114 407h119l279 -253l45 253h122l-72 -407h-118l-281 253l-45 -253h-121zM534 444h-144l-23 54l-41 -54h-113l81 103h144l24 -54l40 54h113z" />
    <glyph glyph-name="FL00F3h" unicode="&#xd2;" 
d="M598 32q-2 -11 -14 -21.5t-23 -10.5h-488q-11 0 -18.5 11.5t-6.5 20.5l60 343q3 11 16 21.5t21 10.5h488q8 0 17.5 -10.5t7.5 -21.5zM491 111l32 185h-308l-32 -185h308zM461 444h-106l-45 103h114z" />
    <glyph glyph-name="FL00F2h" unicode="&#xd3;" 
d="M598 32q-2 -11 -14 -21.5t-23 -10.5h-488q-11 0 -18.5 11.5t-6.5 20.5l60 343q3 11 16 21.5t21 10.5h488q8 0 17.5 -10.5t7.5 -21.5zM491 111l32 185h-308l-32 -185h308zM402 547h114l-81 -103h-106z" />
    <glyph glyph-name="FL00D4h" unicode="&#xd4;" 
d="M250 444l81 103h164l45 -103h-113l-22 56l-42 -56h-113zM523 296h-308l-32 -185h308zM598 32q-2 -11 -14 -21.5t-23 -10.5h-488q-11 0 -18.5 11.5t-6.5 20.5l60 343q3 11 16 21.5t21 10.5h488q8 0 17.5 -10.5t7.5 -21.5z" />
    <glyph glyph-name="FL00D5h" unicode="&#xd5;" 
d="M526 444h-144l-23 54l-41 -54h-113l81 103h144l24 -54l40 54h113zM215 296l-32 -185h308l32 185h-308zM598 32q-2 -11 -14 -21.5t-23 -10.5h-488q-11 0 -18.5 11.5t-6.5 20.5l60 343q3 11 16 21.5t21 10.5h488q8 0 17.5 -10.5t7.5 -21.5z" />
    <glyph glyph-name="FL00D6h" unicode="&#xd6;" 
d="M598 32q-2 -11 -14 -21.5t-23 -10.5h-488q-11 0 -18.5 11.5t-6.5 20.5l60 343q3 11 16 21.5t21 10.5h488q8 0 17.5 -10.5t7.5 -21.5zM491 111l32 185h-308l-32 -185h308zM364 444h-114l18 103h114zM444 547h114l-18 -103h-114z" />
    <glyph glyph-name="FL00D7h" unicode="&#xd7;" horiz-adv-x="346" 
d="M304 349l-81 -68l-57 68l-91 -77l56 -69l-80 -69l63 -77l81 68l57 -68l91 77l-56 69l80 69z" />
    <glyph glyph-name="FL00D8h" unicode="&#xd8;" 
d="M598 32l60 343q2 11 -7.5 21.5t-17.5 10.5h-488q-8 0 -21 -10.5t-16 -21.5l-60 -343q-1 -9 6.5 -20.5t18.5 -11.5h488q11 0 23 10.5t14 21.5zM353 296l-128 -185h-42l32 185h138zM491 111h-137l128 185h41z" />
    <glyph glyph-name="FL00D9h" unicode="&#xd9;" 
d="M461 444h-106l-45 103h114zM598 32q-2 -11 -14 -21.5t-23 -10.5h-488q-11 0 -18.5 11.5t-6.5 20.5l66 375h121l-52 -296h308l52 296h121z" />
    <glyph glyph-name="FL00DAh" unicode="&#xda;" 
d="M402 547h114l-81 -103h-106zM598 32q-2 -11 -14 -21.5t-23 -10.5h-488q-11 0 -18.5 11.5t-6.5 20.5l66 375h121l-52 -296h308l52 296h121z" />
    <glyph glyph-name="FL00DBh" unicode="&#xdb;" 
d="M250 444l81 103h164l45 -103h-113l-22 56l-42 -56h-113zM598 32q-2 -11 -14 -21.5t-23 -10.5h-488q-11 0 -18.5 11.5t-6.5 20.5l66 375h121l-52 -296h308l52 296h121z" />
    <glyph glyph-name="FL00DCh" unicode="&#xdc;" 
d="M364 444h-114l18 103h114zM444 547h114l-18 -103h-114zM598 32q-2 -11 -14 -21.5t-23 -10.5h-488q-11 0 -18.5 11.5t-6.5 20.5l66 375h121l-52 -296h308l52 296h121z" />
    <glyph glyph-name="FL00DDh" unicode="&#xdd;" 
d="M42 0l20 111h429l6 37h-394q-9 3 -19 12t-10 23l40 224h121l-27 -149h308l27 149h121l-66 -372q-2 -11 -15 -23t-24 -12h-517zM402 547h114l-81 -103h-106z" />
    <glyph glyph-name="FL00DEh" unicode="&#xde;" horiz-adv-x="646" 
d="M114 407l-72 -407h121l10 56h368q31 0 60 47t45 135l5 31q2 11 3 25t-0.5 27t-7 21.5t-16.5 8.5h-405l10 56h-121zM205 240h320l-13 -74h-320z" />
    <glyph glyph-name="FL00DFh" unicode="&#xdf;" 
d="M17 -139h121l77 435h308l-7 -38h-244l-19 -110h244l-6 -37h-244l-20 -111h331q11 0 19.5 8.5t14 21.5t9 27t5.5 25l6 30q4 22 4.5 36t-1 23.5t-5.5 16.5t-10 15q9 9 15.5 17t11.5 17.5t9 22.5t8 34l5 31q2 11 3.5 25t0 27t-6.5 21.5t-16 8.5h-485q-8 0 -21 -10.5
t-16 -21.5z" />
    <glyph glyph-name="FL00E0h" unicode="&#xe0;" 
d="M461 444h-106l-45 103h114zM658 375l-66 -375h-121l20 111h-308l-20 -111h-121l66 375q2 9 14 20.5t23 11.5h488q11 0 19 -10.5t6 -21.5zM202 221h308l13 75h-308z" />
    <glyph glyph-name="FL00E1h" unicode="&#xe1;" 
d="M402 547h114l-81 -103h-106zM658 375l-66 -375h-121l20 111h-308l-20 -111h-121l66 375q2 9 14 20.5t23 11.5h488q11 0 19 -10.5t6 -21.5zM202 221h308l13 75h-308z" />
    <glyph glyph-name="FL00E2h" unicode="&#xe2;" 
d="M250 444l81 103h164l45 -103h-113l-22 56l-42 -56h-113zM658 375l-66 -375h-121l20 111h-308l-20 -111h-121l66 375q2 9 14 20.5t23 11.5h488q11 0 19 -10.5t6 -21.5zM202 221h308l13 75h-308z" />
    <glyph glyph-name="FL00E3h" unicode="&#xe3;" 
d="M526 444h-144l-23 54l-41 -54h-113l81 103h144l24 -54l40 54h113zM658 375l-66 -375h-121l20 111h-308l-20 -111h-121l66 375q2 9 14 20.5t23 11.5h488q11 0 19 -10.5t6 -21.5zM202 221h308l13 75h-308z" />
    <glyph glyph-name="FL00E4h" unicode="&#xe4;" 
d="M364 444h-114l18 103h114zM444 547h114l-18 -103h-114zM658 375l-66 -375h-121l20 111h-308l-20 -111h-121l66 375q2 9 14 20.5t23 11.5h488q11 0 19 -10.5t6 -21.5zM202 221h308l13 75h-308z" />
    <glyph glyph-name="FL00E5h" unicode="&#xe5;" 
d="M385 480h36l5 31h-36zM592 0h-121l20 111h-308l-20 -111h-121l66 375q2 9 14 20.5t23 11.5h488q11 0 19 -10.5t6 -21.5zM202 221h308l13 75h-308zM453 444h-114l18 103h114z" />
    <glyph glyph-name="FL00E6h" unicode="&#xe6;" horiz-adv-x="1064" 
d="M1094 407h-949q-11 0 -23 -11.5t-14 -20.5l-66 -375h121l20 111h308l-20 -111h551l20 111h-429l6 37h402l19 110h-402l7 38h429zM202 221l13 75h308l-13 -75h-308z" />
    <glyph glyph-name="FL00E7h" unicode="&#xe7;" 
d="M618 150h-121l-6 -39h-308l32 185h308l-7 -38h121l21 117q2 11 -7.5 21.5t-17.5 10.5h-488q-8 0 -21 -10.5t-16 -21.5l-60 -343q-1 -9 6.5 -20.5t18.5 -11.5h217l-8 -48h-75l-18 -98h173l26 146h173q11 0 23 10.5t14 21.5z" />
    <glyph glyph-name="FL00E8h" unicode="&#xe8;" 
d="M424 547h-114l45 -103h106zM114 407l-72 -407h550l20 111h-429l6 37h402l19 110h-402l7 38h429l20 111h-550z" />
    <glyph glyph-name="FL00E9h" unicode="&#xe9;" 
d="M329 444h106l81 103h-114zM114 407l-72 -407h550l20 111h-429l6 37h402l19 110h-402l7 38h429l20 111h-550z" />
    <glyph glyph-name="FL00EAh" unicode="&#xea;" 
d="M363 444l42 56l22 -56h113l-45 103h-164l-81 -103h113zM114 407l-72 -407h550l20 111h-429l6 37h402l19 110h-402l7 38h429l20 111h-550z" />
    <glyph glyph-name="FL00EBh" unicode="&#xeb;" 
d="M426 444h114l18 103h-114zM382 547h-114l-18 -103h114zM114 407l-72 -407h550l20 111h-429l6 37h402l19 110h-402l7 38h429l20 111h-550z" />
    <glyph glyph-name="FL00EDh" unicode="&#xec;" horiz-adv-x="206" 
d="M265 444h-106l-45 103h114zM164 0h-122l72 407h122z" />
    <glyph glyph-name="FL00ECh" unicode="&#xed;" horiz-adv-x="206" 
d="M114 407h122l-72 -407h-122zM170 547h114l-81 -103h-106z" />
    <glyph glyph-name="FL00EEh" unicode="&#xee;" horiz-adv-x="206" 
d="M42 0h122l72 407h-122zM150 444l42 56l22 -56h113l-45 103h-164l-81 -103h113z" />
    <glyph glyph-name="FL00EFh" unicode="&#xef;" horiz-adv-x="206" 
d="M42 0h122l72 407h-122zM213 444h114l18 103h-114zM169 547h-114l-18 -103h114z" />
    <glyph glyph-name="FL00F0h" unicode="&#xf0;" 
d="M451 462h-119l-9 -55h-209l-20 -111h429l-7 -38h-396q-5 0 -11 -4.5t-12 -10.5t-10.5 -12.5t-5.5 -10.5l-33 -187q-2 -11 7 -21.5t19 -11.5h485q8 0 21.5 9t17.5 23l60 343q2 11 -7 21.5t-20 10.5h-189zM182 109l7 39h308l-7 -39h-308z" />
    <glyph glyph-name="FL00F1h" unicode="&#xf1;" horiz-adv-x="649" 
d="M114 407h119l279 -253l45 253h122l-72 -407h-118l-281 253l-45 -253h-121zM534 444h-144l-23 54l-41 -54h-113l81 103h144l24 -54l40 54h113z" />
    <glyph glyph-name="FL00F5h" unicode="&#xf2;" 
d="M598 32q-2 -11 -14 -21.5t-23 -10.5h-488q-11 0 -18.5 11.5t-6.5 20.5l60 343q3 11 16 21.5t21 10.5h488q8 0 17.5 -10.5t7.5 -21.5zM491 111l32 185h-308l-32 -185h308zM461 444h-106l-45 103h114z" />
    <glyph glyph-name="FL00F7h" unicode="&#xf3;" 
d="M598 32q-2 -11 -14 -21.5t-23 -10.5h-488q-11 0 -18.5 11.5t-6.5 20.5l60 343q3 11 16 21.5t21 10.5h488q8 0 17.5 -10.5t7.5 -21.5zM491 111l32 185h-308l-32 -185h308zM402 547h114l-81 -103h-106z" />
    <glyph glyph-name="FL00F4h" unicode="&#xf4;" 
d="M250 444l81 103h164l45 -103h-113l-22 56l-42 -56h-113zM523 296h-308l-32 -185h308zM598 32q-2 -11 -14 -21.5t-23 -10.5h-488q-11 0 -18.5 11.5t-6.5 20.5l60 343q3 11 16 21.5t21 10.5h488q8 0 17.5 -10.5t7.5 -21.5z" />
    <glyph glyph-name="FL00F8h" unicode="&#xf5;" 
d="M526 444h-144l-23 54l-41 -54h-113l81 103h144l24 -54l40 54h113zM215 296l-32 -185h308l32 185h-308zM598 32q-2 -11 -14 -21.5t-23 -10.5h-488q-11 0 -18.5 11.5t-6.5 20.5l60 343q3 11 16 21.5t21 10.5h488q8 0 17.5 -10.5t7.5 -21.5z" />
    <glyph glyph-name="FL00F6h" unicode="&#xf6;" 
d="M598 32q-2 -11 -14 -21.5t-23 -10.5h-488q-11 0 -18.5 11.5t-6.5 20.5l60 343q3 11 16 21.5t21 10.5h488q8 0 17.5 -10.5t7.5 -21.5zM491 111l32 185h-308l-32 -185h308zM364 444h-114l18 103h114zM444 547h114l-18 -103h-114z" />
    <glyph glyph-name="FL0101h" unicode="&#xf7;" horiz-adv-x="474" 
d="M477 258l-19 -110h-390l19 110h390zM345 290h-114l18 103h114zM200 116h114l-18 -103h-114z" />
    <glyph glyph-name="FL00FEh" unicode="&#xf8;" 
d="M48 32l60 343q2 11 15.5 21.5t21.5 10.5h488q8 0 17.5 -10.5t7.5 -21.5l-60 -343q-2 -9 -14 -20.5t-23 -11.5h-488q-11 0 -19 10.5t-6 21.5zM385 296l64 -185h42l32 185h-138zM183 111h137l-64 185h-41z" />
    <glyph glyph-name="FL00F9h" unicode="&#xf9;" 
d="M461 444h-106l-45 103h114zM598 32q-2 -11 -14 -21.5t-23 -10.5h-488q-11 0 -18.5 11.5t-6.5 20.5l66 375h121l-52 -296h308l52 296h121z" />
    <glyph glyph-name="FL00FAh" unicode="&#xfa;" 
d="M402 547h114l-81 -103h-106zM598 32q-2 -11 -14 -21.5t-23 -10.5h-488q-11 0 -18.5 11.5t-6.5 20.5l66 375h121l-52 -296h308l52 296h121z" />
    <glyph glyph-name="FL00FBh" unicode="&#xfb;" 
d="M250 444l81 103h164l45 -103h-113l-22 56l-42 -56h-113zM598 32q-2 -11 -14 -21.5t-23 -10.5h-488q-11 0 -18.5 11.5t-6.5 20.5l66 375h121l-52 -296h308l52 296h121z" />
    <glyph glyph-name="FL00FCh" unicode="&#xfc;" 
d="M364 444h-114l18 103h114zM444 547h114l-18 -103h-114zM598 32q-2 -11 -14 -21.5t-23 -10.5h-488q-11 0 -18.5 11.5t-6.5 20.5l66 375h121l-52 -296h308l52 296h121z" />
    <glyph glyph-name="FL00FDh" unicode="&#xfd;" 
d="M329 444h106l81 103h-114zM664 407h-121l-33 -185h-308l33 185h-121l-47 -264q-1 -9 7 -20.5t19 -11.5h183l-20 -111h121l20 111h184q11 0 22.5 10.5t13.5 21.5z" />
    <glyph glyph-name="FL0100h" unicode="&#xfe;" horiz-adv-x="646" 
d="M114 407l-72 -407h121l10 56h368q31 0 60 47t45 135l5 31q2 11 3 25t-0.5 27t-7 21.5t-16.5 8.5h-405l10 56h-121zM205 240h320l-13 -74h-320z" />
    <glyph glyph-name="FL00FFh" unicode="&#xff;" 
d="M426 444h114l18 103h-114zM382 547h-114l-18 -103h114zM664 407h-121l-33 -185h-308l33 185h-121l-47 -264q-1 -9 7 -20.5t19 -11.5h183l-20 -111h121l20 111h184q11 0 22.5 10.5t13.5 21.5z" />
    <glyph glyph-name="FL0153h" unicode="&#x152;" horiz-adv-x="1065" 
d="M1095 407h-950q-8 0 -21 -10.5t-16 -21.5l-60 -343q-1 -9 6.5 -20.5t18.5 -11.5h950l20 111h-429l6 37h402l19 110h-402l7 38h429zM491 111h-308l32 185h308z" />
    <glyph glyph-name="FL0152h" unicode="&#x153;" horiz-adv-x="1065" 
d="M1095 407h-950q-8 0 -21 -10.5t-16 -21.5l-60 -343q-1 -9 6.5 -20.5t18.5 -11.5h950l20 111h-429l6 37h402l19 110h-402l7 38h429zM491 111h-308l32 185h308z" />
    <glyph glyph-name="FL0160h" unicode="&#x160;" 
d="M491 111l6 37h-382q-20 0 -31 14.5t-9 24.5l32 181q5 16 17.5 26t29.5 13h510l-20 -111h-429l-7 -38h396q4 0 9.5 -4.5t9.5 -10.5t6.5 -12.5t1.5 -10.5l-33 -185q-2 -11 -15 -23t-24 -12h-517l20 111h429zM558 547l-81 -103h-164l-45 103h113l23 -56l41 56h113z" />
    <glyph glyph-name="FL0161h" unicode="&#x161;" 
d="M491 111l6 37h-382q-20 0 -31 14.5t-9 24.5l32 181q5 16 17.5 26t29.5 13h510l-20 -111h-429l-7 -38h396q4 0 9.5 -4.5t9.5 -10.5t6.5 -12.5t1.5 -10.5l-33 -185q-2 -11 -15 -23t-24 -12h-517l20 111h429zM558 547l-81 -103h-164l-45 103h113l23 -56l41 56h113z" />
    <glyph glyph-name="FL0178h" unicode="&#x178;" 
d="M364 444h-114l18 103h114zM444 547h114l-18 -103h-114zM42 0l20 111h429l6 37h-394q-9 3 -19 12t-10 23l40 224h121l-27 -149h308l27 149h121l-66 -372q-2 -11 -15 -23t-24 -12h-517z" />
    <glyph glyph-name="FL017Dh" unicode="&#x17d;" 
d="M612 112l-20 -112h-550l17 98l354 198h-319l20 111h550l-18 -99l-353 -196h319zM558 547l-81 -103h-164l-45 103h113l23 -56l41 56h113z" />
    <glyph glyph-name="FL017Eh" unicode="&#x17e;" 
d="M612 112l-20 -112h-550l17 98l354 198h-319l20 111h550l-18 -99l-353 -196h319zM558 547l-81 -103h-164l-45 103h113l23 -56l41 56h113z" />
    <glyph glyph-name="k" unicode="&#x192;" horiz-adv-x="685" 
d="M114 407l-72 -407h121l21 121l255 -121h219l-379 202l451 205h-220l-298 -129l23 129h-121z" />
    <glyph glyph-name="FL02C6h" unicode="&#x2c6;" horiz-adv-x="344" 
d="M203 358l42 56l22 -56h113l-45 103h-164l-81 -103h113z" />
    <glyph glyph-name="FL02DCh" unicode="&#x2dc;" horiz-adv-x="438" 
d="M411 359h-144l-23 54l-41 -54h-113l81 103h144l24 -54l40 54h113z" />
    <glyph glyph-name="FL2013h" unicode="&#x2013;" horiz-adv-x="388" 
d="M68 148h304l19 110h-304z" />
    <glyph glyph-name="FL2014h" unicode="&#x2014;" horiz-adv-x="464" 
d="M87 258l-19 -110h380l19 110h-380z" />
    <glyph glyph-name="FL2018h" unicode="&#x2018;" horiz-adv-x="205" 
d="M104 357l55 50h75l-29 -161h-121z" />
    <glyph glyph-name="FL2019h" unicode="&#x2019;" horiz-adv-x="205" 
d="M215 296l-55 -50h-75l29 161h121z" />
    <glyph glyph-name="FL201Ah" unicode="&#x201a;" horiz-adv-x="205" 
d="M163 0l-55 -50h-75l29 161h121z" />
    <glyph glyph-name="FL201Ch" unicode="&#x201c;" horiz-adv-x="352" 
d="M105 357l52 50h70l-29 -161h-113zM260 357l52 50h70l-29 -161h-113z" />
    <glyph glyph-name="FL201Dh" unicode="&#x201d;" horiz-adv-x="352" 
d="M362 296l-52 -50h-70l29 161h113zM207 296l-52 -50h-70l29 161h113z" />
    <glyph glyph-name="FL201Eh" unicode="&#x201e;" horiz-adv-x="355" 
d="M313 0l-55 -50h-75l29 161h121zM163 0l-55 -50h-75l29 161h121z" />
    <glyph glyph-name="FL2020h" unicode="&#x2020;" horiz-adv-x="467" 
d="M485 338h-131l12 69h-121l-12 -69h-131l-20 -110h131l-40 -228h121l40 228h131z" />
    <glyph glyph-name="FL2021h" unicode="&#x2021;" horiz-adv-x="467" 
d="M485 338h-131l12 69h-121l-12 -69h-131l-20 -110h131l-9 -50h-131l-19 -110h131l-12 -68h121l12 68h131l19 110h-131l9 50h131z" />
    <glyph glyph-name="FL2022h" unicode="&#x2022;" 
d="M598 32q-2 -11 -14 -21.5t-23 -10.5h-488q-11 0 -18.5 11.5t-6.5 20.5l60 343q3 11 16 21.5t21 10.5h488q8 0 17.5 -10.5t7.5 -21.5z" />
    <glyph glyph-name="FL2026h" unicode="&#x2026;" horiz-adv-x="591" 
d="M549 0h-121l20 111h121zM356 0h-121l20 111h121zM163 0h-121l20 111h121z" />
    <glyph glyph-name="FL00B0h" unicode="&#x2030;" horiz-adv-x="989" 
d="M761 50l10 56h114l-10 -56h-114zM976 165q2 6 -3 11t-10 5h-244q-4 0 -10 -5t-8 -11l-31 -174q-1 -5 3.5 -10.5t9.5 -5.5h244q6 0 11.5 5t6.5 11zM653 -9l31 174q2 6 -3 11t-10 5h-237l158 226h-130l-98 -140l26 148q2 6 -3 11t-10 5h-244q-4 0 -10 -5t-8 -11l-31 -174
q-1 -5 3.5 -10.5t9.5 -5.5h238l-157 -225h130l96 138l-26 -147q-1 -5 3.5 -10.5t9.5 -5.5h244q6 0 11.5 5t6.5 11zM289 300h-114l10 56h114zM583 50h-114l10 56h114z" />
    <glyph glyph-name="FL2039h" unicode="&#x2039;" horiz-adv-x="288" 
d="M202 407h131l-134 -204l62 -203h-131l-67 203z" />
    <glyph glyph-name="FL203Ah" unicode="&#x203a;" horiz-adv-x="288" 
d="M230 407h-131l62 -204l-134 -203h131l139 203z" />
    <glyph glyph-name="FL20ACh" unicode="&#x20ac;" horiz-adv-x="738" 
d="M90 275l-10 -59h104l-4 -23h-104l-11 -60h104l-17 -101q-1 -9 6.5 -20.5t18.5 -11.5h488q11 0 23 10.5t14 21.5l20 118h-121l-7 -40h-308l4 23h220l11 60h-220l4 23h220l10 59h-220l4 22h308l-7 -39h121l21 117q2 11 -7.5 21.5t-17.5 10.5h-488q-8 0 -21 -10.5t-16 -21.5
l-18 -100h-104z" />
    <glyph glyph-name="FL2122h" unicode="&#x2122;" horiz-adv-x="345" 
d="M169 461h-46l4 21h113l-4 -21h-46l-20 -113h-21zM261 478q1 0 2.5 0.5t3.5 0.5q7 0 7 2l-3 1l0.5 0.5t2.5 0.5q4 0 13.5 -12.5t11.5 -25.5l8 -58q8 11 12 19.5t9 21.5q1 4 2 5q13 16 20.5 26t12 15t9 6.5t11.5 1.5h5l-24 -134h-14l16 87l-4 10q-17 -34 -27.5 -53.5
t-17 -29t-9.5 -12t-5 -2.5h-4q-2 0 -3.5 1t-2.5 7l-17 86l-8 -7l-16 -87h-14z" />
    <glyph glyph-name="FL005Bh" horiz-adv-x="779" 
d="M73 0h633q11 0 21 10t10 22v375h-121v-296h-166v296h-121v-296h-166v296h-121v-375q0 -11 11 -21.5t20 -10.5z" />
    <glyph glyph-name="FLE003h" horiz-adv-x="618" 
d="M309 281l150 -281h132l-218 407h-128l-218 -407h132z" />
    </font>
</defs>
</svg>
