<?xml version="1.0" standalone="no"?>
<!DOCTYPE svg PUBLIC "-//W3C//DTD SVG 1.1//EN" "http://www.w3.org/Graphics/SVG/1.1/DTD/svg11.dtd" >
<svg xmlns="http://www.w3.org/2000/svg" xmlns:xlink="http://www.w3.org/1999/xlink" version="1.1">
<metadata>
Created by FontForge 20170731 at Thu Jun  9 18:26:27 2011
 By Aleksey,,,
2011 Iconian Fonts - www.iconian.com
</metadata>
<defs>
<font id="FederalService3D" horiz-adv-x="785" >
  <font-face 
    font-family="Federal Service 3D"
    font-weight="400"
    font-stretch="normal"
    units-per-em="1000"
    panose-1="0 0 0 0 0 0 0 0 0 0"
    ascent="800"
    descent="-200"
    x-height="612"
    cap-height="612"
    bbox="-63 -202 1191 890"
    underline-thickness="50"
    underline-position="-175"
    unicode-range="U+0020-2122"
  />
<missing-glyph horiz-adv-x="500" 
 />
    <glyph glyph-name=".notdef" horiz-adv-x="500" 
 />
    <glyph glyph-name=".null" horiz-adv-x="0" 
 />
    <glyph glyph-name="nonmarkingreturn" horiz-adv-x="500" 
 />
    <glyph glyph-name="space" unicode=" " horiz-adv-x="373" 
 />
    <glyph glyph-name="space" unicode="&#xa0;" horiz-adv-x="373" 
 />
    <glyph glyph-name="FL0021h" unicode="!" horiz-adv-x="283" 
d="M55 62q0 26 21.5 44.5t53.5 18.5t54 -18.5t22 -44.5t-22 -44.5t-54 -18.5t-53.5 18.5t-21.5 44.5zM203 170h-146v423h146v-423zM39 62q0 -44 40 -66l4 -4q26 -26 67 -26q38 0 63.5 22t25.5 54q0 28 -21 49l-4 4q-17 31 -55 42h77v449l-17 17v6h-178v-455h6l17 -17h36
q-27 -8 -44 -28.5t-17 -46.5z" />
    <glyph glyph-name="FL0022h" unicode="&#x22;" horiz-adv-x="485" 
d="M55 532q0 26 21.5 44.5t53.5 18.5t54 -18.5t22 -44.5v-118q0 -26 -22 -44.5t-54 -18.5t-53.5 19t-21.5 45v117zM257 533q0 26 21.5 44.5t53.5 18.5t54 -18.5t22 -44.5v-118q0 -26 -22 -44.5t-54 -18.5t-53.5 19t-21.5 45v117zM39 415q0 -21 11 -39t30 -29l4 -3
q12 -12 29 -19t37 -7q38 0 63.5 22t25.5 54v118q0 28 -21 49l-4 4q-11 20 -33 33t-51 13q-39 0 -65 -23t-26 -56v-117zM241 416q0 -21 11 -39t30 -29l4 -3q12 -12 29 -19t37 -7q38 0 63.5 22t25.5 54v118q0 28 -21 49l-3 2l-1 1q1 0 1 -1v0l-1 2q-11 20 -33 33t-51 13
q-39 0 -65 -23t-26 -56v-117z" />
    <glyph glyph-name="FL0023h" unicode="#" horiz-adv-x="779" 
d="M320 354v-123h118v123h-118zM55 479h121v117h144v-117h118v117h144v-117h120v-124h-120v-124h120v-124h-120v-107h-144v106h-118v-106h-144v106h-121v125h121v123h-121v125zM39 338h6l17 -17h98v-74h-121v-157h6l17 -17h98v-89h6l17 -17h170v106h69v-89h6l17 -17h170v107
h120v150l-17 17v6h-103v75h120v150l-17 17v6h-103v94l-17 17v6h-176v-117h-69v94l-17 17v6h-176v-117h-121v-157zM353 321h69v-74h-69v74z" />
    <glyph glyph-name="FL0024h" unicode="$" 
d="M456 238v-110q42 8 68.5 33.5t36.5 76.5h-105zM313 468q-43 -7 -71.5 -31.5t-39.5 -75.5h111v107zM313 -124v124h-258v124h258v114h-258v62q0 136 63 213.5t195 82.5v122h143v-122h252v-124h-252v-111h252v-65q0 -134 -62 -212t-190 -84v-124h-143zM489 439h252v150
l-17 17v6h-235v99l-17 17v6h-175v-124q-132 -11 -195 -92t-63 -218v-78h6l17 -17h235v-65h-258v-156h6l17 -17h235v-107h6l17 -17h169v125q128 10 190 90t62 218v78l-17 17v6h-235v62zM297 423v-46h-49q18 33 49 46zM489 205h43q-8 -17 -18.5 -28.5t-24.5 -19.5v48z" />
    <glyph glyph-name="FL0025h" unicode="%" horiz-adv-x="885" 
d="M647 222q-45 0 -62 -11.5t-17 -31.5v-56q0 -20 15.5 -32.5t59.5 -12.5q50 0 65 10.5t15 37.5v53q0 9 -2.5 17t-10.5 13.5t-23 9t-40 3.5zM808 101q0 -26 -8 -44.5t-27 -31.5t-51 -19t-79 -6q-45 0 -75.5 7t-49 19.5t-26 31t-7.5 42.5v98q0 24 8 43t27 31.5t50 19.5t77 7
q47 0 78 -6t49.5 -18.5t26 -31t7.5 -43.5v-99zM217 518q-45 0 -62 -11.5t-17 -31.5v-56q0 -20 15.5 -32.5t59.5 -12.5q50 0 65 10.5t15 37.5v53q0 9 -2.5 17t-10.5 13.5t-23 9t-40 3.5zM378 397q0 -26 -8 -44.5t-27 -31.5t-51 -19t-79 -6q-45 0 -75.5 7t-49 19.5t-26 31
t-7.5 42.5v98q0 24 8 43t27 31.5t50 19.5t77 7q47 0 78 -6t49.5 -18.5t26 -31t7.5 -43.5v-99zM107 0l509 596h139l-504 -596h-144zM411 476q0 50 -25 75l-5 5q-16 28 -54 41.5t-110 13.5q-51 0 -85 -8t-54.5 -23t-29.5 -36.5t-9 -49.5v-98q0 -31 10 -54t36 -38l3 -2
q19 -19 53.5 -29t91.5 -10q24 0 45 1t38 5l-243 -285h9l17 -17h178l192 226v-93q0 -31 10 -54t36 -38l3 -2q19 -19 53.5 -29t91.5 -10q51 0 85 7t55 21t29.5 35.5t8.5 50.5v99q0 24 -5.5 42.5t-19.5 32.5l-5 5q-16 28 -54 41.5t-110 13.5q-24 0 -44.5 -2t-37.5 -5l238 281
l-18 18l4 5h-180l-198 -232v96zM601 159q0 14 14.5 22t51.5 8q13 0 22.5 -1t16.5 -3q1 -2 1 -6v-53q0 -18 -12 -25t-52 -7q-15 0 -25 1.5t-17 3.5v60zM171 455q0 14 14.5 22t51.5 8q13 0 22.5 -1t16.5 -3q1 -2 1 -6v-53q0 -18 -12 -25t-52 -7q-15 0 -25 1.5t-17 3.5v60z" />
    <glyph glyph-name="FL0026h" unicode="&#x26;" horiz-adv-x="893" 
d="M199 234q0 -111 117 -111h107q127 0 130 111h-354zM474 361q0 25 -6.5 46.5t-22.5 37t-44.5 24t-71.5 8.5q-38 0 -63 -9t-40 -24.5t-21 -37t-6 -45.5h275zM277 0q-61 0 -103.5 20.5t-68.5 59.5t-38 94.5t-12 125.5q0 69 13 124.5t40 94t68 59t97 20.5h117
q100 0 157.5 -63t67.5 -178h201v-123h-122q-6 -64 -25 -110h147v-124h-539zM726 201h123v149l-17 17v6h-189q-17 100 -71 157l-1 1q-65 83 -181 83h-117q-60 0 -104 -21.5t-73 -62t-43 -99t-14 -131.5q0 -100 22.5 -170.5t76.5 -107.5q28 -26 67 -40.5t92 -14.5h552v150
l-17 17v6h-117q3 14 6 29t5 32zM423 139h-107q-50 0 -74 23q-4 8 -6.5 18t-3.5 21h298q-21 -62 -107 -62zM349 444q53 0 83 -14q11 -11 16.5 -24t7.5 -29h-221q8 29 34 48t80 19z" />
    <glyph glyph-name="FL0027h" unicode="'" horiz-adv-x="283" 
d="M55 533q0 26 21.5 44.5t53.5 18.5t54 -18.5t22 -44.5v-118q0 -26 -22 -44.5t-54 -18.5t-53.5 19t-21.5 45v117zM39 416q0 -21 11 -39t30 -29l4 -3q12 -12 29 -19t37 -7q38 0 63.5 22t25.5 54v118q0 28 -21 49l-4 4q-11 20 -33 33t-51 13q-39 0 -65 -23t-26 -56v-117z" />
    <glyph glyph-name="FL0028h" unicode="(" horiz-adv-x="473" 
d="M280 -68q-63 0 -106 31t-69.5 82.5t-38 117.5t-11.5 137q0 69 13 134t40 115t68 80t97 30h123v-119h-67q-38 0 -63 -19t-40 -46.5t-21 -59.5t-6 -57v-123q0 -29 7.5 -61t23.5 -59t39.5 -44.5t56.5 -17.5h67v-121h-113zM232 215v123q0 24 5.5 53t19 55t36 43.5t56.5 17.5
h80v145l-17 17v6h-139q-60 0 -104 -31.5t-73 -83.5t-43 -119.5t-14 -140.5q0 -55 6.5 -108t21.5 -99t39 -83t58 -60q26 -23 60 -37t76 -14h126v147l-17 17v6h-83q-38 0 -64 29q-15 26 -22.5 57t-7.5 60z" />
    <glyph glyph-name="FL0029h" unicode=")" horiz-adv-x="473" 
d="M44 524h-6v151h139q52 0 91.5 -23.5t68.5 -64.5q47 -53 69 -134.5t22 -172.5q0 -73 -12 -141.5t-40 -122t-73.5 -85.5t-112.5 -32h-126l-17 17h-6v153h83q28 0 49 16t35 40.5t20.5 53.5t6.5 56v123q0 15 -2 33.5t-7.5 36.5t-14 35t-20.5 30q-22 14 -50 14h-80zM170 -68
q63 0 106 31t69.5 82.5t38 117.5t11.5 137q0 69 -13 134t-40 115t-68 80t-97 30h-123v-119h67q38 0 63 -19t40 -46.5t21 -59.5t6 -57v-123q0 -29 -7.5 -61t-23.5 -59t-39.5 -44.5t-56.5 -17.5h-67v-121h113z" />
    <glyph glyph-name="FL002Ah" unicode="*" horiz-adv-x="389" 
d="M250 605l14 -14l10 10l82 -83l-3 -2l19 -18l-54 -38l41 -27l-2 -3l18 -18l-70 -94l-19 18l-1 -2l-20 19v-41h-118l-17 17h-6v7l-20 -18l-18 18l-2 -2l-76 99l55 39l-26 20l-10 10l-14 10l89 89l24 -24v34h124v-6zM234 539v56h-92v-55l-40 39l-65 -65l56 -41l-63 -44
l55 -72l55 51v-63h92v61l51 -49l54 72l-68 47l63 44l-58 59z" />
    <glyph glyph-name="FL002Bh" unicode="+" horiz-adv-x="578" 
d="M340 519v-161h161v-123h-161v-162h-123v162h-162v123h162v161h123zM201 535v-161h-162v-155h6l17 -17h139v-145h6l17 -17h149v162h161v149l-17 17v6h-144v138l-17 17v6h-155z" />
    <glyph glyph-name="FL002Ch" unicode="," horiz-adv-x="283" 
d="M55 63q0 26 21.5 44.5t53.5 18.5t54 -18.5t22 -44.5v-118q0 -26 -22 -44.5t-54 -18.5t-53.5 19t-21.5 45v117zM39 -54q0 -21 11 -38.5t30 -28.5l4 -4q26 -26 66 -26q38 0 63.5 22t25.5 54v118q0 28 -21 49l-4 4q-11 20 -33 33t-51 13q-39 0 -65 -23t-26 -56v-117z" />
    <glyph glyph-name="FL002Dh" unicode="-" horiz-adv-x="510" 
d="M55 358h378v-124h-378v124zM39 218h6l17 -17h404v150l-17 17v6h-410v-156z" />
    <glyph glyph-name="FL002Eh" unicode="." horiz-adv-x="283" 
d="M55 63q0 26 21.5 44.5t53.5 18.5t54 -18.5t22 -44.5t-22 -44.5t-54 -18.5t-53.5 18.5t-21.5 44.5zM39 63q0 -44 40 -66l4 -4q26 -26 67 -26q38 0 63.5 22t25.5 54q0 28 -21 49l-4 4q-11 20 -33 33t-51 13q-39 0 -65 -23t-26 -56z" />
    <glyph glyph-name="FL002Fh" unicode="/" horiz-adv-x="470" 
d="M55 0l194 596h144l-194 -596h-144zM57 -33h171l203 622l-18 17l2 6h-177l-205 -628h7z" />
    <glyph glyph-name="FL0030h" unicode="0" horiz-adv-x="783" 
d="M306 295q0 26 21.5 44.5t53.5 18.5t54 -18.5t22 -44.5t-22 -44.5t-54 -18.5t-53.5 18.5t-21.5 44.5zM562 358q0 25 -6 47t-21 38t-40 25t-63 9h-103q-38 0 -63 -9t-40 -25t-21 -38t-6 -47v-123q0 -114 123 -114h110q130 0 130 114v123zM283 0q-63 0 -106.5 20.5t-70.5 59
t-39 94t-12 126.5q0 139 53 217.5t165 78.5h215q112 0 165 -78.5t53 -217.5q0 -71 -12 -126.5t-39 -94t-70.5 -59t-106.5 -20.5h-195zM303 -33h195q67 0 113 21.5t74.5 61.5t41 98t12.5 132q0 81 -18 143t-53 101q-29 43 -73.5 65.5t-106.5 22.5h-215q-60 0 -104 -21.5
t-73 -61.5t-43 -98t-14 -131q0 -99 22.5 -169t75.5 -108q59 -56 166 -56zM546 358v-123q0 -98 -114 -98h-110q-53 0 -80 24q-10 20 -10 54v123q0 23 5.5 42.5t19 33.5t36 22t56.5 8h103q24 0 42 -4t32 -12q11 -14 15.5 -32t4.5 -38zM290 295q0 -44 40 -66l4 -4
q26 -26 67 -26q38 0 63.5 22t25.5 54q0 28 -21 49l-4 4q-11 20 -33 33t-51 13q-39 0 -65 -23t-26 -56z" />
    <glyph glyph-name="FL0031h" unicode="1" horiz-adv-x="347" 
d="M270 596v-596h-144v478h-71v119zM39 613v-151h6l17 -17h48v-461h6l17 -17h170v622l-17 17v6z" />
    <glyph glyph-name="FL0032h" unicode="2" 
d="M45 456h-6v156h396q84 0 142 -27.5t93 -78.5q71 -80 71 -226v-78h-506v-61h489v-6l17 -17v-151h-679l-17 17h-6v390h500q-9 27 -26 44q-20 11 -43 16t-50 5h-358zM202 125v110h506v65q0 139 -67 217.5t-206 78.5h-380v-124h345q63 0 106 -24t55 -90h-506v-358h653v125
h-506z" />
    <glyph glyph-name="FL0062h" unicode="3" horiz-adv-x="722" 
d="M45 461h-6v151h388q62 0 106.5 -22.5t73.5 -65.5q35 -39 53 -101t18 -143q0 -74 -12.5 -132t-41 -98t-74.5 -61.5t-113 -21.5h-375l-17 17h-6v153h332q89 0 108 65h-417l-17 17h-6v155h445q-2 16 -7 30t-15 25q-14 7 -31 11t-40 4h-329zM417 0q63 0 106.5 20.5t70.5 59
t39 94t12 126.5q0 139 -53 217.5t-165 78.5h-372v-119h316q38 0 63 -9t40 -25t21 -38t6 -47h-446v-123h446q0 -114 -130 -114h-316v-121h362z" />
    <glyph glyph-name="FL0034h" unicode="4" horiz-adv-x="723" 
d="M507 0v236h-452v360h144v-238h308v238h139v-596h-139zM232 589l-17 17v6h-176v-392h6l17 -17h429v-219h6l17 -17h165v622l-17 17v6h-171v-238h-259v215z" />
    <glyph glyph-name="FL0035h" unicode="5" 
d="M202 471v-110h506v-65q0 -139 -67 -217.5t-206 -78.5h-380v124h345q63 0 106 24t55 90h-506v358h653v-125h-506zM62 205h470q-18 -37 -52.5 -51t-79.5 -14h-361v-156h6l17 -17h393q145 0 215.5 82t70.5 227v78l-17 17v6h-489v61h506v151l-17 17v6h-685v-390h6z" />
    <glyph glyph-name="FL0036h" unicode="6" 
d="M198 238l1 -3q0 -51 27.5 -76.5t75.5 -36.5v2h98q63 0 106 24t55 90h-363zM363 472q-63 0 -105.5 -23.5t-55.5 -87.5h506v-65q0 -139 -67 -217.5t-206 -78.5h-152q-56 0 -96.5 16t-67.5 46.5t-42 74.5t-20 101h-2v89q2 62 19.5 112t51 85t84 53.5t118.5 18.5h380v-124
h-345zM136 25q58 -58 167 -58h152q145 0 215.5 82t70.5 227v78l-17 17v6h-477q19 34 53.5 48t82.5 14h358v150l-17 17v6h-396q-72 0 -125.5 -20t-89 -56.5t-54 -89.5t-20.5 -119v-105h3q8 -67 30 -116t61 -79zM400 140h-101q-37 9 -58 30q-8 15 -9 35h300q-18 -37 -52.5 -51
t-79.5 -14z" />
    <glyph glyph-name="FL0037h" unicode="7" horiz-adv-x="716" 
d="M249 0h-194l393 477h-393v119h584v-119zM62 444h339l-379 -460h9l17 -17h227l397 486v136l-17 17v6h-616v-151h6z" />
    <glyph glyph-name="FL0038h" unicode="8" horiz-adv-x="783" 
d="M432 121q128 0 130 113h-363q0 -113 123 -113h110zM562 358q0 25 -6 47t-21 38t-40 25t-63 9h-103q-38 0 -63 -9t-40 -25t-21 -38t-6 -47h363zM283 0q-63 0 -106.5 20.5t-70.5 59t-39 94t-12 126.5q0 139 53 217.5t165 78.5h215q112 0 165 -78.5t53 -217.5
q0 -71 -12 -126.5t-39 -94t-70.5 -59t-106.5 -20.5h-195zM303 -33h195q67 0 113 21.5t74.5 61.5t41 98t12.5 132q0 81 -18 143t-53 101q-29 43 -73.5 65.5t-106.5 22.5h-215q-60 0 -104 -21.5t-73 -61.5t-43 -98t-14 -131q0 -99 22.5 -169t75.5 -108q59 -56 166 -56z
M349 444h103q23 0 40 -4t31 -11q10 -11 15 -25t7 -30h-310q8 31 34 50.5t80 19.5zM432 137h-110q-55 0 -81 26q-7 16 -9 38h308q-21 -64 -108 -64z" />
    <glyph glyph-name="FL0039h" unicode="9" 
d="M564 358l-1 3q0 51 -27.5 76.5t-75.5 36.5v-2h-98q-63 0 -106 -24t-55 -90h363zM399 124q31 0 57.5 5t47 18t35 34.5t21.5 53.5h-506v65q0 139 67 217.5t206 78.5h152q56 0 96.5 -16t67.5 -46.5t42 -74.5t20 -101h2v-89q-5 -125 -71 -197t-202 -72h-229v124h194zM399 140
h-210v-156h6l17 -17h242q71 0 123.5 19.5t87.5 56t53.5 88.5t21.5 117v103l-4 3q-6 58 -23 102t-47 75l-10 9q-29 35 -72.5 53.5t-104.5 18.5h-152q-74 0 -128 -21.5t-90 -61.5t-53.5 -98t-17.5 -131v-81h6l17 -17h468q-19 -36 -52 -49t-78 -13zM382 439h103q10 -3 19 -6
t17 -8q20 -19 25 -51h-300q18 36 53 50.5t83 14.5z" />
    <glyph glyph-name="FL003Ah" unicode=":" horiz-adv-x="283" 
d="M55 295q0 26 21.5 44.5t53.5 18.5t54 -18.5t22 -44.5t-22 -44.5t-54 -18.5t-53.5 18.5t-21.5 44.5zM55 63q0 26 21.5 44.5t53.5 18.5t54 -18.5t22 -44.5t-22 -44.5t-54 -18.5t-53.5 18.5t-21.5 44.5zM39 63q0 -44 40 -66l4 -4q26 -26 67 -26q38 0 63.5 22t25.5 54
q0 28 -21 49l-4 4q-11 20 -33 33t-51 13q-39 0 -65 -23t-26 -56zM39 295q0 -44 40 -66l4 -4q12 -12 29.5 -19t37.5 -7q38 0 63.5 22t25.5 54q0 28 -21 49l-4 4q-11 20 -33 33t-51 13q-39 0 -65 -23t-26 -56z" />
    <glyph glyph-name="FL003Bh" unicode=";" horiz-adv-x="283" 
d="M55 63q0 26 21.5 44.5t53.5 18.5t54 -18.5t22 -44.5v-118q0 -26 -22 -44.5t-54 -18.5t-53.5 19t-21.5 45v117zM55 295q0 26 21.5 44.5t53.5 18.5t54 -18.5t22 -44.5t-22 -44.5t-54 -18.5t-53.5 18.5t-21.5 44.5zM39 -54q0 -21 11 -38.5t30 -28.5l4 -4q26 -26 66 -26
q38 0 63.5 22t25.5 54v118q0 28 -21 49l-4 4q-11 20 -33 33t-51 13q-39 0 -65 -23t-26 -56v-117zM39 295q0 -44 40 -66l4 -4q12 -12 29.5 -19t37.5 -7q38 0 63.5 22t25.5 54q0 28 -21 49l-4 4q-11 20 -33 33t-51 13q-39 0 -65 -23t-26 -56z" />
    <glyph glyph-name="FL003Ch" unicode="&#x3c;" horiz-adv-x="501" 
d="M273 598h151l-219 -301l219 -297h-150l-219 297zM36 298l231 -314h4l17 -17h181l-228 309l229 315l-18 18l4 5h-191z" />
    <glyph glyph-name="FL003Dh" unicode="=" horiz-adv-x="510" 
d="M55 233h378v-124h-378v124zM55 481h378v-124h-378v124zM39 341h6l17 -17h404v150l-17 17v6h-410v-156zM39 93h6l17 -17h404v150l-17 17v6h-410v-156z" />
    <glyph glyph-name="FL003Eh" unicode="&#x3e;" horiz-adv-x="501" 
d="M223 599l9 -8l227 -313l-229 -311h-181l-17 17h-9l230 312l-231 318h191zM205 598h-151l219 -301l-219 -297h150l219 297z" />
    <glyph glyph-name="FL003Fh" unicode="?" horiz-adv-x="787" 
d="M55 62q0 26 21.5 44.5t53.5 18.5t54 -18.5t22 -44.5t-22 -44.5t-54 -18.5t-53.5 18.5t-21.5 44.5zM205 170h-148v186h506q-12 66 -55 90t-106 24h-345v124h380q139 0 206 -78.5t67 -217.5v-65h-506zM39 62q0 -44 40 -66l4 -4q26 -26 67 -26q38 0 63.5 22t25.5 54
q0 28 -21 49l-4 4q-17 31 -55 42h79l-1 63h506v78q0 146 -71 226q-35 51 -93 78.5t-142 27.5h-396v-156h6l17 -17h358q27 0 50 -5t43 -16q17 -17 26 -44h-500v-218h6l17 -17h36q-27 -8 -44 -28.5t-17 -46.5z" />
    <glyph glyph-name="FL0EEEh" unicode="@" horiz-adv-x="955" 
d="M541 507q39 -8 63 -22.5t38 -37.5l1 -1q23 -23 31 -57.5t8 -82.5v-52l3 1v1q18 4 22 8.5t9 18.5q-2 0 1 5v70q0 16 -1 34t-4.5 36t-10 34.5t-18.5 29.5q-23 15 -59 15h-83zM313 102q-38 23 -49 64t-14 98v63q0 36 4 65.5t17 52.5t36 38.5t61 23.5h-19q-41 0 -64 -13.5
t-35 -36.5t-15 -54t-3 -65v-123q0 -32 2.5 -67t16.5 -61q10 -8 23 -13t32 -5h9q3 0 5 1h49q-35 11 -54 31zM411 238v-20t2 -16q14 -8 43 -8q27 0 42 4t22 14t8.5 26t1.5 40l-3 34q0 14 -1 27t-7 24q-17 6 -40 6q-41 0 -54.5 -13.5t-13.5 -39.5v-78zM300 -101q-42 0 -76 14
t-60 37q-34 23 -58 60t-39 83t-21.5 99t-6.5 108q0 72 14 139.5t43 119.5t72.5 83.5t103.5 31.5h388q54 0 96 -22.5t71 -63.5q35 -38 54 -95.5t19 -128.5v-86q-11 -48 -25 -82.5t-39.5 -57.5t-66 -34.5t-104.5 -13.5l-65 -13q-5 -2 -9 -3.5t-9 -3.5h83v-6l17 -17v-148h-382z
M459 402q31 0 48.5 -7t25 -19.5t9 -28.5t1.5 -34l3 -34q0 -29 -1.5 -48.5t-10 -31t-27 -16.5t-51.5 -5q-27 0 -43 5t-23.5 15t-9.5 25t-2 35v78q0 32 16 49t65 17zM649 326q0 43 -7.5 75.5t-28.5 54t-59.5 32t-100.5 10.5q-61 0 -98 -11.5t-56.5 -33t-26 -53.5t-6.5 -73v-62
q2 -41 8 -73t25 -54.5t54.5 -34.5t96.5 -12q85 0 127 19l65 13q61 2 100.5 13t63.5 33t37.5 54.5t23.5 77.5v83q0 60 -14.5 110.5t-41.5 87t-65 56.5t-86 20h-388q-56 0 -96.5 -30t-67.5 -80t-40 -114.5t-13 -133.5q0 -71 11.5 -137t38 -117.5t69.5 -82.5t106 -31h369v122
h-324q-2 -1 -10 -1h-9q-40 0 -61.5 17.5t-31.5 44.5t-12 59t-2 61v123q0 37 3.5 70t16.5 58t39 39.5t71 14.5h275q45 0 71 -18.5t38.5 -46t16 -59t3.5 -58.5v-72q-4 -14 -6.5 -21.5t-6.5 -12t-11 -7t-19 -5.5l-40 -6z" />
    <glyph glyph-name="FL0041h" unicode="A" horiz-adv-x="760" 
d="M199 477v-255h344v136q-5 20 -14.5 41t-26 38.5t-41 28.5t-58.5 11h-204zM544 105h-346v-105h-143v596h410q47 0 87 -21.5t69 -56.5t45.5 -79t16.5 -88v-351h-139v105zM528 -16h6l17 -17h165v364q0 49 -19.5 97.5t-53.5 85.5q-32 43 -77.5 70.5t-100.5 27.5h-426v-628h6
l17 -17h169v105h297v-88zM232 444h191q21 0 37.5 -5t30.5 -14q14 -16 22.5 -35t13.5 -37v-115h-295v206z" />
    <glyph glyph-name="FL0042h" unicode="B" 
d="M230 439v-65h309q-9 27 -26 44q-20 11 -43 16t-50 5h-190zM400 128q59 0 91 16.5t46 61.5h-307v-78h170zM45 -16h-6v628h396q84 0 142 -27.5t93 -78.5q71 -80 71 -226q0 -87 -20.5 -147t-58 -97t-89 -53t-112.5 -16h-399zM197 358v114h203q63 0 106 -24t55 -90h-364z
M562 239q-5 -36 -16 -60.5t-30.5 -39t-48 -21t-67.5 -6.5h-203v127h365zM708 300q0 139 -67 217.5t-206 78.5h-380v-596h386q58 0 107.5 15.5t84.5 51t55 92.5t20 141z" />
    <glyph glyph-name="FL0043h" unicode="C" horiz-adv-x="722" 
d="M283 0q-63 0 -106.5 20.5t-70.5 59t-39 94t-12 126.5q0 139 53 217.5t165 78.5h372v-119h-316q-38 0 -63 -9t-40 -25t-21 -38t-6 -47v-123q0 -114 130 -114h316v-121h-362zM232 215v123q0 23 5.5 42.5t19 33.5t36 22t56.5 8h329v145l-17 17v6h-388q-60 0 -104 -21.5
t-73 -61.5t-43 -98t-14 -131q0 -99 22.5 -169t75.5 -108q59 -56 166 -56h375v147l-17 17v6h-332q-58 0 -86 25q-11 19 -11 53z" />
    <glyph glyph-name="FL0044h" unicode="D" 
d="M566 300q0 51 -12 84.5t-33.5 53t-52.5 27t-68 7.5h-203v-360h203q46 0 78 8.5t51.5 29.5t28 57.5t8.5 92.5zM708 300q0 -84 -20 -141t-55 -92.5t-84.5 -51t-107.5 -15.5h-386v596h380q139 0 206 -78.5t67 -217.5zM62 -33h399q61 0 112.5 16t89 53t58 97t20.5 147
q0 146 -71 226q-35 51 -93 78.5t-142 27.5h-396v-628h6zM550 300q0 -51 -7.5 -84.5t-25.5 -53t-46.5 -27t-70.5 -7.5h-170v311h190q27 0 51 -4.5t44 -15.5q17 -18 26 -47t9 -72z" />
    <glyph glyph-name="FL0045h" unicode="E" horiz-adv-x="722" 
d="M661 131l17 -17v-147h-375q-107 0 -166 56q-53 38 -75.5 108t-22.5 169q0 73 14 131t43 98t73 61.5t104 21.5h388v-6l17 -17v-145h-329q-54 0 -80 -19.5t-34 -50.5h426v-6l17 -17v-146h-446q1 -23 9 -39q29 -29 88 -29h332v-6zM645 121h-316q-66 0 -98 30t-32 87h446v120
h-446q0 25 6 47t21 38t40 25t63 9h316v119h-372q-112 0 -165 -78.5t-53 -217.5q0 -71 12 -126.5t39 -94t70.5 -59t106.5 -20.5h362v121z" />
    <glyph glyph-name="FL0046h" unicode="F" horiz-adv-x="722" 
d="M349 444q-54 0 -80 -19.5t-34 -50.5h426v-6l17 -17v-145h-446v-239h-170l-17 17h-6v316q0 73 14 131t43 98t73 61.5t104 21.5h388v-6l17 -17v-145h-329zM199 239h446v119h-446q0 25 6 47t21 38t40 25t63 9h316v119h-372q-112 0 -165 -78.5t-53 -217.5v-300h144v239z" />
    <glyph glyph-name="FL0047h" unicode="G" 
d="M342 -33q-59 0 -108.5 14.5t-86.5 48.5q-51 35 -79.5 100t-28.5 170q0 73 17.5 131t53.5 98t90 61.5t128 21.5h395v-6l17 -17v-150h-357q-35 0 -63 -7t-48 -25t-31 -48.5t-11 -78.5q0 -42 5 -72.5t16 -50.5q18 -16 45.5 -22.5t66.5 -6.5h187v73h-102l-17 17h-6v156h299
v-6l17 -17v-384h-399zM566 234v-122h-203q-47 0 -78.5 8.5t-51 29.5t-28 57.5t-8.5 92.5q0 51 12 84.5t33.5 53t52 27t68.5 7.5h344v124h-379q-139 0 -206 -78.5t-67 -217.5q0 -84 20 -141t55 -92.5t84 -51t108 -15.5h386v358h-267v-124h125z" />
    <glyph glyph-name="FL0048h" unicode="H" horiz-adv-x="780" 
d="M564 0v235h-365v-235h-144v596h144v-238h365v238h139v-596h-139zM232 589l-17 17v6h-176v-628h6l17 -17h170v235h316v-218h6l17 -17h165v622l-17 17v6h-171v-238h-316v215z" />
    <glyph glyph-name="FL0049h" unicode="I" horiz-adv-x="716" 
d="M639 0h-584v119h219v358h-219v119h584v-119h-225v-358h225v-119zM655 135h-208v309h225v145l-17 17v6h-616v-151h6l17 -17h196v-309h-219v-151h6l17 -17h610v145l-17 17v6z" />
    <glyph glyph-name="FL004Ah" unicode="J" horiz-adv-x="722" 
d="M45 -16h-6v153h332q114 0 114 98v378h176v-6l17 -17v-310q0 -74 -12.5 -132t-41 -98t-74.5 -61.5t-113 -21.5h-375zM417 0q63 0 106.5 20.5t70.5 59t39 94t12 126.5v297h-144v-362q0 -114 -130 -114h-316v-121h362z" />
    <glyph glyph-name="FL004Bh" unicode="K" horiz-adv-x="756" 
d="M199 358l324 239h181l-385 -295l384 -302h-180l-324 235v-235h-144v596h144v-238zM215 612h-176v-628h6l17 -17h170v222l306 -222h222l-17 17h5l-384 302l398 304l-18 18l7 5h-233l-286 -212v188l-17 17v6z" />
    <glyph glyph-name="FL004Ch" unicode="L" horiz-adv-x="722" 
d="M283 0q-63 0 -106.5 20.5t-70.5 59t-39 94t-12 126.5v297h144v-362q0 -114 130 -114h316v-121h-362zM232 215v375l-17 17v6h-176v-313q0 -99 22.5 -169t75.5 -108q59 -56 166 -56h375v147l-17 17v6h-332q-58 0 -86 25q-11 19 -11 53z" />
    <glyph glyph-name="FL004Dh" unicode="M" horiz-adv-x="990" 
d="M410 478h-37q-52 0 -86.5 -8.5t-55 -23.5t-29 -36.5t-8.5 -46.5v-363h-139v393q0 48 15.5 85.5t52 64t97.5 40t153 13.5h220q91 0 152.5 -13.5t98 -40t52 -64t15.5 -85.5v-393h-139v363q0 25 -8.5 46.5t-29 36.5t-55 23.5t-86.5 8.5h-37v-477h-146v477zM394 -15h6l17 -17
h172v477h24q45 0 75 -7t50 -18q10 -12 14 -26.5t4 -30.5v-379h6l17 -17h165v406q0 43 -11 78t-37 62q-32 47 -104 73t-199 26h-220q-96 0 -160 -15t-103 -43t-55 -68.5t-16 -92.5v-409h6l17 -17h165v376q0 22 8 41t27 32.5t51 21t80 7.5h1v-460z" />
    <glyph glyph-name="FL004Eh" unicode="N" horiz-adv-x="780" 
d="M564 0v331q0 29 -5.5 55.5t-21 46.5t-43 32t-71.5 12h-224v-477h-144v596h430q46 0 86 -19t70 -59q32 -38 47 -80t15 -87v-351h-139zM62 -33h170v477h211q46 0 76 -16q17 -19 23 -44t6 -53v-347h6l17 -17h165v364q0 48 -15.5 91.5t-49.5 83.5q-3 3 -5.5 6.5t-5.5 6.5
t-7 9q-33 43 -75.5 63.5t-92.5 20.5h-446v-628h6z" />
    <glyph glyph-name="FL004Fh" unicode="O" horiz-adv-x="783" 
d="M562 358q0 25 -6 47t-21 38t-40 25t-63 9h-103q-38 0 -63 -9t-40 -25t-21 -38t-6 -47v-123q0 -114 123 -114h110q130 0 130 114v123zM283 0q-63 0 -106.5 20.5t-70.5 59t-39 94t-12 126.5q0 139 53 217.5t165 78.5h215q112 0 165 -78.5t53 -217.5q0 -71 -12 -126.5
t-39 -94t-70.5 -59t-106.5 -20.5h-195zM303 -33h195q67 0 113 21.5t74.5 61.5t41 98t12.5 132q0 81 -18 143t-53 101q-29 43 -73.5 65.5t-106.5 22.5h-215q-60 0 -104 -21.5t-73 -61.5t-43 -98t-14 -131q0 -99 22.5 -169t75.5 -108q59 -56 166 -56zM546 358v-123
q0 -98 -114 -98h-110q-53 0 -80 24q-10 20 -10 54v123q0 23 5.5 42.5t19 33.5t36 22t56.5 8h103q24 0 42 -4t32 -12q11 -14 15.5 -32t4.5 -38z" />
    <glyph glyph-name="FL0DB9h" unicode="P" horiz-adv-x="761" 
d="M404 224q37 0 62 7.5t41 23t24.5 39t11.5 55.5q-2 24 -9.5 47t-24 41t-42.5 29t-64 11h-204v-253h205zM55 0v596h410q46 0 86.5 -20t70.5 -60q32 -38 46.5 -79t14.5 -86l-1 -1h2q0 -45 -15 -87t-47 -80q-30 -40 -70 -59t-86 -19h-267v-105h-144zM62 -33h170v105h254
q49 0 91.5 20.5t74.5 62.5q34 40 49.5 87t15.5 101l-2 1q-4 88 -63 160q-5 6 -9 11.5t-9 10.5q-32 43 -75.5 64.5t-93.5 21.5h-426v-628h6zM404 240h-172v204h191q44 0 73 -18q15 -16 22 -36.5t9 -41.5q-6 -56 -32.5 -82t-90.5 -26z" />
    <glyph glyph-name="FL0051h" unicode="Q" horiz-adv-x="783" 
d="M424 297l108 -146q30 28 30 84v123q0 25 -6 47t-21 38t-40 25t-63 9h-103q-38 0 -63 -9t-40 -25t-21 -38t-6 -47v-123q0 -114 123 -114h88l-89 122zM283 0q-63 0 -106.5 20.5t-70.5 59t-39 94t-12 126.5q0 139 53 217.5t165 78.5h215q112 0 165 -78.5t53 -217.5
q0 -94 -21 -160t-70 -102l49 -65l-108 -50l-57 77h-21h-195zM303 -33h200l48 -64l3 2l18 -18l132 61l-51 67q47 40 66.5 106t19.5 159q0 81 -18 143t-53 101q-29 43 -73.5 65.5t-106.5 22.5h-215q-60 0 -104 -21.5t-73 -61.5t-43 -98t-14 -131q0 -99 22.5 -169t75.5 -108
q59 -56 166 -56zM297 249l81 -112h-56q-53 0 -80 24q-10 20 -10 54v123q0 23 5.5 42.5t19 33.5t36 22t56.5 8h103q24 0 42 -4t32 -12q11 -14 15.5 -32t4.5 -38v-123q0 -31 -14 -57l-85 116l-5 5l-14 19z" />
    <glyph glyph-name="FL0054h" unicode="R" horiz-adv-x="761" 
d="M404 224q37 0 61.5 7.5t39.5 22.5t22.5 38t10.5 55q-2 24 -9 47.5t-22 42t-40 29.5t-64 11h-204v-253h205zM55 0v596h410q46 0 86 -19t70 -59q32 -38 47 -80t15 -87l-1 -1h2q0 -45 -14.5 -87t-46.5 -81q-34 -40 -73 -59l93 -123h-156l-78 105h-210v-105h-144zM62 -33h170
v105h182l66 -88h4l17 -17h188l-99 131q32 19 63 56q34 41 49 88t15 101l-2 1q-5 91 -64 162q-3 4 -6 7.5t-7 7.5q-2 2 -2.5 3.5t-2.5 3.5q-33 43 -75.5 63.5t-92.5 20.5h-426v-628h6zM404 240h-172v204h191q21 0 37.5 -4t29.5 -11q16 -17 23 -38t9 -44q-3 -28 -9.5 -48
t-20 -33t-35 -19.5t-53.5 -6.5z" />
    <glyph glyph-name="FL0073h" unicode="S" 
d="M45 225h-6v75q0 73 17.5 131t53.5 98t90 61.5t128 21.5h396v-6l17 -17v-150h-358q-48 0 -82.5 -14t-53.5 -48h477v-6l17 -17v-78q0 -145 -70.5 -227t-215.5 -82h-393l-17 17h-6v156h361q45 0 80 15t53 53h-471zM708 472v124h-380q-139 0 -206 -78.5t-67 -217.5v-59h506
q-12 -66 -55 -91.5t-106 -25.5h-345v-124h380q139 0 206 78.5t67 217.5v65h-506q13 64 55.5 87.5t105.5 23.5h345z" />
    <glyph glyph-name="T" unicode="T" horiz-adv-x="716" 
d="M414 477v-477h-140v477h-219v119h584v-119h-225zM62 444h196v-460h6l17 -17h166v477h225v145l-17 17v6h-616v-151h6z" />
    <glyph glyph-name="FL0055h" unicode="U" horiz-adv-x="780" 
d="M39 612h171v-6l17 -17v-344q0 -23 3.5 -43.5t12.5 -38.5q14 -13 36.5 -20.5t55.5 -7.5h208v477h176v-6l17 -17v-622h-443q-79 0 -139 52q-27 19 -49 49q-35 41 -50.5 85t-15.5 92v367zM55 245q0 -45 15 -87t47 -80q30 -40 70 -59t86 -19h430v596h-144v-477h-224
q-44 0 -71.5 12t-43 32t-21 46.5t-5.5 55.5v331h-139v-351z" />
    <glyph glyph-name="FL0056h" unicode="V" horiz-adv-x="793" 
d="M206 598l186 -477l173 477h151l-221 -598h-208l-232 598h151zM31 614l245 -630h5l17 -17h226l231 624l-18 18l2 5h-185l-159 -437l-160 414l-15 15l-3 8h-186z" />
    <glyph glyph-name="FL0057h" unicode="W" horiz-adv-x="987" 
d="M37 612h171v-6l17 -17v-344q0 -21 2.5 -41.5t11.5 -38.5q16 -14 43 -22t69 -8h66q-24 55 -24 110v367h171v-6l17 -17v-344q0 -25 1.5 -47.5t9.5 -40.5q11 -11 29.5 -16.5t46.5 -5.5h80v477h176v-6l17 -17v-622h-650q-79 0 -139 52q-27 19 -49 49q-35 41 -50.5 85
t-15.5 92v367zM53 245q0 -45 15 -87t47 -80q30 -40 70 -59t86 -19h637v596h-144v-477h-96q-44 0 -68 12t-35.5 32t-14 46.5t-2.5 55.5v331h-139v-351q0 -66 33 -126h-91q-55 0 -86.5 12.5t-47.5 33t-20.5 47t-4.5 53.5v331h-139v-351z" />
    <glyph glyph-name="FL0058h" unicode="X" horiz-adv-x="723" 
d="M206 597l146 -198l143 199h151l-219 -301l219 -297h-150l-144 195l-144 -195h-150l219 297l-222 300h151zM23 613l234 -316l-230 -313h9l17 -17h181l133 180l122 -163h4l17 -17h181l-228 309l229 315l-18 18l4 5h-191l-135 -187l-120 163l-8 7l-11 16h-190z" />
    <glyph glyph-name="FL0059h" unicode="Y" 
d="M708 296q0 -139 -67 -217.5t-206 -78.5h-234v124h199q63 0 106 24t55 90h-278v-1q-62 0 -105.5 20t-70.5 58t-39.5 93t-12.5 125v64h146v-152q11 -68 83 -83h276v234h147zM723 612h-179v-234h-255q-31 6 -47 21q-7 13 -8 28v163l-17 17v6h-178v-80q0 -94 23 -162t75 -106
q31 -30 75 -45.5t104 -15.5v1h216q-18 -37 -52.5 -51t-79.5 -14h-215v-156h6l17 -17h247q145 0 215.5 82t70.5 227l-1 313l-17 17v6z" />
    <glyph glyph-name="FL005Ah" unicode="Z" horiz-adv-x="716" 
d="M245 119h394v-119h-584v119l393 358h-393v119h584v-119zM62 444h325l-348 -318v-142h6l17 -17h610v145l-17 17v6h-331l348 316v138l-17 17v6h-616v-151h6z" />
    <glyph glyph-name="FL005Bh" unicode="[" horiz-adv-x="473" 
d="M55 -69v728h341v-118h-196v-488h193v-121zM233 508h196v144l-17 17v6h-373v-760h6l17 -17l364 1v147l-17 17v6h-176v439z" />
    <glyph glyph-name="FL005Ch" unicode="\" horiz-adv-x="470" 
d="M243 -16h-5l-205 628h177l2 -8l16 -15l203 -622h-171zM393 0l-194 596h-144l194 -596h144z" />
    <glyph glyph-name="FL005Dh" unicode="]" horiz-adv-x="473" 
d="M44 525h-6v150h373v-6l17 -17v-754l-364 1l-17 17h-6v153h193v439h-173zM395 -69v728h-341v-118h196v-488h-193v-121z" />
    <glyph glyph-name="FL005Eh" unicode="^" horiz-adv-x="440" 
d="M266 409l-55 105l-56 -105h-100l104 186h97l107 -186h-97zM53 376h129l41 78l33 -61h5l17 -17h127l-122 212l-12 11l-6 12h-115l-122 -218h8z" />
    <glyph glyph-name="FL005Fh" unicode="_" horiz-adv-x="528" 
d="M476 63v-123h-446v123h446zM14 79v-155h6l17 -17h472v149l-17 17v6h-478z" />
    <glyph glyph-name="FL0060h" unicode="`" horiz-adv-x="308" 
d="M221 503q10 -16 10 -35q0 -15 -5 -25.5t-17 -21.5q-10 -9 -19.5 -12.5t-20.5 -3.5q-23 0 -37 20l-67 75q-10 13 -10 32q0 15 11.5 25.5t25.5 21.5q20 17 41 17q11 0 23 -12t19 -21zM187 573q-8 11 -23 25t-31 14q-26 0 -49 -19l-3 -3q-17 -13 -29.5 -26t-12.5 -32
q0 -25 14 -43l68 -76q9 -12 21 -18l7 -7q18 -16 40 -16q27 0 49 19q14 13 20 25.5t6 31.5q0 23 -11 40l-48 63q-3 4 -12 13zM82 591q-1 0 -1 -1v0q0 1 1 1z" />
    <glyph glyph-name="FL0061h" unicode="a" horiz-adv-x="760" 
d="M335 477q-35 0 -59 -11t-40.5 -28.5t-26 -38.5t-14.5 -41v-136h344v255h-204zM55 0v351q0 44 16.5 88t45.5 79t69 56.5t87 21.5h410v-596h-143v105h-346v-105h-139zM62 -33h165v105h297v-88h6l17 -17h169v622l-17 17v6h-426q-50 0 -93 -23t-74.5 -60.5t-49 -84
t-17.5 -93.5v-367h6zM355 444h168v-206h-295v97q4 18 13 37.5t24 35.5t37 26t53 10z" />
    <glyph glyph-name="FL0063h" unicode="b" 
d="M230 439v-65h309q-9 27 -26 44q-20 11 -43 16t-50 5h-190zM400 128q59 0 91 16.5t46 61.5h-307v-78h170zM45 -16h-6v628h396q84 0 142 -27.5t93 -78.5q71 -80 71 -226q0 -87 -20.5 -147t-58 -97t-89 -53t-112.5 -16h-399zM197 358v114h203q63 0 106 -24t55 -90h-364z
M562 239q-5 -36 -16 -60.5t-30.5 -39t-48 -21t-67.5 -6.5h-203v127h365zM708 300q0 139 -67 217.5t-206 78.5h-380v-596h386q58 0 107.5 15.5t84.5 51t55 92.5t20 141z" />
    <glyph glyph-name="c" unicode="c" horiz-adv-x="722" 
d="M283 0q-63 0 -106.5 20.5t-70.5 59t-39 94t-12 126.5q0 139 53 217.5t165 78.5h372v-119h-316q-38 0 -63 -9t-40 -25t-21 -38t-6 -47v-123q0 -114 130 -114h316v-121h-362zM232 215v123q0 23 5.5 42.5t19 33.5t36 22t56.5 8h329v145l-17 17v6h-388q-60 0 -104 -21.5
t-73 -61.5t-43 -98t-14 -131q0 -99 22.5 -169t75.5 -108q59 -56 166 -56h375v147l-17 17v6h-332q-58 0 -86 25q-11 19 -11 53z" />
    <glyph glyph-name="d" unicode="d" 
d="M566 300q0 51 -12 84.5t-33.5 53t-52.5 27t-68 7.5h-203v-360h203q46 0 78 8.5t51.5 29.5t28 57.5t8.5 92.5zM708 300q0 -84 -20 -141t-55 -92.5t-84.5 -51t-107.5 -15.5h-386v596h380q139 0 206 -78.5t67 -217.5zM62 -33h399q61 0 112.5 16t89 53t58 97t20.5 147
q0 146 -71 226q-35 51 -93 78.5t-142 27.5h-396v-628h6zM550 300q0 -51 -7.5 -84.5t-25.5 -53t-46.5 -27t-70.5 -7.5h-170v311h190q27 0 51 -4.5t44 -15.5q17 -18 26 -47t9 -72z" />
    <glyph glyph-name="e" unicode="e" horiz-adv-x="722" 
d="M661 131l17 -17v-147h-375q-107 0 -166 56q-53 38 -75.5 108t-22.5 169q0 73 14 131t43 98t73 61.5t104 21.5h388v-6l17 -17v-145h-329q-54 0 -80 -19t-34 -50h340v-6l17 -17v-145h-360q1 -23 11 -42q28 -28 86 -28h332v-6zM645 121h-316q-66 0 -98 31t-32 88h360v119
h-360q0 25 6 46.5t21 37.5t40 25t63 9h316v119h-372q-112 0 -165 -78.5t-53 -217.5q0 -71 12 -126.5t39 -94t70.5 -59t106.5 -20.5h362v121z" />
    <glyph glyph-name="FL0066h" unicode="f" horiz-adv-x="722" 
d="M349 444q-54 0 -80 -19t-34 -50h340v-6l17 -17v-146h-360v-239h-170l-17 17h-6v316q0 73 14 131t43 98t73 61.5t104 21.5h388v-6l17 -17v-145h-329zM199 239h360v120h-360q0 25 6 46.5t21 37.5t40 25t63 9h316v119h-372q-112 0 -165 -78.5t-53 -217.5v-300h144v239z" />
    <glyph glyph-name="FL0067h" unicode="g" 
d="M197 300q0 -56 8.5 -92.5t28 -57.5t51 -29.5t78.5 -8.5h203v246h142v-358h-386q-59 0 -108 15.5t-84 51t-55 92.5t-20 141q0 139 67 217.5t206 78.5h379v-124h-344q-38 0 -68.5 -7.5t-52 -27t-33.5 -53t-12 -84.5zM342 -33h399v384l-17 17v6h-174v-246h-187
q-39 0 -66.5 6.5t-45.5 22.5q-11 20 -16 50.5t-5 72.5q0 48 11 78.5t31 48.5t48 25t63 7h357v150l-17 17v6h-395q-74 0 -128 -21.5t-90 -61.5t-53.5 -98t-17.5 -131q0 -105 28.5 -170t79.5 -100q37 -34 86.5 -48.5t108.5 -14.5z" />
    <glyph glyph-name="FL0068h" unicode="h" horiz-adv-x="780" 
d="M564 0v235h-365v-235h-144v596h144v-238h365v238h139v-596h-139zM232 589l-17 17v6h-176v-628h6l17 -17h170v235h316v-218h6l17 -17h165v622l-17 17v6h-171v-238h-316v215z" />
    <glyph glyph-name="i" unicode="i" horiz-adv-x="276" 
d="M55 0v596h144v-596h-144zM62 -33h170v622l-17 17v6h-176v-628h6z" />
    <glyph glyph-name="FL006Ah" unicode="j" horiz-adv-x="722" 
d="M45 -16h-6v153h332q114 0 114 98v378h176v-6l17 -17v-310q0 -74 -12.5 -132t-41 -98t-74.5 -61.5t-113 -21.5h-375zM417 0q63 0 106.5 20.5t70.5 59t39 94t12 126.5v297h-144v-362q0 -114 -130 -114h-316v-121h362z" />
    <glyph glyph-name="FL006Bh" unicode="k" horiz-adv-x="756" 
d="M199 358h172l182 239h151l-220 -300l219 -297h-150l-185 234h-169v-234h-144v596h144v-238zM215 612h-176v-628h6l17 -17h170v234h141l173 -217h4l17 -17h181l-228 310l229 313l-18 18l4 5h-189l-183 -239h-131v215l-17 17v6z" />
    <glyph glyph-name="FL006Ch" unicode="l" horiz-adv-x="722" 
d="M283 0q-63 0 -106.5 20.5t-70.5 59t-39 94t-12 126.5v297h144v-362q0 -114 130 -114h316v-121h-362zM232 215v375l-17 17v6h-176v-313q0 -99 22.5 -169t75.5 -108q59 -56 166 -56h375v147l-17 17v6h-332q-58 0 -86 25q-11 19 -11 53z" />
    <glyph glyph-name="FL006Dh" unicode="m" horiz-adv-x="987" 
d="M44 -16h-6v628h653q50 0 92.5 -20.5t75.5 -63.5q4 -6 7 -9t5.5 -6.5t5.5 -6.5q34 -40 49.5 -83.5t15.5 -91.5v-364h-165l-17 17h-6v347q0 26 -5 51t-22 44q-17 9 -40.5 14t-55.5 5h-67q13 -28 17.5 -56.5t4.5 -57.5v-364h-165l-17 17h-6v347q0 30 -3.5 56.5t-20.5 45.5
q-24 11 -60 11h-83v-477h-170zM909 351q0 45 -15 87t-47 80q-30 40 -70 59t-86 19h-637v-596h144v477h96q42 0 66 -12t36 -32t15 -46.5t3 -55.5v-331h139v351q0 33 -6.5 65t-23.5 62h88q55 0 86.5 -12.5t47.5 -33.5t20.5 -47.5t4.5 -53.5v-331h139v351z" />
    <glyph glyph-name="n" unicode="n" horiz-adv-x="760" 
d="M544 0v331q0 29 -5.5 55.5t-21 46.5t-43 32t-71.5 12h-204v-477h-144v596h410q46 0 86 -19t70 -59q32 -38 47 -80t15 -87v-351h-139zM62 -33h170v477h191q46 0 76 -16q17 -19 23 -44t6 -53v-347h6l17 -17h165v364q0 48 -15.5 91.5t-49.5 83.5q-3 3 -5.5 6.5t-5.5 6.5
t-7 9q-33 43 -75.5 63.5t-92.5 20.5h-426v-628h6z" />
    <glyph glyph-name="FL006Fh" unicode="o" horiz-adv-x="780" 
d="M226 213q0 -14 2 -25t7 -21q18 -16 50.5 -24.5t86.5 -8.5t87 5t52 17t25.5 32t6.5 50v134q0 14 -3 28t-12 25q-19 11 -50 16.5t-79 5.5q-47 0 -80 -6.5t-53.5 -19t-30 -30t-9.5 -39.5v-139zM715 400q0 40 -9 72.5t-29 57.5q-38 31 -105 46t-173 15q-95 0 -159.5 -14.5
t-104 -41.5t-56.5 -67t-17 -91v-197q0 -39 9 -71t30 -58l-10 10q-26 26 -37.5 61t-11.5 78v197q0 51 17 91t56.5 67t104 41.5t159.5 14.5q114 0 183.5 -17.5t105.5 -53.5l20 -20q26 -26 36.5 -60.5t10.5 -79.5v-197q0 -54 -17 -94.5t-56.5 -67.5t-105.5 -40.5t-164 -13.5
q-109 0 -176 18.5t-103 53.5q-41 28 -57.5 68t-16.5 93v197q0 52 17 92t57 68t105 42.5t161 14.5q98 0 163.5 -13t104.5 -39.5t55 -67t16 -94.5v-197q0 -55 -17 -96t-57 -68.5t-106.5 -41t-165.5 -13.5q-94 0 -157.5 14t-101.5 41q-2 0 -2 2l-10 10q38 -32 103 -48t168 -16
q98 0 164 13.5t105.5 40.5t56.5 67.5t17 94.5v197zM379 480q59 0 94.5 -8.5t54.5 -23t25 -34.5t6 -42v-134q0 -34 -7 -57t-27.5 -37t-57 -20t-95.5 -6q-52 0 -86.5 8t-55 23t-29 36.5t-8.5 47.5v139q0 50 42 79t144 29zM702 400q0 50 -15.5 87.5t-52.5 62t-99 36.5t-156 12
q-92 0 -154 -13.5t-99.5 -39t-54 -63t-16.5 -85.5v-197q0 -47 15.5 -84.5t52 -63t97.5 -39t152 -13.5q94 0 157.5 12.5t102 38t54.5 63.5t16 89v197z" />
    <glyph glyph-name="FL0070h" unicode="p" horiz-adv-x="761" 
d="M404 224q37 0 62 7.5t41 23t24.5 39t11.5 55.5q-2 24 -9.5 47t-24 41t-42.5 29t-64 11h-204v-253h205zM55 0v596h410q46 0 86.5 -20t70.5 -60q32 -38 46.5 -79t14.5 -86l-1 -1h2q0 -45 -15 -87t-47 -80q-30 -40 -70 -59t-86 -19h-267v-105h-144zM62 -33h170v105h254
q49 0 91.5 20.5t74.5 62.5q34 40 49.5 87t15.5 101l-2 1q-4 88 -63 160q-5 6 -9 11.5t-9 10.5q-32 43 -75.5 64.5t-93.5 21.5h-426v-628h6zM404 240h-172v204h191q44 0 73 -18q15 -16 22 -36.5t9 -41.5q-6 -56 -32.5 -82t-90.5 -26z" />
    <glyph glyph-name="FL0071h" unicode="q" horiz-adv-x="780" 
d="M487 236l43 -60q8 12 10.5 27t2.5 35v134q0 14 -3 28t-12 25q-19 11 -50 16.5t-79 5.5q-47 0 -80 -6.5t-53.5 -19t-30 -30t-9.5 -39.5v-139q0 -14 2 -25t7 -21q18 -16 50.5 -24.5t86.5 -8.5h8l-91 125h179l11 -16zM715 400q0 40 -9 72.5t-29 57.5q-38 31 -105 46t-173 15
q-95 0 -159.5 -14.5t-104 -41.5t-56.5 -67t-17 -91v-197q0 -39 9 -71t30 -58l-10 10q-26 26 -37.5 61t-11.5 78v197q0 51 17 91t56.5 67t104 41.5t159.5 14.5q114 0 183.5 -17.5t105.5 -53.5l17 -18h-1v1l4 -3q26 -26 36.5 -60.5t10.5 -79.5v-197q0 -57 -19 -98.5t-64 -69.5
l81 -107h-175l-17 17h-4l-37 47q-24 -2 -51 -3.5t-57 -1.5q-109 0 -176 18.5t-103 53.5q-41 28 -57.5 68t-16.5 93v197q0 52 17 92t57 68t105 42.5t161 14.5q98 0 163.5 -13t104.5 -39.5t55 -67t16 -94.5v-197q0 -56 -19 -98t-63 -71l83 -109h-178l-3 3l-34 44h-4l-13 17
q-26 -2 -55 -3.5t-60 -1.5q-94 0 -157.5 14t-101.5 41q-2 0 -2 2l-10 10q38 -32 103 -48t168 -16q33 0 62 1.5t54 3.5l-4 6l11 -5l20 -20q-2 0 -3.5 -0.5t-3.5 -0.5l34 -44h171l-64 85q-2 -2 -5 -2.5t-5 -2.5l-20 20l4 20l11 -12q44 28 62.5 69t18.5 98v197zM411 119
q-5 -1 -10 -1h-9h-20q-52 0 -86.5 8t-55 23t-29 36.5t-8.5 47.5v139q0 50 42 79t144 29q59 0 94.5 -8.5t54.5 -23t25 -34.5t6 -42v-134q0 -32 -6 -53.5t-22 -35.5l-70 94h-140zM702 400q0 50 -15.5 87.5t-52.5 62t-99 36.5t-156 12q-92 0 -154 -13.5t-99.5 -39t-54 -63
t-16.5 -85.5v-197q0 -47 15.5 -84.5t52 -63t97.5 -39t152 -13.5q69 0 122 6l50 -65h143l-74 99q48 25 68.5 65.5t20.5 97.5v197z" />
    <glyph glyph-name="FL0072h" unicode="r" horiz-adv-x="761" 
d="M404 224q37 0 61.5 7.5t39.5 22.5t22.5 38t10.5 55q-2 24 -9 47.5t-22 42t-40 29.5t-64 11h-204v-253h205zM55 0v596h410q46 0 86 -19t70 -59q32 -38 47 -80t15 -87l-1 -1h2q0 -45 -14.5 -87t-46.5 -81q-34 -40 -73 -59l93 -123h-156l-78 105h-210v-105h-144zM62 -33h170
v105h182l66 -88h4l17 -17h188l-99 131q32 19 63 56q34 41 49 88t15 101l-2 1q-5 91 -64 162q-3 4 -6 7.5t-7 7.5q-2 2 -2.5 3.5t-2.5 3.5q-33 43 -75.5 63.5t-92.5 20.5h-426v-628h6zM404 240h-172v204h191q21 0 37.5 -4t29.5 -11q16 -17 23 -38t9 -44q-3 -28 -9.5 -48
t-20 -33t-35 -19.5t-53.5 -6.5z" />
    <glyph glyph-name="FL0053h" unicode="s" 
d="M45 225h-6v75q0 73 17.5 131t53.5 98t90 61.5t128 21.5h246v-6l17 -17v-150h-208q-48 0 -82.5 -14t-53.5 -48h477v-6l17 -17v-78q0 -145 -70.5 -227t-215.5 -82h-392l-17 17h-6v156h360q45 0 80 15t53 53h-471zM558 472v124h-230q-139 0 -206 -78.5t-67 -217.5v-59h506
q-12 -66 -55 -91.5t-106 -25.5h-344v-124h379q139 0 206 78.5t67 217.5v65h-506q13 64 55.5 87.5t105.5 23.5h195z" />
    <glyph glyph-name="t" unicode="t" horiz-adv-x="716" 
d="M414 477v-477h-140v477h-219v119h584v-119h-225zM62 444h196v-460h6l17 -17h166v477h225v145l-17 17v6h-616v-151h6z" />
    <glyph glyph-name="u" unicode="u" horiz-adv-x="780" 
d="M719 612v-6l17 -17v-406q0 -54 -17 -94.5t-56.5 -67.5t-105.5 -40.5t-164 -13.5q-109 0 -176.5 19t-103.5 54q-41 28 -57.5 68.5t-16.5 94.5v409h171v-6l17 -17v-376q0 -14 2 -25t7 -21q18 -16 50.5 -24.5t86.5 -8.5t87 5t51.5 17t25 32t6.5 50v374h176zM559 596v-358
q0 -34 -7 -57t-27 -37t-56.5 -20t-95.5 -6q-52 0 -86.5 8t-55 23t-29 36.5t-8.5 47.5v363h-139v-393q0 -48 15.5 -85.5t52 -64t97.5 -40t153 -13.5q94 0 157.5 12.5t102 38t54.5 63.5t16 89v393h-144z" />
    <glyph glyph-name="FL0076h" unicode="v" horiz-adv-x="743" 
d="M463 0h-208l-226 598h151l178 -477l181 477h151zM714 614h-186l-166 -435l-153 412l-15 15l-3 8h-186l239 -630h5l17 -17h226l237 624l-17 17z" />
    <glyph glyph-name="FL0077h" unicode="w" horiz-adv-x="990" 
d="M393 -33q-109 0 -176.5 19t-103.5 54q-41 28 -57.5 68.5t-16.5 94.5v409h171v-6l17 -17v-376q0 -28 11 -47q18 -15 50.5 -23.5t84.5 -8.5h21v477h178v-6l17 -17v-454h4q48 0 79 7.5t50 20.5t26.5 31t7.5 40v379h171v-6l17 -17v-406q0 -51 -16 -91t-54.5 -68t-102 -42.5
t-158.5 -14.5h-220zM410 118h-37q-52 0 -86.5 8.5t-55 23.5t-29 36t-8.5 47v363h-139v-393q0 -48 15.5 -85.5t52 -64t97.5 -40t153 -13.5h220q91 0 152.5 13.5t98 40t52 64t15.5 85.5v393h-139v-363q0 -26 -8.5 -47t-29 -36t-55 -23.5t-86.5 -8.5h-37v477h-146v-477z" />
    <glyph glyph-name="FL0078h" unicode="x" horiz-adv-x="673" 
d="M181 597l146 -198l143 199h151l-219 -301l219 -297h-150l-144 195l-144 -195h-150l219 297l-222 300h151zM-2 613l234 -316l-230 -313h9l17 -17h181l133 180l122 -163h4l17 -17h181l-228 309l229 315l-18 18l4 5h-191l-135 -187l-120 163l-8 7l-11 16h-190z" />
    <glyph glyph-name="FL0079h" unicode="y" 
d="M723 612v-6l17 -17l1 -313q0 -145 -70.5 -227t-215.5 -82h-247l-17 17h-6v156h215q45 0 79.5 14t52.5 51h-240q-59 2 -100 15.5t-68 39.5q-48 32 -66.5 90.5t-18.5 143.5v119h178v-6l17 -17v-165q0 -19 6 -32q8 -6 19.5 -10t25.5 -5h259v234h179zM560 596v-234h-276
q-42 4 -62 25.5t-21 57.5v152h-146v-103q0 -62 10 -108.5t35 -79t67 -49.5t105 -19h289q-12 -66 -55 -90t-106 -24h-199v-124h234q139 0 206 78.5t67 217.5l-1 300h-147z" />
    <glyph glyph-name="FL007Ah" unicode="z" horiz-adv-x="716" 
d="M245 119h394v-119h-584v119l393 358h-393v119h584v-119zM62 444h325l-348 -318v-142h6l17 -17h610v145l-17 17v6h-331l348 316v138l-17 17v6h-616v-151h6z" />
    <glyph glyph-name="FL007Bh" unicode="{" horiz-adv-x="450" 
d="M283 0q-63 0 -106.5 20.5t-70.5 59t-39 94t-12 126.5q0 139 53 217.5t165 78.5h100v-119h-44q-38 0 -63 -9t-40 -25t-21 -38t-6 -47v-123q0 -114 130 -114h44v-121h-90zM232 215v123q0 23 5.5 42.5t19 33.5t36 22t56.5 8h57v145l-17 17v6h-116q-60 0 -104 -21.5
t-73 -61.5t-43 -98t-14 -131q0 -99 22.5 -169t75.5 -108q59 -56 166 -56h103v147l-17 17v6h-60q-58 0 -86 25q-11 19 -11 53z" />
    <glyph glyph-name="FL007Ch" unicode="|" horiz-adv-x="276" 
d="M55 -123v842h143v-842h-143zM62 -156h169v868l-17 17v6h-175v-874h6z" />
    <glyph glyph-name="FL007Dh" unicode="}" horiz-adv-x="450" 
d="M45 461h-6v151h116q62 0 106.5 -22.5t73.5 -65.5q35 -39 53 -101t18 -143q0 -74 -12.5 -132t-41 -98t-74.5 -61.5t-113 -21.5h-103l-17 17h-6v153h60q114 0 114 98v123q0 20 -4.5 38t-15.5 32q-14 8 -32 12t-42 4h-57zM145 0q63 0 106.5 20.5t70.5 59t39 94t12 126.5
q0 139 -53 217.5t-165 78.5h-100v-119h44q38 0 63 -9t40 -25t21 -38t6 -47v-123q0 -114 -130 -114h-44v-121h90z" />
    <glyph glyph-name="FL007Eh" unicode="~" horiz-adv-x="495" 
d="M231 382l58 -93l54 92h100l-104 -170h-97l-59 93l-53 -92h-100l104 170h97zM125 398l-124 -202h9l17 -17h130l40 71l36 -55h5l17 -17h111l120 196l-18 17l4 6h-138l-45 -73l-31 51l-10 9l-8 14h-115z" />
    <glyph glyph-name="FL007Fh" horiz-adv-x="202" 
 />
    <glyph glyph-name="FL00A1h" unicode="&#xa1;" horiz-adv-x="283" 
d="M205 530q0 -26 -21.5 -44.5t-53.5 -18.5t-54 18.5t-22 44.5t22 44.5t54 18.5t53.5 -18.5t21.5 -44.5zM57 422h146v-423h-146v423zM41 -17h6l17 -17h172v449l-17 17v6h-41q26 8 43 27t17 45q0 29 -21 50l-6 5q-11 20 -32 32t-49 12q-39 0 -65.5 -23t-26.5 -56
q0 -21 11 -38.5t31 -28.5l2 -2q8 -8 17.5 -14t21.5 -9h-80v-455z" />
    <glyph glyph-name="FL00A2h" unicode="&#xa2;" horiz-adv-x="723" 
d="M200 288q0 -114 130 -114v254h-1q-69 0 -99 -29t-30 -74v-37zM330 0v53h-46q-57 0 -100 14t-71.5 44.5t-43 79.5t-14.5 120v3q0 51 13 93.5t40 73.5t68 48.5t97 17.5h57v49h144v-49h171v-119h-171v-254h172v-121h-172v-53h-144zM507 395h171v145l-17 17v6h-154v26l-17 17
v6h-176v-49h-41q-60 0 -104 -18.5t-73 -51.5t-43 -79t-14 -100v-3q0 -93 23 -150.5t70 -87.5q30 -28 72.5 -40.5t99.5 -12.5h10v-36h6l17 -17h170v53h172v147l-17 17v6h-155v205zM233 305q0 32 18.5 56t62.5 31v-201q-48 5 -71 26q-10 20 -10 51v37z" />
    <glyph glyph-name="FL00A3h" unicode="&#xa3;" horiz-adv-x="760" 
d="M324 138h375v-6l17 -17v-148h-562l-17 17h-6v214h-69l-17 17h-6v156h95q14 114 70.5 177.5t160.5 63.5h159v-6l17 -17v-144h-100q-54 0 -80 -20t-34 -51h197v-6l17 -17v-153h-217v-60zM147 231v-231h536v122h-392v109h217v127h-217q0 25 6 47t21 38t40 25.5t63 9.5h87
v118h-143q-102 0 -154 -63t-62 -178h-94v-124h92z" />
    <glyph glyph-name="FL00A4h" unicode="&#xa4;" horiz-adv-x="673" 
d="M406 318q0 22 -12 36t-45 14h-46q-34 0 -46 -14t-12 -36v-53q0 -49 55 -49h49q57 0 57 49v53zM511 229q0 -36 -14 -62l124 -167h-150l-85 115h-118l-85 -115h-150l126 171q-11 24 -11 58v123q0 19 3 35.5t11 30.5l-132 179h151l93 -126h104l92 127h151l-127 -174
q9 -15 13 -33.5t4 -38.5v-123zM199 597l-11 16h-189l144 -196q-7 -17 -9 -32.5t-2 -32.5v-123q0 -32 9 -57l-139 -188h9l17 -17h181l85 115h96l74 -98h4l17 -17h182l-136 181q13 29 13 61v123q0 19 -3.5 36.5t-11.5 33.5l138 189l-18 18l4 5h-191l-93 -127h-86l-76 103z
M390 318v-53q0 -33 -41 -33h-49q-13 0 -22 3q-1 2 -0.5 4.5t0.5 5.5v53q0 16 9.5 26.5t35.5 10.5h46q8 0 18 -2q3 -8 3 -15z" />
    <glyph glyph-name="FL00A5h" unicode="&#xa5;" horiz-adv-x="673" 
d="M118 190h8l-2 2h-6v156h76l-196 265h190l11 -16l8 -7l120 -163l135 187h191l-4 -5l18 -18l-177 -243h38v-6l17 -17v-150h-8l8 -8v-150h-114v-50h-170l-17 17h-6v33h-97l-17 17h-6v156zM254 208v-34h-120v-124h120v-50h144v50h114v124h-114v34h114v124h-84l193 266h-151
l-143 -199l-146 198h-151l196 -265h-92v-124h120z" />
    <glyph glyph-name="FLE004h" unicode="&#xa6;" horiz-adv-x="780" 
d="M228 246h315v112q0 23 -3.5 40t-14.5 29q-20 10 -51.5 14t-80.5 4q-48 0 -79.5 -7t-50.5 -20t-27 -31.5t-8 -40.5v-100zM45 -16h-6v409q0 52 16 92.5t55 68.5t103 43t160 15q134 0 209.5 -24.5t107.5 -75.5q25 -26 36 -60.5t11 -78.5v-406h-171l-17 17h-6v89h-315v-106
h-166zM195 366q0 25 8.5 46t29 35.5t55 22.5t85.5 8q59 0 95.5 -6t56.5 -20t27 -37t7 -57v-128h-364v136zM704 393q0 51 -16.5 89t-54.5 63.5t-102 38t-158 12.5q-92 0 -153 -13.5t-97.5 -40t-52 -64t-15.5 -85.5v-393h140v106h364v-106h145v393z" />
    <glyph glyph-name="FL00B0h" unicode="&#xa7;" 
d="M45 222h-6v78q0 73 17.5 131t53.5 98t90 61.5t128 21.5h246v-6l17 -17v-150h-208q-48 0 -82.5 -14t-53.5 -48h477v-6l17 -17v-78q0 -145 -70.5 -227t-215.5 -82h-245l-17 17h-6v156h213q45 0 79.5 14t52.5 51h-470zM558 472v124h-230q-139 0 -206 -78.5t-67 -217.5v-62
h506q-12 -66 -55 -90t-106 -24h-197v-124h232q139 0 206 78.5t67 217.5v65h-506q13 64 55.5 87.5t105.5 23.5h195z" />
    <glyph glyph-name="FL00A8h" unicode="&#xa8;" horiz-adv-x="484" 
d="M55 532q0 26 21.5 44.5t53.5 18.5t54 -18.5t22 -44.5t-22 -44.5t-54 -18.5t-53.5 18.5t-21.5 44.5zM256 532q0 26 21.5 44.5t53.5 18.5t54 -18.5t22 -44.5t-22 -44.5t-54 -18.5t-53.5 18.5t-21.5 44.5zM39 532q0 -44 40 -66l4 -4q12 -12 29.5 -19t37.5 -7q38 0 63.5 22
t25.5 54q0 28 -21 49l-4 4q-11 20 -33 33t-51 13q-39 0 -65 -23t-26 -56zM240 532q0 -44 40 -66l4 -4q12 -12 29.5 -19t37.5 -7q38 0 63.5 22t25.5 54q0 28 -21 49l-3 2l-1 1q1 0 1 -1v0l-1 2q-11 20 -33 33t-51 13q-39 0 -65 -23t-26 -56z" />
    <glyph glyph-name="FL00A9h" unicode="&#xa9;" horiz-adv-x="455" 
d="M193 376q-31 0 -43.5 18.5t-12.5 51.5q0 32 13 50.5t40 18.5h90v-28h-76q-19 0 -25.5 -8t-6.5 -20v-28q0 -27 32 -27h76v-28h-87zM217 542q-57 0 -79 -15.5t-22 -42.5v-74q0 -29 20.5 -45.5t76.5 -16.5q31 0 51 3t31 10.5t15 20t4 30.5v72q0 12 -3 22.5t-13.5 18.5
t-29.5 12.5t-51 4.5zM378 398q0 -26 -8 -44.5t-27 -31.5t-51 -19t-79 -6q-45 0 -75.5 7t-49 19.5t-26 31t-7.5 42.5v98q0 24 8 43t27 31.5t50 19.5t77 7q47 0 78 -6t49.5 -18.5t26 -31t7.5 -43.5v-99zM88 303q19 -19 53.5 -29t91.5 -10q51 0 85 7t55 21t29.5 35.5t8.5 50.5
v99q0 50 -25 75l-5 5q-16 28 -54 41.5t-110 13.5q-51 0 -85 -8t-54.5 -23t-29.5 -36.5t-9 -49.5v-98q0 -31 10 -54t36 -38zM205 439q0 7 4 11t15 4h74v-42l-2 2v6h-91v19z" />
    <glyph glyph-name="FLE003h" unicode="&#xaa;" horiz-adv-x="760" 
d="M355 444q-54 0 -82 -20t-38 -50h288v70h-168zM45 -16h-6v367q0 47 17.5 93.5t49 84t74.5 60.5t93 23h426v-6l17 -17v-622h-170l-17 17h-6v218h-296v-235h-165zM539 477v-119h-344q2 24 9.5 46t24 38t42.5 25.5t64 9.5h204zM194 235h345v-235h144v596h-410
q-47 0 -87 -21.5t-69 -56.5t-45.5 -79t-16.5 -88v-351h139v235z" />
    <glyph glyph-name="FL00ABh" unicode="&#xab;" horiz-adv-x="555" 
d="M477 351l-105 -55l105 -56v-100l-186 104v97l186 107v-97zM240 351l-105 -55l105 -56v-100l-186 104v97l186 107v-97zM256 475l-218 -125v-115l11 -7l12 -11l212 -119v129l-17 17v5l-62 32l79 42v127l-17 17v8zM493 475l-218 -125v-115l11 -7l12 -11l212 -119v129l-17 17
v5l-62 32l79 42v127l-17 17v8z" />
    <glyph glyph-name="FL00ADh" unicode="&#xac;" horiz-adv-x="580" 
d="M503 358v-285h-123v162h-325v123h448zM39 374v-155h6l17 -17h302v-145h6l17 -17h149v311l-17 17v6h-480z" />
    <glyph glyph-name="FL00AEh" unicode="&#xad;" horiz-adv-x="429" 
d="M55 358h297v-124h-297v124zM39 218h6l17 -17h323v150l-17 17v6h-329v-156z" />
    <glyph glyph-name="FL00B8h" unicode="&#xae;" horiz-adv-x="455" 
d="M137 446q0 32 13 50.5t40 18.5h90v-28h-76q-19 0 -25.5 -8t-6.5 -20v-77h-35v64zM217 542q-57 0 -79 -15.5t-22 -42.5v-74q0 -29 20.5 -45.5t76.5 -16.5q31 0 51 3t31 10.5t15 20t4 30.5v72q0 12 -3 22.5t-13.5 18.5t-29.5 12.5t-51 4.5zM378 398q0 -26 -8 -44.5
t-27 -31.5t-51 -19t-79 -6q-45 0 -75.5 7t-49 19.5t-26 31t-7.5 42.5v98q0 24 8 43t27 31.5t50 19.5t77 7q47 0 78 -6t49.5 -18.5t26 -31t7.5 -43.5v-99zM88 303q19 -19 53.5 -29t91.5 -10q51 0 85 7t55 21t29.5 35.5t8.5 50.5v99q0 50 -25 75l-5 5q-16 28 -54 41.5
t-110 13.5q-51 0 -85 -8t-54.5 -23t-29.5 -36.5t-9 -49.5v-98q0 -31 10 -54t36 -38zM205 439q0 7 4 11t15 4h74v-42q0 -14 -3.5 -23t-12.5 -14.5t-25.5 -8t-43.5 -2.5h-8v75z" />
    <glyph glyph-name="FL00AFh" unicode="&#xaf;" horiz-adv-x="528" 
d="M476 660v-123h-446v123h446zM14 676v-155h6l17 -17h472v149l-17 17v6h-478z" />
    <glyph glyph-name="FL0040h" unicode="&#xb0;" horiz-adv-x="722" 
d="M417 596q63 0 106.5 -20.5t70.5 -59t39 -94.5t12 -126v-297h-144v362q0 114 -130 114h-316v121h362zM39 612v-153h6l17 -17h329q44 0 73 -15q21 -24 21 -66v-378h6l17 -17h170v310q0 85 -17 148.5t-55 103.5q-29 41 -75 62.5t-114 21.5h-378z" />
    <glyph glyph-name="FL00B1h" unicode="&#xb1;" horiz-adv-x="578" 
d="M502 0h-446v123h446v-123zM338 498v-95h163v-123h-161v-93h-125v93h-160v123h162l-2 95h123zM199 514l1 -95h-161v-155h6l17 -17h137v-76h6l17 -17h151v93h161v149l-17 17v6h-146v72l-17 17v6h-155zM518 139h-478v-155h6l17 -17h472v149l-17 17v6z" />
    <glyph glyph-name="FL00B2h" unicode="&#xb2;" horiz-adv-x="458" 
d="M45 518h-6v94h206q89 0 126 -60l2 -1q41 -41 41 -123v-46h-253v-6h236v-6l17 -17v-88h-352l-17 17h-6v211h245l-1 1q0 1 -1 2q-13 5 -35 5h-185zM128 360v55h253v33q0 69 -33.5 108.5t-102.5 39.5h-190v-62h172q32 0 53.5 -12t27.5 -45h-253v-179h326v62h-253z" />
    <glyph glyph-name="FL00B3h" unicode="&#xb3;" horiz-adv-x="427" 
d="M45 520h-6v92h202q35 0 59 -13t40 -37l3 -3q20 -20 30 -53.5t10 -77.5q0 -77 -28.5 -120t-98.5 -43h-194l-17 17h-6v92h174q20 0 31 8h-182l-17 17h-6v94h220l-2 4l-2 4q-5 1 -10.5 1.5t-11.5 0.5h-171zM236 298q63 0 88.5 39t25.5 111q0 69 -26 108.5t-83 39.5h-186v-60
h158q38 0 51.5 -16.5t13.5 -42.5h-223v-62h223q0 -57 -65 -57h-158v-60h181z" />
    <glyph glyph-name="FL00B4h" unicode="&#xb4;" horiz-adv-x="308" 
d="M99 573q8 11 22.5 25t31.5 14q25 0 51 -21q12 -10 22.5 -19t15.5 -20l1 -1q0 1 -1 1v0q1 0 1 -1l3 -2q18 -16 18 -37q0 -24 -13 -41l-67 -75q-18 -24 -47 -24q-27 0 -49 19q-1 0 -3 2l-5 5q0 -1 1 -1t1 -1l-1 2q-4 2 -7.5 4.5t-7.5 6.5q-15 14 -21 26.5t-6 32.5
q0 12 2.5 22t9.5 20zM65 503q-10 -16 -10 -35q0 -15 5 -25.5t17 -21.5q10 -9 19.5 -12.5t20.5 -3.5q23 0 37 20l67 75q10 13 10 32q0 15 -11.5 25.5t-25.5 21.5q-20 17 -41 17q-11 0 -23 -12t-19 -21z" />
    <glyph glyph-name="FL00B5h" unicode="&#xb5;" 
d="M39 612h179v-6l17 -17v-211h238q63 13 72 69v166h178v-6l17 -17v-77q0 -73 -14 -130.5t-44 -97t-78.5 -60.5t-117.5 -21l-1 1h-248q2 -8 4.5 -15t6.5 -13q20 -20 49 -28.5t65 -8.5h215v-6l17 -17v-150h-247q-66 0 -116 17t-85 49q-55 39 -81.5 105.5t-26.5 157.5zM54 296
q0 -139 67 -217.5t206 -78.5h234v124h-199q-63 0 -106 24t-55 90h278v-1q62 0 105.5 20t70.5 58t39.5 93t12.5 125v64h-146v-152q-11 -68 -83 -83h-276v234h-147z" />
    <glyph glyph-name="FL00B6h" unicode="&#xb6;" horiz-adv-x="761" 
d="M321 0h-133v123q-40 20 -73 59q-32 39 -46.5 81t-14.5 87h2l-1 1q0 45 15 87t47 80q30 40 70 59t86 19h410v-596h-144v478h-218v-478zM172 108v-124h6l17 -17h159v478h169v-461h6l17 -17h170v622l-17 17v6h-426q-50 0 -92.5 -20.5t-75.5 -63.5q-60 -72 -66 -162h-1
q0 -56 15 -104t50 -90q22 -26 44 -43q13 -13 25 -21z" />
    <glyph glyph-name="FL00B7h" unicode="&#xb7;" horiz-adv-x="283" 
d="M55 295q0 26 21.5 44.5t53.5 18.5t54 -18.5t22 -44.5t-22 -44.5t-54 -18.5t-53.5 18.5t-21.5 44.5zM39 295q0 -44 40 -66l4 -4q12 -12 29.5 -19t37.5 -7q38 0 63.5 22t25.5 54q0 28 -21 49l-4 4q-11 20 -33 33t-51 13q-39 0 -65 -23t-26 -56z" />
    <glyph glyph-name="FL00ACh" unicode="&#xb8;" 
d="M347 -33q-66 0 -116 17t-85 49q-55 39 -81.5 105.5t-26.5 157.5v81h499q-11 27 -31 45q-18 9 -40 13t-47 4h-358l-17 17h-6v156h396q84 0 142 -27.5t93 -78.5q71 -80 71 -226v-75h-503q2 -8 4.5 -15t6.5 -13q20 -20 49 -28.5t65 -8.5h361v-6l17 -17v-150h-393zM399 472
q63 0 105 -23.5t56 -87.5h-506v-65q0 -139 67 -217.5t206 -78.5h380v124h-345q-63 0 -106 24t-55 90h506v62q0 139 -67 217.5t-206 78.5h-380v-124h345z" />
    <glyph glyph-name="FL00B9h" unicode="&#xb9;" horiz-adv-x="239" 
d="M162 595v-298h-72v239h-35v59h107zM39 611v-91h6l17 -17h12v-222h6l17 -17h98v324l-17 17v6h-139z" />
    <glyph glyph-name="FL00BAh" unicode="&#xba;" horiz-adv-x="455" 
d="M217 536q-51 0 -72 -14.5t-21 -39.5v-70q0 -26 18.5 -41.5t70.5 -15.5q30 0 48 3t28.5 10t14 18.5t3.5 28.5v67q0 11 -3 21t-12.5 17.5t-27.5 11.5t-47 4zM378 397q0 -26 -8 -44.5t-27 -31.5t-51 -19t-79 -6q-45 0 -75.5 7t-49 19.5t-26 31t-7.5 42.5v98q0 24 8 43
t27 31.5t50 19.5t77 7q47 0 78 -6t49.5 -18.5t26 -31t7.5 -43.5v-99zM88 302q19 -19 53.5 -29t91.5 -10q51 0 85 7t55 21t29.5 35.5t8.5 50.5v99q0 50 -25 75l-5 5q-16 28 -54 41.5t-110 13.5q-51 0 -85 -8t-54.5 -23t-29.5 -36.5t-9 -49.5v-98q0 -31 10 -54t36 -38z
M157 392v70q0 19 18 30t62 11q32 0 51 -7q3 -6 3 -14v-67q0 -12 -3 -20.5t-11.5 -14t-24 -7.5t-39.5 -2q-38 0 -56 9v12z" />
    <glyph glyph-name="FL00BBh" unicode="&#xbb;" horiz-adv-x="555" 
d="M276 475l218 -125v-5l17 -17v-111l-212 -119l-18 18l-5 -3v136l81 42l-58 32l-13 12l-10 6v134zM39 475l218 -125v-5l17 -17v-111l-212 -119l-18 18l-5 -3v136l81 42l-58 32l-13 12l-10 6v134zM55 351l105 -55l-105 -56v-100l186 104v97l-186 107v-97zM292 351l105 -55
l-105 -56v-100l186 104v97l-186 107v-97z" />
    <glyph glyph-name="FL0050h" unicode="&#xbc;" horiz-adv-x="760" 
d="M199 477v-119h344q-2 24 -9.5 46t-24 38t-42.5 25.5t-64 9.5h-204zM199 0h-144v596h410q47 0 86.5 -21.5t68.5 -56.5t45.5 -79t17.5 -88v-116h-484v-235zM62 -33h170v235h484v129q-2 50 -21.5 99t-54.5 87q-32 42 -76.5 68.5t-98.5 26.5h-426v-628h6zM232 444h191
q44 0 74 -16q11 -11 17 -24.5t10 -29.5h-292v70z" />
    <glyph glyph-name="FL00BDh" unicode="&#xbd;" horiz-adv-x="885" 
d="M285 596v-298h-84v239h-41v59h125zM107 0l509 596h139l-504 -596h-144zM528 0v179h253q-6 33 -27.5 45t-53.5 12h-172v62h190q69 0 102.5 -39.5t33.5 -108.5v-33h-253v-55h253v-62h-326zM144 612v-91h6l17 -17h18v-222h6l17 -17h105l-240 -281h9l17 -17h178l235 277v-24
h6l17 -17h185q22 0 35 -5q1 -1 1 -2l1 -1h-245v-211h6l17 -17h352v88l-17 17v6h-236v6h253v46q0 82 -41 123l-2 1q-37 60 -126 60h-148l233 275l-18 18l4 5h-180l-291 -341v318l-17 17v6h-157z" />
    <glyph glyph-name="FL0052h" unicode="&#xbe;" horiz-adv-x="760" 
d="M199 477v-119h344q-2 24 -9.5 46t-24 38t-42.5 25.5t-64 9.5h-204zM491 235l174 -235h-160l-172 235h-134v-235h-144v596h410q47 0 87 -21.5t69 -56.5t45.5 -79t16.5 -88v-116h-192zM62 -33h170v235h105l161 -218h4l17 -17h192l-175 235h180v129q0 49 -19.5 97.5
t-53.5 85.5q-32 43 -77.5 70.5t-100.5 27.5h-426v-628h6zM232 444h191q44 0 74 -16q11 -11 17 -24.5t10 -29.5h-292v70z" />
    <glyph glyph-name="FL00BFh" unicode="&#xbf;" horiz-adv-x="787" 
d="M709 530q0 -26 -21.5 -44.5t-53.5 -18.5t-54 18.5t-22 44.5t22 44.5t54 18.5t53.5 -18.5t21.5 -44.5zM561 422h146v-186h-506q12 -66 55 -90t106 -24h345v-124h-380q-139 0 -206 78.5t-67 217.5v65h506zM38 294q0 -91 26.5 -157.5t81.5 -105.5q35 -32 85 -49t116 -17h393
v150l-17 17v6h-361q-36 0 -65 8.5t-49 28.5q-4 6 -6.5 13t-4.5 15h503v212l-17 17v6h-41q26 8 43 27t17 45q0 29 -21 50l-6 5q-11 20 -32 32t-49 12q-39 0 -65.5 -23t-26.5 -56q0 -21 11 -38.5t31 -28.5l2 -2q8 -8 17.5 -14t21.5 -9h-80l-1 -63h-506v-81z" />
    <glyph glyph-name="FL00C0h" unicode="&#xc0;" horiz-adv-x="760" 
d="M335 477q-38 0 -64 -9.5t-42.5 -25.5t-24 -38t-9.5 -46h344v119h-204zM55 0v351q0 44 16.5 88t45.5 79t69 56.5t87 21.5h410v-596h-144v235h-345v-235h-139zM449 779q10 -16 10 -35q0 -15 -5 -25.5t-17 -21.5q-10 -9 -19.5 -12.5t-20.5 -3.5q-23 0 -37 20l-67 75
q-10 13 -10 32q0 15 12.5 24.5t24.5 22.5q20 17 41 17q11 0 23 -12t19 -21zM62 -33h165v235h296v-218h6l17 -17h170v622l-17 17v6h-426q-50 0 -93 -23t-74.5 -60.5t-49 -84t-17.5 -93.5v-367h6zM415 849q-8 11 -23 25t-31 14q-26 0 -51 -21l-7 -7t-7 -6q-12 -9 -20.5 -19.5
t-8.5 -26.5q0 -25 14 -43l68 -76q9 -12 21 -18l7 -7q18 -16 40 -16q27 0 49 19q14 13 20 25.5t6 31.5q0 23 -11 40l-48 63q-3 4 -12 13zM355 444h168v-70h-288q10 30 38 50t82 20z" />
    <glyph glyph-name="FL00C1h" unicode="&#xc1;" horiz-adv-x="760" 
d="M335 477q-38 0 -64 -9.5t-42.5 -25.5t-24 -38t-9.5 -46h344v119h-204zM55 0v351q0 44 16.5 88t45.5 79t69 56.5t87 21.5h410v-596h-144v235h-345v-235h-139zM380 838q7 9 19 21t23 12q21 0 41 -17q12 -13 24.5 -22.5t12.5 -24.5q0 -19 -10 -32l-67 -75q-14 -20 -37 -20
q-11 0 -20.5 3.5t-19.5 12.5q-12 11 -17 21.5t-5 25.5q0 19 10 35zM62 -33h165v235h296v-218h6l17 -17h170v622l-17 17v6h-426q-50 0 -93 -23t-74.5 -60.5t-49 -84t-17.5 -93.5v-367h6zM320 785q-7 -10 -9.5 -20t-2.5 -22q0 -20 6 -32.5t21 -26.5q4 -4 7.5 -6.5t7.5 -4.5
l3 -3q1 -1 1.5 -2t2.5 -2q22 -19 49 -19q29 0 47 24l67 75q13 17 13 41q0 11 -4 18t-11 14l-5 5q-4 9 -11 15.5t-15 13.5q-4 3 -7 6l-7 7q-26 21 -51 21q-17 0 -31.5 -14t-22.5 -25zM355 444h168v-70h-288q10 30 38 50t82 20z" />
    <glyph glyph-name="FL00C2h" unicode="&#xc2;" horiz-adv-x="760" 
d="M335 477q-38 0 -64 -9.5t-42.5 -25.5t-24 -38t-9.5 -46h344v119h-204zM55 0v351q0 44 16.5 88t45.5 79t69 56.5t87 21.5h410v-596h-144v235h-345v-235h-139zM453 679l-55 105l-56 -105h-100l104 186h97l107 -186h-97zM62 -33h165v235h296v-218h6l17 -17h170v622l-17 17v6
h-426q-50 0 -93 -23t-74.5 -60.5t-49 -84t-17.5 -93.5v-367h6zM240 646h129l41 78l33 -61h5l17 -17h127l-122 212l-12 11l-6 12h-115l-122 -218h8zM355 444h168v-70h-288q10 30 38 50t82 20z" />
    <glyph glyph-name="FL00C3h" unicode="&#xc3;" horiz-adv-x="760" 
d="M335 477q-38 0 -64 -9.5t-42.5 -25.5t-24 -38t-9.5 -46h344v119h-204zM55 0v351q0 44 16.5 88t45.5 79t69 56.5t87 21.5h410v-596h-144v235h-345v-235h-139zM397 842l58 -89l54 88h100l-104 -162h-97l-59 88l-53 -87h-100l104 162h97zM62 -33h165v235h296v-218h6l17 -17
h170v622l-17 17v6h-426q-50 0 -93 -23t-74.5 -60.5t-49 -84t-17.5 -93.5v-367h6zM291 858l-125 -194h9l17 -17h131l41 68l36 -52h4l17 -17h111l121 188l-18 17l4 6h-139l-44 -71l-32 49l-9 9l-9 14h-115zM355 444h168v-70h-288q10 30 38 50t82 20z" />
    <glyph glyph-name="FL00C4h" unicode="&#xc4;" horiz-adv-x="760" 
d="M335 477q-38 0 -64 -9.5t-42.5 -25.5t-24 -38t-9.5 -46h344v119h-204zM55 0v351q0 44 16.5 88t45.5 79t69 56.5t87 21.5h410v-596h-144v235h-345v-235h-139zM199 731q0 26 21.5 44.5t53.5 18.5t54 -18.5t22 -44.5t-22 -44.5t-54 -18.5t-53.5 18.5t-21.5 44.5zM400 731
q0 26 21.5 44.5t53.5 18.5t54 -18.5t22 -44.5t-22 -44.5t-54 -18.5t-53.5 18.5t-21.5 44.5zM62 -33h165v235h296v-218h6l17 -17h170v622l-17 17v6h-426q-50 0 -93 -23t-74.5 -60.5t-49 -84t-17.5 -93.5v-367h6zM183 731q0 -44 40 -66l4 -4q12 -12 29.5 -19t37.5 -7
q38 0 63.5 22t25.5 54q0 28 -21 49l-3 2l-1 1q1 0 1 -1v0l-1 2q-11 20 -33 33t-51 13q-39 0 -65 -23t-26 -56zM384 731q0 -44 40 -66l4 -4q12 -12 29.5 -19t37.5 -7q38 0 63.5 22t25.5 54q0 28 -21 49l-3 2l-1 1q1 0 1 -1v0l-1 2q-11 20 -33 33t-51 13q-39 0 -65 -23
t-26 -56zM355 444h168v-70h-288q10 30 38 50t82 20z" />
    <glyph glyph-name="FL00C5h" unicode="&#xc5;" horiz-adv-x="760" 
d="M335 477q-38 0 -64 -9.5t-42.5 -25.5t-24 -38t-9.5 -46h344v119h-204zM55 0v351q0 44 16.5 88t45.5 79t69 56.5t87 21.5h410v-596h-144v235h-345v-235h-139zM300 730q0 26 21.5 44.5t53.5 18.5t54 -18.5t22 -44.5t-22 -44.5t-54 -18.5t-53.5 18.5t-21.5 44.5zM62 -33h165
v235h296v-218h6l17 -17h170v622l-17 17v6h-426q-50 0 -93 -23t-74.5 -60.5t-49 -84t-17.5 -93.5v-367h6zM284 730q0 -44 40 -66l4 -4q12 -12 29.5 -19t37.5 -7q38 0 63.5 22t25.5 54q0 28 -21 49l-4 4q-11 20 -33 33t-51 13q-39 0 -65 -23t-26 -56zM355 444h168v-70h-288
q10 30 38 50t82 20z" />
    <glyph glyph-name="FL00C6h" unicode="&#xc6;" horiz-adv-x="1206" 
d="M335 477q-38 0 -64 -9.5t-42.5 -25.5t-24 -38t-9.5 -46v-136h344v255h-204zM55 0v351q0 44 16.5 88t45.5 79t69 56.5t87 21.5h856v-119h-316q-38 0 -63 -9t-40 -25t-21 -37.5t-6 -46.5h360v-124h-360q0 -114 130 -114h316v-121h-589v105h-346v-105h-139zM716 202h360v150
l-17 17v6h-340q8 31 34 50t80 19h329v145l-17 17v6h-872q-50 0 -93 -23t-74.5 -60.5t-49 -84t-17.5 -93.5v-367h6l17 -17h165v105h297v-88h6l17 -17h615v147l-17 17v6h-332q-60 0 -88 28q-7 15 -9 37zM228 338q1 21 8 40.5t22 34t38.5 23t58.5 8.5h168v-206h-295v100z" />
    <glyph glyph-name="FL00C7h" unicode="&#xc7;" horiz-adv-x="722" 
d="M208 -48h62q24 0 42 1t30.5 5.5t20.5 14t11 27.5h-91q-63 0 -106.5 20.5t-70.5 59t-39 94t-12 126.5q0 139 53 217.5t165 78.5h372v-119h-316q-38 0 -63 -9t-40 -25t-21 -38t-6 -47v-123q0 -114 130 -114h316v-121h-131q-14 -92 -67.5 -130.5t-157.5 -38.5h-81v121z
M192 -185h6l17 -17h94q107 0 163 38.5t73 130.5h133v147l-17 17v6h-332q-58 0 -86 25q-11 19 -11 53v123q0 23 5.5 42.5t19 33.5t36 22t56.5 8h329v145l-17 17v6h-388q-60 0 -104 -21.5t-73 -61.5t-43 -98t-14 -131q0 -99 22.5 -169t75.5 -108q49 -47 139 -55h-6h-78v-153z
" />
    <glyph glyph-name="FL00C8h" unicode="&#xc8;" horiz-adv-x="722" 
d="M439 779q10 -16 10 -35q0 -15 -5 -25.5t-17 -21.5q-10 -9 -19.5 -12.5t-20.5 -3.5q-23 0 -37 20l-67 75q-10 13 -10 32q0 15 12.5 24.5t24.5 22.5q20 17 41 17q11 0 23 -12t19 -21zM283 0q-63 0 -106.5 20.5t-70.5 59t-39 94t-12 126.5q0 139 53 217.5t165 78.5h372v-119
h-316q-38 0 -63 -9t-40 -25t-21 -37t-6 -46h445v-125h-445q0 -114 130 -114h316v-121h-362zM232 202h445v151l-17 17v6h-425q8 30 34 49t80 19h329v145l-17 17v6h-388q-60 0 -104 -21.5t-73 -61.5t-43 -98t-14 -131q0 -99 22.5 -169t75.5 -108q59 -56 166 -56h375v147
l-17 17v6h-332q-60 0 -88 28q-7 15 -9 37zM405 849q-8 11 -23 25t-31 14q-26 0 -51 -21l-7 -7t-7 -6q-12 -9 -20.5 -19.5t-8.5 -26.5q0 -25 14 -43l68 -76q9 -12 21 -18l7 -7q18 -16 40 -16q27 0 49 19q14 13 20 25.5t6 31.5q0 23 -11 40l-48 63q-3 4 -12 13z" />
    <glyph glyph-name="FL00C9h" unicode="&#xc9;" horiz-adv-x="722" 
d="M388 840q7 9 19 21t23 12q21 0 41 -17q12 -13 24.5 -22.5t12.5 -24.5q0 -19 -10 -32l-67 -75q-14 -20 -37 -20q-11 0 -20.5 3.5t-19.5 12.5q-12 11 -17 21.5t-5 25.5q0 19 10 35zM283 0q-63 0 -106.5 20.5t-70.5 59t-39 94t-12 126.5q0 139 53 217.5t165 78.5h372v-119
h-316q-38 0 -63 -9t-40 -24.5t-21 -37t-6 -45.5h447v-126h-447q0 -114 130 -114h316v-121h-362zM232 202h447v152l-17 17v6h-427q8 29 34 48t80 19h329v145l-17 17v6h-388q-60 0 -104 -21.5t-73 -61.5t-43 -98t-14 -131q0 -99 22.5 -169t75.5 -108q59 -56 166 -56h375v147
l-17 17v6h-332q-60 0 -88 28q-7 15 -9 37zM328 787q-7 -10 -9.5 -20t-2.5 -22q0 -20 6 -32.5t21 -26.5q4 -4 7.5 -6.5t7.5 -4.5l3 -3q1 -1 1.5 -2t2.5 -2q22 -19 49 -19q29 0 47 24l67 75q13 17 13 41q0 11 -4 18t-11 14l-5 5q-4 9 -11 15.5t-15 13.5q-4 3 -7 6l-7 7
q-26 21 -51 21q-17 0 -31.5 -14t-22.5 -25z" />
    <glyph glyph-name="FL00CAh" unicode="&#xca;" horiz-adv-x="722" 
d="M436 678l-55 105l-56 -105h-100l104 186h97l107 -186h-97zM283 0q-63 0 -106.5 20.5t-70.5 59t-39 94t-12 126.5q0 139 53 217.5t165 78.5h372v-119h-316q-38 0 -63 -9t-40 -25t-21 -37t-6 -46h446v-125h-446q0 -114 130 -114h316v-121h-362zM232 202h446v151l-17 17v6
h-426q8 30 34 49t80 19h329v145l-17 17v6h-388q-60 0 -104 -21.5t-73 -61.5t-43 -98t-14 -131q0 -99 22.5 -169t75.5 -108q59 -56 166 -56h375v147l-17 17v6h-332q-60 0 -88 28q-7 15 -9 37zM223 645h129l41 78l33 -61h5l17 -17h127l-122 212l-12 11l-6 12h-115l-122 -218h8
z" />
    <glyph glyph-name="FL00CBh" unicode="&#xcb;" horiz-adv-x="722" 
d="M213 730q0 26 21.5 44.5t53.5 18.5t54 -18.5t22 -44.5t-22 -44.5t-54 -18.5t-53.5 18.5t-21.5 44.5zM414 730q0 26 21.5 44.5t53.5 18.5t54 -18.5t22 -44.5t-22 -44.5t-54 -18.5t-53.5 18.5t-21.5 44.5zM283 0q-63 0 -106.5 20.5t-70.5 59t-39 94t-12 126.5
q0 139 53 217.5t165 78.5h372v-119h-316q-38 0 -63 -9t-40 -25t-21 -38t-6 -47h447v-123h-447q0 -114 130 -114h316v-121h-362zM232 202h447v149l-17 17v6h-427q8 31 34 50.5t80 19.5h329v145l-17 17v6h-388q-60 0 -104 -21.5t-73 -61.5t-43 -98t-14 -131q0 -99 22.5 -169
t75.5 -108q59 -56 166 -56h375v147l-17 17v6h-332q-60 0 -88 28q-7 15 -9 37zM398 730q0 -44 40 -66l4 -4q12 -12 29.5 -19t37.5 -7q38 0 63.5 22t25.5 54q0 28 -21 49l-4 4q-11 20 -33 33t-51 13q-39 0 -65 -23t-26 -56zM197 730q0 -44 40 -66l4 -4q12 -12 29.5 -19
t37.5 -7q38 0 63.5 22t25.5 54q0 28 -21 49l-4 4q-11 20 -33 33t-51 13q-39 0 -65 -23t-26 -56z" />
    <glyph glyph-name="FL00CCh" unicode="&#xcc;" horiz-adv-x="716" 
d="M385 842q9 -9 12 -13l48 -63q11 -17 11 -40q0 -19 -6 -31.5t-20 -25.5q-22 -19 -49 -19q-22 0 -40 16l-7 7q-12 6 -21 18l-68 76q-14 18 -14 43q0 16 8.5 26.5t20.5 19.5q4 3 7 6l7 7q25 21 51 21q16 0 31 -14t23 -25zM39 135h225v309h-202l-17 17h-6v151h616v-6l17 -17
v-145h-219v-309h202v-6l17 -17v-145h-610l-17 17h-6v151zM367 841q-7 9 -19 21t-23 12q-21 0 -41 -17q-12 -13 -24.5 -22.5t-12.5 -24.5q0 -19 10 -32l67 -75q14 -20 37 -20q11 0 20.5 3.5t19.5 12.5q12 11 17 21.5t5 25.5q0 19 -10 35zM55 0h584v119h-219v358h219v119h-584
v-119h225v-358h-225v-119z" />
    <glyph glyph-name="FL00CDh" unicode="&#xcd;" horiz-adv-x="716" 
d="M327 841q7 9 19 21t23 12q21 0 41 -17q12 -13 24.5 -22.5t12.5 -24.5q0 -19 -10 -32l-67 -75q-14 -20 -37 -20q-11 0 -20.5 3.5t-19.5 12.5q-12 11 -17 21.5t-5 25.5q0 19 10 35zM639 0h-584v119h219v358h-219v119h584v-119h-225v-358h225v-119zM655 135h-208v309h225
v145l-17 17v6h-616v-151h6l17 -17h196v-309h-219v-151h6l17 -17h610v145l-17 17v6zM267 788q-7 -10 -9.5 -20t-2.5 -22q0 -20 6 -32.5t21 -26.5q4 -4 7.5 -6.5t7.5 -4.5l3 -3q1 -1 1.5 -2t2.5 -2q22 -19 49 -19q29 0 47 24l67 75q13 17 13 41q0 11 -4 18t-11 14l-5 5
q-4 9 -11 15.5t-15 13.5q-4 3 -7 6l-7 7q-26 21 -51 21q-17 0 -31.5 -14t-22.5 -25z" />
    <glyph glyph-name="FL00EEh" unicode="&#xce;" horiz-adv-x="716" 
d="M402 681l-55 105l-56 -105h-100l104 186h97l107 -186h-97zM639 0h-584v119h219v358h-219v119h584v-119h-225v-358h225v-119zM655 135h-208v309h225v145l-17 17v6h-616v-151h6l17 -17h196v-309h-219v-151h6l17 -17h610v145l-17 17v6zM189 648h129l41 78l33 -61h5l17 -17
h127l-122 212l-12 11l-6 12h-115l-122 -218h8z" />
    <glyph glyph-name="FL00CFh" unicode="&#xcf;" horiz-adv-x="716" 
d="M169 732q0 26 21.5 44.5t53.5 18.5t54 -18.5t22 -44.5t-22 -44.5t-54 -18.5t-53.5 18.5t-21.5 44.5zM370 732q0 26 21.5 44.5t53.5 18.5t54 -18.5t22 -44.5t-22 -44.5t-54 -18.5t-53.5 18.5t-21.5 44.5zM639 0h-584v119h219v358h-219v119h584v-119h-225v-358h225v-119z
M655 135h-208v309h225v145l-17 17v6h-616v-151h6l17 -17h196v-309h-219v-151h6l17 -17h610v145l-17 17v6zM153 732q0 -44 40 -66l4 -4q12 -12 29.5 -19t37.5 -7q38 0 63.5 22t25.5 54q0 28 -21 49l-4 4q-11 20 -33 33t-51 13q-39 0 -65 -23t-26 -56zM354 732q0 -44 40 -66
l4 -4q12 -12 29.5 -19t37.5 -7q38 0 63.5 22t25.5 54q0 28 -21 49l-4 4q-11 20 -33 33t-51 13q-39 0 -65 -23t-26 -56z" />
    <glyph glyph-name="FL00AAh" unicode="&#xd0;" horiz-adv-x="761" 
d="M228 226q2 -34 16 -60q14 -14 36.5 -22.5t54.5 -8.5h188v204h-169q-67 0 -94 -27.5t-32 -85.5zM104 423q33 43 75.5 63.5t92.5 20.5h251v105h176v-6l17 -17v-622h-423q-82 0 -143 56q-13 10 -24.5 21.5t-21.5 25.5q-31 37 -46.5 76t-18.5 84h-1q0 57 15.5 104.5
t50.5 88.5zM539 372v-253h-204q-38 0 -64 11t-42.5 29t-24 41t-9.5 47q3 32 11.5 55.5t24.5 39t41 23t62 7.5h205zM539 491h-267q-46 0 -86 -19t-70 -59q-32 -38 -47 -80t-15 -87h2l-1 -1q0 -45 14.5 -86t46.5 -79q30 -40 70.5 -60t86.5 -20h410v596h-144v-105z" />
    <glyph glyph-name="FL00D1h" unicode="&#xd1;" horiz-adv-x="780" 
d="M381 841l58 -89l54 88h100l-104 -162h-97l-59 88l-53 -87h-100l104 162h97zM564 0v331q0 29 -5.5 55.5t-21 46.5t-43 32t-71.5 12h-224v-477h-144v596h430q46 0 86 -19t70 -59q32 -38 47 -80t15 -87v-351h-139zM62 -33h170v477h211q46 0 76 -16q17 -19 23 -44t6 -53v-347
h6l17 -17h165v364q0 48 -15.5 91.5t-49.5 83.5q-3 3 -5.5 6.5t-5.5 6.5t-7 9q-33 43 -75.5 63.5t-92.5 20.5h-446v-628h6zM275 857l-125 -194h9l17 -17h131l41 68l36 -52h4l17 -17h111l121 188l-18 17l4 6h-139l-44 -71l-32 49l-9 9l-9 14h-115z" />
    <glyph glyph-name="FL00D2h" unicode="&#xd2;" horiz-adv-x="779" 
d="M373 478q-51 0 -85.5 -8t-55.5 -22t-30 -34.5t-9 -45.5v-135q0 -26 8.5 -47.5t29 -36.5t55 -23t86.5 -8q59 0 95.5 6t57 20t27.5 37t7 57v120q0 34 -7 57t-27 37t-56.5 20t-95.5 6zM702 203q0 -51 -16 -89t-54.5 -63.5t-102 -38t-157.5 -12.5q-91 0 -152 13.5t-97.5 39
t-52 63t-15.5 84.5v193q0 48 15.5 85.5t52 64t97.5 40t153 13.5q94 0 157 -12.5t101 -37.5t54.5 -62.5t16.5 -87.5v-193zM449 779q10 -16 10 -35q0 -15 -5 -25.5t-17 -21.5q-10 -9 -19.5 -12.5t-20.5 -3.5q-23 0 -37 20l-67 75q-10 13 -10 32q0 15 12.5 24.5t24.5 22.5
q20 17 41 17q11 0 23 -12t19 -21zM392 -33q98 0 164 13.5t105.5 40.5t56.5 67.5t17 94.5v193q0 43 -10.5 77t-36.5 60q-32 49 -107 74t-208 25q-96 0 -160 -15t-103 -43t-55 -68.5t-16 -92.5v-193q0 -53 16.5 -93t57.5 -68q36 -35 103 -53.5t176 -18.5zM226 213v135
q0 22 8.5 40t28 30.5t51.5 19.5t79 7q49 0 80.5 -4t51.5 -14q11 -12 14.5 -29t3.5 -40v-120q0 -30 -6.5 -50t-25.5 -32t-52 -17t-87 -5t-86.5 8.5t-50.5 24.5q-5 10 -7 21t-2 25zM415 849q-8 11 -23 25t-31 14q-26 0 -51 -21l-7 -7t-7 -6q-12 -9 -20.5 -19.5t-8.5 -26.5
q0 -25 14 -43l68 -76q9 -12 21 -18l7 -7q18 -16 40 -16q27 0 49 19q14 13 20 25.5t6 31.5q0 23 -11 40l-48 63q-3 4 -12 13z" />
    <glyph glyph-name="FL00D3h" unicode="&#xd3;" horiz-adv-x="779" 
d="M373 478q-51 0 -85.5 -8t-55.5 -22t-30 -34.5t-9 -45.5v-135q0 -26 8.5 -47.5t29 -36.5t55 -23t86.5 -8q59 0 95.5 6t57 20t27.5 37t7 57v120q0 34 -7 57t-27 37t-56.5 20t-95.5 6zM702 203q0 -51 -16 -89t-54.5 -63.5t-102 -38t-157.5 -12.5q-91 0 -152 13.5t-97.5 39
t-52 63t-15.5 84.5v193q0 48 15.5 85.5t52 64t97.5 40t153 13.5q94 0 157 -12.5t101 -37.5t54.5 -62.5t16.5 -87.5v-193zM355 839q7 9 19 21t23 12q21 0 41 -17q12 -13 24.5 -22.5t12.5 -24.5q0 -19 -10 -32l-67 -75q-14 -20 -37 -20q-11 0 -20.5 3.5t-19.5 12.5
q-12 11 -17 21.5t-5 25.5q0 19 10 35zM392 -33q98 0 164 13.5t105.5 40.5t56.5 67.5t17 94.5v193q0 43 -10.5 77t-36.5 60q-32 49 -107 74t-208 25q-96 0 -160 -15t-103 -43t-55 -68.5t-16 -92.5v-193q0 -53 16.5 -93t57.5 -68q36 -35 103 -53.5t176 -18.5zM226 213v135
q0 22 8.5 40t28 30.5t51.5 19.5t79 7q49 0 80.5 -4t51.5 -14q11 -12 14.5 -29t3.5 -40v-120q0 -30 -6.5 -50t-25.5 -32t-52 -17t-87 -5t-86.5 8.5t-50.5 24.5q-5 10 -7 21t-2 25zM295 786q-7 -10 -9.5 -20t-2.5 -22q0 -20 6 -32.5t21 -26.5q4 -4 7.5 -6.5t7.5 -4.5l3 -3
q1 -1 1.5 -2t2.5 -2q22 -19 49 -19q29 0 47 24l67 75q13 17 13 41q0 11 -4 18t-11 14l-5 5q-4 9 -11 15.5t-15 13.5q-4 3 -7 6l-7 7q-26 21 -51 21q-17 0 -31.5 -14t-22.5 -25z" />
    <glyph glyph-name="FL00D4h" unicode="&#xd4;" horiz-adv-x="779" 
d="M373 478q-51 0 -85.5 -8t-55.5 -22t-30 -34.5t-9 -45.5v-135q0 -26 8.5 -47.5t29 -36.5t55 -23t86.5 -8q59 0 95.5 6t57 20t27.5 37t7 57v120q0 34 -7 57t-27 37t-56.5 20t-95.5 6zM702 203q0 -51 -16 -89t-54.5 -63.5t-102 -38t-157.5 -12.5q-91 0 -152 13.5t-97.5 39
t-52 63t-15.5 84.5v193q0 48 15.5 85.5t52 64t97.5 40t153 13.5q94 0 157 -12.5t101 -37.5t54.5 -62.5t16.5 -87.5v-193zM433 681l-55 105l-56 -105h-100l104 186h97l107 -186h-97zM392 -33q98 0 164 13.5t105.5 40.5t56.5 67.5t17 94.5v193q0 43 -10.5 77t-36.5 60
q-32 49 -107 74t-208 25q-96 0 -160 -15t-103 -43t-55 -68.5t-16 -92.5v-193q0 -53 16.5 -93t57.5 -68q36 -35 103 -53.5t176 -18.5zM226 213v135q0 22 8.5 40t28 30.5t51.5 19.5t79 7q49 0 80.5 -4t51.5 -14q11 -12 14.5 -29t3.5 -40v-120q0 -30 -6.5 -50t-25.5 -32
t-52 -17t-87 -5t-86.5 8.5t-50.5 24.5q-5 10 -7 21t-2 25zM220 648h129l41 78l33 -61h5l17 -17h127l-122 212l-12 11l-6 12h-115l-122 -218h8z" />
    <glyph glyph-name="FL00D5h" unicode="&#xd5;" horiz-adv-x="779" 
d="M373 478q-51 0 -85.5 -8t-55.5 -22t-30 -34.5t-9 -45.5v-135q0 -26 8.5 -47.5t29 -36.5t55 -23t86.5 -8q59 0 95.5 6t57 20t27.5 37t7 57v120q0 34 -7 57t-27 37t-56.5 20t-95.5 6zM702 203q0 -51 -16 -89t-54.5 -63.5t-102 -38t-157.5 -12.5q-91 0 -152 13.5t-97.5 39
t-52 63t-15.5 84.5v193q0 48 15.5 85.5t52 64t97.5 40t153 13.5q94 0 157 -12.5t101 -37.5t54.5 -62.5t16.5 -87.5v-193zM380 843l58 -89l54 88h100l-104 -162h-97l-59 88l-53 -87h-100l104 162h97zM392 -33q98 0 164 13.5t105.5 40.5t56.5 67.5t17 94.5v193q0 43 -10.5 77
t-36.5 60q-32 49 -107 74t-208 25q-96 0 -160 -15t-103 -43t-55 -68.5t-16 -92.5v-193q0 -53 16.5 -93t57.5 -68q36 -35 103 -53.5t176 -18.5zM226 213v135q0 22 8.5 40t28 30.5t51.5 19.5t79 7q49 0 80.5 -4t51.5 -14q11 -12 14.5 -29t3.5 -40v-120q0 -30 -6.5 -50
t-25.5 -32t-52 -17t-87 -5t-86.5 8.5t-50.5 24.5q-5 10 -7 21t-2 25zM274 859l-125 -194h9l17 -17h131l41 68l36 -52h4l17 -17h111l121 188l-18 17l4 6h-139l-44 -71l-32 49l-9 9l-9 14h-115z" />
    <glyph glyph-name="FL00D6h" unicode="&#xd6;" horiz-adv-x="779" 
d="M373 478q-51 0 -85.5 -8t-55.5 -22t-30 -34.5t-9 -45.5v-135q0 -26 8.5 -47.5t29 -36.5t55 -23t86.5 -8q59 0 95.5 6t57 20t27.5 37t7 57v120q0 34 -7 57t-27 37t-56.5 20t-95.5 6zM702 203q0 -51 -16 -89t-54.5 -63.5t-102 -38t-157.5 -12.5q-91 0 -152 13.5t-97.5 39
t-52 63t-15.5 84.5v193q0 48 15.5 85.5t52 64t97.5 40t153 13.5q94 0 157 -12.5t101 -37.5t54.5 -62.5t16.5 -87.5v-193zM199 731q0 26 21.5 44.5t53.5 18.5t54 -18.5t22 -44.5t-22 -44.5t-54 -18.5t-53.5 18.5t-21.5 44.5zM400 731q0 26 21.5 44.5t53.5 18.5t54 -18.5
t22 -44.5t-22 -44.5t-54 -18.5t-53.5 18.5t-21.5 44.5zM392 -33q98 0 164 13.5t105.5 40.5t56.5 67.5t17 94.5v193q0 43 -10.5 77t-36.5 60q-32 49 -107 74t-208 25q-96 0 -160 -15t-103 -43t-55 -68.5t-16 -92.5v-193q0 -53 16.5 -93t57.5 -68q36 -35 103 -53.5t176 -18.5z
M226 213v135q0 22 8.5 40t28 30.5t51.5 19.5t79 7q49 0 80.5 -4t51.5 -14q11 -12 14.5 -29t3.5 -40v-120q0 -30 -6.5 -50t-25.5 -32t-52 -17t-87 -5t-86.5 8.5t-50.5 24.5q-5 10 -7 21t-2 25zM384 731q0 -44 40 -66l4 -4q12 -12 29.5 -19t37.5 -7q38 0 63.5 22t25.5 54
q0 28 -21 49l-4 4q-11 20 -33 33t-51 13q-39 0 -65 -23t-26 -56zM183 731q0 -44 40 -66l4 -4q12 -12 29.5 -19t37.5 -7q38 0 63.5 22t25.5 54q0 28 -21 49l-4 4q-11 20 -33 33t-51 13q-39 0 -65 -23t-26 -56z" />
    <glyph glyph-name="FL00D7h" unicode="&#xd7;" horiz-adv-x="525" 
d="M143 499l109 -149l108 149h113l-164 -225l164 -223h-113l-108 146l-108 -146h-112l164 223l-166 225h113zM-1 515l177 -241l-175 -239h9l17 -17h143l97 131l86 -114h4l17 -17h144l-173 235l174 239l-18 18l4 5h-153l-100 -137l-83 114l-8 8l-11 15h-151z" />
    <glyph glyph-name="FL00D8h" unicode="&#xd8;" horiz-adv-x="779" 
d="M558 358q0 35 -12 62t-42 42l-108 -341h32q130 0 130 114v123zM199 235q0 -80 61 -104l110 346h-41q-38 0 -63 -9t-40 -25t-21 -38t-6 -47v-123zM283 0q-63 0 -106.5 20.5t-70.5 59t-39 94t-12 126.5q0 139 53 217.5t165 78.5h211q112 0 165 -78.5t53 -217.5
q0 -71 -12 -126.5t-39 -94t-70.5 -59t-106.5 -20.5h-191zM303 -33h191q67 0 113 21.5t74.5 61.5t41 98t12.5 132q0 81 -18 143t-53 101q-29 43 -73.5 65.5t-106.5 22.5h-211q-60 0 -104 -21.5t-73 -61.5t-43 -98t-14 -131q0 -99 22.5 -169t75.5 -108q59 -56 166 -56z
M232 338q0 22 5 41t17.5 33.5t34 22.5t53.5 9l-91 -289q-4 2 -10 8q-9 21 -9 52v123zM542 358v-123q0 -93 -101 -98l88 278q13 -23 13 -57z" />
    <glyph glyph-name="FL00D9h" unicode="&#xd9;" horiz-adv-x="780" 
d="M449 779q10 -16 10 -35q0 -15 -5 -25.5t-17 -21.5q-10 -9 -19.5 -12.5t-20.5 -3.5q-23 0 -37 20l-67 75q-10 13 -10 32q0 15 12.5 24.5t24.5 22.5q20 17 41 17q11 0 23 -12t19 -21zM703 191q0 -51 -16 -89t-54.5 -63.5t-102 -38t-157.5 -12.5q-92 0 -153 13.5t-97.5 40
t-52 64t-15.5 85.5v405h139v-375q0 -26 8.5 -47.5t29 -36.5t55 -23t86.5 -8q59 0 95.5 6t56.5 20t27 37t7 57v370h144v-405zM227 201v388l-17 17v6h-171v-421q0 -54 16.5 -94.5t57.5 -68.5q36 -35 103.5 -54t176.5 -19q98 0 164 13.5t105.5 40.5t56.5 67.5t17 94.5v418
l-17 17v6h-176v-386q0 -30 -6.5 -50t-25 -32t-51.5 -17t-87 -5t-86.5 8.5t-50.5 24.5q-5 10 -7 21t-2 25zM415 849q-8 11 -23 25t-31 14q-26 0 -51 -21l-7 -7t-7 -6q-12 -9 -20.5 -19.5t-8.5 -26.5q0 -25 14 -43l68 -76q9 -12 21 -18l7 -7q18 -16 40 -16q27 0 49 19
q14 13 20 25.5t6 31.5q0 23 -11 40l-48 63q-3 4 -12 13z" />
    <glyph glyph-name="FL00DAh" unicode="&#xda;" horiz-adv-x="780" 
d="M355 839q7 9 19 21t23 12q21 0 41 -17q12 -13 24.5 -22.5t12.5 -24.5q0 -19 -10 -32l-67 -75q-14 -20 -37 -20q-11 0 -20.5 3.5t-19.5 12.5q-12 11 -17 21.5t-5 25.5q0 19 10 35zM703 191q0 -51 -16 -89t-54.5 -63.5t-102 -38t-157.5 -12.5q-92 0 -153 13.5t-97.5 40
t-52 64t-15.5 85.5v405h139v-375q0 -26 8.5 -47.5t29 -36.5t55 -23t86.5 -8q59 0 95.5 6t56.5 20t27 37t7 57v370h144v-405zM227 201v388l-17 17v6h-171v-421q0 -54 16.5 -94.5t57.5 -68.5q36 -35 103.5 -54t176.5 -19q98 0 164 13.5t105.5 40.5t56.5 67.5t17 94.5v418
l-17 17v6h-176v-386q0 -30 -6.5 -50t-25 -32t-51.5 -17t-87 -5t-86.5 8.5t-50.5 24.5q-5 10 -7 21t-2 25zM295 786q-7 -10 -9.5 -20t-2.5 -22q0 -20 6 -32.5t21 -26.5q4 -4 7.5 -6.5t7.5 -4.5l3 -3q1 -1 1.5 -2t2.5 -2q22 -19 49 -19q29 0 47 24l67 75q13 17 13 41
q0 11 -4 18t-11 14l-5 5q-4 9 -11 15.5t-15 13.5q-4 3 -7 6l-7 7q-26 21 -51 21q-17 0 -31.5 -14t-22.5 -25z" />
    <glyph glyph-name="FL00DBh" unicode="&#xdb;" horiz-adv-x="780" 
d="M433 681l-55 105l-56 -105h-100l104 186h97l107 -186h-97zM703 191q0 -51 -16 -89t-54.5 -63.5t-102 -38t-157.5 -12.5q-92 0 -153 13.5t-97.5 40t-52 64t-15.5 85.5v405h139v-375q0 -26 8.5 -47.5t29 -36.5t55 -23t86.5 -8q59 0 95.5 6t56.5 20t27 37t7 57v370h144v-405
zM227 201v388l-17 17v6h-171v-421q0 -54 16.5 -94.5t57.5 -68.5q36 -35 103.5 -54t176.5 -19q98 0 164 13.5t105.5 40.5t56.5 67.5t17 94.5v418l-17 17v6h-176v-386q0 -30 -6.5 -50t-25 -32t-51.5 -17t-87 -5t-86.5 8.5t-50.5 24.5q-5 10 -7 21t-2 25zM220 648h129l41 78
l33 -61h5l17 -17h127l-122 212l-12 11l-6 12h-115l-122 -218h8z" />
    <glyph glyph-name="FL00DCh" unicode="&#xdc;" horiz-adv-x="780" 
d="M199 731q0 26 21.5 44.5t53.5 18.5t54 -18.5t22 -44.5t-22 -44.5t-54 -18.5t-53.5 18.5t-21.5 44.5zM400 731q0 26 21.5 44.5t53.5 18.5t54 -18.5t22 -44.5t-22 -44.5t-54 -18.5t-53.5 18.5t-21.5 44.5zM703 191q0 -51 -16 -89t-54.5 -63.5t-102 -38t-157.5 -12.5
q-92 0 -153 13.5t-97.5 40t-52 64t-15.5 85.5v405h139v-375q0 -26 8.5 -47.5t29 -36.5t55 -23t86.5 -8q59 0 95.5 6t56.5 20t27 37t7 57v370h144v-405zM227 201v388l-17 17v6h-171v-421q0 -54 16.5 -94.5t57.5 -68.5q36 -35 103.5 -54t176.5 -19q98 0 164 13.5t105.5 40.5
t56.5 67.5t17 94.5v418l-17 17v6h-176v-386q0 -30 -6.5 -50t-25 -32t-51.5 -17t-87 -5t-86.5 8.5t-50.5 24.5q-5 10 -7 21t-2 25zM183 731q0 -44 40 -66l4 -4q12 -12 29.5 -19t37.5 -7q38 0 63.5 22t25.5 54q0 28 -21 49l-4 4q-11 20 -33 33t-51 13q-39 0 -65 -23t-26 -56z
M384 731q0 -44 40 -66l4 -4q12 -12 29.5 -19t37.5 -7q38 0 63.5 22t25.5 54q0 28 -21 49l-3 2l-1 1q1 0 1 -1v0l-1 2q-11 20 -33 33t-51 13q-39 0 -65 -23t-26 -56z" />
    <glyph glyph-name="FL00DDh" unicode="&#xdd;" 
d="M377 839q7 9 19 21t23 12q21 0 41 -17q12 -13 24.5 -22.5t12.5 -24.5q0 -19 -10 -32l-67 -75q-14 -20 -37 -20q-11 0 -20.5 3.5t-19.5 12.5q-12 11 -17 21.5t-5 25.5q0 19 10 35zM708 296q0 -139 -67 -217.5t-206 -78.5h-234v124h199q63 0 106 24t55 90h-278v-1
q-62 0 -105.5 20t-70.5 58t-39.5 93t-12.5 125v64h146v-152q11 -68 83 -83h276v234h147zM723 612h-179v-234h-255q-31 6 -47 21q-7 13 -8 28v163l-17 17v6h-178v-80q0 -94 23 -162t75 -106q31 -30 75 -45.5t104 -15.5v1h216q-18 -37 -52.5 -51t-79.5 -14h-215v-156h6l17 -17
h247q145 0 215.5 82t70.5 227l-1 313l-17 17v6zM317 786q-7 -10 -9.5 -20t-2.5 -22q0 -20 6 -32.5t21 -26.5q4 -4 7.5 -6.5t7.5 -4.5l3 -3q1 -1 1.5 -2t2.5 -2q22 -19 49 -19q29 0 47 24l67 75q13 17 13 41q0 11 -4 18t-11 14l-5 5q-4 9 -11 15.5t-15 13.5q-4 3 -7 6l-7 7
q-26 21 -51 21q-17 0 -31.5 -14t-22.5 -25z" />
    <glyph glyph-name="FL00DEh" unicode="&#xde;" horiz-adv-x="760" 
d="M199 363v-119h344q-2 24 -9.5 46t-24 38t-42.5 25.5t-64 9.5h-204zM199 121v-121h-144v596h144v-114h266q47 0 87 -21.5t69 -56.5t45.5 -79t16.5 -88v-116h-484zM232 589l-17 17v6h-176v-628h6l17 -17h170v121h484v129q0 49 -19.5 97.5t-53.5 85.5q-32 43 -77.5 70.5
t-100.5 27.5h-233v91zM232 330h191q44 0 74 -16q11 -11 17 -24.5t10 -29.5h-292v70z" />
    <glyph glyph-name="FL00DFh" unicode="&#xdf;" horiz-adv-x="722" 
d="M55 -123v719h372q112 0 165 -78.5t53 -217.5q0 -71 -12 -126.5t-39 -94t-70.5 -59t-106.5 -20.5h-128v121h82q130 0 130 114h-212v123h212q0 25 -6 47t-21 38t-40 25t-63 9h-173v-600h-143zM296 202h183q-19 -65 -108 -65h-98v-153h6l17 -17h141q67 0 113 21.5t74.5 61.5
t41 98t12.5 132q0 81 -18 143t-53 101q-29 43 -73.5 65.5t-106.5 22.5h-388v-751h6l17 -17h169v600h160q23 0 40 -4t31 -11q10 -11 15 -25t7 -30h-211v-155h6z" />
    <glyph glyph-name="FL00E0h" unicode="&#xe0;" horiz-adv-x="760" 
d="M449 779q10 -16 10 -35q0 -15 -5 -25.5t-17 -21.5q-10 -9 -19.5 -12.5t-20.5 -3.5q-23 0 -37 20l-67 75q-10 13 -10 32q0 15 12.5 24.5t24.5 22.5q20 17 41 17q11 0 23 -12t19 -21zM335 477q-38 0 -64 -9.5t-42.5 -25.5t-24 -38t-9.5 -46v-136h344v255h-204zM55 0v351
q0 44 16.5 88t45.5 79t69 56.5t87 21.5h410v-596h-143v105h-346v-105h-139zM62 -33h165v105h297v-88h6l17 -17h169v622l-17 17v6h-426q-50 0 -93 -23t-74.5 -60.5t-49 -84t-17.5 -93.5v-367h6zM228 338q1 21 8 40.5t22 34t38.5 23t58.5 8.5h168v-206h-295v100zM415 849
q-8 11 -23 25t-31 14q-26 0 -51 -21l-7 -7t-7 -6q-12 -9 -20.5 -19.5t-8.5 -26.5q0 -25 14 -43l68 -76q9 -12 21 -18l7 -7q18 -16 40 -16q27 0 49 19q14 13 20 25.5t6 31.5q0 23 -11 40l-48 63q-3 4 -12 13z" />
    <glyph glyph-name="FL00E1h" unicode="&#xe1;" horiz-adv-x="760" 
d="M380 838q7 9 19 21t23 12q21 0 41 -17q12 -13 24.5 -22.5t12.5 -24.5q0 -19 -10 -32l-67 -75q-14 -20 -37 -20q-11 0 -20.5 3.5t-19.5 12.5q-12 11 -17 21.5t-5 25.5q0 19 10 35zM335 477q-38 0 -64 -9.5t-42.5 -25.5t-24 -38t-9.5 -46v-136h344v255h-204zM55 0v351
q0 44 16.5 88t45.5 79t69 56.5t87 21.5h410v-596h-143v105h-346v-105h-139zM62 -33h165v105h297v-88h6l17 -17h169v622l-17 17v6h-426q-50 0 -93 -23t-74.5 -60.5t-49 -84t-17.5 -93.5v-367h6zM355 444h168v-206h-295v99q1 22 8 41.5t22 34t38.5 23t58.5 8.5zM320 785
q-7 -10 -9.5 -20t-2.5 -22q0 -20 6 -32.5t21 -26.5q4 -4 7.5 -6.5t7.5 -4.5l3 -3q1 -1 1.5 -2t2.5 -2q22 -19 49 -19q29 0 47 24l67 75q13 17 13 41q0 11 -4 18t-11 14l-5 5q-4 9 -11 15.5t-15 13.5q-4 3 -7 6l-7 7q-26 21 -51 21q-17 0 -31.5 -14t-22.5 -25z" />
    <glyph glyph-name="FL00E2h" unicode="&#xe2;" horiz-adv-x="760" 
d="M453 679l-55 105l-56 -105h-100l104 186h97l107 -186h-97zM335 477q-38 0 -64 -9.5t-42.5 -25.5t-24 -38t-9.5 -46v-136h344v255h-204zM55 0v351q0 44 16.5 88t45.5 79t69 56.5t87 21.5h410v-596h-143v105h-346v-105h-139zM62 -33h165v105h297v-88h6l17 -17h169v622
l-17 17v6h-426q-50 0 -93 -23t-74.5 -60.5t-49 -84t-17.5 -93.5v-367h6zM355 444h168v-206h-295v99q1 22 8 41.5t22 34t38.5 23t58.5 8.5zM240 646h129l41 78l33 -61h5l17 -17h127l-122 212l-12 11l-6 12h-115l-122 -218h8z" />
    <glyph glyph-name="FL00E3h" unicode="&#xe3;" horiz-adv-x="760" 
d="M397 842l58 -89l54 88h100l-104 -162h-97l-59 88l-53 -87h-100l104 162h97zM335 477q-38 0 -64 -9.5t-42.5 -25.5t-24 -38t-9.5 -46v-136h344v255h-204zM55 0v351q0 44 16.5 88t45.5 79t69 56.5t87 21.5h410v-596h-143v105h-346v-105h-139zM62 -33h165v105h297v-88h6
l17 -17h169v622l-17 17v6h-426q-50 0 -93 -23t-74.5 -60.5t-49 -84t-17.5 -93.5v-367h6zM291 858l-125 -194h9l17 -17h131l41 68l36 -52h4l17 -17h111l121 188l-18 17l4 6h-139l-44 -71l-32 49l-9 9l-9 14h-115zM355 444h168v-206h-295v99q1 22 8 41.5t22 34t38.5 23
t58.5 8.5z" />
    <glyph glyph-name="FL00E4h" unicode="&#xe4;" horiz-adv-x="760" 
d="M199 731q0 26 21.5 44.5t53.5 18.5t54 -18.5t22 -44.5t-22 -44.5t-54 -18.5t-53.5 18.5t-21.5 44.5zM400 731q0 26 21.5 44.5t53.5 18.5t54 -18.5t22 -44.5t-22 -44.5t-54 -18.5t-53.5 18.5t-21.5 44.5zM335 477q-38 0 -64 -9.5t-42.5 -25.5t-24 -38t-9.5 -46v-136h344
v255h-204zM55 0v351q0 44 16.5 88t45.5 79t69 56.5t87 21.5h410v-596h-143v105h-346v-105h-139zM62 -33h165v105h297v-88h6l17 -17h169v622l-17 17v6h-426q-50 0 -93 -23t-74.5 -60.5t-49 -84t-17.5 -93.5v-367h6zM228 338q1 21 8 40.5t22 34t38.5 23t58.5 8.5h168v-206
h-295v100zM384 731q0 -44 40 -66l4 -4q12 -12 29.5 -19t37.5 -7q38 0 63.5 22t25.5 54q0 28 -21 49l-4 4q-11 20 -33 33t-51 13q-39 0 -65 -23t-26 -56zM183 731q0 -44 40 -66l4 -4q12 -12 29.5 -19t37.5 -7q38 0 63.5 22t25.5 54q0 28 -21 49l-4 4q-11 20 -33 33t-51 13
q-39 0 -65 -23t-26 -56z" />
    <glyph glyph-name="FL00E5h" unicode="&#xe5;" horiz-adv-x="760" 
d="M300 730q0 26 21.5 44.5t53.5 18.5t54 -18.5t22 -44.5t-22 -44.5t-54 -18.5t-53.5 18.5t-21.5 44.5zM335 477q-38 0 -64 -9.5t-42.5 -25.5t-24 -38t-9.5 -46v-136h344v255h-204zM55 0v351q0 44 16.5 88t45.5 79t69 56.5t87 21.5h410v-596h-143v105h-346v-105h-139z
M62 -33h165v105h297v-88h6l17 -17h169v622l-17 17v6h-426q-50 0 -93 -23t-74.5 -60.5t-49 -84t-17.5 -93.5v-367h6zM355 444h168v-206h-295v99q1 22 8 41.5t22 34t38.5 23t58.5 8.5zM284 730q0 -44 40 -66l4 -4q12 -12 29.5 -19t37.5 -7q38 0 63.5 22t25.5 54q0 28 -21 49
l-4 4q-11 20 -33 33t-51 13q-39 0 -65 -23t-26 -56z" />
    <glyph glyph-name="FL00E6h" unicode="&#xe6;" horiz-adv-x="1206" 
d="M335 477q-38 0 -64 -9.5t-42.5 -25.5t-24 -38t-9.5 -46v-136h344v255h-204zM55 0v351q0 44 16.5 88t45.5 79t69 56.5t87 21.5h856v-119h-316q-38 0 -63 -9t-40 -25t-21 -37.5t-6 -46.5h360v-124h-360q0 -114 130 -114h316v-121h-589v105h-346v-105h-139zM716 202h360v150
l-17 17v6h-340q8 31 34 50t80 19h329v145l-17 17v6h-872q-50 0 -93 -23t-74.5 -60.5t-49 -84t-17.5 -93.5v-367h6l17 -17h165v105h297v-88h6l17 -17h615v147l-17 17v6h-332q-60 0 -88 28q-7 15 -9 37zM228 338q1 21 8 40.5t22 34t38.5 23t58.5 8.5h168v-206h-295v100z" />
    <glyph glyph-name="FL00E7h" unicode="&#xe7;" horiz-adv-x="722" 
d="M208 -48h62q24 0 42 1t30.5 5.5t20.5 14t11 27.5h-91q-63 0 -106.5 20.5t-70.5 59t-39 94t-12 126.5q0 139 53 217.5t165 78.5h372v-119h-316q-38 0 -63 -9t-40 -25t-21 -38t-6 -47v-123q0 -114 130 -114h316v-121h-131q-14 -92 -67.5 -130.5t-157.5 -38.5h-81v121z
M192 -185h6l17 -17h94q107 0 163 38.5t73 130.5h133v147l-17 17v6h-332q-58 0 -86 25q-11 19 -11 53v123q0 23 5.5 42.5t19 33.5t36 22t56.5 8h329v145l-17 17v6h-388q-60 0 -104 -21.5t-73 -61.5t-43 -98t-14 -131q0 -99 22.5 -169t75.5 -108q49 -47 139 -55h-6h-78v-153z
" />
    <glyph glyph-name="FL00E8h" unicode="&#xe8;" horiz-adv-x="722" 
d="M439 779q10 -16 10 -35q0 -15 -5 -25.5t-17 -21.5q-10 -9 -19.5 -12.5t-20.5 -3.5q-23 0 -37 20l-67 75q-10 13 -10 32q0 15 12.5 24.5t24.5 22.5q20 17 41 17q11 0 23 -12t19 -21zM283 0q-63 0 -106.5 20.5t-70.5 59t-39 94t-12 126.5q0 139 53 217.5t165 78.5h372v-119
h-316q-38 0 -63 -9t-40 -25t-21 -37.5t-6 -46.5h360v-124h-360q0 -114 130 -114h316v-121h-362zM232 202h360v150l-17 17v6h-340q8 31 34 50t80 19h329v145l-17 17v6h-388q-60 0 -104 -21.5t-73 -61.5t-43 -98t-14 -131q0 -99 22.5 -169t75.5 -108q59 -56 166 -56h375v147
l-17 17v6h-332q-60 0 -88 28q-7 15 -9 37zM405 849q-8 11 -23 25t-31 14q-26 0 -51 -21l-7 -7t-7 -6q-12 -9 -20.5 -19.5t-8.5 -26.5q0 -25 14 -43l68 -76q9 -12 21 -18l7 -7q18 -16 40 -16q27 0 49 19q14 13 20 25.5t6 31.5q0 23 -11 40l-48 63q-3 4 -12 13z" />
    <glyph glyph-name="FL00E9h" unicode="&#xe9;" horiz-adv-x="722" 
d="M388 840q7 9 19 21t23 12q21 0 41 -17q12 -13 24.5 -22.5t12.5 -24.5q0 -19 -10 -32l-67 -75q-14 -20 -37 -20q-11 0 -20.5 3.5t-19.5 12.5q-12 11 -17 21.5t-5 25.5q0 19 10 35zM283 0q-63 0 -106.5 20.5t-70.5 59t-39 94t-12 126.5q0 139 53 217.5t165 78.5h372v-119
h-316q-38 0 -63 -9t-40 -25t-21 -37.5t-6 -46.5h360v-124h-360q0 -114 130 -114h316v-121h-362zM232 202h360v150l-17 17v6h-340q8 31 34 50t80 19h329v145l-17 17v6h-388q-60 0 -104 -21.5t-73 -61.5t-43 -98t-14 -131q0 -99 22.5 -169t75.5 -108q59 -56 166 -56h375v147
l-17 17v6h-332q-60 0 -88 28q-7 15 -9 37zM328 787q-7 -10 -9.5 -20t-2.5 -22q0 -20 6 -32.5t21 -26.5q4 -4 7.5 -6.5t7.5 -4.5l3 -3q1 -1 1.5 -2t2.5 -2q22 -19 49 -19q29 0 47 24l67 75q13 17 13 41q0 11 -4 18t-11 14l-5 5q-4 9 -11 15.5t-15 13.5q-4 3 -7 6l-7 7
q-26 21 -51 21q-17 0 -31.5 -14t-22.5 -25z" />
    <glyph glyph-name="FL00EAh" unicode="&#xea;" horiz-adv-x="722" 
d="M436 678l-55 105l-56 -105h-100l104 186h97l107 -186h-97zM283 0q-63 0 -106.5 20.5t-70.5 59t-39 94t-12 126.5q0 139 53 217.5t165 78.5h372v-119h-316q-38 0 -63 -9t-40 -25t-21 -37.5t-6 -46.5h360v-124h-360q0 -114 130 -114h316v-121h-362zM232 202h360v150l-17 17
v6h-340q8 31 34 50t80 19h329v145l-17 17v6h-388q-60 0 -104 -21.5t-73 -61.5t-43 -98t-14 -131q0 -99 22.5 -169t75.5 -108q59 -56 166 -56h375v147l-17 17v6h-332q-60 0 -88 28q-7 15 -9 37zM223 645h129l41 78l33 -61h5l17 -17h127l-122 212l-12 11l-6 12h-115l-122 -218
h8z" />
    <glyph glyph-name="FL00EBh" unicode="&#xeb;" horiz-adv-x="722" 
d="M213 730q0 26 21.5 44.5t53.5 18.5t54 -18.5t22 -44.5t-22 -44.5t-54 -18.5t-53.5 18.5t-21.5 44.5zM414 730q0 26 21.5 44.5t53.5 18.5t54 -18.5t22 -44.5t-22 -44.5t-54 -18.5t-53.5 18.5t-21.5 44.5zM283 0q-63 0 -106.5 20.5t-70.5 59t-39 94t-12 126.5
q0 139 53 217.5t165 78.5h372v-119h-316q-38 0 -63 -9t-40 -25t-21 -37.5t-6 -46.5h360v-124h-360q0 -114 130 -114h316v-121h-362zM232 202h360v150l-17 17v6h-340q8 31 34 50t80 19h329v145l-17 17v6h-388q-60 0 -104 -21.5t-73 -61.5t-43 -98t-14 -131q0 -99 22.5 -169
t75.5 -108q59 -56 166 -56h375v147l-17 17v6h-332q-60 0 -88 28q-7 15 -9 37zM398 730q0 -44 40 -66l4 -4q12 -12 29.5 -19t37.5 -7q38 0 63.5 22t25.5 54q0 28 -21 49l-4 4q-11 20 -33 33t-51 13q-39 0 -65 -23t-26 -56zM197 730q0 -44 40 -66l4 -4q12 -12 29.5 -19
t37.5 -7q38 0 63.5 22t25.5 54q0 28 -21 49l-4 4q-11 20 -33 33t-51 13q-39 0 -65 -23t-26 -56z" />
    <glyph glyph-name="FL00ECh" unicode="&#xec;" horiz-adv-x="283" 
d="M182 842q9 -9 12 -13l48 -63q11 -17 11 -40q0 -19 -6 -31.5t-20 -25.5q-22 -19 -49 -19q-22 0 -40 16l-7 7q-12 6 -21 18l-68 76q-14 18 -14 43q0 16 8.5 26.5t20.5 19.5q4 3 7 6l7 7q25 21 51 21q16 0 31 -14t23 -25zM48 -16h-6v628h176v-6l17 -17v-622h-170zM164 841
q-7 9 -19 21t-23 12q-21 0 -41 -17q-12 -13 -24.5 -22.5t-12.5 -24.5q0 -19 10 -32l67 -75q14 -20 37 -20q11 0 20.5 3.5t19.5 12.5q12 11 17 21.5t5 25.5q0 19 -10 35zM202 0v596h-144v-596h144z" />
    <glyph glyph-name="FL00EDh" unicode="&#xed;" horiz-adv-x="276" 
d="M93 841q7 9 19 21t23 12q21 0 41 -17q12 -13 24.5 -22.5t12.5 -24.5q0 -19 -10 -32l-67 -75q-14 -20 -37 -20q-11 0 -20.5 3.5t-19.5 12.5q-12 11 -17 21.5t-5 25.5q0 19 10 35zM55 0v596h144v-596h-144zM62 -33h170v622l-17 17v6h-176v-628h6zM33 788q-7 -10 -9.5 -20
t-2.5 -22q0 -20 6 -32.5t21 -26.5q4 -4 7.5 -6.5t7.5 -4.5l3 -3q1 -1 1.5 -2t2.5 -2q22 -19 49 -19q29 0 47 24l67 75q13 17 13 41q0 11 -4 18t-11 14l-5 5q-4 9 -11 15.5t-15 13.5q-4 3 -7 6l-7 7q-26 21 -51 21q-17 0 -31.5 -14t-22.5 -25z" />
    <glyph glyph-name="FL00F7h" unicode="&#xee;" horiz-adv-x="276" 
d="M183 678l-55 105l-56 -105h-100l104 186h97l107 -186h-97zM55 0v596h144v-596h-144zM62 -33h170v622l-17 17v6h-176v-628h6zM-30 645h129l41 78l33 -61h5l17 -17h127l-122 212l-12 11l-6 12h-115l-122 -218h8z" />
    <glyph glyph-name="FL00EFh" unicode="&#xef;" horiz-adv-x="276" 
d="M-47 726q0 26 21.5 44.5t53.5 18.5t54 -18.5t22 -44.5t-22 -44.5t-54 -18.5t-53.5 18.5t-21.5 44.5zM154 726q0 26 21.5 44.5t53.5 18.5t54 -18.5t22 -44.5t-22 -44.5t-54 -18.5t-53.5 18.5t-21.5 44.5zM55 0v596h144v-596h-144zM62 -33h170v622l-17 17v6h-176v-628h6z
M138 726q0 -44 40 -66l4 -4q12 -12 29.5 -19t37.5 -7q38 0 63.5 22t25.5 54q0 28 -21 49l-4 4q-11 20 -33 33t-51 13q-39 0 -65 -23t-26 -56zM-63 726q0 -21 11 -38t29 -28l4 -4q12 -12 29.5 -19t37.5 -7q38 0 63.5 22t25.5 54q0 28 -21 49l-4 4q-11 20 -33 33t-51 13
q-39 0 -65 -23t-26 -56z" />
    <glyph glyph-name="FL00F0h" unicode="&#xf0;" 
d="M462 140q31 8 51.5 23.5t28.5 41.5h-305q2 -8 4.5 -15t6.5 -13q20 -20 49 -28.5t65 -8.5h100zM347 -33q-66 0 -116 17t-85 49q-55 39 -81.5 105.5t-26.5 157.5v81h499q-11 27 -31 45q-18 9 -40 13t-47 4h-358l-17 17h-6v156h396q85 0 143.5 -26.5t93.5 -77.5
q33 -36 50 -87t19 -114v-102h-3q-13 -114 -68 -176t-170 -62h-152zM564 238l-1 -3q0 -51 -27.5 -76.5t-75.5 -36.5v2h-98q-63 0 -106 24t-55 90h363zM399 472q63 0 105 -23.5t56 -87.5h-506v-65q0 -139 67 -217.5t206 -78.5h152q56 0 96.5 16t67.5 46.5t42 74.5t20 101h2v89
q-2 62 -19.5 112t-51 85t-84 53.5t-118.5 18.5h-380v-124h345z" />
    <glyph glyph-name="FL00F1h" unicode="&#xf1;" horiz-adv-x="780" 
d="M381 841l58 -89l54 88h100l-104 -162h-97l-59 88l-53 -87h-100l104 162h97zM564 0v331q0 29 -5.5 55.5t-21 46.5t-43 32t-71.5 12h-224v-477h-144v596h430q46 0 86 -19t70 -59q32 -38 47 -80t15 -87v-351h-139zM62 -33h170v477h211q46 0 76 -16q17 -19 23 -44t6 -53v-347
h6l17 -17h165v364q0 48 -15.5 91.5t-49.5 83.5q-3 3 -5.5 6.5t-5.5 6.5t-7 9q-33 43 -75.5 63.5t-92.5 20.5h-446v-628h6zM275 857l-125 -194h9l17 -17h131l41 68l36 -52h4l17 -17h111l121 188l-18 17l4 6h-139l-44 -71l-32 49l-9 9l-9 14h-115z" />
    <glyph glyph-name="FL00F2h" unicode="&#xf2;" horiz-adv-x="779" 
d="M373 478q-51 0 -85.5 -8t-55.5 -22t-30 -34.5t-9 -45.5v-135q0 -26 8.5 -47.5t29 -36.5t55 -23t86.5 -8q59 0 95.5 6t57 20t27.5 37t7 57v120q0 34 -7 57t-27 37t-56.5 20t-95.5 6zM702 203q0 -51 -16 -89t-54.5 -63.5t-102 -38t-157.5 -12.5q-91 0 -152 13.5t-97.5 39
t-52 63t-15.5 84.5v193q0 48 15.5 85.5t52 64t97.5 40t153 13.5q94 0 157 -12.5t101 -37.5t54.5 -62.5t16.5 -87.5v-193zM449 779q10 -16 10 -35q0 -15 -5 -25.5t-17 -21.5q-10 -9 -19.5 -12.5t-20.5 -3.5q-23 0 -37 20l-67 75q-10 13 -10 32q0 15 12.5 24.5t24.5 22.5
q20 17 41 17q11 0 23 -12t19 -21zM392 -33q98 0 164 13.5t105.5 40.5t56.5 67.5t17 94.5v193q0 43 -10.5 77t-36.5 60q-32 49 -107 74t-208 25q-96 0 -160 -15t-103 -43t-55 -68.5t-16 -92.5v-193q0 -53 16.5 -93t57.5 -68q36 -35 103 -53.5t176 -18.5zM226 213v135
q0 22 8.5 40t28 30.5t51.5 19.5t79 7q49 0 80.5 -4t51.5 -14q11 -12 14.5 -29t3.5 -40v-120q0 -30 -6.5 -50t-25.5 -32t-52 -17t-87 -5t-86.5 8.5t-50.5 24.5q-5 10 -7 21t-2 25zM415 849q-8 11 -23 25t-31 14q-26 0 -51 -21l-7 -7t-7 -6q-12 -9 -20.5 -19.5t-8.5 -26.5
q0 -25 14 -43l68 -76q9 -12 21 -18l7 -7q18 -16 40 -16q27 0 49 19q14 13 20 25.5t6 31.5q0 23 -11 40l-48 63q-3 4 -12 13z" />
    <glyph glyph-name="FL00F3h" unicode="&#xf3;" horiz-adv-x="779" 
d="M373 478q-51 0 -85.5 -8t-55.5 -22t-30 -34.5t-9 -45.5v-135q0 -26 8.5 -47.5t29 -36.5t55 -23t86.5 -8q59 0 95.5 6t57 20t27.5 37t7 57v120q0 34 -7 57t-27 37t-56.5 20t-95.5 6zM702 203q0 -51 -16 -89t-54.5 -63.5t-102 -38t-157.5 -12.5q-91 0 -152 13.5t-97.5 39
t-52 63t-15.5 84.5v193q0 48 15.5 85.5t52 64t97.5 40t153 13.5q94 0 157 -12.5t101 -37.5t54.5 -62.5t16.5 -87.5v-193zM355 839q7 9 19 21t23 12q21 0 41 -17q12 -13 24.5 -22.5t12.5 -24.5q0 -19 -10 -32l-67 -75q-14 -20 -37 -20q-11 0 -20.5 3.5t-19.5 12.5
q-12 11 -17 21.5t-5 25.5q0 19 10 35zM392 -33q98 0 164 13.5t105.5 40.5t56.5 67.5t17 94.5v193q0 43 -10.5 77t-36.5 60q-32 49 -107 74t-208 25q-96 0 -160 -15t-103 -43t-55 -68.5t-16 -92.5v-193q0 -53 16.5 -93t57.5 -68q36 -35 103 -53.5t176 -18.5zM226 213v135
q0 22 8.5 40t28 30.5t51.5 19.5t79 7q49 0 80.5 -4t51.5 -14q11 -12 14.5 -29t3.5 -40v-120q0 -30 -6.5 -50t-25.5 -32t-52 -17t-87 -5t-86.5 8.5t-50.5 24.5q-5 10 -7 21t-2 25zM295 786q-7 -10 -9.5 -20t-2.5 -22q0 -20 6 -32.5t21 -26.5q4 -4 7.5 -6.5t7.5 -4.5l3 -3
q1 -1 1.5 -2t2.5 -2q22 -19 49 -19q29 0 47 24l67 75q13 17 13 41q0 11 -4 18t-11 14l-5 5q-4 9 -11 15.5t-15 13.5q-4 3 -7 6l-7 7q-26 21 -51 21q-17 0 -31.5 -14t-22.5 -25z" />
    <glyph glyph-name="FL00F4h" unicode="&#xf4;" horiz-adv-x="779" 
d="M373 478q-51 0 -85.5 -8t-55.5 -22t-30 -34.5t-9 -45.5v-135q0 -26 8.5 -47.5t29 -36.5t55 -23t86.5 -8q59 0 95.5 6t57 20t27.5 37t7 57v120q0 34 -7 57t-27 37t-56.5 20t-95.5 6zM702 203q0 -51 -16 -89t-54.5 -63.5t-102 -38t-157.5 -12.5q-91 0 -152 13.5t-97.5 39
t-52 63t-15.5 84.5v193q0 48 15.5 85.5t52 64t97.5 40t153 13.5q94 0 157 -12.5t101 -37.5t54.5 -62.5t16.5 -87.5v-193zM433 681l-55 105l-56 -105h-100l104 186h97l107 -186h-97zM392 -33q98 0 164 13.5t105.5 40.5t56.5 67.5t17 94.5v193q0 43 -10.5 77t-36.5 60
q-32 49 -107 74t-208 25q-96 0 -160 -15t-103 -43t-55 -68.5t-16 -92.5v-193q0 -53 16.5 -93t57.5 -68q36 -35 103 -53.5t176 -18.5zM226 213v135q0 22 8.5 40t28 30.5t51.5 19.5t79 7q49 0 80.5 -4t51.5 -14q11 -12 14.5 -29t3.5 -40v-120q0 -30 -6.5 -50t-25.5 -32
t-52 -17t-87 -5t-86.5 8.5t-50.5 24.5q-5 10 -7 21t-2 25zM220 648h129l41 78l33 -61h5l17 -17h127l-122 212l-12 11l-6 12h-115l-122 -218h8z" />
    <glyph glyph-name="FL00F5h" unicode="&#xf5;" horiz-adv-x="779" 
d="M373 478q-51 0 -85.5 -8t-55.5 -22t-30 -34.5t-9 -45.5v-135q0 -26 8.5 -47.5t29 -36.5t55 -23t86.5 -8q59 0 95.5 6t57 20t27.5 37t7 57v120q0 34 -7 57t-27 37t-56.5 20t-95.5 6zM702 203q0 -51 -16 -89t-54.5 -63.5t-102 -38t-157.5 -12.5q-91 0 -152 13.5t-97.5 39
t-52 63t-15.5 84.5v193q0 48 15.5 85.5t52 64t97.5 40t153 13.5q94 0 157 -12.5t101 -37.5t54.5 -62.5t16.5 -87.5v-193zM380 843l58 -89l54 88h100l-104 -162h-97l-59 88l-53 -87h-100l104 162h97zM392 -33q98 0 164 13.5t105.5 40.5t56.5 67.5t17 94.5v193q0 43 -10.5 77
t-36.5 60q-32 49 -107 74t-208 25q-96 0 -160 -15t-103 -43t-55 -68.5t-16 -92.5v-193q0 -53 16.5 -93t57.5 -68q36 -35 103 -53.5t176 -18.5zM226 213v135q0 22 8.5 40t28 30.5t51.5 19.5t79 7q49 0 80.5 -4t51.5 -14q11 -12 14.5 -29t3.5 -40v-120q0 -30 -6.5 -50
t-25.5 -32t-52 -17t-87 -5t-86.5 8.5t-50.5 24.5q-5 10 -7 21t-2 25zM274 859l-125 -194h9l17 -17h131l41 68l36 -52h4l17 -17h111l121 188l-18 17l4 6h-139l-44 -71l-32 49l-9 9l-9 14h-115z" />
    <glyph glyph-name="FL00F6h" unicode="&#xf6;" horiz-adv-x="779" 
d="M373 478q-51 0 -85.5 -8t-55.5 -22t-30 -34.5t-9 -45.5v-135q0 -26 8.5 -47.5t29 -36.5t55 -23t86.5 -8q59 0 95.5 6t57 20t27.5 37t7 57v120q0 34 -7 57t-27 37t-56.5 20t-95.5 6zM702 203q0 -51 -16 -89t-54.5 -63.5t-102 -38t-157.5 -12.5q-91 0 -152 13.5t-97.5 39
t-52 63t-15.5 84.5v193q0 48 15.5 85.5t52 64t97.5 40t153 13.5q94 0 157 -12.5t101 -37.5t54.5 -62.5t16.5 -87.5v-193zM199 731q0 26 21.5 44.5t53.5 18.5t54 -18.5t22 -44.5t-22 -44.5t-54 -18.5t-53.5 18.5t-21.5 44.5zM400 731q0 26 21.5 44.5t53.5 18.5t54 -18.5
t22 -44.5t-22 -44.5t-54 -18.5t-53.5 18.5t-21.5 44.5zM392 -33q98 0 164 13.5t105.5 40.5t56.5 67.5t17 94.5v193q0 43 -10.5 77t-36.5 60q-32 49 -107 74t-208 25q-96 0 -160 -15t-103 -43t-55 -68.5t-16 -92.5v-193q0 -53 16.5 -93t57.5 -68q36 -35 103 -53.5t176 -18.5z
M226 213v135q0 22 8.5 40t28 30.5t51.5 19.5t79 7q49 0 80.5 -4t51.5 -14q11 -12 14.5 -29t3.5 -40v-120q0 -30 -6.5 -50t-25.5 -32t-52 -17t-87 -5t-86.5 8.5t-50.5 24.5q-5 10 -7 21t-2 25zM384 731q0 -44 40 -66l4 -4q12 -12 29.5 -19t37.5 -7q38 0 63.5 22t25.5 54
q0 28 -21 49l-4 4q-11 20 -33 33t-51 13q-39 0 -65 -23t-26 -56zM183 731q0 -44 40 -66l4 -4q12 -12 29.5 -19t37.5 -7q38 0 63.5 22t25.5 54q0 28 -21 49l-4 4q-11 20 -33 33t-51 13q-39 0 -65 -23t-26 -56z" />
    <glyph glyph-name="FL0100h" unicode="&#xf7;" horiz-adv-x="578" 
d="M207 456q0 26 21.5 44.5t53.5 18.5t54 -18.5t22 -44.5t-22 -44.5t-54 -18.5t-53.5 18.5t-21.5 44.5zM207 138q0 26 21.5 44.5t53.5 18.5t54 -18.5t22 -44.5t-22 -44.5t-54 -18.5t-53.5 18.5t-21.5 44.5zM501 358v-123h-446v123h446zM191 456q0 -44 40 -66l4 -4
q6 -7 14 -12h-210v-155h6l17 -17h165q-17 -11 -26.5 -27.5t-9.5 -36.5q0 -44 40 -66l4 -4q26 -26 67 -26q38 0 63.5 22t25.5 54q0 28 -21 49l-4 4q-11 19 -29 31h197v149l-17 17v6h-164q17 10 27.5 26t10.5 36q0 28 -21 49l-4 4q-11 20 -33 33t-51 13q-39 0 -65 -23t-26 -56
z" />
    <glyph glyph-name="FL00F8h" unicode="&#xf8;" horiz-adv-x="779" 
d="M558 358q0 35 -12 62t-42 42l-108 -341h32q130 0 130 114v123zM199 235q0 -80 61 -104l110 346h-41q-38 0 -63 -9t-40 -25t-21 -38t-6 -47v-123zM283 0q-63 0 -106.5 20.5t-70.5 59t-39 94t-12 126.5q0 139 53 217.5t165 78.5h211q112 0 165 -78.5t53 -217.5
q0 -71 -12 -126.5t-39 -94t-70.5 -59t-106.5 -20.5h-191zM303 -33h191q67 0 113 21.5t74.5 61.5t41 98t12.5 132q0 81 -18 143t-53 101q-29 43 -73.5 65.5t-106.5 22.5h-211q-60 0 -104 -21.5t-73 -61.5t-43 -98t-14 -131q0 -99 22.5 -169t75.5 -108q59 -56 166 -56z
M232 338q0 22 5 41t17.5 33.5t34 22.5t53.5 9l-91 -289q-4 2 -10 8q-9 21 -9 52v123zM542 358v-123q0 -93 -101 -98l88 278q13 -23 13 -57z" />
    <glyph glyph-name="FL00F9h" unicode="&#xf9;" horiz-adv-x="780" 
d="M449 779q10 -16 10 -35q0 -15 -5 -25.5t-17 -21.5q-10 -9 -19.5 -12.5t-20.5 -3.5q-23 0 -37 20l-67 75q-10 13 -10 32q0 15 12.5 24.5t24.5 22.5q20 17 41 17q11 0 23 -12t19 -21zM703 191q0 -51 -16 -89t-54.5 -63.5t-102 -38t-157.5 -12.5q-92 0 -153 13.5t-97.5 40
t-52 64t-15.5 85.5v405h139v-375q0 -26 8.5 -47.5t29 -36.5t55 -23t86.5 -8q59 0 95.5 6t56.5 20t27 37t7 57v370h144v-405zM227 201v388l-17 17v6h-171v-421q0 -54 16.5 -94.5t57.5 -68.5q36 -35 103.5 -54t176.5 -19q98 0 164 13.5t105.5 40.5t56.5 67.5t17 94.5v418
l-17 17v6h-176v-386q0 -30 -6.5 -50t-25 -32t-51.5 -17t-87 -5t-86.5 8.5t-50.5 24.5q-5 10 -7 21t-2 25zM415 849q-8 11 -23 25t-31 14q-26 0 -51 -21l-7 -7t-7 -6q-12 -9 -20.5 -19.5t-8.5 -26.5q0 -25 14 -43l68 -76q9 -12 21 -18l7 -7q18 -16 40 -16q27 0 49 19
q14 13 20 25.5t6 31.5q0 23 -11 40l-48 63q-3 4 -12 13z" />
    <glyph glyph-name="FL00FAh" unicode="&#xfa;" horiz-adv-x="780" 
d="M355 839q7 9 19 21t23 12q21 0 41 -17q12 -13 24.5 -22.5t12.5 -24.5q0 -19 -10 -32l-67 -75q-14 -20 -37 -20q-11 0 -20.5 3.5t-19.5 12.5q-12 11 -17 21.5t-5 25.5q0 19 10 35zM703 191q0 -51 -16 -89t-54.5 -63.5t-102 -38t-157.5 -12.5q-92 0 -153 13.5t-97.5 40
t-52 64t-15.5 85.5v405h139v-375q0 -26 8.5 -47.5t29 -36.5t55 -23t86.5 -8q59 0 95.5 6t56.5 20t27 37t7 57v370h144v-405zM227 201v388l-17 17v6h-171v-421q0 -54 16.5 -94.5t57.5 -68.5q36 -35 103.5 -54t176.5 -19q98 0 164 13.5t105.5 40.5t56.5 67.5t17 94.5v418
l-17 17v6h-176v-386q0 -30 -6.5 -50t-25 -32t-51.5 -17t-87 -5t-86.5 8.5t-50.5 24.5q-5 10 -7 21t-2 25zM295 786q-7 -10 -9.5 -20t-2.5 -22q0 -20 6 -32.5t21 -26.5q4 -4 7.5 -6.5t7.5 -4.5l3 -3q1 -1 1.5 -2t2.5 -2q22 -19 49 -19q29 0 47 24l67 75q13 17 13 41
q0 11 -4 18t-11 14l-5 5q-4 9 -11 15.5t-15 13.5q-4 3 -7 6l-7 7q-26 21 -51 21q-17 0 -31.5 -14t-22.5 -25z" />
    <glyph glyph-name="FL00FBh" unicode="&#xfb;" horiz-adv-x="780" 
d="M433 681l-55 105l-56 -105h-100l104 186h97l107 -186h-97zM703 191q0 -51 -16 -89t-54.5 -63.5t-102 -38t-157.5 -12.5q-92 0 -153 13.5t-97.5 40t-52 64t-15.5 85.5v405h139v-375q0 -26 8.5 -47.5t29 -36.5t55 -23t86.5 -8q59 0 95.5 6t56.5 20t27 37t7 57v370h144v-405
zM227 201v388l-17 17v6h-171v-421q0 -54 16.5 -94.5t57.5 -68.5q36 -35 103.5 -54t176.5 -19q98 0 164 13.5t105.5 40.5t56.5 67.5t17 94.5v418l-17 17v6h-176v-386q0 -30 -6.5 -50t-25 -32t-51.5 -17t-87 -5t-86.5 8.5t-50.5 24.5q-5 10 -7 21t-2 25zM220 648h129l41 78
l33 -61h5l17 -17h127l-122 212l-12 11l-6 12h-115l-122 -218h8z" />
    <glyph glyph-name="FL00FCh" unicode="&#xfc;" horiz-adv-x="780" 
d="M199 731q0 26 21.5 44.5t53.5 18.5t54 -18.5t22 -44.5t-22 -44.5t-54 -18.5t-53.5 18.5t-21.5 44.5zM400 731q0 26 21.5 44.5t53.5 18.5t54 -18.5t22 -44.5t-22 -44.5t-54 -18.5t-53.5 18.5t-21.5 44.5zM703 191q0 -51 -16 -89t-54.5 -63.5t-102 -38t-157.5 -12.5
q-92 0 -153 13.5t-97.5 40t-52 64t-15.5 85.5v405h139v-375q0 -26 8.5 -47.5t29 -36.5t55 -23t86.5 -8q59 0 95.5 6t56.5 20t27 37t7 57v370h144v-405zM227 201v388l-17 17v6h-171v-421q0 -54 16.5 -94.5t57.5 -68.5q36 -35 103.5 -54t176.5 -19q98 0 164 13.5t105.5 40.5
t56.5 67.5t17 94.5v418l-17 17v6h-176v-386q0 -30 -6.5 -50t-25 -32t-51.5 -17t-87 -5t-86.5 8.5t-50.5 24.5q-5 10 -7 21t-2 25zM183 731q0 -44 40 -66l4 -4q12 -12 29.5 -19t37.5 -7q38 0 63.5 22t25.5 54q0 28 -21 49l-4 4q-11 20 -33 33t-51 13q-39 0 -65 -23t-26 -56z
M384 731q0 -44 40 -66l4 -4q12 -12 29.5 -19t37.5 -7q38 0 63.5 22t25.5 54q0 28 -21 49l-3 2l-1 1q1 0 1 -1v0l-1 2q-11 20 -33 33t-51 13q-39 0 -65 -23t-26 -56z" />
    <glyph glyph-name="FL00FDh" unicode="&#xfd;" 
d="M377 839q7 9 19 21t23 12q21 0 41 -17q12 -13 24.5 -22.5t12.5 -24.5q0 -19 -10 -32l-67 -75q-14 -20 -37 -20q-11 0 -20.5 3.5t-19.5 12.5q-12 11 -17 21.5t-5 25.5q0 19 10 35zM708 296q0 -139 -67 -217.5t-206 -78.5h-234v124h199q63 0 106 24t55 90h-278v-1
q-62 0 -105.5 20t-70.5 58t-39.5 93t-12.5 125v64h146v-152q11 -68 83 -83h276v234h147zM723 612h-179v-234h-255q-31 6 -47 21q-7 13 -8 28v163l-17 17v6h-178v-80q0 -94 23 -162t75 -106q31 -30 75 -45.5t104 -15.5v1h216q-18 -37 -52.5 -51t-79.5 -14h-215v-156h6l17 -17
h247q145 0 215.5 82t70.5 227l-1 313l-17 17v6zM317 786q-7 -10 -9.5 -20t-2.5 -22q0 -20 6 -32.5t21 -26.5q4 -4 7.5 -6.5t7.5 -4.5l3 -3q1 -1 1.5 -2t2.5 -2q22 -19 49 -19q29 0 47 24l67 75q13 17 13 41q0 11 -4 18t-11 14l-5 5q-4 9 -11 15.5t-15 13.5q-4 3 -7 6l-7 7
q-26 21 -51 21q-17 0 -31.5 -14t-22.5 -25z" />
    <glyph glyph-name="FL00FEh" unicode="&#xfe;" horiz-adv-x="760" 
d="M199 363v-119h344q-2 24 -9.5 46t-24 38t-42.5 25.5t-64 9.5h-204zM199 121v-121h-144v596h144v-114h266q47 0 87 -21.5t69 -56.5t45.5 -79t16.5 -88v-116h-484zM232 589l-17 17v6h-176v-628h6l17 -17h170v121h484v129q0 49 -19.5 97.5t-53.5 85.5q-32 43 -77.5 70.5
t-100.5 27.5h-233v91zM232 330h191q44 0 74 -16q11 -11 17 -24.5t10 -29.5h-292v70z" />
    <glyph glyph-name="FL00FFh" unicode="&#xff;" 
d="M199 731q0 26 21.5 44.5t53.5 18.5t54 -18.5t22 -44.5t-22 -44.5t-54 -18.5t-53.5 18.5t-21.5 44.5zM400 731q0 26 21.5 44.5t53.5 18.5t54 -18.5t22 -44.5t-22 -44.5t-54 -18.5t-53.5 18.5t-21.5 44.5zM708 296q0 -139 -67 -217.5t-206 -78.5h-234v124h199q63 0 106 24
t55 90h-278v-1q-62 0 -105.5 20t-70.5 58t-39.5 93t-12.5 125v64h146v-152q11 -68 83 -83h276v234h147zM723 612h-179v-234h-255q-31 6 -47 21q-7 13 -8 26v165l-17 17v6h-178v-80q0 -94 23 -162t75 -106q31 -30 75 -45.5t104 -15.5v1h216q-18 -37 -52.5 -51t-79.5 -14h-215
v-156h6l17 -17h247q145 0 215.5 82t70.5 227l-1 313l-17 17v6zM183 731q0 -44 40 -66l4 -4q12 -12 29.5 -19t37.5 -7q38 0 63.5 22t25.5 54q0 28 -21 49l-4 4q-11 20 -33 33t-51 13q-39 0 -65 -23t-26 -56zM384 731q0 -44 40 -66l4 -4q12 -12 29.5 -19t37.5 -7q38 0 63.5 22
t25.5 54q0 28 -21 49l-3 2l-1 1q1 0 1 -1v0l-1 2q-11 20 -33 33t-51 13q-39 0 -65 -23t-26 -56z" />
    <glyph glyph-name="FL0152h" unicode="&#x152;" horiz-adv-x="1170" 
d="M503 300q0 106 30 177h-204q-38 0 -63 -9t-40 -25t-21 -38t-6 -47v-123q0 -114 130 -114h202q-15 35 -21.5 80t-6.5 99zM283 0q-63 0 -106.5 20.5t-70.5 59t-39 94t-12 126.5q0 139 53 217.5t165 78.5h820v-119h-316q-38 0 -63 -9t-40 -25t-21 -37.5t-6 -46.5h360v-124
h-360q0 -114 130 -114h316v-121h-810zM680 202h360v150l-17 17v6h-340q8 31 34 50t80 19h329v145l-17 17v6h-836q-60 0 -104 -21.5t-73 -61.5t-43 -98t-14 -131q0 -99 22.5 -169t75.5 -108q59 -56 166 -56h823v147l-17 17v6h-332q-60 0 -88 28q-7 15 -9 37zM487 300
q0 -48 4.5 -88t15.5 -75h-178q-58 0 -86 25q-11 19 -11 53v123q0 23 5.5 42.5t19 33.5t36 22t56.5 8h154q-8 -32 -12 -68t-4 -76z" />
    <glyph glyph-name="FL0153h" unicode="&#x153;" horiz-adv-x="1170" 
d="M503 300q0 106 30 177h-204q-38 0 -63 -9t-40 -25t-21 -38t-6 -47v-123q0 -114 130 -114h202q-15 35 -21.5 80t-6.5 99zM283 0q-63 0 -106.5 20.5t-70.5 59t-39 94t-12 126.5q0 139 53 217.5t165 78.5h820v-119h-316q-38 0 -63 -9t-40 -25t-21 -37.5t-6 -46.5h360v-124
h-360q0 -114 130 -114h316v-121h-810zM680 202h360v150l-17 17v6h-340q8 31 34 50t80 19h329v145l-17 17v6h-836q-60 0 -104 -21.5t-73 -61.5t-43 -98t-14 -131q0 -99 22.5 -169t75.5 -108q59 -56 166 -56h823v147l-17 17v6h-332q-60 0 -88 28q-7 15 -9 37zM487 300
q0 -48 4.5 -88t15.5 -75h-178q-58 0 -86 25q-11 19 -11 53v123q0 23 5.5 42.5t19 33.5t36 22t56.5 8h154q-8 -32 -12 -68t-4 -76z" />
    <glyph glyph-name="FL0160h" unicode="&#x160;" 
d="M327 864l53 -103l56 104h100l-104 -185h-97l-105 185zM363 472q-63 0 -105.5 -23.5t-55.5 -87.5h506v-65q0 -139 -67 -217.5t-206 -78.5h-380v124h345q63 0 106 24t55 90h-506v62q0 139 67 217.5t206 78.5h380v-124h-345zM62 205h470q-18 -37 -52.5 -51t-79.5 -14h-361
v-156h6l17 -17h393q145 0 215.5 82t70.5 227v78l-17 17v6h-477q19 34 53.5 48t82.5 14h358v150l-17 17v6h-396q-74 0 -128 -21.5t-90 -61.5t-53.5 -98t-17.5 -131v-78h6zM203 881l123 -217h5l17 -17h111l119 211l-18 18l3 5h-136l-44 -81l-28 57l-13 12l-5 11z" />
    <glyph glyph-name="FL0162h" unicode="&#x161;" 
d="M203 881l134 -1l5 -11l13 -12l28 -57l44 81h136l-3 -5l18 -18l-119 -211h-111l-17 17h-5zM45 222h-6v78q0 73 17.5 131t53.5 98t90 61.5t128 21.5h246v-6l17 -17v-150h-208q-48 0 -82.5 -14t-53.5 -48h477v-6l17 -17v-78q0 -145 -70.5 -227t-215.5 -82h-392l-17 17h-6
v156h360q45 0 79.5 14t52.5 51h-470zM335 680h97l104 185h-100l-56 -104l-53 103l-97 1zM558 472v124h-230q-139 0 -206 -78.5t-67 -217.5v-62h506q-12 -66 -55 -90t-106 -24h-344v-124h379q139 0 206 78.5t67 217.5v65h-506q13 64 55.5 87.5t105.5 23.5h195z" />
    <glyph glyph-name="FL0178h" unicode="&#x178;" 
d="M199 731q0 26 21.5 44.5t53.5 18.5t54 -18.5t22 -44.5t-22 -44.5t-54 -18.5t-53.5 18.5t-21.5 44.5zM400 731q0 26 21.5 44.5t53.5 18.5t54 -18.5t22 -44.5t-22 -44.5t-54 -18.5t-53.5 18.5t-21.5 44.5zM708 296q0 -139 -67 -217.5t-206 -78.5h-234v124h199q63 0 106 24
t55 90h-278v-1q-62 0 -105.5 20t-70.5 58t-39.5 93t-12.5 125v64h146v-152q11 -68 83 -83h276v234h147zM723 612h-179v-234h-255q-31 6 -47 21q-7 13 -8 26v165l-17 17v6h-178v-80q0 -94 23 -162t75 -106q31 -30 75 -45.5t104 -15.5v1h216q-18 -37 -52.5 -51t-79.5 -14h-215
v-156h6l17 -17h247q145 0 215.5 82t70.5 227l-1 313l-17 17v6zM183 731q0 -44 40 -66l4 -4q12 -12 29.5 -19t37.5 -7q38 0 63.5 22t25.5 54q0 28 -21 49l-4 4q-11 20 -33 33t-51 13q-39 0 -65 -23t-26 -56zM384 731q0 -44 40 -66l4 -4q12 -12 29.5 -19t37.5 -7q38 0 63.5 22
t25.5 54q0 28 -21 49l-3 2l-1 1q1 0 1 -1v0l-1 2q-11 20 -33 33t-51 13q-39 0 -65 -23t-26 -56z" />
    <glyph glyph-name="FL017Dh" unicode="&#x17d;" horiz-adv-x="716" 
d="M289 864l53 -103l56 104h100l-104 -185h-97l-105 185zM245 119h394v-119h-584v119l393 358h-393v119h584v-119zM62 444h325l-348 -318v-142h6l17 -17h610v145l-17 17v6h-331l348 316v138l-17 17v6h-616v-151h6zM165 881l123 -217h5l17 -17h111l119 211l-18 18l3 5h-136
l-44 -81l-28 57l-13 12l-5 11z" />
    <glyph glyph-name="FL0161h" unicode="&#x17e;" horiz-adv-x="716" 
d="M289 864l53 -103l56 104h100l-104 -185h-97l-105 185zM245 119h394v-119h-584v119l393 358h-393v119h584v-119zM62 444h325l-348 -318v-142h6l17 -17h610v145l-17 17v6h-331l348 316v138l-17 17v6h-616v-151h6zM165 881l123 -217h5l17 -17h111l119 211l-18 18l3 5h-136
l-44 -81l-28 57l-13 12l-5 11z" />
    <glyph glyph-name="FL0192h" unicode="&#x192;" horiz-adv-x="722" 
d="M661 612v-6l17 -17v-147h-329q-117 0 -117 -101v-375h-170l-17 17h-6v313q0 74 13 133t41.5 99.5t75 62t114.5 21.5h378zM283 596q-63 0 -106.5 -20.5t-70.5 -59t-39 -94.5t-12 -126v-297h144v362q0 114 130 114h316v121h-362z" />
    <glyph glyph-name="FL02C6h" unicode="&#x2c6;" horiz-adv-x="440" 
d="M266 409l-55 105l-56 -105h-100l104 186h97l107 -186h-97zM53 376h129l41 78l33 -61h5l17 -17h127l-122 212l-12 11l-6 12h-115l-122 -218h8z" />
    <glyph glyph-name="FL02DCh" unicode="&#x2dc;" horiz-adv-x="495" 
d="M231 595l58 -93l54 92h100l-104 -170h-97l-59 93l-53 -92h-100l104 170h97zM125 611l-124 -202h9l17 -17h130l40 71l36 -55h5l17 -17h111l120 196l-18 17l4 6h-138l-45 -73l-31 51l-10 9l-8 14h-115z" />
    <glyph glyph-name="FL2013h" unicode="&#x2013;" horiz-adv-x="510" 
d="M55 358h378v-124h-378v124zM39 218h6l17 -17h404v150l-17 17v6h-410v-156z" />
    <glyph glyph-name="FL2014h" unicode="&#x2014;" horiz-adv-x="578" 
d="M501 358v-123h-446v123h446zM39 374v-155h6l17 -17h472v149l-17 17v6h-478z" />
    <glyph glyph-name="FL2018h" unicode="&#x2018;" horiz-adv-x="283" 
d="M55 533q0 26 21.5 44.5t53.5 18.5t54 -18.5t22 -44.5v-118q0 -26 -22 -44.5t-54 -18.5t-53.5 19t-21.5 45v117zM39 416q0 -21 11 -39t30 -29l4 -3q12 -12 29 -19t37 -7q38 0 63.5 22t25.5 54v118q0 28 -21 49l-4 4q-11 20 -33 33t-51 13q-39 0 -65 -23t-26 -56v-117z" />
    <glyph glyph-name="FL2019h" unicode="&#x2019;" horiz-adv-x="283" 
d="M55 533q0 26 21.5 44.5t53.5 18.5t54 -18.5t22 -44.5v-118q0 -26 -22 -44.5t-54 -18.5t-53.5 19t-21.5 45v117zM39 416q0 -21 11 -39t30 -29l4 -3q12 -12 29 -19t37 -7q38 0 63.5 22t25.5 54v118q0 28 -21 49l-4 4q-11 20 -33 33t-51 13q-39 0 -65 -23t-26 -56v-117z" />
    <glyph glyph-name="FL201Ah" unicode="&#x201a;" horiz-adv-x="283" 
d="M55 63q0 26 21.5 44.5t53.5 18.5t54 -18.5t22 -44.5v-118q0 -26 -22 -44.5t-54 -18.5t-53.5 19t-21.5 45v117zM39 -54q0 -21 11 -38.5t30 -28.5l4 -4q26 -26 66 -26q38 0 63.5 22t25.5 54v118q0 28 -21 49l-4 4q-11 20 -33 33t-51 13q-39 0 -65 -23t-26 -56v-117z" />
    <glyph glyph-name="FL201Ch" unicode="&#x201c;" horiz-adv-x="485" 
d="M55 532q0 26 21.5 44.5t53.5 18.5t54 -18.5t22 -44.5v-118q0 -26 -22 -44.5t-54 -18.5t-53.5 19t-21.5 45v117zM257 533q0 26 21.5 44.5t53.5 18.5t54 -18.5t22 -44.5v-118q0 -26 -22 -44.5t-54 -18.5t-53.5 19t-21.5 45v117zM39 415q0 -21 11 -39t30 -29l4 -3
q12 -12 29 -19t37 -7q38 0 63.5 22t25.5 54v118q0 28 -21 49l-4 4q-11 20 -33 33t-51 13q-39 0 -65 -23t-26 -56v-117zM241 416q0 -21 11 -39t30 -29l4 -3q12 -12 29 -19t37 -7q38 0 63.5 22t25.5 54v118q0 28 -21 49l-3 2l-1 1q1 0 1 -1v0l-1 2q-11 20 -33 33t-51 13
q-39 0 -65 -23t-26 -56v-117z" />
    <glyph glyph-name="FL201Dh" unicode="&#x201d;" horiz-adv-x="485" 
d="M55 532q0 26 21.5 44.5t53.5 18.5t54 -18.5t22 -44.5v-118q0 -26 -22 -44.5t-54 -18.5t-53.5 19t-21.5 45v117zM257 533q0 26 21.5 44.5t53.5 18.5t54 -18.5t22 -44.5v-118q0 -26 -22 -44.5t-54 -18.5t-53.5 19t-21.5 45v117zM39 415q0 -21 11 -39t30 -29l4 -3
q12 -12 29 -19t37 -7q38 0 63.5 22t25.5 54v118q0 28 -21 49l-4 4q-11 20 -33 33t-51 13q-39 0 -65 -23t-26 -56v-117zM241 416q0 -21 11 -39t30 -29l4 -3q12 -12 29 -19t37 -7q38 0 63.5 22t25.5 54v118q0 28 -21 49l-3 2l-1 1q1 0 1 -1v0l-1 2q-11 20 -33 33t-51 13
q-39 0 -65 -23t-26 -56v-117z" />
    <glyph glyph-name="FL201Eh" unicode="&#x201e;" horiz-adv-x="485" 
d="M55 64q0 26 21.5 44.5t53.5 18.5t54 -18.5t22 -44.5v-118q0 -26 -22 -44.5t-54 -18.5t-53.5 19t-21.5 45v117zM257 63q0 26 21.5 44.5t53.5 18.5t54 -18.5t22 -44.5v-118q0 -26 -22 -44.5t-54 -18.5t-53.5 19t-21.5 45v117zM39 -53q0 -21 11 -38.5t30 -28.5l4 -4
q26 -26 66 -26q38 0 63.5 22t25.5 54v118q0 28 -21 49l-4 4q-11 20 -33 33t-51 13q-39 0 -65 -23t-26 -56v-117zM241 -54q0 -21 11 -38.5t30 -28.5l4 -4q26 -26 66 -26q38 0 63.5 22t25.5 54v118q0 28 -21 49l-3 2l-1 1q1 0 1 -1v0l-1 2q-11 20 -33 33t-51 13q-39 0 -65 -23
t-26 -56v-117z" />
    <glyph glyph-name="FL2020h" unicode="&#x2020;" horiz-adv-x="517" 
d="M55 479h121v117h144v-117h120v-124h-120v-355h-144v354h-121v125zM39 338h6l17 -17h98v-337h6l17 -17h170v355h120v150l-17 17v6h-103v94l-17 17v6h-176v-117h-121v-157z" />
    <glyph glyph-name="FL2021h" unicode="&#x2021;" horiz-adv-x="517" 
d="M55 479h121v117h144v-117h120v-124h-120v-124h120v-124h-120v-107h-144v106h-121v125h121v123h-121v125zM39 338h6l17 -17h98v-74h-121v-157h6l17 -17h98v-89h6l17 -17h170v107h120v150l-17 17v6h-103v75h120v150l-17 17v6h-103v94l-17 17v6h-176v-117h-121v-157z" />
    <glyph glyph-name="FL2022h" unicode="&#x2022;" horiz-adv-x="495" 
d="M93 123q-54 30 -54 112v123q0 29 7 53.5t23.5 42.5t45 28.5t70.5 10.5h103q51 0 81 -14.5t46 -39.5q-1 0 -1 1l5 -5q18 -18 25 -43t7 -54v-123q0 -127 -143 -127h-110q-70 0 -104 34zM418 358q0 25 -6 47t-21 38t-40 25t-63 9h-103q-38 0 -63 -9t-40 -25t-21 -38t-6 -47
v-123q0 -114 123 -114h110q130 0 130 114v123z" />
    <glyph glyph-name="FL2026h" unicode="&#x2026;" horiz-adv-x="732" 
d="M55 63q0 26 21.5 44.5t53.5 18.5t54 -18.5t22 -44.5t-22 -44.5t-54 -18.5t-53.5 18.5t-21.5 44.5zM256 63q0 26 21.5 44.5t53.5 18.5t54 -18.5t22 -44.5t-22 -44.5t-54 -18.5t-53.5 18.5t-21.5 44.5zM457 63q0 26 21.5 44.5t53.5 18.5t54 -18.5t22 -44.5t-22 -44.5
t-54 -18.5t-53.5 18.5t-21.5 44.5zM441 63q0 -44 40 -66l4 -4q26 -26 67 -26q38 0 63.5 22t25.5 54q0 28 -21 49l-4 4q-11 20 -33 33t-51 13q-39 0 -65 -23t-26 -56zM240 63q0 -44 40 -66l4 -4q26 -26 67 -26q38 0 63.5 22t25.5 54q0 28 -21 49l-4 4q-11 20 -33 33t-51 13
q-39 0 -65 -23t-26 -56zM39 63q0 -44 40 -66l4 -4q26 -26 67 -26q38 0 63.5 22t25.5 54q0 28 -21 49l-3 2l-1 1q1 0 1 -1v0l-1 2q-11 20 -33 33t-51 13q-39 0 -65 -23t-26 -56z" />
    <glyph glyph-name="FL2030h" unicode="&#x2030;" horiz-adv-x="1235" 
d="M997 222q-45 0 -62 -11.5t-17 -31.5v-56q0 -20 15.5 -32.5t59.5 -12.5q50 0 65 10.5t15 37.5v53q0 9 -2.5 17t-10.5 13.5t-23 9t-40 3.5zM1158 101q0 -26 -8 -44.5t-27 -31.5t-51 -19t-79 -6q-45 0 -75.5 7t-49 19.5t-26 31t-7.5 42.5v98q0 24 8 43t27 31.5t50 19.5t77 7
q47 0 78 -6t49.5 -18.5t26 -31t7.5 -43.5v-99zM647 222q-45 0 -62 -11.5t-17 -31.5v-56q0 -20 15.5 -32.5t59.5 -12.5q50 0 65 10.5t15 37.5v53q0 9 -2.5 17t-10.5 13.5t-23 9t-40 3.5zM808 101q0 -26 -8 -44.5t-27 -31.5t-51 -19t-79 -6q-45 0 -75.5 7t-49 19.5t-26 31
t-7.5 42.5v98q0 24 8 43t27 31.5t50 19.5t77 7q47 0 78 -6t49.5 -18.5t26 -31t7.5 -43.5v-99zM217 518q-45 0 -62 -11.5t-17 -31.5v-56q0 -20 15.5 -32.5t59.5 -12.5q50 0 65 10.5t15 37.5v53q0 9 -2.5 17t-10.5 13.5t-23 9t-40 3.5zM378 397q0 -26 -8 -44.5t-27 -31.5
t-51 -19t-79 -6q-45 0 -75.5 7t-49 19.5t-26 31t-7.5 42.5v98q0 24 8 43t27 31.5t50 19.5t77 7q47 0 78 -6t49.5 -18.5t26 -31t7.5 -43.5v-99zM107 0l509 596h139l-504 -596h-144zM411 476q0 50 -25 75l-5 5q-16 28 -54 41.5t-110 13.5q-51 0 -85 -8t-54.5 -23t-29.5 -36.5
t-9 -49.5v-98q0 -31 10 -54t36 -38l3 -2q19 -19 53.5 -29t91.5 -10q24 0 45 1t38 5l-243 -285h9l17 -17h178l192 226v-93q0 -31 10 -54t36 -38l3 -2q19 -19 53.5 -29t91.5 -10q80 0 119.5 17t51.5 52q11 -16 33 -29l1 -1q19 -19 53.5 -29t91.5 -10q51 0 85 7t55 21
t29.5 35.5t8.5 50.5v99q0 24 -5.5 42.5t-19.5 32.5l-5 5q-16 28 -54 41.5t-110 13.5q-80 0 -119.5 -19t-51.5 -54q-2 4 -5 7t-5 6l-5 4q-15 29 -53.5 42.5t-110.5 13.5q-24 0 -44.5 -2t-37.5 -5l238 281l-18 18l4 5h-180l-198 -232v96zM601 159q0 14 14.5 22t51.5 8
q13 0 22.5 -1t16.5 -3q1 -2 1 -6v-53q0 -18 -12 -25t-52 -7q-15 0 -25 1.5t-17 3.5v60zM171 455q0 14 14.5 22t51.5 8q13 0 22.5 -1t16.5 -3q1 -2 1 -6v-53q0 -18 -12 -25t-52 -7q-15 0 -25 1.5t-17 3.5v60zM951 159q0 14 14.5 22t51.5 8q13 0 22.5 -1t16.5 -3q1 -2 1 -6
v-53q0 -18 -12 -25t-52 -7q-15 0 -25 1.5t-17 3.5v60z" />
    <glyph glyph-name="FL2039h" unicode="&#x2039;" horiz-adv-x="318" 
d="M241 351l-105 -55l105 -56v-100l-186 104v97l186 107v-97zM257 475l-218 -125v-115l11 -7l12 -11l212 -119v129l-17 17v5l-62 32l79 42v127l-17 17v8z" />
    <glyph glyph-name="FL203Ah" unicode="&#x203a;" horiz-adv-x="318" 
d="M39 475l218 -125v-5l17 -17v-111l-212 -119l-18 18l-5 -3v136l81 42l-58 32l-13 12l-10 6v134zM55 351l105 -55l-105 -56v-100l186 104v97l-186 107v-97z" />
    <glyph glyph-name="FL20ACh" unicode="&#x20ac;" horiz-adv-x="764" 
d="M55 441h127q22 75 71 115t130 40h304v-119h-248q-39 0 -64.5 -9.5t-40.5 -26.5h233v-124h-258v-33h258v-124h-236q31 -39 108 -39h248v-121h-294q-91 0 -142 41t-71 119h-125v124h110v33h-110v124zM39 301h6l1 -1h-7v-156h6l17 -17h112q24 -66 73 -102q29 -29 69.5 -43.5
t96.5 -14.5h307v147l-17 17v6h-103v140l-7 7h7v150l-10 10h130v145l-17 17v6h-320q-82 0 -134 -40t-79 -115h-131v-156z" />
    <glyph glyph-name="FL04E5h" unicode="&#x2122;" horiz-adv-x="1206" 
d="M953 191q1 -2 2 -2.5t2 -1.5zM948 196q2 -3 5 -5zM373 269q0 5 -1 8.5t-2 6.5h-1q-24 0 -43 -51v-11v-12q16 2 35 14q7 12 9.5 23t2.5 22zM176 196h7q13 0 24.5 5.5t25.5 19.5v-11l9 -8q2 49 13 85q-12 5 -16 5q-19 0 -37 -24q-26 -31 -26 -69v-3zM1128 160l-3 -3l18 -18
l-53 -52l-18 18l-2 -2l-29 30q-37 8 -73 44q-12 8 -26 22v-62l-53 -8l-11 10l1 -11l-44 19l-15 14l-7 4q-3 7 -6 12t-5 10q-16 0 -38 -43h-60l-5 5l-71 -23l-6 6v-5q-45 0 -90 43q-6 5 -11.5 10t-11.5 10v-61l-56 -9l-18 18l-5 -1l-1 35q-21 -45 -58 -45q-7 0 -11 -1
q-5 -1 -8 -1.5t-11 -0.5q-40 0 -60 20l-7 6q-14 7 -24 22l2 -49q-20 -11 -29.5 -12.5t-19.5 -1.5q-30 0 -50 20l-6 5q-20 11 -32 33l-1 -25l-70 -27l-18 17l-5 -2l21 241l65 17l-1 -7l18 -17l-2 -35q39 42 141 60l-1 -7l18 -17l-4 -34q15 25 44 44q7 6 18 6h8q51 0 77 -41
l4 -4l-1 60l109 -127l5 119l65 -23v-5l17 -17v-17l5 54l66 12l-1 -7l18 -17l-5 -92q11 28 25 55t34 53q17 10 34 10q30 0 47 -30l7 -7q5 -5 10 -15l-1 63l109 -128l7 117l61 -22v-5l17 -17v-20l3 63l77 -20l-1 -5l18 -17l-27 -168l-53 5l-17 16v-31l17 13zM389 269
q0 -14 -3.5 -28t-12.5 -28q-31 -19 -50 -19q-30 0 -30 48v14q24 61 56 61q21 0 35 -24q2 -5 3.5 -10.5t1.5 -13.5zM755 264l36 65l23 -65h-59zM57 357l-18 -202l42 16l9 195zM245 369q-135 -23 -135 -114q0 -8 0.5 -12.5l1.5 -13.5q15 -87 71 -87q9 0 17 1t19 7l-1 34
q-4 -4 -35 -4q-40 0 -40 39q0 42 29 77q21 29 47 29q13 0 20 -4zM423 296q-17 69 -77 69h-8q-6 0 -10 -4q-70 -43 -70 -170q12 -34 63 -34q8 0 14.5 1t15.5 2q54 0 72 136zM589 354l-34 12l-5 -137l-107 124l3 -198l30 5v96q64 -96 113 -96v194zM642 366l-19 -202l44 14
l9 194zM844 315q-11 63 -46 63q-14 0 -24 -7q-35 -48 -53.5 -96.5t-22.5 -97.5h38q22 43 46 43t43 -43l21 -9zM1022 361l-30 11l-8 -134l-106 123l4 -197l27 4v96q69 -98 113 -98v195zM1073 168l-26 -19l23 -24l31 30zM1073 372l-7 -152l28 -3l23 144z" />
    <glyph glyph-name="FL06D9h" horiz-adv-x="955" 
d="M249 91q0 -2 0.5 -2.5t0.5 -1.5q2 -2 4.5 -3.5t4.5 -3.5zM718 402q0 14 -1 27.5t-4 25.5v-150q2 5 3 10.5t2 10.5v76zM495 361q-35 -2 -55 -7t-28 -28h144v35h-61zM232 215q0 -25 1 -51t7 -49v191q0 40 12.5 74t35 60t53.5 43t67 24h-59q-41 0 -64 -13.5t-35 -36.5
t-15 -54t-3 -65v-123zM300 -101q-42 0 -76 14t-60 37q-34 23 -58 60t-39 83t-21.5 99t-6.5 108q0 72 14 139.5t43 119.5t72.5 83.5t103.5 31.5h388q54 0 96 -22.5t71 -63.5q35 -38 54 -95.5t19 -128.5v-86q-21 -95 -75.5 -147t-158.5 -55l-1 1h-86l-17 17h-6v63h-150v-80
h-140q15 -8 40 -8h9q5 0 8 1h342v-6l17 -17v-148h-382zM572 310h-199q2 30 8.5 46.5t18.5 24.5t30.5 10t44.5 3h97v-84zM572 190v-80h78l1 -1q95 3 145.5 52.5t70.5 139.5v83q0 60 -14.5 110.5t-41.5 87t-65 56.5t-86 20h-388q-56 0 -96.5 -30t-67.5 -80t-40 -114.5
t-13 -133.5q0 -71 11.5 -137t38 -117.5t69.5 -82.5t106 -31h369v122h-324q-3 -1 -10 -1h-9q-40 0 -61.5 17.5t-31.5 44.5t-12 59t-2 61v123q0 37 3.5 70t16.5 58t39 39.5t71 14.5h275q45 0 71 -11.5t39 -31t16.5 -44t3.5 -51.5v-78q-8 -58 -54 -80v251h-226q-41 0 -77 -13.5
t-63 -38t-42.5 -59.5t-15.5 -78v-196h117v80h199z" />
    <glyph glyph-name="FL0064h" horiz-adv-x="761" 
d="M199 372v-253h204q38 0 64 11t42.5 29t24 41t9.5 47q-3 32 -11.5 55.5t-24.5 39t-41 23t-62 7.5h-205zM199 491h267q46 0 86 -19t70 -59q32 -38 47 -80t15 -87h-2l1 -1q0 -45 -14.5 -86t-46.5 -79q-30 -40 -70.5 -60t-86.5 -20h-410v596h144v-105zM215 612h-176v-628h6
l17 -17h423q49 0 92 21.5t75 63.5q31 37 46 76.5t17 84.5h2q0 54 -15.5 101t-49.5 87q-3 4 -6 7.5t-7 7.5q-2 2 -2.5 3.5t-2.5 3.5q-33 43 -75.5 63.5t-92.5 20.5h-234v82l-17 17v6zM232 339h192q49 0 77 -17q21 -26 26 -75q-2 -21 -9 -41.5t-21 -36t-37 -25t-57 -9.5h-171
v204z" />
    <glyph glyph-name="FLE005h" horiz-adv-x="761" 
d="M228 226q2 -34 16 -60q14 -14 36.5 -22.5t54.5 -8.5h188v204h-169q-67 0 -94 -27.5t-32 -85.5zM104 423q33 43 75.5 63.5t92.5 20.5h251v105h176v-6l17 -17v-622h-423q-82 0 -143 56q-13 10 -24.5 21.5t-21.5 25.5q-31 37 -46.5 76t-18.5 84h-1q0 57 15.5 104.5
t50.5 88.5zM539 372v-253h-204q-38 0 -64 11t-42.5 29t-24 41t-9.5 47q3 32 11.5 55.5t24.5 39t41 23t62 7.5h205zM539 491h-267q-46 0 -86 -19t-70 -59q-32 -38 -47 -80t-15 -87h2l-1 -1q0 -45 14.5 -86t46.5 -79q30 -40 70.5 -60t86.5 -20h410v596h-144v-105z" />
  </font>
</defs>
</svg>
