<?xml version="1.0" standalone="no"?>
<!DOCTYPE svg PUBLIC "-//W3C//DTD SVG 1.1//EN" "http://www.w3.org/Graphics/SVG/1.1/DTD/svg11.dtd" >
<svg xmlns="http://www.w3.org/2000/svg" xmlns:xlink="http://www.w3.org/1999/xlink" version="1.1">
<metadata>
Created by FontForge 20170731 at Thu Jun  9 18:49:35 2011
 By Aleksey,,,
2011 Iconian Fonts - www.iconian.com
</metadata>
<defs>
<font id="FederalServiceExpanded" horiz-adv-x="916" >
  <font-face 
    font-family="Federal Service Expanded"
    font-weight="400"
    font-stretch="expanded"
    units-per-em="1000"
    panose-1="0 0 0 0 0 0 0 0 0 0"
    ascent="800"
    descent="-200"
    x-height="596"
    cap-height="596"
    bbox="-56 -169 1390 874"
    underline-thickness="50"
    underline-position="-175"
    unicode-range="U+0020-2122"
  />
<missing-glyph horiz-adv-x="600" 
 />
    <glyph glyph-name=".notdef" horiz-adv-x="600" 
 />
    <glyph glyph-name=".null" horiz-adv-x="0" 
 />
    <glyph glyph-name="nonmarkingreturn" horiz-adv-x="600" 
 />
    <glyph glyph-name="space" unicode=" " horiz-adv-x="422" 
 />
    <glyph glyph-name="space" unicode="&#xa0;" horiz-adv-x="422" 
 />
    <glyph glyph-name="FL0021h" unicode="!" horiz-adv-x="313" 
d="M244 593h-176v-423h176v423zM66 62q0 -26 25.5 -44.5t64.5 -18.5t65 18.5t26 44.5t-26 44.5t-65 18.5t-64.5 -18.5t-25.5 -44.5z" />
    <glyph glyph-name="FL0022h" unicode="&#x22;" horiz-adv-x="556" 
d="M308 416q0 -26 26 -45t64 -19q39 0 65.5 18.5t26.5 44.5v118q0 26 -26.5 44.5t-65.5 18.5q-38 0 -64 -18.5t-26 -44.5v-117zM66 415q0 -26 25.5 -45t64.5 -19t65 18.5t26 44.5v118q0 26 -26 44.5t-65 18.5t-64.5 -18.5t-25.5 -44.5v-117z" />
    <glyph glyph-name="FL0023h" unicode="#" horiz-adv-x="908" 
d="M66 354h145v-123h-145v-125h145v-106h173v106h142v-106h172v107h144v124h-144v124h144v124h-144v117h-172v-117h-142v117h-173v-117h-145v-125zM526 354v-123h-142v123h142z" />
    <glyph glyph-name="FL0024h" unicode="$" 
d="M547 -124v124q154 6 228.5 84t74.5 212v65h-303v111h303v124h-303v122h-171v-122q-159 -5 -234.5 -82.5t-75.5 -213.5v-62h310v-114h-310v-124h310v-124h171zM376 468v-107h-134q14 51 48 75.5t86 31.5zM673 238q-11 -51 -43 -76.5t-83 -33.5v110h126z" />
    <glyph glyph-name="FL0025h" unicode="%" horiz-adv-x="1036" 
d="M301 0l605 596h-167l-611 -596h173zM454 397v99q0 25 -9 43.5t-31.5 31t-60 18.5t-93.5 6q-55 0 -92.5 -7t-60 -19.5t-32 -31.5t-9.5 -43v-98q0 -24 9 -42.5t31 -31t58.5 -19.5t91.5 -7q57 0 95 6t61 19t32.5 31.5t9.5 44.5zM260 518q30 0 48.5 -3.5t28 -9t12.5 -13.5
t3 -17v-53q0 -14 -4 -23t-14.5 -14.5t-29 -8t-48.5 -2.5q-53 0 -71.5 12.5t-18.5 32.5v56q0 20 20.5 31.5t73.5 11.5zM970 101v99q0 25 -9 43.5t-31.5 31t-60 18.5t-93.5 6q-55 0 -92.5 -7t-60 -19.5t-32 -31.5t-9.5 -43v-98q0 -24 9 -42.5t31 -31t58.5 -19.5t91.5 -7
q57 0 95 6t61 19t32.5 31.5t9.5 44.5zM776 222q30 0 48.5 -3.5t28 -9t12.5 -13.5t3 -17v-53q0 -14 -4 -23t-14.5 -14.5t-29 -8t-48.5 -2.5q-53 0 -71.5 12.5t-18.5 32.5v56q0 20 20.5 31.5t73.5 11.5z" />
    <glyph glyph-name="FL0026h" unicode="&#x26;" horiz-adv-x="1045" 
d="M979 0v124h-176q22 48 30 110h146v123h-241q-12 115 -80.5 178t-189.5 63h-140q-134 0 -198 -79.5t-64 -218.5q0 -70 14 -125.5t45.5 -94.5t82.5 -59.5t124 -20.5h647zM569 361h-330q0 24 7.5 45.5t25.5 37t48 24.5t75 9q52 0 86 -8.5t53.5 -24t27 -37t7.5 -46.5z
M664 234q-5 -111 -156 -111h-129q-140 0 -140 111h425z" />
    <glyph glyph-name="FL0027h" unicode="'" horiz-adv-x="313" 
d="M66 416q0 -26 25.5 -45t64.5 -19t65 18.5t26 44.5v118q0 26 -26 44.5t-65 18.5t-64.5 -18.5t-25.5 -44.5v-117z" />
    <glyph glyph-name="FL0028h" unicode="(" horiz-adv-x="541" 
d="M472 -68v121h-81q-39 0 -67.5 17.5t-47.5 44.5t-28 59t-9 61v123q0 25 7.5 57t25.5 59.5t48 46.5t75 19h80v119h-147q-67 0 -116.5 -30t-81.5 -80t-48 -115t-16 -134q0 -71 14 -137t45.5 -117.5t83 -82.5t127.5 -31h136z" />
    <glyph glyph-name="FL0029h" unicode=")" horiz-adv-x="541" 
d="M68 -68v121h81q39 0 67.5 17.5t47.5 44.5t28 59t9 61v123q0 25 -7.5 57t-25.5 59.5t-48 46.5t-75 19h-80v119h147q67 0 116.5 -30t81.5 -80t48 -115t16 -134q0 -71 -14 -137t-45.5 -117.5t-83 -82.5t-127.5 -31h-136z" />
    <glyph glyph-name="FL002Ah" unicode="*" horiz-adv-x="440" 
d="M329 579l69 -59l-75 -44l81 -47l-64 -72l-62 49v-61h-110v63l-66 -51l-66 72l76 44l-68 41l78 65l48 -39v55h111v-56z" />
    <glyph glyph-name="FL002Bh" unicode="+" horiz-adv-x="667" 
d="M260 519v-161h-194v-123h194v-162h148v162h193v123h-193v161h-148z" />
    <glyph glyph-name="FL002Ch" unicode="," horiz-adv-x="313" 
d="M66 -54q0 -26 25.5 -45t64.5 -19t65 18.5t26 44.5v118q0 26 -26 44.5t-65 18.5t-64.5 -18.5t-25.5 -44.5v-117z" />
    <glyph glyph-name="FL002Dh" unicode="-" horiz-adv-x="586" 
d="M66 234h454v124h-454v-124z" />
    <glyph glyph-name="FL002Eh" unicode="." horiz-adv-x="313" 
d="M66 63q0 -26 25.5 -44.5t64.5 -18.5t65 18.5t26 44.5t-26 44.5t-65 18.5t-64.5 -18.5t-25.5 -44.5z" />
    <glyph glyph-name="FL002Fh" unicode="/" horiz-adv-x="538" 
d="M239 0l233 596h-173l-233 -596h173z" />
    <glyph glyph-name="FL0030h" unicode="0" horiz-adv-x="913" 
d="M574 0q75 0 127.5 20.5t84.5 59t46.5 94t14.5 126.5q0 139 -64 217.5t-197 78.5h-258q-134 0 -198 -78.5t-64 -217.5q0 -71 14.5 -126.5t47 -94t84.5 -59t128 -20.5h234zM674 358v-123q0 -114 -156 -114h-132q-147 0 -147 114v123q0 25 7.5 47t25.5 38t48 25t75 9h123
q46 0 76 -9t48 -25t25 -38t7 -47zM367 295q0 -26 26 -44.5t64 -18.5q39 0 65 18.5t26 44.5t-26 44.5t-65 18.5q-38 0 -64 -18.5t-26 -44.5z" />
    <glyph glyph-name="FL0031h" unicode="1" horiz-adv-x="390" 
d="M66 597v-119h85v-478h173v596z" />
    <glyph glyph-name="FL0032h" unicode="2" 
d="M850 125v-125h-784v358h607q-7 33 -24 55t-42 35t-57 18.5t-70 5.5h-414v124h456q166 0 247 -78.5t81 -217.5v-65h-608v-110h608z" />
    <glyph glyph-name="FL0062h" unicode="3" horiz-adv-x="840" 
d="M66 0v121h379q156 0 156 114h-535v123h535q0 25 -7.5 47t-25.5 38t-48 25t-75 9h-379v119h446q134 0 198 -78.5t64 -217.5q0 -71 -14.5 -126.5t-47 -94t-84.5 -59t-128 -20.5h-434z" />
    <glyph glyph-name="FL0034h" unicode="4" horiz-adv-x="841" 
d="M775 0v596h-167v-238h-369v238h-173v-360h542v-236h167z" />
    <glyph glyph-name="FL0035h" unicode="5" 
d="M850 471v125h-784v-358h607q-7 -33 -24 -55t-42 -35t-57 -18.5t-70 -5.5h-414v-124h456q166 0 247 78.5t81 217.5v65h-608v110h608z" />
    <glyph glyph-name="FL0036h" unicode="6" 
d="M436 472h414v124h-456q-82 0 -142.5 -18.5t-101 -53.5t-61.5 -85t-23 -112v-89h2q6 -57 24 -101t51 -74.5t81.5 -46.5t115.5 -16h182q166 0 247 78.5t81 217.5v65h-608q16 64 67 87.5t127 23.5zM673 238q-7 -33 -24 -55t-42 -35t-57 -18.5t-70 -5.5h-118v-2
q-57 11 -90 36.5t-33 76.5l-1 3h435z" />
    <glyph glyph-name="FL0037h" unicode="7" horiz-adv-x="833" 
d="M767 477v119h-701v-119h472l-472 -477h233z" />
    <glyph glyph-name="FL0038h" unicode="8" horiz-adv-x="913" 
d="M574 0q75 0 127.5 20.5t84.5 59t46.5 94t14.5 126.5q0 139 -64 217.5t-197 78.5h-258q-134 0 -198 -78.5t-64 -217.5q0 -71 14.5 -126.5t47 -94t84.5 -59t128 -20.5h234zM674 358h-435q0 25 7.5 47t25.5 38t48 25t75 9h123q46 0 76 -9t48 -25t25 -38t7 -47zM518 121h-132
q-147 0 -147 113h435q-2 -113 -156 -113z" />
    <glyph glyph-name="FL0039h" unicode="9" 
d="M479 124h-233v-124h275q81 0 141.5 18.5t100.5 53.5t61 84.5t24 112.5v89h-2q-6 57 -24 101t-50.5 74.5t-81 46.5t-115.5 16h-183q-83 0 -144.5 -20t-102 -58.5t-60.5 -93.5t-20 -124v-65h607q-9 -32 -26 -53.5t-42 -34.5t-56.5 -18t-68.5 -5zM241 358q7 33 24 55t42 35
t57 18.5t70 5.5h118v2q58 -11 91 -36.5t33 -76.5l1 -3h-436z" />
    <glyph glyph-name="FL003Ah" unicode=":" horiz-adv-x="313" 
d="M66 63q0 -26 25.5 -44.5t64.5 -18.5t65 18.5t26 44.5t-26 44.5t-65 18.5t-64.5 -18.5t-25.5 -44.5zM66 295q0 -26 25.5 -44.5t64.5 -18.5t65 18.5t26 44.5t-26 44.5t-65 18.5t-64.5 -18.5t-25.5 -44.5z" />
    <glyph glyph-name="FL003Bh" unicode=";" horiz-adv-x="313" 
d="M66 295q0 -26 25.5 -44.5t64.5 -18.5t65 18.5t26 44.5t-26 44.5t-65 18.5t-64.5 -18.5t-25.5 -44.5zM66 -54q0 -26 25.5 -45t64.5 -19t65 18.5t26 44.5v118q0 26 -26 44.5t-65 18.5t-64.5 -18.5t-25.5 -44.5v-117z" />
    <glyph glyph-name="FL003Ch" unicode="&#x3c;" horiz-adv-x="575" 
d="M66 297l263 -297h180l-263 297l263 301h-181z" />
    <glyph glyph-name="FL003Dh" unicode="=" horiz-adv-x="586" 
d="M66 357h454v124h-454v-124zM66 109h454v124h-454v-124z" />
    <glyph glyph-name="FL003Eh" unicode="&#x3e;" horiz-adv-x="575" 
d="M508 297l-263 -297h-180l263 297l-263 301h181z" />
    <glyph glyph-name="FL003Fh" unicode="?" horiz-adv-x="918" 
d="M245 233h607v65q0 139 -81 217.5t-247 78.5h-456v-124h414q76 0 127.5 -24t66.5 -90h-608v-186h178zM66 62q0 -26 25.5 -44.5t64.5 -18.5t65 18.5t26 44.5t-26 44.5t-65 18.5t-64.5 -18.5t-25.5 -44.5z" />
    <glyph glyph-name="FL0EEEh" unicode="@" horiz-adv-x="1120" 
d="M779 326l1 -92l48 6q15 3 23 5.5t12.5 7t8 12t8.5 21.5v72q0 27 -4 58.5t-19.5 59t-46.5 46t-85 18.5h-330q-54 0 -85 -14.5t-47 -39.5t-20 -58t-4 -70v-123q0 -29 2 -61t14 -59t38 -44.5t74 -17.5h11q10 0 12 1h389v-122h-443q-76 0 -127.5 31t-83 82.5t-45.5 117.5
t-14 137q0 69 15.5 133.5t48 114.5t81.5 80t115 30h466q57 0 103 -20t78 -56.5t49.5 -87t17.5 -110.5v-83q-12 -45 -28 -77.5t-45 -54.5t-76 -33t-121 -13l-78 -13q-26 -10 -64 -14.5t-88 -4.5q-73 0 -115.5 12t-65.5 34.5t-30.5 54.5t-9.5 73v62q0 41 7.5 73t31.5 53.5
t68 33t118 11.5t120 -10.5t71.5 -32t34.5 -54t9 -75.5zM551 402q-29 0 -48 -4.5t-30 -12.5t-15 -20.5t-4 -28.5v-78q0 -20 2.5 -35t11.5 -25t27.5 -15t51.5 -5q40 0 62 5t32 16.5t12 31t2 48.5l-3 34q0 18 -1.5 34t-11 28.5t-30 19.5t-58.5 7z" />
    <glyph glyph-name="FL0041h" unicode="A" horiz-adv-x="886" 
d="M653 0h167v351q0 44 -20 88t-55 79t-83 56.5t-104 21.5h-492v-596h172v105h415v-105zM484 477q41 0 70.5 -11t49 -28.5t31 -38.5t17.5 -41v-136h-413v255h245z" />
    <glyph glyph-name="FL0042h" unicode="B" 
d="M850 300q0 -84 -24 -141t-66.5 -92.5t-101.5 -51t-129 -15.5h-463v596h456q166 0 247 -78.5t81 -217.5zM236 239v-127h244q47 0 81 6.5t57.5 21t36.5 39t19 60.5h-438zM673 358q-7 33 -24 55t-42 35t-57 18.5t-70 5.5h-244v-114h437z" />
    <glyph glyph-name="FL0043h" unicode="C" horiz-adv-x="840" 
d="M774 0v121h-379q-156 0 -156 114v123q0 25 7.5 47t25.5 38t48 25t75 9h379v119h-446q-134 0 -198 -78.5t-64 -217.5q0 -71 14.5 -126.5t47 -94t84.5 -59t128 -20.5h434z" />
    <glyph glyph-name="FL0044h" unicode="D" 
d="M850 300q0 139 -81 217.5t-247 78.5h-456v-596h463q70 0 129 15.5t101.5 51t66.5 92.5t24 141zM679 300q0 -56 -10 -92.5t-33.5 -57.5t-61.5 -29.5t-94 -8.5h-244v360h244q45 0 81.5 -7.5t63 -27t40.5 -53t14 -84.5z" />
    <glyph glyph-name="FL0045h" unicode="E" horiz-adv-x="840" 
d="M774 0h-434q-76 0 -128 20.5t-84.5 59t-47 94t-14.5 126.5q0 139 64 217.5t198 78.5h446v-119h-379q-45 0 -75 -9t-48 -25t-25.5 -38t-7.5 -47h535v-120h-535q0 -57 38 -87t118 -30h379v-121z" />
    <glyph glyph-name="FL0046h" unicode="F" horiz-adv-x="840" 
d="M239 0h-173v300q0 139 64 217.5t198 78.5h446v-119h-379q-45 0 -75 -9t-48 -25t-25.5 -38t-7.5 -47h535v-119h-535v-239z" />
    <glyph glyph-name="FL0047h" unicode="G" 
d="M529 234v124h321v-358h-464q-70 0 -129 15.5t-101.5 51t-66 92.5t-23.5 141q0 139 80.5 217.5t247.5 78.5h454v-124h-412q-45 0 -82 -7.5t-63 -27t-40.5 -53t-14.5 -84.5q0 -56 10.5 -92.5t34 -57.5t61.5 -29.5t94 -8.5h243v122h-150z" />
    <glyph glyph-name="FL0048h" unicode="H" horiz-adv-x="910" 
d="M844 0v596h-167v-238h-438v238h-173v-596h173v235h438v-235h167z" />
    <glyph glyph-name="FL0049h" unicode="I" horiz-adv-x="833" 
d="M767 119h-270v358h270v119h-701v-119h263v-358h-263v-119h701v119z" />
    <glyph glyph-name="FL004Ah" unicode="J" horiz-adv-x="840" 
d="M66 0v121h379q156 0 156 114v362h173v-297q0 -71 -14.5 -126.5t-47 -94t-84.5 -59t-128 -20.5h-434z" />
    <glyph glyph-name="FL004Bh" unicode="K" horiz-adv-x="881" 
d="M239 596h-173v-596h173v235l389 -235h216l-461 302l462 295h-217l-389 -239v238z" />
    <glyph glyph-name="FL004Ch" unicode="L" horiz-adv-x="840" 
d="M774 0v121h-379q-156 0 -156 114v362h-173v-297q0 -71 14.5 -126.5t47 -94t84.5 -59t128 -20.5h434z" />
    <glyph glyph-name="FL004Dh" unicode="M" horiz-adv-x="1162" 
d="M492 1h175v477h45q62 0 103.5 -8.5t66 -23.5t34.5 -36.5t10 -46.5v-363h167v393q0 48 -18.5 85.5t-62.5 64t-117.5 40t-182.5 13.5h-264q-110 0 -183.5 -13.5t-117.5 -40t-62.5 -64t-18.5 -85.5v-393h167v363q0 25 10 46.5t35 36.5t66 23.5t104 8.5h44v-477z" />
    <glyph glyph-name="FL004Eh" unicode="N" horiz-adv-x="910" 
d="M844 0v351q0 45 -18 87t-57 80q-36 40 -84 59t-103 19h-516v-596h173v477h269q52 0 85 -12t52 -32t25.5 -46.5t6.5 -55.5v-331h167z" />
    <glyph glyph-name="FL004Fh" unicode="O" horiz-adv-x="913" 
d="M574 0q75 0 127.5 20.5t84.5 59t46.5 94t14.5 126.5q0 139 -64 217.5t-197 78.5h-258q-134 0 -198 -78.5t-64 -217.5q0 -71 14.5 -126.5t47 -94t84.5 -59t128 -20.5h234zM674 358v-123q0 -114 -156 -114h-132q-147 0 -147 114v123q0 25 7.5 47t25.5 38t48 25t75 9h123
q46 0 76 -9t48 -25t25 -38t7 -47z" />
    <glyph glyph-name="FL0DB9h" unicode="P" horiz-adv-x="887" 
d="M239 0v105h320q55 0 103 19t84 59q39 38 57 80t18 87h-3l2 1q0 45 -17.5 86t-56.5 79q-36 40 -84.5 60t-103.5 20h-492v-596h173zM485 224h-246v253h245q46 0 77 -11t50.5 -29t29 -41t11.5 -47q-4 -32 -14 -55.5t-29.5 -39t-49.5 -23t-74 -7.5z" />
    <glyph glyph-name="FL0051h" unicode="Q" horiz-adv-x="913" 
d="M574 0h25l68 -77l130 50l-59 65q59 36 84 102t25 160q0 139 -64 217.5t-197 78.5h-258q-134 0 -198 -78.5t-64 -217.5q0 -71 14.5 -126.5t47 -94t84.5 -59t128 -20.5h234zM385 243l107 -122h-106q-147 0 -147 114v123q0 25 7.5 47t25.5 38t48 25t75 9h123q46 0 76 -9
t48 -25t25 -38t7 -47v-123q0 -56 -36 -84l-129 146z" />
    <glyph glyph-name="FL0054h" unicode="R" horiz-adv-x="887" 
d="M239 0v105h252l93 -105h188l-112 123q46 19 88 59q38 39 55.5 81t17.5 87h-3l2 1q0 45 -18 87t-57 80q-36 40 -84 59t-103 19h-492v-596h173zM485 224h-246v253h245q46 0 76.5 -11t48.5 -29.5t26.5 -42t10.5 -47.5q-4 -32 -13 -55t-27 -38t-47 -22.5t-74 -7.5z" />
    <glyph glyph-name="FL0073h" unicode="S" 
d="M436 472q-76 0 -127 -23.5t-67 -87.5h608v-65q0 -139 -81 -217.5t-247 -78.5h-456v124h414q38 0 70 6t57 19.5t42 36t24 55.5h-607v59q0 139 80.5 217.5t247.5 78.5h456v-124h-414z" />
    <glyph glyph-name="T" unicode="T" horiz-adv-x="833" 
d="M767 477v119h-701v-119h263v-477h168v477h270z" />
    <glyph glyph-name="FL0055h" unicode="U" horiz-adv-x="910" 
d="M66 596h167v-331q0 -29 6.5 -55.5t25.5 -46.5t51.5 -32t85.5 -12h269v477h173v-596h-516q-56 0 -104 19t-84 59q-38 38 -56 80t-18 87v351z" />
    <glyph glyph-name="FL0056h" unicode="V" horiz-adv-x="925" 
d="M66 598l278 -598h250l265 598h-181l-208 -477l-223 477h-181z" />
    <glyph glyph-name="FL0057h" unicode="W" horiz-adv-x="1158" 
d="M64 596h166v-331q0 -27 5 -53.5t24.5 -47t57.5 -33t104 -12.5h109q-39 60 -39 126v351h167v-331q0 -29 3 -55.5t16.5 -46.5t42.5 -32t82 -12h115v477h173v-596h-765q-55 0 -103 19t-84 59q-39 38 -56.5 80t-17.5 87v351z" />
    <glyph glyph-name="FL0058h" unicode="X" horiz-adv-x="841" 
d="M66 597l266 -300l-262 -297h180l172 195l173 -195h180l-263 297l263 301h-181l-172 -199l-175 198h-181z" />
    <glyph glyph-name="FL0059h" unicode="Y" 
d="M848 596h-176v-234h-331q-86 15 -100 83v152h-175v-64q0 -70 15 -125t48 -93t85 -58t126 -20v1h333q-7 -33 -24 -55t-42 -35t-57 -18.5t-70 -5.5h-239v-124h281q166 0 247 78.5t81 217.5z" />
    <glyph glyph-name="FL005Ah" unicode="Z" horiz-adv-x="833" 
d="M767 477v119h-701v-119h472l-472 -358v-119h701v119h-473z" />
    <glyph glyph-name="FL005Bh" unicode="[" horiz-adv-x="541" 
d="M472 -68v121h-232v488h235v118h-409v-728z" />
    <glyph glyph-name="FL005Ch" unicode="\" horiz-adv-x="538" 
d="M299 0l-233 596h173l233 -596h-173z" />
    <glyph glyph-name="FL005Dh" unicode="]" horiz-adv-x="541" 
d="M68 -68v121h232v488h-235v118h409v-728z" />
    <glyph glyph-name="FL005Eh" unicode="^" horiz-adv-x="502" 
d="M436 409l-129 186h-116l-125 -186h120l67 105l66 -105h117z" />
    <glyph glyph-name="FL005Fh" unicode="_" horiz-adv-x="607" 
d="M36 63v-123h535v123h-535z" />
    <glyph glyph-name="FL0060h" unicode="`" horiz-adv-x="343" 
d="M210 563q-8 9 -22 21t-28 12q-25 0 -50 -17q-17 -11 -30.5 -21.5t-13.5 -25.5q0 -19 12 -32l80 -75q17 -20 45 -20q14 0 25 3.5t23 12.5q14 11 20 21.5t6 25.5q0 20 -12 35z" />
    <glyph glyph-name="FL0061h" unicode="a" horiz-adv-x="886" 
d="M233 0v105h415v-105h172v596h-492q-56 0 -104 -21.5t-83 -56.5t-55 -79t-20 -88v-351h167zM402 477h245v-255h-413v136q6 20 17.5 41t31 38.5t49 28.5t70.5 11z" />
    <glyph glyph-name="FL0063h" unicode="b" 
d="M850 300q0 -84 -24 -141t-66.5 -92.5t-101.5 -51t-129 -15.5h-463v596h456q166 0 247 -78.5t81 -217.5zM236 239v-127h244q47 0 81 6.5t57.5 21t36.5 39t19 60.5h-438zM673 358q-7 33 -24 55t-42 35t-57 18.5t-70 5.5h-244v-114h437z" />
    <glyph glyph-name="c" unicode="c" horiz-adv-x="840" 
d="M774 0v121h-379q-156 0 -156 114v123q0 25 7.5 47t25.5 38t48 25t75 9h379v119h-446q-134 0 -198 -78.5t-64 -217.5q0 -71 14.5 -126.5t47 -94t84.5 -59t128 -20.5h434z" />
    <glyph glyph-name="d" unicode="d" 
d="M850 300q0 139 -81 217.5t-247 78.5h-456v-596h463q70 0 129 15.5t101.5 51t66.5 92.5t24 141zM679 300q0 -56 -10 -92.5t-33.5 -57.5t-61.5 -29.5t-94 -8.5h-244v360h244q45 0 81.5 -7.5t63 -27t40.5 -53t14 -84.5z" />
    <glyph glyph-name="e" unicode="e" horiz-adv-x="840" 
d="M774 0h-434q-76 0 -128 20.5t-84.5 59t-47 94t-14.5 126.5q0 139 64 217.5t198 78.5h446v-119h-379q-45 0 -75 -9t-48 -25t-25.5 -37.5t-7.5 -46.5h432v-119h-432q0 -57 38 -88t118 -31h379v-121z" />
    <glyph glyph-name="FL0066h" unicode="f" horiz-adv-x="840" 
d="M239 0h-173v300q0 139 64 217.5t198 78.5h446v-119h-379q-45 0 -75 -9t-48 -25t-25.5 -37.5t-7.5 -46.5h432v-120h-432v-239z" />
    <glyph glyph-name="FL0067h" unicode="g" 
d="M236 300q0 51 14.5 84.5t40.5 53t63 27t82 7.5h412v124h-454q-167 0 -247.5 -78.5t-80.5 -217.5q0 -84 23.5 -141t66 -92.5t101.5 -51t129 -15.5h464v358h-171v-246h-243q-56 0 -94 8.5t-61.5 29.5t-34 57.5t-10.5 92.5z" />
    <glyph glyph-name="FL0068h" unicode="h" horiz-adv-x="910" 
d="M844 0v596h-167v-238h-438v238h-173v-596h173v235h438v-235h167z" />
    <glyph glyph-name="i" unicode="i" horiz-adv-x="305" 
d="M239 0v596h-173v-596h173z" />
    <glyph glyph-name="FL006Ah" unicode="j" horiz-adv-x="840" 
d="M66 0v121h379q156 0 156 114v362h173v-297q0 -71 -14.5 -126.5t-47 -94t-84.5 -59t-128 -20.5h-434z" />
    <glyph glyph-name="FL006Bh" unicode="k" horiz-adv-x="881" 
d="M239 596h-173v-596h173v234h203l222 -234h180l-263 297l264 300h-181l-219 -239h-206v238z" />
    <glyph glyph-name="FL006Ch" unicode="l" horiz-adv-x="840" 
d="M774 0v121h-379q-156 0 -156 114v362h-173v-297q0 -71 14.5 -126.5t47 -94t84.5 -59t128 -20.5h434z" />
    <glyph glyph-name="FL006Dh" unicode="m" horiz-adv-x="1158" 
d="M1091 0h-167v331q0 27 -5 53.5t-24.5 47.5t-57.5 33.5t-104 12.5h-105q20 -30 28 -62t8 -65v-351h-167v331q0 29 -3.5 55.5t-18 46.5t-43.5 32t-79 12h-115v-477h-173v596h764q55 0 103 -19t84 -59q39 -38 57 -80t18 -87v-351z" />
    <glyph glyph-name="n" unicode="n" horiz-adv-x="886" 
d="M820 0v351q0 45 -18 87t-57 80q-36 40 -84 59t-103 19h-492v-596h173v477h245q52 0 85 -12t52 -32t25.5 -46.5t6.5 -55.5v-331h167z" />
    <glyph glyph-name="FL006Fh" unicode="o" horiz-adv-x="910" 
d="M842 203q0 -51 -19.5 -89t-65 -63.5t-121.5 -38t-190 -12.5q-109 0 -182 13.5t-117 39t-62.5 63t-18.5 84.5v197q0 48 19.5 85.5t65 63t120 39t184.5 13.5q112 0 187 -12t119 -36.5t62.5 -62t18.5 -87.5v-197zM455 480q-61 0 -103.5 -7.5t-69 -21.5t-38.5 -34t-12 -45
v-139q0 -26 10 -47.5t34.5 -36.5t66 -23t103.5 -8q71 0 115 6t68.5 20t33 37t8.5 57v134q0 22 -7.5 42t-30 34.5t-65.5 23t-113 8.5z" />
    <glyph glyph-name="FL0070h" unicode="p" horiz-adv-x="887" 
d="M239 0v105h320q55 0 103 19t84 59q39 38 57 80t18 87h-3l2 1q0 45 -17.5 86t-56.5 79q-36 40 -84.5 60t-103.5 20h-492v-596h173zM485 224h-246v253h245q46 0 77 -11t50.5 -29t29 -41t11.5 -47q-4 -32 -14 -55.5t-29.5 -39t-49.5 -23t-74 -7.5z" />
    <glyph glyph-name="FL0071h" unicode="q" horiz-adv-x="910" 
d="M842 203q0 -57 -24.5 -97.5t-81.5 -65.5l88 -99h-171l-60 65q-63 -6 -147 -6q-109 0 -182 13.5t-117 39t-62.5 63t-18.5 84.5v197q0 48 19.5 85.5t65 63t120 39t184.5 13.5q112 0 187 -12t119 -36.5t62.5 -62t18.5 -87.5v-197zM385 243h168l84 -94q19 14 26.5 35.5
t7.5 53.5v134q0 22 -7.5 42t-30 34.5t-65.5 23t-113 8.5q-61 0 -103.5 -7.5t-69 -21.5t-38.5 -34t-12 -45v-139q0 -26 10 -47.5t34.5 -36.5t66 -23t103.5 -8h24h12q6 0 11 1z" />
    <glyph glyph-name="FL0072h" unicode="r" horiz-adv-x="887" 
d="M239 0v105h252l93 -105h188l-112 123q46 19 88 59q38 39 55.5 81t17.5 87h-3l2 1q0 45 -18 87t-57 80q-36 40 -84 59t-103 19h-492v-596h173zM485 224h-246v253h245q46 0 76.5 -11t48.5 -29.5t26.5 -42t10.5 -47.5q-4 -32 -13 -55t-27 -38t-47 -22.5t-74 -7.5z" />
    <glyph glyph-name="FL0053h" unicode="s" 
d="M436 472q-76 0 -127 -23.5t-67 -87.5h608v-65q0 -139 -81 -217.5t-247 -78.5h-455v124h413q38 0 70 6t57 19.5t42 36t24 55.5h-607v59q0 139 80.5 217.5t247.5 78.5h276v-124h-234z" />
    <glyph glyph-name="t" unicode="t" horiz-adv-x="833" 
d="M767 477v119h-701v-119h263v-477h168v477h270z" />
    <glyph glyph-name="u" unicode="u" horiz-adv-x="910" 
d="M844 596v-393q0 -51 -19.5 -89t-65.5 -63.5t-122 -38t-189 -12.5q-110 0 -183.5 13.5t-117.5 40t-62.5 64t-18.5 85.5v393h167v-363q0 -26 10 -47.5t35 -36.5t66 -23t104 -8q70 0 114 6t68 20t32.5 37t8.5 57v358h173z" />
    <glyph glyph-name="FL0076h" unicode="v" horiz-adv-x="865" 
d="M828 598h-181l-217 -477l-214 477h-181l271 -598h250z" />
    <glyph glyph-name="FL0077h" unicode="w" horiz-adv-x="1162" 
d="M492 595h175v-477h45q62 0 103.5 8.5t66 23.5t34.5 36t10 47v363h167v-393q0 -48 -18.5 -85.5t-62.5 -64t-117.5 -40t-182.5 -13.5h-264q-110 0 -183.5 13.5t-117.5 40t-62.5 64t-18.5 85.5v393h167v-363q0 -26 10 -47t35 -36t66 -23.5t104 -8.5h44v477z" />
    <glyph glyph-name="FL0078h" unicode="x" horiz-adv-x="781" 
d="M36 597l266 -300l-262 -297h180l172 195l173 -195h180l-263 297l263 301h-181l-172 -199l-175 198h-181z" />
    <glyph glyph-name="FL0079h" unicode="y" 
d="M848 596l2 -300q0 -139 -81 -217.5t-247 -78.5h-281v124h239q38 0 70 5.5t57 18.5t42 35t24 55h-347q-76 2 -126 19t-80 49.5t-42 79t-12 108.5v103h175v-152q1 -36 25 -57.5t75 -25.5h331v234h176z" />
    <glyph glyph-name="FL007Ah" unicode="z" horiz-adv-x="833" 
d="M767 477v119h-701v-119h472l-472 -358v-119h701v119h-473z" />
    <glyph glyph-name="FL007Bh" unicode="{" horiz-adv-x="514" 
d="M448 0v121h-53q-156 0 -156 114v123q0 25 7.5 47t25.5 38t48 25t75 9h53v119h-120q-134 0 -198 -78.5t-64 -217.5q0 -71 14.5 -126.5t47 -94t84.5 -59t128 -20.5h108z" />
    <glyph glyph-name="FL007Ch" unicode="|" horiz-adv-x="305" 
d="M238 -123v842h-172v-842h172z" />
    <glyph glyph-name="FL007Dh" unicode="}" horiz-adv-x="514" 
d="M66 0v121h53q156 0 156 114v123q0 25 -7.5 47t-25.5 38t-48 25t-75 9h-53v119h120q134 0 198 -78.5t64 -217.5q0 -71 -14.5 -126.5t-47 -94t-84.5 -59t-128 -20.5h-108z" />
    <glyph glyph-name="FL007Eh" unicode="~" horiz-adv-x="568" 
d="M161 382l-125 -170h120l64 92l70 -93h117l125 170h-120l-65 -92l-70 93h-116z" />
    <glyph glyph-name="FL007Fh" horiz-adv-x="242" 
 />
    <glyph glyph-name="FL00A1h" unicode="&#xa1;" horiz-adv-x="313" 
d="M68 -1h176v423h-176v-423zM246 530q0 26 -25.5 44.5t-64.5 18.5t-65 -18.5t-26 -44.5t26 -44.5t65 -18.5t64.5 18.5t25.5 44.5z" />
    <glyph glyph-name="FL00A2h" unicode="&#xa2;" horiz-adv-x="841" 
d="M569 0v53h206v121h-206v254h205v119h-205v49h-173v-49h-68q-67 0 -116.5 -17.5t-81.5 -48.5t-48 -73.5t-16 -93.5v-3q0 -71 17 -120t51.5 -79.5t86 -44.5t120.5 -14h55v-53h173zM240 288v37q0 45 36 74t119 29h1v-254q-156 0 -156 114z" />
    <glyph glyph-name="FL00A3h" unicode="&#xa3;" horiz-adv-x="886" 
d="M66 231v124h113q11 115 74 178t185 63h172v-118h-105q-45 0 -75 -9.5t-48 -25.5t-25.5 -38t-7.5 -47h261v-127h-261v-109h471v-122h-644v231h-110z" />
    <glyph glyph-name="FL00A4h" unicode="&#xa4;" horiz-adv-x="781" 
d="M613 229v123q0 43 -20 72l152 174h-181l-110 -127h-125l-112 126h-181l158 -179q-10 -14 -13 -30.5t-3 -35.5v-123q0 -36 13 -58l-151 -171h180l102 115h141l102 -115h180l-149 167q17 26 17 62zM487 318v-53q0 -49 -68 -49h-59q-66 0 -66 49v53q0 22 14.5 36t55.5 14h55
q40 0 54 -14t14 -36z" />
    <glyph glyph-name="FL00A5h" unicode="&#xa5;" horiz-adv-x="781" 
d="M161 208v124h110l-235 265h181l175 -198l172 199h181l-231 -266h100v-124h-136v-34h136v-124h-136v-50h-173v50h-144v124h144v34h-144z" />
    <glyph glyph-name="FLE004h" unicode="&#xa6;" horiz-adv-x="910" 
d="M845 0h-174v106h-437v-106h-168v393q0 48 18.5 85.5t62.5 64t117.5 40t183.5 13.5q113 0 189.5 -12.5t122.5 -38t65.5 -63.5t19.5 -89v-393zM234 230h437v128q0 34 -8.5 57t-32.5 37t-68 20t-114 6q-62 0 -103 -8t-66 -22.5t-35 -35.5t-10 -46v-136z" />
    <glyph glyph-name="FL00B0h" unicode="&#xa7;" 
d="M436 472q-76 0 -127 -23.5t-67 -87.5h608v-65q0 -139 -81 -217.5t-247 -78.5h-278v124h236q38 0 70 5.5t57 18.5t42 35t24 55h-607v62q0 139 80.5 217.5t247.5 78.5h276v-124h-234z" />
    <glyph glyph-name="FL00A8h" unicode="&#xa8;" horiz-adv-x="554" 
d="M307 532q0 -26 26 -44.5t64 -18.5q39 0 65 18.5t26 44.5t-26 44.5t-65 18.5q-38 0 -64 -18.5t-26 -44.5zM66 532q0 -26 25.5 -44.5t64.5 -18.5t65 18.5t26 44.5t-26 44.5t-65 18.5t-64.5 -18.5t-25.5 -44.5z" />
    <glyph glyph-name="FL00A9h" unicode="&#xa9;" horiz-adv-x="520" 
d="M454 398v99q0 25 -9 43.5t-31.5 31t-60 18.5t-93.5 6q-55 0 -92.5 -7t-60 -19.5t-32 -31.5t-9.5 -43v-98q0 -24 9 -42.5t31 -31t58.5 -19.5t91.5 -7q57 0 95 6t61 19t32.5 31.5t9.5 44.5zM260 542q38 0 61 -4.5t35.5 -12.5t16.5 -18.5t4 -22.5v-72q0 -18 -5 -30.5
t-18 -20t-37 -10.5t-61 -3q-34 0 -56.5 4t-36 12t-19 19.5t-5.5 26.5v74q0 27 26.5 42.5t94.5 15.5zM336 376v28h-91q-39 0 -39 27v28q0 12 8 20t31 8h91v28h-108q-32 0 -48 -18.5t-16 -50.5q0 -33 15 -51.5t53 -18.5h104z" />
    <glyph glyph-name="FLE003h" unicode="&#xaa;" horiz-adv-x="886" 
d="M233 0h-167v351q0 44 20 88t55 79t83 56.5t104 21.5h492v-596h-173v235h-414v-235zM402 477q-46 0 -77 -9.5t-50.5 -25.5t-29 -38t-11.5 -46h413v119h-245z" />
    <glyph glyph-name="FL00ABh" unicode="&#xab;" horiz-adv-x="640" 
d="M288 448l-223 -107v-97l223 -104v100l-126 56l126 55v97zM572 448l-223 -107v-97l223 -104v100l-126 56l126 55v97z" />
    <glyph glyph-name="FL00ADh" unicode="&#xac;" horiz-adv-x="670" 
d="M66 358v-123h390v-162h148v285h-538z" />
    <glyph glyph-name="FL00AEh" unicode="&#xad;" horiz-adv-x="488" 
d="M66 234h356v124h-356v-124z" />
    <glyph glyph-name="FL00B8h" unicode="&#xae;" horiz-adv-x="520" 
d="M454 398v99q0 25 -9 43.5t-31.5 31t-60 18.5t-93.5 6q-55 0 -92.5 -7t-60 -19.5t-32 -31.5t-9.5 -43v-98q0 -24 9 -42.5t31 -31t58.5 -19.5t91.5 -7q57 0 95 6t61 19t32.5 31.5t9.5 44.5zM260 542q38 0 61 -4.5t35.5 -12.5t16.5 -18.5t4 -22.5v-72q0 -18 -5 -30.5
t-18 -20t-37 -10.5t-61 -3q-34 0 -56.5 4t-36 12t-19 19.5t-5.5 26.5v74q0 27 26.5 42.5t94.5 15.5zM164 382h42v77q0 12 8 20t31 8h91v28h-108q-32 0 -48 -18.5t-16 -50.5v-64z" />
    <glyph glyph-name="FL00AFh" unicode="&#xaf;" horiz-adv-x="607" 
d="M36 660v-123h535v123h-535z" />
    <glyph glyph-name="FL0040h" unicode="&#xb0;" horiz-adv-x="840" 
d="M66 596v-121h379q156 0 156 -114v-362h173v297q0 70 -14.5 126t-47 94.5t-84.5 59t-128 20.5h-434z" />
    <glyph glyph-name="FL00B1h" unicode="&#xb1;" horiz-adv-x="667" 
d="M258 498l2 -95h-194v-123h192v-93h150v93h193v123h-195v95h-148zM602 123h-535v-123h535v123z" />
    <glyph glyph-name="FL00B2h" unicode="&#xb2;" horiz-adv-x="523" 
d="M457 360v-62h-391v179h304q-8 33 -33.5 45t-64.5 12h-206v62h228q83 0 123 -39.5t40 -108.5v-33h-303v-55h303z" />
    <glyph glyph-name="FL00B3h" unicode="&#xb3;" horiz-adv-x="486" 
d="M66 298v60h190q78 0 78 57h-268v62h268q0 26 -16 42.5t-62 16.5h-190v60h223q68 0 99.5 -39.5t31.5 -108.5q0 -72 -30.5 -111t-106.5 -39h-217z" />
    <glyph glyph-name="FL00B4h" unicode="&#xb4;" horiz-adv-x="343" 
d="M133 563q8 9 22.5 21t28.5 12q24 0 49 -17q17 -11 30.5 -21.5t13.5 -25.5q0 -20 -12 -32l-80 -75q-17 -20 -45 -20q-14 0 -25 3.5t-23 12.5q-14 11 -20 21.5t-6 25.5q0 18 12 35z" />
    <glyph glyph-name="FL00B5h" unicode="&#xb5;" 
d="M66 596h176v-234h332q87 15 99 83v152h175v-64q0 -70 -15 -125t-47.5 -93t-84.5 -58t-126 -20v1h-334q7 -33 24 -55t42 -35t57 -18.5t70 -5.5h239v-124h-281q-83 0 -144.5 20t-102 58.5t-60.5 93.5t-20 124z" />
    <glyph glyph-name="FL00B6h" unicode="&#xb6;" horiz-adv-x="887" 
d="M385 478h262v-478h173v596h-492q-56 0 -104 -19t-84 -59q-38 -38 -56 -80t-18 -87l1 -1h-2q0 -45 17 -87t56 -81q42 -40 88 -59v-123h159v478z" />
    <glyph glyph-name="FL00B7h" unicode="&#xb7;" horiz-adv-x="313" 
d="M66 295q0 -26 25.5 -44.5t64.5 -18.5t65 18.5t26 44.5t-26 44.5t-65 18.5t-64.5 -18.5t-25.5 -44.5z" />
    <glyph glyph-name="FL00ACh" unicode="&#xb8;" 
d="M479 472h-414v124h456q166 0 246.5 -78.5t80.5 -217.5v-62h-607q7 -33 24 -55t42 -35t57 -18.5t70 -5.5h414v-124h-456q-83 0 -144.5 20t-102 58.5t-60.5 93.5t-20 124v65h607q-17 64 -67 87.5t-126 23.5z" />
    <glyph glyph-name="FL00B9h" unicode="&#xb9;" horiz-adv-x="260" 
d="M66 595v-59h42v-239h86v298h-128z" />
    <glyph glyph-name="FL00BAh" unicode="&#xba;" horiz-adv-x="520" 
d="M454 397v99q0 25 -9 43.5t-31.5 31t-60 18.5t-93.5 6q-55 0 -92.5 -7t-60 -19.5t-32 -31.5t-9.5 -43v-98q0 -24 9 -42.5t31 -31t58.5 -19.5t91.5 -7q57 0 95 6t61 19t32.5 31.5t9.5 44.5zM260 536q35 0 56.5 -4t33 -11.5t15 -17.5t3.5 -21v-67q0 -17 -4.5 -28.5
t-16.5 -18.5t-34 -10t-57 -3q-62 0 -84.5 15.5t-22.5 41.5v70q0 25 25 39.5t86 14.5z" />
    <glyph glyph-name="FL00BBh" unicode="&#xbb;" horiz-adv-x="640" 
d="M350 448l224 -107v-97l-224 -104v100l126 56l-126 55v97zM66 448l223 -107v-97l-223 -104v100l126 56l-126 55v97z" />
    <glyph glyph-name="FL0050h" unicode="&#xbc;" horiz-adv-x="886" 
d="M239 235h581v116q-2 44 -22 88t-54.5 79t-82 56.5t-103.5 21.5h-492v-596h173v235zM484 477q46 0 77 -9.5t50.5 -25.5t29 -38t11.5 -46h-413v119h245z" />
    <glyph glyph-name="FL00BDh" unicode="&#xbd;" horiz-adv-x="1036" 
d="M1025 0v62h-304v55h304v33q0 69 -40 108.5t-123 39.5h-228v-62h206q39 0 64.5 -12t32.5 -45h-303v-179h391zM301 0l605 596h-167l-611 -596h173zM192 596v-59h49v-239h101v298h-150z" />
    <glyph glyph-name="FL0052h" unicode="&#xbe;" horiz-adv-x="886" 
d="M820 235v116q0 44 -20 88t-55 79t-83 56.5t-104 21.5h-492v-596h173v235h161l206 -235h192l-209 235h231zM484 477q46 0 77 -9.5t50.5 -25.5t29 -38t11.5 -46h-413v119h245z" />
    <glyph glyph-name="FL00BFh" unicode="&#xbf;" horiz-adv-x="918" 
d="M672 359h-607v-65q0 -69 20 -124t60.5 -93.5t102 -58.5t144.5 -20h456v124h-414q-38 0 -70 5.5t-57 18.5t-42 35t-24 55h607v186h-175zM851 530q0 26 -26 44.5t-64 18.5q-39 0 -65 -18.5t-26 -44.5t26 -44.5t65 -18.5q38 0 64 18.5t26 44.5z" />
    <glyph glyph-name="FL00C0h" unicode="&#xc0;" horiz-adv-x="886" 
d="M484 839q-8 9 -22.5 21t-28.5 12q-24 0 -49 -17q-14 -13 -29 -22.5t-15 -24.5q0 -20 12 -32l80 -75q17 -20 44 -20q14 0 25.5 3.5t22.5 12.5q15 11 21 21.5t6 25.5q0 18 -12 35zM233 0v235h414v-235h173v596h-492q-56 0 -104 -21.5t-83 -56.5t-55 -79t-20 -88v-351h167z
M402 477h245v-119h-413q2 24 11.5 46t29 38t50.5 25.5t77 9.5z" />
    <glyph glyph-name="FL00C1h" unicode="&#xc1;" horiz-adv-x="886" 
d="M401 778q-12 -15 -12 -35q0 -15 6 -25.5t20 -21.5q12 -9 23 -12.5t25 -3.5q28 0 45 20l80 75q12 13 12 32q0 15 -15 24.5t-29 22.5q-25 17 -50 17q-14 0 -28 -12t-22 -21zM233 0v235h414v-235h173v596h-492q-56 0 -104 -21.5t-83 -56.5t-55 -79t-20 -88v-351h167z
M402 477h245v-119h-413q2 24 11.5 46t29 38t50.5 25.5t77 9.5z" />
    <glyph glyph-name="FL00C2h" unicode="&#xc2;" horiz-adv-x="886" 
d="M660 679l-128 186h-117l-125 -186h120l68 105l66 -105h116zM233 0v235h414v-235h173v596h-492q-56 0 -104 -21.5t-83 -56.5t-55 -79t-20 -88v-351h167zM402 477h245v-119h-413q2 24 11.5 46t29 38t50.5 25.5t77 9.5z" />
    <glyph glyph-name="FL00C3h" unicode="&#xc3;" horiz-adv-x="886" 
d="M360 842l-125 -162h120l64 87l71 -88h116l125 162h-120l-65 -88l-70 89h-116zM233 0v235h414v-235h173v596h-492q-56 0 -104 -21.5t-83 -56.5t-55 -79t-20 -88v-351h167zM402 477h245v-119h-413q2 24 11.5 46t29 38t50.5 25.5t77 9.5z" />
    <glyph glyph-name="FL00C4h" unicode="&#xc4;" horiz-adv-x="886" 
d="M480 731q0 -26 25.5 -44.5t64.5 -18.5t65 18.5t26 44.5t-26 44.5t-65 18.5t-64.5 -18.5t-25.5 -44.5zM239 731q0 -26 25.5 -44.5t64.5 -18.5q38 0 64.5 18.5t26.5 44.5t-26.5 44.5t-64.5 18.5q-39 0 -64.5 -18.5t-25.5 -44.5zM233 0v235h414v-235h173v596h-492
q-56 0 -104 -21.5t-83 -56.5t-55 -79t-20 -88v-351h167zM402 477h245v-119h-413q2 24 11.5 46t29 38t50.5 25.5t77 9.5z" />
    <glyph glyph-name="FL00C5h" unicode="&#xc5;" horiz-adv-x="886" 
d="M360 730q0 -26 25.5 -44.5t64.5 -18.5t65 18.5t26 44.5t-26 44.5t-65 18.5t-64.5 -18.5t-25.5 -44.5zM233 0v235h414v-235h173v596h-492q-56 0 -104 -21.5t-83 -56.5t-55 -79t-20 -88v-351h167zM402 477h245v-119h-413q2 24 11.5 46t29 38t50.5 25.5t77 9.5z" />
    <glyph glyph-name="FL00C6h" unicode="&#xc6;" horiz-adv-x="1421" 
d="M233 0v105h415v-105h707v121h-379q-156 0 -156 114h432v124h-432q0 25 7 46.5t25 37.5t48 25t76 9h379v119h-1027q-56 0 -104 -21.5t-83 -56.5t-55 -79t-20 -88v-351h167zM402 477h245v-255h-413v136q2 24 11.5 46t29 38t50.5 25.5t77 9.5z" />
    <glyph glyph-name="FL00C7h" unicode="&#xc7;" horiz-adv-x="840" 
d="M250 -169h97q125 0 189 38.5t81 130.5h157v121h-379q-156 0 -156 114v123q0 25 7.5 47t25.5 38t48 25t75 9h379v119h-446q-134 0 -198 -78.5t-64 -217.5q0 -71 14.5 -126.5t47 -94t84.5 -59t128 -20.5h109q-4 -18 -13 -27.5t-24.5 -14t-37.5 -5.5t-50 -1h-74v-121z" />
    <glyph glyph-name="FL00C8h" unicode="&#xc8;" horiz-adv-x="840" 
d="M774 0v121h-379q-156 0 -156 114h534v125h-534q0 25 7.5 46t25.5 37t48 25t75 9h379v119h-446q-134 0 -198 -78.5t-64 -217.5q0 -71 14.5 -126.5t47 -94t84.5 -59t128 -20.5h434zM472 839q-8 9 -22.5 21t-28.5 12q-24 0 -49 -17q-14 -13 -29 -22.5t-15 -24.5
q0 -20 12 -32l80 -75q17 -20 44 -20q14 0 25.5 3.5t22.5 12.5q15 11 21 21.5t6 25.5q0 18 -12 35z" />
    <glyph glyph-name="FL00C9h" unicode="&#xc9;" horiz-adv-x="840" 
d="M774 0v121h-379q-156 0 -156 114h536v126h-536q0 24 7.5 45.5t25.5 37t48 24.5t75 9h379v119h-446q-134 0 -198 -78.5t-64 -217.5q0 -71 14.5 -126.5t47 -94t84.5 -59t128 -20.5h434zM410 780q-12 -17 -12 -35q0 -15 6.5 -25.5t20.5 -21.5q11 -9 22.5 -12.5t25.5 -3.5
q27 0 44 20l81 75q12 13 12 32q0 7 -4.5 13t-11 11.5t-14.5 11t-15 11.5q-23 17 -49 17q-14 0 -28 -12t-22 -21z" />
    <glyph glyph-name="FL00CAh" unicode="&#xca;" horiz-adv-x="840" 
d="M774 0v121h-379q-156 0 -156 114h535v125h-535q0 25 7.5 46t25.5 37t48 25t75 9h379v119h-446q-134 0 -198 -78.5t-64 -217.5q0 -71 14.5 -126.5t47 -94t84.5 -59t128 -20.5h434zM640 678l-129 186h-116l-125 -186h120l67 105l66 -105h117z" />
    <glyph glyph-name="FL00CBh" unicode="&#xcb;" horiz-adv-x="840" 
d="M774 0v121h-379q-156 0 -156 114h536v123h-536q0 25 7.5 47t25.5 38t48 25t75 9h379v119h-446q-134 0 -198 -78.5t-64 -217.5q0 -71 14.5 -126.5t47 -94t84.5 -59t128 -20.5h434zM497 730q0 -26 25.5 -44.5t64.5 -18.5q38 0 64.5 18.5t26.5 44.5t-26.5 44.5t-64.5 18.5
q-39 0 -64.5 -18.5t-25.5 -44.5zM256 730q0 -26 25.5 -44.5t64.5 -18.5q38 0 64.5 18.5t26.5 44.5t-26.5 44.5t-64.5 18.5q-39 0 -64.5 -18.5t-25.5 -44.5z" />
    <glyph glyph-name="FL00CCh" unicode="&#xcc;" horiz-adv-x="833" 
d="M66 119h270v358h-270v119h701v-119h-263v-358h263v-119h-701v119zM496 781q12 -17 12 -35q0 -15 -6.5 -25.5t-20.5 -21.5q-11 -9 -22.5 -12.5t-25.5 -3.5q-27 0 -44 20l-81 75q-12 13 -12 32q0 7 4.5 13t11 11.5t14.5 11t15 11.5q23 17 49 17q14 0 28 -12t22 -21z" />
    <glyph glyph-name="FL00CDh" unicode="&#xcd;" horiz-adv-x="833" 
d="M767 119h-270v358h270v119h-701v-119h263v-358h-263v-119h701v119zM337 781q-12 -17 -12 -35q0 -15 6 -25.5t21 -21.5q11 -9 22.5 -12.5t25.5 -3.5q27 0 44 20l80 75q12 12 12 32q0 15 -15 24.5t-29 22.5q-25 17 -49 17q-14 0 -28.5 -12t-22.5 -21z" />
    <glyph glyph-name="FL00EEh" unicode="&#xce;" horiz-adv-x="833" 
d="M767 119h-270v358h270v119h-701v-119h263v-358h-263v-119h701v119zM599 681l-129 186h-116l-125 -186h120l67 105l66 -105h117z" />
    <glyph glyph-name="FL00CFh" unicode="&#xcf;" horiz-adv-x="833" 
d="M767 119h-270v358h270v119h-701v-119h263v-358h-263v-119h701v119zM444 732q0 -26 25.5 -44.5t64.5 -18.5t65 18.5t26 44.5t-26 44.5t-65 18.5t-64.5 -18.5t-25.5 -44.5zM203 732q0 -26 25.5 -44.5t64.5 -18.5q38 0 64.5 18.5t26.5 44.5t-26.5 44.5t-64.5 18.5
q-39 0 -64.5 -18.5t-25.5 -44.5z" />
    <glyph glyph-name="FL00AAh" unicode="&#xd0;" horiz-adv-x="887" 
d="M647 596h173v-596h-492q-56 0 -104.5 20t-84.5 60q-38 38 -55.5 79t-17.5 86l1 1h-2q0 45 18 87t56 80q36 40 84 59t103 19h321v105zM401 372q-44 0 -74.5 -7.5t-49.5 -23t-29 -39t-14 -55.5q2 -24 11.5 -47t29 -41t50.5 -29t77 -11h245v253h-246z" />
    <glyph glyph-name="FL00D1h" unicode="&#xd1;" horiz-adv-x="910" 
d="M844 0v351q0 45 -18 87t-57 80q-36 40 -84 59t-103 19h-516v-596h173v477h269q52 0 85 -12t52 -32t25.5 -46.5t6.5 -55.5v-331h167zM341 841l-125 -162h120l64 87l70 -88h117l125 162h-120l-65 -88l-70 89h-116z" />
    <glyph glyph-name="FL00D2h" unicode="&#xd2;" horiz-adv-x="908" 
d="M484 839q-8 9 -22.5 21t-28.5 12q-24 0 -49 -17q-14 -13 -29 -22.5t-15 -24.5q0 -20 12 -32l80 -75q17 -20 44 -20q14 0 25.5 3.5t22.5 12.5q15 11 21 21.5t6 25.5q0 18 -12 35zM842 203v193q0 50 -19.5 87.5t-65 62.5t-121.5 37.5t-188 12.5q-110 0 -183.5 -13.5
t-117.5 -40t-62.5 -64t-18.5 -85.5v-193q0 -47 18.5 -84.5t62.5 -63t117 -39t182 -13.5q114 0 190 12.5t121.5 38t65 63.5t19.5 89zM448 478q70 0 114 -6t68 -20t32.5 -37t8.5 -57v-120q0 -34 -8.5 -57t-33 -37t-68.5 -20t-115 -6q-62 0 -103.5 8t-66 23t-34.5 36.5
t-10 47.5v135q0 25 10.5 45.5t36 34.5t66.5 22t103 8z" />
    <glyph glyph-name="FL00D3h" unicode="&#xd3;" horiz-adv-x="908" 
d="M371 779q-12 -15 -12 -35q0 -15 6 -25.5t20 -21.5q12 -9 23 -12.5t25 -3.5q28 0 45 20l80 75q12 13 12 32q0 15 -15 24.5t-29 22.5q-25 17 -50 17q-14 0 -28 -12t-22 -21zM842 203v193q0 50 -19.5 87.5t-65 62.5t-121.5 37.5t-188 12.5q-110 0 -183.5 -13.5t-117.5 -40
t-62.5 -64t-18.5 -85.5v-193q0 -47 18.5 -84.5t62.5 -63t117 -39t182 -13.5q114 0 190 12.5t121.5 38t65 63.5t19.5 89zM448 478q70 0 114 -6t68 -20t32.5 -37t8.5 -57v-120q0 -34 -8.5 -57t-33 -37t-68.5 -20t-115 -6q-62 0 -103.5 8t-66 23t-34.5 36.5t-10 47.5v135
q0 25 10.5 45.5t36 34.5t66.5 22t103 8z" />
    <glyph glyph-name="FL00D4h" unicode="&#xd4;" horiz-adv-x="908" 
d="M636 681l-128 186h-117l-125 -186h120l68 105l66 -105h116zM842 203v193q0 50 -19.5 87.5t-65 62.5t-121.5 37.5t-188 12.5q-110 0 -183.5 -13.5t-117.5 -40t-62.5 -64t-18.5 -85.5v-193q0 -47 18.5 -84.5t62.5 -63t117 -39t182 -13.5q114 0 190 12.5t121.5 38t65 63.5
t19.5 89zM448 478q70 0 114 -6t68 -20t32.5 -37t8.5 -57v-120q0 -34 -8.5 -57t-33 -37t-68.5 -20t-115 -6q-62 0 -103.5 8t-66 23t-34.5 36.5t-10 47.5v135q0 25 10.5 45.5t36 34.5t66.5 22t103 8z" />
    <glyph glyph-name="FL00D5h" unicode="&#xd5;" horiz-adv-x="908" 
d="M340 843l-125 -162h120l63 87l71 -88h117l124 162h-120l-64 -88l-70 89h-116zM842 203v193q0 50 -19.5 87.5t-65 62.5t-121.5 37.5t-188 12.5q-110 0 -183.5 -13.5t-117.5 -40t-62.5 -64t-18.5 -85.5v-193q0 -47 18.5 -84.5t62.5 -63t117 -39t182 -13.5q114 0 190 12.5
t121.5 38t65 63.5t19.5 89zM448 478q70 0 114 -6t68 -20t32.5 -37t8.5 -57v-120q0 -34 -8.5 -57t-33 -37t-68.5 -20t-115 -6q-62 0 -103.5 8t-66 23t-34.5 36.5t-10 47.5v135q0 25 10.5 45.5t36 34.5t66.5 22t103 8z" />
    <glyph glyph-name="FL00D6h" unicode="&#xd6;" horiz-adv-x="908" 
d="M480 731q0 -26 25.5 -44.5t64.5 -18.5t65 18.5t26 44.5t-26 44.5t-65 18.5t-64.5 -18.5t-25.5 -44.5zM239 731q0 -26 25.5 -44.5t64.5 -18.5q38 0 64.5 18.5t26.5 44.5t-26.5 44.5t-64.5 18.5q-39 0 -64.5 -18.5t-25.5 -44.5zM842 203v193q0 50 -19.5 87.5t-65 62.5
t-121.5 37.5t-188 12.5q-110 0 -183.5 -13.5t-117.5 -40t-62.5 -64t-18.5 -85.5v-193q0 -47 18.5 -84.5t62.5 -63t117 -39t182 -13.5q114 0 190 12.5t121.5 38t65 63.5t19.5 89zM448 478q70 0 114 -6t68 -20t32.5 -37t8.5 -57v-120q0 -34 -8.5 -57t-33 -37t-68.5 -20
t-115 -6q-62 0 -103.5 8t-66 23t-34.5 36.5t-10 47.5v135q0 25 10.5 45.5t36 34.5t66.5 22t103 8z" />
    <glyph glyph-name="FL00D7h" unicode="&#xd7;" horiz-adv-x="604" 
d="M36 499l199 -225l-197 -223h135l129 146l130 -146h136l-197 223l197 225h-136l-130 -149l-130 149h-136z" />
    <glyph glyph-name="FL00D8h" unicode="&#xd8;" horiz-adv-x="908" 
d="M569 0q75 0 127.5 20.5t84.5 59t46.5 94t14.5 126.5q0 139 -63.5 217.5t-197.5 78.5h-253q-134 0 -198 -78.5t-64 -217.5q0 -71 14.5 -126.5t47 -94t84.5 -59t128 -20.5h229zM239 235v123q0 25 7.5 47t25.5 38t48 25t75 9h49l-132 -346q-73 24 -73 104zM670 358v-123
q0 -114 -156 -114h-39l130 341q36 -15 50.5 -42t14.5 -62z" />
    <glyph glyph-name="FL00D9h" unicode="&#xd9;" horiz-adv-x="910" 
d="M844 191v405h-173v-370q0 -34 -8.5 -57t-32.5 -37t-68 -20t-114 -6q-63 0 -104 8t-66 23t-35 36.5t-10 47.5v375h-167v-405q0 -48 18.5 -85.5t62.5 -64t117.5 -40t183.5 -13.5q113 0 189 12.5t122 38t65.5 63.5t19.5 89zM484 839q-8 9 -22.5 21t-28.5 12q-24 0 -49 -17
q-14 -13 -29 -22.5t-15 -24.5q0 -20 12 -32l80 -75q17 -20 44 -20q14 0 25.5 3.5t22.5 12.5q15 11 21 21.5t6 25.5q0 18 -12 35z" />
    <glyph glyph-name="FL00DAh" unicode="&#xda;" horiz-adv-x="910" 
d="M844 191v405h-173v-370q0 -34 -8.5 -57t-32.5 -37t-68 -20t-114 -6q-63 0 -104 8t-66 23t-35 36.5t-10 47.5v375h-167v-405q0 -48 18.5 -85.5t62.5 -64t117.5 -40t183.5 -13.5q113 0 189 12.5t122 38t65.5 63.5t19.5 89zM371 779q-12 -15 -12 -35q0 -15 6 -25.5t20 -21.5
q12 -9 23 -12.5t25 -3.5q28 0 45 20l80 75q12 13 12 32q0 15 -15 24.5t-29 22.5q-25 17 -50 17q-14 0 -28 -12t-22 -21z" />
    <glyph glyph-name="FL00DBh" unicode="&#xdb;" horiz-adv-x="910" 
d="M844 191v405h-173v-370q0 -34 -8.5 -57t-32.5 -37t-68 -20t-114 -6q-63 0 -104 8t-66 23t-35 36.5t-10 47.5v375h-167v-405q0 -48 18.5 -85.5t62.5 -64t117.5 -40t183.5 -13.5q113 0 189 12.5t122 38t65.5 63.5t19.5 89zM636 681l-128 186h-117l-125 -186h120l68 105
l66 -105h116z" />
    <glyph glyph-name="FL00DCh" unicode="&#xdc;" horiz-adv-x="910" 
d="M844 191v405h-173v-370q0 -34 -8.5 -57t-32.5 -37t-68 -20t-114 -6q-63 0 -104 8t-66 23t-35 36.5t-10 47.5v375h-167v-405q0 -48 18.5 -85.5t62.5 -64t117.5 -40t183.5 -13.5q113 0 189 12.5t122 38t65.5 63.5t19.5 89zM480 731q0 -26 25.5 -44.5t64.5 -18.5t65 18.5
t26 44.5t-26 44.5t-65 18.5t-64.5 -18.5t-25.5 -44.5zM239 731q0 -26 25.5 -44.5t64.5 -18.5q38 0 64.5 18.5t26.5 44.5t-26.5 44.5t-64.5 18.5q-39 0 -64.5 -18.5t-25.5 -44.5z" />
    <glyph glyph-name="FL00DDh" unicode="&#xdd;" 
d="M848 596h-176v-234h-331q-86 15 -100 83v152h-175v-64q0 -70 15 -125t48 -93t85 -58t126 -20v1h333q-7 -33 -24 -55t-42 -35t-57 -18.5t-70 -5.5h-239v-124h281q166 0 247 78.5t81 217.5zM397 779q-12 -17 -12 -35q0 -15 6 -25.5t21 -21.5q11 -9 22.5 -12.5t25.5 -3.5
q27 0 44 20l80 75q12 12 12 32q0 15 -15 24.5t-29 22.5q-25 17 -49 17q-14 0 -28.5 -12t-22.5 -21z" />
    <glyph glyph-name="FL00DEh" unicode="&#xde;" horiz-adv-x="886" 
d="M820 121v116q0 44 -20 88t-55 79t-83 56.5t-104 21.5h-319v114h-173v-596h173v121h581zM484 363q46 0 77 -9.5t50.5 -25.5t29 -38t11.5 -46h-413v119h245z" />
    <glyph glyph-name="FL00DFh" unicode="&#xdf;" horiz-adv-x="840" 
d="M238 -123v600h207q45 0 75 -9t48 -25t25.5 -38t7.5 -47h-254v-123h254q0 -114 -156 -114h-98v-121h153q76 0 128 20.5t84.5 59t47 94t14.5 126.5q0 139 -64 217.5t-198 78.5h-446v-719h172z" />
    <glyph glyph-name="FL00E0h" unicode="&#xe0;" horiz-adv-x="886" 
d="M233 0v105h415v-105h172v596h-492q-56 0 -104 -21.5t-83 -56.5t-55 -79t-20 -88v-351h167zM402 477h245v-255h-413v136q2 24 11.5 46t29 38t50.5 25.5t77 9.5zM484 839q-8 9 -22.5 21t-28.5 12q-24 0 -49 -17q-14 -13 -29 -22.5t-15 -24.5q0 -20 12 -32l80 -75
q17 -20 44 -20q14 0 25.5 3.5t22.5 12.5q15 11 21 21.5t6 25.5q0 18 -12 35z" />
    <glyph glyph-name="FL00E1h" unicode="&#xe1;" horiz-adv-x="886" 
d="M233 0v105h415v-105h172v596h-492q-56 0 -104 -21.5t-83 -56.5t-55 -79t-20 -88v-351h167zM402 477h245v-255h-413v136q2 24 11.5 46t29 38t50.5 25.5t77 9.5zM401 778q-12 -15 -12 -35q0 -15 6 -25.5t20 -21.5q12 -9 23 -12.5t25 -3.5q28 0 45 20l80 75q12 13 12 32
q0 15 -15 24.5t-29 22.5q-25 17 -50 17q-14 0 -28 -12t-22 -21z" />
    <glyph glyph-name="FL00E2h" unicode="&#xe2;" horiz-adv-x="886" 
d="M233 0v105h415v-105h172v596h-492q-56 0 -104 -21.5t-83 -56.5t-55 -79t-20 -88v-351h167zM402 477h245v-255h-413v136q2 24 11.5 46t29 38t50.5 25.5t77 9.5zM660 679l-128 186h-117l-125 -186h120l68 105l66 -105h116z" />
    <glyph glyph-name="FL00E3h" unicode="&#xe3;" horiz-adv-x="886" 
d="M233 0v105h415v-105h172v596h-492q-56 0 -104 -21.5t-83 -56.5t-55 -79t-20 -88v-351h167zM402 477h245v-255h-413v136q2 24 11.5 46t29 38t50.5 25.5t77 9.5zM360 842l-125 -162h120l64 87l71 -88h116l125 162h-120l-65 -88l-70 89h-116z" />
    <glyph glyph-name="FL00E4h" unicode="&#xe4;" horiz-adv-x="886" 
d="M233 0v105h415v-105h172v596h-492q-56 0 -104 -21.5t-83 -56.5t-55 -79t-20 -88v-351h167zM402 477h245v-255h-413v136q2 24 11.5 46t29 38t50.5 25.5t77 9.5zM480 731q0 -26 25.5 -44.5t64.5 -18.5t65 18.5t26 44.5t-26 44.5t-65 18.5t-64.5 -18.5t-25.5 -44.5zM239 731
q0 -26 25.5 -44.5t64.5 -18.5q38 0 64.5 18.5t26.5 44.5t-26.5 44.5t-64.5 18.5q-39 0 -64.5 -18.5t-25.5 -44.5z" />
    <glyph glyph-name="FL00E5h" unicode="&#xe5;" horiz-adv-x="886" 
d="M233 0v105h415v-105h172v596h-492q-56 0 -104 -21.5t-83 -56.5t-55 -79t-20 -88v-351h167zM402 477h245v-255h-413v136q2 24 11.5 46t29 38t50.5 25.5t77 9.5zM360 730q0 -26 25.5 -44.5t64.5 -18.5t65 18.5t26 44.5t-26 44.5t-65 18.5t-64.5 -18.5t-25.5 -44.5z" />
    <glyph glyph-name="FL00E6h" unicode="&#xe6;" horiz-adv-x="1421" 
d="M233 0v105h415v-105h707v121h-379q-156 0 -156 114h432v124h-432q0 25 7 46.5t25 37.5t48 25t76 9h379v119h-1027q-56 0 -104 -21.5t-83 -56.5t-55 -79t-20 -88v-351h167zM402 477h245v-255h-413v136q2 24 11.5 46t29 38t50.5 25.5t77 9.5z" />
    <glyph glyph-name="FL00E7h" unicode="&#xe7;" horiz-adv-x="840" 
d="M250 -169h97q125 0 189 38.5t81 130.5h157v121h-379q-156 0 -156 114v123q0 25 7.5 47t25.5 38t48 25t75 9h379v119h-446q-134 0 -198 -78.5t-64 -217.5q0 -71 14.5 -126.5t47 -94t84.5 -59t128 -20.5h109q-4 -18 -13 -27.5t-24.5 -14t-37.5 -5.5t-50 -1h-74v-121z" />
    <glyph glyph-name="FL00E8h" unicode="&#xe8;" horiz-adv-x="840" 
d="M774 0v121h-379q-156 0 -156 114h432v124h-432q0 25 7.5 46.5t25.5 37.5t48 25t75 9h379v119h-446q-134 0 -198 -78.5t-64 -217.5q0 -71 14.5 -126.5t47 -94t84.5 -59t128 -20.5h434zM472 839q-8 9 -22.5 21t-28.5 12q-24 0 -49 -17q-14 -13 -29 -22.5t-15 -24.5
q0 -20 12 -32l80 -75q17 -20 44 -20q14 0 25.5 3.5t22.5 12.5q15 11 21 21.5t6 25.5q0 18 -12 35z" />
    <glyph glyph-name="FL00E9h" unicode="&#xe9;" horiz-adv-x="840" 
d="M774 0v121h-379q-156 0 -156 114h432v124h-432q0 25 7.5 46.5t25.5 37.5t48 25t75 9h379v119h-446q-134 0 -198 -78.5t-64 -217.5q0 -71 14.5 -126.5t47 -94t84.5 -59t128 -20.5h434zM410 780q-12 -17 -12 -35q0 -15 6.5 -25.5t20.5 -21.5q11 -9 22.5 -12.5t25.5 -3.5
q27 0 44 20l81 75q12 13 12 32q0 7 -4.5 13t-11 11.5t-14.5 11t-15 11.5q-23 17 -49 17q-14 0 -28 -12t-22 -21z" />
    <glyph glyph-name="FL00EAh" unicode="&#xea;" horiz-adv-x="840" 
d="M774 0v121h-379q-156 0 -156 114h432v124h-432q0 25 7.5 46.5t25.5 37.5t48 25t75 9h379v119h-446q-134 0 -198 -78.5t-64 -217.5q0 -71 14.5 -126.5t47 -94t84.5 -59t128 -20.5h434zM640 678l-129 186h-116l-125 -186h120l67 105l66 -105h117z" />
    <glyph glyph-name="FL00EBh" unicode="&#xeb;" horiz-adv-x="840" 
d="M774 0v121h-379q-156 0 -156 114h432v124h-432q0 25 7.5 46.5t25.5 37.5t48 25t75 9h379v119h-446q-134 0 -198 -78.5t-64 -217.5q0 -71 14.5 -126.5t47 -94t84.5 -59t128 -20.5h434zM497 730q0 -26 25.5 -44.5t64.5 -18.5q38 0 64.5 18.5t26.5 44.5t-26.5 44.5
t-64.5 18.5q-39 0 -64.5 -18.5t-25.5 -44.5zM256 730q0 -26 25.5 -44.5t64.5 -18.5q38 0 64.5 18.5t26.5 44.5t-26.5 44.5t-64.5 18.5q-39 0 -64.5 -18.5t-25.5 -44.5z" />
    <glyph glyph-name="FL00ECh" unicode="&#xec;" horiz-adv-x="313" 
d="M70 0v596h172v-596h-172zM252 781q12 -17 12 -35q0 -15 -6 -25.5t-20 -21.5q-12 -9 -23 -12.5t-25 -3.5q-28 0 -45 20l-80 75q-12 12 -12 32q0 15 15 24.5t29 22.5q25 17 49 17q14 0 28.5 -12t22.5 -21z" />
    <glyph glyph-name="FL00EDh" unicode="&#xed;" horiz-adv-x="305" 
d="M239 0v596h-173v-596h173zM56 781q-12 -17 -12 -35q0 -15 6.5 -25.5t20.5 -21.5q11 -9 22.5 -12.5t25.5 -3.5q27 0 44 20l81 75q12 13 12 32q0 7 -4.5 13t-11 11.5t-14.5 11t-15 11.5q-23 17 -49 17q-14 0 -28 -12t-22 -21z" />
    <glyph glyph-name="FL00F7h" unicode="&#xee;" horiz-adv-x="305" 
d="M239 0v596h-173v-596h173zM336 678l-128 186h-117l-125 -186h120l68 105l66 -105h116z" />
    <glyph glyph-name="FL00EFh" unicode="&#xef;" horiz-adv-x="305" 
d="M239 0v596h-173v-596h173zM185 726q0 -26 25.5 -44.5t64.5 -18.5q38 0 64.5 18.5t26.5 44.5t-26.5 44.5t-64.5 18.5q-39 0 -64.5 -18.5t-25.5 -44.5zM-56 726q0 -26 25.5 -44.5t64.5 -18.5q38 0 64.5 18.5t26.5 44.5t-26.5 44.5t-64.5 18.5q-39 0 -64.5 -18.5
t-25.5 -44.5z" />
    <glyph glyph-name="FL00F0h" unicode="&#xf0;" 
d="M479 472h-414v124h456q81 0 141.5 -18.5t101 -53.5t61.5 -85t23 -112v-89h-2q-6 -57 -24 -101t-50.5 -74.5t-81 -46.5t-115.5 -16h-183q-83 0 -144.5 20t-102 58.5t-60.5 93.5t-20 124v65h607q-17 64 -67 87.5t-126 23.5zM241 238q7 -33 24 -55t42 -35t57 -18.5t70 -5.5
h118v-2q58 11 91 36.5t33 76.5l1 3h-436z" />
    <glyph glyph-name="FL00F1h" unicode="&#xf1;" horiz-adv-x="910" 
d="M844 0v351q0 45 -18 87t-57 80q-36 40 -84 59t-103 19h-516v-596h173v477h269q52 0 85 -12t52 -32t25.5 -46.5t6.5 -55.5v-331h167zM341 841l-125 -162h120l64 87l70 -88h117l125 162h-120l-65 -88l-70 89h-116z" />
    <glyph glyph-name="FL00F2h" unicode="&#xf2;" horiz-adv-x="908" 
d="M484 839q-8 9 -22.5 21t-28.5 12q-24 0 -49 -17q-14 -13 -29 -22.5t-15 -24.5q0 -20 12 -32l80 -75q17 -20 44 -20q14 0 25.5 3.5t22.5 12.5q15 11 21 21.5t6 25.5q0 18 -12 35zM842 203v193q0 50 -19.5 87.5t-65 62.5t-121.5 37.5t-188 12.5q-110 0 -183.5 -13.5
t-117.5 -40t-62.5 -64t-18.5 -85.5v-193q0 -47 18.5 -84.5t62.5 -63t117 -39t182 -13.5q114 0 190 12.5t121.5 38t65 63.5t19.5 89zM448 478q70 0 114 -6t68 -20t32.5 -37t8.5 -57v-120q0 -34 -8.5 -57t-33 -37t-68.5 -20t-115 -6q-62 0 -103.5 8t-66 23t-34.5 36.5
t-10 47.5v135q0 25 10.5 45.5t36 34.5t66.5 22t103 8z" />
    <glyph glyph-name="FL00F3h" unicode="&#xf3;" horiz-adv-x="908" 
d="M371 779q-12 -15 -12 -35q0 -15 6 -25.5t20 -21.5q12 -9 23 -12.5t25 -3.5q28 0 45 20l80 75q12 13 12 32q0 15 -15 24.5t-29 22.5q-25 17 -50 17q-14 0 -28 -12t-22 -21zM842 203v193q0 50 -19.5 87.5t-65 62.5t-121.5 37.5t-188 12.5q-110 0 -183.5 -13.5t-117.5 -40
t-62.5 -64t-18.5 -85.5v-193q0 -47 18.5 -84.5t62.5 -63t117 -39t182 -13.5q114 0 190 12.5t121.5 38t65 63.5t19.5 89zM448 478q70 0 114 -6t68 -20t32.5 -37t8.5 -57v-120q0 -34 -8.5 -57t-33 -37t-68.5 -20t-115 -6q-62 0 -103.5 8t-66 23t-34.5 36.5t-10 47.5v135
q0 25 10.5 45.5t36 34.5t66.5 22t103 8z" />
    <glyph glyph-name="FL00F4h" unicode="&#xf4;" horiz-adv-x="908" 
d="M636 681l-128 186h-117l-125 -186h120l68 105l66 -105h116zM842 203v193q0 50 -19.5 87.5t-65 62.5t-121.5 37.5t-188 12.5q-110 0 -183.5 -13.5t-117.5 -40t-62.5 -64t-18.5 -85.5v-193q0 -47 18.5 -84.5t62.5 -63t117 -39t182 -13.5q114 0 190 12.5t121.5 38t65 63.5
t19.5 89zM448 478q70 0 114 -6t68 -20t32.5 -37t8.5 -57v-120q0 -34 -8.5 -57t-33 -37t-68.5 -20t-115 -6q-62 0 -103.5 8t-66 23t-34.5 36.5t-10 47.5v135q0 25 10.5 45.5t36 34.5t66.5 22t103 8z" />
    <glyph glyph-name="FL00F5h" unicode="&#xf5;" horiz-adv-x="908" 
d="M340 843l-125 -162h120l63 87l71 -88h117l124 162h-120l-64 -88l-70 89h-116zM842 203v193q0 50 -19.5 87.5t-65 62.5t-121.5 37.5t-188 12.5q-110 0 -183.5 -13.5t-117.5 -40t-62.5 -64t-18.5 -85.5v-193q0 -47 18.5 -84.5t62.5 -63t117 -39t182 -13.5q114 0 190 12.5
t121.5 38t65 63.5t19.5 89zM448 478q70 0 114 -6t68 -20t32.5 -37t8.5 -57v-120q0 -34 -8.5 -57t-33 -37t-68.5 -20t-115 -6q-62 0 -103.5 8t-66 23t-34.5 36.5t-10 47.5v135q0 25 10.5 45.5t36 34.5t66.5 22t103 8z" />
    <glyph glyph-name="FL00F6h" unicode="&#xf6;" horiz-adv-x="908" 
d="M480 731q0 -26 25.5 -44.5t64.5 -18.5t65 18.5t26 44.5t-26 44.5t-65 18.5t-64.5 -18.5t-25.5 -44.5zM239 731q0 -26 25.5 -44.5t64.5 -18.5q38 0 64.5 18.5t26.5 44.5t-26.5 44.5t-64.5 18.5q-39 0 -64.5 -18.5t-25.5 -44.5zM842 203v193q0 50 -19.5 87.5t-65 62.5
t-121.5 37.5t-188 12.5q-110 0 -183.5 -13.5t-117.5 -40t-62.5 -64t-18.5 -85.5v-193q0 -47 18.5 -84.5t62.5 -63t117 -39t182 -13.5q114 0 190 12.5t121.5 38t65 63.5t19.5 89zM448 478q70 0 114 -6t68 -20t32.5 -37t8.5 -57v-120q0 -34 -8.5 -57t-33 -37t-68.5 -20
t-115 -6q-62 0 -103.5 8t-66 23t-34.5 36.5t-10 47.5v135q0 25 10.5 45.5t36 34.5t66.5 22t103 8z" />
    <glyph glyph-name="FL0100h" unicode="&#xf7;" horiz-adv-x="667" 
d="M66 358v-123h535v123h-535zM248 138q0 -26 26 -44.5t64 -18.5q39 0 65.5 18.5t26.5 44.5t-26.5 44.5t-65.5 18.5q-38 0 -64 -18.5t-26 -44.5zM248 456q0 -26 26 -44.5t64 -18.5q39 0 65.5 18.5t26.5 44.5t-26.5 44.5t-65.5 18.5q-38 0 -64 -18.5t-26 -44.5z" />
    <glyph glyph-name="FL00F8h" unicode="&#xf8;" horiz-adv-x="908" 
d="M569 0q75 0 127.5 20.5t84.5 59t46.5 94t14.5 126.5q0 139 -63.5 217.5t-197.5 78.5h-253q-134 0 -198 -78.5t-64 -217.5q0 -71 14.5 -126.5t47 -94t84.5 -59t128 -20.5h229zM239 235v123q0 25 7.5 47t25.5 38t48 25t75 9h49l-132 -346q-73 24 -73 104zM670 358v-123
q0 -114 -156 -114h-39l130 341q36 -15 50.5 -42t14.5 -62z" />
    <glyph glyph-name="FL00F9h" unicode="&#xf9;" horiz-adv-x="910" 
d="M844 191v405h-173v-370q0 -34 -8.5 -57t-32.5 -37t-68 -20t-114 -6q-63 0 -104 8t-66 23t-35 36.5t-10 47.5v375h-167v-405q0 -48 18.5 -85.5t62.5 -64t117.5 -40t183.5 -13.5q113 0 189 12.5t122 38t65.5 63.5t19.5 89zM484 839q-8 9 -22.5 21t-28.5 12q-24 0 -49 -17
q-14 -13 -29 -22.5t-15 -24.5q0 -20 12 -32l80 -75q17 -20 44 -20q14 0 25.5 3.5t22.5 12.5q15 11 21 21.5t6 25.5q0 18 -12 35z" />
    <glyph glyph-name="FL00FAh" unicode="&#xfa;" horiz-adv-x="910" 
d="M844 191v405h-173v-370q0 -34 -8.5 -57t-32.5 -37t-68 -20t-114 -6q-63 0 -104 8t-66 23t-35 36.5t-10 47.5v375h-167v-405q0 -48 18.5 -85.5t62.5 -64t117.5 -40t183.5 -13.5q113 0 189 12.5t122 38t65.5 63.5t19.5 89zM371 779q-12 -15 -12 -35q0 -15 6 -25.5t20 -21.5
q12 -9 23 -12.5t25 -3.5q28 0 45 20l80 75q12 13 12 32q0 15 -15 24.5t-29 22.5q-25 17 -50 17q-14 0 -28 -12t-22 -21z" />
    <glyph glyph-name="FL00FBh" unicode="&#xfb;" horiz-adv-x="910" 
d="M844 191v405h-173v-370q0 -34 -8.5 -57t-32.5 -37t-68 -20t-114 -6q-63 0 -104 8t-66 23t-35 36.5t-10 47.5v375h-167v-405q0 -48 18.5 -85.5t62.5 -64t117.5 -40t183.5 -13.5q113 0 189 12.5t122 38t65.5 63.5t19.5 89zM636 681l-128 186h-117l-125 -186h120l68 105
l66 -105h116z" />
    <glyph glyph-name="FL00FCh" unicode="&#xfc;" horiz-adv-x="910" 
d="M844 191v405h-173v-370q0 -34 -8.5 -57t-32.5 -37t-68 -20t-114 -6q-63 0 -104 8t-66 23t-35 36.5t-10 47.5v375h-167v-405q0 -48 18.5 -85.5t62.5 -64t117.5 -40t183.5 -13.5q113 0 189 12.5t122 38t65.5 63.5t19.5 89zM480 731q0 -26 25.5 -44.5t64.5 -18.5t65 18.5
t26 44.5t-26 44.5t-65 18.5t-64.5 -18.5t-25.5 -44.5zM239 731q0 -26 25.5 -44.5t64.5 -18.5q38 0 64.5 18.5t26.5 44.5t-26.5 44.5t-64.5 18.5q-39 0 -64.5 -18.5t-25.5 -44.5z" />
    <glyph glyph-name="FL00FDh" unicode="&#xfd;" 
d="M848 596h-176v-234h-331q-86 15 -100 83v152h-175v-64q0 -70 15 -125t48 -93t85 -58t126 -20v1h333q-7 -33 -24 -55t-42 -35t-57 -18.5t-70 -5.5h-239v-124h281q166 0 247 78.5t81 217.5zM397 779q-12 -17 -12 -35q0 -15 6 -25.5t21 -21.5q11 -9 22.5 -12.5t25.5 -3.5
q27 0 44 20l80 75q12 12 12 32q0 15 -15 24.5t-29 22.5q-25 17 -49 17q-14 0 -28.5 -12t-22.5 -21z" />
    <glyph glyph-name="FL00FEh" unicode="&#xfe;" horiz-adv-x="886" 
d="M820 121v116q0 44 -20 88t-55 79t-83 56.5t-104 21.5h-319v114h-173v-596h173v121h581zM484 363q46 0 77 -9.5t50.5 -25.5t29 -38t11.5 -46h-413v119h245z" />
    <glyph glyph-name="FL00FFh" unicode="&#xff;" 
d="M848 596h-176v-234h-331q-86 15 -100 83v152h-175v-64q0 -70 15 -125t48 -93t85 -58t126 -20v1h333q-7 -33 -24 -55t-42 -35t-57 -18.5t-70 -5.5h-239v-124h281q166 0 247 78.5t81 217.5zM480 731q0 -26 25.5 -44.5t64.5 -18.5t65 18.5t26 44.5t-26 44.5t-65 18.5
t-64.5 -18.5t-25.5 -44.5zM239 731q0 -26 25.5 -44.5t64.5 -18.5q38 0 64.5 18.5t26.5 44.5t-26.5 44.5t-64.5 18.5q-39 0 -64.5 -18.5t-25.5 -44.5z" />
    <glyph glyph-name="FL0152h" unicode="&#x152;" horiz-adv-x="1378" 
d="M1312 0v121h-380q-156 0 -156 114h432v124h-432q0 25 7.5 46.5t25.5 37.5t48 25t75 9h380v119h-984q-134 0 -198 -78.5t-64 -217.5q0 -71 14.5 -126.5t47 -94t84.5 -59t128 -20.5h972zM604 300q0 -54 7.5 -99t25.5 -80h-242q-156 0 -156 114v123q0 25 7.5 47t25.5 38
t48 25t75 9h245q-36 -71 -36 -177z" />
    <glyph glyph-name="FL0153h" unicode="&#x153;" horiz-adv-x="1378" 
d="M1312 0v121h-380q-156 0 -156 114h432v124h-432q0 25 7.5 46.5t25.5 37.5t48 25t75 9h380v119h-984q-134 0 -198 -78.5t-64 -217.5q0 -71 14.5 -126.5t47 -94t84.5 -59t128 -20.5h972zM604 300q0 -54 7.5 -99t25.5 -80h-242q-156 0 -156 114v123q0 25 7.5 47t25.5 38
t48 25t75 9h245q-36 -71 -36 -177z" />
    <glyph glyph-name="FL0160h" unicode="&#x160;" 
d="M436 472h414v124h-456q-167 0 -247.5 -78.5t-80.5 -217.5v-62h607q-7 -33 -24 -55t-42 -35t-57 -18.5t-70 -5.5h-414v-124h456q166 0 247 78.5t81 217.5v65h-608q16 64 67 87.5t127 23.5zM276 865l126 -185h116l125 185h-120l-67 -104l-64 103z" />
    <glyph glyph-name="FL0162h" unicode="&#x161;" 
d="M436 472q-76 0 -127 -23.5t-67 -87.5h608v-65q0 -139 -81 -217.5t-247 -78.5h-455v124h413q38 0 70 5.5t57 18.5t42 35t24 55h-607v62q0 139 80.5 217.5t247.5 78.5h276v-124h-234zM276 865l116 -1l64 -103l67 104h120l-125 -185h-116z" />
    <glyph glyph-name="FL0178h" unicode="&#x178;" 
d="M848 596h-176v-234h-331q-86 15 -100 83v152h-175v-64q0 -70 15 -125t48 -93t85 -58t126 -20v1h333q-7 -33 -24 -55t-42 -35t-57 -18.5t-70 -5.5h-239v-124h281q166 0 247 78.5t81 217.5zM480 731q0 -26 25.5 -44.5t64.5 -18.5t65 18.5t26 44.5t-26 44.5t-65 18.5
t-64.5 -18.5t-25.5 -44.5zM239 731q0 -26 25.5 -44.5t64.5 -18.5q38 0 64.5 18.5t26.5 44.5t-26.5 44.5t-64.5 18.5q-39 0 -64.5 -18.5t-25.5 -44.5z" />
    <glyph glyph-name="FL017Dh" unicode="&#x17d;" horiz-adv-x="833" 
d="M767 477v119h-701v-119h472l-472 -358v-119h701v119h-473zM230 865l126 -185h117l125 185h-120l-68 -104l-63 103z" />
    <glyph glyph-name="FL0161h" unicode="&#x17e;" horiz-adv-x="833" 
d="M767 477v119h-701v-119h472l-472 -358v-119h701v119h-473zM230 865l126 -185h117l125 185h-120l-68 -104l-63 103z" />
    <glyph glyph-name="FL0192h" unicode="&#x192;" horiz-adv-x="840" 
d="M774 596v-121h-379q-156 0 -156 -114v-362h-173v297q0 70 14.5 126t47 94.5t84.5 59t128 20.5h434z" />
    <glyph glyph-name="FL02C6h" unicode="&#x2c6;" horiz-adv-x="502" 
d="M436 409l-129 186h-116l-125 -186h120l67 105l66 -105h117z" />
    <glyph glyph-name="FL02DCh" unicode="&#x2dc;" horiz-adv-x="568" 
d="M161 595l-125 -170h120l64 92l70 -93h117l125 170h-120l-65 -92l-70 93h-116z" />
    <glyph glyph-name="FL2013h" unicode="&#x2013;" horiz-adv-x="586" 
d="M66 234h454v124h-454v-124z" />
    <glyph glyph-name="FL2014h" unicode="&#x2014;" horiz-adv-x="667" 
d="M66 358v-123h535v123h-535z" />
    <glyph glyph-name="FL2018h" unicode="&#x2018;" horiz-adv-x="313" 
d="M66 416q0 -26 25.5 -45t64.5 -19t65 18.5t26 44.5v118q0 26 -26 44.5t-65 18.5t-64.5 -18.5t-25.5 -44.5v-117z" />
    <glyph glyph-name="FL2019h" unicode="&#x2019;" horiz-adv-x="313" 
d="M66 416q0 -26 25.5 -45t64.5 -19t65 18.5t26 44.5v118q0 26 -26 44.5t-65 18.5t-64.5 -18.5t-25.5 -44.5v-117z" />
    <glyph glyph-name="FL201Ah" unicode="&#x201a;" horiz-adv-x="313" 
d="M66 -54q0 -26 25.5 -45t64.5 -19t65 18.5t26 44.5v118q0 26 -26 44.5t-65 18.5t-64.5 -18.5t-25.5 -44.5v-117z" />
    <glyph glyph-name="FL201Ch" unicode="&#x201c;" horiz-adv-x="556" 
d="M308 416q0 -26 26 -45t64 -19q39 0 65.5 18.5t26.5 44.5v118q0 26 -26.5 44.5t-65.5 18.5q-38 0 -64 -18.5t-26 -44.5v-117zM66 415q0 -26 25.5 -45t64.5 -19t65 18.5t26 44.5v118q0 26 -26 44.5t-65 18.5t-64.5 -18.5t-25.5 -44.5v-117z" />
    <glyph glyph-name="FL201Dh" unicode="&#x201d;" horiz-adv-x="556" 
d="M308 416q0 -26 26 -45t64 -19q39 0 65.5 18.5t26.5 44.5v118q0 26 -26.5 44.5t-65.5 18.5q-38 0 -64 -18.5t-26 -44.5v-117zM66 415q0 -26 25.5 -45t64.5 -19t65 18.5t26 44.5v118q0 26 -26 44.5t-65 18.5t-64.5 -18.5t-25.5 -44.5v-117z" />
    <glyph glyph-name="FL201Eh" unicode="&#x201e;" horiz-adv-x="556" 
d="M308 -54q0 -26 26 -45t64 -19q39 0 65.5 18.5t26.5 44.5v118q0 26 -26.5 44.5t-65.5 18.5q-38 0 -64 -18.5t-26 -44.5v-117zM66 -53q0 -26 25.5 -45t64.5 -19t65 18.5t26 44.5v118q0 26 -26 44.5t-65 18.5t-64.5 -18.5t-25.5 -44.5v-117z" />
    <glyph glyph-name="FL2020h" unicode="&#x2020;" horiz-adv-x="594" 
d="M66 354h145v-354h173v355h144v124h-144v117h-173v-117h-145v-125z" />
    <glyph glyph-name="FL2021h" unicode="&#x2021;" horiz-adv-x="594" 
d="M66 354h145v-123h-145v-125h145v-106h173v107h144v124h-144v124h144v124h-144v117h-173v-117h-145v-125z" />
    <glyph glyph-name="FL2022h" unicode="&#x2022;" horiz-adv-x="568" 
d="M502 358v-123q0 -114 -156 -114h-132q-148 0 -148 114v123q0 25 7.5 47t25.5 38t48 25t75 9h124q45 0 75 -9t48 -25t25.5 -38t7.5 -47z" />
    <glyph glyph-name="FL2026h" unicode="&#x2026;" horiz-adv-x="852" 
d="M548 63q0 -26 26 -44.5t64 -18.5q39 0 65.5 18.5t26.5 44.5t-26.5 44.5t-65.5 18.5q-38 0 -64 -18.5t-26 -44.5zM307 63q0 -26 26 -44.5t64 -18.5q39 0 65 18.5t26 44.5t-26 44.5t-65 18.5q-38 0 -64 -18.5t-26 -44.5zM66 63q0 -26 25.5 -44.5t64.5 -18.5t65 18.5
t26 44.5t-26 44.5t-65 18.5t-64.5 -18.5t-25.5 -44.5z" />
    <glyph glyph-name="FL2030h" unicode="&#x2030;" horiz-adv-x="1456" 
d="M301 0l605 596h-167l-611 -596h173zM454 397v99q0 25 -9 43.5t-31.5 31t-60 18.5t-93.5 6q-55 0 -92.5 -7t-60 -19.5t-32 -31.5t-9.5 -43v-98q0 -24 9 -42.5t31 -31t58.5 -19.5t91.5 -7q57 0 95 6t61 19t32.5 31.5t9.5 44.5zM260 518q30 0 48.5 -3.5t28 -9t12.5 -13.5
t3 -17v-53q0 -14 -4 -23t-14.5 -14.5t-29 -8t-48.5 -2.5q-53 0 -71.5 12.5t-18.5 32.5v56q0 20 20.5 31.5t73.5 11.5zM970 101v99q0 25 -9 43.5t-31.5 31t-60 18.5t-93.5 6q-55 0 -92.5 -7t-60 -19.5t-32 -31.5t-9.5 -43v-98q0 -24 9 -42.5t31 -31t58.5 -19.5t91.5 -7
q57 0 95 6t61 19t32.5 31.5t9.5 44.5zM776 222q30 0 48.5 -3.5t28 -9t12.5 -13.5t3 -17v-53q0 -14 -4 -23t-14.5 -14.5t-29 -8t-48.5 -2.5q-53 0 -71.5 12.5t-18.5 32.5v56q0 20 20.5 31.5t73.5 11.5zM1390 101v99q0 25 -9 43.5t-31.5 31t-60 18.5t-93.5 6q-55 0 -92.5 -7
t-60 -19.5t-32 -31.5t-9.5 -43v-98q0 -24 9 -42.5t31 -31t58.5 -19.5t91.5 -7q57 0 95 6t61 19t32.5 31.5t9.5 44.5zM1196 222q30 0 48.5 -3.5t28 -9t12.5 -13.5t3 -17v-53q0 -14 -4 -23t-14.5 -14.5t-29 -8t-48.5 -2.5q-53 0 -71.5 12.5t-18.5 32.5v56q0 20 20.5 31.5
t73.5 11.5z" />
    <glyph glyph-name="FL2039h" unicode="&#x2039;" horiz-adv-x="355" 
d="M289 448l-223 -107v-97l223 -104v100l-126 56l126 55v97z" />
    <glyph glyph-name="FL203Ah" unicode="&#x203a;" horiz-adv-x="355" 
d="M66 448l223 -107v-97l-223 -104v100l126 56l-126 55v97z" />
    <glyph glyph-name="FL20ACh" unicode="&#x20ac;" horiz-adv-x="890" 
d="M66 317h132v-33h-132v-124h150q24 -78 85 -119t171 -41h352v121h-297q-93 0 -130 39h283v124h-309v33h309v124h-279q18 17 48 26.5t78 9.5h297v119h-364q-98 0 -157 -40t-85 -115h-152v-124z" />
    <glyph glyph-name="FL04E5h" unicode="&#x2122;" horiz-adv-x="1421" 
d="M1340 361l-27 -144l-34 3l9 152zM1321 155l-37 -30l-28 24l32 19zM1226 166q-52 0 -135 98v-96l-33 -4l-4 197l127 -123l9 134l36 -11v-195zM1015 168l-25 9q-24 43 -52 43t-55 -43h-45q5 49 26.5 97.5t64.5 96.5q11 7 29 7q41 0 55 -63zM811 372l-11 -194l-52 -14
l22 202zM707 160q-58 0 -136 96v-96l-36 -5l-3 198l128 -124l6 137l41 -12v-194zM508 296q-22 -136 -87 -136q-11 -1 -18.5 -2t-17.5 -1q-62 0 -75 34q0 127 84 170q4 4 12 4h9q72 0 93 -69zM294 369l-7 -48q-8 4 -24 4q-31 0 -57 -29q-34 -36 -34 -77q0 -39 48 -39
q37 0 42 4l1 -34q-14 -6 -23 -7t-20 -1q-68 0 -86 87l-1.5 13.5t-0.5 12.5q0 91 162 114zM108 366l-11 -195l-50 -16l21 202zM977 264l-28 65l-43 -65h71zM467 269q0 8 -2 13.5t-4 10.5q-17 24 -42 24q-39 0 -67 -61v-14q0 -48 36 -48q22 0 60 19q11 14 15 28t4 28z" />
    <glyph glyph-name="FL06D9h" horiz-adv-x="1120" 
d="M448 190v-80h-141v196q0 43 19 78t51 59.5t75.5 38t92.5 13.5h271v-251q56 23 65 80v78q0 27 -4 51.5t-20 44t-47 31t-85 11.5h-330q-54 0 -85 -14.5t-47 -39.5t-20 -58t-4 -70v-123q0 -29 2 -61t14 -59t38 -44.5t74 -17.5h11q8 0 12 1h389v-122h-443q-76 0 -127.5 31
t-83 82.5t-45.5 117.5t-14 137q0 69 15.5 133.5t48 114.5t81.5 80t115 30h466q57 0 103 -20t78 -56.5t49.5 -87t17.5 -110.5v-83q-24 -90 -84 -139.5t-175 -52.5l-1 1h-94v80h-238zM686 394h-116q-31 -1 -53 -3t-36.5 -10t-22.5 -24.5t-10 -46.5h238v84z" />
    <glyph glyph-name="FL0064h" horiz-adv-x="887" 
d="M239 596h-173v-596h492q55 0 103.5 20t84.5 60q39 38 56.5 79t17.5 86l-2 1h3q0 45 -18 87t-57 80q-36 40 -84 59t-103 19h-320v105zM485 372q44 0 74 -7.5t49.5 -23t29.5 -39t14 -55.5q-2 -24 -11.5 -47t-29 -41t-50.5 -29t-77 -11h-245v253h246z" />
    <glyph glyph-name="FLE005h" horiz-adv-x="887" 
d="M647 596h173v-596h-492q-56 0 -104.5 20t-84.5 60q-38 38 -55.5 79t-17.5 86l1 1h-2q0 45 18 87t56 80q36 40 84 59t103 19h321v105zM401 372q-44 0 -74.5 -7.5t-49.5 -23t-29 -39t-14 -55.5q2 -24 11.5 -47t29 -41t50.5 -29t77 -11h245v253h-246z" />
  </font>
</defs>
</svg>
