<?xml version="1.0" standalone="no"?>
<!DOCTYPE svg PUBLIC "-//W3C//DTD SVG 1.1//EN" "http://www.w3.org/Graphics/SVG/1.1/DTD/svg11.dtd" >
<svg xmlns="http://www.w3.org/2000/svg" xmlns:xlink="http://www.w3.org/1999/xlink" version="1.1">
<metadata></metadata>
<defs>
<font id="biergrten_rotarotalicexpanded" horiz-adv-x="1425" >
<font-face units-per-em="2048" ascent="1638" descent="-410" />
<missing-glyph horiz-adv-x="491" />
<glyph horiz-adv-x="0" />
<glyph unicode="&#xd;" horiz-adv-x="1024" />
<glyph unicode=" "  horiz-adv-x="491" />
<glyph unicode="&#x09;" horiz-adv-x="491" />
<glyph unicode="&#xa0;" horiz-adv-x="491" />
<glyph unicode="!" horiz-adv-x="905" d="M369 573q4 31 27.5 53.5t51 47t53 55.5t34.5 80q2 20 4 68.5t2 101.5v100v68q-135 -39 -127 37q2 18 27.5 49t65.5 66.5t88 72.5t95 67.5t87 52t65 26.5q31 6 75 -11.5t82.5 -45t64.5 -59.5t21 -56l-81 -572q8 2 23 1t30.5 -2t30 -4t18.5 -5q16 -10 31.5 -27.5t3.5 -27.5 l-330 -281q27 -10 45 -34.5t29.5 -54.5t15.5 -60.5t2 -51.5q-6 -33 -27.5 -64.5t-53 -59t-71.5 -48t-83 -28.5q-47 -10 -92.5 -3t-80 27.5t-53 50t-10.5 66.5q12 66 74.5 122t132.5 103l-266 166l-2 5t-2 9z" />
<glyph unicode="&#x22;" horiz-adv-x="1351" d="M553 1180l113 178l331 112q117 -47 152 -121.5t16 -191.5q-2 -14 -6 -32.5t-7 -34t-5 -27.5t-2 -14q-6 -12 -37 -42t-67.5 -63t-74.5 -59.5t-61 -32.5q-2 0 -8 -2t-8 -2q-12 -4 -19 -4h-6l-37 24l-143 152zM1231 1313l110 178l336 115q57 -25 93 -55.5t54.5 -69.5 t22.5 -86t-4 -103q-4 -14 -7 -32.5t-6 -35t-5 -28.5l-2 -12q-10 -14 -41 -44t-68 -61.5t-72.5 -57.5t-56.5 -32q-6 -2 -11 -5t-9 -3q-8 -2 -15 -1l-6 1l-39 20l-145 154z" />
<glyph unicode="#" horiz-adv-x="2017" d="M254 326l381 125l10 145l-235 -31l-136 23l385 110l17 103q-8 -2 -22.5 -1t-31 4t-29.5 6t-18 7q0 2 -4 26.5t-6 33.5q0 12 17.5 30.5t63.5 55t125 99t204 165.5q111 -45 189.5 -96.5t119.5 -106.5l3 -7q3 -7 1 -13q-6 -27 -21.5 -46.5t-35 -37t-40 -37t-34.5 -43.5 l55 14l211 20l11 78q-8 -2 -33 1t-51 8q-14 4 -15.5 8t-5.5 28q-4 12 -4 19v12q2 12 19.5 30.5t63.5 55.5t125 99.5t202 164.5q111 -43 189.5 -94t117.5 -110l3 -6q3 -7 3 -11q-4 -31 -26.5 -54.5t-50 -49t-53.5 -57t-34 -76.5l387 41h10q4 0 6.5 -1.5t-3.5 -3.5 q-59 -41 -161 -94t-251 -90q-4 -29 -6 -55.5t2 -52.5l286 30l12 -1q11 -1 3 -3q-51 -29 -123 -52.5t-180 -55.5q-4 -29 -1 -43.5t3 -24.5q137 43 127 -47q-4 -23 -31 -56.5t-66.5 -72.5t-87 -79t-93.5 -73.5t-85 -56.5t-63 -27q-31 -6 -72 14.5t-77 53.5t-60.5 69.5 t-20.5 65.5l23 160q-61 -6 -124.5 -16.5t-131.5 -20.5q-2 -41 4 -68q135 43 123 -47q-6 -31 -59.5 -89t-123 -116.5t-137 -104.5t-102.5 -52q-31 -6 -73 14.5t-78.5 53t-60.5 69.5t-17 64l36 190q-82 -12 -149.5 -17.5t-120.5 -5.5q-47 0 -73.5 2.5t-20.5 4.5zM1108 567 l68 21l206 22l15 88l-281 -39q-4 -23 -5 -43t-3 -49z" />
<glyph unicode="$" horiz-adv-x="1177" d="M250 328v2q0 4 4 10q4 25 54 57.5t113.5 62t125 52.5t88.5 29q16 2 25.5 3t19.5 -3l49 20l-414 111l17 127q2 20 25.5 42.5t56 44t69.5 39t68 29.5q18 10 50 22.5t79 29.5q20 25 79.5 90t182.5 207q80 -63 127 -148q29 10 46.5 17.5t25.5 11.5q6 2 11 5t13 5 q27 6 47.5 -4t36 -25.5t24.5 -29t15 -13.5q8 -8 28.5 -30.5t42 -48t42 -47t31.5 -25.5l1 -5t1 -8q-6 -27 -56.5 -59.5t-115 -62t-126 -52t-92.5 -28.5q-16 -2 -25 -3t-24 -1l-18 26l405 -125l-26 -155q-2 -23 -29 -46.5t-62.5 -45t-73.5 -39t-65 -29.5q-16 -8 -43.5 -17.5 t-68.5 -25.5q-23 -41 -56.5 -86t-69.5 -85t-69 -67.5t-53 -31.5q-31 -4 -59.5 37.5t-51.5 93.5q-41 -16 -67.5 -25.5t-44.5 -19.5q-8 -2 -10.5 -3.5t-10.5 -3.5q-23 -4 -46 5.5t-42.5 23.5t-32 27.5t-12.5 17.5q-8 8 -29.5 28.5t-45 44t-43 45t-21.5 32.5z" />
<glyph unicode="%" horiz-adv-x="1529" d="M299 688l2 12q6 27 41 35l47 338q2 4 46 20.5t102.5 36t114 39t77.5 29.5q4 0 23.5 10.5t42 22.5t43 23.5t26.5 15.5q37 0 64.5 -14.5t47 -37t32 -48t18.5 -48.5v-20q31 20 72 48t97 65.5t133 88t177 115.5q145 -115 144 -245l-2 -9q0 -4 -2.5 -7t-2.5 -7 q-23 -39 -58.5 -66.5t-76.5 -58.5t-85 -69.5t-83 -100.5q-18 -27 -46.5 -80t-71.5 -119q68 27 135 48.5t96 37.5q4 0 23.5 9.5t42 21.5t43 22.5t26.5 14.5q35 2 63.5 -11.5t49 -36t33 -49t16.5 -50.5l-4 -23q-2 -16 -2 -35q0 -18 -2 -35l-2 -22q-12 -80 -23.5 -121 t-37 -67.5t-76 -52t-140.5 -75.5q-6 -4 -24.5 -16t-38 -27.5t-36.5 -26.5t-20 -11l-5 -2q-5 -3 -15 -5q-25 -4 -63.5 13.5t-77.5 44t-72 54.5t-45 44q-59 -80 -136 -145.5t-150.5 -113.5t-134 -78t-87.5 -36q-29 -6 -52.5 20.5t-35.5 67.5t-10 86t24 74l371 578 q-25 -16 -48.5 -28.5t-66.5 -35.5q-4 -2 -21.5 -15t-38 -27.5t-37.5 -27t-19 -12.5l-19 -6q-27 -4 -79 3t-102 20.5t-88 31t-36 31.5zM653 809q0 -10 10.5 -13t26.5 1l39 252q-2 10 -12.5 22t-26.5 14zM1374 350q0 -10 11.5 -12t27.5 2l35 252q0 10 -9.5 22.5t-23.5 14.5z " />
<glyph unicode="&#x26;" horiz-adv-x="1218" d="M254 252l94 647q6 29 32 56.5t60.5 54t72.5 48t69 38.5l14 96q-4 0 -13.5 2t-19.5 6t-18 9t-10 12q0 2 -2.5 29.5t-2.5 35.5q2 10 14.5 28.5t44.5 55.5t87 99.5t145 162.5q66 -55 114 -118.5t77 -127.5l2 -7t0 -13q-4 -35 -18.5 -57.5t-34.5 -51.5q78 35 143 65t96 42 q6 2 10 4t11 2q27 6 47 -8t37.5 -32.5t29 -36t19.5 -17.5q4 -12 13 -38t20.5 -54.5t22.5 -51t22 -28.5v-17q-6 -37 -56.5 -72.5t-113 -66t-123 -52.5t-90.5 -28q-43 -8 -69 -2t-41 20.5t-25.5 31t-22.5 28.5l-33 -237l137 71l379 -75q4 -4 -48 -30t-132 -61.5t-173 -72.5 t-167 -62q-4 -4 -6 -12q18 -14 52 -21.5t72 -9.5t75.5 1t62.5 9q66 12 120 39t113 39q41 8 53.5 -8t8.5 -39q0 -20 -8 -35q-10 -18 -28.5 -32.5t-63.5 -42.5q-27 -16 -85.5 -53.5t-128 -82.5t-139 -89t-121.5 -76q-6 -35 -42.5 -94.5t-85 -118t-96.5 -102.5t-72 -48 q-20 -4 -48 21.5t-50.5 64.5t-36 81t-3.5 71l25 125q-80 35 -128 84t-40 102z" />
<glyph unicode="'" horiz-adv-x="716" d="M573 1245l113 178l330 113q117 -47 151.5 -122t18.5 -191q-2 -14 -6 -33t-8.5 -34t-7.5 -27.5t-3 -14.5q-6 -12 -34.5 -42t-66.5 -61.5t-76 -59t-58 -33.5q-2 0 -9.5 -2.5t-11.5 -2.5q-4 -2 -13 -3l-9 -1l-35 25l-141 153z" />
<glyph unicode="(" horiz-adv-x="700" d="M240 258l127 854q12 23 34.5 56.5t57.5 56.5l149 141l10 3q9 3 11 3q6 2 16 2h8l197 -69l70 -13l-97 -162q-12 -16 -23.5 -34.5t-21.5 -38.5q-16 -33 -26 -78q-23 -127 -42.5 -250t-29.5 -232.5t-7 -200.5t27.5 -156.5t74.5 -100.5t134 -29q-6 -18 -24.5 -29.5t-41 -18.5 t-43 -10t-30.5 -5q-72 -14 -166 7t-178 66.5t-139.5 107.5t-46.5 130zM920 1292l10 -2z" />
<glyph unicode=")" horiz-adv-x="704" d="M59 -131q135 43 213 147.5t123 250t68.5 322.5t48.5 367q8 41 -2 73t-27 61l-51 131l78 43l227 151l25 8h18l121 -88q29 -10 42 -36.5t22 -47.5l-125 -852q-6 -45 -44 -100t-95.5 -112.5t-127 -113t-140.5 -100.5t-135.5 -75.5t-111.5 -40.5q-8 -2 -29.5 -7.5t-43 -6.5 t-38 4.5t-16.5 21.5zM420 1214l12 7z" />
<glyph unicode="*" horiz-adv-x="778" d="M657 1112l213 313q-33 39 -64.5 77t-55 69t-36 50t-3.5 21l405 -59l260 135h8q6 6 7 0q2 -41 -28 -85t-71 -120q-6 -16 -90 -71l92 -150v-6l-2 -4q-31 -10 -57.5 -11t-55 0t-64.5 5t-81 6q-14 0 -41 25q-61 -39 -123.5 -76t-111.5 -64.5t-78 -43t-23 -11.5z" />
<glyph unicode="+" horiz-adv-x="1007" d="M264 535l461 204l115 207l5 5q5 5 7 1q23 -6 37 -19t25.5 -31.5t23 -42t29.5 -50.5q0 -10 -2 -30.5t-11 -49.5l242 -12l6 -3t-4 -7q-18 -20 -41.5 -36t-54.5 -31t-69 -33.5t-87 -45.5q-18 -6 -63 -12q-27 -53 -48.5 -104.5t-41.5 -92.5q-18 -39 -29.5 -61.5t-15.5 -16.5 l-109 256q-72 -2 -140.5 -3t-121.5 -1t-85 2t-28 7z" />
<glyph unicode="," horiz-adv-x="649" d="M-37 -303q92 18 194.5 59t191.5 101.5t152.5 138.5t76.5 170q6 37 6 61q0 27 -8.5 47.5t-25.5 39.5t-48 44h-131q-119 -29 -205 -87t-123 -146q0 -37 18.5 -63.5t46 -46t59.5 -33t60 -21.5q-141 -86 -199.5 -148.5t-64.5 -115.5z" />
<glyph unicode="-" horiz-adv-x="915" d="M322 633l428 274l405 -114l4 -5q4 -4 -4 -8q-16 -29 -38.5 -52t-52.5 -47t-65.5 -49.5t-78.5 -58.5q-12 -10 -63.5 -11t-120 4t-145.5 14.5t-139.5 18.5t-100.5 18.5t-29 15.5z" />
<glyph unicode="." horiz-adv-x="581" d="M80 147q-6 -35 11.5 -63.5t51 -49t77.5 -27.5t89 3q43 8 83 27.5t73 46.5t53.5 58.5t26.5 64.5q12 104 -50.5 138t-218.5 20q-31 -25 -64.5 -50.5t-61 -52t-47 -55.5t-23.5 -60z" />
<glyph unicode="/" horiz-adv-x="1085" d="M198 97q-1 -44 10 -85t32.5 -68.5t50.5 -21.5q25 4 75 29.5t111.5 63.5t128 83t126 90t103.5 84t60 64q35 53 17.5 70.5t-95.5 -11.5q12 25 47 89.5t76 136t78 137t55 92.5q39 61 83 100t85 70t76 58.5t59 66.5q4 2 4 14l2 8q0 68 -36.5 129.5t-104.5 116.5 q-178 -117 -286.5 -188.5t-171 -113.5t-89 -61.5t-37.5 -31.5q-6 -4 -10 -17q-8 -14 -13 -32.5t-1 -20.5q8 -10 32 -19t40 -5l-488 -754q-18 -29 -19 -73z" />
<glyph unicode="0" d="M225 186l2 21q6 23 21.5 40t56.5 25l96 678q0 6 42 22.5t108.5 40t146.5 51.5t156 54.5t138.5 49t92.5 36.5q10 4 49.5 24.5t83.5 44t82.5 45t51.5 30.5q74 0 130 -29t96 -73t65.5 -96t37.5 -101l-8 -48q-4 -35 -8 -68.5t-8 -68.5l-6 -45q-14 -111 -27.5 -181.5 t-33 -118.5t-53.5 -80.5t-90 -66.5t-140 -76t-207 -110q-10 -6 -44 -30.5t-73 -53t-72.5 -52t-40.5 -27.5l-14 -3q-14 -4 -25 -6q-37 -8 -96 -5t-127.5 15.5t-138.5 31t-125 41t-88 46t-31 43.5zM926 424q-2 -18 25.5 -21.5t56.5 0.5l69 500q2 10 -4 21.5t-17.5 21.5 t-23.5 19.5t-24 15.5z" />
<glyph unicode="1" horiz-adv-x="905" d="M371 944q0 12 17.5 30.5t63.5 56.5t126.5 101.5t212.5 165.5q117 -43 198.5 -94t120.5 -108l3 -6q3 -7 3 -13q-4 -33 -28.5 -56.5t-53 -50t-54.5 -60t-34 -87.5q-2 -23 -5 -78t-6 -117.5t-4 -117.5t3 -76q139 45 129 -47q-4 -23 -31.5 -56.5t-67.5 -72.5t-89.5 -79 t-95.5 -73.5t-87 -56t-65 -26.5q-31 -6 -74 14t-82 52t-64.5 69t-19.5 63l94 649q-8 -2 -23.5 -1t-30.5 4.5t-29.5 6.5t-18.5 7q0 2 -5 25.5t-3 31.5z" />
<glyph unicode="2" horiz-adv-x="1165" d="M246 162l22 258l666 479l-45 51q-18 -20 -41 -56t-50.5 -72t-62.5 -65.5t-78 -37.5q-31 -6 -88 -4t-113.5 14t-97.5 34.5t-36 57.5q0 2 4 11l4 10q10 6 38.5 44t60.5 84t59.5 88t35.5 54q4 2 20.5 25.5t39 51.5t48 51.5t48.5 27.5q8 2 12 1t13 1q29 -6 103.5 -13.5 t159.5 -14.5t160.5 -13t108.5 -10q29 -4 60.5 -11.5t59 -20.5t44 -32.5t14.5 -46.5l-29 -172l-436 -352q27 20 56 22q27 6 84 3t113.5 -15t98 -33.5t39.5 -52.5q0 -8 -2 -12l-4 -7q-6 -12 -31.5 -51t-56 -83t-61.5 -83t-45 -53q-4 -4 -20.5 -27.5t-40 -51t-49 -51 t-48.5 -28.5q-6 -2 -12 -2t-10 -2q-33 4 -108 1t-159 -7t-159.5 -7t-106.5 1q-23 2 -55.5 11.5t-62 24.5t-49 35.5t-15.5 45.5zM643 326l133 -4q12 8 24.5 35.5t27 60.5t29.5 64.5t34 52.5z" />
<glyph unicode="3" horiz-adv-x="1218" d="M240 252q4 23 20 44t57 30q31 6 58 6t54.5 -1t55 0t60.5 7q29 6 69.5 18.5t82.5 31t80 41t61 46.5q-74 -4 -162 -1t-165 9t-126 12.5t-43 10.5l426 231l123 -20l35 237q-16 -18 -31.5 -39.5t-36 -42t-49.5 -38t-72 -25.5q-31 -6 -89 -8t-116.5 5t-99.5 26.5t-35 54.5 q0 4 4 12l2 6q12 10 31 40t37 63.5t35.5 64.5t30.5 45q10 4 26.5 26.5t38 48.5t48 49.5t55.5 29.5q2 0 9 1t11 1q33 -4 114 -9t171 -11.5t171 -11.5t113 -7q27 -4 62 -12.5t65.5 -21.5t50 -32.5t13.5 -46.5l-92 -647q-4 -35 -37 -78t-83 -90t-110.5 -92t-121 -84t-116 -64.5 t-94.5 -33.5q-10 -2 -24 -3t-16 -3q-18 4 -55.5 15t-85.5 25.5t-100 31t-98 31.5t-83 27.5t-54 18.5q-53 16 -66 25.5t-9 50.5z" />
<glyph unicode="4" horiz-adv-x="1222" d="M264 465l72 489q2 10 24.5 43t56.5 69t71.5 66.5t68.5 36.5q27 6 76 -2t98 -20t87 -23.5t42 -11.5q53 63 121 103t164 81l287 -41q27 -2 11 -29.5t-47.5 -69.5t-64.5 -92t-41 -99q-8 -53 15.5 -88t53.5 -66t54.5 -64.5t18.5 -84.5l-7 -31q-4 -25 -21.5 -45.5t-62.5 -28.5 q-16 -4 -25 -1t-19.5 7t-22.5 8t-33 0q-8 -2 -21.5 -6t-21.5 -6q-6 -25 -17.5 -69t-27.5 -98t-37.5 -111.5t-51.5 -105.5t-68 -83t-85 -43q-27 -4 -37 -2t-15 10.5t-6 23.5t-9 40q-2 6 -9.5 37.5t-16.5 68.5t-17 70t-10 43q-4 4 -45 12t-100.5 19.5t-127 24t-125 24.5 t-94.5 23.5t-35 21.5zM709 631l92 76l41 262l-41 20l-45 -37z" />
<glyph unicode="5" horiz-adv-x="1222" d="M244 117q4 18 55 43.5t117.5 51.5t131 45t95.5 26q45 8 77 3t54.5 -17.5t38.5 -26t29 -19.5l32 230q0 12 -15 16t-40 10q-39 -18 -118.5 -27.5t-165.5 -33.5q-104 -29 -154 -12q-4 -4 -14 -5q-10 0 -15 -2q-41 -8 -53 -0.5t-10 21.5q8 59 26.5 136t26.5 175q8 53 8 76 q0 25 -2 41t-4 36.5t2 69.5q74 63 175.5 128t203.5 120t193.5 93t144.5 48q-6 -12 -10 -18l10 2q23 -16 78 -39.5t115.5 -55.5t112.5 -72t69 -85l2 -3t-2 -11q-16 -4 -20.5 -6t-2.5 -4t8.5 -3t10.5 -1l-88 -50q-10 -10 -29 -24.5t-23 -16.5l-512 -14l-51 -280q-10 -10 6 -23 q59 29 105.5 48.5t70.5 29.5q2 0 17.5 4t21.5 4q59 12 144.5 11t163 -13t131 -32.5t47.5 -47.5l-52 -344q-2 -14 -26.5 -31.5t-58 -35t-71.5 -33t-65 -23.5q-25 -8 -73 -22.5t-108 -34t-125.5 -41t-125 -41t-106.5 -34.5t-70 -23q-8 0 -20 -7q-23 -4 -46.5 0t-43 12.5 t-33 16.5t-15.5 12q-8 4 -30.5 17.5t-47 30t-46 29.5t-27.5 18z" />
<glyph unicode="6" horiz-adv-x="1259" d="M238 242q-4 -37 34.5 -68t102 -55.5t144.5 -42t160 -26.5t146.5 -10t106.5 7l24 4q8 6 23.5 13.5t29 14.5t24.5 13l11 6l349 398q-2 2 3 17t5 26q6 51 -33 77.5t-102.5 41t-138 20.5t-137 17.5t-103.5 34t-35 67.5q6 33 43 65.5t87 60t103.5 47t90.5 25.5q33 8 65 9 q47 0 88 -2.5t98 8.5q41 8 65 23.5t28 43.5q2 16 -32 41t-89.5 52.5t-124 55t-134 48t-120.5 31t-86 4.5q-84 -16 -187.5 -75.5t-195.5 -136.5t-158.5 -158t-75.5 -142zM756 373l26 215q4 0 32 -4t58.5 -12.5t30.5 -20.5q0 -2 -19.5 -28.5t-33.5 -41.5q-6 -4 -21.5 -20.5 t-31 -34.5t-27.5 -33.5t-14 -19.5z" />
<glyph unicode="7" horiz-adv-x="1239" d="M322 831l77 -18q10 -4 26.5 -12t14.5 -10l541 192l-98 -674q-53 -4 -72.5 -27.5t-24.5 -52.5q-4 -8 -4 -18t4 -12l164 -150q39 -27 85 -3t99.5 71t115 106.5t132.5 106.5q0 4 -1 9l-1 5q-4 6 -13 18.5t-20.5 24.5t-21.5 23.5t-16 15.5l51 346q14 109 36.5 201t51.5 196 q-59 37 -147.5 65t-181.5 45t-178 21.5t-138 -6.5q-4 -10 6 -14l-8 -2q-27 -23 -94.5 -71t-143.5 -107.5t-142.5 -123t-92.5 -116.5l-4 -4q-5 -4 -2 -12q16 2 20 2t1 -3t-9 -6z" />
<glyph unicode="8" horiz-adv-x="1165" d="M246 295q4 31 41 75t85 86t96 72.5t77 36.5q27 6 49 -2l-268 166l22 172q4 27 27.5 53.5t55.5 51t69 46t67 38.5q37 16 119 53t173 78t172 78.5t116 56.5q10 2 13 4t11 4q25 4 44.5 -12.5t34 -37t23.5 -37.5t15 -17q4 -10 21.5 -43t38 -69t39 -64.5t28.5 -30.5v-21 q-4 -31 -32.5 -71.5t-68.5 -82.5t-86 -78t-87 -55l213 -114l-51 -264q-6 -27 -33 -55.5t-61.5 -55.5t-71.5 -49.5t-62 -36.5q-35 -16 -113.5 -43t-166.5 -55.5t-166 -56.5t-113 -44q-10 -2 -13 -3t-14 -3q-18 -4 -39.5 10.5t-39 34t-28.5 36.5t-11 22q-10 8 -29.5 37.5 t-41 64.5t-37 65.5t-15.5 40.5l-1 6q-1 7 -1 13zM741 834l174 -60q-23 47 -34 98.5t-27 71.5zM785 339q-3 -11 3 -13l142 55l-99 59q-6 -18 -16 -37.5t-18.5 -36t-11.5 -27.5z" />
<glyph unicode="9" horiz-adv-x="1259" d="M240 260q-4 -16 29.5 -41.5t89 -53.5t123 -55.5t133 -47t122 -29.5t86.5 -4q84 16 187.5 75.5t196.5 136t159 157.5t76 143l78 555q4 35 -34 65.5t-101.5 55t-144.5 42t-158.5 27.5t-146.5 11t-108 -7l-24 -4q-10 -6 -24.5 -13t-28 -14.5t-23.5 -13.5t-12 -6l-346 -397 q0 -2 -6.5 -18.5t-6.5 -26.5q-6 -51 34 -77t102.5 -40t138.5 -20.5t138 -18.5t102 -33.5t34 -66.5q-4 -33 -41 -66t-86 -60.5t-102 -47t-90 -25.5q-18 -4 -36 -6t-34 -2q-43 0 -85 2t-101 -8q-41 -8 -63.5 -23.5t-26.5 -44.5zM854 786q2 0 8 9.5t13.5 19.5t15.5 22.5 t14 18.5q4 6 18.5 22.5t31 34t31 33t20.5 19.5l-31 -215l-19 2q-18 2 -41.5 6t-42 11t-18.5 17z" />
<glyph unicode=":" horiz-adv-x="581" d="M207 160q-6 -33 12.5 -61.5t52 -49t77.5 -29t89 2.5q43 8 83 28.5t73 47t54.5 58t25.5 62.5q12 104 -49 138t-215 20q-35 -25 -69 -49.5t-62.5 -52t-48 -56.5t-23.5 -59zM311 897q-4 -33 14.5 -61.5t52.5 -48t78 -27.5t89 0q43 8 84 28.5t72.5 47t53 58.5t27.5 64 q12 100 -51 136t-217 22q-31 -25 -65.5 -50.5t-63.5 -53t-49.5 -56t-24.5 -59.5z" />
<glyph unicode=";" horiz-adv-x="649" d="M96 -289q94 18 196.5 59.5t190.5 101.5t150.5 137t75.5 169q6 37 6 62q0 27 -7.5 48t-24.5 39.5t-48 43.5h-131q-119 -29 -204 -86.5t-122 -145.5q-2 -37 16.5 -64.5t46 -47t60.5 -32.5t59 -22q-141 -84 -198.5 -146.5t-65.5 -115.5zM268 885q-6 -35 11.5 -63.5t51.5 -49 t79 -28t90 3.5q43 8 83 28.5t72.5 47t54 58t25.5 62.5q12 104 -49 138t-215 20q-35 -25 -68.5 -50.5t-62.5 -52t-48.5 -55.5t-23.5 -59z" />
<glyph unicode="&#x3c;" horiz-adv-x="841" d="M307 614l592 619q8 8 42 -23.5t66.5 -77t52 -89.5t-0.5 -60q-23 -23 -77 -69t-112.5 -95t-109.5 -91t-70 -54l346 -164l-301 -317q-6 -6 -42 20.5t-87 69.5t-107.5 96t-102.5 101t-72.5 85t-16.5 49z" />
<glyph unicode="=" horiz-adv-x="1212" d="M319 520l461 205l467 -25l7 -3q6 -3 -5 -7q-18 -20 -41.5 -35.5t-54.5 -31t-68.5 -34t-87.5 -42.5q-10 -8 -67.5 -14.5t-136 -11.5t-166.5 -7t-158 -2t-115 2t-35 6zM578 838l460 204l467 -24l4 -2q4 -2 0 -6q-16 -20 -39.5 -36t-54.5 -31t-69.5 -33.5t-88.5 -45.5 q-14 -8 -71.5 -14t-135 -10t-164.5 -6.5t-159 -2.5q-70 0 -115 1.5t-34 5.5z" />
<glyph unicode="&#x3e;" horiz-adv-x="841" d="M270 360l222 -215q6 -4 52 38t112.5 107.5t142 144.5t138 148.5t100.5 120t32 58.5l-440 418q-4 4 -26.5 -17.5t-53.5 -56.5t-64.5 -77t-60.5 -79t-39 -64.5t-2 -33.5q18 -14 62 -42t92.5 -56.5t90.5 -52t56 -29.5z" />
<glyph unicode="?" horiz-adv-x="1136" d="M270 111q6 31 25.5 59.5t48.5 56t62.5 53t64.5 48.5q158 16 220.5 -19t47.5 -139q-4 -31 -25.5 -62.5t-54 -58t-72.5 -47t-83 -29.5q-45 -10 -89 -1.5t-78 28.5t-53.5 49t-13.5 62zM328 606l448 322q-25 -18 -59 -25q-29 -6 -86.5 -4t-114.5 14.5t-99 35t-36 57.5 q0 2 6 12l2 8q12 8 41 46t60.5 84t59.5 87t36 53q4 2 19.5 26t37 51.5t47 52t49.5 28.5q8 2 12.5 0t14.5 0q29 -6 103.5 -13t158.5 -13.5t160 -12.5t106 -10q29 -4 63 -12.5t61.5 -21.5t45 -32.5t11.5 -46.5l-27 -172l-256 -211q-18 -16 -53 -39.5t-77 -51t-86 -55.5 t-79 -49.5t-56.5 -35.5t-17.5 -14l-288 -222zM791 940l202 143l-43 52q-10 -16 -27.5 -41t-39 -52.5t-45 -54t-47.5 -47.5z" />
<glyph unicode="@" horiz-adv-x="1314" d="M248 164l98 645q-12 20 3.5 50t44 60.5t62 57.5t58.5 45q20 14 63.5 43t97.5 63.5t114.5 74.5t114.5 75t97.5 62.5t63.5 39.5q6 2 10 6.5t8 4.5l215 14q27 6 23 -4q-4 -6 -15.5 -15.5t-22.5 -18.5t-18.5 -16.5t-0.5 -4.5q14 -8 66 -19.5t111.5 -24t110 -23.5t60.5 -17 l3 -4q3 -5 11 -9q4 -20 3 -38.5t-11 -34.5q-10 -23 -24.5 -46.5t-26 -51t-13.5 -60.5t13 -72q10 -31 -1.5 -64.5t-39 -65.5t-69.5 -60.5t-91 -48.5q-47 -18 -106.5 -25.5t-112.5 -1.5t-91 24.5t-44 49.5q-16 41 12.5 89t75.5 97q-63 6 -113.5 14.5t-73.5 16.5l-155 -465 q8 -27 54 -45.5t104.5 -27.5t117 -8t92.5 13q68 29 116 63t112 62q43 14 59.5 4t20.5 -30q8 -16 9 -26.5t-6 -22t-21.5 -25.5t-35.5 -37q-16 -16 -54 -43t-86 -58.5t-102.5 -66.5t-103.5 -65.5t-88 -54t-55 -36.5l-13 -8q-12 -8 -24 -12q-37 -14 -94.5 -21.5t-120.5 -7.5 t-129 7.5t-120 20.5t-93 34.5t-49 48.5z" />
<glyph unicode="A" horiz-adv-x="1372" d="M257 284v-7q-1 -49 13 -92q14 -46 45 -85t84 -69q23 -13 47 -25q14 -7 35 -7q14 0 31 3q43 8 95 50t102.5 90t94.5 89t75 48q14 2 38.5 -26t58.5 -59.5t76 -55.5q29 -16 63 -16q14 0 30 3l35 6q18 16 61 51t92 74t93 75t63 54q31 23 44 29t17 16q6 8 6 21q2 16 -19 37.5 t-30 21.5q-25 -4 -37 -14.5t-34 -14.5q-18 -4 -27.5 10.5t-12.5 35t-2 39t1 24.5l2 16l10 86l6 33l10 78q8 63 18.5 112.5t33.5 116.5q14 14 35.5 25.5t42 23t35 25.5t18.5 35q2 33 -26 48t-66.5 21.5t-79.5 9.5t-64 13q-39 10 -68.5 28.5t-58.5 35t-59 25.5q-16 5 -35 5 q-16 0 -35 -4q-27 -6 -46 -14.5t-36.5 -18.5t-37 -23.5t-44.5 -27.5q-88 -49 -187 -96t-188.5 -101.5t-158 -121t-94.5 -154.5l-7 -39q-4 -35 -9 -65.5t-9 -65.5l-8 -41l-23 -160q-8 -59 -9 -111zM782 365q-1 15 -1 29q1 39 5 76q6 50 13 97l30 209l5 37l16 94l2 17l20 57h7 l10 2q12 -2 23.5 -15.5t21.5 -21.5l31 -12l-74 -496q0 -6 -10.5 -18t-22.5 -24.5t-25.5 -24t-19.5 -17.5l-6 -2l-8 -2q-17 5 -17 15z" />
<glyph unicode="B" horiz-adv-x="1292" d="M304 198q-3 5 1 9q0 4 3 10l3 6q6 6 18.5 17.5t26 22.5t26.5 21.5t19 16.5l109 741q4 23 -7 61t-27.5 76t-32 70.5t-19.5 44.5l47 41q4 -6 19.5 -16t34 -21.5t34.5 -20.5t25 -11l8 1t14 3q6 0 14 3l7 3l139 86q123 74 251 111.5t271 78.5q25 -23 32 -39t1 -45 q-4 -20 -25.5 -32.5t-52.5 -25.5t-65.5 -30.5t-67.5 -49.5t-58.5 -81t-35.5 -125l-2 -26q-4 -18 -6 -41t-4 -41l-7 -29q37 18 80 47t88 58.5t88 52t80 29.5q7 1 14 1q25 1 58 -15q43 -20 83 -52t66 -68q22 -31 22 -54q0 -4 -1 -7l-66 -463l-6 -11q-6 -11 -14 -28.5 t-18.5 -35t-16.5 -25.5q-16 -18 -32.5 -44t-20.5 -28l-623 -330q-10 -6 -46 0t-84 21.5t-103.5 36t-103.5 42t-85 43t-49 36.5zM913 399l78 -43l72 500q-12 -2 -27.5 -7t-29 -12.5t-23.5 -16.5t-10 -17z" />
<glyph unicode="C" horiz-adv-x="1218" d="M240 252l98 647q2 27 26.5 54.5t60.5 53t76 48t70 39.5q25 10 74 30.5t109.5 47t127 56t127 56.5t107.5 48.5t72 31.5q6 2 10 3l12 3q25 4 46.5 -10t38 -33.5t28.5 -36t18 -16.5q6 -12 25.5 -44t41.5 -67t41 -64.5t26 -37.5l1 -6t-1 -11q-4 -35 -57.5 -75.5t-121 -76.5 t-134 -61.5t-95.5 -31.5q-17 -4 -31 -4q-24 0 -44 11q-30 17 -51 44t-34.5 54.5t-25.5 39.5l-64 -430q-6 -33 24.5 -50.5t76.5 -23.5q34 -4 70 -4h25q50 2 83 8q66 12 122 40t115 38q41 8 52.5 -8t7.5 -39q-2 -10 -4.5 -18t-4.5 -15q-10 -20 -28.5 -33.5t-65.5 -43.5 q-23 -14 -65.5 -42t-96 -62t-112 -71.5t-111.5 -71.5t-96 -60.5t-64 -39.5q-4 0 -17 -4t-23 -6q-24 -5 -52 -5q-41 1 -89 11q-82 18 -156 54t-124 86q-44 43 -45 86q0 6 1 12z" />
<glyph unicode="D" horiz-adv-x="1212" d="M250 162q2 10 16.5 25.5t32.5 32t37.5 30.5t32.5 24l80 539l276 53q-57 14 -107.5 36t-85 50.5t-52.5 68.5q-12 27 -12 62q0 16 3 33q10 80 58.5 136.5t120 95t160.5 64.5t181 44q-4 -35 -29.5 -61.5t-54 -47t-54.5 -37t-30 -34.5q0 -2 2 -6t2 -6q29 -4 97.5 -16.5 t145.5 -26t144.5 -26.5t94.5 -19q25 -4 57.5 -22.5t61 -44.5t47 -54.5t14.5 -53.5l-78 -555q-4 -20 -51 -59t-116.5 -85t-151.5 -96t-157 -91t-132.5 -70t-77.5 -33q-14 -2 -54 7.5t-93.5 23.5t-110.5 32.5t-105.5 36t-80 31t-31.5 19.5zM864 399l78 -45l66 463l-76 45z" />
<glyph unicode="E" horiz-adv-x="1259" d="M250 309l80 555q4 35 53 83t125 99.5t166 101.5t177 92t158.5 71t110.5 37l25 4q16 -4 47 -8.5t35 -6.5l248 -282l-7 -43q-6 -51 -55 -94.5t-119.5 -83t-151.5 -76.5t-151.5 -75t-119 -77t-54.5 -84q-4 -25 12.5 -42t44 -27.5t62.5 -15.5t70 -5q51 0 90 8q59 12 101 30.5 t91 35.5q27 10 54.5 17t48.5 7q23 0 36 -8t11 -28q-4 -16 -47 -57.5t-111 -92.5t-147.5 -107.5t-155.5 -103.5t-138.5 -81t-93.5 -40q-36 -7 -73 -7q-50 1 -103 13q-92 22 -165 66q-74 44 -119 104q-37 50 -37 99q0 11 2 22zM803 717l21 9q20 9 44.5 22.5t47 29t24.5 25.5 q2 2 -11.5 22.5t-23.5 30.5q-6 2 -17 12.5t-22.5 23.5t-19.5 24.5t-8 15.5z" />
<glyph unicode="F" horiz-adv-x="1024" d="M266 182q0 4 13.5 20.5t32 36t34.5 35t21 17.5l61 432q-53 8 -66.5 24.5t-9.5 51.5q4 31 21.5 60.5t39 59t42 60.5t26.5 65q2 16 2 32q0 23 -5 45q-9 36 -22 71q-14 36 -23 70q-5 18 -5 38q0 18 4 37q30 6 56 6q73 0 108 -49q104 70 188 113t169 71.5t181.5 50 t225.5 46.5q-8 -47 -32.5 -84t-94.5 -72q59 -23 87 -59q22 -28 22 -68q0 -10 -1 -20q-14 -106 -163 -137q-51 -9 -85 -13q-5 0 -10 -1q-29 0 -59 18l-8 -62q74 11 123 15q18 2 34 1q25 -1 43 -5q28 -8 38 -30q5 -14 6 -35q0 -16 -3 -36q0 -10 -8 -37.5t-8 -38.5 q-12 -2 -48 -13t-78 -24.5t-81 -25.5t-57 -19q-10 -4 -25.5 -17t-17.5 -21l-60 -400q0 -4 14.5 -14t24.5 -10l27 6q25 4 46.5 13t43 20.5t46 22.5t54.5 17l-10 -69l-420 -350l-84 -17q-2 0 -41.5 12.5t-92 31t-104.5 39t-79 36.5q-6 2 -12 9t-11.5 15.5t-8.5 16.5t-1 12z " />
<glyph unicode="G" horiz-adv-x="1259" d="M217 -14q6 43 17.5 74.5t35 56t63.5 41t101 28.5q47 8 82 8q26 0 46 -4q48 -10 74 -37.5t32 -69.5q3 -18 3 -37q0 -25 -5 -52q37 6 84 18.5t90 34t75.5 50t38.5 69.5q2 6 1 15t1 16q-8 12 -27.5 41.5t-41 64.5t-41 64.5t-25.5 42.5l-22 -4l-21 -5q-74 -35 -117 -60.5 t-74.5 -43.5t-63 -31.5t-83.5 -23.5q-20 -4 -39 -4q-22 0 -41 5q-38 9 -67 30.5t-45 50.5q-10 21 -10 43q0 10 2 20l86 586q0 8 42 36.5t104.5 68.5t137 83t145 81t125 64.5t76.5 30.5q8 2 23.5 4t17.5 2q25 -6 87.5 -23t133 -37.5t133 -38t87.5 -23.5q6 -6 18 -11.5 t17 -13.5q0 -2 1 -9t-1 -16l-7 -6q-6 -6 -18 -22.5t-27.5 -33.5t-29 -31.5t-21.5 -20.5l-70 -494q31 -29 52.5 -51.5t33 -46t14.5 -48t-3 -57.5q-14 -98 -85 -179t-173.5 -143.5t-224 -105.5t-236.5 -65q-80 -16 -167 -27q-49 -5 -93 -5q-33 0 -62 3q-69 8 -110 42 q-32 26 -32 75q0 15 3 31zM717 532q12 2 26.5 7.5t28.5 12.5t23.5 15t11.5 19l57 401l-78 17z" />
<glyph unicode="H" horiz-adv-x="1239" d="M289 266q4 23 13 40.5t56 39.5l103 703q-37 49 -61 121q-16 47 -15 96q0 25 4 51q29 6 49.5 3t37 -11.5t30.5 -18.5t31 -20q66 55 117 92t103 61.5t112.5 42t144.5 33.5l33 6q29 6 52 10.5t52 8.5l37 8q10 -4 20.5 -10t18.5 -17v-22l-6 -8v-9q-92 -27 -145.5 -61.5 t-83 -75.5t-41 -88t-17.5 -100q-4 -20 -6 -56t-2 -51l311 197q20 13 39 13q18 0 36 -12q36 -24 62.5 -64t44 -82t19.5 -50q0 -16 4 -47t9 -61.5t8 -56t3 -33.5q-6 -39 -24.5 -114t-39 -155t-38 -146.5t-21.5 -86.5q-35 -80 -109.5 -168t-173 -166t-211 -137.5t-218.5 -79.5 q-41 -8 -76 -11.5t-45 23.5q68 63 127 102.5t104 74t75 79.5t42 123q0 6 1 19.5t1 27.5q0 16 1 29.5t1 19.5q-27 -14 -64.5 -38.5t-77.5 -49t-77 -43t-61 -22.5q-7 -1 -17 -1q-23 0 -58 7q-50 10 -99.5 30.5t-85.5 48.5q-30 24 -30 53q0 4 1 9zM840 438l55 8l68 461l-62 -49 z" />
<glyph unicode="I" horiz-adv-x="905" d="M358 811l328 274q-29 6 -47 29t-29.5 52.5t-15.5 59t-2 50.5q4 31 25.5 62.5t53 58t72.5 47t84 29.5q23 4 46 4q21 1 43 -3q44 -8 79 -28t55 -48q15 -22 14 -46q0 -8 -1 -15q-6 -31 -26.5 -60.5t-49.5 -57t-62.5 -52t-64.5 -49.5l264 -157l1 -7q1 -6 1 -10 q-4 -29 -26.5 -50.5t-51 -45t-53 -54t-30.5 -75.5q-2 -18 -5.5 -66.5t-4.5 -101.5t-1 -100q0 -45 7 -64q51 17 82 17q44 0 44 -36q0 -7 -2 -16q-2 -27 -55 -78t-123.5 -103t-141.5 -94t-108 -50q-8 -2 -18 -2q-25 0 -55 12q-42 16 -81.5 44t-65 57.5t-23.5 51.5l80 558 q-8 -2 -23.5 -1l-31 2t-30 4t-18.5 5q-16 8 -31.5 25.5t-1.5 27.5z" />
<glyph unicode="J" horiz-adv-x="1239" d="M285 231l1 3q1 4 -1 12q16 4 19 7t-1 4t-9 2l-5 1l88 49q12 10 29.5 23.5t21.5 17.5l512 15l96 671q-26 -8 -43 -8q-19 0 -27 10q-14 17 -10 45q4 6 5.5 17.5t5.5 15.5l239 207q-6 8 -16 33.5t-20.5 54.5t-16.5 55.5t-6 34.5q0 27 26.5 55.5t64.5 54t78 44t64 22.5 q13 2 25 2q22 0 40 -7q28 -11 45 -31.5t25.5 -47t4.5 -49.5q4 -10 0 -22l-4 -11q-10 -10 -38 -33.5t-56.5 -50t-54.5 -49t-34 -30.5q-2 -2 35 -23.5t81 -46.5t79 -45.5t31 -20.5q0 -2 -1 -8l-2 -6q-8 -8 -22 -24.5t-29.5 -35t-29 -33.5t-21.5 -22l-10 -71l-33 -209l-6 -64 q-16 -111 -20.5 -199.5t-4.5 -187.5q-76 -63 -178 -127.5t-204.5 -120t-193.5 -93.5t-145 -48q0 10 11 17l-11 -3q-20 12 -77.5 37t-119 58.5t-113.5 74.5t-64 84z" />
<glyph unicode="K" horiz-adv-x="1271" d="M236 252q-1 -5 -1 -9q-1 -29 35 -53q40 -28 100 -46.5t120 -26.5q35 -5 60 -5q19 0 32 3q35 6 55 14t39.5 18.5t43 23.5t62.5 30l-270 -408q4 -29 43 -25.5t74 11.5q104 31 199.5 88t182.5 131t166.5 160t153.5 172q12 14 35 55t47.5 95.5t44.5 114.5q21 59 31 111 q6 30 6 55q0 17 -3 31q-7 34 -40 39q-160 14 -264.5 20.5t-175.5 10.5l524 389q-18 25 -57 31q-21 3 -45 3q-19 0 -40 -2q-46 -5 -91.5 -20.5t-71.5 -33.5l-307 -195v19q4 16 5 32.5t5 32.5l2 23q8 55 18.5 102t39 87t82.5 74t147 62q-2 8 2 12.5t4 8.5q0 2 -1 10l-1 8 q-4 10 -17.5 17.5t-23.5 7.5q-12 -4 -34 -6t-54 -8q-25 -6 -47.5 -8.5t-32.5 -4.5q-82 -16 -141.5 -34.5t-111.5 -44t-104.5 -62.5t-119.5 -90q-23 23 -51 40q-18 11 -49 11q-18 0 -40 -4q-3 -24 -3 -47q0 -48 14 -98q20 -74 53 -125l-103 -703q-41 -20 -81.5 -46t-44.5 -48 zM782 266l70 416q50 -46 58 -98q3 -24 4 -47q0 -29 -5 -58l-8 -65q-4 -23 -30.5 -63t-88.5 -85z" />
<glyph unicode="L" horiz-adv-x="903" d="M274 223q6 8 18.5 20.5t27 25t27.5 21.5t22 13l114 801q2 4 -1 17.5t-8 30.5t-9 35.5t-4 33.5l-29 84v18q0 14 2 20q4 0 22.5 1.5t22.5 -1.5l119 -36l25 4q39 8 104.5 41.5t147 73.5t176 78t192.5 57q-10 -63 -38.5 -92t-59.5 -44.5t-56.5 -24.5t-29.5 -34l-144 -999 q33 6 66 16t57.5 14t39 -4t7.5 -41q-2 -8 -6 -19t-4 -14l-366 -249q-6 -6 -20.5 -13.5t-28 -13.5t-25.5 -12t-17 -8q-12 4 -45.5 17t-71.5 30.5t-71 33t-43 23.5q-10 0 -30.5 10t-41 24.5t-34 32t-7.5 29.5z" />
<glyph unicode="M" horiz-adv-x="2021" d="M285 68l2 14l2 20q12 10 27.5 40t29.5 42l82 586q-14 -2 -36.5 3t-43 17.5t-31 29t-0.5 38.5l17.5 17.5t39 38t38.5 34.5q31 27 78 66t92 75.5t77.5 62.5t34.5 26l84 16l187 -137q2 -4 24.5 10t57 40t77.5 56.5t83 59t73 51t51 29.5l9 4q10 4 20 6q2 2 9 0l7 -2l189 -140 l4 -1q4 -1 16 1q31 6 81 41t102.5 76t96.5 79t62 50l9 5q10 5 18 8q2 0 7 -2.5t7 -2.5q18 -6 57 -29.5t80 -49t78 -49t53 -29.5q10 -8 24.5 -17.5t12.5 -11.5v-18l-2 -17q-4 -6 -10 -18t-14.5 -25.5t-16.5 -25t-14 -17.5l-88 -588q12 -8 38.5 -26.5t37.5 -30.5l3 -8 q3 -8 -1 -10q-2 -27 -47 -75t-107.5 -97.5t-126 -88t-102.5 -47.5q-5 -1 -10 -1q-23 0 -57 14q-42 16 -81 41.5t-67 58.5q-24 29 -24 55q0 4 1 7l98 682q-10 -2 -25.5 1t-37.5 -1q-43 -10 -49 -46l-82 -550q29 -27 35 -48.5t2 -50.5q-6 -39 -45 -85t-90.5 -88t-106.5 -72.5 t-94 -38.5q-15 -3 -28 -3q-28 0 -50 12q-31 17 -58.5 39.5t-57.5 40.5q-21 12 -48 12q-12 0 -26 -3q-53 -10 -98.5 -42t-86.5 -68t-81 -67.5t-83 -39.5q-6 -2 -16 -2h-4q-14 4 -56 28.5t-89 49.5q-16 14 -29.5 18t-18.5 8q-16 10 -41.5 29.5t-33.5 30.5zM899 291l84 16 l90 627l-90 -55z" />
<glyph unicode="N" horiz-adv-x="1701" d="M264 124q-6 11 0 23q2 6 21.5 23.5t44 37t46 36t27.5 20.5l80 557q2 23 -24.5 22t-58 -5t-56.5 1t-18 40q-4 8 0 18t4 12q35 35 85 79t106.5 89t114.5 85t114 69l20 4q23 4 44 4q28 0 53 -7q44 -13 80 -39t63.5 -56.5t46.5 -55.5q51 27 112.5 74t126 95t127 87t115.5 49 q2 0 10 2l8 1q2 -2 24 -16.5t47.5 -31t50 -30t30.5 -13.5l158 -59q23 -8 48 -25.5t30 -19.5q-2 -10 -13.5 -25.5t-27 -32t-32 -30.5t-28.5 -21l-80 -557q25 0 47.5 -3t40 -10t27.5 -19.5t8 -32.5q-4 -10 -5 -17.5t-5 -13.5q-8 -16 -31.5 -31.5t-64.5 -48.5l-367 -252 q-6 0 -19.5 -6t-23.5 -10q-6 -1 -14 -1q-22 0 -55 9q-44 12 -84.5 33.5t-70.5 48.5t-26 51l109 740l-62 18l-43 -39l-92 -616q8 -6 19.5 -26.5t13.5 -27.5l-2 -18l-4 -14l-45 -37q-41 -29 -102.5 -72t-119 -83t-99.5 -68.5t-46 -28.5l-43 -8l-272 127q-10 4 -24.5 12 t-26 18.5t-17.5 21.5z" />
<glyph unicode="O" d="M225 186l2 21q6 23 21.5 40t56.5 25l96 678q0 6 42 22.5t108.5 40t146.5 51.5t156 54.5t138.5 49t92.5 36.5q10 4 49.5 24.5t83.5 44t82.5 45t51.5 30.5q74 0 130 -29t96 -73t65.5 -96t37.5 -101l-8 -48q-4 -35 -8 -68.5t-8 -68.5l-6 -45q-14 -111 -27.5 -181.5 t-33 -118.5t-53.5 -80.5t-90 -66.5t-140 -76t-207 -110q-10 -6 -44 -30.5t-73 -53t-72.5 -52t-40.5 -27.5l-14 -3q-14 -4 -25 -6q-27 -6 -65 -6q-14 0 -31 1q-59 3 -127.5 15.5t-138.5 31t-125 41t-88 46t-31 43.5zM926 424q-2 -18 25.5 -21.5t56.5 0.5l69 500q2 10 -4 21.5 t-17.5 21.5t-23.5 19.5t-24 15.5z" />
<glyph unicode="P" horiz-adv-x="1222" d="M238 301l6 37q8 57 43 109.5t75.5 104.5t76.5 105.5t46 114.5q2 22 2 42q0 29 -5 53q-9 40 -21 77q-11 37 -21 75q-5 21 -6 46q0 21 4 45q16 111 87 181.5t206 97.5q16 2 36.5 7t39 7t32 -3t15.5 -22l-92 -86q88 -10 140 -54t85 -99q2 0 45 28.5t98.5 65.5t110.5 68.5 t84 37.5q31 6 59.5 -15t52 -51t38 -59.5t14.5 -42.5l-84 -575q0 -10 -43 -40t-107.5 -70t-140.5 -84t-141.5 -81.5t-110.5 -66.5t-49 -35q-6 -12 -24.5 -56t-39 -93.5t-38 -91t-21.5 -50.5q-20 -35 -27.5 -55t-14.5 -32.5t-18.5 -19.5t-37.5 -14q-10 -2 -20 -2q-32 0 -52 21 q-28 27 -43.5 73t-21.5 106.5t-6 117.5q0 59 2 110t4 78q-4 -2 -23 -2q-14 0 -18 -2q-20 -4 -34.5 -13t-28 -19.5t-26 -18.5t-28.5 -10q-41 -8 -52.5 9t-6.5 46zM920 664l75 -52l54 375l-37 25l-47 -41z" />
<glyph unicode="Q" horiz-adv-x="1226" d="M245 448q1 56 8 109t13 90q12 90 26.5 149.5t37 101.5t58.5 72.5t92.5 63.5t137 75t193.5 105l135 89l21 4q14 2 36 2q16 0 37 -1q47 -3 103.5 -12.5t115 -22.5t105.5 -30.5t76.5 -38t27.5 -41.5q-4 -20 -9 -36.5t-46 -32.5q-4 -35 -21.5 -124t-38 -189.5t-41 -189.5 t-28.5 -124q-6 -18 -21.5 -65.5t-37 -109t-48 -129t-54 -123.5t-56.5 -95t-53 -43q-8 -2 -16 -2q-27 0 -50 22q-28 27 -51 73t-39 104.5t-25.5 113.5t-13.5 100.5t-2 63.5q-10 -2 -24 -2q-47 -10 -83 -37t-69 -56.5t-65.5 -55t-75.5 -33.5q-40 -8 -72 -8q-34 0 -60 9 q-51 17 -78.5 55t-36.5 90q-8 47 -8 97v12zM717 567q-4 -20 23.5 -22t56.5 2l61 407q0 18 -28.5 21.5t-51.5 -0.5z" />
<glyph unicode="R" horiz-adv-x="1382" d="M279 211l186 156l61 434q4 25 -28.5 26.5t-71.5 2.5t-70.5 9.5t-25.5 43.5q4 25 14 40t27.5 29.5t44 33t63.5 46.5q20 12 66.5 47t96.5 74t95 74t66 47q72 -8 112.5 -18.5t69.5 -28t56.5 -42t72.5 -61.5l41 9l330 272q57 -25 93 -55.5t54.5 -69.5t22.5 -86q1 -16 1 -32 q0 -33 -5 -70q-2 -14 -5.5 -32t-7.5 -36q-2 -16 -6 -28l-4 -13q-6 -12 -35.5 -42t-66.5 -61.5t-74 -58t-57 -33.5q-2 0 -8.5 -3t-10.5 -3q-6 -2 -16 -2h-8l-39 23l-144 151l-43 -39l-69 -462q-4 -16 13 -20.5t41 -1.5t46.5 8t30.5 7q37 6 65.5 21.5t54 34t53.5 34t62 21.5 q41 8 53.5 -7t8.5 -44q-2 -8 -6 -18.5t-4 -12.5q-262 -227 -562 -440q-10 -2 -31.5 -7t-29.5 -8q-10 -2 -62.5 7.5t-121 26t-145.5 38t-137 43t-92.5 42t-14.5 34.5z" />
<glyph unicode="S" horiz-adv-x="1165" d="M246 295q0 -6 1 -13l1 -6q0 -10 15.5 -40.5t37 -65.5t40.5 -64.5t30 -37.5q0 -4 11 -21.5t28.5 -37t39 -34t39.5 -10.5q10 2 13.5 3t13.5 3q33 16 115 53t174 77t174 77t115 53q27 14 63.5 37t70.5 49.5t59.5 54t31.5 56.5l35 203l-557 241l57 72q12 -14 26.5 -43 t35.5 -57q20 -26 48 -44q18 -12 42 -12q12 0 26 3q18 4 53 17t76 31.5t85 42t80 49t60.5 51.5t28.5 50v21q-10 2 -28.5 30.5t-39 64.5t-38 68.5t-21.5 43.5q-6 2 -15 20t-23.5 38.5t-33 36t-45.5 9.5q-8 -2 -11 -4t-13 -4q-35 -18 -116 -56t-172 -79t-173 -78t-119 -53 q-31 -16 -67.5 -38t-68.5 -46.5t-55.5 -51t-27.5 -53.5l-22 -172l354 -199q-10 14 -51 5q-27 -6 -88.5 -33t-126 -61.5t-114.5 -73.5t-54 -72zM727 504l174 -92l-94 -27q-14 20 -30.5 55t-49.5 64z" />
<glyph unicode="T" horiz-adv-x="1017" d="M274 213q-2 0 18.5 9t46.5 23.5t47.5 30t25.5 25.5l61 430q-55 15 -87 33q-27 15 -27 51q0 7 1 14q-2 8 3.5 19.5t5.5 13.5q111 86 193.5 161t154 151.5t139.5 160.5t148 191l100 -41l-57 -373q29 2 75 6q23 2 44.5 2t43.5 -2q43 -4 71 -20.5t22 -55.5 q-10 -86 -84 -125.5t-187 -46.5l-69 -473q14 2 52 15q39 14 75 22q24 5 44 5q10 0 20 -1q28 -4 24 -35q-4 -23 -36 -56.5t-81 -73.5t-109.5 -80.5t-117 -75.5t-104.5 -61.5t-73 -37.5q-39 18 -99 36t-118.5 39.5t-106 50t-59.5 69.5z" />
<glyph unicode="U" horiz-adv-x="1701" d="M266 178v6q0 7 2 13q0 2 3 8l3 6q4 4 16.5 10t27 13.5t26.5 13.5l16 8q14 10 32 24.5t20 16.5l73 534q-31 -6 -62.5 -16t-56 -13t-38 6t-9.5 42q4 25 14.5 40t29 29.5t44 32t62.5 45.5q20 12 66.5 47t96.5 75t95 74t64 46q10 2 23 5t24 5q23 4 43 4q46 1 79 -21 q48 -32 76.5 -84t38.5 -112q6 -37 6 -67q0 -18 -2 -33q-2 -35 -13 -119t-24 -188q-8 -49 -16 -98.5t-12 -90.5q-8 -41 -14.5 -72.5t-8.5 -48.5q-2 0 18.5 9.5t46 23t47 28.5t25.5 26l80 555q-8 6 -18 20t-20.5 31.5t-18.5 33t-10 21.5l4 16l2 17q119 59 222.5 131t189.5 158 q12 -6 40.5 -20.5t63.5 -33t74 -36t69 -29.5q41 -23 61.5 -32t29 -13t9.5 -6t3 -11v-20q-8 -41 -32 -69.5t-77 -74.5l-82 -552q-4 -18 7.5 -22.5t31 -3.5t42 5t42 3t31.5 -10t10 -34q-4 -23 -30.5 -53.5t-65.5 -64t-87 -67.5t-96.5 -63.5t-92.5 -49t-72 -26.5q-25 -5 -46 -5 q-28 -1 -52 9q-40 16 -74.5 38t-72.5 38q-21 9 -48 10q-21 0 -47 -6q-59 -12 -112.5 -45.5t-106 -71.5t-104.5 -72t-105 -44l-23 -4q-23 10 -80 31.5t-118.5 50t-114.5 65.5t-68 78z" />
<glyph unicode="V" horiz-adv-x="1458" d="M266 229q4 8 25.5 23.5t46 30t44.5 23.5l19 9l78 525q-35 27 -55.5 49t-31.5 47q-11 24 -12 54v13q0 26 3 60q14 98 75.5 165.5t151.5 114t201 75t221 50.5q-6 -33 -24.5 -64.5t-49.5 -57.5q-30 -24 -72 -40q-37 -14 -81 -14h-12l282 -168l387 238l45 8q2 0 33 -14.5 t68 -36t72.5 -45t52.5 -39.5q8 -10 20 -41t10 -45l-84 -586q-12 -72 -83.5 -126t-166 -98t-189.5 -82t-155 -79l-182 -125q-6 -6 -20.5 -13t-29.5 -15.5t-26.5 -13.5t-13.5 -5q-6 -1 -14 -1q-19 0 -53 6q-50 9 -111.5 28.5t-129 44.5t-121.5 50.5t-88 51t-30 43.5zM1001 461 l78 -43l86 592q-12 -2 -27.5 -7.5t-28.5 -12.5t-23.5 -16t-12.5 -18z" />
<glyph unicode="W" horiz-adv-x="1908" d="M286 142q6 16 17.5 29t29 25.5t46.5 28.5l80 541q-69 39 -91 89q-12 29 -13 69q0 30 7 67q41 299 394 367q18 4 49 11t55 7q29 0 46.5 -11t13.5 -42q0 -2 -2 -7l-3 -5l-184 -103q33 -10 71 -20t75.5 -24.5t71.5 -33t57 -45.5q86 80 162.5 138.5t177.5 79.5q35 6 58 6 q14 -1 24 -3q26 -6 44.5 -22t44 -38.5t85.5 -43.5l9 -1t11 -1q45 8 86 40t82 69t84 68.5t94 41.5q6 1 13 1q29 0 66 -20q46 -24 87 -63q42 -39 68 -82q22 -35 21 -63q0 -6 -1 -12l-82 -578q-6 -29 -56 -77t-125 -105.5t-163 -116.5t-169 -108.5t-142.5 -82t-81.5 -36.5 q-26 -5 -51 -5q-36 0 -68 11q-53 18 -106 42q-52 22 -107 40q-31 10 -66 10q-28 0 -59 -6q-8 -2 -20 -6l-13 -4l-280 -232q-8 -2 -23.5 -8t-23.5 -8q-2 -1 -5 -1q-17 1 -63 21q-52 24 -108 55t-97 64q-37 30 -37 48q-1 17 10 45zM932 297l80 41l84 586l-74 -11zM1540 485 q0 -29 29 -28q16 0 28.5 1t22.5 3l88 594q-12 -2 -27.5 -7.5t-29 -12.5t-23.5 -18t-12 -26z" />
<glyph unicode="X" horiz-adv-x="1302" d="M143 -12q16 123 96 223t216 201l59 411q6 45 -12.5 53.5t-50 2t-69.5 -18.5q-28 -9 -52 -9q-8 0 -15 1q-23 2 -35 23.5t-1 31.5l380 342l15 4q14 4 24 9q23 4 44 4q28 0 56 -8q48 -14 88 -38t71.5 -52.5t56.5 -49.5l286 256l6 2l15 6q8 2 16 2q34 0 64 -28q37 -34 63 -82 q24 -48 38 -100q11 -42 12 -68q0 -6 -1 -10q-6 -39 -31.5 -78t-63.5 -72t-84 -57.5t-91 -32.5q-29 -6 -53 -6q-38 0 -60 16q-36 26 -55 99l-43 -9l-65 -446q-2 -14 5 -20.5t19.5 -7.5t25.5 1t25 4q57 12 103.5 39t97.5 39l21 4q10 0 22 -10t14 -18l2 -7q3 -6 3 -8 q-2 -14 -36 -49t-87.5 -80t-117 -94t-122.5 -91t-106.5 -70.5t-69.5 -32.5q-31 -6 -58 -6q-8 1 -17 1q-34 2 -66.5 8.5t-67.5 9.5q-10 1 -20 1q-27 0 -58 -6q-92 -18 -132 -71.5t-46 -117.5q-3 -16 -3 -31q0 -38 24 -60q32 -30 86 -39q34 -6 72 -6q20 0 44 2q64 5 115 16 q6 0 27.5 5t46 11t47 11t28.5 7q6 45 21.5 91.5t44.5 84t73 66.5t109 41q37 7 65 7q93 0 94 -78q0 -14 -3 -29q-12 -78 -59.5 -135.5t-117 -97.5t-152.5 -66.5t-169 -42.5q-114 -23 -214 -23h-16q-108 2 -184.5 36t-114.5 104q-27 50 -27 122q0 30 5 64z" />
<glyph unicode="Y" horiz-adv-x="1138" d="M236 211q6 47 20 91t29.5 87t30 89t22.5 95q5 35 5 67q0 24 -3 46q-6 53 -16.5 102.5t-17.5 99.5q-3 23 -3 49q0 29 4 60q18 125 98 220.5t242 128.5q28 5 47 5q17 0 28 -3q23 -9 44 -52q-14 -14 -39 -28.5t-47.5 -28.5t-39.5 -27.5t-17 -25.5v-19l188 -133l90 49 l227 152l8 2q9 2 19 4h16l121 -86q29 -10 41.5 -36.5t18.5 -49.5l-121 -852q-6 -45 -44 -100.5t-94.5 -112.5t-127 -112.5t-141 -100.5t-135 -75.5t-111.5 -41.5q-10 -2 -31 -6t-42.5 -6t-37.5 3.5t-16 21.5q82 68 137 115.5t92 93t56.5 95.5t29.5 124q4 4 4 20q0 18 2 37 q4 20 6 37.5t0 26.5q-16 -12 -55 -40t-83 -59t-84 -57.5t-54 -36.5l-8 -3q-9 -3 -11 -3q-14 -2 -28 -2q-27 0 -57 7q-46 11 -84 35.5t-62 58.5q-18 26 -18 57q0 9 2 18zM760 395q57 12 90 60l4 37q6 29 13 52t14 52l4 39l18 139q3 18 3 35q0 57 -32 98l-45 -43z" />
<glyph unicode="Z" horiz-adv-x="1064" d="M212 36q-5 33 -5 69q0 38 6 79l4 39q4 35 13.5 71t13.5 44q0 6 23.5 38t51 66.5t51 66.5t23.5 38q2 2 -2 14t-10 26.5t-10 27t-2 16.5q2 2 0 13t-7 20q6 45 57.5 70.5t111 48t109.5 52t58 83.5l2 18q-8 14 -17 34.5t-17 18.5l-211 -41q-8 -2 -17.5 2t-15.5 12.5t-7 18.5 t7 20q2 6 19.5 20.5t41 33t47 36t35.5 27.5q16 12 60.5 43t95.5 63.5t97 63.5t67 43q4 0 17 4t22 6q33 6 59 6q33 0 55 -9q42 -17 63 -53t24 -85q1 -21 1 -42q0 -28 -2 -56q-4 -49 -13 -91t-13 -67q16 4 43.5 12.5t54.5 12.5q8 1 15 1q31 0 30 -28v-6v-10l-4 -6l-92 -78 l-5 -8q-5 -7 -10 -11q-2 -10 -2 -21q0 -30 12 -58q16 -40 36 -85t34 -99q7 -30 7 -64q0 -28 -5 -58q-12 -88 -59 -179t-125 -170t-187.5 -139.5t-246.5 -86.5q-71 -14 -127 -14q-42 -1 -75 7q-79 18 -124 64t-56 116zM553 37q-7 -47 19 -52q9 -2 20 -1q23 0 57 6q29 6 32 8 t-4 6t-16.5 15.5t-5.5 35.5l84 568q-35 -6 -59.5 -35t-39.5 -64t-23.5 -68.5t-10.5 -47.5z" />
<glyph unicode="[" horiz-adv-x="800" d="M254 172l180 1171q12 23 32.5 57t55.5 56l154 141l10 3q10 4 12 4q2 2 13 2h8l194 -68l74 -14l-98 -162q-29 -37 -46.5 -75t-21.5 -77q-29 -137 -62.5 -290.5t-51.5 -303.5q-23 -147 -29 -282t15.5 -233.5t76 -149t152.5 -27.5q-6 -18 -25.5 -30.5t-41 -19.5t-43 -10 t-32.5 -5q-72 -14 -166 7t-177 67.5t-138 108.5t-45 130zM987 1524l8 -2z" />
<glyph unicode="\" horiz-adv-x="1085" d="M311 952l4 9q20 72 77 150.5t149 166.5q152 -53 245 -86t146 -51.5t74.5 -28.5t29.5 -18q10 -6 11 -33q0 -27 -3 -33q-4 -6 -15 -14t-24.5 -16.5t-25.5 -15.5t-18 -7l288 -604q10 -23 -1 -69t-34.5 -93t-54.5 -85t-61 -44q-27 -6 -72 1t-98.5 22.5t-110.5 37t-105 46 t-83 48t-45 41.5q-23 41 0.5 67t101.5 28q-8 20 -26.5 74.5t-40 113.5t-41 113.5t-27.5 75.5q-29 49 -64.5 73.5t-69.5 41t-61.5 31.5t-40.5 46q-4 0 -4 12z" />
<glyph unicode="]" horiz-adv-x="704" d="M94 -217q0 -18 16.5 -23.5t40 -3.5t45 7.5t29.5 7.5q47 10 111.5 40.5t135.5 75.5t140.5 100.5t127 113t95 112.5t44.5 100l155 1166q-6 23 -19.5 49t-41.5 37l-119 88l-8 -1t-12 -1q-8 -2 -16 -5l-9 -4l-227 -149l-78 -43l51 -133q35 -53 29 -133q-10 -135 -22.5 -282.5 t-35.5 -301.5q-23 -147 -55.5 -287.5t-83.5 -253t-123 -187.5t-170 -89zM494 1444l10 6z" />
<glyph unicode="^" horiz-adv-x="1458" d="M182 140.5q2 -13.5 6.5 -27t9.5 -24.5t11 -13q18 -18 55 -42t75 -44.5t67.5 -34.5t33.5 -14l41 8l391 237l279 -168q-47 2 -89 -13t-74 -40.5t-51 -58.5t-24 -66q111 20 220.5 50t199.5 76t151.5 115t76.5 167q6 43 4 72.5t-12.5 54t-32 47t-54.5 49.5l80 524 q-2 0 17.5 9.5t44 22.5t47 28.5t26.5 25.5q0 18 -34.5 43t-88 50.5t-119 51t-127 44t-109.5 29t-68 6.5q-2 0 -14.5 -5.5t-28 -13.5t-28.5 -15t-20 -14l-184 -127q-39 -27 -96 -51t-120.5 -52t-127 -57.5t-117 -63.5t-88.5 -72.5t-43 -85.5l-86 -588q-2 -6 0 -19.5zM780 299 l84 592l78 -43l-72 -494q0 -12 -10 -21t-24.5 -15.5t-28.5 -11.5t-27 -7z" />
<glyph unicode="_" horiz-adv-x="1370" d="M-248 -322q-8 -4 36 0.5t122 11.5t180.5 17t212 23.5t218 26t197.5 24.5t150.5 22.5t77.5 16.5q166 59 269.5 93t156.5 73q10 4 1 5l-9 1l-827 -66z" />
<glyph unicode="`" horiz-adv-x="616" d="M807 1712q-6 -4 12.5 -23.5t48 -47t67.5 -57.5t72.5 -53.5t62.5 -34.5t38 -1q72 51 122 83t73 83q8 2 5 7l-3 5l-150 256z" />
<glyph unicode="a" horiz-adv-x="1372" d="M257 284v-7q-1 -49 13 -92q14 -46 45 -85t84 -69q23 -13 47 -25q14 -7 35 -7q14 0 31 3q43 8 95 50t102.5 90t94.5 89t75 48q14 2 38.5 -26t58.5 -59.5t76 -55.5q29 -16 63 -16q14 0 30 3l35 6q18 16 61 51t92 74t93 75t63 54q31 23 44 29t17 16q6 8 6 21q2 16 -19 37.5 t-30 21.5q-25 -4 -37 -14.5t-34 -14.5q-18 -4 -27.5 10.5t-12.5 35t-2 39t1 24.5l2 16l10 86l6 33l10 78q8 63 18.5 112.5t33.5 116.5q14 14 35.5 25.5t42 23t35 25.5t18.5 35q2 33 -26 48t-66.5 21.5t-79.5 9.5t-64 13q-39 10 -68.5 28.5t-58.5 35t-59 25.5q-16 5 -35 5 q-16 0 -35 -4q-27 -6 -46 -14.5t-36.5 -18.5t-37 -23.5t-44.5 -27.5q-88 -49 -187 -96t-188.5 -101.5t-158 -121t-94.5 -154.5l-7 -39q-4 -35 -9 -65.5t-9 -65.5l-8 -41l-23 -160q-8 -59 -9 -111zM782 365q-1 15 -1 29q1 39 5 76q6 50 13 97l30 209l5 37l16 94l2 17l20 57h7 l10 2q12 -2 23.5 -15.5t21.5 -21.5l31 -12l-74 -496q0 -6 -10.5 -18t-22.5 -24.5t-25.5 -24t-19.5 -17.5l-6 -2l-8 -2q-17 5 -17 15z" />
<glyph unicode="b" horiz-adv-x="1292" d="M304 198q-3 5 1 9q0 4 3 10l3 6q6 6 18.5 17.5t26 22.5t26.5 21.5t19 16.5l109 741q4 23 -7 61t-27.5 76t-32 70.5t-19.5 44.5l47 41q4 -6 19.5 -16t34 -21.5t34.5 -20.5t25 -11l8 1t14 3q6 0 14 3l7 3l139 86q123 74 251 111.5t271 78.5q25 -23 32 -39t1 -45 q-4 -20 -25.5 -32.5t-52.5 -25.5t-65.5 -30.5t-67.5 -49.5t-58.5 -81t-35.5 -125l-2 -26q-4 -18 -6 -41t-4 -41l-7 -29q37 18 80 47t88 58.5t88 52t80 29.5q7 1 14 1q25 1 58 -15q43 -20 83 -52t66 -68q22 -31 22 -54q0 -4 -1 -7l-66 -463l-6 -11q-6 -11 -14 -28.5 t-18.5 -35t-16.5 -25.5q-16 -18 -32.5 -44t-20.5 -28l-623 -330q-10 -6 -46 0t-84 21.5t-103.5 36t-103.5 42t-85 43t-49 36.5zM913 399l78 -43l72 500q-12 -2 -27.5 -7t-29 -12.5t-23.5 -16.5t-10 -17z" />
<glyph unicode="c" horiz-adv-x="1218" d="M240 252l98 647q2 27 26.5 54.5t60.5 53t76 48t70 39.5q25 10 74 30.5t109.5 47t127 56t127 56.5t107.5 48.5t72 31.5q6 2 10 3l12 3q25 4 46.5 -10t38 -33.5t28.5 -36t18 -16.5q6 -12 25.5 -44t41.5 -67t41 -64.5t26 -37.5l1 -6t-1 -11q-4 -35 -57.5 -75.5t-121 -76.5 t-134 -61.5t-95.5 -31.5q-17 -4 -31 -4q-24 0 -44 11q-30 17 -51 44t-34.5 54.5t-25.5 39.5l-64 -430q-6 -33 24.5 -50.5t76.5 -23.5q34 -4 70 -4h25q50 2 83 8q66 12 122 40t115 38q41 8 52.5 -8t7.5 -39q-2 -10 -4.5 -18t-4.5 -15q-10 -20 -28.5 -33.5t-65.5 -43.5 q-23 -14 -65.5 -42t-96 -62t-112 -71.5t-111.5 -71.5t-96 -60.5t-64 -39.5q-4 0 -17 -4t-23 -6q-24 -5 -52 -5q-41 1 -89 11q-82 18 -156 54t-124 86q-44 43 -45 86q0 6 1 12z" />
<glyph unicode="d" horiz-adv-x="1212" d="M250 162q2 10 16.5 25.5t32.5 32t37.5 30.5t32.5 24l80 539l276 53q-57 14 -107.5 36t-85 50.5t-52.5 68.5q-12 27 -12 62q0 16 3 33q10 80 58.5 136.5t120 95t160.5 64.5t181 44q-4 -35 -29.5 -61.5t-54 -47t-54.5 -37t-30 -34.5q0 -2 2 -6t2 -6q29 -4 97.5 -16.5 t145.5 -26t144.5 -26.5t94.5 -19q25 -4 57.5 -22.5t61 -44.5t47 -54.5t14.5 -53.5l-78 -555q-4 -20 -51 -59t-116.5 -85t-151.5 -96t-157 -91t-132.5 -70t-77.5 -33q-14 -2 -54 7.5t-93.5 23.5t-110.5 32.5t-105.5 36t-80 31t-31.5 19.5zM864 399l78 -45l66 463l-76 45z" />
<glyph unicode="e" horiz-adv-x="1259" d="M250 309l80 555q4 35 53 83t125 99.5t166 101.5t177 92t158.5 71t110.5 37l25 4q16 -4 47 -8.5t35 -6.5l248 -282l-7 -43q-6 -51 -55 -94.5t-119.5 -83t-151.5 -76.5t-151.5 -75t-119 -77t-54.5 -84q-4 -25 12.5 -42t44 -27.5t62.5 -15.5t70 -5q51 0 90 8q59 12 101 30.5 t91 35.5q27 10 54.5 17t48.5 7q23 0 36 -8t11 -28q-4 -16 -47 -57.5t-111 -92.5t-147.5 -107.5t-155.5 -103.5t-138.5 -81t-93.5 -40q-36 -7 -73 -7q-50 1 -103 13q-92 22 -165 66q-74 44 -119 104q-37 50 -37 99q0 11 2 22zM803 717l21 9q20 9 44.5 22.5t47 29t24.5 25.5 q2 2 -11.5 22.5t-23.5 30.5q-6 2 -17 12.5t-22.5 23.5t-19.5 24.5t-8 15.5z" />
<glyph unicode="f" horiz-adv-x="1024" d="M266 182q0 4 13.5 20.5t32 36t34.5 35t21 17.5l61 432q-53 8 -66.5 24.5t-9.5 51.5q4 31 21.5 60.5t39 59t42 60.5t26.5 65q2 16 2 32q0 23 -5 45q-9 36 -22.5 71t-22.5 70q-5 18 -5 38q0 18 4 37q30 6 56 6q73 0 108 -49q104 70 188 113t169 71.5t181.5 50t225.5 46.5 q-8 -47 -32.5 -84t-94.5 -72q59 -23 87 -59q22 -28 22 -68q0 -9 -1 -20q-14 -106 -163 -137q-51 -10 -85 -13q-5 -1 -10 -1q-29 0 -59 18l-8 -62q74 10 123 15q18 1 34 1q26 0 43 -5q29 -7 38 -30q6 -14 6 -35q0 -16 -3 -36q0 -10 -8 -37.5t-8 -38.5q-12 -2 -48 -13 t-78 -24.5t-81 -25.5t-57 -19q-10 -4 -25.5 -17t-17.5 -21l-60 -400q0 -4 14.5 -14t24.5 -10l27 6q25 4 46.5 13t43 20.5t46 22.5t54.5 17l-10 -69l-420 -350l-84 -17q-2 0 -41.5 12.5t-92 31t-104.5 39t-79 36.5q-6 2 -12 9t-11.5 15.5t-8.5 16.5t-1 12z" />
<glyph unicode="g" horiz-adv-x="1259" d="M217 -14q6 43 17.5 74.5t35 56t63.5 41t101 28.5q47 8 82 8q26 0 46 -4q48 -10 74 -37.5t32 -69.5q3 -18 3 -37q0 -25 -5 -52q37 6 84 18.5t90 34t75.5 50t38.5 69.5q2 6 1 15t1 16q-8 12 -27.5 41.5t-41 64.5t-41 64.5t-25.5 42.5l-22 -4l-21 -5q-74 -35 -117 -60.5 t-74.5 -43.5t-63 -31.5t-83.5 -23.5q-20 -4 -39 -4q-22 0 -41 5q-38 9 -67 30.5t-45 50.5q-10 21 -10 43q0 10 2 20l86 586q0 8 42 36.5t104.5 68.5t137 83t145 81t125 64.5t76.5 30.5q8 2 23.5 4t17.5 2q25 -6 87.5 -23t133 -37.5t133 -38t87.5 -23.5q6 -6 18 -11.5 t17 -13.5q0 -2 1 -9t-1 -16l-7 -6q-6 -6 -18 -22.5t-27.5 -33.5t-29 -31.5t-21.5 -20.5l-70 -494q31 -29 52.5 -51.5t33 -46t14.5 -48t-3 -57.5q-14 -98 -85 -179t-173.5 -143.5t-224 -105.5t-236.5 -65q-80 -16 -167 -27q-49 -5 -93 -5q-33 0 -62 3q-69 8 -110 42 q-32 26 -32 75q0 15 3 31zM717 532q12 2 26.5 7.5t28.5 12.5t23.5 15t11.5 19l57 401l-78 17z" />
<glyph unicode="h" horiz-adv-x="1239" d="M289 266q4 23 13 40.5t56 39.5l103 703q-37 49 -61 121q-16 47 -15 96q0 25 4 51q29 6 49.5 3t37 -11.5t30.5 -18.5t31 -20q66 55 117 92t103 61.5t112.5 42t144.5 33.5l33 6q29 6 52 10.5t52 8.5l37 8q10 -4 20.5 -10t18.5 -17v-22l-6 -8v-9q-92 -27 -145.5 -61.5 t-83 -75.5t-41 -88t-17.5 -100q-4 -20 -6 -56t-2 -51l311 197q20 13 39 13q18 0 36 -12q36 -24 62.5 -64t44 -82t19.5 -50q0 -16 4 -47t9 -61.5t8 -56t3 -33.5q-6 -39 -24.5 -114t-39 -155t-38 -146.5t-21.5 -86.5q-35 -80 -109.5 -168t-173 -166t-211 -137.5t-218.5 -79.5 q-41 -8 -76 -11.5t-45 23.5q68 63 127 102.5t104 74t75 79.5t42 123q0 6 1 19.5t1 27.5q0 16 1 29.5t1 19.5q-27 -14 -64.5 -38.5t-77.5 -49t-77 -43t-61 -22.5q-7 -1 -17 -1q-23 0 -58 7q-50 10 -99.5 30.5t-85.5 48.5q-30 24 -30 53q0 4 1 9zM840 438l55 8l68 461l-62 -49 z" />
<glyph unicode="i" horiz-adv-x="905" d="M358 811l328 274q-29 6 -47 29t-29.5 52.5t-15.5 59t-2 50.5q4 31 25.5 62.5t53 58t72.5 47t84 29.5q23 4 46 4q21 1 43 -3q44 -8 79 -28t55 -48q15 -22 14 -46q0 -8 -1 -15q-6 -31 -26.5 -60.5t-49.5 -57t-62.5 -52t-64.5 -49.5l264 -157l1 -7q1 -6 1 -10 q-4 -29 -26.5 -50.5t-51 -45t-53 -54t-30.5 -75.5q-2 -18 -5.5 -66.5t-4.5 -101.5t-1 -100q0 -45 7 -64q51 17 82 17q44 0 44 -36q0 -7 -2 -16q-2 -27 -55 -78t-123.5 -103t-141.5 -94t-108 -50q-8 -2 -18 -2q-25 0 -55 12q-42 16 -81.5 44t-65 57.5t-23.5 51.5l80 558 q-8 -2 -23.5 -1l-31 2t-30 4t-18.5 5q-16 8 -31.5 25.5t-1.5 27.5z" />
<glyph unicode="j" horiz-adv-x="1239" d="M285 231l1 3q1 4 -1 12q16 4 19 7t-1 4t-9 2l-5 1l88 49q12 10 29.5 23.5t21.5 17.5l512 15l96 671q-26 -8 -43 -8q-19 0 -27 10q-14 17 -10 45q4 6 5.5 17.5t5.5 15.5l239 207q-6 8 -16 33.5t-20.5 54.5t-16.5 55.5t-6 34.5q0 27 26.5 55.5t64.5 54t78 44t64 22.5 q13 2 25 2q22 0 40 -7q28 -11 45 -31.5t25.5 -47t4.5 -49.5q4 -10 0 -22l-4 -11q-10 -10 -38 -33.5t-56.5 -50t-54.5 -49t-34 -30.5q-2 -2 35 -23.5t81 -46.5t79 -45.5t31 -20.5q0 -2 -1 -8l-2 -6q-8 -8 -22 -24.5t-29.5 -35t-29 -33.5t-21.5 -22l-10 -71l-33 -209l-6 -64 q-16 -111 -20.5 -199.5t-4.5 -187.5q-76 -63 -178 -127.5t-204.5 -120t-193.5 -93.5t-145 -48q0 10 11 17l-11 -3q-20 12 -77.5 37t-119 58.5t-113.5 74.5t-64 84z" />
<glyph unicode="k" horiz-adv-x="1271" d="M236 252q-1 -5 -1 -9q-1 -29 35 -53q40 -28 100 -46.5t120 -26.5q35 -5 60 -5q19 0 32 3q70 14 131 32.5t139 55.5l-340 -410q4 -29 43 -25.5t74 11.5q104 31 199.5 88t182.5 131t166.5 160t153.5 172q12 14 35 55t47.5 95.5t44.5 114.5q21 59 31 111q6 30 6 55 q0 17 -3 31q-7 34 -40 39q-160 14 -264.5 20.5t-175.5 10.5l524 389q-18 25 -57 31q-21 3 -45 3q-19 0 -40 -2q-46 -5 -91.5 -20.5t-71.5 -33.5l-307 -195v19q4 16 5 32.5t5 32.5l2 23q8 55 18.5 102t39 87t82.5 74t147 62q-2 8 2 12.5t4 8.5q0 2 -1 10l-1 8 q-4 10 -17.5 17.5t-23.5 7.5q-12 -4 -34 -6t-54 -8q-25 -6 -47.5 -8.5t-32.5 -4.5q-82 -16 -141.5 -34.5t-111.5 -44t-104.5 -62.5t-119.5 -90q-23 23 -51 40q-18 11 -49 11q-18 0 -40 -4q-3 -24 -3 -47q0 -48 14 -98q20 -74 53 -125l-103 -703q-41 -20 -81.5 -46t-44.5 -48 zM782 266l70 416q50 -46 58 -98q3 -24 4 -47q0 -29 -5 -58l-8 -65q-4 -23 -30.5 -63t-88.5 -85z" />
<glyph unicode="l" horiz-adv-x="903" d="M274 223q6 8 18.5 20.5t27 25t27.5 21.5t22 13l114 801q2 4 -1 17.5t-8 30.5t-9 35.5t-4 33.5l-29 84v18q0 14 2 20q4 0 22.5 1.5t22.5 -1.5l119 -36l25 4q39 8 104.5 41.5t147 73.5t176 78t192.5 57q-10 -63 -38.5 -92t-59.5 -44.5t-56.5 -24.5t-29.5 -34l-144 -999 q33 6 66 16t57.5 14t39 -4t7.5 -41q-2 -8 -6 -19t-4 -14l-366 -249q-6 -6 -20.5 -13.5t-28 -13.5t-25.5 -12t-17 -8q-12 4 -45.5 17t-71.5 30.5t-71 33t-43 23.5q-10 0 -30.5 10t-41 24.5t-34 32t-7.5 29.5z" />
<glyph unicode="m" horiz-adv-x="2021" d="M285 68l2 14l2 20q12 10 27.5 40t29.5 42l82 586q-14 -2 -36.5 3t-43 17.5t-31 29t-0.5 38.5l17.5 17.5t39 38t38.5 34.5q31 27 78 66t92 75.5t77.5 62.5t34.5 26l84 16l187 -137q2 -4 24.5 10t57 40t77.5 56.5t83 59t73 51t51 29.5l9 4q10 4 20 6q2 2 9 0l7 -2l189 -140 l4 -1q4 -1 16 1q31 6 81 41t102.5 76t96.5 79t62 50l9 5q10 5 18 8q2 0 7 -2.5t7 -2.5q18 -6 57 -29.5t80 -49t78 -49t53 -29.5q10 -8 24.5 -17.5t12.5 -11.5v-18l-2 -17q-4 -6 -10 -18t-14.5 -25.5t-16.5 -25t-14 -17.5l-88 -588q12 -8 38.5 -26.5t37.5 -30.5l3 -8 q3 -8 -1 -10q-2 -27 -47 -75t-107.5 -97.5t-126 -88t-102.5 -47.5q-5 -1 -10 -1q-23 0 -57 14q-42 16 -81 41.5t-67 58.5q-24 29 -24 55q0 4 1 7l98 682q-10 -2 -25.5 1t-37.5 -1q-43 -10 -49 -46l-82 -550q29 -27 35 -48.5t2 -50.5q-6 -39 -45 -85t-90.5 -88t-106.5 -72.5 t-94 -38.5q-15 -3 -28 -3q-28 0 -50 12q-31 17 -58.5 39.5t-57.5 40.5q-21 12 -48 12q-12 0 -26 -3q-53 -10 -98.5 -42t-86.5 -68t-81 -67.5t-83 -39.5q-6 -2 -16 -2h-4q-14 4 -56 28.5t-89 49.5q-16 14 -29.5 18t-18.5 8q-16 10 -41.5 29.5t-33.5 30.5zM899 291l84 16 l90 627l-90 -55z" />
<glyph unicode="n" horiz-adv-x="1701" d="M264 124q-6 11 0 23q2 6 21.5 23.5t44 37t46 36t27.5 20.5l80 557q2 23 -24.5 22t-58 -5t-56.5 1t-18 40q-4 8 0 18t4 12q35 35 85 79t106.5 89t114.5 85t114 69l20 4q23 4 44 4q28 0 53 -7q44 -13 80 -39t63.5 -56.5t46.5 -55.5q51 27 112.5 74t126 95t127 87t115.5 49 q2 0 10 2l8 1q2 -2 24 -16.5t47.5 -31t50 -30t30.5 -13.5l158 -59q23 -8 48 -25.5t30 -19.5q-2 -10 -13.5 -25.5t-27 -32t-32 -30.5t-28.5 -21l-80 -557q25 0 47.5 -3t40 -10t27.5 -19.5t8 -32.5q-4 -10 -5 -17.5t-5 -13.5q-8 -16 -31.5 -31.5t-64.5 -48.5l-367 -252 q-6 0 -19.5 -6t-23.5 -10q-6 -1 -14 -1q-22 0 -55 9q-44 12 -84.5 33.5t-70.5 48.5t-26 51l109 740l-62 18l-43 -39l-92 -616q8 -6 19.5 -26.5t13.5 -27.5l-2 -18l-4 -14l-45 -37q-41 -29 -102.5 -72t-119 -83t-99.5 -68.5t-46 -28.5l-43 -8l-272 127q-10 4 -24.5 12 t-26 18.5t-17.5 21.5z" />
<glyph unicode="o" d="M225 186l2 21q6 23 21.5 40t56.5 25l96 678q0 6 42 22.5t108.5 40t146.5 51.5t156 54.5t138.5 49t92.5 36.5q10 4 49.5 24.5t83.5 44t82.5 45t51.5 30.5q74 0 130 -29t96 -73t65.5 -96t37.5 -101l-8 -48q-4 -35 -8 -68.5t-8 -68.5l-6 -45q-14 -111 -27.5 -181.5 t-33 -118.5t-53.5 -80.5t-90 -66.5t-140 -76t-207 -110q-10 -6 -44 -30.5t-73 -53t-72.5 -52t-40.5 -27.5l-14 -3q-14 -4 -25 -6q-27 -6 -65 -6q-14 0 -31 1q-59 3 -127.5 15.5t-138.5 31t-125 41t-88 46t-31 43.5zM926 424q-2 -18 25.5 -21.5t56.5 0.5l69 500q2 10 -4 21.5 t-17.5 21.5t-23.5 19.5t-24 15.5z" />
<glyph unicode="p" horiz-adv-x="1222" d="M238 301l6 37q8 57 43 109.5t75.5 104.5t76.5 105.5t46 114.5q2 22 2 42q0 29 -5 53q-9 40 -21 77t-21 75q-6 21 -6 46q0 21 4 45q16 111 87 181.5t206 97.5q16 2 36.5 7t39 7t32 -3t15.5 -22l-92 -86q88 -10 140 -54t85 -99q2 0 45 28.5t98.5 65.5t110.5 68.5t84 37.5 q31 6 59.5 -15t52 -51t38 -59.5t14.5 -42.5l-84 -575q0 -10 -43 -40t-107.5 -70t-140.5 -84t-141.5 -81.5t-110.5 -66.5t-49 -35q-6 -12 -24.5 -56t-39 -93.5t-38 -91t-21.5 -50.5q-20 -35 -27.5 -55t-14.5 -32.5t-18.5 -19.5t-37.5 -14q-10 -2 -20 -2q-31 0 -52 21 q-28 27 -43.5 73t-21.5 106.5t-6 117.5q0 59 2 110t4 78q-4 -2 -23 -2q-14 0 -18 -2q-20 -4 -34.5 -13t-28 -19.5t-26 -18.5t-28.5 -10q-41 -8 -52.5 9t-6.5 46zM920 664l75 -52l54 375l-37 25l-47 -41z" />
<glyph unicode="q" horiz-adv-x="1226" d="M245 448q1 56 8 109t13 90q12 90 26.5 149.5t37 101.5t58.5 72.5t92.5 63.5t137 75t193.5 105l135 89l21 4q14 2 36 2q16 0 37 -1q47 -3 103.5 -12.5t115 -22.5t105.5 -30.5t76.5 -38t27.5 -41.5q-4 -20 -9 -36.5t-46 -32.5q-4 -35 -21.5 -124t-38 -189.5t-41 -189.5 t-28.5 -124q-6 -18 -21.5 -65.5t-37 -109t-48 -129t-54 -123.5t-56.5 -95t-53 -43q-8 -2 -16 -2q-27 0 -50 22q-28 27 -51 73t-39 104.5t-25.5 113.5t-13.5 100.5t-2 63.5q-10 -2 -24 -2q-47 -10 -83 -37t-69 -56.5t-65.5 -55t-75.5 -33.5q-40 -8 -72 -8q-34 0 -60 9 q-51 17 -78.5 55t-36.5 90q-8 47 -8 97v12zM717 567q-4 -20 23.5 -22t56.5 2l61 407q0 18 -28.5 21.5t-51.5 -0.5z" />
<glyph unicode="r" horiz-adv-x="1382" d="M279 211l186 156l61 434q4 25 -28.5 26.5t-71.5 2.5t-70.5 9.5t-25.5 43.5q4 25 14 40t27.5 29.5t44 33t63.5 46.5q20 12 66.5 47t96.5 74t95 74t66 47q72 -8 112.5 -18.5t69.5 -28t56.5 -42t72.5 -61.5l41 9l330 272q57 -25 93 -55.5t54.5 -69.5t22.5 -86q1 -16 1 -32 q0 -33 -5 -70q-2 -14 -5.5 -32t-7.5 -36q-2 -16 -6 -28l-4 -13q-6 -12 -35.5 -42t-66.5 -61.5t-74 -58t-57 -33.5q-2 0 -8.5 -3t-10.5 -3q-6 -2 -16 -2h-8l-39 23l-144 151l-43 -39l-69 -462q-4 -16 13 -20.5t41 -1.5t46.5 8t30.5 7q37 6 65.5 21.5t54 34t53.5 34t62 21.5 q41 8 53.5 -7t8.5 -44q-2 -8 -6 -18.5t-4 -12.5q-262 -227 -562 -440q-10 -2 -31.5 -7t-29.5 -8q-10 -2 -62.5 7.5t-121 26t-145.5 38t-137 43t-92.5 42t-14.5 34.5z" />
<glyph unicode="s" horiz-adv-x="1165" d="M246 295q0 -6 1 -13l1 -6q0 -10 15.5 -40.5t37 -65.5t40.5 -64.5t30 -37.5q0 -4 11 -21.5t28.5 -37t39 -34t39.5 -10.5q10 2 13.5 3t13.5 3q33 16 115 53t174 77t174 77t115 53q27 14 63.5 37t70.5 49.5t59.5 54t31.5 56.5l35 203l-557 241l57 72q12 -14 26.5 -43 t35.5 -57q20 -26 48 -44q18 -12 42 -12q12 0 26 3q18 4 53 17t76 31.5t85 42t80 49t60.5 51.5t28.5 50v21q-10 2 -28.5 30.5t-39 64.5t-38 68.5t-21.5 43.5q-6 2 -15 20t-23.5 38.5t-33 36t-45.5 9.5q-8 -2 -11 -4t-13 -4q-35 -18 -116 -56t-172 -79t-173 -78t-119 -53 q-31 -16 -67.5 -38t-68.5 -46.5t-55.5 -51t-27.5 -53.5l-22 -172l354 -199q-10 14 -51 5q-27 -6 -88.5 -33t-126 -61.5t-114.5 -73.5t-54 -72zM727 504l174 -92l-94 -27q-14 20 -30.5 55t-49.5 64z" />
<glyph unicode="t" horiz-adv-x="1017" d="M274 213q-2 0 18.5 9t46.5 23.5t47.5 30t25.5 25.5l61 430q-55 15 -87 33q-27 15 -27 51q0 7 1 14q-2 8 3.5 19.5t5.5 13.5q111 86 193.5 161t154 151.5t139.5 160.5t148 191l100 -41l-57 -373q29 2 75 6q23 2 44.5 2t43.5 -2q43 -4 71 -20.5t22 -55.5 q-10 -86 -84 -125.5t-187 -46.5l-69 -473q14 2 52 15q39 14 75 22q24 5 44 5q10 0 20 -1q28 -4 24 -35q-4 -23 -36 -56.5t-81 -73.5t-109.5 -80.5t-117 -75.5t-104.5 -61.5t-73 -37.5q-39 18 -99 36t-118.5 39.5t-106 50t-59.5 69.5z" />
<glyph unicode="u" horiz-adv-x="1701" d="M266 178v6q0 7 2 13q0 2 3 8l3 6q4 4 16.5 10t27 13.5t26.5 13.5l16 8q14 10 32 24.5t20 16.5l73 534q-31 -6 -62.5 -16t-56 -13t-38 6t-9.5 42q4 25 14.5 40t29 29.5t44 32t62.5 45.5q20 12 66.5 47t96.5 75t95 74t64 46q10 2 23 5t24 5q23 4 43 4q46 1 79 -21 q48 -32 76.5 -84t38.5 -112q6 -37 6 -67q0 -18 -2 -33q-2 -35 -13 -119t-24 -188q-8 -49 -16 -98.5t-12 -90.5q-8 -41 -14.5 -72.5t-8.5 -48.5q-2 0 18.5 9.5t46 23t47 28.5t25.5 26l80 555q-8 6 -18 20t-20.5 31.5t-18.5 33t-10 21.5l4 16l2 17q119 59 222.5 131t189.5 158 q12 -6 40.5 -20.5t63.5 -33t74 -36t69 -29.5q41 -23 61.5 -32t29 -13t9.5 -6t3 -11v-20q-8 -41 -32 -69.5t-77 -74.5l-82 -552q-4 -18 7.5 -22.5t31 -3.5t42 5t42 3t31.5 -10t10 -34q-4 -23 -30.5 -53.5t-65.5 -64t-87 -67.5t-96.5 -63.5t-92.5 -49t-72 -26.5q-25 -5 -46 -5 q-28 -1 -52 9q-40 16 -74.5 38t-72.5 38q-21 9 -48 10q-21 0 -47 -6q-59 -12 -112.5 -45.5t-106 -71.5t-104.5 -72t-105 -44l-23 -4q-23 10 -80 31.5t-118.5 50t-114.5 65.5t-68 78z" />
<glyph unicode="v" horiz-adv-x="1458" d="M266 229q4 8 25.5 23.5t46 30t44.5 23.5l19 9l78 525q-35 27 -55.5 49t-31.5 47q-11 24 -12 54v13q0 26 3 60q14 98 75.5 165.5t151.5 114t201 75t221 50.5q-6 -33 -24.5 -64.5t-49.5 -57.5q-30 -24 -72 -40q-37 -14 -81 -14h-12l282 -168l387 238l45 8q2 0 33 -14.5 t68 -36t72.5 -45t52.5 -39.5q8 -10 20 -41t10 -45l-84 -586q-12 -72 -83.5 -126t-166 -98t-189.5 -82t-155 -79l-182 -125q-6 -6 -20.5 -13t-29.5 -15.5t-26.5 -13.5t-13.5 -5q-6 -1 -14 -1q-19 0 -53 6q-50 9 -111.5 28.5t-129 44.5t-121.5 50.5t-88 51t-30 43.5zM1001 461 l78 -43l86 592q-12 -2 -27.5 -7.5t-28.5 -12.5t-23.5 -16t-12.5 -18z" />
<glyph unicode="w" horiz-adv-x="1908" d="M286 142q6 16 17.5 29t29 25.5t46.5 28.5l80 541q-69 39 -91 89q-12 29 -13 69q0 30 7 67q41 299 394 367q18 4 49 11t55 7q29 0 46.5 -11t13.5 -42q0 -2 -2 -7l-3 -5l-184 -103q33 -10 71 -20t75.5 -24.5t71.5 -33t57 -45.5q86 80 162.5 138.5t177.5 79.5q35 6 58 6 q14 -1 24 -3q26 -6 44.5 -22t44 -38.5t85.5 -43.5l9 -1t11 -1q45 8 86 40t82 69t84 68.5t94 41.5q6 1 13 1q29 0 66 -20q46 -24 87 -63q42 -39 68 -82q22 -35 21 -63q0 -6 -1 -12l-82 -578q-6 -29 -56 -77t-125 -105.5t-163 -116.5t-169 -108.5t-142.5 -82t-81.5 -36.5 q-26 -5 -51 -5q-36 0 -68 11q-53 18 -106 42q-52 22 -107 40q-31 10 -66 10q-28 0 -59 -6q-8 -2 -20 -6l-13 -4l-280 -232q-8 -2 -23.5 -8t-23.5 -8q-2 -1 -5 -1q-17 1 -63 21q-52 24 -108 55t-97 64q-37 30 -37 48q-1 17 10 45zM932 297l80 41l84 586l-74 -11zM1540 485 q0 -29 29 -28q16 0 28.5 1t22.5 3l88 594q-12 -2 -27.5 -7.5t-29 -12.5t-23.5 -18t-12 -26z" />
<glyph unicode="x" horiz-adv-x="1302" d="M143 -12q16 123 96 223t216 201l59 411q6 45 -12.5 53.5t-50 2t-69.5 -18.5q-28 -9 -52 -9q-8 0 -15 1q-23 2 -35 23.5t-1 31.5l380 342l15 4q14 4 24 9q23 4 44 4q28 0 56 -8q48 -14 88 -38t71.5 -52.5t56.5 -49.5l286 256l6 2l15 6q8 2 16 2q34 0 64 -28q37 -34 63 -82 q24 -48 38 -100q11 -42 12 -68q0 -6 -1 -10q-6 -39 -31.5 -78t-63.5 -72t-84 -57.5t-91 -32.5q-29 -6 -53 -6q-38 0 -60 16q-36 26 -55 99l-43 -9l-65 -446q-2 -14 5 -20.5t19.5 -7.5t25.5 1t25 4q57 12 103.5 39t97.5 39l21 4q10 0 22 -10t14 -18l2 -7q3 -6 3 -8 q-2 -14 -36 -49t-87.5 -80t-117 -94t-122.5 -91t-106.5 -70.5t-69.5 -32.5q-31 -6 -58 -6q-8 1 -17 1q-34 2 -66.5 8.5t-67.5 9.5q-10 1 -20 1q-27 0 -58 -6q-92 -18 -132 -71.5t-46 -117.5q-3 -16 -3 -31q0 -38 24 -60q32 -30 86 -39q34 -6 72 -6q20 0 44 2q64 5 115 16 q6 0 27.5 5t46 11t47 11t28.5 7q6 45 21.5 91.5t44.5 84t73 66.5t109 41q37 7 65 7q93 0 94 -78q0 -14 -3 -29q-12 -78 -59.5 -135.5t-117 -97.5t-152.5 -66.5t-169 -42.5q-114 -23 -214 -23h-16q-108 2 -184.5 36t-114.5 104q-27 50 -27 122q0 30 5 64z" />
<glyph unicode="y" horiz-adv-x="1138" d="M236 211q6 47 20 91t29.5 87t30 89t22.5 95q5 35 5 67q0 24 -3 46q-6 53 -16.5 102.5t-17.5 99.5q-3 23 -3 49q0 29 4 60q18 125 98 220.5t242 128.5q28 5 47 5q17 0 28 -3q23 -9 44 -52q-14 -14 -39 -28.5t-47.5 -28.5t-39.5 -27.5t-17 -25.5v-19l188 -133l90 49 l227 152l8 2q9 2 19 4h16l121 -86q29 -10 41.5 -36.5t18.5 -49.5l-121 -852q-6 -45 -44 -100.5t-94.5 -112.5t-127 -112.5t-141 -100.5t-135 -75.5t-111.5 -41.5q-10 -2 -31 -6t-42.5 -6t-37.5 3.5t-16 21.5q82 68 137 115.5t92 93t56.5 95.5t29.5 124q4 4 4 20q0 18 2 37 q4 20 6 37.5t0 26.5q-16 -12 -55 -40t-83 -59t-84 -57.5t-54 -36.5l-8 -3q-9 -3 -11 -3q-14 -2 -28 -2q-27 0 -57 7q-46 11 -84 35.5t-62 58.5q-18 26 -18 57q0 9 2 18zM760 395q57 12 90 60l4 37q6 29 13 52t14 52l4 39l18 139q3 18 3 35q0 57 -32 98l-45 -43z" />
<glyph unicode="z" horiz-adv-x="1064" d="M212 36q-5 33 -5 69q0 38 6 79l4 39q4 35 13.5 71t13.5 44q0 6 23.5 38t51 66.5t51 66.5t23.5 38q2 2 -2 14t-10 26.5t-10 27t-2 16.5q2 2 0 13t-7 20q6 45 57.5 70.5t111 48t109.5 52t58 83.5l2 18q-8 14 -17 34.5t-17 18.5l-211 -41q-8 -2 -17.5 2t-15.5 12.5t-7 18.5 t7 20q2 6 19.5 20.5t41 33t47 36t35.5 27.5q16 12 60.5 43t95.5 63.5t97 63.5t67 43q4 0 17 4t22 6q33 6 59 6q33 0 55 -9q42 -17 63 -53t24 -85q1 -21 1 -42q0 -28 -2 -56q-4 -49 -13 -91t-13 -67q16 4 43.5 12.5t54.5 12.5q8 1 15 1q31 0 30 -28v-6v-10l-4 -6l-92 -78 l-5 -8q-5 -7 -10 -11q-2 -10 -2 -21q0 -30 12 -58q16 -40 36 -85t34 -99q7 -30 7 -64q0 -28 -5 -58q-12 -88 -59 -179t-125 -170t-187.5 -139.5t-246.5 -86.5q-71 -14 -127 -14q-42 -1 -75 7q-79 18 -124 64t-56 116zM553 37q-7 -47 19 -52q9 -2 20 -1q23 0 57 6q29 6 32 8 t-4 6t-16.5 15.5t-5.5 35.5l84 568q-35 -6 -59.5 -35t-39.5 -64t-23.5 -68.5t-10.5 -47.5z" />
<glyph unicode="{" horiz-adv-x="704" d="M82 43l123 850q6 45 45 100.5t95 112.5t126 112.5t139.5 100.5t133 75.5t110.5 41.5q10 2 30.5 6t42 6t38 -3.5t20.5 -21.5q-131 -45 -210 -148.5t-125 -247.5t-70.5 -321.5t-49.5 -367.5q-6 -41 2.5 -75t24.5 -58l55 -133l-80 -43l-227 -150l-9 -4t-15 -4q-4 -2 -11 -1 l-6 1l-123 86q-29 10 -41 38t-18 48zM612 72l11 6z" />
<glyph unicode="|" horiz-adv-x="923" d="M387 133q-6 -33 17.5 -81t61.5 -92t81 -72.5t76 -22.5q25 6 67.5 33.5t93 67.5t101.5 89t94 97.5t71.5 90.5t32.5 70q16 111 -131 68q0 27 2 95.5t6.5 147t9.5 149.5t11 101q8 68 35.5 110t57.5 74t55.5 61.5t29.5 70.5q2 6 0 16l-2 11q-41 72 -125 140t-194 128 q-137 -123 -223.5 -200t-135.5 -123t-67.5 -68.5t-20.5 -36.5q0 -6 1 -18.5l2 -25t3 -22.5l2 -10q2 -6 16.5 -11t33 -8.5t35 -4.5t22.5 -1z" />
<glyph unicode="}" horiz-adv-x="704" d="M244 4l10 -4zM254 0l68 -12l198 -68l8 -1q7 -1 15 1q2 2 11 5l9 3l154 140q33 23 54.5 57.5t37.5 58.5l123 850q6 45 -17.5 88t-66.5 81t-100.5 69t-118 50t-119.5 26.5t-107 -0.5q-10 -2 -31.5 -5.5t-43 -10.5t-40 -18.5t-22.5 -29.5q84 2 133.5 -32.5t74 -99.5 t25.5 -156t-9.5 -199.5t-31 -230.5t-40.5 -251q-12 -82 -70 -151z" />
<glyph unicode="~" horiz-adv-x="1472" d="M299 573q-6 -4 34 -13t102.5 -18.5t138 -18.5t144 -14t120 -4t63.5 11q59 45 116.5 84t92.5 70l195 -84l430 276q6 4 -33 13.5t-101.5 19.5t-138.5 19.5t-144.5 13.5t-119.5 3t-63 -11q-61 -47 -103.5 -93.5t-81.5 -81.5l-219 105z" />
<glyph unicode="&#xa1;" horiz-adv-x="905" d="M264 197q-6 -29 35 -62t99.5 -61.5t121 -45t97 -10t86 41t99.5 79.5t84 89t40 69l86 573q4 0 19.5 6.5t33.5 14.5t34.5 16t20.5 13q12 8 23.5 20t19.5 22.5t11.5 19.5t-3.5 11l-262 166q31 18 59.5 52t50 71t35 70.5t13.5 52.5q12 68 -44 102.5t-142 18.5 q-47 -8 -96.5 -34t-91.5 -60.5t-69.5 -73.5t-31.5 -74q-6 -35 6 -58.5t34.5 -42t51.5 -31.5t55 -26l-327 -280l-6 -8q-7 -7 -7 -13q-4 -29 14.5 -43t41 -28.5t40 -37t9.5 -71.5q-4 -20 -17.5 -70.5t-29 -106.5t-27.5 -106.5t-16 -70.5q-143 -16 -150 -94z" />
<glyph unicode="&#xa2;" horiz-adv-x="1218" d="M264 340l64 448q4 18 28.5 40t58.5 43.5t71.5 40t68.5 28.5q2 2 -3 26.5t1 37.5q0 12 12.5 29.5t43 53t85 96t140.5 158.5q70 -55 116.5 -113.5t75.5 -117.5q47 18 85 30.5t67 22.5q2 0 8 3t10 3q25 4 46.5 -5t38.5 -21.5t30.5 -22.5t21.5 -10q8 -6 30.5 -26.5t46.5 -44 t44.5 -43t24.5 -25.5l2 -3t2 -7q-4 -25 -56.5 -56t-120 -59.5t-134 -50t-97.5 -27.5q-66 -12 -103.5 11.5t-62.5 49.5l-4 -6l-4 -51q-8 -47 -17.5 -119.5t-9.5 -134.5q25 -6 58 -7t67.5 0t68.5 5t58 10q66 14 119 36t119 34q41 8 51 -3t8 -28q-2 -8 -2 -14q0 -4 -4 -8 q-8 -14 -26.5 -24.5t-59.5 -33.5q-23 -12 -70 -35.5t-105 -53t-120.5 -61.5t-115.5 -59q-27 -43 -64 -90t-74 -87t-70.5 -68.5t-54.5 -32.5q-18 -4 -42.5 17.5t-46 54t-37 71.5t-15.5 70q-49 8 -96 21.5t-83 30t-56.5 35.5t-16.5 42z" />
<glyph unicode="&#xa3;" horiz-adv-x="1024" d="M238 -6q2 31 15 61.5t29.5 61t35 61.5t32.5 62q10 20 16.5 40.5t10.5 41.5q4 35 -7.5 59.5t-24.5 48t-24.5 47t-5.5 55.5q4 35 22.5 57.5t76.5 51.5l65 434q-6 0 -17 10.5t-23.5 22.5t-23 24.5t-12.5 16.5q-2 8 17.5 34.5t40.5 37.5q31 25 90 67.5t119.5 82.5t106.5 69.5 t50 29.5l84 17l342 -203l-10 -67q-29 -6 -52.5 -5.5t-45 3t-42 4.5t-44.5 -2l-23 -5q-10 -4 -27.5 -20t-17.5 -18l-59 -402q2 -8 13 -16t22 -6q12 0 49 2t78 5t77.5 6t49.5 7q2 -10 -3.5 -39t-0.5 -39q-8 -47 -24.5 -75.5t-49.5 -48t-84 -34t-127 -32.5l-8 -62 q45 35 77.5 44.5t81.5 19.5q152 31 136 -78q-6 -53 -48.5 -102.5t-107.5 -96.5q57 -10 74.5 -38.5t9.5 -75.5q-129 -25 -224.5 -41.5t-175 -19.5t-156.5 8.5t-169 41.5q-66 -86 -184 -108z" />
<glyph unicode="&#xa4;" horiz-adv-x="2828" d="M276 352l105 400l94 32l-76 -381zM494 535q2 16 2 24v25q26 171 393 288l-27 -96q-14 2 -24.5 1t-26.5 -5q-41 -8 -69.5 -24.5t-71.5 -53.5q-41 -41 -66.5 -83t-30.5 -85q-16 -76 97 -53q18 4 39.5 10t56.5 19l-4 -66q-53 -25 -103 -35q-147 -31 -165 134zM872 535 q41 244 236 370l20 4l27 4q161 35 186 -88q-86 -276 -225 -305q-29 -4 -47 -9t-41 -9q-131 -29 -156 33zM981 653q-8 -94 63 -80q43 8 138 60q35 35 46 62.5t15 58.5q4 16 4 26q0 12 -14 15q-20 43 -82 32q-86 -18 -166 -147zM1370 563l43 379l254 -184l47 266l90 -4 l-53 -377q-121 -20 -283 131l-26 -186zM1841 670l113 401l88 31l-76 -379zM2046 735q53 203 256 418q23 10 36 14t29 9q86 14 111 -97l-37 -282l-55 6q-43 76 -102 63q-41 -8 -68 -34.5t-72 -75.5zM2216 930l164 33l-37 118zM2533 805l41 379l250 -187l58 269h81l-53 -379 q-115 -25 -274 125l-27 -183zM2974 864l67 49l72 -10l-88 -76zM3041 1014l60 293l114 2l-102 -291z" />
<glyph unicode="&#xa5;" horiz-adv-x="1458" d="M225 176q6 45 20.5 89t30 88t29.5 89t23 95q8 63 2 114t-16.5 100.5t-18.5 100.5t0 111q8 61 32.5 116.5t65.5 101.5t101.5 79.5t142.5 50.5q51 10 73.5 2t45.5 -51q-14 -14 -39 -28.5t-47.5 -29t-40 -28t-17.5 -25.5v-18l187 -136l94 52l227 151l6 2q7 2 15 4h18 l123 -86q31 -10 42 -37.5t17 -48.5l-30 -219l331 -18l6 -2q5 -2 3 -7q-39 -37 -97.5 -64.5t-156.5 -80.5q-20 -8 -115 -18l-22 -154l315 -16l6 -2q6 -2 4 -7q-37 -41 -100.5 -67.5t-155.5 -79.5q-10 -4 -30.5 -7t-67.5 -7l-12 -103q-6 -45 -44 -100t-95.5 -112.5t-126 -113 t-139.5 -100.5t-136.5 -75.5t-112.5 -40.5q-6 0 -27.5 -4.5t-43 -6.5t-38 2.5t-16.5 20.5q82 68 137.5 116t91.5 93t56 95t33 122v22t4 37q4 20 5 38t3 26q-16 -12 -57 -40t-86 -58.5t-84 -57.5t-51 -37l-10 -3q-9 -3 -11 -3q-39 -6 -85 5t-84 36t-60.5 58.5t-16.5 74.5z M750 360q59 12 90 60l4 35q6 29 13 53t11 53l6 51q-29 0 -49 -2t-43 -2zM791 651l98 41l6 47q6 41 -2 74t-25 59l-51 -43z" />
<glyph unicode="&#xa6;" horiz-adv-x="923" d="M387 133q-6 -33 17.5 -81t61.5 -92t81 -72.5t76 -22.5q25 6 67.5 33.5t93 67.5t101.5 89t94 97.5t71.5 90.5t32.5 70q16 111 -131 68q0 27 2 95.5t6.5 147t9.5 149.5t11 101q8 68 35.5 110t57.5 74t55.5 61.5t29.5 70.5q2 6 0 16l-2 11q-41 72 -125 140t-194 128 q-137 -123 -223.5 -200t-135.5 -123t-67.5 -68.5t-20.5 -36.5q0 -6 1 -18.5l2 -25t3 -22.5l2 -10q2 -6 16.5 -11t33 -8.5t35 -4.5t22.5 -1z" />
<glyph unicode="&#xa8;" horiz-adv-x="1314" d="M739 1497q4 31 23.5 59.5t47.5 55t61.5 52t68.5 50.5q154 14 218.5 -19.5t47.5 -138.5q-6 -33 -27.5 -64.5t-53 -58t-71.5 -46t-83 -27.5q-45 -10 -89 -3t-78 27.5t-52.5 49t-12.5 63.5zM1538 1653q4 31 23.5 60.5t47 57t61.5 53t65 50.5q158 14 219 -22.5t51 -137.5 q-6 -33 -27.5 -64.5t-54.5 -58t-72 -47t-82 -28.5q-45 -8 -89 0t-77.5 27.5t-52 48t-12.5 61.5z" />
<glyph unicode="&#xa9;" d="M225 186l2 21q6 23 21.5 40t56.5 25l96 678q0 6 42 22.5t108.5 40t146.5 51.5t156 54.5t138.5 49t92.5 36.5q8 4 46 23.5t84.5 42t86 45t50.5 33.5q70 -2 126 -31t97 -72t67.5 -95t38.5 -101l-8 -48q-4 -35 -8 -68.5t-8 -68.5l-6 -45q-14 -111 -27.5 -181.5t-33 -118.5 t-53.5 -80.5t-90 -66.5t-140 -76t-207 -110q-10 -6 -43 -30.5t-71 -52t-71.5 -52t-44.5 -28.5l-14 -3q-14 -4 -25 -6q-37 -8 -96 -5t-127.5 15.5t-138.5 31t-125 41t-88 46t-31 43.5zM688 446q-4 -25 20.5 -49t61.5 -42.5t77 -28t68 -2.5q8 2 15 5l6 3q14 8 52 32.5t81 52 t82 52.5t57 35q16 12 26.5 18t16.5 11.5t8.5 10.5t4.5 15q0 14 -6.5 20.5t-26.5 2.5q-33 -6 -58.5 -19.5t-56.5 -19.5q-10 -2 -20.5 -3t-22.5 -1q-37 0 -70.5 7t-29.5 32l33 217q6 -6 14 -19.5t18.5 -27t24.5 -22.5t35 -5q14 2 47 15.5t66.5 31.5t60 38.5t31.5 37.5q2 4 1 6 l-1 2l-66 106q-6 0 -12 8.5t-15.5 17.5t-19.5 16.5t-23 5.5l-10 -2q-18 -10 -61 -30t-91.5 -40.5t-92.5 -38.5t-62 -27q-14 -8 -33.5 -19t-37 -23.5t-30 -26t-14.5 -27.5z" />
<glyph unicode="&#xaa;" horiz-adv-x="739" d="M541 1047l12 81l2 21l10 65l2 19q10 43 45 76.5t81 61.5t96.5 51.5t93.5 47.5q14 8 23 15.5t17.5 11.5t16.5 8t23 6q39 8 67.5 -12t63.5 -33q12 -4 32.5 -6t40 -5t31.5 -11t10 -25q-2 -18 -23.5 -27.5t-37.5 -25.5q-6 -16 -12.5 -31.5t-6.5 -25.5l-8 -56l-4 -41l-2 -16 l-8 -43v-8q0 -4 -1 -13.5t1 -19.5t5 -17.5t13.5 -5t18.5 8.5t14 8q10 2 17.5 -10.5t11.5 -20.5q-6 -16 -10 -16t-21 -17q-10 -8 -33.5 -25.5t-48 -38t-46 -37.5t-30.5 -26l-16 -4q-25 -4 -46.5 8.5t-37.5 29t-28.5 29.5t-20.5 11q-16 -4 -39 -24.5t-47.5 -44t-49 -45 t-46.5 -25.5q-31 -6 -60 16q-53 31 -64.5 74t-0.5 107zM799 1030l4 -4h6l4 2q8 6 22.5 20.5t14.5 20.5l39 248l-10 6q-8 4 -15.5 11t-13.5 5h-2h-6l-8 -26l-3 -10l-4 -46l-6 -18l-12 -104l-8 -54q0 -12 -1 -23.5t-1 -27.5z" />
<glyph unicode="&#xab;" horiz-adv-x="1216" d="M299 580l387 575q6 4 25.5 -11.5t46 -44t53.5 -63.5t47.5 -68.5t28.5 -59t-4 -36.5q-27 -23 -80 -65.5t-109.5 -87.5t-104.5 -83t-65 -50l316 -127l-316 -344q-8 -6 -29.5 23.5t-49 77.5t-56.5 107.5t-51.5 112.5t-34.5 93t-4 51zM889 707l389 575q6 4 25.5 -11.5t46 -44 t53.5 -64.5t47 -68.5t27.5 -59t-4.5 -37.5q-27 -23 -79.5 -65.5t-108.5 -86.5t-104 -83t-67 -51l313 -127l-311 -342q-8 -6 -29.5 23.5t-49 76.5t-57.5 106.5t-52.5 112.5t-34.5 94t-4 52z" />
<glyph unicode="&#xac;" horiz-adv-x="1349" d="M244 580l647 319l639 -68l7 -5t3 -7q-31 -33 -61.5 -57.5t-75.5 -50.5q18 -12 36.5 -27.5t55.5 -32.5q8 -4 -9.5 -37.5t-48 -81t-70.5 -102.5t-77 -100t-63.5 -75t-34.5 -28l-227 195l149 151q-57 -8 -145 -12t-187 -4q-98 0 -196.5 2t-176 5t-123.5 7t-42 9z" />
<glyph unicode="&#xad;" horiz-adv-x="786" d="M322 641q-6 -6 45 -20.5t123.5 -28.5t150.5 -24.5t127 -10.5q43 0 51 8q35 33 65.5 56.5t56.5 45t46.5 44t34.5 51.5q4 4 -1 9l-5 5l-328 123z" />
<glyph unicode="&#xae;" d="M225 186l2 21q6 23 21.5 40t56.5 25l96 678q0 6 42 22.5t108.5 40t146.5 51.5t156 54.5t138.5 49t92.5 36.5q8 4 46 23.5t84.5 42t86 45t50.5 33.5q70 -2 126 -31t97 -72t67.5 -95t38.5 -101l-8 -48q-4 -35 -8 -68.5t-8 -68.5l-6 -45q-14 -111 -27.5 -181.5t-33 -118.5 t-53.5 -80.5t-90 -66.5t-140 -76t-207 -110q-10 -6 -43 -30.5t-71 -52t-71.5 -52t-44.5 -28.5l-14 -3q-14 -4 -25 -6q-37 -8 -96 -5t-127.5 15.5t-138.5 31t-125 41t-88 46t-31 43.5zM637 428q-8 -8 8.5 -18.5t46 -21.5t67.5 -21.5t71.5 -18.5t59 -13t32.5 -3q6 0 15 3t19 5 q72 49 139.5 103.5t135.5 113.5l6 6q0 4 1 6t1 6q4 29 -31 23q-20 -4 -33.5 -11t-25.5 -16.5t-25.5 -16.5t-33.5 -11l-37 -8q-29 -6 -29 12l35 231l20 21l76 -76l21 -10l1 -2q1 -2 5 0q4 0 7 3l3 3q10 2 28.5 14t38 28.5t35 32t19.5 21.5q0 2 4 20.5t6 34.5q8 59 -7.5 96 t-78.5 60l-162 -139l-22 -4q-23 18 -36 30.5t-27.5 20.5t-34 14t-56.5 12q-10 -6 -32.5 -23t-48 -36.5t-48 -37t-33.5 -23.5q-45 -31 -57 -42.5t-16 -33.5q-4 -18 12 -22.5t33 -4.5q23 0 37 -1t14 -13l-29 -215z" />
<glyph unicode="&#xaf;" horiz-adv-x="1370" d="M680 1546l793 250l823 64l9 -1t-1 -6q-29 -18 -69 -35.5t-92 -36t-118.5 -41t-148.5 -52.5q-16 -6 -77.5 -16.5t-150.5 -23t-199 -25.5t-219.5 -25.5t-213 -23.5t-181 -18.5t-120.5 -10.5t-35 1z" />
<glyph unicode="&#xb0;" horiz-adv-x="768" d="M535 975q-4 -14 33.5 -31.5t89 -31t103.5 -20.5t79 -1q6 0 12 2l6 2q2 0 19.5 12.5t38 27.5t38 28.5t21.5 15.5q88 49 137 73.5t74.5 50t37 66.5t25.5 123l4 25q4 16 4 33q0 18 3 34l2 25q-8 23 -20.5 49.5t-31 49t-46 37t-64.5 11.5q-6 -2 -26.5 -12t-43 -23.5 t-43 -23.5t-24.5 -12q-23 -10 -78.5 -29.5t-112.5 -39t-101 -36t-46 -20.5l-47 -338q-41 -6 -41 -35zM885 1096l41 276q16 -2 26.5 -14t10.5 -23l-37 -252q-12 -2 -24.5 0t-16.5 13z" />
<glyph unicode="&#xb1;" horiz-adv-x="1007" d="M233 125q-8 -4 37 -5t117 0t159 4t164.5 7t135 9t69.5 12q96 53 157 79.5t95 67.5q8 4 4 6l-4 2l-471 23zM295 676q-4 -4 26.5 -6t83 -3t121 0t140.5 5l112 -258q0 -6 12.5 16.5t31 62t40 91t43.5 104.5q29 4 46.5 8t21.5 6q49 25 88 43.5t70.5 34t55 31.5t42.5 37 q0 2 -4 5l-4 3l-244 12q20 57 16 80q-35 55 -53 95t-59 51q0 4 -7 -2l-6 -5l-116 -206z" />
<glyph unicode="&#xb2;" horiz-adv-x="634" d="M530 926q-4 -14 5.5 -24.5t22.5 -17.5t29.5 -11.5t28.5 -6.5h52q39 0 81 2t78 2h54l14 2q10 2 22.5 13.5t23.5 26t19.5 25.5t12.5 15q2 6 17.5 25.5t32.5 42t31.5 42t14.5 25.5l4 7q4 18 -17.5 29.5t-51 17.5t-58 7t-41.5 -1q-4 -2 -13 -6t-13 -8l221 178l8 84 q2 14 -5 24.5t-20.5 16.5t-30 10t-30.5 6q-16 0 -54 4t-80 8t-80 8.5t-52 4.5h-11q-12 -4 -26 -16.5t-25.5 -27t-18.5 -24.5t-9 -10q-8 -8 -22.5 -28.5t-30 -43t-29 -42t-19.5 -23.5v-9q-4 -18 17.5 -29.5t50.5 -17.5t57.5 -7t40.5 1q20 4 37.5 18.5t32 33t26 36t21.5 27.5 l22 -25l-335 -237zM721 1004l129 104q-20 -20 -35.5 -57t-26.5 -50z" />
<glyph unicode="&#xb3;" horiz-adv-x="663" d="M524 967q0 12 7.5 22t29.5 15q33 6 54.5 3t60.5 3q27 6 73 25.5t72 45.5h-80q-31 0 -62.5 1t-56 3t-39 4.5t-10.5 4.5l209 118l66 -10l16 119q-8 -10 -14 -20.5t-15.5 -21.5t-23.5 -19.5t-39 -12.5q-8 -2 -18.5 -3t-26.5 -1q-20 0 -42.5 1t-42 6t-32 13.5t-8.5 22.5l2 8 q6 6 14.5 20.5t17.5 31t18.5 31t15.5 24.5q2 0 11 11t21.5 24.5t25.5 26t28 14.5l6 2q18 0 60 -2t88 -5.5t86 -6.5t57 -5q14 -2 30.5 -6t31.5 -10t24.5 -16.5t7.5 -24.5l-49 -324q-4 -25 -37 -60.5t-76 -69.5t-89 -59.5t-75 -31.5q-10 -2 -15 -1t-7 1q-14 0 -49 10.5 t-74 22.5t-72 23.5t-43 15.5q-29 10 -34 14t-3 23z" />
<glyph unicode="&#xb4;" horiz-adv-x="616" d="M788 1566l5 7l235 332l303 -90q4 0 -19.5 -28t-64.5 -69t-90 -89t-94 -87t-78 -62.5t-41 -17.5q-57 25 -100 40.5t-53 58.5q-8 -2 -3 5z" />
<glyph unicode="&#xb5;" horiz-adv-x="1138" d="M164 10l123 852q14 25 35.5 58.5t56.5 56.5l153 141l6 2q7 2 9 2q10 2 18 3l8 1l197 -67l80 -19l240 220l2 8q2 8 4 10q0 12 -14.5 19.5t-34 12.5t-40 11t-30.5 16q33 53 60.5 71.5t76.5 29.5q82 14 136.5 3t85 -44t38.5 -82t0 -111q-10 -59 -33.5 -115.5t-49 -112.5 t-48 -113.5t-31.5 -119.5q-8 -49 -6 -92t6.5 -83t7.5 -81t-3 -86q-6 -37 -42 -83t-85.5 -89t-101.5 -73.5t-89 -36.5q-4 0 -11 -1l-7 -1q-12 4 -45 16t-70 27.5t-70.5 29t-48.5 19.5q0 -6 -5 -24.5t-9 -39t-7 -38t-3 -21.5q-12 -74 -5 -119t31.5 -77.5t69 -61.5t110.5 -68 q-6 -18 -24.5 -29.5t-41 -18.5t-43 -10t-30.5 -5q-47 -10 -105.5 -3t-118.5 27.5t-117.5 51t-99.5 68.5t-66.5 81t-18.5 88zM637 414q14 -37 74 -29l69 469l-35 29q-14 -16 -24 -35t-21 -39q-18 -37 -24 -78l-19 -141l-8 -37q-4 -29 -5 -52.5t-5 -51.5z" />
<glyph unicode="&#xb6;" horiz-adv-x="3483" d="M246 403l260 84l-123 103l41 115l281 32q20 135 53 203q31 66 86 76l16 4l250 -21q106 111 182 176.5t135 94.5l201 -66l449 250l82 -43l-29 -55l18 -15l486 162l164 21l-39 -117l569 111l43 -27q-12 -90 -111 -127l459 -2l1 -3t-1 -9l-2 -11q-12 -88 -182 -137 q299 -31 293 -80q0 -2 -4 -3t-4 -3l-58 -86l-211 -41l123 -117q4 -6 0 -22v-14q-12 -63 -90 -93l-225 -6l-60 -225q-37 -47 -96 -59q-90 -14 -235 28l-256 -243l-129 -48l-125 86l-478 -272l-73 4l16 111l-592 -187l-69 23l30 94l-606 -80l10 70l76 74l-364 -19 q-72 -12 -66 58l162 120l-250 41zM305 375l383 -84l-274 -144l557 17l-213 -146l665 113l-84 -139l594 203l66 -62l-35 -78l502 279l198 -72l265 268l301 -12l59 258l303 25l10 20q2 25 -36.5 71t-124.5 112l307 79l-17 31l-362 76l248 100l28 4l-26 31l-529 -12l201 143 l-637 -125l70 139l-633 -192l-2 108l-47 3l-451 -244l-170 74l-291 -269q-35 -16 -57 -18q-96 -18 -221 33l-84 -265l-307 -41l14 -71l143 -133zM801 303l92 342l78 27l-66 -322zM985 457q2 16 2 24v21q21 148 334 246l-16 -82q-16 4 -24.5 3t-27.5 -5q-51 -12 -114 -66 q-80 -82 -86 -145q-12 -61 86 -43q12 4 31.5 8t48.5 12l-7 -55q-27 -10 -44 -17.5t-40 -11.5q-125 -25 -143 111zM1311 459q31 201 196 315l21 4v2l22 4q138 27 154 -75q-63 -236 -195 -260q-16 -4 -31.5 -9.5t-31.5 -9.5q-117 -23 -135 29zM1405 559q-12 -76 53 -63 q23 4 51.5 15t61.5 34q23 27 36 52t19 50v21q0 12 -10 16q-27 35 -72 27q-63 -14 -137 -127zM1731 485l41 324l213 -160l40 228l74 -5l-47 -319q-102 -23 -229 111l-23 -156zM2132 575l94 340l78 29l-70 -326zM2308 631q41 168 215 354q23 10 31 13t24 8q78 14 95 -82 l-31 -242l-49 4q-27 68 -84 55q-51 -8 -115 -94zM2451 799l142 26l-35 99zM2716 690l43 326l215 -160l45 227l67 -2l-45 -323q-102 -18 -231 110l-25 -157zM3097 739l59 43l61 -8l-79 -63zM3152 866l53 252l96 2l-82 -248z" />
<glyph unicode="&#xb7;" horiz-adv-x="581" d="M297 602q4 31 23.5 59.5t48 55t62.5 52t65 50.5q154 14 217 -19.5t49 -137.5q-6 -33 -26.5 -65t-52.5 -58.5t-73 -46t-84 -27.5q-45 -10 -89 -3t-77.5 27.5t-51 49t-11.5 63.5z" />
<glyph unicode="&#xb8;" horiz-adv-x="413" d="M-104 -301q16 -59 82.5 -77.5t175.5 -2.5l122 45q31 31 53.5 52.5t36 41t21.5 39t12 47.5q8 70 -31.5 107t-108.5 51t-156 9t-173 -21q-4 -18 15.5 -38t52.5 -38t72 -35.5t73 -32.5q-29 -18 -66.5 -31.5t-74.5 -28.5t-65.5 -35.5t-40.5 -51.5z" />
<glyph unicode="&#xb9;" horiz-adv-x="493" d="M580.5 1317.5q-5.5 -19.5 7.5 -19.5q6 -4 23.5 -8t25.5 -2l-45 -321q-2 -14 9 -34t29.5 -36t40 -26.5t38.5 -6.5q18 4 54 26.5t70.5 52.5t62.5 59.5t30 46.5q6 45 -64 24q-4 8 -3 35t3 58.5t5 60t5 39.5q4 27 16.5 44t26 30.5t24.5 25.5t15 29q0 2 -1 5l-1 3 q-45 57 -159 100q-49 -41 -84 -68.5t-58.5 -46t-37 -29.5t-21.5 -18q-6 -4 -11.5 -23.5z" />
<glyph unicode="&#xba;" horiz-adv-x="768" d="M535 975q-4 -14 33.5 -31.5t89 -31t103.5 -20.5t79 -1q6 0 12 2l6 2q2 0 19.5 12.5t38 27.5t38 28.5t21.5 15.5q88 49 137 73.5t74.5 50t37 66.5t25.5 123l4 25q4 16 4 33q0 18 3 34l2 25q-8 23 -20.5 49.5t-31 49t-46 37t-64.5 11.5q-6 -2 -26.5 -12t-43 -23.5 t-43 -23.5t-24.5 -12q-23 -10 -78.5 -29.5t-112.5 -39t-101 -36t-46 -20.5l-47 -338q-41 -6 -41 -35zM885 1096l41 276q16 -2 26.5 -14t10.5 -23l-37 -252q-12 -2 -24.5 0t-16.5 13z" />
<glyph unicode="&#xbb;" horiz-adv-x="1216" d="M264 358l232 -237q6 -4 37.5 35t74.5 101t91.5 137t88 140.5t64.5 112.5t20 55l-243 453q-6 2 -32 -22.5t-60.5 -64.5t-73.5 -88t-70 -91t-47 -74t-6 -37q18 -14 61 -38.5t90.5 -49t88.5 -45t57 -27.5zM850 461l233 -238q8 -2 39 37t74 100.5t90 135t86 139t63.5 113 t22.5 57.5l-239 455q-4 2 -31 -24t-61.5 -66t-73.5 -88t-70 -91t-47 -73.5t-6 -36.5q18 -14 60 -39t88 -49.5t87 -45t58 -26.5z" />
<glyph unicode="&#xbc;" horiz-adv-x="1554" d="M397 1193q4 19 11 24q8 6 21 17t36.5 29.5t58.5 46t84 68.5q117 -43 162 -100v-8q-4 -16 -15.5 -28.5t-25.5 -27t-25.5 -32t-13.5 -41.5q-2 -10 -5 -39t-6 -60.5t-3 -58.5t4 -35q68 18 61 -24q-2 -16 -28.5 -46t-62.5 -60t-70.5 -52.5t-53 -26.5t-41 6.5t-40 26.5 t-28.5 36t-9 34l45 321q-8 -2 -25.5 2t-24.5 9q-10 0 -6 19zM442 94q2 45 23 74l487 754q-6 -2 -18 0t-23.5 6t-20.5 9t-9 9q-4 2 -2 11.5t7 21.5t11 22.5t12 16.5q10 12 36 31.5t87.5 60.5t170 112.5t284.5 188.5q147 -106 143 -246v-8q-2 -6 -8 1t-10 1q-23 -39 -66 -68.5 t-93 -63.5t-102.5 -76t-90.5 -103q-10 -18 -38 -61.5t-64 -98.5t-76 -117.5t-74.5 -118t-60 -98.5t-34.5 -59q78 29 96.5 11.5t-16.5 -70.5q-25 -37 -84 -88.5t-128.5 -99.5t-135 -84t-104.5 -42q-29 -6 -52.5 20.5t-36 66.5t-10.5 85zM1186 332l33 241q0 4 12 21.5t29.5 36 t37 34t33.5 17.5q10 2 35 -2t50.5 -10t45 -11.5t21.5 -5.5q27 35 58.5 52.5t80.5 39.5l150 -20q12 -2 2.5 -16.5t-24.5 -35t-31.5 -45t-20.5 -48.5q-6 -25 6 -43.5t27.5 -34t29 -31.5t8.5 -41l-4 -16q-2 -31 -36 -37q-20 -4 -27.5 3t-28.5 3q-4 0 -9 -2t-11 -4 q-6 -18 -15.5 -57t-26 -81t-42 -76t-62.5 -40q-25 -6 -24 2q0 8 -1 16.5t-7 16.5q-2 2 -5.5 17t-7.5 34.5t-8 37t-6 21.5q-2 2 -21.5 6.5t-49 9.5t-63.5 11t-62.5 13t-48 12.5t-17.5 11.5zM1411 414l43 39l19 131l-19 10l-22 -19z" />
<glyph unicode="&#xbd;" horiz-adv-x="1576" d="M397 1200q2 -6 2 -18q0 -10 4 -11q4 -4 23 -8t27 -2l-45 -323q-2 -14 9 -33t29.5 -35t40 -26.5t37.5 -6.5q18 4 54 26.5t71 52.5t62.5 59.5t29.5 46.5q6 43 -63 24q-4 8 -3 35t3 58.5t5 59t5 38.5q2 27 14.5 44t26.5 30.5t26.5 25.5t16.5 31q-2 2 -3 5l-1 3 q-47 59 -160 100q-66 -53 -106.5 -84.5t-64 -50t-32 -27t-8.5 -14.5zM443.5 92q-1.5 -45 11 -85t36 -67.5t52.5 -21.5q39 8 104.5 44t133 84t127 99.5t85.5 87.5q33 53 15.5 71t-95.5 -11q8 16 34 59t60.5 98.5t74.5 118t75 117.5t62.5 98t37.5 60q39 61 90.5 104t102.5 76 t94 63.5t68 67.5q4 6 10 0t6 0l2 8q0 131 -143 246q-176 -117 -284.5 -188.5t-171 -113.5t-89.5 -61.5t-37 -31.5q-4 -4 -10 -14.5t-10 -21.5t-6 -21.5t2 -12.5q6 -8 28.5 -18t40.5 -6l-485 -754q-20 -29 -21.5 -74zM1237 199q-4 -29 28.5 -42.5t59.5 -17.5h51q39 0 82 2 t80 2h53l8 2q10 2 23.5 13.5t25 25t20.5 24.5t13 15q2 6 17.5 26.5t32 43t31 42t14.5 25.5l4 4q4 3 2 5q2 16 -18.5 27.5t-50.5 16.5t-57.5 6t-39.5 -1q-18 -2 -29 -10l217 174l17 88q2 14 -6.5 23t-21.5 15.5t-30.5 10.5t-33.5 6q-16 0 -53.5 4t-80.5 8t-81.5 8.5 t-55.5 4.5l-1 1q-1 1 -9 -1q-12 -2 -23.5 -14.5t-21.5 -27t-17.5 -25.5t-11.5 -11q-6 -6 -20.5 -26.5t-29.5 -44t-29.5 -43t-20.5 -23.5l-2 -11q-2 -16 19.5 -26.5t50 -16.5t57 -8t43.5 2q18 4 35.5 18.5t31 33t25.5 36t22 27.5l23 -25l-336 -239zM1432 276l124 105 q-10 -10 -17 -25.5t-15 -31.5l-17 -31l-8 -17h-67z" />
<glyph unicode="&#xbe;" horiz-adv-x="1658" d="M348 854q0 12 6 22.5t29 14.5q33 6 54.5 2t62.5 4q12 2 31.5 8t40 15.5t40 21.5t31.5 25q-35 0 -79 1t-84 3t-64.5 4t-18.5 6l211 117l62 -11l16 119q-8 -10 -14 -20t-15.5 -20.5t-24 -18.5t-38.5 -14q-14 -2 -44 -3.5t-58.5 3t-50 13.5t-17.5 28v6q14 16 33.5 54 t34.5 54q2 0 11 11.5t21.5 25.5t26.5 26.5t27 14.5l8 2q18 0 59 -3t86 -6t85 -7t56 -6q14 -2 33 -5.5t34 -9.5t24.5 -15t7.5 -24l-49 -327q-4 -25 -37 -60t-77 -68.5t-89 -59t-74 -32.5q-8 -2 -18 -2h-9q-14 2 -46.5 12.5t-70.5 23t-71 23.5t-47 15q-27 10 -33 13.5t-2 23.5 zM552 105.5q1 44.5 19 72.5l492 754q-16 -2 -42 7t-36 17q2 2 7 20.5t14 35.5l8 16q6 12 32.5 31.5t90 61.5t173 114t285.5 186q145 -109 144 -245v-9q0 -4 -6.5 2.5t-10.5 -0.5q-27 -39 -69.5 -68.5t-92 -63t-100.5 -75.5t-90 -104q-12 -16 -39.5 -59t-63.5 -99.5t-76 -118 t-76 -117.5t-62.5 -99t-34.5 -60q84 29 100.5 11.5t-18.5 -70.5q-25 -37 -84.5 -88.5t-129 -99.5t-135 -83.5t-104.5 -42.5q-29 -6 -50.5 22t-33.5 67.5t-11 84zM1292 342l37 244q2 4 13.5 20.5t29 34.5t34.5 33.5t32 17.5q12 2 37.5 -2t51 -10t45 -11t19.5 -3 q29 33 60.5 50t81.5 40l145 -21q10 -2 2 -15t-23.5 -33.5t-31 -45.5t-19.5 -49q-4 -27 8.5 -44.5t28 -32.5t27.5 -31.5t8 -41.5l-4 -18q0 -31 -39 -37q-18 -4 -24.5 3t-28.5 3q-2 0 -10.5 -2t-10.5 -2q-6 -18 -16 -58t-26.5 -82t-41 -76t-61.5 -40q-25 -6 -25 4q4 12 -6 33 q-2 0 -7 15.5t-9 35t-8.5 36.5t-4.5 22q0 4 -41.5 11t-91 16t-90.5 18.5t-41 17.5zM1513 424l52 39l14 131l-14 10l-27 -18z" />
<glyph unicode="&#xbf;" horiz-adv-x="1136" d="M268 231l29 172l254 211q18 14 54 39t77 52.5t85 55t79 49t56.5 36t17.5 14.5l290 221l207 -163l-446 -322q20 18 55 25q29 6 86 3t114.5 -15.5t98.5 -35t37 -55.5q2 -2 -2 -12l-6 -8q-12 -10 -41 -48t-59.5 -83t-57.5 -85t-37 -55q-6 -4 -22.5 -27.5t-38 -51t-46 -51 t-46.5 -27.5q-8 -2 -12.5 0t-12.5 0q-31 6 -106.5 13t-159.5 13t-160 12.5t-106.5 10.5t-63.5 11t-59.5 20.5t-44 33t-13.5 47.5zM752 440l45 -51q10 16 26.5 41t37 52.5t44 54t47.5 47.5zM1006 1354q4 31 25.5 62.5t53 58t72.5 47t84 28.5q45 8 89 0t77 -27.5t51.5 -48 t16.5 -61.5q-4 -31 -23.5 -59.5t-48.5 -56t-63.5 -53t-67.5 -48.5q-156 -16 -218.5 18.5t-47.5 139.5z" />
<glyph unicode="&#xc0;" horiz-adv-x="1372" d="M356 293q1 54 11 113l22 159l8 41q2 35 9.5 65.5t11.5 65.5l4 39q25 88 93.5 154.5t158.5 121t189.5 101.5t185.5 96q51 29 81.5 51.5t81.5 32.5q41 8 73 -1t60.5 -25.5t58.5 -35t69 -28.5q23 -10 63.5 -13t79.5 -9.5t66.5 -21.5t21.5 -48q-2 -20 -16.5 -34.5t-34 -26 t-41 -22.5t-35.5 -26q-29 -68 -36 -116.5t-15 -112.5l-10 -78l-7 -33l-12 -86l-4 -16v-25q0 -18 3 -38.5t12.5 -35t29.5 -9.5q23 4 35 14t37 14q2 0 11 -6t17.5 -15.5t14.5 -19.5t4 -18q-4 -10 -4 -21q-8 -12 -20.5 -17t-41.5 -28q-18 -18 -62 -54t-93.5 -75t-93.5 -73.5 t-62 -51.5l-33 -6q-51 -10 -94 13.5t-77 55.5t-57.5 59.5t-37.5 25.5q-31 -6 -75 -47t-95 -89.5t-102.5 -90.5t-94.5 -50q-41 -8 -66.5 3.5t-47.5 25.5q-53 31 -85 70t-45.5 85t-13.5 97zM883 373q0 -8 16 -13l6 2l8 3q6 6 19.5 17t27 23.5t23.5 24.5t10 19l72 495l-8 4 t-21 8q-14 8 -24.5 21.5t-24.5 15.5l-6 -2h-6l-23 -57l-2 -16l-16 -95l-4 -37l-29 -208q-8 -47 -14 -97.5t-4 -107.5zM895 1679l344 217l152 -258l5 -4q5 -4 -5 -6q-12 -27 -32 -46t-43.5 -37.5t-53 -38t-64.5 -44.5q-10 -10 -37.5 1.5t-63.5 34t-75 53t-68.5 57t-47 47 t-11.5 24.5z" />
<glyph unicode="&#xc1;" horiz-adv-x="1372" d="M356 293q0 53 11 113l22 159l8 41q2 35 9.5 65.5t11.5 65.5l4 39q25 88 93.5 154.5t158.5 121t189.5 101.5t185.5 96q51 29 81.5 51.5t81.5 32.5q41 8 73 -1t60.5 -25.5t58.5 -35t69 -28.5q23 -10 63.5 -13t79.5 -9.5t66.5 -21.5t21.5 -48q-2 -20 -16.5 -34.5t-34 -26 t-41 -22.5t-35.5 -26q-29 -68 -36 -116.5t-15 -112.5l-10 -78l-7 -33l-12 -86l-4 -16v-25q0 -18 3 -38.5t12.5 -35t29.5 -9.5q23 4 35 14t37 14q2 0 11 -6t17.5 -15.5t14.5 -19.5t4 -18q-4 -10 -4 -21q-8 -12 -20.5 -17t-41.5 -28q-18 -18 -62 -54t-93.5 -75t-93.5 -73.5 t-62 -51.5l-33 -6q-51 -10 -94 13.5t-77 55.5t-57.5 59.5t-37.5 25.5q-31 -6 -75 -47t-95 -89.5t-102.5 -90.5t-94.5 -50q-41 -8 -66.5 3.5t-47.5 25.5q-53 31 -85 70t-45.5 85t-13.5 97zM883 373q0 -8 16 -13l6 2l8 3q6 6 19.5 17t27 23.5t23.5 24.5t10 19l72 495l-8 4 t-21 8q-14 8 -24.5 21.5t-24.5 15.5l-6 -2h-6l-23 -57l-2 -16l-16 -95l-4 -37l-29 -208q-8 -47 -14 -97.5t-4 -107.5zM958.5 1543q-2.5 1 2.5 5l4 8l235 332l305 -90q2 -2 -23.5 -30.5t-64.5 -70.5t-87 -88t-92 -85t-77 -61.5t-43 -16.5q-31 14 -56.5 22.5t-46 17.5 t-34.5 22.5t-18 35.5q-2 -2 -4.5 -1z" />
<glyph unicode="&#xc2;" horiz-adv-x="1372" d="M336 293q0 53 10 113l23 161l8 39q2 35 9 65.5t11 65.5l4 39q25 88 93.5 154.5t158.5 121t190.5 101.5t188.5 98q49 29 80 51.5t80 32.5q41 8 71.5 -2t60.5 -26.5t59.5 -35t68.5 -28.5q23 -8 63.5 -11t79.5 -10.5t67 -22.5t21 -48q-2 -20 -16 -33.5t-32.5 -25t-40 -22.5 t-35.5 -26q-27 -70 -35 -117.5t-17 -111.5l-12 -80l-6 -33l-12 -86l-2 -16q-2 -6 -3.5 -24.5t3 -39t14.5 -35t29 -9.5q23 4 35 14t36 14q4 2 12.5 -4t16.5 -15t14 -20.5t4 -19.5q-2 -12 -5 -19.5t-10 -12.5t-19.5 -12t-30.5 -20q-18 -18 -62.5 -54t-93.5 -75t-93 -73.5 t-62 -53.5l-33 -6q-51 -10 -93 13.5t-76 55.5t-58.5 59.5t-38.5 25.5q-31 -6 -75 -47t-94.5 -89.5t-102.5 -90.5t-95 -50q-41 -8 -66.5 3.5t-48.5 25.5q-53 31 -85 70t-45 85t-13 97zM461 1409l704 358q12 6 67.5 4t130.5 -10t158 -19t151.5 -22.5t110.5 -21.5t38 -15 l-410 -272l-219 199q-14 -14 -57 -53t-94.5 -85.5t-100.5 -89.5t-76 -65q-12 -10 -47 -8t-82 10t-98 21.5t-92 26.5t-65.5 24.5t-18.5 17.5zM862 375q0 -12 17 -13h6l8 3q6 6 19.5 17t26.5 23.5t23.5 24.5t10.5 19l71 495l-8 4t-18 10q-12 8 -25.5 20.5t-19.5 16.5l-12 -2 l-7 -2l-22 -57l-2 -16l-15 -93l-6 -39l-28 -208q-17 -97 -19 -203z" />
<glyph unicode="&#xc3;" horiz-adv-x="1372" d="M340 291q0 53 10 112l23 160l4 41q4 35 11 65.5t11 65.5l4 39q29 88 97.5 154.5t158 121t187.5 101.5t188 98q49 29 80 50.5t84 31.5q39 8 69.5 -1t59.5 -25.5t58.5 -35t68.5 -28.5q23 -10 64 -13t79.5 -9.5t65.5 -21.5t20 -48q-2 -23 -15 -36t-32.5 -24.5t-41 -22.5 t-35.5 -26q-25 -68 -34 -117t-18 -112l-12 -78l-6 -33l-10 -86l-2 -16q0 -6 -2 -25.5t1 -39t13 -34t31 -10.5q23 4 35 14.5t34 14.5q4 0 13.5 -6t17.5 -15.5t13 -19.5t5 -18q-2 -6 -2 -13q0 -4 -4 -8q-4 -10 -16 -16t-41 -29q-20 -18 -65.5 -54t-94.5 -75t-92 -73.5 t-61 -51.5l-33 -6q-51 -10 -93 13.5t-76 55t-58.5 59.5t-38.5 26q-31 -6 -75 -47t-95.5 -89.5t-102.5 -90.5t-94 -50q-41 -8 -65.5 3.5t-49.5 25.5q-53 31 -83.5 69.5t-44 85t-13.5 97.5zM449 1450l423 274l224 -102q35 35 78 81t106 93q12 10 62.5 11t119 -4t144 -14 t138 -19.5t100.5 -18.5t34 -14l-426 -275l-203 82q-35 -29 -89 -68.5t-113 -84.5q-12 -10 -63.5 -11.5t-120 4t-144.5 14.5t-138.5 18t-100.5 18.5t-31 15.5zM868 373q-6 -10 13 -15l8 2l6 2q8 6 21.5 17.5t25.5 24t22.5 24.5t10.5 18l72 496l-29 14q-10 6 -23.5 19.5 t-21.5 17.5l-12 -4h-7l-20 -57l-2 -17l-12 -94l-9 -37l-28 -209q-8 -47 -13.5 -97t-1.5 -105z" />
<glyph unicode="&#xc4;" horiz-adv-x="1372" d="M343 292q1 52 9 111l25 162l4 39q4 35 11 65.5t11 65.5l7 39q25 88 92 154.5t157.5 121t189.5 101.5t187 98q25 14 44.5 27.5t37 24t37 18.5t45.5 14q39 8 71 -1t60.5 -26.5t59 -36t67.5 -28.5q23 -8 64 -11t79.5 -10.5t65.5 -22.5t23 -48q-4 -23 -17.5 -36t-32 -23.5 t-39 -20.5t-36.5 -27q-27 -70 -35 -117.5t-17 -111.5l-14 -80l-2 -31l-14 -88v-16q-2 -4 -3 -23.5t3 -39t14 -35t29 -11.5q23 4 35 14.5t34 14.5q6 2 14.5 -4t16.5 -15.5t13.5 -20.5t2.5 -19q-2 -12 -5 -19.5t-9 -12.5t-18.5 -12t-30.5 -20q-18 -18 -63.5 -54t-94.5 -75 t-92 -73.5t-61 -53.5l-35 -6q-51 -10 -93 13.5t-76 55t-58.5 59.5t-38.5 26q-29 -6 -74 -47t-95 -89.5t-101.5 -90.5t-94.5 -50q-41 -8 -67.5 3.5t-49.5 27.5q-53 31 -83.5 70t-45 84t-13.5 97zM604 1518q4 31 24.5 59.5t49.5 56t62.5 53t68.5 50.5q154 14 214 -22t50 -136 q-6 -33 -27.5 -64.5t-54.5 -58t-71.5 -47t-81.5 -29.5q-45 -8 -89 0.5t-78 27.5t-52.5 48t-14.5 62zM870 373q0 -10 15 -13h8l8 2q8 6 20.5 18.5t24.5 25t22.5 23.5t12.5 17l72 496l-9 4q-10 4 -20 10q-14 8 -26.5 20.5t-20.5 16.5l-10 -2l-6 -2l-21 -57l-4 -17l-14 -92 l-7 -39l-26 -209q-8 -47 -13.5 -98t-5.5 -104zM1282 1653q4 31 23.5 59.5t48 55t62.5 52t67 50.5q156 14 219 -19.5t47 -138.5q-6 -33 -27.5 -64.5t-54.5 -58t-72 -47t-82 -29.5q-45 -8 -88 0.5t-76.5 28t-53 48t-13.5 63.5z" />
<glyph unicode="&#xc5;" horiz-adv-x="1372" d="M350 291q0 -51 13.5 -96t45 -84t85.5 -70q23 -14 47 -26.5t65 -4.5q43 8 94.5 50t102.5 91.5t95 90.5t75 47q14 2 38.5 -25.5t58.5 -60.5t76 -56.5t93 -13.5l33 8q18 16 62 51t93.5 74t94.5 75t63 54q29 18 41 25.5t16 17.5q4 4 5 8q0 6 2 14.5t-3.5 18.5t-13.5 19.5 t-16 15.5t-14 6q-25 -4 -37.5 -15t-34.5 -16q-18 -4 -28.5 11.5t-13.5 35t-3 37.5q0 20 2 27l2 14l14 88l2 31l13 80q8 63 17 111.5t34 117.5q16 14 36.5 25.5t40 23t33 24.5t15.5 34q6 35 -19.5 50t-64.5 21.5t-81 9.5t-65 13q-39 8 -68.5 26.5t-58 35t-59.5 26.5t-72 2 q-27 -6 -46 -14t-37.5 -18.5t-37 -23.5t-43.5 -28q-88 -49 -186 -96t-187 -101.5t-158 -121t-97 -154.5l-4 -41q-4 -35 -11.5 -64.5t-11.5 -66.5l-6 -39l-23 -159q-8 -61 -8 -115zM831 1434q-2 -10 37 -20.5t92.5 -17.5t106.5 -10.5t82 3.5q8 2 14 4l6 2q2 0 18.5 9t36 20.5 t39 22.5t25.5 15q90 41 139.5 60.5t75 40t33.5 49t18 88.5l2 20q2 12 3.5 24.5t1.5 24.5l4 19q-14 33 -55.5 65.5t-118.5 28.5q-4 -4 -23.5 -13t-43.5 -19.5t-44 -17.5t-27 -7q-23 -8 -79 -25.5t-114.5 -36t-104.5 -33t-46 -16.5l-37 -246q-39 -6 -41 -26v-8zM879 373 q2 55 4 105t10 97l29 211l4 37l16 92l2 17l21 57l8 2l10 2q8 -4 21.5 -16t23.5 -21l29 -14l-72 -493q0 -6 -10 -18.5t-23.5 -26t-27 -24.5t-19.5 -18h-6l-8 -2q-18 3 -12 13zM1192 1542l29 197q16 -2 27.5 -9.5t11.5 -11.5l-27 -184q-16 -4 -29.5 -2t-11.5 10z" />
<glyph unicode="&#xc6;" horiz-adv-x="2091" d="M227 207q0 53 9 112l30 201q2 35 9.5 65.5t11.5 65.5l4 39q29 88 97.5 154.5t157.5 121t188.5 101.5t187.5 96q45 29 77.5 51.5t85.5 32.5q39 8 70 -1t59.5 -25.5t58.5 -35t68 -28.5q10 -4 24.5 -6t29.5 -6q76 49 165 98t174 89t154.5 69t110.5 37l20 4q8 -2 21.5 -4 l27 -4t23.5 -4l10 -3l248 -282q-2 -2 0 -15.5t-2 -23.5q-6 -53 -55 -97t-120 -84t-152 -77t-151.5 -74t-120.5 -77t-56 -85q-4 -25 12 -42t44 -27.5t63.5 -15.5t70.5 -5q25 0 47.5 2t40.5 6q57 12 102.5 31t92.5 35q27 10 54.5 17.5t47.5 7.5q23 0 35 -8.5t10 -28.5 q-4 -18 -47 -58.5t-109.5 -91.5t-146.5 -107.5t-154.5 -104.5t-137 -80.5t-95.5 -39.5q-82 -16 -167 5.5t-163 62.5q-47 -37 -85 -67.5t-58 -47.5l-33 -6q-51 -10 -93 13.5t-76 55.5t-58.5 59.5t-38.5 25.5q-31 -6 -75 -47t-95 -89.5t-102.5 -90.5t-94.5 -50 q-41 -8 -65.5 3.5t-46.5 25.5q-53 31 -85 69.5t-45.5 85t-13.5 97.5zM756 289q-6 -10 12 -15l14 5q8 6 21.5 17t26 23.5t22.5 24.5t10 18l72 496l-8 4t-21 8q-10 8 -22.5 21.5t-22.5 15.5l-16 -2l-23 -57l-51 -356q-8 -47 -13 -97.5t-1 -105.5zM1679 807l21 9 q20 9 44.5 22.5t47.5 29t25 25.5q0 2 -11.5 22.5t-21.5 30.5q-6 2 -17.5 12.5t-23.5 23.5t-21.5 24.5t-9.5 15.5z" />
<glyph unicode="&#xc7;" horiz-adv-x="1218" d="M174 244l94 647q2 29 29 56.5t61.5 54t74.5 48t71 37.5q25 10 74 31t109.5 47.5t127 56t125.5 56.5t107.5 48.5t72.5 31.5q6 0 11.5 2t13.5 4q25 4 45 -10.5t37.5 -34t29 -35.5t17.5 -16q6 -12 24.5 -45t40 -68t41 -64.5t27.5 -37.5l2 -5q2 -6 2 -10q-6 -35 -60.5 -75.5 t-123 -76.5t-134 -62.5t-96.5 -32.5q-47 -8 -76.5 9t-49 43.5t-33 54.5t-25.5 40l-63 -432q-4 -31 26.5 -48.5t75.5 -23.5t94 -4t82 8q66 12 123 40t117 38q41 8 51 -8t6 -39q-2 -18 -6 -33q-10 -20 -30.5 -34.5t-65.5 -43.5q-23 -16 -78 -51t-122 -78t-136.5 -87 t-120.5 -76q104 -10 164.5 -54.5t50.5 -132.5q-6 -29 -14.5 -49t-21.5 -40.5t-33.5 -42t-53.5 -50.5l-121 -45q-106 -16 -173.5 3t-84.5 79q12 31 41 50t65 34.5t73.5 29t66.5 31.5q-53 25 -106.5 56.5t-88.5 66.5q-61 8 -126.5 32.5t-119 57.5t-85 73t-25.5 79z" />
<glyph unicode="&#xc8;" horiz-adv-x="1259" d="M348 317l82 557q4 37 53 84.5t124 98.5t165 101t177 91t159 70t111 37l24 6q8 -2 21.5 -4l27 -4t23.5 -4l10 -2l250 -283q-4 -2 -6 -17.5t0 -25.5q-6 -51 -55.5 -94t-120 -83t-151.5 -77t-151.5 -75t-119.5 -76.5t-56 -84.5q-4 -25 12.5 -42t44 -27t63.5 -15.5t71 -5.5 q53 0 86 9q61 12 104 30.5t90 34.5q27 10 54.5 17.5t50.5 7.5t35 -8.5t10 -28.5q-2 -16 -46 -57t-110.5 -92.5t-147.5 -108t-157 -103.5t-138.5 -80.5t-92.5 -39.5q-84 -16 -175 5t-165 65t-119 103.5t-37 120.5zM811 1679l344 217l150 -258l3 -5q3 -5 -3 -7 q-23 -49 -71 -81t-120 -85q-10 -8 -37.5 3.5t-63.5 35t-74 53t-68.5 57t-48 47t-11.5 23.5zM903 727l21 9q20 9 44.5 22.5t46 29t23.5 25.5q4 2 -10 21.5t-22 29.5q-6 4 -17.5 15.5t-23 23.5t-20.5 23.5t-9 15.5z" />
<glyph unicode="&#xc9;" horiz-adv-x="1259" d="M346 317l84 557q4 37 53 84.5t124 98.5t165 101t177 91t159 70t111 37l24 6q8 -2 20.5 -4t26 -4t23.5 -4t12 -2l246 -283q0 -2 -2 -17.5t0 -25.5q-6 -51 -55.5 -94t-120 -83t-152.5 -77t-152.5 -75t-119.5 -76.5t-56 -84.5q-4 -25 12.5 -42t45 -27t63.5 -15.5t70 -5.5 q78 0 129 16.5t92 35.5q25 10 62.5 23t71.5 19.5t57.5 1t19.5 -33.5q-2 -16 -46 -57t-110.5 -92.5t-147.5 -108t-157 -103.5t-138.5 -80.5t-92.5 -39.5q-84 -16 -175 5t-166 65t-121 103.5t-36 120.5zM890 1543q-1 1 1 5l2 6l237 334l306 -92q4 -2 -20.5 -30.5t-65.5 -69.5 t-90.5 -88t-94.5 -85t-77.5 -61.5t-38.5 -17.5q-29 14 -55.5 23.5t-47 18.5t-35 22.5t-18.5 35.5q-2 -2 -3 -1zM903 725q2 2 22.5 12.5t45 23.5t45 27.5t22.5 24.5q4 2 -11 21.5t-23 29.5q-4 2 -14.5 13.5t-22 24.5t-21.5 24.5t-12 15.5z" />
<glyph unicode="&#xca;" horiz-adv-x="1259" d="M336 324l78 555q4 37 54 84t125 98t165 101t177 92t159.5 71t111.5 37l23 4q16 -4 48 -8t34 -4l248 -283q-2 -2 -3.5 -17.5t0.5 -25.5q-8 -51 -58 -95t-120.5 -84t-151.5 -77t-150.5 -75t-119 -76.5t-55.5 -83.5q-4 -25 11.5 -42.5t43 -27.5t63.5 -15.5t71 -5.5 q57 0 90 9q55 12 101 30.5t93 34.5q27 10 54.5 17.5t48.5 7.5q23 0 34 -8.5t9 -28.5q-4 -18 -47 -58t-110 -91.5t-146.5 -107.5t-155.5 -103.5t-137.5 -81t-92.5 -39.5q-84 -16 -175 5t-165.5 65t-119.5 104.5t-35 122.5zM350 1427l737 367q12 6 72 4t138.5 -8t166.5 -16.5 t160 -21.5t116 -21.5t36 -16.5l-424 -272l-234 196q-20 -16 -66 -56t-98.5 -87t-100.5 -90t-75 -64q-12 -10 -50 -9t-88 9.5t-103.5 20.5t-97.5 25.5t-69.5 23.5t-19.5 16zM889 731l21 11q20 10 45.5 23t47 27.5t23.5 24.5l-4 7q-4 7 -10 15.5t-12.5 16.5t-8.5 14 q-4 2 -15 13.5t-23.5 24t-22.5 23.5t-10 15z" />
<glyph unicode="&#xcb;" horiz-adv-x="1259" d="M336 317q-10 -61 35 -120.5t118.5 -103.5t166 -65.5t175.5 -4.5q31 6 93.5 38.5t138.5 80.5t155.5 103.5t146.5 106.5t111 91t48 59q2 20 -11.5 28.5t-35.5 8.5q-20 0 -48 -7.5t-55 -17.5q-47 -16 -91 -34.5t-103 -30.5q-37 -6 -86 -7q-49 0 -94.5 8.5t-74 28t-24.5 51.5 q6 45 55.5 85t120 77t151.5 75t151.5 77t119.5 83t57 95q2 10 3 25q0 16 2 18l-248 283q-2 0 -34 4t-48 8l-25 -4q-39 -8 -111.5 -37t-158.5 -71t-176 -92t-165 -101t-124 -98.5t-53 -84.5zM510 1518q-6 -33 11.5 -62t51 -49.5t77.5 -28.5t91 2q43 8 83 29t73 47.5t54.5 58 t25.5 62.5q12 104 -50 139t-216 21q-33 -25 -67 -50.5t-62.5 -53t-48 -56.5t-23.5 -59zM891 725l31 215q0 -4 9 -15.5t20.5 -24.5t23.5 -23.5t18 -12.5q8 -10 20.5 -30.5t12.5 -22.5q-2 -10 -23.5 -25.5t-46 -29t-34.5 -18.5zM1233 1659q-6 -35 13.5 -63.5t53 -49t78.5 -28 t88 3.5q43 8 83 28.5t73 47t54.5 58.5t25.5 62q14 104 -48 140t-218 20q-31 -23 -65 -48.5t-63.5 -53t-50 -57t-24.5 -60.5z" />
<glyph unicode="&#xcc;" horiz-adv-x="905" d="M403 815q-10 -10 5.5 -27.5t31.5 -25.5q6 -2 19.5 -5t29 -5t29.5 -2q15 0 23 2l-80 -555q-4 -23 22.5 -52.5t65.5 -57.5t82 -44t74 -10q37 6 106.5 47t139 94t123.5 104.5t61 79.5q8 74 -129 35q-2 16 -2 64q0 47 2 100t3 101.5t3 66.5q6 45 31.5 74.5t53 53.5t51 45.5 t28.5 49.5q0 6 -4 12l-3 5l-266 157q-35 20 -64.5 18.5t-51 -12t-36 -23.5t-20.5 -15zM604 1534q-4 -2 13.5 -22.5t46 -48t65.5 -57.5t72 -53.5t63.5 -35.5t38.5 -2q37 27 67.5 46t55.5 36.5t43 37t31 46.5q6 2 3 7l-3 5l-150 258z" />
<glyph unicode="&#xcd;" horiz-adv-x="905" d="M408 815l327 275q8 4 26.5 22t57.5 27q45 8 84 -17l268 -157l3 -5q2 -6 2 -12q-4 -29 -27 -50t-50.5 -45t-53 -53.5t-31.5 -74.5q-4 -18 -6 -66.5t-3 -101.5t0 -100t3 -64q135 39 127 -35q-2 -18 -28 -47.5t-66 -64.5t-88 -71t-95 -66.5t-88 -51t-63 -24.5q-31 -6 -75 10 t-82 44t-64.5 57.5t-22.5 52.5l80 555q-6 -2 -22.5 -1t-33 3t-31 4t-16.5 6q-16 6 -31.5 23.5t-0.5 27.5zM614 1399l2 6l238 332l303 -90q6 -2 -18.5 -31t-66.5 -70t-92 -87t-95 -85t-77 -62.5t-36 -17.5q-29 14 -55.5 23.5t-47 19t-34.5 21.5t-19 35q-6 0 -2 6z" />
<glyph unicode="&#xce;" horiz-adv-x="905" d="M182 1294l656 346q16 8 67 7.5t120 -10t144.5 -22.5t138 -25.5t102.5 -24t38 -15.5l-379 -260l-207 195q-14 -14 -54 -53t-88 -83t-93 -86t-70 -61q-12 -10 -46 -8t-77 11t-89 22.5t-84 27t-60.5 24.5t-18.5 15zM391 825l328 275q8 4 25.5 22.5t58.5 26.5q47 10 86 -16 l268 -158l1 -5t1 -12q-4 -29 -27.5 -50t-51 -44.5t-53.5 -54.5t-32 -76q-4 -18 -6 -66.5t-3 -101.5t0 -100t5 -64q137 43 127 -34q-2 -18 -26.5 -47t-64.5 -64t-88 -70.5t-95 -66.5t-88 -52.5t-66 -25.5q-31 -6 -74 11.5t-81.5 44t-64.5 57t-21 53.5l77 555q-8 -2 -22.5 -1 t-30.5 2t-29.5 4t-19.5 5q-16 8 -31.5 25.5t-1.5 27.5z" />
<glyph unicode="&#xcf;" horiz-adv-x="905" d="M315 1372q-6 -33 13.5 -61.5t53.5 -48t77 -27.5t88 2q43 8 84 28.5t72.5 47t53 58.5t25.5 63q16 104 -46 137.5t-220 19.5q-31 -25 -64.5 -50t-62.5 -53t-49.5 -56.5t-24.5 -59.5zM391 815q-10 -10 4.5 -27.5t32.5 -25.5q6 -2 18.5 -5t27.5 -5t30 -2q14 0 22 2l-77 -555 q-4 -23 22.5 -53.5t64 -58.5t80.5 -44t74 -10q25 6 66 27.5t87 51t94 65.5t88 70t65.5 63.5t29.5 47.5q10 78 -129 35q-4 18 -4 64q0 47 2 100t4 101.5t4 66.5q6 45 32 75.5t54.5 54.5t52 45.5t25.5 49.5q0 6 -2 12l-2 5l-266 157q-35 20 -64.5 18.5t-52 -12t-37 -23.5 t-18.5 -15zM971 1503q-6 -35 11 -63.5t51 -48t78 -27.5t89 0q43 8 83 28.5t71.5 47t53.5 58.5t28 65q14 104 -47.5 137.5t-221.5 19.5q-33 -25 -66.5 -50t-61 -52t-46 -55.5t-22.5 -59.5z" />
<glyph unicode="&#xd0;" horiz-adv-x="1658" d="M291 469l461 205l141 -8l29 194l276 53q-57 14 -107.5 36t-85 50.5t-52 68.5t-9.5 95q10 80 58.5 136.5t120 95.5t159.5 64.5t180 43.5q-4 -35 -28.5 -61.5t-53 -47t-53 -37t-29.5 -34.5q0 -2 1 -6t1 -6q29 -4 97.5 -16.5t145.5 -26t144.5 -26.5t94.5 -19 q27 -4 59.5 -22.5t61 -44.5t47 -54.5t14.5 -52.5l-80 -555q-2 -20 -49 -59.5t-118.5 -86.5t-154.5 -96t-159 -91t-132.5 -70t-72.5 -32q-14 -2 -54 7.5t-92.5 23.5t-109.5 32.5t-105.5 36t-80 31t-31.5 19.5q2 10 15.5 25.5t32 32t37.5 30.5t32 25l22 155q-49 -6 -112.5 -9 t-129 -5t-127 -3t-108.5 0t-74.5 4t-21.5 5zM1339 446l74 -45l66 463l-76 45z" />
<glyph unicode="&#xd1;" horiz-adv-x="1701" d="M345 134.5q-7 11.5 1 21.5q2 6 22.5 23.5t44 37t45 35.5t27.5 20l80 557q4 23 -22.5 22t-58 -5t-58.5 1t-23 40q4 8 7.5 18t1.5 13q37 37 87 81.5t105 89t113.5 84t113.5 66.5l23 4q51 10 95 -3t80 -38.5t63.5 -56.5t46.5 -55q49 27 110.5 73.5t126 95t128 87t116.5 49.5 q2 0 11 1l9 1q2 -2 24 -16.5t47.5 -31t50 -29.5t30.5 -13l158 -60q23 -8 49 -25.5t26 -19.5q-2 -8 -12 -23.5t-25.5 -33t-32 -31.5t-28.5 -20l-80 -557q23 0 46.5 -3.5t41 -10.5t26.5 -19t7 -33q-4 -23 -8 -31q-10 -16 -32.5 -31.5t-63.5 -48.5l-369 -251q-6 0 -19.5 -6.5 t-23.5 -10.5q-25 -4 -68 8.5t-85 34t-70.5 48t-22.5 50.5l105 740l-60 18l-49 -39l-86 -616q6 -6 18.5 -26.5t14.5 -26.5l-2 -19l-2 -14l-47 -37q-41 -29 -102.5 -72t-119 -83t-99.5 -68.5t-46 -28.5l-45 -8l-268 127q-8 4 -22.5 12t-29 19.5t-21.5 23zM553 1456l424 273 l223 -101q35 35 79 81t105 93q12 10 62.5 11.5t119 -4t144.5 -14.5t138.5 -18.5t101.5 -18.5t35 -15l-431 -275l-194 82q-37 -29 -94.5 -69.5t-116.5 -85.5q-14 -10 -64 -11q-39 0 -95 4.5t-117.5 10.5t-122 14t-106.5 15.5t-72.5 14.5t-18.5 13z" />
<glyph unicode="&#xd2;" d="M326 197l2 20q2 23 17 40t56 26l99 678q0 6 43 23t108.5 40t145.5 49.5t155.5 53t137 49t92.5 38.5q12 4 50 23.5t82 43.5t83 45.5t49 29.5q76 0 132 -29t96 -72t64.5 -95t37.5 -101l-4 -47q-4 -35 -8.5 -69t-8.5 -69l-6 -47q-14 -111 -26.5 -181.5t-33 -117.5t-54 -79.5 t-90 -66.5t-140.5 -76t-207 -109q-8 -6 -42 -31t-73 -53.5t-73.5 -52t-42.5 -27.5l-15 -3q-14 -3 -26 -7q-37 -8 -96.5 -4t-128 16t-137 30.5t-123 41t-87 46.5t-28.5 44zM817 1620l344 217l152 -256l2 -5q2 -5 -4 -7q-23 -49 -72 -82t-121 -86q-10 -8 -37.5 4t-63.5 35.5 t-74 54.5t-67.5 57.5t-47 46t-11.5 21.5zM1024 434q-2 -20 25.5 -23t56.5 3l72 499q2 20 -23.5 44t-50.5 32z" />
<glyph unicode="&#xd3;" d="M315 195l4 22q2 23 19.5 40t58.5 24l97 680q0 6 43 22t108.5 40t145 50.5t155.5 53t137.5 49t92.5 38.5q6 2 45 20.5t85 42t86 46.5t50 33q74 0 130 -29t96 -72t65.5 -95t38.5 -101l-7 -47q-4 -35 -9 -70t-7 -70l-8 -45q-18 -113 -31.5 -183.5t-33 -117.5t-52.5 -78.5 t-87 -65.5t-138 -76t-207 -109q-10 -6 -44 -31t-72 -52.5t-71.5 -52t-43.5 -28.5l-15 -4q-14 -4 -24 -6q-37 -6 -96.5 -2t-127 15t-137 29.5t-125 39t-89.5 44t-32 46.5zM937 1472l5 7l236 329l301 -92q4 -2 -20.5 -29.5t-63.5 -67.5t-87 -87t-92.5 -85t-78 -62.5 t-43.5 -20.5q-31 14 -56.5 23.5t-45 19.5t-33 23.5t-17.5 35.5q-10 -2 -5 6zM1018 434q-2 -10 5 -15t19.5 -8t27.5 -2t28 3l71 501q4 18 -21 43t-50 33z" />
<glyph unicode="&#xd4;" d="M315 193l2 22q6 23 22.5 40t57.5 26l97 677q0 6 43 23.5t108.5 40t145 49.5t155.5 53.5t137.5 49t92.5 38.5l47 23.5l84 42t85 44t50 32.5q74 0 129 -29t96 -72t66.5 -95t38.5 -101l-9 -47q-4 -35 -8 -69t-6 -69l-8 -47q-14 -111 -27.5 -181.5t-33 -117.5t-53.5 -79.5 t-90 -66.5t-140 -76t-207 -109q-8 -6 -41 -31t-72 -53.5t-72.5 -52t-41.5 -27.5l-15 -3q-16 -3 -26 -8q-37 -8 -96.5 -4t-128 15.5t-138.5 31t-125 41t-89 45.5t-30 44zM475 1446l742 364q14 6 73.5 5.5t137 -7t164.5 -17.5t159 -22.5t116 -20.5t40 -15l-428 -275l-232 197 q-20 -16 -66 -56t-98.5 -86.5t-100.5 -89.5t-73 -65q-12 -10 -51 -9t-89 9t-104.5 20.5t-98.5 25.5t-69.5 24.5t-21.5 17.5zM1018 432q-2 -10 5 -15t19.5 -7t26.5 -2q16 0 29 4l71 499q4 20 -21 44t-50 32z" />
<glyph unicode="&#xd5;" d="M309 193l2 22q4 23 20.5 39t57.5 25l100 679q0 6 42 22.5t106.5 40t144.5 50.5t155 53.5t137.5 49t92.5 36.5q8 4 48 23.5t86.5 42t85 45t49.5 33.5q74 0 129 -29t96 -72t66.5 -95t37.5 -101l-6 -47q-4 -35 -9 -70t-9 -70l-6 -45q-14 -111 -26.5 -181.5t-33 -118.5 t-54.5 -80.5t-90 -65.5t-140 -75t-205 -109q-10 -6 -44 -31t-72 -52.5t-71.5 -52t-44.5 -28.5l-14 -4t-25 -7q-37 -8 -96 -4t-127.5 15.5t-138.5 31t-125 41t-89 45.5t-30 44zM471 1444l424 274l223 -102q35 35 78 82t107 94q12 8 61 8q51 0 119.5 -5t144.5 -13t139.5 -17.5 t102.5 -18.5t33 -13l-428 -275l-201 80q-35 -29 -90.5 -67.5t-114.5 -84.5q-12 -10 -63.5 -11t-120 4t-145 13.5t-139 17.5t-100.5 18.5t-30 15.5zM1014 432q-4 -20 23.5 -23t56.5 1l71 501q2 18 -22 43t-49 33z" />
<glyph unicode="&#xd6;" d="M309 195q-2 -23 32 -45.5t89 -45t124 -41t137.5 -31t128 -15.5t95.5 6q12 2 25 5l14 3q10 4 43 27.5t72 52t73 53t44 31.5q123 68 207 110.5t139 75.5t88 65.5t52.5 79.5t32.5 119t30 182l8 45q2 35 7 69t9 69l6 49q-12 49 -36.5 101t-64.5 95t-96.5 72t-131.5 29 q-12 -8 -51 -29.5t-83.5 -46.5t-83 -44t-51.5 -24q-31 -14 -93 -36.5t-137 -49t-155 -53t-144.5 -50.5t-106.5 -40t-42 -22l-98 -680q-41 -8 -57.5 -24.5t-18.5 -39.5zM545 1473q-6 -35 11 -64t51 -49.5t79 -27.5t90 3q43 8 84 28.5t73 47.5t52.5 58.5t26.5 62.5 q12 104 -47.5 139t-219.5 19q-33 -25 -66.5 -50.5t-62 -52t-48 -55.5t-23.5 -59zM1014 432l80 557q25 -10 50 -33.5t21 -44.5l-71 -499q-29 -4 -56.5 -1t-23.5 21zM1343 1630q-6 -35 12.5 -63.5t52.5 -48t78 -27.5t89 0q43 8 83 28.5t72.5 47t54 58.5t27.5 65 q10 104 -51 138.5t-215 20.5q-33 -25 -67.5 -50t-63.5 -53t-48 -56.5t-24 -59.5z" />
<glyph unicode="&#xd7;" horiz-adv-x="1007" d="M403 262l213 313q-33 39 -64.5 77t-54 69t-34.5 50.5t-4 21.5l342 -113l323 188h6q6 2 7 0q2 -41 -29 -86.5t-72 -117.5q-6 -16 -86 -72l94 -152l-2 -4l-4 -4q-16 -6 -53 -6q-35 0 -77 8t-79.5 24.5t-56.5 43.5q-63 -39 -131 -83t-122 -80t-87 -58.5t-29 -18.5z" />
<glyph unicode="&#xd8;" d="M225 186l2 21q6 23 21.5 40t56.5 25l96 678q0 6 42 22.5t108.5 40t146.5 51.5t156 54.5t138.5 49t92.5 36.5q8 4 46 23.5t84.5 42t86 45t50.5 33.5q70 -2 126 -31t97 -72t67.5 -95t38.5 -101l-8 -48q-4 -35 -8 -68.5t-8 -68.5l-6 -45q-14 -111 -27.5 -181.5t-33 -118.5 t-53.5 -80.5t-90 -66.5t-140 -76t-207 -110q-10 -6 -43 -30.5t-71 -52t-71.5 -52t-44.5 -28.5l-14 -3q-14 -4 -25 -6q-37 -8 -96 -5t-127.5 15.5t-138.5 31t-125 41t-88 46t-31 43.5zM926 424q0 -8 9 -7t24.5 5t33 10t33.5 10l10 164l-94 -78zM973 733l112 117l-8 53 q-4 18 -25 43t-44 35z" />
<glyph unicode="&#xd9;" horiz-adv-x="1701" d="M362 188v5q1 6 5 14q0 2 1 7l1 5q6 4 18 11.5t26.5 14.5t27 13t18.5 8q12 10 29.5 23.5t17.5 15.5l78 537q-31 -6 -63 -16.5t-56.5 -13.5t-38.5 6t-8 42q4 25 14 40t27.5 29.5t44 32t61.5 46.5q20 12 67.5 47t97.5 74.5t95 73.5t64 46q10 2 22.5 5t22.5 6q74 14 122 -18 t76.5 -84t39 -111.5t6.5 -100.5q-2 -35 -14.5 -121t-24.5 -186q-8 -49 -16.5 -98t-15.5 -90t-12 -73t-10 -50l21 10l47 23.5t48.5 27.5t25.5 25l78 557q-6 6 -17.5 20.5t-22 31.5t-18.5 32.5t-8 21.5l2 17l2 14q121 59 224.5 132t189.5 159q12 -6 40.5 -20.5t63.5 -33 t74 -36t70 -29.5q39 -23 58 -33t27.5 -14t10.5 -6t6 -8v-21q-8 -43 -32.5 -71.5t-78.5 -71.5l-81 -555q-4 -25 22.5 -24t59 6t59 0t22.5 -42q-4 -23 -29.5 -53.5t-65.5 -65t-88 -68.5t-96 -63.5t-91 -49t-74 -25.5q-59 -12 -99 3t-74 36.5t-72 39t-93 7.5 q-59 -12 -113.5 -46t-106.5 -73t-103.5 -72t-104.5 -43l-23 -6q-23 12 -80 33.5t-119.5 50.5t-115.5 65.5t-68 77.5zM1044 1665l349 219l151 -258l2 -5t-6 -7q-25 -53 -73 -83t-121 -83q-12 -10 -40 1t-63 34.5t-70.5 54.5t-65.5 58.5t-48.5 47t-14.5 21.5z" />
<glyph unicode="&#xda;" horiz-adv-x="1701" d="M365 194q-2 5 2 13q0 2 1 7l1 5q6 4 18 11.5t26.5 14.5t28 13t19.5 8q10 10 27.5 23.5t17.5 15.5l80 537q-33 -6 -65 -16.5t-56.5 -13.5t-38.5 6t-8 42q4 25 14 40t27.5 29.5t44 32t61.5 46.5q18 12 64.5 45.5t98.5 72.5t98 74t65 49q10 2 21.5 5t21.5 6q74 14 122 -18 t76.5 -84t39 -111.5t6.5 -100.5q-2 -35 -12.5 -121t-26.5 -186q-6 -49 -14.5 -98t-16.5 -90t-14.5 -73t-6.5 -50q2 2 24 12t46.5 23.5t46 28t23.5 24.5l78 555q-8 6 -18.5 21.5t-20 31.5t-17.5 31.5t-10 21.5l2 17l2 14q242 119 414 291q12 -6 39.5 -20.5t62.5 -33t73 -36 t73 -29.5q39 -23 59.5 -32t30.5 -13t12 -6t2 -10l-2 -21q-6 -41 -31.5 -70.5t-79.5 -72.5l-81 -555q-4 -25 22.5 -24t59 6t60.5 0t23 -42q-6 -33 -59 -85t-125 -102t-145.5 -90t-116.5 -48q-59 -12 -99 3t-74 36.5t-72 39t-93 7.5q-59 -12 -113.5 -46t-106.5 -73t-103.5 -72 t-104.5 -43l-20 -4q-23 12 -81.5 33.5t-121 50.5t-114.5 64.5t-64 76.5zM1128 1545l7 7l231 332l303 -92q2 0 -22.5 -27.5t-64.5 -68.5t-88 -88t-91 -86t-77 -62.5t-44 -17.5q-29 14 -54.5 23.5t-46 18.5t-33.5 21.5t-18 34.5q-10 -2 -2 5z" />
<glyph unicode="&#xdb;" horiz-adv-x="1701" d="M348 186v19q2 2 3 7l1 5q6 6 19.5 13.5t27 13.5t25.5 12t18 8q12 10 31 24.5t19 16.5l73 535q-31 -6 -62.5 -16.5t-56 -13.5t-38 6t-7.5 42q4 25 14.5 40t28 29.5t43 32t60.5 46.5q20 12 66 46.5t97.5 72.5t97.5 73t64 49q8 2 21.5 5t26.5 5q74 14 122 -17.5t75.5 -83.5 t37.5 -111.5t6 -100.5q-4 -35 -16 -121t-25 -186q-8 -49 -15 -98.5t-11 -89.5q-6 -41 -13.5 -73t-11.5 -48q2 0 23.5 10t47 23.5t47 27.5t23.5 25l80 555q-8 6 -18 21.5t-20.5 31.5t-18.5 31.5t-10 21.5l4 17v14q119 59 223 132t190 159q12 -6 40 -20.5t64 -33t73.5 -36 t70.5 -29.5q37 -23 57.5 -32t31 -13t12.5 -6t2 -10l-2 -21q-4 -41 -31 -69.5t-80 -73.5l-78 -553q-6 -27 20.5 -26t59.5 5t59.5 0t20.5 -41q-4 -33 -57.5 -84t-124 -101t-143 -90t-117.5 -48q-59 -12 -98.5 4t-74 37.5t-72.5 38t-95 4.5q-59 -12 -112.5 -46t-106 -73 t-104.5 -72t-105 -43l-21 -4q-23 12 -81 33.5t-120.5 50.5t-116 64.5t-63.5 76.5zM578 1417l737 365q14 6 73.5 5t138.5 -7t166 -17.5t158.5 -22.5t116.5 -20.5t39 -15.5l-426 -274l-231 196q-20 -16 -65.5 -55t-97.5 -85t-102.5 -89t-78.5 -68q-12 -10 -49 -8t-87.5 9 t-104.5 20.5t-97 27t-70 23.5t-20 16z" />
<glyph unicode="&#xdc;" horiz-adv-x="1701" d="M352 186q14 -41 66.5 -77.5t116 -66.5t121 -50.5t81.5 -30.5l19 4q55 10 106 44t103.5 72t106.5 72.5t114 47.5q55 10 93 -7.5t71.5 -39t73.5 -37t100 -2.5q45 8 117.5 48t143 90t124 101.5t57.5 83.5q6 39 -20.5 43t-59.5 0t-59.5 -6t-22.5 25l80 553q53 45 80 73.5 t31 69.5l2 23q4 10 -3 14t-38 14q-20 8 -64.5 29.5t-93.5 45.5t-92 45.5l-59 29.5q-170 -170 -414 -289l-2 -16l-2 -17q2 -6 9 -21.5t17.5 -32.5t20.5 -31.5t18 -20.5l-77 -555q-4 -10 -27 -25.5t-48.5 -29t-45.5 -22.5l-21 -9q4 16 10.5 48t12.5 73q4 41 13 90t15 98 q14 104 25.5 188t15.5 119q4 39 -6 99.5t-38.5 112.5t-78 85t-120.5 19q-10 -4 -22.5 -6.5t-20.5 -4.5q-18 -12 -64.5 -47t-96.5 -75t-97.5 -74.5t-69.5 -46.5q-35 -29 -60.5 -46.5t-43 -32t-27.5 -29.5t-14 -40q-6 -35 7 -43t37.5 -5t57.5 14.5t65 17.5l-79 -537 q0 -2 -18.5 -16.5t-28.5 -24.5q-6 -2 -19.5 -8t-27 -13t-25.5 -13.5t-19 -10.5l-1 -5t-1 -7q-4 -8 -4 -14v-7zM696 1509q-6 -35 12.5 -63.5t52.5 -48t78 -27.5t87 0t83 28.5t71.5 47.5t53 58.5t27.5 64.5q14 104 -46 137.5t-220 19.5q-33 -25 -66.5 -50t-61.5 -52 t-47.5 -55.5t-23.5 -59.5zM1493 1665q-6 -33 13.5 -61.5t53 -48t76.5 -27.5t88 0q43 8 84 28.5t73 47t54.5 58.5t28.5 64q10 100 -52 137t-214 23q-33 -25 -68 -50.5t-63.5 -53t-49 -57t-24.5 -60.5z" />
<glyph unicode="&#xdd;" horiz-adv-x="1138" d="M319 219q8 47 22.5 91t31 88t30 89t19.5 95q8 61 1 113.5t-17.5 101.5t-17.5 99t1 110q18 125 100 220t246 128q47 10 70.5 2t46.5 -51q-14 -14 -39 -28.5t-47.5 -29t-39.5 -28t-17 -25.5q-2 -2 -1 -9l1 -7l184 -136l94 50l230 151l7 2q7 2 13 4q2 0 11 1l9 1l123 -88 q27 -10 40.5 -36.5t17.5 -49.5l-125 -852q-6 -45 -43 -100t-93.5 -112.5t-126 -113t-140 -100.5t-135 -75.5t-109.5 -38.5q-6 -2 -29 -7.5t-45.5 -6.5t-39.5 3.5t-17 20.5q82 68 137 116t91 93t56.5 95t32.5 124q0 4 1 21.5t5 35.5q4 20 4 37q0 18 2 27q-16 -12 -56 -40 t-84 -58.5t-84 -57.5t-52 -37l-10 -2q-9 -2 -13 -4q-39 -6 -84 6t-83 37t-60.5 59.5t-18.5 71.5zM819 1546l4 6l236 332l303 -90q4 0 -19.5 -27.5t-64.5 -68.5t-90 -89t-94 -87t-78 -62.5t-41 -17.5q-61 27 -103.5 42t-50.5 56q-6 0 -2 6zM844 403q61 12 92 60l6 37 q4 29 10 53.5t13 52.5l6 37l20 141q4 41 -4 72.5t-24 58.5l-50 -43z" />
<glyph unicode="&#xde;" horiz-adv-x="1181" d="M238 303q-4 -29 7 -46t50 -9q16 2 29.5 11t25.5 19.5t26.5 19.5t33.5 13q6 0 20.5 1t20.5 1q0 -27 -3.5 -77t-3.5 -109t5.5 -119.5t21.5 -107.5t45 -73t76 -15q23 4 35 11t20 20.5t15.5 35t23.5 53.5q4 8 14.5 26.5t22.5 40t22.5 43t16.5 34.5q4 8 49 35.5t109.5 65.5 t139.5 82t139.5 83t108.5 69.5t48 43.5l86 575q0 10 -14.5 40t-39 60.5t-54 51t-60.5 14.5q-18 -4 -49 -20.5t-68 -39t-73.5 -47t-67.5 -46t-51.5 -35t-22.5 -13.5q-16 27 -31.5 74t-36 95t-48 86t-66.5 44l94 86q-6 16 -19.5 21.5t-31 4.5t-35.5 -6t-37 -7 q-141 -29 -210.5 -100.5t-82.5 -178.5q-8 -53 1.5 -92t21.5 -76t20 -77t2 -95q-8 -61 -44 -114.5t-76.5 -104.5t-75.5 -103.5t-43 -109.5zM872 520l43 307l48 41l34 -24l-53 -373z" />
<glyph unicode="&#xdf;" horiz-adv-x="1505" d="M238 -96q-12 -80 3 -134.5t44.5 -86t66.5 -44t66 -6.5q20 4 55 30t76 63.5t83 84t77.5 91.5t60.5 87t29 68q2 27 6 46.5t2 28.5t-14.5 8t-42.5 -11q0 27 4 94.5t9 144t10 146.5t9 98q12 92 46 157t67 103q78 39 110.5 56.5t51 25t38 8.5t74.5 7l-34 -238l-127 21 q-49 -59 -86 -111.5t-88 -112.5l270 -26q49 -6 48 -44t-33 -88.5t-86 -103.5t-109 -90q-23 -16 -17 -31.5t30 -31t57.5 -29.5t64.5 -29q6 -2 16 0l25 6q37 6 92 33t115.5 65t121 83t110.5 92t83 91t37 77l33 626q4 27 -15.5 47.5t-49.5 34t-64.5 21.5t-59.5 12 q-35 0 -106.5 8.5t-149.5 18.5t-149.5 19t-106.5 11q-4 0 -11 -1t-9 -1q-29 -16 -67 -25t-87 -20l-98 -18q-51 -10 -84 -18q-117 -117 -187.5 -190t-110.5 -116t-54.5 -64.5t-16.5 -35.5v-27q0 -18 1 -31.5t1 -15.5q2 -6 14.5 -11t26 -9t25.5 -6t18 -2z" />
<glyph unicode="&#xe0;" horiz-adv-x="1372" d="M356 293q1 54 11 113l22 159l8 41q2 35 9.5 65.5t11.5 65.5l4 39q25 88 93.5 154.5t158.5 121t189.5 101.5t185.5 96q51 29 81.5 51.5t81.5 32.5q41 8 73 -1t60.5 -25.5t58.5 -35t69 -28.5q23 -10 63.5 -13t79.5 -9.5t66.5 -21.5t21.5 -48q-2 -20 -16.5 -34.5t-34 -26 t-41 -22.5t-35.5 -26q-29 -68 -36 -116.5t-15 -112.5l-10 -78l-7 -33l-12 -86l-4 -16v-25q0 -18 3 -38.5t12.5 -35t29.5 -9.5q23 4 35 14t37 14q2 0 11 -6t17.5 -15.5t14.5 -19.5t4 -18q-4 -10 -4 -21q-8 -12 -20.5 -17t-41.5 -28q-18 -18 -62 -54t-93.5 -75t-93.5 -73.5 t-62 -51.5l-33 -6q-51 -10 -94 13.5t-77 55.5t-57.5 59.5t-37.5 25.5q-31 -6 -75 -47t-95 -89.5t-102.5 -90.5t-94.5 -50q-41 -8 -66.5 3.5t-47.5 25.5q-53 31 -85 70t-45.5 85t-13.5 97zM883 373q0 -8 16 -13l6 2l8 3q6 6 19.5 17t27 23.5t23.5 24.5t10 19l72 495l-8 4 t-21 8q-14 8 -24.5 21.5t-24.5 15.5l-6 -2h-6l-23 -57l-2 -16l-16 -95l-4 -37l-29 -208q-8 -47 -14 -97.5t-4 -107.5zM895 1679l344 217l152 -258l5 -4q5 -4 -5 -6q-12 -27 -32 -46t-43.5 -37.5t-53 -38t-64.5 -44.5q-10 -10 -37.5 1.5t-63.5 34t-75 53t-68.5 57t-47 47 t-11.5 24.5z" />
<glyph unicode="&#xe1;" horiz-adv-x="1372" d="M356 293q0 53 11 113l22 159l8 41q2 35 9.5 65.5t11.5 65.5l4 39q25 88 93.5 154.5t158.5 121t189.5 101.5t185.5 96q51 29 81.5 51.5t81.5 32.5q41 8 73 -1t60.5 -25.5t58.5 -35t69 -28.5q23 -10 63.5 -13t79.5 -9.5t66.5 -21.5t21.5 -48q-2 -20 -16.5 -34.5t-34 -26 t-41 -22.5t-35.5 -26q-29 -68 -36 -116.5t-15 -112.5l-10 -78l-7 -33l-12 -86l-4 -16v-25q0 -18 3 -38.5t12.5 -35t29.5 -9.5q23 4 35 14t37 14q2 0 11 -6t17.5 -15.5t14.5 -19.5t4 -18q-4 -10 -4 -21q-8 -12 -20.5 -17t-41.5 -28q-18 -18 -62 -54t-93.5 -75t-93.5 -73.5 t-62 -51.5l-33 -6q-51 -10 -94 13.5t-77 55.5t-57.5 59.5t-37.5 25.5q-31 -6 -75 -47t-95 -89.5t-102.5 -90.5t-94.5 -50q-41 -8 -66.5 3.5t-47.5 25.5q-53 31 -85 70t-45.5 85t-13.5 97zM883 373q0 -8 16 -13l6 2l8 3q6 6 19.5 17t27 23.5t23.5 24.5t10 19l72 495l-8 4 t-21 8q-14 8 -24.5 21.5t-24.5 15.5l-6 -2h-6l-23 -57l-2 -16l-16 -95l-4 -37l-29 -208q-8 -47 -14 -97.5t-4 -107.5zM958.5 1543q-2.5 1 2.5 5l4 8l235 332l305 -90q2 -2 -23.5 -30.5t-64.5 -70.5t-87 -88t-92 -85t-77 -61.5t-43 -16.5q-31 14 -56.5 22.5t-46 17.5 t-34.5 22.5t-18 35.5q-2 -2 -4.5 -1z" />
<glyph unicode="&#xe2;" horiz-adv-x="1372" d="M336 293q0 53 10 113l23 161l8 39q2 35 9 65.5t11 65.5l4 39q25 88 93.5 154.5t158.5 121t190.5 101.5t188.5 98q49 29 80 51.5t80 32.5q41 8 71.5 -2t60.5 -26.5t59.5 -35t68.5 -28.5q23 -8 63.5 -11t79.5 -10.5t67 -22.5t21 -48q-2 -20 -16 -33.5t-32.5 -25t-40 -22.5 t-35.5 -26q-27 -70 -35 -117.5t-17 -111.5l-12 -80l-6 -33l-12 -86l-2 -16q-2 -6 -3.5 -24.5t3 -39t14.5 -35t29 -9.5q23 4 35 14t36 14q4 2 12.5 -4t16.5 -15t14 -20.5t4 -19.5q-2 -12 -5 -19.5t-10 -12.5t-19.5 -12t-30.5 -20q-18 -18 -62.5 -54t-93.5 -75t-93 -73.5 t-62 -53.5l-33 -6q-51 -10 -93 13.5t-76 55.5t-58.5 59.5t-38.5 25.5q-31 -6 -75 -47t-94.5 -89.5t-102.5 -90.5t-95 -50q-41 -8 -66.5 3.5t-48.5 25.5q-53 31 -85 70t-45 85t-13 97zM461 1409l704 358q12 6 67.5 4t130.5 -10t158 -19t151.5 -22.5t110.5 -21.5t38 -15 l-410 -272l-219 199q-14 -14 -57 -53t-94.5 -85.5t-100.5 -89.5t-76 -65q-12 -10 -47 -8t-82 10t-98 21.5t-92 26.5t-65.5 24.5t-18.5 17.5zM862 375q0 -12 17 -13h6l8 3q6 6 19.5 17t26.5 23.5t23.5 24.5t10.5 19l71 495l-8 4t-18 10q-12 8 -25.5 20.5t-19.5 16.5l-12 -2 l-7 -2l-22 -57l-2 -16l-15 -93l-6 -39l-28 -208q-17 -97 -19 -203z" />
<glyph unicode="&#xe3;" horiz-adv-x="1372" d="M340 291q0 53 10 112l23 160l4 41q4 35 11 65.5t11 65.5l4 39q29 88 97.5 154.5t158 121t187.5 101.5t188 98q49 29 80 50.5t84 31.5q39 8 69.5 -1t59.5 -25.5t58.5 -35t68.5 -28.5q23 -10 64 -13t79.5 -9.5t65.5 -21.5t20 -48q-2 -23 -15 -36t-32.5 -24.5t-41 -22.5 t-35.5 -26q-25 -68 -34 -117t-18 -112l-12 -78l-6 -33l-10 -86l-2 -16q0 -6 -2 -25.5t1 -39t13 -34t31 -10.5q23 4 35 14.5t34 14.5q4 0 13.5 -6t17.5 -15.5t13 -19.5t5 -18q-2 -6 -2 -13q0 -4 -4 -8q-4 -10 -16 -16t-41 -29q-20 -18 -65.5 -54t-94.5 -75t-92 -73.5 t-61 -51.5l-33 -6q-51 -10 -93 13.5t-76 55t-58.5 59.5t-38.5 26q-31 -6 -75 -47t-95.5 -89.5t-102.5 -90.5t-94 -50q-41 -8 -65.5 3.5t-49.5 25.5q-53 31 -83.5 69.5t-44 85t-13.5 97.5zM449 1450l423 274l224 -102q35 35 78 81t106 93q12 10 62.5 11t119 -4t144 -14 t138 -19.5t100.5 -18.5t34 -14l-426 -275l-203 82q-35 -29 -89 -68.5t-113 -84.5q-12 -10 -63.5 -11.5t-120 4t-144.5 14.5t-138.5 18t-100.5 18.5t-31 15.5zM868 373q-6 -10 13 -15l8 2l6 2q8 6 21.5 17.5t25.5 24t22.5 24.5t10.5 18l72 496l-29 14q-10 6 -23.5 19.5 t-21.5 17.5l-12 -4h-7l-20 -57l-2 -17l-12 -94l-9 -37l-28 -209q-8 -47 -13.5 -97t-1.5 -105z" />
<glyph unicode="&#xe4;" horiz-adv-x="1372" d="M343 292q-1 -52 13.5 -97t45 -84t83.5 -70q23 -16 49.5 -27.5t67.5 -3.5q43 8 94.5 50t101.5 90.5t95 89.5t74 47q14 2 38.5 -26t58.5 -59.5t76 -55t93 -13.5l35 6q18 18 61 53t92 74t94.5 75t63.5 54q18 12 30.5 19.5t18.5 12.5t9 12t5 20q2 8 -3 19t-13 20.5t-16 15.5 t-15 4q-23 -4 -35 -14t-34 -15q-18 -4 -28.5 11.5t-14.5 35t-3 39t3 23.5v16l14 88l2 31l14 80q8 63 16.5 111.5t35.5 117.5q16 14 36.5 25.5t39 23t33 24.5t16.5 34q4 33 -23 48t-65.5 22.5t-79.5 10.5t-64 11q-39 10 -68.5 28.5t-58 35t-59.5 26.5t-72 2q-27 -6 -46 -14 t-36.5 -18.5t-37 -23.5t-44.5 -28q-88 -51 -187 -98t-189.5 -101.5t-158 -121t-91.5 -154.5l-7 -39q-4 -35 -11 -65.5t-11 -65.5l-4 -39l-25 -162q-8 -59 -9 -111zM535 1507q-6 -35 12 -63.5t52 -48t79 -27.5t88 0t83 28.5t72.5 47t54 58.5t28.5 65q10 102 -51.5 136.5 t-217.5 20.5q-33 -25 -66.5 -50t-62 -52t-48 -55.5t-23.5 -59.5zM870 373q0 53 5.5 104t13.5 98l26 209l7 39l14 92l4 17l21 57l6 2l10 2q8 -4 20.5 -16t26.5 -21q10 -6 20 -10l9 -4l-72 -496q-2 -6 -12.5 -17t-22.5 -24.5t-25.5 -24.5t-19.5 -18l-8 -2h-8q-15 3 -15 13z M1333 1663q-6 -33 13.5 -61.5t53.5 -48t78 -27.5t89 0q43 8 83 28.5t71.5 47t52 58.5t26.5 64q16 100 -47 136t-217 22q-33 -25 -67.5 -50.5t-63.5 -53t-48.5 -56t-23.5 -59.5z" />
<glyph unicode="&#xe5;" horiz-adv-x="1372" d="M350 291q0 -51 13.5 -96t45 -84t85.5 -70q23 -14 47 -26.5t65 -4.5q43 8 94.5 50t102.5 91.5t95 90.5t75 47q14 2 38.5 -25.5t58.5 -60.5t76 -56.5t93 -13.5l33 8q18 16 62 51t93.5 74t94.5 75t63 54q29 18 41 25.5t16 17.5q4 4 5 8q0 6 2 14.5t-3.5 18.5t-13.5 19.5 t-16 15.5t-14 6q-25 -4 -37.5 -15t-34.5 -16q-18 -4 -28.5 11.5t-13.5 35t-3 37.5q0 20 2 27l2 14l14 88l2 31l13 80q8 63 17 111.5t34 117.5q16 14 36.5 25.5t40 23t33 24.5t15.5 34q6 35 -19.5 50t-64.5 21.5t-81 9.5t-65 13q-39 8 -68.5 26.5t-58 35t-59.5 26.5t-72 2 q-27 -6 -46 -14t-37.5 -18.5t-37 -23.5t-43.5 -28q-88 -49 -186 -96t-187 -101.5t-158 -121t-97 -154.5l-4 -41q-4 -35 -11.5 -64.5t-11.5 -66.5l-6 -39l-23 -159q-8 -61 -8 -115zM831 1434q-2 -10 37 -20.5t92.5 -17.5t106.5 -10.5t82 3.5q8 2 14 4l6 2q2 0 18.5 9t36 20.5 t39 22.5t25.5 15q90 41 139.5 60.5t75 40t33.5 49t18 88.5l2 20q2 12 3.5 24.5t1.5 24.5l4 19q-14 33 -55.5 65.5t-118.5 28.5q-4 -4 -23.5 -13t-43.5 -19.5t-44 -17.5t-27 -7q-23 -8 -79 -25.5t-114.5 -36t-104.5 -33t-46 -16.5l-37 -246q-39 -6 -41 -26v-8zM879 373 q2 55 4 105t10 97l29 211l4 37l16 92l2 17l21 57l8 2l10 2q8 -4 21.5 -16t23.5 -21l29 -14l-72 -493q0 -6 -10 -18.5t-23.5 -26t-27 -24.5t-19.5 -18h-6l-8 -2q-18 3 -12 13zM1192 1542l29 197q16 -2 27.5 -9.5t11.5 -11.5l-27 -184q-16 -4 -29.5 -2t-11.5 10z" />
<glyph unicode="&#xe6;" horiz-adv-x="2091" d="M227 207q0 53 9 112l30 201q2 35 9.5 65.5t11.5 65.5l4 39q29 88 97.5 154.5t157.5 121t188.5 101.5t187.5 96q45 29 77.5 51.5t85.5 32.5q39 8 70 -1t59.5 -25.5t58.5 -35t68 -28.5q10 -4 24.5 -6t29.5 -6q76 49 165 98t174 89t154.5 69t110.5 37l20 4q8 -2 21.5 -4 l27 -4t23.5 -4l10 -3l248 -282q-2 -2 0 -15.5t-2 -23.5q-6 -53 -55 -97t-120 -84t-152 -77t-151.5 -74t-120.5 -77t-56 -85q-4 -25 12 -42t44 -27.5t63.5 -15.5t70.5 -5q25 0 47.5 2t40.5 6q57 12 102.5 31t92.5 35q27 10 54.5 17.5t47.5 7.5q23 0 35 -8.5t10 -28.5 q-4 -18 -47 -58.5t-109.5 -91.5t-146.5 -107.5t-154.5 -104.5t-137 -80.5t-95.5 -39.5q-82 -16 -167 5.5t-163 62.5q-47 -37 -85 -67.5t-58 -47.5l-33 -6q-51 -10 -93 13.5t-76 55.5t-58.5 59.5t-38.5 25.5q-31 -6 -75 -47t-95 -89.5t-102.5 -90.5t-94.5 -50 q-41 -8 -65.5 3.5t-46.5 25.5q-53 31 -85 69.5t-45.5 85t-13.5 97.5zM756 289q-6 -10 12 -15l14 5q8 6 21.5 17t26 23.5t22.5 24.5t10 18l72 496l-8 4t-21 8q-10 8 -22.5 21.5t-22.5 15.5l-16 -2l-23 -57l-51 -356q-8 -47 -13 -97.5t-1 -105.5zM1679 807l21 9 q20 9 44.5 22.5t47.5 29t25 25.5q0 2 -11.5 22.5t-21.5 30.5q-6 2 -17.5 12.5t-23.5 23.5t-21.5 24.5t-9.5 15.5z" />
<glyph unicode="&#xe7;" horiz-adv-x="1218" d="M174 244l94 647q2 29 29 56.5t61.5 54t74.5 48t71 37.5q25 10 74 31t109.5 47.5t127 56t125.5 56.5t107.5 48.5t72.5 31.5q6 0 11.5 2t13.5 4q25 4 45 -10.5t37.5 -34t29 -35.5t17.5 -16q6 -12 24.5 -45t40 -68t41 -64.5t27.5 -37.5l2 -5q2 -6 2 -10q-6 -35 -60.5 -75.5 t-123 -76.5t-134 -62.5t-96.5 -32.5q-47 -8 -76.5 9t-49 43.5t-33 54.5t-25.5 40l-63 -432q-4 -31 26.5 -48.5t75.5 -23.5t94 -4t82 8q66 12 123 40t117 38q41 8 51 -8t6 -39q-2 -18 -6 -33q-10 -20 -30.5 -34.5t-65.5 -43.5q-23 -16 -78 -51t-122 -78t-136.5 -87 t-120.5 -76q104 -10 164.5 -54.5t50.5 -132.5q-6 -29 -14.5 -49t-21.5 -40.5t-33.5 -42t-53.5 -50.5l-121 -45q-106 -16 -173.5 3t-84.5 79q12 31 41 50t65 34.5t73.5 29t66.5 31.5q-53 25 -106.5 56.5t-88.5 66.5q-61 8 -126.5 32.5t-119 57.5t-85 73t-25.5 79z" />
<glyph unicode="&#xe8;" horiz-adv-x="1259" d="M348 317l82 557q4 37 53 84.5t124 98.5t165 101t177 91t159 70t111 37l24 6q8 -2 21.5 -4l27 -4t23.5 -4l10 -2l250 -283q-4 -2 -6 -17.5t0 -25.5q-6 -51 -55.5 -94t-120 -83t-151.5 -77t-151.5 -75t-119.5 -76.5t-56 -84.5q-4 -25 12.5 -42t44 -27t63.5 -15.5t71 -5.5 q53 0 86 9q61 12 104 30.5t90 34.5q27 10 54.5 17.5t50.5 7.5t35 -8.5t10 -28.5q-2 -16 -46 -57t-110.5 -92.5t-147.5 -108t-157 -103.5t-138.5 -80.5t-92.5 -39.5q-84 -16 -175 5t-165 65t-119 103.5t-37 120.5zM811 1679l344 217l150 -258l3 -5q3 -5 -3 -7 q-23 -49 -71 -81t-120 -85q-10 -8 -37.5 3.5t-63.5 35t-74 53t-68.5 57t-48 47t-11.5 23.5zM903 727l21 9q20 9 44.5 22.5t46 29t23.5 25.5q4 2 -10 21.5t-22 29.5q-6 4 -17.5 15.5t-23 23.5t-20.5 23.5t-9 15.5z" />
<glyph unicode="&#xe9;" horiz-adv-x="1259" d="M346 317l84 557q4 37 53 84.5t124 98.5t165 101t177 91t159 70t111 37l24 6q8 -2 20.5 -4t26 -4t23.5 -4t12 -2l246 -283q0 -2 -2 -17.5t0 -25.5q-6 -51 -55.5 -94t-120 -83t-152.5 -77t-152.5 -75t-119.5 -76.5t-56 -84.5q-4 -25 12.5 -42t45 -27t63.5 -15.5t70 -5.5 q78 0 129 16.5t92 35.5q25 10 62.5 23t71.5 19.5t57.5 1t19.5 -33.5q-2 -16 -46 -57t-110.5 -92.5t-147.5 -108t-157 -103.5t-138.5 -80.5t-92.5 -39.5q-84 -16 -175 5t-166 65t-121 103.5t-36 120.5zM890 1543q-1 1 1 5l2 6l237 334l306 -92q4 -2 -20.5 -30.5t-65.5 -69.5 t-90.5 -88t-94.5 -85t-77.5 -61.5t-38.5 -17.5q-29 14 -55.5 23.5t-47 18.5t-35 22.5t-18.5 35.5q-2 -2 -3 -1zM903 725q2 2 22.5 12.5t45 23.5t45 27.5t22.5 24.5q4 2 -11 21.5t-23 29.5q-4 2 -14.5 13.5t-22 24.5t-21.5 24.5t-12 15.5z" />
<glyph unicode="&#xea;" horiz-adv-x="1259" d="M336 324l78 555q4 37 54 84t125 98t165 101t177 92t159.5 71t111.5 37l23 4q16 -4 48 -8t34 -4l248 -283q-2 -2 -3.5 -17.5t0.5 -25.5q-8 -51 -58 -95t-120.5 -84t-151.5 -77t-150.5 -75t-119 -76.5t-55.5 -83.5q-4 -25 11.5 -42.5t43 -27.5t63.5 -15.5t71 -5.5 q57 0 90 9q55 12 101 30.5t93 34.5q27 10 54.5 17.5t48.5 7.5q23 0 34 -8.5t9 -28.5q-4 -18 -47 -58t-110 -91.5t-146.5 -107.5t-155.5 -103.5t-137.5 -81t-92.5 -39.5q-84 -16 -175 5t-165.5 65t-119.5 104.5t-35 122.5zM350 1427l737 367q12 6 72 4t138.5 -8t166.5 -16.5 t160 -21.5t116 -21.5t36 -16.5l-424 -272l-234 196q-20 -16 -66 -56t-98.5 -87t-100.5 -90t-75 -64q-12 -10 -50 -9t-88 9.5t-103.5 20.5t-97.5 25.5t-69.5 23.5t-19.5 16zM889 731l21 11q20 10 45.5 23t47 27.5t23.5 24.5l-4 7q-4 7 -10 15.5t-12.5 16.5t-8.5 14 q-4 2 -15 13.5t-23.5 24t-22.5 23.5t-10 15z" />
<glyph unicode="&#xeb;" horiz-adv-x="1259" d="M336 317q-10 -61 35 -120.5t118.5 -103.5t166 -65.5t175.5 -4.5q31 6 93.5 38.5t138.5 80.5t155.5 103.5t146.5 106.5t111 91t48 59q2 20 -11.5 28.5t-35.5 8.5q-20 0 -48 -7.5t-55 -17.5q-47 -16 -91 -34.5t-103 -30.5q-37 -6 -86 -7q-49 0 -94.5 8.5t-74 28t-24.5 51.5 q6 45 55.5 85t120 77t151.5 75t151.5 77t119.5 83t57 95q2 10 3 25q0 16 2 18l-248 283q-2 0 -34 4t-48 8l-25 -4q-39 -8 -111.5 -37t-158.5 -71t-176 -92t-165 -101t-124 -98.5t-53 -84.5zM510 1518q-6 -33 11.5 -62t51 -49.5t77.5 -28.5t91 2q43 8 83 29t73 47.5t54.5 58 t25.5 62.5q12 104 -50 139t-216 21q-33 -25 -67 -50.5t-62.5 -53t-48 -56.5t-23.5 -59zM891 725l31 215q0 -4 9 -15.5t20.5 -24.5t23.5 -23.5t18 -12.5q8 -10 20.5 -30.5t12.5 -22.5q-2 -10 -23.5 -25.5t-46 -29t-34.5 -18.5zM1233 1659q-6 -35 13.5 -63.5t53 -49t78.5 -28 t88 3.5q43 8 83 28.5t73 47t54.5 58.5t25.5 62q14 104 -48 140t-218 20q-31 -23 -65 -48.5t-63.5 -53t-50 -57t-24.5 -60.5z" />
<glyph unicode="&#xec;" horiz-adv-x="905" d="M403 815q-10 -10 5.5 -27.5t31.5 -25.5q6 -2 19.5 -5t29 -5t29.5 -2q15 0 23 2l-80 -555q-4 -23 22.5 -52.5t65.5 -57.5t82 -44t74 -10q37 6 106.5 47t139 94t123.5 104.5t61 79.5q8 74 -129 35q-2 16 -2 64q0 47 2 100t3 101.5t3 66.5q6 45 31.5 74.5t53 53.5t51 45.5 t28.5 49.5q0 6 -4 12l-3 5l-266 157q-35 20 -64.5 18.5t-51 -12t-36 -23.5t-20.5 -15zM604 1534q-4 -2 13.5 -22.5t46 -48t65.5 -57.5t72 -53.5t63.5 -35.5t38.5 -2q37 27 67.5 46t55.5 36.5t43 37t31 46.5q6 2 3 7l-3 5l-150 258z" />
<glyph unicode="&#xed;" horiz-adv-x="905" d="M408 815l327 275q8 4 26.5 22t57.5 27q45 8 84 -17l268 -157l3 -5q2 -6 2 -12q-4 -29 -27 -50t-50.5 -45t-53 -53.5t-31.5 -74.5q-4 -18 -6 -66.5t-3 -101.5t0 -100t3 -64q135 39 127 -35q-2 -18 -28 -47.5t-66 -64.5t-88 -71t-95 -66.5t-88 -51t-63 -24.5q-31 -6 -75 10 t-82 44t-64.5 57.5t-22.5 52.5l80 555q-6 -2 -22.5 -1t-33 3t-31 4t-16.5 6q-16 6 -31.5 23.5t-0.5 27.5zM614 1399l2 6l238 332l303 -90q6 -2 -18.5 -31t-66.5 -70t-92 -87t-95 -85t-77 -62.5t-36 -17.5q-29 14 -55.5 23.5t-47 19t-34.5 21.5t-19 35q-6 0 -2 6z" />
<glyph unicode="&#xee;" horiz-adv-x="905" d="M182 1294l656 346q16 8 67 7.5t120 -10t144.5 -22.5t138 -25.5t102.5 -24t38 -15.5l-379 -260l-207 195q-14 -14 -54 -53t-88 -83t-93 -86t-70 -61q-12 -10 -46 -8t-77 11t-89 22.5t-84 27t-60.5 24.5t-18.5 15zM391 825l328 275q8 4 25.5 22.5t58.5 26.5q47 10 86 -16 l268 -158l1 -5t1 -12q-4 -29 -27.5 -50t-51 -44.5t-53.5 -54.5t-32 -76q-4 -18 -6 -66.5t-3 -101.5t0 -100t5 -64q137 43 127 -34q-2 -18 -26.5 -47t-64.5 -64t-88 -70.5t-95 -66.5t-88 -52.5t-66 -25.5q-31 -6 -74 11.5t-81.5 44t-64.5 57t-21 53.5l77 555q-8 -2 -22.5 -1 t-30.5 2t-29.5 4t-19.5 5q-16 8 -31.5 25.5t-1.5 27.5z" />
<glyph unicode="&#xef;" horiz-adv-x="905" d="M315 1372q-6 -33 13.5 -61.5t53.5 -48t77 -27.5t88 2q43 8 84 28.5t72.5 47t53 58.5t25.5 63q16 104 -46 137.5t-220 19.5q-31 -25 -64.5 -50t-62.5 -53t-49.5 -56.5t-24.5 -59.5zM391 815q-10 -10 4.5 -27.5t32.5 -25.5q6 -2 18.5 -5t27.5 -5t30 -2q14 0 22 2l-77 -555 q-4 -23 22.5 -53.5t64 -58.5t80.5 -44t74 -10q25 6 66 27.5t87 51t94 65.5t88 70t65.5 63.5t29.5 47.5q10 78 -129 35q-4 18 -4 64q0 47 2 100t4 101.5t4 66.5q6 45 32 75.5t54.5 54.5t52 45.5t25.5 49.5q0 6 -2 12l-2 5l-266 157q-35 20 -64.5 18.5t-52 -12t-37 -23.5 t-18.5 -15zM971 1503q-6 -35 11 -63.5t51 -48t78 -27.5t89 0q43 8 83 28.5t71.5 47t53.5 58.5t28 65q14 104 -47.5 137.5t-221.5 19.5q-33 -25 -66.5 -50t-61 -52t-46 -55.5t-22.5 -59.5z" />
<glyph unicode="&#xf0;" horiz-adv-x="1259" d="M287 283l1 14t-1 25q4 37 34.5 72.5t76.5 67.5t103.5 61.5t116.5 56.5q82 37 152 73.5t119 75.5q49 41 55 86t-43 64q-78 -37 -128 -60.5t-42 -17.5l82 100q-20 2 -38.5 3t-35.5 1q-49 0 -91 -11t-82 -26.5l-80 -31t-85 -25.5q-41 -8 -62.5 -2t-16.5 35q4 16 48 57 t110.5 92t146.5 107.5t155.5 103.5t138 81t93.5 40q72 14 150.5 -1t146.5 -50l205 92l4 2q4 0 6 -1t4 -1q-4 -35 -29.5 -72t-73.5 -96q41 -39 65 -83t17 -87l-77 -555q-6 -37 -55.5 -84t-125 -98t-167 -101.5t-177.5 -92.5t-158.5 -70.5t-111.5 -36.5l-23 -4q-16 4 -46.5 8 t-32.5 6zM819 535q0 -2 11.5 -23t19.5 -31q6 -4 18.5 -14t24.5 -22.5t21.5 -22.5t9.5 -16l30 215l-22 -11q-21 -10 -45.5 -23.5t-45 -28.5t-22.5 -23z" />
<glyph unicode="&#xf1;" horiz-adv-x="1701" d="M345 134.5q-7 11.5 1 21.5q2 6 22.5 23.5t44 37t45 35.5t27.5 20l80 557q4 23 -22.5 22t-58 -5t-58.5 1t-23 40q4 8 7.5 18t1.5 13q37 37 87 81.5t105 89t113.5 84t113.5 66.5l23 4q51 10 95 -3t80 -38.5t63.5 -56.5t46.5 -55q49 27 110.5 73.5t126 95t128 87t116.5 49.5 q2 0 11 1l9 1q2 -2 24 -16.5t47.5 -31t50 -29.5t30.5 -13l158 -60q23 -8 49 -25.5t26 -19.5q-2 -8 -12 -23.5t-25.5 -33t-32 -31.5t-28.5 -20l-80 -557q23 0 46.5 -3.5t41 -10.5t26.5 -19t7 -33q-4 -23 -8 -31q-10 -16 -32.5 -31.5t-63.5 -48.5l-369 -251q-6 0 -19.5 -6.5 t-23.5 -10.5q-25 -4 -68 8.5t-85 34t-70.5 48t-22.5 50.5l105 740l-60 18l-49 -39l-86 -616q6 -6 18.5 -26.5t14.5 -26.5l-2 -19l-2 -14l-47 -37q-41 -29 -102.5 -72t-119 -83t-99.5 -68.5t-46 -28.5l-45 -8l-268 127q-8 4 -22.5 12t-29 19.5t-21.5 23zM553 1456l424 273 l223 -101q35 35 79 81t105 93q12 10 62.5 11.5t119 -4t144.5 -14.5t138.5 -18.5t101.5 -18.5t35 -15l-431 -275l-194 82q-37 -29 -94.5 -69.5t-116.5 -85.5q-14 -10 -64 -11q-39 0 -95 4.5t-117.5 10.5t-122 14t-106.5 15.5t-72.5 14.5t-18.5 13z" />
<glyph unicode="&#xf2;" d="M326 197l2 20q2 23 17 40t56 26l99 678q0 6 43 23t108.5 40t145.5 49.5t155.5 53t137 49t92.5 38.5q12 4 50 23.5t82 43.5t83 45.5t49 29.5q76 0 132 -29t96 -72t64.5 -95t37.5 -101l-4 -47q-4 -35 -8.5 -69t-8.5 -69l-6 -47q-14 -111 -26.5 -181.5t-33 -117.5t-54 -79.5 t-90 -66.5t-140.5 -76t-207 -109q-8 -6 -42 -31t-73 -53.5t-73.5 -52t-42.5 -27.5l-15 -3q-14 -3 -26 -7q-37 -8 -96.5 -4t-128 16t-137 30.5t-123 41t-87 46.5t-28.5 44zM817 1620l344 217l152 -256l2 -5q2 -5 -4 -7q-23 -49 -72 -82t-121 -86q-10 -8 -37.5 4t-63.5 35.5 t-74 54.5t-67.5 57.5t-47 46t-11.5 21.5zM1024 434q-2 -20 25.5 -23t56.5 3l72 499q2 20 -23.5 44t-50.5 32z" />
<glyph unicode="&#xf3;" d="M315 195l4 22q2 23 19.5 40t58.5 24l97 680q0 6 43 22t108.5 40t145 50.5t155.5 53t137.5 49t92.5 38.5q6 2 45 20.5t85 42t86 46.5t50 33q74 0 130 -29t96 -72t65.5 -95t38.5 -101l-7 -47q-4 -35 -9 -70t-7 -70l-8 -45q-18 -113 -31.5 -183.5t-33 -117.5t-52.5 -78.5 t-87 -65.5t-138 -76t-207 -109q-10 -6 -44 -31t-72 -52.5t-71.5 -52t-43.5 -28.5l-15 -4q-14 -4 -24 -6q-37 -6 -96.5 -2t-127 15t-137 29.5t-125 39t-89.5 44t-32 46.5zM937 1472l5 7l236 329l301 -92q4 -2 -20.5 -29.5t-63.5 -67.5t-87 -87t-92.5 -85t-78 -62.5 t-43.5 -20.5q-31 14 -56.5 23.5t-45 19.5t-33 23.5t-17.5 35.5q-10 -2 -5 6zM1018 434q-2 -10 5 -15t19.5 -8t27.5 -2t28 3l71 501q4 18 -21 43t-50 33z" />
<glyph unicode="&#xf4;" d="M315 193l2 22q6 23 22.5 40t57.5 26l97 677q0 6 43 23.5t108.5 40t145 49.5t155.5 53.5t137.5 49t92.5 38.5l47 23.5l84 42t85 44t50 32.5q74 0 129 -29t96 -72t66.5 -95t38.5 -101l-9 -47q-4 -35 -8 -69t-6 -69l-8 -47q-14 -111 -27.5 -181.5t-33 -117.5t-53.5 -79.5 t-90 -66.5t-140 -76t-207 -109q-8 -6 -41 -31t-72 -53.5t-72.5 -52t-41.5 -27.5l-15 -3q-16 -3 -26 -8q-37 -8 -96.5 -4t-128 15.5t-138.5 31t-125 41t-89 45.5t-30 44zM475 1446l742 364q14 6 73.5 5.5t137 -7t164.5 -17.5t159 -22.5t116 -20.5t40 -15l-428 -275l-232 197 q-20 -16 -66 -56t-98.5 -86.5t-100.5 -89.5t-73 -65q-12 -10 -51 -9t-89 9t-104.5 20.5t-98.5 25.5t-69.5 24.5t-21.5 17.5zM1018 432q-2 -10 5 -15t19.5 -7t26.5 -2q16 0 29 4l71 499q4 20 -21 44t-50 32z" />
<glyph unicode="&#xf5;" d="M309 193l2 22q4 23 20.5 39t57.5 25l100 679q0 6 42 22.5t106.5 40t144.5 50.5t155 53.5t137.5 49t92.5 36.5q8 4 48 23.5t86.5 42t85 45t49.5 33.5q74 0 129 -29t96 -72t66.5 -95t37.5 -101l-6 -47q-4 -35 -9 -70t-9 -70l-6 -45q-14 -111 -26.5 -181.5t-33 -118.5 t-54.5 -80.5t-90 -65.5t-140 -75t-205 -109q-10 -6 -44 -31t-72 -52.5t-71.5 -52t-44.5 -28.5l-14 -4t-25 -7q-37 -8 -96 -4t-127.5 15.5t-138.5 31t-125 41t-89 45.5t-30 44zM471 1444l424 274l223 -102q35 35 78 82t107 94q12 8 61 8q51 0 119.5 -5t144.5 -13t139.5 -17.5 t102.5 -18.5t33 -13l-428 -275l-201 80q-35 -29 -90.5 -67.5t-114.5 -84.5q-12 -10 -63.5 -11t-120 4t-145 13.5t-139 17.5t-100.5 18.5t-30 15.5zM1014 432q-4 -20 23.5 -23t56.5 1l71 501q2 18 -22 43t-49 33z" />
<glyph unicode="&#xf6;" d="M309 195q-2 -23 32 -45.5t89 -45t124 -41t137.5 -31t128 -15.5t95.5 6q12 2 25 5l14 3q10 4 43 27.5t72 52t73 53t44 31.5q123 68 207 110.5t139 75.5t88 65.5t52.5 79.5t32.5 119t30 182l8 45q2 35 7 69t9 69l6 49q-12 49 -36.5 101t-64.5 95t-96.5 72t-131.5 29 q-12 -8 -51 -29.5t-83.5 -46.5t-83 -44t-51.5 -24q-31 -14 -93 -36.5t-137 -49t-155 -53t-144.5 -50.5t-106.5 -40t-42 -22l-98 -680q-41 -8 -57.5 -24.5t-18.5 -39.5zM545 1473q-6 -35 11 -64t51 -49.5t79 -27.5t90 3q43 8 84 28.5t73 47.5t52.5 58.5t26.5 62.5 q12 104 -47.5 139t-219.5 19q-33 -25 -66.5 -50.5t-62 -52t-48 -55.5t-23.5 -59zM1014 432l80 557q25 -10 50 -33.5t21 -44.5l-71 -499q-29 -4 -56.5 -1t-23.5 21zM1343 1630q-6 -35 12.5 -63.5t52.5 -48t78 -27.5t89 0q43 8 83 28.5t72.5 47t54 58.5t27.5 65 q10 104 -51 138.5t-215 20.5q-33 -25 -67.5 -50t-63.5 -53t-48 -56.5t-24 -59.5z" />
<glyph unicode="&#xf7;" horiz-adv-x="1157" d="M244 471q-4 -2 7 -3t36 -1q41 0 109.5 2t148.5 6t164 9t153.5 11.5t119.5 11.5t62 11q55 29 99.5 49.5t80.5 37t64.5 31.5t50.5 38q2 2 -2 5l-4 3l-547 10zM567 172q-4 -33 15.5 -61.5t53.5 -48t78 -27.5t87 0t83 28.5t71.5 47t53 58.5t27.5 64q16 100 -47 136t-219 22 q-35 -25 -68.5 -50.5t-61.5 -53t-47.5 -56t-25.5 -59.5zM676 911q-6 -35 13.5 -63.5t53 -48t77.5 -27.5t89 0q43 8 82 28.5t72 47t54.5 58.5t27.5 65q12 104 -50 137.5t-216 19.5q-33 -25 -68 -50t-63.5 -52t-48 -55.5t-23.5 -59.5z" />
<glyph unicode="&#xf8;" d="M225 186l2 21q6 23 21.5 40t56.5 25l96 678q0 6 42 22.5t108.5 40t146.5 51.5t156 54.5t138.5 49t92.5 36.5q8 4 46 23.5t84.5 42t86 45t50.5 33.5q70 -2 126 -31t97 -72t67.5 -95t38.5 -101l-8 -48q-4 -35 -8 -68.5t-8 -68.5l-6 -45q-14 -111 -27.5 -181.5t-33 -118.5 t-53.5 -80.5t-90 -66.5t-140 -76t-207 -110q-10 -6 -43 -30.5t-71 -52t-71.5 -52t-44.5 -28.5l-14 -3q-14 -4 -25 -6q-37 -8 -96 -5t-127.5 15.5t-138.5 31t-125 41t-88 46t-31 43.5zM926 424q0 -8 9 -7t24.5 5t33 10t33.5 10l10 164l-94 -78zM973 733l112 117l-8 53 q-4 18 -25 43t-44 35z" />
<glyph unicode="&#xf9;" horiz-adv-x="1701" d="M362 188v5q1 6 5 14q0 2 1 7l1 5q6 4 18 11.5t26.5 14.5t27 13t18.5 8q12 10 29.5 23.5t17.5 15.5l78 537q-31 -6 -63 -16.5t-56.5 -13.5t-38.5 6t-8 42q4 25 14 40t27.5 29.5t44 32t61.5 46.5q20 12 67.5 47t97.5 74.5t95 73.5t64 46q10 2 22.5 5t22.5 6q74 14 122 -18 t76.5 -84t39 -111.5t6.5 -100.5q-2 -35 -14.5 -121t-24.5 -186q-8 -49 -16.5 -98t-15.5 -90t-12 -73t-10 -50l21 10l47 23.5t48.5 27.5t25.5 25l78 557q-6 6 -17.5 20.5t-22 31.5t-18.5 32.5t-8 21.5l2 17l2 14q121 59 224.5 132t189.5 159q12 -6 40.5 -20.5t63.5 -33 t74 -36t70 -29.5q39 -23 58 -33t27.5 -14t10.5 -6t6 -8v-21q-8 -43 -32.5 -71.5t-78.5 -71.5l-81 -555q-4 -25 22.5 -24t59 6t59 0t22.5 -42q-4 -23 -29.5 -53.5t-65.5 -65t-88 -68.5t-96 -63.5t-91 -49t-74 -25.5q-59 -12 -99 3t-74 36.5t-72 39t-93 7.5 q-59 -12 -113.5 -46t-106.5 -73t-103.5 -72t-104.5 -43l-23 -6q-23 12 -80 33.5t-119.5 50.5t-115.5 65.5t-68 77.5zM1044 1665l349 219l151 -258l2 -5t-6 -7q-25 -53 -73 -83t-121 -83q-12 -10 -40 1t-63 34.5t-70.5 54.5t-65.5 58.5t-48.5 47t-14.5 21.5z" />
<glyph unicode="&#xfa;" horiz-adv-x="1701" d="M365 194q-2 5 2 13q0 2 1 7l1 5q6 4 18 11.5t26.5 14.5t28 13t19.5 8q10 10 27.5 23.5t17.5 15.5l80 537q-33 -6 -65 -16.5t-56.5 -13.5t-38.5 6t-8 42q4 25 14 40t27.5 29.5t44 32t61.5 46.5q18 12 64.5 45.5t98.5 72.5t98 74t65 49q10 2 21.5 5t21.5 6q74 14 122 -18 t76.5 -84t39 -111.5t6.5 -100.5q-2 -35 -12.5 -121t-26.5 -186q-6 -49 -14.5 -98t-16.5 -90t-14.5 -73t-6.5 -50q2 2 24 12t46.5 23.5t46 28t23.5 24.5l78 555q-8 6 -18.5 21.5t-20 31.5t-17.5 31.5t-10 21.5l2 17l2 14q242 119 414 291q12 -6 39.5 -20.5t62.5 -33t73 -36 t73 -29.5q39 -23 59.5 -32t30.5 -13t12 -6t2 -10l-2 -21q-6 -41 -31.5 -70.5t-79.5 -72.5l-81 -555q-4 -25 22.5 -24t59 6t60.5 0t23 -42q-6 -33 -59 -85t-125 -102t-145.5 -90t-116.5 -48q-59 -12 -99 3t-74 36.5t-72 39t-93 7.5q-59 -12 -113.5 -46t-106.5 -73t-103.5 -72 t-104.5 -43l-20 -4q-23 12 -81.5 33.5t-121 50.5t-114.5 64.5t-64 76.5zM1128 1545l7 7l231 332l303 -92q2 0 -22.5 -27.5t-64.5 -68.5t-88 -88t-91 -86t-77 -62.5t-44 -17.5q-29 14 -54.5 23.5t-46 18.5t-33.5 21.5t-18 34.5q-10 -2 -2 5z" />
<glyph unicode="&#xfb;" horiz-adv-x="1701" d="M348 186v19q2 2 3 7l1 5q6 6 19.5 13.5t27 13.5t25.5 12t18 8q12 10 31 24.5t19 16.5l73 535q-31 -6 -62.5 -16.5t-56 -13.5t-38 6t-7.5 42q4 25 14.5 40t28 29.5t43 32t60.5 46.5q20 12 66 46.5t97.5 72.5t97.5 73t64 49q8 2 21.5 5t26.5 5q74 14 122 -17.5t75.5 -83.5 t37.5 -111.5t6 -100.5q-4 -35 -16 -121t-25 -186q-8 -49 -15 -98.5t-11 -89.5q-6 -41 -13.5 -73t-11.5 -48q2 0 23.5 10t47 23.5t47 27.5t23.5 25l80 555q-8 6 -18 21.5t-20.5 31.5t-18.5 31.5t-10 21.5l4 17v14q119 59 223 132t190 159q12 -6 40 -20.5t64 -33t73.5 -36 t70.5 -29.5q37 -23 57.5 -32t31 -13t12.5 -6t2 -10l-2 -21q-4 -41 -31 -69.5t-80 -73.5l-78 -553q-6 -27 20.5 -26t59.5 5t59.5 0t20.5 -41q-4 -33 -57.5 -84t-124 -101t-143 -90t-117.5 -48q-59 -12 -98.5 4t-74 37.5t-72.5 38t-95 4.5q-59 -12 -112.5 -46t-106 -73 t-104.5 -72t-105 -43l-21 -4q-23 12 -81 33.5t-120.5 50.5t-116 64.5t-63.5 76.5zM578 1417l737 365q14 6 73.5 5t138.5 -7t166 -17.5t158.5 -22.5t116.5 -20.5t39 -15.5l-426 -274l-231 196q-20 -16 -65.5 -55t-97.5 -85t-102.5 -89t-78.5 -68q-12 -10 -49 -8t-87.5 9 t-104.5 20.5t-97 27t-70 23.5t-20 16z" />
<glyph unicode="&#xfc;" horiz-adv-x="1701" d="M352 186q14 -41 66.5 -77.5t116 -66.5t121 -50.5t81.5 -30.5l19 4q55 10 106 44t103.5 72t106.5 72.5t114 47.5q55 10 93 -7.5t71.5 -39t73.5 -37t100 -2.5q45 8 117.5 48t143 90t124 101.5t57.5 83.5q6 39 -20.5 43t-59.5 0t-59.5 -6t-22.5 25l80 553q53 45 80 73.5 t31 69.5l2 23q4 10 -3 14t-38 14q-20 8 -64.5 29.5t-93.5 45.5t-92 45.5l-59 29.5q-170 -170 -414 -289l-2 -16l-2 -17q2 -6 9 -21.5t17.5 -32.5t20.5 -31.5t18 -20.5l-77 -555q-4 -10 -27 -25.5t-48.5 -29t-45.5 -22.5l-21 -9q4 16 10.5 48t12.5 73q4 41 13 90t15 98 q14 104 25.5 188t15.5 119q4 39 -6 99.5t-38.5 112.5t-78 85t-120.5 19q-10 -4 -22.5 -6.5t-20.5 -4.5q-18 -12 -64.5 -47t-96.5 -75t-97.5 -74.5t-69.5 -46.5q-35 -29 -60.5 -46.5t-43 -32t-27.5 -29.5t-14 -40q-6 -35 7 -43t37.5 -5t57.5 14.5t65 17.5l-79 -537 q0 -2 -18.5 -16.5t-28.5 -24.5q-6 -2 -19.5 -8t-27 -13t-25.5 -13.5t-19 -10.5l-1 -5t-1 -7q-4 -8 -4 -14v-7zM696 1509q-6 -35 12.5 -63.5t52.5 -48t78 -27.5t87 0t83 28.5t71.5 47.5t53 58.5t27.5 64.5q14 104 -46 137.5t-220 19.5q-33 -25 -66.5 -50t-61.5 -52 t-47.5 -55.5t-23.5 -59.5zM1493 1665q-6 -33 13.5 -61.5t53 -48t76.5 -27.5t88 0q43 8 84 28.5t73 47t54.5 58.5t28.5 64q10 100 -52 137t-214 23q-33 -25 -68 -50.5t-63.5 -53t-49 -57t-24.5 -60.5z" />
<glyph unicode="&#xfd;" horiz-adv-x="1138" d="M319 219q8 47 22.5 91t31 88t30 89t19.5 95q8 61 1 113.5t-17.5 101.5t-17.5 99t1 110q18 125 100 220t246 128q47 10 70.5 2t46.5 -51q-14 -14 -39 -28.5t-47.5 -29t-39.5 -28t-17 -25.5q-2 -2 -1 -9l1 -7l184 -136l94 50l230 151l7 2q7 2 13 4q2 0 11 1l9 1l123 -88 q27 -10 40.5 -36.5t17.5 -49.5l-125 -852q-6 -45 -43 -100t-93.5 -112.5t-126 -113t-140 -100.5t-135 -75.5t-109.5 -38.5q-6 -2 -29 -7.5t-45.5 -6.5t-39.5 3.5t-17 20.5q82 68 137 116t91 93t56.5 95t32.5 124q0 4 1 21.5t5 35.5q4 20 4 37q0 18 2 27q-16 -12 -56 -40 t-84 -58.5t-84 -57.5t-52 -37l-10 -2q-9 -2 -13 -4q-39 -6 -84 6t-83 37t-60.5 59.5t-18.5 71.5zM819 1546l4 6l236 332l303 -90q4 0 -19.5 -27.5t-64.5 -68.5t-90 -89t-94 -87t-78 -62.5t-41 -17.5q-61 27 -103.5 42t-50.5 56q-6 0 -2 6zM844 403q61 12 92 60l6 37 q4 29 10 53.5t13 52.5l6 37l20 141q4 41 -4 72.5t-24 58.5l-50 -43z" />
<glyph unicode="&#xfe;" horiz-adv-x="1181" d="M238 303q-4 -29 7 -46t50 -9q16 2 29.5 11t25.5 19.5t26.5 19.5t33.5 13q6 0 20.5 1t20.5 1q0 -27 -3.5 -77t-3.5 -109t5.5 -119.5t21.5 -107.5t45 -73t76 -15q23 4 35 11t20 20.5t15.5 35t23.5 53.5q4 8 14.5 26.5t22.5 40t22.5 43t16.5 34.5q4 8 49 35.5t109.5 65.5 t139.5 82t139.5 83t108.5 69.5t48 43.5l86 575q0 10 -14.5 40t-39 60.5t-54 51t-60.5 14.5q-18 -4 -49 -20.5t-68 -39t-73.5 -47t-67.5 -46t-51.5 -35t-22.5 -13.5q-16 27 -31.5 74t-36 95t-48 86t-66.5 44l94 86q-6 16 -19.5 21.5t-31 4.5t-35.5 -6t-37 -7 q-141 -29 -210.5 -100.5t-82.5 -178.5q-8 -53 1.5 -92t21.5 -76t20 -77t2 -95q-8 -61 -44 -114.5t-76.5 -104.5t-75.5 -103.5t-43 -109.5zM872 520l43 307l48 41l34 -24l-53 -373z" />
<glyph unicode="&#xff;" horiz-adv-x="1138" d="M307 211q6 45 19.5 89t30 88t30.5 89t23 94q10 63 3 115.5t-18.5 102t-18.5 99.5t3 109q18 125 98 220.5t242 128.5q51 10 74.5 1.5t44.5 -51.5q-14 -14 -39 -28.5t-47.5 -28.5t-40 -27.5t-17.5 -25.5v-19l189 -133l90 49l227 152l8 2q9 2 19 4h16l121 -86 q29 -10 41 -36.5t18 -49.5l-120 -852q-6 -45 -44 -100.5t-94.5 -112.5t-127 -112.5t-141.5 -100.5t-135.5 -75.5t-111.5 -41.5q-10 -2 -30.5 -6t-42 -6t-38 3.5t-16.5 21.5q82 68 137.5 115.5t92 93t56 95.5t30.5 124q2 4 3 21.5t1 35.5q4 20 7 37.5t1 26.5q-16 -12 -55 -40 t-83 -59t-84 -57.5t-55 -36.5l-8 -3t-10 -3q-39 -6 -85 5t-84 35.5t-61.5 58.5t-17.5 75zM473 1524q4 31 23.5 59.5t48 56t63.5 53t68 50.5q154 14 217 -19.5t47 -138.5q-4 -33 -24.5 -64.5t-53.5 -59t-73.5 -48t-83.5 -29t-88.5 0t-79 28t-52 48t-12.5 63.5zM831 395 q57 12 91 60l4 34q4 29 11 53.5t15 53.5l4 39l19 139q12 80 -29 133l-47 -43zM1120 1649q4 31 24.5 60.5t49.5 57t62.5 53t64.5 48.5q156 16 220.5 -20t47.5 -136q-6 -33 -26.5 -65.5t-52 -59t-72.5 -47t-86 -29.5q-45 -10 -89 -1.5t-78 29t-52.5 49t-12.5 61.5z" />
<glyph unicode="&#x152;" horiz-adv-x="2123" d="M209 156l96 647q4 29 29.5 56.5t61.5 53t75 47t70 37.5q25 10 74 31t109 47.5t127 56t127 56t108.5 48t70.5 32.5q6 2 10 3t13 3q27 6 47 -8.5t36.5 -33t29 -35.5t18.5 -17q4 -12 17 -34t34 -48q70 57 167 114.5t194.5 105.5t181.5 81t127 41l24 4q18 -2 46 -6t32 -6 l250 -283q2 -2 -1 -16.5t1 -24.5q-8 -51 -57.5 -95t-121 -84t-152.5 -77t-151.5 -75t-120.5 -78t-57 -85q-6 -35 23 -53t74 -27.5t95 -8.5t89 7q39 8 71.5 20.5t62.5 25t60.5 23.5t67.5 17q41 8 62.5 2t17.5 -34q-4 -18 -47 -58.5t-108.5 -91.5t-145.5 -106.5t-155.5 -103.5 t-138 -80.5t-95.5 -39.5q-55 -10 -116.5 -3.5t-119 25.5t-107.5 50t-87 68q-49 -31 -125 -80t-153 -98.5t-142.5 -90t-91.5 -55.5q-4 0 -17.5 -3t-27.5 -7q-55 -10 -137 7.5t-156 53t-124 83.5t-44 100zM786 418q-6 -33 25 -50.5t76 -23.5t95 -4t83 8t53.5 13.5t36.5 13.5 l2 26l53 369q-121 -55 -174 -68q-47 -10 -77.5 7.5t-51 45t-33 55.5t-24.5 40zM1718 809l20 10q19 10 43.5 24.5t46 29t23.5 22.5q0 2 -11 22.5t-19 30.5q-6 4 -18.5 14.5t-25 22.5t-20.5 22.5t-8 16.5z" />
<glyph unicode="&#x153;" horiz-adv-x="2123" d="M209 156l96 647q4 29 29.5 56.5t61.5 53t75 47t70 37.5q25 10 74 31t109 47.5t127 56t127 56t108.5 48t70.5 32.5q6 2 10 3t13 3q27 6 47 -8.5t36.5 -33t29 -35.5t18.5 -17q4 -12 17 -34t34 -48q70 57 167 114.5t194.5 105.5t181.5 81t127 41l24 4q18 -2 46 -6t32 -6 l250 -283q2 -2 -1 -16.5t1 -24.5q-8 -51 -57.5 -95t-121 -84t-152.5 -77t-151.5 -75t-120.5 -78t-57 -85q-6 -35 23 -53t74 -27.5t95 -8.5t89 7q39 8 71.5 20.5t62.5 25t60.5 23.5t67.5 17q41 8 62.5 2t17.5 -34q-4 -18 -47 -58.5t-108.5 -91.5t-145.5 -106.5t-155.5 -103.5 t-138 -80.5t-95.5 -39.5q-55 -10 -116.5 -3.5t-119 25.5t-107.5 50t-87 68q-49 -31 -125 -80t-153 -98.5t-142.5 -90t-91.5 -55.5q-4 0 -17.5 -3t-27.5 -7q-55 -10 -137 7.5t-156 53t-124 83.5t-44 100zM786 418q-6 -33 25 -50.5t76 -23.5t95 -4t83 8t53.5 13.5t36.5 13.5 l2 26l53 369q-121 -55 -174 -68q-47 -10 -77.5 7.5t-51 45t-33 55.5t-24.5 40zM1718 809l20 10q19 10 43.5 24.5t46 29t23.5 22.5q0 2 -11 22.5t-19 30.5q-6 4 -18.5 14.5t-25 22.5t-20.5 22.5t-8 16.5z" />
<glyph unicode="&#x178;" horiz-adv-x="1138" d="M307 211q6 45 19.5 89t30 88t30.5 89t23 94q10 63 3 115.5t-18.5 102t-18.5 99.5t3 109q18 125 98 220.5t242 128.5q51 10 74.5 1.5t44.5 -51.5q-14 -14 -39 -28.5t-47.5 -28.5t-40 -27.5t-17.5 -25.5v-19l189 -133l90 49l227 152l8 2q9 2 19 4h16l121 -86 q29 -10 41 -36.5t18 -49.5l-120 -852q-6 -45 -44 -100.5t-94.5 -112.5t-127 -112.5t-141.5 -100.5t-135.5 -75.5t-111.5 -41.5q-10 -2 -30.5 -6t-42 -6t-38 3.5t-16.5 21.5q82 68 137.5 115.5t92 93t56 95.5t30.5 124q2 4 3 21.5t1 35.5q4 20 7 37.5t1 26.5q-16 -12 -55 -40 t-83 -59t-84 -57.5t-55 -36.5l-8 -3t-10 -3q-39 -6 -85 5t-84 35.5t-61.5 58.5t-17.5 75zM473 1524q4 31 23.5 59.5t48 56t63.5 53t68 50.5q154 14 217 -19.5t47 -138.5q-4 -33 -24.5 -64.5t-53.5 -59t-73.5 -48t-83.5 -29t-88.5 0t-79 28t-52 48t-12.5 63.5zM831 395 q57 12 91 60l4 34q4 29 11 53.5t15 53.5l4 39l19 139q12 80 -29 133l-47 -43zM1120 1649q4 31 24.5 60.5t49.5 57t62.5 53t64.5 48.5q156 16 220.5 -20t47.5 -136q-6 -33 -26.5 -65.5t-52 -59t-72.5 -47t-86 -29.5q-45 -10 -89 -1.5t-78 29t-52.5 49t-12.5 61.5z" />
<glyph unicode="&#x2c6;" horiz-adv-x="1472" d="M739 1470q-8 -6 17.5 -16t69.5 -23.5t98.5 -26.5t103.5 -20.5t88 -9.5t51 8q27 23 77 66t103.5 89t98.5 86l63 56l232 -196l428 274q6 6 -39 16.5t-116.5 21.5t-160 21.5t-167 16.5t-137 7t-72.5 -5z" />
<glyph unicode="&#x2dc;" horiz-adv-x="1472" d="M739 1491q-6 -6 33 -14.5t101.5 -18.5t139.5 -19t145.5 -14.5t118.5 -4.5t62 12q61 45 117.5 84.5t91.5 68.5l197 -82l430 275q6 6 -32 15t-101.5 18.5t-140 18.5t-146 14t-120 4t-60.5 -11q-61 -47 -103 -93t-81 -81l-220 102z" />
<glyph unicode="&#x2000;" horiz-adv-x="964" />
<glyph unicode="&#x2001;" horiz-adv-x="1929" />
<glyph unicode="&#x2002;" horiz-adv-x="964" />
<glyph unicode="&#x2003;" horiz-adv-x="1929" />
<glyph unicode="&#x2004;" horiz-adv-x="643" />
<glyph unicode="&#x2005;" horiz-adv-x="482" />
<glyph unicode="&#x2006;" horiz-adv-x="321" />
<glyph unicode="&#x2007;" horiz-adv-x="321" />
<glyph unicode="&#x2008;" horiz-adv-x="241" />
<glyph unicode="&#x2009;" horiz-adv-x="385" />
<glyph unicode="&#x200a;" horiz-adv-x="107" />
<glyph unicode="&#x2010;" horiz-adv-x="915" d="M322 633l428 274l405 -114l4 -5q4 -4 -4 -8q-16 -29 -38.5 -52t-52.5 -47t-65.5 -49.5t-78.5 -58.5q-12 -10 -63.5 -11t-120 4t-145.5 14.5t-139.5 18.5t-100.5 18.5t-29 15.5z" />
<glyph unicode="&#x2011;" horiz-adv-x="915" d="M322 633l428 274l405 -114l4 -5q4 -4 -4 -8q-16 -29 -38.5 -52t-52.5 -47t-65.5 -49.5t-78.5 -58.5q-12 -10 -63.5 -11t-120 4t-145.5 14.5t-139.5 18.5t-100.5 18.5t-29 15.5z" />
<glyph unicode="&#x2012;" horiz-adv-x="915" d="M322 633l428 274l405 -114l4 -5q4 -4 -4 -8q-16 -29 -38.5 -52t-52.5 -47t-65.5 -49.5t-78.5 -58.5q-12 -10 -63.5 -11t-120 4t-145.5 14.5t-139.5 18.5t-100.5 18.5t-29 15.5z" />
<glyph unicode="&#x2013;" horiz-adv-x="915" d="M322 633l428 274l405 -114l4 -5q4 -4 -4 -8q-16 -29 -38.5 -52t-52.5 -47t-65.5 -49.5t-78.5 -58.5q-12 -10 -63.5 -11t-120 4t-145.5 14.5t-139.5 18.5t-100.5 18.5t-29 15.5z" />
<glyph unicode="&#x2014;" horiz-adv-x="1349" d="M307 588q-8 -4 27 -8.5t96.5 -7.5t141 -5t165.5 -2q88 0 173 2t156 5t119 8.5t62 13.5q68 39 122 67.5t98 55t78 52.5t61 56q2 2 -4 7l-5 6l-643 67z" />
<glyph unicode="&#x2018;" horiz-adv-x="716" d="M563 1190q2 14 5 32.5t6.5 35t6.5 28.5l3 12q10 16 39.5 45t65.5 60t72 56.5t58 35.5q2 0 8.5 2t10.5 2q8 2 16 3l8 1l37 -24l145 -150l127 -160l-112 -180l-330 -112q-115 47 -148.5 122.5t-17.5 190.5z" />
<glyph unicode="&#x2019;" horiz-adv-x="716" d="M567 1241l111 178l330 113q117 -47 150.5 -122t17.5 -191q-2 -14 -6.5 -33t-7.5 -35t-5 -29l-2 -12q-6 -14 -37 -44t-68.5 -61.5t-73.5 -57t-54 -32.5q-12 -6 -23 -6q-6 -2 -15 -3l-10 -1l-34 25l-144 151z" />
<glyph unicode="&#x201a;" horiz-adv-x="649" d="M-37 -303q92 18 194.5 59t191.5 101.5t152.5 138.5t76.5 170q6 37 6 61q0 27 -8.5 47.5t-25.5 39.5t-48 44h-131q-119 -29 -205 -87t-123 -146q0 -37 18.5 -63.5t46 -46t59.5 -33t60 -21.5q-141 -86 -199.5 -148.5t-64.5 -115.5z" />
<glyph unicode="&#x201c;" horiz-adv-x="1351" d="M545 1126q2 14 6 32t6 34q4 18 6 30l2 13q10 14 40 43t66 59.5t71.5 56t58.5 36.5l12 4t10 2q4 2 15 2h6l41 -21l141 -153l131 -158l-110 -180l-336 -113q-115 47 -149 123t-17 190zM1223 1260q4 18 9 44.5t8 44t3 19.5q10 16 41 45t66.5 59.5t72.5 56t60 36.5q2 0 8 3 t8 3q8 2 17 2h8l37 -23l143 -151l131 -160l-111 -178l-333 -115q-117 47 -151 124t-17 190z" />
<glyph unicode="&#x201d;" horiz-adv-x="1351" d="M553 1180l113 178l331 112q117 -47 152 -121.5t16 -191.5q-2 -14 -6 -32.5t-7 -34t-5 -27.5t-2 -14q-6 -12 -37 -42t-67.5 -63t-74.5 -59.5t-61 -32.5q-2 0 -8 -2t-8 -2q-12 -4 -19 -4h-6l-37 24l-143 152zM1231 1313l110 178l336 115q57 -25 93 -55.5t54.5 -69.5 t22.5 -86t-4 -103q-4 -14 -7 -32.5t-6 -35t-5 -28.5l-2 -12q-10 -14 -41 -44t-68 -61.5t-72.5 -57.5t-56.5 -32q-6 -2 -11 -5t-9 -3q-8 -2 -15 -1l-6 1l-39 20l-145 154z" />
<glyph unicode="&#x201e;" horiz-adv-x="1218" d="M-57 -360q4 14 8 27.5t12 27.5q20 41 77.5 90t168.5 117q-27 8 -59.5 20t-60.5 31.5t-47 47.5t-19 65q43 92 126.5 148t202.5 85h131q27 -25 44.5 -44t25.5 -39.5t9 -46.5t-5 -63q-12 -92 -74.5 -169.5t-150.5 -137t-191.5 -100.5t-197.5 -59zM551 -246q4 55 61.5 114.5 t198.5 147.5q-29 8 -60.5 21.5t-58 33t-45 46t-18.5 63.5q37 92 123 148.5t209 85.5l126 2q31 -25 48.5 -44.5t25.5 -40t7 -46t-7 -64.5q-12 -90 -74.5 -168t-150.5 -138t-190.5 -101t-194.5 -60z" />
<glyph unicode="&#x2022;" d="M225 186q-2 -23 32 -45t89 -44.5t124 -41t137.5 -30t128 -15.5t95.5 4q10 2 25 6l14 3q10 4 44 28.5t72 52t71 52t43 30.5q123 68 207 110t139 76t89 65.5t54.5 79.5t32.5 120t29 182l6 45q4 35 8 69l8 68l8 48q-12 49 -38.5 101t-67.5 95t-97.5 72t-125.5 31 q-10 -10 -50 -33t-86.5 -45.5t-84 -42t-46.5 -23.5q-31 -14 -93 -36.5t-138 -49t-156 -54.5t-146.5 -51.5t-108.5 -40t-42 -22.5l-96 -678q-41 -8 -56.5 -25.5t-21.5 -39.5z" />
<glyph unicode="&#x2026;" horiz-adv-x="1703" d="M43 45q-6 -35 13.5 -63.5t53 -49t77.5 -27.5t92 3q43 8 82.5 28.5t71.5 47t53.5 58.5t25.5 62q16 104 -48 138t-218 20q-31 -25 -65 -50.5t-63.5 -52t-50 -55t-24.5 -59.5zM573 150q-6 -35 12.5 -64t53.5 -49.5t79 -27.5t89 3q43 8 84 28.5t72.5 47.5t53 58.5t25.5 62.5 q12 104 -49 139t-217 19q-33 -23 -66.5 -48.5t-62.5 -53t-49 -56.5t-25 -59zM1096 250q-6 -33 12 -61.5t52 -48t78 -28t87 0t83 29t71.5 47t53 58.5t28.5 64q16 100 -46.5 136t-216.5 22q-35 -25 -68.5 -50.5t-62 -53t-48 -56t-23.5 -59.5z" />
<glyph unicode="&#x202f;" horiz-adv-x="385" />
<glyph unicode="&#x2039;" horiz-adv-x="663" d="M315 637l390 575q6 4 25.5 -11t45 -44t52 -63.5t47 -68.5t28.5 -59.5t-4 -35.5q-27 -23 -80 -66t-109.5 -88t-105.5 -84t-67 -51l315 -127l-309 -342q-8 -4 -29.5 25.5t-49.5 78t-57.5 106.5t-52 111.5t-35 93.5t-4.5 50z" />
<glyph unicode="&#x203a;" horiz-adv-x="663" d="M279 403l231 -237q6 -4 37 35t74 101.5t91 137t88 140t64.5 112.5t20.5 56l-240 452q-2 4 -27.5 -20.5t-61.5 -64.5t-75 -88t-70.5 -91t-48 -75t-6.5 -38q18 -14 60.5 -38.5t88.5 -49t87 -45t57 -26.5z" />
<glyph unicode="&#x205f;" horiz-adv-x="482" />
<glyph unicode="&#x20ac;" horiz-adv-x="1763" d="M250 375l465 205l139 -9l14 86q-80 -6 -175 -9t-173 -3q-80 0 -133 1t-45 5l465 205l92 -4l12 104q2 27 28 55.5t62.5 54.5t76.5 48.5t69 36.5q25 10 74 30.5t109.5 47t127 56.5t127 56.5t107.5 48t71 31.5q12 6 23 6q27 6 47 -8t36.5 -33.5t29 -37t18.5 -17.5 q8 -12 26.5 -44t40 -66.5t41 -64.5t31.5 -38v-14q-6 -37 -60 -78t-123 -77t-135.5 -61.5t-97.5 -31.5q-45 -10 -75.5 7.5t-50 44t-33 54t-25.5 39.5l-63 -430q-4 -33 26.5 -50t76.5 -23t95 -4t80 8q70 14 126 40.5t116 39.5q41 8 51 -9.5t6 -40.5q-2 -18 -6 -32 q-10 -20 -30.5 -32.5t-67.5 -45.5q-18 -12 -60.5 -39t-96.5 -61.5t-113.5 -72.5t-114 -73t-97.5 -61.5t-63 -38.5q-2 0 -16.5 -4t-24.5 -6q-37 -6 -88 0t-104.5 21t-104.5 39t-90 53.5t-59.5 62t-14.5 67.5l10 74q-49 -4 -112.5 -7t-129 -5t-128 -3t-111.5 -1q-47 0 -74.5 2 t-23.5 6z" />
<glyph unicode="&#x2122;" horiz-adv-x="1581" d="M506 844q8 -20 32.5 -34.5t53.5 -25t57.5 -18.5t48.5 -16q18 6 47 21t61 35.5t63.5 44t56.5 44.5q27 23 34 36t0.5 19t-19.5 7t-26 -1q-23 -4 -40 -10t-23 -8l33 238q127 4 139 86q0 18 -14.5 25t-35 9t-43 1t-38.5 -1l29 187l-50 18q-37 -53 -70.5 -95t-69.5 -81 t-78 -76t-97 -78l-4 -18q-4 -23 12.5 -31t42.5 -18l-30 -215q-2 -6 -12.5 -13.5t-23 -14.5t-23.5 -12t-13 -5zM1096 936q8 -4 19 -14.5t20 -14.5q12 -2 20 -14q29 -16 49.5 -25.5t26.5 -13.5h10q23 4 42.5 19.5t38.5 33t41.5 33.5t51.5 23q23 4 38 -5.5t28.5 -19.5t29 -19.5 t37.5 -5.5q18 4 47 19.5t55.5 37t46 45t21.5 42.5q2 23 -16 49l39 276q2 14 24 23q12 2 17.5 0t13.5 0l-47 -342q-4 -16 9.5 -32.5t32.5 -30t40.5 -20.5t34.5 -5q20 4 52 23.5t63.5 44t54 49t24.5 38.5v11q-10 2 -21 12t-18 14l41 295q10 6 17.5 20.5t9.5 20.5l2 10l-2 9 l-4 6t-12 10q-6 2 -24.5 13.5t-40 24.5t-41 24.5t-30.5 13.5l-1 1q-1 1 -9 -1q-2 0 -5 -1l-3 -1q-12 -6 -34.5 -25.5t-47.5 -41t-49.5 -39t-42.5 -19.5q-8 -2 -9 -1l-1 1l-93 69h-6q-6 0 -10 -2l-4 -2q-12 -6 -43 -27.5t-62.5 -44t-56 -39t-22.5 -11.5l-95 69l-43 -8 q2 0 -14 -13.5t-39.5 -32t-47 -39t-38.5 -32.5q-10 -8 -27 -26l-18 -17q-8 -10 -4 -19t14.5 -15.5t22.5 -8.5t20 0l-41 -295q-4 -4 -7 -9t-7 -13q-10 -14 -14 -17l-2 -10zM1401 1047l43 294l45 27l-43 -313z" />
<glyph unicode="&#x25fc;" horiz-adv-x="1382" d="M0 0v1382h1382v-1382h-1382z" />
</font>
</defs>
</svg>
