<?xml version="1.0" standalone="no"?>
<!DOCTYPE svg PUBLIC "-//W3C//DTD SVG 1.1//EN" "http://www.w3.org/Graphics/SVG/1.1/DTD/svg11.dtd" >
<svg>
<metadata>
Created by FontForge 20090914 at Mon Oct 22 07:46:55 2018
 By www-data
2013 Iconian Fonts - www.iconian.com
</metadata>
<defs>
<font id="EternalKnightExpandedItalic" horiz-adv-x="865" >
  <font-face 
    font-family="Eternal Knight Expanded Italic"
    font-weight="400"
    font-style="italic"
    font-stretch="expanded"
    units-per-em="1000"
    panose-1="0 0 0 0 0 0 0 0 0 0"
    ascent="800"
    descent="-200"
    x-height="629.999"
    cap-height="630.001"
    bbox="-33.0039 -121.003 1399 888.003"
    underline-thickness="50"
    underline-position="-75"
    unicode-range="U+0020-U+2122"
  />
<missing-glyph horiz-adv-x="500" 
 />
    <glyph glyph-name=".notdef" horiz-adv-x="500" 
 />
    <glyph glyph-name="space" unicode=" " horiz-adv-x="387" 
 />
    <glyph glyph-name="space" unicode="&#xa0;" horiz-adv-x="387" 
 />
    <glyph glyph-name="exclam" unicode="!" horiz-adv-x="416" 
d="M194 560l-21.999 37.501l-12 20.5c-2.66699 4.66699 -4.16699 7.5 -4.5 8.5s-0.5 2.16699 -0.5 3.5h350c-3.33301 -5.33301 -8.5 -11.5 -15.5 -18.5l-21 -20.5l-19 -18.5c-5.66699 -5.66699 -8.83398 -9.83398 -9.50098 -12.501l-57 -295l-57 -69h-168l-21 69z
M118.001 0.000976562l24 124h169l-24 -124h-169z" />
    <glyph glyph-name="quotedbl" unicode="&#x22;" horiz-adv-x="450" 
d="M318 401h59l132 105l24 124h-171zM117 402h59l133 105l24 124h-171z" />
    <glyph glyph-name="numbersign" unicode="#" horiz-adv-x="864" 
d="M915 461h-85.999l19 99c2.66699 2 6.83398 5.66699 12.501 11l18 17.5l17.5 18c5.33301 5.66699 9 9.83398 11 12.501l2 1c0.666992 1.33301 1.66699 3 3 5s2 3.66699 2 5h-297l-32 -169h-127l32 169h-296c0 -4 1 -7.33301 3 -10v-1
c0.666992 -2.66699 2.5 -6.83398 5.5 -12.501s6.5 -11.834 10.5 -18.501s8 -12.667 12 -18s6.66699 -8.66602 8 -9.99902l-19 -99h-85l-12 -60h85l-10 -49h-85l-11 -60h85l-45 -232c-0.666992 -1.33301 -2.83398 -4.5 -6.50098 -9.5s-6.83398 -8.5 -9.50098 -10.5l-44 -40
h292l57 292h127l-57 -292h293l-28 40c-1.33301 2 -3.33301 5.5 -6 10.5s-3.66699 8.16699 -3 9.5l45 232h86l11 60h-86l10 49h86zM573.001 401l-10 -49h-127l10 49h127z" />
    <glyph glyph-name="dollar" unicode="$" horiz-adv-x="725" 
d="M539 750l-58.999 0.00390625l-33 -169l-212 -66c-13.333 -4 -26.5 -8.33301 -39.5 -13s-24.833 -10 -35.5 -16s-19.5 -12.5 -26.5 -19.5s-11.5 -14.833 -13.5 -23.5l-1 -4c-0.666992 -2 -1 -5.66699 -1 -11c0 -2.66699 2.66699 -7.33398 8 -14.001l31 -27.5l47 -41.5
l55 -48l55 -47.5l47.5 -40l31.5 -25.5c11.333 -15.333 15 -32.333 11 -51c-3.33301 -15.333 -11.166 -29.5 -23.499 -42.5s-31.166 -22.5 -56.499 -28.5c-5.33301 -2 -11.833 -4.16699 -19.5 -6.5s-15.334 -4.33301 -23.001 -6s-14.334 -3 -20.001 -4l-8.5 -1.5l-8 5
l-77 177l-10 6l-11.5 -29.5l-17 -44.5l-19 -52l-18.5 -52l-16 -45c-4.66699 -13.333 -8 -23.333 -10 -30c-1.33301 -2.66699 -2.83301 -6.83398 -4.5 -12.501s-2.83398 -9.5 -3.50098 -11.5h24l256 68l-28 -144h59l32 160l218 58c28.667 7.33301 52.5 16.166 71.5 26.499
s30.167 23.5 33.5 39.5c1.33301 5.33301 1.83301 11 1.5 17s-3.5 11.667 -9.5 17l-294 253c-5.33301 6.66699 -8 12.667 -8 18s0.666992 11.333 2 18c3.33301 17.333 14.5 32.666 33.5 45.999s46.5 23.333 82.5 30h13c5.33301 0 8 -2.33301 8 -7l113 -159l10 -5l98 271l3 18
l-47 -11l-220 -69z" />
    <glyph glyph-name="percent" unicode="%" horiz-adv-x="870" 
d="M914 611c4 3.33301 8.83203 6.00098 14.499 8.00098s13.834 4.66699 24.501 8l1 4h-245l67 -39l-696 -571c-8.66699 -8.66699 -22 -14.334 -40 -17.001l-1 -4h240l-59 39zM490.999 567.001c2.66699 12.667 2.5 23.167 -0.5 31.5s-7.16699 14.833 -12.5 19.5s-11 8 -17 10
s-11 3 -15 3h-214c-4 0 -9.5 -1 -16.5 -3s-14 -5.33301 -21 -10s-13.667 -11.167 -20 -19.5s-10.833 -18.833 -13.5 -31.5l-36 -188c-2.66699 -12.667 -2.5 -23 0.5 -31s7.16699 -14.333 12.5 -19s11 -8 17 -10s11 -3 15 -3h214c4 0 9.5 1 16.5 3s14.167 5.33301 21.5 10
s14 11 20 19s10.333 18.333 13 31zM276.999 566.001c7.33301 16.667 14.333 27 21 31s12.334 6.33301 17.001 7h36c4.66699 -1.33301 9.5 -4 14.5 -8s8.16699 -14 9.5 -30l-36 -186c-7.33301 -16 -14.333 -26 -21 -30s-12.334 -6.33301 -17.001 -7h-36
c-4.66699 0.666992 -9.5 3 -14.5 7s-8.16699 14 -9.5 30zM864.999 251.001c2.66699 12.667 2.5 23.167 -0.5 31.5s-7.16699 14.833 -12.5 19.5s-11 8 -17 10s-11 3 -15 3h-215c-4 0 -9.33301 -1 -16 -3s-13.5 -5.33301 -20.5 -10s-13.5 -11.167 -19.5 -19.5
s-10.333 -18.833 -13 -31.5l-37 -188c-2 -12.667 -1.5 -23 1.5 -31s7 -14.333 12 -19s10.5 -8 16.5 -10s11 -3 15 -3h215c4 0 9.5 1 16.5 3s14 5.33301 21 10s13.5 11 19.5 19s10 18.333 12 31zM651.999 250.001c7.33301 16.667 14.335 27 21.002 31s12 6.33301 16 7h37
c3.33301 -1.33301 7.66602 -4 12.999 -8s8.66602 -14 9.99902 -30l-37 -186c-7.33301 -16 -14.333 -26 -21 -30s-12 -6.33301 -16 -7h-37c-4 0.666992 -8.5 3 -13.5 7s-8.16699 14 -9.5 30z" />
    <glyph glyph-name="ampersand" unicode="&#x26;" horiz-adv-x="967" 
d="M560 400l453.001 1.00391l-73 -60h-68l-3 -17c-0.666992 -4.66699 -4.83398 -14 -12.501 -28s-17.334 -30.333 -29.001 -49l-37.5 -58.5l-37 -55.5l-28.5 -42l-11.5 -17c-8.66699 -7.33301 -18.667 -15.333 -30 -24s-23.5 -16.667 -36.5 -24s-26.333 -13.5 -40 -18.5
s-27.5 -7.5 -41.5 -7.5h-189c-14 0 -27.5 2.83301 -40.5 8.5s-25.167 12.5 -36.5 20.5s-21.666 16.667 -30.999 26s-17 17.666 -23 24.999l-13 17.5l-23.5 33l-29 42l-30.5 45l-27.5 41.5c-8.33301 12.667 -14.833 23 -19.5 31c-5.33301 7.33301 -8 13.333 -8 18
c0 2.66699 0.166992 5.16699 0.5 7.5s0.833008 5.16602 1.5 8.49902l3 16c2.66699 12.667 7.66699 23 15 31s16 14.167 26 18.5s21.167 7.16602 33.5 8.49902s25.166 2 38.499 2h83l2 10l-17.5 25.5l-26 39l-25.5 39c-8 12.333 -13.333 21.166 -16 26.499
c-5.33301 8 -8.16602 13.667 -8.49902 17s0.5 9.33301 2.5 18c2 10 8.33301 21.333 19 34s24.667 20 42 22h592l-19 -94l-68 52h-355zM320.001 340.004l168 -249l164 249h-332z" />
    <glyph glyph-name="quotesingle" unicode="'" horiz-adv-x="249" 
d="M117 401h59l132 105l24 124h-171z" />
    <glyph glyph-name="parenleft" unicode="(" horiz-adv-x="544" 
d="M631 630l-357.001 0.000976562c-7.33301 0 -17.833 -1.83301 -31.5 -5.5s-27.5 -10.334 -41.5 -20.001s-27 -22.667 -39 -39s-20.333 -37.166 -25 -62.499l-73 -376c-5.33301 -25.333 -5 -46.166 1 -62.499s14.167 -29.333 24.5 -39s21.5 -16.334 33.5 -20.001
s21.667 -5.5 29 -5.5h359l-73 60h-114c-6.66699 3.33301 -12.667 10.166 -18 20.499s-8.66602 26.5 -9.99902 48.5l72 372c6.66699 16 13.667 28.833 21 38.5s14.5 17 21.5 22s13.333 8.5 19 10.5s10.5 3.33301 14.5 4h95z" />
    <glyph glyph-name="parenright" unicode=")" horiz-adv-x="545" 
d="M157 630l356.998 0.000976562c7.33301 0 17 -1.83301 29 -5.5s23.333 -10.334 34 -20.001s18.834 -22.667 24.501 -39s6.16699 -37.166 1.5 -62.499l-73 -376c-5.33301 -25.333 -14 -46.166 -26 -62.499s-25 -29.333 -39 -39s-27.667 -16.334 -41 -20.001
s-24 -5.5 -32 -5.5h-359l97 60h114c7.33301 3.33301 16 10.166 26 20.499s19.333 26.5 28 48.5l72 372c0 16 -1.66699 28.833 -5 38.5s-7.5 17 -12.5 22s-10.167 8.5 -15.5 10.5s-9.66602 3.33301 -12.999 4h-95z" />
    <glyph glyph-name="asterisk" unicode="*" horiz-adv-x="289" 
d="M269 471l76 48l-50 34l70 6l-12 66l-68 -31l32 58h-94l9 -58l-56 30l-34 -64l66 -7l-63 -33l63 -49l38 49z" />
    <glyph glyph-name="plus" unicode="+" horiz-adv-x="346" 
d="M304 485h-73l-15 -80h-98l-12 -60h98l-15 -80h73l15 80h97l12 60h-97z" />
    <glyph glyph-name="comma" unicode="," horiz-adv-x="249" 
d="M19 -105h59l132 105l24 124h-171z" />
    <glyph glyph-name="hyphen" unicode="-" horiz-adv-x="340" 
d="M118 405h268l-73 -60h-207z" />
    <glyph glyph-name="period" unicode="." horiz-adv-x="249" 
d="M39 0l24 124h171l-24 -124h-171z" />
    <glyph glyph-name="slash" unicode="/" horiz-adv-x="860" 
d="M908 611l-700.001 -571.998l65 -39h-240l1 4c9.33301 1.33301 17.333 3.66602 24 6.99902s12 6.66602 16 9.99902l696 571l-69 38h248l-2 -3c-8 -3.33301 -15.667 -6 -23 -8s-12.666 -4.66699 -15.999 -8z" />
    <glyph glyph-name="zero" unicode="0" horiz-adv-x="743" 
d="M797 503c4.66699 25.333 4.16895 46.166 -1.49805 62.499s-13.834 29.333 -24.501 39s-22 16.334 -34 20.001s-21.667 5.5 -29 5.5h-431c-8 0 -18.667 -1.83301 -32 -5.5s-27.166 -10.334 -41.499 -20.001s-27.5 -22.667 -39.5 -39s-20.333 -37.166 -25 -62.499l-73 -376
c-5.33301 -25.333 -5 -46.166 1 -62.499s14.167 -29.333 24.5 -39s21.666 -16.334 33.999 -20.001s22.166 -5.5 29.499 -5.5h431c8 -0 18.667 1.83301 32 5.5s27 10.334 41 20.001s27 22.667 39 39s20.667 37.166 26 62.499zM370.002 501
c6.66699 16 13.6699 28.833 21.0029 38.5s14.5 17 21.5 22s13.5 8.5 19.5 10.5s10.667 3.33301 14 4h72c3.33301 -0.666992 8 -1.83398 14 -3.50098s11.667 -5.16699 17 -10.5s9.66602 -12.833 12.999 -22.5s4 -22.5 2 -38.5l-72 -372
c-7.33301 -16 -14.5 -28.833 -21.5 -38.5s-13.833 -17 -20.5 -22s-12.834 -8.5 -18.501 -10.5s-10.834 -3.33301 -15.501 -4h-72c-3.33301 0.666992 -7.5 1.83398 -12.5 3.50098s-10 5.16699 -15 10.5s-9.33301 12.833 -13 22.5s-5.5 22.5 -5.5 38.5z" />
    <glyph glyph-name="one" unicode="1" horiz-adv-x="412" 
d="M194 560l-97 -499.999c-0.666992 -1.33301 -2.83398 -4.5 -6.50098 -9.5s-6.83398 -8.5 -9.50098 -10.5l-44 -40h342l-28 40c-1.33301 2 -3.16602 5.5 -5.49902 10.5s-3.16602 8.16699 -2.49902 9.5l110 570h-298c0 -4 1 -7.33301 3 -10v-1
c0.666992 -2.66699 2.5 -6.83398 5.5 -12.501s6.5 -11.834 10.5 -18.501s8 -12.667 12 -18s6.66699 -8.66602 8 -9.99902z" />
    <glyph glyph-name="two" unicode="2" horiz-adv-x="725" 
d="M706 73l-190.003 -30.0029h-81c-24 0 -39.5 4.33301 -46.5 13s-10.167 19.667 -9.5 33l2 13c2 13.333 9.33301 26.333 22 39c8.66699 6.66699 21.834 18.834 39.501 36.501l59.5 61.5l69 73.5l68 73.5l56.5 61c16.333 17.333 28.166 29.333 35.499 36l4 17
c2.66699 14 3.83398 28.667 3.50098 44s-3.66602 29.333 -9.99902 42s-16.666 23.167 -30.999 31.5s-34.166 12.5 -59.499 12.5h-483l-1 -17l38 -233l11 6l155 182c5.33301 4.66699 13.833 8.16699 25.5 10.5s23.167 3.83301 34.5 4.5h29
c5.33301 0 10.333 -0.166992 15 -0.5s9 -0.833008 13 -1.5c11.333 -5.33301 18.166 -9.66602 20.499 -12.999l5.5 -8v-2l-2 -17c-0.666992 -3.33301 -1.5 -6.66602 -2.5 -9.99902s-4.16699 -6.66602 -9.5 -9.99902l-423 -450c-4 -3.33301 -6.66699 -6.83301 -8 -10.5
s-2.33301 -7.16699 -3 -10.5l-2 -14c-1.33301 -14.667 2 -24.334 10 -29.001s20.333 -7 37 -7h573z" />
    <glyph glyph-name="three" unicode="3" horiz-adv-x="753" 
d="M565 340h-310.995c6 5.33301 16.833 14.166 32.5 26.499l53 41l61.5 47.5l59 46.5c18 14.333 32.833 26.833 44.5 37.5s17.834 17.334 18.501 20.001l2 10h-319l-51 61h575c8 0 14.667 -2 20 -6s9.66602 -8.83301 12.999 -14.5s5.66602 -11.834 6.99902 -18.501
s1.66602 -12.334 0.999023 -17.001c-2 -8.66699 -3.83301 -14.667 -5.5 -18s-6.83398 -9 -15.501 -17l-27 -26.5l-40.5 -39l-40.5 -38.5l-26 -25l-2 -10h83c12.667 0 25 -0.666992 37 -2s22.333 -4.16602 31 -8.49902s15 -10.5 19 -18.5s4.66699 -18.333 2 -31l-3 -16
c-1.33301 -6 -3 -11.333 -5 -16s-7.33301 -10.667 -16 -18l-32 -31l-43.5 -41l-48 -44.5l-45 -42l-35.5 -33.5c-10 -9.33301 -16.333 -15.333 -19 -18c-8.66699 -7.33301 -19.334 -15.666 -32.001 -24.999s-26.334 -18 -41.001 -26s-29.667 -14.833 -45 -20.5
s-30 -8.5 -44 -8.5h-314l12 60h192z" />
    <glyph glyph-name="four" unicode="4" horiz-adv-x="876" 
d="M795 561c3.33301 2.66699 8.16504 7 14.498 13l20 19.5c7 7 13.333 13.833 19 20.5s9.5 12 11.5 16h-296l-495 -446h409l-36 -184h292l-28 40c-1.33301 2 -3.16602 5.5 -5.49902 10.5s-3.16602 8.16699 -2.49902 9.5l24 124h96l72 60h-157zM360.999 244l156 141l-28 -141
h-128z" />
    <glyph glyph-name="five" unicode="5" horiz-adv-x="710" 
d="M134 269l-20.498 -49.001l-30 -74l-29 -74c-9 -23.333 -14.833 -40 -17.5 -50c-0.666992 -4.66699 3.33301 -11 12 -19l18 -3h489c4 0 8 2 12 6c32 8 55 21.833 69 41.5s23.333 41.167 28 64.5l2 17c-4.66699 6.66699 -11.834 19.334 -21.501 38.001l-33.5 64.5l-40 77.5
l-40.5 77.5l-35.5 64.5c-10.667 18.667 -19 31.334 -25 38.001c-8 12.667 -10.333 25.667 -7 39l3 13c4.66699 13.333 12.834 24.333 24.501 33s29.5 13 53.5 13h164l66 -51l18 94h-589c-8.66699 0 -15.334 -0.5 -20.001 -1.5s-8.33398 -2.83301 -11.001 -5.5
s-5 -6.33398 -7 -11.001s-4.33301 -10.667 -7 -18l-3 -14c-2 -8 -1 -15 3 -21l248 -450c6 -6 7.33301 -12.667 4 -20l-4 -17l-1 -2c-2.66699 -2 -5.16699 -4.16699 -7.5 -6.5s-7.83301 -5.5 -16.5 -9.5h-123c-7.33301 6 -14.333 13 -21 21s-11.667 15 -15 21l-81 167z" />
    <glyph glyph-name="FL0036h" unicode="6" horiz-adv-x="730" 
d="M368 501c9.33301 22 18.833 38.168 28.5 48.501s18.5 17.166 26.5 20.499h233l74 -60l23 120h-479c-7.33301 0 -17.833 -1.83301 -31.5 -5.5s-27.5 -10.334 -41.5 -20.001s-27 -22.667 -39 -39s-20.333 -37.166 -25 -62.499l-73 -376
c-5.33301 -25.333 -5 -46.166 1 -62.499s14.167 -29.333 24.5 -39s21.5 -16.334 33.5 -20.001s21.667 -5.5 29 -5.5h454c12 0 23.5 2.16699 34.5 6.5s21 10.166 30 17.499s16.667 15.833 23 25.5s10.5 19.5 12.5 29.5l55 281c2.66699 12.667 -1 22.334 -11 29.001
s-21.667 11.5 -35 14.5s-26.5 4.83301 -39.5 5.5s-21.5 1 -25.5 1h-299zM473 340.001c4.66699 -1.33301 10 -2.16699 16 -2.5s11.5 -1 16.5 -2s9.16699 -2.83301 12.5 -5.5s4.66602 -7 3.99902 -13l-52 -263h-128c-3.33301 0.666992 -7.66602 2 -12.999 4
s-10.5 5.5 -15.5 10.5s-9.16699 12.333 -12.5 22s-5 22.5 -5 38.5l41 211h136z" />
    <glyph glyph-name="seven" unicode="7" horiz-adv-x="721" 
d="M346 0h-283l424 521c5.33301 3.33301 8.5 6.66602 9.5 9.99902s1.83301 6.66602 2.5 9.99902l2 17c0 9.33301 -4.66699 15.833 -14 19.5s-22.666 5.5 -39.999 5.5h-19c-11.333 0 -24.333 -1.16699 -39 -3.5s-25 -6.16602 -31 -11.499l-155 -182l-11 -6l-38 233l1 17h582
c26.667 0 44.5 -2.5 53.5 -7.5s12.833 -15.5 11.5 -31.5l-2 -2c0 -3.33301 0.166992 -5.83301 0.5 -7.5s0.5 -2.16699 0.5 -1.5c-0.666992 -2.66699 -2.33398 -5.66699 -5.00098 -9s-5.66699 -6.66602 -9 -9.99902c-6.66699 -7.33301 -20.667 -24 -42 -50l-75.5 -92.5
l-93.5 -116.5l-95.5 -121.5l-82 -107c-24.333 -32.333 -41.833 -56.833 -52.5 -73.5z" />
    <glyph glyph-name="eight" unicode="8" horiz-adv-x="941" 
d="M267 631c-8 0 -15.5 -2.00195 -22.5 -6.00195s-13.167 -8.83301 -18.5 -14.5s-9.83301 -11.834 -13.5 -18.501s-5.83398 -12.334 -6.50098 -17.001c-2 -8.66699 -2.83301 -14.667 -2.5 -18s3.16602 -9 8.49902 -17c2.66699 -5.33301 8 -14.166 16 -26.499l25.5 -39
l26 -39l17.5 -25.5l-2 -10h-83c-13.333 0 -26.166 -0.666992 -38.499 -2s-23.5 -4.16602 -33.5 -8.49902s-18.667 -10.5 -26 -18.5s-12.333 -18.333 -15 -31l-3 -16c-0.666992 -3.33301 -1.16699 -6.16602 -1.5 -8.49902s-0.5 -4.83301 -0.5 -7.5
c0 -4.66699 2.66699 -10.667 8 -18c4.66699 -8 11.167 -18.333 19.5 -31l27.5 -41.5l30.5 -45l29 -42l23.5 -33l13 -17.5c6 -7.33301 13.667 -15.666 23 -24.999s19.666 -18 30.999 -26s23.5 -14.833 36.5 -20.5s26.5 -8.5 40.5 -8.5h189c14 -0 28.667 2.83301 44 8.5
s30.333 12.5 45 20.5s28.334 16.667 41.001 26s23.334 17.666 32.001 24.999c2.66699 2.66699 9 8.66699 19 18l35.5 33.5l45 42l48 44.5l43.5 41l32 31c8.66699 7.33301 14 13.333 16 18s3.66699 10 5 16l3 16c2.66699 12.667 2 23 -2 31s-10.333 14.167 -19 18.5
s-19 7.16602 -31 8.49902s-24.667 2 -38 2h-83l2 10c5.33301 4.66699 14.333 13.167 27 25.5l40.5 39l40.5 39l27 26.5c8.66699 8 13.834 13.667 15.501 17s3.5 9.33301 5.5 18c0.666992 4.66699 0.5 10.334 -0.5 17.001s-3.16699 12.834 -6.5 18.501
s-7.83301 10.5 -13.5 14.5s-12.834 6 -21.501 6h-650zM753 339.998l-265 -249l-168 249h433zM448 559.998l2 9.99902h262l-2 -10c-0.666992 -2 -5.66699 -7.33301 -15 -16s-21.5 -19.167 -36.5 -31.5l-50 -41l-55.5 -44.5l-38 44l-34.5 41
c-10.333 12.667 -18.5 23.334 -24.5 32.001s-8.66699 14 -8 16z" />
    <glyph glyph-name="FL0039h" unicode="9" horiz-adv-x="730" 
d="M484 129c-9.33301 -22 -18.834 -38.168 -28.501 -48.501s-18.5 -17.166 -26.5 -20.499h-233l-74 60l-23 -120h478c8 -0 18.833 1.83301 32.5 5.5s27.5 10.334 41.5 20.001s27 22.667 39 39s20.667 37.166 26 62.499l73 376c4.66699 25.333 4 46.166 -2 62.499
s-14.167 29.333 -24.5 39s-21.5 16.334 -33.5 20.001s-22 5.5 -30 5.5h-454c-12 0 -23.5 -2.16699 -34.5 -6.5s-21 -10.166 -30 -17.499s-16.5 -15.833 -22.5 -25.5s-10 -19.5 -12 -29.5l-55 -281c-2 -12.667 1.83301 -22.334 11.5 -29.001s21.334 -11.5 35.001 -14.5
s27 -4.83301 40 -5.5s21.5 -1 25.5 -1h299zM377.999 289.999c-4.66699 1.33301 -10 2.16797 -16 2.50098s-11.5 1 -16.5 2s-9 2.83301 -12 5.5s-3.83301 7 -2.5 13l51 263h128c2.66699 -0.666992 6.66699 -1.83398 12 -3.50098s10.5 -5.16699 15.5 -10.5
s9.33301 -12.833 13 -22.5s5.5 -22.5 5.5 -38.5l-41 -211h-137z" />
    <glyph glyph-name="colon" unicode=":" horiz-adv-x="249" 
d="M39 0l24 124h171l-24 -124h-171zM93 280l25 124h171l-25 -124h-171z" />
    <glyph glyph-name="semicolon" unicode=";" horiz-adv-x="249" 
d="M264 280l25 124h-171l-25 -124h171zM19 -105h59l132 105l24 124h-171z" />
    <glyph glyph-name="less" unicode="&#x3c;" horiz-adv-x="562" 
d="M613 611l-310 -253.004l225 -358h-382l28 10c2 0.666992 5.66699 2.33398 11 5.00098s11 5.33398 17 8.00098s11.5 5.33398 16.5 8.00098l9.5 5.00098l1 1.5c0.666992 1 1 1.83301 1 2.5v5l-144 228l389 319l-68 39h245l-1 -4l-24 -8c-6 -2 -10.667 -4.66699 -14 -8z" />
    <glyph glyph-name="equal" unicode="=" horiz-adv-x="371" 
d="M107 351h299l-72 -60h-238zM128 460h299l-72 -60h-238z" />
    <glyph glyph-name="greater" unicode="&#x3e;" horiz-adv-x="561" 
d="M598 358l-393 -319.998l68 -38h-240l1 4c9.33301 1.33301 17.333 3.66602 24 6.99902s12 6.66602 16 9.99902l307 252l-224 358h382l-28 -10c-2 -1.33301 -5.66699 -3.33301 -11 -6l-17 -8.5l-16.5 -8c-5 -2.33301 -8.16699 -3.83301 -9.5 -4.5l-1 -1.5
c-0.666992 -1 -1 -1.83301 -1 -2.5c-0.666992 -1.33301 -0.666992 -2.5 0 -3.5l1 -1.5z" />
    <glyph glyph-name="question" unicode="?" horiz-adv-x="678" 
d="M93 197c20 20.667 43.5 41.502 70.5 62.502s55.5 42 85.5 63l91.5 63.5l89.5 64c8 6 13 12.167 15 18.5s3.66699 12.166 5 17.499c3.33301 17.333 -1.66699 32.666 -15 45.999s-37 23.333 -71 30h-12c-5.33301 0 -9 -2.33301 -11 -7l-175 -159l-12 -5l8 271l3 18l43 -11
l435 -154c12 -4 23.5 -8.5 34.5 -13.5s20.833 -10.5 29.5 -16.5s15.167 -12.5 19.5 -19.5s5.5 -14.5 3.5 -22.5l-1 -4c-0.666992 -3.33301 -1.66699 -6.83301 -3 -10.5s-6 -8.5 -14 -14.5c-12 -7.33301 -31 -17.333 -57 -30l-87.5 -42.5l-100 -49l-95 -49
c-29 -15.667 -53 -30.167 -72 -43.5s-29.167 -24 -30.5 -32zM54 0.00195312l24 124h170l-24 -124h-170z" />
    <glyph glyph-name="at" unicode="@" horiz-adv-x="1028" 
d="M274 630c-7.33301 0 -17.834 -1.83203 -31.501 -5.49902s-27.5 -10.334 -41.5 -20.001s-27 -22.667 -39 -39s-20.333 -37.166 -25 -62.499l-73 -376c-5.33301 -25.333 -5 -46.166 1 -62.499s14.167 -29.333 24.5 -39s21.5 -16.334 33.5 -20.001s21.667 -5.5 29 -5.5h564
l-73 60h-317c-7.33301 3.33301 -13.666 10.166 -18.999 20.499s-8.66602 26.5 -9.99902 48.5l72 372c6.66699 16 13.667 28.833 21 38.5s14.5 17 21.5 22s13.333 8.5 19 10.5s10.5 3.33301 14.5 4h364c2.66699 -0.666992 6.66699 -1.83398 12 -3.50098
s10.5 -5.16699 15.5 -10.5s9.33301 -12.833 13 -22.5s5.5 -22.5 5.5 -38.5l-39 -203c-9.33301 -22 -18.833 -38.167 -28.5 -48.5s-18.5 -17.166 -26.5 -20.499h-35l37 191c2.66699 12.667 2.5 23.167 -0.5 31.5s-7.16699 14.833 -12.5 19.5s-11.166 8 -17.499 10
s-11.5 3 -15.5 3h-214c-4 0 -9.5 -1 -16.5 -3s-14 -5.33301 -21 -10s-13.5 -11.167 -19.5 -19.5s-10.333 -18.833 -13 -31.5l-37 -188c-2.66699 -12.667 -2.5 -23 0.5 -31s7.16699 -14.333 12.5 -19s11.166 -8 17.499 -10s11.5 -3 15.5 -3h467c8 0 18.667 1.83301 32 5.5
s27 10.334 41 20.001s27 22.667 39 39s20.667 37.166 26 62.499l40 207c4.66699 25.333 4.16699 46.166 -1.5 62.499s-13.834 29.333 -24.501 39s-22 16.334 -34 20.001s-21.667 5.5 -29 5.5h-724zM513.999 245.001l30.999 162c8 16.667 15.167 27 21.5 31
s11.833 6.33301 16.5 7h36c4.66699 -1.33301 9.5 -4 14.5 -8s8.16699 -14 9.5 -30l-31 -162c-8 -16 -15.167 -26 -21.5 -30s-12.166 -6.33301 -17.499 -7h-36c-4 0.666992 -8.5 3 -13.5 7s-8.16699 14 -9.5 30z" />
    <glyph glyph-name="A" unicode="A" horiz-adv-x="871" 
d="M354 630l299.996 -0.000976562l184 -630h-385l29 21c2 1.33301 5.83301 4.33301 11.5 9l18.5 15.5l18.5 16c5.66699 5 9.16699 8.16699 10.5 9.5c0 0.666992 0.333008 2.16699 1 4.5s1.33398 4.16602 2.00098 5.49902v5c0 2.66699 0.333008 4.33398 1 5.00098l-22 88
h-246l-22 -10l-63 -103l64 -66h-223l8 7c6.66699 3.33301 14.334 8.16602 23.001 14.499s15.334 12.5 20.001 18.5l75 117v8c1.33301 6 1 11.333 -1 16s-4.66699 8.83398 -8 12.501l-10 11.5c-3.33301 4 -5.66602 8.66699 -6.99902 14
c-1.33301 2.66699 -1.83301 5.83398 -1.5 9.50098l0.5 5.5h75l209 326zM438.996 459.999l-142.999 -221h209l-51 201l-9 20l-1.5 1c-1 0.666992 -2.5 1 -4.5 1c-0.666992 0 -0.833984 -0.333008 -0.500977 -1z" />
    <glyph glyph-name="B" unicode="B" horiz-adv-x="861" 
d="M155 630l682.999 -0.000976562c8 0 14.833 -2 20.5 -6s10.167 -8.66699 13.5 -14s5.5 -11.333 6.5 -18s1.16699 -12.334 0.5 -17.001c-2 -8.66699 -3.83301 -14.667 -5.5 -18s-6.5 -9 -14.5 -17l-27 -26.5l-40.5 -39l-41 -39l-26.5 -25.5l-2 -10h83
c13.333 0 26 -0.666992 38 -2s22.167 -4.16602 30.5 -8.49902s14.5 -10.5 18.5 -18.5s4.66699 -18.333 2 -31l-3 -16c-1.33301 -6 -3 -11.333 -5 -16s-7 -10.667 -15 -18l-32 -31l-43.5 -41l-48 -44.5l-45 -42l-35.5 -33.5c-10 -9.33301 -16.333 -15.333 -19 -18
c-8.66699 -7.33301 -19.5 -15.666 -32.5 -24.999s-26.833 -18 -41.5 -26s-29.667 -14.833 -45 -20.5s-29.666 -8.5 -42.999 -8.5h-379l107 550c0 1.33301 -1 4.5 -3 9.5s-3.66699 8.5 -5 10.5zM416.999 339.999l-54 -280h13l298 280h-257zM461.999 569.999l-36.999 -190
c6.66699 4 16.167 11 28.5 21l41.5 34l46.5 40l43.5 39c13.333 12 24.166 22.333 32.499 31s12.833 13.667 13.5 15l2 10h-171z" />
    <glyph glyph-name="c" unicode="C" horiz-adv-x="714" 
d="M702 361c4.66699 9.33301 11.8311 25.667 21.498 49l30 74l28.5 74c8.66699 23.333 14.334 40 17.001 50c0.666992 1.33301 -0.333008 4.16602 -3 8.49902s-5.66699 8.16602 -9 11.499l-21 2h-479c-4 -0.666992 -11.167 -7 -21.5 -19s-22.166 -27.167 -35.499 -45.5
l-42 -60.5c-14.667 -22 -28.167 -43.667 -40.5 -65s-23 -41 -32 -59s-14.5 -31.667 -16.5 -41l-3 -16c-0.666992 -3.33301 -1.16699 -6.16602 -1.5 -8.49902s-0.5 -4.83301 -0.5 -7.5c0 -4.66699 2.66699 -10.667 8 -18c4.66699 -8 11.167 -18.333 19.5 -31l27.5 -41.5
l30.5 -45l29 -42l23.5 -33l13 -17.5c6 -7.33301 13.667 -15.666 23 -24.999s19.666 -18 30.999 -26s23.5 -14.833 36.5 -20.5s26.5 -8.5 40.5 -8.5h272l23 120l-97 -60h-64c-40.667 44 -77.167 88.667 -109.5 134s-59.166 94 -80.499 146c15.333 36 34 72.667 56 110
s49 77.333 81 120l15 1h110c6.66699 -6.66699 12.667 -13 18 -19s10 -12 14 -18l79 -167z" />
    <glyph glyph-name="D" unicode="D" horiz-adv-x="856" 
d="M156 631l44.998 -60.9971c1.33301 -2 3 -5.5 5 -10.5s3 -8.16699 3 -9.5l-107 -550h379c14 0 28.667 2.83301 44 8.5s30.333 12.5 45 20.5s28.334 16.667 41.001 26s23.334 17.666 32.001 24.999c3.33301 2.66699 10 8.5 20 17.5l35.5 33l45 42l47.5 45l43 41.5l32 31
c8 7.33301 13 13.333 15 18s3.66699 10 5 16l3 16c2 9.33301 2.66699 23.166 2 41.499s-2.16699 38.333 -4.5 60s-5.33301 43.667 -9 66s-7.66699 42.666 -12 60.999s-8.83301 33.333 -13.5 45s-9 17.5 -13 17.5h-683zM456.998 570.003h171c14 -42.667 24 -82.667 30 -120
s9.66699 -74 11 -110l-298 -280h-13z" />
    <glyph glyph-name="E" unicode="E" horiz-adv-x="694" 
d="M155 630h610l-18 -94l-53 40h-232l-33 -171h269l-73 -60h-208l-55 -285h220l96 60l-23 -120h-614c0.666992 3.33301 2.66699 6.66602 6 9.99902l59 50c2 2 5 5.5 9 10.5s6.33301 8.16699 7 9.5l89 459c0 1.33301 -1 4.33301 -3 9s-3.66699 8.33398 -5 11.001z" />
    <glyph glyph-name="F" unicode="F" horiz-adv-x="682" 
d="M37 0h307l67 345h214l73 60h-269l33 170h232l53 -40l18 95h-610l62 -91l-89 -456z" />
    <glyph glyph-name="g" unicode="G" horiz-adv-x="786" 
d="M486 0c50.667 36 101.503 80.3311 152.503 132.998l157.5 170l20 23h-339c12 -11.333 24.167 -20 36.5 -26s19.166 -9.66699 20.499 -11c0.666992 0 2.5 -1 5.5 -3l10 -6.5l5.5 -3.5c-0.666992 -1.33301 -1.16699 -2.5 -1.5 -3.5l-0.5 -1.5l-118 -115
c-9.33301 12 -19.5 25.833 -30.5 41.5l-33 48c-11 16.333 -21 32.666 -30 48.999s-16.167 31.5 -21.5 45.5c15.333 36 34.166 72.333 56.499 109s48.833 76.334 79.5 119.001l16 1h110c6.66699 -6.66699 12.667 -13 18 -19s9.66602 -12 12.999 -18l80 -165l9 -6l20 48.5
l29.5 73.5l29 73.5c9 23 15.167 39.5 18.5 49.5c0 1.33301 -0.833008 4 -2.5 8s-4.5 7.66699 -8.5 11l-15 5h-483c-4 -0.666992 -11.333 -7 -22 -19s-22.667 -27 -36 -45s-27.5 -38.167 -42.5 -60.5s-28.833 -44.166 -41.5 -65.499s-23.5 -41 -32.5 -59
s-14.5 -31.667 -16.5 -41l-3 -16c-0.666992 -3.33301 -1.16699 -6.16602 -1.5 -8.49902s-0.5 -4.83301 -0.5 -7.5c0 -4.66699 2.66699 -10.667 8 -18c4.66699 -8 11.167 -18.333 19.5 -31l27.5 -41.5l30.5 -45l29 -42l23.5 -33l13 -17.5c4 -7.33301 10.667 -15 20 -23l1 -1
c14 -13.333 30.5 -26 49.5 -38s39.167 -18 60.5 -18h110z" />
    <glyph glyph-name="H" unicode="H" horiz-adv-x="789" 
d="M194 560c-1.33301 1.33301 -4 4.66602 -8 9.99902s-8 11.333 -12 18s-7.5 12.834 -10.5 18.501s-4.83301 9.83398 -5.5 12.501v1c-2 2.66699 -3 6 -3 10h296l-43 -225h131l43 225h296c0 -1.33301 -0.5 -3 -1.5 -5l-2.5 -5l-2 -1
c-2 -2.66699 -5.83301 -6.83398 -11.5 -12.501l-18 -18l-18 -17.5l-11.5 -11l-97 -500c-0.666992 -1.33301 0.166016 -4.5 2.49902 -9.5s4.16602 -8.5 5.49902 -10.5l29 -40h-293l67 345h-131l-67 -345h-292l44 40c2.66699 2 5.83398 5.5 9.50098 10.5
s5.83398 8.16699 6.50098 9.5z" />
    <glyph glyph-name="I" unicode="I" horiz-adv-x="416" 
d="M194 560l-97 -499.998c-0.666992 -1.33301 -2.83398 -4.5 -6.50098 -9.5s-6.83398 -8.5 -9.50098 -10.5l-44 -40h342l-28 40c-1.33301 2 -3.16602 5.5 -5.49902 10.5s-3.16602 8.16699 -2.49902 9.5l97 500l11.5 11c5.66699 5.33301 11.5 11.166 17.5 17.499l17.5 18
c5.66699 5.66699 9.5 9.83398 11.5 12.501l2 1c3.33301 3.33301 5 6.66602 5 9.99902h-350c0 -4 1 -7.33301 3 -10v-1c0.666992 -2.66699 2.5 -6.83398 5.5 -12.501s6.5 -11.834 10.5 -18.501s8 -12.667 12 -18s6.66699 -8.66602 8 -9.99902z" />
    <glyph glyph-name="J" unicode="J" horiz-adv-x="717" 
d="M134 269l8 -6l81 -167c3.33301 -6 8.33301 -13 15 -21s13.667 -15 21 -21h128c4 0.666992 9 2 15 4s12.5 5.5 19.5 10.5s14.167 12.333 21.5 22s14 22.5 20 38.5l86 441h-134l-98 -60l23 120h452l-97 -503c-5.33301 -25.333 -14 -46.166 -26 -62.499s-25 -29.333 -39 -39
s-27.833 -16.334 -41.5 -20.001s-24.5 -5.5 -32.5 -5.5h-489l-18 3c-8.66699 8 -12.667 14.333 -12 19c2.66699 10 8.5 26.667 17.5 50l29 74l30 74z" />
    <glyph glyph-name="FLE006h" unicode="K" horiz-adv-x="874" 
d="M112 70l93.001 481.002c0.666992 1.33301 -0.333008 4.5 -3 9.5s-4.66699 8.5 -6 10.5l-38 49c-2 2.66699 -3 6 -3 10h309l-46 -240l69.5 66.5l59.5 59c18.667 19 36.167 37.833 52.5 56.5s32.166 38 47.499 58h270l-204 -220h1c4 0 13.5 -0.5 28.5 -1.5
s30.5 -3.33301 46.5 -7s29.833 -8.83398 41.5 -15.501s16.5 -15.334 14.5 -26.001l-56 -290l52 -70h-298l66 340h-208l-66 -340h-298c11.333 12 23.333 23.833 36 35.5z" />
    <glyph glyph-name="L" unicode="L" horiz-adv-x="682" 
d="M106 60l-60.999 -60h598l21 110l-70 -50h-250l99 510l36.5 31.5c9 7.66699 15.667 13.5 20 17.5s7.16602 6.66699 8.49902 8s2 2.33301 2 3h-355l50 -60z" />
    <glyph glyph-name="M" unicode="M" horiz-adv-x="1310" 
d="M1096 630l180.998 -629.996h-385l31 20c2 1.33301 5.83301 4.33301 11.5 9l18 15.5l18 16c5.66699 5 9.16699 8.16699 10.5 9.5c0 0.666992 0.5 2.16699 1.5 4.5s1.83301 4.16602 2.5 5.49902c0 1.33301 -0.333008 3.16602 -1 5.49902s-1 3.83301 -1 4.5l-89 350l-10 20
l-1.5 1c-1 0.666992 -2.5 1 -4.5 1c-0.666992 0 -1.83398 -0.333008 -3.50098 -1l-2.5 -1l-119 -191l78 -269h-386l31 20c2 1.33301 5.83301 4.33301 11.5 9l18.5 15.5l18.5 16c5.66699 5 9.16699 8.16699 10.5 9.5c0 0.666992 0.333008 2.16699 1 4.5
s1.33398 4.16602 2.00098 5.49902c0 1.33301 -0.166992 3.16602 -0.5 5.49902s-0.5 3.83301 -0.5 4.5l-90 350l-9 20l-2 1c-1.33301 0.666992 -2.66602 1 -3.99902 1s-2.66602 -0.333008 -3.99902 -1l-2 -1l-240 -383l64 -77h-220l10 10c10 5.33301 17.5 10 22.5 14
s10.167 9.33301 15.5 16l331 520l-60 70h300l79 -270l128 200l-61 70h301z" />
    <glyph glyph-name="N" unicode="N" horiz-adv-x="806" 
d="M194 560l-96.9961 -500.001c-0.666992 -1.33301 -2.83398 -4.5 -6.50098 -9.5s-6.83398 -8.5 -9.50098 -10.5l-44 -40h292l67 345l221 -345h153l-37 60l97 500c17.333 15.333 31.166 29 41.499 41s18.166 21.667 23.499 29h-296l-43 -225l-149 225h-252
c1.33301 -5.33301 3.83301 -11.666 7.5 -18.999s7.5 -14.5 11.5 -21.5s7.83301 -13.167 11.5 -18.5s6.5 -9 8.5 -11z" />
    <glyph glyph-name="o" unicode="O" horiz-adv-x="861" 
d="M839 630l-572.997 -0.000976562c-4.66699 0 -11.667 -5.83301 -21 -17.5s-19.833 -26.667 -31.5 -45s-23.834 -38.666 -36.501 -60.999s-24.5 -44.166 -35.5 -65.499s-20.333 -41.166 -28 -59.499s-12.5 -32.166 -14.5 -41.499l-3 -16
c-0.666992 -3.33301 -1.16699 -6.16602 -1.5 -8.49902s-0.5 -4.83301 -0.5 -7.5c0 -4.66699 2.66699 -10.667 8 -18c4.66699 -8 11.167 -18.333 19.5 -31l27.5 -41.5l30.5 -45l29 -42l23.5 -33l13 -17.5c6 -7.33301 13.667 -15.666 23 -24.999s19.666 -18 30.999 -26
s23.5 -14.833 36.5 -20.5s26.5 -8.5 40.5 -8.5h110c13.333 0 27.666 2.83301 42.999 8.5s30.333 12.5 45 20.5s28.5 16.667 41.5 26s23.833 17.666 32.5 24.999c3.33301 2.66699 10 8.5 20 17.5l35.5 33l45 42l47.5 45l43 41.5l32 31c8 7.33301 13 13.333 15 18
s3.66699 10 5 16l3 16c2 9.33301 2.66699 23.166 2 41.499s-2.5 38.166 -5.5 59.499s-6.5 43.166 -10.5 65.499s-8.5 42.666 -13.5 60.999s-9.83301 33.333 -14.5 45s-9 17.5 -13 17.5zM320.003 339.999c15.333 36 32.833 72.833 52.5 110.5s45.5 77.834 77.5 120.501h183
c14 -42.667 24 -82.834 30 -120.501s9.66699 -74.5 11 -110.5l-221 -218z" />
    <glyph glyph-name="P" unicode="P" horiz-adv-x="782" 
d="M95 60l12.999 15.998l92 475c-2 2 -5.16699 5.83301 -9.5 11.5s-9 12.334 -14 20.001s-9.5 15.667 -13.5 24s-6.66699 16.166 -8 23.499h689c9.33301 0 15.333 -4.66699 18 -14s3.33398 -17.666 2.00098 -24.999l-2 -6c-5.33301 -8.66699 -14 -21 -26 -37
s-26 -33.167 -42 -51.5l-51.5 -56.5c-18.333 -19.333 -36.666 -36.666 -54.999 -51.999s-35.833 -28 -52.5 -38s-31.334 -15 -44.001 -15h-201l-65 -335h-291l45 40c2 2 5 5.5 9 10.5s6.33301 8.16699 7 9.5zM444.999 579.998l-37.002 -189.999
c16.667 6.66699 34.334 16.667 53.001 30s37.334 28.666 56.001 45.999s36.5 35.833 53.5 55.5s32.167 39.167 45.5 58.5h-171z" />
    <glyph glyph-name="q" unicode="Q" horiz-adv-x="861" 
d="M839 630l-572.999 -0.00292969c-4 0 -10.667 -5.83301 -20 -17.5s-19.833 -26.667 -31.5 -45s-23.834 -38.666 -36.501 -60.999s-24.5 -44.166 -35.5 -65.499s-20.5 -41.166 -28.5 -59.499s-13 -32.166 -15 -41.499l-3 -16
c-0.666992 -3.33301 -1.16699 -6.16602 -1.5 -8.49902s-0.5 -4.83301 -0.5 -7.5c0 -4.66699 2.66699 -10.667 8 -18c4.66699 -8 11.167 -18.333 19.5 -31l27.5 -41.5l30.5 -45l29 -42l23.5 -33l13 -17.5c6 -7.33301 13.667 -15.666 23 -24.999s19.666 -18 30.999 -26
s23.5 -14.833 36.5 -20.5s26.5 -8.5 40.5 -8.5h451c-8 6.66699 -16.167 12.834 -24.5 18.501s-13.166 9.16699 -14.499 10.5l-86 101l44.5 40.5l48 45l44 42.5l32.5 32c8 7.33301 13 13.333 15 18s3.66699 10 5 16l3 16c2 9.33301 2.66699 23.166 2 41.499
s-2.5 38.166 -5.5 59.499s-6.5 43.166 -10.5 65.499s-8.5 42.666 -13.5 60.999s-9.83301 33.333 -14.5 45s-9 17.5 -13 17.5zM412.001 338.997l109 -137l-66 -68l-135 206c15.333 36 33 72.833 53 110.5s46 77.834 78 120.501h183
c14.667 -42.667 24.667 -82.834 30 -120.501s8.66602 -74.5 9.99902 -110.5l-83 -77l-48 57l83 39h-245l-1 -4c9.33301 -3.33301 16.333 -6 21 -8s8.33398 -4.66699 11.001 -8z" />
    <glyph glyph-name="R" unicode="R" horiz-adv-x="874" 
d="M112 70l93 481.001c0.666992 1.33301 -0.333008 4.5 -3 9.5s-4.66699 8.5 -6 10.5l-38 49c-2 2.66699 -3 6 -3 10h699c7.33301 0 12.333 -3.66699 15 -11s4 -14.666 4 -21.999c0 -5.33301 -0.333008 -9 -1 -11c-1.33301 -8.66699 -3 -14.667 -5 -18s-7.33301 -9 -16 -17
l-27 -26.5l-41 -39.5l-41 -39.5l-26 -25.5l-2 -10c4 0 13.5 -0.5 28.5 -1.5s30.5 -3.33301 46.5 -7s29.833 -8.83398 41.5 -15.501s16.5 -15.334 14.5 -26.001l-56 -290l52 -70h-298l66 340h-208l-66 -340h-298c11.333 12 23.333 23.833 36 35.5zM455 581.001l-37 -191
l28 20l36.5 33l55 51.5l53.5 52c16.667 16.333 28 27.833 34 34.5h-170z" />
    <glyph glyph-name="S" unicode="S" horiz-adv-x="720" 
d="M154 232l9.99902 -5.99902l71 -167l8 -5c1.33301 0 6.33301 0.833008 15 2.5s19.167 3.83398 31.5 6.50098s21.833 5.33398 28.5 8.00098c49.333 12 77 33.333 83 64c4 18 0.333008 34.667 -11 50l-31 26l-47 40l-55.5 47l-56 47l-48 40
c-14.333 12 -25.166 20.667 -32.499 26c-4 6 -5 12.667 -3 20l1 7c1.33301 6.66699 5.5 13.334 12.5 20.001s15.667 13.167 26 19.5s21.833 12.166 34.5 17.499s25.667 10.333 39 15l126 42.5l131.5 42c43.667 13.667 85.834 26.167 126.501 37.5s77.667 21 111 29l44 6
l1 -13l-98 -266l-10 5l-112 153c-2 2 -3.16699 3.66699 -3.5 5s-2.16602 2 -5.49902 2h-12c-36 -6.66699 -63.333 -16.5 -82 -29.5s-29.667 -28.167 -33 -45.5l-2 -11c-3.33301 -7.33301 -1.33301 -14.333 6 -21l296 -248c5.33301 -5.33301 8.16602 -10.833 8.49902 -16.5
s-0.166992 -11.167 -1.5 -16.5c-3.33301 -16 -14.333 -28.333 -33 -37s-42 -17.334 -70 -26.001c-91.333 -28 -180.833 -53.833 -268.5 -77.5s-177.834 -44.834 -270.501 -63.501h-25l4 11.5c2 5.66699 3.66699 9.5 5 11.5c2.66699 10 8.16699 26.833 16.5 50.5l27 74.5
l28 74c9 23.333 15.5 39.666 19.5 48.999z" />
    <glyph glyph-name="FL0054h" unicode="T" horiz-adv-x="688" 
d="M182 0l44 40c2.66699 2 6 5.5 10 10.5s6.33301 8.16699 7 9.5l100 516h-131l-69 -39l18 93h610l-18 -93l-53 39h-113l-102 -524c0.666992 -6 2.66699 -10 6 -12l29 -40h-338z" />
    <glyph glyph-name="U" unicode="U" horiz-adv-x="786" 
d="M460 50l112.001 580h299c-11.333 -12 -23.166 -23.667 -35.499 -35l-38.5 -34l-93 -481c-0.666992 -1.33301 0.166016 -4.5 2.49902 -9.5s4.16602 -8.5 5.49902 -10.5l39 -50c0 -1.33301 0.5 -3 1.5 -5s1.16699 -3.66699 0.5 -5h-541c-7.33301 -0 -17 1.83301 -29 5.5
s-23.167 10.334 -33.5 20.001s-18.5 22.667 -24.5 39s-6.33301 37.166 -1 62.499l84 434l-53 69h298l-97 -501c0.666992 -21.333 3.83398 -37 9.50098 -47s11.667 -17 18 -21s12.166 -6.33301 17.499 -7s8 -2 8 -4h51z" />
    <glyph glyph-name="V" unicode="V" 
d="M337 0l-181.999 629.998h385l-29 -21c-2 -1.33301 -5.83301 -4.33301 -11.5 -9l-18 -15l-18 -15.5c-5.66699 -5 -9.16699 -8.16699 -10.5 -9.5c0 -0.666992 -0.5 -2.16699 -1.5 -4.5s-1.5 -4.16602 -1.5 -5.49902c-0.666992 -0.666992 -1 -2.66699 -1 -6v-4l91 -350
l8 -20l2 -1c1.33301 -0.666992 3 -1 5 -1c0.666992 0 1.66699 0.333008 3 1l2 1l240 384l-63 76h217l-11 -12c-4 -1.33301 -9.33301 -4.66602 -16 -9.99902s-12.334 -11.333 -17.001 -18l-332 -520l59 -70h-300z" />
    <glyph glyph-name="FL0057h" unicode="W" horiz-adv-x="1066" 
d="M994 69c2 -3.33301 5.16895 -7.99902 9.50195 -13.999s8.66602 -12.333 12.999 -19s8.16602 -13.334 11.499 -20.001s5 -12 5 -16h-296l-134 366l-274 -366h-296c2 4 5.83301 9.16699 11.5 15.5l18 20c6.33301 7 12.833 13.5 19.5 19.5l16 14l98 501
c0 1.33301 -1 4.5 -3 9.5s-3.66699 8.5 -5 10.5l-29 40h279l-71 -367l288 367l146 -367l71 367h280l-44 -40c-2.66699 -2 -6 -5.5 -10 -10.5s-6 -8.16699 -6 -9.5z" />
    <glyph glyph-name="FL0058h" unicode="X" horiz-adv-x="874" 
d="M471 630c7.33301 -21.333 16.502 -42.833 27.502 -64.5s23.167 -41.5 36.5 -59.5l56.5 59c20.333 22 38.833 43.667 55.5 65h270l-204 -220h1c4 0 13.5 -0.5 28.5 -1.5s30.5 -3.33301 46.5 -7s29.833 -8.83398 41.5 -15.501s16.5 -15.334 14.5 -26.001l-56 -290l52 -70
h-298l66 340h-212l-66 -340h-298l80 70l56 290c2 10.667 10.167 19.334 24.5 26.001s30.166 11.834 47.499 15.501s33.666 6 48.999 7s25 1.5 29 1.5h1l-120 220h271z" />
    <glyph glyph-name="Y" unicode="Y" horiz-adv-x="856" 
d="M360 305l-46.998 -245c-0.666992 -1.33301 -2.83398 -4.5 -6.50098 -9.5s-6.83398 -8.5 -9.50098 -10.5l-44 -40h280l70 362l304 248c3.33301 3.33301 7.83301 6 13.5 8s13.834 4.66699 24.501 8v4h-245l69 -39l-210 -172l-105 165l-0.5 1.5
c-0.333008 1 -0.5 2.16699 -0.5 3.5c0.666992 0.666992 1.16699 1.5 1.5 2.5l0.5 1.5c1.33301 0.666992 4.66602 2.16699 9.99902 4.5s11 5 17 8l17 8.5c5.33301 2.66699 9 4.66699 11 6l27 10h-382z" />
    <glyph glyph-name="Z" unicode="Z" horiz-adv-x="717" 
d="M649 231c0.666992 -4.66699 1.00684 -11.001 1.00684 -19.001v-29c0 -16.667 -0.166992 -35.167 -0.5 -55.5s-0.833008 -40 -1.5 -59s-1.16699 -36.5 -1.5 -52.5s-0.833008 -27.667 -1.5 -35c0.666992 -1.33301 0.666992 -5 0 -11s-1.33398 -10 -2.00098 -12h-23
c-92 24.667 -182.5 51.167 -271.5 79.5l-274.5 87.5c-8.66699 2.66699 -13.334 6 -14.001 10s0.666016 13.667 3.99902 29v2c1.33301 5.33301 3.16602 11 5.49902 17s7.16602 11.333 14.499 16l390 247c8.66699 6.66699 13.667 14.667 15 24l2 9
c3.33301 17.333 -2 32.833 -16 46.5s-38 23.5 -72 29.5h-13c-6.66699 0 -10.334 -2 -11.001 -6l-168 -154l-11 -6l6 279l58 -5l488 -178c12 -4 19 -8.5 21 -13.5s1.33301 -16.167 -2 -33.5l-1 -4c-0.666992 -3.33301 -1.83398 -6.66602 -3.50098 -9.99902
s-6.5 -7.33301 -14.5 -12l-351 -226c-18 -16 -29 -33 -33 -51c-6 -30.667 14 -52 60 -64c4 -3.33301 11.167 -6.33301 21.5 -9s19.333 -4.5 27 -5.5s12.167 -1.5 13.5 -1.5l11 3l137 169z" />
    <glyph glyph-name="bracketleft" unicode="[" horiz-adv-x="544" 
d="M631 630h-470l-122 -630h472l-73 60h-154l100 516h155z" />
    <glyph glyph-name="backslash" unicode="\" horiz-adv-x="860" 
d="M190 611l478 -571.998l-81 -39h240l1 4c-9.33301 1.33301 -16.5 3.66602 -21.5 6.99902s-8.83301 6.66602 -11.5 9.99902l-475 571l83 38h-248l2 -3c7.33301 -3.33301 14 -6 20 -8s10.333 -4.66699 13 -8z" />
    <glyph glyph-name="bracketright" unicode="]" horiz-adv-x="545" 
d="M157 630h470l-122 -630h-472l97 60h154l100 516h-155z" />
    <glyph glyph-name="asciicircum" unicode="^" 
d="M650 630l181.998 -629.999h-385l29 21c2 1.33301 5.83301 4.33301 11.5 9l18.5 15c6.66699 5.33301 12.834 10.5 18.501 15.5s9.16699 8.16699 10.5 9.5c0 0.666992 0.333008 2.16699 1 4.5s1.33398 4.16602 2.00098 5.49902v10l-90 350l-9 20l-2 1
c-1.33301 0.666992 -2.66602 1 -3.99902 1c-0.666992 0 -1.83398 -0.333008 -3.50098 -1l-2.5 -1l-239 -384l62 -76h-217l2 8c10.667 0 19.167 3.66699 25.5 11l17.5 21l332 520l-60 70h300z" />
    <glyph glyph-name="underscore" unicode="_" horiz-adv-x="455" 
d="M51 60h383l-73 -60h-322z" />
    <glyph glyph-name="grave" unicode="`" horiz-adv-x="325" 
d="M390 506l-52 124h-183l64 -124h171z" />
    <glyph glyph-name="a" unicode="a" horiz-adv-x="871" 
d="M354 630l62.0039 -69.999l-209 -326h-75l-0.5 -5.5c-0.333008 -3.66699 0.166992 -6.83398 1.5 -9.50098c1.33301 -5.33301 3.66602 -10 6.99902 -14l10 -11.5c3.33301 -3.66699 6 -7.83398 8 -12.501s2.33301 -10 1 -16v-8l-75 -117
c-4.66699 -6 -11.334 -12.167 -20.001 -18.5s-16.334 -11.166 -23.001 -14.499l-8 -7h223l-64 66l63 103l22 10h246l22 -88c-0.666992 -0.666992 -1 -2.33398 -1 -5.00098v-5c-0.666992 -1.33301 -1.33398 -3.16602 -2.00098 -5.49902s-1 -3.83301 -1 -4.5
c-1.33301 -1.33301 -4.83301 -4.5 -10.5 -9.5l-18.5 -16l-18.5 -15.5c-5.66699 -4.66699 -9.5 -7.66699 -11.5 -9l-29 -21h385l-184 630h-300zM439.004 460.001l-0.500977 1c-0.333008 0.666992 -0.166016 1 0.500977 1c2 0 3.5 -0.333008 4.5 -1l1.5 -1l9 -20l51 -201h-209
z" />
    <glyph glyph-name="b" unicode="b" horiz-adv-x="861" 
d="M155 630l682.999 -0.000976562c8 0 14.833 -2 20.5 -6s10.167 -8.66699 13.5 -14s5.5 -11.333 6.5 -18s1.16699 -12.334 0.5 -17.001c-2 -8.66699 -3.83301 -14.667 -5.5 -18s-6.5 -9 -14.5 -17l-27 -26.5l-40.5 -39l-41 -39l-26.5 -25.5l-2 -10h83
c13.333 0 26 -0.666992 38 -2s22.167 -4.16602 30.5 -8.49902s14.5 -10.5 18.5 -18.5s4.66699 -18.333 2 -31l-3 -16c-1.33301 -6 -3 -11.333 -5 -16s-7 -10.667 -15 -18l-32 -31l-43.5 -41l-48 -44.5l-45 -42l-35.5 -33.5c-10 -9.33301 -16.333 -15.333 -19 -18
c-8.66699 -7.33301 -19.5 -15.666 -32.5 -24.999s-26.833 -18 -41.5 -26s-29.667 -14.833 -45 -20.5s-29.666 -8.5 -42.999 -8.5h-379l107 550c0 1.33301 -1 4.5 -3 9.5s-3.66699 8.5 -5 10.5zM416.999 339.999l-54 -280h13l298 280h-257zM461.999 569.999l-37 -190
c8.66699 4 19.667 11 33 21s27.666 21.5 42.999 34.5l46 41l42 39.5c12.667 12 22.834 22.167 30.501 30.5s11.5 12.833 11.5 13.5l2 10h-171z" />
    <glyph glyph-name="C" unicode="c" horiz-adv-x="714" 
d="M702 361l-9 5.99805l-79 167c-4 6 -9.16699 13 -15.5 21s-13.5 15 -21.5 21h-128c-4 -0.666992 -8.83301 -2 -14.5 -4s-12 -5.5 -19 -10.5s-14.167 -12.333 -21.5 -22s-14.333 -22.5 -21 -38.5l-72 -372c0.666992 -22 3.83398 -38.167 9.50098 -48.5
s11.834 -17.166 18.501 -20.499h233l97 60l-23 -120h-479c-7.33301 0 -17 1.83301 -29 5.5s-23.167 10.334 -33.5 20.001s-18.5 22.667 -24.5 39s-6.33301 37.166 -1 62.499l73 376c4.66699 25.333 13 46.166 25 62.499s25 29.333 39 39s27.833 16.334 41.5 20.001
s24.167 5.5 31.5 5.5h490l19 -3c8 -8 11.667 -14.333 11 -19c-2.66699 -10 -8.33398 -26.667 -17.001 -50l-28.5 -74l-30 -74c-9.66699 -23.333 -16.834 -39.666 -21.501 -48.999z" />
    <glyph glyph-name="d" unicode="d" horiz-adv-x="870" 
d="M155 630l49.999 -60c1.33301 -2 3 -5.5 5 -10.5s3 -8.16699 3 -9.5l-107 -550h378c14 -0 28.667 2.83301 44 8.5s30.333 12.5 45 20.5s28.334 16.667 41.001 26l33 25l18.5 18l35.5 33l45.5 42l48 45l43.5 41l32 31c8 7.33301 13 13.333 15 18s3.66699 10 5 16l59 306
h-794zM460.999 570h256l-45 -230l-298 -280h-12z" />
    <glyph glyph-name="e" unicode="e" horiz-adv-x="694" 
d="M155 630l48 -71c1.33301 -2.66699 3 -6.33398 5 -11.001s3 -7.66699 3 -9l-89 -459c-0.666992 -1.33301 -3 -4.5 -7 -9.5s-7 -8.5 -9 -10.5l-59 -50c-3.33301 -3.33301 -5.33301 -6.66602 -6 -9.99902h614l23 120l-96 -60h-220l55 285h208l73 60h-269l33 171h232l53 -40
l18 94h-610z" />
    <glyph glyph-name="f" unicode="f" horiz-adv-x="682" 
d="M217 540l-61 91h610l-19 -95l-53 40h-232l-33 -171h269l-73 -60h-214l-67 -345h-232z" />
    <glyph glyph-name="FL0067h" unicode="g" horiz-adv-x="732" 
d="M425 340l13.999 69.999h216c4 0 12.333 -0.333008 25 -1s25.834 -2.5 39.501 -5.5s25.334 -7.83301 35.001 -14.5s13.167 -16.334 10.5 -29.001l-55 -281c-2 -10 -6 -19.833 -12 -29.5s-13.5 -18.167 -22.5 -25.5s-19 -13.166 -30 -17.499s-22.5 -6.5 -34.5 -6.5h-454
c-7.33301 0 -17 1.83301 -29 5.5s-23.167 10.334 -33.5 20.001s-18.5 22.667 -24.5 39s-6.33301 37.166 -1 62.499l73 376c4.66699 25.333 13 46.166 25 62.499s25 29.333 39 39s27.833 16.334 41.5 20.001s24.167 5.5 31.5 5.5h479l-23 -120l-74 60h-233
c-8 -3.33301 -16.833 -10.166 -26.5 -20.499s-19.167 -26.5 -28.5 -48.5l-72 -372c0 -16 1.66699 -28.833 5 -38.5s7.5 -17 12.5 -22s10.167 -8.5 15.5 -10.5s9.66602 -3.33301 12.999 -4h128l56 286h-106z" />
    <glyph glyph-name="h" unicode="h" horiz-adv-x="789" 
d="M194 560l-97 -500c-0.666992 -1.33301 -2.83398 -4.5 -6.50098 -9.5s-6.83398 -8.5 -9.50098 -10.5l-44 -40h290l67 345h137l-67 -345h289l-29 40c-1.33301 2 -3.16602 5.5 -5.49902 10.5s-3.16602 8.16699 -2.49902 9.5l97 500l11.5 11l18 17.5l18 18
c5.66699 5.66699 9.5 9.83398 11.5 12.501l2 1l2.5 5c1 2 1.5 3.66699 1.5 5h-292l-43 -225h-137l43 225h-294c0 -4 1 -7.33301 3 -10v-1c0.666992 -2.66699 2.5 -6.83398 5.5 -12.501s6.5 -11.834 10.5 -18.501s8 -12.667 12 -18s6.66699 -8.66602 8 -9.99902z" />
    <glyph glyph-name="i" unicode="i" horiz-adv-x="360" 
d="M194 560c-1.33301 1.33301 -4.00195 4.66504 -8.00195 9.99805s-8 11.333 -12 18s-7.5 12.834 -10.5 18.501s-4.83301 9.83398 -5.5 12.501v1c-2 2.66699 -3 6 -3 10h285l-122 -630h-281l44 40c2.66699 2 5.83398 5.5 9.50098 10.5s5.83398 8.16699 6.50098 9.5z" />
    <glyph glyph-name="j" unicode="j" horiz-adv-x="671" 
d="M130 235c-4.66699 -9.33301 -11.832 -25.6709 -21.499 -49.0039l-30 -74l-28.5 -74c-8.66699 -23.333 -14.334 -40 -17.001 -50c-1.33301 -2 -2.66602 -5.83301 -3.99902 -11.5s-2.33301 -9.5 -3 -11.5h26l540 125c6.66699 1.33301 14 4.83301 22 10.5
s15.5 12.334 22.5 20.001s13.167 15.834 18.5 24.501s8.66602 16.667 9.99902 24l89 461h-297c0 -1.33301 0.333008 -2.66602 1 -3.99902s2.33398 -4.16602 5.00098 -8.49902l12 -19.5l22 -37l-79 -407c-3.33301 -10 -7.33301 -18.833 -12 -26.5s-11 -14.834 -19 -21.501
s-18.333 -12.667 -31 -18s-29 -10.666 -49 -15.999c-7.33301 -2.66699 -17.833 -5 -31.5 -7s-25.334 -3.5 -35.001 -4.5s-15.167 -1.5 -16.5 -1.5l-9 5l-76 165z" />
    <glyph glyph-name="k" unicode="k" horiz-adv-x="863" 
d="M845 611c3.33301 3.33301 7.83496 5.83691 13.502 7.50391l24.5 7.5v4h-245l69 -38l-312 -253l56 291h-296c0 -4 1 -7.33301 3 -10v-1c0.666992 -2.66699 2.5 -6.83398 5.5 -12.501s6.5 -11.834 10.5 -18.501s8 -12.667 12 -18s6.66699 -8.66602 8 -9.99902l-97 -500
c-0.666992 -1.33301 -2.83398 -4.5 -6.50098 -9.5s-6.83398 -8.5 -9.50098 -10.5l-44 -40h292l54 279l148 -234v-5c0 -0.666992 -0.333008 -1.5 -1 -2.5l-1 -1.5l-9.5 -5c-5 -2.66699 -10.5 -5.33398 -16.5 -8.00098s-11.667 -5.33398 -17 -8.00098
s-9 -4.33398 -11 -5.00098l-21 -10h376l-257 386z" />
    <glyph glyph-name="l" unicode="l" horiz-adv-x="682" 
d="M106 60l-61 -60h598l21 110l-70 -50h-250l110 570h-299l50 -60z" />
    <glyph glyph-name="m" unicode="m" horiz-adv-x="1066" 
d="M1090 561c3.33301 2.66699 8.33398 7 15.001 13s13.5 12.5 20.5 19.5s13.333 13.833 19 20.5s9.16699 12 10.5 16h-296l-276 -366l-132 366h-296c0 -4 1.5 -9.16699 4.5 -15.5s6.66699 -13 11 -20s8.66602 -13.5 12.999 -19.5s7.83301 -10.667 10.5 -14l-97 -501
c-0.666992 -1.33301 -2.83398 -4.5 -6.50098 -9.5s-6.83398 -8.5 -9.50098 -10.5l-44 -40h279l71 367l146 -367l288 367l-71 -367h280l-29 40c-1.33301 2 -3.16602 5.5 -5.49902 10.5s-3.16602 8.16699 -2.49902 9.5z" />
    <glyph glyph-name="n" unicode="n" horiz-adv-x="809" 
d="M194 560l-96.998 -500c-0.666992 -1.33301 -2.83398 -4.5 -6.50098 -9.5s-6.83398 -8.5 -9.50098 -10.5l-44 -40h290l67 345l320 -380l116 595c2.66699 2 7 5.66699 13 11s12.5 11.5 19.5 18.5l21 21.5c7 7.33301 12.5 13.666 16.5 18.999h-301l-45 -235l-205 235h-194
c1.33301 -5.33301 3.83301 -11.666 7.5 -18.999s7.5 -14.5 11.5 -21.5s7.83301 -13.167 11.5 -18.5s6.5 -9 8.5 -11z" />
    <glyph glyph-name="O" unicode="o" horiz-adv-x="762" 
d="M819 503l-73.002 -376c-5.33301 -25.333 -14 -46.166 -26 -62.499s-25 -29.333 -39 -39s-27.667 -16.334 -41 -20.001s-24 -5.5 -32 -5.5h-453c-7.33301 -0 -17.166 1.83301 -29.499 5.5s-23.666 10.334 -33.999 20.001s-18.5 22.667 -24.5 39s-6.33301 37.166 -1 62.499
l73 376c4.66699 25.333 13 46.166 25 62.499s25.167 29.333 39.5 39s28.166 16.334 41.499 20.001s24 5.5 32 5.5h453c7.33301 0 17 -1.83301 29 -5.5s23.333 -10.334 34 -20.001s18.834 -22.667 24.501 -39s6.16699 -37.166 1.5 -62.499zM369.998 501l-72.0029 -371.998
c0 -16 1.83301 -28.833 5.5 -38.5s8 -17.167 13 -22.5s10 -8.83301 15 -10.5s9.16699 -2.83398 12.5 -3.50098h94c4.66699 0.666992 9.83398 2 15.501 4s11.834 5.5 18.501 10.5s13.5 12.333 20.5 22s14.167 22.5 21.5 38.5l72 372c2 16 1.33301 28.667 -2 38
s-7.66602 16.666 -12.999 21.999s-11 9 -17 11s-10.667 3.33301 -14 4h-94c-3.33301 -0.666992 -8 -2 -14 -4s-12.5 -5.5 -19.5 -10.5s-14.167 -12.333 -21.5 -22s-14.333 -22.5 -21 -38.5z" />
    <glyph glyph-name="p" unicode="p" horiz-adv-x="782" 
d="M200 551c-2 2 -5.16797 5.83105 -9.50098 11.498s-9 12.334 -14 20.001s-9.5 15.667 -13.5 24s-6.66699 16.166 -8 23.499h689c9.33301 0 15.333 -4.66699 18 -14s3.33398 -17.666 2.00098 -24.999l-2 -6c-5.33301 -8.66699 -14 -21 -26 -37s-26 -33.167 -42 -51.5
l-51.5 -56.5c-18.333 -19.333 -36.666 -36.666 -54.999 -51.999s-35.833 -28 -52.5 -38s-31.334 -15 -44.001 -15h-198l-65 -335h-235zM444.999 579.998l-37.002 -189.999c10.667 4.66699 24.834 13.667 42.501 27s36.334 28.833 56.001 46.5s39.167 36.667 58.5 57
s36.333 40.166 51 59.499h-171z" />
    <glyph glyph-name="FL0072h" unicode="q" horiz-adv-x="744" 
d="M803 503c4.66699 25.333 4.16895 46.165 -1.49805 62.498s-13.834 29.333 -24.501 39s-22 16.334 -34 20.001s-21.667 5.5 -29 5.5h-433c-8 0 -18.667 -1.83301 -32 -5.5s-27.166 -10.334 -41.499 -20.001s-27.5 -22.667 -39.5 -39s-20.333 -37.166 -25 -62.499l-73 -376
c-5.33301 -25.333 -5 -46.166 1 -62.499s14.167 -29.333 24.5 -39s21.666 -16.334 33.999 -20.001s22.166 -5.5 29.499 -5.5h329l31 -39h234l-67 82c10 10 18.833 21.833 26.5 35.5s13.5 29.834 17.5 48.501zM374.002 500.999c6.66699 16 13.832 28.833 21.499 38.5
s15 17 22 22s13.5 8.5 19.5 10.5s11 3.33301 15 4h72c4 -0.666992 8.5 -2 13.5 -4s9.66699 -5.5 14 -10.5s8.33301 -12.333 12 -22s5.83398 -22.5 6.50098 -38.5l-55 -283h-196zM440 54.999l-89.002 0.000976562c-3.33301 0 -8.16602 1.33301 -14.499 4s-12.5 7 -18.5 13
s-10.667 13.667 -14 23s-3.66602 20.666 -0.999023 33.999l15 75z" />
    <glyph glyph-name="r" unicode="r" horiz-adv-x="874" 
d="M112 70l93.001 481.003c0.666992 1.33301 -0.333008 4.5 -3 9.5s-4.66699 8.5 -6 10.5l-38 49c-2 2.66699 -3 6 -3 10h699c7.33301 0 12.333 -3.66699 15 -11s4 -14.666 4 -21.999c0 -5.33301 -0.333008 -9 -1 -11c-0.666992 -4 -1.83398 -7.33301 -3.50098 -10
s-3.5 -5 -5.5 -7s-4 -4.33301 -6 -7s-4 -6.33398 -6 -11.001c-2.66699 -5.33301 -10 -14.333 -22 -27s-25.333 -25.834 -40 -39.501l-43 -39c-14 -12.333 -24 -20.833 -30 -25.5l-2 -10c4 0 13.5 -0.5 28.5 -1.5s30.5 -3.33301 46.5 -7s29.833 -8.83398 41.5 -15.501
s16.5 -15.334 14.5 -26.001l-56 -290l52 -70h-298l66 340h-208l-66 -340h-298c11.333 12 23.333 23.833 36 35.5zM455.001 581.003l-37.001 -191c34 24.667 67.833 52.5 101.5 83.5s68.834 66.833 105.501 107.5h-170z" />
    <glyph glyph-name="s" unicode="s" horiz-adv-x="710" 
d="M168 246l-15.002 -25l-22.5 -38l-26 -44.5l-25.5 -45l-21.5 -39c-6.33301 -11.667 -10.833 -20.5 -13.5 -26.5l-5 -10c-2.66699 -5.33301 -4.33398 -9 -5.00098 -11c6.66699 -4.66699 14 -7 22 -7h533c14 0 26.333 2.5 37 7.5s20 11.5 28 19.5s14.333 16.833 19 26.5
s8 19.167 10 28.5c0.666992 2 1 5.33301 1 10s-1.33301 8.33398 -4 11.001l-245 418c-2 5.33301 -3.16699 9.66602 -3.5 12.999s0.166992 8.33301 1.5 15l2 9c4 9.33301 11 15.5 21 18.5s23.667 4.83301 41 5.5h20c2.66699 0 6.5 -0.166992 11.5 -0.5s10.333 -1 16 -2
s11 -2.33301 16 -4s8.83301 -4.16699 11.5 -7.5l85 -182l9 -6l128 233l5 17h-532c-10 0 -20.333 -2 -31 -6s-21 -10.167 -31 -18.5s-19.167 -19 -27.5 -32s-14.833 -28.5 -19.5 -46.5c0 -2 0.333008 -3.33301 1 -4c2.66699 -6.66699 9.33398 -20 20.001 -40l38.5 -69.5
l48.5 -83.5l49 -83.5l41 -68c12 -19 20.333 -31.5 25 -37.5c2.66699 -7.33301 4.83398 -13.833 6.50098 -19.5s1.83398 -11.167 0.500977 -16.5l-4 -16c-4 -13.333 -12 -24.833 -24 -34.5s-29.667 -14.5 -53 -14.5h-23c-7.33301 0 -15.333 0.333008 -24 1
s-15.667 1.16699 -21 1.5s-8.33301 0.5 -9 0.5l-6 5l-50 192z" />
    <glyph glyph-name="t" unicode="t" horiz-adv-x="688" 
d="M212 576h131l-100 -516c-0.666992 -1.33301 -3 -4.5 -7 -9.5s-7.33301 -8.5 -10 -10.5l-44 -40h293l112 576h113l53 -39l18 93h-610l-18 -93z" />
    <glyph glyph-name="u" unicode="u" horiz-adv-x="786" 
d="M356 129c0 -16 1.66602 -28.833 4.99902 -38.5s7.5 -17 12.5 -22s10.167 -8.5 15.5 -10.5s9.66602 -3.33301 12.999 -4h2c4.66699 0.666992 9.83398 2 15.501 4s11.834 5.5 18.501 10.5s13.5 12.333 20.5 22s14.167 22.5 21.5 38.5l97 501h298l-79 -69l-84 -434
c-5.33301 -25.333 -14 -46.166 -26 -62.499s-25 -29.333 -39 -39s-27.833 -16.334 -41.5 -20.001s-24.5 -5.5 -32.5 -5.5h-361c-7.33301 -0 -17 1.83301 -29 5.5s-23.167 10.334 -33.5 20.001s-18.5 22.667 -24.5 39s-6.33301 37.166 -1 62.499l84 434l-53 69h298z" />
    <glyph glyph-name="v" unicode="v" 
d="M337 0l-182 629.998h385l-29 -21c-2 -1.33301 -5.83301 -4.33301 -11.5 -9l-18 -15l-18 -15.5c-5.66699 -5 -9.16699 -8.16699 -10.5 -9.5c0 -0.666992 -0.5 -2.16699 -1.5 -4.5s-1.5 -4.16602 -1.5 -5.49902c-0.666992 -0.666992 -1 -2.66699 -1 -6v-4l91 -350l8 -20
l2 -1c1.33301 -0.666992 3 -1 5 -1c0.666992 0 1.66699 0.333008 3 1l2 1l240 384l-63 76h217l-20 -18c-2.66699 -1.33301 -6.16699 -3.66602 -10.5 -6.99902s-8.83301 -8.33301 -13.5 -15l-332 -520l59 -70h-300z" />
    <glyph glyph-name="w" unicode="w" horiz-adv-x="1310" 
d="M337 0l-181.998 629.996h385l-29 -20c-2 -1.33301 -6 -4.33301 -12 -9l-19 -15.5l-18.5 -16c-5.66699 -5 -8.83398 -8.16699 -9.50098 -9.5c0 -0.666992 -0.5 -2.16699 -1.5 -4.5s-1.5 -4.16602 -1.5 -5.49902c-0.666992 -1.33301 -0.833984 -3.16602 -0.500977 -5.49902
s0.5 -3.83301 0.5 -4.5l91 -350l8 -20l2 -1c1.33301 -0.666992 3 -1 5 -1c0.666992 0 1.66699 0.333008 3 1l2 1l119 191l-78 269h386l-30 -20c-2 -1.33301 -5.83301 -4.33301 -11.5 -9l-18.5 -15.5l-18.5 -16c-5.66699 -5 -9.16699 -8.16699 -10.5 -9.5
c0 -0.666992 -0.5 -2.16699 -1.5 -4.5s-1.5 -4.16602 -1.5 -5.49902c-0.666992 -1.33301 -0.666992 -3.16602 0 -5.49902s1 -3.83301 1 -4.5l90 -350l8 -20l2.5 -1c1.66699 -0.666992 3.5 -1 5.5 -1c0.666992 0 1.66699 0.333008 3 1l2 1l238 384l-63 76h217l-2 -8
c-8.66699 -4 -16.667 -8.66699 -24 -14s-13 -11.333 -17 -18l-332 -520l52 -70h-293l-78 270l-127 -200l52 -70h-293z" />
    <glyph glyph-name="x" unicode="x" horiz-adv-x="858" 
d="M900 606l-301.999 -248l225 -358h-381l10 7c1.33301 0.666992 5.66602 2.5 12.999 5.5l23.5 9.5l23 9c7 2.66699 10.833 4.33398 11.5 5.00098l1 1.5c0.666992 1 1 1.83301 1 2.5v5l-106 168l-208 -170l62 -43h-240l1 4c3.33301 2.66699 8.83301 5.66699 16.5 9
s14.167 6 19.5 8s8.33301 3 9 3l302 249l-224 358h382l-28 -10c-2 -1.33301 -5.66699 -3.33301 -11 -6l-17 -8.5l-16.5 -8c-5 -2.33301 -8.16699 -3.83301 -9.5 -4.5l-1 -1.5c-0.666992 -1 -1 -1.83301 -1 -2.5c-0.666992 -1.33301 -0.666992 -2.5 0 -3.5l1 -1.5l103 -166
l208 165l-65 47h246l-1 -4c-7.33301 -2.66699 -12.833 -4.83398 -16.5 -6.50098s-6.5 -3 -8.5 -4s-3.83301 -1.83301 -5.5 -2.5s-4.5 -1.66699 -8.5 -3z" />
    <glyph glyph-name="y" unicode="y" horiz-adv-x="856" 
d="M360 305l-205 324.999h382l-29 -13c-2 -1.33301 -5.5 -3.16602 -10.5 -5.49902l-16.5 -7.5c-6 -2.66699 -11.5 -5 -16.5 -7s-8.16699 -3.33301 -9.5 -4l-0.5 -1.5c-0.333008 -1 -0.833008 -1.83301 -1.5 -2.5c0 -1.33301 0.166992 -2.5 0.5 -3.5l0.5 -1.5l105 -165
l206 168l-65 43h245l-7 -6c-8 -5.33301 -15.333 -8.83301 -22 -10.5s-11.667 -4.16699 -15 -7.5l-298 -244l-70 -362h-232z" />
    <glyph glyph-name="z" unicode="z" horiz-adv-x="730" 
d="M658 246l-7.99902 -5.99707l-126 -192l-8 -5c-0.666992 0 -3.66699 -0.166992 -9 -0.5s-12.333 -0.833008 -21 -1.5s-16.667 -1 -24 -1c-10.667 0 -16.334 0.333008 -17.001 1h-6c-24 0 -40.167 4.66699 -48.5 14s-12.166 20.666 -11.499 33.999l2 13
c2 13.333 9.33301 26.333 22 39c8.66699 6.66699 23.167 20.667 43.5 42l70 75l83 91.5l82 92l67 76l38.5 43.5c3.33301 3.33301 6.33301 6.66602 9 9.99902s4.33398 6.33301 5.00098 9c0 -0.666992 -0.166992 -0.166992 -0.5 1.5s-0.5 4.16699 -0.5 7.5l2 2
c1.33301 16 -2.5 26.5 -11.5 31.5s-26.833 7.5 -53.5 7.5h-582l-1 -17l38 -233l11 6l155 182c6 5.33301 16.333 9.16602 31 11.499s27.667 3.5 39 3.5h19c17.333 0 30.666 -1.83301 39.999 -5.5s14 -10.167 14 -19.5l-2 -17c-0.666992 -3.33301 -1.5 -6.66602 -2.5 -9.99902
s-4.16699 -6.66602 -9.5 -9.99902l-423 -450c-4 -3.33301 -6.66699 -6.83301 -8 -10.5s-2.33301 -7.16699 -3 -10.5l-2 -14c-1.33301 -14.667 2 -24.334 10 -29.001s20.333 -7 37 -7h573l27 7c0.666992 2 0.666992 5.66699 0 11s-1.33398 8.66602 -2.00098 9.99902
c-0.666992 8.66699 -2.66699 23.5 -6 44.5l-11 66c-4 23 -8 44.667 -12 65s-7 34.5 -9 42.5z" />
    <glyph glyph-name="braceleft" unicode="{" horiz-adv-x="673" 
d="M762 630l-90.999 -54.001h-95c-4 -0.666992 -8.83301 -2 -14.5 -4s-12 -5.5 -19 -10.5s-14.167 -12.333 -21.5 -22s-14.333 -22.5 -21 -38.5l-72 -372c0.666992 -22 3.66699 -38.167 9 -48.5s11.666 -17.166 18.999 -20.499h114l70 -60h-356
c-7.33301 -0 -17 1.83301 -29 5.5s-23.167 10.334 -33.5 20.001s-18.5 22.667 -24.5 39s-6.33301 37.166 -1 62.499l42 217h-77l-49 60h138l19 99c4.66699 25.333 13 46.166 25 62.499s25 29.333 39 39s27.833 16.334 41.5 20.001s24.167 5.5 31.5 5.5h356z" />
    <glyph glyph-name="bar" unicode="|" horiz-adv-x="370" 
d="M39 0h293.997l-29 40c-1.33301 2 -3.16602 5.5 -5.49902 10.5s-3.16602 8.16699 -2.49902 9.5l97 501c2.66699 2 6.83398 5.66699 12.501 11l18 17c6.33301 6 12.333 12 18 18s9.5 10.333 11.5 13l1 1c0.666992 1.33301 1.66699 3 3 5s2.33301 3.66699 3 5h-298z" />
    <glyph glyph-name="braceright" unicode="}" horiz-adv-x="673" 
d="M155 630l72 -54h95c2.66699 -0.666992 6.66699 -1.83398 12 -3.50098s10.5 -5.16699 15.5 -10.5s9.33301 -12.833 13 -22.5s5.5 -22.5 5.5 -38.5l-72 -372c-9.33301 -22 -18.833 -38.167 -28.5 -48.5s-18.5 -17.166 -26.5 -20.499h-113l-95 -60h356
c8 -0 18.833 1.83301 32.5 5.5s27.5 10.334 41.5 20.001s27 22.667 39 39s20.667 37.166 26 62.499l42 217h76l73 60h-137l19 99c4.66699 25.333 4 46.166 -2 62.499s-14.167 29.333 -24.5 39s-21.5 16.334 -33.5 20.001s-22 5.5 -30 5.5h-356z" />
    <glyph glyph-name="asciitilde" unicode="~" horiz-adv-x="538" 
d="M453 437l-40 -63l-22 63h-210l-81 -123h131l41 63l20 -63h208l84 123h-131z" />
    <glyph glyph-name="FL0080h" horiz-adv-x="213" 
 />
    <glyph glyph-name="FL00A1h" unicode="&#xa1;" horiz-adv-x="416" 
d="M345 70l57 295.003l-22 69h-168l-56 -69l-57 -295c-0.666992 -2.66699 -3.83398 -6.83398 -9.50098 -12.501s-12.167 -11.834 -19.5 -18.501l-21.5 -20.5c-7 -7 -12.167 -13.167 -15.5 -18.5h350c0 0.666992 -0.333008 1.66699 -1 3s-2.16699 4.16602 -4.5 8.49902
s-6.16602 11 -11.499 20s-12.333 21.833 -21 38.5zM420 630.003h-169l-24 -124h169z" />
    <glyph glyph-name="FL00A2h" unicode="&#xa2;" horiz-adv-x="709" 
d="M607 750l-23.999 -120.001h181l19 -3c8 -8 11.667 -14.333 11 -19c-2.66699 -10 -8.33398 -26.667 -17.001 -50l-28.5 -74l-30 -74c-9.66699 -23.333 -16.834 -39.666 -21.501 -48.999l-9 6l-79 167l-15.5 20c-6.33301 8 -13.166 15 -20.499 21l-100 -515h84l97 60
l-23 -120h-170l-24 -121h-58l24 121h-251c-7.33301 -0 -17 1.83301 -29 5.5s-23.167 10.334 -33.5 20.001s-18.5 22.667 -24.5 39s-6.33301 37.166 -1 62.499l73 376c4.66699 25.333 13 46.166 25 62.499s25 29.333 39 39s27.833 16.334 41.5 20.001s24.167 5.5 31.5 5.5
h251l24 120h58zM296.001 128.999c1.33301 -22 4.66699 -38.168 10 -48.501s11.333 -17.166 18 -20.499h91l100 516h-71c-4 -0.666992 -8.83301 -2 -14.5 -4s-12 -5.5 -19 -10.5s-14.167 -12.333 -21.5 -22s-14.333 -22.5 -21 -38.5z" />
    <glyph glyph-name="FL00A3h" unicode="&#xa3;" horiz-adv-x="772" 
d="M116 400l-11.999 -60.002h44l-3 -16c-0.666992 -3.33301 -1.16699 -6.16602 -1.5 -8.49902s-0.5 -4.83301 -0.5 -7.5c0 -4.66699 2.66699 -10.667 8 -18c4.66699 -8 11.167 -18.333 19.5 -31l27.5 -41.5l30.5 -45l29 -42l23.5 -33l13 -17.5
c2 -3.33301 4.5 -6.66602 7.5 -9.99902s6.16699 -6.66602 9.5 -9.99902h-261l-12 -60h700l12 60h-191l-190 280h311c-4 5.33301 -11.5 14.166 -22.5 26.499l-37 41l-43 47.5l-40.5 46.5c-12 14.333 -21.833 26.833 -29.5 37.5s-11.167 17.334 -10.5 20.001l2 10h63l74 61
h-320c-8 0 -15.5 -2 -22.5 -6s-13.333 -8.83301 -19 -14.5s-10.167 -11.834 -13.5 -18.501s-5.33301 -12.334 -6 -17.001c-2 -8.66699 -2.83301 -14.667 -2.5 -18s3.16602 -9 8.49902 -17c2.66699 -5.33301 8 -14.166 16 -26.499l25.5 -39l26 -38.5l17.5 -25l-2 -10h-228z
" />
    <glyph glyph-name="FL00A4h" unicode="&#xa4;" horiz-adv-x="858" 
d="M764 448l-52.998 -271.001l112 -177h-381l27 10c2 0.666992 5.66699 2.33398 11 5.00098s11 5.33398 17 8.00098s11.5 5.33398 16.5 8.00098l9.5 5l1 1.5c0.666992 1 1 1.83301 1 2.5v5l-18 30h-211c-4.66699 0 -10 0.666992 -16 2s-12.333 3.66602 -19 6.99902l-56 -46
l68 -38h-240l1 4c9.33301 1.33301 17.333 3.66602 24 6.99902s12 6.66602 16 9.99902l152 125c-0.666992 0.666992 -0.333984 4.33398 0.999023 11.001l53 276l-123 198h382l-28 -10c-2 -1.33301 -5.66699 -3.33301 -11 -6l-17 -8.5l-16.5 -8
c-5 -2.33301 -8.16699 -3.83301 -9.5 -4.5l-1 -1.5c-0.666992 -1 -1 -1.83301 -1 -2.5c-0.666992 -1.33301 -0.666992 -2.5 0 -3.5l1 -1.5l26 -42h217l10 -1l61 50l-68 39h246l-1 -4l-25 -8c-6 -2 -10.667 -4.66699 -14 -8l-145 -118
c3.33301 -16.667 3.66602 -31.667 0.999023 -45zM452.002 445.999l-54 -275.999c1.33301 -23.333 6 -38.333 14 -45s14.667 -10 20 -10h54c5.33301 0.666992 13 4.16699 23 10.5s20.667 21.166 32 44.499l54 276c-2 23.333 -7 38.333 -15 45s-14 10.667 -18 12h-54h-1
c-6 -1.33301 -14.333 -5.5 -25 -12.5s-20.667 -21.833 -30 -44.5z" />
    <glyph glyph-name="FL00A5h" unicode="&#xa5;" horiz-adv-x="856" 
d="M191 307h168l-204 323h382l-27 -10c-2 -1.33301 -5.66699 -3.33301 -11 -6l-17 -8.5c-6 -3 -11.667 -5.66699 -17 -8s-8.66602 -3.83301 -9.99902 -4.5l-0.5 -1.5c-0.333008 -1 -0.833008 -1.83301 -1.5 -2.5c0 -1.33301 0.166992 -2.5 0.5 -3.5l0.5 -1.5l105 -165
l210 172l-69 39h245v-4c-10.667 -3.33301 -18.834 -6 -24.501 -8s-10.167 -4.66699 -13.5 -8l-304 -248l-10 -55h199l-73 -59h-138l-10 -50h199l-72 -59h-138l-27 -139h-232l27 139h-170l11 59h170l10 50h-170z" />
    <glyph glyph-name="FL00A6h" unicode="&#xa6;" horiz-adv-x="322" 
d="M39 0l122 630h244l-122 -630h-244z" />
    <glyph glyph-name="FL00A8h" unicode="&#xa7;" horiz-adv-x="858" 
d="M266 448l-53.001 -271l-180 -177h382l-24 10c-1.33301 0.666992 -4.16602 2.16699 -8.49902 4.5s-9 5 -14 8l-14 8.5c-4.33301 2.66699 -6.83301 4.33398 -7.5 5.00098v4c0 1.33301 0.333008 2.5 1 3.5l1 1.5l31 30h211c4 0 9.16699 0.666992 15.5 2
s13.166 3.66602 20.499 6.99902l60 62c2 2 3.33301 5.66699 4 11l53 276l201 198h-382l24 -10c1.33301 -1.33301 4 -3.33301 8 -6s8.5 -5.5 13.5 -8.5l13.5 -8c4 -2.33301 6.66699 -3.83301 8 -4.5l0.5 -1.5c0.333008 -1 0.5 -1.83301 0.5 -2.5
c-0.666992 -1.33301 -1.16699 -2.5 -1.5 -3.5l-0.5 -1.5l-42 -42h-217l-12 -1l-73 -49c-9.33301 -14 -15.666 -29 -18.999 -45zM578.999 446l-54.001 -276c-10.667 -23.333 -21.334 -38.333 -32.001 -45s-18.667 -10 -24 -10h-54c-2 0 -4.66699 0.666992 -8 2
s-6.66602 4 -9.99902 8s-6.5 9.5 -9.5 16.5s-4.83301 16.5 -5.5 28.5l54 276c10.667 23.333 21.167 38.333 31.5 45s18.166 10.667 23.499 12h54h1c2.66699 -0.666992 5.83398 -2 9.50098 -4s7 -5 10 -9s5.83301 -9.5 8.5 -16.5s4.33398 -16.167 5.00098 -27.5z" />
    <glyph glyph-name="FL00A7h" unicode="&#xa8;" horiz-adv-x="503" 
d="M562 506h-171l24 124h171zM308 506h-171l24 124h171z" />
    <glyph glyph-name="FL00A9h" unicode="&#xa9;" horiz-adv-x="289" 
d="M271 650c-16.667 0 -34.333 -4.00293 -53 -12.0029c-11.333 -4 -20 -8.66699 -26 -14s-12.333 -11.666 -19 -18.999c-9.33301 -8 -15.5 -15.833 -18.5 -23.5s-5.16699 -14.5 -6.5 -20.5c-2.66699 -16.667 -0.666992 -32 6 -46c3.33301 -7.33301 7.83301 -13.5 13.5 -18.5
s12.167 -9.5 19.5 -13.5c12.667 -8.66699 29 -13 49 -13c21.333 0 40.333 4.33301 57 13c15.333 6.66699 30.333 17.334 45 32.001c13.333 14 21.333 29.333 24 46s0.666992 31.334 -6 44.001c-4.66699 12.667 -16 23.667 -34 33c-15.333 8 -32.333 12 -51 12z
M269.001 635.997c11.333 0 24.999 -3.66602 40.999 -10.999c12.667 -6 22 -15 28 -27c6.66699 -10 8.33398 -22.333 5.00098 -37c-1.33301 -7.33301 -3.5 -14.166 -6.5 -20.499s-7.16699 -12.166 -12.5 -17.499c-20.667 -24.667 -49 -37 -85 -37
c-25.333 0 -44.833 7.16699 -58.5 21.5s-18.5 32.166 -14.5 53.499c2 9.33301 6.33301 18.666 13 27.999s14.834 17.666 24.501 24.999s20.167 13 31.5 17s22.666 5.66699 33.999 5zM285 545.998c-5.33301 -15.333 -18 -23 -38 -23c-22.667 0 -31.667 12.333 -27 37
c5.33301 25.333 20 38 44 38c12.667 0 22 -6.33301 28 -19l16 4c-2 18 -15.667 27 -41 27c-18 0 -32.833 -3.83301 -44.5 -11.5s-19.167 -20.167 -22.5 -37.5c-6.66699 -34.667 8 -52 44 -52c29.333 0 49 11 59 33z" />
    <glyph glyph-name="G" unicode="&#xaa;" horiz-adv-x="815" 
d="M515 0c52 36 103.164 80.334 153.497 133.001l156.5 170l20 23h-339c15.333 -14.667 29.5 -24.834 42.5 -30.501s25.167 -12.167 36.5 -19.5v-2c0 -1.33301 -0.5 -2.16602 -1.5 -2.49902l-1.5 -0.5l-214 -209h-44c-6.66699 2.66699 -12.667 9 -18 19
s-8.66602 26 -9.99902 48l72 372c6.66699 16 13.667 28.833 21 38.5s14.5 17 21.5 22s13.333 8.5 19 10.5s10.5 3.33301 14.5 4h128c8 -6 15.167 -13 21.5 -21s11.5 -15 15.5 -21l79 -167l9 -6c4.66699 9.33301 11.834 25.666 21.501 48.999l30 74l28.5 74
c8.66699 23.333 14.334 40 17.001 50c0.666992 4.66699 -3 11 -11 19l-19 3h-490c-7.33301 0 -17.833 -1.83301 -31.5 -5.5s-27.5 -10.334 -41.5 -20.001s-27 -22.667 -39 -39s-20.333 -37.166 -25 -62.499l-73 -376c-5.33301 -25.333 -5 -46.166 1 -62.499
s14.167 -29.333 24.5 -39s21.5 -16.334 33.5 -20.001s21.667 -5.5 29 -5.5h363z" />
    <glyph glyph-name="FL00ABh" unicode="&#xab;" horiz-adv-x="411" 
d="M451 407l27 140l-163 -62l-43 -225l139 -61l27 140l-70 36zM269 406l27 140l-163 -62l-44 -225l139 -61l28 140l-70 36z" />
    <glyph glyph-name="FL00ACh" unicode="&#xac;" horiz-adv-x="346" 
d="M118 405h268l-27 -140h-73l15 80h-195z" />
    <glyph glyph-name="FL00ADh" unicode="&#xad;" horiz-adv-x="304" 
d="M118 405l-12 -60h171l73 60h-232z" />
    <glyph glyph-name="FL00CEh" unicode="&#xae;" horiz-adv-x="743" 
d="M168 246l5.99805 -5.99902l50 -192l6 -5c0.666992 0 3.66699 -0.166992 9 -0.5s12.333 -0.833008 21 -1.5s16.667 -1 24 -1c10.667 0 16.334 0.333008 17.001 1h6c23.333 0 41 4.66699 53 14s20 20.666 24 33.999l4 13c1.33301 6.66699 1.66602 13.167 0.999023 19.5
s-3.33398 12.833 -8.00098 19.5c-6 6.66699 -14.667 20.667 -26 42l-38.5 75l-44.5 92l-43 92.5l-35 76c-10 21.667 -16.667 35.834 -20 42.501c-5.33301 7.33301 -7.33301 13.666 -6 18.999c0 -1.33301 1 1.66699 3 9v2c2.66699 8 7.83398 14.5 15.501 19.5s17 9 28 12
s23 5 36 6s26.167 1.5 39.5 1.5h542l-5 -17l-128 -233l-9 6l-85 182c0 5.33301 -3 8 -9 8l-5 3h-6c-12 1.33301 -23.167 2.33301 -33.5 3s-20.166 1 -29.499 1c-17.333 0 -31.333 -1.83301 -42 -5.5s-18 -10.167 -22 -19.5l-4 -17c-0.666992 -2 -1 -5.33301 -1 -10
c0 -3.33301 1.66699 -6.66602 5 -9.99902l236 -450c2.66699 -5.33301 3.66699 -12.333 3 -21l-4 -14c-5.33301 -14.667 -17 -24.334 -35 -29.001s-41 -7 -69 -7h-530l-25 7c0.666992 2 2.33398 5.66699 5.00098 11l5 10c2.66699 6 7.16699 14.833 13.5 26.5l21.5 39l25.5 45
l26 44.5l22.5 38z" />
    <glyph glyph-name="FL00AFh" unicode="&#xaf;" horiz-adv-x="455" 
d="M161 630l-11 -60h322l72 60h-383z" />
    <glyph glyph-name="FL00B8h" unicode="&#xb0;" horiz-adv-x="249" 
d="M308 506h-171l24 124h171z" />
    <glyph glyph-name="FL00B1h" unicode="&#xb1;" horiz-adv-x="346" 
d="M304 485l-15 -80h97l-12 -60h-97l-15 -80h-73l15 80h-98l12 60h98l15 80h73zM83 227h268l-12 -60h-268z" />
    <glyph glyph-name="FL00B3h" unicode="&#xb2;" horiz-adv-x="395" 
d="M435 373l-16.0049 -35.9961h-287c-9.33301 0 -16 1.16699 -20 3.5s-5.33301 7.16602 -4 14.499v7c1.33301 3.33301 3 6.66602 5 9.99902l213 225c2.66699 2.66699 4.33398 6 5.00098 10l2 9l-1 1c0 1.33301 -0.666992 2.66602 -2 3.99902s-4.66602 3.33301 -9.99902 6
c-0.666992 0.666992 -5.33398 1 -14.001 1h-14c-5.33301 0 -11.166 -0.666992 -17.499 -2s-10.833 -3 -13.5 -5l-77 -91l-6 -3l-19 116l1 9h241c19.333 0 32.5 -4.33301 39.5 -13s10.5 -19 10.5 -31c0 -3.33301 -0.166992 -6.83301 -0.5 -10.5
s-0.833008 -7.16699 -1.5 -10.5l-2 -9l-29.5 -33l-49 -53.5l-50.5 -53c-16 -16.333 -27.333 -26.833 -34 -31.5c-3.33301 -3.33301 -5.66602 -6.5 -6.99902 -9.5s-2.66602 -6.16699 -3.99902 -9.5l-1 -7c0.666992 -6.66699 2.83398 -12.334 6.50098 -17.001
s11.167 -7 22.5 -7h12c5.33301 0 11.333 0.166992 18 0.5l10 0.5z" />
    <glyph glyph-name="FL00B5h" unicode="&#xb3;" horiz-adv-x="411" 
d="M365 507l-155 -0.000976562c4 4 13 11.667 27 23l44.5 35l42 33c12.333 10 18.833 16 19.5 18l1 5h-158l-26 31h288c8 0 13.5 -3.33301 16.5 -10s3.83301 -12.667 2.5 -18l-1 -5c0 -4 -3 -8.33301 -9 -13c-2 -2.66699 -6.16699 -7.16699 -12.5 -13.5l-20 -19.5
c-7 -6.66699 -14 -13 -21 -19s-11.833 -10 -14.5 -12l-1 -5h42c14 0 25.833 -1.66699 35.5 -5s13.167 -11.666 10.5 -24.999l-2 -8l-1 -4c-0.666992 -4.66699 -3.66699 -9 -9 -13c-6 -6 -15 -14.5 -27 -25.5l-36 -33l-32.5 -30c-9.66699 -9 -15.5 -14.5 -17.5 -16.5
c-8.66699 -7.33301 -20.667 -15.833 -36 -25.5s-30 -14.5 -44 -14.5h-156l5 30h95z" />
    <glyph glyph-name="FL00B4h" unicode="&#xb4;" horiz-adv-x="325" 
d="M131 506h171l112 124h-183z" />
    <glyph glyph-name="FL0071h" unicode="&#xb5;" horiz-adv-x="813" 
d="M795 503l-25.998 -135.001c8 -2 16.167 -4.16699 24.5 -6.5s15.666 -5.16602 21.999 -8.49902s11.166 -7.33301 14.499 -12s4.33301 -10 3 -16l-56 -290l52 -70h-298l7 35h-386c-7.33301 -0 -17 1.83301 -29 5.5s-23.167 10.334 -33.5 20.001s-18.5 22.667 -24.5 39
s-6.33301 37.166 -1 62.499l73 376c4.66699 25.333 13 46.166 25 62.499s25 29.333 39 39s27.833 16.334 41.5 20.001s24.167 5.5 31.5 5.5h431c8 0 18 -1.83301 30 -5.5s23.167 -10.334 33.5 -20.001s18.5 -22.667 24.5 -39s6.66699 -37.166 2 -62.499zM562.002 500.999
c-0.666992 16 -2.83398 28.833 -6.50098 38.5s-7.66699 17 -12 22s-9 8.5 -14 10.5s-9.5 3.33301 -13.5 4h-72c-4 -0.666992 -8.83301 -2 -14.5 -4s-12 -5.5 -19 -10.5s-14.167 -12.333 -21.5 -22s-14.333 -22.5 -21 -38.5l-72 -372c0 -16 1.66699 -28.833 5 -38.5
s7.5 -17 12.5 -22s10.167 -8.5 15.5 -10.5s9.66602 -3.33301 12.999 -4h72c4.66699 0.666992 9.83398 2 15.501 4s11.834 5.5 18.501 10.5s13.5 12.333 20.5 22s14.167 22.5 21.5 38.5z" />
    <glyph glyph-name="FL00B6h" unicode="&#xb6;" horiz-adv-x="137" 
d="M244 750l-170 -871h-59l170 871h59z" />
    <glyph glyph-name="FL00B7h" unicode="&#xb7;" horiz-adv-x="249" 
d="M93 280h171l25 124h-171z" />
    <glyph glyph-name="FL0064h" unicode="&#xb8;" horiz-adv-x="806" 
d="M194 560c-1.33301 1.33301 -4.00098 4.66602 -8.00098 9.99902s-8 11.333 -12 18s-7.5 12.834 -10.5 18.501s-4.83301 9.83398 -5.5 12.501v1c-2 2.66699 -3 6 -3 10h194l207 -225l43 225h296c0 -1.33301 -0.5 -3 -1.5 -5l-2.5 -5l-2 -1
c-2 -2.66699 -5.66699 -6.83398 -11 -12.501l-17.5 -18l-18 -17.5c-5.66699 -5.33301 -9.83398 -9 -12.501 -11l-109 -560l-325 345l-67 -345h-292l44 40c2.66699 2 5.83398 5.5 9.50098 10.5s5.83398 8.16699 6.50098 9.5z" />
    <glyph glyph-name="FL00B9h" unicode="&#xb9;" horiz-adv-x="239" 
d="M180 617c-2 1.33301 -5.16895 5.5 -9.50195 12.5s-7.16602 12.167 -8.49902 15.5l-1 2c-1.33301 1.33301 -1.66602 3 -0.999023 5h149l-56 -285c0 -1.33301 0.666992 -3 2 -5s2 -3.66699 2 -5l15 -20h-171l22 20l5 5c2 2 3 3.66699 3 5z" />
    <glyph glyph-name="FL00B0h" unicode="&#xba;" horiz-adv-x="407" 
d="M482 588l-36 -188c-2.66699 -12.667 -7 -23 -13 -31s-12.5 -14.333 -19.5 -19s-13.833 -8 -20.5 -10s-12 -3 -16 -3h-215c-4 0 -9 1 -15 3s-11.667 5.33301 -17 10s-9.5 11 -12.5 19s-3.16699 18.333 -0.5 31l36 188c2.66699 12.667 7.16699 23.167 13.5 31.5
s13 14.833 20 19.5s13.833 8 20.5 10s12 3 16 3h215c4 0 9 -1 15 -3s11.667 -5.33301 17 -10s9.33301 -11.167 12 -19.5s2.66699 -18.833 0 -31.5zM269 587l-36.001 -186c1.33301 -16 4.5 -26 9.5 -30s9.5 -6.33301 13.5 -7h37c4.66699 0.666992 10.334 3 17.001 7
s13.667 14 21 30l36 186c-1.33301 16 -4.5 26 -9.5 30s-9.83301 6.66699 -14.5 8h-37c-4 -0.666992 -9.33301 -3 -16 -7s-13.667 -14.333 -21 -31z" />
    <glyph glyph-name="FL00BBh" unicode="&#xbb;" horiz-adv-x="411" 
d="M117 407l27 140l139 -62l-43 -225l-163 -61l27 140l84 36zM299 406l27 140l139 -62l-44 -225l-163 -61l28 140l83 36z" />
    <glyph glyph-name="FL00BCh" unicode="&#xbc;" horiz-adv-x="863" 
d="M239 346c0 -1.33301 -1.00195 -2.99902 -3.00195 -4.99902l-5 -5l-22 -20h170l-14 20c0 1.33301 -0.666992 3 -2 5s-2 3.66699 -2 5l56 285h-149c-1.33301 -2.66699 -0.666016 -4.33398 2.00098 -5.00098v-2c2 -3.33301 4.83301 -8.5 8.5 -15.5
s6.83398 -11.167 9.50098 -12.5zM907.998 611.001c3.33301 3.33301 8 5.99805 14 7.99805l25 8l1 4h-246l68 -39l-696 -571c-4 -3.33301 -9.33301 -6.66602 -16 -9.99902s-14.667 -5.66602 -24 -6.99902l-1 -4h240l-59 39zM802.998 279.999
c2 2 4.66797 4.50098 8.00098 7.50098s6.66602 6.16699 9.99902 9.5s6.5 6.66602 9.5 9.99902s4.83301 6 5.5 8h-148l-248 -223h205l-18 -92h146l-14 20c-4 2.66699 -5.33301 6 -4 10l12 62h48l36 30h-78zM585.999 122l78 70l-13 -70h-65z" />
    <glyph glyph-name="FL00BDh" unicode="&#xbd;" horiz-adv-x="900" 
d="M214 39l59 -38.998h-240l1 4c9.33301 1.33301 17.333 3.66602 24 6.99902s12 6.66602 16 9.99902l696 571l-68 39h246l-1 -4l-25 -8c-6 -2 -10.667 -4.66699 -14 -8zM874 36.002l-16.002 -35.9951h-287c-9.33301 0 -15.833 1.16699 -19.5 3.5
s-5.16699 7.16602 -4.5 14.499l1 7c0 3.33301 2 6.66602 6 9.99902l212 225c3.33301 3.33301 5 6.66602 5 9.99902l2 9l-2 1c0 1.33301 -0.666992 2.66602 -2 3.99902s-4.66602 3.33301 -9.99902 6c-0.666992 0.666992 -5 1 -13 1h-14
c-5.33301 0 -11.166 -0.666992 -17.499 -2s-11.166 -3 -14.499 -5l-76 -91l-6 -3l-20 116l1 9h242c12.667 0 22.667 -2.16699 30 -6.5s12.5 -9.66602 15.5 -15.999s4.66699 -13.333 5 -21s-0.166992 -14.834 -1.5 -21.501l-2 -9
c-3.33301 -3.33301 -9.16602 -9.5 -17.499 -18.5l-28.5 -31l-34 -37l-34.5 -36.5l-29.5 -30c-8.66699 -8.66699 -15.334 -14.667 -20.001 -18c-4 -3.33301 -6.66699 -6.5 -8 -9.5s-2.33301 -6.16699 -3 -9.5l-1 -7c0 -6.66699 2 -12.334 6 -17.001s11.667 -7 23 -7h12
c5.33301 0 11.166 0.166992 17.499 0.5l9.5 0.5zM287.998 596.007c-2.66699 1.33301 -5.83203 5.49902 -9.49902 12.499s-6.5 12.167 -8.5 15.5v2c-2.66699 0.666992 -3.33398 2.33398 -2.00098 5.00098h149l-56 -285c0 -1.33301 0.666992 -3 2 -5s2 -3.66699 2 -5l14 -20
h-170l22 20l5 5c2 2 3 3.66699 3 5z" />
    <glyph glyph-name="FL00BEh" unicode="&#xbe;" horiz-adv-x="863" 
d="M651 122l13 70l-78 -70h65zM773 122l77.999 -0.000976562l-36 -30h-48l-12 -62c-1.33301 -4 0 -7.33301 4 -10l14 -20h-146l18 92h-205l248 223h148c-0.666992 -2 -2.5 -4.66699 -5.5 -8s-6.16699 -6.66602 -9.5 -9.99902s-6.66602 -6.5 -9.99902 -9.5s-6 -5.5 -8 -7.5z
M213.999 38.999l59 -38.998h-240l1 4c9.33301 1.33301 17.333 3.66602 24 6.99902s12 6.66602 16 9.99902l696 571l-68 39h246l-1 -4l-25 -8c-6 -2 -10.667 -4.66699 -14 -8zM388.999 487.001l-154.999 -0.000976562c4 4 13 11.667 27 23l44.5 35l42 33
c12.333 10 18.833 16 19.5 18l1 5h-158l-26 31h288c8 0 13.667 -3.33301 17 -10s4.33301 -12.667 3 -18l-1 -5c0 -4 -3.33301 -8.33301 -10 -13c-2 -2.66699 -6.16699 -7.16699 -12.5 -13.5l-20 -19.5c-7 -6.66699 -14 -13 -21 -19s-11.833 -10 -14.5 -12l-1 -5h42
c14 0 25.833 -1.66699 35.5 -5s13.167 -11.666 10.5 -24.999l-2 -8l-1 -4c-1.33301 -6 -4.33301 -10.333 -9 -13l-26.5 -25.5l-35.5 -33l-32.5 -30c-9.66699 -9 -15.834 -14.5 -18.501 -16.5c-8.66699 -7.33301 -20.667 -15.833 -36 -25.5s-30 -14.5 -44 -14.5h-156l5 30h95
z" />
    <glyph glyph-name="FL00BFh" unicode="&#xbf;" horiz-adv-x="678" 
d="M707 434l-174.999 29.002c-1.33301 -8 -11.5 -18.667 -30.5 -32s-43 -27.833 -72 -43.5s-60.833 -32 -95.5 -49l-100.5 -49l-88 -42.5c-26.333 -12.667 -45.5 -22.667 -57.5 -30c-7.33301 -6 -11.666 -10.833 -12.999 -14.5l-4 -10.5v-4c-2 -8 -0.833008 -15.5 3.5 -22.5
s10.833 -13.5 19.5 -19.5s18.5 -11.5 29.5 -16.5s22.5 -9.5 34.5 -13.5l435 -154l42 -11l4 18l8 271l-12 -5l-175 -159c-2 -4.66699 -5.66699 -7 -11 -7h-13c-32.667 6.66699 -56 16.667 -70 30s-19.333 28.666 -16 45.999c1.33301 5.33301 3.16602 11.166 5.49902 17.499
s7.16602 12.5 14.499 18.5l89.5 62.5l91.5 64l85.5 64c27 21 50.5 41.833 70.5 62.5zM748.001 631.002h-171l-24 -124h171z" />
    <glyph glyph-name="FL00C0h" unicode="&#xc0;" 
d="M348 630l299.999 -0.00195312l184 -630h-385l29 21c2 1.33301 5.83301 4.33301 11.5 9l18.5 15.5l18.5 16c5.66699 5 9.16699 8.16699 10.5 9.5c0 0.666992 0.333008 2.16699 1 4.5s1.33398 4.16602 2.00098 5.49902v5c0 2.66699 0.333008 4.33398 1 5.00098l-22 88h-247
l-21 -10l-63 -103l64 -66h-217l2 8l1 1c6 3.33301 13.167 7.83301 21.5 13.5s15.166 11.5 20.499 17.5l75 117v8c1.33301 6 1 11.333 -1 16s-4.66699 8.83398 -8 12.501l-10 11.5c-3.33301 4 -5.66602 8.66699 -6.99902 14c-1.33301 2.66699 -1.83301 5.83398 -1.5 9.50098
l0.5 5.5h75l209 326zM432.999 459.998l-143 -221h209l-51 201l-9 20l-2 1c-1.33301 0.666992 -2.66602 1 -3.99902 1c-0.666992 0 -0.833984 -0.333008 -0.500977 -1zM429.999 822.998h183l51 -124h-171z" />
    <glyph glyph-name="FL00C1h" unicode="&#xc1;" 
d="M348 630l299.999 -0.00195312l184 -630h-385l29 21c2 1.33301 5.83301 4.33301 11.5 9l18.5 15.5l18.5 16c5.66699 5 9.16699 8.16699 10.5 9.5c0 0.666992 0.333008 2.16699 1 4.5s1.33398 4.16602 2.00098 5.49902v5c0 2.66699 0.333008 4.33398 1 5.00098l-22 88h-247
l-21 -10l-63 -103l64 -66h-217l2 8l1 1c6 3.33301 13.167 7.83301 21.5 13.5s15.166 11.5 20.499 17.5l75 117v8c1.33301 6 1 11.333 -1 16s-4.66699 8.83398 -8 12.501l-10 11.5c-3.33301 4 -5.66602 8.66699 -6.99902 14c-1.33301 2.66699 -1.83301 5.83398 -1.5 9.50098
l0.5 5.5h75l209 326zM432.999 459.998l-143 -221h209l-51 201l-9 20l-2 1c-1.33301 0.666992 -2.66602 1 -3.99902 1c-0.666992 0 -0.833984 -0.333008 -0.500977 -1zM606.999 699.998h-171l100 124h183z" />
    <glyph glyph-name="FL00C2h" unicode="&#xc2;" 
d="M348 630l299.999 -0.00195312l184 -630h-385l29 21c2 1.33301 5.83301 4.33301 11.5 9l18.5 15.5l18.5 16c5.66699 5 9.16699 8.16699 10.5 9.5c0 0.666992 0.333008 2.16699 1 4.5s1.33398 4.16602 2.00098 5.49902v5c0 2.66699 0.333008 4.33398 1 5.00098l-22 88h-247
l-21 -10l-63 -103l64 -66h-217l2 8l1 1c6 3.33301 13.167 7.83301 21.5 13.5s15.166 11.5 20.499 17.5l75 117v8c1.33301 6 1 11.333 -1 16s-4.66699 8.83398 -8 12.501l-10 11.5c-3.33301 4 -5.66602 8.66699 -6.99902 14c-1.33301 2.66699 -1.83301 5.83398 -1.5 9.50098
l0.5 5.5h75l209 326zM432.999 459.998l-143 -221h209l-51 201l-9 20l-2 1c-1.33301 0.666992 -2.66602 1 -3.99902 1c-0.666992 0 -0.833984 -0.333008 -0.500977 -1zM510.999 699.998h-171l99 124h275l50 -124h-171l-31 63z" />
    <glyph glyph-name="FL00C3h" unicode="&#xc3;" 
d="M348 630l299.999 -0.00195312l184 -630h-385l29 21c2 1.33301 5.83301 4.33301 11.5 9l18.5 15.5l18.5 16c5.66699 5 9.16699 8.16699 10.5 9.5c0 0.666992 0.333008 2.16699 1 4.5s1.33398 4.16602 2.00098 5.49902v5c0 2.66699 0.333008 4.33398 1 5.00098l-22 88h-247
l-21 -10l-63 -103l64 -66h-217l2 8l1 1c6 3.33301 13.167 7.83301 21.5 13.5s15.166 11.5 20.499 17.5l75 117v8c1.33301 6 1 11.333 -1 16s-4.66699 8.83398 -8 12.501l-10 11.5c-3.33301 4 -5.66602 8.66699 -6.99902 14c-1.33301 2.66699 -1.83301 5.83398 -1.5 9.50098
l0.5 5.5h75l209 326zM432.999 459.998l-143 -221h209l-51 201l-9 20l-2 1c-1.33301 0.666992 -2.66602 1 -3.99902 1c-0.666992 0 -0.833984 -0.333008 -0.500977 -1zM673.999 821.998h130l-84 -123h-208l-20 63l-41 -63h-131l82 123h209l23 -63z" />
    <glyph glyph-name="FL00C4h" unicode="&#xc4;" 
d="M348 630l299.999 -0.00195312l184 -630h-385l29 21c2 1.33301 5.83301 4.33301 11.5 9l18.5 15.5l18.5 16c5.66699 5 9.16699 8.16699 10.5 9.5c0 0.666992 0.333008 2.16699 1 4.5s1.33398 4.16602 2.00098 5.49902v5c0 2.66699 0.333008 4.33398 1 5.00098l-22 88h-247
l-21 -10l-63 -103l64 -66h-217l2 8l1 1c6 3.33301 13.167 7.83301 21.5 13.5s15.166 11.5 20.499 17.5l75 117v8c1.33301 6 1 11.333 -1 16s-4.66699 8.83398 -8 12.501l-10 11.5c-3.33301 4 -5.66602 8.66699 -6.99902 14c-1.33301 2.66699 -1.83301 5.83398 -1.5 9.50098
l0.5 5.5h75l209 326zM432.999 459.998l-143 -221h209l-51 201l-9 20l-2 1c-1.33301 0.666992 -2.66602 1 -3.99902 1c-0.666992 0 -0.833984 -0.333008 -0.500977 -1zM758.999 699.998h-170l24 124h170zM505.999 699.998h-171l24 124h171z" />
    <glyph glyph-name="FL00C5h" unicode="&#xc5;" 
d="M348 630l299.999 -0.00195312l184 -630h-385l29 21c2 1.33301 5.83301 4.33301 11.5 9l18.5 15.5l18.5 16c5.66699 5 9.16699 8.16699 10.5 9.5c0 0.666992 0.333008 2.16699 1 4.5s1.33398 4.16602 2.00098 5.49902v5c0 2.66699 0.333008 4.33398 1 5.00098l-22 88h-247
l-21 -10l-63 -103l64 -66h-217l2 8l1 1c6 3.33301 13.167 7.83301 21.5 13.5s15.166 11.5 20.499 17.5l75 117v8c1.33301 6 1 11.333 -1 16s-4.66699 8.83398 -8 12.501l-10 11.5c-3.33301 4 -5.66602 8.66699 -6.99902 14c-1.33301 2.66699 -1.83301 5.83398 -1.5 9.50098
l0.5 5.5h75l209 326zM432.999 459.998l-143 -221h209l-51 201l-9 20l-2 1c-1.33301 0.666992 -2.66602 1 -3.99902 1c-0.666992 0 -0.833984 -0.333008 -0.500977 -1zM633.999 699.998h-171l24 124h171z" />
    <glyph glyph-name="FL00C7h" unicode="&#xc6;" horiz-adv-x="1294" 
d="M348 630l299.998 -0.00390625l108 -372l55 281c0 1.33301 -1 4.33301 -3 9s-3.66699 8.33398 -5 11.001l-48 71h610l-18 -94l-53 40h-232l-33 -171h269l-73 -60h-208l-55 -285h220l96 60l-23 -120h-808l29 21c2 1.33301 5.83301 4.33301 11.5 9l18.5 15.5l18.5 16
c5.66699 5 9.16699 8.16699 10.5 9.5c0 0.666992 0.333008 2.16699 1 4.5s1.33398 4.16602 2.00098 5.49902v5c0 2.66699 0.333008 4.33398 1 5.00098l-22 88h-247l-21 -10l-63 -103l64 -66h-217l2 8c6 3.33301 13.333 7.83301 22 13.5s15.667 11.834 21 18.501l75 117v8
c1.33301 6 1 11.333 -1 16s-4.66699 8.83398 -8 12.501l-10 11.5c-3.33301 4 -5.66602 8.66699 -6.99902 14c-1.33301 2.66699 -1.83301 5.83398 -1.5 9.50098l0.5 5.5h75l209 326zM432.998 459.996l-143 -221h209l-51 201l-9 20l-2 1
c-1.33301 0.666992 -2.66602 1 -3.99902 1c-0.666992 0 -0.833984 -0.333008 -0.500977 -1z" />
    <glyph glyph-name="FL00C8h" unicode="&#xc7;" horiz-adv-x="709" 
d="M697 361c4.66699 9.33301 11.8311 25.668 21.498 49.001l30 74l28.5 74c8.66699 23.333 14.334 40 17.001 50c0.666992 4.66699 -3 11 -11 19l-19 3h-490c-7.33301 0 -17.833 -1.83301 -31.5 -5.5s-27.5 -10.334 -41.5 -20.001s-27 -22.667 -39 -39
s-20.333 -37.166 -25 -62.499l-73 -376c-5.33301 -25.333 -5 -46.166 1 -62.499s14.167 -29.333 24.5 -39s21.5 -16.334 33.5 -20.001s21.667 -5.5 29 -5.5h207l-12 -60h-98l-11 -60h171l23 120h199l23 120l-97 -60h-233c-6.66699 3.33301 -12.667 10.166 -18 20.499
s-8.66602 26.5 -9.99902 48.5l72 372c6.66699 16 13.667 28.833 21 38.5s14.5 17 21.5 22s13.333 8.5 19 10.5s10.5 3.33301 14.5 4h128c8 -6 15.167 -13 21.5 -21s11.5 -15 15.5 -21l79 -167z" />
    <glyph glyph-name="FL00C9h" unicode="&#xc8;" horiz-adv-x="694" 
d="M765 630l-18 -94l-53 40h-232l-33 -171h269l-73 -60h-208l-55 -285h220l96 60l-23 -120h-614c0.666992 3.33301 2.66699 6.66602 6 9.99902l59 50c2 2 5 5.5 9 10.5s6.33301 8.16699 7 9.5l89 459c0 1.33301 -1 4.33301 -3 9s-3.66699 8.33398 -5 11.001l-48 71h610z
M360 823h183l52 -124h-171z" />
    <glyph glyph-name="FL00CAh" unicode="&#xc9;" horiz-adv-x="694" 
d="M765 630l-18 -94l-53 40h-232l-33 -171h269l-73 -60h-208l-55 -285h220l96 60l-23 -120h-614c0.666992 3.33301 2.66699 6.66602 6 9.99902l59 50c2 2 5 5.5 9 10.5s6.33301 8.16699 7 9.5l89 459c0 1.33301 -1 4.33301 -3 9s-3.66699 8.33398 -5 11.001l-48 71h610z
M530 699h-171l100 124h183z" />
    <glyph glyph-name="FL00CBh" unicode="&#xca;" horiz-adv-x="694" 
d="M765 630l-18 -94l-53 40h-232l-33 -171h269l-73 -60h-208l-55 -285h220l96 60l-23 -120h-614c0.666992 3.33301 2.66699 6.66602 6 9.99902l59 50c2 2 5 5.5 9 10.5s6.33301 8.16699 7 9.5l89 459c0 1.33301 -1 4.33301 -3 9s-3.66699 8.33398 -5 11.001l-48 71h610z
M441 700h-171l100 124h274l51 -124h-171l-32 63z" />
    <glyph glyph-name="FL00CCh" unicode="&#xcb;" horiz-adv-x="694" 
d="M765 630l-18 -94l-53 40h-232l-33 -171h269l-73 -60h-208l-55 -285h220l96 60l-23 -120h-614c0.666992 3.33301 2.66699 6.66602 6 9.99902l59 50c2 2 5 5.5 9 10.5s6.33301 8.16699 7 9.5l89 459c0 1.33301 -1 4.33301 -3 9s-3.66699 8.33398 -5 11.001l-48 71h610z
M695 700h-171l24 124h171zM441 700h-171l24 124h171z" />
    <glyph glyph-name="FL00D4h" unicode="&#xcc;" horiz-adv-x="416" 
d="M230 824h183l51 -124h-171zM341 60c-0.666992 -1.33301 0.332031 -4.49902 2.99902 -9.49902s4.66699 -8.5 6 -10.5l28 -40h-343l45 40c2.66699 2 5.83398 5.5 9.50098 10.5s5.83398 8.16699 6.50098 9.5l97 500c-1.33301 1.33301 -4 4.66602 -8 9.99902
s-8 11.333 -12 18s-7.5 12.834 -10.5 18.501s-4.83301 9.83398 -5.5 12.501l-1 1c-1.33301 5.33301 -2 8.66602 -2 9.99902h350c0 -1.33301 -0.666992 -3 -2 -5s-2.33301 -3.66699 -3 -5l-2 -1c-2 -2.66699 -5.66699 -6.83398 -11 -12.501l-17.5 -18l-18 -17.5
c-5.66699 -5.33301 -9.83398 -9 -12.501 -11z" />
    <glyph glyph-name="FL00CDh" unicode="&#xcd;" horiz-adv-x="416" 
d="M194 560c-1.33301 1.33301 -4 4.66406 -8 9.99707s-8 11.333 -12 18s-7.5 12.834 -10.5 18.501s-4.83301 9.83398 -5.5 12.501v1c-2 2.66699 -3 6 -3 10h350c0 -3.33301 -1.66699 -6.66602 -5 -9.99902l-2 -1c-2 -2.66699 -5.83301 -6.83398 -11.5 -12.501l-17.5 -18
c-6 -6.33301 -11.833 -12.166 -17.5 -17.499l-11.5 -11l-97 -500c-0.666992 -1.33301 0.166016 -4.5 2.49902 -9.5s4.16602 -8.5 5.49902 -10.5l28 -40h-342l44 40c2.66699 2 5.83398 5.5 9.50098 10.5s5.83398 8.16699 6.50098 9.5zM393 699.998h-170l99 124h183z" />
    <glyph glyph-name="FL00D0h" unicode="&#xce;" horiz-adv-x="416" 
d="M194 560c-1.33301 1.33301 -4 4.66406 -8 9.99707s-8 11.333 -12 18s-7.5 12.834 -10.5 18.501s-4.83301 9.83398 -5.5 12.501v1c-2 2.66699 -3 6 -3 10h350c0 -3.33301 -1.66699 -6.66602 -5 -9.99902l-2 -1c-2 -2.66699 -5.83301 -6.83398 -11.5 -12.501l-17.5 -18
c-6 -6.33301 -11.833 -12.166 -17.5 -17.499l-11.5 -11l-97 -500c-0.666992 -1.33301 0.166016 -4.5 2.49902 -9.5s4.16602 -8.5 5.49902 -10.5l28 -40h-342l44 40c2.66699 2 5.83398 5.5 9.50098 10.5s5.83398 8.16699 6.50098 9.5zM301 698.998h-171l100 124h274l50 -124
h-170l-32 63z" />
    <glyph glyph-name="FL00CFh" unicode="&#xcf;" horiz-adv-x="416" 
d="M194 560c-1.33301 1.33301 -4 4.66406 -8 9.99707s-8 11.333 -12 18s-7.5 12.834 -10.5 18.501s-4.83301 9.83398 -5.5 12.501v1c-2 2.66699 -3 6 -3 10h350c0 -3.33301 -1.66699 -6.66602 -5 -9.99902l-2 -1c-2 -2.66699 -5.83301 -6.83398 -11.5 -12.501l-17.5 -18
c-6 -6.33301 -11.833 -12.166 -17.5 -17.499l-11.5 -11l-97 -500c-0.666992 -1.33301 0.166016 -4.5 2.49902 -9.5s4.16602 -8.5 5.49902 -10.5l28 -40h-342l44 40c2.66699 2 5.83398 5.5 9.50098 10.5s5.83398 8.16699 6.50098 9.5zM556 698.998h-171l24 124h171z
M302 698.998h-171l24 124h171z" />
    <glyph glyph-name="FL00D1h" unicode="&#xd0;" horiz-adv-x="872" 
d="M118 405l73 -0.000976562l28 145c0 1.33301 -1 4.5 -3 9.5s-3.66699 8.5 -5 10.5l-50 60h794l-59 -306c-1.33301 -6 -3 -11.333 -5 -16s-7 -10.667 -15 -18l-32 -31l-43.5 -41l-48 -45l-45.5 -42l-35.5 -33l-18.5 -18c-8.66699 -7.33301 -19.5 -15.666 -32.5 -24.999
s-26.833 -18 -41.5 -26s-29.667 -14.833 -45 -20.5s-30 -8.5 -44 -8.5h-378l67 344h-73zM368 59.999h12l298 280l45 230h-256l-32 -165h145l-73 -61h-84z" />
    <glyph glyph-name="FL00E2h" unicode="&#xd1;" horiz-adv-x="806" 
d="M194 560c-2 2 -4.83691 5.66797 -8.50391 11.001s-7.5 11.5 -11.5 18.5s-7.83301 14.167 -11.5 21.5s-6.16699 13.666 -7.5 18.999h252l149 -225l43 225h296c-5.33301 -7.33301 -13.166 -17 -23.499 -29s-24.166 -25.667 -41.499 -41l-97 -500l37 -60h-153l-221 345
l-67 -345h-292l44 40c2.66699 2 5.83398 5.5 9.50098 10.5s5.83398 8.16699 6.50098 9.5zM667.996 823.001h130l-84 -123h-208l-20 63l-41 -63h-131l81 123h210l22 -63z" />
    <glyph glyph-name="FL00D2h" unicode="&#xd2;" horiz-adv-x="736" 
d="M383 823h183l52 -124h-171zM561 501c0 16 -1.83398 28.8311 -5.50098 38.498s-8 17.167 -13 22.5s-10.167 8.83301 -15.5 10.5s-9.33301 2.83398 -12 3.50098h-72c-4 -0.666992 -9 -2 -15 -4s-12.333 -5.5 -19 -10.5s-13.667 -12.333 -21 -22s-14.333 -22.5 -21 -38.5
l-72 -372c0.666992 -16 2.83398 -28.833 6.50098 -38.5s7.66699 -17 12 -22s9 -8.5 14 -10.5s9.5 -3.33301 13.5 -4h72c4 0.666992 8.83301 1.83398 14.5 3.50098s12 5.16699 19 10.5s14.167 12.833 21.5 22.5s14.333 22.5 21 38.5zM135.999 502.998
c4.66699 25.333 12.999 46.166 24.999 62.499s25 29.333 39 39s27.833 16.334 41.5 20.001s24.167 5.5 31.5 5.5h431c7.33301 0 17 -1.83301 29 -5.5s23.333 -10.334 34 -20.001s18.834 -22.667 24.501 -39s6.16699 -37.166 1.5 -62.499l-73 -376
c-5.33301 -25.333 -14 -46.166 -26 -62.499s-25 -29.333 -39 -39s-27.667 -16.334 -41 -20.001s-24 -5.5 -32 -5.5h-431c-7.33301 0 -17 1.83301 -29 5.5s-23.167 10.334 -33.5 20.001s-18.5 22.667 -24.5 39s-6.33301 37.166 -1 62.499z" />
    <glyph glyph-name="FL00D3h" unicode="&#xd3;" horiz-adv-x="736" 
d="M795 503l-73 -376c-5.33301 -25.333 -14 -46.166 -26 -62.499s-25 -29.333 -39 -39s-27.833 -16.334 -41.5 -20.001s-24.5 -5.5 -32.5 -5.5h-431c-7.33301 -0 -17 1.83301 -29 5.5s-23.167 10.334 -33.5 20.001s-18.5 22.667 -24.5 39s-6.33301 37.166 -1 62.499l73 376
c4.66699 25.333 13 46.166 25 62.499s25 29.333 39 39s27.833 16.334 41.5 20.001s24.167 5.5 31.5 5.5h431c8 0 18 -1.83301 30 -5.5s23.167 -10.334 33.5 -20.001s18.5 -22.667 24.5 -39s6.66699 -37.166 2 -62.499zM368 501l-72 -372c0 -16 1.66699 -28.833 5 -38.5
s7.5 -17 12.5 -22s10.167 -8.5 15.5 -10.5s9.66602 -3.33301 12.999 -4h72c4.66699 0.666992 9.83398 2 15.501 4s11.834 5.5 18.501 10.5s13.5 12.333 20.5 22s14.167 22.5 21.5 38.5l72 372c-0.666992 16 -2.83398 28.833 -6.50098 38.5s-7.66699 17 -12 22
s-9 8.5 -14 10.5s-9.5 3.33301 -13.5 4h-72c-4 -0.666992 -8.83301 -2 -14.5 -4s-12 -5.5 -19 -10.5s-14.167 -12.333 -21.5 -22s-14.333 -22.5 -21 -38.5zM559 699h-170l99 124h183z" />
    <glyph glyph-name="FL00D5h" unicode="&#xd4;" horiz-adv-x="736" 
d="M795 503l-73 -376c-5.33301 -25.333 -14 -46.166 -26 -62.499s-25 -29.333 -39 -39s-27.833 -16.334 -41.5 -20.001s-24.5 -5.5 -32.5 -5.5h-431c-7.33301 -0 -17 1.83301 -29 5.5s-23.167 10.334 -33.5 20.001s-18.5 22.667 -24.5 39s-6.33301 37.166 -1 62.499l73 376
c4.66699 25.333 13 46.166 25 62.499s25 29.333 39 39s27.833 16.334 41.5 20.001s24.167 5.5 31.5 5.5h431c8 0 18 -1.83301 30 -5.5s23.167 -10.334 33.5 -20.001s18.5 -22.667 24.5 -39s6.66699 -37.166 2 -62.499zM368 501l-72 -372c0 -16 1.66699 -28.833 5 -38.5
s7.5 -17 12.5 -22s10.167 -8.5 15.5 -10.5s9.66602 -3.33301 12.999 -4h72c4.66699 0.666992 9.83398 2 15.501 4s11.834 5.5 18.501 10.5s13.5 12.333 20.5 22s14.167 22.5 21.5 38.5l72 372c-0.666992 16 -2.83398 28.833 -6.50098 38.5s-7.66699 17 -12 22
s-9 8.5 -14 10.5s-9.5 3.33301 -13.5 4h-72c-4 -0.666992 -8.83301 -2 -14.5 -4s-12 -5.5 -19 -10.5s-14.167 -12.333 -21.5 -22s-14.333 -22.5 -21 -38.5zM467 700h-171l99 124h275l50 -124h-170l-32 63z" />
    <glyph glyph-name="FL00E1h" unicode="&#xd5;" horiz-adv-x="736" 
d="M795 503l-73 -376c-5.33301 -25.333 -14 -46.166 -26 -62.499s-25 -29.333 -39 -39s-27.833 -16.334 -41.5 -20.001s-24.5 -5.5 -32.5 -5.5h-431c-7.33301 -0 -17 1.83301 -29 5.5s-23.167 10.334 -33.5 20.001s-18.5 22.667 -24.5 39s-6.33301 37.166 -1 62.499l73 376
c4.66699 25.333 13 46.166 25 62.499s25 29.333 39 39s27.833 16.334 41.5 20.001s24.167 5.5 31.5 5.5h431c8 0 18 -1.83301 30 -5.5s23.167 -10.334 33.5 -20.001s18.5 -22.667 24.5 -39s6.66699 -37.166 2 -62.499zM368 501l-72 -372c0 -16 1.66699 -28.833 5 -38.5
s7.5 -17 12.5 -22s10.167 -8.5 15.5 -10.5s9.66602 -3.33301 12.999 -4h72c4.66699 0.666992 9.83398 2 15.501 4s11.834 5.5 18.501 10.5s13.5 12.333 20.5 22s14.167 22.5 21.5 38.5l72 372c-0.666992 16 -2.83398 28.833 -6.50098 38.5s-7.66699 17 -12 22
s-9 8.5 -14 10.5s-9.5 3.33301 -13.5 4h-72c-4 -0.666992 -8.83301 -2 -14.5 -4s-12 -5.5 -19 -10.5s-14.167 -12.333 -21.5 -22s-14.333 -22.5 -21 -38.5zM631 824h130l-83 -123h-209l-19 63l-42 -63h-130l81 123h210l22 -63z" />
    <glyph glyph-name="FL00D6h" unicode="&#xd6;" horiz-adv-x="736" 
d="M795 503l-73 -376c-5.33301 -25.333 -14 -46.166 -26 -62.499s-25 -29.333 -39 -39s-27.833 -16.334 -41.5 -20.001s-24.5 -5.5 -32.5 -5.5h-431c-7.33301 -0 -17 1.83301 -29 5.5s-23.167 10.334 -33.5 20.001s-18.5 22.667 -24.5 39s-6.33301 37.166 -1 62.499l73 376
c4.66699 25.333 13 46.166 25 62.499s25 29.333 39 39s27.833 16.334 41.5 20.001s24.167 5.5 31.5 5.5h431c8 0 18 -1.83301 30 -5.5s23.167 -10.334 33.5 -20.001s18.5 -22.667 24.5 -39s6.66699 -37.166 2 -62.499zM368 501l-72 -372c0 -16 1.66699 -28.833 5 -38.5
s7.5 -17 12.5 -22s10.167 -8.5 15.5 -10.5s9.66602 -3.33301 12.999 -4h72c4.66699 0.666992 9.83398 2 15.501 4s11.834 5.5 18.501 10.5s13.5 12.333 20.5 22s14.167 22.5 21.5 38.5l72 372c-0.666992 16 -2.83398 28.833 -6.50098 38.5s-7.66699 17 -12 22
s-9 8.5 -14 10.5s-9.5 3.33301 -13.5 4h-72c-4 -0.666992 -8.83301 -2 -14.5 -4s-12 -5.5 -19 -10.5s-14.167 -12.333 -21.5 -22s-14.333 -22.5 -21 -38.5zM719 699h-171l24 124h171zM465 699h-170l24 124h170z" />
    <glyph glyph-name="FL00E0h" unicode="&#xd7;" horiz-adv-x="320" 
d="M365 432l-81 -57l59 -57l-60 -42l-58 57l-81 -57l-43 42l81 57l-59 57l59 42l59 -57l80 57z" />
    <glyph glyph-name="FL00D8h" unicode="&#xd8;" horiz-adv-x="736" 
d="M795 503c4.66699 25.333 4 46.166 -2 62.499s-14.167 29.333 -24.5 39s-21.5 16.334 -33.5 20.001s-22 5.5 -30 5.5h-431c-7.33301 0 -17.833 -1.83301 -31.5 -5.5s-27.5 -10.334 -41.5 -20.001s-27 -22.667 -39 -39s-20.333 -37.166 -25 -62.499l-73 -376
c-5.33301 -25.333 -5 -46.166 1 -62.499s14.167 -29.333 24.5 -39s21.5 -16.334 33.5 -20.001s21.667 -5.5 29 -5.5h431c8 -0 18.833 1.83301 32.5 5.5s27.5 10.334 41.5 20.001s27 22.667 39 39s20.667 37.166 26 62.499zM414 54h-71.999
c-3.33301 0.666992 -7.66602 2 -12.999 4s-10.5 5.5 -15.5 10.5s-9.16699 12.333 -12.5 22s-5 22.5 -5 38.5l9 45l233 203l-48 -248c-7.33301 -16 -14.5 -28.833 -21.5 -38.5s-13.833 -17 -20.5 -22s-12.834 -8.5 -18.501 -10.5s-10.834 -3.33301 -15.501 -4zM368.001 501
c6.66699 16 13.666 28.833 20.999 38.5s14.5 17 21.5 22s13.333 8.5 19 10.5s10.5 3.33301 14.5 4h72c4 -0.666992 8.5 -2 13.5 -4s9.66699 -5.5 14 -10.5s8.33301 -12.333 12 -22s5.83398 -22.5 6.50098 -38.5l-8 -42l-232 -196z" />
    <glyph glyph-name="FL00DAh" unicode="&#xd9;" horiz-adv-x="786" 
d="M647 700h-171l-63 124h183zM480 129l96.999 501h298l-79 -69l-84 -434c-5.33301 -25.333 -14 -46.166 -26 -62.499s-25 -29.333 -39 -39s-27.833 -16.334 -41.5 -20.001s-24.5 -5.5 -32.5 -5.5h-361c-7.33301 -0 -17 1.83301 -29 5.5s-23.167 10.334 -33.5 20.001
s-18.5 22.667 -24.5 39s-6.33301 37.166 -1 62.499l84 434l-53 69h298l-97 -501c0.666992 -16 2.83398 -28.833 6.50098 -38.5s7.66699 -17 12 -22s9 -8.5 14 -10.5s9.5 -3.33301 13.5 -4h2c4 0.666992 9 2 15 4s12.5 5.5 19.5 10.5s14.167 12.333 21.5 22s14 22.5 20 38.5z
" />
    <glyph glyph-name="FL00DBh" unicode="&#xda;" horiz-adv-x="786" 
d="M453 630l-97.001 -501c0 -16 1.66699 -28.833 5 -38.5s7.5 -17 12.5 -22s10.167 -8.5 15.5 -10.5s9.66602 -3.33301 12.999 -4h2c4.66699 0.666992 9.83398 2 15.501 4s11.834 5.5 18.501 10.5s13.5 12.333 20.5 22s14.167 22.5 21.5 38.5l97 501h298l-79 -69l-84 -434
c-5.33301 -25.333 -14 -46.166 -26 -62.499s-25 -29.333 -39 -39s-27.833 -16.334 -41.5 -20.001s-24.5 -5.5 -32.5 -5.5h-361c-7.33301 -0 -17 1.83301 -29 5.5s-23.167 10.334 -33.5 20.001s-18.5 22.667 -24.5 39s-6.33301 37.166 -1 62.499l84 434l-53 69h298z
M580.999 700h-171l100 124h183z" />
    <glyph glyph-name="FL00DCh" unicode="&#xdb;" horiz-adv-x="786" 
d="M453 630l-97.001 -501c0 -16 1.66699 -28.833 5 -38.5s7.5 -17 12.5 -22s10.167 -8.5 15.5 -10.5s9.66602 -3.33301 12.999 -4h2c4.66699 0.666992 9.83398 2 15.501 4s11.834 5.5 18.501 10.5s13.5 12.333 20.5 22s14.167 22.5 21.5 38.5l97 501h298l-79 -69l-84 -434
c-5.33301 -25.333 -14 -46.166 -26 -62.499s-25 -29.333 -39 -39s-27.833 -16.334 -41.5 -20.001s-24.5 -5.5 -32.5 -5.5h-361c-7.33301 -0 -17 1.83301 -29 5.5s-23.167 10.334 -33.5 20.001s-18.5 22.667 -24.5 39s-6.33301 37.166 -1 62.499l84 434l-53 69h298z
M486.999 700h-170l99 124h275l50 -124h-171l-32 63z" />
    <glyph glyph-name="FL00DDh" unicode="&#xdc;" horiz-adv-x="786" 
d="M741 700h-171l24 124h171zM453 630l-97.001 -501c0 -16 1.66699 -28.833 5 -38.5s7.5 -17 12.5 -22s10.167 -8.5 15.5 -10.5s9.66602 -3.33301 12.999 -4h2c4.66699 0.666992 9.83398 2 15.501 4s11.834 5.5 18.501 10.5s13.5 12.333 20.5 22s14.167 22.5 21.5 38.5
l97 501h298l-79 -69l-84 -434c-5.33301 -25.333 -14 -46.166 -26 -62.499s-25 -29.333 -39 -39s-27.833 -16.334 -41.5 -20.001s-24.5 -5.5 -32.5 -5.5h-361c-7.33301 -0 -17 1.83301 -29 5.5s-23.167 10.334 -33.5 20.001s-18.5 22.667 -24.5 39s-6.33301 37.166 -1 62.499
l84 434l-53 69h298zM486.999 700h-170l24 124h170z" />
    <glyph glyph-name="FL00DFh" unicode="&#xdd;" horiz-adv-x="856" 
d="M360 305l-205.002 325h382l-27 -10c-2 -1.33301 -5.66699 -3.33301 -11 -6l-17 -8.5c-6 -3 -11.667 -5.66699 -17 -8s-8.66602 -3.83301 -9.99902 -4.5l-0.5 -1.5c-0.333008 -1 -0.833008 -1.83301 -1.5 -2.5c0 -1.33301 0.166992 -2.5 0.5 -3.5l0.5 -1.5l105 -165
l210 172l-69 39h245v-4c-10.667 -3.33301 -18.834 -6 -24.501 -8s-10.167 -4.66699 -13.5 -8l-304 -248l-70 -362h-280l44 40c2.66699 2 5.83398 5.5 9.50098 10.5s5.83398 8.16699 6.50098 9.5zM633.998 700h-171l100 124h183z" />
    <glyph glyph-name="FL00DEh" unicode="&#xde;" horiz-adv-x="773" 
d="M194 560c-1.33301 1.33301 -4.00098 4.66309 -8.00098 9.99609s-8 11.333 -12 18s-7.5 12.834 -10.5 18.501s-4.83301 9.83398 -5.5 12.501v1c-2 2.66699 -3 6 -3 10h283l-29 -150h398c9.33301 0 15.333 -4.66699 18 -14s3.33398 -17.666 2.00098 -24.999l-3 -6
c-4.66699 -8.66699 -13 -21 -25 -37s-26 -33.167 -42 -51.5s-33.333 -37.166 -52 -56.499s-37.167 -36.666 -55.5 -51.999s-36 -28 -53 -38s-31.5 -15 -43.5 -15h-201l-36 -185h-279l44 40c2 1.33301 4.5 3.66602 7.5 6.99902s5.5 6.33301 7.5 9zM405.999 429.997
l-37 -189.999c11.333 4.66699 26 13.667 44 27s36.833 28.833 56.5 46.5s39.167 36.667 58.5 57s36 40.166 50 59.499h-172z" />
    <glyph glyph-name="FL0D7Eh" unicode="&#xdf;" horiz-adv-x="919" 
d="M149 560l-121.004 -621.003c0 -1.33301 -2 -4.5 -6 -9.5s-7.33301 -8.5 -10 -10.5l-45 -40h293l129 662l72 28h229l-2 -10c-0.666992 -3.33301 -6.83398 -10.166 -18.501 -20.499s-26.5 -22.666 -44.5 -36.999l-59 -46.5l-61 -47.5l-52.5 -41
c-15.667 -12.333 -26.5 -21.166 -32.5 -26.499h311l-298 -280h-66l-12 -60h188c14 -0 28.667 2.83301 44 8.5s30.333 12.5 45 20.5s28.334 16.667 41.001 26s23.334 17.666 32.001 24.999c3.33301 2.66699 10 8.5 20 17.5l35.5 33l45 42l47.5 45l43 41.5l32 31
c8.66699 7.33301 14 13.333 16 18s3.66699 10 5 16l3 16c2.66699 12.667 2 23 -2 31s-10.333 14.167 -19 18.5s-19 7.16602 -31 8.49902s-24.667 2 -38 2h-83l2 10l26 25l40.5 38.5l41 39l27.5 26.5c8.66699 8 13.834 13.667 15.501 17s3.5 9.33301 5.5 18
c0.666992 4.66699 0.333984 10.334 -0.999023 17.001s-3.66602 12.834 -6.99902 18.501s-7.83301 10.5 -13.5 14.5s-12.5 6 -20.5 6h-574z" />
    <glyph glyph-name="FL00E9h" unicode="&#xe0;" 
d="M348 630l299.999 -0.00195312l184 -630h-385l29 21c2 1.33301 5.83301 4.33301 11.5 9l18.5 15.5l18.5 16c5.66699 5 9.16699 8.16699 10.5 9.5c0 0.666992 0.333008 2.16699 1 4.5s1.33398 4.16602 2.00098 5.49902v5c0 2.66699 0.333008 4.33398 1 5.00098l-22 88h-247
l-21 -10l-63 -103l64 -66h-217l2 8l1 1c6 3.33301 13.167 7.83301 21.5 13.5s15.166 11.5 20.499 17.5l75 117v8c1.33301 6 1 11.333 -1 16s-4.66699 8.83398 -8 12.501l-10 11.5c-3.33301 4 -5.66602 8.66699 -6.99902 14c-1.33301 2.66699 -1.83301 5.83398 -1.5 9.50098
l0.5 5.5h75l209 326zM432.999 459.998l-143 -221h209l-51 201l-9 20l-2 1c-1.33301 0.666992 -2.66602 1 -3.99902 1c-0.666992 0 -0.833984 -0.333008 -0.500977 -1zM429.999 822.998h183l51 -124h-171z" />
    <glyph glyph-name="FL00E8h" unicode="&#xe1;" 
d="M348 630l299.999 -0.00195312l184 -630h-385l29 21c2 1.33301 5.83301 4.33301 11.5 9l18.5 15.5l18.5 16c5.66699 5 9.16699 8.16699 10.5 9.5c0 0.666992 0.333008 2.16699 1 4.5s1.33398 4.16602 2.00098 5.49902v5c0 2.66699 0.333008 4.33398 1 5.00098l-22 88h-247
l-21 -10l-63 -103l64 -66h-217l2 8l1 1c6 3.33301 13.167 7.83301 21.5 13.5s15.166 11.5 20.499 17.5l75 117v8c1.33301 6 1 11.333 -1 16s-4.66699 8.83398 -8 12.501l-10 11.5c-3.33301 4 -5.66602 8.66699 -6.99902 14c-1.33301 2.66699 -1.83301 5.83398 -1.5 9.50098
l0.5 5.5h75l209 326zM432.999 459.998l-143 -221h209l-51 201l-9 20l-2 1c-1.33301 0.666992 -2.66602 1 -3.99902 1c-0.666992 0 -0.833984 -0.333008 -0.500977 -1zM606.999 699.998h-171l100 124h183z" />
    <glyph glyph-name="FL00E3h" unicode="&#xe2;" 
d="M348 630l299.999 -0.00195312l184 -630h-385l29 21c2 1.33301 5.83301 4.33301 11.5 9l18.5 15.5l18.5 16c5.66699 5 9.16699 8.16699 10.5 9.5c0 0.666992 0.333008 2.16699 1 4.5s1.33398 4.16602 2.00098 5.49902v5c0 2.66699 0.333008 4.33398 1 5.00098l-22 88h-247
l-21 -10l-63 -103l64 -66h-217l2 8l1 1c6 3.33301 13.167 7.83301 21.5 13.5s15.166 11.5 20.499 17.5l75 117v8c1.33301 6 1 11.333 -1 16s-4.66699 8.83398 -8 12.501l-10 11.5c-3.33301 4 -5.66602 8.66699 -6.99902 14c-1.33301 2.66699 -1.83301 5.83398 -1.5 9.50098
l0.5 5.5h75l209 326zM432.999 459.998l-143 -221h209l-51 201l-9 20l-2 1c-1.33301 0.666992 -2.66602 1 -3.99902 1c-0.666992 0 -0.833984 -0.333008 -0.500977 -1zM510.999 699.998h-171l99 124h275l50 -124h-171l-31 63z" />
    <glyph glyph-name="FL00E7h" unicode="&#xe3;" 
d="M348 630l299.999 -0.00195312l184 -630h-385l29 21c2 1.33301 5.83301 4.33301 11.5 9l18.5 15.5l18.5 16c5.66699 5 9.16699 8.16699 10.5 9.5c0 0.666992 0.333008 2.16699 1 4.5s1.33398 4.16602 2.00098 5.49902v5c0 2.66699 0.333008 4.33398 1 5.00098l-22 88h-247
l-21 -10l-63 -103l64 -66h-217l2 8l1 1c6 3.33301 13.167 7.83301 21.5 13.5s15.166 11.5 20.499 17.5l75 117v8c1.33301 6 1 11.333 -1 16s-4.66699 8.83398 -8 12.501l-10 11.5c-3.33301 4 -5.66602 8.66699 -6.99902 14c-1.33301 2.66699 -1.83301 5.83398 -1.5 9.50098
l0.5 5.5h75l209 326zM432.999 459.998l-143 -221h209l-51 201l-9 20l-2 1c-1.33301 0.666992 -2.66602 1 -3.99902 1c-0.666992 0 -0.833984 -0.333008 -0.500977 -1zM673.999 821.998h130l-84 -123h-208l-20 63l-41 -63h-131l82 123h209l23 -63z" />
    <glyph glyph-name="FL00E4h" unicode="&#xe4;" 
d="M348 630l299.999 -0.00195312l184 -630h-385l29 21c2 1.33301 5.83301 4.33301 11.5 9l18.5 15.5l18.5 16c5.66699 5 9.16699 8.16699 10.5 9.5c0 0.666992 0.333008 2.16699 1 4.5s1.33398 4.16602 2.00098 5.49902v5c0 2.66699 0.333008 4.33398 1 5.00098l-22 88h-247
l-21 -10l-63 -103l64 -66h-217l2 8l1 1c6 3.33301 13.167 7.83301 21.5 13.5s15.166 11.5 20.499 17.5l75 117v8c1.33301 6 1 11.333 -1 16s-4.66699 8.83398 -8 12.501l-10 11.5c-3.33301 4 -5.66602 8.66699 -6.99902 14c-1.33301 2.66699 -1.83301 5.83398 -1.5 9.50098
l0.5 5.5h75l209 326zM432.999 459.998l-143 -221h209l-51 201l-9 20l-2 1c-1.33301 0.666992 -2.66602 1 -3.99902 1c-0.666992 0 -0.833984 -0.333008 -0.500977 -1zM758.999 699.998h-170l24 124h170zM505.999 699.998h-171l24 124h171z" />
    <glyph glyph-name="FL00E5h" unicode="&#xe5;" 
d="M348 630l299.999 -0.00195312l184 -630h-385l29 21c2 1.33301 5.83301 4.33301 11.5 9l18.5 15.5l18.5 16c5.66699 5 9.16699 8.16699 10.5 9.5c0 0.666992 0.333008 2.16699 1 4.5s1.33398 4.16602 2.00098 5.49902v5c0 2.66699 0.333008 4.33398 1 5.00098l-22 88h-247
l-21 -10l-63 -103l64 -66h-217l2 8l1 1c6 3.33301 13.167 7.83301 21.5 13.5s15.166 11.5 20.499 17.5l75 117v8c1.33301 6 1 11.333 -1 16s-4.66699 8.83398 -8 12.501l-10 11.5c-3.33301 4 -5.66602 8.66699 -6.99902 14c-1.33301 2.66699 -1.83301 5.83398 -1.5 9.50098
l0.5 5.5h75l209 326zM432.999 459.998l-143 -221h209l-51 201l-9 20l-2 1c-1.33301 0.666992 -2.66602 1 -3.99902 1c-0.666992 0 -0.833984 -0.333008 -0.500977 -1zM633.999 699.998h-171l24 124h171z" />
    <glyph glyph-name="FL00E6h" unicode="&#xe6;" horiz-adv-x="1294" 
d="M348 630l299.998 -0.00390625l108 -372l55 281c0 1.33301 -1 4.33301 -3 9s-3.66699 8.33398 -5 11.001l-48 71h610l-18 -94l-53 40h-232l-33 -171h269l-73 -60h-208l-55 -285h220l96 60l-23 -120h-808l29 21c2 1.33301 5.83301 4.33301 11.5 9l18.5 15.5l18.5 16
c5.66699 5 9.16699 8.16699 10.5 9.5c0 0.666992 0.333008 2.16699 1 4.5s1.33398 4.16602 2.00098 5.49902v5c0 2.66699 0.333008 4.33398 1 5.00098l-22 88h-247l-21 -10l-63 -103l64 -66h-217l2 8c6 3.33301 13.333 7.83301 22 13.5s15.667 11.834 21 18.501l75 117v8
c1.33301 6 1 11.333 -1 16s-4.66699 8.83398 -8 12.501l-10 11.5c-3.33301 4 -5.66602 8.66699 -6.99902 14c-1.33301 2.66699 -1.83301 5.83398 -1.5 9.50098l0.5 5.5h75l209 326zM432.998 459.996l-143 -221h209l-51 201l-9 20l-2 1
c-1.33301 0.666992 -2.66602 1 -3.99902 1c-0.666992 0 -0.833984 -0.333008 -0.500977 -1z" />
    <glyph glyph-name="FL0DD0h" unicode="&#xe7;" horiz-adv-x="714" 
d="M702 361c4.66699 9.33301 11.8311 25.667 21.498 49l30 74l28.5 74c8.66699 23.333 14.334 40 17.001 50c0.666992 1.33301 -0.333008 4.16602 -3 8.49902s-5.66699 8.16602 -9 11.499l-21 2h-479c-4 -0.666992 -11.167 -7 -21.5 -19s-22.166 -27.167 -35.499 -45.5
l-42 -60.5c-14.667 -22 -28.167 -43.667 -40.5 -65s-23 -41 -32 -59s-14.5 -31.667 -16.5 -41l-3 -16c-0.666992 -3.33301 -1.16699 -6.16602 -1.5 -8.49902s-0.5 -4.83301 -0.5 -7.5c0 -4.66699 2.66699 -10.667 8 -18c4.66699 -8 11.167 -18.333 19.5 -31l27.5 -41.5
l30.5 -45l29 -42l23.5 -33l13 -17.5c6 -7.33301 13.667 -15.666 23 -24.999s19.666 -18 30.999 -26s23.5 -14.833 36.5 -20.5s26.5 -8.5 40.5 -8.5h1l-11 -57h-98l-12 -60h171l23 117h198l23 120l-97 -60h-64c-40.667 44 -77.167 88.667 -109.5 134s-59.166 94 -80.499 146
c15.333 36 34 72.667 56 110s49 77.333 81 120l15 1h110c6.66699 -6.66699 12.667 -13 18 -19s10 -12 14 -18l79 -167z" />
    <glyph glyph-name="FL00EDh" unicode="&#xe8;" horiz-adv-x="694" 
d="M765 630l-18 -94l-53 40h-232l-33 -171h269l-73 -60h-208l-55 -285h220l96 60l-23 -120h-614c0.666992 3.33301 2.66699 6.66602 6 9.99902l59 50c2 2 5 5.5 9 10.5s6.33301 8.16699 7 9.5l89 459c0 1.33301 -1 4.33301 -3 9s-3.66699 8.33398 -5 11.001l-48 71h610z
M360 823h183l52 -124h-171z" />
    <glyph glyph-name="FL00ECh" unicode="&#xe9;" horiz-adv-x="694" 
d="M765 630l-18 -94l-53 40h-232l-33 -171h269l-73 -60h-208l-55 -285h220l96 60l-23 -120h-614c0.666992 3.33301 2.66699 6.66602 6 9.99902l59 50c2 2 5 5.5 9 10.5s6.33301 8.16699 7 9.5l89 459c0 1.33301 -1 4.33301 -3 9s-3.66699 8.33398 -5 11.001l-48 71h610z
M530 699h-171l100 124h183z" />
    <glyph glyph-name="FL00EAh" unicode="&#xea;" horiz-adv-x="694" 
d="M765 630l-18 -94l-53 40h-232l-33 -171h269l-73 -60h-208l-55 -285h220l96 60l-23 -120h-614c0.666992 3.33301 2.66699 6.66602 6 9.99902l59 50c2 2 5 5.5 9 10.5s6.33301 8.16699 7 9.5l89 459c0 1.33301 -1 4.33301 -3 9s-3.66699 8.33398 -5 11.001l-48 71h610z
M441 700h-171l100 124h274l51 -124h-171l-32 63z" />
    <glyph glyph-name="FL00EBh" unicode="&#xeb;" horiz-adv-x="694" 
d="M765 630l-18 -94l-53 40h-232l-33 -171h269l-73 -60h-208l-55 -285h220l96 60l-23 -120h-614c0.666992 3.33301 2.66699 6.66602 6 9.99902l59 50c2 2 5 5.5 9 10.5s6.33301 8.16699 7 9.5l89 459c0 1.33301 -1 4.33301 -3 9s-3.66699 8.33398 -5 11.001l-48 71h610z
M695 700h-171l24 124h171zM441 700h-171l24 124h171z" />
    <glyph glyph-name="FL0D65h" unicode="&#xec;" horiz-adv-x="375" 
d="M200 560c-1.33301 1.33301 -4.00195 4.66504 -8.00195 9.99805s-8 11.333 -12 18s-7.5 12.834 -10.5 18.501s-4.83301 9.83398 -5.5 12.501v1c-2 2.66699 -3 6 -3 10h296l-122 -630h-292l44 40c2.66699 2 5.83398 5.5 9.50098 10.5s5.83398 8.16699 6.50098 9.5z
M549.998 699.999h-171l24 124h171zM295.998 699.999h-171l24 124h171z" />
    <glyph glyph-name="FL00F7h" unicode="&#xed;" horiz-adv-x="375" 
d="M200 560c-1.33301 1.33301 -4.00195 4.66504 -8.00195 9.99805s-8 11.333 -12 18s-7.5 12.834 -10.5 18.501s-4.83301 9.83398 -5.5 12.501v1c-2 2.66699 -3 6 -3 10h296l-122 -630h-292l44 40c2.66699 2 5.83398 5.5 9.50098 10.5s5.83398 8.16699 6.50098 9.5z
M392.998 699.999h-170l99 124h183z" />
    <glyph glyph-name="FL00EEh" unicode="&#xee;" horiz-adv-x="375" 
d="M200 560c-1.33301 1.33301 -4.00195 4.66504 -8.00195 9.99805s-8 11.333 -12 18s-7.5 12.834 -10.5 18.501s-4.83301 9.83398 -5.5 12.501v1c-2 2.66699 -3 6 -3 10h296l-122 -630h-292l44 40c2.66699 2 5.83398 5.5 9.50098 10.5s5.83398 8.16699 6.50098 9.5z
M296.998 698.999h-171l100 124h274l51 -124h-171l-32 63z" />
    <glyph glyph-name="FL00EFh" unicode="&#xef;" horiz-adv-x="375" 
d="M200 560c-1.33301 1.33301 -4.00195 4.66504 -8.00195 9.99805s-8 11.333 -12 18s-7.5 12.834 -10.5 18.501s-4.83301 9.83398 -5.5 12.501v1c-2 2.66699 -3 6 -3 10h296l-122 -630h-292l44 40c2.66699 2 5.83398 5.5 9.50098 10.5s5.83398 8.16699 6.50098 9.5z
M549.998 699.999h-171l24 124h171zM295.998 699.999h-171l24 124h171z" />
    <glyph glyph-name="FL00F0h" unicode="&#xf0;" horiz-adv-x="786" 
d="M410 0c21.333 0 43.834 6.00098 67.501 18.001s45.167 24.667 64.5 38l1 1c6.66699 4 12.167 8 16.5 12s8.5 7.66699 12.5 11c2.66699 2.66699 9 8.66699 19 18l35.5 33.5l45 42l48 44.5l43.5 41l32 31c8.66699 7.33301 14 13.333 16 18s3.66699 10 5 16l3 16
c2 9.33301 2 23 0 41s-5.33301 37.667 -10 59s-10.167 43.166 -16.5 65.499s-12.833 42.5 -19.5 60.5s-13 33 -19 45s-11 18.333 -15 19h-483l-16 -3c-4.66699 -3.33301 -8.5 -7 -11.5 -11s-4.83301 -6.66699 -5.5 -8c-0.666992 -10 -1.16699 -26.667 -1.5 -50
s-0.5 -48 -0.5 -74s0.333008 -50.667 1 -74s1.33398 -39.666 2.00098 -48.999l10 6l146 167c5.33301 6 12 12 20 18l26 19h110l14 -1c14 -42.667 25.167 -82.667 33.5 -120s13.166 -74 14.499 -110l-10 -14h-492l12 -23c30 -60.667 60.167 -117.334 90.5 -170.001
s64.166 -97 101.499 -133h110zM341.001 267.001h190c-20 -20 -40.667 -39.667 -62 -59l-58 -52z" />
    <glyph glyph-name="FL00F1h" unicode="&#xf1;" horiz-adv-x="810" 
d="M194 560c-2 2 -4.83398 5.66895 -8.50098 11.002s-7.5 11.5 -11.5 18.5s-7.83301 14.167 -11.5 21.5s-6.16699 13.666 -7.5 18.999h194l205 -235l45 235h300c0 -1.33301 -1.16699 -3 -3.5 -5s-3.83301 -3.66699 -4.5 -5l-2 -1c-2 -2.66699 -5.66699 -6.83398 -11 -12.501
l-17.5 -18l-18 -17.5c-5.66699 -5.33301 -9.83398 -9 -12.501 -11l-116 -595l-318 380l-67 -345h-292l44 40c2.66699 2 5.83398 5.5 9.50098 10.5s5.83398 8.16699 6.50098 9.5zM667.999 823.002h130l-84 -123h-208l-20 63l-41 -63h-131l81 123h210l22 -63z" />
    <glyph glyph-name="FL00F2h" unicode="&#xf2;" horiz-adv-x="861" 
d="M447 823h183l51 -124h-170zM674 340c-1.33301 36 -5 72.833 -11 110.5s-16 77.834 -30 120.501h-183c-32 -42.667 -57.833 -82.834 -77.5 -120.501s-37.167 -74.5 -52.5 -110.5l138 -203zM839 630c4 0 8.33008 -5.8291 12.9971 -17.4961s9.5 -26.667 14.5 -45
s9.5 -38.666 13.5 -60.999s7.5 -44.333 10.5 -66s4.83301 -41.5 5.5 -59.5s0 -31.667 -2 -41l-3 -16c-1.33301 -6 -3 -11.333 -5 -16s-7 -10.667 -15 -18l-32 -31l-43.5 -41l-48 -44.5l-45 -42l-35.5 -33.5c-10 -9.33301 -16.333 -15.333 -19 -18
c-8.66699 -7.33301 -19.5 -15.666 -32.5 -24.999s-26.833 -18 -41.5 -26s-29.667 -14.833 -45 -20.5s-29.666 -8.5 -42.999 -8.5h-110c-14 0 -27.5 2.83301 -40.5 8.5s-25.167 12.5 -36.5 20.5s-21.666 16.667 -30.999 26s-17 17.666 -23 24.999l-13 17.5l-23.5 33l-29 42
l-30.5 45l-27.5 41.5c-8.33301 12.667 -14.833 23 -19.5 31c-5.33301 7.33301 -8 13.333 -8 18c0 2.66699 0.166992 5.16699 0.5 7.5s0.833008 5.16602 1.5 8.49902l3 16c2 9.33301 6.83301 23.166 14.5 41.499s17 38.166 28 59.499s22.833 43.166 35.5 65.499
s24.834 42.666 36.501 60.999s22.167 33.333 31.5 45s16.333 17.5 21 17.5h573z" />
    <glyph glyph-name="FL00F3h" unicode="&#xf3;" horiz-adv-x="861" 
d="M839 630c4 0 8.33008 -5.8291 12.9971 -17.4961s9.5 -26.667 14.5 -45s9.5 -38.666 13.5 -60.999s7.5 -44.333 10.5 -66s4.83301 -41.5 5.5 -59.5s0 -31.667 -2 -41l-3 -16c-1.33301 -6 -3 -11.333 -5 -16s-7 -10.667 -15 -18l-32 -31l-43.5 -41l-48 -44.5l-45 -42
l-35.5 -33.5c-10 -9.33301 -16.333 -15.333 -19 -18c-8.66699 -7.33301 -19.5 -15.666 -32.5 -24.999s-26.833 -18 -41.5 -26s-29.667 -14.833 -45 -20.5s-29.666 -8.5 -42.999 -8.5h-110c-14 0 -27.5 2.83301 -40.5 8.5s-25.167 12.5 -36.5 20.5s-21.666 16.667 -30.999 26
s-17 17.666 -23 24.999l-13 17.5l-23.5 33l-29 42l-30.5 45l-27.5 41.5c-8.33301 12.667 -14.833 23 -19.5 31c-5.33301 7.33301 -8 13.333 -8 18c0 2.66699 0.166992 5.16699 0.5 7.5s0.833008 5.16602 1.5 8.49902l3 16c2 9.33301 6.83301 23.166 14.5 41.499
s17 38.166 28 59.499s22.833 43.166 35.5 65.499s24.834 42.666 36.501 60.999s22.167 33.333 31.5 45s16.333 17.5 21 17.5h573zM319.997 340.004l138 -203l216 203c-1.33301 36 -5 72.833 -11 110.5s-16 77.834 -30 120.501h-183
c-32 -42.667 -57.833 -82.834 -77.5 -120.501s-37.167 -74.5 -52.5 -110.5zM622.997 699.004h-171l100 124h183z" />
    <glyph glyph-name="FL00F4h" unicode="&#xf4;" horiz-adv-x="861" 
d="M839 630c4 0 8.33008 -5.8291 12.9971 -17.4961s9.5 -26.667 14.5 -45s9.5 -38.666 13.5 -60.999s7.5 -44.333 10.5 -66s4.83301 -41.5 5.5 -59.5s0 -31.667 -2 -41l-3 -16c-1.33301 -6 -3 -11.333 -5 -16s-7 -10.667 -15 -18l-32 -31l-43.5 -41l-48 -44.5l-45 -42
l-35.5 -33.5c-10 -9.33301 -16.333 -15.333 -19 -18c-8.66699 -7.33301 -19.5 -15.666 -32.5 -24.999s-26.833 -18 -41.5 -26s-29.667 -14.833 -45 -20.5s-29.666 -8.5 -42.999 -8.5h-110c-14 0 -27.5 2.83301 -40.5 8.5s-25.167 12.5 -36.5 20.5s-21.666 16.667 -30.999 26
s-17 17.666 -23 24.999l-13 17.5l-23.5 33l-29 42l-30.5 45l-27.5 41.5c-8.33301 12.667 -14.833 23 -19.5 31c-5.33301 7.33301 -8 13.333 -8 18c0 2.66699 0.166992 5.16699 0.5 7.5s0.833008 5.16602 1.5 8.49902l3 16c2 9.33301 6.83301 23.166 14.5 41.499
s17 38.166 28 59.499s22.833 43.166 35.5 65.499s24.834 42.666 36.501 60.999s22.167 33.333 31.5 45s16.333 17.5 21 17.5h573zM319.997 340.004l138 -203l216 203c-1.33301 36 -5 72.833 -11 110.5s-16 77.834 -30 120.501h-183
c-32 -42.667 -57.833 -82.834 -77.5 -120.501s-37.167 -74.5 -52.5 -110.5zM527.997 700.004h-171l99 124h275l50 -124h-170l-32 63z" />
    <glyph glyph-name="FL00F5h" unicode="&#xf5;" horiz-adv-x="861" 
d="M839 630c4 0 8.33008 -5.8291 12.9971 -17.4961s9.5 -26.667 14.5 -45s9.5 -38.666 13.5 -60.999s7.5 -44.333 10.5 -66s4.83301 -41.5 5.5 -59.5s0 -31.667 -2 -41l-3 -16c-1.33301 -6 -3 -11.333 -5 -16s-7 -10.667 -15 -18l-32 -31l-43.5 -41l-48 -44.5l-45 -42
l-35.5 -33.5c-10 -9.33301 -16.333 -15.333 -19 -18c-8.66699 -7.33301 -19.5 -15.666 -32.5 -24.999s-26.833 -18 -41.5 -26s-29.667 -14.833 -45 -20.5s-29.666 -8.5 -42.999 -8.5h-110c-14 0 -27.5 2.83301 -40.5 8.5s-25.167 12.5 -36.5 20.5s-21.666 16.667 -30.999 26
s-17 17.666 -23 24.999l-13 17.5l-23.5 33l-29 42l-30.5 45l-27.5 41.5c-8.33301 12.667 -14.833 23 -19.5 31c-5.33301 7.33301 -8 13.333 -8 18c0 2.66699 0.166992 5.16699 0.5 7.5s0.833008 5.16602 1.5 8.49902l3 16c2 9.33301 6.83301 23.166 14.5 41.499
s17 38.166 28 59.499s22.833 43.166 35.5 65.499s24.834 42.666 36.501 60.999s22.167 33.333 31.5 45s16.333 17.5 21 17.5h573zM319.997 340.004l138 -203l216 203c-1.33301 36 -5 72.833 -11 110.5s-16 77.834 -30 120.501h-183
c-32 -42.667 -57.833 -82.834 -77.5 -120.501s-37.167 -74.5 -52.5 -110.5zM699.997 823.004h131l-84 -123h-208l-20 63l-41 -63h-131l81 123h210l22 -63z" />
    <glyph glyph-name="FL00F6h" unicode="&#xf6;" horiz-adv-x="861" 
d="M839 630c4 0 8.33008 -5.8291 12.9971 -17.4961s9.5 -26.667 14.5 -45s9.5 -38.666 13.5 -60.999s7.5 -44.333 10.5 -66s4.83301 -41.5 5.5 -59.5s0 -31.667 -2 -41l-3 -16c-1.33301 -6 -3 -11.333 -5 -16s-7 -10.667 -15 -18l-32 -31l-43.5 -41l-48 -44.5l-45 -42
l-35.5 -33.5c-10 -9.33301 -16.333 -15.333 -19 -18c-8.66699 -7.33301 -19.5 -15.666 -32.5 -24.999s-26.833 -18 -41.5 -26s-29.667 -14.833 -45 -20.5s-29.666 -8.5 -42.999 -8.5h-110c-14 0 -27.5 2.83301 -40.5 8.5s-25.167 12.5 -36.5 20.5s-21.666 16.667 -30.999 26
s-17 17.666 -23 24.999l-13 17.5l-23.5 33l-29 42l-30.5 45l-27.5 41.5c-8.33301 12.667 -14.833 23 -19.5 31c-5.33301 7.33301 -8 13.333 -8 18c0 2.66699 0.166992 5.16699 0.5 7.5s0.833008 5.16602 1.5 8.49902l3 16c2 9.33301 6.83301 23.166 14.5 41.499
s17 38.166 28 59.499s22.833 43.166 35.5 65.499s24.834 42.666 36.501 60.999s22.167 33.333 31.5 45s16.333 17.5 21 17.5h573zM319.997 340.004l138 -203l216 203c-1.33301 36 -5 72.833 -11 110.5s-16 77.834 -30 120.501h-183
c-32 -42.667 -57.833 -82.834 -77.5 -120.501s-37.167 -74.5 -52.5 -110.5zM780.997 699.004h-170l24 124h170zM527.997 699.004h-171l24 124h171z" />
    <glyph glyph-name="FL0100h" unicode="&#xf7;" horiz-adv-x="460" 
d="M506 405l-73 -60h-333l12 60h394zM347 187h-171l24 124h171zM395 439h-171l24 124h171z" />
    <glyph glyph-name="FL00F8h" unicode="&#xf8;" horiz-adv-x="861" 
d="M266 630c-4.66699 0 -11.6641 -5.83398 -20.9971 -17.501s-19.833 -26.667 -31.5 -45s-23.834 -38.666 -36.501 -60.999s-24.5 -44.166 -35.5 -65.499s-20.333 -41.166 -28 -59.499s-12.5 -32.166 -14.5 -41.499l-3 -16
c-0.666992 -3.33301 -1.16699 -6.16602 -1.5 -8.49902s-0.5 -4.83301 -0.5 -7.5c0 -4.66699 2.66699 -10.667 8 -18c4.66699 -8 11.167 -18.333 19.5 -31l27.5 -41.5l30.5 -45l29 -42l23.5 -33l13 -17.5c6 -7.33301 13.667 -15.666 23 -24.999s19.666 -18 30.999 -26
s23.5 -14.833 36.5 -20.5s26.5 -8.5 40.5 -8.5h110c13.333 0 27.666 2.83301 42.999 8.5s30.333 12.5 45 20.5s28.5 16.667 41.5 26s23.833 17.666 32.5 24.999c3.33301 2.66699 10 8.5 20 17.5l35.5 33l45 42l47.5 45l43 41.5l32 31c8 7.33301 13 13.333 15 18
s3.66699 10 5 16l3 16c2 9.33301 2.66699 23.166 2 41.499s-2.5 38.166 -5.5 59.499s-6.5 43.166 -10.5 65.499s-8.5 42.666 -13.5 60.999s-9.83301 33.333 -14.5 45s-9 17.5 -13 17.5h-573zM320.003 339.999c15.333 36 32.833 72.832 52.5 110.499
s45.5 77.834 77.5 120.501h183c1.33301 -5.33301 2.83301 -10.5 4.5 -15.5s3.16699 -10.167 4.5 -15.5l-290 -248zM674.003 339.998l-216.001 -203l-69 101l271 232c4.66699 -23.333 7.83398 -45.5 9.50098 -66.5s3.16699 -42.167 4.5 -63.5z" />
    <glyph glyph-name="FL00F9h" unicode="&#xf9;" horiz-adv-x="786" 
d="M647 700h-171l-63 124h183zM480 129l96.999 501h298l-79 -69l-84 -434c-5.33301 -25.333 -14 -46.166 -26 -62.499s-25 -29.333 -39 -39s-27.833 -16.334 -41.5 -20.001s-24.5 -5.5 -32.5 -5.5h-361c-7.33301 -0 -17 1.83301 -29 5.5s-23.167 10.334 -33.5 20.001
s-18.5 22.667 -24.5 39s-6.33301 37.166 -1 62.499l84 434l-53 69h298l-97 -501c0.666992 -16 2.83398 -28.833 6.50098 -38.5s7.66699 -17 12 -22s9 -8.5 14 -10.5s9.5 -3.33301 13.5 -4h2c4 0.666992 9 2 15 4s12.5 5.5 19.5 10.5s14.167 12.333 21.5 22s14 22.5 20 38.5z
" />
    <glyph glyph-name="FL00FAh" unicode="&#xfa;" horiz-adv-x="786" 
d="M453 630l-97.001 -501c0 -16 1.66699 -28.833 5 -38.5s7.5 -17 12.5 -22s10.167 -8.5 15.5 -10.5s9.66602 -3.33301 12.999 -4h2c4.66699 0.666992 9.83398 2 15.501 4s11.834 5.5 18.501 10.5s13.5 12.333 20.5 22s14.167 22.5 21.5 38.5l97 501h298l-79 -69l-84 -434
c-5.33301 -25.333 -14 -46.166 -26 -62.499s-25 -29.333 -39 -39s-27.833 -16.334 -41.5 -20.001s-24.5 -5.5 -32.5 -5.5h-361c-7.33301 -0 -17 1.83301 -29 5.5s-23.167 10.334 -33.5 20.001s-18.5 22.667 -24.5 39s-6.33301 37.166 -1 62.499l84 434l-53 69h298z
M580.999 700h-171l100 124h183z" />
    <glyph glyph-name="FL00FBh" unicode="&#xfb;" horiz-adv-x="786" 
d="M453 630l-97.001 -501c0 -16 1.66699 -28.833 5 -38.5s7.5 -17 12.5 -22s10.167 -8.5 15.5 -10.5s9.66602 -3.33301 12.999 -4h2c4.66699 0.666992 9.83398 2 15.501 4s11.834 5.5 18.501 10.5s13.5 12.333 20.5 22s14.167 22.5 21.5 38.5l97 501h298l-79 -69l-84 -434
c-5.33301 -25.333 -14 -46.166 -26 -62.499s-25 -29.333 -39 -39s-27.833 -16.334 -41.5 -20.001s-24.5 -5.5 -32.5 -5.5h-361c-7.33301 -0 -17 1.83301 -29 5.5s-23.167 10.334 -33.5 20.001s-18.5 22.667 -24.5 39s-6.33301 37.166 -1 62.499l84 434l-53 69h298z
M486.999 700h-170l99 124h275l50 -124h-171l-32 63z" />
    <glyph glyph-name="FL00FCh" unicode="&#xfc;" horiz-adv-x="786" 
d="M741 700h-171l24 124h171zM453 630l-97.001 -501c0 -16 1.66699 -28.833 5 -38.5s7.5 -17 12.5 -22s10.167 -8.5 15.5 -10.5s9.66602 -3.33301 12.999 -4h2c4.66699 0.666992 9.83398 2 15.501 4s11.834 5.5 18.501 10.5s13.5 12.333 20.5 22s14.167 22.5 21.5 38.5
l97 501h298l-79 -69l-84 -434c-5.33301 -25.333 -14 -46.166 -26 -62.499s-25 -29.333 -39 -39s-27.833 -16.334 -41.5 -20.001s-24.5 -5.5 -32.5 -5.5h-361c-7.33301 -0 -17 1.83301 -29 5.5s-23.167 10.334 -33.5 20.001s-18.5 22.667 -24.5 39s-6.33301 37.166 -1 62.499
l84 434l-53 69h298zM486.999 700h-170l24 124h170z" />
    <glyph glyph-name="FL00FDh" unicode="&#xfd;" horiz-adv-x="856" 
d="M301 0l59 305l-205 325h382l-27 -10c-2 -1.33301 -5.66699 -3.33301 -11 -6l-17 -8.5c-6 -3 -11.667 -5.66699 -17 -8s-8.66602 -3.83301 -9.99902 -4.5l-0.5 -1.5c-0.333008 -1 -0.833008 -1.83301 -1.5 -2.5c0 -1.33301 0.166992 -2.5 0.5 -3.5l0.5 -1.5l105 -165
l210 172l-69 39h245v-4c-10.667 -3.33301 -18.834 -6 -24.501 -8s-10.167 -4.66699 -13.5 -8l-304 -248l-70 -362h-232zM634 700h-171l100 124h183z" />
    <glyph glyph-name="FL00FEh" unicode="&#xfe;" horiz-adv-x="773" 
d="M194 560c-1.33301 1.33301 -4.00098 4.66211 -8.00098 9.99512s-8 11.333 -12 18s-7.5 12.834 -10.5 18.501s-4.83301 9.83398 -5.5 12.501v1c-2 2.66699 -3 6 -3 10h283l-29 -150h398c9.33301 0 15.333 -4.66699 18 -14s3.33398 -17.666 2.00098 -24.999l-3 -6
c-4.66699 -8.66699 -13 -21 -25 -37s-26 -33.167 -42 -51.5s-33.333 -37.166 -52 -56.499s-37.167 -36.666 -55.5 -51.999s-36 -28 -53 -38s-31.5 -15 -43.5 -15h-201l-36 -185h-231zM405.999 430.996l-37 -190.999c11.333 4.66699 26 13.667 44 27s37 29 57 47
s39.5 37.167 58.5 57.5s35.5 40.166 49.5 59.499h-172z" />
    <glyph glyph-name="FL00FFh" unicode="&#xff;" horiz-adv-x="856" 
d="M301 0l59 305l-205 325h382l-27 -10c-2 -1.33301 -5.66699 -3.33301 -11 -6l-17 -8.5c-6 -3 -11.667 -5.66699 -17 -8s-8.66602 -3.83301 -9.99902 -4.5l-0.5 -1.5c-0.333008 -1 -0.833008 -1.83301 -1.5 -2.5c0 -1.33301 0.166992 -2.5 0.5 -3.5l0.5 -1.5l105 -165
l210 172l-69 39h245v-4c-10.667 -3.33301 -18.834 -6 -24.501 -8s-10.167 -4.66699 -13.5 -8l-304 -248l-70 -362h-232zM774 700h-171l24 124h171zM520 700h-171l24 124h171z" />
    <glyph glyph-name="FL0152h" unicode="&#x152;" horiz-adv-x="1093" 
d="M1054 0h-902c-7.33301 -0 -17 1.83301 -29 5.5s-23.167 10.334 -33.5 20.001s-18.5 22.667 -24.5 39s-6.33301 37.166 -1 62.499l73 376c4.66699 25.333 13 46.166 25 62.499s25 29.333 39 39s27.833 16.334 41.5 20.001s24.167 5.5 31.5 5.5h890l-18 -94l-53 40h-232
l-33 -171h268l-73 -60h-207l-55 -285h220l96 60zM505 60c2 2 5.00098 5.49902 9.00098 10.499s6.33301 8.16699 7 9.5l88 454c-4 6 -9.16699 13 -15.5 21s-13.5 15 -21.5 21h-128c-4 -0.666992 -8.83301 -2 -14.5 -4s-12 -5.5 -19 -10.5s-14.167 -12.333 -21.5 -22
s-14.333 -22.5 -21 -38.5l-72 -372c1.33301 -22 4.66602 -38.167 9.99902 -48.5s11.333 -17.166 18 -20.499h181z" />
    <glyph glyph-name="FL0153h" unicode="&#x153;" horiz-adv-x="1215" 
d="M1176 0l-800 0.00195312c-14 0 -27.5 2.83301 -40.5 8.5s-25.167 12.5 -36.5 20.5s-21.666 16.667 -30.999 26s-17 17.666 -23 24.999l-13 17.5l-23.5 33l-29 42l-30.5 45l-27.5 41.5c-8.33301 12.667 -14.833 23 -19.5 31c-5.33301 7.33301 -8 13.333 -8 18
c0 2.66699 0.166992 5.16699 0.5 7.5s0.833008 5.16602 1.5 8.49902l3 16c2 9.33301 7.5 23 16.5 41s19.667 37.667 32 59s25.833 43 40.5 65l42 60.5c13.333 18.333 25.166 33.5 35.499 45.5s17.5 18.333 21.5 19h999l-18 -94l-53 40h-232l-33 -171h268l-73 -60h-207
l-55 -285h220l96 60zM510 60.002h64.001l73 45l51 259l-5 3l-79 167c-4 6 -8.66699 12 -14 18s-11.333 12.333 -18 19h-110l-15 -1c-32 -42.667 -59 -82.667 -81 -120s-40.667 -74 -56 -110c21.333 -52 48.166 -100.667 80.499 -146s68.833 -90 109.5 -134z" />
    <glyph glyph-name="FL0160h" unicode="&#x160;" horiz-adv-x="725" 
d="M158 232l9.99902 -6.00195l77 -177l8 -5l8.5 1.5c5.66699 1 12.334 2.33301 20.001 4s15.334 3.66699 23.001 6s14.167 4.5 19.5 6.5c25.333 6 44.166 15.5 56.499 28.5s20.166 27.167 23.499 42.5c4 18.667 0.333008 35.667 -11 51l-31 25.5l-47 40l-55 47.5l-55.5 48
l-47.5 41.5l-31 27.5c-5.33301 5.33301 -8 9.66602 -8 12.999c0 4.66699 0.333008 8 1 10v2l1 4c2 8.66699 6.5 16.5 13.5 23.5s15.833 13.5 26.5 19.5s22.5 11.333 35.5 16s26.167 9 39.5 13l495 154l47 11l-3 -18l-98 -271l-10 5l-113 159c0 4.66699 -2.66699 7 -8 7h-13
c-36 -6.66699 -63.5 -16.667 -82.5 -30s-30.167 -28.666 -33.5 -45.999c-1.33301 -6.66699 -2 -12.667 -2 -18s2.66699 -11.333 8 -18l294 -253c6 -5.33301 9.16699 -11 9.5 -17s-0.166992 -11.667 -1.5 -17c-3.33301 -16 -14.5 -29.167 -33.5 -39.5
s-42.833 -19.166 -71.5 -26.499l-537 -142h-24c0.666992 2 1.83398 5.83301 3.50098 11.5s3.16699 9.83398 4.5 12.501c2 6.66699 5.33301 16.667 10 30l16 45l18.5 52l19 52l17 44.5zM570.999 823.998h171l-100 -124h-274l-51 124h171l32 -63z" />
    <glyph glyph-name="FL0161h" unicode="&#x161;" horiz-adv-x="743" 
d="M168 246l5.99805 -5.99902l50 -192l6 -5c0.666992 0 3.66699 -0.166992 9 -0.5s12.333 -0.833008 21 -1.5s16.667 -1 24 -1c10.667 0 16.334 0.333008 17.001 1h6c23.333 0 41 4.66699 53 14s20 20.666 24 33.999l4 13c1.33301 6.66699 1.66602 13.167 0.999023 19.5
s-3.33398 12.833 -8.00098 19.5c-6 6.66699 -14.667 20.667 -26 42l-38.5 75l-44.5 92l-43 92.5l-35 76c-10 21.667 -16.667 35.834 -20 42.501c-5.33301 7.33301 -7.33301 13.666 -6 18.999c0 -1.33301 1 1.66699 3 9v2c2.66699 8 7.83398 14.5 15.501 19.5s17 9 28 12
s23 5 36 6s26.167 1.5 39.5 1.5h542l-5 -17l-128 -233l-9 6l-85 182c0 5.33301 -3 8 -9 8l-5 3h-6c-12 1.33301 -23.167 2.33301 -33.5 3s-20.166 1 -29.499 1c-17.333 0 -31.333 -1.83301 -42 -5.5s-18 -10.167 -22 -19.5l-4 -17c-0.666992 -2 -1 -5.33301 -1 -10
c0 -3.33301 1.66699 -6.66602 5 -9.99902l236 -450c2.66699 -5.33301 3.66699 -12.333 3 -21l-4 -14c-5.33301 -14.667 -17 -24.334 -35 -29.001s-41 -7 -69 -7h-530l-25 7c0.666992 2 2.33398 5.66699 5.00098 11l5 10c2.66699 6 7.16699 14.833 13.5 26.5l21.5 39l25.5 45
l26 44.5l22.5 38zM564.998 824.001h171l-100 -124h-274l-51 124h171l32 -63z" />
    <glyph glyph-name="FL0178h" unicode="&#x178;" horiz-adv-x="856" 
d="M360 305l-205.002 325h382l-27 -10c-2 -1.33301 -5.66699 -3.33301 -11 -6l-17 -8.5c-6 -3 -11.667 -5.66699 -17 -8s-8.66602 -3.83301 -9.99902 -4.5l-0.5 -1.5c-0.333008 -1 -0.833008 -1.83301 -1.5 -2.5c0 -1.33301 0.166992 -2.5 0.5 -3.5l0.5 -1.5l105 -165
l210 172l-69 39h245v-4c-10.667 -3.33301 -18.834 -6 -24.501 -8s-10.167 -4.66699 -13.5 -8l-304 -248l-70 -362h-280l44 40c2.66699 2 5.83398 5.5 9.50098 10.5s5.83398 8.16699 6.50098 9.5zM773.998 700h-171l24 124h171zM519.998 700h-171l24 124h171z" />
    <glyph glyph-name="FL017Dh" unicode="&#x17d;" horiz-adv-x="716" 
d="M646 232c0.666992 -3.33301 1.00586 -7.33203 1.00586 -11.999v-17v-44v-53c0 -18 -0.166992 -35.333 -0.5 -52s-0.833008 -31.834 -1.5 -45.501s-1.33398 -23.834 -2.00098 -30.501c0 -2 -0.333008 -6 -1 -12s-1.33398 -10 -2.00098 -12h-23l-542 169
c-8.66699 3.33301 -13.334 7 -14.001 11s0.666016 13.667 3.99902 29c1.33301 5.33301 3.16602 11.333 5.49902 18s7.16602 12.667 14.499 18l389 252c7.33301 5.33301 12.166 11.5 14.499 18.5s4.16602 13.167 5.49902 18.5c3.33301 16.667 -2 32 -16 46s-38 24 -72 30h-12
c-5.33301 0 -9.33301 -2 -12 -6l-170 -159l-12 -6l7 271l4 19l43 -12l496 -180c12.667 -4 19.667 -8.5 21 -13.5s0.333008 -16.5 -3 -34.5v-2l-4 -11.5c-1.33301 -3.66699 -5.66602 -8.16699 -12.999 -13.5l-351 -230c-18 -17.333 -28.667 -34.666 -32 -51.999
c-3.33301 -16 -1.16602 -30.667 6.50098 -44s23.167 -23 46.5 -29c3.33301 -2.66699 8.5 -5 15.5 -7s13.833 -3.66699 20.5 -5s12.667 -2.33301 18 -3s8.33301 -1 9 -1l11 3l141 180zM571.006 824.001h171l-100 -124h-274l-51 124h171l32 -63z" />
    <glyph glyph-name="FL017Eh" unicode="&#x17e;" horiz-adv-x="730" 
d="M658 246c2 -8 4.99902 -22.1699 8.99902 -42.5029s8 -42 12 -65l11 -66c3.33301 -21 5.33301 -35.833 6 -44.5c0.666992 -1.33301 1.33398 -4.66602 2.00098 -9.99902s0.666992 -9 0 -11l-27 -7h-573c-16.667 0 -29 2.33301 -37 7s-11.333 14.334 -10 29.001l2 14
c0.666992 3.33301 1.66699 6.83301 3 10.5s4 7.16699 8 10.5l423 450c5.33301 3.33301 8.5 6.66602 9.5 9.99902s1.83301 6.66602 2.5 9.99902l2 17c0 9.33301 -4.66699 15.833 -14 19.5s-22.666 5.5 -39.999 5.5h-19c-11.333 0 -24.333 -1.16699 -39 -3.5
s-25 -6.16602 -31 -11.499l-155 -182l-11 -6l-38 233l1 17h582c26.667 0 44.5 -2.5 53.5 -7.5s12.833 -15.5 11.5 -31.5l-2 -2c0 -3.33301 0.166992 -5.83301 0.5 -7.5s0.5 -2.16699 0.5 -1.5c-0.666992 -2.66699 -2.33398 -5.66699 -5.00098 -9
s-5.66699 -6.66602 -9 -9.99902l-38.5 -43.5l-67 -76l-82 -92l-83 -91.5l-70 -75c-20.333 -21.333 -34.833 -35.333 -43.5 -42c-12.667 -12.667 -20 -25.667 -22 -39l-2 -13c-0.666992 -13.333 3.16602 -24.666 11.499 -33.999s24.5 -14 48.5 -14h6
c0.666992 -0.666992 6.33398 -1 17.001 -1c7.33301 0 15.333 0.333008 24 1s15.667 1.16699 21 1.5s8.33301 0.5 9 0.5l8 5l126 192zM564.999 823.997h171l-100 -124h-274l-51 124h171l32 -63z" />
    <glyph glyph-name="Q" unicode="&#x192;" horiz-adv-x="861" 
d="M842 631h-573.997c-4 0 -10.667 -5.83301 -20 -17.5s-20 -26.667 -32 -45s-24.5 -38.666 -37.5 -60.999s-25 -44.333 -36 -66s-20.5 -41.667 -28.5 -60s-13 -32.166 -15 -41.499l-3 -16c-0.666992 -3.33301 -1.16699 -6.16602 -1.5 -8.49902s-0.5 -4.83301 -0.5 -7.5
c0 -4.66699 2.66699 -10.667 8 -18c4.66699 -8 11.167 -18.333 19.5 -31l27.5 -41.5l30.5 -45l29 -42l23.5 -33l13 -17.5c6 -7.33301 13.667 -15.666 23 -24.999s19.666 -18 30.999 -26s23.5 -14.833 36.5 -20.5s26.5 -8.5 40.5 -8.5h110c12.667 0 25.667 2.33301 39 7
s26.333 10.5 39 17.5s24.667 14.5 36 22.5s21.666 15.667 30.999 23l30 -35l-74 -35h240l1 4c-9.33301 1.33301 -16.5 3.66602 -21.5 6.99902s-8.83301 6.66602 -11.5 9.99902l-93 109l44.5 40.5l48 45l44 42.5l32.5 32c8 7.33301 13 13.333 15 18s3.66699 10 5 16l3 16
c2 9.33301 2.66699 23.166 2 41.499s-2.16699 38.333 -4.5 60s-5.5 43.667 -9.5 66s-8.33301 42.666 -13 60.999s-9.33398 33.333 -14.001 45s-9 17.5 -13 17.5zM412.003 339l114 -137l-68 -65l-138 203c15.333 36 33 72.833 53 110.5s46 77.834 78 120.501h183
c14.667 -42.667 24.667 -82.834 30 -120.501s8.66602 -74.5 9.99902 -110.5l-83 -77l-48 57l83 39h-245l-1 -4c9.33301 -3.33301 16.333 -6 21 -8s8.33398 -4.66699 11.001 -8z" />
    <glyph glyph-name="FL02C6h" unicode="&#x2c6;" horiz-adv-x="490" 
d="M302 506h-171l100 124h274l50 -124h-170l-31 63z" />
    <glyph glyph-name="FL02DCh" unicode="&#x2dc;" horiz-adv-x="526" 
d="M484 630h131l-83 -123h-209l-19 63l-42 -63h-130l80 123h210l22 -63z" />
    <glyph glyph-name="FL2013h" unicode="&#x2013;" horiz-adv-x="334" 
d="M112 405l-12 -60h207l73 60h-268z" />
    <glyph glyph-name="FL2014h" unicode="&#x2014;" horiz-adv-x="460" 
d="M112 405l-12 -60h333l73 60h-394z" />
    <glyph glyph-name="FL2018h" unicode="&#x2018;" horiz-adv-x="249" 
d="M332 629l-44 -229h-171l24 124l132 105h59z" />
    <glyph glyph-name="FL2019h" unicode="&#x2019;" horiz-adv-x="249" 
d="M117 401l44 229h171l-24 -124l-132 -105h-59z" />
    <glyph glyph-name="FL201Ah" unicode="&#x201a;" horiz-adv-x="249" 
d="M19 -105l44 229h171l-24 -124l-132 -105h-59z" />
    <glyph glyph-name="FL201Ch" unicode="&#x201c;" horiz-adv-x="450" 
d="M332 631l-45 -229h-171l24 124l133 105h59zM532 630l-44 -229h-171l24 124l132 105h59z" />
    <glyph glyph-name="FL201Dh" unicode="&#x201d;" horiz-adv-x="450" 
d="M318 401l44 229h171l-24 -124l-132 -105h-59zM117 402l45 229h171l-24 -124l-133 -105h-59z" />
    <glyph glyph-name="FL201Eh" unicode="&#x201e;" horiz-adv-x="450" 
d="M220 -105l44 229h171l-24 -124l-132 -105h-59zM19 -104l44 229h171l-24 -124l-132 -105h-59z" />
    <glyph glyph-name="FL2020h" unicode="&#x2020;" horiz-adv-x="498" 
d="M129 461l84.998 -0.000976562l19 99c-1.33301 1.33301 -4 4.66602 -8 9.99902s-8 11.333 -12 18s-7.5 12.834 -10.5 18.501s-4.83301 9.83398 -5.5 12.501v1c-2 2.66699 -3 6 -3 10h296l-32 -169h97l-73 -60h-36l-78 -401h-292l44 40c2.66699 2 5.83398 5.5 9.50098 10.5
s5.83398 8.16699 6.50098 9.5l66 341h-85z" />
    <glyph glyph-name="FL2021h" unicode="&#x2021;" horiz-adv-x="498" 
d="M129 461l84.998 -0.000976562l19 99c-1.33301 1.33301 -4 4.66602 -8 9.99902s-8 11.333 -12 18s-7.5 12.834 -10.5 18.501s-4.83301 9.83398 -5.5 12.501v1c-2 2.66699 -3 6 -3 10h296l-32 -169h97l-73 -60h-36l-10 -49h97l-72 -60h-36l-57 -292h-292l44 40
c2.66699 2 5.83398 5.5 9.50098 10.5s5.83398 8.16699 6.50098 9.5l45 232h-85l11 60h85l10 49h-85z" />
    <glyph glyph-name="FL2022h" unicode="&#x2022;" horiz-adv-x="420" 
d="M99 340l138 -203l216 203c-1.33301 36 -5 72.833 -11 110.5s-16 77.834 -30 120.501h-183c-32 -42.667 -57.833 -82.834 -77.5 -120.501s-37.167 -74.5 -52.5 -110.5z" />
    <glyph glyph-name="FL2026h" unicode="&#x2026;" horiz-adv-x="712" 
d="M503 0h170l24 124h-170zM271 0h171l24 124h-171zM39 0h171l24 124h-171z" />
    <glyph glyph-name="FL2030h" unicode="&#x2030;" horiz-adv-x="1215" 
d="M908 611l-694 -571.998l59 -39h-240l1 4c9.33301 1.33301 17.333 3.66602 24 6.99902s12 6.66602 16 9.99902l696 571l-68 39h246l-1 -4l-25 -8c-6 -2 -10.667 -4.66699 -14 -8zM485 567.002l-36 -188c-2.66699 -12.667 -7 -23 -13 -31s-12.667 -14.333 -20 -19
s-14.5 -8 -21.5 -10s-12.5 -3 -16.5 -3h-215c-4 0 -9 1 -15 3s-11.5 5.33301 -16.5 10s-9 11 -12 19s-3.16699 18.333 -0.5 31l36 188c2.66699 12.667 7.16699 23.167 13.5 31.5s13 14.833 20 19.5s13.833 8 20.5 10s12 3 16 3h215c4 0 9 -1 15 -3s11.667 -5.33301 17 -10
s9.5 -11.167 12.5 -19.5s3.16699 -18.833 0.5 -31.5zM271 566.002l-36 -186c1.33301 -16 4.5 -26 9.5 -30s9.83301 -6.33301 14.5 -7h36c4.66699 0.666992 10.334 3 17.001 7s13.667 14 21 30l36 186c-1.33301 16 -4.5 26 -9.5 30s-9.83301 6.66699 -14.5 8h-36
c-4.66699 -0.666992 -10.334 -3 -17.001 -7s-13.667 -14.333 -21 -31zM859 251.002l-37 -188c-2 -12.667 -6 -23 -12 -31s-12.5 -14.333 -19.5 -19s-14 -8 -21 -10s-12.5 -3 -16.5 -3h-215c-4 0 -9 1 -15 3s-11.5 5.33301 -16.5 10s-9 11 -12 19s-3.5 18.333 -1.5 31l37 188
c2.66699 12.667 7 23.167 13 31.5s12.5 14.833 19.5 19.5s13.833 8 20.5 10s12 3 16 3h215c4 0 9 -1 15 -3s11.667 -5.33301 17 -10s9.5 -11.167 12.5 -19.5s3.16699 -18.833 0.5 -31.5zM646 250.002l-37.002 -186c1.33301 -16 4.5 -26 9.5 -30s9.5 -6.33301 13.5 -7h37
c4 0.666992 9.33301 3 16 7s13.667 14 21 30l37 186c-1.33301 16 -4.66602 26 -9.99902 30s-9.66602 6.66699 -12.999 8h-37c-4 -0.666992 -9.33301 -3 -16 -7s-13.667 -14.333 -21 -31zM1225 251.002l-37 -188c-2 -12.667 -6 -23 -12 -31s-12.5 -14.333 -19.5 -19
s-14 -8 -21 -10s-12.5 -3 -16.5 -3h-215c-4 0 -9 1 -15 3s-11.5 5.33301 -16.5 10s-9 11 -12 19s-3.5 18.333 -1.5 31l37 188c2.66699 12.667 7 23.167 13 31.5s12.5 14.833 19.5 19.5s13.833 8 20.5 10s12 3 16 3h215c4 0 9 -1 15 -3s11.667 -5.33301 17 -10
s9.5 -11.167 12.5 -19.5s3.16699 -18.833 0.5 -31.5zM1012 250.002l-37.002 -186c1.33301 -16 4.5 -26 9.5 -30s9.5 -6.33301 13.5 -7h37c4 0.666992 9.33301 3 16 7s13.667 14 21 30l37 186c-1.33301 16 -4.66602 26 -9.99902 30s-9.66602 6.66699 -12.999 8h-37
c-4 -0.666992 -9.33301 -3 -16 -7s-13.667 -14.333 -21 -31z" />
    <glyph glyph-name="FL2039h" unicode="&#x2039;" horiz-adv-x="229" 
d="M269 407l27 140l-163 -62l-43 -225l139 -61l27 140l-70 36z" />
    <glyph glyph-name="FL203Ah" unicode="&#x203a;" horiz-adv-x="229" 
d="M118 407l27 140l139 -62l-43 -225l-163 -61l27 140l84 36z" />
    <glyph glyph-name="FL20ACh" unicode="&#x20ac;" horiz-adv-x="820" 
d="M129 461l111.002 -0.00195312l8 42c4.66699 25.333 13 46.166 25 62.499s25.167 29.333 39.5 39s28.166 16.334 41.499 20.001s24 5.5 32 5.5h489l19 -3c8 -8 11.667 -14.333 11 -19c-2.66699 -10 -8.33398 -26.667 -17.001 -50l-28.5 -74l-30 -74
c-9.66699 -23.333 -16.834 -39.666 -21.501 -48.999l-9 6l-79 167c-4 6 -9.16699 13 -15.5 21s-13.5 15 -21.5 21h-128c-4 -0.666992 -8.83301 -2 -14.5 -4s-12 -5.5 -19 -10.5s-14.167 -12.333 -21.5 -22s-14.333 -22.5 -21 -38.5l-7 -40h156l-73 -60h-95l-10 -49h156
l-72 -60h-95l-32 -163c1.33301 -22 4.66602 -38.167 9.99902 -48.5s11.333 -17.166 18 -20.499h233l97 60l-23 -120h-478c-7.33301 -0 -17.166 1.83301 -29.499 5.5s-23.666 10.334 -33.999 20.001s-18.5 22.667 -24.5 39s-6.33301 37.166 -1 62.499l32 165h-111l11 60h111
l10 49h-111z" />
    <glyph glyph-name="FL00D7h" unicode="&#x2122;" horiz-adv-x="644" 
d="M156 280l8.99609 -7.99512l51 -240l9 -8l7.5 2.5l17.5 6c6.66699 2.33301 13.5 5 20.5 8s12.5 5.5 16.5 7.5c28 11.333 48.667 24.5 62 39.5s22.333 34.167 27 57.5c2 9.33301 3.33301 16.5 4 21.5s0.333984 9.66699 -0.999023 14s-3.66602 9 -6.99902 14
s-7.66602 12.167 -12.999 21.5c-4.66699 8 -12.334 20.167 -23.001 36.5l-37 55.5l-44.5 65.5l-44.5 65l-38 54.5l-25 35c-4 6.66699 -6 13 -6 19c0 3.33301 0.166992 6.66602 0.5 9.99902s0.833008 7 1.5 11c2 11.333 6.5 21.666 13.5 30.999s15.5 17.833 25.5 25.5
s21 14.667 33 21l36 18.5l450 208l43 16l-3 -12l-2 -12l-111 -368l-8 8l-85 216c-0.666992 1.33301 -1.66699 2.66602 -3 3.99902l-4 4h-5h-5c-32 -8 -57 -21.333 -75 -40s-29.667 -40 -35 -64c-1.33301 -7.33301 -2.66602 -15.333 -3.99902 -24s0.666992 -16.667 6 -24
l235 -344c4.66699 -6.66699 6.66699 -13.834 6 -21.501s-1.66699 -15.167 -3 -22.5c-4.66699 -22.667 -15.667 -41.167 -33 -55.5s-38.666 -26.5 -63.999 -36.5l-487 -192h-22c1.33301 3.33301 2.83301 8.66602 4.5 15.999s3.16699 12.666 4.5 15.999l12 40l18 61l21.5 71.5
l21.5 71.5l18.5 60.5c5.66699 17.667 10.167 30.834 13.5 39.501z" />
    <glyph glyph-name=".null" horiz-adv-x="0" 
 />
    <glyph glyph-name="nonmarkingreturn" horiz-adv-x="500" 
 />
    <glyph glyph-name="FLE005h" horiz-adv-x="716" 
d="M341 340l170 -0.00195312l-66 -340h244l-40 70l56 290c2 10.667 -1.66699 19.334 -11 26.001s-20.5 11.834 -33.5 15.501s-25.5 6 -37.5 7s-19.667 1.5 -23 1.5h-245z" />
    </font>
</defs>
</svg>
