<svg xmlns="http://www.w3.org/2000/svg">
<defs>
<font id="EternityNow-Regular" horiz-adv-x="1000" >
  <font-face 
    font-family="Eternity Now"
    font-weight="400"
    font-stretch="normal"
    units-per-em="1000"
    panose-1="0 0 0 0 0 0 0 0 0 0"
    ascent="977"
    descent="-23"
    x-height="844"
    cap-height="844"
    bbox="-38.6667 -24 939 858.667"
    underline-thickness="50"
    underline-position="-149"
    unicode-range="U+000D-203A"
  />
<missing-glyph horiz-adv-x="771" 
d="M374 318q-18 -32 -33 -58.5t-34 -61.5q-50 21 -82 66q-16 22 -26.5 50t-10.5 63q0 36 10.5 64t25.5 50q32 44 83 66v-127h67v211q-61 -3 -104 -25t-75 -54q-31 -31 -52 -77q-11 -23 -17 -49t-6 -57q0 -48 13 -83.5t32 -64.5q39 -58 103 -91q11 -5 22.5 -9.5t24.5 -7.5
q13 -4 26.5 -6.5t29.5 -2.5h2h1v5v199zM391 436q18 32 33 58t34 62q49 -22 82 -67q16 -22 26.5 -49.5t10.5 -63.5q0 -35 -10.5 -63.5t-25.5 -49.5q-16 -22 -36.5 -39t-46.5 -28v128h-67v-211q61 3 104 25t75 54t52 77q10 22 16.5 48.5t6.5 56.5q0 48 -12.5 84t-32.5 65
t-45.5 51.5t-57.5 38.5q-19 10 -47 18q-13 3 -27 5.5t-29 2.5q1 0 -0.5 0.5t-2.5 0.5v-5v-199zM386 23q-72 0 -136 26.5t-115 77.5t-77.5 115t-26.5 136t26.5 135.5t77.5 114.5t115 77.5t136 26.5t135.5 -26.5t114.5 -77.5t77.5 -114.5t26.5 -135.5t-26.5 -136t-77.5 -115
t-114.5 -77.5t-135.5 -26.5zM386 698q-66 0 -124.5 -25t-102 -68.5t-69 -102t-25.5 -124.5t25.5 -124.5t69 -102t102 -69t124.5 -25.5t124 25.5t101.5 69t69 102t25.5 124.5t-25.5 124.5t-69 102t-101.5 68.5t-124 25zM240 358q-3 -8 -9 -12q-7 -4 -13 -4t-14 5q-5 8 -5 15
q0 8 4 15q3 7 9 10q4 4 12 4q6 0 13 -4q5 -5 5 -11l-9 -1l-3 6q-1 1 -6 1t-7 -2q-4 -3 -6 -8q-2 -8 -2 -10q0 -6 3 -9q1 -3 6 -3q4 0 7 3q3 2 5 7zM276 364h-18l-5 -21h-10l10 47h10l-4 -18h18l4 18h10l-10 -47h-10zM301 343h-10l10 47h21q7 0 8 -1q2 -1 3 -2l2 -2
q2 -6 2 -7q0 -7 -4 -10q-2 -3 -11 -5l4 -4q2 -3 3.5 -7t3.5 -9h-10q-1 2 -2 5t-3 7q-2 2 -2.5 4t-2.5 3h-4h-4zM306 370h5h11l4 3q1 1 1 5q0 3 -2 3q-1 1 -6 1h-10zM338 343l10 47h9l-10 -47h-9zM367 359q0 -4 2 -6q1 -3 7 -3q5 0 7 2t2 4q0 3 -1 4q-1 0 -7 3l-8 4

<glyph glyph-name=".notdef" horiz-adv-x="771" 
d="M374 318q-18 -32 -33 -58.5t-34 -61.5q-50 21 -82 66q-16 22 -26.5 50t-10.5 63q0 36 10.5 64t25.5 50q32 44 83 66v-127h67v211q-61 -3 -104 -25t-75 -54q-31 -31 -52 -77q-11 -23 -17 -49t-6 -57q0 -48 13 -83.5t32 -64.5q39 -58 103 -91q11 -5 22.5 -9.5t24.5 -7.5
q13 -4 26.5 -6.5t29.5 -2.5h2h1v5v199zM391 436q18 32 33 58t34 62q49 -22 82 -67q16 -22 26.5 -49.5t10.5 -63.5q0 -35 -10.5 -63.5t-25.5 -49.5q-16 -22 -36.5 -39t-46.5 -28v128h-67v-211q61 3 104 25t75 54t52 77q10 22 16.5 48.5t6.5 56.5q0 48 -12.5 84t-32.5 65
t-45.5 51.5t-57.5 38.5q-19 10 -47 18q-13 3 -27 5.5t-29 2.5q1 0 -0.5 0.5t-2.5 0.5v-5v-199zM386 23q-72 0 -136 26.5t-115 77.5t-77.5 115t-26.5 136t26.5 135.5t77.5 114.5t115 77.5t136 26.5t135.5 -26.5t114.5 -77.5t77.5 -114.5t26.5 -135.5t-26.5 -136t-77.5 -115
t-114.5 -77.5t-135.5 -26.5zM386 698q-66 0 -124.5 -25t-102 -68.5t-69 -102t-25.5 -124.5t25.5 -124.5t69 -102t102 -69t124.5 -25.5t124 25.5t101.5 69t69 102t25.5 124.5t-25.5 124.5t-69 102t-101.5 68.5t-124 25zM240 358q-3 -8 -9 -12q-7 -4 -13 -4t-14 5q-5 8 -5 15
q0 8 4 15q3 7 9 10q4 4 12 4q6 0 13 -4q5 -5 5 -11l-9 -1l-3 6q-1 1 -6 1t-7 -2q-4 -3 -6 -8q-2 -8 -2 -10q0 -6 3 -9q1 -3 6 -3q4 0 7 3q3 2 5 7zM276 364h-18l-5 -21h-10l10 47h10l-4 -18h18l4 18h10l-10 -47h-10zM301 343h-10l10 47h21q7 0 8 -1q2 -1 3 -2l2 -2
q2 -6 2 -7q0 -7 -4 -10q-2 -3 -11 -5l4 -4q2 -3 3.5 -7t3.5 -9h-10q-1 2 -2 5t-3 7q-2 2 -2.5 4t-2.5 3h-4h-4zM306 370h5h11l4 3q1 1 1 5q0 3 -2 3q-1 1 -6 1h-10zM338 343l10 47h9l-10 -47h-9zM367 359q0 -4 2 -6q1 -3 7 -3q5 0 7 2t2 4q0 3 -1 4q-1 0 -7 3l-8 4
q-3 1 -4 4q-1 1 -1 6q0 6 4 10t12 4q9 0 13 -4q5 -5 5 -10l-9 -1q0 3 -3 5q-2 2 -6 2t-5 -1q-2 -2 -2 -4t1 -3t3 -1.5t4 -2.5l11 -5q3 -5 3 -9q0 -5 -5 -10t-14 -5q-2 0 -10 2q-5 3 -6 6q-2 2 -2 8zM442 343h-10l-9 47h10l6 -36l19 36h10zM462 343l10 47h9l-10 -47h-9z
M481 343l10 47h9l-8 -39h24l-2 -8h-33zM521 343l9 47h35l-1 -8h-26l-2 -10h24l-1 -8h-24l-3 -13h27l-2 -8h-36zM205 399l2 13h4l1 -1h2h1q0 -1 1 -1v-2v-2v-3l-2 -2q-1 -1 -2 -1q-1 -1 -3 -1h-4zM208 401h1q2 0 2 1h1q1 1 1 2q1 1 1 3q0 1 -1 1q0 1 -1 1q0 1 -1 1h-2z
M217 399l3 13h9l-1 -3h-6l-1 -2h6v-2h-6l-1 -4h7l-1 -2h-9zM229 403h2v-1q1 -1 2 -1q2 0 2 1q1 0 1 1l-1 1l-1 1q-2 0 -2 1q-1 0 -1 1l-1 1q0 1 0.5 1.5t0.5 1.5q1 0 1.5 0.5t1.5 0.5q2 0 2.5 -0.5t1.5 -0.5q1 -1 1 -3h-2l-1 1q0 1 -2 1q-1 0 -1 -1v-1q0 -1 2 -1l2 -2
q1 0 1 -2t-1 -3q-1 0 -1.5 -0.5t-2.5 -0.5q-1 0 -2 1t-2 1v2zM240 399l2 13h3l-3 -13h-2zM251 406h5l-1 -5q0 -1 -2 -1q-1 -1 -3 -1q-1 0 -1.5 0.5t-1.5 0.5q-2 2 -2 4q0 3 1 4q0 1 2 3q1 0 1.5 0.5t2.5 0.5q1 0 1.5 -0.5t1.5 -0.5q2 -2 2 -3h-2l-1 1q-1 1 -2 1q-1 -1 -2 -1
q-2 0 -2 -2v-3v-2q1 0 1 -0.5t1 -0.5h2l1 1l1 2h-3v2zM267 399h-2l-3 9l-2 -9h-2l2 13h2l4 -9l1 9h3zM270 399l2 13h9v-3h-7v-2h6v-2h-7v-4h7l-1 -2h-9zM281 399l3 13h3q1 0 1 -0.5t1 -0.5h1h1l1 -1v-2q1 -1 1 -2t-0.5 -1.5t-0.5 -1.5l-2 -2q-1 -1 -2 -1q-1 -1 -3 -1h-4z
M284 401h1q2 0 2 1h1l2 2v3v1l-1 1q-1 0 -1 0.5t-1 0.5h-1zM298 399l2 13h5l1 -1h2l1 -1v-1v-2q-1 -1 -2 -1l1 -1q1 -1 1 -2t-1 -2l-1 -1q-1 0 -1.5 -0.5t-1.5 -0.5h-6zM301 401h2q2 0 2 1h1v1v1q-1 1 -2 1h-3v-4zM302 407h2h2l1 1q0 1 -1 1h-2h-2v-2zM316 399h-2l1 5l-4 8
h3l2 -4v-2l1 1l1 2l2 3h3l-6 -8zM391 398h-2l-1 9l-4 -9h-3v13h2v-9l5 9h2l1 -9l4 9h2zM407 398h-2l-1 9l-4 -9h-3v13h2v-9l5 9h2l1 -9l4 9h2zM423 398h-2l-1 9l-4 -9h-3v13h2v-9l5 9h2l1 -9l4 9h2zM427 401h2v-3h-3zM442 402q0 -1 -2 -3q-1 0 -1.5 -0.5t-1.5 -0.5
q-2 0 -4 2q-1 0 -1 3t1 4q0 1 2 3q1 0 1.5 0.5t1.5 0.5t1 -0.5t1 -0.5h1q2 -2 2 -3h-3v1q-1 0 -1 0.5t-1 0.5q-1 -1 -2 -1q-1 -1 -1 -2q-1 -1 -1 -3q0 -1 0.5 -1t0.5 -1q1 -1 2 -1q1 1 2 1q0 1 1 2zM452 404h-5l-1 -6h-3l3 13h2l-1 -5h5l1 5h2l-2 -13h-3zM458 398h-3l3 13h5
q1 0 1.5 -0.5t1.5 -0.5l1 -1v-2q0 -2 -1 -2q0 -1 -2 -1v-2q2 -2 2 -4h-2q-1 0 -1 1t-0.5 1t-0.5 2q0 1 -1 1h-1h-1zM459 405h2h2l1 1l1 1q0 1 -1 1q0 1 -1 1h-3zM468 398l2 13h3l-3 -13h-2zM473 402h2v-1q1 0 1 -0.5t1 -0.5q2 0 2 1q1 0 1 1l-1 1l-1 1q-2 0 -2 1q-1 0 -1 1
l-1 1q0 1 0.5 1.5t0.5 1.5q1 0 1.5 0.5t1.5 0.5q2 0 2.5 -0.5t1.5 -0.5q1 -1 1 -3h-2l-1 1q0 1 -2 1q-1 0 -1 -1v-1q0 -1 2 -1l2 -2q1 0 1 -2t-1 -3q-1 0 -1.5 -0.5t-2.5 -0.5q-1 0 -2 1t-2 1v2zM490 398h-3l-2 13h2l2 -10l5 10h2zM495 398l2 13h3l-3 -13h-2zM500 398l2 13
h3l-2 -11h6l-1 -2h-8zM510 398l2 13h9v-2h-6l-1 -3h6v-2h-6l-1 -4h7l-1 -2h-9zM522 401h2v-3h-3zM537 402q0 -1 -2 -3q-1 0 -1.5 -0.5t-1.5 -0.5q-2 0 -4 2q-1 0 -1 3t1 4q0 1 2 3q1 0 1.5 0.5t1.5 0.5t1 -0.5t1 -0.5h1q2 -2 2 -3h-3v1q-1 0 -1 0.5t-1 0.5t-1 -0.5t-1 -0.5
q-1 -1 -1 -2q-1 -1 -1 -3q0 -1 1 -2t2 -1l1 1l2 2zM539 403v2l2 3q0 2 2 2q1 1 3 1q1 0 3 -2t2 -3q0 -2 -0.5 -2.5t-0.5 -1.5l-3 -3q-1 0 -1.5 -0.5t-1.5 -0.5q-2 0 -3 1l-2 2v2zM541 403q0 -1 0.5 -1t0.5 -1q1 0 1 -0.5t1 -0.5t1 0.5t1 0.5l2 2v3q0 1 -1 2t-2 1q-2 0 -2 -2
q-2 -2 -2 -4zM558 398h-2l-1 11l-1 -11h-3l3 13h3l1 -9l4 9h3l-2 -13h-2l2 10z" />
    <glyph glyph-name=".null" horiz-adv-x="0" 
 />
    <glyph glyph-name="nonmarkingreturn" unicode="&#xd;" horiz-adv-x="250" 
 />
    <glyph glyph-name="NULL" horiz-adv-x="0" 
 />
    <glyph glyph-name="NULL" horiz-adv-x="0" 
 />
    <glyph glyph-name="space" unicode=" " horiz-adv-x="250" 
 />
    <glyph glyph-name="exclam" unicode="!" horiz-adv-x="609" 
d="M483 0h-99v106h99v-106zM386 291v454h-36v-452q9 -1 18 -1.5t18 -0.5zM480 820v-75v-454v-75v-26h-353v101h124v453q-29 2 -61 1t-63 0v99h353v-24zM359 0h-99v106h99v-106z" />
    <glyph glyph-name="quotedbl" unicode="&#x22;" 
 />
    <glyph glyph-name="numbersign" unicode="#" 
 />
    <glyph glyph-name="dollar" unicode="$" 
 />
    <glyph glyph-name="percent" unicode="%" 
 />
    <glyph glyph-name="ampersand" unicode="&#x26;" 
 />
    <glyph glyph-name="quotesingle" unicode="'" 
 />
    <glyph glyph-name="parenleft" unicode="(" 
 />
    <glyph glyph-name="parenright" unicode=")" 
 />
    <glyph glyph-name="asterisk" unicode="*" 
 />
    <glyph glyph-name="plus" unicode="+" 
 />
    <glyph glyph-name="comma" unicode="," horiz-adv-x="215" 
d="M125 -24h-99l64 177h99z" />
    <glyph glyph-name="hyphen" unicode="-" 
 />
    <glyph glyph-name="period" unicode="." horiz-adv-x="237" 
d="M168 1h-99v106h99v-106z" />
    <glyph glyph-name="zero" unicode="0" horiz-adv-x="771" 
d="M374 318q-18 -32 -33 -58.5t-34 -61.5q-50 21 -82 66q-16 22 -26.5 50t-10.5 63q0 36 10.5 64t25.5 50q32 44 83 66v-127h67v211q-61 -3 -104 -25t-75 -54q-31 -31 -52 -77q-11 -23 -17 -49t-6 -57q0 -48 13 -83.5t32 -64.5q39 -58 103 -91q11 -5 22.5 -9.5t24.5 -7.5
q13 -4 26.5 -6.5t29.5 -2.5h2h1v5v199zM391 436q18 32 33 58t34 62q49 -22 82 -67q16 -22 26.5 -49.5t10.5 -63.5q0 -35 -10.5 -63.5t-25.5 -49.5q-16 -22 -36.5 -39t-46.5 -28v128h-67v-211q61 3 104 25t75 54t52 77q10 22 16.5 48.5t6.5 56.5q0 48 -12.5 84t-32.5 65
t-45.5 51.5t-57.5 38.5q-19 10 -47 18q-13 3 -27 5.5t-29 2.5q1 0 -0.5 0.5t-2.5 0.5v-5v-199zM386 23q-72 0 -136 26.5t-115 77.5t-77.5 115t-26.5 136t26.5 135.5t77.5 114.5t115 77.5t136 26.5t135.5 -26.5t114.5 -77.5t77.5 -114.5t26.5 -135.5t-26.5 -136t-77.5 -115
t-114.5 -77.5t-135.5 -26.5zM386 698q-66 0 -124.5 -25t-102 -68.5t-69 -102t-25.5 -124.5t25.5 -124.5t69 -102t102 -69t124.5 -25.5t124 25.5t101.5 69t69 102t25.5 124.5t-25.5 124.5t-69 102t-101.5 68.5t-124 25zM240 358q-3 -8 -9 -12q-7 -4 -13 -4t-14 5q-5 8 -5 15
q0 8 4 15q3 7 9 10q4 4 12 4q6 0 13 -4q5 -5 5 -11l-9 -1l-3 6q-1 1 -6 1t-7 -2q-4 -3 -6 -8q-2 -8 -2 -10q0 -6 3 -9q1 -3 6 -3q4 0 7 3q3 2 5 7zM276 364h-18l-5 -21h-10l10 47h10l-4 -18h18l4 18h10l-10 -47h-10zM301 343h-10l10 47h21q7 0 8 -1q2 -1 3 -2l2 -2
q2 -6 2 -7q0 -7 -4 -10q-2 -3 -11 -5l4 -4q2 -3 3.5 -7t3.5 -9h-10q-1 2 -2 5t-3 7q-2 2 -2.5 4t-2.5 3h-4h-4zM306 370h5h11l4 3q1 1 1 5q0 3 -2 3q-1 1 -6 1h-10zM338 343l10 47h9l-10 -47h-9zM367 359q0 -4 2 -6q1 -3 7 -3q5 0 7 2t2 4q0 3 -1 4q-1 0 -7 3l-8 4
q-3 1 -4 4q-1 1 -1 6q0 6 4 10t12 4q9 0 13 -4q5 -5 5 -10l-9 -1q0 3 -3 5q-2 2 -6 2t-5 -1q-2 -2 -2 -4t1 -3t3 -1.5t4 -2.5l11 -5q3 -5 3 -9q0 -5 -5 -10t-14 -5q-2 0 -10 2q-5 3 -6 6q-2 2 -2 8zM442 343h-10l-9 47h10l6 -36l19 36h10zM462 343l10 47h9l-10 -47h-9z
M481 343l10 47h9l-8 -39h24l-2 -8h-33zM521 343l9 47h35l-1 -8h-26l-2 -10h24l-1 -8h-24l-3 -13h27l-2 -8h-36zM205 399l2 13h4l1 -1h2h1q0 -1 1 -1v-2v-2v-3l-2 -2q-1 -1 -2 -1q-1 -1 -3 -1h-4zM208 401h1q2 0 2 1h1q1 1 1 2q1 1 1 3q0 1 -1 1q0 1 -1 1q0 1 -1 1h-2z
M217 399l3 13h9l-1 -3h-6l-1 -2h6v-2h-6l-1 -4h7l-1 -2h-9zM229 403h2v-1q1 -1 2 -1q2 0 2 1q1 0 1 1l-1 1l-1 1q-2 0 -2 1q-1 0 -1 1l-1 1q0 1 0.5 1.5t0.5 1.5q1 0 1.5 0.5t1.5 0.5q2 0 2.5 -0.5t1.5 -0.5q1 -1 1 -3h-2l-1 1q0 1 -2 1q-1 0 -1 -1v-1q0 -1 2 -1l2 -2
q1 0 1 -2t-1 -3q-1 0 -1.5 -0.5t-2.5 -0.5q-1 0 -2 1t-2 1v2zM240 399l2 13h3l-3 -13h-2zM251 406h5l-1 -5q0 -1 -2 -1q-1 -1 -3 -1q-1 0 -1.5 0.5t-1.5 0.5q-2 2 -2 4q0 3 1 4q0 1 2 3q1 0 1.5 0.5t2.5 0.5q1 0 1.5 -0.5t1.5 -0.5q2 -2 2 -3h-2l-1 1q-1 1 -2 1q-1 -1 -2 -1
q-2 0 -2 -2v-3v-2q1 0 1 -0.5t1 -0.5h2l1 1l1 2h-3v2zM267 399h-2l-3 9l-2 -9h-2l2 13h2l4 -9l1 9h3zM270 399l2 13h9v-3h-7v-2h6v-2h-7v-4h7l-1 -2h-9zM281 399l3 13h3q1 0 1 -0.5t1 -0.5h1h1l1 -1v-2q1 -1 1 -2t-0.5 -1.5t-0.5 -1.5l-2 -2q-1 -1 -2 -1q-1 -1 -3 -1h-4z
M284 401h1q2 0 2 1h1l2 2v3v1l-1 1q-1 0 -1 0.5t-1 0.5h-1zM298 399l2 13h5l1 -1h2l1 -1v-1v-2q-1 -1 -2 -1l1 -1q1 -1 1 -2t-1 -2l-1 -1q-1 0 -1.5 -0.5t-1.5 -0.5h-6zM301 401h2q2 0 2 1h1v1v1q-1 1 -2 1h-3v-4zM302 407h2h2l1 1q0 1 -1 1h-2h-2v-2zM316 399h-2l1 5l-4 8
h3l2 -4v-2l1 1l1 2l2 3h3l-6 -8zM391 398h-2l-1 9l-4 -9h-3v13h2v-9l5 9h2l1 -9l4 9h2zM407 398h-2l-1 9l-4 -9h-3v13h2v-9l5 9h2l1 -9l4 9h2zM423 398h-2l-1 9l-4 -9h-3v13h2v-9l5 9h2l1 -9l4 9h2zM427 401h2v-3h-3zM442 402q0 -1 -2 -3q-1 0 -1.5 -0.5t-1.5 -0.5
q-2 0 -4 2q-1 0 -1 3t1 4q0 1 2 3q1 0 1.5 0.5t1.5 0.5t1 -0.5t1 -0.5h1q2 -2 2 -3h-3v1q-1 0 -1 0.5t-1 0.5q-1 -1 -2 -1q-1 -1 -1 -2q-1 -1 -1 -3q0 -1 0.5 -1t0.5 -1q1 -1 2 -1q1 1 2 1q0 1 1 2zM452 404h-5l-1 -6h-3l3 13h2l-1 -5h5l1 5h2l-2 -13h-3zM458 398h-3l3 13h5
q1 0 1.5 -0.5t1.5 -0.5l1 -1v-2q0 -2 -1 -2q0 -1 -2 -1v-2q2 -2 2 -4h-2q-1 0 -1 1t-0.5 1t-0.5 2q0 1 -1 1h-1h-1zM459 405h2h2l1 1l1 1q0 1 -1 1q0 1 -1 1h-3zM468 398l2 13h3l-3 -13h-2zM473 402h2v-1q1 0 1 -0.5t1 -0.5q2 0 2 1q1 0 1 1l-1 1l-1 1q-2 0 -2 1q-1 0 -1 1
l-1 1q0 1 0.5 1.5t0.5 1.5q1 0 1.5 0.5t1.5 0.5q2 0 2.5 -0.5t1.5 -0.5q1 -1 1 -3h-2l-1 1q0 1 -2 1q-1 0 -1 -1v-1q0 -1 2 -1l2 -2q1 0 1 -2t-1 -3q-1 0 -1.5 -0.5t-2.5 -0.5q-1 0 -2 1t-2 1v2zM490 398h-3l-2 13h2l2 -10l5 10h2zM495 398l2 13h3l-3 -13h-2zM500 398l2 13
h3l-2 -11h6l-1 -2h-8zM510 398l2 13h9v-2h-6l-1 -3h6v-2h-6l-1 -4h7l-1 -2h-9zM522 401h2v-3h-3zM537 402q0 -1 -2 -3q-1 0 -1.5 -0.5t-1.5 -0.5q-2 0 -4 2q-1 0 -1 3t1 4q0 1 2 3q1 0 1.5 0.5t1.5 0.5t1 -0.5t1 -0.5h1q2 -2 2 -3h-3v1q-1 0 -1 0.5t-1 0.5t-1 -0.5t-1 -0.5
q-1 -1 -1 -2q-1 -1 -1 -3q0 -1 1 -2t2 -1l1 1l2 2zM539 403v2l2 3q0 2 2 2q1 1 3 1q1 0 3 -2t2 -3q0 -2 -0.5 -2.5t-0.5 -1.5l-3 -3q-1 0 -1.5 -0.5t-1.5 -0.5q-2 0 -3 1l-2 2v2zM541 403q0 -1 0.5 -1t0.5 -1q1 0 1 -0.5t1 -0.5t1 0.5t1 0.5l2 2v3q0 1 -1 2t-2 1q-2 0 -2 -2
q-2 -2 -2 -4zM558 398h-2l-1 11l-1 -11h-3l3 13h3l1 -9l4 9h3l-2 -13h-2l2 10z" />
    <glyph glyph-name="one" unicode="1" horiz-adv-x="771" 
d="M374 318q-18 -32 -33 -58.5t-34 -61.5q-50 21 -82 66q-16 22 -26.5 50t-10.5 63q0 36 10.5 64t25.5 50q32 44 83 66v-127h67v211q-61 -3 -104 -25t-75 -54q-31 -31 -52 -77q-11 -23 -17 -49t-6 -57q0 -48 13 -83.5t32 -64.5q39 -58 103 -91q11 -5 22.5 -9.5t24.5 -7.5
q13 -4 26.5 -6.5t29.5 -2.5h2h1v5v199zM391 436q18 32 33 58t34 62q49 -22 82 -67q16 -22 26.5 -49.5t10.5 -63.5q0 -35 -10.5 -63.5t-25.5 -49.5q-16 -22 -36.5 -39t-46.5 -28v128h-67v-211q61 3 104 25t75 54t52 77q10 22 16.5 48.5t6.5 56.5q0 48 -12.5 84t-32.5 65
t-45.5 51.5t-57.5 38.5q-19 10 -47 18q-13 3 -27 5.5t-29 2.5q1 0 -0.5 0.5t-2.5 0.5v-5v-199zM386 23q-72 0 -136 26.5t-115 77.5t-77.5 115t-26.5 136t26.5 135.5t77.5 114.5t115 77.5t136 26.5t135.5 -26.5t114.5 -77.5t77.5 -114.5t26.5 -135.5t-26.5 -136t-77.5 -115
t-114.5 -77.5t-135.5 -26.5zM386 698q-66 0 -124.5 -25t-102 -68.5t-69 -102t-25.5 -124.5t25.5 -124.5t69 -102t102 -69t124.5 -25.5t124 25.5t101.5 69t69 102t25.5 124.5t-25.5 124.5t-69 102t-101.5 68.5t-124 25zM240 358q-3 -8 -9 -12q-7 -4 -13 -4t-14 5q-5 8 -5 15
q0 8 4 15q3 7 9 10q4 4 12 4q6 0 13 -4q5 -5 5 -11l-9 -1l-3 6q-1 1 -6 1t-7 -2q-4 -3 -6 -8q-2 -8 -2 -10q0 -6 3 -9q1 -3 6 -3q4 0 7 3q3 2 5 7zM276 364h-18l-5 -21h-10l10 47h10l-4 -18h18l4 18h10l-10 -47h-10zM301 343h-10l10 47h21q7 0 8 -1q2 -1 3 -2l2 -2
q2 -6 2 -7q0 -7 -4 -10q-2 -3 -11 -5l4 -4q2 -3 3.5 -7t3.5 -9h-10q-1 2 -2 5t-3 7q-2 2 -2.5 4t-2.5 3h-4h-4zM306 370h5h11l4 3q1 1 1 5q0 3 -2 3q-1 1 -6 1h-10zM338 343l10 47h9l-10 -47h-9zM367 359q0 -4 2 -6q1 -3 7 -3q5 0 7 2t2 4q0 3 -1 4q-1 0 -7 3l-8 4
q-3 1 -4 4q-1 1 -1 6q0 6 4 10t12 4q9 0 13 -4q5 -5 5 -10l-9 -1q0 3 -3 5q-2 2 -6 2t-5 -1q-2 -2 -2 -4t1 -3t3 -1.5t4 -2.5l11 -5q3 -5 3 -9q0 -5 -5 -10t-14 -5q-2 0 -10 2q-5 3 -6 6q-2 2 -2 8zM442 343h-10l-9 47h10l6 -36l19 36h10zM462 343l10 47h9l-10 -47h-9z
M481 343l10 47h9l-8 -39h24l-2 -8h-33zM521 343l9 47h35l-1 -8h-26l-2 -10h24l-1 -8h-24l-3 -13h27l-2 -8h-36zM205 399l2 13h4l1 -1h2h1q0 -1 1 -1v-2v-2v-3l-2 -2q-1 -1 -2 -1q-1 -1 -3 -1h-4zM208 401h1q2 0 2 1h1q1 1 1 2q1 1 1 3q0 1 -1 1q0 1 -1 1q0 1 -1 1h-2z
M217 399l3 13h9l-1 -3h-6l-1 -2h6v-2h-6l-1 -4h7l-1 -2h-9zM229 403h2v-1q1 -1 2 -1q2 0 2 1q1 0 1 1l-1 1l-1 1q-2 0 -2 1q-1 0 -1 1l-1 1q0 1 0.5 1.5t0.5 1.5q1 0 1.5 0.5t1.5 0.5q2 0 2.5 -0.5t1.5 -0.5q1 -1 1 -3h-2l-1 1q0 1 -2 1q-1 0 -1 -1v-1q0 -1 2 -1l2 -2
q1 0 1 -2t-1 -3q-1 0 -1.5 -0.5t-2.5 -0.5q-1 0 -2 1t-2 1v2zM240 399l2 13h3l-3 -13h-2zM251 406h5l-1 -5q0 -1 -2 -1q-1 -1 -3 -1q-1 0 -1.5 0.5t-1.5 0.5q-2 2 -2 4q0 3 1 4q0 1 2 3q1 0 1.5 0.5t2.5 0.5q1 0 1.5 -0.5t1.5 -0.5q2 -2 2 -3h-2l-1 1q-1 1 -2 1q-1 -1 -2 -1
q-2 0 -2 -2v-3v-2q1 0 1 -0.5t1 -0.5h2l1 1l1 2h-3v2zM267 399h-2l-3 9l-2 -9h-2l2 13h2l4 -9l1 9h3zM270 399l2 13h9v-3h-7v-2h6v-2h-7v-4h7l-1 -2h-9zM281 399l3 13h3q1 0 1 -0.5t1 -0.5h1h1l1 -1v-2q1 -1 1 -2t-0.5 -1.5t-0.5 -1.5l-2 -2q-1 -1 -2 -1q-1 -1 -3 -1h-4z
M284 401h1q2 0 2 1h1l2 2v3v1l-1 1q-1 0 -1 0.5t-1 0.5h-1zM298 399l2 13h5l1 -1h2l1 -1v-1v-2q-1 -1 -2 -1l1 -1q1 -1 1 -2t-1 -2l-1 -1q-1 0 -1.5 -0.5t-1.5 -0.5h-6zM301 401h2q2 0 2 1h1v1v1q-1 1 -2 1h-3v-4zM302 407h2h2l1 1q0 1 -1 1h-2h-2v-2zM316 399h-2l1 5l-4 8
h3l2 -4v-2l1 1l1 2l2 3h3l-6 -8zM391 398h-2l-1 9l-4 -9h-3v13h2v-9l5 9h2l1 -9l4 9h2zM407 398h-2l-1 9l-4 -9h-3v13h2v-9l5 9h2l1 -9l4 9h2zM423 398h-2l-1 9l-4 -9h-3v13h2v-9l5 9h2l1 -9l4 9h2zM427 401h2v-3h-3zM442 402q0 -1 -2 -3q-1 0 -1.5 -0.5t-1.5 -0.5
q-2 0 -4 2q-1 0 -1 3t1 4q0 1 2 3q1 0 1.5 0.5t1.5 0.5t1 -0.5t1 -0.5h1q2 -2 2 -3h-3v1q-1 0 -1 0.5t-1 0.5q-1 -1 -2 -1q-1 -1 -1 -2q-1 -1 -1 -3q0 -1 0.5 -1t0.5 -1q1 -1 2 -1q1 1 2 1q0 1 1 2zM452 404h-5l-1 -6h-3l3 13h2l-1 -5h5l1 5h2l-2 -13h-3zM458 398h-3l3 13h5
q1 0 1.5 -0.5t1.5 -0.5l1 -1v-2q0 -2 -1 -2q0 -1 -2 -1v-2q2 -2 2 -4h-2q-1 0 -1 1t-0.5 1t-0.5 2q0 1 -1 1h-1h-1zM459 405h2h2l1 1l1 1q0 1 -1 1q0 1 -1 1h-3zM468 398l2 13h3l-3 -13h-2zM473 402h2v-1q1 0 1 -0.5t1 -0.5q2 0 2 1q1 0 1 1l-1 1l-1 1q-2 0 -2 1q-1 0 -1 1
l-1 1q0 1 0.5 1.5t0.5 1.5q1 0 1.5 0.5t1.5 0.5q2 0 2.5 -0.5t1.5 -0.5q1 -1 1 -3h-2l-1 1q0 1 -2 1q-1 0 -1 -1v-1q0 -1 2 -1l2 -2q1 0 1 -2t-1 -3q-1 0 -1.5 -0.5t-2.5 -0.5q-1 0 -2 1t-2 1v2zM490 398h-3l-2 13h2l2 -10l5 10h2zM495 398l2 13h3l-3 -13h-2zM500 398l2 13
h3l-2 -11h6l-1 -2h-8zM510 398l2 13h9v-2h-6l-1 -3h6v-2h-6l-1 -4h7l-1 -2h-9zM522 401h2v-3h-3zM537 402q0 -1 -2 -3q-1 0 -1.5 -0.5t-1.5 -0.5q-2 0 -4 2q-1 0 -1 3t1 4q0 1 2 3q1 0 1.5 0.5t1.5 0.5t1 -0.5t1 -0.5h1q2 -2 2 -3h-3v1q-1 0 -1 0.5t-1 0.5t-1 -0.5t-1 -0.5
q-1 -1 -1 -2q-1 -1 -1 -3q0 -1 1 -2t2 -1l1 1l2 2zM539 403v2l2 3q0 2 2 2q1 1 3 1q1 0 3 -2t2 -3q0 -2 -0.5 -2.5t-0.5 -1.5l-3 -3q-1 0 -1.5 -0.5t-1.5 -0.5q-2 0 -3 1l-2 2v2zM541 403q0 -1 0.5 -1t0.5 -1q1 0 1 -0.5t1 -0.5t1 0.5t1 0.5l2 2v3q0 1 -1 2t-2 1q-2 0 -2 -2
q-2 -2 -2 -4zM558 398h-2l-1 11l-1 -11h-3l3 13h3l1 -9l4 9h3l-2 -13h-2l2 10z" />
    <glyph glyph-name="two" unicode="2" horiz-adv-x="771" 
d="M374 318q-18 -32 -33 -58.5t-34 -61.5q-50 21 -82 66q-16 22 -26.5 50t-10.5 63q0 36 10.5 64t25.5 50q32 44 83 66v-127h67v211q-61 -3 -104 -25t-75 -54q-31 -31 -52 -77q-11 -23 -17 -49t-6 -57q0 -48 13 -83.5t32 -64.5q39 -58 103 -91q11 -5 22.5 -9.5t24.5 -7.5
q13 -4 26.5 -6.5t29.5 -2.5h2h1v5v199zM391 436q18 32 33 58t34 62q49 -22 82 -67q16 -22 26.5 -49.5t10.5 -63.5q0 -35 -10.5 -63.5t-25.5 -49.5q-16 -22 -36.5 -39t-46.5 -28v128h-67v-211q61 3 104 25t75 54t52 77q10 22 16.5 48.5t6.5 56.5q0 48 -12.5 84t-32.5 65
t-45.5 51.5t-57.5 38.5q-19 10 -47 18q-13 3 -27 5.5t-29 2.5q1 0 -0.5 0.5t-2.5 0.5v-5v-199zM386 23q-72 0 -136 26.5t-115 77.5t-77.5 115t-26.5 136t26.5 135.5t77.5 114.5t115 77.5t136 26.5t135.5 -26.5t114.5 -77.5t77.5 -114.5t26.5 -135.5t-26.5 -136t-77.5 -115
t-114.5 -77.5t-135.5 -26.5zM386 698q-66 0 -124.5 -25t-102 -68.5t-69 -102t-25.5 -124.5t25.5 -124.5t69 -102t102 -69t124.5 -25.5t124 25.5t101.5 69t69 102t25.5 124.5t-25.5 124.5t-69 102t-101.5 68.5t-124 25zM240 358q-3 -8 -9 -12q-7 -4 -13 -4t-14 5q-5 8 -5 15
q0 8 4 15q3 7 9 10q4 4 12 4q6 0 13 -4q5 -5 5 -11l-9 -1l-3 6q-1 1 -6 1t-7 -2q-4 -3 -6 -8q-2 -8 -2 -10q0 -6 3 -9q1 -3 6 -3q4 0 7 3q3 2 5 7zM276 364h-18l-5 -21h-10l10 47h10l-4 -18h18l4 18h10l-10 -47h-10zM301 343h-10l10 47h21q7 0 8 -1q2 -1 3 -2l2 -2
q2 -6 2 -7q0 -7 -4 -10q-2 -3 -11 -5l4 -4q2 -3 3.5 -7t3.5 -9h-10q-1 2 -2 5t-3 7q-2 2 -2.5 4t-2.5 3h-4h-4zM306 370h5h11l4 3q1 1 1 5q0 3 -2 3q-1 1 -6 1h-10zM338 343l10 47h9l-10 -47h-9zM367 359q0 -4 2 -6q1 -3 7 -3q5 0 7 2t2 4q0 3 -1 4q-1 0 -7 3l-8 4
q-3 1 -4 4q-1 1 -1 6q0 6 4 10t12 4q9 0 13 -4q5 -5 5 -10l-9 -1q0 3 -3 5q-2 2 -6 2t-5 -1q-2 -2 -2 -4t1 -3t3 -1.5t4 -2.5l11 -5q3 -5 3 -9q0 -5 -5 -10t-14 -5q-2 0 -10 2q-5 3 -6 6q-2 2 -2 8zM442 343h-10l-9 47h10l6 -36l19 36h10zM462 343l10 47h9l-10 -47h-9z
M481 343l10 47h9l-8 -39h24l-2 -8h-33zM521 343l9 47h35l-1 -8h-26l-2 -10h24l-1 -8h-24l-3 -13h27l-2 -8h-36zM205 399l2 13h4l1 -1h2h1q0 -1 1 -1v-2v-2v-3l-2 -2q-1 -1 -2 -1q-1 -1 -3 -1h-4zM208 401h1q2 0 2 1h1q1 1 1 2q1 1 1 3q0 1 -1 1q0 1 -1 1q0 1 -1 1h-2z
M217 399l3 13h9l-1 -3h-6l-1 -2h6v-2h-6l-1 -4h7l-1 -2h-9zM229 403h2v-1q1 -1 2 -1q2 0 2 1q1 0 1 1l-1 1l-1 1q-2 0 -2 1q-1 0 -1 1l-1 1q0 1 0.5 1.5t0.5 1.5q1 0 1.5 0.5t1.5 0.5q2 0 2.5 -0.5t1.5 -0.5q1 -1 1 -3h-2l-1 1q0 1 -2 1q-1 0 -1 -1v-1q0 -1 2 -1l2 -2
q1 0 1 -2t-1 -3q-1 0 -1.5 -0.5t-2.5 -0.5q-1 0 -2 1t-2 1v2zM240 399l2 13h3l-3 -13h-2zM251 406h5l-1 -5q0 -1 -2 -1q-1 -1 -3 -1q-1 0 -1.5 0.5t-1.5 0.5q-2 2 -2 4q0 3 1 4q0 1 2 3q1 0 1.5 0.5t2.5 0.5q1 0 1.5 -0.5t1.5 -0.5q2 -2 2 -3h-2l-1 1q-1 1 -2 1q-1 -1 -2 -1
q-2 0 -2 -2v-3v-2q1 0 1 -0.5t1 -0.5h2l1 1l1 2h-3v2zM267 399h-2l-3 9l-2 -9h-2l2 13h2l4 -9l1 9h3zM270 399l2 13h9v-3h-7v-2h6v-2h-7v-4h7l-1 -2h-9zM281 399l3 13h3q1 0 1 -0.5t1 -0.5h1h1l1 -1v-2q1 -1 1 -2t-0.5 -1.5t-0.5 -1.5l-2 -2q-1 -1 -2 -1q-1 -1 -3 -1h-4z
M284 401h1q2 0 2 1h1l2 2v3v1l-1 1q-1 0 -1 0.5t-1 0.5h-1zM298 399l2 13h5l1 -1h2l1 -1v-1v-2q-1 -1 -2 -1l1 -1q1 -1 1 -2t-1 -2l-1 -1q-1 0 -1.5 -0.5t-1.5 -0.5h-6zM301 401h2q2 0 2 1h1v1v1q-1 1 -2 1h-3v-4zM302 407h2h2l1 1q0 1 -1 1h-2h-2v-2zM316 399h-2l1 5l-4 8
h3l2 -4v-2l1 1l1 2l2 3h3l-6 -8zM391 398h-2l-1 9l-4 -9h-3v13h2v-9l5 9h2l1 -9l4 9h2zM407 398h-2l-1 9l-4 -9h-3v13h2v-9l5 9h2l1 -9l4 9h2zM423 398h-2l-1 9l-4 -9h-3v13h2v-9l5 9h2l1 -9l4 9h2zM427 401h2v-3h-3zM442 402q0 -1 -2 -3q-1 0 -1.5 -0.5t-1.5 -0.5
q-2 0 -4 2q-1 0 -1 3t1 4q0 1 2 3q1 0 1.5 0.5t1.5 0.5t1 -0.5t1 -0.5h1q2 -2 2 -3h-3v1q-1 0 -1 0.5t-1 0.5q-1 -1 -2 -1q-1 -1 -1 -2q-1 -1 -1 -3q0 -1 0.5 -1t0.5 -1q1 -1 2 -1q1 1 2 1q0 1 1 2zM452 404h-5l-1 -6h-3l3 13h2l-1 -5h5l1 5h2l-2 -13h-3zM458 398h-3l3 13h5
q1 0 1.5 -0.5t1.5 -0.5l1 -1v-2q0 -2 -1 -2q0 -1 -2 -1v-2q2 -2 2 -4h-2q-1 0 -1 1t-0.5 1t-0.5 2q0 1 -1 1h-1h-1zM459 405h2h2l1 1l1 1q0 1 -1 1q0 1 -1 1h-3zM468 398l2 13h3l-3 -13h-2zM473 402h2v-1q1 0 1 -0.5t1 -0.5q2 0 2 1q1 0 1 1l-1 1l-1 1q-2 0 -2 1q-1 0 -1 1
l-1 1q0 1 0.5 1.5t0.5 1.5q1 0 1.5 0.5t1.5 0.5q2 0 2.5 -0.5t1.5 -0.5q1 -1 1 -3h-2l-1 1q0 1 -2 1q-1 0 -1 -1v-1q0 -1 2 -1l2 -2q1 0 1 -2t-1 -3q-1 0 -1.5 -0.5t-2.5 -0.5q-1 0 -2 1t-2 1v2zM490 398h-3l-2 13h2l2 -10l5 10h2zM495 398l2 13h3l-3 -13h-2zM500 398l2 13
h3l-2 -11h6l-1 -2h-8zM510 398l2 13h9v-2h-6l-1 -3h6v-2h-6l-1 -4h7l-1 -2h-9zM522 401h2v-3h-3zM537 402q0 -1 -2 -3q-1 0 -1.5 -0.5t-1.5 -0.5q-2 0 -4 2q-1 0 -1 3t1 4q0 1 2 3q1 0 1.5 0.5t1.5 0.5t1 -0.5t1 -0.5h1q2 -2 2 -3h-3v1q-1 0 -1 0.5t-1 0.5t-1 -0.5t-1 -0.5
q-1 -1 -1 -2q-1 -1 -1 -3q0 -1 1 -2t2 -1l1 1l2 2zM539 403v2l2 3q0 2 2 2q1 1 3 1q1 0 3 -2t2 -3q0 -2 -0.5 -2.5t-0.5 -1.5l-3 -3q-1 0 -1.5 -0.5t-1.5 -0.5q-2 0 -3 1l-2 2v2zM541 403q0 -1 0.5 -1t0.5 -1q1 0 1 -0.5t1 -0.5t1 0.5t1 0.5l2 2v3q0 1 -1 2t-2 1q-2 0 -2 -2
q-2 -2 -2 -4zM558 398h-2l-1 11l-1 -11h-3l3 13h3l1 -9l4 9h3l-2 -13h-2l2 10z" />
    <glyph glyph-name="three" unicode="3" horiz-adv-x="771" 
d="M374 318q-18 -32 -33 -58.5t-34 -61.5q-50 21 -82 66q-16 22 -26.5 50t-10.5 63q0 36 10.5 64t25.5 50q32 44 83 66v-127h67v211q-61 -3 -104 -25t-75 -54q-31 -31 -52 -77q-11 -23 -17 -49t-6 -57q0 -48 13 -83.5t32 -64.5q39 -58 103 -91q11 -5 22.5 -9.5t24.5 -7.5
q13 -4 26.5 -6.5t29.5 -2.5h2h1v5v199zM391 436q18 32 33 58t34 62q49 -22 82 -67q16 -22 26.5 -49.5t10.5 -63.5q0 -35 -10.5 -63.5t-25.5 -49.5q-16 -22 -36.5 -39t-46.5 -28v128h-67v-211q61 3 104 25t75 54t52 77q10 22 16.5 48.5t6.5 56.5q0 48 -12.5 84t-32.5 65
t-45.5 51.5t-57.5 38.5q-19 10 -47 18q-13 3 -27 5.5t-29 2.5q1 0 -0.5 0.5t-2.5 0.5v-5v-199zM386 23q-72 0 -136 26.5t-115 77.5t-77.5 115t-26.5 136t26.5 135.5t77.5 114.5t115 77.5t136 26.5t135.5 -26.5t114.5 -77.5t77.5 -114.5t26.5 -135.5t-26.5 -136t-77.5 -115
t-114.5 -77.5t-135.5 -26.5zM386 698q-66 0 -124.5 -25t-102 -68.5t-69 -102t-25.5 -124.5t25.5 -124.5t69 -102t102 -69t124.5 -25.5t124 25.5t101.5 69t69 102t25.5 124.5t-25.5 124.5t-69 102t-101.5 68.5t-124 25zM240 358q-3 -8 -9 -12q-7 -4 -13 -4t-14 5q-5 8 -5 15
q0 8 4 15q3 7 9 10q4 4 12 4q6 0 13 -4q5 -5 5 -11l-9 -1l-3 6q-1 1 -6 1t-7 -2q-4 -3 -6 -8q-2 -8 -2 -10q0 -6 3 -9q1 -3 6 -3q4 0 7 3q3 2 5 7zM276 364h-18l-5 -21h-10l10 47h10l-4 -18h18l4 18h10l-10 -47h-10zM301 343h-10l10 47h21q7 0 8 -1q2 -1 3 -2l2 -2
q2 -6 2 -7q0 -7 -4 -10q-2 -3 -11 -5l4 -4q2 -3 3.5 -7t3.5 -9h-10q-1 2 -2 5t-3 7q-2 2 -2.5 4t-2.5 3h-4h-4zM306 370h5h11l4 3q1 1 1 5q0 3 -2 3q-1 1 -6 1h-10zM338 343l10 47h9l-10 -47h-9zM367 359q0 -4 2 -6q1 -3 7 -3q5 0 7 2t2 4q0 3 -1 4q-1 0 -7 3l-8 4
q-3 1 -4 4q-1 1 -1 6q0 6 4 10t12 4q9 0 13 -4q5 -5 5 -10l-9 -1q0 3 -3 5q-2 2 -6 2t-5 -1q-2 -2 -2 -4t1 -3t3 -1.5t4 -2.5l11 -5q3 -5 3 -9q0 -5 -5 -10t-14 -5q-2 0 -10 2q-5 3 -6 6q-2 2 -2 8zM442 343h-10l-9 47h10l6 -36l19 36h10zM462 343l10 47h9l-10 -47h-9z
M481 343l10 47h9l-8 -39h24l-2 -8h-33zM521 343l9 47h35l-1 -8h-26l-2 -10h24l-1 -8h-24l-3 -13h27l-2 -8h-36zM205 399l2 13h4l1 -1h2h1q0 -1 1 -1v-2v-2v-3l-2 -2q-1 -1 -2 -1q-1 -1 -3 -1h-4zM208 401h1q2 0 2 1h1q1 1 1 2q1 1 1 3q0 1 -1 1q0 1 -1 1q0 1 -1 1h-2z
M217 399l3 13h9l-1 -3h-6l-1 -2h6v-2h-6l-1 -4h7l-1 -2h-9zM229 403h2v-1q1 -1 2 -1q2 0 2 1q1 0 1 1l-1 1l-1 1q-2 0 -2 1q-1 0 -1 1l-1 1q0 1 0.5 1.5t0.5 1.5q1 0 1.5 0.5t1.5 0.5q2 0 2.5 -0.5t1.5 -0.5q1 -1 1 -3h-2l-1 1q0 1 -2 1q-1 0 -1 -1v-1q0 -1 2 -1l2 -2
q1 0 1 -2t-1 -3q-1 0 -1.5 -0.5t-2.5 -0.5q-1 0 -2 1t-2 1v2zM240 399l2 13h3l-3 -13h-2zM251 406h5l-1 -5q0 -1 -2 -1q-1 -1 -3 -1q-1 0 -1.5 0.5t-1.5 0.5q-2 2 -2 4q0 3 1 4q0 1 2 3q1 0 1.5 0.5t2.5 0.5q1 0 1.5 -0.5t1.5 -0.5q2 -2 2 -3h-2l-1 1q-1 1 -2 1q-1 -1 -2 -1
q-2 0 -2 -2v-3v-2q1 0 1 -0.5t1 -0.5h2l1 1l1 2h-3v2zM267 399h-2l-3 9l-2 -9h-2l2 13h2l4 -9l1 9h3zM270 399l2 13h9v-3h-7v-2h6v-2h-7v-4h7l-1 -2h-9zM281 399l3 13h3q1 0 1 -0.5t1 -0.5h1h1l1 -1v-2q1 -1 1 -2t-0.5 -1.5t-0.5 -1.5l-2 -2q-1 -1 -2 -1q-1 -1 -3 -1h-4z
M284 401h1q2 0 2 1h1l2 2v3v1l-1 1q-1 0 -1 0.5t-1 0.5h-1zM298 399l2 13h5l1 -1h2l1 -1v-1v-2q-1 -1 -2 -1l1 -1q1 -1 1 -2t-1 -2l-1 -1q-1 0 -1.5 -0.5t-1.5 -0.5h-6zM301 401h2q2 0 2 1h1v1v1q-1 1 -2 1h-3v-4zM302 407h2h2l1 1q0 1 -1 1h-2h-2v-2zM316 399h-2l1 5l-4 8
h3l2 -4v-2l1 1l1 2l2 3h3l-6 -8zM391 398h-2l-1 9l-4 -9h-3v13h2v-9l5 9h2l1 -9l4 9h2zM407 398h-2l-1 9l-4 -9h-3v13h2v-9l5 9h2l1 -9l4 9h2zM423 398h-2l-1 9l-4 -9h-3v13h2v-9l5 9h2l1 -9l4 9h2zM427 401h2v-3h-3zM442 402q0 -1 -2 -3q-1 0 -1.5 -0.5t-1.5 -0.5
q-2 0 -4 2q-1 0 -1 3t1 4q0 1 2 3q1 0 1.5 0.5t1.5 0.5t1 -0.5t1 -0.5h1q2 -2 2 -3h-3v1q-1 0 -1 0.5t-1 0.5q-1 -1 -2 -1q-1 -1 -1 -2q-1 -1 -1 -3q0 -1 0.5 -1t0.5 -1q1 -1 2 -1q1 1 2 1q0 1 1 2zM452 404h-5l-1 -6h-3l3 13h2l-1 -5h5l1 5h2l-2 -13h-3zM458 398h-3l3 13h5
q1 0 1.5 -0.5t1.5 -0.5l1 -1v-2q0 -2 -1 -2q0 -1 -2 -1v-2q2 -2 2 -4h-2q-1 0 -1 1t-0.5 1t-0.5 2q0 1 -1 1h-1h-1zM459 405h2h2l1 1l1 1q0 1 -1 1q0 1 -1 1h-3zM468 398l2 13h3l-3 -13h-2zM473 402h2v-1q1 0 1 -0.5t1 -0.5q2 0 2 1q1 0 1 1l-1 1l-1 1q-2 0 -2 1q-1 0 -1 1
l-1 1q0 1 0.5 1.5t0.5 1.5q1 0 1.5 0.5t1.5 0.5q2 0 2.5 -0.5t1.5 -0.5q1 -1 1 -3h-2l-1 1q0 1 -2 1q-1 0 -1 -1v-1q0 -1 2 -1l2 -2q1 0 1 -2t-1 -3q-1 0 -1.5 -0.5t-2.5 -0.5q-1 0 -2 1t-2 1v2zM490 398h-3l-2 13h2l2 -10l5 10h2zM495 398l2 13h3l-3 -13h-2zM500 398l2 13
h3l-2 -11h6l-1 -2h-8zM510 398l2 13h9v-2h-6l-1 -3h6v-2h-6l-1 -4h7l-1 -2h-9zM522 401h2v-3h-3zM537 402q0 -1 -2 -3q-1 0 -1.5 -0.5t-1.5 -0.5q-2 0 -4 2q-1 0 -1 3t1 4q0 1 2 3q1 0 1.5 0.5t1.5 0.5t1 -0.5t1 -0.5h1q2 -2 2 -3h-3v1q-1 0 -1 0.5t-1 0.5t-1 -0.5t-1 -0.5
q-1 -1 -1 -2q-1 -1 -1 -3q0 -1 1 -2t2 -1l1 1l2 2zM539 403v2l2 3q0 2 2 2q1 1 3 1q1 0 3 -2t2 -3q0 -2 -0.5 -2.5t-0.5 -1.5l-3 -3q-1 0 -1.5 -0.5t-1.5 -0.5q-2 0 -3 1l-2 2v2zM541 403q0 -1 0.5 -1t0.5 -1q1 0 1 -0.5t1 -0.5t1 0.5t1 0.5l2 2v3q0 1 -1 2t-2 1q-2 0 -2 -2
q-2 -2 -2 -4zM558 398h-2l-1 11l-1 -11h-3l3 13h3l1 -9l4 9h3l-2 -13h-2l2 10z" />
    <glyph glyph-name="four" unicode="4" horiz-adv-x="771" 
d="M374 318q-18 -32 -33 -58.5t-34 -61.5q-50 21 -82 66q-16 22 -26.5 50t-10.5 63q0 36 10.5 64t25.5 50q32 44 83 66v-127h67v211q-61 -3 -104 -25t-75 -54q-31 -31 -52 -77q-11 -23 -17 -49t-6 -57q0 -48 13 -83.5t32 -64.5q39 -58 103 -91q11 -5 22.5 -9.5t24.5 -7.5
q13 -4 26.5 -6.5t29.5 -2.5h2h1v5v199zM391 436q18 32 33 58t34 62q49 -22 82 -67q16 -22 26.5 -49.5t10.5 -63.5q0 -35 -10.5 -63.5t-25.5 -49.5q-16 -22 -36.5 -39t-46.5 -28v128h-67v-211q61 3 104 25t75 54t52 77q10 22 16.5 48.5t6.5 56.5q0 48 -12.5 84t-32.5 65
t-45.5 51.5t-57.5 38.5q-19 10 -47 18q-13 3 -27 5.5t-29 2.5q1 0 -0.5 0.5t-2.5 0.5v-5v-199zM386 23q-72 0 -136 26.5t-115 77.5t-77.5 115t-26.5 136t26.5 135.5t77.5 114.5t115 77.5t136 26.5t135.5 -26.5t114.5 -77.5t77.5 -114.5t26.5 -135.5t-26.5 -136t-77.5 -115
t-114.5 -77.5t-135.5 -26.5zM386 698q-66 0 -124.5 -25t-102 -68.5t-69 -102t-25.5 -124.5t25.5 -124.5t69 -102t102 -69t124.5 -25.5t124 25.5t101.5 69t69 102t25.5 124.5t-25.5 124.5t-69 102t-101.5 68.5t-124 25zM240 358q-3 -8 -9 -12q-7 -4 -13 -4t-14 5q-5 8 -5 15
q0 8 4 15q3 7 9 10q4 4 12 4q6 0 13 -4q5 -5 5 -11l-9 -1l-3 6q-1 1 -6 1t-7 -2q-4 -3 -6 -8q-2 -8 -2 -10q0 -6 3 -9q1 -3 6 -3q4 0 7 3q3 2 5 7zM276 364h-18l-5 -21h-10l10 47h10l-4 -18h18l4 18h10l-10 -47h-10zM301 343h-10l10 47h21q7 0 8 -1q2 -1 3 -2l2 -2
q2 -6 2 -7q0 -7 -4 -10q-2 -3 -11 -5l4 -4q2 -3 3.5 -7t3.5 -9h-10q-1 2 -2 5t-3 7q-2 2 -2.5 4t-2.5 3h-4h-4zM306 370h5h11l4 3q1 1 1 5q0 3 -2 3q-1 1 -6 1h-10zM338 343l10 47h9l-10 -47h-9zM367 359q0 -4 2 -6q1 -3 7 -3q5 0 7 2t2 4q0 3 -1 4q-1 0 -7 3l-8 4
q-3 1 -4 4q-1 1 -1 6q0 6 4 10t12 4q9 0 13 -4q5 -5 5 -10l-9 -1q0 3 -3 5q-2 2 -6 2t-5 -1q-2 -2 -2 -4t1 -3t3 -1.5t4 -2.5l11 -5q3 -5 3 -9q0 -5 -5 -10t-14 -5q-2 0 -10 2q-5 3 -6 6q-2 2 -2 8zM442 343h-10l-9 47h10l6 -36l19 36h10zM462 343l10 47h9l-10 -47h-9z
M481 343l10 47h9l-8 -39h24l-2 -8h-33zM521 343l9 47h35l-1 -8h-26l-2 -10h24l-1 -8h-24l-3 -13h27l-2 -8h-36zM205 399l2 13h4l1 -1h2h1q0 -1 1 -1v-2v-2v-3l-2 -2q-1 -1 -2 -1q-1 -1 -3 -1h-4zM208 401h1q2 0 2 1h1q1 1 1 2q1 1 1 3q0 1 -1 1q0 1 -1 1q0 1 -1 1h-2z
M217 399l3 13h9l-1 -3h-6l-1 -2h6v-2h-6l-1 -4h7l-1 -2h-9zM229 403h2v-1q1 -1 2 -1q2 0 2 1q1 0 1 1l-1 1l-1 1q-2 0 -2 1q-1 0 -1 1l-1 1q0 1 0.5 1.5t0.5 1.5q1 0 1.5 0.5t1.5 0.5q2 0 2.5 -0.5t1.5 -0.5q1 -1 1 -3h-2l-1 1q0 1 -2 1q-1 0 -1 -1v-1q0 -1 2 -1l2 -2
q1 0 1 -2t-1 -3q-1 0 -1.5 -0.5t-2.5 -0.5q-1 0 -2 1t-2 1v2zM240 399l2 13h3l-3 -13h-2zM251 406h5l-1 -5q0 -1 -2 -1q-1 -1 -3 -1q-1 0 -1.5 0.5t-1.5 0.5q-2 2 -2 4q0 3 1 4q0 1 2 3q1 0 1.5 0.5t2.5 0.5q1 0 1.5 -0.5t1.5 -0.5q2 -2 2 -3h-2l-1 1q-1 1 -2 1q-1 -1 -2 -1
q-2 0 -2 -2v-3v-2q1 0 1 -0.5t1 -0.5h2l1 1l1 2h-3v2zM267 399h-2l-3 9l-2 -9h-2l2 13h2l4 -9l1 9h3zM270 399l2 13h9v-3h-7v-2h6v-2h-7v-4h7l-1 -2h-9zM281 399l3 13h3q1 0 1 -0.5t1 -0.5h1h1l1 -1v-2q1 -1 1 -2t-0.5 -1.5t-0.5 -1.5l-2 -2q-1 -1 -2 -1q-1 -1 -3 -1h-4z
M284 401h1q2 0 2 1h1l2 2v3v1l-1 1q-1 0 -1 0.5t-1 0.5h-1zM298 399l2 13h5l1 -1h2l1 -1v-1v-2q-1 -1 -2 -1l1 -1q1 -1 1 -2t-1 -2l-1 -1q-1 0 -1.5 -0.5t-1.5 -0.5h-6zM301 401h2q2 0 2 1h1v1v1q-1 1 -2 1h-3v-4zM302 407h2h2l1 1q0 1 -1 1h-2h-2v-2zM316 399h-2l1 5l-4 8
h3l2 -4v-2l1 1l1 2l2 3h3l-6 -8zM391 398h-2l-1 9l-4 -9h-3v13h2v-9l5 9h2l1 -9l4 9h2zM407 398h-2l-1 9l-4 -9h-3v13h2v-9l5 9h2l1 -9l4 9h2zM423 398h-2l-1 9l-4 -9h-3v13h2v-9l5 9h2l1 -9l4 9h2zM427 401h2v-3h-3zM442 402q0 -1 -2 -3q-1 0 -1.5 -0.5t-1.5 -0.5
q-2 0 -4 2q-1 0 -1 3t1 4q0 1 2 3q1 0 1.5 0.5t1.5 0.5t1 -0.5t1 -0.5h1q2 -2 2 -3h-3v1q-1 0 -1 0.5t-1 0.5q-1 -1 -2 -1q-1 -1 -1 -2q-1 -1 -1 -3q0 -1 0.5 -1t0.5 -1q1 -1 2 -1q1 1 2 1q0 1 1 2zM452 404h-5l-1 -6h-3l3 13h2l-1 -5h5l1 5h2l-2 -13h-3zM458 398h-3l3 13h5
q1 0 1.5 -0.5t1.5 -0.5l1 -1v-2q0 -2 -1 -2q0 -1 -2 -1v-2q2 -2 2 -4h-2q-1 0 -1 1t-0.5 1t-0.5 2q0 1 -1 1h-1h-1zM459 405h2h2l1 1l1 1q0 1 -1 1q0 1 -1 1h-3zM468 398l2 13h3l-3 -13h-2zM473 402h2v-1q1 0 1 -0.5t1 -0.5q2 0 2 1q1 0 1 1l-1 1l-1 1q-2 0 -2 1q-1 0 -1 1
l-1 1q0 1 0.5 1.5t0.5 1.5q1 0 1.5 0.5t1.5 0.5q2 0 2.5 -0.5t1.5 -0.5q1 -1 1 -3h-2l-1 1q0 1 -2 1q-1 0 -1 -1v-1q0 -1 2 -1l2 -2q1 0 1 -2t-1 -3q-1 0 -1.5 -0.5t-2.5 -0.5q-1 0 -2 1t-2 1v2zM490 398h-3l-2 13h2l2 -10l5 10h2zM495 398l2 13h3l-3 -13h-2zM500 398l2 13
h3l-2 -11h6l-1 -2h-8zM510 398l2 13h9v-2h-6l-1 -3h6v-2h-6l-1 -4h7l-1 -2h-9zM522 401h2v-3h-3zM537 402q0 -1 -2 -3q-1 0 -1.5 -0.5t-1.5 -0.5q-2 0 -4 2q-1 0 -1 3t1 4q0 1 2 3q1 0 1.5 0.5t1.5 0.5t1 -0.5t1 -0.5h1q2 -2 2 -3h-3v1q-1 0 -1 0.5t-1 0.5t-1 -0.5t-1 -0.5
q-1 -1 -1 -2q-1 -1 -1 -3q0 -1 1 -2t2 -1l1 1l2 2zM539 403v2l2 3q0 2 2 2q1 1 3 1q1 0 3 -2t2 -3q0 -2 -0.5 -2.5t-0.5 -1.5l-3 -3q-1 0 -1.5 -0.5t-1.5 -0.5q-2 0 -3 1l-2 2v2zM541 403q0 -1 0.5 -1t0.5 -1q1 0 1 -0.5t1 -0.5t1 0.5t1 0.5l2 2v3q0 1 -1 2t-2 1q-2 0 -2 -2
q-2 -2 -2 -4zM558 398h-2l-1 11l-1 -11h-3l3 13h3l1 -9l4 9h3l-2 -13h-2l2 10z" />
    <glyph glyph-name="five" unicode="5" horiz-adv-x="771" 
d="M374 318q-18 -32 -33 -58.5t-34 -61.5q-50 21 -82 66q-16 22 -26.5 50t-10.5 63q0 36 10.5 64t25.5 50q32 44 83 66v-127h67v211q-61 -3 -104 -25t-75 -54q-31 -31 -52 -77q-11 -23 -17 -49t-6 -57q0 -48 13 -83.5t32 -64.5q39 -58 103 -91q11 -5 22.5 -9.5t24.5 -7.5
q13 -4 26.5 -6.5t29.5 -2.5h2h1v5v199zM391 436q18 32 33 58t34 62q49 -22 82 -67q16 -22 26.5 -49.5t10.5 -63.5q0 -35 -10.5 -63.5t-25.5 -49.5q-16 -22 -36.5 -39t-46.5 -28v128h-67v-211q61 3 104 25t75 54t52 77q10 22 16.5 48.5t6.5 56.5q0 48 -12.5 84t-32.5 65
t-45.5 51.5t-57.5 38.5q-19 10 -47 18q-13 3 -27 5.5t-29 2.5q1 0 -0.5 0.5t-2.5 0.5v-5v-199zM386 23q-72 0 -136 26.5t-115 77.5t-77.5 115t-26.5 136t26.5 135.5t77.5 114.5t115 77.5t136 26.5t135.5 -26.5t114.5 -77.5t77.5 -114.5t26.5 -135.5t-26.5 -136t-77.5 -115
t-114.5 -77.5t-135.5 -26.5zM386 698q-66 0 -124.5 -25t-102 -68.5t-69 -102t-25.5 -124.5t25.5 -124.5t69 -102t102 -69t124.5 -25.5t124 25.5t101.5 69t69 102t25.5 124.5t-25.5 124.5t-69 102t-101.5 68.5t-124 25zM240 358q-3 -8 -9 -12q-7 -4 -13 -4t-14 5q-5 8 -5 15
q0 8 4 15q3 7 9 10q4 4 12 4q6 0 13 -4q5 -5 5 -11l-9 -1l-3 6q-1 1 -6 1t-7 -2q-4 -3 -6 -8q-2 -8 -2 -10q0 -6 3 -9q1 -3 6 -3q4 0 7 3q3 2 5 7zM276 364h-18l-5 -21h-10l10 47h10l-4 -18h18l4 18h10l-10 -47h-10zM301 343h-10l10 47h21q7 0 8 -1q2 -1 3 -2l2 -2
q2 -6 2 -7q0 -7 -4 -10q-2 -3 -11 -5l4 -4q2 -3 3.5 -7t3.5 -9h-10q-1 2 -2 5t-3 7q-2 2 -2.5 4t-2.5 3h-4h-4zM306 370h5h11l4 3q1 1 1 5q0 3 -2 3q-1 1 -6 1h-10zM338 343l10 47h9l-10 -47h-9zM367 359q0 -4 2 -6q1 -3 7 -3q5 0 7 2t2 4q0 3 -1 4q-1 0 -7 3l-8 4
q-3 1 -4 4q-1 1 -1 6q0 6 4 10t12 4q9 0 13 -4q5 -5 5 -10l-9 -1q0 3 -3 5q-2 2 -6 2t-5 -1q-2 -2 -2 -4t1 -3t3 -1.5t4 -2.5l11 -5q3 -5 3 -9q0 -5 -5 -10t-14 -5q-2 0 -10 2q-5 3 -6 6q-2 2 -2 8zM442 343h-10l-9 47h10l6 -36l19 36h10zM462 343l10 47h9l-10 -47h-9z
M481 343l10 47h9l-8 -39h24l-2 -8h-33zM521 343l9 47h35l-1 -8h-26l-2 -10h24l-1 -8h-24l-3 -13h27l-2 -8h-36zM205 399l2 13h4l1 -1h2h1q0 -1 1 -1v-2v-2v-3l-2 -2q-1 -1 -2 -1q-1 -1 -3 -1h-4zM208 401h1q2 0 2 1h1q1 1 1 2q1 1 1 3q0 1 -1 1q0 1 -1 1q0 1 -1 1h-2z
M217 399l3 13h9l-1 -3h-6l-1 -2h6v-2h-6l-1 -4h7l-1 -2h-9zM229 403h2v-1q1 -1 2 -1q2 0 2 1q1 0 1 1l-1 1l-1 1q-2 0 -2 1q-1 0 -1 1l-1 1q0 1 0.5 1.5t0.5 1.5q1 0 1.5 0.5t1.5 0.5q2 0 2.5 -0.5t1.5 -0.5q1 -1 1 -3h-2l-1 1q0 1 -2 1q-1 0 -1 -1v-1q0 -1 2 -1l2 -2
q1 0 1 -2t-1 -3q-1 0 -1.5 -0.5t-2.5 -0.5q-1 0 -2 1t-2 1v2zM240 399l2 13h3l-3 -13h-2zM251 406h5l-1 -5q0 -1 -2 -1q-1 -1 -3 -1q-1 0 -1.5 0.5t-1.5 0.5q-2 2 -2 4q0 3 1 4q0 1 2 3q1 0 1.5 0.5t2.5 0.5q1 0 1.5 -0.5t1.5 -0.5q2 -2 2 -3h-2l-1 1q-1 1 -2 1q-1 -1 -2 -1
q-2 0 -2 -2v-3v-2q1 0 1 -0.5t1 -0.5h2l1 1l1 2h-3v2zM267 399h-2l-3 9l-2 -9h-2l2 13h2l4 -9l1 9h3zM270 399l2 13h9v-3h-7v-2h6v-2h-7v-4h7l-1 -2h-9zM281 399l3 13h3q1 0 1 -0.5t1 -0.5h1h1l1 -1v-2q1 -1 1 -2t-0.5 -1.5t-0.5 -1.5l-2 -2q-1 -1 -2 -1q-1 -1 -3 -1h-4z
M284 401h1q2 0 2 1h1l2 2v3v1l-1 1q-1 0 -1 0.5t-1 0.5h-1zM298 399l2 13h5l1 -1h2l1 -1v-1v-2q-1 -1 -2 -1l1 -1q1 -1 1 -2t-1 -2l-1 -1q-1 0 -1.5 -0.5t-1.5 -0.5h-6zM301 401h2q2 0 2 1h1v1v1q-1 1 -2 1h-3v-4zM302 407h2h2l1 1q0 1 -1 1h-2h-2v-2zM316 399h-2l1 5l-4 8
h3l2 -4v-2l1 1l1 2l2 3h3l-6 -8zM391 398h-2l-1 9l-4 -9h-3v13h2v-9l5 9h2l1 -9l4 9h2zM407 398h-2l-1 9l-4 -9h-3v13h2v-9l5 9h2l1 -9l4 9h2zM423 398h-2l-1 9l-4 -9h-3v13h2v-9l5 9h2l1 -9l4 9h2zM427 401h2v-3h-3zM442 402q0 -1 -2 -3q-1 0 -1.5 -0.5t-1.5 -0.5
q-2 0 -4 2q-1 0 -1 3t1 4q0 1 2 3q1 0 1.5 0.5t1.5 0.5t1 -0.5t1 -0.5h1q2 -2 2 -3h-3v1q-1 0 -1 0.5t-1 0.5q-1 -1 -2 -1q-1 -1 -1 -2q-1 -1 -1 -3q0 -1 0.5 -1t0.5 -1q1 -1 2 -1q1 1 2 1q0 1 1 2zM452 404h-5l-1 -6h-3l3 13h2l-1 -5h5l1 5h2l-2 -13h-3zM458 398h-3l3 13h5
q1 0 1.5 -0.5t1.5 -0.5l1 -1v-2q0 -2 -1 -2q0 -1 -2 -1v-2q2 -2 2 -4h-2q-1 0 -1 1t-0.5 1t-0.5 2q0 1 -1 1h-1h-1zM459 405h2h2l1 1l1 1q0 1 -1 1q0 1 -1 1h-3zM468 398l2 13h3l-3 -13h-2zM473 402h2v-1q1 0 1 -0.5t1 -0.5q2 0 2 1q1 0 1 1l-1 1l-1 1q-2 0 -2 1q-1 0 -1 1
l-1 1q0 1 0.5 1.5t0.5 1.5q1 0 1.5 0.5t1.5 0.5q2 0 2.5 -0.5t1.5 -0.5q1 -1 1 -3h-2l-1 1q0 1 -2 1q-1 0 -1 -1v-1q0 -1 2 -1l2 -2q1 0 1 -2t-1 -3q-1 0 -1.5 -0.5t-2.5 -0.5q-1 0 -2 1t-2 1v2zM490 398h-3l-2 13h2l2 -10l5 10h2zM495 398l2 13h3l-3 -13h-2zM500 398l2 13
h3l-2 -11h6l-1 -2h-8zM510 398l2 13h9v-2h-6l-1 -3h6v-2h-6l-1 -4h7l-1 -2h-9zM522 401h2v-3h-3zM537 402q0 -1 -2 -3q-1 0 -1.5 -0.5t-1.5 -0.5q-2 0 -4 2q-1 0 -1 3t1 4q0 1 2 3q1 0 1.5 0.5t1.5 0.5t1 -0.5t1 -0.5h1q2 -2 2 -3h-3v1q-1 0 -1 0.5t-1 0.5t-1 -0.5t-1 -0.5
q-1 -1 -1 -2q-1 -1 -1 -3q0 -1 1 -2t2 -1l1 1l2 2zM539 403v2l2 3q0 2 2 2q1 1 3 1q1 0 3 -2t2 -3q0 -2 -0.5 -2.5t-0.5 -1.5l-3 -3q-1 0 -1.5 -0.5t-1.5 -0.5q-2 0 -3 1l-2 2v2zM541 403q0 -1 0.5 -1t0.5 -1q1 0 1 -0.5t1 -0.5t1 0.5t1 0.5l2 2v3q0 1 -1 2t-2 1q-2 0 -2 -2
q-2 -2 -2 -4zM558 398h-2l-1 11l-1 -11h-3l3 13h3l1 -9l4 9h3l-2 -13h-2l2 10z" />
    <glyph glyph-name="six" unicode="6" horiz-adv-x="771" 
d="M374 318q-18 -32 -33 -58.5t-34 -61.5q-50 21 -82 66q-16 22 -26.5 50t-10.5 63q0 36 10.5 64t25.5 50q32 44 83 66v-127h67v211q-61 -3 -104 -25t-75 -54q-31 -31 -52 -77q-11 -23 -17 -49t-6 -57q0 -48 13 -83.5t32 -64.5q39 -58 103 -91q11 -5 22.5 -9.5t24.5 -7.5
q13 -4 26.5 -6.5t29.5 -2.5h2h1v5v199zM391 436q18 32 33 58t34 62q49 -22 82 -67q16 -22 26.5 -49.5t10.5 -63.5q0 -35 -10.5 -63.5t-25.5 -49.5q-16 -22 -36.5 -39t-46.5 -28v128h-67v-211q61 3 104 25t75 54t52 77q10 22 16.5 48.5t6.5 56.5q0 48 -12.5 84t-32.5 65
t-45.5 51.5t-57.5 38.5q-19 10 -47 18q-13 3 -27 5.5t-29 2.5q1 0 -0.5 0.5t-2.5 0.5v-5v-199zM386 23q-72 0 -136 26.5t-115 77.5t-77.5 115t-26.5 136t26.5 135.5t77.5 114.5t115 77.5t136 26.5t135.5 -26.5t114.5 -77.5t77.5 -114.5t26.5 -135.5t-26.5 -136t-77.5 -115
t-114.5 -77.5t-135.5 -26.5zM386 698q-66 0 -124.5 -25t-102 -68.5t-69 -102t-25.5 -124.5t25.5 -124.5t69 -102t102 -69t124.5 -25.5t124 25.5t101.5 69t69 102t25.5 124.5t-25.5 124.5t-69 102t-101.5 68.5t-124 25zM240 358q-3 -8 -9 -12q-7 -4 -13 -4t-14 5q-5 8 -5 15
q0 8 4 15q3 7 9 10q4 4 12 4q6 0 13 -4q5 -5 5 -11l-9 -1l-3 6q-1 1 -6 1t-7 -2q-4 -3 -6 -8q-2 -8 -2 -10q0 -6 3 -9q1 -3 6 -3q4 0 7 3q3 2 5 7zM276 364h-18l-5 -21h-10l10 47h10l-4 -18h18l4 18h10l-10 -47h-10zM301 343h-10l10 47h21q7 0 8 -1q2 -1 3 -2l2 -2
q2 -6 2 -7q0 -7 -4 -10q-2 -3 -11 -5l4 -4q2 -3 3.5 -7t3.5 -9h-10q-1 2 -2 5t-3 7q-2 2 -2.5 4t-2.5 3h-4h-4zM306 370h5h11l4 3q1 1 1 5q0 3 -2 3q-1 1 -6 1h-10zM338 343l10 47h9l-10 -47h-9zM367 359q0 -4 2 -6q1 -3 7 -3q5 0 7 2t2 4q0 3 -1 4q-1 0 -7 3l-8 4
q-3 1 -4 4q-1 1 -1 6q0 6 4 10t12 4q9 0 13 -4q5 -5 5 -10l-9 -1q0 3 -3 5q-2 2 -6 2t-5 -1q-2 -2 -2 -4t1 -3t3 -1.5t4 -2.5l11 -5q3 -5 3 -9q0 -5 -5 -10t-14 -5q-2 0 -10 2q-5 3 -6 6q-2 2 -2 8zM442 343h-10l-9 47h10l6 -36l19 36h10zM462 343l10 47h9l-10 -47h-9z
M481 343l10 47h9l-8 -39h24l-2 -8h-33zM521 343l9 47h35l-1 -8h-26l-2 -10h24l-1 -8h-24l-3 -13h27l-2 -8h-36zM205 399l2 13h4l1 -1h2h1q0 -1 1 -1v-2v-2v-3l-2 -2q-1 -1 -2 -1q-1 -1 -3 -1h-4zM208 401h1q2 0 2 1h1q1 1 1 2q1 1 1 3q0 1 -1 1q0 1 -1 1q0 1 -1 1h-2z
M217 399l3 13h9l-1 -3h-6l-1 -2h6v-2h-6l-1 -4h7l-1 -2h-9zM229 403h2v-1q1 -1 2 -1q2 0 2 1q1 0 1 1l-1 1l-1 1q-2 0 -2 1q-1 0 -1 1l-1 1q0 1 0.5 1.5t0.5 1.5q1 0 1.5 0.5t1.5 0.5q2 0 2.5 -0.5t1.5 -0.5q1 -1 1 -3h-2l-1 1q0 1 -2 1q-1 0 -1 -1v-1q0 -1 2 -1l2 -2
q1 0 1 -2t-1 -3q-1 0 -1.5 -0.5t-2.5 -0.5q-1 0 -2 1t-2 1v2zM240 399l2 13h3l-3 -13h-2zM251 406h5l-1 -5q0 -1 -2 -1q-1 -1 -3 -1q-1 0 -1.5 0.5t-1.5 0.5q-2 2 -2 4q0 3 1 4q0 1 2 3q1 0 1.5 0.5t2.5 0.5q1 0 1.5 -0.5t1.5 -0.5q2 -2 2 -3h-2l-1 1q-1 1 -2 1q-1 -1 -2 -1
q-2 0 -2 -2v-3v-2q1 0 1 -0.5t1 -0.5h2l1 1l1 2h-3v2zM267 399h-2l-3 9l-2 -9h-2l2 13h2l4 -9l1 9h3zM270 399l2 13h9v-3h-7v-2h6v-2h-7v-4h7l-1 -2h-9zM281 399l3 13h3q1 0 1 -0.5t1 -0.5h1h1l1 -1v-2q1 -1 1 -2t-0.5 -1.5t-0.5 -1.5l-2 -2q-1 -1 -2 -1q-1 -1 -3 -1h-4z
M284 401h1q2 0 2 1h1l2 2v3v1l-1 1q-1 0 -1 0.5t-1 0.5h-1zM298 399l2 13h5l1 -1h2l1 -1v-1v-2q-1 -1 -2 -1l1 -1q1 -1 1 -2t-1 -2l-1 -1q-1 0 -1.5 -0.5t-1.5 -0.5h-6zM301 401h2q2 0 2 1h1v1v1q-1 1 -2 1h-3v-4zM302 407h2h2l1 1q0 1 -1 1h-2h-2v-2zM316 399h-2l1 5l-4 8
h3l2 -4v-2l1 1l1 2l2 3h3l-6 -8zM391 398h-2l-1 9l-4 -9h-3v13h2v-9l5 9h2l1 -9l4 9h2zM407 398h-2l-1 9l-4 -9h-3v13h2v-9l5 9h2l1 -9l4 9h2zM423 398h-2l-1 9l-4 -9h-3v13h2v-9l5 9h2l1 -9l4 9h2zM427 401h2v-3h-3zM442 402q0 -1 -2 -3q-1 0 -1.5 -0.5t-1.5 -0.5
q-2 0 -4 2q-1 0 -1 3t1 4q0 1 2 3q1 0 1.5 0.5t1.5 0.5t1 -0.5t1 -0.5h1q2 -2 2 -3h-3v1q-1 0 -1 0.5t-1 0.5q-1 -1 -2 -1q-1 -1 -1 -2q-1 -1 -1 -3q0 -1 0.5 -1t0.5 -1q1 -1 2 -1q1 1 2 1q0 1 1 2zM452 404h-5l-1 -6h-3l3 13h2l-1 -5h5l1 5h2l-2 -13h-3zM458 398h-3l3 13h5
q1 0 1.5 -0.5t1.5 -0.5l1 -1v-2q0 -2 -1 -2q0 -1 -2 -1v-2q2 -2 2 -4h-2q-1 0 -1 1t-0.5 1t-0.5 2q0 1 -1 1h-1h-1zM459 405h2h2l1 1l1 1q0 1 -1 1q0 1 -1 1h-3zM468 398l2 13h3l-3 -13h-2zM473 402h2v-1q1 0 1 -0.5t1 -0.5q2 0 2 1q1 0 1 1l-1 1l-1 1q-2 0 -2 1q-1 0 -1 1
l-1 1q0 1 0.5 1.5t0.5 1.5q1 0 1.5 0.5t1.5 0.5q2 0 2.5 -0.5t1.5 -0.5q1 -1 1 -3h-2l-1 1q0 1 -2 1q-1 0 -1 -1v-1q0 -1 2 -1l2 -2q1 0 1 -2t-1 -3q-1 0 -1.5 -0.5t-2.5 -0.5q-1 0 -2 1t-2 1v2zM490 398h-3l-2 13h2l2 -10l5 10h2zM495 398l2 13h3l-3 -13h-2zM500 398l2 13
h3l-2 -11h6l-1 -2h-8zM510 398l2 13h9v-2h-6l-1 -3h6v-2h-6l-1 -4h7l-1 -2h-9zM522 401h2v-3h-3zM537 402q0 -1 -2 -3q-1 0 -1.5 -0.5t-1.5 -0.5q-2 0 -4 2q-1 0 -1 3t1 4q0 1 2 3q1 0 1.5 0.5t1.5 0.5t1 -0.5t1 -0.5h1q2 -2 2 -3h-3v1q-1 0 -1 0.5t-1 0.5t-1 -0.5t-1 -0.5
q-1 -1 -1 -2q-1 -1 -1 -3q0 -1 1 -2t2 -1l1 1l2 2zM539 403v2l2 3q0 2 2 2q1 1 3 1q1 0 3 -2t2 -3q0 -2 -0.5 -2.5t-0.5 -1.5l-3 -3q-1 0 -1.5 -0.5t-1.5 -0.5q-2 0 -3 1l-2 2v2zM541 403q0 -1 0.5 -1t0.5 -1q1 0 1 -0.5t1 -0.5t1 0.5t1 0.5l2 2v3q0 1 -1 2t-2 1q-2 0 -2 -2
q-2 -2 -2 -4zM558 398h-2l-1 11l-1 -11h-3l3 13h3l1 -9l4 9h3l-2 -13h-2l2 10z" />
    <glyph glyph-name="seven" unicode="7" horiz-adv-x="771" 
d="M374 318q-18 -32 -33 -58.5t-34 -61.5q-50 21 -82 66q-16 22 -26.5 50t-10.5 63q0 36 10.5 64t25.5 50q32 44 83 66v-127h67v211q-61 -3 -104 -25t-75 -54q-31 -31 -52 -77q-11 -23 -17 -49t-6 -57q0 -48 13 -83.5t32 -64.5q39 -58 103 -91q11 -5 22.5 -9.5t24.5 -7.5
q13 -4 26.5 -6.5t29.5 -2.5h2h1v5v199zM391 436q18 32 33 58t34 62q49 -22 82 -67q16 -22 26.5 -49.5t10.5 -63.5q0 -35 -10.5 -63.5t-25.5 -49.5q-16 -22 -36.5 -39t-46.5 -28v128h-67v-211q61 3 104 25t75 54t52 77q10 22 16.5 48.5t6.5 56.5q0 48 -12.5 84t-32.5 65
t-45.5 51.5t-57.5 38.5q-19 10 -47 18q-13 3 -27 5.5t-29 2.5q1 0 -0.5 0.5t-2.5 0.5v-5v-199zM386 23q-72 0 -136 26.5t-115 77.5t-77.5 115t-26.5 136t26.5 135.5t77.5 114.5t115 77.5t136 26.5t135.5 -26.5t114.5 -77.5t77.5 -114.5t26.5 -135.5t-26.5 -136t-77.5 -115
t-114.5 -77.5t-135.5 -26.5zM386 698q-66 0 -124.5 -25t-102 -68.5t-69 -102t-25.5 -124.5t25.5 -124.5t69 -102t102 -69t124.5 -25.5t124 25.5t101.5 69t69 102t25.5 124.5t-25.5 124.5t-69 102t-101.5 68.5t-124 25zM240 358q-3 -8 -9 -12q-7 -4 -13 -4t-14 5q-5 8 -5 15
q0 8 4 15q3 7 9 10q4 4 12 4q6 0 13 -4q5 -5 5 -11l-9 -1l-3 6q-1 1 -6 1t-7 -2q-4 -3 -6 -8q-2 -8 -2 -10q0 -6 3 -9q1 -3 6 -3q4 0 7 3q3 2 5 7zM276 364h-18l-5 -21h-10l10 47h10l-4 -18h18l4 18h10l-10 -47h-10zM301 343h-10l10 47h21q7 0 8 -1q2 -1 3 -2l2 -2
q2 -6 2 -7q0 -7 -4 -10q-2 -3 -11 -5l4 -4q2 -3 3.5 -7t3.5 -9h-10q-1 2 -2 5t-3 7q-2 2 -2.5 4t-2.5 3h-4h-4zM306 370h5h11l4 3q1 1 1 5q0 3 -2 3q-1 1 -6 1h-10zM338 343l10 47h9l-10 -47h-9zM367 359q0 -4 2 -6q1 -3 7 -3q5 0 7 2t2 4q0 3 -1 4q-1 0 -7 3l-8 4
q-3 1 -4 4q-1 1 -1 6q0 6 4 10t12 4q9 0 13 -4q5 -5 5 -10l-9 -1q0 3 -3 5q-2 2 -6 2t-5 -1q-2 -2 -2 -4t1 -3t3 -1.5t4 -2.5l11 -5q3 -5 3 -9q0 -5 -5 -10t-14 -5q-2 0 -10 2q-5 3 -6 6q-2 2 -2 8zM442 343h-10l-9 47h10l6 -36l19 36h10zM462 343l10 47h9l-10 -47h-9z
M481 343l10 47h9l-8 -39h24l-2 -8h-33zM521 343l9 47h35l-1 -8h-26l-2 -10h24l-1 -8h-24l-3 -13h27l-2 -8h-36zM205 399l2 13h4l1 -1h2h1q0 -1 1 -1v-2v-2v-3l-2 -2q-1 -1 -2 -1q-1 -1 -3 -1h-4zM208 401h1q2 0 2 1h1q1 1 1 2q1 1 1 3q0 1 -1 1q0 1 -1 1q0 1 -1 1h-2z
M217 399l3 13h9l-1 -3h-6l-1 -2h6v-2h-6l-1 -4h7l-1 -2h-9zM229 403h2v-1q1 -1 2 -1q2 0 2 1q1 0 1 1l-1 1l-1 1q-2 0 -2 1q-1 0 -1 1l-1 1q0 1 0.5 1.5t0.5 1.5q1 0 1.5 0.5t1.5 0.5q2 0 2.5 -0.5t1.5 -0.5q1 -1 1 -3h-2l-1 1q0 1 -2 1q-1 0 -1 -1v-1q0 -1 2 -1l2 -2
q1 0 1 -2t-1 -3q-1 0 -1.5 -0.5t-2.5 -0.5q-1 0 -2 1t-2 1v2zM240 399l2 13h3l-3 -13h-2zM251 406h5l-1 -5q0 -1 -2 -1q-1 -1 -3 -1q-1 0 -1.5 0.5t-1.5 0.5q-2 2 -2 4q0 3 1 4q0 1 2 3q1 0 1.5 0.5t2.5 0.5q1 0 1.5 -0.5t1.5 -0.5q2 -2 2 -3h-2l-1 1q-1 1 -2 1q-1 -1 -2 -1
q-2 0 -2 -2v-3v-2q1 0 1 -0.5t1 -0.5h2l1 1l1 2h-3v2zM267 399h-2l-3 9l-2 -9h-2l2 13h2l4 -9l1 9h3zM270 399l2 13h9v-3h-7v-2h6v-2h-7v-4h7l-1 -2h-9zM281 399l3 13h3q1 0 1 -0.5t1 -0.5h1h1l1 -1v-2q1 -1 1 -2t-0.5 -1.5t-0.5 -1.5l-2 -2q-1 -1 -2 -1q-1 -1 -3 -1h-4z
M284 401h1q2 0 2 1h1l2 2v3v1l-1 1q-1 0 -1 0.5t-1 0.5h-1zM298 399l2 13h5l1 -1h2l1 -1v-1v-2q-1 -1 -2 -1l1 -1q1 -1 1 -2t-1 -2l-1 -1q-1 0 -1.5 -0.5t-1.5 -0.5h-6zM301 401h2q2 0 2 1h1v1v1q-1 1 -2 1h-3v-4zM302 407h2h2l1 1q0 1 -1 1h-2h-2v-2zM316 399h-2l1 5l-4 8
h3l2 -4v-2l1 1l1 2l2 3h3l-6 -8zM391 398h-2l-1 9l-4 -9h-3v13h2v-9l5 9h2l1 -9l4 9h2zM407 398h-2l-1 9l-4 -9h-3v13h2v-9l5 9h2l1 -9l4 9h2zM423 398h-2l-1 9l-4 -9h-3v13h2v-9l5 9h2l1 -9l4 9h2zM427 401h2v-3h-3zM442 402q0 -1 -2 -3q-1 0 -1.5 -0.5t-1.5 -0.5
q-2 0 -4 2q-1 0 -1 3t1 4q0 1 2 3q1 0 1.5 0.5t1.5 0.5t1 -0.5t1 -0.5h1q2 -2 2 -3h-3v1q-1 0 -1 0.5t-1 0.5q-1 -1 -2 -1q-1 -1 -1 -2q-1 -1 -1 -3q0 -1 0.5 -1t0.5 -1q1 -1 2 -1q1 1 2 1q0 1 1 2zM452 404h-5l-1 -6h-3l3 13h2l-1 -5h5l1 5h2l-2 -13h-3zM458 398h-3l3 13h5
q1 0 1.5 -0.5t1.5 -0.5l1 -1v-2q0 -2 -1 -2q0 -1 -2 -1v-2q2 -2 2 -4h-2q-1 0 -1 1t-0.5 1t-0.5 2q0 1 -1 1h-1h-1zM459 405h2h2l1 1l1 1q0 1 -1 1q0 1 -1 1h-3zM468 398l2 13h3l-3 -13h-2zM473 402h2v-1q1 0 1 -0.5t1 -0.5q2 0 2 1q1 0 1 1l-1 1l-1 1q-2 0 -2 1q-1 0 -1 1
l-1 1q0 1 0.5 1.5t0.5 1.5q1 0 1.5 0.5t1.5 0.5q2 0 2.5 -0.5t1.5 -0.5q1 -1 1 -3h-2l-1 1q0 1 -2 1q-1 0 -1 -1v-1q0 -1 2 -1l2 -2q1 0 1 -2t-1 -3q-1 0 -1.5 -0.5t-2.5 -0.5q-1 0 -2 1t-2 1v2zM490 398h-3l-2 13h2l2 -10l5 10h2zM495 398l2 13h3l-3 -13h-2zM500 398l2 13
h3l-2 -11h6l-1 -2h-8zM510 398l2 13h9v-2h-6l-1 -3h6v-2h-6l-1 -4h7l-1 -2h-9zM522 401h2v-3h-3zM537 402q0 -1 -2 -3q-1 0 -1.5 -0.5t-1.5 -0.5q-2 0 -4 2q-1 0 -1 3t1 4q0 1 2 3q1 0 1.5 0.5t1.5 0.5t1 -0.5t1 -0.5h1q2 -2 2 -3h-3v1q-1 0 -1 0.5t-1 0.5t-1 -0.5t-1 -0.5
q-1 -1 -1 -2q-1 -1 -1 -3q0 -1 1 -2t2 -1l1 1l2 2zM539 403v2l2 3q0 2 2 2q1 1 3 1q1 0 3 -2t2 -3q0 -2 -0.5 -2.5t-0.5 -1.5l-3 -3q-1 0 -1.5 -0.5t-1.5 -0.5q-2 0 -3 1l-2 2v2zM541 403q0 -1 0.5 -1t0.5 -1q1 0 1 -0.5t1 -0.5t1 0.5t1 0.5l2 2v3q0 1 -1 2t-2 1q-2 0 -2 -2
q-2 -2 -2 -4zM558 398h-2l-1 11l-1 -11h-3l3 13h3l1 -9l4 9h3l-2 -13h-2l2 10z" />
    <glyph glyph-name="eight" unicode="8" horiz-adv-x="771" 
d="M374 318q-18 -32 -33 -58.5t-34 -61.5q-50 21 -82 66q-16 22 -26.5 50t-10.5 63q0 36 10.5 64t25.5 50q32 44 83 66v-127h67v211q-61 -3 -104 -25t-75 -54q-31 -31 -52 -77q-11 -23 -17 -49t-6 -57q0 -48 13 -83.5t32 -64.5q39 -58 103 -91q11 -5 22.5 -9.5t24.5 -7.5
q13 -4 26.5 -6.5t29.5 -2.5h2h1v5v199zM391 436q18 32 33 58t34 62q49 -22 82 -67q16 -22 26.5 -49.5t10.5 -63.5q0 -35 -10.5 -63.5t-25.5 -49.5q-16 -22 -36.5 -39t-46.5 -28v128h-67v-211q61 3 104 25t75 54t52 77q10 22 16.5 48.5t6.5 56.5q0 48 -12.5 84t-32.5 65
t-45.5 51.5t-57.5 38.5q-19 10 -47 18q-13 3 -27 5.5t-29 2.5q1 0 -0.5 0.5t-2.5 0.5v-5v-199zM386 23q-72 0 -136 26.5t-115 77.5t-77.5 115t-26.5 136t26.5 135.5t77.5 114.5t115 77.5t136 26.5t135.5 -26.5t114.5 -77.5t77.5 -114.5t26.5 -135.5t-26.5 -136t-77.5 -115
t-114.5 -77.5t-135.5 -26.5zM386 698q-66 0 -124.5 -25t-102 -68.5t-69 -102t-25.5 -124.5t25.5 -124.5t69 -102t102 -69t124.5 -25.5t124 25.5t101.5 69t69 102t25.5 124.5t-25.5 124.5t-69 102t-101.5 68.5t-124 25zM240 358q-3 -8 -9 -12q-7 -4 -13 -4t-14 5q-5 8 -5 15
q0 8 4 15q3 7 9 10q4 4 12 4q6 0 13 -4q5 -5 5 -11l-9 -1l-3 6q-1 1 -6 1t-7 -2q-4 -3 -6 -8q-2 -8 -2 -10q0 -6 3 -9q1 -3 6 -3q4 0 7 3q3 2 5 7zM276 364h-18l-5 -21h-10l10 47h10l-4 -18h18l4 18h10l-10 -47h-10zM301 343h-10l10 47h21q7 0 8 -1q2 -1 3 -2l2 -2
q2 -6 2 -7q0 -7 -4 -10q-2 -3 -11 -5l4 -4q2 -3 3.5 -7t3.5 -9h-10q-1 2 -2 5t-3 7q-2 2 -2.5 4t-2.5 3h-4h-4zM306 370h5h11l4 3q1 1 1 5q0 3 -2 3q-1 1 -6 1h-10zM338 343l10 47h9l-10 -47h-9zM367 359q0 -4 2 -6q1 -3 7 -3q5 0 7 2t2 4q0 3 -1 4q-1 0 -7 3l-8 4
q-3 1 -4 4q-1 1 -1 6q0 6 4 10t12 4q9 0 13 -4q5 -5 5 -10l-9 -1q0 3 -3 5q-2 2 -6 2t-5 -1q-2 -2 -2 -4t1 -3t3 -1.5t4 -2.5l11 -5q3 -5 3 -9q0 -5 -5 -10t-14 -5q-2 0 -10 2q-5 3 -6 6q-2 2 -2 8zM442 343h-10l-9 47h10l6 -36l19 36h10zM462 343l10 47h9l-10 -47h-9z
M481 343l10 47h9l-8 -39h24l-2 -8h-33zM521 343l9 47h35l-1 -8h-26l-2 -10h24l-1 -8h-24l-3 -13h27l-2 -8h-36zM205 399l2 13h4l1 -1h2h1q0 -1 1 -1v-2v-2v-3l-2 -2q-1 -1 -2 -1q-1 -1 -3 -1h-4zM208 401h1q2 0 2 1h1q1 1 1 2q1 1 1 3q0 1 -1 1q0 1 -1 1q0 1 -1 1h-2z
M217 399l3 13h9l-1 -3h-6l-1 -2h6v-2h-6l-1 -4h7l-1 -2h-9zM229 403h2v-1q1 -1 2 -1q2 0 2 1q1 0 1 1l-1 1l-1 1q-2 0 -2 1q-1 0 -1 1l-1 1q0 1 0.5 1.5t0.5 1.5q1 0 1.5 0.5t1.5 0.5q2 0 2.5 -0.5t1.5 -0.5q1 -1 1 -3h-2l-1 1q0 1 -2 1q-1 0 -1 -1v-1q0 -1 2 -1l2 -2
q1 0 1 -2t-1 -3q-1 0 -1.5 -0.5t-2.5 -0.5q-1 0 -2 1t-2 1v2zM240 399l2 13h3l-3 -13h-2zM251 406h5l-1 -5q0 -1 -2 -1q-1 -1 -3 -1q-1 0 -1.5 0.5t-1.5 0.5q-2 2 -2 4q0 3 1 4q0 1 2 3q1 0 1.5 0.5t2.5 0.5q1 0 1.5 -0.5t1.5 -0.5q2 -2 2 -3h-2l-1 1q-1 1 -2 1q-1 -1 -2 -1
q-2 0 -2 -2v-3v-2q1 0 1 -0.5t1 -0.5h2l1 1l1 2h-3v2zM267 399h-2l-3 9l-2 -9h-2l2 13h2l4 -9l1 9h3zM270 399l2 13h9v-3h-7v-2h6v-2h-7v-4h7l-1 -2h-9zM281 399l3 13h3q1 0 1 -0.5t1 -0.5h1h1l1 -1v-2q1 -1 1 -2t-0.5 -1.5t-0.5 -1.5l-2 -2q-1 -1 -2 -1q-1 -1 -3 -1h-4z
M284 401h1q2 0 2 1h1l2 2v3v1l-1 1q-1 0 -1 0.5t-1 0.5h-1zM298 399l2 13h5l1 -1h2l1 -1v-1v-2q-1 -1 -2 -1l1 -1q1 -1 1 -2t-1 -2l-1 -1q-1 0 -1.5 -0.5t-1.5 -0.5h-6zM301 401h2q2 0 2 1h1v1v1q-1 1 -2 1h-3v-4zM302 407h2h2l1 1q0 1 -1 1h-2h-2v-2zM316 399h-2l1 5l-4 8
h3l2 -4v-2l1 1l1 2l2 3h3l-6 -8zM391 398h-2l-1 9l-4 -9h-3v13h2v-9l5 9h2l1 -9l4 9h2zM407 398h-2l-1 9l-4 -9h-3v13h2v-9l5 9h2l1 -9l4 9h2zM423 398h-2l-1 9l-4 -9h-3v13h2v-9l5 9h2l1 -9l4 9h2zM427 401h2v-3h-3zM442 402q0 -1 -2 -3q-1 0 -1.5 -0.5t-1.5 -0.5
q-2 0 -4 2q-1 0 -1 3t1 4q0 1 2 3q1 0 1.5 0.5t1.5 0.5t1 -0.5t1 -0.5h1q2 -2 2 -3h-3v1q-1 0 -1 0.5t-1 0.5q-1 -1 -2 -1q-1 -1 -1 -2q-1 -1 -1 -3q0 -1 0.5 -1t0.5 -1q1 -1 2 -1q1 1 2 1q0 1 1 2zM452 404h-5l-1 -6h-3l3 13h2l-1 -5h5l1 5h2l-2 -13h-3zM458 398h-3l3 13h5
q1 0 1.5 -0.5t1.5 -0.5l1 -1v-2q0 -2 -1 -2q0 -1 -2 -1v-2q2 -2 2 -4h-2q-1 0 -1 1t-0.5 1t-0.5 2q0 1 -1 1h-1h-1zM459 405h2h2l1 1l1 1q0 1 -1 1q0 1 -1 1h-3zM468 398l2 13h3l-3 -13h-2zM473 402h2v-1q1 0 1 -0.5t1 -0.5q2 0 2 1q1 0 1 1l-1 1l-1 1q-2 0 -2 1q-1 0 -1 1
l-1 1q0 1 0.5 1.5t0.5 1.5q1 0 1.5 0.5t1.5 0.5q2 0 2.5 -0.5t1.5 -0.5q1 -1 1 -3h-2l-1 1q0 1 -2 1q-1 0 -1 -1v-1q0 -1 2 -1l2 -2q1 0 1 -2t-1 -3q-1 0 -1.5 -0.5t-2.5 -0.5q-1 0 -2 1t-2 1v2zM490 398h-3l-2 13h2l2 -10l5 10h2zM495 398l2 13h3l-3 -13h-2zM500 398l2 13
h3l-2 -11h6l-1 -2h-8zM510 398l2 13h9v-2h-6l-1 -3h6v-2h-6l-1 -4h7l-1 -2h-9zM522 401h2v-3h-3zM537 402q0 -1 -2 -3q-1 0 -1.5 -0.5t-1.5 -0.5q-2 0 -4 2q-1 0 -1 3t1 4q0 1 2 3q1 0 1.5 0.5t1.5 0.5t1 -0.5t1 -0.5h1q2 -2 2 -3h-3v1q-1 0 -1 0.5t-1 0.5t-1 -0.5t-1 -0.5
q-1 -1 -1 -2q-1 -1 -1 -3q0 -1 1 -2t2 -1l1 1l2 2zM539 403v2l2 3q0 2 2 2q1 1 3 1q1 0 3 -2t2 -3q0 -2 -0.5 -2.5t-0.5 -1.5l-3 -3q-1 0 -1.5 -0.5t-1.5 -0.5q-2 0 -3 1l-2 2v2zM541 403q0 -1 0.5 -1t0.5 -1q1 0 1 -0.5t1 -0.5t1 0.5t1 0.5l2 2v3q0 1 -1 2t-2 1q-2 0 -2 -2
q-2 -2 -2 -4zM558 398h-2l-1 11l-1 -11h-3l3 13h3l1 -9l4 9h3l-2 -13h-2l2 10z" />
    <glyph glyph-name="nine" unicode="9" horiz-adv-x="771" 
d="M374 318q-18 -32 -33 -58.5t-34 -61.5q-50 21 -82 66q-16 22 -26.5 50t-10.5 63q0 36 10.5 64t25.5 50q32 44 83 66v-127h67v211q-61 -3 -104 -25t-75 -54q-31 -31 -52 -77q-11 -23 -17 -49t-6 -57q0 -48 13 -83.5t32 -64.5q39 -58 103 -91q11 -5 22.5 -9.5t24.5 -7.5
q13 -4 26.5 -6.5t29.5 -2.5h2h1v5v199zM391 436q18 32 33 58t34 62q49 -22 82 -67q16 -22 26.5 -49.5t10.5 -63.5q0 -35 -10.5 -63.5t-25.5 -49.5q-16 -22 -36.5 -39t-46.5 -28v128h-67v-211q61 3 104 25t75 54t52 77q10 22 16.5 48.5t6.5 56.5q0 48 -12.5 84t-32.5 65
t-45.5 51.5t-57.5 38.5q-19 10 -47 18q-13 3 -27 5.5t-29 2.5q1 0 -0.5 0.5t-2.5 0.5v-5v-199zM386 23q-72 0 -136 26.5t-115 77.5t-77.5 115t-26.5 136t26.5 135.5t77.5 114.5t115 77.5t136 26.5t135.5 -26.5t114.5 -77.5t77.5 -114.5t26.5 -135.5t-26.5 -136t-77.5 -115
t-114.5 -77.5t-135.5 -26.5zM386 698q-66 0 -124.5 -25t-102 -68.5t-69 -102t-25.5 -124.5t25.5 -124.5t69 -102t102 -69t124.5 -25.5t124 25.5t101.5 69t69 102t25.5 124.5t-25.5 124.5t-69 102t-101.5 68.5t-124 25zM240 358q-3 -8 -9 -12q-7 -4 -13 -4t-14 5q-5 8 -5 15
q0 8 4 15q3 7 9 10q4 4 12 4q6 0 13 -4q5 -5 5 -11l-9 -1l-3 6q-1 1 -6 1t-7 -2q-4 -3 -6 -8q-2 -8 -2 -10q0 -6 3 -9q1 -3 6 -3q4 0 7 3q3 2 5 7zM276 364h-18l-5 -21h-10l10 47h10l-4 -18h18l4 18h10l-10 -47h-10zM301 343h-10l10 47h21q7 0 8 -1q2 -1 3 -2l2 -2
q2 -6 2 -7q0 -7 -4 -10q-2 -3 -11 -5l4 -4q2 -3 3.5 -7t3.5 -9h-10q-1 2 -2 5t-3 7q-2 2 -2.5 4t-2.5 3h-4h-4zM306 370h5h11l4 3q1 1 1 5q0 3 -2 3q-1 1 -6 1h-10zM338 343l10 47h9l-10 -47h-9zM367 359q0 -4 2 -6q1 -3 7 -3q5 0 7 2t2 4q0 3 -1 4q-1 0 -7 3l-8 4
q-3 1 -4 4q-1 1 -1 6q0 6 4 10t12 4q9 0 13 -4q5 -5 5 -10l-9 -1q0 3 -3 5q-2 2 -6 2t-5 -1q-2 -2 -2 -4t1 -3t3 -1.5t4 -2.5l11 -5q3 -5 3 -9q0 -5 -5 -10t-14 -5q-2 0 -10 2q-5 3 -6 6q-2 2 -2 8zM442 343h-10l-9 47h10l6 -36l19 36h10zM462 343l10 47h9l-10 -47h-9z
M481 343l10 47h9l-8 -39h24l-2 -8h-33zM521 343l9 47h35l-1 -8h-26l-2 -10h24l-1 -8h-24l-3 -13h27l-2 -8h-36zM205 399l2 13h4l1 -1h2h1q0 -1 1 -1v-2v-2v-3l-2 -2q-1 -1 -2 -1q-1 -1 -3 -1h-4zM208 401h1q2 0 2 1h1q1 1 1 2q1 1 1 3q0 1 -1 1q0 1 -1 1q0 1 -1 1h-2z
M217 399l3 13h9l-1 -3h-6l-1 -2h6v-2h-6l-1 -4h7l-1 -2h-9zM229 403h2v-1q1 -1 2 -1q2 0 2 1q1 0 1 1l-1 1l-1 1q-2 0 -2 1q-1 0 -1 1l-1 1q0 1 0.5 1.5t0.5 1.5q1 0 1.5 0.5t1.5 0.5q2 0 2.5 -0.5t1.5 -0.5q1 -1 1 -3h-2l-1 1q0 1 -2 1q-1 0 -1 -1v-1q0 -1 2 -1l2 -2
q1 0 1 -2t-1 -3q-1 0 -1.5 -0.5t-2.5 -0.5q-1 0 -2 1t-2 1v2zM240 399l2 13h3l-3 -13h-2zM251 406h5l-1 -5q0 -1 -2 -1q-1 -1 -3 -1q-1 0 -1.5 0.5t-1.5 0.5q-2 2 -2 4q0 3 1 4q0 1 2 3q1 0 1.5 0.5t2.5 0.5q1 0 1.5 -0.5t1.5 -0.5q2 -2 2 -3h-2l-1 1q-1 1 -2 1q-1 -1 -2 -1
q-2 0 -2 -2v-3v-2q1 0 1 -0.5t1 -0.5h2l1 1l1 2h-3v2zM267 399h-2l-3 9l-2 -9h-2l2 13h2l4 -9l1 9h3zM270 399l2 13h9v-3h-7v-2h6v-2h-7v-4h7l-1 -2h-9zM281 399l3 13h3q1 0 1 -0.5t1 -0.5h1h1l1 -1v-2q1 -1 1 -2t-0.5 -1.5t-0.5 -1.5l-2 -2q-1 -1 -2 -1q-1 -1 -3 -1h-4z
M284 401h1q2 0 2 1h1l2 2v3v1l-1 1q-1 0 -1 0.5t-1 0.5h-1zM298 399l2 13h5l1 -1h2l1 -1v-1v-2q-1 -1 -2 -1l1 -1q1 -1 1 -2t-1 -2l-1 -1q-1 0 -1.5 -0.5t-1.5 -0.5h-6zM301 401h2q2 0 2 1h1v1v1q-1 1 -2 1h-3v-4zM302 407h2h2l1 1q0 1 -1 1h-2h-2v-2zM316 399h-2l1 5l-4 8
h3l2 -4v-2l1 1l1 2l2 3h3l-6 -8zM391 398h-2l-1 9l-4 -9h-3v13h2v-9l5 9h2l1 -9l4 9h2zM407 398h-2l-1 9l-4 -9h-3v13h2v-9l5 9h2l1 -9l4 9h2zM423 398h-2l-1 9l-4 -9h-3v13h2v-9l5 9h2l1 -9l4 9h2zM427 401h2v-3h-3zM442 402q0 -1 -2 -3q-1 0 -1.5 -0.5t-1.5 -0.5
q-2 0 -4 2q-1 0 -1 3t1 4q0 1 2 3q1 0 1.5 0.5t1.5 0.5t1 -0.5t1 -0.5h1q2 -2 2 -3h-3v1q-1 0 -1 0.5t-1 0.5q-1 -1 -2 -1q-1 -1 -1 -2q-1 -1 -1 -3q0 -1 0.5 -1t0.5 -1q1 -1 2 -1q1 1 2 1q0 1 1 2zM452 404h-5l-1 -6h-3l3 13h2l-1 -5h5l1 5h2l-2 -13h-3zM458 398h-3l3 13h5
q1 0 1.5 -0.5t1.5 -0.5l1 -1v-2q0 -2 -1 -2q0 -1 -2 -1v-2q2 -2 2 -4h-2q-1 0 -1 1t-0.5 1t-0.5 2q0 1 -1 1h-1h-1zM459 405h2h2l1 1l1 1q0 1 -1 1q0 1 -1 1h-3zM468 398l2 13h3l-3 -13h-2zM473 402h2v-1q1 0 1 -0.5t1 -0.5q2 0 2 1q1 0 1 1l-1 1l-1 1q-2 0 -2 1q-1 0 -1 1
l-1 1q0 1 0.5 1.5t0.5 1.5q1 0 1.5 0.5t1.5 0.5q2 0 2.5 -0.5t1.5 -0.5q1 -1 1 -3h-2l-1 1q0 1 -2 1q-1 0 -1 -1v-1q0 -1 2 -1l2 -2q1 0 1 -2t-1 -3q-1 0 -1.5 -0.5t-2.5 -0.5q-1 0 -2 1t-2 1v2zM490 398h-3l-2 13h2l2 -10l5 10h2zM495 398l2 13h3l-3 -13h-2zM500 398l2 13
h3l-2 -11h6l-1 -2h-8zM510 398l2 13h9v-2h-6l-1 -3h6v-2h-6l-1 -4h7l-1 -2h-9zM522 401h2v-3h-3zM537 402q0 -1 -2 -3q-1 0 -1.5 -0.5t-1.5 -0.5q-2 0 -4 2q-1 0 -1 3t1 4q0 1 2 3q1 0 1.5 0.5t1.5 0.5t1 -0.5t1 -0.5h1q2 -2 2 -3h-3v1q-1 0 -1 0.5t-1 0.5t-1 -0.5t-1 -0.5
q-1 -1 -1 -2q-1 -1 -1 -3q0 -1 1 -2t2 -1l1 1l2 2zM539 403v2l2 3q0 2 2 2q1 1 3 1q1 0 3 -2t2 -3q0 -2 -0.5 -2.5t-0.5 -1.5l-3 -3q-1 0 -1.5 -0.5t-1.5 -0.5q-2 0 -3 1l-2 2v2zM541 403q0 -1 0.5 -1t0.5 -1q1 0 1 -0.5t1 -0.5t1 0.5t1 0.5l2 2v3q0 1 -1 2t-2 1q-2 0 -2 -2
q-2 -2 -2 -4zM558 398h-2l-1 11l-1 -11h-3l3 13h3l1 -9l4 9h3l-2 -13h-2l2 10z" />
    <glyph glyph-name="A" unicode="A" horiz-adv-x="824" 
d="M511 393l-99 231l-99 -231h198zM248 264h330l-16 30h-299q-2 -5 -4.5 -10t-4.5 -10zM629 163h-432q-21 -42 -43.5 -85.5t-40.5 -78.5h-109q28 55 49 97t36 73t25.5 52.5t16.5 35.5q15 33 16 37h-66q15 24 28.5 45t32.5 52h58l212 453h2q20 -43 51 -108q26 -56 65 -140.5
t92 -202.5h63q12 -27 22.5 -49t22.5 -48h-55q0 -2 8 -18.5t20.5 -42.5t28.5 -58t32 -64.5t31 -62.5t25 -51h-106l-8 14.5t-20 38t-27 52.5t-30 59z" />
    <glyph glyph-name="B" unicode="B" horiz-adv-x="772" 
d="M739 239q0 -42 -9 -71t-23.5 -49.5t-33.5 -35.5l-38 -30q-23 -16 -56 -27q-28 -10 -69 -18t-96 -8h-331v398h-49v98h49v348h366q44 -8 84 -27.5t69.5 -51t46 -74.5t13.5 -96q-3 -48 -25 -77t-54 -51q34 0 62.5 -20.5t49.5 -53t32.5 -73t11.5 -81.5zM211 99v300h-31v-300
h31zM305 398v-300q42 -1 83.5 0t79 5.5t70 13.5t56.5 26q10 7 19.5 17t16.5 21q6 12 9.5 32t2 44t-10.5 48t-30 44q-20 19 -55.5 28.5t-71 14t-63.5 5t-32 0.5q-15 1 -34.5 1h-39.5zM211 497v250h-33q-1 -5 -1 -32q0 -24 0.5 -74.5t2.5 -143.5h31zM305 747v-250h88
q27 -3 49 0.5t38.5 11.5t28.5 19.5t21 23.5q20 29 28 67q5 40 -11 65t-38.5 39t-44.5 19t-29 5h-130z" />
    <glyph glyph-name="C" unicode="C" horiz-adv-x="778" 
d="M30 420q0 103 24.5 184.5t69.5 137t109 85t144 29.5q54 0 112 -23.5t106 -61.5t79 -87.5t31 -100.5h-91q0 27 -19.5 56.5t-48 54t-61.5 40.5t-59 16q0 -73 -0.5 -157.5t-0.5 -172.5v-173.5v-159.5q41 3 81 30q17 12 35 30t35 44t33 62t28 83h111q-9 -66 -30 -116.5
t-49 -88t-60.5 -63.5t-65.5 -42q-77 -39 -169 -44q-89 0 -153.5 37t-107 98t-63 140t-20.5 163zM196 172v507q-37 -46 -58.5 -113t-21.5 -144q0 -80 23 -143t57 -107zM290 744v-648q17 -7 34 -7v660h-2q-14 0 -32 -5z" />
    <glyph glyph-name="D" unicode="D" horiz-adv-x="741" 
d="M289 844q88 0 162 -35t127 -93.5t82.5 -135t29.5 -159.5q0 -68 -19 -125.5t-50.5 -104.5t-72 -83t-83.5 -60t-85 -36.5t-77 -12.5h-65h-79t-108 1v844h238zM176 100v643q-8 0 -16 0.5t-16 0.5q-2 0 -2 -4v-641q8 0 16.5 0.5t17.5 0.5zM270 739v-635h24q46 0 99.5 23.5
t99.5 65.5t76.5 100t30.5 128q0 55 -19.5 112t-58.5 102.5t-97.5 74.5t-135.5 29h-19z" />
    <glyph glyph-name="E" unicode="E" horiz-adv-x="728" 
d="M210 99v324h-28v-324h28zM210 520v227h-28q-2 -59 -1 -112t1 -115h28zM304 747v-227q89 -1 178 -0.5t178 0.5v-97h-356v-325q91 -1 182 0t183 -1v-98h-581v422q-6 2 -13.5 1t-15.5 1v97h29v324h581v-97h-365z" />
    <glyph glyph-name="F" unicode="F" horiz-adv-x="737" 
d="M214 527v220h-35l-2 -220h37zM308 747v-220h319v-105h-319v-424h-94v424h-35q0 -114 -0.5 -193.5t-0.5 -130.5q-1 -60 -1 -98h-96v422h-27v105h27v318h603v-98h-376z" />
    <glyph glyph-name="G" unicode="G" horiz-adv-x="785" 
d="M279 29q-78 46 -127 122.5t-63 185.5h-63v100h56q0 9 2.5 44t13.5 81.5t34 98t63.5 95t101.5 72t148 28.5q57 0 111 -19.5t96 -55.5t67.5 -87t25.5 -114h-95q-4 0 -10.5 13t-17 33t-25.5 42.5t-36.5 42.5t-50.5 33t-67 13q-57 0 -98 -20.5t-70 -52.5t-47 -70.5t-28.5 -74
t-14 -63t-3.5 -37.5q145 -2 288 -1t289 -1v-46v-58t-0.5 -52.5t-1.5 -29.5q-2 -11 -8 -25t-11 -26q-24 -60 -67 -106t-100 -75q-33 -16 -73 -24.5t-93 -5.5q-35 2 -67 13t-59 27zM658 310v27h-480q-2 0 -1 -1t1 -3l2 -12t2 -11h476zM221 215q10 -14 20.5 -27.5t23.5 -26.5
q34 -34 79.5 -55.5t108.5 -16.5q38 3 71 17.5t59 37.5q11 9 26 30t28 41h-416z" />
    <glyph glyph-name="H" unicode="H" horiz-adv-x="800" 
d="M192 353h424v27h-424v-27zM616 259h-425q0 -67 0.5 -134.5t0.5 -125.5h-101v379q-15 2 -34 1t-39 1v101h73v363h101v-363h422q2 88 2 176v177h99v-353q15 -2 32 -1t34 1v-101q-14 -2 -31.5 -1t-32.5 1q-1 -9 -1 -17.5v-18.5v-85h-1q0 -67 0.5 -134.5t-0.5 -125.5h-99v260
z" />
    <glyph glyph-name="I" unicode="I" horiz-adv-x="608" 
d="M387 102v643h-36v-641q9 -1 18 -1.5t18 -0.5zM481 820v-75v-643v-75v-26h-354v101h125v641q-29 3 -61.5 1.5t-63.5 0.5v99h354v-24z" />
    <glyph glyph-name="J" unicode="J" horiz-adv-x="721" 
d="M442 300v-195q30 32 37 83t5 112h-42zM442 763v-376h42v376h-42zM348 300h-181q-4 0 -4 -4q0 -46 3 -86.5t21 -72.5q17 -29 47.5 -48t75.5 -22q9 0 18.5 -0.5t19.5 0.5v233zM443 0q-20 -8 -44 -13t-51 -6h-40q-115 11 -176 70t-68 165q-2 42 -1 85t1 86h284v376h-60.5
t-59.5 2v85h431v-87h-74q-1 -37 -1.5 -86t-0.5 -100.5v-101v-87.5q17 -2 37.5 -1t38.5 0v-87h-74q2 -69 -7 -125.5t-37 -98.5q-17 -25 -41.5 -44.5t-56.5 -31.5z" />
    <glyph glyph-name="K" unicode="K" horiz-adv-x="805" 
d="M210 370l-16 -16t-15 -13v-341h-101v336h-63v97h63q2 100 2 206v204h99v-362q0 -1 8.5 6.5t22.5 21.5v333h94v-243q33 32 73 71q34 33 79.5 77.5t99.5 97.5h130q-23 -23 -58.5 -59t-75.5 -76l-80.5 -80.5t-72.5 -73t-52.5 -53l-20.5 -20.5q7 -8 58 -62q22 -23 55.5 -58
t82.5 -86t115 -119t153 -158h-138l-348 360v-363h-94v373z" />
    <glyph glyph-name="L" unicode="L" horiz-adv-x="696" 
d="M302 844v-740h317v-101h-542v841h98v-740h33v740h94z" />
    <glyph glyph-name="M" unicode="M" horiz-adv-x="786" 
d="M241 271v-272h-94v444q-5 10 -11 19t-11 19v-482h-99v844q13 -22 38 -65.5t56 -99t66 -118t68 -122.5q19 -34 36.5 -66t33.5 -60l291 532h108l-344 -629q5 -8 8.5 -14t5.5 -10q45 78 90.5 161t91.5 167t91.5 166.5t92.5 158.5h1v-845q-23 0 -49.5 0.5t-51.5 -0.5v482
q-33 -54 -66 -115.5t-66.5 -124.5t-67 -125t-66.5 -117q-32 51 -63.5 107.5t-62.5 116.5q-7 12 -13 24t-13 24z" />
    <glyph glyph-name="N" unicode="N" horiz-adv-x="732" 
d="M154 398v-404h-97v501v338l400 -451v463h94v-569l20 -23q1 -2 2 -2.5t1 0.5v2v592h101v-845l-228 254l-293 327v-41l485 -540h-129z" />
    <glyph glyph-name="O" unicode="O" horiz-adv-x="821" 
d="M126 108q-48 51 -81 125.5t-38 167.5q-2 27 0 51q3 44 12.5 86t26.5 78q47 101 131 164.5t209 77.5q11 0 23.5 0.5t24.5 -0.5q43 -3 81 -14.5t70.5 -28.5t60.5 -39t51 -47q47 -51 80 -121t38 -165v-31q-5 -96 -38 -173t-82 -129q-48 -51 -114.5 -84.5t-157.5 -38.5h-27
q-89 5 -155.5 37.5t-114.5 83.5zM107 465h603q-8 67 -33.5 116t-63.5 86q-19 18 -41.5 33.5t-48.5 27.5t-56 18.5t-64 5.5q-64 -2 -114 -27t-88 -62q-35 -35 -60.5 -85t-33.5 -113zM662 239h-504q23 -41 57 -73q36 -32 84.5 -53t111.5 -21t111.5 22t83.5 54q32 30 56 71z
M120 333h579q2 7 3 13.5t3 12.5h-591q-2 0 0 -3q2 -6 3 -11.5t3 -11.5z" />
    <glyph glyph-name="P" unicode="P" horiz-adv-x="723" 
d="M253 310h-6h-16q0 -78 -1 -156.5t-1 -154.5h-99v309q-16 3 -33.5 2.5t-34.5 -0.5v101h68v433h258q60 -9 108.5 -28t86.5 -54q35 -32 58.5 -80.5t19.5 -115.5q-4 -60 -32 -104.5t-67 -73.5q-28 -20 -64 -37.5t-76 -28.5q-13 -4 -27.5 -7t-28.5 -5h-19v-311h-94v311z
M347 525v-114h15q14 1 29 6.5t29 10.5q42 14 76 37t51 60h-200zM253 525h-6h-16q-2 0 -2 -3v-111h18h6v114zM347 745v-119h208q-6 28 -25 48t-43 34q-23 14 -53 25.5t-62 11.5h-25zM253 745h-6h-16q-2 0 -2 -3v-116h18h6v119z" />
    <glyph glyph-name="Q" unicode="Q" horiz-adv-x="900" 
d="M634 250q43 73 43 173q-1 50 -14.5 93t-33.5 78q-29 48 -73 85.5t-102 54.5q-41 13 -82 13t-78.5 -10t-69.5 -28.5t-55 -41.5q118 -103 232.5 -208.5t232.5 -208.5zM93 562l458 -411q6 5 11 9t5 6l-24 22t-63 57.5t-88.5 80t-101 90.5t-100.5 89.5t-86 76.5
q-7 -10 -11 -20zM64 461q-1 -11 -1.5 -22t-0.5 -22q0 -55 14 -101t37.5 -83t54 -64.5t63.5 -45.5q17 -10 38 -17t45 -12q79 -13 149 10zM550 27q-48 -28 -99 -38q-64 -14 -130.5 -5.5t-117.5 32.5q-100 48 -163.5 141t-77.5 234q0 14 -0.5 27t0.5 26q1 24 5 47t10 46
q6 19 12 37t13 35q48 105 133 169t210 78h50q118 -13 199.5 -71.5t129.5 -149.5q25 -47 41 -107t12 -128q-3 -66 -19.5 -121t-45.5 -100l29 -23q22 -17 67.5 -53.5t130.5 -102.5h-141q-23 17 -49 35.5t-47 33.5q-26 18 -49 35q-22 -20 -48 -40t-55 -37z" />
    <glyph glyph-name="R" unicode="R" horiz-adv-x="777" 
d="M316 309v-310h-94v336h-20q-2 -36 -2.5 -79t-0.5 -88t0.5 -89t0.5 -80h-101v335h-68v97h68v413h265q53 -9 98.5 -25t80.5 -43q34 -26 58 -64t29 -90q7 -59 -11.5 -102t-47.5 -75q-31 -33 -69.5 -54t-84.5 -37q30 -32 77 -82q40 -43 102 -109.5t150 -163.5h-121
q-10 8 -31 29l-49.5 49.5t-60.5 61.5t-63.5 64.5t-58.5 59.5t-46 46zM222 431v109h-20q-2 -1 -2 -3v-106h22zM316 540v-107h26q5 0 25.5 5t47.5 17t54.5 32.5t46.5 52.5h-200zM222 636v114h-20v-114h20zM316 750v-114h208q-6 29 -29 50t-53 35q-53 27 -126 29z" />
    <glyph glyph-name="S" unicode="S" horiz-adv-x="806" 
d="M123 844l461 -758h38q-12 19 -65 106q-23 37 -56.5 92t-82.5 134t-113.5 184t-148.5 242h563v-281h-90v191l-306 2q118 -200 205.5 -342t146.5 -235q69 -108 116 -180h-632v385h87v-297q57 -1 113.5 -1h114.5l-459 758h108z" />
    <glyph glyph-name="T" unicode="T" horiz-adv-x="781" 
d="M328 633h-299v94h299v17q-73 1 -148 0.5t-149 -0.5v100h718v-100h-320v-17h323v-94h-323q0 -78 -0.5 -159.5t-0.5 -162.5v-160v-152h-100v634z" />
    <glyph glyph-name="U" unicode="U" horiz-adv-x="800" 
d="M430 113q21 6 39 14.5t32 19.5q-17 19 -35 38.5t-36 40.5q-39 45 -78 93t-78.5 95t-79 92.5t-79.5 86.5v-26t-0.5 -64.5t-0.5 -85v-87v-70.5t1 -36q3 -25 19.5 -48t33.5 -36q22 -17 53.5 -26.5t67 -12.5t72.5 0t69 12zM524 844v-574q20 -22 23 -26q5 -4 5.5 -5.5t1.5 2.5
q3 4 1.5 8t-1.5 13v582h101v-632q0 -17 -7 -29.5t-13 -26.5q9 -11 29.5 -33.5t43 -46.5t43.5 -45.5t30 -31.5h-135q-19 17 -38 37.5t-37 38.5q-27 -24 -64.5 -41t-82 -26t-93.5 -9.5t-98 8.5q-86 17 -142.5 68.5t-72.5 136.5v631q6 -6 28.5 -31.5t55.5 -63.5t74.5 -85
t85.5 -97t87.5 -99t80.5 -91v468h94z" />
    <glyph glyph-name="V" unicode="V" horiz-adv-x="823" 
d="M286 254q-39 81 -85 176q-39 81 -89.5 187.5t-106.5 226.5h104q24 -47 54 -107.5t61 -125.5t61.5 -128.5t56.5 -116.5l224 478h104l-275 -587q8 -17 12.5 -25.5t5.5 -9.5q26 52 58.5 118.5t66 136t65 135.5t56.5 117.5t40.5 83l15.5 31.5h103q-51 -101 -102 -207.5
t-101.5 -214.5t-100.5 -215t-101 -208q-27 52 -59.5 117.5t-67.5 137.5z" />
    <glyph glyph-name="W" unicode="W" horiz-adv-x="786" 
d="M246 844v-261q37 68 74 134.5t75 126.5q33 -56 66 -117t66 -122.5t66 -122t66 -114.5v478q26 -2 52 -0.5t49 -1.5v-841q-93 155 -184 322.5t-181 322.5q-3 -5 -8.5 -13.5t-12.5 -20.5l343 -615h-108l-290 520q-14 -24 -29 -51t-32 -56q-34 -60 -69.5 -122.5t-67 -118
t-57 -99.5t-38.5 -66v838h99v-476q7 11 13.5 23t14.5 23v430h93z" />
    <glyph glyph-name="X" unicode="X" horiz-adv-x="863" 
d="M98 844l300 -394l16 26l-273 368h103q10 -12 37 -47q23 -30 68 -89t122 -159l220 295h111l-275 -370l354 -475h-100l-310 400l-16 -24l288 -376h-125l-220 292l-195 -290l-103 -1l242 365l-359 479h115z" />
    <glyph glyph-name="Y" unicode="Y" horiz-adv-x="763" 
d="M106 752q-19 26 -36 49.5t-31 42.5h67h52q37 -52 69 -94q19 -26 37.5 -50.5t37.5 -50t39 -53t43 -59.5q3 4 19 24t38.5 50t50 66.5t54.5 72.5q19 26 36.5 50t32.5 44h36h73q-17 -24 -34.5 -48t-34.5 -49q-56 -78 -111.5 -154.5t-111.5 -154.5v-439h-99v72v90.5v95v86.5
v64.5v28.5q-1 2 -7.5 11.5t-18.5 26.5v-475h-94v606q-26 35 -53 72.5t-53 72.5h-1v2z" />
    <glyph glyph-name="Z" unicode="Z" horiz-adv-x="837" 
d="M641 97v-98h-355h-288v1l485 744l-437 1v99l639 -1q-123 -191 -214 -330.5t-152 -232.5q-71 -108 -122 -183h36l494 747h113l-495 -747h296z" />
    <glyph glyph-name="bracketleft" unicode="[" 
 />
    <glyph glyph-name="backslash" unicode="\" 
 />
    <glyph glyph-name="bracketright" unicode="]" 
 />
    <glyph glyph-name="asciicircum" unicode="^" 
 />
    <glyph glyph-name="underscore" unicode="_" 
 />
    <glyph glyph-name="grave" unicode="`" 
 />
    <glyph glyph-name="a" unicode="a" horiz-adv-x="824" 
d="M511 393l-99 231l-99 -231h198zM248 264h330l-16 30h-299q-2 -5 -4.5 -10t-4.5 -10zM629 163h-432q-21 -42 -43.5 -85.5t-40.5 -78.5h-109q28 55 49 97t36 73t25.5 52.5t16.5 35.5q15 33 16 37h-66q15 24 28.5 45t32.5 52h58l212 453h2q20 -43 51 -108q26 -56 65 -140.5
t92 -202.5h63q12 -27 22.5 -49t22.5 -48h-55q0 -2 8 -18.5t20.5 -42.5t28.5 -58t32 -64.5t31 -62.5t25 -51h-106l-8 14.5t-20 38t-27 52.5t-30 59z" />
    <glyph glyph-name="b" unicode="b" horiz-adv-x="772" 
d="M739 239q0 -42 -9 -71t-23.5 -49.5t-33.5 -35.5l-38 -30q-23 -16 -56 -27q-28 -10 -69 -18t-96 -8h-331v398h-49v98h49v348h366q44 -8 84 -27.5t69.5 -51t46 -74.5t13.5 -96q-3 -48 -25 -77t-54 -51q34 0 62.5 -20.5t49.5 -53t32.5 -73t11.5 -81.5zM211 99v300h-31v-300
h31zM305 398v-300q42 -1 83.5 0t79 5.5t70 13.5t56.5 26q10 7 19.5 17t16.5 21q6 12 9.5 32t2 44t-10.5 48t-30 44q-20 19 -55.5 28.5t-71 14t-63.5 5t-32 0.5q-15 1 -34.5 1h-39.5zM211 497v250h-33q-1 -5 -1 -32q0 -24 0.5 -74.5t2.5 -143.5h31zM305 747v-250h88
q27 -3 49 0.5t38.5 11.5t28.5 19.5t21 23.5q20 29 28 67q5 40 -11 65t-38.5 39t-44.5 19t-29 5h-130z" />
    <glyph glyph-name="c" unicode="c" horiz-adv-x="778" 
d="M30 420q0 103 24.5 184.5t69.5 137t109 85t144 29.5q54 0 112 -23.5t106 -61.5t79 -87.5t31 -100.5h-91q0 27 -19.5 56.5t-48 54t-61.5 40.5t-59 16q0 -73 -0.5 -157.5t-0.5 -172.5v-173.5v-159.5q41 3 81 30q17 12 35 30t35 44t33 62t28 83h111q-9 -66 -30 -116.5
t-49 -88t-60.5 -63.5t-65.5 -42q-77 -39 -169 -44q-89 0 -153.5 37t-107 98t-63 140t-20.5 163zM196 172v507q-37 -46 -58.5 -113t-21.5 -144q0 -80 23 -143t57 -107zM290 744v-648q17 -7 34 -7v660h-2q-14 0 -32 -5z" />
    <glyph glyph-name="d" unicode="d" horiz-adv-x="741" 
d="M289 844q88 0 162 -35t127 -93.5t82.5 -135t29.5 -159.5q0 -68 -19 -125.5t-50.5 -104.5t-72 -83t-83.5 -60t-85 -36.5t-77 -12.5h-65h-79t-108 1v844h238zM176 100v643q-8 0 -16 0.5t-16 0.5q-2 0 -2 -4v-641q8 0 16.5 0.5t17.5 0.5zM270 739v-635h24q46 0 99.5 23.5
t99.5 65.5t76.5 100t30.5 128q0 55 -19.5 112t-58.5 102.5t-97.5 74.5t-135.5 29h-19z" />
    <glyph glyph-name="e" unicode="e" horiz-adv-x="728" 
d="M210 99v324h-28v-324h28zM210 520v227h-28q-2 -59 -1 -112t1 -115h28zM304 747v-227q89 -1 178 -0.5t178 0.5v-97h-356v-325q91 -1 182 0t183 -1v-98h-581v422q-6 2 -13.5 1t-15.5 1v97h29v324h581v-97h-365z" />
    <glyph glyph-name="f" unicode="f" horiz-adv-x="737" 
d="M214 527v220h-35l-2 -220h37zM308 747v-220h319v-105h-319v-424h-94v424h-35q0 -114 -0.5 -193.5t-0.5 -130.5q-1 -60 -1 -98h-96v422h-27v105h27v318h603v-98h-376z" />
    <glyph glyph-name="g" unicode="g" horiz-adv-x="785" 
d="M279 29q-78 46 -127 122.5t-63 185.5h-63v100h56q0 9 2.5 44t13.5 81.5t34 98t63.5 95t101.5 72t148 28.5q57 0 111 -19.5t96 -55.5t67.5 -87t25.5 -114h-95q-4 0 -10.5 13t-17 33t-25.5 42.5t-36.5 42.5t-50.5 33t-67 13q-57 0 -98 -20.5t-70 -52.5t-47 -70.5t-28.5 -74
t-14 -63t-3.5 -37.5q145 -2 288 -1t289 -1v-46v-58t-0.5 -52.5t-1.5 -29.5q-2 -11 -8 -25t-11 -26q-24 -60 -67 -106t-100 -75q-33 -16 -73 -24.5t-93 -5.5q-35 2 -67 13t-59 27zM658 310v27h-480q-2 0 -1 -1t1 -3l2 -12t2 -11h476zM221 215q10 -14 20.5 -27.5t23.5 -26.5
q34 -34 79.5 -55.5t108.5 -16.5q38 3 71 17.5t59 37.5q11 9 26 30t28 41h-416z" />
    <glyph glyph-name="h" unicode="h" horiz-adv-x="800" 
d="M192 353h424v27h-424v-27zM616 259h-425q0 -67 0.5 -134.5t0.5 -125.5h-101v379q-15 2 -34 1t-39 1v101h73v363h101v-363h422q2 88 2 176v177h99v-353q15 -2 32 -1t34 1v-101q-14 -2 -31.5 -1t-32.5 1q-1 -9 -1 -17.5v-18.5v-85h-1q0 -67 0.5 -134.5t-0.5 -125.5h-99v260
z" />
    <glyph glyph-name="i" unicode="i" horiz-adv-x="608" 
d="M387 102v643h-36v-641q9 -1 18 -1.5t18 -0.5zM481 820v-75v-643v-75v-26h-354v101h125v641q-29 3 -61.5 1.5t-63.5 0.5v99h354v-24z" />
    <glyph glyph-name="j" unicode="j" horiz-adv-x="721" 
d="M442 300v-195q30 32 37 83t5 112h-42zM442 763v-376h42v376h-42zM348 300h-181q-4 0 -4 -4q0 -46 3 -86.5t21 -72.5q17 -29 47.5 -48t75.5 -22q9 0 18.5 -0.5t19.5 0.5v233zM443 0q-20 -8 -44 -13t-51 -6h-40q-115 11 -176 70t-68 165q-2 42 -1 85t1 86h284v376h-60.5
t-59.5 2v85h431v-87h-74q-1 -37 -1.5 -86t-0.5 -100.5v-101v-87.5q17 -2 37.5 -1t38.5 0v-87h-74q2 -69 -7 -125.5t-37 -98.5q-17 -25 -41.5 -44.5t-56.5 -31.5z" />
    <glyph glyph-name="k" unicode="k" horiz-adv-x="805" 
d="M210 370l-16 -16t-15 -13v-341h-101v336h-63v97h63q2 100 2 206v204h99v-362q0 -1 8.5 6.5t22.5 21.5v333h94v-243q33 32 73 71q34 33 79.5 77.5t99.5 97.5h130q-23 -23 -58.5 -59t-75.5 -76l-80.5 -80.5t-72.5 -73t-52.5 -53l-20.5 -20.5q7 -8 58 -62q22 -23 55.5 -58
t82.5 -86t115 -119t153 -158h-138l-348 360v-363h-94v373z" />
    <glyph glyph-name="l" unicode="l" horiz-adv-x="696" 
d="M302 844v-740h317v-101h-542v841h98v-740h33v740h94z" />
    <glyph glyph-name="m" unicode="m" horiz-adv-x="786" 
d="M241 271v-272h-94v444q-5 10 -11 19t-11 19v-482h-99v844q13 -22 38 -65.5t56 -99t66 -118t68 -122.5q19 -34 36.5 -66t33.5 -60l291 532h108l-344 -629q5 -8 8.5 -14t5.5 -10q45 78 90.5 161t91.5 167t91.5 166.5t92.5 158.5h1v-845q-23 0 -49.5 0.5t-51.5 -0.5v482
q-33 -54 -66 -115.5t-66.5 -124.5t-67 -125t-66.5 -117q-32 51 -63.5 107.5t-62.5 116.5q-7 12 -13 24t-13 24z" />
    <glyph glyph-name="n" unicode="n" horiz-adv-x="732" 
d="M154 398v-404h-97v501v338l400 -451v463h94v-569l20 -23q1 -2 2 -2.5t1 0.5v2v592h101v-845l-228 254l-293 327v-41l485 -540h-129z" />
    <glyph glyph-name="o" unicode="o" horiz-adv-x="821" 
d="M126 108q-48 51 -81 125.5t-38 167.5q-2 27 0 51q3 44 12.5 86t26.5 78q47 101 131 164.5t209 77.5q11 0 23.5 0.5t24.5 -0.5q43 -3 81 -14.5t70.5 -28.5t60.5 -39t51 -47q47 -51 80 -121t38 -165v-31q-5 -96 -38 -173t-82 -129q-48 -51 -114.5 -84.5t-157.5 -38.5h-27
q-89 5 -155.5 37.5t-114.5 83.5zM107 465h603q-8 67 -33.5 116t-63.5 86q-19 18 -41.5 33.5t-48.5 27.5t-56 18.5t-64 5.5q-64 -2 -114 -27t-88 -62q-35 -35 -60.5 -85t-33.5 -113zM662 239h-504q23 -41 57 -73q36 -32 84.5 -53t111.5 -21t111.5 22t83.5 54q32 30 56 71z
M120 333h579q2 7 3 13.5t3 12.5h-591q-2 0 0 -3q2 -6 3 -11.5t3 -11.5z" />
    <glyph glyph-name="p" unicode="p" horiz-adv-x="723" 
d="M253 310h-6h-16q0 -78 -1 -156.5t-1 -154.5h-99v309q-16 3 -33.5 2.5t-34.5 -0.5v101h68v433h258q60 -9 108.5 -28t86.5 -54q35 -32 58.5 -80.5t19.5 -115.5q-4 -60 -32 -104.5t-67 -73.5q-28 -20 -64 -37.5t-76 -28.5q-13 -4 -27.5 -7t-28.5 -5h-19v-311h-94v311z
M347 525v-114h15q14 1 29 6.5t29 10.5q42 14 76 37t51 60h-200zM253 525h-6h-16q-2 0 -2 -3v-111h18h6v114zM347 745v-119h208q-6 28 -25 48t-43 34q-23 14 -53 25.5t-62 11.5h-25zM253 745h-6h-16q-2 0 -2 -3v-116h18h6v119z" />
    <glyph glyph-name="q" unicode="q" horiz-adv-x="900" 
d="M634 250q43 73 43 173q-1 50 -14.5 93t-33.5 78q-29 48 -73 85.5t-102 54.5q-41 13 -82 13t-78.5 -10t-69.5 -28.5t-55 -41.5q118 -103 232.5 -208.5t232.5 -208.5zM93 562l458 -411q6 5 11 9t5 6l-24 22t-63 57.5t-88.5 80t-101 90.5t-100.5 89.5t-86 76.5
q-7 -10 -11 -20zM64 461q-1 -11 -1.5 -22t-0.5 -22q0 -55 14 -101t37.5 -83t54 -64.5t63.5 -45.5q17 -10 38 -17t45 -12q79 -13 149 10zM550 27q-48 -28 -99 -38q-64 -14 -130.5 -5.5t-117.5 32.5q-100 48 -163.5 141t-77.5 234q0 14 -0.5 27t0.5 26q1 24 5 47t10 46
q6 19 12 37t13 35q48 105 133 169t210 78h50q118 -13 199.5 -71.5t129.5 -149.5q25 -47 41 -107t12 -128q-3 -66 -19.5 -121t-45.5 -100l29 -23q22 -17 67.5 -53.5t130.5 -102.5h-141q-23 17 -49 35.5t-47 33.5q-26 18 -49 35q-22 -20 -48 -40t-55 -37z" />
    <glyph glyph-name="r" unicode="r" horiz-adv-x="777" 
d="M316 309v-310h-94v336h-20q-2 -36 -2.5 -79t-0.5 -88t0.5 -89t0.5 -80h-101v335h-68v97h68v413h265q53 -9 98.5 -25t80.5 -43q34 -26 58 -64t29 -90q7 -59 -11.5 -102t-47.5 -75q-31 -33 -69.5 -54t-84.5 -37q30 -32 77 -82q40 -43 102 -109.5t150 -163.5h-121
q-10 8 -31 29l-49.5 49.5t-60.5 61.5t-63.5 64.5t-58.5 59.5t-46 46zM222 431v109h-20q-2 -1 -2 -3v-106h22zM316 540v-107h26q5 0 25.5 5t47.5 17t54.5 32.5t46.5 52.5h-200zM222 636v114h-20v-114h20zM316 750v-114h208q-6 29 -29 50t-53 35q-53 27 -126 29z" />
    <glyph glyph-name="s" unicode="s" horiz-adv-x="806" 
d="M123 844l461 -758h38q-12 19 -65 106q-23 37 -56.5 92t-82.5 134t-113.5 184t-148.5 242h563v-281h-90v191l-306 2q118 -200 205.5 -342t146.5 -235q69 -108 116 -180h-632v385h87v-297q57 -1 113.5 -1h114.5l-459 758h108z" />
    <glyph glyph-name="t" unicode="t" horiz-adv-x="781" 
d="M328 633h-299v94h299v17q-73 1 -148 0.5t-149 -0.5v100h718v-100h-320v-17h323v-94h-323q0 -78 -0.5 -159.5t-0.5 -162.5v-160v-152h-100v634z" />
    <glyph glyph-name="u" unicode="u" horiz-adv-x="800" 
d="M430 113q21 6 39 14.5t32 19.5q-17 19 -35 38.5t-36 40.5q-39 45 -78 93t-78.5 95t-79 92.5t-79.5 86.5v-26t-0.5 -64.5t-0.5 -85v-87v-70.5t1 -36q3 -25 19.5 -48t33.5 -36q22 -17 53.5 -26.5t67 -12.5t72.5 0t69 12zM524 844v-574q20 -22 23 -26q5 -4 5.5 -5.5t1.5 2.5
q3 4 1.5 8t-1.5 13v582h101v-632q0 -17 -7 -29.5t-13 -26.5q9 -11 29.5 -33.5t43 -46.5t43.5 -45.5t30 -31.5h-135q-19 17 -38 37.5t-37 38.5q-27 -24 -64.5 -41t-82 -26t-93.5 -9.5t-98 8.5q-86 17 -142.5 68.5t-72.5 136.5v631q6 -6 28.5 -31.5t55.5 -63.5t74.5 -85
t85.5 -97t87.5 -99t80.5 -91v468h94z" />
    <glyph glyph-name="v" unicode="v" horiz-adv-x="823" 
d="M286 254q-39 81 -85 176q-39 81 -89.5 187.5t-106.5 226.5h104q24 -47 54 -107.5t61 -125.5t61.5 -128.5t56.5 -116.5l224 478h104l-275 -587q8 -17 12.5 -25.5t5.5 -9.5q26 52 58.5 118.5t66 136t65 135.5t56.5 117.5t40.5 83l15.5 31.5h103q-51 -101 -102 -207.5
t-101.5 -214.5t-100.5 -215t-101 -208q-27 52 -59.5 117.5t-67.5 137.5z" />
    <glyph glyph-name="w" unicode="w" horiz-adv-x="786" 
d="M246 844v-261q37 68 74 134.5t75 126.5q33 -56 66 -117t66 -122.5t66 -122t66 -114.5v478q26 -2 52 -0.5t49 -1.5v-841q-93 155 -184 322.5t-181 322.5q-3 -5 -8.5 -13.5t-12.5 -20.5l343 -615h-108l-290 520q-14 -24 -29 -51t-32 -56q-34 -60 -69.5 -122.5t-67 -118
t-57 -99.5t-38.5 -66v838h99v-476q7 11 13.5 23t14.5 23v430h93z" />
    <glyph glyph-name="x" unicode="x" horiz-adv-x="863" 
d="M98 844l300 -394l16 26l-273 368h103q10 -12 37 -47q23 -30 68 -89t122 -159l220 295h111l-275 -370l354 -475h-100l-310 400l-16 -24l288 -376h-125l-220 292l-195 -290l-103 -1l242 365l-359 479h115z" />
    <glyph glyph-name="y" unicode="y" horiz-adv-x="763" 
d="M106 752q-19 26 -36 49.5t-31 42.5h67h52q37 -52 69 -94q19 -26 37.5 -50.5t37.5 -50t39 -53t43 -59.5q3 4 19 24t38.5 50t50 66.5t54.5 72.5q19 26 36.5 50t32.5 44h36h73q-17 -24 -34.5 -48t-34.5 -49q-56 -78 -111.5 -154.5t-111.5 -154.5v-439h-99v72v90.5v95v86.5
v64.5v28.5q-1 2 -7.5 11.5t-18.5 26.5v-475h-94v606q-26 35 -53 72.5t-53 72.5h-1v2z" />
    <glyph glyph-name="z" unicode="z" horiz-adv-x="837" 
d="M641 97v-98h-355h-288v1l485 744l-437 1v99l639 -1q-123 -191 -214 -330.5t-152 -232.5q-71 -108 -122 -183h36l494 747h113l-495 -747h296z" />
    <glyph glyph-name="edieresis" unicode="&#xeb;" 
 />
    <glyph glyph-name="guilsinglright" unicode="&#x203a;" horiz-adv-x="333" 
 />
    </font>
</defs>
</svg>
