<?xml version="1.0" standalone="no"?>
<!DOCTYPE svg PUBLIC "-//W3C//DTD SVG 1.1//EN" "http://www.w3.org/Graphics/SVG/1.1/DTD/svg11.dtd" >
<svg xmlns="http://www.w3.org/2000/svg" xmlns:xlink="http://www.w3.org/1999/xlink" version="1.1">
<metadata></metadata>
<defs>
<font id="eternal_knight_leftalicitalic" horiz-adv-x="1452" >
<font-face units-per-em="2048" ascent="1638" descent="-410" />
<missing-glyph horiz-adv-x="651" />
<glyph horiz-adv-x="0" />
<glyph unicode="&#xd;" horiz-adv-x="1024" />
<glyph unicode=" "  horiz-adv-x="651" />
<glyph unicode="&#x09;" horiz-adv-x="651" />
<glyph unicode="&#xa0;" horiz-adv-x="651" />
<glyph unicode="!" horiz-adv-x="698" d="M-150 1290h588q-4 -16 -14 -37.5t-21.5 -42t-20.5 -38t-9 -25.5l96 -604l-49 -142h-283l-80 142l-96 604q-39 49 -61.5 76.5t-32.5 42t-13.5 18.5t-3.5 6zM158 254h282l41 -254h-282z" />
<glyph unicode="&#x22;" horiz-adv-x="755" d="M-139 1292l73 -469h99l155 215l-41 254h-286zM199 1290l73 -469h99l155 215l-41 254h-286z" />
<glyph unicode="#" horiz-adv-x="1449" d="M-84 944l18 -123h144l16 -100h-143l20 -123h144l73 -475q2 -4 -3 -19.5t-9 -21.5l-49 -82h491l-94 598h213l94 -598h492l-74 82q-6 6 -16 21.5t-12 19.5l-74 475h143l-20 123h-144l-16 100h143l-18 123h-143l-33 203q4 6 13 22.5t19.5 36t18.5 37t10 25.5l2 2q0 4 2 10 t0 10h-497l55 -346h-213l-55 346h-498q4 -10 10 -20l2 -2q6 -8 19.5 -25.5t29 -37t29.5 -36t21 -22.5l32 -203h-143zM487 821h213l17 -100h-213z" />
<glyph unicode="$" horiz-adv-x="1216" d="M-86 899q4 -10 7 -21.5t22 -29.5q23 -18 69.5 -56t106 -85.5t124 -98.5t123 -97t105.5 -82t70 -52q41 -47 51 -105q8 -47 -11.5 -87t-76.5 -58q-12 -8 -39 -17.5t-46.5 -14.5t-23.5 -5l-16 10l-244 363l-20 12q-2 -10 -2 -26v-35q0 -47 1 -115t2 -135.5t3 -124.5t4 -82 q0 -8 1 -25.5t3 -23.5h41l385 139l47 -295h98l-51 328l330 119q63 23 101 54.5t30 80.5q-4 16 -8 34.5t-25 34.5l-657 519q-20 18 -25.5 37.5t-9.5 35.5q-10 53 24.5 94t120.5 62h21q12 0 18 -14l293 -326l21 -10l-13 555l-6 37l-71 -23l-326 -141l-49 307h-99l56 -346 l-314 -135q-31 -12 -58.5 -27.5t-48 -33t-31.5 -39t-7 -48.5v-8z" />
<glyph unicode="%" horiz-adv-x="1460" d="M-98 1161l61 -385q6 -39 21.5 -63.5t33 -39t35 -20.5t27.5 -6h360q10 0 25.5 6t29 20.5t20.5 39t1 63.5l-61 385q-6 39 -21.5 64.5t-33 40t-35 20.5t-27.5 6h-361q-10 0 -25 -6t-28.5 -20.5t-20.5 -40t-1 -64.5zM63 8l3 -8h403l-125 80l793 1171q6 10 19 16.5t36 16.5 l-2 8h-412l140 -80l-797 -1169q-14 -25 -58 -35zM96 1159q4 51 16.5 63.5t22.5 14.5h62q12 -4 28.5 -16.5t34.5 -61.5l62 -381q-4 -49 -16.5 -61t-22.5 -15h-62q-10 2 -27.5 14.5t-35.5 61.5zM735 514l62 -385q6 -39 21.5 -63.5t32.5 -39t34.5 -20.5t27.5 -6h361 q10 0 25.5 6t28.5 20.5t20.5 39t1.5 63.5l-62 385q-6 39 -21.5 64.5t-32.5 40t-34.5 20.5t-28.5 6h-360q-10 0 -25.5 -6t-29 -20.5t-20.5 -40t-1 -64.5zM930 512q4 51 16 63.5t23 14.5h61q12 -4 28.5 -16.5t35.5 -61.5l61 -381q-4 -49 -16.5 -61.5t-22.5 -14.5h-61 q-10 2 -27.5 14.5t-36.5 61.5z" />
<glyph unicode="&#x26;" horiz-adv-x="1624" d="M-55 696q-6 39 4 63.5t31.5 38t51 17.5t64.5 4h140l-5 21q-12 14 -44.5 52t-69.5 80t-69 80t-44 54q-20 25 -24.5 35t-8.5 37q-4 31 10.5 69.5t55.5 44.5h993l31 -192l-148 106h-596l363 -387l758 2l-82 -123h-113l6 -34q2 -14 -4 -57.5t-17 -100.5t-24.5 -119.5 t-26 -114t-20.5 -86.5l-8 -34q-14 -23 -34.5 -49.5t-46.5 -49t-56.5 -38t-63.5 -15.5h-317q-35 0 -74 17.5t-76 42t-68.5 53t-54.5 51.5q-10 12 -58 67.5t-108.5 124t-119 135t-88.5 103.5q-20 23 -24.5 37t-8.5 33zM315 696l445 -510l112 510h-557z" />
<glyph unicode="'" horiz-adv-x="417" d="M-139 1290l73 -469h99l155 215l-41 254h-286z" />
<glyph unicode="(" horiz-adv-x="913" d="M-98 1030l123 -770q12 -78 42.5 -128t65.5 -79.5t70 -41t53 -11.5h602l-164 123h-190q-20 10 -44 42t-46 99l-121 762q0 49 8 79t20.5 45t25.5 21.5t24 8.5h159l119 110h-598q-18 0 -49 -11t-57.5 -41t-41 -80t-1.5 -128z" />
<glyph unicode=")" horiz-adv-x="915" d="M-145 1290h598q18 0 53 -11t69.5 -41t65.5 -80t43 -128l123 -770q12 -78 -2 -128t-41 -79.5t-57.5 -41t-49.5 -11.5h-602l123 123h191q16 10 31.5 42t17.5 99l-121 762q-16 49 -34.5 79t-36 45t-33 21.5t-23.5 8.5h-160z" />
<glyph unicode="*" horiz-adv-x="485" d="M-127 1147l117 -14l-84 -68l135 -100l35 100l67 -100l99 98l-107 70l113 12l-62 135l-94 -63l17 118h-158l53 -118l-115 61z" />
<glyph unicode="+" horiz-adv-x="581" d="M-66 829l19 -122h164l26 -164h123l-26 164h163l-18 122h-164l-26 164h-123l26 -164h-164z" />
<glyph unicode="," horiz-adv-x="417" d="M25 254l75 -469h99l153 215l-41 254h-286z" />
<glyph unicode="-" horiz-adv-x="571" d="M-66 829h451l-84 -122h-348z" />
<glyph unicode="." horiz-adv-x="417" d="M25 254h286l41 -254h-286z" />
<glyph unicode="/" horiz-adv-x="1443" d="M53 8q43 10 58 35l796 1169l-139 78h416l-2 -6q-16 -10 -33 -16.5t-23 -16.5l-802 -1171l135 -80h-404z" />
<glyph unicode="0" horiz-adv-x="1247" d="M-94 1030l123 -770q12 -78 42.5 -128t65.5 -79.5t70 -41t53 -11.5h723q18 0 49 11.5t57.5 41t41 79.5t2.5 128l-123 770q-12 78 -43 128t-66 80t-69.5 41t-53.5 11h-723q-18 0 -49 -11t-57.5 -41t-40.5 -80t-2 -128zM297 1026q0 49 8 79t20.5 45t26 21.5t23.5 8.5h121 q10 -2 26.5 -8.5t34.5 -21.5t35.5 -45t30.5 -79l120 -762q-2 -49 -11 -78.5t-21.5 -46t-25.5 -21.5t-21 -7h-121q-10 2 -24.5 8t-31 21.5t-35 45t-34.5 78.5z" />
<glyph unicode="1" horiz-adv-x="692" d="M-150 1290q4 -10 11 -20l2 -2q6 -8 19.5 -25.5t28.5 -37t29.5 -36t20.5 -22.5l162 -1024q2 -4 -3 -19.5t-9 -21.5l-50 -82h576l-74 82q-6 6 -16 21.5t-12 19.5l-185 1167h-500z" />
<glyph unicode="2" horiz-adv-x="1216" d="M-150 1290l11 -35l215 -477l14 13l141 372q10 14 37 21.5t56 9.5h49q14 0 25.5 -1t21.5 -3q33 -16 42 -26.5t13 -16.5l4 -4l6 -35q2 -6 2 -21q0 -10 -10 -20l-416 -922q-10 -16 -6 -43l6 -28q12 -45 37 -59.5t66 -14.5h962l11 150l-299 -62h-136q-59 0 -85.5 26.5 t-36.5 67.5l-7 27q-10 39 13 80q14 20 40.5 74.5t59.5 126t67.5 151.5t66.5 150.5t56.5 124t36.5 73.5l-4 35q-6 43 -22.5 90t-45 86t-72.5 64.5t-107 25.5h-812z" />
<glyph unicode="3" horiz-adv-x="1263" d="M-150 1290h965q20 0 37.5 -12t32 -29.5t24 -38t11.5 -34.5q4 -27 3 -37.5t-14 -34.5q-8 -16 -28.5 -54t-43 -80t-43 -79t-28.5 -51l4 -21h139q33 0 65 -4t57.5 -17.5t43 -38t23.5 -63.5l6 -32q4 -18 3 -33t-15 -37q-18 -37 -55.5 -104.5l-75 -135t-69.5 -123t-40 -67.5 q-14 -23 -37.5 -51.5t-52.5 -53t-61.5 -42t-67.5 -17.5h-527l-20 123h322l319 573h-522q10 16 37.5 53t62.5 84.5t72 98.5t67.5 95t50 76t17.5 42l-2 20h-535z" />
<glyph unicode="4" horiz-adv-x="1470" d="M-4 377h686l59 -377h492l-74 82q-6 6 -16 21.5t-13 19.5l-38 254h161l82 123h-264l-102 649q6 8 17 26.5t21.5 40t18.5 42t8 32.5h-497zM446 500l170 288l46 -288h-216z" />
<glyph unicode="5" horiz-adv-x="1191" d="M-119 1217l2 -29q2 -10 5 -21.5t14 -21.5l710 -922q12 -10 15.5 -20t5.5 -21l4 -35l-2 -4q-4 -6 -8 -13t-21 -19h-207q-25 18 -48 42.5t-40 43.5l-243 342l-19 12q-2 -29 -3 -100.5t-1 -151.5v-152q0 -35 1 -60.5t3 -41.5q0 -14 31 -39l33 -6h821q10 0 16 12 q72 25 88.5 85.5t3.5 131.5l-6 35q-18 20 -61 76.5t-98.5 132.5t-118 160t-118.5 158.5t-101 132t-66 77.5q-18 20 -26.5 40t-12.5 40l-2 27q-2 41 19.5 67.5t80.5 26.5h277l143 -104l-30 192h-990q-41 0 -48 -14t-3 -59z" />
<glyph unicode="6" horiz-adv-x="1224" d="M-98 1030l123 -770q12 -78 42.5 -128t65.5 -79.5t70 -41t53 -11.5h762q59 0 92 49t23 113l-91 575q-6 39 -37.5 59.5t-68.5 30t-71 11.5t-42 2h-501l-29 186q2 68 16.5 99.5t30.5 41.5h391l162 -123l-39 246h-803q-18 0 -49 -11t-57.5 -41t-41 -80t-1.5 -128zM344 696 h229q14 -4 29.5 -5t29 -4t24 -11t14.5 -27l84 -538h-215q-10 2 -24.5 8t-31 21.5t-35 45t-34.5 78.5z" />
<glyph unicode="7" horiz-adv-x="1210" d="M-150 1290h977q68 0 94.5 -15t39.5 -65v-4q6 -23 6 -18q4 -18 -11 -39q-10 -23 -38.5 -101.5t-67.5 -189t-81 -238.5t-81 -249t-67.5 -220.5t-38.5 -150.5h-476l371 1067q10 10 10 20q0 14 -2 21l-6 35q-10 29 -36.5 40t-69.5 11h-33q-29 0 -63.5 -7t-45.5 -24l-141 -372 l-14 -13l-215 477z" />
<glyph unicode="8" horiz-adv-x="1579" d="M-55 696l6 -32q4 -18 8 -33t25 -37q31 -37 89 -104.5t117.5 -136t107.5 -123t60 -66.5q23 -23 54.5 -51.5t68.5 -53t76 -42t74 -17.5h317q35 0 68 17.5t61.5 42t52 53t37.5 51.5q8 12 40 67.5t70 123t75 135t55 104.5q14 23 15 37t-3 33l-6 32q-6 39 -23.5 63.5t-43 38 t-57.5 17.5t-64 4h-140l-4 21q8 14 28.5 52t44.5 80t43.5 80t25.5 54q14 25 15 35t-3 37q-2 14 -11.5 34.5t-23.5 38t-32.5 29.5t-39.5 12h-1091q-23 0 -36 -12t-20.5 -29.5t-9.5 -38t0 -34.5q4 -27 8.5 -37.5t24.5 -34.5q12 -16 44 -54t69 -80t69.5 -80t44.5 -52l5 -21 h-140q-35 0 -64.5 -4t-51 -17.5t-31.5 -38t-4 -63.5zM315 696h727l-282 -510zM385 1167h440l2 -20q2 -6 -13 -33t-42 -64.5t-58.5 -83.5t-64.5 -92q-45 45 -91 91.5t-83 84t-61.5 64.5t-26.5 33z" />
<glyph unicode="9" horiz-adv-x="1224" d="M-113 1128l90 -575q6 -39 38 -59.5t69 -29.5t69.5 -11t43.5 -2h501l31 -187q-2 -68 -17.5 -99.5t-31.5 -41.5h-391l-162 123l39 -246h803q18 0 49 11.5t57.5 41t40.5 79.5t2 128l-123 770q-12 78 -42.5 128t-65.5 80t-70 41t-53 11h-762q-59 0 -92 -49t-23 -113z M266 1180h215q8 -2 23.5 -8.5t33 -21.5t36 -45t34.5 -79l68 -432h-230q-12 4 -27.5 5t-29.5 4t-25.5 11.5t-13.5 26.5z" />
<glyph unicode=":" horiz-adv-x="417" d="M-66 827h287l41 -254h-287zM25 254h286l41 -254h-286z" />
<glyph unicode=";" horiz-adv-x="417" d="M-66 827l41 -254h287l-41 254h-287zM25 254l75 -469h99l153 215l-41 254h-286z" />
<glyph unicode="&#x3c;" horiz-adv-x="944" d="M-33 559l445 653l-140 80h412l2 -8q-23 -10 -36 -16.5t-19 -16.5l-357 -518l613 -733h-641l39 20q4 2 15 10.5t23.5 16.5t22.5 16.5t12 10.5l1 3t1 5q-2 4 -3 7l-1 3z" />
<glyph unicode="=" horiz-adv-x="622" d="M-84 942h502l-82 -123h-399zM-49 719h502l-82 -123h-400z" />
<glyph unicode="&#x3e;" horiz-adv-x="942" d="M-147 1292h641l-39 -20q-4 -4 -15.5 -12.5t-24 -17.5t-22.5 -16t-12 -9l-1 -3q-1 -4 1 -6q0 -4 1 -7l1 -3l387 -465l-451 -655l140 -78h-404l-2 8q43 10 58 35l352 516z" />
<glyph unicode="?" horiz-adv-x="1138" d="M-166 1393l80 -23l829 -315q68 -25 127.5 -59.5t67.5 -88.5v-8q4 -12 4 -22q0 -8 -16 -29q-23 -23 -76 -61.5t-119.5 -87t-136.5 -100.5t-127 -100t-93 -89t-32 -66l-313 59q31 63 78 128t102 129.5t112.5 130t108.5 131.5q14 16 14 36q0 16 -4 37q-10 53 -56 94t-138 62 h-21q-14 0 -14 -14l-191 -326l-16 -10l-164 555zM49 254h287l41 -254h-287z" />
<glyph unicode="@" horiz-adv-x="1726" d="M-98 1030l123 -770q12 -78 42.5 -128t65.5 -79.5t70 -41t53 -11.5h946l-164 123h-532q-20 10 -44 42t-46 99l-121 762q0 49 8 79t20.5 45t25.5 21.5t24 8.5h610q8 -2 23.5 -8.5t33 -21.5t36 -45t34.5 -79l66 -416q-2 -68 -16.5 -99.5t-31.5 -41.5h-59l-63 391 q-6 39 -21.5 64.5t-33 40t-35 20.5t-27.5 6h-361q-10 0 -25.5 -6t-28.5 -20.5t-20.5 -40t-0.5 -64.5l61 -385q6 -39 21.5 -63.5t33 -39t35 -20.5t27.5 -6h784q18 0 49 11.5t57.5 41t41 79.5t2.5 128l-68 424q-12 78 -43 128t-65.5 80t-69.5 41t-53 11h-1215q-18 0 -49 -11 t-57.5 -41t-41 -80t-1.5 -128zM651 834q2 51 15.5 63t23.5 14h62q10 -4 26.5 -16t36.5 -61l51 -332q-4 -49 -16 -61.5t-23 -14.5h-61q-10 2 -28 14.5t-36 61.5z" />
<glyph unicode="A" horiz-adv-x="1462" d="M55 0l11 14q12 10 28.5 29.5t20.5 38.5l49 240l-4 16q-4 20 -14.5 33.5t-21.5 25t-23.5 22.5t-20.5 30q-4 8 -7 19l-3 11h127l137 668l-150 143h504l719 -1290h-647l37 43q2 4 11 19.5t20.5 32t21.5 31.5t12 19v9q0 10 -2 12q0 4 -2 11t-2 9l-94 181h-414l-31 -21 l-36 -211l149 -135h-375zM342 489h350l-217 412l-26 41l-5 2q-4 2 -8 2q-2 0 -1 -1l3 -3z" />
<glyph unicode="B" horiz-adv-x="1445" d="M-150 1290h1147q20 0 38 -12t32 -28.5t23.5 -37t11.5 -34.5q4 -27 3 -37.5t-15 -34.5q-6 -16 -26 -54t-43.5 -80t-44 -80t-28.5 -52l4 -21h140q33 0 64.5 -4t57 -17.5t43 -38t23.5 -63.5l6 -32q4 -18 3 -33t-15 -37q-18 -37 -55 -104.5t-75 -135t-70 -123t-40 -67.5 q-14 -23 -37.5 -51.5t-52.5 -53t-61.5 -42t-67.5 -17.5h-635l-178 1126q-2 4 -12 19.5t-15 21.5zM406 1167l61 -389q12 12 34.5 43t47 70t51.5 82t47.5 80t33.5 62.5t13 31.5l-2 20h-286zM479 696l90 -573h21l319 573h-430z" />
<glyph unicode="C" horiz-adv-x="1198" d="M-55 696l6 -32q4 -18 8 -33t25 -37q31 -37 89 -104.5t117.5 -136t107.5 -123t60 -66.5q23 -23 54.5 -51.5t68.5 -53t76 -42t74 -17.5h456l-38 246l-125 -123h-109q-143 135 -269 274.5t-231 298.5q4 111 24.5 225.5t57.5 245.5l25 2h184q23 -20 42.5 -38.5t33.5 -36.5 l244 -342l18 -13q2 29 4 100.5t2 151.5t-1 151.5t-3 102.5q-2 4 -11 17.5t-22 23.5l-36 4h-805q-10 -2 -24.5 -39t-30 -93t-31 -123.5t-25.5 -133t-15 -121.5q-3 -31 -3 -53q0 -18 2 -31z" />
<glyph unicode="D" horiz-adv-x="1437" d="M-150 1292l117 -125q4 -6 14.5 -21.5t12.5 -19.5l178 -1126h635q35 0 67.5 17.5t61.5 42t52.5 53t37.5 51.5q8 12 40 67.5t70 123t74.5 135t55.5 104.5q14 23 15 37t-3 33l-6 32q-4 29 -23.5 85.5t-46 123t-58.5 135t-60.5 125t-52 92t-34.5 35.5h-1147zM397 1167h287 q78 -131 129 -245.5t88 -225.5l-319 -573h-21z" />
<glyph unicode="E" horiz-adv-x="1165" d="M-150 1290h1024l31 -192l-114 82h-390l56 -351h450l-84 -122h-348l92 -584h369l125 123l39 -246h-1030q-2 8 2 20l65 103q4 6 10.5 21.5t4.5 19.5l-148 940q-2 4 -12 18.5t-17 22.5z" />
<glyph unicode="F" horiz-adv-x="1144" d="M-150 1290l164 -186l148 -934l-101 -170h517l-113 707h358l84 122h-450l-56 349h390l114 -82l-31 194h-1024z" />
<glyph unicode="G" horiz-adv-x="1318" d="M-55 696l6 -32q4 -18 8 -33t25 -37q31 -37 89 -104.5t117.5 -136t107.5 -123t60 -66.5q25 -29 50 -47l2 -2q47 -41 107.5 -78t113.5 -37h184q94 111 171 272.5t153 348.5l18 47h-569q41 -35 79 -53.5t42 -22.5q2 0 11 -6t20 -14l12 -7q2 -4 1 -7l-1 -3l-123 -236 q-35 37 -78 84.5t-86 98.5t-83 101t-67 93q4 111 25.5 223.5t56.5 243.5l25 2h184q23 -20 42.5 -38.5t35.5 -36.5l242 -338l18 -13q2 29 4 99.5t2 150.5t-1 150.5t-3 101.5q0 14 -28 39l-29 10h-811q-10 -2 -24.5 -39t-31 -92t-32 -123.5t-27.5 -134t-17 -121.5 q-3 -30 -3 -53q0 -18 2 -31z" />
<glyph unicode="H" horiz-adv-x="1325" d="M-150 1290h498l74 -461h219l-74 461h498q2 -4 0 -10t-2 -10l-2 -2q-2 -8 -10.5 -25.5t-18.5 -37t-19 -36t-14 -22.5l162 -1024q2 -4 12.5 -19.5t16.5 -21.5l74 -82h-492l-113 707h-219l113 -707h-492l50 82q4 6 9 21.5t3 19.5l-162 1024q-6 6 -20.5 22.5t-29.5 36 t-28.5 37t-19.5 25.5l-2 2q-6 10 -11 20z" />
<glyph unicode="I" horiz-adv-x="698" d="M-150 1290q4 -10 11 -20l2 -2q6 -8 19.5 -25.5t28.5 -37t29.5 -36t20.5 -22.5l162 -1024q2 -4 -3 -19.5t-9 -21.5l-50 -82h576l-74 82q-6 6 -16 21.5t-12 19.5l-162 1024q4 6 13 22.5t19.5 36t18.5 37t10 25.5l2 2q0 4 2 10t0 10h-588z" />
<glyph unicode="J" horiz-adv-x="1204" d="M45 147v152q0 80 1 151.5t3 100.5l19 -12l243 -342q16 -18 40 -43t48 -43h215q8 2 22.5 8t27 21.5t21.5 45t9 78.5l-143 903h-225l-125 -123l-39 246h758l163 -1030q6 -36 6 -66q0 -35 -8 -62q-14 -50 -40.5 -79.5t-57.5 -41t-49 -11.5h-821l-33 6q-31 25 -31 39 q-2 16 -3 42t-1 60z" />
<glyph unicode="K" horiz-adv-x="1466" d="M-150 1290h519l77 -491q41 74 75 136t62.5 120.5t51 116t41.5 118.5h454l-200 -450h2q10 0 49 -3t82 -14.5t79 -32t42 -53.5l94 -594l133 -143h-500l-110 696h-348l110 -696h-502q16 37 38 72.5t42 70.5l-155 985q-2 4 -12.5 19.5t-14.5 21.5l-98 101q-6 10 -11 20z" />
<glyph unicode="L" horiz-adv-x="1144" d="M-150 1290l123 -123l164 -1044l-61 -123h1003l-35 225l-88 -102h-419l-164 1044q27 41 42 64.5t22 36t8 16.5t1 6h-596z" />
<glyph unicode="M" horiz-adv-x="2199" d="M51 0l8 20q23 16 32 28.5t13 33.5l218 1065l-146 143h504l307 -553l84 410l-145 143h504l714 -1290h-647l39 41q2 4 11 19.5t20.5 32t21.5 31.5t13 19v9q0 10 -3 12q0 4 -3 11t-3 9l-381 717l-26 41l-4 2t-8 2q-2 0 -6 -2l-3 -2l-75 -391l305 -551h-647l38 41 q2 4 11.5 19.5t20.5 32t21.5 31.5t12.5 19v9q0 10 -2 12q0 4 -3 11t-3 9l-381 717l-27 41l-4 2q-4 2 -8 2q-2 0 -5 -2l-3 -2l-154 -784l158 -158h-369z" />
<glyph unicode="N" horiz-adv-x="1353" d="M-150 1290q8 -16 24.5 -38.5t34 -44t32 -38t20.5 -22.5l162 -1024q2 -4 -3 -19.5t-9 -21.5l-50 -82h492l-113 707l596 -707h256l-102 123l-162 1024q29 47 44 84t22 59h-498l74 -461l-396 461h-424z" />
<glyph unicode="O" horiz-adv-x="1445" d="M-57 782q-1 -19 -1 -35q0 -32 3 -51l6 -32q4 -18 8 -33t25 -37q31 -37 89 -104.5t117.5 -136t107.5 -123t60 -66.5q23 -23 54.5 -51.5t68.5 -53t76 -42t74 -17.5h184q35 0 67.5 17.5t61.5 42t52.5 53t37.5 51.5q8 12 40 67.5t70 123t74.5 135t55.5 104.5q14 23 15 37 t-3 33l-6 32q-4 29 -23.5 85.5t-47 122t-60.5 134t-62.5 125t-53.5 92t-34 35.5h-962q-12 0 -24.5 -35.5t-24 -92t-21.5 -125t-16 -134t-8 -121.5zM315 696q4 111 18.5 226.5t51.5 246.5h307q78 -131 129 -246.5t88 -226.5l-227 -446z" />
<glyph unicode="P" horiz-adv-x="1312" d="M-150 1290h1158q23 0 38 -28.5t19 -51.5v-12q-4 -27 -18.5 -76t-36 -105t-49 -115.5t-59.5 -106.5t-64.5 -78t-63.5 -31h-338l109 -686h-488l49 82q4 6 9.5 21.5t3.5 19.5l12 33l-154 972q-8 6 -24 23.5t-35.5 41.5t-38 49.5t-29.5 47.5zM369 1188l61 -389q37 20 71 61 t62.5 94.5t52 113.5t39.5 120h-286z" />
<glyph unicode="Q" horiz-adv-x="1445" d="M-57 782q-1 -19 -1 -35q0 -32 3 -51l6 -32q4 -18 8 -33t25 -37q31 -37 89 -104.5t117.5 -136t107.5 -123t60 -66.5q23 -23 54.5 -51.5t68.5 -53t76 -42t74 -17.5h758q-29 20 -54.5 37.5t-31.5 21.5l-209 207q20 37 46.5 84t52.5 93t47.5 86t33.5 65q14 23 15 37t-3 33 l-6 32q-4 29 -23.5 85.5t-47 122t-60.5 134t-62.5 125t-53.5 92t-34 35.5h-962q-10 0 -22.5 -35.5t-23.5 -92t-21.5 -125t-17.5 -134t-9 -121.5zM315 696q4 111 19.5 226.5t52.5 246.5h307q78 -131 128 -246.5t87 -226.5l-88 -157l-119 116l115 80h-411l2 -8 q27 -10 40 -16.5t23 -16.5l272 -280l-65 -140z" />
<glyph unicode="R" horiz-adv-x="1466" d="M-150 1290h1174q12 0 22.5 -11t17.5 -25.5t11 -30t6 -23.5q4 -27 3 -37t-13 -35q-8 -16 -27.5 -54t-43 -81t-44 -81t-28.5 -52l4 -20q10 0 49 -3t82 -14.5t79 -32t42 -53.5l94 -594l133 -143h-500l-110 696h-348l110 -696h-502q16 37 38 72.5t42 70.5l-155 985 q-2 4 -12.5 19.5t-14.5 21.5l-98 101q-6 10 -11 20zM385 1190l61 -391l35 41q12 18 40 68t58.5 105.5t56.5 105.5t36 71h-287z" />
<glyph unicode="S" horiz-adv-x="1208" d="M-86 897q-1 5 -1 10q0 36 39 70q44 39 101 67q86 43 183.5 87.5t193.5 86.5t188.5 76.5t167.5 59.5l70 12l10 -27l11 -544l-21 10l-287 313q-8 6 -10 10.5t-10 4.5h-21q-86 -21 -120 -61q-27 -33 -27 -73q0 -10 2 -20l4 -23q2 -10 6 -20t17 -23l661 -507q18 -16 23.5 -34 t9.5 -34q1 -8 1 -16q0 -38 -33 -60q-40 -26 -101 -53q-205 -86 -401.5 -159t-411.5 -130h-41q0 6 -1 23.5t1 23.5q-4 23 -6 71t-3.5 106.5t-2.5 120t-1 110.5v59q0 27 2 41l21 -12l231 -342l15 -10q4 0 23.5 5t48 13t42.5 16q101 33 101 111q0 10 -2 20q-10 55 -51 103 q-23 16 -69 52t-104.5 82t-123 97.5t-124 97.5t-107.5 81.5t-73 52.5q-14 18 -18 41z" />
<glyph unicode="T" horiz-adv-x="1155" d="M-139 1290h1024l30 -190l-114 80h-191l170 -1074q4 -8 8.5 -14t10.5 -10l73 -82h-567l49 82q4 6 9.5 21.5t3.5 19.5l-166 1057h-219l-91 -80z" />
<glyph unicode="U" horiz-adv-x="1318" d="M-150 1290h500l164 -1026q23 -66 47.5 -96.5t45 -42.5t33.5 -14t13 -9h86l-188 1188h502q-16 -37 -37 -71.5t-43 -69.5l155 -985q2 -4 12.5 -19.5t14.5 -21.5l98 -103q10 -10 11 -20h-908q-18 0 -53 11.5t-69.5 41t-65.5 79.5t-43 128l-141 889z" />
<glyph unicode="V" d="M-150 1290h648l-35 -43q-4 -4 -14.5 -18.5t-21.5 -30.5t-20.5 -31.5t-11.5 -19.5v-10q0 -8 2 -11q0 -4 2 -11t2 -9l381 -717l27 -41l4 -2t8 -2q2 0 5 2l3 2l152 787l-154 155h365l-10 -24q-10 -4 -21.5 -20.5t-15.5 -37.5l-221 -1065l145 -143h-504z" />
<glyph unicode="W" horiz-adv-x="1789" d="M-143 1290h469l118 -751l246 751l484 -751l-119 751h469l-47 -82q-4 -6 -10.5 -21.5t-4.5 -19.5l162 -1026q8 -10 24.5 -28.5t34 -39t33 -41t19.5 -32.5h-498l-463 750l-221 -750h-498q0 12 7.5 31.5t18.5 40t22.5 40t17.5 29.5l-162 1026q-2 4 -12 19.5t-15 21.5z" />
<glyph unicode="X" horiz-adv-x="1466" d="M-74 1290h455q41 -66 89 -132t99 -122q27 53 56.5 121t50.5 133h454l-200 -450h2q10 0 49 -3t82 -14.5t79 -32t42 -53.5l94 -594l133 -143h-500l-110 696h-357l111 -696h-500l88 143l-94 594q-6 33 23.5 53.5t69.5 32t78 14.5t48 3h2z" />
<glyph unicode="Y" horiz-adv-x="1437" d="M-150 1290l558 -665l77 -502q2 -4 -3 -19.5t-9 -21.5l-49 -82h471l-117 741l346 508q6 10 19.5 16.5t36.5 16.5l-2 8h-412l139 -80l-237 -352l-285 338l-2 3t-2 7v8q2 2 13 10.5t23.5 16.5t23 16.5t14.5 12.5l39 20h-642z" />
<glyph unicode="Z" horiz-adv-x="1204" d="M-90 1368l102 -10l934 -365q33 -12 44 -27.5t20 -68.5v-8q2 -10 1 -20.5t-16 -24.5l-442 -463q-25 -36 -25 -79q0 -13 2 -26q14 -94 142 -131q14 -10 42.5 -18t48 -11t23.5 -3l19 6l119 346l14 8q10 -27 32.5 -98.5t47 -153.5t47 -155.5t31.5 -104.5q2 -4 6 -22.5 t6 -24.5h-39q-258 76 -509 163t-517 179q-25 8 -30 20.5t-13 59.5v4q-4 20 -4 35q0 18 14 33l494 505q10 12 12 24.5t0 25.5l-4 18q-8 53 -56 95t-141 61h-22q-14 0 -14 -13l-183 -315l-14 -12z" />
<glyph unicode="[" horiz-adv-x="913" d="M-139 1290l205 -1290h792l-164 123h-258l-166 1057h260l119 110h-788z" />
<glyph unicode="\" horiz-adv-x="1443" d="M-150 1290l7 -6q20 -10 36.5 -16.5t26.5 -16.5l1176 -1171l-111 -80h404l-3 8q-23 4 -39 14.5t-26 20.5l-1169 1169l114 78h-416z" />
<glyph unicode="]" horiz-adv-x="915" d="M-145 1290h788l205 -1290h-793l123 123h258l-166 1057h-260z" />
<glyph unicode="^" d="M53 16q27 0 37 22.5t14 43.5l220 1065l-146 143h504l715 -1290h-647l36 43q2 4 12.5 18.5t20.5 31t20.5 31.5t12.5 19v9q0 10 -2 12q0 4 -2 11t-2 9l-381 717l-27 41l-4 2t-8 2q-2 0 -5 -2l-3 -2l-152 -786l154 -156h-365z" />
<glyph unicode="_" horiz-adv-x="763" d="M45 123h643l-82 -123h-540z" />
<glyph unicode="`" horiz-adv-x="544" d="M-150 1290l189 -254h287l-168 254h-308z" />
<glyph unicode="a" horiz-adv-x="1462" d="M55 0h375l-149 135l36 211l31 21h414l94 -181q0 -2 2 -9t2 -11q2 -2 2 -12v-9q-2 -4 -12 -19t-21.5 -31.5t-20.5 -32t-11 -19.5l-37 -43h647l-719 1290h-504l150 -143l-137 -668h-127l3 -11t7 -19q8 -18 20.5 -29.5t23.5 -23t21.5 -25t14.5 -33.5l4 -16l-49 -240 q-4 -18 -20.5 -37.5t-28.5 -30.5zM342 489l96 453l-2 2q-2 2 0 2q4 0 8 -2l5 -2l26 -41l217 -412h-350z" />
<glyph unicode="b" horiz-adv-x="1445" d="M-150 1290h1147q20 0 38 -12t32 -28.5t23.5 -37t11.5 -34.5q4 -27 3 -37.5t-15 -34.5q-6 -16 -26 -54t-43.5 -80t-44 -80t-28.5 -52l4 -21h140q33 0 64.5 -4t57 -17.5t43 -38t23.5 -63.5l6 -32q4 -18 3 -33t-15 -37q-18 -37 -55 -104.5t-75 -135t-70 -123t-40 -67.5 q-14 -23 -37.5 -51.5t-52.5 -53t-61.5 -42t-67.5 -17.5h-635l-178 1126q-2 4 -12 19.5t-15 21.5zM406 1167l61 -389q18 12 41.5 43t49.5 71t50.5 84t43 81t30.5 61.5t12 28.5l-2 20h-286zM479 696l90 -573h21l319 573h-430z" />
<glyph unicode="c" horiz-adv-x="1198" d="M-90 1030q-6 36 -6 66q0 35 8 62q14 50 41 80t57.5 41t48.5 11h822l34 -6q29 -25 31 -39q2 -31 3 -102.5t1 -151.5t-2 -151.5t-4 -100.5l-18 13l-244 342q-14 18 -37.5 42.5t-50.5 43.5h-215q-10 -2 -23.5 -8.5t-26 -21.5t-20.5 -45t-8 -79l121 -762q23 -68 46.5 -99.5 t43.5 -41.5h391l125 123l39 -246h-803q-18 0 -53 11.5t-70 41t-65.5 79.5t-42.5 128z" />
<glyph unicode="d" horiz-adv-x="1460" d="M-150 1290l123 -123q4 -6 14.5 -21.5t12.5 -19.5l178 -1126h635q35 0 67.5 17.5t61.5 42t52.5 53t37.5 51.5q8 12 40 67.5t70 123t74.5 135t55.5 104.5q14 23 15 37t-3 33l-100 626h-1334zM403 1167h431l73 -471l-319 -573h-21z" />
<glyph unicode="e" horiz-adv-x="1165" d="M-150 1290l125 -145q6 -8 16.5 -22.5t12.5 -18.5l148 -940q2 -4 -4.5 -19.5t-10.5 -21.5l-65 -103q-4 -12 -2 -20h1030l-39 246l-125 -123h-369l-92 584h348l84 122h-450l-56 351h390l114 -82l-31 192h-1024z" />
<glyph unicode="f" horiz-adv-x="1144" d="M-150 1292h1024l31 -194l-114 82h-390l56 -351h450l-84 -122h-358l113 -707h-390l-176 1106z" />
<glyph unicode="g" horiz-adv-x="1228" d="M-90 1030q-6 36 -6 66q0 35 8 62q14 50 41 80t57.5 41t48.5 11h803l39 -246l-162 123h-391q-16 -10 -30.5 -41.5t-16.5 -99.5l121 -762q16 -49 34.5 -78.5t35 -45t31 -21.5t24.5 -8h215l-92 585h-178l-23 144h362q8 0 42 -2t71 -11.5t68.5 -30t38.5 -59.5l90 -575 q2 -15 2 -29q0 -46 -25 -83q-33 -50 -92 -50h-762q-18 0 -53 11.5t-70 41t-65.5 79.5t-42.5 128z" />
<glyph unicode="h" horiz-adv-x="1325" d="M-150 1290q4 -10 11 -20l2 -2q6 -8 19.5 -25.5t28.5 -37t29.5 -36t20.5 -22.5l162 -1024q2 -4 -3 -19.5t-9 -21.5l-50 -82h488l-113 707h230l112 -707h486l-74 82q-6 6 -16.5 21.5t-12.5 19.5l-162 1024q4 6 13.5 22.5t19.5 36t18.5 37t10.5 25.5l2 2q0 4 2 10t0 10h-492 l74 -461h-229l-74 461h-494z" />
<glyph unicode="i" horiz-adv-x="604" d="M-150 1290h480l205 -1290h-474l50 82q4 6 9 21.5t3 19.5l-162 1024q-6 6 -20.5 22.5t-29.5 36t-28.5 37t-19.5 25.5l-2 2q-6 10 -11 20z" />
<glyph unicode="j" horiz-adv-x="1126" d="M59 229q0 -80 1 -151.5t3 -102.5q0 -6 1.5 -23.5t3.5 -23.5h43l825 256q14 4 28.5 21.5t24.5 41t15.5 50.5t1.5 49l-150 944h-498q0 -4 3.5 -8t14.5 -17.5t32.5 -40t60.5 -75.5l133 -834q0 -31 -4 -54t-18.5 -43.5t-41 -37t-69.5 -33.5q-14 -8 -47 -14t-55.5 -9t-26.5 -3 l-21 10l-235 338l-18 12q-2 -29 -4.5 -100.5t-2.5 -151.5z" />
<glyph unicode="k" horiz-adv-x="1447" d="M-150 1290q4 -10 11 -20l2 -2q6 -8 19.5 -25.5t28.5 -37t29.5 -36t20.5 -22.5l162 -1024q2 -4 -3 -19.5t-9 -21.5l-50 -82h492l-90 571l399 -479l1 -3t3 -7q0 -2 -1 -5l-1 -3q-2 -2 -12 -10.5t-22.5 -16.5t-23.5 -16t-15 -11l-29 -20h631l-682 791l309 460 q6 10 19.5 15.5t35.5 15.5l-2 8h-411l139 -78l-359 -518l-94 596h-498z" />
<glyph unicode="l" horiz-adv-x="1144" d="M-150 1290l123 -123l164 -1044l-61 -123h1003l-35 225l-88 -102h-419l-185 1167h-502z" />
<glyph unicode="m" horiz-adv-x="1789" d="M-150 1290q4 -12 18.5 -31.5t31 -41t34 -40t27.5 -28.5l162 -1026q2 -4 -3 -19.5t-9 -21.5l-50 -82h469l-118 752l483 -752l246 752l119 -752h469l-74 82q-6 6 -16.5 21.5t-12.5 19.5l-162 1026q6 8 17.5 26.5t21.5 40t18.5 42t8.5 32.5h-498l-225 -749l-459 749h-498z " />
<glyph unicode="n" horiz-adv-x="1357" d="M-150 1290q8 -16 24.5 -38.5t34 -44t32 -38t20.5 -22.5l162 -1024q2 -4 -3 -19.5t-9 -21.5l-50 -82h488l-113 707l787 -779l-195 1219q4 6 13.5 22.5t20.5 38t22.5 44t17.5 38.5h-506l76 -481l-496 481h-326z" />
<glyph unicode="o" horiz-adv-x="1280" d="M-94 1030q-6 36 -6 66q0 35 8 62q14 50 40.5 80t57.5 41t49 11h760q18 0 53 -11t70 -41t66 -80t43 -128l122 -770q6 -36 6 -66q0 -35 -8 -62q-14 -50 -40.5 -79.5t-57.5 -41t-49 -11.5h-760q-18 0 -53 11.5t-70 41t-65.5 79.5t-42.5 128zM297 1026l121 -762 q16 -49 34.5 -78.5t35 -45t30.5 -21.5t25 -8h157q8 2 21.5 7t26 21.5t21.5 46t11 78.5l-121 762q-12 49 -30.5 78t-37 45t-34.5 22.5t-25 8.5h-157q-10 -2 -23.5 -8.5t-26 -21.5t-20.5 -45t-8 -79z" />
<glyph unicode="p" horiz-adv-x="1312" d="M-150 1290h1158q23 0 38 -28.5t19 -51.5v-12q-4 -27 -18.5 -76t-36 -105t-49 -115.5t-59.5 -106.5t-64.5 -78t-63.5 -31h-332l109 -686h-395l-179 1128q-8 6 -24 23.5t-35.5 41.5t-38 49.5t-29.5 47.5zM369 1188l61 -389q23 14 54.5 55t63.5 95.5t60.5 116.5t46.5 122 h-286z" />
<glyph unicode="q" horiz-adv-x="1249" d="M-88 1030l123 -770q12 -78 43 -128t65.5 -79.5t69.5 -41t53 -11.5h553l78 -80h393l-166 168q16 31 22 73q3 17 3 35q0 29 -6 64l-123 770q-12 78 -43 128t-65.5 80t-69.5 41t-54 11h-727q-18 0 -48.5 -11t-57.5 -41t-41 -80q-8 -27 -8 -62q0 -30 6 -66zM303 1026 q0 49 9.5 79t22.5 46t26.5 21.5t23.5 7.5h121q10 -2 24.5 -8.5t31 -21.5t34.5 -45t37 -79l90 -580h-330zM401 418l301 -305h-149q-8 0 -26.5 8t-39 26.5t-38 47t-23.5 69.5z" />
<glyph unicode="r" horiz-adv-x="1466" d="M-150 1290h1174q12 0 22.5 -11t17.5 -25.5t11 -30t6 -23.5q2 -12 1 -20.5t-4 -14.5t-5 -14t-2 -23q-2 -16 -20.5 -55t-41 -81t-46 -80t-35.5 -52l4 -20q10 0 49 -3t82 -14.5t79 -32t42 -53.5l94 -594l133 -143h-500l-110 696h-348l110 -696h-502q16 37 38 72.5t42 70.5 l-155 985q-2 4 -12.5 19.5t-14.5 21.5l-98 101q-6 10 -11 20zM385 1190l61 -391q61 76 116.5 171t109.5 220h-287z" />
<glyph unicode="s" horiz-adv-x="1191" d="M-76 1079q0 -6 2 -8q14 -20 61.5 -81.5t111 -142.5t135 -171t135 -171t112.5 -139.5t68 -76.5q14 -23 23.5 -40.5t11.5 -33.5l4 -33v-7q0 -35 -18 -63q-20 -30 -81 -30h-38q-29 0 -61 3l-32 3l-14 10l-209 394l-14 12q-6 -25 -16.5 -87.5t-19.5 -133t-17.5 -135 t-10.5 -91.5q-2 -4 -4 -20.5t0 -22.5q20 -14 41 -14h895q35 0 57.5 15.5t34 40t14.5 54t-1 58.5q-2 10 -5.5 21.5t-13.5 21.5l-684 856q-10 16 -14 26.5t-8 30.5v19q0 29 22.5 38t65.5 11h32q12 0 46 -4t57 -25l260 -372l18 -13l64 477l-2 35h-893q-49 0 -88 -49 q-30 -37 -30 -112q0 -23 3 -50z" />
<glyph unicode="t" horiz-adv-x="1155" d="M-139 1290l30 -190l91 80h219l166 -1057q2 -4 -3.5 -19.5t-9.5 -21.5l-49 -82h492l-187 1180h191l114 -80l-30 190h-1024z" />
<glyph unicode="u" horiz-adv-x="1318" d="M-150 1290h500l164 -1026q16 -49 34.5 -78.5t35 -45t31 -21.5t24.5 -8h4q8 2 21.5 7t25.5 21.5t21.5 46t11.5 78.5l-164 1026h500l-88 -141l141 -889q6 -36 6 -66q0 -35 -8 -62q-14 -50 -41 -79.5t-57.5 -41t-48.5 -11.5h-607q-18 0 -53 11.5t-69.5 41t-65.5 79.5 t-43 128l-141 889z" />
<glyph unicode="v" d="M-150 1290h648l-35 -43q-4 -4 -14.5 -18.5t-21.5 -30.5t-20.5 -31.5t-11.5 -19.5v-10q0 -8 2 -11q0 -4 2 -11t2 -9l381 -717l27 -41l4 -2t8 -2q2 0 5 2l3 2l152 787l-154 155h365l-23 -37q-4 -4 -12 -14t-12 -31l-221 -1065l145 -143h-504z" />
<glyph unicode="w" horiz-adv-x="2199" d="M-150 1290h648l-39 -41q-4 -4 -13.5 -18t-20.5 -31.5t-20.5 -33t-11.5 -19.5v-10q0 -8 2 -11q0 -4 3 -11t3 -9l381 -717l27 -41l4 -2t8 -2q2 0 5 2l3 2l76 391l-305 551h647l-39 -41q-4 -4 -13 -18t-20.5 -31.5t-20.5 -33t-11 -19.5v-10q0 -8 2 -11q0 -4 3 -11t3 -9 l381 -717l27 -41l4 -2q4 -2 8 -2q2 0 5 2l3 2l150 787l-154 155h364v-16q-16 -12 -29.5 -28.5t-17.5 -37.5l-219 -1065l133 -143h-491l-307 553l-84 -410l133 -143h-492z" />
<glyph unicode="x" horiz-adv-x="1439" d="M-147 1292h641l-39 -20q-4 -4 -15.5 -12.5t-24 -17.5t-22.5 -16t-12 -9l-1 -3q-1 -4 1 -6q0 -4 1 -7l1 -3l285 -340l239 338l-139 96h412l2 -8q-16 -8 -24.5 -13t-12.5 -8t-7 -5.5t-12 -6.5l-10 -10l-346 -508l612 -733h-641l15 14q2 2 17 11.5t33.5 19.5t33.5 19l14 10 l1 3t1 5q-2 4 -3 7l-1 3l-287 344l-239 -348l133 -88h-404l-2 8q12 12 37 26.5t27 14.5l346 510z" />
<glyph unicode="y" horiz-adv-x="1437" d="M-150 1290h642l-41 -26q-4 -4 -14.5 -11.5t-23 -15.5t-22.5 -14t-12 -9v-8q0 -4 2 -7l2 -3l285 -338l235 344l-137 88h412l-9 -12q-16 -16 -30.5 -21.5t-20.5 -15.5l-340 -500l117 -741h-389l-98 625z" />
<glyph unicode="z" horiz-adv-x="1224" d="M-150 1290l11 -35l215 -477l14 13l141 372q10 16 45 23.5t64 7.5h33q43 0 69.5 -11.5t36.5 -39.5l6 -35q2 -6 2 -21q0 -10 -10 -20l-416 -922q-10 -16 -6 -43l6 -28q12 -45 37 -59.5t66 -14.5h962l41 14q-2 6 -8 22.5t-8 20.5q-10 27 -40 91.5t-62.5 135t-62.5 133 l-42 87.5l-10 -12l-86 -394l-10 -10l-30 -3t-58 -3q-27 0 -29 2h-10q-59 0 -90 28.5t-41 69.5l-7 27q-3 12 -3 24q0 28 16 56q14 20 45 85.5t68.5 153.5t78.5 188.5t78 189.5t63.5 154.5t36.5 88.5q14 20 11 39q0 -4 -6 18v4q-12 49 -39 64.5t-95 15.5h-977z" />
<glyph unicode="{" horiz-adv-x="1130" d="M-76 827h232l-33 203q-12 78 2 128t41 80t57.5 41t48.5 11h598l-118 -110h-160q-10 -2 -23.5 -8.5t-26 -21.5t-20.5 -45t-8 -79l121 -762q23 -68 46.5 -99.5t43.5 -41.5h190l160 -123h-598q-18 0 -53 11.5t-70 41t-65.5 79.5t-42.5 128l-70 445h-129z" />
<glyph unicode="|" horiz-adv-x="620" d="M-139 1292l205 -1292h493l-74 82q-6 6 -16 21.5t-12 19.5l-162 1026q4 6 13 22.5t18.5 36t17.5 37t12 25.5l2 2q0 4 2 10t0 10h-499z" />
<glyph unicode="}" horiz-adv-x="1130" d="M-150 1290l156 -110h160q8 -2 23.5 -8.5t33 -21.5t35.5 -45t35 -79l121 -762q-2 -68 -17.5 -99.5t-31.5 -41.5h-191l-119 -123h598q18 0 49 11.5t57.5 41t41 79.5t2.5 128l-70 445h129l82 122h-231l-33 203q-12 78 -43 128t-65.5 80t-69.5 41t-53 11h-599z" />
<glyph unicode="~" horiz-adv-x="903" d="M-37 643h219l29 129l74 -129h350l61 252h-219l-26 -129l-78 129h-353z" />
<glyph horiz-adv-x="358" />
<glyph unicode="&#xa1;" horiz-adv-x="698" d="M12 1290l41 -254h283l-41 254h-283zM25 748l96 -605q2 -8 -6.5 -25.5t-20.5 -38t-23.5 -42t-15.5 -37.5h588q0 2 -3 6t-14.5 18.5t-33 42t-60.5 76.5l-96 605l-80 141h-282z" />
<glyph unicode="&#xa2;" horiz-adv-x="1189" d="M-98 1030q-12 78 2 128t40.5 80t57.5 41t49 11h420l-39 246h98l39 -246h303l35 -6q29 -25 31 -39q2 -31 3 -102.5t1 -151.5t-2 -151.5t-4 -100.5l-18 13l-244 342q-14 16 -37 40.5t-49 43.5l166 -1055h141l125 123l39 -246h-285l39 -248h-98l-39 248h-420q-18 0 -53 11.5 t-70 41t-65.5 79.5t-42.5 128zM293 1026l121 -762q23 -68 46 -99.5t44 -41.5h151l-166 1057h-118q-10 -2 -23.5 -8.5t-26 -21.5t-20.5 -45t-8 -79z" />
<glyph unicode="&#xa3;" horiz-adv-x="1296" d="M-66 819l19 -123h74l6 -32q4 -18 8 -33t25 -37q31 -37 89 -104.5t117.5 -136t107.5 -123t60 -66.5l20.5 -20.5l20.5 -20.5h-438l20 -123h1176l-20 123h-322l-500 573h523q-16 18 -54.5 55t-88.5 84.5t-103 97.5t-98.5 94t-75 76t-31.5 42l-2 20h106l84 125h-536 q-20 0 -33.5 -12t-22 -29.5t-11.5 -38t-1 -34.5q4 -27 8.5 -37.5t26.5 -34.5q12 -16 44 -54t69 -80t68.5 -79t43.5 -51l4 -21h-383z" />
<glyph unicode="&#xa4;" horiz-adv-x="1439" d="M-147 1292h641l-39 -20q-4 -4 -15.5 -12.5t-24 -17.5t-22.5 -16t-12 -9l-1 -3q-1 -4 1 -6q0 -4 1 -7l1 -3l72 -86h364l19 -2l69 102l-139 80h412l2 -8q-23 -10 -36 -16t-20 -17l-165 -241q10 -23 18 -45t12 -47l88 -556l303 -362h-641l39 20q4 2 15.5 10.5t23.5 16.5 t22.5 16.5t12.5 10.5l1 3t1 5q-2 4 -3 7l-1 3l-51 62h-355q-10 0 -26.5 4t-34.5 14l-66 -94l140 -78h-404l-2 8q43 10 58 35l174 256q-2 6 -6 23l-91 565zM467 913l90 -565q27 -72 53.5 -91t40.5 -21h90q10 0 31 20t25 92l-90 565q-27 72 -52.5 92.5t-40.5 24.5h-90h-2 q-12 -4 -32.5 -25.5t-22.5 -91.5z" />
<glyph unicode="&#xa5;" horiz-adv-x="1437" d="M-150 1290h642l-39 -20q-4 -4 -14.5 -12.5t-23 -16.5t-23.5 -16t-13 -11v-8q0 -4 2 -7l2 -3l285 -338l237 352l-139 80h412l2 -8q-23 -10 -36.5 -16t-19.5 -17l-346 -508l17 -112h333l-81 -121h-232l16 -102h334l-84 -121h-231l45 -285h-389l-45 285h-287l-18 121h286 l-16 102h-287l-20 121h282z" />
<glyph unicode="&#xa6;" horiz-adv-x="540" d="M-139 1290h409l205 -1290h-409z" />
<glyph unicode="&#xa7;" horiz-adv-x="1439" d="M55 0h641l-47 20q-4 2 -17.5 9.5t-28.5 16.5t-28.5 17.5t-15.5 10.5l-1 3t-1 5q-2 4 -1 7l1 3l31 62h354q10 0 25.5 4t31.5 14l60 127q2 2 -2 23l-90 565l209 405h-641l47 -20q4 -4 17 -12.5t27.5 -17.5t28 -16t17.5 -9l1 -3q1 -4 3 -6q0 -4 -1 -7l-1 -3l-43 -86h-365 l-18 -2l-90 -100q-8 -37 -2 -92l88 -556zM440 913q4 72 24.5 92.5t31.5 24.5h90h2q6 -2 17 -8t23.5 -18.5t26 -34t25.5 -56.5l90 -565q0 -37 -7 -58.5t-16.5 -33.5t-18.5 -16t-15 -4h-90q-12 2 -38 21t-55 91z" />
<glyph unicode="&#xa8;" horiz-adv-x="843" d="M-139 1290h286l41 -254h-286zM287 1290h286l41 -254h-286z" />
<glyph unicode="&#xa9;" horiz-adv-x="485" d="M-118.5 1190.5q-2.5 -23.5 1.5 -41.5q8 -51 39 -94q16 -23 35.5 -38.5t42.5 -27.5q39 -27 92 -26q53 0 86 26q33 20 53 66q18 47 11 94q-8 51 -39 90q-14 23 -33.5 39t-44.5 29q-47 24 -92 24q-43 0 -82 -24q-23 -12 -34 -28.5t-21 -39.5q-12 -25 -14.5 -48.5zM-86 1149 q-4 29 4 57.5t24.5 51t41 35t53.5 10.5q29 0 78 -23q37 -20 63 -55q27 -33 33 -76q8 -37 -8 -78q-27 -76 -117 -76q-63 0 -112.5 44t-59.5 110zM-29 1149q18 -106 107 -107q74 0 78 68l-31 8q0 -47 -51 -47q-57 0 -70 76q-12 78 49 78q33 0 60 -39l26 8q-25 55 -90 55 q-45 0 -65.5 -23.5t-12.5 -76.5z" />
<glyph unicode="&#xaa;" horiz-adv-x="1368" d="M-98 1030l123 -770q12 -78 42.5 -128t65.5 -79.5t70 -41t53 -11.5h608q94 111 171 272.5t153 348.5l18 47h-569q51 -45 90 -62.5t74 -40.5l4 -4q0 -4 -2 -5l-2 -1l-223 -428h-74q-20 8 -44 39t-46 98l-121 762q0 49 8 79t20.5 45t25.5 21.5t24 8.5h215q27 -18 50 -43 t38 -43l244 -342l18 -13q2 29 4 100.5t2 151.5t-1 151.5t-3 102.5q-2 14 -31 39l-35 6h-821q-18 0 -49 -11t-57.5 -41t-41 -80t-1.5 -128z" />
<glyph unicode="&#xab;" horiz-adv-x="690" d="M-92 991l74 -461l274 -124l-47 286l-139 74l118 65l-45 287zM213 993l74 -461l272 -124l-45 286l-139 74l119 66l-48 286z" />
<glyph unicode="&#xac;" horiz-adv-x="581" d="M-66 829h451l45 -286h-123l-26 164h-328z" />
<glyph unicode="&#xad;" horiz-adv-x="509" d="M-66 829l19 -122h287l84 122h-390z" />
<glyph unicode="&#xae;" horiz-adv-x="1247" d="M-98 1210q-2 25 12 40.5t40 24.5t58.5 12t65.5 3h909l2 -35l-63 -477l-19 13l-260 372q-6 16 -20 17l-13 6h-10q-31 4 -57.5 6t-48.5 2q-43 0 -66.5 -11.5t-23.5 -39.5l2 -35q2 -10 5 -20.5t15 -20.5l688 -922q10 -10 13.5 -21t5.5 -22l2 -28q4 -45 -38 -59.5t-112 -14.5 h-891l-45 14q-2 6 0 22.5t4 20.5q2 27 10.5 91.5t17.5 135t19.5 133t16.5 87.5l14 -12l209 -394l14 -10l32 -3t61 -3q27 0 28 2h10q59 0 80 28.5t19 69.5l-2 27q-4 20 -12.5 39.5t-24.5 40.5q-20 20 -69.5 85.5t-114 154.5t-134 188.5t-132 188.5t-109.5 155.5t-64 87.5 q-18 23 -22 39q0 -2 1 3t1 15z" />
<glyph unicode="&#xaf;" horiz-adv-x="763" d="M-139 1290l20 -123h541l82 123h-643z" />
<glyph unicode="&#xb0;" horiz-adv-x="417" d="M-139 1290h286l41 -254h-286z" />
<glyph unicode="&#xb1;" horiz-adv-x="581" d="M-66 829h164l-26 164h123l26 -164h164l18 -122h-163l26 -164h-123l-26 164h-164zM-8 465h450l21 -123h-451z" />
<glyph unicode="&#xb2;" horiz-adv-x="663" d="M-156 1335h406q33 0 54.5 -13t35.5 -32.5t21.5 -43t11.5 -44.5l2 -18q-6 -16 -27.5 -67.5t-47.5 -110t-50.5 -108.5t-36.5 -64q-12 -20 -6 -39l2 -15q8 -20 21.5 -34.5t41.5 -14.5h21q14 0 29 1l16 1l149 31l-4 -74h-481q-23 0 -35 7.5t-16 29.5l-4 14q-2 2 2 21l209 461 q4 8 4 20l-4 19l-2 2q-2 6 -27 20q-2 2 -23 2h-24q-14 0 -28.5 -4t-18.5 -10l-72 -187l-6 -6l-109 238z" />
<glyph unicode="&#xb3;" horiz-adv-x="690" d="M-156 1335h484q20 0 33.5 -20.5t17.5 -36.5l2 -10q2 -6 -8 -27q-2 -8 -11.5 -27.5t-21.5 -41t-22.5 -39t-16.5 -23.5l2 -10h70q35 0 61.5 -10.5t34.5 -51.5l2 -16l2 -8q0 -18 -8 -27q-10 -18 -28.5 -52t-38 -67.5t-35 -61.5t-19.5 -34q-14 -23 -44 -52.5t-64 -29.5h-263 l-10 62h160l160 286h-260q6 12 30.5 46t52 72t49 68.5t19.5 37.5v10h-266z" />
<glyph unicode="&#xb4;" horiz-adv-x="544" d="M-109 1036h287l107 254h-308z" />
<glyph unicode="&#xb5;" horiz-adv-x="1363" d="M-98 1030q-12 78 2 128t40.5 80t57.5 41t49 11h723q18 0 53 -11t70 -41t66 -80t43 -128l45 -276q47 -10 89 -31t48 -57l92 -594l135 -144h-500l-12 72h-647q-18 0 -53 11.5t-70 41t-65.5 79.5t-42.5 128zM293 1026l121 -762q16 -49 34.5 -78.5t35 -45t30.5 -21.5t25 -8 h120q8 2 21.5 7t26 21.5t21.5 46t11 78.5l-121 762q-18 49 -36.5 79t-35 45t-30.5 21.5t-24 8.5h-121q-10 -2 -23.5 -8.5t-26 -21.5t-20.5 -45t-8 -79z" />
<glyph unicode="&#xb6;" horiz-adv-x="229" d="M-178 1536h98l283 -1784h-99z" />
<glyph unicode="&#xb7;" horiz-adv-x="417" d="M-66 827l41 -254h287l-41 254h-287z" />
<glyph unicode="&#xb8;" horiz-adv-x="1353" d="M-150 1290h326l494 -461l-74 461h498q2 -4 0 -10t-2 -10l-2 -2q-2 -8 -10.5 -25.5t-18.5 -37t-19.5 -36t-13.5 -22.5l182 -1147l-770 707l113 -707h-492l50 82q4 6 9 21.5t3 19.5l-162 1024q-6 6 -20.5 22.5t-29.5 36t-28.5 37t-19.5 25.5l-2 2q-6 10 -11 20z" />
<glyph unicode="&#xb9;" horiz-adv-x="401" d="M-156 1335h250l92 -583q0 -4 5.5 -10.5t7.5 -10.5l39 -41h-287l22 41q2 4 5.5 10.5t3.5 10.5l-82 512q-6 4 -22.5 25.5t-24.5 31.5l-3 4q-6 2 -6 10z" />
<glyph unicode="&#xba;" horiz-adv-x="684" d="M-125 1204q-6 39 1 64.5t20.5 40t29 20.5t25.5 6h360q10 0 27.5 -6t35 -20.5t33 -40t21.5 -64.5l61 -385q6 -39 -1 -63.5t-20 -39t-28.5 -20.5t-25.5 -6h-361q-10 0 -27.5 6t-35 20.5t-32.5 39t-21 63.5zM70 1202l59 -381q20 -49 36.5 -61t27.5 -15h61q10 2 23.5 14.5 t15.5 61.5l-60 381q-18 49 -35.5 61.5t-27.5 16.5h-61q-10 -2 -22.5 -14.5t-16.5 -63.5z" />
<glyph unicode="&#xbb;" horiz-adv-x="690" d="M-115 1120l275 -127l73 -461l-235 -124l-45 286l119 74l-140 66zM193 1118l272 -127l74 -461l-234 -124l-47 286l119 74l-139 65z" />
<glyph unicode="&#xbc;" horiz-adv-x="1447" d="M39 1292q0 -4 6 -10l2 -4q8 -10 24.5 -31.5t24.5 -25.5l80 -512q2 -4 -2 -10.5t-4 -10.5l-25 -41h287l-37 41q-12 10 -14 21l-92 583h-250zM53 8l2 -8h404l-125 80l792 1171q6 10 19.5 16.5t36.5 16.5l-2 8h-412l139 -80l-796 -1169q-14 -25 -58 -35zM678 188h344 l31 -188h245l-36 41q-12 12 -15 20l-20 127h80l43 62h-131l-52 323q4 10 17.5 35t13.5 37h-248zM905 250l86 143l23 -143h-109z" />
<glyph unicode="&#xbd;" horiz-adv-x="1511" d="M39 1292h250l92 -583q2 -10 14 -21l37 -41h-287l25 41q0 4 4 10.5t2 10.5l-80 512q-8 4 -24.5 25.5t-24.5 31.5l-2 4q-6 6 -6 10zM53 8q43 10 58 35l796 1169l-139 80h412l2 -8q-23 -10 -36 -16t-20 -17l-792 -1171l125 -80h-404zM801 645h405q33 0 54.5 -13.5t36 -32.5 t21.5 -43t11 -44l4 -18q-8 -16 -30.5 -67.5t-48 -110t-49 -108.5t-36.5 -65q-10 -16 -6 -39l2 -14q8 -20 22.5 -34.5t43.5 -14.5h20q14 0 29 1l16 1l148 31l-4 -74h-482q-23 0 -34 7t-17 30l-4 14q0 16 2 21l211 460q4 14 2 21l-2 18l-2 2q-4 4 -8 8.5t-21 12.5q-2 2 -22 2 h-25q-14 0 -28.5 -4t-18.5 -10l-71 -187l-7 -6l-106 238z" />
<glyph unicode="&#xbe;" horiz-adv-x="1447" d="M-102 1294h483q20 0 34.5 -20.5t16.5 -36.5l2 -10q2 -6 -8 -27q-2 -8 -11 -27.5t-21.5 -41t-23 -39t-16.5 -23.5l2 -10h70q35 0 62.5 -10.5t33.5 -51.5l2 -16l2 -8q2 -8 -8 -26.5t-28.5 -52.5t-38 -67.5t-35 -61.5t-19.5 -34q-14 -23 -43.5 -52.5t-64.5 -29.5h-262 l-11 62h160l160 286h-260q6 12 30.5 46t52 72t49 68.5t21.5 37.5l-2 10h-266zM53 8q43 10 58 35l796 1169l-139 80h412l2 -8q-23 -10 -36 -16t-20 -17l-792 -1171l125 -80h-404zM678 188l272 457h248q0 -12 -13.5 -36.5t-17.5 -35.5l52 -323h131l-43 -62h-80l20 -127 q2 -8 15 -20l36 -41h-245l-31 188h-344zM905 250h109l-23 143z" />
<glyph unicode="&#xbf;" horiz-adv-x="1138" d="M-7 414.5q-1 -11.5 3 -21.5v-8q8 -53 67.5 -88t126.5 -59l830 -316l80 -22l-6 37l-164 555l-17 -11l-190 -325q0 -14 -14 -15h-21q-92 20 -138 61.5t-56 94.5q-4 20 -5 35q0 23 15 39q51 63 108.5 128.5t112.5 131t102 130.5t78 128l-313 59q4 -25 -32 -65.5t-93 -89 t-127 -100.5t-136.5 -100t-119.5 -87t-76 -62q-14 -18 -15 -29.5zM557 1292l41 -254h287l-41 254h-287z" />
<glyph unicode="&#xc0;" d="M53 16l2 2l27.5 27.5t21.5 36.5l50 240l-4 16q-4 20 -14.5 33.5t-22 25t-23.5 22.5t-20 30q-4 8 -8 19l-3 11h127l138 668l-150 143h504l719 -1290h-647l36 43q2 4 11.5 19.5t20.5 32t21.5 31.5t12.5 19v9q0 10 -2 12q0 4 -2 11t-2 9l-94 181h-414l-31 -21l-37 -211 l150 -135h-365zM186 1686h308l165 -254h-286zM332 489h350l-217 412l-27 41l-4 2t-8 2q-2 0 -1 -1l3 -3z" />
<glyph unicode="&#xc1;" d="M53 16l2 2l27.5 27.5t21.5 36.5l50 240l-4 16q-4 20 -14.5 33.5t-22 25t-23.5 22.5t-20 30q-4 8 -8 19l-3 11h127l138 668l-150 143h504l719 -1290h-647l36 43q2 4 11.5 19.5t20.5 32t21.5 31.5t12.5 19v9q0 10 -2 12q0 4 -2 11t-2 9l-94 181h-414l-31 -21l-37 -211 l150 -135h-365zM276 1434l86 254h308l-107 -254h-287zM332 489h350l-217 412l-27 41l-4 2t-8 2q-2 0 -1 -1l3 -3z" />
<glyph unicode="&#xc2;" d="M53 16l2 2l27.5 27.5t21.5 36.5l50 240l-4 16q-4 20 -14.5 33.5t-22 25t-23.5 22.5t-20 30q-4 8 -8 19l-3 11h127l138 668l-150 143h504l719 -1290h-647l36 43q2 4 11.5 19.5t20.5 32t21.5 31.5t12.5 19v9q0 10 -2 12q0 4 -2 11t-2 9l-94 181h-414l-31 -21l-37 -211 l150 -135h-365zM115 1434l86 254h461l165 -254h-286l-95 129l-45 -129h-286zM332 489h350l-217 412l-27 41l-4 2t-8 2q-2 0 -1 -1l3 -3z" />
<glyph unicode="&#xc3;" d="M53 16l2 2l27.5 27.5t21.5 36.5l50 240l-4 16q-4 20 -14.5 33.5t-22 25t-23.5 22.5t-20 30q-4 8 -8 19l-3 11h127l138 668l-150 143h504l719 -1290h-647l36 43q2 4 11.5 19.5t20.5 32t21.5 31.5t12.5 19v9q0 10 -2 12q0 4 -2 11t-2 9l-94 181h-414l-31 -21l-37 -211 l150 -135h-365zM82 1432l57 251h353l77 -129l27 129h219l-61 -251h-351l-73 129l-29 -129h-219zM332 489h350l-217 412l-27 41l-4 2t-8 2q-2 0 -1 -1l3 -3z" />
<glyph unicode="&#xc4;" d="M53 16l2 2l27.5 27.5t21.5 36.5l50 240l-4 16q-4 20 -14.5 33.5t-22 25t-23.5 22.5t-20 30q-4 8 -8 19l-3 11h127l138 668l-150 143h504l719 -1290h-647l36 43q2 4 11.5 19.5t20.5 32t21.5 31.5t12.5 19v9q0 10 -2 12q0 4 -2 11t-2 9l-94 181h-414l-31 -21l-37 -211 l150 -135h-365zM66 1688h286l41 -254h-287zM332 489h350l-217 412l-27 41l-4 2t-8 2q-2 0 -1 -1l3 -3zM492 1688h286l41 -254h-287z" />
<glyph unicode="&#xc5;" d="M53 16l2 2l27.5 27.5t21.5 36.5l50 240l-4 16q-4 20 -14.5 33.5t-22 25t-23.5 22.5t-20 30q-4 8 -8 19l-3 11h127l138 668l-150 143h504l719 -1290h-647l36 43q2 4 11.5 19.5t20.5 32t21.5 31.5t12.5 19v9q0 10 -2 12q0 4 -2 11t-2 9l-94 181h-414l-31 -21l-37 -211 l150 -135h-365zM281 1688h286l41 -254h-286zM332 489h350l-217 412l-27 41l-4 2t-8 2q-2 0 -1 -1l3 -3z" />
<glyph unicode="&#xc6;" horiz-adv-x="2172" d="M53 16q12 10 29.5 27.5t21.5 38.5l50 240l-4 16q-4 20 -14.5 33.5t-22 25t-23.5 22.5t-20 30q-4 8 -8 19l-3 11h127l138 668l-150 143h504l424 -762l-90 576q-2 4 -12.5 18.5t-16.5 22.5l-125 145h1024l31 -192l-115 82h-389l55 -351h451l-84 -122h-348l92 -584h369 l124 123l39 -246h-1357l36 43q2 4 11.5 19.5t20.5 32t21.5 31.5t12.5 19v9q0 10 -2 12q0 4 -2 11t-2 9l-94 181h-414l-31 -21l-37 -211l150 -135h-365zM332 489h350l-217 412l-27 41l-4 2t-8 2q-2 0 -1 -1l3 -3z" />
<glyph unicode="&#xc7;" horiz-adv-x="1189" d="M-98 1030l123 -770q12 -78 42.5 -128t65.5 -79.5t70 -41t53 -11.5h346l21 -123h-164l18 -123h287l-39 246h334l-39 246l-125 -123h-391q-20 10 -44 42t-46 99l-121 762q0 49 8 79t20.5 45t25.5 21.5t24 8.5h215q27 -18 50 -43t38 -43l244 -342l18 -13q2 29 4 100.5 t2 151.5t-1 151.5t-3 102.5q-2 14 -31 39l-35 6h-821q-18 0 -49 -11t-57.5 -41t-41 -80t-1.5 -128z" />
<glyph unicode="&#xc8;" horiz-adv-x="1165" d="M-150 1290h1024l31 -192l-114 82h-390l56 -351h450l-84 -122h-348l92 -584h369l125 123l39 -246h-1030q-2 8 2 20l65 103q4 6 10.5 21.5t4.5 19.5l-148 940q-2 4 -12 18.5t-17 22.5zM70 1686h307l166 -254h-287z" />
<glyph unicode="&#xc9;" horiz-adv-x="1165" d="M-150 1290h1024l31 -192l-114 82h-390l56 -351h450l-84 -122h-348l92 -584h369l125 123l39 -246h-1030q-2 8 2 20l65 103q4 6 10.5 21.5t4.5 19.5l-148 940q-2 4 -12 18.5t-17 22.5zM147 1432l89 254h307l-109 -254h-287z" />
<glyph unicode="&#xca;" horiz-adv-x="1165" d="M-150 1290h1024l31 -192l-114 82h-390l56 -351h450l-84 -122h-348l92 -584h369l125 123l39 -246h-1030q-2 8 2 20l65 103q4 6 10.5 21.5t4.5 19.5l-148 940q-2 4 -12 18.5t-17 22.5zM-2 1434l86 254h461l166 -254h-287l-94 129l-45 -129h-287z" />
<glyph unicode="&#xcb;" horiz-adv-x="1165" d="M-150 1290h1024l31 -192l-114 82h-390l56 -351h450l-84 -122h-348l92 -584h369l125 123l39 -246h-1030q-2 8 2 20l65 103q4 6 10.5 21.5t4.5 19.5l-148 940q-2 4 -12 18.5t-17 22.5zM-43 1688h287l41 -254h-287zM383 1688h287l41 -254h-287z" />
<glyph unicode="&#xcc;" horiz-adv-x="698" d="M-152 1290h588q2 -4 0 -10t-2 -10l-2 -2q-2 -8 -10 -25.5t-18.5 -37t-19.5 -36t-13 -22.5l161 -1024q2 -4 12.5 -19.5t16.5 -21.5l74 -82h-576l50 82q4 6 9 21.5t3 19.5l-162 1024q-6 6 -20.5 22.5t-29.5 36t-28.5 37t-19.5 25.5l-2 2q-6 10 -11 20zM-152 1688h308 l168 -254h-287z" />
<glyph unicode="&#xcd;" horiz-adv-x="698" d="M-150 1290h588q2 -4 0 -10t-2 -10l-2 -2q-2 -8 -10 -25.5t-18.5 -37t-19.5 -36t-13 -22.5l162 -1024q2 -4 12 -19.5t16 -21.5l74 -82h-576l50 82q4 6 9 21.5t3 19.5l-162 1024q-6 6 -20.5 22.5t-29.5 36t-28.5 37t-19.5 25.5l-2 2q-6 10 -11 20zM-82 1434l86 254h307 l-106 -254h-287z" />
<glyph unicode="&#xce;" horiz-adv-x="698" d="M-238 1432l88 254h461l164 -254h-287l-94 129l-45 -129h-287zM-150 1290h588q2 -4 0 -10t-2 -10l-2 -2q-2 -8 -10 -25.5t-18.5 -37t-19.5 -36t-13 -22.5l162 -1024q2 -4 12 -19.5t16 -21.5l74 -82h-576l50 82q4 6 9 21.5t3 19.5l-162 1024q-6 6 -20.5 22.5t-29.5 36 t-28.5 37t-19.5 25.5l-2 2q-6 10 -11 20z" />
<glyph unicode="&#xcf;" horiz-adv-x="698" d="M-274 1686h286l39 -254h-287zM-150 1290h588q2 -4 0 -10t-2 -10l-2 -2q-2 -8 -10 -25.5t-18.5 -37t-19.5 -36t-13 -22.5l162 -1024q2 -4 12 -19.5t16 -21.5l74 -82h-576l50 82q4 6 9 21.5t3 19.5l-162 1024q-6 6 -20.5 22.5t-29.5 36t-28.5 37t-19.5 25.5l-2 2 q-6 10 -11 20zM152 1686h286l39 -254h-287z" />
<glyph unicode="&#xd0;" horiz-adv-x="1464" d="M-139 1290h1333l100 -626q4 -18 3 -33t-15 -37q-18 -37 -55 -104.5t-75 -135t-69.5 -123t-40.5 -67.5q-14 -23 -37.5 -51.5t-52 -53t-61.5 -42t-68 -17.5h-635l-110 705h-123l-21 124h123l-47 297q-2 4 -12 19.5t-14 21.5zM414 1167l53 -338h244l-82 -124h-142l91 -582 h20l320 573l-74 471h-430z" />
<glyph unicode="&#xd1;" horiz-adv-x="1353" d="M-150 1290h424l396 -461l-74 461h498q-6 -23 -21.5 -59.5t-44.5 -83.5l162 -1024l102 -123h-256l-596 707l113 -707h-492l50 82q4 6 9 21.5t3 19.5l-162 1024q-6 6 -20.5 22.5t-32 38t-33.5 44t-25 38.5zM72 1434l57 252h352l78 -130l27 130h219l-62 -252h-350l-74 129 l-28 -129h-219z" />
<glyph unicode="&#xd2;" horiz-adv-x="1234" d="M-100 1030q-12 78 2 128t40.5 80t57.5 41t49 11h723q18 0 53 -11t70 -41t65.5 -80t43.5 -128l122 -770q12 -78 -2 -128t-40.5 -79.5t-57.5 -41t-49 -11.5h-723q-18 0 -53 11.5t-70 41t-65.5 79.5t-42.5 128zM109 1686h307l166 -254h-287zM291 1026l121 -762 q18 -49 35.5 -78.5t34 -45t30.5 -21.5t25 -8h120q8 2 22.5 8t27 21.5t21.5 45t9 78.5l-121 762q-16 49 -34.5 79t-36 45t-32.5 21.5t-24 8.5h-120q-10 -2 -22.5 -7.5t-24 -21.5t-20.5 -46t-11 -79z" />
<glyph unicode="&#xd3;" horiz-adv-x="1234" d="M-98 1030q-12 78 2 128t40.5 80t57.5 41t49 11h723q18 0 53 -11t70 -41t66 -80t43 -128l122 -770q12 -78 -2 -128t-40.5 -79.5t-57.5 -41t-49 -11.5h-723q-18 0 -53 11.5t-70 41t-65.5 79.5t-42.5 128zM197 1432l88 254h307l-109 -254h-286zM293 1026l121 -762 q16 -49 34.5 -78.5t35 -45t30.5 -21.5t25 -8h120q8 2 21.5 7t26 21.5t21.5 46t11 78.5l-121 762q-18 49 -36.5 79t-35 45t-30.5 21.5t-24 8.5h-121q-10 -2 -23.5 -8.5t-26 -21.5t-20.5 -45t-8 -79z" />
<glyph unicode="&#xd4;" horiz-adv-x="1234" d="M-98 1030q-12 78 2 128t40.5 80t57.5 41t49 11h723q18 0 53 -11t70 -41t66 -80t43 -128l122 -770q12 -78 -2 -128t-40.5 -79.5t-57.5 -41t-49 -11.5h-723q-18 0 -53 11.5t-70 41t-65.5 79.5t-42.5 128zM41 1434l86 254h461l166 -254h-287l-94 129l-45 -129h-287z M293 1026l121 -762q16 -49 34.5 -78.5t35 -45t30.5 -21.5t25 -8h120q8 2 21.5 7t26 21.5t21.5 46t11 78.5l-121 762q-18 49 -36.5 79t-35 45t-30.5 21.5t-24 8.5h-121q-10 -2 -23.5 -8.5t-26 -21.5t-20.5 -45t-8 -79z" />
<glyph unicode="&#xd5;" horiz-adv-x="1234" d="M-98 1030q-12 78 2 128t40.5 80t57.5 41t49 11h723q18 0 53 -11t70 -41t66 -80t43 -128l122 -770q12 -78 -2 -128t-40.5 -79.5t-57.5 -41t-49 -11.5h-723q-18 0 -53 11.5t-70 41t-65.5 79.5t-42.5 128zM10 1436l56 252h352l78 -129l26 129h219l-59 -252h-350l-74 129 l-29 -129h-219zM293 1026l121 -762q16 -49 34.5 -78.5t35 -45t30.5 -21.5t25 -8h120q8 2 21.5 7t26 21.5t21.5 46t11 78.5l-121 762q-18 49 -36.5 79t-35 45t-30.5 21.5t-24 8.5h-121q-10 -2 -23.5 -8.5t-26 -21.5t-20.5 -45t-8 -79z" />
<glyph unicode="&#xd6;" horiz-adv-x="1234" d="M-98 1030q-12 78 2 128t40.5 80t57.5 41t49 11h723q18 0 53 -11t70 -41t66 -80t43 -128l122 -770q12 -78 -2 -128t-40.5 -79.5t-57.5 -41t-49 -11.5h-723q-18 0 -53 11.5t-70 41t-65.5 79.5t-42.5 128zM0 1686h287l39 -254h-287zM293 1026l121 -762q16 -49 34.5 -78.5 t35 -45t30.5 -21.5t25 -8h120q8 2 21.5 7t26 21.5t21.5 46t11 78.5l-121 762q-18 49 -36.5 79t-35 45t-30.5 21.5t-24 8.5h-121q-10 -2 -23.5 -8.5t-26 -21.5t-20.5 -45t-8 -79zM426 1686h287l39 -254h-287z" />
<glyph unicode="&#xd7;" horiz-adv-x="536" d="M-74 885l72 86l135 -117l98 117l101 -86l-99 -117l136 -117l-74 -86l-135 117l-99 -117l-98 86l98 117z" />
<glyph unicode="&#xd8;" horiz-adv-x="1234" d="M-98 1030l123 -770q12 -78 42.5 -128t65.5 -79.5t70 -41t53 -11.5h723q18 0 49 11.5t57.5 41t41 79.5t1.5 128l-122 770q-12 78 -43 128t-66 80t-69.5 41t-53.5 11h-723q-18 0 -49 -11t-57.5 -41t-41 -80t-1.5 -128zM293 1026q0 49 8 79t20.5 45t25.5 21.5t24 8.5h121 q10 -2 24 -8.5t30.5 -21.5t35 -45t36.5 -79l13 -86l-262 -401zM397 356l260 416l82 -508q-2 -49 -11 -78.5t-21.5 -46t-26 -21.5t-21.5 -7h-120q-10 2 -24.5 8t-31 21.5t-35 45t-34.5 78.5z" />
<glyph unicode="&#xd9;" horiz-adv-x="1318" d="M-150 1290h500l164 -1026q18 -49 35.5 -78.5t34 -45t31 -21.5t24.5 -8h4q8 2 22.5 8t27 21.5t21.5 45t9 78.5l-164 1026h500l-88 -141l141 -889q12 -78 -2 -128t-41 -79.5t-57.5 -41t-48.5 -11.5h-607q-18 0 -53 11.5t-69.5 41t-65.5 79.5t-43 128l-141 889zM156 1688 h307l168 -254h-287z" />
<glyph unicode="&#xda;" horiz-adv-x="1318" d="M-150 1290h500l164 -1026q16 -49 34.5 -78.5t35 -45t31 -21.5t24.5 -8h4q8 2 21.5 7t25.5 21.5t21.5 46t11.5 78.5l-164 1026h500l-88 -141l141 -889q12 -78 -2 -128t-41 -79.5t-57.5 -41t-48.5 -11.5h-607q-18 0 -53 11.5t-69.5 41t-65.5 79.5t-43 128l-141 889z M233 1434l86 254h308l-107 -254h-287z" />
<glyph unicode="&#xdb;" horiz-adv-x="1318" d="M-150 1290h500l164 -1026q16 -49 34.5 -78.5t35 -45t31 -21.5t24.5 -8h4q8 2 21.5 7t25.5 21.5t21.5 46t11.5 78.5l-164 1026h500l-88 -141l141 -889q12 -78 -2 -128t-41 -79.5t-57.5 -41t-48.5 -11.5h-607q-18 0 -53 11.5t-69.5 41t-65.5 79.5t-43 128l-141 889z M76 1434l86 254h461l165 -254h-286l-94 129l-46 -129h-286z" />
<glyph unicode="&#xdc;" horiz-adv-x="1318" d="M-150 1290h500l164 -1026q16 -49 34.5 -78.5t35 -45t31 -21.5t24.5 -8h4q8 2 21.5 7t25.5 21.5t21.5 46t11.5 78.5l-164 1026h500l-88 -141l141 -889q12 -78 -2 -128t-41 -79.5t-57.5 -41t-48.5 -11.5h-607q-18 0 -53 11.5t-69.5 41t-65.5 79.5t-43 128l-141 889z M35 1688h287l40 -254h-286zM461 1688h287l40 -254h-286z" />
<glyph unicode="&#xdd;" horiz-adv-x="1437" d="M-150 1290h642l-39 -20q-4 -4 -14.5 -12.5t-23 -16.5t-23.5 -16t-13 -11v-8q0 -4 2 -7l2 -3l285 -338l237 352l-139 80h412l2 -8q-23 -10 -36.5 -16t-19.5 -17l-346 -508l117 -741h-471l49 82q4 6 9 21.5t3 19.5l-77 502zM322 1434l86 254h307l-107 -254h-286z" />
<glyph unicode="&#xde;" horiz-adv-x="1298" d="M-150 1290h476l49 -307h667q23 0 38.5 -28.5t19.5 -51.5v-12q-4 -27 -18.5 -76t-37 -105.5t-50 -115.5t-58.5 -106.5t-63.5 -78t-63.5 -30.5h-338l59 -379h-469l50 82q4 4 7 14t7 19l-164 1032q-6 6 -20.5 22.5t-29.5 36t-28.5 37t-19.5 25.5l-2 2q-6 10 -11 20zM401 881 l62 -389q25 14 56.5 54t64 95t61.5 117.5t45 122.5h-289z" />
<glyph unicode="&#xdf;" horiz-adv-x="1542" d="M-115 1147l203 -1272q0 -4 -5 -19.5t-9 -21.5l-49 -82h491l-215 1356l102 57h385l3 -20q2 -8 -17.5 -41t-50.5 -77t-68 -95t-71.5 -98.5t-62 -84t-38.5 -53.5h523l-320 -573h-111l21 -123h315q35 0 68 17.5t61.5 42t52 53t37.5 51.5q8 12 40 67.5t70 123t75 135t55 104.5 q14 23 15 37t-3 33l-6 32q-6 39 -23.5 63.5t-43 38t-57 17.5t-64.5 4h-139l-5 21q8 14 29 51t43.5 79t43 79.5t28.5 54.5q12 25 13 35t-3 37q-2 14 -11 34.5t-23.5 38t-32 29.5t-37.5 12h-965z" />
<glyph unicode="&#xe0;" d="M53 16l2 2l27.5 27.5t21.5 36.5l50 240l-4 16q-4 20 -14.5 33.5t-22 25t-23.5 22.5t-20 30q-4 8 -8 19l-3 11h127l138 668l-150 143h504l719 -1290h-647l36 43q2 4 11.5 19.5t20.5 32t21.5 31.5t12.5 19v9q0 10 -2 12q0 4 -2 11t-2 9l-94 181h-414l-31 -21l-37 -211 l150 -135h-365zM186 1686h308l165 -254h-286zM332 489h350l-217 412l-27 41l-4 2t-8 2q-2 0 -1 -1l3 -3z" />
<glyph unicode="&#xe1;" d="M53 16l2 2l27.5 27.5t21.5 36.5l50 240l-4 16q-4 20 -14.5 33.5t-22 25t-23.5 22.5t-20 30q-4 8 -8 19l-3 11h127l138 668l-150 143h504l719 -1290h-647l36 43q2 4 11.5 19.5t20.5 32t21.5 31.5t12.5 19v9q0 10 -2 12q0 4 -2 11t-2 9l-94 181h-414l-31 -21l-37 -211 l150 -135h-365zM276 1434l86 254h308l-107 -254h-287zM332 489h350l-217 412l-27 41l-4 2t-8 2q-2 0 -1 -1l3 -3z" />
<glyph unicode="&#xe2;" d="M53 16l2 2l27.5 27.5t21.5 36.5l50 240l-4 16q-4 20 -14.5 33.5t-22 25t-23.5 22.5t-20 30q-4 8 -8 19l-3 11h127l138 668l-150 143h504l719 -1290h-647l36 43q2 4 11.5 19.5t20.5 32t21.5 31.5t12.5 19v9q0 10 -2 12q0 4 -2 11t-2 9l-94 181h-414l-31 -21l-37 -211 l150 -135h-365zM115 1434l86 254h461l165 -254h-286l-95 129l-45 -129h-286zM332 489h350l-217 412l-27 41l-4 2t-8 2q-2 0 -1 -1l3 -3z" />
<glyph unicode="&#xe3;" d="M53 16l2 2l27.5 27.5t21.5 36.5l50 240l-4 16q-4 20 -14.5 33.5t-22 25t-23.5 22.5t-20 30q-4 8 -8 19l-3 11h127l138 668l-150 143h504l719 -1290h-647l36 43q2 4 11.5 19.5t20.5 32t21.5 31.5t12.5 19v9q0 10 -2 12q0 4 -2 11t-2 9l-94 181h-414l-31 -21l-37 -211 l150 -135h-365zM82 1432l57 251h353l77 -129l27 129h219l-61 -251h-351l-73 129l-29 -129h-219zM332 489h350l-217 412l-27 41l-4 2t-8 2q-2 0 -1 -1l3 -3z" />
<glyph unicode="&#xe4;" d="M53 16l2 2l27.5 27.5t21.5 36.5l50 240l-4 16q-4 20 -14.5 33.5t-22 25t-23.5 22.5t-20 30q-4 8 -8 19l-3 11h127l138 668l-150 143h504l719 -1290h-647l36 43q2 4 11.5 19.5t20.5 32t21.5 31.5t12.5 19v9q0 10 -2 12q0 4 -2 11t-2 9l-94 181h-414l-31 -21l-37 -211 l150 -135h-365zM66 1688h286l41 -254h-287zM332 489h350l-217 412l-27 41l-4 2t-8 2q-2 0 -1 -1l3 -3zM492 1688h286l41 -254h-287z" />
<glyph unicode="&#xe5;" d="M53 16l2 2l27.5 27.5t21.5 36.5l50 240l-4 16q-4 20 -14.5 33.5t-22 25t-23.5 22.5t-20 30q-4 8 -8 19l-3 11h127l138 668l-150 143h504l719 -1290h-647l36 43q2 4 11.5 19.5t20.5 32t21.5 31.5t12.5 19v9q0 10 -2 12q0 4 -2 11t-2 9l-94 181h-414l-31 -21l-37 -211 l150 -135h-365zM281 1688h286l41 -254h-286zM332 489h350l-217 412l-27 41l-4 2t-8 2q-2 0 -1 -1l3 -3z" />
<glyph unicode="&#xe6;" horiz-adv-x="2172" d="M53 16q12 10 29.5 27.5t21.5 38.5l50 240l-4 16q-4 20 -14.5 33.5t-22 25t-23.5 22.5t-20 30q-4 8 -8 19l-3 11h127l138 668l-150 143h504l424 -762l-90 576q-2 4 -12.5 18.5t-16.5 22.5l-125 145h1024l31 -192l-115 82h-389l55 -351h451l-84 -122h-348l92 -584h369 l124 123l39 -246h-1357l36 43q2 4 11.5 19.5t20.5 32t21.5 31.5t12.5 19v9q0 10 -2 12q0 4 -2 11t-2 9l-94 181h-414l-31 -21l-37 -211l150 -135h-365zM332 489h350l-217 412l-27 41l-4 2t-8 2q-2 0 -1 -1l3 -3z" />
<glyph unicode="&#xe7;" horiz-adv-x="1198" d="M-55 696l6 -32q4 -18 8 -33t25 -37q31 -37 89 -104.5t117.5 -136t107.5 -123t60 -66.5q23 -23 54.5 -51.5t68.5 -53t76 -42t74 -17.5h2l18 -117h-164l21 -123h287l-39 240h331l-38 246l-125 -123h-109q-143 135 -269 274.5t-231 298.5q4 111 24.5 225.5t57.5 245.5l25 2 h184q23 -20 42.5 -38.5t33.5 -36.5l244 -342l18 -13q2 29 4 100.5t2 151.5t-1 151.5t-3 102.5q-2 4 -11 17.5t-22 23.5l-36 4h-805q-10 -2 -24.5 -39t-30 -93t-31 -123.5t-25.5 -133t-15 -121t-1 -84.5z" />
<glyph unicode="&#xe8;" horiz-adv-x="1165" d="M-150 1290h1024l31 -192l-114 82h-390l56 -351h450l-84 -122h-348l92 -584h369l125 123l39 -246h-1030q-2 8 2 20l65 103q4 6 10.5 21.5t4.5 19.5l-148 940q-2 4 -12 18.5t-17 22.5zM70 1686h307l166 -254h-287z" />
<glyph unicode="&#xe9;" horiz-adv-x="1165" d="M-150 1290h1024l31 -192l-114 82h-390l56 -351h450l-84 -122h-348l92 -584h369l125 123l39 -246h-1030q-2 8 2 20l65 103q4 6 10.5 21.5t4.5 19.5l-148 940q-2 4 -12 18.5t-17 22.5zM147 1432l89 254h307l-109 -254h-287z" />
<glyph unicode="&#xea;" horiz-adv-x="1165" d="M-150 1290h1024l31 -192l-114 82h-390l56 -351h450l-84 -122h-348l92 -584h369l125 123l39 -246h-1030q-2 8 2 20l65 103q4 6 10.5 21.5t4.5 19.5l-148 940q-2 4 -12 18.5t-17 22.5zM-2 1434l86 254h461l166 -254h-287l-94 129l-45 -129h-287z" />
<glyph unicode="&#xeb;" horiz-adv-x="1165" d="M-150 1290h1024l31 -192l-114 82h-390l56 -351h450l-84 -122h-348l92 -584h369l125 123l39 -246h-1030q-2 8 2 20l65 103q4 6 10.5 21.5t4.5 19.5l-148 940q-2 4 -12 18.5t-17 22.5zM-43 1688h287l41 -254h-287zM383 1688h287l41 -254h-287z" />
<glyph unicode="&#xec;" horiz-adv-x="628" d="M-287 1688h287l41 -254h-287zM-139 1290h497l205 -1290h-491l49 82q4 6 9 21.5t3 19.5l-162 1024q-6 6 -20 22.5t-29.5 36t-29 37t-19.5 25.5l-2 2q-6 10 -10 20zM139 1688h287l41 -254h-287z" />
<glyph unicode="&#xed;" horiz-adv-x="628" d="M-139 1290h497l205 -1290h-491l49 82q4 6 9 21.5t3 19.5l-162 1024q-6 6 -20 22.5t-29.5 36t-29 37t-19.5 25.5l-2 2q-6 10 -10 20zM-82 1434l86 254h307l-106 -254h-287z" />
<glyph unicode="&#xee;" horiz-adv-x="628" d="M-244 1432l88 254h461l164 -254h-287l-94 129l-45 -129h-287zM-139 1290h497l205 -1290h-491l49 82q4 6 9 21.5t3 19.5l-162 1024q-6 6 -20 22.5t-29.5 36t-29 37t-19.5 25.5l-2 2q-6 10 -10 20z" />
<glyph unicode="&#xef;" horiz-adv-x="628" d="M-287 1688h287l41 -254h-287zM-139 1290h497l205 -1290h-491l49 82q4 6 9 21.5t3 19.5l-162 1024q-6 6 -20 22.5t-29.5 36t-29 37t-19.5 25.5l-2 2q-6 10 -10 20zM139 1688h287l41 -254h-287z" />
<glyph unicode="&#xf0;" horiz-adv-x="1318" d="M-51 668l35 -47q135 -186 263 -348t257 -273h184q53 0 101.5 37t82.5 78l2 2q12 12 19.5 24.5l13.5 22.5q8 12 40 67.5t70 123t74.5 135t55.5 104.5q14 23 15 37t-3 33l-6 32q-4 29 -26.5 84.5t-55.5 121t-69.5 134t-71.5 123.5t-61.5 92t-37.5 39h-811l-24 -6 q-20 -23 -16 -39q6 -31 27.5 -102.5t48 -151.5t51 -151.5t34.5 -100.5l15 13l133 342q10 16 24.5 34.5t30.5 40.5h184l25 -2q78 -131 135 -245.5t94 -225.5l-8 -28h-825zM399 547h320q-33 -61 -68 -120.5t-63 -107.5z" />
<glyph unicode="&#xf1;" horiz-adv-x="1359" d="M-150 1290h326l496 -481l-76 481h504q2 -4 -3 -10t-5 -10l-2 -2q-2 -8 -10.5 -25.5t-18.5 -37t-19.5 -36t-13.5 -22.5l195 -1219l-783 779l113 -707h-492l50 82q4 6 9 21.5t3 19.5l-162 1024q-6 6 -20.5 22.5t-32 38t-33.5 44t-25 38.5zM72 1434l57 252h352l78 -130 l27 130h219l-62 -252h-350l-74 129l-28 -129h-219z" />
<glyph unicode="&#xf2;" horiz-adv-x="1445" d="M-57 781.5q2 56.5 8 122t16 134t21.5 125t25 92t23.5 35.5h962q10 0 34 -35.5t53.5 -92t62.5 -125t60.5 -134t47 -122t23.5 -85.5l6 -32q4 -18 3 -33t-15 -37q-18 -37 -55 -104.5t-75 -135t-70 -123t-40 -67.5q-14 -23 -37.5 -51.5t-52.5 -53t-61.5 -42t-67.5 -17.5h-184 q-35 0 -74 17.5t-76 42t-68.5 53t-54.5 51.5q-10 12 -58 67.5t-108.5 124t-119 135t-88.5 103.5q-20 23 -24.5 37t-8.5 33l-6 32q-4 29 -2 85.5zM215 1686h307l166 -254h-287zM315 696l363 -415l231 415q-37 111 -88 226.5t-129 246.5h-307q-37 -131 -51.5 -246.5 t-18.5 -226.5z" />
<glyph unicode="&#xf3;" horiz-adv-x="1445" d="M-57 781.5q2 56.5 8 122t16 134t21.5 125t25 92t23.5 35.5h962q10 0 34 -35.5t53.5 -92t62.5 -125t60.5 -134t47 -122t23.5 -85.5l6 -32q4 -18 3 -33t-15 -37q-18 -37 -55 -104.5t-75 -135t-70 -123t-40 -67.5q-14 -23 -37.5 -51.5t-52.5 -53t-61.5 -42t-67.5 -17.5h-184 q-35 0 -74 17.5t-76 42t-68.5 53t-54.5 51.5q-10 12 -58 67.5t-108.5 124t-119 135t-88.5 103.5q-20 23 -24.5 37t-8.5 33l-6 32q-4 29 -2 85.5zM303 1432l88 254h307l-108 -254h-287zM315 696l363 -415l231 415q-37 111 -88 226.5t-129 246.5h-307q-37 -131 -51.5 -246.5 t-18.5 -226.5z" />
<glyph unicode="&#xf4;" horiz-adv-x="1445" d="M-57 781.5q2 56.5 8 122t16 134t21.5 125t25 92t23.5 35.5h962q10 0 34 -35.5t53.5 -92t62.5 -125t60.5 -134t47 -122t23.5 -85.5l6 -32q4 -18 3 -33t-15 -37q-18 -37 -55 -104.5t-75 -135t-70 -123t-40 -67.5q-14 -23 -37.5 -51.5t-52.5 -53t-61.5 -42t-67.5 -17.5h-184 q-35 0 -74 17.5t-76 42t-68.5 53t-54.5 51.5q-10 12 -58 67.5t-108.5 124t-119 135t-88.5 103.5q-20 23 -24.5 37t-8.5 33l-6 32q-4 29 -2 85.5zM143 1434l86 254h461l166 -254h-287l-94 129l-45 -129h-287zM315 696l363 -415l231 415q-37 111 -88 226.5t-129 246.5h-307 q-37 -131 -51.5 -246.5t-18.5 -226.5z" />
<glyph unicode="&#xf5;" horiz-adv-x="1445" d="M-57 781.5q2 56.5 8 122t16 134t21.5 125t25 92t23.5 35.5h962q10 0 34 -35.5t53.5 -92t62.5 -125t60.5 -134t47 -122t23.5 -85.5l6 -32q4 -18 3 -33t-15 -37q-18 -37 -55 -104.5t-75 -135t-70 -123t-40 -67.5q-14 -23 -37.5 -51.5t-52.5 -53t-61.5 -42t-67.5 -17.5h-184 q-35 0 -74 17.5t-76 42t-68.5 53t-54.5 51.5q-10 12 -58 67.5t-108.5 124t-119 135t-88.5 103.5q-20 23 -24.5 37t-8.5 33l-6 32q-4 29 -2 85.5zM127 1434l57 252h353l77 -130l27 130h219l-61 -252h-350l-74 129l-29 -129h-219zM315 696l363 -415l231 415q-37 111 -88 226.5 t-129 246.5h-307q-37 -131 -51.5 -246.5t-18.5 -226.5z" />
<glyph unicode="&#xf6;" horiz-adv-x="1445" d="M-57 781.5q2 56.5 8 122t16 134t21.5 125t25 92t23.5 35.5h962q10 0 34 -35.5t53.5 -92t62.5 -125t60.5 -134t47 -122t23.5 -85.5l6 -32q4 -18 3 -33t-15 -37q-18 -37 -55 -104.5t-75 -135t-70 -123t-40 -67.5q-14 -23 -37.5 -51.5t-52.5 -53t-61.5 -42t-67.5 -17.5h-184 q-35 0 -74 17.5t-76 42t-68.5 53t-54.5 51.5q-10 12 -58 67.5t-108.5 124t-119 135t-88.5 103.5q-20 23 -24.5 37t-8.5 33l-6 32q-4 29 -2 85.5zM104 1686h287l39 -254h-287zM315 696l363 -415l231 415q-37 111 -88 226.5t-129 246.5h-307q-37 -131 -51.5 -246.5 t-18.5 -226.5zM530 1686h287l39 -254h-287z" />
<glyph unicode="&#xf7;" horiz-adv-x="772" d="M-76 829h662l-84 -122h-559zM51 1153h287l39 -254h-287zM135 637h287l39 -254h-287z" />
<glyph unicode="&#xf8;" horiz-adv-x="1445" d="M-57 781.5q-2 -56.5 2 -85.5l6 -32q4 -18 8 -33t25 -37q31 -37 89 -104.5t117.5 -136t107.5 -123t60 -66.5q23 -23 54.5 -51.5t68.5 -53t76 -42t74 -17.5h184q35 0 67.5 17.5t61.5 42t52.5 53t37.5 51.5q8 12 40 67.5t70 123t74.5 135t55.5 104.5q14 23 15 37t-3 33 l-6 32q-4 29 -23.5 85.5t-47 122t-60.5 134t-62.5 125t-53 92t-34.5 35.5h-962q-12 0 -24.5 -35.5t-24 -92t-21.5 -125t-16 -134t-8 -122zM315 696q4 111 18.5 226.5t51.5 246.5h307q8 -16 16.5 -31.5t16.5 -31.5l-324 -508zM498 487l305 476q35 -72 59 -136.5t47 -130.5 l-231 -415z" />
<glyph unicode="&#xf9;" horiz-adv-x="1318" d="M-150 1290h500l164 -1026q18 -49 35.5 -78.5t34 -45t31 -21.5t24.5 -8h4q8 2 22.5 8t27 21.5t21.5 45t9 78.5l-164 1026h500l-88 -141l141 -889q12 -78 -2 -128t-41 -79.5t-57.5 -41t-48.5 -11.5h-607q-18 0 -53 11.5t-69.5 41t-65.5 79.5t-43 128l-141 889zM156 1688 h307l168 -254h-287z" />
<glyph unicode="&#xfa;" horiz-adv-x="1318" d="M-150 1290h500l164 -1026q16 -49 34.5 -78.5t35 -45t31 -21.5t24.5 -8h4q8 2 21.5 7t25.5 21.5t21.5 46t11.5 78.5l-164 1026h500l-88 -141l141 -889q12 -78 -2 -128t-41 -79.5t-57.5 -41t-48.5 -11.5h-607q-18 0 -53 11.5t-69.5 41t-65.5 79.5t-43 128l-141 889z M233 1434l86 254h308l-107 -254h-287z" />
<glyph unicode="&#xfb;" horiz-adv-x="1318" d="M-150 1290h500l164 -1026q16 -49 34.5 -78.5t35 -45t31 -21.5t24.5 -8h4q8 2 21.5 7t25.5 21.5t21.5 46t11.5 78.5l-164 1026h500l-88 -141l141 -889q12 -78 -2 -128t-41 -79.5t-57.5 -41t-48.5 -11.5h-607q-18 0 -53 11.5t-69.5 41t-65.5 79.5t-43 128l-141 889z M76 1434l86 254h461l165 -254h-286l-94 129l-46 -129h-286z" />
<glyph unicode="&#xfc;" horiz-adv-x="1318" d="M-150 1290h500l164 -1026q16 -49 34.5 -78.5t35 -45t31 -21.5t24.5 -8h4q8 2 21.5 7t25.5 21.5t21.5 46t11.5 78.5l-164 1026h500l-88 -141l141 -889q12 -78 -2 -128t-41 -79.5t-57.5 -41t-48.5 -11.5h-607q-18 0 -53 11.5t-69.5 41t-65.5 79.5t-43 128l-141 889z M35 1688h287l40 -254h-286zM461 1688h287l40 -254h-286z" />
<glyph unicode="&#xfd;" horiz-adv-x="1437" d="M-150 1290h642l-39 -20q-4 -4 -14.5 -12.5t-23 -16.5t-23.5 -16t-13 -11v-8q0 -4 2 -7l2 -3l285 -338l237 352l-139 80h412l2 -8q-23 -10 -36.5 -16t-19.5 -17l-346 -508l117 -741h-389l-98 625zM322 1434l86 254h307l-107 -254h-286z" />
<glyph unicode="&#xfe;" horiz-adv-x="1298" d="M-150 1290h476l49 -307h667q23 0 38.5 -28.5t19.5 -51.5v-12q-4 -27 -18.5 -76t-37 -105.5t-50 -115.5t-58.5 -106.5t-63.5 -78t-63.5 -30.5h-338l59 -379h-387l-182 1147q-6 6 -20.5 22.5t-29.5 36t-28.5 37t-19.5 25.5l-2 2q-6 10 -11 20zM401 883l62 -391 q25 14 56.5 55t64 96t61.5 117.5t45 122.5h-289z" />
<glyph unicode="&#xff;" horiz-adv-x="1437" d="M-150 1290h642l-39 -20q-4 -4 -14.5 -12.5t-23 -16.5t-23.5 -16t-13 -11v-8q0 -4 2 -7l2 -3l285 -338l237 352l-139 80h412l2 -8q-23 -10 -36.5 -16t-19.5 -17l-346 -508l117 -741h-389l-98 625zM90 1688h287l41 -254h-287zM516 1688h287l41 -254h-287z" />
<glyph unicode="&#x152;" horiz-adv-x="1835" d="M-98 1030q-12 78 2 128t40.5 80t57.5 41t49 11h1493l31 -192l-115 82h-389l55 -351h451l-84 -122h-348l92 -584h369l125 123l38 -246h-1513q-18 0 -53 11.5t-70 41t-65.5 79.5t-42.5 128zM293 1026l121 -762q23 -68 46 -99.5t44 -41.5h303q4 6 10 21.5t4 19.5l-147 930 q-14 18 -38 42.5t-50 43.5h-215q-10 -2 -23.5 -8.5t-26 -21.5t-20.5 -45t-8 -79z" />
<glyph unicode="&#x153;" horiz-adv-x="2039" d="M-55 696q-4 29 1 84.5t15 121t25.5 133t31 123.5t29.5 93t25 39h1677l31 -192l-115 82h-389l55 -351h451l-84 -122h-348l92 -584h368l125 123l39 -246h-1343q-35 0 -74 17.5t-76 42t-68.5 53t-54.5 51.5q-10 12 -58 67.5t-108.5 124t-119 135t-88.5 103.5 q-20 23 -24.5 37t-8.5 33zM315 696q104 -160 230.5 -299t269.5 -274h109l94 92l-84 530l-8 7l-244 342q-14 18 -33.5 36.5t-42.5 38.5h-184l-25 -2q-37 -131 -57.5 -245.5t-24.5 -225.5z" />
<glyph unicode="&#x178;" horiz-adv-x="1437" d="M-150 1290h642l-39 -20q-4 -4 -14.5 -12.5t-23 -16.5t-23.5 -16t-13 -11v-8q0 -4 2 -7l2 -3l285 -338l237 352l-139 80h412l2 -8q-23 -10 -36.5 -16t-19.5 -17l-346 -508l117 -741h-471l49 82q4 6 9 21.5t3 19.5l-77 502zM90 1688h287l41 -254h-287zM516 1688h287 l41 -254h-287z" />
<glyph unicode="&#x2c6;" horiz-adv-x="823" d="M-109 1036l86 254h461l166 -254h-287l-94 129l-45 -129h-287z" />
<glyph unicode="&#x2dc;" horiz-adv-x="882" d="M-109 1038l56 252h352l78 -129l26 129h220l-60 -252h-350l-74 129l-28 -129h-220z" />
<glyph unicode="&#x2000;" horiz-adv-x="909" />
<glyph unicode="&#x2001;" horiz-adv-x="1819" />
<glyph unicode="&#x2002;" horiz-adv-x="909" />
<glyph unicode="&#x2003;" horiz-adv-x="1819" />
<glyph unicode="&#x2004;" horiz-adv-x="606" />
<glyph unicode="&#x2005;" horiz-adv-x="454" />
<glyph unicode="&#x2006;" horiz-adv-x="303" />
<glyph unicode="&#x2007;" horiz-adv-x="303" />
<glyph unicode="&#x2008;" horiz-adv-x="227" />
<glyph unicode="&#x2009;" horiz-adv-x="363" />
<glyph unicode="&#x200a;" horiz-adv-x="101" />
<glyph unicode="&#x2010;" horiz-adv-x="571" d="M-66 829h451l-84 -122h-348z" />
<glyph unicode="&#x2011;" horiz-adv-x="571" d="M-66 829h451l-84 -122h-348z" />
<glyph unicode="&#x2012;" horiz-adv-x="571" d="M-66 829h451l-84 -122h-348z" />
<glyph unicode="&#x2013;" horiz-adv-x="561" d="M-76 829l19 -122h348l84 122h-451z" />
<glyph unicode="&#x2014;" horiz-adv-x="772" d="M-76 829l19 -122h559l84 122h-662z" />
<glyph unicode="&#x2018;" horiz-adv-x="417" d="M-104 1073l153 215h98l76 -469h-286z" />
<glyph unicode="&#x2019;" horiz-adv-x="417" d="M-139 1290h286l41 -254l-155 -215h-99z" />
<glyph unicode="&#x201a;" horiz-adv-x="417" d="M25 254h286l41 -254l-153 -215h-99z" />
<glyph unicode="&#x201c;" horiz-adv-x="755" d="M-106 1077l153 215h98l74 -469h-287zM231 1075l154 215h98l74 -469h-287z" />
<glyph unicode="&#x201d;" horiz-adv-x="755" d="M-139 1292h286l41 -254l-155 -215h-99zM199 1290h286l41 -254l-155 -215h-99z" />
<glyph unicode="&#x201e;" horiz-adv-x="755" d="M25 256h286l41 -254l-155 -215h-99zM362 254h287l41 -254l-153 -215h-99z" />
<glyph unicode="&#x2022;" horiz-adv-x="704" d="M-55 696l362 -415l232 415q-37 111 -88.5 226.5t-128.5 246.5h-308q-37 -131 -51 -246.5t-18 -226.5z" />
<glyph unicode="&#x2026;" horiz-adv-x="1196" d="M25 254l41 -254h286l-41 254h-286zM414 254l41 -254h286l-41 254h-286zM803 254l41 -254h286l-40 254h-287z" />
<glyph unicode="&#x202f;" horiz-adv-x="363" />
<glyph unicode="&#x2039;" horiz-adv-x="385" d="M-92 993l74 -461l272 -124l-45 286l-139 74l118 66l-47 286z" />
<glyph unicode="&#x203a;" horiz-adv-x="385" d="M-113 1120l275 -127l74 -461l-236 -124l-45 286l119 74l-140 66z" />
<glyph unicode="&#x205f;" horiz-adv-x="454" />
<glyph unicode="&#x20ac;" horiz-adv-x="1376" d="M-84 944h186l-14 86q-12 78 2 128t41 80t57.5 41t49.5 11h821l35 -6q29 -25 30 -39q2 -31 3 -102.5t1 -151.5t-2 -151.5t-4 -100.5l-18 13l-244 342q-14 18 -37.5 42.5t-50.5 43.5h-215q-10 -2 -23.5 -8.5t-25.5 -21.5t-20.5 -45t-8.5 -79l13 -82h262l-84 -123h-160 l16 -100h262l-81 -123h-160l53 -334q23 -68 46.5 -99.5t43.5 -41.5h391l125 123l39 -246h-803q-18 0 -53 11.5t-69.5 41t-65.5 79.5t-43 128l-53 338h-187l-20 123h186l-16 100h-187z" />
<glyph unicode="&#x2122;" horiz-adv-x="1081" d="M-129 1163q-10 70 29 116t90 81l620 426l60 33l4 -25l4 -25l53 -753l-18 16l-283 443q-14 14 -18 16h-9h-8q-72 -25 -99.5 -82t-16.5 -131q4 -23 8 -49.5t26 -48.5l619 -705q16 -20 22.5 -43.5t10.5 -46.5q10 -70 -18.5 -114t-84.5 -74l-692 -394h-37q-2 10 -4 33t-2 33 q-2 27 -6 82t-9.5 124.5t-10.5 146.5t-9 146.5t-7 123.5t-3 81l18 -16l242 -491l18 -17q2 2 18.5 9.5t39 19.5t33.5 20q59 35 77.5 81t8.5 118q-4 29 -7.5 44t-11.5 28.5t-20.5 29t-34.5 43.5q-20 25 -63.5 75t-98.5 113.5t-116.5 133.5t-118 132t-100.5 112.5t-64 72.5 q-16 23 -21.5 40.5t-9.5 41.5z" />
<glyph unicode="&#x25fc;" horiz-adv-x="1290" d="M0 0v1290h1290v-1290h-1290z" />
</font>
</defs>
</svg>
