<?xml version="1.0" standalone="no"?>
<!DOCTYPE svg PUBLIC "-//W3C//DTD SVG 1.1//EN" "http://www.w3.org/Graphics/SVG/1.1/DTD/svg11.dtd" >
<svg xmlns="http://www.w3.org/2000/svg" xmlns:xlink="http://www.w3.org/1999/xlink" version="1.1">
<metadata>
Created by FontForge 20170731 at Thu Jun  9 17:56:28 2011
 By Aleksey,,,
2011 Iconian Fonts - www.iconian.com
</metadata>
<defs>
<font id="FederalServiceBold" horiz-adv-x="755" >
  <font-face 
    font-family="Federal Service Bold"
    font-weight="700"
    font-stretch="normal"
    units-per-em="1000"
    panose-1="0 0 0 0 0 0 0 0 0 0"
    ascent="800"
    descent="-200"
    x-height="596"
    cap-height="596"
    bbox="-44 -165 1157 874"
    underline-thickness="50"
    underline-position="-175"
    unicode-range="U+0020-2122"
  />
<missing-glyph horiz-adv-x="500" 
 />
    <glyph glyph-name=".notdef" horiz-adv-x="500" 
 />
    <glyph glyph-name=".null" horiz-adv-x="0" 
 />
    <glyph glyph-name="nonmarkingreturn" horiz-adv-x="500" 
 />
    <glyph glyph-name="space" unicode=" " horiz-adv-x="360" 
 />
    <glyph glyph-name="space" unicode="&#xa0;" horiz-adv-x="360" 
 />
    <glyph glyph-name="FL0021h" unicode="!" horiz-adv-x="245" 
d="M197 593h-147v-429h147v429zM49 70q0 -30 21 -50.5t54 -20.5q32 0 54 20.5t22 50.5q0 29 -22 49.5t-54 20.5q-33 0 -54 -20.5t-21 -49.5z" />
    <glyph glyph-name="FL0022h" unicode="&#x22;" horiz-adv-x="453" 
d="M243 394q0 -28 23 -48.5t58 -20.5t58 19.5t23 48.5v109q0 29 -23 48.5t-58 19.5t-58 -19.5t-23 -48.5v-108zM52 393q0 -28 22.5 -48t57.5 -20t58.5 19t23.5 48v109q0 29 -23.5 48.5t-58.5 19.5t-57.5 -19.5t-22.5 -48.5v-108z" />
    <glyph glyph-name="FL0023h" unicode="#" horiz-adv-x="749" 
d="M53 343h118v-100h-118v-140h118v-103h159v103h95v-103h159v104h116v139h-116v100h116v140h-116v113h-159v-113h-95v113h-159v-113h-118v-140zM330 343h95v-100h-95v100z" />
    <glyph glyph-name="FL0024h" unicode="$" 
d="M462 -121v122q125 9 184.5 86.5t59.5 211.5v73h-244v89h244v141h-244v119h-158v-120q-128 -8 -189.5 -86t-61.5 -212v-71h251v-91h-251v-141h251v-121h158zM304 455v-83h-86q11 37 32.5 56t53.5 27zM462 147v85h79q-16 -70 -79 -85z" />
    <glyph glyph-name="FL0025h" unicode="%" horiz-adv-x="856" 
d="M259 0l508 596h-162l-512 -596h166zM388 394v96q0 27 -8 46.5t-27 32.5t-51 19.5t-81 6.5q-48 0 -80 -7.5t-51.5 -21t-27.5 -33.5t-8 -45v-95q0 -25 8 -45t26.5 -33.5t50 -21t78.5 -7.5q49 0 82 6.5t52.5 20t28 34t8.5 47.5zM807 107v96q0 27 -8 47t-27 33t-51 19.5
t-81 6.5q-48 0 -80.5 -7.5t-52 -21t-27.5 -34t-8 -45.5v-95q0 -25 8 -44.5t27 -33t50.5 -21t78.5 -7.5q49 0 82 6.5t52.5 20t28 33.5t8.5 47zM221 501q21 0 34 -2.5t19.5 -7t8.5 -10t2 -12.5v-51q0 -21 -12.5 -29t-55.5 -8q-37 0 -50 9.5t-13 24.5v54q0 16 14.5 24t52.5 8z
M640 215q21 0 34 -2.5t19.5 -7t8.5 -10.5t2 -12v-51q0 -21 -12.5 -29t-55.5 -8q-38 0 -50.5 9t-12.5 25v54q0 15 14.5 23.5t52.5 8.5z" />
    <glyph glyph-name="FL0026h" unicode="&#x26;" horiz-adv-x="864" 
d="M815 0v139h-140q8 20 12.5 42t7.5 45h120v139h-197q-12 112 -70 172.5t-158 60.5h-114q-114 0 -168 -79.5t-54 -218.5q0 -70 12 -125.5t39 -94.5t70 -59.5t105 -20.5h535zM422 138h-104q-99 0 -105 88h325q-7 -88 -116 -88zM330 462q37 0 62 -7t40 -19.5t22 -29.5t8 -37
h-249q1 19 7.5 36t20 30t35.5 20t54 7z" />
    <glyph glyph-name="FL0027h" unicode="'" horiz-adv-x="245" 
d="M49 394q0 -28 21 -48.5t54 -20.5q32 0 54 19.5t22 48.5v109q0 29 -22 48t-54 19q-33 0 -54 -19t-21 -48v-108z" />
    <glyph glyph-name="FL0028h" unicode="(" horiz-adv-x="441" 
d="M390 -66v137h-73q-28 0 -49 16t-34.5 41t-20 54t-6.5 56v120q0 23 5.5 52.5t18 55t34.5 43t55 17.5h73v135h-126q-55 0 -95.5 -30t-67 -80t-39.5 -115t-13 -134q0 -71 11.5 -137t37.5 -117.5t68.5 -82.5t104.5 -31h116z" />
    <glyph glyph-name="FL0029h" unicode=")" horiz-adv-x="441" 
d="M54 -66v137h73q28 0 49 16t34.5 41t20 54t6.5 56v120q0 23 -5.5 52.5t-18 55t-34.5 43t-55 17.5h-73v135h126q55 0 95.5 -30t67 -80t39.5 -115t13 -134q0 -71 -11.5 -137t-37.5 -117.5t-68.5 -82.5t-104.5 -31h-116z" />
    <glyph glyph-name="FL002Ah" unicode="*" horiz-adv-x="360" 
d="M238 531l29 27l68 -68l-57 -40l61 -42l-63 -82l-39 37v-44h-106v47l-43 -40l-64 82l57 39l-51 37l75 74l28 -27v38h105v-38z" />
    <glyph glyph-name="FL002Bh" unicode="+" horiz-adv-x="547" 
d="M208 516v-154h-155v-137h155v-155h137v155h154v137h-154v154h-137z" />
    <glyph glyph-name="FL002Ch" unicode="," horiz-adv-x="245" 
d="M49 -41q0 -28 21 -48t54 -20q32 0 54 19.5t22 47.5v109q0 29 -22 48.5t-54 19.5q-33 0 -54 -19.5t-21 -48.5v-108z" />
    <glyph glyph-name="FL002Dh" unicode="-" horiz-adv-x="478" 
d="M52 201h378v124h-378v-124z" />
    <glyph glyph-name="FL002Eh" unicode="." horiz-adv-x="245" 
d="M49 63q0 -26 21 -44.5t54 -18.5q32 0 54 18.5t22 44.5t-22 44.5t-54 18.5q-33 0 -54 -18.5t-21 -44.5z" />
    <glyph glyph-name="FL002Fh" unicode="/" horiz-adv-x="438" 
d="M205 0l189 596h-157l-189 -596h157z" />
    <glyph glyph-name="FL0030h" unicode="0" horiz-adv-x="753" 
d="M473 0q64 0 108 20.5t71.5 59t39.5 94t12 126.5q0 139 -53.5 217.5t-167.5 78.5h-208q-114 0 -168 -78.5t-54 -217.5q0 -71 12 -126.5t39.5 -94t71.5 -59t108 -20.5h189zM545 356v-119q0 -101 -116 -101h-107q-110 0 -110 101v119q0 22 5.5 41.5t19 34t36 22.5t56.5 8
h100q34 0 56 -8t35.5 -22.5t19 -34t5.5 -41.5zM297 295q0 -30 23.5 -50.5t58.5 -20.5q36 0 60 20.5t24 50.5t-24 50.5t-60 20.5q-35 0 -58.5 -20.5t-23.5 -50.5z" />
    <glyph glyph-name="FL0031h" unicode="1" horiz-adv-x="312" 
d="M50 597v-134h65v-463h150v596z" />
    <glyph glyph-name="FL0032h" unicode="2" 
d="M215 227v-87h491v-140h-653v366h488q-13 52 -50.5 71.5t-92.5 19.5h-345v139h379q139 0 206.5 -78.5t67.5 -217.5v-73h-491z" />
    <glyph glyph-name="FL0062h" unicode="3" horiz-adv-x="692" 
d="M53 0v136h316q109 0 115 91h-431v139h432q-1 21 -7.5 38.5t-20 30t-35 20t-53.5 7.5h-316v134h370q113 0 166.5 -78.5t53.5 -217.5q0 -71 -12 -126.5t-39.5 -94t-71.5 -59t-107 -20.5h-360z" />
    <glyph glyph-name="FL0034h" unicode="4" horiz-adv-x="693" 
d="M644 0v596h-154v-230h-278v230h-159v-368h437v-228h154z" />
    <glyph glyph-name="FL0035h" unicode="5" 
d="M706 456v140h-653v-366h488q-13 -53 -50.5 -72t-92.5 -19h-345v-139h379q139 0 206.5 78.5t67.5 217.5v73h-491v87h491z" />
    <glyph glyph-name="FL0036h" unicode="6" 
d="M362 457h344v139h-378q-68 0 -119 -19t-85 -54t-51.5 -85t-19.5 -112v-96h3q11 -110 64 -170t164 -60h148q139 0 206.5 78.5t67.5 217.5v73h-489q14 50 52 69t93 19zM398 139h-102q-38 11 -60 31.5t-24 59.5h329q-13 -53 -50.5 -72t-92.5 -19z" />
    <glyph glyph-name="FL0037h" unicode="7" horiz-adv-x="686" 
d="M637 467v129h-584v-134h370l-380 -462h212z" />
    <glyph glyph-name="FL0038h" unicode="8" horiz-adv-x="753" 
d="M473 0q64 0 108 20.5t71.5 59t39.5 94t12 126.5q0 139 -53.5 217.5t-167.5 78.5h-208q-114 0 -168 -78.5t-54 -217.5q0 -71 12 -126.5t39.5 -94t71.5 -59t108 -20.5h189zM329 462h100q32 0 53.5 -7.5t35 -20t20 -30t7.5 -38.5h-333q1 21 7.5 38.5t20 30t35.5 20t54 7.5z
M429 136h-107q-104 0 -110 90h332q-6 -90 -115 -90z" />
    <glyph glyph-name="FL0039h" unicode="9" 
d="M397 139h-198v-139h232q68 0 118.5 18.5t84 53.5t51.5 85t20 113v96h-3q-11 110 -63.5 170t-164.5 60h-147q-140 0 -207.5 -78.5t-67.5 -217.5v-73h488q-15 -51 -52 -69.5t-91 -18.5zM361 457h101q38 -11 60 -31.5t24 -59.5h-330q14 52 52 71.5t93 19.5z" />
    <glyph glyph-name="FL003Ah" unicode=":" horiz-adv-x="245" 
d="M49 69q0 -29 21 -49t54 -20q32 0 54 20t22 49t-22 49t-54 20q-33 0 -54 -20t-21 -49zM49 289q0 -29 21 -49t54 -20q32 0 54 20t22 49t-22 49t-54 20q-33 0 -54 -20t-21 -49z" />
    <glyph glyph-name="FL003Bh" unicode=";" horiz-adv-x="245" 
d="M49 -42q0 -29 21 -50t54 -21q32 0 54 20t22 50v113q0 29 -22 49.5t-54 20.5q-33 0 -54 -20.5t-21 -49.5v-112zM49 293q0 -30 21 -50t54 -20q32 0 54 20t22 50q0 29 -22 49.5t-54 20.5q-33 0 -54 -20.5t-21 -49.5z" />
    <glyph glyph-name="FL003Ch" unicode="&#x3c;" horiz-adv-x="469" 
d="M50 297l215 -297h166l-216 297l216 301h-167z" />
    <glyph glyph-name="FL003Dh" unicode="=" horiz-adv-x="478" 
d="M52 339h378v136h-378v-136zM52 103h378v137h-378v-137z" />
    <glyph glyph-name="FL003Eh" unicode="&#x3e;" horiz-adv-x="469" 
d="M422 297l-214 -297h-166l214 297l-214 301h167z" />
    <glyph glyph-name="FL003Fh" unicode="?" horiz-adv-x="757" 
d="M708 225v73q0 139 -67.5 217.5t-206.5 78.5h-379v-139h345q55 0 92.5 -19.5t50.5 -71.5h-488v-200h163l-1 61h491zM53 70q0 -30 23.5 -50.5t59.5 -20.5q35 0 59 20.5t24 50.5q0 29 -24 49.5t-59 20.5q-36 0 -59.5 -20.5t-23.5 -49.5z" />
    <glyph glyph-name="FL0EEEh" unicode="@" horiz-adv-x="926" 
d="M458 391q-42 0 -56 -14t-14 -40v-76q0 -17 1.5 -29.5t8.5 -21t20 -13t37 -4.5q28 0 44 4.5t23.5 14.5t9 26.5t1.5 41.5l-3 33q0 16 -1 30t-8 24.5t-21.5 17t-41.5 6.5zM654 248l28 5h-1q10 2 15.5 4t8.5 6t5 10.5t5 17.5v67q0 24 -3 53.5t-14.5 55t-34.5 42.5t-64 17
h-268q-41 0 -64 -13.5t-35 -36t-15 -53.5t-3 -65v-120q0 -27 1.5 -56t10.5 -54t28 -41t54 -16h9q6 0 8 1h328v-138h-370q-64 0 -108 31t-71 82.5t-38.5 117.5t-11.5 137q0 69 13.5 133.5t40.5 114.5t68.5 80t98.5 30h379q49 0 88 -20.5t66.5 -57t42.5 -87.5t15 -112v-82
q-11 -46 -25 -79.5t-38.5 -55.5t-64 -33t-102.5 -13h2l-63 -13l2 1q-23 -11 -54.5 -15t-73.5 -4q-62 0 -98.5 12.5t-56 35.5t-26 56t-8.5 75v60q0 42 6.5 74.5t26.5 55t58 34.5t101 12t102.5 -11t61.5 -32.5t29.5 -55t7.5 -78.5z" />
    <glyph glyph-name="FL0041h" unicode="A" horiz-adv-x="730" 
d="M527 0h154v349q0 45 -16.5 89t-46 79t-70 57t-88.5 22h-407v-596h158v102h316v-102zM400 462q31 0 53 -10t37 -26t23.5 -35t12.5 -37v-120h-314v228h188z" />
    <glyph glyph-name="FL0042h" unicode="B" 
d="M211 457v-91h330q-13 52 -50.5 71.5t-92.5 19.5h-187zM398 128q34 0 59 5t42.5 17t28 32t15.5 49h-332v-103h187zM706 300q0 -84 -20 -141t-55.5 -92.5t-84.5 -51t-108 -15.5h-385v596h379q139 0 206.5 -78.5t67.5 -217.5z" />
    <glyph glyph-name="FL0043h" unicode="C" horiz-adv-x="692" 
d="M643 0v136h-315q-116 0 -116 101v119q0 22 5.5 41.5t19 34t35.5 22.5t56 8h315v134h-369q-113 0 -167 -78.5t-54 -217.5q0 -71 12 -126.5t39.5 -94t71.5 -59t107 -20.5h360z" />
    <glyph glyph-name="FL0044h" unicode="D" 
d="M706 300q0 139 -67.5 217.5t-206.5 78.5h-379v-596h385q59 0 108 15.5t84.5 51t55.5 92.5t20 141zM549 300q0 -51 -7.5 -84.5t-25.5 -53t-47 -27t-71 -7.5h-187v329h187q34 0 62 -7t47.5 -24.5t30.5 -48t11 -77.5z" />
    <glyph glyph-name="FL0045h" unicode="E" horiz-adv-x="692" 
d="M643 0h-360q-63 0 -107 20.5t-71.5 59t-39.5 94t-12 126.5q0 139 54 217.5t167 78.5h369v-134h-315q-32 0 -53.5 -7.5t-35 -20t-20 -30t-7.5 -38.5h431v-136h-431q5 -94 116 -94h315v-136z" />
    <glyph glyph-name="FL0046h" unicode="F" horiz-adv-x="692" 
d="M212 231v-231h-159v300q0 139 54 217.5t167 78.5h369v-134h-315q-32 0 -53.5 -7.5t-35 -20t-20 -30t-7.5 -38.5h431v-135h-431z" />
    <glyph glyph-name="FL0047h" unicode="G" 
d="M211 300q0 -51 7.5 -84.5t25 -53t46.5 -27t72 -7.5h187v98h-121v140h278v-366h-384q-59 0 -108.5 15.5t-85 51t-55.5 92.5t-20 141q0 139 67.5 217.5t207.5 78.5h377v-139h-343q-34 0 -62 -7t-47.5 -24.5t-30.5 -48t-11 -77.5z" />
    <glyph glyph-name="FL0048h" unicode="H" horiz-adv-x="750" 
d="M701 0v596h-154v-230h-335v230h-159v-596h159v227h335v-227h154z" />
    <glyph glyph-name="FL0049h" unicode="I" horiz-adv-x="686" 
d="M637 134h-217v328h217v134h-584v-134h212v-328h-212v-134h584v134z" />
    <glyph glyph-name="FL004Ah" unicode="J" horiz-adv-x="692" 
d="M53 0v136h316q116 0 116 101v360h158v-297q0 -71 -12 -126.5t-39.5 -94t-71.5 -59t-107 -20.5h-360z" />
    <glyph glyph-name="FL004Bh" unicode="K" horiz-adv-x="727" 
d="M212 596h-159v-596h159v218l302 -218h206l-385 302l386 295h-207l-302 -222v221z" />
    <glyph glyph-name="FL004Ch" unicode="L" horiz-adv-x="692" 
d="M643 0v136h-315q-116 0 -116 101v360h-159v-297q0 -71 12 -126.5t39.5 -94t71.5 -59t107 -20.5h360z" />
    <glyph glyph-name="FL004Dh" unicode="M" horiz-adv-x="961" 
d="M401 1h162v461h26q48 0 80 -7.5t50.5 -20.5t26.5 -32t8 -41v-361h156v390q0 49 -15.5 87t-52.5 64.5t-99 40.5t-154 14h-215q-92 0 -153.5 -14t-98.5 -40.5t-52.5 -64.5t-15.5 -87v-390h155v361q0 22 8 41t26.5 32t50.5 20.5t80 7.5h27v-461z" />
    <glyph glyph-name="FL004Eh" unicode="N" horiz-adv-x="750" 
d="M701 0v349q0 46 -15 87.5t-47 80.5q-30 41 -71 60t-88 19h-427v-596h159v462h208q40 0 64.5 -11t38.5 -29t19 -42t5 -50v-330h154z" />
    <glyph glyph-name="FL004Fh" unicode="O" horiz-adv-x="753" 
d="M473 0q64 0 108 20.5t71.5 59t39.5 94t12 126.5q0 139 -53.5 217.5t-167.5 78.5h-208q-114 0 -168 -78.5t-54 -217.5q0 -71 12 -126.5t39.5 -94t71.5 -59t108 -20.5h189zM545 356v-119q0 -101 -116 -101h-107q-110 0 -110 101v119q0 22 5.5 41.5t19 34t36 22.5t56.5 8
h100q34 0 56 -8t35.5 -22.5t19 -34t5.5 -41.5z" />
    <glyph glyph-name="FL0DB9h" unicode="P" horiz-adv-x="731" 
d="M212 0v102h249q47 0 88 19t71 60q32 38 47 82t15 95h-1q-2 43 -16 81.5t-45 75.5q-30 41 -71.5 61t-88.5 20h-407v-596h159zM401 236h-189v226h188q34 0 57.5 -10t38 -26.5t21.5 -37t9 -41.5q-5 -57 -32.5 -84t-92.5 -27z" />
    <glyph glyph-name="FL0051h" unicode="Q" horiz-adv-x="753" 
d="M284 0h205l57 -77l122 57l-48 65q45 37 64.5 101.5t19.5 154.5q0 70 -13 125t-40.5 93t-69 58.5t-98.5 20.5h-208q-57 0 -99 -20.5t-69 -58.5t-40.5 -93t-13.5 -125q0 -71 12 -126.5t39.5 -94.5t71.5 -59.5t108 -20.5zM307 250l81 -113h-66q-110 0 -110 101v119
q0 23 5.5 42.5t19 33.5t36 22t56.5 8h100q34 0 56 -8t35.5 -22t19 -33.5t5.5 -42.5v-119q0 -43 -18 -67l-103 140z" />
    <glyph glyph-name="FL0054h" unicode="R" horiz-adv-x="731" 
d="M212 0v102h189l76 -102h175l-95 126q18 9 34 23t30 31q32 38 46.5 82.5t14.5 95.5h-1q-2 44 -17 83t-45 76q-30 41 -71 60t-88 19h-407v-596h159zM401 236h-189v226h188q34 0 57 -10.5t36.5 -27t19.5 -37.5t8 -42q-3 -28 -9.5 -48.5t-20 -34t-35.5 -20t-55 -6.5z" />
    <glyph glyph-name="FL0073h" unicode="S" 
d="M362 457q-55 0 -93 -19t-52 -69h489v-73q0 -139 -67.5 -217.5t-206.5 -78.5h-379v139h345q55 0 92.5 20.5t50.5 73.5h-488v67q0 139 67.5 217.5t207.5 78.5h378v-139h-344z" />
    <glyph glyph-name="T" unicode="T" horiz-adv-x="686" 
d="M637 462v134h-584v-134h212v-462h155v462h217z" />
    <glyph glyph-name="FL0055h" unicode="U" horiz-adv-x="750" 
d="M53 596h155v-330q0 -26 5 -50t19 -42t38.5 -29t64.5 -11h207v462h159v-596h-426q-48 0 -88.5 19t-71.5 60q-62 77 -62 168v349z" />
    <glyph glyph-name="FL0056h" unicode="V" horiz-adv-x="763" 
d="M50 598l231 -598h215l222 598h-166l-162 -445l-174 445h-166z" />
    <glyph glyph-name="FL0057h" unicode="W" horiz-adv-x="958" 
d="M52 596h155v-330q0 -25 4 -48.5t19 -42t44 -30t79 -11.5h72q-14 26 -19.5 54.5t-5.5 58.5v349h155v-330q0 -26 2 -50t12.5 -42t32.5 -29t61 -11h84v462h160v-596h-632q-48 0 -89 19t-72 60q-32 39 -47 80.5t-15 87.5v349z" />
    <glyph glyph-name="FL0058h" unicode="X" horiz-adv-x="693" 
d="M44 597l221 -300l-219 -297h170l134 182l135 -182h169l-220 297l220 301h-170l-134 -186l-136 185h-170z" />
    <glyph glyph-name="FL0059h" unicode="Y" 
d="M705 596h-162v-226h-256q-62 12 -73 72v155h-161v-72q0 -70 13 -125t42 -93t75 -58t111 -20v1h247q-13 -53 -50.5 -72t-92.5 -19h-203v-139h237q139 0 206.5 78.5t67.5 217.5z" />
    <glyph glyph-name="FL005Ah" unicode="Z" horiz-adv-x="686" 
d="M637 467v129h-584v-134h365l-365 -333v-129h584v134h-366z" />
    <glyph glyph-name="FL005Bh" unicode="[" horiz-adv-x="441" 
d="M390 -66v137h-182v456h185v134h-341v-728z" />
    <glyph glyph-name="FL005Ch" unicode="\" horiz-adv-x="438" 
d="M237 0l-189 596h157l189 -596h-157z" />
    <glyph glyph-name="FL005Dh" unicode="]" horiz-adv-x="441" 
d="M54 -66v137h182v456h-185v134h341v-728z" />
    <glyph glyph-name="FL005Eh" unicode="^" horiz-adv-x="408" 
d="M367 369l-112 186h-102l-108 -186h116l47 84l46 -84h113z" />
    <glyph glyph-name="FL005Fh" unicode="_" horiz-adv-x="499" 
d="M29 71v-123h446v123h-446z" />
    <glyph glyph-name="FL0060h" unicode="`" horiz-adv-x="272" 
d="M173 524q-7 9 -19.5 21.5t-25.5 12.5q-21 0 -42 -18h1q-2 0 -5 -3q-13 -11 -23 -21t-10 -25q0 -22 11 -36l61 -68l-1 1q15 -21 41 -21q11 0 21 3.5t21 13.5q12 11 17 21.5t5 27.5q0 20 -14 41z" />
    <glyph glyph-name="FL0061h" unicode="a" horiz-adv-x="730" 
d="M207 0v102h316v-102h158v596h-407q-48 0 -88.5 -22t-70 -57t-46 -79t-16.5 -89v-349h154zM334 462h188v-228h-314v120q4 18 13 37t24 35t36.5 26t52.5 10z" />
    <glyph glyph-name="FL0063h" unicode="b" 
d="M211 457v-91h330q-13 52 -50.5 71.5t-92.5 19.5h-187zM398 128q34 0 59 5t42.5 17t28 32t15.5 49h-332v-103h187zM706 300q0 -84 -20 -141t-55.5 -92.5t-84.5 -51t-108 -15.5h-385v596h379q139 0 206.5 -78.5t67.5 -217.5z" />
    <glyph glyph-name="c" unicode="c" horiz-adv-x="692" 
d="M643 0v136h-315q-116 0 -116 101v119q0 22 5.5 41.5t19 34t35.5 22.5t56 8h315v134h-369q-113 0 -167 -78.5t-54 -217.5q0 -71 12 -126.5t39.5 -94t71.5 -59t107 -20.5h360z" />
    <glyph glyph-name="d" unicode="d" 
d="M706 300q0 139 -67.5 217.5t-206.5 78.5h-379v-596h385q59 0 108 15.5t84.5 51t55.5 92.5t20 141zM549 300q0 -51 -7.5 -84.5t-25.5 -53t-47 -27t-71 -7.5h-187v329h187q34 0 62 -7t47.5 -24.5t30.5 -48t11 -77.5z" />
    <glyph glyph-name="e" unicode="e" horiz-adv-x="692" 
d="M643 0h-360q-63 0 -107 20.5t-71.5 59t-39.5 94t-12 126.5q0 139 54 217.5t167 78.5h369v-134h-315q-32 0 -53.5 -7.5t-35 -20t-20 -30t-7.5 -37.5h348v-135h-348q2 -47 30.5 -71.5t85.5 -24.5h315v-136z" />
    <glyph glyph-name="FL0066h" unicode="f" horiz-adv-x="692" 
d="M212 231v-231h-159v300q0 139 54 217.5t167 78.5h369v-134h-315q-32 0 -53.5 -7.5t-35 -20t-20 -30t-7.5 -37.5h348v-136h-348z" />
    <glyph glyph-name="FL0067h" unicode="g" 
d="M211 300q0 47 11 77.5t30.5 48t47.5 24.5t62 7h343v139h-377q-140 0 -207.5 -78.5t-67.5 -217.5q0 -84 20 -141t55.5 -92.5t85 -51t108.5 -15.5h384v366h-157v-238h-187q-43 0 -72 7.5t-46.5 27t-25 53t-7.5 84.5z" />
    <glyph glyph-name="FL0068h" unicode="h" horiz-adv-x="750" 
d="M701 0v596h-154v-230h-335v230h-159v-596h159v227h335v-227h154z" />
    <glyph glyph-name="i" unicode="i" horiz-adv-x="254" 
d="M206 0h-158v596h158v-596z" />
    <glyph glyph-name="FL006Ah" unicode="j" horiz-adv-x="692" 
d="M53 0v136h316q116 0 116 101v360h158v-297q0 -71 -12 -126.5t-39.5 -94t-71.5 -59t-107 -20.5h-360z" />
    <glyph glyph-name="FL006Bh" unicode="k" horiz-adv-x="727" 
d="M212 596h-159v-596h159v226h150l179 -226h170l-220 297l221 300h-171l-176 -231h-153v230z" />
    <glyph glyph-name="FL006Ch" unicode="l" horiz-adv-x="692" 
d="M643 0v136h-315q-116 0 -116 101v360h-159v-297q0 -71 12 -126.5t39.5 -94t71.5 -59t107 -20.5h360z" />
    <glyph glyph-name="FL006Dh" unicode="m" horiz-adv-x="958" 
d="M908 0h-156v330q0 25 -4 48.5t-18.5 42t-43.5 30t-79 11.5h-71q14 -27 19 -55.5t5 -57.5v-349h-155v330q0 26 -2.5 50t-13.5 42t-32.5 29t-59.5 11h-84v-462h-160v596h632q48 0 88.5 -19t71.5 -60q63 -76 63 -168v-349z" />
    <glyph glyph-name="n" unicode="n" horiz-adv-x="730" 
d="M681 0v349q0 46 -15 87.5t-47 80.5q-30 41 -71 60t-88 19h-407v-596h159v462h188q40 0 64.5 -11t38.5 -29t19 -42t5 -50v-330h154z" />
    <glyph glyph-name="FL006Fh" unicode="o" horiz-adv-x="750" 
d="M377 464q-94 0 -132 -24.5t-38 -69.5v-135q0 -23 7.5 -42t26.5 -32t50.5 -20t79.5 -7q54 0 87.5 5.5t52 17.5t25 32.5t6.5 50.5v130q0 19 -5.5 36.5t-23 30t-50 20t-86.5 7.5zM700 206q0 -52 -16 -90.5t-54 -64t-101.5 -38.5t-157.5 -13q-92 0 -153 13.5t-97.5 40t-52 64
t-15.5 85.5v191q0 48 16.5 86t54 64.5t99.5 40t154 13.5q94 0 156.5 -12.5t99.5 -37t52 -62.5t15 -89v-191z" />
    <glyph glyph-name="FL0070h" unicode="p" horiz-adv-x="731" 
d="M212 0v102h249q47 0 88 19t71 60q32 38 47 82t15 95h-1q-2 43 -16 81.5t-45 75.5q-30 41 -71.5 61t-88.5 20h-407v-596h159zM401 236h-189v226h188q34 0 57.5 -10t38 -26.5t21.5 -37t9 -41.5q-5 -57 -32.5 -84t-92.5 -27z" />
    <glyph glyph-name="FL0071h" unicode="q" horiz-adv-x="750" 
d="M390 134l-88 121h160l64 -86q9 12 12.5 29.5t3.5 42.5v130q0 19 -5.5 36.5t-23 30.5t-50 20.5t-86.5 7.5q-94 0 -132 -25t-38 -70v-135q0 -23 7.5 -42t26.5 -32.5t50.5 -20.5t79.5 -7h19zM700 207q0 -57 -18.5 -96.5t-62.5 -65.5l77 -102h-163l-49 62q-25 -2 -53 -3.5
t-60 -1.5q-92 0 -153 14t-97.5 40t-52 64t-15.5 86v191q0 49 16.5 87t54 64t99.5 40t154 14q94 0 156.5 -12.5t99.5 -37.5t52 -63t15 -89v-191z" />
    <glyph glyph-name="FL0072h" unicode="r" horiz-adv-x="731" 
d="M212 0v102h189l76 -102h175l-95 126q18 9 34 23t30 31q32 38 46.5 82.5t14.5 95.5h-1q-2 44 -17 83t-45 76q-30 41 -71 60t-88 19h-407v-596h159zM401 236h-189v226h188q34 0 57 -10.5t36.5 -27t19.5 -37.5t8 -42q-3 -28 -9.5 -48.5t-20 -34t-35.5 -20t-55 -6.5z" />
    <glyph glyph-name="FL0053h" unicode="s" 
d="M362 457q-55 0 -93 -19t-52 -69h489v-73q0 -139 -67.5 -217.5t-206.5 -78.5h-378v139h344q55 0 92.5 20.5t50.5 73.5h-488v67q0 139 67.5 217.5t207.5 78.5h233v-139h-199z" />
    <glyph glyph-name="t" unicode="t" horiz-adv-x="686" 
d="M637 462v134h-584v-134h212v-462h155v462h217z" />
    <glyph glyph-name="u" unicode="u" horiz-adv-x="750" 
d="M701 596v-390q0 -52 -16 -90.5t-54 -64t-101.5 -38.5t-157.5 -13q-92 0 -153.5 14t-98 40.5t-52 64.5t-15.5 87v390h155v-361q0 -23 7.5 -42t26.5 -32t50.5 -20t79.5 -7q54 0 87.5 5.5t51.5 17.5t24.5 32.5t6.5 50.5v356h159z" />
    <glyph glyph-name="FL0076h" unicode="v" horiz-adv-x="715" 
d="M693 598h-167l-169 -445l-167 445h-166l226 -598h216z" />
    <glyph glyph-name="FL0077h" unicode="w" horiz-adv-x="961" 
d="M209 235q0 -23 8 -41.5t26.5 -31.5t50.5 -20.5t80 -7.5h27v461h162v-461h26q48 0 80 7.5t50.5 20.5t26.5 31.5t8 41.5v361h156v-390q0 -49 -15.5 -87t-52.5 -64.5t-99 -40.5t-154 -14h-215q-92 0 -153.5 14t-98.5 40.5t-52.5 64.5t-15.5 87v390h155v-361z" />
    <glyph glyph-name="FL0078h" unicode="x" horiz-adv-x="645" 
d="M19 597l222 -300l-219 -297h170l134 182l134 -182h170l-220 297l220 301h-171l-133 -186l-136 185h-171z" />
    <glyph glyph-name="FL0079h" unicode="y" 
d="M705 596l1 -300q0 -139 -67.5 -217.5t-206.5 -78.5h-237v139h203q55 0 92.5 19t50.5 72h-267q-65 2 -107.5 19.5t-67.5 49.5t-35.5 79.5t-10.5 109.5v109h161v-157q1 -30 18.5 -49t53.5 -21h257v226h162z" />
    <glyph glyph-name="FL007Ah" unicode="z" horiz-adv-x="686" 
d="M637 467v129h-584v-134h365l-365 -333v-129h584v134h-366z" />
    <glyph glyph-name="FL007Bh" unicode="{" horiz-adv-x="418" 
d="M370 0v136h-51q-113 0 -113 101v119q0 22 5.5 41.5t18 34t34.5 22.5t55 8h51v134h-104q-110 0 -162 -78.5t-52 -217.5q0 -71 12 -126.5t38.5 -94t69 -59t104.5 -20.5h94z" />
    <glyph glyph-name="FL007Ch" unicode="|" horiz-adv-x="238" 
d="M191 -120v842h-143v-842h143z" />
    <glyph glyph-name="FL007Dh" unicode="}" horiz-adv-x="418" 
d="M52 0v136h51q112 0 112 101v119q0 22 -5.5 41.5t-18 34t-34 22.5t-54.5 8h-51v134h103q110 0 162.5 -78.5t52.5 -217.5q0 -71 -12 -126.5t-38.5 -94t-69.5 -59t-104 -20.5h-94z" />
    <glyph glyph-name="FL007Eh" unicode="~" horiz-adv-x="466" 
d="M132 360l-111 -170h118l46 74l51 -75h103l110 170h-118l-47 -74l-49 75h-103z" />
    <glyph glyph-name="FL007Fh" horiz-adv-x="202" 
 />
    <glyph glyph-name="FL00A1h" unicode="&#xa1;" horiz-adv-x="245" 
d="M50 -1h147v429h-147v-429zM199 522q0 30 -21.5 50.5t-53.5 20.5q-33 0 -54.5 -20.5t-21.5 -50.5q0 -29 21.5 -49.5t54.5 -20.5q32 0 53.5 20.5t21.5 49.5z" />
    <glyph glyph-name="FL00A2h" unicode="&#xa2;" horiz-adv-x="693" 
d="M478 0v51h166v137h-166v226h165v135h-165v47h-159v-47h-45q-57 0 -98.5 -17.5t-68.5 -49t-40.5 -75t-13.5 -94.5v-2q0 -71 14.5 -120.5t43.5 -80.5t72.5 -45t100.5 -14h35v-51h159zM213 288v36q0 38 24.5 63t81.5 27v-226q-106 4 -106 100z" />
    <glyph glyph-name="FL00A3h" unicode="&#xa3;" horiz-adv-x="730" 
d="M142 0v223h-89v140h92q11 111 64 172t154 61h149v-134h-94q-32 0 -54 -7.5t-35.5 -20.5t-20 -30.5t-7.5 -37.5h211v-143h-211v-86h380v-137h-539z" />
    <glyph glyph-name="FL00A4h" unicode="&#xa4;" horiz-adv-x="645" 
d="M514 231v119q0 40 -15 69l131 179h-171l-89 -123h-90l-90 122h-171l136 -184q-8 -14 -10 -29.5t-2 -33.5v-119q0 -33 9 -55l-130 -176h170l82 111h104l82 -111h170l-128 171q12 25 12 60zM393 317v-51q0 -38 -46 -38h-47q-44 0 -44 38v51q0 17 10 28t37 11h44
q26 0 36 -11t10 -28z" />
    <glyph glyph-name="FL00A5h" unicode="&#xa5;" horiz-adv-x="645" 
d="M130 188h116v13h-116v140h79l-190 256h171l136 -185l133 186h171l-188 -257h73v-140h-111v-13h111v-140h-111v-48h-158v48h-116v140z" />
    <glyph glyph-name="FLE004h" unicode="&#xa6;" horiz-adv-x="750" 
d="M209 242h333v114q0 30 -6.5 50.5t-24.5 32.5t-51.5 17.5t-87.5 5.5q-47 0 -78.5 -7t-50.5 -19.5t-26.5 -31t-7.5 -40.5v-122zM702 0h-160v103h-333v-103h-156v390q0 49 15.5 87t52 64.5t98 40.5t153.5 14q94 0 157.5 -13t102 -38.5t54.5 -64t16 -90.5v-390z" />
    <glyph glyph-name="FL00B0h" unicode="&#xa7;" 
d="M362 457q-55 0 -93 -19t-52 -69h489v-73q0 -139 -67.5 -217.5t-206.5 -78.5h-235v139h201q55 0 92.5 19t50.5 72h-488v70q0 139 67.5 217.5t207.5 78.5h233v-139h-199z" />
    <glyph glyph-name="FL00A8h" unicode="&#xa8;" horiz-adv-x="452" 
d="M242 468q0 -27 23 -45t58 -18t58 18t23 45q0 26 -23 44.5t-58 18.5t-58 -18.5t-23 -44.5zM52 468q0 -27 22.5 -45t57.5 -18t58.5 18t23.5 45q0 26 -23.5 44.5t-58.5 18.5t-57.5 -18.5t-22.5 -44.5z" />
    <glyph glyph-name="FL00A9h" unicode="&#xa9;" horiz-adv-x="423" 
d="M375 382v93q0 26 -7.5 45.5t-26 32t-49.5 18.5t-78 6t-78 -7t-49.5 -20.5t-26.5 -32.5t-8 -44v-92q0 -24 7.5 -43t26 -32.5t49 -20.5t75.5 -7q47 0 79 6.5t51 19.5t27 32.5t8 45.5zM296 463v-67q0 -27 -13 -39v40h-81q-21 0 -21 16v27q0 7 4.5 11.5t16.5 4.5h81v38
q8 -6 10.5 -14.5t2.5 -16.5zM214 508q17 0 30.5 -2t22.5 -5h-79q-30 0 -44.5 -19.5t-14.5 -54.5t14 -55t48 -20h82q-18 -7 -63 -7q-48 0 -65 13t-17 36v69q0 21 19 33t67 12z" />
    <glyph glyph-name="FLE003h" unicode="&#xaa;" horiz-adv-x="730" 
d="M334 462q-32 0 -54.5 -7.5t-37.5 -20.5t-22.5 -30.5t-10.5 -37.5h313v96h-188zM522 0v227h-315v-227h-154v349q0 45 16.5 89t46 79t70 57t88.5 22h407v-596h-159z" />
    <glyph glyph-name="FL00ABh" unicode="&#xab;" horiz-adv-x="524" 
d="M248 447l-196 -112v-102l196 -108v115l-89 47l89 46v114zM475 447l-197 -112v-102l197 -108v115l-89 47l89 46v114z" />
    <glyph glyph-name="FL00ADh" unicode="&#xac;" horiz-adv-x="549" 
d="M53 353v-133h311v-152h137v285h-448z" />
    <glyph glyph-name="FL00AEh" unicode="&#xad;" horiz-adv-x="396" 
d="M52 201h297v124h-297v-124z" />
    <glyph glyph-name="FL00B8h" unicode="&#xae;" horiz-adv-x="423" 
d="M375 382v93q0 26 -7.5 45.5t-26 32t-49.5 18.5t-78 6t-78 -7t-49.5 -20.5t-26.5 -32.5t-8 -44v-92q0 -24 7.5 -43t26 -32.5t49 -20.5t75.5 -7q47 0 79 6.5t51 19.5t27 32.5t8 45.5zM296 463v-67q0 -15 -3.5 -24.5t-12.5 -15.5t-26 -8.5t-44 -2.5q-46 0 -65 13h36v82
q0 7 4.5 11.5t16.5 4.5h81v38q8 -6 10.5 -14.5t2.5 -16.5zM214 508q17 0 30.5 -2t22.5 -5h-79q-30 0 -44.5 -19.5t-14.5 -54.5v-45q-1 2 -1 5v7v69q0 21 19 33t67 12z" />
    <glyph glyph-name="FL00AFh" unicode="&#xaf;" horiz-adv-x="499" 
d="M29 585v-123h446v123h-446z" />
    <glyph glyph-name="FL0040h" unicode="&#xb0;" horiz-adv-x="692" 
d="M53 596v-136h316q116 0 116 -101v-360h158v297q0 70 -12 126t-39.5 94.5t-71.5 59t-107 20.5h-360z" />
    <glyph glyph-name="FL00B1h" unicode="&#xb1;" horiz-adv-x="547" 
d="M206 498l2 -91h-155v-138h153v-89h139v89h154v138h-156v91h-137zM500 137h-446v-137h446v137z" />
    <glyph glyph-name="FL00B2h" unicode="&#xb2;" horiz-adv-x="426" 
d="M139 389v-33h239v-77h-326v187h235q-7 20 -24 27t-40 7h-171v77h188q71 0 104.5 -39.5t33.5 -108.5v-40h-239z" />
    <glyph glyph-name="FL00B3h" unicode="&#xb3;" horiz-adv-x="394" 
d="M52 279v75h157q46 0 50 35h-207v77h207q-1 16 -12.5 26t-37.5 10h-157v75h183q58 0 85 -39.5t27 -108.5q0 -71 -26 -110.5t-91 -39.5h-178z" />
    <glyph glyph-name="FL00B4h" unicode="&#xb4;" horiz-adv-x="272" 
d="M101 524q7 9 19.5 21.5t25.5 12.5q22 0 43 -18h-1q1 0 2 -1t3 -2q13 -11 22.5 -21t9.5 -25q0 -21 -11 -36l-60 -68v1q-14 -21 -40 -21q-11 0 -21 3.5t-21 13.5q-12 11 -17.5 21.5t-5.5 27.5q0 18 15 41z" />
    <glyph glyph-name="FL00B5h" unicode="&#xb5;" 
d="M53 596h162v-226h257q63 12 72 72v155h161v-72q0 -70 -13 -125t-42 -93t-74.5 -58t-110.5 -20v1h-249q14 -53 52 -72t93 -19h203v-139h-237q-140 0 -207.5 78.5t-67.5 217.5z" />
    <glyph glyph-name="FL00B6h" unicode="&#xb6;" horiz-adv-x="731" 
d="M681 0v596h-407q-47 0 -87.5 -19t-71.5 -60q-59 -74 -62 -159h-1q0 -51 14.5 -95.5t46.5 -82.5q33 -38 69 -57v-123h148v462h192v-462h159z" />
    <glyph glyph-name="FL00B7h" unicode="&#xb7;" horiz-adv-x="245" 
d="M49 263q0 -26 21 -44.5t54 -18.5q32 0 54 18.5t22 44.5q0 27 -22 45t-54 18q-33 0 -54 -18t-21 -45z" />
    <glyph glyph-name="FL00ACh" unicode="&#xb8;" 
d="M52 457v139h379q139 0 206.5 -78.5t67.5 -217.5v-70h-489q14 -53 52 -72t93 -19h344v-139h-378q-140 0 -207.5 78.5t-67.5 217.5v73h488q-15 50 -51.5 69t-91.5 19h-345z" />
    <glyph glyph-name="FL00B9h" unicode="&#xb9;" horiz-adv-x="198" 
d="M46 576v-74h30v-224h77v298h-107z" />
    <glyph glyph-name="FL00BAh" unicode="&#xba;" horiz-adv-x="423" 
d="M375 381v93q0 26 -7.5 45.5t-26 32t-49.5 18.5t-78 6t-78 -7t-49.5 -20.5t-26.5 -32.5t-8 -44v-91q0 -24 7.5 -43.5t26 -33t49 -20.5t75.5 -7q47 0 79 6.5t51 19.5t27 32.5t8 45.5zM214 502q24 0 39 -3t23 -8.5t10.5 -13t2.5 -16.5v-63q0 -13 -3 -22t-11.5 -14.5t-24 -8
t-40.5 -2.5q-43 0 -58.5 12t-15.5 33v65q0 19 17 30t61 11z" />
    <glyph glyph-name="FL00BBh" unicode="&#xbb;" horiz-adv-x="524" 
d="M279 447l197 -112v-102l-197 -108v115l89 47l-89 46v114zM53 447l196 -112v-102l-196 -108v115l88 47l-88 46v114z" />
    <glyph glyph-name="FL0050h" unicode="&#xbc;" horiz-adv-x="730" 
d="M681 227v122q-1 45 -18 89t-46 79t-69 57t-88 22h-407v-596h159v227h469zM400 462q65 0 92.5 -28t32.5 -68h-313v96h188z" />
    <glyph glyph-name="FL00BDh" unicode="&#xbd;" horiz-adv-x="855" 
d="M259 0l255 300v-72h177q25 0 42 -7.5t25 -27.5h-244v-193h337v79h-246v34h246v42q0 72 -35 112.5t-107 40.5h-188l245 288h-161l-512 -596h166zM156 596v-76h40v-232h101v308h-141z" />
    <glyph glyph-name="FL0052h" unicode="&#xbe;" horiz-adv-x="730" 
d="M681 227v122q0 45 -16.5 89t-46 79t-70 57t-88.5 22h-407v-596h159v227h116l166 -227h180l-169 227h176zM400 462q65 0 92.5 -28t32.5 -68h-313v96h188z" />
    <glyph glyph-name="FL00BFh" unicode="&#xbf;" horiz-adv-x="757" 
d="M52 294q0 -139 67.5 -217.5t207.5 -78.5h378v139h-344q-55 0 -93 19t-52 72h489v200h-161l-1 -61h-491v-73zM707 522q0 30 -23.5 50.5t-58.5 20.5q-36 0 -60 -20.5t-24 -50.5q0 -29 24 -49.5t60 -20.5q35 0 58.5 20.5t23.5 49.5z" />
    <glyph glyph-name="FL00C0h" unicode="&#xc0;" horiz-adv-x="730" 
d="M207 0v230h315v-230h159v602h-407q-48 0 -88.5 -22t-70 -57.5t-46 -80t-16.5 -89.5v-353h154zM334 466h188v-96h-313q3 20 10.5 37.5t22.5 30.5t37.5 20.5t54.5 7.5zM408 836q-8 10 -21 23t-27 13q-24 0 -46 -19q-4 -3 -7 -6t-7 -6q-10 -9 -18 -18.5t-8 -22.5
q0 -25 12 -38l66 -74l-1 1q15 -23 43 -23q24 0 46 18q13 13 18.5 24.5t5.5 28.5q0 19 -15 45z" />
    <glyph glyph-name="FL00C1h" unicode="&#xc1;" horiz-adv-x="730" 
d="M207 0v230h315v-230h159v602h-407q-48 0 -88.5 -22t-70 -57.5t-46 -80t-16.5 -89.5v-353h154zM334 466h188v-96h-313q3 20 10.5 37.5t22.5 30.5t37.5 20.5t54.5 7.5zM330 781q-16 -25 -16 -45q0 -17 5.5 -28.5t18.5 -24.5q22 -18 46 -18q28 0 43 23l-1 -1l65 74
q13 16 13 38q0 13 -8 22.5t-18 18.5q-4 3 -7 6t-7 6q-21 19 -45 19q-14 0 -27.5 -13t-21.5 -23z" />
    <glyph glyph-name="FL00C2h" unicode="&#xc2;" horiz-adv-x="730" 
d="M207 0v230h315v-230h159v602h-407q-48 0 -88.5 -22t-70 -57.5t-46 -80t-16.5 -89.5v-353h154zM560 664l-115 201h-106l-111 -201h119l48 91l48 -91h117zM334 466h188v-97h-313q3 20 10.5 38t22.5 31t37.5 20.5t54.5 7.5z" />
    <glyph glyph-name="FL00C3h" unicode="&#xc3;" horiz-adv-x="730" 
d="M207 0v230h315v-230h159v602h-407q-48 0 -88.5 -22t-70 -57.5t-46 -80t-16.5 -89.5v-353h154zM296 842l-114 -178h120l46 76l52 -77h104l113 178h-120l-47 -78l-51 79h-103zM334 466h188v-97h-313q3 20 10.5 38t22.5 31t37.5 20.5t54.5 7.5z" />
    <glyph glyph-name="FL00C4h" unicode="&#xc4;" horiz-adv-x="730" 
d="M207 0v229h315v-229h159v601h-407q-48 0 -88.5 -22t-70 -57.5t-46 -80t-16.5 -89.5v-352h154zM334 465h188v-96h-313q3 20 10.5 37.5t22.5 30.5t37.5 20.5t54.5 7.5zM388 723q0 -30 23.5 -50.5t58.5 -20.5q36 0 59.5 20.5t23.5 50.5t-23.5 50.5t-59.5 20.5
q-35 0 -58.5 -20.5t-23.5 -50.5zM193 723q0 -30 23.5 -50.5t58.5 -20.5q36 0 60 20.5t24 50.5t-24 50.5t-60 20.5q-35 0 -58.5 -20.5t-23.5 -50.5z" />
    <glyph glyph-name="FL00C5h" unicode="&#xc5;" horiz-adv-x="730" 
d="M207 0v229h315v-229h159v601h-407q-48 0 -88.5 -22t-70 -57.5t-46 -80t-16.5 -89.5v-352h154zM334 465h188v-96h-313q3 20 10.5 37.5t22.5 30.5t37.5 20.5t54.5 7.5zM291 722q0 -30 23.5 -50.5t58.5 -20.5q36 0 59.5 20.5t23.5 50.5t-23.5 50.5t-59.5 20.5
q-35 0 -58.5 -20.5t-23.5 -50.5z" />
    <glyph glyph-name="FL00C6h" unicode="&#xc6;" horiz-adv-x="1177" 
d="M210 0v102h320v-102h598v136h-320q-112 0 -118 91h354v140h-354q1 20 7.5 37.5t20.5 30t36 20t54 7.5h320v134h-850q-48 0 -89 -22t-71 -57t-47 -79t-17 -89v-349h156zM339 462h190v-228h-318v121q1 22 8 41.5t22 34t39 23t59 8.5z" />
    <glyph glyph-name="FL00C7h" unicode="&#xc7;" horiz-adv-x="692" 
d="M201 -165h88q52 0 90.5 9t66 28.5t44.5 51t25 76.5h128v137h-315q-116 0 -116 102v120q0 22 5.5 41.5t19 34t35.5 22.5t56 8h315v135h-369q-57 0 -98.5 -20.5t-68.5 -59t-40.5 -93.5t-13.5 -125q0 -71 12 -127t39.5 -95t71.5 -59.5t107 -20.5h76q-8 -20 -30 -23.5
t-58 -3.5h-70v-138z" />
    <glyph glyph-name="FL00C8h" unicode="&#xc8;" horiz-adv-x="692" 
d="M643 0v138h-315q-110 0 -116 92h430v141h-430q1 20 7.5 37.5t20 30t35 20t53.5 7.5h315v136h-369q-113 0 -167 -79.5t-54 -219.5q0 -71 12 -127.5t39.5 -95.5t71.5 -59.5t107 -20.5h360zM398 836q-8 10 -21.5 23t-27.5 13q-24 0 -45 -19q-4 -3 -7 -6t-7 -6
q-10 -9 -18 -18.5t-8 -22.5q0 -25 12 -38l65 -74l-1 1q17 -23 44 -23q24 0 45 18q14 13 19.5 24.5t5.5 28.5q0 20 -16 45z" />
    <glyph glyph-name="FL00C9h" unicode="&#xc9;" horiz-adv-x="692" 
d="M643 0v138h-315q-110 0 -116 92h432v142h-432q1 20 7.5 37t20 30t35 20t53.5 7h315v136h-369q-113 0 -167 -79.5t-54 -219.5q0 -71 12 -127.5t39.5 -95.5t71.5 -59.5t107 -20.5h360zM337 783q-16 -25 -16 -45q0 -17 5.5 -28.5t18.5 -24.5q22 -18 46 -18q28 0 43 23l-1 -1
l65 74q13 16 13 38q0 13 -8 22.5t-18 18.5q-4 3 -7 6t-7 6q-21 19 -45 19q-14 0 -27.5 -13t-21.5 -23z" />
    <glyph glyph-name="FL00CAh" unicode="&#xca;" horiz-adv-x="692" 
d="M643 0v138h-315q-110 0 -116 92h431v141h-431q1 20 7.5 37.5t20 30t35 20t53.5 7.5h315v136h-369q-113 0 -167 -79.5t-54 -219.5q0 -71 12 -127.5t39.5 -95.5t71.5 -59.5t107 -20.5h360zM543 663l-115 201h-106l-111 -201h119l48 91l48 -91h117z" />
    <glyph glyph-name="FL00CBh" unicode="&#xcb;" horiz-adv-x="692" 
d="M643 0v138h-315q-110 0 -116 91h432v140h-432q1 21 7.5 38.5t20 30t35 20t53.5 7.5h315v136h-369q-113 0 -167 -79.5t-54 -219.5q0 -71 12 -127t39.5 -95t71.5 -59.5t107 -20.5h360zM206 722q0 -30 23.5 -50.5t58.5 -20.5q36 0 59.5 20.5t23.5 50.5t-23.5 50.5
t-59.5 20.5q-35 0 -58.5 -20.5t-23.5 -50.5zM400 722q0 -30 23.5 -50.5t59.5 -20.5q35 0 59 20.5t24 50.5t-24 50.5t-59 20.5q-36 0 -59.5 -20.5t-23.5 -50.5z" />
    <glyph glyph-name="FL00CCh" unicode="&#xcc;" horiz-adv-x="686" 
d="M413 784q15 -26 15 -45q0 -17 -5 -28.5t-19 -24.5q-21 -18 -45 -18q-27 0 -44 23l1 -1l-66 74q-11 14 -11 38q0 13 7.5 22.5t18.5 18.5q4 3 7 6l6 6q22 19 46 19q14 0 27.5 -13t20.5 -23zM53 136h218v330h-218v136h584v-136h-212v-330h212v-136h-584v136z" />
    <glyph glyph-name="FL00CDh" unicode="&#xcd;" horiz-adv-x="686" 
d="M637 136h-217v330h217v136h-584v-136h212v-330h-212v-136h584v136zM277 784q-15 -26 -15 -45q0 -17 5.5 -28.5t18.5 -24.5q22 -18 46 -18q28 0 43 23l-1 -1l65 74q13 16 13 38q0 13 -8 22.5t-19 18.5l-6 6t-7 6q-22 19 -46 19q-14 0 -27 -13t-21 -23z" />
    <glyph glyph-name="FL00EEh" unicode="&#xce;" horiz-adv-x="686" 
d="M637 136h-217v330h217v136h-584v-136h212v-330h-212v-136h584v136zM510 666l-116 201h-105l-111 -201h119l48 91l48 -91h117z" />
    <glyph glyph-name="FL00CFh" unicode="&#xcf;" horiz-adv-x="686" 
d="M637 136h-217v329h217v136h-584v-136h212v-329h-212v-136h584v136zM163 724q0 -30 23.5 -50.5t59.5 -20.5q35 0 59 20.5t24 50.5t-24 50.5t-59 20.5q-36 0 -59.5 -20.5t-23.5 -50.5zM358 724q0 -30 23.5 -50.5t58.5 -20.5t59 20.5t24 50.5t-24 50.5t-59 20.5t-58.5 -20.5
t-23.5 -50.5z" />
    <glyph glyph-name="FL00AAh" unicode="&#xd0;" horiz-adv-x="731" 
d="M208 249q1 -22 8 -42.5t22 -36.5t38 -26t58 -10h188v226h-189q-66 0 -93 -27t-32 -84zM114 415q31 41 71.5 60t87.5 19h249v102h159v-596h-407q-47 0 -88 20t-72 61q-30 36 -44.5 74.5t-16.5 82.5h-1q0 102 62 177z" />
    <glyph glyph-name="FL00D1h" unicode="&#xd1;" horiz-adv-x="750" 
d="M701 0v353q0 46 -15 88t-47 81q-30 41 -71 60.5t-88 19.5h-427v-602h159v466h208q40 0 64.5 -11t38.5 -29.5t19 -42.5t5 -50v-333h154zM280 841l-113 -178h120l46 76l52 -77h104l113 178h-120l-47 -78l-51 79h-104z" />
    <glyph glyph-name="FL00D2h" unicode="&#xd2;" horiz-adv-x="749" 
d="M700 208v189q0 51 -16 89.5t-54 64t-101 38.5t-157 13q-92 0 -153.5 -14t-98 -41t-52 -65.5t-15.5 -87.5v-189q0 -48 15.5 -86.5t52 -64.5t97.5 -40t153 -14q94 0 157.5 13t101.5 38.5t54 64.5t16 92zM372 467q54 0 87.5 -5.5t51.5 -18t24.5 -33t6.5 -50.5v-118
q0 -30 -6.5 -50.5t-25 -33t-52 -18t-87.5 -5.5q-48 0 -79.5 7t-50.5 20.5t-26.5 32.5t-7.5 43v132q0 22 8 40t27.5 30.5t51 19.5t78.5 7zM408 836q-7 10 -20.5 23t-27.5 13q-24 0 -46 -19q-4 -3 -6.5 -6t-6.5 -6q-11 -9 -18.5 -18.5t-7.5 -22.5q0 -26 11 -38l66 -74l-1 1
q17 -23 44 -23q24 0 45 18q14 13 19.5 24.5t5.5 28.5q0 20 -16 45z" />
    <glyph glyph-name="FL00D3h" unicode="&#xd3;" horiz-adv-x="749" 
d="M700 208v189q0 51 -16 89.5t-54 64t-101 38.5t-157 13q-92 0 -153.5 -14t-98 -41t-52 -65.5t-15.5 -87.5v-189q0 -48 15.5 -86.5t52 -64.5t97.5 -40t153 -14q94 0 157.5 13t101.5 38.5t54 64.5t16 92zM372 467q54 0 87.5 -5.5t51.5 -18t24.5 -33t6.5 -50.5v-118
q0 -30 -6.5 -50.5t-25 -33t-52 -18t-87.5 -5.5q-48 0 -79.5 7t-50.5 20.5t-26.5 32.5t-7.5 43v132q0 22 8 40t27.5 30.5t51 19.5t78.5 7zM306 782q-16 -25 -16 -45q0 -17 5.5 -28.5t18.5 -24.5q22 -18 46 -18q27 0 44 23l-1 -1l65 74q12 16 12 38q0 13 -7.5 22.5t-18.5 18.5
q-4 3 -7 6t-7 6q-21 19 -45 19q-14 0 -27.5 -13t-21.5 -23z" />
    <glyph glyph-name="FL00D4h" unicode="&#xd4;" horiz-adv-x="749" 
d="M700 208v189q0 51 -16 89.5t-54 64t-101 38.5t-157 13q-92 0 -153.5 -14t-98 -41t-52 -65.5t-15.5 -87.5v-189q0 -48 15.5 -86.5t52 -64.5t97.5 -40t153 -14q94 0 157.5 13t101.5 38.5t54 64.5t16 92zM372 467q54 0 87.5 -5.5t51.5 -18t24.5 -33t6.5 -50.5v-118
q0 -30 -6.5 -50.5t-25 -33t-52 -18t-87.5 -5.5q-48 0 -79.5 7t-50.5 20.5t-26.5 32.5t-7.5 43v131q0 22 8 40.5t27.5 31t51 19.5t78.5 7zM541 666l-115 201h-106l-111 -201h119l48 91l48 -91h117z" />
    <glyph glyph-name="FL00D5h" unicode="&#xd5;" horiz-adv-x="749" 
d="M700 208v189q0 51 -16 89.5t-54 64t-101 38.5t-157 13q-92 0 -153.5 -14t-98 -41t-52 -65.5t-15.5 -87.5v-189q0 -48 15.5 -86.5t52 -64.5t97.5 -40t153 -14q94 0 157.5 13t101.5 38.5t54 64.5t16 92zM372 467q54 0 87.5 -5.5t51.5 -18t24.5 -33t6.5 -51.5v-117
q0 -30 -6.5 -50.5t-25 -33t-52 -18t-87.5 -5.5q-48 0 -79.5 7t-50.5 20.5t-26.5 32.5t-7.5 42v132q0 22 8 40.5t27.5 31t51 19.5t78.5 7zM279 843l-113 -178h120l46 76l52 -77h104l113 178h-120l-47 -78l-51 79h-104z" />
    <glyph glyph-name="FL00D6h" unicode="&#xd6;" horiz-adv-x="749" 
d="M700 208v188q0 51 -16 89.5t-54 64t-101 38.5t-157 13q-92 0 -153.5 -14t-98 -41t-52 -65.5t-15.5 -87.5v-188q0 -48 15.5 -86.5t52 -64.5t97.5 -40t153 -14q94 0 157.5 13t101.5 38.5t54 64.5t16 92zM372 466q54 0 87.5 -5.5t51.5 -18t24.5 -33t6.5 -50.5v-117
q0 -30 -6.5 -50.5t-25 -33t-52 -18t-87.5 -5.5q-48 0 -79.5 7t-50.5 20.5t-26.5 32.5t-7.5 42v132q0 22 8 40t27.5 30.5t51 19.5t78.5 7zM388 723q0 -30 23.5 -50.5t58.5 -20.5q36 0 60 20.5t24 50.5t-24 50.5t-60 20.5q-35 0 -58.5 -20.5t-23.5 -50.5zM193 723
q0 -30 23.5 -50.5t58.5 -20.5q36 0 60 20.5t24 50.5t-24 50.5t-60 20.5q-35 0 -58.5 -20.5t-23.5 -50.5z" />
    <glyph glyph-name="FL00D7h" unicode="&#xd7;" horiz-adv-x="496" 
d="M19 497l166 -225l-164 -223h131l99 133l98 -133h132l-164 223l164 225h-132l-98 -136l-100 136h-132z" />
    <glyph glyph-name="FL00D8h" unicode="&#xd8;" horiz-adv-x="749" 
d="M469 0q64 0 108 20.5t71.5 59t39.5 94t12 126.5q0 139 -53.5 217.5t-167.5 78.5h-204q-114 0 -168 -78.5t-54 -217.5q0 -71 12 -126.5t39.5 -94t71.5 -59t108 -20.5h185zM212 237v119q0 22 5.5 41.5t19 34t36 22.5t56.5 8h26l-100 -313q-43 22 -43 88zM541 356v-119
q0 -101 -116 -101h-18l97 306q21 -14 29 -36t8 -50z" />
    <glyph glyph-name="FL00D9h" unicode="&#xd9;" horiz-adv-x="750" 
d="M701 197v405h-159v-371q0 -30 -6.5 -51t-24.5 -33.5t-51.5 -18t-87.5 -5.5q-48 0 -79.5 7t-50.5 20.5t-26.5 32.5t-7.5 43v376h-155v-405q0 -49 15.5 -88t52 -66t98 -41t153.5 -14q94 0 157.5 13t101.5 39t54 65t16 92zM408 836q-7 10 -20.5 23t-27.5 13q-23 0 -46 -18
q-4 -4 -6.5 -7t-6.5 -6q-11 -9 -18.5 -18t-7.5 -23q0 -24 11 -38l66 -74l-1 1q17 -23 44 -23q12 0 23 4t22 15q14 12 19.5 23.5t5.5 28.5q0 22 -16 45z" />
    <glyph glyph-name="FL00DAh" unicode="&#xda;" horiz-adv-x="750" 
d="M701 197v405h-159v-371q0 -30 -6.5 -51t-24.5 -33.5t-51.5 -18t-87.5 -5.5q-48 0 -79.5 7t-50.5 20.5t-26.5 32.5t-7.5 43v376h-155v-405q0 -49 15.5 -88t52 -66t98 -41t153.5 -14q94 0 157.5 13t101.5 39t54 65t16 92zM306 782q-16 -23 -16 -45q0 -17 5.5 -28.5
t18.5 -23.5q22 -19 46 -19q27 0 44 23l-1 -1l65 74q12 16 12 38q0 14 -7.5 23t-18.5 18q-4 3 -7 6l-7 7q-21 18 -45 18q-14 0 -27.5 -13t-21.5 -23z" />
    <glyph glyph-name="FL00DBh" unicode="&#xdb;" horiz-adv-x="750" 
d="M701 197v405h-159v-371q0 -30 -6.5 -51t-24.5 -33.5t-51.5 -18t-87.5 -5.5q-48 0 -79.5 7t-50.5 20.5t-26.5 32.5t-7.5 43v376h-155v-405q0 -49 15.5 -88t52 -66t98 -41t153.5 -14q94 0 157.5 13t101.5 39t54 65t16 92zM541 666l-115 201h-106l-111 -201h119l48 91
l48 -91h117z" />
    <glyph glyph-name="FL00DCh" unicode="&#xdc;" horiz-adv-x="750" 
d="M701 196v405h-159v-371q0 -30 -6.5 -50.5t-24.5 -33t-51.5 -18t-87.5 -5.5q-48 0 -79.5 7t-50.5 20.5t-26.5 32.5t-7.5 42v376h-155v-405q0 -49 15.5 -87.5t52 -65.5t98 -41t153.5 -14q94 0 157.5 13t101.5 39t54 65t16 91zM193 723q0 -30 23.5 -50.5t58.5 -20.5
q36 0 60 20.5t24 50.5t-24 50.5t-60 20.5q-35 0 -58.5 -20.5t-23.5 -50.5zM388 723q0 -30 23.5 -50.5t58.5 -20.5q36 0 60 20.5t24 50.5t-24 50.5t-60 20.5q-35 0 -58.5 -20.5t-23.5 -50.5z" />
    <glyph glyph-name="FL00DDh" unicode="&#xdd;" 
d="M705 602h-162v-229h-256q-62 13 -73 74v156h-161v-72q0 -71 13 -126.5t42 -94t75 -58.5t111 -20v1h247q-13 -54 -50.5 -73t-92.5 -19h-203v-141h237q139 0 206.5 79.5t67.5 219.5zM327 782q-16 -25 -16 -45q0 -17 5.5 -28.5t19.5 -24.5q21 -18 45 -18q27 0 44 23l-1 -1
l65 74q13 16 13 38q0 13 -8 22.5t-19 18.5l-6 6t-7 6q-22 19 -46 19q-14 0 -27.5 -13t-20.5 -23z" />
    <glyph glyph-name="FL00DEh" unicode="&#xde;" horiz-adv-x="730" 
d="M681 117v122q0 45 -16.5 89t-46 79t-70 57t-88.5 22h-248v110h-159v-596h159v117h469zM400 351q33 0 55.5 -7.5t37 -20.5t22 -30.5t10.5 -37.5h-313v96h188z" />
    <glyph glyph-name="FL00DFh" unicode="&#xdf;" horiz-adv-x="692" 
d="M211 -120v584h158q32 0 53.5 -7.5t35 -20t20 -30t7.5 -38.5h-205v-139h204q-6 -92 -115 -92h-89v-137h133q63 0 107 20.5t71.5 59.5t39.5 95t12 127q0 139 -53.5 218t-166.5 79h-370v-719h158z" />
    <glyph glyph-name="FL00E0h" unicode="&#xe0;" horiz-adv-x="730" 
d="M207 0v103h316v-103h158v602h-407q-48 0 -88.5 -22t-70 -57.5t-46 -80t-16.5 -89.5v-353h154zM334 466h188v-229h-314v122q1 22 8 41.5t22 34t38 23t58 8.5zM408 836q-8 10 -21 23t-27 13q-24 0 -46 -19q-4 -3 -7 -6t-7 -6q-10 -9 -18 -18.5t-8 -22.5q0 -25 12 -38
l66 -74l-1 1q15 -23 43 -23q24 0 46 18q13 13 18.5 24.5t5.5 28.5q0 19 -15 45z" />
    <glyph glyph-name="FL00E1h" unicode="&#xe1;" horiz-adv-x="730" 
d="M207 0v103h316v-103h158v602h-407q-48 0 -88.5 -22t-70 -57.5t-46 -80t-16.5 -89.5v-353h154zM334 466h188v-229h-314v122q1 22 8 41.5t22 34t38 23t58 8.5zM330 781q-16 -25 -16 -45q0 -17 5.5 -28.5t18.5 -24.5q22 -18 46 -18q28 0 43 23l-1 -1l65 74q13 16 13 38
q0 13 -8 22.5t-18 18.5q-4 3 -7 6t-7 6q-21 19 -45 19q-14 0 -27.5 -13t-21.5 -23z" />
    <glyph glyph-name="FL00E2h" unicode="&#xe2;" horiz-adv-x="730" 
d="M207 0v103h316v-103h158v602h-407q-48 0 -88.5 -22t-70 -57.5t-46 -80t-16.5 -89.5v-353h154zM334 466h188v-229h-314v122q1 22 8 41.5t22 34t38 23t58 8.5zM560 664l-115 201h-106l-111 -201h119l48 91l48 -91h117z" />
    <glyph glyph-name="FL00E3h" unicode="&#xe3;" horiz-adv-x="730" 
d="M207 0v103h316v-103h158v602h-407q-48 0 -88.5 -22t-70 -57.5t-46 -80t-16.5 -89.5v-353h154zM334 466h188v-230h-314v122q1 22 8 41.5t22 34.5t38 23.5t58 8.5zM296 842l-114 -178h120l46 76l52 -77h104l113 178h-120l-47 -78l-51 79h-103z" />
    <glyph glyph-name="FL00E4h" unicode="&#xe4;" horiz-adv-x="730" 
d="M207 0v102h316v-102h158v601h-407q-48 0 -88.5 -22t-70 -57.5t-46 -80t-16.5 -89.5v-352h154zM334 465h188v-229h-314v122q1 22 8 41.5t22 34t38 23t58 8.5zM388 723q0 -30 23.5 -50.5t58.5 -20.5q36 0 59.5 20.5t23.5 50.5t-23.5 50.5t-59.5 20.5q-35 0 -58.5 -20.5
t-23.5 -50.5zM193 723q0 -30 23.5 -50.5t58.5 -20.5q36 0 60 20.5t24 50.5t-24 50.5t-60 20.5q-35 0 -58.5 -20.5t-23.5 -50.5z" />
    <glyph glyph-name="FL00E5h" unicode="&#xe5;" horiz-adv-x="730" 
d="M207 0v102h316v-102h158v601h-407q-48 0 -88.5 -22t-70 -57.5t-46 -80t-16.5 -89.5v-352h154zM334 465h188v-229h-314v122q1 22 8 41.5t22 34t38 23t58 8.5zM291 722q0 -30 23.5 -50.5t58.5 -20.5q36 0 59.5 20.5t23.5 50.5t-23.5 50.5t-59.5 20.5q-35 0 -58.5 -20.5
t-23.5 -50.5z" />
    <glyph glyph-name="FL00E6h" unicode="&#xe6;" horiz-adv-x="1177" 
d="M210 0v102h320v-102h598v136h-320q-112 0 -118 91h354v140h-354q1 20 7.5 37.5t20.5 30t36 20t54 7.5h320v134h-850q-48 0 -89 -22t-71 -57t-47 -79t-17 -89v-349h156zM339 462h190v-228h-318v121q1 22 8 41.5t22 34t39 23t59 8.5z" />
    <glyph glyph-name="FL00E7h" unicode="&#xe7;" horiz-adv-x="692" 
d="M201 -165h88q52 0 90.5 9t66 28.5t44.5 51t25 76.5h128v137h-315q-116 0 -116 102v120q0 22 5.5 41.5t19 34t35.5 22.5t56 8h315v135h-369q-57 0 -98.5 -20.5t-68.5 -59t-40.5 -93.5t-13.5 -125q0 -71 12 -127t39.5 -95t71.5 -59.5t107 -20.5h76q-8 -20 -30 -23.5
t-58 -3.5h-70v-138z" />
    <glyph glyph-name="FL00E8h" unicode="&#xe8;" horiz-adv-x="692" 
d="M643 0v138h-315q-110 0 -116 92h348v141h-348q1 20 7.5 37.5t20 30t35 20t53.5 7.5h315v136h-369q-113 0 -167 -79.5t-54 -219.5q0 -71 12 -127.5t39.5 -95.5t71.5 -59.5t107 -20.5h360zM398 836q-8 10 -21.5 23t-27.5 13q-24 0 -45 -19q-4 -3 -7 -6t-7 -6
q-10 -9 -18 -18.5t-8 -22.5q0 -25 12 -38l65 -74l-1 1q17 -23 44 -23q24 0 45 18q14 13 19.5 24.5t5.5 28.5q0 20 -16 45z" />
    <glyph glyph-name="FL00E9h" unicode="&#xe9;" horiz-adv-x="692" 
d="M643 0v138h-315q-110 0 -116 92h348v141h-348q1 20 7.5 37.5t20 30t35 20t53.5 7.5h315v136h-369q-113 0 -167 -79.5t-54 -219.5q0 -71 12 -127.5t39.5 -95.5t71.5 -59.5t107 -20.5h360zM337 783q-16 -25 -16 -45q0 -17 5.5 -28.5t18.5 -24.5q22 -18 46 -18q28 0 43 23
l-1 -1l65 74q13 16 13 38q0 13 -8 22.5t-18 18.5q-4 3 -7 6t-7 6q-22 19 -45 19q-14 0 -27.5 -13t-21.5 -23z" />
    <glyph glyph-name="FL00EAh" unicode="&#xea;" horiz-adv-x="692" 
d="M643 0v138h-315q-110 0 -116 92h348v140h-348q1 21 7.5 38.5t20 30t35 20t53.5 7.5h315v136h-369q-113 0 -167 -79.5t-54 -219.5q0 -71 12 -127.5t39.5 -95.5t71.5 -59.5t107 -20.5h360zM543 663l-115 201h-106l-111 -201h119l48 91l48 -91h117z" />
    <glyph glyph-name="FL00EBh" unicode="&#xeb;" horiz-adv-x="692" 
d="M643 0v138h-315q-110 0 -116 91h348v141h-348q1 20 7.5 37.5t20 30t35 20t53.5 7.5h315v136h-369q-113 0 -167 -79.5t-54 -219.5q0 -71 12 -127t39.5 -95t71.5 -59.5t107 -20.5h360zM206 722q0 -30 23.5 -50.5t58.5 -20.5q36 0 59.5 20.5t23.5 50.5t-23.5 50.5
t-59.5 20.5q-35 0 -58.5 -20.5t-23.5 -50.5zM400 722q0 -30 23.5 -50.5t59.5 -20.5q35 0 59 20.5t24 50.5t-24 50.5t-59 20.5q-36 0 -59.5 -20.5t-23.5 -50.5z" />
    <glyph glyph-name="FL00ECh" unicode="&#xec;" horiz-adv-x="249" 
d="M201 784q15 -26 15 -45q0 -17 -5.5 -28.5t-17.5 -24.5q-19 -18 -42 -18q-26 0 -41 23l1 -1l-61 74q-10 13 -10 38q0 13 7 22.5t17 18.5l12 12q21 19 43 19q13 0 25 -13t19 -23zM52 0v602h147v-602h-147z" />
    <glyph glyph-name="FL00EDh" unicode="&#xed;" horiz-adv-x="243" 
d="M197 0v602h-148v-602h148zM48 784q-15 -26 -15 -45q0 -17 5.5 -28.5t17.5 -24.5q19 -18 42 -18q25 0 40 23l-1 -1l61 74q11 15 11 38q0 13 -7 22.5t-17 18.5q-4 3 -6.5 6t-6.5 6q-19 19 -42 19q-13 0 -25.5 -13t-19.5 -23z" />
    <glyph glyph-name="FL00F7h" unicode="&#xee;" horiz-adv-x="254" 
d="M206 0v602h-154v-602h154zM289 663l-112 201h-102l-108 -201h116l47 91l46 -91h113z" />
    <glyph glyph-name="FL00EFh" unicode="&#xef;" horiz-adv-x="255" 
d="M207 0v601h-155v-601h155zM-44 718q0 -30 22.5 -50.5t57.5 -20.5t58 20.5t23 50.5t-23 50.5t-58 20.5t-57.5 -20.5t-22.5 -50.5zM146 718q0 -30 22.5 -50.5t57.5 -20.5t58.5 20.5t23.5 50.5t-23.5 50.5t-58.5 20.5t-57.5 -20.5t-22.5 -50.5z" />
    <glyph glyph-name="FL00F0h" unicode="&#xf0;" 
d="M462 139q38 11 60 31.5t24 59.5h-330q14 -53 52 -72t93 -19h101zM52 457v139h379q68 0 119 -19t85 -54t51 -85t19 -112v-96h-3q-11 -111 -63.5 -170.5t-164.5 -59.5h-147q-140 0 -207.5 78.5t-67.5 217.5v73h488q-15 50 -51.5 69t-91.5 19h-345z" />
    <glyph glyph-name="FL00F1h" unicode="&#xf1;" horiz-adv-x="750" 
d="M701 0v353q0 46 -15 88t-47 81q-30 41 -71 60.5t-88 19.5h-427v-602h159v466h208q40 0 64.5 -11t38.5 -29.5t19 -42.5t5 -50v-333h154zM280 841l-113 -178h120l46 76l52 -77h104l113 178h-120l-47 -78l-51 79h-104z" />
    <glyph glyph-name="FL00F2h" unicode="&#xf2;" horiz-adv-x="749" 
d="M700 208v189q0 51 -16 89.5t-54 64t-101 38.5t-157 13q-92 0 -153.5 -14t-98 -41t-52 -65.5t-15.5 -87.5v-189q0 -48 15.5 -86.5t52 -64.5t97.5 -40t153 -14q94 0 157.5 13t101.5 38.5t54 64.5t16 92zM372 467q54 0 87.5 -5.5t51.5 -18t24.5 -33t6.5 -50.5v-118
q0 -30 -6.5 -50.5t-25 -33t-52 -18t-87.5 -5.5q-48 0 -79.5 7t-50.5 20.5t-26.5 32.5t-7.5 43v132q0 22 8 40t27.5 30.5t51 19.5t78.5 7zM408 836q-7 10 -20.5 23t-27.5 13q-24 0 -46 -19q-4 -3 -6.5 -6t-6.5 -6q-11 -9 -18.5 -18.5t-7.5 -22.5q0 -26 11 -38l66 -74l-1 1
q17 -23 44 -23q24 0 45 18q14 13 19.5 24.5t5.5 28.5q0 20 -16 45z" />
    <glyph glyph-name="FL00F3h" unicode="&#xf3;" horiz-adv-x="749" 
d="M700 208v189q0 51 -16 89.5t-54 64t-101 38.5t-157 13q-92 0 -153.5 -14t-98 -41t-52 -65.5t-15.5 -87.5v-189q0 -48 15.5 -86.5t52 -64.5t97.5 -40t153 -14q94 0 157.5 13t101.5 38.5t54 64.5t16 92zM372 467q54 0 87.5 -5.5t51.5 -18t24.5 -33t6.5 -50.5v-118
q0 -30 -6.5 -50.5t-25 -33t-52 -18t-87.5 -5.5q-48 0 -79.5 7t-50.5 20.5t-26.5 32.5t-7.5 43v132q0 22 8 40t27.5 30.5t51 19.5t78.5 7zM306 782q-16 -25 -16 -45q0 -17 5.5 -28.5t18.5 -24.5q22 -18 46 -18q27 0 44 23l-1 -1l65 74q12 16 12 38q0 13 -7.5 22.5t-18.5 18.5
q-4 3 -7 6t-7 6q-21 19 -45 19q-14 0 -27.5 -13t-21.5 -23z" />
    <glyph glyph-name="FL00F4h" unicode="&#xf4;" horiz-adv-x="749" 
d="M700 208v189q0 51 -16 89.5t-54 64t-101 38.5t-157 13q-92 0 -153.5 -14t-98 -41t-52 -65.5t-15.5 -87.5v-189q0 -48 15.5 -86.5t52 -64.5t97.5 -40t153 -14q94 0 157.5 13t101.5 38.5t54 64.5t16 92zM372 467q54 0 87.5 -5.5t51.5 -18t24.5 -33t6.5 -50.5v-118
q0 -30 -6.5 -50.5t-25 -33t-52 -18t-87.5 -5.5q-48 0 -79.5 7t-50.5 20.5t-26.5 32.5t-7.5 43v131q0 22 8 40.5t27.5 31t51 19.5t78.5 7zM541 666l-115 201h-106l-111 -201h119l48 91l48 -91h117z" />
    <glyph glyph-name="FL00F5h" unicode="&#xf5;" horiz-adv-x="749" 
d="M700 208v189q0 51 -16 89.5t-54 64t-101 38.5t-157 13q-92 0 -153.5 -14t-98 -41t-52 -65.5t-15.5 -87.5v-189q0 -48 15.5 -86.5t52 -64.5t97.5 -40t153 -14q94 0 157.5 13t101.5 38.5t54 64.5t16 92zM372 467q54 0 87.5 -5.5t51.5 -18t24.5 -33t6.5 -51.5v-117
q0 -30 -6.5 -50.5t-25 -33t-52 -18t-87.5 -5.5q-48 0 -79.5 7t-50.5 20.5t-26.5 32.5t-7.5 42v132q0 22 8 40.5t27.5 31t51 19.5t78.5 7zM279 843l-113 -178h120l46 76l52 -77h104l113 178h-120l-47 -78l-51 79h-104z" />
    <glyph glyph-name="FL00F6h" unicode="&#xf6;" horiz-adv-x="749" 
d="M700 208v188q0 51 -16 89.5t-54 64t-101 38.5t-157 13q-92 0 -153.5 -14t-98 -41t-52 -65.5t-15.5 -87.5v-188q0 -48 15.5 -86.5t52 -64.5t97.5 -40t153 -14q94 0 157.5 13t101.5 38.5t54 64.5t16 92zM372 466q54 0 87.5 -5.5t51.5 -18t24.5 -33t6.5 -50.5v-117
q0 -30 -6.5 -50.5t-25 -33t-52 -18t-87.5 -5.5q-48 0 -79.5 7t-50.5 20.5t-26.5 32.5t-7.5 42v132q0 22 8 40t27.5 30.5t51 19.5t78.5 7zM388 723q0 -30 23.5 -50.5t58.5 -20.5q36 0 60 20.5t24 50.5t-24 50.5t-60 20.5q-35 0 -58.5 -20.5t-23.5 -50.5zM193 723
q0 -30 23.5 -50.5t58.5 -20.5q36 0 60 20.5t24 50.5t-24 50.5t-60 20.5q-35 0 -58.5 -20.5t-23.5 -50.5z" />
    <glyph glyph-name="FL0100h" unicode="&#xf7;" horiz-adv-x="547" 
d="M53 362v-137h446v137h-446zM198 446q0 -29 23 -49.5t58 -20.5t59 20.5t24 49.5t-24 49.5t-59 20.5t-58 -20.5t-23 -49.5zM198 142q0 -30 23 -50t58 -20t59 20t24 50q0 29 -24 49t-59 20t-58 -20t-23 -49z" />
    <glyph glyph-name="FL00F8h" unicode="&#xf8;" horiz-adv-x="749" 
d="M469 0q64 0 108 20.5t71.5 59t39.5 94t12 126.5q0 139 -53.5 217.5t-167.5 78.5h-204q-114 0 -168 -78.5t-54 -217.5q0 -71 12 -126.5t39.5 -94t71.5 -59t108 -20.5h185zM212 237v119q0 22 5.5 41.5t19 34t36 22.5t56.5 8h26l-100 -313q-43 22 -43 88zM541 356v-119
q0 -101 -116 -101h-18l97 306q21 -14 29 -36t8 -50z" />
    <glyph glyph-name="FL00F9h" unicode="&#xf9;" horiz-adv-x="750" 
d="M701 197v405h-159v-371q0 -30 -6.5 -51t-24.5 -33.5t-51.5 -18t-87.5 -5.5q-48 0 -79.5 7t-50.5 20.5t-26.5 32.5t-7.5 43v376h-155v-405q0 -49 15.5 -88t52 -66t98 -41t153.5 -14q94 0 157.5 13t101.5 39t54 65t16 92zM408 836q-7 10 -20.5 23t-27.5 13q-23 0 -46 -18
q-4 -4 -6.5 -7t-6.5 -6q-11 -9 -18.5 -18t-7.5 -23q0 -24 11 -38l66 -74l-1 1q17 -23 44 -23q12 0 23 4t22 15q14 12 19.5 23.5t5.5 28.5q0 22 -16 45z" />
    <glyph glyph-name="FL00FAh" unicode="&#xfa;" horiz-adv-x="750" 
d="M701 197v405h-159v-371q0 -30 -6.5 -51t-24.5 -33.5t-51.5 -18t-87.5 -5.5q-48 0 -79.5 7t-50.5 20.5t-26.5 32.5t-7.5 43v376h-155v-405q0 -49 15.5 -88t52 -66t98 -41t153.5 -14q94 0 157.5 13t101.5 39t54 65t16 92zM306 782q-16 -23 -16 -45q0 -17 5.5 -28.5
t18.5 -23.5q22 -19 46 -19q27 0 44 23l-1 -1l65 74q12 16 12 38q0 14 -7.5 23t-18.5 18q-4 3 -7 6l-7 7q-21 18 -45 18q-14 0 -27.5 -13t-21.5 -23z" />
    <glyph glyph-name="FL00FBh" unicode="&#xfb;" horiz-adv-x="750" 
d="M701 197v405h-159v-371q0 -30 -6.5 -51t-24.5 -33.5t-51.5 -18t-87.5 -5.5q-48 0 -79.5 7t-50.5 20.5t-26.5 32.5t-7.5 43v376h-155v-405q0 -49 15.5 -88t52 -66t98 -41t153.5 -14q94 0 157.5 13t101.5 39t54 65t16 92zM541 666l-115 201h-106l-111 -201h119l48 91
l48 -91h117z" />
    <glyph glyph-name="FL00FCh" unicode="&#xfc;" horiz-adv-x="750" 
d="M701 196v405h-159v-371q0 -30 -6.5 -50.5t-24.5 -33t-51.5 -18t-87.5 -5.5q-48 0 -79.5 7t-50.5 20.5t-26.5 32.5t-7.5 42v376h-155v-405q0 -49 15.5 -87.5t52 -65.5t98 -41t153.5 -14q94 0 157.5 13t101.5 39t54 65t16 91zM193 723q0 -30 23.5 -50.5t58.5 -20.5
q36 0 60 20.5t24 50.5t-24 50.5t-60 20.5q-35 0 -58.5 -20.5t-23.5 -50.5zM388 723q0 -30 23.5 -50.5t58.5 -20.5q36 0 60 20.5t24 50.5t-24 50.5t-60 20.5q-35 0 -58.5 -20.5t-23.5 -50.5z" />
    <glyph glyph-name="FL00FDh" unicode="&#xfd;" 
d="M705 602h-162v-229h-256q-62 13 -73 74v156h-161v-72q0 -71 13 -126.5t42 -94t75 -58.5t111 -20v1h247q-13 -54 -50.5 -73t-92.5 -19h-203v-141h237q139 0 206.5 79.5t67.5 219.5zM327 782q-16 -25 -16 -45q0 -17 5.5 -28.5t19.5 -24.5q21 -18 45 -18q27 0 44 23l-1 -1
l65 74q13 16 13 38q0 13 -8 22.5t-19 18.5l-6 6t-7 6q-22 19 -46 19q-14 0 -27.5 -13t-20.5 -23z" />
    <glyph glyph-name="FL00FEh" unicode="&#xfe;" horiz-adv-x="730" 
d="M681 117v122q0 45 -16.5 89t-46 79t-70 57t-88.5 22h-248v110h-159v-596h159v117h469zM400 351q33 0 55.5 -7.5t37 -20.5t22 -30.5t10.5 -37.5h-313v96h188z" />
    <glyph glyph-name="FL00FFh" unicode="&#xff;" 
d="M705 601h-162v-228h-256q-62 12 -73 73v156h-161v-72q0 -71 13 -126.5t42 -94t75 -58.5t111 -20v1h247q-13 -53 -50.5 -72.5t-92.5 -19.5h-203v-140h237q139 0 206.5 79t67.5 219zM388 723q0 -30 23.5 -50.5t59.5 -20.5q35 0 59 20.5t24 50.5t-24 50.5t-59 20.5
q-36 0 -59.5 -20.5t-23.5 -50.5zM193 723q0 -30 23.5 -50.5t59.5 -20.5q35 0 59 20.5t24 50.5t-24 50.5t-59 20.5q-36 0 -59.5 -20.5t-23.5 -50.5z" />
    <glyph glyph-name="FL0152h" unicode="&#x152;" horiz-adv-x="1141" 
d="M1092 0v136h-320q-112 0 -118 91h354v140h-354q1 20 7.5 37.5t20.5 30t36 20t54 7.5h320v134h-814q-115 0 -169.5 -78.5t-54.5 -217.5q0 -71 12.5 -126.5t40 -94t72 -59t108.5 -20.5h805zM493 300q0 -48 5 -89t18 -75h-183q-118 0 -118 101v119q0 22 5.5 41.5t19 34
t36 22.5t57.5 8h185q-25 -66 -25 -162z" />
    <glyph glyph-name="FL0153h" unicode="&#x153;" horiz-adv-x="1141" 
d="M1092 0v136h-320q-112 0 -118 91h354v140h-354q1 20 7.5 37.5t20.5 30t36 20t54 7.5h320v134h-814q-115 0 -169.5 -78.5t-54.5 -217.5q0 -71 12.5 -126.5t40 -94t72 -59t108.5 -20.5h805zM493 300q0 -48 5 -89t18 -75h-183q-118 0 -118 101v119q0 22 5.5 41.5t19 34
t36 22.5t57.5 8h185q-25 -66 -25 -162z" />
    <glyph glyph-name="FL0160h" unicode="&#x160;" 
d="M362 461h344v141h-378q-140 0 -207.5 -79.5t-67.5 -219.5v-70h488q-13 -54 -50.5 -73t-92.5 -19h-345v-141h379q139 0 206.5 79.5t67.5 219.5v73h-489q14 51 52 70t93 19zM215 865l114 -200h106l111 200h-119l-49 -90l-45 89z" />
    <glyph glyph-name="FL0162h" unicode="&#x161;" 
d="M215 865l118 -1l45 -89l49 90h119l-111 -200h-106zM362 461q-55 0 -93 -19t-52 -70h489v-73q0 -140 -67.5 -219.5t-206.5 -79.5h-378v141h344q55 0 92.5 19t50.5 73h-488v70q0 140 67.5 219.5t207.5 79.5h233v-141h-199z" />
    <glyph glyph-name="FL0178h" unicode="&#x178;" 
d="M705 601h-162v-228h-256q-62 12 -73 73v156h-161v-72q0 -71 13 -126.5t42 -94t75 -58.5t111 -20v1h247q-13 -53 -50.5 -72.5t-92.5 -19.5h-203v-140h237q139 0 206.5 79t67.5 219zM388 723q0 -30 23.5 -50.5t59.5 -20.5q35 0 59 20.5t24 50.5t-24 50.5t-59 20.5
q-36 0 -59.5 -20.5t-23.5 -50.5zM193 723q0 -30 23.5 -50.5t59.5 -20.5q35 0 59 20.5t24 50.5t-24 50.5t-59 20.5q-36 0 -59.5 -20.5t-23.5 -50.5z" />
    <glyph glyph-name="FL017Dh" unicode="&#x17d;" horiz-adv-x="686" 
d="M637 472v130h-584v-136h365l-365 -336v-130h584v136h-366zM178 865l113 -200h105l112 200h-119l-49 -90l-45 89z" />
    <glyph glyph-name="FL0161h" unicode="&#x17e;" horiz-adv-x="686" 
d="M637 472v130h-584v-136h365l-365 -336v-130h584v136h-366zM178 865l113 -200h105l112 200h-119l-49 -90l-45 89z" />
    <glyph glyph-name="FL0192h" unicode="&#x192;" horiz-adv-x="692" 
d="M643 596v-136h-315q-116 0 -116 -101v-360h-159v297q0 70 12 126t39.5 94.5t71.5 59t107 20.5h360z" />
    <glyph glyph-name="FL02C6h" unicode="&#x2c6;" horiz-adv-x="408" 
d="M367 369l-112 186h-102l-108 -186h116l47 84l46 -84h113z" />
    <glyph glyph-name="FL02DCh" unicode="&#x2dc;" horiz-adv-x="466" 
d="M132 551l-111 -171h118l46 75l51 -75h103l110 170h-118l-47 -75l-49 76h-103z" />
    <glyph glyph-name="FL2013h" unicode="&#x2013;" horiz-adv-x="478" 
d="M52 201h378v124h-378v-124z" />
    <glyph glyph-name="FL2014h" unicode="&#x2014;" horiz-adv-x="547" 
d="M53 325v-123h446v123h-446z" />
    <glyph glyph-name="FL2018h" unicode="&#x2018;" horiz-adv-x="245" 
d="M49 394q0 -28 21 -48.5t54 -20.5q32 0 54 19.5t22 48.5v109q0 29 -22 48t-54 19q-33 0 -54 -19t-21 -48v-108z" />
    <glyph glyph-name="FL2019h" unicode="&#x2019;" horiz-adv-x="245" 
d="M49 394q0 -28 21 -48.5t54 -20.5q32 0 54 19.5t22 48.5v109q0 29 -22 48t-54 19q-33 0 -54 -19t-21 -48v-108z" />
    <glyph glyph-name="FL201Ah" unicode="&#x201a;" horiz-adv-x="245" 
d="M49 -41q0 -28 21 -48t54 -20q32 0 54 19.5t22 47.5v109q0 29 -22 48.5t-54 19.5q-33 0 -54 -19.5t-21 -48.5v-108z" />
    <glyph glyph-name="FL201Ch" unicode="&#x201c;" horiz-adv-x="453" 
d="M243 394q0 -28 23 -48.5t58 -20.5t58 19.5t23 48.5v109q0 29 -23 48.5t-58 19.5t-58 -19.5t-23 -48.5v-108zM52 393q0 -28 22.5 -48t57.5 -20t58.5 19t23.5 48v109q0 29 -23.5 48.5t-58.5 19.5t-57.5 -19.5t-22.5 -48.5v-108z" />
    <glyph glyph-name="FL201Dh" unicode="&#x201d;" horiz-adv-x="453" 
d="M243 394q0 -28 23 -48.5t58 -20.5t58 19.5t23 48.5v109q0 29 -23 48.5t-58 19.5t-58 -19.5t-23 -48.5v-108zM52 393q0 -28 22.5 -48t57.5 -20t58.5 19t23.5 48v109q0 29 -23.5 48.5t-58.5 19.5t-57.5 -19.5t-22.5 -48.5v-108z" />
    <glyph glyph-name="FL201Eh" unicode="&#x201e;" horiz-adv-x="453" 
d="M243 -41q0 -28 23 -48t58 -20t58 19t23 48v109q0 29 -23 48.5t-58 19.5t-58 -19.5t-23 -48.5v-108zM52 -40q0 -28 22.5 -48t57.5 -20t58.5 19t23.5 48v109q0 29 -23.5 48.5t-58.5 19.5t-57.5 -19.5t-22.5 -48.5v-108z" />
    <glyph glyph-name="FL2020h" unicode="&#x2020;" horiz-adv-x="486" 
d="M52 343h115v-343h156v343h114v140h-114v113h-156v-113h-115v-140z" />
    <glyph glyph-name="FL2021h" unicode="&#x2021;" horiz-adv-x="486" 
d="M52 343h115v-100h-115v-140h115v-103h156v104h114v139h-114v100h114v140h-114v113h-156v-113h-115v-140z" />
    <glyph glyph-name="FL2022h" unicode="&#x2022;" horiz-adv-x="463" 
d="M415 232q0 -117 -133 -117h-104q-126 0 -126 117v116q0 26 6.5 48.5t21.5 39t40.5 26t64.5 9.5h97q39 0 64.5 -9.5t41 -26t21.5 -39t6 -48.5v-116z" />
    <glyph glyph-name="FL2026h" unicode="&#x2026;" horiz-adv-x="700" 
d="M441 63q0 -26 23.5 -44.5t58.5 -18.5t59 18.5t24 44.5t-24 44.5t-59 18.5t-58.5 -18.5t-23.5 -44.5zM53 63q0 -26 23.5 -44.5t58.5 -18.5t59 18.5t24 44.5t-24 44.5t-59 18.5t-58.5 -18.5t-23.5 -44.5zM247 63q0 -26 23.5 -44.5t58.5 -18.5t59 18.5t24 44.5t-24 44.5
t-59 18.5t-58.5 -18.5t-23.5 -44.5z" />
    <glyph glyph-name="FL2030h" unicode="&#x2030;" horiz-adv-x="1206" 
d="M261 0l512 596h-163l-517 -596h168zM391 394v96q0 27 -8 46.5t-27 32.5t-51.5 19.5t-81.5 6.5q-48 0 -80.5 -7.5t-52 -21t-28 -33.5t-8.5 -45v-95q0 -25 8 -45t27 -33.5t50.5 -21t79.5 -7.5q49 0 82.5 6.5t53 20t28 34t8.5 47.5zM813 107v96q0 27 -8 47t-27 33
t-51.5 19.5t-81.5 6.5q-48 0 -80.5 -7.5t-52 -21t-28 -34t-8.5 -45.5v-95q0 -25 8 -44.5t27 -33t51 -21t79 -7.5q49 0 82.5 6.5t53 20t28 33.5t8.5 47zM1157 107v96q0 27 -8 47t-27 33t-51.5 19.5t-81.5 6.5q-48 0 -80.5 -7.5t-52 -21t-28 -34t-8.5 -45.5v-95q0 -25 8 -44.5
t27 -33t50.5 -21t79.5 -7.5q49 0 82.5 6.5t53 20t28 33.5t8.5 47zM989 215q21 0 34 -2.5t20 -7t9 -10.5t2 -12v-51q0 -21 -13 -29t-56 -8q-38 0 -51 9t-13 25v54q0 15 15 23.5t53 8.5zM645 215q21 0 34 -2.5t20 -7t9 -10.5t2 -12v-51q0 -21 -13 -29t-56 -8q-38 0 -50.5 9
t-12.5 25v54q0 15 14.5 23.5t52.5 8.5zM223 501q21 0 34 -2.5t20 -7t9 -10t2 -12.5v-51q0 -21 -13 -29t-56 -8q-38 0 -51 9.5t-13 24.5v54q0 16 15 24t53 8z" />
    <glyph glyph-name="FL2039h" unicode="&#x2039;" horiz-adv-x="282" 
d="M236 447l-186 -112v-102l186 -108v115l-84 47l84 46v114z" />
    <glyph glyph-name="FL203Ah" unicode="&#x203a;" horiz-adv-x="282" 
d="M50 447l186 -112v-102l-186 -108v115l84 47l-84 46v114z" />
    <glyph glyph-name="FL20ACh" unicode="&#x20ac;" horiz-adv-x="734" 
d="M53 307h107v-13h-107v-139h122q22 -76 73.5 -115.5t142.5 -39.5h294v136h-250q-53 0 -79 19h213v139h-250v13h250v139h-207q14 8 31.5 12t41.5 4h250v134h-304q-82 0 -131 -38.5t-72 -111.5h-125v-139z" />
    <glyph glyph-name="FL04E5h" unicode="&#x2122;" horiz-adv-x="1177" 
d="M768 263h27l-11 29zM1107 156l-47 -44l-37 36l39 27zM382 259q0 7 -1 10.5t-3 7.5v-1q-11 18 -26 18q-24 0 -45 -49v-11q0 -36 20 -36q8 0 18 4t25 12q7 11 9.5 22t2.5 23zM1118 351l-25 -151l-46 5l7 161zM109 361l-10 -200l-62 -22l20 209zM684 365l-10 -198l-63 -20
l20 210zM252 291q-17 10 -27 10q-21 0 -38 -23q-27 -30 -27 -66q0 -27 29 -27q14 0 24 3.5t20 12.5l2 -58q-17 -8 -26.5 -9.5t-19.5 -1.5q-63 0 -79 88q0 2 -0.5 4.5t-0.5 4.5q-1 5 -1 17q0 94 154 116zM1023 154q-51 0 -111 72v-69l-46 -7l-5 221l106 -117l8 112l48 -17
v-195zM850 151l-37 15q-18 38 -35 38q-18 0 -40 -40h-54q5 51 24 99.5t55 96.5q15 9 30 9q43 0 55 -66zM598 148q-56 0 -111 69v-68l-49 -7l-3 220l106 -115l4 114l53 -17v-196zM435 283q-20 -135 -81 -135q-6 0 -10 -1q-5 -1 -8 -1.5t-11 -0.5q-57 0 -72 41q0 122 74 166
q7 5 15 5h8q67 0 85 -72v-2z" />
    <glyph glyph-name="FL06D9h" horiz-adv-x="926" 
d="M473 383q-22 -1 -37.5 -2.5t-26 -7.5t-16.5 -18t-8 -34h173v62h-85zM640 107h-82v78h-174v-78h-134v201q0 44 16 79.5t43.5 61t64.5 39t79 13.5h230v-237q27 20 33 62v75q0 24 -3 46.5t-14.5 40t-35 28t-64.5 10.5h-268q-41 0 -64 -13.5t-35 -36t-15 -53.5t-3 -65v-120
q0 -27 1.5 -56t10.5 -54t28 -41t54 -16h9q7 0 10 1h326v-138h-370q-64 0 -108 31t-71 82.5t-38.5 117.5t-11.5 137q0 69 13.5 133.5t40.5 114.5t68.5 80t98.5 30h379q49 0 88 -20.5t66.5 -57t42.5 -87.5t15 -112v-82q-21 -92 -73 -142t-152 -53z" />
    <glyph glyph-name="FL0064h" horiz-adv-x="731" 
d="M212 596h-159v-596h407q47 0 88.5 20t71.5 61q31 36 45 74.5t16 82.5h1q0 51 -15 95t-47 82q-30 41 -71 60t-88 19h-249v102zM401 360q65 0 92.5 -27.5t32.5 -83.5q-2 -22 -9 -42.5t-21.5 -36.5t-38 -26t-57.5 -10h-188v226h189z" />
    <glyph glyph-name="FLE005h" horiz-adv-x="731" 
d="M208 249q1 -22 8 -42.5t22 -36.5t38 -26t58 -10h188v226h-189q-66 0 -93 -27t-32 -84zM114 415q31 41 71.5 60t87.5 19h249v102h159v-596h-407q-47 0 -88 20t-72 61q-30 36 -44.5 74.5t-16.5 82.5h-1q0 102 62 177z" />
  </font>
</defs>
</svg>
