<?xml version="1.0" standalone="no"?>
<!DOCTYPE svg PUBLIC "-//W3C//DTD SVG 1.1//EN" "http://www.w3.org/Graphics/SVG/1.1/DTD/svg11.dtd" >
<svg xmlns="http://www.w3.org/2000/svg" xmlns:xlink="http://www.w3.org/1999/xlink" version="1.1">
<metadata>
Created by FontForge 20170731 at Thu Aug  5 14:46:54 2010
 By Aleksey,,,
2010 Iconian Fonts - www.iconian.com
</metadata>
<defs>
<font id="Aegis" horiz-adv-x="1022" >
  <font-face 
    font-family="Aegis"
    font-weight="400"
    font-stretch="normal"
    units-per-em="1000"
    panose-1="0 0 0 0 0 0 0 0 0 0"
    ascent="800"
    descent="-200"
    x-height="800"
    cap-height="809"
    bbox="-128 -290 2313 1082"
    underline-thickness="50"
    underline-position="-175"
    unicode-range="U+0020-2122"
  />
<missing-glyph horiz-adv-x="500" 
 />
    <glyph glyph-name=".notdef" horiz-adv-x="500" 
 />
    <glyph glyph-name=".null" horiz-adv-x="0" 
 />
    <glyph glyph-name="nonmarkingreturn" horiz-adv-x="500" 
 />
    <glyph glyph-name="space" unicode=" " horiz-adv-x="500" 
 />
    <glyph glyph-name="space" unicode="&#xa0;" horiz-adv-x="500" 
 />
    <glyph glyph-name="FL0021h" unicode="!" horiz-adv-x="248" 
d="M37 800l107 10h14q10 0 21 0.5t21 0.5h14l-1 -525q0 -4 -13.5 -9.5t-33 -11t-43 -10.5t-43 -6.5t-33 0t-13.5 9.5zM207 160q8 0 9.5 -7.5t1.5 -12.5v-32q0 -26 -3 -54.5t-14 -48.5q-23 -2 -41.5 -2.5t-37.5 -0.5t-40.5 0.5t-51.5 0.5v21v16q0 11 1 26.5t2.5 31t4.5 29.5
t8 22q1 2 4.5 6t5.5 4z" />
    <glyph glyph-name="FL0022h" unicode="&#x22;" horiz-adv-x="460" 
d="M196 810l-151 -1q-2 0 -5.5 -4t-4.5 -6q-5 -8 -5 -37q0 -20 1 -45t2.5 -49t2.5 -44t1 -28v-16v-21q30 0 47 -2t36 -2t32 4.5t36 6.5q5 10 8.5 36t6 56.5t3.5 58.5t1 41v32q0 5 -1.5 12.5t-9.5 7.5zM419 809l-151 -1q-2 0 -5.5 -4t-4.5 -6q-5 -8 -5 -37q0 -20 1 -45
t2.5 -49t2.5 -44t1 -28v-16v-21q30 0 47 -2t36 -2t32 4.5t36 6.5q5 10 8.5 36t6 56.5t3.5 58.5t1 41v32q0 5 -1.5 12.5t-9.5 7.5z" />
    <glyph glyph-name="E" unicode="#" horiz-adv-x="795" 
d="M31 710q0 1 -0.5 4.5t-0.5 5.5q0 11 4.5 16.5t16.5 13.5q4 3 15.5 10t24 15t24 15t16.5 10q81 -2 156 -0.5t148 4l146 5t150 2.5v-171l-20 -20l-100 100l-11 0.5t-17 0.5h-10q-6 0 -13 -0.5t-13 -0.5h-6q-17 -2 -44 -5t-52.5 -6t-44 -5.5t-19.5 -3.5l-10 -10v-210h310
v-30l-7 -7.5t-16.5 -17.5t-19.5 -19.5t-17 -15.5q-2 -2 -10 -6t-10 -4l-230 -30v-200q0 -2 7.5 -5.5t12.5 -4.5q4 -1 14.5 -3t21.5 -3.5t21 -2.5t13 -1q11 0 34.5 -0.5t53.5 -0.5q31 0 64 -1t63 -1q31 0 54.5 -0.5t34.5 -0.5q0 -24 -14.5 -42.5t-37.5 -32.5t-51.5 -24
t-57 -16t-53.5 -8.5t-40 -2.5q-18 0 -59.5 -0.5t-91 -1.5t-99.5 -1.5t-86 -0.5h-44v634q0 23 -9 36.5t-23 22t-32 13t-36 8.5z" />
    <glyph glyph-name="FL0024h" unicode="$" horiz-adv-x="796" 
d="M422 826l14 1h42h13v-119h97h24q12 0 30.5 -1t35.5 -2t29.5 -2.5l12.5 -1.5l9 -24q-12 -12 -23.5 -26t-22 -25.5t-20.5 -19t-20 -7.5h-3q-27 19 -68.5 30.5t-83.5 16.5v-207q1 0 2 -0.5t2 -0.5q20 -5 37.5 -8.5t30.5 -8.5q39 -6 76 -14.5t66 -24t46.5 -40.5t17.5 -65
q0 -51 -25 -86t-65 -57.5t-90.5 -34t-101.5 -16.5v-90q0 -6 -20.5 -11t-47 -9.5t-52 -7t-35.5 -2.5v115q-32 0 -69 1t-73.5 2.5t-70.5 4.5t-59 7q-6 1 -16.5 3.5t-9.5 3.5v131q94 -26 146 -36t63 -10q25 0 47.5 -0.5t44.5 -1.5v193l-166 43q-27 10 -50 26t-40 37t-27 46
t-10 54q0 34 20 57t50.5 37.5t67 21.5t68.5 10h91v115zM262 545q0 -39 20 -54t52 -23v177q-34 -12 -53 -38t-19 -62zM550 258q0 38 -17.5 57t-46.5 27v-162q33 4 48.5 20t15.5 58z" />
    <glyph glyph-name="FL0025h" unicode="%" horiz-adv-x="1091" 
d="M744 792l-12 6l-79 25l-362 -823q9 -4 31.5 -13t46.5 -18t43.5 -13.5t21.5 0.5l355 813l-10 6q-8 4 -17.5 8.5t-17.5 8.5zM30 557q0 -53 17 -91.5t47 -63.5t71.5 -37t90.5 -12q57 0 104 14t80.5 43t52 72t18.5 102q0 48 -18 83t-48 57.5t-70 33.5t-84 11
q-54 0 -101.5 -11t-83 -36.5t-56 -66t-20.5 -98.5zM178 579q0 27 2.5 52t12 44t27.5 30.5t49 11.5q32 0 50 -13.5t27 -34.5t11 -48t2 -54q0 -26 -2.5 -53t-11.5 -49.5t-26.5 -37t-47.5 -14.5q-31 0 -49.5 17t-28 42t-12.5 54t-3 53zM580 207q0 -53 17 -91.5t47 -63.5
t71.5 -37t90.5 -12q57 0 104 14t80.5 43t52 72t18.5 102q0 48 -18 83t-48 57.5t-70 33.5t-84 11q-54 0 -101.5 -11t-83 -36.5t-56 -66t-20.5 -98.5zM727 224q0 27 2.5 52.5t12.5 44.5t28.5 30.5t50.5 11.5q33 0 52 -13.5t28 -35t11 -48.5t2 -55q0 -26 -2.5 -53t-12 -49.5
t-28 -37t-49.5 -14.5q-32 0 -50.5 17t-28.5 42t-13 54.5t-3 53.5z" />
    <glyph glyph-name="FL0026h" unicode="&#x26;" horiz-adv-x="897" 
d="M33 470q20 40 49 67.5t73 27.5q25 0 45 -8l263 -23h12l2 186l10 25q-1 0 3.5 4.5t11 11.5t15 14t16.5 12q21 12 41 17t41.5 6t46 0.5t53.5 -0.5l-13 -67q-17 -24 -18.5 -53.5t-0.5 -55.5q-2 -47 3 -99l139 -1q1 0 4.5 -5.5t5.5 -8.5q7 -14 10.5 -20t5.5 -8.5t2.5 -4
t0.5 -6.5q0 -3 3.5 -12t6 -20t2.5 -21t-7 -14l-37 -19q-2 -1 -14 0t-26.5 3t-26 4l-11.5 2h-45q1 -42 2.5 -98t3 -110.5t2.5 -99.5t3 -65q0 -8 -3.5 -11.5t-10.5 -6.5q-13 -6 -35 -8t-45 -2h-27h-30h-27h-17q-10 5 -32.5 11.5t-51.5 14t-61.5 15.5t-61.5 16t-51 16t-31 15
q-59 27 -95.5 60t-58 68.5t-30.5 72t-10.5 69.5t0 61.5t1.5 47.5zM473 411l-251 3q5 -14 5.5 -29.5t0 -31.5t0 -31.5t5.5 -29.5q9 -18 29.5 -35.5t46 -33t52 -29t46.5 -23.5l87 3l-5 231q-12 6 -16 6z" />
    <glyph glyph-name="FL0027h" unicode="'" horiz-adv-x="237" 
d="M196 810l-151 -1q-2 0 -5.5 -4t-4.5 -6q-5 -8 -5 -37q0 -20 1 -45t2.5 -49t2.5 -44t1 -28v-16v-21q30 0 47 -2t36 -2t32 4.5t36 6.5q5 10 8.5 36t6 56.5t3.5 58.5t1 41v32q0 5 -1.5 12.5t-9.5 7.5z" />
    <glyph glyph-name="FL0028h" unicode="(" horiz-adv-x="543" 
d="M485 829l21 -78q-69 0 -116.5 -32.5t-76.5 -82t-41.5 -110t-12.5 -115.5q0 -45 9.5 -90t34 -87t66 -80t105.5 -70l29 -4q5 -1 7.5 -9t0.5 -19t-11.5 -25t-28.5 -27q-89 0 -169 21.5t-140.5 66.5t-96 115t-35.5 166q0 118 37 204.5t104 143.5q34 29 70 48.5t75 32t81 20
t88 11.5z" />
    <glyph glyph-name="FL0029h" unicode=")" horiz-adv-x="543" 
d="M58 829l-21 -78q69 0 116.5 -32.5t76.5 -82t41.5 -110t12.5 -115.5q0 -45 -9.5 -90t-34 -87t-66 -80t-105.5 -70l-29 -4q-5 -1 -7.5 -9t-0.5 -19t11.5 -25t28.5 -27q89 0 169 21.5t140.5 66.5t96 115t35.5 166q0 118 -37 204.5t-104 143.5q-34 29 -70 48.5t-75 32t-81 20
t-88 11.5z" />
    <glyph glyph-name="FL002Ah" unicode="*" horiz-adv-x="531" 
d="M370 464h5l-65 64v-78q0 -2 2 -7t4.5 -11l5 -12t4.5 -9l1 -1l14 -21q-25 1 -36.5 6.5t-27.5 13.5l-1 1q-8 5 -18 10.5t-31 14.5v105l-70 -71l-8 -32v-26q-9 14 -16 30.5t-13 33.5q-7 14 -12 28t-9 20q-1 1 -1 2q0 2 -1 3l63 64h-82l-26 -15l-22 -22q3 18 10 35.5t15 34.5
h1q5 11 8.5 20.5t10.5 26.5q0 3 -7 4h90l-54 54l-32 8q-7 9 7 16.5t32 14.5q16 5 28.5 10.5t20.5 9.5q1 0 3 2l-5 4q9 0 5 -4l63 -63v84l-15 26q-2 1 -7 5t-9.5 8t-7 6.5t0.5 1.5q18 -3 35.5 -9.5t34.5 -14.5v-1q11 -5 20.5 -8.5t27.5 -10.5h1l2 6v-76l34 35q8 0 13 11.5
t10 23.5q1 2 0.5 5t-0.5 2l2 6l5 26q-2 2 -3 2.5t3 -2.5q16 -19 22 -31.5t11 -29.5q2 -9 5.5 -21.5t11.5 -31.5l-62 -63h79q2 0 7 2t11 4.5t11.5 5t8.5 4.5l2 1l21 14q-1 -24 -6.5 -36.5t-13.5 -27.5l-1 -1q-5 -8 -10.5 -18t-14.5 -32h-91l59 -57q1 -2 6 -4.5t11.5 -5.5
t13 -5t9.5 -2l25 -5q-18 -17 -30.5 -22t-29.5 -9q-10 -3 -22.5 -6.5t-27.5 -9.5q-1 0 0.5 -0.5t-0.5 -0.5l-3 -2l2 -1h-9q1 0 2 1z" />
    <glyph glyph-name="FL002Bh" unicode="+" horiz-adv-x="524" 
d="M30 330q0 17 4.5 31t10.5 27t13 26t12 28q2 5 5.5 12.5t4.5 7.5h121v94q-6 4 -7 17t-3 20q0 2 3 14t7 16h4q17 0 29.5 -4.5t24 -10.5t23.5 -13t27 -12q5 -2 12.5 -5.5t7.5 -4.5v-110h89q1 0 8.5 4t11.5 6l25 8h5q10 0 18 -4t8 -15q0 -24 -2.5 -36t-7 -21.5t-12 -21
t-17.5 -33.5q-2 -4 -5.5 -9.5t-4.5 -5.5h-115v-100q0 -1 4 -8.5t6 -11.5l2 -29q0 -10 -4 -18t-15 -8q-24 0 -35 2t-19.5 6.5t-19 12t-32.5 17.5q-4 2 -9.5 5.5t-5.5 4.5v126h-105q-4 -6 -17 -11t-20 -7q-2 0 -14 3t-16 7v4z" />
    <glyph glyph-name="FL002Ch" unicode="," horiz-adv-x="340" 
d="M299 160l-151 -1q-2 0 -5.5 -4t-4.5 -6q-4 -8 -13.5 -29t-21.5 -49t-25 -58t-23.5 -55.5l-17.5 -42.5l-7 -17v-21q30 0 51.5 -0.5t40.5 -0.5t37.5 0.5t41.5 2.5q4 8 14 28.5t22 46.5t25 55t23.5 55t17.5 46.5t7 29.5q0 5 -1.5 12.5t-9.5 7.5z" />
    <glyph glyph-name="FL002Dh" unicode="-" horiz-adv-x="539" 
d="M30 269v-4q4 -4 16 -7t14 -3q3 1 9 5.5t12.5 10t11.5 11t7 8.5l348 1q1 0 4.5 5.5t5.5 9.5q20 45 35.5 85.5t15.5 88.5q0 11 -8 15t-18 4h-5l-30 -20q-4 -2 -11.5 -6t-8.5 -4l-338 -1q-1 0 -4.5 -7.5t-5.5 -12.5q-5 -15 -13.5 -38.5t-16.5 -49t-14 -50t-6 -41.5z" />
    <glyph glyph-name="FL002Eh" unicode="." horiz-adv-x="282" 
d="M241 160l-151 -1q-2 0 -5.5 -4t-4.5 -6q-6 -11 -14.5 -32.5t-16.5 -43t-13.5 -37.5t-5.5 -17v-21q30 0 51.5 -0.5t40.5 -0.5t37.5 0.5t41.5 2.5q7 13 15.5 31.5t16.5 38t13.5 38t5.5 32.5q0 5 -1.5 12.5t-9.5 7.5z" />
    <glyph glyph-name="FL002Fh" unicode="/" horiz-adv-x="619" 
d="M532 798l12 -6q8 -4 17.5 -8.5t17.5 -8.5l10 -6l-365 -810q-2 -3 -15.5 -1.5t-33 6.5t-42.5 11t-44 13t-37 12.5t-22 8.5l379 831z" />
    <glyph glyph-name="O" unicode="0" 
d="M30 406q0 117 41 198t112 131.5t166 73t202 22.5q89 0 169 -22t140.5 -67t96 -115t35.5 -166q0 -117 -37 -204t-104.5 -144.5t-161.5 -85.5t-208 -28q-98 0 -180.5 24t-142.5 74t-94 127t-34 182zM300 445q0 -54 7 -117.5t29.5 -119t65.5 -92.5t114 -37q69 0 110 32
t62.5 82t27.5 109.5t6 115.5q0 60 -4.5 120t-25.5 107t-63.5 76.5t-117.5 29.5q-72 0 -113.5 -25t-63.5 -67.5t-28 -98t-6 -115.5z" />
    <glyph glyph-name="FL0031h" unicode="1" horiz-adv-x="671" 
d="M228 137h1v533l-10 10q-1 0 -14.5 0.5t-21.5 0.5q-18 0 -25 -0.5t-11.5 -2t-11 -3.5t-22.5 -5q-2 0 -9.5 -3t-15.5 -7t-15.5 -7t-9.5 -3q-2 -1 -12.5 -2t-12.5 -1q0 19 5 42t11.5 45t14.5 42t14 34h10q45 0 75.5 -1.5t58 -4t58.5 -4t78 -1.5q39 0 60.5 -12.5t31 -30.5
t11 -37.5t1 -32.5t1 -16.5t11.5 10.5l-10 -50v-23q0 -20 -0.5 -45.5t-0.5 -52.5v-41q0 -85 4 -167.5t6 -167.5l5 -5q1 0 14.5 -0.5t21.5 -0.5q18 0 24.5 2t10 4.5t8.5 6t22 6.5h32q2 1 12.5 2t12.5 1q0 -40 -7.5 -77t-19.5 -66h-10q-50 0 -86.5 1t-69 2t-66 1.5t-78 0
t-104 -3t-144.5 -7.5l-26 21l72 105q16 0 31 0.5t30 2.5q6 1 17 2t21.5 2.5t18.5 2.5z" />
    <glyph glyph-name="FL0032h" unicode="2" horiz-adv-x="800" 
d="M390 358l215 78q27 14 50 34.5t40 47.5t27 59t10 69q0 45 -20 74.5t-51 47.5t-67 27t-69 14h-37q-26 0 -40.5 1t-40.5 1h-86h-84h-25q-12 0 -30.5 -1.5t-35.5 -3t-29.5 -3t-12.5 -2.5l-9 -30q12 -17 23.5 -35t23 -33t22.5 -24.5t20 -7.5v-1q26 24 61 38t67.5 21.5
t57.5 9.5t31 2q63 0 85 -38t22 -104q0 -27 -1.5 -44t-7 -27.5t-16 -17t-28.5 -12.5q-32 -9 -63 -16t-59.5 -13t-52.5 -13t-41 -16q-39 -8 -76 -18.5t-66.5 -30.5t-47 -52.5t-17.5 -83.5l-2 -250h705q3 0 9 3.5t11.5 8t10 8.5l4.5 4l-1 167q-94 -34 -146.5 -46t-63.5 -12
q-35 0 -80 -1t-89.5 -1.5t-81.5 -1.5t-55 -1l-4 97q0 40 12 63.5t31.5 36t45 18t52.5 10.5z" />
    <glyph glyph-name="FL0033h" unicode="3" horiz-adv-x="812" 
d="M782 15q0 -1 -0.5 -3l-0.5 -2q-2 -2 -5.5 -6t-4.5 -4h-510q-32 0 -72 10.5t-75 31t-59.5 50.5t-24.5 69q54 0 105.5 -6t105.5 -6q30 0 62 -0.5t64 1t63.5 6t60.5 14.5q-31 34 -65.5 64.5t-69.5 60.5t-69.5 60.5t-65.5 64.5q-1 1 -1.5 4.5t-0.5 5.5q0 5 16 21t41 38
t55.5 48.5t60 52t54.5 48.5t39 39q-3 1 -13 3t-21.5 3.5t-22 2.5t-13.5 1l-30 3t-46 4t-54 4.5t-54 4.5t-46.5 3t-29.5 1q-18 16 -42.5 40.5t-37.5 49.5l-0.5 2t-0.5 3t0.5 3l0.5 2q1 2 4.5 5.5t5.5 4.5q6 -1 20 -3t30 -3.5t30 -2.5t20 -1q17 0 53 -0.5t82 -0.5h95h96
q45 0 81 0.5t53 0.5q4 -3 15.5 -14.5t14.5 -15.5l22.5 -27.5t26.5 -32.5t22 -27.5t9 -12.5v-20l-308 -331l254 -176q3 -2 10.5 -10t9.5 -10q4 -6 12.5 -21.5t18 -33t18 -33.5t11.5 -22q0 -1 0.5 -2.5t0.5 -2.5z" />
    <glyph glyph-name="FL0034h" unicode="4" horiz-adv-x="885" 
d="M30 320q20 -41 49 -69.5t73 -28.5q23 0 44 7l293 23h12l-13 -160l10 -27q-1 0 8 -4.5t22 -10.5t26 -13t21 -12q45 -21 93 -33.5t99 -25.5q9 0 13 4.5t6 10.5q1 2 2 5l1 3q0 1 -4 6t-9 11t-9 11.5t-5 7.5q-13 26 -20.5 61.5t-6.5 62.5q-1 49 3 103l81 1q1 0 4.5 5.5
t5.5 9.5q7 15 10.5 21t5.5 8.5t2.5 4t0.5 6.5q0 3 2 9.5t3.5 14t0 14.5t-8.5 11l-37 20q-4 2 -11.5 -4t-8.5 -6h-45q1 29 3 67t4.5 79.5t5 83.5t5 78t4.5 64l3 42q0 8 -3.5 12t-10.5 7q-12 6 -34 8t-45 2t-43 -1.5t-30 -2.5q-15 -8 -28.5 -21t-27 -27.5t-26.5 -29t-26 -25.5
q-46 -36 -83.5 -70.5t-71.5 -68.5t-67 -66t-69.5 -63t-78.5 -59.5t-94 -55.5zM502 369l-187 -1l229 217l-27 -209q-10 -7 -15 -7z" />
    <glyph glyph-name="FL0035h" unicode="5" horiz-adv-x="798" 
d="M405 363l-200 77q-27 14 -50 29.5t-40.5 36t-27.5 47.5t-10 64v194h316h86h50h25q12 0 30.5 -1.5t35.5 -3t29.5 -3t12.5 -2.5l9 -30q-12 -17 -23.5 -35t-23 -33t-22.5 -24.5t-20 -7.5v-1q-26 24 -55.5 36.5t-56 18t-46 6t-25.5 0.5l-127 -1l1 -130q0 -27 4.5 -44
t13.5 -28t22.5 -17.5t31.5 -12.5q31 -9 61 -13.5t56.5 -8.5t49 -8.5t39.5 -13.5q39 -8 78 -21t69.5 -35.5t50 -57t19.5 -85.5q0 -57 -19 -98t-50.5 -69.5t-72.5 -46t-85.5 -27t-89.5 -12.5t-83 -3q-32 0 -73.5 1t-84.5 3t-83 6t-70 10q-6 1 -16.5 5t-10.5 5l1 167
q94 -34 146.5 -46t63.5 -12q84 0 143 -5.5t96 -2t54 24.5t17 75q0 41 -12.5 65t-33.5 37.5t-47 19.5t-53 11z" />
    <glyph glyph-name="FL0036h" unicode="6" horiz-adv-x="824" 
d="M394 689l19 7q23 7 46.5 4.5t56 -9t80 -14.5t118.5 -12l11 146h-251q-69 0 -142.5 -19t-136 -61t-107.5 -109t-58 -163q0 -117 37 -204t98 -157q62 -69 187 -98q37 -4 57.5 -7t33 -4.5t21 -2t21.5 -0.5q14 0 36.5 1t62.5 2q72 13 112 29t59.5 34.5t25 39.5t8.5 44
q6 45 2 89.5t-30 98.5q2 0 2 2q0 4 -7 13.5t-18 22.5t-25.5 27.5t-30.5 28.5q-11 9 -34 19.5t-69.5 19.5t-123.5 14.5t-197 5.5q0 43 9.5 74t27 55t42.5 43.5t57 39.5zM634 254q10 -38 9.5 -56t-7 -29t-15 -22t-12.5 -36l-114 -7q-53 -1 -94 18t-70.5 51t-47 73.5
t-22.5 85.5h77h53h53h78q27 -6 43.5 -13t27.5 -16t20 -21z" />
    <glyph glyph-name="FL0037h" unicode="7" horiz-adv-x="838" 
d="M30 20l448 659q2 2 5.5 10t4.5 10q0 2 -1 3.5t-1 2.5q-42 0 -97 5.5t-110.5 3.5t-106 -17.5t-84.5 -57.5h-34q0 15 7.5 43.5t16.5 56.5t18 49t12 21h700v-30l-545 -787l-223 8z" />
    <glyph glyph-name="FL0038h" unicode="8" horiz-adv-x="882" 
d="M852 17q0 -1 -0.5 -3l-0.5 -2q-2 -2 -5.5 -6t-4.5 -4l-322 -3q-3 -1 -8 -1h-8l-462 -1q-1 0 -4.5 4t-5.5 6l-0.5 2t-0.5 3t0.5 2.5t0.5 2.5q7 11 15 35t29.5 73.5t62.5 131.5t114 208l-180 192v20q0 1 9 12.5t21 27.5t25 32.5t22 27.5q3 4 14 15.5t15 14.5h14
q7 0 15.5 -0.5t21.5 -0.5h34h132q11 0 22.5 0.5t25.5 0.5h183q22 0 35.5 -0.5t22.5 -0.5t16 -0.5t15 -0.5q4 -3 15 -14.5t14 -15.5q9 -11 22 -27.5t25 -32.5t21 -27.5t9 -12.5v-20l-184 -185l214 -448q0 -1 0.5 -2.5t0.5 -2.5zM443 377q-24 -16 -43 -38.5t-35 -48.5
t-30 -53.5t-29 -53.5q27 -10 61 -14t70 -4t71.5 4.5t65.5 12.5q-15 25 -28 53t-27.5 54.5t-32.5 49.5t-43 38zM609 678l-172 11q-3 0 -26.5 -1.5t-51 -3.5t-50.5 -4t-26 -3q11 -12 29.5 -29.5t40 -37t45.5 -40t47 -40.5q23 20 47.5 41.5t46.5 41t40.5 36.5t29.5 29z" />
    <glyph glyph-name="FL0039h" unicode="9" horiz-adv-x="781" 
d="M463 286q-63 6 -122.5 18t-119.5 42q-34 16 -68 49t-61.5 75t-44.5 88t-17 89q0 45 22.5 74.5t57 47.5t75 27t76.5 14h41q29 0 61.5 0.5t61.5 0.5h95q33 0 65.5 -0.5t57.5 -0.5h28q13 0 25.5 -2t22.5 -4t16 -4t6 -3l10 -30q-16 -21 -25.5 -32.5t-15 -20t-7.5 -18
t-2 -26.5v-650q0 -1 -11.5 -5t-18.5 -5q-33 -6 -54 -7.5t-39.5 -1t-41 2t-58.5 1.5h-8zM461 740q-3 0 -14.5 0.5t-15.5 0.5q-69 0 -110 -37.5t-41 -103.5q0 -41 14.5 -80t39.5 -69.5t58 -50t69 -22.5v362z" />
    <glyph glyph-name="FL003Ah" unicode=":" horiz-adv-x="251" 
d="M210 160l-151 -1q-2 0 -5.5 -4t-4.5 -6q-5 -8 -8 -22t-5 -29.5t-2.5 -31t-0.5 -26.5v-16v-21q30 0 51.5 -0.5t40.5 -0.5t37.5 0.5t41.5 2.5q11 20 14 48.5t3 54.5v32q0 5 -1.5 12.5t-9.5 7.5zM207 504l-151 -1q-2 0 -5.5 -4t-4.5 -6q-5 -8 -8 -22t-5 -29.5t-2.5 -31
t-0.5 -26.5v-16v-21q30 0 51.5 -0.5t40.5 -0.5t37.5 0.5t41.5 2.5q11 20 14 48.5t3 54.5v32q0 5 -1.5 12.5t-9.5 7.5z" />
    <glyph glyph-name="FL003Bh" unicode=";" horiz-adv-x="307" 
d="M112 503l151 1q8 0 9.5 -7.5t1.5 -12.5v-32q0 -26 -3 -54.5t-14 -48.5q-23 -2 -41.5 -2.5t-37.5 -0.5t-40.5 0.5t-51.5 0.5v21v16q0 11 0.5 26.5t2.5 31t5 29.5t8 22q1 2 4.5 6t5.5 4zM266 161q8 0 9.5 -7.5t1.5 -12.5q0 -9 -4.5 -29t-11.5 -45t-16 -53t-17.5 -53
t-15.5 -44.5t-11 -28.5q-23 -2 -41.5 -2.5t-37.5 -0.5t-40.5 0.5t-51.5 0.5v21l4.5 16.5t11.5 41t15.5 53.5t17 56t15.5 47.5t11 28.5q1 2 4.5 6t5.5 4z" />
    <glyph glyph-name="FL003Ch" unicode="&#x3c;" horiz-adv-x="631" 
d="M280 76l-250 300l158 168l282 292l2 0.5t3 0.5t3 -0.5l2 -0.5q5 -3 12.5 -10.5t7.5 -9.5v-170l-222 -233l232 -327l90 -90l0.5 -1.5t0.5 -2.5q0 -2 -0.5 -4l-0.5 -2q-2 -3 -5 -10.5t-5 -9.5h-4q-29 0 -60 3.5t-62 9.5t-60.5 15.5t-53.5 21.5q-21 11 -38 27t-32 33z" />
    <glyph glyph-name="FL003Dh" unicode="=" horiz-adv-x="534" 
d="M32 382q0 17 5 33.5t11.5 33t14 32t12.5 30.5q2 5 5.5 12.5t4.5 7.5l338 1q1 0 8.5 4t11.5 6l30 20h5q10 0 18 -4t8 -15q0 -24 -3 -38t-9 -26t-14 -25t-18 -35q-2 -4 -5.5 -9.5t-4.5 -5.5l-348 -1q-2 -3 -7 -8.5t-11.5 -11t-12.5 -10t-9 -5.5q-2 0 -14 3t-16 7v4zM30 170
q0 17 5 33.5t11.5 33t14 32t12.5 30.5q2 5 5.5 12.5t4.5 7.5l338 1q1 0 8.5 4t11.5 6l30 20h5q10 0 18 -4t8 -15q0 -24 -3 -38t-9 -26t-14 -25t-18 -35q-2 -4 -5.5 -9.5t-4.5 -5.5l-348 -1q-2 -3 -7 -8.5t-11.5 -11t-12.5 -10t-9 -5.5q-2 0 -14 3t-16 7v4z" />
    <glyph glyph-name="FL003Eh" unicode="&#x3e;" horiz-adv-x="631" 
d="M351 76l250 300l-158 168l-282 292l-2 0.5t-3 0.5t-3 -0.5l-2 -0.5q-5 -3 -12.5 -10.5t-7.5 -9.5v-170l222 -233l-232 -327l-90 -90l-0.5 -1.5t-0.5 -2.5q0 -2 0.5 -4l0.5 -2q2 -3 5 -10.5t5 -9.5h4q28 0 59.5 3.5t62.5 9.5t60.5 15.5t53.5 21.5q21 11 38 27t32 33z" />
    <glyph glyph-name="FL003Fh" unicode="?" horiz-adv-x="705" 
d="M306 486l-147 -84q-27 -14 -41 -25t-21 -26t-8 -37.5t-1 -58.5l183 -3q15 11 6 29q-9 19 2 30t26 17.5t33 12.5q29 23 65.5 34.5t74 19t73 15.5t63 24.5t44.5 45.5t17 79q0 85 -26.5 135.5t-69.5 76t-98 33t-113 7.5q-32 0 -73.5 -1t-84.5 -3t-83 -6t-70 -10
q-6 -1 -16.5 -5t-10.5 -5l1 -167q94 34 146.5 46t63.5 12q25 0 55 2t59 3t54 -2t40.5 -12.5t19 -28.5t-10.5 -50q-13 -29 -37 -46.5t-48.5 -27.5t-43.5 -15t-23 -9zM271 155l-163 2q-2 0 -5.5 -4t-4.5 -6q-5 -8 -8 -22t-5 -29.5t-2.5 -31t-0.5 -26.5v-16v-21q30 0 51.5 -0.5
t40.5 -0.5t43.5 -1t47.5 1q11 20 14 48.5t3 54.5v32q0 5 -1.5 12.5t-9.5 7.5z" />
    <glyph glyph-name="FL0040h" unicode="@" horiz-adv-x="879" 
d="M269 272v-17q0 -1 4.5 -3.5t10.5 -5t12.5 -4.5t10.5 -2h4q2 0 3.5 -0.5t3.5 -0.5h12h8q3 0 11 1l9 9l42 58q7 13 29.5 11.5t51.5 0.5q5 0 9 0.5t8 0.5l25 2q10 0 22.5 -14t17.5 -35q5 -17 9 -29t15 -12h149q7 0 13 9l3 6q2 -4 13 20t25.5 65.5t29 94t22.5 106t6.5 101
t-19.5 78.5q-5 8 -24.5 26.5t-53 38t-79.5 35t-103 18.5l-84 -1q-46 -4 -88 -11.5t-81 -20t-75 -32t-70 -48.5q-67 -57 -104 -143.5t-37 -204.5q0 -96 35.5 -166t96 -115t140.5 -66.5t169 -21.5h211l1 117q-76 -3 -117.5 -7t-66.5 -7t-42.5 -2.5t-45.5 6.5l-19 7q2 -2 6 -3
t9 -3l-15 6q-33 21 -69 46.5t-66.5 56.5t-50 69t-19.5 83q0 37 2.5 76.5t10 77t21 71.5t36.5 59t56.5 40t79.5 15l98 4q18 -2 43.5 -3t52 -5t51.5 -12t42 -24q27 -32 34 -76t2 -90.5t-17 -90t-22 -73.5l-142 277v-1q-3 11 -17 11q-12 0 -24.5 -4.5t-21.5 -9.5
q-23 -11 -42 -23.5t-24 -30.5h1q-2 -7 -4 -12t-5 -13l-39 -76v1q-15 -28 -24 -51.5t-17.5 -45t-19.5 -43t-29 -45.5zM398 390l61 79l36 -82z" />
    <glyph glyph-name="FL0041h" unicode="A" horiz-adv-x="1051" 
d="M30 32q78 103 143.5 215.5t126.5 224.5q3 6 13.5 27.5t23.5 47t25 49.5l18 36q12 26 18.5 50t15.5 44.5t23.5 37t42.5 28.5q8 4 19.5 9.5t24 10t25 8t22.5 3.5q7 0 11 -1.5t8 -9.5l290 -620q19 -39 47 -80t63 -70q7 -5 19 -9t12 -16q0 -1 -0.5 -3l-0.5 -2q-2 -2 -5 -6
t-5 -4h-310q-7 0 -14 17t-14 42t-15.5 54.5t-19.5 54.5t-24.5 41t-31.5 15l-52 -3q-29 -2 -71 -4.5t-82.5 -8.5t-73 -17.5t-42.5 -30.5l-80 -160l-10 -10q-1 0 -13.5 -0.5t-18.5 -0.5h-12q-7 0 -15 0.5t-14 0.5h-7q-7 0 -17 1.5t-19.5 3t-16.5 3t-7 2.5v30zM339 337
q0 -1 0.5 -3l0.5 -2q1 -2 5 -6t5 -4h204l-94 220l-13 13l-107 -213l-0.5 -2t-0.5 -3z" />
    <glyph glyph-name="FL0042h" unicode="B" horiz-adv-x="871" 
d="M30 770l10 30q0 1 14 2.5t33 3t39.5 3t33.5 1.5h28q25 0 57.5 0.5t65.5 0.5h54h41q29 0 61.5 -0.5t61.5 -0.5h41q36 -5 76.5 -14t75 -27t57 -47.5t22.5 -74.5q0 -43 -17 -73t-44.5 -52t-61.5 -39t-68 -33v-10q44 -8 85.5 -18.5t74 -30.5t52 -52.5t19.5 -83.5
q0 -57 -21 -98t-56.5 -69.5t-81 -46t-95 -27t-99 -12.5t-92.5 -3q-36 0 -65 -0.5t-56 0t-54.5 3t-60.5 8.5q-7 1 -18.5 5t-11.5 5v650q0 25 -8.5 41t-22 26.5t-32 18t-37.5 14.5zM370 394v-274q0 -16 12 -26t28 -15.5t33 -7.5t27 -2q33 0 57.5 13.5t40.5 36t24 51.5t8 60
q0 54 -19.5 86t-52 49.5t-74 23t-84.5 5.5zM370 740v-280q36 3 69 10t58 22t39.5 41t14.5 67q0 66 -41 103.5t-110 37.5q-4 0 -15.5 -0.5t-14.5 -0.5z" />
    <glyph glyph-name="FL0043h" unicode="C" horiz-adv-x="890" 
d="M591 752l-85 -1q-46 0 -79.5 -15t-56.5 -40t-36.5 -59t-21 -71.5t-10 -77t-2.5 -76.5q0 -45 2 -89.5t11 -84t27.5 -71.5t51.5 -53l19 -7q56 -12 160 -4t256 14l-1 -117h-355q-89 0 -169 21.5t-140.5 66.5t-96 115t-35.5 166q0 118 37 204.5t104 143.5q34 29 70 48.5
t75 32t81 20t88 11.5h341q16 -17 25 -31t9 -31q0 -16 -10 -38.5t-32 -56.5l-89 -8zM411 107q-7 2 -12 3.5t-7 3.5z" />
    <glyph glyph-name="FL0044h" unicode="D" horiz-adv-x="987" 
d="M71 0h445q89 0 169 21.5t140.5 66.5t96 115t35.5 166q0 117 -38.5 195.5t-106.5 135.5q-33 29 -69 48.5t-75 32t-81.5 20t-87.5 11.5h-431q-16 -17 -26 -26.5t-11.5 -20.5t8 -29t32.5 -52v-684zM303 735l175 -1q69 0 110.5 -29.5t63.5 -76t28.5 -104t6.5 -112.5
q0 -45 -2 -90.5t-11.5 -86t-28.5 -73.5t-52 -54q-52 -28 -62 -30h-19q20 1 -31.5 0.5t-177.5 -1.5v658z" />
    <glyph glyph-name="three" unicode="E" horiz-adv-x="812" 
d="M30 15q0 -1 0.5 -3l0.5 -2q2 -2 5.5 -6t4.5 -4h510q31 0 71.5 10.5t75.5 31t59.5 50.5t24.5 69q-54 0 -105.5 -6t-105.5 -6q-30 0 -62 -0.5t-64 1t-63.5 6t-60.5 14.5q31 34 65.5 64.5t69.5 60.5t69.5 60.5t65.5 64.5q1 1 1.5 4.5t0.5 5.5q0 5 -16 21t-41 38t-55.5 48.5
t-60 52t-54.5 48.5t-39 39q3 1 13 3t21.5 3.5t22 2.5t13.5 1q9 1 29.5 3t46.5 4t54 4.5t54 4.5t46 3t30 1q18 16 42.5 40.5t37.5 49.5l0.5 2t0.5 3t-0.5 3l-0.5 2q-1 2 -4.5 5.5t-5.5 4.5q-6 -1 -20 -3t-30 -3.5t-30 -2.5t-20 -1q-17 0 -53 -0.5t-82 -0.5h-95h-96
q-45 0 -81 0.5t-53 0.5q-4 -3 -15.5 -14.5t-14.5 -15.5l-22.5 -27.5t-26.5 -32.5t-22 -27.5t-9 -12.5v-20l308 -331l-254 -176q-3 -2 -10.5 -10t-9.5 -10q-4 -6 -12.5 -21.5t-18 -33t-18 -33.5t-11.5 -22q0 -1 -0.5 -2.5t-0.5 -2.5z" />
    <glyph glyph-name="FL0046h" unicode="F" horiz-adv-x="761" 
d="M31 710q18 -4 36 -8.5t32 -13t23 -22.5t9 -36v-634l241 4l-1 350l230 30q2 0 10 4t10 6q7 5 17 15t19.5 20t16.5 17.5l7 7.5v30h-310v210l10 10q1 1 19.5 3.5t44 5.5t52.5 6t44 5h6q6 0 13 0.5t13 0.5h10q6 0 17 -0.5l11 -0.5l100 -100l20 20v171q-77 0 -150 -2.5
l-146 -5t-148 -4t-156 0.5q-5 -3 -16.5 -10t-24.5 -15t-24 -15t-15 -10q-12 -8 -16.5 -13.5t-4.5 -16.5q0 -2 0.5 -5.5t0.5 -4.5z" />
    <glyph glyph-name="FL0047h" unicode="G" horiz-adv-x="930" 
d="M590 423v-130l106 14q10 -39 13 -70t1.5 -58t-6 -51.5t-8.5 -49.5l-190 -1q-69 0 -110 32t-62.5 82t-27.5 109.5t-6 115.5q0 45 2.5 88t12.5 80t29 67.5t52 51.5l19 7q90 28 375 13l-1 88h-315q-69 0 -142.5 -19t-136 -61t-107.5 -109t-58 -163q0 -117 37 -204t98 -157
q62 -69 187 -98l474 -1q13 15 20 52t7 85t-7 98t-21 90q2 1 9.5 2.5t15.5 3t14.5 2.5t7.5 2q7 6 12 15.5t8.5 19t5.5 17l2 7.5v30h-310z" />
    <glyph glyph-name="FL0048h" unicode="H" horiz-adv-x="1043" 
d="M112 10l20 -20q48 13 103.5 25t106.5 15l10 10v316l385 35v-391q0 -2 10 -6t15 -4q1 0 6 1t11.5 2.5t13 3.5t9.5 3l30 10l45 15t45.5 15t29.5 10q9 4 20 21.5t20 38.5t15 41t5 29q0 1 -4.5 5.5t-10 9.5t-10 9t-5.5 6q-2 3 -3.5 10t-3 15t-2.5 15t-1 10v35q0 25 -0.5 52.5
t-0.5 52.5v35q0 88 5.5 175.5t5.5 175.5q0 11 -9 18t-20 7q-2 0 -6 -0.5t-5 -0.5q-10 -2 -35.5 -6t-54.5 -9t-54.5 -9t-35.5 -6q-1 0 -7.5 -3t-14.5 -8t-8 -9v-270l-10 -10q-1 -1 -14 -2.5t-30.5 -3t-35.5 -3t-30 -1.5h-8q-7 0 -15.5 -0.5t-17.5 -0.5h-14q-17 0 -48.5 -1
t-64 1t-59 9t-33.5 22v13q0 9 -0.5 19.5t-0.5 19.5v13q0 31 3.5 62t8 61.5t8 61.5t3.5 61h-12q-9 0 -19 -0.5t-19 -0.5h-12q-15 0 -54 -1t-82 -2.5t-81 -3.5t-53 -3q-10 -2 -10.5 -11t-0.5 -16q0 -9 12.5 -16t28 -16.5t28 -26t12.5 -44.5v-660z" />
    <glyph glyph-name="FL0049h" unicode="I" horiz-adv-x="807" 
d="M278 128l-7 -1.5t-16.5 -3t-19.5 -3t-17 -2.5q-8 -1 -21 -3t-27.5 -3.5t-28 -3t-21.5 -1.5l-90 -90v-20q127 7 223 8t175 -1t148.5 -4.5t144.5 -2.5h10q6 14 14 34t14.5 42t11.5 44.5t5 42.5q-2 0 -12.5 -1t-12.5 -2q-2 0 -9.5 -3t-15.5 -7t-15.5 -7t-9.5 -3
q-33 -6 -61.5 -8t-65.5 -2q-8 0 -21.5 0.5t-14.5 0.5l-5 5q-2 85 -6 167.5t-4 167.5v41q0 27 0.5 52.5t0.5 45.5v23l10 50l7 1.5t16.5 3t19.5 3t17 2.5t20 2.5t26.5 3t26 2.5t20.5 1l90 90v20q-50 0 -93.5 -1.5t-86 -3.5t-86 -3.5t-93.5 -1.5q-47 0 -87.5 1.5t-80 3.5
t-79.5 3.5t-85 1.5h-10q-6 -14 -14 -34t-14.5 -42t-11.5 -45t-5 -42q2 0 12.5 1t12.5 2q2 0 9.5 3t15.5 7t15.5 7t9.5 3q32 6 64 9t68 3q8 0 21.5 -0.5t14.5 -0.5l10 -10l-5 -542h-1z" />
    <glyph glyph-name="FL004Ah" unicode="J" horiz-adv-x="803" 
d="M453 755q-1 2 -1.5 7.5t-0.5 7.5q0 9 3 18.5t19 6.5q13 1 45.5 3t69 3.5t69 2.5t46.5 1h14q10 0 21 0.5t21 0.5h14l-5 -585q0 -1 -1 -2t-2 -3q-7 -48 -29 -82.5t-54 -59t-71.5 -39t-81 -23t-83.5 -11t-78 -2.5q-32 0 -73.5 1t-84.5 3t-83 6t-70 10q-6 1 -16.5 5t-10.5 5
l2 178q46 -17 76.5 -29.5t50 -21t30 -12.5t16.5 -4q57 -6 110.5 -10.5t98.5 -4.5t76 6.5t44 23.5l-1 520q0 37 -24 54.5t-56 25.5z" />
    <glyph glyph-name="FL004Bh" unicode="K" horiz-adv-x="1052" 
d="M702 31q29 -14 63 -22t69 -12.5t70.5 -5.5t67.5 -1q5 0 20 0.5t20 0.5q2 3 5.5 14.5t4.5 15.5v5v5q-2 3 -5 10.5t-5 9.5l-1.5 0.5t-3.5 0.5q-1 0 -3 -0.5l-2 -0.5q-2 -1 -5.5 -4.5t-4.5 -5.5q-7 6 -23 21.5t-33 32.5t-32.5 33t-21.5 23q-11 13 -33 40t-50 61t-58.5 72
t-58 72.5t-49 62.5t-31.5 42q-3 2 -7 9.5t-3 10.5q4 21 30 48.5t63 56.5t79.5 57t78 50t59 36.5t23.5 16.5q0 18 -11 21.5t-32 3.5h-220q-8 -31 -25.5 -63.5t-38.5 -63t-41.5 -57t-34.5 -46.5q-15 -22 -32.5 -42.5t-38 -37t-44.5 -26.5t-52 -10q0 45 -1.5 87t-1 83t4.5 82
t15 84v5q0 11 -7 13t-15 2h-18q-16 0 -55.5 -1t-84.5 -2.5t-84.5 -3.5t-55.5 -3q-15 3 -18.5 -7t-3.5 -19q0 -11 13 -17.5t28 -16t28 -25.5t13 -45v-670q0 -8 7 -9.5t12 -1.5q2 0 6 0.5t5 0.5q22 4 56 10.5t66 13t55 11.5l23 5l10 10v340h40q7 -10 22.5 -30t35 -44.5t41 -52
t41.5 -52t36 -43.5t24 -28q6 -7 21.5 -23t32.5 -33t33 -32.5t23 -21.5z" />
    <glyph glyph-name="FL004Ch" unicode="L" horiz-adv-x="792" 
d="M94 773q0 15 9.5 25t24.5 15.5t35 7.5t41 2q79 0 124.5 -2.5t68 -7.5t26 -11t-1 -12.5t-12.5 -14t-9 -13.5l-20 -140v-510l10 -10l20 -2.5t47 -6t55.5 -7t47.5 -4.5q2 0 10.5 -0.5t12.5 -0.5q24 0 39.5 20.5t29 45t28 45t35.5 20.5q13 0 21.5 -13.5t14 -34.5t7.5 -47
t3 -50.5t0.5 -45t-0.5 -30.5q-75 0 -149.5 6t-149.5 6h-82q-28 0 -54 -0.5t-53.5 -2t-57.5 -3.5t-65 -5q-32 13 -65.5 32.5t-54.5 47.5q7 14 18 21t23 11.5t24.5 7.5t22.5 9.5t16 18t6 32.5v527q-5 4 -12.5 14t-15 21.5t-13 22.5t-5.5 16z" />
    <glyph glyph-name="FL004Dh" unicode="M" horiz-adv-x="1251" 
d="M728 777q33 -3 70 -6.5t74.5 -10.5t72.5 -19.5t63 -33.5q31 -23 49.5 -62t29.5 -87.5t17 -103.5t10.5 -109.5t10 -106t16.5 -92.5t30 -69t50 -36v-5v-5q-1 -2 -4.5 -10t-5.5 -10q-45 -6 -75 -8.5t-62 -2.5h-48h-13q-9 0 -19.5 0.5t-19.5 0.5h-13q-23 17 -36 54.5
t-20.5 87t-11 108.5t-7.5 118t-9.5 115t-17 101t-31 75t-50.5 37q-3 1 -9.5 0t-14 -2t-14 -2t-9.5 -1v-83v-106v-281v-105v-83v-14q0 -8 -10 -9t-37 -3l-28 -2t-30 -2q-30 -1 -57.5 -2t-37.5 -1q-5 0 -20 -0.5t-20 -0.5l7 692q-41 0 -70 -37t-49 -95t-32.5 -128.5
t-20.5 -138.5t-13.5 -125t-11.5 -87q-17 -25 -48.5 -39t-68 -21t-72.5 -8.5t-62 -1.5q-20 0 -20 21q0 9 7.5 14.5t17.5 10.5t20.5 10.5t15.5 13.5q2 6 10 20t10 20q1 4 6 38t11.5 82t14.5 103.5t15 104t12.5 81.5t7.5 37q20 55 53 92t74.5 60.5t90.5 36.5t102 21l-6 40
l10 10q28 2 55.5 7.5t54.5 11.5t54.5 10.5t55.5 4.5z" />
    <glyph glyph-name="N" unicode="N" horiz-adv-x="1096" 
d="M130 171q0 11 1 20.5t10 18.5v450q0 20 -17.5 31.5t-38 18.5t-38 12t-17.5 13q0 12 13.5 26t32 26t37 20t28.5 8l150 -2h775q0 -17 -6.5 -27t-15.5 -17.5t-20.5 -15t-20.5 -19t-15.5 -29t-6.5 -45.5v-470q0 -36 7 -65.5t13 -64.5v-6v-4q-1 -2 -4.5 -6t-5.5 -4l-230 -40
l-15 10v708q-5 0 -15.5 0.5t-23.5 0.5t-27.5 0.5t-26.5 0.5h-22q-13 0 -41.5 -1t-58.5 -2.5t-56 -3.5t-34 -3t-21 -2t-24 -5.5t-16.5 -14.5t1.5 -28v-45q0 -32 -0.5 -67.5t-0.5 -67.5v-45q0 -97 5.5 -190.5t5.5 -190.5q0 -9 -11.5 -16.5t-29 -13.5t-39 -11t-41.5 -8
t-36 -4.5t-23 -1.5q-21 0 -36.5 20.5t-25.5 48.5t-14.5 57t-4.5 46z" />
    <glyph glyph-name="zero" unicode="O" 
d="M30 398q0 -105 34 -180.5t94.5 -124t143 -71.5t180.5 -23q114 0 208 27t161 82.5t104 141.5t37 203q0 96 -35.5 166t-96 115t-140.5 67t-169 22q-107 0 -202 -22.5t-166 -73t-112 -131.5t-41 -198zM300 432v24q0 17 0.5 36t0.5 36v24q9 45 25 80.5t41.5 60t61 37.5
t82.5 13q66 0 109 -28t67.5 -72.5t34 -101t9.5 -113.5q0 -56 -7 -117.5t-29.5 -113t-65 -85t-112.5 -33.5q-72 0 -115 35t-65.5 88t-29.5 114.5t-7 115.5zM661 502l-250 -10q-2 0 -5.5 -4t-4.5 -6q-6 -11 -14.5 -29.5t-16.5 -36t-13.5 -30.5t-5.5 -14v-21q30 0 67 1
t74.5 2.5t71.5 3.5t57 4q7 13 15.5 28t16.5 31t13.5 31.5t5.5 29.5q0 5 -1.5 12.5t-9.5 7.5z" />
    <glyph glyph-name="FL0050h" unicode="P" horiz-adv-x="831" 
d="M368 286l-7 -281h-8q-36 0 -58.5 -1.5t-41 -2t-39.5 1t-54 7.5q-7 1 -18.5 5t-11.5 5v650q0 25 -8.5 41t-22 26.5t-32 18t-37.5 14.5l10 30q0 1 14 2.5t33 3t39.5 3t33.5 1.5h28q25 0 57.5 0.5t65.5 0.5h95q29 0 61.5 -0.5t61.5 -0.5h41q36 -5 76.5 -14t75 -27t57 -47.5
t22.5 -74.5q0 -43 -17 -89t-44.5 -88t-61.5 -75t-68 -49q-60 -30 -119.5 -42t-122.5 -18zM370 740v-362q36 3 69 22.5t58 50t39.5 69.5t14.5 80q0 66 -41 103.5t-110 37.5q-4 0 -15.5 -0.5t-14.5 -0.5z" />
    <glyph glyph-name="FL0051h" unicode="Q" horiz-adv-x="1222" 
d="M511 0q6 -22 7.5 -52.5t3 -62.5t5.5 -63.5t14.5 -56t30.5 -40t54 -15.5h5q5 3 12.5 10.5t7.5 9.5l50 260q1 4 37.5 12.5t91 27t118 50.5t118 82t90.5 122t36 171q0 61 -18.5 113t-51.5 94.5t-79.5 74.5t-101.5 53q-2 1 -19 2.5t-41 4t-52 5t-51.5 4.5t-39.5 3.5l-16 1.5
l-211 -11q-56 -12 -113 -26t-110.5 -34t-100.5 -47.5t-82 -66t-55 -90t-20 -119.5q0 -119 36.5 -197t101 -125t152.5 -68.5t191 -26.5zM270 441q0 43 12 92t37.5 91t64.5 69.5t93 27.5q9 0 21.5 -3t12.5 -18v-592q-66 0 -112 32t-74.5 81t-41.5 107.5t-13 112.5zM721 710
q2 0 7.5 0.5t7.5 0.5q53 0 96.5 -31t74 -77t47.5 -99.5t17 -98.5q0 -60 -17.5 -114.5t-50.5 -95t-81.5 -64.5t-110.5 -24v53q0 21 0.5 64t2 97.5t2.5 114.5t2.5 114t2 97t0.5 63z" />
    <glyph glyph-name="FL0052h" unicode="R" horiz-adv-x="869" 
d="M370 394l-9 -389h-8q-36 0 -58.5 -1.5t-41 -2t-39.5 1t-54 7.5q-7 1 -18.5 5t-11.5 5v650q0 25 -8.5 41t-22 26.5t-32 18t-37.5 14.5l10 30q0 1 14 2.5t33 3t39.5 3t33.5 1.5h28q25 0 57.5 0.5t65.5 0.5h95q29 0 61.5 -0.5t61.5 -0.5h41q36 -5 76.5 -14t75 -27t57 -47.5
t22.5 -74.5q0 -43 -17 -73t-44.5 -52t-61.5 -39t-68 -33v-10q43 -8 84.5 -43t73.5 -83.5t51.5 -105.5t19.5 -108q0 -41 -5 -61.5t-15 -28.5t-25.5 -6.5t-36.5 6t-47 8t-58 -0.5l-52 213q-13 52 -34 84t-50 50t-65.5 24t-80.5 6zM370 740v-280q36 3 69 10t58 22t39.5 41
t14.5 67q0 66 -41 103.5t-110 37.5q-4 0 -15.5 -0.5t-14.5 -0.5z" />
    <glyph glyph-name="FL0053h" unicode="S" horiz-adv-x="874" 
d="M844 20l-448 659q-2 2 -5.5 10t-4.5 10q0 2 1 3.5t1 2.5q42 0 97 5.5t110.5 3.5t106 -17.5t84.5 -57.5h34q0 15 -7.5 43.5t-16.5 56.5t-18 49t-12 21h-700v-30l418 -639q-11 -5 -26.5 -8.5t-31 -6t-29.5 -4t-23 -1.5q-16 0 -53.5 -0.5t-82.5 -1.5t-90.5 -1.5t-77.5 -0.5
h-40q0 -27 23 -48.5t55.5 -36.5t67 -23t58.5 -8h600z" />
    <glyph glyph-name="FL0054h" unicode="T" horiz-adv-x="875" 
d="M309 12l6 658l-10 10q-1 0 -14.5 0.5t-21.5 0.5q-18 0 -40 -0.5t-44 -2t-43 -3.5t-37 -5q-2 0 -9.5 -3t-15.5 -7t-15.5 -7t-9.5 -3q-2 -1 -12.5 -2t-12.5 -1q0 19 5 42t11.5 45t14.5 42t14 34h10h359h401v-20l-73 -109q-8 0 -29 2t-45 4t-45 3t-28 0t-17 -2.5t-19.5 -3
t-16.5 -3l-7 -1.5l-10 -50v-23q0 -20 -0.5 -45.5t-0.5 -52.5v-41q0 -109 5.5 -215t5.5 -215q0 -6 -1 -10.5t-9 -7.5q-48 -8 -104 -14.5t-108 -6.5q-6 0 -16.5 0.5t-11.5 0.5z" />
    <glyph glyph-name="FL0055h" unicode="U" horiz-adv-x="1096" 
d="M966 643q0 17 -4.5 46t-14.5 57t-25.5 48.5t-36.5 20.5q-11 0 -40 -3.5t-60.5 -10.5t-55.5 -17.5t-24 -23.5q0 -97 5.5 -190.5t5.5 -190.5v-45q0 -32 -0.5 -67.5t-0.5 -67.5v-45q7 -18 1.5 -28t-16.5 -14.5t-24 -5.5t-21 -2t-34 -3t-56 -3.5t-58.5 -2.5t-41.5 -1h-22
q-12 0 -26.5 0.5t-27.5 0.5t-24 0.5t-15 0.5v708l-15 10l-230 -40q-2 0 -5.5 -4t-4.5 -6v-4v-6q6 -35 13 -64.5t7 -65.5v-470q0 -28 -6.5 -45.5t-15.5 -29t-20.5 -19t-20.5 -15t-15.5 -17.5t-6.5 -27h775l150 -2q10 0 28.5 8t37 20t32 26t13.5 26q0 8 -17.5 13t-38 12
t-38 18.5t-17.5 31.5v450q9 9 10 18.5t1 20.5z" />
    <glyph glyph-name="FL0059h" unicode="V" horiz-adv-x="1041" 
d="M1011 788q-105 -142 -189.5 -292t-160.5 -308q-7 -15 -11.5 -34t-10 -38t-12 -37t-16.5 -31q-9 -5 -26.5 -15t-38 -20.5t-41 -18t-34.5 -7.5q-7 0 -12 1.5t-8 9.5q-6 15 -19 46.5t-29.5 71t-35 83t-35.5 83t-30.5 70.5t-20.5 46q-5 9 -18 36t-29.5 61t-34.5 68.5
t-31 60.5l-17 34t-15 26q-14 21 -30.5 40.5t-34.5 33.5q-1 1 -7 4t-13 6t-13 6t-7 4l-0.5 3.5t-0.5 5.5q0 6 1.5 12t9.5 9q50 11 107.5 11.5t105.5 0.5q9 0 23.5 -0.5t28.5 -0.5t24 -0.5t11 -0.5l20 -20l233 -526l257 546q3 8 16 9.5t23 1.5h10q30 0 60.5 -7.5t50.5 -33.5z
" />
    <glyph glyph-name="FL0057h" unicode="W" horiz-adv-x="1273" 
d="M1202 810q0 -1 -0.5 -2.5t-0.5 -2.5q-3 -16 -8 -50.5t-11 -78t-12.5 -91.5t-12 -91.5t-10 -78t-6.5 -50.5q0 -2 -0.5 -11t-0.5 -22q0 -12 -0.5 -27.5t-0.5 -28.5v-31v-24q0 -12 0.5 -26.5t0.5 -28.5q0 -13 0.5 -24.5t0.5 -16.5q5 -16 16 -27t25.5 -19t30 -13.5
t28.5 -10.5q0 -2 0.5 -7.5t0.5 -7.5q0 -7 -1 -15t-10 -10q-30 -1 -62.5 -4.5t-65.5 -7t-65.5 -6.5t-63.5 -3q-14 0 -18.5 3t-14.5 18l-260 430q-1 2 -6.5 7.5t-12 11.5t-12.5 12l-9 9l-2 0.5t-3 0.5t-2.5 -0.5t-2.5 -0.5q-60 -72 -108.5 -150.5t-91.5 -159.5l-50 -100
q-4 -9 -7 -19.5t-7 -19.5t-11 -15t-20 -6q-10 0 -17 5.5t-18 5.5q-21 0 -41 -5t-40 -11.5t-40.5 -11.5t-41.5 -5q0 19 7.5 38t15.5 34v37q0 26 0.5 55.5t0.5 56.5v36v48q0 30 -0.5 59.5t-0.5 52.5v25v60q0 40 -3 85t-16 84t-39 67t-72 34q0 1 -0.5 4.5t-0.5 5.5
q0 11 10 20.5t21 9.5h309l21 -520l20 20l260 460q8 14 17.5 27t27.5 13h5q3 -2 10.5 -10t9.5 -10l290 -500l15 10v500l15 10q1 0 14 2.5t30.5 5.5t35.5 6.5t30 5.5h11q8 0 14 -3t6 -12z" />
    <glyph glyph-name="FL0058h" unicode="X" horiz-adv-x="991" 
d="M30 10v-40q24 4 51.5 10.5t54.5 16t51.5 22.5t42.5 31l240 240l2 0.5t3 0.5t3 -0.5l2 -0.5q2 -1 9.5 -8.5t10.5 -11.5l140 -160q15 -17 32 -33t38 -27q24 -12 53.5 -21.5t60.5 -15.5t62 -9.5t60 -3.5h4q2 2 5 9.5t5 10.5l0.5 2t0.5 4q0 1 -0.5 2.5l-0.5 1.5l-90 90
l-232 327l222 233v170q0 2 -7.5 9.5t-12.5 10.5l-2 0.5t-3 0.5t-3 -0.5l-2 -0.5l-282 -292l-178 252l-11 0.5t-17 0.5h-10q-6 0 -13 -0.5t-13 -0.5h-6q-12 -1 -43 -4t-66.5 -6t-67 -6t-43.5 -4v-30q16 -8 37 -20.5t33 -29.5q8 -11 25 -33.5t39 -51t46 -60t45.5 -60t39 -51.5
t25.5 -34l20 -30z" />
    <glyph glyph-name="FL0056h" unicode="Y" horiz-adv-x="981" 
d="M41 670q-2 1 -5.5 4.5t-4.5 5.5l-0.5 2t-0.5 3q0 28 25 52.5t59.5 43t71 29.5t60.5 11q75 0 121.5 -24t74.5 -64.5t42 -94.5t24 -114l10 -50h20q1 0 7 20t14 47t16.5 55t15.5 44q16 36 36.5 68.5t47.5 57.5t60.5 40t75.5 15q14 0 31 -0.5t33 -4t28.5 -12t17.5 -24.5
q1 -5 5 -20t9 -32.5t9.5 -34t6.5 -23.5v-5q0 -9 -6 -12.5t-13 -3.5q-21 0 -40.5 6t-40.5 6q-40 0 -73.5 -17t-59.5 -45t-46 -64t-33 -75t-20 -78t-8 -72q0 -16 -0.5 -55.5t-0.5 -84.5v-47q0 -24 0.5 -46t0.5 -39v-25q-21 -5 -46.5 -10.5t-52.5 -10t-54.5 -7.5t-52.5 -3
q-1 0 -6.5 -0.5t-11.5 0.5t-11 3t-5 8v317q0 2 -1.5 17t-4 33t-4.5 34t-3 20q-18 62 -42.5 112t-61.5 84t-89 50t-124 10z" />
    <glyph glyph-name="FL005Ah" unicode="Z" horiz-adv-x="874" 
d="M30 20l450 640q2 2 5.5 10t4.5 10q0 2 -1 3.5t-1 2.5q-42 0 -97 5.5t-110.5 3.5t-106 -17.5t-84.5 -57.5h-34q0 15 7.5 43.5t16.5 56.5t18 49t12 21h700v-30l-420 -620q11 -5 26.5 -8.5t31 -6t29.5 -4t23 -1.5q16 0 53.5 -0.5t82.5 -1.5t90.5 -1.5t77.5 -0.5h40
q0 -27 -23 -48.5t-55.5 -36.5t-67 -23t-58.5 -8h-600z" />
    <glyph glyph-name="FL005Bh" unicode="[" horiz-adv-x="792" 
d="M129 665q2 0 4.5 -0.5t4.5 -0.5q-5 22 -19 30.5t-30.5 13.5t-33 11.5t-25.5 26.5q21 28 54.5 47.5t65.5 32.5q35 -3 65 -5t57.5 -3.5t53.5 -2t54 -0.5h82q75 0 149.5 6t149.5 6q0 -10 0.5 -30.5t-0.5 -45t-3 -50.5t-7.5 -47t-14 -34.5t-21.5 -13.5q-21 0 -35.5 20.5
t-28 45t-29 45t-39.5 20.5q-4 0 -12.5 -0.5t-10.5 -0.5l-47.5 -5t-55.5 -6.5t-47 -6l-20 -2.5l-10 -10v-46q2 -14 0 -34v-510l10 -10l20 -2.5t47 -6t55.5 -7t47.5 -4.5q2 0 10.5 -0.5t12.5 -0.5q24 0 39.5 20.5t29 45t28 45t35.5 20.5q13 0 21.5 -13.5t14 -34.5t7.5 -47
t3 -50.5t0.5 -45t-0.5 -30.5q-75 0 -149.5 6t-149.5 6h-82q-28 0 -54 -0.5t-53.5 -2t-57.5 -3.5t-65 -5q-32 13 -65.5 32.5t-54.5 47.5q7 14 18 21t23 11.5t24.5 7.5t22.5 9.5t16 18t6 32.5v450q-9 9 -10 18.5t-1 20.5z" />
    <glyph glyph-name="FL005Ch" unicode="\" horiz-adv-x="619" 
d="M87 798l-12 -6q-8 -4 -17.5 -8.5t-17.5 -8.5l-10 -6l355 -813q2 -3 16 -1t34.5 7t45 11.5t46.5 13.5t39 13t23 9l-370 838z" />
    <glyph glyph-name="FL005Dh" unicode="]" horiz-adv-x="792" 
d="M663 665q-2 0 -4.5 -0.5t-4.5 -0.5q4 22 18 30.5t31 13.5t33.5 12t25.5 26q-21 28 -54.5 47.5t-65.5 32.5q-35 -3 -65 -5t-57.5 -3.5t-53.5 -2t-54 -0.5h-82q-75 0 -149.5 6t-149.5 6q0 -10 -0.5 -30.5t0.5 -45t3 -50.5t7.5 -47t14 -34.5t21.5 -13.5q21 0 35.5 20.5
t28 45t29 45t39.5 20.5q4 0 12.5 -0.5t10.5 -0.5l47.5 -5t55.5 -6.5t47 -6l20 -2.5l10 -10v-46q-2 -14 0 -34v-510l-10 -10l-20 -2.5t-47 -6t-55.5 -7t-47.5 -4.5q-2 0 -10.5 -0.5t-12.5 -0.5q-24 0 -39.5 20.5t-29 45t-28 45t-35.5 20.5q-13 0 -21.5 -13.5t-14 -34.5
t-7.5 -47t-3 -50.5t-0.5 -45t0.5 -30.5q75 0 149.5 6t149.5 6h82q28 0 54 -0.5t53.5 -2t57.5 -3.5t65 -5q32 13 65.5 32.5t54.5 47.5q-11 21 -29.5 27.5t-36.5 12.5t-31 17.5t-13 42.5v450q9 9 10 18.5t1 20.5z" />
    <glyph glyph-name="FL005Eh" unicode="^" horiz-adv-x="487" 
d="M168 810l151 -1q1 0 3 -2q8 -2 9 -11q9 -8 22.5 -28t27.5 -46t27.5 -53.5t24.5 -50.5t17.5 -38.5l6.5 -15.5v-21q-30 0 -51.5 -0.5t-40.5 -0.5q-9 0 -14.5 -0.5t-10.5 -0.5h-12h-8q-4 0 -10 1q-2 4 -10 27t-18.5 50.5t-20.5 52.5t-17 33q-8 -8 -18.5 -33.5t-21 -53.5
t-18.5 -51.5t-10 -27.5q-6 -1 -11 -1h-7h-11q-5 0 -10.5 0.5t-14.5 0.5q-19 0 -40.5 0.5t-51.5 0.5v21l7 15.5t18 38t25 50.5t28 53.5t27 45.5t22 29q0 5 1.5 11t9.5 6z" />
    <glyph glyph-name="FL005Fh" unicode="_" horiz-adv-x="466" 
d="M0 -25v-4q4 -4 16 -7t14 -3q3 1 9 5.5t12.5 10t11.5 11t7 8.5l348 1q1 0 4.5 5.5t5.5 9.5q10 22 18 35t14 24t9 24.5t3 37.5q0 11 -8 15t-18 4h-5l-30 -20q-4 -2 -11.5 -6t-8.5 -4l-338 -1q-1 0 -4.5 -7.5t-5.5 -12.5q-5 -15 -12.5 -30t-14 -31t-11.5 -32t-5 -33z" />
    <glyph glyph-name="FL0060h" unicode="`" horiz-adv-x="337" 
d="M25 809l151 -1q2 0 5 -4t5 -6q9 -8 22 -22.5t27 -32t28.5 -36t26 -34t18.5 -25t7 -10.5v-21q-30 0 -51.5 -0.5t-40.5 -0.5t-37.5 0.5t-41.5 2.5q-6 13 -27.5 36t-44 48.5t-40.5 48.5t-18 37q0 5 1.5 12.5t9.5 7.5z" />
    <glyph glyph-name="a" unicode="a" horiz-adv-x="1041" 
d="M30 30q20 -26 50.5 -33.5t60.5 -7.5q3 0 10 -0.5t15 0.5t15 3.5t9 7.5l257 546l233 -526l20 -20q1 0 11 -0.5t24 -0.5t28.5 -0.5t23.5 -0.5q48 0 105.5 0.5t107.5 11.5q8 3 9.5 9t1.5 12q0 2 -0.5 5.5l-0.5 3.5q-1 1 -7 4t-13 6t-13 5.5t-7 4.5q-12 9 -23.5 21t-22 25.5
t-19.5 27.5t-15 26q-6 11 -17 33t-24.5 48t-27.5 54.5t-26.5 53.5t-21.5 44t-13 27q-7 15 -20.5 46t-30.5 70.5t-35.5 83t-35 83t-29.5 71t-19 46.5q-3 8 -8 9.5t-12 1.5q-14 0 -34.5 -7.5t-41 -18t-38 -20.5t-26.5 -15q-10 -14 -16.5 -31.5t-11.5 -36.5t-10 -37.5
t-12 -34.5q-76 -158 -160.5 -308t-189.5 -292z" />
    <glyph glyph-name="b" unicode="b" horiz-adv-x="871" 
d="M30 770l10 30q0 1 14 2.5t33 3t39.5 3t33.5 1.5h28q25 0 57.5 0.5t65.5 0.5h54h41q29 0 61.5 -0.5t61.5 -0.5h41q36 -5 76.5 -14t75 -27t57 -47.5t22.5 -74.5q0 -43 -17 -73t-44.5 -52t-61.5 -39t-68 -33v-10q44 -8 85.5 -18.5t74 -30.5t52 -52.5t19.5 -83.5
q0 -57 -21 -98t-56.5 -69.5t-81 -46t-95 -27t-99 -12.5t-92.5 -3q-36 0 -65 -0.5t-56 0t-54.5 3t-60.5 8.5q-7 1 -18.5 5t-11.5 5v650q0 25 -8.5 41t-22 26.5t-32 18t-37.5 14.5zM370 394v-274q0 -16 12 -26t28 -15.5t33 -7.5t27 -2q33 0 57.5 13.5t40.5 36t24 51.5t8 60
q0 54 -19.5 86t-52 49.5t-74 23t-84.5 5.5zM370 740v-280q36 3 69 10t58 22t39.5 41t14.5 67q0 66 -41 103.5t-110 37.5q-4 0 -15.5 -0.5t-14.5 -0.5z" />
    <glyph glyph-name="c" unicode="c" horiz-adv-x="792" 
d="M129 157q0 11 1 20.5t10 18.5v450q0 21 -6 32.5t-16 18t-22.5 9.5t-24.5 7.5t-23 11.5t-18 21q21 28 54.5 47.5t65.5 32.5q35 -3 65 -5t57.5 -3.5t53.5 -2t54 -0.5h82q75 0 149.5 6t149.5 6q0 -10 0.5 -30.5t-0.5 -45t-3 -50.5t-7.5 -47t-14 -34.5t-21.5 -13.5
q-21 0 -35.5 20.5t-28 45t-29 45t-39.5 20.5q-4 0 -12.5 -0.5t-10.5 -0.5l-47.5 -5t-55.5 -6.5t-47 -6l-20 -2.5l-10 -10l-4 -508l50 -138q2 -6 -13.5 -13.5t-40 -14.5t-54 -14t-55 -12t-42.5 -8l-17 -3q-21 0 -35.5 19.5t-23 46t-12.5 54t-4 42.5z" />
    <glyph glyph-name="d" unicode="d" horiz-adv-x="1010" 
d="M30 10q0 1 4 8.5t6 11.5q6 11 26 46t47 81t57 98.5t57 98.5t47 80.5t26 45.5q12 23 27 51t29.5 58t28.5 61t25 60q1 2 3.5 11t5.5 19.5t6 19t5 10.5q9 12 26.5 21.5t38.5 17t41 13t34 8.5h6h4q4 -2 11 -10t9 -10l300 -600l80 -125l-170 -85h-770q-2 0 -6 4t-4 6zM250 150
q-1 -2 3 -5.5t7 -4.5q4 -1 12.5 -3t18 -3.5t18 -2.5t11.5 -1h310l40 10l-210 420h-10z" />
    <glyph glyph-name="e" unicode="e" horiz-adv-x="791" 
d="M680 200q3 1 11.5 2.5t18.5 3t18.5 3t11.5 1.5h6q8 0 11.5 -6t3.5 -14q0 -3 -4.5 -18t-11.5 -36.5t-15.5 -45t-17.5 -44t-17.5 -33.5t-14.5 -13h-650v30q0 1 5.5 18.5t13.5 41.5t16.5 49t14.5 41q2 5 5.5 12.5t4.5 7.5h590zM120 284q0 17 6 44t14 56t16.5 55t13.5 41
q2 5 5.5 12.5t4.5 7.5h400q1 0 8.5 4t11.5 6l30 20h5q10 0 18 -4t8 -15q0 -48 -15.5 -97t-35.5 -94q-2 -4 -5.5 -9.5t-4.5 -5.5h-410q-2 -3 -7 -8.5t-11.5 -11t-12.5 -10t-9 -5.5q-1 0 -5 1t-9 2.5t-9.5 3t-6.5 3.5v4zM60 605v5l7.5 22.5l12 36t12 36.5t8.5 25l2.5 8
t6.5 18.5t9.5 20.5t11.5 13q21 0 65.5 1t101 2t118.5 2t118 2t100.5 1.5t66.5 1.5h42q0 -24 -5 -51t-13.5 -54t-19.5 -51.5t-24 -43.5q-21 0 -65.5 -0.5t-101 -2t-118.5 -2.5t-118.5 -2.5t-101 -2t-65.5 -0.5h-24q-8 0 -17 1t-9 14z" />
    <glyph glyph-name="FL0066h" unicode="f" horiz-adv-x="761" 
d="M31 721q0 1 -0.5 4.5t-0.5 5.5q0 11 4.5 16.5t16.5 13.5q4 3 15 10t24 15t24.5 15t16.5 10q81 -2 156 -0.5t148 4l146 5t150 2.5v-171l-20 -20l-100 100l-11 0.5t-17 0.5h-10q-6 0 -13 -0.5t-13 -0.5h-6q-17 -2 -44 -5t-52.5 -6t-44 -5.5t-19.5 -3.5l-10 -10v-221h310
v-30l-7 -7.5t-16.5 -17.5t-19.5 -20t-17 -15q-2 -2 -10 -6t-10 -4l-230 -30l1 -350l-241 -4v645q0 22 -9 36t-23 22.5t-32 13t-36 8.5z" />
    <glyph glyph-name="FL0067h" unicode="g" horiz-adv-x="852" 
d="M604 393q-1 2 -1.5 7.5t-0.5 7.5q0 9 3 18.5t19 6.5q26 2 61.5 6t62.5 4h14q10 0 21 0.5t21 0.5h14l4 -396q0 -5 -8.5 -10t-23 -10.5t-33 -10.5t-38.5 -9q-9 -5 -26.5 -6.5t-34.5 -1.5h-18l-599 4q-1 0 -4.5 4t-5.5 6l-0.5 2t-0.5 3t0.5 2.5t0.5 2.5q3 6 11.5 22t18 33.5
t18 33t12.5 21.5q2 2 10 9.5t10 10.5l156 252l-209 270v20q0 1 10 11t23.5 24.5t28 29.5t23.5 26q3 4 14.5 15.5t15.5 14.5q9 0 14.5 -0.5t13.5 -0.5q9 0 21.5 -0.5t35.5 -0.5h191h234q6 0 20 1t30 2.5t30 3.5t20 3q2 -1 5.5 -4.5t4.5 -5.5l0.5 -2t0.5 -3t-0.5 -3l-0.5 -2
q-6 -12 -17 -29.5t-24 -35t-25.5 -33t-21.5 -23.5h-35q-29 0 -72.5 -0.5t-86.5 -1.5t-77.5 -2t-46.5 -2q-4 0 -18 -1t-29.5 -2.5t-29 -3t-16.5 -2.5q14 -16 30 -38t32 -46.5t31 -49.5t26.5 -46t18.5 -36t7 -20q0 3 -2.5 -6.5t-5.5 -22.5l-6 -26t-4 -17q-5 -18 -9 -35
t-12 -39t-23.5 -52t-42.5 -73q27 -10 72 -12t94.5 0t97.5 5t82 3l-2 163q0 36 -21 50t-53 22z" />
    <glyph glyph-name="h" unicode="h" horiz-adv-x="1043" 
d="M112 10l20 -20q48 13 103.5 25t106.5 15l10 10v316l385 35v-391q0 -2 10 -6t15 -4q1 0 6 1t11.5 2.5t13 3.5t9.5 3l30 10l45 15t45.5 15t29.5 10q9 4 20 21.5t20 38.5t15 41t5 29q0 1 -4.5 5.5t-10 9.5t-10 9t-5.5 6q-2 3 -3.5 10t-3 15t-2.5 15t-1 10v35q0 25 -0.5 52.5
t-0.5 52.5v35q0 88 5.5 175.5t5.5 175.5q0 11 -9 18t-20 7q-2 0 -6 -0.5t-5 -0.5q-10 -2 -35.5 -6t-54.5 -9t-54.5 -9t-35.5 -6q-1 0 -7.5 -3t-14.5 -8t-8 -9v-270l-10 -10q-1 -1 -14 -2.5t-30.5 -3t-35.5 -3t-30 -1.5h-8q-7 0 -15.5 -0.5t-17.5 -0.5h-14q-17 0 -48.5 -1
t-64 1t-59 9t-33.5 22v13q0 9 -0.5 19.5t-0.5 19.5v13q0 31 3.5 62t8 61.5t8 61.5t3.5 61h-12q-9 0 -19 -0.5t-19 -0.5h-12q-15 0 -54 -1t-82 -2.5t-81 -3.5t-53 -3q-10 -2 -10.5 -11t-0.5 -16q0 -9 12.5 -16t28 -16.5t28 -26t12.5 -44.5v-660z" />
    <glyph glyph-name="i" unicode="i" horiz-adv-x="382" 
d="M32 760q-1 2 -1.5 7.5t-0.5 7.5q0 9 3 18.5t19 6.5q13 1 45.5 3t69 3.5t69.5 2.5t46 1h14q10 0 21 0.5t21 0.5h14v-771q0 -4 -15.5 -8.5t-40 -9.5t-53.5 -9.5t-55.5 -8.5t-47.5 -6t-28 -2v684q0 37 -24 54.5t-56 25.5z" />
    <glyph glyph-name="FL006Ah" unicode="j" horiz-adv-x="805" 
d="M455 755q32 -8 56 -25.5t24 -54.5l1 -520q-13 -17 -44 -23.5t-76 -6.5q-60 0 -102 7.5t-82.5 21t-86.5 32t-115 40.5l2 -197q0 -1 10.5 -5t16.5 -5q30 -6 70 -10t83 -6t84.5 -3t73.5 -1q36 0 78 2.5t83.5 11t81 23t71.5 39t54 59t29 82.5q1 2 2 3t1 2l5 585h-14
q-10 0 -21 -0.5t-21 -0.5h-14q-14 0 -46.5 -1t-69 -2.5t-69 -3.5t-45.5 -3q-16 3 -19 -6.5t-3 -18.5q0 -2 0.5 -7.5t1.5 -7.5z" />
    <glyph glyph-name="k" unicode="k" horiz-adv-x="1052" 
d="M702 24q-7 6 -23 21.5t-33 32.5t-32.5 33t-21.5 23q-8 9 -24 28t-36 43.5t-41.5 52t-41 52t-35 44.5t-22.5 30h-40v-340l-10 -10l-23 -5t-55 -11.5t-66 -13t-56 -10.5q-1 0 -5 -0.5t-6 -0.5q-5 0 -12 1.5t-7 9.5v670q0 29 -13 45t-28 25.5t-28 16t-13 17.5q0 9 3.5 19
t18.5 7q16 1 55.5 3t84.5 3.5t84.5 2.5t55.5 1h18q8 0 15 -2t7 -13v-5q-11 -43 -15 -84t-4.5 -82t1 -83t1.5 -87q28 0 52 10t44.5 26.5t38 37t32.5 42.5q14 20 34.5 46.5t41.5 57t38.5 63t25.5 63.5h220q21 0 32 -3.5t11 -21.5q0 -2 -23.5 -16.5t-59 -36.5t-78 -50
t-79.5 -57t-63 -56.5t-30 -48.5q-1 -3 3 -10.5t7 -9.5q10 -14 31.5 -42t49 -62.5t58 -72.5t58.5 -72t50 -61t33 -40q6 -7 21.5 -23t32.5 -33t33 -32.5t23 -21.5q1 2 4.5 5.5t5.5 4.5l2 0.5t3 0.5q2 0 3.5 -0.5l1.5 -0.5q2 -2 5 -9.5t5 -10.5v-5v-5q-1 -4 -4.5 -15.5
t-5.5 -14.5q-5 0 -20 -0.5t-20 -0.5q-32 0 -67.5 1t-70.5 5.5t-69 12.5t-63 22z" />
    <glyph glyph-name="FL006Ch" unicode="l" horiz-adv-x="792" 
d="M129 658q0 -11 1 -20.5t10 -18.5v-450q0 -21 -6 -32.5t-16 -18t-22.5 -9.5t-24.5 -7.5t-23 -11.5t-18 -21q21 -28 54.5 -47.5t65.5 -32.5q35 3 65 5t57.5 3.5t53.5 2t54 0.5h82q75 0 149.5 -6t149.5 -6q0 10 0.5 30.5t-0.5 45t-3 50.5t-7.5 47t-14 34.5t-21.5 13.5
q-21 0 -35.5 -20.5t-28 -45t-29 -45t-39.5 -20.5q-4 0 -12.5 0.5t-10.5 0.5q-19 1 -47.5 4.5t-55.5 7t-47 6l-20 2.5l-10 10v510l20 140q1 6 -13 13.5t-36 14t-47.5 12.5t-47.5 11t-37 7.5l-15 2.5q-21 0 -35.5 -19.5t-23 -46t-12.5 -54t-4 -42.5z" />
    <glyph glyph-name="m" unicode="m" horiz-adv-x="1273" 
d="M71 -5q0 -9 6 -12t14 -3h11q12 2 30 5.5t35.5 6.5t30.5 5.5t14 2.5l15 10v500l15 10l290 -500q2 -2 9.5 -10t10.5 -10h5q18 0 27.5 13t17.5 27l260 460l20 20l21 -520h309q11 0 21 9.5t10 20.5q0 2 -0.5 5.5t-0.5 4.5q-46 6 -72 34t-39 67t-16 84t-3 85v60v25
q0 23 -0.5 52.5t-0.5 59.5v48v36q0 27 0.5 56.5t0.5 55.5v37q8 15 15.5 34t7.5 38q-21 0 -41.5 -5t-40.5 -11.5t-40 -11.5t-41 -5q-11 0 -18 5.5t-17 5.5q-13 0 -20 -6t-11 -15t-7 -19.5t-7 -19.5l-50 -100q-43 -81 -91.5 -159.5t-108.5 -150.5q-1 0 -2.5 -0.5t-2.5 -0.5
t-3 0.5l-2 0.5l-9 9t-12.5 12t-12 11.5t-6.5 7.5l-260 430q-10 15 -14.5 18t-18.5 3q-31 0 -63.5 -3t-65.5 -6.5t-65.5 -7t-62.5 -4.5q-9 -2 -10 -10t-1 -15q0 -2 0.5 -7.5t0.5 -7.5q13 -5 28.5 -10.5t29.5 -13.5t25.5 -19t16.5 -27q0 -5 0.5 -16.5t0.5 -25.5
q0 -13 0.5 -27.5t0.5 -26.5v-24v-31q0 -14 -0.5 -29t-0.5 -28q0 -12 -0.5 -21.5t-0.5 -10.5q-2 -16 -6.5 -50.5t-10 -78t-12 -91.5t-12.5 -91.5t-11 -78t-8 -50.5q0 -1 -0.5 -2.5t-0.5 -2.5z" />
    <glyph glyph-name="n" unicode="n" horiz-adv-x="974" 
d="M259 548h-10v-530l-13.5 -2.5t-33 -6t-40 -7t-33.5 -4.5h-11q-6 0 -11 1t-8 9q25 143 34.5 277.5t9.5 278.5q0 40 -3.5 69.5t-15 51.5t-33.5 38t-59 30q0 2 -0.5 7.5t-0.5 7.5q0 7 1 15t10 10q58 2 123 11.5t125 9.5q2 0 7 -0.5l5 -0.5l487 -475h7q0 54 -2 106t-5 103
t-5 103t-2 106q0 6 -0.5 15.5t10.5 11.5q35 10 74.5 16.5t77.5 6.5q0 -1 -0.5 -6t-1.5 -7q-24 -59 -31 -116t-9 -124q-1 -16 -1.5 -44.5t-1 -65.5t-0.5 -80v-88v-115v-98v-64l-10 -10q-2 0 -16 3t-34 8t-30 9q-3 1 -10.5 4.5t-9.5 5.5q-7 6 -22 19t-31 27t-29.5 26.5
t-17.5 17.5q-16 16 -50 50.5t-76.5 77.5t-89 91t-89 91.5t-76 78t-49.5 51.5z" />
    <glyph glyph-name="o" unicode="o" horiz-adv-x="1081" 
d="M80 10q23 -6 52.5 -8.5t59.5 -3.5t58 -0.5t48 0.5q9 0 25.5 0.5t32.5 0.5q17 0 29.5 0.5t14.5 0.5l30 10q1 0 3.5 10.5t5.5 25t6 29.5l5 25q0 2 0.5 10t0.5 12q0 12 -19 31.5t-41.5 45t-41.5 56t-19 65.5v216q0 26 12 60.5t32.5 65.5t47.5 52.5t58 21.5h130
q31 0 55 -22.5t41 -54t28 -66t16 -57.5v-28q0 -15 0.5 -32.5t0.5 -33.5v-22q0 -45 -2 -86.5t-13 -77.5t-36 -65.5t-70 -50.5q-2 -6 -5 -21.5t-6 -33t-5.5 -33.5t-3.5 -22q-1 -4 -1.5 -15.5t-0.5 -14.5h282q25 0 53.5 11t52.5 29.5t39.5 43t15.5 51.5q0 2 -0.5 7.5t-0.5 7.5
q-32 -8 -59 -9.5t-56 -1.5h-40q-40 0 -73 0.5t-72 10.5q51 27 99.5 59.5t87 73.5t61.5 90.5t23 111.5q0 89 -42.5 152t-108.5 103t-145.5 58.5t-154.5 18.5q-55 0 -114 -8t-115.5 -26t-107.5 -45.5t-90 -67.5t-61.5 -92t-22.5 -118q0 -60 24.5 -107t63.5 -83.5t87 -65.5
t96 -54h-13q-9 0 -19.5 -0.5t-19.5 -0.5h-13q-56 0 -111 10.5t-110 10.5h-4q-2 -1 -5.5 -4.5t-4.5 -5.5v-5v-5q2 -6 7.5 -23t11.5 -36t12 -36.5t9 -24.5q1 -2 4.5 -10t5.5 -10z" />
    <glyph glyph-name="p" unicode="p" horiz-adv-x="862" 
d="M121 680q-1 30 -15.5 44t-31 21.5t-30.5 14t-14 21.5q0 8 3.5 14t17.5 5q66 8 126 9.5t123 1.5h86h36q27 0 56.5 -0.5t55.5 -0.5h37q35 -4 75.5 -11.5t77.5 -23t66 -41t41 -64.5v-12q0 -8 0.5 -18t0.5 -19v-11q0 -72 -33 -121.5t-85 -80.5t-116 -45t-127 -14h-10
q-7 0 -15 0.5t-15 0.5h-10q-14 8 -22.5 17t-8.5 23q0 2 0.5 5.5t0.5 4.5q39 13 74 28t61 36.5t41 52.5t15 76q0 48 -21.5 76.5t-54.5 43.5t-73 19.5t-77 4.5v-657q0 -10 -3.5 -31t-9 -46.5t-12.5 -54t-14 -54t-14 -45.5t-12 -29q-6 -17 -18 -28.5t-27.5 -18.5t-33 -10.5
t-33.5 -3.5q-2 0 -5 0.5l-3 0.5l-10 40q-1 4 -3.5 27t-5.5 56.5t-6 74t-6 80t-5.5 74.5t-3.5 58q-1 19 -2 59t-2 90t-2.5 105.5t-2 106t-1 90.5t-0.5 59z" />
    <glyph glyph-name="q" unicode="q" horiz-adv-x="1222" 
d="M511 0q-103 5 -191 26.5t-152.5 68.5t-101 125t-36.5 197q0 68 20 119.5t55 90t82 66t100.5 47.5t110.5 34t113 26l-5 171q0 1 5.5 6t13.5 11t16.5 12.5t14.5 10.5t21.5 14t33.5 21t33.5 21t21.5 14q1 0 4.5 0.5t5.5 0.5q7 0 19 -23.5t23.5 -53t20 -55t8.5 -29.5
q0 -14 -4 -26.5t-8.5 -26t-8.5 -30t-4 -38.5l185 -19q1 0 12.5 -4t17.5 -6q55 -21 102 -50t81 -68t53 -88t19 -110q0 -99 -36 -171t-90.5 -122t-118 -82t-118 -50.5t-91 -27t-37.5 -12.5l-50 -260q0 -2 -7.5 -9.5t-12.5 -10.5h-5q-34 0 -54 15.5t-30.5 40t-14.5 56
t-5.5 63.5t-3 62.5t-7.5 52.5zM270 441q0 -54 13 -112.5t41.5 -107.5t74.5 -81t112 -32v592q0 15 -12.5 18t-21.5 3q-54 0 -93 -27.5t-64.5 -69.5t-37.5 -91t-12 -92zM721 710q0 -20 -0.5 -63t-2 -97t-2.5 -114t-2.5 -114.5t-2 -97.5t-0.5 -64v-53q62 0 110.5 24t81.5 64.5
t50.5 95t17.5 114.5q0 45 -17 98.5t-47.5 99.5t-74 77t-96.5 31q-2 0 -7.5 -0.5t-7.5 -0.5z" />
    <glyph glyph-name="FL0072h" unicode="r" horiz-adv-x="869" 
d="M370 394l-9 -389h-8q-36 0 -58.5 -1.5t-41 -2t-39.5 1t-54 7.5q-7 1 -18.5 5t-11.5 5v650q0 25 -8.5 41t-22 26.5t-32 18t-37.5 14.5l10 30q0 1 14 2.5t33 3t39.5 3t33.5 1.5h28q25 0 57.5 0.5t65.5 0.5h95q29 0 61.5 -0.5t61.5 -0.5h41q36 -5 76.5 -14t75 -27t57 -47.5
t22.5 -74.5q0 -43 -17 -73t-44.5 -52t-61.5 -39t-68 -33v-10q43 -8 84.5 -43t73.5 -83.5t51.5 -105.5t19.5 -108q0 -41 -5 -61.5t-15 -28.5t-25.5 -6.5t-36.5 6t-47 8t-58 -0.5l-52 213q-13 52 -34 84t-50 50t-65.5 24t-80.5 6zM370 740v-280q36 3 69 10t58 22t39.5 41
t14.5 67q0 66 -41 103.5t-110 37.5q-4 0 -15.5 -0.5t-14.5 -0.5z" />
    <glyph glyph-name="FL0073h" unicode="s" horiz-adv-x="798" 
d="M410 358q27 -5 52.5 -10.5t45 -18t31.5 -36t12 -63.5q0 -54 -17 -75t-54 -24.5t-96 2t-143 5.5q-11 0 -63.5 12t-146.5 46l-1 -167q0 -1 10.5 -5t16.5 -5q30 -6 70 -10t83 -6t84.5 -3t73.5 -1q38 0 83 3t89.5 12.5t85.5 27t72.5 46t50.5 69.5t19 98q0 51 -17.5 83.5
t-47 52.5t-66.5 30.5t-76 18.5q-17 9 -41 16t-52.5 13t-60 13t-62.5 16q-18 6 -33 12.5t-26 17.5t-17 28t-6 44q0 66 36.5 103.5t99.5 37.5q6 0 35 -2.5t66.5 -10t76.5 -21.5t65 -38v1q10 -2 20.5 7.5t21.5 24.5t23 33t24 35l-9 30q0 1 -12.5 2.5t-29.5 3t-35.5 3t-30.5 1.5
h-25q-22 0 -51.5 0.5t-58.5 0.5h-86q-26 0 -55 -0.5t-55 -0.5h-37q-33 -5 -69 -14t-67 -27t-51 -47.5t-20 -74.5q0 -37 10 -69t27 -59t40 -47.5t50 -34.5z" />
    <glyph glyph-name="t" unicode="t" horiz-adv-x="875" 
d="M309 12l6 658l-10 10q-1 0 -14.5 0.5t-21.5 0.5q-18 0 -40 -0.5t-44 -2t-43 -3.5t-37 -5q-2 0 -9.5 -3t-15.5 -7t-15.5 -7t-9.5 -3q-2 -1 -12.5 -2t-12.5 -1q0 19 5 42t11.5 45t14.5 42t14 34h10h350h410v-20l-82 -109q-8 0 -26 0.5t-38 0.5h-38t-25 -1t-19 -1h-23h-20
h-9l-10 -50v-23q0 -20 -0.5 -45.5t-0.5 -52.5v-41q0 -109 5.5 -215t5.5 -215q0 -6 -1 -10.5t-9 -7.5q-48 -8 -104 -14.5t-108 -6.5q-6 0 -16.5 0.5t-11.5 0.5z" />
    <glyph glyph-name="FL0075h" unicode="u" horiz-adv-x="1064" 
d="M244 139q30 -32 58 -56t58 -41t64 -28t76 -18q34 2 56.5 3.5t38 4.5t26.5 8t23 15q39 11 70 33t57.5 49.5t50 58.5t47.5 60q2 4 8.5 38t15.5 84t19.5 107.5t19 107.5t14.5 85t7 39q2 6 9 20.5t11 19.5q5 8 15.5 13.5t20.5 10.5t17.5 10.5t7.5 14.5q0 21 -20 21
q-26 0 -62 -1.5t-72.5 -8.5t-68 -21t-48.5 -39q-7 -30 -14.5 -86.5t-18.5 -123t-27 -136.5t-39 -126.5t-54 -93t-73 -36.5l-59 2q-31 1 -51 27t-32 68t-18.5 96t-11 112t-8.5 116t-11.5 108t-20.5 88t-35 55h-13q-9 0 -19.5 0.5t-19.5 0.5h-13h-48q-32 0 -62 -2.5t-75 -8.5
q-2 -2 -5.5 -10t-4.5 -10v-5v-5q42 -10 62.5 -51.5t30.5 -100.5t14.5 -128.5t14.5 -135t30.5 -120t61.5 -84.5z" />
    <glyph glyph-name="v" unicode="v" horiz-adv-x="981" 
d="M41 662q-2 1 -5.5 4.5t-4.5 5.5l-0.5 2t-0.5 3q0 28 25 52.5t59.5 43t71 29.5t60.5 11q50 0 87 -20t64 -53t45.5 -75.5t31 -89t21 -93t15.5 -86.5l10 -50h20l3 18t7 46.5t9.5 62.5t11 66t11 57.5t9.5 35.5q16 36 36.5 68.5t47.5 57.5t60.5 40t75.5 15q14 0 31 -0.5t33 -4
t28.5 -12t17.5 -24.5q1 -5 5 -20t9 -32.5t9.5 -34t6.5 -23.5v-5q0 -9 -6 -12.5t-13 -3.5q-21 0 -40.5 6t-40.5 6q-40 0 -73.5 -21.5t-60 -57t-46 -80.5t-33 -91.5t-20.5 -90t-8 -76.5q0 -16 -0.5 -55.5t-0.5 -84.5q0 -23 0.5 -34t0.5 -18q0 -6 0.5 -10t0.5 -12
q-21 -5 -46.5 -10.5t-52.5 -10t-54.5 -7.5t-52.5 -3q-1 0 -6.5 -0.5t-11.5 0.5t-11 3t-5 8q0 90 -1.5 144t-3 84t-3.5 41t-3 15q-12 41 -27 86t-34.5 88t-44 81.5t-56 66.5t-70.5 43t-87 11z" />
    <glyph glyph-name="FL0077h" unicode="w" horiz-adv-x="1251" 
d="M524 80l6 -84q28 0 55.5 4.5t54.5 10.5t54.5 11.5t55.5 7.5l10 10l-6 40q52 8 101.5 21t91.5 36.5t74.5 60t52.5 92.5q2 4 7.5 34t12.5 73t15 92.5t14.5 92.5t11 73.5t5.5 34.5q2 6 9 20.5t11 19.5q5 8 15.5 13.5t20.5 10.5t17.5 10.5t7.5 14.5q0 21 -20 21
q-26 0 -62 -1.5t-72.5 -8.5t-68 -21t-48.5 -39q-6 -30 -11.5 -83.5t-13.5 -116.5t-20 -127.5t-32 -117.5t-49 -86.5t-70 -33.5l6 646q-5 0 -20 -0.5t-20 -0.5q-11 0 -38 -1t-58 -3q-24 -2 -44.5 -2.5t-34.5 -1.5t-20.5 -3.5t-4.5 -7.5v-14v-83v-106q0 -57 0.5 -117t0.5 -117
v-106v-83q-3 0 -9.5 -1t-14 -2t-14 -2t-9.5 0q-41 9 -62 54.5t-31.5 110t-15 140t-11 144.5t-20.5 123.5t-44 77.5h-13q-9 0 -19.5 0.5t-19.5 0.5h-13h-48q-32 0 -62 -2.5t-75 -8.5q-2 -2 -5.5 -10t-4.5 -10v-5v-5q42 -10 62.5 -51.5t30.5 -100.5t14.5 -128.5t14.5 -135
t30.5 -120t61.5 -84.5q28 -21 63 -33.5t72.5 -19.5t74.5 -10.5t70 -6.5z" />
    <glyph glyph-name="x" unicode="x" horiz-adv-x="991" 
d="M30 1l360 400l-20 30q-8 11 -25.5 34t-39 51.5t-45.5 60t-46 60t-39 51t-25 33.5q-12 17 -33 29.5t-37 20.5v30q12 1 43.5 4t67 6t66.5 6t43 4h6q6 0 13 0.5t13 0.5h10q6 0 17 -0.5l11 -0.5l178 -252l282 292l2 0.5t3 0.5t3 -0.5l2 -0.5q5 -3 12.5 -10.5t7.5 -9.5v-170
l-222 -233l232 -327l90 -90l0.5 -1.5t0.5 -2.5q0 -2 -0.5 -4l-0.5 -2q-2 -3 -5 -10.5t-5 -9.5h-4q-29 0 -60 3.5t-62 9.5t-60.5 15.5t-53.5 21.5q-21 11 -38 27t-32 33l-140 160q-3 4 -10.5 11.5t-9.5 8.5l-2 0.5t-3 0.5t-3 -0.5l-2 -0.5l-240 -240q-18 -18 -42.5 -31
t-51.5 -22.5t-54.5 -16t-51.5 -10.5v40z" />
    <glyph glyph-name="y" unicode="y" horiz-adv-x="1251" 
d="M530 290q-33 3 -70 6.5t-74.5 10.5t-72.5 19.5t-63 33.5q-41 30 -62 69t-31.5 81.5t-16 84.5t-16 77.5t-31.5 61.5t-63 36v5v5q1 2 4.5 10t5.5 10q30 4 52.5 6.5t43 3.5t41.5 1h48h13q9 0 19.5 -0.5t19.5 -0.5h13q29 -23 43.5 -62.5t22 -85t12.5 -93.5t16.5 -89.5t33 -71
t62.5 -38.5q3 -1 9.5 0t14 2t14 2t9.5 1q0 103 -3.5 201.5t-3.5 200.5v14q0 8 10 9t37 3t57.5 3.5t57.5 2.5t38 1q5 0 20 0.5t20 0.5v-436q41 0 69.5 18t47.5 47.5t30.5 67t19 77t12.5 77.5t11 68q17 25 48.5 39t68 21t72.5 8.5t62 1.5q20 0 20 -21q0 -9 -7.5 -14.5
t-17.5 -10.5t-20.5 -10.5t-15.5 -13.5q-2 -3 -4.5 -8.5t-5.5 -11.5t-6 -11.5t-4 -8.5q-1 -5 -5.5 -19.5t-10.5 -34.5t-13 -42t-13.5 -41.5t-11 -34t-6.5 -18.5q-20 -56 -53 -92.5t-74.5 -60t-90.5 -36.5t-102 -21v-250l-10 -10q-28 -2 -55.5 -7.5t-54.5 -11.5t-54.5 -10.5
t-55.5 -4.5v294z" />
    <glyph glyph-name="z" unicode="z" horiz-adv-x="874" 
d="M30 20l10 -20h600q24 0 58.5 8t67 23t55.5 36.5t23 48.5h-40q-32 0 -77.5 0.5t-90.5 1.5t-82.5 1.5t-53.5 0.5q-9 0 -23 1.5t-30 4t-31 6t-26 8.5l420 636v30h-700q-3 0 -12 -21t-18 -49t-16.5 -56.5t-7.5 -43.5h34q34 42 84.5 57.5t106 17.5t110.5 -3.5t97 -5.5
q0 -1 1 -2.5t1 -3.5q-1 -2 -4.5 -10t-5.5 -10z" />
    <glyph glyph-name="FL007Bh" unicode="{" horiz-adv-x="631" 
d="M280 726l-250 -300l158 -168l282 -292l2 -0.5t3 -0.5t3 0.5l2 0.5q5 3 12.5 10.5t7.5 9.5v170l-222 233l232 327l90 90l0.5 1.5t0.5 2.5q0 2 -0.5 4l-0.5 2q-2 3 -5 10.5t-5 9.5h-4q-29 0 -60 -3.5t-62 -9.5t-60.5 -15.5t-53.5 -21.5q-21 -11 -38 -27t-32 -33z" />
    <glyph glyph-name="FL007Ch" unicode="|" horiz-adv-x="263" 
d="M163 810h14q10 0 21 0.5t21 0.5h14v-771q0 -6 -28 -13t-63.5 -13.5t-68.5 -11t-43 -4.5v797z" />
    <glyph glyph-name="FL007Dh" unicode="}" horiz-adv-x="631" 
d="M351 726l250 -300l-158 -168l-282 -292l-2 -0.5t-3 -0.5t-3 0.5l-2 0.5q-5 3 -12.5 10.5t-7.5 9.5v170l222 233l-232 327l-90 90l-0.5 1.5t-0.5 2.5q0 2 0.5 4l0.5 2q2 3 5 10.5t5 9.5h4q28 0 59.5 -3.5t62.5 -9.5t60.5 -15.5t53.5 -21.5q21 -11 38 -27t32 -33z" />
    <glyph glyph-name="FL007Eh" unicode="~" horiz-adv-x="544" 
d="M30 266q0 17 6 42.5t14 52.5t16.5 51.5t13.5 39.5q2 5 5.5 12.5t4.5 8.5h338q1 0 8.5 4t11.5 6l35 60h5q10 0 18 -4t8 -15q0 -48 -14.5 -92.5t-34.5 -89.5q-2 -4 -5.5 -9.5t-4.5 -6.5h-348q-2 -3 -8.5 -14.5t-14 -24.5t-14.5 -23.5t-10 -11.5q-2 0 -14 3t-16 7v4z" />
    <glyph glyph-name="FL007Fh" horiz-adv-x="256" 
 />
    <glyph glyph-name="FL00A1h" unicode="&#xa1;" horiz-adv-x="248" 
d="M211 12l3 542q0 7 -13.5 9t-33 0.5t-43 -6.5t-43 -10.5t-33 -11t-13.5 -9.5l-1 -525h14q10 0 21 0.5t21 0.5h14zM41 652l151 1q2 0 5.5 4t4.5 6q4 8 7 22t5 29.5t3 31t1 26.5v16v21q-30 0 -51.5 0.5t-40.5 0.5t-37.5 -0.5t-41.5 -2.5q-11 -20 -14 -48.5t-3 -54.5v-32
q0 -5 1.5 -12.5t9.5 -7.5z" />
    <glyph glyph-name="FL00A2h" unicode="&#xa2;" horiz-adv-x="861" 
d="M542 799h14q10 0 21 0.5t21 0.5h14v-154h186q16 -11 24.5 -19t8.5 -19q0 -18 -40 -57l-86 -5l-93 37v-375q42 2 87.5 3.5t99.5 3.5l-1 -71h-186v-115q0 -6 -28 -13t-63.5 -13.5t-68.5 -11t-43 -4.5v158q-78 3 -147 18t-120.5 42t-81.5 67.5t-30 94.5q0 72 36 124t100 87
q54 29 114 43t129 21v142zM398 208q1 -1 5 -1t6 -1v382q-39 -11 -62.5 -32.5t-36 -48.5t-16 -56.5t-3.5 -57.5q0 -27 2 -54t10.5 -50.5t26.5 -43t50 -32.5l9 -3q-1 1 -6 1l26 -11v5zM398 208q-10 2 -9 2z" />
    <glyph glyph-name="FL00A3h" unicode="&#xa3;" horiz-adv-x="915" 
d="M30 266v-4q4 -4 16 -7t14 -3q3 1 9 5.5t12.5 10t11.5 11t7 8.5h185v-111q0 -23 -9 -36.5t-23 -22t-32 -13t-36 -8.5q0 -1 -0.5 -4.5t-0.5 -5.5q0 -11 4.5 -16.5t16.5 -13.5q4 -3 15 -10t24 -15t24.5 -15t16.5 -10q81 2 156 0.5t148 -4l146 -5t150 -2.5v171l-20 20
l-100 -100l-11 -0.5t-17 -0.5h-10q-6 0 -13 0.5t-13 0.5h-6q-17 2 -44 5t-52.5 6t-44 5.5t-19.5 3.5l-10 10v210h310v30l-7 7.5t-16.5 17.5t-19.5 20t-17 15q-2 2 -10 6t-10 4l-230 30l1 350l-241 4v-345h-195q-1 0 -4.5 -7.5t-5.5 -12.5q-5 -15 -13.5 -38.5t-16.5 -49
t-14 -50t-6 -41.5z" />
    <glyph glyph-name="FL00A4h" unicode="&#xa4;" horiz-adv-x="991" 
d="M240 402q0 -81 28 -136l-238 -265v-40q24 4 51.5 10.5t54.5 16t51.5 22.5t42.5 31l134 134q26 -12 56 -17.5t63 -5.5q55 0 100 13l57 -64q15 -17 32 -33t38 -27q24 -12 53.5 -21.5t60.5 -15.5t62 -9.5t60 -3.5h4q2 2 5 9.5t5 10.5l0.5 2t0.5 4q0 1 -0.5 2.5l-0.5 1.5
l-90 90l-136 191q23 60 23 135q0 59 -20 105l123 129v170q0 2 -7.5 9.5t-12.5 10.5l-2 0.5t-3 0.5t-3 -0.5l-2 -0.5l-204 -212q-51 20 -105 20h-22q-5 0 -10.5 -0.5t-10.5 -1.5l-108 154l-11 0.5t-17 0.5h-10q-6 0 -13 -0.5t-13 -0.5h-6q-12 -1 -43 -4t-66.5 -6t-67 -6
t-43.5 -4v-30q16 -8 37 -20.5t33 -29.5q7 -9 20 -27t30 -40.5t36.5 -48.5t39.5 -51q-17 -29 -26.5 -66.5t-9.5 -85.5zM379 413q0 39 10.5 66t28.5 44t42 24.5t52 7.5q21 0 41 -7.5t35.5 -22.5t24.5 -38.5t9 -54.5q0 -79 -36 -114.5t-93 -35.5q-51 0 -82.5 31t-31.5 100z" />
    <glyph glyph-name="FL00A5h" unicode="&#xa5;" horiz-adv-x="981" 
d="M156 263q0 17 5 33.5t11.5 33t14 32t12.5 30.5q2 5 5.5 12.5t4.5 7.5l149 1v1q-18 62 -42.5 112t-61.5 84t-89 50t-124 10q-2 1 -5.5 4.5t-4.5 5.5l-0.5 2t-0.5 3q0 28 25 52.5t59.5 43t71 29.5t60.5 11q75 0 121.5 -24t74.5 -64.5t42 -94.5t24 -114l10 -50h20q1 0 7 20
t14 47t16.5 55t15.5 44q16 36 36.5 68.5t47.5 57.5t60.5 40t75.5 15q14 0 31 -0.5t33 -4t28.5 -12t17.5 -24.5q1 -5 5 -20t9 -32.5t9.5 -34t6.5 -23.5v-5q0 -9 -6 -12.5t-13 -3.5q-21 0 -40.5 6t-40.5 6q-46 0 -83 -22t-65 -57t-47 -79t-30 -89l110 1q1 0 8.5 4t11.5 6
l30 20h5q10 0 18 -4t8 -15q0 -24 -3 -38t-9 -26t-14 -25t-18 -35q-2 -4 -5.5 -9.5t-4.5 -5.5l-152 -1q0 -17 -0.5 -38t-0.5 -46l124 1q1 0 8.5 4t11.5 6l30 20h5q10 0 18 -4t8 -15q0 -24 -3 -38t-9 -26t-14 -25t-18 -35q-2 -4 -5.5 -9.5t-4.5 -5.5l-151 -1q0 -10 0.5 -19
t0.5 -17v-25q-21 -5 -46.5 -10.5t-52.5 -10t-54.5 -7.5t-52.5 -3q-1 0 -6.5 -0.5t-11.5 0.5t-11 3t-5 8v80l-147 -1q-2 -3 -7 -8.5t-11.5 -11t-12.5 -10t-9 -5.5q-2 0 -14 3t-16 7v4q0 17 5 33.5t11.5 33t14 32t12.5 30.5q2 5 5.5 12.5t4.5 7.5l164 1v84l-145 -1
q-2 -3 -7 -8.5t-11.5 -11t-12.5 -10t-9 -5.5q-2 0 -14 3t-16 7v4z" />
    <glyph glyph-name="FL00A6h" unicode="&#xa6;" horiz-adv-x="265" 
d="M165 857h14q10 0 21 0.5t21 0.5h14l-2 -885q0 -6 -28 -13t-63.5 -13.5t-68.5 -11t-43 -4.5l2 911z" />
    <glyph glyph-name="FL00A7h" unicode="&#xa7;" horiz-adv-x="890" 
d="M240 402q0 -81 28 -136l-238 -265v-40q24 4 51.5 10.5t54.5 16t51.5 22.5t42.5 31l134 134q26 -12 56 -17.5t63 -5.5q55 0 100 13q48 21 89.5 54.5t61.5 82.5q23 60 23 135q0 59 -20 105l123 129v170q0 2 -7.5 9.5t-12.5 10.5l-2 0.5t-3 0.5t-3 -0.5l-2 -0.5l-204 -212
q-51 20 -105 20q-20 -2 -49.5 -6t-63.5 -16t-68.5 -34t-63.5 -59q-17 -29 -26.5 -66.5t-9.5 -85.5zM379 413q0 39 10.5 66t28.5 44t42 24.5t52 7.5q21 0 41 -7.5t35.5 -22.5t24.5 -38.5t9 -54.5q0 -79 -36 -114.5t-93 -35.5q-51 0 -82.5 31t-31.5 100z" />
    <glyph glyph-name="FL00A8h" unicode="&#xa8;" horiz-adv-x="490" 
d="M207 812l-151 -1q-2 0 -5.5 -4t-4.5 -6q-5 -8 -8 -22t-5 -29.5t-2.5 -31t-0.5 -26.5v-16v-21q30 0 51.5 -0.5t40.5 -0.5t37.5 0.5t41.5 2.5q11 20 14 48.5t3 54.5v32q0 5 -1.5 12.5t-9.5 7.5zM449 813l-151 -1q-2 0 -5.5 -4t-4.5 -6q-5 -8 -8 -22t-5 -29.5t-2.5 -31
t-0.5 -26.5v-16v-21q30 0 51.5 -0.5t40.5 -0.5t37.5 0.5t41.5 2.5q11 20 14 48.5t3 54.5v32q0 5 -1.5 12.5t-9.5 7.5z" />
    <glyph glyph-name="FL00A9h" unicode="&#xa9;" horiz-adv-x="2336" 
d="M143 272l194 191v123q-13 -5 -32 -12.5t-41 -17t-43.5 -19.5t-38.5 -19t-28 -15.5t-11 -8.5v-222zM1586 743h105v-701h-105v701zM543 294q0 2 0.5 3.5t3.5 7.5l182 109q-12 13 -28.5 24t-30.5 19q-8 5 -31 18t-46 25q-13 8 -23 14t-15 8l-14 13q9 13 17.5 19t13.5 10
q2 1 3.5 2l1.5 1l408 222v-123l-12 -12q-11 -6 -38 -22t-57 -33.5t-57 -33.5t-38 -22q-2 -1 -5.5 -3t-8.5 -5q9 -5 22.5 -11.5t30.5 -14.5l33 -16.5t31.5 -16t26 -14t17.5 -9.5q6 -6 14 -9q7 -4 15.5 -8t19.5 -8l-17 -17l-189 -121l2 1l-7 -6q47 -32 102 -61t104 -52l11 -11
v-121q-14 0 -20 2t-11 5h1l-6 3q-11 7 -28.5 16.5t-38.5 21.5q-39 22 -86 48.5t-90.5 51.5t-78.5 44.5t-48 26.5q-2 0 -4 2q-6 4 -19 13.5t-13 19.5zM1808 189q1 2 4.5 5.5l5.5 5.5l3.5 2.5t5.5 4.5q6 4 15 11.5t18 14.5t16 13t10 8q18 -6 35 -20t33 -30q14 -14 27 -25.5
t22 -11.5q1 0 3 4.5t4 7.5l82 141h-327l260 450q8 0 10.5 -0.5t4.5 -2.5q8 -4 11 -5l12.5 -7.5t14.5 -9.5t12 -8.5t6 -4.5q7 -6 25 -22.5t38.5 -35.5t38.5 -36t25 -24l-48 -62l-10 -12l-6.5 1.5t-10.5 3.5h1q-2 1 -5 2t-4 2q-4 2 -12 8t-17 12q-12 8 -22.5 15.5t-18.5 12.5
q0 -1 -2 -3q-6 -9 -19 -29.5t-27.5 -44t-27.5 -44t-18 -28.5l-0.5 -1t-1.5 -2h332l-271 -448q-4 2 -10 5.5t-10 5.5l1 -1q-4 2 -7 5t-5 4q-11 9 -38.5 32t-58.5 49t-59 49t-38 32zM1065 750h32q2 0 29 -3.5t69 -8.5q30 -4 65 -8t69 -8t65 -7.5t53 -6.5q3 0 9 -1.5t13 -3
t13.5 -3.5t9.5 -3v-16l-10 -40q-4 -16 -7 -30t-5 -20q-2 -3 -7 -8.5t-8 -7.5h-10l-260 38v-396l148 68l9 8q-3 0 -13 11t-13 17l-50 84l1 -1q-3 4 -6 13t-3 13q23 12 56 28t66 27l116 -221q3 -8 3.5 -9.5t0.5 -2.5q0 -3 -2 -7q-2 -3 -6.5 -7t-7.5 -6l2 1q-14 -7 -44.5 -21.5
t-68.5 -32.5t-80 -37.5t-79 -37.5q-33 -16 -59.5 -28.5t-40.5 -17.5l-10 -4q-7 -3 -16 -7t-23 -8v711zM30 567l427 209v-719h-117v235q-15 -13 -37.5 -32l-45 -38t-41.5 -35t-26 -23v1q-8 -8 -23 -22.5t-23 -22.5l1 1q-3 -3 -4 -5q-2 -7 -3.5 -23t-1.5 -28v-16h-106v518z
" />
    <glyph glyph-name="FL00AAh" unicode="&#xaa;" horiz-adv-x="556" 
d="M30 468q39 51 72 107t63 113l40 80q6 13 9.5 25t8 22t11.5 18.5t21 14.5q8 4 21.5 9.5t24.5 5.5q7 0 9 -5l145 -310q10 -20 24 -40.5t31 -34.5q4 -3 10 -5t6 -8l-1 -2q-3 -5 -5 -5h-155q-5 0 -10 18t-11.5 39t-15.5 38.5t-22 16.5l-26 -2q-15 -1 -36 -2t-41.5 -4
t-36.5 -8.5t-21 -15.5l-40 -80l-5 -5l-6.5 -0.5t-9.5 -0.5h-6q-3 0 -7 0.5t-7 0.5h-4q-7 0 -18.5 2t-11.5 3v15zM185 620v-2q1 -2 3 -3.5l2 -1.5h102l-47 110l-6 6l-54 -106v-3z" />
    <glyph glyph-name="FL00ABh" unicode="&#xab;" horiz-adv-x="480" 
d="M253 304l1 152q0 1 2 3q2 8 11 9q12 14 37.5 35.5t51.5 42t46 35t21 14.5h21q0 -30 0.5 -51.5t0.5 -40.5q0 -9 1 -14.5t1 -10.5v-12v-8q0 -4 -1 -10q-4 -2 -15.5 -10.5t-25 -18.5t-26.5 -20.5t-21 -17.5q8 -8 21.5 -18.5t27.5 -21t25.5 -18t16.5 -9.5q1 -6 1 -11v-7v-11
v-11v-14q0 -19 -0.5 -40.5t-0.5 -51.5h-21q-1 0 -20.5 14.5t-46 34.5t-52.5 41.5t-39 35.5q-5 0 -11 1t-6 9zM30 302l1 152q0 1 2 3q2 8 11 9q12 14 37.5 35.5t51.5 42t46 35t21 14.5h21q0 -30 0.5 -51.5t0.5 -40.5q0 -9 1 -14.5t1 -10.5v-12v-8q0 -4 -1 -10
q-4 -2 -15.5 -10.5t-25 -18.5t-26.5 -20.5t-21 -17.5q8 -8 21.5 -18.5t27.5 -21t25.5 -18t16.5 -9.5q1 -6 1 -11v-7v-11v-11v-14q0 -19 -0.5 -40.5t-0.5 -51.5h-21q-1 0 -20.5 14.5t-46 34.5t-52.5 41.5t-39 35.5q-5 0 -11 1t-6 9z" />
    <glyph glyph-name="braceleft" unicode="&#xac;" horiz-adv-x="716" 
d="M99 199q-2 -1 -5 -6.5t-4 -7.5q-2 -2 -6.5 -11.5t-9 -19.5t-8.5 -18t-5 -8v-4q24 6 43 21t32 35.5t20 44t7 45.5q0 26 -5 51.5t-11 50.5t-11 50t-5 51q0 67 26 114t69.5 75.5t100 40.5t117.5 11q4 12 8.5 28.5t10.5 33t15 31.5t22 23l-33 14h-147q-24 -8 -50 -11.5
t-46 -9.5q-44 -12 -80.5 -40t-62 -65.5t-39 -81.5t-11.5 -89q-2 -40 9 -78t24.5 -75t25 -74.5t11.5 -76.5v-9q0 -8 -1 -19t-1 -16zM417 92l8 -1l9 -9l12 -8t18.5 -12.5t18 -12t11.5 -5.5q37 -20 73.5 -29t78.5 -9q0 10 -4.5 21t-10.5 21t-13 19t-12 15q-15 27 -24 56.5
t-13.5 58t-6.5 54.5t-3 47q-5 13 -14 19t-18.5 9.5t-19 7.5t-13.5 13q0 7 9 9t17 2h9q22 0 36.5 -16.5t30 -37t36 -37.5t54.5 -17q0 13 -10.5 36.5t-27 52t-37 59t-41 58t-38.5 49t-29 31.5q-17 14 -43 21.5t-46 7.5q-41 0 -72.5 -15t-53.5 -41t-33.5 -61.5t-11.5 -76.5
q0 -31 5.5 -60t12.5 -58t12.5 -58.5t5.5 -61.5q0 -27 -3 -48t-15 -51q19 6 38 16t38 19t39 16t41 7zM174 339q0 -21 9 -44.5t17 -43.5q2 13 6.5 24t9.5 21.5t8.5 21t3.5 21.5q0 7 -1.5 16t-17.5 5q7 10 9 19t2 19h-7q-6 0 -16.5 -0.5t-14.5 -0.5q-5 -1 -11 -4t-7 -5
q-3 -11 5.5 -24t20.5 -13q-2 0 -9 -3t-7 -7v-2zM159 449v-42q28 3 47.5 15t30.5 31t16 43t5 51q4 0 8.5 -0.5t9.5 -0.5t8 2t3 11v3q0 3 -3.5 12t-7.5 19.5t-8 18.5t-6 10q0 3 -3.5 6t-4.5 3l-34 -34l34 -43q-2 0 -3 -1t-2 -1l-4 2l-34 26l-5 1q-1 0 -2.5 -0.5l-1.5 -0.5
l-25 -43l34 -17v-7q-10 0 -14 -1t-7 -1q-2 0 -6.5 1.5t-15.5 7.5q-1 -3 -2 -7t-3 -11q-3 -11 -4 -16t-1 -15v-8h53q-11 -5 -24.5 -9.5t-27.5 -4.5zM288 645q-2 0 1 -10t5 -16q0 -2 3 -9t6.5 -15t6.5 -15.5t3 -9.5l0.5 -0.5t3.5 -0.5q5 0 7 4t2.5 9t0 11t-0.5 9q0 17 -1 30
t-6 31h-6q-5 0 -15 -4t-10 -14zM343 652q0 -21 1.5 -35.5t6.5 -36.5q9 -2 19.5 11t21.5 31t21.5 37t20.5 29h-24q-19 0 -32 -1t-35 -9v-26z" />
    <glyph glyph-name="FL00ADh" unicode="&#xad;" horiz-adv-x="463" 
d="M30 269q0 17 6 41.5t14 50t16.5 49t13.5 38.5q2 5 5.5 12.5t4.5 7.5l262 -1q1 0 8.5 4t11.5 6l30 20h5q10 0 18 -4t8 -15q0 -48 -15.5 -88.5t-35.5 -85.5q-2 -4 -5.5 -9.5t-4.5 -5.5l-272 1q-2 -3 -7 -8.5t-11.5 -11t-12.5 -10t-9 -5.5q-2 0 -14 3t-16 7v4z" />
    <glyph glyph-name="FL00AEh" unicode="&#xae;" horiz-adv-x="2343" 
d="M2072 589q-1 -2 -4 -5q1 0 4 5zM162 298l173 167v104q-21 -8 -51 -19.5t-57 -23.5t-46 -21.5t-19 -12.5v-194zM1573 744h123v-703h-123v703zM539 297q0 5 0.5 6.5t4.5 8.5l174 104q-11 9 -24.5 17t-24.5 15l1 -1q-8 5 -31.5 18t-45.5 25q-13 7 -22.5 12.5t-14.5 7.5
l-22 21q15 20 24 26.5t15 11.5q2 1 2 0v0l421 226v-140l-15 -14q-10 -6 -35 -20.5t-54 -31t-56.5 -32t-42.5 -24.5q8 -5 17 -9t19 -9l33 -16.5t32.5 -16.5t27.5 -14.5t18 -9.5q2 -2 16 -9q7 -5 43 -17l-33 -31l-178 -114q44 -29 95.5 -55t96.5 -46l16 -16v-131
q-23 0 -31.5 2t-13.5 6h1l-6 2q-11 7 -28.5 17t-37.5 22q-38 21 -84 46.5t-89.5 49t-78 42.5t-48.5 27q-2 0 -7 5q-8 5 -21 15.5t-13 23.5zM1794 199q2 3 6.5 7.5t8.5 6.5q0 2 6 6t16 11.5t19.5 14.5t17 13t10.5 8q24 -7 42 -21t34 -30q12 -13 22.5 -22.5t17.5 -10.5
q-3 0 -3 2l76 128h-323l269 459q13 0 17 -0.5t6 -3.5q4 -1 12 -7q5 -3 13 -7.5t15 -9t12.5 -8t5.5 -4.5l-1 1q7 -6 26 -23.5t40.5 -37t40.5 -37.5t26 -24l-52 -68q-3 -3 -4.5 -5t-9.5 -10l-10 2t-15 4l1 -1q-2 2 -5 3t-4 2q-4 2 -12.5 8t-18.5 12q-8 5 -16.5 11t-14.5 10
q-8 -11 -19 -27.5t-22.5 -34.5t-22.5 -35t-18 -28h330l-282 -459l-15 7.5t-14 8.5l2 -1l-7 3.5l-5 2.5l-38.5 31.5t-58.5 48.5t-58.5 49t-37.5 32zM1056 751h41q2 0 30 -3.5t69 -8.5h-1q30 -3 65 -7.5t69 -8.5t64.5 -7.5t52.5 -5.5q8 -2 26.5 -7t26.5 -7v-22q-2 -5 -5 -17
t-6 -25q-4 -15 -7.5 -31t-5.5 -22q-2 -2 -8 -9t-11 -9h-15l-247 35v-359l132 58l11 10q-6 0 -17.5 5t-13.5 8l-49 82l1 -2q-3 5 -7 18.5t-4 18.5q24 12 60.5 29t75.5 30l121 -227l2.5 -7.5t0.5 -4.5q0 -5 -0.5 -6l-2.5 -5q-2 -3 -9.5 -9t-12.5 -8l6 1q-14 -7 -44 -21
l-67.5 -31.5t-79 -36.5t-78.5 -36q-33 -16 -60 -28t-40 -18h1l-4 -1.5t-8 -3.5l1 1q-3 -2 -6.5 -3t-9 -3t-14 -4.5t-23.5 -6.5v715zM30 569l443 213v-727h-136v219q-17 -14 -37 -30.5t-39 -32.5t-34.5 -29t-22.5 -19l1 1q-8 -8 -22.5 -21.5t-21.5 -21.5l2 2q-1 -2 -3 -4
q-2 -8 -3.5 -22t-1.5 -24v-25h-125v521z" />
    <glyph glyph-name="FL00AFh" unicode="&#xaf;" horiz-adv-x="532" 
d="M30 665q0 17 5 33t11.5 32t14 31t12.5 30q2 5 5.5 12.5t4.5 7.5l338 1q1 0 8.5 4t11.5 6l30 20h5q10 0 18 -4t8 -15q0 -24 -3 -37.5t-9 -25t-14 -24t-18 -34.5q-2 -4 -5.5 -9.5t-4.5 -5.5l-348 -1q-2 -3 -7 -8.5t-11.5 -11t-12.5 -10t-9 -5.5q-2 0 -14 3t-16 7v4z" />
    <glyph glyph-name="FL00B0h" unicode="&#xb0;" horiz-adv-x="1065" 
d="M508 56q7 16 11 33t7 35q-2 0 -4 0.5t-2 1.5h-1q-1 0 -4 -7.5t-7 -16.5t-7.5 -17.5t-5.5 -10.5l-0.5 -0.5t-1.5 -0.5l-1 1l-0.5 1.5t-0.5 2.5q-2 2 -9 11t-9 12l-1 2q0 5 3.5 9.5t8 8.5t8 8.5t3.5 9.5v2q-1 1 -4 3l-3 2h-2h-1q-1 0 -4 -2t-4 -3t-5 -4.5t-8.5 -7
t-8.5 -6.5t-6 -4l-1 -1q-3 0 -6.5 3t-7.5 5q-2 1 -10.5 3.5t-11.5 4.5v2l8 4l12 6t15.5 6t15.5 9l-3 3q-26 15 -48.5 29t-45.5 32l-4 4l10 6h1h2l153 -96q4 -4 7 -4h3l2 0.5t3 0.5l136 91q1 1 5.5 4t5.5 4h1q5 0 11 -6l-5 -4l-88 -64l19 -10l14 -5l12 -6l8 -4v-2
q-3 -2 -12 -4.5t-11 -3.5q-3 -2 -7 -5t-7 -3l-1 1l-35 27h-2q-9 0 -9 -7v-3l23 -33v-1v-1l-2 -3l-17 -22q-2 -2 -4 -2q-5 3 -8 11.5t-5.5 17t-5 15t-6.5 6.5q-5 0 -6 -2t-1 -6q0 -14 5 -29.5t10 -26.5v-8l-25 -52q-5 3 -6.5 9.5t-3.5 10.5q-3 4 -9.5 17.5t-8.5 18.5z
M467 124q3 0 3 -3q0 -2 -3 -2q-2 0 -2 2q0 3 2 3zM274 183q0 17 -5.5 33.5t-12 33t-13 32.5t-7.5 33h-4q3 -26 14.5 -50t11.5 -50q0 -12 -6.5 -22.5t-20.5 -10.5q-10 0 -19 4t-9 15t5 18.5t16 7.5q6 0 11 -2.5t5 -10.5q0 -4 -3 -7.5t-7 -3.5q0 3 1 6t1 5q0 6 -6 6t-11 -5
t-5 -13t5.5 -10.5t12.5 -2.5q14 0 18 10t4 21q0 7 -1.5 18.5t-12.5 11.5q-5 0 -9 -4.5t-11 -4.5q-19 0 -19 16q0 6 4 7t9 1h5v-8h-9l-1 -0.5t0 -1.5q2 -5 4 -5.5t6 -0.5q11 0 13 13q-2 29 0.5 50t2.5 46v10q-6 -5 -10 -10t-8 -11h-6q0 8 0.5 14.5t3.5 13.5q-5 -3 -11.5 -8
t-11.5 -5t-5 3v1t1 3q1 3 1.5 4t1.5 4q2 5 5 10.5t3 7.5q-7 -4 -15 -8t-16 -4q0 11 5 19t11 16h-2q-5 0 -11 -4t-12 -5h-2q-3 0 -3 1v2q0 5 6.5 12.5t11.5 11.5h-2h-1q-3 -2 -11.5 -4.5t-11.5 -3.5q-1 0 -4 1t-3 2h-1v1t0.5 1.5l0.5 0.5q0 1 2 3.5t3 3.5l28 28h-2h-1
q-9 -3 -21 -7.5t-22 -4.5q0 12 9 19t17 14h-45q-1 0 -2 1.5t-2 2.5v1v2q4 5 13 9t12 6q-2 0 -9.5 0.5t-9.5 1.5t-10 2t-8 7v1q4 5 12.5 9t13.5 6l-21 5q-4 1 -9.5 3l-5.5 2v4l22 4l-32 15l-5 6q2 2 6.5 3.5t8.5 3.5l-3 3l-22 15l-3 2v1q0 3 6.5 6.5t8.5 4.5v3
q-8 2 -15.5 6.5t-9.5 12.5h25l3 4q-3 2 -8.5 6.5t-11.5 10t-10.5 11t-4.5 8.5l0.5 0.5t1.5 0.5q2 0 5.5 -0.5t5.5 -0.5q0 10 -7.5 17.5t-7.5 18.5h4q2 -1 9 -5.5t9 -5.5q1 -2 6 -4.5t6 -3.5l1 -1q1 0 1.5 0.5l0.5 0.5q-17 20 -25.5 40t-8.5 46q4 0 8 -5t8.5 -12.5l9 -15
t8.5 -11.5q3 -4 10 -10.5t8 -6.5h2q-5 13 -12 24.5t-13 23.5t-10.5 25t-4.5 28q0 1 1 4.5t1 5.5l3 -3q8 -21 17.5 -43t27.5 -38v3q-11 23 -19.5 48.5t-8.5 51.5v8q0 8 1.5 16t7.5 8q0 -10 1.5 -26.5t5 -34t9.5 -33t16 -23.5v3q0 20 -4 37.5t-4 36.5v8q0 5 0.5 8.5t0.5 8.5v4
q0 3 1.5 10.5t4 15t6 13.5t6.5 6h1q-4 -17 -4.5 -26t-0.5 -23q0 -23 3.5 -46.5t11.5 -45.5v7q0 13 -1.5 24.5t-1.5 24.5q0 20 4 40t15 38v-3q0 -13 -3 -26t-3 -27q0 -42 18 -82t44 -72v-4q-20 -4 -36 -14.5t-16 -32.5q0 -14 11.5 -24.5t25.5 -10.5q8 0 15 5.5t7 14.5
q0 8 -3 13.5t-13 5.5t-17 -10q-1 0 -1 2v4q0 11 11.5 16t21.5 5q29 0 51 -18.5t33 -44.5h-2q-7 0 -12.5 4t-12.5 4h-11q-5 0 -7 -5q2 -1 12 -1.5t13 -5.5q-14 -6 -14 -14t6 -9q-2 6 4.5 12t11.5 6h2q10 -4 17 -13t11 -20.5t5.5 -23.5t1.5 -21t-2 -22.5t-7 -25.5t-13.5 -20.5
t-21.5 -8.5q-1 0 -3.5 0.5t-3.5 0.5q13 32 13 70q0 12 0.5 27t-7.5 26v-3q0 -11 1 -21t1 -21v-6v-14v-3q0 -3 -1.5 -11.5t-3.5 -18t-4.5 -17t-5.5 -8.5q-3 0 -3 2l1.5 3.5t1.5 4.5v2q0 5 -5.5 9t-9.5 4q-8 0 -11.5 -6.5t-3.5 -13.5q0 -12 11 -17t22 -5t26 8t19 21v-7
q0 -14 -14.5 -20.5t-26.5 -10.5q-8 -15 -10.5 -32.5t-2.5 -34.5q0 -32 12.5 -62t44.5 -44q0 -1 3.5 -2t8 -2.5t8.5 -2.5t5 -1q0 -2 4 -2h-2q-2 0 -3.5 -0.5t-3.5 -0.5h-2q-22 0 -37.5 11t-25 28.5t-14 38t-4.5 39.5q0 17 3.5 32t3.5 31v4q-7 -11 -9 -23.5t-2 -25.5v-17
q0 -26 6 -46.5t17 -43.5q0 -1 1 -4.5t2 -5.5q2 -11 6.5 -28.5t6.5 -31.5v-6q0 -13 -6.5 -25.5t-22.5 -12.5q0 4 9.5 11.5t9.5 23.5zM782 185q0 22 6 42.5t13 40.5t13 40.5t6 42.5q0 16 -2 33.5t-8 31.5q0 -1 -0.5 -3t-0.5 -3q0 -14 3.5 -28.5t3.5 -30.5q0 -18 -4.5 -39
t-14 -38t-25 -28.5t-37.5 -11.5q-2 0 -5.5 0.5t-4.5 0.5q1 4 9 4.5t13 2.5q32 14 47.5 44t15.5 65q0 16 -2.5 34.5t-12.5 32.5q-4 4 -11 6t-13.5 4t-11.5 6.5t-5 14.5v5q10 -11 21.5 -19t25.5 -8q11 0 21.5 5t10.5 17q0 17 -16 17h-2q-3 0 -6.5 -0.5t-3.5 -3.5v-19
q-3 0 -6 6t-5 13.5t-3 15.5t-1 11v3q0 5 -0.5 9.5t-0.5 9.5v8q0 23 2 35t11 31l2 4t1 3q0 3 -5.5 6t-7.5 5v2q4 2 13 3.5t11 1.5q0 5 -8 5h-9q-14 0 -27 -10v2q0 2 0.5 3l2.5 5q14 21 32 38t45 17q14 0 25 -6.5t11 -21.5q-6 0 -8.5 5.5t-9.5 5.5t-12.5 -4.5t-5.5 -10.5
q0 -11 7.5 -17t18.5 -6q15 0 24 11t9 25q0 23 -15.5 31.5t-34.5 13.5v2q25 38 42.5 75t17.5 84q0 11 -1 22t-1 22v4q2 -1 4 -7l4.5 -13.5t4 -14t2.5 -8.5q0 -1 0.5 -12t1.5 -17v-1q0 -17 -2.5 -29.5t-4.5 -29.5v-2v-2q8 14 12.5 31t4.5 33v82q11 -14 14.5 -32.5t3.5 -34.5
q0 -21 -5 -41.5t-5 -40.5v-3q9 7 15.5 22.5t10 33.5t5.5 35t2 28h2l6 -13v-13v-4q0 -29 -8.5 -53.5t-19.5 -50.5v-2q14 11 22 25.5t16 32.5l7 22q0 1 1 3t1 3l3 -3v-10q0 -24 -10.5 -46t-21.5 -42l-8 -10l-0.5 -0.5t-0.5 -1.5l1 -1q17 11 28.5 28.5t21.5 34.5h1q4 0 4 -4v-6
q0 -22 -12 -41.5t-24 -36.5q3 0 6 3l30 19h3q0 -11 -5 -18t-13 -14q2 -1 9 -1.5t9 -2.5q-8 -14 -19.5 -21.5t-19.5 -18.5h29q0 -5 -3.5 -8t-8 -5t-8.5 -4t-6 -5q4 -1 9.5 -3t5.5 -7q0 -8 -10 -12.5t-15 -9.5q2 -2 7.5 -3t5.5 -4v-4q-10 -5 -19.5 -8.5t-18.5 -8.5l23 -4v-2
q0 -3 -6 -4.5t-7 -2.5l-20 -5q4 -6 13.5 -7.5t9.5 -9.5q0 -5 -3 -5l-35 -5q2 -2 8.5 -4.5t8.5 -3.5q3 -2 7 -4t4 -5v-1q-1 -1 -3 -2.5t-3 -1.5h-42q1 -1 4 -4.5t7 -7t7 -7.5t5 -5q0 -1 1 -2.5l1 -1.5q0 -3 -2.5 -3.5t-4.5 -0.5q-10 0 -19 5.5t-20 5.5h-2l33 -33v-7
q-8 0 -15 3.5t-15 3.5h-1q2 -2 9 -10t7 -13q0 -4 -5 -4t-13 3.5t-10 5.5v-2q5 -6 9.5 -14.5t4.5 -17.5q-8 0 -13.5 3t-13.5 3q0 -8 4 -14t4 -14q-8 0 -14.5 4t-11.5 9v-2q0 -6 2 -12t2 -14h-7l-19 21v-6v-7q0 -1 0.5 -6.5t1.5 -11.5t1.5 -11t0.5 -6v-12v-20v-18v-13
q3 -5 5 -6.5t7 -1.5h5q4 0 4 3q1 2 0 3.5l-1 1.5h-10v2t1 3q2 3 4 3h5h3q7 0 8 -5q2 -9 -4 -14t-12 -5q-8 0 -13 4.5t-12 4.5q-8 0 -10 -11.5t-2 -16.5q0 -11 3.5 -22t17.5 -11q6 0 13 3t7 10q0 1 -0.5 2.5t-0.5 2.5q-1 2 -5.5 6.5l-6.5 6.5q-2 0 -5.5 -1.5t-4.5 -1.5v-14
q-5 2 -6.5 4t-1.5 7q0 8 5.5 10.5t10.5 2.5q11 0 16 -8t5 -18q0 -11 -8.5 -15t-18.5 -4q-14 0 -21 9.5t-7 23.5q0 13 3.5 25t8 24t8 24t3.5 25v9q-2 -18 -8.5 -35t-13.5 -34.5t-12.5 -35t-5.5 -35.5q0 -12 5.5 -18.5t14.5 -14.5h-3q-15 0 -20 12t-5 24zM298 344q0 2 0.5 4.5
l0.5 2.5q0 1 4 4.5t6 5.5q2 -32 10 -55.5t25 -48.5q4 -6 10.5 -8t10.5 -7q-6 -6 -10 -7q-29 17 -43 47t-14 62zM699 242q4 5 10.5 6t9.5 7q8 14 14.5 25t11.5 22.5t8 24.5t5 31q5 0 7 -6.5t2 -11.5q0 -29 -12.5 -52t-32.5 -43q-4 -5 -6 -7t-7 -2q-6 0 -10 6zM729 247
q3 0 3 -2q0 -3 -3 -3q-2 0 -2 3q0 2 2 2zM232 322h-1v-1q0 -2 1.5 -1.5t1.5 1.5t-2 1zM870 395l-0.5 -0.5t-0.5 -1.5v-2h1q3 0 3 2t-3 2zM807 420q-1 0 -1 -2t1 -2q2 0 2 2t-2 2zM747 522q0 20 4.5 38t20.5 32q1 1 4 2.5t4 3.5h2q-28 -37 -28 -81v-4v-11v-3q3 29 8.5 50.5
t22.5 45.5h1h1l11 -6h2v-4q-10 -19 -14 -32.5t-4 -33.5v-10q0 -6 0.5 -11.5t2.5 -13.5q1 -2 3 -14t4 -16l3 -8v-3q-15 0 -24.5 8t-14.5 19.5t-7 25.5t-2 26zM304 459l0.5 -0.5t0.5 -2.5t-1 -2v0q-2 0 -2 2q0 3 2 3zM286 469q-4 0 -5.5 -3t-1.5 -6h3q3 0 6 1t3 3v2
q-1 0 -3 1.5zM780 469q-3 0 -5 -2.5t-2 -4.5h10l-0.5 3.5t-2.5 3.5zM894 473q-3 0 -3 -1q0 -3 3 -3q1 0 1 3q0 1 -1 1zM289 489v-8q2 0 4.5 0.5t2.5 2.5q0 5 -5 5h-2zM306 484q-2 0 -2 -2q0 -1 1 -1q2 0 2 1t-1 2zM773 489q-3 0 -3.5 -3t-0.5 -5h9q0 2 -1 5t-4 3zM758 497
q-3 0 -3 -6q0 -7 3 -4v4v6zM301 562q0 -7 2 -14t3 -13t2 -22t1 -22v6v15v5v24t-8 23v-2zM290 509q0 -2 0.5 -5t3.5 -3q1 0 1.5 0.5l0.5 0.5q1 0 3 2v1q0 3 -3 3.5t-6 0.5zM766 509q0 -2 1 -5t4 -3h1v1l1.5 2t1.5 3q0 2 -7 2h-2zM290 527h1q0 -3 3 -3q4 0 4.5 3t0.5 5
q-2 0 -5.5 -0.5t-3.5 -4.5zM764 527h1q0 -3 2 -3h2q2 0 2.5 3t0.5 5q-1 0 -4.5 -0.5t-3.5 -4.5zM767 553q0 -2 2 -4t3 -2q3 -2 4 0.5t1 5.5q0 1 -1 3t-4 1q-1 -1 -3 -2.5zM289 554v-5h7v5h-7zM288 585h1q1 -3 4.5 -9.5t5.5 -8.5v3q0 5 -3 9.5t-7 8.5q0 -1 -0.5 -1.5
t-0.5 -1.5zM271 572q-1 0 -1.5 -0.5l-0.5 -0.5q0 -2 1.5 -1.5t1.5 1.5zM278 573q0 -3 3 -3.5t5 -0.5v2v5t-2 4l-3 -3t-2 -3h-1v-1zM777 574q0 -5 3 -5q5 0 5 5q0 2 -0.5 4t-2.5 2q-5 0 -5 -6zM193 589q0 -8 5 -13t13 -5q2 0 4 0.5t3 0.5q-8 2 -13 6.5t-5 12.5v7q1 1 6 5.5
t7 6.5h-2q-8 0 -13 -6.5t-5 -14.5zM866 589q0 -8 -8 -11.5t-13 -5.5q1 -1 4 -1h3q9 0 14 5t5 13t-5.5 14.5t-13.5 6.5h-1q6 -3 10.5 -8.5t4.5 -12.5zM268 578q-1 0 -1 -3q0 -1 1 -1t1 1q0 2 -1 2v1zM286 592q-2 0 -2 -3q0 -1 2 -1h1t1 1q0 2 -1 2.5zM284 595q-2 0 -2 -3
t2 -3q1 0 1 3t-1 3zM281 598q-2 0 -2 -3t2 -3t2 3t-2 3zM297 641q0 2 0.5 5.5t1.5 3.5l5 5l5.5 3t13.5 6.5t15.5 7.5t12.5 7q45 19 90.5 27.5t94.5 8.5q51 0 97.5 -11t93.5 -31q9 -4 21.5 -9.5t18.5 -13.5q0 -2 0.5 -5t0.5 -5q0 -6 -2.5 -16t-10.5 -11v27l-1 1t-1 2
q-51 26 -106 41.5t-112 15.5h-24q-11 0 -23 -2q-31 -5 -61 -11.5t-58 -18.5q-7 -3 -17 -7.5t-19.5 -9t-16 -8l-6.5 -3.5v-30q-13 12 -13 31zM218 615q-2 0 -2 -2q0 -3 2 -3t2 3q0 2 -2 2zM845 615q-2 0 -2 -2q0 -3 2 -3q3 0 3 3q0 2 -3 2zM228 632q0 -5 1.5 -6.5t8.5 -2.5
q5 -2 6.5 3t1.5 8q0 9 -10 9q-8 0 -8 -11zM276 625q-2 0 -2 -2q0 -3 2 -3l1 0.5t1 2.5t-1 2h-1zM851 665q-20 0 -36.5 -14t-27.5 -28h3q14 16 29 27t36 15h-4zM265 634l1 -1q1 -2 3.5 -5t4.5 -3v3q-2 0 -4.5 3t-3.5 4q0 -1 -1 -1v0zM817 634q0 -5 3.5 -7t6.5 -2q10 0 10 7
q0 11 -10 11q-3 0 -6.5 -2.5t-3.5 -6.5zM264 640q-3 0 -3 -2q0 -3 3 -3q1 0 1 3q0 2 -1 2zM69 643q-2 0 -2 -3q0 -2 2 -2t2 2q0 3 -2 3zM222 663q3 -2 12 -6.5t12 -6.5q1 0 6 -4.5t6 -5.5l1 -1h1q0 1 1 1q-5 8 -15.5 15.5t-20.5 7.5h-3zM218 665q0 1 -4 1t-3 -1q0 -1 3 -1
q4 0 4 1zM89 721q-2 0 -2 -3t2 -3q3 0 3 3t-3 3zM99 746q-2 0 -2 -3q0 -2 2 -2q3 0 3 2q0 3 -3 3zM113 766q-3 0 -3 -3q0 -2 3 -2q1 0 1 2q0 3 -1 3zM138 769q-3 0 -3 -3t3 -3q1 0 1 3t-1 3zM135 773q-2 0 -2 -2t2 -2v2v2zM944 925q1 0 1 -3q0 -2 -1 -2q-2 0 -2 2q0 3 2 3z
" />
    <glyph glyph-name="FL00B1h" unicode="&#xb1;" horiz-adv-x="525" 
d="M30 378q0 17 4.5 31t10.5 27t13 26t12 28q2 5 5.5 12.5t4.5 7.5h121v94q-6 4 -7 17t-3 20q0 2 3 14t7 16h4q17 0 29.5 -4.5t24 -10.5t23.5 -13t27 -12q5 -2 12.5 -5.5t7.5 -4.5v-110h89q1 0 8.5 4t11.5 6l25 8h5q10 0 18 -4t8 -15q0 -24 -2.5 -36t-7 -21.5t-12 -21
t-17.5 -33.5q-2 -4 -5.5 -9.5t-4.5 -5.5h-115v-100q0 -1 4 -8.5t6 -11.5l2 -29q0 -10 -4 -18t-15 -8q-24 0 -35 2t-19.5 6.5t-19 12t-32.5 17.5q-4 2 -9.5 5.5t-5.5 4.5v126h-105q-4 -6 -17 -11t-20 -7q-2 0 -14 3t-16 7v4zM31 34q0 17 4.5 31t10.5 27t13 26t12 28
q2 5 5.5 12.5t4.5 7.5l338 1q1 0 8.5 4t11.5 6l25 8h5q10 0 18 -4t8 -15q0 -24 -2.5 -36t-7 -21.5t-12 -21t-17.5 -33.5q-2 -4 -5.5 -9.5t-4.5 -5.5l-348 -1q-4 -6 -17 -11t-20 -7q-2 0 -14 3t-16 7v4z" />
    <glyph glyph-name="FL00B2h" unicode="&#xb2;" horiz-adv-x="1671" 
d="M1282 298q1 0 -1 1zM1373 643h6v56h-6v-56zM509 677q0 6 0.5 11.5t1.5 10.5h-14q0 -5 0.5 -10.5t1.5 -11.5q1 -10 1.5 -19t0.5 -12t3 -3t3 3t0.5 12t1.5 19zM856 677q0 6 0.5 11.5t1.5 10.5h-14q0 -5 0.5 -10.5t1.5 -11.5q1 -10 1.5 -19t0.5 -12t3 -3t3 3t0.5 12t1.5 19z
M1030 437l0.5 -0.5t1.5 -0.5v108q-5 -1 -10.5 -2t-5.5 -4v-88q0 -2 4.5 -6.5t9.5 -6.5zM1558 696q0 2 -5.5 3t-10.5 2v-163l0.5 -0.5t2.5 -0.5q0 -2 2 -2q4 -1 3 -1h1q2 2 4.5 7t2.5 7v148zM1078 83q5 2 9 3.5t5 -0.5v279q-10 -2 -18 -8t-8 -16v-255l0.5 -0.5t2.5 -0.5
q0 -2 2 -2h7zM1340 742h6q5 0 8 1q3 0 6.5 0.5t5.5 0.5h4q13 0 25 -3.5t18 -23.5v-19q0 -6 0.5 -10.5t0.5 -6.5q0 -5 -0.5 -14.5t-0.5 -15.5v-6q-1 -6 -6.5 -15.5t-10.5 -9.5h-56v122zM467 742h17q3 0 5.5 0.5t4.5 0.5h3q12 0 22 -2t21 -13v-23q0 -5 0.5 -11t0.5 -8v-11
q0 -3 -0.5 -6.5t-0.5 -6.5v-17q-1 -6 -6 -15.5t-10 -9.5h-57v122zM682 546q-7 -2 -12.5 -4t-7.5 -7h83v164h-76v-61h36v-8q1 -6 2.5 -22t1.5 -31v-10q-1 -12 -9.5 -15.5t-17.5 -5.5zM1220 551q-2 0 -12.5 -3t-13.5 -5v-2l3 -3q0 -2 0.5 -2.5l0.5 -0.5h72v164h-75v-61h35v-8
q1 -6 2.5 -22t1.5 -31v-9q0 -4 -5 -9.5t-9 -7.5zM814 742h19q4 0 7.5 0.5t5.5 0.5h2q2 0 4 0.5t5 0.5q10 0 20 -3.5t10 -15.5v-88q0 -4 -6 -10.5t-10 -6.5q-2 0 -9 -0.5t-15 -1.5t-15 -1.5t-18 -0.5v126zM1235 336q13 0 24 7.5t13 20.5h-137v-21h55v-252q8 2 17 9t9 15v225
q6 -2 11.5 -3t7.5 -1zM1259 762q0 4 1 5q-14 1 -29 2t-25 1q-28 0 -49.5 -10.5t-21.5 -44.5v-229h125v21h-99v82h50v26h-50v132h104q-2 5 -4 11t-2 4zM659 747h79l6 9q-19 9 -32 10.5t-27 1.5h-8q-8 0 -19.5 -1t-22 -4.5t-18 -10t-7.5 -17.5v-249h125v21h-99v82h49v26h-49
v101zM1358 60l26 -20v138q2 1 4.5 2l2.5 1q6 3 14.5 8t16 10t12.5 11.5t5 12.5v118q0 8 -6.5 15t-14.5 10v-123q0 -5 -8 -10.5t-12 -6.5q-6 0 -14.5 0.5t-16.5 1.5q-9 1 -16.5 1.5t-15.5 0.5v134h-21v-178h44v-126zM1551 743q6 0 18 -2.5t12 -15.5v-197q0 -13 -12 -15
t-18 -2h-2q-6 0 -18.5 2t-12.5 15v197q0 13 12.5 15.5t18.5 2.5h2zM321 514q-8 1 -13 1.5t-14 0.5v244l-8 5q-7 -5 -15 -14t-8 -16v-249h112l-0.5 1t1.5 3l3 3q2 4 5.5 9.5t3.5 6.5v258h-21v-239q0 -5 -8 -10t-13 -6q-5 0 -11.5 0.5t-13.5 1.5zM129 358q0 12 9 24.5
t22.5 22.5t28.5 16t27 6l357 -5v-14h-307q-11 0 -24 -3t-24 -8.5t-18 -14t-7 -20.5q0 -15 6.5 -26t14.5 -22t14.5 -23.5t6.5 -32.5q-14 0 -18.5 -2t-9.5 -4q-6 -3 -12 -5t-14 -2q-14 0 -24 13.5t-16 32.5t-9 37.5t-3 29.5zM1061 584v-174q0 -1 3 -2t5 -1q12 0 17.5 11.5
t5.5 21.5v285q0 33 -31 35v-140h-73v144q-5 -2 -8.5 -3t-5.5 -2l-3 -3q-2 -2 -3 -1.5l-1 0.5v-269h21v98h73zM1124 448l-10 -51h244v-144q0 -3 7 -3.5t11 -0.5h4q1 10 2.5 29t3 39.5t2.5 38t1 25.5v19q0 7 -1 26t-2.5 41t-3.5 42.5t-3 31.5h-7q0 -7 -1.5 -16.5t-3 -19.5
t-3 -17.5t-1.5 -10.5q-1 -2 -3 -7.5l-2 -5.5q-3 -6 -7.5 -11l-4.5 -5h-222zM100 796h111l7 16l-22 21v-2h-115q-3 -6 -4 -7.5t-3 -3.5q-2 -3 -5.5 -9.5l-3.5 -6.5v-138q0 -4 8 -12t13 -10q4 -2 16.5 -4t27 -3.5t27 -2t17.5 -0.5v-117h-107v-3q-2 -2 -2 -3q5 -6 12.5 -15.5
t9.5 -9.5h122v170q0 3 -9 12t-15 11h1q-5 1 -16.5 2.5t-25 3t-26 3t-18.5 1.5v107zM1016 402q-4 11 -12.5 21t-13.5 10h-119q-7 0 -13 -6t-10.5 -14.5t-7 -17.5t-2.5 -14v-236q0 -23 9 -35.5t23.5 -18.5t32.5 -7.5t36 -1.5h43q4 0 8 0.5t9 0.5h8q5 2 5.5 6t0.5 9v9
q0 5 -1 10.5t-3 5.5h-125v279h132zM441 486h21v103h88q2 3 8 14t8 16v116q0 9 -5.5 15.5t-14.5 10.5t-19.5 5.5t-19.5 1.5h-33q-4 0 -7.5 -0.5t-7.5 -0.5h-18v-281zM915 707q0 9 -0.5 19t-1.5 15v1l-26 25h-99v-281h21v98h83v-98h25q-1 6 -1.5 14t-0.5 17q-1 13 -1.5 24.5
t-0.5 16.5q0 1 -1.5 3.5t-3.5 5.5q-5 5 -5 10v5q0 15 2 27.5t4 25.5t4 27.5t2 31.5v13zM1039 364q-8 0 -25.5 -1t-37.5 -2.5t-39 -3t-30 -2.5v-203h119l6 5l10 204v3h-3zM1418 584v-164q0 -1 8 -5.5t13 -8.5v139q-3 5 -6 16.5t-4 15.5v5q0 14 1.5 26t3.5 24q2 11 4 23.5
t2 25.5v11q0 4 -0.5 7t-0.5 8v26q-10 26 -31.5 33t-47.5 7q-7 0 -13.5 -0.5t-13.5 -0.5q-5 0 -9.5 -0.5t-9.5 -0.5v-285h21v98h83zM1550 768q-12 0 -24 -1.5t-21.5 -6t-16 -13t-6.5 -22.5v-207q0 -2 2.5 -7.5t6.5 -11t8 -9.5t6 -4h86l16 16v243q0 14 -13 18.5t-26 4.5h-18z
M1275 300q-2 1 -5 1q-2 0 -4 1l-8 2t-9 1q-10 0 -10 -13v-206q0 -4 -6.5 -9.5t-14.5 -11.5t-16.5 -10.5t-11.5 -5.5h-13q-10 5 -11 6h1q-11 5 -11 11v236l-4 1t-6 2q-2 0 -8 -0.5t-11 -1.5q-2 -1 -4 -1q-1 0 -3 -1v-252h-249q-25 0 -41 16.5t-16 39.5v308l50 49v6l-10 73
h-11v-75l-31 -23h-86q12 -14 22.5 -31t10.5 -31q0 -39 -20.5 -80t-54 -80.5t-76.5 -74.5t-89 -61.5t-90.5 -42t-80.5 -15.5v23q41 17 68.5 39t56.5 54l-8 3q-14 -17 -25.5 -23t-28.5 -6h-7q-8 0 -16 3.5t-12 17.5q19 11 24 23t8 25q3 18 10.5 33.5t34.5 20.5h-1q3 1 17 1h49
h9t7 -1q3 1 3 5q0 1 -2 9q-1 2 -1 3t-1 2q-8 2 -13 3q-8 2 -17 3.5t-14 1.5q-2 0 -3 -1q-4 -2 -7 -7q-8 -11 -14 -13h1q-2 -1 -12.5 -3t-16.5 -2v32q0 1 6 6.5t14.5 13t18 15t15.5 10.5h-1q9 4 19 7h-1q2 0 4 1h-3q-11 0 -21.5 -3t-21.5 -8q-11 -4 -20.5 -7.5t-23.5 -3.5
q-20 0 -35.5 2t-30.5 4l-30 4t-33 2h-15q-7 0 -15 -1l-38 37q23 -4 29 -4.5t9 -0.5q26 0 50.5 6.5t50.5 14.5t52 15t55 7h11q8 0 16 -0.5t13 -1.5h5q5 -2 15.5 -7t23 -11t25 -13t21.5 -13v47h8h8t12.5 -0.5t13.5 -1t11 -1.5q6 -1 15.5 -6.5t9.5 -10.5v-35q7 8 12 16.5
t5 19.5q0 5 -3 8l-6 6h1q-6 5 -10 10t-4 13q0 2 0.5 4t0.5 4v4q0 2 2.5 10.5t4.5 16.5h-101v111q-11 -1 -23.5 -4t-23.5 -6l-16 -4t-17 -4q0 -8 -1.5 -20t-4.5 -25t-7.5 -24.5t-10.5 -18.5q-2 0 -7 -0.5t-9 -0.5h-12q-4 0 -10 0.5t-11 0.5h-4q-2 0 -5.5 1.5t-7.5 3.5h1
q-2 2 -4.5 3l-2.5 1q-2 0 -8.5 -3.5t-8.5 -5.5h-310q-12 0 -21 6.5t-14.5 15.5t-8.5 19.5t-3 19.5v6q3 5 8 12.5t9 7.5h99q2 0 3 8t1 15v10q0 24 -11.5 28.5t-26.5 5.5q-14 0 -28.5 2.5t-26.5 14t-20 36.5t-8 70v31q0 5 0.5 10t0.5 10v15q1 5 4.5 14t9.5 18t14.5 15.5
t18.5 6.5l118 -5v-5h27v-18l1 3q6 -5 12 -16t7 -13v-13q-5 -10 -6 -11v1q-6 -11 -11 -11h-99q-3 0 -3.5 -7.5t-0.5 -13.5v-6q0 -20 14 -26.5t37 -10.5q12 -2 25.5 -5.5t31.5 -11.5h-1q0 1 -1 1h5v73q0 3 6.5 9t15 11.5t17 10t11.5 5.5h14q5 -3 12 -8t7 -9v-236q0 -3 6 -3
q7 0 10 1v231l18 24h193l40 -20h4q10 0 19 3t19 7q11 4 21 7.5t27 3.5h11q4 0 7.5 0.5t8.5 0.5q13 0 25.5 -3t22.5 -13q1 -4 1 -8q0 -1 -0.5 -1.5t-0.5 -1.5v-4l19 29h135q4 -4 15.5 -11.5t15.5 -9.5l-2 1q1 -1 3 -1v0q1 0 3 1q3 2 9.5 5.5t13.5 6.5t12.5 5.5t6.5 2.5h3
q2 0 4 0.5t4 0.5q16 0 19 -6.5t5 -24.5q0 -1 0.5 -2.5t0.5 -3.5v-15q0 -8 0.5 -18.5t0.5 -21.5q0 -10 -0.5 -20.5t-0.5 -18.5v-13v-1q0 -4 4 -4h1h5l4 2q7 3 7 1v149q17 0 27 -4t19 -9q8 -5 15.5 -8t15.5 -3q10 0 20 3.5t21 7.5l-1 -1q12 5 25.5 9t30.5 4q5 0 13 -0.5
t14 -1.5q5 -1 8 -1h5l17 -18q8 6 17 12t13 6h119q2 0 11 -4.5l13 -6.5q2 -2 10 -7t13 -9q18 21 38 24.5t46 3.5h27q25 0 46 -11.5t21 -45.5v-236q0 -3 -4.5 -11t-10.5 -15.5t-12 -13.5t-10 -6h-112q-2 2 -8.5 5.5t-8.5 3.5q-3 0 -3 -4q-8 -36 -10 -78.5t-2 -84.5
q0 -28 0.5 -55.5t1.5 -48.5l-44 -39v-135q0 -7 -3.5 -10.5t-9 -5t-11 -2t-8.5 -0.5q-18 0 -27.5 5.5t-14.5 15.5t-6 23t-1 28q0 24 -7 49t-36 38q-8 4 -9 5h1q-11 5 -11 11v126z" />
    <glyph glyph-name="g" unicode="&#xb3;" horiz-adv-x="1671" 
d="M1286 303q-5 0 -13 3t-16.5 3.5t-14.5 -3t-6 -16.5v-210q0 -3 -6 -7.5t-13.5 -9t-15 -8.5t-10.5 -5h-5h-5q-3 2 -9 5.5t-6 4.5v240q0 2 -6 5.5t-9 4.5q-4 1 -17.5 -1.5t-17.5 -2.5v-256h-245q-22 0 -36 15t-14 35v310l50 50v4v6l-10 80h-25v-80l-25 -20h-100
q10 -12 25 -31.5t15 -38.5q0 -38 -20 -79t-52.5 -80.5t-74.5 -74.5t-86.5 -61.5t-88 -42t-78.5 -15.5v13q42 18 70.5 41.5t59.5 58.5l-20 10q-15 -19 -25.5 -25t-28.5 -6q-7 0 -15.5 0.5t-10.5 10.5q18 9 23 24.5t8 31t9.5 28t29.5 16.5q3 1 15 1h25h24q13 0 16 -1
q7 2 8.5 6t1 8.5t-2 9.5t-1.5 9q-3 0 -11 1.5t-17 3t-17 2.5t-11 0q-2 -1 -10 -10t-10 -10t-10 -3t-10 -2v25q0 1 5.5 6t13.5 11.5t16.5 13t14.5 9.5q10 6 22 7t18 13q-3 0 -12.5 0.5t-12.5 0.5q-13 0 -23.5 -3.5t-21 -7.5t-21 -7.5t-22.5 -3.5q-23 0 -40 2.5t-34.5 5
t-36.5 4t-46 -0.5l-20 20q30 -3 58 3t55.5 15t55.5 16.5t58 7.5h11q11 0 20.5 -1t11.5 -1q6 -2 20 -8.5t29 -14t28 -15.5t18 -12v53h5t12.5 -0.5l15 -1t12.5 -1.5t12.5 -4.5t7.5 -5.5v-50q12 9 21.5 22t9.5 29q0 7 -3.5 11t-7.5 8t-7.5 8t-3.5 11q0 2 0.5 6t0.5 5
q1 4 4.5 17.5t5.5 17.5h-105v113q-24 0 -47 -7t-48 -11q0 -4 -1 -16t-3 -26t-6 -27.5t-10 -20.5q-3 0 -12.5 -0.5t-12.5 -0.5q-5 0 -14.5 0.5t-10.5 0.5q-2 0 -10 5t-10 5q-3 0 -10.5 -4t-9.5 -6h-310q-10 0 -17.5 6t-12.5 14t-7.5 17.5t-2.5 17.5v5q2 4 5.5 9.5t4.5 5.5
h100q7 0 9 10.5t2 19.5v10q0 24 -9 32t-22.5 9t-29.5 1.5t-29.5 10t-22.5 34t-9 73.5v13q0 9 0.5 19.5t0.5 19.5v13q1 5 4 13.5t8.5 16.5t12 14t15.5 6h120q9 0 16.5 -6t12.5 -14.5t8 -18t3 -16.5v-5q-2 -3 -5.5 -9t-4.5 -6h-100q-8 0 -9.5 -10.5t-1.5 -18.5v-6
q0 -19 9.5 -27t25.5 -12.5t35.5 -8t40.5 -12.5q4 -2 9.5 0.5l5.5 2.5v77q0 3 6 7.5t13.5 9t15 8.5t10.5 5h5h5q4 -2 9.5 -5.5t5.5 -4.5v-240q0 -10 13 -10q5 0 10 1t7 1v238l15 20h190l40 -20h5q12 0 22 3.5l20 7t20.5 7t24.5 3.5q10 0 21 0.5t21.5 -1t20 -6t15.5 -14.5
l20 20h130q3 -3 14.5 -10.5t15.5 -9.5l2 -0.5t3 -0.5t3 0.5l2 0.5q1 1 7 4l13 6.5l13 6.5t7 3t5 0.5t6 0.5q13 0 15 -6.5t4 -24.5q0 -6 0.5 -22t0.5 -33t-0.5 -33t-0.5 -22q1 -2 4.5 -5.5t5.5 -4.5h5h5q3 2 9 5.5t6 4.5v144q10 0 18.5 -4t17 -8.5t17 -8t17.5 -3.5
q12 0 22 3.5l20 7t20.5 7t24.5 3.5q12 0 21.5 -1.5t17.5 -4t16 -4t18 -1.5h5q2 1 10 4.5t10 5.5h120q1 0 8.5 -4t11.5 -6t15.5 -10t14.5 -10q17 23 36.5 27t45.5 4h28q23 0 41.5 -10t18.5 -41v-240q0 -3 -3.5 -9.5t-8.5 -13.5t-10 -12t-8 -5h-110q-2 2 -9.5 6t-10.5 4
q-2 0 -6 -4t-4 -6q-6 -31 -8.5 -66.5t-3.5 -71.5t0 -70t2 -62l-45 -40v-140q0 -8 -10 -9.5t-15 -1.5q-15 0 -24 5t-13 14t-5 21t-1 26q0 13 -1.5 26.5t-6 26.5t-14 23.5t-25.5 18.5q-3 2 -9 5.5t-6 4.5v133zM901 360v-220h130l10 10l10 210v10h-10q-8 0 -28 -1t-42.5 -2.5
t-42 -3.5t-27.5 -3zM1356 390v-140q0 -8 10 -9.5t15 -1.5q2 0 5.5 0.5t4.5 0.5q1 8 3 27.5t3.5 42t2.5 42.5t1 28v10v10q0 8 -1 29.5t-2.5 45.5t-3.5 45.5t-3 29.5h-20q0 -4 -1.5 -14t-3 -21.5t-3 -21.5t-2.5 -13q-2 -5 -5.5 -15t-4.5 -10h-230l-12 -65h247zM130 357
q0 11 8.5 22.5t21 20.5t26.5 14.5t25 5.5l360 -5h-310q-12 0 -26.5 -3.5t-26.5 -10t-20 -17t-8 -23.5q0 -17 6.5 -29t15 -23t15 -22t6.5 -25q-14 0 -24 -6.5t-24 -6.5q-12 0 -20.5 13t-14 31t-8 36t-2.5 28zM1041 553q-1 0 -6 -0.5t-10 -1.5t-9.5 -4t-4.5 -7v-90
q0 -2 7.5 -9.5t12.5 -10.5q2 -1 5 -2t5 -1v126zM661 635h36l1 -7.5t2 -17.5t1.5 -21t-0.5 -19q-1 -9 -8.5 -11.5t-16.5 -4.5t-16 -6.5t-7 -17.5h98v180h-90v-75zM1190 546q0 -2 0.5 -4l0.5 -2q2 -2 5 -6t5 -4h80v180h-90v-75h36l1 -7.5t2 -17.5t1.5 -21t-0.5 -19
q0 -2 -4 -5.5t-6 -4.5q-2 0 -15 -4t-15 -6l-0.5 -1.5t-0.5 -2.5zM1541 713v-173q0 -2 4 -5t6 -5l2 -0.5t3 -0.5q2 0 3.5 0.5l1.5 0.5q2 2 6 10t4 10v150q0 4 -4.5 7t-9.5 4t-10 1.5t-6 0.5zM487 710q0 -3 0.5 -11.5t1.5 -18.5t1.5 -18.5t0.5 -11.5q0 -2 4 -6t6 -4t6 4t4 6
q0 3 0.5 11.5t1.5 18.5t1.5 18.5t0.5 11.5h-28zM837 710q0 -3 0.5 -11.5t1.5 -18.5t1.5 -18.5t0.5 -11.5q0 -2 4 -6t6 -4t6 4t4 6q0 3 0.5 11.5t1.5 18.5t1.5 18.5t0.5 11.5h-28zM1371 710v-70h20v70h-20z" />
    <glyph glyph-name="FL00B4h" unicode="&#xb4;" horiz-adv-x="361" 
d="M320 809q8 0 9.5 -7.5t1.5 -12.5q0 -14 -18 -37.5t-41 -48.5t-44 -48t-27 -36q-23 -2 -41.5 -2.5t-37.5 -0.5t-40.5 0.5t-51.5 0.5v21q0 1 15 22t36 47.5t43 52.5t35 38q2 2 5 6t5 4z" />
    <glyph glyph-name="FL00B5h" unicode="&#xb5;" horiz-adv-x="1065" 
d="M508 56q7 16 11 33t7 35q-2 0 -4 0.5t-2 1.5h-1q-1 0 -4 -7.5t-7 -16.5t-7.5 -17.5t-5.5 -10.5l-0.5 -0.5t-1.5 -0.5l-1 1l-0.5 1.5t-0.5 2.5q-2 2 -9 11t-9 12l-1 2q0 5 3.5 9.5t8 8.5t8 8.5t3.5 9.5v2q-1 1 -4 3l-3 2h-2h-1q-1 0 -4 -2t-4 -3t-5 -4.5t-8.5 -7
t-8.5 -6.5t-6 -4l-1 -1q-3 0 -6.5 3t-7.5 5q-2 1 -10.5 3.5t-11.5 4.5v2l8 4l12 6t15.5 6t15.5 9l-3 3q-26 15 -48.5 29t-45.5 32l-4 4l10 6h1h2l153 -96q4 -4 7 -4h3l2 0.5t3 0.5l136 91q1 1 5.5 4t5.5 4h1q5 0 11 -6l-5 -4l-88 -64l19 -10l14 -5l12 -6l8 -4v-2
q-3 -2 -12 -4.5t-11 -3.5q-3 -2 -7 -5t-7 -3l-1 1l-35 27h-2q-9 0 -9 -7v-3l23 -33v-1v-1l-2 -3l-17 -22q-2 -2 -4 -2q-5 3 -8 11.5t-5.5 17t-5 15t-6.5 6.5q-5 0 -6 -2t-1 -6q0 -14 5 -29.5t10 -26.5v-8l-25 -52q-5 3 -6.5 9.5t-3.5 10.5q-3 4 -9.5 17.5t-8.5 18.5z
M467 124q3 0 3 -3q0 -2 -3 -2q-2 0 -2 2q0 3 2 3zM387 237l-5 5q2 20 -7 26t-28 4q-9 7 -14.5 18.5t-8.5 24.5t-4 26t-1 22q0 7 8 8.5t12 1.5l-2 2q-2 1 -8 2t-8 1v2q0 9 5 16.5t5 18.5q0 1 0.5 8.5t-4.5 7.5h-1q0 -2 -2 -7t-4.5 -10.5t-5.5 -9.5t-7 -4q-3 0 -3.5 2t-4.5 2
q-5 0 -5.5 1.5t-2.5 -5.5q-1 -4 -4 -17t-3 -18q-6 0 -8.5 -3.5t-2.5 -7.5v-7q0 -17 3.5 -30t12.5 -27q6 -11 18.5 -21t16.5 -17v-2q-34 15 -47.5 40.5t-13.5 60.5v4q0 2 0.5 4.5t0.5 4.5v4q0 10 10 7q2 9 5.5 23.5t14.5 19.5h1h9h2q1 0 3 2l7 28l3 4q1 19 3 37t2 38
q0 25 -2.5 50t-2.5 51q0 4 3.5 6t7.5 4q49 24 98.5 37t105.5 13q112 0 213 -55v-13v-13q0 -20 -4 -40t-4 -40q0 -8 1.5 -23.5t4 -32t6 -31t7.5 -20.5q1 -2 7 -2q7 0 10 -2q9 -6 10.5 -17t4.5 -21q1 -3 3 -4.5l4 -3t3.5 -4t1.5 -9.5q0 -28 -7 -53t-30 -42q-5 -4 -10.5 -7.5
t-10.5 -3.5l-1 1q22 20 34.5 41t12.5 51v3v11v5q-8 -1 -10 5.5t-2.5 14.5t-2.5 15t-8 7h-2q-1 0 -4 -2t-3 -3h-3q-3 0 -6 4.5t-5.5 10t-4 11t-2.5 8.5q-5 -12 -5 -20q0 -10 4.5 -18t10.5 -16q-1 -3 -5 -3h-7q-3 0 -6.5 -0.5t-3.5 -3.5q10 0 22 -5v-3v-8v-3q0 -7 -2 -20
t-6 -26t-10 -23.5t-14 -12.5h-7t-10.5 -0.5t-9.5 -2.5t-4 -7v-20q0 -1 -6.5 -6t-15.5 -11t-18.5 -12.5t-15.5 -10.5q-1 -1 -11 -7.5t-23.5 -15l-27 -17t-20.5 -13.5l-5 -2.5t-5 -0.5h-3zM274 183q0 17 -5.5 33.5t-12 33t-13 32.5t-7.5 33h-4q3 -26 14.5 -50t11.5 -50
q0 -12 -6.5 -22.5t-20.5 -10.5q-10 0 -19 4t-9 15t5 18.5t16 7.5q6 0 11 -2.5t5 -10.5q0 -4 -3 -7.5t-7 -3.5q0 3 1 6t1 5q0 6 -6 6t-11 -5t-5 -13t5.5 -10.5t12.5 -2.5q14 0 18 10t4 21q0 7 -1.5 18.5t-12.5 11.5q-5 0 -9 -4.5t-11 -4.5q-19 0 -19 16q0 6 4 7t9 1h5v-8h-9
l-1 -0.5t0 -1.5q2 -5 4 -5.5t6 -0.5q11 0 13 13q-2 29 0.5 50t2.5 46v10q-6 -5 -10 -10t-8 -11h-6q0 8 0.5 14.5t3.5 13.5q-5 -3 -11.5 -8t-11.5 -5t-5 3v1t1 3q1 3 1.5 4t1.5 4q2 5 5 10.5t3 7.5q-7 -4 -15 -8t-16 -4q0 11 5 19t11 16h-2q-5 0 -11 -4t-12 -5h-2q-3 0 -3 1
v2q0 5 6.5 12.5t11.5 11.5h-2h-1q-3 -2 -11.5 -4.5t-11.5 -3.5q-1 0 -4 1t-3 2h-1v1t0.5 1.5l0.5 0.5q0 1 2 3.5t3 3.5l28 28h-2h-1q-9 -3 -21 -7.5t-22 -4.5q0 12 9 19t17 14h-45q-1 0 -2 1.5t-2 2.5v1v2q4 5 13 9t12 6q-2 0 -9.5 0.5t-9.5 1.5t-10 2t-8 7v1q4 5 12.5 9
t13.5 6l-21 5q-4 1 -9.5 3l-5.5 2v4l22 4l-32 15l-5 6q2 2 6.5 3.5t8.5 3.5l-3 3l-22 15l-3 2v1q0 3 6.5 6.5t8.5 4.5v3q-8 2 -15.5 6.5t-9.5 12.5h25l3 4q-3 2 -8.5 6.5t-11.5 10t-10.5 11t-4.5 8.5l0.5 0.5t1.5 0.5q2 0 5.5 -0.5t5.5 -0.5q0 10 -7.5 17.5t-7.5 18.5h4
q2 -1 9 -5.5t9 -5.5q1 -2 6 -4.5t6 -3.5l1 -1q1 0 1.5 0.5l0.5 0.5q-17 20 -25.5 40t-8.5 46q4 0 8 -5t8.5 -12.5l9 -15t8.5 -11.5q3 -4 10 -10.5t8 -6.5h2q-5 13 -12 24.5t-13 23.5t-10.5 25t-4.5 28q0 1 1 4.5t1 5.5l3 -3q8 -21 17.5 -43t27.5 -38v3q-11 23 -19.5 48.5
t-8.5 51.5v8q0 8 1.5 16t7.5 8q0 -10 1.5 -26.5t5 -34t9.5 -33t16 -23.5v3q0 20 -4 37.5t-4 36.5v8q0 5 0.5 8.5t0.5 8.5v4q0 3 1.5 10.5t4 15t6 13.5t6.5 6h1q-4 -17 -4.5 -26t-0.5 -23q0 -23 3.5 -46.5t11.5 -45.5v7q0 13 -1.5 24.5t-1.5 24.5q0 20 4 40t15 38v-3
q0 -13 -3 -26t-3 -27q0 -42 18 -82t44 -72v-4q-20 -4 -36 -14.5t-16 -32.5q0 -14 11.5 -24.5t25.5 -10.5q8 0 15 5.5t7 14.5q0 8 -3 13.5t-13 5.5t-17 -10q-1 0 -1 2v4q0 11 11.5 16t21.5 5q29 0 51 -18.5t33 -44.5h-2q-7 0 -12.5 4t-12.5 4h-11q-5 0 -7 -5q2 -1 12 -1.5
t13 -5.5q-14 -6 -14 -14t6 -9q-2 6 4.5 12t11.5 6h2q10 -4 17 -13t11 -20.5t5.5 -23.5t1.5 -21t-2 -22.5t-7 -25.5t-13.5 -20.5t-21.5 -8.5q-1 0 -3.5 0.5t-3.5 0.5q13 32 13 70q0 12 0.5 27t-7.5 26v-3q0 -11 1 -21t1 -21v-6v-14v-3q0 -3 -1.5 -11.5t-3.5 -18t-4.5 -17
t-5.5 -8.5q-3 0 -3 2l1.5 3.5t1.5 4.5v2q0 5 -5.5 9t-9.5 4q-8 0 -11.5 -6.5t-3.5 -13.5q0 -12 11 -17t22 -5t26 8t19 21v-7q0 -14 -14.5 -20.5t-26.5 -10.5q-8 -15 -10.5 -32.5t-2.5 -34.5q0 -32 12.5 -62t44.5 -44q0 -1 3.5 -2t8 -2.5t8.5 -2.5t5 -1q0 -2 4 -2h-2
q-2 0 -3.5 -0.5t-3.5 -0.5h-2q-22 0 -37.5 11t-25 28.5t-14 38t-4.5 39.5q0 17 3.5 32t3.5 31v4q-7 -11 -9 -23.5t-2 -25.5v-17q0 -26 6 -46.5t17 -43.5q0 -1 1 -4.5t2 -5.5q2 -11 6.5 -28.5t6.5 -31.5v-6q0 -13 -6.5 -25.5t-22.5 -12.5q0 4 9.5 11.5t9.5 23.5zM782 185
q0 22 6 42.5t13 40.5t13 40.5t6 42.5q0 16 -2 33.5t-8 31.5q0 -1 -0.5 -3t-0.5 -3q0 -14 3.5 -28.5t3.5 -30.5q0 -18 -4.5 -39t-14 -38t-25 -28.5t-37.5 -11.5q-2 0 -5.5 0.5t-4.5 0.5q1 4 9 4.5t13 2.5q32 14 47.5 44t15.5 65q0 16 -2.5 34.5t-12.5 32.5q-4 4 -11 6
t-13.5 4t-11.5 6.5t-5 14.5v5q10 -11 21.5 -19t25.5 -8q11 0 21.5 5t10.5 17q0 17 -16 17h-2q-3 0 -6.5 -0.5t-3.5 -3.5v-19q-3 0 -6 6t-5 13.5t-3 15.5t-1 11v3q0 5 -0.5 9.5t-0.5 9.5v8q0 23 2 35t11 31l2 4t1 3q0 3 -5.5 6t-7.5 5v2q4 2 13 3.5t11 1.5q0 5 -8 5h-9
q-14 0 -27 -10v2q0 2 0.5 3l2.5 5q14 21 32 38t45 17q14 0 25 -6.5t11 -21.5q-6 0 -8.5 5.5t-9.5 5.5t-12.5 -4.5t-5.5 -10.5q0 -11 7.5 -17t18.5 -6q15 0 24 11t9 25q0 23 -15.5 31.5t-34.5 13.5v2q25 38 42.5 75t17.5 84q0 11 -1 22t-1 22v4q2 -1 4 -7l4.5 -13.5t4 -14
t2.5 -8.5q0 -1 0.5 -12t1.5 -17v-1q0 -17 -2.5 -29.5t-4.5 -29.5v-2v-2q8 14 12.5 31t4.5 33v82q11 -14 14.5 -32.5t3.5 -34.5q0 -21 -5 -41.5t-5 -40.5v-3q9 7 15.5 22.5t10 33.5t5.5 35t2 28h2l6 -13v-13v-4q0 -29 -8.5 -53.5t-19.5 -50.5v-2q14 11 22 25.5t16 32.5l7 22
q0 1 1 3t1 3l3 -3v-10q0 -24 -10.5 -46t-21.5 -42l-8 -10l-0.5 -0.5t-0.5 -1.5l1 -1q17 11 28.5 28.5t21.5 34.5h1q4 0 4 -4v-6q0 -22 -12 -41.5t-24 -36.5q3 0 6 3l30 19h3q0 -11 -5 -18t-13 -14q2 -1 9 -1.5t9 -2.5q-8 -14 -19.5 -21.5t-19.5 -18.5h29q0 -5 -3.5 -8t-8 -5
t-8.5 -4t-6 -5q4 -1 9.5 -3t5.5 -7q0 -8 -10 -12.5t-15 -9.5q2 -2 7.5 -3t5.5 -4v-4q-10 -5 -19.5 -8.5t-18.5 -8.5l23 -4v-2q0 -3 -6 -4.5t-7 -2.5l-20 -5q4 -6 13.5 -7.5t9.5 -9.5q0 -5 -3 -5l-35 -5q2 -2 8.5 -4.5t8.5 -3.5q3 -2 7 -4t4 -5v-1q-1 -1 -3 -2.5t-3 -1.5h-42
q1 -1 4 -4.5t7 -7t7 -7.5t5 -5q0 -1 1 -2.5l1 -1.5q0 -3 -2.5 -3.5t-4.5 -0.5q-10 0 -19 5.5t-20 5.5h-2l33 -33v-7q-8 0 -15 3.5t-15 3.5h-1q2 -2 9 -10t7 -13q0 -4 -5 -4t-13 3.5t-10 5.5v-2q5 -6 9.5 -14.5t4.5 -17.5q-8 0 -13.5 3t-13.5 3q0 -8 4 -14t4 -14
q-8 0 -14.5 4t-11.5 9v-2q0 -6 2 -12t2 -14h-7l-19 21v-6v-7q0 -1 0.5 -6.5t1.5 -11.5t1.5 -11t0.5 -6v-12v-20v-18v-13q3 -5 5 -6.5t7 -1.5h5q4 0 4 3q1 2 0 3.5l-1 1.5h-10v2t1 3q2 3 4 3h5h3q7 0 8 -5q2 -9 -4 -14t-12 -5q-8 0 -13 4.5t-12 4.5q-8 0 -10 -11.5t-2 -16.5
q0 -11 3.5 -22t17.5 -11q6 0 13 3t7 10q0 1 -0.5 2.5t-0.5 2.5q-1 2 -5.5 6.5l-6.5 6.5q-2 0 -5.5 -1.5t-4.5 -1.5v-14q-5 2 -6.5 4t-1.5 7q0 8 5.5 10.5t10.5 2.5q11 0 16 -8t5 -18q0 -11 -8.5 -15t-18.5 -4q-14 0 -21 9.5t-7 23.5q0 13 3.5 25t8 24t8 24t3.5 25v9
q-2 -18 -8.5 -35t-13.5 -34.5t-12.5 -35t-5.5 -35.5q0 -12 5.5 -18.5t14.5 -14.5h-3q-15 0 -20 12t-5 24zM298 344q0 2 0.5 4.5l0.5 2.5q0 1 4 4.5t6 5.5q2 -32 10 -55.5t25 -48.5q4 -6 10.5 -8t10.5 -7q-6 -6 -10 -7q-29 17 -43 47t-14 62zM699 242q4 5 10.5 6t9.5 7
q8 14 14.5 25t11.5 22.5t8 24.5t5 31q5 0 7 -6.5t2 -11.5q0 -29 -12.5 -52t-32.5 -43q-4 -5 -6 -7t-7 -2q-6 0 -10 6zM729 247q3 0 3 -2q0 -3 -3 -3q-2 0 -2 3q0 2 2 2zM528 280l3 -13q2 8 3 27.5t2.5 40t4.5 36.5t10 17l2 -5q0 8 4.5 14.5t13.5 5.5v1v1q-1 2 -2.5 4.5
t-2.5 3.5q2 5 7 5q31 2 61.5 5t62.5 8q-6 2 -14 3t-14 2q-7 0 -24.5 1.5t-37 3.5t-37 3.5t-24.5 1.5l-3 13q0 7 -1.5 24.5t-3 37t-3 37t-2.5 24.5q0 2 -1 8t-1 8l-3 -10l-13 -143l-133 -11l-17 -4l130 -12q-5 -6 1 -9.5t10 -3.5l-8 -5q4 0 6 -2t3.5 -4t3.5 -3.5t7 0.5z
M232 322h-1v-1q0 -2 1.5 -1.5t1.5 1.5t-2 1zM870 395l-0.5 -0.5t-0.5 -1.5v-2h1q3 0 3 2t-3 2zM564 398q-3 0 -3 -3q0 -2 3 -2l0.5 0.5t0.5 1.5q0 2 -0.5 2.5zM807 420q-1 0 -1 -2t1 -2q2 0 2 2t-2 2zM747 522q0 20 4.5 38t20.5 32q1 1 4 2.5t4 3.5h2q-28 -37 -28 -81v-4
v-11v-3q3 29 8.5 50.5t22.5 45.5h1h1l11 -6h2v-4q-10 -19 -14 -32.5t-4 -33.5v-10q0 -6 0.5 -11.5t2.5 -13.5q1 -2 3 -14t4 -16l3 -8v-3q-15 0 -24.5 8t-14.5 19.5t-7 25.5t-2 26zM510 452q-1 0 -1 -4q0 -2 1 -2q2 0 2 2q0 4 -2 4zM551 454l-3 -2h3v2zM304 459l0.5 -0.5
t0.5 -2.5t-1 -2v0q-2 0 -2 2q0 3 2 3zM286 469q-4 0 -5.5 -3t-1.5 -6h3q3 0 6 1t3 3v2q-1 0 -3 1.5zM780 469q-3 0 -5 -2.5t-2 -4.5h10l-0.5 3.5t-2.5 3.5zM894 473q-3 0 -3 -1q0 -3 3 -3q1 0 1 3q0 1 -1 1zM289 489v-8q2 0 4.5 0.5t2.5 2.5q0 5 -5 5h-2zM306 484
q-2 0 -2 -2q0 -1 1 -1q2 0 2 1t-1 2zM773 489q-3 0 -3.5 -3t-0.5 -5h9q0 2 -1 5t-4 3zM758 497q-3 0 -3 -6q0 -7 3 -4v4v6zM301 562q0 -7 2 -14t3 -13t2 -22t1 -22v6v15v5v24t-8 23v-2zM290 509q0 -2 0.5 -5t3.5 -3q1 0 1.5 0.5l0.5 0.5q1 0 3 2v1q0 3 -3 3.5t-6 0.5z
M766 509q0 -2 1 -5t4 -3h1v1l1.5 2t1.5 3q0 2 -7 2h-2zM290 527h1q0 -3 3 -3q4 0 4.5 3t0.5 5q-2 0 -5.5 -0.5t-3.5 -4.5zM764 527h1q0 -3 2 -3h2q2 0 2.5 3t0.5 5q-1 0 -4.5 -0.5t-3.5 -4.5zM767 553q0 -2 2 -4t3 -2q3 -2 4 0.5t1 5.5q0 1 -1 3t-4 1q-1 -1 -3 -2.5z
M289 554v-5h7v5h-7zM288 585h1q1 -3 4.5 -9.5t5.5 -8.5v3q0 5 -3 9.5t-7 8.5q0 -1 -0.5 -1.5t-0.5 -1.5zM271 572q-1 0 -1.5 -0.5l-0.5 -0.5q0 -2 1.5 -1.5t1.5 1.5zM278 573q0 -3 3 -3.5t5 -0.5v2v5t-2 4l-3 -3t-2 -3h-1v-1zM777 574q0 -5 3 -5q5 0 5 5q0 2 -0.5 4t-2.5 2
q-5 0 -5 -6zM193 589q0 -8 5 -13t13 -5q2 0 4 0.5t3 0.5q-8 2 -13 6.5t-5 12.5v7q1 1 6 5.5t7 6.5h-2q-8 0 -13 -6.5t-5 -14.5zM866 589q0 -8 -8 -11.5t-13 -5.5q1 -1 4 -1h3q9 0 14 5t5 13t-5.5 14.5t-13.5 6.5h-1q6 -3 10.5 -8.5t4.5 -12.5zM268 578q-1 0 -1 -3q0 -1 1 -1
t1 1q0 2 -1 2v1zM286 592q-2 0 -2 -3q0 -1 2 -1h1t1 1q0 2 -1 2.5zM284 595q-2 0 -2 -3t2 -3q1 0 1 3t-1 3zM281 598q-2 0 -2 -3t2 -3t2 3t-2 3zM297 641q0 2 0.5 5.5t1.5 3.5l5 5l5.5 3t13.5 6.5t15.5 7.5t12.5 7q45 19 90.5 27.5t94.5 8.5q51 0 97.5 -11t93.5 -31
q9 -4 21.5 -9.5t18.5 -13.5q0 -2 0.5 -5t0.5 -5q0 -6 -2.5 -16t-10.5 -11v27l-1 1t-1 2q-51 26 -106 41.5t-112 15.5h-24q-11 0 -23 -2q-31 -5 -61 -11.5t-58 -18.5q-7 -3 -17 -7.5t-19.5 -9t-16 -8l-6.5 -3.5v-30q-13 12 -13 31zM218 615q-2 0 -2 -2q0 -3 2 -3t2 3
q0 2 -2 2zM845 615q-2 0 -2 -2q0 -3 2 -3q3 0 3 3q0 2 -3 2zM228 632q0 -5 1.5 -6.5t8.5 -2.5q5 -2 6.5 3t1.5 8q0 9 -10 9q-8 0 -8 -11zM276 625q-2 0 -2 -2q0 -3 2 -3l1 0.5t1 2.5t-1 2h-1zM851 665q-20 0 -36.5 -14t-27.5 -28h3q14 16 29 27t36 15h-4zM265 634l1 -1
q1 -2 3.5 -5t4.5 -3v3q-2 0 -4.5 3t-3.5 4q0 -1 -1 -1v0zM817 634q0 -5 3.5 -7t6.5 -2q10 0 10 7q0 11 -10 11q-3 0 -6.5 -2.5t-3.5 -6.5zM264 640q-3 0 -3 -2q0 -3 3 -3q1 0 1 3q0 2 -1 2zM69 643q-2 0 -2 -3q0 -2 2 -2t2 2q0 3 -2 3zM222 663q3 -2 12 -6.5t12 -6.5
q1 0 6 -4.5t6 -5.5l1 -1h1q0 1 1 1q-5 8 -15.5 15.5t-20.5 7.5h-3zM218 665q0 1 -4 1t-3 -1q0 -1 3 -1q4 0 4 1zM89 721q-2 0 -2 -3t2 -3q3 0 3 3t-3 3zM99 746q-2 0 -2 -3q0 -2 2 -2q3 0 3 2q0 3 -3 3zM113 766q-3 0 -3 -3q0 -2 3 -2q1 0 1 2q0 3 -1 3zM138 769q-3 0 -3 -3
t3 -3q1 0 1 3t-1 3zM135 773q-2 0 -2 -2t2 -2v2v2zM944 925q1 0 1 -3q0 -2 -1 -2q-2 0 -2 2q0 3 2 3z" />
    <glyph glyph-name="FL00B6h" unicode="&#xb6;" horiz-adv-x="716" 
d="M617 199q2 -1 5 -6.5t4 -7.5q2 -2 6.5 -11.5t9 -19.5t8.5 -18t5 -8v-4q-24 6 -43 21t-32 35.5t-20 44t-7 45.5q0 26 5 51.5t11 50.5t11 50t5 51q0 67 -26 114t-69.5 75.5t-100 40.5t-117.5 11q-4 12 -8.5 28.5t-10.5 33t-15 31.5t-22 23l33 14h147q24 -8 50 -11.5
t46 -9.5q44 -12 80.5 -40t62 -65.5t39 -81.5t11.5 -89q2 -40 -9 -78t-24.5 -75t-25 -74.5t-11.5 -76.5v-9q0 -8 1 -19t1 -16zM299 92l-8 -1l-9 -9l-12 -8t-19 -12.5t-18 -12t-11 -5.5q-37 -20 -73.5 -29t-78.5 -9q0 10 4.5 21t10.5 21t13 19t12 15q15 27 24 56.5t13.5 58
t6.5 54.5t3 47q4 13 13.5 19t19 9.5t18.5 7.5t14 13q0 7 -9 9t-17 2h-9q-22 0 -36.5 -16.5t-30 -37t-36 -37.5t-54.5 -17q0 13 10.5 36.5t27 52t37 59t41 58t38.5 49t29 31.5q17 14 43 21.5t46 7.5q40 0 72 -15t54 -41t33.5 -61.5t11.5 -76.5q0 -31 -5.5 -60t-12.5 -58
t-12.5 -58.5t-5.5 -61.5q0 -27 3 -48t15 -51q-19 6 -38 16t-38 19t-39 16t-41 7zM542 339q0 -21 -9 -44.5t-17 -43.5q-2 13 -6.5 24t-9.5 21.5t-8.5 21t-3.5 21.5q0 7 1.5 16t17.5 5q-7 10 -9 19t-2 19h7q6 0 16.5 -0.5t14.5 -0.5q5 -1 11 -4t7 -5q3 -11 -5.5 -24t-20.5 -13
q2 0 9 -3t7 -7v-2zM557 449v-42q-29 3 -48 15t-30 31t-16 43t-5 51q-4 0 -8.5 -0.5t-9.5 -0.5t-8 2t-3 11v3q0 3 3.5 12t7.5 19.5t8 18.5t6 10q0 3 3.5 6t4.5 3l34 -34l-34 -43q2 0 3 -1t2 -1l4 2l34 26l5 1q1 0 2.5 -0.5l1.5 -0.5l25 -43l-34 -17v-7q10 0 14 -1t7 -1
q2 0 6.5 1.5t15.5 7.5q1 -3 2 -7t3 -11q3 -11 4 -16t1 -15v-8h-53q11 -5 24.5 -9.5t27.5 -4.5zM428 645q2 0 -1 -10t-5 -16q0 -2 -3 -9t-6.5 -15t-6.5 -15.5t-3 -9.5l-0.5 -0.5t-3.5 -0.5q-5 0 -7 4t-2.5 9t0 11t0.5 9q0 17 1 30t6 31h6q5 0 15 -4t10 -14zM373 652
q0 -21 -1.5 -35.5t-6.5 -36.5q-9 -2 -19.5 11t-21.5 31t-21.5 37t-20.5 29h24q19 0 32 -1t35 -9v-26z" />
    <glyph glyph-name="FL00B7h" unicode="&#xb7;" horiz-adv-x="248" 
d="M207 491l-151 -1q-2 0 -5.5 -4t-4.5 -6q-5 -8 -8 -22t-5 -29.5t-2.5 -31t-0.5 -26.5v-16v-21q30 0 51.5 -0.5t40.5 -0.5t37.5 0.5t41.5 2.5q11 20 14 48.5t3 54.5v32q0 5 -1.5 12.5t-9.5 7.5z" />
    <glyph glyph-name="FL00B8h" unicode="&#xb8;" horiz-adv-x="191" 
d="M28 0q-17 -18 -43.5 -35.5t-51.5 -32t-43 -24l-18 -9.5l56 -63q30 0 51.5 -0.5t40.5 -0.5t37.5 0.5t41.5 2.5q4 9 14 27.5t21.5 41t23.5 47t21 46.5h-151z" />
    <glyph glyph-name="four" unicode="&#xb9;" horiz-adv-x="630" 
d="M68 4q0 5 6 12t7 12q11 17 17 32.5t14 32.5q3 3 3 8v73l-18 -4t-18 -2q-10 0 -19 0.5t-18 0.5q0 11 3 22q-9 0 -11.5 1.5t-2.5 9.5v22q0 12 4 23l33 190q4 25 9.5 47.5t11.5 45.5l8 28v6q0 10 -3.5 18.5t-3.5 18.5v1q22 42 43.5 80t45.5 77q8 9 21 12.5t24 5.5
q20 5 34.5 7t33.5 3q0 2 1 9t1 9q0 7 -2.5 13.5t-4.5 14.5v8v3v3l-4 8t-5 8q2 1 3.5 5.5t1.5 6.5v2q0 4 -2.5 7.5t-4.5 9.5l-1 1q9 0 14 4t11 4h36q6 -4 13 -7.5t13 -8t10 -10.5t4 -15q0 -12 -1.5 -19t-1.5 -21l-3 -6v-32q0 -2 4 -4.5t9.5 -6t11 -6.5t8.5 -4h17h16
q10 -1 19.5 -9.5t16 -20t10.5 -23.5t4 -21q0 -7 -1.5 -11t-1.5 -10q0 -7 3.5 -11t5.5 -11q1 -2 1.5 -13t0.5 -14q9 -5 14 -14.5t13 -14.5q3 0 9.5 -1t8.5 -1h2h2q5 0 6 -1l3 -3q2 -3 8 -11.5t8 -10.5q5 -4 5.5 -5t0.5 -5v-6q-2 -2 -4.5 -9t-5.5 -15t-5 -15t-2 -9l-5 -12v-1
q0 -9 6 -14.5t6 -13.5q0 -16 -5 -21.5t-17 -17.5l50 -188q5 -9 6.5 -13.5t1.5 -13.5q0 -8 -4 -15.5t-12 -11.5v-19l-7 -7l-46 -11l-4 -2v-5v-27t2 -24q11 -17 20.5 -32t20.5 -33q0 -1 0.5 -2l0.5 -1q0 -8 -6.5 -9t-11.5 -1h-8q-2 0 -10.5 1t-13.5 3q-13 4 -15 13t-2 20
q0 6 -2 14q-2 1 -7 10.5t-5 11.5v3v9v3q-2 14 -4 24t-6 19t-10 17.5t-16 18.5q0 2 -5 2q-20 -3 -38.5 -5t-37.5 -2h-3h-6h-3q-9 16 -20.5 18.5t-31.5 7.5v-7q1 -4 3 -13.5t5 -20.5t5.5 -20.5t3.5 -12.5q1 -4 2.5 -9t1.5 -7q0 -5 -2 -6.5t-5 -3.5l-38 -35q-9 -8 -16.5 -14.5
t-18.5 -10.5q-2 -2 -4.5 -2.5t-3.5 -0.5v4v49q-5 5 -7 11t-8 6v19l-6 -5h-8q-17 0 -31 9t-21 9q-3 0 -5 -5t-2 -6q0 -5 -2 -12t-2 -9q-2 -6 -2 -14q0 -5 -0.5 -9.5t-0.5 -5.5q0 -2 -3 -9t-4 -9q0 -2 -0.5 -5.5t-0.5 -8.5q0 -11 -2.5 -24t-14.5 -13h-51q-3 0 -3 2v2zM503 437
q1 -2 4.5 -5t4.5 -5h1h2q3 0 3 4q0 9 -6.5 15.5t-6.5 17.5v2v7v1q0 2 1.5 4t1.5 3l-0.5 1.5t-2.5 1.5q-12 6 -19.5 15t-13.5 20.5t-11 23t-12 22.5l-1.5 3.5t-1.5 5.5q-4 10 -4 15q0 8 -9 13v-1l2 -8t5 -19t6.5 -22.5t5.5 -18.5q7 -26 22 -50.5t29 -45.5z" />
    <glyph glyph-name="FL00BAh" unicode="&#xba;" horiz-adv-x="248" 
d="M207 812l-151 -1q-2 0 -5.5 -4t-4.5 -6q-5 -8 -8 -22t-5 -29.5t-2.5 -31t-0.5 -26.5v-16v-21q30 0 51.5 -0.5t40.5 -0.5t37.5 0.5t41.5 2.5q11 20 14 48.5t3 54.5v32q0 5 -1.5 12.5t-9.5 7.5z" />
    <glyph glyph-name="FL00BBh" unicode="&#xbb;" horiz-adv-x="480" 
d="M227 304l-1 152q0 1 -2 3q-2 8 -11 9q-12 14 -37.5 35.5t-51.5 42t-46 35t-21 14.5h-21q0 -30 -0.5 -51.5t-0.5 -40.5q0 -9 -1 -14.5t-1 -10.5v-12v-8q0 -4 1 -10q4 -2 15.5 -10.5t25 -18.5t26.5 -20.5t21 -17.5q-8 -8 -21.5 -18.5t-27.5 -20.5t-26 -18t-16 -10
q-1 -6 -1 -11v-7v-11v-11v-14q0 -19 0.5 -40.5t0.5 -51.5h21q1 0 20.5 14.5t46 34.5t52.5 41.5t39 35.5q5 0 11 1t6 9zM450 302l-1 152q0 1 -2 3q-2 8 -11 9q-12 14 -37.5 35.5t-51.5 42t-46 35t-21 14.5h-21q0 -30 -0.5 -51.5t-0.5 -40.5q0 -9 -1 -14.5t-1 -10.5v-12v-8
q0 -4 1 -10q4 -2 15.5 -10.5t25 -18.5t26.5 -20.5t21 -17.5q-8 -8 -21.5 -18.5t-27.5 -20.5t-26 -18t-16 -10q-1 -6 -1 -11v-7v-11v-11v-14q0 -19 0.5 -40.5t0.5 -51.5h21q1 0 20.5 14.5t46 34.5t52.5 41.5t39 35.5q5 0 11 1t6 9z" />
    <glyph glyph-name="asciitilde" unicode="&#xbc;" horiz-adv-x="606" 
d="M222 97q0 -15 5.5 -26.5t12.5 -22.5t12.5 -22t5.5 -26q-31 0 -50.5 10t-30 27.5t-14 41.5t-1.5 52q-7 0 -19 2t-23.5 7t-20 13t-8.5 19q0 3 0.5 6l0.5 3q3 3 8.5 10.5t12 16t12 15.5t7.5 10q-16 0 -23 14t-7 27q-1 -8 -8 -20.5t-17 -12.5q-14 0 -23 7.5t-14.5 18.5
t-7.5 23.5t-2 22.5q0 22 9 44.5t22.5 43.5t29.5 40.5t31 34.5q0 2 0.5 5.5t0.5 6.5q0 8 -3.5 15t-7.5 14t-7.5 14.5t-3.5 16.5q0 11 3.5 19.5t8.5 17t10.5 16.5t8.5 18q11 27 19 56t17.5 57t22 53.5t32.5 45.5q2 -5 2 -9v-4q0 -25 -8 -49.5t-18 -48.5t-18 -47.5t-8 -47.5v-6
q4 4 15.5 11.5t14.5 9.5q2 0 6 1.5t11 2.5q7 2 16 1q12 0 5 13q0 25 5 37.5t12 25.5q7 14 19.5 23t42.5 9q17 0 34 -6.5t31.5 -17.5t25 -26t14.5 -33l2 -10q-27 0 -29 1q-4 2 -13 2l-9 -80q-11 -30 -25 -35l-34 17v-17q0 -12 10 -22.5t24 -18t29 -12.5t25 -7q2 6 4.5 18.5
t6.5 24.5q5 12 12 22.5t19 26.5q8 8 18 15t21 14q2 0 10.5 0.5t9.5 0.5q22 0 36 -8.5t21.5 -23t10 -34t2.5 -41.5q0 -25 -8 -50t-21.5 -47.5t-32 -41t-38.5 -30.5q-30 9 -40.5 16.5t-14 16.5t-7 20.5t-19.5 28.5q-13 13 -33.5 16.5t-36.5 13.5q-10 -5 -21 -9t-20.5 -10
t-15.5 -14.5t-6 -21.5q0 -19 8.5 -34.5t18.5 -29.5t18.5 -28.5t8.5 -30.5q0 -2 -0.5 -3.5l-0.5 -1.5q-4 -3 -16 -7.5t-16 -2.5q-2 0 -6 3t-8.5 6.5t-8.5 7t-7 4.5q-1 0 -6 -1.5t-7 -1.5q0 -46 -9 -87.5t-9 -86.5zM160 395q0 -11 2.5 -23t9 -22t16.5 -17t25 -7q0 7 -5.5 18.5
t-13.5 23t-17.5 19.5t-16.5 8zM215 231q0 22 -13.5 42t-30.5 32v-4v-5q5 -21 8.5 -33.5t6 -23.5t4 -23t1.5 -31q7 0 12 5t7.5 12t3.5 15t1 14zM246 405q-1 1 -6.5 3.5t-11.5 5t-11 4.5t-6 3h-5h-4q-2 -1 -9 -7t-10 -9q9 -7 18 -8t19 -1h6q7 0 13.5 2t6.5 7zM253 551
q-3 8 -14 15t-23.5 12t-23.5 8t-14 3l-4 -4.5t-10 -10.5t-11.5 -12.5t-7.5 -10.5q0 -2 -2 -4.5t-2 -3.5h34q2 -8 4 -15t-4 -14q-5 -8 -12 -21t-10 -17l-1 -3q0 -2 0.5 -3.5l0.5 -1.5q2 -3 4.5 -6t4.5 -3h4q24 0 32 16t14 39q5 20 12 32t29 5zM550 495q0 8 -2.5 13.5
t-11.5 11.5q-31 -4 -37 -17.5t-6 -33.5q18 0 37.5 6t19.5 20zM493 435q-10 0 -10 -12q0 -13 10 -13t10 13q0 12 -10 12zM228 295q-2 -6 2.5 -10.5t10.5 -1.5q2 1 1 4t-3.5 6t-5.5 4t-5 -2zM416 395q30 -5 30 -30q-26 0 -30 30zM428 420q10 0 10 -12q0 -13 -10 -13t-10 13
q0 12 10 12zM441 433q10 0 10 -13q0 -12 -10 -12t-10 12q0 13 10 13zM111 423q-10 0 -10 -13l10 -12q10 0 10 12q0 13 -10 13zM191 458v-13h12zM153 458q-10 0 -10 -13q0 -12 10 -12t10 12q0 13 -10 13zM303 483q-10 0 -10 -13q0 -12 10 -12t10 12q0 13 -10 13zM325 686h-12
q-15 0 -19 -6t-4 -17q11 0 23 5.5t12 17.5zM477 578l-29 -25q0 -9 3.5 -20.5t11.5 -11.5q9 0 17 5t16 12t16 14.5t16 11.5q-1 1 -4.5 4t-5.5 6v5v5l10 10q-1 -1 -8 -1h-13q-6 0 -30 -15z" />
    <glyph glyph-name="FL00BDh" unicode="&#xbd;" horiz-adv-x="478" 
d="M67 7q2 -1 4 -3.5t4 -3.5h3q2 0 2.5 -0.5t2.5 -0.5h3q17 0 27 7.5t20 21.5q4 6 8 6.5t4 8.5v6q0 2 -1.5 11t-1.5 11t1.5 7t1.5 6v1q0 10 -3 20t-3 21q0 5 -0.5 13.5t2.5 13.5l14 28t10 31v18v21q0 11 0.5 20.5t3.5 15.5q0 3 2 10t5 14t5.5 13t3.5 7q0 2 4.5 11t4.5 11
q5 11 4 23t4 23q3 4 6.5 15l7 22t6.5 19.5t4 8.5h4q2 0 2.5 -0.5t1.5 -0.5q0 -3 1.5 -11.5t2.5 -10.5l3 -8q1 -2 5 -11.5t6 -17.5q4 -6 4.5 -7.5t2.5 -5.5v-1v-2v-3v-1q2 -14 6 -28t9 -28q0 -1 1.5 -4t1.5 -5q5 -15 7 -26t7 -28v-71q0 -5 3 -13t8 -13q1 -1 3.5 -5t5.5 -8.5
t5.5 -8.5t3.5 -5q7 -11 7.5 -23.5t0.5 -24.5q0 -5 -1.5 -8.5t-1.5 -8.5v-2q0 -2 2 -5.5t2 -5.5q0 -1 -0.5 -2l-0.5 -1v-4v-4q0 -3 0.5 -12.5t0.5 -11.5q0 -3 2 -3l6 -3q5 -5 8.5 -11.5t12.5 -6.5h44q1 0 1 1q0 7 -8.5 13.5t-11.5 9.5l-18 40v4q0 24 3.5 48.5t3.5 50.5
q0 17 -2 33t-9 33q-1 0 -3.5 5.5t-5.5 11.5t-5 11.5t-2 6.5q-10 27 -10 59q0 10 1 14.5t5 14.5v68q0 10 -5 19.5t-7 17.5q0 2 -0.5 12t-2.5 17q-1 3 -1 5l-2 6q0 2 -0.5 3.5t-3.5 6.5q-3 8 -8.5 20t-6.5 15q-2 0 -3.5 5.5t-1.5 6.5t-1.5 4l-2.5 5v42q0 1 3 8t7.5 15
t8.5 16.5t6 14.5h2q2 -8 8.5 -18.5t14.5 -15.5q8 -6 10 -6.5t6 -7.5q5 -9 7 -25.5t9 -28.5q3 -8 8.5 -14t11.5 -12t10 -13.5t4 -17.5q0 -5 -4 -9t-8.5 -8t-8 -8.5t-3.5 -9.5t1.5 -7l4.5 -6q7 -14 15.5 -17t25.5 -3q2 0 3.5 0.5l1.5 0.5l6 4l1 11t2 17v2v7v4q0 10 -0.5 20.5
t-5.5 19.5q-2 19 -3 35t-5 34q0 4 -2 6q-16 26 -32 50t-28 53q-5 11 -11 28t-20 22q-1 1 -7.5 1.5t-8.5 2.5q-2 0 -11.5 4t-11.5 6q-5 0 -17.5 4.5t-16.5 4.5l-4 4v33l4 9v5v8v5v6v12v9v5q0 4 -2 4l-0.5 0.5t-2.5 0.5q-7 13 -15 13h-34q-7 0 -12.5 -7.5t-7.5 -13.5
q-2 -10 -2 -17v-16q0 -7 2 -13t2 -11v-6q0 -2 -0.5 -9.5t-1.5 -9.5q0 -3 -6 -5l-47 -18q-10 -4 -19.5 -7t-17.5 -8l-21 -28q-4 -7 -4 -16q0 -11 -4 -18q-2 -3 -4 -8l-2 -5v-4v-11v-3q0 -2 -1.5 -8t-1.5 -8q-4 -11 -9.5 -18.5t-7.5 -17.5l-1 -6q-8 -15 -13 -29t-5 -31v-4v-9
v-3q0 -4 0.5 -11l1 -14t1 -12.5t1.5 -5.5l1 -2v-30q0 -11 10 -23.5t21 -12.5h3l19 13l5.5 11t3.5 12q0 2 -3 7t-7 10t-8.5 9t-6.5 4v3q0 1 -0.5 3t-0.5 4v2q0 17 3 26.5t14 25.5l3 8q4 11 2.5 24t3.5 25q2 5 4.5 6t4.5 4l21 43q2 -5 6 -14t6 -11q0 -2 3.5 -6t3.5 -5
q2 0 3.5 -2.5l1.5 -2.5q2 -10 2 -17v-19v-11q0 -10 -6 -17.5t-8 -17.5q-7 -27 -11.5 -52t-4.5 -54q0 -11 3 -21t3 -21q0 -10 -0.5 -16.5t-5.5 -15.5q-2 -2 -2 -5q-5 -16 -6 -25.5t-6 -20.5l-12 -24q-7 -14 -8.5 -30.5t-1.5 -32.5v-5q0 -2 0.5 -4t0.5 -4v-1l13 -88v-1
q0 -2 0.5 -3t0.5 -3v-1q0 -21 -4 -33q0 -7 -5 -17t-11 -19.5t-10.5 -16.5t-4.5 -8z" />
    <glyph glyph-name="FL00BEh" unicode="&#xbe;" horiz-adv-x="606" 
d="M384 97q0 -15 -5.5 -26.5t-12.5 -22.5t-12.5 -22t-5.5 -26q31 0 50.5 10t30 27.5t14 41.5t1.5 52q7 0 19 2t23.5 7t20 13t8.5 19q0 3 -0.5 6l-0.5 3q-3 3 -8.5 10.5t-12 16t-12 15.5t-7.5 10q16 0 23 14t7 27q1 -8 8 -20.5t17 -12.5q14 0 23 7.5t14.5 18.5t7.5 23.5
t2 22.5q0 22 -9 44.5t-22.5 43.5t-29.5 40.5t-31 34.5q0 2 -0.5 5.5t-0.5 6.5q0 8 3.5 15t7.5 14t7.5 14.5t3.5 16.5q0 11 -3.5 19.5t-8.5 17t-10.5 16.5t-8.5 18q-11 27 -19 56t-17.5 57t-22 53.5t-32.5 45.5q-2 -5 -2 -9v-4q0 -25 8 -49.5t18 -48.5t18 -47.5t8 -47.5v-6
q-4 4 -15.5 11.5t-14.5 9.5q-2 0 -6 1.5t-11 2.5q-7 2 -16 1q-12 0 -5 13q0 25 -5 37.5t-12 25.5q-7 14 -19.5 23t-42.5 9q-17 0 -34 -6.5t-31.5 -17.5t-25 -26t-14.5 -33l-2 -10q27 0 29 1q4 2 13 2l9 -80q11 -30 25 -35l34 17v-17q0 -12 -10 -22.5t-24 -18t-29 -12.5
t-25 -7q-2 6 -4.5 18.5t-6.5 24.5q-5 12 -12 22.5t-19 26.5q-8 8 -18 15t-21 14q-2 0 -10.5 0.5t-9.5 0.5q-23 0 -36.5 -8.5t-21 -23t-10 -34t-2.5 -41.5q0 -25 8 -50t21.5 -47.5t32 -41t38.5 -30.5q30 9 40.5 16.5t14 16.5t7 20.5t19.5 28.5q13 13 33.5 16.5t36.5 13.5
q10 -5 21 -9t20.5 -10t15.5 -14.5t6 -21.5q0 -19 -8.5 -34.5t-18.5 -29.5t-18.5 -28.5t-8.5 -30.5q0 -2 0.5 -3.5l0.5 -1.5q4 -3 16 -7.5t16 -2.5q2 0 6 3t8.5 6.5t8.5 7t7 4.5q1 0 6 -1.5t7 -1.5q0 -46 9 -87.5t9 -86.5zM446 395q0 -11 -2.5 -23t-9 -22t-16.5 -17t-25 -7
q0 7 5.5 18.5t13.5 23t17 19.5t17 8zM391 231q0 22 13.5 42t30.5 32v-4v-5q-5 -21 -8.5 -33.5t-6 -23.5t-4 -23t-1.5 -31q-8 0 -12.5 5t-7 12t-3.5 15t-1 14zM360 405q1 1 6.5 3.5t11.5 5t11 4.5t6 3h5h4q2 -1 9 -7t10 -9q-9 -7 -18 -8t-19 -1h-6q-7 0 -13.5 2t-6.5 7z
M353 551q3 8 14 15t23.5 12t23.5 8t14 3l4 -4.5t10 -10.5t11.5 -12.5t7.5 -10.5q0 -2 2 -4.5t2 -3.5h-34q-2 -8 -4 -15t4 -14q5 -8 12 -21t10 -17l1 -3q0 -2 -0.5 -3.5l-0.5 -1.5q-2 -3 -4.5 -6t-4.5 -3h-4q-24 0 -32 16t-14 39q-5 20 -12 32t-29 5zM56 495q0 8 2.5 13.5
t11.5 11.5q31 -4 37 -17.5t6 -33.5q-18 0 -37.5 6t-19.5 20zM113 435q10 0 10 -12q0 -13 -10 -13t-10 13q0 12 10 12zM378 295q2 -6 -2.5 -10.5t-10.5 -1.5q-2 1 -1 4t3.5 6t5.5 4t5 -2zM190 395q-30 -5 -30 -30q25 0 30 30zM178 420q-10 0 -10 -12q0 -13 10 -13t10 13
q0 12 -10 12zM165 433q-10 0 -10 -13q0 -12 10 -12t10 12q0 13 -10 13zM495 423q10 0 10 -13l-10 -12q-10 0 -10 12q0 13 10 13zM415 458v-13h-12zM453 458q10 0 10 -13q0 -12 -10 -12t-10 12q0 13 10 13zM303 483q10 0 10 -13q0 -12 -10 -12t-10 12q0 13 10 13zM281 686h12
q15 0 19 -6t4 -17q-11 0 -23 5.5t-12 17.5zM129 578l29 -25q0 -9 -3.5 -20.5t-11.5 -11.5q-9 0 -17 5t-16 12t-16 14.5t-16 11.5q1 1 4.5 4t5.5 6v5v5l-10 10q1 -1 8 -1h13q6 0 30 -15z" />
    <glyph glyph-name="FL00BFh" unicode="&#xbf;" horiz-adv-x="705" 
d="M399 322l147 84q27 14 41 25t21 26t8 37.5t1 58.5l-183 3q-15 -11 -6 -30q9 -18 -2 -29t-26 -17.5t-33 -12.5q-29 -24 -65 -35.5t-73.5 -18.5t-73.5 -14.5t-63.5 -24t-44.5 -45.5t-17 -80q0 -86 26.5 -136t69.5 -75.5t98 -33t113 -7.5q32 0 73.5 1t84.5 3t83 6t70 10
q6 1 16.5 5t10.5 5l-1 167q-94 -34 -146.5 -46t-63.5 -12q-25 0 -55 -2t-59 -3t-54 2t-40.5 12.5t-19 28.5t10.5 50q13 29 37 46.5t48.5 27.5t43.5 15t23 9zM434 653l163 -2q2 0 5.5 4t4.5 6q4 8 7 22t5 29.5t3 31t1 26.5v16v21q-30 0 -51.5 0.5t-40.5 0.5t-43.5 1t-47.5 -1
q-11 -20 -14 -48.5t-3 -54.5v-32q0 -5 1.5 -12.5t9.5 -7.5z" />
    <glyph glyph-name="FL00C0h" unicode="&#xc0;" horiz-adv-x="1051" 
d="M339 337q0 1 0.5 3l0.5 2l107 213l13 -13l94 -220h-204q-1 0 -5 4t-5 6l-0.5 2t-0.5 3zM30 32v-30q0 -1 7 -2.5t16.5 -3t19.5 -3t17 -1.5h7q6 0 14 -0.5t15 -0.5h12q6 0 18.5 0.5t13.5 0.5l10 10l80 160q10 19 42.5 30.5t73 17.5t82.5 8.5t71 4.5l52 3q18 1 31.5 -15
t24.5 -41t19.5 -54.5t15.5 -54.5t14 -42t14 -17h310q2 0 5 4t5 6l0.5 2t0.5 3q0 12 -12 16t-19 9q-35 29 -63 70t-47 80l-290 620q-4 8 -8 9.5t-11 1.5q-10 0 -22.5 -3.5t-25 -8t-24 -10t-19.5 -9.5q-28 -12 -42.5 -28.5t-23.5 -37t-15.5 -44.5t-18.5 -50l-18 -36t-25 -49.5
t-23.5 -47t-13.5 -27.5q-61 -112 -126.5 -224.5t-143.5 -215.5zM361 1056q-8 0 -9.5 -7.5t-1.5 -12.5q0 -14 18 -37.5t41 -48.5t44 -48t27 -36q23 -2 41.5 -2.5t37.5 -0.5t40.5 0.5t51.5 0.5v21l-7 10t-18.5 25.5t-26 34t-28.5 36t-27 32.5t-22 22q-2 2 -5 6t-5 4z" />
    <glyph glyph-name="FL00C1h" unicode="&#xc1;" horiz-adv-x="1051" 
d="M30 32q78 103 143.5 215.5t126.5 224.5q3 6 13.5 27.5t23.5 47t25 49.5l18 36q12 26 18.5 50t15.5 44.5t23.5 37t42.5 28.5q8 4 19.5 9.5t24 10t25 8t22.5 3.5q7 0 11 -1.5t8 -9.5l290 -620q19 -39 47 -80t63 -70q7 -5 19 -9t12 -16q0 -1 -0.5 -3l-0.5 -2q-2 -2 -5 -6
t-5 -4h-310q-7 0 -14 17t-14 42t-15.5 54.5t-19.5 54.5t-24.5 41t-31.5 15l-52 -3q-29 -2 -71 -4.5t-82.5 -8.5t-73 -17.5t-42.5 -30.5l-80 -160l-10 -10q-1 0 -13.5 -0.5t-18.5 -0.5h-12q-7 0 -15 0.5t-14 0.5h-7q-7 0 -17 1.5t-19.5 3t-16.5 3t-7 2.5v30zM339 337
q0 -1 0.5 -3l0.5 -2q1 -2 5 -6t5 -4h204l-94 220l-13 13l-107 -213l-0.5 -2t-0.5 -3zM657 1053q8 0 9.5 -7.5t1.5 -12.5q0 -14 -18 -37.5t-41 -48.5t-44 -48t-27 -36q-23 -2 -41.5 -2.5t-37.5 -0.5t-40.5 0.5t-51.5 0.5v21q0 1 15 22t36 47.5t43 52.5t35 38q2 2 5 6t5 4z
" />
    <glyph glyph-name="FL00C2h" unicode="&#xc2;" horiz-adv-x="1051" 
d="M30 32q78 103 143.5 215.5t126.5 224.5q3 6 13.5 27.5t23.5 47t25 49.5l18 36q12 26 18.5 50t15.5 44.5t23.5 37t42.5 28.5q8 4 19.5 9.5t24 10t25 8t22.5 3.5q7 0 11 -1.5t8 -9.5l290 -620q19 -39 47 -80t63 -70q7 -5 19 -9t12 -16q0 -1 -0.5 -3l-0.5 -2q-2 -2 -5 -6
t-5 -4h-310q-7 0 -14 17t-14 42t-15.5 54.5t-19.5 54.5t-24.5 41t-31.5 15l-52 -3q-29 -2 -71 -4.5t-82.5 -8.5t-73 -17.5t-42.5 -30.5l-80 -160l-10 -10q-1 0 -13.5 -0.5t-18.5 -0.5h-12q-7 0 -15 0.5t-14 0.5h-7q-7 0 -17 1.5t-19.5 3t-16.5 3t-7 2.5v30zM339 337
q0 -1 0.5 -3l0.5 -2q1 -2 5 -6t5 -4h204l-94 220l-13 13l-107 -213l-0.5 -2t-0.5 -3zM455 1056l151 -1q1 0 3 -2q8 -2 9 -11q14 -12 35.5 -38t42 -52t35 -46t14.5 -21v-21q-30 0 -51.5 -0.5t-40.5 -0.5q-9 0 -14.5 -0.5t-10.5 -0.5h-12h-8q-4 0 -10 1q-2 4 -10.5 15.5
t-18.5 25t-20.5 26.5t-17.5 21q-8 -8 -18.5 -21.5t-20.5 -27.5t-18 -26t-10 -16q-6 -1 -11 -1h-7h-11q-5 0 -10.5 0.5t-14.5 0.5q-19 0 -40.5 0.5t-51.5 0.5v21q0 1 14.5 20.5t34.5 46t41.5 52t35.5 38.5q0 5 1.5 11t9.5 6z" />
    <glyph glyph-name="FL00C3h" unicode="&#xc3;" horiz-adv-x="1051" 
d="M30 32q78 103 143.5 215.5t126.5 224.5q3 6 13.5 27.5t23.5 47t25 49.5l18 36q12 26 18.5 50t15.5 44.5t23.5 37t42.5 28.5q8 4 19.5 9.5t24 10t25 8t22.5 3.5q7 0 11 -1.5t8 -9.5l290 -620q19 -39 47 -80t63 -70q7 -5 19 -9t12 -16q0 -1 -0.5 -3l-0.5 -2q-2 -2 -5 -6
t-5 -4h-310q-5 0 -10 16.5t-12.5 41t-17 53t-23 53t-32 41t-42.5 16.5h-34q-29 0 -71 -2.5t-82.5 -9.5t-73 -18.5t-42.5 -30.5l-80 -160l-10 -10q-1 0 -13.5 -0.5t-18.5 -0.5h-12q-7 0 -15 0.5t-14 0.5h-7q-7 0 -17 1.5t-19.5 3t-16.5 3t-7 2.5v30zM339 337q0 -1 0.5 -3
l0.5 -2q1 -2 5 -6t5 -4h204l-94 220l-13 13l-107 -213l-0.5 -2t-0.5 -3zM287 820q0 17 5 35t12.5 36t15 35.5t12.5 32.5q2 5 5.5 12.5t4.5 8.5h338q1 0 8.5 4t11.5 6l35 60h5q10 0 18 -4t8 -15q0 -24 -3 -39.5t-9 -29.5t-14 -29t-18 -37q-2 -4 -5.5 -9.5t-4.5 -6.5h-348
q-2 -3 -8.5 -14.5t-14 -24.5t-14.5 -23.5t-10 -11.5q-2 0 -14 3t-16 7v4z" />
    <glyph glyph-name="FL00C4h" unicode="&#xc4;" horiz-adv-x="1051" 
d="M339 337q0 1 0.5 3l0.5 2l107 213l13 -13l94 -220h-204q-1 0 -5 4t-5 6l-0.5 2t-0.5 3zM30 32v-30q0 -1 7 -2.5t16.5 -3t19.5 -3t17 -1.5h7q6 0 14 -0.5t15 -0.5h12q6 0 18.5 0.5t13.5 0.5l10 10l80 160q10 19 42.5 30.5t73 18.5t82.5 9.5t71 2.5h34q24 0 42.5 -16.5
t32 -41t23 -53t17 -53t12.5 -41t10 -16.5h310q2 0 5 4t5 6l0.5 2t0.5 3q0 12 -12 16t-19 9q-35 29 -63 70t-47 80l-290 620q-4 8 -8 9.5t-11 1.5q-10 0 -22.5 -3.5t-25 -8t-24 -10t-19.5 -9.5q-28 -12 -42.5 -28.5t-23.5 -37t-15.5 -44.5t-18.5 -50l-18 -36t-25 -49.5
t-23.5 -47t-13.5 -27.5q-61 -112 -126.5 -224.5t-143.5 -215.5zM497 1020l-151 -1q-2 0 -5.5 -4t-4.5 -6q-5 -8 -8 -22t-5 -29.5t-2.5 -31t-0.5 -26.5v-16v-21q30 0 51.5 -0.5t40.5 -0.5t37.5 0.5t41.5 2.5q11 20 14 48.5t3 54.5v32q0 5 -1.5 12.5t-9.5 7.5zM739 1021
l-151 -1q-2 0 -5.5 -4t-4.5 -6q-5 -8 -8 -22t-5 -29.5t-2.5 -31t-0.5 -26.5v-16v-21q30 0 51.5 -0.5t40.5 -0.5t37.5 0.5t41.5 2.5q11 20 14 48.5t3 54.5v32q0 5 -1.5 12.5t-9.5 7.5z" />
    <glyph glyph-name="FL00C5h" unicode="&#xc5;" horiz-adv-x="1051" 
d="M339 337q0 1 0.5 3l0.5 2l107 213l13 -13l94 -220h-204q-1 0 -5 4t-5 6l-0.5 2t-0.5 3zM30 32v-30q0 -1 7 -2.5t16.5 -3t19.5 -3t17 -1.5h7q6 0 14 -0.5t15 -0.5h12q6 0 18.5 0.5t13.5 0.5l10 10l80 160q10 19 42.5 30.5t73 18.5t82.5 9.5t71 2.5h34q24 0 42.5 -16.5
t32 -41t23 -53t17 -53t12.5 -41t10 -16.5h310q2 0 5 4t5 6l0.5 2t0.5 3q0 12 -12 16t-19 9q-35 29 -63 70t-47 80l-290 620q-4 8 -8 9.5t-11 1.5q-10 0 -22.5 -3.5t-25 -8t-24 -10t-19.5 -9.5q-28 -12 -42.5 -28.5t-23.5 -37t-15.5 -44.5t-18.5 -50l-18 -36t-25 -49.5
t-23.5 -47t-13.5 -27.5q-61 -112 -126.5 -224.5t-143.5 -215.5zM601 1022l-151 -1q-2 0 -5.5 -4t-4.5 -6q-5 -8 -8 -22t-5 -29.5t-2.5 -31t-0.5 -26.5v-16v-21q30 0 51.5 -0.5t40.5 -0.5t37.5 0.5t41.5 2.5q11 20 14 48.5t3 54.5v32q0 5 -1.5 12.5t-9.5 7.5z" />
    <glyph glyph-name="FL00C6h" unicode="&#xc6;" horiz-adv-x="1497" 
d="M30 32q78 103 143.5 215.5t126.5 224.5q3 6 13.5 27.5t23.5 47t25 49.5l18 36q12 26 18.5 50t15.5 44.5t23.5 37t42.5 28.5q8 4 19.5 9.5t24 10t25 8t22.5 3.5q7 0 11 -1.5t8 -9.5l284 -608l176 122l-308 331v20q0 1 9 12.5t22 27.5t26.5 32.5l22.5 27.5q3 4 14.5 15.5
t15.5 14.5q17 0 53 -0.5t81 -0.5h191q46 0 82 0.5t53 0.5q6 0 20 1t30 2.5t30 3.5t20 3q2 -1 5.5 -4.5t4.5 -5.5l0.5 -2t0.5 -3t-0.5 -3l-0.5 -2q-13 -25 -37.5 -49.5t-42.5 -40.5q-10 0 -30 -1t-46 -3t-54 -4.5t-54 -4.5t-46.5 -4t-29.5 -3q-3 0 -13.5 -1t-22 -2.5
t-21.5 -3.5t-13 -3q14 -16 39 -39t54.5 -48.5t60 -52t55.5 -48.5t41 -38t16 -21q0 -2 -0.5 -5.5t-1.5 -4.5q-31 -34 -65.5 -64.5t-69.5 -60.5t-69.5 -60.5t-65.5 -64.5q29 -10 60.5 -14.5t63.5 -6t64 -1t62 0.5q54 0 105.5 6t105.5 6q0 -39 -24.5 -69t-59.5 -50.5t-75.5 -31
t-71.5 -10.5h-510q-1 0 -3 2h-23q-5 0 -10 16.5t-12.5 41t-17 53t-23 53t-32 41t-42.5 16.5h-34q-29 0 -71 -2.5t-82.5 -9.5t-73 -18.5t-42.5 -30.5l-80 -160l-10 -10q-1 0 -13.5 -0.5t-18.5 -0.5h-12q-7 0 -15 0.5t-14 0.5h-7q-7 0 -17 1.5t-19.5 3t-16.5 3t-7 2.5v30z
M339 337q0 -1 0.5 -3l0.5 -2q1 -2 5 -6t5 -4h204l-94 220l-13 13l-107 -213l-0.5 -2t-0.5 -3z" />
    <glyph glyph-name="FL00C7h" unicode="&#xc7;" horiz-adv-x="890" 
d="M591 752l-85 -1q-46 0 -79.5 -15t-56.5 -40t-36.5 -59t-21 -71.5t-10 -77t-2.5 -76.5q0 -45 2 -89.5t11 -84t27.5 -71.5t51.5 -53l15 -6q-8 2 -11 3l15 -4q56 -12 160 -4t256 14l-1 -117h-216q-9 -22 -21 -46.5t-24 -47t-21.5 -41t-13.5 -27.5q-23 -2 -41.5 -2.5
t-37.5 -0.5t-40.5 0.5t-51.5 0.5l-56 63l18 9.5t43 24t51.5 32t43.5 35.5q-78 7 -154.5 33t-137.5 71.5t-99 111.5t-38 153q0 118 37 204.5t104 143.5q34 29 70 48.5t75 32t81 20t88 11.5h341q16 -17 25 -31t9 -31q0 -16 -10 -38.5t-32 -56.5l-89 -8z" />
    <glyph glyph-name="FL00C8h" unicode="&#xc8;" horiz-adv-x="812" 
d="M30 15q0 -1 0.5 -3l0.5 -2q2 -2 5.5 -6t4.5 -4h510q31 0 71.5 10.5t75.5 31t59.5 50.5t24.5 69q-54 0 -105.5 -6t-105.5 -6q-30 0 -62 -0.5t-64 1t-63.5 6t-60.5 14.5q31 34 65.5 64.5t69.5 60.5t69.5 60.5t65.5 64.5q1 1 1.5 4.5t0.5 5.5q0 5 -16 21t-41 38t-55.5 48.5
t-60 52t-54.5 48.5t-39 39q3 1 13 3t21.5 3.5t22 2.5t13.5 1q9 1 29.5 3t46.5 4t54 4.5t54 4.5t46 3t30 1q18 16 42.5 40.5t37.5 49.5l0.5 2t0.5 3t-0.5 3l-0.5 2q-1 2 -4.5 5.5t-5.5 4.5q-6 -1 -20 -3t-30 -3.5t-30 -2.5t-20 -1q-17 0 -53 -0.5t-82 -0.5h-95h-96
q-45 0 -81 0.5t-53 0.5q-4 -3 -15.5 -14.5t-14.5 -15.5l-22.5 -27.5t-26.5 -32.5t-22 -27.5t-9 -12.5v-20l308 -331l-254 -176q-3 -2 -10.5 -10t-9.5 -10q-4 -6 -12.5 -21.5t-18 -33t-18 -33.5t-11.5 -22q0 -1 -0.5 -2.5t-0.5 -2.5zM271 1055q-8 0 -9.5 -7.5t-1.5 -12.5
q0 -14 18 -37.5t41 -48.5t44 -48t27 -36q23 -2 41.5 -2.5t37.5 -0.5t40.5 0.5t51.5 0.5v21q0 1 -15 22t-36 47.5t-43 52.5t-35 38q-2 2 -5 6t-5 4z" />
    <glyph glyph-name="FL00C9h" unicode="&#xc9;" horiz-adv-x="812" 
d="M30 15q0 1 0.5 2.5t0.5 2.5q3 6 11.5 22t18 33.5t18 33t12.5 21.5q2 2 9.5 10t10.5 10l254 176l-308 331v20q0 1 9 12.5t22 27.5t26.5 32.5l22.5 27.5q3 4 14.5 15.5t15.5 14.5q17 0 53 -0.5t81 -0.5h96h95q46 0 82 0.5t53 0.5q6 0 20 1t30 2.5t30 3.5t20 3
q2 -1 5.5 -4.5t4.5 -5.5l0.5 -2t0.5 -3t-0.5 -3l-0.5 -2q-13 -25 -37.5 -49.5t-42.5 -40.5q-10 0 -30 -1t-46 -3t-54 -4.5t-54 -4.5t-46.5 -4t-29.5 -3q-3 0 -13.5 -1t-22 -2.5t-21.5 -3.5t-13 -3q14 -16 39 -39t54.5 -48.5t60 -52t55.5 -48.5t41 -38t16 -21q0 -2 -0.5 -5.5
t-1.5 -4.5q-31 -34 -65.5 -64.5t-69.5 -60.5t-69.5 -60.5t-65.5 -64.5q29 -10 60.5 -14.5t63.5 -6t64 -1t62 0.5q54 0 105.5 6t105.5 6q0 -39 -24.5 -69t-59.5 -50.5t-75.5 -31t-71.5 -10.5h-510q-1 0 -4.5 4t-5.5 6l-0.5 2t-0.5 3zM580 1054q8 0 9.5 -7.5t1.5 -12.5
q0 -14 -18 -37.5t-41 -48.5t-44 -48t-27 -36q-23 -2 -41.5 -2.5t-37.5 -0.5t-40.5 0.5t-51.5 0.5v21l7 10t18.5 25.5t26 34t28.5 36t27 32t22 22.5q2 2 5 6t5 4z" />
    <glyph glyph-name="FL00CAh" unicode="&#xca;" horiz-adv-x="812" 
d="M30 15q0 1 0.5 2.5t0.5 2.5q3 6 11.5 22t18 33.5t18 33t12.5 21.5q2 2 9.5 10t10.5 10l254 176l-308 331v20q0 1 9 12.5t22 27.5t26.5 32.5l22.5 27.5q3 4 14.5 15.5t15.5 14.5q17 0 53 -0.5t81 -0.5h96h95q46 0 82 0.5t53 0.5q6 0 20 1t30 2.5t30 3.5t20 3
q2 -1 5.5 -4.5t4.5 -5.5l0.5 -2t0.5 -3t-0.5 -3l-0.5 -2q-13 -25 -37.5 -49.5t-42.5 -40.5q-10 0 -30 -1t-46 -3t-54 -4.5t-54 -4.5t-46.5 -4t-29.5 -3q-3 0 -13.5 -1t-22 -2.5t-21.5 -3.5t-13 -3q14 -16 39 -39t54.5 -48.5t60 -52t55.5 -48.5t41 -38t16 -21q0 -2 -0.5 -5.5
t-1.5 -4.5q-31 -34 -65.5 -64.5t-69.5 -60.5t-69.5 -60.5t-65.5 -64.5q29 -10 60.5 -14.5t63.5 -6t64 -1t62 0.5q54 0 105.5 6t105.5 6q0 -39 -24.5 -69t-59.5 -50.5t-75.5 -31t-71.5 -10.5h-510q-1 0 -4.5 4t-5.5 6l-0.5 2t-0.5 3zM341 1057l151 -1q1 0 3 -2q8 -2 9 -11
q14 -12 35.5 -38t42 -52t35 -46t14.5 -21v-21q-30 0 -51.5 -0.5t-40.5 -0.5q-9 0 -14.5 -0.5t-10.5 -0.5h-12h-8q-4 0 -10 1q-2 4 -10.5 15.5t-18.5 25t-20.5 26.5t-17.5 21q-8 -8 -18.5 -21.5t-20.5 -27.5t-18 -26t-10 -16q-6 -1 -11 -1h-7h-11q-5 0 -10.5 0.5t-14.5 0.5
q-19 0 -40.5 0.5t-51.5 0.5v21q0 1 14.5 20.5t34.5 46t41.5 52t35.5 38.5q0 5 1.5 11t9.5 6z" />
    <glyph glyph-name="FL00CBh" unicode="&#xcb;" horiz-adv-x="812" 
d="M30 15q0 -1 0.5 -3l0.5 -2q2 -2 5.5 -6t4.5 -4h510q31 0 71.5 10.5t75.5 31t59.5 50.5t24.5 69q-54 0 -105.5 -6t-105.5 -6q-30 0 -62 -0.5t-64 1t-63.5 6t-60.5 14.5q31 34 65.5 64.5t69.5 60.5t69.5 60.5t65.5 64.5q1 1 1.5 4.5t0.5 5.5q0 5 -16 21t-41 38t-55.5 48.5
t-60 52t-54.5 48.5t-39 39q3 1 13 3t21.5 3.5t22 2.5t13.5 1q9 1 29.5 3t46.5 4t54 4.5t54 4.5t46 3t30 1q18 16 42.5 40.5t37.5 49.5l0.5 2t0.5 3t-0.5 3l-0.5 2q-1 2 -4.5 5.5t-5.5 4.5q-6 -1 -20 -3t-30 -3.5t-30 -2.5t-20 -1q-17 0 -53 -0.5t-82 -0.5h-95h-96
q-45 0 -81 0.5t-53 0.5q-4 -3 -15.5 -14.5t-14.5 -15.5l-22.5 -27.5t-26.5 -32.5t-22 -27.5t-9 -12.5v-20l308 -331l-254 -176q-3 -2 -10.5 -10t-9.5 -10q-4 -6 -12.5 -21.5t-18 -33t-18 -33.5t-11.5 -22q0 -1 -0.5 -2.5t-0.5 -2.5zM386 1020l-151 -1q-2 0 -5.5 -4t-4.5 -6
q-5 -8 -8 -22t-5 -29.5t-2.5 -31t-0.5 -26.5v-16v-21q30 0 51.5 -0.5t40.5 -0.5t37.5 0.5t41.5 2.5q11 20 14 48.5t3 54.5v32q0 5 -1.5 12.5t-9.5 7.5zM628 1021l-151 -1q-2 0 -5.5 -4t-4.5 -6q-5 -8 -8 -22t-5 -29.5t-2.5 -31t-0.5 -26.5v-16v-21q30 0 51.5 -0.5t40.5 -0.5
t37.5 0.5t41.5 2.5q11 20 14 48.5t3 54.5v32q0 5 -1.5 12.5t-9.5 7.5z" />
    <glyph glyph-name="FL00CCh" unicode="&#xcc;" horiz-adv-x="807" 
d="M278 128l-7 -1.5t-16.5 -3t-19.5 -3t-17 -2.5q-8 -1 -21 -3t-27.5 -3.5t-28 -3t-21.5 -1.5l-90 -90v-20q127 7 223 8t175 -1t148.5 -4.5t144.5 -2.5h10q6 14 14 34t14.5 42t11.5 44.5t5 42.5q-2 0 -12.5 -1t-12.5 -2q-2 0 -9.5 -3t-15.5 -7t-15.5 -7t-9.5 -3
q-33 -6 -61.5 -8t-65.5 -2q-8 0 -21.5 0.5t-14.5 0.5l-5 5q-2 85 -6 167.5t-4 167.5v41q0 27 0.5 52.5t0.5 45.5v23l10 50l7 1.5t16.5 3t19.5 3t17 2.5t20 2.5t26.5 3t26 2.5t20.5 1l90 90v20q-50 0 -93.5 -1.5t-86 -3.5t-86 -3.5t-93.5 -1.5q-47 0 -87.5 1.5t-80 3.5
t-79.5 3.5t-85 1.5h-10q-6 -14 -14 -34t-14.5 -42t-11.5 -45t-5 -42q2 0 12.5 1t12.5 2q2 0 9.5 3t15.5 7t15.5 7t9.5 3q32 6 64 9t68 3q8 0 21.5 -0.5t14.5 -0.5l10 -10l-5 -542h-1zM235 1055q-8 0 -9.5 -7.5t-1.5 -12.5q0 -14 18 -37.5t41 -48.5t44 -48t27 -36
q23 -2 41.5 -2.5t37.5 -0.5t40.5 0.5t51.5 0.5v21q0 1 -15 22t-36 47.5t-43 52.5t-35 38q-2 2 -5 6t-5 4z" />
    <glyph glyph-name="FL00CDh" unicode="&#xcd;" horiz-adv-x="807" 
d="M278 128h1l5 542l-10 10q-1 0 -14.5 0.5t-21.5 0.5q-36 0 -68 -3t-64 -9q-2 0 -9.5 -3t-15.5 -7t-15.5 -7t-9.5 -3q-2 -1 -12.5 -2t-12.5 -1q0 19 5 42t11.5 45t14.5 42t14 34h10q45 0 85 -1.5t79.5 -3.5t80 -3.5t87.5 -1.5q50 0 93.5 1.5t86 3.5t86 3.5t93.5 1.5v-20
l-90 -90q-8 0 -20.5 -1t-26 -2.5t-26.5 -3t-20 -2.5t-17 -2.5t-19.5 -3t-16.5 -3l-7 -1.5l-10 -50v-23q0 -20 -0.5 -45.5t-0.5 -52.5v-41q0 -85 4 -167.5t6 -167.5l5 -5q1 0 14.5 -0.5t21.5 -0.5q37 0 65.5 2t61.5 8q2 0 9.5 3t15.5 7t15.5 7t9.5 3q2 1 12.5 2t12.5 1
q0 -20 -5 -42.5t-11.5 -44.5t-14.5 -42t-14 -34h-10q-75 0 -144.5 2.5t-148.5 4.5t-175 1t-223 -8v20l90 90q8 0 21.5 1.5t28 3t27.5 3.5t21 3q7 1 17 2.5t19.5 3t16.5 3zM564 1056q8 0 9.5 -7.5t1.5 -12.5q0 -14 -18 -37.5t-41 -48.5t-44 -48t-27 -36q-23 -2 -41.5 -2.5
t-37.5 -0.5t-40.5 0.5t-51.5 0.5v21l7 10t18.5 25.5t26 34t28.5 36t27 32.5t22 22q2 2 5 6t5 4z" />
    <glyph glyph-name="FL00CFh" unicode="&#xce;" horiz-adv-x="876" 
d="M310 128h1l5 542l-10 10q-1 0 -14.5 0.5t-21.5 0.5q-18 0 -40 -0.5t-44 -2t-43 -3.5t-37 -5q-2 0 -9.5 -3t-15.5 -7t-15.5 -7t-9.5 -3q-2 -1 -12.5 -2t-12.5 -1q0 19 5 42t11.5 45t14.5 42t14 34h10q91 0 180.5 -5.5t183.5 -5.5q100 0 198 5.5t198 5.5v-20l-90 -90
q-8 0 -26.5 -1t-39 -2.5t-39 -3.5t-25.5 -3t-17 -2.5t-19.5 -3t-16.5 -3l-7 -1.5l-10 -50v-23q0 -20 -0.5 -45.5t-0.5 -52.5v-41q0 -85 4 -167.5t6 -167.5l5 -5q1 0 14.5 -0.5t21.5 -0.5q18 0 40 0.5t44 2t42.5 3.5t37.5 5q2 0 9.5 3t15.5 7t15.5 7t9.5 3q2 1 12.5 2t12.5 1
q0 -20 -5 -42.5t-11.5 -44.5t-14.5 -42t-14 -34h-10q-75 0 -155.5 2.5t-172.5 4.5t-198.5 1t-233.5 -8v20l90 90q8 0 26.5 1t39 2.5t38.5 3.5t26 3q7 1 17 2.5t19.5 3t16.5 3zM353 1058l151 -1q1 0 3 -2q8 -2 9 -11q14 -12 35.5 -38t42 -52t35 -46t14.5 -21v-21
q-30 0 -51.5 -0.5t-40.5 -0.5q-9 0 -14.5 -0.5t-10.5 -0.5h-12h-8q-4 0 -10 1q-2 4 -10.5 15.5t-18.5 25t-20.5 26.5t-17.5 21q-8 -8 -18.5 -21.5t-20.5 -27.5t-18 -26t-10 -16q-6 -1 -11 -1h-7h-11q-5 0 -10.5 0.5t-14.5 0.5q-19 0 -40.5 0.5t-51.5 0.5v21q0 1 14.5 20.5
t34.5 46t41.5 52t35.5 38.5q0 5 1.5 11t9.5 6z" />
    <glyph glyph-name="FL00D1h" unicode="&#xcf;" horiz-adv-x="807" 
d="M278 128l-7 -1.5t-16.5 -3t-19.5 -3t-17 -2.5q-8 -1 -21 -3t-27.5 -3.5t-28 -3t-21.5 -1.5l-90 -90v-20q127 7 223 8t175 -1t148.5 -4.5t144.5 -2.5h10q6 14 14 34t14.5 42t11.5 44.5t5 42.5q-2 0 -12.5 -1t-12.5 -2q-2 0 -9.5 -3t-15.5 -7t-15.5 -7t-9.5 -3
q-33 -6 -61.5 -8t-65.5 -2q-8 0 -21.5 0.5t-14.5 0.5l-5 5q-2 85 -6 167.5t-4 167.5v41q0 27 0.5 52.5t0.5 45.5v23l10 50l7 1.5t16.5 3t19.5 3t17 2.5t20 2.5t26.5 3t26 2.5t20.5 1l90 90v20q-50 0 -93.5 -1.5t-86 -3.5t-86 -3.5t-93.5 -1.5q-47 0 -87.5 1.5t-80 3.5
t-79.5 3.5t-85 1.5h-10q-6 -14 -14 -34t-14.5 -42t-11.5 -45t-5 -42q2 0 12.5 1t12.5 2q2 0 9.5 3t15.5 7t15.5 7t9.5 3q32 6 64 9t68 3q8 0 21.5 -0.5t14.5 -0.5l10 -10l-5 -542h-1zM368 1017l-151 -1q-2 0 -5.5 -4t-4.5 -6q-5 -8 -8 -22t-5 -29.5t-2.5 -31t-0.5 -26.5v-16
v-21q30 0 51.5 -0.5t40.5 -0.5t37.5 0.5t41.5 2.5q11 20 14 48.5t3 54.5v32q0 5 -1.5 12.5t-9.5 7.5zM610 1018l-151 -1q-2 0 -5.5 -4t-4.5 -6q-5 -8 -8 -22t-5 -29.5t-2.5 -31t-0.5 -26.5v-16v-21q30 0 51.5 -0.5t40.5 -0.5t37.5 0.5t41.5 2.5q11 20 14 48.5t3 54.5v32
q0 5 -1.5 12.5t-9.5 7.5z" />
    <glyph glyph-name="FL00D0h" unicode="&#xd0;" horiz-adv-x="1159" 
d="M30 307q0 17 6 38.5t14 43.5t16.5 42.5t13.5 35.5q2 5 5.5 12.5t4.5 7.5h153v197q-23 34 -32.5 52t-8 29t11.5 20.5t26 26.5h431q45 -4 87.5 -11.5t81.5 -20t75 -32t69 -48.5q68 -57 106.5 -135.5t38.5 -195.5q0 -96 -35.5 -166t-96 -115t-140.5 -66.5t-169 -21.5h-445
v328h-143q-2 -3 -7 -8.5t-11.5 -11t-12.5 -10t-9 -5.5q-2 0 -14 3t-16 7v4zM475 735v-247h152q1 0 8.5 4t11.5 6l30 20h5q10 0 18 -4t8 -15q0 -24 -4 -43t-11 -36.5t-16.5 -35.5t-19.5 -40q-2 -4 -5.5 -9.5t-4.5 -5.5h-172v-252q57 1 98 1h68h48h14q9 1 62 30q33 21 52 54
t28.5 73.5t11.5 86t2 90.5q0 55 -6.5 112.5t-28.5 104t-63.5 76t-110.5 29.5z" />
    <glyph glyph-name="FL00DFh" unicode="&#xd1;" horiz-adv-x="1096" 
d="M130 171q0 11 1 20.5t10 18.5v450q0 20 -17.5 31.5t-38 18.5t-38 12t-17.5 13q0 12 13.5 26t32 26t37 20t28.5 8l150 -2h775q0 -17 -6.5 -27t-15.5 -17.5t-20.5 -15t-20.5 -19t-15.5 -29t-6.5 -45.5v-470q0 -36 7 -65.5t13 -64.5v-6v-4q-1 -2 -4.5 -6t-5.5 -4l-230 -40
l-15 10v708q-5 0 -15.5 0.5t-23.5 0.5t-27.5 0.5t-26.5 0.5h-22q-14 0 -42 -1t-58 -2.5t-56 -3.5t-34 -3t-21 -2t-24 -5.5t-16.5 -14.5t1.5 -28v-45q0 -32 -0.5 -67.5t-0.5 -67.5v-45q0 -97 5.5 -190.5t5.5 -190.5q0 -9 -11.5 -16.5t-29 -13.5t-39 -11t-41.5 -8t-36 -4.5
t-23 -1.5q-21 0 -36.5 20.5t-25.5 48.5t-14.5 57t-4.5 46zM318 851q0 17 5 35t12.5 36t15 35.5t12.5 32.5q2 5 5.5 12.5t4.5 8.5h338q1 0 8.5 4t11.5 6l35 60h5q10 0 18 -4t8 -15q0 -24 -3 -39.5t-9 -29.5t-14 -29t-18 -37q-2 -4 -5.5 -9.5t-4.5 -6.5h-348q-2 -3 -8.5 -14.5
t-14 -24.5t-14.5 -23.5t-10 -11.5q-2 0 -14 3t-16 7v4z" />
    <glyph glyph-name="FL00D2h" unicode="&#xd2;" 
d="M661 502l-250 -10q-2 0 -5.5 -4t-4.5 -6q-6 -11 -14.5 -29.5t-16.5 -36t-13.5 -30.5t-5.5 -14v-21q30 0 67 1t74.5 2.5t71.5 3.5t57 4q7 13 15.5 28t16.5 31t13.5 31.5t5.5 29.5q0 5 -1.5 12.5t-9.5 7.5zM300 432v24q0 17 0.5 36t0.5 36v24q9 45 25 80.5t41.5 60t61 37.5
t82.5 13q66 0 109 -28t67.5 -72.5t34 -101t9.5 -113.5q0 -56 -7 -117.5t-29.5 -113t-65 -85t-112.5 -33.5q-72 0 -115 35t-65.5 88t-29.5 114.5t-7 115.5zM30 398q0 -105 34 -180.5t94.5 -124t143 -71.5t180.5 -23q114 0 208 27t161 82.5t104 141.5t37 203q0 96 -35.5 166
t-96 115t-140.5 67t-169 22q-107 0 -202 -22.5t-166 -73t-112 -131.5t-41 -198zM362 1056q-8 0 -9.5 -7.5t-1.5 -12.5q0 -14 18 -37.5t41 -48.5t44 -48t27 -36q23 -2 41.5 -2.5t37.5 -0.5t40.5 0.5t51.5 0.5v21l-7 10t-18.5 25.5t-26 34t-28.5 36t-27 32.5t-22 22q-2 2 -5 6
t-5 4z" />
    <glyph glyph-name="FL00D3h" unicode="&#xd3;" 
d="M30 398q0 117 41 198t112 131.5t166 73t202 22.5q89 0 169 -22t140.5 -67t96 -115t35.5 -166q0 -117 -37 -203t-104 -141.5t-161 -82.5t-208 -27q-98 0 -180.5 23t-143 71.5t-94.5 124t-34 180.5zM300 432q0 -54 7 -115.5t29.5 -114.5t65.5 -88t115 -35q70 0 112.5 33.5
t65 85t29.5 113t7 117.5q0 57 -9.5 113.5t-34 101t-67.5 72.5t-109 28q-47 0 -82.5 -13t-61 -37.5t-41.5 -60t-25 -80.5v-24q0 -17 -0.5 -36t-0.5 -36v-24zM661 502q8 0 9.5 -7.5t1.5 -12.5q0 -14 -5.5 -29.5t-13.5 -31.5t-16.5 -31t-15.5 -28q-23 -2 -57 -4t-71.5 -3.5
t-74.5 -2.5t-67 -1v21q0 1 5.5 14t13.5 30.5t16.5 36t14.5 29.5q1 2 4.5 6t5.5 4zM660 1056q8 0 9.5 -7.5t1.5 -12.5q0 -14 -18 -37.5t-41 -48.5t-44 -48t-27 -36q-23 -2 -41.5 -2.5t-37.5 -0.5t-40.5 0.5t-51.5 0.5v21l7 10t18.5 25.5t26 34t28.5 36t27 32.5t22 22q2 2 5 6
t5 4z" />
    <glyph glyph-name="FL00D4h" unicode="&#xd4;" 
d="M30 398q0 117 41 198t112 131.5t166 73t202 22.5q89 0 169 -22t140.5 -67t96 -115t35.5 -166q0 -117 -37 -203t-104 -141.5t-161 -82.5t-208 -27q-98 0 -180.5 23t-143 71.5t-94.5 124t-34 180.5zM300 432q0 -54 7 -115.5t29.5 -114.5t65.5 -88t115 -35q70 0 112.5 33.5
t65 85t29.5 113t7 117.5q0 57 -9.5 113.5t-34 101t-67.5 72.5t-109 28q-47 0 -82.5 -13t-61 -37.5t-41.5 -60t-25 -80.5v-24q0 -17 -0.5 -36t-0.5 -36v-24zM435 1062l151 -1q1 0 3 -2q8 -2 9 -11q14 -12 35.5 -38t42 -52t35 -46t14.5 -21v-21q-30 0 -51.5 -0.5t-40.5 -0.5
q-9 0 -14.5 -0.5t-10.5 -0.5h-12h-8q-4 0 -10 1q-2 4 -10.5 15.5t-18.5 25t-20.5 26.5t-17.5 21q-8 -8 -18.5 -21.5t-20.5 -27.5t-18 -26t-10 -16q-6 -1 -11 -1h-7h-11q-5 0 -10.5 0.5t-14.5 0.5q-19 0 -40.5 0.5t-51.5 0.5v21q0 1 14.5 20.5t34.5 46t41.5 52t35.5 38.5
q0 5 1.5 11t9.5 6zM661 502q8 0 9.5 -7.5t1.5 -12.5q0 -14 -5.5 -29.5t-13.5 -31.5t-16.5 -31t-15.5 -28q-23 -2 -57 -4t-71.5 -3.5t-74.5 -2.5t-67 -1v21q0 1 5.5 14t13.5 30.5t16.5 36t14.5 29.5q1 2 4.5 6t5.5 4z" />
    <glyph glyph-name="FL00D5h" unicode="&#xd5;" 
d="M30 398q0 117 41 198t112 131.5t166 73t202 22.5q89 0 169 -22t140.5 -67t96 -115t35.5 -166q0 -117 -37 -203t-104 -141.5t-161 -82.5t-208 -27q-98 0 -180.5 23t-143 71.5t-94.5 124t-34 180.5zM300 432q0 -54 7 -115.5t29.5 -114.5t65.5 -88t115 -35q70 0 112.5 33.5
t65 85t29.5 113t7 117.5q0 57 -9.5 113.5t-34 101t-67.5 72.5t-109 28q-94 0 -143.5 -50t-67.5 -141v-24v-72v-24zM661 502q8 0 9.5 -7.5t1.5 -12.5q0 -14 -5.5 -29.5t-13.5 -31.5t-16.5 -31t-15.5 -28q-23 -2 -57 -4t-71.5 -3.5t-74.5 -2.5t-67 -1v21q0 1 5.5 14t13.5 30.5
t16.5 36t14.5 29.5q1 2 4.5 6t5.5 4zM254 839q0 17 5 35t12.5 36t15 35.5t12.5 32.5q2 5 5.5 12.5t4.5 8.5h338q1 0 8.5 4t11.5 6l35 60h5q10 0 18 -4t8 -15q0 -24 -3 -39.5t-9 -29.5t-14 -29t-18 -37q-2 -4 -5.5 -9.5t-4.5 -6.5h-348q-2 -3 -8.5 -14.5t-14 -24.5
t-14.5 -23.5t-10 -11.5q-2 0 -14 3t-16 7v4z" />
    <glyph glyph-name="FL00D6h" unicode="&#xd6;" 
d="M661 502l-250 -10q-2 0 -5.5 -4t-4.5 -6q-6 -11 -14.5 -29.5t-16.5 -36t-13.5 -30.5t-5.5 -14v-21q30 0 67 1t74.5 2.5t71.5 3.5t57 4q7 13 15.5 28t16.5 31t13.5 31.5t5.5 29.5q0 5 -1.5 12.5t-9.5 7.5zM300 432v24q0 17 0.5 36t0.5 36v24q9 45 25 80.5t41.5 60t61 37.5
t82.5 13q66 0 109 -28t67.5 -72.5t34 -101t9.5 -113.5q0 -56 -7 -117.5t-29.5 -113t-65 -85t-112.5 -33.5q-72 0 -115 35t-65.5 88t-29.5 114.5t-7 115.5zM30 398q0 -105 34 -180.5t94.5 -124t143 -71.5t180.5 -23q114 0 208 27t161 82.5t104 141.5t37 203q0 96 -35.5 166
t-96 115t-140.5 67t-169 22q-107 0 -202 -22.5t-166 -73t-112 -131.5t-41 -198zM485 1022l-151 -1q-2 0 -5.5 -4t-4.5 -6q-5 -8 -8 -22t-5 -29.5t-2.5 -31t-0.5 -26.5v-16v-21q30 0 51.5 -0.5t40.5 -0.5t37.5 0.5t41.5 2.5q11 20 14 48.5t3 54.5v32q0 5 -1.5 12.5t-9.5 7.5z
M727 1023l-151 -1q-2 0 -5.5 -4t-4.5 -6q-5 -8 -8 -22t-5 -29.5t-2.5 -31t-0.5 -26.5v-16v-21q30 0 51.5 -0.5t40.5 -0.5t37.5 0.5t41.5 2.5q11 20 14 48.5t3 54.5v32q0 5 -1.5 12.5t-9.5 7.5z" />
    <glyph glyph-name="FL00D7h" unicode="&#xd7;" horiz-adv-x="543" 
d="M30 147v-22q25 5 55 14.5t49 28.5l124 130l1 0.5t2 0.5l3 -1q1 0 4.5 -4.5t5.5 -6.5l73 -86q8 -10 16.5 -18.5t19.5 -14.5q26 -13 59.5 -20t62.5 -7h2q2 2 3 5.5t3 5.5v3v2l-47 49l-120 177l115 126v92q0 2 -4 5.5t-7 5.5l-2 1q-1 0 -2 -0.5l-1 -0.5l-146 -158l-93 136
l-5.5 0.5t-8.5 0.5h-5q-3 0 -7 -0.5t-7 -0.5h-3q-6 0 -22 -1.5t-34.5 -3.5t-35 -3.5t-22.5 -1.5v-17q8 -5 19 -11t17 -16q6 -9 22.5 -31t34.5 -47t34.5 -47.5t22.5 -31.5l11 -16z" />
    <glyph glyph-name="FL00D8h" unicode="&#xd8;" 
d="M713 909q4 8 11 5.5t12 -4.5q24 -12 50 -22.5t43 -34.5q-3 -7 -14.5 -27t-28.5 -49q46 -21 84 -51t65 -70t42 -90.5t15 -112.5q0 -117 -37 -203t-104 -141.5t-161 -82.5t-208 -27q-88 0 -163 18q-23 -38 -39 -65t-21 -37l-19 9q-1 0 -12 7t-25.5 17.5t-29 22.5t-21.5 22
q-2 2 -4 7t0 7l40 65q-75 48 -116.5 128t-41.5 198q0 117 41 198t112 131.5t166 73t202 22.5q26 0 52 -2t51 -6zM695 627q-35 -57 -75 -121t-80.5 -129.5t-79.5 -129.5t-73 -120q23 -23 55 -35.5t75 -12.5q70 0 112.5 33.5t65 85t29.5 113t7 117.5q0 52 -8 103t-28 96z
M300 432q0 -37 3 -78t11 -81l284 453q-39 17 -87 17q-47 0 -82.5 -13t-61 -37.5t-41.5 -60t-25 -80.5v-24q0 -17 -0.5 -36t-0.5 -36v-24z" />
    <glyph glyph-name="FL00D9h" unicode="&#xd9;" horiz-adv-x="1096" 
d="M966 643q0 17 -4.5 46t-14.5 57t-25.5 48.5t-36.5 20.5q-11 0 -40 -3.5t-60.5 -10.5t-55.5 -17.5t-24 -23.5q0 -97 5.5 -190.5t5.5 -190.5v-45q0 -32 -0.5 -67.5t-0.5 -67.5v-45q7 -18 1.5 -28t-16.5 -14.5t-24 -5.5t-21 -2t-34 -3t-56 -3.5t-58.5 -2.5t-41.5 -1h-22
q-12 0 -26.5 0.5t-27.5 0.5t-24 0.5t-15 0.5v708l-15 10l-230 -40q-2 0 -5.5 -4t-4.5 -6v-4v-6q6 -35 13 -64.5t7 -65.5v-470q0 -28 -6.5 -45.5t-15.5 -29t-20.5 -19t-20.5 -15t-15.5 -17.5t-6.5 -27h775l150 -2q10 0 28.5 8t37 20t32 26t13.5 26q0 8 -17.5 13t-38 12
t-38 18.5t-17.5 31.5v450q9 9 10 18.5t1 20.5zM365 1015q-8 0 -9.5 -7.5t-1.5 -12.5q0 -14 18 -37.5t41 -48.5t44 -48t27 -36q23 -2 41.5 -2.5t37.5 -0.5t40.5 0.5t51.5 0.5v21l-7 10t-18.5 25.5t-26 34t-28.5 36t-27 32t-22 22.5q-2 2 -5 6t-5 4z" />
    <glyph glyph-name="FL00DAh" unicode="&#xda;" horiz-adv-x="1096" 
d="M966 643q0 -11 -1 -20.5t-10 -18.5v-450q0 -20 17.5 -31.5t38 -18.5t38 -12t17.5 -13q0 -12 -13.5 -26t-32 -26t-37 -20t-28.5 -8l-150 2h-775q0 17 6.5 27t15.5 17.5t20.5 15t20.5 19t15.5 29t6.5 45.5v470q0 36 -7 65.5t-13 64.5v6v4q1 2 4.5 6t5.5 4l230 40l15 -10
v-708q4 0 15 -0.5t24 -0.5t27.5 -0.5t26.5 -0.5h22q13 0 41.5 1t58.5 2.5t56 3.5t34 3t21 2t24 5.5t16.5 14.5t-1.5 28v45q0 32 0.5 67.5t0.5 67.5v45q0 97 -5.5 190.5t-5.5 190.5q0 13 24 23.5t55.5 17.5t60.5 10.5t40 3.5q21 0 36.5 -20.5t25.5 -48.5t14.5 -57t4.5 -46z
M704 1032q8 0 9.5 -7.5t1.5 -12.5q0 -14 -18 -37.5t-41 -48.5t-44 -48t-27 -36q-23 -2 -41.5 -2.5t-37.5 -0.5t-40.5 0.5t-51.5 0.5v21q0 1 15 22t36 47.5t43 52.5t35 38q2 2 5 6t5 4z" />
    <glyph glyph-name="FL00DBh" unicode="&#xdb;" horiz-adv-x="1096" 
d="M966 643q0 -11 -1 -20.5t-10 -18.5v-450q0 -20 17.5 -31.5t38 -18.5t38 -12t17.5 -13q0 -12 -13.5 -26t-32 -26t-37 -20t-28.5 -8l-150 2h-775q0 17 6.5 27t15.5 17.5t20.5 15t20.5 19t15.5 29t6.5 45.5v470q0 36 -7 65.5t-13 64.5v6v4q1 2 4.5 6t5.5 4l230 40l15 -10
v-708q4 0 15 -0.5t24 -0.5t27.5 -0.5t26.5 -0.5h22q13 0 41.5 1t58.5 2.5t56 3.5t34 3t21 2t24 5.5t16.5 14.5t-1.5 28v45q0 32 0.5 67.5t0.5 67.5v45q0 97 -5.5 190.5t-5.5 190.5q0 13 24 23.5t55.5 17.5t60.5 10.5t40 3.5q21 0 36.5 -20.5t25.5 -48.5t14.5 -57t4.5 -46z
M464 1051l151 -1q1 0 3 -2q8 -2 9 -11q14 -12 35.5 -38t42 -52t35 -46t14.5 -21v-21q-30 0 -51.5 -0.5t-40.5 -0.5q-9 0 -14.5 -0.5t-10.5 -0.5h-12h-8q-4 0 -10 1q-2 4 -10.5 15.5t-18.5 25t-20.5 26.5t-17.5 21q-8 -8 -18.5 -21.5t-20.5 -27.5t-18 -26t-10 -16
q-6 -1 -11 -1h-7h-11q-5 0 -10.5 0.5t-14.5 0.5q-19 0 -40.5 0.5t-51.5 0.5v21q0 1 14.5 20.5t34.5 46t41.5 52t35.5 38.5q0 5 1.5 11t9.5 6z" />
    <glyph glyph-name="FL00DCh" unicode="&#xdc;" horiz-adv-x="1096" 
d="M966 643q0 17 -4.5 46t-14.5 57t-25.5 48.5t-36.5 20.5q-11 0 -40 -3.5t-60.5 -10.5t-55.5 -17.5t-24 -23.5q0 -97 5.5 -190.5t5.5 -190.5v-45q0 -32 -0.5 -67.5t-0.5 -67.5v-45q7 -18 1.5 -28t-16.5 -14.5t-24 -5.5t-21 -2t-34 -3t-56 -3.5t-58.5 -2.5t-41.5 -1h-22
q-12 0 -26.5 0.5t-27.5 0.5t-24 0.5t-15 0.5v708l-15 10l-230 -40q-2 0 -5.5 -4t-4.5 -6v-4v-6q6 -35 13 -64.5t7 -65.5v-470q0 -28 -6.5 -45.5t-15.5 -29t-20.5 -19t-20.5 -15t-15.5 -17.5t-6.5 -27h775l150 -2q10 0 28.5 8t37 20t32 26t13.5 26q0 8 -17.5 13t-38 12
t-38 18.5t-17.5 31.5v450q9 9 10 18.5t1 20.5zM508 1016l-151 -1q-2 0 -5.5 -4t-4.5 -6q-5 -8 -8 -22t-5 -29.5t-2.5 -31t-0.5 -26.5v-16v-21q30 0 51.5 -0.5t40.5 -0.5t37.5 0.5t41.5 2.5q11 20 14 48.5t3 54.5v32q0 5 -1.5 12.5t-9.5 7.5zM750 1017l-151 -1q-2 0 -5.5 -4
t-4.5 -6q-5 -8 -8 -22t-5 -29.5t-2.5 -31t-0.5 -26.5v-16v-21q30 0 51.5 -0.5t40.5 -0.5t37.5 0.5t41.5 2.5q11 20 14 48.5t3 54.5v32q0 5 -1.5 12.5t-9.5 7.5z" />
    <glyph glyph-name="FL00DDh" unicode="&#xdd;" horiz-adv-x="981" 
d="M41 670q-2 1 -5.5 4.5t-4.5 5.5l-0.5 2t-0.5 3q0 28 25 52.5t59.5 43t71 29.5t60.5 11q75 0 121.5 -24t74.5 -64.5t42 -94.5t24 -114l10 -50h20q1 0 7 20t14 47t16.5 55t15.5 44q16 36 36.5 68.5t47.5 57.5t60.5 40t75.5 15q14 0 31 -0.5t33 -4t28.5 -12t17.5 -24.5
q1 -5 5 -20t9 -32.5t9.5 -34t6.5 -23.5v-5q0 -9 -6 -12.5t-13 -3.5q-21 0 -40.5 6t-40.5 6q-40 0 -73.5 -17t-59.5 -45t-46 -64t-33 -75t-20 -78t-8 -72q0 -16 -0.5 -55.5t-0.5 -84.5v-47q0 -24 0.5 -46t0.5 -39v-25q-21 -5 -46.5 -10.5t-52.5 -10t-54.5 -7.5t-52.5 -3
q-1 0 -6.5 -0.5t-11.5 0.5t-11 3t-5 8v317q0 2 -1.5 17t-4 33t-4.5 34t-3 20q-18 62 -42.5 112t-61.5 84t-89 50t-124 10zM697 1035q8 0 9.5 -7.5t1.5 -12.5q0 -14 -18 -37.5t-41 -48.5t-44 -48t-27 -36q-23 -2 -41.5 -2.5t-37.5 -0.5t-40.5 0.5t-51.5 0.5v21l7 10
t18.5 25.5t26 34t28.5 36t27 32t22 22.5q2 2 5 6t5 4z" />
    <glyph glyph-name="FL00DEh" unicode="&#xde;" horiz-adv-x="756" 
d="M171 967h14q10 0 21 0.5t21 0.5h14l-2 -281h77q27 0 56.5 -0.5t55.5 -0.5h37q35 -4 75.5 -11.5t77.5 -23t66 -41t41 -64.5v-12q0 -8 0.5 -18t0.5 -19v-11q0 -72 -33 -121.5t-85 -80.5t-116 -45t-127 -14h-10q-7 0 -15 0.5t-15 0.5h-10q-14 8 -22.5 17t-8.5 23
q0 2 0.5 5.5t0.5 4.5q39 13 74 28t61 36.5t41 52.5t15 76q0 48 -21.5 76.5t-54.5 43.5t-73 19.5t-77 4.5l1 -533q0 -10 -3.5 -31t-9 -46.5t-12.5 -54t-14 -54t-14 -45.5t-12 -29q-6 -17 -18 -28.5t-27.5 -18.5t-33 -10.5t-33.5 -3.5q-2 0 -5 0.5l-3 0.5l-10 40q-1 4 -3 26.5
t-4.5 55t-5 72t-4.5 78t-3.5 73t-1.5 57.5q0 75 -1.5 162.5t-2 187t0.5 210t7 230.5z" />
    <glyph glyph-name="FL0899h" unicode="&#xdf;" horiz-adv-x="723" 
d="M483 157q0 -37 -11 -68t-30 -57t-44.5 -48.5t-54.5 -42.5q-5 -4 -6 -4.5t-8 -0.5q-11 0 -21 7t-10 18q0 25 10 44.5t22 39.5q5 2 9 6t4 9v1l-7 -3.5t-8 -1.5q-17 0 -31 17.5t-24 41t-16 47.5t-6 37q0 10 2 18t4 18l13 30q3 5 9 8t12 5.5t10.5 6t4.5 9.5v3q0 -3 -2 5
q-1 3 -3 11.5t-4 17.5t-4 17.5t-3 12.5l-24 49q-2 3 -3 8t-2.5 10.5t-3 10.5t-3.5 7q-28 11 -52.5 23.5t-49.5 28.5q-9 7 -15 16.5t-13 18.5q0 2 -2 3.5l-2 1.5q-14 24 -21 47.5t-12 49.5q-5 9 -7.5 11t-10.5 5q-2 2 -7 6t-7 5q-2 0 -5.5 1t-5.5 1q-4 1 -9 12t-5 14t1 10
t3 14t4.5 13t6.5 7q2 1 5.5 2.5t4.5 1.5q4 2 4 10q2 2 6.5 2.5t4.5 1.5t-1 1q0 2 -1.5 5t-1.5 4q-1 1 -5 5.5t-8 10t-7.5 10t-4.5 6.5q-2 3 -4.5 9.5t-2.5 11.5q0 6 7 6q6 0 13 -7.5t14 -17t14 -18.5t13 -12l12 -8l3 -3q7 -11 9.5 -17t12.5 -13q5 -4 9 -4t6 -5q4 -6 5 -8
t1 -7q0 -8 -6 -15.5t-6 -15.5v-1q1 0 1 -2q8 -23 24 -41t29 -40q2 -2 3.5 -6.5t5.5 -7.5q3 -2 6 -2q4 0 9 -1q4 -4 12 -9t10 -6q10 -8 15 -11.5t19 -3.5q0 5 -1.5 7t-1.5 7q0 17 9 32q1 0 2 2.5l1 2.5q0 4 -3.5 5.5t-3.5 7.5v13q0 1 1 1.5t1 1.5h1h1q1 -2 1 -5q2 0 2 1v2h2
q3 -2 4.5 -4.5t3.5 -4.5q3 0 3.5 1.5t1.5 3.5q3 7 3 13q0 3 0.5 7t1.5 10q2 12 8 25t17 21q2 2 4.5 2.5t4.5 3.5q0 1 2 2.5t3 2.5q6 5 17 7.5t19 2.5q22 0 39.5 -10.5t33.5 -24t32 -25.5t36 -15q14 -3 23 -11l18 -16q1 0 1 -2v-1q2 2 6.5 2.5t4.5 2.5l-2 1t-2 3h4l10 -9
q0 6 -7 15h2q6 0 9 -9t4 -11l14 -12q1 -4 3 -4h2q4 4 7 8t3 10q0 5 -4 6.5t-9 1.5v3q7 0 13 -3t12 -3v1l-3 1.5t-3 3.5h3q5 0 5 -2t4 -4q9 -8 12.5 -11.5t3.5 -17.5q16 0 22 -2.5t14 -18.5q1 -2 2 -6t1 -6q0 -5 -8 -8.5t-10 -3.5h-2l-2 5q0 2 3 4.5t5 2.5q0 2 -3 4t-5 2
q-5 0 -7.5 -3.5t-4.5 -6.5q-2 -4 -8 -12.5t-6 -10.5l0.5 -0.5t0.5 -1.5q10 -3 10 -12q0 -6 -1.5 -10.5t-3.5 -9.5q-2 -8 -3.5 -15t-12.5 -5q8 0 19 -5.5t15 -12.5v-1v-6v-1l0.5 -1t1.5 -2q0 -2 1 -4.5t1 -4.5v-1q0 -1 -0.5 -7.5t-1.5 -8.5q-5 -6 -4 -12.5t-8 -12.5
q-7 -6 -15 -7t-14 -4q-8 -5 -12.5 -10t-12.5 -9q-3 -2 -11 -5t-17 -7t-17 -7.5t-11 -5.5q-4 1 -13 -1t-19 -5t-19 -6.5t-13 -5.5q-6 -17 -22 -30q-2 -2 -5 -4.5t-3 -5.5q5 -7 6 -10t6 -13v-2t1 -3q8 -22 11.5 -43t3.5 -43zM346 65q-3 0 -3 -1q0 -3 3 -3l0.5 0.5t0.5 2.5
q0 1 -1 1zM347 67q-1 0 -1 -1v0q0 -1 1 -1v1v1zM348 71q-1 0 -1 -2q0 -1 1 -1t1 1q0 2 -1 2zM593 409q0 4 -1.5 7.5t-1.5 7.5h-7q-2 -2 -3 -5t-6 -4t-9 -1.5t-8 -0.5h-17h-2h-5h-2q-3 2 -5 3.5t-6 2.5q1 -2 3 -4l2 -2v-4q-6 0 -12 1.5t-11 8.5v-4l15 -26h2q3 0 15 2t25 5
t23.5 6.5t10.5 6.5zM519 423q-1 0 -1 -2t1 -2t1 2t-1 2zM648 514q-1 0 -1.5 -0.5l-0.5 -0.5q0 -1 2 -1t2 1l-0.5 0.5t-1.5 0.5z" />
    <glyph glyph-name="FL00E0h" unicode="&#xe0;" horiz-adv-x="1041" 
d="M30 30q20 -26 50.5 -33.5t60.5 -7.5q3 0 10 -0.5t15 0.5t15 3.5t9 7.5l257 546l233 -526l20 -20q1 0 11 -0.5t24 -0.5t28.5 -0.5t23.5 -0.5q48 0 105.5 0.5t107.5 11.5q8 3 9.5 9t1.5 12q0 2 -0.5 5.5l-0.5 3.5q-1 1 -7 4t-13 6t-13 5.5t-7 4.5q-12 9 -23.5 21t-22 25.5
t-19.5 27.5t-15 26q-6 11 -17 33t-24.5 48t-27.5 54.5t-26.5 53.5t-21.5 44t-13 27q-7 15 -20.5 46t-30.5 70.5t-35.5 83t-35 83t-29.5 71t-19 46.5q-3 8 -8 9.5t-12 1.5q-14 0 -34.5 -7.5t-41 -18t-38 -20.5t-26.5 -15q-10 -14 -16.5 -31.5t-11.5 -36.5t-10 -37.5
t-12 -34.5q-76 -158 -160.5 -308t-189.5 -292zM360 1056q-8 0 -9.5 -7.5t-1.5 -12.5q0 -14 18 -37.5t41 -48.5t44 -48t27 -36q23 -2 41.5 -2.5t37.5 -0.5t40.5 0.5t51.5 0.5v21l-7 10t-18.5 25.5t-26 34t-28.5 36t-27 32.5t-22 22q-2 2 -5 6t-5 4z" />
    <glyph glyph-name="FL00E1h" unicode="&#xe1;" horiz-adv-x="1041" 
d="M30 30q105 142 189.5 292t160.5 308q7 16 12 34.5t10 37.5t11.5 36.5t16.5 31.5q9 5 26.5 15t38 20.5t41 18t34.5 7.5q7 0 12 -1.5t8 -9.5q6 -15 19 -46.5t29.5 -71t35 -83t35.5 -83t30.5 -70.5t20.5 -46q4 -8 13 -27t21.5 -44t26.5 -53.5t27.5 -54.5t24.5 -48t17 -33
q6 -12 15 -26t19.5 -27.5t22 -25.5t23.5 -21q1 -2 7 -4.5t13 -5.5t13 -6t7 -4l0.5 -3.5t0.5 -5.5q0 -6 -1.5 -12t-9.5 -9q-50 -11 -107.5 -11.5t-105.5 -0.5q-9 0 -23.5 0.5t-28.5 0.5t-24 0.5t-11 0.5l-20 20l-233 526l-257 -546q-2 -5 -9 -7.5t-15 -3.5t-15 -0.5t-10 0.5
q-30 0 -60.5 7.5t-50.5 33.5zM658 1056q8 0 9.5 -7.5t1.5 -12.5q0 -14 -18 -37.5t-41 -48.5t-44 -48t-27 -36q-23 -2 -41.5 -2.5t-37.5 -0.5t-40.5 0.5t-51.5 0.5v21l7 10t18.5 25.5t26 34t28.5 36t27 32.5t22 22q2 2 5 6t5 4z" />
    <glyph glyph-name="FL00E2h" unicode="&#xe2;" horiz-adv-x="1041" 
d="M30 30q105 142 189.5 292t160.5 308q7 16 12 34.5t10 37.5t11.5 36.5t16.5 31.5q9 5 26.5 15t38 20.5t41 18t34.5 7.5q7 0 12 -1.5t8 -9.5q6 -15 19 -46.5t29.5 -71t35 -83t35.5 -83t30.5 -70.5t20.5 -46q4 -8 13 -27t21.5 -44t26.5 -53.5t27.5 -54.5t24.5 -48t17 -33
q6 -12 15 -26t19.5 -27.5t22 -25.5t23.5 -21q1 -2 7 -4.5t13 -5.5t13 -6t7 -4l0.5 -3.5t0.5 -5.5q0 -6 -1.5 -12t-9.5 -9q-50 -11 -107.5 -11.5t-105.5 -0.5q-9 0 -23.5 0.5t-28.5 0.5t-24 0.5t-11 0.5l-20 20l-233 526l-257 -546q-2 -5 -9 -7.5t-15 -3.5t-15 -0.5t-10 0.5
q-30 0 -60.5 7.5t-50.5 33.5zM433 1062l151 -1q1 0 3 -2q8 -2 9 -11q14 -12 35.5 -38t42 -52t35 -46t14.5 -21v-21q-30 0 -51.5 -0.5t-40.5 -0.5q-9 0 -14.5 -0.5t-10.5 -0.5h-12h-8q-4 0 -10 1q-2 4 -10.5 15.5t-18.5 25t-20.5 26.5t-17.5 21q-8 -8 -18.5 -21.5
t-20.5 -27.5t-18 -26t-10 -16q-6 -1 -11 -1h-7h-11q-5 0 -10.5 0.5t-14.5 0.5q-19 0 -40.5 0.5t-51.5 0.5v21q0 1 14.5 20.5t34.5 46t41.5 52t35.5 38.5q0 5 1.5 11t9.5 6z" />
    <glyph glyph-name="FL00E3h" unicode="&#xe3;" horiz-adv-x="1041" 
d="M30 30q105 142 189.5 292t160.5 308q7 16 12 34.5t10 37.5t11.5 36.5t16.5 31.5q9 5 26.5 15t38 20.5t41 18t34.5 7.5q7 0 12 -1.5t8 -9.5q6 -15 19 -46.5t29.5 -71t35 -83t35.5 -83t30.5 -70.5t20.5 -46q4 -8 13 -27t21.5 -44t26.5 -53.5t27.5 -54.5t24.5 -48t17 -33
q6 -12 15 -26t19.5 -27.5t22 -25.5t23.5 -21q1 -2 7 -4.5t13 -5.5t13 -6t7 -4l0.5 -3.5t0.5 -5.5q0 -6 -1.5 -12t-9.5 -9q-50 -11 -107.5 -11.5t-105.5 -0.5q-9 0 -23.5 0.5t-28.5 0.5t-24 0.5t-11 0.5l-20 20l-233 526l-257 -546q-2 -5 -9 -7.5t-15 -3.5t-15 -0.5t-10 0.5
q-30 0 -60.5 7.5t-50.5 33.5zM269 833q0 17 5 35t12.5 36t15 35.5t12.5 32.5q2 5 5.5 12.5t4.5 8.5h338q1 0 8.5 4t11.5 6l35 60h5q10 0 18 -4t8 -15q0 -24 -3 -39.5t-9 -29.5t-14 -29t-18 -37q-2 -4 -5.5 -9.5t-4.5 -6.5h-348q-2 -3 -8.5 -14.5t-14 -24.5t-14.5 -23.5
t-10 -11.5q-2 0 -14 3t-16 7v4z" />
    <glyph glyph-name="FL00E4h" unicode="&#xe4;" horiz-adv-x="1041" 
d="M30 30q20 -26 50.5 -33.5t60.5 -7.5q3 0 10 -0.5t15 0.5t15 3.5t9 7.5l257 546l233 -526l20 -20q1 0 11 -0.5t24 -0.5t28.5 -0.5t23.5 -0.5q48 0 105.5 0.5t107.5 11.5q8 3 9.5 9t1.5 12q0 2 -0.5 5.5l-0.5 3.5q-1 1 -7 4t-13 6t-13 5.5t-7 4.5q-12 9 -23.5 21t-22 25.5
t-19.5 27.5t-15 26q-6 11 -17 33t-24.5 48t-27.5 54.5t-26.5 53.5t-21.5 44t-13 27q-7 15 -20.5 46t-30.5 70.5t-35.5 83t-35 83t-29.5 71t-19 46.5q-3 8 -8 9.5t-12 1.5q-14 0 -34.5 -7.5t-41 -18t-38 -20.5t-26.5 -15q-10 -14 -16.5 -31.5t-11.5 -36.5t-10 -37.5
t-12 -34.5q-76 -158 -160.5 -308t-189.5 -292zM491 1019l-151 -1q-2 0 -5.5 -4t-4.5 -6q-5 -8 -8 -22t-5 -29.5t-2.5 -31t-0.5 -26.5v-16v-21q30 0 51.5 -0.5t40.5 -0.5t37.5 0.5t41.5 2.5q11 20 14 48.5t3 54.5v32q0 5 -1.5 12.5t-9.5 7.5zM733 1020l-151 -1q-2 0 -5.5 -4
t-4.5 -6q-5 -8 -8 -22t-5 -29.5t-2.5 -31t-0.5 -26.5v-16v-21q30 0 51.5 -0.5t40.5 -0.5t37.5 0.5t41.5 2.5q11 20 14 48.5t3 54.5v32q0 5 -1.5 12.5t-9.5 7.5z" />
    <glyph glyph-name="FL00E5h" unicode="&#xe5;" horiz-adv-x="1041" 
d="M30 30q20 -26 50.5 -33.5t60.5 -7.5q3 0 10 -0.5t15 0.5t15 3.5t9 7.5l257 546l233 -526l20 -20q1 0 11 -0.5t24 -0.5t28.5 -0.5t23.5 -0.5q48 0 105.5 0.5t107.5 11.5q8 3 9.5 9t1.5 12q0 2 -0.5 5.5l-0.5 3.5q-1 1 -7 4t-13 6t-13 5.5t-7 4.5q-12 9 -23.5 21t-22 25.5
t-19.5 27.5t-15 26q-6 11 -17 33t-24.5 48t-27.5 54.5t-26.5 53.5t-21.5 44t-13 27q-7 15 -20.5 46t-30.5 70.5t-35.5 83t-35 83t-29.5 71t-19 46.5q-3 8 -8 9.5t-12 1.5q-14 0 -34.5 -7.5t-41 -18t-38 -20.5t-26.5 -15q-10 -14 -16.5 -31.5t-11.5 -36.5t-10 -37.5
t-12 -34.5q-76 -158 -160.5 -308t-189.5 -292zM596 1028l-151 -1q-2 0 -5.5 -4t-4.5 -6q-5 -8 -8 -22t-5 -29.5t-2.5 -31t-0.5 -26.5v-16v-21q30 0 51.5 -0.5t40.5 -0.5t37.5 0.5t41.5 2.5q11 20 14 48.5t3 54.5v32q0 5 -1.5 12.5t-9.5 7.5z" />
    <glyph glyph-name="FL00E6h" unicode="&#xe6;" horiz-adv-x="1483" 
d="M1372 200q3 1 11.5 2.5t18.5 3t18.5 3t11.5 1.5h6q8 0 11.5 -6t3.5 -14q0 -3 -4.5 -18t-11.5 -36.5t-15.5 -45t-17.5 -44t-17.5 -33.5t-14.5 -13h-447q-17 -1 -35 -1.5t-36 -0.5h-67q-9 0 -23.5 0.5t-28.5 0.5t-24 0.5t-11 0.5l-20 20l-233 526l-257 -546q-2 -5 -9 -7.5
t-15 -3.5t-15 -0.5t-10 0.5q-30 0 -60.5 7.5t-50.5 33.5q105 142 189.5 292t160.5 308q7 16 12 34.5t10 37.5t11.5 36.5t16.5 31.5q9 5 26.5 15t38 20.5t41 18t34.5 7.5q7 0 12 -1.5t8 -9.5q6 -15 19 -46.5t29.5 -71t35 -83t35.5 -83t30.5 -70.5t20.5 -46q5 -11 20 -42
t34 -69q3 19 9.5 43.5t13.5 48.5t14 45t11 34q2 5 5.5 12.5t4.5 7.5h400q1 0 8.5 4t11.5 6l30 20h5q10 0 18 -4t8 -15q0 -48 -15.5 -97t-35.5 -94q-2 -4 -5.5 -9.5t-4.5 -5.5h-410q-2 -3 -7 -8.5t-11.5 -11t-12.5 -10t-9 -5.5q-1 -1 -9 1l19 -38t17 -33h503zM752 605v5
l7.5 22.5l12 36t12 36.5t8.5 25l2.5 8t6.5 18.5t9.5 20.5t11.5 13q21 0 65.5 1t101 2t118.5 2t118 2t101 1.5t66 1.5h42q0 -24 -5 -51t-13.5 -54t-19.5 -51.5t-24 -43.5q-21 0 -65.5 -0.5t-101 -2t-118.5 -2.5t-118.5 -2.5t-101 -2t-65.5 -0.5h-24q-8 0 -17 1t-9 14z" />
    <glyph glyph-name="FL00E7h" unicode="&#xe7;" horiz-adv-x="890" 
d="M591 752l-85 -1q-46 0 -79.5 -15t-56.5 -40t-36.5 -59t-21 -71.5t-10 -77t-2.5 -76.5q0 -45 2 -89.5t11 -84t27.5 -71.5t51.5 -53l15 -6q-8 2 -11 3l15 -4q56 -12 160 -4t256 14l-1 -117h-216q-9 -22 -21 -46.5t-24 -47t-21.5 -41t-13.5 -27.5q-23 -2 -41.5 -2.5
t-37.5 -0.5t-40.5 0.5t-51.5 0.5l-56 63l18 9.5t43 24t51.5 32t43.5 35.5q-78 7 -154.5 33t-137.5 71.5t-99 111.5t-38 153q0 118 37 204.5t104 143.5q34 29 70 48.5t75 32t81 20t88 11.5h341q16 -17 25 -31t9 -31q0 -16 -10 -38.5t-32 -56.5l-89 -8z" />
    <glyph glyph-name="FL00E8h" unicode="&#xe8;" horiz-adv-x="791" 
d="M680 200h-590q-1 0 -4.5 -7.5t-5.5 -12.5q-6 -16 -14.5 -41t-16.5 -49t-13.5 -41.5t-5.5 -18.5v-30h650q6 0 14.5 13t17.5 33.5t17.5 44t15.5 45t11.5 36.5t4.5 18q0 8 -3.5 14t-11.5 6h-6q-3 0 -11.5 -1.5t-18.5 -3t-18.5 -3t-11.5 -2.5zM120 284v-4q4 -4 16 -7t14 -3
q3 1 9 5.5t12.5 10t11.5 11t7 8.5h410q1 0 4.5 5.5t5.5 9.5q20 45 35.5 94t15.5 97q0 11 -8 15t-18 4h-5l-30 -20q-4 -2 -11.5 -6t-8.5 -4h-400q-1 0 -4.5 -7.5t-5.5 -12.5q-5 -15 -13.5 -41t-16.5 -55t-14 -56t-6 -44zM60 605q0 -13 9 -14t17 -1h24q21 0 65.5 0.5t101 2
t118.5 2.5t118.5 2.5t101 2t65.5 0.5q13 19 24 43.5t19.5 51.5t13.5 54t5 51h-42q-21 -1 -65.5 -1.5t-101 -1.5t-118.5 -2t-118.5 -2t-101 -2t-65.5 -1q-6 -3 -11.5 -13t-9.5 -20.5t-6.5 -18.5l-2.5 -8q-3 -8 -8.5 -25t-12 -36.5l-12 -36l-7.5 -22.5v-5zM248 1050
q-8 0 -9.5 -7.5t-1.5 -12.5q0 -14 18 -37.5t41 -48.5t44 -48t27 -36q23 -2 41.5 -2.5t37.5 -0.5t40.5 0.5t51.5 0.5v21l-7 10t-18.5 25.5t-26 34t-28.5 36t-27 32t-22 22.5q-2 2 -5 6t-5 4z" />
    <glyph glyph-name="FL00E9h" unicode="&#xe9;" horiz-adv-x="791" 
d="M60 605v5l7.5 22.5l12 36t12 36.5t8.5 25l2.5 8t6.5 18.5t9.5 20.5t11.5 13q21 0 65.5 1t101 2t118.5 2t118 2t100.5 1.5t66.5 1.5h42q0 -24 -5 -51t-13.5 -54t-19.5 -51.5t-24 -43.5q-21 0 -65.5 -0.5t-101 -2t-118.5 -2.5t-118.5 -2.5t-101 -2t-65.5 -0.5h-24
q-8 0 -17 1t-9 14zM120 280v4q0 17 6 44t14 56t16.5 55t13.5 41q2 5 5.5 12.5t4.5 7.5h400q1 0 8.5 4t11.5 6l30 20h5q10 0 18 -4t8 -15q0 -48 -15.5 -97t-35.5 -94q-2 -4 -5.5 -9.5t-4.5 -5.5h-410q-2 -3 -7 -8.5t-11.5 -11t-12.5 -10t-9 -5.5q-2 0 -14 3t-16 7zM90 200
h590q3 1 11.5 2.5t18.5 3t18.5 3t11.5 1.5h6q8 0 11.5 -6t3.5 -14q0 -3 -4.5 -18t-11.5 -36.5t-15.5 -45t-17.5 -44t-17.5 -33.5t-14.5 -13h-650v30q0 1 5.5 18.5t13.5 41.5t16.5 49t14.5 41q2 5 5.5 12.5t4.5 7.5zM573 1055q8 0 9.5 -7.5t1.5 -12.5q0 -14 -18 -37.5
t-41 -48.5t-44 -48t-27 -36q-23 -2 -41.5 -2.5t-37.5 -0.5t-40.5 0.5t-51.5 0.5v21q0 1 15 22t36 47.5t43 52.5t35 38q2 2 5 6t5 4z" />
    <glyph glyph-name="FL00EAh" unicode="&#xea;" horiz-adv-x="791" 
d="M60 605v5l7.5 22.5l12 36t12 36.5t8.5 25l2.5 8t6.5 18.5t9.5 20.5t11.5 13q21 0 65.5 1t101 2t118.5 2t118 2t100.5 1.5t66.5 1.5h42q0 -24 -5 -51t-13.5 -54t-19.5 -51.5t-24 -43.5q-21 0 -65.5 -0.5t-101 -2t-118.5 -2.5t-118.5 -2.5t-101 -2t-65.5 -0.5h-24
q-8 0 -17 1t-9 14zM120 280v4q0 17 6 44t14 56t16.5 55t13.5 41q2 5 5.5 12.5t4.5 7.5h400q1 0 8.5 4t11.5 6l30 20h5q10 0 18 -4t8 -15q0 -48 -15.5 -97t-35.5 -94q-2 -4 -5.5 -9.5t-4.5 -5.5h-410q-2 -3 -7 -8.5t-11.5 -11t-12.5 -10t-9 -5.5q-2 0 -14 3t-16 7zM90 200
h590q3 1 11.5 2.5t18.5 3t18.5 3t11.5 1.5h6q8 0 11.5 -6t3.5 -14q0 -3 -4.5 -18t-11.5 -36.5t-15.5 -45t-17.5 -44t-17.5 -33.5t-14.5 -13h-650v30q0 1 5.5 18.5t13.5 41.5t16.5 49t14.5 41q2 5 5.5 12.5t4.5 7.5zM345 1055l151 -1q1 0 3 -2q8 -2 9 -11q14 -12 35.5 -38
t42 -52t35 -46t14.5 -21v-21q-30 0 -51.5 -0.5t-40.5 -0.5q-9 0 -14.5 -0.5t-10.5 -0.5h-12h-8q-4 0 -10 1q-2 4 -10.5 15.5t-18.5 25t-20.5 26.5t-17.5 21q-8 -8 -18.5 -21.5t-20.5 -27.5t-18 -26t-10 -16q-6 -1 -11 -1h-7h-11q-5 0 -10.5 0.5t-14.5 0.5q-19 0 -40.5 0.5
t-51.5 0.5v21q0 1 14.5 20.5t34.5 46t41.5 52t35.5 38.5q0 5 1.5 11t9.5 6z" />
    <glyph glyph-name="FL00EBh" unicode="&#xeb;" horiz-adv-x="791" 
d="M680 200h-590q-1 0 -4.5 -7.5t-5.5 -12.5q-6 -16 -14.5 -41t-16.5 -49t-13.5 -41.5t-5.5 -18.5v-30h650q6 0 14.5 13t17.5 33.5t17.5 44t15.5 45t11.5 36.5t4.5 18q0 8 -3.5 14t-11.5 6h-6q-3 0 -11.5 -1.5t-18.5 -3t-18.5 -3t-11.5 -2.5zM120 284v-4q4 -4 16 -7t14 -3
q3 1 9 5.5t12.5 10t11.5 11t7 8.5h410q1 0 4.5 5.5t5.5 9.5q20 45 35.5 94t15.5 97q0 11 -8 15t-18 4h-5l-30 -20q-4 -2 -11.5 -6t-8.5 -4h-400q-1 0 -4.5 -7.5t-5.5 -12.5q-5 -15 -13.5 -41t-16.5 -55t-14 -56t-6 -44zM60 605q0 -13 9 -14t17 -1h24q21 0 65.5 0.5t101 2
t118.5 2.5t118.5 2.5t101 2t65.5 0.5q13 19 24 43.5t19.5 51.5t13.5 54t5 51h-42q-21 -1 -65.5 -1.5t-101 -1.5t-118.5 -2t-118.5 -2t-101 -2t-65.5 -1q-6 -3 -11.5 -13t-9.5 -20.5t-6.5 -18.5l-2.5 -8q-3 -8 -8.5 -25t-12 -36.5l-12 -36l-7.5 -22.5v-5zM389 1020l-151 -1
q-2 0 -5.5 -4t-4.5 -6q-5 -8 -8 -22t-5 -29.5t-2.5 -31t-0.5 -26.5v-16v-21q30 0 51.5 -0.5t40.5 -0.5t37.5 0.5t41.5 2.5q11 20 14 48.5t3 54.5v32q0 5 -1.5 12.5t-9.5 7.5zM631 1021l-151 -1q-2 0 -5.5 -4t-4.5 -6q-5 -8 -8 -22t-5 -29.5t-2.5 -31t-0.5 -26.5v-16v-21
q30 0 51.5 -0.5t40.5 -0.5t37.5 0.5t41.5 2.5q11 20 14 48.5t3 54.5v32q0 5 -1.5 12.5t-9.5 7.5z" />
    <glyph glyph-name="FL00ECh" unicode="&#xec;" horiz-adv-x="382" 
d="M32 760q32 -8 56 -25.5t24 -54.5v-684q7 0 28 2t47.5 6t55.5 8.5t53.5 9.5t40 9.5t15.5 8.5v771h-14q-10 0 -21 -0.5t-21 -0.5h-14q-14 0 -46.5 -1t-69 -2.5t-69 -3.5t-45.5 -3q-16 3 -19 -6.5t-3 -18.5q0 -2 0.5 -7.5t1.5 -7.5zM45 1056q-8 0 -9.5 -7.5t-1.5 -12.5
q0 -14 18 -37.5t41 -48.5t44 -48t27 -36q23 -2 41.5 -2.5t37.5 -0.5t40.5 0.5t51.5 0.5v21l-7 10t-18.5 25.5t-26 34t-28.5 36t-27 32.5t-22 22q-2 2 -5 6t-5 4z" />
    <glyph glyph-name="FL00EDh" unicode="&#xed;" horiz-adv-x="410" 
d="M32 760q-1 2 -1.5 7.5t-0.5 7.5q0 9 3 18.5t19 6.5q13 1 45.5 3t69 3.5t69 2.5t46.5 1h14q10 0 21 0.5t21 0.5h14v-771q0 -4 -15.5 -8.5t-40 -9.5t-53.5 -9.5t-55.5 -8.5t-47.5 -6t-28 -2v684q0 37 -24 54.5t-56 25.5zM369 1053q8 0 9.5 -7.5t1.5 -12.5q0 -14 -18 -37.5
t-41 -48.5t-44 -48t-27 -36q-23 -2 -41.5 -2.5t-37.5 -0.5t-40.5 0.5t-51.5 0.5v21q0 1 15 22t36 47.5t43 52.5t35 38q2 2 5 6t5 4z" />
    <glyph glyph-name="FL00EEh" unicode="&#xee;" horiz-adv-x="487" 
d="M55 760q-1 2 -1.5 7.5t-0.5 7.5q0 9 3 18.5t19 6.5q13 1 45.5 3t69 3.5t69 2.5t46.5 1h14q10 0 21 0.5t21 0.5h14v-771q0 -4 -15.5 -8.5t-40 -9.5t-53.5 -9.5t-55.5 -8.5t-47.5 -6t-28 -2v684q0 37 -24 54.5t-56 25.5zM167 1059l151 -1q1 0 3 -2q8 -2 9 -11
q14 -12 35.5 -38t42 -52t35 -46t14.5 -21v-21q-30 0 -51.5 -0.5t-40.5 -0.5q-9 0 -14.5 -0.5t-10.5 -0.5h-12h-8q-4 0 -10 1q-2 4 -10.5 15.5t-18.5 25t-20.5 26.5t-17.5 21q-8 -8 -18.5 -21.5t-20.5 -27.5t-18 -26t-10 -16q-6 -1 -11 -1h-7h-11q-5 0 -10.5 0.5t-14.5 0.5
q-19 0 -40.5 0.5t-51.5 0.5v21q0 1 14.5 20.5t34.5 46t41.5 52t35.5 38.5q0 5 1.5 11t9.5 6z" />
    <glyph glyph-name="FL00EFh" unicode="&#xef;" horiz-adv-x="490" 
d="M63 760q32 -8 56 -25.5t24 -54.5v-684q7 0 28 2t47.5 6t55.5 8.5t53.5 9.5t40 9.5t15.5 8.5v771h-14q-10 0 -21 -0.5t-21 -0.5h-14q-14 0 -46.5 -1t-69 -2.5t-69 -3.5t-45.5 -3q-16 3 -19 -6.5t-3 -18.5q0 -2 0.5 -7.5t1.5 -7.5zM207 1021l-151 -1q-2 0 -5.5 -4t-4.5 -6
q-5 -8 -8 -22t-5 -29.5t-2.5 -31t-0.5 -26.5v-16v-21q30 0 51.5 -0.5t40.5 -0.5t37.5 0.5t41.5 2.5q11 20 14 48.5t3 54.5v32q0 5 -1.5 12.5t-9.5 7.5zM449 1022l-151 -1q-2 0 -5.5 -4t-4.5 -6q-5 -8 -8 -22t-5 -29.5t-2.5 -31t-0.5 -26.5v-16v-21q30 0 51.5 -0.5t40.5 -0.5
t37.5 0.5t41.5 2.5q11 20 14 48.5t3 54.5v32q0 5 -1.5 12.5t-9.5 7.5z" />
    <glyph glyph-name="FL00F0h" unicode="&#xf0;" horiz-adv-x="824" 
d="M430 689l-19 7q-23 7 -46.5 4.5t-56 -9t-80 -14.5t-118.5 -12l-11 146h251q55 0 112.5 -11.5t111.5 -37.5l85 51q1 0 5.5 7t6.5 11l17 20l5 3q8 5 17 5.5t15 -8.5q12 -21 16 -32.5t4.5 -22t0 -24t2.5 -38.5v-18l-59 -35q40 -42 67.5 -96t37.5 -126q0 -117 -37 -204
t-98 -157q-62 -69 -187 -98q-37 -4 -57.5 -7t-33 -4.5t-21 -2t-21.5 -0.5q-14 0 -36.5 1t-62.5 2q-72 13 -112 29t-59.5 34.5t-25 39.5t-8.5 44q-6 45 -2 89.5t30 98.5q-2 0 -2 2q0 4 6.5 13.5t18 22.5t26 27.5t30.5 28.5q11 9 34 19.5t69.5 19.5t123.5 14.5t197 5.5
q0 36 -7 64t-20 50l-90 -53q0 -4 -3.5 -5.5t-8.5 -2.5l-10 -2t-7 -4l-4 -1.5t-9 -2.5l-10 -2t-8 0l-2 3q-9 15 -11 26t-2 21v22q0 14 -4 27q-1 5 -1.5 13.5t0.5 8.5l72 43q-3 1 -11 7zM190 254q-11 -38 -10 -56t7.5 -29t14.5 -22t13 -36l114 -7q52 -1 93.5 18t71 51t47 73.5
t22.5 85.5h-261q-27 -6 -43.5 -13t-27.5 -16t-20 -21z" />
    <glyph glyph-name="FL00F1h" unicode="&#xf1;" horiz-adv-x="974" 
d="M259 548h-10v-530l-13.5 -2.5t-33 -6t-40 -7t-33.5 -4.5h-11q-6 0 -11 1t-8 9q25 143 34.5 277.5t9.5 278.5q0 40 -3.5 69.5t-15 51.5t-33.5 38t-59 30q0 2 -0.5 7.5t-0.5 7.5q0 7 1 15t10 10q58 2 123 11.5t125 9.5q2 0 7 -0.5l5 -0.5l487 -475h7q0 54 -2 106t-5 103
t-5 103t-2 106q0 6 -0.5 15.5t10.5 11.5q35 10 74.5 16.5t77.5 6.5q0 -1 -0.5 -6t-1.5 -7q-24 -59 -31 -116t-9 -124q-1 -16 -1.5 -44.5t-1 -65.5t-0.5 -80v-88v-115v-98v-64l-10 -10q-2 0 -16 3t-34 8t-30 9q-3 1 -10.5 4.5t-9.5 5.5q-7 6 -22 19t-31 27t-29.5 26.5
t-17.5 17.5q-16 16 -50 50.5t-76.5 77.5t-89 91t-89 91.5t-76 78t-49.5 51.5zM292 851q0 17 5 35t12.5 36t15 35.5t12.5 32.5q2 5 5.5 12.5t4.5 8.5h338q1 0 8.5 4t11.5 6l35 60h5q10 0 18 -4t8 -15q0 -24 -3 -39.5t-9 -29.5t-14 -29t-18 -37q-2 -4 -5.5 -9.5t-4.5 -6.5
h-348q-2 -3 -8.5 -14.5t-14 -24.5t-14.5 -23.5t-10 -11.5q-2 0 -14 3t-16 7v4z" />
    <glyph glyph-name="FL00F2h" unicode="&#xf2;" horiz-adv-x="1081" 
d="M80 10q23 -6 52.5 -8.5t59.5 -3.5t58 -0.5t48 0.5q9 0 25.5 0.5t32.5 0.5q17 0 29.5 0.5t14.5 0.5l30 10q1 0 3.5 10.5t5.5 25t6 29.5l5 25q0 2 0.5 10t0.5 12q0 12 -19 31.5t-41.5 45t-41.5 56t-19 65.5v216q0 26 12 60.5t32.5 65.5t47.5 52.5t58 21.5h130
q31 0 55 -22.5t41 -54t28 -66t16 -57.5v-28q0 -15 0.5 -32.5t0.5 -33.5v-22q0 -45 -2 -86.5t-13 -77.5t-36 -65.5t-70 -50.5q-2 -6 -5 -21.5t-6 -33t-5.5 -33.5t-3.5 -22q-1 -4 -1.5 -15.5t-0.5 -14.5h282q25 0 53.5 11t52.5 29.5t39.5 43t15.5 51.5q0 2 -0.5 7.5t-0.5 7.5
q-32 -8 -59 -9.5t-56 -1.5h-40q-40 0 -73 0.5t-72 10.5q51 27 99.5 59.5t87 73.5t61.5 90.5t23 111.5q0 89 -42.5 152t-108.5 103t-145.5 58.5t-154.5 18.5q-55 0 -114 -8t-115.5 -26t-107.5 -45.5t-90 -67.5t-61.5 -92t-22.5 -118q0 -60 24.5 -107t63.5 -83.5t87 -65.5
t96 -54h-13q-9 0 -19.5 -0.5t-19.5 -0.5h-13q-56 0 -111 10.5t-110 10.5h-4q-2 -1 -5.5 -4.5t-4.5 -5.5v-5v-5q2 -6 7.5 -23t11.5 -36t12 -36.5t9 -24.5q1 -2 4.5 -10t5.5 -10zM379 1057q-8 0 -9.5 -7.5t-1.5 -12.5q0 -14 18 -37.5t41 -48.5t44 -48t27 -36q23 -2 41.5 -2.5
t37.5 -0.5t40.5 0.5t51.5 0.5v21l-7 10t-18.5 25.5t-26 34t-28.5 36t-27 32t-22 22.5q-2 2 -5 6t-5 4z" />
    <glyph glyph-name="FL00F3h" unicode="&#xf3;" horiz-adv-x="1081" 
d="M80 10q-2 2 -5.5 10t-4.5 10q-3 7 -9 24.5t-12 36.5t-11.5 36t-7.5 23v5v5q1 2 4.5 5.5t5.5 4.5h4q55 0 110 -10.5t111 -10.5h13q9 0 19.5 0.5t19.5 0.5h13q-48 25 -96 54t-87 65.5t-63.5 83.5t-24.5 107q0 66 22.5 118t61.5 92t90 67.5t107.5 45.5t116 26t113.5 8
q75 0 154.5 -18.5t145.5 -58.5t108.5 -103t42.5 -152q0 -62 -23 -111.5t-61.5 -90.5t-87 -73.5t-99.5 -59.5q39 -10 72 -10.5t73 -0.5h40q29 0 56 1.5t59 9.5q0 -2 0.5 -7.5t0.5 -7.5q0 -27 -15.5 -51.5t-39.5 -43t-52.5 -29.5t-53.5 -11h-282q0 3 0.5 14.5t1.5 15.5
q1 6 3.5 22t5.5 33.5t6 33t5 21.5q45 21 70 50.5t36 65.5t13 77.5t2 86.5v22q0 16 -0.5 33.5t-0.5 32.5v28q-5 23 -16 57.5t-28 66t-41 54t-55 22.5h-130q-31 0 -58 -21.5t-47.5 -52.5t-32.5 -65.5t-12 -60.5v-216q0 -35 19 -65.5t41.5 -56t41.5 -45t19 -31.5q0 -4 -0.5 -12
t-0.5 -10l-5 -25t-6 -29.5t-5.5 -25t-3.5 -10.5l-30 -10q-2 0 -14.5 -0.5t-29.5 -0.5q-16 0 -32.5 -0.5t-25.5 -0.5q-20 0 -48 -0.5t-58 0.5t-59.5 3.5t-52.5 8.5zM677 1057q8 0 9.5 -7.5t1.5 -12.5q0 -14 -18 -37.5t-41 -48.5t-44 -48t-27 -36q-23 -2 -41.5 -2.5
t-37.5 -0.5t-40.5 0.5t-51.5 0.5v21l7 10t18.5 25.5t26 34t28.5 36t27 32t22 22.5q2 2 5 6t5 4z" />
    <glyph glyph-name="FL00F4h" unicode="&#xf4;" horiz-adv-x="1081" 
d="M80 10q-2 2 -5.5 10t-4.5 10q-3 7 -9 24.5t-12 36.5t-11.5 36t-7.5 23v5v5q1 2 4.5 5.5t5.5 4.5h4q55 0 110 -10.5t111 -10.5h13q9 0 19.5 0.5t19.5 0.5h13q-48 25 -96 54t-87 65.5t-63.5 83.5t-24.5 107q0 66 22.5 118t61.5 92t90 67.5t107.5 45.5t116 26t113.5 8
q75 0 154.5 -18.5t145.5 -58.5t108.5 -103t42.5 -152q0 -62 -23 -111.5t-61.5 -90.5t-87 -73.5t-99.5 -59.5q39 -10 72 -10.5t73 -0.5h40q29 0 56 1.5t59 9.5q0 -2 0.5 -7.5t0.5 -7.5q0 -27 -15.5 -51.5t-39.5 -43t-52.5 -29.5t-53.5 -11h-282q0 3 0.5 14.5t1.5 15.5
q1 6 3.5 22t5.5 33.5t6 33t5 21.5q45 21 70 50.5t36 65.5t13 77.5t2 86.5v22q0 16 -0.5 33.5t-0.5 32.5v28q-5 23 -16 57.5t-28 66t-41 54t-55 22.5h-130q-31 0 -58 -21.5t-47.5 -52.5t-32.5 -65.5t-12 -60.5v-216q0 -35 19 -65.5t41.5 -56t41.5 -45t19 -31.5q0 -4 -0.5 -12
t-0.5 -10l-5 -25t-6 -29.5t-5.5 -25t-3.5 -10.5l-30 -10q-2 0 -14.5 -0.5t-29.5 -0.5q-16 0 -32.5 -0.5t-25.5 -0.5q-20 0 -48 -0.5t-58 0.5t-59.5 3.5t-52.5 8.5zM457 1056l151 -1q1 0 3 -2q8 -2 9 -11q14 -12 35.5 -38t42 -52t35 -46t14.5 -21v-21q-30 0 -51.5 -0.5
t-40.5 -0.5q-9 0 -14.5 -0.5t-10.5 -0.5h-12h-8q-4 0 -10 1q-2 4 -10.5 15.5t-18.5 25t-20.5 26.5t-17.5 21q-8 -8 -18.5 -21.5t-20.5 -27.5t-18 -26t-10 -16q-6 -1 -11 -1h-7h-11q-5 0 -10.5 0.5t-14.5 0.5q-19 0 -40.5 0.5t-51.5 0.5v21q0 1 14.5 20.5t34.5 46t41.5 52
t35.5 38.5q0 5 1.5 11t9.5 6z" />
    <glyph glyph-name="FL00F5h" unicode="&#xf5;" horiz-adv-x="1081" 
d="M80 10q-2 2 -5.5 10t-4.5 10q-3 7 -9 24.5t-12 36.5t-11.5 36t-7.5 23v5v5q1 2 4.5 5.5t5.5 4.5h4q55 0 110 -10.5t111 -10.5h13q9 0 19.5 0.5t19.5 0.5h13q-48 25 -96 54t-87 65.5t-63.5 83.5t-24.5 107q0 66 22.5 118t61.5 92t90 67.5t107.5 45.5t116 26t113.5 8
q75 0 154.5 -18.5t145.5 -58.5t108.5 -103t42.5 -152q0 -62 -23 -111.5t-61.5 -90.5t-87 -73.5t-99.5 -59.5q39 -10 72 -10.5t73 -0.5h40q29 0 56 1.5t59 9.5q0 -2 0.5 -7.5t0.5 -7.5q0 -27 -15.5 -51.5t-39.5 -43t-52.5 -29.5t-53.5 -11h-282q0 3 0.5 14.5t1.5 15.5
q1 6 3.5 22t5.5 33.5t6 33t5 21.5q45 21 70 50.5t36 65.5t13 77.5t2 86.5v22q0 16 -0.5 33.5t-0.5 32.5v28q-5 23 -16 57.5t-28 66t-41 54t-55 22.5h-130q-31 0 -58 -21.5t-47.5 -52.5t-32.5 -65.5t-12 -60.5v-216q0 -35 19 -65.5t41.5 -56t41.5 -45t19 -31.5q0 -4 -0.5 -12
t-0.5 -10l-5 -25t-6 -29.5t-5.5 -25t-3.5 -10.5l-30 -10q-2 0 -14.5 -0.5t-29.5 -0.5q-16 0 -32.5 -0.5t-25.5 -0.5q-20 0 -48 -0.5t-58 0.5t-59.5 3.5t-52.5 8.5zM275 823q0 17 5 35t12.5 36t15 35.5t12.5 32.5q2 5 5.5 12.5t4.5 8.5h338q1 0 8.5 4t11.5 6l35 60h5
q10 0 18 -4t8 -15q0 -24 -3 -39.5t-9 -29.5t-14 -29t-18 -37q-2 -4 -5.5 -9.5t-4.5 -6.5h-348q-2 -3 -8.5 -14.5t-14 -24.5t-14.5 -23.5t-10 -11.5q-2 0 -14 3t-16 7v4z" />
    <glyph glyph-name="FL00F6h" unicode="&#xf6;" horiz-adv-x="1081" 
d="M80 10q23 -6 52.5 -8.5t59.5 -3.5t58 -0.5t48 0.5q9 0 25.5 0.5t32.5 0.5q17 0 29.5 0.5t14.5 0.5l30 10q1 0 3.5 10.5t5.5 25t6 29.5l5 25q0 2 0.5 10t0.5 12q0 12 -19 31.5t-41.5 45t-41.5 56t-19 65.5v216q0 26 12 60.5t32.5 65.5t47.5 52.5t58 21.5h130
q31 0 55 -22.5t41 -54t28 -66t16 -57.5v-28q0 -15 0.5 -32.5t0.5 -33.5v-22q0 -45 -2 -86.5t-13 -77.5t-36 -65.5t-70 -50.5q-2 -6 -5 -21.5t-6 -33t-5.5 -33.5t-3.5 -22q-1 -4 -1.5 -15.5t-0.5 -14.5h282q25 0 53.5 11t52.5 29.5t39.5 43t15.5 51.5q0 2 -0.5 7.5t-0.5 7.5
q-32 -8 -59 -9.5t-56 -1.5h-40q-40 0 -73 0.5t-72 10.5q51 27 99.5 59.5t87 73.5t61.5 90.5t23 111.5q0 89 -42.5 152t-108.5 103t-145.5 58.5t-154.5 18.5q-55 0 -114 -8t-115.5 -26t-107.5 -45.5t-90 -67.5t-61.5 -92t-22.5 -118q0 -60 24.5 -107t63.5 -83.5t87 -65.5
t96 -54h-13q-9 0 -19.5 -0.5t-19.5 -0.5h-13q-56 0 -111 10.5t-110 10.5h-4q-2 -1 -5.5 -4.5t-4.5 -5.5v-5v-5q2 -6 7.5 -23t11.5 -36t12 -36.5t9 -24.5q1 -2 4.5 -10t5.5 -10zM518 1016l-151 -1q-2 0 -5.5 -4t-4.5 -6q-5 -8 -8 -22t-5 -29.5t-2.5 -31t-0.5 -26.5v-16v-21
q30 0 51.5 -0.5t40.5 -0.5t37.5 0.5t41.5 2.5q11 20 14 48.5t3 54.5v32q0 5 -1.5 12.5t-9.5 7.5zM760 1017l-151 -1q-2 0 -5.5 -4t-4.5 -6q-5 -8 -8 -22t-5 -29.5t-2.5 -31t-0.5 -26.5v-16v-21q30 0 51.5 -0.5t40.5 -0.5t37.5 0.5t41.5 2.5q11 20 14 48.5t3 54.5v32
q0 5 -1.5 12.5t-9.5 7.5z" />
    <glyph glyph-name="FL00F7h" unicode="&#xf7;" horiz-adv-x="639" 
d="M30 265q4 -4 16 -7t14 -3q3 1 9 5.5t12.5 10t11.5 11t7 8.5l448 2q1 0 4.5 5.5t5.5 9.5q20 45 35.5 85.5t15.5 88.5q0 11 -8 15t-18 4h-5l-30 -20q-4 -2 -11.5 -6t-8.5 -4l-438 -2q-1 0 -4.5 -7.5t-5.5 -12.5q-5 -15 -13.5 -38.5t-16.5 -49t-14 -50t-6 -41.5v-4zM414 204
l-151 -1q-2 0 -5.5 -4t-4.5 -6q-5 -8 -8 -22t-5 -29.5t-2.5 -31t-0.5 -26.5v-16v-21q30 0 51.5 -0.5t40.5 -0.5t37.5 0.5t41.5 2.5q11 20 14 48.5t3 54.5v32q0 5 -1.5 12.5t-9.5 7.5zM414 710l-151 -1q-2 0 -5.5 -4t-4.5 -6q-5 -8 -8 -22t-5 -29.5t-2.5 -31t-0.5 -26.5v-16
v-21q30 0 51.5 -0.5t40.5 -0.5t37.5 0.5t41.5 2.5q11 20 14 48.5t3 54.5v32q0 5 -1.5 12.5t-9.5 7.5z" />
    <glyph glyph-name="FL00F8h" unicode="&#xf8;" 
d="M30 398q0 -105 34 -180.5t94.5 -124t143 -71.5t180.5 -23q114 0 208 27t161 82.5t104 141.5t37 203q0 96 -35.5 166t-96 115t-140.5 67t-169 22q-107 0 -202 -22.5t-166 -73t-112 -131.5t-41 -198zM300 432v24q0 17 0.5 36t0.5 36v24q9 45 25 80.5t41.5 60t61 37.5
t82.5 13q66 0 109 -28t67.5 -72.5t34 -101t9.5 -113.5q0 -56 -7 -117.5t-29.5 -113t-65 -85t-112.5 -33.5q-72 0 -115 35t-65.5 88t-29.5 114.5t-7 115.5zM512 594l-105 -227q-2 -2 0 -7t4 -7q7 -10 19.5 -26t24.5 -31t21 -26t10 -11l19 -9q13 26 29 59.5t32 67.5t30 65.5
t23 52.5q-9 12 -18.5 27t-20 29t-22 26t-23.5 18q-5 2 -12 4.5t-11 -5.5z" />
    <glyph glyph-name="FL00F9h" unicode="&#xf9;" horiz-adv-x="1064" 
d="M244 139q30 -32 58 -56t58 -41t64 -28t76 -18q34 2 56.5 3.5t38 4.5t26.5 8t23 15q39 11 70 33t57.5 49.5t50 58.5t47.5 60q2 4 8.5 38t15.5 84t19 107.5t19 107.5t15 85t7 39q2 6 9 20.5t11 19.5q5 8 15.5 13.5t20.5 10.5t17.5 10.5t7.5 14.5q0 21 -20 21
q-26 0 -62 -1.5t-72.5 -8.5t-68 -21t-48.5 -39q-5 -23 -10.5 -60.5t-12.5 -84t-16 -98.5t-21 -103t-27.5 -97.5t-36 -81.5t-45.5 -56t-57 -21l-59 2q-31 1 -51 26.5t-32 67.5t-18.5 96t-11 112.5t-8.5 117t-11.5 108.5t-20.5 87.5t-35 54.5h-13q-9 0 -19.5 0.5t-19.5 0.5
h-13h-48q-32 0 -62 -2.5t-75 -8.5q-2 -2 -5.5 -10t-4.5 -10v-5v-5q31 -8 50.5 -33.5t30.5 -63.5t16.5 -85.5t10 -98t10 -101.5t16.5 -96.5t30 -82.5t50 -59zM371 1004q-8 0 -9.5 -7.5t-1.5 -12.5q0 -14 18 -37.5t41 -48.5t44 -48t27 -36q23 -2 41.5 -2.5t37.5 -0.5t40.5 0.5
t51.5 0.5v21q0 1 -15 22t-36 47.5t-43 52.5t-35 38q-2 2 -5 6t-5 4z" />
    <glyph glyph-name="FL00FAh" unicode="&#xfa;" horiz-adv-x="1064" 
d="M244 139q-31 22 -50 59t-30 82.5t-16.5 96.5t-10 101.5t-10 98t-17 85.5t-30.5 63.5t-50 33.5v5v5q1 2 4.5 10t5.5 10q45 6 75 8.5t62 2.5h48h13q9 0 19.5 -0.5t19.5 -0.5h13q22 -17 35 -54.5t20.5 -87.5t11.5 -108.5t8.5 -117t11 -112.5t18.5 -96t32 -67.5t51 -26.5
l59 -2q32 0 57 21t45.5 56t36 81.5t27.5 97.5t21 103t16 98.5t12.5 84t10.5 60.5q17 25 48.5 39t68 21t72.5 8.5t62 1.5q20 0 20 -21q0 -9 -7.5 -14.5t-17.5 -10.5t-20.5 -10.5t-15.5 -13.5q-4 -5 -11 -19.5t-9 -20.5q-1 -4 -7 -39t-15 -85t-19 -107.5t-19 -107t-15.5 -84
t-8.5 -38.5q-24 -29 -47.5 -60t-50 -58.5t-57.5 -49.5t-70 -33q-12 -10 -23 -15t-26.5 -8t-38 -4.5t-56.5 -3.5q-42 7 -76 18t-64 28t-58 41t-58 56zM700 1032q8 0 9.5 -7.5t1.5 -12.5q0 -14 -18 -37.5t-41 -48.5t-44 -48t-27 -36q-23 -2 -41.5 -2.5t-37.5 -0.5t-40.5 0.5
t-51.5 0.5v21q0 1 15 22t36 47.5t43 52.5t35 38q2 2 5 6t5 4z" />
    <glyph glyph-name="FL00FBh" unicode="&#xfb;" horiz-adv-x="1064" 
d="M244 139q-31 22 -50 59t-30 82.5t-16.5 96.5t-10 101.5t-10 98t-17 85.5t-30.5 63.5t-50 33.5v5v5q1 2 4.5 10t5.5 10q45 6 75 8.5t62 2.5h48h13q9 0 19.5 -0.5t19.5 -0.5h13q22 -17 35 -54.5t20.5 -87.5t11.5 -108.5t8.5 -117t11 -112.5t18.5 -96t32 -67.5t51 -26.5
l59 -2q32 0 57 21t45.5 56t36 81.5t27.5 97.5t21 103t16 98.5t12.5 84t10.5 60.5q17 25 48.5 39t68 21t72.5 8.5t62 1.5q20 0 20 -21q0 -9 -7.5 -14.5t-17.5 -10.5t-20.5 -10.5t-15.5 -13.5q-4 -5 -11 -19.5t-9 -20.5q-1 -4 -7 -39t-15 -85t-19 -107.5t-19 -107t-15.5 -84
t-8.5 -38.5q-24 -29 -47.5 -60t-50 -58.5t-57.5 -49.5t-70 -33q-12 -10 -23 -15t-26.5 -8t-38 -4.5t-56.5 -3.5q-42 7 -76 18t-64 28t-58 41t-58 56zM460 1051l151 -1q1 0 3 -2q8 -2 9 -11q14 -12 35.5 -38t42 -52t35 -46t14.5 -21v-21q-30 0 -51.5 -0.5t-40.5 -0.5
q-9 0 -14.5 -0.5t-10.5 -0.5h-12h-8q-4 0 -10 1q-2 4 -10.5 15.5t-18.5 25t-20.5 26.5t-17.5 21q-8 -8 -18.5 -21.5t-20.5 -27.5t-18 -26t-10 -16q-6 -1 -11 -1h-7h-11q-5 0 -10.5 0.5t-14.5 0.5q-19 0 -40.5 0.5t-51.5 0.5v21q0 1 14.5 20.5t34.5 46t41.5 52t35.5 38.5
q0 5 1.5 11t9.5 6z" />
    <glyph glyph-name="FL00FCh" unicode="&#xfc;" horiz-adv-x="1064" 
d="M244 139q30 -32 58 -56t58 -41t64 -28t76 -18q34 2 56.5 3.5t38 4.5t26.5 8t23 15q39 11 70 33t57.5 49.5t50 58.5t47.5 60q2 4 8.5 38t15.5 84t19 107.5t19 107.5t15 85t7 39q2 6 9 20.5t11 19.5q5 8 15.5 13.5t20.5 10.5t17.5 10.5t7.5 14.5q0 21 -20 21
q-26 0 -62 -1.5t-72.5 -8.5t-68 -21t-48.5 -39q-5 -23 -10.5 -60.5t-12.5 -84t-16 -98.5t-21 -103t-27.5 -97.5t-36 -81.5t-45.5 -56t-57 -21l-59 2q-31 1 -51 26.5t-32 67.5t-18.5 96t-11 112.5t-8.5 117t-11.5 108.5t-20.5 87.5t-35 54.5h-13q-9 0 -19.5 0.5t-19.5 0.5
h-13h-48q-32 0 -62 -2.5t-75 -8.5q-2 -2 -5.5 -10t-4.5 -10v-5v-5q31 -8 50.5 -33.5t30.5 -63.5t16.5 -85.5t10 -98t10 -101.5t16.5 -96.5t30 -82.5t50 -59zM504 1016l-151 -1q-2 0 -5.5 -4t-4.5 -6q-5 -8 -8 -22t-5 -29.5t-2.5 -31t-0.5 -26.5v-16v-21q30 0 51.5 -0.5
t40.5 -0.5t37.5 0.5t41.5 2.5q11 20 14 48.5t3 54.5v32q0 5 -1.5 12.5t-9.5 7.5zM746 1017l-151 -1q-2 0 -5.5 -4t-4.5 -6q-5 -8 -8 -22t-5 -29.5t-2.5 -31t-0.5 -26.5v-16v-21q30 0 51.5 -0.5t40.5 -0.5t37.5 0.5t41.5 2.5q11 20 14 48.5t3 54.5v32q0 5 -1.5 12.5t-9.5 7.5
z" />
    <glyph glyph-name="FL00FDh" unicode="&#xfd;" horiz-adv-x="1251" 
d="M530 -4v294q-33 3 -70 6.5t-74.5 10.5t-72.5 19.5t-63 33.5q-41 30 -61.5 69.5t-31.5 81.5t-16.5 84t-16 77.5t-32 61.5t-62.5 36v5v5q1 2 4.5 10t5.5 10q45 6 75 8.5t62 2.5h48h13q9 0 19.5 -0.5t19.5 -0.5h13q29 -23 43.5 -62.5t22 -85t12.5 -93.5t16.5 -89.5t33 -71
t62.5 -38.5q3 -1 9.5 0t14 2t14 2t9.5 1q0 103 -3.5 201t-3.5 201v14q0 8 10 9t37 3q19 1 42.5 2.5t45 2.5t39.5 1.5t26 0.5q5 0 20 0.5t20 0.5v-436q41 0 69.5 18t47.5 47.5t30.5 67t19 77t12.5 77.5t11 68q17 25 48.5 39t68 21t72.5 8.5t62 1.5q20 0 20 -21
q0 -9 -7.5 -14.5t-17.5 -10.5t-20.5 -10.5t-15.5 -13.5q-4 -5 -11 -19.5t-9 -20.5q-1 -5 -5.5 -19.5t-10.5 -34.5t-12.5 -42t-13 -42t-11.5 -34t-7 -18q-20 -56 -52.5 -92.5t-74.5 -60t-91.5 -36.5t-101.5 -21v-250l-10 -10q-28 -2 -55.5 -7.5t-54.5 -11.5t-54.5 -10.5
t-55.5 -4.5zM774 1055q8 0 9.5 -7.5t1.5 -12.5q0 -14 -18 -37.5t-41 -48.5t-44 -48t-27 -36q-23 -2 -41.5 -2.5t-37.5 -0.5t-40.5 0.5t-51.5 0.5v21q0 1 15 22t36 47.5t43 52.5t35 38q2 2 5 6t5 4z" />
    <glyph glyph-name="FL00FEh" unicode="&#xfe;" horiz-adv-x="756" 
d="M171 967h14q10 0 21 0.5t21 0.5h14l-2 -281h77q27 0 56.5 -0.5t55.5 -0.5h37q35 -4 75.5 -11.5t77.5 -23t66 -41t41 -64.5v-12q0 -8 0.5 -18t0.5 -19v-11q0 -72 -33 -121.5t-85 -80.5t-116 -45t-127 -14h-10q-7 0 -15 0.5t-15 0.5h-10q-14 8 -22.5 17t-8.5 23
q0 2 0.5 5.5t0.5 4.5q39 13 74 28t61 36.5t41 52.5t15 76q0 48 -21.5 76.5t-54.5 43.5t-73 19.5t-77 4.5l1 -533q0 -10 -3.5 -31t-9 -46.5t-12.5 -54t-14 -54t-14 -45.5t-12 -29q-6 -17 -18 -28.5t-27.5 -18.5t-33 -10.5t-33.5 -3.5q-2 0 -5 0.5l-3 0.5l-10 40q-1 4 -3 26.5
t-4.5 55t-5 72t-4.5 78t-3.5 73t-1.5 57.5q0 75 -1.5 162.5t-2 187t0.5 210t7 230.5z" />
    <glyph glyph-name="FL00FFh" unicode="&#xff;" horiz-adv-x="1251" 
d="M530 290v-294q28 0 55.5 4.5t54.5 10.5t54.5 11.5t55.5 7.5l10 10v250q52 8 101.5 21t91.5 36.5t74.5 60t52.5 92.5q2 4 7 18t11.5 34t13 42t12.5 42t10.5 34.5t5.5 19.5q2 6 9 20.5t11 19.5q5 8 15.5 13.5t20.5 10.5t17.5 10.5t7.5 14.5q0 21 -20 21q-26 0 -62 -1.5
t-72.5 -8.5t-68 -21t-48.5 -39q-6 -30 -11 -68t-12.5 -77.5t-19 -77t-30.5 -67t-47.5 -47.5t-69.5 -18v436q-5 0 -20 -0.5t-20 -0.5q-11 0 -38 -1t-58 -3q-24 -2 -44.5 -2.5t-34.5 -1.5t-20.5 -3.5t-4.5 -7.5v-14q0 -103 3.5 -201t3.5 -201q-3 0 -9.5 -1t-14 -2t-14 -2
t-9.5 0q-41 9 -62.5 38.5t-33 71t-16.5 89.5t-12.5 93.5t-22 85t-43.5 62.5h-13q-9 0 -19.5 0.5t-19.5 0.5h-13h-48q-32 0 -62 -2.5t-75 -8.5q-2 -2 -5.5 -10t-4.5 -10v-5v-5q41 -10 62.5 -36t32 -61.5t16 -77.5t16.5 -84t31.5 -81.5t61.5 -69.5q28 -21 63 -33.5t72.5 -19.5
t74.5 -10.5t70 -6.5zM613 1016l-151 -1q-2 0 -5.5 -4t-4.5 -6q-5 -8 -8 -22t-5 -29.5t-2.5 -31t-0.5 -26.5v-16v-21q30 0 51.5 -0.5t40.5 -0.5t37.5 0.5t41.5 2.5q11 20 14 48.5t3 54.5v32q0 5 -1.5 12.5t-9.5 7.5zM855 1017l-151 -1q-2 0 -5.5 -4t-4.5 -6q-5 -8 -8 -22
t-5 -29.5t-2.5 -31t-0.5 -26.5v-16v-21q30 0 51.5 -0.5t40.5 -0.5t37.5 0.5t41.5 2.5q11 20 14 48.5t3 54.5v32q0 5 -1.5 12.5t-9.5 7.5z" />
    <glyph glyph-name="FL0152h" unicode="&#x152;" horiz-adv-x="1429" 
d="M757 829q5 -2 11 -2.5t15.5 -1.5t24.5 -1h40q32 0 84 0.5t130 0.5h186q6 0 20 1t30 2.5t30 3.5t20 3q2 -1 5.5 -4.5t4.5 -5.5l0.5 -2t0.5 -3t-1.5 -6t-2.5 -11l-1 -6q-13 -25 -37.5 -49.5t-42.5 -40.5q-10 0 -30 -1t-46 -3t-54 -4.5t-54 -4.5t-46.5 -4t-29.5 -3
q-3 0 -13.5 -1t-22 -2.5t-21.5 -3.5t-13 -3q14 -16 39 -39t54.5 -48.5t60 -52t55.5 -48.5t41 -38t16 -21q0 -2 -0.5 -5.5t-1.5 -4.5q-31 -34 -65.5 -64.5t-69.5 -60.5t-69.5 -60.5t-65.5 -64.5q29 -10 60.5 -14.5t63.5 -6t64 -1t62 0.5q54 0 105.5 6t105.5 6
q0 -39 -24.5 -69t-59.5 -50.5t-75.5 -31t-71.5 -10.5h-697q-89 0 -169 21.5t-140.5 66.5t-96 115t-35.5 166q0 118 37 204.5t104 143.5q34 29 70 48.5t75 32t81 20t88 11.5h272zM591 752l-85 -1q-46 0 -78.5 -15.5t-54 -41.5t-33.5 -61t-18 -73.5t-7.5 -78.5t-1.5 -77v-89
q0 -32 3 -61.5t12 -55.5t24.5 -47.5t39.5 -36.5l15 -6q-8 2 -11 3l15 -4q25 -6 49 -7t55.5 1.5t75 6t107.5 6.5q3 5 5.5 9.5t4.5 6.5t9.5 10t10.5 10l256 230l-310 277l-14 7z" />
    <glyph glyph-name="FL0153h" unicode="&#x153;" horiz-adv-x="1325" 
d="M1064 0h-238v-2h-355q-89 0 -169 21.5t-140.5 66.5t-96 115t-35.5 166q0 118 37 204.5t104 143.5q34 29 70 48.5t75 32t81 20t88 11.5h341q1 -2 3.5 -2.5t8 -1.5t16.5 -1h31t50 0.5t73 1t100.5 1t132.5 1.5q2 -1 5.5 -4.5t4.5 -5.5v-14q0 -1 -0.5 -3l-0.5 -2
q-13 -25 -37.5 -49.5t-42.5 -40.5q-10 0 -30 -1t-46 -3t-54 -4.5t-54 -4.5t-46.5 -4t-29.5 -3q-3 0 -13.5 -1t-22 -2.5t-21.5 -3.5t-13 -3q14 -16 39 -39t54.5 -48.5t60 -52t55.5 -48.5t41 -38t16 -21q0 -2 -0.5 -5.5t-1.5 -4.5q-31 -34 -65.5 -64.5t-69.5 -60.5
t-69.5 -60.5t-65.5 -64.5q29 -10 60.5 -14.5t63.5 -6t64 -1t62 0.5q54 0 105.5 6t105.5 6q0 -39 -24.5 -69t-59.5 -50.5t-75.5 -31t-71.5 -10.5zM591 750l-85 -1q-46 0 -79.5 -15t-56.5 -40t-36.5 -59t-21 -71.5t-10 -77t-2.5 -76.5q0 -45 2 -89.5t11 -84t27.5 -71.5
t51.5 -53l15 -6q-5 2 -9 3t-6 3l19 -7q28 -7 73 -7q44 0 103 3q5 10 10 17.5t7 11.5q2 2 10 9.5t10 10.5l234 272l-243 312z" />
    <glyph glyph-name="FL0160h" unicode="&#x160;" horiz-adv-x="874" 
d="M844 20l-10 -20h-600q-24 0 -58.5 8t-67 23t-55.5 36.5t-23 48.5h40q32 0 77.5 0.5t90.5 1.5t82.5 1.5t53.5 0.5q9 0 23 1.5t29.5 4t31 6t26.5 8.5l-418 639v30h700q3 0 12 -21t18 -49t16.5 -56.5t7.5 -43.5h-34q-34 42 -84.5 57.5t-106 17.5t-110.5 -3.5t-97 -5.5
q0 -1 -1 -2.5t-1 -3.5q1 -2 4.5 -10t5.5 -10zM512 864l-151 1q-1 0 -3 2q-8 2 -9 11q-14 12 -36 37.5t-42 52t-34.5 46.5t-14.5 21v21q30 0 51.5 0.5t40.5 0.5q9 0 14.5 0.5t10.5 0.5h11h8q5 0 11 -1q2 -4 10.5 -15.5t18.5 -25t20.5 -26.5t17.5 -21q8 8 18.5 21.5t21 27.5
t18 25.5t9.5 16.5q6 1 10 1h8h11q5 0 10.5 -0.5t14.5 -0.5q19 0 40.5 -0.5t51.5 -0.5v-21q0 -1 -14.5 -20.5t-34.5 -46t-41.5 -52t-35.5 -38.5q0 -5 -1.5 -11t-9.5 -6z" />
    <glyph glyph-name="FL0161h" unicode="&#x161;" horiz-adv-x="798" 
d="M410 358l-244 79q-27 14 -50 34.5t-40 47.5t-27 59t-10 69q0 45 20 74.5t51 47.5t67 27t69 14h37q26 0 55 0.5t55 0.5h86q29 0 58.5 -0.5t51.5 -0.5h25q12 0 30.5 -1.5t35.5 -3t29.5 -3t12.5 -2.5l9 -30q-12 -17 -23.5 -35t-23 -33t-22.5 -24.5t-20 -7.5v-1
q-26 24 -65 38t-76.5 21.5t-66.5 10t-35 2.5q-63 0 -99.5 -37.5t-36.5 -103.5q0 -27 6 -44t17 -28t26 -17.5t33 -12.5q31 -9 62.5 -16t60 -13t52.5 -13t41 -16q39 -8 76 -18.5t66.5 -30.5t47 -52.5t17.5 -83.5q0 -57 -19 -98t-50.5 -69.5t-72.5 -46t-85.5 -27t-89.5 -12.5
t-83 -3q-32 0 -73.5 1t-84.5 3t-83 6t-70 10q-6 1 -16.5 5t-10.5 5l1 167q94 -34 146.5 -46t63.5 -12q84 0 143 -5.5t96 -2t54 24.5t17 75q0 40 -12 63.5t-31.5 36t-45 18t-52.5 10.5zM466 860l-151 1q-1 0 -3 2q-8 2 -9 11q-14 12 -36 37.5t-42 52t-34.5 46.5t-14.5 21v21
q30 0 51.5 0.5t40.5 0.5q9 0 14.5 0.5t10.5 0.5h11h8q5 0 11 -1q2 -4 10.5 -15.5t18.5 -25t20.5 -26.5t17.5 -21q8 8 18.5 21.5t21 27.5t18 25.5t9.5 16.5q6 1 10 1h8h11q5 0 10.5 -0.5t14.5 -0.5q19 0 40.5 -0.5t51.5 -0.5v-21q0 -1 -14.5 -20.5t-34.5 -46t-41.5 -52
t-35.5 -38.5q0 -5 -1.5 -11t-9.5 -6z" />
    <glyph glyph-name="FL0178h" unicode="&#x178;" horiz-adv-x="981" 
d="M41 670q72 6 124 -10t89 -50t61.5 -84t42.5 -112q1 -4 3 -20t4.5 -34t4 -33t1.5 -17v-317q0 -6 5 -8t11 -3t11.5 -0.5t6.5 0.5q25 0 52.5 3t54.5 7.5t52.5 10t46.5 10.5v25q0 17 -0.5 39t-0.5 46v47q0 45 0.5 84.5t0.5 55.5q1 33 8 72t20 78t33 75t46 64t59.5 45t73.5 17
q21 0 40.5 -6t40.5 -6q7 0 13 3.5t6 12.5v5q-2 7 -6.5 23.5t-9.5 34t-9 32.5t-5 20q-5 16 -17.5 24.5t-28.5 12t-33 4t-31 0.5q-42 0 -75.5 -15t-60.5 -40t-47.5 -57.5t-36.5 -68.5q-7 -16 -15.5 -44t-16.5 -55t-14 -47t-7 -20h-20l-10 50q-10 60 -24 114t-42 94.5
t-74.5 64.5t-121.5 24q-24 0 -60.5 -11t-71 -29.5t-59.5 -43t-25 -52.5q0 -1 0.5 -3l0.5 -2q1 -2 4.5 -5.5t5.5 -4.5zM472 1017l-151 -1q-2 0 -5.5 -4t-4.5 -6q-5 -8 -8 -22t-5 -29.5t-2.5 -31t-0.5 -26.5v-16v-21q30 0 51.5 -0.5t40.5 -0.5t37.5 0.5t41.5 2.5
q11 20 14 48.5t3 54.5v32q0 5 -1.5 12.5t-9.5 7.5zM714 1018l-151 -1q-2 0 -5.5 -4t-4.5 -6q-5 -8 -8 -22t-5 -29.5t-2.5 -31t-0.5 -26.5v-16v-21q30 0 51.5 -0.5t40.5 -0.5t37.5 0.5t41.5 2.5q11 20 14 48.5t3 54.5v32q0 5 -1.5 12.5t-9.5 7.5z" />
    <glyph glyph-name="FL017Dh" unicode="&#x17d;" horiz-adv-x="874" 
d="M30 20l450 656q2 2 5.5 10t4.5 10q0 2 -1 3.5t-1 2.5q-42 0 -97 5.5t-110.5 3.5t-106 -17.5t-84.5 -57.5h-34q0 15 7.5 43.5t16.5 56.5t18 49t12 21h700v-30l-420 -636q10 -5 25.5 -8.5t31.5 -6t30 -4t23 -1.5q16 0 53.5 -0.5t82.5 -1.5t90.5 -1.5t77.5 -0.5h40
q0 -27 -23 -48.5t-55.5 -36.5t-67 -23t-58.5 -8h-600zM530 861l-151 1q-1 0 -3 2q-8 2 -9 11q-14 12 -36 37.5t-42 52t-34.5 46.5t-14.5 21v21q30 0 51.5 0.5t40.5 0.5q9 0 14.5 0.5t10.5 0.5h11h8q5 0 11 -1q2 -4 10.5 -15.5t18.5 -25t20.5 -26.5t17.5 -21q8 8 18.5 21.5
t21 27.5t18 25.5t9.5 16.5q6 1 10 1h8h11q5 0 10.5 -0.5t14.5 -0.5q19 0 40.5 -0.5t51.5 -0.5v-21q0 -1 -14.5 -20.5t-34.5 -46t-41.5 -52t-35.5 -38.5q0 -5 -1.5 -11t-9.5 -6z" />
    <glyph glyph-name="FL017Eh" unicode="&#x17e;" horiz-adv-x="874" 
d="M30 20l450 656q2 2 5.5 10t4.5 10q0 2 -1 3.5t-1 2.5q-42 0 -97 5.5t-110.5 3.5t-106 -17.5t-84.5 -57.5h-34q0 15 7.5 43.5t16.5 56.5t18 49t12 21h700v-30l-420 -636q10 -5 25.5 -8.5t31.5 -6t30 -4t23 -1.5q16 0 53.5 -0.5t82.5 -1.5t90.5 -1.5t77.5 -0.5h40
q0 -27 -23 -48.5t-55.5 -36.5t-67 -23t-58.5 -8h-600zM530 861l-151 1q-1 0 -3 2q-8 2 -9 11q-14 12 -36 37.5t-42 52t-34.5 46.5t-14.5 21v21q30 0 51.5 0.5t40.5 0.5q9 0 14.5 0.5t10.5 0.5h11h8q5 0 11 -1q2 -4 10.5 -15.5t18.5 -25t20.5 -26.5t17.5 -21q8 8 18.5 21.5
t21 27.5t18 25.5t9.5 16.5q6 1 10 1h8h11q5 0 10.5 -0.5t14.5 -0.5q19 0 40.5 -0.5t51.5 -0.5v-21q0 -1 -14.5 -20.5t-34.5 -46t-41.5 -52t-35.5 -38.5q0 -5 -1.5 -11t-9.5 -6z" />
    <glyph glyph-name="FL0192h" unicode="&#x192;" horiz-adv-x="1065" 
d="M508 56q7 16 11 33t7 35q-2 0 -4 0.5t-2 1.5h-1q-1 0 -4 -7.5t-7 -16.5t-7.5 -17.5t-5.5 -10.5l-0.5 -0.5t-1.5 -0.5l-1 1l-0.5 1.5t-0.5 2.5q-2 2 -9 11t-9 12l-1 2q0 5 3.5 9.5t8 8.5t8 8.5t3.5 9.5v2q-1 1 -4 3l-3 2h-2h-1q-1 0 -4 -2t-4 -3t-5 -4.5t-8.5 -7
t-8.5 -6.5t-6 -4l-1 -1q-3 0 -6.5 3t-7.5 5q-2 1 -10.5 3.5t-11.5 4.5v2l8 4l12 6t15.5 6t15.5 9l-3 3q-26 15 -48.5 29t-45.5 32l-4 4l10 6h1h2l153 -96q4 -4 7 -4h3l2 0.5t3 0.5l136 91q1 1 5.5 4t5.5 4h1q5 0 11 -6l-5 -4l-88 -64l19 -10l14 -5l12 -6l8 -4v-2
q-3 -2 -12 -4.5t-11 -3.5q-3 -2 -7 -5t-7 -3l-1 1l-35 27h-2q-9 0 -9 -7v-3l23 -33v-1v-1l-2 -3l-17 -22q-2 -2 -4 -2q-5 3 -8 11.5t-5.5 17t-5 15t-6.5 6.5q-5 0 -6 -2t-1 -6q0 -14 5 -29.5t10 -26.5v-8l-25 -52q-5 3 -6.5 9.5t-3.5 10.5q-3 4 -9.5 17.5t-8.5 18.5z
M467 124q3 0 3 -3q0 -2 -3 -2q-2 0 -2 2q0 3 2 3zM387 237l-5 5q2 20 -7 26t-28 4q-9 7 -14.5 18.5t-8.5 24.5t-4 26t-1 22q0 7 8 8.5t12 1.5l-2 2q-2 1 -8 2t-8 1v2q0 9 5 16.5t5 18.5q0 1 0.5 8.5t-4.5 7.5h-1q0 -2 -2 -7t-4.5 -10.5t-5.5 -9.5t-7 -4q-3 0 -3.5 2t-4.5 2
q-5 0 -5.5 1.5t-2.5 -5.5q-1 -4 -4 -17t-3 -18q-6 0 -8.5 -3.5t-2.5 -7.5v-7q0 -17 3.5 -30t12.5 -27q6 -11 18.5 -21t16.5 -17v-2q-34 15 -47.5 40.5t-13.5 60.5v4q0 2 0.5 4.5t0.5 4.5v4q0 10 10 7q2 9 5.5 23.5t14.5 19.5h1h9h2q1 0 3 2l7 28l3 4q1 19 3 37t2 38
q0 25 -2.5 50t-2.5 51q0 4 3.5 6t7.5 4q48 25 101 38t107.5 12t108 -14.5t100.5 -40.5v-13v-13q0 -20 -4 -40t-4 -40q0 -8 1.5 -23.5t4 -32t6 -31t7.5 -20.5q1 -2 7 -2q7 0 10 -2q9 -6 10.5 -17t4.5 -21q1 -3 3 -4.5l4 -3t3.5 -4t1.5 -9.5q0 -28 -7 -53t-30 -42
q-5 -4 -10.5 -7.5t-10.5 -3.5l-1 1q22 20 34.5 41t12.5 51v3v11v5q-8 -1 -10 5.5t-2.5 14.5t-2.5 15t-8 7h-2q-1 0 -4 -2t-3 -3h-3q-3 0 -6 4.5t-5.5 10t-4 11t-2.5 8.5q-5 -12 -5 -20q0 -10 4.5 -18t10.5 -16q-1 -3 -5 -3h-7q-3 0 -6.5 -0.5t-3.5 -3.5q10 0 22 -5v-3v-8v-3
q0 -7 -2 -20t-6 -26t-10 -23.5t-14 -12.5h-7t-10.5 -0.5t-9.5 -2.5t-4 -7v-20q0 -1 -6.5 -6t-15.5 -11t-18.5 -12.5t-15.5 -10.5q-1 -1 -11 -7.5t-23.5 -15l-27 -17t-20.5 -13.5l-5 -2.5t-5 -0.5h-3zM274 183q0 17 -5.5 33.5t-12 33t-13 32.5t-7.5 33h-4q3 -26 14.5 -50
t11.5 -50q0 -12 -6.5 -22.5t-20.5 -10.5q-10 0 -19 4t-9 15t5 18.5t16 7.5q6 0 11 -2.5t5 -10.5q0 -4 -3 -7.5t-7 -3.5q0 3 1 6t1 5q0 6 -6 6t-11 -5t-5 -13t5.5 -10.5t12.5 -2.5q14 0 18 10t4 21q0 7 -1.5 18.5t-12.5 11.5q-5 0 -9 -4.5t-11 -4.5q-19 0 -19 16q0 6 4 7t9 1
h5v-8h-9l-1 -0.5t0 -1.5q2 -5 4 -5.5t6 -0.5q11 0 13 13q-2 29 0.5 50t2.5 46v10q-6 -5 -10 -10t-8 -11h-6q0 8 0.5 14.5t3.5 13.5q-5 -3 -11.5 -8t-11.5 -5t-5 3v1t1 3q1 3 1.5 4t1.5 4q2 5 5 10.5t3 7.5q-7 -4 -15 -8t-16 -4q0 11 5 19t11 16h-2q-5 0 -11 -4t-12 -5h-2
q-3 0 -3 1v2q0 5 6.5 12.5t11.5 11.5h-2h-1q-3 -2 -11.5 -4.5t-11.5 -3.5q-1 0 -4 1t-3 2h-1v1t0.5 1.5l0.5 0.5q0 1 2 3.5t3 3.5l28 28h-2h-1q-9 -3 -21 -7.5t-22 -4.5q0 12 9 19t17 14h-45q-1 0 -2 1.5t-2 2.5v1v2q4 5 13 9t12 6q-2 0 -9.5 0.5t-9.5 1.5t-10 2t-8 7v1
q4 5 12.5 9t13.5 6l-21 5q-4 1 -9.5 3l-5.5 2v4l22 4l-32 15l-5 6q2 2 6.5 3.5t8.5 3.5l-3 3l-22 15l-3 2v1q0 3 6.5 6.5t8.5 4.5v3q-8 2 -15.5 6.5t-9.5 12.5h25l3 4q-3 2 -8.5 6.5t-11.5 10t-10.5 11t-4.5 8.5l0.5 0.5t1.5 0.5q2 0 5.5 -0.5t5.5 -0.5q0 10 -7.5 17.5
t-7.5 18.5h4q2 -1 9 -5.5t9 -5.5q1 -2 6 -4.5t6 -3.5l1 -1q1 0 1.5 0.5l0.5 0.5q-17 20 -25.5 40t-8.5 46q4 0 8 -5t8.5 -12.5l9 -15t8.5 -11.5q3 -4 10 -10.5t8 -6.5h2q-5 13 -12 24.5t-13 23.5t-10.5 25t-4.5 28q0 1 1 4.5t1 5.5l3 -3q8 -21 17.5 -43t27.5 -38v3
q-11 23 -19.5 48.5t-8.5 51.5v8q0 8 1.5 16t7.5 8q0 -10 1.5 -26.5t5 -34t9.5 -33t16 -23.5v3q0 20 -4 37.5t-4 36.5v8q0 5 0.5 8.5t0.5 8.5v4q0 3 1.5 10.5t4 15t6 13.5t6.5 6h1q-4 -17 -4.5 -26t-0.5 -23q0 -23 3.5 -46.5t11.5 -45.5v7q0 13 -1.5 24.5t-1.5 24.5
q0 20 4 40t15 38v-3q0 -13 -3 -26t-3 -27q0 -42 18 -82t44 -72v-4q-20 -4 -36 -14.5t-16 -32.5q0 -14 11.5 -24.5t25.5 -10.5q8 0 15 5.5t7 14.5q0 8 -3 13.5t-13 5.5t-17 -10q-1 0 -1 2v4q0 11 11.5 16t21.5 5q29 0 51 -18.5t33 -44.5h-2q-7 0 -12.5 4t-12.5 4h-11
q-5 0 -7 -5q2 -1 12 -1.5t13 -5.5q-14 -6 -14 -14t6 -9q-2 6 4.5 12t11.5 6h2q10 -4 17 -13t11 -20.5t5.5 -23.5t1.5 -21t-2 -22.5t-7 -25.5t-13.5 -20.5t-21.5 -8.5q-1 0 -3.5 0.5t-3.5 0.5q13 32 13 70q0 12 0.5 27t-7.5 26v-3q0 -11 1 -21t1 -21v-6v-14v-3
q0 -3 -1.5 -11.5t-3.5 -18t-4.5 -17t-5.5 -8.5q-3 0 -3 2l1.5 3.5t1.5 4.5v2q0 5 -5.5 9t-9.5 4q-8 0 -11.5 -6.5t-3.5 -13.5q0 -12 11 -17t22 -5t26 8t19 21v-7q0 -14 -14.5 -20.5t-26.5 -10.5q-8 -15 -10.5 -32.5t-2.5 -34.5q0 -32 12.5 -62t44.5 -44q0 -1 3.5 -2t8 -2.5
t8.5 -2.5t5 -1q0 -2 4 -2h-2q-2 0 -3.5 -0.5t-3.5 -0.5h-2q-22 0 -37.5 11t-25 28.5t-14 38t-4.5 39.5q0 17 3.5 32t3.5 31v4q-7 -11 -9 -23.5t-2 -25.5v-17q0 -26 6 -46.5t17 -43.5q0 -1 1 -4.5t2 -5.5q2 -11 6.5 -28.5t6.5 -31.5v-6q0 -13 -6.5 -25.5t-22.5 -12.5
q0 4 9.5 11.5t9.5 23.5zM782 185q0 22 6 42.5t13 40.5t13 40.5t6 42.5q0 16 -2 33.5t-8 31.5q0 -1 -0.5 -3t-0.5 -3q0 -14 3.5 -28.5t3.5 -30.5q0 -18 -4.5 -39t-14 -38t-25 -28.5t-37.5 -11.5q-2 0 -5.5 0.5t-4.5 0.5q1 4 9 4.5t13 2.5q32 14 47.5 44t15.5 65
q0 16 -2.5 34.5t-12.5 32.5q-4 4 -11 6t-13.5 4t-11.5 6.5t-5 14.5v5q10 -11 21.5 -19t25.5 -8q11 0 21.5 5t10.5 17q0 17 -16 17h-2q-3 0 -6.5 -0.5t-3.5 -3.5v-19q-3 0 -6 6t-5 13.5t-3 15.5t-1 11v3q0 5 -0.5 9.5t-0.5 9.5v8q0 23 2 35t11 31l2 4t1 3q0 3 -5.5 6t-7.5 5
v2q4 2 13 3.5t11 1.5q0 5 -8 5h-9q-14 0 -27 -10v2q0 2 0.5 3l2.5 5q14 21 32 38t45 17q14 0 25 -6.5t11 -21.5q-6 0 -8.5 5.5t-9.5 5.5t-12.5 -4.5t-5.5 -10.5q0 -11 7.5 -17t18.5 -6q15 0 24 11t9 25q0 23 -15.5 31.5t-34.5 13.5v2q25 38 42.5 75t17.5 84q0 11 -1 22
t-1 22v4q2 -1 4 -7l4.5 -13.5t4 -14t2.5 -8.5q0 -1 0.5 -12t1.5 -17v-1q0 -17 -2.5 -29.5t-4.5 -29.5v-2v-2q8 14 12.5 31t4.5 33v82q11 -14 14.5 -32.5t3.5 -34.5q0 -21 -5 -41.5t-5 -40.5v-3q9 7 15.5 22.5t10 33.5t5.5 35t2 28h2l6 -13v-13v-4q0 -29 -8.5 -53.5
t-19.5 -50.5v-2q14 11 22 25.5t16 32.5l7 22q0 1 1 3t1 3l3 -3v-10q0 -24 -10.5 -46t-21.5 -42l-8 -10l-0.5 -0.5t-0.5 -1.5l1 -1q17 11 28.5 28.5t21.5 34.5h1q4 0 4 -4v-6q0 -22 -12 -41.5t-24 -36.5q3 0 6 3l30 19h3q0 -11 -5 -18t-13 -14q2 -1 9 -1.5t9 -2.5
q-8 -14 -19.5 -21.5t-19.5 -18.5h29q0 -5 -3.5 -8t-8 -5t-8.5 -4t-6 -5q4 -1 9.5 -3t5.5 -7q0 -8 -10 -12.5t-15 -9.5q2 -2 7.5 -3t5.5 -4v-4q-10 -5 -19.5 -8.5t-18.5 -8.5l23 -4v-2q0 -3 -6 -4.5t-7 -2.5l-20 -5q4 -6 13.5 -7.5t9.5 -9.5q0 -5 -3 -5l-35 -5q2 -2 8.5 -4.5
t8.5 -3.5q3 -2 7 -4t4 -5v-1q-1 -1 -3 -2.5t-3 -1.5h-42q1 -1 4 -4.5t7 -7t7 -7.5t5 -5q0 -1 1 -2.5l1 -1.5q0 -3 -2.5 -3.5t-4.5 -0.5q-10 0 -19 5.5t-20 5.5h-2l33 -33v-7q-8 0 -15 3.5t-15 3.5h-1q2 -2 9 -10t7 -13q0 -4 -5 -4t-13 3.5t-10 5.5v-2q5 -6 9.5 -14.5
t4.5 -17.5q-8 0 -13.5 3t-13.5 3q0 -8 4 -14t4 -14q-8 0 -14.5 4t-11.5 9v-2q0 -6 2 -12t2 -14h-7l-19 21v-6v-7q0 -1 0.5 -6.5t1.5 -11.5t1.5 -11t0.5 -6v-12v-20v-18v-13q3 -5 5 -6.5t7 -1.5h5q4 0 4 3q1 2 0 3.5l-1 1.5h-10v2t1 3q2 3 4 3h5h3q7 0 8 -5q2 -9 -4 -14
t-12 -5q-8 0 -13 4.5t-12 4.5q-8 0 -10 -11.5t-2 -16.5q0 -11 3.5 -22t17.5 -11q6 0 13 3t7 10q0 1 -0.5 2.5t-0.5 2.5q-1 2 -5.5 6.5l-6.5 6.5q-2 0 -5.5 -1.5t-4.5 -1.5v-14q-5 2 -6.5 4t-1.5 7q0 8 5.5 10.5t10.5 2.5q11 0 16 -8t5 -18q0 -11 -8.5 -15t-18.5 -4
q-14 0 -21 9.5t-7 23.5q0 13 3.5 25t8 24t8 24t3.5 25v9q-2 -18 -8.5 -35t-13.5 -34.5t-12.5 -35t-5.5 -35.5q0 -12 5.5 -18.5t14.5 -14.5h-3q-15 0 -20 12t-5 24zM298 344q0 2 0.5 4.5l0.5 2.5q0 1 4 4.5t6 5.5q2 -32 10 -55.5t25 -48.5q4 -6 10.5 -8t10.5 -7q-6 -6 -10 -7
q-29 17 -43 47t-14 62zM699 242q4 5 10.5 6t9.5 7q8 14 14.5 25t11.5 22.5t8 24.5t5 31q5 0 7 -6.5t2 -11.5q0 -29 -12.5 -52t-32.5 -43q-4 -5 -6 -7t-7 -2q-6 0 -10 6zM729 247q3 0 3 -2q0 -3 -3 -3q-2 0 -2 3q0 2 2 2zM232 322h-1v-1q0 -2 1.5 -1.5t1.5 1.5t-2 1zM870 395
l-0.5 -0.5t-0.5 -1.5v-2h1q3 0 3 2t-3 2zM807 420q-1 0 -1 -2t1 -2q2 0 2 2t-2 2zM747 522q0 20 4.5 38t20.5 32q1 1 4 2.5t4 3.5h2q-28 -37 -28 -81v-4v-11v-3q3 29 8.5 50.5t22.5 45.5h1h1l11 -6h2v-4q-10 -19 -14 -32.5t-4 -33.5v-10q0 -6 0.5 -11.5t2.5 -13.5
q1 -2 3 -14t4 -16l3 -8v-3q-15 0 -24.5 8t-14.5 19.5t-7 25.5t-2 26zM304 459l0.5 -0.5t0.5 -2.5t-1 -2v0q-2 0 -2 2q0 3 2 3zM286 469q-4 0 -5.5 -3t-1.5 -6h3q3 0 6 1t3 3v2q-1 0 -3 1.5zM780 469q-3 0 -5 -2.5t-2 -4.5h10l-0.5 3.5t-2.5 3.5zM894 473q-3 0 -3 -1
q0 -3 3 -3q1 0 1 3q0 1 -1 1zM289 489v-8q2 0 4.5 0.5t2.5 2.5q0 5 -5 5h-2zM306 484q-2 0 -2 -2q0 -1 1 -1q2 0 2 1t-1 2zM773 489q-3 0 -3.5 -3t-0.5 -5h9q0 2 -1 5t-4 3zM758 497q-3 0 -3 -6q0 -7 3 -4v4v6zM301 562q0 -7 2 -14t3 -13t2 -22t1 -22v6v15v5v24t-8 23v-2z
M290 509q0 -2 0.5 -5t3.5 -3q1 0 1.5 0.5l0.5 0.5q1 0 3 2v1q0 3 -3 3.5t-6 0.5zM766 509q0 -2 1 -5t4 -3h1v1l1.5 2t1.5 3q0 2 -7 2h-2zM290 527h1q0 -3 3 -3q4 0 4.5 3t0.5 5q-2 0 -5.5 -0.5t-3.5 -4.5zM764 527h1q0 -3 2 -3h2q2 0 2.5 3t0.5 5q-1 0 -4.5 -0.5t-3.5 -4.5z
M767 553q0 -2 2 -4t3 -2q3 -2 4 0.5t1 5.5q0 1 -1 3t-4 1q-1 -1 -3 -2.5zM289 554v-5h7v5h-7zM288 585h1q1 -3 4.5 -9.5t5.5 -8.5v3q0 5 -3 9.5t-7 8.5q0 -1 -0.5 -1.5t-0.5 -1.5zM271 572q-1 0 -1.5 -0.5l-0.5 -0.5q0 -2 1.5 -1.5t1.5 1.5zM278 573q0 -3 3 -3.5t5 -0.5v2v5
t-2 4l-3 -3t-2 -3h-1v-1zM777 574q0 -5 3 -5q5 0 5 5q0 2 -0.5 4t-2.5 2q-5 0 -5 -6zM193 589q0 -8 5 -13t13 -5q2 0 4 0.5t3 0.5q-8 2 -13 6.5t-5 12.5v7q1 1 6 5.5t7 6.5h-2q-8 0 -13 -6.5t-5 -14.5zM866 589q0 -8 -8 -11.5t-13 -5.5q1 -1 4 -1h3q9 0 14 5t5 13t-5.5 14.5
t-13.5 6.5h-1q6 -3 10.5 -8.5t4.5 -12.5zM268 578q-1 0 -1 -3q0 -1 1 -1t1 1q0 2 -1 2v1zM286 592q-2 0 -2 -3q0 -1 2 -1h1t1 1q0 2 -1 2.5zM284 595q-2 0 -2 -3t2 -3q1 0 1 3t-1 3zM281 598q-2 0 -2 -3t2 -3t2 3t-2 3zM297 641q0 2 0.5 5.5t1.5 3.5l5 5l5.5 3t13.5 6.5
t15.5 7.5t12.5 7q45 19 90.5 27.5t94.5 8.5q51 0 97.5 -11t93.5 -31q9 -4 21.5 -9.5t18.5 -13.5q0 -2 0.5 -5t0.5 -5q0 -6 -2.5 -16t-10.5 -11v27l-1 1t-1 2q-51 26 -106 41.5t-112 15.5h-24q-11 0 -23 -2q-31 -5 -61 -11.5t-58 -18.5q-7 -3 -17 -7.5t-19.5 -9t-16 -8
l-6.5 -3.5v-30q-13 12 -13 31zM218 615q-2 0 -2 -2q0 -3 2 -3t2 3q0 2 -2 2zM845 615q-2 0 -2 -2q0 -3 2 -3q3 0 3 3q0 2 -3 2zM228 632q0 -5 1.5 -6.5t8.5 -2.5q5 -2 6.5 3t1.5 8q0 9 -10 9q-8 0 -8 -11zM276 625q-2 0 -2 -2q0 -3 2 -3l1 0.5t1 2.5t-1 2h-1zM851 665
q-20 0 -36.5 -14t-27.5 -28h3q14 16 29 27t36 15h-4zM265 634l1 -1q1 -2 3.5 -5t4.5 -3v3q-2 0 -4.5 3t-3.5 4q0 -1 -1 -1v0zM817 634q0 -5 3.5 -7t6.5 -2q10 0 10 7q0 11 -10 11q-3 0 -6.5 -2.5t-3.5 -6.5zM264 640q-3 0 -3 -2q0 -3 3 -3q1 0 1 3q0 2 -1 2zM69 643
q-2 0 -2 -3q0 -2 2 -2t2 2q0 3 -2 3zM222 663q3 -2 12 -6.5t12 -6.5q1 0 6 -4.5t6 -5.5l1 -1h1q0 1 1 1q-5 8 -15.5 15.5t-20.5 7.5h-3zM218 665q0 1 -4 1t-3 -1q0 -1 3 -1q4 0 4 1zM89 721q-2 0 -2 -3t2 -3q3 0 3 3t-3 3zM99 746q-2 0 -2 -3q0 -2 2 -2q3 0 3 2q0 3 -3 3z
M113 766q-3 0 -3 -3q0 -2 3 -2q1 0 1 2q0 3 -1 3zM138 769q-3 0 -3 -3t3 -3q1 0 1 3t-1 3zM135 773q-2 0 -2 -2t2 -2v2v2zM944 925q1 0 1 -3q0 -2 -1 -2q-2 0 -2 2q0 3 2 3z" />
    <glyph glyph-name="FL02C6h" unicode="&#x2c6;" horiz-adv-x="487" 
d="M167 810l151 -1q1 0 3 -2q8 -2 9 -11q14 -12 35.5 -38t42 -52t35 -46t14.5 -21v-21q-30 0 -51.5 -0.5t-40.5 -0.5q-9 0 -14.5 -0.5t-10.5 -0.5h-12h-8q-4 0 -10 1q-2 4 -10.5 15.5t-18.5 25t-20.5 26.5t-17.5 21q-8 -8 -18.5 -21.5t-20.5 -27.5t-18 -26t-10 -16
q-6 -1 -11 -1h-7h-11q-5 0 -10.5 0.5t-14.5 0.5q-19 0 -40.5 0.5t-51.5 0.5v21q0 1 14.5 20.5t34.5 46t41.5 52t35.5 38.5q0 5 1.5 11t9.5 6z" />
    <glyph glyph-name="FL02DCh" unicode="&#x2dc;" horiz-adv-x="539" 
d="M30 653q0 17 5 35t12.5 36t15 35.5t12.5 32.5q2 5 5.5 12.5t4.5 8.5h338q1 0 8.5 4t11.5 6l35 60h5q10 0 18 -4t8 -15q0 -24 -3 -39.5t-9 -29.5t-14 -29t-18 -37q-2 -4 -5.5 -9.5t-4.5 -6.5h-348q-2 -3 -8.5 -14.5t-14 -24.5t-14.5 -23.5t-10 -11.5q-2 0 -14 3t-16 7v4z
" />
    <glyph glyph-name="FL2013h" unicode="&#x2013;" horiz-adv-x="539" 
d="M30 269v-4q4 -4 16 -7t14 -3q3 1 9 5.5t12.5 10t11.5 11t7 8.5l348 1q1 0 4.5 5.5t5.5 9.5q20 45 35.5 85.5t15.5 88.5q0 11 -8 15t-18 4h-5l-30 -20q-4 -2 -11.5 -6t-8.5 -4l-338 -1q-1 0 -4.5 -7.5t-5.5 -12.5q-5 -15 -13.5 -38.5t-16.5 -49t-14 -50t-6 -41.5z" />
    <glyph glyph-name="FL2014h" unicode="&#x2014;" horiz-adv-x="639" 
d="M30 269q0 17 6 41.5t14 50t16.5 49t13.5 38.5q2 5 5.5 12.5t4.5 7.5l438 2q1 0 8.5 4t11.5 6l30 20h5q10 0 18 -4t8 -15q0 -48 -15.5 -88.5t-35.5 -85.5q-2 -4 -5.5 -9.5t-4.5 -5.5l-448 -2q-2 -3 -7 -8.5t-11.5 -11t-12.5 -10t-9 -5.5q-2 0 -14 3t-16 7v4z" />
    <glyph glyph-name="FL2018h" unicode="&#x2018;" horiz-adv-x="237" 
d="M196 810l-151 -1q-2 0 -5.5 -4t-4.5 -6q-5 -8 -5 -37q0 -20 1 -45t2.5 -49t2.5 -44t1 -28v-16v-21q30 0 47 -2t36 -2t32 4.5t36 6.5q5 10 8.5 36t6 56.5t3.5 58.5t1 41v32q0 5 -1.5 12.5t-9.5 7.5z" />
    <glyph glyph-name="FL2019h" unicode="&#x2019;" horiz-adv-x="237" 
d="M196 810l-151 -1q-2 0 -5.5 -4t-4.5 -6q-5 -8 -5 -37q0 -20 1 -45t2.5 -49t2.5 -44t1 -28v-16v-21q30 0 47 -2t36 -2t32 4.5t36 6.5q5 10 8.5 36t6 56.5t3.5 58.5t1 41v32q0 5 -1.5 12.5t-9.5 7.5z" />
    <glyph glyph-name="FL201Bh" unicode="&#x201a;" horiz-adv-x="251" 
d="M224 160q8 0 9.5 -7.5t1.5 -12.5q0 -9 -7 -29.5t-17.5 -46.5t-23.5 -55t-25 -55t-22 -46.5t-14 -28.5q-23 -2 -41.5 -2.5t-37.5 -0.5t-40.5 0.5t-51.5 0.5v21l7 17l17.5 42.5t23.5 55.5t25 58t21.5 49t13.5 29q1 2 4.5 6t5.5 4z" />
    <glyph glyph-name="FL201Ch" unicode="&#x201c;" horiz-adv-x="460" 
d="M196 810l-151 -1q-2 0 -5.5 -4t-4.5 -6q-5 -8 -5 -37q0 -20 1 -45t2.5 -49t2.5 -44t1 -28v-16v-21q30 0 47 -2t36 -2t32 4.5t36 6.5q5 10 8.5 36t6 56.5t3.5 58.5t1 41v32q0 5 -1.5 12.5t-9.5 7.5zM419 809l-151 -1q-2 0 -5.5 -4t-4.5 -6q-5 -8 -5 -37q0 -20 1 -45
t2.5 -49t2.5 -44t1 -28v-16v-21q30 0 47 -2t36 -2t32 4.5t36 6.5q5 10 8.5 36t6 56.5t3.5 58.5t1 41v32q0 5 -1.5 12.5t-9.5 7.5z" />
    <glyph glyph-name="FL201Dh" unicode="&#x201d;" horiz-adv-x="460" 
d="M196 810l-151 -1q-2 0 -5.5 -4t-4.5 -6q-5 -8 -5 -37q0 -20 1 -45t2.5 -49t2.5 -44t1 -28v-16v-21q30 0 47 -2t36 -2t32 4.5t36 6.5q5 10 8.5 36t6 56.5t3.5 58.5t1 41v32q0 5 -1.5 12.5t-9.5 7.5zM419 809l-151 -1q-2 0 -5.5 -4t-4.5 -6q-5 -8 -5 -37q0 -20 1 -45
t2.5 -49t2.5 -44t1 -28v-16v-21q30 0 47 -2t36 -2t32 4.5t36 6.5q5 10 8.5 36t6 56.5t3.5 58.5t1 41v32q0 5 -1.5 12.5t-9.5 7.5z" />
    <glyph glyph-name="FL201Ah" unicode="&#x201e;" horiz-adv-x="502" 
d="M475 160l-151 -1q-2 0 -5.5 -4t-4.5 -6q-4 -8 -13.5 -29t-21.5 -49t-25 -58t-23.5 -55.5l-17.5 -42.5l-7 -17v-21q30 0 51.5 -0.5t40.5 -0.5t37.5 0.5t41.5 2.5q4 8 14 28.5t22 46.5t25 55t23.5 55t17.5 46.5t7 29.5q0 5 -1.5 12.5t-9.5 7.5zM238 159l-151 -1
q-2 0 -5.5 -4t-4.5 -6q-4 -8 -13.5 -29t-21.5 -49t-25 -58t-23.5 -55.5l-17.5 -42.5l-7 -17v-21q30 0 51.5 -0.5t40.5 -0.5t37.5 0.5t41.5 2.5q4 8 14 28.5t22 46.5t25 55t23.5 55t17.5 46.5t7 29.5q0 5 -1.5 12.5t-9.5 7.5z" />
    <glyph glyph-name="FL2020h" unicode="&#x2020;" horiz-adv-x="1203" 
d="M424 198q-11 0 -22.5 -8t-24.5 -8v9q0 5 0.5 9t2.5 10q4 8 12 16t8 16q0 1 -0.5 3t-1.5 2q-16 -6 -32.5 -19.5t-35.5 -13.5q0 12 2 24t3 24q4 5 9 7.5t9 7.5h-1q-15 0 -28 -3t-29 -3q0 12 5 20t12.5 14t17 10.5t18.5 9.5q1 0 1.5 1l0.5 1h-1h-1q-20 -6 -39.5 -9t-40.5 -3
h-23t-22 2q-3 2 -5 5t-5 5q-5 4 -12 10.5t-7 7.5v30l-36 12v2q0 14 14.5 24t25.5 12v1v1q0 3 -3 3q-24 6 -47.5 14.5t-44.5 22.5v2q0 3 5.5 6t13 5t14 3.5t9.5 1.5h8l47 -15v5q-45 14 -82.5 41.5t-64.5 65.5q2 6 11 6h14q20 0 33.5 -11t31.5 -22q2 -1 8.5 -5t8.5 -5
q3 -2 9.5 -5t13.5 -7t13.5 -7t8.5 -4q1 0 4 -1t4 -1h2h3l-3 2q-52 23 -99 57.5t-76 85.5l-10 20v3q12 0 21.5 -1.5t18.5 -9.5l48 -47q2 -2 7 -6t10.5 -9t10.5 -9.5t7 -5.5q3 -2 12.5 -9t12.5 -9l20 -10h1h1q0 3 -2 3q-24 19 -45.5 36.5t-39.5 37t-34 41.5t-29 50
q-5 10 -8.5 21t-3.5 21v3q9 -1 21.5 -4t18.5 -11l72 -95l33 -33q1 -1 4.5 -4t5.5 -3h1h1q-65 66 -105 149t-40 177v4v11v4l3 -5l60 -150l5.5 -11t10.5 -20.5l12 -23t9 -18.5q1 -2 5.5 -8.5t9 -14t8.5 -14t5 -8.5t6.5 -12t11 -21.5t10.5 -21.5t7 -12q1 -2 4 -7.5t7 -11.5
t7 -12t4 -7q1 0 2 -2t1 -3h-18q3 -6 8 -15.5t11 -18.5t12.5 -15.5t13.5 -6.5v1q-10 11 -19.5 22.5t-15.5 25.5h20q-2 3 -7 11.5t-10.5 18.5t-10.5 18.5t-7 11.5q-11 20 -25.5 48t-14.5 54v8q17 -34 35.5 -69.5t44.5 -63.5l17.5 -17.5l20.5 -20.5t17.5 -17l7.5 -7h5
q-3 3 -9.5 10t-14.5 15t-14.5 15t-9.5 10q-5 7 -11.5 14t-8.5 16l-40 167q-5 23 -5 43v5q10 -6 13 -18q8 -35 19 -66.5t28 -63.5q0 1 0.5 1.5t0.5 1.5t-0.5 1.5l-0.5 0.5q-9 29 -17 54.5t-13.5 50.5t-8.5 51.5t-3 58.5q0 14 1 28t6 27l3 -2l45 -203l3 -10t7.5 -23t9 -26.5
l7.5 -22.5q2 -5 5 -11.5t5 -11.5q0 1 0.5 1.5t0.5 1.5q0 17 -6.5 32.5t-6.5 32.5q0 3 0.5 9.5t1.5 13t3 12t5 7.5q1 -3 3 -12t4.5 -19t4.5 -19t3 -12q0 -1 1 -4t1 -4q0 1 0.5 3.5t0.5 3.5q0 13 -3 25.5t-3 25.5v5q5 0 8 -3q36 -16 68.5 -29t65.5 -22.5t67 -15t73 -5.5
q69 0 132.5 21t125.5 51h6q0 -11 -3 -21t-3 -21v-5l3 5l10 47l2 5q11 -22 11 -44q0 -19 -6.5 -37t-11.5 -36v-1v-2q1 2 3.5 7.5t3.5 7.5q2 6 6 16t7.5 19.5t6.5 16.5t3 8l57 243q5 -2 6.5 -12.5t1.5 -12.5v-5v-19v-9q0 -60 -11 -112.5t-34 -109.5v-3q8 15 17.5 35t14.5 35
q1 2 4.5 15t5.5 18q3 9 6.5 27t13.5 25v-2q0 -2 0.5 -4t0.5 -4v-2q0 -8 -0.5 -14.5t-2.5 -15.5l-40 -168q-3 -15 -15 -27l-73 -73q-2 -2 -2 -7v-3l92 93q1 0 4 4t6.5 9t7 9.5t5.5 7.5q17 23 29.5 48.5t25.5 51.5v-6q0 -15 -5.5 -30t-12.5 -29l-26.5 -53t-30.5 -52v-2
q1 0 2.5 -0.5t2.5 -0.5q2 0 6.5 1t5.5 2l0.5 -1t0.5 -2q0 -7 -6.5 -12.5t-6.5 -12.5l2 -2q6 4 13 15.5t7 19.5h-15q0 2 1 3.5t2 3.5q52 91 98 180t82 188l5 10v-9q0 -95 -38 -183t-107 -153v-3q2 1 5.5 4t4.5 4l37 37q4 5 13.5 17t20 25.5t19.5 25.5t12 17q15 21 40 21
q1 0 3 -0.5l2 -0.5q-12 -57 -46 -101.5t-79 -80.5q-8 -7 -23.5 -16t-21.5 -17h2q3 0 10.5 4t15.5 9t15 10t10 7q25 20 46 40t44 43q8 5 17 6t18 1v-1v-1q-25 -56 -71.5 -93.5t-98.5 -64.5l-5 -5q1 1 3.5 1.5t3.5 1.5q3 1 7.5 3.5t9.5 5t8.5 4.5t4.5 2q4 3 14.5 9t22 13.5
t22 13.5t14.5 9h37q3 0 3 -3v-1v-1q-3 -8 -10 -17t-16 -17.5t-18 -16t-16 -12.5q-2 -1 -7 -4t-10.5 -7t-10.5 -7t-7 -4q-8 -5 -15 -7.5t-10 -10.5h1h1q2 1 11.5 4t11.5 4h5q10 0 20.5 -5t19.5 -10v-1q0 -8 -15 -14.5t-33 -12t-34 -11t-18 -11.5q6 1 14.5 -1t16 -6
t12.5 -10.5t5 -14.5l-1 -1q-6 -6 -19 -8.5t-26.5 -5.5t-24 -7.5t-10.5 -13.5v-2q4 -5 11 -14.5t7 -17.5q0 -2 -6.5 -3.5t-14.5 -2t-17 -0.5h-13q-14 0 -24.5 1t-27.5 4q-6 2 -13.5 5t-13.5 5h-1h-2q1 0 1.5 -1t1.5 -1q9 -5 18.5 -9.5t18 -11t13.5 -15t5 -20.5q-14 0 -27 3
t-27 3h-4q10 -8 18 -15q1 -11 3 -23.5t2 -24.5q-16 0 -34.5 12t-30.5 21q-3 -1 -3 -6v-4q11 -16 16 -25t5 -28q-13 0 -25 6.5t-22 6.5h-1l-5 -5q-38 -53 -78.5 -100t-89.5 -90h-1h-1q-17 10 -33.5 26.5t-29.5 30.5q-5 6 -15.5 18.5t-22.5 26.5t-22.5 26t-14.5 17q-1 2 -6 9
t-11 15t-11.5 14.5t-6.5 8.5q0 1 -2 3t-3 2zM848 277q0 2 -1 2q-2 0 -2 -2q0 -1 2 -1zM358 282q-2 0 -2 -2q0 -3 2 -3t2 3q0 2 -2 2zM888 405l62 -44l60 118h-95v6l6 11.5t9 18.5q2 2 5.5 8.5t4.5 8.5q2 -1 7.5 -3.5t7.5 -3.5l13 -8h1h1l10 10l0.5 0.5t0.5 1.5l-1 1
q-10 11 -24 21.5t-28 15.5l-60 -113h97l-25 -49q-1 -3 -5 -3h-2q-3 2 -14 10t-14 10q-3 3 -5 3q-3 -1 -9.5 -7.5l-7.5 -7.5zM207 365h28q0 10 1 13.5t7 8.5q9 7 24 19.5t25.5 21t12.5 9.5h5q0 -17 -1 -34.5t-1 -35.5h2h10l15 3l10 194l-125 -57zM403 435q0 -1 1 -1.5t1 -1.5
q2 -1 6.5 -3.5t6.5 -3.5q12 -6 30.5 -16t36 -19.5t30.5 -16l13 -6.5h2v30q-3 1 -10.5 5t-15.5 7.5t-15.5 7t-10.5 5.5t-8 5l-5 3v5l62 38l-62 29v2v1q1 0 3.5 2t4.5 3q3 2 11.5 6.5t17.5 10t17 9.5t11 6v25l-122 -62v-3l6.5 -4t10.5 -6l25 -12q3 -2 7 -4t4 -7l-1 -2z
M592 560q0 -96 3 -193q2 1 6.5 3t6.5 2q6 3 21.5 10.5t33 16t33.5 16t22 10.5q0 2 -3 5q-2 3 -7 11.5t-10.5 17.5t-10.5 17t-7 11q-5 -2 -16 -4.5t-11 -8.5v-2l2 -5l9 -13.5l9 -13.5v-8l-11.5 -6t-18.5 -9q-2 0 -7.5 -2t-7.5 -3h-3q-4 0 -5 3q0 4 -0.5 14.5t-0.5 22.5
t-0.5 23t-0.5 15v8v31q21 0 41.5 -3.5t41.5 -3.5q5 0 6 10t1 13v2l-113 13h-3zM773 560v-3v-7v-3q1 -19 3 -47.5t3.5 -55.5t2.5 -47l1 -20l2 -5h25l-15 188h-22zM316 522q0 -21 -3 -42l-5 -5l-17.5 -15t-20.5 -17.5t-17.5 -14.5l-7.5 -6h-3q0 15 -0.5 35.5t6.5 34.5
q0 1 2.5 2.5t4.5 2.5l15 8q4 2 11.5 5t14 5.5t12 4.5l5.5 2h3zM208 570q-2 0 -2 -3q0 -2 2 -2t2 2q0 3 -2 3zM205 570q1 1 -1 1t-1.5 -1t1.5 -1t1 1zM198 635q-2 0 -2 -3q0 -2 2 -2t2 2q0 3 -2 3zM333 652q-2 0 -2 -2q0 -3 2 -3t2 3q0 2 -2 2zM870 652q-2 0 -2 -2q0 -3 2 -3
t2 3q0 2 -2 2zM330 657q-2 0 -2 -2q0 -3 2 -3t2 3q0 2 -2 2zM873 657q-2 0 -2 -2q0 -3 2 -3t2 3q0 2 -2 2zM328 662q-1 1 -1 -1t1 -1.5t1 1.5t-1 1zM875 662q0 1 -0.5 0.5t-0.5 -1.5q0 -2 1.5 -1.5t1.5 1.5t-2 1zM325 667q0 1 -0.5 0.5t-0.5 -1.5q0 -2 1.5 -1.5t1.5 1.5
t-2 1zM323 675q-1 0 -1 -3q0 -2 1 -2t1 2q0 3 -1 3zM275 705q-2 0 -2 -3q0 -2 2 -2t2 2q0 3 -2 3zM273 710q-1 0 -1 -1q0 -2 1 -2t1 2v0q0 1 -1 1z" />
    </font>
</defs>
</svg>
